<?xml version="1.0" encoding="UTF-8" standalone="no"?>
<!DOCTYPE svg PUBLIC "-//W3C//DTD SVG 1.1//EN"
 "http://www.w3.org/Graphics/SVG/1.1/DTD/svg11.dtd">
<!-- Generated by graphviz version 13.1.1 (20250720.1534)
 -->
<!-- Pages: 1 -->
<svg width="1757pt" height="1240pt"
 viewBox="0.00 0.00 1757.00 1240.00" xmlns="http://www.w3.org/2000/svg" xmlns:xlink="http://www.w3.org/1999/xlink">
<g id="graph0" class="graph" transform="scale(1 1) rotate(0) translate(4 1236)">
<polygon fill="white" stroke="none" points="-4,4 -4,-1236 1753.45,-1236 1753.45,4 -4,4"/>
<!-- mysql -->
<g id="node1" class="node">
<title>mysql</title>
<g id="a_node1"><a xlink:href="https://github.com/conda-forge/mysql-feedstock/pull/113" xlink:title="mysql ❎">
<ellipse fill="#31688e" stroke="black" cx="938.2" cy="-1214" rx="56.47" ry="18"/>
<text xml:space="preserve" text-anchor="middle" x="938.2" y="-1209.33" font-family="Times,serif" font-size="14.00" fill="white">mysql ❎</text>
</a>
</g>
</g>
<!-- pyaudi -->
<g id="node2" class="node">
<title>pyaudi</title>
<g id="a_node2"><a xlink:href="https://github.com/conda-forge/pyaudi-feedstock/pull/48" xlink:title="pyaudi ✓">
<ellipse fill="#31688e" stroke="black" cx="938.2" cy="-1142" rx="52.79" ry="18"/>
<text xml:space="preserve" text-anchor="middle" x="938.2" y="-1137.33" font-family="Times,serif" font-size="14.00" fill="white">pyaudi ✓</text>
</a>
</g>
</g>
<!-- mysql&#45;&gt;pyaudi -->
<!-- tensorflow -->
<g id="node8" class="node">
<title>tensorflow</title>
<g id="a_node8"><a xlink:href="https://github.com/conda-forge/tensorflow-feedstock/pull/433" xlink:title="tensorflow ❎">
<ellipse fill="#31688e" stroke="black" cx="938.2" cy="-1070" rx="79.09" ry="18"/>
<text xml:space="preserve" text-anchor="middle" x="938.2" y="-1065.33" font-family="Times,serif" font-size="14.00" fill="white">tensorflow ❎</text>
</a>
</g>
</g>
<!-- pyaudi&#45;&gt;tensorflow -->
<!-- opencv -->
<g id="node3" class="node">
<title>opencv</title>
<g id="a_node3"><a xlink:href="https://github.com/conda-forge/opencv-feedstock" xlink:title="opencv">
<ellipse fill="#35b779" stroke="black" cx="962.2" cy="-306" rx="46.47" ry="18"/>
<text xml:space="preserve" text-anchor="middle" x="962.2" y="-301.32" font-family="Times,serif" font-size="14.00">opencv</text>
</a>
</g>
</g>
<!-- ray&#45;packages -->
<g id="node4" class="node">
<title>ray&#45;packages</title>
<g id="a_node4"><a xlink:href="https://github.com/conda-forge/ray-packages-feedstock" xlink:title="ray packages">
<ellipse fill="#fde725" stroke="black" cx="1117.2" cy="-234" rx="76.99" ry="18"/>
<text xml:space="preserve" text-anchor="middle" x="1117.2" y="-229.32" font-family="Times,serif" font-size="14.00">ray packages</text>
</a>
</g>
</g>
<!-- opencv&#45;&gt;ray&#45;packages -->
<g id="edge2" class="edge">
<title>opencv&#45;&gt;ray&#45;packages</title>
<path fill="none" stroke="black" d="M991.72,-291.67C1014.57,-281.35 1046.59,-266.89 1072.57,-255.15"/>
<polygon fill="black" stroke="black" points="1073.87,-258.41 1081.55,-251.1 1070.99,-252.03 1073.87,-258.41"/>
</g>
<!-- imp -->
<g id="node5" class="node">
<title>imp</title>
<g id="a_node5"><a xlink:href="https://github.com/conda-forge/imp-feedstock" xlink:title="imp">
<ellipse fill="#fde725" stroke="black" cx="992.2" cy="-234" rx="30.16" ry="18"/>
<text xml:space="preserve" text-anchor="middle" x="992.2" y="-229.32" font-family="Times,serif" font-size="14.00">imp</text>
</a>
</g>
</g>
<!-- opencv&#45;&gt;imp -->
<g id="edge3" class="edge">
<title>opencv&#45;&gt;imp</title>
<path fill="none" stroke="black" d="M969.46,-288.05C972.78,-280.32 976.79,-270.96 980.51,-262.27"/>
<polygon fill="black" stroke="black" points="983.68,-263.75 984.41,-253.18 977.25,-260.99 983.68,-263.75"/>
</g>
<!-- gazebo&#45;yarp&#45;plugins -->
<g id="node6" class="node">
<title>gazebo&#45;yarp&#45;plugins</title>
<g id="a_node6"><a xlink:href="https://github.com/conda-forge/gazebo-yarp-plugins-feedstock" xlink:title="gazebo yarp plugins">
<ellipse fill="#fde725" stroke="black" cx="794.2" cy="-234" rx="112.24" ry="18"/>
<text xml:space="preserve" text-anchor="middle" x="794.2" y="-229.32" font-family="Times,serif" font-size="14.00">gazebo yarp plugins</text>
</a>
</g>
</g>
<!-- opencv&#45;&gt;gazebo&#45;yarp&#45;plugins -->
<g id="edge4" class="edge">
<title>opencv&#45;&gt;gazebo&#45;yarp&#45;plugins</title>
<path fill="none" stroke="black" d="M931.38,-292.16C906.94,-281.98 872.29,-267.54 843.93,-255.72"/>
<polygon fill="black" stroke="black" points="845.38,-252.53 834.8,-251.92 842.69,-259 845.38,-252.53"/>
</g>
<!-- nvidia&#45;dali&#45;python -->
<g id="node7" class="node">
<title>nvidia&#45;dali&#45;python</title>
<g id="a_node7"><a xlink:href="https://github.com/conda-forge/nvidia-dali-python-feedstock" xlink:title="nvidia dali python">
<ellipse fill="#fde725" stroke="black" cx="934.2" cy="-162" rx="101.19" ry="18"/>
<text xml:space="preserve" text-anchor="middle" x="934.2" y="-157.32" font-family="Times,serif" font-size="14.00">nvidia dali python</text>
</a>
</g>
</g>
<!-- opencv&#45;&gt;nvidia&#45;dali&#45;python -->
<g id="edge5" class="edge">
<title>opencv&#45;&gt;nvidia&#45;dali&#45;python</title>
<path fill="none" stroke="black" d="M958.76,-287.59C954.02,-263.5 945.39,-219.75 939.73,-191.03"/>
<polygon fill="black" stroke="black" points="943.23,-190.73 937.86,-181.6 936.37,-192.08 943.23,-190.73"/>
</g>
<!-- mongodb -->
<g id="node9" class="node">
<title>mongodb</title>
<g id="a_node9"><a xlink:href="https://github.com/conda-forge/mongodb-feedstock/pull/105" xlink:title="mongodb ❎">
<ellipse fill="#31688e" stroke="black" cx="938.2" cy="-998" rx="72.78" ry="18"/>
<text xml:space="preserve" text-anchor="middle" x="938.2" y="-993.33" font-family="Times,serif" font-size="14.00" fill="white">mongodb ❎</text>
</a>
</g>
</g>
<!-- tensorflow&#45;&gt;mongodb -->
<!-- jaxlib -->
<g id="node10" class="node">
<title>jaxlib</title>
<g id="a_node10"><a xlink:href="https://github.com/conda-forge/jaxlib-feedstock/pull/316" xlink:title="jaxlib ❎">
<ellipse fill="#31688e" stroke="black" cx="938.2" cy="-926" rx="53.84" ry="18"/>
<text xml:space="preserve" text-anchor="middle" x="938.2" y="-921.33" font-family="Times,serif" font-size="14.00" fill="white">jaxlib ❎</text>
</a>
</g>
</g>
<!-- mongodb&#45;&gt;jaxlib -->
<!-- go&#45;cockroach -->
<g id="node11" class="node">
<title>go&#45;cockroach</title>
<g id="a_node11"><a xlink:href="https://github.com/conda-forge/go-cockroach-feedstock/pull/33" xlink:title="go cockroach ❎">
<ellipse fill="#31688e" stroke="black" cx="938.2" cy="-854" rx="91.72" ry="18"/>
<text xml:space="preserve" text-anchor="middle" x="938.2" y="-849.33" font-family="Times,serif" font-size="14.00" fill="white">go cockroach ❎</text>
</a>
</g>
</g>
<!-- jaxlib&#45;&gt;go&#45;cockroach -->
<!-- pys2index -->
<g id="node20" class="node">
<title>pys2index</title>
<g id="a_node20"><a xlink:href="https://github.com/conda-forge/pys2index-feedstock/pull/29" xlink:title="pys2index ❎">
<ellipse fill="#31688e" stroke="black" cx="938.2" cy="-782" rx="77.52" ry="18"/>
<text xml:space="preserve" text-anchor="middle" x="938.2" y="-777.33" font-family="Times,serif" font-size="14.00" fill="white">pys2index ❎</text>
</a>
</g>
</g>
<!-- go&#45;cockroach&#45;&gt;pys2index -->
<!-- libignition&#45;transport4 -->
<g id="node12" class="node">
<title>libignition&#45;transport4</title>
<g id="a_node12"><a xlink:href="https://github.com/conda-forge/libignition-transport4-feedstock/pull/108" xlink:title="libignition transport4 ❎">
<ellipse fill="#31688e" stroke="black" cx="190.2" cy="-926" rx="134.33" ry="18"/>
<text xml:space="preserve" text-anchor="middle" x="190.2" y="-921.33" font-family="Times,serif" font-size="14.00" fill="white">libignition transport4 ❎</text>
</a>
</g>
</g>
<!-- libignition&#45;sensors -->
<g id="node13" class="node">
<title>libignition&#45;sensors</title>
<g id="a_node13"><a xlink:href="https://github.com/conda-forge/libignition-sensors-feedstock" xlink:title="libignition sensors">
<ellipse fill="#fde725" stroke="black" cx="360.2" cy="-854" rx="103.82" ry="18"/>
<text xml:space="preserve" text-anchor="middle" x="360.2" y="-849.33" font-family="Times,serif" font-size="14.00">libignition sensors</text>
</a>
</g>
</g>
<!-- libignition&#45;transport4&#45;&gt;libignition&#45;sensors -->
<g id="edge10" class="edge">
<title>libignition&#45;transport4&#45;&gt;libignition&#45;sensors</title>
<path fill="none" stroke="black" d="M230.49,-908.41C254.46,-898.54 285.06,-885.94 310.52,-875.46"/>
<polygon fill="black" stroke="black" points="311.76,-878.73 319.68,-871.68 309.1,-872.26 311.76,-878.73"/>
</g>
<!-- libignition&#45;gui -->
<g id="node14" class="node">
<title>libignition&#45;gui</title>
<g id="a_node14"><a xlink:href="https://github.com/conda-forge/libignition-gui-feedstock" xlink:title="libignition gui">
<ellipse fill="#fde725" stroke="black" cx="81.2" cy="-854" rx="81.2" ry="18"/>
<text xml:space="preserve" text-anchor="middle" x="81.2" y="-849.33" font-family="Times,serif" font-size="14.00">libignition gui</text>
</a>
</g>
</g>
<!-- libignition&#45;transport4&#45;&gt;libignition&#45;gui -->
<g id="edge11" class="edge">
<title>libignition&#45;transport4&#45;&gt;libignition&#45;gui</title>
<path fill="none" stroke="black" d="M163.53,-907.88C149.37,-898.78 131.77,-887.48 116.49,-877.66"/>
<polygon fill="black" stroke="black" points="118.42,-874.74 108.11,-872.28 114.63,-880.63 118.42,-874.74"/>
</g>
<!-- libignition&#45;gazebo -->
<g id="node15" class="node">
<title>libignition&#45;gazebo</title>
<g id="a_node15"><a xlink:href="https://github.com/conda-forge/libignition-gazebo-feedstock" xlink:title="libignition gazebo">
<ellipse fill="#fde725" stroke="black" cx="340.2" cy="-782" rx="100.66" ry="18"/>
<text xml:space="preserve" text-anchor="middle" x="340.2" y="-777.33" font-family="Times,serif" font-size="14.00">libignition gazebo</text>
</a>
</g>
</g>
<!-- libignition&#45;transport4&#45;&gt;libignition&#45;gazebo -->
<g id="edge12" class="edge">
<title>libignition&#45;transport4&#45;&gt;libignition&#45;gazebo</title>
<path fill="none" stroke="black" d="M198.02,-907.86C207.49,-888.55 224.98,-857.1 247.2,-836 260.46,-823.4 277.28,-812.66 292.95,-804.2"/>
<polygon fill="black" stroke="black" points="294.42,-807.38 301.69,-799.68 291.2,-801.17 294.42,-807.38"/>
</g>
<!-- libignition&#45;launch -->
<g id="node16" class="node">
<title>libignition&#45;launch</title>
<g id="a_node16"><a xlink:href="https://github.com/conda-forge/libignition-launch-feedstock" xlink:title="libignition launch">
<ellipse fill="#fde725" stroke="black" cx="275.2" cy="-710" rx="98.56" ry="18"/>
<text xml:space="preserve" text-anchor="middle" x="275.2" y="-705.33" font-family="Times,serif" font-size="14.00">libignition launch</text>
</a>
</g>
</g>
<!-- libignition&#45;transport4&#45;&gt;libignition&#45;launch -->
<g id="edge13" class="edge">
<title>libignition&#45;transport4&#45;&gt;libignition&#45;launch</title>
<path fill="none" stroke="black" d="M191.88,-907.64C195.4,-877.11 205.36,-812.44 230.2,-764 235.21,-754.22 242.35,-744.69 249.47,-736.47"/>
<polygon fill="black" stroke="black" points="251.92,-738.98 256.07,-729.24 246.75,-734.27 251.92,-738.98"/>
</g>
<!-- libignition&#45;sensors&#45;&gt;libignition&#45;gazebo -->
<g id="edge14" class="edge">
<title>libignition&#45;sensors&#45;&gt;libignition&#45;gazebo</title>
<path fill="none" stroke="black" d="M355.25,-835.7C353.12,-828.24 350.58,-819.32 348.19,-810.97"/>
<polygon fill="black" stroke="black" points="351.61,-810.21 345.5,-801.56 344.88,-812.14 351.61,-810.21"/>
</g>
<!-- libignition&#45;gui&#45;&gt;libignition&#45;gazebo -->
<g id="edge15" class="edge">
<title>libignition&#45;gui&#45;&gt;libignition&#45;gazebo</title>
<path fill="none" stroke="black" d="M131.44,-839.42C172.4,-828.35 230.54,-812.64 275.06,-800.6"/>
<polygon fill="black" stroke="black" points="275.87,-804.01 284.61,-798.02 274.04,-797.25 275.87,-804.01"/>
</g>
<!-- libignition&#45;gui&#45;&gt;libignition&#45;launch -->
<g id="edge16" class="edge">
<title>libignition&#45;gui&#45;&gt;libignition&#45;launch</title>
<path fill="none" stroke="black" d="M96.54,-836.18C114.45,-817.17 145.53,-786 176.2,-764 192.88,-752.03 212.6,-740.94 230.02,-732.03"/>
<polygon fill="black" stroke="black" points="231.25,-735.33 238.63,-727.72 228.12,-729.07 231.25,-735.33"/>
</g>
<!-- libignition&#45;gazebo&#45;&gt;libignition&#45;launch -->
<g id="edge17" class="edge">
<title>libignition&#45;gazebo&#45;&gt;libignition&#45;launch</title>
<path fill="none" stroke="black" d="M324.46,-764.05C316.64,-755.63 307.03,-745.28 298.38,-735.97"/>
<polygon fill="black" stroke="black" points="301.19,-733.84 291.82,-728.9 296.06,-738.61 301.19,-733.84"/>
</g>
<!-- libignition&#45;msgs1 -->
<g id="node17" class="node">
<title>libignition&#45;msgs1</title>
<g id="a_node17"><a xlink:href="https://github.com/conda-forge/libignition-msgs1-feedstock/pull/119" xlink:title="libignition msgs1 ❎">
<ellipse fill="#31688e" stroke="black" cx="429.2" cy="-998" rx="113.29" ry="18"/>
<text xml:space="preserve" text-anchor="middle" x="429.2" y="-993.33" font-family="Times,serif" font-size="14.00" fill="white">libignition msgs1 ❎</text>
</a>
</g>
</g>
<!-- libignition&#45;msgs1&#45;&gt;libignition&#45;transport4 -->
<g id="edge18" class="edge">
<title>libignition&#45;msgs1&#45;&gt;libignition&#45;transport4</title>
<path fill="none" stroke="black" d="M376.75,-981.64C340.98,-971.16 293.36,-957.22 255.19,-946.04"/>
<polygon fill="black" stroke="black" points="256.21,-942.69 245.63,-943.24 254.25,-949.41 256.21,-942.69"/>
</g>
<!-- libignition&#45;msgs1&#45;&gt;libignition&#45;sensors -->
<g id="edge19" class="edge">
<title>libignition&#45;msgs1&#45;&gt;libignition&#45;sensors</title>
<path fill="none" stroke="black" d="M403.54,-980.1C391.7,-970.89 378.65,-958.42 371.2,-944 361.63,-925.48 359.06,-901.99 358.79,-883.79"/>
<polygon fill="black" stroke="black" points="362.29,-883.98 358.89,-873.95 355.29,-883.91 362.29,-883.98"/>
</g>
<!-- libignition&#45;msgs1&#45;&gt;libignition&#45;gui -->
<g id="edge20" class="edge">
<title>libignition&#45;msgs1&#45;&gt;libignition&#45;gui</title>
<path fill="none" stroke="black" d="M315.57,-997.09C215.84,-994.45 81.5,-983.38 47.2,-944 31.52,-925.99 44.34,-899.99 58.5,-880.74"/>
<polygon fill="black" stroke="black" points="61.08,-883.11 64.5,-873.08 55.58,-878.79 61.08,-883.11"/>
</g>
<!-- libignition&#45;msgs1&#45;&gt;libignition&#45;gazebo -->
<g id="edge21" class="edge">
<title>libignition&#45;msgs1&#45;&gt;libignition&#45;gazebo</title>
<path fill="none" stroke="black" d="M530.21,-989.58C599.69,-980.01 674.26,-958.1 643.2,-908 599.8,-837.99 508.6,-807.19 437.53,-793.64"/>
<polygon fill="black" stroke="black" points="438.26,-790.21 427.8,-791.88 437.02,-797.1 438.26,-790.21"/>
</g>
<!-- libignition&#45;msgs1&#45;&gt;libignition&#45;launch -->
<g id="edge22" class="edge">
<title>libignition&#45;msgs1&#45;&gt;libignition&#45;launch</title>
<path fill="none" stroke="black" d="M522.48,-987.5C579.06,-979.6 643.65,-966.01 661.2,-944 671.17,-931.49 666.52,-923.09 661.2,-908 619.29,-789.17 467.02,-741.51 366.72,-722.75"/>
<polygon fill="black" stroke="black" points="367.62,-719.36 357.16,-721.03 366.38,-726.25 367.62,-719.36"/>
</g>
<!-- libignition&#45;fuel&#45;tools -->
<g id="node18" class="node">
<title>libignition&#45;fuel&#45;tools</title>
<g id="a_node18"><a xlink:href="https://github.com/conda-forge/libignition-fuel-tools-feedstock/pull/105" xlink:title="libignition fuel tools ❎">
<ellipse fill="#31688e" stroke="black" cx="507.2" cy="-926" rx="126.97" ry="18"/>
<text xml:space="preserve" text-anchor="middle" x="507.2" y="-921.33" font-family="Times,serif" font-size="14.00" fill="white">libignition fuel tools ❎</text>
</a>
</g>
</g>
<!-- libignition&#45;msgs1&#45;&gt;libignition&#45;fuel&#45;tools -->
<g id="edge23" class="edge">
<title>libignition&#45;msgs1&#45;&gt;libignition&#45;fuel&#45;tools</title>
<path fill="none" stroke="black" d="M448.08,-980.05C457.52,-971.58 469.13,-961.17 479.55,-951.82"/>
<polygon fill="black" stroke="black" points="481.72,-954.57 486.82,-945.29 477.04,-949.36 481.72,-954.57"/>
</g>
<!-- libignition&#45;fuel&#45;tools&#45;&gt;libignition&#45;gazebo -->
<g id="edge24" class="edge">
<title>libignition&#45;fuel&#45;tools&#45;&gt;libignition&#45;gazebo</title>
<path fill="none" stroke="black" d="M504.82,-907.7C501.25,-887.93 492.71,-855.79 473.2,-836 457,-819.57 435.07,-808.09 413.68,-800.12"/>
<polygon fill="black" stroke="black" points="414.95,-796.86 404.35,-796.88 412.65,-803.47 414.95,-796.86"/>
</g>
<!-- gazebo -->
<g id="node19" class="node">
<title>gazebo</title>
<g id="a_node19"><a xlink:href="https://github.com/conda-forge/gazebo-feedstock/pull/243" xlink:title="gazebo ❎">
<ellipse fill="#31688e" stroke="black" cx="794.2" cy="-306" rx="61.73" ry="18"/>
<text xml:space="preserve" text-anchor="middle" x="794.2" y="-301.32" font-family="Times,serif" font-size="14.00" fill="white">gazebo ❎</text>
</a>
</g>
</g>
<!-- gazebo&#45;&gt;gazebo&#45;yarp&#45;plugins -->
<g id="edge25" class="edge">
<title>gazebo&#45;&gt;gazebo&#45;yarp&#45;plugins</title>
<path fill="none" stroke="black" d="M794.2,-287.7C794.2,-280.41 794.2,-271.73 794.2,-263.54"/>
<polygon fill="black" stroke="black" points="797.7,-263.62 794.2,-253.62 790.7,-263.62 797.7,-263.62"/>
</g>
<!-- tomviz -->
<g id="node21" class="node">
<title>tomviz</title>
<g id="a_node21"><a xlink:href="https://github.com/conda-forge/tomviz-feedstock/pull/75" xlink:title="tomviz ❎">
<ellipse fill="#31688e" stroke="black" cx="938.2" cy="-710" rx="60.15" ry="18"/>
<text xml:space="preserve" text-anchor="middle" x="938.2" y="-705.33" font-family="Times,serif" font-size="14.00" fill="white">tomviz ❎</text>
</a>
</g>
</g>
<!-- pys2index&#45;&gt;tomviz -->
<!-- or&#45;tools -->
<g id="node22" class="node">
<title>or&#45;tools</title>
<g id="a_node22"><a xlink:href="https://github.com/conda-forge/or-tools-feedstock/pull/66" xlink:title="or tools ❎">
<ellipse fill="#31688e" stroke="black" cx="938.2" cy="-638" rx="64.36" ry="18"/>
<text xml:space="preserve" text-anchor="middle" x="938.2" y="-633.33" font-family="Times,serif" font-size="14.00" fill="white">or tools ❎</text>
</a>
</g>
</g>
<!-- tomviz&#45;&gt;or&#45;tools -->
<!-- datafusion -->
<g id="node23" class="node">
<title>datafusion</title>
<g id="a_node23"><a xlink:href="https://github.com/conda-forge/datafusion-feedstock/pull/69" xlink:title="datafusion ❎">
<ellipse fill="#31688e" stroke="black" cx="938.2" cy="-566" rx="79.09" ry="18"/>
<text xml:space="preserve" text-anchor="middle" x="938.2" y="-561.33" font-family="Times,serif" font-size="14.00" fill="white">datafusion ❎</text>
</a>
</g>
</g>
<!-- or&#45;tools&#45;&gt;datafusion -->
<!-- xilinx&#45;runtime -->
<g id="node24" class="node">
<title>xilinx&#45;runtime</title>
<g id="a_node24"><a xlink:href="https://github.com/conda-forge/xilinx-runtime-feedstock/pull/41" xlink:title="xilinx runtime ❎">
<ellipse fill="#31688e" stroke="black" cx="938.2" cy="-494" rx="96.98" ry="18"/>
<text xml:space="preserve" text-anchor="middle" x="938.2" y="-489.32" font-family="Times,serif" font-size="14.00" fill="white">xilinx runtime ❎</text>
</a>
</g>
</g>
<!-- datafusion&#45;&gt;xilinx&#45;runtime -->
<!-- mujoco -->
<g id="node25" class="node">
<title>mujoco</title>
<g id="a_node25"><a xlink:href="https://github.com/conda-forge/mujoco-feedstock/pull/87" xlink:title="mujoco ❎">
<ellipse fill="#31688e" stroke="black" cx="1117.2" cy="-306" rx="62.26" ry="18"/>
<text xml:space="preserve" text-anchor="middle" x="1117.2" y="-301.32" font-family="Times,serif" font-size="14.00" fill="white">mujoco ❎</text>
</a>
</g>
</g>
<!-- mujoco&#45;&gt;ray&#45;packages -->
<g id="edge31" class="edge">
<title>mujoco&#45;&gt;ray&#45;packages</title>
<path fill="none" stroke="black" d="M1117.2,-287.7C1117.2,-280.41 1117.2,-271.73 1117.2,-263.54"/>
<polygon fill="black" stroke="black" points="1120.7,-263.62 1117.2,-253.62 1113.7,-263.62 1120.7,-263.62"/>
</g>
<!-- gz&#45;transport -->
<g id="node26" class="node">
<title>gz&#45;transport</title>
<g id="a_node26"><a xlink:href="https://github.com/conda-forge/gz-transport-feedstock/pull/63" xlink:title="gz transport ❎">
<ellipse fill="#31688e" stroke="black" cx="1550.2" cy="-962" rx="88.56" ry="18"/>
<text xml:space="preserve" text-anchor="middle" x="1550.2" y="-957.33" font-family="Times,serif" font-size="14.00" fill="white">gz transport ❎</text>
</a>
</g>
</g>
<!-- gz&#45;gui -->
<g id="node27" class="node">
<title>gz&#45;gui</title>
<g id="a_node27"><a xlink:href="https://github.com/conda-forge/gz-gui-feedstock" xlink:title="gz gui">
<ellipse fill="#fde725" stroke="black" cx="1287.2" cy="-890" rx="41.74" ry="18"/>
<text xml:space="preserve" text-anchor="middle" x="1287.2" y="-885.33" font-family="Times,serif" font-size="14.00">gz gui</text>
</a>
</g>
</g>
<!-- gz&#45;transport&#45;&gt;gz&#45;gui -->
<g id="edge32" class="edge">
<title>gz&#45;transport&#45;&gt;gz&#45;gui</title>
<path fill="none" stroke="black" d="M1492.44,-948.01C1449.39,-938 1389.3,-923.31 1337.2,-908 1334.67,-907.26 1332.09,-906.47 1329.49,-905.65"/>
<polygon fill="black" stroke="black" points="1330.84,-902.41 1320.25,-902.66 1328.69,-909.07 1330.84,-902.41"/>
</g>
<!-- gz&#45;sensors -->
<g id="node28" class="node">
<title>gz&#45;sensors</title>
<g id="a_node28"><a xlink:href="https://github.com/conda-forge/gz-sensors-feedstock" xlink:title="gz sensors">
<ellipse fill="#fde725" stroke="black" cx="1642.2" cy="-890" rx="64.36" ry="18"/>
<text xml:space="preserve" text-anchor="middle" x="1642.2" y="-885.33" font-family="Times,serif" font-size="14.00">gz sensors</text>
</a>
</g>
</g>
<!-- gz&#45;transport&#45;&gt;gz&#45;sensors -->
<g id="edge33" class="edge">
<title>gz&#45;transport&#45;&gt;gz&#45;sensors</title>
<path fill="none" stroke="black" d="M1572,-944.41C1583.89,-935.37 1598.79,-924.03 1611.8,-914.13"/>
<polygon fill="black" stroke="black" points="1613.83,-916.99 1619.66,-908.14 1609.59,-911.41 1613.83,-916.99"/>
</g>
<!-- gz&#45;sim -->
<g id="node29" class="node">
<title>gz&#45;sim</title>
<g id="a_node29"><a xlink:href="https://github.com/conda-forge/gz-sim-feedstock" xlink:title="gz sim">
<ellipse fill="#fde725" stroke="black" cx="1492.2" cy="-818" rx="43.84" ry="18"/>
<text xml:space="preserve" text-anchor="middle" x="1492.2" y="-813.33" font-family="Times,serif" font-size="14.00">gz sim</text>
</a>
</g>
</g>
<!-- gz&#45;transport&#45;&gt;gz&#45;sim -->
<g id="edge34" class="edge">
<title>gz&#45;transport&#45;&gt;gz&#45;sim</title>
<path fill="none" stroke="black" d="M1548.68,-943.6C1546.57,-925.15 1541.75,-895.49 1531.2,-872 1526.77,-862.16 1520.31,-852.36 1513.9,-843.92"/>
<polygon fill="black" stroke="black" points="1516.73,-841.85 1507.76,-836.22 1511.26,-846.22 1516.73,-841.85"/>
</g>
<!-- gz&#45;launch -->
<g id="node30" class="node">
<title>gz&#45;launch</title>
<g id="a_node30"><a xlink:href="https://github.com/conda-forge/gz-launch-feedstock" xlink:title="gz launch">
<ellipse fill="#fde725" stroke="black" cx="1287.2" cy="-746" rx="59.1" ry="18"/>
<text xml:space="preserve" text-anchor="middle" x="1287.2" y="-741.33" font-family="Times,serif" font-size="14.00">gz launch</text>
</a>
</g>
</g>
<!-- gz&#45;transport&#45;&gt;gz&#45;launch -->
<g id="edge35" class="edge">
<title>gz&#45;transport&#45;&gt;gz&#45;launch</title>
<path fill="none" stroke="black" d="M1462.89,-958.48C1380.27,-954.04 1264.75,-941.78 1236.2,-908 1202.81,-868.5 1239.65,-806.98 1265.79,-772.55"/>
<polygon fill="black" stroke="black" points="1268.46,-774.82 1271.88,-764.79 1262.96,-770.5 1268.46,-774.82"/>
</g>
<!-- gz&#45;sim&#45;yarp&#45;plugins -->
<g id="node31" class="node">
<title>gz&#45;sim&#45;yarp&#45;plugins</title>
<g id="a_node31"><a xlink:href="https://github.com/conda-forge/gz-sim-yarp-plugins-feedstock" xlink:title="gz sim yarp plugins">
<ellipse fill="#fde725" stroke="black" cx="1613.2" cy="-746" rx="109.61" ry="18"/>
<text xml:space="preserve" text-anchor="middle" x="1613.2" y="-741.33" font-family="Times,serif" font-size="14.00">gz sim yarp plugins</text>
</a>
</g>
</g>
<!-- gz&#45;transport&#45;&gt;gz&#45;sim&#45;yarp&#45;plugins -->
<g id="edge36" class="edge">
<title>gz&#45;transport&#45;&gt;gz&#45;sim&#45;yarp&#45;plugins</title>
<path fill="none" stroke="black" d="M1631.82,-954.86C1663.1,-948.04 1695.88,-934.5 1715.2,-908 1749.45,-861.02 1688.63,-802.68 1647.11,-770.71"/>
<polygon fill="black" stroke="black" points="1649.38,-768.04 1639.28,-764.84 1645.18,-773.64 1649.38,-768.04"/>
</g>
<!-- gz&#45;gui&#45;&gt;gz&#45;sim -->
<g id="edge37" class="edge">
<title>gz&#45;gui&#45;&gt;gz&#45;sim</title>
<path fill="none" stroke="black" d="M1319.23,-878.06C1354.12,-866.15 1410.14,-847.02 1448.92,-833.78"/>
<polygon fill="black" stroke="black" points="1449.61,-837.24 1457.94,-830.7 1447.35,-830.62 1449.61,-837.24"/>
</g>
<!-- gz&#45;gui&#45;&gt;gz&#45;launch -->
<g id="edge38" class="edge">
<title>gz&#45;gui&#45;&gt;gz&#45;launch</title>
<path fill="none" stroke="black" d="M1287.2,-871.59C1287.2,-847.61 1287.2,-804.14 1287.2,-775.42"/>
<polygon fill="black" stroke="black" points="1290.7,-775.62 1287.2,-765.62 1283.7,-775.62 1290.7,-775.62"/>
</g>
<!-- gz&#45;sensors&#45;&gt;gz&#45;sim -->
<g id="edge39" class="edge">
<title>gz&#45;sensors&#45;&gt;gz&#45;sim</title>
<path fill="none" stroke="black" d="M1610.02,-873.98C1586.77,-863.14 1555.27,-848.44 1530.69,-836.96"/>
<polygon fill="black" stroke="black" points="1532.2,-833.8 1521.66,-832.75 1529.24,-840.15 1532.2,-833.8"/>
</g>
<!-- gz&#45;sim&#45;&gt;gz&#45;launch -->
<g id="edge40" class="edge">
<title>gz&#45;sim&#45;&gt;gz&#45;launch</title>
<path fill="none" stroke="black" d="M1459.26,-805.75C1426.09,-794.43 1374.52,-776.82 1336.48,-763.83"/>
<polygon fill="black" stroke="black" points="1337.67,-760.54 1327.07,-760.62 1335.41,-767.16 1337.67,-760.54"/>
</g>
<!-- gz&#45;sim&#45;&gt;gz&#45;sim&#45;yarp&#45;plugins -->
<g id="edge41" class="edge">
<title>gz&#45;sim&#45;&gt;gz&#45;sim&#45;yarp&#45;plugins</title>
<path fill="none" stroke="black" d="M1516.98,-802.67C1533.5,-793.1 1555.57,-780.34 1574.41,-769.44"/>
<polygon fill="black" stroke="black" points="1575.98,-772.57 1582.88,-764.54 1572.48,-766.51 1575.98,-772.57"/>
</g>
<!-- gz&#45;fuel&#45;tools -->
<g id="node32" class="node">
<title>gz&#45;fuel&#45;tools</title>
<g id="a_node32"><a xlink:href="https://github.com/conda-forge/gz-fuel-tools-feedstock/pull/62" xlink:title="gz fuel tools ❎">
<ellipse fill="#31688e" stroke="black" cx="1434.2" cy="-890" rx="87.51" ry="18"/>
<text xml:space="preserve" text-anchor="middle" x="1434.2" y="-885.33" font-family="Times,serif" font-size="14.00" fill="white">gz fuel tools ❎</text>
</a>
</g>
</g>
<!-- gz&#45;fuel&#45;tools&#45;&gt;gz&#45;sim -->
<g id="edge42" class="edge">
<title>gz&#45;fuel&#45;tools&#45;&gt;gz&#45;sim</title>
<path fill="none" stroke="black" d="M1448.24,-872.05C1455.18,-863.68 1463.69,-853.4 1471.37,-844.13"/>
<polygon fill="black" stroke="black" points="1474.04,-846.41 1477.72,-836.47 1468.65,-841.94 1474.04,-846.41"/>
</g>
<!-- pyg&#45;lib -->
<g id="node33" class="node">
<title>pyg&#45;lib</title>
<g id="a_node33"><a xlink:href="https://github.com/conda-forge/pyg-lib-feedstock/pull/38" xlink:title="pyg lib ✓">
<ellipse fill="#31688e" stroke="black" cx="337.2" cy="-450" rx="53.31" ry="18"/>
<text xml:space="preserve" text-anchor="middle" x="337.2" y="-445.32" font-family="Times,serif" font-size="14.00" fill="white">pyg lib ✓</text>
</a>
</g>
</g>
<!-- gnss&#45;sdr -->
<g id="node34" class="node">
<title>gnss&#45;sdr</title>
<g id="a_node34"><a xlink:href="https://github.com/conda-forge/gnss-sdr-feedstock/pull/38" xlink:title="gnss sdr ✓">
<ellipse fill="#31688e" stroke="black" cx="337.2" cy="-378" rx="61.73" ry="18"/>
<text xml:space="preserve" text-anchor="middle" x="337.2" y="-373.32" font-family="Times,serif" font-size="14.00" fill="white">gnss sdr ✓</text>
</a>
</g>
</g>
<!-- pyg&#45;lib&#45;&gt;gnss&#45;sdr -->
<!-- tensorstore -->
<g id="node37" class="node">
<title>tensorstore</title>
<g id="a_node37"><a xlink:href="https://github.com/conda-forge/tensorstore-feedstock/pull/56" xlink:title="tensorstore ❎">
<ellipse fill="#31688e" stroke="black" cx="337.2" cy="-306" rx="84.35" ry="18"/>
<text xml:space="preserve" text-anchor="middle" x="337.2" y="-301.32" font-family="Times,serif" font-size="14.00" fill="white">tensorstore ❎</text>
</a>
</g>
</g>
<!-- gnss&#45;sdr&#45;&gt;tensorstore -->
<!-- s2geography -->
<g id="node35" class="node">
<title>s2geography</title>
<g id="a_node35"><a xlink:href="https://github.com/conda-forge/s2geography-feedstock/pull/11" xlink:title="s2geography ❎">
<ellipse fill="#31688e" stroke="black" cx="1476.2" cy="-270" rx="91.19" ry="18"/>
<text xml:space="preserve" text-anchor="middle" x="1476.2" y="-265.32" font-family="Times,serif" font-size="14.00" fill="white">s2geography ❎</text>
</a>
</g>
</g>
<!-- spherely -->
<g id="node36" class="node">
<title>spherely</title>
<g id="a_node36"><a xlink:href="https://github.com/conda-forge/spherely-feedstock" xlink:title="spherely">
<ellipse fill="#fde725" stroke="black" cx="1476.2" cy="-198" rx="54.36" ry="18"/>
<text xml:space="preserve" text-anchor="middle" x="1476.2" y="-193.32" font-family="Times,serif" font-size="14.00">spherely</text>
</a>
</g>
</g>
<!-- s2geography&#45;&gt;spherely -->
<g id="edge44" class="edge">
<title>s2geography&#45;&gt;spherely</title>
<path fill="none" stroke="black" d="M1476.2,-251.7C1476.2,-244.41 1476.2,-235.73 1476.2,-227.54"/>
<polygon fill="black" stroke="black" points="1479.7,-227.62 1476.2,-217.62 1472.7,-227.62 1479.7,-227.62"/>
</g>
<!-- gcld3 -->
<g id="node38" class="node">
<title>gcld3</title>
<g id="a_node38"><a xlink:href="https://github.com/conda-forge/gcld3-feedstock/pull/17" xlink:title="gcld3 ✓">
<ellipse fill="#31688e" stroke="black" cx="337.2" cy="-234" rx="46.47" ry="18"/>
<text xml:space="preserve" text-anchor="middle" x="337.2" y="-229.32" font-family="Times,serif" font-size="14.00" fill="white">gcld3 ✓</text>
</a>
</g>
</g>
<!-- tensorstore&#45;&gt;gcld3 -->
<!-- openvino&#45;tokenizers -->
<g id="node39" class="node">
<title>openvino&#45;tokenizers</title>
<g id="a_node39"><a xlink:href="https://github.com/conda-forge/openvino-tokenizers-feedstock" xlink:title="openvino tokenizers">
<ellipse fill="#35b779" stroke="black" cx="337.2" cy="-162" rx="111.71" ry="18"/>
<text xml:space="preserve" text-anchor="middle" x="337.2" y="-157.32" font-family="Times,serif" font-size="14.00">openvino tokenizers</text>
</a>
</g>
</g>
<!-- gcld3&#45;&gt;openvino&#45;tokenizers -->
<!-- bfiocpp -->
<g id="node40" class="node">
<title>bfiocpp</title>
<g id="a_node40"><a xlink:href="https://github.com/conda-forge/bfiocpp-feedstock/pull/15" xlink:title="bfiocpp ❎">
<ellipse fill="#31688e" stroke="black" cx="337.2" cy="-90" rx="62.78" ry="18"/>
<text xml:space="preserve" text-anchor="middle" x="337.2" y="-85.33" font-family="Times,serif" font-size="14.00" fill="white">bfiocpp ❎</text>
</a>
</g>
</g>
<!-- openvino&#45;tokenizers&#45;&gt;bfiocpp -->
<!-- mysqlx&#45;connector&#45;python -->
<g id="node41" class="node">
<title>mysqlx&#45;connector&#45;python</title>
<g id="a_node41"><a xlink:href="https://github.com/conda-forge/mysqlx-connector-python-feedstock/pull/12" xlink:title="mysqlx connector python ❎">
<ellipse fill="#31688e" stroke="black" cx="337.2" cy="-18" rx="152.75" ry="18"/>
<text xml:space="preserve" text-anchor="middle" x="337.2" y="-13.32" font-family="Times,serif" font-size="14.00" fill="white">mysqlx connector python ❎</text>
</a>
</g>
</g>
<!-- bfiocpp&#45;&gt;mysqlx&#45;connector&#45;python -->
</g>
</svg>
