<?xml version="1.0" encoding="UTF-8" standalone="no"?>
<!DOCTYPE svg PUBLIC "-//W3C//DTD SVG 1.1//EN"
 "http://www.w3.org/Graphics/SVG/1.1/DTD/svg11.dtd">
<!-- Generated by graphviz version 13.1.0 (20250701.1702)
 -->
<!-- Pages: 1 -->
<svg width="1532pt" height="1168pt"
 viewBox="0.00 0.00 1532.00 1168.00" xmlns="http://www.w3.org/2000/svg" xmlns:xlink="http://www.w3.org/1999/xlink">
<g id="graph0" class="graph" transform="scale(1 1) rotate(0) translate(4 1164)">
<polygon fill="white" stroke="none" points="-4,4 -4,-1164 1527.77,-1164 1527.77,4 -4,4"/>
<!-- mysql -->
<g id="node1" class="node">
<title>mysql</title>
<g id="a_node1"><a xlink:href="https://github.com/conda-forge/mysql-feedstock/pull/113" xlink:title="mysql ❎">
<ellipse fill="#31688e" stroke="black" cx="835.2" cy="-1142" rx="56.47" ry="18"/>
<text xml:space="preserve" text-anchor="middle" x="835.2" y="-1137.33" font-family="Times,serif" font-size="14.00" fill="white">mysql ❎</text>
</a>
</g>
</g>
<!-- pyaudi -->
<g id="node2" class="node">
<title>pyaudi</title>
<g id="a_node2"><a xlink:href="https://github.com/conda-forge/pyaudi-feedstock/pull/48" xlink:title="pyaudi ✓">
<ellipse fill="#31688e" stroke="black" cx="835.2" cy="-1070" rx="52.79" ry="18"/>
<text xml:space="preserve" text-anchor="middle" x="835.2" y="-1065.33" font-family="Times,serif" font-size="14.00" fill="white">pyaudi ✓</text>
</a>
</g>
</g>
<!-- mysql&#45;&gt;pyaudi -->
<!-- tensorflow -->
<g id="node7" class="node">
<title>tensorflow</title>
<g id="a_node7"><a xlink:href="https://github.com/conda-forge/tensorflow-feedstock/pull/433" xlink:title="tensorflow ❎">
<ellipse fill="#31688e" stroke="black" cx="835.2" cy="-998" rx="79.09" ry="18"/>
<text xml:space="preserve" text-anchor="middle" x="835.2" y="-993.33" font-family="Times,serif" font-size="14.00" fill="white">tensorflow ❎</text>
</a>
</g>
</g>
<!-- pyaudi&#45;&gt;tensorflow -->
<!-- opencv -->
<g id="node3" class="node">
<title>opencv</title>
<g id="a_node3"><a xlink:href="https://github.com/conda-forge/opencv-feedstock" xlink:title="opencv">
<ellipse fill="#fde725" stroke="black" cx="453.2" cy="-198" rx="46.47" ry="18"/>
<text xml:space="preserve" text-anchor="middle" x="453.2" y="-193.32" font-family="Times,serif" font-size="14.00">opencv</text>
</a>
</g>
</g>
<!-- ray&#45;packages -->
<g id="node4" class="node">
<title>ray&#45;packages</title>
<g id="a_node4"><a xlink:href="https://github.com/conda-forge/ray-packages-feedstock" xlink:title="ray packages">
<ellipse fill="#fde725" stroke="black" cx="588.2" cy="-126" rx="76.99" ry="18"/>
<text xml:space="preserve" text-anchor="middle" x="588.2" y="-121.33" font-family="Times,serif" font-size="14.00">ray packages</text>
</a>
</g>
</g>
<!-- opencv&#45;&gt;ray&#45;packages -->
<g id="edge2" class="edge">
<title>opencv&#45;&gt;ray&#45;packages</title>
<path fill="none" stroke="black" d="M480.19,-183C499.46,-173.01 525.7,-159.4 547.5,-148.1"/>
<polygon fill="black" stroke="black" points="548.87,-151.34 556.13,-143.63 545.64,-145.12 548.87,-151.34"/>
</g>
<!-- imp -->
<g id="node5" class="node">
<title>imp</title>
<g id="a_node5"><a xlink:href="https://github.com/conda-forge/imp-feedstock" xlink:title="imp">
<ellipse fill="#fde725" stroke="black" cx="463.2" cy="-126" rx="30.16" ry="18"/>
<text xml:space="preserve" text-anchor="middle" x="463.2" y="-121.33" font-family="Times,serif" font-size="14.00">imp</text>
</a>
</g>
</g>
<!-- opencv&#45;&gt;imp -->
<g id="edge3" class="edge">
<title>opencv&#45;&gt;imp</title>
<path fill="none" stroke="black" d="M455.67,-179.7C456.72,-172.32 457.98,-163.52 459.16,-155.25"/>
<polygon fill="black" stroke="black" points="462.59,-156 460.54,-145.6 455.66,-155.01 462.59,-156"/>
</g>
<!-- gazebo&#45;yarp&#45;plugins -->
<g id="node6" class="node">
<title>gazebo&#45;yarp&#45;plugins</title>
<g id="a_node6"><a xlink:href="https://github.com/conda-forge/gazebo-yarp-plugins-feedstock" xlink:title="gazebo yarp plugins">
<ellipse fill="#fde725" stroke="black" cx="303.2" cy="-126" rx="112.24" ry="18"/>
<text xml:space="preserve" text-anchor="middle" x="303.2" y="-121.33" font-family="Times,serif" font-size="14.00">gazebo yarp plugins</text>
</a>
</g>
</g>
<!-- opencv&#45;&gt;gazebo&#45;yarp&#45;plugins -->
<g id="edge4" class="edge">
<title>opencv&#45;&gt;gazebo&#45;yarp&#45;plugins</title>
<path fill="none" stroke="black" d="M424.28,-183.5C402.9,-173.53 373.36,-159.74 348.82,-148.29"/>
<polygon fill="black" stroke="black" points="350.55,-145.24 340.01,-144.18 347.59,-151.58 350.55,-145.24"/>
</g>
<!-- mongodb -->
<g id="node8" class="node">
<title>mongodb</title>
<g id="a_node8"><a xlink:href="https://github.com/conda-forge/mongodb-feedstock/pull/105" xlink:title="mongodb ❎">
<ellipse fill="#31688e" stroke="black" cx="835.2" cy="-926" rx="72.78" ry="18"/>
<text xml:space="preserve" text-anchor="middle" x="835.2" y="-921.33" font-family="Times,serif" font-size="14.00" fill="white">mongodb ❎</text>
</a>
</g>
</g>
<!-- tensorflow&#45;&gt;mongodb -->
<!-- jaxlib -->
<g id="node9" class="node">
<title>jaxlib</title>
<g id="a_node9"><a xlink:href="https://github.com/conda-forge/jaxlib-feedstock/pull/316" xlink:title="jaxlib ✓">
<ellipse fill="#31688e" stroke="black" cx="835.2" cy="-854" rx="46.47" ry="18"/>
<text xml:space="preserve" text-anchor="middle" x="835.2" y="-849.33" font-family="Times,serif" font-size="14.00" fill="white">jaxlib ✓</text>
</a>
</g>
</g>
<!-- mongodb&#45;&gt;jaxlib -->
<!-- go&#45;cockroach -->
<g id="node10" class="node">
<title>go&#45;cockroach</title>
<g id="a_node10"><a xlink:href="https://github.com/conda-forge/go-cockroach-feedstock/pull/33" xlink:title="go cockroach ❎">
<ellipse fill="#31688e" stroke="black" cx="835.2" cy="-782" rx="91.72" ry="18"/>
<text xml:space="preserve" text-anchor="middle" x="835.2" y="-777.33" font-family="Times,serif" font-size="14.00" fill="white">go cockroach ❎</text>
</a>
</g>
</g>
<!-- jaxlib&#45;&gt;go&#45;cockroach -->
<!-- pys2index -->
<g id="node19" class="node">
<title>pys2index</title>
<g id="a_node19"><a xlink:href="https://github.com/conda-forge/pys2index-feedstock/pull/29" xlink:title="pys2index ❎">
<ellipse fill="#31688e" stroke="black" cx="835.2" cy="-710" rx="77.52" ry="18"/>
<text xml:space="preserve" text-anchor="middle" x="835.2" y="-705.33" font-family="Times,serif" font-size="14.00" fill="white">pys2index ❎</text>
</a>
</g>
</g>
<!-- go&#45;cockroach&#45;&gt;pys2index -->
<!-- libignition&#45;transport4 -->
<g id="node11" class="node">
<title>libignition&#45;transport4</title>
<g id="a_node11"><a xlink:href="https://github.com/conda-forge/libignition-transport4-feedstock/pull/108" xlink:title="libignition transport4 ❎">
<ellipse fill="#31688e" stroke="black" cx="190.2" cy="-854" rx="134.33" ry="18"/>
<text xml:space="preserve" text-anchor="middle" x="190.2" y="-849.33" font-family="Times,serif" font-size="14.00" fill="white">libignition transport4 ❎</text>
</a>
</g>
</g>
<!-- libignition&#45;sensors -->
<g id="node12" class="node">
<title>libignition&#45;sensors</title>
<g id="a_node12"><a xlink:href="https://github.com/conda-forge/libignition-sensors-feedstock" xlink:title="libignition sensors">
<ellipse fill="#fde725" stroke="black" cx="360.2" cy="-782" rx="103.82" ry="18"/>
<text xml:space="preserve" text-anchor="middle" x="360.2" y="-777.33" font-family="Times,serif" font-size="14.00">libignition sensors</text>
</a>
</g>
</g>
<!-- libignition&#45;transport4&#45;&gt;libignition&#45;sensors -->
<g id="edge9" class="edge">
<title>libignition&#45;transport4&#45;&gt;libignition&#45;sensors</title>
<path fill="none" stroke="black" d="M230.49,-836.41C254.46,-826.54 285.06,-813.94 310.52,-803.46"/>
<polygon fill="black" stroke="black" points="311.76,-806.73 319.68,-799.68 309.1,-800.26 311.76,-806.73"/>
</g>
<!-- libignition&#45;gui -->
<g id="node13" class="node">
<title>libignition&#45;gui</title>
<g id="a_node13"><a xlink:href="https://github.com/conda-forge/libignition-gui-feedstock" xlink:title="libignition gui">
<ellipse fill="#fde725" stroke="black" cx="81.2" cy="-782" rx="81.2" ry="18"/>
<text xml:space="preserve" text-anchor="middle" x="81.2" y="-777.33" font-family="Times,serif" font-size="14.00">libignition gui</text>
</a>
</g>
</g>
<!-- libignition&#45;transport4&#45;&gt;libignition&#45;gui -->
<g id="edge10" class="edge">
<title>libignition&#45;transport4&#45;&gt;libignition&#45;gui</title>
<path fill="none" stroke="black" d="M163.53,-835.88C149.37,-826.78 131.77,-815.48 116.49,-805.66"/>
<polygon fill="black" stroke="black" points="118.42,-802.74 108.11,-800.28 114.63,-808.63 118.42,-802.74"/>
</g>
<!-- libignition&#45;gazebo -->
<g id="node14" class="node">
<title>libignition&#45;gazebo</title>
<g id="a_node14"><a xlink:href="https://github.com/conda-forge/libignition-gazebo-feedstock" xlink:title="libignition gazebo">
<ellipse fill="#fde725" stroke="black" cx="340.2" cy="-710" rx="100.66" ry="18"/>
<text xml:space="preserve" text-anchor="middle" x="340.2" y="-705.33" font-family="Times,serif" font-size="14.00">libignition gazebo</text>
</a>
</g>
</g>
<!-- libignition&#45;transport4&#45;&gt;libignition&#45;gazebo -->
<g id="edge11" class="edge">
<title>libignition&#45;transport4&#45;&gt;libignition&#45;gazebo</title>
<path fill="none" stroke="black" d="M198.02,-835.86C207.49,-816.55 224.98,-785.1 247.2,-764 260.46,-751.4 277.28,-740.66 292.95,-732.2"/>
<polygon fill="black" stroke="black" points="294.42,-735.38 301.69,-727.68 291.2,-729.17 294.42,-735.38"/>
</g>
<!-- libignition&#45;launch -->
<g id="node15" class="node">
<title>libignition&#45;launch</title>
<g id="a_node15"><a xlink:href="https://github.com/conda-forge/libignition-launch-feedstock" xlink:title="libignition launch">
<ellipse fill="#fde725" stroke="black" cx="275.2" cy="-638" rx="98.56" ry="18"/>
<text xml:space="preserve" text-anchor="middle" x="275.2" y="-633.33" font-family="Times,serif" font-size="14.00">libignition launch</text>
</a>
</g>
</g>
<!-- libignition&#45;transport4&#45;&gt;libignition&#45;launch -->
<g id="edge12" class="edge">
<title>libignition&#45;transport4&#45;&gt;libignition&#45;launch</title>
<path fill="none" stroke="black" d="M191.88,-835.64C195.4,-805.11 205.36,-740.44 230.2,-692 235.21,-682.22 242.35,-672.69 249.47,-664.47"/>
<polygon fill="black" stroke="black" points="251.92,-666.98 256.07,-657.24 246.75,-662.27 251.92,-666.98"/>
</g>
<!-- libignition&#45;sensors&#45;&gt;libignition&#45;gazebo -->
<g id="edge13" class="edge">
<title>libignition&#45;sensors&#45;&gt;libignition&#45;gazebo</title>
<path fill="none" stroke="black" d="M355.25,-763.7C353.12,-756.24 350.58,-747.32 348.19,-738.97"/>
<polygon fill="black" stroke="black" points="351.61,-738.21 345.5,-729.56 344.88,-740.14 351.61,-738.21"/>
</g>
<!-- libignition&#45;gui&#45;&gt;libignition&#45;gazebo -->
<g id="edge14" class="edge">
<title>libignition&#45;gui&#45;&gt;libignition&#45;gazebo</title>
<path fill="none" stroke="black" d="M131.44,-767.42C172.4,-756.35 230.54,-740.64 275.06,-728.6"/>
<polygon fill="black" stroke="black" points="275.87,-732.01 284.61,-726.02 274.04,-725.25 275.87,-732.01"/>
</g>
<!-- libignition&#45;gui&#45;&gt;libignition&#45;launch -->
<g id="edge15" class="edge">
<title>libignition&#45;gui&#45;&gt;libignition&#45;launch</title>
<path fill="none" stroke="black" d="M96.54,-764.18C114.45,-745.17 145.53,-714 176.2,-692 192.88,-680.03 212.6,-668.94 230.02,-660.03"/>
<polygon fill="black" stroke="black" points="231.25,-663.33 238.63,-655.72 228.12,-657.07 231.25,-663.33"/>
</g>
<!-- libignition&#45;gazebo&#45;&gt;libignition&#45;launch -->
<g id="edge16" class="edge">
<title>libignition&#45;gazebo&#45;&gt;libignition&#45;launch</title>
<path fill="none" stroke="black" d="M324.46,-692.05C316.64,-683.63 307.03,-673.28 298.38,-663.97"/>
<polygon fill="black" stroke="black" points="301.19,-661.84 291.82,-656.9 296.06,-666.61 301.19,-661.84"/>
</g>
<!-- libignition&#45;msgs1 -->
<g id="node16" class="node">
<title>libignition&#45;msgs1</title>
<g id="a_node16"><a xlink:href="https://github.com/conda-forge/libignition-msgs1-feedstock/pull/119" xlink:title="libignition msgs1 ❎">
<ellipse fill="#31688e" stroke="black" cx="429.2" cy="-926" rx="113.29" ry="18"/>
<text xml:space="preserve" text-anchor="middle" x="429.2" y="-921.33" font-family="Times,serif" font-size="14.00" fill="white">libignition msgs1 ❎</text>
</a>
</g>
</g>
<!-- libignition&#45;msgs1&#45;&gt;libignition&#45;transport4 -->
<g id="edge17" class="edge">
<title>libignition&#45;msgs1&#45;&gt;libignition&#45;transport4</title>
<path fill="none" stroke="black" d="M376.75,-909.64C340.98,-899.16 293.36,-885.22 255.19,-874.04"/>
<polygon fill="black" stroke="black" points="256.21,-870.69 245.63,-871.24 254.25,-877.41 256.21,-870.69"/>
</g>
<!-- libignition&#45;msgs1&#45;&gt;libignition&#45;sensors -->
<g id="edge18" class="edge">
<title>libignition&#45;msgs1&#45;&gt;libignition&#45;sensors</title>
<path fill="none" stroke="black" d="M403.54,-908.1C391.7,-898.89 378.65,-886.42 371.2,-872 361.63,-853.48 359.06,-829.99 358.79,-811.79"/>
<polygon fill="black" stroke="black" points="362.29,-811.98 358.89,-801.95 355.29,-811.91 362.29,-811.98"/>
</g>
<!-- libignition&#45;msgs1&#45;&gt;libignition&#45;gui -->
<g id="edge19" class="edge">
<title>libignition&#45;msgs1&#45;&gt;libignition&#45;gui</title>
<path fill="none" stroke="black" d="M315.57,-925.09C215.84,-922.45 81.5,-911.38 47.2,-872 31.52,-853.99 44.34,-827.99 58.5,-808.74"/>
<polygon fill="black" stroke="black" points="61.08,-811.11 64.5,-801.08 55.58,-806.79 61.08,-811.11"/>
</g>
<!-- libignition&#45;msgs1&#45;&gt;libignition&#45;gazebo -->
<g id="edge20" class="edge">
<title>libignition&#45;msgs1&#45;&gt;libignition&#45;gazebo</title>
<path fill="none" stroke="black" d="M530.21,-917.58C599.69,-908.01 674.26,-886.1 643.2,-836 599.8,-765.99 508.6,-735.19 437.53,-721.64"/>
<polygon fill="black" stroke="black" points="438.26,-718.21 427.8,-719.88 437.02,-725.1 438.26,-718.21"/>
</g>
<!-- libignition&#45;msgs1&#45;&gt;libignition&#45;launch -->
<g id="edge21" class="edge">
<title>libignition&#45;msgs1&#45;&gt;libignition&#45;launch</title>
<path fill="none" stroke="black" d="M522.48,-915.5C579.06,-907.6 643.65,-894.01 661.2,-872 671.17,-859.49 666.52,-851.09 661.2,-836 619.29,-717.17 467.02,-669.51 366.72,-650.75"/>
<polygon fill="black" stroke="black" points="367.62,-647.36 357.16,-649.03 366.38,-654.25 367.62,-647.36"/>
</g>
<!-- libignition&#45;fuel&#45;tools -->
<g id="node17" class="node">
<title>libignition&#45;fuel&#45;tools</title>
<g id="a_node17"><a xlink:href="https://github.com/conda-forge/libignition-fuel-tools-feedstock/pull/105" xlink:title="libignition fuel tools ❎">
<ellipse fill="#31688e" stroke="black" cx="507.2" cy="-854" rx="126.97" ry="18"/>
<text xml:space="preserve" text-anchor="middle" x="507.2" y="-849.33" font-family="Times,serif" font-size="14.00" fill="white">libignition fuel tools ❎</text>
</a>
</g>
</g>
<!-- libignition&#45;msgs1&#45;&gt;libignition&#45;fuel&#45;tools -->
<g id="edge22" class="edge">
<title>libignition&#45;msgs1&#45;&gt;libignition&#45;fuel&#45;tools</title>
<path fill="none" stroke="black" d="M448.08,-908.05C457.52,-899.58 469.13,-889.17 479.55,-879.82"/>
<polygon fill="black" stroke="black" points="481.72,-882.57 486.82,-873.29 477.04,-877.36 481.72,-882.57"/>
</g>
<!-- libignition&#45;fuel&#45;tools&#45;&gt;libignition&#45;gazebo -->
<g id="edge23" class="edge">
<title>libignition&#45;fuel&#45;tools&#45;&gt;libignition&#45;gazebo</title>
<path fill="none" stroke="black" d="M504.82,-835.7C501.25,-815.93 492.71,-783.79 473.2,-764 457,-747.57 435.07,-736.09 413.68,-728.12"/>
<polygon fill="black" stroke="black" points="414.95,-724.86 404.35,-724.88 412.65,-731.47 414.95,-724.86"/>
</g>
<!-- gazebo -->
<g id="node18" class="node">
<title>gazebo</title>
<g id="a_node18"><a xlink:href="https://github.com/conda-forge/gazebo-feedstock/pull/243" xlink:title="gazebo ❎">
<ellipse fill="#31688e" stroke="black" cx="311.2" cy="-198" rx="61.73" ry="18"/>
<text xml:space="preserve" text-anchor="middle" x="311.2" y="-193.32" font-family="Times,serif" font-size="14.00" fill="white">gazebo ❎</text>
</a>
</g>
</g>
<!-- gazebo&#45;&gt;gazebo&#45;yarp&#45;plugins -->
<g id="edge24" class="edge">
<title>gazebo&#45;&gt;gazebo&#45;yarp&#45;plugins</title>
<path fill="none" stroke="black" d="M309.22,-179.7C308.39,-172.41 307.4,-163.73 306.46,-155.54"/>
<polygon fill="black" stroke="black" points="309.94,-155.15 305.32,-145.61 302.98,-155.94 309.94,-155.15"/>
</g>
<!-- tomviz -->
<g id="node20" class="node">
<title>tomviz</title>
<g id="a_node20"><a xlink:href="https://github.com/conda-forge/tomviz-feedstock/pull/75" xlink:title="tomviz ❎">
<ellipse fill="#31688e" stroke="black" cx="835.2" cy="-638" rx="60.15" ry="18"/>
<text xml:space="preserve" text-anchor="middle" x="835.2" y="-633.33" font-family="Times,serif" font-size="14.00" fill="white">tomviz ❎</text>
</a>
</g>
</g>
<!-- pys2index&#45;&gt;tomviz -->
<!-- or&#45;tools -->
<g id="node21" class="node">
<title>or&#45;tools</title>
<g id="a_node21"><a xlink:href="https://github.com/conda-forge/or-tools-feedstock/pull/66" xlink:title="or tools ❎">
<ellipse fill="#31688e" stroke="black" cx="835.2" cy="-566" rx="64.36" ry="18"/>
<text xml:space="preserve" text-anchor="middle" x="835.2" y="-561.33" font-family="Times,serif" font-size="14.00" fill="white">or tools ❎</text>
</a>
</g>
</g>
<!-- tomviz&#45;&gt;or&#45;tools -->
<!-- datafusion -->
<g id="node22" class="node">
<title>datafusion</title>
<g id="a_node22"><a xlink:href="https://github.com/conda-forge/datafusion-feedstock/pull/69" xlink:title="datafusion ❎">
<ellipse fill="#31688e" stroke="black" cx="835.2" cy="-494" rx="79.09" ry="18"/>
<text xml:space="preserve" text-anchor="middle" x="835.2" y="-489.32" font-family="Times,serif" font-size="14.00" fill="white">datafusion ❎</text>
</a>
</g>
</g>
<!-- or&#45;tools&#45;&gt;datafusion -->
<!-- xilinx&#45;runtime -->
<g id="node23" class="node">
<title>xilinx&#45;runtime</title>
<g id="a_node23"><a xlink:href="https://github.com/conda-forge/xilinx-runtime-feedstock/pull/41" xlink:title="xilinx runtime ❎">
<ellipse fill="#31688e" stroke="black" cx="835.2" cy="-422" rx="96.98" ry="18"/>
<text xml:space="preserve" text-anchor="middle" x="835.2" y="-417.32" font-family="Times,serif" font-size="14.00" fill="white">xilinx runtime ❎</text>
</a>
</g>
</g>
<!-- datafusion&#45;&gt;xilinx&#45;runtime -->
<!-- mujoco -->
<g id="node24" class="node">
<title>mujoco</title>
<g id="a_node24"><a xlink:href="https://github.com/conda-forge/mujoco-feedstock/pull/87" xlink:title="mujoco ❎">
<ellipse fill="#31688e" stroke="black" cx="588.2" cy="-198" rx="62.26" ry="18"/>
<text xml:space="preserve" text-anchor="middle" x="588.2" y="-193.32" font-family="Times,serif" font-size="14.00" fill="white">mujoco ❎</text>
</a>
</g>
</g>
<!-- mujoco&#45;&gt;ray&#45;packages -->
<g id="edge30" class="edge">
<title>mujoco&#45;&gt;ray&#45;packages</title>
<path fill="none" stroke="black" d="M588.2,-179.7C588.2,-172.41 588.2,-163.73 588.2,-155.54"/>
<polygon fill="black" stroke="black" points="591.7,-155.62 588.2,-145.62 584.7,-155.62 591.7,-155.62"/>
</g>
<!-- gz&#45;msgs -->
<g id="node25" class="node">
<title>gz&#45;msgs</title>
<g id="a_node25"><a xlink:href="https://github.com/conda-forge/gz-msgs-feedstock/pull/68" xlink:title="gz msgs ❎">
<ellipse fill="#31688e" stroke="black" cx="1264.2" cy="-926" rx="67.52" ry="18"/>
<text xml:space="preserve" text-anchor="middle" x="1264.2" y="-921.33" font-family="Times,serif" font-size="14.00" fill="white">gz msgs ❎</text>
</a>
</g>
</g>
<!-- gz&#45;transport -->
<g id="node26" class="node">
<title>gz&#45;transport</title>
<g id="a_node26"><a xlink:href="https://github.com/conda-forge/gz-transport-feedstock" xlink:title="gz transport">
<ellipse fill="#fde725" stroke="black" cx="1163.2" cy="-854" rx="73.3" ry="18"/>
<text xml:space="preserve" text-anchor="middle" x="1163.2" y="-849.33" font-family="Times,serif" font-size="14.00">gz transport</text>
</a>
</g>
</g>
<!-- gz&#45;msgs&#45;&gt;gz&#45;transport -->
<g id="edge31" class="edge">
<title>gz&#45;msgs&#45;&gt;gz&#45;transport</title>
<path fill="none" stroke="black" d="M1240.77,-908.76C1227.48,-899.55 1210.64,-887.88 1196.05,-877.77"/>
<polygon fill="black" stroke="black" points="1198.3,-875.07 1188.09,-872.25 1194.32,-880.82 1198.3,-875.07"/>
</g>
<!-- gz&#45;fuel&#45;tools -->
<g id="node27" class="node">
<title>gz&#45;fuel&#45;tools</title>
<g id="a_node27"><a xlink:href="https://github.com/conda-forge/gz-fuel-tools-feedstock" xlink:title="gz fuel tools">
<ellipse fill="#fde725" stroke="black" cx="1364.2" cy="-854" rx="72.25" ry="18"/>
<text xml:space="preserve" text-anchor="middle" x="1364.2" y="-849.33" font-family="Times,serif" font-size="14.00">gz fuel tools</text>
</a>
</g>
</g>
<!-- gz&#45;msgs&#45;&gt;gz&#45;fuel&#45;tools -->
<g id="edge32" class="edge">
<title>gz&#45;msgs&#45;&gt;gz&#45;fuel&#45;tools</title>
<path fill="none" stroke="black" d="M1287.39,-908.76C1300.55,-899.55 1317.22,-887.88 1331.67,-877.77"/>
<polygon fill="black" stroke="black" points="1333.36,-880.86 1339.54,-872.26 1329.34,-875.13 1333.36,-880.86"/>
</g>
<!-- gz&#45;gui -->
<g id="node28" class="node">
<title>gz&#45;gui</title>
<g id="a_node28"><a xlink:href="https://github.com/conda-forge/gz-gui-feedstock" xlink:title="gz gui">
<ellipse fill="#fde725" stroke="black" cx="1062.2" cy="-782" rx="41.74" ry="18"/>
<text xml:space="preserve" text-anchor="middle" x="1062.2" y="-777.33" font-family="Times,serif" font-size="14.00">gz gui</text>
</a>
</g>
</g>
<!-- gz&#45;msgs&#45;&gt;gz&#45;gui -->
<g id="edge33" class="edge">
<title>gz&#45;msgs&#45;&gt;gz&#45;gui</title>
<path fill="none" stroke="black" d="M1197.92,-922.24C1158.67,-917.05 1110.95,-903.96 1081.2,-872 1066.29,-855.99 1061.95,-831.26 1061.11,-811.93"/>
<polygon fill="black" stroke="black" points="1064.61,-811.91 1061,-801.95 1057.61,-811.98 1064.61,-811.91"/>
</g>
<!-- gz&#45;sensors -->
<g id="node29" class="node">
<title>gz&#45;sensors</title>
<g id="a_node29"><a xlink:href="https://github.com/conda-forge/gz-sensors-feedstock" xlink:title="gz sensors">
<ellipse fill="#fde725" stroke="black" cx="1300.2" cy="-782" rx="64.36" ry="18"/>
<text xml:space="preserve" text-anchor="middle" x="1300.2" y="-777.33" font-family="Times,serif" font-size="14.00">gz sensors</text>
</a>
</g>
</g>
<!-- gz&#45;msgs&#45;&gt;gz&#45;sensors -->
<g id="edge34" class="edge">
<title>gz&#45;msgs&#45;&gt;gz&#45;sensors</title>
<path fill="none" stroke="black" d="M1267.34,-907.82C1270.75,-889.8 1276.61,-860.73 1283.2,-836 1285.4,-827.75 1288.1,-818.88 1290.7,-810.8"/>
<polygon fill="black" stroke="black" points="1293.96,-812.09 1293.77,-801.49 1287.32,-809.9 1293.96,-812.09"/>
</g>
<!-- gz&#45;sim -->
<g id="node30" class="node">
<title>gz&#45;sim</title>
<g id="a_node30"><a xlink:href="https://github.com/conda-forge/gz-sim-feedstock" xlink:title="gz sim">
<ellipse fill="#fde725" stroke="black" cx="1275.2" cy="-710" rx="43.84" ry="18"/>
<text xml:space="preserve" text-anchor="middle" x="1275.2" y="-705.33" font-family="Times,serif" font-size="14.00">gz sim</text>
</a>
</g>
</g>
<!-- gz&#45;msgs&#45;&gt;gz&#45;sim -->
<g id="edge35" class="edge">
<title>gz&#45;msgs&#45;&gt;gz&#45;sim</title>
<path fill="none" stroke="black" d="M1320.77,-915.99C1368.06,-907.16 1430.13,-892.11 1445.2,-872 1478.26,-827.86 1392.26,-764.86 1391.2,-764 1370.3,-747.17 1343.2,-734.4 1320.45,-725.62"/>
<polygon fill="black" stroke="black" points="1321.68,-722.34 1311.09,-722.15 1319.25,-728.91 1321.68,-722.34"/>
</g>
<!-- gz&#45;launch -->
<g id="node31" class="node">
<title>gz&#45;launch</title>
<g id="a_node31"><a xlink:href="https://github.com/conda-forge/gz-launch-feedstock" xlink:title="gz launch">
<ellipse fill="#fde725" stroke="black" cx="1075.2" cy="-638" rx="59.1" ry="18"/>
<text xml:space="preserve" text-anchor="middle" x="1075.2" y="-633.33" font-family="Times,serif" font-size="14.00">gz launch</text>
</a>
</g>
</g>
<!-- gz&#45;msgs&#45;&gt;gz&#45;launch -->
<g id="edge36" class="edge">
<title>gz&#45;msgs&#45;&gt;gz&#45;launch</title>
<path fill="none" stroke="black" d="M1199.97,-920.07C1157.13,-914.12 1101.33,-900.98 1060.2,-872 1028.55,-849.71 1022.59,-836.99 1011.2,-800 996.11,-751.02 1029.45,-695.93 1053.45,-664.55"/>
<polygon fill="black" stroke="black" points="1056.12,-666.8 1059.59,-656.79 1050.64,-662.46 1056.12,-666.8"/>
</g>
<!-- gz&#45;sim&#45;yarp&#45;plugins -->
<g id="node32" class="node">
<title>gz&#45;sim&#45;yarp&#45;plugins</title>
<g id="a_node32"><a xlink:href="https://github.com/conda-forge/gz-sim-yarp-plugins-feedstock" xlink:title="gz sim yarp plugins">
<ellipse fill="#fde725" stroke="black" cx="1275.2" cy="-638" rx="109.61" ry="18"/>
<text xml:space="preserve" text-anchor="middle" x="1275.2" y="-633.33" font-family="Times,serif" font-size="14.00">gz sim yarp plugins</text>
</a>
</g>
</g>
<!-- gz&#45;msgs&#45;&gt;gz&#45;sim&#45;yarp&#45;plugins -->
<g id="edge37" class="edge">
<title>gz&#45;msgs&#45;&gt;gz&#45;sim&#45;yarp&#45;plugins</title>
<path fill="none" stroke="black" d="M1323.79,-917.18C1376.03,-908.96 1446.2,-894.11 1463.2,-872 1523.77,-793.18 1388.91,-702.08 1316.82,-661.05"/>
<polygon fill="black" stroke="black" points="1318.84,-658.17 1308.41,-656.34 1315.42,-664.28 1318.84,-658.17"/>
</g>
<!-- gz&#45;transport&#45;&gt;gz&#45;gui -->
<g id="edge38" class="edge">
<title>gz&#45;transport&#45;&gt;gz&#45;gui</title>
<path fill="none" stroke="black" d="M1139.52,-836.59C1125.65,-826.97 1107.97,-814.73 1093.03,-804.37"/>
<polygon fill="black" stroke="black" points="1095.12,-801.56 1084.91,-798.74 1091.13,-807.31 1095.12,-801.56"/>
</g>
<!-- gz&#45;transport&#45;&gt;gz&#45;sensors -->
<g id="edge39" class="edge">
<title>gz&#45;transport&#45;&gt;gz&#45;sensors</title>
<path fill="none" stroke="black" d="M1193.94,-837.29C1213.6,-827.24 1239.3,-814.12 1260.5,-803.28"/>
<polygon fill="black" stroke="black" points="1261.84,-806.53 1269.15,-798.86 1258.65,-800.3 1261.84,-806.53"/>
</g>
<!-- gz&#45;transport&#45;&gt;gz&#45;sim -->
<g id="edge40" class="edge">
<title>gz&#45;transport&#45;&gt;gz&#45;sim</title>
<path fill="none" stroke="black" d="M1174.68,-835.85C1187.08,-817.61 1207.7,-788.13 1227.2,-764 1234.92,-754.44 1243.85,-744.35 1251.9,-735.57"/>
<polygon fill="black" stroke="black" points="1254.31,-738.11 1258.54,-728.4 1249.18,-733.35 1254.31,-738.11"/>
</g>
<!-- gz&#45;transport&#45;&gt;gz&#45;launch -->
<g id="edge41" class="edge">
<title>gz&#45;transport&#45;&gt;gz&#45;launch</title>
<path fill="none" stroke="black" d="M1156.15,-835.85C1140.96,-798.91 1105.03,-711.55 1086.58,-666.67"/>
<polygon fill="black" stroke="black" points="1089.9,-665.55 1082.86,-657.63 1083.43,-668.21 1089.9,-665.55"/>
</g>
<!-- gz&#45;transport&#45;&gt;gz&#45;sim&#45;yarp&#45;plugins -->
<g id="edge42" class="edge">
<title>gz&#45;transport&#45;&gt;gz&#45;sim&#45;yarp&#45;plugins</title>
<path fill="none" stroke="black" d="M1166.87,-835.92C1174,-805.27 1191.76,-739.67 1222.2,-692 1228.66,-681.88 1237.35,-672.17 1245.82,-663.9"/>
<polygon fill="black" stroke="black" points="1248.1,-666.55 1253.02,-657.16 1243.32,-661.44 1248.1,-666.55"/>
</g>
<!-- gz&#45;fuel&#45;tools&#45;&gt;gz&#45;sim -->
<g id="edge43" class="edge">
<title>gz&#45;fuel&#45;tools&#45;&gt;gz&#45;sim</title>
<path fill="none" stroke="black" d="M1371.77,-835.6C1378.79,-816.62 1386.32,-786.01 1373.2,-764 1362,-745.21 1341.58,-732.68 1322.26,-724.55"/>
<polygon fill="black" stroke="black" points="1323.71,-721.36 1313.13,-721.01 1321.19,-727.89 1323.71,-721.36"/>
</g>
<!-- gz&#45;gui&#45;&gt;gz&#45;sim -->
<g id="edge44" class="edge">
<title>gz&#45;gui&#45;&gt;gz&#45;sim</title>
<path fill="none" stroke="black" d="M1094.55,-770.37C1131.01,-758.39 1190.48,-738.84 1231.16,-725.47"/>
<polygon fill="black" stroke="black" points="1231.99,-728.88 1240.4,-722.44 1229.81,-722.23 1231.99,-728.88"/>
</g>
<!-- gz&#45;gui&#45;&gt;gz&#45;launch -->
<g id="edge45" class="edge">
<title>gz&#45;gui&#45;&gt;gz&#45;launch</title>
<path fill="none" stroke="black" d="M1063.79,-763.59C1065.99,-739.61 1069.97,-696.14 1072.6,-667.42"/>
<polygon fill="black" stroke="black" points="1076.07,-667.9 1073.49,-657.62 1069.1,-667.26 1076.07,-667.9"/>
</g>
<!-- gz&#45;sensors&#45;&gt;gz&#45;sim -->
<g id="edge46" class="edge">
<title>gz&#45;sensors&#45;&gt;gz&#45;sim</title>
<path fill="none" stroke="black" d="M1294.02,-763.7C1291.32,-756.15 1288.1,-747.12 1285.08,-738.68"/>
<polygon fill="black" stroke="black" points="1288.48,-737.77 1281.82,-729.53 1281.88,-740.12 1288.48,-737.77"/>
</g>
<!-- gz&#45;sim&#45;&gt;gz&#45;launch -->
<g id="edge47" class="edge">
<title>gz&#45;sim&#45;&gt;gz&#45;launch</title>
<path fill="none" stroke="black" d="M1242.62,-697.6C1210.28,-686.28 1160.33,-668.8 1123.4,-655.87"/>
<polygon fill="black" stroke="black" points="1124.9,-652.69 1114.31,-652.69 1122.59,-659.3 1124.9,-652.69"/>
</g>
<!-- gz&#45;sim&#45;&gt;gz&#45;sim&#45;yarp&#45;plugins -->
<g id="edge48" class="edge">
<title>gz&#45;sim&#45;&gt;gz&#45;sim&#45;yarp&#45;plugins</title>
<path fill="none" stroke="black" d="M1275.2,-691.7C1275.2,-684.41 1275.2,-675.73 1275.2,-667.54"/>
<polygon fill="black" stroke="black" points="1278.7,-667.62 1275.2,-657.62 1271.7,-667.62 1278.7,-667.62"/>
</g>
<!-- pyg&#45;lib -->
<g id="node33" class="node">
<title>pyg&#45;lib</title>
<g id="a_node33"><a xlink:href="https://github.com/conda-forge/pyg-lib-feedstock/pull/38" xlink:title="pyg lib ✓">
<ellipse fill="#31688e" stroke="black" cx="835.2" cy="-378" rx="53.31" ry="18"/>
<text xml:space="preserve" text-anchor="middle" x="835.2" y="-373.32" font-family="Times,serif" font-size="14.00" fill="white">pyg lib ✓</text>
</a>
</g>
</g>
<!-- gnss&#45;sdr -->
<g id="node34" class="node">
<title>gnss&#45;sdr</title>
<g id="a_node34"><a xlink:href="https://github.com/conda-forge/gnss-sdr-feedstock/pull/38" xlink:title="gnss sdr ✓">
<ellipse fill="#31688e" stroke="black" cx="835.2" cy="-306" rx="61.73" ry="18"/>
<text xml:space="preserve" text-anchor="middle" x="835.2" y="-301.32" font-family="Times,serif" font-size="14.00" fill="white">gnss sdr ✓</text>
</a>
</g>
</g>
<!-- pyg&#45;lib&#45;&gt;gnss&#45;sdr -->
<!-- tensorstore -->
<g id="node39" class="node">
<title>tensorstore</title>
<g id="a_node39"><a xlink:href="https://github.com/conda-forge/tensorstore-feedstock/pull/56" xlink:title="tensorstore ❎">
<ellipse fill="#31688e" stroke="black" cx="835.2" cy="-234" rx="84.35" ry="18"/>
<text xml:space="preserve" text-anchor="middle" x="835.2" y="-229.32" font-family="Times,serif" font-size="14.00" fill="white">tensorstore ❎</text>
</a>
</g>
</g>
<!-- gnss&#45;sdr&#45;&gt;tensorstore -->
<!-- s2geography -->
<g id="node35" class="node">
<title>s2geography</title>
<g id="a_node35"><a xlink:href="https://github.com/conda-forge/s2geography-feedstock/pull/11" xlink:title="s2geography ❎">
<ellipse fill="#31688e" stroke="black" cx="1260.2" cy="-234" rx="91.19" ry="18"/>
<text xml:space="preserve" text-anchor="middle" x="1260.2" y="-229.32" font-family="Times,serif" font-size="14.00" fill="white">s2geography ❎</text>
</a>
</g>
</g>
<!-- spherely -->
<g id="node36" class="node">
<title>spherely</title>
<g id="a_node36"><a xlink:href="https://github.com/conda-forge/spherely-feedstock" xlink:title="spherely">
<ellipse fill="#fde725" stroke="black" cx="1260.2" cy="-162" rx="54.36" ry="18"/>
<text xml:space="preserve" text-anchor="middle" x="1260.2" y="-157.32" font-family="Times,serif" font-size="14.00">spherely</text>
</a>
</g>
</g>
<!-- s2geography&#45;&gt;spherely -->
<g id="edge50" class="edge">
<title>s2geography&#45;&gt;spherely</title>
<path fill="none" stroke="black" d="M1260.2,-215.7C1260.2,-208.41 1260.2,-199.73 1260.2,-191.54"/>
<polygon fill="black" stroke="black" points="1263.7,-191.62 1260.2,-181.62 1256.7,-191.62 1263.7,-191.62"/>
</g>
<!-- openvino -->
<g id="node37" class="node">
<title>openvino</title>
<g id="a_node37"><a xlink:href="https://github.com/conda-forge/openvino-feedstock/pull/135" xlink:title="openvino ❎">
<ellipse fill="#31688e" stroke="black" cx="278.2" cy="-270" rx="71.73" ry="18"/>
<text xml:space="preserve" text-anchor="middle" x="278.2" y="-265.32" font-family="Times,serif" font-size="14.00" fill="white">openvino ❎</text>
</a>
</g>
</g>
<!-- openvino&#45;&gt;opencv -->
<g id="edge51" class="edge">
<title>openvino&#45;&gt;opencv</title>
<path fill="none" stroke="black" d="M315.31,-254.15C343.46,-242.9 382.16,-227.42 411.4,-215.72"/>
<polygon fill="black" stroke="black" points="412.31,-219.12 420.3,-212.16 409.71,-212.62 412.31,-219.12"/>
</g>
<!-- openvino&#45;tokenizers -->
<g id="node38" class="node">
<title>openvino&#45;tokenizers</title>
<g id="a_node38"><a xlink:href="https://github.com/conda-forge/openvino-tokenizers-feedstock" xlink:title="openvino tokenizers">
<ellipse fill="#fde725" stroke="black" cx="120.2" cy="-198" rx="111.71" ry="18"/>
<text xml:space="preserve" text-anchor="middle" x="120.2" y="-193.32" font-family="Times,serif" font-size="14.00">openvino tokenizers</text>
</a>
</g>
</g>
<!-- openvino&#45;&gt;openvino&#45;tokenizers -->
<g id="edge52" class="edge">
<title>openvino&#45;&gt;openvino&#45;tokenizers</title>
<path fill="none" stroke="black" d="M243.91,-253.81C221.52,-243.89 191.98,-230.8 167.38,-219.9"/>
<polygon fill="black" stroke="black" points="169.11,-216.84 158.55,-215.99 166.28,-223.24 169.11,-216.84"/>
</g>
<!-- gcld3 -->
<g id="node40" class="node">
<title>gcld3</title>
<g id="a_node40"><a xlink:href="https://github.com/conda-forge/gcld3-feedstock/pull/17" xlink:title="gcld3 ✓">
<ellipse fill="#31688e" stroke="black" cx="835.2" cy="-162" rx="46.47" ry="18"/>
<text xml:space="preserve" text-anchor="middle" x="835.2" y="-157.32" font-family="Times,serif" font-size="14.00" fill="white">gcld3 ✓</text>
</a>
</g>
</g>
<!-- tensorstore&#45;&gt;gcld3 -->
<!-- bfiocpp -->
<g id="node41" class="node">
<title>bfiocpp</title>
<g id="a_node41"><a xlink:href="https://github.com/conda-forge/bfiocpp-feedstock/pull/15" xlink:title="bfiocpp ❎">
<ellipse fill="#31688e" stroke="black" cx="835.2" cy="-90" rx="62.78" ry="18"/>
<text xml:space="preserve" text-anchor="middle" x="835.2" y="-85.33" font-family="Times,serif" font-size="14.00" fill="white">bfiocpp ❎</text>
</a>
</g>
</g>
<!-- gcld3&#45;&gt;bfiocpp -->
<!-- mysqlx&#45;connector&#45;python -->
<g id="node42" class="node">
<title>mysqlx&#45;connector&#45;python</title>
<g id="a_node42"><a xlink:href="https://github.com/conda-forge/mysqlx-connector-python-feedstock/pull/12" xlink:title="mysqlx connector python ❎">
<ellipse fill="#31688e" stroke="black" cx="835.2" cy="-18" rx="152.75" ry="18"/>
<text xml:space="preserve" text-anchor="middle" x="835.2" y="-13.32" font-family="Times,serif" font-size="14.00" fill="white">mysqlx connector python ❎</text>
</a>
</g>
</g>
<!-- bfiocpp&#45;&gt;mysqlx&#45;connector&#45;python -->
</g>
</svg>
