<?xml version="1.0" encoding="UTF-8" standalone="no"?>
<!DOCTYPE svg PUBLIC "-//W3C//DTD SVG 1.1//EN"
 "http://www.w3.org/Graphics/SVG/1.1/DTD/svg11.dtd">
<!-- Generated by graphviz version 12.2.1 (20250203.1708)
 -->
<!-- Pages: 1 -->
<svg width="1796pt" height="1312pt"
 viewBox="0.00 0.00 1795.66 1312.00" xmlns="http://www.w3.org/2000/svg" xmlns:xlink="http://www.w3.org/1999/xlink">
<g id="graph0" class="graph" transform="scale(1 1) rotate(0) translate(4 1308)">
<polygon fill="white" stroke="none" points="-4,4 -4,-1308 1791.66,-1308 1791.66,4 -4,4"/>
<!-- arrow&#45;cpp -->
<g id="node1" class="node">
<title>arrow&#45;cpp</title>
<g id="a_node1"><a xlink:href="https://github.com/conda-forge/arrow-cpp-feedstock" xlink:title="arrow cpp">
<ellipse fill="#ff8c00" stroke="black" cx="98.26" cy="-962" rx="61.73" ry="18"/>
<text text-anchor="middle" x="98.26" y="-957.33" font-family="Times,serif" font-size="14.00">arrow cpp</text>
</a>
</g>
</g>
<!-- ray&#45;packages -->
<g id="node2" class="node">
<title>ray&#45;packages</title>
<g id="a_node2"><a xlink:href="https://github.com/conda-forge/ray-packages-feedstock" xlink:title="ray packages">
<ellipse fill="#fde725" stroke="black" cx="750.26" cy="-890" rx="76.99" ry="18"/>
<text text-anchor="middle" x="750.26" y="-885.33" font-family="Times,serif" font-size="14.00">ray packages</text>
</a>
</g>
</g>
<!-- arrow&#45;cpp&#45;&gt;ray&#45;packages -->
<g id="edge1" class="edge">
<title>arrow&#45;cpp&#45;&gt;ray&#45;packages</title>
<path fill="none" stroke="black" d="M142.47,-949.09C150.98,-947.13 159.86,-945.32 168.26,-944 386.62,-909.8 445.21,-937.49 664.26,-908 670.74,-907.13 677.46,-906.07 684.16,-904.92"/>
<polygon fill="black" stroke="black" points="684.67,-908.38 693.89,-903.16 683.42,-901.49 684.67,-908.38"/>
</g>
<!-- datafusion -->
<g id="node3" class="node">
<title>datafusion</title>
<g id="a_node3"><a xlink:href="https://github.com/conda-forge/datafusion-feedstock" xlink:title="datafusion">
<ellipse fill="#fde725" stroke="black" cx="144.26" cy="-890" rx="63.84" ry="18"/>
<text text-anchor="middle" x="144.26" y="-885.33" font-family="Times,serif" font-size="14.00">datafusion</text>
</a>
</g>
</g>
<!-- arrow&#45;cpp&#45;&gt;datafusion -->
<g id="edge2" class="edge">
<title>arrow&#45;cpp&#45;&gt;datafusion</title>
<path fill="none" stroke="black" d="M109.4,-944.05C114.65,-936.06 121.04,-926.33 126.91,-917.4"/>
<polygon fill="black" stroke="black" points="129.83,-919.33 132.4,-909.05 123.98,-915.49 129.83,-919.33"/>
</g>
<!-- arcticdb -->
<g id="node4" class="node">
<title>arcticdb</title>
<g id="a_node4"><a xlink:href="https://github.com/conda-forge/arcticdb-feedstock" xlink:title="arcticdb">
<ellipse fill="#fde725" stroke="black" cx="52.26" cy="-818" rx="52.26" ry="18"/>
<text text-anchor="middle" x="52.26" y="-813.33" font-family="Times,serif" font-size="14.00">arcticdb</text>
</a>
</g>
</g>
<!-- arrow&#45;cpp&#45;&gt;arcticdb -->
<g id="edge3" class="edge">
<title>arrow&#45;cpp&#45;&gt;arcticdb</title>
<path fill="none" stroke="black" d="M88.07,-943.84C82.43,-933.71 75.68,-920.46 71.26,-908 64.31,-888.4 59.49,-865.43 56.44,-847.73"/>
<polygon fill="black" stroke="black" points="59.9,-847.23 54.85,-837.92 52.99,-848.35 59.9,-847.23"/>
</g>
<!-- opencv -->
<g id="node5" class="node">
<title>opencv</title>
<g id="a_node5"><a xlink:href="https://github.com/conda-forge/opencv-feedstock" xlink:title="opencv">
<ellipse fill="#fde725" stroke="black" cx="576.26" cy="-962" rx="46.47" ry="18"/>
<text text-anchor="middle" x="576.26" y="-957.33" font-family="Times,serif" font-size="14.00">opencv</text>
</a>
</g>
</g>
<!-- opencv&#45;&gt;ray&#45;packages -->
<g id="edge4" class="edge">
<title>opencv&#45;&gt;ray&#45;packages</title>
<path fill="none" stroke="black" d="M607.77,-948.32C634.14,-937.72 672.18,-922.41 702.33,-910.28"/>
<polygon fill="black" stroke="black" points="703.25,-913.68 711.22,-906.71 700.64,-907.19 703.25,-913.68"/>
</g>
<!-- imp -->
<g id="node6" class="node">
<title>imp</title>
<g id="a_node6"><a xlink:href="https://github.com/conda-forge/imp-feedstock" xlink:title="imp">
<ellipse fill="#fde725" stroke="black" cx="625.26" cy="-890" rx="30.16" ry="18"/>
<text text-anchor="middle" x="625.26" y="-885.33" font-family="Times,serif" font-size="14.00">imp</text>
</a>
</g>
</g>
<!-- opencv&#45;&gt;imp -->
<g id="edge5" class="edge">
<title>opencv&#45;&gt;imp</title>
<path fill="none" stroke="black" d="M587.87,-944.41C593.75,-936.01 601.02,-925.63 607.58,-916.26"/>
<polygon fill="black" stroke="black" points="610.33,-918.43 613.2,-908.23 604.6,-914.41 610.33,-918.43"/>
</g>
<!-- gazebo&#45;yarp&#45;plugins -->
<g id="node7" class="node">
<title>gazebo&#45;yarp&#45;plugins</title>
<g id="a_node7"><a xlink:href="https://github.com/conda-forge/gazebo-yarp-plugins-feedstock" xlink:title="gazebo yarp plugins">
<ellipse fill="#fde725" stroke="black" cx="427.26" cy="-890" rx="112.24" ry="18"/>
<text text-anchor="middle" x="427.26" y="-885.33" font-family="Times,serif" font-size="14.00">gazebo yarp plugins</text>
</a>
</g>
</g>
<!-- opencv&#45;&gt;gazebo&#45;yarp&#45;plugins -->
<g id="edge6" class="edge">
<title>opencv&#45;&gt;gazebo&#45;yarp&#45;plugins</title>
<path fill="none" stroke="black" d="M547.53,-947.5C526.3,-937.53 496.96,-923.74 472.57,-912.29"/>
<polygon fill="black" stroke="black" points="474.38,-909.27 463.84,-908.18 471.4,-915.6 474.38,-909.27"/>
</g>
<!-- nvidia&#45;dali&#45;python -->
<g id="node8" class="node">
<title>nvidia&#45;dali&#45;python</title>
<g id="a_node8"><a xlink:href="https://github.com/conda-forge/nvidia-dali-python-feedstock" xlink:title="nvidia dali python">
<ellipse fill="#fde725" stroke="black" cx="567.26" cy="-818" rx="101.19" ry="18"/>
<text text-anchor="middle" x="567.26" y="-813.33" font-family="Times,serif" font-size="14.00">nvidia dali python</text>
</a>
</g>
</g>
<!-- opencv&#45;&gt;nvidia&#45;dali&#45;python -->
<g id="edge7" class="edge">
<title>opencv&#45;&gt;nvidia&#45;dali&#45;python</title>
<path fill="none" stroke="black" d="M575.16,-943.59C573.64,-919.61 570.88,-876.14 569.06,-847.42"/>
<polygon fill="black" stroke="black" points="572.57,-847.38 568.44,-837.62 565.58,-847.82 572.57,-847.38"/>
</g>
<!-- paraview -->
<g id="node9" class="node">
<title>paraview</title>
<g id="a_node9"><a xlink:href="https://github.com/conda-forge/paraview-feedstock/pull/277" xlink:title="paraview ❎">
<ellipse fill="#31688e" stroke="black" cx="1692.26" cy="-1286" rx="72.25" ry="18"/>
<text text-anchor="middle" x="1692.26" y="-1281.33" font-family="Times,serif" font-size="14.00" fill="white">paraview ❎</text>
</a>
</g>
</g>
<!-- qgis -->
<g id="node10" class="node">
<title>qgis</title>
<g id="a_node10"><a xlink:href="https://github.com/conda-forge/qgis-feedstock" xlink:title="qgis">
<ellipse fill="#ff8c00" stroke="black" cx="1692.26" cy="-1214" rx="32.27" ry="18"/>
<text text-anchor="middle" x="1692.26" y="-1209.33" font-family="Times,serif" font-size="14.00">qgis</text>
</a>
</g>
</g>
<!-- paraview&#45;&gt;qgis -->
<!-- tiledb -->
<g id="node11" class="node">
<title>tiledb</title>
<g id="a_node11"><a xlink:href="https://github.com/conda-forge/tiledb-feedstock" xlink:title="tiledb">
<ellipse fill="#ff8c00" stroke="black" cx="1692.26" cy="-1142" rx="40.16" ry="18"/>
<text text-anchor="middle" x="1692.26" y="-1137.33" font-family="Times,serif" font-size="14.00">tiledb</text>
</a>
</g>
</g>
<!-- qgis&#45;&gt;tiledb -->
<!-- pyaudi -->
<g id="node12" class="node">
<title>pyaudi</title>
<g id="a_node12"><a xlink:href="https://github.com/conda-forge/pyaudi-feedstock/pull/47" xlink:title="pyaudi ❎">
<ellipse fill="#31688e" stroke="black" cx="1692.26" cy="-1070" rx="60.15" ry="18"/>
<text text-anchor="middle" x="1692.26" y="-1065.33" font-family="Times,serif" font-size="14.00" fill="white">pyaudi ❎</text>
</a>
</g>
</g>
<!-- tiledb&#45;&gt;pyaudi -->
<!-- tensorflow -->
<g id="node13" class="node">
<title>tensorflow</title>
<g id="a_node13"><a xlink:href="https://github.com/conda-forge/tensorflow-feedstock/pull/424" xlink:title="tensorflow ❎">
<ellipse fill="#31688e" stroke="black" cx="1692.26" cy="-998" rx="79.09" ry="18"/>
<text text-anchor="middle" x="1692.26" y="-993.33" font-family="Times,serif" font-size="14.00" fill="white">tensorflow ❎</text>
</a>
</g>
</g>
<!-- pyaudi&#45;&gt;tensorflow -->
<!-- mongodb -->
<g id="node14" class="node">
<title>mongodb</title>
<g id="a_node14"><a xlink:href="https://github.com/conda-forge/mongodb-feedstock/pull/101" xlink:title="mongodb ❎">
<ellipse fill="#31688e" stroke="black" cx="1692.26" cy="-926" rx="72.78" ry="18"/>
<text text-anchor="middle" x="1692.26" y="-921.33" font-family="Times,serif" font-size="14.00" fill="white">mongodb ❎</text>
</a>
</g>
</g>
<!-- tensorflow&#45;&gt;mongodb -->
<!-- google&#45;cloud&#45;cpp -->
<g id="node16" class="node">
<title>google&#45;cloud&#45;cpp</title>
<g id="a_node16"><a xlink:href="https://github.com/conda-forge/google-cloud-cpp-feedstock" xlink:title="google cloud cpp">
<ellipse fill="#35b779" stroke="black" cx="1692.26" cy="-854" rx="95.4" ry="18"/>
<text text-anchor="middle" x="1692.26" y="-849.33" font-family="Times,serif" font-size="14.00">google cloud cpp</text>
</a>
</g>
</g>
<!-- mongodb&#45;&gt;google&#45;cloud&#45;cpp -->
<!-- pytorch&#45;cpu -->
<g id="node15" class="node">
<title>pytorch&#45;cpu</title>
<g id="a_node15"><a xlink:href="https://github.com/conda-forge/pytorch-cpu-feedstock/pull/373" xlink:title="pytorch cpu ❎">
<ellipse fill="#31688e" stroke="black" cx="742.26" cy="-962" rx="85.93" ry="18"/>
<text text-anchor="middle" x="742.26" y="-957.33" font-family="Times,serif" font-size="14.00" fill="white">pytorch cpu ❎</text>
</a>
</g>
</g>
<!-- pytorch&#45;cpu&#45;&gt;ray&#45;packages -->
<g id="edge13" class="edge">
<title>pytorch&#45;cpu&#45;&gt;ray&#45;packages</title>
<path fill="none" stroke="black" d="M744.24,-943.7C745.07,-936.41 746.06,-927.73 747,-919.54"/>
<polygon fill="black" stroke="black" points="750.48,-919.94 748.13,-909.61 743.52,-919.15 750.48,-919.94"/>
</g>
<!-- go&#45;cockroach -->
<g id="node27" class="node">
<title>go&#45;cockroach</title>
<g id="a_node27"><a xlink:href="https://github.com/conda-forge/go-cockroach-feedstock" xlink:title="go cockroach">
<ellipse fill="#ff8c00" stroke="black" cx="1692.26" cy="-782" rx="76.46" ry="18"/>
<text text-anchor="middle" x="1692.26" y="-777.33" font-family="Times,serif" font-size="14.00">go cockroach</text>
</a>
</g>
</g>
<!-- google&#45;cloud&#45;cpp&#45;&gt;go&#45;cockroach -->
<!-- jaxlib -->
<g id="node17" class="node">
<title>jaxlib</title>
<g id="a_node17"><a xlink:href="https://github.com/conda-forge/jaxlib-feedstock" xlink:title="jaxlib">
<ellipse fill="#ff8c00" stroke="black" cx="893.26" cy="-1034" rx="38.58" ry="18"/>
<text text-anchor="middle" x="893.26" y="-1029.33" font-family="Times,serif" font-size="14.00">jaxlib</text>
</a>
</g>
</g>
<!-- mujoco -->
<g id="node18" class="node">
<title>mujoco</title>
<g id="a_node18"><a xlink:href="https://github.com/conda-forge/mujoco-feedstock" xlink:title="mujoco">
<ellipse fill="#fde725" stroke="black" cx="893.26" cy="-962" rx="47" ry="18"/>
<text text-anchor="middle" x="893.26" y="-957.33" font-family="Times,serif" font-size="14.00">mujoco</text>
</a>
</g>
</g>
<!-- jaxlib&#45;&gt;mujoco -->
<g id="edge15" class="edge">
<title>jaxlib&#45;&gt;mujoco</title>
<path fill="none" stroke="black" d="M893.26,-1015.7C893.26,-1008.41 893.26,-999.73 893.26,-991.54"/>
<polygon fill="black" stroke="black" points="896.76,-991.62 893.26,-981.62 889.76,-991.62 896.76,-991.62"/>
</g>
<!-- mujoco&#45;&gt;ray&#45;packages -->
<g id="edge16" class="edge">
<title>mujoco&#45;&gt;ray&#45;packages</title>
<path fill="none" stroke="black" d="M865.01,-947.17C844.4,-937.08 816.11,-923.23 792.77,-911.81"/>
<polygon fill="black" stroke="black" points="794.33,-908.67 783.81,-907.42 791.25,-914.96 794.33,-908.67"/>
</g>
<!-- libignition&#45;transport4 -->
<g id="node19" class="node">
<title>libignition&#45;transport4</title>
<g id="a_node19"><a xlink:href="https://github.com/conda-forge/libignition-transport4-feedstock" xlink:title="libignition transport4">
<ellipse fill="#fde725" stroke="black" cx="1153.26" cy="-998" rx="119.08" ry="18"/>
<text text-anchor="middle" x="1153.26" y="-993.33" font-family="Times,serif" font-size="14.00">libignition transport4</text>
</a>
</g>
</g>
<!-- libignition&#45;sensors -->
<g id="node20" class="node">
<title>libignition&#45;sensors</title>
<g id="a_node20"><a xlink:href="https://github.com/conda-forge/libignition-sensors-feedstock" xlink:title="libignition sensors">
<ellipse fill="#fde725" stroke="black" cx="1308.26" cy="-926" rx="103.82" ry="18"/>
<text text-anchor="middle" x="1308.26" y="-921.33" font-family="Times,serif" font-size="14.00">libignition sensors</text>
</a>
</g>
</g>
<!-- libignition&#45;transport4&#45;&gt;libignition&#45;sensors -->
<g id="edge17" class="edge">
<title>libignition&#45;transport4&#45;&gt;libignition&#45;sensors</title>
<path fill="none" stroke="black" d="M1189.99,-980.41C1211.5,-970.7 1238.86,-958.34 1261.84,-947.96"/>
<polygon fill="black" stroke="black" points="1263.01,-951.28 1270.68,-943.97 1260.13,-944.9 1263.01,-951.28"/>
</g>
<!-- libignition&#45;gui -->
<g id="node21" class="node">
<title>libignition&#45;gui</title>
<g id="a_node21"><a xlink:href="https://github.com/conda-forge/libignition-gui-feedstock" xlink:title="libignition gui">
<ellipse fill="#fde725" stroke="black" cx="1029.26" cy="-926" rx="81.2" ry="18"/>
<text text-anchor="middle" x="1029.26" y="-921.33" font-family="Times,serif" font-size="14.00">libignition gui</text>
</a>
</g>
</g>
<!-- libignition&#45;transport4&#45;&gt;libignition&#45;gui -->
<g id="edge18" class="edge">
<title>libignition&#45;transport4&#45;&gt;libignition&#45;gui</title>
<path fill="none" stroke="black" d="M1123.56,-980.23C1106.83,-970.79 1085.75,-958.89 1067.77,-948.74"/>
<polygon fill="black" stroke="black" points="1069.61,-945.76 1059.18,-943.89 1066.17,-951.86 1069.61,-945.76"/>
</g>
<!-- libignition&#45;gazebo -->
<g id="node22" class="node">
<title>libignition&#45;gazebo</title>
<g id="a_node22"><a xlink:href="https://github.com/conda-forge/libignition-gazebo-feedstock" xlink:title="libignition gazebo">
<ellipse fill="#fde725" stroke="black" cx="1288.26" cy="-854" rx="100.66" ry="18"/>
<text text-anchor="middle" x="1288.26" y="-849.33" font-family="Times,serif" font-size="14.00">libignition gazebo</text>
</a>
</g>
</g>
<!-- libignition&#45;transport4&#45;&gt;libignition&#45;gazebo -->
<g id="edge19" class="edge">
<title>libignition&#45;transport4&#45;&gt;libignition&#45;gazebo</title>
<path fill="none" stroke="black" d="M1157.93,-979.8C1163.91,-960.43 1175.88,-928.94 1195.26,-908 1207.38,-894.91 1223.48,-884.19 1238.88,-875.89"/>
<polygon fill="black" stroke="black" points="1240.19,-879.16 1247.5,-871.49 1237,-872.92 1240.19,-879.16"/>
</g>
<!-- libignition&#45;launch -->
<g id="node23" class="node">
<title>libignition&#45;launch</title>
<g id="a_node23"><a xlink:href="https://github.com/conda-forge/libignition-launch-feedstock" xlink:title="libignition launch">
<ellipse fill="#fde725" stroke="black" cx="1223.26" cy="-782" rx="98.56" ry="18"/>
<text text-anchor="middle" x="1223.26" y="-777.33" font-family="Times,serif" font-size="14.00">libignition launch</text>
</a>
</g>
</g>
<!-- libignition&#45;transport4&#45;&gt;libignition&#45;launch -->
<g id="edge20" class="edge">
<title>libignition&#45;transport4&#45;&gt;libignition&#45;launch</title>
<path fill="none" stroke="black" d="M1152.93,-979.68C1152.99,-949.2 1156.02,-884.62 1178.26,-836 1182.83,-826 1189.85,-816.41 1196.99,-808.2"/>
<polygon fill="black" stroke="black" points="1199.43,-810.72 1203.65,-801 1194.29,-805.97 1199.43,-810.72"/>
</g>
<!-- libignition&#45;sensors&#45;&gt;libignition&#45;gazebo -->
<g id="edge21" class="edge">
<title>libignition&#45;sensors&#45;&gt;libignition&#45;gazebo</title>
<path fill="none" stroke="black" d="M1303.32,-907.7C1301.19,-900.24 1298.64,-891.32 1296.25,-882.97"/>
<polygon fill="black" stroke="black" points="1299.68,-882.21 1293.56,-873.56 1292.95,-884.14 1299.68,-882.21"/>
</g>
<!-- libignition&#45;gui&#45;&gt;libignition&#45;gazebo -->
<g id="edge22" class="edge">
<title>libignition&#45;gui&#45;&gt;libignition&#45;gazebo</title>
<path fill="none" stroke="black" d="M1079.51,-911.42C1120.46,-900.35 1178.6,-884.64 1223.13,-872.6"/>
<polygon fill="black" stroke="black" points="1223.93,-876.01 1232.67,-870.02 1222.11,-869.25 1223.93,-876.01"/>
</g>
<!-- libignition&#45;gui&#45;&gt;libignition&#45;launch -->
<g id="edge23" class="edge">
<title>libignition&#45;gui&#45;&gt;libignition&#45;launch</title>
<path fill="none" stroke="black" d="M1044.6,-908.18C1062.51,-889.17 1093.59,-858 1124.26,-836 1140.95,-824.03 1160.66,-812.94 1178.09,-804.03"/>
<polygon fill="black" stroke="black" points="1179.32,-807.33 1186.69,-799.72 1176.18,-801.07 1179.32,-807.33"/>
</g>
<!-- libignition&#45;gazebo&#45;&gt;libignition&#45;launch -->
<g id="edge24" class="edge">
<title>libignition&#45;gazebo&#45;&gt;libignition&#45;launch</title>
<path fill="none" stroke="black" d="M1272.53,-836.05C1264.7,-827.63 1255.09,-817.28 1246.44,-807.97"/>
<polygon fill="black" stroke="black" points="1249.25,-805.84 1239.88,-800.9 1244.12,-810.61 1249.25,-805.84"/>
</g>
<!-- libignition&#45;msgs1 -->
<g id="node24" class="node">
<title>libignition&#45;msgs1</title>
<g id="a_node24"><a xlink:href="https://github.com/conda-forge/libignition-msgs1-feedstock/pull/114" xlink:title="libignition msgs1 ❎">
<ellipse fill="#31688e" stroke="black" cx="1370.26" cy="-1070" rx="113.29" ry="18"/>
<text text-anchor="middle" x="1370.26" y="-1065.33" font-family="Times,serif" font-size="14.00" fill="white">libignition msgs1 ❎</text>
</a>
</g>
</g>
<!-- libignition&#45;msgs1&#45;&gt;libignition&#45;transport4 -->
<g id="edge25" class="edge">
<title>libignition&#45;msgs1&#45;&gt;libignition&#45;transport4</title>
<path fill="none" stroke="black" d="M1321.56,-1053.29C1289.43,-1042.92 1247.11,-1029.27 1212.95,-1018.26"/>
<polygon fill="black" stroke="black" points="1214.2,-1014.98 1203.61,-1015.24 1212.06,-1021.64 1214.2,-1014.98"/>
</g>
<!-- libignition&#45;msgs1&#45;&gt;libignition&#45;sensors -->
<g id="edge26" class="edge">
<title>libignition&#45;msgs1&#45;&gt;libignition&#45;sensors</title>
<path fill="none" stroke="black" d="M1348.22,-1051.97C1337.66,-1042.55 1325.91,-1029.95 1319.26,-1016 1310.3,-997.18 1307.7,-973.7 1307.26,-955.59"/>
<polygon fill="black" stroke="black" points="1310.76,-955.8 1307.25,-945.8 1303.76,-955.81 1310.76,-955.8"/>
</g>
<!-- libignition&#45;msgs1&#45;&gt;libignition&#45;gui -->
<g id="edge27" class="edge">
<title>libignition&#45;msgs1&#45;&gt;libignition&#45;gui</title>
<path fill="none" stroke="black" d="M1258.35,-1067.07C1169.35,-1062.88 1055.01,-1050.66 1025.26,-1016 1011.18,-999.59 1013.67,-974.57 1018.83,-955.23"/>
<polygon fill="black" stroke="black" points="1022.14,-956.36 1021.73,-945.78 1015.45,-954.31 1022.14,-956.36"/>
</g>
<!-- libignition&#45;msgs1&#45;&gt;libignition&#45;gazebo -->
<g id="edge28" class="edge">
<title>libignition&#45;msgs1&#45;&gt;libignition&#45;gazebo</title>
<path fill="none" stroke="black" d="M1462.44,-1059.23C1523.17,-1048.43 1587.09,-1026.02 1561.26,-980 1524.36,-914.25 1442.01,-882.9 1377.35,-868.06"/>
<polygon fill="black" stroke="black" points="1378.32,-864.69 1367.8,-865.97 1376.82,-871.53 1378.32,-864.69"/>
</g>
<!-- libignition&#45;msgs1&#45;&gt;libignition&#45;launch -->
<g id="edge29" class="edge">
<title>libignition&#45;msgs1&#45;&gt;libignition&#45;launch</title>
<path fill="none" stroke="black" d="M1455.95,-1057.89C1506.25,-1049.41 1562.88,-1035.79 1578.26,-1016 1588.08,-1003.37 1583.39,-995.16 1578.26,-980 1540.28,-867.72 1399.01,-817.94 1306.55,-797.01"/>
<polygon fill="black" stroke="black" points="1307.52,-793.64 1297,-794.92 1306.02,-800.47 1307.52,-793.64"/>
</g>
<!-- libignition&#45;fuel&#45;tools -->
<g id="node25" class="node">
<title>libignition&#45;fuel&#45;tools</title>
<g id="a_node25"><a xlink:href="https://github.com/conda-forge/libignition-fuel-tools-feedstock" xlink:title="libignition fuel tools">
<ellipse fill="#fde725" stroke="black" cx="1440.26" cy="-998" rx="111.71" ry="18"/>
<text text-anchor="middle" x="1440.26" y="-993.33" font-family="Times,serif" font-size="14.00">libignition fuel tools</text>
</a>
</g>
</g>
<!-- libignition&#45;msgs1&#45;&gt;libignition&#45;fuel&#45;tools -->
<g id="edge30" class="edge">
<title>libignition&#45;msgs1&#45;&gt;libignition&#45;fuel&#45;tools</title>
<path fill="none" stroke="black" d="M1387.21,-1052.05C1395.51,-1043.75 1405.68,-1033.58 1414.88,-1024.38"/>
<polygon fill="black" stroke="black" points="1417.32,-1026.89 1421.92,-1017.35 1412.37,-1021.94 1417.32,-1026.89"/>
</g>
<!-- libignition&#45;fuel&#45;tools&#45;&gt;libignition&#45;gazebo -->
<g id="edge31" class="edge">
<title>libignition&#45;fuel&#45;tools&#45;&gt;libignition&#45;gazebo</title>
<path fill="none" stroke="black" d="M1441.14,-979.52C1441.18,-959.89 1438.28,-928.16 1421.26,-908 1407,-891.1 1386.58,-879.54 1366.01,-871.66"/>
<polygon fill="black" stroke="black" points="1367.29,-868.4 1356.69,-868.36 1364.96,-875 1367.29,-868.4"/>
</g>
<!-- gazebo -->
<g id="node26" class="node">
<title>gazebo</title>
<g id="a_node26"><a xlink:href="https://github.com/conda-forge/gazebo-feedstock" xlink:title="gazebo">
<ellipse fill="#ff8c00" stroke="black" cx="465.26" cy="-962" rx="46.47" ry="18"/>
<text text-anchor="middle" x="465.26" y="-957.33" font-family="Times,serif" font-size="14.00">gazebo</text>
</a>
</g>
</g>
<!-- gazebo&#45;&gt;gazebo&#45;yarp&#45;plugins -->
<g id="edge32" class="edge">
<title>gazebo&#45;&gt;gazebo&#45;yarp&#45;plugins</title>
<path fill="none" stroke="black" d="M456.06,-944.05C451.88,-936.35 446.82,-927.03 442.12,-918.36"/>
<polygon fill="black" stroke="black" points="445.21,-916.72 437.36,-909.61 439.06,-920.06 445.21,-916.72"/>
</g>
<!-- tomviz -->
<g id="node28" class="node">
<title>tomviz</title>
<g id="a_node28"><a xlink:href="https://github.com/conda-forge/tomviz-feedstock" xlink:title="tomviz">
<ellipse fill="#ff8c00" stroke="black" cx="1692.26" cy="-710" rx="44.9" ry="18"/>
<text text-anchor="middle" x="1692.26" y="-705.33" font-family="Times,serif" font-size="14.00">tomviz</text>
</a>
</g>
</g>
<!-- go&#45;cockroach&#45;&gt;tomviz -->
<!-- protozfits -->
<g id="node31" class="node">
<title>protozfits</title>
<g id="a_node31"><a xlink:href="https://github.com/conda-forge/protozfits-feedstock/pull/48" xlink:title="protozfits ✓">
<ellipse fill="#31688e" stroke="black" cx="1692.26" cy="-638" rx="66.99" ry="18"/>
<text text-anchor="middle" x="1692.26" y="-633.33" font-family="Times,serif" font-size="14.00" fill="white">protozfits ✓</text>
</a>
</g>
</g>
<!-- tomviz&#45;&gt;protozfits -->
<!-- s2geometry -->
<g id="node29" class="node">
<title>s2geometry</title>
<g id="a_node29"><a xlink:href="https://github.com/conda-forge/s2geometry-feedstock/pull/23" xlink:title="s2geometry ❎">
<ellipse fill="#31688e" stroke="black" cx="1692.26" cy="-306" rx="85.93" ry="18"/>
<text text-anchor="middle" x="1692.26" y="-301.32" font-family="Times,serif" font-size="14.00" fill="white">s2geometry ❎</text>
</a>
</g>
</g>
<!-- s2geography -->
<g id="node30" class="node">
<title>s2geography</title>
<g id="a_node30"><a xlink:href="https://github.com/conda-forge/s2geography-feedstock" xlink:title="s2geography">
<ellipse fill="#fde725" stroke="black" cx="1692.26" cy="-234" rx="75.94" ry="18"/>
<text text-anchor="middle" x="1692.26" y="-229.32" font-family="Times,serif" font-size="14.00">s2geography</text>
</a>
</g>
</g>
<!-- s2geometry&#45;&gt;s2geography -->
<g id="edge35" class="edge">
<title>s2geometry&#45;&gt;s2geography</title>
<path fill="none" stroke="black" d="M1692.26,-287.7C1692.26,-280.41 1692.26,-271.73 1692.26,-263.54"/>
<polygon fill="black" stroke="black" points="1695.76,-263.62 1692.26,-253.62 1688.76,-263.62 1695.76,-263.62"/>
</g>
<!-- or&#45;tools -->
<g id="node32" class="node">
<title>or&#45;tools</title>
<g id="a_node32"><a xlink:href="https://github.com/conda-forge/or-tools-feedstock/pull/65" xlink:title="or tools ❎">
<ellipse fill="#31688e" stroke="black" cx="1692.26" cy="-566" rx="64.36" ry="18"/>
<text text-anchor="middle" x="1692.26" y="-561.33" font-family="Times,serif" font-size="14.00" fill="white">or tools ❎</text>
</a>
</g>
</g>
<!-- protozfits&#45;&gt;or&#45;tools -->
<!-- bear -->
<g id="node33" class="node">
<title>bear</title>
<g id="a_node33"><a xlink:href="https://github.com/conda-forge/bear-feedstock/pull/54" xlink:title="bear ❎">
<ellipse fill="#31688e" stroke="black" cx="1268.26" cy="-522" rx="49.1" ry="18"/>
<text text-anchor="middle" x="1268.26" y="-517.33" font-family="Times,serif" font-size="14.00" fill="white">bear ❎</text>
</a>
</g>
</g>
<!-- xilinx&#45;runtime -->
<g id="node34" class="node">
<title>xilinx&#45;runtime</title>
<g id="a_node34"><a xlink:href="https://github.com/conda-forge/xilinx-runtime-feedstock/pull/40" xlink:title="xilinx runtime ❎">
<ellipse fill="#31688e" stroke="black" cx="1268.26" cy="-450" rx="96.98" ry="18"/>
<text text-anchor="middle" x="1268.26" y="-445.32" font-family="Times,serif" font-size="14.00" fill="white">xilinx runtime ❎</text>
</a>
</g>
</g>
<!-- bear&#45;&gt;xilinx&#45;runtime -->
<!-- labmaze -->
<g id="node35" class="node">
<title>labmaze</title>
<g id="a_node35"><a xlink:href="https://github.com/conda-forge/labmaze-feedstock/pull/15" xlink:title="labmaze ✓">
<ellipse fill="#31688e" stroke="black" cx="1268.26" cy="-378" rx="60.68" ry="18"/>
<text text-anchor="middle" x="1268.26" y="-373.32" font-family="Times,serif" font-size="14.00" fill="white">labmaze ✓</text>
</a>
</g>
</g>
<!-- xilinx&#45;runtime&#45;&gt;labmaze -->
<!-- gnss&#45;sdr -->
<g id="node44" class="node">
<title>gnss&#45;sdr</title>
<g id="a_node44"><a xlink:href="https://github.com/conda-forge/gnss-sdr-feedstock/pull/37" xlink:title="gnss sdr ❎">
<ellipse fill="#31688e" stroke="black" cx="1268.26" cy="-306" rx="69.1" ry="18"/>
<text text-anchor="middle" x="1268.26" y="-301.32" font-family="Times,serif" font-size="14.00" fill="white">gnss sdr ❎</text>
</a>
</g>
</g>
<!-- labmaze&#45;&gt;gnss&#45;sdr -->
<!-- gz&#45;msgs -->
<g id="node36" class="node">
<title>gz&#45;msgs</title>
<g id="a_node36"><a xlink:href="https://github.com/conda-forge/gz-msgs-feedstock" xlink:title="gz msgs">
<ellipse fill="#000000" stroke="black" cx="474.26" cy="-414" rx="52.26" ry="18"/>
<text text-anchor="middle" x="474.26" y="-409.32" font-family="Times,serif" font-size="14.00" fill="white">gz msgs</text>
</a>
</g>
</g>
<!-- gz&#45;transport -->
<g id="node37" class="node">
<title>gz&#45;transport</title>
<g id="a_node37"><a xlink:href="https://github.com/conda-forge/gz-transport-feedstock" xlink:title="gz transport">
<ellipse fill="#fde725" stroke="black" cx="373.26" cy="-342" rx="73.3" ry="18"/>
<text text-anchor="middle" x="373.26" y="-337.32" font-family="Times,serif" font-size="14.00">gz transport</text>
</a>
</g>
</g>
<!-- gz&#45;msgs&#45;&gt;gz&#45;transport -->
<g id="edge40" class="edge">
<title>gz&#45;msgs&#45;&gt;gz&#45;transport</title>
<path fill="none" stroke="black" d="M451.85,-397.46C438.5,-388.21 421.31,-376.3 406.42,-365.98"/>
<polygon fill="black" stroke="black" points="408.48,-363.15 398.26,-360.33 404.49,-368.9 408.48,-363.15"/>
</g>
<!-- gz&#45;fuel&#45;tools -->
<g id="node38" class="node">
<title>gz&#45;fuel&#45;tools</title>
<g id="a_node38"><a xlink:href="https://github.com/conda-forge/gz-fuel-tools-feedstock" xlink:title="gz fuel tools">
<ellipse fill="#fde725" stroke="black" cx="574.26" cy="-342" rx="72.25" ry="18"/>
<text text-anchor="middle" x="574.26" y="-337.32" font-family="Times,serif" font-size="14.00">gz fuel tools</text>
</a>
</g>
</g>
<!-- gz&#45;msgs&#45;&gt;gz&#45;fuel&#45;tools -->
<g id="edge41" class="edge">
<title>gz&#45;msgs&#45;&gt;gz&#45;fuel&#45;tools</title>
<path fill="none" stroke="black" d="M496.45,-397.46C509.67,-388.21 526.69,-376.3 541.44,-365.98"/>
<polygon fill="black" stroke="black" points="543.31,-368.94 549.5,-360.34 539.3,-363.2 543.31,-368.94"/>
</g>
<!-- gz&#45;gui -->
<g id="node39" class="node">
<title>gz&#45;gui</title>
<g id="a_node39"><a xlink:href="https://github.com/conda-forge/gz-gui-feedstock" xlink:title="gz gui">
<ellipse fill="#fde725" stroke="black" cx="272.26" cy="-270" rx="41.74" ry="18"/>
<text text-anchor="middle" x="272.26" y="-265.32" font-family="Times,serif" font-size="14.00">gz gui</text>
</a>
</g>
</g>
<!-- gz&#45;msgs&#45;&gt;gz&#45;gui -->
<g id="edge42" class="edge">
<title>gz&#45;msgs&#45;&gt;gz&#45;gui</title>
<path fill="none" stroke="black" d="M422.26,-411.83C380.95,-408.03 324.73,-395.95 291.26,-360 276.35,-343.99 272.02,-319.26 271.17,-299.93"/>
<polygon fill="black" stroke="black" points="274.67,-299.91 271.06,-289.95 267.67,-299.98 274.67,-299.91"/>
</g>
<!-- gz&#45;sensors -->
<g id="node40" class="node">
<title>gz&#45;sensors</title>
<g id="a_node40"><a xlink:href="https://github.com/conda-forge/gz-sensors-feedstock" xlink:title="gz sensors">
<ellipse fill="#fde725" stroke="black" cx="510.26" cy="-270" rx="64.36" ry="18"/>
<text text-anchor="middle" x="510.26" y="-265.32" font-family="Times,serif" font-size="14.00">gz sensors</text>
</a>
</g>
</g>
<!-- gz&#45;msgs&#45;&gt;gz&#45;sensors -->
<g id="edge43" class="edge">
<title>gz&#45;msgs&#45;&gt;gz&#45;sensors</title>
<path fill="none" stroke="black" d="M477.4,-395.82C480.81,-377.8 486.67,-348.73 493.26,-324 495.46,-315.75 498.17,-306.88 500.77,-298.8"/>
<polygon fill="black" stroke="black" points="504.03,-300.09 503.84,-289.49 497.38,-297.9 504.03,-300.09"/>
</g>
<!-- gz&#45;sim -->
<g id="node41" class="node">
<title>gz&#45;sim</title>
<g id="a_node41"><a xlink:href="https://github.com/conda-forge/gz-sim-feedstock" xlink:title="gz sim">
<ellipse fill="#fde725" stroke="black" cx="485.26" cy="-198" rx="43.84" ry="18"/>
<text text-anchor="middle" x="485.26" y="-193.32" font-family="Times,serif" font-size="14.00">gz sim</text>
</a>
</g>
</g>
<!-- gz&#45;msgs&#45;&gt;gz&#45;sim -->
<g id="edge44" class="edge">
<title>gz&#45;msgs&#45;&gt;gz&#45;sim</title>
<path fill="none" stroke="black" d="M521.35,-405.71C569.41,-397.2 639.16,-381.49 655.26,-360 688.33,-315.86 602.33,-252.86 601.26,-252 580.36,-235.17 553.26,-222.4 530.51,-213.62"/>
<polygon fill="black" stroke="black" points="531.75,-210.34 521.15,-210.15 529.31,-216.91 531.75,-210.34"/>
</g>
<!-- gz&#45;launch -->
<g id="node42" class="node">
<title>gz&#45;launch</title>
<g id="a_node42"><a xlink:href="https://github.com/conda-forge/gz-launch-feedstock" xlink:title="gz launch">
<ellipse fill="#fde725" stroke="black" cx="285.26" cy="-126" rx="59.1" ry="18"/>
<text text-anchor="middle" x="285.26" y="-121.33" font-family="Times,serif" font-size="14.00">gz launch</text>
</a>
</g>
</g>
<!-- gz&#45;msgs&#45;&gt;gz&#45;launch -->
<g id="edge45" class="edge">
<title>gz&#45;msgs&#45;&gt;gz&#45;launch</title>
<path fill="none" stroke="black" d="M423.13,-409.73C379.12,-404.71 315.73,-392.03 270.26,-360 238.62,-337.71 232.65,-324.99 221.26,-288 206.18,-239.02 239.52,-183.93 263.51,-152.55"/>
<polygon fill="black" stroke="black" points="266.19,-154.8 269.65,-144.79 260.7,-150.46 266.19,-154.8"/>
</g>
<!-- gz&#45;sim&#45;yarp&#45;plugins -->
<g id="node43" class="node">
<title>gz&#45;sim&#45;yarp&#45;plugins</title>
<g id="a_node43"><a xlink:href="https://github.com/conda-forge/gz-sim-yarp-plugins-feedstock" xlink:title="gz sim yarp plugins">
<ellipse fill="#fde725" stroke="black" cx="485.26" cy="-126" rx="109.61" ry="18"/>
<text text-anchor="middle" x="485.26" y="-121.33" font-family="Times,serif" font-size="14.00">gz sim yarp plugins</text>
</a>
</g>
</g>
<!-- gz&#45;msgs&#45;&gt;gz&#45;sim&#45;yarp&#45;plugins -->
<g id="edge46" class="edge">
<title>gz&#45;msgs&#45;&gt;gz&#45;sim&#45;yarp&#45;plugins</title>
<path fill="none" stroke="black" d="M522.62,-406.89C575.45,-399.1 655.02,-383.74 673.26,-360 733.84,-281.18 598.97,-190.08 526.88,-149.05"/>
<polygon fill="black" stroke="black" points="528.9,-146.17 518.47,-144.34 525.48,-152.28 528.9,-146.17"/>
</g>
<!-- gz&#45;transport&#45;&gt;gz&#45;gui -->
<g id="edge47" class="edge">
<title>gz&#45;transport&#45;&gt;gz&#45;gui</title>
<path fill="none" stroke="black" d="M349.58,-324.59C335.71,-314.97 318.04,-302.73 303.09,-292.37"/>
<polygon fill="black" stroke="black" points="305.18,-289.56 294.97,-286.74 301.2,-295.31 305.18,-289.56"/>
</g>
<!-- gz&#45;transport&#45;&gt;gz&#45;sensors -->
<g id="edge48" class="edge">
<title>gz&#45;transport&#45;&gt;gz&#45;sensors</title>
<path fill="none" stroke="black" d="M404.01,-325.29C423.67,-315.24 449.36,-302.12 470.56,-291.28"/>
<polygon fill="black" stroke="black" points="471.9,-294.53 479.21,-286.86 468.71,-288.3 471.9,-294.53"/>
</g>
<!-- gz&#45;transport&#45;&gt;gz&#45;sim -->
<g id="edge49" class="edge">
<title>gz&#45;transport&#45;&gt;gz&#45;sim</title>
<path fill="none" stroke="black" d="M384.74,-323.85C397.15,-305.61 417.76,-276.13 437.26,-252 444.99,-242.44 453.91,-232.35 461.96,-223.57"/>
<polygon fill="black" stroke="black" points="464.37,-226.11 468.61,-216.4 459.24,-221.35 464.37,-226.11"/>
</g>
<!-- gz&#45;transport&#45;&gt;gz&#45;launch -->
<g id="edge50" class="edge">
<title>gz&#45;transport&#45;&gt;gz&#45;launch</title>
<path fill="none" stroke="black" d="M366.21,-323.85C351.02,-286.91 315.1,-199.55 296.64,-154.67"/>
<polygon fill="black" stroke="black" points="299.96,-153.55 292.92,-145.63 293.49,-156.21 299.96,-153.55"/>
</g>
<!-- gz&#45;transport&#45;&gt;gz&#45;sim&#45;yarp&#45;plugins -->
<g id="edge51" class="edge">
<title>gz&#45;transport&#45;&gt;gz&#45;sim&#45;yarp&#45;plugins</title>
<path fill="none" stroke="black" d="M376.93,-323.92C384.06,-293.27 401.82,-227.67 432.26,-180 438.72,-169.88 447.41,-160.17 455.88,-151.9"/>
<polygon fill="black" stroke="black" points="458.16,-154.55 463.08,-145.16 453.38,-149.44 458.16,-154.55"/>
</g>
<!-- gz&#45;fuel&#45;tools&#45;&gt;gz&#45;sim -->
<g id="edge52" class="edge">
<title>gz&#45;fuel&#45;tools&#45;&gt;gz&#45;sim</title>
<path fill="none" stroke="black" d="M581.84,-323.6C588.85,-304.62 596.38,-274.01 583.26,-252 572.06,-233.21 551.64,-220.68 532.33,-212.55"/>
<polygon fill="black" stroke="black" points="533.78,-209.36 523.19,-209.01 531.25,-215.89 533.78,-209.36"/>
</g>
<!-- gz&#45;gui&#45;&gt;gz&#45;sim -->
<g id="edge53" class="edge">
<title>gz&#45;gui&#45;&gt;gz&#45;sim</title>
<path fill="none" stroke="black" d="M304.61,-258.37C341.07,-246.39 400.55,-226.84 441.22,-213.47"/>
<polygon fill="black" stroke="black" points="442.06,-216.88 450.47,-210.44 439.87,-210.23 442.06,-216.88"/>
</g>
<!-- gz&#45;gui&#45;&gt;gz&#45;launch -->
<g id="edge54" class="edge">
<title>gz&#45;gui&#45;&gt;gz&#45;launch</title>
<path fill="none" stroke="black" d="M273.86,-251.59C276.05,-227.61 280.03,-184.14 282.66,-155.42"/>
<polygon fill="black" stroke="black" points="286.13,-155.9 283.56,-145.62 279.16,-155.26 286.13,-155.9"/>
</g>
<!-- gz&#45;sensors&#45;&gt;gz&#45;sim -->
<g id="edge55" class="edge">
<title>gz&#45;sensors&#45;&gt;gz&#45;sim</title>
<path fill="none" stroke="black" d="M504.08,-251.7C501.39,-244.15 498.16,-235.12 495.15,-226.68"/>
<polygon fill="black" stroke="black" points="498.54,-225.77 491.88,-217.53 491.95,-228.12 498.54,-225.77"/>
</g>
<!-- gz&#45;sim&#45;&gt;gz&#45;launch -->
<g id="edge56" class="edge">
<title>gz&#45;sim&#45;&gt;gz&#45;launch</title>
<path fill="none" stroke="black" d="M452.68,-185.6C420.34,-174.28 370.4,-156.8 333.47,-143.87"/>
<polygon fill="black" stroke="black" points="334.96,-140.69 324.37,-140.69 332.65,-147.3 334.96,-140.69"/>
</g>
<!-- gz&#45;sim&#45;&gt;gz&#45;sim&#45;yarp&#45;plugins -->
<g id="edge57" class="edge">
<title>gz&#45;sim&#45;&gt;gz&#45;sim&#45;yarp&#45;plugins</title>
<path fill="none" stroke="black" d="M485.26,-179.7C485.26,-172.41 485.26,-163.73 485.26,-155.54"/>
<polygon fill="black" stroke="black" points="488.76,-155.62 485.26,-145.62 481.76,-155.62 488.76,-155.62"/>
</g>
<!-- tensorstore -->
<g id="node47" class="node">
<title>tensorstore</title>
<g id="a_node47"><a xlink:href="https://github.com/conda-forge/tensorstore-feedstock/pull/54" xlink:title="tensorstore ❎">
<ellipse fill="#31688e" stroke="black" cx="1268.26" cy="-234" rx="84.35" ry="18"/>
<text text-anchor="middle" x="1268.26" y="-229.32" font-family="Times,serif" font-size="14.00" fill="white">tensorstore ❎</text>
</a>
</g>
</g>
<!-- gnss&#45;sdr&#45;&gt;tensorstore -->
<!-- openvino -->
<g id="node45" class="node">
<title>openvino</title>
<g id="a_node45"><a xlink:href="https://github.com/conda-forge/openvino-feedstock" xlink:title="openvino">
<ellipse fill="#35b779" stroke="black" cx="433.26" cy="-1034" rx="56.47" ry="18"/>
<text text-anchor="middle" x="433.26" y="-1029.33" font-family="Times,serif" font-size="14.00">openvino</text>
</a>
</g>
</g>
<!-- openvino&#45;&gt;opencv -->
<g id="edge59" class="edge">
<title>openvino&#45;&gt;opencv</title>
<path fill="none" stroke="black" d="M463.24,-1018.33C484.97,-1007.69 514.54,-993.22 537.98,-981.74"/>
<polygon fill="black" stroke="black" points="539.46,-984.91 546.91,-977.37 536.39,-978.62 539.46,-984.91"/>
</g>
<!-- openvino&#45;tokenizers -->
<g id="node46" class="node">
<title>openvino&#45;tokenizers</title>
<g id="a_node46"><a xlink:href="https://github.com/conda-forge/openvino-tokenizers-feedstock" xlink:title="openvino tokenizers">
<ellipse fill="#fde725" stroke="black" cx="289.26" cy="-962" rx="111.71" ry="18"/>
<text text-anchor="middle" x="289.26" y="-957.33" font-family="Times,serif" font-size="14.00">openvino tokenizers</text>
</a>
</g>
</g>
<!-- openvino&#45;&gt;openvino&#45;tokenizers -->
<g id="edge60" class="edge">
<title>openvino&#45;&gt;openvino&#45;tokenizers</title>
<path fill="none" stroke="black" d="M403.07,-1018.33C383,-1008.57 356.28,-995.58 333.78,-984.64"/>
<polygon fill="black" stroke="black" points="335.33,-981.5 324.81,-980.28 332.27,-987.8 335.33,-981.5"/>
</g>
<!-- bfiocpp -->
<g id="node48" class="node">
<title>bfiocpp</title>
<g id="a_node48"><a xlink:href="https://github.com/conda-forge/bfiocpp-feedstock/pull/14" xlink:title="bfiocpp ✓">
<ellipse fill="#31688e" stroke="black" cx="1268.26" cy="-162" rx="55.42" ry="18"/>
<text text-anchor="middle" x="1268.26" y="-157.32" font-family="Times,serif" font-size="14.00" fill="white">bfiocpp ✓</text>
</a>
</g>
</g>
<!-- tensorstore&#45;&gt;bfiocpp -->
<!-- mysqlx&#45;connector&#45;python -->
<g id="node49" class="node">
<title>mysqlx&#45;connector&#45;python</title>
<g id="a_node49"><a xlink:href="https://github.com/conda-forge/mysqlx-connector-python-feedstock/pull/11" xlink:title="mysqlx connector python ✓">
<ellipse fill="#31688e" stroke="black" cx="1268.26" cy="-90" rx="145.38" ry="18"/>
<text text-anchor="middle" x="1268.26" y="-85.33" font-family="Times,serif" font-size="14.00" fill="white">mysqlx connector python ✓</text>
</a>
</g>
</g>
<!-- bfiocpp&#45;&gt;mysqlx&#45;connector&#45;python -->
<!-- curated&#45;tokenizers -->
<g id="node50" class="node">
<title>curated&#45;tokenizers</title>
<g id="a_node50"><a xlink:href="https://github.com/conda-forge/curated-tokenizers-feedstock" xlink:title="curated tokenizers">
<ellipse fill="#35b779" stroke="black" cx="1268.26" cy="-18" rx="104.87" ry="18"/>
<text text-anchor="middle" x="1268.26" y="-13.32" font-family="Times,serif" font-size="14.00">curated tokenizers</text>
</a>
</g>
</g>
<!-- mysqlx&#45;connector&#45;python&#45;&gt;curated&#45;tokenizers -->
</g>
</svg>
