<?xml version="1.0" encoding="UTF-8" standalone="no"?>
<!DOCTYPE svg PUBLIC "-//W3C//DTD SVG 1.1//EN"
 "http://www.w3.org/Graphics/SVG/1.1/DTD/svg11.dtd">
<!-- Generated by graphviz version 12.2.1 (20250203.1708)
 -->
<!-- Pages: 1 -->
<svg width="1970pt" height="1240pt"
 viewBox="0.00 0.00 1970.07 1240.00" xmlns="http://www.w3.org/2000/svg" xmlns:xlink="http://www.w3.org/1999/xlink">
<g id="graph0" class="graph" transform="scale(1 1) rotate(0) translate(4 1236)">
<polygon fill="white" stroke="none" points="-4,4 -4,-1236 1966.07,-1236 1966.07,4 -4,4"/>
<!-- opencv -->
<g id="node1" class="node">
<title>opencv</title>
<g id="a_node1"><a xlink:href="https://github.com/conda-forge/opencv-feedstock" xlink:title="opencv">
<ellipse fill="#fde725" stroke="black" cx="1702.08" cy="-890" rx="46.47" ry="18"/>
<text text-anchor="middle" x="1702.08" y="-885.33" font-family="Times,serif" font-size="14.00">opencv</text>
</a>
</g>
</g>
<!-- ray&#45;packages -->
<g id="node2" class="node">
<title>ray&#45;packages</title>
<g id="a_node2"><a xlink:href="https://github.com/conda-forge/ray-packages-feedstock" xlink:title="ray packages">
<ellipse fill="#fde725" stroke="black" cx="1885.08" cy="-818" rx="76.99" ry="18"/>
<text text-anchor="middle" x="1885.08" y="-813.33" font-family="Times,serif" font-size="14.00">ray packages</text>
</a>
</g>
</g>
<!-- opencv&#45;&gt;ray&#45;packages -->
<g id="edge1" class="edge">
<title>opencv&#45;&gt;ray&#45;packages</title>
<path fill="none" stroke="black" d="M1734.38,-876.65C1762.41,-865.93 1803.42,-850.24 1835.58,-837.94"/>
<polygon fill="black" stroke="black" points="1836.62,-841.29 1844.71,-834.44 1834.12,-834.75 1836.62,-841.29"/>
</g>
<!-- imp -->
<g id="node3" class="node">
<title>imp</title>
<g id="a_node3"><a xlink:href="https://github.com/conda-forge/imp-feedstock" xlink:title="imp">
<ellipse fill="#fde725" stroke="black" cx="1760.08" cy="-818" rx="30.16" ry="18"/>
<text text-anchor="middle" x="1760.08" y="-813.33" font-family="Times,serif" font-size="14.00">imp</text>
</a>
</g>
</g>
<!-- opencv&#45;&gt;imp -->
<g id="edge2" class="edge">
<title>opencv&#45;&gt;imp</title>
<path fill="none" stroke="black" d="M1715.83,-872.41C1723.04,-863.71 1732.01,-852.89 1739.98,-843.26"/>
<polygon fill="black" stroke="black" points="1742.58,-845.61 1746.27,-835.68 1737.19,-841.14 1742.58,-845.61"/>
</g>
<!-- gazebo&#45;yarp&#45;plugins -->
<g id="node4" class="node">
<title>gazebo&#45;yarp&#45;plugins</title>
<g id="a_node4"><a xlink:href="https://github.com/conda-forge/gazebo-yarp-plugins-feedstock" xlink:title="gazebo yarp plugins">
<ellipse fill="#fde725" stroke="black" cx="1562.08" cy="-818" rx="112.24" ry="18"/>
<text text-anchor="middle" x="1562.08" y="-813.33" font-family="Times,serif" font-size="14.00">gazebo yarp plugins</text>
</a>
</g>
</g>
<!-- opencv&#45;&gt;gazebo&#45;yarp&#45;plugins -->
<g id="edge3" class="edge">
<title>opencv&#45;&gt;gazebo&#45;yarp&#45;plugins</title>
<path fill="none" stroke="black" d="M1674.43,-875.17C1654.73,-865.32 1627.87,-851.89 1605.36,-840.64"/>
<polygon fill="black" stroke="black" points="1607.22,-837.66 1596.71,-836.31 1604.09,-843.92 1607.22,-837.66"/>
</g>
<!-- nvidia&#45;dali&#45;python -->
<g id="node5" class="node">
<title>nvidia&#45;dali&#45;python</title>
<g id="a_node5"><a xlink:href="https://github.com/conda-forge/nvidia-dali-python-feedstock" xlink:title="nvidia dali python">
<ellipse fill="#fde725" stroke="black" cx="1702.08" cy="-746" rx="101.19" ry="18"/>
<text text-anchor="middle" x="1702.08" y="-741.33" font-family="Times,serif" font-size="14.00">nvidia dali python</text>
</a>
</g>
</g>
<!-- opencv&#45;&gt;nvidia&#45;dali&#45;python -->
<g id="edge4" class="edge">
<title>opencv&#45;&gt;nvidia&#45;dali&#45;python</title>
<path fill="none" stroke="black" d="M1702.08,-871.59C1702.08,-847.61 1702.08,-804.14 1702.08,-775.42"/>
<polygon fill="black" stroke="black" points="1705.58,-775.62 1702.08,-765.62 1698.58,-775.62 1705.58,-775.62"/>
</g>
<!-- qgis -->
<g id="node6" class="node">
<title>qgis</title>
<g id="a_node6"><a xlink:href="https://github.com/conda-forge/qgis-feedstock/pull/511" xlink:title="qgis ❎">
<ellipse fill="#31688e" stroke="black" cx="264.08" cy="-1214" rx="47.53" ry="18"/>
<text text-anchor="middle" x="264.08" y="-1209.33" font-family="Times,serif" font-size="14.00" fill="white">qgis ❎</text>
</a>
</g>
</g>
<!-- pyaudi -->
<g id="node7" class="node">
<title>pyaudi</title>
<g id="a_node7"><a xlink:href="https://github.com/conda-forge/pyaudi-feedstock/pull/47" xlink:title="pyaudi ✓">
<ellipse fill="#31688e" stroke="black" cx="264.08" cy="-1142" rx="52.79" ry="18"/>
<text text-anchor="middle" x="264.08" y="-1137.33" font-family="Times,serif" font-size="14.00" fill="white">pyaudi ✓</text>
</a>
</g>
</g>
<!-- qgis&#45;&gt;pyaudi -->
<!-- tensorflow -->
<g id="node8" class="node">
<title>tensorflow</title>
<g id="a_node8"><a xlink:href="https://github.com/conda-forge/tensorflow-feedstock/pull/424" xlink:title="tensorflow ❎">
<ellipse fill="#31688e" stroke="black" cx="264.08" cy="-1070" rx="79.09" ry="18"/>
<text text-anchor="middle" x="264.08" y="-1065.33" font-family="Times,serif" font-size="14.00" fill="white">tensorflow ❎</text>
</a>
</g>
</g>
<!-- pyaudi&#45;&gt;tensorflow -->
<!-- mongodb -->
<g id="node9" class="node">
<title>mongodb</title>
<g id="a_node9"><a xlink:href="https://github.com/conda-forge/mongodb-feedstock/pull/101" xlink:title="mongodb ❎">
<ellipse fill="#31688e" stroke="black" cx="264.08" cy="-998" rx="72.78" ry="18"/>
<text text-anchor="middle" x="264.08" y="-993.33" font-family="Times,serif" font-size="14.00" fill="white">mongodb ❎</text>
</a>
</g>
</g>
<!-- tensorflow&#45;&gt;mongodb -->
<!-- google&#45;cloud&#45;cpp -->
<g id="node10" class="node">
<title>google&#45;cloud&#45;cpp</title>
<g id="a_node10"><a xlink:href="https://github.com/conda-forge/google-cloud-cpp-feedstock/pull/196" xlink:title="google cloud cpp ❎">
<ellipse fill="#31688e" stroke="black" cx="264.08" cy="-926" rx="110.66" ry="18"/>
<text text-anchor="middle" x="264.08" y="-921.33" font-family="Times,serif" font-size="14.00" fill="white">google cloud cpp ❎</text>
</a>
</g>
</g>
<!-- mongodb&#45;&gt;google&#45;cloud&#45;cpp -->
<!-- go&#45;cockroach -->
<g id="node18" class="node">
<title>go&#45;cockroach</title>
<g id="a_node18"><a xlink:href="https://github.com/conda-forge/go-cockroach-feedstock/pull/32" xlink:title="go cockroach ❎">
<ellipse fill="#31688e" stroke="black" cx="264.08" cy="-854" rx="91.72" ry="18"/>
<text text-anchor="middle" x="264.08" y="-849.33" font-family="Times,serif" font-size="14.00" fill="white">go cockroach ❎</text>
</a>
</g>
</g>
<!-- google&#45;cloud&#45;cpp&#45;&gt;go&#45;cockroach -->
<!-- libignition&#45;transport4 -->
<g id="node11" class="node">
<title>libignition&#45;transport4</title>
<g id="a_node11"><a xlink:href="https://github.com/conda-forge/libignition-transport4-feedstock/pull/106" xlink:title="libignition transport4 ✓">
<ellipse fill="#31688e" stroke="black" cx="1082.08" cy="-962" rx="126.97" ry="18"/>
<text text-anchor="middle" x="1082.08" y="-957.33" font-family="Times,serif" font-size="14.00" fill="white">libignition transport4 ✓</text>
</a>
</g>
</g>
<!-- libignition&#45;sensors -->
<g id="node12" class="node">
<title>libignition&#45;sensors</title>
<g id="a_node12"><a xlink:href="https://github.com/conda-forge/libignition-sensors-feedstock" xlink:title="libignition sensors">
<ellipse fill="#fde725" stroke="black" cx="896.08" cy="-890" rx="103.82" ry="18"/>
<text text-anchor="middle" x="896.08" y="-885.33" font-family="Times,serif" font-size="14.00">libignition sensors</text>
</a>
</g>
</g>
<!-- libignition&#45;transport4&#45;&gt;libignition&#45;sensors -->
<g id="edge9" class="edge">
<title>libignition&#45;transport4&#45;&gt;libignition&#45;sensors</title>
<path fill="none" stroke="black" d="M1038.94,-944.76C1012.11,-934.67 977.41,-921.61 948.93,-910.89"/>
<polygon fill="black" stroke="black" points="950.36,-907.69 939.77,-907.44 947.89,-914.24 950.36,-907.69"/>
</g>
<!-- libignition&#45;gui -->
<g id="node13" class="node">
<title>libignition&#45;gui</title>
<g id="a_node13"><a xlink:href="https://github.com/conda-forge/libignition-gui-feedstock" xlink:title="libignition gui">
<ellipse fill="#fde725" stroke="black" cx="1137.08" cy="-890" rx="81.2" ry="18"/>
<text text-anchor="middle" x="1137.08" y="-885.33" font-family="Times,serif" font-size="14.00">libignition gui</text>
</a>
</g>
</g>
<!-- libignition&#45;transport4&#45;&gt;libignition&#45;gui -->
<g id="edge10" class="edge">
<title>libignition&#45;transport4&#45;&gt;libignition&#45;gui</title>
<path fill="none" stroke="black" d="M1095.68,-943.7C1102.01,-935.64 1109.67,-925.89 1116.67,-916.98"/>
<polygon fill="black" stroke="black" points="1119.28,-919.32 1122.71,-909.29 1113.78,-915 1119.28,-919.32"/>
</g>
<!-- libignition&#45;gazebo -->
<g id="node14" class="node">
<title>libignition&#45;gazebo</title>
<g id="a_node14"><a xlink:href="https://github.com/conda-forge/libignition-gazebo-feedstock" xlink:title="libignition gazebo">
<ellipse fill="#fde725" stroke="black" cx="1018.08" cy="-818" rx="100.66" ry="18"/>
<text text-anchor="middle" x="1018.08" y="-813.33" font-family="Times,serif" font-size="14.00">libignition gazebo</text>
</a>
</g>
</g>
<!-- libignition&#45;transport4&#45;&gt;libignition&#45;gazebo -->
<g id="edge11" class="edge">
<title>libignition&#45;transport4&#45;&gt;libignition&#45;gazebo</title>
<path fill="none" stroke="black" d="M1069.18,-944.03C1061.97,-933.96 1053.22,-920.71 1047.08,-908 1037.65,-888.43 1030.16,-865.02 1025.15,-847.13"/>
<polygon fill="black" stroke="black" points="1028.6,-846.47 1022.62,-837.72 1021.84,-848.28 1028.6,-846.47"/>
</g>
<!-- libignition&#45;launch -->
<g id="node15" class="node">
<title>libignition&#45;launch</title>
<g id="a_node15"><a xlink:href="https://github.com/conda-forge/libignition-launch-feedstock" xlink:title="libignition launch">
<ellipse fill="#fde725" stroke="black" cx="1147.08" cy="-746" rx="98.56" ry="18"/>
<text text-anchor="middle" x="1147.08" y="-741.33" font-family="Times,serif" font-size="14.00">libignition launch</text>
</a>
</g>
</g>
<!-- libignition&#45;transport4&#45;&gt;libignition&#45;launch -->
<g id="edge12" class="edge">
<title>libignition&#45;transport4&#45;&gt;libignition&#45;launch</title>
<path fill="none" stroke="black" d="M1167.35,-948.37C1190.5,-940.6 1213.03,-928.1 1227.08,-908 1258.41,-863.2 1209.42,-804.33 1175.35,-771.62"/>
<polygon fill="black" stroke="black" points="1177.88,-769.19 1168.18,-764.93 1173.1,-774.31 1177.88,-769.19"/>
</g>
<!-- libignition&#45;sensors&#45;&gt;libignition&#45;gazebo -->
<g id="edge13" class="edge">
<title>libignition&#45;sensors&#45;&gt;libignition&#45;gazebo</title>
<path fill="none" stroke="black" d="M925,-872.41C941.14,-863.15 961.47,-851.49 979,-841.42"/>
<polygon fill="black" stroke="black" points="980.71,-844.48 987.64,-836.47 977.23,-838.41 980.71,-844.48"/>
</g>
<!-- libignition&#45;gui&#45;&gt;libignition&#45;gazebo -->
<g id="edge14" class="edge">
<title>libignition&#45;gui&#45;&gt;libignition&#45;gazebo</title>
<path fill="none" stroke="black" d="M1109.48,-872.76C1093.64,-863.45 1073.52,-851.61 1056.19,-841.41"/>
<polygon fill="black" stroke="black" points="1058.06,-838.45 1047.67,-836.4 1054.51,-844.49 1058.06,-838.45"/>
</g>
<!-- libignition&#45;gui&#45;&gt;libignition&#45;launch -->
<g id="edge15" class="edge">
<title>libignition&#45;gui&#45;&gt;libignition&#45;launch</title>
<path fill="none" stroke="black" d="M1138.31,-871.59C1140,-847.61 1143.06,-804.14 1145.08,-775.42"/>
<polygon fill="black" stroke="black" points="1148.56,-775.84 1145.77,-765.62 1141.58,-775.35 1148.56,-775.84"/>
</g>
<!-- libignition&#45;gazebo&#45;&gt;libignition&#45;launch -->
<g id="edge16" class="edge">
<title>libignition&#45;gazebo&#45;&gt;libignition&#45;launch</title>
<path fill="none" stroke="black" d="M1048.66,-800.41C1066.01,-791 1087.94,-779.1 1106.69,-768.92"/>
<polygon fill="black" stroke="black" points="1108.28,-772.04 1115.4,-764.19 1104.94,-765.89 1108.28,-772.04"/>
</g>
<!-- gazebo -->
<g id="node16" class="node">
<title>gazebo</title>
<g id="a_node16"><a xlink:href="https://github.com/conda-forge/gazebo-feedstock/pull/237" xlink:title="gazebo ❎">
<ellipse fill="#31688e" stroke="black" cx="1569.08" cy="-890" rx="61.73" ry="18"/>
<text text-anchor="middle" x="1569.08" y="-885.33" font-family="Times,serif" font-size="14.00" fill="white">gazebo ❎</text>
</a>
</g>
</g>
<!-- gazebo&#45;&gt;gazebo&#45;yarp&#45;plugins -->
<g id="edge17" class="edge">
<title>gazebo&#45;&gt;gazebo&#45;yarp&#45;plugins</title>
<path fill="none" stroke="black" d="M1567.35,-871.7C1566.63,-864.41 1565.76,-855.73 1564.94,-847.54"/>
<polygon fill="black" stroke="black" points="1568.42,-847.21 1563.95,-837.61 1561.46,-847.91 1568.42,-847.21"/>
</g>
<!-- libignition&#45;fuel&#45;tools -->
<g id="node17" class="node">
<title>libignition&#45;fuel&#45;tools</title>
<g id="a_node17"><a xlink:href="https://github.com/conda-forge/libignition-fuel-tools-feedstock/pull/101" xlink:title="libignition fuel tools ✓">
<ellipse fill="#31688e" stroke="black" cx="655.08" cy="-890" rx="119.6" ry="18"/>
<text text-anchor="middle" x="655.08" y="-885.33" font-family="Times,serif" font-size="14.00" fill="white">libignition fuel tools ✓</text>
</a>
</g>
</g>
<!-- libignition&#45;fuel&#45;tools&#45;&gt;libignition&#45;gazebo -->
<g id="edge18" class="edge">
<title>libignition&#45;fuel&#45;tools&#45;&gt;libignition&#45;gazebo</title>
<path fill="none" stroke="black" d="M726.8,-875.17C788.4,-863.29 877.01,-846.2 940.3,-834"/>
<polygon fill="black" stroke="black" points="940.77,-837.47 949.93,-832.14 939.44,-830.6 940.77,-837.47"/>
</g>
<!-- tomviz -->
<g id="node19" class="node">
<title>tomviz</title>
<g id="a_node19"><a xlink:href="https://github.com/conda-forge/tomviz-feedstock/pull/73" xlink:title="tomviz ❎">
<ellipse fill="#31688e" stroke="black" cx="264.08" cy="-782" rx="60.15" ry="18"/>
<text text-anchor="middle" x="264.08" y="-777.33" font-family="Times,serif" font-size="14.00" fill="white">tomviz ❎</text>
</a>
</g>
</g>
<!-- go&#45;cockroach&#45;&gt;tomviz -->
<!-- protozfits -->
<g id="node22" class="node">
<title>protozfits</title>
<g id="a_node22"><a xlink:href="https://github.com/conda-forge/protozfits-feedstock/pull/48" xlink:title="protozfits ✓">
<ellipse fill="#31688e" stroke="black" cx="264.08" cy="-710" rx="66.99" ry="18"/>
<text text-anchor="middle" x="264.08" y="-705.33" font-family="Times,serif" font-size="14.00" fill="white">protozfits ✓</text>
</a>
</g>
</g>
<!-- tomviz&#45;&gt;protozfits -->
<!-- s2geometry -->
<g id="node20" class="node">
<title>s2geometry</title>
<g id="a_node20"><a xlink:href="https://github.com/conda-forge/s2geometry-feedstock/pull/23" xlink:title="s2geometry ✓">
<ellipse fill="#31688e" stroke="black" cx="1614.08" cy="-270" rx="78.57" ry="18"/>
<text text-anchor="middle" x="1614.08" y="-265.32" font-family="Times,serif" font-size="14.00" fill="white">s2geometry ✓</text>
</a>
</g>
</g>
<!-- s2geography -->
<g id="node21" class="node">
<title>s2geography</title>
<g id="a_node21"><a xlink:href="https://github.com/conda-forge/s2geography-feedstock" xlink:title="s2geography">
<ellipse fill="#fde725" stroke="black" cx="1614.08" cy="-198" rx="75.94" ry="18"/>
<text text-anchor="middle" x="1614.08" y="-193.32" font-family="Times,serif" font-size="14.00">s2geography</text>
</a>
</g>
</g>
<!-- s2geometry&#45;&gt;s2geography -->
<g id="edge21" class="edge">
<title>s2geometry&#45;&gt;s2geography</title>
<path fill="none" stroke="black" d="M1614.08,-251.7C1614.08,-244.41 1614.08,-235.73 1614.08,-227.54"/>
<polygon fill="black" stroke="black" points="1617.58,-227.62 1614.08,-217.62 1610.58,-227.62 1617.58,-227.62"/>
</g>
<!-- or&#45;tools -->
<g id="node23" class="node">
<title>or&#45;tools</title>
<g id="a_node23"><a xlink:href="https://github.com/conda-forge/or-tools-feedstock/pull/65" xlink:title="or tools ❎">
<ellipse fill="#31688e" stroke="black" cx="264.08" cy="-638" rx="64.36" ry="18"/>
<text text-anchor="middle" x="264.08" y="-633.33" font-family="Times,serif" font-size="14.00" fill="white">or tools ❎</text>
</a>
</g>
</g>
<!-- protozfits&#45;&gt;or&#45;tools -->
<!-- bear -->
<g id="node24" class="node">
<title>bear</title>
<g id="a_node24"><a xlink:href="https://github.com/conda-forge/bear-feedstock/pull/54" xlink:title="bear ❎">
<ellipse fill="#31688e" stroke="black" cx="264.08" cy="-566" rx="49.1" ry="18"/>
<text text-anchor="middle" x="264.08" y="-561.33" font-family="Times,serif" font-size="14.00" fill="white">bear ❎</text>
</a>
</g>
</g>
<!-- or&#45;tools&#45;&gt;bear -->
<!-- datafusion -->
<g id="node25" class="node">
<title>datafusion</title>
<g id="a_node25"><a xlink:href="https://github.com/conda-forge/datafusion-feedstock/pull/66" xlink:title="datafusion ❎">
<ellipse fill="#31688e" stroke="black" cx="264.08" cy="-494" rx="79.09" ry="18"/>
<text text-anchor="middle" x="264.08" y="-489.32" font-family="Times,serif" font-size="14.00" fill="white">datafusion ❎</text>
</a>
</g>
</g>
<!-- bear&#45;&gt;datafusion -->
<!-- mujoco -->
<g id="node26" class="node">
<title>mujoco</title>
<g id="a_node26"><a xlink:href="https://github.com/conda-forge/mujoco-feedstock/pull/74" xlink:title="mujoco ❎">
<ellipse fill="#31688e" stroke="black" cx="1885.08" cy="-890" rx="62.26" ry="18"/>
<text text-anchor="middle" x="1885.08" y="-885.33" font-family="Times,serif" font-size="14.00" fill="white">mujoco ❎</text>
</a>
</g>
</g>
<!-- mujoco&#45;&gt;ray&#45;packages -->
<g id="edge26" class="edge">
<title>mujoco&#45;&gt;ray&#45;packages</title>
<path fill="none" stroke="black" d="M1885.08,-871.7C1885.08,-864.41 1885.08,-855.73 1885.08,-847.54"/>
<polygon fill="black" stroke="black" points="1888.58,-847.62 1885.08,-837.62 1881.58,-847.62 1888.58,-847.62"/>
</g>
<!-- xilinx&#45;runtime -->
<g id="node27" class="node">
<title>xilinx&#45;runtime</title>
<g id="a_node27"><a xlink:href="https://github.com/conda-forge/xilinx-runtime-feedstock/pull/40" xlink:title="xilinx runtime ❎">
<ellipse fill="#31688e" stroke="black" cx="897.08" cy="-450" rx="96.98" ry="18"/>
<text text-anchor="middle" x="897.08" y="-445.32" font-family="Times,serif" font-size="14.00" fill="white">xilinx runtime ❎</text>
</a>
</g>
</g>
<!-- labmaze -->
<g id="node28" class="node">
<title>labmaze</title>
<g id="a_node28"><a xlink:href="https://github.com/conda-forge/labmaze-feedstock/pull/15" xlink:title="labmaze ✓">
<ellipse fill="#31688e" stroke="black" cx="897.08" cy="-378" rx="60.68" ry="18"/>
<text text-anchor="middle" x="897.08" y="-373.32" font-family="Times,serif" font-size="14.00" fill="white">labmaze ✓</text>
</a>
</g>
</g>
<!-- xilinx&#45;runtime&#45;&gt;labmaze -->
<!-- arcticdb -->
<g id="node37" class="node">
<title>arcticdb</title>
<g id="a_node37"><a xlink:href="https://github.com/conda-forge/arcticdb-feedstock/pull/409" xlink:title="arcticdb ❎">
<ellipse fill="#31688e" stroke="black" cx="897.08" cy="-306" rx="67.52" ry="18"/>
<text text-anchor="middle" x="897.08" y="-301.32" font-family="Times,serif" font-size="14.00" fill="white">arcticdb ❎</text>
</a>
</g>
</g>
<!-- labmaze&#45;&gt;arcticdb -->
<!-- gz&#45;msgs -->
<g id="node29" class="node">
<title>gz&#45;msgs</title>
<g id="a_node29"><a xlink:href="https://github.com/conda-forge/gz-msgs-feedstock/pull/60" xlink:title="gz msgs ❎">
<ellipse fill="#31688e" stroke="black" cx="268.08" cy="-378" rx="67.52" ry="18"/>
<text text-anchor="middle" x="268.08" y="-373.32" font-family="Times,serif" font-size="14.00" fill="white">gz msgs ❎</text>
</a>
</g>
</g>
<!-- gz&#45;transport -->
<g id="node30" class="node">
<title>gz&#45;transport</title>
<g id="a_node30"><a xlink:href="https://github.com/conda-forge/gz-transport-feedstock" xlink:title="gz transport">
<ellipse fill="#fde725" stroke="black" cx="167.08" cy="-306" rx="73.3" ry="18"/>
<text text-anchor="middle" x="167.08" y="-301.32" font-family="Times,serif" font-size="14.00">gz transport</text>
</a>
</g>
</g>
<!-- gz&#45;msgs&#45;&gt;gz&#45;transport -->
<g id="edge28" class="edge">
<title>gz&#45;msgs&#45;&gt;gz&#45;transport</title>
<path fill="none" stroke="black" d="M244.66,-360.76C231.37,-351.55 214.53,-339.88 199.94,-329.77"/>
<polygon fill="black" stroke="black" points="202.19,-327.07 191.98,-324.25 198.2,-332.82 202.19,-327.07"/>
</g>
<!-- gz&#45;fuel&#45;tools -->
<g id="node31" class="node">
<title>gz&#45;fuel&#45;tools</title>
<g id="a_node31"><a xlink:href="https://github.com/conda-forge/gz-fuel-tools-feedstock" xlink:title="gz fuel tools">
<ellipse fill="#fde725" stroke="black" cx="368.08" cy="-306" rx="72.25" ry="18"/>
<text text-anchor="middle" x="368.08" y="-301.32" font-family="Times,serif" font-size="14.00">gz fuel tools</text>
</a>
</g>
</g>
<!-- gz&#45;msgs&#45;&gt;gz&#45;fuel&#45;tools -->
<g id="edge29" class="edge">
<title>gz&#45;msgs&#45;&gt;gz&#45;fuel&#45;tools</title>
<path fill="none" stroke="black" d="M291.28,-360.76C304.44,-351.55 321.11,-339.88 335.56,-329.77"/>
<polygon fill="black" stroke="black" points="337.25,-332.86 343.43,-324.26 333.23,-327.13 337.25,-332.86"/>
</g>
<!-- gz&#45;gui -->
<g id="node32" class="node">
<title>gz&#45;gui</title>
<g id="a_node32"><a xlink:href="https://github.com/conda-forge/gz-gui-feedstock" xlink:title="gz gui">
<ellipse fill="#fde725" stroke="black" cx="66.08" cy="-234" rx="41.74" ry="18"/>
<text text-anchor="middle" x="66.08" y="-229.32" font-family="Times,serif" font-size="14.00">gz gui</text>
</a>
</g>
</g>
<!-- gz&#45;msgs&#45;&gt;gz&#45;gui -->
<g id="edge30" class="edge">
<title>gz&#45;msgs&#45;&gt;gz&#45;gui</title>
<path fill="none" stroke="black" d="M201.81,-374.24C162.56,-369.05 114.83,-355.96 85.08,-324 70.18,-307.99 65.84,-283.26 65,-263.93"/>
<polygon fill="black" stroke="black" points="68.5,-263.91 64.88,-253.95 61.5,-263.98 68.5,-263.91"/>
</g>
<!-- gz&#45;sensors -->
<g id="node33" class="node">
<title>gz&#45;sensors</title>
<g id="a_node33"><a xlink:href="https://github.com/conda-forge/gz-sensors-feedstock" xlink:title="gz sensors">
<ellipse fill="#fde725" stroke="black" cx="304.08" cy="-234" rx="64.36" ry="18"/>
<text text-anchor="middle" x="304.08" y="-229.32" font-family="Times,serif" font-size="14.00">gz sensors</text>
</a>
</g>
</g>
<!-- gz&#45;msgs&#45;&gt;gz&#45;sensors -->
<g id="edge31" class="edge">
<title>gz&#45;msgs&#45;&gt;gz&#45;sensors</title>
<path fill="none" stroke="black" d="M271.22,-359.82C274.64,-341.8 280.5,-312.73 287.08,-288 289.28,-279.75 291.99,-270.88 294.59,-262.8"/>
<polygon fill="black" stroke="black" points="297.85,-264.09 297.66,-253.49 291.2,-261.9 297.85,-264.09"/>
</g>
<!-- gz&#45;sim -->
<g id="node34" class="node">
<title>gz&#45;sim</title>
<g id="a_node34"><a xlink:href="https://github.com/conda-forge/gz-sim-feedstock" xlink:title="gz sim">
<ellipse fill="#fde725" stroke="black" cx="279.08" cy="-162" rx="43.84" ry="18"/>
<text text-anchor="middle" x="279.08" y="-157.32" font-family="Times,serif" font-size="14.00">gz sim</text>
</a>
</g>
</g>
<!-- gz&#45;msgs&#45;&gt;gz&#45;sim -->
<g id="edge32" class="edge">
<title>gz&#45;msgs&#45;&gt;gz&#45;sim</title>
<path fill="none" stroke="black" d="M324.65,-367.99C371.94,-359.16 434.02,-344.11 449.08,-324 482.15,-279.86 396.15,-216.86 395.08,-216 374.19,-199.17 347.09,-186.4 324.33,-177.62"/>
<polygon fill="black" stroke="black" points="325.57,-174.34 314.98,-174.15 323.14,-180.91 325.57,-174.34"/>
</g>
<!-- gz&#45;launch -->
<g id="node35" class="node">
<title>gz&#45;launch</title>
<g id="a_node35"><a xlink:href="https://github.com/conda-forge/gz-launch-feedstock" xlink:title="gz launch">
<ellipse fill="#fde725" stroke="black" cx="79.08" cy="-90" rx="59.1" ry="18"/>
<text text-anchor="middle" x="79.08" y="-85.33" font-family="Times,serif" font-size="14.00">gz launch</text>
</a>
</g>
</g>
<!-- gz&#45;msgs&#45;&gt;gz&#45;launch -->
<g id="edge33" class="edge">
<title>gz&#45;msgs&#45;&gt;gz&#45;launch</title>
<path fill="none" stroke="black" d="M203.86,-372.07C161.02,-366.12 105.22,-352.98 64.08,-324 32.44,-301.71 26.48,-288.99 15.08,-252 0,-203.02 33.34,-147.93 57.33,-116.55"/>
<polygon fill="black" stroke="black" points="60.01,-118.8 63.47,-108.79 54.52,-114.46 60.01,-118.8"/>
</g>
<!-- gz&#45;sim&#45;yarp&#45;plugins -->
<g id="node36" class="node">
<title>gz&#45;sim&#45;yarp&#45;plugins</title>
<g id="a_node36"><a xlink:href="https://github.com/conda-forge/gz-sim-yarp-plugins-feedstock" xlink:title="gz sim yarp plugins">
<ellipse fill="#fde725" stroke="black" cx="279.08" cy="-90" rx="109.61" ry="18"/>
<text text-anchor="middle" x="279.08" y="-85.33" font-family="Times,serif" font-size="14.00">gz sim yarp plugins</text>
</a>
</g>
</g>
<!-- gz&#45;msgs&#45;&gt;gz&#45;sim&#45;yarp&#45;plugins -->
<g id="edge34" class="edge">
<title>gz&#45;msgs&#45;&gt;gz&#45;sim&#45;yarp&#45;plugins</title>
<path fill="none" stroke="black" d="M327.68,-369.18C379.91,-360.96 450.09,-346.11 467.08,-324 527.66,-245.18 392.79,-154.08 320.7,-113.05"/>
<polygon fill="black" stroke="black" points="322.73,-110.17 312.29,-108.34 319.31,-116.28 322.73,-110.17"/>
</g>
<!-- gz&#45;transport&#45;&gt;gz&#45;gui -->
<g id="edge35" class="edge">
<title>gz&#45;transport&#45;&gt;gz&#45;gui</title>
<path fill="none" stroke="black" d="M143.4,-288.59C129.53,-278.97 111.86,-266.73 96.91,-256.37"/>
<polygon fill="black" stroke="black" points="99.01,-253.56 88.8,-250.74 95.02,-259.31 99.01,-253.56"/>
</g>
<!-- gz&#45;transport&#45;&gt;gz&#45;sensors -->
<g id="edge36" class="edge">
<title>gz&#45;transport&#45;&gt;gz&#45;sensors</title>
<path fill="none" stroke="black" d="M197.83,-289.29C217.49,-279.24 243.19,-266.12 264.38,-255.28"/>
<polygon fill="black" stroke="black" points="265.72,-258.53 273.03,-250.86 262.54,-252.3 265.72,-258.53"/>
</g>
<!-- gz&#45;transport&#45;&gt;gz&#45;sim -->
<g id="edge37" class="edge">
<title>gz&#45;transport&#45;&gt;gz&#45;sim</title>
<path fill="none" stroke="black" d="M178.57,-287.85C190.97,-269.61 211.59,-240.13 231.08,-216 238.81,-206.44 247.74,-196.35 255.78,-187.57"/>
<polygon fill="black" stroke="black" points="258.2,-190.11 262.43,-180.4 253.06,-185.35 258.2,-190.11"/>
</g>
<!-- gz&#45;transport&#45;&gt;gz&#45;launch -->
<g id="edge38" class="edge">
<title>gz&#45;transport&#45;&gt;gz&#45;launch</title>
<path fill="none" stroke="black" d="M160.03,-287.85C144.84,-250.91 108.92,-163.55 90.46,-118.67"/>
<polygon fill="black" stroke="black" points="93.79,-117.55 86.75,-109.63 87.31,-120.21 93.79,-117.55"/>
</g>
<!-- gz&#45;transport&#45;&gt;gz&#45;sim&#45;yarp&#45;plugins -->
<g id="edge39" class="edge">
<title>gz&#45;transport&#45;&gt;gz&#45;sim&#45;yarp&#45;plugins</title>
<path fill="none" stroke="black" d="M170.76,-287.92C177.89,-257.27 195.64,-191.67 226.08,-144 232.55,-133.88 241.23,-124.17 249.7,-115.9"/>
<polygon fill="black" stroke="black" points="251.99,-118.55 256.9,-109.16 247.21,-113.44 251.99,-118.55"/>
</g>
<!-- gz&#45;fuel&#45;tools&#45;&gt;gz&#45;sim -->
<g id="edge40" class="edge">
<title>gz&#45;fuel&#45;tools&#45;&gt;gz&#45;sim</title>
<path fill="none" stroke="black" d="M375.66,-287.6C382.67,-268.62 390.2,-238.01 377.08,-216 365.89,-197.21 345.47,-184.68 326.15,-176.55"/>
<polygon fill="black" stroke="black" points="327.6,-173.36 317.01,-173.01 325.08,-179.89 327.6,-173.36"/>
</g>
<!-- gz&#45;gui&#45;&gt;gz&#45;sim -->
<g id="edge41" class="edge">
<title>gz&#45;gui&#45;&gt;gz&#45;sim</title>
<path fill="none" stroke="black" d="M98.43,-222.37C134.89,-210.39 194.37,-190.84 235.04,-177.47"/>
<polygon fill="black" stroke="black" points="235.88,-180.88 244.29,-174.44 233.7,-174.23 235.88,-180.88"/>
</g>
<!-- gz&#45;gui&#45;&gt;gz&#45;launch -->
<g id="edge42" class="edge">
<title>gz&#45;gui&#45;&gt;gz&#45;launch</title>
<path fill="none" stroke="black" d="M67.68,-215.59C69.87,-191.61 73.85,-148.14 76.48,-119.42"/>
<polygon fill="black" stroke="black" points="79.95,-119.9 77.38,-109.62 72.98,-119.26 79.95,-119.9"/>
</g>
<!-- gz&#45;sensors&#45;&gt;gz&#45;sim -->
<g id="edge43" class="edge">
<title>gz&#45;sensors&#45;&gt;gz&#45;sim</title>
<path fill="none" stroke="black" d="M297.9,-215.7C295.21,-208.15 291.98,-199.12 288.97,-190.68"/>
<polygon fill="black" stroke="black" points="292.36,-189.77 285.7,-181.53 285.77,-192.12 292.36,-189.77"/>
</g>
<!-- gz&#45;sim&#45;&gt;gz&#45;launch -->
<g id="edge44" class="edge">
<title>gz&#45;sim&#45;&gt;gz&#45;launch</title>
<path fill="none" stroke="black" d="M246.51,-149.6C214.17,-138.28 164.22,-120.8 127.29,-107.87"/>
<polygon fill="black" stroke="black" points="128.79,-104.69 118.19,-104.69 126.48,-111.3 128.79,-104.69"/>
</g>
<!-- gz&#45;sim&#45;&gt;gz&#45;sim&#45;yarp&#45;plugins -->
<g id="edge45" class="edge">
<title>gz&#45;sim&#45;&gt;gz&#45;sim&#45;yarp&#45;plugins</title>
<path fill="none" stroke="black" d="M279.08,-143.7C279.08,-136.41 279.08,-127.73 279.08,-119.54"/>
<polygon fill="black" stroke="black" points="282.58,-119.62 279.08,-109.62 275.58,-119.62 282.58,-119.62"/>
</g>
<!-- gnss&#45;sdr -->
<g id="node40" class="node">
<title>gnss&#45;sdr</title>
<g id="a_node40"><a xlink:href="https://github.com/conda-forge/gnss-sdr-feedstock/pull/37" xlink:title="gnss sdr ❎">
<ellipse fill="#31688e" stroke="black" cx="897.08" cy="-234" rx="69.1" ry="18"/>
<text text-anchor="middle" x="897.08" y="-229.32" font-family="Times,serif" font-size="14.00" fill="white">gnss sdr ❎</text>
</a>
</g>
</g>
<!-- arcticdb&#45;&gt;gnss&#45;sdr -->
<!-- openvino -->
<g id="node38" class="node">
<title>openvino</title>
<g id="a_node38"><a xlink:href="https://github.com/conda-forge/openvino-feedstock/pull/129" xlink:title="openvino ❎">
<ellipse fill="#31688e" stroke="black" cx="1536.08" cy="-962" rx="71.73" ry="18"/>
<text text-anchor="middle" x="1536.08" y="-957.33" font-family="Times,serif" font-size="14.00" fill="white">openvino ❎</text>
</a>
</g>
</g>
<!-- openvino&#45;&gt;opencv -->
<g id="edge47" class="edge">
<title>openvino&#45;&gt;opencv</title>
<path fill="none" stroke="black" d="M1571.7,-945.98C1597.94,-934.92 1633.68,-919.85 1661.11,-908.28"/>
<polygon fill="black" stroke="black" points="1662.3,-911.58 1670.15,-904.47 1659.58,-905.13 1662.3,-911.58"/>
</g>
<!-- openvino&#45;tokenizers -->
<g id="node39" class="node">
<title>openvino&#45;tokenizers</title>
<g id="a_node39"><a xlink:href="https://github.com/conda-forge/openvino-tokenizers-feedstock" xlink:title="openvino tokenizers">
<ellipse fill="#fde725" stroke="black" cx="1378.08" cy="-890" rx="111.71" ry="18"/>
<text text-anchor="middle" x="1378.08" y="-885.33" font-family="Times,serif" font-size="14.00">openvino tokenizers</text>
</a>
</g>
</g>
<!-- openvino&#45;&gt;openvino&#45;tokenizers -->
<g id="edge48" class="edge">
<title>openvino&#45;&gt;openvino&#45;tokenizers</title>
<path fill="none" stroke="black" d="M1501.8,-945.81C1479.41,-935.89 1449.86,-922.8 1425.26,-911.9"/>
<polygon fill="black" stroke="black" points="1427,-908.84 1416.44,-907.99 1424.17,-915.24 1427,-908.84"/>
</g>
<!-- tensorstore -->
<g id="node41" class="node">
<title>tensorstore</title>
<g id="a_node41"><a xlink:href="https://github.com/conda-forge/tensorstore-feedstock/pull/54" xlink:title="tensorstore ❎">
<ellipse fill="#31688e" stroke="black" cx="897.08" cy="-162" rx="84.35" ry="18"/>
<text text-anchor="middle" x="897.08" y="-157.32" font-family="Times,serif" font-size="14.00" fill="white">tensorstore ❎</text>
</a>
</g>
</g>
<!-- gnss&#45;sdr&#45;&gt;tensorstore -->
<!-- bfiocpp -->
<g id="node42" class="node">
<title>bfiocpp</title>
<g id="a_node42"><a xlink:href="https://github.com/conda-forge/bfiocpp-feedstock/pull/14" xlink:title="bfiocpp ✓">
<ellipse fill="#31688e" stroke="black" cx="897.08" cy="-90" rx="55.42" ry="18"/>
<text text-anchor="middle" x="897.08" y="-85.33" font-family="Times,serif" font-size="14.00" fill="white">bfiocpp ✓</text>
</a>
</g>
</g>
<!-- tensorstore&#45;&gt;bfiocpp -->
<!-- mysqlx&#45;connector&#45;python -->
<g id="node43" class="node">
<title>mysqlx&#45;connector&#45;python</title>
<g id="a_node43"><a xlink:href="https://github.com/conda-forge/mysqlx-connector-python-feedstock/pull/11" xlink:title="mysqlx connector python ✓">
<ellipse fill="#31688e" stroke="black" cx="897.08" cy="-18" rx="145.38" ry="18"/>
<text text-anchor="middle" x="897.08" y="-13.32" font-family="Times,serif" font-size="14.00" fill="white">mysqlx connector python ✓</text>
</a>
</g>
</g>
<!-- bfiocpp&#45;&gt;mysqlx&#45;connector&#45;python -->
</g>
</svg>
