<?xml version="1.0" encoding="UTF-8" standalone="no"?>
<!DOCTYPE svg PUBLIC "-//W3C//DTD SVG 1.1//EN"
 "http://www.w3.org/Graphics/SVG/1.1/DTD/svg11.dtd">
<!-- Generated by graphviz version 12.2.1 (20250203.1708)
 -->
<!-- Pages: 1 -->
<svg width="1495pt" height="1096pt"
 viewBox="0.00 0.00 1495.23 1096.00" xmlns="http://www.w3.org/2000/svg" xmlns:xlink="http://www.w3.org/1999/xlink">
<g id="graph0" class="graph" transform="scale(1 1) rotate(0) translate(4 1092)">
<polygon fill="white" stroke="none" points="-4,4 -4,-1092 1491.23,-1092 1491.23,4 -4,4"/>
<!-- qgis -->
<g id="node1" class="node">
<title>qgis</title>
<g id="a_node1"><a xlink:href="https://github.com/conda-forge/qgis-feedstock/pull/511" xlink:title="qgis ❎">
<ellipse fill="#31688e" stroke="black" cx="110.66" cy="-1070" rx="47.53" ry="18"/>
<text text-anchor="middle" x="110.66" y="-1065.33" font-family="Times,serif" font-size="14.00" fill="white">qgis ❎</text>
</a>
</g>
</g>
<!-- pyaudi -->
<g id="node2" class="node">
<title>pyaudi</title>
<g id="a_node2"><a xlink:href="https://github.com/conda-forge/pyaudi-feedstock/pull/47" xlink:title="pyaudi ✓">
<ellipse fill="#31688e" stroke="black" cx="110.66" cy="-998" rx="52.79" ry="18"/>
<text text-anchor="middle" x="110.66" y="-993.33" font-family="Times,serif" font-size="14.00" fill="white">pyaudi ✓</text>
</a>
</g>
</g>
<!-- qgis&#45;&gt;pyaudi -->
<!-- tensorflow -->
<g id="node3" class="node">
<title>tensorflow</title>
<g id="a_node3"><a xlink:href="https://github.com/conda-forge/tensorflow-feedstock/pull/424" xlink:title="tensorflow ❎">
<ellipse fill="#31688e" stroke="black" cx="110.66" cy="-926" rx="79.09" ry="18"/>
<text text-anchor="middle" x="110.66" y="-921.33" font-family="Times,serif" font-size="14.00" fill="white">tensorflow ❎</text>
</a>
</g>
</g>
<!-- pyaudi&#45;&gt;tensorflow -->
<!-- mongodb -->
<g id="node4" class="node">
<title>mongodb</title>
<g id="a_node4"><a xlink:href="https://github.com/conda-forge/mongodb-feedstock/pull/101" xlink:title="mongodb ❎">
<ellipse fill="#31688e" stroke="black" cx="110.66" cy="-854" rx="72.78" ry="18"/>
<text text-anchor="middle" x="110.66" y="-849.33" font-family="Times,serif" font-size="14.00" fill="white">mongodb ❎</text>
</a>
</g>
</g>
<!-- tensorflow&#45;&gt;mongodb -->
<!-- google&#45;cloud&#45;cpp -->
<g id="node5" class="node">
<title>google&#45;cloud&#45;cpp</title>
<g id="a_node5"><a xlink:href="https://github.com/conda-forge/google-cloud-cpp-feedstock/pull/196" xlink:title="google cloud cpp ❎">
<ellipse fill="#31688e" stroke="black" cx="110.66" cy="-782" rx="110.66" ry="18"/>
<text text-anchor="middle" x="110.66" y="-777.33" font-family="Times,serif" font-size="14.00" fill="white">google cloud cpp ❎</text>
</a>
</g>
</g>
<!-- mongodb&#45;&gt;google&#45;cloud&#45;cpp -->
<!-- go&#45;cockroach -->
<g id="node14" class="node">
<title>go&#45;cockroach</title>
<g id="a_node14"><a xlink:href="https://github.com/conda-forge/go-cockroach-feedstock/pull/32" xlink:title="go cockroach ❎">
<ellipse fill="#31688e" stroke="black" cx="110.66" cy="-710" rx="91.72" ry="18"/>
<text text-anchor="middle" x="110.66" y="-705.33" font-family="Times,serif" font-size="14.00" fill="white">go cockroach ❎</text>
</a>
</g>
</g>
<!-- google&#45;cloud&#45;cpp&#45;&gt;go&#45;cockroach -->
<!-- libignition&#45;transport4 -->
<g id="node6" class="node">
<title>libignition&#45;transport4</title>
<g id="a_node6"><a xlink:href="https://github.com/conda-forge/libignition-transport4-feedstock/pull/106" xlink:title="libignition transport4 ✓">
<ellipse fill="#31688e" stroke="black" cx="775.66" cy="-818" rx="126.97" ry="18"/>
<text text-anchor="middle" x="775.66" y="-813.33" font-family="Times,serif" font-size="14.00" fill="white">libignition transport4 ✓</text>
</a>
</g>
</g>
<!-- libignition&#45;sensors -->
<g id="node7" class="node">
<title>libignition&#45;sensors</title>
<g id="a_node7"><a xlink:href="https://github.com/conda-forge/libignition-sensors-feedstock" xlink:title="libignition sensors">
<ellipse fill="#fde725" stroke="black" cx="589.66" cy="-746" rx="103.82" ry="18"/>
<text text-anchor="middle" x="589.66" y="-741.33" font-family="Times,serif" font-size="14.00">libignition sensors</text>
</a>
</g>
</g>
<!-- libignition&#45;transport4&#45;&gt;libignition&#45;sensors -->
<g id="edge5" class="edge">
<title>libignition&#45;transport4&#45;&gt;libignition&#45;sensors</title>
<path fill="none" stroke="black" d="M732.52,-800.76C705.68,-790.67 670.99,-777.61 642.5,-766.89"/>
<polygon fill="black" stroke="black" points="643.93,-763.69 633.34,-763.44 641.47,-770.24 643.93,-763.69"/>
</g>
<!-- libignition&#45;gui -->
<g id="node8" class="node">
<title>libignition&#45;gui</title>
<g id="a_node8"><a xlink:href="https://github.com/conda-forge/libignition-gui-feedstock" xlink:title="libignition gui">
<ellipse fill="#fde725" stroke="black" cx="830.66" cy="-746" rx="81.2" ry="18"/>
<text text-anchor="middle" x="830.66" y="-741.33" font-family="Times,serif" font-size="14.00">libignition gui</text>
</a>
</g>
</g>
<!-- libignition&#45;transport4&#45;&gt;libignition&#45;gui -->
<g id="edge6" class="edge">
<title>libignition&#45;transport4&#45;&gt;libignition&#45;gui</title>
<path fill="none" stroke="black" d="M789.25,-799.7C795.58,-791.64 803.24,-781.89 810.24,-772.98"/>
<polygon fill="black" stroke="black" points="812.86,-775.32 816.28,-765.29 807.35,-771 812.86,-775.32"/>
</g>
<!-- libignition&#45;gazebo -->
<g id="node9" class="node">
<title>libignition&#45;gazebo</title>
<g id="a_node9"><a xlink:href="https://github.com/conda-forge/libignition-gazebo-feedstock" xlink:title="libignition gazebo">
<ellipse fill="#fde725" stroke="black" cx="711.66" cy="-674" rx="100.66" ry="18"/>
<text text-anchor="middle" x="711.66" y="-669.33" font-family="Times,serif" font-size="14.00">libignition gazebo</text>
</a>
</g>
</g>
<!-- libignition&#45;transport4&#45;&gt;libignition&#45;gazebo -->
<g id="edge7" class="edge">
<title>libignition&#45;transport4&#45;&gt;libignition&#45;gazebo</title>
<path fill="none" stroke="black" d="M762.76,-800.03C755.54,-789.96 746.79,-776.71 740.66,-764 731.22,-744.43 723.73,-721.02 718.73,-703.13"/>
<polygon fill="black" stroke="black" points="722.17,-702.47 716.2,-693.72 715.42,-704.28 722.17,-702.47"/>
</g>
<!-- libignition&#45;launch -->
<g id="node10" class="node">
<title>libignition&#45;launch</title>
<g id="a_node10"><a xlink:href="https://github.com/conda-forge/libignition-launch-feedstock" xlink:title="libignition launch">
<ellipse fill="#fde725" stroke="black" cx="840.66" cy="-602" rx="98.56" ry="18"/>
<text text-anchor="middle" x="840.66" y="-597.33" font-family="Times,serif" font-size="14.00">libignition launch</text>
</a>
</g>
</g>
<!-- libignition&#45;transport4&#45;&gt;libignition&#45;launch -->
<g id="edge8" class="edge">
<title>libignition&#45;transport4&#45;&gt;libignition&#45;launch</title>
<path fill="none" stroke="black" d="M860.92,-804.37C884.07,-796.6 906.61,-784.1 920.66,-764 951.99,-719.2 902.99,-660.33 868.93,-627.62"/>
<polygon fill="black" stroke="black" points="871.45,-625.19 861.75,-620.93 866.67,-630.31 871.45,-625.19"/>
</g>
<!-- libignition&#45;sensors&#45;&gt;libignition&#45;gazebo -->
<g id="edge9" class="edge">
<title>libignition&#45;sensors&#45;&gt;libignition&#45;gazebo</title>
<path fill="none" stroke="black" d="M618.57,-728.41C634.71,-719.15 655.04,-707.49 672.58,-697.42"/>
<polygon fill="black" stroke="black" points="674.29,-700.48 681.22,-692.47 670.8,-694.41 674.29,-700.48"/>
</g>
<!-- libignition&#45;gui&#45;&gt;libignition&#45;gazebo -->
<g id="edge10" class="edge">
<title>libignition&#45;gui&#45;&gt;libignition&#45;gazebo</title>
<path fill="none" stroke="black" d="M803.06,-728.76C787.22,-719.45 767.09,-707.61 749.76,-697.41"/>
<polygon fill="black" stroke="black" points="751.63,-694.45 741.24,-692.4 748.08,-700.49 751.63,-694.45"/>
</g>
<!-- libignition&#45;gui&#45;&gt;libignition&#45;launch -->
<g id="edge11" class="edge">
<title>libignition&#45;gui&#45;&gt;libignition&#45;launch</title>
<path fill="none" stroke="black" d="M831.88,-727.59C833.57,-703.61 836.63,-660.14 838.66,-631.42"/>
<polygon fill="black" stroke="black" points="842.14,-631.84 839.35,-621.62 835.15,-631.35 842.14,-631.84"/>
</g>
<!-- libignition&#45;gazebo&#45;&gt;libignition&#45;launch -->
<g id="edge12" class="edge">
<title>libignition&#45;gazebo&#45;&gt;libignition&#45;launch</title>
<path fill="none" stroke="black" d="M742.23,-656.41C759.58,-647 781.51,-635.1 800.26,-624.92"/>
<polygon fill="black" stroke="black" points="801.86,-628.04 808.98,-620.19 798.52,-621.89 801.86,-628.04"/>
</g>
<!-- gazebo -->
<g id="node11" class="node">
<title>gazebo</title>
<g id="a_node11"><a xlink:href="https://github.com/conda-forge/gazebo-feedstock/pull/237" xlink:title="gazebo ❎">
<ellipse fill="#31688e" stroke="black" cx="590.66" cy="-198" rx="61.73" ry="18"/>
<text text-anchor="middle" x="590.66" y="-193.32" font-family="Times,serif" font-size="14.00" fill="white">gazebo ❎</text>
</a>
</g>
</g>
<!-- gazebo&#45;yarp&#45;plugins -->
<g id="node12" class="node">
<title>gazebo&#45;yarp&#45;plugins</title>
<g id="a_node12"><a xlink:href="https://github.com/conda-forge/gazebo-yarp-plugins-feedstock" xlink:title="gazebo yarp plugins">
<ellipse fill="#fde725" stroke="black" cx="590.66" cy="-126" rx="112.24" ry="18"/>
<text text-anchor="middle" x="590.66" y="-121.33" font-family="Times,serif" font-size="14.00">gazebo yarp plugins</text>
</a>
</g>
</g>
<!-- gazebo&#45;&gt;gazebo&#45;yarp&#45;plugins -->
<g id="edge13" class="edge">
<title>gazebo&#45;&gt;gazebo&#45;yarp&#45;plugins</title>
<path fill="none" stroke="black" d="M590.66,-179.7C590.66,-172.41 590.66,-163.73 590.66,-155.54"/>
<polygon fill="black" stroke="black" points="594.16,-155.62 590.66,-145.62 587.16,-155.62 594.16,-155.62"/>
</g>
<!-- libignition&#45;fuel&#45;tools -->
<g id="node13" class="node">
<title>libignition&#45;fuel&#45;tools</title>
<g id="a_node13"><a xlink:href="https://github.com/conda-forge/libignition-fuel-tools-feedstock/pull/101" xlink:title="libignition fuel tools ✓">
<ellipse fill="#31688e" stroke="black" cx="348.66" cy="-746" rx="119.6" ry="18"/>
<text text-anchor="middle" x="348.66" y="-741.33" font-family="Times,serif" font-size="14.00" fill="white">libignition fuel tools ✓</text>
</a>
</g>
</g>
<!-- libignition&#45;fuel&#45;tools&#45;&gt;libignition&#45;gazebo -->
<g id="edge14" class="edge">
<title>libignition&#45;fuel&#45;tools&#45;&gt;libignition&#45;gazebo</title>
<path fill="none" stroke="black" d="M420.38,-731.17C481.97,-719.29 570.58,-702.2 633.87,-690"/>
<polygon fill="black" stroke="black" points="634.34,-693.47 643.5,-688.14 633.02,-686.6 634.34,-693.47"/>
</g>
<!-- ray&#45;packages -->
<g id="node15" class="node">
<title>ray&#45;packages</title>
<g id="a_node15"><a xlink:href="https://github.com/conda-forge/ray-packages-feedstock/pull/200" xlink:title="ray packages ❎">
<ellipse fill="#31688e" stroke="black" cx="110.66" cy="-638" rx="92.25" ry="18"/>
<text text-anchor="middle" x="110.66" y="-633.33" font-family="Times,serif" font-size="14.00" fill="white">ray packages ❎</text>
</a>
</g>
</g>
<!-- go&#45;cockroach&#45;&gt;ray&#45;packages -->
<!-- tomviz -->
<g id="node16" class="node">
<title>tomviz</title>
<g id="a_node16"><a xlink:href="https://github.com/conda-forge/tomviz-feedstock/pull/73" xlink:title="tomviz ❎">
<ellipse fill="#31688e" stroke="black" cx="110.66" cy="-566" rx="60.15" ry="18"/>
<text text-anchor="middle" x="110.66" y="-561.33" font-family="Times,serif" font-size="14.00" fill="white">tomviz ❎</text>
</a>
</g>
</g>
<!-- ray&#45;packages&#45;&gt;tomviz -->
<!-- protozfits -->
<g id="node17" class="node">
<title>protozfits</title>
<g id="a_node17"><a xlink:href="https://github.com/conda-forge/protozfits-feedstock/pull/48" xlink:title="protozfits ✓">
<ellipse fill="#31688e" stroke="black" cx="110.66" cy="-494" rx="66.99" ry="18"/>
<text text-anchor="middle" x="110.66" y="-489.32" font-family="Times,serif" font-size="14.00" fill="white">protozfits ✓</text>
</a>
</g>
</g>
<!-- tomviz&#45;&gt;protozfits -->
<!-- or&#45;tools -->
<g id="node18" class="node">
<title>or&#45;tools</title>
<g id="a_node18"><a xlink:href="https://github.com/conda-forge/or-tools-feedstock/pull/65" xlink:title="or tools ❎">
<ellipse fill="#31688e" stroke="black" cx="110.66" cy="-422" rx="64.36" ry="18"/>
<text text-anchor="middle" x="110.66" y="-417.32" font-family="Times,serif" font-size="14.00" fill="white">or tools ❎</text>
</a>
</g>
</g>
<!-- protozfits&#45;&gt;or&#45;tools -->
<!-- bear -->
<g id="node19" class="node">
<title>bear</title>
<g id="a_node19"><a xlink:href="https://github.com/conda-forge/bear-feedstock/pull/54" xlink:title="bear ❎">
<ellipse fill="#31688e" stroke="black" cx="110.66" cy="-350" rx="49.1" ry="18"/>
<text text-anchor="middle" x="110.66" y="-345.32" font-family="Times,serif" font-size="14.00" fill="white">bear ❎</text>
</a>
</g>
</g>
<!-- or&#45;tools&#45;&gt;bear -->
<!-- datafusion -->
<g id="node20" class="node">
<title>datafusion</title>
<g id="a_node20"><a xlink:href="https://github.com/conda-forge/datafusion-feedstock/pull/66" xlink:title="datafusion ✓">
<ellipse fill="#31688e" stroke="black" cx="110.66" cy="-306" rx="71.73" ry="18"/>
<text text-anchor="middle" x="110.66" y="-301.32" font-family="Times,serif" font-size="14.00" fill="white">datafusion ✓</text>
</a>
</g>
</g>
<!-- xilinx&#45;runtime -->
<g id="node21" class="node">
<title>xilinx&#45;runtime</title>
<g id="a_node21"><a xlink:href="https://github.com/conda-forge/xilinx-runtime-feedstock/pull/40" xlink:title="xilinx runtime ❎">
<ellipse fill="#31688e" stroke="black" cx="110.66" cy="-234" rx="96.98" ry="18"/>
<text text-anchor="middle" x="110.66" y="-229.32" font-family="Times,serif" font-size="14.00" fill="white">xilinx runtime ❎</text>
</a>
</g>
</g>
<!-- datafusion&#45;&gt;xilinx&#45;runtime -->
<!-- s2geography -->
<g id="node22" class="node">
<title>s2geography</title>
<g id="a_node22"><a xlink:href="https://github.com/conda-forge/s2geography-feedstock/pull/10" xlink:title="s2geography ❎">
<ellipse fill="#31688e" stroke="black" cx="110.66" cy="-162" rx="91.19" ry="18"/>
<text text-anchor="middle" x="110.66" y="-157.32" font-family="Times,serif" font-size="14.00" fill="white">s2geography ❎</text>
</a>
</g>
</g>
<!-- xilinx&#45;runtime&#45;&gt;s2geography -->
<!-- gnss&#45;sdr -->
<g id="node31" class="node">
<title>gnss&#45;sdr</title>
<g id="a_node31"><a xlink:href="https://github.com/conda-forge/gnss-sdr-feedstock/pull/37" xlink:title="gnss sdr ❎">
<ellipse fill="#31688e" stroke="black" cx="110.66" cy="-90" rx="69.1" ry="18"/>
<text text-anchor="middle" x="110.66" y="-85.33" font-family="Times,serif" font-size="14.00" fill="white">gnss sdr ❎</text>
</a>
</g>
</g>
<!-- s2geography&#45;&gt;gnss&#45;sdr -->
<!-- gz&#45;msgs -->
<g id="node23" class="node">
<title>gz&#45;msgs</title>
<g id="a_node23"><a xlink:href="https://github.com/conda-forge/gz-msgs-feedstock/pull/60" xlink:title="gz msgs ❎">
<ellipse fill="#31688e" stroke="black" cx="1227.66" cy="-854" rx="67.52" ry="18"/>
<text text-anchor="middle" x="1227.66" y="-849.33" font-family="Times,serif" font-size="14.00" fill="white">gz msgs ❎</text>
</a>
</g>
</g>
<!-- gz&#45;transport -->
<g id="node24" class="node">
<title>gz&#45;transport</title>
<g id="a_node24"><a xlink:href="https://github.com/conda-forge/gz-transport-feedstock" xlink:title="gz transport">
<ellipse fill="#fde725" stroke="black" cx="1126.66" cy="-782" rx="73.3" ry="18"/>
<text text-anchor="middle" x="1126.66" y="-777.33" font-family="Times,serif" font-size="14.00">gz transport</text>
</a>
</g>
</g>
<!-- gz&#45;msgs&#45;&gt;gz&#45;transport -->
<g id="edge23" class="edge">
<title>gz&#45;msgs&#45;&gt;gz&#45;transport</title>
<path fill="none" stroke="black" d="M1204.23,-836.76C1190.94,-827.55 1174.1,-815.88 1159.51,-805.77"/>
<polygon fill="black" stroke="black" points="1161.76,-803.07 1151.55,-800.25 1157.78,-808.82 1161.76,-803.07"/>
</g>
<!-- gz&#45;fuel&#45;tools -->
<g id="node25" class="node">
<title>gz&#45;fuel&#45;tools</title>
<g id="a_node25"><a xlink:href="https://github.com/conda-forge/gz-fuel-tools-feedstock" xlink:title="gz fuel tools">
<ellipse fill="#fde725" stroke="black" cx="1327.66" cy="-782" rx="72.25" ry="18"/>
<text text-anchor="middle" x="1327.66" y="-777.33" font-family="Times,serif" font-size="14.00">gz fuel tools</text>
</a>
</g>
</g>
<!-- gz&#45;msgs&#45;&gt;gz&#45;fuel&#45;tools -->
<g id="edge24" class="edge">
<title>gz&#45;msgs&#45;&gt;gz&#45;fuel&#45;tools</title>
<path fill="none" stroke="black" d="M1250.85,-836.76C1264.01,-827.55 1280.68,-815.88 1295.13,-805.77"/>
<polygon fill="black" stroke="black" points="1296.82,-808.86 1303,-800.26 1292.81,-803.13 1296.82,-808.86"/>
</g>
<!-- gz&#45;gui -->
<g id="node26" class="node">
<title>gz&#45;gui</title>
<g id="a_node26"><a xlink:href="https://github.com/conda-forge/gz-gui-feedstock" xlink:title="gz gui">
<ellipse fill="#fde725" stroke="black" cx="1025.66" cy="-710" rx="41.74" ry="18"/>
<text text-anchor="middle" x="1025.66" y="-705.33" font-family="Times,serif" font-size="14.00">gz gui</text>
</a>
</g>
</g>
<!-- gz&#45;msgs&#45;&gt;gz&#45;gui -->
<g id="edge25" class="edge">
<title>gz&#45;msgs&#45;&gt;gz&#45;gui</title>
<path fill="none" stroke="black" d="M1161.38,-850.24C1122.13,-845.05 1074.41,-831.96 1044.66,-800 1029.75,-783.99 1025.41,-759.26 1024.57,-739.93"/>
<polygon fill="black" stroke="black" points="1028.07,-739.91 1024.46,-729.95 1021.07,-739.98 1028.07,-739.91"/>
</g>
<!-- gz&#45;sensors -->
<g id="node27" class="node">
<title>gz&#45;sensors</title>
<g id="a_node27"><a xlink:href="https://github.com/conda-forge/gz-sensors-feedstock" xlink:title="gz sensors">
<ellipse fill="#fde725" stroke="black" cx="1263.66" cy="-710" rx="64.36" ry="18"/>
<text text-anchor="middle" x="1263.66" y="-705.33" font-family="Times,serif" font-size="14.00">gz sensors</text>
</a>
</g>
</g>
<!-- gz&#45;msgs&#45;&gt;gz&#45;sensors -->
<g id="edge26" class="edge">
<title>gz&#45;msgs&#45;&gt;gz&#45;sensors</title>
<path fill="none" stroke="black" d="M1230.8,-835.82C1234.21,-817.8 1240.07,-788.73 1246.66,-764 1248.86,-755.75 1251.56,-746.88 1254.16,-738.8"/>
<polygon fill="black" stroke="black" points="1257.43,-740.09 1257.23,-729.49 1250.78,-737.9 1257.43,-740.09"/>
</g>
<!-- gz&#45;sim -->
<g id="node28" class="node">
<title>gz&#45;sim</title>
<g id="a_node28"><a xlink:href="https://github.com/conda-forge/gz-sim-feedstock" xlink:title="gz sim">
<ellipse fill="#fde725" stroke="black" cx="1238.66" cy="-638" rx="43.84" ry="18"/>
<text text-anchor="middle" x="1238.66" y="-633.33" font-family="Times,serif" font-size="14.00">gz sim</text>
</a>
</g>
</g>
<!-- gz&#45;msgs&#45;&gt;gz&#45;sim -->
<g id="edge27" class="edge">
<title>gz&#45;msgs&#45;&gt;gz&#45;sim</title>
<path fill="none" stroke="black" d="M1284.23,-843.99C1331.52,-835.16 1393.59,-820.11 1408.66,-800 1441.72,-755.86 1355.72,-692.86 1354.66,-692 1333.76,-675.17 1306.66,-662.4 1283.91,-653.62"/>
<polygon fill="black" stroke="black" points="1285.14,-650.34 1274.55,-650.15 1282.71,-656.91 1285.14,-650.34"/>
</g>
<!-- gz&#45;launch -->
<g id="node29" class="node">
<title>gz&#45;launch</title>
<g id="a_node29"><a xlink:href="https://github.com/conda-forge/gz-launch-feedstock" xlink:title="gz launch">
<ellipse fill="#fde725" stroke="black" cx="1038.66" cy="-566" rx="59.1" ry="18"/>
<text text-anchor="middle" x="1038.66" y="-561.33" font-family="Times,serif" font-size="14.00">gz launch</text>
</a>
</g>
</g>
<!-- gz&#45;msgs&#45;&gt;gz&#45;launch -->
<g id="edge28" class="edge">
<title>gz&#45;msgs&#45;&gt;gz&#45;launch</title>
<path fill="none" stroke="black" d="M1163.43,-848.07C1120.59,-842.12 1064.79,-828.98 1023.66,-800 992.01,-777.71 986.05,-764.99 974.66,-728 959.57,-679.02 992.91,-623.93 1016.91,-592.55"/>
<polygon fill="black" stroke="black" points="1019.58,-594.8 1023.05,-584.79 1014.1,-590.46 1019.58,-594.8"/>
</g>
<!-- gz&#45;sim&#45;yarp&#45;plugins -->
<g id="node30" class="node">
<title>gz&#45;sim&#45;yarp&#45;plugins</title>
<g id="a_node30"><a xlink:href="https://github.com/conda-forge/gz-sim-yarp-plugins-feedstock" xlink:title="gz sim yarp plugins">
<ellipse fill="#fde725" stroke="black" cx="1238.66" cy="-566" rx="109.61" ry="18"/>
<text text-anchor="middle" x="1238.66" y="-561.33" font-family="Times,serif" font-size="14.00">gz sim yarp plugins</text>
</a>
</g>
</g>
<!-- gz&#45;msgs&#45;&gt;gz&#45;sim&#45;yarp&#45;plugins -->
<g id="edge29" class="edge">
<title>gz&#45;msgs&#45;&gt;gz&#45;sim&#45;yarp&#45;plugins</title>
<path fill="none" stroke="black" d="M1287.25,-845.18C1339.49,-836.96 1409.67,-822.11 1426.66,-800 1487.23,-721.18 1352.37,-630.08 1280.28,-589.05"/>
<polygon fill="black" stroke="black" points="1282.3,-586.17 1271.87,-584.34 1278.88,-592.28 1282.3,-586.17"/>
</g>
<!-- gz&#45;transport&#45;&gt;gz&#45;gui -->
<g id="edge30" class="edge">
<title>gz&#45;transport&#45;&gt;gz&#45;gui</title>
<path fill="none" stroke="black" d="M1102.98,-764.59C1089.11,-754.97 1071.43,-742.73 1056.49,-732.37"/>
<polygon fill="black" stroke="black" points="1058.58,-729.56 1048.37,-726.74 1054.59,-735.31 1058.58,-729.56"/>
</g>
<!-- gz&#45;transport&#45;&gt;gz&#45;sensors -->
<g id="edge31" class="edge">
<title>gz&#45;transport&#45;&gt;gz&#45;sensors</title>
<path fill="none" stroke="black" d="M1157.4,-765.29C1177.07,-755.24 1202.76,-742.12 1223.96,-731.28"/>
<polygon fill="black" stroke="black" points="1225.3,-734.53 1232.61,-726.86 1222.11,-728.3 1225.3,-734.53"/>
</g>
<!-- gz&#45;transport&#45;&gt;gz&#45;sim -->
<g id="edge32" class="edge">
<title>gz&#45;transport&#45;&gt;gz&#45;sim</title>
<path fill="none" stroke="black" d="M1138.14,-763.85C1150.55,-745.61 1171.16,-716.13 1190.66,-692 1198.38,-682.44 1207.31,-672.35 1215.36,-663.57"/>
<polygon fill="black" stroke="black" points="1217.77,-666.11 1222,-656.4 1212.64,-661.35 1217.77,-666.11"/>
</g>
<!-- gz&#45;transport&#45;&gt;gz&#45;launch -->
<g id="edge33" class="edge">
<title>gz&#45;transport&#45;&gt;gz&#45;launch</title>
<path fill="none" stroke="black" d="M1119.61,-763.85C1104.42,-726.91 1068.49,-639.55 1050.04,-594.67"/>
<polygon fill="black" stroke="black" points="1053.36,-593.55 1046.32,-585.63 1046.89,-596.21 1053.36,-593.55"/>
</g>
<!-- gz&#45;transport&#45;&gt;gz&#45;sim&#45;yarp&#45;plugins -->
<g id="edge34" class="edge">
<title>gz&#45;transport&#45;&gt;gz&#45;sim&#45;yarp&#45;plugins</title>
<path fill="none" stroke="black" d="M1130.33,-763.92C1137.46,-733.27 1155.22,-667.67 1185.66,-620 1192.12,-609.88 1200.81,-600.17 1209.28,-591.9"/>
<polygon fill="black" stroke="black" points="1211.56,-594.55 1216.48,-585.16 1206.78,-589.44 1211.56,-594.55"/>
</g>
<!-- gz&#45;fuel&#45;tools&#45;&gt;gz&#45;sim -->
<g id="edge35" class="edge">
<title>gz&#45;fuel&#45;tools&#45;&gt;gz&#45;sim</title>
<path fill="none" stroke="black" d="M1335.24,-763.6C1342.25,-744.62 1349.78,-714.01 1336.66,-692 1325.46,-673.21 1305.04,-660.68 1285.72,-652.55"/>
<polygon fill="black" stroke="black" points="1287.17,-649.36 1276.59,-649.01 1284.65,-655.89 1287.17,-649.36"/>
</g>
<!-- gz&#45;gui&#45;&gt;gz&#45;sim -->
<g id="edge36" class="edge">
<title>gz&#45;gui&#45;&gt;gz&#45;sim</title>
<path fill="none" stroke="black" d="M1058.01,-698.37C1094.47,-686.39 1153.94,-666.84 1194.62,-653.47"/>
<polygon fill="black" stroke="black" points="1195.46,-656.88 1203.86,-650.44 1193.27,-650.23 1195.46,-656.88"/>
</g>
<!-- gz&#45;gui&#45;&gt;gz&#45;launch -->
<g id="edge37" class="edge">
<title>gz&#45;gui&#45;&gt;gz&#45;launch</title>
<path fill="none" stroke="black" d="M1027.25,-691.59C1029.45,-667.61 1033.43,-624.14 1036.06,-595.42"/>
<polygon fill="black" stroke="black" points="1039.53,-595.9 1036.95,-585.62 1032.56,-595.26 1039.53,-595.9"/>
</g>
<!-- gz&#45;sensors&#45;&gt;gz&#45;sim -->
<g id="edge38" class="edge">
<title>gz&#45;sensors&#45;&gt;gz&#45;sim</title>
<path fill="none" stroke="black" d="M1257.48,-691.7C1254.78,-684.15 1251.56,-675.12 1248.54,-666.68"/>
<polygon fill="black" stroke="black" points="1251.94,-665.77 1245.28,-657.53 1245.34,-668.12 1251.94,-665.77"/>
</g>
<!-- gz&#45;sim&#45;&gt;gz&#45;launch -->
<g id="edge39" class="edge">
<title>gz&#45;sim&#45;&gt;gz&#45;launch</title>
<path fill="none" stroke="black" d="M1206.08,-625.6C1173.74,-614.28 1123.79,-596.8 1086.86,-583.87"/>
<polygon fill="black" stroke="black" points="1088.36,-580.69 1077.77,-580.69 1086.05,-587.3 1088.36,-580.69"/>
</g>
<!-- gz&#45;sim&#45;&gt;gz&#45;sim&#45;yarp&#45;plugins -->
<g id="edge40" class="edge">
<title>gz&#45;sim&#45;&gt;gz&#45;sim&#45;yarp&#45;plugins</title>
<path fill="none" stroke="black" d="M1238.66,-619.7C1238.66,-612.41 1238.66,-603.73 1238.66,-595.54"/>
<polygon fill="black" stroke="black" points="1242.16,-595.62 1238.66,-585.62 1235.16,-595.62 1242.16,-595.62"/>
</g>
<!-- bfiocpp -->
<g id="node32" class="node">
<title>bfiocpp</title>
<g id="a_node32"><a xlink:href="https://github.com/conda-forge/bfiocpp-feedstock/pull/14" xlink:title="bfiocpp ✓">
<ellipse fill="#31688e" stroke="black" cx="110.66" cy="-18" rx="55.42" ry="18"/>
<text text-anchor="middle" x="110.66" y="-13.32" font-family="Times,serif" font-size="14.00" fill="white">bfiocpp ✓</text>
</a>
</g>
</g>
<!-- gnss&#45;sdr&#45;&gt;bfiocpp -->
</g>
</svg>
