<?xml version="1.0" encoding="UTF-8" standalone="no"?>
<!DOCTYPE svg PUBLIC "-//W3C//DTD SVG 1.1//EN"
 "http://www.w3.org/Graphics/SVG/1.1/DTD/svg11.dtd">
<!-- Generated by graphviz version 12.2.1 (20250203.1708)
 -->
<!-- Pages: 1 -->
<svg width="1499pt" height="880pt"
 viewBox="0.00 0.00 1498.81 880.00" xmlns="http://www.w3.org/2000/svg" xmlns:xlink="http://www.w3.org/1999/xlink">
<g id="graph0" class="graph" transform="scale(1 1) rotate(0) translate(4 876)">
<polygon fill="white" stroke="none" points="-4,4 -4,-876 1494.81,-876 1494.81,4 -4,4"/>
<!-- pyaudi -->
<g id="node1" class="node">
<title>pyaudi</title>
<g id="a_node1"><a xlink:href="https://github.com/conda-forge/pyaudi-feedstock/pull/47" xlink:title="pyaudi ✓">
<ellipse fill="#31688e" stroke="black" cx="112.24" cy="-854" rx="52.79" ry="18"/>
<text text-anchor="middle" x="112.24" y="-849.33" font-family="Times,serif" font-size="14.00" fill="white">pyaudi ✓</text>
</a>
</g>
</g>
<!-- tensorflow -->
<g id="node2" class="node">
<title>tensorflow</title>
<g id="a_node2"><a xlink:href="https://github.com/conda-forge/tensorflow-feedstock/pull/424" xlink:title="tensorflow ❎">
<ellipse fill="#31688e" stroke="black" cx="112.24" cy="-782" rx="79.09" ry="18"/>
<text text-anchor="middle" x="112.24" y="-777.33" font-family="Times,serif" font-size="14.00" fill="white">tensorflow ❎</text>
</a>
</g>
</g>
<!-- pyaudi&#45;&gt;tensorflow -->
<!-- mongodb -->
<g id="node3" class="node">
<title>mongodb</title>
<g id="a_node3"><a xlink:href="https://github.com/conda-forge/mongodb-feedstock/pull/101" xlink:title="mongodb ❎">
<ellipse fill="#31688e" stroke="black" cx="112.24" cy="-710" rx="72.78" ry="18"/>
<text text-anchor="middle" x="112.24" y="-705.33" font-family="Times,serif" font-size="14.00" fill="white">mongodb ❎</text>
</a>
</g>
</g>
<!-- tensorflow&#45;&gt;mongodb -->
<!-- google&#45;cloud&#45;cpp -->
<g id="node4" class="node">
<title>google&#45;cloud&#45;cpp</title>
<g id="a_node4"><a xlink:href="https://github.com/conda-forge/google-cloud-cpp-feedstock/pull/196" xlink:title="google cloud cpp ❎">
<ellipse fill="#31688e" stroke="black" cx="112.24" cy="-638" rx="110.66" ry="18"/>
<text text-anchor="middle" x="112.24" y="-633.33" font-family="Times,serif" font-size="14.00" fill="white">google cloud cpp ❎</text>
</a>
</g>
</g>
<!-- mongodb&#45;&gt;google&#45;cloud&#45;cpp -->
<!-- go&#45;cockroach -->
<g id="node13" class="node">
<title>go&#45;cockroach</title>
<g id="a_node13"><a xlink:href="https://github.com/conda-forge/go-cockroach-feedstock/pull/32" xlink:title="go cockroach ❎">
<ellipse fill="#31688e" stroke="black" cx="112.24" cy="-566" rx="91.72" ry="18"/>
<text text-anchor="middle" x="112.24" y="-561.33" font-family="Times,serif" font-size="14.00" fill="white">go cockroach ❎</text>
</a>
</g>
</g>
<!-- google&#45;cloud&#45;cpp&#45;&gt;go&#45;cockroach -->
<!-- libignition&#45;transport4 -->
<g id="node5" class="node">
<title>libignition&#45;transport4</title>
<g id="a_node5"><a xlink:href="https://github.com/conda-forge/libignition-transport4-feedstock/pull/106" xlink:title="libignition transport4 ✓">
<ellipse fill="#31688e" stroke="black" cx="779.24" cy="-602" rx="126.97" ry="18"/>
<text text-anchor="middle" x="779.24" y="-597.33" font-family="Times,serif" font-size="14.00" fill="white">libignition transport4 ✓</text>
</a>
</g>
</g>
<!-- libignition&#45;sensors -->
<g id="node6" class="node">
<title>libignition&#45;sensors</title>
<g id="a_node6"><a xlink:href="https://github.com/conda-forge/libignition-sensors-feedstock" xlink:title="libignition sensors">
<ellipse fill="#fde725" stroke="black" cx="593.24" cy="-530" rx="103.82" ry="18"/>
<text text-anchor="middle" x="593.24" y="-525.33" font-family="Times,serif" font-size="14.00">libignition sensors</text>
</a>
</g>
</g>
<!-- libignition&#45;transport4&#45;&gt;libignition&#45;sensors -->
<g id="edge4" class="edge">
<title>libignition&#45;transport4&#45;&gt;libignition&#45;sensors</title>
<path fill="none" stroke="black" d="M736.1,-584.76C709.26,-574.67 674.56,-561.61 646.08,-550.89"/>
<polygon fill="black" stroke="black" points="647.51,-547.69 636.92,-547.44 645.04,-554.24 647.51,-547.69"/>
</g>
<!-- libignition&#45;gui -->
<g id="node7" class="node">
<title>libignition&#45;gui</title>
<g id="a_node7"><a xlink:href="https://github.com/conda-forge/libignition-gui-feedstock" xlink:title="libignition gui">
<ellipse fill="#fde725" stroke="black" cx="834.24" cy="-530" rx="81.2" ry="18"/>
<text text-anchor="middle" x="834.24" y="-525.33" font-family="Times,serif" font-size="14.00">libignition gui</text>
</a>
</g>
</g>
<!-- libignition&#45;transport4&#45;&gt;libignition&#45;gui -->
<g id="edge5" class="edge">
<title>libignition&#45;transport4&#45;&gt;libignition&#45;gui</title>
<path fill="none" stroke="black" d="M792.83,-583.7C799.16,-575.64 806.82,-565.89 813.82,-556.98"/>
<polygon fill="black" stroke="black" points="816.44,-559.32 819.86,-549.29 810.93,-555 816.44,-559.32"/>
</g>
<!-- libignition&#45;gazebo -->
<g id="node8" class="node">
<title>libignition&#45;gazebo</title>
<g id="a_node8"><a xlink:href="https://github.com/conda-forge/libignition-gazebo-feedstock" xlink:title="libignition gazebo">
<ellipse fill="#fde725" stroke="black" cx="715.24" cy="-458" rx="100.66" ry="18"/>
<text text-anchor="middle" x="715.24" y="-453.32" font-family="Times,serif" font-size="14.00">libignition gazebo</text>
</a>
</g>
</g>
<!-- libignition&#45;transport4&#45;&gt;libignition&#45;gazebo -->
<g id="edge6" class="edge">
<title>libignition&#45;transport4&#45;&gt;libignition&#45;gazebo</title>
<path fill="none" stroke="black" d="M766.34,-584.03C759.12,-573.96 750.37,-560.71 744.24,-548 734.8,-528.43 727.31,-505.02 722.31,-487.13"/>
<polygon fill="black" stroke="black" points="725.75,-486.47 719.78,-477.72 718.99,-488.28 725.75,-486.47"/>
</g>
<!-- libignition&#45;launch -->
<g id="node9" class="node">
<title>libignition&#45;launch</title>
<g id="a_node9"><a xlink:href="https://github.com/conda-forge/libignition-launch-feedstock" xlink:title="libignition launch">
<ellipse fill="#fde725" stroke="black" cx="844.24" cy="-386" rx="98.56" ry="18"/>
<text text-anchor="middle" x="844.24" y="-381.32" font-family="Times,serif" font-size="14.00">libignition launch</text>
</a>
</g>
</g>
<!-- libignition&#45;transport4&#45;&gt;libignition&#45;launch -->
<g id="edge7" class="edge">
<title>libignition&#45;transport4&#45;&gt;libignition&#45;launch</title>
<path fill="none" stroke="black" d="M864.5,-588.37C887.65,-580.6 910.18,-568.1 924.24,-548 955.56,-503.2 906.57,-444.33 872.51,-411.62"/>
<polygon fill="black" stroke="black" points="875.03,-409.19 865.33,-404.93 870.25,-414.31 875.03,-409.19"/>
</g>
<!-- libignition&#45;sensors&#45;&gt;libignition&#45;gazebo -->
<g id="edge8" class="edge">
<title>libignition&#45;sensors&#45;&gt;libignition&#45;gazebo</title>
<path fill="none" stroke="black" d="M622.15,-512.41C638.29,-503.15 658.62,-491.49 676.16,-481.42"/>
<polygon fill="black" stroke="black" points="677.87,-484.48 684.8,-476.47 674.38,-478.41 677.87,-484.48"/>
</g>
<!-- libignition&#45;gui&#45;&gt;libignition&#45;gazebo -->
<g id="edge9" class="edge">
<title>libignition&#45;gui&#45;&gt;libignition&#45;gazebo</title>
<path fill="none" stroke="black" d="M806.64,-512.76C790.8,-503.45 770.67,-491.61 753.34,-481.41"/>
<polygon fill="black" stroke="black" points="755.21,-478.45 744.82,-476.4 751.66,-484.49 755.21,-478.45"/>
</g>
<!-- libignition&#45;gui&#45;&gt;libignition&#45;launch -->
<g id="edge10" class="edge">
<title>libignition&#45;gui&#45;&gt;libignition&#45;launch</title>
<path fill="none" stroke="black" d="M835.46,-511.59C837.15,-487.61 840.21,-444.14 842.24,-415.42"/>
<polygon fill="black" stroke="black" points="845.71,-415.84 842.93,-405.62 838.73,-415.35 845.71,-415.84"/>
</g>
<!-- libignition&#45;gazebo&#45;&gt;libignition&#45;launch -->
<g id="edge11" class="edge">
<title>libignition&#45;gazebo&#45;&gt;libignition&#45;launch</title>
<path fill="none" stroke="black" d="M745.81,-440.41C763.16,-431 785.09,-419.1 803.84,-408.92"/>
<polygon fill="black" stroke="black" points="805.44,-412.04 812.56,-404.19 802.1,-405.89 805.44,-412.04"/>
</g>
<!-- gazebo -->
<g id="node10" class="node">
<title>gazebo</title>
<g id="a_node10"><a xlink:href="https://github.com/conda-forge/gazebo-feedstock/pull/237" xlink:title="gazebo ❎">
<ellipse fill="#31688e" stroke="black" cx="112.24" cy="-90" rx="61.73" ry="18"/>
<text text-anchor="middle" x="112.24" y="-85.33" font-family="Times,serif" font-size="14.00" fill="white">gazebo ❎</text>
</a>
</g>
</g>
<!-- gazebo&#45;yarp&#45;plugins -->
<g id="node11" class="node">
<title>gazebo&#45;yarp&#45;plugins</title>
<g id="a_node11"><a xlink:href="https://github.com/conda-forge/gazebo-yarp-plugins-feedstock" xlink:title="gazebo yarp plugins">
<ellipse fill="#fde725" stroke="black" cx="112.24" cy="-18" rx="112.24" ry="18"/>
<text text-anchor="middle" x="112.24" y="-13.32" font-family="Times,serif" font-size="14.00">gazebo yarp plugins</text>
</a>
</g>
</g>
<!-- gazebo&#45;&gt;gazebo&#45;yarp&#45;plugins -->
<g id="edge12" class="edge">
<title>gazebo&#45;&gt;gazebo&#45;yarp&#45;plugins</title>
<path fill="none" stroke="black" d="M112.24,-71.7C112.24,-64.41 112.24,-55.73 112.24,-47.54"/>
<polygon fill="black" stroke="black" points="115.74,-47.62 112.24,-37.62 108.74,-47.62 115.74,-47.62"/>
</g>
<!-- libignition&#45;fuel&#45;tools -->
<g id="node12" class="node">
<title>libignition&#45;fuel&#45;tools</title>
<g id="a_node12"><a xlink:href="https://github.com/conda-forge/libignition-fuel-tools-feedstock/pull/101" xlink:title="libignition fuel tools ✓">
<ellipse fill="#31688e" stroke="black" cx="352.24" cy="-530" rx="119.6" ry="18"/>
<text text-anchor="middle" x="352.24" y="-525.33" font-family="Times,serif" font-size="14.00" fill="white">libignition fuel tools ✓</text>
</a>
</g>
</g>
<!-- libignition&#45;fuel&#45;tools&#45;&gt;libignition&#45;gazebo -->
<g id="edge13" class="edge">
<title>libignition&#45;fuel&#45;tools&#45;&gt;libignition&#45;gazebo</title>
<path fill="none" stroke="black" d="M423.95,-515.17C485.55,-503.29 574.16,-486.2 637.45,-474"/>
<polygon fill="black" stroke="black" points="637.92,-477.47 647.08,-472.14 636.6,-470.6 637.92,-477.47"/>
</g>
<!-- ray&#45;packages -->
<g id="node14" class="node">
<title>ray&#45;packages</title>
<g id="a_node14"><a xlink:href="https://github.com/conda-forge/ray-packages-feedstock" xlink:title="ray packages">
<ellipse fill="#35b779" stroke="black" cx="112.24" cy="-494" rx="76.99" ry="18"/>
<text text-anchor="middle" x="112.24" y="-489.32" font-family="Times,serif" font-size="14.00">ray packages</text>
</a>
</g>
</g>
<!-- go&#45;cockroach&#45;&gt;ray&#45;packages -->
<!-- tomviz -->
<g id="node15" class="node">
<title>tomviz</title>
<g id="a_node15"><a xlink:href="https://github.com/conda-forge/tomviz-feedstock/pull/73" xlink:title="tomviz ❎">
<ellipse fill="#31688e" stroke="black" cx="112.24" cy="-422" rx="60.15" ry="18"/>
<text text-anchor="middle" x="112.24" y="-417.32" font-family="Times,serif" font-size="14.00" fill="white">tomviz ❎</text>
</a>
</g>
</g>
<!-- ray&#45;packages&#45;&gt;tomviz -->
<!-- or&#45;tools -->
<g id="node16" class="node">
<title>or&#45;tools</title>
<g id="a_node16"><a xlink:href="https://github.com/conda-forge/or-tools-feedstock/pull/65" xlink:title="or tools ❎">
<ellipse fill="#31688e" stroke="black" cx="112.24" cy="-350" rx="64.36" ry="18"/>
<text text-anchor="middle" x="112.24" y="-345.32" font-family="Times,serif" font-size="14.00" fill="white">or tools ❎</text>
</a>
</g>
</g>
<!-- tomviz&#45;&gt;or&#45;tools -->
<!-- bear -->
<g id="node17" class="node">
<title>bear</title>
<g id="a_node17"><a xlink:href="https://github.com/conda-forge/bear-feedstock/pull/54" xlink:title="bear ❎">
<ellipse fill="#31688e" stroke="black" cx="112.24" cy="-278" rx="49.1" ry="18"/>
<text text-anchor="middle" x="112.24" y="-273.32" font-family="Times,serif" font-size="14.00" fill="white">bear ❎</text>
</a>
</g>
</g>
<!-- or&#45;tools&#45;&gt;bear -->
<!-- datafusion -->
<g id="node18" class="node">
<title>datafusion</title>
<g id="a_node18"><a xlink:href="https://github.com/conda-forge/datafusion-feedstock/pull/66" xlink:title="datafusion ✓">
<ellipse fill="#31688e" stroke="black" cx="112.24" cy="-206" rx="71.73" ry="18"/>
<text text-anchor="middle" x="112.24" y="-201.33" font-family="Times,serif" font-size="14.00" fill="white">datafusion ✓</text>
</a>
</g>
</g>
<!-- bear&#45;&gt;datafusion -->
<!-- xilinx&#45;runtime -->
<g id="node19" class="node">
<title>xilinx&#45;runtime</title>
<g id="a_node19"><a xlink:href="https://github.com/conda-forge/xilinx-runtime-feedstock/pull/40" xlink:title="xilinx runtime ❎">
<ellipse fill="#31688e" stroke="black" cx="112.24" cy="-134" rx="96.98" ry="18"/>
<text text-anchor="middle" x="112.24" y="-129.32" font-family="Times,serif" font-size="14.00" fill="white">xilinx runtime ❎</text>
</a>
</g>
</g>
<!-- datafusion&#45;&gt;xilinx&#45;runtime -->
<!-- gz&#45;msgs -->
<g id="node20" class="node">
<title>gz&#45;msgs</title>
<g id="a_node20"><a xlink:href="https://github.com/conda-forge/gz-msgs-feedstock/pull/60" xlink:title="gz msgs ❎">
<ellipse fill="#31688e" stroke="black" cx="1231.24" cy="-638" rx="67.52" ry="18"/>
<text text-anchor="middle" x="1231.24" y="-633.33" font-family="Times,serif" font-size="14.00" fill="white">gz msgs ❎</text>
</a>
</g>
</g>
<!-- gz&#45;transport -->
<g id="node21" class="node">
<title>gz&#45;transport</title>
<g id="a_node21"><a xlink:href="https://github.com/conda-forge/gz-transport-feedstock" xlink:title="gz transport">
<ellipse fill="#fde725" stroke="black" cx="1130.24" cy="-566" rx="73.3" ry="18"/>
<text text-anchor="middle" x="1130.24" y="-561.33" font-family="Times,serif" font-size="14.00">gz transport</text>
</a>
</g>
</g>
<!-- gz&#45;msgs&#45;&gt;gz&#45;transport -->
<g id="edge21" class="edge">
<title>gz&#45;msgs&#45;&gt;gz&#45;transport</title>
<path fill="none" stroke="black" d="M1207.81,-620.76C1194.52,-611.55 1177.68,-599.88 1163.09,-589.77"/>
<polygon fill="black" stroke="black" points="1165.34,-587.07 1155.13,-584.25 1161.35,-592.82 1165.34,-587.07"/>
</g>
<!-- gz&#45;fuel&#45;tools -->
<g id="node22" class="node">
<title>gz&#45;fuel&#45;tools</title>
<g id="a_node22"><a xlink:href="https://github.com/conda-forge/gz-fuel-tools-feedstock" xlink:title="gz fuel tools">
<ellipse fill="#fde725" stroke="black" cx="1331.24" cy="-566" rx="72.25" ry="18"/>
<text text-anchor="middle" x="1331.24" y="-561.33" font-family="Times,serif" font-size="14.00">gz fuel tools</text>
</a>
</g>
</g>
<!-- gz&#45;msgs&#45;&gt;gz&#45;fuel&#45;tools -->
<g id="edge22" class="edge">
<title>gz&#45;msgs&#45;&gt;gz&#45;fuel&#45;tools</title>
<path fill="none" stroke="black" d="M1254.43,-620.76C1267.59,-611.55 1284.26,-599.88 1298.71,-589.77"/>
<polygon fill="black" stroke="black" points="1300.4,-592.86 1306.58,-584.26 1296.38,-587.13 1300.4,-592.86"/>
</g>
<!-- gz&#45;gui -->
<g id="node23" class="node">
<title>gz&#45;gui</title>
<g id="a_node23"><a xlink:href="https://github.com/conda-forge/gz-gui-feedstock" xlink:title="gz gui">
<ellipse fill="#fde725" stroke="black" cx="1029.24" cy="-494" rx="41.74" ry="18"/>
<text text-anchor="middle" x="1029.24" y="-489.32" font-family="Times,serif" font-size="14.00">gz gui</text>
</a>
</g>
</g>
<!-- gz&#45;msgs&#45;&gt;gz&#45;gui -->
<g id="edge23" class="edge">
<title>gz&#45;msgs&#45;&gt;gz&#45;gui</title>
<path fill="none" stroke="black" d="M1164.96,-634.24C1125.71,-629.05 1077.99,-615.96 1048.24,-584 1033.33,-567.99 1028.99,-543.26 1028.15,-523.93"/>
<polygon fill="black" stroke="black" points="1031.65,-523.91 1028.04,-513.95 1024.65,-523.98 1031.65,-523.91"/>
</g>
<!-- gz&#45;sensors -->
<g id="node24" class="node">
<title>gz&#45;sensors</title>
<g id="a_node24"><a xlink:href="https://github.com/conda-forge/gz-sensors-feedstock" xlink:title="gz sensors">
<ellipse fill="#fde725" stroke="black" cx="1267.24" cy="-494" rx="64.36" ry="18"/>
<text text-anchor="middle" x="1267.24" y="-489.32" font-family="Times,serif" font-size="14.00">gz sensors</text>
</a>
</g>
</g>
<!-- gz&#45;msgs&#45;&gt;gz&#45;sensors -->
<g id="edge24" class="edge">
<title>gz&#45;msgs&#45;&gt;gz&#45;sensors</title>
<path fill="none" stroke="black" d="M1234.38,-619.82C1237.79,-601.8 1243.65,-572.73 1250.24,-548 1252.44,-539.75 1255.14,-530.88 1257.74,-522.8"/>
<polygon fill="black" stroke="black" points="1261,-524.09 1260.81,-513.49 1254.36,-521.9 1261,-524.09"/>
</g>
<!-- gz&#45;sim -->
<g id="node25" class="node">
<title>gz&#45;sim</title>
<g id="a_node25"><a xlink:href="https://github.com/conda-forge/gz-sim-feedstock" xlink:title="gz sim">
<ellipse fill="#fde725" stroke="black" cx="1242.24" cy="-422" rx="43.84" ry="18"/>
<text text-anchor="middle" x="1242.24" y="-417.32" font-family="Times,serif" font-size="14.00">gz sim</text>
</a>
</g>
</g>
<!-- gz&#45;msgs&#45;&gt;gz&#45;sim -->
<g id="edge25" class="edge">
<title>gz&#45;msgs&#45;&gt;gz&#45;sim</title>
<path fill="none" stroke="black" d="M1287.8,-627.99C1335.1,-619.16 1397.17,-604.11 1412.24,-584 1445.3,-539.86 1359.3,-476.86 1358.24,-476 1337.34,-459.17 1310.24,-446.4 1287.48,-437.62"/>
<polygon fill="black" stroke="black" points="1288.72,-434.34 1278.13,-434.15 1286.29,-440.91 1288.72,-434.34"/>
</g>
<!-- gz&#45;launch -->
<g id="node26" class="node">
<title>gz&#45;launch</title>
<g id="a_node26"><a xlink:href="https://github.com/conda-forge/gz-launch-feedstock" xlink:title="gz launch">
<ellipse fill="#fde725" stroke="black" cx="1042.24" cy="-350" rx="59.1" ry="18"/>
<text text-anchor="middle" x="1042.24" y="-345.32" font-family="Times,serif" font-size="14.00">gz launch</text>
</a>
</g>
</g>
<!-- gz&#45;msgs&#45;&gt;gz&#45;launch -->
<g id="edge26" class="edge">
<title>gz&#45;msgs&#45;&gt;gz&#45;launch</title>
<path fill="none" stroke="black" d="M1167.01,-632.07C1124.17,-626.12 1068.37,-612.98 1027.24,-584 995.59,-561.71 989.63,-548.99 978.24,-512 963.15,-463.02 996.49,-407.93 1020.48,-376.55"/>
<polygon fill="black" stroke="black" points="1023.16,-378.8 1026.63,-368.79 1017.67,-374.46 1023.16,-378.8"/>
</g>
<!-- gz&#45;sim&#45;yarp&#45;plugins -->
<g id="node27" class="node">
<title>gz&#45;sim&#45;yarp&#45;plugins</title>
<g id="a_node27"><a xlink:href="https://github.com/conda-forge/gz-sim-yarp-plugins-feedstock" xlink:title="gz sim yarp plugins">
<ellipse fill="#fde725" stroke="black" cx="1242.24" cy="-350" rx="109.61" ry="18"/>
<text text-anchor="middle" x="1242.24" y="-345.32" font-family="Times,serif" font-size="14.00">gz sim yarp plugins</text>
</a>
</g>
</g>
<!-- gz&#45;msgs&#45;&gt;gz&#45;sim&#45;yarp&#45;plugins -->
<g id="edge27" class="edge">
<title>gz&#45;msgs&#45;&gt;gz&#45;sim&#45;yarp&#45;plugins</title>
<path fill="none" stroke="black" d="M1290.83,-629.18C1343.06,-620.96 1413.24,-606.11 1430.24,-584 1490.81,-505.18 1355.95,-414.08 1283.85,-373.05"/>
<polygon fill="black" stroke="black" points="1285.88,-370.17 1275.45,-368.34 1282.46,-376.28 1285.88,-370.17"/>
</g>
<!-- gz&#45;transport&#45;&gt;gz&#45;gui -->
<g id="edge28" class="edge">
<title>gz&#45;transport&#45;&gt;gz&#45;gui</title>
<path fill="none" stroke="black" d="M1106.56,-548.59C1092.69,-538.97 1075.01,-526.73 1060.07,-516.37"/>
<polygon fill="black" stroke="black" points="1062.16,-513.56 1051.95,-510.74 1058.17,-519.31 1062.16,-513.56"/>
</g>
<!-- gz&#45;transport&#45;&gt;gz&#45;sensors -->
<g id="edge29" class="edge">
<title>gz&#45;transport&#45;&gt;gz&#45;sensors</title>
<path fill="none" stroke="black" d="M1160.98,-549.29C1180.64,-539.24 1206.34,-526.12 1227.54,-515.28"/>
<polygon fill="black" stroke="black" points="1228.88,-518.53 1236.19,-510.86 1225.69,-512.3 1228.88,-518.53"/>
</g>
<!-- gz&#45;transport&#45;&gt;gz&#45;sim -->
<g id="edge30" class="edge">
<title>gz&#45;transport&#45;&gt;gz&#45;sim</title>
<path fill="none" stroke="black" d="M1141.72,-547.85C1154.12,-529.61 1174.74,-500.13 1194.24,-476 1201.96,-466.44 1210.89,-456.35 1218.94,-447.57"/>
<polygon fill="black" stroke="black" points="1221.35,-450.11 1225.58,-440.4 1216.22,-445.35 1221.35,-450.11"/>
</g>
<!-- gz&#45;transport&#45;&gt;gz&#45;launch -->
<g id="edge31" class="edge">
<title>gz&#45;transport&#45;&gt;gz&#45;launch</title>
<path fill="none" stroke="black" d="M1123.18,-547.85C1107.99,-510.91 1072.07,-423.55 1053.62,-378.67"/>
<polygon fill="black" stroke="black" points="1056.94,-377.55 1049.9,-369.63 1050.47,-380.21 1056.94,-377.55"/>
</g>
<!-- gz&#45;transport&#45;&gt;gz&#45;sim&#45;yarp&#45;plugins -->
<g id="edge32" class="edge">
<title>gz&#45;transport&#45;&gt;gz&#45;sim&#45;yarp&#45;plugins</title>
<path fill="none" stroke="black" d="M1133.91,-547.92C1141.04,-517.27 1158.79,-451.67 1189.24,-404 1195.7,-393.88 1204.38,-384.17 1212.85,-375.9"/>
<polygon fill="black" stroke="black" points="1215.14,-378.55 1220.06,-369.16 1210.36,-373.44 1215.14,-378.55"/>
</g>
<!-- gz&#45;fuel&#45;tools&#45;&gt;gz&#45;sim -->
<g id="edge33" class="edge">
<title>gz&#45;fuel&#45;tools&#45;&gt;gz&#45;sim</title>
<path fill="none" stroke="black" d="M1338.81,-547.6C1345.83,-528.62 1353.36,-498.01 1340.24,-476 1329.04,-457.21 1308.62,-444.68 1289.3,-436.55"/>
<polygon fill="black" stroke="black" points="1290.75,-433.36 1280.16,-433.01 1288.23,-439.89 1290.75,-433.36"/>
</g>
<!-- gz&#45;gui&#45;&gt;gz&#45;sim -->
<g id="edge34" class="edge">
<title>gz&#45;gui&#45;&gt;gz&#45;sim</title>
<path fill="none" stroke="black" d="M1061.59,-482.37C1098.05,-470.39 1157.52,-450.84 1198.2,-437.47"/>
<polygon fill="black" stroke="black" points="1199.03,-440.88 1207.44,-434.44 1196.85,-434.23 1199.03,-440.88"/>
</g>
<!-- gz&#45;gui&#45;&gt;gz&#45;launch -->
<g id="edge35" class="edge">
<title>gz&#45;gui&#45;&gt;gz&#45;launch</title>
<path fill="none" stroke="black" d="M1030.83,-475.59C1033.03,-451.61 1037.01,-408.14 1039.64,-379.42"/>
<polygon fill="black" stroke="black" points="1043.11,-379.9 1040.53,-369.62 1036.14,-379.26 1043.11,-379.9"/>
</g>
<!-- gz&#45;sensors&#45;&gt;gz&#45;sim -->
<g id="edge36" class="edge">
<title>gz&#45;sensors&#45;&gt;gz&#45;sim</title>
<path fill="none" stroke="black" d="M1261.06,-475.7C1258.36,-468.15 1255.14,-459.12 1252.12,-450.68"/>
<polygon fill="black" stroke="black" points="1255.51,-449.77 1248.85,-441.53 1248.92,-452.12 1255.51,-449.77"/>
</g>
<!-- gz&#45;sim&#45;&gt;gz&#45;launch -->
<g id="edge37" class="edge">
<title>gz&#45;sim&#45;&gt;gz&#45;launch</title>
<path fill="none" stroke="black" d="M1209.66,-409.6C1177.32,-398.28 1127.37,-380.8 1090.44,-367.87"/>
<polygon fill="black" stroke="black" points="1091.94,-364.69 1081.35,-364.69 1089.63,-371.3 1091.94,-364.69"/>
</g>
<!-- gz&#45;sim&#45;&gt;gz&#45;sim&#45;yarp&#45;plugins -->
<g id="edge38" class="edge">
<title>gz&#45;sim&#45;&gt;gz&#45;sim&#45;yarp&#45;plugins</title>
<path fill="none" stroke="black" d="M1242.24,-403.7C1242.24,-396.41 1242.24,-387.73 1242.24,-379.54"/>
<polygon fill="black" stroke="black" points="1245.74,-379.62 1242.24,-369.62 1238.74,-379.62 1245.74,-379.62"/>
</g>
<!-- bfiocpp -->
<g id="node28" class="node">
<title>bfiocpp</title>
<g id="a_node28"><a xlink:href="https://github.com/conda-forge/bfiocpp-feedstock/pull/14" xlink:title="bfiocpp ✓">
<ellipse fill="#31688e" stroke="black" cx="594.24" cy="-54" rx="55.42" ry="18"/>
<text text-anchor="middle" x="594.24" y="-49.33" font-family="Times,serif" font-size="14.00" fill="white">bfiocpp ✓</text>
</a>
</g>
</g>
</g>
</svg>
