<?xml version="1.0" encoding="UTF-8" standalone="no"?>
<!DOCTYPE svg PUBLIC "-//W3C//DTD SVG 1.1//EN"
 "http://www.w3.org/Graphics/SVG/1.1/DTD/svg11.dtd">
<!-- Generated by graphviz version 12.2.1 (20250203.1708)
 -->
<!-- Pages: 1 -->
<svg width="1970pt" height="1096pt"
 viewBox="0.00 0.00 1970.07 1096.00" xmlns="http://www.w3.org/2000/svg" xmlns:xlink="http://www.w3.org/1999/xlink">
<g id="graph0" class="graph" transform="scale(1 1) rotate(0) translate(4 1092)">
<polygon fill="white" stroke="none" points="-4,4 -4,-1092 1966.07,-1092 1966.07,4 -4,4"/>
<!-- opencv -->
<g id="node1" class="node">
<title>opencv</title>
<g id="a_node1"><a xlink:href="https://github.com/conda-forge/opencv-feedstock" xlink:title="opencv">
<ellipse fill="#fde725" stroke="black" cx="1702.08" cy="-746" rx="46.47" ry="18"/>
<text text-anchor="middle" x="1702.08" y="-741.33" font-family="Times,serif" font-size="14.00">opencv</text>
</a>
</g>
</g>
<!-- ray&#45;packages -->
<g id="node2" class="node">
<title>ray&#45;packages</title>
<g id="a_node2"><a xlink:href="https://github.com/conda-forge/ray-packages-feedstock" xlink:title="ray packages">
<ellipse fill="#fde725" stroke="black" cx="1885.08" cy="-674" rx="76.99" ry="18"/>
<text text-anchor="middle" x="1885.08" y="-669.33" font-family="Times,serif" font-size="14.00">ray packages</text>
</a>
</g>
</g>
<!-- opencv&#45;&gt;ray&#45;packages -->
<g id="edge1" class="edge">
<title>opencv&#45;&gt;ray&#45;packages</title>
<path fill="none" stroke="black" d="M1734.38,-732.65C1762.41,-721.93 1803.42,-706.24 1835.58,-693.94"/>
<polygon fill="black" stroke="black" points="1836.62,-697.29 1844.71,-690.44 1834.12,-690.75 1836.62,-697.29"/>
</g>
<!-- imp -->
<g id="node3" class="node">
<title>imp</title>
<g id="a_node3"><a xlink:href="https://github.com/conda-forge/imp-feedstock" xlink:title="imp">
<ellipse fill="#fde725" stroke="black" cx="1760.08" cy="-674" rx="30.16" ry="18"/>
<text text-anchor="middle" x="1760.08" y="-669.33" font-family="Times,serif" font-size="14.00">imp</text>
</a>
</g>
</g>
<!-- opencv&#45;&gt;imp -->
<g id="edge2" class="edge">
<title>opencv&#45;&gt;imp</title>
<path fill="none" stroke="black" d="M1715.83,-728.41C1723.04,-719.71 1732.01,-708.89 1739.98,-699.26"/>
<polygon fill="black" stroke="black" points="1742.58,-701.61 1746.27,-691.68 1737.19,-697.14 1742.58,-701.61"/>
</g>
<!-- gazebo&#45;yarp&#45;plugins -->
<g id="node4" class="node">
<title>gazebo&#45;yarp&#45;plugins</title>
<g id="a_node4"><a xlink:href="https://github.com/conda-forge/gazebo-yarp-plugins-feedstock" xlink:title="gazebo yarp plugins">
<ellipse fill="#fde725" stroke="black" cx="1562.08" cy="-674" rx="112.24" ry="18"/>
<text text-anchor="middle" x="1562.08" y="-669.33" font-family="Times,serif" font-size="14.00">gazebo yarp plugins</text>
</a>
</g>
</g>
<!-- opencv&#45;&gt;gazebo&#45;yarp&#45;plugins -->
<g id="edge3" class="edge">
<title>opencv&#45;&gt;gazebo&#45;yarp&#45;plugins</title>
<path fill="none" stroke="black" d="M1674.43,-731.17C1654.73,-721.32 1627.87,-707.89 1605.36,-696.64"/>
<polygon fill="black" stroke="black" points="1607.22,-693.66 1596.71,-692.31 1604.09,-699.92 1607.22,-693.66"/>
</g>
<!-- nvidia&#45;dali&#45;python -->
<g id="node5" class="node">
<title>nvidia&#45;dali&#45;python</title>
<g id="a_node5"><a xlink:href="https://github.com/conda-forge/nvidia-dali-python-feedstock" xlink:title="nvidia dali python">
<ellipse fill="#fde725" stroke="black" cx="1702.08" cy="-602" rx="101.19" ry="18"/>
<text text-anchor="middle" x="1702.08" y="-597.33" font-family="Times,serif" font-size="14.00">nvidia dali python</text>
</a>
</g>
</g>
<!-- opencv&#45;&gt;nvidia&#45;dali&#45;python -->
<g id="edge4" class="edge">
<title>opencv&#45;&gt;nvidia&#45;dali&#45;python</title>
<path fill="none" stroke="black" d="M1702.08,-727.59C1702.08,-703.61 1702.08,-660.14 1702.08,-631.42"/>
<polygon fill="black" stroke="black" points="1705.58,-631.62 1702.08,-621.62 1698.58,-631.62 1705.58,-631.62"/>
</g>
<!-- qgis -->
<g id="node6" class="node">
<title>qgis</title>
<g id="a_node6"><a xlink:href="https://github.com/conda-forge/qgis-feedstock/pull/511" xlink:title="qgis ❎">
<ellipse fill="#31688e" stroke="black" cx="264.08" cy="-1070" rx="47.53" ry="18"/>
<text text-anchor="middle" x="264.08" y="-1065.33" font-family="Times,serif" font-size="14.00" fill="white">qgis ❎</text>
</a>
</g>
</g>
<!-- pyaudi -->
<g id="node7" class="node">
<title>pyaudi</title>
<g id="a_node7"><a xlink:href="https://github.com/conda-forge/pyaudi-feedstock/pull/47" xlink:title="pyaudi ✓">
<ellipse fill="#31688e" stroke="black" cx="264.08" cy="-998" rx="52.79" ry="18"/>
<text text-anchor="middle" x="264.08" y="-993.33" font-family="Times,serif" font-size="14.00" fill="white">pyaudi ✓</text>
</a>
</g>
</g>
<!-- qgis&#45;&gt;pyaudi -->
<!-- tensorflow -->
<g id="node8" class="node">
<title>tensorflow</title>
<g id="a_node8"><a xlink:href="https://github.com/conda-forge/tensorflow-feedstock/pull/424" xlink:title="tensorflow ❎">
<ellipse fill="#31688e" stroke="black" cx="264.08" cy="-926" rx="79.09" ry="18"/>
<text text-anchor="middle" x="264.08" y="-921.33" font-family="Times,serif" font-size="14.00" fill="white">tensorflow ❎</text>
</a>
</g>
</g>
<!-- pyaudi&#45;&gt;tensorflow -->
<!-- mongodb -->
<g id="node9" class="node">
<title>mongodb</title>
<g id="a_node9"><a xlink:href="https://github.com/conda-forge/mongodb-feedstock/pull/101" xlink:title="mongodb ❎">
<ellipse fill="#31688e" stroke="black" cx="264.08" cy="-854" rx="72.78" ry="18"/>
<text text-anchor="middle" x="264.08" y="-849.33" font-family="Times,serif" font-size="14.00" fill="white">mongodb ❎</text>
</a>
</g>
</g>
<!-- tensorflow&#45;&gt;mongodb -->
<!-- google&#45;cloud&#45;cpp -->
<g id="node10" class="node">
<title>google&#45;cloud&#45;cpp</title>
<g id="a_node10"><a xlink:href="https://github.com/conda-forge/google-cloud-cpp-feedstock/pull/196" xlink:title="google cloud cpp ❎">
<ellipse fill="#31688e" stroke="black" cx="264.08" cy="-782" rx="110.66" ry="18"/>
<text text-anchor="middle" x="264.08" y="-777.33" font-family="Times,serif" font-size="14.00" fill="white">google cloud cpp ❎</text>
</a>
</g>
</g>
<!-- mongodb&#45;&gt;google&#45;cloud&#45;cpp -->
<!-- go&#45;cockroach -->
<g id="node18" class="node">
<title>go&#45;cockroach</title>
<g id="a_node18"><a xlink:href="https://github.com/conda-forge/go-cockroach-feedstock/pull/32" xlink:title="go cockroach ❎">
<ellipse fill="#31688e" stroke="black" cx="264.08" cy="-710" rx="91.72" ry="18"/>
<text text-anchor="middle" x="264.08" y="-705.33" font-family="Times,serif" font-size="14.00" fill="white">go cockroach ❎</text>
</a>
</g>
</g>
<!-- google&#45;cloud&#45;cpp&#45;&gt;go&#45;cockroach -->
<!-- libignition&#45;transport4 -->
<g id="node11" class="node">
<title>libignition&#45;transport4</title>
<g id="a_node11"><a xlink:href="https://github.com/conda-forge/libignition-transport4-feedstock/pull/106" xlink:title="libignition transport4 ✓">
<ellipse fill="#31688e" stroke="black" cx="1082.08" cy="-818" rx="126.97" ry="18"/>
<text text-anchor="middle" x="1082.08" y="-813.33" font-family="Times,serif" font-size="14.00" fill="white">libignition transport4 ✓</text>
</a>
</g>
</g>
<!-- libignition&#45;sensors -->
<g id="node12" class="node">
<title>libignition&#45;sensors</title>
<g id="a_node12"><a xlink:href="https://github.com/conda-forge/libignition-sensors-feedstock" xlink:title="libignition sensors">
<ellipse fill="#fde725" stroke="black" cx="896.08" cy="-746" rx="103.82" ry="18"/>
<text text-anchor="middle" x="896.08" y="-741.33" font-family="Times,serif" font-size="14.00">libignition sensors</text>
</a>
</g>
</g>
<!-- libignition&#45;transport4&#45;&gt;libignition&#45;sensors -->
<g id="edge9" class="edge">
<title>libignition&#45;transport4&#45;&gt;libignition&#45;sensors</title>
<path fill="none" stroke="black" d="M1038.94,-800.76C1012.11,-790.67 977.41,-777.61 948.93,-766.89"/>
<polygon fill="black" stroke="black" points="950.36,-763.69 939.77,-763.44 947.89,-770.24 950.36,-763.69"/>
</g>
<!-- libignition&#45;gui -->
<g id="node13" class="node">
<title>libignition&#45;gui</title>
<g id="a_node13"><a xlink:href="https://github.com/conda-forge/libignition-gui-feedstock" xlink:title="libignition gui">
<ellipse fill="#fde725" stroke="black" cx="1137.08" cy="-746" rx="81.2" ry="18"/>
<text text-anchor="middle" x="1137.08" y="-741.33" font-family="Times,serif" font-size="14.00">libignition gui</text>
</a>
</g>
</g>
<!-- libignition&#45;transport4&#45;&gt;libignition&#45;gui -->
<g id="edge10" class="edge">
<title>libignition&#45;transport4&#45;&gt;libignition&#45;gui</title>
<path fill="none" stroke="black" d="M1095.68,-799.7C1102.01,-791.64 1109.67,-781.89 1116.67,-772.98"/>
<polygon fill="black" stroke="black" points="1119.28,-775.32 1122.71,-765.29 1113.78,-771 1119.28,-775.32"/>
</g>
<!-- libignition&#45;gazebo -->
<g id="node14" class="node">
<title>libignition&#45;gazebo</title>
<g id="a_node14"><a xlink:href="https://github.com/conda-forge/libignition-gazebo-feedstock" xlink:title="libignition gazebo">
<ellipse fill="#fde725" stroke="black" cx="1018.08" cy="-674" rx="100.66" ry="18"/>
<text text-anchor="middle" x="1018.08" y="-669.33" font-family="Times,serif" font-size="14.00">libignition gazebo</text>
</a>
</g>
</g>
<!-- libignition&#45;transport4&#45;&gt;libignition&#45;gazebo -->
<g id="edge11" class="edge">
<title>libignition&#45;transport4&#45;&gt;libignition&#45;gazebo</title>
<path fill="none" stroke="black" d="M1069.18,-800.03C1061.97,-789.96 1053.22,-776.71 1047.08,-764 1037.65,-744.43 1030.16,-721.02 1025.15,-703.13"/>
<polygon fill="black" stroke="black" points="1028.6,-702.47 1022.62,-693.72 1021.84,-704.28 1028.6,-702.47"/>
</g>
<!-- libignition&#45;launch -->
<g id="node15" class="node">
<title>libignition&#45;launch</title>
<g id="a_node15"><a xlink:href="https://github.com/conda-forge/libignition-launch-feedstock" xlink:title="libignition launch">
<ellipse fill="#fde725" stroke="black" cx="1147.08" cy="-602" rx="98.56" ry="18"/>
<text text-anchor="middle" x="1147.08" y="-597.33" font-family="Times,serif" font-size="14.00">libignition launch</text>
</a>
</g>
</g>
<!-- libignition&#45;transport4&#45;&gt;libignition&#45;launch -->
<g id="edge12" class="edge">
<title>libignition&#45;transport4&#45;&gt;libignition&#45;launch</title>
<path fill="none" stroke="black" d="M1167.35,-804.37C1190.5,-796.6 1213.03,-784.1 1227.08,-764 1258.41,-719.2 1209.42,-660.33 1175.35,-627.62"/>
<polygon fill="black" stroke="black" points="1177.88,-625.19 1168.18,-620.93 1173.1,-630.31 1177.88,-625.19"/>
</g>
<!-- libignition&#45;sensors&#45;&gt;libignition&#45;gazebo -->
<g id="edge13" class="edge">
<title>libignition&#45;sensors&#45;&gt;libignition&#45;gazebo</title>
<path fill="none" stroke="black" d="M925,-728.41C941.14,-719.15 961.47,-707.49 979,-697.42"/>
<polygon fill="black" stroke="black" points="980.71,-700.48 987.64,-692.47 977.23,-694.41 980.71,-700.48"/>
</g>
<!-- libignition&#45;gui&#45;&gt;libignition&#45;gazebo -->
<g id="edge14" class="edge">
<title>libignition&#45;gui&#45;&gt;libignition&#45;gazebo</title>
<path fill="none" stroke="black" d="M1109.48,-728.76C1093.64,-719.45 1073.52,-707.61 1056.19,-697.41"/>
<polygon fill="black" stroke="black" points="1058.06,-694.45 1047.67,-692.4 1054.51,-700.49 1058.06,-694.45"/>
</g>
<!-- libignition&#45;gui&#45;&gt;libignition&#45;launch -->
<g id="edge15" class="edge">
<title>libignition&#45;gui&#45;&gt;libignition&#45;launch</title>
<path fill="none" stroke="black" d="M1138.31,-727.59C1140,-703.61 1143.06,-660.14 1145.08,-631.42"/>
<polygon fill="black" stroke="black" points="1148.56,-631.84 1145.77,-621.62 1141.58,-631.35 1148.56,-631.84"/>
</g>
<!-- libignition&#45;gazebo&#45;&gt;libignition&#45;launch -->
<g id="edge16" class="edge">
<title>libignition&#45;gazebo&#45;&gt;libignition&#45;launch</title>
<path fill="none" stroke="black" d="M1048.66,-656.41C1066.01,-647 1087.94,-635.1 1106.69,-624.92"/>
<polygon fill="black" stroke="black" points="1108.28,-628.04 1115.4,-620.19 1104.94,-621.89 1108.28,-628.04"/>
</g>
<!-- gazebo -->
<g id="node16" class="node">
<title>gazebo</title>
<g id="a_node16"><a xlink:href="https://github.com/conda-forge/gazebo-feedstock/pull/237" xlink:title="gazebo ❎">
<ellipse fill="#31688e" stroke="black" cx="1569.08" cy="-746" rx="61.73" ry="18"/>
<text text-anchor="middle" x="1569.08" y="-741.33" font-family="Times,serif" font-size="14.00" fill="white">gazebo ❎</text>
</a>
</g>
</g>
<!-- gazebo&#45;&gt;gazebo&#45;yarp&#45;plugins -->
<g id="edge17" class="edge">
<title>gazebo&#45;&gt;gazebo&#45;yarp&#45;plugins</title>
<path fill="none" stroke="black" d="M1567.35,-727.7C1566.63,-720.41 1565.76,-711.73 1564.94,-703.54"/>
<polygon fill="black" stroke="black" points="1568.42,-703.21 1563.95,-693.61 1561.46,-703.91 1568.42,-703.21"/>
</g>
<!-- libignition&#45;fuel&#45;tools -->
<g id="node17" class="node">
<title>libignition&#45;fuel&#45;tools</title>
<g id="a_node17"><a xlink:href="https://github.com/conda-forge/libignition-fuel-tools-feedstock/pull/101" xlink:title="libignition fuel tools ✓">
<ellipse fill="#31688e" stroke="black" cx="655.08" cy="-746" rx="119.6" ry="18"/>
<text text-anchor="middle" x="655.08" y="-741.33" font-family="Times,serif" font-size="14.00" fill="white">libignition fuel tools ✓</text>
</a>
</g>
</g>
<!-- libignition&#45;fuel&#45;tools&#45;&gt;libignition&#45;gazebo -->
<g id="edge18" class="edge">
<title>libignition&#45;fuel&#45;tools&#45;&gt;libignition&#45;gazebo</title>
<path fill="none" stroke="black" d="M726.8,-731.17C788.4,-719.29 877.01,-702.2 940.3,-690"/>
<polygon fill="black" stroke="black" points="940.77,-693.47 949.93,-688.14 939.44,-686.6 940.77,-693.47"/>
</g>
<!-- tomviz -->
<g id="node19" class="node">
<title>tomviz</title>
<g id="a_node19"><a xlink:href="https://github.com/conda-forge/tomviz-feedstock/pull/73" xlink:title="tomviz ❎">
<ellipse fill="#31688e" stroke="black" cx="264.08" cy="-638" rx="60.15" ry="18"/>
<text text-anchor="middle" x="264.08" y="-633.33" font-family="Times,serif" font-size="14.00" fill="white">tomviz ❎</text>
</a>
</g>
</g>
<!-- go&#45;cockroach&#45;&gt;tomviz -->
<!-- protozfits -->
<g id="node22" class="node">
<title>protozfits</title>
<g id="a_node22"><a xlink:href="https://github.com/conda-forge/protozfits-feedstock/pull/48" xlink:title="protozfits ✓">
<ellipse fill="#31688e" stroke="black" cx="264.08" cy="-566" rx="66.99" ry="18"/>
<text text-anchor="middle" x="264.08" y="-561.33" font-family="Times,serif" font-size="14.00" fill="white">protozfits ✓</text>
</a>
</g>
</g>
<!-- tomviz&#45;&gt;protozfits -->
<!-- s2geometry -->
<g id="node20" class="node">
<title>s2geometry</title>
<g id="a_node20"><a xlink:href="https://github.com/conda-forge/s2geometry-feedstock/pull/23" xlink:title="s2geometry ✓">
<ellipse fill="#31688e" stroke="black" cx="1614.08" cy="-198" rx="78.57" ry="18"/>
<text text-anchor="middle" x="1614.08" y="-193.32" font-family="Times,serif" font-size="14.00" fill="white">s2geometry ✓</text>
</a>
</g>
</g>
<!-- s2geography -->
<g id="node21" class="node">
<title>s2geography</title>
<g id="a_node21"><a xlink:href="https://github.com/conda-forge/s2geography-feedstock" xlink:title="s2geography">
<ellipse fill="#fde725" stroke="black" cx="1614.08" cy="-126" rx="75.94" ry="18"/>
<text text-anchor="middle" x="1614.08" y="-121.33" font-family="Times,serif" font-size="14.00">s2geography</text>
</a>
</g>
</g>
<!-- s2geometry&#45;&gt;s2geography -->
<g id="edge21" class="edge">
<title>s2geometry&#45;&gt;s2geography</title>
<path fill="none" stroke="black" d="M1614.08,-179.7C1614.08,-172.41 1614.08,-163.73 1614.08,-155.54"/>
<polygon fill="black" stroke="black" points="1617.58,-155.62 1614.08,-145.62 1610.58,-155.62 1617.58,-155.62"/>
</g>
<!-- or&#45;tools -->
<g id="node23" class="node">
<title>or&#45;tools</title>
<g id="a_node23"><a xlink:href="https://github.com/conda-forge/or-tools-feedstock/pull/65" xlink:title="or tools ❎">
<ellipse fill="#31688e" stroke="black" cx="264.08" cy="-494" rx="64.36" ry="18"/>
<text text-anchor="middle" x="264.08" y="-489.32" font-family="Times,serif" font-size="14.00" fill="white">or tools ❎</text>
</a>
</g>
</g>
<!-- protozfits&#45;&gt;or&#45;tools -->
<!-- bear -->
<g id="node24" class="node">
<title>bear</title>
<g id="a_node24"><a xlink:href="https://github.com/conda-forge/bear-feedstock/pull/54" xlink:title="bear ❎">
<ellipse fill="#31688e" stroke="black" cx="264.08" cy="-422" rx="49.1" ry="18"/>
<text text-anchor="middle" x="264.08" y="-417.32" font-family="Times,serif" font-size="14.00" fill="white">bear ❎</text>
</a>
</g>
</g>
<!-- or&#45;tools&#45;&gt;bear -->
<!-- datafusion -->
<g id="node25" class="node">
<title>datafusion</title>
<g id="a_node25"><a xlink:href="https://github.com/conda-forge/datafusion-feedstock/pull/66" xlink:title="datafusion ✓">
<ellipse fill="#31688e" stroke="black" cx="264.08" cy="-350" rx="71.73" ry="18"/>
<text text-anchor="middle" x="264.08" y="-345.32" font-family="Times,serif" font-size="14.00" fill="white">datafusion ✓</text>
</a>
</g>
</g>
<!-- bear&#45;&gt;datafusion -->
<!-- mujoco -->
<g id="node26" class="node">
<title>mujoco</title>
<g id="a_node26"><a xlink:href="https://github.com/conda-forge/mujoco-feedstock/pull/74" xlink:title="mujoco ❎">
<ellipse fill="#31688e" stroke="black" cx="1885.08" cy="-746" rx="62.26" ry="18"/>
<text text-anchor="middle" x="1885.08" y="-741.33" font-family="Times,serif" font-size="14.00" fill="white">mujoco ❎</text>
</a>
</g>
</g>
<!-- mujoco&#45;&gt;ray&#45;packages -->
<g id="edge26" class="edge">
<title>mujoco&#45;&gt;ray&#45;packages</title>
<path fill="none" stroke="black" d="M1885.08,-727.7C1885.08,-720.41 1885.08,-711.73 1885.08,-703.54"/>
<polygon fill="black" stroke="black" points="1888.58,-703.62 1885.08,-693.62 1881.58,-703.62 1888.58,-703.62"/>
</g>
<!-- xilinx&#45;runtime -->
<g id="node27" class="node">
<title>xilinx&#45;runtime</title>
<g id="a_node27"><a xlink:href="https://github.com/conda-forge/xilinx-runtime-feedstock/pull/40" xlink:title="xilinx runtime ❎">
<ellipse fill="#31688e" stroke="black" cx="897.08" cy="-306" rx="96.98" ry="18"/>
<text text-anchor="middle" x="897.08" y="-301.32" font-family="Times,serif" font-size="14.00" fill="white">xilinx runtime ❎</text>
</a>
</g>
</g>
<!-- arcticdb -->
<g id="node28" class="node">
<title>arcticdb</title>
<g id="a_node28"><a xlink:href="https://github.com/conda-forge/arcticdb-feedstock/pull/409" xlink:title="arcticdb ❎">
<ellipse fill="#31688e" stroke="black" cx="897.08" cy="-234" rx="67.52" ry="18"/>
<text text-anchor="middle" x="897.08" y="-229.32" font-family="Times,serif" font-size="14.00" fill="white">arcticdb ❎</text>
</a>
</g>
</g>
<!-- xilinx&#45;runtime&#45;&gt;arcticdb -->
<!-- gnss&#45;sdr -->
<g id="node39" class="node">
<title>gnss&#45;sdr</title>
<g id="a_node39"><a xlink:href="https://github.com/conda-forge/gnss-sdr-feedstock/pull/37" xlink:title="gnss sdr ❎">
<ellipse fill="#31688e" stroke="black" cx="897.08" cy="-162" rx="69.1" ry="18"/>
<text text-anchor="middle" x="897.08" y="-157.32" font-family="Times,serif" font-size="14.00" fill="white">gnss sdr ❎</text>
</a>
</g>
</g>
<!-- arcticdb&#45;&gt;gnss&#45;sdr -->
<!-- gz&#45;msgs -->
<g id="node29" class="node">
<title>gz&#45;msgs</title>
<g id="a_node29"><a xlink:href="https://github.com/conda-forge/gz-msgs-feedstock/pull/60" xlink:title="gz msgs ❎">
<ellipse fill="#31688e" stroke="black" cx="268.08" cy="-306" rx="67.52" ry="18"/>
<text text-anchor="middle" x="268.08" y="-301.32" font-family="Times,serif" font-size="14.00" fill="white">gz msgs ❎</text>
</a>
</g>
</g>
<!-- gz&#45;transport -->
<g id="node30" class="node">
<title>gz&#45;transport</title>
<g id="a_node30"><a xlink:href="https://github.com/conda-forge/gz-transport-feedstock" xlink:title="gz transport">
<ellipse fill="#fde725" stroke="black" cx="167.08" cy="-234" rx="73.3" ry="18"/>
<text text-anchor="middle" x="167.08" y="-229.32" font-family="Times,serif" font-size="14.00">gz transport</text>
</a>
</g>
</g>
<!-- gz&#45;msgs&#45;&gt;gz&#45;transport -->
<g id="edge28" class="edge">
<title>gz&#45;msgs&#45;&gt;gz&#45;transport</title>
<path fill="none" stroke="black" d="M244.66,-288.76C231.37,-279.55 214.53,-267.88 199.94,-257.77"/>
<polygon fill="black" stroke="black" points="202.19,-255.07 191.98,-252.25 198.2,-260.82 202.19,-255.07"/>
</g>
<!-- gz&#45;fuel&#45;tools -->
<g id="node31" class="node">
<title>gz&#45;fuel&#45;tools</title>
<g id="a_node31"><a xlink:href="https://github.com/conda-forge/gz-fuel-tools-feedstock" xlink:title="gz fuel tools">
<ellipse fill="#fde725" stroke="black" cx="368.08" cy="-234" rx="72.25" ry="18"/>
<text text-anchor="middle" x="368.08" y="-229.32" font-family="Times,serif" font-size="14.00">gz fuel tools</text>
</a>
</g>
</g>
<!-- gz&#45;msgs&#45;&gt;gz&#45;fuel&#45;tools -->
<g id="edge29" class="edge">
<title>gz&#45;msgs&#45;&gt;gz&#45;fuel&#45;tools</title>
<path fill="none" stroke="black" d="M291.28,-288.76C304.44,-279.55 321.11,-267.88 335.56,-257.77"/>
<polygon fill="black" stroke="black" points="337.25,-260.86 343.43,-252.26 333.23,-255.13 337.25,-260.86"/>
</g>
<!-- gz&#45;gui -->
<g id="node32" class="node">
<title>gz&#45;gui</title>
<g id="a_node32"><a xlink:href="https://github.com/conda-forge/gz-gui-feedstock" xlink:title="gz gui">
<ellipse fill="#fde725" stroke="black" cx="66.08" cy="-162" rx="41.74" ry="18"/>
<text text-anchor="middle" x="66.08" y="-157.32" font-family="Times,serif" font-size="14.00">gz gui</text>
</a>
</g>
</g>
<!-- gz&#45;msgs&#45;&gt;gz&#45;gui -->
<g id="edge30" class="edge">
<title>gz&#45;msgs&#45;&gt;gz&#45;gui</title>
<path fill="none" stroke="black" d="M201.81,-302.24C162.56,-297.05 114.83,-283.96 85.08,-252 70.18,-235.99 65.84,-211.26 65,-191.93"/>
<polygon fill="black" stroke="black" points="68.5,-191.91 64.88,-181.95 61.5,-191.98 68.5,-191.91"/>
</g>
<!-- gz&#45;sensors -->
<g id="node33" class="node">
<title>gz&#45;sensors</title>
<g id="a_node33"><a xlink:href="https://github.com/conda-forge/gz-sensors-feedstock" xlink:title="gz sensors">
<ellipse fill="#fde725" stroke="black" cx="304.08" cy="-162" rx="64.36" ry="18"/>
<text text-anchor="middle" x="304.08" y="-157.32" font-family="Times,serif" font-size="14.00">gz sensors</text>
</a>
</g>
</g>
<!-- gz&#45;msgs&#45;&gt;gz&#45;sensors -->
<g id="edge31" class="edge">
<title>gz&#45;msgs&#45;&gt;gz&#45;sensors</title>
<path fill="none" stroke="black" d="M271.22,-287.82C274.64,-269.8 280.5,-240.73 287.08,-216 289.28,-207.75 291.99,-198.88 294.59,-190.8"/>
<polygon fill="black" stroke="black" points="297.85,-192.09 297.66,-181.49 291.2,-189.9 297.85,-192.09"/>
</g>
<!-- gz&#45;sim -->
<g id="node34" class="node">
<title>gz&#45;sim</title>
<g id="a_node34"><a xlink:href="https://github.com/conda-forge/gz-sim-feedstock" xlink:title="gz sim">
<ellipse fill="#fde725" stroke="black" cx="279.08" cy="-90" rx="43.84" ry="18"/>
<text text-anchor="middle" x="279.08" y="-85.33" font-family="Times,serif" font-size="14.00">gz sim</text>
</a>
</g>
</g>
<!-- gz&#45;msgs&#45;&gt;gz&#45;sim -->
<g id="edge32" class="edge">
<title>gz&#45;msgs&#45;&gt;gz&#45;sim</title>
<path fill="none" stroke="black" d="M324.65,-295.99C371.94,-287.16 434.02,-272.11 449.08,-252 482.15,-207.86 396.15,-144.86 395.08,-144 374.19,-127.17 347.09,-114.4 324.33,-105.62"/>
<polygon fill="black" stroke="black" points="325.57,-102.34 314.98,-102.15 323.14,-108.91 325.57,-102.34"/>
</g>
<!-- gz&#45;launch -->
<g id="node35" class="node">
<title>gz&#45;launch</title>
<g id="a_node35"><a xlink:href="https://github.com/conda-forge/gz-launch-feedstock" xlink:title="gz launch">
<ellipse fill="#fde725" stroke="black" cx="79.08" cy="-18" rx="59.1" ry="18"/>
<text text-anchor="middle" x="79.08" y="-13.32" font-family="Times,serif" font-size="14.00">gz launch</text>
</a>
</g>
</g>
<!-- gz&#45;msgs&#45;&gt;gz&#45;launch -->
<g id="edge33" class="edge">
<title>gz&#45;msgs&#45;&gt;gz&#45;launch</title>
<path fill="none" stroke="black" d="M203.86,-300.07C161.02,-294.12 105.22,-280.98 64.08,-252 32.44,-229.71 26.48,-216.99 15.08,-180 0,-131.02 33.34,-75.93 57.33,-44.55"/>
<polygon fill="black" stroke="black" points="60.01,-46.8 63.47,-36.79 54.52,-42.46 60.01,-46.8"/>
</g>
<!-- gz&#45;sim&#45;yarp&#45;plugins -->
<g id="node36" class="node">
<title>gz&#45;sim&#45;yarp&#45;plugins</title>
<g id="a_node36"><a xlink:href="https://github.com/conda-forge/gz-sim-yarp-plugins-feedstock" xlink:title="gz sim yarp plugins">
<ellipse fill="#fde725" stroke="black" cx="279.08" cy="-18" rx="109.61" ry="18"/>
<text text-anchor="middle" x="279.08" y="-13.32" font-family="Times,serif" font-size="14.00">gz sim yarp plugins</text>
</a>
</g>
</g>
<!-- gz&#45;msgs&#45;&gt;gz&#45;sim&#45;yarp&#45;plugins -->
<g id="edge34" class="edge">
<title>gz&#45;msgs&#45;&gt;gz&#45;sim&#45;yarp&#45;plugins</title>
<path fill="none" stroke="black" d="M327.68,-297.18C379.91,-288.96 450.09,-274.11 467.08,-252 527.66,-173.18 392.79,-82.08 320.7,-41.05"/>
<polygon fill="black" stroke="black" points="322.73,-38.17 312.29,-36.34 319.31,-44.28 322.73,-38.17"/>
</g>
<!-- gz&#45;transport&#45;&gt;gz&#45;gui -->
<g id="edge35" class="edge">
<title>gz&#45;transport&#45;&gt;gz&#45;gui</title>
<path fill="none" stroke="black" d="M143.4,-216.59C129.53,-206.97 111.86,-194.73 96.91,-184.37"/>
<polygon fill="black" stroke="black" points="99.01,-181.56 88.8,-178.74 95.02,-187.31 99.01,-181.56"/>
</g>
<!-- gz&#45;transport&#45;&gt;gz&#45;sensors -->
<g id="edge36" class="edge">
<title>gz&#45;transport&#45;&gt;gz&#45;sensors</title>
<path fill="none" stroke="black" d="M197.83,-217.29C217.49,-207.24 243.19,-194.12 264.38,-183.28"/>
<polygon fill="black" stroke="black" points="265.72,-186.53 273.03,-178.86 262.54,-180.3 265.72,-186.53"/>
</g>
<!-- gz&#45;transport&#45;&gt;gz&#45;sim -->
<g id="edge37" class="edge">
<title>gz&#45;transport&#45;&gt;gz&#45;sim</title>
<path fill="none" stroke="black" d="M178.57,-215.85C190.97,-197.61 211.59,-168.13 231.08,-144 238.81,-134.44 247.74,-124.35 255.78,-115.57"/>
<polygon fill="black" stroke="black" points="258.2,-118.11 262.43,-108.4 253.06,-113.35 258.2,-118.11"/>
</g>
<!-- gz&#45;transport&#45;&gt;gz&#45;launch -->
<g id="edge38" class="edge">
<title>gz&#45;transport&#45;&gt;gz&#45;launch</title>
<path fill="none" stroke="black" d="M160.03,-215.85C144.84,-178.91 108.92,-91.55 90.46,-46.67"/>
<polygon fill="black" stroke="black" points="93.79,-45.55 86.75,-37.63 87.31,-48.21 93.79,-45.55"/>
</g>
<!-- gz&#45;transport&#45;&gt;gz&#45;sim&#45;yarp&#45;plugins -->
<g id="edge39" class="edge">
<title>gz&#45;transport&#45;&gt;gz&#45;sim&#45;yarp&#45;plugins</title>
<path fill="none" stroke="black" d="M170.76,-215.92C177.89,-185.27 195.64,-119.67 226.08,-72 232.55,-61.88 241.23,-52.17 249.7,-43.9"/>
<polygon fill="black" stroke="black" points="251.99,-46.55 256.9,-37.16 247.21,-41.44 251.99,-46.55"/>
</g>
<!-- gz&#45;fuel&#45;tools&#45;&gt;gz&#45;sim -->
<g id="edge40" class="edge">
<title>gz&#45;fuel&#45;tools&#45;&gt;gz&#45;sim</title>
<path fill="none" stroke="black" d="M375.66,-215.6C382.67,-196.62 390.2,-166.01 377.08,-144 365.89,-125.21 345.47,-112.68 326.15,-104.55"/>
<polygon fill="black" stroke="black" points="327.6,-101.36 317.01,-101.01 325.08,-107.89 327.6,-101.36"/>
</g>
<!-- gz&#45;gui&#45;&gt;gz&#45;sim -->
<g id="edge41" class="edge">
<title>gz&#45;gui&#45;&gt;gz&#45;sim</title>
<path fill="none" stroke="black" d="M98.43,-150.37C134.89,-138.39 194.37,-118.84 235.04,-105.47"/>
<polygon fill="black" stroke="black" points="235.88,-108.88 244.29,-102.44 233.7,-102.23 235.88,-108.88"/>
</g>
<!-- gz&#45;gui&#45;&gt;gz&#45;launch -->
<g id="edge42" class="edge">
<title>gz&#45;gui&#45;&gt;gz&#45;launch</title>
<path fill="none" stroke="black" d="M67.68,-143.59C69.87,-119.61 73.85,-76.14 76.48,-47.42"/>
<polygon fill="black" stroke="black" points="79.95,-47.9 77.38,-37.62 72.98,-47.26 79.95,-47.9"/>
</g>
<!-- gz&#45;sensors&#45;&gt;gz&#45;sim -->
<g id="edge43" class="edge">
<title>gz&#45;sensors&#45;&gt;gz&#45;sim</title>
<path fill="none" stroke="black" d="M297.9,-143.7C295.21,-136.15 291.98,-127.12 288.97,-118.68"/>
<polygon fill="black" stroke="black" points="292.36,-117.77 285.7,-109.53 285.77,-120.12 292.36,-117.77"/>
</g>
<!-- gz&#45;sim&#45;&gt;gz&#45;launch -->
<g id="edge44" class="edge">
<title>gz&#45;sim&#45;&gt;gz&#45;launch</title>
<path fill="none" stroke="black" d="M246.51,-77.6C214.17,-66.28 164.22,-48.8 127.29,-35.87"/>
<polygon fill="black" stroke="black" points="128.79,-32.69 118.19,-32.69 126.48,-39.3 128.79,-32.69"/>
</g>
<!-- gz&#45;sim&#45;&gt;gz&#45;sim&#45;yarp&#45;plugins -->
<g id="edge45" class="edge">
<title>gz&#45;sim&#45;&gt;gz&#45;sim&#45;yarp&#45;plugins</title>
<path fill="none" stroke="black" d="M279.08,-71.7C279.08,-64.41 279.08,-55.73 279.08,-47.54"/>
<polygon fill="black" stroke="black" points="282.58,-47.62 279.08,-37.62 275.58,-47.62 282.58,-47.62"/>
</g>
<!-- openvino -->
<g id="node37" class="node">
<title>openvino</title>
<g id="a_node37"><a xlink:href="https://github.com/conda-forge/openvino-feedstock/pull/129" xlink:title="openvino ❎">
<ellipse fill="#31688e" stroke="black" cx="1536.08" cy="-818" rx="71.73" ry="18"/>
<text text-anchor="middle" x="1536.08" y="-813.33" font-family="Times,serif" font-size="14.00" fill="white">openvino ❎</text>
</a>
</g>
</g>
<!-- openvino&#45;&gt;opencv -->
<g id="edge46" class="edge">
<title>openvino&#45;&gt;opencv</title>
<path fill="none" stroke="black" d="M1571.7,-801.98C1597.94,-790.92 1633.68,-775.85 1661.11,-764.28"/>
<polygon fill="black" stroke="black" points="1662.3,-767.58 1670.15,-760.47 1659.58,-761.13 1662.3,-767.58"/>
</g>
<!-- openvino&#45;tokenizers -->
<g id="node38" class="node">
<title>openvino&#45;tokenizers</title>
<g id="a_node38"><a xlink:href="https://github.com/conda-forge/openvino-tokenizers-feedstock" xlink:title="openvino tokenizers">
<ellipse fill="#fde725" stroke="black" cx="1378.08" cy="-746" rx="111.71" ry="18"/>
<text text-anchor="middle" x="1378.08" y="-741.33" font-family="Times,serif" font-size="14.00">openvino tokenizers</text>
</a>
</g>
</g>
<!-- openvino&#45;&gt;openvino&#45;tokenizers -->
<g id="edge47" class="edge">
<title>openvino&#45;&gt;openvino&#45;tokenizers</title>
<path fill="none" stroke="black" d="M1501.8,-801.81C1479.41,-791.89 1449.86,-778.8 1425.26,-767.9"/>
<polygon fill="black" stroke="black" points="1427,-764.84 1416.44,-763.99 1424.17,-771.24 1427,-764.84"/>
</g>
<!-- bfiocpp -->
<g id="node40" class="node">
<title>bfiocpp</title>
<g id="a_node40"><a xlink:href="https://github.com/conda-forge/bfiocpp-feedstock/pull/14" xlink:title="bfiocpp ✓">
<ellipse fill="#31688e" stroke="black" cx="897.08" cy="-90" rx="55.42" ry="18"/>
<text text-anchor="middle" x="897.08" y="-85.33" font-family="Times,serif" font-size="14.00" fill="white">bfiocpp ✓</text>
</a>
</g>
</g>
<!-- gnss&#45;sdr&#45;&gt;bfiocpp -->
<!-- mysqlx&#45;connector&#45;python -->
<g id="node41" class="node">
<title>mysqlx&#45;connector&#45;python</title>
<g id="a_node41"><a xlink:href="https://github.com/conda-forge/mysqlx-connector-python-feedstock/pull/11" xlink:title="mysqlx connector python ✓">
<ellipse fill="#31688e" stroke="black" cx="897.08" cy="-18" rx="145.38" ry="18"/>
<text text-anchor="middle" x="897.08" y="-13.32" font-family="Times,serif" font-size="14.00" fill="white">mysqlx connector python ✓</text>
</a>
</g>
</g>
<!-- bfiocpp&#45;&gt;mysqlx&#45;connector&#45;python -->
</g>
</svg>
