<?xml version="1.0" encoding="UTF-8" standalone="no"?>
<!DOCTYPE svg PUBLIC "-//W3C//DTD SVG 1.1//EN"
 "http://www.w3.org/Graphics/SVG/1.1/DTD/svg11.dtd">
<!-- Generated by graphviz version 12.2.1 (20250203.1708)
 -->
<!-- Pages: 1 -->
<svg width="1947pt" height="1240pt"
 viewBox="0.00 0.00 1946.92 1240.00" xmlns="http://www.w3.org/2000/svg" xmlns:xlink="http://www.w3.org/1999/xlink">
<g id="graph0" class="graph" transform="scale(1 1) rotate(0) translate(4 1236)">
<polygon fill="white" stroke="none" points="-4,4 -4,-1236 1942.92,-1236 1942.92,4 -4,4"/>
<!-- arrow&#45;cpp -->
<g id="node1" class="node">
<title>arrow&#45;cpp</title>
<g id="a_node1"><a xlink:href="https://github.com/conda-forge/arrow-cpp-feedstock/pull/1726" xlink:title="arrow cpp ❎">
<ellipse fill="#31688e" stroke="black" cx="98.26" cy="-890" rx="76.99" ry="18"/>
<text text-anchor="middle" x="98.26" y="-885.33" font-family="Times,serif" font-size="14.00" fill="white">arrow cpp ❎</text>
</a>
</g>
</g>
<!-- ray&#45;packages -->
<g id="node2" class="node">
<title>ray&#45;packages</title>
<g id="a_node2"><a xlink:href="https://github.com/conda-forge/ray-packages-feedstock" xlink:title="ray packages">
<ellipse fill="#fde725" stroke="black" cx="766.26" cy="-818" rx="76.99" ry="18"/>
<text text-anchor="middle" x="766.26" y="-813.33" font-family="Times,serif" font-size="14.00">ray packages</text>
</a>
</g>
</g>
<!-- arrow&#45;cpp&#45;&gt;ray&#45;packages -->
<g id="edge1" class="edge">
<title>arrow&#45;cpp&#45;&gt;ray&#45;packages</title>
<path fill="none" stroke="black" d="M153.15,-877.11C163.45,-875.17 174.16,-873.36 184.26,-872 403.31,-842.51 461.21,-865.49 680.26,-836 686.74,-835.13 693.46,-834.07 700.16,-832.92"/>
<polygon fill="black" stroke="black" points="700.67,-836.38 709.89,-831.16 699.42,-829.49 700.67,-836.38"/>
</g>
<!-- datafusion -->
<g id="node3" class="node">
<title>datafusion</title>
<g id="a_node3"><a xlink:href="https://github.com/conda-forge/datafusion-feedstock" xlink:title="datafusion">
<ellipse fill="#fde725" stroke="black" cx="144.26" cy="-818" rx="63.84" ry="18"/>
<text text-anchor="middle" x="144.26" y="-813.33" font-family="Times,serif" font-size="14.00">datafusion</text>
</a>
</g>
</g>
<!-- arrow&#45;cpp&#45;&gt;datafusion -->
<g id="edge2" class="edge">
<title>arrow&#45;cpp&#45;&gt;datafusion</title>
<path fill="none" stroke="black" d="M109.4,-872.05C114.65,-864.06 121.04,-854.33 126.91,-845.4"/>
<polygon fill="black" stroke="black" points="129.83,-847.33 132.4,-837.05 123.98,-843.49 129.83,-847.33"/>
</g>
<!-- arcticdb -->
<g id="node4" class="node">
<title>arcticdb</title>
<g id="a_node4"><a xlink:href="https://github.com/conda-forge/arcticdb-feedstock" xlink:title="arcticdb">
<ellipse fill="#fde725" stroke="black" cx="52.26" cy="-746" rx="52.26" ry="18"/>
<text text-anchor="middle" x="52.26" y="-741.33" font-family="Times,serif" font-size="14.00">arcticdb</text>
</a>
</g>
</g>
<!-- arrow&#45;cpp&#45;&gt;arcticdb -->
<g id="edge3" class="edge">
<title>arrow&#45;cpp&#45;&gt;arcticdb</title>
<path fill="none" stroke="black" d="M88.07,-871.84C82.43,-861.71 75.68,-848.46 71.26,-836 64.31,-816.4 59.49,-793.43 56.44,-775.73"/>
<polygon fill="black" stroke="black" points="59.9,-775.23 54.85,-765.92 52.99,-776.35 59.9,-775.23"/>
</g>
<!-- opencv -->
<g id="node5" class="node">
<title>opencv</title>
<g id="a_node5"><a xlink:href="https://github.com/conda-forge/opencv-feedstock" xlink:title="opencv">
<ellipse fill="#fde725" stroke="black" cx="592.26" cy="-890" rx="46.47" ry="18"/>
<text text-anchor="middle" x="592.26" y="-885.33" font-family="Times,serif" font-size="14.00">opencv</text>
</a>
</g>
</g>
<!-- opencv&#45;&gt;ray&#45;packages -->
<g id="edge4" class="edge">
<title>opencv&#45;&gt;ray&#45;packages</title>
<path fill="none" stroke="black" d="M623.77,-876.32C650.14,-865.72 688.18,-850.41 718.33,-838.28"/>
<polygon fill="black" stroke="black" points="719.25,-841.68 727.22,-834.71 716.64,-835.19 719.25,-841.68"/>
</g>
<!-- imp -->
<g id="node6" class="node">
<title>imp</title>
<g id="a_node6"><a xlink:href="https://github.com/conda-forge/imp-feedstock" xlink:title="imp">
<ellipse fill="#fde725" stroke="black" cx="641.26" cy="-818" rx="30.16" ry="18"/>
<text text-anchor="middle" x="641.26" y="-813.33" font-family="Times,serif" font-size="14.00">imp</text>
</a>
</g>
</g>
<!-- opencv&#45;&gt;imp -->
<g id="edge5" class="edge">
<title>opencv&#45;&gt;imp</title>
<path fill="none" stroke="black" d="M603.87,-872.41C609.75,-864.01 617.02,-853.63 623.58,-844.26"/>
<polygon fill="black" stroke="black" points="626.33,-846.43 629.2,-836.23 620.6,-842.41 626.33,-846.43"/>
</g>
<!-- gazebo&#45;yarp&#45;plugins -->
<g id="node7" class="node">
<title>gazebo&#45;yarp&#45;plugins</title>
<g id="a_node7"><a xlink:href="https://github.com/conda-forge/gazebo-yarp-plugins-feedstock" xlink:title="gazebo yarp plugins">
<ellipse fill="#fde725" stroke="black" cx="443.26" cy="-818" rx="112.24" ry="18"/>
<text text-anchor="middle" x="443.26" y="-813.33" font-family="Times,serif" font-size="14.00">gazebo yarp plugins</text>
</a>
</g>
</g>
<!-- opencv&#45;&gt;gazebo&#45;yarp&#45;plugins -->
<g id="edge6" class="edge">
<title>opencv&#45;&gt;gazebo&#45;yarp&#45;plugins</title>
<path fill="none" stroke="black" d="M563.53,-875.5C542.3,-865.53 512.96,-851.74 488.57,-840.29"/>
<polygon fill="black" stroke="black" points="490.38,-837.27 479.84,-836.18 487.4,-843.6 490.38,-837.27"/>
</g>
<!-- nvidia&#45;dali&#45;python -->
<g id="node8" class="node">
<title>nvidia&#45;dali&#45;python</title>
<g id="a_node8"><a xlink:href="https://github.com/conda-forge/nvidia-dali-python-feedstock" xlink:title="nvidia dali python">
<ellipse fill="#fde725" stroke="black" cx="583.26" cy="-746" rx="101.19" ry="18"/>
<text text-anchor="middle" x="583.26" y="-741.33" font-family="Times,serif" font-size="14.00">nvidia dali python</text>
</a>
</g>
</g>
<!-- opencv&#45;&gt;nvidia&#45;dali&#45;python -->
<g id="edge7" class="edge">
<title>opencv&#45;&gt;nvidia&#45;dali&#45;python</title>
<path fill="none" stroke="black" d="M591.16,-871.59C589.64,-847.61 586.88,-804.14 585.06,-775.42"/>
<polygon fill="black" stroke="black" points="588.57,-775.38 584.44,-765.62 581.58,-775.82 588.57,-775.38"/>
</g>
<!-- paraview -->
<g id="node9" class="node">
<title>paraview</title>
<g id="a_node9"><a xlink:href="https://github.com/conda-forge/paraview-feedstock/pull/277" xlink:title="paraview ❎">
<ellipse fill="#31688e" stroke="black" cx="1828.26" cy="-1214" rx="72.25" ry="18"/>
<text text-anchor="middle" x="1828.26" y="-1209.33" font-family="Times,serif" font-size="14.00" fill="white">paraview ❎</text>
</a>
</g>
</g>
<!-- qgis -->
<g id="node10" class="node">
<title>qgis</title>
<g id="a_node10"><a xlink:href="https://github.com/conda-forge/qgis-feedstock" xlink:title="qgis">
<ellipse fill="#ff8c00" stroke="black" cx="1828.26" cy="-1142" rx="32.27" ry="18"/>
<text text-anchor="middle" x="1828.26" y="-1137.33" font-family="Times,serif" font-size="14.00">qgis</text>
</a>
</g>
</g>
<!-- paraview&#45;&gt;qgis -->
<!-- tiledb -->
<g id="node11" class="node">
<title>tiledb</title>
<g id="a_node11"><a xlink:href="https://github.com/conda-forge/tiledb-feedstock" xlink:title="tiledb">
<ellipse fill="#ff8c00" stroke="black" cx="1828.26" cy="-1070" rx="40.16" ry="18"/>
<text text-anchor="middle" x="1828.26" y="-1065.33" font-family="Times,serif" font-size="14.00">tiledb</text>
</a>
</g>
</g>
<!-- qgis&#45;&gt;tiledb -->
<!-- pyaudi -->
<g id="node12" class="node">
<title>pyaudi</title>
<g id="a_node12"><a xlink:href="https://github.com/conda-forge/pyaudi-feedstock/pull/47" xlink:title="pyaudi ❎">
<ellipse fill="#31688e" stroke="black" cx="1828.26" cy="-998" rx="60.15" ry="18"/>
<text text-anchor="middle" x="1828.26" y="-993.33" font-family="Times,serif" font-size="14.00" fill="white">pyaudi ❎</text>
</a>
</g>
</g>
<!-- tiledb&#45;&gt;pyaudi -->
<!-- tensorflow -->
<g id="node13" class="node">
<title>tensorflow</title>
<g id="a_node13"><a xlink:href="https://github.com/conda-forge/tensorflow-feedstock/pull/424" xlink:title="tensorflow ❎">
<ellipse fill="#31688e" stroke="black" cx="1828.26" cy="-926" rx="79.09" ry="18"/>
<text text-anchor="middle" x="1828.26" y="-921.33" font-family="Times,serif" font-size="14.00" fill="white">tensorflow ❎</text>
</a>
</g>
</g>
<!-- pyaudi&#45;&gt;tensorflow -->
<!-- mongodb -->
<g id="node14" class="node">
<title>mongodb</title>
<g id="a_node14"><a xlink:href="https://github.com/conda-forge/mongodb-feedstock/pull/101" xlink:title="mongodb ❎">
<ellipse fill="#31688e" stroke="black" cx="1828.26" cy="-854" rx="72.78" ry="18"/>
<text text-anchor="middle" x="1828.26" y="-849.33" font-family="Times,serif" font-size="14.00" fill="white">mongodb ❎</text>
</a>
</g>
</g>
<!-- tensorflow&#45;&gt;mongodb -->
<!-- google&#45;cloud&#45;cpp -->
<g id="node16" class="node">
<title>google&#45;cloud&#45;cpp</title>
<g id="a_node16"><a xlink:href="https://github.com/conda-forge/google-cloud-cpp-feedstock/pull/196" xlink:title="google cloud cpp ❎">
<ellipse fill="#31688e" stroke="black" cx="1828.26" cy="-782" rx="110.66" ry="18"/>
<text text-anchor="middle" x="1828.26" y="-777.33" font-family="Times,serif" font-size="14.00" fill="white">google cloud cpp ❎</text>
</a>
</g>
</g>
<!-- mongodb&#45;&gt;google&#45;cloud&#45;cpp -->
<!-- pytorch&#45;cpu -->
<g id="node15" class="node">
<title>pytorch&#45;cpu</title>
<g id="a_node15"><a xlink:href="https://github.com/conda-forge/pytorch-cpu-feedstock/pull/373" xlink:title="pytorch cpu ❎">
<ellipse fill="#31688e" stroke="black" cx="758.26" cy="-890" rx="85.93" ry="18"/>
<text text-anchor="middle" x="758.26" y="-885.33" font-family="Times,serif" font-size="14.00" fill="white">pytorch cpu ❎</text>
</a>
</g>
</g>
<!-- pytorch&#45;cpu&#45;&gt;ray&#45;packages -->
<g id="edge13" class="edge">
<title>pytorch&#45;cpu&#45;&gt;ray&#45;packages</title>
<path fill="none" stroke="black" d="M760.24,-871.7C761.07,-864.41 762.06,-855.73 763,-847.54"/>
<polygon fill="black" stroke="black" points="766.48,-847.94 764.13,-837.61 759.52,-847.15 766.48,-847.94"/>
</g>
<!-- go&#45;cockroach -->
<g id="node26" class="node">
<title>go&#45;cockroach</title>
<g id="a_node26"><a xlink:href="https://github.com/conda-forge/go-cockroach-feedstock" xlink:title="go cockroach">
<ellipse fill="#ff8c00" stroke="black" cx="1828.26" cy="-710" rx="76.46" ry="18"/>
<text text-anchor="middle" x="1828.26" y="-705.33" font-family="Times,serif" font-size="14.00">go cockroach</text>
</a>
</g>
</g>
<!-- google&#45;cloud&#45;cpp&#45;&gt;go&#45;cockroach -->
<!-- jaxlib -->
<g id="node17" class="node">
<title>jaxlib</title>
<g id="a_node17"><a xlink:href="https://github.com/conda-forge/jaxlib-feedstock/pull/307" xlink:title="jaxlib ❎">
<ellipse fill="#31688e" stroke="black" cx="909.26" cy="-962" rx="53.84" ry="18"/>
<text text-anchor="middle" x="909.26" y="-957.33" font-family="Times,serif" font-size="14.00" fill="white">jaxlib ❎</text>
</a>
</g>
</g>
<!-- mujoco -->
<g id="node18" class="node">
<title>mujoco</title>
<g id="a_node18"><a xlink:href="https://github.com/conda-forge/mujoco-feedstock" xlink:title="mujoco">
<ellipse fill="#fde725" stroke="black" cx="909.26" cy="-890" rx="47" ry="18"/>
<text text-anchor="middle" x="909.26" y="-885.33" font-family="Times,serif" font-size="14.00">mujoco</text>
</a>
</g>
</g>
<!-- jaxlib&#45;&gt;mujoco -->
<g id="edge15" class="edge">
<title>jaxlib&#45;&gt;mujoco</title>
<path fill="none" stroke="black" d="M909.26,-943.7C909.26,-936.41 909.26,-927.73 909.26,-919.54"/>
<polygon fill="black" stroke="black" points="912.76,-919.62 909.26,-909.62 905.76,-919.62 912.76,-919.62"/>
</g>
<!-- mujoco&#45;&gt;ray&#45;packages -->
<g id="edge16" class="edge">
<title>mujoco&#45;&gt;ray&#45;packages</title>
<path fill="none" stroke="black" d="M881.01,-875.17C860.4,-865.08 832.11,-851.23 808.77,-839.81"/>
<polygon fill="black" stroke="black" points="810.33,-836.67 799.81,-835.42 807.25,-842.96 810.33,-836.67"/>
</g>
<!-- libignition&#45;transport4 -->
<g id="node19" class="node">
<title>libignition&#45;transport4</title>
<g id="a_node19"><a xlink:href="https://github.com/conda-forge/libignition-transport4-feedstock/pull/106" xlink:title="libignition transport4 ❎">
<ellipse fill="#31688e" stroke="black" cx="1533.26" cy="-962" rx="134.33" ry="18"/>
<text text-anchor="middle" x="1533.26" y="-957.33" font-family="Times,serif" font-size="14.00" fill="white">libignition transport4 ❎</text>
</a>
</g>
</g>
<!-- libignition&#45;sensors -->
<g id="node20" class="node">
<title>libignition&#45;sensors</title>
<g id="a_node20"><a xlink:href="https://github.com/conda-forge/libignition-sensors-feedstock" xlink:title="libignition sensors">
<ellipse fill="#fde725" stroke="black" cx="1347.26" cy="-890" rx="103.82" ry="18"/>
<text text-anchor="middle" x="1347.26" y="-885.33" font-family="Times,serif" font-size="14.00">libignition sensors</text>
</a>
</g>
</g>
<!-- libignition&#45;transport4&#45;&gt;libignition&#45;sensors -->
<g id="edge17" class="edge">
<title>libignition&#45;transport4&#45;&gt;libignition&#45;sensors</title>
<path fill="none" stroke="black" d="M1489.65,-944.59C1462.8,-934.48 1428.22,-921.47 1399.85,-910.79"/>
<polygon fill="black" stroke="black" points="1401.33,-907.61 1390.73,-907.36 1398.86,-914.16 1401.33,-907.61"/>
</g>
<!-- libignition&#45;gui -->
<g id="node21" class="node">
<title>libignition&#45;gui</title>
<g id="a_node21"><a xlink:href="https://github.com/conda-forge/libignition-gui-feedstock" xlink:title="libignition gui">
<ellipse fill="#fde725" stroke="black" cx="1588.26" cy="-890" rx="81.2" ry="18"/>
<text text-anchor="middle" x="1588.26" y="-885.33" font-family="Times,serif" font-size="14.00">libignition gui</text>
</a>
</g>
</g>
<!-- libignition&#45;transport4&#45;&gt;libignition&#45;gui -->
<g id="edge18" class="edge">
<title>libignition&#45;transport4&#45;&gt;libignition&#45;gui</title>
<path fill="none" stroke="black" d="M1546.86,-943.7C1553.18,-935.64 1560.84,-925.89 1567.85,-916.98"/>
<polygon fill="black" stroke="black" points="1570.46,-919.32 1573.89,-909.29 1564.96,-915 1570.46,-919.32"/>
</g>
<!-- libignition&#45;gazebo -->
<g id="node22" class="node">
<title>libignition&#45;gazebo</title>
<g id="a_node22"><a xlink:href="https://github.com/conda-forge/libignition-gazebo-feedstock" xlink:title="libignition gazebo">
<ellipse fill="#fde725" stroke="black" cx="1469.26" cy="-818" rx="100.66" ry="18"/>
<text text-anchor="middle" x="1469.26" y="-813.33" font-family="Times,serif" font-size="14.00">libignition gazebo</text>
</a>
</g>
</g>
<!-- libignition&#45;transport4&#45;&gt;libignition&#45;gazebo -->
<g id="edge19" class="edge">
<title>libignition&#45;transport4&#45;&gt;libignition&#45;gazebo</title>
<path fill="none" stroke="black" d="M1520.36,-944.03C1513.14,-933.96 1504.39,-920.71 1498.26,-908 1488.82,-888.43 1481.33,-865.02 1476.33,-847.13"/>
<polygon fill="black" stroke="black" points="1479.78,-846.47 1473.8,-837.72 1473.02,-848.28 1479.78,-846.47"/>
</g>
<!-- libignition&#45;launch -->
<g id="node23" class="node">
<title>libignition&#45;launch</title>
<g id="a_node23"><a xlink:href="https://github.com/conda-forge/libignition-launch-feedstock" xlink:title="libignition launch">
<ellipse fill="#fde725" stroke="black" cx="1598.26" cy="-746" rx="98.56" ry="18"/>
<text text-anchor="middle" x="1598.26" y="-741.33" font-family="Times,serif" font-size="14.00">libignition launch</text>
</a>
</g>
</g>
<!-- libignition&#45;transport4&#45;&gt;libignition&#45;launch -->
<g id="edge20" class="edge">
<title>libignition&#45;transport4&#45;&gt;libignition&#45;launch</title>
<path fill="none" stroke="black" d="M1620.04,-947.85C1642.66,-940.05 1664.52,-927.66 1678.26,-908 1709.59,-863.2 1660.6,-804.33 1626.53,-771.62"/>
<polygon fill="black" stroke="black" points="1629.05,-769.19 1619.35,-764.93 1624.28,-774.31 1629.05,-769.19"/>
</g>
<!-- libignition&#45;sensors&#45;&gt;libignition&#45;gazebo -->
<g id="edge21" class="edge">
<title>libignition&#45;sensors&#45;&gt;libignition&#45;gazebo</title>
<path fill="none" stroke="black" d="M1376.17,-872.41C1392.31,-863.15 1412.64,-851.49 1430.18,-841.42"/>
<polygon fill="black" stroke="black" points="1431.89,-844.48 1438.82,-836.47 1428.41,-838.41 1431.89,-844.48"/>
</g>
<!-- libignition&#45;gui&#45;&gt;libignition&#45;gazebo -->
<g id="edge22" class="edge">
<title>libignition&#45;gui&#45;&gt;libignition&#45;gazebo</title>
<path fill="none" stroke="black" d="M1560.66,-872.76C1544.82,-863.45 1524.7,-851.61 1507.37,-841.41"/>
<polygon fill="black" stroke="black" points="1509.24,-838.45 1498.84,-836.4 1505.69,-844.49 1509.24,-838.45"/>
</g>
<!-- libignition&#45;gui&#45;&gt;libignition&#45;launch -->
<g id="edge23" class="edge">
<title>libignition&#45;gui&#45;&gt;libignition&#45;launch</title>
<path fill="none" stroke="black" d="M1589.49,-871.59C1591.18,-847.61 1594.24,-804.14 1596.26,-775.42"/>
<polygon fill="black" stroke="black" points="1599.74,-775.84 1596.95,-765.62 1592.76,-775.35 1599.74,-775.84"/>
</g>
<!-- libignition&#45;gazebo&#45;&gt;libignition&#45;launch -->
<g id="edge24" class="edge">
<title>libignition&#45;gazebo&#45;&gt;libignition&#45;launch</title>
<path fill="none" stroke="black" d="M1499.83,-800.41C1517.18,-791 1539.11,-779.1 1557.87,-768.92"/>
<polygon fill="black" stroke="black" points="1559.46,-772.04 1566.58,-764.19 1556.12,-765.89 1559.46,-772.04"/>
</g>
<!-- gazebo -->
<g id="node24" class="node">
<title>gazebo</title>
<g id="a_node24"><a xlink:href="https://github.com/conda-forge/gazebo-feedstock" xlink:title="gazebo">
<ellipse fill="#ff8c00" stroke="black" cx="481.26" cy="-890" rx="46.47" ry="18"/>
<text text-anchor="middle" x="481.26" y="-885.33" font-family="Times,serif" font-size="14.00">gazebo</text>
</a>
</g>
</g>
<!-- gazebo&#45;&gt;gazebo&#45;yarp&#45;plugins -->
<g id="edge25" class="edge">
<title>gazebo&#45;&gt;gazebo&#45;yarp&#45;plugins</title>
<path fill="none" stroke="black" d="M472.06,-872.05C467.88,-864.35 462.82,-855.03 458.12,-846.36"/>
<polygon fill="black" stroke="black" points="461.21,-844.72 453.36,-837.61 455.06,-848.06 461.21,-844.72"/>
</g>
<!-- libignition&#45;fuel&#45;tools -->
<g id="node25" class="node">
<title>libignition&#45;fuel&#45;tools</title>
<g id="a_node25"><a xlink:href="https://github.com/conda-forge/libignition-fuel-tools-feedstock/pull/101" xlink:title="libignition fuel tools ❎">
<ellipse fill="#31688e" stroke="black" cx="1098.26" cy="-890" rx="126.97" ry="18"/>
<text text-anchor="middle" x="1098.26" y="-885.33" font-family="Times,serif" font-size="14.00" fill="white">libignition fuel tools ❎</text>
</a>
</g>
</g>
<!-- libignition&#45;fuel&#45;tools&#45;&gt;libignition&#45;gazebo -->
<g id="edge26" class="edge">
<title>libignition&#45;fuel&#45;tools&#45;&gt;libignition&#45;gazebo</title>
<path fill="none" stroke="black" d="M1172.45,-875C1235.58,-863.09 1326.02,-846.03 1390.45,-833.87"/>
<polygon fill="black" stroke="black" points="1391.09,-837.31 1400.27,-832.02 1389.79,-830.43 1391.09,-837.31"/>
</g>
<!-- tomviz -->
<g id="node27" class="node">
<title>tomviz</title>
<g id="a_node27"><a xlink:href="https://github.com/conda-forge/tomviz-feedstock" xlink:title="tomviz">
<ellipse fill="#ff8c00" stroke="black" cx="1828.26" cy="-638" rx="44.9" ry="18"/>
<text text-anchor="middle" x="1828.26" y="-633.33" font-family="Times,serif" font-size="14.00">tomviz</text>
</a>
</g>
</g>
<!-- go&#45;cockroach&#45;&gt;tomviz -->
<!-- protozfits -->
<g id="node30" class="node">
<title>protozfits</title>
<g id="a_node30"><a xlink:href="https://github.com/conda-forge/protozfits-feedstock/pull/48" xlink:title="protozfits ✓">
<ellipse fill="#31688e" stroke="black" cx="1828.26" cy="-566" rx="66.99" ry="18"/>
<text text-anchor="middle" x="1828.26" y="-561.33" font-family="Times,serif" font-size="14.00" fill="white">protozfits ✓</text>
</a>
</g>
</g>
<!-- tomviz&#45;&gt;protozfits -->
<!-- s2geometry -->
<g id="node28" class="node">
<title>s2geometry</title>
<g id="a_node28"><a xlink:href="https://github.com/conda-forge/s2geometry-feedstock/pull/23" xlink:title="s2geometry ❎">
<ellipse fill="#31688e" stroke="black" cx="1828.26" cy="-270" rx="85.93" ry="18"/>
<text text-anchor="middle" x="1828.26" y="-265.32" font-family="Times,serif" font-size="14.00" fill="white">s2geometry ❎</text>
</a>
</g>
</g>
<!-- s2geography -->
<g id="node29" class="node">
<title>s2geography</title>
<g id="a_node29"><a xlink:href="https://github.com/conda-forge/s2geography-feedstock" xlink:title="s2geography">
<ellipse fill="#fde725" stroke="black" cx="1828.26" cy="-198" rx="75.94" ry="18"/>
<text text-anchor="middle" x="1828.26" y="-193.32" font-family="Times,serif" font-size="14.00">s2geography</text>
</a>
</g>
</g>
<!-- s2geometry&#45;&gt;s2geography -->
<g id="edge29" class="edge">
<title>s2geometry&#45;&gt;s2geography</title>
<path fill="none" stroke="black" d="M1828.26,-251.7C1828.26,-244.41 1828.26,-235.73 1828.26,-227.54"/>
<polygon fill="black" stroke="black" points="1831.76,-227.62 1828.26,-217.62 1824.76,-227.62 1831.76,-227.62"/>
</g>
<!-- or&#45;tools -->
<g id="node31" class="node">
<title>or&#45;tools</title>
<g id="a_node31"><a xlink:href="https://github.com/conda-forge/or-tools-feedstock/pull/65" xlink:title="or tools ❎">
<ellipse fill="#31688e" stroke="black" cx="1828.26" cy="-494" rx="64.36" ry="18"/>
<text text-anchor="middle" x="1828.26" y="-489.32" font-family="Times,serif" font-size="14.00" fill="white">or tools ❎</text>
</a>
</g>
</g>
<!-- protozfits&#45;&gt;or&#45;tools -->
<!-- bear -->
<g id="node32" class="node">
<title>bear</title>
<g id="a_node32"><a xlink:href="https://github.com/conda-forge/bear-feedstock/pull/54" xlink:title="bear ❎">
<ellipse fill="#31688e" stroke="black" cx="1340.26" cy="-450" rx="49.1" ry="18"/>
<text text-anchor="middle" x="1340.26" y="-445.32" font-family="Times,serif" font-size="14.00" fill="white">bear ❎</text>
</a>
</g>
</g>
<!-- xilinx&#45;runtime -->
<g id="node33" class="node">
<title>xilinx&#45;runtime</title>
<g id="a_node33"><a xlink:href="https://github.com/conda-forge/xilinx-runtime-feedstock/pull/40" xlink:title="xilinx runtime ❎">
<ellipse fill="#31688e" stroke="black" cx="1340.26" cy="-378" rx="96.98" ry="18"/>
<text text-anchor="middle" x="1340.26" y="-373.32" font-family="Times,serif" font-size="14.00" fill="white">xilinx runtime ❎</text>
</a>
</g>
</g>
<!-- bear&#45;&gt;xilinx&#45;runtime -->
<!-- labmaze -->
<g id="node34" class="node">
<title>labmaze</title>
<g id="a_node34"><a xlink:href="https://github.com/conda-forge/labmaze-feedstock/pull/15" xlink:title="labmaze ✓">
<ellipse fill="#31688e" stroke="black" cx="1340.26" cy="-306" rx="60.68" ry="18"/>
<text text-anchor="middle" x="1340.26" y="-301.32" font-family="Times,serif" font-size="14.00" fill="white">labmaze ✓</text>
</a>
</g>
</g>
<!-- xilinx&#45;runtime&#45;&gt;labmaze -->
<!-- gnss&#45;sdr -->
<g id="node43" class="node">
<title>gnss&#45;sdr</title>
<g id="a_node43"><a xlink:href="https://github.com/conda-forge/gnss-sdr-feedstock/pull/37" xlink:title="gnss sdr ❎">
<ellipse fill="#31688e" stroke="black" cx="1340.26" cy="-234" rx="69.1" ry="18"/>
<text text-anchor="middle" x="1340.26" y="-229.32" font-family="Times,serif" font-size="14.00" fill="white">gnss sdr ❎</text>
</a>
</g>
</g>
<!-- labmaze&#45;&gt;gnss&#45;sdr -->
<!-- gz&#45;msgs -->
<g id="node35" class="node">
<title>gz&#45;msgs</title>
<g id="a_node35"><a xlink:href="https://github.com/conda-forge/gz-msgs-feedstock" xlink:title="gz msgs">
<ellipse fill="#000000" stroke="black" cx="486.26" cy="-378" rx="52.26" ry="18"/>
<text text-anchor="middle" x="486.26" y="-373.32" font-family="Times,serif" font-size="14.00" fill="white">gz msgs</text>
</a>
</g>
</g>
<!-- gz&#45;transport -->
<g id="node36" class="node">
<title>gz&#45;transport</title>
<g id="a_node36"><a xlink:href="https://github.com/conda-forge/gz-transport-feedstock" xlink:title="gz transport">
<ellipse fill="#fde725" stroke="black" cx="385.26" cy="-306" rx="73.3" ry="18"/>
<text text-anchor="middle" x="385.26" y="-301.32" font-family="Times,serif" font-size="14.00">gz transport</text>
</a>
</g>
</g>
<!-- gz&#45;msgs&#45;&gt;gz&#45;transport -->
<g id="edge34" class="edge">
<title>gz&#45;msgs&#45;&gt;gz&#45;transport</title>
<path fill="none" stroke="black" d="M463.85,-361.46C450.5,-352.21 433.31,-340.3 418.42,-329.98"/>
<polygon fill="black" stroke="black" points="420.48,-327.15 410.26,-324.33 416.49,-332.9 420.48,-327.15"/>
</g>
<!-- gz&#45;fuel&#45;tools -->
<g id="node37" class="node">
<title>gz&#45;fuel&#45;tools</title>
<g id="a_node37"><a xlink:href="https://github.com/conda-forge/gz-fuel-tools-feedstock" xlink:title="gz fuel tools">
<ellipse fill="#fde725" stroke="black" cx="586.26" cy="-306" rx="72.25" ry="18"/>
<text text-anchor="middle" x="586.26" y="-301.32" font-family="Times,serif" font-size="14.00">gz fuel tools</text>
</a>
</g>
</g>
<!-- gz&#45;msgs&#45;&gt;gz&#45;fuel&#45;tools -->
<g id="edge35" class="edge">
<title>gz&#45;msgs&#45;&gt;gz&#45;fuel&#45;tools</title>
<path fill="none" stroke="black" d="M508.45,-361.46C521.67,-352.21 538.69,-340.3 553.44,-329.98"/>
<polygon fill="black" stroke="black" points="555.31,-332.94 561.5,-324.34 551.3,-327.2 555.31,-332.94"/>
</g>
<!-- gz&#45;gui -->
<g id="node38" class="node">
<title>gz&#45;gui</title>
<g id="a_node38"><a xlink:href="https://github.com/conda-forge/gz-gui-feedstock" xlink:title="gz gui">
<ellipse fill="#fde725" stroke="black" cx="284.26" cy="-234" rx="41.74" ry="18"/>
<text text-anchor="middle" x="284.26" y="-229.32" font-family="Times,serif" font-size="14.00">gz gui</text>
</a>
</g>
</g>
<!-- gz&#45;msgs&#45;&gt;gz&#45;gui -->
<g id="edge36" class="edge">
<title>gz&#45;msgs&#45;&gt;gz&#45;gui</title>
<path fill="none" stroke="black" d="M434.26,-375.83C392.95,-372.03 336.73,-359.95 303.26,-324 288.35,-307.99 284.02,-283.26 283.17,-263.93"/>
<polygon fill="black" stroke="black" points="286.67,-263.91 283.06,-253.95 279.67,-263.98 286.67,-263.91"/>
</g>
<!-- gz&#45;sensors -->
<g id="node39" class="node">
<title>gz&#45;sensors</title>
<g id="a_node39"><a xlink:href="https://github.com/conda-forge/gz-sensors-feedstock" xlink:title="gz sensors">
<ellipse fill="#fde725" stroke="black" cx="522.26" cy="-234" rx="64.36" ry="18"/>
<text text-anchor="middle" x="522.26" y="-229.32" font-family="Times,serif" font-size="14.00">gz sensors</text>
</a>
</g>
</g>
<!-- gz&#45;msgs&#45;&gt;gz&#45;sensors -->
<g id="edge37" class="edge">
<title>gz&#45;msgs&#45;&gt;gz&#45;sensors</title>
<path fill="none" stroke="black" d="M489.4,-359.82C492.81,-341.8 498.67,-312.73 505.26,-288 507.46,-279.75 510.17,-270.88 512.77,-262.8"/>
<polygon fill="black" stroke="black" points="516.03,-264.09 515.84,-253.49 509.38,-261.9 516.03,-264.09"/>
</g>
<!-- gz&#45;sim -->
<g id="node40" class="node">
<title>gz&#45;sim</title>
<g id="a_node40"><a xlink:href="https://github.com/conda-forge/gz-sim-feedstock" xlink:title="gz sim">
<ellipse fill="#fde725" stroke="black" cx="497.26" cy="-162" rx="43.84" ry="18"/>
<text text-anchor="middle" x="497.26" y="-157.32" font-family="Times,serif" font-size="14.00">gz sim</text>
</a>
</g>
</g>
<!-- gz&#45;msgs&#45;&gt;gz&#45;sim -->
<g id="edge38" class="edge">
<title>gz&#45;msgs&#45;&gt;gz&#45;sim</title>
<path fill="none" stroke="black" d="M533.35,-369.71C581.41,-361.2 651.16,-345.49 667.26,-324 700.33,-279.86 614.33,-216.86 613.26,-216 592.36,-199.17 565.26,-186.4 542.51,-177.62"/>
<polygon fill="black" stroke="black" points="543.75,-174.34 533.15,-174.15 541.31,-180.91 543.75,-174.34"/>
</g>
<!-- gz&#45;launch -->
<g id="node41" class="node">
<title>gz&#45;launch</title>
<g id="a_node41"><a xlink:href="https://github.com/conda-forge/gz-launch-feedstock" xlink:title="gz launch">
<ellipse fill="#fde725" stroke="black" cx="297.26" cy="-90" rx="59.1" ry="18"/>
<text text-anchor="middle" x="297.26" y="-85.33" font-family="Times,serif" font-size="14.00">gz launch</text>
</a>
</g>
</g>
<!-- gz&#45;msgs&#45;&gt;gz&#45;launch -->
<g id="edge39" class="edge">
<title>gz&#45;msgs&#45;&gt;gz&#45;launch</title>
<path fill="none" stroke="black" d="M435.13,-373.73C391.12,-368.71 327.73,-356.03 282.26,-324 250.62,-301.71 244.65,-288.99 233.26,-252 218.18,-203.02 251.52,-147.93 275.51,-116.55"/>
<polygon fill="black" stroke="black" points="278.19,-118.8 281.65,-108.79 272.7,-114.46 278.19,-118.8"/>
</g>
<!-- gz&#45;sim&#45;yarp&#45;plugins -->
<g id="node42" class="node">
<title>gz&#45;sim&#45;yarp&#45;plugins</title>
<g id="a_node42"><a xlink:href="https://github.com/conda-forge/gz-sim-yarp-plugins-feedstock" xlink:title="gz sim yarp plugins">
<ellipse fill="#fde725" stroke="black" cx="497.26" cy="-90" rx="109.61" ry="18"/>
<text text-anchor="middle" x="497.26" y="-85.33" font-family="Times,serif" font-size="14.00">gz sim yarp plugins</text>
</a>
</g>
</g>
<!-- gz&#45;msgs&#45;&gt;gz&#45;sim&#45;yarp&#45;plugins -->
<g id="edge40" class="edge">
<title>gz&#45;msgs&#45;&gt;gz&#45;sim&#45;yarp&#45;plugins</title>
<path fill="none" stroke="black" d="M534.62,-370.89C587.45,-363.1 667.02,-347.74 685.26,-324 745.84,-245.18 610.97,-154.08 538.88,-113.05"/>
<polygon fill="black" stroke="black" points="540.9,-110.17 530.47,-108.34 537.48,-116.28 540.9,-110.17"/>
</g>
<!-- gz&#45;transport&#45;&gt;gz&#45;gui -->
<g id="edge41" class="edge">
<title>gz&#45;transport&#45;&gt;gz&#45;gui</title>
<path fill="none" stroke="black" d="M361.58,-288.59C347.71,-278.97 330.04,-266.73 315.09,-256.37"/>
<polygon fill="black" stroke="black" points="317.18,-253.56 306.97,-250.74 313.2,-259.31 317.18,-253.56"/>
</g>
<!-- gz&#45;transport&#45;&gt;gz&#45;sensors -->
<g id="edge42" class="edge">
<title>gz&#45;transport&#45;&gt;gz&#45;sensors</title>
<path fill="none" stroke="black" d="M416.01,-289.29C435.67,-279.24 461.36,-266.12 482.56,-255.28"/>
<polygon fill="black" stroke="black" points="483.9,-258.53 491.21,-250.86 480.71,-252.3 483.9,-258.53"/>
</g>
<!-- gz&#45;transport&#45;&gt;gz&#45;sim -->
<g id="edge43" class="edge">
<title>gz&#45;transport&#45;&gt;gz&#45;sim</title>
<path fill="none" stroke="black" d="M396.74,-287.85C409.15,-269.61 429.76,-240.13 449.26,-216 456.99,-206.44 465.91,-196.35 473.96,-187.57"/>
<polygon fill="black" stroke="black" points="476.37,-190.11 480.61,-180.4 471.24,-185.35 476.37,-190.11"/>
</g>
<!-- gz&#45;transport&#45;&gt;gz&#45;launch -->
<g id="edge44" class="edge">
<title>gz&#45;transport&#45;&gt;gz&#45;launch</title>
<path fill="none" stroke="black" d="M378.21,-287.85C363.02,-250.91 327.1,-163.55 308.64,-118.67"/>
<polygon fill="black" stroke="black" points="311.96,-117.55 304.92,-109.63 305.49,-120.21 311.96,-117.55"/>
</g>
<!-- gz&#45;transport&#45;&gt;gz&#45;sim&#45;yarp&#45;plugins -->
<g id="edge45" class="edge">
<title>gz&#45;transport&#45;&gt;gz&#45;sim&#45;yarp&#45;plugins</title>
<path fill="none" stroke="black" d="M388.93,-287.92C396.06,-257.27 413.82,-191.67 444.26,-144 450.72,-133.88 459.41,-124.17 467.88,-115.9"/>
<polygon fill="black" stroke="black" points="470.16,-118.55 475.08,-109.16 465.38,-113.44 470.16,-118.55"/>
</g>
<!-- gz&#45;fuel&#45;tools&#45;&gt;gz&#45;sim -->
<g id="edge46" class="edge">
<title>gz&#45;fuel&#45;tools&#45;&gt;gz&#45;sim</title>
<path fill="none" stroke="black" d="M593.84,-287.6C600.85,-268.62 608.38,-238.01 595.26,-216 584.06,-197.21 563.64,-184.68 544.33,-176.55"/>
<polygon fill="black" stroke="black" points="545.78,-173.36 535.19,-173.01 543.25,-179.89 545.78,-173.36"/>
</g>
<!-- gz&#45;gui&#45;&gt;gz&#45;sim -->
<g id="edge47" class="edge">
<title>gz&#45;gui&#45;&gt;gz&#45;sim</title>
<path fill="none" stroke="black" d="M316.61,-222.37C353.07,-210.39 412.55,-190.84 453.22,-177.47"/>
<polygon fill="black" stroke="black" points="454.06,-180.88 462.47,-174.44 451.87,-174.23 454.06,-180.88"/>
</g>
<!-- gz&#45;gui&#45;&gt;gz&#45;launch -->
<g id="edge48" class="edge">
<title>gz&#45;gui&#45;&gt;gz&#45;launch</title>
<path fill="none" stroke="black" d="M285.86,-215.59C288.05,-191.61 292.03,-148.14 294.66,-119.42"/>
<polygon fill="black" stroke="black" points="298.13,-119.9 295.56,-109.62 291.16,-119.26 298.13,-119.9"/>
</g>
<!-- gz&#45;sensors&#45;&gt;gz&#45;sim -->
<g id="edge49" class="edge">
<title>gz&#45;sensors&#45;&gt;gz&#45;sim</title>
<path fill="none" stroke="black" d="M516.08,-215.7C513.39,-208.15 510.16,-199.12 507.15,-190.68"/>
<polygon fill="black" stroke="black" points="510.54,-189.77 503.88,-181.53 503.95,-192.12 510.54,-189.77"/>
</g>
<!-- gz&#45;sim&#45;&gt;gz&#45;launch -->
<g id="edge50" class="edge">
<title>gz&#45;sim&#45;&gt;gz&#45;launch</title>
<path fill="none" stroke="black" d="M464.68,-149.6C432.34,-138.28 382.4,-120.8 345.47,-107.87"/>
<polygon fill="black" stroke="black" points="346.96,-104.69 336.37,-104.69 344.65,-111.3 346.96,-104.69"/>
</g>
<!-- gz&#45;sim&#45;&gt;gz&#45;sim&#45;yarp&#45;plugins -->
<g id="edge51" class="edge">
<title>gz&#45;sim&#45;&gt;gz&#45;sim&#45;yarp&#45;plugins</title>
<path fill="none" stroke="black" d="M497.26,-143.7C497.26,-136.41 497.26,-127.73 497.26,-119.54"/>
<polygon fill="black" stroke="black" points="500.76,-119.62 497.26,-109.62 493.76,-119.62 500.76,-119.62"/>
</g>
<!-- tensorstore -->
<g id="node46" class="node">
<title>tensorstore</title>
<g id="a_node46"><a xlink:href="https://github.com/conda-forge/tensorstore-feedstock/pull/54" xlink:title="tensorstore ❎">
<ellipse fill="#31688e" stroke="black" cx="1340.26" cy="-162" rx="84.35" ry="18"/>
<text text-anchor="middle" x="1340.26" y="-157.32" font-family="Times,serif" font-size="14.00" fill="white">tensorstore ❎</text>
</a>
</g>
</g>
<!-- gnss&#45;sdr&#45;&gt;tensorstore -->
<!-- openvino -->
<g id="node44" class="node">
<title>openvino</title>
<g id="a_node44"><a xlink:href="https://github.com/conda-forge/openvino-feedstock/pull/129" xlink:title="openvino ❎">
<ellipse fill="#31688e" stroke="black" cx="449.26" cy="-962" rx="71.73" ry="18"/>
<text text-anchor="middle" x="449.26" y="-957.33" font-family="Times,serif" font-size="14.00" fill="white">openvino ❎</text>
</a>
</g>
</g>
<!-- openvino&#45;&gt;opencv -->
<g id="edge53" class="edge">
<title>openvino&#45;&gt;opencv</title>
<path fill="none" stroke="black" d="M481,-945.46C502.69,-934.85 531.54,-920.72 554.43,-909.52"/>
<polygon fill="black" stroke="black" points="555.68,-912.81 563.12,-905.27 552.6,-906.52 555.68,-912.81"/>
</g>
<!-- openvino&#45;tokenizers -->
<g id="node45" class="node">
<title>openvino&#45;tokenizers</title>
<g id="a_node45"><a xlink:href="https://github.com/conda-forge/openvino-tokenizers-feedstock" xlink:title="openvino tokenizers">
<ellipse fill="#fde725" stroke="black" cx="305.26" cy="-890" rx="111.71" ry="18"/>
<text text-anchor="middle" x="305.26" y="-885.33" font-family="Times,serif" font-size="14.00">openvino tokenizers</text>
</a>
</g>
</g>
<!-- openvino&#45;&gt;openvino&#45;tokenizers -->
<g id="edge54" class="edge">
<title>openvino&#45;&gt;openvino&#45;tokenizers</title>
<path fill="none" stroke="black" d="M417.3,-945.46C397.35,-935.76 371.37,-923.14 349.46,-912.48"/>
<polygon fill="black" stroke="black" points="351.28,-909.48 340.75,-908.25 348.21,-915.77 351.28,-909.48"/>
</g>
<!-- bfiocpp -->
<g id="node47" class="node">
<title>bfiocpp</title>
<g id="a_node47"><a xlink:href="https://github.com/conda-forge/bfiocpp-feedstock/pull/14" xlink:title="bfiocpp ✓">
<ellipse fill="#31688e" stroke="black" cx="1340.26" cy="-90" rx="55.42" ry="18"/>
<text text-anchor="middle" x="1340.26" y="-85.33" font-family="Times,serif" font-size="14.00" fill="white">bfiocpp ✓</text>
</a>
</g>
</g>
<!-- tensorstore&#45;&gt;bfiocpp -->
<!-- mysqlx&#45;connector&#45;python -->
<g id="node48" class="node">
<title>mysqlx&#45;connector&#45;python</title>
<g id="a_node48"><a xlink:href="https://github.com/conda-forge/mysqlx-connector-python-feedstock/pull/11" xlink:title="mysqlx connector python ✓">
<ellipse fill="#31688e" stroke="black" cx="1340.26" cy="-18" rx="145.38" ry="18"/>
<text text-anchor="middle" x="1340.26" y="-13.32" font-family="Times,serif" font-size="14.00" fill="white">mysqlx connector python ✓</text>
</a>
</g>
</g>
<!-- bfiocpp&#45;&gt;mysqlx&#45;connector&#45;python -->
</g>
</svg>
