<?xml version="1.0" encoding="UTF-8" standalone="no"?>
<!DOCTYPE svg PUBLIC "-//W3C//DTD SVG 1.1//EN"
 "http://www.w3.org/Graphics/SVG/1.1/DTD/svg11.dtd">
<!-- Generated by graphviz version 12.2.1 (20250203.1708)
 -->
<!-- Pages: 1 -->
<svg width="1970pt" height="1312pt"
 viewBox="0.00 0.00 1970.07 1312.00" xmlns="http://www.w3.org/2000/svg" xmlns:xlink="http://www.w3.org/1999/xlink">
<g id="graph0" class="graph" transform="scale(1 1) rotate(0) translate(4 1308)">
<polygon fill="white" stroke="none" points="-4,4 -4,-1308 1966.07,-1308 1966.07,4 -4,4"/>
<!-- opencv -->
<g id="node1" class="node">
<title>opencv</title>
<g id="a_node1"><a xlink:href="https://github.com/conda-forge/opencv-feedstock" xlink:title="opencv">
<ellipse fill="#fde725" stroke="black" cx="1702.08" cy="-962" rx="46.47" ry="18"/>
<text text-anchor="middle" x="1702.08" y="-957.33" font-family="Times,serif" font-size="14.00">opencv</text>
</a>
</g>
</g>
<!-- ray&#45;packages -->
<g id="node2" class="node">
<title>ray&#45;packages</title>
<g id="a_node2"><a xlink:href="https://github.com/conda-forge/ray-packages-feedstock" xlink:title="ray packages">
<ellipse fill="#fde725" stroke="black" cx="1885.08" cy="-890" rx="76.99" ry="18"/>
<text text-anchor="middle" x="1885.08" y="-885.33" font-family="Times,serif" font-size="14.00">ray packages</text>
</a>
</g>
</g>
<!-- opencv&#45;&gt;ray&#45;packages -->
<g id="edge1" class="edge">
<title>opencv&#45;&gt;ray&#45;packages</title>
<path fill="none" stroke="black" d="M1734.38,-948.65C1762.41,-937.93 1803.42,-922.24 1835.58,-909.94"/>
<polygon fill="black" stroke="black" points="1836.62,-913.29 1844.71,-906.44 1834.12,-906.75 1836.62,-913.29"/>
</g>
<!-- imp -->
<g id="node3" class="node">
<title>imp</title>
<g id="a_node3"><a xlink:href="https://github.com/conda-forge/imp-feedstock" xlink:title="imp">
<ellipse fill="#fde725" stroke="black" cx="1760.08" cy="-890" rx="30.16" ry="18"/>
<text text-anchor="middle" x="1760.08" y="-885.33" font-family="Times,serif" font-size="14.00">imp</text>
</a>
</g>
</g>
<!-- opencv&#45;&gt;imp -->
<g id="edge2" class="edge">
<title>opencv&#45;&gt;imp</title>
<path fill="none" stroke="black" d="M1715.83,-944.41C1723.04,-935.71 1732.01,-924.89 1739.98,-915.26"/>
<polygon fill="black" stroke="black" points="1742.58,-917.61 1746.27,-907.68 1737.19,-913.14 1742.58,-917.61"/>
</g>
<!-- gazebo&#45;yarp&#45;plugins -->
<g id="node4" class="node">
<title>gazebo&#45;yarp&#45;plugins</title>
<g id="a_node4"><a xlink:href="https://github.com/conda-forge/gazebo-yarp-plugins-feedstock" xlink:title="gazebo yarp plugins">
<ellipse fill="#fde725" stroke="black" cx="1562.08" cy="-890" rx="112.24" ry="18"/>
<text text-anchor="middle" x="1562.08" y="-885.33" font-family="Times,serif" font-size="14.00">gazebo yarp plugins</text>
</a>
</g>
</g>
<!-- opencv&#45;&gt;gazebo&#45;yarp&#45;plugins -->
<g id="edge3" class="edge">
<title>opencv&#45;&gt;gazebo&#45;yarp&#45;plugins</title>
<path fill="none" stroke="black" d="M1674.43,-947.17C1654.73,-937.32 1627.87,-923.89 1605.36,-912.64"/>
<polygon fill="black" stroke="black" points="1607.22,-909.66 1596.71,-908.31 1604.09,-915.92 1607.22,-909.66"/>
</g>
<!-- nvidia&#45;dali&#45;python -->
<g id="node5" class="node">
<title>nvidia&#45;dali&#45;python</title>
<g id="a_node5"><a xlink:href="https://github.com/conda-forge/nvidia-dali-python-feedstock" xlink:title="nvidia dali python">
<ellipse fill="#fde725" stroke="black" cx="1702.08" cy="-818" rx="101.19" ry="18"/>
<text text-anchor="middle" x="1702.08" y="-813.33" font-family="Times,serif" font-size="14.00">nvidia dali python</text>
</a>
</g>
</g>
<!-- opencv&#45;&gt;nvidia&#45;dali&#45;python -->
<g id="edge4" class="edge">
<title>opencv&#45;&gt;nvidia&#45;dali&#45;python</title>
<path fill="none" stroke="black" d="M1702.08,-943.59C1702.08,-919.61 1702.08,-876.14 1702.08,-847.42"/>
<polygon fill="black" stroke="black" points="1705.58,-847.62 1702.08,-837.62 1698.58,-847.62 1705.58,-847.62"/>
</g>
<!-- qgis -->
<g id="node6" class="node">
<title>qgis</title>
<g id="a_node6"><a xlink:href="https://github.com/conda-forge/qgis-feedstock/pull/511" xlink:title="qgis ❎">
<ellipse fill="#31688e" stroke="black" cx="264.08" cy="-1286" rx="47.53" ry="18"/>
<text text-anchor="middle" x="264.08" y="-1281.33" font-family="Times,serif" font-size="14.00" fill="white">qgis ❎</text>
</a>
</g>
</g>
<!-- tiledb -->
<g id="node7" class="node">
<title>tiledb</title>
<g id="a_node7"><a xlink:href="https://github.com/conda-forge/tiledb-feedstock/pull/430" xlink:title="tiledb ❎">
<ellipse fill="#31688e" stroke="black" cx="264.08" cy="-1214" rx="55.42" ry="18"/>
<text text-anchor="middle" x="264.08" y="-1209.33" font-family="Times,serif" font-size="14.00" fill="white">tiledb ❎</text>
</a>
</g>
</g>
<!-- qgis&#45;&gt;tiledb -->
<!-- pyaudi -->
<g id="node8" class="node">
<title>pyaudi</title>
<g id="a_node8"><a xlink:href="https://github.com/conda-forge/pyaudi-feedstock/pull/47" xlink:title="pyaudi ❎">
<ellipse fill="#31688e" stroke="black" cx="264.08" cy="-1142" rx="60.15" ry="18"/>
<text text-anchor="middle" x="264.08" y="-1137.33" font-family="Times,serif" font-size="14.00" fill="white">pyaudi ❎</text>
</a>
</g>
</g>
<!-- tiledb&#45;&gt;pyaudi -->
<!-- tensorflow -->
<g id="node9" class="node">
<title>tensorflow</title>
<g id="a_node9"><a xlink:href="https://github.com/conda-forge/tensorflow-feedstock/pull/424" xlink:title="tensorflow ❎">
<ellipse fill="#31688e" stroke="black" cx="264.08" cy="-1070" rx="79.09" ry="18"/>
<text text-anchor="middle" x="264.08" y="-1065.33" font-family="Times,serif" font-size="14.00" fill="white">tensorflow ❎</text>
</a>
</g>
</g>
<!-- pyaudi&#45;&gt;tensorflow -->
<!-- mongodb -->
<g id="node10" class="node">
<title>mongodb</title>
<g id="a_node10"><a xlink:href="https://github.com/conda-forge/mongodb-feedstock/pull/101" xlink:title="mongodb ❎">
<ellipse fill="#31688e" stroke="black" cx="264.08" cy="-998" rx="72.78" ry="18"/>
<text text-anchor="middle" x="264.08" y="-993.33" font-family="Times,serif" font-size="14.00" fill="white">mongodb ❎</text>
</a>
</g>
</g>
<!-- tensorflow&#45;&gt;mongodb -->
<!-- google&#45;cloud&#45;cpp -->
<g id="node11" class="node">
<title>google&#45;cloud&#45;cpp</title>
<g id="a_node11"><a xlink:href="https://github.com/conda-forge/google-cloud-cpp-feedstock/pull/196" xlink:title="google cloud cpp ❎">
<ellipse fill="#31688e" stroke="black" cx="264.08" cy="-926" rx="110.66" ry="18"/>
<text text-anchor="middle" x="264.08" y="-921.33" font-family="Times,serif" font-size="14.00" fill="white">google cloud cpp ❎</text>
</a>
</g>
</g>
<!-- mongodb&#45;&gt;google&#45;cloud&#45;cpp -->
<!-- go&#45;cockroach -->
<g id="node21" class="node">
<title>go&#45;cockroach</title>
<g id="a_node21"><a xlink:href="https://github.com/conda-forge/go-cockroach-feedstock/pull/32" xlink:title="go cockroach ❎">
<ellipse fill="#31688e" stroke="black" cx="264.08" cy="-854" rx="91.72" ry="18"/>
<text text-anchor="middle" x="264.08" y="-849.33" font-family="Times,serif" font-size="14.00" fill="white">go cockroach ❎</text>
</a>
</g>
</g>
<!-- google&#45;cloud&#45;cpp&#45;&gt;go&#45;cockroach -->
<!-- jaxlib -->
<g id="node12" class="node">
<title>jaxlib</title>
<g id="a_node12"><a xlink:href="https://github.com/conda-forge/jaxlib-feedstock/pull/307" xlink:title="jaxlib ❎">
<ellipse fill="#31688e" stroke="black" cx="1885.08" cy="-1034" rx="53.84" ry="18"/>
<text text-anchor="middle" x="1885.08" y="-1029.33" font-family="Times,serif" font-size="14.00" fill="white">jaxlib ❎</text>
</a>
</g>
</g>
<!-- mujoco -->
<g id="node13" class="node">
<title>mujoco</title>
<g id="a_node13"><a xlink:href="https://github.com/conda-forge/mujoco-feedstock" xlink:title="mujoco">
<ellipse fill="#fde725" stroke="black" cx="1885.08" cy="-962" rx="47" ry="18"/>
<text text-anchor="middle" x="1885.08" y="-957.33" font-family="Times,serif" font-size="14.00">mujoco</text>
</a>
</g>
</g>
<!-- jaxlib&#45;&gt;mujoco -->
<g id="edge10" class="edge">
<title>jaxlib&#45;&gt;mujoco</title>
<path fill="none" stroke="black" d="M1885.08,-1015.7C1885.08,-1008.41 1885.08,-999.73 1885.08,-991.54"/>
<polygon fill="black" stroke="black" points="1888.58,-991.62 1885.08,-981.62 1881.58,-991.62 1888.58,-991.62"/>
</g>
<!-- mujoco&#45;&gt;ray&#45;packages -->
<g id="edge11" class="edge">
<title>mujoco&#45;&gt;ray&#45;packages</title>
<path fill="none" stroke="black" d="M1885.08,-943.7C1885.08,-936.41 1885.08,-927.73 1885.08,-919.54"/>
<polygon fill="black" stroke="black" points="1888.58,-919.62 1885.08,-909.62 1881.58,-919.62 1888.58,-919.62"/>
</g>
<!-- libignition&#45;transport4 -->
<g id="node14" class="node">
<title>libignition&#45;transport4</title>
<g id="a_node14"><a xlink:href="https://github.com/conda-forge/libignition-transport4-feedstock/pull/106" xlink:title="libignition transport4 ✓">
<ellipse fill="#31688e" stroke="black" cx="1082.08" cy="-1034" rx="126.97" ry="18"/>
<text text-anchor="middle" x="1082.08" y="-1029.33" font-family="Times,serif" font-size="14.00" fill="white">libignition transport4 ✓</text>
</a>
</g>
</g>
<!-- libignition&#45;sensors -->
<g id="node15" class="node">
<title>libignition&#45;sensors</title>
<g id="a_node15"><a xlink:href="https://github.com/conda-forge/libignition-sensors-feedstock" xlink:title="libignition sensors">
<ellipse fill="#fde725" stroke="black" cx="896.08" cy="-962" rx="103.82" ry="18"/>
<text text-anchor="middle" x="896.08" y="-957.33" font-family="Times,serif" font-size="14.00">libignition sensors</text>
</a>
</g>
</g>
<!-- libignition&#45;transport4&#45;&gt;libignition&#45;sensors -->
<g id="edge12" class="edge">
<title>libignition&#45;transport4&#45;&gt;libignition&#45;sensors</title>
<path fill="none" stroke="black" d="M1038.94,-1016.76C1012.11,-1006.67 977.41,-993.61 948.93,-982.89"/>
<polygon fill="black" stroke="black" points="950.36,-979.69 939.77,-979.44 947.89,-986.24 950.36,-979.69"/>
</g>
<!-- libignition&#45;gui -->
<g id="node16" class="node">
<title>libignition&#45;gui</title>
<g id="a_node16"><a xlink:href="https://github.com/conda-forge/libignition-gui-feedstock" xlink:title="libignition gui">
<ellipse fill="#fde725" stroke="black" cx="1137.08" cy="-962" rx="81.2" ry="18"/>
<text text-anchor="middle" x="1137.08" y="-957.33" font-family="Times,serif" font-size="14.00">libignition gui</text>
</a>
</g>
</g>
<!-- libignition&#45;transport4&#45;&gt;libignition&#45;gui -->
<g id="edge13" class="edge">
<title>libignition&#45;transport4&#45;&gt;libignition&#45;gui</title>
<path fill="none" stroke="black" d="M1095.68,-1015.7C1102.01,-1007.64 1109.67,-997.89 1116.67,-988.98"/>
<polygon fill="black" stroke="black" points="1119.28,-991.32 1122.71,-981.29 1113.78,-987 1119.28,-991.32"/>
</g>
<!-- libignition&#45;gazebo -->
<g id="node17" class="node">
<title>libignition&#45;gazebo</title>
<g id="a_node17"><a xlink:href="https://github.com/conda-forge/libignition-gazebo-feedstock" xlink:title="libignition gazebo">
<ellipse fill="#fde725" stroke="black" cx="1018.08" cy="-890" rx="100.66" ry="18"/>
<text text-anchor="middle" x="1018.08" y="-885.33" font-family="Times,serif" font-size="14.00">libignition gazebo</text>
</a>
</g>
</g>
<!-- libignition&#45;transport4&#45;&gt;libignition&#45;gazebo -->
<g id="edge14" class="edge">
<title>libignition&#45;transport4&#45;&gt;libignition&#45;gazebo</title>
<path fill="none" stroke="black" d="M1069.18,-1016.03C1061.97,-1005.96 1053.22,-992.71 1047.08,-980 1037.65,-960.43 1030.16,-937.02 1025.15,-919.13"/>
<polygon fill="black" stroke="black" points="1028.6,-918.47 1022.62,-909.72 1021.84,-920.28 1028.6,-918.47"/>
</g>
<!-- libignition&#45;launch -->
<g id="node18" class="node">
<title>libignition&#45;launch</title>
<g id="a_node18"><a xlink:href="https://github.com/conda-forge/libignition-launch-feedstock" xlink:title="libignition launch">
<ellipse fill="#fde725" stroke="black" cx="1147.08" cy="-818" rx="98.56" ry="18"/>
<text text-anchor="middle" x="1147.08" y="-813.33" font-family="Times,serif" font-size="14.00">libignition launch</text>
</a>
</g>
</g>
<!-- libignition&#45;transport4&#45;&gt;libignition&#45;launch -->
<g id="edge15" class="edge">
<title>libignition&#45;transport4&#45;&gt;libignition&#45;launch</title>
<path fill="none" stroke="black" d="M1167.35,-1020.37C1190.5,-1012.6 1213.03,-1000.1 1227.08,-980 1258.41,-935.2 1209.42,-876.33 1175.35,-843.62"/>
<polygon fill="black" stroke="black" points="1177.88,-841.19 1168.18,-836.93 1173.1,-846.31 1177.88,-841.19"/>
</g>
<!-- libignition&#45;sensors&#45;&gt;libignition&#45;gazebo -->
<g id="edge16" class="edge">
<title>libignition&#45;sensors&#45;&gt;libignition&#45;gazebo</title>
<path fill="none" stroke="black" d="M925,-944.41C941.14,-935.15 961.47,-923.49 979,-913.42"/>
<polygon fill="black" stroke="black" points="980.71,-916.48 987.64,-908.47 977.23,-910.41 980.71,-916.48"/>
</g>
<!-- libignition&#45;gui&#45;&gt;libignition&#45;gazebo -->
<g id="edge17" class="edge">
<title>libignition&#45;gui&#45;&gt;libignition&#45;gazebo</title>
<path fill="none" stroke="black" d="M1109.48,-944.76C1093.64,-935.45 1073.52,-923.61 1056.19,-913.41"/>
<polygon fill="black" stroke="black" points="1058.06,-910.45 1047.67,-908.4 1054.51,-916.49 1058.06,-910.45"/>
</g>
<!-- libignition&#45;gui&#45;&gt;libignition&#45;launch -->
<g id="edge18" class="edge">
<title>libignition&#45;gui&#45;&gt;libignition&#45;launch</title>
<path fill="none" stroke="black" d="M1138.31,-943.59C1140,-919.61 1143.06,-876.14 1145.08,-847.42"/>
<polygon fill="black" stroke="black" points="1148.56,-847.84 1145.77,-837.62 1141.58,-847.35 1148.56,-847.84"/>
</g>
<!-- libignition&#45;gazebo&#45;&gt;libignition&#45;launch -->
<g id="edge19" class="edge">
<title>libignition&#45;gazebo&#45;&gt;libignition&#45;launch</title>
<path fill="none" stroke="black" d="M1048.66,-872.41C1066.01,-863 1087.94,-851.1 1106.69,-840.92"/>
<polygon fill="black" stroke="black" points="1108.28,-844.04 1115.4,-836.19 1104.94,-837.89 1108.28,-844.04"/>
</g>
<!-- gazebo -->
<g id="node19" class="node">
<title>gazebo</title>
<g id="a_node19"><a xlink:href="https://github.com/conda-forge/gazebo-feedstock/pull/237" xlink:title="gazebo ❎">
<ellipse fill="#31688e" stroke="black" cx="1569.08" cy="-962" rx="61.73" ry="18"/>
<text text-anchor="middle" x="1569.08" y="-957.33" font-family="Times,serif" font-size="14.00" fill="white">gazebo ❎</text>
</a>
</g>
</g>
<!-- gazebo&#45;&gt;gazebo&#45;yarp&#45;plugins -->
<g id="edge20" class="edge">
<title>gazebo&#45;&gt;gazebo&#45;yarp&#45;plugins</title>
<path fill="none" stroke="black" d="M1567.35,-943.7C1566.63,-936.41 1565.76,-927.73 1564.94,-919.54"/>
<polygon fill="black" stroke="black" points="1568.42,-919.21 1563.95,-909.61 1561.46,-919.91 1568.42,-919.21"/>
</g>
<!-- libignition&#45;fuel&#45;tools -->
<g id="node20" class="node">
<title>libignition&#45;fuel&#45;tools</title>
<g id="a_node20"><a xlink:href="https://github.com/conda-forge/libignition-fuel-tools-feedstock/pull/101" xlink:title="libignition fuel tools ✓">
<ellipse fill="#31688e" stroke="black" cx="655.08" cy="-962" rx="119.6" ry="18"/>
<text text-anchor="middle" x="655.08" y="-957.33" font-family="Times,serif" font-size="14.00" fill="white">libignition fuel tools ✓</text>
</a>
</g>
</g>
<!-- libignition&#45;fuel&#45;tools&#45;&gt;libignition&#45;gazebo -->
<g id="edge21" class="edge">
<title>libignition&#45;fuel&#45;tools&#45;&gt;libignition&#45;gazebo</title>
<path fill="none" stroke="black" d="M726.8,-947.17C788.4,-935.29 877.01,-918.2 940.3,-906"/>
<polygon fill="black" stroke="black" points="940.77,-909.47 949.93,-904.14 939.44,-902.6 940.77,-909.47"/>
</g>
<!-- tomviz -->
<g id="node22" class="node">
<title>tomviz</title>
<g id="a_node22"><a xlink:href="https://github.com/conda-forge/tomviz-feedstock/pull/73" xlink:title="tomviz ❎">
<ellipse fill="#31688e" stroke="black" cx="264.08" cy="-782" rx="60.15" ry="18"/>
<text text-anchor="middle" x="264.08" y="-777.33" font-family="Times,serif" font-size="14.00" fill="white">tomviz ❎</text>
</a>
</g>
</g>
<!-- go&#45;cockroach&#45;&gt;tomviz -->
<!-- protozfits -->
<g id="node25" class="node">
<title>protozfits</title>
<g id="a_node25"><a xlink:href="https://github.com/conda-forge/protozfits-feedstock/pull/48" xlink:title="protozfits ✓">
<ellipse fill="#31688e" stroke="black" cx="264.08" cy="-710" rx="66.99" ry="18"/>
<text text-anchor="middle" x="264.08" y="-705.33" font-family="Times,serif" font-size="14.00" fill="white">protozfits ✓</text>
</a>
</g>
</g>
<!-- tomviz&#45;&gt;protozfits -->
<!-- s2geometry -->
<g id="node23" class="node">
<title>s2geometry</title>
<g id="a_node23"><a xlink:href="https://github.com/conda-forge/s2geometry-feedstock/pull/23" xlink:title="s2geometry ✓">
<ellipse fill="#31688e" stroke="black" cx="1614.08" cy="-306" rx="78.57" ry="18"/>
<text text-anchor="middle" x="1614.08" y="-301.32" font-family="Times,serif" font-size="14.00" fill="white">s2geometry ✓</text>
</a>
</g>
</g>
<!-- s2geography -->
<g id="node24" class="node">
<title>s2geography</title>
<g id="a_node24"><a xlink:href="https://github.com/conda-forge/s2geography-feedstock" xlink:title="s2geography">
<ellipse fill="#fde725" stroke="black" cx="1614.08" cy="-234" rx="75.94" ry="18"/>
<text text-anchor="middle" x="1614.08" y="-229.32" font-family="Times,serif" font-size="14.00">s2geography</text>
</a>
</g>
</g>
<!-- s2geometry&#45;&gt;s2geography -->
<g id="edge24" class="edge">
<title>s2geometry&#45;&gt;s2geography</title>
<path fill="none" stroke="black" d="M1614.08,-287.7C1614.08,-280.41 1614.08,-271.73 1614.08,-263.54"/>
<polygon fill="black" stroke="black" points="1617.58,-263.62 1614.08,-253.62 1610.58,-263.62 1617.58,-263.62"/>
</g>
<!-- or&#45;tools -->
<g id="node26" class="node">
<title>or&#45;tools</title>
<g id="a_node26"><a xlink:href="https://github.com/conda-forge/or-tools-feedstock/pull/65" xlink:title="or tools ❎">
<ellipse fill="#31688e" stroke="black" cx="264.08" cy="-638" rx="64.36" ry="18"/>
<text text-anchor="middle" x="264.08" y="-633.33" font-family="Times,serif" font-size="14.00" fill="white">or tools ❎</text>
</a>
</g>
</g>
<!-- protozfits&#45;&gt;or&#45;tools -->
<!-- bear -->
<g id="node27" class="node">
<title>bear</title>
<g id="a_node27"><a xlink:href="https://github.com/conda-forge/bear-feedstock/pull/54" xlink:title="bear ❎">
<ellipse fill="#31688e" stroke="black" cx="264.08" cy="-566" rx="49.1" ry="18"/>
<text text-anchor="middle" x="264.08" y="-561.33" font-family="Times,serif" font-size="14.00" fill="white">bear ❎</text>
</a>
</g>
</g>
<!-- or&#45;tools&#45;&gt;bear -->
<!-- datafusion -->
<g id="node28" class="node">
<title>datafusion</title>
<g id="a_node28"><a xlink:href="https://github.com/conda-forge/datafusion-feedstock/pull/66" xlink:title="datafusion ❎">
<ellipse fill="#31688e" stroke="black" cx="897.08" cy="-522" rx="79.09" ry="18"/>
<text text-anchor="middle" x="897.08" y="-517.33" font-family="Times,serif" font-size="14.00" fill="white">datafusion ❎</text>
</a>
</g>
</g>
<!-- xilinx&#45;runtime -->
<g id="node29" class="node">
<title>xilinx&#45;runtime</title>
<g id="a_node29"><a xlink:href="https://github.com/conda-forge/xilinx-runtime-feedstock/pull/40" xlink:title="xilinx runtime ❎">
<ellipse fill="#31688e" stroke="black" cx="897.08" cy="-450" rx="96.98" ry="18"/>
<text text-anchor="middle" x="897.08" y="-445.32" font-family="Times,serif" font-size="14.00" fill="white">xilinx runtime ❎</text>
</a>
</g>
</g>
<!-- datafusion&#45;&gt;xilinx&#45;runtime -->
<!-- labmaze -->
<g id="node30" class="node">
<title>labmaze</title>
<g id="a_node30"><a xlink:href="https://github.com/conda-forge/labmaze-feedstock/pull/15" xlink:title="labmaze ✓">
<ellipse fill="#31688e" stroke="black" cx="897.08" cy="-378" rx="60.68" ry="18"/>
<text text-anchor="middle" x="897.08" y="-373.32" font-family="Times,serif" font-size="14.00" fill="white">labmaze ✓</text>
</a>
</g>
</g>
<!-- xilinx&#45;runtime&#45;&gt;labmaze -->
<!-- arcticdb -->
<g id="node39" class="node">
<title>arcticdb</title>
<g id="a_node39"><a xlink:href="https://github.com/conda-forge/arcticdb-feedstock/pull/409" xlink:title="arcticdb ❎">
<ellipse fill="#31688e" stroke="black" cx="897.08" cy="-306" rx="67.52" ry="18"/>
<text text-anchor="middle" x="897.08" y="-301.32" font-family="Times,serif" font-size="14.00" fill="white">arcticdb ❎</text>
</a>
</g>
</g>
<!-- labmaze&#45;&gt;arcticdb -->
<!-- gz&#45;msgs -->
<g id="node31" class="node">
<title>gz&#45;msgs</title>
<g id="a_node31"><a xlink:href="https://github.com/conda-forge/gz-msgs-feedstock/pull/60" xlink:title="gz msgs ❎">
<ellipse fill="#31688e" stroke="black" cx="268.08" cy="-414" rx="67.52" ry="18"/>
<text text-anchor="middle" x="268.08" y="-409.32" font-family="Times,serif" font-size="14.00" fill="white">gz msgs ❎</text>
</a>
</g>
</g>
<!-- gz&#45;transport -->
<g id="node32" class="node">
<title>gz&#45;transport</title>
<g id="a_node32"><a xlink:href="https://github.com/conda-forge/gz-transport-feedstock" xlink:title="gz transport">
<ellipse fill="#fde725" stroke="black" cx="167.08" cy="-342" rx="73.3" ry="18"/>
<text text-anchor="middle" x="167.08" y="-337.32" font-family="Times,serif" font-size="14.00">gz transport</text>
</a>
</g>
</g>
<!-- gz&#45;msgs&#45;&gt;gz&#45;transport -->
<g id="edge30" class="edge">
<title>gz&#45;msgs&#45;&gt;gz&#45;transport</title>
<path fill="none" stroke="black" d="M244.66,-396.76C231.37,-387.55 214.53,-375.88 199.94,-365.77"/>
<polygon fill="black" stroke="black" points="202.19,-363.07 191.98,-360.25 198.2,-368.82 202.19,-363.07"/>
</g>
<!-- gz&#45;fuel&#45;tools -->
<g id="node33" class="node">
<title>gz&#45;fuel&#45;tools</title>
<g id="a_node33"><a xlink:href="https://github.com/conda-forge/gz-fuel-tools-feedstock" xlink:title="gz fuel tools">
<ellipse fill="#fde725" stroke="black" cx="368.08" cy="-342" rx="72.25" ry="18"/>
<text text-anchor="middle" x="368.08" y="-337.32" font-family="Times,serif" font-size="14.00">gz fuel tools</text>
</a>
</g>
</g>
<!-- gz&#45;msgs&#45;&gt;gz&#45;fuel&#45;tools -->
<g id="edge31" class="edge">
<title>gz&#45;msgs&#45;&gt;gz&#45;fuel&#45;tools</title>
<path fill="none" stroke="black" d="M291.28,-396.76C304.44,-387.55 321.11,-375.88 335.56,-365.77"/>
<polygon fill="black" stroke="black" points="337.25,-368.86 343.43,-360.26 333.23,-363.13 337.25,-368.86"/>
</g>
<!-- gz&#45;gui -->
<g id="node34" class="node">
<title>gz&#45;gui</title>
<g id="a_node34"><a xlink:href="https://github.com/conda-forge/gz-gui-feedstock" xlink:title="gz gui">
<ellipse fill="#fde725" stroke="black" cx="66.08" cy="-270" rx="41.74" ry="18"/>
<text text-anchor="middle" x="66.08" y="-265.32" font-family="Times,serif" font-size="14.00">gz gui</text>
</a>
</g>
</g>
<!-- gz&#45;msgs&#45;&gt;gz&#45;gui -->
<g id="edge32" class="edge">
<title>gz&#45;msgs&#45;&gt;gz&#45;gui</title>
<path fill="none" stroke="black" d="M201.81,-410.24C162.56,-405.05 114.83,-391.96 85.08,-360 70.18,-343.99 65.84,-319.26 65,-299.93"/>
<polygon fill="black" stroke="black" points="68.5,-299.91 64.88,-289.95 61.5,-299.98 68.5,-299.91"/>
</g>
<!-- gz&#45;sensors -->
<g id="node35" class="node">
<title>gz&#45;sensors</title>
<g id="a_node35"><a xlink:href="https://github.com/conda-forge/gz-sensors-feedstock" xlink:title="gz sensors">
<ellipse fill="#fde725" stroke="black" cx="304.08" cy="-270" rx="64.36" ry="18"/>
<text text-anchor="middle" x="304.08" y="-265.32" font-family="Times,serif" font-size="14.00">gz sensors</text>
</a>
</g>
</g>
<!-- gz&#45;msgs&#45;&gt;gz&#45;sensors -->
<g id="edge33" class="edge">
<title>gz&#45;msgs&#45;&gt;gz&#45;sensors</title>
<path fill="none" stroke="black" d="M271.22,-395.82C274.64,-377.8 280.5,-348.73 287.08,-324 289.28,-315.75 291.99,-306.88 294.59,-298.8"/>
<polygon fill="black" stroke="black" points="297.85,-300.09 297.66,-289.49 291.2,-297.9 297.85,-300.09"/>
</g>
<!-- gz&#45;sim -->
<g id="node36" class="node">
<title>gz&#45;sim</title>
<g id="a_node36"><a xlink:href="https://github.com/conda-forge/gz-sim-feedstock" xlink:title="gz sim">
<ellipse fill="#fde725" stroke="black" cx="279.08" cy="-198" rx="43.84" ry="18"/>
<text text-anchor="middle" x="279.08" y="-193.32" font-family="Times,serif" font-size="14.00">gz sim</text>
</a>
</g>
</g>
<!-- gz&#45;msgs&#45;&gt;gz&#45;sim -->
<g id="edge34" class="edge">
<title>gz&#45;msgs&#45;&gt;gz&#45;sim</title>
<path fill="none" stroke="black" d="M324.65,-403.99C371.94,-395.16 434.02,-380.11 449.08,-360 482.15,-315.86 396.15,-252.86 395.08,-252 374.19,-235.17 347.09,-222.4 324.33,-213.62"/>
<polygon fill="black" stroke="black" points="325.57,-210.34 314.98,-210.15 323.14,-216.91 325.57,-210.34"/>
</g>
<!-- gz&#45;launch -->
<g id="node37" class="node">
<title>gz&#45;launch</title>
<g id="a_node37"><a xlink:href="https://github.com/conda-forge/gz-launch-feedstock" xlink:title="gz launch">
<ellipse fill="#fde725" stroke="black" cx="79.08" cy="-126" rx="59.1" ry="18"/>
<text text-anchor="middle" x="79.08" y="-121.33" font-family="Times,serif" font-size="14.00">gz launch</text>
</a>
</g>
</g>
<!-- gz&#45;msgs&#45;&gt;gz&#45;launch -->
<g id="edge35" class="edge">
<title>gz&#45;msgs&#45;&gt;gz&#45;launch</title>
<path fill="none" stroke="black" d="M203.86,-408.07C161.02,-402.12 105.22,-388.98 64.08,-360 32.44,-337.71 26.48,-324.99 15.08,-288 0,-239.02 33.34,-183.93 57.33,-152.55"/>
<polygon fill="black" stroke="black" points="60.01,-154.8 63.47,-144.79 54.52,-150.46 60.01,-154.8"/>
</g>
<!-- gz&#45;sim&#45;yarp&#45;plugins -->
<g id="node38" class="node">
<title>gz&#45;sim&#45;yarp&#45;plugins</title>
<g id="a_node38"><a xlink:href="https://github.com/conda-forge/gz-sim-yarp-plugins-feedstock" xlink:title="gz sim yarp plugins">
<ellipse fill="#fde725" stroke="black" cx="279.08" cy="-126" rx="109.61" ry="18"/>
<text text-anchor="middle" x="279.08" y="-121.33" font-family="Times,serif" font-size="14.00">gz sim yarp plugins</text>
</a>
</g>
</g>
<!-- gz&#45;msgs&#45;&gt;gz&#45;sim&#45;yarp&#45;plugins -->
<g id="edge36" class="edge">
<title>gz&#45;msgs&#45;&gt;gz&#45;sim&#45;yarp&#45;plugins</title>
<path fill="none" stroke="black" d="M327.68,-405.18C379.91,-396.96 450.09,-382.11 467.08,-360 527.66,-281.18 392.79,-190.08 320.7,-149.05"/>
<polygon fill="black" stroke="black" points="322.73,-146.17 312.29,-144.34 319.31,-152.28 322.73,-146.17"/>
</g>
<!-- gz&#45;transport&#45;&gt;gz&#45;gui -->
<g id="edge37" class="edge">
<title>gz&#45;transport&#45;&gt;gz&#45;gui</title>
<path fill="none" stroke="black" d="M143.4,-324.59C129.53,-314.97 111.86,-302.73 96.91,-292.37"/>
<polygon fill="black" stroke="black" points="99.01,-289.56 88.8,-286.74 95.02,-295.31 99.01,-289.56"/>
</g>
<!-- gz&#45;transport&#45;&gt;gz&#45;sensors -->
<g id="edge38" class="edge">
<title>gz&#45;transport&#45;&gt;gz&#45;sensors</title>
<path fill="none" stroke="black" d="M197.83,-325.29C217.49,-315.24 243.19,-302.12 264.38,-291.28"/>
<polygon fill="black" stroke="black" points="265.72,-294.53 273.03,-286.86 262.54,-288.3 265.72,-294.53"/>
</g>
<!-- gz&#45;transport&#45;&gt;gz&#45;sim -->
<g id="edge39" class="edge">
<title>gz&#45;transport&#45;&gt;gz&#45;sim</title>
<path fill="none" stroke="black" d="M178.57,-323.85C190.97,-305.61 211.59,-276.13 231.08,-252 238.81,-242.44 247.74,-232.35 255.78,-223.57"/>
<polygon fill="black" stroke="black" points="258.2,-226.11 262.43,-216.4 253.06,-221.35 258.2,-226.11"/>
</g>
<!-- gz&#45;transport&#45;&gt;gz&#45;launch -->
<g id="edge40" class="edge">
<title>gz&#45;transport&#45;&gt;gz&#45;launch</title>
<path fill="none" stroke="black" d="M160.03,-323.85C144.84,-286.91 108.92,-199.55 90.46,-154.67"/>
<polygon fill="black" stroke="black" points="93.79,-153.55 86.75,-145.63 87.31,-156.21 93.79,-153.55"/>
</g>
<!-- gz&#45;transport&#45;&gt;gz&#45;sim&#45;yarp&#45;plugins -->
<g id="edge41" class="edge">
<title>gz&#45;transport&#45;&gt;gz&#45;sim&#45;yarp&#45;plugins</title>
<path fill="none" stroke="black" d="M170.76,-323.92C177.89,-293.27 195.64,-227.67 226.08,-180 232.55,-169.88 241.23,-160.17 249.7,-151.9"/>
<polygon fill="black" stroke="black" points="251.99,-154.55 256.9,-145.16 247.21,-149.44 251.99,-154.55"/>
</g>
<!-- gz&#45;fuel&#45;tools&#45;&gt;gz&#45;sim -->
<g id="edge42" class="edge">
<title>gz&#45;fuel&#45;tools&#45;&gt;gz&#45;sim</title>
<path fill="none" stroke="black" d="M375.66,-323.6C382.67,-304.62 390.2,-274.01 377.08,-252 365.89,-233.21 345.47,-220.68 326.15,-212.55"/>
<polygon fill="black" stroke="black" points="327.6,-209.36 317.01,-209.01 325.08,-215.89 327.6,-209.36"/>
</g>
<!-- gz&#45;gui&#45;&gt;gz&#45;sim -->
<g id="edge43" class="edge">
<title>gz&#45;gui&#45;&gt;gz&#45;sim</title>
<path fill="none" stroke="black" d="M98.43,-258.37C134.89,-246.39 194.37,-226.84 235.04,-213.47"/>
<polygon fill="black" stroke="black" points="235.88,-216.88 244.29,-210.44 233.7,-210.23 235.88,-216.88"/>
</g>
<!-- gz&#45;gui&#45;&gt;gz&#45;launch -->
<g id="edge44" class="edge">
<title>gz&#45;gui&#45;&gt;gz&#45;launch</title>
<path fill="none" stroke="black" d="M67.68,-251.59C69.87,-227.61 73.85,-184.14 76.48,-155.42"/>
<polygon fill="black" stroke="black" points="79.95,-155.9 77.38,-145.62 72.98,-155.26 79.95,-155.9"/>
</g>
<!-- gz&#45;sensors&#45;&gt;gz&#45;sim -->
<g id="edge45" class="edge">
<title>gz&#45;sensors&#45;&gt;gz&#45;sim</title>
<path fill="none" stroke="black" d="M297.9,-251.7C295.21,-244.15 291.98,-235.12 288.97,-226.68"/>
<polygon fill="black" stroke="black" points="292.36,-225.77 285.7,-217.53 285.77,-228.12 292.36,-225.77"/>
</g>
<!-- gz&#45;sim&#45;&gt;gz&#45;launch -->
<g id="edge46" class="edge">
<title>gz&#45;sim&#45;&gt;gz&#45;launch</title>
<path fill="none" stroke="black" d="M246.51,-185.6C214.17,-174.28 164.22,-156.8 127.29,-143.87"/>
<polygon fill="black" stroke="black" points="128.79,-140.69 118.19,-140.69 126.48,-147.3 128.79,-140.69"/>
</g>
<!-- gz&#45;sim&#45;&gt;gz&#45;sim&#45;yarp&#45;plugins -->
<g id="edge47" class="edge">
<title>gz&#45;sim&#45;&gt;gz&#45;sim&#45;yarp&#45;plugins</title>
<path fill="none" stroke="black" d="M279.08,-179.7C279.08,-172.41 279.08,-163.73 279.08,-155.54"/>
<polygon fill="black" stroke="black" points="282.58,-155.62 279.08,-145.62 275.58,-155.62 282.58,-155.62"/>
</g>
<!-- gnss&#45;sdr -->
<g id="node42" class="node">
<title>gnss&#45;sdr</title>
<g id="a_node42"><a xlink:href="https://github.com/conda-forge/gnss-sdr-feedstock/pull/37" xlink:title="gnss sdr ❎">
<ellipse fill="#31688e" stroke="black" cx="897.08" cy="-234" rx="69.1" ry="18"/>
<text text-anchor="middle" x="897.08" y="-229.32" font-family="Times,serif" font-size="14.00" fill="white">gnss sdr ❎</text>
</a>
</g>
</g>
<!-- arcticdb&#45;&gt;gnss&#45;sdr -->
<!-- openvino -->
<g id="node40" class="node">
<title>openvino</title>
<g id="a_node40"><a xlink:href="https://github.com/conda-forge/openvino-feedstock/pull/129" xlink:title="openvino ❎">
<ellipse fill="#31688e" stroke="black" cx="1540.08" cy="-1034" rx="71.73" ry="18"/>
<text text-anchor="middle" x="1540.08" y="-1029.33" font-family="Times,serif" font-size="14.00" fill="white">openvino ❎</text>
</a>
</g>
</g>
<!-- openvino&#45;&gt;opencv -->
<g id="edge49" class="edge">
<title>openvino&#45;&gt;opencv</title>
<path fill="none" stroke="black" d="M1574.84,-1017.98C1600.17,-1007.04 1634.57,-992.17 1661.22,-980.66"/>
<polygon fill="black" stroke="black" points="1662.57,-983.89 1670.36,-976.71 1659.79,-977.46 1662.57,-983.89"/>
</g>
<!-- openvino&#45;tokenizers -->
<g id="node41" class="node">
<title>openvino&#45;tokenizers</title>
<g id="a_node41"><a xlink:href="https://github.com/conda-forge/openvino-tokenizers-feedstock" xlink:title="openvino tokenizers">
<ellipse fill="#fde725" stroke="black" cx="1378.08" cy="-962" rx="111.71" ry="18"/>
<text text-anchor="middle" x="1378.08" y="-957.33" font-family="Times,serif" font-size="14.00">openvino tokenizers</text>
</a>
</g>
</g>
<!-- openvino&#45;&gt;openvino&#45;tokenizers -->
<g id="edge50" class="edge">
<title>openvino&#45;&gt;openvino&#45;tokenizers</title>
<path fill="none" stroke="black" d="M1505.33,-1017.98C1482.31,-1008.04 1451.79,-994.85 1426.41,-983.88"/>
<polygon fill="black" stroke="black" points="1427.85,-980.69 1417.28,-979.94 1425.07,-987.12 1427.85,-980.69"/>
</g>
<!-- tensorstore -->
<g id="node43" class="node">
<title>tensorstore</title>
<g id="a_node43"><a xlink:href="https://github.com/conda-forge/tensorstore-feedstock/pull/54" xlink:title="tensorstore ❎">
<ellipse fill="#31688e" stroke="black" cx="897.08" cy="-162" rx="84.35" ry="18"/>
<text text-anchor="middle" x="897.08" y="-157.32" font-family="Times,serif" font-size="14.00" fill="white">tensorstore ❎</text>
</a>
</g>
</g>
<!-- gnss&#45;sdr&#45;&gt;tensorstore -->
<!-- bfiocpp -->
<g id="node44" class="node">
<title>bfiocpp</title>
<g id="a_node44"><a xlink:href="https://github.com/conda-forge/bfiocpp-feedstock/pull/14" xlink:title="bfiocpp ✓">
<ellipse fill="#31688e" stroke="black" cx="897.08" cy="-90" rx="55.42" ry="18"/>
<text text-anchor="middle" x="897.08" y="-85.33" font-family="Times,serif" font-size="14.00" fill="white">bfiocpp ✓</text>
</a>
</g>
</g>
<!-- tensorstore&#45;&gt;bfiocpp -->
<!-- mysqlx&#45;connector&#45;python -->
<g id="node45" class="node">
<title>mysqlx&#45;connector&#45;python</title>
<g id="a_node45"><a xlink:href="https://github.com/conda-forge/mysqlx-connector-python-feedstock/pull/11" xlink:title="mysqlx connector python ✓">
<ellipse fill="#31688e" stroke="black" cx="897.08" cy="-18" rx="145.38" ry="18"/>
<text text-anchor="middle" x="897.08" y="-13.32" font-family="Times,serif" font-size="14.00" fill="white">mysqlx connector python ✓</text>
</a>
</g>
</g>
<!-- bfiocpp&#45;&gt;mysqlx&#45;connector&#45;python -->
</g>
</svg>
