<?xml version="1.0" encoding="UTF-8" standalone="no"?>
<!DOCTYPE svg PUBLIC "-//W3C//DTD SVG 1.1//EN"
 "http://www.w3.org/Graphics/SVG/1.1/DTD/svg11.dtd">
<!-- Generated by graphviz version 12.2.1 (20250203.1708)
 -->
<!-- Pages: 1 -->
<svg width="1754pt" height="1428pt"
 viewBox="0.00 0.00 1754.13 1428.00" xmlns="http://www.w3.org/2000/svg" xmlns:xlink="http://www.w3.org/1999/xlink">
<g id="graph0" class="graph" transform="scale(1 1) rotate(0) translate(4 1424)">
<polygon fill="white" stroke="none" points="-4,4 -4,-1424 1750.13,-1424 1750.13,4 -4,4"/>
<!-- arrow&#45;cpp -->
<g id="node1" class="node">
<title>arrow&#45;cpp</title>
<g id="a_node1"><a xlink:href="https://github.com/conda-forge/arrow-cpp-feedstock" xlink:title="arrow cpp">
<ellipse fill="#35b779" stroke="black" cx="144.26" cy="-1078" rx="61.73" ry="18"/>
<text text-anchor="middle" x="144.26" y="-1073.33" font-family="Times,serif" font-size="14.00">arrow cpp</text>
</a>
</g>
</g>
<!-- ray&#45;packages -->
<g id="node2" class="node">
<title>ray&#45;packages</title>
<g id="a_node2"><a xlink:href="https://github.com/conda-forge/ray-packages-feedstock" xlink:title="ray packages">
<ellipse fill="#fde725" stroke="black" cx="661.26" cy="-1006" rx="76.99" ry="18"/>
<text text-anchor="middle" x="661.26" y="-1001.33" font-family="Times,serif" font-size="14.00">ray packages</text>
</a>
</g>
</g>
<!-- arrow&#45;cpp&#45;&gt;ray&#45;packages -->
<g id="edge1" class="edge">
<title>arrow&#45;cpp&#45;&gt;ray&#45;packages</title>
<path fill="none" stroke="black" d="M200.34,-1070.13C315.99,-1055.96 570.66,-1024.74 575.26,-1024 581.52,-1023 588.02,-1021.87 594.51,-1020.69"/>
<polygon fill="black" stroke="black" points="594.72,-1024.21 603.9,-1018.93 593.43,-1017.33 594.72,-1024.21"/>
</g>
<!-- datafusion -->
<g id="node3" class="node">
<title>datafusion</title>
<g id="a_node3"><a xlink:href="https://github.com/conda-forge/datafusion-feedstock" xlink:title="datafusion">
<ellipse fill="#fde725" stroke="black" cx="144.26" cy="-1006" rx="63.84" ry="18"/>
<text text-anchor="middle" x="144.26" y="-1001.33" font-family="Times,serif" font-size="14.00">datafusion</text>
</a>
</g>
</g>
<!-- arrow&#45;cpp&#45;&gt;datafusion -->
<g id="edge2" class="edge">
<title>arrow&#45;cpp&#45;&gt;datafusion</title>
<path fill="none" stroke="black" d="M144.26,-1059.7C144.26,-1052.41 144.26,-1043.73 144.26,-1035.54"/>
<polygon fill="black" stroke="black" points="147.76,-1035.62 144.26,-1025.62 140.76,-1035.62 147.76,-1035.62"/>
</g>
<!-- arcticdb -->
<g id="node4" class="node">
<title>arcticdb</title>
<g id="a_node4"><a xlink:href="https://github.com/conda-forge/arcticdb-feedstock" xlink:title="arcticdb">
<ellipse fill="#fde725" stroke="black" cx="52.26" cy="-934" rx="52.26" ry="18"/>
<text text-anchor="middle" x="52.26" y="-929.33" font-family="Times,serif" font-size="14.00">arcticdb</text>
</a>
</g>
</g>
<!-- arrow&#45;cpp&#45;&gt;arcticdb -->
<g id="edge3" class="edge">
<title>arrow&#45;cpp&#45;&gt;arcticdb</title>
<path fill="none" stroke="black" d="M114.13,-1062.02C99.03,-1053.02 81.76,-1040.15 71.26,-1024 59.6,-1006.07 54.96,-982.22 53.18,-963.72"/>
<polygon fill="black" stroke="black" points="56.68,-963.69 52.48,-953.97 49.7,-964.19 56.68,-963.69"/>
</g>
<!-- opencv -->
<g id="node5" class="node">
<title>opencv</title>
<g id="a_node5"><a xlink:href="https://github.com/conda-forge/opencv-feedstock" xlink:title="opencv">
<ellipse fill="#35b779" stroke="black" cx="496.26" cy="-1078" rx="46.47" ry="18"/>
<text text-anchor="middle" x="496.26" y="-1073.33" font-family="Times,serif" font-size="14.00">opencv</text>
</a>
</g>
</g>
<!-- opencv&#45;&gt;ray&#45;packages -->
<g id="edge4" class="edge">
<title>opencv&#45;&gt;ray&#45;packages</title>
<path fill="none" stroke="black" d="M526.91,-1064C551.62,-1053.51 586.76,-1038.6 614.91,-1026.66"/>
<polygon fill="black" stroke="black" points="616.09,-1029.97 623.93,-1022.84 613.35,-1023.52 616.09,-1029.97"/>
</g>
<!-- imp -->
<g id="node6" class="node">
<title>imp</title>
<g id="a_node6"><a xlink:href="https://github.com/conda-forge/imp-feedstock" xlink:title="imp">
<ellipse fill="#fde725" stroke="black" cx="536.26" cy="-1006" rx="30.16" ry="18"/>
<text text-anchor="middle" x="536.26" y="-1001.33" font-family="Times,serif" font-size="14.00">imp</text>
</a>
</g>
</g>
<!-- opencv&#45;&gt;imp -->
<g id="edge5" class="edge">
<title>opencv&#45;&gt;imp</title>
<path fill="none" stroke="black" d="M505.94,-1060.05C510.53,-1052.03 516.11,-1042.26 521.23,-1033.3"/>
<polygon fill="black" stroke="black" points="524.27,-1035.04 526.19,-1024.62 518.19,-1031.57 524.27,-1035.04"/>
</g>
<!-- gazebo&#45;yarp&#45;plugins -->
<g id="node7" class="node">
<title>gazebo&#45;yarp&#45;plugins</title>
<g id="a_node7"><a xlink:href="https://github.com/conda-forge/gazebo-yarp-plugins-feedstock" xlink:title="gazebo yarp plugins">
<ellipse fill="#fde725" stroke="black" cx="338.26" cy="-1006" rx="112.24" ry="18"/>
<text text-anchor="middle" x="338.26" y="-1001.33" font-family="Times,serif" font-size="14.00">gazebo yarp plugins</text>
</a>
</g>
</g>
<!-- opencv&#45;&gt;gazebo&#45;yarp&#45;plugins -->
<g id="edge6" class="edge">
<title>opencv&#45;&gt;gazebo&#45;yarp&#45;plugins</title>
<path fill="none" stroke="black" d="M466.54,-1063.83C443.84,-1053.77 412.09,-1039.71 385.86,-1028.09"/>
<polygon fill="black" stroke="black" points="387.31,-1024.9 376.75,-1024.05 384.47,-1031.3 387.31,-1024.9"/>
</g>
<!-- nvidia&#45;dali&#45;python -->
<g id="node8" class="node">
<title>nvidia&#45;dali&#45;python</title>
<g id="a_node8"><a xlink:href="https://github.com/conda-forge/nvidia-dali-python-feedstock" xlink:title="nvidia dali python">
<ellipse fill="#fde725" stroke="black" cx="478.26" cy="-934" rx="101.19" ry="18"/>
<text text-anchor="middle" x="478.26" y="-929.33" font-family="Times,serif" font-size="14.00">nvidia dali python</text>
</a>
</g>
</g>
<!-- opencv&#45;&gt;nvidia&#45;dali&#45;python -->
<g id="edge7" class="edge">
<title>opencv&#45;&gt;nvidia&#45;dali&#45;python</title>
<path fill="none" stroke="black" d="M494.05,-1059.59C491.01,-1035.61 485.5,-992.14 481.86,-963.42"/>
<polygon fill="black" stroke="black" points="485.35,-963.09 480.62,-953.61 478.41,-963.97 485.35,-963.09"/>
</g>
<!-- paraview -->
<g id="node9" class="node">
<title>paraview</title>
<g id="a_node9"><a xlink:href="https://github.com/conda-forge/paraview-feedstock/pull/277" xlink:title="paraview ❎">
<ellipse fill="#31688e" stroke="black" cx="1641.26" cy="-1402" rx="72.25" ry="18"/>
<text text-anchor="middle" x="1641.26" y="-1397.33" font-family="Times,serif" font-size="14.00" fill="white">paraview ❎</text>
</a>
</g>
</g>
<!-- qgis -->
<g id="node10" class="node">
<title>qgis</title>
<g id="a_node10"><a xlink:href="https://github.com/conda-forge/qgis-feedstock" xlink:title="qgis">
<ellipse fill="#ff8c00" stroke="black" cx="1641.26" cy="-1330" rx="32.27" ry="18"/>
<text text-anchor="middle" x="1641.26" y="-1325.33" font-family="Times,serif" font-size="14.00">qgis</text>
</a>
</g>
</g>
<!-- paraview&#45;&gt;qgis -->
<!-- tiledb -->
<g id="node11" class="node">
<title>tiledb</title>
<g id="a_node11"><a xlink:href="https://github.com/conda-forge/tiledb-feedstock" xlink:title="tiledb">
<ellipse fill="#ff8c00" stroke="black" cx="1641.26" cy="-1258" rx="40.16" ry="18"/>
<text text-anchor="middle" x="1641.26" y="-1253.33" font-family="Times,serif" font-size="14.00">tiledb</text>
</a>
</g>
</g>
<!-- qgis&#45;&gt;tiledb -->
<!-- pyaudi -->
<g id="node12" class="node">
<title>pyaudi</title>
<g id="a_node12"><a xlink:href="https://github.com/conda-forge/pyaudi-feedstock/pull/47" xlink:title="pyaudi ❎">
<ellipse fill="#31688e" stroke="black" cx="1641.26" cy="-1186" rx="60.15" ry="18"/>
<text text-anchor="middle" x="1641.26" y="-1181.33" font-family="Times,serif" font-size="14.00" fill="white">pyaudi ❎</text>
</a>
</g>
</g>
<!-- tiledb&#45;&gt;pyaudi -->
<!-- tensorflow -->
<g id="node13" class="node">
<title>tensorflow</title>
<g id="a_node13"><a xlink:href="https://github.com/conda-forge/tensorflow-feedstock/pull/424" xlink:title="tensorflow ❎">
<ellipse fill="#31688e" stroke="black" cx="1641.26" cy="-1114" rx="79.09" ry="18"/>
<text text-anchor="middle" x="1641.26" y="-1109.33" font-family="Times,serif" font-size="14.00" fill="white">tensorflow ❎</text>
</a>
</g>
</g>
<!-- pyaudi&#45;&gt;tensorflow -->
<!-- mongodb -->
<g id="node14" class="node">
<title>mongodb</title>
<g id="a_node14"><a xlink:href="https://github.com/conda-forge/mongodb-feedstock/pull/101" xlink:title="mongodb ❎">
<ellipse fill="#31688e" stroke="black" cx="1641.26" cy="-1042" rx="72.78" ry="18"/>
<text text-anchor="middle" x="1641.26" y="-1037.33" font-family="Times,serif" font-size="14.00" fill="white">mongodb ❎</text>
</a>
</g>
</g>
<!-- tensorflow&#45;&gt;mongodb -->
<!-- google&#45;cloud&#45;cpp -->
<g id="node16" class="node">
<title>google&#45;cloud&#45;cpp</title>
<g id="a_node16"><a xlink:href="https://github.com/conda-forge/google-cloud-cpp-feedstock" xlink:title="google cloud cpp">
<ellipse fill="#35b779" stroke="black" cx="1641.26" cy="-970" rx="95.4" ry="18"/>
<text text-anchor="middle" x="1641.26" y="-965.33" font-family="Times,serif" font-size="14.00">google cloud cpp</text>
</a>
</g>
</g>
<!-- mongodb&#45;&gt;google&#45;cloud&#45;cpp -->
<!-- pytorch&#45;cpu -->
<g id="node15" class="node">
<title>pytorch&#45;cpu</title>
<g id="a_node15"><a xlink:href="https://github.com/conda-forge/pytorch-cpu-feedstock/pull/373" xlink:title="pytorch cpu ❎">
<ellipse fill="#31688e" stroke="black" cx="794.26" cy="-1078" rx="85.93" ry="18"/>
<text text-anchor="middle" x="794.26" y="-1073.33" font-family="Times,serif" font-size="14.00" fill="white">pytorch cpu ❎</text>
</a>
</g>
</g>
<!-- pytorch&#45;cpu&#45;&gt;ray&#45;packages -->
<g id="edge13" class="edge">
<title>pytorch&#45;cpu&#45;&gt;ray&#45;packages</title>
<path fill="none" stroke="black" d="M763.41,-1060.76C744.99,-1051.07 721.37,-1038.64 701.49,-1028.17"/>
<polygon fill="black" stroke="black" points="703.3,-1025.17 692.82,-1023.61 700.04,-1031.37 703.3,-1025.17"/>
</g>
<!-- go&#45;cockroach -->
<g id="node27" class="node">
<title>go&#45;cockroach</title>
<g id="a_node27"><a xlink:href="https://github.com/conda-forge/go-cockroach-feedstock" xlink:title="go cockroach">
<ellipse fill="#ff8c00" stroke="black" cx="1641.26" cy="-898" rx="76.46" ry="18"/>
<text text-anchor="middle" x="1641.26" y="-893.33" font-family="Times,serif" font-size="14.00">go cockroach</text>
</a>
</g>
</g>
<!-- google&#45;cloud&#45;cpp&#45;&gt;go&#45;cockroach -->
<!-- jaxlib -->
<g id="node17" class="node">
<title>jaxlib</title>
<g id="a_node17"><a xlink:href="https://github.com/conda-forge/jaxlib-feedstock" xlink:title="jaxlib">
<ellipse fill="#ff8c00" stroke="black" cx="643.26" cy="-1150" rx="38.58" ry="18"/>
<text text-anchor="middle" x="643.26" y="-1145.33" font-family="Times,serif" font-size="14.00">jaxlib</text>
</a>
</g>
</g>
<!-- mujoco -->
<g id="node18" class="node">
<title>mujoco</title>
<g id="a_node18"><a xlink:href="https://github.com/conda-forge/mujoco-feedstock" xlink:title="mujoco">
<ellipse fill="#fde725" stroke="black" cx="643.26" cy="-1078" rx="47" ry="18"/>
<text text-anchor="middle" x="643.26" y="-1073.33" font-family="Times,serif" font-size="14.00">mujoco</text>
</a>
</g>
</g>
<!-- jaxlib&#45;&gt;mujoco -->
<g id="edge15" class="edge">
<title>jaxlib&#45;&gt;mujoco</title>
<path fill="none" stroke="black" d="M643.26,-1131.7C643.26,-1124.41 643.26,-1115.73 643.26,-1107.54"/>
<polygon fill="black" stroke="black" points="646.76,-1107.62 643.26,-1097.62 639.76,-1107.62 646.76,-1107.62"/>
</g>
<!-- mujoco&#45;&gt;ray&#45;packages -->
<g id="edge16" class="edge">
<title>mujoco&#45;&gt;ray&#45;packages</title>
<path fill="none" stroke="black" d="M647.71,-1059.7C649.61,-1052.32 651.87,-1043.52 654,-1035.25"/>
<polygon fill="black" stroke="black" points="657.39,-1036.13 656.49,-1025.57 650.61,-1034.38 657.39,-1036.13"/>
</g>
<!-- libignition&#45;transport4 -->
<g id="node19" class="node">
<title>libignition&#45;transport4</title>
<g id="a_node19"><a xlink:href="https://github.com/conda-forge/libignition-transport4-feedstock" xlink:title="libignition transport4">
<ellipse fill="#fde725" stroke="black" cx="1093.26" cy="-1114" rx="119.08" ry="18"/>
<text text-anchor="middle" x="1093.26" y="-1109.33" font-family="Times,serif" font-size="14.00">libignition transport4</text>
</a>
</g>
</g>
<!-- libignition&#45;sensors -->
<g id="node20" class="node">
<title>libignition&#45;sensors</title>
<g id="a_node20"><a xlink:href="https://github.com/conda-forge/libignition-sensors-feedstock" xlink:title="libignition sensors">
<ellipse fill="#fde725" stroke="black" cx="1248.26" cy="-1042" rx="103.82" ry="18"/>
<text text-anchor="middle" x="1248.26" y="-1037.33" font-family="Times,serif" font-size="14.00">libignition sensors</text>
</a>
</g>
</g>
<!-- libignition&#45;transport4&#45;&gt;libignition&#45;sensors -->
<g id="edge17" class="edge">
<title>libignition&#45;transport4&#45;&gt;libignition&#45;sensors</title>
<path fill="none" stroke="black" d="M1129.99,-1096.41C1151.5,-1086.7 1178.86,-1074.34 1201.84,-1063.96"/>
<polygon fill="black" stroke="black" points="1203.01,-1067.28 1210.68,-1059.97 1200.13,-1060.9 1203.01,-1067.28"/>
</g>
<!-- libignition&#45;gui -->
<g id="node21" class="node">
<title>libignition&#45;gui</title>
<g id="a_node21"><a xlink:href="https://github.com/conda-forge/libignition-gui-feedstock" xlink:title="libignition gui">
<ellipse fill="#fde725" stroke="black" cx="969.26" cy="-1042" rx="81.2" ry="18"/>
<text text-anchor="middle" x="969.26" y="-1037.33" font-family="Times,serif" font-size="14.00">libignition gui</text>
</a>
</g>
</g>
<!-- libignition&#45;transport4&#45;&gt;libignition&#45;gui -->
<g id="edge18" class="edge">
<title>libignition&#45;transport4&#45;&gt;libignition&#45;gui</title>
<path fill="none" stroke="black" d="M1063.56,-1096.23C1046.83,-1086.79 1025.75,-1074.89 1007.77,-1064.74"/>
<polygon fill="black" stroke="black" points="1009.61,-1061.76 999.18,-1059.89 1006.17,-1067.86 1009.61,-1061.76"/>
</g>
<!-- libignition&#45;gazebo -->
<g id="node22" class="node">
<title>libignition&#45;gazebo</title>
<g id="a_node22"><a xlink:href="https://github.com/conda-forge/libignition-gazebo-feedstock" xlink:title="libignition gazebo">
<ellipse fill="#fde725" stroke="black" cx="1228.26" cy="-970" rx="100.66" ry="18"/>
<text text-anchor="middle" x="1228.26" y="-965.33" font-family="Times,serif" font-size="14.00">libignition gazebo</text>
</a>
</g>
</g>
<!-- libignition&#45;transport4&#45;&gt;libignition&#45;gazebo -->
<g id="edge19" class="edge">
<title>libignition&#45;transport4&#45;&gt;libignition&#45;gazebo</title>
<path fill="none" stroke="black" d="M1097.93,-1095.8C1103.91,-1076.43 1115.88,-1044.94 1135.26,-1024 1147.38,-1010.91 1163.48,-1000.19 1178.88,-991.89"/>
<polygon fill="black" stroke="black" points="1180.19,-995.16 1187.5,-987.49 1177,-988.92 1180.19,-995.16"/>
</g>
<!-- libignition&#45;launch -->
<g id="node23" class="node">
<title>libignition&#45;launch</title>
<g id="a_node23"><a xlink:href="https://github.com/conda-forge/libignition-launch-feedstock" xlink:title="libignition launch">
<ellipse fill="#fde725" stroke="black" cx="1163.26" cy="-898" rx="98.56" ry="18"/>
<text text-anchor="middle" x="1163.26" y="-893.33" font-family="Times,serif" font-size="14.00">libignition launch</text>
</a>
</g>
</g>
<!-- libignition&#45;transport4&#45;&gt;libignition&#45;launch -->
<g id="edge20" class="edge">
<title>libignition&#45;transport4&#45;&gt;libignition&#45;launch</title>
<path fill="none" stroke="black" d="M1092.93,-1095.68C1092.99,-1065.2 1096.02,-1000.62 1118.26,-952 1122.83,-942 1129.85,-932.41 1136.99,-924.2"/>
<polygon fill="black" stroke="black" points="1139.43,-926.72 1143.65,-917 1134.29,-921.97 1139.43,-926.72"/>
</g>
<!-- libignition&#45;sensors&#45;&gt;libignition&#45;gazebo -->
<g id="edge21" class="edge">
<title>libignition&#45;sensors&#45;&gt;libignition&#45;gazebo</title>
<path fill="none" stroke="black" d="M1243.32,-1023.7C1241.19,-1016.24 1238.64,-1007.32 1236.25,-998.97"/>
<polygon fill="black" stroke="black" points="1239.68,-998.21 1233.56,-989.56 1232.95,-1000.14 1239.68,-998.21"/>
</g>
<!-- libignition&#45;gui&#45;&gt;libignition&#45;gazebo -->
<g id="edge22" class="edge">
<title>libignition&#45;gui&#45;&gt;libignition&#45;gazebo</title>
<path fill="none" stroke="black" d="M1019.51,-1027.42C1060.46,-1016.35 1118.6,-1000.64 1163.13,-988.6"/>
<polygon fill="black" stroke="black" points="1163.93,-992.01 1172.67,-986.02 1162.11,-985.25 1163.93,-992.01"/>
</g>
<!-- libignition&#45;gui&#45;&gt;libignition&#45;launch -->
<g id="edge23" class="edge">
<title>libignition&#45;gui&#45;&gt;libignition&#45;launch</title>
<path fill="none" stroke="black" d="M984.6,-1024.18C1002.51,-1005.17 1033.59,-974 1064.26,-952 1080.95,-940.03 1100.66,-928.94 1118.09,-920.03"/>
<polygon fill="black" stroke="black" points="1119.32,-923.33 1126.69,-915.72 1116.18,-917.07 1119.32,-923.33"/>
</g>
<!-- libignition&#45;gazebo&#45;&gt;libignition&#45;launch -->
<g id="edge24" class="edge">
<title>libignition&#45;gazebo&#45;&gt;libignition&#45;launch</title>
<path fill="none" stroke="black" d="M1212.53,-952.05C1204.7,-943.63 1195.09,-933.28 1186.44,-923.97"/>
<polygon fill="black" stroke="black" points="1189.25,-921.84 1179.88,-916.9 1184.12,-926.61 1189.25,-921.84"/>
</g>
<!-- libignition&#45;msgs1 -->
<g id="node24" class="node">
<title>libignition&#45;msgs1</title>
<g id="a_node24"><a xlink:href="https://github.com/conda-forge/libignition-msgs1-feedstock/pull/114" xlink:title="libignition msgs1 ❎">
<ellipse fill="#31688e" stroke="black" cx="1310.26" cy="-1186" rx="113.29" ry="18"/>
<text text-anchor="middle" x="1310.26" y="-1181.33" font-family="Times,serif" font-size="14.00" fill="white">libignition msgs1 ❎</text>
</a>
</g>
</g>
<!-- libignition&#45;msgs1&#45;&gt;libignition&#45;transport4 -->
<g id="edge25" class="edge">
<title>libignition&#45;msgs1&#45;&gt;libignition&#45;transport4</title>
<path fill="none" stroke="black" d="M1261.56,-1169.29C1229.43,-1158.92 1187.11,-1145.27 1152.95,-1134.26"/>
<polygon fill="black" stroke="black" points="1154.2,-1130.98 1143.61,-1131.24 1152.06,-1137.64 1154.2,-1130.98"/>
</g>
<!-- libignition&#45;msgs1&#45;&gt;libignition&#45;sensors -->
<g id="edge26" class="edge">
<title>libignition&#45;msgs1&#45;&gt;libignition&#45;sensors</title>
<path fill="none" stroke="black" d="M1288.22,-1167.97C1277.66,-1158.55 1265.91,-1145.95 1259.26,-1132 1250.3,-1113.18 1247.7,-1089.7 1247.26,-1071.59"/>
<polygon fill="black" stroke="black" points="1250.76,-1071.8 1247.25,-1061.8 1243.76,-1071.81 1250.76,-1071.8"/>
</g>
<!-- libignition&#45;msgs1&#45;&gt;libignition&#45;gui -->
<g id="edge27" class="edge">
<title>libignition&#45;msgs1&#45;&gt;libignition&#45;gui</title>
<path fill="none" stroke="black" d="M1198.35,-1183.07C1109.35,-1178.88 995.01,-1166.66 965.26,-1132 951.18,-1115.59 953.67,-1090.57 958.83,-1071.23"/>
<polygon fill="black" stroke="black" points="962.14,-1072.36 961.73,-1061.78 955.45,-1070.31 962.14,-1072.36"/>
</g>
<!-- libignition&#45;msgs1&#45;&gt;libignition&#45;gazebo -->
<g id="edge28" class="edge">
<title>libignition&#45;msgs1&#45;&gt;libignition&#45;gazebo</title>
<path fill="none" stroke="black" d="M1402.44,-1175.23C1463.17,-1164.43 1527.09,-1142.02 1501.26,-1096 1464.36,-1030.25 1382.01,-998.9 1317.35,-984.06"/>
<polygon fill="black" stroke="black" points="1318.32,-980.69 1307.8,-981.97 1316.82,-987.53 1318.32,-980.69"/>
</g>
<!-- libignition&#45;msgs1&#45;&gt;libignition&#45;launch -->
<g id="edge29" class="edge">
<title>libignition&#45;msgs1&#45;&gt;libignition&#45;launch</title>
<path fill="none" stroke="black" d="M1395.95,-1173.89C1446.25,-1165.41 1502.88,-1151.79 1518.26,-1132 1528.08,-1119.37 1523.39,-1111.16 1518.26,-1096 1480.28,-983.72 1339.01,-933.94 1246.55,-913.01"/>
<polygon fill="black" stroke="black" points="1247.52,-909.64 1237,-910.92 1246.02,-916.47 1247.52,-909.64"/>
</g>
<!-- libignition&#45;fuel&#45;tools -->
<g id="node25" class="node">
<title>libignition&#45;fuel&#45;tools</title>
<g id="a_node25"><a xlink:href="https://github.com/conda-forge/libignition-fuel-tools-feedstock" xlink:title="libignition fuel tools">
<ellipse fill="#fde725" stroke="black" cx="1380.26" cy="-1114" rx="111.71" ry="18"/>
<text text-anchor="middle" x="1380.26" y="-1109.33" font-family="Times,serif" font-size="14.00">libignition fuel tools</text>
</a>
</g>
</g>
<!-- libignition&#45;msgs1&#45;&gt;libignition&#45;fuel&#45;tools -->
<g id="edge30" class="edge">
<title>libignition&#45;msgs1&#45;&gt;libignition&#45;fuel&#45;tools</title>
<path fill="none" stroke="black" d="M1327.21,-1168.05C1335.51,-1159.75 1345.68,-1149.58 1354.88,-1140.38"/>
<polygon fill="black" stroke="black" points="1357.32,-1142.89 1361.92,-1133.35 1352.37,-1137.94 1357.32,-1142.89"/>
</g>
<!-- libignition&#45;fuel&#45;tools&#45;&gt;libignition&#45;gazebo -->
<g id="edge31" class="edge">
<title>libignition&#45;fuel&#45;tools&#45;&gt;libignition&#45;gazebo</title>
<path fill="none" stroke="black" d="M1381.14,-1095.52C1381.18,-1075.89 1378.28,-1044.16 1361.26,-1024 1347,-1007.1 1326.58,-995.54 1306.01,-987.66"/>
<polygon fill="black" stroke="black" points="1307.29,-984.4 1296.69,-984.36 1304.96,-991 1307.29,-984.4"/>
</g>
<!-- gazebo -->
<g id="node26" class="node">
<title>gazebo</title>
<g id="a_node26"><a xlink:href="https://github.com/conda-forge/gazebo-feedstock" xlink:title="gazebo">
<ellipse fill="#ff8c00" stroke="black" cx="338.26" cy="-1078" rx="46.47" ry="18"/>
<text text-anchor="middle" x="338.26" y="-1073.33" font-family="Times,serif" font-size="14.00">gazebo</text>
</a>
</g>
</g>
<!-- gazebo&#45;&gt;gazebo&#45;yarp&#45;plugins -->
<g id="edge32" class="edge">
<title>gazebo&#45;&gt;gazebo&#45;yarp&#45;plugins</title>
<path fill="none" stroke="black" d="M338.26,-1059.7C338.26,-1052.41 338.26,-1043.73 338.26,-1035.54"/>
<polygon fill="black" stroke="black" points="341.76,-1035.62 338.26,-1025.62 334.76,-1035.62 341.76,-1035.62"/>
</g>
<!-- tomviz -->
<g id="node28" class="node">
<title>tomviz</title>
<g id="a_node28"><a xlink:href="https://github.com/conda-forge/tomviz-feedstock" xlink:title="tomviz">
<ellipse fill="#ff8c00" stroke="black" cx="1641.26" cy="-826" rx="44.9" ry="18"/>
<text text-anchor="middle" x="1641.26" y="-821.33" font-family="Times,serif" font-size="14.00">tomviz</text>
</a>
</g>
</g>
<!-- go&#45;cockroach&#45;&gt;tomviz -->
<!-- protozfits -->
<g id="node33" class="node">
<title>protozfits</title>
<g id="a_node33"><a xlink:href="https://github.com/conda-forge/protozfits-feedstock/pull/48" xlink:title="protozfits ✓">
<ellipse fill="#31688e" stroke="black" cx="1641.26" cy="-754" rx="66.99" ry="18"/>
<text text-anchor="middle" x="1641.26" y="-749.33" font-family="Times,serif" font-size="14.00" fill="white">protozfits ✓</text>
</a>
</g>
</g>
<!-- tomviz&#45;&gt;protozfits -->
<!-- sentencepiece -->
<g id="node29" class="node">
<title>sentencepiece</title>
<g id="a_node29"><a xlink:href="https://github.com/conda-forge/sentencepiece-feedstock/pull/64" xlink:title="sentencepiece ✓">
<ellipse fill="#31688e" stroke="black" cx="1641.26" cy="-422" rx="90.14" ry="18"/>
<text text-anchor="middle" x="1641.26" y="-417.32" font-family="Times,serif" font-size="14.00" fill="white">sentencepiece ✓</text>
</a>
</g>
</g>
<!-- curated&#45;tokenizers -->
<g id="node30" class="node">
<title>curated&#45;tokenizers</title>
<g id="a_node30"><a xlink:href="https://github.com/conda-forge/curated-tokenizers-feedstock" xlink:title="curated tokenizers">
<ellipse fill="#fde725" stroke="black" cx="1641.26" cy="-350" rx="104.87" ry="18"/>
<text text-anchor="middle" x="1641.26" y="-345.32" font-family="Times,serif" font-size="14.00">curated tokenizers</text>
</a>
</g>
</g>
<!-- sentencepiece&#45;&gt;curated&#45;tokenizers -->
<g id="edge35" class="edge">
<title>sentencepiece&#45;&gt;curated&#45;tokenizers</title>
<path fill="none" stroke="black" d="M1641.26,-403.7C1641.26,-396.41 1641.26,-387.73 1641.26,-379.54"/>
<polygon fill="black" stroke="black" points="1644.76,-379.62 1641.26,-369.62 1637.76,-379.62 1644.76,-379.62"/>
</g>
<!-- s2geometry -->
<g id="node31" class="node">
<title>s2geometry</title>
<g id="a_node31"><a xlink:href="https://github.com/conda-forge/s2geometry-feedstock/pull/23" xlink:title="s2geometry ❎">
<ellipse fill="#31688e" stroke="black" cx="440.26" cy="-90" rx="85.93" ry="18"/>
<text text-anchor="middle" x="440.26" y="-85.33" font-family="Times,serif" font-size="14.00" fill="white">s2geometry ❎</text>
</a>
</g>
</g>
<!-- s2geography -->
<g id="node32" class="node">
<title>s2geography</title>
<g id="a_node32"><a xlink:href="https://github.com/conda-forge/s2geography-feedstock" xlink:title="s2geography">
<ellipse fill="#fde725" stroke="black" cx="440.26" cy="-18" rx="75.94" ry="18"/>
<text text-anchor="middle" x="440.26" y="-13.32" font-family="Times,serif" font-size="14.00">s2geography</text>
</a>
</g>
</g>
<!-- s2geometry&#45;&gt;s2geography -->
<g id="edge36" class="edge">
<title>s2geometry&#45;&gt;s2geography</title>
<path fill="none" stroke="black" d="M440.26,-71.7C440.26,-64.41 440.26,-55.73 440.26,-47.54"/>
<polygon fill="black" stroke="black" points="443.76,-47.62 440.26,-37.62 436.76,-47.62 443.76,-47.62"/>
</g>
<!-- or&#45;tools -->
<g id="node34" class="node">
<title>or&#45;tools</title>
<g id="a_node34"><a xlink:href="https://github.com/conda-forge/or-tools-feedstock/pull/65" xlink:title="or tools ❎">
<ellipse fill="#31688e" stroke="black" cx="1641.26" cy="-682" rx="64.36" ry="18"/>
<text text-anchor="middle" x="1641.26" y="-677.33" font-family="Times,serif" font-size="14.00" fill="white">or tools ❎</text>
</a>
</g>
</g>
<!-- protozfits&#45;&gt;or&#45;tools -->
<!-- bear -->
<g id="node35" class="node">
<title>bear</title>
<g id="a_node35"><a xlink:href="https://github.com/conda-forge/bear-feedstock/pull/54" xlink:title="bear ❎">
<ellipse fill="#31688e" stroke="black" cx="1208.26" cy="-638" rx="49.1" ry="18"/>
<text text-anchor="middle" x="1208.26" y="-633.33" font-family="Times,serif" font-size="14.00" fill="white">bear ❎</text>
</a>
</g>
</g>
<!-- xilinx&#45;runtime -->
<g id="node36" class="node">
<title>xilinx&#45;runtime</title>
<g id="a_node36"><a xlink:href="https://github.com/conda-forge/xilinx-runtime-feedstock/pull/40" xlink:title="xilinx runtime ❎">
<ellipse fill="#31688e" stroke="black" cx="1208.26" cy="-566" rx="96.98" ry="18"/>
<text text-anchor="middle" x="1208.26" y="-561.33" font-family="Times,serif" font-size="14.00" fill="white">xilinx runtime ❎</text>
</a>
</g>
</g>
<!-- bear&#45;&gt;xilinx&#45;runtime -->
<!-- labmaze -->
<g id="node37" class="node">
<title>labmaze</title>
<g id="a_node37"><a xlink:href="https://github.com/conda-forge/labmaze-feedstock/pull/15" xlink:title="labmaze ✓">
<ellipse fill="#31688e" stroke="black" cx="1208.26" cy="-494" rx="60.68" ry="18"/>
<text text-anchor="middle" x="1208.26" y="-489.32" font-family="Times,serif" font-size="14.00" fill="white">labmaze ✓</text>
</a>
</g>
</g>
<!-- xilinx&#45;runtime&#45;&gt;labmaze -->
<!-- gnss&#45;sdr -->
<g id="node46" class="node">
<title>gnss&#45;sdr</title>
<g id="a_node46"><a xlink:href="https://github.com/conda-forge/gnss-sdr-feedstock/pull/37" xlink:title="gnss sdr ❎">
<ellipse fill="#31688e" stroke="black" cx="1208.26" cy="-422" rx="69.1" ry="18"/>
<text text-anchor="middle" x="1208.26" y="-417.32" font-family="Times,serif" font-size="14.00" fill="white">gnss sdr ❎</text>
</a>
</g>
</g>
<!-- labmaze&#45;&gt;gnss&#45;sdr -->
<!-- gz&#45;msgs -->
<g id="node38" class="node">
<title>gz&#45;msgs</title>
<g id="a_node38"><a xlink:href="https://github.com/conda-forge/gz-msgs-feedstock" xlink:title="gz msgs">
<ellipse fill="#000000" stroke="black" cx="444.26" cy="-530" rx="52.26" ry="18"/>
<text text-anchor="middle" x="444.26" y="-525.33" font-family="Times,serif" font-size="14.00" fill="white">gz msgs</text>
</a>
</g>
</g>
<!-- gz&#45;transport -->
<g id="node39" class="node">
<title>gz&#45;transport</title>
<g id="a_node39"><a xlink:href="https://github.com/conda-forge/gz-transport-feedstock" xlink:title="gz transport">
<ellipse fill="#fde725" stroke="black" cx="343.26" cy="-458" rx="73.3" ry="18"/>
<text text-anchor="middle" x="343.26" y="-453.32" font-family="Times,serif" font-size="14.00">gz transport</text>
</a>
</g>
</g>
<!-- gz&#45;msgs&#45;&gt;gz&#45;transport -->
<g id="edge41" class="edge">
<title>gz&#45;msgs&#45;&gt;gz&#45;transport</title>
<path fill="none" stroke="black" d="M421.85,-513.46C408.5,-504.21 391.31,-492.3 376.42,-481.98"/>
<polygon fill="black" stroke="black" points="378.48,-479.15 368.26,-476.33 374.49,-484.9 378.48,-479.15"/>
</g>
<!-- gz&#45;fuel&#45;tools -->
<g id="node40" class="node">
<title>gz&#45;fuel&#45;tools</title>
<g id="a_node40"><a xlink:href="https://github.com/conda-forge/gz-fuel-tools-feedstock" xlink:title="gz fuel tools">
<ellipse fill="#fde725" stroke="black" cx="544.26" cy="-458" rx="72.25" ry="18"/>
<text text-anchor="middle" x="544.26" y="-453.32" font-family="Times,serif" font-size="14.00">gz fuel tools</text>
</a>
</g>
</g>
<!-- gz&#45;msgs&#45;&gt;gz&#45;fuel&#45;tools -->
<g id="edge42" class="edge">
<title>gz&#45;msgs&#45;&gt;gz&#45;fuel&#45;tools</title>
<path fill="none" stroke="black" d="M466.45,-513.46C479.67,-504.21 496.69,-492.3 511.44,-481.98"/>
<polygon fill="black" stroke="black" points="513.31,-484.94 519.5,-476.34 509.3,-479.2 513.31,-484.94"/>
</g>
<!-- gz&#45;gui -->
<g id="node41" class="node">
<title>gz&#45;gui</title>
<g id="a_node41"><a xlink:href="https://github.com/conda-forge/gz-gui-feedstock" xlink:title="gz gui">
<ellipse fill="#fde725" stroke="black" cx="242.26" cy="-386" rx="41.74" ry="18"/>
<text text-anchor="middle" x="242.26" y="-381.32" font-family="Times,serif" font-size="14.00">gz gui</text>
</a>
</g>
</g>
<!-- gz&#45;msgs&#45;&gt;gz&#45;gui -->
<g id="edge43" class="edge">
<title>gz&#45;msgs&#45;&gt;gz&#45;gui</title>
<path fill="none" stroke="black" d="M392.26,-527.83C350.95,-524.03 294.73,-511.95 261.26,-476 246.35,-459.99 242.02,-435.26 241.17,-415.93"/>
<polygon fill="black" stroke="black" points="244.67,-415.91 241.06,-405.95 237.67,-415.98 244.67,-415.91"/>
</g>
<!-- gz&#45;sensors -->
<g id="node42" class="node">
<title>gz&#45;sensors</title>
<g id="a_node42"><a xlink:href="https://github.com/conda-forge/gz-sensors-feedstock" xlink:title="gz sensors">
<ellipse fill="#fde725" stroke="black" cx="480.26" cy="-386" rx="64.36" ry="18"/>
<text text-anchor="middle" x="480.26" y="-381.32" font-family="Times,serif" font-size="14.00">gz sensors</text>
</a>
</g>
</g>
<!-- gz&#45;msgs&#45;&gt;gz&#45;sensors -->
<g id="edge44" class="edge">
<title>gz&#45;msgs&#45;&gt;gz&#45;sensors</title>
<path fill="none" stroke="black" d="M447.4,-511.82C450.81,-493.8 456.67,-464.73 463.26,-440 465.46,-431.75 468.17,-422.88 470.77,-414.8"/>
<polygon fill="black" stroke="black" points="474.03,-416.09 473.84,-405.49 467.38,-413.9 474.03,-416.09"/>
</g>
<!-- gz&#45;sim -->
<g id="node43" class="node">
<title>gz&#45;sim</title>
<g id="a_node43"><a xlink:href="https://github.com/conda-forge/gz-sim-feedstock" xlink:title="gz sim">
<ellipse fill="#fde725" stroke="black" cx="455.26" cy="-314" rx="43.84" ry="18"/>
<text text-anchor="middle" x="455.26" y="-309.32" font-family="Times,serif" font-size="14.00">gz sim</text>
</a>
</g>
</g>
<!-- gz&#45;msgs&#45;&gt;gz&#45;sim -->
<g id="edge45" class="edge">
<title>gz&#45;msgs&#45;&gt;gz&#45;sim</title>
<path fill="none" stroke="black" d="M491.35,-521.71C539.41,-513.2 609.16,-497.49 625.26,-476 658.33,-431.86 572.33,-368.86 571.26,-368 550.36,-351.17 523.26,-338.4 500.51,-329.62"/>
<polygon fill="black" stroke="black" points="501.75,-326.34 491.15,-326.15 499.31,-332.91 501.75,-326.34"/>
</g>
<!-- gz&#45;launch -->
<g id="node44" class="node">
<title>gz&#45;launch</title>
<g id="a_node44"><a xlink:href="https://github.com/conda-forge/gz-launch-feedstock" xlink:title="gz launch">
<ellipse fill="#fde725" stroke="black" cx="255.26" cy="-242" rx="59.1" ry="18"/>
<text text-anchor="middle" x="255.26" y="-237.32" font-family="Times,serif" font-size="14.00">gz launch</text>
</a>
</g>
</g>
<!-- gz&#45;msgs&#45;&gt;gz&#45;launch -->
<g id="edge46" class="edge">
<title>gz&#45;msgs&#45;&gt;gz&#45;launch</title>
<path fill="none" stroke="black" d="M393.13,-525.73C349.12,-520.71 285.73,-508.03 240.26,-476 208.62,-453.71 202.65,-440.99 191.26,-404 176.18,-355.02 209.52,-299.93 233.51,-268.55"/>
<polygon fill="black" stroke="black" points="236.19,-270.8 239.65,-260.79 230.7,-266.46 236.19,-270.8"/>
</g>
<!-- gz&#45;sim&#45;yarp&#45;plugins -->
<g id="node45" class="node">
<title>gz&#45;sim&#45;yarp&#45;plugins</title>
<g id="a_node45"><a xlink:href="https://github.com/conda-forge/gz-sim-yarp-plugins-feedstock" xlink:title="gz sim yarp plugins">
<ellipse fill="#fde725" stroke="black" cx="455.26" cy="-242" rx="109.61" ry="18"/>
<text text-anchor="middle" x="455.26" y="-237.32" font-family="Times,serif" font-size="14.00">gz sim yarp plugins</text>
</a>
</g>
</g>
<!-- gz&#45;msgs&#45;&gt;gz&#45;sim&#45;yarp&#45;plugins -->
<g id="edge47" class="edge">
<title>gz&#45;msgs&#45;&gt;gz&#45;sim&#45;yarp&#45;plugins</title>
<path fill="none" stroke="black" d="M492.62,-522.89C545.45,-515.1 625.02,-499.74 643.26,-476 703.84,-397.18 568.97,-306.08 496.88,-265.05"/>
<polygon fill="black" stroke="black" points="498.9,-262.17 488.47,-260.34 495.48,-268.28 498.9,-262.17"/>
</g>
<!-- gz&#45;transport&#45;&gt;gz&#45;gui -->
<g id="edge48" class="edge">
<title>gz&#45;transport&#45;&gt;gz&#45;gui</title>
<path fill="none" stroke="black" d="M319.58,-440.59C305.71,-430.97 288.04,-418.73 273.09,-408.37"/>
<polygon fill="black" stroke="black" points="275.18,-405.56 264.97,-402.74 271.2,-411.31 275.18,-405.56"/>
</g>
<!-- gz&#45;transport&#45;&gt;gz&#45;sensors -->
<g id="edge49" class="edge">
<title>gz&#45;transport&#45;&gt;gz&#45;sensors</title>
<path fill="none" stroke="black" d="M374.01,-441.29C393.67,-431.24 419.36,-418.12 440.56,-407.28"/>
<polygon fill="black" stroke="black" points="441.9,-410.53 449.21,-402.86 438.71,-404.3 441.9,-410.53"/>
</g>
<!-- gz&#45;transport&#45;&gt;gz&#45;sim -->
<g id="edge50" class="edge">
<title>gz&#45;transport&#45;&gt;gz&#45;sim</title>
<path fill="none" stroke="black" d="M354.74,-439.85C367.15,-421.61 387.76,-392.13 407.26,-368 414.99,-358.44 423.91,-348.35 431.96,-339.57"/>
<polygon fill="black" stroke="black" points="434.37,-342.11 438.61,-332.4 429.24,-337.35 434.37,-342.11"/>
</g>
<!-- gz&#45;transport&#45;&gt;gz&#45;launch -->
<g id="edge51" class="edge">
<title>gz&#45;transport&#45;&gt;gz&#45;launch</title>
<path fill="none" stroke="black" d="M336.21,-439.85C321.02,-402.91 285.1,-315.55 266.64,-270.67"/>
<polygon fill="black" stroke="black" points="269.96,-269.55 262.92,-261.63 263.49,-272.21 269.96,-269.55"/>
</g>
<!-- gz&#45;transport&#45;&gt;gz&#45;sim&#45;yarp&#45;plugins -->
<g id="edge52" class="edge">
<title>gz&#45;transport&#45;&gt;gz&#45;sim&#45;yarp&#45;plugins</title>
<path fill="none" stroke="black" d="M346.93,-439.92C354.06,-409.27 371.82,-343.67 402.26,-296 408.72,-285.88 417.41,-276.17 425.88,-267.9"/>
<polygon fill="black" stroke="black" points="428.16,-270.55 433.08,-261.16 423.38,-265.44 428.16,-270.55"/>
</g>
<!-- gz&#45;fuel&#45;tools&#45;&gt;gz&#45;sim -->
<g id="edge53" class="edge">
<title>gz&#45;fuel&#45;tools&#45;&gt;gz&#45;sim</title>
<path fill="none" stroke="black" d="M551.84,-439.6C558.85,-420.62 566.38,-390.01 553.26,-368 542.06,-349.21 521.64,-336.68 502.33,-328.55"/>
<polygon fill="black" stroke="black" points="503.78,-325.36 493.19,-325.01 501.25,-331.89 503.78,-325.36"/>
</g>
<!-- gz&#45;gui&#45;&gt;gz&#45;sim -->
<g id="edge54" class="edge">
<title>gz&#45;gui&#45;&gt;gz&#45;sim</title>
<path fill="none" stroke="black" d="M274.61,-374.37C311.07,-362.39 370.55,-342.84 411.22,-329.47"/>
<polygon fill="black" stroke="black" points="412.06,-332.88 420.47,-326.44 409.87,-326.23 412.06,-332.88"/>
</g>
<!-- gz&#45;gui&#45;&gt;gz&#45;launch -->
<g id="edge55" class="edge">
<title>gz&#45;gui&#45;&gt;gz&#45;launch</title>
<path fill="none" stroke="black" d="M243.86,-367.59C246.05,-343.61 250.03,-300.14 252.66,-271.42"/>
<polygon fill="black" stroke="black" points="256.13,-271.9 253.56,-261.62 249.16,-271.26 256.13,-271.9"/>
</g>
<!-- gz&#45;sensors&#45;&gt;gz&#45;sim -->
<g id="edge56" class="edge">
<title>gz&#45;sensors&#45;&gt;gz&#45;sim</title>
<path fill="none" stroke="black" d="M474.08,-367.7C471.39,-360.15 468.16,-351.12 465.15,-342.68"/>
<polygon fill="black" stroke="black" points="468.54,-341.77 461.88,-333.53 461.95,-344.12 468.54,-341.77"/>
</g>
<!-- gz&#45;sim&#45;&gt;gz&#45;launch -->
<g id="edge57" class="edge">
<title>gz&#45;sim&#45;&gt;gz&#45;launch</title>
<path fill="none" stroke="black" d="M422.68,-301.6C390.34,-290.28 340.4,-272.8 303.47,-259.87"/>
<polygon fill="black" stroke="black" points="304.96,-256.69 294.37,-256.69 302.65,-263.3 304.96,-256.69"/>
</g>
<!-- gz&#45;sim&#45;&gt;gz&#45;sim&#45;yarp&#45;plugins -->
<g id="edge58" class="edge">
<title>gz&#45;sim&#45;&gt;gz&#45;sim&#45;yarp&#45;plugins</title>
<path fill="none" stroke="black" d="M455.26,-295.7C455.26,-288.41 455.26,-279.73 455.26,-271.54"/>
<polygon fill="black" stroke="black" points="458.76,-271.62 455.26,-261.62 451.76,-271.62 458.76,-271.62"/>
</g>
<!-- tensorstore -->
<g id="node47" class="node">
<title>tensorstore</title>
<g id="a_node47"><a xlink:href="https://github.com/conda-forge/tensorstore-feedstock/pull/54" xlink:title="tensorstore ❎">
<ellipse fill="#31688e" stroke="black" cx="1208.26" cy="-350" rx="84.35" ry="18"/>
<text text-anchor="middle" x="1208.26" y="-345.32" font-family="Times,serif" font-size="14.00" fill="white">tensorstore ❎</text>
</a>
</g>
</g>
<!-- gnss&#45;sdr&#45;&gt;tensorstore -->
<!-- openvino&#45;tokenizers -->
<g id="node48" class="node">
<title>openvino&#45;tokenizers</title>
<g id="a_node48"><a xlink:href="https://github.com/conda-forge/openvino-tokenizers-feedstock" xlink:title="openvino tokenizers">
<ellipse fill="#35b779" stroke="black" cx="1208.26" cy="-278" rx="111.71" ry="18"/>
<text text-anchor="middle" x="1208.26" y="-273.32" font-family="Times,serif" font-size="14.00">openvino tokenizers</text>
</a>
</g>
</g>
<!-- tensorstore&#45;&gt;openvino&#45;tokenizers -->
<!-- bfiocpp -->
<g id="node49" class="node">
<title>bfiocpp</title>
<g id="a_node49"><a xlink:href="https://github.com/conda-forge/bfiocpp-feedstock/pull/14" xlink:title="bfiocpp ✓">
<ellipse fill="#31688e" stroke="black" cx="1208.26" cy="-206" rx="55.42" ry="18"/>
<text text-anchor="middle" x="1208.26" y="-201.33" font-family="Times,serif" font-size="14.00" fill="white">bfiocpp ✓</text>
</a>
</g>
</g>
<!-- openvino&#45;tokenizers&#45;&gt;bfiocpp -->
<!-- mysqlx&#45;connector&#45;python -->
<g id="node50" class="node">
<title>mysqlx&#45;connector&#45;python</title>
<g id="a_node50"><a xlink:href="https://github.com/conda-forge/mysqlx-connector-python-feedstock/pull/11" xlink:title="mysqlx connector python ✓">
<ellipse fill="#31688e" stroke="black" cx="1208.26" cy="-134" rx="145.38" ry="18"/>
<text text-anchor="middle" x="1208.26" y="-129.32" font-family="Times,serif" font-size="14.00" fill="white">mysqlx connector python ✓</text>
</a>
</g>
</g>
<!-- bfiocpp&#45;&gt;mysqlx&#45;connector&#45;python -->
</g>
</svg>
