<?xml version="1.0" encoding="UTF-8" standalone="no"?>
<!DOCTYPE svg PUBLIC "-//W3C//DTD SVG 1.1//EN"
 "http://www.w3.org/Graphics/SVG/1.1/DTD/svg11.dtd">
<!-- Generated by graphviz version 12.2.1 (20250203.1708)
 -->
<!-- Pages: 1 -->
<svg width="2082pt" height="1384pt"
 viewBox="0.00 0.00 2082.04 1384.00" xmlns="http://www.w3.org/2000/svg" xmlns:xlink="http://www.w3.org/1999/xlink">
<g id="graph0" class="graph" transform="scale(1 1) rotate(0) translate(4 1380)">
<polygon fill="white" stroke="none" points="-4,4 -4,-1380 2078.04,-1380 2078.04,4 -4,4"/>
<!-- opencv -->
<g id="node1" class="node">
<title>opencv</title>
<g id="a_node1"><a xlink:href="https://github.com/conda-forge/opencv-feedstock" xlink:title="opencv">
<ellipse fill="#fde725" stroke="black" cx="435.71" cy="-1034" rx="46.47" ry="18"/>
<text text-anchor="middle" x="435.71" y="-1029.33" font-family="Times,serif" font-size="14.00">opencv</text>
</a>
</g>
</g>
<!-- ray&#45;packages -->
<g id="node2" class="node">
<title>ray&#45;packages</title>
<g id="a_node2"><a xlink:href="https://github.com/conda-forge/ray-packages-feedstock" xlink:title="ray packages">
<ellipse fill="#fde725" stroke="black" cx="618.71" cy="-962" rx="76.99" ry="18"/>
<text text-anchor="middle" x="618.71" y="-957.33" font-family="Times,serif" font-size="14.00">ray packages</text>
</a>
</g>
</g>
<!-- opencv&#45;&gt;ray&#45;packages -->
<g id="edge1" class="edge">
<title>opencv&#45;&gt;ray&#45;packages</title>
<path fill="none" stroke="black" d="M468.01,-1020.65C496.03,-1009.93 537.04,-994.24 569.21,-981.94"/>
<polygon fill="black" stroke="black" points="570.24,-985.29 578.33,-978.44 567.74,-978.75 570.24,-985.29"/>
</g>
<!-- imp -->
<g id="node3" class="node">
<title>imp</title>
<g id="a_node3"><a xlink:href="https://github.com/conda-forge/imp-feedstock" xlink:title="imp">
<ellipse fill="#fde725" stroke="black" cx="493.71" cy="-962" rx="30.16" ry="18"/>
<text text-anchor="middle" x="493.71" y="-957.33" font-family="Times,serif" font-size="14.00">imp</text>
</a>
</g>
</g>
<!-- opencv&#45;&gt;imp -->
<g id="edge2" class="edge">
<title>opencv&#45;&gt;imp</title>
<path fill="none" stroke="black" d="M449.46,-1016.41C456.67,-1007.71 465.63,-996.89 473.61,-987.26"/>
<polygon fill="black" stroke="black" points="476.21,-989.61 479.89,-979.68 470.82,-985.14 476.21,-989.61"/>
</g>
<!-- gazebo&#45;yarp&#45;plugins -->
<g id="node4" class="node">
<title>gazebo&#45;yarp&#45;plugins</title>
<g id="a_node4"><a xlink:href="https://github.com/conda-forge/gazebo-yarp-plugins-feedstock" xlink:title="gazebo yarp plugins">
<ellipse fill="#fde725" stroke="black" cx="295.71" cy="-962" rx="112.24" ry="18"/>
<text text-anchor="middle" x="295.71" y="-957.33" font-family="Times,serif" font-size="14.00">gazebo yarp plugins</text>
</a>
</g>
</g>
<!-- opencv&#45;&gt;gazebo&#45;yarp&#45;plugins -->
<g id="edge3" class="edge">
<title>opencv&#45;&gt;gazebo&#45;yarp&#45;plugins</title>
<path fill="none" stroke="black" d="M408.05,-1019.17C388.36,-1009.32 361.5,-995.89 338.98,-984.64"/>
<polygon fill="black" stroke="black" points="340.85,-981.66 330.34,-980.31 337.72,-987.92 340.85,-981.66"/>
</g>
<!-- nvidia&#45;dali&#45;python -->
<g id="node5" class="node">
<title>nvidia&#45;dali&#45;python</title>
<g id="a_node5"><a xlink:href="https://github.com/conda-forge/nvidia-dali-python-feedstock" xlink:title="nvidia dali python">
<ellipse fill="#fde725" stroke="black" cx="435.71" cy="-890" rx="101.19" ry="18"/>
<text text-anchor="middle" x="435.71" y="-885.33" font-family="Times,serif" font-size="14.00">nvidia dali python</text>
</a>
</g>
</g>
<!-- opencv&#45;&gt;nvidia&#45;dali&#45;python -->
<g id="edge4" class="edge">
<title>opencv&#45;&gt;nvidia&#45;dali&#45;python</title>
<path fill="none" stroke="black" d="M435.71,-1015.59C435.71,-991.61 435.71,-948.14 435.71,-919.42"/>
<polygon fill="black" stroke="black" points="439.21,-919.62 435.71,-909.62 432.21,-919.62 439.21,-919.62"/>
</g>
<!-- paraview -->
<g id="node6" class="node">
<title>paraview</title>
<g id="a_node6"><a xlink:href="https://github.com/conda-forge/paraview-feedstock/pull/277" xlink:title="paraview ❎">
<ellipse fill="#31688e" stroke="black" cx="1078.71" cy="-1358" rx="72.25" ry="18"/>
<text text-anchor="middle" x="1078.71" y="-1353.32" font-family="Times,serif" font-size="14.00" fill="white">paraview ❎</text>
</a>
</g>
</g>
<!-- qgis -->
<g id="node7" class="node">
<title>qgis</title>
<g id="a_node7"><a xlink:href="https://github.com/conda-forge/qgis-feedstock/pull/511" xlink:title="qgis ❎">
<ellipse fill="#31688e" stroke="black" cx="1078.71" cy="-1286" rx="47.53" ry="18"/>
<text text-anchor="middle" x="1078.71" y="-1281.32" font-family="Times,serif" font-size="14.00" fill="white">qgis ❎</text>
</a>
</g>
</g>
<!-- paraview&#45;&gt;qgis -->
<!-- tiledb -->
<g id="node8" class="node">
<title>tiledb</title>
<g id="a_node8"><a xlink:href="https://github.com/conda-forge/tiledb-feedstock/pull/430" xlink:title="tiledb ❎">
<ellipse fill="#31688e" stroke="black" cx="1078.71" cy="-1214" rx="55.42" ry="18"/>
<text text-anchor="middle" x="1078.71" y="-1209.32" font-family="Times,serif" font-size="14.00" fill="white">tiledb ❎</text>
</a>
</g>
</g>
<!-- qgis&#45;&gt;tiledb -->
<!-- pyaudi -->
<g id="node9" class="node">
<title>pyaudi</title>
<g id="a_node9"><a xlink:href="https://github.com/conda-forge/pyaudi-feedstock/pull/47" xlink:title="pyaudi ❎">
<ellipse fill="#31688e" stroke="black" cx="1078.71" cy="-1142" rx="60.15" ry="18"/>
<text text-anchor="middle" x="1078.71" y="-1137.33" font-family="Times,serif" font-size="14.00" fill="white">pyaudi ❎</text>
</a>
</g>
</g>
<!-- tiledb&#45;&gt;pyaudi -->
<!-- tensorflow -->
<g id="node10" class="node">
<title>tensorflow</title>
<g id="a_node10"><a xlink:href="https://github.com/conda-forge/tensorflow-feedstock/pull/424" xlink:title="tensorflow ❎">
<ellipse fill="#31688e" stroke="black" cx="1078.71" cy="-1070" rx="79.09" ry="18"/>
<text text-anchor="middle" x="1078.71" y="-1065.33" font-family="Times,serif" font-size="14.00" fill="white">tensorflow ❎</text>
</a>
</g>
</g>
<!-- pyaudi&#45;&gt;tensorflow -->
<!-- mongodb -->
<g id="node11" class="node">
<title>mongodb</title>
<g id="a_node11"><a xlink:href="https://github.com/conda-forge/mongodb-feedstock/pull/101" xlink:title="mongodb ❎">
<ellipse fill="#31688e" stroke="black" cx="1078.71" cy="-998" rx="72.78" ry="18"/>
<text text-anchor="middle" x="1078.71" y="-993.33" font-family="Times,serif" font-size="14.00" fill="white">mongodb ❎</text>
</a>
</g>
</g>
<!-- tensorflow&#45;&gt;mongodb -->
<!-- google&#45;cloud&#45;cpp -->
<g id="node13" class="node">
<title>google&#45;cloud&#45;cpp</title>
<g id="a_node13"><a xlink:href="https://github.com/conda-forge/google-cloud-cpp-feedstock/pull/196" xlink:title="google cloud cpp ❎">
<ellipse fill="#31688e" stroke="black" cx="1078.71" cy="-926" rx="110.66" ry="18"/>
<text text-anchor="middle" x="1078.71" y="-921.33" font-family="Times,serif" font-size="14.00" fill="white">google cloud cpp ❎</text>
</a>
</g>
</g>
<!-- mongodb&#45;&gt;google&#45;cloud&#45;cpp -->
<!-- pytorch&#45;cpu -->
<g id="node12" class="node">
<title>pytorch&#45;cpu</title>
<g id="a_node12"><a xlink:href="https://github.com/conda-forge/pytorch-cpu-feedstock/pull/373" xlink:title="pytorch cpu ❎">
<ellipse fill="#31688e" stroke="black" cx="602.71" cy="-1034" rx="85.93" ry="18"/>
<text text-anchor="middle" x="602.71" y="-1029.33" font-family="Times,serif" font-size="14.00" fill="white">pytorch cpu ❎</text>
</a>
</g>
</g>
<!-- pytorch&#45;cpu&#45;&gt;ray&#45;packages -->
<g id="edge10" class="edge">
<title>pytorch&#45;cpu&#45;&gt;ray&#45;packages</title>
<path fill="none" stroke="black" d="M606.67,-1015.7C608.35,-1008.32 610.36,-999.52 612.25,-991.25"/>
<polygon fill="black" stroke="black" points="615.65,-992.11 614.46,-981.58 608.82,-990.55 615.65,-992.11"/>
</g>
<!-- go&#45;cockroach -->
<g id="node23" class="node">
<title>go&#45;cockroach</title>
<g id="a_node23"><a xlink:href="https://github.com/conda-forge/go-cockroach-feedstock/pull/32" xlink:title="go cockroach ❎">
<ellipse fill="#31688e" stroke="black" cx="1078.71" cy="-854" rx="91.72" ry="18"/>
<text text-anchor="middle" x="1078.71" y="-849.33" font-family="Times,serif" font-size="14.00" fill="white">go cockroach ❎</text>
</a>
</g>
</g>
<!-- google&#45;cloud&#45;cpp&#45;&gt;go&#45;cockroach -->
<!-- jaxlib -->
<g id="node14" class="node">
<title>jaxlib</title>
<g id="a_node14"><a xlink:href="https://github.com/conda-forge/jaxlib-feedstock/pull/307" xlink:title="jaxlib ❎">
<ellipse fill="#31688e" stroke="black" cx="753.71" cy="-1106" rx="53.84" ry="18"/>
<text text-anchor="middle" x="753.71" y="-1101.33" font-family="Times,serif" font-size="14.00" fill="white">jaxlib ❎</text>
</a>
</g>
</g>
<!-- mujoco -->
<g id="node15" class="node">
<title>mujoco</title>
<g id="a_node15"><a xlink:href="https://github.com/conda-forge/mujoco-feedstock" xlink:title="mujoco">
<ellipse fill="#fde725" stroke="black" cx="753.71" cy="-1034" rx="47" ry="18"/>
<text text-anchor="middle" x="753.71" y="-1029.33" font-family="Times,serif" font-size="14.00">mujoco</text>
</a>
</g>
</g>
<!-- jaxlib&#45;&gt;mujoco -->
<g id="edge12" class="edge">
<title>jaxlib&#45;&gt;mujoco</title>
<path fill="none" stroke="black" d="M753.71,-1087.7C753.71,-1080.41 753.71,-1071.73 753.71,-1063.54"/>
<polygon fill="black" stroke="black" points="757.21,-1063.62 753.71,-1053.62 750.21,-1063.62 757.21,-1063.62"/>
</g>
<!-- mujoco&#45;&gt;ray&#45;packages -->
<g id="edge13" class="edge">
<title>mujoco&#45;&gt;ray&#45;packages</title>
<path fill="none" stroke="black" d="M726.72,-1019C707.45,-1009.01 681.21,-995.4 659.41,-984.1"/>
<polygon fill="black" stroke="black" points="661.27,-981.12 650.78,-979.63 658.04,-987.34 661.27,-981.12"/>
</g>
<!-- libignition&#45;transport4 -->
<g id="node16" class="node">
<title>libignition&#45;transport4</title>
<g id="a_node16"><a xlink:href="https://github.com/conda-forge/libignition-transport4-feedstock/pull/106" xlink:title="libignition transport4 ✓">
<ellipse fill="#31688e" stroke="black" cx="1897.71" cy="-1106" rx="126.97" ry="18"/>
<text text-anchor="middle" x="1897.71" y="-1101.33" font-family="Times,serif" font-size="14.00" fill="white">libignition transport4 ✓</text>
</a>
</g>
</g>
<!-- libignition&#45;sensors -->
<g id="node17" class="node">
<title>libignition&#45;sensors</title>
<g id="a_node17"><a xlink:href="https://github.com/conda-forge/libignition-sensors-feedstock" xlink:title="libignition sensors">
<ellipse fill="#fde725" stroke="black" cx="1711.71" cy="-1034" rx="103.82" ry="18"/>
<text text-anchor="middle" x="1711.71" y="-1029.33" font-family="Times,serif" font-size="14.00">libignition sensors</text>
</a>
</g>
</g>
<!-- libignition&#45;transport4&#45;&gt;libignition&#45;sensors -->
<g id="edge14" class="edge">
<title>libignition&#45;transport4&#45;&gt;libignition&#45;sensors</title>
<path fill="none" stroke="black" d="M1854.57,-1088.76C1827.74,-1078.67 1793.04,-1065.61 1764.56,-1054.89"/>
<polygon fill="black" stroke="black" points="1765.98,-1051.69 1755.39,-1051.44 1763.52,-1058.24 1765.98,-1051.69"/>
</g>
<!-- libignition&#45;gui -->
<g id="node18" class="node">
<title>libignition&#45;gui</title>
<g id="a_node18"><a xlink:href="https://github.com/conda-forge/libignition-gui-feedstock" xlink:title="libignition gui">
<ellipse fill="#fde725" stroke="black" cx="1952.71" cy="-1034" rx="81.2" ry="18"/>
<text text-anchor="middle" x="1952.71" y="-1029.33" font-family="Times,serif" font-size="14.00">libignition gui</text>
</a>
</g>
</g>
<!-- libignition&#45;transport4&#45;&gt;libignition&#45;gui -->
<g id="edge15" class="edge">
<title>libignition&#45;transport4&#45;&gt;libignition&#45;gui</title>
<path fill="none" stroke="black" d="M1911.31,-1087.7C1917.63,-1079.64 1925.29,-1069.89 1932.3,-1060.98"/>
<polygon fill="black" stroke="black" points="1934.91,-1063.32 1938.34,-1053.29 1929.41,-1059 1934.91,-1063.32"/>
</g>
<!-- libignition&#45;gazebo -->
<g id="node19" class="node">
<title>libignition&#45;gazebo</title>
<g id="a_node19"><a xlink:href="https://github.com/conda-forge/libignition-gazebo-feedstock" xlink:title="libignition gazebo">
<ellipse fill="#fde725" stroke="black" cx="1833.71" cy="-962" rx="100.66" ry="18"/>
<text text-anchor="middle" x="1833.71" y="-957.33" font-family="Times,serif" font-size="14.00">libignition gazebo</text>
</a>
</g>
</g>
<!-- libignition&#45;transport4&#45;&gt;libignition&#45;gazebo -->
<g id="edge16" class="edge">
<title>libignition&#45;transport4&#45;&gt;libignition&#45;gazebo</title>
<path fill="none" stroke="black" d="M1884.81,-1088.03C1877.59,-1077.96 1868.84,-1064.71 1862.71,-1052 1853.27,-1032.43 1845.78,-1009.02 1840.78,-991.13"/>
<polygon fill="black" stroke="black" points="1844.23,-990.47 1838.25,-981.72 1837.47,-992.28 1844.23,-990.47"/>
</g>
<!-- libignition&#45;launch -->
<g id="node20" class="node">
<title>libignition&#45;launch</title>
<g id="a_node20"><a xlink:href="https://github.com/conda-forge/libignition-launch-feedstock" xlink:title="libignition launch">
<ellipse fill="#fde725" stroke="black" cx="1962.71" cy="-890" rx="98.56" ry="18"/>
<text text-anchor="middle" x="1962.71" y="-885.33" font-family="Times,serif" font-size="14.00">libignition launch</text>
</a>
</g>
</g>
<!-- libignition&#45;transport4&#45;&gt;libignition&#45;launch -->
<g id="edge17" class="edge">
<title>libignition&#45;transport4&#45;&gt;libignition&#45;launch</title>
<path fill="none" stroke="black" d="M1982.97,-1092.37C2006.13,-1084.6 2028.66,-1072.1 2042.71,-1052 2074.04,-1007.2 2025.05,-948.33 1990.98,-915.62"/>
<polygon fill="black" stroke="black" points="1993.5,-913.19 1983.8,-908.93 1988.73,-918.31 1993.5,-913.19"/>
</g>
<!-- libignition&#45;sensors&#45;&gt;libignition&#45;gazebo -->
<g id="edge18" class="edge">
<title>libignition&#45;sensors&#45;&gt;libignition&#45;gazebo</title>
<path fill="none" stroke="black" d="M1740.62,-1016.41C1756.76,-1007.15 1777.09,-995.49 1794.63,-985.42"/>
<polygon fill="black" stroke="black" points="1796.34,-988.48 1803.27,-980.47 1792.86,-982.41 1796.34,-988.48"/>
</g>
<!-- libignition&#45;gui&#45;&gt;libignition&#45;gazebo -->
<g id="edge19" class="edge">
<title>libignition&#45;gui&#45;&gt;libignition&#45;gazebo</title>
<path fill="none" stroke="black" d="M1925.11,-1016.76C1909.27,-1007.45 1889.15,-995.61 1871.82,-985.41"/>
<polygon fill="black" stroke="black" points="1873.69,-982.45 1863.29,-980.4 1870.14,-988.49 1873.69,-982.45"/>
</g>
<!-- libignition&#45;gui&#45;&gt;libignition&#45;launch -->
<g id="edge20" class="edge">
<title>libignition&#45;gui&#45;&gt;libignition&#45;launch</title>
<path fill="none" stroke="black" d="M1953.94,-1015.59C1955.63,-991.61 1958.69,-948.14 1960.71,-919.42"/>
<polygon fill="black" stroke="black" points="1964.19,-919.84 1961.4,-909.62 1957.21,-919.35 1964.19,-919.84"/>
</g>
<!-- libignition&#45;gazebo&#45;&gt;libignition&#45;launch -->
<g id="edge21" class="edge">
<title>libignition&#45;gazebo&#45;&gt;libignition&#45;launch</title>
<path fill="none" stroke="black" d="M1864.28,-944.41C1881.63,-935 1903.56,-923.1 1922.32,-912.92"/>
<polygon fill="black" stroke="black" points="1923.91,-916.04 1931.03,-908.19 1920.57,-909.89 1923.91,-916.04"/>
</g>
<!-- gazebo -->
<g id="node21" class="node">
<title>gazebo</title>
<g id="a_node21"><a xlink:href="https://github.com/conda-forge/gazebo-feedstock/pull/237" xlink:title="gazebo ❎">
<ellipse fill="#31688e" stroke="black" cx="302.71" cy="-1034" rx="61.73" ry="18"/>
<text text-anchor="middle" x="302.71" y="-1029.33" font-family="Times,serif" font-size="14.00" fill="white">gazebo ❎</text>
</a>
</g>
</g>
<!-- gazebo&#45;&gt;gazebo&#45;yarp&#45;plugins -->
<g id="edge22" class="edge">
<title>gazebo&#45;&gt;gazebo&#45;yarp&#45;plugins</title>
<path fill="none" stroke="black" d="M300.98,-1015.7C300.25,-1008.41 299.38,-999.73 298.57,-991.54"/>
<polygon fill="black" stroke="black" points="302.05,-991.21 297.57,-981.61 295.09,-991.91 302.05,-991.21"/>
</g>
<!-- libignition&#45;fuel&#45;tools -->
<g id="node22" class="node">
<title>libignition&#45;fuel&#45;tools</title>
<g id="a_node22"><a xlink:href="https://github.com/conda-forge/libignition-fuel-tools-feedstock/pull/101" xlink:title="libignition fuel tools ✓">
<ellipse fill="#31688e" stroke="black" cx="1470.71" cy="-1034" rx="119.6" ry="18"/>
<text text-anchor="middle" x="1470.71" y="-1029.33" font-family="Times,serif" font-size="14.00" fill="white">libignition fuel tools ✓</text>
</a>
</g>
</g>
<!-- libignition&#45;fuel&#45;tools&#45;&gt;libignition&#45;gazebo -->
<g id="edge23" class="edge">
<title>libignition&#45;fuel&#45;tools&#45;&gt;libignition&#45;gazebo</title>
<path fill="none" stroke="black" d="M1542.43,-1019.17C1604.02,-1007.29 1692.64,-990.2 1755.92,-978"/>
<polygon fill="black" stroke="black" points="1756.4,-981.47 1765.55,-976.14 1755.07,-974.6 1756.4,-981.47"/>
</g>
<!-- tomviz -->
<g id="node24" class="node">
<title>tomviz</title>
<g id="a_node24"><a xlink:href="https://github.com/conda-forge/tomviz-feedstock/pull/73" xlink:title="tomviz ❎">
<ellipse fill="#31688e" stroke="black" cx="1078.71" cy="-782" rx="60.15" ry="18"/>
<text text-anchor="middle" x="1078.71" y="-777.33" font-family="Times,serif" font-size="14.00" fill="white">tomviz ❎</text>
</a>
</g>
</g>
<!-- go&#45;cockroach&#45;&gt;tomviz -->
<!-- protozfits -->
<g id="node27" class="node">
<title>protozfits</title>
<g id="a_node27"><a xlink:href="https://github.com/conda-forge/protozfits-feedstock/pull/48" xlink:title="protozfits ✓">
<ellipse fill="#31688e" stroke="black" cx="1078.71" cy="-710" rx="66.99" ry="18"/>
<text text-anchor="middle" x="1078.71" y="-705.33" font-family="Times,serif" font-size="14.00" fill="white">protozfits ✓</text>
</a>
</g>
</g>
<!-- tomviz&#45;&gt;protozfits -->
<!-- s2geometry -->
<g id="node25" class="node">
<title>s2geometry</title>
<g id="a_node25"><a xlink:href="https://github.com/conda-forge/s2geometry-feedstock/pull/23" xlink:title="s2geometry ✓">
<ellipse fill="#31688e" stroke="black" cx="1712.71" cy="-342" rx="78.57" ry="18"/>
<text text-anchor="middle" x="1712.71" y="-337.32" font-family="Times,serif" font-size="14.00" fill="white">s2geometry ✓</text>
</a>
</g>
</g>
<!-- s2geography -->
<g id="node26" class="node">
<title>s2geography</title>
<g id="a_node26"><a xlink:href="https://github.com/conda-forge/s2geography-feedstock" xlink:title="s2geography">
<ellipse fill="#fde725" stroke="black" cx="1712.71" cy="-270" rx="75.94" ry="18"/>
<text text-anchor="middle" x="1712.71" y="-265.32" font-family="Times,serif" font-size="14.00">s2geography</text>
</a>
</g>
</g>
<!-- s2geometry&#45;&gt;s2geography -->
<g id="edge26" class="edge">
<title>s2geometry&#45;&gt;s2geography</title>
<path fill="none" stroke="black" d="M1712.71,-323.7C1712.71,-316.41 1712.71,-307.73 1712.71,-299.54"/>
<polygon fill="black" stroke="black" points="1716.21,-299.62 1712.71,-289.62 1709.21,-299.62 1716.21,-299.62"/>
</g>
<!-- or&#45;tools -->
<g id="node28" class="node">
<title>or&#45;tools</title>
<g id="a_node28"><a xlink:href="https://github.com/conda-forge/or-tools-feedstock/pull/65" xlink:title="or tools ❎">
<ellipse fill="#31688e" stroke="black" cx="1078.71" cy="-638" rx="64.36" ry="18"/>
<text text-anchor="middle" x="1078.71" y="-633.33" font-family="Times,serif" font-size="14.00" fill="white">or tools ❎</text>
</a>
</g>
</g>
<!-- protozfits&#45;&gt;or&#45;tools -->
<!-- bear -->
<g id="node29" class="node">
<title>bear</title>
<g id="a_node29"><a xlink:href="https://github.com/conda-forge/bear-feedstock/pull/54" xlink:title="bear ❎">
<ellipse fill="#31688e" stroke="black" cx="403.71" cy="-594" rx="49.1" ry="18"/>
<text text-anchor="middle" x="403.71" y="-589.33" font-family="Times,serif" font-size="14.00" fill="white">bear ❎</text>
</a>
</g>
</g>
<!-- datafusion -->
<g id="node30" class="node">
<title>datafusion</title>
<g id="a_node30"><a xlink:href="https://github.com/conda-forge/datafusion-feedstock/pull/66" xlink:title="datafusion ❎">
<ellipse fill="#31688e" stroke="black" cx="403.71" cy="-522" rx="79.09" ry="18"/>
<text text-anchor="middle" x="403.71" y="-517.33" font-family="Times,serif" font-size="14.00" fill="white">datafusion ❎</text>
</a>
</g>
</g>
<!-- bear&#45;&gt;datafusion -->
<!-- xilinx&#45;runtime -->
<g id="node31" class="node">
<title>xilinx&#45;runtime</title>
<g id="a_node31"><a xlink:href="https://github.com/conda-forge/xilinx-runtime-feedstock/pull/40" xlink:title="xilinx runtime ❎">
<ellipse fill="#31688e" stroke="black" cx="403.71" cy="-450" rx="96.98" ry="18"/>
<text text-anchor="middle" x="403.71" y="-445.32" font-family="Times,serif" font-size="14.00" fill="white">xilinx runtime ❎</text>
</a>
</g>
</g>
<!-- datafusion&#45;&gt;xilinx&#45;runtime -->
<!-- labmaze -->
<g id="node32" class="node">
<title>labmaze</title>
<g id="a_node32"><a xlink:href="https://github.com/conda-forge/labmaze-feedstock/pull/15" xlink:title="labmaze ✓">
<ellipse fill="#31688e" stroke="black" cx="403.71" cy="-378" rx="60.68" ry="18"/>
<text text-anchor="middle" x="403.71" y="-373.32" font-family="Times,serif" font-size="14.00" fill="white">labmaze ✓</text>
</a>
</g>
</g>
<!-- xilinx&#45;runtime&#45;&gt;labmaze -->
<!-- arcticdb -->
<g id="node41" class="node">
<title>arcticdb</title>
<g id="a_node41"><a xlink:href="https://github.com/conda-forge/arcticdb-feedstock" xlink:title="arcticdb">
<ellipse fill="#ff8c00" stroke="black" cx="403.71" cy="-306" rx="52.26" ry="18"/>
<text text-anchor="middle" x="403.71" y="-301.32" font-family="Times,serif" font-size="14.00">arcticdb</text>
</a>
</g>
</g>
<!-- labmaze&#45;&gt;arcticdb -->
<!-- gz&#45;msgs -->
<g id="node33" class="node">
<title>gz&#45;msgs</title>
<g id="a_node33"><a xlink:href="https://github.com/conda-forge/gz-msgs-feedstock/pull/60" xlink:title="gz msgs ❎">
<ellipse fill="#31688e" stroke="black" cx="1083.71" cy="-450" rx="67.52" ry="18"/>
<text text-anchor="middle" x="1083.71" y="-445.32" font-family="Times,serif" font-size="14.00" fill="white">gz msgs ❎</text>
</a>
</g>
</g>
<!-- gz&#45;transport -->
<g id="node34" class="node">
<title>gz&#45;transport</title>
<g id="a_node34"><a xlink:href="https://github.com/conda-forge/gz-transport-feedstock" xlink:title="gz transport">
<ellipse fill="#fde725" stroke="black" cx="982.71" cy="-378" rx="73.3" ry="18"/>
<text text-anchor="middle" x="982.71" y="-373.32" font-family="Times,serif" font-size="14.00">gz transport</text>
</a>
</g>
</g>
<!-- gz&#45;msgs&#45;&gt;gz&#45;transport -->
<g id="edge32" class="edge">
<title>gz&#45;msgs&#45;&gt;gz&#45;transport</title>
<path fill="none" stroke="black" d="M1060.29,-432.76C1047,-423.55 1030.16,-411.88 1015.56,-401.77"/>
<polygon fill="black" stroke="black" points="1017.82,-399.07 1007.6,-396.25 1013.83,-404.82 1017.82,-399.07"/>
</g>
<!-- gz&#45;fuel&#45;tools -->
<g id="node35" class="node">
<title>gz&#45;fuel&#45;tools</title>
<g id="a_node35"><a xlink:href="https://github.com/conda-forge/gz-fuel-tools-feedstock" xlink:title="gz fuel tools">
<ellipse fill="#fde725" stroke="black" cx="1183.71" cy="-378" rx="72.25" ry="18"/>
<text text-anchor="middle" x="1183.71" y="-373.32" font-family="Times,serif" font-size="14.00">gz fuel tools</text>
</a>
</g>
</g>
<!-- gz&#45;msgs&#45;&gt;gz&#45;fuel&#45;tools -->
<g id="edge33" class="edge">
<title>gz&#45;msgs&#45;&gt;gz&#45;fuel&#45;tools</title>
<path fill="none" stroke="black" d="M1106.9,-432.76C1120.06,-423.55 1136.74,-411.88 1151.18,-401.77"/>
<polygon fill="black" stroke="black" points="1152.87,-404.86 1159.06,-396.26 1148.86,-399.13 1152.87,-404.86"/>
</g>
<!-- gz&#45;gui -->
<g id="node36" class="node">
<title>gz&#45;gui</title>
<g id="a_node36"><a xlink:href="https://github.com/conda-forge/gz-gui-feedstock" xlink:title="gz gui">
<ellipse fill="#fde725" stroke="black" cx="881.71" cy="-306" rx="41.74" ry="18"/>
<text text-anchor="middle" x="881.71" y="-301.32" font-family="Times,serif" font-size="14.00">gz gui</text>
</a>
</g>
</g>
<!-- gz&#45;msgs&#45;&gt;gz&#45;gui -->
<g id="edge34" class="edge">
<title>gz&#45;msgs&#45;&gt;gz&#45;gui</title>
<path fill="none" stroke="black" d="M1017.44,-446.24C978.18,-441.05 930.46,-427.96 900.71,-396 885.81,-379.99 881.47,-355.26 880.62,-335.93"/>
<polygon fill="black" stroke="black" points="884.12,-335.91 880.51,-325.95 877.12,-335.98 884.12,-335.91"/>
</g>
<!-- gz&#45;sensors -->
<g id="node37" class="node">
<title>gz&#45;sensors</title>
<g id="a_node37"><a xlink:href="https://github.com/conda-forge/gz-sensors-feedstock" xlink:title="gz sensors">
<ellipse fill="#fde725" stroke="black" cx="1119.71" cy="-306" rx="64.36" ry="18"/>
<text text-anchor="middle" x="1119.71" y="-301.32" font-family="Times,serif" font-size="14.00">gz sensors</text>
</a>
</g>
</g>
<!-- gz&#45;msgs&#45;&gt;gz&#45;sensors -->
<g id="edge35" class="edge">
<title>gz&#45;msgs&#45;&gt;gz&#45;sensors</title>
<path fill="none" stroke="black" d="M1086.85,-431.82C1090.26,-413.8 1096.12,-384.73 1102.71,-360 1104.91,-351.75 1107.62,-342.88 1110.22,-334.8"/>
<polygon fill="black" stroke="black" points="1113.48,-336.09 1113.29,-325.49 1106.83,-333.9 1113.48,-336.09"/>
</g>
<!-- gz&#45;sim -->
<g id="node38" class="node">
<title>gz&#45;sim</title>
<g id="a_node38"><a xlink:href="https://github.com/conda-forge/gz-sim-feedstock" xlink:title="gz sim">
<ellipse fill="#fde725" stroke="black" cx="1094.71" cy="-234" rx="43.84" ry="18"/>
<text text-anchor="middle" x="1094.71" y="-229.32" font-family="Times,serif" font-size="14.00">gz sim</text>
</a>
</g>
</g>
<!-- gz&#45;msgs&#45;&gt;gz&#45;sim -->
<g id="edge36" class="edge">
<title>gz&#45;msgs&#45;&gt;gz&#45;sim</title>
<path fill="none" stroke="black" d="M1140.28,-439.99C1187.57,-431.16 1249.64,-416.11 1264.71,-396 1297.78,-351.86 1211.78,-288.86 1210.71,-288 1189.82,-271.17 1162.71,-258.4 1139.96,-249.62"/>
<polygon fill="black" stroke="black" points="1141.2,-246.34 1130.6,-246.15 1138.77,-252.91 1141.2,-246.34"/>
</g>
<!-- gz&#45;launch -->
<g id="node39" class="node">
<title>gz&#45;launch</title>
<g id="a_node39"><a xlink:href="https://github.com/conda-forge/gz-launch-feedstock" xlink:title="gz launch">
<ellipse fill="#fde725" stroke="black" cx="894.71" cy="-162" rx="59.1" ry="18"/>
<text text-anchor="middle" x="894.71" y="-157.32" font-family="Times,serif" font-size="14.00">gz launch</text>
</a>
</g>
</g>
<!-- gz&#45;msgs&#45;&gt;gz&#45;launch -->
<g id="edge37" class="edge">
<title>gz&#45;msgs&#45;&gt;gz&#45;launch</title>
<path fill="none" stroke="black" d="M1019.49,-444.07C976.64,-438.12 920.84,-424.98 879.71,-396 848.07,-373.71 842.11,-360.99 830.71,-324 815.63,-275.02 848.97,-219.93 872.96,-188.55"/>
<polygon fill="black" stroke="black" points="875.64,-190.8 879.1,-180.79 870.15,-186.46 875.64,-190.8"/>
</g>
<!-- gz&#45;sim&#45;yarp&#45;plugins -->
<g id="node40" class="node">
<title>gz&#45;sim&#45;yarp&#45;plugins</title>
<g id="a_node40"><a xlink:href="https://github.com/conda-forge/gz-sim-yarp-plugins-feedstock" xlink:title="gz sim yarp plugins">
<ellipse fill="#fde725" stroke="black" cx="1094.71" cy="-162" rx="109.61" ry="18"/>
<text text-anchor="middle" x="1094.71" y="-157.32" font-family="Times,serif" font-size="14.00">gz sim yarp plugins</text>
</a>
</g>
</g>
<!-- gz&#45;msgs&#45;&gt;gz&#45;sim&#45;yarp&#45;plugins -->
<g id="edge38" class="edge">
<title>gz&#45;msgs&#45;&gt;gz&#45;sim&#45;yarp&#45;plugins</title>
<path fill="none" stroke="black" d="M1143.3,-441.18C1195.54,-432.96 1265.72,-418.11 1282.71,-396 1343.29,-317.18 1208.42,-226.08 1136.33,-185.05"/>
<polygon fill="black" stroke="black" points="1138.36,-182.17 1127.92,-180.34 1134.93,-188.28 1138.36,-182.17"/>
</g>
<!-- gz&#45;transport&#45;&gt;gz&#45;gui -->
<g id="edge39" class="edge">
<title>gz&#45;transport&#45;&gt;gz&#45;gui</title>
<path fill="none" stroke="black" d="M959.03,-360.59C945.16,-350.97 927.49,-338.73 912.54,-328.37"/>
<polygon fill="black" stroke="black" points="914.64,-325.56 904.42,-322.74 910.65,-331.31 914.64,-325.56"/>
</g>
<!-- gz&#45;transport&#45;&gt;gz&#45;sensors -->
<g id="edge40" class="edge">
<title>gz&#45;transport&#45;&gt;gz&#45;sensors</title>
<path fill="none" stroke="black" d="M1013.46,-361.29C1033.12,-351.24 1058.81,-338.12 1080.01,-327.28"/>
<polygon fill="black" stroke="black" points="1081.35,-330.53 1088.66,-322.86 1078.16,-324.3 1081.35,-330.53"/>
</g>
<!-- gz&#45;transport&#45;&gt;gz&#45;sim -->
<g id="edge41" class="edge">
<title>gz&#45;transport&#45;&gt;gz&#45;sim</title>
<path fill="none" stroke="black" d="M994.19,-359.85C1006.6,-341.61 1027.21,-312.13 1046.71,-288 1054.44,-278.44 1063.37,-268.35 1071.41,-259.57"/>
<polygon fill="black" stroke="black" points="1073.83,-262.11 1078.06,-252.4 1068.69,-257.35 1073.83,-262.11"/>
</g>
<!-- gz&#45;transport&#45;&gt;gz&#45;launch -->
<g id="edge42" class="edge">
<title>gz&#45;transport&#45;&gt;gz&#45;launch</title>
<path fill="none" stroke="black" d="M975.66,-359.85C960.47,-322.91 924.55,-235.55 906.09,-190.67"/>
<polygon fill="black" stroke="black" points="909.41,-189.55 902.37,-181.63 902.94,-192.21 909.41,-189.55"/>
</g>
<!-- gz&#45;transport&#45;&gt;gz&#45;sim&#45;yarp&#45;plugins -->
<g id="edge43" class="edge">
<title>gz&#45;transport&#45;&gt;gz&#45;sim&#45;yarp&#45;plugins</title>
<path fill="none" stroke="black" d="M986.38,-359.92C993.51,-329.27 1011.27,-263.67 1041.71,-216 1048.17,-205.88 1056.86,-196.17 1065.33,-187.9"/>
<polygon fill="black" stroke="black" points="1067.62,-190.55 1072.53,-181.16 1062.83,-185.44 1067.62,-190.55"/>
</g>
<!-- gz&#45;fuel&#45;tools&#45;&gt;gz&#45;sim -->
<g id="edge44" class="edge">
<title>gz&#45;fuel&#45;tools&#45;&gt;gz&#45;sim</title>
<path fill="none" stroke="black" d="M1191.29,-359.6C1198.3,-340.62 1205.83,-310.01 1192.71,-288 1181.51,-269.21 1161.09,-256.68 1141.78,-248.55"/>
<polygon fill="black" stroke="black" points="1143.23,-245.36 1132.64,-245.01 1140.7,-251.89 1143.23,-245.36"/>
</g>
<!-- gz&#45;gui&#45;&gt;gz&#45;sim -->
<g id="edge45" class="edge">
<title>gz&#45;gui&#45;&gt;gz&#45;sim</title>
<path fill="none" stroke="black" d="M914.06,-294.37C950.52,-282.39 1010,-262.84 1050.67,-249.47"/>
<polygon fill="black" stroke="black" points="1051.51,-252.88 1059.92,-246.44 1049.32,-246.23 1051.51,-252.88"/>
</g>
<!-- gz&#45;gui&#45;&gt;gz&#45;launch -->
<g id="edge46" class="edge">
<title>gz&#45;gui&#45;&gt;gz&#45;launch</title>
<path fill="none" stroke="black" d="M883.31,-287.59C885.5,-263.61 889.48,-220.14 892.11,-191.42"/>
<polygon fill="black" stroke="black" points="895.58,-191.9 893.01,-181.62 888.61,-191.26 895.58,-191.9"/>
</g>
<!-- gz&#45;sensors&#45;&gt;gz&#45;sim -->
<g id="edge47" class="edge">
<title>gz&#45;sensors&#45;&gt;gz&#45;sim</title>
<path fill="none" stroke="black" d="M1113.53,-287.7C1110.84,-280.15 1107.61,-271.12 1104.6,-262.68"/>
<polygon fill="black" stroke="black" points="1107.99,-261.77 1101.33,-253.53 1101.4,-264.12 1107.99,-261.77"/>
</g>
<!-- gz&#45;sim&#45;&gt;gz&#45;launch -->
<g id="edge48" class="edge">
<title>gz&#45;sim&#45;&gt;gz&#45;launch</title>
<path fill="none" stroke="black" d="M1062.13,-221.6C1029.79,-210.28 979.85,-192.8 942.92,-179.87"/>
<polygon fill="black" stroke="black" points="944.41,-176.69 933.82,-176.69 942.1,-183.3 944.41,-176.69"/>
</g>
<!-- gz&#45;sim&#45;&gt;gz&#45;sim&#45;yarp&#45;plugins -->
<g id="edge49" class="edge">
<title>gz&#45;sim&#45;&gt;gz&#45;sim&#45;yarp&#45;plugins</title>
<path fill="none" stroke="black" d="M1094.71,-215.7C1094.71,-208.41 1094.71,-199.73 1094.71,-191.54"/>
<polygon fill="black" stroke="black" points="1098.21,-191.62 1094.71,-181.62 1091.21,-191.62 1098.21,-191.62"/>
</g>
<!-- gnss&#45;sdr -->
<g id="node44" class="node">
<title>gnss&#45;sdr</title>
<g id="a_node44"><a xlink:href="https://github.com/conda-forge/gnss-sdr-feedstock/pull/37" xlink:title="gnss sdr ❎">
<ellipse fill="#31688e" stroke="black" cx="403.71" cy="-234" rx="69.1" ry="18"/>
<text text-anchor="middle" x="403.71" y="-229.32" font-family="Times,serif" font-size="14.00" fill="white">gnss sdr ❎</text>
</a>
</g>
</g>
<!-- arcticdb&#45;&gt;gnss&#45;sdr -->
<!-- openvino -->
<g id="node42" class="node">
<title>openvino</title>
<g id="a_node42"><a xlink:href="https://github.com/conda-forge/openvino-feedstock/pull/129" xlink:title="openvino ❎">
<ellipse fill="#31688e" stroke="black" cx="277.71" cy="-1106" rx="71.73" ry="18"/>
<text text-anchor="middle" x="277.71" y="-1101.33" font-family="Times,serif" font-size="14.00" fill="white">openvino ❎</text>
</a>
</g>
</g>
<!-- openvino&#45;&gt;opencv -->
<g id="edge51" class="edge">
<title>openvino&#45;&gt;opencv</title>
<path fill="none" stroke="black" d="M312,-1089.81C336.64,-1078.89 369.95,-1064.13 395.8,-1052.68"/>
<polygon fill="black" stroke="black" points="396.91,-1056.02 404.63,-1048.77 394.07,-1049.62 396.91,-1056.02"/>
</g>
<!-- openvino&#45;tokenizers -->
<g id="node43" class="node">
<title>openvino&#45;tokenizers</title>
<g id="a_node43"><a xlink:href="https://github.com/conda-forge/openvino-tokenizers-feedstock" xlink:title="openvino tokenizers">
<ellipse fill="#fde725" stroke="black" cx="111.71" cy="-1034" rx="111.71" ry="18"/>
<text text-anchor="middle" x="111.71" y="-1029.33" font-family="Times,serif" font-size="14.00">openvino tokenizers</text>
</a>
</g>
</g>
<!-- openvino&#45;&gt;openvino&#45;tokenizers -->
<g id="edge52" class="edge">
<title>openvino&#45;&gt;openvino&#45;tokenizers</title>
<path fill="none" stroke="black" d="M242.1,-1089.98C218.4,-1079.99 186.96,-1066.73 160.89,-1055.74"/>
<polygon fill="black" stroke="black" points="162.42,-1052.58 151.84,-1051.92 159.7,-1059.03 162.42,-1052.58"/>
</g>
<!-- tensorstore -->
<g id="node45" class="node">
<title>tensorstore</title>
<g id="a_node45"><a xlink:href="https://github.com/conda-forge/tensorstore-feedstock/pull/54" xlink:title="tensorstore ❎">
<ellipse fill="#31688e" stroke="black" cx="403.71" cy="-162" rx="84.35" ry="18"/>
<text text-anchor="middle" x="403.71" y="-157.32" font-family="Times,serif" font-size="14.00" fill="white">tensorstore ❎</text>
</a>
</g>
</g>
<!-- gnss&#45;sdr&#45;&gt;tensorstore -->
<!-- bfiocpp -->
<g id="node46" class="node">
<title>bfiocpp</title>
<g id="a_node46"><a xlink:href="https://github.com/conda-forge/bfiocpp-feedstock/pull/14" xlink:title="bfiocpp ✓">
<ellipse fill="#31688e" stroke="black" cx="403.71" cy="-90" rx="55.42" ry="18"/>
<text text-anchor="middle" x="403.71" y="-85.33" font-family="Times,serif" font-size="14.00" fill="white">bfiocpp ✓</text>
</a>
</g>
</g>
<!-- tensorstore&#45;&gt;bfiocpp -->
<!-- mysqlx&#45;connector&#45;python -->
<g id="node47" class="node">
<title>mysqlx&#45;connector&#45;python</title>
<g id="a_node47"><a xlink:href="https://github.com/conda-forge/mysqlx-connector-python-feedstock/pull/11" xlink:title="mysqlx connector python ✓">
<ellipse fill="#31688e" stroke="black" cx="403.71" cy="-18" rx="145.38" ry="18"/>
<text text-anchor="middle" x="403.71" y="-13.32" font-family="Times,serif" font-size="14.00" fill="white">mysqlx connector python ✓</text>
</a>
</g>
</g>
<!-- bfiocpp&#45;&gt;mysqlx&#45;connector&#45;python -->
</g>
</svg>
