<?xml version="1.0" encoding="UTF-8" standalone="no"?>
<!DOCTYPE svg PUBLIC "-//W3C//DTD SVG 1.1//EN"
 "http://www.w3.org/Graphics/SVG/1.1/DTD/svg11.dtd">
<!-- Generated by graphviz version 12.2.1 (20250203.1708)
 -->
<!-- Pages: 1 -->
<svg width="1896pt" height="1428pt"
 viewBox="0.00 0.00 1895.64 1428.00" xmlns="http://www.w3.org/2000/svg" xmlns:xlink="http://www.w3.org/1999/xlink">
<g id="graph0" class="graph" transform="scale(1 1) rotate(0) translate(4 1424)">
<polygon fill="white" stroke="none" points="-4,4 -4,-1424 1891.64,-1424 1891.64,4 -4,4"/>
<!-- arrow&#45;cpp -->
<g id="node1" class="node">
<title>arrow&#45;cpp</title>
<g id="a_node1"><a xlink:href="https://github.com/conda-forge/arrow-cpp-feedstock" xlink:title="arrow cpp">
<ellipse fill="#35b779" stroke="black" cx="98.26" cy="-1078" rx="61.73" ry="18"/>
<text text-anchor="middle" x="98.26" y="-1073.33" font-family="Times,serif" font-size="14.00">arrow cpp</text>
</a>
</g>
</g>
<!-- ray&#45;packages -->
<g id="node2" class="node">
<title>ray&#45;packages</title>
<g id="a_node2"><a xlink:href="https://github.com/conda-forge/ray-packages-feedstock" xlink:title="ray packages">
<ellipse fill="#fde725" stroke="black" cx="750.26" cy="-1006" rx="76.99" ry="18"/>
<text text-anchor="middle" x="750.26" y="-1001.33" font-family="Times,serif" font-size="14.00">ray packages</text>
</a>
</g>
</g>
<!-- arrow&#45;cpp&#45;&gt;ray&#45;packages -->
<g id="edge1" class="edge">
<title>arrow&#45;cpp&#45;&gt;ray&#45;packages</title>
<path fill="none" stroke="black" d="M142.47,-1065.09C150.98,-1063.13 159.86,-1061.32 168.26,-1060 386.62,-1025.8 445.21,-1053.49 664.26,-1024 670.74,-1023.13 677.46,-1022.07 684.16,-1020.92"/>
<polygon fill="black" stroke="black" points="684.67,-1024.38 693.89,-1019.16 683.42,-1017.49 684.67,-1024.38"/>
</g>
<!-- datafusion -->
<g id="node3" class="node">
<title>datafusion</title>
<g id="a_node3"><a xlink:href="https://github.com/conda-forge/datafusion-feedstock" xlink:title="datafusion">
<ellipse fill="#fde725" stroke="black" cx="144.26" cy="-1006" rx="63.84" ry="18"/>
<text text-anchor="middle" x="144.26" y="-1001.33" font-family="Times,serif" font-size="14.00">datafusion</text>
</a>
</g>
</g>
<!-- arrow&#45;cpp&#45;&gt;datafusion -->
<g id="edge2" class="edge">
<title>arrow&#45;cpp&#45;&gt;datafusion</title>
<path fill="none" stroke="black" d="M109.4,-1060.05C114.65,-1052.06 121.04,-1042.33 126.91,-1033.4"/>
<polygon fill="black" stroke="black" points="129.83,-1035.33 132.4,-1025.05 123.98,-1031.49 129.83,-1035.33"/>
</g>
<!-- arcticdb -->
<g id="node4" class="node">
<title>arcticdb</title>
<g id="a_node4"><a xlink:href="https://github.com/conda-forge/arcticdb-feedstock" xlink:title="arcticdb">
<ellipse fill="#fde725" stroke="black" cx="52.26" cy="-934" rx="52.26" ry="18"/>
<text text-anchor="middle" x="52.26" y="-929.33" font-family="Times,serif" font-size="14.00">arcticdb</text>
</a>
</g>
</g>
<!-- arrow&#45;cpp&#45;&gt;arcticdb -->
<g id="edge3" class="edge">
<title>arrow&#45;cpp&#45;&gt;arcticdb</title>
<path fill="none" stroke="black" d="M88.07,-1059.84C82.43,-1049.71 75.68,-1036.46 71.26,-1024 64.31,-1004.4 59.49,-981.43 56.44,-963.73"/>
<polygon fill="black" stroke="black" points="59.9,-963.23 54.85,-953.92 52.99,-964.35 59.9,-963.23"/>
</g>
<!-- opencv -->
<g id="node5" class="node">
<title>opencv</title>
<g id="a_node5"><a xlink:href="https://github.com/conda-forge/opencv-feedstock" xlink:title="opencv">
<ellipse fill="#fde725" stroke="black" cx="576.26" cy="-1078" rx="46.47" ry="18"/>
<text text-anchor="middle" x="576.26" y="-1073.33" font-family="Times,serif" font-size="14.00">opencv</text>
</a>
</g>
</g>
<!-- opencv&#45;&gt;ray&#45;packages -->
<g id="edge4" class="edge">
<title>opencv&#45;&gt;ray&#45;packages</title>
<path fill="none" stroke="black" d="M607.77,-1064.32C634.14,-1053.72 672.18,-1038.41 702.33,-1026.28"/>
<polygon fill="black" stroke="black" points="703.25,-1029.68 711.22,-1022.71 700.64,-1023.19 703.25,-1029.68"/>
</g>
<!-- imp -->
<g id="node6" class="node">
<title>imp</title>
<g id="a_node6"><a xlink:href="https://github.com/conda-forge/imp-feedstock" xlink:title="imp">
<ellipse fill="#fde725" stroke="black" cx="625.26" cy="-1006" rx="30.16" ry="18"/>
<text text-anchor="middle" x="625.26" y="-1001.33" font-family="Times,serif" font-size="14.00">imp</text>
</a>
</g>
</g>
<!-- opencv&#45;&gt;imp -->
<g id="edge5" class="edge">
<title>opencv&#45;&gt;imp</title>
<path fill="none" stroke="black" d="M587.87,-1060.41C593.75,-1052.01 601.02,-1041.63 607.58,-1032.26"/>
<polygon fill="black" stroke="black" points="610.33,-1034.43 613.2,-1024.23 604.6,-1030.41 610.33,-1034.43"/>
</g>
<!-- gazebo&#45;yarp&#45;plugins -->
<g id="node7" class="node">
<title>gazebo&#45;yarp&#45;plugins</title>
<g id="a_node7"><a xlink:href="https://github.com/conda-forge/gazebo-yarp-plugins-feedstock" xlink:title="gazebo yarp plugins">
<ellipse fill="#fde725" stroke="black" cx="427.26" cy="-1006" rx="112.24" ry="18"/>
<text text-anchor="middle" x="427.26" y="-1001.33" font-family="Times,serif" font-size="14.00">gazebo yarp plugins</text>
</a>
</g>
</g>
<!-- opencv&#45;&gt;gazebo&#45;yarp&#45;plugins -->
<g id="edge6" class="edge">
<title>opencv&#45;&gt;gazebo&#45;yarp&#45;plugins</title>
<path fill="none" stroke="black" d="M547.53,-1063.5C526.3,-1053.53 496.96,-1039.74 472.57,-1028.29"/>
<polygon fill="black" stroke="black" points="474.38,-1025.27 463.84,-1024.18 471.4,-1031.6 474.38,-1025.27"/>
</g>
<!-- nvidia&#45;dali&#45;python -->
<g id="node8" class="node">
<title>nvidia&#45;dali&#45;python</title>
<g id="a_node8"><a xlink:href="https://github.com/conda-forge/nvidia-dali-python-feedstock" xlink:title="nvidia dali python">
<ellipse fill="#fde725" stroke="black" cx="567.26" cy="-934" rx="101.19" ry="18"/>
<text text-anchor="middle" x="567.26" y="-929.33" font-family="Times,serif" font-size="14.00">nvidia dali python</text>
</a>
</g>
</g>
<!-- opencv&#45;&gt;nvidia&#45;dali&#45;python -->
<g id="edge7" class="edge">
<title>opencv&#45;&gt;nvidia&#45;dali&#45;python</title>
<path fill="none" stroke="black" d="M575.16,-1059.59C573.64,-1035.61 570.88,-992.14 569.06,-963.42"/>
<polygon fill="black" stroke="black" points="572.57,-963.38 568.44,-953.62 565.58,-963.82 572.57,-963.38"/>
</g>
<!-- paraview -->
<g id="node9" class="node">
<title>paraview</title>
<g id="a_node9"><a xlink:href="https://github.com/conda-forge/paraview-feedstock/pull/277" xlink:title="paraview ❎">
<ellipse fill="#31688e" stroke="black" cx="1742.26" cy="-1402" rx="72.25" ry="18"/>
<text text-anchor="middle" x="1742.26" y="-1397.33" font-family="Times,serif" font-size="14.00" fill="white">paraview ❎</text>
</a>
</g>
</g>
<!-- qgis -->
<g id="node10" class="node">
<title>qgis</title>
<g id="a_node10"><a xlink:href="https://github.com/conda-forge/qgis-feedstock" xlink:title="qgis">
<ellipse fill="#ff8c00" stroke="black" cx="1742.26" cy="-1330" rx="32.27" ry="18"/>
<text text-anchor="middle" x="1742.26" y="-1325.33" font-family="Times,serif" font-size="14.00">qgis</text>
</a>
</g>
</g>
<!-- paraview&#45;&gt;qgis -->
<!-- tiledb -->
<g id="node11" class="node">
<title>tiledb</title>
<g id="a_node11"><a xlink:href="https://github.com/conda-forge/tiledb-feedstock" xlink:title="tiledb">
<ellipse fill="#ff8c00" stroke="black" cx="1742.26" cy="-1258" rx="40.16" ry="18"/>
<text text-anchor="middle" x="1742.26" y="-1253.33" font-family="Times,serif" font-size="14.00">tiledb</text>
</a>
</g>
</g>
<!-- qgis&#45;&gt;tiledb -->
<!-- pyaudi -->
<g id="node12" class="node">
<title>pyaudi</title>
<g id="a_node12"><a xlink:href="https://github.com/conda-forge/pyaudi-feedstock/pull/47" xlink:title="pyaudi ❎">
<ellipse fill="#31688e" stroke="black" cx="1742.26" cy="-1186" rx="60.15" ry="18"/>
<text text-anchor="middle" x="1742.26" y="-1181.33" font-family="Times,serif" font-size="14.00" fill="white">pyaudi ❎</text>
</a>
</g>
</g>
<!-- tiledb&#45;&gt;pyaudi -->
<!-- tensorflow -->
<g id="node13" class="node">
<title>tensorflow</title>
<g id="a_node13"><a xlink:href="https://github.com/conda-forge/tensorflow-feedstock/pull/424" xlink:title="tensorflow ❎">
<ellipse fill="#31688e" stroke="black" cx="1742.26" cy="-1114" rx="79.09" ry="18"/>
<text text-anchor="middle" x="1742.26" y="-1109.33" font-family="Times,serif" font-size="14.00" fill="white">tensorflow ❎</text>
</a>
</g>
</g>
<!-- pyaudi&#45;&gt;tensorflow -->
<!-- mongodb -->
<g id="node14" class="node">
<title>mongodb</title>
<g id="a_node14"><a xlink:href="https://github.com/conda-forge/mongodb-feedstock/pull/101" xlink:title="mongodb ❎">
<ellipse fill="#31688e" stroke="black" cx="1742.26" cy="-1042" rx="72.78" ry="18"/>
<text text-anchor="middle" x="1742.26" y="-1037.33" font-family="Times,serif" font-size="14.00" fill="white">mongodb ❎</text>
</a>
</g>
</g>
<!-- tensorflow&#45;&gt;mongodb -->
<!-- go&#45;cockroach -->
<g id="node16" class="node">
<title>go&#45;cockroach</title>
<g id="a_node16"><a xlink:href="https://github.com/conda-forge/go-cockroach-feedstock" xlink:title="go cockroach">
<ellipse fill="#ff8c00" stroke="black" cx="1742.26" cy="-970" rx="76.46" ry="18"/>
<text text-anchor="middle" x="1742.26" y="-965.33" font-family="Times,serif" font-size="14.00">go cockroach</text>
</a>
</g>
</g>
<!-- mongodb&#45;&gt;go&#45;cockroach -->
<!-- pytorch&#45;cpu -->
<g id="node15" class="node">
<title>pytorch&#45;cpu</title>
<g id="a_node15"><a xlink:href="https://github.com/conda-forge/pytorch-cpu-feedstock/pull/373" xlink:title="pytorch cpu ❎">
<ellipse fill="#31688e" stroke="black" cx="742.26" cy="-1078" rx="85.93" ry="18"/>
<text text-anchor="middle" x="742.26" y="-1073.33" font-family="Times,serif" font-size="14.00" fill="white">pytorch cpu ❎</text>
</a>
</g>
</g>
<!-- pytorch&#45;cpu&#45;&gt;ray&#45;packages -->
<g id="edge13" class="edge">
<title>pytorch&#45;cpu&#45;&gt;ray&#45;packages</title>
<path fill="none" stroke="black" d="M744.24,-1059.7C745.07,-1052.41 746.06,-1043.73 747,-1035.54"/>
<polygon fill="black" stroke="black" points="750.48,-1035.94 748.13,-1025.61 743.52,-1035.15 750.48,-1035.94"/>
</g>
<!-- cartographer -->
<g id="node28" class="node">
<title>cartographer</title>
<g id="a_node28"><a xlink:href="https://github.com/conda-forge/cartographer-feedstock/pull/74" xlink:title="cartographer ❎">
<ellipse fill="#31688e" stroke="black" cx="1742.26" cy="-898" rx="92.25" ry="18"/>
<text text-anchor="middle" x="1742.26" y="-893.33" font-family="Times,serif" font-size="14.00" fill="white">cartographer ❎</text>
</a>
</g>
</g>
<!-- go&#45;cockroach&#45;&gt;cartographer -->
<!-- jaxlib -->
<g id="node17" class="node">
<title>jaxlib</title>
<g id="a_node17"><a xlink:href="https://github.com/conda-forge/jaxlib-feedstock" xlink:title="jaxlib">
<ellipse fill="#ff8c00" stroke="black" cx="893.26" cy="-1150" rx="38.58" ry="18"/>
<text text-anchor="middle" x="893.26" y="-1145.33" font-family="Times,serif" font-size="14.00">jaxlib</text>
</a>
</g>
</g>
<!-- mujoco -->
<g id="node18" class="node">
<title>mujoco</title>
<g id="a_node18"><a xlink:href="https://github.com/conda-forge/mujoco-feedstock" xlink:title="mujoco">
<ellipse fill="#fde725" stroke="black" cx="893.26" cy="-1078" rx="47" ry="18"/>
<text text-anchor="middle" x="893.26" y="-1073.33" font-family="Times,serif" font-size="14.00">mujoco</text>
</a>
</g>
</g>
<!-- jaxlib&#45;&gt;mujoco -->
<g id="edge15" class="edge">
<title>jaxlib&#45;&gt;mujoco</title>
<path fill="none" stroke="black" d="M893.26,-1131.7C893.26,-1124.41 893.26,-1115.73 893.26,-1107.54"/>
<polygon fill="black" stroke="black" points="896.76,-1107.62 893.26,-1097.62 889.76,-1107.62 896.76,-1107.62"/>
</g>
<!-- mujoco&#45;&gt;ray&#45;packages -->
<g id="edge16" class="edge">
<title>mujoco&#45;&gt;ray&#45;packages</title>
<path fill="none" stroke="black" d="M865.01,-1063.17C844.4,-1053.08 816.11,-1039.23 792.77,-1027.81"/>
<polygon fill="black" stroke="black" points="794.33,-1024.67 783.81,-1023.42 791.25,-1030.96 794.33,-1024.67"/>
</g>
<!-- libignition&#45;transport4 -->
<g id="node19" class="node">
<title>libignition&#45;transport4</title>
<g id="a_node19"><a xlink:href="https://github.com/conda-forge/libignition-transport4-feedstock" xlink:title="libignition transport4">
<ellipse fill="#fde725" stroke="black" cx="1153.26" cy="-1114" rx="119.08" ry="18"/>
<text text-anchor="middle" x="1153.26" y="-1109.33" font-family="Times,serif" font-size="14.00">libignition transport4</text>
</a>
</g>
</g>
<!-- libignition&#45;sensors -->
<g id="node20" class="node">
<title>libignition&#45;sensors</title>
<g id="a_node20"><a xlink:href="https://github.com/conda-forge/libignition-sensors-feedstock" xlink:title="libignition sensors">
<ellipse fill="#fde725" stroke="black" cx="1308.26" cy="-1042" rx="103.82" ry="18"/>
<text text-anchor="middle" x="1308.26" y="-1037.33" font-family="Times,serif" font-size="14.00">libignition sensors</text>
</a>
</g>
</g>
<!-- libignition&#45;transport4&#45;&gt;libignition&#45;sensors -->
<g id="edge17" class="edge">
<title>libignition&#45;transport4&#45;&gt;libignition&#45;sensors</title>
<path fill="none" stroke="black" d="M1189.99,-1096.41C1211.5,-1086.7 1238.86,-1074.34 1261.84,-1063.96"/>
<polygon fill="black" stroke="black" points="1263.01,-1067.28 1270.68,-1059.97 1260.13,-1060.9 1263.01,-1067.28"/>
</g>
<!-- libignition&#45;gui -->
<g id="node21" class="node">
<title>libignition&#45;gui</title>
<g id="a_node21"><a xlink:href="https://github.com/conda-forge/libignition-gui-feedstock" xlink:title="libignition gui">
<ellipse fill="#fde725" stroke="black" cx="1029.26" cy="-1042" rx="81.2" ry="18"/>
<text text-anchor="middle" x="1029.26" y="-1037.33" font-family="Times,serif" font-size="14.00">libignition gui</text>
</a>
</g>
</g>
<!-- libignition&#45;transport4&#45;&gt;libignition&#45;gui -->
<g id="edge18" class="edge">
<title>libignition&#45;transport4&#45;&gt;libignition&#45;gui</title>
<path fill="none" stroke="black" d="M1123.56,-1096.23C1106.83,-1086.79 1085.75,-1074.89 1067.77,-1064.74"/>
<polygon fill="black" stroke="black" points="1069.61,-1061.76 1059.18,-1059.89 1066.17,-1067.86 1069.61,-1061.76"/>
</g>
<!-- libignition&#45;gazebo -->
<g id="node22" class="node">
<title>libignition&#45;gazebo</title>
<g id="a_node22"><a xlink:href="https://github.com/conda-forge/libignition-gazebo-feedstock" xlink:title="libignition gazebo">
<ellipse fill="#fde725" stroke="black" cx="1288.26" cy="-970" rx="100.66" ry="18"/>
<text text-anchor="middle" x="1288.26" y="-965.33" font-family="Times,serif" font-size="14.00">libignition gazebo</text>
</a>
</g>
</g>
<!-- libignition&#45;transport4&#45;&gt;libignition&#45;gazebo -->
<g id="edge19" class="edge">
<title>libignition&#45;transport4&#45;&gt;libignition&#45;gazebo</title>
<path fill="none" stroke="black" d="M1157.93,-1095.8C1163.91,-1076.43 1175.88,-1044.94 1195.26,-1024 1207.38,-1010.91 1223.48,-1000.19 1238.88,-991.89"/>
<polygon fill="black" stroke="black" points="1240.19,-995.16 1247.5,-987.49 1237,-988.92 1240.19,-995.16"/>
</g>
<!-- libignition&#45;launch -->
<g id="node23" class="node">
<title>libignition&#45;launch</title>
<g id="a_node23"><a xlink:href="https://github.com/conda-forge/libignition-launch-feedstock" xlink:title="libignition launch">
<ellipse fill="#fde725" stroke="black" cx="1223.26" cy="-898" rx="98.56" ry="18"/>
<text text-anchor="middle" x="1223.26" y="-893.33" font-family="Times,serif" font-size="14.00">libignition launch</text>
</a>
</g>
</g>
<!-- libignition&#45;transport4&#45;&gt;libignition&#45;launch -->
<g id="edge20" class="edge">
<title>libignition&#45;transport4&#45;&gt;libignition&#45;launch</title>
<path fill="none" stroke="black" d="M1152.93,-1095.68C1152.99,-1065.2 1156.02,-1000.62 1178.26,-952 1182.83,-942 1189.85,-932.41 1196.99,-924.2"/>
<polygon fill="black" stroke="black" points="1199.43,-926.72 1203.65,-917 1194.29,-921.97 1199.43,-926.72"/>
</g>
<!-- libignition&#45;sensors&#45;&gt;libignition&#45;gazebo -->
<g id="edge21" class="edge">
<title>libignition&#45;sensors&#45;&gt;libignition&#45;gazebo</title>
<path fill="none" stroke="black" d="M1303.32,-1023.7C1301.19,-1016.24 1298.64,-1007.32 1296.25,-998.97"/>
<polygon fill="black" stroke="black" points="1299.68,-998.21 1293.56,-989.56 1292.95,-1000.14 1299.68,-998.21"/>
</g>
<!-- libignition&#45;gui&#45;&gt;libignition&#45;gazebo -->
<g id="edge22" class="edge">
<title>libignition&#45;gui&#45;&gt;libignition&#45;gazebo</title>
<path fill="none" stroke="black" d="M1079.51,-1027.42C1120.46,-1016.35 1178.6,-1000.64 1223.13,-988.6"/>
<polygon fill="black" stroke="black" points="1223.93,-992.01 1232.67,-986.02 1222.11,-985.25 1223.93,-992.01"/>
</g>
<!-- libignition&#45;gui&#45;&gt;libignition&#45;launch -->
<g id="edge23" class="edge">
<title>libignition&#45;gui&#45;&gt;libignition&#45;launch</title>
<path fill="none" stroke="black" d="M1044.6,-1024.18C1062.51,-1005.17 1093.59,-974 1124.26,-952 1140.95,-940.03 1160.66,-928.94 1178.09,-920.03"/>
<polygon fill="black" stroke="black" points="1179.32,-923.33 1186.69,-915.72 1176.18,-917.07 1179.32,-923.33"/>
</g>
<!-- libignition&#45;gazebo&#45;&gt;libignition&#45;launch -->
<g id="edge24" class="edge">
<title>libignition&#45;gazebo&#45;&gt;libignition&#45;launch</title>
<path fill="none" stroke="black" d="M1272.53,-952.05C1264.7,-943.63 1255.09,-933.28 1246.44,-923.97"/>
<polygon fill="black" stroke="black" points="1249.25,-921.84 1239.88,-916.9 1244.12,-926.61 1249.25,-921.84"/>
</g>
<!-- libignition&#45;msgs1 -->
<g id="node24" class="node">
<title>libignition&#45;msgs1</title>
<g id="a_node24"><a xlink:href="https://github.com/conda-forge/libignition-msgs1-feedstock/pull/114" xlink:title="libignition msgs1 ❎">
<ellipse fill="#31688e" stroke="black" cx="1370.26" cy="-1186" rx="113.29" ry="18"/>
<text text-anchor="middle" x="1370.26" y="-1181.33" font-family="Times,serif" font-size="14.00" fill="white">libignition msgs1 ❎</text>
</a>
</g>
</g>
<!-- libignition&#45;msgs1&#45;&gt;libignition&#45;transport4 -->
<g id="edge25" class="edge">
<title>libignition&#45;msgs1&#45;&gt;libignition&#45;transport4</title>
<path fill="none" stroke="black" d="M1321.56,-1169.29C1289.43,-1158.92 1247.11,-1145.27 1212.95,-1134.26"/>
<polygon fill="black" stroke="black" points="1214.2,-1130.98 1203.61,-1131.24 1212.06,-1137.64 1214.2,-1130.98"/>
</g>
<!-- libignition&#45;msgs1&#45;&gt;libignition&#45;sensors -->
<g id="edge26" class="edge">
<title>libignition&#45;msgs1&#45;&gt;libignition&#45;sensors</title>
<path fill="none" stroke="black" d="M1348.22,-1167.97C1337.66,-1158.55 1325.91,-1145.95 1319.26,-1132 1310.3,-1113.18 1307.7,-1089.7 1307.26,-1071.59"/>
<polygon fill="black" stroke="black" points="1310.76,-1071.8 1307.25,-1061.8 1303.76,-1071.81 1310.76,-1071.8"/>
</g>
<!-- libignition&#45;msgs1&#45;&gt;libignition&#45;gui -->
<g id="edge27" class="edge">
<title>libignition&#45;msgs1&#45;&gt;libignition&#45;gui</title>
<path fill="none" stroke="black" d="M1258.35,-1183.07C1169.35,-1178.88 1055.01,-1166.66 1025.26,-1132 1011.18,-1115.59 1013.67,-1090.57 1018.83,-1071.23"/>
<polygon fill="black" stroke="black" points="1022.14,-1072.36 1021.73,-1061.78 1015.45,-1070.31 1022.14,-1072.36"/>
</g>
<!-- libignition&#45;msgs1&#45;&gt;libignition&#45;gazebo -->
<g id="edge28" class="edge">
<title>libignition&#45;msgs1&#45;&gt;libignition&#45;gazebo</title>
<path fill="none" stroke="black" d="M1462.44,-1175.23C1523.17,-1164.43 1587.09,-1142.02 1561.26,-1096 1524.36,-1030.25 1442.01,-998.9 1377.35,-984.06"/>
<polygon fill="black" stroke="black" points="1378.32,-980.69 1367.8,-981.97 1376.82,-987.53 1378.32,-980.69"/>
</g>
<!-- libignition&#45;msgs1&#45;&gt;libignition&#45;launch -->
<g id="edge29" class="edge">
<title>libignition&#45;msgs1&#45;&gt;libignition&#45;launch</title>
<path fill="none" stroke="black" d="M1455.95,-1173.89C1506.25,-1165.41 1562.88,-1151.79 1578.26,-1132 1588.08,-1119.37 1583.39,-1111.16 1578.26,-1096 1540.28,-983.72 1399.01,-933.94 1306.55,-913.01"/>
<polygon fill="black" stroke="black" points="1307.52,-909.64 1297,-910.92 1306.02,-916.47 1307.52,-909.64"/>
</g>
<!-- libignition&#45;fuel&#45;tools -->
<g id="node25" class="node">
<title>libignition&#45;fuel&#45;tools</title>
<g id="a_node25"><a xlink:href="https://github.com/conda-forge/libignition-fuel-tools-feedstock" xlink:title="libignition fuel tools">
<ellipse fill="#fde725" stroke="black" cx="1440.26" cy="-1114" rx="111.71" ry="18"/>
<text text-anchor="middle" x="1440.26" y="-1109.33" font-family="Times,serif" font-size="14.00">libignition fuel tools</text>
</a>
</g>
</g>
<!-- libignition&#45;msgs1&#45;&gt;libignition&#45;fuel&#45;tools -->
<g id="edge30" class="edge">
<title>libignition&#45;msgs1&#45;&gt;libignition&#45;fuel&#45;tools</title>
<path fill="none" stroke="black" d="M1387.21,-1168.05C1395.51,-1159.75 1405.68,-1149.58 1414.88,-1140.38"/>
<polygon fill="black" stroke="black" points="1417.32,-1142.89 1421.92,-1133.35 1412.37,-1137.94 1417.32,-1142.89"/>
</g>
<!-- libignition&#45;fuel&#45;tools&#45;&gt;libignition&#45;gazebo -->
<g id="edge31" class="edge">
<title>libignition&#45;fuel&#45;tools&#45;&gt;libignition&#45;gazebo</title>
<path fill="none" stroke="black" d="M1441.14,-1095.52C1441.18,-1075.89 1438.28,-1044.16 1421.26,-1024 1407,-1007.1 1386.58,-995.54 1366.01,-987.66"/>
<polygon fill="black" stroke="black" points="1367.29,-984.4 1356.69,-984.36 1364.96,-991 1367.29,-984.4"/>
</g>
<!-- gazebo -->
<g id="node26" class="node">
<title>gazebo</title>
<g id="a_node26"><a xlink:href="https://github.com/conda-forge/gazebo-feedstock" xlink:title="gazebo">
<ellipse fill="#ff8c00" stroke="black" cx="465.26" cy="-1078" rx="46.47" ry="18"/>
<text text-anchor="middle" x="465.26" y="-1073.33" font-family="Times,serif" font-size="14.00">gazebo</text>
</a>
</g>
</g>
<!-- gazebo&#45;&gt;gazebo&#45;yarp&#45;plugins -->
<g id="edge32" class="edge">
<title>gazebo&#45;&gt;gazebo&#45;yarp&#45;plugins</title>
<path fill="none" stroke="black" d="M456.06,-1060.05C451.88,-1052.35 446.82,-1043.03 442.12,-1034.36"/>
<polygon fill="black" stroke="black" points="445.21,-1032.72 437.36,-1025.61 439.06,-1036.06 445.21,-1032.72"/>
</g>
<!-- google&#45;cloud&#45;cpp -->
<g id="node27" class="node">
<title>google&#45;cloud&#45;cpp</title>
<g id="a_node27"><a xlink:href="https://github.com/conda-forge/google-cloud-cpp-feedstock" xlink:title="google cloud cpp">
<ellipse fill="#fde725" stroke="black" cx="450.26" cy="-278" rx="95.4" ry="18"/>
<text text-anchor="middle" x="450.26" y="-273.32" font-family="Times,serif" font-size="14.00">google cloud cpp</text>
</a>
</g>
</g>
<!-- tomviz -->
<g id="node29" class="node">
<title>tomviz</title>
<g id="a_node29"><a xlink:href="https://github.com/conda-forge/tomviz-feedstock" xlink:title="tomviz">
<ellipse fill="#ff8c00" stroke="black" cx="1742.26" cy="-826" rx="44.9" ry="18"/>
<text text-anchor="middle" x="1742.26" y="-821.33" font-family="Times,serif" font-size="14.00">tomviz</text>
</a>
</g>
</g>
<!-- cartographer&#45;&gt;tomviz -->
<!-- protozfits -->
<g id="node34" class="node">
<title>protozfits</title>
<g id="a_node34"><a xlink:href="https://github.com/conda-forge/protozfits-feedstock/pull/48" xlink:title="protozfits ✓">
<ellipse fill="#31688e" stroke="black" cx="1742.26" cy="-754" rx="66.99" ry="18"/>
<text text-anchor="middle" x="1742.26" y="-749.33" font-family="Times,serif" font-size="14.00" fill="white">protozfits ✓</text>
</a>
</g>
</g>
<!-- tomviz&#45;&gt;protozfits -->
<!-- sentencepiece -->
<g id="node30" class="node">
<title>sentencepiece</title>
<g id="a_node30"><a xlink:href="https://github.com/conda-forge/sentencepiece-feedstock/pull/64" xlink:title="sentencepiece ✓">
<ellipse fill="#31688e" stroke="black" cx="470.26" cy="-90" rx="90.14" ry="18"/>
<text text-anchor="middle" x="470.26" y="-85.33" font-family="Times,serif" font-size="14.00" fill="white">sentencepiece ✓</text>
</a>
</g>
</g>
<!-- curated&#45;tokenizers -->
<g id="node31" class="node">
<title>curated&#45;tokenizers</title>
<g id="a_node31"><a xlink:href="https://github.com/conda-forge/curated-tokenizers-feedstock" xlink:title="curated tokenizers">
<ellipse fill="#fde725" stroke="black" cx="470.26" cy="-18" rx="104.87" ry="18"/>
<text text-anchor="middle" x="470.26" y="-13.32" font-family="Times,serif" font-size="14.00">curated tokenizers</text>
</a>
</g>
</g>
<!-- sentencepiece&#45;&gt;curated&#45;tokenizers -->
<g id="edge35" class="edge">
<title>sentencepiece&#45;&gt;curated&#45;tokenizers</title>
<path fill="none" stroke="black" d="M470.26,-71.7C470.26,-64.41 470.26,-55.73 470.26,-47.54"/>
<polygon fill="black" stroke="black" points="473.76,-47.62 470.26,-37.62 466.76,-47.62 473.76,-47.62"/>
</g>
<!-- s2geometry -->
<g id="node32" class="node">
<title>s2geometry</title>
<g id="a_node32"><a xlink:href="https://github.com/conda-forge/s2geometry-feedstock/pull/23" xlink:title="s2geometry ❎">
<ellipse fill="#31688e" stroke="black" cx="1268.26" cy="-90" rx="85.93" ry="18"/>
<text text-anchor="middle" x="1268.26" y="-85.33" font-family="Times,serif" font-size="14.00" fill="white">s2geometry ❎</text>
</a>
</g>
</g>
<!-- s2geography -->
<g id="node33" class="node">
<title>s2geography</title>
<g id="a_node33"><a xlink:href="https://github.com/conda-forge/s2geography-feedstock" xlink:title="s2geography">
<ellipse fill="#fde725" stroke="black" cx="1268.26" cy="-18" rx="75.94" ry="18"/>
<text text-anchor="middle" x="1268.26" y="-13.32" font-family="Times,serif" font-size="14.00">s2geography</text>
</a>
</g>
</g>
<!-- s2geometry&#45;&gt;s2geography -->
<g id="edge36" class="edge">
<title>s2geometry&#45;&gt;s2geography</title>
<path fill="none" stroke="black" d="M1268.26,-71.7C1268.26,-64.41 1268.26,-55.73 1268.26,-47.54"/>
<polygon fill="black" stroke="black" points="1271.76,-47.62 1268.26,-37.62 1264.76,-47.62 1271.76,-47.62"/>
</g>
<!-- or&#45;tools -->
<g id="node35" class="node">
<title>or&#45;tools</title>
<g id="a_node35"><a xlink:href="https://github.com/conda-forge/or-tools-feedstock/pull/65" xlink:title="or tools ❎">
<ellipse fill="#31688e" stroke="black" cx="1742.26" cy="-682" rx="64.36" ry="18"/>
<text text-anchor="middle" x="1742.26" y="-677.33" font-family="Times,serif" font-size="14.00" fill="white">or tools ❎</text>
</a>
</g>
</g>
<!-- protozfits&#45;&gt;or&#45;tools -->
<!-- bear -->
<g id="node36" class="node">
<title>bear</title>
<g id="a_node36"><a xlink:href="https://github.com/conda-forge/bear-feedstock/pull/54" xlink:title="bear ❎">
<ellipse fill="#31688e" stroke="black" cx="1742.26" cy="-638" rx="49.1" ry="18"/>
<text text-anchor="middle" x="1742.26" y="-633.33" font-family="Times,serif" font-size="14.00" fill="white">bear ❎</text>
</a>
</g>
</g>
<!-- xilinx&#45;runtime -->
<g id="node37" class="node">
<title>xilinx&#45;runtime</title>
<g id="a_node37"><a xlink:href="https://github.com/conda-forge/xilinx-runtime-feedstock/pull/40" xlink:title="xilinx runtime ❎">
<ellipse fill="#31688e" stroke="black" cx="1742.26" cy="-566" rx="96.98" ry="18"/>
<text text-anchor="middle" x="1742.26" y="-561.33" font-family="Times,serif" font-size="14.00" fill="white">xilinx runtime ❎</text>
</a>
</g>
</g>
<!-- bear&#45;&gt;xilinx&#45;runtime -->
<!-- labmaze -->
<g id="node38" class="node">
<title>labmaze</title>
<g id="a_node38"><a xlink:href="https://github.com/conda-forge/labmaze-feedstock/pull/15" xlink:title="labmaze ✓">
<ellipse fill="#31688e" stroke="black" cx="1742.26" cy="-494" rx="60.68" ry="18"/>
<text text-anchor="middle" x="1742.26" y="-489.32" font-family="Times,serif" font-size="14.00" fill="white">labmaze ✓</text>
</a>
</g>
</g>
<!-- xilinx&#45;runtime&#45;&gt;labmaze -->
<!-- gnss&#45;sdr -->
<g id="node47" class="node">
<title>gnss&#45;sdr</title>
<g id="a_node47"><a xlink:href="https://github.com/conda-forge/gnss-sdr-feedstock/pull/37" xlink:title="gnss sdr ❎">
<ellipse fill="#31688e" stroke="black" cx="1742.26" cy="-422" rx="69.1" ry="18"/>
<text text-anchor="middle" x="1742.26" y="-417.32" font-family="Times,serif" font-size="14.00" fill="white">gnss sdr ❎</text>
</a>
</g>
</g>
<!-- labmaze&#45;&gt;gnss&#45;sdr -->
<!-- gz&#45;msgs -->
<g id="node39" class="node">
<title>gz&#45;msgs</title>
<g id="a_node39"><a xlink:href="https://github.com/conda-forge/gz-msgs-feedstock" xlink:title="gz msgs">
<ellipse fill="#000000" stroke="black" cx="1273.26" cy="-530" rx="52.26" ry="18"/>
<text text-anchor="middle" x="1273.26" y="-525.33" font-family="Times,serif" font-size="14.00" fill="white">gz msgs</text>
</a>
</g>
</g>
<!-- gz&#45;transport -->
<g id="node40" class="node">
<title>gz&#45;transport</title>
<g id="a_node40"><a xlink:href="https://github.com/conda-forge/gz-transport-feedstock" xlink:title="gz transport">
<ellipse fill="#fde725" stroke="black" cx="1172.26" cy="-458" rx="73.3" ry="18"/>
<text text-anchor="middle" x="1172.26" y="-453.32" font-family="Times,serif" font-size="14.00">gz transport</text>
</a>
</g>
</g>
<!-- gz&#45;msgs&#45;&gt;gz&#45;transport -->
<g id="edge41" class="edge">
<title>gz&#45;msgs&#45;&gt;gz&#45;transport</title>
<path fill="none" stroke="black" d="M1250.85,-513.46C1237.5,-504.21 1220.31,-492.3 1205.42,-481.98"/>
<polygon fill="black" stroke="black" points="1207.48,-479.15 1197.26,-476.33 1203.49,-484.9 1207.48,-479.15"/>
</g>
<!-- gz&#45;fuel&#45;tools -->
<g id="node41" class="node">
<title>gz&#45;fuel&#45;tools</title>
<g id="a_node41"><a xlink:href="https://github.com/conda-forge/gz-fuel-tools-feedstock" xlink:title="gz fuel tools">
<ellipse fill="#fde725" stroke="black" cx="1373.26" cy="-458" rx="72.25" ry="18"/>
<text text-anchor="middle" x="1373.26" y="-453.32" font-family="Times,serif" font-size="14.00">gz fuel tools</text>
</a>
</g>
</g>
<!-- gz&#45;msgs&#45;&gt;gz&#45;fuel&#45;tools -->
<g id="edge42" class="edge">
<title>gz&#45;msgs&#45;&gt;gz&#45;fuel&#45;tools</title>
<path fill="none" stroke="black" d="M1295.45,-513.46C1308.67,-504.21 1325.69,-492.3 1340.44,-481.98"/>
<polygon fill="black" stroke="black" points="1342.31,-484.94 1348.5,-476.34 1338.3,-479.2 1342.31,-484.94"/>
</g>
<!-- gz&#45;gui -->
<g id="node42" class="node">
<title>gz&#45;gui</title>
<g id="a_node42"><a xlink:href="https://github.com/conda-forge/gz-gui-feedstock" xlink:title="gz gui">
<ellipse fill="#fde725" stroke="black" cx="1071.26" cy="-386" rx="41.74" ry="18"/>
<text text-anchor="middle" x="1071.26" y="-381.32" font-family="Times,serif" font-size="14.00">gz gui</text>
</a>
</g>
</g>
<!-- gz&#45;msgs&#45;&gt;gz&#45;gui -->
<g id="edge43" class="edge">
<title>gz&#45;msgs&#45;&gt;gz&#45;gui</title>
<path fill="none" stroke="black" d="M1221.26,-527.83C1179.95,-524.03 1123.73,-511.95 1090.26,-476 1075.35,-459.99 1071.02,-435.26 1070.17,-415.93"/>
<polygon fill="black" stroke="black" points="1073.67,-415.91 1070.06,-405.95 1066.67,-415.98 1073.67,-415.91"/>
</g>
<!-- gz&#45;sensors -->
<g id="node43" class="node">
<title>gz&#45;sensors</title>
<g id="a_node43"><a xlink:href="https://github.com/conda-forge/gz-sensors-feedstock" xlink:title="gz sensors">
<ellipse fill="#fde725" stroke="black" cx="1309.26" cy="-386" rx="64.36" ry="18"/>
<text text-anchor="middle" x="1309.26" y="-381.32" font-family="Times,serif" font-size="14.00">gz sensors</text>
</a>
</g>
</g>
<!-- gz&#45;msgs&#45;&gt;gz&#45;sensors -->
<g id="edge44" class="edge">
<title>gz&#45;msgs&#45;&gt;gz&#45;sensors</title>
<path fill="none" stroke="black" d="M1276.4,-511.82C1279.81,-493.8 1285.67,-464.73 1292.26,-440 1294.46,-431.75 1297.17,-422.88 1299.77,-414.8"/>
<polygon fill="black" stroke="black" points="1303.03,-416.09 1302.84,-405.49 1296.38,-413.9 1303.03,-416.09"/>
</g>
<!-- gz&#45;sim -->
<g id="node44" class="node">
<title>gz&#45;sim</title>
<g id="a_node44"><a xlink:href="https://github.com/conda-forge/gz-sim-feedstock" xlink:title="gz sim">
<ellipse fill="#fde725" stroke="black" cx="1284.26" cy="-314" rx="43.84" ry="18"/>
<text text-anchor="middle" x="1284.26" y="-309.32" font-family="Times,serif" font-size="14.00">gz sim</text>
</a>
</g>
</g>
<!-- gz&#45;msgs&#45;&gt;gz&#45;sim -->
<g id="edge45" class="edge">
<title>gz&#45;msgs&#45;&gt;gz&#45;sim</title>
<path fill="none" stroke="black" d="M1320.35,-521.71C1368.41,-513.2 1438.16,-497.49 1454.26,-476 1487.33,-431.86 1401.33,-368.86 1400.26,-368 1379.36,-351.17 1352.26,-338.4 1329.51,-329.62"/>
<polygon fill="black" stroke="black" points="1330.75,-326.34 1320.15,-326.15 1328.31,-332.91 1330.75,-326.34"/>
</g>
<!-- gz&#45;launch -->
<g id="node45" class="node">
<title>gz&#45;launch</title>
<g id="a_node45"><a xlink:href="https://github.com/conda-forge/gz-launch-feedstock" xlink:title="gz launch">
<ellipse fill="#fde725" stroke="black" cx="1084.26" cy="-242" rx="59.1" ry="18"/>
<text text-anchor="middle" x="1084.26" y="-237.32" font-family="Times,serif" font-size="14.00">gz launch</text>
</a>
</g>
</g>
<!-- gz&#45;msgs&#45;&gt;gz&#45;launch -->
<g id="edge46" class="edge">
<title>gz&#45;msgs&#45;&gt;gz&#45;launch</title>
<path fill="none" stroke="black" d="M1222.13,-525.73C1178.12,-520.71 1114.73,-508.03 1069.26,-476 1037.62,-453.71 1031.65,-440.99 1020.26,-404 1005.18,-355.02 1038.52,-299.93 1062.51,-268.55"/>
<polygon fill="black" stroke="black" points="1065.19,-270.8 1068.65,-260.79 1059.7,-266.46 1065.19,-270.8"/>
</g>
<!-- gz&#45;sim&#45;yarp&#45;plugins -->
<g id="node46" class="node">
<title>gz&#45;sim&#45;yarp&#45;plugins</title>
<g id="a_node46"><a xlink:href="https://github.com/conda-forge/gz-sim-yarp-plugins-feedstock" xlink:title="gz sim yarp plugins">
<ellipse fill="#fde725" stroke="black" cx="1284.26" cy="-242" rx="109.61" ry="18"/>
<text text-anchor="middle" x="1284.26" y="-237.32" font-family="Times,serif" font-size="14.00">gz sim yarp plugins</text>
</a>
</g>
</g>
<!-- gz&#45;msgs&#45;&gt;gz&#45;sim&#45;yarp&#45;plugins -->
<g id="edge47" class="edge">
<title>gz&#45;msgs&#45;&gt;gz&#45;sim&#45;yarp&#45;plugins</title>
<path fill="none" stroke="black" d="M1321.62,-522.89C1374.45,-515.1 1454.02,-499.74 1472.26,-476 1532.84,-397.18 1397.97,-306.08 1325.88,-265.05"/>
<polygon fill="black" stroke="black" points="1327.9,-262.17 1317.47,-260.34 1324.48,-268.28 1327.9,-262.17"/>
</g>
<!-- gz&#45;transport&#45;&gt;gz&#45;gui -->
<g id="edge48" class="edge">
<title>gz&#45;transport&#45;&gt;gz&#45;gui</title>
<path fill="none" stroke="black" d="M1148.58,-440.59C1134.71,-430.97 1117.04,-418.73 1102.09,-408.37"/>
<polygon fill="black" stroke="black" points="1104.18,-405.56 1093.97,-402.74 1100.2,-411.31 1104.18,-405.56"/>
</g>
<!-- gz&#45;transport&#45;&gt;gz&#45;sensors -->
<g id="edge49" class="edge">
<title>gz&#45;transport&#45;&gt;gz&#45;sensors</title>
<path fill="none" stroke="black" d="M1203.01,-441.29C1222.67,-431.24 1248.36,-418.12 1269.56,-407.28"/>
<polygon fill="black" stroke="black" points="1270.9,-410.53 1278.21,-402.86 1267.71,-404.3 1270.9,-410.53"/>
</g>
<!-- gz&#45;transport&#45;&gt;gz&#45;sim -->
<g id="edge50" class="edge">
<title>gz&#45;transport&#45;&gt;gz&#45;sim</title>
<path fill="none" stroke="black" d="M1183.74,-439.85C1196.15,-421.61 1216.76,-392.13 1236.26,-368 1243.99,-358.44 1252.91,-348.35 1260.96,-339.57"/>
<polygon fill="black" stroke="black" points="1263.37,-342.11 1267.61,-332.4 1258.24,-337.35 1263.37,-342.11"/>
</g>
<!-- gz&#45;transport&#45;&gt;gz&#45;launch -->
<g id="edge51" class="edge">
<title>gz&#45;transport&#45;&gt;gz&#45;launch</title>
<path fill="none" stroke="black" d="M1165.21,-439.85C1150.02,-402.91 1114.1,-315.55 1095.64,-270.67"/>
<polygon fill="black" stroke="black" points="1098.96,-269.55 1091.92,-261.63 1092.49,-272.21 1098.96,-269.55"/>
</g>
<!-- gz&#45;transport&#45;&gt;gz&#45;sim&#45;yarp&#45;plugins -->
<g id="edge52" class="edge">
<title>gz&#45;transport&#45;&gt;gz&#45;sim&#45;yarp&#45;plugins</title>
<path fill="none" stroke="black" d="M1175.93,-439.92C1183.06,-409.27 1200.82,-343.67 1231.26,-296 1237.72,-285.88 1246.41,-276.17 1254.88,-267.9"/>
<polygon fill="black" stroke="black" points="1257.16,-270.55 1262.08,-261.16 1252.38,-265.44 1257.16,-270.55"/>
</g>
<!-- gz&#45;fuel&#45;tools&#45;&gt;gz&#45;sim -->
<g id="edge53" class="edge">
<title>gz&#45;fuel&#45;tools&#45;&gt;gz&#45;sim</title>
<path fill="none" stroke="black" d="M1380.84,-439.6C1387.85,-420.62 1395.38,-390.01 1382.26,-368 1371.06,-349.21 1350.64,-336.68 1331.33,-328.55"/>
<polygon fill="black" stroke="black" points="1332.78,-325.36 1322.19,-325.01 1330.25,-331.89 1332.78,-325.36"/>
</g>
<!-- gz&#45;gui&#45;&gt;gz&#45;sim -->
<g id="edge54" class="edge">
<title>gz&#45;gui&#45;&gt;gz&#45;sim</title>
<path fill="none" stroke="black" d="M1103.61,-374.37C1140.07,-362.39 1199.55,-342.84 1240.22,-329.47"/>
<polygon fill="black" stroke="black" points="1241.06,-332.88 1249.47,-326.44 1238.87,-326.23 1241.06,-332.88"/>
</g>
<!-- gz&#45;gui&#45;&gt;gz&#45;launch -->
<g id="edge55" class="edge">
<title>gz&#45;gui&#45;&gt;gz&#45;launch</title>
<path fill="none" stroke="black" d="M1072.86,-367.59C1075.05,-343.61 1079.03,-300.14 1081.66,-271.42"/>
<polygon fill="black" stroke="black" points="1085.13,-271.9 1082.56,-261.62 1078.16,-271.26 1085.13,-271.9"/>
</g>
<!-- gz&#45;sensors&#45;&gt;gz&#45;sim -->
<g id="edge56" class="edge">
<title>gz&#45;sensors&#45;&gt;gz&#45;sim</title>
<path fill="none" stroke="black" d="M1303.08,-367.7C1300.39,-360.15 1297.16,-351.12 1294.15,-342.68"/>
<polygon fill="black" stroke="black" points="1297.54,-341.77 1290.88,-333.53 1290.95,-344.12 1297.54,-341.77"/>
</g>
<!-- gz&#45;sim&#45;&gt;gz&#45;launch -->
<g id="edge57" class="edge">
<title>gz&#45;sim&#45;&gt;gz&#45;launch</title>
<path fill="none" stroke="black" d="M1251.68,-301.6C1219.34,-290.28 1169.4,-272.8 1132.47,-259.87"/>
<polygon fill="black" stroke="black" points="1133.96,-256.69 1123.37,-256.69 1131.65,-263.3 1133.96,-256.69"/>
</g>
<!-- gz&#45;sim&#45;&gt;gz&#45;sim&#45;yarp&#45;plugins -->
<g id="edge58" class="edge">
<title>gz&#45;sim&#45;&gt;gz&#45;sim&#45;yarp&#45;plugins</title>
<path fill="none" stroke="black" d="M1284.26,-295.7C1284.26,-288.41 1284.26,-279.73 1284.26,-271.54"/>
<polygon fill="black" stroke="black" points="1287.76,-271.62 1284.26,-261.62 1280.76,-271.62 1287.76,-271.62"/>
</g>
<!-- tensorstore -->
<g id="node50" class="node">
<title>tensorstore</title>
<g id="a_node50"><a xlink:href="https://github.com/conda-forge/tensorstore-feedstock/pull/54" xlink:title="tensorstore ❎">
<ellipse fill="#31688e" stroke="black" cx="1742.26" cy="-350" rx="84.35" ry="18"/>
<text text-anchor="middle" x="1742.26" y="-345.32" font-family="Times,serif" font-size="14.00" fill="white">tensorstore ❎</text>
</a>
</g>
</g>
<!-- gnss&#45;sdr&#45;&gt;tensorstore -->
<!-- openvino -->
<g id="node48" class="node">
<title>openvino</title>
<g id="a_node48"><a xlink:href="https://github.com/conda-forge/openvino-feedstock/pull/128" xlink:title="openvino ❎">
<ellipse fill="#31688e" stroke="black" cx="433.26" cy="-1150" rx="71.73" ry="18"/>
<text text-anchor="middle" x="433.26" y="-1145.33" font-family="Times,serif" font-size="14.00" fill="white">openvino ❎</text>
</a>
</g>
</g>
<!-- openvino&#45;&gt;opencv -->
<g id="edge60" class="edge">
<title>openvino&#45;&gt;opencv</title>
<path fill="none" stroke="black" d="M465,-1133.46C486.69,-1122.85 515.54,-1108.72 538.43,-1097.52"/>
<polygon fill="black" stroke="black" points="539.68,-1100.81 547.12,-1093.27 536.6,-1094.52 539.68,-1100.81"/>
</g>
<!-- openvino&#45;tokenizers -->
<g id="node49" class="node">
<title>openvino&#45;tokenizers</title>
<g id="a_node49"><a xlink:href="https://github.com/conda-forge/openvino-tokenizers-feedstock" xlink:title="openvino tokenizers">
<ellipse fill="#fde725" stroke="black" cx="289.26" cy="-1078" rx="111.71" ry="18"/>
<text text-anchor="middle" x="289.26" y="-1073.33" font-family="Times,serif" font-size="14.00">openvino tokenizers</text>
</a>
</g>
</g>
<!-- openvino&#45;&gt;openvino&#45;tokenizers -->
<g id="edge61" class="edge">
<title>openvino&#45;&gt;openvino&#45;tokenizers</title>
<path fill="none" stroke="black" d="M401.3,-1133.46C381.35,-1123.76 355.37,-1111.14 333.46,-1100.48"/>
<polygon fill="black" stroke="black" points="335.28,-1097.48 324.75,-1096.25 332.21,-1103.77 335.28,-1097.48"/>
</g>
<!-- gcld3 -->
<g id="node51" class="node">
<title>gcld3</title>
<g id="a_node51"><a xlink:href="https://github.com/conda-forge/gcld3-feedstock/pull/16" xlink:title="gcld3 ❎">
<ellipse fill="#31688e" stroke="black" cx="1742.26" cy="-278" rx="53.84" ry="18"/>
<text text-anchor="middle" x="1742.26" y="-273.32" font-family="Times,serif" font-size="14.00" fill="white">gcld3 ❎</text>
</a>
</g>
</g>
<!-- tensorstore&#45;&gt;gcld3 -->
<!-- bfiocpp -->
<g id="node52" class="node">
<title>bfiocpp</title>
<g id="a_node52"><a xlink:href="https://github.com/conda-forge/bfiocpp-feedstock/pull/14" xlink:title="bfiocpp ✓">
<ellipse fill="#31688e" stroke="black" cx="1742.26" cy="-206" rx="55.42" ry="18"/>
<text text-anchor="middle" x="1742.26" y="-201.33" font-family="Times,serif" font-size="14.00" fill="white">bfiocpp ✓</text>
</a>
</g>
</g>
<!-- gcld3&#45;&gt;bfiocpp -->
<!-- mysqlx&#45;connector&#45;python -->
<g id="node56" class="node">
<title>mysqlx&#45;connector&#45;python</title>
<g id="a_node56"><a xlink:href="https://github.com/conda-forge/mysqlx-connector-python-feedstock/pull/11" xlink:title="mysqlx connector python ✓">
<ellipse fill="#31688e" stroke="black" cx="1742.26" cy="-134" rx="145.38" ry="18"/>
<text text-anchor="middle" x="1742.26" y="-129.32" font-family="Times,serif" font-size="14.00" fill="white">mysqlx connector python ✓</text>
</a>
</g>
</g>
<!-- bfiocpp&#45;&gt;mysqlx&#45;connector&#45;python -->
<!-- google&#45;cloud&#45;cpp&#45;compute -->
<g id="node53" class="node">
<title>google&#45;cloud&#45;cpp&#45;compute</title>
<g id="a_node53"><a xlink:href="https://github.com/conda-forge/google-cloud-cpp-compute-feedstock/pull/33" xlink:title="google cloud cpp compute ❎">
<ellipse fill="#31688e" stroke="black" cx="635.26" cy="-350" rx="156.96" ry="18"/>
<text text-anchor="middle" x="635.26" y="-345.32" font-family="Times,serif" font-size="14.00" fill="white">google cloud cpp compute ❎</text>
</a>
</g>
</g>
<!-- google&#45;cloud&#45;cpp&#45;compute&#45;&gt;google&#45;cloud&#45;cpp -->
<g id="edge65" class="edge">
<title>google&#45;cloud&#45;cpp&#45;compute&#45;&gt;google&#45;cloud&#45;cpp</title>
<path fill="none" stroke="black" d="M591.42,-332.41C564.61,-322.27 530.17,-309.23 502.02,-298.58"/>
<polygon fill="black" stroke="black" points="503.58,-295.43 492.98,-295.17 501.1,-301.98 503.58,-295.43"/>
</g>
<!-- google&#45;cloud&#45;cpp&#45;bigquery -->
<g id="node54" class="node">
<title>google&#45;cloud&#45;cpp&#45;bigquery</title>
<g id="a_node54"><a xlink:href="https://github.com/conda-forge/google-cloud-cpp-bigquery-feedstock/pull/28" xlink:title="google cloud cpp bigquery ✓">
<ellipse fill="#31688e" stroke="black" cx="450.26" cy="-422" rx="151.17" ry="18"/>
<text text-anchor="middle" x="450.26" y="-417.32" font-family="Times,serif" font-size="14.00" fill="white">google cloud cpp bigquery ✓</text>
</a>
</g>
</g>
<!-- google&#45;cloud&#45;cpp&#45;bigquery&#45;&gt;google&#45;cloud&#45;cpp -->
<g id="edge66" class="edge">
<title>google&#45;cloud&#45;cpp&#45;bigquery&#45;&gt;google&#45;cloud&#45;cpp</title>
<path fill="none" stroke="black" d="M450.26,-403.59C450.26,-379.61 450.26,-336.14 450.26,-307.42"/>
<polygon fill="black" stroke="black" points="453.76,-307.62 450.26,-297.62 446.76,-307.62 453.76,-307.62"/>
</g>
<!-- google&#45;cloud&#45;cpp&#45;ai -->
<g id="node55" class="node">
<title>google&#45;cloud&#45;cpp&#45;ai</title>
<g id="a_node55"><a xlink:href="https://github.com/conda-forge/google-cloud-cpp-ai-feedstock/pull/31" xlink:title="google cloud cpp ai ❎">
<ellipse fill="#31688e" stroke="black" cx="271.26" cy="-494" rx="122.76" ry="18"/>
<text text-anchor="middle" x="271.26" y="-489.32" font-family="Times,serif" font-size="14.00" fill="white">google cloud cpp ai ❎</text>
</a>
</g>
</g>
<!-- google&#45;cloud&#45;cpp&#45;ai&#45;&gt;google&#45;cloud&#45;cpp -->
<g id="edge67" class="edge">
<title>google&#45;cloud&#45;cpp&#45;ai&#45;&gt;google&#45;cloud&#45;cpp</title>
<path fill="none" stroke="black" d="M271.52,-475.64C272.54,-456.69 276.44,-426.1 290.26,-404 318.97,-358.11 370.81,-322.29 407.7,-300.98"/>
<polygon fill="black" stroke="black" points="409.36,-304.06 416.35,-296.1 405.92,-297.96 409.36,-304.06"/>
</g>
</g>
</svg>
