<?xml version="1.0" encoding="UTF-8" standalone="no"?>
<!DOCTYPE svg PUBLIC "-//W3C//DTD SVG 1.1//EN"
 "http://www.w3.org/Graphics/SVG/1.1/DTD/svg11.dtd">
<!-- Generated by graphviz version 13.1.2 (20250809.0930)
 -->
<!-- Pages: 1 -->
<svg width="2009pt" height="1788pt"
 viewBox="0.00 0.00 2009.00 1788.00" xmlns="http://www.w3.org/2000/svg" xmlns:xlink="http://www.w3.org/1999/xlink">
<g id="graph0" class="graph" transform="scale(1 1) rotate(0) translate(4 1784)">
<polygon fill="white" stroke="none" points="-4,4 -4,-1784 2005.01,-1784 2005.01,4 -4,4"/>
<!-- arrow&#45;cpp -->
<g id="node1" class="node">
<title>arrow&#45;cpp</title>
<g id="a_node1"><a xlink:href="https://github.com/conda-forge/arrow-cpp-feedstock" xlink:title="arrow cpp">
<ellipse fill="#fde725" stroke="black" cx="142.26" cy="-1402" rx="61.73" ry="18"/>
<text xml:space="preserve" text-anchor="middle" x="142.26" y="-1397.33" font-family="Times,serif" font-size="14.00">arrow cpp</text>
</a>
</g>
</g>
<!-- ray&#45;packages -->
<g id="node2" class="node">
<title>ray&#45;packages</title>
<g id="a_node2"><a xlink:href="https://github.com/conda-forge/ray-packages-feedstock" xlink:title="ray packages">
<ellipse fill="#fde725" stroke="black" cx="358.26" cy="-1330" rx="76.99" ry="18"/>
<text xml:space="preserve" text-anchor="middle" x="358.26" y="-1325.33" font-family="Times,serif" font-size="14.00">ray packages</text>
</a>
</g>
</g>
<!-- arrow&#45;cpp&#45;&gt;ray&#45;packages -->
<g id="edge1" class="edge">
<title>arrow&#45;cpp&#45;&gt;ray&#45;packages</title>
<path fill="none" stroke="black" d="M182.38,-1388C216.58,-1376.91 266.06,-1360.88 303.83,-1348.64"/>
<polygon fill="black" stroke="black" points="304.77,-1352.01 313.2,-1345.6 302.61,-1345.36 304.77,-1352.01"/>
</g>
<!-- datafusion -->
<g id="node3" class="node">
<title>datafusion</title>
<g id="a_node3"><a xlink:href="https://github.com/conda-forge/datafusion-feedstock" xlink:title="datafusion">
<ellipse fill="#fde725" stroke="black" cx="186.26" cy="-1330" rx="63.84" ry="18"/>
<text xml:space="preserve" text-anchor="middle" x="186.26" y="-1325.33" font-family="Times,serif" font-size="14.00">datafusion</text>
</a>
</g>
</g>
<!-- arrow&#45;cpp&#45;&gt;datafusion -->
<g id="edge2" class="edge">
<title>arrow&#45;cpp&#45;&gt;datafusion</title>
<path fill="none" stroke="black" d="M152.91,-1384.05C157.94,-1376.06 164.05,-1366.33 169.67,-1357.4"/>
<polygon fill="black" stroke="black" points="172.54,-1359.4 174.9,-1349.07 166.62,-1355.67 172.54,-1359.4"/>
</g>
<!-- arcticdb -->
<g id="node4" class="node">
<title>arcticdb</title>
<g id="a_node4"><a xlink:href="https://github.com/conda-forge/arcticdb-feedstock" xlink:title="arcticdb">
<ellipse fill="#fde725" stroke="black" cx="52.26" cy="-1330" rx="52.26" ry="18"/>
<text xml:space="preserve" text-anchor="middle" x="52.26" y="-1325.33" font-family="Times,serif" font-size="14.00">arcticdb</text>
</a>
</g>
</g>
<!-- arrow&#45;cpp&#45;&gt;arcticdb -->
<g id="edge3" class="edge">
<title>arrow&#45;cpp&#45;&gt;arcticdb</title>
<path fill="none" stroke="black" d="M121.39,-1384.76C109.6,-1375.6 94.69,-1364 81.73,-1353.92"/>
<polygon fill="black" stroke="black" points="83.95,-1351.21 73.91,-1347.84 79.65,-1356.74 83.95,-1351.21"/>
</g>
<!-- mosh -->
<g id="node5" class="node">
<title>mosh</title>
<g id="a_node5"><a xlink:href="https://github.com/conda-forge/mosh-feedstock/pull/45" xlink:title="mosh ✓">
<ellipse fill="#31688e" stroke="black" cx="470.26" cy="-998" rx="45.95" ry="18"/>
<text xml:space="preserve" text-anchor="middle" x="470.26" y="-993.33" font-family="Times,serif" font-size="14.00" fill="white">mosh ✓</text>
</a>
</g>
</g>
<!-- mysql -->
<g id="node6" class="node">
<title>mysql</title>
<g id="a_node6"><a xlink:href="https://github.com/conda-forge/mysql-feedstock/pull/120" xlink:title="mysql ❎">
<ellipse fill="#31688e" stroke="black" cx="470.26" cy="-926" rx="56.47" ry="18"/>
<text xml:space="preserve" text-anchor="middle" x="470.26" y="-921.33" font-family="Times,serif" font-size="14.00" fill="white">mysql ❎</text>
</a>
</g>
</g>
<!-- mosh&#45;&gt;mysql -->
<!-- onnx -->
<g id="node7" class="node">
<title>onnx</title>
<g id="a_node7"><a xlink:href="https://github.com/conda-forge/onnx-feedstock/pull/141" xlink:title="onnx ✓">
<ellipse fill="#31688e" stroke="black" cx="470.26" cy="-854" rx="43.32" ry="18"/>
<text xml:space="preserve" text-anchor="middle" x="470.26" y="-849.33" font-family="Times,serif" font-size="14.00" fill="white">onnx ✓</text>
</a>
</g>
</g>
<!-- mysql&#45;&gt;onnx -->
<!-- paraview -->
<g id="node9" class="node">
<title>paraview</title>
<g id="a_node9"><a xlink:href="https://github.com/conda-forge/paraview-feedstock/pull/320" xlink:title="paraview ❎">
<ellipse fill="#31688e" stroke="black" cx="470.26" cy="-782" rx="72.25" ry="18"/>
<text xml:space="preserve" text-anchor="middle" x="470.26" y="-777.33" font-family="Times,serif" font-size="14.00" fill="white">paraview ❎</text>
</a>
</g>
</g>
<!-- onnx&#45;&gt;paraview -->
<!-- nodejs -->
<g id="node8" class="node">
<title>nodejs</title>
<g id="a_node8"><a xlink:href="https://github.com/conda-forge/nodejs-feedstock/pull/448" xlink:title="nodejs ✓">
<ellipse fill="#31688e" stroke="black" cx="97.26" cy="-1474" rx="51.74" ry="18"/>
<text xml:space="preserve" text-anchor="middle" x="97.26" y="-1469.33" font-family="Times,serif" font-size="14.00" fill="white">nodejs ✓</text>
</a>
</g>
</g>
<!-- nodejs&#45;&gt;arrow&#45;cpp -->
<g id="edge6" class="edge">
<title>nodejs&#45;&gt;arrow&#45;cpp</title>
<path fill="none" stroke="black" d="M108.15,-1456.05C113.29,-1448.06 119.55,-1438.33 125.29,-1429.4"/>
<polygon fill="black" stroke="black" points="128.19,-1431.37 130.65,-1421.06 122.3,-1427.58 128.19,-1431.37"/>
</g>
<!-- nodejs&#45;&gt;arcticdb -->
<g id="edge7" class="edge">
<title>nodejs&#45;&gt;arcticdb</title>
<path fill="none" stroke="black" d="M87.73,-1456.27C82.26,-1446.06 75.62,-1432.59 71.26,-1420 64.46,-1400.35 59.63,-1377.38 56.54,-1359.69"/>
<polygon fill="black" stroke="black" points="60.01,-1359.19 54.93,-1349.9 53.1,-1360.33 60.01,-1359.19"/>
</g>
<!-- qgis -->
<g id="node14" class="node">
<title>qgis</title>
<g id="a_node14"><a xlink:href="https://github.com/conda-forge/qgis-feedstock/pull/574" xlink:title="qgis ❎">
<ellipse fill="#31688e" stroke="black" cx="470.26" cy="-710" rx="47.53" ry="18"/>
<text xml:space="preserve" text-anchor="middle" x="470.26" y="-705.33" font-family="Times,serif" font-size="14.00" fill="white">qgis ❎</text>
</a>
</g>
</g>
<!-- paraview&#45;&gt;qgis -->
<!-- opencv -->
<g id="node10" class="node">
<title>opencv</title>
<g id="a_node10"><a xlink:href="https://github.com/conda-forge/opencv-feedstock" xlink:title="opencv">
<ellipse fill="#fde725" stroke="black" cx="512.26" cy="-1402" rx="46.47" ry="18"/>
<text xml:space="preserve" text-anchor="middle" x="512.26" y="-1397.33" font-family="Times,serif" font-size="14.00">opencv</text>
</a>
</g>
</g>
<!-- opencv&#45;&gt;ray&#45;packages -->
<g id="edge9" class="edge">
<title>opencv&#45;&gt;ray&#45;packages</title>
<path fill="none" stroke="black" d="M482.93,-1387.67C460.23,-1377.35 428.41,-1362.89 402.6,-1351.15"/>
<polygon fill="black" stroke="black" points="404.24,-1348.06 393.69,-1347.1 401.35,-1354.43 404.24,-1348.06"/>
</g>
<!-- imp -->
<g id="node11" class="node">
<title>imp</title>
<g id="a_node11"><a xlink:href="https://github.com/conda-forge/imp-feedstock" xlink:title="imp">
<ellipse fill="#fde725" stroke="black" cx="493.26" cy="-1330" rx="30.16" ry="18"/>
<text xml:space="preserve" text-anchor="middle" x="493.26" y="-1325.33" font-family="Times,serif" font-size="14.00">imp</text>
</a>
</g>
</g>
<!-- opencv&#45;&gt;imp -->
<g id="edge10" class="edge">
<title>opencv&#45;&gt;imp</title>
<path fill="none" stroke="black" d="M507.56,-1383.7C505.54,-1376.24 503.12,-1367.32 500.85,-1358.97"/>
<polygon fill="black" stroke="black" points="504.3,-1358.3 498.3,-1349.57 497.54,-1360.13 504.3,-1358.3"/>
</g>
<!-- gazebo&#45;yarp&#45;plugins -->
<g id="node12" class="node">
<title>gazebo&#45;yarp&#45;plugins</title>
<g id="a_node12"><a xlink:href="https://github.com/conda-forge/gazebo-yarp-plugins-feedstock" xlink:title="gazebo yarp plugins">
<ellipse fill="#fde725" stroke="black" cx="775.26" cy="-1330" rx="112.24" ry="18"/>
<text xml:space="preserve" text-anchor="middle" x="775.26" y="-1325.33" font-family="Times,serif" font-size="14.00">gazebo yarp plugins</text>
</a>
</g>
</g>
<!-- opencv&#45;&gt;gazebo&#45;yarp&#45;plugins -->
<g id="edge11" class="edge">
<title>opencv&#45;&gt;gazebo&#45;yarp&#45;plugins</title>
<path fill="none" stroke="black" d="M547.39,-1389.85C553.98,-1387.85 560.82,-1385.82 567.26,-1384 612.51,-1371.25 663.66,-1358.2 703.92,-1348.24"/>
<polygon fill="black" stroke="black" points="704.63,-1351.67 713.5,-1345.87 702.96,-1344.87 704.63,-1351.67"/>
</g>
<!-- nvidia&#45;dali&#45;python -->
<g id="node13" class="node">
<title>nvidia&#45;dali&#45;python</title>
<g id="a_node13"><a xlink:href="https://github.com/conda-forge/nvidia-dali-python-feedstock" xlink:title="nvidia dali python">
<ellipse fill="#fde725" stroke="black" cx="551.26" cy="-1258" rx="101.19" ry="18"/>
<text xml:space="preserve" text-anchor="middle" x="551.26" y="-1253.33" font-family="Times,serif" font-size="14.00">nvidia dali python</text>
</a>
</g>
</g>
<!-- opencv&#45;&gt;nvidia&#45;dali&#45;python -->
<g id="edge12" class="edge">
<title>opencv&#45;&gt;nvidia&#45;dali&#45;python</title>
<path fill="none" stroke="black" d="M519.41,-1384.04C523.56,-1373.74 528.66,-1360.27 532.26,-1348 538.12,-1328.05 542.98,-1305.08 546.31,-1287.48"/>
<polygon fill="black" stroke="black" points="549.74,-1288.21 548.1,-1277.74 542.85,-1286.95 549.74,-1288.21"/>
</g>
<!-- pyaudi -->
<g id="node15" class="node">
<title>pyaudi</title>
<g id="a_node15"><a xlink:href="https://github.com/conda-forge/pyaudi-feedstock/pull/55" xlink:title="pyaudi ✓">
<ellipse fill="#31688e" stroke="black" cx="470.26" cy="-638" rx="52.79" ry="18"/>
<text xml:space="preserve" text-anchor="middle" x="470.26" y="-633.33" font-family="Times,serif" font-size="14.00" fill="white">pyaudi ✓</text>
</a>
</g>
</g>
<!-- qgis&#45;&gt;pyaudi -->
<!-- tensorflow -->
<g id="node16" class="node">
<title>tensorflow</title>
<g id="a_node16"><a xlink:href="https://github.com/conda-forge/tensorflow-feedstock/pull/473" xlink:title="tensorflow ❎">
<ellipse fill="#31688e" stroke="black" cx="470.26" cy="-566" rx="79.09" ry="18"/>
<text xml:space="preserve" text-anchor="middle" x="470.26" y="-561.33" font-family="Times,serif" font-size="14.00" fill="white">tensorflow ❎</text>
</a>
</g>
</g>
<!-- pyaudi&#45;&gt;tensorflow -->
<!-- mongodb -->
<g id="node17" class="node">
<title>mongodb</title>
<g id="a_node17"><a xlink:href="https://github.com/conda-forge/mongodb-feedstock/pull/108" xlink:title="mongodb ❎">
<ellipse fill="#31688e" stroke="black" cx="470.26" cy="-494" rx="72.78" ry="18"/>
<text xml:space="preserve" text-anchor="middle" x="470.26" y="-489.32" font-family="Times,serif" font-size="14.00" fill="white">mongodb ❎</text>
</a>
</g>
</g>
<!-- tensorflow&#45;&gt;mongodb -->
<!-- go&#45;cockroach -->
<g id="node19" class="node">
<title>go&#45;cockroach</title>
<g id="a_node19"><a xlink:href="https://github.com/conda-forge/go-cockroach-feedstock/pull/39" xlink:title="go cockroach ❎">
<ellipse fill="#31688e" stroke="black" cx="470.26" cy="-422" rx="91.72" ry="18"/>
<text xml:space="preserve" text-anchor="middle" x="470.26" y="-417.32" font-family="Times,serif" font-size="14.00" fill="white">go cockroach ❎</text>
</a>
</g>
</g>
<!-- mongodb&#45;&gt;go&#45;cockroach -->
<!-- r&#45;protolite -->
<g id="node18" class="node">
<title>r&#45;protolite</title>
<g id="a_node18"><a xlink:href="https://github.com/conda-forge/r-protolite-feedstock" xlink:title="r protolite">
<ellipse fill="#fde725" stroke="black" cx="1318.26" cy="-90" rx="62.26" ry="18"/>
<text xml:space="preserve" text-anchor="middle" x="1318.26" y="-85.33" font-family="Times,serif" font-size="14.00">r protolite</text>
</a>
</g>
</g>
<!-- cartographer -->
<g id="node28" class="node">
<title>cartographer</title>
<g id="a_node28"><a xlink:href="https://github.com/conda-forge/cartographer-feedstock/pull/81" xlink:title="cartographer ❎">
<ellipse fill="#31688e" stroke="black" cx="470.26" cy="-350" rx="92.25" ry="18"/>
<text xml:space="preserve" text-anchor="middle" x="470.26" y="-345.32" font-family="Times,serif" font-size="14.00" fill="white">cartographer ❎</text>
</a>
</g>
</g>
<!-- go&#45;cockroach&#45;&gt;cartographer -->
<!-- jaxlib -->
<g id="node20" class="node">
<title>jaxlib</title>
<g id="a_node20"><a xlink:href="https://github.com/conda-forge/jaxlib-feedstock/pull/337" xlink:title="jaxlib ❎">
<ellipse fill="#31688e" stroke="black" cx="276.26" cy="-1402" rx="53.84" ry="18"/>
<text xml:space="preserve" text-anchor="middle" x="276.26" y="-1397.33" font-family="Times,serif" font-size="14.00" fill="white">jaxlib ❎</text>
</a>
</g>
</g>
<!-- jaxlib&#45;&gt;ray&#45;packages -->
<g id="edge18" class="edge">
<title>jaxlib&#45;&gt;ray&#45;packages</title>
<path fill="none" stroke="black" d="M295.28,-1384.76C305.61,-1375.95 318.58,-1364.87 330.07,-1355.07"/>
<polygon fill="black" stroke="black" points="332.01,-1358.02 337.34,-1348.86 327.46,-1352.69 332.01,-1358.02"/>
</g>
<!-- libignition&#45;transport4 -->
<g id="node21" class="node">
<title>libignition&#45;transport4</title>
<g id="a_node21"><a xlink:href="https://github.com/conda-forge/libignition-transport4-feedstock/pull/112" xlink:title="libignition transport4 ❎">
<ellipse fill="#31688e" stroke="black" cx="1511.26" cy="-1510" rx="134.33" ry="18"/>
<text xml:space="preserve" text-anchor="middle" x="1511.26" y="-1505.33" font-family="Times,serif" font-size="14.00" fill="white">libignition transport4 ❎</text>
</a>
</g>
</g>
<!-- libignition&#45;sensors -->
<g id="node22" class="node">
<title>libignition&#45;sensors</title>
<g id="a_node22"><a xlink:href="https://github.com/conda-forge/libignition-sensors-feedstock" xlink:title="libignition sensors">
<ellipse fill="#fde725" stroke="black" cx="1325.26" cy="-1438" rx="103.82" ry="18"/>
<text xml:space="preserve" text-anchor="middle" x="1325.26" y="-1433.33" font-family="Times,serif" font-size="14.00">libignition sensors</text>
</a>
</g>
</g>
<!-- libignition&#45;transport4&#45;&gt;libignition&#45;sensors -->
<g id="edge19" class="edge">
<title>libignition&#45;transport4&#45;&gt;libignition&#45;sensors</title>
<path fill="none" stroke="black" d="M1467.65,-1492.59C1440.8,-1482.48 1406.22,-1469.47 1377.85,-1458.79"/>
<polygon fill="black" stroke="black" points="1379.33,-1455.61 1368.73,-1455.36 1376.86,-1462.16 1379.33,-1455.61"/>
</g>
<!-- libignition&#45;gui -->
<g id="node23" class="node">
<title>libignition&#45;gui</title>
<g id="a_node23"><a xlink:href="https://github.com/conda-forge/libignition-gui-feedstock" xlink:title="libignition gui">
<ellipse fill="#fde725" stroke="black" cx="1566.26" cy="-1438" rx="81.2" ry="18"/>
<text xml:space="preserve" text-anchor="middle" x="1566.26" y="-1433.33" font-family="Times,serif" font-size="14.00">libignition gui</text>
</a>
</g>
</g>
<!-- libignition&#45;transport4&#45;&gt;libignition&#45;gui -->
<g id="edge20" class="edge">
<title>libignition&#45;transport4&#45;&gt;libignition&#45;gui</title>
<path fill="none" stroke="black" d="M1524.86,-1491.7C1531.18,-1483.64 1538.84,-1473.89 1545.85,-1464.98"/>
<polygon fill="black" stroke="black" points="1548.46,-1467.32 1551.89,-1457.29 1542.96,-1463 1548.46,-1467.32"/>
</g>
<!-- libignition&#45;gazebo -->
<g id="node24" class="node">
<title>libignition&#45;gazebo</title>
<g id="a_node24"><a xlink:href="https://github.com/conda-forge/libignition-gazebo-feedstock" xlink:title="libignition gazebo">
<ellipse fill="#fde725" stroke="black" cx="1447.26" cy="-1366" rx="100.66" ry="18"/>
<text xml:space="preserve" text-anchor="middle" x="1447.26" y="-1361.33" font-family="Times,serif" font-size="14.00">libignition gazebo</text>
</a>
</g>
</g>
<!-- libignition&#45;transport4&#45;&gt;libignition&#45;gazebo -->
<g id="edge21" class="edge">
<title>libignition&#45;transport4&#45;&gt;libignition&#45;gazebo</title>
<path fill="none" stroke="black" d="M1498.36,-1492.03C1491.14,-1481.96 1482.39,-1468.71 1476.26,-1456 1466.82,-1436.43 1459.33,-1413.02 1454.33,-1395.13"/>
<polygon fill="black" stroke="black" points="1457.78,-1394.47 1451.8,-1385.72 1451.02,-1396.28 1457.78,-1394.47"/>
</g>
<!-- libignition&#45;launch -->
<g id="node25" class="node">
<title>libignition&#45;launch</title>
<g id="a_node25"><a xlink:href="https://github.com/conda-forge/libignition-launch-feedstock" xlink:title="libignition launch">
<ellipse fill="#fde725" stroke="black" cx="1576.26" cy="-1294" rx="98.56" ry="18"/>
<text xml:space="preserve" text-anchor="middle" x="1576.26" y="-1289.33" font-family="Times,serif" font-size="14.00">libignition launch</text>
</a>
</g>
</g>
<!-- libignition&#45;transport4&#45;&gt;libignition&#45;launch -->
<g id="edge22" class="edge">
<title>libignition&#45;transport4&#45;&gt;libignition&#45;launch</title>
<path fill="none" stroke="black" d="M1598.04,-1495.85C1620.66,-1488.05 1642.52,-1475.66 1656.26,-1456 1687.59,-1411.2 1638.6,-1352.33 1604.53,-1319.62"/>
<polygon fill="black" stroke="black" points="1607.05,-1317.19 1597.35,-1312.93 1602.28,-1322.31 1607.05,-1317.19"/>
</g>
<!-- libignition&#45;sensors&#45;&gt;libignition&#45;gazebo -->
<g id="edge23" class="edge">
<title>libignition&#45;sensors&#45;&gt;libignition&#45;gazebo</title>
<path fill="none" stroke="black" d="M1354.17,-1420.41C1370.31,-1411.15 1390.64,-1399.49 1408.18,-1389.42"/>
<polygon fill="black" stroke="black" points="1409.89,-1392.48 1416.82,-1384.47 1406.41,-1386.41 1409.89,-1392.48"/>
</g>
<!-- libignition&#45;gui&#45;&gt;libignition&#45;gazebo -->
<g id="edge24" class="edge">
<title>libignition&#45;gui&#45;&gt;libignition&#45;gazebo</title>
<path fill="none" stroke="black" d="M1538.66,-1420.76C1522.82,-1411.45 1502.7,-1399.61 1485.37,-1389.41"/>
<polygon fill="black" stroke="black" points="1487.24,-1386.45 1476.84,-1384.4 1483.69,-1392.49 1487.24,-1386.45"/>
</g>
<!-- libignition&#45;gui&#45;&gt;libignition&#45;launch -->
<g id="edge25" class="edge">
<title>libignition&#45;gui&#45;&gt;libignition&#45;launch</title>
<path fill="none" stroke="black" d="M1567.49,-1419.59C1569.18,-1395.61 1572.24,-1352.14 1574.26,-1323.42"/>
<polygon fill="black" stroke="black" points="1577.74,-1323.84 1574.95,-1313.62 1570.76,-1323.35 1577.74,-1323.84"/>
</g>
<!-- libignition&#45;gazebo&#45;&gt;libignition&#45;launch -->
<g id="edge26" class="edge">
<title>libignition&#45;gazebo&#45;&gt;libignition&#45;launch</title>
<path fill="none" stroke="black" d="M1477.83,-1348.41C1495.18,-1339 1517.11,-1327.1 1535.87,-1316.92"/>
<polygon fill="black" stroke="black" points="1537.46,-1320.04 1544.58,-1312.19 1534.12,-1313.89 1537.46,-1320.04"/>
</g>
<!-- gazebo -->
<g id="node26" class="node">
<title>gazebo</title>
<g id="a_node26"><a xlink:href="https://github.com/conda-forge/gazebo-feedstock/pull/256" xlink:title="gazebo ❎">
<ellipse fill="#31688e" stroke="black" cx="879.26" cy="-1402" rx="61.73" ry="18"/>
<text xml:space="preserve" text-anchor="middle" x="879.26" y="-1397.33" font-family="Times,serif" font-size="14.00" fill="white">gazebo ❎</text>
</a>
</g>
</g>
<!-- gazebo&#45;&gt;gazebo&#45;yarp&#45;plugins -->
<g id="edge27" class="edge">
<title>gazebo&#45;&gt;gazebo&#45;yarp&#45;plugins</title>
<path fill="none" stroke="black" d="M855.4,-1384.94C841.92,-1375.87 824.83,-1364.37 809.9,-1354.32"/>
<polygon fill="black" stroke="black" points="811.97,-1351.49 801.72,-1348.81 808.06,-1357.29 811.97,-1351.49"/>
</g>
<!-- libignition&#45;fuel&#45;tools -->
<g id="node27" class="node">
<title>libignition&#45;fuel&#45;tools</title>
<g id="a_node27"><a xlink:href="https://github.com/conda-forge/libignition-fuel-tools-feedstock/pull/108" xlink:title="libignition fuel tools ❎">
<ellipse fill="#31688e" stroke="black" cx="1076.26" cy="-1438" rx="126.97" ry="18"/>
<text xml:space="preserve" text-anchor="middle" x="1076.26" y="-1433.33" font-family="Times,serif" font-size="14.00" fill="white">libignition fuel tools ❎</text>
</a>
</g>
</g>
<!-- libignition&#45;fuel&#45;tools&#45;&gt;libignition&#45;gazebo -->
<g id="edge28" class="edge">
<title>libignition&#45;fuel&#45;tools&#45;&gt;libignition&#45;gazebo</title>
<path fill="none" stroke="black" d="M1150.45,-1423C1213.58,-1411.09 1304.02,-1394.03 1368.45,-1381.87"/>
<polygon fill="black" stroke="black" points="1369.09,-1385.31 1378.27,-1380.02 1367.79,-1378.43 1369.09,-1385.31"/>
</g>
<!-- pyre2 -->
<g id="node29" class="node">
<title>pyre2</title>
<g id="a_node29"><a xlink:href="https://github.com/conda-forge/pyre2-feedstock/pull/41" xlink:title="pyre2 ❎">
<ellipse fill="#31688e" stroke="black" cx="470.26" cy="-278" rx="55.42" ry="18"/>
<text xml:space="preserve" text-anchor="middle" x="470.26" y="-273.32" font-family="Times,serif" font-size="14.00" fill="white">pyre2 ❎</text>
</a>
</g>
</g>
<!-- cartographer&#45;&gt;pyre2 -->
<!-- s2geometry -->
<g id="node30" class="node">
<title>s2geometry</title>
<g id="a_node30"><a xlink:href="https://github.com/conda-forge/s2geometry-feedstock/pull/34" xlink:title="s2geometry ❎">
<ellipse fill="#31688e" stroke="black" cx="504.26" cy="-234" rx="85.93" ry="18"/>
<text xml:space="preserve" text-anchor="middle" x="504.26" y="-229.32" font-family="Times,serif" font-size="14.00" fill="white">s2geometry ❎</text>
</a>
</g>
</g>
<!-- pys2index -->
<g id="node31" class="node">
<title>pys2index</title>
<g id="a_node31"><a xlink:href="https://github.com/conda-forge/pys2index-feedstock" xlink:title="pys2index">
<ellipse fill="#fde725" stroke="black" cx="414.26" cy="-162" rx="62.26" ry="18"/>
<text xml:space="preserve" text-anchor="middle" x="414.26" y="-157.32" font-family="Times,serif" font-size="14.00">pys2index</text>
</a>
</g>
</g>
<!-- s2geometry&#45;&gt;pys2index -->
<g id="edge31" class="edge">
<title>s2geometry&#45;&gt;pys2index</title>
<path fill="none" stroke="black" d="M482.93,-216.41C471.3,-207.37 456.73,-196.03 444,-186.13"/>
<polygon fill="black" stroke="black" points="446.36,-183.53 436.32,-180.16 442.07,-189.06 446.36,-183.53"/>
</g>
<!-- s2geography -->
<g id="node32" class="node">
<title>s2geography</title>
<g id="a_node32"><a xlink:href="https://github.com/conda-forge/s2geography-feedstock" xlink:title="s2geography">
<ellipse fill="#fde725" stroke="black" cx="471.26" cy="-90" rx="75.94" ry="18"/>
<text xml:space="preserve" text-anchor="middle" x="471.26" y="-85.33" font-family="Times,serif" font-size="14.00">s2geography</text>
</a>
</g>
</g>
<!-- s2geometry&#45;&gt;s2geography -->
<g id="edge32" class="edge">
<title>s2geometry&#45;&gt;s2geography</title>
<path fill="none" stroke="black" d="M500.79,-215.55C497.16,-197.57 491.17,-168.74 485.26,-144 483.33,-135.91 481.09,-127.18 478.97,-119.17"/>
<polygon fill="black" stroke="black" points="482.37,-118.35 476.4,-109.6 475.61,-120.16 482.37,-118.35"/>
</g>
<!-- spherely -->
<g id="node33" class="node">
<title>spherely</title>
<g id="a_node33"><a xlink:href="https://github.com/conda-forge/spherely-feedstock" xlink:title="spherely">
<ellipse fill="#fde725" stroke="black" cx="523.26" cy="-18" rx="54.36" ry="18"/>
<text xml:space="preserve" text-anchor="middle" x="523.26" y="-13.32" font-family="Times,serif" font-size="14.00">spherely</text>
</a>
</g>
</g>
<!-- s2geometry&#45;&gt;spherely -->
<g id="edge33" class="edge">
<title>s2geometry&#45;&gt;spherely</title>
<path fill="none" stroke="black" d="M513.95,-215.89C526.62,-192.44 548.16,-148.57 556.26,-108 559.39,-92.31 560.66,-87.38 556.26,-72 553.55,-62.52 548.6,-53.08 543.34,-44.85"/>
<polygon fill="black" stroke="black" points="546.31,-43 537.76,-36.74 540.54,-46.96 546.31,-43"/>
</g>
<!-- s2geography&#45;&gt;spherely -->
<g id="edge34" class="edge">
<title>s2geography&#45;&gt;spherely</title>
<path fill="none" stroke="black" d="M483.85,-72.05C489.92,-63.89 497.33,-53.91 504.08,-44.82"/>
<polygon fill="black" stroke="black" points="506.73,-47.12 509.89,-37 501.11,-42.94 506.73,-47.12"/>
</g>
<!-- protozfits -->
<g id="node34" class="node">
<title>protozfits</title>
<g id="a_node34"><a xlink:href="https://github.com/conda-forge/protozfits-feedstock/pull/60" xlink:title="protozfits ❎">
<ellipse fill="#31688e" stroke="black" cx="1848.26" cy="-1762" rx="74.36" ry="18"/>
<text xml:space="preserve" text-anchor="middle" x="1848.26" y="-1757.33" font-family="Times,serif" font-size="14.00" fill="white">protozfits ❎</text>
</a>
</g>
</g>
<!-- or&#45;tools -->
<g id="node35" class="node">
<title>or&#45;tools</title>
<g id="a_node35"><a xlink:href="https://github.com/conda-forge/or-tools-feedstock/pull/69" xlink:title="or tools ❎">
<ellipse fill="#31688e" stroke="black" cx="1848.26" cy="-1690" rx="64.36" ry="18"/>
<text xml:space="preserve" text-anchor="middle" x="1848.26" y="-1685.33" font-family="Times,serif" font-size="14.00" fill="white">or tools ❎</text>
</a>
</g>
</g>
<!-- protozfits&#45;&gt;or&#45;tools -->
<!-- bear -->
<g id="node37" class="node">
<title>bear</title>
<g id="a_node37"><a xlink:href="https://github.com/conda-forge/bear-feedstock/pull/62" xlink:title="bear ✓">
<ellipse fill="#31688e" stroke="black" cx="1848.26" cy="-1618" rx="41.74" ry="18"/>
<text xml:space="preserve" text-anchor="middle" x="1848.26" y="-1613.33" font-family="Times,serif" font-size="14.00" fill="white">bear ✓</text>
</a>
</g>
</g>
<!-- or&#45;tools&#45;&gt;bear -->
<!-- r&#45;s2 -->
<g id="node36" class="node">
<title>r&#45;s2</title>
<g id="a_node36"><a xlink:href="https://github.com/conda-forge/r-s2-feedstock/pull/25" xlink:title="r s2 ❎">
<ellipse fill="#31688e" stroke="black" cx="1318.26" cy="-162" rx="45.95" ry="18"/>
<text xml:space="preserve" text-anchor="middle" x="1318.26" y="-157.32" font-family="Times,serif" font-size="14.00" fill="white">r s2 ❎</text>
</a>
</g>
</g>
<!-- r&#45;s2&#45;&gt;r&#45;protolite -->
<g id="edge36" class="edge">
<title>r&#45;s2&#45;&gt;r&#45;protolite</title>
<path fill="none" stroke="black" d="M1318.26,-143.7C1318.26,-136.41 1318.26,-127.73 1318.26,-119.54"/>
<polygon fill="black" stroke="black" points="1321.76,-119.62 1318.26,-109.62 1314.76,-119.62 1321.76,-119.62"/>
</g>
<!-- xilinx&#45;runtime -->
<g id="node38" class="node">
<title>xilinx&#45;runtime</title>
<g id="a_node38"><a xlink:href="https://github.com/conda-forge/xilinx-runtime-feedstock/pull/47" xlink:title="xilinx runtime ❎">
<ellipse fill="#31688e" stroke="black" cx="1848.26" cy="-1546" rx="96.98" ry="18"/>
<text xml:space="preserve" text-anchor="middle" x="1848.26" y="-1541.33" font-family="Times,serif" font-size="14.00" fill="white">xilinx runtime ❎</text>
</a>
</g>
</g>
<!-- bear&#45;&gt;xilinx&#45;runtime -->
<!-- labmaze -->
<g id="node40" class="node">
<title>labmaze</title>
<g id="a_node40"><a xlink:href="https://github.com/conda-forge/labmaze-feedstock/pull/19" xlink:title="labmaze ❎">
<ellipse fill="#31688e" stroke="black" cx="1848.26" cy="-1474" rx="68.04" ry="18"/>
<text xml:space="preserve" text-anchor="middle" x="1848.26" y="-1469.33" font-family="Times,serif" font-size="14.00" fill="white">labmaze ❎</text>
</a>
</g>
</g>
<!-- xilinx&#45;runtime&#45;&gt;labmaze -->
<!-- mujoco -->
<g id="node39" class="node">
<title>mujoco</title>
<g id="a_node39"><a xlink:href="https://github.com/conda-forge/mujoco-feedstock/pull/107" xlink:title="mujoco ❎">
<ellipse fill="#31688e" stroke="black" cx="448.26" cy="-1474" rx="62.26" ry="18"/>
<text xml:space="preserve" text-anchor="middle" x="448.26" y="-1469.33" font-family="Times,serif" font-size="14.00" fill="white">mujoco ❎</text>
</a>
</g>
</g>
<!-- mujoco&#45;&gt;ray&#45;packages -->
<g id="edge39" class="edge">
<title>mujoco&#45;&gt;ray&#45;packages</title>
<path fill="none" stroke="black" d="M437.41,-1455.87C421.93,-1431.46 393.39,-1386.43 375.14,-1357.64"/>
<polygon fill="black" stroke="black" points="378.28,-1356.04 369.97,-1349.47 372.36,-1359.79 378.28,-1356.04"/>
</g>
<!-- pyg&#45;lib -->
<g id="node47" class="node">
<title>pyg&#45;lib</title>
<g id="a_node47"><a xlink:href="https://github.com/conda-forge/pyg-lib-feedstock/pull/47" xlink:title="pyg lib ❎">
<ellipse fill="#31688e" stroke="black" cx="1848.26" cy="-1402" rx="60.68" ry="18"/>
<text xml:space="preserve" text-anchor="middle" x="1848.26" y="-1397.33" font-family="Times,serif" font-size="14.00" fill="white">pyg lib ❎</text>
</a>
</g>
</g>
<!-- labmaze&#45;&gt;pyg&#45;lib -->
<!-- gz&#45;fuel&#45;tools -->
<g id="node41" class="node">
<title>gz&#45;fuel&#45;tools</title>
<g id="a_node41"><a xlink:href="https://github.com/conda-forge/gz-fuel-tools-feedstock/pull/71" xlink:title="gz fuel tools ❎">
<ellipse fill="#31688e" stroke="black" cx="1163.26" cy="-746" rx="87.51" ry="18"/>
<text xml:space="preserve" text-anchor="middle" x="1163.26" y="-741.33" font-family="Times,serif" font-size="14.00" fill="white">gz fuel tools ❎</text>
</a>
</g>
</g>
<!-- gz&#45;sim -->
<g id="node42" class="node">
<title>gz&#45;sim</title>
<g id="a_node42"><a xlink:href="https://github.com/conda-forge/gz-sim-feedstock" xlink:title="gz sim">
<ellipse fill="#fde725" stroke="black" cx="1283.26" cy="-674" rx="43.84" ry="18"/>
<text xml:space="preserve" text-anchor="middle" x="1283.26" y="-669.33" font-family="Times,serif" font-size="14.00">gz sim</text>
</a>
</g>
</g>
<!-- gz&#45;fuel&#45;tools&#45;&gt;gz&#45;sim -->
<g id="edge41" class="edge">
<title>gz&#45;fuel&#45;tools&#45;&gt;gz&#45;sim</title>
<path fill="none" stroke="black" d="M1191.4,-728.59C1208.62,-718.54 1230.77,-705.62 1249.01,-694.98"/>
<polygon fill="black" stroke="black" points="1250.77,-698 1257.65,-689.94 1247.25,-691.96 1250.77,-698"/>
</g>
<!-- gz&#45;launch -->
<g id="node43" class="node">
<title>gz&#45;launch</title>
<g id="a_node43"><a xlink:href="https://github.com/conda-forge/gz-launch-feedstock" xlink:title="gz launch">
<ellipse fill="#fde725" stroke="black" cx="1355.26" cy="-602" rx="59.1" ry="18"/>
<text xml:space="preserve" text-anchor="middle" x="1355.26" y="-597.33" font-family="Times,serif" font-size="14.00">gz launch</text>
</a>
</g>
</g>
<!-- gz&#45;fuel&#45;tools&#45;&gt;gz&#45;launch -->
<g id="edge42" class="edge">
<title>gz&#45;fuel&#45;tools&#45;&gt;gz&#45;launch</title>
<path fill="none" stroke="black" d="M1172.49,-727.77C1183.8,-708.08 1204.66,-676 1230.26,-656 1251.35,-639.52 1278.31,-627.24 1301.8,-618.67"/>
<polygon fill="black" stroke="black" points="1302.94,-621.98 1311.23,-615.37 1300.63,-615.37 1302.94,-621.98"/>
</g>
<!-- gz&#45;sim&#45;&gt;gz&#45;launch -->
<g id="edge43" class="edge">
<title>gz&#45;sim&#45;&gt;gz&#45;launch</title>
<path fill="none" stroke="black" d="M1299.6,-657.12C1308.61,-648.36 1319.99,-637.29 1330.11,-627.45"/>
<polygon fill="black" stroke="black" points="1332.42,-630.09 1337.15,-620.61 1327.54,-625.07 1332.42,-630.09"/>
</g>
<!-- gz&#45;sim&#45;yarp&#45;plugins -->
<g id="node44" class="node">
<title>gz&#45;sim&#45;yarp&#45;plugins</title>
<g id="a_node44"><a xlink:href="https://github.com/conda-forge/gz-sim-yarp-plugins-feedstock" xlink:title="gz sim yarp plugins">
<ellipse fill="#fde725" stroke="black" cx="1311.26" cy="-530" rx="109.61" ry="18"/>
<text xml:space="preserve" text-anchor="middle" x="1311.26" y="-525.33" font-family="Times,serif" font-size="14.00">gz sim yarp plugins</text>
</a>
</g>
</g>
<!-- gz&#45;sim&#45;&gt;gz&#45;sim&#45;yarp&#45;plugins -->
<g id="edge44" class="edge">
<title>gz&#45;sim&#45;&gt;gz&#45;sim&#45;yarp&#45;plugins</title>
<path fill="none" stroke="black" d="M1282.12,-655.67C1281.37,-637.54 1281.43,-608.37 1287.26,-584 1289.33,-575.36 1292.81,-566.39 1296.49,-558.35"/>
<polygon fill="black" stroke="black" points="1299.61,-559.95 1300.85,-549.43 1293.32,-556.88 1299.61,-559.95"/>
</g>
<!-- gz&#45;launch&#45;&gt;gz&#45;sim&#45;yarp&#45;plugins -->
<g id="edge45" class="edge">
<title>gz&#45;launch&#45;&gt;gz&#45;sim&#45;yarp&#45;plugins</title>
<path fill="none" stroke="black" d="M1344.61,-584.05C1339.66,-576.18 1333.65,-566.62 1328.1,-557.79"/>
<polygon fill="black" stroke="black" points="1331.21,-556.16 1322.93,-549.56 1325.28,-559.89 1331.21,-556.16"/>
</g>
<!-- gz&#45;gui -->
<g id="node45" class="node">
<title>gz&#45;gui</title>
<g id="a_node45"><a xlink:href="https://github.com/conda-forge/gz-gui-feedstock/pull/77" xlink:title="gz gui ❎">
<ellipse fill="#31688e" stroke="black" cx="1326.26" cy="-746" rx="57" ry="18"/>
<text xml:space="preserve" text-anchor="middle" x="1326.26" y="-741.33" font-family="Times,serif" font-size="14.00" fill="white">gz gui ❎</text>
</a>
</g>
</g>
<!-- gz&#45;gui&#45;&gt;gz&#45;sim -->
<g id="edge46" class="edge">
<title>gz&#45;gui&#45;&gt;gz&#45;sim</title>
<path fill="none" stroke="black" d="M1315.85,-728.05C1310.94,-720.06 1304.96,-710.33 1299.48,-701.4"/>
<polygon fill="black" stroke="black" points="1302.58,-699.77 1294.37,-693.08 1296.62,-703.43 1302.58,-699.77"/>
</g>
<!-- gz&#45;gui&#45;&gt;gz&#45;launch -->
<g id="edge47" class="edge">
<title>gz&#45;gui&#45;&gt;gz&#45;launch</title>
<path fill="none" stroke="black" d="M1329.82,-727.59C1334.74,-703.5 1343.67,-659.75 1349.54,-631.03"/>
<polygon fill="black" stroke="black" points="1352.89,-632.09 1351.46,-621.59 1346.03,-630.69 1352.89,-632.09"/>
</g>
<!-- gz&#45;sensors -->
<g id="node46" class="node">
<title>gz&#45;sensors</title>
<g id="a_node46"><a xlink:href="https://github.com/conda-forge/gz-sensors-feedstock/pull/85" xlink:title="gz sensors ❎">
<ellipse fill="#31688e" stroke="black" cx="1481.26" cy="-746" rx="79.62" ry="18"/>
<text xml:space="preserve" text-anchor="middle" x="1481.26" y="-741.33" font-family="Times,serif" font-size="14.00" fill="white">gz sensors ❎</text>
</a>
</g>
</g>
<!-- gz&#45;sensors&#45;&gt;gz&#45;sim -->
<g id="edge48" class="edge">
<title>gz&#45;sensors&#45;&gt;gz&#45;sim</title>
<path fill="none" stroke="black" d="M1439.75,-730.33C1406.4,-718.53 1359.71,-702.03 1326.02,-690.12"/>
<polygon fill="black" stroke="black" points="1327.6,-686.96 1317,-686.93 1325.27,-693.56 1327.6,-686.96"/>
</g>
<!-- gz&#45;sensors&#45;&gt;gz&#45;launch -->
<g id="edge49" class="edge">
<title>gz&#45;sensors&#45;&gt;gz&#45;launch</title>
<path fill="none" stroke="black" d="M1466.06,-727.87C1444,-703 1402.95,-656.75 1377.49,-628.05"/>
<polygon fill="black" stroke="black" points="1380.38,-626.04 1371.13,-620.88 1375.15,-630.68 1380.38,-626.04"/>
</g>
<!-- torchtext -->
<g id="node48" class="node">
<title>torchtext</title>
<g id="a_node48"><a xlink:href="https://github.com/conda-forge/torchtext-feedstock/pull/38" xlink:title="torchtext ❎">
<ellipse fill="#31688e" stroke="black" cx="1848.26" cy="-1330" rx="72.78" ry="18"/>
<text xml:space="preserve" text-anchor="middle" x="1848.26" y="-1325.33" font-family="Times,serif" font-size="14.00" fill="white">torchtext ❎</text>
</a>
</g>
</g>
<!-- pyg&#45;lib&#45;&gt;torchtext -->
<!-- libpulsar -->
<g id="node49" class="node">
<title>libpulsar</title>
<g id="a_node49"><a xlink:href="https://github.com/conda-forge/libpulsar-feedstock/pull/36" xlink:title="libpulsar ✓">
<ellipse fill="#31688e" stroke="black" cx="1848.26" cy="-1258" rx="63.31" ry="18"/>
<text xml:space="preserve" text-anchor="middle" x="1848.26" y="-1253.33" font-family="Times,serif" font-size="14.00" fill="white">libpulsar ✓</text>
</a>
</g>
</g>
<!-- torchtext&#45;&gt;libpulsar -->
<!-- google&#45;re2 -->
<g id="node52" class="node">
<title>google&#45;re2</title>
<g id="a_node52"><a xlink:href="https://github.com/conda-forge/google-re2-feedstock/pull/22" xlink:title="google re2 ✓">
<ellipse fill="#31688e" stroke="black" cx="1848.26" cy="-1186" rx="72.25" ry="18"/>
<text xml:space="preserve" text-anchor="middle" x="1848.26" y="-1181.33" font-family="Times,serif" font-size="14.00" fill="white">google re2 ✓</text>
</a>
</g>
</g>
<!-- libpulsar&#45;&gt;google&#45;re2 -->
<!-- openvino -->
<g id="node50" class="node">
<title>openvino</title>
<g id="a_node50"><a xlink:href="https://github.com/conda-forge/openvino-feedstock/pull/145" xlink:title="openvino ✓">
<ellipse fill="#31688e" stroke="black" cx="645.26" cy="-1474" rx="64.36" ry="18"/>
<text xml:space="preserve" text-anchor="middle" x="645.26" y="-1469.33" font-family="Times,serif" font-size="14.00" fill="white">openvino ✓</text>
</a>
</g>
</g>
<!-- openvino&#45;&gt;opencv -->
<g id="edge53" class="edge">
<title>openvino&#45;&gt;opencv</title>
<path fill="none" stroke="black" d="M616.07,-1457.64C596.36,-1447.26 570.18,-1433.48 549.04,-1422.36"/>
<polygon fill="black" stroke="black" points="550.94,-1419.4 540.46,-1417.84 547.68,-1425.59 550.94,-1419.4"/>
</g>
<!-- openvino&#45;tokenizers -->
<g id="node51" class="node">
<title>openvino&#45;tokenizers</title>
<g id="a_node51"><a xlink:href="https://github.com/conda-forge/openvino-tokenizers-feedstock" xlink:title="openvino tokenizers">
<ellipse fill="#fde725" stroke="black" cx="688.26" cy="-1402" rx="111.71" ry="18"/>
<text xml:space="preserve" text-anchor="middle" x="688.26" y="-1397.33" font-family="Times,serif" font-size="14.00">openvino tokenizers</text>
</a>
</g>
</g>
<!-- openvino&#45;&gt;openvino&#45;tokenizers -->
<g id="edge54" class="edge">
<title>openvino&#45;&gt;openvino&#45;tokenizers</title>
<path fill="none" stroke="black" d="M655.67,-1456.05C660.46,-1448.26 666.26,-1438.82 671.63,-1430.08"/>
<polygon fill="black" stroke="black" points="674.61,-1431.92 676.86,-1421.56 668.64,-1428.25 674.61,-1431.92"/>
</g>
<!-- gnss&#45;sdr -->
<g id="node53" class="node">
<title>gnss&#45;sdr</title>
<g id="a_node53"><a xlink:href="https://github.com/conda-forge/gnss-sdr-feedstock/pull/45" xlink:title="gnss sdr ❎">
<ellipse fill="#31688e" stroke="black" cx="1848.26" cy="-1114" rx="69.1" ry="18"/>
<text xml:space="preserve" text-anchor="middle" x="1848.26" y="-1109.33" font-family="Times,serif" font-size="14.00" fill="white">gnss sdr ❎</text>
</a>
</g>
</g>
<!-- google&#45;re2&#45;&gt;gnss&#45;sdr -->
<!-- gcld3 -->
<g id="node54" class="node">
<title>gcld3</title>
<g id="a_node54"><a xlink:href="https://github.com/conda-forge/gcld3-feedstock/pull/19" xlink:title="gcld3 ✓">
<ellipse fill="#31688e" stroke="black" cx="1848.26" cy="-1042" rx="46.47" ry="18"/>
<text xml:space="preserve" text-anchor="middle" x="1848.26" y="-1037.33" font-family="Times,serif" font-size="14.00" fill="white">gcld3 ✓</text>
</a>
</g>
</g>
<!-- gnss&#45;sdr&#45;&gt;gcld3 -->
<!-- tensorstore -->
<g id="node55" class="node">
<title>tensorstore</title>
<g id="a_node55"><a xlink:href="https://github.com/conda-forge/tensorstore-feedstock/pull/73" xlink:title="tensorstore ✓">
<ellipse fill="#31688e" stroke="black" cx="358.26" cy="-1546" rx="76.99" ry="18"/>
<text xml:space="preserve" text-anchor="middle" x="358.26" y="-1541.33" font-family="Times,serif" font-size="14.00" fill="white">tensorstore ✓</text>
</a>
</g>
</g>
<!-- tensorstore&#45;&gt;ray&#45;packages -->
<g id="edge58" class="edge">
<title>tensorstore&#45;&gt;ray&#45;packages</title>
<path fill="none" stroke="black" d="M358.26,-1527.85C358.26,-1491.14 358.26,-1404.66 358.26,-1359.53"/>
<polygon fill="black" stroke="black" points="361.76,-1359.75 358.26,-1349.75 354.76,-1359.75 361.76,-1359.75"/>
</g>
<!-- bloaty -->
<g id="node56" class="node">
<title>bloaty</title>
<g id="a_node56"><a xlink:href="https://github.com/conda-forge/bloaty-feedstock/pull/9" xlink:title="bloaty ✓">
<ellipse fill="#31688e" stroke="black" cx="1848.26" cy="-746" rx="50.16" ry="18"/>
<text xml:space="preserve" text-anchor="middle" x="1848.26" y="-741.33" font-family="Times,serif" font-size="14.00" fill="white">bloaty ✓</text>
</a>
</g>
</g>
<!-- bfiocpp -->
<g id="node57" class="node">
<title>bfiocpp</title>
<g id="a_node57"><a xlink:href="https://github.com/conda-forge/bfiocpp-feedstock/pull/19" xlink:title="bfiocpp ❎">
<ellipse fill="#31688e" stroke="black" cx="1848.26" cy="-674" rx="62.78" ry="18"/>
<text xml:space="preserve" text-anchor="middle" x="1848.26" y="-669.33" font-family="Times,serif" font-size="14.00" fill="white">bfiocpp ❎</text>
</a>
</g>
</g>
<!-- bloaty&#45;&gt;bfiocpp -->
<!-- mysqlx&#45;connector&#45;python -->
<g id="node58" class="node">
<title>mysqlx&#45;connector&#45;python</title>
<g id="a_node58"><a xlink:href="https://github.com/conda-forge/mysqlx-connector-python-feedstock/pull/17" xlink:title="mysqlx connector python ❎">
<ellipse fill="#31688e" stroke="black" cx="1848.26" cy="-602" rx="152.75" ry="18"/>
<text xml:space="preserve" text-anchor="middle" x="1848.26" y="-597.33" font-family="Times,serif" font-size="14.00" fill="white">mysqlx connector python ❎</text>
</a>
</g>
</g>
<!-- bfiocpp&#45;&gt;mysqlx&#45;connector&#45;python -->
<!-- casacpp -->
<g id="node59" class="node">
<title>casacpp</title>
<g id="a_node59"><a xlink:href="https://github.com/conda-forge/casacpp-feedstock/pull/13" xlink:title="casacpp ✓">
<ellipse fill="#31688e" stroke="black" cx="1848.26" cy="-530" rx="59.1" ry="18"/>
<text xml:space="preserve" text-anchor="middle" x="1848.26" y="-525.33" font-family="Times,serif" font-size="14.00" fill="white">casacpp ✓</text>
</a>
</g>
</g>
<!-- mysqlx&#45;connector&#45;python&#45;&gt;casacpp -->
</g>
</svg>
