<?xml version="1.0" encoding="UTF-8" standalone="no"?>
<!DOCTYPE svg PUBLIC "-//W3C//DTD SVG 1.1//EN"
 "http://www.w3.org/Graphics/SVG/1.1/DTD/svg11.dtd">
<!-- Generated by graphviz version 12.2.1 (20250203.1708)
 -->
<!-- Pages: 1 -->
<svg width="1497pt" height="1168pt"
 viewBox="0.00 0.00 1497.29 1168.00" xmlns="http://www.w3.org/2000/svg" xmlns:xlink="http://www.w3.org/1999/xlink">
<g id="graph0" class="graph" transform="scale(1 1) rotate(0) translate(4 1164)">
<polygon fill="white" stroke="none" points="-4,4 -4,-1164 1493.29,-1164 1493.29,4 -4,4"/>
<!-- qgis -->
<g id="node1" class="node">
<title>qgis</title>
<g id="a_node1"><a xlink:href="https://github.com/conda-forge/qgis-feedstock/pull/511" xlink:title="qgis ❎">
<ellipse fill="#31688e" stroke="black" cx="111.71" cy="-1142" rx="47.53" ry="18"/>
<text text-anchor="middle" x="111.71" y="-1137.33" font-family="Times,serif" font-size="14.00" fill="white">qgis ❎</text>
</a>
</g>
</g>
<!-- pyaudi -->
<g id="node2" class="node">
<title>pyaudi</title>
<g id="a_node2"><a xlink:href="https://github.com/conda-forge/pyaudi-feedstock/pull/47" xlink:title="pyaudi ✓">
<ellipse fill="#31688e" stroke="black" cx="111.71" cy="-1070" rx="52.79" ry="18"/>
<text text-anchor="middle" x="111.71" y="-1065.33" font-family="Times,serif" font-size="14.00" fill="white">pyaudi ✓</text>
</a>
</g>
</g>
<!-- qgis&#45;&gt;pyaudi -->
<!-- tensorflow -->
<g id="node3" class="node">
<title>tensorflow</title>
<g id="a_node3"><a xlink:href="https://github.com/conda-forge/tensorflow-feedstock/pull/424" xlink:title="tensorflow ❎">
<ellipse fill="#31688e" stroke="black" cx="111.71" cy="-998" rx="79.09" ry="18"/>
<text text-anchor="middle" x="111.71" y="-993.33" font-family="Times,serif" font-size="14.00" fill="white">tensorflow ❎</text>
</a>
</g>
</g>
<!-- pyaudi&#45;&gt;tensorflow -->
<!-- mongodb -->
<g id="node4" class="node">
<title>mongodb</title>
<g id="a_node4"><a xlink:href="https://github.com/conda-forge/mongodb-feedstock/pull/101" xlink:title="mongodb ❎">
<ellipse fill="#31688e" stroke="black" cx="111.71" cy="-926" rx="72.78" ry="18"/>
<text text-anchor="middle" x="111.71" y="-921.33" font-family="Times,serif" font-size="14.00" fill="white">mongodb ❎</text>
</a>
</g>
</g>
<!-- tensorflow&#45;&gt;mongodb -->
<!-- google&#45;cloud&#45;cpp -->
<g id="node5" class="node">
<title>google&#45;cloud&#45;cpp</title>
<g id="a_node5"><a xlink:href="https://github.com/conda-forge/google-cloud-cpp-feedstock/pull/196" xlink:title="google cloud cpp ❎">
<ellipse fill="#31688e" stroke="black" cx="111.71" cy="-854" rx="110.66" ry="18"/>
<text text-anchor="middle" x="111.71" y="-849.33" font-family="Times,serif" font-size="14.00" fill="white">google cloud cpp ❎</text>
</a>
</g>
</g>
<!-- mongodb&#45;&gt;google&#45;cloud&#45;cpp -->
<!-- go&#45;cockroach -->
<g id="node14" class="node">
<title>go&#45;cockroach</title>
<g id="a_node14"><a xlink:href="https://github.com/conda-forge/go-cockroach-feedstock/pull/32" xlink:title="go cockroach ❎">
<ellipse fill="#31688e" stroke="black" cx="111.71" cy="-782" rx="91.72" ry="18"/>
<text text-anchor="middle" x="111.71" y="-777.33" font-family="Times,serif" font-size="14.00" fill="white">go cockroach ❎</text>
</a>
</g>
</g>
<!-- google&#45;cloud&#45;cpp&#45;&gt;go&#45;cockroach -->
<!-- libignition&#45;transport4 -->
<g id="node6" class="node">
<title>libignition&#45;transport4</title>
<g id="a_node6"><a xlink:href="https://github.com/conda-forge/libignition-transport4-feedstock/pull/106" xlink:title="libignition transport4 ✓">
<ellipse fill="#31688e" stroke="black" cx="777.71" cy="-890" rx="126.97" ry="18"/>
<text text-anchor="middle" x="777.71" y="-885.33" font-family="Times,serif" font-size="14.00" fill="white">libignition transport4 ✓</text>
</a>
</g>
</g>
<!-- libignition&#45;sensors -->
<g id="node7" class="node">
<title>libignition&#45;sensors</title>
<g id="a_node7"><a xlink:href="https://github.com/conda-forge/libignition-sensors-feedstock" xlink:title="libignition sensors">
<ellipse fill="#fde725" stroke="black" cx="591.71" cy="-818" rx="103.82" ry="18"/>
<text text-anchor="middle" x="591.71" y="-813.33" font-family="Times,serif" font-size="14.00">libignition sensors</text>
</a>
</g>
</g>
<!-- libignition&#45;transport4&#45;&gt;libignition&#45;sensors -->
<g id="edge5" class="edge">
<title>libignition&#45;transport4&#45;&gt;libignition&#45;sensors</title>
<path fill="none" stroke="black" d="M734.57,-872.76C707.74,-862.67 673.04,-849.61 644.56,-838.89"/>
<polygon fill="black" stroke="black" points="645.98,-835.69 635.39,-835.44 643.52,-842.24 645.98,-835.69"/>
</g>
<!-- libignition&#45;gui -->
<g id="node8" class="node">
<title>libignition&#45;gui</title>
<g id="a_node8"><a xlink:href="https://github.com/conda-forge/libignition-gui-feedstock" xlink:title="libignition gui">
<ellipse fill="#fde725" stroke="black" cx="832.71" cy="-818" rx="81.2" ry="18"/>
<text text-anchor="middle" x="832.71" y="-813.33" font-family="Times,serif" font-size="14.00">libignition gui</text>
</a>
</g>
</g>
<!-- libignition&#45;transport4&#45;&gt;libignition&#45;gui -->
<g id="edge6" class="edge">
<title>libignition&#45;transport4&#45;&gt;libignition&#45;gui</title>
<path fill="none" stroke="black" d="M791.31,-871.7C797.63,-863.64 805.29,-853.89 812.3,-844.98"/>
<polygon fill="black" stroke="black" points="814.91,-847.32 818.34,-837.29 809.41,-843 814.91,-847.32"/>
</g>
<!-- libignition&#45;gazebo -->
<g id="node9" class="node">
<title>libignition&#45;gazebo</title>
<g id="a_node9"><a xlink:href="https://github.com/conda-forge/libignition-gazebo-feedstock" xlink:title="libignition gazebo">
<ellipse fill="#fde725" stroke="black" cx="713.71" cy="-746" rx="100.66" ry="18"/>
<text text-anchor="middle" x="713.71" y="-741.33" font-family="Times,serif" font-size="14.00">libignition gazebo</text>
</a>
</g>
</g>
<!-- libignition&#45;transport4&#45;&gt;libignition&#45;gazebo -->
<g id="edge7" class="edge">
<title>libignition&#45;transport4&#45;&gt;libignition&#45;gazebo</title>
<path fill="none" stroke="black" d="M764.81,-872.03C757.59,-861.96 748.84,-848.71 742.71,-836 733.27,-816.43 725.78,-793.02 720.78,-775.13"/>
<polygon fill="black" stroke="black" points="724.23,-774.47 718.25,-765.72 717.47,-776.28 724.23,-774.47"/>
</g>
<!-- libignition&#45;launch -->
<g id="node10" class="node">
<title>libignition&#45;launch</title>
<g id="a_node10"><a xlink:href="https://github.com/conda-forge/libignition-launch-feedstock" xlink:title="libignition launch">
<ellipse fill="#fde725" stroke="black" cx="842.71" cy="-674" rx="98.56" ry="18"/>
<text text-anchor="middle" x="842.71" y="-669.33" font-family="Times,serif" font-size="14.00">libignition launch</text>
</a>
</g>
</g>
<!-- libignition&#45;transport4&#45;&gt;libignition&#45;launch -->
<g id="edge8" class="edge">
<title>libignition&#45;transport4&#45;&gt;libignition&#45;launch</title>
<path fill="none" stroke="black" d="M862.97,-876.37C886.13,-868.6 908.66,-856.1 922.71,-836 954.04,-791.2 905.05,-732.33 870.98,-699.62"/>
<polygon fill="black" stroke="black" points="873.5,-697.19 863.8,-692.93 868.73,-702.31 873.5,-697.19"/>
</g>
<!-- libignition&#45;sensors&#45;&gt;libignition&#45;gazebo -->
<g id="edge9" class="edge">
<title>libignition&#45;sensors&#45;&gt;libignition&#45;gazebo</title>
<path fill="none" stroke="black" d="M620.62,-800.41C636.76,-791.15 657.09,-779.49 674.63,-769.42"/>
<polygon fill="black" stroke="black" points="676.34,-772.48 683.27,-764.47 672.86,-766.41 676.34,-772.48"/>
</g>
<!-- libignition&#45;gui&#45;&gt;libignition&#45;gazebo -->
<g id="edge10" class="edge">
<title>libignition&#45;gui&#45;&gt;libignition&#45;gazebo</title>
<path fill="none" stroke="black" d="M805.11,-800.76C789.27,-791.45 769.15,-779.61 751.82,-769.41"/>
<polygon fill="black" stroke="black" points="753.69,-766.45 743.29,-764.4 750.14,-772.49 753.69,-766.45"/>
</g>
<!-- libignition&#45;gui&#45;&gt;libignition&#45;launch -->
<g id="edge11" class="edge">
<title>libignition&#45;gui&#45;&gt;libignition&#45;launch</title>
<path fill="none" stroke="black" d="M833.94,-799.59C835.63,-775.61 838.69,-732.14 840.71,-703.42"/>
<polygon fill="black" stroke="black" points="844.19,-703.84 841.4,-693.62 837.21,-703.35 844.19,-703.84"/>
</g>
<!-- libignition&#45;gazebo&#45;&gt;libignition&#45;launch -->
<g id="edge12" class="edge">
<title>libignition&#45;gazebo&#45;&gt;libignition&#45;launch</title>
<path fill="none" stroke="black" d="M744.28,-728.41C761.63,-719 783.56,-707.1 802.32,-696.92"/>
<polygon fill="black" stroke="black" points="803.91,-700.04 811.03,-692.19 800.57,-693.89 803.91,-700.04"/>
</g>
<!-- gazebo -->
<g id="node11" class="node">
<title>gazebo</title>
<g id="a_node11"><a xlink:href="https://github.com/conda-forge/gazebo-feedstock/pull/237" xlink:title="gazebo ❎">
<ellipse fill="#31688e" stroke="black" cx="592.71" cy="-234" rx="61.73" ry="18"/>
<text text-anchor="middle" x="592.71" y="-229.32" font-family="Times,serif" font-size="14.00" fill="white">gazebo ❎</text>
</a>
</g>
</g>
<!-- gazebo&#45;yarp&#45;plugins -->
<g id="node12" class="node">
<title>gazebo&#45;yarp&#45;plugins</title>
<g id="a_node12"><a xlink:href="https://github.com/conda-forge/gazebo-yarp-plugins-feedstock" xlink:title="gazebo yarp plugins">
<ellipse fill="#fde725" stroke="black" cx="592.71" cy="-162" rx="112.24" ry="18"/>
<text text-anchor="middle" x="592.71" y="-157.32" font-family="Times,serif" font-size="14.00">gazebo yarp plugins</text>
</a>
</g>
</g>
<!-- gazebo&#45;&gt;gazebo&#45;yarp&#45;plugins -->
<g id="edge13" class="edge">
<title>gazebo&#45;&gt;gazebo&#45;yarp&#45;plugins</title>
<path fill="none" stroke="black" d="M592.71,-215.7C592.71,-208.41 592.71,-199.73 592.71,-191.54"/>
<polygon fill="black" stroke="black" points="596.21,-191.62 592.71,-181.62 589.21,-191.62 596.21,-191.62"/>
</g>
<!-- libignition&#45;fuel&#45;tools -->
<g id="node13" class="node">
<title>libignition&#45;fuel&#45;tools</title>
<g id="a_node13"><a xlink:href="https://github.com/conda-forge/libignition-fuel-tools-feedstock/pull/101" xlink:title="libignition fuel tools ✓">
<ellipse fill="#31688e" stroke="black" cx="350.71" cy="-818" rx="119.6" ry="18"/>
<text text-anchor="middle" x="350.71" y="-813.33" font-family="Times,serif" font-size="14.00" fill="white">libignition fuel tools ✓</text>
</a>
</g>
</g>
<!-- libignition&#45;fuel&#45;tools&#45;&gt;libignition&#45;gazebo -->
<g id="edge14" class="edge">
<title>libignition&#45;fuel&#45;tools&#45;&gt;libignition&#45;gazebo</title>
<path fill="none" stroke="black" d="M422.43,-803.17C484.02,-791.29 572.64,-774.2 635.92,-762"/>
<polygon fill="black" stroke="black" points="636.4,-765.47 645.55,-760.14 635.07,-758.6 636.4,-765.47"/>
</g>
<!-- ray&#45;packages -->
<g id="node15" class="node">
<title>ray&#45;packages</title>
<g id="a_node15"><a xlink:href="https://github.com/conda-forge/ray-packages-feedstock/pull/200" xlink:title="ray packages ❎">
<ellipse fill="#31688e" stroke="black" cx="111.71" cy="-710" rx="92.25" ry="18"/>
<text text-anchor="middle" x="111.71" y="-705.33" font-family="Times,serif" font-size="14.00" fill="white">ray packages ❎</text>
</a>
</g>
</g>
<!-- go&#45;cockroach&#45;&gt;ray&#45;packages -->
<!-- tomviz -->
<g id="node18" class="node">
<title>tomviz</title>
<g id="a_node18"><a xlink:href="https://github.com/conda-forge/tomviz-feedstock/pull/73" xlink:title="tomviz ❎">
<ellipse fill="#31688e" stroke="black" cx="111.71" cy="-638" rx="60.15" ry="18"/>
<text text-anchor="middle" x="111.71" y="-633.33" font-family="Times,serif" font-size="14.00" fill="white">tomviz ❎</text>
</a>
</g>
</g>
<!-- ray&#45;packages&#45;&gt;tomviz -->
<!-- s2geometry -->
<g id="node16" class="node">
<title>s2geometry</title>
<g id="a_node16"><a xlink:href="https://github.com/conda-forge/s2geometry-feedstock/pull/23" xlink:title="s2geometry ✓">
<ellipse fill="#31688e" stroke="black" cx="1225.71" cy="-234" rx="78.57" ry="18"/>
<text text-anchor="middle" x="1225.71" y="-229.32" font-family="Times,serif" font-size="14.00" fill="white">s2geometry ✓</text>
</a>
</g>
</g>
<!-- s2geography -->
<g id="node17" class="node">
<title>s2geography</title>
<g id="a_node17"><a xlink:href="https://github.com/conda-forge/s2geography-feedstock" xlink:title="s2geography">
<ellipse fill="#fde725" stroke="black" cx="1225.71" cy="-162" rx="75.94" ry="18"/>
<text text-anchor="middle" x="1225.71" y="-157.32" font-family="Times,serif" font-size="14.00">s2geography</text>
</a>
</g>
</g>
<!-- s2geometry&#45;&gt;s2geography -->
<g id="edge17" class="edge">
<title>s2geometry&#45;&gt;s2geography</title>
<path fill="none" stroke="black" d="M1225.71,-215.7C1225.71,-208.41 1225.71,-199.73 1225.71,-191.54"/>
<polygon fill="black" stroke="black" points="1229.21,-191.62 1225.71,-181.62 1222.21,-191.62 1229.21,-191.62"/>
</g>
<!-- protozfits -->
<g id="node19" class="node">
<title>protozfits</title>
<g id="a_node19"><a xlink:href="https://github.com/conda-forge/protozfits-feedstock/pull/48" xlink:title="protozfits ✓">
<ellipse fill="#31688e" stroke="black" cx="111.71" cy="-566" rx="66.99" ry="18"/>
<text text-anchor="middle" x="111.71" y="-561.33" font-family="Times,serif" font-size="14.00" fill="white">protozfits ✓</text>
</a>
</g>
</g>
<!-- tomviz&#45;&gt;protozfits -->
<!-- or&#45;tools -->
<g id="node20" class="node">
<title>or&#45;tools</title>
<g id="a_node20"><a xlink:href="https://github.com/conda-forge/or-tools-feedstock/pull/65" xlink:title="or tools ❎">
<ellipse fill="#31688e" stroke="black" cx="111.71" cy="-494" rx="64.36" ry="18"/>
<text text-anchor="middle" x="111.71" y="-489.32" font-family="Times,serif" font-size="14.00" fill="white">or tools ❎</text>
</a>
</g>
</g>
<!-- protozfits&#45;&gt;or&#45;tools -->
<!-- bear -->
<g id="node21" class="node">
<title>bear</title>
<g id="a_node21"><a xlink:href="https://github.com/conda-forge/bear-feedstock/pull/54" xlink:title="bear ❎">
<ellipse fill="#31688e" stroke="black" cx="111.71" cy="-422" rx="49.1" ry="18"/>
<text text-anchor="middle" x="111.71" y="-417.32" font-family="Times,serif" font-size="14.00" fill="white">bear ❎</text>
</a>
</g>
</g>
<!-- or&#45;tools&#45;&gt;bear -->
<!-- datafusion -->
<g id="node22" class="node">
<title>datafusion</title>
<g id="a_node22"><a xlink:href="https://github.com/conda-forge/datafusion-feedstock/pull/66" xlink:title="datafusion ✓">
<ellipse fill="#31688e" stroke="black" cx="111.71" cy="-378" rx="71.73" ry="18"/>
<text text-anchor="middle" x="111.71" y="-373.32" font-family="Times,serif" font-size="14.00" fill="white">datafusion ✓</text>
</a>
</g>
</g>
<!-- xilinx&#45;runtime -->
<g id="node23" class="node">
<title>xilinx&#45;runtime</title>
<g id="a_node23"><a xlink:href="https://github.com/conda-forge/xilinx-runtime-feedstock/pull/40" xlink:title="xilinx runtime ❎">
<ellipse fill="#31688e" stroke="black" cx="111.71" cy="-306" rx="96.98" ry="18"/>
<text text-anchor="middle" x="111.71" y="-301.32" font-family="Times,serif" font-size="14.00" fill="white">xilinx runtime ❎</text>
</a>
</g>
</g>
<!-- datafusion&#45;&gt;xilinx&#45;runtime -->
<!-- arcticdb -->
<g id="node24" class="node">
<title>arcticdb</title>
<g id="a_node24"><a xlink:href="https://github.com/conda-forge/arcticdb-feedstock" xlink:title="arcticdb">
<ellipse fill="#35b779" stroke="black" cx="111.71" cy="-234" rx="52.26" ry="18"/>
<text text-anchor="middle" x="111.71" y="-229.32" font-family="Times,serif" font-size="14.00">arcticdb</text>
</a>
</g>
</g>
<!-- xilinx&#45;runtime&#45;&gt;arcticdb -->
<!-- gnss&#45;sdr -->
<g id="node33" class="node">
<title>gnss&#45;sdr</title>
<g id="a_node33"><a xlink:href="https://github.com/conda-forge/gnss-sdr-feedstock/pull/37" xlink:title="gnss sdr ❎">
<ellipse fill="#31688e" stroke="black" cx="111.71" cy="-162" rx="69.1" ry="18"/>
<text text-anchor="middle" x="111.71" y="-157.32" font-family="Times,serif" font-size="14.00" fill="white">gnss sdr ❎</text>
</a>
</g>
</g>
<!-- arcticdb&#45;&gt;gnss&#45;sdr -->
<!-- gz&#45;msgs -->
<g id="node25" class="node">
<title>gz&#45;msgs</title>
<g id="a_node25"><a xlink:href="https://github.com/conda-forge/gz-msgs-feedstock/pull/60" xlink:title="gz msgs ❎">
<ellipse fill="#31688e" stroke="black" cx="1229.71" cy="-926" rx="67.52" ry="18"/>
<text text-anchor="middle" x="1229.71" y="-921.33" font-family="Times,serif" font-size="14.00" fill="white">gz msgs ❎</text>
</a>
</g>
</g>
<!-- gz&#45;transport -->
<g id="node26" class="node">
<title>gz&#45;transport</title>
<g id="a_node26"><a xlink:href="https://github.com/conda-forge/gz-transport-feedstock" xlink:title="gz transport">
<ellipse fill="#fde725" stroke="black" cx="1128.71" cy="-854" rx="73.3" ry="18"/>
<text text-anchor="middle" x="1128.71" y="-849.33" font-family="Times,serif" font-size="14.00">gz transport</text>
</a>
</g>
</g>
<!-- gz&#45;msgs&#45;&gt;gz&#45;transport -->
<g id="edge24" class="edge">
<title>gz&#45;msgs&#45;&gt;gz&#45;transport</title>
<path fill="none" stroke="black" d="M1206.29,-908.76C1193,-899.55 1176.16,-887.88 1161.56,-877.77"/>
<polygon fill="black" stroke="black" points="1163.82,-875.07 1153.6,-872.25 1159.83,-880.82 1163.82,-875.07"/>
</g>
<!-- gz&#45;fuel&#45;tools -->
<g id="node27" class="node">
<title>gz&#45;fuel&#45;tools</title>
<g id="a_node27"><a xlink:href="https://github.com/conda-forge/gz-fuel-tools-feedstock" xlink:title="gz fuel tools">
<ellipse fill="#fde725" stroke="black" cx="1329.71" cy="-854" rx="72.25" ry="18"/>
<text text-anchor="middle" x="1329.71" y="-849.33" font-family="Times,serif" font-size="14.00">gz fuel tools</text>
</a>
</g>
</g>
<!-- gz&#45;msgs&#45;&gt;gz&#45;fuel&#45;tools -->
<g id="edge25" class="edge">
<title>gz&#45;msgs&#45;&gt;gz&#45;fuel&#45;tools</title>
<path fill="none" stroke="black" d="M1252.9,-908.76C1266.06,-899.55 1282.74,-887.88 1297.18,-877.77"/>
<polygon fill="black" stroke="black" points="1298.87,-880.86 1305.06,-872.26 1294.86,-875.13 1298.87,-880.86"/>
</g>
<!-- gz&#45;gui -->
<g id="node28" class="node">
<title>gz&#45;gui</title>
<g id="a_node28"><a xlink:href="https://github.com/conda-forge/gz-gui-feedstock" xlink:title="gz gui">
<ellipse fill="#fde725" stroke="black" cx="1027.71" cy="-782" rx="41.74" ry="18"/>
<text text-anchor="middle" x="1027.71" y="-777.33" font-family="Times,serif" font-size="14.00">gz gui</text>
</a>
</g>
</g>
<!-- gz&#45;msgs&#45;&gt;gz&#45;gui -->
<g id="edge26" class="edge">
<title>gz&#45;msgs&#45;&gt;gz&#45;gui</title>
<path fill="none" stroke="black" d="M1163.44,-922.24C1124.18,-917.05 1076.46,-903.96 1046.71,-872 1031.81,-855.99 1027.47,-831.26 1026.62,-811.93"/>
<polygon fill="black" stroke="black" points="1030.12,-811.91 1026.51,-801.95 1023.12,-811.98 1030.12,-811.91"/>
</g>
<!-- gz&#45;sensors -->
<g id="node29" class="node">
<title>gz&#45;sensors</title>
<g id="a_node29"><a xlink:href="https://github.com/conda-forge/gz-sensors-feedstock" xlink:title="gz sensors">
<ellipse fill="#fde725" stroke="black" cx="1265.71" cy="-782" rx="64.36" ry="18"/>
<text text-anchor="middle" x="1265.71" y="-777.33" font-family="Times,serif" font-size="14.00">gz sensors</text>
</a>
</g>
</g>
<!-- gz&#45;msgs&#45;&gt;gz&#45;sensors -->
<g id="edge27" class="edge">
<title>gz&#45;msgs&#45;&gt;gz&#45;sensors</title>
<path fill="none" stroke="black" d="M1232.85,-907.82C1236.26,-889.8 1242.12,-860.73 1248.71,-836 1250.91,-827.75 1253.62,-818.88 1256.22,-810.8"/>
<polygon fill="black" stroke="black" points="1259.48,-812.09 1259.29,-801.49 1252.83,-809.9 1259.48,-812.09"/>
</g>
<!-- gz&#45;sim -->
<g id="node30" class="node">
<title>gz&#45;sim</title>
<g id="a_node30"><a xlink:href="https://github.com/conda-forge/gz-sim-feedstock" xlink:title="gz sim">
<ellipse fill="#fde725" stroke="black" cx="1240.71" cy="-710" rx="43.84" ry="18"/>
<text text-anchor="middle" x="1240.71" y="-705.33" font-family="Times,serif" font-size="14.00">gz sim</text>
</a>
</g>
</g>
<!-- gz&#45;msgs&#45;&gt;gz&#45;sim -->
<g id="edge28" class="edge">
<title>gz&#45;msgs&#45;&gt;gz&#45;sim</title>
<path fill="none" stroke="black" d="M1286.28,-915.99C1333.57,-907.16 1395.64,-892.11 1410.71,-872 1443.78,-827.86 1357.78,-764.86 1356.71,-764 1335.82,-747.17 1308.71,-734.4 1285.96,-725.62"/>
<polygon fill="black" stroke="black" points="1287.2,-722.34 1276.6,-722.15 1284.77,-728.91 1287.2,-722.34"/>
</g>
<!-- gz&#45;launch -->
<g id="node31" class="node">
<title>gz&#45;launch</title>
<g id="a_node31"><a xlink:href="https://github.com/conda-forge/gz-launch-feedstock" xlink:title="gz launch">
<ellipse fill="#fde725" stroke="black" cx="1040.71" cy="-638" rx="59.1" ry="18"/>
<text text-anchor="middle" x="1040.71" y="-633.33" font-family="Times,serif" font-size="14.00">gz launch</text>
</a>
</g>
</g>
<!-- gz&#45;msgs&#45;&gt;gz&#45;launch -->
<g id="edge29" class="edge">
<title>gz&#45;msgs&#45;&gt;gz&#45;launch</title>
<path fill="none" stroke="black" d="M1165.49,-920.07C1122.64,-914.12 1066.84,-900.98 1025.71,-872 994.07,-849.71 988.11,-836.99 976.71,-800 961.63,-751.02 994.97,-695.93 1018.96,-664.55"/>
<polygon fill="black" stroke="black" points="1021.64,-666.8 1025.1,-656.79 1016.15,-662.46 1021.64,-666.8"/>
</g>
<!-- gz&#45;sim&#45;yarp&#45;plugins -->
<g id="node32" class="node">
<title>gz&#45;sim&#45;yarp&#45;plugins</title>
<g id="a_node32"><a xlink:href="https://github.com/conda-forge/gz-sim-yarp-plugins-feedstock" xlink:title="gz sim yarp plugins">
<ellipse fill="#fde725" stroke="black" cx="1240.71" cy="-638" rx="109.61" ry="18"/>
<text text-anchor="middle" x="1240.71" y="-633.33" font-family="Times,serif" font-size="14.00">gz sim yarp plugins</text>
</a>
</g>
</g>
<!-- gz&#45;msgs&#45;&gt;gz&#45;sim&#45;yarp&#45;plugins -->
<g id="edge30" class="edge">
<title>gz&#45;msgs&#45;&gt;gz&#45;sim&#45;yarp&#45;plugins</title>
<path fill="none" stroke="black" d="M1289.3,-917.18C1341.54,-908.96 1411.72,-894.11 1428.71,-872 1489.29,-793.18 1354.42,-702.08 1282.33,-661.05"/>
<polygon fill="black" stroke="black" points="1284.36,-658.17 1273.92,-656.34 1280.93,-664.28 1284.36,-658.17"/>
</g>
<!-- gz&#45;transport&#45;&gt;gz&#45;gui -->
<g id="edge31" class="edge">
<title>gz&#45;transport&#45;&gt;gz&#45;gui</title>
<path fill="none" stroke="black" d="M1105.03,-836.59C1091.16,-826.97 1073.49,-814.73 1058.54,-804.37"/>
<polygon fill="black" stroke="black" points="1060.64,-801.56 1050.42,-798.74 1056.65,-807.31 1060.64,-801.56"/>
</g>
<!-- gz&#45;transport&#45;&gt;gz&#45;sensors -->
<g id="edge32" class="edge">
<title>gz&#45;transport&#45;&gt;gz&#45;sensors</title>
<path fill="none" stroke="black" d="M1159.46,-837.29C1179.12,-827.24 1204.81,-814.12 1226.01,-803.28"/>
<polygon fill="black" stroke="black" points="1227.35,-806.53 1234.66,-798.86 1224.16,-800.3 1227.35,-806.53"/>
</g>
<!-- gz&#45;transport&#45;&gt;gz&#45;sim -->
<g id="edge33" class="edge">
<title>gz&#45;transport&#45;&gt;gz&#45;sim</title>
<path fill="none" stroke="black" d="M1140.19,-835.85C1152.6,-817.61 1173.21,-788.13 1192.71,-764 1200.44,-754.44 1209.37,-744.35 1217.41,-735.57"/>
<polygon fill="black" stroke="black" points="1219.83,-738.11 1224.06,-728.4 1214.69,-733.35 1219.83,-738.11"/>
</g>
<!-- gz&#45;transport&#45;&gt;gz&#45;launch -->
<g id="edge34" class="edge">
<title>gz&#45;transport&#45;&gt;gz&#45;launch</title>
<path fill="none" stroke="black" d="M1121.66,-835.85C1106.47,-798.91 1070.55,-711.55 1052.09,-666.67"/>
<polygon fill="black" stroke="black" points="1055.41,-665.55 1048.37,-657.63 1048.94,-668.21 1055.41,-665.55"/>
</g>
<!-- gz&#45;transport&#45;&gt;gz&#45;sim&#45;yarp&#45;plugins -->
<g id="edge35" class="edge">
<title>gz&#45;transport&#45;&gt;gz&#45;sim&#45;yarp&#45;plugins</title>
<path fill="none" stroke="black" d="M1132.38,-835.92C1139.51,-805.27 1157.27,-739.67 1187.71,-692 1194.17,-681.88 1202.86,-672.17 1211.33,-663.9"/>
<polygon fill="black" stroke="black" points="1213.62,-666.55 1218.53,-657.16 1208.83,-661.44 1213.62,-666.55"/>
</g>
<!-- gz&#45;fuel&#45;tools&#45;&gt;gz&#45;sim -->
<g id="edge36" class="edge">
<title>gz&#45;fuel&#45;tools&#45;&gt;gz&#45;sim</title>
<path fill="none" stroke="black" d="M1337.29,-835.6C1344.3,-816.62 1351.83,-786.01 1338.71,-764 1327.51,-745.21 1307.09,-732.68 1287.78,-724.55"/>
<polygon fill="black" stroke="black" points="1289.23,-721.36 1278.64,-721.01 1286.7,-727.89 1289.23,-721.36"/>
</g>
<!-- gz&#45;gui&#45;&gt;gz&#45;sim -->
<g id="edge37" class="edge">
<title>gz&#45;gui&#45;&gt;gz&#45;sim</title>
<path fill="none" stroke="black" d="M1060.06,-770.37C1096.52,-758.39 1156,-738.84 1196.67,-725.47"/>
<polygon fill="black" stroke="black" points="1197.51,-728.88 1205.92,-722.44 1195.32,-722.23 1197.51,-728.88"/>
</g>
<!-- gz&#45;gui&#45;&gt;gz&#45;launch -->
<g id="edge38" class="edge">
<title>gz&#45;gui&#45;&gt;gz&#45;launch</title>
<path fill="none" stroke="black" d="M1029.31,-763.59C1031.5,-739.61 1035.48,-696.14 1038.11,-667.42"/>
<polygon fill="black" stroke="black" points="1041.58,-667.9 1039.01,-657.62 1034.61,-667.26 1041.58,-667.9"/>
</g>
<!-- gz&#45;sensors&#45;&gt;gz&#45;sim -->
<g id="edge39" class="edge">
<title>gz&#45;sensors&#45;&gt;gz&#45;sim</title>
<path fill="none" stroke="black" d="M1259.53,-763.7C1256.84,-756.15 1253.61,-747.12 1250.6,-738.68"/>
<polygon fill="black" stroke="black" points="1253.99,-737.77 1247.33,-729.53 1247.4,-740.12 1253.99,-737.77"/>
</g>
<!-- gz&#45;sim&#45;&gt;gz&#45;launch -->
<g id="edge40" class="edge">
<title>gz&#45;sim&#45;&gt;gz&#45;launch</title>
<path fill="none" stroke="black" d="M1208.13,-697.6C1175.79,-686.28 1125.85,-668.8 1088.92,-655.87"/>
<polygon fill="black" stroke="black" points="1090.41,-652.69 1079.82,-652.69 1088.1,-659.3 1090.41,-652.69"/>
</g>
<!-- gz&#45;sim&#45;&gt;gz&#45;sim&#45;yarp&#45;plugins -->
<g id="edge41" class="edge">
<title>gz&#45;sim&#45;&gt;gz&#45;sim&#45;yarp&#45;plugins</title>
<path fill="none" stroke="black" d="M1240.71,-691.7C1240.71,-684.41 1240.71,-675.73 1240.71,-667.54"/>
<polygon fill="black" stroke="black" points="1244.21,-667.62 1240.71,-657.62 1237.21,-667.62 1244.21,-667.62"/>
</g>
<!-- openvino&#45;tokenizers -->
<g id="node34" class="node">
<title>openvino&#45;tokenizers</title>
<g id="a_node34"><a xlink:href="https://github.com/conda-forge/openvino-tokenizers-feedstock" xlink:title="openvino tokenizers">
<ellipse fill="#35b779" stroke="black" cx="111.71" cy="-90" rx="111.71" ry="18"/>
<text text-anchor="middle" x="111.71" y="-85.33" font-family="Times,serif" font-size="14.00">openvino tokenizers</text>
</a>
</g>
</g>
<!-- gnss&#45;sdr&#45;&gt;openvino&#45;tokenizers -->
<!-- bfiocpp -->
<g id="node35" class="node">
<title>bfiocpp</title>
<g id="a_node35"><a xlink:href="https://github.com/conda-forge/bfiocpp-feedstock/pull/14" xlink:title="bfiocpp ✓">
<ellipse fill="#31688e" stroke="black" cx="111.71" cy="-18" rx="55.42" ry="18"/>
<text text-anchor="middle" x="111.71" y="-13.32" font-family="Times,serif" font-size="14.00" fill="white">bfiocpp ✓</text>
</a>
</g>
</g>
<!-- openvino&#45;tokenizers&#45;&gt;bfiocpp -->
</g>
</svg>
