<?xml version="1.0" encoding="UTF-8" standalone="no"?>
<!DOCTYPE svg PUBLIC "-//W3C//DTD SVG 1.1//EN"
 "http://www.w3.org/Graphics/SVG/1.1/DTD/svg11.dtd">
<!-- Generated by graphviz version 13.1.2 (20250809.0930)
 -->
<!-- Pages: 1 -->
<svg width="1524pt" height="476pt"
 viewBox="0.00 0.00 1524.00 476.00" xmlns="http://www.w3.org/2000/svg" xmlns:xlink="http://www.w3.org/1999/xlink">
<g id="graph0" class="graph" transform="scale(1 1) rotate(0) translate(4 472)">
<polygon fill="white" stroke="none" points="-4,4 -4,-472 1520.15,-472 1520.15,4 -4,4"/>
<!-- gazebo -->
<g id="node1" class="node">
<title>gazebo</title>
<g id="a_node1"><a xlink:href="https://github.com/conda-forge/gazebo-feedstock" xlink:title="gazebo">
<ellipse fill="#fde725" stroke="black" cx="1032" cy="-234" rx="46.47" ry="18"/>
<text xml:space="preserve" text-anchor="middle" x="1032" y="-229.32" font-family="Times,serif" font-size="14.00">gazebo</text>
</a>
</g>
</g>
<!-- gazebo&#45;yarp&#45;plugins -->
<g id="node2" class="node">
<title>gazebo&#45;yarp&#45;plugins</title>
<g id="a_node2"><a xlink:href="https://github.com/conda-forge/gazebo-yarp-plugins-feedstock" xlink:title="gazebo yarp plugins">
<ellipse fill="#fde725" stroke="black" cx="1032" cy="-162" rx="112.24" ry="18"/>
<text xml:space="preserve" text-anchor="middle" x="1032" y="-157.32" font-family="Times,serif" font-size="14.00">gazebo yarp plugins</text>
</a>
</g>
</g>
<!-- gazebo&#45;&gt;gazebo&#45;yarp&#45;plugins -->
<g id="edge1" class="edge">
<title>gazebo&#45;&gt;gazebo&#45;yarp&#45;plugins</title>
<path fill="none" stroke="black" d="M1032,-215.7C1032,-208.41 1032,-199.73 1032,-191.54"/>
<polygon fill="black" stroke="black" points="1035.5,-191.62 1032,-181.62 1028.5,-191.62 1035.5,-191.62"/>
</g>
<!-- libignition&#45;physics -->
<g id="node3" class="node">
<title>libignition&#45;physics</title>
<g id="a_node3"><a xlink:href="https://github.com/conda-forge/libignition-physics-feedstock" xlink:title="libignition physics">
<ellipse fill="#fde725" stroke="black" cx="1265" cy="-162" rx="102.77" ry="18"/>
<text xml:space="preserve" text-anchor="middle" x="1265" y="-157.32" font-family="Times,serif" font-size="14.00">libignition physics</text>
</a>
</g>
</g>
<!-- dartsim -->
<g id="node4" class="node">
<title>dartsim</title>
<g id="a_node4"><a xlink:href="https://github.com/conda-forge/dartsim-feedstock/pull/151" xlink:title="dartsim ❎">
<ellipse fill="#31688e" stroke="black" cx="1088" cy="-306" rx="65.41" ry="18"/>
<text xml:space="preserve" text-anchor="middle" x="1088" y="-301.32" font-family="Times,serif" font-size="14.00" fill="white">dartsim ❎</text>
</a>
</g>
</g>
<!-- dartsim&#45;&gt;gazebo -->
<g id="edge2" class="edge">
<title>dartsim&#45;&gt;gazebo</title>
<path fill="none" stroke="black" d="M1074.44,-288.05C1067.74,-279.68 1059.52,-269.4 1052.11,-260.13"/>
<polygon fill="black" stroke="black" points="1054.97,-258.11 1045.99,-252.49 1049.51,-262.48 1054.97,-258.11"/>
</g>
<!-- dartsim&#45;&gt;gazebo&#45;yarp&#45;plugins -->
<g id="edge3" class="edge">
<title>dartsim&#45;&gt;gazebo&#45;yarp&#45;plugins</title>
<path fill="none" stroke="black" d="M1091.6,-287.79C1094.63,-269.25 1097.05,-239.27 1087,-216 1082.31,-205.13 1074.2,-195.4 1065.64,-187.34"/>
<polygon fill="black" stroke="black" points="1068.01,-184.76 1058.16,-180.84 1063.41,-190.04 1068.01,-184.76"/>
</g>
<!-- dartsim&#45;&gt;libignition&#45;physics -->
<g id="edge4" class="edge">
<title>dartsim&#45;&gt;libignition&#45;physics</title>
<path fill="none" stroke="black" d="M1108.65,-288.43C1139.92,-263.34 1199.45,-215.59 1235.35,-186.79"/>
<polygon fill="black" stroke="black" points="1237.14,-189.84 1242.75,-180.85 1232.76,-184.38 1237.14,-189.84"/>
</g>
<!-- gz&#45;physics -->
<g id="node5" class="node">
<title>gz&#45;physics</title>
<g id="a_node5"><a xlink:href="https://github.com/conda-forge/gz-physics-feedstock" xlink:title="gz physics">
<ellipse fill="#fde725" stroke="black" cx="904" cy="-234" rx="63.31" ry="18"/>
<text xml:space="preserve" text-anchor="middle" x="904" y="-229.32" font-family="Times,serif" font-size="14.00">gz physics</text>
</a>
</g>
</g>
<!-- dartsim&#45;&gt;gz&#45;physics -->
<g id="edge5" class="edge">
<title>dartsim&#45;&gt;gz&#45;physics</title>
<path fill="none" stroke="black" d="M1050.76,-290.83C1022.11,-279.93 982.32,-264.8 951.4,-253.03"/>
<polygon fill="black" stroke="black" points="952.87,-249.85 942.28,-249.56 950.38,-256.39 952.87,-249.85"/>
</g>
<!-- gepetto&#45;viewer -->
<g id="node6" class="node">
<title>gepetto&#45;viewer</title>
<g id="a_node6"><a xlink:href="https://github.com/conda-forge/gepetto-viewer-feedstock/pull/61" xlink:title="gepetto viewer ❎">
<ellipse fill="#31688e" stroke="black" cx="711" cy="-90" rx="101.71" ry="18"/>
<text xml:space="preserve" text-anchor="middle" x="711" y="-85.33" font-family="Times,serif" font-size="14.00" fill="white">gepetto viewer ❎</text>
</a>
</g>
</g>
<!-- hpp&#45;gepetto&#45;viewer -->
<g id="node7" class="node">
<title>hpp&#45;gepetto&#45;viewer</title>
<g id="a_node7"><a xlink:href="https://github.com/conda-forge/hpp-gepetto-viewer-feedstock" xlink:title="hpp gepetto viewer">
<ellipse fill="#fde725" stroke="black" cx="385" cy="-18" rx="108.55" ry="18"/>
<text xml:space="preserve" text-anchor="middle" x="385" y="-13.32" font-family="Times,serif" font-size="14.00">hpp gepetto viewer</text>
</a>
</g>
</g>
<!-- gepetto&#45;viewer&#45;&gt;hpp&#45;gepetto&#45;viewer -->
<g id="edge6" class="edge">
<title>gepetto&#45;viewer&#45;&gt;hpp&#45;gepetto&#45;viewer</title>
<path fill="none" stroke="black" d="M648.14,-75.5C594.63,-64.01 517.61,-47.47 460.71,-35.26"/>
<polygon fill="black" stroke="black" points="461.61,-31.87 451.09,-33.19 460.14,-38.71 461.61,-31.87"/>
</g>
<!-- panda3d -->
<g id="node8" class="node">
<title>panda3d</title>
<g id="a_node8"><a xlink:href="https://github.com/conda-forge/panda3d-feedstock" xlink:title="panda3d">
<ellipse fill="#35b779" stroke="black" cx="1446" cy="-414" rx="54.36" ry="18"/>
<text xml:space="preserve" text-anchor="middle" x="1446" y="-409.32" font-family="Times,serif" font-size="14.00">panda3d</text>
</a>
</g>
</g>
<!-- idyntree -->
<g id="node9" class="node">
<title>idyntree</title>
<g id="a_node9"><a xlink:href="https://github.com/conda-forge/idyntree-feedstock/pull/150" xlink:title="idyntree ❎">
<ellipse fill="#31688e" stroke="black" cx="1446" cy="-342" rx="68.57" ry="18"/>
<text xml:space="preserve" text-anchor="middle" x="1446" y="-337.32" font-family="Times,serif" font-size="14.00" fill="white">idyntree ❎</text>
</a>
</g>
</g>
<!-- panda3d&#45;&gt;idyntree -->
<!-- qt&#45;3d -->
<g id="node16" class="node">
<title>qt&#45;3d</title>
<g id="a_node16"><a xlink:href="https://github.com/conda-forge/qt-3d-feedstock/pull/71" xlink:title="qt 3d ❎">
<ellipse fill="#31688e" stroke="black" cx="1446" cy="-270" rx="52.79" ry="18"/>
<text xml:space="preserve" text-anchor="middle" x="1446" y="-265.32" font-family="Times,serif" font-size="14.00" fill="white">qt 3d ❎</text>
</a>
</g>
</g>
<!-- idyntree&#45;&gt;qt&#45;3d -->
<!-- hpp&#45;core -->
<g id="node10" class="node">
<title>hpp&#45;core</title>
<g id="a_node10"><a xlink:href="https://github.com/conda-forge/hpp-core-feedstock" xlink:title="hpp core">
<ellipse fill="#fde725" stroke="black" cx="375" cy="-306" rx="54.89" ry="18"/>
<text xml:space="preserve" text-anchor="middle" x="375" y="-301.32" font-family="Times,serif" font-size="14.00">hpp core</text>
</a>
</g>
</g>
<!-- hpp&#45;core&#45;&gt;hpp&#45;gepetto&#45;viewer -->
<g id="edge8" class="edge">
<title>hpp&#45;core&#45;&gt;hpp&#45;gepetto&#45;viewer</title>
<path fill="none" stroke="black" d="M394.04,-288.74C428.54,-257.81 500.01,-186.54 524,-108 528.67,-92.7 533.08,-85.18 524,-72 511.89,-54.42 493.11,-42.67 473.23,-34.81"/>
<polygon fill="black" stroke="black" points="474.46,-31.54 463.87,-31.46 472.1,-38.13 474.46,-31.54"/>
</g>
<!-- hpp&#45;manipulation&#45;urdf -->
<g id="node11" class="node">
<title>hpp&#45;manipulation&#45;urdf</title>
<g id="a_node11"><a xlink:href="https://github.com/conda-forge/hpp-manipulation-urdf-feedstock" xlink:title="hpp manipulation urdf">
<ellipse fill="#fde725" stroke="black" cx="151" cy="-162" rx="123.29" ry="18"/>
<text xml:space="preserve" text-anchor="middle" x="151" y="-157.32" font-family="Times,serif" font-size="14.00">hpp manipulation urdf</text>
</a>
</g>
</g>
<!-- hpp&#45;core&#45;&gt;hpp&#45;manipulation&#45;urdf -->
<g id="edge9" class="edge">
<title>hpp&#45;core&#45;&gt;hpp&#45;manipulation&#45;urdf</title>
<path fill="none" stroke="black" d="M322.04,-300.94C282.75,-295.44 229.98,-282.48 194,-252 175.5,-236.33 164.32,-210.85 158.02,-191.16"/>
<polygon fill="black" stroke="black" points="161.45,-190.42 155.28,-181.81 154.73,-192.39 161.45,-190.42"/>
</g>
<!-- hpp&#45;manipulation -->
<g id="node12" class="node">
<title>hpp&#45;manipulation</title>
<g id="a_node12"><a xlink:href="https://github.com/conda-forge/hpp-manipulation-feedstock" xlink:title="hpp manipulation">
<ellipse fill="#fde725" stroke="black" cx="302" cy="-234" rx="99.08" ry="18"/>
<text xml:space="preserve" text-anchor="middle" x="302" y="-229.32" font-family="Times,serif" font-size="14.00">hpp manipulation</text>
</a>
</g>
</g>
<!-- hpp&#45;core&#45;&gt;hpp&#45;manipulation -->
<g id="edge10" class="edge">
<title>hpp&#45;core&#45;&gt;hpp&#45;manipulation</title>
<path fill="none" stroke="black" d="M358.07,-288.76C349.12,-280.18 337.94,-269.46 327.92,-259.86"/>
<polygon fill="black" stroke="black" points="330.59,-257.57 320.95,-253.17 325.75,-262.62 330.59,-257.57"/>
</g>
<!-- hpp&#45;manipulation&#45;corba -->
<g id="node13" class="node">
<title>hpp&#45;manipulation&#45;corba</title>
<g id="a_node13"><a xlink:href="https://github.com/conda-forge/hpp-manipulation-corba-feedstock" xlink:title="hpp manipulation corba">
<ellipse fill="#fde725" stroke="black" cx="385" cy="-90" rx="130.13" ry="18"/>
<text xml:space="preserve" text-anchor="middle" x="385" y="-85.33" font-family="Times,serif" font-size="14.00">hpp manipulation corba</text>
</a>
</g>
</g>
<!-- hpp&#45;core&#45;&gt;hpp&#45;manipulation&#45;corba -->
<g id="edge11" class="edge">
<title>hpp&#45;core&#45;&gt;hpp&#45;manipulation&#45;corba</title>
<path fill="none" stroke="black" d="M389.45,-288.64C397.19,-278.77 405.94,-265.52 410,-252 423.69,-206.44 408.6,-151.26 396.64,-118.76"/>
<polygon fill="black" stroke="black" points="400,-117.75 393.14,-109.68 393.47,-120.27 400,-117.75"/>
</g>
<!-- hpp&#45;manipulation&#45;urdf&#45;&gt;hpp&#45;gepetto&#45;viewer -->
<g id="edge12" class="edge">
<title>hpp&#45;manipulation&#45;urdf&#45;&gt;hpp&#45;gepetto&#45;viewer</title>
<path fill="none" stroke="black" d="M158.71,-143.65C168.51,-123.54 187.3,-90.77 213,-72 237.73,-53.95 268.72,-41.95 297.57,-34.02"/>
<polygon fill="black" stroke="black" points="298.24,-37.46 307.03,-31.55 296.47,-30.68 298.24,-37.46"/>
</g>
<!-- hpp&#45;manipulation&#45;urdf&#45;&gt;hpp&#45;manipulation&#45;corba -->
<g id="edge13" class="edge">
<title>hpp&#45;manipulation&#45;urdf&#45;&gt;hpp&#45;manipulation&#45;corba</title>
<path fill="none" stroke="black" d="M203.51,-145.29C238.34,-134.87 284.26,-121.14 321.2,-110.09"/>
<polygon fill="black" stroke="black" points="321.82,-113.55 330.4,-107.33 319.82,-106.85 321.82,-113.55"/>
</g>
<!-- hpp&#45;manipulation&#45;&gt;hpp&#45;gepetto&#45;viewer -->
<g id="edge14" class="edge">
<title>hpp&#45;manipulation&#45;&gt;hpp&#45;gepetto&#45;viewer</title>
<path fill="none" stroke="black" d="M301.26,-215.57C299.8,-196.83 295.53,-166.68 283,-144 271.91,-123.92 254.93,-129.14 246,-108 239.78,-93.26 236.92,-85.18 246,-72 258.11,-54.42 276.89,-42.67 296.77,-34.81"/>
<polygon fill="black" stroke="black" points="297.9,-38.13 306.13,-31.46 295.54,-31.54 297.9,-38.13"/>
</g>
<!-- hpp&#45;manipulation&#45;&gt;hpp&#45;manipulation&#45;urdf -->
<g id="edge15" class="edge">
<title>hpp&#45;manipulation&#45;&gt;hpp&#45;manipulation&#45;urdf</title>
<path fill="none" stroke="black" d="M266.98,-216.76C246.22,-207.14 219.67,-194.83 197.2,-184.42"/>
<polygon fill="black" stroke="black" points="198.8,-181.3 188.25,-180.27 195.85,-187.65 198.8,-181.3"/>
</g>
<!-- hpp&#45;manipulation&#45;&gt;hpp&#45;manipulation&#45;corba -->
<g id="edge16" class="edge">
<title>hpp&#45;manipulation&#45;&gt;hpp&#45;manipulation&#45;corba</title>
<path fill="none" stroke="black" d="M312.01,-215.87C326.22,-191.56 352.37,-146.82 369.21,-118.01"/>
<polygon fill="black" stroke="black" points="372.16,-119.9 374.19,-109.5 366.12,-116.36 372.16,-119.9"/>
</g>
<!-- hpp&#45;manipulation&#45;corba&#45;&gt;hpp&#45;gepetto&#45;viewer -->
<g id="edge17" class="edge">
<title>hpp&#45;manipulation&#45;corba&#45;&gt;hpp&#45;gepetto&#45;viewer</title>
<path fill="none" stroke="black" d="M385,-71.7C385,-64.41 385,-55.73 385,-47.54"/>
<polygon fill="black" stroke="black" points="388.5,-47.62 385,-37.62 381.5,-47.62 388.5,-47.62"/>
</g>
<!-- hpp&#45;constraints -->
<g id="node14" class="node">
<title>hpp&#45;constraints</title>
<g id="a_node14"><a xlink:href="https://github.com/conda-forge/hpp-constraints-feedstock" xlink:title="hpp constraints">
<ellipse fill="#fde725" stroke="black" cx="274" cy="-378" rx="89.61" ry="18"/>
<text xml:space="preserve" text-anchor="middle" x="274" y="-373.32" font-family="Times,serif" font-size="14.00">hpp constraints</text>
</a>
</g>
</g>
<!-- hpp&#45;constraints&#45;&gt;hpp&#45;gepetto&#45;viewer -->
<g id="edge18" class="edge">
<title>hpp&#45;constraints&#45;&gt;hpp&#45;gepetto&#45;viewer</title>
<path fill="none" stroke="black" d="M356.24,-370.6C392.56,-363.9 433.4,-350.51 462,-324 536.97,-254.51 523.17,-208.65 541,-108 543.79,-92.25 550.32,-85.01 541,-72 527.12,-52.63 505.76,-40.25 483.25,-32.37"/>
<polygon fill="black" stroke="black" points="484.52,-29.1 473.93,-29.41 482.4,-35.78 484.52,-29.1"/>
</g>
<!-- hpp&#45;constraints&#45;&gt;hpp&#45;core -->
<g id="edge19" class="edge">
<title>hpp&#45;constraints&#45;&gt;hpp&#45;core</title>
<path fill="none" stroke="black" d="M298.19,-360.23C311.69,-350.88 328.67,-339.11 343.23,-329.02"/>
<polygon fill="black" stroke="black" points="344.92,-332.11 351.15,-323.53 340.93,-326.35 344.92,-332.11"/>
</g>
<!-- hpp&#45;constraints&#45;&gt;hpp&#45;manipulation&#45;urdf -->
<g id="edge20" class="edge">
<title>hpp&#45;constraints&#45;&gt;hpp&#45;manipulation&#45;urdf</title>
<path fill="none" stroke="black" d="M253.7,-360.34C228.44,-338.36 186.06,-297.14 165,-252 156.14,-233.02 152.72,-209.55 151.47,-191.48"/>
<polygon fill="black" stroke="black" points="154.98,-191.54 151,-181.73 147.99,-191.89 154.98,-191.54"/>
</g>
<!-- hpp&#45;constraints&#45;&gt;hpp&#45;manipulation -->
<g id="edge21" class="edge">
<title>hpp&#45;constraints&#45;&gt;hpp&#45;manipulation</title>
<path fill="none" stroke="black" d="M277.43,-359.59C282.18,-335.5 290.81,-291.75 296.47,-263.03"/>
<polygon fill="black" stroke="black" points="299.83,-264.08 298.33,-253.6 292.96,-262.73 299.83,-264.08"/>
</g>
<!-- hpp&#45;constraints&#45;&gt;hpp&#45;manipulation&#45;corba -->
<g id="edge22" class="edge">
<title>hpp&#45;constraints&#45;&gt;hpp&#45;manipulation&#45;corba</title>
<path fill="none" stroke="black" d="M356.48,-370.67C387.5,-363.79 419.86,-350.26 439,-324 458.03,-297.9 476.48,-283.4 423,-144 419.39,-134.58 413.68,-125.29 407.78,-117.19"/>
<polygon fill="black" stroke="black" points="410.7,-115.24 401.81,-109.48 405.17,-119.53 410.7,-115.24"/>
</g>
<!-- hpp&#45;pinocchio -->
<g id="node15" class="node">
<title>hpp&#45;pinocchio</title>
<g id="a_node15"><a xlink:href="https://github.com/conda-forge/hpp-pinocchio-feedstock" xlink:title="hpp pinocchio">
<ellipse fill="#35b779" stroke="black" cx="219" cy="-450" rx="80.67" ry="18"/>
<text xml:space="preserve" text-anchor="middle" x="219" y="-445.32" font-family="Times,serif" font-size="14.00">hpp pinocchio</text>
</a>
</g>
</g>
<!-- hpp&#45;pinocchio&#45;&gt;hpp&#45;gepetto&#45;viewer -->
<g id="edge23" class="edge">
<title>hpp&#45;pinocchio&#45;&gt;hpp&#45;gepetto&#45;viewer</title>
<path fill="none" stroke="black" d="M160.02,-437.41C95.16,-420.82 0,-383.47 0,-307 0,-307 0,-307 0,-161 0,-97.91 184.26,-54.15 297.83,-33.17"/>
<polygon fill="black" stroke="black" points="298.24,-36.66 307.45,-31.42 296.98,-29.77 298.24,-36.66"/>
</g>
<!-- hpp&#45;pinocchio&#45;&gt;hpp&#45;core -->
<g id="edge24" class="edge">
<title>hpp&#45;pinocchio&#45;&gt;hpp&#45;core</title>
<path fill="none" stroke="black" d="M291.83,-442.01C321.94,-435.15 354.15,-421.8 373,-396 385.55,-378.82 385.18,-354.39 382.16,-335.46"/>
<polygon fill="black" stroke="black" points="385.61,-334.86 380.25,-325.72 378.74,-336.21 385.61,-334.86"/>
</g>
<!-- hpp&#45;pinocchio&#45;&gt;hpp&#45;manipulation&#45;urdf -->
<g id="edge25" class="edge">
<title>hpp&#45;pinocchio&#45;&gt;hpp&#45;manipulation&#45;urdf</title>
<path fill="none" stroke="black" d="M196.72,-432.32C185.87,-422.91 173.74,-410.21 167,-396 134.98,-328.56 140.74,-237.6 146.5,-191.84"/>
<polygon fill="black" stroke="black" points="149.97,-192.33 147.85,-181.95 143.03,-191.38 149.97,-192.33"/>
</g>
<!-- hpp&#45;pinocchio&#45;&gt;hpp&#45;manipulation -->
<g id="edge26" class="edge">
<title>hpp&#45;pinocchio&#45;&gt;hpp&#45;manipulation</title>
<path fill="none" stroke="black" d="M199.99,-432.38C190.52,-422.82 180.04,-409.95 175,-396 169.57,-380.95 168.82,-374.76 175,-360 193.31,-316.3 235.16,-280.15 265.84,-258.15"/>
<polygon fill="black" stroke="black" points="267.52,-261.25 273.72,-252.65 263.52,-255.51 267.52,-261.25"/>
</g>
<!-- hpp&#45;pinocchio&#45;&gt;hpp&#45;manipulation&#45;corba -->
<g id="edge27" class="edge">
<title>hpp&#45;pinocchio&#45;&gt;hpp&#45;manipulation&#45;corba</title>
<path fill="none" stroke="black" d="M283.02,-438.77C344.21,-424.96 431.51,-393.51 462,-324 494.32,-250.33 486.4,-211.73 443,-144 436.25,-133.47 426.9,-123.68 417.67,-115.46"/>
<polygon fill="black" stroke="black" points="420,-112.84 410.1,-109.06 415.48,-118.19 420,-112.84"/>
</g>
<!-- hpp&#45;pinocchio&#45;&gt;hpp&#45;constraints -->
<g id="edge28" class="edge">
<title>hpp&#45;pinocchio&#45;&gt;hpp&#45;constraints</title>
<path fill="none" stroke="black" d="M232.31,-432.05C238.64,-424.01 246.34,-414.2 253.39,-405.23"/>
<polygon fill="black" stroke="black" points="256.07,-407.49 259.49,-397.47 250.56,-403.17 256.07,-407.49"/>
</g>
<!-- open3d -->
<g id="node18" class="node">
<title>open3d</title>
<g id="a_node18"><a xlink:href="https://github.com/conda-forge/open3d-feedstock" xlink:title="open3d">
<ellipse fill="#35b779" stroke="black" cx="1446" cy="-198" rx="48.05" ry="18"/>
<text xml:space="preserve" text-anchor="middle" x="1446" y="-193.32" font-family="Times,serif" font-size="14.00">open3d</text>
</a>
</g>
</g>
<!-- qt&#45;3d&#45;&gt;open3d -->
<!-- gz&#45;common -->
<g id="node17" class="node">
<title>gz&#45;common</title>
<g id="a_node17"><a xlink:href="https://github.com/conda-forge/gz-common-feedstock/pull/82" xlink:title="gz common ❎">
<ellipse fill="#31688e" stroke="black" cx="904" cy="-306" rx="83.3" ry="18"/>
<text xml:space="preserve" text-anchor="middle" x="904" y="-301.32" font-family="Times,serif" font-size="14.00" fill="white">gz common ❎</text>
</a>
</g>
</g>
<!-- gz&#45;common&#45;&gt;gz&#45;physics -->
<g id="edge30" class="edge">
<title>gz&#45;common&#45;&gt;gz&#45;physics</title>
<path fill="none" stroke="black" d="M904,-287.7C904,-280.41 904,-271.73 904,-263.54"/>
<polygon fill="black" stroke="black" points="907.5,-263.62 904,-253.62 900.5,-263.62 907.5,-263.62"/>
</g>
<!-- vsgxchange -->
<g id="node19" class="node">
<title>vsgxchange</title>
<g id="a_node19"><a xlink:href="https://github.com/conda-forge/vsgxchange-feedstock" xlink:title="vsgxchange">
<ellipse fill="#35b779" stroke="black" cx="1446" cy="-126" rx="70.15" ry="18"/>
<text xml:space="preserve" text-anchor="middle" x="1446" y="-121.33" font-family="Times,serif" font-size="14.00">vsgxchange</text>
</a>
</g>
</g>
<!-- open3d&#45;&gt;vsgxchange -->
<!-- candlewick -->
<g id="node20" class="node">
<title>candlewick</title>
<g id="a_node20"><a xlink:href="https://github.com/conda-forge/candlewick-feedstock" xlink:title="candlewick">
<ellipse fill="#35b779" stroke="black" cx="1446" cy="-54" rx="66.47" ry="18"/>
<text xml:space="preserve" text-anchor="middle" x="1446" y="-49.33" font-family="Times,serif" font-size="14.00">candlewick</text>
</a>
</g>
</g>
<!-- vsgxchange&#45;&gt;candlewick -->
</g>
</svg>
