<?xml version="1.0" encoding="UTF-8" standalone="no"?>
<!DOCTYPE svg PUBLIC "-//W3C//DTD SVG 1.1//EN"
 "http://www.w3.org/Graphics/SVG/1.1/DTD/svg11.dtd">
<!-- Generated by graphviz version 12.0.0 (20240803.0821)
 -->
<!-- Pages: 1 -->
<svg width="1531pt" height="548pt"
 viewBox="0.00 0.00 1531.30 548.00" xmlns="http://www.w3.org/2000/svg" xmlns:xlink="http://www.w3.org/1999/xlink">
<g id="graph0" class="graph" transform="scale(1 1) rotate(0) translate(4 544)">
<polygon fill="white" stroke="none" points="-4,4 -4,-544 1527.3,-544 1527.3,4 -4,4"/>
<!-- hpp&#45;fcl -->
<g id="node1" class="node">
<title>hpp&#45;fcl</title>
<g id="a_node1"><a xlink:href="https://github.com/conda-forge/hpp-fcl-feedstock/pull/124" xlink:title="hpp fcl ❎">
<ellipse fill="#31688e" stroke="black" cx="449.83" cy="-522" rx="60.68" ry="18"/>
<text text-anchor="middle" x="449.83" y="-517.33" font-family="Times,serif" font-size="14.00" fill="white">hpp fcl ❎</text>
</a>
</g>
</g>
<!-- hpp&#45;core -->
<g id="node2" class="node">
<title>hpp&#45;core</title>
<g id="a_node2"><a xlink:href="https://github.com/conda-forge/hpp-core-feedstock" xlink:title="hpp core">
<ellipse fill="#fde725" stroke="black" cx="431.83" cy="-306" rx="54.89" ry="18"/>
<text text-anchor="middle" x="431.83" y="-301.32" font-family="Times,serif" font-size="14.00">hpp core</text>
</a>
</g>
</g>
<!-- hpp&#45;fcl&#45;&gt;hpp&#45;core -->
<g id="edge1" class="edge">
<title>hpp&#45;fcl&#45;&gt;hpp&#45;core</title>
<path fill="none" stroke="black" d="M465.07,-504.24C472.93,-494.44 481.71,-481.4 485.83,-468 490.53,-452.71 489.07,-447.67 485.83,-432 478.49,-396.51 460.58,-358.69 447.38,-334.07"/>
<polygon fill="black" stroke="black" points="450.49,-332.46 442.61,-325.38 444.36,-335.83 450.49,-332.46"/>
</g>
<!-- hpp&#45;manipulation&#45;urdf -->
<g id="node3" class="node">
<title>hpp&#45;manipulation&#45;urdf</title>
<g id="a_node3"><a xlink:href="https://github.com/conda-forge/hpp-manipulation-urdf-feedstock" xlink:title="hpp manipulation urdf">
<ellipse fill="#fde725" stroke="black" cx="325.83" cy="-162" rx="123.29" ry="18"/>
<text text-anchor="middle" x="325.83" y="-157.32" font-family="Times,serif" font-size="14.00">hpp manipulation urdf</text>
</a>
</g>
</g>
<!-- hpp&#45;fcl&#45;&gt;hpp&#45;manipulation&#45;urdf -->
<g id="edge2" class="edge">
<title>hpp&#45;fcl&#45;&gt;hpp&#45;manipulation&#45;urdf</title>
<path fill="none" stroke="black" d="M471.8,-504.97C482.76,-495.58 494.91,-482.69 500.83,-468 515.34,-431.99 546.68,-384.33 495.83,-288 470.11,-239.27 415.93,-204.65 375.61,-184.39"/>
<polygon fill="black" stroke="black" points="377.31,-181.32 366.78,-180.08 374.24,-187.61 377.31,-181.32"/>
</g>
<!-- hpp&#45;manipulation -->
<g id="node4" class="node">
<title>hpp&#45;manipulation</title>
<g id="a_node4"><a xlink:href="https://github.com/conda-forge/hpp-manipulation-feedstock" xlink:title="hpp manipulation">
<ellipse fill="#fde725" stroke="black" cx="139.83" cy="-234" rx="99.08" ry="18"/>
<text text-anchor="middle" x="139.83" y="-229.32" font-family="Times,serif" font-size="14.00">hpp manipulation</text>
</a>
</g>
</g>
<!-- hpp&#45;fcl&#45;&gt;hpp&#45;manipulation -->
<g id="edge3" class="edge">
<title>hpp&#45;fcl&#45;&gt;hpp&#45;manipulation</title>
<path fill="none" stroke="black" d="M392.07,-516.06C319.61,-506.46 197.83,-478.29 139.83,-396 112.2,-356.79 121.61,-297.81 130.82,-263.18"/>
<polygon fill="black" stroke="black" points="134.09,-264.46 133.47,-253.88 127.36,-262.54 134.09,-264.46"/>
</g>
<!-- hpp&#45;constraints -->
<g id="node5" class="node">
<title>hpp&#45;constraints</title>
<g id="a_node5"><a xlink:href="https://github.com/conda-forge/hpp-constraints-feedstock" xlink:title="hpp constraints">
<ellipse fill="#fde725" stroke="black" cx="262.83" cy="-378" rx="89.61" ry="18"/>
<text text-anchor="middle" x="262.83" y="-373.32" font-family="Times,serif" font-size="14.00">hpp constraints</text>
</a>
</g>
</g>
<!-- hpp&#45;fcl&#45;&gt;hpp&#45;constraints -->
<g id="edge4" class="edge">
<title>hpp&#45;fcl&#45;&gt;hpp&#45;constraints</title>
<path fill="none" stroke="black" d="M398.5,-512.12C368.5,-504.67 331.58,-491.36 305.83,-468 288.06,-451.88 276.88,-426.83 270.39,-407.41"/>
<polygon fill="black" stroke="black" points="273.74,-406.43 267.46,-397.9 267.05,-408.49 273.74,-406.43"/>
</g>
<!-- hpp&#45;pinocchio -->
<g id="node6" class="node">
<title>hpp&#45;pinocchio</title>
<g id="a_node6"><a xlink:href="https://github.com/conda-forge/hpp-pinocchio-feedstock" xlink:title="hpp pinocchio">
<ellipse fill="#fde725" stroke="black" cx="395.83" cy="-450" rx="80.67" ry="18"/>
<text text-anchor="middle" x="395.83" y="-445.32" font-family="Times,serif" font-size="14.00">hpp pinocchio</text>
</a>
</g>
</g>
<!-- hpp&#45;fcl&#45;&gt;hpp&#45;pinocchio -->
<g id="edge5" class="edge">
<title>hpp&#45;fcl&#45;&gt;hpp&#45;pinocchio</title>
<path fill="none" stroke="black" d="M436.76,-504.05C430.46,-495.89 422.76,-485.91 415.75,-476.82"/>
<polygon fill="black" stroke="black" points="418.59,-474.77 409.71,-468.99 413.04,-479.04 418.59,-474.77"/>
</g>
<!-- hpp&#45;manipulation&#45;corba -->
<g id="node7" class="node">
<title>hpp&#45;manipulation&#45;corba</title>
<g id="a_node7"><a xlink:href="https://github.com/conda-forge/hpp-manipulation-corba-feedstock" xlink:title="hpp manipulation corba">
<ellipse fill="#fde725" stroke="black" cx="394.83" cy="-90" rx="130.13" ry="18"/>
<text text-anchor="middle" x="394.83" y="-85.33" font-family="Times,serif" font-size="14.00">hpp manipulation corba</text>
</a>
</g>
</g>
<!-- hpp&#45;fcl&#45;&gt;hpp&#45;manipulation&#45;corba -->
<g id="edge6" class="edge">
<title>hpp&#45;fcl&#45;&gt;hpp&#45;manipulation&#45;corba</title>
<path fill="none" stroke="black" d="M491.35,-508.52C544.22,-489.75 628.83,-448.81 628.83,-379 628.83,-379 628.83,-379 628.83,-305 628.83,-207.73 517.37,-142.79 448.3,-111.89"/>
<polygon fill="black" stroke="black" points="449.97,-108.8 439.41,-108 447.17,-115.21 449.97,-108.8"/>
</g>
<!-- hpp&#45;core&#45;&gt;hpp&#45;manipulation&#45;urdf -->
<g id="edge7" class="edge">
<title>hpp&#45;core&#45;&gt;hpp&#45;manipulation&#45;urdf</title>
<path fill="none" stroke="black" d="M419.25,-288.15C401.02,-263.73 367.08,-218.26 345.52,-189.38"/>
<polygon fill="black" stroke="black" points="348.41,-187.4 339.63,-181.48 342.8,-191.59 348.41,-187.4"/>
</g>
<!-- hpp&#45;core&#45;&gt;hpp&#45;manipulation -->
<g id="edge8" class="edge">
<title>hpp&#45;core&#45;&gt;hpp&#45;manipulation</title>
<path fill="none" stroke="black" d="M388.43,-294.6C341.17,-283.27 264.89,-264.98 209.28,-251.65"/>
<polygon fill="black" stroke="black" points="210.11,-248.25 199.57,-249.32 208.48,-255.06 210.11,-248.25"/>
</g>
<!-- hpp&#45;core&#45;&gt;hpp&#45;manipulation&#45;corba -->
<g id="edge9" class="edge">
<title>hpp&#45;core&#45;&gt;hpp&#45;manipulation&#45;corba</title>
<path fill="none" stroke="black" d="M440.65,-288.14C455.22,-257.83 480.53,-192.77 457.83,-144 452.52,-132.59 443.41,-122.76 433.74,-114.77"/>
<polygon fill="black" stroke="black" points="436.08,-112.15 426,-108.88 431.84,-117.72 436.08,-112.15"/>
</g>
<!-- hpp&#45;gepetto&#45;viewer -->
<g id="node8" class="node">
<title>hpp&#45;gepetto&#45;viewer</title>
<g id="a_node8"><a xlink:href="https://github.com/conda-forge/hpp-gepetto-viewer-feedstock" xlink:title="hpp gepetto viewer">
<ellipse fill="#fde725" stroke="black" cx="394.83" cy="-18" rx="108.55" ry="18"/>
<text text-anchor="middle" x="394.83" y="-13.32" font-family="Times,serif" font-size="14.00">hpp gepetto viewer</text>
</a>
</g>
</g>
<!-- hpp&#45;core&#45;&gt;hpp&#45;gepetto&#45;viewer -->
<g id="edge10" class="edge">
<title>hpp&#45;core&#45;&gt;hpp&#45;gepetto&#45;viewer</title>
<path fill="none" stroke="black" d="M449.68,-288.67C490.75,-249.08 584.69,-145.82 533.83,-72 521.72,-54.42 502.94,-42.67 483.06,-34.81"/>
<polygon fill="black" stroke="black" points="484.29,-31.54 473.7,-31.46 481.93,-38.13 484.29,-31.54"/>
</g>
<!-- hpp&#45;manipulation&#45;urdf&#45;&gt;hpp&#45;manipulation&#45;corba -->
<g id="edge11" class="edge">
<title>hpp&#45;manipulation&#45;urdf&#45;&gt;hpp&#45;manipulation&#45;corba</title>
<path fill="none" stroke="black" d="M342.89,-143.7C351.08,-135.39 361.04,-125.28 370.05,-116.14"/>
<polygon fill="black" stroke="black" points="372.38,-118.76 376.91,-109.18 367.4,-113.85 372.38,-118.76"/>
</g>
<!-- hpp&#45;manipulation&#45;urdf&#45;&gt;hpp&#45;gepetto&#45;viewer -->
<g id="edge12" class="edge">
<title>hpp&#45;manipulation&#45;urdf&#45;&gt;hpp&#45;gepetto&#45;viewer</title>
<path fill="none" stroke="black" d="M291.88,-144.3C278.04,-135.56 263.5,-123.42 255.83,-108 248.71,-93.67 246.75,-85.18 255.83,-72 267.94,-54.42 286.72,-42.67 306.6,-34.81"/>
<polygon fill="black" stroke="black" points="307.73,-38.13 315.96,-31.46 305.37,-31.54 307.73,-38.13"/>
</g>
<!-- hpp&#45;manipulation&#45;&gt;hpp&#45;manipulation&#45;urdf -->
<g id="edge13" class="edge">
<title>hpp&#45;manipulation&#45;&gt;hpp&#45;manipulation&#45;urdf</title>
<path fill="none" stroke="black" d="M181.57,-217.29C208.26,-207.25 243.14,-194.12 271.91,-183.29"/>
<polygon fill="black" stroke="black" points="273.07,-186.6 281.2,-179.8 270.6,-180.04 273.07,-186.6"/>
</g>
<!-- hpp&#45;manipulation&#45;&gt;hpp&#45;manipulation&#45;corba -->
<g id="edge14" class="edge">
<title>hpp&#45;manipulation&#45;&gt;hpp&#45;manipulation&#45;corba</title>
<path fill="none" stroke="black" d="M138.86,-215.69C138.73,-195.62 141.77,-162.89 160.83,-144 179.2,-125.8 234.8,-112.78 287.19,-104.21"/>
<polygon fill="black" stroke="black" points="287.48,-107.7 296.81,-102.68 286.39,-100.79 287.48,-107.7"/>
</g>
<!-- hpp&#45;manipulation&#45;&gt;hpp&#45;gepetto&#45;viewer -->
<g id="edge15" class="edge">
<title>hpp&#45;manipulation&#45;&gt;hpp&#45;gepetto&#45;viewer</title>
<path fill="none" stroke="black" d="M135.31,-215.8C131.35,-196.99 127.9,-166.53 139.83,-144 172.8,-81.76 248.38,-50.06 308.75,-34.19"/>
<polygon fill="black" stroke="black" points="309.52,-37.61 318.36,-31.78 307.81,-30.82 309.52,-37.61"/>
</g>
<!-- hpp&#45;constraints&#45;&gt;hpp&#45;core -->
<g id="edge16" class="edge">
<title>hpp&#45;constraints&#45;&gt;hpp&#45;core</title>
<path fill="none" stroke="black" d="M300.76,-361.29C326.7,-350.54 361.17,-336.27 388.25,-325.05"/>
<polygon fill="black" stroke="black" points="389.3,-328.4 397.2,-321.34 386.62,-321.94 389.3,-328.4"/>
</g>
<!-- hpp&#45;constraints&#45;&gt;hpp&#45;manipulation&#45;urdf -->
<g id="edge17" class="edge">
<title>hpp&#45;constraints&#45;&gt;hpp&#45;manipulation&#45;urdf</title>
<path fill="none" stroke="black" d="M268.91,-359.89C272.51,-349.55 277.1,-336.07 280.83,-324 295.11,-277.82 309.86,-223.59 318.42,-191.32"/>
<polygon fill="black" stroke="black" points="321.72,-192.51 320.89,-181.95 314.96,-190.72 321.72,-192.51"/>
</g>
<!-- hpp&#45;constraints&#45;&gt;hpp&#45;manipulation -->
<g id="edge18" class="edge">
<title>hpp&#45;constraints&#45;&gt;hpp&#45;manipulation</title>
<path fill="none" stroke="black" d="M249.98,-359.85C236.13,-341.61 213.19,-312.12 191.83,-288 183.41,-278.49 173.77,-268.45 165.1,-259.7"/>
<polygon fill="black" stroke="black" points="167.77,-257.42 158.22,-252.83 162.82,-262.37 167.77,-257.42"/>
</g>
<!-- hpp&#45;constraints&#45;&gt;hpp&#45;manipulation&#45;corba -->
<g id="edge19" class="edge">
<title>hpp&#45;constraints&#45;&gt;hpp&#45;manipulation&#45;corba</title>
<path fill="none" stroke="black" d="M265.8,-359.55C270.18,-328.3 275.15,-261.81 247.83,-216 233.05,-191.23 207.44,-205.43 193.83,-180 186.28,-165.89 184.06,-156.67 193.83,-144 206.95,-126.97 251.4,-114.31 295.18,-105.64"/>
<polygon fill="black" stroke="black" points="295.62,-109.12 304.78,-103.81 294.31,-102.25 295.62,-109.12"/>
</g>
<!-- hpp&#45;constraints&#45;&gt;hpp&#45;gepetto&#45;viewer -->
<g id="edge20" class="edge">
<title>hpp&#45;constraints&#45;&gt;hpp&#45;gepetto&#45;viewer</title>
<path fill="none" stroke="black" d="M203.73,-364.1C125.24,-343.61 0,-297.38 31.83,-216 63.57,-134.86 89.48,-115.73 164.83,-72 202.82,-49.96 249.31,-37.08 290.52,-29.56"/>
<polygon fill="black" stroke="black" points="290.97,-33.04 300.23,-27.88 289.78,-26.14 290.97,-33.04"/>
</g>
<!-- hpp&#45;pinocchio&#45;&gt;hpp&#45;core -->
<g id="edge21" class="edge">
<title>hpp&#45;pinocchio&#45;&gt;hpp&#45;core</title>
<path fill="none" stroke="black" d="M400.24,-431.59C406.35,-407.5 417.44,-363.75 424.72,-335.03"/>
<polygon fill="black" stroke="black" points="428.06,-336.13 427.12,-325.58 421.27,-334.41 428.06,-336.13"/>
</g>
<!-- hpp&#45;pinocchio&#45;&gt;hpp&#45;manipulation&#45;urdf -->
<g id="edge22" class="edge">
<title>hpp&#45;pinocchio&#45;&gt;hpp&#45;manipulation&#45;urdf</title>
<path fill="none" stroke="black" d="M391.56,-431.54C379.84,-383.66 347.11,-249.95 332.74,-191.24"/>
<polygon fill="black" stroke="black" points="336.18,-190.58 330.41,-181.7 329.39,-192.25 336.18,-190.58"/>
</g>
<!-- hpp&#45;pinocchio&#45;&gt;hpp&#45;manipulation -->
<g id="edge23" class="edge">
<title>hpp&#45;pinocchio&#45;&gt;hpp&#45;manipulation</title>
<path fill="none" stroke="black" d="M324.11,-441.46C264.24,-433.64 185.34,-419.23 163.83,-396 130.62,-360.14 131.33,-299.25 135.28,-263.52"/>
<polygon fill="black" stroke="black" points="138.71,-264.3 136.51,-253.94 131.77,-263.41 138.71,-264.3"/>
</g>
<!-- hpp&#45;pinocchio&#45;&gt;hpp&#45;constraints -->
<g id="edge24" class="edge">
<title>hpp&#45;pinocchio&#45;&gt;hpp&#45;constraints</title>
<path fill="none" stroke="black" d="M365.32,-432.94C347.03,-423.32 323.55,-410.96 303.68,-400.5"/>
<polygon fill="black" stroke="black" points="305.48,-397.49 295,-395.93 302.22,-403.69 305.48,-397.49"/>
</g>
<!-- hpp&#45;pinocchio&#45;&gt;hpp&#45;manipulation&#45;corba -->
<g id="edge25" class="edge">
<title>hpp&#45;pinocchio&#45;&gt;hpp&#45;manipulation&#45;corba</title>
<path fill="none" stroke="black" d="M415.53,-432.41C439.84,-410.5 479.92,-369.37 495.83,-324 512.18,-277.38 513,-202.67 475.83,-144 467.88,-131.44 455.75,-121.24 443.28,-113.25"/>
<polygon fill="black" stroke="black" points="445.43,-110.46 435.04,-108.36 441.85,-116.48 445.43,-110.46"/>
</g>
<!-- hpp&#45;pinocchio&#45;&gt;hpp&#45;gepetto&#45;viewer -->
<g id="edge26" class="edge">
<title>hpp&#45;pinocchio&#45;&gt;hpp&#45;gepetto&#45;viewer</title>
<path fill="none" stroke="black" d="M428.37,-433.3C444.76,-424.16 464.03,-411.41 477.83,-396 576.5,-285.81 640.31,-191.99 553.83,-72 539.66,-52.34 517.87,-39.86 494.93,-31.97"/>
<polygon fill="black" stroke="black" points="496,-28.64 485.41,-29.01 493.92,-35.32 496,-28.64"/>
</g>
<!-- hpp&#45;manipulation&#45;corba&#45;&gt;hpp&#45;gepetto&#45;viewer -->
<g id="edge27" class="edge">
<title>hpp&#45;manipulation&#45;corba&#45;&gt;hpp&#45;gepetto&#45;viewer</title>
<path fill="none" stroke="black" d="M394.83,-71.7C394.83,-64.41 394.83,-55.73 394.83,-47.54"/>
<polygon fill="black" stroke="black" points="398.33,-47.62 394.83,-37.62 391.33,-47.62 398.33,-47.62"/>
</g>
<!-- ogre -->
<g id="node9" class="node">
<title>ogre</title>
<g id="a_node9"><a xlink:href="https://github.com/conda-forge/ogre-feedstock/pull/126" xlink:title="ogre ❎">
<ellipse fill="#31688e" stroke="black" cx="1331.33" cy="-342" rx="49.1" ry="18"/>
<text text-anchor="middle" x="1331.33" y="-337.32" font-family="Times,serif" font-size="14.00" fill="white">ogre ❎</text>
</a>
</g>
</g>
<!-- gazebo -->
<g id="node10" class="node">
<title>gazebo</title>
<g id="a_node10"><a xlink:href="https://github.com/conda-forge/gazebo-feedstock" xlink:title="gazebo">
<ellipse fill="#fde725" stroke="black" cx="1294.33" cy="-270" rx="46.47" ry="18"/>
<text text-anchor="middle" x="1294.33" y="-265.32" font-family="Times,serif" font-size="14.00">gazebo</text>
</a>
</g>
</g>
<!-- ogre&#45;&gt;gazebo -->
<g id="edge28" class="edge">
<title>ogre&#45;&gt;gazebo</title>
<path fill="none" stroke="black" d="M1322.37,-324.05C1318.19,-316.14 1313.12,-306.54 1308.44,-297.69"/>
<polygon fill="black" stroke="black" points="1311.68,-296.33 1303.91,-289.13 1305.49,-299.6 1311.68,-296.33"/>
</g>
<!-- gazebo&#45;yarp&#45;plugins -->
<g id="node11" class="node">
<title>gazebo&#45;yarp&#45;plugins</title>
<g id="a_node11"><a xlink:href="https://github.com/conda-forge/gazebo-yarp-plugins-feedstock" xlink:title="gazebo yarp plugins">
<ellipse fill="#fde725" stroke="black" cx="1294.33" cy="-198" rx="112.24" ry="18"/>
<text text-anchor="middle" x="1294.33" y="-193.32" font-family="Times,serif" font-size="14.00">gazebo yarp plugins</text>
</a>
</g>
</g>
<!-- ogre&#45;&gt;gazebo&#45;yarp&#45;plugins -->
<g id="edge29" class="edge">
<title>ogre&#45;&gt;gazebo&#45;yarp&#45;plugins</title>
<path fill="none" stroke="black" d="M1340.55,-324C1349.21,-305.63 1359.45,-275.79 1349.33,-252 1344.7,-241.11 1336.61,-231.37 1328.04,-223.3"/>
<polygon fill="black" stroke="black" points="1330.41,-220.72 1320.57,-216.81 1325.82,-226.01 1330.41,-220.72"/>
</g>
<!-- gazebo&#45;&gt;gazebo&#45;yarp&#45;plugins -->
<g id="edge30" class="edge">
<title>gazebo&#45;&gt;gazebo&#45;yarp&#45;plugins</title>
<path fill="none" stroke="black" d="M1294.33,-251.7C1294.33,-244.41 1294.33,-235.73 1294.33,-227.54"/>
<polygon fill="black" stroke="black" points="1297.83,-227.62 1294.33,-217.62 1290.83,-227.62 1297.83,-227.62"/>
</g>
<!-- libignition&#45;physics -->
<g id="node12" class="node">
<title>libignition&#45;physics</title>
<g id="a_node12"><a xlink:href="https://github.com/conda-forge/libignition-physics-feedstock" xlink:title="libignition physics">
<ellipse fill="#fde725" stroke="black" cx="1127.33" cy="-270" rx="102.77" ry="18"/>
<text text-anchor="middle" x="1127.33" y="-265.32" font-family="Times,serif" font-size="14.00">libignition physics</text>
</a>
</g>
</g>
<!-- dartsim -->
<g id="node13" class="node">
<title>dartsim</title>
<g id="a_node13"><a xlink:href="https://github.com/conda-forge/dartsim-feedstock" xlink:title="dartsim">
<ellipse fill="#35b779" stroke="black" cx="1084.33" cy="-342" rx="50.16" ry="18"/>
<text text-anchor="middle" x="1084.33" y="-337.32" font-family="Times,serif" font-size="14.00">dartsim</text>
</a>
</g>
</g>
<!-- dartsim&#45;&gt;gazebo -->
<g id="edge31" class="edge">
<title>dartsim&#45;&gt;gazebo</title>
<path fill="none" stroke="black" d="M1119.96,-329.13C1155.68,-317.22 1210.8,-298.84 1249.48,-285.95"/>
<polygon fill="black" stroke="black" points="1250.11,-289.43 1258.49,-282.95 1247.9,-282.79 1250.11,-289.43"/>
</g>
<!-- dartsim&#45;&gt;gazebo&#45;yarp&#45;plugins -->
<g id="edge32" class="edge">
<title>dartsim&#45;&gt;gazebo&#45;yarp&#45;plugins</title>
<path fill="none" stroke="black" d="M1055.18,-326.87C1040.32,-317.97 1023.68,-304.94 1015.33,-288 1008.26,-273.65 1005.13,-264.32 1015.33,-252 1036.44,-226.5 1112.16,-213.17 1179.4,-206.26"/>
<polygon fill="black" stroke="black" points="1179.42,-209.77 1189.03,-205.31 1178.74,-202.81 1179.42,-209.77"/>
</g>
<!-- dartsim&#45;&gt;libignition&#45;physics -->
<g id="edge33" class="edge">
<title>dartsim&#45;&gt;libignition&#45;physics</title>
<path fill="none" stroke="black" d="M1094.74,-324.05C1099.53,-316.26 1105.33,-306.82 1110.7,-298.08"/>
<polygon fill="black" stroke="black" points="1113.68,-299.92 1115.93,-289.56 1107.71,-296.25 1113.68,-299.92"/>
</g>
<!-- gz&#45;physics -->
<g id="node14" class="node">
<title>gz&#45;physics</title>
<g id="a_node14"><a xlink:href="https://github.com/conda-forge/gz-physics-feedstock" xlink:title="gz physics">
<ellipse fill="#fde725" stroke="black" cx="905.33" cy="-270" rx="63.31" ry="18"/>
<text text-anchor="middle" x="905.33" y="-265.32" font-family="Times,serif" font-size="14.00">gz physics</text>
</a>
</g>
</g>
<!-- dartsim&#45;&gt;gz&#45;physics -->
<g id="edge34" class="edge">
<title>dartsim&#45;&gt;gz&#45;physics</title>
<path fill="none" stroke="black" d="M1051.5,-328.16C1023.69,-317.29 983.49,-301.56 952.28,-289.36"/>
<polygon fill="black" stroke="black" points="953.65,-286.14 943.06,-285.75 951.1,-292.66 953.65,-286.14"/>
</g>
<!-- gepetto&#45;viewer -->
<g id="node15" class="node">
<title>gepetto&#45;viewer</title>
<g id="a_node15"><a xlink:href="https://github.com/conda-forge/gepetto-viewer-feedstock" xlink:title="gepetto viewer">
<ellipse fill="#35b779" stroke="black" cx="742.83" cy="-90" rx="86.46" ry="18"/>
<text text-anchor="middle" x="742.83" y="-85.33" font-family="Times,serif" font-size="14.00">gepetto viewer</text>
</a>
</g>
</g>
<!-- gepetto&#45;viewer&#45;&gt;hpp&#45;gepetto&#45;viewer -->
<g id="edge35" class="edge">
<title>gepetto&#45;viewer&#45;&gt;hpp&#45;gepetto&#45;viewer</title>
<path fill="none" stroke="black" d="M682.21,-76.81C624.25,-65.15 536.57,-47.51 473.3,-34.78"/>
<polygon fill="black" stroke="black" points="474.16,-31.39 463.66,-32.85 472.78,-38.25 474.16,-31.39"/>
</g>
<!-- panda3d -->
<g id="node16" class="node">
<title>panda3d</title>
<g id="a_node16"><a xlink:href="https://github.com/conda-forge/panda3d-feedstock" xlink:title="panda3d">
<ellipse fill="#35b779" stroke="black" cx="1468.93" cy="-378" rx="54.36" ry="18"/>
<text text-anchor="middle" x="1468.93" y="-373.32" font-family="Times,serif" font-size="14.00">panda3d</text>
</a>
</g>
</g>
<!-- idyntree -->
<g id="node17" class="node">
<title>idyntree</title>
<g id="a_node17"><a xlink:href="https://github.com/conda-forge/idyntree-feedstock" xlink:title="idyntree">
<ellipse fill="#35b779" stroke="black" cx="1468.93" cy="-306" rx="53.31" ry="18"/>
<text text-anchor="middle" x="1468.93" y="-301.32" font-family="Times,serif" font-size="14.00">idyntree</text>
</a>
</g>
</g>
<!-- panda3d&#45;&gt;idyntree -->
<!-- qt&#45;3d -->
<g id="node18" class="node">
<title>qt&#45;3d</title>
<g id="a_node18"><a xlink:href="https://github.com/conda-forge/qt-3d-feedstock" xlink:title="qt 3d">
<ellipse fill="#35b779" stroke="black" cx="1468.93" cy="-234" rx="37.53" ry="18"/>
<text text-anchor="middle" x="1468.93" y="-229.32" font-family="Times,serif" font-size="14.00">qt 3d</text>
</a>
</g>
</g>
<!-- idyntree&#45;&gt;qt&#45;3d -->
<!-- open3d -->
<g id="node20" class="node">
<title>open3d</title>
<g id="a_node20"><a xlink:href="https://github.com/conda-forge/open3d-feedstock" xlink:title="open3d">
<ellipse fill="#35b779" stroke="black" cx="1468.93" cy="-162" rx="48.05" ry="18"/>
<text text-anchor="middle" x="1468.93" y="-157.32" font-family="Times,serif" font-size="14.00">open3d</text>
</a>
</g>
</g>
<!-- qt&#45;3d&#45;&gt;open3d -->
<!-- gz&#45;common -->
<g id="node19" class="node">
<title>gz&#45;common</title>
<g id="a_node19"><a xlink:href="https://github.com/conda-forge/gz-common-feedstock" xlink:title="gz common">
<ellipse fill="#35b779" stroke="black" cx="905.33" cy="-342" rx="68.04" ry="18"/>
<text text-anchor="middle" x="905.33" y="-337.32" font-family="Times,serif" font-size="14.00">gz common</text>
</a>
</g>
</g>
<!-- gz&#45;common&#45;&gt;gz&#45;physics -->
<g id="edge38" class="edge">
<title>gz&#45;common&#45;&gt;gz&#45;physics</title>
<path fill="none" stroke="black" d="M905.33,-323.7C905.33,-316.41 905.33,-307.73 905.33,-299.54"/>
<polygon fill="black" stroke="black" points="908.83,-299.62 905.33,-289.62 901.83,-299.62 908.83,-299.62"/>
</g>
</g>
</svg>
