<?xml version="1.0" encoding="UTF-8" standalone="no"?>
<!DOCTYPE svg PUBLIC "-//W3C//DTD SVG 1.1//EN"
 "http://www.w3.org/Graphics/SVG/1.1/DTD/svg11.dtd">
<!-- Generated by graphviz version 13.1.2 (20250809.0930)
 -->
<!-- Pages: 1 -->
<svg width="777pt" height="188pt"
 viewBox="0.00 0.00 777.00 188.00" xmlns="http://www.w3.org/2000/svg" xmlns:xlink="http://www.w3.org/1999/xlink">
<g id="graph0" class="graph" transform="scale(1 1) rotate(0) translate(4 184)">
<polygon fill="white" stroke="none" points="-4,4 -4,-184 772.69,-184 772.69,4 -4,4"/>
<!-- hpp&#45;manipulation&#45;urdf -->
<g id="node1" class="node">
<title>hpp&#45;manipulation&#45;urdf</title>
<g id="a_node1"><a xlink:href="https://github.com/conda-forge/hpp-manipulation-urdf-feedstock/pull/23" xlink:title="hpp manipulation urdf ✓">
<ellipse fill="#31688e" stroke="black" cx="209.12" cy="-162" rx="131.18" ry="18"/>
<text xml:space="preserve" text-anchor="middle" x="209.12" y="-157.32" font-family="Times,serif" font-size="14.00" fill="white">hpp manipulation urdf ✓</text>
</a>
</g>
</g>
<!-- hpp&#45;manipulation&#45;corba -->
<g id="node2" class="node">
<title>hpp&#45;manipulation&#45;corba</title>
<g id="a_node2"><a xlink:href="https://github.com/conda-forge/hpp-manipulation-corba-feedstock" xlink:title="hpp manipulation corba">
<ellipse fill="#fde725" stroke="black" cx="130.12" cy="-90" rx="130.12" ry="18"/>
<text xml:space="preserve" text-anchor="middle" x="130.12" y="-85.33" font-family="Times,serif" font-size="14.00">hpp manipulation corba</text>
</a>
</g>
</g>
<!-- hpp&#45;manipulation&#45;urdf&#45;&gt;hpp&#45;manipulation&#45;corba -->
<g id="edge2" class="edge">
<title>hpp&#45;manipulation&#45;urdf&#45;&gt;hpp&#45;manipulation&#45;corba</title>
<path fill="none" stroke="black" d="M190,-144.05C180.44,-135.58 168.69,-125.17 158.13,-115.82"/>
<polygon fill="black" stroke="black" points="160.56,-113.29 150.75,-109.28 155.92,-118.53 160.56,-113.29"/>
</g>
<!-- hpp&#45;gepetto&#45;viewer -->
<g id="node3" class="node">
<title>hpp&#45;gepetto&#45;viewer</title>
<g id="a_node3"><a xlink:href="https://github.com/conda-forge/hpp-gepetto-viewer-feedstock" xlink:title="hpp gepetto viewer">
<ellipse fill="#fde725" stroke="black" cx="209.12" cy="-18" rx="108.55" ry="18"/>
<text xml:space="preserve" text-anchor="middle" x="209.12" y="-13.32" font-family="Times,serif" font-size="14.00">hpp gepetto viewer</text>
</a>
</g>
</g>
<!-- hpp&#45;manipulation&#45;urdf&#45;&gt;hpp&#45;gepetto&#45;viewer -->
<g id="edge1" class="edge">
<title>hpp&#45;manipulation&#45;urdf&#45;&gt;hpp&#45;gepetto&#45;viewer</title>
<path fill="none" stroke="black" d="M237.38,-143.97C249.56,-134.96 262.5,-122.7 269.12,-108 275.7,-93.41 275.7,-86.59 269.12,-72 264.06,-60.77 255.3,-50.96 246.02,-42.93"/>
<polygon fill="black" stroke="black" points="248.26,-40.23 238.25,-36.74 243.89,-45.71 248.26,-40.23"/>
</g>
<!-- hpp&#45;manipulation&#45;corba&#45;&gt;hpp&#45;gepetto&#45;viewer -->
<g id="edge3" class="edge">
<title>hpp&#45;manipulation&#45;corba&#45;&gt;hpp&#45;gepetto&#45;viewer</title>
<path fill="none" stroke="black" d="M149.25,-72.05C158.88,-63.52 170.74,-53.01 181.35,-43.61"/>
<polygon fill="black" stroke="black" points="183.61,-46.29 188.77,-37.04 178.96,-41.05 183.61,-46.29"/>
</g>
<!-- gz&#45;physics -->
<g id="node4" class="node">
<title>gz&#45;physics</title>
<g id="a_node4"><a xlink:href="https://github.com/conda-forge/gz-physics-feedstock/pull/78" xlink:title="gz physics ❎">
<ellipse fill="#31688e" stroke="black" cx="690.12" cy="-90" rx="78.57" ry="18"/>
<text xml:space="preserve" text-anchor="middle" x="690.12" y="-85.33" font-family="Times,serif" font-size="14.00" fill="white">gz physics ❎</text>
</a>
</g>
</g>
<!-- gazebo&#45;yarp&#45;plugins -->
<g id="node5" class="node">
<title>gazebo&#45;yarp&#45;plugins</title>
<g id="a_node5"><a xlink:href="https://github.com/conda-forge/gazebo-yarp-plugins-feedstock/pull/56" xlink:title="gazebo yarp plugins ❎">
<ellipse fill="#31688e" stroke="black" cx="476.12" cy="-90" rx="127.49" ry="18"/>
<text xml:space="preserve" text-anchor="middle" x="476.12" y="-85.33" font-family="Times,serif" font-size="14.00" fill="white">gazebo yarp plugins ❎</text>
</a>
</g>
</g>
</g>
</svg>
