<?xml version="1.0" encoding="UTF-8" standalone="no"?>
<!DOCTYPE svg PUBLIC "-//W3C//DTD SVG 1.1//EN"
 "http://www.w3.org/Graphics/SVG/1.1/DTD/svg11.dtd">
<!-- Generated by graphviz version 13.1.2 (20250809.0930)
 -->
<!-- Pages: 1 -->
<svg width="915pt" height="376pt"
 viewBox="0.00 0.00 915.00 376.00" xmlns="http://www.w3.org/2000/svg" xmlns:xlink="http://www.w3.org/1999/xlink">
<g id="graph0" class="graph" transform="scale(1 1) rotate(0) translate(4 372)">
<polygon fill="white" stroke="none" points="-4,4 -4,-372 911.02,-372 911.02,4 -4,4"/>
<!-- gazebo -->
<g id="node1" class="node">
<title>gazebo</title>
<g id="a_node1"><a xlink:href="https://github.com/conda-forge/gazebo-feedstock/pull/255" xlink:title="gazebo ❎">
<ellipse fill="#31688e" stroke="black" cx="551" cy="-242" rx="61.73" ry="18"/>
<text xml:space="preserve" text-anchor="middle" x="551" y="-237.32" font-family="Times,serif" font-size="14.00" fill="white">gazebo ❎</text>
</a>
</g>
</g>
<!-- gazebo&#45;yarp&#45;plugins -->
<g id="node10" class="node">
<title>gazebo&#45;yarp&#45;plugins</title>
<g id="a_node10"><a xlink:href="https://github.com/conda-forge/gazebo-yarp-plugins-feedstock" xlink:title="gazebo yarp plugins">
<ellipse fill="#fde725" stroke="black" cx="551" cy="-170" rx="112.24" ry="18"/>
<text xml:space="preserve" text-anchor="middle" x="551" y="-165.32" font-family="Times,serif" font-size="14.00">gazebo yarp plugins</text>
</a>
</g>
</g>
<!-- gazebo&#45;&gt;gazebo&#45;yarp&#45;plugins -->
<g id="edge1" class="edge">
<title>gazebo&#45;&gt;gazebo&#45;yarp&#45;plugins</title>
<path fill="none" stroke="black" d="M551,-223.7C551,-216.41 551,-207.73 551,-199.54"/>
<polygon fill="black" stroke="black" points="554.5,-199.62 551,-189.62 547.5,-199.62 554.5,-199.62"/>
</g>
<!-- libignition&#45;physics -->
<g id="node2" class="node">
<title>libignition&#45;physics</title>
<g id="a_node2"><a xlink:href="https://github.com/conda-forge/libignition-physics-feedstock/pull/41" xlink:title="libignition physics ❎">
<ellipse fill="#31688e" stroke="black" cx="789" cy="-206" rx="118.02" ry="18"/>
<text xml:space="preserve" text-anchor="middle" x="789" y="-201.32" font-family="Times,serif" font-size="14.00" fill="white">libignition physics ❎</text>
</a>
</g>
</g>
<!-- hpp&#45;core -->
<g id="node3" class="node">
<title>hpp&#45;core</title>
<g id="a_node3"><a xlink:href="https://github.com/conda-forge/hpp-core-feedstock/pull/26" xlink:title="hpp core ✓">
<ellipse fill="#31688e" stroke="black" cx="215" cy="-350" rx="62.78" ry="18"/>
<text xml:space="preserve" text-anchor="middle" x="215" y="-345.32" font-family="Times,serif" font-size="14.00" fill="white">hpp core ✓</text>
</a>
</g>
</g>
<!-- hpp&#45;manipulation&#45;urdf -->
<g id="node4" class="node">
<title>hpp&#45;manipulation&#45;urdf</title>
<g id="a_node4"><a xlink:href="https://github.com/conda-forge/hpp-manipulation-urdf-feedstock" xlink:title="hpp manipulation urdf">
<ellipse fill="#fde725" stroke="black" cx="156" cy="-206" rx="123.29" ry="18"/>
<text xml:space="preserve" text-anchor="middle" x="156" y="-201.32" font-family="Times,serif" font-size="14.00">hpp manipulation urdf</text>
</a>
</g>
</g>
<!-- hpp&#45;core&#45;&gt;hpp&#45;manipulation&#45;urdf -->
<g id="edge5" class="edge">
<title>hpp&#45;core&#45;&gt;hpp&#45;manipulation&#45;urdf</title>
<path fill="none" stroke="black" d="M197.34,-332.48C188.04,-322.75 177.28,-309.7 171,-296 162.25,-276.93 158.55,-253.46 157.01,-235.41"/>
<polygon fill="black" stroke="black" points="160.52,-235.43 156.37,-225.68 153.54,-235.89 160.52,-235.43"/>
</g>
<!-- hpp&#45;manipulation -->
<g id="node5" class="node">
<title>hpp&#45;manipulation</title>
<g id="a_node5"><a xlink:href="https://github.com/conda-forge/hpp-manipulation-feedstock" xlink:title="hpp manipulation">
<ellipse fill="#fde725" stroke="black" cx="279" cy="-278" rx="99.08" ry="18"/>
<text xml:space="preserve" text-anchor="middle" x="279" y="-273.32" font-family="Times,serif" font-size="14.00">hpp manipulation</text>
</a>
</g>
</g>
<!-- hpp&#45;core&#45;&gt;hpp&#45;manipulation -->
<g id="edge3" class="edge">
<title>hpp&#45;core&#45;&gt;hpp&#45;manipulation</title>
<path fill="none" stroke="black" d="M230.16,-332.41C237.86,-323.99 247.38,-313.58 255.96,-304.2"/>
<polygon fill="black" stroke="black" points="258.31,-306.82 262.47,-297.07 253.14,-302.09 258.31,-306.82"/>
</g>
<!-- hpp&#45;manipulation&#45;corba -->
<g id="node6" class="node">
<title>hpp&#45;manipulation&#45;corba</title>
<g id="a_node6"><a xlink:href="https://github.com/conda-forge/hpp-manipulation-corba-feedstock" xlink:title="hpp manipulation corba">
<ellipse fill="#fde725" stroke="black" cx="207" cy="-134" rx="130.12" ry="18"/>
<text xml:space="preserve" text-anchor="middle" x="207" y="-129.32" font-family="Times,serif" font-size="14.00">hpp manipulation corba</text>
</a>
</g>
</g>
<!-- hpp&#45;core&#45;&gt;hpp&#45;manipulation&#45;corba -->
<g id="edge4" class="edge">
<title>hpp&#45;core&#45;&gt;hpp&#45;manipulation&#45;corba</title>
<path fill="none" stroke="black" d="M277.58,-347.36C315.83,-342.72 362.04,-329.81 387,-296 430.49,-237.09 330.85,-183.62 263.14,-155.59"/>
<polygon fill="black" stroke="black" points="264.56,-152.39 253.98,-151.88 261.94,-158.88 264.56,-152.39"/>
</g>
<!-- hpp&#45;gepetto&#45;viewer -->
<g id="node7" class="node">
<title>hpp&#45;gepetto&#45;viewer</title>
<g id="a_node7"><a xlink:href="https://github.com/conda-forge/hpp-gepetto-viewer-feedstock" xlink:title="hpp gepetto viewer">
<ellipse fill="#fde725" stroke="black" cx="128" cy="-62" rx="108.55" ry="18"/>
<text xml:space="preserve" text-anchor="middle" x="128" y="-57.33" font-family="Times,serif" font-size="14.00">hpp gepetto viewer</text>
</a>
</g>
</g>
<!-- hpp&#45;core&#45;&gt;hpp&#45;gepetto&#45;viewer -->
<g id="edge2" class="edge">
<title>hpp&#45;core&#45;&gt;hpp&#45;gepetto&#45;viewer</title>
<path fill="none" stroke="black" d="M174.85,-335.92C128.89,-318.52 55.85,-282.91 24,-224 0,-179.61 27.11,-155.1 59,-116 68.02,-104.93 79.79,-94.81 91.05,-86.45"/>
<polygon fill="black" stroke="black" points="92.96,-89.38 99.07,-80.73 88.9,-83.68 92.96,-89.38"/>
</g>
<!-- hpp&#45;manipulation&#45;urdf&#45;&gt;hpp&#45;manipulation&#45;corba -->
<g id="edge7" class="edge">
<title>hpp&#45;manipulation&#45;urdf&#45;&gt;hpp&#45;manipulation&#45;corba</title>
<path fill="none" stroke="black" d="M168.6,-187.7C174.41,-179.73 181.43,-170.1 187.86,-161.26"/>
<polygon fill="black" stroke="black" points="190.59,-163.47 193.64,-153.33 184.93,-159.35 190.59,-163.47"/>
</g>
<!-- hpp&#45;manipulation&#45;urdf&#45;&gt;hpp&#45;gepetto&#45;viewer -->
<g id="edge6" class="edge">
<title>hpp&#45;manipulation&#45;urdf&#45;&gt;hpp&#45;gepetto&#45;viewer</title>
<path fill="none" stroke="black" d="M110.81,-188.92C94.3,-180.6 77.39,-168.61 68,-152 60.13,-138.07 61.42,-130.59 68,-116 73.06,-104.77 81.82,-94.96 91.1,-86.93"/>
<polygon fill="black" stroke="black" points="93.23,-89.71 98.87,-80.74 88.87,-84.23 93.23,-89.71"/>
</g>
<!-- hpp&#45;manipulation&#45;&gt;hpp&#45;manipulation&#45;urdf -->
<g id="edge10" class="edge">
<title>hpp&#45;manipulation&#45;&gt;hpp&#45;manipulation&#45;urdf</title>
<path fill="none" stroke="black" d="M249.85,-260.41C233.42,-251.06 212.7,-239.27 194.9,-229.14"/>
<polygon fill="black" stroke="black" points="197.1,-226.37 186.68,-224.46 193.64,-232.45 197.1,-226.37"/>
</g>
<!-- hpp&#45;manipulation&#45;&gt;hpp&#45;manipulation&#45;corba -->
<g id="edge9" class="edge">
<title>hpp&#45;manipulation&#45;&gt;hpp&#45;manipulation&#45;corba</title>
<path fill="none" stroke="black" d="M286.22,-259.8C292.92,-241 300.19,-210.54 288,-188 281.12,-175.29 269.72,-165.13 257.62,-157.25"/>
<polygon fill="black" stroke="black" points="259.51,-154.31 249.13,-152.19 255.93,-160.32 259.51,-154.31"/>
</g>
<!-- hpp&#45;manipulation&#45;&gt;hpp&#45;gepetto&#45;viewer -->
<g id="edge8" class="edge">
<title>hpp&#45;manipulation&#45;&gt;hpp&#45;gepetto&#45;viewer</title>
<path fill="none" stroke="black" d="M296.67,-259.93C326.85,-228.71 381.73,-161.46 346,-116 330.67,-96.5 276.63,-83.28 226.2,-74.93"/>
<polygon fill="black" stroke="black" points="226.75,-71.47 216.33,-73.35 225.65,-78.38 226.75,-71.47"/>
</g>
<!-- hpp&#45;manipulation&#45;corba&#45;&gt;hpp&#45;gepetto&#45;viewer -->
<g id="edge11" class="edge">
<title>hpp&#45;manipulation&#45;corba&#45;&gt;hpp&#45;gepetto&#45;viewer</title>
<path fill="none" stroke="black" d="M187.87,-116.05C178.24,-107.52 166.38,-97.01 155.77,-87.61"/>
<polygon fill="black" stroke="black" points="158.16,-85.05 148.35,-81.04 153.52,-90.29 158.16,-85.05"/>
</g>
<!-- gz&#45;physics -->
<g id="node8" class="node">
<title>gz&#45;physics</title>
<g id="a_node8"><a xlink:href="https://github.com/conda-forge/gz-physics-feedstock/pull/78" xlink:title="gz physics ❎">
<ellipse fill="#31688e" stroke="black" cx="215" cy="-18" rx="78.57" ry="18"/>
<text xml:space="preserve" text-anchor="middle" x="215" y="-13.32" font-family="Times,serif" font-size="14.00" fill="white">gz physics ❎</text>
</a>
</g>
</g>
<!-- qt&#45;3d -->
<g id="node9" class="node">
<title>qt&#45;3d</title>
<g id="a_node9"><a xlink:href="https://github.com/conda-forge/qt-3d-feedstock/pull/71" xlink:title="qt 3d ❎">
<ellipse fill="#31688e" stroke="black" cx="551" cy="-18" rx="52.79" ry="18"/>
<text xml:space="preserve" text-anchor="middle" x="551" y="-13.32" font-family="Times,serif" font-size="14.00" fill="white">qt 3d ❎</text>
</a>
</g>
</g>
</g>
</svg>
