<?xml version="1.0" encoding="UTF-8" standalone="no"?>
<!DOCTYPE svg PUBLIC "-//W3C//DTD SVG 1.1//EN"
 "http://www.w3.org/Graphics/SVG/1.1/DTD/svg11.dtd">
<!-- Generated by graphviz version 12.0.0 (20240803.0821)
 -->
<!-- Pages: 1 -->
<svg width="701pt" height="476pt"
 viewBox="0.00 0.00 700.77 476.00" xmlns="http://www.w3.org/2000/svg" xmlns:xlink="http://www.w3.org/1999/xlink">
<g id="graph0" class="graph" transform="scale(1 1) rotate(0) translate(4 472)">
<polygon fill="white" stroke="none" points="-4,4 -4,-472 696.77,-472 696.77,4 -4,4"/>
<!-- panda3d -->
<g id="node1" class="node">
<title>panda3d</title>
<g id="a_node1"><a xlink:href="https://github.com/conda-forge/panda3d-feedstock/pull/52" xlink:title="panda3d ❎">
<ellipse fill="#31688e" stroke="black" cx="623.14" cy="-234" rx="69.62" ry="18"/>
<text text-anchor="middle" x="623.14" y="-229.32" font-family="Times,serif" font-size="14.00" fill="white">panda3d ❎</text>
</a>
</g>
</g>
<!-- hpp&#45;core -->
<g id="node2" class="node">
<title>hpp&#45;core</title>
<g id="a_node2"><a xlink:href="https://github.com/conda-forge/hpp-core-feedstock" xlink:title="hpp core">
<ellipse fill="#fde725" stroke="black" cx="94.52" cy="-306" rx="54.89" ry="18"/>
<text text-anchor="middle" x="94.52" y="-301.32" font-family="Times,serif" font-size="14.00">hpp core</text>
</a>
</g>
</g>
<!-- hpp&#45;manipulation&#45;urdf -->
<g id="node3" class="node">
<title>hpp&#45;manipulation&#45;urdf</title>
<g id="a_node3"><a xlink:href="https://github.com/conda-forge/hpp-manipulation-urdf-feedstock" xlink:title="hpp manipulation urdf">
<ellipse fill="#fde725" stroke="black" cx="278.52" cy="-162" rx="123.29" ry="18"/>
<text text-anchor="middle" x="278.52" y="-157.32" font-family="Times,serif" font-size="14.00">hpp manipulation urdf</text>
</a>
</g>
</g>
<!-- hpp&#45;core&#45;&gt;hpp&#45;manipulation&#45;urdf -->
<g id="edge1" class="edge">
<title>hpp&#45;core&#45;&gt;hpp&#45;manipulation&#45;urdf</title>
<path fill="none" stroke="black" d="M110.05,-288.44C128.12,-269.65 159.36,-238.69 189.52,-216 204.26,-204.91 221.47,-194.21 236.81,-185.35"/>
<polygon fill="black" stroke="black" points="238.28,-188.54 245.25,-180.56 234.83,-182.45 238.28,-188.54"/>
</g>
<!-- hpp&#45;manipulation -->
<g id="node4" class="node">
<title>hpp&#45;manipulation</title>
<g id="a_node4"><a xlink:href="https://github.com/conda-forge/hpp-manipulation-feedstock" xlink:title="hpp manipulation">
<ellipse fill="#fde725" stroke="black" cx="380.52" cy="-234" rx="99.08" ry="18"/>
<text text-anchor="middle" x="380.52" y="-229.32" font-family="Times,serif" font-size="14.00">hpp manipulation</text>
</a>
</g>
</g>
<!-- hpp&#45;core&#45;&gt;hpp&#45;manipulation -->
<g id="edge2" class="edge">
<title>hpp&#45;core&#45;&gt;hpp&#45;manipulation</title>
<path fill="none" stroke="black" d="M137.65,-294.44C183.93,-283.12 258.08,-264.97 312.29,-251.7"/>
<polygon fill="black" stroke="black" points="312.84,-255.17 321.72,-249.39 311.18,-248.37 312.84,-255.17"/>
</g>
<!-- hpp&#45;manipulation&#45;corba -->
<g id="node5" class="node">
<title>hpp&#45;manipulation&#45;corba</title>
<g id="a_node5"><a xlink:href="https://github.com/conda-forge/hpp-manipulation-corba-feedstock" xlink:title="hpp manipulation corba">
<ellipse fill="#fde725" stroke="black" cx="221.52" cy="-90" rx="130.13" ry="18"/>
<text text-anchor="middle" x="221.52" y="-85.33" font-family="Times,serif" font-size="14.00">hpp manipulation corba</text>
</a>
</g>
</g>
<!-- hpp&#45;core&#45;&gt;hpp&#45;manipulation&#45;corba -->
<g id="edge3" class="edge">
<title>hpp&#45;core&#45;&gt;hpp&#45;manipulation&#45;corba</title>
<path fill="none" stroke="black" d="M91.57,-287.62C87.17,-255.9 82.46,-187.88 113.52,-144 123.62,-129.74 138.65,-119.14 154.32,-111.33"/>
<polygon fill="black" stroke="black" points="155.65,-114.57 163.28,-107.22 152.73,-108.2 155.65,-114.57"/>
</g>
<!-- hpp&#45;gepetto&#45;viewer -->
<g id="node6" class="node">
<title>hpp&#45;gepetto&#45;viewer</title>
<g id="a_node6"><a xlink:href="https://github.com/conda-forge/hpp-gepetto-viewer-feedstock" xlink:title="hpp gepetto viewer">
<ellipse fill="#fde725" stroke="black" cx="435.52" cy="-18" rx="108.55" ry="18"/>
<text text-anchor="middle" x="435.52" y="-13.32" font-family="Times,serif" font-size="14.00">hpp gepetto viewer</text>
</a>
</g>
</g>
<!-- hpp&#45;core&#45;&gt;hpp&#45;gepetto&#45;viewer -->
<g id="edge4" class="edge">
<title>hpp&#45;core&#45;&gt;hpp&#45;gepetto&#45;viewer</title>
<path fill="none" stroke="black" d="M86.56,-287.82C68.24,-245.4 28.61,-134.62 82.52,-72 112.43,-37.27 225.64,-24.98 315.89,-20.79"/>
<polygon fill="black" stroke="black" points="315.98,-24.29 325.82,-20.36 315.68,-17.3 315.98,-24.29"/>
</g>
<!-- hpp&#45;manipulation&#45;urdf&#45;&gt;hpp&#45;manipulation&#45;corba -->
<g id="edge5" class="edge">
<title>hpp&#45;manipulation&#45;urdf&#45;&gt;hpp&#45;manipulation&#45;corba</title>
<path fill="none" stroke="black" d="M264.43,-143.7C257.87,-135.64 249.94,-125.89 242.68,-116.98"/>
<polygon fill="black" stroke="black" points="245.43,-114.82 236.41,-109.28 240.01,-119.24 245.43,-114.82"/>
</g>
<!-- hpp&#45;manipulation&#45;urdf&#45;&gt;hpp&#45;gepetto&#45;viewer -->
<g id="edge6" class="edge">
<title>hpp&#45;manipulation&#45;urdf&#45;&gt;hpp&#45;gepetto&#45;viewer</title>
<path fill="none" stroke="black" d="M309.26,-144.11C325.34,-134.56 344.88,-121.78 360.52,-108 381.96,-89.12 402.59,-63.95 416.77,-45.2"/>
<polygon fill="black" stroke="black" points="419.51,-47.38 422.66,-37.26 413.89,-43.2 419.51,-47.38"/>
</g>
<!-- hpp&#45;manipulation&#45;&gt;hpp&#45;manipulation&#45;urdf -->
<g id="edge7" class="edge">
<title>hpp&#45;manipulation&#45;&gt;hpp&#45;manipulation&#45;urdf</title>
<path fill="none" stroke="black" d="M356.09,-216.23C343.16,-207.36 327.07,-196.32 312.9,-186.59"/>
<polygon fill="black" stroke="black" points="314.94,-183.75 304.71,-180.97 310.98,-189.52 314.94,-183.75"/>
</g>
<!-- hpp&#45;manipulation&#45;&gt;hpp&#45;manipulation&#45;corba -->
<g id="edge8" class="edge">
<title>hpp&#45;manipulation&#45;&gt;hpp&#45;manipulation&#45;corba</title>
<path fill="none" stroke="black" d="M395.1,-215.73C409.41,-196.59 426.87,-165.57 410.52,-144 398.33,-127.92 356.99,-115.38 316.07,-106.54"/>
<polygon fill="black" stroke="black" points="316.84,-103.13 306.33,-104.51 315.41,-109.98 316.84,-103.13"/>
</g>
<!-- hpp&#45;manipulation&#45;&gt;hpp&#45;gepetto&#45;viewer -->
<g id="edge9" class="edge">
<title>hpp&#45;manipulation&#45;&gt;hpp&#45;gepetto&#45;viewer</title>
<path fill="none" stroke="black" d="M401.01,-216.06C410.91,-206.58 421.85,-193.89 427.52,-180 445.33,-136.39 443.18,-80.52 439.61,-47.37"/>
<polygon fill="black" stroke="black" points="443.13,-47.26 438.45,-37.75 436.18,-48.1 443.13,-47.26"/>
</g>
<!-- hpp&#45;manipulation&#45;corba&#45;&gt;hpp&#45;gepetto&#45;viewer -->
<g id="edge10" class="edge">
<title>hpp&#45;manipulation&#45;corba&#45;&gt;hpp&#45;gepetto&#45;viewer</title>
<path fill="none" stroke="black" d="M270.62,-72.94C302.35,-62.56 343.81,-49 377.22,-38.07"/>
<polygon fill="black" stroke="black" points="377.9,-41.53 386.32,-35.09 375.73,-34.88 377.9,-41.53"/>
</g>
<!-- hpp&#45;constraints -->
<g id="node7" class="node">
<title>hpp&#45;constraints</title>
<g id="a_node7"><a xlink:href="https://github.com/conda-forge/hpp-constraints-feedstock" xlink:title="hpp constraints">
<ellipse fill="#fde725" stroke="black" cx="295.52" cy="-378" rx="89.61" ry="18"/>
<text text-anchor="middle" x="295.52" y="-373.32" font-family="Times,serif" font-size="14.00">hpp constraints</text>
</a>
</g>
</g>
<!-- hpp&#45;constraints&#45;&gt;hpp&#45;core -->
<g id="edge11" class="edge">
<title>hpp&#45;constraints&#45;&gt;hpp&#45;core</title>
<path fill="none" stroke="black" d="M252.4,-361.98C219.82,-350.64 175.15,-335.08 141.63,-323.41"/>
<polygon fill="black" stroke="black" points="143.19,-320.24 132.6,-320.26 140.89,-326.86 143.19,-320.24"/>
</g>
<!-- hpp&#45;constraints&#45;&gt;hpp&#45;manipulation&#45;urdf -->
<g id="edge12" class="edge">
<title>hpp&#45;constraints&#45;&gt;hpp&#45;manipulation&#45;urdf</title>
<path fill="none" stroke="black" d="M291.32,-359.75C285.71,-335.76 276.07,-290.89 272.52,-252 271.07,-236.07 271.62,-231.97 272.52,-216 272.97,-208.02 273.8,-199.39 274.7,-191.47"/>
<polygon fill="black" stroke="black" points="278.16,-192 275.9,-181.65 271.21,-191.15 278.16,-192"/>
</g>
<!-- hpp&#45;constraints&#45;&gt;hpp&#45;manipulation -->
<g id="edge13" class="edge">
<title>hpp&#45;constraints&#45;&gt;hpp&#45;manipulation</title>
<path fill="none" stroke="black" d="M305.78,-359.87C320.33,-335.56 347.11,-290.82 364.35,-262.01"/>
<polygon fill="black" stroke="black" points="367.32,-263.87 369.46,-253.49 361.32,-260.27 367.32,-263.87"/>
</g>
<!-- hpp&#45;constraints&#45;&gt;hpp&#45;manipulation&#45;corba -->
<g id="edge14" class="edge">
<title>hpp&#45;constraints&#45;&gt;hpp&#45;manipulation&#45;corba</title>
<path fill="none" stroke="black" d="M276.36,-360.12C242.33,-328.72 172.51,-257.45 146.52,-180 141.43,-164.83 139.16,-158.21 146.52,-144 152.88,-131.72 163.54,-121.68 174.85,-113.77"/>
<polygon fill="black" stroke="black" points="176.63,-116.79 183.15,-108.44 172.85,-110.9 176.63,-116.79"/>
</g>
<!-- hpp&#45;constraints&#45;&gt;hpp&#45;gepetto&#45;viewer -->
<g id="edge15" class="edge">
<title>hpp&#45;constraints&#45;&gt;hpp&#45;gepetto&#45;viewer</title>
<path fill="none" stroke="black" d="M354.86,-364.19C417.57,-346.75 507.52,-308.87 507.52,-235 507.52,-235 507.52,-235 507.52,-161 507.52,-116.49 479.04,-71.8 457.9,-44.76"/>
<polygon fill="black" stroke="black" points="460.75,-42.71 451.74,-37.14 455.31,-47.11 460.75,-42.71"/>
</g>
<!-- hpp&#45;pinocchio -->
<g id="node8" class="node">
<title>hpp&#45;pinocchio</title>
<g id="a_node8"><a xlink:href="https://github.com/conda-forge/hpp-pinocchio-feedstock/pull/33" xlink:title="hpp pinocchio ❎">
<ellipse fill="#31688e" stroke="black" cx="236.52" cy="-450" rx="95.93" ry="18"/>
<text text-anchor="middle" x="236.52" y="-445.32" font-family="Times,serif" font-size="14.00" fill="white">hpp pinocchio ❎</text>
</a>
</g>
</g>
<!-- hpp&#45;pinocchio&#45;&gt;hpp&#45;core -->
<g id="edge16" class="edge">
<title>hpp&#45;pinocchio&#45;&gt;hpp&#45;core</title>
<path fill="none" stroke="black" d="M209.78,-432.27C195.32,-422.58 177.58,-409.62 163.52,-396 143.77,-376.86 124.88,-351.87 111.88,-333.25"/>
<polygon fill="black" stroke="black" points="114.86,-331.41 106.32,-325.14 109.09,-335.37 114.86,-331.41"/>
</g>
<!-- hpp&#45;pinocchio&#45;&gt;hpp&#45;manipulation&#45;urdf -->
<g id="edge17" class="edge">
<title>hpp&#45;pinocchio&#45;&gt;hpp&#45;manipulation&#45;urdf</title>
<path fill="none" stroke="black" d="M219.21,-432.07C210.59,-422.41 201.06,-409.55 196.52,-396 191.44,-380.83 193.39,-375.69 196.52,-360 209.27,-296.19 243.13,-227.19 263.13,-190.17"/>
<polygon fill="black" stroke="black" points="266.14,-191.96 267.89,-181.51 260.01,-188.59 266.14,-191.96"/>
</g>
<!-- hpp&#45;pinocchio&#45;&gt;hpp&#45;manipulation -->
<g id="edge18" class="edge">
<title>hpp&#45;pinocchio&#45;&gt;hpp&#45;manipulation</title>
<path fill="none" stroke="black" d="M319.72,-440.76C348.14,-433.5 377.12,-420.19 394.52,-396 422.83,-356.64 406.55,-297.06 392.97,-262.49"/>
<polygon fill="black" stroke="black" points="396.35,-261.51 389.29,-253.6 389.88,-264.18 396.35,-261.51"/>
</g>
<!-- hpp&#45;pinocchio&#45;&gt;hpp&#45;manipulation&#45;corba -->
<g id="edge19" class="edge">
<title>hpp&#45;pinocchio&#45;&gt;hpp&#45;manipulation&#45;corba</title>
<path fill="none" stroke="black" d="M184.1,-434.64C133.66,-417.62 60.75,-383.72 30.52,-324 0,-263.7 48.59,-187.2 92.52,-144 107.81,-128.96 127.97,-117.99 147.79,-110.06"/>
<polygon fill="black" stroke="black" points="148.86,-113.4 157,-106.61 146.4,-106.84 148.86,-113.4"/>
</g>
<!-- hpp&#45;pinocchio&#45;&gt;hpp&#45;gepetto&#45;viewer -->
<g id="edge20" class="edge">
<title>hpp&#45;pinocchio&#45;&gt;hpp&#45;gepetto&#45;viewer</title>
<path fill="none" stroke="black" d="M328.4,-444.59C419.48,-434.68 545.52,-403.53 545.52,-307 545.52,-307 545.52,-307 545.52,-161 545.52,-111.05 502.45,-68.01 470.21,-42.79"/>
<polygon fill="black" stroke="black" points="472.33,-40 462.24,-36.77 468.11,-45.59 472.33,-40"/>
</g>
<!-- hpp&#45;pinocchio&#45;&gt;hpp&#45;constraints -->
<g id="edge21" class="edge">
<title>hpp&#45;pinocchio&#45;&gt;hpp&#45;constraints</title>
<path fill="none" stroke="black" d="M250.8,-432.05C257.76,-423.8 266.27,-413.7 274,-404.54"/>
<polygon fill="black" stroke="black" points="276.63,-406.85 280.4,-396.95 271.27,-402.34 276.63,-406.85"/>
</g>
</g>
</svg>
