<?xml version="1.0" encoding="UTF-8" standalone="no"?>
<!DOCTYPE svg PUBLIC "-//W3C//DTD SVG 1.1//EN"
 "http://www.w3.org/Graphics/SVG/1.1/DTD/svg11.dtd">
<!-- Generated by graphviz version 13.1.2 (20250809.0930)
 -->
<!-- Pages: 1 -->
<svg width="230pt" height="116pt"
 viewBox="0.00 0.00 230.00 116.00" xmlns="http://www.w3.org/2000/svg" xmlns:xlink="http://www.w3.org/1999/xlink">
<g id="graph0" class="graph" transform="scale(1 1) rotate(0) translate(4 112)">
<polygon fill="white" stroke="none" points="-4,4 -4,-112 225.89,-112 225.89,4 -4,4"/>
<!-- arrow&#45;cpp -->
<g id="node1" class="node">
<title>arrow&#45;cpp</title>
<g id="a_node1"><a xlink:href="https://github.com/conda-forge/arrow-cpp-feedstock" xlink:title="arrow cpp">
<ellipse fill="#fde725" stroke="black" cx="61.73" cy="-18" rx="61.73" ry="18"/>
<text xml:space="preserve" text-anchor="middle" x="61.73" y="-13.32" font-family="Times,serif" font-size="14.00">arrow cpp</text>
</a>
</g>
</g>
<!-- tiledb -->
<g id="node2" class="node">
<title>tiledb</title>
<g id="a_node2"><a xlink:href="https://github.com/conda-forge/tiledb-feedstock" xlink:title="tiledb">
<ellipse fill="#fde725" stroke="black" cx="181.73" cy="-18" rx="40.16" ry="18"/>
<text xml:space="preserve" text-anchor="middle" x="181.73" y="-13.32" font-family="Times,serif" font-size="14.00">tiledb</text>
</a>
</g>
</g>
<!-- aws&#45;sdk&#45;cpp -->
<g id="node3" class="node">
<title>aws&#45;sdk&#45;cpp</title>
<g id="a_node3"><a xlink:href="https://github.com/conda-forge/aws-sdk-cpp-feedstock/pull/990" xlink:title="aws sdk cpp ❎">
<ellipse fill="#31688e" stroke="black" cx="121.73" cy="-90" rx="87.51" ry="18"/>
<text xml:space="preserve" text-anchor="middle" x="121.73" y="-85.33" font-family="Times,serif" font-size="14.00" fill="white">aws sdk cpp ❎</text>
</a>
</g>
</g>
<!-- aws&#45;sdk&#45;cpp&#45;&gt;arrow&#45;cpp -->
<g id="edge1" class="edge">
<title>aws&#45;sdk&#45;cpp&#45;&gt;arrow&#45;cpp</title>
<path fill="none" stroke="black" d="M107.21,-72.05C100.06,-63.71 91.29,-53.49 83.37,-44.25"/>
<polygon fill="black" stroke="black" points="86.27,-42.25 77.11,-36.94 80.96,-46.81 86.27,-42.25"/>
</g>
<!-- aws&#45;sdk&#45;cpp&#45;&gt;tiledb -->
<g id="edge2" class="edge">
<title>aws&#45;sdk&#45;cpp&#45;&gt;tiledb</title>
<path fill="none" stroke="black" d="M136.25,-72.05C143.51,-63.59 152.42,-53.19 160.43,-43.84"/>
<polygon fill="black" stroke="black" points="162.92,-46.33 166.77,-36.46 157.6,-41.77 162.92,-46.33"/>
</g>
</g>
</svg>
