<?xml version="1.0" encoding="UTF-8" standalone="no"?>
<!DOCTYPE svg PUBLIC "-//W3C//DTD SVG 1.1//EN"
 "http://www.w3.org/Graphics/SVG/1.1/DTD/svg11.dtd">
<!-- Generated by graphviz version 12.0.0 (20240803.0821)
 -->
<!-- Pages: 1 -->
<svg width="802pt" height="404pt"
 viewBox="0.00 0.00 801.70 404.00" xmlns="http://www.w3.org/2000/svg" xmlns:xlink="http://www.w3.org/1999/xlink">
<g id="graph0" class="graph" transform="scale(1 1) rotate(0) translate(4 400)">
<polygon fill="white" stroke="none" points="-4,4 -4,-400 797.7,-400 797.7,4 -4,4"/>
<!-- aws&#45;sdk&#45;cpp -->
<g id="node1" class="node">
<title>aws&#45;sdk&#45;cpp</title>
<g id="a_node1"><a xlink:href="https://github.com/conda-forge/aws-sdk-cpp-feedstock" xlink:title="aws sdk cpp">
<ellipse fill="#fde725" stroke="black" cx="177" cy="-18" rx="72.25" ry="18"/>
<text text-anchor="middle" x="177" y="-13.32" font-family="Times,serif" font-size="14.00">aws sdk cpp</text>
</a>
</g>
</g>
<!-- aws&#45;checksums -->
<g id="node2" class="node">
<title>aws&#45;checksums</title>
<g id="a_node2"><a xlink:href="https://github.com/conda-forge/aws-checksums-feedstock/pull/88" xlink:title="aws checksums ❎">
<ellipse fill="#31688e" stroke="black" cx="120" cy="-234" rx="103.82" ry="18"/>
<text text-anchor="middle" x="120" y="-229.32" font-family="Times,serif" font-size="14.00" fill="white">aws checksums ❎</text>
</a>
</g>
</g>
<!-- aws&#45;checksums&#45;&gt;aws&#45;sdk&#45;cpp -->
<g id="edge1" class="edge">
<title>aws&#45;checksums&#45;&gt;aws&#45;sdk&#45;cpp</title>
<path fill="none" stroke="black" d="M64.17,-218.39C44.86,-210.36 25.25,-198.2 14,-180 5.59,-166.39 10.33,-159.57 14,-144 22.22,-109.18 23.86,-96.42 50,-72 68.32,-54.9 92.94,-42.91 115.64,-34.72"/>
<polygon fill="black" stroke="black" points="116.47,-38.13 124.81,-31.6 114.21,-31.51 116.47,-38.13"/>
</g>
<!-- aws&#45;c&#45;event&#45;stream -->
<g id="node3" class="node">
<title>aws&#45;c&#45;event&#45;stream</title>
<g id="a_node3"><a xlink:href="https://github.com/conda-forge/aws-c-event-stream-feedstock" xlink:title="aws c event stream">
<ellipse fill="#fde725" stroke="black" cx="141" cy="-162" rx="108.55" ry="18"/>
<text text-anchor="middle" x="141" y="-157.32" font-family="Times,serif" font-size="14.00">aws c event stream</text>
</a>
</g>
</g>
<!-- aws&#45;checksums&#45;&gt;aws&#45;c&#45;event&#45;stream -->
<g id="edge2" class="edge">
<title>aws&#45;checksums&#45;&gt;aws&#45;c&#45;event&#45;stream</title>
<path fill="none" stroke="black" d="M125.19,-215.7C127.43,-208.24 130.11,-199.32 132.61,-190.97"/>
<polygon fill="black" stroke="black" points="135.92,-192.14 135.44,-181.55 129.21,-190.13 135.92,-192.14"/>
</g>
<!-- aws&#45;c&#45;s3 -->
<g id="node4" class="node">
<title>aws&#45;c&#45;s3</title>
<g id="a_node4"><a xlink:href="https://github.com/conda-forge/aws-c-s3-feedstock" xlink:title="aws c s3">
<ellipse fill="#fde725" stroke="black" cx="472" cy="-162" rx="53.84" ry="18"/>
<text text-anchor="middle" x="472" y="-157.32" font-family="Times,serif" font-size="14.00">aws c s3</text>
</a>
</g>
</g>
<!-- aws&#45;checksums&#45;&gt;aws&#45;c&#45;s3 -->
<g id="edge3" class="edge">
<title>aws&#45;checksums&#45;&gt;aws&#45;c&#45;s3</title>
<path fill="none" stroke="black" d="M194.29,-221.1C252.87,-211.31 336.49,-196.4 409,-180 412.82,-179.14 416.76,-178.2 420.71,-177.22"/>
<polygon fill="black" stroke="black" points="421.51,-180.62 430.33,-174.75 419.77,-173.84 421.51,-180.62"/>
</g>
<!-- awscrt -->
<g id="node5" class="node">
<title>awscrt</title>
<g id="a_node5"><a xlink:href="https://github.com/conda-forge/awscrt-feedstock" xlink:title="awscrt">
<ellipse fill="#fde725" stroke="black" cx="104" cy="-90" rx="44.9" ry="18"/>
<text text-anchor="middle" x="104" y="-85.33" font-family="Times,serif" font-size="14.00">awscrt</text>
</a>
</g>
</g>
<!-- aws&#45;checksums&#45;&gt;awscrt -->
<g id="edge4" class="edge">
<title>aws&#45;checksums&#45;&gt;awscrt</title>
<path fill="none" stroke="black" d="M70.07,-217.87C51.97,-209.7 33.43,-197.58 23,-180 14.84,-166.24 15.39,-158.07 23,-144 31.53,-128.24 47.01,-116.41 62.17,-107.97"/>
<polygon fill="black" stroke="black" points="63.37,-111.29 70.66,-103.61 60.17,-105.07 63.37,-111.29"/>
</g>
<!-- aws&#45;c&#45;event&#45;stream&#45;&gt;aws&#45;sdk&#45;cpp -->
<g id="edge5" class="edge">
<title>aws&#45;c&#45;event&#45;stream&#45;&gt;aws&#45;sdk&#45;cpp</title>
<path fill="none" stroke="black" d="M146.95,-143.94C150.44,-133.62 154.77,-120.14 158,-108 163.36,-87.9 168.23,-64.95 171.7,-47.38"/>
<polygon fill="black" stroke="black" points="175.11,-48.15 173.58,-37.67 168.24,-46.82 175.11,-48.15"/>
</g>
<!-- aws&#45;c&#45;event&#45;stream&#45;&gt;awscrt -->
<g id="edge6" class="edge">
<title>aws&#45;c&#45;event&#45;stream&#45;&gt;awscrt</title>
<path fill="none" stroke="black" d="M131.86,-143.7C127.78,-135.98 122.88,-126.71 118.33,-118.11"/>
<polygon fill="black" stroke="black" points="121.52,-116.65 113.75,-109.44 115.33,-119.92 121.52,-116.65"/>
</g>
<!-- aws&#45;crt&#45;cpp -->
<g id="node6" class="node">
<title>aws&#45;crt&#45;cpp</title>
<g id="a_node6"><a xlink:href="https://github.com/conda-forge/aws-crt-cpp-feedstock" xlink:title="aws crt cpp">
<ellipse fill="#fde725" stroke="black" cx="532" cy="-90" rx="69.1" ry="18"/>
<text text-anchor="middle" x="532" y="-85.33" font-family="Times,serif" font-size="14.00">aws crt cpp</text>
</a>
</g>
</g>
<!-- aws&#45;c&#45;event&#45;stream&#45;&gt;aws&#45;crt&#45;cpp -->
<g id="edge7" class="edge">
<title>aws&#45;c&#45;event&#45;stream&#45;&gt;aws&#45;crt&#45;cpp</title>
<path fill="none" stroke="black" d="M212.72,-148.16C284.81,-135.25 395.06,-115.52 465.31,-102.94"/>
<polygon fill="black" stroke="black" points="465.52,-106.46 474.74,-101.25 464.28,-99.57 465.52,-106.46"/>
</g>
<!-- aws&#45;c&#45;s3&#45;&gt;awscrt -->
<g id="edge8" class="edge">
<title>aws&#45;c&#45;s3&#45;&gt;awscrt</title>
<path fill="none" stroke="black" d="M431.81,-149.57C424.26,-147.59 416.41,-145.64 409,-144 321.38,-124.61 218.29,-107.96 157.2,-98.73"/>
<polygon fill="black" stroke="black" points="157.83,-95.29 147.42,-97.27 156.79,-102.21 157.83,-95.29"/>
</g>
<!-- aws&#45;c&#45;s3&#45;&gt;aws&#45;crt&#45;cpp -->
<g id="edge9" class="edge">
<title>aws&#45;c&#45;s3&#45;&gt;aws&#45;crt&#45;cpp</title>
<path fill="none" stroke="black" d="M486.22,-144.41C493.37,-136.08 502.18,-125.8 510.16,-116.49"/>
<polygon fill="black" stroke="black" points="512.63,-118.98 516.48,-109.11 507.32,-114.42 512.63,-118.98"/>
</g>
<!-- aws&#45;crt&#45;cpp&#45;&gt;aws&#45;sdk&#45;cpp -->
<g id="edge10" class="edge">
<title>aws&#45;crt&#45;cpp&#45;&gt;aws&#45;sdk&#45;cpp</title>
<path fill="none" stroke="black" d="M478.09,-78.37C415.16,-65.96 311.08,-45.44 243.28,-32.07"/>
<polygon fill="black" stroke="black" points="244.28,-28.7 233.79,-30.2 242.93,-35.57 244.28,-28.7"/>
</g>
<!-- aws&#45;c&#45;io -->
<g id="node7" class="node">
<title>aws&#45;c&#45;io</title>
<g id="a_node7"><a xlink:href="https://github.com/conda-forge/aws-c-io-feedstock" xlink:title="aws c io">
<ellipse fill="#35b779" stroke="black" cx="343" cy="-378" rx="51.21" ry="18"/>
<text text-anchor="middle" x="343" y="-373.32" font-family="Times,serif" font-size="14.00">aws c io</text>
</a>
</g>
</g>
<!-- aws&#45;c&#45;io&#45;&gt;aws&#45;c&#45;event&#45;stream -->
<g id="edge11" class="edge">
<title>aws&#45;c&#45;io&#45;&gt;aws&#45;c&#45;event&#45;stream</title>
<path fill="none" stroke="black" d="M334.63,-359.88C318.52,-328.29 280.57,-260.05 233,-216 219.69,-203.67 203.01,-192.99 187.53,-184.51"/>
<polygon fill="black" stroke="black" points="189.39,-181.53 178.91,-179.96 186.12,-187.72 189.39,-181.53"/>
</g>
<!-- aws&#45;c&#45;io&#45;&gt;aws&#45;c&#45;s3 -->
<g id="edge12" class="edge">
<title>aws&#45;c&#45;io&#45;&gt;aws&#45;c&#45;s3</title>
<path fill="none" stroke="black" d="M349.05,-359.73C355.77,-341.38 367.48,-311.81 381,-288 401.81,-251.36 431.31,-212.67 451.02,-188.2"/>
<polygon fill="black" stroke="black" points="453.5,-190.7 457.1,-180.73 448.07,-186.28 453.5,-190.7"/>
</g>
<!-- aws&#45;c&#45;io&#45;&gt;awscrt -->
<g id="edge13" class="edge">
<title>aws&#45;c&#45;io&#45;&gt;awscrt</title>
<path fill="none" stroke="black" d="M292.16,-375.1C215.38,-369.15 71.91,-345.4 7,-252 -3.95,-236.24 2.87,-161.45 14,-144 24.66,-127.29 42.63,-115.18 59.72,-106.8"/>
<polygon fill="black" stroke="black" points="61.14,-110 68.79,-102.68 58.24,-103.63 61.14,-110"/>
</g>
<!-- aws&#45;c&#45;io&#45;&gt;aws&#45;crt&#45;cpp -->
<g id="edge14" class="edge">
<title>aws&#45;c&#45;io&#45;&gt;aws&#45;crt&#45;cpp</title>
<path fill="none" stroke="black" d="M380.2,-365.34C387.7,-363.31 395.56,-361.4 403,-360 484.62,-344.62 719.18,-385.49 775,-324 851.64,-239.59 670.39,-148.53 579.77,-109.97"/>
<polygon fill="black" stroke="black" points="581.16,-106.76 570.59,-106.12 578.46,-113.21 581.16,-106.76"/>
</g>
<!-- aws&#45;c&#45;http -->
<g id="node8" class="node">
<title>aws&#45;c&#45;http</title>
<g id="a_node8"><a xlink:href="https://github.com/conda-forge/aws-c-http-feedstock" xlink:title="aws c http">
<ellipse fill="#fde725" stroke="black" cx="453" cy="-306" rx="63.31" ry="18"/>
<text text-anchor="middle" x="453" y="-301.32" font-family="Times,serif" font-size="14.00">aws c http</text>
</a>
</g>
</g>
<!-- aws&#45;c&#45;io&#45;&gt;aws&#45;c&#45;http -->
<g id="edge15" class="edge">
<title>aws&#45;c&#45;io&#45;&gt;aws&#45;c&#45;http</title>
<path fill="none" stroke="black" d="M366.87,-361.81C381.98,-352.2 401.76,-339.61 418.55,-328.92"/>
<polygon fill="black" stroke="black" points="420.2,-332.02 426.76,-323.7 416.44,-326.12 420.2,-332.02"/>
</g>
<!-- aws&#45;c&#45;mqtt -->
<g id="node9" class="node">
<title>aws&#45;c&#45;mqtt</title>
<g id="a_node9"><a xlink:href="https://github.com/conda-forge/aws-c-mqtt-feedstock" xlink:title="aws c mqtt">
<ellipse fill="#fde725" stroke="black" cx="334" cy="-162" rx="66.47" ry="18"/>
<text text-anchor="middle" x="334" y="-157.32" font-family="Times,serif" font-size="14.00">aws c mqtt</text>
</a>
</g>
</g>
<!-- aws&#45;c&#45;io&#45;&gt;aws&#45;c&#45;mqtt -->
<g id="edge16" class="edge">
<title>aws&#45;c&#45;io&#45;&gt;aws&#45;c&#45;mqtt</title>
<path fill="none" stroke="black" d="M342.28,-359.85C340.74,-323.14 337.1,-236.66 335.2,-191.53"/>
<polygon fill="black" stroke="black" points="338.71,-191.59 334.79,-181.74 331.72,-191.88 338.71,-191.59"/>
</g>
<!-- aws&#45;c&#45;auth -->
<g id="node10" class="node">
<title>aws&#45;c&#45;auth</title>
<g id="a_node10"><a xlink:href="https://github.com/conda-forge/aws-c-auth-feedstock" xlink:title="aws c auth">
<ellipse fill="#fde725" stroke="black" cx="584" cy="-234" rx="64.89" ry="18"/>
<text text-anchor="middle" x="584" y="-229.32" font-family="Times,serif" font-size="14.00">aws c auth</text>
</a>
</g>
</g>
<!-- aws&#45;c&#45;io&#45;&gt;aws&#45;c&#45;auth -->
<g id="edge17" class="edge">
<title>aws&#45;c&#45;io&#45;&gt;aws&#45;c&#45;auth</title>
<path fill="none" stroke="black" d="M381.65,-365.92C434.64,-350.71 523.52,-325.09 525,-324 546.42,-308.24 562.36,-282.2 572.24,-262.35"/>
<polygon fill="black" stroke="black" points="575.34,-263.97 576.45,-253.43 569.01,-260.98 575.34,-263.97"/>
</g>
<!-- aws&#45;c&#45;http&#45;&gt;aws&#45;c&#45;s3 -->
<g id="edge18" class="edge">
<title>aws&#45;c&#45;http&#45;&gt;aws&#45;c&#45;s3</title>
<path fill="none" stroke="black" d="M455.33,-287.59C458.54,-263.61 464.36,-220.14 468.2,-191.42"/>
<polygon fill="black" stroke="black" points="471.66,-191.99 469.51,-181.61 464.72,-191.06 471.66,-191.99"/>
</g>
<!-- aws&#45;c&#45;http&#45;&gt;awscrt -->
<g id="edge19" class="edge">
<title>aws&#45;c&#45;http&#45;&gt;awscrt</title>
<path fill="none" stroke="black" d="M390.71,-302.11C274.05,-296.05 32.05,-280.2 7,-252 -5.23,-238.23 0.31,-165.47 14,-144 24.66,-127.29 42.63,-115.18 59.72,-106.8"/>
<polygon fill="black" stroke="black" points="61.14,-110 68.79,-102.68 58.24,-103.63 61.14,-110"/>
</g>
<!-- aws&#45;c&#45;http&#45;&gt;aws&#45;crt&#45;cpp -->
<g id="edge20" class="edge">
<title>aws&#45;c&#45;http&#45;&gt;aws&#45;crt&#45;cpp</title>
<path fill="none" stroke="black" d="M463.74,-287.82C475.06,-269.8 493.51,-240.73 510,-216 520.81,-199.8 529.18,-198.59 535,-180 541.12,-160.46 540.11,-137.32 537.7,-119.53"/>
<polygon fill="black" stroke="black" points="541.16,-119 536.12,-109.68 534.25,-120.1 541.16,-119"/>
</g>
<!-- aws&#45;c&#45;http&#45;&gt;aws&#45;c&#45;mqtt -->
<g id="edge21" class="edge">
<title>aws&#45;c&#45;http&#45;&gt;aws&#45;c&#45;mqtt</title>
<path fill="none" stroke="black" d="M438.89,-288.15C418.22,-263.49 379.57,-217.37 355.4,-188.53"/>
<polygon fill="black" stroke="black" points="358.18,-186.4 349.08,-180.99 352.82,-190.9 358.18,-186.4"/>
</g>
<!-- aws&#45;c&#45;http&#45;&gt;aws&#45;c&#45;auth -->
<g id="edge22" class="edge">
<title>aws&#45;c&#45;http&#45;&gt;aws&#45;c&#45;auth</title>
<path fill="none" stroke="black" d="M481.75,-289.64C500.44,-279.65 525.02,-266.52 545.4,-255.63"/>
<polygon fill="black" stroke="black" points="546.82,-258.84 553.99,-251.04 543.52,-252.67 546.82,-258.84"/>
</g>
<!-- aws&#45;c&#45;mqtt&#45;&gt;awscrt -->
<g id="edge23" class="edge">
<title>aws&#45;c&#45;mqtt&#45;&gt;awscrt</title>
<path fill="none" stroke="black" d="M291.01,-147.92C250.76,-135.66 190.8,-117.42 149.69,-104.91"/>
<polygon fill="black" stroke="black" points="150.93,-101.62 140.34,-102.06 148.89,-108.32 150.93,-101.62"/>
</g>
<!-- aws&#45;c&#45;mqtt&#45;&gt;aws&#45;crt&#45;cpp -->
<g id="edge24" class="edge">
<title>aws&#45;c&#45;mqtt&#45;&gt;aws&#45;crt&#45;cpp</title>
<path fill="none" stroke="black" d="M373.12,-147.17C404.24,-136.17 448,-120.7 481.72,-108.78"/>
<polygon fill="black" stroke="black" points="482.6,-112.18 490.86,-105.55 480.27,-105.58 482.6,-112.18"/>
</g>
<!-- aws&#45;c&#45;auth&#45;&gt;aws&#45;c&#45;s3 -->
<g id="edge25" class="edge">
<title>aws&#45;c&#45;auth&#45;&gt;aws&#45;c&#45;s3</title>
<path fill="none" stroke="black" d="M558.59,-217.12C543.05,-207.4 522.98,-194.86 506.08,-184.3"/>
<polygon fill="black" stroke="black" points="508.17,-181.47 497.83,-179.14 504.46,-187.41 508.17,-181.47"/>
</g>
<!-- aws&#45;c&#45;auth&#45;&gt;awscrt -->
<g id="edge26" class="edge">
<title>aws&#45;c&#45;auth&#45;&gt;awscrt</title>
<path fill="none" stroke="black" d="M579.65,-215.67C573.45,-194.94 559.98,-160.9 535,-144 475.11,-103.47 262.92,-93.92 160.34,-91.68"/>
<polygon fill="black" stroke="black" points="160.56,-88.18 150.5,-91.48 160.42,-95.18 160.56,-88.18"/>
</g>
<!-- aws&#45;c&#45;auth&#45;&gt;aws&#45;crt&#45;cpp -->
<g id="edge27" class="edge">
<title>aws&#45;c&#45;auth&#45;&gt;aws&#45;crt&#45;cpp</title>
<path fill="none" stroke="black" d="M595.11,-215.77C605.55,-197.21 617.93,-167.22 606,-144 599.28,-130.91 587.66,-120.33 575.59,-112.17"/>
<polygon fill="black" stroke="black" points="577.53,-109.25 567.19,-106.94 573.83,-115.2 577.53,-109.25"/>
</g>
<!-- aws&#45;c&#45;compression -->
<g id="node11" class="node">
<title>aws&#45;c&#45;compression</title>
<g id="a_node11"><a xlink:href="https://github.com/conda-forge/aws-c-compression-feedstock/pull/71" xlink:title="aws c compression ❎">
<ellipse fill="#31688e" stroke="black" cx="533" cy="-378" rx="120.65" ry="18"/>
<text text-anchor="middle" x="533" y="-373.32" font-family="Times,serif" font-size="14.00" fill="white">aws c compression ❎</text>
</a>
</g>
</g>
<!-- aws&#45;c&#45;compression&#45;&gt;aws&#45;c&#45;http -->
<g id="edge28" class="edge">
<title>aws&#45;c&#45;compression&#45;&gt;aws&#45;c&#45;http</title>
<path fill="none" stroke="black" d="M513.64,-360.05C503.64,-351.31 491.27,-340.49 480.32,-330.9"/>
<polygon fill="black" stroke="black" points="482.88,-328.5 473.05,-324.54 478.28,-333.76 482.88,-328.5"/>
</g>
<!-- aws&#45;c&#45;sdkutils -->
<g id="node12" class="node">
<title>aws&#45;c&#45;sdkutils</title>
<g id="a_node12"><a xlink:href="https://github.com/conda-forge/aws-c-sdkutils-feedstock/pull/73" xlink:title="aws c sdkutils ❎">
<ellipse fill="#31688e" stroke="black" cx="669" cy="-306" rx="96.98" ry="18"/>
<text text-anchor="middle" x="669" y="-301.32" font-family="Times,serif" font-size="14.00" fill="white">aws c sdkutils ❎</text>
</a>
</g>
</g>
<!-- aws&#45;c&#45;sdkutils&#45;&gt;aws&#45;crt&#45;cpp -->
<g id="edge29" class="edge">
<title>aws&#45;c&#45;sdkutils&#45;&gt;aws&#45;crt&#45;cpp</title>
<path fill="none" stroke="black" d="M668.81,-287.51C667.52,-254.99 660.16,-184.86 622,-144 609.52,-130.63 592.89,-119.56 577.33,-111.06"/>
<polygon fill="black" stroke="black" points="579.14,-108.06 568.66,-106.55 575.91,-114.27 579.14,-108.06"/>
</g>
<!-- aws&#45;c&#45;sdkutils&#45;&gt;aws&#45;c&#45;auth -->
<g id="edge30" class="edge">
<title>aws&#45;c&#45;sdkutils&#45;&gt;aws&#45;c&#45;auth</title>
<path fill="none" stroke="black" d="M648.43,-288.05C637.7,-279.22 624.41,-268.27 612.68,-258.62"/>
<polygon fill="black" stroke="black" points="615.21,-256.16 605.27,-252.51 610.76,-261.57 615.21,-256.16"/>
</g>
</g>
</svg>
