<?xml version="1.0" encoding="UTF-8" standalone="no"?>
<!DOCTYPE svg PUBLIC "-//W3C//DTD SVG 1.1//EN"
 "http://www.w3.org/Graphics/SVG/1.1/DTD/svg11.dtd">
<!-- Generated by graphviz version 12.0.0 (20240803.0821)
 -->
<!-- Pages: 1 -->
<svg width="611pt" height="260pt"
 viewBox="0.00 0.00 610.76 260.00" xmlns="http://www.w3.org/2000/svg" xmlns:xlink="http://www.w3.org/1999/xlink">
<g id="graph0" class="graph" transform="scale(1 1) rotate(0) translate(4 256)">
<polygon fill="white" stroke="none" points="-4,4 -4,-256 606.76,-256 606.76,4 -4,4"/>
<!-- aws&#45;sdk&#45;cpp -->
<g id="node1" class="node">
<title>aws&#45;sdk&#45;cpp</title>
<g id="a_node1"><a xlink:href="https://github.com/conda-forge/aws-sdk-cpp-feedstock" xlink:title="aws sdk cpp">
<ellipse fill="#fde725" stroke="black" cx="192.62" cy="-18" rx="72.25" ry="18"/>
<text text-anchor="middle" x="192.62" y="-13.32" font-family="Times,serif" font-size="14.00">aws sdk cpp</text>
</a>
</g>
</g>
<!-- aws&#45;c&#45;event&#45;stream -->
<g id="node2" class="node">
<title>aws&#45;c&#45;event&#45;stream</title>
<g id="a_node2"><a xlink:href="https://github.com/conda-forge/aws-c-event-stream-feedstock/pull/197" xlink:title="aws c event stream ❎">
<ellipse fill="#31688e" stroke="black" cx="144.62" cy="-162" rx="123.81" ry="18"/>
<text text-anchor="middle" x="144.62" y="-157.32" font-family="Times,serif" font-size="14.00" fill="white">aws c event stream ❎</text>
</a>
</g>
</g>
<!-- aws&#45;c&#45;event&#45;stream&#45;&gt;aws&#45;sdk&#45;cpp -->
<g id="edge2" class="edge">
<title>aws&#45;c&#45;event&#45;stream&#45;&gt;aws&#45;sdk&#45;cpp</title>
<path fill="none" stroke="black" d="M146.82,-143.52C149.47,-125.26 154.71,-95.99 163.62,-72 166.9,-63.15 171.46,-53.97 175.99,-45.79"/>
<polygon fill="black" stroke="black" points="178.89,-47.78 180.86,-37.37 172.83,-44.27 178.89,-47.78"/>
</g>
<!-- aws&#45;crt&#45;cpp -->
<g id="node5" class="node">
<title>aws&#45;crt&#45;cpp</title>
<g id="a_node5"><a xlink:href="https://github.com/conda-forge/aws-crt-cpp-feedstock" xlink:title="aws crt cpp">
<ellipse fill="#fde725" stroke="black" cx="241.62" cy="-90" rx="69.1" ry="18"/>
<text text-anchor="middle" x="241.62" y="-85.33" font-family="Times,serif" font-size="14.00">aws crt cpp</text>
</a>
</g>
</g>
<!-- aws&#45;c&#45;event&#45;stream&#45;&gt;aws&#45;crt&#45;cpp -->
<g id="edge1" class="edge">
<title>aws&#45;c&#45;event&#45;stream&#45;&gt;aws&#45;crt&#45;cpp</title>
<path fill="none" stroke="black" d="M168.1,-144.05C180.67,-134.98 196.33,-123.68 209.97,-113.84"/>
<polygon fill="black" stroke="black" points="211.73,-116.88 217.79,-108.19 207.64,-111.21 211.73,-116.88"/>
</g>
<!-- awscrt -->
<g id="node7" class="node">
<title>awscrt</title>
<g id="a_node7"><a xlink:href="https://github.com/conda-forge/awscrt-feedstock" xlink:title="awscrt">
<ellipse fill="#fde725" stroke="black" cx="447.62" cy="-90" rx="44.89" ry="18"/>
<text text-anchor="middle" x="447.62" y="-85.33" font-family="Times,serif" font-size="14.00">awscrt</text>
</a>
</g>
</g>
<!-- aws&#45;c&#45;event&#45;stream&#45;&gt;awscrt -->
<g id="edge3" class="edge">
<title>aws&#45;c&#45;event&#45;stream&#45;&gt;awscrt</title>
<path fill="none" stroke="black" d="M208.5,-146.24C265.16,-133.15 346.73,-114.31 398.44,-102.36"/>
<polygon fill="black" stroke="black" points="399.2,-105.78 408.16,-100.12 397.63,-98.96 399.2,-105.78"/>
</g>
<!-- aws&#45;c&#45;mqtt -->
<g id="node3" class="node">
<title>aws&#45;c&#45;mqtt</title>
<g id="a_node3"><a xlink:href="https://github.com/conda-forge/aws-c-mqtt-feedstock/pull/239" xlink:title="aws c mqtt ❎">
<ellipse fill="#31688e" stroke="black" cx="368.62" cy="-162" rx="81.72" ry="18"/>
<text text-anchor="middle" x="368.62" y="-157.32" font-family="Times,serif" font-size="14.00" fill="white">aws c mqtt ❎</text>
</a>
</g>
</g>
<!-- aws&#45;c&#45;mqtt&#45;&gt;aws&#45;crt&#45;cpp -->
<g id="edge4" class="edge">
<title>aws&#45;c&#45;mqtt&#45;&gt;aws&#45;crt&#45;cpp</title>
<path fill="none" stroke="black" d="M339.16,-144.76C321.52,-135.04 298.9,-122.58 279.89,-112.1"/>
<polygon fill="black" stroke="black" points="281.81,-109.16 271.36,-107.4 278.43,-115.29 281.81,-109.16"/>
</g>
<!-- aws&#45;c&#45;mqtt&#45;&gt;awscrt -->
<g id="edge5" class="edge">
<title>aws&#45;c&#45;mqtt&#45;&gt;awscrt</title>
<path fill="none" stroke="black" d="M387.74,-144.05C397.83,-135.12 410.36,-124.01 421.35,-114.28"/>
<polygon fill="black" stroke="black" points="423.46,-117.08 428.62,-107.83 418.81,-111.85 423.46,-117.08"/>
</g>
<!-- aws&#45;c&#45;auth -->
<g id="node4" class="node">
<title>aws&#45;c&#45;auth</title>
<g id="a_node4"><a xlink:href="https://github.com/conda-forge/aws-c-auth-feedstock/pull/305" xlink:title="aws c auth ❎">
<ellipse fill="#31688e" stroke="black" cx="522.62" cy="-234" rx="80.14" ry="18"/>
<text text-anchor="middle" x="522.62" y="-229.32" font-family="Times,serif" font-size="14.00" fill="white">aws c auth ❎</text>
</a>
</g>
</g>
<!-- aws&#45;c&#45;auth&#45;&gt;aws&#45;crt&#45;cpp -->
<g id="edge7" class="edge">
<title>aws&#45;c&#45;auth&#45;&gt;aws&#45;crt&#45;cpp</title>
<path fill="none" stroke="black" d="M443.62,-230.51C307.37,-225.4 39.97,-211.44 11.62,-180 -36.9,-126.19 79.22,-104.63 163.52,-96.2"/>
<polygon fill="black" stroke="black" points="163.8,-99.69 173.42,-95.26 163.14,-92.72 163.8,-99.69"/>
</g>
<!-- aws&#45;c&#45;s3 -->
<g id="node6" class="node">
<title>aws&#45;c&#45;s3</title>
<g id="a_node6"><a xlink:href="https://github.com/conda-forge/aws-c-s3-feedstock" xlink:title="aws c s3">
<ellipse fill="#fde725" stroke="black" cx="522.62" cy="-162" rx="53.84" ry="18"/>
<text text-anchor="middle" x="522.62" y="-157.32" font-family="Times,serif" font-size="14.00">aws c s3</text>
</a>
</g>
</g>
<!-- aws&#45;c&#45;auth&#45;&gt;aws&#45;c&#45;s3 -->
<g id="edge6" class="edge">
<title>aws&#45;c&#45;auth&#45;&gt;aws&#45;c&#45;s3</title>
<path fill="none" stroke="black" d="M522.62,-215.7C522.62,-208.41 522.62,-199.73 522.62,-191.54"/>
<polygon fill="black" stroke="black" points="526.12,-191.62 522.62,-181.62 519.12,-191.62 526.12,-191.62"/>
</g>
<!-- aws&#45;c&#45;auth&#45;&gt;awscrt -->
<g id="edge8" class="edge">
<title>aws&#45;c&#45;auth&#45;&gt;awscrt</title>
<path fill="none" stroke="black" d="M551.27,-216.96C564.32,-207.96 578.44,-195.42 585.62,-180 592.37,-165.49 594.68,-157.19 585.62,-144 566.93,-116.8 532.2,-103.56 502.26,-97.11"/>
<polygon fill="black" stroke="black" points="503.03,-93.69 492.55,-95.24 501.71,-100.57 503.03,-93.69"/>
</g>
<!-- aws&#45;crt&#45;cpp&#45;&gt;aws&#45;sdk&#45;cpp -->
<g id="edge9" class="edge">
<title>aws&#45;crt&#45;cpp&#45;&gt;aws&#45;sdk&#45;cpp</title>
<path fill="none" stroke="black" d="M229.76,-72.05C224.1,-63.97 217.2,-54.12 210.89,-45.11"/>
<polygon fill="black" stroke="black" points="213.84,-43.21 205.24,-37.03 208.1,-47.23 213.84,-43.21"/>
</g>
<!-- aws&#45;c&#45;s3&#45;&gt;aws&#45;crt&#45;cpp -->
<g id="edge10" class="edge">
<title>aws&#45;c&#45;s3&#45;&gt;aws&#45;crt&#45;cpp</title>
<path fill="none" stroke="black" d="M481.99,-149.88C474.55,-147.89 466.86,-145.86 459.62,-144 406.69,-130.43 346.3,-115.81 302.53,-105.38"/>
<polygon fill="black" stroke="black" points="303.5,-102.01 292.96,-103.1 301.88,-108.82 303.5,-102.01"/>
</g>
<!-- aws&#45;c&#45;s3&#45;&gt;awscrt -->
<g id="edge11" class="edge">
<title>aws&#45;c&#45;s3&#45;&gt;awscrt</title>
<path fill="none" stroke="black" d="M505.22,-144.76C495.59,-135.78 483.45,-124.45 472.8,-114.51"/>
<polygon fill="black" stroke="black" points="475.46,-112.2 465.77,-107.94 470.69,-117.32 475.46,-112.2"/>
</g>
</g>
</svg>
