<?xml version="1.0" encoding="UTF-8" standalone="no"?>
<!DOCTYPE svg PUBLIC "-//W3C//DTD SVG 1.1//EN"
 "http://www.w3.org/Graphics/SVG/1.1/DTD/svg11.dtd">
<!-- Generated by graphviz version 12.0.0 (20240803.0821)
 -->
<!-- Pages: 1 -->
<svg width="412pt" height="116pt"
 viewBox="0.00 0.00 411.91 116.00" xmlns="http://www.w3.org/2000/svg" xmlns:xlink="http://www.w3.org/1999/xlink">
<g id="graph0" class="graph" transform="scale(1 1) rotate(0) translate(4 112)">
<polygon fill="white" stroke="none" points="-4,4 -4,-112 407.91,-112 407.91,4 -4,4"/>
<!-- aws&#45;sdk&#45;cpp -->
<g id="node1" class="node">
<title>aws&#45;sdk&#45;cpp</title>
<g id="a_node1"><a xlink:href="https://github.com/conda-forge/aws-sdk-cpp-feedstock" xlink:title="aws sdk cpp">
<ellipse fill="#fde725" stroke="black" cx="123.81" cy="-18" rx="72.25" ry="18"/>
<text text-anchor="middle" x="123.81" y="-13.32" font-family="Times,serif" font-size="14.00">aws sdk cpp</text>
</a>
</g>
</g>
<!-- aws&#45;c&#45;event&#45;stream -->
<g id="node2" class="node">
<title>aws&#45;c&#45;event&#45;stream</title>
<g id="a_node2"><a xlink:href="https://github.com/conda-forge/aws-c-event-stream-feedstock/pull/187" xlink:title="aws c event stream ❎">
<ellipse fill="#31688e" stroke="black" cx="123.81" cy="-90" rx="123.81" ry="18"/>
<text text-anchor="middle" x="123.81" y="-85.33" font-family="Times,serif" font-size="14.00" fill="white">aws c event stream ❎</text>
</a>
</g>
</g>
<!-- aws&#45;c&#45;event&#45;stream&#45;&gt;aws&#45;sdk&#45;cpp -->
<g id="edge1" class="edge">
<title>aws&#45;c&#45;event&#45;stream&#45;&gt;aws&#45;sdk&#45;cpp</title>
<path fill="none" stroke="black" d="M123.81,-71.7C123.81,-64.41 123.81,-55.73 123.81,-47.54"/>
<polygon fill="black" stroke="black" points="127.31,-47.62 123.81,-37.62 120.31,-47.62 127.31,-47.62"/>
</g>
<!-- awscrt -->
<g id="node4" class="node">
<title>awscrt</title>
<g id="a_node4"><a xlink:href="https://github.com/conda-forge/awscrt-feedstock" xlink:title="awscrt">
<ellipse fill="#fde725" stroke="black" cx="296.81" cy="-18" rx="44.89" ry="18"/>
<text text-anchor="middle" x="296.81" y="-13.32" font-family="Times,serif" font-size="14.00">awscrt</text>
</a>
</g>
</g>
<!-- aws&#45;c&#45;event&#45;stream&#45;&gt;awscrt -->
<g id="edge2" class="edge">
<title>aws&#45;c&#45;event&#45;stream&#45;&gt;awscrt</title>
<path fill="none" stroke="black" d="M164.37,-72.59C191.79,-61.49 227.89,-46.89 255.47,-35.73"/>
<polygon fill="black" stroke="black" points="256.6,-39.04 264.56,-32.05 253.98,-32.56 256.6,-39.04"/>
</g>
<!-- aws&#45;c&#45;s3 -->
<g id="node3" class="node">
<title>aws&#45;c&#45;s3</title>
<g id="a_node3"><a xlink:href="https://github.com/conda-forge/aws-c-s3-feedstock/pull/360" xlink:title="aws c s3 ❎">
<ellipse fill="#31688e" stroke="black" cx="334.81" cy="-90" rx="69.1" ry="18"/>
<text text-anchor="middle" x="334.81" y="-85.33" font-family="Times,serif" font-size="14.00" fill="white">aws c s3 ❎</text>
</a>
</g>
</g>
<!-- aws&#45;c&#45;s3&#45;&gt;awscrt -->
<g id="edge3" class="edge">
<title>aws&#45;c&#45;s3&#45;&gt;awscrt</title>
<path fill="none" stroke="black" d="M325.42,-71.7C321.23,-63.98 316.2,-54.71 311.53,-46.11"/>
<polygon fill="black" stroke="black" points="314.67,-44.55 306.82,-37.43 308.51,-47.89 314.67,-44.55"/>
</g>
</g>
</svg>
