<?xml version="1.0" encoding="UTF-8" standalone="no"?>
<!DOCTYPE svg PUBLIC "-//W3C//DTD SVG 1.1//EN"
 "http://www.w3.org/Graphics/SVG/1.1/DTD/svg11.dtd">
<!-- Generated by graphviz version 12.2.1 (20250203.1708)
 -->
<!-- Pages: 1 -->
<svg width="879pt" height="404pt"
 viewBox="0.00 0.00 878.56 404.00" xmlns="http://www.w3.org/2000/svg" xmlns:xlink="http://www.w3.org/1999/xlink">
<g id="graph0" class="graph" transform="scale(1 1) rotate(0) translate(4 400)">
<polygon fill="white" stroke="none" points="-4,4 -4,-400 874.56,-400 874.56,4 -4,4"/>
<!-- aws&#45;sdk&#45;cpp -->
<g id="node1" class="node">
<title>aws&#45;sdk&#45;cpp</title>
<g id="a_node1"><a xlink:href="https://github.com/conda-forge/aws-sdk-cpp-feedstock" xlink:title="aws sdk cpp">
<ellipse fill="#fde725" stroke="black" cx="742.35" cy="-18" rx="72.25" ry="18"/>
<text text-anchor="middle" x="742.35" y="-13.32" font-family="Times,serif" font-size="14.00">aws sdk cpp</text>
</a>
</g>
</g>
<!-- aws&#45;checksums -->
<g id="node2" class="node">
<title>aws&#45;checksums</title>
<g id="a_node2"><a xlink:href="https://github.com/conda-forge/aws-checksums-feedstock/pull/96" xlink:title="aws checksums ❎">
<ellipse fill="#31688e" stroke="black" cx="699.35" cy="-234" rx="103.82" ry="18"/>
<text text-anchor="middle" x="699.35" y="-229.32" font-family="Times,serif" font-size="14.00" fill="white">aws checksums ❎</text>
</a>
</g>
</g>
<!-- aws&#45;checksums&#45;&gt;aws&#45;sdk&#45;cpp -->
<g id="edge1" class="edge">
<title>aws&#45;checksums&#45;&gt;aws&#45;sdk&#45;cpp</title>
<path fill="none" stroke="black" d="M787.46,-224.28C815.32,-216.88 843.27,-203.6 860.35,-180 896.38,-130.2 825.83,-72.11 779.09,-41.14"/>
<polygon fill="black" stroke="black" points="781.1,-38.26 770.8,-35.77 777.29,-44.14 781.1,-38.26"/>
</g>
<!-- aws&#45;c&#45;event&#45;stream -->
<g id="node3" class="node">
<title>aws&#45;c&#45;event&#45;stream</title>
<g id="a_node3"><a xlink:href="https://github.com/conda-forge/aws-c-event-stream-feedstock" xlink:title="aws c event stream">
<ellipse fill="#fde725" stroke="black" cx="742.35" cy="-162" rx="108.55" ry="18"/>
<text text-anchor="middle" x="742.35" y="-157.32" font-family="Times,serif" font-size="14.00">aws c event stream</text>
</a>
</g>
</g>
<!-- aws&#45;checksums&#45;&gt;aws&#45;c&#45;event&#45;stream -->
<g id="edge2" class="edge">
<title>aws&#45;checksums&#45;&gt;aws&#45;c&#45;event&#45;stream</title>
<path fill="none" stroke="black" d="M709.97,-215.7C714.76,-207.9 720.53,-198.51 725.86,-189.83"/>
<polygon fill="black" stroke="black" points="728.79,-191.75 731.05,-181.39 722.83,-188.08 728.79,-191.75"/>
</g>
<!-- aws&#45;c&#45;s3 -->
<g id="node4" class="node">
<title>aws&#45;c&#45;s3</title>
<g id="a_node4"><a xlink:href="https://github.com/conda-forge/aws-c-s3-feedstock" xlink:title="aws c s3">
<ellipse fill="#fde725" stroke="black" cx="297.35" cy="-162" rx="53.84" ry="18"/>
<text text-anchor="middle" x="297.35" y="-157.32" font-family="Times,serif" font-size="14.00">aws c s3</text>
</a>
</g>
</g>
<!-- aws&#45;checksums&#45;&gt;aws&#45;c&#45;s3 -->
<g id="edge3" class="edge">
<title>aws&#45;checksums&#45;&gt;aws&#45;c&#45;s3</title>
<path fill="none" stroke="black" d="M617.03,-222.68C548.1,-213.42 447.31,-198.47 360.35,-180 356.34,-179.15 352.21,-178.2 348.08,-177.2"/>
<polygon fill="black" stroke="black" points="349.2,-173.87 338.65,-174.82 347.49,-180.66 349.2,-173.87"/>
</g>
<!-- awscrt -->
<g id="node5" class="node">
<title>awscrt</title>
<g id="a_node5"><a xlink:href="https://github.com/conda-forge/awscrt-feedstock" xlink:title="awscrt">
<ellipse fill="#fde725" stroke="black" cx="529.35" cy="-90" rx="44.9" ry="18"/>
<text text-anchor="middle" x="529.35" y="-85.33" font-family="Times,serif" font-size="14.00">awscrt</text>
</a>
</g>
</g>
<!-- aws&#45;checksums&#45;&gt;awscrt -->
<g id="edge4" class="edge">
<title>aws&#45;checksums&#45;&gt;awscrt</title>
<path fill="none" stroke="black" d="M673.71,-216.17C658.91,-206.15 640.16,-192.9 624.35,-180 598.98,-159.32 571.91,-133.55 553.18,-115.08"/>
<polygon fill="black" stroke="black" points="555.83,-112.78 546.27,-108.21 550.9,-117.74 555.83,-112.78"/>
</g>
<!-- aws&#45;c&#45;event&#45;stream&#45;&gt;aws&#45;sdk&#45;cpp -->
<g id="edge5" class="edge">
<title>aws&#45;c&#45;event&#45;stream&#45;&gt;aws&#45;sdk&#45;cpp</title>
<path fill="none" stroke="black" d="M742.35,-143.59C742.35,-119.61 742.35,-76.14 742.35,-47.42"/>
<polygon fill="black" stroke="black" points="745.85,-47.62 742.35,-37.62 738.85,-47.62 745.85,-47.62"/>
</g>
<!-- aws&#45;c&#45;event&#45;stream&#45;&gt;awscrt -->
<g id="edge6" class="edge">
<title>aws&#45;c&#45;event&#45;stream&#45;&gt;awscrt</title>
<path fill="none" stroke="black" d="M694.81,-145.38C658.59,-133.47 609.07,-117.2 573.67,-105.57"/>
<polygon fill="black" stroke="black" points="575.2,-102.38 564.6,-102.59 573.01,-109.03 575.2,-102.38"/>
</g>
<!-- aws&#45;crt&#45;cpp -->
<g id="node6" class="node">
<title>aws&#45;crt&#45;cpp</title>
<g id="a_node6"><a xlink:href="https://github.com/conda-forge/aws-crt-cpp-feedstock" xlink:title="aws crt cpp">
<ellipse fill="#fde725" stroke="black" cx="256.35" cy="-90" rx="69.1" ry="18"/>
<text text-anchor="middle" x="256.35" y="-85.33" font-family="Times,serif" font-size="14.00">aws crt cpp</text>
</a>
</g>
</g>
<!-- aws&#45;c&#45;event&#45;stream&#45;&gt;aws&#45;crt&#45;cpp -->
<g id="edge7" class="edge">
<title>aws&#45;c&#45;event&#45;stream&#45;&gt;aws&#45;crt&#45;cpp</title>
<path fill="none" stroke="black" d="M662.36,-149.48C569.05,-136.04 416.21,-114.03 327.06,-101.19"/>
<polygon fill="black" stroke="black" points="327.61,-97.73 317.22,-99.77 326.61,-104.66 327.61,-97.73"/>
</g>
<!-- aws&#45;c&#45;s3&#45;&gt;awscrt -->
<g id="edge8" class="edge">
<title>aws&#45;c&#45;s3&#45;&gt;awscrt</title>
<path fill="none" stroke="black" d="M336.44,-149.2C376.98,-136.97 440.33,-117.86 483.28,-104.9"/>
<polygon fill="black" stroke="black" points="484.26,-108.26 492.82,-102.02 482.24,-101.56 484.26,-108.26"/>
</g>
<!-- aws&#45;c&#45;s3&#45;&gt;aws&#45;crt&#45;cpp -->
<g id="edge9" class="edge">
<title>aws&#45;c&#45;s3&#45;&gt;aws&#45;crt&#45;cpp</title>
<path fill="none" stroke="black" d="M287.42,-144.05C282.85,-136.26 277.33,-126.82 272.21,-118.08"/>
<polygon fill="black" stroke="black" points="275.3,-116.44 267.23,-109.58 269.26,-119.98 275.3,-116.44"/>
</g>
<!-- aws&#45;crt&#45;cpp&#45;&gt;aws&#45;sdk&#45;cpp -->
<g id="edge10" class="edge">
<title>aws&#45;crt&#45;cpp&#45;&gt;aws&#45;sdk&#45;cpp</title>
<path fill="none" stroke="black" d="M315.45,-80.49C404.63,-67.64 573.4,-43.33 669.87,-29.44"/>
<polygon fill="black" stroke="black" points="670.08,-32.94 679.48,-28.05 669.08,-26.02 670.08,-32.94"/>
</g>
<!-- aws&#45;c&#45;io -->
<g id="node7" class="node">
<title>aws&#45;c&#45;io</title>
<g id="a_node7"><a xlink:href="https://github.com/conda-forge/aws-c-io-feedstock" xlink:title="aws c io">
<ellipse fill="#ff8c00" stroke="black" cx="386.35" cy="-378" rx="51.21" ry="18"/>
<text text-anchor="middle" x="386.35" y="-373.32" font-family="Times,serif" font-size="14.00">aws c io</text>
</a>
</g>
</g>
<!-- aws&#45;c&#45;io&#45;&gt;aws&#45;c&#45;event&#45;stream -->
<g id="edge11" class="edge">
<title>aws&#45;c&#45;io&#45;&gt;aws&#45;c&#45;event&#45;stream</title>
<path fill="none" stroke="black" d="M433.16,-370.41C534.11,-355.14 766.84,-313.85 812.35,-252 821.83,-239.11 819.47,-230.33 812.35,-216 806.3,-203.84 795.99,-193.73 785.11,-185.71"/>
<polygon fill="black" stroke="black" points="787.41,-183.04 777.18,-180.32 783.48,-188.83 787.41,-183.04"/>
</g>
<!-- aws&#45;c&#45;io&#45;&gt;aws&#45;c&#45;s3 -->
<g id="edge12" class="edge">
<title>aws&#45;c&#45;io&#45;&gt;aws&#45;c&#45;s3</title>
<path fill="none" stroke="black" d="M357.03,-363C341.67,-354.07 324.07,-340.96 314.35,-324 290.68,-282.74 290.87,-225.68 293.72,-191.74"/>
<polygon fill="black" stroke="black" points="297.2,-192.15 294.7,-181.85 290.23,-191.46 297.2,-192.15"/>
</g>
<!-- aws&#45;c&#45;io&#45;&gt;awscrt -->
<g id="edge13" class="edge">
<title>aws&#45;c&#45;io&#45;&gt;awscrt</title>
<path fill="none" stroke="black" d="M420.12,-364.15C439.2,-355.39 462.19,-342.07 477.35,-324 530.94,-260.11 531.13,-227.39 530.35,-144 530.27,-136.06 530.13,-127.44 529.98,-119.51"/>
<polygon fill="black" stroke="black" points="533.48,-119.62 529.78,-109.7 526.49,-119.77 533.48,-119.62"/>
</g>
<!-- aws&#45;c&#45;io&#45;&gt;aws&#45;crt&#45;cpp -->
<g id="edge14" class="edge">
<title>aws&#45;c&#45;io&#45;&gt;aws&#45;crt&#45;cpp</title>
<path fill="none" stroke="black" d="M334.72,-377.31C244.87,-376.62 65.57,-369.42 26.35,-324 -28.08,-260.97 2.2,-242.86 125.35,-144 146.25,-127.22 173.17,-115.11 197.17,-106.74"/>
<polygon fill="black" stroke="black" points="198.14,-110.1 206.52,-103.63 195.93,-103.46 198.14,-110.1"/>
</g>
<!-- aws&#45;c&#45;http -->
<g id="node8" class="node">
<title>aws&#45;c&#45;http</title>
<g id="a_node8"><a xlink:href="https://github.com/conda-forge/aws-c-http-feedstock" xlink:title="aws c http">
<ellipse fill="#fde725" stroke="black" cx="386.35" cy="-306" rx="63.31" ry="18"/>
<text text-anchor="middle" x="386.35" y="-301.32" font-family="Times,serif" font-size="14.00">aws c http</text>
</a>
</g>
</g>
<!-- aws&#45;c&#45;io&#45;&gt;aws&#45;c&#45;http -->
<g id="edge15" class="edge">
<title>aws&#45;c&#45;io&#45;&gt;aws&#45;c&#45;http</title>
<path fill="none" stroke="black" d="M386.35,-359.7C386.35,-352.41 386.35,-343.73 386.35,-335.54"/>
<polygon fill="black" stroke="black" points="389.85,-335.62 386.35,-325.62 382.85,-335.62 389.85,-335.62"/>
</g>
<!-- aws&#45;c&#45;mqtt -->
<g id="node9" class="node">
<title>aws&#45;c&#45;mqtt</title>
<g id="a_node9"><a xlink:href="https://github.com/conda-forge/aws-c-mqtt-feedstock" xlink:title="aws c mqtt">
<ellipse fill="#fde725" stroke="black" cx="435.35" cy="-162" rx="66.47" ry="18"/>
<text text-anchor="middle" x="435.35" y="-157.32" font-family="Times,serif" font-size="14.00">aws c mqtt</text>
</a>
</g>
</g>
<!-- aws&#45;c&#45;io&#45;&gt;aws&#45;c&#45;mqtt -->
<g id="edge16" class="edge">
<title>aws&#45;c&#45;io&#45;&gt;aws&#45;c&#45;mqtt</title>
<path fill="none" stroke="black" d="M416.73,-363.17C432.22,-354.36 449.59,-341.31 458.35,-324 480.09,-280.99 462.61,-223.75 448.55,-190.38"/>
<polygon fill="black" stroke="black" points="451.83,-189.15 444.58,-181.42 445.43,-191.98 451.83,-189.15"/>
</g>
<!-- aws&#45;c&#45;auth -->
<g id="node10" class="node">
<title>aws&#45;c&#45;auth</title>
<g id="a_node10"><a xlink:href="https://github.com/conda-forge/aws-c-auth-feedstock" xlink:title="aws c auth">
<ellipse fill="#fde725" stroke="black" cx="197.35" cy="-234" rx="64.89" ry="18"/>
<text text-anchor="middle" x="197.35" y="-229.32" font-family="Times,serif" font-size="14.00">aws c auth</text>
</a>
</g>
</g>
<!-- aws&#45;c&#45;io&#45;&gt;aws&#45;c&#45;auth -->
<g id="edge17" class="edge">
<title>aws&#45;c&#45;io&#45;&gt;aws&#45;c&#45;auth</title>
<path fill="none" stroke="black" d="M353.43,-363.93C331.85,-354.52 303.61,-340.6 281.35,-324 256.9,-305.77 233.47,-280.01 217.59,-260.89"/>
<polygon fill="black" stroke="black" points="220.42,-258.82 211.39,-253.27 214.99,-263.24 220.42,-258.82"/>
</g>
<!-- aws&#45;c&#45;http&#45;&gt;aws&#45;c&#45;s3 -->
<g id="edge18" class="edge">
<title>aws&#45;c&#45;http&#45;&gt;aws&#45;c&#45;s3</title>
<path fill="none" stroke="black" d="M380.77,-287.72C374.33,-269.11 362.61,-239.07 347.35,-216 340.64,-205.87 331.94,-195.89 323.67,-187.36"/>
<polygon fill="black" stroke="black" points="326.27,-185.01 316.72,-180.44 321.33,-189.98 326.27,-185.01"/>
</g>
<!-- aws&#45;c&#45;http&#45;&gt;awscrt -->
<g id="edge19" class="edge">
<title>aws&#45;c&#45;http&#45;&gt;awscrt</title>
<path fill="none" stroke="black" d="M409.06,-288.77C437.4,-267.25 485.18,-226.51 510.35,-180 520.41,-161.39 525.14,-137.9 527.37,-119.73"/>
<polygon fill="black" stroke="black" points="530.84,-120.2 528.37,-109.9 523.88,-119.49 530.84,-120.2"/>
</g>
<!-- aws&#45;c&#45;http&#45;&gt;aws&#45;crt&#45;cpp -->
<g id="edge20" class="edge">
<title>aws&#45;c&#45;http&#45;&gt;aws&#45;crt&#45;cpp</title>
<path fill="none" stroke="black" d="M364.54,-288.72C324.2,-258.38 241.39,-194.91 234.35,-180 225.07,-160.36 231.93,-136.37 240.36,-118.25"/>
<polygon fill="black" stroke="black" points="243.44,-119.93 244.86,-109.43 237.2,-116.75 243.44,-119.93"/>
</g>
<!-- aws&#45;c&#45;http&#45;&gt;aws&#45;c&#45;mqtt -->
<g id="edge21" class="edge">
<title>aws&#45;c&#45;http&#45;&gt;aws&#45;c&#45;mqtt</title>
<path fill="none" stroke="black" d="M392.35,-287.59C400.7,-263.4 415.9,-219.36 425.8,-190.65"/>
<polygon fill="black" stroke="black" points="428.99,-192.14 428.95,-181.54 422.38,-189.85 428.99,-192.14"/>
</g>
<!-- aws&#45;c&#45;http&#45;&gt;aws&#45;c&#45;auth -->
<g id="edge22" class="edge">
<title>aws&#45;c&#45;http&#45;&gt;aws&#45;c&#45;auth</title>
<path fill="none" stroke="black" d="M349,-291.17C319.43,-280.22 277.89,-264.83 245.76,-252.93"/>
<polygon fill="black" stroke="black" points="247.27,-249.76 236.67,-249.57 244.84,-256.32 247.27,-249.76"/>
</g>
<!-- aws&#45;c&#45;mqtt&#45;&gt;awscrt -->
<g id="edge23" class="edge">
<title>aws&#45;c&#45;mqtt&#45;&gt;awscrt</title>
<path fill="none" stroke="black" d="M457.15,-144.76C469.75,-135.38 485.78,-123.44 499.54,-113.2"/>
<polygon fill="black" stroke="black" points="501.49,-116.11 507.42,-107.33 497.3,-110.5 501.49,-116.11"/>
</g>
<!-- aws&#45;c&#45;mqtt&#45;&gt;aws&#45;crt&#45;cpp -->
<g id="edge24" class="edge">
<title>aws&#45;c&#45;mqtt&#45;&gt;aws&#45;crt&#45;cpp</title>
<path fill="none" stroke="black" d="M398.69,-146.67C371.36,-135.98 333.79,-121.29 304.11,-109.68"/>
<polygon fill="black" stroke="black" points="305.56,-106.49 294.98,-106.11 303.01,-113.01 305.56,-106.49"/>
</g>
<!-- aws&#45;c&#45;auth&#45;&gt;aws&#45;c&#45;s3 -->
<g id="edge25" class="edge">
<title>aws&#45;c&#45;auth&#45;&gt;aws&#45;c&#45;s3</title>
<path fill="none" stroke="black" d="M220.54,-216.76C233.98,-207.36 251.09,-195.38 265.75,-185.12"/>
<polygon fill="black" stroke="black" points="267.54,-188.14 273.73,-179.53 263.53,-182.4 267.54,-188.14"/>
</g>
<!-- aws&#45;c&#45;auth&#45;&gt;awscrt -->
<g id="edge26" class="edge">
<title>aws&#45;c&#45;auth&#45;&gt;awscrt</title>
<path fill="none" stroke="black" d="M199.56,-215.65C203.13,-195.22 212.18,-161.83 234.35,-144 270.46,-114.96 399.11,-100.67 474.06,-94.67"/>
<polygon fill="black" stroke="black" points="473.95,-98.19 483.65,-93.93 473.41,-91.21 473.95,-98.19"/>
</g>
<!-- aws&#45;c&#45;auth&#45;&gt;aws&#45;crt&#45;cpp -->
<g id="edge27" class="edge">
<title>aws&#45;c&#45;auth&#45;&gt;aws&#45;crt&#45;cpp</title>
<path fill="none" stroke="black" d="M182.31,-216.2C167.72,-197.75 149.63,-167.6 163.35,-144 172.31,-128.58 187.62,-117.27 203.26,-109.16"/>
<polygon fill="black" stroke="black" points="204.63,-112.38 212.16,-104.93 201.63,-106.06 204.63,-112.38"/>
</g>
<!-- aws&#45;c&#45;sdkutils -->
<g id="node11" class="node">
<title>aws&#45;c&#45;sdkutils</title>
<g id="a_node11"><a xlink:href="https://github.com/conda-forge/aws-c-sdkutils-feedstock/pull/81" xlink:title="aws c sdkutils ❎">
<ellipse fill="#31688e" stroke="black" cx="132.35" cy="-306" rx="96.98" ry="18"/>
<text text-anchor="middle" x="132.35" y="-301.32" font-family="Times,serif" font-size="14.00" fill="white">aws c sdkutils ❎</text>
</a>
</g>
</g>
<!-- aws&#45;c&#45;sdkutils&#45;&gt;aws&#45;crt&#45;cpp -->
<g id="edge28" class="edge">
<title>aws&#45;c&#45;sdkutils&#45;&gt;aws&#45;crt&#45;cpp</title>
<path fill="none" stroke="black" d="M128.69,-287.91C126.67,-277.57 124.36,-264.09 123.35,-252 119.15,-202.24 120.34,-180.57 154.35,-144 168.15,-129.16 187.05,-117.75 204.84,-109.39"/>
<polygon fill="black" stroke="black" points="206.04,-112.69 213.75,-105.43 203.19,-106.29 206.04,-112.69"/>
</g>
<!-- aws&#45;c&#45;sdkutils&#45;&gt;aws&#45;c&#45;auth -->
<g id="edge29" class="edge">
<title>aws&#45;c&#45;sdkutils&#45;&gt;aws&#45;c&#45;auth</title>
<path fill="none" stroke="black" d="M148.08,-288.05C155.9,-279.63 165.51,-269.28 174.16,-259.97"/>
<polygon fill="black" stroke="black" points="176.49,-262.61 180.73,-252.9 171.36,-257.84 176.49,-262.61"/>
</g>
</g>
</svg>
