<?xml version="1.0" encoding="UTF-8" standalone="no"?>
<!DOCTYPE svg PUBLIC "-//W3C//DTD SVG 1.1//EN"
 "http://www.w3.org/Graphics/SVG/1.1/DTD/svg11.dtd">
<!-- Generated by graphviz version 13.1.2 (20250809.0930)
 -->
<!-- Pages: 1 -->
<svg width="382pt" height="332pt"
 viewBox="0.00 0.00 382.00 332.00" xmlns="http://www.w3.org/2000/svg" xmlns:xlink="http://www.w3.org/1999/xlink">
<g id="graph0" class="graph" transform="scale(1 1) rotate(0) translate(4 328)">
<polygon fill="white" stroke="none" points="-4,4 -4,-328 377.62,-328 377.62,4 -4,4"/>
<!-- arrow&#45;cpp -->
<g id="node1" class="node">
<title>arrow&#45;cpp</title>
<g id="a_node1"><a xlink:href="https://github.com/conda-forge/arrow-cpp-feedstock" xlink:title="arrow cpp">
<ellipse fill="#fde725" stroke="black" cx="61.73" cy="-18" rx="61.73" ry="18"/>
<text xml:space="preserve" text-anchor="middle" x="61.73" y="-13.32" font-family="Times,serif" font-size="14.00">arrow cpp</text>
</a>
</g>
</g>
<!-- tiledb -->
<g id="node2" class="node">
<title>tiledb</title>
<g id="a_node2"><a xlink:href="https://github.com/conda-forge/tiledb-feedstock" xlink:title="tiledb">
<ellipse fill="#fde725" stroke="black" cx="201.73" cy="-18" rx="40.16" ry="18"/>
<text xml:space="preserve" text-anchor="middle" x="201.73" y="-13.32" font-family="Times,serif" font-size="14.00">tiledb</text>
</a>
</g>
</g>
<!-- aws&#45;sdk&#45;cpp -->
<g id="node3" class="node">
<title>aws&#45;sdk&#45;cpp</title>
<g id="a_node3"><a xlink:href="https://github.com/conda-forge/aws-sdk-cpp-feedstock" xlink:title="aws sdk cpp">
<ellipse fill="#fde725" stroke="black" cx="121.73" cy="-90" rx="72.25" ry="18"/>
<text xml:space="preserve" text-anchor="middle" x="121.73" y="-85.33" font-family="Times,serif" font-size="14.00">aws sdk cpp</text>
</a>
</g>
</g>
<!-- aws&#45;sdk&#45;cpp&#45;&gt;arrow&#45;cpp -->
<g id="edge1" class="edge">
<title>aws&#45;sdk&#45;cpp&#45;&gt;arrow&#45;cpp</title>
<path fill="none" stroke="black" d="M107.21,-72.05C100.06,-63.71 91.29,-53.49 83.37,-44.25"/>
<polygon fill="black" stroke="black" points="86.27,-42.25 77.11,-36.94 80.96,-46.81 86.27,-42.25"/>
</g>
<!-- aws&#45;sdk&#45;cpp&#45;&gt;tiledb -->
<g id="edge2" class="edge">
<title>aws&#45;sdk&#45;cpp&#45;&gt;tiledb</title>
<path fill="none" stroke="black" d="M140.69,-72.41C151.04,-63.35 164.03,-51.99 175.36,-42.08"/>
<polygon fill="black" stroke="black" points="177.64,-44.73 182.86,-35.51 173.03,-39.46 177.64,-44.73"/>
</g>
<!-- aws&#45;c&#45;mqtt -->
<g id="node4" class="node">
<title>aws&#45;c&#45;mqtt</title>
<g id="a_node4"><a xlink:href="https://github.com/conda-forge/aws-c-mqtt-feedstock/pull/280" xlink:title="aws c mqtt ❎">
<ellipse fill="#31688e" stroke="black" cx="275.73" cy="-234" rx="81.72" ry="18"/>
<text xml:space="preserve" text-anchor="middle" x="275.73" y="-229.32" font-family="Times,serif" font-size="14.00" fill="white">aws c mqtt ❎</text>
</a>
</g>
</g>
<!-- aws&#45;crt&#45;cpp -->
<g id="node6" class="node">
<title>aws&#45;crt&#45;cpp</title>
<g id="a_node6"><a xlink:href="https://github.com/conda-forge/aws-crt-cpp-feedstock" xlink:title="aws crt cpp">
<ellipse fill="#fde725" stroke="black" cx="121.73" cy="-162" rx="69.1" ry="18"/>
<text xml:space="preserve" text-anchor="middle" x="121.73" y="-157.32" font-family="Times,serif" font-size="14.00">aws crt cpp</text>
</a>
</g>
</g>
<!-- aws&#45;c&#45;mqtt&#45;&gt;aws&#45;crt&#45;cpp -->
<g id="edge3" class="edge">
<title>aws&#45;c&#45;mqtt&#45;&gt;aws&#45;crt&#45;cpp</title>
<path fill="none" stroke="black" d="M241.17,-217.29C218.77,-207.11 189.4,-193.76 165.38,-182.84"/>
<polygon fill="black" stroke="black" points="167.05,-179.75 156.5,-178.8 164.15,-186.13 167.05,-179.75"/>
</g>
<!-- awscrt -->
<g id="node8" class="node">
<title>awscrt</title>
<g id="a_node8"><a xlink:href="https://github.com/conda-forge/awscrt-feedstock" xlink:title="awscrt">
<ellipse fill="#fde725" stroke="black" cx="275.73" cy="-162" rx="44.89" ry="18"/>
<text xml:space="preserve" text-anchor="middle" x="275.73" y="-157.32" font-family="Times,serif" font-size="14.00">awscrt</text>
</a>
</g>
</g>
<!-- aws&#45;c&#45;mqtt&#45;&gt;awscrt -->
<g id="edge4" class="edge">
<title>aws&#45;c&#45;mqtt&#45;&gt;awscrt</title>
<path fill="none" stroke="black" d="M275.73,-215.7C275.73,-208.41 275.73,-199.73 275.73,-191.54"/>
<polygon fill="black" stroke="black" points="279.23,-191.62 275.73,-181.62 272.23,-191.62 279.23,-191.62"/>
</g>
<!-- aws&#45;c&#45;auth -->
<g id="node5" class="node">
<title>aws&#45;c&#45;auth</title>
<g id="a_node5"><a xlink:href="https://github.com/conda-forge/aws-c-auth-feedstock/pull/356" xlink:title="aws c auth ❎">
<ellipse fill="#31688e" stroke="black" cx="121.73" cy="-306" rx="80.14" ry="18"/>
<text xml:space="preserve" text-anchor="middle" x="121.73" y="-301.32" font-family="Times,serif" font-size="14.00" fill="white">aws c auth ❎</text>
</a>
</g>
</g>
<!-- aws&#45;c&#45;auth&#45;&gt;aws&#45;crt&#45;cpp -->
<g id="edge6" class="edge">
<title>aws&#45;c&#45;auth&#45;&gt;aws&#45;crt&#45;cpp</title>
<path fill="none" stroke="black" d="M93.08,-288.96C80.03,-279.96 65.91,-267.42 58.73,-252 51.98,-237.49 51.98,-230.51 58.73,-216 64.33,-203.97 74.15,-193.7 84.39,-185.49"/>
<polygon fill="black" stroke="black" points="86.24,-188.48 92.19,-179.72 82.07,-182.85 86.24,-188.48"/>
</g>
<!-- aws&#45;c&#45;s3 -->
<g id="node7" class="node">
<title>aws&#45;c&#45;s3</title>
<g id="a_node7"><a xlink:href="https://github.com/conda-forge/aws-c-s3-feedstock" xlink:title="aws c s3">
<ellipse fill="#fde725" stroke="black" cx="121.73" cy="-234" rx="53.84" ry="18"/>
<text xml:space="preserve" text-anchor="middle" x="121.73" y="-229.32" font-family="Times,serif" font-size="14.00">aws c s3</text>
</a>
</g>
</g>
<!-- aws&#45;c&#45;auth&#45;&gt;aws&#45;c&#45;s3 -->
<g id="edge5" class="edge">
<title>aws&#45;c&#45;auth&#45;&gt;aws&#45;c&#45;s3</title>
<path fill="none" stroke="black" d="M121.73,-287.7C121.73,-280.41 121.73,-271.73 121.73,-263.54"/>
<polygon fill="black" stroke="black" points="125.23,-263.62 121.73,-253.62 118.23,-263.62 125.23,-263.62"/>
</g>
<!-- aws&#45;c&#45;auth&#45;&gt;awscrt -->
<g id="edge7" class="edge">
<title>aws&#45;c&#45;auth&#45;&gt;awscrt</title>
<path fill="none" stroke="black" d="M196.16,-299.02C260.2,-292.14 345.55,-278.25 366.73,-252 376.78,-239.55 374.7,-229.87 366.73,-216 356.68,-198.51 338.38,-186.25 320.82,-177.96"/>
<polygon fill="black" stroke="black" points="322.59,-174.91 312.02,-174.14 319.8,-181.33 322.59,-174.91"/>
</g>
<!-- aws&#45;crt&#45;cpp&#45;&gt;arrow&#45;cpp -->
<g id="edge8" class="edge">
<title>aws&#45;crt&#45;cpp&#45;&gt;arrow&#45;cpp</title>
<path fill="none" stroke="black" d="M84.72,-146.61C68.11,-138.07 50.16,-125.44 40.73,-108 30.31,-88.74 37.22,-64.4 45.8,-46.04"/>
<polygon fill="black" stroke="black" points="48.81,-47.85 50.24,-37.36 42.58,-44.67 48.81,-47.85"/>
</g>
<!-- aws&#45;crt&#45;cpp&#45;&gt;tiledb -->
<g id="edge10" class="edge">
<title>aws&#45;crt&#45;cpp&#45;&gt;tiledb</title>
<path fill="none" stroke="black" d="M158.74,-146.61C175.35,-138.07 193.3,-125.44 202.73,-108 212.68,-89.6 211.83,-65.78 208.82,-47.41"/>
<polygon fill="black" stroke="black" points="212.27,-46.86 206.91,-37.73 205.41,-48.21 212.27,-46.86"/>
</g>
<!-- aws&#45;crt&#45;cpp&#45;&gt;aws&#45;sdk&#45;cpp -->
<g id="edge9" class="edge">
<title>aws&#45;crt&#45;cpp&#45;&gt;aws&#45;sdk&#45;cpp</title>
<path fill="none" stroke="black" d="M121.73,-143.7C121.73,-136.41 121.73,-127.73 121.73,-119.54"/>
<polygon fill="black" stroke="black" points="125.23,-119.62 121.73,-109.62 118.23,-119.62 125.23,-119.62"/>
</g>
<!-- aws&#45;c&#45;s3&#45;&gt;aws&#45;crt&#45;cpp -->
<g id="edge11" class="edge">
<title>aws&#45;c&#45;s3&#45;&gt;aws&#45;crt&#45;cpp</title>
<path fill="none" stroke="black" d="M121.73,-215.7C121.73,-208.41 121.73,-199.73 121.73,-191.54"/>
<polygon fill="black" stroke="black" points="125.23,-191.62 121.73,-181.62 118.23,-191.62 125.23,-191.62"/>
</g>
<!-- aws&#45;c&#45;s3&#45;&gt;awscrt -->
<g id="edge12" class="edge">
<title>aws&#45;c&#45;s3&#45;&gt;awscrt</title>
<path fill="none" stroke="black" d="M152.52,-219C176.67,-208.03 210.44,-192.68 236.52,-180.82"/>
<polygon fill="black" stroke="black" points="237.78,-184.09 245.43,-176.77 234.88,-177.72 237.78,-184.09"/>
</g>
</g>
</svg>
