<?xml version="1.0" encoding="UTF-8" standalone="no"?>
<!DOCTYPE svg PUBLIC "-//W3C//DTD SVG 1.1//EN"
 "http://www.w3.org/Graphics/SVG/1.1/DTD/svg11.dtd">
<!-- Generated by graphviz version 12.0.0 (20240803.0821)
 -->
<!-- Pages: 1 -->
<svg width="271pt" height="116pt"
 viewBox="0.00 0.00 271.06 116.00" xmlns="http://www.w3.org/2000/svg" xmlns:xlink="http://www.w3.org/1999/xlink">
<g id="graph0" class="graph" transform="scale(1 1) rotate(0) translate(4 112)">
<polygon fill="white" stroke="none" points="-4,4 -4,-112 267.06,-112 267.06,4 -4,4"/>
<!-- aws&#45;sdk&#45;cpp -->
<g id="node1" class="node">
<title>aws&#45;sdk&#45;cpp</title>
<g id="a_node1"><a xlink:href="https://github.com/conda-forge/aws-sdk-cpp-feedstock" xlink:title="aws sdk cpp">
<ellipse fill="#fde725" stroke="black" cx="72.25" cy="-18" rx="72.25" ry="18"/>
<text text-anchor="middle" x="72.25" y="-13.32" font-family="Times,serif" font-size="14.00">aws sdk cpp</text>
</a>
</g>
</g>
<!-- aws&#45;c&#45;event&#45;stream -->
<g id="node2" class="node">
<title>aws&#45;c&#45;event&#45;stream</title>
<g id="a_node2"><a xlink:href="https://github.com/conda-forge/aws-c-event-stream-feedstock/pull/180" xlink:title="aws c event stream ❎">
<ellipse fill="#31688e" stroke="black" cx="139.25" cy="-90" rx="123.81" ry="18"/>
<text text-anchor="middle" x="139.25" y="-85.33" font-family="Times,serif" font-size="14.00" fill="white">aws c event stream ❎</text>
</a>
</g>
</g>
<!-- aws&#45;c&#45;event&#45;stream&#45;&gt;aws&#45;sdk&#45;cpp -->
<g id="edge1" class="edge">
<title>aws&#45;c&#45;event&#45;stream&#45;&gt;aws&#45;sdk&#45;cpp</title>
<path fill="none" stroke="black" d="M122.69,-71.7C114.62,-63.27 104.77,-52.97 95.92,-43.73"/>
<polygon fill="black" stroke="black" points="98.65,-41.52 89.21,-36.72 93.6,-46.36 98.65,-41.52"/>
</g>
<!-- awscrt -->
<g id="node3" class="node">
<title>awscrt</title>
<g id="a_node3"><a xlink:href="https://github.com/conda-forge/awscrt-feedstock" xlink:title="awscrt">
<ellipse fill="#fde725" stroke="black" cx="207.25" cy="-18" rx="44.89" ry="18"/>
<text text-anchor="middle" x="207.25" y="-13.32" font-family="Times,serif" font-size="14.00">awscrt</text>
</a>
</g>
</g>
<!-- aws&#45;c&#45;event&#45;stream&#45;&gt;awscrt -->
<g id="edge2" class="edge">
<title>aws&#45;c&#45;event&#45;stream&#45;&gt;awscrt</title>
<path fill="none" stroke="black" d="M156.06,-71.7C164.37,-63.14 174.54,-52.67 183.62,-43.33"/>
<polygon fill="black" stroke="black" points="186.06,-45.84 190.51,-36.23 181.04,-40.96 186.06,-45.84"/>
</g>
</g>
</svg>
