<?xml version="1.0" encoding="UTF-8" standalone="no"?>
<!DOCTYPE svg PUBLIC "-//W3C//DTD SVG 1.1//EN"
 "http://www.w3.org/Graphics/SVG/1.1/DTD/svg11.dtd">
<!-- Generated by graphviz version 13.1.2 (20250809.0930)
 -->
<!-- Pages: 1 -->
<svg width="432pt" height="332pt"
 viewBox="0.00 0.00 432.00 332.00" xmlns="http://www.w3.org/2000/svg" xmlns:xlink="http://www.w3.org/1999/xlink">
<g id="graph0" class="graph" transform="scale(1 1) rotate(0) translate(4 328)">
<polygon fill="white" stroke="none" points="-4,4 -4,-328 427.83,-328 427.83,4 -4,4"/>
<!-- aws&#45;c&#45;io -->
<g id="node1" class="node">
<title>aws&#45;c&#45;io</title>
<g id="a_node1"><a xlink:href="https://github.com/conda-forge/aws-c-io-feedstock" xlink:title="aws c io">
<ellipse fill="#35b779" stroke="black" cx="261.1" cy="-306" rx="51.21" ry="18"/>
<text xml:space="preserve" text-anchor="middle" x="261.1" y="-301.32" font-family="Times,serif" font-size="14.00">aws c io</text>
</a>
</g>
</g>
<!-- aws&#45;c&#45;http -->
<g id="node2" class="node">
<title>aws&#45;c&#45;http</title>
<g id="a_node2"><a xlink:href="https://github.com/conda-forge/aws-c-http-feedstock" xlink:title="aws c http">
<ellipse fill="#fde725" stroke="black" cx="216.1" cy="-234" rx="63.31" ry="18"/>
<text xml:space="preserve" text-anchor="middle" x="216.1" y="-229.32" font-family="Times,serif" font-size="14.00">aws c http</text>
</a>
</g>
</g>
<!-- aws&#45;c&#45;io&#45;&gt;aws&#45;c&#45;http -->
<g id="edge2" class="edge">
<title>aws&#45;c&#45;io&#45;&gt;aws&#45;c&#45;http</title>
<path fill="none" stroke="black" d="M250.2,-288.05C245.06,-280.06 238.81,-270.33 233.07,-261.4"/>
<polygon fill="black" stroke="black" points="236.06,-259.58 227.71,-253.06 230.17,-263.37 236.06,-259.58"/>
</g>
<!-- aws&#45;c&#45;mqtt -->
<g id="node3" class="node">
<title>aws&#45;c&#45;mqtt</title>
<g id="a_node3"><a xlink:href="https://github.com/conda-forge/aws-c-mqtt-feedstock" xlink:title="aws c mqtt">
<ellipse fill="#fde725" stroke="black" cx="327.1" cy="-90" rx="66.47" ry="18"/>
<text xml:space="preserve" text-anchor="middle" x="327.1" y="-85.33" font-family="Times,serif" font-size="14.00">aws c mqtt</text>
</a>
</g>
</g>
<!-- aws&#45;c&#45;io&#45;&gt;aws&#45;c&#45;mqtt -->
<g id="edge3" class="edge">
<title>aws&#45;c&#45;io&#45;&gt;aws&#45;c&#45;mqtt</title>
<path fill="none" stroke="black" d="M286.31,-289.9C299.18,-280.71 313.66,-267.7 321.1,-252 341.35,-209.22 337.45,-152.65 332.48,-119.21"/>
<polygon fill="black" stroke="black" points="335.96,-118.8 330.89,-109.5 329.05,-119.94 335.96,-118.8"/>
</g>
<!-- aws&#45;c&#45;auth -->
<g id="node4" class="node">
<title>aws&#45;c&#45;auth</title>
<g id="a_node4"><a xlink:href="https://github.com/conda-forge/aws-c-auth-feedstock" xlink:title="aws c auth">
<ellipse fill="#fde725" stroke="black" cx="124.1" cy="-162" rx="64.89" ry="18"/>
<text xml:space="preserve" text-anchor="middle" x="124.1" y="-157.32" font-family="Times,serif" font-size="14.00">aws c auth</text>
</a>
</g>
</g>
<!-- aws&#45;c&#45;io&#45;&gt;aws&#45;c&#45;auth -->
<g id="edge1" class="edge">
<title>aws&#45;c&#45;io&#45;&gt;aws&#45;c&#45;auth</title>
<path fill="none" stroke="black" d="M218.13,-295.72C192.97,-288.1 162.61,-274.74 144.1,-252 130.33,-235.09 125.59,-210.64 124.14,-191.64"/>
<polygon fill="black" stroke="black" points="127.65,-191.69 123.68,-181.87 120.66,-192.02 127.65,-191.69"/>
</g>
<!-- aws&#45;crt&#45;cpp -->
<g id="node5" class="node">
<title>aws&#45;crt&#45;cpp</title>
<g id="a_node5"><a xlink:href="https://github.com/conda-forge/aws-crt-cpp-feedstock" xlink:title="aws crt cpp">
<ellipse fill="#fde725" stroke="black" cx="69.1" cy="-18" rx="69.1" ry="18"/>
<text xml:space="preserve" text-anchor="middle" x="69.1" y="-13.32" font-family="Times,serif" font-size="14.00">aws crt cpp</text>
</a>
</g>
</g>
<!-- aws&#45;c&#45;io&#45;&gt;aws&#45;crt&#45;cpp -->
<g id="edge5" class="edge">
<title>aws&#45;c&#45;io&#45;&gt;aws&#45;crt&#45;cpp</title>
<path fill="none" stroke="black" d="M216.77,-296.66C160.54,-283.32 66.71,-251.05 32.1,-180 27.03,-169.6 24.52,-99.22 33.1,-72 36.12,-62.39 41.51,-52.95 47.22,-44.76"/>
<polygon fill="black" stroke="black" points="49.84,-47.1 53.03,-36.99 44.23,-42.9 49.84,-47.1"/>
</g>
<!-- aws&#45;c&#45;s3 -->
<g id="node6" class="node">
<title>aws&#45;c&#45;s3</title>
<g id="a_node6"><a xlink:href="https://github.com/conda-forge/aws-c-s3-feedstock" xlink:title="aws c s3">
<ellipse fill="#fde725" stroke="black" cx="189.1" cy="-90" rx="53.84" ry="18"/>
<text xml:space="preserve" text-anchor="middle" x="189.1" y="-85.33" font-family="Times,serif" font-size="14.00">aws c s3</text>
</a>
</g>
</g>
<!-- aws&#45;c&#45;io&#45;&gt;aws&#45;c&#45;s3 -->
<g id="edge4" class="edge">
<title>aws&#45;c&#45;io&#45;&gt;aws&#45;c&#45;s3</title>
<path fill="none" stroke="black" d="M272.62,-288.14C283.44,-270.14 296.75,-240.86 288.1,-216 273.99,-175.48 240.69,-138.21 216.59,-115.11"/>
<polygon fill="black" stroke="black" points="218.99,-112.56 209.29,-108.29 214.21,-117.67 218.99,-112.56"/>
</g>
<!-- awscrt -->
<g id="node7" class="node">
<title>awscrt</title>
<g id="a_node7"><a xlink:href="https://github.com/conda-forge/awscrt-feedstock" xlink:title="awscrt">
<ellipse fill="#fde725" stroke="black" cx="327.1" cy="-18" rx="44.89" ry="18"/>
<text xml:space="preserve" text-anchor="middle" x="327.1" y="-13.32" font-family="Times,serif" font-size="14.00">awscrt</text>
</a>
</g>
</g>
<!-- aws&#45;c&#45;io&#45;&gt;awscrt -->
<g id="edge6" class="edge">
<title>aws&#45;c&#45;io&#45;&gt;awscrt</title>
<path fill="none" stroke="black" d="M289.53,-290.73C306.07,-281.4 326.47,-267.98 341.1,-252 390.23,-198.3 401.21,-178.56 419.1,-108 423.03,-92.49 427.1,-85.85 419.1,-72 408.92,-54.39 390.42,-42.11 372.67,-33.85"/>
<polygon fill="black" stroke="black" points="374.33,-30.75 363.76,-30.03 371.57,-37.18 374.33,-30.75"/>
</g>
<!-- aws&#45;c&#45;http&#45;&gt;aws&#45;c&#45;mqtt -->
<g id="edge8" class="edge">
<title>aws&#45;c&#45;http&#45;&gt;aws&#45;c&#45;mqtt</title>
<path fill="none" stroke="black" d="M229.26,-216.15C248.54,-191.49 284.59,-145.37 307.14,-116.53"/>
<polygon fill="black" stroke="black" points="309.61,-119.05 313.01,-109.02 304.1,-114.74 309.61,-119.05"/>
</g>
<!-- aws&#45;c&#45;http&#45;&gt;aws&#45;c&#45;auth -->
<g id="edge7" class="edge">
<title>aws&#45;c&#45;http&#45;&gt;aws&#45;c&#45;auth</title>
<path fill="none" stroke="black" d="M194.76,-216.76C182.88,-207.73 167.9,-196.33 154.78,-186.35"/>
<polygon fill="black" stroke="black" points="156.92,-183.58 146.84,-180.31 152.68,-189.15 156.92,-183.58"/>
</g>
<!-- aws&#45;c&#45;http&#45;&gt;aws&#45;crt&#45;cpp -->
<g id="edge10" class="edge">
<title>aws&#45;c&#45;http&#45;&gt;aws&#45;crt&#45;cpp</title>
<path fill="none" stroke="black" d="M153.56,-230.44C117.05,-225.33 73.65,-212.25 50.1,-180 21.41,-140.73 40.11,-81.12 55.29,-46.52"/>
<polygon fill="black" stroke="black" points="58.39,-48.14 59.4,-37.6 52.04,-45.22 58.39,-48.14"/>
</g>
<!-- aws&#45;c&#45;http&#45;&gt;aws&#45;c&#45;s3 -->
<g id="edge9" class="edge">
<title>aws&#45;c&#45;http&#45;&gt;aws&#45;c&#45;s3</title>
<path fill="none" stroke="black" d="M212.79,-215.59C208.23,-191.61 199.96,-148.14 194.5,-119.42"/>
<polygon fill="black" stroke="black" points="197.94,-118.77 192.63,-109.6 191.06,-120.08 197.94,-118.77"/>
</g>
<!-- aws&#45;c&#45;http&#45;&gt;awscrt -->
<g id="edge11" class="edge">
<title>aws&#45;c&#45;http&#45;&gt;awscrt</title>
<path fill="none" stroke="black" d="M255.23,-219.61C300.02,-201.92 371.18,-166.03 402.1,-108 409.62,-93.88 409.45,-86.21 402.1,-72 394.49,-57.3 380.72,-45.81 367.03,-37.34"/>
<polygon fill="black" stroke="black" points="368.91,-34.38 358.49,-32.46 365.43,-40.46 368.91,-34.38"/>
</g>
<!-- aws&#45;c&#45;mqtt&#45;&gt;aws&#45;crt&#45;cpp -->
<g id="edge12" class="edge">
<title>aws&#45;c&#45;mqtt&#45;&gt;aws&#45;crt&#45;cpp</title>
<path fill="none" stroke="black" d="M281.27,-76.57C238.1,-64.85 173.28,-47.27 126.65,-34.61"/>
<polygon fill="black" stroke="black" points="127.83,-31.31 117.26,-32.07 126,-38.07 127.83,-31.31"/>
</g>
<!-- aws&#45;c&#45;mqtt&#45;&gt;awscrt -->
<g id="edge13" class="edge">
<title>aws&#45;c&#45;mqtt&#45;&gt;awscrt</title>
<path fill="none" stroke="black" d="M327.1,-71.7C327.1,-64.41 327.1,-55.73 327.1,-47.54"/>
<polygon fill="black" stroke="black" points="330.6,-47.62 327.1,-37.62 323.6,-47.62 330.6,-47.62"/>
</g>
<!-- aws&#45;c&#45;auth&#45;&gt;aws&#45;crt&#45;cpp -->
<g id="edge15" class="edge">
<title>aws&#45;c&#45;auth&#45;&gt;aws&#45;crt&#45;cpp</title>
<path fill="none" stroke="black" d="M112.55,-143.94C106.11,-133.84 98.36,-120.59 93.1,-108 84.87,-88.35 78.72,-65.08 74.7,-47.27"/>
<polygon fill="black" stroke="black" points="78.15,-46.7 72.63,-37.66 71.31,-48.17 78.15,-46.7"/>
</g>
<!-- aws&#45;c&#45;auth&#45;&gt;aws&#45;c&#45;s3 -->
<g id="edge14" class="edge">
<title>aws&#45;c&#45;auth&#45;&gt;aws&#45;c&#45;s3</title>
<path fill="none" stroke="black" d="M139.83,-144.05C147.77,-135.5 157.55,-124.97 166.29,-115.56"/>
<polygon fill="black" stroke="black" points="168.68,-118.13 172.92,-108.42 163.55,-113.36 168.68,-118.13"/>
</g>
<!-- aws&#45;c&#45;auth&#45;&gt;awscrt -->
<g id="edge16" class="edge">
<title>aws&#45;c&#45;auth&#45;&gt;awscrt</title>
<path fill="none" stroke="black" d="M118.94,-143.91C114.18,-124.35 110.02,-92.39 126.1,-72 144.21,-49.03 219.98,-33.9 273.12,-25.89"/>
<polygon fill="black" stroke="black" points="273.54,-29.37 282.93,-24.46 272.53,-22.44 273.54,-29.37"/>
</g>
<!-- aws&#45;c&#45;s3&#45;&gt;aws&#45;crt&#45;cpp -->
<g id="edge17" class="edge">
<title>aws&#45;c&#45;s3&#45;&gt;aws&#45;crt&#45;cpp</title>
<path fill="none" stroke="black" d="M163.06,-73.81C146.42,-64.11 124.6,-51.38 106.17,-40.63"/>
<polygon fill="black" stroke="black" points="108.04,-37.67 97.64,-35.65 104.51,-43.71 108.04,-37.67"/>
</g>
<!-- aws&#45;c&#45;s3&#45;&gt;awscrt -->
<g id="edge18" class="edge">
<title>aws&#45;c&#45;s3&#45;&gt;awscrt</title>
<path fill="none" stroke="black" d="M217.69,-74.5C238.64,-63.87 267.26,-49.35 289.98,-37.83"/>
<polygon fill="black" stroke="black" points="291.26,-41.1 298.6,-33.46 288.1,-34.86 291.26,-41.1"/>
</g>
</g>
</svg>
