<?xml version="1.0" encoding="UTF-8" standalone="no"?>
<!DOCTYPE svg PUBLIC "-//W3C//DTD SVG 1.1//EN"
 "http://www.w3.org/Graphics/SVG/1.1/DTD/svg11.dtd">
<!-- Generated by graphviz version 12.2.1 (20250203.1708)
 -->
<!-- Pages: 1 -->
<svg width="970pt" height="476pt"
 viewBox="0.00 0.00 970.00 476.00" xmlns="http://www.w3.org/2000/svg" xmlns:xlink="http://www.w3.org/1999/xlink">
<g id="graph0" class="graph" transform="scale(1 1) rotate(0) translate(4 472)">
<polygon fill="white" stroke="none" points="-4,4 -4,-472 966,-472 966,4 -4,4"/>
<!-- aws&#45;sdk&#45;cpp -->
<g id="node1" class="node">
<title>aws&#45;sdk&#45;cpp</title>
<g id="a_node1"><a xlink:href="https://github.com/conda-forge/aws-sdk-cpp-feedstock" xlink:title="aws sdk cpp">
<ellipse fill="#fde725" stroke="black" cx="469" cy="-18" rx="72.25" ry="18"/>
<text text-anchor="middle" x="469" y="-13.32" font-family="Times,serif" font-size="14.00">aws sdk cpp</text>
</a>
</g>
</g>
<!-- aws&#45;checksums -->
<g id="node2" class="node">
<title>aws&#45;checksums</title>
<g id="a_node2"><a xlink:href="https://github.com/conda-forge/aws-checksums-feedstock" xlink:title="aws checksums">
<ellipse fill="#35b779" stroke="black" cx="748" cy="-234" rx="88.56" ry="18"/>
<text text-anchor="middle" x="748" y="-229.32" font-family="Times,serif" font-size="14.00">aws checksums</text>
</a>
</g>
</g>
<!-- aws&#45;c&#45;event&#45;stream -->
<g id="node3" class="node">
<title>aws&#45;c&#45;event&#45;stream</title>
<g id="a_node3"><a xlink:href="https://github.com/conda-forge/aws-c-event-stream-feedstock" xlink:title="aws c event stream">
<ellipse fill="#fde725" stroke="black" cx="787" cy="-162" rx="108.55" ry="18"/>
<text text-anchor="middle" x="787" y="-157.32" font-family="Times,serif" font-size="14.00">aws c event stream</text>
</a>
</g>
</g>
<!-- aws&#45;checksums&#45;&gt;aws&#45;c&#45;event&#45;stream -->
<g id="edge1" class="edge">
<title>aws&#45;checksums&#45;&gt;aws&#45;c&#45;event&#45;stream</title>
<path fill="none" stroke="black" d="M757.64,-215.7C761.94,-207.98 767.1,-198.71 771.89,-190.11"/>
<polygon fill="black" stroke="black" points="774.92,-191.87 776.73,-181.43 768.81,-188.46 774.92,-191.87"/>
</g>
<!-- aws&#45;c&#45;s3 -->
<g id="node4" class="node">
<title>aws&#45;c&#45;s3</title>
<g id="a_node4"><a xlink:href="https://github.com/conda-forge/aws-c-s3-feedstock" xlink:title="aws c s3">
<ellipse fill="#fde725" stroke="black" cx="568" cy="-162" rx="53.84" ry="18"/>
<text text-anchor="middle" x="568" y="-157.32" font-family="Times,serif" font-size="14.00">aws c s3</text>
</a>
</g>
</g>
<!-- aws&#45;checksums&#45;&gt;aws&#45;c&#45;s3 -->
<g id="edge2" class="edge">
<title>aws&#45;checksums&#45;&gt;aws&#45;c&#45;s3</title>
<path fill="none" stroke="black" d="M708.5,-217.64C680.2,-206.63 642.06,-191.8 612.66,-180.37"/>
<polygon fill="black" stroke="black" points="614.25,-177.23 603.67,-176.87 611.72,-183.76 614.25,-177.23"/>
</g>
<!-- awscrt -->
<g id="node5" class="node">
<title>awscrt</title>
<g id="a_node5"><a xlink:href="https://github.com/conda-forge/awscrt-feedstock" xlink:title="awscrt">
<ellipse fill="#fde725" stroke="black" cx="604" cy="-90" rx="44.9" ry="18"/>
<text text-anchor="middle" x="604" y="-85.33" font-family="Times,serif" font-size="14.00">awscrt</text>
</a>
</g>
</g>
<!-- aws&#45;checksums&#45;&gt;awscrt -->
<g id="edge3" class="edge">
<title>aws&#45;checksums&#45;&gt;awscrt</title>
<path fill="none" stroke="black" d="M718.43,-216.58C702.76,-207.07 683.77,-194.19 669,-180 649.56,-161.32 631.83,-136.24 619.81,-117.47"/>
<polygon fill="black" stroke="black" points="622.82,-115.67 614.55,-109.05 616.88,-119.38 622.82,-115.67"/>
</g>
<!-- aws&#45;c&#45;event&#45;stream&#45;&gt;aws&#45;sdk&#45;cpp -->
<g id="edge4" class="edge">
<title>aws&#45;c&#45;event&#45;stream&#45;&gt;aws&#45;sdk&#45;cpp</title>
<path fill="none" stroke="black" d="M766.85,-143.92C742.51,-124.06 699.63,-91.53 658,-72 619.42,-53.9 573.42,-40.83 536.47,-32.21"/>
<polygon fill="black" stroke="black" points="537.31,-28.81 526.79,-30 535.76,-35.63 537.31,-28.81"/>
</g>
<!-- aws&#45;c&#45;event&#45;stream&#45;&gt;awscrt -->
<g id="edge5" class="edge">
<title>aws&#45;c&#45;event&#45;stream&#45;&gt;awscrt</title>
<path fill="none" stroke="black" d="M745.02,-144.94C715.41,-133.62 675.91,-118.51 646.25,-107.16"/>
<polygon fill="black" stroke="black" points="647.81,-104.01 637.22,-103.71 645.31,-110.55 647.81,-104.01"/>
</g>
<!-- aws&#45;crt&#45;cpp -->
<g id="node6" class="node">
<title>aws&#45;crt&#45;cpp</title>
<g id="a_node6"><a xlink:href="https://github.com/conda-forge/aws-crt-cpp-feedstock" xlink:title="aws crt cpp">
<ellipse fill="#fde725" stroke="black" cx="298" cy="-90" rx="69.1" ry="18"/>
<text text-anchor="middle" x="298" y="-85.33" font-family="Times,serif" font-size="14.00">aws crt cpp</text>
</a>
</g>
</g>
<!-- aws&#45;c&#45;event&#45;stream&#45;&gt;aws&#45;crt&#45;cpp -->
<g id="edge6" class="edge">
<title>aws&#45;c&#45;event&#45;stream&#45;&gt;aws&#45;crt&#45;cpp</title>
<path fill="none" stroke="black" d="M706.8,-149.52C612.74,-136.05 458.29,-113.95 368.59,-101.11"/>
<polygon fill="black" stroke="black" points="369.34,-97.68 358.95,-99.72 368.35,-104.61 369.34,-97.68"/>
</g>
<!-- aws&#45;c&#45;s3&#45;&gt;awscrt -->
<g id="edge7" class="edge">
<title>aws&#45;c&#45;s3&#45;&gt;awscrt</title>
<path fill="none" stroke="black" d="M576.71,-144.05C580.74,-136.23 585.62,-126.75 590.13,-117.98"/>
<polygon fill="black" stroke="black" points="593.21,-119.63 594.67,-109.13 586.99,-116.43 593.21,-119.63"/>
</g>
<!-- aws&#45;c&#45;s3&#45;&gt;aws&#45;crt&#45;cpp -->
<g id="edge8" class="edge">
<title>aws&#45;c&#45;s3&#45;&gt;aws&#45;crt&#45;cpp</title>
<path fill="none" stroke="black" d="M526.4,-150.22C480.93,-138.43 407.71,-119.44 356.47,-106.16"/>
<polygon fill="black" stroke="black" points="357.58,-102.83 347.02,-103.71 355.83,-109.61 357.58,-102.83"/>
</g>
<!-- aws&#45;crt&#45;cpp&#45;&gt;aws&#45;sdk&#45;cpp -->
<g id="edge9" class="edge">
<title>aws&#45;crt&#45;cpp&#45;&gt;aws&#45;sdk&#45;cpp</title>
<path fill="none" stroke="black" d="M333.85,-74.33C359.55,-63.8 394.42,-49.53 422.3,-38.12"/>
<polygon fill="black" stroke="black" points="423.28,-41.5 431.21,-34.47 420.63,-35.02 423.28,-41.5"/>
</g>
<!-- aws&#45;c&#45;io -->
<g id="node7" class="node">
<title>aws&#45;c&#45;io</title>
<g id="a_node7"><a xlink:href="https://github.com/conda-forge/aws-c-io-feedstock" xlink:title="aws c io">
<ellipse fill="#fde725" stroke="black" cx="597" cy="-378" rx="51.21" ry="18"/>
<text text-anchor="middle" x="597" y="-373.32" font-family="Times,serif" font-size="14.00">aws c io</text>
</a>
</g>
</g>
<!-- aws&#45;c&#45;io&#45;&gt;aws&#45;c&#45;event&#45;stream -->
<g id="edge10" class="edge">
<title>aws&#45;c&#45;io&#45;&gt;aws&#45;c&#45;event&#45;stream</title>
<path fill="none" stroke="black" d="M642.16,-369.12C700.95,-356.18 801.43,-324.25 846,-252 854.4,-238.38 852.52,-230.61 846,-216 841.03,-204.85 832.42,-195.07 823.3,-187.04"/>
<polygon fill="black" stroke="black" points="825.64,-184.43 815.67,-180.85 821.23,-189.87 825.64,-184.43"/>
</g>
<!-- aws&#45;c&#45;io&#45;&gt;aws&#45;c&#45;s3 -->
<g id="edge11" class="edge">
<title>aws&#45;c&#45;io&#45;&gt;aws&#45;c&#45;s3</title>
<path fill="none" stroke="black" d="M594.68,-359.85C589.7,-323.14 577.98,-236.66 571.87,-191.53"/>
<polygon fill="black" stroke="black" points="575.35,-191.17 570.54,-181.73 568.41,-192.11 575.35,-191.17"/>
</g>
<!-- aws&#45;c&#45;io&#45;&gt;awscrt -->
<g id="edge12" class="edge">
<title>aws&#45;c&#45;io&#45;&gt;awscrt</title>
<path fill="none" stroke="black" d="M647.05,-373.39C691.81,-368.15 757.62,-355.34 806,-324 882.63,-274.37 963.7,-213.93 905,-144 874.36,-107.49 738.47,-96.12 660.16,-92.59"/>
<polygon fill="black" stroke="black" points="660.69,-89.11 650.55,-92.19 660.39,-96.1 660.69,-89.11"/>
</g>
<!-- aws&#45;c&#45;io&#45;&gt;aws&#45;crt&#45;cpp -->
<g id="edge13" class="edge">
<title>aws&#45;c&#45;io&#45;&gt;aws&#45;crt&#45;cpp</title>
<path fill="none" stroke="black" d="M571.12,-362.22C508.2,-325.77 349.97,-230.88 317,-180 305.37,-162.05 300.73,-138.2 298.93,-119.71"/>
<polygon fill="black" stroke="black" points="302.44,-119.68 298.23,-109.96 295.46,-120.18 302.44,-119.68"/>
</g>
<!-- aws&#45;c&#45;http -->
<g id="node8" class="node">
<title>aws&#45;c&#45;http</title>
<g id="a_node8"><a xlink:href="https://github.com/conda-forge/aws-c-http-feedstock" xlink:title="aws c http">
<ellipse fill="#fde725" stroke="black" cx="369" cy="-306" rx="63.31" ry="18"/>
<text text-anchor="middle" x="369" y="-301.32" font-family="Times,serif" font-size="14.00">aws c http</text>
</a>
</g>
</g>
<!-- aws&#45;c&#45;io&#45;&gt;aws&#45;c&#45;http -->
<g id="edge14" class="edge">
<title>aws&#45;c&#45;io&#45;&gt;aws&#45;c&#45;http</title>
<path fill="none" stroke="black" d="M559.35,-365.44C521.85,-353.93 463.94,-336.15 421.85,-323.22"/>
<polygon fill="black" stroke="black" points="423,-319.92 412.41,-320.33 420.94,-326.61 423,-319.92"/>
</g>
<!-- aws&#45;c&#45;mqtt -->
<g id="node9" class="node">
<title>aws&#45;c&#45;mqtt</title>
<g id="a_node9"><a xlink:href="https://github.com/conda-forge/aws-c-mqtt-feedstock" xlink:title="aws c mqtt">
<ellipse fill="#fde725" stroke="black" cx="392" cy="-162" rx="66.47" ry="18"/>
<text text-anchor="middle" x="392" y="-157.32" font-family="Times,serif" font-size="14.00">aws c mqtt</text>
</a>
</g>
</g>
<!-- aws&#45;c&#45;io&#45;&gt;aws&#45;c&#45;mqtt -->
<g id="edge15" class="edge">
<title>aws&#45;c&#45;io&#45;&gt;aws&#45;c&#45;mqtt</title>
<path fill="none" stroke="black" d="M582.38,-360.73C555.87,-331.37 497.89,-267.76 447,-216 437.6,-206.44 427.05,-196.17 417.73,-187.24"/>
<polygon fill="black" stroke="black" points="420.32,-184.88 410.67,-180.52 415.5,-189.95 420.32,-184.88"/>
</g>
<!-- aws&#45;c&#45;auth -->
<g id="node10" class="node">
<title>aws&#45;c&#45;auth</title>
<g id="a_node10"><a xlink:href="https://github.com/conda-forge/aws-c-auth-feedstock" xlink:title="aws c auth">
<ellipse fill="#fde725" stroke="black" cx="220" cy="-234" rx="64.89" ry="18"/>
<text text-anchor="middle" x="220" y="-229.32" font-family="Times,serif" font-size="14.00">aws c auth</text>
</a>
</g>
</g>
<!-- aws&#45;c&#45;io&#45;&gt;aws&#45;c&#45;auth -->
<g id="edge16" class="edge">
<title>aws&#45;c&#45;io&#45;&gt;aws&#45;c&#45;auth</title>
<path fill="none" stroke="black" d="M551.69,-369.09C468.2,-354.51 298.39,-324.79 297,-324 271.01,-309.25 249.58,-282.29 235.98,-261.9"/>
<polygon fill="black" stroke="black" points="238.94,-260.02 230.6,-253.49 233.04,-263.8 238.94,-260.02"/>
</g>
<!-- aws&#45;c&#45;http&#45;&gt;aws&#45;c&#45;s3 -->
<g id="edge17" class="edge">
<title>aws&#45;c&#45;http&#45;&gt;aws&#45;c&#45;s3</title>
<path fill="none" stroke="black" d="M411.77,-292.28C436.94,-283.49 468.54,-270.11 493,-252 516.37,-234.7 537.17,-208.72 550.9,-189.29"/>
<polygon fill="black" stroke="black" points="553.78,-191.28 556.55,-181.06 548.01,-187.32 553.78,-191.28"/>
</g>
<!-- aws&#45;c&#45;http&#45;&gt;awscrt -->
<g id="edge18" class="edge">
<title>aws&#45;c&#45;http&#45;&gt;awscrt</title>
<path fill="none" stroke="black" d="M382.02,-288.02C410.22,-251.49 476.7,-166.9 505,-144 522.56,-129.78 544.51,-117.58 563.28,-108.47"/>
<polygon fill="black" stroke="black" points="564.69,-111.68 572.25,-104.26 561.71,-105.35 564.69,-111.68"/>
</g>
<!-- aws&#45;c&#45;http&#45;&gt;aws&#45;crt&#45;cpp -->
<g id="edge19" class="edge">
<title>aws&#45;c&#45;http&#45;&gt;aws&#45;crt&#45;cpp</title>
<path fill="none" stroke="black" d="M352.56,-288.17C331.87,-265.71 297.43,-223.64 284,-180 277.89,-160.13 281.89,-136.91 287.16,-119.17"/>
<polygon fill="black" stroke="black" points="290.43,-120.42 290.23,-109.83 283.78,-118.23 290.43,-120.42"/>
</g>
<!-- aws&#45;c&#45;http&#45;&gt;aws&#45;c&#45;mqtt -->
<g id="edge20" class="edge">
<title>aws&#45;c&#45;http&#45;&gt;aws&#45;c&#45;mqtt</title>
<path fill="none" stroke="black" d="M371.82,-287.59C375.7,-263.61 382.74,-220.14 387.4,-191.42"/>
<polygon fill="black" stroke="black" points="390.84,-192.04 388.99,-181.6 383.93,-190.92 390.84,-192.04"/>
</g>
<!-- aws&#45;c&#45;http&#45;&gt;aws&#45;c&#45;auth -->
<g id="edge21" class="edge">
<title>aws&#45;c&#45;http&#45;&gt;aws&#45;c&#45;auth</title>
<path fill="none" stroke="black" d="M337.4,-290.15C315.52,-279.88 286.16,-266.08 262.27,-254.86"/>
<polygon fill="black" stroke="black" points="263.98,-251.79 253.44,-250.71 261,-258.13 263.98,-251.79"/>
</g>
<!-- aws&#45;c&#45;mqtt&#45;&gt;awscrt -->
<g id="edge22" class="edge">
<title>aws&#45;c&#45;mqtt&#45;&gt;awscrt</title>
<path fill="none" stroke="black" d="M433.13,-147.42C469.4,-135.44 522.15,-118.03 559.42,-105.72"/>
<polygon fill="black" stroke="black" points="560.14,-109.17 568.54,-102.71 557.95,-102.52 560.14,-109.17"/>
</g>
<!-- aws&#45;c&#45;mqtt&#45;&gt;aws&#45;crt&#45;cpp -->
<g id="edge23" class="edge">
<title>aws&#45;c&#45;mqtt&#45;&gt;aws&#45;crt&#45;cpp</title>
<path fill="none" stroke="black" d="M370.2,-144.76C357.95,-135.64 342.45,-124.1 328.96,-114.06"/>
<polygon fill="black" stroke="black" points="331.33,-111.46 321.22,-108.29 327.15,-117.07 331.33,-111.46"/>
</g>
<!-- aws&#45;c&#45;auth&#45;&gt;aws&#45;c&#45;s3 -->
<g id="edge24" class="edge">
<title>aws&#45;c&#45;auth&#45;&gt;aws&#45;c&#45;s3</title>
<path fill="none" stroke="black" d="M271.35,-222.67C335.6,-209.75 445.25,-187.69 511.73,-174.32"/>
<polygon fill="black" stroke="black" points="512.22,-177.79 521.33,-172.39 510.84,-170.93 512.22,-177.79"/>
</g>
<!-- aws&#45;c&#45;auth&#45;&gt;awscrt -->
<g id="edge25" class="edge">
<title>aws&#45;c&#45;auth&#45;&gt;awscrt</title>
<path fill="none" stroke="black" d="M233.11,-216.21C250.13,-195.69 281.82,-161.54 317,-144 391.12,-107.04 487.6,-95.67 547.67,-92.28"/>
<polygon fill="black" stroke="black" points="547.49,-95.8 557.3,-91.8 547.14,-88.8 547.49,-95.8"/>
</g>
<!-- aws&#45;c&#45;auth&#45;&gt;aws&#45;crt&#45;cpp -->
<g id="edge26" class="edge">
<title>aws&#45;c&#45;auth&#45;&gt;aws&#45;crt&#45;cpp</title>
<path fill="none" stroke="black" d="M211.69,-215.72C203.91,-196.85 195.23,-166.33 208,-144 216.64,-128.89 231.45,-117.66 246.59,-109.53"/>
<polygon fill="black" stroke="black" points="247.75,-112.85 255.17,-105.29 244.65,-106.58 247.75,-112.85"/>
</g>
<!-- aws&#45;c&#45;cal -->
<g id="node11" class="node">
<title>aws&#45;c&#45;cal</title>
<g id="a_node11"><a xlink:href="https://github.com/conda-forge/aws-c-cal-feedstock/pull/141" xlink:title="aws c cal ❎">
<ellipse fill="#31688e" stroke="black" cx="557" cy="-450" rx="71.73" ry="18"/>
<text text-anchor="middle" x="557" y="-445.32" font-family="Times,serif" font-size="14.00" fill="white">aws c cal ❎</text>
</a>
</g>
</g>
<!-- aws&#45;c&#45;cal&#45;&gt;aws&#45;c&#45;s3 -->
<g id="edge27" class="edge">
<title>aws&#45;c&#45;cal&#45;&gt;aws&#45;c&#45;s3</title>
<path fill="none" stroke="black" d="M603.99,-436.1C623.99,-428.02 645.35,-415.36 657,-396 699.3,-325.71 630.25,-231.85 591.49,-187.8"/>
<polygon fill="black" stroke="black" points="594.26,-185.65 584.97,-180.56 589.06,-190.33 594.26,-185.65"/>
</g>
<!-- aws&#45;c&#45;cal&#45;&gt;awscrt -->
<g id="edge28" class="edge">
<title>aws&#45;c&#45;cal&#45;&gt;awscrt</title>
<path fill="none" stroke="black" d="M618.51,-440.5C731.81,-423.1 962,-378.9 962,-307 962,-307 962,-307 962,-233 962,-190.66 960.82,-170.76 928,-144 887.87,-111.28 741.48,-98.31 659.89,-93.53"/>
<polygon fill="black" stroke="black" points="660.51,-90.06 650.33,-93 660.12,-97.05 660.51,-90.06"/>
</g>
<!-- aws&#45;c&#45;cal&#45;&gt;aws&#45;crt&#45;cpp -->
<g id="edge29" class="edge">
<title>aws&#45;c&#45;cal&#45;&gt;aws&#45;crt&#45;cpp</title>
<path fill="none" stroke="black" d="M486.74,-445.8C337,-437.06 0,-406.36 0,-307 0,-307 0,-307 0,-233 0,-135.82 130.74,-105.08 219.03,-95.4"/>
<polygon fill="black" stroke="black" points="219.28,-98.89 228.87,-94.4 218.57,-91.93 219.28,-98.89"/>
</g>
<!-- aws&#45;c&#45;cal&#45;&gt;aws&#45;c&#45;io -->
<g id="edge30" class="edge">
<title>aws&#45;c&#45;cal&#45;&gt;aws&#45;c&#45;io</title>
<path fill="none" stroke="black" d="M566.89,-431.7C571.34,-423.9 576.71,-414.51 581.67,-405.83"/>
<polygon fill="black" stroke="black" points="584.55,-407.84 586.48,-397.42 578.47,-404.36 584.55,-407.84"/>
</g>
<!-- aws&#45;c&#45;cal&#45;&gt;aws&#45;c&#45;http -->
<g id="edge31" class="edge">
<title>aws&#45;c&#45;cal&#45;&gt;aws&#45;c&#45;http</title>
<path fill="none" stroke="black" d="M549.62,-431.67C540.4,-411.89 522.89,-379.73 499,-360 478.06,-342.71 450.71,-330.43 426.51,-322.07"/>
<polygon fill="black" stroke="black" points="427.68,-318.77 417.08,-318.98 425.49,-325.42 427.68,-318.77"/>
</g>
<!-- aws&#45;c&#45;cal&#45;&gt;aws&#45;c&#45;auth -->
<g id="edge32" class="edge">
<title>aws&#45;c&#45;cal&#45;&gt;aws&#45;c&#45;auth</title>
<path fill="none" stroke="black" d="M486.03,-446.81C402.81,-442.65 272.02,-430.64 239,-396 205.32,-360.68 208.55,-299.34 214.14,-263.44"/>
<polygon fill="black" stroke="black" points="217.55,-264.25 215.82,-253.8 210.65,-263.05 217.55,-264.25"/>
</g>
<!-- aws&#45;c&#45;compression -->
<g id="node12" class="node">
<title>aws&#45;c&#45;compression</title>
<g id="a_node12"><a xlink:href="https://github.com/conda-forge/aws-c-compression-feedstock/pull/78" xlink:title="aws c compression ❎">
<ellipse fill="#31688e" stroke="black" cx="369" cy="-378" rx="120.65" ry="18"/>
<text text-anchor="middle" x="369" y="-373.32" font-family="Times,serif" font-size="14.00" fill="white">aws c compression ❎</text>
</a>
</g>
</g>
<!-- aws&#45;c&#45;compression&#45;&gt;aws&#45;c&#45;http -->
<g id="edge33" class="edge">
<title>aws&#45;c&#45;compression&#45;&gt;aws&#45;c&#45;http</title>
<path fill="none" stroke="black" d="M369,-359.7C369,-352.41 369,-343.73 369,-335.54"/>
<polygon fill="black" stroke="black" points="372.5,-335.62 369,-325.62 365.5,-335.62 372.5,-335.62"/>
</g>
<!-- aws&#45;c&#45;sdkutils -->
<g id="node13" class="node">
<title>aws&#45;c&#45;sdkutils</title>
<g id="a_node13"><a xlink:href="https://github.com/conda-forge/aws-c-sdkutils-feedstock" xlink:title="aws c sdkutils">
<ellipse fill="#35b779" stroke="black" cx="110" cy="-306" rx="81.72" ry="18"/>
<text text-anchor="middle" x="110" y="-301.32" font-family="Times,serif" font-size="14.00">aws c sdkutils</text>
</a>
</g>
</g>
<!-- aws&#45;c&#45;sdkutils&#45;&gt;aws&#45;crt&#45;cpp -->
<g id="edge34" class="edge">
<title>aws&#45;c&#45;sdkutils&#45;&gt;aws&#45;crt&#45;cpp</title>
<path fill="none" stroke="black" d="M115.02,-287.63C125.3,-255.01 151.75,-184.26 198,-144 213.61,-130.41 233.3,-119.03 251.08,-110.34"/>
<polygon fill="black" stroke="black" points="252.35,-113.61 259.9,-106.19 249.37,-107.28 252.35,-113.61"/>
</g>
<!-- aws&#45;c&#45;sdkutils&#45;&gt;aws&#45;c&#45;auth -->
<g id="edge35" class="edge">
<title>aws&#45;c&#45;sdkutils&#45;&gt;aws&#45;c&#45;auth</title>
<path fill="none" stroke="black" d="M135.79,-288.59C150.62,-279.15 169.44,-267.17 185.53,-256.94"/>
<polygon fill="black" stroke="black" points="187.29,-259.96 193.85,-251.64 183.54,-254.06 187.29,-259.96"/>
</g>
</g>
</svg>
