<?xml version="1.0" encoding="UTF-8" standalone="no"?>
<!DOCTYPE svg PUBLIC "-//W3C//DTD SVG 1.1//EN"
 "http://www.w3.org/Graphics/SVG/1.1/DTD/svg11.dtd">
<!-- Generated by graphviz version 12.2.1 (20250203.1708)
 -->
<!-- Pages: 1 -->
<svg width="800pt" height="332pt"
 viewBox="0.00 0.00 800.11 332.00" xmlns="http://www.w3.org/2000/svg" xmlns:xlink="http://www.w3.org/1999/xlink">
<g id="graph0" class="graph" transform="scale(1 1) rotate(0) translate(4 328)">
<polygon fill="white" stroke="none" points="-4,4 -4,-328 796.11,-328 796.11,4 -4,4"/>
<!-- aws&#45;sdk&#45;cpp -->
<g id="node1" class="node">
<title>aws&#45;sdk&#45;cpp</title>
<g id="a_node1"><a xlink:href="https://github.com/conda-forge/aws-sdk-cpp-feedstock" xlink:title="aws sdk cpp">
<ellipse fill="#fde725" stroke="black" cx="402.98" cy="-18" rx="72.25" ry="18"/>
<text text-anchor="middle" x="402.98" y="-13.32" font-family="Times,serif" font-size="14.00">aws sdk cpp</text>
</a>
</g>
</g>
<!-- aws&#45;checksums -->
<g id="node2" class="node">
<title>aws&#45;checksums</title>
<g id="a_node2"><a xlink:href="https://github.com/conda-forge/aws-checksums-feedstock/pull/97" xlink:title="aws checksums ❎">
<ellipse fill="#31688e" stroke="black" cx="529.98" cy="-234" rx="103.82" ry="18"/>
<text text-anchor="middle" x="529.98" y="-229.32" font-family="Times,serif" font-size="14.00" fill="white">aws checksums ❎</text>
</a>
</g>
</g>
<!-- aws&#45;c&#45;event&#45;stream -->
<g id="node3" class="node">
<title>aws&#45;c&#45;event&#45;stream</title>
<g id="a_node3"><a xlink:href="https://github.com/conda-forge/aws-c-event-stream-feedstock" xlink:title="aws c event stream">
<ellipse fill="#fde725" stroke="black" cx="666.98" cy="-162" rx="108.55" ry="18"/>
<text text-anchor="middle" x="666.98" y="-157.32" font-family="Times,serif" font-size="14.00">aws c event stream</text>
</a>
</g>
</g>
<!-- aws&#45;checksums&#45;&gt;aws&#45;c&#45;event&#45;stream -->
<g id="edge1" class="edge">
<title>aws&#45;checksums&#45;&gt;aws&#45;c&#45;event&#45;stream</title>
<path fill="none" stroke="black" d="M562.1,-216.59C580.69,-207.09 604.31,-195.02 624.43,-184.74"/>
<polygon fill="black" stroke="black" points="625.93,-187.91 633.24,-180.24 622.74,-181.67 625.93,-187.91"/>
</g>
<!-- aws&#45;c&#45;s3 -->
<g id="node4" class="node">
<title>aws&#45;c&#45;s3</title>
<g id="a_node4"><a xlink:href="https://github.com/conda-forge/aws-c-s3-feedstock" xlink:title="aws c s3">
<ellipse fill="#fde725" stroke="black" cx="297.98" cy="-162" rx="53.84" ry="18"/>
<text text-anchor="middle" x="297.98" y="-157.32" font-family="Times,serif" font-size="14.00">aws c s3</text>
</a>
</g>
</g>
<!-- aws&#45;checksums&#45;&gt;aws&#45;c&#45;s3 -->
<g id="edge2" class="edge">
<title>aws&#45;checksums&#45;&gt;aws&#45;c&#45;s3</title>
<path fill="none" stroke="black" d="M479.64,-217.81C440.54,-206.01 386.59,-189.74 347.66,-177.99"/>
<polygon fill="black" stroke="black" points="349.13,-174.78 338.55,-175.24 347.11,-181.48 349.13,-174.78"/>
</g>
<!-- awscrt -->
<g id="node5" class="node">
<title>awscrt</title>
<g id="a_node5"><a xlink:href="https://github.com/conda-forge/awscrt-feedstock" xlink:title="awscrt">
<ellipse fill="#fde725" stroke="black" cx="474.98" cy="-90" rx="44.9" ry="18"/>
<text text-anchor="middle" x="474.98" y="-85.33" font-family="Times,serif" font-size="14.00">awscrt</text>
</a>
</g>
</g>
<!-- aws&#45;checksums&#45;&gt;awscrt -->
<g id="edge3" class="edge">
<title>aws&#45;checksums&#45;&gt;awscrt</title>
<path fill="none" stroke="black" d="M528.28,-215.67C526.03,-197.29 521.09,-167.69 510.98,-144 506.9,-134.44 501,-124.8 495.16,-116.41"/>
<polygon fill="black" stroke="black" points="498.05,-114.44 489.33,-108.44 492.4,-118.57 498.05,-114.44"/>
</g>
<!-- aws&#45;c&#45;event&#45;stream&#45;&gt;aws&#45;sdk&#45;cpp -->
<g id="edge4" class="edge">
<title>aws&#45;c&#45;event&#45;stream&#45;&gt;aws&#45;sdk&#45;cpp</title>
<path fill="none" stroke="black" d="M643.81,-144.26C616.99,-125.32 571.09,-94.22 528.98,-72 504.59,-59.13 476.38,-47.03 452.85,-37.64"/>
<polygon fill="black" stroke="black" points="454.39,-34.49 443.8,-34.08 451.82,-41 454.39,-34.49"/>
</g>
<!-- aws&#45;c&#45;event&#45;stream&#45;&gt;awscrt -->
<g id="edge5" class="edge">
<title>aws&#45;c&#45;event&#45;stream&#45;&gt;awscrt</title>
<path fill="none" stroke="black" d="M623.41,-145.12C591.84,-133.61 549.35,-118.12 517.93,-106.66"/>
<polygon fill="black" stroke="black" points="519.32,-103.44 508.73,-103.3 516.93,-110.02 519.32,-103.44"/>
</g>
<!-- aws&#45;crt&#45;cpp -->
<g id="node6" class="node">
<title>aws&#45;crt&#45;cpp</title>
<g id="a_node6"><a xlink:href="https://github.com/conda-forge/aws-crt-cpp-feedstock" xlink:title="aws crt cpp">
<ellipse fill="#fde725" stroke="black" cx="297.98" cy="-90" rx="69.1" ry="18"/>
<text text-anchor="middle" x="297.98" y="-85.33" font-family="Times,serif" font-size="14.00">aws crt cpp</text>
</a>
</g>
</g>
<!-- aws&#45;c&#45;event&#45;stream&#45;&gt;aws&#45;crt&#45;cpp -->
<g id="edge6" class="edge">
<title>aws&#45;c&#45;event&#45;stream&#45;&gt;aws&#45;crt&#45;cpp</title>
<path fill="none" stroke="black" d="M597.57,-147.83C530.47,-135.1 429.56,-115.96 363.72,-103.47"/>
<polygon fill="black" stroke="black" points="364.63,-100.08 354.15,-101.66 363.32,-106.96 364.63,-100.08"/>
</g>
<!-- aws&#45;c&#45;s3&#45;&gt;awscrt -->
<g id="edge7" class="edge">
<title>aws&#45;c&#45;s3&#45;&gt;awscrt</title>
<path fill="none" stroke="black" d="M331.69,-147.67C360.58,-136.24 402.32,-119.74 433.3,-107.48"/>
<polygon fill="black" stroke="black" points="434.35,-110.83 442.36,-103.9 431.78,-104.32 434.35,-110.83"/>
</g>
<!-- aws&#45;c&#45;s3&#45;&gt;aws&#45;crt&#45;cpp -->
<g id="edge8" class="edge">
<title>aws&#45;c&#45;s3&#45;&gt;aws&#45;crt&#45;cpp</title>
<path fill="none" stroke="black" d="M297.98,-143.7C297.98,-136.41 297.98,-127.73 297.98,-119.54"/>
<polygon fill="black" stroke="black" points="301.48,-119.62 297.98,-109.62 294.48,-119.62 301.48,-119.62"/>
</g>
<!-- aws&#45;crt&#45;cpp&#45;&gt;aws&#45;sdk&#45;cpp -->
<g id="edge9" class="edge">
<title>aws&#45;crt&#45;cpp&#45;&gt;aws&#45;sdk&#45;cpp</title>
<path fill="none" stroke="black" d="M322.33,-72.76C336.15,-63.55 353.66,-51.88 368.83,-41.77"/>
<polygon fill="black" stroke="black" points="370.76,-44.69 377.14,-36.23 366.87,-38.86 370.76,-44.69"/>
</g>
<!-- aws&#45;c&#45;http -->
<g id="node7" class="node">
<title>aws&#45;c&#45;http</title>
<g id="a_node7"><a xlink:href="https://github.com/conda-forge/aws-c-http-feedstock" xlink:title="aws c http">
<ellipse fill="#35b779" stroke="black" cx="297.98" cy="-306" rx="63.31" ry="18"/>
<text text-anchor="middle" x="297.98" y="-301.32" font-family="Times,serif" font-size="14.00">aws c http</text>
</a>
</g>
</g>
<!-- aws&#45;c&#45;http&#45;&gt;aws&#45;c&#45;s3 -->
<g id="edge10" class="edge">
<title>aws&#45;c&#45;http&#45;&gt;aws&#45;c&#45;s3</title>
<path fill="none" stroke="black" d="M297.98,-287.59C297.98,-263.61 297.98,-220.14 297.98,-191.42"/>
<polygon fill="black" stroke="black" points="301.48,-191.62 297.98,-181.62 294.48,-191.62 301.48,-191.62"/>
</g>
<!-- aws&#45;c&#45;http&#45;&gt;awscrt -->
<g id="edge11" class="edge">
<title>aws&#45;c&#45;http&#45;&gt;awscrt</title>
<path fill="none" stroke="black" d="M357.86,-299.68C477.86,-287.53 740.16,-252.99 784.98,-180 793.35,-166.37 795.3,-156.23 784.98,-144 753.19,-106.31 611.94,-95.42 531.52,-92.28"/>
<polygon fill="black" stroke="black" points="531.75,-88.78 521.63,-91.92 531.5,-95.78 531.75,-88.78"/>
</g>
<!-- aws&#45;c&#45;http&#45;&gt;aws&#45;crt&#45;cpp -->
<g id="edge12" class="edge">
<title>aws&#45;c&#45;http&#45;&gt;aws&#45;crt&#45;cpp</title>
<path fill="none" stroke="black" d="M286.27,-288.2C270.94,-265.09 244.87,-221.61 234.98,-180 231.28,-164.43 228.23,-158.51 234.98,-144 240.58,-131.97 250.4,-121.7 260.64,-113.49"/>
<polygon fill="black" stroke="black" points="262.49,-116.48 268.44,-107.72 258.32,-110.85 262.49,-116.48"/>
</g>
<!-- aws&#45;c&#45;mqtt -->
<g id="node8" class="node">
<title>aws&#45;c&#45;mqtt</title>
<g id="a_node8"><a xlink:href="https://github.com/conda-forge/aws-c-mqtt-feedstock" xlink:title="aws c mqtt">
<ellipse fill="#fde725" stroke="black" cx="435.98" cy="-162" rx="66.47" ry="18"/>
<text text-anchor="middle" x="435.98" y="-157.32" font-family="Times,serif" font-size="14.00">aws c mqtt</text>
</a>
</g>
</g>
<!-- aws&#45;c&#45;http&#45;&gt;aws&#45;c&#45;mqtt -->
<g id="edge13" class="edge">
<title>aws&#45;c&#45;http&#45;&gt;aws&#45;c&#45;mqtt</title>
<path fill="none" stroke="black" d="M314.35,-288.15C338.53,-263.28 383.92,-216.57 411.89,-187.79"/>
<polygon fill="black" stroke="black" points="414.12,-190.52 418.57,-180.91 409.1,-185.64 414.12,-190.52"/>
</g>
<!-- aws&#45;c&#45;auth -->
<g id="node9" class="node">
<title>aws&#45;c&#45;auth</title>
<g id="a_node9"><a xlink:href="https://github.com/conda-forge/aws-c-auth-feedstock" xlink:title="aws c auth">
<ellipse fill="#fde725" stroke="black" cx="153.98" cy="-234" rx="64.89" ry="18"/>
<text text-anchor="middle" x="153.98" y="-229.32" font-family="Times,serif" font-size="14.00">aws c auth</text>
</a>
</g>
</g>
<!-- aws&#45;c&#45;http&#45;&gt;aws&#45;c&#45;auth -->
<g id="edge14" class="edge">
<title>aws&#45;c&#45;http&#45;&gt;aws&#45;c&#45;auth</title>
<path fill="none" stroke="black" d="M267.09,-289.98C246.16,-279.81 218.27,-266.25 195.42,-255.14"/>
<polygon fill="black" stroke="black" points="197.2,-252.12 186.68,-250.9 194.14,-258.41 197.2,-252.12"/>
</g>
<!-- aws&#45;c&#45;mqtt&#45;&gt;awscrt -->
<g id="edge15" class="edge">
<title>aws&#45;c&#45;mqtt&#45;&gt;awscrt</title>
<path fill="none" stroke="black" d="M445.62,-143.7C450.03,-135.78 455.35,-126.23 460.25,-117.44"/>
<polygon fill="black" stroke="black" points="463.17,-119.38 464.98,-108.94 457.06,-115.98 463.17,-119.38"/>
</g>
<!-- aws&#45;c&#45;mqtt&#45;&gt;aws&#45;crt&#45;cpp -->
<g id="edge16" class="edge">
<title>aws&#45;c&#45;mqtt&#45;&gt;aws&#45;crt&#45;cpp</title>
<path fill="none" stroke="black" d="M405.7,-145.64C386.06,-135.68 360.24,-122.58 338.8,-111.7"/>
<polygon fill="black" stroke="black" points="340.52,-108.65 330.02,-107.25 337.36,-114.9 340.52,-108.65"/>
</g>
<!-- aws&#45;c&#45;auth&#45;&gt;aws&#45;c&#45;s3 -->
<g id="edge17" class="edge">
<title>aws&#45;c&#45;auth&#45;&gt;aws&#45;c&#45;s3</title>
<path fill="none" stroke="black" d="M185.23,-217.81C206.6,-207.42 235.12,-193.55 258.13,-182.37"/>
<polygon fill="black" stroke="black" points="259.45,-185.62 266.91,-178.1 256.39,-179.33 259.45,-185.62"/>
</g>
<!-- aws&#45;c&#45;auth&#45;&gt;awscrt -->
<g id="edge18" class="edge">
<title>aws&#45;c&#45;auth&#45;&gt;awscrt</title>
<path fill="none" stroke="black" d="M164.61,-216C178.31,-195.6 204.06,-161.9 234.98,-144 251.21,-134.6 358.36,-113.11 423.88,-100.57"/>
<polygon fill="black" stroke="black" points="424.16,-104.08 433.33,-98.77 422.85,-97.21 424.16,-104.08"/>
</g>
<!-- aws&#45;c&#45;auth&#45;&gt;aws&#45;crt&#45;cpp -->
<g id="edge19" class="edge">
<title>aws&#45;c&#45;auth&#45;&gt;aws&#45;crt&#45;cpp</title>
<path fill="none" stroke="black" d="M151.05,-215.69C148.76,-196.21 148.2,-164.62 163.98,-144 179.67,-123.49 204.48,-110.91 228.51,-103.19"/>
<polygon fill="black" stroke="black" points="229.41,-106.58 238.01,-100.4 227.43,-99.86 229.41,-106.58"/>
</g>
<!-- aws&#45;c&#45;sdkutils -->
<g id="node10" class="node">
<title>aws&#45;c&#45;sdkutils</title>
<g id="a_node10"><a xlink:href="https://github.com/conda-forge/aws-c-sdkutils-feedstock/pull/82" xlink:title="aws c sdkutils ❎">
<ellipse fill="#31688e" stroke="black" cx="96.98" cy="-306" rx="96.98" ry="18"/>
<text text-anchor="middle" x="96.98" y="-301.32" font-family="Times,serif" font-size="14.00" fill="white">aws c sdkutils ❎</text>
</a>
</g>
</g>
<!-- aws&#45;c&#45;sdkutils&#45;&gt;aws&#45;crt&#45;cpp -->
<g id="edge20" class="edge">
<title>aws&#45;c&#45;sdkutils&#45;&gt;aws&#45;crt&#45;cpp</title>
<path fill="none" stroke="black" d="M88.16,-287.74C80.05,-269.42 70.6,-239.86 79.98,-216 95.98,-175.32 110.4,-167.94 146.98,-144 173.76,-126.47 207.02,-113.99 235.5,-105.56"/>
<polygon fill="black" stroke="black" points="236.45,-108.93 245.11,-102.82 234.53,-102.19 236.45,-108.93"/>
</g>
<!-- aws&#45;c&#45;sdkutils&#45;&gt;aws&#45;c&#45;auth -->
<g id="edge21" class="edge">
<title>aws&#45;c&#45;sdkutils&#45;&gt;aws&#45;c&#45;auth</title>
<path fill="none" stroke="black" d="M111.07,-287.7C117.8,-279.44 125.97,-269.39 133.38,-260.3"/>
<polygon fill="black" stroke="black" points="135.89,-262.76 139.49,-252.8 130.46,-258.34 135.89,-262.76"/>
</g>
</g>
</svg>
