<?xml version="1.0" encoding="UTF-8" standalone="no"?>
<!DOCTYPE svg PUBLIC "-//W3C//DTD SVG 1.1//EN"
 "http://www.w3.org/Graphics/SVG/1.1/DTD/svg11.dtd">
<!-- Generated by graphviz version 12.2.1 (20250203.1708)
 -->
<!-- Pages: 1 -->
<svg width="550pt" height="188pt"
 viewBox="0.00 0.00 550.28 188.00" xmlns="http://www.w3.org/2000/svg" xmlns:xlink="http://www.w3.org/1999/xlink">
<g id="graph0" class="graph" transform="scale(1 1) rotate(0) translate(4 184)">
<polygon fill="white" stroke="none" points="-4,4 -4,-184 546.28,-184 546.28,4 -4,4"/>
<!-- arrow&#45;cpp -->
<g id="node1" class="node">
<title>arrow&#45;cpp</title>
<g id="a_node1"><a xlink:href="https://github.com/conda-forge/arrow-cpp-feedstock" xlink:title="arrow cpp">
<ellipse fill="#fde725" stroke="black" cx="284.81" cy="-18" rx="61.73" ry="18"/>
<text text-anchor="middle" x="284.81" y="-13.32" font-family="Times,serif" font-size="14.00">arrow cpp</text>
</a>
</g>
</g>
<!-- tiledb -->
<g id="node2" class="node">
<title>tiledb</title>
<g id="a_node2"><a xlink:href="https://github.com/conda-forge/tiledb-feedstock" xlink:title="tiledb">
<ellipse fill="#fde725" stroke="black" cx="424.81" cy="-18" rx="40.16" ry="18"/>
<text text-anchor="middle" x="424.81" y="-13.32" font-family="Times,serif" font-size="14.00">tiledb</text>
</a>
</g>
</g>
<!-- aws&#45;sdk&#45;cpp -->
<g id="node3" class="node">
<title>aws&#45;sdk&#45;cpp</title>
<g id="a_node3"><a xlink:href="https://github.com/conda-forge/aws-sdk-cpp-feedstock" xlink:title="aws sdk cpp">
<ellipse fill="#fde725" stroke="black" cx="344.81" cy="-90" rx="72.25" ry="18"/>
<text text-anchor="middle" x="344.81" y="-85.33" font-family="Times,serif" font-size="14.00">aws sdk cpp</text>
</a>
</g>
</g>
<!-- aws&#45;sdk&#45;cpp&#45;&gt;arrow&#45;cpp -->
<g id="edge1" class="edge">
<title>aws&#45;sdk&#45;cpp&#45;&gt;arrow&#45;cpp</title>
<path fill="none" stroke="black" d="M330.29,-72.05C323.14,-63.71 314.37,-53.49 306.46,-44.25"/>
<polygon fill="black" stroke="black" points="309.35,-42.25 300.19,-36.94 304.04,-46.81 309.35,-42.25"/>
</g>
<!-- aws&#45;sdk&#45;cpp&#45;&gt;tiledb -->
<g id="edge2" class="edge">
<title>aws&#45;sdk&#45;cpp&#45;&gt;tiledb</title>
<path fill="none" stroke="black" d="M363.77,-72.41C374.12,-63.35 387.11,-51.99 398.44,-42.08"/>
<polygon fill="black" stroke="black" points="400.72,-44.73 405.95,-35.51 396.11,-39.46 400.72,-44.73"/>
</g>
<!-- aws&#45;c&#45;event&#45;stream -->
<g id="node4" class="node">
<title>aws&#45;c&#45;event&#45;stream</title>
<g id="a_node4"><a xlink:href="https://github.com/conda-forge/aws-c-event-stream-feedstock/pull/205" xlink:title="aws c event stream ❎">
<ellipse fill="#31688e" stroke="black" cx="123.81" cy="-162" rx="123.81" ry="18"/>
<text text-anchor="middle" x="123.81" y="-157.32" font-family="Times,serif" font-size="14.00" fill="white">aws c event stream ❎</text>
</a>
</g>
</g>
<!-- aws&#45;c&#45;event&#45;stream&#45;&gt;arrow&#45;cpp -->
<g id="edge3" class="edge">
<title>aws&#45;c&#45;event&#45;stream&#45;&gt;arrow&#45;cpp</title>
<path fill="none" stroke="black" d="M106.41,-143.96C89.2,-125.03 67.73,-94.19 84.81,-72 101.19,-50.72 166.67,-36.21 218.3,-27.83"/>
<polygon fill="black" stroke="black" points="218.59,-31.33 227.92,-26.32 217.5,-24.42 218.59,-31.33"/>
</g>
<!-- aws&#45;c&#45;event&#45;stream&#45;&gt;tiledb -->
<g id="edge6" class="edge">
<title>aws&#45;c&#45;event&#45;stream&#45;&gt;tiledb</title>
<path fill="none" stroke="black" d="M116.16,-143.67C108.73,-123.89 100.85,-91.72 117.81,-72 152.69,-31.45 303.34,-46.41 355.81,-36 363.63,-34.45 371.89,-32.6 379.87,-30.7"/>
<polygon fill="black" stroke="black" points="380.55,-34.14 389.44,-28.37 378.89,-27.34 380.55,-34.14"/>
</g>
<!-- aws&#45;c&#45;event&#45;stream&#45;&gt;aws&#45;sdk&#45;cpp -->
<g id="edge4" class="edge">
<title>aws&#45;c&#45;event&#45;stream&#45;&gt;aws&#45;sdk&#45;cpp</title>
<path fill="none" stroke="black" d="M173.96,-145.12C208.81,-134.08 255.23,-119.38 290.88,-108.08"/>
<polygon fill="black" stroke="black" points="291.65,-111.51 300.13,-105.15 289.54,-104.84 291.65,-111.51"/>
</g>
<!-- awscrt -->
<g id="node7" class="node">
<title>awscrt</title>
<g id="a_node7"><a xlink:href="https://github.com/conda-forge/awscrt-feedstock" xlink:title="awscrt">
<ellipse fill="#fde725" stroke="black" cx="171.81" cy="-90" rx="44.89" ry="18"/>
<text text-anchor="middle" x="171.81" y="-85.33" font-family="Times,serif" font-size="14.00">awscrt</text>
</a>
</g>
</g>
<!-- aws&#45;c&#45;event&#45;stream&#45;&gt;awscrt -->
<g id="edge5" class="edge">
<title>aws&#45;c&#45;event&#45;stream&#45;&gt;awscrt</title>
<path fill="none" stroke="black" d="M135.68,-143.7C141.22,-135.61 147.94,-125.81 154.07,-116.87"/>
<polygon fill="black" stroke="black" points="156.79,-119.1 159.56,-108.87 151.02,-115.14 156.79,-119.1"/>
</g>
<!-- aws&#45;c&#45;mqtt -->
<g id="node5" class="node">
<title>aws&#45;c&#45;mqtt</title>
<g id="a_node5"><a xlink:href="https://github.com/conda-forge/aws-c-mqtt-feedstock" xlink:title="aws c mqtt">
<ellipse fill="#35b779" stroke="black" cx="475.81" cy="-162" rx="66.47" ry="18"/>
<text text-anchor="middle" x="475.81" y="-157.32" font-family="Times,serif" font-size="14.00">aws c mqtt</text>
</a>
</g>
</g>
<!-- aws&#45;c&#45;mqtt&#45;&gt;arrow&#45;cpp -->
<g id="edge7" class="edge">
<title>aws&#45;c&#45;mqtt&#45;&gt;arrow&#45;cpp</title>
<path fill="none" stroke="black" d="M470.29,-143.91C463.05,-124.04 448.54,-91.51 425.81,-72 403.14,-52.54 372.61,-39.89 345.77,-31.85"/>
<polygon fill="black" stroke="black" points="346.94,-28.55 336.37,-29.2 345.04,-35.29 346.94,-28.55"/>
</g>
<!-- aws&#45;c&#45;mqtt&#45;&gt;tiledb -->
<g id="edge10" class="edge">
<title>aws&#45;c&#45;mqtt&#45;&gt;tiledb</title>
<path fill="none" stroke="black" d="M486.55,-143.78C496.64,-125.23 508.56,-95.24 496.81,-72 489.37,-57.29 475.71,-45.66 462.27,-37.09"/>
<polygon fill="black" stroke="black" points="464.31,-34.23 453.92,-32.16 460.75,-40.26 464.31,-34.23"/>
</g>
<!-- aws&#45;c&#45;mqtt&#45;&gt;aws&#45;sdk&#45;cpp -->
<g id="edge8" class="edge">
<title>aws&#45;c&#45;mqtt&#45;&gt;aws&#45;sdk&#45;cpp</title>
<path fill="none" stroke="black" d="M446.74,-145.46C428.38,-135.66 404.42,-122.85 384.35,-112.13"/>
<polygon fill="black" stroke="black" points="386.06,-109.07 375.59,-107.45 382.76,-115.25 386.06,-109.07"/>
</g>
<!-- aws&#45;c&#45;mqtt&#45;&gt;awscrt -->
<g id="edge9" class="edge">
<title>aws&#45;c&#45;mqtt&#45;&gt;awscrt</title>
<path fill="none" stroke="black" d="M426.29,-149.6C369.78,-136.59 277.91,-115.43 221.38,-102.41"/>
<polygon fill="black" stroke="black" points="222.23,-99.02 211.7,-100.18 220.66,-105.84 222.23,-99.02"/>
</g>
<!-- aws&#45;c&#45;s3 -->
<g id="node6" class="node">
<title>aws&#45;c&#45;s3</title>
<g id="a_node6"><a xlink:href="https://github.com/conda-forge/aws-c-s3-feedstock" xlink:title="aws c s3">
<ellipse fill="#35b779" stroke="black" cx="331.81" cy="-162" rx="53.84" ry="18"/>
<text text-anchor="middle" x="331.81" y="-157.32" font-family="Times,serif" font-size="14.00">aws c s3</text>
</a>
</g>
</g>
<!-- aws&#45;c&#45;s3&#45;&gt;arrow&#45;cpp -->
<g id="edge11" class="edge">
<title>aws&#45;c&#45;s3&#45;&gt;arrow&#45;cpp</title>
<path fill="none" stroke="black" d="M302.72,-146.56C288.17,-137.63 271.96,-124.68 263.81,-108 254.3,-88.54 260.9,-64.53 269.13,-46.36"/>
<polygon fill="black" stroke="black" points="272.21,-48.03 273.52,-37.51 265.94,-44.91 272.21,-48.03"/>
</g>
<!-- aws&#45;c&#45;s3&#45;&gt;tiledb -->
<g id="edge14" class="edge">
<title>aws&#45;c&#45;s3&#45;&gt;tiledb</title>
<path fill="none" stroke="black" d="M371.18,-149.45C391.31,-141.33 414,-128.22 425.81,-108 436.42,-89.83 435.46,-65.81 432.24,-47.3"/>
<polygon fill="black" stroke="black" points="435.67,-46.61 430.2,-37.53 428.82,-48.04 435.67,-46.61"/>
</g>
<!-- aws&#45;c&#45;s3&#45;&gt;aws&#45;sdk&#45;cpp -->
<g id="edge12" class="edge">
<title>aws&#45;c&#45;s3&#45;&gt;aws&#45;sdk&#45;cpp</title>
<path fill="none" stroke="black" d="M335.02,-143.7C336.39,-136.32 338.03,-127.52 339.56,-119.25"/>
<polygon fill="black" stroke="black" points="342.97,-120.06 341.36,-109.59 336.09,-118.79 342.97,-120.06"/>
</g>
<!-- aws&#45;c&#45;s3&#45;&gt;awscrt -->
<g id="edge13" class="edge">
<title>aws&#45;c&#45;s3&#45;&gt;awscrt</title>
<path fill="none" stroke="black" d="M300.2,-147.17C274.87,-136.09 239.18,-120.48 211.86,-108.52"/>
<polygon fill="black" stroke="black" points="213.42,-105.38 202.85,-104.58 210.61,-111.8 213.42,-105.38"/>
</g>
</g>
</svg>
