<?xml version="1.0" encoding="UTF-8" standalone="no"?>
<!DOCTYPE svg PUBLIC "-//W3C//DTD SVG 1.1//EN"
 "http://www.w3.org/Graphics/SVG/1.1/DTD/svg11.dtd">
<!-- Generated by graphviz version 12.0.0 (20240803.0821)
 -->
<!-- Pages: 1 -->
<svg width="786pt" height="404pt"
 viewBox="0.00 0.00 785.54 404.00" xmlns="http://www.w3.org/2000/svg" xmlns:xlink="http://www.w3.org/1999/xlink">
<g id="graph0" class="graph" transform="scale(1 1) rotate(0) translate(4 400)">
<polygon fill="white" stroke="none" points="-4,4 -4,-400 781.54,-400 781.54,4 -4,4"/>
<!-- aws&#45;sdk&#45;cpp -->
<g id="node1" class="node">
<title>aws&#45;sdk&#45;cpp</title>
<g id="a_node1"><a xlink:href="https://github.com/conda-forge/aws-sdk-cpp-feedstock" xlink:title="aws sdk cpp">
<ellipse fill="#fde725" stroke="black" cx="287.55" cy="-18" rx="72.25" ry="18"/>
<text text-anchor="middle" x="287.55" y="-13.32" font-family="Times,serif" font-size="14.00">aws sdk cpp</text>
</a>
</g>
</g>
<!-- aws&#45;c&#45;event&#45;stream -->
<g id="node2" class="node">
<title>aws&#45;c&#45;event&#45;stream</title>
<g id="a_node2"><a xlink:href="https://github.com/conda-forge/aws-c-event-stream-feedstock" xlink:title="aws c event stream">
<ellipse fill="#fde725" stroke="black" cx="108.55" cy="-162" rx="108.55" ry="18"/>
<text text-anchor="middle" x="108.55" y="-157.32" font-family="Times,serif" font-size="14.00">aws c event stream</text>
</a>
</g>
</g>
<!-- aws&#45;c&#45;event&#45;stream&#45;&gt;aws&#45;sdk&#45;cpp -->
<g id="edge1" class="edge">
<title>aws&#45;c&#45;event&#45;stream&#45;&gt;aws&#45;sdk&#45;cpp</title>
<path fill="none" stroke="black" d="M130.15,-143.87C162.12,-118.51 222.15,-70.89 258.12,-42.35"/>
<polygon fill="black" stroke="black" points="259.87,-45.43 265.53,-36.47 255.52,-39.94 259.87,-45.43"/>
</g>
<!-- aws&#45;crt&#45;cpp -->
<g id="node3" class="node">
<title>aws&#45;crt&#45;cpp</title>
<g id="a_node3"><a xlink:href="https://github.com/conda-forge/aws-crt-cpp-feedstock" xlink:title="aws crt cpp">
<ellipse fill="#fde725" stroke="black" cx="501.55" cy="-90" rx="69.1" ry="18"/>
<text text-anchor="middle" x="501.55" y="-85.33" font-family="Times,serif" font-size="14.00">aws crt cpp</text>
</a>
</g>
</g>
<!-- aws&#45;c&#45;event&#45;stream&#45;&gt;aws&#45;crt&#45;cpp -->
<g id="edge2" class="edge">
<title>aws&#45;c&#45;event&#45;stream&#45;&gt;aws&#45;crt&#45;cpp</title>
<path fill="none" stroke="black" d="M180.64,-148.16C253.2,-135.24 364.23,-115.46 434.83,-102.88"/>
<polygon fill="black" stroke="black" points="435.08,-106.4 444.31,-101.2 433.85,-99.5 435.08,-106.4"/>
</g>
<!-- awscrt -->
<g id="node4" class="node">
<title>awscrt</title>
<g id="a_node4"><a xlink:href="https://github.com/conda-forge/awscrt-feedstock" xlink:title="awscrt">
<ellipse fill="#fde725" stroke="black" cx="296.55" cy="-90" rx="44.9" ry="18"/>
<text text-anchor="middle" x="296.55" y="-85.33" font-family="Times,serif" font-size="14.00">awscrt</text>
</a>
</g>
</g>
<!-- aws&#45;c&#45;event&#45;stream&#45;&gt;awscrt -->
<g id="edge3" class="edge">
<title>aws&#45;c&#45;event&#45;stream&#45;&gt;awscrt</title>
<path fill="none" stroke="black" d="M151.21,-145.12C181.93,-133.68 223.21,-118.31 253.92,-106.87"/>
<polygon fill="black" stroke="black" points="254.74,-110.3 262.89,-103.53 252.3,-103.74 254.74,-110.3"/>
</g>
<!-- aws&#45;crt&#45;cpp&#45;&gt;aws&#45;sdk&#45;cpp -->
<g id="edge4" class="edge">
<title>aws&#45;crt&#45;cpp&#45;&gt;aws&#45;sdk&#45;cpp</title>
<path fill="none" stroke="black" d="M459.53,-75.25C425.52,-64.13 377.41,-48.39 340.72,-36.39"/>
<polygon fill="black" stroke="black" points="342.25,-33.21 331.65,-33.42 340.07,-39.86 342.25,-33.21"/>
</g>
<!-- aws&#45;c&#45;io -->
<g id="node5" class="node">
<title>aws&#45;c&#45;io</title>
<g id="a_node5"><a xlink:href="https://github.com/conda-forge/aws-c-io-feedstock" xlink:title="aws c io">
<ellipse fill="#35b779" stroke="black" cx="324.55" cy="-378" rx="51.21" ry="18"/>
<text text-anchor="middle" x="324.55" y="-373.32" font-family="Times,serif" font-size="14.00">aws c io</text>
</a>
</g>
</g>
<!-- aws&#45;c&#45;io&#45;&gt;aws&#45;c&#45;event&#45;stream -->
<g id="edge5" class="edge">
<title>aws&#45;c&#45;io&#45;&gt;aws&#45;c&#45;event&#45;stream</title>
<path fill="none" stroke="black" d="M274.69,-373.39C237.67,-368.12 188.45,-355.26 157.55,-324 122.04,-288.06 112.14,-227.2 109.47,-191.49"/>
<polygon fill="black" stroke="black" points="112.98,-191.7 108.9,-181.93 106,-192.12 112.98,-191.7"/>
</g>
<!-- aws&#45;c&#45;io&#45;&gt;aws&#45;crt&#45;cpp -->
<g id="edge6" class="edge">
<title>aws&#45;c&#45;io&#45;&gt;aws&#45;crt&#45;cpp</title>
<path fill="none" stroke="black" d="M361.75,-365.34C369.25,-363.31 377.11,-361.4 384.55,-360 466.61,-344.56 702.41,-385.8 758.55,-324 837.71,-236.86 646.16,-146.95 551.14,-109.31"/>
<polygon fill="black" stroke="black" points="552.61,-106.12 542.02,-105.74 550.06,-112.64 552.61,-106.12"/>
</g>
<!-- aws&#45;c&#45;io&#45;&gt;awscrt -->
<g id="edge7" class="edge">
<title>aws&#45;c&#45;io&#45;&gt;awscrt</title>
<path fill="none" stroke="black" d="M298.63,-362.19C266.29,-342.04 212.56,-302.62 190.55,-252 184.18,-237.33 184.43,-230.78 190.55,-216 199.21,-195.09 211.53,-196.92 226.55,-180 244.89,-159.34 264.19,-134.55 277.86,-116.39"/>
<polygon fill="black" stroke="black" points="280.38,-118.86 283.56,-108.76 274.77,-114.67 280.38,-118.86"/>
</g>
<!-- aws&#45;c&#45;http -->
<g id="node6" class="node">
<title>aws&#45;c&#45;http</title>
<g id="a_node6"><a xlink:href="https://github.com/conda-forge/aws-c-http-feedstock" xlink:title="aws c http">
<ellipse fill="#fde725" stroke="black" cx="436.55" cy="-306" rx="63.31" ry="18"/>
<text text-anchor="middle" x="436.55" y="-301.32" font-family="Times,serif" font-size="14.00">aws c http</text>
</a>
</g>
</g>
<!-- aws&#45;c&#45;io&#45;&gt;aws&#45;c&#45;http -->
<g id="edge8" class="edge">
<title>aws&#45;c&#45;io&#45;&gt;aws&#45;c&#45;http</title>
<path fill="none" stroke="black" d="M348.86,-361.81C364.24,-352.2 384.38,-339.61 401.48,-328.92"/>
<polygon fill="black" stroke="black" points="403.22,-331.96 409.85,-323.69 399.51,-326.02 403.22,-331.96"/>
</g>
<!-- aws&#45;c&#45;mqtt -->
<g id="node7" class="node">
<title>aws&#45;c&#45;mqtt</title>
<g id="a_node7"><a xlink:href="https://github.com/conda-forge/aws-c-mqtt-feedstock" xlink:title="aws c mqtt">
<ellipse fill="#fde725" stroke="black" cx="265.55" cy="-234" rx="66.47" ry="18"/>
<text text-anchor="middle" x="265.55" y="-229.32" font-family="Times,serif" font-size="14.00">aws c mqtt</text>
</a>
</g>
</g>
<!-- aws&#45;c&#45;io&#45;&gt;aws&#45;c&#45;mqtt -->
<g id="edge9" class="edge">
<title>aws&#45;c&#45;io&#45;&gt;aws&#45;c&#45;mqtt</title>
<path fill="none" stroke="black" d="M317.44,-359.87C307.43,-335.78 289.07,-291.6 277.09,-262.77"/>
<polygon fill="black" stroke="black" points="280.35,-261.48 273.28,-253.59 273.88,-264.16 280.35,-261.48"/>
</g>
<!-- aws&#45;c&#45;auth -->
<g id="node8" class="node">
<title>aws&#45;c&#45;auth</title>
<g id="a_node8"><a xlink:href="https://github.com/conda-forge/aws-c-auth-feedstock" xlink:title="aws c auth">
<ellipse fill="#fde725" stroke="black" cx="528.55" cy="-234" rx="64.89" ry="18"/>
<text text-anchor="middle" x="528.55" y="-229.32" font-family="Times,serif" font-size="14.00">aws c auth</text>
</a>
</g>
</g>
<!-- aws&#45;c&#45;io&#45;&gt;aws&#45;c&#45;auth -->
<g id="edge10" class="edge">
<title>aws&#45;c&#45;io&#45;&gt;aws&#45;c&#45;auth</title>
<path fill="none" stroke="black" d="M363.41,-365.94C417.21,-350.61 507.91,-324.68 508.55,-324 523.59,-308.04 528.21,-283.31 529.29,-263.96"/>
<polygon fill="black" stroke="black" points="532.79,-264.05 529.52,-253.97 525.79,-263.88 532.79,-264.05"/>
</g>
<!-- aws&#45;c&#45;s3 -->
<g id="node9" class="node">
<title>aws&#45;c&#45;s3</title>
<g id="a_node9"><a xlink:href="https://github.com/conda-forge/aws-c-s3-feedstock" xlink:title="aws c s3">
<ellipse fill="#fde725" stroke="black" cx="441.55" cy="-162" rx="53.84" ry="18"/>
<text text-anchor="middle" x="441.55" y="-157.32" font-family="Times,serif" font-size="14.00">aws c s3</text>
</a>
</g>
</g>
<!-- aws&#45;c&#45;io&#45;&gt;aws&#45;c&#45;s3 -->
<g id="edge11" class="edge">
<title>aws&#45;c&#45;io&#45;&gt;aws&#45;c&#45;s3</title>
<path fill="none" stroke="black" d="M331.44,-359.96C338.94,-341.81 351.63,-312.4 364.55,-288 383.12,-252.96 407.56,-214.35 423.87,-189.44"/>
<polygon fill="black" stroke="black" points="426.7,-191.51 429.28,-181.24 420.86,-187.66 426.7,-191.51"/>
</g>
<!-- aws&#45;c&#45;http&#45;&gt;aws&#45;crt&#45;cpp -->
<g id="edge12" class="edge">
<title>aws&#45;c&#45;http&#45;&gt;aws&#45;crt&#45;cpp</title>
<path fill="none" stroke="black" d="M488.49,-295.33C531.9,-286.07 588.86,-270.75 602.55,-252 637.02,-204.81 575.46,-145.86 534.24,-114"/>
<polygon fill="black" stroke="black" points="536.59,-111.39 526.5,-108.17 532.38,-116.98 536.59,-111.39"/>
</g>
<!-- aws&#45;c&#45;http&#45;&gt;awscrt -->
<g id="edge13" class="edge">
<title>aws&#45;c&#45;http&#45;&gt;awscrt</title>
<path fill="none" stroke="black" d="M425.33,-287.85C400.95,-250.58 343,-162 313.88,-117.49"/>
<polygon fill="black" stroke="black" points="316.87,-115.65 308.46,-109.2 311.01,-119.49 316.87,-115.65"/>
</g>
<!-- aws&#45;c&#45;http&#45;&gt;aws&#45;c&#45;mqtt -->
<g id="edge14" class="edge">
<title>aws&#45;c&#45;http&#45;&gt;aws&#45;c&#45;mqtt</title>
<path fill="none" stroke="black" d="M401.54,-290.67C375.54,-280.03 339.85,-265.41 311.56,-253.83"/>
<polygon fill="black" stroke="black" points="313.09,-250.68 302.51,-250.13 310.44,-257.16 313.09,-250.68"/>
</g>
<!-- aws&#45;c&#45;http&#45;&gt;aws&#45;c&#45;auth -->
<g id="edge15" class="edge">
<title>aws&#45;c&#45;http&#45;&gt;aws&#45;c&#45;auth</title>
<path fill="none" stroke="black" d="M457.89,-288.76C469.77,-279.73 484.75,-268.33 497.87,-258.35"/>
<polygon fill="black" stroke="black" points="499.97,-261.15 505.81,-252.31 495.73,-255.58 499.97,-261.15"/>
</g>
<!-- aws&#45;c&#45;http&#45;&gt;aws&#45;c&#45;s3 -->
<g id="edge16" class="edge">
<title>aws&#45;c&#45;http&#45;&gt;aws&#45;c&#45;s3</title>
<path fill="none" stroke="black" d="M437.17,-287.59C438.01,-263.61 439.54,-220.14 440.55,-191.42"/>
<polygon fill="black" stroke="black" points="444.04,-191.74 440.9,-181.62 437.05,-191.49 444.04,-191.74"/>
</g>
<!-- aws&#45;c&#45;mqtt&#45;&gt;aws&#45;crt&#45;cpp -->
<g id="edge17" class="edge">
<title>aws&#45;c&#45;mqtt&#45;&gt;aws&#45;crt&#45;cpp</title>
<path fill="none" stroke="black" d="M283.65,-216.29C305.11,-197.08 342.51,-165.46 378.55,-144 401.41,-130.39 428.39,-118.37 451.26,-109.22"/>
<polygon fill="black" stroke="black" points="452.34,-112.56 460.37,-105.65 449.78,-106.04 452.34,-112.56"/>
</g>
<!-- aws&#45;c&#45;mqtt&#45;&gt;awscrt -->
<g id="edge18" class="edge">
<title>aws&#45;c&#45;mqtt&#45;&gt;awscrt</title>
<path fill="none" stroke="black" d="M269.36,-215.59C274.61,-191.5 284.16,-147.75 290.43,-119.03"/>
<polygon fill="black" stroke="black" points="293.78,-120.11 292.5,-109.59 286.94,-118.61 293.78,-120.11"/>
</g>
<!-- aws&#45;c&#45;auth&#45;&gt;aws&#45;crt&#45;cpp -->
<g id="edge19" class="edge">
<title>aws&#45;c&#45;auth&#45;&gt;aws&#45;crt&#45;cpp</title>
<path fill="none" stroke="black" d="M534.2,-215.88C539.31,-197.66 544.99,-168.2 537.55,-144 534.59,-134.37 529.22,-124.92 523.52,-116.73"/>
<polygon fill="black" stroke="black" points="526.5,-114.87 517.7,-108.97 520.9,-119.07 526.5,-114.87"/>
</g>
<!-- aws&#45;c&#45;auth&#45;&gt;awscrt -->
<g id="edge20" class="edge">
<title>aws&#45;c&#45;auth&#45;&gt;awscrt</title>
<path fill="none" stroke="black" d="M528.79,-215.73C528.1,-195.69 523.81,-162.99 504.55,-144 482.88,-122.62 404.15,-106.95 350.02,-98.4"/>
<polygon fill="black" stroke="black" points="350.79,-94.98 340.37,-96.91 349.72,-101.89 350.79,-94.98"/>
</g>
<!-- aws&#45;c&#45;auth&#45;&gt;aws&#45;c&#45;s3 -->
<g id="edge21" class="edge">
<title>aws&#45;c&#45;auth&#45;&gt;aws&#45;c&#45;s3</title>
<path fill="none" stroke="black" d="M508.38,-216.76C497.07,-207.66 482.77,-196.16 470.31,-186.13"/>
<polygon fill="black" stroke="black" points="472.79,-183.64 462.8,-180.1 468.4,-189.09 472.79,-183.64"/>
</g>
<!-- aws&#45;c&#45;s3&#45;&gt;aws&#45;crt&#45;cpp -->
<g id="edge22" class="edge">
<title>aws&#45;c&#45;s3&#45;&gt;aws&#45;crt&#45;cpp</title>
<path fill="none" stroke="black" d="M455.77,-144.41C462.92,-136.08 471.73,-125.8 479.71,-116.49"/>
<polygon fill="black" stroke="black" points="482.18,-118.98 486.04,-109.11 476.87,-114.42 482.18,-118.98"/>
</g>
<!-- aws&#45;c&#45;s3&#45;&gt;awscrt -->
<g id="edge23" class="edge">
<title>aws&#45;c&#45;s3&#45;&gt;awscrt</title>
<path fill="none" stroke="black" d="M411.86,-146.67C389.49,-135.86 358.64,-120.97 334.48,-109.31"/>
<polygon fill="black" stroke="black" points="336.13,-106.22 325.61,-105.02 333.09,-112.52 336.13,-106.22"/>
</g>
<!-- aws&#45;c&#45;compression -->
<g id="node10" class="node">
<title>aws&#45;c&#45;compression</title>
<g id="a_node10"><a xlink:href="https://github.com/conda-forge/aws-c-compression-feedstock/pull/71" xlink:title="aws c compression ❎">
<ellipse fill="#31688e" stroke="black" cx="514.55" cy="-378" rx="120.65" ry="18"/>
<text text-anchor="middle" x="514.55" y="-373.32" font-family="Times,serif" font-size="14.00" fill="white">aws c compression ❎</text>
</a>
</g>
</g>
<!-- aws&#45;c&#45;compression&#45;&gt;aws&#45;c&#45;http -->
<g id="edge24" class="edge">
<title>aws&#45;c&#45;compression&#45;&gt;aws&#45;c&#45;http</title>
<path fill="none" stroke="black" d="M495.67,-360.05C486.02,-351.39 474.11,-340.7 463.51,-331.19"/>
<polygon fill="black" stroke="black" points="465.9,-328.63 456.12,-324.56 461.22,-333.84 465.9,-328.63"/>
</g>
<!-- aws&#45;c&#45;sdkutils -->
<g id="node11" class="node">
<title>aws&#45;c&#45;sdkutils</title>
<g id="a_node11"><a xlink:href="https://github.com/conda-forge/aws-c-sdkutils-feedstock/pull/73" xlink:title="aws c sdkutils ❎">
<ellipse fill="#31688e" stroke="black" cx="652.55" cy="-306" rx="96.98" ry="18"/>
<text text-anchor="middle" x="652.55" y="-301.32" font-family="Times,serif" font-size="14.00" fill="white">aws c sdkutils ❎</text>
</a>
</g>
</g>
<!-- aws&#45;c&#45;sdkutils&#45;&gt;aws&#45;crt&#45;cpp -->
<g id="edge25" class="edge">
<title>aws&#45;c&#45;sdkutils&#45;&gt;aws&#45;crt&#45;cpp</title>
<path fill="none" stroke="black" d="M650.76,-287.74C646.64,-255.93 633.9,-187.34 597.55,-144 585.3,-129.38 567.93,-118.09 551.33,-109.75"/>
<polygon fill="black" stroke="black" points="553.05,-106.7 542.51,-105.59 550.06,-113.03 553.05,-106.7"/>
</g>
<!-- aws&#45;c&#45;sdkutils&#45;&gt;aws&#45;c&#45;auth -->
<g id="edge26" class="edge">
<title>aws&#45;c&#45;sdkutils&#45;&gt;aws&#45;c&#45;auth</title>
<path fill="none" stroke="black" d="M623.17,-288.41C606.01,-278.72 584.18,-266.4 565.82,-256.04"/>
<polygon fill="black" stroke="black" points="567.78,-253.12 557.35,-251.25 564.34,-259.22 567.78,-253.12"/>
</g>
</g>
</svg>
