<?xml version="1.0" encoding="UTF-8" standalone="no"?>
<!DOCTYPE svg PUBLIC "-//W3C//DTD SVG 1.1//EN"
 "http://www.w3.org/Graphics/SVG/1.1/DTD/svg11.dtd">
<!-- Generated by graphviz version 12.0.0 (20240803.0821)
 -->
<!-- Pages: 1 -->
<svg width="690pt" height="404pt"
 viewBox="0.00 0.00 690.14 404.00" xmlns="http://www.w3.org/2000/svg" xmlns:xlink="http://www.w3.org/1999/xlink">
<g id="graph0" class="graph" transform="scale(1 1) rotate(0) translate(4 400)">
<polygon fill="white" stroke="none" points="-4,4 -4,-400 686.14,-400 686.14,4 -4,4"/>
<!-- aws&#45;sdk&#45;cpp -->
<g id="node1" class="node">
<title>aws&#45;sdk&#45;cpp</title>
<g id="a_node1"><a xlink:href="https://github.com/conda-forge/aws-sdk-cpp-feedstock" xlink:title="aws sdk cpp">
<ellipse fill="#fde725" stroke="black" cx="522.36" cy="-18" rx="72.25" ry="18"/>
<text text-anchor="middle" x="522.36" y="-13.32" font-family="Times,serif" font-size="14.00">aws sdk cpp</text>
</a>
</g>
</g>
<!-- aws&#45;checksums -->
<g id="node2" class="node">
<title>aws&#45;checksums</title>
<g id="a_node2"><a xlink:href="https://github.com/conda-forge/aws-checksums-feedstock/pull/86" xlink:title="aws checksums ❎">
<ellipse fill="#31688e" stroke="black" cx="563.36" cy="-234" rx="103.82" ry="18"/>
<text text-anchor="middle" x="563.36" y="-229.32" font-family="Times,serif" font-size="14.00" fill="white">aws checksums ❎</text>
</a>
</g>
</g>
<!-- aws&#45;checksums&#45;&gt;aws&#45;sdk&#45;cpp -->
<g id="edge1" class="edge">
<title>aws&#45;checksums&#45;&gt;aws&#45;sdk&#45;cpp</title>
<path fill="none" stroke="black" d="M611.55,-217.63C629.17,-209.41 647.25,-197.31 657.36,-180 665.43,-166.18 663.77,-158.66 657.36,-144 637.57,-98.71 592.39,-62.51 559.74,-40.95"/>
<polygon fill="black" stroke="black" points="562.05,-38.27 551.74,-35.81 558.27,-44.16 562.05,-38.27"/>
</g>
<!-- aws&#45;c&#45;event&#45;stream -->
<g id="node3" class="node">
<title>aws&#45;c&#45;event&#45;stream</title>
<g id="a_node3"><a xlink:href="https://github.com/conda-forge/aws-c-event-stream-feedstock" xlink:title="aws c event stream">
<ellipse fill="#fde725" stroke="black" cx="522.36" cy="-162" rx="108.55" ry="18"/>
<text text-anchor="middle" x="522.36" y="-157.32" font-family="Times,serif" font-size="14.00">aws c event stream</text>
</a>
</g>
</g>
<!-- aws&#45;checksums&#45;&gt;aws&#45;c&#45;event&#45;stream -->
<g id="edge2" class="edge">
<title>aws&#45;checksums&#45;&gt;aws&#45;c&#45;event&#45;stream</title>
<path fill="none" stroke="black" d="M553.23,-215.7C548.66,-207.9 543.16,-198.51 538.07,-189.83"/>
<polygon fill="black" stroke="black" points="541.22,-188.27 533.14,-181.41 535.18,-191.81 541.22,-188.27"/>
</g>
<!-- aws&#45;c&#45;s3 -->
<g id="node4" class="node">
<title>aws&#45;c&#45;s3</title>
<g id="a_node4"><a xlink:href="https://github.com/conda-forge/aws-c-s3-feedstock" xlink:title="aws c s3">
<ellipse fill="#fde725" stroke="black" cx="265.36" cy="-162" rx="53.84" ry="18"/>
<text text-anchor="middle" x="265.36" y="-157.32" font-family="Times,serif" font-size="14.00">aws c s3</text>
</a>
</g>
</g>
<!-- aws&#45;checksums&#45;&gt;aws&#45;c&#45;s3 -->
<g id="edge3" class="edge">
<title>aws&#45;checksums&#45;&gt;aws&#45;c&#45;s3</title>
<path fill="none" stroke="black" d="M503.41,-218.92C449.58,-206.27 371.24,-187.87 319.32,-175.68"/>
<polygon fill="black" stroke="black" points="320.35,-172.32 309.81,-173.44 318.75,-179.14 320.35,-172.32"/>
</g>
<!-- awscrt -->
<g id="node5" class="node">
<title>awscrt</title>
<g id="a_node5"><a xlink:href="https://github.com/conda-forge/awscrt-feedstock" xlink:title="awscrt">
<ellipse fill="#fde725" stroke="black" cx="385.36" cy="-90" rx="44.9" ry="18"/>
<text text-anchor="middle" x="385.36" y="-85.33" font-family="Times,serif" font-size="14.00">awscrt</text>
</a>
</g>
</g>
<!-- aws&#45;checksums&#45;&gt;awscrt -->
<g id="edge4" class="edge">
<title>aws&#45;checksums&#45;&gt;awscrt</title>
<path fill="none" stroke="black" d="M601.01,-216.83C616.11,-208.24 631.9,-196.09 640.36,-180 647.8,-165.84 650.46,-156.41 640.36,-144 615.71,-113.7 508.21,-100.16 440.89,-94.56"/>
<polygon fill="black" stroke="black" points="441.4,-91.09 431.15,-93.78 440.84,-98.06 441.4,-91.09"/>
</g>
<!-- aws&#45;c&#45;event&#45;stream&#45;&gt;aws&#45;sdk&#45;cpp -->
<g id="edge5" class="edge">
<title>aws&#45;c&#45;event&#45;stream&#45;&gt;aws&#45;sdk&#45;cpp</title>
<path fill="none" stroke="black" d="M522.36,-143.59C522.36,-119.61 522.36,-76.14 522.36,-47.42"/>
<polygon fill="black" stroke="black" points="525.86,-47.62 522.36,-37.62 518.86,-47.62 525.86,-47.62"/>
</g>
<!-- aws&#45;c&#45;event&#45;stream&#45;&gt;awscrt -->
<g id="edge6" class="edge">
<title>aws&#45;c&#45;event&#45;stream&#45;&gt;awscrt</title>
<path fill="none" stroke="black" d="M489.89,-144.41C469.59,-134.04 443.37,-120.64 422.28,-109.86"/>
<polygon fill="black" stroke="black" points="423.92,-106.77 413.42,-105.34 420.73,-113.01 423.92,-106.77"/>
</g>
<!-- aws&#45;crt&#45;cpp -->
<g id="node6" class="node">
<title>aws&#45;crt&#45;cpp</title>
<g id="a_node6"><a xlink:href="https://github.com/conda-forge/aws-crt-cpp-feedstock" xlink:title="aws crt cpp">
<ellipse fill="#fde725" stroke="black" cx="183.36" cy="-90" rx="69.1" ry="18"/>
<text text-anchor="middle" x="183.36" y="-85.33" font-family="Times,serif" font-size="14.00">aws crt cpp</text>
</a>
</g>
</g>
<!-- aws&#45;c&#45;event&#45;stream&#45;&gt;aws&#45;crt&#45;cpp -->
<g id="edge7" class="edge">
<title>aws&#45;c&#45;event&#45;stream&#45;&gt;aws&#45;crt&#45;cpp</title>
<path fill="none" stroke="black" d="M456.19,-147.34C395.82,-134.87 307.17,-116.57 247.46,-104.24"/>
<polygon fill="black" stroke="black" points="248.27,-100.83 237.77,-102.24 246.86,-107.69 248.27,-100.83"/>
</g>
<!-- aws&#45;c&#45;s3&#45;&gt;awscrt -->
<g id="edge8" class="edge">
<title>aws&#45;c&#45;s3&#45;&gt;awscrt</title>
<path fill="none" stroke="black" d="M291.4,-145.81C308.81,-135.65 331.91,-122.18 350.85,-111.13"/>
<polygon fill="black" stroke="black" points="352.42,-114.27 359.3,-106.2 348.89,-108.22 352.42,-114.27"/>
</g>
<!-- aws&#45;c&#45;s3&#45;&gt;aws&#45;crt&#45;cpp -->
<g id="edge9" class="edge">
<title>aws&#45;c&#45;s3&#45;&gt;aws&#45;crt&#45;cpp</title>
<path fill="none" stroke="black" d="M246.34,-144.76C235.94,-135.88 222.85,-124.71 211.3,-114.85"/>
<polygon fill="black" stroke="black" points="213.87,-112.45 204,-108.62 209.33,-117.77 213.87,-112.45"/>
</g>
<!-- aws&#45;crt&#45;cpp&#45;&gt;aws&#45;sdk&#45;cpp -->
<g id="edge10" class="edge">
<title>aws&#45;crt&#45;cpp&#45;&gt;aws&#45;sdk&#45;cpp</title>
<path fill="none" stroke="black" d="M236.33,-78.06C295.88,-65.77 392.63,-45.79 456.88,-32.52"/>
<polygon fill="black" stroke="black" points="457.51,-35.96 466.6,-30.51 456.1,-29.11 457.51,-35.96"/>
</g>
<!-- aws&#45;c&#45;io -->
<g id="node7" class="node">
<title>aws&#45;c&#45;io</title>
<g id="a_node7"><a xlink:href="https://github.com/conda-forge/aws-c-io-feedstock" xlink:title="aws c io">
<ellipse fill="#35b779" stroke="black" cx="252.36" cy="-378" rx="51.21" ry="18"/>
<text text-anchor="middle" x="252.36" y="-373.32" font-family="Times,serif" font-size="14.00">aws c io</text>
</a>
</g>
</g>
<!-- aws&#45;c&#45;io&#45;&gt;aws&#45;c&#45;event&#45;stream -->
<g id="edge11" class="edge">
<title>aws&#45;c&#45;io&#45;&gt;aws&#45;c&#45;event&#45;stream</title>
<path fill="none" stroke="black" d="M280,-362.55C297.9,-352.68 321.33,-338.75 340.36,-324 394.52,-282.04 398.2,-260.42 450.36,-216 462.41,-205.74 476.29,-195.24 488.63,-186.32"/>
<polygon fill="black" stroke="black" points="490.37,-189.38 496.47,-180.72 486.3,-183.68 490.37,-189.38"/>
</g>
<!-- aws&#45;c&#45;io&#45;&gt;aws&#45;c&#45;s3 -->
<g id="edge12" class="edge">
<title>aws&#45;c&#45;io&#45;&gt;aws&#45;c&#45;s3</title>
<path fill="none" stroke="black" d="M221.97,-363.17C206.49,-354.36 189.11,-341.31 180.36,-324 173.14,-309.72 177.22,-303.69 180.36,-288 187.16,-254.01 190.8,-244.62 210.36,-216 217.62,-205.38 227.27,-195.2 236.46,-186.65"/>
<polygon fill="black" stroke="black" points="238.78,-189.27 243.91,-180 234.12,-184.05 238.78,-189.27"/>
</g>
<!-- aws&#45;c&#45;io&#45;&gt;awscrt -->
<g id="edge13" class="edge">
<title>aws&#45;c&#45;io&#45;&gt;awscrt</title>
<path fill="none" stroke="black" d="M299.26,-370.26C399.79,-354.77 630.63,-313.15 676.36,-252 694.18,-228.17 664.81,-150.97 657.36,-144 626.67,-115.26 511.11,-101.06 440.87,-94.94"/>
<polygon fill="black" stroke="black" points="441.35,-91.47 431.09,-94.12 440.76,-98.45 441.35,-91.47"/>
</g>
<!-- aws&#45;c&#45;io&#45;&gt;aws&#45;crt&#45;cpp -->
<g id="edge14" class="edge">
<title>aws&#45;c&#45;io&#45;&gt;aws&#45;crt&#45;cpp</title>
<path fill="none" stroke="black" d="M220.46,-363.64C197.84,-353.71 167.05,-339.3 141.36,-324 65.73,-278.96 26.06,-265.56 5.36,-180 1.6,-164.45 -4.2,-156.83 5.36,-144 18.86,-125.89 70.91,-111.73 115.27,-102.61"/>
<polygon fill="black" stroke="black" points="115.74,-106.09 124.87,-100.7 114.37,-99.22 115.74,-106.09"/>
</g>
<!-- aws&#45;c&#45;http -->
<g id="node8" class="node">
<title>aws&#45;c&#45;http</title>
<g id="a_node8"><a xlink:href="https://github.com/conda-forge/aws-c-http-feedstock" xlink:title="aws c http">
<ellipse fill="#fde725" stroke="black" cx="252.36" cy="-306" rx="63.31" ry="18"/>
<text text-anchor="middle" x="252.36" y="-301.32" font-family="Times,serif" font-size="14.00">aws c http</text>
</a>
</g>
</g>
<!-- aws&#45;c&#45;io&#45;&gt;aws&#45;c&#45;http -->
<g id="edge15" class="edge">
<title>aws&#45;c&#45;io&#45;&gt;aws&#45;c&#45;http</title>
<path fill="none" stroke="black" d="M252.36,-359.7C252.36,-352.41 252.36,-343.73 252.36,-335.54"/>
<polygon fill="black" stroke="black" points="255.86,-335.62 252.36,-325.62 248.86,-335.62 255.86,-335.62"/>
</g>
<!-- aws&#45;c&#45;mqtt -->
<g id="node9" class="node">
<title>aws&#45;c&#45;mqtt</title>
<g id="a_node9"><a xlink:href="https://github.com/conda-forge/aws-c-mqtt-feedstock" xlink:title="aws c mqtt">
<ellipse fill="#fde725" stroke="black" cx="89.36" cy="-162" rx="66.47" ry="18"/>
<text text-anchor="middle" x="89.36" y="-157.32" font-family="Times,serif" font-size="14.00">aws c mqtt</text>
</a>
</g>
</g>
<!-- aws&#45;c&#45;io&#45;&gt;aws&#45;c&#45;mqtt -->
<g id="edge16" class="edge">
<title>aws&#45;c&#45;io&#45;&gt;aws&#45;c&#45;mqtt</title>
<path fill="none" stroke="black" d="M223.41,-362.94C206.61,-353.68 185.95,-340.26 171.36,-324 135.41,-283.93 110.81,-225.24 98.5,-190.89"/>
<polygon fill="black" stroke="black" points="101.88,-189.97 95.29,-181.67 95.27,-192.27 101.88,-189.97"/>
</g>
<!-- aws&#45;c&#45;auth -->
<g id="node10" class="node">
<title>aws&#45;c&#45;auth</title>
<g id="a_node10"><a xlink:href="https://github.com/conda-forge/aws-c-auth-feedstock" xlink:title="aws c auth">
<ellipse fill="#fde725" stroke="black" cx="292.36" cy="-234" rx="64.89" ry="18"/>
<text text-anchor="middle" x="292.36" y="-229.32" font-family="Times,serif" font-size="14.00">aws c auth</text>
</a>
</g>
</g>
<!-- aws&#45;c&#45;io&#45;&gt;aws&#45;c&#45;auth -->
<g id="edge17" class="edge">
<title>aws&#45;c&#45;io&#45;&gt;aws&#45;c&#45;auth</title>
<path fill="none" stroke="black" d="M282.75,-363.17C298.23,-354.36 315.61,-341.31 324.36,-324 334.61,-303.72 324.43,-279.36 312.91,-261.26"/>
<polygon fill="black" stroke="black" points="315.9,-259.42 307.35,-253.16 310.13,-263.38 315.9,-259.42"/>
</g>
<!-- aws&#45;c&#45;http&#45;&gt;aws&#45;c&#45;s3 -->
<g id="edge18" class="edge">
<title>aws&#45;c&#45;http&#45;&gt;aws&#45;c&#45;s3</title>
<path fill="none" stroke="black" d="M237.96,-288.1C230.53,-278.26 222.24,-265.22 218.36,-252 213.86,-236.65 212.68,-230.96 218.36,-216 222.44,-205.25 229.81,-195.28 237.52,-186.96"/>
<polygon fill="black" stroke="black" points="239.9,-189.53 244.49,-179.98 234.95,-184.58 239.9,-189.53"/>
</g>
<!-- aws&#45;c&#45;http&#45;&gt;awscrt -->
<g id="edge19" class="edge">
<title>aws&#45;c&#45;http&#45;&gt;awscrt</title>
<path fill="none" stroke="black" d="M301.11,-294.18C324.56,-286.4 350.87,-273.39 366.36,-252 394.56,-213.05 393.58,-154.37 389.81,-119.66"/>
<polygon fill="black" stroke="black" points="393.31,-119.43 388.59,-109.95 386.36,-120.3 393.31,-119.43"/>
</g>
<!-- aws&#45;c&#45;http&#45;&gt;aws&#45;crt&#45;cpp -->
<g id="edge20" class="edge">
<title>aws&#45;c&#45;http&#45;&gt;aws&#45;crt&#45;cpp</title>
<path fill="none" stroke="black" d="M201.81,-294.79C144.72,-280.24 54.55,-247.46 14.36,-180 -11.77,-136.13 54.68,-112.84 111.79,-101.24"/>
<polygon fill="black" stroke="black" points="112.41,-104.68 121.57,-99.36 111.09,-97.81 112.41,-104.68"/>
</g>
<!-- aws&#45;c&#45;http&#45;&gt;aws&#45;c&#45;mqtt -->
<g id="edge21" class="edge">
<title>aws&#45;c&#45;http&#45;&gt;aws&#45;c&#45;mqtt</title>
<path fill="none" stroke="black" d="M233.34,-288.43C204.59,-263.38 149.9,-215.74 116.82,-186.93"/>
<polygon fill="black" stroke="black" points="119.49,-184.6 109.65,-180.68 114.89,-189.88 119.49,-184.6"/>
</g>
<!-- aws&#45;c&#45;http&#45;&gt;aws&#45;c&#45;auth -->
<g id="edge22" class="edge">
<title>aws&#45;c&#45;http&#45;&gt;aws&#45;c&#45;auth</title>
<path fill="none" stroke="black" d="M262.04,-288.05C266.5,-280.26 271.89,-270.82 276.89,-262.08"/>
<polygon fill="black" stroke="black" points="279.81,-264.01 281.74,-253.59 273.74,-260.54 279.81,-264.01"/>
</g>
<!-- aws&#45;c&#45;mqtt&#45;&gt;awscrt -->
<g id="edge23" class="edge">
<title>aws&#45;c&#45;mqtt&#45;&gt;awscrt</title>
<path fill="none" stroke="black" d="M138.24,-149.44C192.97,-136.5 281.16,-115.64 336.06,-102.66"/>
<polygon fill="black" stroke="black" points="336.85,-106.07 345.77,-100.36 335.24,-99.26 336.85,-106.07"/>
</g>
<!-- aws&#45;c&#45;mqtt&#45;&gt;aws&#45;crt&#45;cpp -->
<g id="edge24" class="edge">
<title>aws&#45;c&#45;mqtt&#45;&gt;aws&#45;crt&#45;cpp</title>
<path fill="none" stroke="black" d="M111.16,-144.76C123.41,-135.64 138.91,-124.1 152.4,-114.06"/>
<polygon fill="black" stroke="black" points="154.21,-117.07 160.14,-108.29 150.03,-111.46 154.21,-117.07"/>
</g>
<!-- aws&#45;c&#45;auth&#45;&gt;aws&#45;c&#45;s3 -->
<g id="edge25" class="edge">
<title>aws&#45;c&#45;auth&#45;&gt;aws&#45;c&#45;s3</title>
<path fill="none" stroke="black" d="M285.69,-215.7C282.78,-208.15 279.29,-199.12 276.04,-190.68"/>
<polygon fill="black" stroke="black" points="279.37,-189.59 272.5,-181.52 272.84,-192.11 279.37,-189.59"/>
</g>
<!-- aws&#45;c&#45;auth&#45;&gt;awscrt -->
<g id="edge26" class="edge">
<title>aws&#45;c&#45;auth&#45;&gt;awscrt</title>
<path fill="none" stroke="black" d="M304.15,-215.89C311.24,-205.55 320.4,-192.07 328.36,-180 342.13,-159.13 357.39,-135.26 368.65,-117.5"/>
<polygon fill="black" stroke="black" points="371.58,-119.42 373.97,-109.1 365.66,-115.68 371.58,-119.42"/>
</g>
<!-- aws&#45;c&#45;auth&#45;&gt;aws&#45;crt&#45;cpp -->
<g id="edge27" class="edge">
<title>aws&#45;c&#45;auth&#45;&gt;aws&#45;crt&#45;cpp</title>
<path fill="none" stroke="black" d="M254.37,-219.18C236,-210.61 215.19,-197.8 202.36,-180 189.78,-162.55 185.21,-138.48 183.68,-119.77"/>
<polygon fill="black" stroke="black" points="187.18,-119.68 183.15,-109.89 180.19,-120.06 187.18,-119.68"/>
</g>
</g>
</svg>
