<?xml version="1.0" encoding="UTF-8" standalone="no"?>
<!DOCTYPE svg PUBLIC "-//W3C//DTD SVG 1.1//EN"
 "http://www.w3.org/Graphics/SVG/1.1/DTD/svg11.dtd">
<!-- Generated by graphviz version 13.1.2 (20250809.0930)
 -->
<!-- Pages: 1 -->
<svg width="377pt" height="404pt"
 viewBox="0.00 0.00 377.00 404.00" xmlns="http://www.w3.org/2000/svg" xmlns:xlink="http://www.w3.org/1999/xlink">
<g id="graph0" class="graph" transform="scale(1 1) rotate(0) translate(4 400)">
<polygon fill="white" stroke="none" points="-4,4 -4,-400 373.09,-400 373.09,4 -4,4"/>
<!-- arrow&#45;cpp -->
<g id="node1" class="node">
<title>arrow&#45;cpp</title>
<g id="a_node1"><a xlink:href="https://github.com/conda-forge/arrow-cpp-feedstock" xlink:title="arrow cpp">
<ellipse fill="#fde725" stroke="black" cx="84.31" cy="-18" rx="61.73" ry="18"/>
<text xml:space="preserve" text-anchor="middle" x="84.31" y="-13.32" font-family="Times,serif" font-size="14.00">arrow cpp</text>
</a>
</g>
</g>
<!-- tiledb -->
<g id="node2" class="node">
<title>tiledb</title>
<g id="a_node2"><a xlink:href="https://github.com/conda-forge/tiledb-feedstock" xlink:title="tiledb">
<ellipse fill="#fde725" stroke="black" cx="224.31" cy="-18" rx="40.16" ry="18"/>
<text xml:space="preserve" text-anchor="middle" x="224.31" y="-13.32" font-family="Times,serif" font-size="14.00">tiledb</text>
</a>
</g>
</g>
<!-- aws&#45;sdk&#45;cpp -->
<g id="node3" class="node">
<title>aws&#45;sdk&#45;cpp</title>
<g id="a_node3"><a xlink:href="https://github.com/conda-forge/aws-sdk-cpp-feedstock" xlink:title="aws sdk cpp">
<ellipse fill="#fde725" stroke="black" cx="144.31" cy="-90" rx="72.25" ry="18"/>
<text xml:space="preserve" text-anchor="middle" x="144.31" y="-85.33" font-family="Times,serif" font-size="14.00">aws sdk cpp</text>
</a>
</g>
</g>
<!-- aws&#45;sdk&#45;cpp&#45;&gt;arrow&#45;cpp -->
<g id="edge1" class="edge">
<title>aws&#45;sdk&#45;cpp&#45;&gt;arrow&#45;cpp</title>
<path fill="none" stroke="black" d="M129.79,-72.05C122.64,-63.71 113.87,-53.49 105.95,-44.25"/>
<polygon fill="black" stroke="black" points="108.85,-42.25 99.69,-36.94 103.54,-46.81 108.85,-42.25"/>
</g>
<!-- aws&#45;sdk&#45;cpp&#45;&gt;tiledb -->
<g id="edge2" class="edge">
<title>aws&#45;sdk&#45;cpp&#45;&gt;tiledb</title>
<path fill="none" stroke="black" d="M163.27,-72.41C173.62,-63.35 186.61,-51.99 197.94,-42.08"/>
<polygon fill="black" stroke="black" points="200.22,-44.73 205.44,-35.51 195.61,-39.46 200.22,-44.73"/>
</g>
<!-- aws&#45;c&#45;http -->
<g id="node4" class="node">
<title>aws&#45;c&#45;http</title>
<g id="a_node4"><a xlink:href="https://github.com/conda-forge/aws-c-http-feedstock/pull/284" xlink:title="aws c http ❎">
<ellipse fill="#31688e" stroke="black" cx="191.31" cy="-378" rx="78.57" ry="18"/>
<text xml:space="preserve" text-anchor="middle" x="191.31" y="-373.32" font-family="Times,serif" font-size="14.00" fill="white">aws c http ❎</text>
</a>
</g>
</g>
<!-- aws&#45;c&#45;mqtt -->
<g id="node5" class="node">
<title>aws&#45;c&#45;mqtt</title>
<g id="a_node5"><a xlink:href="https://github.com/conda-forge/aws-c-mqtt-feedstock" xlink:title="aws c mqtt">
<ellipse fill="#35b779" stroke="black" cx="81.31" cy="-234" rx="66.47" ry="18"/>
<text xml:space="preserve" text-anchor="middle" x="81.31" y="-229.32" font-family="Times,serif" font-size="14.00">aws c mqtt</text>
</a>
</g>
</g>
<!-- aws&#45;c&#45;http&#45;&gt;aws&#45;c&#45;mqtt -->
<g id="edge4" class="edge">
<title>aws&#45;c&#45;http&#45;&gt;aws&#45;c&#45;mqtt</title>
<path fill="none" stroke="black" d="M178.04,-359.87C158.94,-335.22 123.56,-289.54 101.29,-260.79"/>
<polygon fill="black" stroke="black" points="104.1,-258.71 95.21,-252.94 98.57,-262.99 104.1,-258.71"/>
</g>
<!-- aws&#45;c&#45;auth -->
<g id="node6" class="node">
<title>aws&#45;c&#45;auth</title>
<g id="a_node6"><a xlink:href="https://github.com/conda-forge/aws-c-auth-feedstock" xlink:title="aws c auth">
<ellipse fill="#35b779" stroke="black" cx="284.31" cy="-306" rx="64.89" ry="18"/>
<text xml:space="preserve" text-anchor="middle" x="284.31" y="-301.32" font-family="Times,serif" font-size="14.00">aws c auth</text>
</a>
</g>
</g>
<!-- aws&#45;c&#45;http&#45;&gt;aws&#45;c&#45;auth -->
<g id="edge3" class="edge">
<title>aws&#45;c&#45;http&#45;&gt;aws&#45;c&#45;auth</title>
<path fill="none" stroke="black" d="M213.35,-360.41C225.37,-351.37 240.43,-340.03 253.58,-330.13"/>
<polygon fill="black" stroke="black" points="255.66,-332.95 261.54,-324.14 251.45,-327.36 255.66,-332.95"/>
</g>
<!-- aws&#45;crt&#45;cpp -->
<g id="node7" class="node">
<title>aws&#45;crt&#45;cpp</title>
<g id="a_node7"><a xlink:href="https://github.com/conda-forge/aws-crt-cpp-feedstock" xlink:title="aws crt cpp">
<ellipse fill="#fde725" stroke="black" cx="144.31" cy="-162" rx="69.1" ry="18"/>
<text xml:space="preserve" text-anchor="middle" x="144.31" y="-157.32" font-family="Times,serif" font-size="14.00">aws crt cpp</text>
</a>
</g>
</g>
<!-- aws&#45;c&#45;http&#45;&gt;aws&#45;crt&#45;cpp -->
<g id="edge6" class="edge">
<title>aws&#45;c&#45;http&#45;&gt;aws&#45;crt&#45;cpp</title>
<path fill="none" stroke="black" d="M149.58,-362.42C104.91,-344.3 36.4,-308.65 6.31,-252 -1.2,-237.87 -2.75,-229.19 6.31,-216 21.38,-194.07 46.87,-181.21 71.87,-173.67"/>
<polygon fill="black" stroke="black" points="72.72,-177.07 81.45,-171.06 70.88,-170.32 72.72,-177.07"/>
</g>
<!-- aws&#45;c&#45;s3 -->
<g id="node8" class="node">
<title>aws&#45;c&#45;s3</title>
<g id="a_node8"><a xlink:href="https://github.com/conda-forge/aws-c-s3-feedstock" xlink:title="aws c s3">
<ellipse fill="#fde725" stroke="black" cx="219.31" cy="-234" rx="53.84" ry="18"/>
<text xml:space="preserve" text-anchor="middle" x="219.31" y="-229.32" font-family="Times,serif" font-size="14.00">aws c s3</text>
</a>
</g>
</g>
<!-- aws&#45;c&#45;http&#45;&gt;aws&#45;c&#45;s3 -->
<g id="edge5" class="edge">
<title>aws&#45;c&#45;http&#45;&gt;aws&#45;c&#45;s3</title>
<path fill="none" stroke="black" d="M194.74,-359.59C199.49,-335.5 208.12,-291.75 213.78,-263.03"/>
<polygon fill="black" stroke="black" points="217.14,-264.08 215.64,-253.6 210.27,-262.73 217.14,-264.08"/>
</g>
<!-- awscrt -->
<g id="node9" class="node">
<title>awscrt</title>
<g id="a_node9"><a xlink:href="https://github.com/conda-forge/awscrt-feedstock" xlink:title="awscrt">
<ellipse fill="#fde725" stroke="black" cx="279.31" cy="-162" rx="44.89" ry="18"/>
<text xml:space="preserve" text-anchor="middle" x="279.31" y="-157.32" font-family="Times,serif" font-size="14.00">awscrt</text>
</a>
</g>
</g>
<!-- aws&#45;c&#45;http&#45;&gt;awscrt -->
<g id="edge7" class="edge">
<title>aws&#45;c&#45;http&#45;&gt;awscrt</title>
<path fill="none" stroke="black" d="M266.53,-372.57C300.29,-366.37 337.2,-352.84 358.31,-324 391.02,-279.3 340.11,-218.96 306,-186.32"/>
<polygon fill="black" stroke="black" points="308.57,-183.92 298.86,-179.67 303.8,-189.05 308.57,-183.92"/>
</g>
<!-- aws&#45;c&#45;mqtt&#45;&gt;aws&#45;crt&#45;cpp -->
<g id="edge8" class="edge">
<title>aws&#45;c&#45;mqtt&#45;&gt;aws&#45;crt&#45;cpp</title>
<path fill="none" stroke="black" d="M96.56,-216.05C104.07,-207.71 113.27,-197.49 121.58,-188.25"/>
<polygon fill="black" stroke="black" points="124.1,-190.69 128.19,-180.91 118.9,-186.01 124.1,-190.69"/>
</g>
<!-- aws&#45;c&#45;mqtt&#45;&gt;awscrt -->
<g id="edge9" class="edge">
<title>aws&#45;c&#45;mqtt&#45;&gt;awscrt</title>
<path fill="none" stroke="black" d="M120.43,-219.17C153.68,-207.41 201.38,-190.55 235.82,-178.37"/>
<polygon fill="black" stroke="black" points="236.82,-181.74 245.08,-175.1 234.48,-175.14 236.82,-181.74"/>
</g>
<!-- aws&#45;c&#45;auth&#45;&gt;aws&#45;crt&#45;cpp -->
<g id="edge11" class="edge">
<title>aws&#45;c&#45;auth&#45;&gt;aws&#45;crt&#45;cpp</title>
<path fill="none" stroke="black" d="M289.14,-287.86C293.49,-268.55 297.17,-237.11 282.31,-216 272.56,-202.14 236.14,-188.48 203.16,-178.49"/>
<polygon fill="black" stroke="black" points="204.19,-175.15 193.61,-175.68 202.21,-181.86 204.19,-175.15"/>
</g>
<!-- aws&#45;c&#45;auth&#45;&gt;aws&#45;c&#45;s3 -->
<g id="edge10" class="edge">
<title>aws&#45;c&#45;auth&#45;&gt;aws&#45;c&#45;s3</title>
<path fill="none" stroke="black" d="M268.58,-288.05C260.64,-279.5 250.86,-268.97 242.11,-259.56"/>
<polygon fill="black" stroke="black" points="244.85,-257.36 235.48,-252.42 239.72,-262.13 244.85,-257.36"/>
</g>
<!-- aws&#45;c&#45;auth&#45;&gt;awscrt -->
<g id="edge12" class="edge">
<title>aws&#45;c&#45;auth&#45;&gt;awscrt</title>
<path fill="none" stroke="black" d="M297.46,-287.91C304.23,-278.01 311.8,-264.96 315.31,-252 319.49,-236.56 320.01,-231.29 315.31,-216 312.3,-206.22 306.81,-196.62 301,-188.34"/>
<polygon fill="black" stroke="black" points="303.9,-186.38 295.08,-180.5 298.31,-190.59 303.9,-186.38"/>
</g>
<!-- aws&#45;crt&#45;cpp&#45;&gt;arrow&#45;cpp -->
<g id="edge13" class="edge">
<title>aws&#45;crt&#45;cpp&#45;&gt;arrow&#45;cpp</title>
<path fill="none" stroke="black" d="M107.3,-146.61C90.69,-138.07 72.74,-125.44 63.31,-108 52.89,-88.74 59.8,-64.4 68.38,-46.04"/>
<polygon fill="black" stroke="black" points="71.39,-47.85 72.82,-37.36 65.15,-44.67 71.39,-47.85"/>
</g>
<!-- aws&#45;crt&#45;cpp&#45;&gt;tiledb -->
<g id="edge15" class="edge">
<title>aws&#45;crt&#45;cpp&#45;&gt;tiledb</title>
<path fill="none" stroke="black" d="M181.32,-146.61C197.93,-138.07 215.88,-125.44 225.31,-108 235.26,-89.6 234.41,-65.78 231.4,-47.41"/>
<polygon fill="black" stroke="black" points="234.85,-46.86 229.49,-37.73 227.99,-48.21 234.85,-46.86"/>
</g>
<!-- aws&#45;crt&#45;cpp&#45;&gt;aws&#45;sdk&#45;cpp -->
<g id="edge14" class="edge">
<title>aws&#45;crt&#45;cpp&#45;&gt;aws&#45;sdk&#45;cpp</title>
<path fill="none" stroke="black" d="M144.31,-143.7C144.31,-136.41 144.31,-127.73 144.31,-119.54"/>
<polygon fill="black" stroke="black" points="147.81,-119.62 144.31,-109.62 140.81,-119.62 147.81,-119.62"/>
</g>
<!-- aws&#45;c&#45;s3&#45;&gt;aws&#45;crt&#45;cpp -->
<g id="edge16" class="edge">
<title>aws&#45;c&#45;s3&#45;&gt;aws&#45;crt&#45;cpp</title>
<path fill="none" stroke="black" d="M201.91,-216.76C192.58,-208.06 180.9,-197.15 170.49,-187.43"/>
<polygon fill="black" stroke="black" points="172.94,-184.93 163.24,-180.67 168.16,-190.05 172.94,-184.93"/>
</g>
<!-- aws&#45;c&#45;s3&#45;&gt;awscrt -->
<g id="edge17" class="edge">
<title>aws&#45;c&#45;s3&#45;&gt;awscrt</title>
<path fill="none" stroke="black" d="M233.53,-216.41C240.78,-207.95 249.74,-197.49 257.81,-188.08"/>
<polygon fill="black" stroke="black" points="260.36,-190.49 264.21,-180.62 255.04,-185.93 260.36,-190.49"/>
</g>
</g>
</svg>
