<?xml version="1.0" encoding="UTF-8" standalone="no"?>
<!DOCTYPE svg PUBLIC "-//W3C//DTD SVG 1.1//EN"
 "http://www.w3.org/Graphics/SVG/1.1/DTD/svg11.dtd">
<!-- Generated by graphviz version 13.1.2 (20250809.0930)
 -->
<!-- Pages: 1 -->
<svg width="391pt" height="188pt"
 viewBox="0.00 0.00 391.00 188.00" xmlns="http://www.w3.org/2000/svg" xmlns:xlink="http://www.w3.org/1999/xlink">
<g id="graph0" class="graph" transform="scale(1 1) rotate(0) translate(4 184)">
<polygon fill="white" stroke="none" points="-4,4 -4,-184 386.6,-184 386.6,4 -4,4"/>
<!-- hdf5 -->
<g id="node1" class="node">
<title>hdf5</title>
<g id="a_node1"><a xlink:href="https://github.com/conda-forge/hdf5-feedstock" xlink:title="hdf5">
<ellipse fill="#fde725" stroke="black" cx="348.75" cy="-18" rx="33.85" ry="18"/>
<text xml:space="preserve" text-anchor="middle" x="348.75" y="-13.32" font-family="Times,serif" font-size="14.00">hdf5</text>
</a>
</g>
</g>
<!-- aws&#45;c&#45;mqtt -->
<g id="node2" class="node">
<title>aws&#45;c&#45;mqtt</title>
<g id="a_node2"><a xlink:href="https://github.com/conda-forge/aws-c-mqtt-feedstock/pull/285" xlink:title="aws c mqtt ❎">
<ellipse fill="#31688e" stroke="black" cx="97.75" cy="-90" rx="81.72" ry="18"/>
<text xml:space="preserve" text-anchor="middle" x="97.75" y="-85.33" font-family="Times,serif" font-size="14.00" fill="white">aws c mqtt ❎</text>
</a>
</g>
</g>
<!-- aws&#45;crt&#45;cpp -->
<g id="node4" class="node">
<title>aws&#45;crt&#45;cpp</title>
<g id="a_node4"><a xlink:href="https://github.com/conda-forge/aws-crt-cpp-feedstock" xlink:title="aws crt cpp">
<ellipse fill="#fde725" stroke="black" cx="86.75" cy="-18" rx="69.1" ry="18"/>
<text xml:space="preserve" text-anchor="middle" x="86.75" y="-13.32" font-family="Times,serif" font-size="14.00">aws crt cpp</text>
</a>
</g>
</g>
<!-- aws&#45;c&#45;mqtt&#45;&gt;aws&#45;crt&#45;cpp -->
<g id="edge1" class="edge">
<title>aws&#45;c&#45;mqtt&#45;&gt;aws&#45;crt&#45;cpp</title>
<path fill="none" stroke="black" d="M95.04,-71.7C93.88,-64.32 92.49,-55.52 91.19,-47.25"/>
<polygon fill="black" stroke="black" points="94.69,-46.93 89.68,-37.6 87.77,-48.02 94.69,-46.93"/>
</g>
<!-- awscrt -->
<g id="node6" class="node">
<title>awscrt</title>
<g id="a_node6"><a xlink:href="https://github.com/conda-forge/awscrt-feedstock" xlink:title="awscrt">
<ellipse fill="#fde725" stroke="black" cx="218.75" cy="-18" rx="44.89" ry="18"/>
<text xml:space="preserve" text-anchor="middle" x="218.75" y="-13.32" font-family="Times,serif" font-size="14.00">awscrt</text>
</a>
</g>
</g>
<!-- aws&#45;c&#45;mqtt&#45;&gt;awscrt -->
<g id="edge2" class="edge">
<title>aws&#45;c&#45;mqtt&#45;&gt;awscrt</title>
<path fill="none" stroke="black" d="M125.82,-72.76C143.25,-62.68 165.79,-49.64 184.31,-38.93"/>
<polygon fill="black" stroke="black" points="185.91,-42.04 192.81,-34.01 182.4,-35.99 185.91,-42.04"/>
</g>
<!-- aws&#45;c&#45;auth -->
<g id="node3" class="node">
<title>aws&#45;c&#45;auth</title>
<g id="a_node3"><a xlink:href="https://github.com/conda-forge/aws-c-auth-feedstock/pull/360" xlink:title="aws c auth ❎">
<ellipse fill="#31688e" stroke="black" cx="248.75" cy="-162" rx="80.14" ry="18"/>
<text xml:space="preserve" text-anchor="middle" x="248.75" y="-157.32" font-family="Times,serif" font-size="14.00" fill="white">aws c auth ❎</text>
</a>
</g>
</g>
<!-- aws&#45;c&#45;auth&#45;&gt;hdf5 -->
<g id="edge6" class="edge">
<title>aws&#45;c&#45;auth&#45;&gt;hdf5</title>
<path fill="none" stroke="black" d="M299.74,-147.71C319.89,-139.69 341,-127.18 352.75,-108 363.81,-89.96 361.91,-65.78 357.74,-47.18"/>
<polygon fill="black" stroke="black" points="361.15,-46.41 355.25,-37.61 354.38,-48.17 361.15,-46.41"/>
</g>
<!-- aws&#45;c&#45;auth&#45;&gt;aws&#45;crt&#45;cpp -->
<g id="edge4" class="edge">
<title>aws&#45;c&#45;auth&#45;&gt;aws&#45;crt&#45;cpp</title>
<path fill="none" stroke="black" d="M174.62,-154.82C111.42,-147.83 27.58,-133.88 6.75,-108 -3.28,-95.53 -0.82,-86.1 6.75,-72 14.24,-58.06 27.18,-47.17 40.49,-38.99"/>
<polygon fill="black" stroke="black" points="41.89,-42.22 48.87,-34.25 38.44,-36.13 41.89,-42.22"/>
</g>
<!-- aws&#45;c&#45;s3 -->
<g id="node5" class="node">
<title>aws&#45;c&#45;s3</title>
<g id="a_node5"><a xlink:href="https://github.com/conda-forge/aws-c-s3-feedstock" xlink:title="aws c s3">
<ellipse fill="#fde725" stroke="black" cx="289.75" cy="-90" rx="53.84" ry="18"/>
<text xml:space="preserve" text-anchor="middle" x="289.75" y="-85.33" font-family="Times,serif" font-size="14.00">aws c s3</text>
</a>
</g>
</g>
<!-- aws&#45;c&#45;auth&#45;&gt;aws&#45;c&#45;s3 -->
<g id="edge3" class="edge">
<title>aws&#45;c&#45;auth&#45;&gt;aws&#45;c&#45;s3</title>
<path fill="none" stroke="black" d="M258.89,-143.7C263.46,-135.9 268.96,-126.51 274.04,-117.83"/>
<polygon fill="black" stroke="black" points="276.94,-119.81 278.97,-109.41 270.9,-116.27 276.94,-119.81"/>
</g>
<!-- aws&#45;c&#45;auth&#45;&gt;awscrt -->
<g id="edge5" class="edge">
<title>aws&#45;c&#45;auth&#45;&gt;awscrt</title>
<path fill="none" stroke="black" d="M240.04,-143.79C235.3,-133.63 229.8,-120.38 226.75,-108 221.87,-88.17 219.89,-65.21 219.13,-47.57"/>
<polygon fill="black" stroke="black" points="222.63,-47.71 218.81,-37.83 215.64,-47.94 222.63,-47.71"/>
</g>
<!-- aws&#45;c&#45;s3&#45;&gt;hdf5 -->
<g id="edge9" class="edge">
<title>aws&#45;c&#45;s3&#45;&gt;hdf5</title>
<path fill="none" stroke="black" d="M303.74,-72.41C310.97,-63.83 319.94,-53.19 327.96,-43.67"/>
<polygon fill="black" stroke="black" points="330.53,-46.05 334.3,-36.15 325.18,-41.54 330.53,-46.05"/>
</g>
<!-- aws&#45;c&#45;s3&#45;&gt;aws&#45;crt&#45;cpp -->
<g id="edge7" class="edge">
<title>aws&#45;c&#45;s3&#45;&gt;aws&#45;crt&#45;cpp</title>
<path fill="none" stroke="black" d="M253.46,-76.49C221.32,-65.4 174.05,-49.1 138.04,-36.69"/>
<polygon fill="black" stroke="black" points="139.29,-33.41 128.69,-33.46 137,-40.03 139.29,-33.41"/>
</g>
<!-- aws&#45;c&#45;s3&#45;&gt;awscrt -->
<g id="edge8" class="edge">
<title>aws&#45;c&#45;s3&#45;&gt;awscrt</title>
<path fill="none" stroke="black" d="M272.93,-72.41C263.96,-63.57 252.76,-52.53 242.88,-42.79"/>
<polygon fill="black" stroke="black" points="245.63,-40.58 236.05,-36.05 240.71,-45.56 245.63,-40.58"/>
</g>
</g>
</svg>
