<?xml version="1.0" encoding="UTF-8" standalone="no"?>
<!DOCTYPE svg PUBLIC "-//W3C//DTD SVG 1.1//EN"
 "http://www.w3.org/Graphics/SVG/1.1/DTD/svg11.dtd">
<!-- Generated by graphviz version 13.1.2 (20250809.0930)
 -->
<!-- Pages: 1 -->
<svg width="628pt" height="332pt"
 viewBox="0.00 0.00 628.00 332.00" xmlns="http://www.w3.org/2000/svg" xmlns:xlink="http://www.w3.org/1999/xlink">
<g id="graph0" class="graph" transform="scale(1 1) rotate(0) translate(4 328)">
<polygon fill="white" stroke="none" points="-4,4 -4,-328 623.96,-328 623.96,4 -4,4"/>
<!-- arrow&#45;cpp -->
<g id="node1" class="node">
<title>arrow&#45;cpp</title>
<g id="a_node1"><a xlink:href="https://github.com/conda-forge/arrow-cpp-feedstock" xlink:title="arrow cpp">
<ellipse fill="#fde725" stroke="black" cx="342.14" cy="-18" rx="61.73" ry="18"/>
<text xml:space="preserve" text-anchor="middle" x="342.14" y="-13.32" font-family="Times,serif" font-size="14.00">arrow cpp</text>
</a>
</g>
</g>
<!-- tiledb -->
<g id="node2" class="node">
<title>tiledb</title>
<g id="a_node2"><a xlink:href="https://github.com/conda-forge/tiledb-feedstock" xlink:title="tiledb">
<ellipse fill="#fde725" stroke="black" cx="202.14" cy="-18" rx="40.16" ry="18"/>
<text xml:space="preserve" text-anchor="middle" x="202.14" y="-13.32" font-family="Times,serif" font-size="14.00">tiledb</text>
</a>
</g>
</g>
<!-- aws&#45;sdk&#45;cpp -->
<g id="node3" class="node">
<title>aws&#45;sdk&#45;cpp</title>
<g id="a_node3"><a xlink:href="https://github.com/conda-forge/aws-sdk-cpp-feedstock" xlink:title="aws sdk cpp">
<ellipse fill="#fde725" stroke="black" cx="262.14" cy="-90" rx="72.25" ry="18"/>
<text xml:space="preserve" text-anchor="middle" x="262.14" y="-85.33" font-family="Times,serif" font-size="14.00">aws sdk cpp</text>
</a>
</g>
</g>
<!-- aws&#45;sdk&#45;cpp&#45;&gt;arrow&#45;cpp -->
<g id="edge1" class="edge">
<title>aws&#45;sdk&#45;cpp&#45;&gt;arrow&#45;cpp</title>
<path fill="none" stroke="black" d="M281.1,-72.41C291.17,-63.61 303.71,-52.63 314.81,-42.92"/>
<polygon fill="black" stroke="black" points="316.96,-45.69 322.18,-36.47 312.35,-40.42 316.96,-45.69"/>
</g>
<!-- aws&#45;sdk&#45;cpp&#45;&gt;tiledb -->
<g id="edge2" class="edge">
<title>aws&#45;sdk&#45;cpp&#45;&gt;tiledb</title>
<path fill="none" stroke="black" d="M247.62,-72.05C240.37,-63.59 231.45,-53.19 223.44,-43.84"/>
<polygon fill="black" stroke="black" points="226.27,-41.77 217.11,-36.46 220.96,-46.33 226.27,-41.77"/>
</g>
<!-- aws&#45;c&#45;event&#45;stream -->
<g id="node4" class="node">
<title>aws&#45;c&#45;event&#45;stream</title>
<g id="a_node4"><a xlink:href="https://github.com/conda-forge/aws-c-event-stream-feedstock/pull/224" xlink:title="aws c event stream ❎">
<ellipse fill="#31688e" stroke="black" cx="496.14" cy="-234" rx="123.81" ry="18"/>
<text xml:space="preserve" text-anchor="middle" x="496.14" y="-229.32" font-family="Times,serif" font-size="14.00" fill="white">aws c event stream ❎</text>
</a>
</g>
</g>
<!-- aws&#45;c&#45;event&#45;stream&#45;&gt;aws&#45;sdk&#45;cpp -->
<g id="edge4" class="edge">
<title>aws&#45;c&#45;event&#45;stream&#45;&gt;aws&#45;sdk&#45;cpp</title>
<path fill="none" stroke="black" d="M481,-215.89C462.92,-196.3 430.97,-164.33 398.14,-144 373.75,-128.89 344.32,-116.78 319.09,-107.97"/>
<polygon fill="black" stroke="black" points="320.22,-104.66 309.63,-104.76 317.98,-111.29 320.22,-104.66"/>
</g>
<!-- aws&#45;crt&#45;cpp -->
<g id="node7" class="node">
<title>aws&#45;crt&#45;cpp</title>
<g id="a_node7"><a xlink:href="https://github.com/conda-forge/aws-crt-cpp-feedstock" xlink:title="aws crt cpp">
<ellipse fill="#fde725" stroke="black" cx="212.14" cy="-162" rx="69.1" ry="18"/>
<text xml:space="preserve" text-anchor="middle" x="212.14" y="-157.32" font-family="Times,serif" font-size="14.00">aws crt cpp</text>
</a>
</g>
</g>
<!-- aws&#45;c&#45;event&#45;stream&#45;&gt;aws&#45;crt&#45;cpp -->
<g id="edge3" class="edge">
<title>aws&#45;c&#45;event&#45;stream&#45;&gt;aws&#45;crt&#45;cpp</title>
<path fill="none" stroke="black" d="M435.22,-217.98C387.09,-206.12 320.26,-189.65 272.32,-177.83"/>
<polygon fill="black" stroke="black" points="273.19,-174.44 262.65,-175.45 271.52,-181.24 273.19,-174.44"/>
</g>
<!-- awscrt -->
<g id="node9" class="node">
<title>awscrt</title>
<g id="a_node9"><a xlink:href="https://github.com/conda-forge/awscrt-feedstock" xlink:title="awscrt">
<ellipse fill="#fde725" stroke="black" cx="344.14" cy="-162" rx="44.89" ry="18"/>
<text xml:space="preserve" text-anchor="middle" x="344.14" y="-157.32" font-family="Times,serif" font-size="14.00">awscrt</text>
</a>
</g>
</g>
<!-- aws&#45;c&#45;event&#45;stream&#45;&gt;awscrt -->
<g id="edge5" class="edge">
<title>aws&#45;c&#45;event&#45;stream&#45;&gt;awscrt</title>
<path fill="none" stroke="black" d="M460.12,-216.41C436.98,-205.75 406.92,-191.91 383.2,-180.99"/>
<polygon fill="black" stroke="black" points="384.72,-177.83 374.18,-176.83 381.79,-184.19 384.72,-177.83"/>
</g>
<!-- aws&#45;c&#45;mqtt -->
<g id="node5" class="node">
<title>aws&#45;c&#45;mqtt</title>
<g id="a_node5"><a xlink:href="https://github.com/conda-forge/aws-c-mqtt-feedstock/pull/271" xlink:title="aws c mqtt ❎">
<ellipse fill="#31688e" stroke="black" cx="234.14" cy="-234" rx="81.72" ry="18"/>
<text xml:space="preserve" text-anchor="middle" x="234.14" y="-229.32" font-family="Times,serif" font-size="14.00" fill="white">aws c mqtt ❎</text>
</a>
</g>
</g>
<!-- aws&#45;c&#45;mqtt&#45;&gt;aws&#45;crt&#45;cpp -->
<g id="edge6" class="edge">
<title>aws&#45;c&#45;mqtt&#45;&gt;aws&#45;crt&#45;cpp</title>
<path fill="none" stroke="black" d="M228.71,-215.7C226.36,-208.24 223.56,-199.32 220.93,-190.97"/>
<polygon fill="black" stroke="black" points="224.31,-190.04 217.97,-181.55 217.63,-192.14 224.31,-190.04"/>
</g>
<!-- aws&#45;c&#45;mqtt&#45;&gt;awscrt -->
<g id="edge7" class="edge">
<title>aws&#45;c&#45;mqtt&#45;&gt;awscrt</title>
<path fill="none" stroke="black" d="M259.93,-216.59C275.43,-206.72 295.3,-194.09 311.84,-183.56"/>
<polygon fill="black" stroke="black" points="313.3,-186.78 319.86,-178.46 309.54,-180.87 313.3,-186.78"/>
</g>
<!-- aws&#45;c&#45;auth -->
<g id="node6" class="node">
<title>aws&#45;c&#45;auth</title>
<g id="a_node6"><a xlink:href="https://github.com/conda-forge/aws-c-auth-feedstock/pull/345" xlink:title="aws c auth ❎">
<ellipse fill="#31688e" stroke="black" cx="80.14" cy="-306" rx="80.14" ry="18"/>
<text xml:space="preserve" text-anchor="middle" x="80.14" y="-301.32" font-family="Times,serif" font-size="14.00" fill="white">aws c auth ❎</text>
</a>
</g>
</g>
<!-- aws&#45;c&#45;auth&#45;&gt;aws&#45;crt&#45;cpp -->
<g id="edge9" class="edge">
<title>aws&#45;c&#45;auth&#45;&gt;aws&#45;crt&#45;cpp</title>
<path fill="none" stroke="black" d="M51.49,-288.96C38.44,-279.96 24.32,-267.42 17.14,-252 10.39,-237.49 7.43,-228.71 17.14,-216 32.41,-196.03 91.72,-181.8 140.95,-173.15"/>
<polygon fill="black" stroke="black" points="141.49,-176.61 150.76,-171.49 140.31,-169.71 141.49,-176.61"/>
</g>
<!-- aws&#45;c&#45;s3 -->
<g id="node8" class="node">
<title>aws&#45;c&#45;s3</title>
<g id="a_node8"><a xlink:href="https://github.com/conda-forge/aws-c-s3-feedstock" xlink:title="aws c s3">
<ellipse fill="#fde725" stroke="black" cx="80.14" cy="-234" rx="53.84" ry="18"/>
<text xml:space="preserve" text-anchor="middle" x="80.14" y="-229.32" font-family="Times,serif" font-size="14.00">aws c s3</text>
</a>
</g>
</g>
<!-- aws&#45;c&#45;auth&#45;&gt;aws&#45;c&#45;s3 -->
<g id="edge8" class="edge">
<title>aws&#45;c&#45;auth&#45;&gt;aws&#45;c&#45;s3</title>
<path fill="none" stroke="black" d="M80.14,-287.7C80.14,-280.41 80.14,-271.73 80.14,-263.54"/>
<polygon fill="black" stroke="black" points="83.64,-263.62 80.14,-253.62 76.64,-263.62 83.64,-263.62"/>
</g>
<!-- aws&#45;c&#45;auth&#45;&gt;awscrt -->
<g id="edge10" class="edge">
<title>aws&#45;c&#45;auth&#45;&gt;awscrt</title>
<path fill="none" stroke="black" d="M152.73,-297.99C215.99,-290.37 301.25,-275.96 325.14,-252 340.76,-236.34 344.98,-211.21 345.6,-191.63"/>
<polygon fill="black" stroke="black" points="349.1,-191.81 345.59,-181.81 342.1,-191.82 349.1,-191.81"/>
</g>
<!-- aws&#45;crt&#45;cpp&#45;&gt;arrow&#45;cpp -->
<g id="edge11" class="edge">
<title>aws&#45;crt&#45;cpp&#45;&gt;arrow&#45;cpp</title>
<path fill="none" stroke="black" d="M258.37,-148.28C291.93,-138 333.13,-122.85 343.14,-108 354.96,-90.47 353.86,-66.26 350.28,-47.51"/>
<polygon fill="black" stroke="black" points="353.71,-46.83 348.08,-37.86 346.89,-48.38 353.71,-46.83"/>
</g>
<!-- aws&#45;crt&#45;cpp&#45;&gt;tiledb -->
<g id="edge13" class="edge">
<title>aws&#45;crt&#45;cpp&#45;&gt;tiledb</title>
<path fill="none" stroke="black" d="M199,-143.91C192.22,-134.01 184.66,-120.96 181.14,-108 175.57,-87.41 181.63,-63.92 188.65,-46.25"/>
<polygon fill="black" stroke="black" points="191.8,-47.77 192.56,-37.2 185.38,-44.99 191.8,-47.77"/>
</g>
<!-- aws&#45;crt&#45;cpp&#45;&gt;aws&#45;sdk&#45;cpp -->
<g id="edge12" class="edge">
<title>aws&#45;crt&#45;cpp&#45;&gt;aws&#45;sdk&#45;cpp</title>
<path fill="none" stroke="black" d="M224.25,-144.05C230.02,-135.97 237.06,-126.12 243.49,-117.11"/>
<polygon fill="black" stroke="black" points="246.31,-119.19 249.27,-109.02 240.61,-115.12 246.31,-119.19"/>
</g>
<!-- aws&#45;c&#45;s3&#45;&gt;aws&#45;crt&#45;cpp -->
<g id="edge14" class="edge">
<title>aws&#45;c&#45;s3&#45;&gt;aws&#45;crt&#45;cpp</title>
<path fill="none" stroke="black" d="M108.14,-218.15C126.91,-208.2 151.91,-194.94 172.7,-183.92"/>
<polygon fill="black" stroke="black" points="174.29,-187.04 181.48,-179.26 171.01,-180.85 174.29,-187.04"/>
</g>
<!-- aws&#45;c&#45;s3&#45;&gt;awscrt -->
<g id="edge15" class="edge">
<title>aws&#45;c&#45;s3&#45;&gt;awscrt</title>
<path fill="none" stroke="black" d="M120.77,-221.89C128.21,-219.9 135.9,-217.86 143.14,-216 208.29,-199.24 225.36,-198.11 290.14,-180 293.06,-179.18 296.06,-178.32 299.07,-177.43"/>
<polygon fill="black" stroke="black" points="299.96,-180.82 308.52,-174.57 297.93,-174.12 299.96,-180.82"/>
</g>
</g>
</svg>
