<?xml version="1.0" encoding="UTF-8" standalone="no"?>
<!DOCTYPE svg PUBLIC "-//W3C//DTD SVG 1.1//EN"
 "http://www.w3.org/Graphics/SVG/1.1/DTD/svg11.dtd">
<!-- Generated by graphviz version 13.1.2 (20250809.0930)
 -->
<!-- Pages: 1 -->
<svg width="828pt" height="332pt"
 viewBox="0.00 0.00 828.00 332.00" xmlns="http://www.w3.org/2000/svg" xmlns:xlink="http://www.w3.org/1999/xlink">
<g id="graph0" class="graph" transform="scale(1 1) rotate(0) translate(4 328)">
<polygon fill="white" stroke="none" points="-4,4 -4,-328 824.12,-328 824.12,4 -4,4"/>
<!-- arrow&#45;cpp -->
<g id="node1" class="node">
<title>arrow&#45;cpp</title>
<g id="a_node1"><a xlink:href="https://github.com/conda-forge/arrow-cpp-feedstock" xlink:title="arrow cpp">
<ellipse fill="#fde725" stroke="black" cx="401.47" cy="-18" rx="61.73" ry="18"/>
<text xml:space="preserve" text-anchor="middle" x="401.47" y="-13.32" font-family="Times,serif" font-size="14.00">arrow cpp</text>
</a>
</g>
</g>
<!-- tiledb -->
<g id="node2" class="node">
<title>tiledb</title>
<g id="a_node2"><a xlink:href="https://github.com/conda-forge/tiledb-feedstock" xlink:title="tiledb">
<ellipse fill="#fde725" stroke="black" cx="521.47" cy="-18" rx="40.16" ry="18"/>
<text xml:space="preserve" text-anchor="middle" x="521.47" y="-13.32" font-family="Times,serif" font-size="14.00">tiledb</text>
</a>
</g>
</g>
<!-- aws&#45;sdk&#45;cpp -->
<g id="node3" class="node">
<title>aws&#45;sdk&#45;cpp</title>
<g id="a_node3"><a xlink:href="https://github.com/conda-forge/aws-sdk-cpp-feedstock" xlink:title="aws sdk cpp">
<ellipse fill="#fde725" stroke="black" cx="461.47" cy="-90" rx="72.25" ry="18"/>
<text xml:space="preserve" text-anchor="middle" x="461.47" y="-85.33" font-family="Times,serif" font-size="14.00">aws sdk cpp</text>
</a>
</g>
</g>
<!-- aws&#45;sdk&#45;cpp&#45;&gt;arrow&#45;cpp -->
<g id="edge1" class="edge">
<title>aws&#45;sdk&#45;cpp&#45;&gt;arrow&#45;cpp</title>
<path fill="none" stroke="black" d="M446.94,-72.05C439.79,-63.71 431.03,-53.49 423.11,-44.25"/>
<polygon fill="black" stroke="black" points="426.01,-42.25 416.84,-36.94 420.69,-46.81 426.01,-42.25"/>
</g>
<!-- aws&#45;sdk&#45;cpp&#45;&gt;tiledb -->
<g id="edge2" class="edge">
<title>aws&#45;sdk&#45;cpp&#45;&gt;tiledb</title>
<path fill="none" stroke="black" d="M475.99,-72.05C483.24,-63.59 492.16,-53.19 500.17,-43.84"/>
<polygon fill="black" stroke="black" points="502.65,-46.33 506.5,-36.46 497.34,-41.77 502.65,-46.33"/>
</g>
<!-- aws&#45;checksums -->
<g id="node4" class="node">
<title>aws&#45;checksums</title>
<g id="a_node4"><a xlink:href="https://github.com/conda-forge/aws-checksums-feedstock/pull/107" xlink:title="aws checksums ❎">
<ellipse fill="#31688e" stroke="black" cx="347.47" cy="-234" rx="103.82" ry="18"/>
<text xml:space="preserve" text-anchor="middle" x="347.47" y="-229.32" font-family="Times,serif" font-size="14.00" fill="white">aws checksums ❎</text>
</a>
</g>
</g>
<!-- aws&#45;c&#45;event&#45;stream -->
<g id="node5" class="node">
<title>aws&#45;c&#45;event&#45;stream</title>
<g id="a_node5"><a xlink:href="https://github.com/conda-forge/aws-c-event-stream-feedstock" xlink:title="aws c event stream">
<ellipse fill="#fde725" stroke="black" cx="461.47" cy="-162" rx="108.55" ry="18"/>
<text xml:space="preserve" text-anchor="middle" x="461.47" y="-157.32" font-family="Times,serif" font-size="14.00">aws c event stream</text>
</a>
</g>
</g>
<!-- aws&#45;checksums&#45;&gt;aws&#45;c&#45;event&#45;stream -->
<g id="edge3" class="edge">
<title>aws&#45;checksums&#45;&gt;aws&#45;c&#45;event&#45;stream</title>
<path fill="none" stroke="black" d="M374.77,-216.23C389.61,-207.12 408.17,-195.72 424.31,-185.82"/>
<polygon fill="black" stroke="black" points="426.01,-188.88 432.7,-180.66 422.34,-182.91 426.01,-188.88"/>
</g>
<!-- aws&#45;c&#45;s3 -->
<g id="node9" class="node">
<title>aws&#45;c&#45;s3</title>
<g id="a_node9"><a xlink:href="https://github.com/conda-forge/aws-c-s3-feedstock" xlink:title="aws c s3">
<ellipse fill="#fde725" stroke="black" cx="242.47" cy="-162" rx="53.84" ry="18"/>
<text xml:space="preserve" text-anchor="middle" x="242.47" y="-157.32" font-family="Times,serif" font-size="14.00">aws c s3</text>
</a>
</g>
</g>
<!-- aws&#45;checksums&#45;&gt;aws&#45;c&#45;s3 -->
<g id="edge4" class="edge">
<title>aws&#45;checksums&#45;&gt;aws&#45;c&#45;s3</title>
<path fill="none" stroke="black" d="M322.32,-216.23C308.28,-206.88 290.63,-195.11 275.49,-185.02"/>
<polygon fill="black" stroke="black" points="277.49,-182.14 267.23,-179.51 273.61,-187.97 277.49,-182.14"/>
</g>
<!-- awscrt -->
<g id="node10" class="node">
<title>awscrt</title>
<g id="a_node10"><a xlink:href="https://github.com/conda-forge/awscrt-feedstock" xlink:title="awscrt">
<ellipse fill="#fde725" stroke="black" cx="242.47" cy="-90" rx="44.89" ry="18"/>
<text xml:space="preserve" text-anchor="middle" x="242.47" y="-85.33" font-family="Times,serif" font-size="14.00">awscrt</text>
</a>
</g>
</g>
<!-- aws&#45;checksums&#45;&gt;awscrt -->
<g id="edge5" class="edge">
<title>aws&#45;checksums&#45;&gt;awscrt</title>
<path fill="none" stroke="black" d="M341.84,-215.72C335.14,-196.85 322.66,-166.34 305.47,-144 296.54,-132.41 284.68,-121.62 273.66,-112.83"/>
<polygon fill="black" stroke="black" points="275.96,-110.18 265.89,-106.88 271.7,-115.74 275.96,-110.18"/>
</g>
<!-- aws&#45;c&#45;event&#45;stream&#45;&gt;aws&#45;sdk&#45;cpp -->
<g id="edge6" class="edge">
<title>aws&#45;c&#45;event&#45;stream&#45;&gt;aws&#45;sdk&#45;cpp</title>
<path fill="none" stroke="black" d="M461.47,-143.7C461.47,-136.41 461.47,-127.73 461.47,-119.54"/>
<polygon fill="black" stroke="black" points="464.97,-119.62 461.47,-109.62 457.97,-119.62 464.97,-119.62"/>
</g>
<!-- aws&#45;c&#45;event&#45;stream&#45;&gt;awscrt -->
<g id="edge7" class="edge">
<title>aws&#45;c&#45;event&#45;stream&#45;&gt;awscrt</title>
<path fill="none" stroke="black" d="M412.86,-145.46C375.4,-133.49 324.01,-117.06 287.48,-105.39"/>
<polygon fill="black" stroke="black" points="288.69,-102.1 278.1,-102.39 286.56,-108.77 288.69,-102.1"/>
</g>
<!-- aws&#45;c&#45;compression -->
<g id="node6" class="node">
<title>aws&#45;c&#45;compression</title>
<g id="a_node6"><a xlink:href="https://github.com/conda-forge/aws-c-compression-feedstock/pull/84" xlink:title="aws c compression ❎">
<ellipse fill="#31688e" stroke="black" cx="699.47" cy="-162" rx="120.65" ry="18"/>
<text xml:space="preserve" text-anchor="middle" x="699.47" y="-157.32" font-family="Times,serif" font-size="14.00" fill="white">aws c compression ❎</text>
</a>
</g>
</g>
<!-- aws&#45;c&#45;mqtt -->
<g id="node7" class="node">
<title>aws&#45;c&#45;mqtt</title>
<g id="a_node7"><a xlink:href="https://github.com/conda-forge/aws-c-mqtt-feedstock" xlink:title="aws c mqtt">
<ellipse fill="#ff8c00" stroke="black" cx="66.47" cy="-162" rx="66.47" ry="18"/>
<text xml:space="preserve" text-anchor="middle" x="66.47" y="-157.32" font-family="Times,serif" font-size="14.00">aws c mqtt</text>
</a>
</g>
</g>
<!-- aws&#45;c&#45;mqtt&#45;&gt;awscrt -->
<g id="edge8" class="edge">
<title>aws&#45;c&#45;mqtt&#45;&gt;awscrt</title>
<path fill="none" stroke="black" d="M102.93,-146.5C131.45,-135.15 171.11,-119.38 200.86,-107.55"/>
<polygon fill="black" stroke="black" points="201.93,-110.89 209.93,-103.94 199.35,-104.38 201.93,-110.89"/>
</g>
<!-- aws&#45;c&#45;auth -->
<g id="node8" class="node">
<title>aws&#45;c&#45;auth</title>
<g id="a_node8"><a xlink:href="https://github.com/conda-forge/aws-c-auth-feedstock" xlink:title="aws c auth">
<ellipse fill="#fde725" stroke="black" cx="160.47" cy="-234" rx="64.89" ry="18"/>
<text xml:space="preserve" text-anchor="middle" x="160.47" y="-229.32" font-family="Times,serif" font-size="14.00">aws c auth</text>
</a>
</g>
</g>
<!-- aws&#45;c&#45;auth&#45;&gt;aws&#45;c&#45;s3 -->
<g id="edge9" class="edge">
<title>aws&#45;c&#45;auth&#45;&gt;aws&#45;c&#45;s3</title>
<path fill="none" stroke="black" d="M179.9,-216.41C190.39,-207.45 203.52,-196.25 215.03,-186.42"/>
<polygon fill="black" stroke="black" points="216.97,-189.37 222.3,-180.21 212.43,-184.04 216.97,-189.37"/>
</g>
<!-- aws&#45;c&#45;auth&#45;&gt;awscrt -->
<g id="edge10" class="edge">
<title>aws&#45;c&#45;auth&#45;&gt;awscrt</title>
<path fill="none" stroke="black" d="M160.87,-215.73C162.03,-196.86 166.04,-166.35 179.47,-144 186.88,-131.65 198.22,-120.81 209.25,-112.21"/>
<polygon fill="black" stroke="black" points="211.14,-115.16 217.12,-106.42 206.99,-109.52 211.14,-115.16"/>
</g>
<!-- aws&#45;c&#45;s3&#45;&gt;awscrt -->
<g id="edge11" class="edge">
<title>aws&#45;c&#45;s3&#45;&gt;awscrt</title>
<path fill="none" stroke="black" d="M242.47,-143.7C242.47,-136.41 242.47,-127.73 242.47,-119.54"/>
<polygon fill="black" stroke="black" points="245.97,-119.62 242.47,-109.62 238.97,-119.62 245.97,-119.62"/>
</g>
<!-- aws&#45;c&#45;sdkutils -->
<g id="node11" class="node">
<title>aws&#45;c&#45;sdkutils</title>
<g id="a_node11"><a xlink:href="https://github.com/conda-forge/aws-c-sdkutils-feedstock/pull/89" xlink:title="aws c sdkutils ❎">
<ellipse fill="#31688e" stroke="black" cx="160.47" cy="-306" rx="96.98" ry="18"/>
<text xml:space="preserve" text-anchor="middle" x="160.47" y="-301.32" font-family="Times,serif" font-size="14.00" fill="white">aws c sdkutils ❎</text>
</a>
</g>
</g>
<!-- aws&#45;c&#45;sdkutils&#45;&gt;aws&#45;c&#45;auth -->
<g id="edge12" class="edge">
<title>aws&#45;c&#45;sdkutils&#45;&gt;aws&#45;c&#45;auth</title>
<path fill="none" stroke="black" d="M160.47,-287.7C160.47,-280.41 160.47,-271.73 160.47,-263.54"/>
<polygon fill="black" stroke="black" points="163.97,-263.62 160.47,-253.62 156.97,-263.62 163.97,-263.62"/>
</g>
</g>
</svg>
