<?xml version="1.0" encoding="UTF-8" standalone="no"?>
<!DOCTYPE svg PUBLIC "-//W3C//DTD SVG 1.1//EN"
 "http://www.w3.org/Graphics/SVG/1.1/DTD/svg11.dtd">
<!-- Generated by graphviz version 13.1.2 (20250809.0930)
 -->
<!-- Pages: 1 -->
<svg width="381pt" height="476pt"
 viewBox="0.00 0.00 381.00 476.00" xmlns="http://www.w3.org/2000/svg" xmlns:xlink="http://www.w3.org/1999/xlink">
<g id="graph0" class="graph" transform="scale(1 1) rotate(0) translate(4 472)">
<polygon fill="white" stroke="none" points="-4,4 -4,-472 376.82,-472 376.82,4 -4,4"/>
<!-- arrow&#45;cpp -->
<g id="node1" class="node">
<title>arrow&#45;cpp</title>
<g id="a_node1"><a xlink:href="https://github.com/conda-forge/arrow-cpp-feedstock" xlink:title="arrow cpp">
<ellipse fill="#fde725" stroke="black" cx="61.73" cy="-18" rx="61.73" ry="18"/>
<text xml:space="preserve" text-anchor="middle" x="61.73" y="-13.32" font-family="Times,serif" font-size="14.00">arrow cpp</text>
</a>
</g>
</g>
<!-- tiledb -->
<g id="node2" class="node">
<title>tiledb</title>
<g id="a_node2"><a xlink:href="https://github.com/conda-forge/tiledb-feedstock" xlink:title="tiledb">
<ellipse fill="#fde725" stroke="black" cx="201.73" cy="-18" rx="40.16" ry="18"/>
<text xml:space="preserve" text-anchor="middle" x="201.73" y="-13.32" font-family="Times,serif" font-size="14.00">tiledb</text>
</a>
</g>
</g>
<!-- aws&#45;sdk&#45;cpp -->
<g id="node3" class="node">
<title>aws&#45;sdk&#45;cpp</title>
<g id="a_node3"><a xlink:href="https://github.com/conda-forge/aws-sdk-cpp-feedstock" xlink:title="aws sdk cpp">
<ellipse fill="#fde725" stroke="black" cx="121.73" cy="-90" rx="72.25" ry="18"/>
<text xml:space="preserve" text-anchor="middle" x="121.73" y="-85.33" font-family="Times,serif" font-size="14.00">aws sdk cpp</text>
</a>
</g>
</g>
<!-- aws&#45;sdk&#45;cpp&#45;&gt;arrow&#45;cpp -->
<g id="edge1" class="edge">
<title>aws&#45;sdk&#45;cpp&#45;&gt;arrow&#45;cpp</title>
<path fill="none" stroke="black" d="M107.21,-72.05C100.06,-63.71 91.29,-53.49 83.37,-44.25"/>
<polygon fill="black" stroke="black" points="86.27,-42.25 77.11,-36.94 80.96,-46.81 86.27,-42.25"/>
</g>
<!-- aws&#45;sdk&#45;cpp&#45;&gt;tiledb -->
<g id="edge2" class="edge">
<title>aws&#45;sdk&#45;cpp&#45;&gt;tiledb</title>
<path fill="none" stroke="black" d="M140.69,-72.41C151.04,-63.35 164.03,-51.99 175.36,-42.08"/>
<polygon fill="black" stroke="black" points="177.64,-44.73 182.86,-35.51 173.03,-39.46 177.64,-44.73"/>
</g>
<!-- aws&#45;c&#45;io -->
<g id="node4" class="node">
<title>aws&#45;c&#45;io</title>
<g id="a_node4"><a xlink:href="https://github.com/conda-forge/aws-c-io-feedstock/pull/386" xlink:title="aws c io ❎">
<ellipse fill="#31688e" stroke="black" cx="280.73" cy="-450" rx="66.47" ry="18"/>
<text xml:space="preserve" text-anchor="middle" x="280.73" y="-445.32" font-family="Times,serif" font-size="14.00" fill="white">aws c io ❎</text>
</a>
</g>
</g>
<!-- aws&#45;c&#45;http -->
<g id="node5" class="node">
<title>aws&#45;c&#45;http</title>
<g id="a_node5"><a xlink:href="https://github.com/conda-forge/aws-c-http-feedstock" xlink:title="aws c http">
<ellipse fill="#fde725" stroke="black" cx="280.73" cy="-378" rx="63.31" ry="18"/>
<text xml:space="preserve" text-anchor="middle" x="280.73" y="-373.32" font-family="Times,serif" font-size="14.00">aws c http</text>
</a>
</g>
</g>
<!-- aws&#45;c&#45;io&#45;&gt;aws&#45;c&#45;http -->
<g id="edge3" class="edge">
<title>aws&#45;c&#45;io&#45;&gt;aws&#45;c&#45;http</title>
<path fill="none" stroke="black" d="M280.73,-431.7C280.73,-424.41 280.73,-415.73 280.73,-407.54"/>
<polygon fill="black" stroke="black" points="284.23,-407.62 280.73,-397.62 277.23,-407.62 284.23,-407.62"/>
</g>
<!-- aws&#45;c&#45;auth -->
<g id="node6" class="node">
<title>aws&#45;c&#45;auth</title>
<g id="a_node6"><a xlink:href="https://github.com/conda-forge/aws-c-auth-feedstock" xlink:title="aws c auth">
<ellipse fill="#fde725" stroke="black" cx="189.73" cy="-306" rx="64.89" ry="18"/>
<text xml:space="preserve" text-anchor="middle" x="189.73" y="-301.32" font-family="Times,serif" font-size="14.00">aws c auth</text>
</a>
</g>
</g>
<!-- aws&#45;c&#45;io&#45;&gt;aws&#45;c&#45;auth -->
<g id="edge4" class="edge">
<title>aws&#45;c&#45;io&#45;&gt;aws&#45;c&#45;auth</title>
<path fill="none" stroke="black" d="M250.64,-433.71C235.83,-424.69 219,-411.91 208.73,-396 197.13,-378.03 192.49,-354.19 190.68,-335.7"/>
<polygon fill="black" stroke="black" points="194.19,-335.67 189.98,-325.95 187.21,-336.18 194.19,-335.67"/>
</g>
<!-- aws&#45;crt&#45;cpp -->
<g id="node7" class="node">
<title>aws&#45;crt&#45;cpp</title>
<g id="a_node7"><a xlink:href="https://github.com/conda-forge/aws-crt-cpp-feedstock" xlink:title="aws crt cpp">
<ellipse fill="#fde725" stroke="black" cx="121.73" cy="-162" rx="69.1" ry="18"/>
<text xml:space="preserve" text-anchor="middle" x="121.73" y="-157.32" font-family="Times,serif" font-size="14.00">aws crt cpp</text>
</a>
</g>
</g>
<!-- aws&#45;c&#45;io&#45;&gt;aws&#45;crt&#45;cpp -->
<g id="edge5" class="edge">
<title>aws&#45;c&#45;io&#45;&gt;aws&#45;crt&#45;cpp</title>
<path fill="none" stroke="black" d="M240.92,-435.32C196.27,-417.55 126.26,-381.77 96.73,-324 74.88,-281.25 83.52,-262.68 94.73,-216 96.88,-207.06 100.79,-197.93 104.99,-189.83"/>
<polygon fill="black" stroke="black" points="108,-191.62 109.81,-181.18 101.88,-188.21 108,-191.62"/>
</g>
<!-- aws&#45;c&#45;s3 -->
<g id="node8" class="node">
<title>aws&#45;c&#45;s3</title>
<g id="a_node8"><a xlink:href="https://github.com/conda-forge/aws-c-s3-feedstock" xlink:title="aws c s3">
<ellipse fill="#fde725" stroke="black" cx="254.73" cy="-234" rx="53.84" ry="18"/>
<text xml:space="preserve" text-anchor="middle" x="254.73" y="-229.32" font-family="Times,serif" font-size="14.00">aws c s3</text>
</a>
</g>
</g>
<!-- aws&#45;c&#45;io&#45;&gt;aws&#45;c&#45;s3 -->
<g id="edge6" class="edge">
<title>aws&#45;c&#45;io&#45;&gt;aws&#45;c&#45;s3</title>
<path fill="none" stroke="black" d="M313.36,-433.87C328.25,-425.09 344.4,-412.48 352.73,-396 359.95,-381.72 357.95,-375.12 352.73,-360 338.78,-319.61 305.81,-282.31 281.96,-259.17"/>
<polygon fill="black" stroke="black" points="284.41,-256.66 274.73,-252.34 279.6,-261.75 284.41,-256.66"/>
</g>
<!-- awscrt -->
<g id="node9" class="node">
<title>awscrt</title>
<g id="a_node9"><a xlink:href="https://github.com/conda-forge/awscrt-feedstock" xlink:title="awscrt">
<ellipse fill="#fde725" stroke="black" cx="266.73" cy="-162" rx="44.9" ry="18"/>
<text xml:space="preserve" text-anchor="middle" x="266.73" y="-157.32" font-family="Times,serif" font-size="14.00">awscrt</text>
</a>
</g>
</g>
<!-- aws&#45;c&#45;io&#45;&gt;awscrt -->
<g id="edge7" class="edge">
<title>aws&#45;c&#45;io&#45;&gt;awscrt</title>
<path fill="none" stroke="black" d="M320.85,-435.37C338.87,-427.01 358.38,-414.32 368.73,-396 376.6,-382.07 370.58,-375.89 368.73,-360 361.12,-294.68 370.23,-271.35 334.73,-216 326.5,-203.18 314.07,-192.17 302.07,-183.57"/>
<polygon fill="black" stroke="black" points="304.14,-180.73 293.89,-178.04 300.22,-186.53 304.14,-180.73"/>
</g>
<!-- aws&#45;c&#45;http&#45;&gt;aws&#45;c&#45;auth -->
<g id="edge8" class="edge">
<title>aws&#45;c&#45;http&#45;&gt;aws&#45;c&#45;auth</title>
<path fill="none" stroke="black" d="M259.62,-360.76C247.88,-351.73 233.05,-340.33 220.08,-330.35"/>
<polygon fill="black" stroke="black" points="222.3,-327.64 212.24,-324.31 218.03,-333.18 222.3,-327.64"/>
</g>
<!-- aws&#45;c&#45;http&#45;&gt;aws&#45;crt&#45;cpp -->
<g id="edge9" class="edge">
<title>aws&#45;c&#45;http&#45;&gt;aws&#45;crt&#45;cpp</title>
<path fill="none" stroke="black" d="M218.57,-374.33C182.27,-369.18 139.13,-356.09 115.73,-324 87.38,-285.11 99.85,-225.78 111.07,-191.04"/>
<polygon fill="black" stroke="black" points="114.34,-192.29 114.28,-181.7 107.72,-190.02 114.34,-192.29"/>
</g>
<!-- aws&#45;c&#45;http&#45;&gt;aws&#45;c&#45;s3 -->
<g id="edge10" class="edge">
<title>aws&#45;c&#45;http&#45;&gt;aws&#45;c&#45;s3</title>
<path fill="none" stroke="black" d="M277.54,-359.59C273.15,-335.61 265.19,-292.14 259.93,-263.42"/>
<polygon fill="black" stroke="black" points="263.38,-262.81 258.14,-253.6 256.49,-264.07 263.38,-262.81"/>
</g>
<!-- aws&#45;c&#45;http&#45;&gt;awscrt -->
<g id="edge11" class="edge">
<title>aws&#45;c&#45;http&#45;&gt;awscrt</title>
<path fill="none" stroke="black" d="M291.17,-360.02C308.17,-330.07 337.99,-266.28 317.73,-216 313.14,-204.6 304.79,-194.28 296.16,-185.84"/>
<polygon fill="black" stroke="black" points="298.79,-183.5 289.03,-179.37 294.08,-188.68 298.79,-183.5"/>
</g>
<!-- aws&#45;c&#45;auth&#45;&gt;aws&#45;crt&#45;cpp -->
<g id="edge12" class="edge">
<title>aws&#45;c&#45;auth&#45;&gt;aws&#45;crt&#45;cpp</title>
<path fill="none" stroke="black" d="M179.08,-288.14C172.8,-277.88 164.9,-264.41 158.73,-252 148.78,-232 139.14,-208.65 132.2,-190.88"/>
<polygon fill="black" stroke="black" points="135.55,-189.85 128.69,-181.78 129.02,-192.37 135.55,-189.85"/>
</g>
<!-- aws&#45;c&#45;auth&#45;&gt;aws&#45;c&#45;s3 -->
<g id="edge13" class="edge">
<title>aws&#45;c&#45;auth&#45;&gt;aws&#45;c&#45;s3</title>
<path fill="none" stroke="black" d="M205.46,-288.05C213.4,-279.5 223.18,-268.97 231.93,-259.56"/>
<polygon fill="black" stroke="black" points="234.32,-262.13 238.56,-252.42 229.19,-257.36 234.32,-262.13"/>
</g>
<!-- aws&#45;c&#45;auth&#45;&gt;awscrt -->
<g id="edge14" class="edge">
<title>aws&#45;c&#45;auth&#45;&gt;awscrt</title>
<path fill="none" stroke="black" d="M185.77,-287.79C182.38,-268.98 179.75,-238.51 191.73,-216 199.51,-201.39 213.31,-189.91 226.97,-181.43"/>
<polygon fill="black" stroke="black" points="228.56,-184.55 235.49,-176.54 225.08,-178.48 228.56,-184.55"/>
</g>
<!-- aws&#45;crt&#45;cpp&#45;&gt;arrow&#45;cpp -->
<g id="edge15" class="edge">
<title>aws&#45;crt&#45;cpp&#45;&gt;arrow&#45;cpp</title>
<path fill="none" stroke="black" d="M84.72,-146.61C68.11,-138.07 50.16,-125.44 40.73,-108 30.31,-88.74 37.22,-64.4 45.8,-46.04"/>
<polygon fill="black" stroke="black" points="48.81,-47.85 50.24,-37.36 42.58,-44.67 48.81,-47.85"/>
</g>
<!-- aws&#45;crt&#45;cpp&#45;&gt;tiledb -->
<g id="edge16" class="edge">
<title>aws&#45;crt&#45;cpp&#45;&gt;tiledb</title>
<path fill="none" stroke="black" d="M158.74,-146.61C175.35,-138.07 193.3,-125.44 202.73,-108 212.68,-89.6 211.83,-65.78 208.82,-47.41"/>
<polygon fill="black" stroke="black" points="212.27,-46.86 206.91,-37.73 205.41,-48.21 212.27,-46.86"/>
</g>
<!-- aws&#45;crt&#45;cpp&#45;&gt;aws&#45;sdk&#45;cpp -->
<g id="edge17" class="edge">
<title>aws&#45;crt&#45;cpp&#45;&gt;aws&#45;sdk&#45;cpp</title>
<path fill="none" stroke="black" d="M121.73,-143.7C121.73,-136.41 121.73,-127.73 121.73,-119.54"/>
<polygon fill="black" stroke="black" points="125.23,-119.62 121.73,-109.62 118.23,-119.62 125.23,-119.62"/>
</g>
<!-- aws&#45;c&#45;s3&#45;&gt;aws&#45;crt&#45;cpp -->
<g id="edge18" class="edge">
<title>aws&#45;c&#45;s3&#45;&gt;aws&#45;crt&#45;cpp</title>
<path fill="none" stroke="black" d="M226.85,-218.33C207.87,-208.33 182.46,-194.96 161.38,-183.87"/>
<polygon fill="black" stroke="black" points="163.24,-180.89 152.76,-179.33 159.98,-187.09 163.24,-180.89"/>
</g>
<!-- aws&#45;c&#45;s3&#45;&gt;awscrt -->
<g id="edge19" class="edge">
<title>aws&#45;c&#45;s3&#45;&gt;awscrt</title>
<path fill="none" stroke="black" d="M257.7,-215.7C258.96,-208.32 260.47,-199.52 261.89,-191.25"/>
<polygon fill="black" stroke="black" points="265.3,-192.04 263.54,-181.6 258.4,-190.86 265.3,-192.04"/>
</g>
</g>
</svg>
