<?xml version="1.0" encoding="UTF-8" standalone="no"?>
<!DOCTYPE svg PUBLIC "-//W3C//DTD SVG 1.1//EN"
 "http://www.w3.org/Graphics/SVG/1.1/DTD/svg11.dtd">
<!-- Generated by graphviz version 12.0.0 (20240803.0821)
 -->
<!-- Pages: 1 -->
<svg width="257pt" height="188pt"
 viewBox="0.00 0.00 257.15 188.00" xmlns="http://www.w3.org/2000/svg" xmlns:xlink="http://www.w3.org/1999/xlink">
<g id="graph0" class="graph" transform="scale(1 1) rotate(0) translate(4 184)">
<polygon fill="white" stroke="none" points="-4,4 -4,-184 253.15,-184 253.15,4 -4,4"/>
<!-- aws&#45;sdk&#45;cpp -->
<g id="node1" class="node">
<title>aws&#45;sdk&#45;cpp</title>
<g id="a_node1"><a xlink:href="https://github.com/conda-forge/aws-sdk-cpp-feedstock" xlink:title="aws sdk cpp">
<ellipse fill="#fde725" stroke="black" cx="72.25" cy="-18" rx="72.25" ry="18"/>
<text text-anchor="middle" x="72.25" y="-13.32" font-family="Times,serif" font-size="14.00">aws sdk cpp</text>
</a>
</g>
</g>
<!-- aws&#45;crt&#45;cpp -->
<g id="node2" class="node">
<title>aws&#45;crt&#45;cpp</title>
<g id="a_node2"><a xlink:href="https://github.com/conda-forge/aws-crt-cpp-feedstock" xlink:title="aws crt cpp">
<ellipse fill="#fde725" stroke="black" cx="72.25" cy="-90" rx="69.1" ry="18"/>
<text text-anchor="middle" x="72.25" y="-85.33" font-family="Times,serif" font-size="14.00">aws crt cpp</text>
</a>
</g>
</g>
<!-- aws&#45;crt&#45;cpp&#45;&gt;aws&#45;sdk&#45;cpp -->
<g id="edge1" class="edge">
<title>aws&#45;crt&#45;cpp&#45;&gt;aws&#45;sdk&#45;cpp</title>
<path fill="none" stroke="black" d="M72.25,-71.7C72.25,-64.41 72.25,-55.73 72.25,-47.54"/>
<polygon fill="black" stroke="black" points="75.75,-47.62 72.25,-37.62 68.75,-47.62 75.75,-47.62"/>
</g>
<!-- aws&#45;c&#45;s3 -->
<g id="node3" class="node">
<title>aws&#45;c&#45;s3</title>
<g id="a_node3"><a xlink:href="https://github.com/conda-forge/aws-c-s3-feedstock/pull/358" xlink:title="aws c s3 ❎">
<ellipse fill="#31688e" stroke="black" cx="138.25" cy="-162" rx="69.1" ry="18"/>
<text text-anchor="middle" x="138.25" y="-157.32" font-family="Times,serif" font-size="14.00" fill="white">aws c s3 ❎</text>
</a>
</g>
</g>
<!-- aws&#45;c&#45;s3&#45;&gt;aws&#45;crt&#45;cpp -->
<g id="edge2" class="edge">
<title>aws&#45;c&#45;s3&#45;&gt;aws&#45;crt&#45;cpp</title>
<path fill="none" stroke="black" d="M122.28,-144.05C114.33,-135.63 104.57,-125.28 95.79,-115.97"/>
<polygon fill="black" stroke="black" points="98.53,-113.77 89.12,-108.89 93.43,-118.57 98.53,-113.77"/>
</g>
<!-- awscrt -->
<g id="node4" class="node">
<title>awscrt</title>
<g id="a_node4"><a xlink:href="https://github.com/conda-forge/awscrt-feedstock" xlink:title="awscrt">
<ellipse fill="#fde725" stroke="black" cx="204.25" cy="-90" rx="44.89" ry="18"/>
<text text-anchor="middle" x="204.25" y="-85.33" font-family="Times,serif" font-size="14.00">awscrt</text>
</a>
</g>
</g>
<!-- aws&#45;c&#45;s3&#45;&gt;awscrt -->
<g id="edge3" class="edge">
<title>aws&#45;c&#45;s3&#45;&gt;awscrt</title>
<path fill="none" stroke="black" d="M154.23,-144.05C162.29,-135.5 172.22,-124.97 181.1,-115.56"/>
<polygon fill="black" stroke="black" points="183.53,-118.09 187.84,-108.41 178.43,-113.28 183.53,-118.09"/>
</g>
</g>
</svg>
