<?xml version="1.0" encoding="UTF-8" standalone="no"?>
<!DOCTYPE svg PUBLIC "-//W3C//DTD SVG 1.1//EN"
 "http://www.w3.org/Graphics/SVG/1.1/DTD/svg11.dtd">
<!-- Generated by graphviz version 12.2.1 (20250203.1708)
 -->
<!-- Pages: 1 -->
<svg width="771pt" height="260pt"
 viewBox="0.00 0.00 770.75 260.00" xmlns="http://www.w3.org/2000/svg" xmlns:xlink="http://www.w3.org/1999/xlink">
<g id="graph0" class="graph" transform="scale(1 1) rotate(0) translate(4 256)">
<polygon fill="white" stroke="none" points="-4,4 -4,-256 766.75,-256 766.75,4 -4,4"/>
<!-- arrow&#45;cpp -->
<g id="node1" class="node">
<title>arrow&#45;cpp</title>
<g id="a_node1"><a xlink:href="https://github.com/conda-forge/arrow-cpp-feedstock" xlink:title="arrow cpp">
<ellipse fill="#fde725" stroke="black" cx="329.48" cy="-18" rx="61.73" ry="18"/>
<text text-anchor="middle" x="329.48" y="-13.32" font-family="Times,serif" font-size="14.00">arrow cpp</text>
</a>
</g>
</g>
<!-- tiledb -->
<g id="node2" class="node">
<title>tiledb</title>
<g id="a_node2"><a xlink:href="https://github.com/conda-forge/tiledb-feedstock" xlink:title="tiledb">
<ellipse fill="#fde725" stroke="black" cx="175.48" cy="-18" rx="40.16" ry="18"/>
<text text-anchor="middle" x="175.48" y="-13.32" font-family="Times,serif" font-size="14.00">tiledb</text>
</a>
</g>
</g>
<!-- aws&#45;sdk&#45;cpp -->
<g id="node3" class="node">
<title>aws&#45;sdk&#45;cpp</title>
<g id="a_node3"><a xlink:href="https://github.com/conda-forge/aws-sdk-cpp-feedstock" xlink:title="aws sdk cpp">
<ellipse fill="#fde725" stroke="black" cx="260.48" cy="-90" rx="72.25" ry="18"/>
<text text-anchor="middle" x="260.48" y="-85.33" font-family="Times,serif" font-size="14.00">aws sdk cpp</text>
</a>
</g>
</g>
<!-- aws&#45;sdk&#45;cpp&#45;&gt;arrow&#45;cpp -->
<g id="edge1" class="edge">
<title>aws&#45;sdk&#45;cpp&#45;&gt;arrow&#45;cpp</title>
<path fill="none" stroke="black" d="M277.18,-72.05C285.49,-63.63 295.69,-53.28 304.87,-43.97"/>
<polygon fill="black" stroke="black" points="307.34,-46.45 311.86,-36.87 302.35,-41.53 307.34,-46.45"/>
</g>
<!-- aws&#45;sdk&#45;cpp&#45;&gt;tiledb -->
<g id="edge2" class="edge">
<title>aws&#45;sdk&#45;cpp&#45;&gt;tiledb</title>
<path fill="none" stroke="black" d="M240.33,-72.41C229.14,-63.2 215.07,-51.6 202.89,-41.57"/>
<polygon fill="black" stroke="black" points="205.14,-38.89 195.19,-35.24 200.69,-44.29 205.14,-38.89"/>
</g>
<!-- aws&#45;c&#45;event&#45;stream -->
<g id="node4" class="node">
<title>aws&#45;c&#45;event&#45;stream</title>
<g id="a_node4"><a xlink:href="https://github.com/conda-forge/aws-c-event-stream-feedstock" xlink:title="aws c event stream">
<ellipse fill="#fde725" stroke="black" cx="637.48" cy="-162" rx="108.55" ry="18"/>
<text text-anchor="middle" x="637.48" y="-157.32" font-family="Times,serif" font-size="14.00">aws c event stream</text>
</a>
</g>
</g>
<!-- aws&#45;c&#45;event&#45;stream&#45;&gt;arrow&#45;cpp -->
<g id="edge3" class="edge">
<title>aws&#45;c&#45;event&#45;stream&#45;&gt;arrow&#45;cpp</title>
<path fill="none" stroke="black" d="M629.63,-143.63C619.45,-123.18 599.73,-89.75 572.48,-72 521.69,-38.91 453.53,-26.18 402.32,-21.42"/>
<polygon fill="black" stroke="black" points="402.77,-17.95 392.52,-20.6 402.19,-24.92 402.77,-17.95"/>
</g>
<!-- aws&#45;c&#45;event&#45;stream&#45;&gt;tiledb -->
<g id="edge4" class="edge">
<title>aws&#45;c&#45;event&#45;stream&#45;&gt;tiledb</title>
<path fill="none" stroke="black" d="M616.62,-143.96C585.69,-118.75 530.7,-74.23 525.48,-72 415.32,-25.07 376.53,-56.02 258.48,-36 246.61,-33.99 233.84,-31.52 221.97,-29.1"/>
<polygon fill="black" stroke="black" points="222.9,-25.72 212.4,-27.12 221.48,-32.58 222.9,-25.72"/>
</g>
<!-- aws&#45;c&#45;event&#45;stream&#45;&gt;aws&#45;sdk&#45;cpp -->
<g id="edge5" class="edge">
<title>aws&#45;c&#45;event&#45;stream&#45;&gt;aws&#45;sdk&#45;cpp</title>
<path fill="none" stroke="black" d="M567.01,-147.92C498.57,-135.21 395.4,-116.05 327.99,-103.53"/>
<polygon fill="black" stroke="black" points="329.03,-100.17 318.56,-101.78 327.75,-107.05 329.03,-100.17"/>
</g>
<!-- awscrt -->
<g id="node5" class="node">
<title>awscrt</title>
<g id="a_node5"><a xlink:href="https://github.com/conda-forge/awscrt-feedstock" xlink:title="awscrt">
<ellipse fill="#fde725" stroke="black" cx="471.48" cy="-90" rx="44.9" ry="18"/>
<text text-anchor="middle" x="471.48" y="-85.33" font-family="Times,serif" font-size="14.00">awscrt</text>
</a>
</g>
</g>
<!-- aws&#45;c&#45;event&#45;stream&#45;&gt;awscrt -->
<g id="edge6" class="edge">
<title>aws&#45;c&#45;event&#45;stream&#45;&gt;awscrt</title>
<path fill="none" stroke="black" d="M598.98,-144.76C572.96,-133.8 538.67,-119.34 512.21,-108.18"/>
<polygon fill="black" stroke="black" points="513.72,-105.02 503.15,-104.36 511,-111.47 513.72,-105.02"/>
</g>
<!-- aws&#45;c&#45;io -->
<g id="node6" class="node">
<title>aws&#45;c&#45;io</title>
<g id="a_node6"><a xlink:href="https://github.com/conda-forge/aws-c-io-feedstock" xlink:title="aws c io">
<ellipse fill="#35b779" stroke="black" cx="368.48" cy="-234" rx="51.21" ry="18"/>
<text text-anchor="middle" x="368.48" y="-229.32" font-family="Times,serif" font-size="14.00">aws c io</text>
</a>
</g>
</g>
<!-- aws&#45;c&#45;io&#45;&gt;arrow&#45;cpp -->
<g id="edge7" class="edge">
<title>aws&#45;c&#45;io&#45;&gt;arrow&#45;cpp</title>
<path fill="none" stroke="black" d="M420.18,-233.91C515.37,-234.37 712.57,-229.19 755.48,-180 765.99,-167.94 764.02,-157.53 755.48,-144 716.89,-82.85 506.07,-44.2 396.18,-27.91"/>
<polygon fill="black" stroke="black" points="396.8,-24.46 386.4,-26.48 395.79,-31.39 396.8,-24.46"/>
</g>
<!-- aws&#45;c&#45;io&#45;&gt;tiledb -->
<g id="edge8" class="edge">
<title>aws&#45;c&#45;io&#45;&gt;tiledb</title>
<path fill="none" stroke="black" d="M324.12,-224.64C256.71,-211.73 135.6,-187.63 129.48,-180 97.21,-139.8 131.72,-78.04 155.97,-43.88"/>
<polygon fill="black" stroke="black" points="158.49,-46.37 161.58,-36.24 152.84,-42.23 158.49,-46.37"/>
</g>
<!-- aws&#45;c&#45;io&#45;&gt;aws&#45;sdk&#45;cpp -->
<g id="edge9" class="edge">
<title>aws&#45;c&#45;io&#45;&gt;aws&#45;sdk&#45;cpp</title>
<path fill="none" stroke="black" d="M340.3,-218.64C324.66,-209.43 305.91,-196.18 293.48,-180 279.74,-162.12 271.26,-137.93 266.34,-119.28"/>
<polygon fill="black" stroke="black" points="269.77,-118.59 264.02,-109.69 262.97,-120.24 269.77,-118.59"/>
</g>
<!-- aws&#45;c&#45;io&#45;&gt;aws&#45;c&#45;event&#45;stream -->
<g id="edge10" class="edge">
<title>aws&#45;c&#45;io&#45;&gt;aws&#45;c&#45;event&#45;stream</title>
<path fill="none" stroke="black" d="M408.75,-222.52C451.35,-211.43 519.3,-193.75 570.09,-180.54"/>
<polygon fill="black" stroke="black" points="570.71,-183.99 579.51,-178.08 568.95,-177.22 570.71,-183.99"/>
</g>
<!-- aws&#45;c&#45;io&#45;&gt;awscrt -->
<g id="edge11" class="edge">
<title>aws&#45;c&#45;io&#45;&gt;awscrt</title>
<path fill="none" stroke="black" d="M411.32,-223.69C434.91,-216.15 462.23,-202.87 476.48,-180 487.68,-162.03 485.48,-137.85 481,-119.22"/>
<polygon fill="black" stroke="black" points="484.39,-118.34 478.34,-109.64 477.64,-120.21 484.39,-118.34"/>
</g>
<!-- aws&#45;c&#45;mqtt -->
<g id="node7" class="node">
<title>aws&#45;c&#45;mqtt</title>
<g id="a_node7"><a xlink:href="https://github.com/conda-forge/aws-c-mqtt-feedstock" xlink:title="aws c mqtt">
<ellipse fill="#fde725" stroke="black" cx="368.48" cy="-162" rx="66.47" ry="18"/>
<text text-anchor="middle" x="368.48" y="-157.32" font-family="Times,serif" font-size="14.00">aws c mqtt</text>
</a>
</g>
</g>
<!-- aws&#45;c&#45;io&#45;&gt;aws&#45;c&#45;mqtt -->
<g id="edge12" class="edge">
<title>aws&#45;c&#45;io&#45;&gt;aws&#45;c&#45;mqtt</title>
<path fill="none" stroke="black" d="M368.48,-215.7C368.48,-208.41 368.48,-199.73 368.48,-191.54"/>
<polygon fill="black" stroke="black" points="371.98,-191.62 368.48,-181.62 364.98,-191.62 371.98,-191.62"/>
</g>
<!-- aws&#45;c&#45;s3 -->
<g id="node8" class="node">
<title>aws&#45;c&#45;s3</title>
<g id="a_node8"><a xlink:href="https://github.com/conda-forge/aws-c-s3-feedstock" xlink:title="aws c s3">
<ellipse fill="#fde725" stroke="black" cx="192.48" cy="-162" rx="53.84" ry="18"/>
<text text-anchor="middle" x="192.48" y="-157.32" font-family="Times,serif" font-size="14.00">aws c s3</text>
</a>
</g>
</g>
<!-- aws&#45;c&#45;io&#45;&gt;aws&#45;c&#45;s3 -->
<g id="edge13" class="edge">
<title>aws&#45;c&#45;io&#45;&gt;aws&#45;c&#45;s3</title>
<path fill="none" stroke="black" d="M335.37,-219.83C307.49,-208.74 267.37,-192.79 236.74,-180.6"/>
<polygon fill="black" stroke="black" points="238.32,-177.47 227.74,-177.02 235.74,-183.97 238.32,-177.47"/>
</g>
<!-- aws&#45;c&#45;mqtt&#45;&gt;arrow&#45;cpp -->
<g id="edge14" class="edge">
<title>aws&#45;c&#45;mqtt&#45;&gt;arrow&#45;cpp</title>
<path fill="none" stroke="black" d="M373.72,-143.68C378.37,-125.3 383.18,-95.7 374.48,-72 370.69,-61.68 363.9,-52 356.73,-43.8"/>
<polygon fill="black" stroke="black" points="359.37,-41.5 349.95,-36.64 354.28,-46.31 359.37,-41.5"/>
</g>
<!-- aws&#45;c&#45;mqtt&#45;&gt;tiledb -->
<g id="edge15" class="edge">
<title>aws&#45;c&#45;mqtt&#45;&gt;tiledb</title>
<path fill="none" stroke="black" d="M367.85,-143.53C366.2,-123.61 360.52,-91.32 341.48,-72 324.71,-54.99 265.48,-38.8 222.54,-28.89"/>
<polygon fill="black" stroke="black" points="223.47,-25.51 212.94,-26.72 221.93,-32.34 223.47,-25.51"/>
</g>
<!-- aws&#45;c&#45;mqtt&#45;&gt;aws&#45;sdk&#45;cpp -->
<g id="edge16" class="edge">
<title>aws&#45;c&#45;mqtt&#45;&gt;aws&#45;sdk&#45;cpp</title>
<path fill="none" stroke="black" d="M343.7,-144.94C329.26,-135.58 310.83,-123.64 294.98,-113.37"/>
<polygon fill="black" stroke="black" points="297.08,-110.55 286.78,-108.05 293.27,-116.43 297.08,-110.55"/>
</g>
<!-- aws&#45;c&#45;mqtt&#45;&gt;awscrt -->
<g id="edge17" class="edge">
<title>aws&#45;c&#45;mqtt&#45;&gt;awscrt</title>
<path fill="none" stroke="black" d="M392.37,-144.76C406.64,-135.07 424.93,-122.64 440.32,-112.17"/>
<polygon fill="black" stroke="black" points="441.92,-115.32 448.22,-106.8 437.99,-109.53 441.92,-115.32"/>
</g>
<!-- aws&#45;c&#45;s3&#45;&gt;arrow&#45;cpp -->
<g id="edge18" class="edge">
<title>aws&#45;c&#45;s3&#45;&gt;arrow&#45;cpp</title>
<path fill="none" stroke="black" d="M183.4,-143.93C174.54,-124.68 164.42,-93.29 179.48,-72 197.72,-46.21 229.61,-32.88 259.3,-26.03"/>
<polygon fill="black" stroke="black" points="259.98,-29.47 269.06,-24.02 258.56,-22.61 259.98,-29.47"/>
</g>
<!-- aws&#45;c&#45;s3&#45;&gt;tiledb -->
<g id="edge19" class="edge">
<title>aws&#45;c&#45;s3&#45;&gt;tiledb</title>
<path fill="none" stroke="black" d="M173.09,-145C163.07,-135.45 151.85,-122.38 146.48,-108 138.68,-87.13 147.55,-63.09 157.47,-45.26"/>
<polygon fill="black" stroke="black" points="160.38,-47.22 162.54,-36.84 154.38,-43.61 160.38,-47.22"/>
</g>
<!-- aws&#45;c&#45;s3&#45;&gt;aws&#45;sdk&#45;cpp -->
<g id="edge20" class="edge">
<title>aws&#45;c&#45;s3&#45;&gt;aws&#45;sdk&#45;cpp</title>
<path fill="none" stroke="black" d="M208.59,-144.41C216.77,-135.99 226.88,-125.58 236,-116.2"/>
<polygon fill="black" stroke="black" points="238.49,-118.65 242.95,-109.04 233.47,-113.78 238.49,-118.65"/>
</g>
<!-- aws&#45;c&#45;s3&#45;&gt;awscrt -->
<g id="edge21" class="edge">
<title>aws&#45;c&#45;s3&#45;&gt;awscrt</title>
<path fill="none" stroke="black" d="M234.55,-150.44C285.14,-137.75 369.89,-116.49 423.13,-103.13"/>
<polygon fill="black" stroke="black" points="423.67,-106.6 432.52,-100.77 421.97,-99.81 423.67,-106.6"/>
</g>
<!-- aws&#45;c&#45;compression -->
<g id="node9" class="node">
<title>aws&#45;c&#45;compression</title>
<g id="a_node9"><a xlink:href="https://github.com/conda-forge/aws-c-compression-feedstock/pull/80" xlink:title="aws c compression ❎">
<ellipse fill="#31688e" stroke="black" cx="144.48" cy="-234" rx="120.65" ry="18"/>
<text text-anchor="middle" x="144.48" y="-229.32" font-family="Times,serif" font-size="14.00" fill="white">aws c compression ❎</text>
</a>
</g>
</g>
<!-- aws&#45;c&#45;compression&#45;&gt;arrow&#45;cpp -->
<g id="edge22" class="edge">
<title>aws&#45;c&#45;compression&#45;&gt;arrow&#45;cpp</title>
<path fill="none" stroke="black" d="M133.43,-215.61C127.74,-205.62 121.4,-192.58 118.48,-180 114.86,-164.41 113.77,-159.29 118.48,-144 129.87,-107.01 136.54,-95.26 167.48,-72 195.93,-50.6 233.42,-37.61 265.17,-29.85"/>
<polygon fill="black" stroke="black" points="265.71,-33.32 274.66,-27.66 264.13,-26.5 265.71,-33.32"/>
</g>
<!-- aws&#45;c&#45;compression&#45;&gt;tiledb -->
<g id="edge23" class="edge">
<title>aws&#45;c&#45;compression&#45;&gt;tiledb</title>
<path fill="none" stroke="black" d="M74.87,-218.99C53.82,-211.15 32.99,-198.95 20.48,-180 -5.97,-139.94 -7.44,-111.05 20.48,-72 43.83,-39.33 88.59,-26.58 124.02,-21.71"/>
<polygon fill="black" stroke="black" points="124.14,-25.22 133.66,-20.56 123.32,-18.27 124.14,-25.22"/>
</g>
<!-- aws&#45;c&#45;compression&#45;&gt;aws&#45;sdk&#45;cpp -->
<g id="edge24" class="edge">
<title>aws&#45;c&#45;compression&#45;&gt;aws&#45;sdk&#45;cpp</title>
<path fill="none" stroke="black" d="M134.83,-215.73C125.56,-196.59 114.94,-165.57 129.48,-144 143.15,-123.72 166.05,-111.19 188.9,-103.46"/>
<polygon fill="black" stroke="black" points="189.75,-106.86 198.28,-100.58 187.69,-100.17 189.75,-106.86"/>
</g>
<!-- aws&#45;c&#45;compression&#45;&gt;awscrt -->
<g id="edge25" class="edge">
<title>aws&#45;c&#45;compression&#45;&gt;awscrt</title>
<path fill="none" stroke="black" d="M235.11,-221.74C317.25,-210.76 427.81,-193.76 443.48,-180 460.69,-164.88 467.43,-139.3 470.01,-119.43"/>
<polygon fill="black" stroke="black" points="473.47,-120.03 470.98,-109.74 466.51,-119.34 473.47,-120.03"/>
</g>
<!-- aws&#45;c&#45;compression&#45;&gt;aws&#45;c&#45;mqtt -->
<g id="edge26" class="edge">
<title>aws&#45;c&#45;compression&#45;&gt;aws&#45;c&#45;mqtt</title>
<path fill="none" stroke="black" d="M195.03,-217.2C230.81,-206.02 278.71,-191.05 315.11,-179.68"/>
<polygon fill="black" stroke="black" points="316.07,-183.05 324.57,-176.72 313.98,-176.36 316.07,-183.05"/>
</g>
<!-- aws&#45;c&#45;compression&#45;&gt;aws&#45;c&#45;s3 -->
<g id="edge27" class="edge">
<title>aws&#45;c&#45;compression&#45;&gt;aws&#45;c&#45;s3</title>
<path fill="none" stroke="black" d="M156.34,-215.7C161.89,-207.61 168.61,-197.81 174.74,-188.87"/>
<polygon fill="black" stroke="black" points="177.45,-191.1 180.22,-180.87 171.68,-187.14 177.45,-191.1"/>
</g>
</g>
</svg>
