<?xml version="1.0" encoding="UTF-8" standalone="no"?>
<!DOCTYPE svg PUBLIC "-//W3C//DTD SVG 1.1//EN"
 "http://www.w3.org/Graphics/SVG/1.1/DTD/svg11.dtd">
<!-- Generated by graphviz version 12.0.0 (20240803.0821)
 -->
<!-- Pages: 1 -->
<svg width="254pt" height="260pt"
 viewBox="0.00 0.00 253.99 260.00" xmlns="http://www.w3.org/2000/svg" xmlns:xlink="http://www.w3.org/1999/xlink">
<g id="graph0" class="graph" transform="scale(1 1) rotate(0) translate(4 256)">
<polygon fill="white" stroke="none" points="-4,4 -4,-256 249.99,-256 249.99,4 -4,4"/>
<!-- aws&#45;c&#45;http -->
<g id="node1" class="node">
<title>aws&#45;c&#45;http</title>
<g id="a_node1"><a xlink:href="https://github.com/conda-forge/aws-c-http-feedstock" xlink:title="aws c http">
<ellipse fill="#35b779" stroke="black" cx="101.1" cy="-234" rx="63.31" ry="18"/>
<text text-anchor="middle" x="101.1" y="-229.32" font-family="Times,serif" font-size="14.00">aws c http</text>
</a>
</g>
</g>
<!-- aws&#45;c&#45;auth -->
<g id="node2" class="node">
<title>aws&#45;c&#45;auth</title>
<g id="a_node2"><a xlink:href="https://github.com/conda-forge/aws-c-auth-feedstock" xlink:title="aws c auth">
<ellipse fill="#fde725" stroke="black" cx="148.1" cy="-162" rx="64.89" ry="18"/>
<text text-anchor="middle" x="148.1" y="-157.32" font-family="Times,serif" font-size="14.00">aws c auth</text>
</a>
</g>
</g>
<!-- aws&#45;c&#45;http&#45;&gt;aws&#45;c&#45;auth -->
<g id="edge1" class="edge">
<title>aws&#45;c&#45;http&#45;&gt;aws&#45;c&#45;auth</title>
<path fill="none" stroke="black" d="M112.47,-216.05C117.9,-207.97 124.51,-198.12 130.56,-189.11"/>
<polygon fill="black" stroke="black" points="133.31,-191.3 135.98,-181.05 127.5,-187.4 133.31,-191.3"/>
</g>
<!-- aws&#45;crt&#45;cpp -->
<g id="node3" class="node">
<title>aws&#45;crt&#45;cpp</title>
<g id="a_node3"><a xlink:href="https://github.com/conda-forge/aws-crt-cpp-feedstock" xlink:title="aws crt cpp">
<ellipse fill="#fde725" stroke="black" cx="69.1" cy="-18" rx="69.1" ry="18"/>
<text text-anchor="middle" x="69.1" y="-13.32" font-family="Times,serif" font-size="14.00">aws crt cpp</text>
</a>
</g>
</g>
<!-- aws&#45;c&#45;http&#45;&gt;aws&#45;crt&#45;cpp -->
<g id="edge3" class="edge">
<title>aws&#45;c&#45;http&#45;&gt;aws&#45;crt&#45;cpp</title>
<path fill="none" stroke="black" d="M83.33,-216.45C60.97,-194.28 23.72,-152.55 9.1,-108 4.1,-92.8 2.52,-86.59 9.1,-72 14.39,-60.26 23.71,-50.08 33.45,-41.86"/>
<polygon fill="black" stroke="black" points="35.47,-44.72 41.21,-35.81 31.17,-39.2 35.47,-44.72"/>
</g>
<!-- aws&#45;c&#45;s3 -->
<g id="node4" class="node">
<title>aws&#45;c&#45;s3</title>
<g id="a_node4"><a xlink:href="https://github.com/conda-forge/aws-c-s3-feedstock" xlink:title="aws c s3">
<ellipse fill="#fde725" stroke="black" cx="72.1" cy="-90" rx="53.84" ry="18"/>
<text text-anchor="middle" x="72.1" y="-85.33" font-family="Times,serif" font-size="14.00">aws c s3</text>
</a>
</g>
</g>
<!-- aws&#45;c&#45;http&#45;&gt;aws&#45;c&#45;s3 -->
<g id="edge2" class="edge">
<title>aws&#45;c&#45;http&#45;&gt;aws&#45;c&#45;s3</title>
<path fill="none" stroke="black" d="M90.02,-216.11C84.08,-206.07 77.33,-192.82 74.1,-180 69.13,-160.27 68.74,-137.3 69.53,-119.64"/>
<polygon fill="black" stroke="black" points="73.01,-120.07 70.14,-109.88 66.03,-119.64 73.01,-120.07"/>
</g>
<!-- awscrt -->
<g id="node5" class="node">
<title>awscrt</title>
<g id="a_node5"><a xlink:href="https://github.com/conda-forge/awscrt-feedstock" xlink:title="awscrt">
<ellipse fill="#fde725" stroke="black" cx="201.1" cy="-18" rx="44.89" ry="18"/>
<text text-anchor="middle" x="201.1" y="-13.32" font-family="Times,serif" font-size="14.00">awscrt</text>
</a>
</g>
</g>
<!-- aws&#45;c&#45;http&#45;&gt;awscrt -->
<g id="edge4" class="edge">
<title>aws&#45;c&#45;http&#45;&gt;awscrt</title>
<path fill="none" stroke="black" d="M153.89,-223.71C179.05,-216.34 206.91,-203.23 222.1,-180 248.82,-139.12 229.75,-79.84 214.64,-45.78"/>
<polygon fill="black" stroke="black" points="217.96,-44.62 210.57,-37.03 211.61,-47.58 217.96,-44.62"/>
</g>
<!-- aws&#45;c&#45;auth&#45;&gt;aws&#45;crt&#45;cpp -->
<g id="edge6" class="edge">
<title>aws&#45;c&#45;auth&#45;&gt;aws&#45;crt&#45;cpp</title>
<path fill="none" stroke="black" d="M149.19,-143.74C149.59,-124.87 147.89,-94.36 135.1,-72 128.2,-59.94 117.39,-49.56 106.51,-41.27"/>
<polygon fill="black" stroke="black" points="108.84,-38.63 98.67,-35.67 104.78,-44.33 108.84,-38.63"/>
</g>
<!-- aws&#45;c&#45;auth&#45;&gt;aws&#45;c&#45;s3 -->
<g id="edge5" class="edge">
<title>aws&#45;c&#45;auth&#45;&gt;aws&#45;c&#45;s3</title>
<path fill="none" stroke="black" d="M130.08,-144.41C120.55,-135.63 108.67,-124.69 98.15,-115"/>
<polygon fill="black" stroke="black" points="100.56,-112.45 90.83,-108.25 95.81,-117.6 100.56,-112.45"/>
</g>
<!-- aws&#45;c&#45;auth&#45;&gt;awscrt -->
<g id="edge7" class="edge">
<title>aws&#45;c&#45;auth&#45;&gt;awscrt</title>
<path fill="none" stroke="black" d="M154.61,-143.82C158.53,-133.45 163.62,-119.97 168.1,-108 175.77,-87.49 184.37,-64.29 190.86,-46.72"/>
<polygon fill="black" stroke="black" points="194.09,-48.09 194.27,-37.49 187.52,-45.66 194.09,-48.09"/>
</g>
<!-- aws&#45;c&#45;s3&#45;&gt;aws&#45;crt&#45;cpp -->
<g id="edge8" class="edge">
<title>aws&#45;c&#45;s3&#45;&gt;aws&#45;crt&#45;cpp</title>
<path fill="none" stroke="black" d="M71.35,-71.7C71.04,-64.41 70.67,-55.73 70.32,-47.54"/>
<polygon fill="black" stroke="black" points="73.82,-47.46 69.89,-37.62 66.83,-47.76 73.82,-47.46"/>
</g>
<!-- aws&#45;c&#45;s3&#45;&gt;awscrt -->
<g id="edge9" class="edge">
<title>aws&#45;c&#45;s3&#45;&gt;awscrt</title>
<path fill="none" stroke="black" d="M99.45,-74.15C118.56,-63.79 144.26,-49.84 165.04,-38.56"/>
<polygon fill="black" stroke="black" points="166.65,-41.68 173.77,-33.83 163.31,-35.52 166.65,-41.68"/>
</g>
</g>
</svg>
