<?xml version="1.0" encoding="UTF-8" standalone="no"?>
<!DOCTYPE svg PUBLIC "-//W3C//DTD SVG 1.1//EN"
 "http://www.w3.org/Graphics/SVG/1.1/DTD/svg11.dtd">
<!-- Generated by graphviz version 13.1.2 (20250809.0930)
 -->
<!-- Pages: 1 -->
<svg width="403pt" height="332pt"
 viewBox="0.00 0.00 403.00 332.00" xmlns="http://www.w3.org/2000/svg" xmlns:xlink="http://www.w3.org/1999/xlink">
<g id="graph0" class="graph" transform="scale(1 1) rotate(0) translate(4 328)">
<polygon fill="white" stroke="none" points="-4,4 -4,-328 398.6,-328 398.6,4 -4,4"/>
<!-- arrow&#45;cpp -->
<g id="node1" class="node">
<title>arrow&#45;cpp</title>
<g id="a_node1"><a xlink:href="https://github.com/conda-forge/arrow-cpp-feedstock" xlink:title="arrow cpp">
<ellipse fill="#fde725" stroke="black" cx="158.75" cy="-18" rx="61.73" ry="18"/>
<text xml:space="preserve" text-anchor="middle" x="158.75" y="-13.32" font-family="Times,serif" font-size="14.00">arrow cpp</text>
</a>
</g>
</g>
<!-- hdf5 -->
<g id="node2" class="node">
<title>hdf5</title>
<g id="a_node2"><a xlink:href="https://github.com/conda-forge/hdf5-feedstock" xlink:title="hdf5">
<ellipse fill="#fde725" stroke="black" cx="360.75" cy="-162" rx="33.85" ry="18"/>
<text xml:space="preserve" text-anchor="middle" x="360.75" y="-157.32" font-family="Times,serif" font-size="14.00">hdf5</text>
</a>
</g>
</g>
<!-- tiledb -->
<g id="node3" class="node">
<title>tiledb</title>
<g id="a_node3"><a xlink:href="https://github.com/conda-forge/tiledb-feedstock" xlink:title="tiledb">
<ellipse fill="#fde725" stroke="black" cx="298.75" cy="-18" rx="40.16" ry="18"/>
<text xml:space="preserve" text-anchor="middle" x="298.75" y="-13.32" font-family="Times,serif" font-size="14.00">tiledb</text>
</a>
</g>
</g>
<!-- aws&#45;sdk&#45;cpp -->
<g id="node4" class="node">
<title>aws&#45;sdk&#45;cpp</title>
<g id="a_node4"><a xlink:href="https://github.com/conda-forge/aws-sdk-cpp-feedstock" xlink:title="aws sdk cpp">
<ellipse fill="#fde725" stroke="black" cx="218.75" cy="-90" rx="72.25" ry="18"/>
<text xml:space="preserve" text-anchor="middle" x="218.75" y="-85.33" font-family="Times,serif" font-size="14.00">aws sdk cpp</text>
</a>
</g>
</g>
<!-- aws&#45;sdk&#45;cpp&#45;&gt;arrow&#45;cpp -->
<g id="edge1" class="edge">
<title>aws&#45;sdk&#45;cpp&#45;&gt;arrow&#45;cpp</title>
<path fill="none" stroke="black" d="M204.23,-72.05C197.08,-63.71 188.32,-53.49 180.4,-44.25"/>
<polygon fill="black" stroke="black" points="183.3,-42.25 174.13,-36.94 177.98,-46.81 183.3,-42.25"/>
</g>
<!-- aws&#45;sdk&#45;cpp&#45;&gt;tiledb -->
<g id="edge2" class="edge">
<title>aws&#45;sdk&#45;cpp&#45;&gt;tiledb</title>
<path fill="none" stroke="black" d="M237.71,-72.41C248.07,-63.35 261.05,-51.99 272.38,-42.08"/>
<polygon fill="black" stroke="black" points="274.67,-44.73 279.89,-35.51 270.06,-39.46 274.67,-44.73"/>
</g>
<!-- aws&#45;c&#45;mqtt -->
<g id="node5" class="node">
<title>aws&#45;c&#45;mqtt</title>
<g id="a_node5"><a xlink:href="https://github.com/conda-forge/aws-c-mqtt-feedstock/pull/286" xlink:title="aws c mqtt ❎">
<ellipse fill="#31688e" stroke="black" cx="97.75" cy="-234" rx="81.72" ry="18"/>
<text xml:space="preserve" text-anchor="middle" x="97.75" y="-229.32" font-family="Times,serif" font-size="14.00" fill="white">aws c mqtt ❎</text>
</a>
</g>
</g>
<!-- aws&#45;crt&#45;cpp -->
<g id="node7" class="node">
<title>aws&#45;crt&#45;cpp</title>
<g id="a_node7"><a xlink:href="https://github.com/conda-forge/aws-crt-cpp-feedstock" xlink:title="aws crt cpp">
<ellipse fill="#fde725" stroke="black" cx="218.75" cy="-162" rx="69.1" ry="18"/>
<text xml:space="preserve" text-anchor="middle" x="218.75" y="-157.32" font-family="Times,serif" font-size="14.00">aws crt cpp</text>
</a>
</g>
</g>
<!-- aws&#45;c&#45;mqtt&#45;&gt;aws&#45;crt&#45;cpp -->
<g id="edge3" class="edge">
<title>aws&#45;c&#45;mqtt&#45;&gt;aws&#45;crt&#45;cpp</title>
<path fill="none" stroke="black" d="M125.82,-216.76C142.35,-207.2 163.48,-194.98 181.4,-184.61"/>
<polygon fill="black" stroke="black" points="183.05,-187.7 189.95,-179.66 179.54,-181.64 183.05,-187.7"/>
</g>
<!-- awscrt -->
<g id="node9" class="node">
<title>awscrt</title>
<g id="a_node9"><a xlink:href="https://github.com/conda-forge/awscrt-feedstock" xlink:title="awscrt">
<ellipse fill="#fde725" stroke="black" cx="86.75" cy="-162" rx="44.89" ry="18"/>
<text xml:space="preserve" text-anchor="middle" x="86.75" y="-157.32" font-family="Times,serif" font-size="14.00">awscrt</text>
</a>
</g>
</g>
<!-- aws&#45;c&#45;mqtt&#45;&gt;awscrt -->
<g id="edge4" class="edge">
<title>aws&#45;c&#45;mqtt&#45;&gt;awscrt</title>
<path fill="none" stroke="black" d="M95.04,-215.7C93.88,-208.32 92.49,-199.52 91.19,-191.25"/>
<polygon fill="black" stroke="black" points="94.69,-190.93 89.68,-181.6 87.77,-192.02 94.69,-190.93"/>
</g>
<!-- aws&#45;c&#45;auth -->
<g id="node6" class="node">
<title>aws&#45;c&#45;auth</title>
<g id="a_node6"><a xlink:href="https://github.com/conda-forge/aws-c-auth-feedstock" xlink:title="aws c auth">
<ellipse fill="#ff8c00" stroke="black" cx="248.75" cy="-306" rx="64.89" ry="18"/>
<text xml:space="preserve" text-anchor="middle" x="248.75" y="-301.32" font-family="Times,serif" font-size="14.00">aws c auth</text>
</a>
</g>
</g>
<!-- aws&#45;c&#45;auth&#45;&gt;hdf5 -->
<g id="edge8" class="edge">
<title>aws&#45;c&#45;auth&#45;&gt;hdf5</title>
<path fill="none" stroke="black" d="M294.62,-292.87C315.82,-284.83 339.25,-271.98 352.75,-252 364.59,-234.5 366.1,-210.44 364.91,-191.74"/>
<polygon fill="black" stroke="black" points="368.41,-191.49 363.98,-181.86 361.44,-192.15 368.41,-191.49"/>
</g>
<!-- aws&#45;c&#45;auth&#45;&gt;aws&#45;crt&#45;cpp -->
<g id="edge6" class="edge">
<title>aws&#45;c&#45;auth&#45;&gt;aws&#45;crt&#45;cpp</title>
<path fill="none" stroke="black" d="M240.04,-287.79C235.3,-277.63 229.8,-264.38 226.75,-252 221.87,-232.17 219.89,-209.21 219.13,-191.57"/>
<polygon fill="black" stroke="black" points="222.63,-191.71 218.81,-181.83 215.64,-191.94 222.63,-191.71"/>
</g>
<!-- aws&#45;c&#45;s3 -->
<g id="node8" class="node">
<title>aws&#45;c&#45;s3</title>
<g id="a_node8"><a xlink:href="https://github.com/conda-forge/aws-c-s3-feedstock" xlink:title="aws c s3">
<ellipse fill="#fde725" stroke="black" cx="289.75" cy="-234" rx="53.84" ry="18"/>
<text xml:space="preserve" text-anchor="middle" x="289.75" y="-229.32" font-family="Times,serif" font-size="14.00">aws c s3</text>
</a>
</g>
</g>
<!-- aws&#45;c&#45;auth&#45;&gt;aws&#45;c&#45;s3 -->
<g id="edge5" class="edge">
<title>aws&#45;c&#45;auth&#45;&gt;aws&#45;c&#45;s3</title>
<path fill="none" stroke="black" d="M258.68,-288.05C263.31,-280.14 268.94,-270.54 274.12,-261.69"/>
<polygon fill="black" stroke="black" points="277.12,-263.49 279.16,-253.1 271.08,-259.95 277.12,-263.49"/>
</g>
<!-- aws&#45;c&#45;auth&#45;&gt;awscrt -->
<g id="edge7" class="edge">
<title>aws&#45;c&#45;auth&#45;&gt;awscrt</title>
<path fill="none" stroke="black" d="M186.9,-300.12C122.82,-293.63 28.97,-279.6 6.75,-252 -3.28,-239.53 -0.82,-230.1 6.75,-216 15.08,-200.5 30.15,-188.76 44.99,-180.33"/>
<polygon fill="black" stroke="black" points="46.57,-183.46 53.8,-175.71 43.32,-177.26 46.57,-183.46"/>
</g>
<!-- aws&#45;crt&#45;cpp&#45;&gt;arrow&#45;cpp -->
<g id="edge9" class="edge">
<title>aws&#45;crt&#45;cpp&#45;&gt;arrow&#45;cpp</title>
<path fill="none" stroke="black" d="M181.74,-146.61C165.13,-138.07 147.19,-125.44 137.75,-108 127.34,-88.74 134.24,-64.4 142.83,-46.04"/>
<polygon fill="black" stroke="black" points="145.83,-47.85 147.27,-37.36 139.6,-44.67 145.83,-47.85"/>
</g>
<!-- aws&#45;crt&#45;cpp&#45;&gt;tiledb -->
<g id="edge11" class="edge">
<title>aws&#45;crt&#45;cpp&#45;&gt;tiledb</title>
<path fill="none" stroke="black" d="M255.77,-146.61C272.38,-138.07 290.32,-125.44 299.75,-108 309.7,-89.6 308.85,-65.78 305.84,-47.41"/>
<polygon fill="black" stroke="black" points="309.3,-46.86 303.93,-37.73 302.43,-48.21 309.3,-46.86"/>
</g>
<!-- aws&#45;crt&#45;cpp&#45;&gt;aws&#45;sdk&#45;cpp -->
<g id="edge10" class="edge">
<title>aws&#45;crt&#45;cpp&#45;&gt;aws&#45;sdk&#45;cpp</title>
<path fill="none" stroke="black" d="M218.75,-143.7C218.75,-136.41 218.75,-127.73 218.75,-119.54"/>
<polygon fill="black" stroke="black" points="222.25,-119.62 218.75,-109.62 215.25,-119.62 222.25,-119.62"/>
</g>
<!-- aws&#45;c&#45;s3&#45;&gt;hdf5 -->
<g id="edge14" class="edge">
<title>aws&#45;c&#45;s3&#45;&gt;hdf5</title>
<path fill="none" stroke="black" d="M306.58,-216.41C315.81,-207.31 327.39,-195.9 337.47,-185.96"/>
<polygon fill="black" stroke="black" points="339.76,-188.61 344.42,-179.1 334.84,-183.63 339.76,-188.61"/>
</g>
<!-- aws&#45;c&#45;s3&#45;&gt;aws&#45;crt&#45;cpp -->
<g id="edge12" class="edge">
<title>aws&#45;c&#45;s3&#45;&gt;aws&#45;crt&#45;cpp</title>
<path fill="none" stroke="black" d="M272.93,-216.41C264.17,-207.78 253.3,-197.06 243.6,-187.5"/>
<polygon fill="black" stroke="black" points="246.12,-185.06 236.54,-180.53 241.2,-190.05 246.12,-185.06"/>
</g>
<!-- aws&#45;c&#45;s3&#45;&gt;awscrt -->
<g id="edge13" class="edge">
<title>aws&#45;c&#45;s3&#45;&gt;awscrt</title>
<path fill="none" stroke="black" d="M253.46,-220.49C219.15,-208.65 167.59,-190.88 130.91,-178.23"/>
<polygon fill="black" stroke="black" points="132.07,-174.92 121.47,-174.97 129.78,-181.54 132.07,-174.92"/>
</g>
</g>
</svg>
