<?xml version="1.0" encoding="UTF-8" standalone="no"?>
<!DOCTYPE svg PUBLIC "-//W3C//DTD SVG 1.1//EN"
 "http://www.w3.org/Graphics/SVG/1.1/DTD/svg11.dtd">
<!-- Generated by graphviz version 12.2.1 (20250203.1708)
 -->
<!-- Pages: 1 -->
<svg width="909pt" height="260pt"
 viewBox="0.00 0.00 908.99 260.00" xmlns="http://www.w3.org/2000/svg" xmlns:xlink="http://www.w3.org/1999/xlink">
<g id="graph0" class="graph" transform="scale(1 1) rotate(0) translate(4 256)">
<polygon fill="white" stroke="none" points="-4,4 -4,-256 904.99,-256 904.99,4 -4,4"/>
<!-- arrow&#45;cpp -->
<g id="node1" class="node">
<title>arrow&#45;cpp</title>
<g id="a_node1"><a xlink:href="https://github.com/conda-forge/arrow-cpp-feedstock" xlink:title="arrow cpp">
<ellipse fill="#fde725" stroke="black" cx="460.27" cy="-18" rx="61.73" ry="18"/>
<text text-anchor="middle" x="460.27" y="-13.32" font-family="Times,serif" font-size="14.00">arrow cpp</text>
</a>
</g>
</g>
<!-- tiledb -->
<g id="node2" class="node">
<title>tiledb</title>
<g id="a_node2"><a xlink:href="https://github.com/conda-forge/tiledb-feedstock" xlink:title="tiledb">
<ellipse fill="#fde725" stroke="black" cx="580.27" cy="-18" rx="40.16" ry="18"/>
<text text-anchor="middle" x="580.27" y="-13.32" font-family="Times,serif" font-size="14.00">tiledb</text>
</a>
</g>
</g>
<!-- aws&#45;sdk&#45;cpp -->
<g id="node3" class="node">
<title>aws&#45;sdk&#45;cpp</title>
<g id="a_node3"><a xlink:href="https://github.com/conda-forge/aws-sdk-cpp-feedstock" xlink:title="aws sdk cpp">
<ellipse fill="#fde725" stroke="black" cx="676.27" cy="-90" rx="72.25" ry="18"/>
<text text-anchor="middle" x="676.27" y="-85.33" font-family="Times,serif" font-size="14.00">aws sdk cpp</text>
</a>
</g>
</g>
<!-- aws&#45;sdk&#45;cpp&#45;&gt;arrow&#45;cpp -->
<g id="edge1" class="edge">
<title>aws&#45;sdk&#45;cpp&#45;&gt;arrow&#45;cpp</title>
<path fill="none" stroke="black" d="M633.34,-75.09C598.18,-63.69 548.35,-47.54 511.18,-35.5"/>
<polygon fill="black" stroke="black" points="512.6,-32.28 502.01,-32.53 510.44,-38.94 512.6,-32.28"/>
</g>
<!-- aws&#45;sdk&#45;cpp&#45;&gt;tiledb -->
<g id="edge2" class="edge">
<title>aws&#45;sdk&#45;cpp&#45;&gt;tiledb</title>
<path fill="none" stroke="black" d="M654,-72.76C640.83,-63.16 623.98,-50.87 609.71,-40.47"/>
<polygon fill="black" stroke="black" points="612.14,-37.91 602,-34.84 608.02,-43.56 612.14,-37.91"/>
</g>
<!-- aws&#45;checksums -->
<g id="node4" class="node">
<title>aws&#45;checksums</title>
<g id="a_node4"><a xlink:href="https://github.com/conda-forge/aws-checksums-feedstock" xlink:title="aws checksums">
<ellipse fill="#35b779" stroke="black" cx="128.27" cy="-234" rx="88.56" ry="18"/>
<text text-anchor="middle" x="128.27" y="-229.32" font-family="Times,serif" font-size="14.00">aws checksums</text>
</a>
</g>
</g>
<!-- aws&#45;c&#45;event&#45;stream -->
<g id="node5" class="node">
<title>aws&#45;c&#45;event&#45;stream</title>
<g id="a_node5"><a xlink:href="https://github.com/conda-forge/aws-c-event-stream-feedstock" xlink:title="aws c event stream">
<ellipse fill="#fde725" stroke="black" cx="128.27" cy="-162" rx="108.55" ry="18"/>
<text text-anchor="middle" x="128.27" y="-157.32" font-family="Times,serif" font-size="14.00">aws c event stream</text>
</a>
</g>
</g>
<!-- aws&#45;checksums&#45;&gt;aws&#45;c&#45;event&#45;stream -->
<g id="edge3" class="edge">
<title>aws&#45;checksums&#45;&gt;aws&#45;c&#45;event&#45;stream</title>
<path fill="none" stroke="black" d="M128.27,-215.7C128.27,-208.41 128.27,-199.73 128.27,-191.54"/>
<polygon fill="black" stroke="black" points="131.77,-191.62 128.27,-181.62 124.77,-191.62 131.77,-191.62"/>
</g>
<!-- aws&#45;c&#45;s3 -->
<g id="node6" class="node">
<title>aws&#45;c&#45;s3</title>
<g id="a_node6"><a xlink:href="https://github.com/conda-forge/aws-c-s3-feedstock" xlink:title="aws c s3">
<ellipse fill="#fde725" stroke="black" cx="423.27" cy="-162" rx="53.84" ry="18"/>
<text text-anchor="middle" x="423.27" y="-157.32" font-family="Times,serif" font-size="14.00">aws c s3</text>
</a>
</g>
</g>
<!-- aws&#45;checksums&#45;&gt;aws&#45;c&#45;s3 -->
<g id="edge4" class="edge">
<title>aws&#45;checksums&#45;&gt;aws&#45;c&#45;s3</title>
<path fill="none" stroke="black" d="M184.45,-219.67C237.56,-207.07 316.71,-188.29 369.14,-175.85"/>
<polygon fill="black" stroke="black" points="369.83,-179.28 378.75,-173.56 368.21,-172.47 369.83,-179.28"/>
</g>
<!-- awscrt -->
<g id="node7" class="node">
<title>awscrt</title>
<g id="a_node7"><a xlink:href="https://github.com/conda-forge/awscrt-feedstock" xlink:title="awscrt">
<ellipse fill="#fde725" stroke="black" cx="341.27" cy="-90" rx="44.9" ry="18"/>
<text text-anchor="middle" x="341.27" y="-85.33" font-family="Times,serif" font-size="14.00">awscrt</text>
</a>
</g>
</g>
<!-- aws&#45;checksums&#45;&gt;awscrt -->
<g id="edge5" class="edge">
<title>aws&#45;checksums&#45;&gt;awscrt</title>
<path fill="none" stroke="black" d="M67.84,-220.43C45.87,-212.63 23.26,-200.08 10.27,-180 1.58,-166.57 -0.11,-156.18 10.27,-144 44.88,-103.41 199.66,-93.77 284.75,-91.57"/>
<polygon fill="black" stroke="black" points="284.6,-95.08 294.52,-91.35 284.44,-88.08 284.6,-95.08"/>
</g>
<!-- aws&#45;c&#45;event&#45;stream&#45;&gt;arrow&#45;cpp -->
<g id="edge6" class="edge">
<title>aws&#45;c&#45;event&#45;stream&#45;&gt;arrow&#45;cpp</title>
<path fill="none" stroke="black" d="M136.83,-143.91C148.03,-123.42 169.65,-89.63 198.27,-72 255.48,-36.77 331.78,-24.44 387.27,-20.37"/>
<polygon fill="black" stroke="black" points="387.17,-23.88 396.92,-19.74 386.72,-16.9 387.17,-23.88"/>
</g>
<!-- aws&#45;c&#45;event&#45;stream&#45;&gt;tiledb -->
<g id="edge7" class="edge">
<title>aws&#45;c&#45;event&#45;stream&#45;&gt;tiledb</title>
<path fill="none" stroke="black" d="M149.01,-144.05C177.94,-120.74 229.34,-80.69 251.27,-72 367.92,-25.8 409.13,-64.71 531.27,-36 534.03,-35.35 536.85,-34.6 539.68,-33.79"/>
<polygon fill="black" stroke="black" points="540.55,-37.19 549.05,-30.87 538.47,-30.51 540.55,-37.19"/>
</g>
<!-- aws&#45;c&#45;event&#45;stream&#45;&gt;aws&#45;sdk&#45;cpp -->
<g id="edge8" class="edge">
<title>aws&#45;c&#45;event&#45;stream&#45;&gt;aws&#45;sdk&#45;cpp</title>
<path fill="none" stroke="black" d="M212.4,-150.25C318.71,-136.67 500.05,-113.51 601.65,-100.53"/>
<polygon fill="black" stroke="black" points="602.05,-104.01 611.53,-99.27 601.17,-97.07 602.05,-104.01"/>
</g>
<!-- aws&#45;c&#45;event&#45;stream&#45;&gt;awscrt -->
<g id="edge9" class="edge">
<title>aws&#45;c&#45;event&#45;stream&#45;&gt;awscrt</title>
<path fill="none" stroke="black" d="M175.81,-145.38C212.03,-133.47 261.54,-117.2 296.95,-105.57"/>
<polygon fill="black" stroke="black" points="297.61,-109.03 306.01,-102.59 295.42,-102.38 297.61,-109.03"/>
</g>
<!-- aws&#45;c&#45;s3&#45;&gt;arrow&#45;cpp -->
<g id="edge10" class="edge">
<title>aws&#45;c&#45;s3&#45;&gt;arrow&#45;cpp</title>
<path fill="none" stroke="black" d="M427.81,-143.59C434.08,-119.5 445.48,-75.75 452.97,-47.03"/>
<polygon fill="black" stroke="black" points="456.3,-48.13 455.43,-37.58 449.52,-46.37 456.3,-48.13"/>
</g>
<!-- aws&#45;c&#45;s3&#45;&gt;tiledb -->
<g id="edge11" class="edge">
<title>aws&#45;c&#45;s3&#45;&gt;tiledb</title>
<path fill="none" stroke="black" d="M441.28,-144.71C469.11,-119.54 522.67,-71.09 554.57,-42.25"/>
<polygon fill="black" stroke="black" points="556.76,-44.99 561.83,-35.68 552.06,-39.79 556.76,-44.99"/>
</g>
<!-- aws&#45;c&#45;s3&#45;&gt;aws&#45;sdk&#45;cpp -->
<g id="edge12" class="edge">
<title>aws&#45;c&#45;s3&#45;&gt;aws&#45;sdk&#45;cpp</title>
<path fill="none" stroke="black" d="M463.92,-149.75C505.69,-138.2 571.1,-120.1 618.29,-107.04"/>
<polygon fill="black" stroke="black" points="619.11,-110.45 627.81,-104.41 617.24,-103.7 619.11,-110.45"/>
</g>
<!-- aws&#45;c&#45;s3&#45;&gt;awscrt -->
<g id="edge13" class="edge">
<title>aws&#45;c&#45;s3&#45;&gt;awscrt</title>
<path fill="none" stroke="black" d="M404.25,-144.76C393.54,-135.62 380,-124.06 368.21,-114"/>
<polygon fill="black" stroke="black" points="370.65,-111.48 360.77,-107.65 366.11,-116.8 370.65,-111.48"/>
</g>
<!-- aws&#45;c&#45;io -->
<g id="node8" class="node">
<title>aws&#45;c&#45;io</title>
<g id="a_node8"><a xlink:href="https://github.com/conda-forge/aws-c-io-feedstock" xlink:title="aws c io">
<ellipse fill="#35b779" stroke="black" cx="303.27" cy="-234" rx="51.21" ry="18"/>
<text text-anchor="middle" x="303.27" y="-229.32" font-family="Times,serif" font-size="14.00">aws c io</text>
</a>
</g>
</g>
<!-- aws&#45;c&#45;io&#45;&gt;arrow&#45;cpp -->
<g id="edge14" class="edge">
<title>aws&#45;c&#45;io&#45;&gt;arrow&#45;cpp</title>
<path fill="none" stroke="black" d="M261.39,-223.34C250.02,-220.83 237.69,-218.21 226.27,-216 126.92,-196.77 -43.17,-229.93 10.27,-144 50.72,-78.95 276.63,-41.82 392.17,-26.84"/>
<polygon fill="black" stroke="black" points="392.36,-30.35 401.83,-25.61 391.47,-23.4 392.36,-30.35"/>
</g>
<!-- aws&#45;c&#45;io&#45;&gt;tiledb -->
<g id="edge15" class="edge">
<title>aws&#45;c&#45;io&#45;&gt;tiledb</title>
<path fill="none" stroke="black" d="M294.4,-216C278.93,-183.71 251.84,-113.04 287.27,-72 323.09,-30.51 478.03,-49.04 531.27,-36 533.89,-35.36 536.57,-34.63 539.25,-33.86"/>
<polygon fill="black" stroke="black" points="540.28,-37.2 548.77,-30.87 538.18,-30.52 540.28,-37.2"/>
</g>
<!-- aws&#45;c&#45;io&#45;&gt;aws&#45;sdk&#45;cpp -->
<g id="edge16" class="edge">
<title>aws&#45;c&#45;io&#45;&gt;aws&#45;sdk&#45;cpp</title>
<path fill="none" stroke="black" d="M351.61,-227.76C449.67,-216.91 663.64,-191.99 674.27,-180 688.54,-163.92 687.89,-139.03 684.32,-119.66"/>
<polygon fill="black" stroke="black" points="687.74,-118.92 682.16,-109.91 680.91,-120.43 687.74,-118.92"/>
</g>
<!-- aws&#45;c&#45;io&#45;&gt;aws&#45;c&#45;event&#45;stream -->
<g id="edge17" class="edge">
<title>aws&#45;c&#45;io&#45;&gt;aws&#45;c&#45;event&#45;stream</title>
<path fill="none" stroke="black" d="M270.35,-219.83C244.61,-209.53 208.36,-195.03 178.92,-183.26"/>
<polygon fill="black" stroke="black" points="180.4,-180.08 169.82,-179.62 177.8,-186.58 180.4,-180.08"/>
</g>
<!-- aws&#45;c&#45;io&#45;&gt;aws&#45;c&#45;s3 -->
<g id="edge18" class="edge">
<title>aws&#45;c&#45;io&#45;&gt;aws&#45;c&#45;s3</title>
<path fill="none" stroke="black" d="M329.01,-217.98C346.18,-207.97 368.96,-194.68 387.83,-183.67"/>
<polygon fill="black" stroke="black" points="389.39,-186.82 396.26,-178.75 385.86,-180.77 389.39,-186.82"/>
</g>
<!-- aws&#45;c&#45;io&#45;&gt;awscrt -->
<g id="edge19" class="edge">
<title>aws&#45;c&#45;io&#45;&gt;awscrt</title>
<path fill="none" stroke="black" d="M307.93,-215.59C314.37,-191.5 326.08,-147.75 333.77,-119.03"/>
<polygon fill="black" stroke="black" points="337.1,-120.14 336.3,-109.57 330.33,-118.33 337.1,-120.14"/>
</g>
<!-- aws&#45;c&#45;mqtt -->
<g id="node9" class="node">
<title>aws&#45;c&#45;mqtt</title>
<g id="a_node9"><a xlink:href="https://github.com/conda-forge/aws-c-mqtt-feedstock" xlink:title="aws c mqtt">
<ellipse fill="#fde725" stroke="black" cx="599.27" cy="-162" rx="66.47" ry="18"/>
<text text-anchor="middle" x="599.27" y="-157.32" font-family="Times,serif" font-size="14.00">aws c mqtt</text>
</a>
</g>
</g>
<!-- aws&#45;c&#45;io&#45;&gt;aws&#45;c&#45;mqtt -->
<g id="edge20" class="edge">
<title>aws&#45;c&#45;io&#45;&gt;aws&#45;c&#45;mqtt</title>
<path fill="none" stroke="black" d="M345.05,-223.12C395.7,-211.14 481.42,-190.87 539.16,-177.22"/>
<polygon fill="black" stroke="black" points="539.92,-180.63 548.84,-174.93 538.31,-173.82 539.92,-180.63"/>
</g>
<!-- aws&#45;c&#45;mqtt&#45;&gt;arrow&#45;cpp -->
<g id="edge21" class="edge">
<title>aws&#45;c&#45;mqtt&#45;&gt;arrow&#45;cpp</title>
<path fill="none" stroke="black" d="M582.78,-144.15C558.43,-119.28 512.71,-72.57 484.53,-43.79"/>
<polygon fill="black" stroke="black" points="487.29,-41.6 477.8,-36.91 482.29,-46.5 487.29,-41.6"/>
</g>
<!-- aws&#45;c&#45;mqtt&#45;&gt;tiledb -->
<g id="edge22" class="edge">
<title>aws&#45;c&#45;mqtt&#45;&gt;tiledb</title>
<path fill="none" stroke="black" d="M596.94,-143.59C593.73,-119.61 587.92,-76.14 584.07,-47.42"/>
<polygon fill="black" stroke="black" points="587.56,-47.06 582.76,-37.61 580.62,-47.99 587.56,-47.06"/>
</g>
<!-- aws&#45;c&#45;mqtt&#45;&gt;aws&#45;sdk&#45;cpp -->
<g id="edge23" class="edge">
<title>aws&#45;c&#45;mqtt&#45;&gt;aws&#45;sdk&#45;cpp</title>
<path fill="none" stroke="black" d="M617.52,-144.41C627.04,-135.76 638.87,-125 649.41,-115.42"/>
<polygon fill="black" stroke="black" points="651.72,-118.05 656.77,-108.73 647.01,-112.87 651.72,-118.05"/>
</g>
<!-- aws&#45;c&#45;mqtt&#45;&gt;awscrt -->
<g id="edge24" class="edge">
<title>aws&#45;c&#45;mqtt&#45;&gt;awscrt</title>
<path fill="none" stroke="black" d="M553.44,-148.57C507.02,-135.97 435.56,-116.58 388.6,-103.84"/>
<polygon fill="black" stroke="black" points="389.55,-100.47 378.98,-101.23 387.71,-107.23 389.55,-100.47"/>
</g>
<!-- aws&#45;c&#45;compression -->
<g id="node10" class="node">
<title>aws&#45;c&#45;compression</title>
<g id="a_node10"><a xlink:href="https://github.com/conda-forge/aws-c-compression-feedstock/pull/80" xlink:title="aws c compression ❎">
<ellipse fill="#31688e" stroke="black" cx="599.27" cy="-234" rx="120.65" ry="18"/>
<text text-anchor="middle" x="599.27" y="-229.32" font-family="Times,serif" font-size="14.00" fill="white">aws c compression ❎</text>
</a>
</g>
</g>
<!-- aws&#45;c&#45;compression&#45;&gt;arrow&#45;cpp -->
<g id="edge25" class="edge">
<title>aws&#45;c&#45;compression&#45;&gt;arrow&#45;cpp</title>
<path fill="none" stroke="black" d="M658.63,-217.9C681.38,-209.72 706.18,-197.58 724.27,-180 760.27,-145.02 789.85,-110.18 757.27,-72 724.26,-33.31 581.15,-45.93 531.27,-36 526.66,-35.08 521.89,-34.07 517.1,-33.02"/>
<polygon fill="black" stroke="black" points="517.99,-29.63 507.46,-30.83 516.44,-36.46 517.99,-29.63"/>
</g>
<!-- aws&#45;c&#45;compression&#45;&gt;tiledb -->
<g id="edge26" class="edge">
<title>aws&#45;c&#45;compression&#45;&gt;tiledb</title>
<path fill="none" stroke="black" d="M675.1,-219.66C735.68,-208.23 811.96,-191.8 821.27,-180 851.01,-142.32 851.35,-109.41 821.27,-72 797.9,-42.93 694.78,-28.88 631.25,-22.87"/>
<polygon fill="black" stroke="black" points="631.65,-19.4 621.38,-21.98 631.02,-26.37 631.65,-19.4"/>
</g>
<!-- aws&#45;c&#45;compression&#45;&gt;aws&#45;sdk&#45;cpp -->
<g id="edge27" class="edge">
<title>aws&#45;c&#45;compression&#45;&gt;aws&#45;sdk&#45;cpp</title>
<path fill="none" stroke="black" d="M657.83,-217.93C676.95,-209.93 696.11,-197.9 707.27,-180 719.37,-160.58 709,-135.81 697.09,-117.34"/>
<polygon fill="black" stroke="black" points="700.09,-115.52 691.51,-109.3 694.34,-119.51 700.09,-115.52"/>
</g>
<!-- aws&#45;c&#45;compression&#45;&gt;aws&#45;c&#45;s3 -->
<g id="edge28" class="edge">
<title>aws&#45;c&#45;compression&#45;&gt;aws&#45;c&#45;s3</title>
<path fill="none" stroke="black" d="M558.45,-216.76C531.29,-205.96 495.61,-191.77 467.73,-180.68"/>
<polygon fill="black" stroke="black" points="469.07,-177.45 458.48,-177 466.48,-183.95 469.07,-177.45"/>
</g>
<!-- aws&#45;c&#45;compression&#45;&gt;awscrt -->
<g id="edge29" class="edge">
<title>aws&#45;c&#45;compression&#45;&gt;awscrt</title>
<path fill="none" stroke="black" d="M504.38,-222.51C446.81,-214.19 380.63,-200.52 360.27,-180 344.7,-164.3 340.47,-139.17 339.84,-119.61"/>
<polygon fill="black" stroke="black" points="343.34,-119.8 339.85,-109.8 336.34,-119.8 343.34,-119.8"/>
</g>
<!-- aws&#45;c&#45;compression&#45;&gt;aws&#45;c&#45;mqtt -->
<g id="edge30" class="edge">
<title>aws&#45;c&#45;compression&#45;&gt;aws&#45;c&#45;mqtt</title>
<path fill="none" stroke="black" d="M599.27,-215.7C599.27,-208.41 599.27,-199.73 599.27,-191.54"/>
<polygon fill="black" stroke="black" points="602.77,-191.62 599.27,-181.62 595.77,-191.62 602.77,-191.62"/>
</g>
<!-- aws&#45;c&#45;sdkutils -->
<g id="node11" class="node">
<title>aws&#45;c&#45;sdkutils</title>
<g id="a_node11"><a xlink:href="https://github.com/conda-forge/aws-c-sdkutils-feedstock" xlink:title="aws c sdkutils">
<ellipse fill="#35b779" stroke="black" cx="819.27" cy="-234" rx="81.72" ry="18"/>
<text text-anchor="middle" x="819.27" y="-229.32" font-family="Times,serif" font-size="14.00">aws c sdkutils</text>
</a>
</g>
</g>
<!-- aws&#45;c&#45;sdkutils&#45;&gt;arrow&#45;cpp -->
<g id="edge31" class="edge">
<title>aws&#45;c&#45;sdkutils&#45;&gt;arrow&#45;cpp</title>
<path fill="none" stroke="black" d="M820.55,-215.57C821.95,-182.22 819.75,-109.35 778.27,-72 737.05,-34.88 585.74,-46.47 531.27,-36 526.45,-35.07 521.46,-34.04 516.47,-32.95"/>
<polygon fill="black" stroke="black" points="517.59,-29.61 507.07,-30.83 516.05,-36.44 517.59,-29.61"/>
</g>
<!-- aws&#45;c&#45;sdkutils&#45;&gt;tiledb -->
<g id="edge32" class="edge">
<title>aws&#45;c&#45;sdkutils&#45;&gt;tiledb</title>
<path fill="none" stroke="black" d="M829.79,-215.73C847.88,-183.58 879.74,-114.04 845.27,-72 818.75,-39.65 700.59,-26.65 631.33,-21.74"/>
<polygon fill="black" stroke="black" points="631.97,-18.28 621.75,-21.1 631.5,-25.26 631.97,-18.28"/>
</g>
<!-- aws&#45;c&#45;sdkutils&#45;&gt;aws&#45;sdk&#45;cpp -->
<g id="edge33" class="edge">
<title>aws&#45;c&#45;sdkutils&#45;&gt;aws&#45;sdk&#45;cpp</title>
<path fill="none" stroke="black" d="M802.3,-216.15C777.26,-191.28 730.22,-144.57 701.23,-115.79"/>
<polygon fill="black" stroke="black" points="703.85,-113.45 694.29,-108.89 698.92,-118.42 703.85,-113.45"/>
</g>
<!-- aws&#45;c&#45;sdkutils&#45;&gt;aws&#45;c&#45;s3 -->
<g id="edge34" class="edge">
<title>aws&#45;c&#45;sdkutils&#45;&gt;aws&#45;c&#45;s3</title>
<path fill="none" stroke="black" d="M759.29,-221.36C749.28,-219.5 738.99,-217.65 729.27,-216 623.8,-198.07 596.17,-201 491.27,-180 486.1,-178.96 480.73,-177.79 475.38,-176.56"/>
<polygon fill="black" stroke="black" points="476.49,-173.23 465.95,-174.32 474.87,-180.04 476.49,-173.23"/>
</g>
<!-- aws&#45;c&#45;sdkutils&#45;&gt;awscrt -->
<g id="edge35" class="edge">
<title>aws&#45;c&#45;sdkutils&#45;&gt;awscrt</title>
<path fill="none" stroke="black" d="M759.26,-221.55C749.25,-219.68 738.97,-217.77 729.27,-216 638.26,-199.41 606.91,-221.57 524.27,-180 503.49,-169.54 506.05,-156.25 486.27,-144 456.36,-125.48 419.02,-112.02 389.71,-103.3"/>
<polygon fill="black" stroke="black" points="390.94,-100.01 380.36,-100.61 389,-106.74 390.94,-100.01"/>
</g>
</g>
</svg>
