<?xml version="1.0" encoding="UTF-8" standalone="no"?>
<!DOCTYPE svg PUBLIC "-//W3C//DTD SVG 1.1//EN"
 "http://www.w3.org/Graphics/SVG/1.1/DTD/svg11.dtd">
<!-- Generated by graphviz version 13.1.2 (20250809.0930)
 -->
<!-- Pages: 1 -->
<svg width="699pt" height="404pt"
 viewBox="0.00 0.00 699.00 404.00" xmlns="http://www.w3.org/2000/svg" xmlns:xlink="http://www.w3.org/1999/xlink">
<g id="graph0" class="graph" transform="scale(1 1) rotate(0) translate(4 400)">
<polygon fill="white" stroke="none" points="-4,4 -4,-400 694.7,-400 694.7,4 -4,4"/>
<!-- arrow&#45;cpp -->
<g id="node1" class="node">
<title>arrow&#45;cpp</title>
<g id="a_node1"><a xlink:href="https://github.com/conda-forge/arrow-cpp-feedstock" xlink:title="arrow cpp">
<ellipse fill="#fde725" stroke="black" cx="342.88" cy="-18" rx="61.73" ry="18"/>
<text xml:space="preserve" text-anchor="middle" x="342.88" y="-13.32" font-family="Times,serif" font-size="14.00">arrow cpp</text>
</a>
</g>
</g>
<!-- tiledb -->
<g id="node2" class="node">
<title>tiledb</title>
<g id="a_node2"><a xlink:href="https://github.com/conda-forge/tiledb-feedstock" xlink:title="tiledb">
<ellipse fill="#fde725" stroke="black" cx="218.88" cy="-18" rx="40.16" ry="18"/>
<text xml:space="preserve" text-anchor="middle" x="218.88" y="-13.32" font-family="Times,serif" font-size="14.00">tiledb</text>
</a>
</g>
</g>
<!-- aws&#45;sdk&#45;cpp -->
<g id="node3" class="node">
<title>aws&#45;sdk&#45;cpp</title>
<g id="a_node3"><a xlink:href="https://github.com/conda-forge/aws-sdk-cpp-feedstock" xlink:title="aws sdk cpp">
<ellipse fill="#fde725" stroke="black" cx="347.88" cy="-90" rx="72.25" ry="18"/>
<text xml:space="preserve" text-anchor="middle" x="347.88" y="-85.33" font-family="Times,serif" font-size="14.00">aws sdk cpp</text>
</a>
</g>
</g>
<!-- aws&#45;sdk&#45;cpp&#45;&gt;arrow&#45;cpp -->
<g id="edge1" class="edge">
<title>aws&#45;sdk&#45;cpp&#45;&gt;arrow&#45;cpp</title>
<path fill="none" stroke="black" d="M346.65,-71.7C346.13,-64.41 345.51,-55.73 344.92,-47.54"/>
<polygon fill="black" stroke="black" points="348.42,-47.34 344.21,-37.61 341.44,-47.84 348.42,-47.34"/>
</g>
<!-- aws&#45;sdk&#45;cpp&#45;&gt;tiledb -->
<g id="edge2" class="edge">
<title>aws&#45;sdk&#45;cpp&#45;&gt;tiledb</title>
<path fill="none" stroke="black" d="M318.61,-73.12C299.37,-62.67 274.09,-48.96 253.8,-37.95"/>
<polygon fill="black" stroke="black" points="255.49,-34.88 245.03,-33.19 252.15,-41.03 255.49,-34.88"/>
</g>
<!-- aws&#45;c&#45;event&#45;stream -->
<g id="node4" class="node">
<title>aws&#45;c&#45;event&#45;stream</title>
<g id="a_node4"><a xlink:href="https://github.com/conda-forge/aws-c-event-stream-feedstock/pull/224" xlink:title="aws c event stream ❎">
<ellipse fill="#31688e" stroke="black" cx="566.88" cy="-234" rx="123.81" ry="18"/>
<text xml:space="preserve" text-anchor="middle" x="566.88" y="-229.32" font-family="Times,serif" font-size="14.00" fill="white">aws c event stream ❎</text>
</a>
</g>
</g>
<!-- aws&#45;c&#45;event&#45;stream&#45;&gt;aws&#45;sdk&#45;cpp -->
<g id="edge3" class="edge">
<title>aws&#45;c&#45;event&#45;stream&#45;&gt;aws&#45;sdk&#45;cpp</title>
<path fill="none" stroke="black" d="M541.12,-216.02C513.81,-198.04 469.39,-168.89 430.88,-144 415.1,-133.8 397.57,-122.58 382.7,-113.11"/>
<polygon fill="black" stroke="black" points="384.95,-110.39 374.64,-107.98 381.19,-116.3 384.95,-110.39"/>
</g>
<!-- aws&#45;crt&#45;cpp -->
<g id="node5" class="node">
<title>aws&#45;crt&#45;cpp</title>
<g id="a_node5"><a xlink:href="https://github.com/conda-forge/aws-crt-cpp-feedstock" xlink:title="aws crt cpp">
<ellipse fill="#fde725" stroke="black" cx="228.88" cy="-162" rx="69.1" ry="18"/>
<text xml:space="preserve" text-anchor="middle" x="228.88" y="-157.32" font-family="Times,serif" font-size="14.00">aws crt cpp</text>
</a>
</g>
</g>
<!-- aws&#45;c&#45;event&#45;stream&#45;&gt;aws&#45;crt&#45;cpp -->
<g id="edge4" class="edge">
<title>aws&#45;c&#45;event&#45;stream&#45;&gt;aws&#45;crt&#45;cpp</title>
<path fill="none" stroke="black" d="M497.67,-218.67C437.52,-206.21 351.1,-188.31 292.62,-176.2"/>
<polygon fill="black" stroke="black" points="293.66,-172.84 283.16,-174.24 292.24,-179.7 293.66,-172.84"/>
</g>
<!-- awscrt -->
<g id="node6" class="node">
<title>awscrt</title>
<g id="a_node6"><a xlink:href="https://github.com/conda-forge/awscrt-feedstock" xlink:title="awscrt">
<ellipse fill="#fde725" stroke="black" cx="376.88" cy="-162" rx="44.9" ry="18"/>
<text xml:space="preserve" text-anchor="middle" x="376.88" y="-157.32" font-family="Times,serif" font-size="14.00">awscrt</text>
</a>
</g>
</g>
<!-- aws&#45;c&#45;event&#45;stream&#45;&gt;awscrt -->
<g id="edge5" class="edge">
<title>aws&#45;c&#45;event&#45;stream&#45;&gt;awscrt</title>
<path fill="none" stroke="black" d="M522.82,-216.76C491.73,-205.31 450.32,-190.05 419.55,-178.72"/>
<polygon fill="black" stroke="black" points="421.16,-175.58 410.56,-175.41 418.74,-182.15 421.16,-175.58"/>
</g>
<!-- aws&#45;crt&#45;cpp&#45;&gt;arrow&#45;cpp -->
<g id="edge6" class="edge">
<title>aws&#45;crt&#45;cpp&#45;&gt;arrow&#45;cpp</title>
<path fill="none" stroke="black" d="M233.15,-143.76C238.54,-124.64 249.29,-93.64 266.88,-72 276.99,-59.57 290.74,-48.79 303.77,-40.25"/>
<polygon fill="black" stroke="black" points="305.6,-43.24 312.23,-34.98 301.89,-37.3 305.6,-43.24"/>
</g>
<!-- aws&#45;crt&#45;cpp&#45;&gt;tiledb -->
<g id="edge7" class="edge">
<title>aws&#45;crt&#45;cpp&#45;&gt;tiledb</title>
<path fill="none" stroke="black" d="M227.66,-143.59C225.97,-119.61 222.91,-76.14 220.89,-47.42"/>
<polygon fill="black" stroke="black" points="224.39,-47.35 220.2,-37.62 217.41,-47.84 224.39,-47.35"/>
</g>
<!-- aws&#45;crt&#45;cpp&#45;&gt;aws&#45;sdk&#45;cpp -->
<g id="edge8" class="edge">
<title>aws&#45;crt&#45;cpp&#45;&gt;aws&#45;sdk&#45;cpp</title>
<path fill="none" stroke="black" d="M255.89,-145.12C272.2,-135.52 293.22,-123.15 311.05,-112.67"/>
<polygon fill="black" stroke="black" points="312.43,-115.92 319.27,-107.83 308.88,-109.88 312.43,-115.92"/>
</g>
<!-- aws&#45;c&#45;http -->
<g id="node7" class="node">
<title>aws&#45;c&#45;http</title>
<g id="a_node7"><a xlink:href="https://github.com/conda-forge/aws-c-http-feedstock/pull/273" xlink:title="aws c http ❎">
<ellipse fill="#31688e" stroke="black" cx="212.88" cy="-378" rx="78.57" ry="18"/>
<text xml:space="preserve" text-anchor="middle" x="212.88" y="-373.32" font-family="Times,serif" font-size="14.00" fill="white">aws c http ❎</text>
</a>
</g>
</g>
<!-- aws&#45;c&#45;http&#45;&gt;aws&#45;crt&#45;cpp -->
<g id="edge9" class="edge">
<title>aws&#45;c&#45;http&#45;&gt;aws&#45;crt&#45;cpp</title>
<path fill="none" stroke="black" d="M167.18,-363.05C93.06,-338.1 -40.09,-282.2 11.88,-216 29.56,-193.49 98.97,-179.32 154.6,-171.36"/>
<polygon fill="black" stroke="black" points="154.95,-174.84 164.38,-170 153.99,-167.91 154.95,-174.84"/>
</g>
<!-- aws&#45;c&#45;http&#45;&gt;awscrt -->
<g id="edge10" class="edge">
<title>aws&#45;c&#45;http&#45;&gt;awscrt</title>
<path fill="none" stroke="black" d="M253.48,-362.14C296.05,-343.87 359.54,-308.19 379.88,-252 386.89,-232.66 385.8,-209.37 383.14,-191.47"/>
<polygon fill="black" stroke="black" points="386.62,-191.06 381.44,-181.81 379.73,-192.27 386.62,-191.06"/>
</g>
<!-- aws&#45;c&#45;mqtt -->
<g id="node8" class="node">
<title>aws&#45;c&#45;mqtt</title>
<g id="a_node8"><a xlink:href="https://github.com/conda-forge/aws-c-mqtt-feedstock/pull/271" xlink:title="aws c mqtt ❎">
<ellipse fill="#31688e" stroke="black" cx="102.88" cy="-234" rx="81.72" ry="18"/>
<text xml:space="preserve" text-anchor="middle" x="102.88" y="-229.32" font-family="Times,serif" font-size="14.00" fill="white">aws c mqtt ❎</text>
</a>
</g>
</g>
<!-- aws&#45;c&#45;http&#45;&gt;aws&#45;c&#45;mqtt -->
<g id="edge11" class="edge">
<title>aws&#45;c&#45;http&#45;&gt;aws&#45;c&#45;mqtt</title>
<path fill="none" stroke="black" d="M173.67,-362.1C155.99,-353.5 136.33,-340.97 123.88,-324 111.1,-306.57 105.98,-282.5 103.98,-263.79"/>
<polygon fill="black" stroke="black" points="107.47,-263.58 103.19,-253.89 100.5,-264.14 107.47,-263.58"/>
</g>
<!-- aws&#45;c&#45;auth -->
<g id="node9" class="node">
<title>aws&#45;c&#45;auth</title>
<g id="a_node9"><a xlink:href="https://github.com/conda-forge/aws-c-auth-feedstock/pull/345" xlink:title="aws c auth ❎">
<ellipse fill="#31688e" stroke="black" cx="212.88" cy="-306" rx="80.14" ry="18"/>
<text xml:space="preserve" text-anchor="middle" x="212.88" y="-301.32" font-family="Times,serif" font-size="14.00" fill="white">aws c auth ❎</text>
</a>
</g>
</g>
<!-- aws&#45;c&#45;http&#45;&gt;aws&#45;c&#45;auth -->
<g id="edge12" class="edge">
<title>aws&#45;c&#45;http&#45;&gt;aws&#45;c&#45;auth</title>
<path fill="none" stroke="black" d="M212.88,-359.7C212.88,-352.41 212.88,-343.73 212.88,-335.54"/>
<polygon fill="black" stroke="black" points="216.38,-335.62 212.88,-325.62 209.38,-335.62 216.38,-335.62"/>
</g>
<!-- aws&#45;c&#45;s3 -->
<g id="node10" class="node">
<title>aws&#45;c&#45;s3</title>
<g id="a_node10"><a xlink:href="https://github.com/conda-forge/aws-c-s3-feedstock" xlink:title="aws c s3">
<ellipse fill="#fde725" stroke="black" cx="294.88" cy="-234" rx="53.84" ry="18"/>
<text xml:space="preserve" text-anchor="middle" x="294.88" y="-229.32" font-family="Times,serif" font-size="14.00">aws c s3</text>
</a>
</g>
</g>
<!-- aws&#45;c&#45;http&#45;&gt;aws&#45;c&#45;s3 -->
<g id="edge13" class="edge">
<title>aws&#45;c&#45;http&#45;&gt;aws&#45;c&#45;s3</title>
<path fill="none" stroke="black" d="M255.31,-362.62C273,-354.28 291.75,-341.82 301.88,-324 312.3,-305.67 309.67,-281.7 304.92,-263.26"/>
<polygon fill="black" stroke="black" points="308.31,-262.37 302.13,-253.77 301.6,-264.35 308.31,-262.37"/>
</g>
<!-- aws&#45;c&#45;mqtt&#45;&gt;aws&#45;crt&#45;cpp -->
<g id="edge14" class="edge">
<title>aws&#45;c&#45;mqtt&#45;&gt;aws&#45;crt&#45;cpp</title>
<path fill="none" stroke="black" d="M132.11,-216.76C149.53,-207.09 171.84,-194.69 190.65,-184.24"/>
<polygon fill="black" stroke="black" points="192.32,-187.32 199.36,-179.4 188.92,-181.2 192.32,-187.32"/>
</g>
<!-- aws&#45;c&#45;mqtt&#45;&gt;awscrt -->
<g id="edge15" class="edge">
<title>aws&#45;c&#45;mqtt&#45;&gt;awscrt</title>
<path fill="none" stroke="black" d="M154.74,-219.75C204.83,-206.95 280.08,-187.73 328.84,-175.27"/>
<polygon fill="black" stroke="black" points="329.44,-178.73 338.26,-172.87 327.71,-171.95 329.44,-178.73"/>
</g>
<!-- aws&#45;c&#45;auth&#45;&gt;aws&#45;crt&#45;cpp -->
<g id="edge16" class="edge">
<title>aws&#45;c&#45;auth&#45;&gt;aws&#45;crt&#45;cpp</title>
<path fill="none" stroke="black" d="M214.85,-287.59C217.55,-263.61 222.45,-220.14 225.68,-191.42"/>
<polygon fill="black" stroke="black" points="229.15,-191.94 226.79,-181.61 222.19,-191.16 229.15,-191.94"/>
</g>
<!-- aws&#45;c&#45;auth&#45;&gt;awscrt -->
<g id="edge17" class="edge">
<title>aws&#45;c&#45;auth&#45;&gt;awscrt</title>
<path fill="none" stroke="black" d="M278.73,-295.46C306.9,-288.1 337.84,-275.06 357.88,-252 372.23,-235.49 376.62,-210.8 377.62,-191.61"/>
<polygon fill="black" stroke="black" points="381.12,-191.8 377.83,-181.73 374.12,-191.65 381.12,-191.8"/>
</g>
<!-- aws&#45;c&#45;auth&#45;&gt;aws&#45;c&#45;s3 -->
<g id="edge18" class="edge">
<title>aws&#45;c&#45;auth&#45;&gt;aws&#45;c&#45;s3</title>
<path fill="none" stroke="black" d="M232.32,-288.41C242.81,-279.45 255.94,-268.25 267.45,-258.42"/>
<polygon fill="black" stroke="black" points="269.39,-261.37 274.72,-252.21 264.84,-256.04 269.39,-261.37"/>
</g>
<!-- aws&#45;c&#45;s3&#45;&gt;aws&#45;crt&#45;cpp -->
<g id="edge19" class="edge">
<title>aws&#45;c&#45;s3&#45;&gt;aws&#45;crt&#45;cpp</title>
<path fill="none" stroke="black" d="M279.24,-216.41C271.31,-207.99 261.49,-197.58 252.65,-188.2"/>
<polygon fill="black" stroke="black" points="255.32,-185.93 245.91,-181.06 250.22,-190.73 255.32,-185.93"/>
</g>
<!-- aws&#45;c&#45;s3&#45;&gt;awscrt -->
<g id="edge20" class="edge">
<title>aws&#45;c&#45;s3&#45;&gt;awscrt</title>
<path fill="none" stroke="black" d="M313.9,-216.76C324.61,-207.62 338.16,-196.06 349.94,-186"/>
<polygon fill="black" stroke="black" points="352.05,-188.8 357.38,-179.65 347.5,-183.48 352.05,-188.8"/>
</g>
</g>
</svg>
