<?xml version="1.0" encoding="UTF-8" standalone="no"?>
<!DOCTYPE svg PUBLIC "-//W3C//DTD SVG 1.1//EN"
 "http://www.w3.org/Graphics/SVG/1.1/DTD/svg11.dtd">
<!-- Generated by graphviz version 12.0.0 (20240803.0821)
 -->
<!-- Pages: 1 -->
<svg width="308pt" height="260pt"
 viewBox="0.00 0.00 307.75 260.00" xmlns="http://www.w3.org/2000/svg" xmlns:xlink="http://www.w3.org/1999/xlink">
<g id="graph0" class="graph" transform="scale(1 1) rotate(0) translate(4 256)">
<polygon fill="white" stroke="none" points="-4,4 -4,-256 303.75,-256 303.75,4 -4,4"/>
<!-- aws&#45;sdk&#45;cpp -->
<g id="node1" class="node">
<title>aws&#45;sdk&#45;cpp</title>
<g id="a_node1"><a xlink:href="https://github.com/conda-forge/aws-sdk-cpp-feedstock" xlink:title="aws sdk cpp">
<ellipse fill="#fde725" stroke="black" cx="80.14" cy="-18" rx="72.25" ry="18"/>
<text text-anchor="middle" x="80.14" y="-13.32" font-family="Times,serif" font-size="14.00">aws sdk cpp</text>
</a>
</g>
</g>
<!-- aws&#45;c&#45;mqtt -->
<g id="node2" class="node">
<title>aws&#45;c&#45;mqtt</title>
<g id="a_node2"><a xlink:href="https://github.com/conda-forge/aws-c-mqtt-feedstock" xlink:title="aws c mqtt">
<ellipse fill="#ff8c00" stroke="black" cx="218.14" cy="-162" rx="66.47" ry="18"/>
<text text-anchor="middle" x="218.14" y="-157.32" font-family="Times,serif" font-size="14.00">aws c mqtt</text>
</a>
</g>
</g>
<!-- aws&#45;crt&#45;cpp -->
<g id="node4" class="node">
<title>aws&#45;crt&#45;cpp</title>
<g id="a_node4"><a xlink:href="https://github.com/conda-forge/aws-crt-cpp-feedstock" xlink:title="aws crt cpp">
<ellipse fill="#fde725" stroke="black" cx="80.14" cy="-90" rx="69.1" ry="18"/>
<text text-anchor="middle" x="80.14" y="-85.33" font-family="Times,serif" font-size="14.00">aws crt cpp</text>
</a>
</g>
</g>
<!-- aws&#45;c&#45;mqtt&#45;&gt;aws&#45;crt&#45;cpp -->
<g id="edge1" class="edge">
<title>aws&#45;c&#45;mqtt&#45;&gt;aws&#45;crt&#45;cpp</title>
<path fill="none" stroke="black" d="M187.86,-145.64C168.22,-135.68 142.4,-122.58 120.96,-111.7"/>
<polygon fill="black" stroke="black" points="122.69,-108.65 112.18,-107.25 119.52,-114.9 122.69,-108.65"/>
</g>
<!-- awscrt -->
<g id="node6" class="node">
<title>awscrt</title>
<g id="a_node6"><a xlink:href="https://github.com/conda-forge/awscrt-feedstock" xlink:title="awscrt">
<ellipse fill="#fde725" stroke="black" cx="218.14" cy="-90" rx="44.89" ry="18"/>
<text text-anchor="middle" x="218.14" y="-85.33" font-family="Times,serif" font-size="14.00">awscrt</text>
</a>
</g>
</g>
<!-- aws&#45;c&#45;mqtt&#45;&gt;awscrt -->
<g id="edge2" class="edge">
<title>aws&#45;c&#45;mqtt&#45;&gt;awscrt</title>
<path fill="none" stroke="black" d="M218.14,-143.7C218.14,-136.41 218.14,-127.73 218.14,-119.54"/>
<polygon fill="black" stroke="black" points="221.64,-119.62 218.14,-109.62 214.64,-119.62 221.64,-119.62"/>
</g>
<!-- aws&#45;c&#45;auth -->
<g id="node3" class="node">
<title>aws&#45;c&#45;auth</title>
<g id="a_node3"><a xlink:href="https://github.com/conda-forge/aws-c-auth-feedstock/pull/303" xlink:title="aws c auth ❎">
<ellipse fill="#31688e" stroke="black" cx="80.14" cy="-234" rx="80.14" ry="18"/>
<text text-anchor="middle" x="80.14" y="-229.32" font-family="Times,serif" font-size="14.00" fill="white">aws c auth ❎</text>
</a>
</g>
</g>
<!-- aws&#45;c&#45;auth&#45;&gt;aws&#45;crt&#45;cpp -->
<g id="edge4" class="edge">
<title>aws&#45;c&#45;auth&#45;&gt;aws&#45;crt&#45;cpp</title>
<path fill="none" stroke="black" d="M51.49,-216.96C38.44,-207.96 24.32,-195.42 17.14,-180 10.39,-165.49 10.39,-158.51 17.14,-144 22.74,-131.97 32.56,-121.7 42.81,-113.49"/>
<polygon fill="black" stroke="black" points="44.65,-116.48 50.61,-107.72 40.49,-110.85 44.65,-116.48"/>
</g>
<!-- aws&#45;c&#45;s3 -->
<g id="node5" class="node">
<title>aws&#45;c&#45;s3</title>
<g id="a_node5"><a xlink:href="https://github.com/conda-forge/aws-c-s3-feedstock" xlink:title="aws c s3">
<ellipse fill="#fde725" stroke="black" cx="80.14" cy="-162" rx="53.84" ry="18"/>
<text text-anchor="middle" x="80.14" y="-157.32" font-family="Times,serif" font-size="14.00">aws c s3</text>
</a>
</g>
</g>
<!-- aws&#45;c&#45;auth&#45;&gt;aws&#45;c&#45;s3 -->
<g id="edge3" class="edge">
<title>aws&#45;c&#45;auth&#45;&gt;aws&#45;c&#45;s3</title>
<path fill="none" stroke="black" d="M80.14,-215.7C80.14,-208.41 80.14,-199.73 80.14,-191.54"/>
<polygon fill="black" stroke="black" points="83.64,-191.62 80.14,-181.62 76.64,-191.62 83.64,-191.62"/>
</g>
<!-- aws&#45;c&#45;auth&#45;&gt;awscrt -->
<g id="edge5" class="edge">
<title>aws&#45;c&#45;auth&#45;&gt;awscrt</title>
<path fill="none" stroke="black" d="M150.13,-224.89C205.21,-216.89 275.51,-202.55 293.14,-180 303,-167.39 300.5,-158.21 293.14,-144 285.53,-129.3 271.76,-117.81 258.08,-109.34"/>
<polygon fill="black" stroke="black" points="259.95,-106.38 249.54,-104.46 256.48,-112.46 259.95,-106.38"/>
</g>
<!-- aws&#45;crt&#45;cpp&#45;&gt;aws&#45;sdk&#45;cpp -->
<g id="edge6" class="edge">
<title>aws&#45;crt&#45;cpp&#45;&gt;aws&#45;sdk&#45;cpp</title>
<path fill="none" stroke="black" d="M80.14,-71.7C80.14,-64.41 80.14,-55.73 80.14,-47.54"/>
<polygon fill="black" stroke="black" points="83.64,-47.62 80.14,-37.62 76.64,-47.62 83.64,-47.62"/>
</g>
<!-- aws&#45;c&#45;s3&#45;&gt;aws&#45;crt&#45;cpp -->
<g id="edge7" class="edge">
<title>aws&#45;c&#45;s3&#45;&gt;aws&#45;crt&#45;cpp</title>
<path fill="none" stroke="black" d="M80.14,-143.7C80.14,-136.41 80.14,-127.73 80.14,-119.54"/>
<polygon fill="black" stroke="black" points="83.64,-119.62 80.14,-109.62 76.64,-119.62 83.64,-119.62"/>
</g>
<!-- aws&#45;c&#45;s3&#45;&gt;awscrt -->
<g id="edge8" class="edge">
<title>aws&#45;c&#45;s3&#45;&gt;awscrt</title>
<path fill="none" stroke="black" d="M108.74,-146.5C129.69,-135.87 158.31,-121.35 181.02,-109.83"/>
<polygon fill="black" stroke="black" points="182.31,-113.1 189.65,-105.46 179.14,-106.86 182.31,-113.1"/>
</g>
</g>
</svg>
