<?xml version="1.0" encoding="UTF-8" standalone="no"?>
<!DOCTYPE svg PUBLIC "-//W3C//DTD SVG 1.1//EN"
 "http://www.w3.org/Graphics/SVG/1.1/DTD/svg11.dtd">
<!-- Generated by graphviz version 13.1.2 (20250809.0930)
 -->
<!-- Pages: 1 -->
<svg width="340pt" height="116pt"
 viewBox="0.00 0.00 340.00 116.00" xmlns="http://www.w3.org/2000/svg" xmlns:xlink="http://www.w3.org/1999/xlink">
<g id="graph0" class="graph" transform="scale(1 1) rotate(0) translate(4 112)">
<polygon fill="white" stroke="none" points="-4,4 -4,-112 335.74,-112 335.74,4 -4,4"/>
<!-- hdf5 -->
<g id="node1" class="node">
<title>hdf5</title>
<g id="a_node1"><a xlink:href="https://github.com/conda-forge/hdf5-feedstock" xlink:title="hdf5">
<ellipse fill="#fde725" stroke="black" cx="33.85" cy="-18" rx="33.85" ry="18"/>
<text xml:space="preserve" text-anchor="middle" x="33.85" y="-13.32" font-family="Times,serif" font-size="14.00">hdf5</text>
</a>
</g>
</g>
<!-- aws&#45;crt&#45;cpp -->
<g id="node2" class="node">
<title>aws&#45;crt&#45;cpp</title>
<g id="a_node2"><a xlink:href="https://github.com/conda-forge/aws-crt-cpp-feedstock" xlink:title="aws crt cpp">
<ellipse fill="#fde725" stroke="black" cx="154.85" cy="-18" rx="69.1" ry="18"/>
<text xml:space="preserve" text-anchor="middle" x="154.85" y="-13.32" font-family="Times,serif" font-size="14.00">aws crt cpp</text>
</a>
</g>
</g>
<!-- aws&#45;c&#45;s3 -->
<g id="node3" class="node">
<title>aws&#45;c&#45;s3</title>
<g id="a_node3"><a xlink:href="https://github.com/conda-forge/aws-c-s3-feedstock" xlink:title="aws c s3">
<ellipse fill="#35b779" stroke="black" cx="154.85" cy="-90" rx="53.84" ry="18"/>
<text xml:space="preserve" text-anchor="middle" x="154.85" y="-85.33" font-family="Times,serif" font-size="14.00">aws c s3</text>
</a>
</g>
</g>
<!-- aws&#45;c&#45;s3&#45;&gt;hdf5 -->
<g id="edge3" class="edge">
<title>aws&#45;c&#45;s3&#45;&gt;hdf5</title>
<path fill="none" stroke="black" d="M128.59,-73.81C110.12,-63.13 85.31,-48.77 65.71,-37.43"/>
<polygon fill="black" stroke="black" points="67.71,-34.55 57.31,-32.57 64.21,-40.61 67.71,-34.55"/>
</g>
<!-- aws&#45;c&#45;s3&#45;&gt;aws&#45;crt&#45;cpp -->
<g id="edge1" class="edge">
<title>aws&#45;c&#45;s3&#45;&gt;aws&#45;crt&#45;cpp</title>
<path fill="none" stroke="black" d="M154.85,-71.7C154.85,-64.41 154.85,-55.73 154.85,-47.54"/>
<polygon fill="black" stroke="black" points="158.35,-47.62 154.85,-37.62 151.35,-47.62 158.35,-47.62"/>
</g>
<!-- awscrt -->
<g id="node4" class="node">
<title>awscrt</title>
<g id="a_node4"><a xlink:href="https://github.com/conda-forge/awscrt-feedstock" xlink:title="awscrt">
<ellipse fill="#fde725" stroke="black" cx="286.85" cy="-18" rx="44.89" ry="18"/>
<text xml:space="preserve" text-anchor="middle" x="286.85" y="-13.32" font-family="Times,serif" font-size="14.00">awscrt</text>
</a>
</g>
</g>
<!-- aws&#45;c&#45;s3&#45;&gt;awscrt -->
<g id="edge2" class="edge">
<title>aws&#45;c&#45;s3&#45;&gt;awscrt</title>
<path fill="none" stroke="black" d="M182.84,-74.15C202.61,-63.67 229.28,-49.53 250.67,-38.18"/>
<polygon fill="black" stroke="black" points="252.16,-41.36 259.35,-33.58 248.88,-35.17 252.16,-41.36"/>
</g>
</g>
</svg>
