<?xml version="1.0" encoding="UTF-8" standalone="no"?>
<!DOCTYPE svg PUBLIC "-//W3C//DTD SVG 1.1//EN"
 "http://www.w3.org/Graphics/SVG/1.1/DTD/svg11.dtd">
<!-- Generated by graphviz version 12.0.0 (20240803.0821)
 -->
<!-- Pages: 1 -->
<svg width="377pt" height="404pt"
 viewBox="0.00 0.00 377.09 404.00" xmlns="http://www.w3.org/2000/svg" xmlns:xlink="http://www.w3.org/1999/xlink">
<g id="graph0" class="graph" transform="scale(1 1) rotate(0) translate(4 400)">
<polygon fill="white" stroke="none" points="-4,4 -4,-400 373.09,-400 373.09,4 -4,4"/>
<!-- aws&#45;sdk&#45;cpp -->
<g id="node1" class="node">
<title>aws&#45;sdk&#45;cpp</title>
<g id="a_node1"><a xlink:href="https://github.com/conda-forge/aws-sdk-cpp-feedstock" xlink:title="aws sdk cpp">
<ellipse fill="#fde725" stroke="black" cx="144.31" cy="-18" rx="72.25" ry="18"/>
<text text-anchor="middle" x="144.31" y="-13.32" font-family="Times,serif" font-size="14.00">aws sdk cpp</text>
</a>
</g>
</g>
<!-- aws&#45;c&#45;compression -->
<g id="node2" class="node">
<title>aws&#45;c&#45;compression</title>
<g id="a_node2"><a xlink:href="https://github.com/conda-forge/aws-c-compression-feedstock/pull/71" xlink:title="aws c compression ❎">
<ellipse fill="#31688e" stroke="black" cx="191.31" cy="-378" rx="120.65" ry="18"/>
<text text-anchor="middle" x="191.31" y="-373.32" font-family="Times,serif" font-size="14.00" fill="white">aws c compression ❎</text>
</a>
</g>
</g>
<!-- aws&#45;c&#45;http -->
<g id="node3" class="node">
<title>aws&#45;c&#45;http</title>
<g id="a_node3"><a xlink:href="https://github.com/conda-forge/aws-c-http-feedstock" xlink:title="aws c http">
<ellipse fill="#fde725" stroke="black" cx="191.31" cy="-306" rx="63.31" ry="18"/>
<text text-anchor="middle" x="191.31" y="-301.32" font-family="Times,serif" font-size="14.00">aws c http</text>
</a>
</g>
</g>
<!-- aws&#45;c&#45;compression&#45;&gt;aws&#45;c&#45;http -->
<g id="edge1" class="edge">
<title>aws&#45;c&#45;compression&#45;&gt;aws&#45;c&#45;http</title>
<path fill="none" stroke="black" d="M191.31,-359.7C191.31,-352.41 191.31,-343.73 191.31,-335.54"/>
<polygon fill="black" stroke="black" points="194.81,-335.62 191.31,-325.62 187.81,-335.62 194.81,-335.62"/>
</g>
<!-- aws&#45;c&#45;mqtt -->
<g id="node4" class="node">
<title>aws&#45;c&#45;mqtt</title>
<g id="a_node4"><a xlink:href="https://github.com/conda-forge/aws-c-mqtt-feedstock" xlink:title="aws c mqtt">
<ellipse fill="#fde725" stroke="black" cx="81.31" cy="-162" rx="66.47" ry="18"/>
<text text-anchor="middle" x="81.31" y="-157.32" font-family="Times,serif" font-size="14.00">aws c mqtt</text>
</a>
</g>
</g>
<!-- aws&#45;c&#45;http&#45;&gt;aws&#45;c&#45;mqtt -->
<g id="edge3" class="edge">
<title>aws&#45;c&#45;http&#45;&gt;aws&#45;c&#45;mqtt</title>
<path fill="none" stroke="black" d="M178.26,-288.15C159.24,-263.6 123.74,-217.77 101.38,-188.91"/>
<polygon fill="black" stroke="black" points="104.16,-186.78 95.27,-181.02 98.63,-191.07 104.16,-186.78"/>
</g>
<!-- aws&#45;c&#45;auth -->
<g id="node5" class="node">
<title>aws&#45;c&#45;auth</title>
<g id="a_node5"><a xlink:href="https://github.com/conda-forge/aws-c-auth-feedstock" xlink:title="aws c auth">
<ellipse fill="#fde725" stroke="black" cx="284.31" cy="-234" rx="64.89" ry="18"/>
<text text-anchor="middle" x="284.31" y="-229.32" font-family="Times,serif" font-size="14.00">aws c auth</text>
</a>
</g>
</g>
<!-- aws&#45;c&#45;http&#45;&gt;aws&#45;c&#45;auth -->
<g id="edge2" class="edge">
<title>aws&#45;c&#45;http&#45;&gt;aws&#45;c&#45;auth</title>
<path fill="none" stroke="black" d="M212.88,-288.76C225,-279.64 240.33,-268.1 253.68,-258.06"/>
<polygon fill="black" stroke="black" points="255.44,-261.11 261.33,-252.3 251.23,-255.52 255.44,-261.11"/>
</g>
<!-- aws&#45;crt&#45;cpp -->
<g id="node6" class="node">
<title>aws&#45;crt&#45;cpp</title>
<g id="a_node6"><a xlink:href="https://github.com/conda-forge/aws-crt-cpp-feedstock" xlink:title="aws crt cpp">
<ellipse fill="#fde725" stroke="black" cx="144.31" cy="-90" rx="69.1" ry="18"/>
<text text-anchor="middle" x="144.31" y="-85.33" font-family="Times,serif" font-size="14.00">aws crt cpp</text>
</a>
</g>
</g>
<!-- aws&#45;c&#45;http&#45;&gt;aws&#45;crt&#45;cpp -->
<g id="edge5" class="edge">
<title>aws&#45;c&#45;http&#45;&gt;aws&#45;crt&#45;cpp</title>
<path fill="none" stroke="black" d="M152.38,-291.55C107.82,-273.8 37.04,-237.85 6.31,-180 -1.2,-165.87 -2.75,-157.19 6.31,-144 21.38,-122.07 46.87,-109.21 71.87,-101.67"/>
<polygon fill="black" stroke="black" points="72.72,-105.07 81.45,-99.06 70.88,-98.32 72.72,-105.07"/>
</g>
<!-- aws&#45;c&#45;s3 -->
<g id="node7" class="node">
<title>aws&#45;c&#45;s3</title>
<g id="a_node7"><a xlink:href="https://github.com/conda-forge/aws-c-s3-feedstock" xlink:title="aws c s3">
<ellipse fill="#fde725" stroke="black" cx="219.31" cy="-162" rx="53.84" ry="18"/>
<text text-anchor="middle" x="219.31" y="-157.32" font-family="Times,serif" font-size="14.00">aws c s3</text>
</a>
</g>
</g>
<!-- aws&#45;c&#45;http&#45;&gt;aws&#45;c&#45;s3 -->
<g id="edge4" class="edge">
<title>aws&#45;c&#45;http&#45;&gt;aws&#45;c&#45;s3</title>
<path fill="none" stroke="black" d="M194.74,-287.59C199.49,-263.5 208.12,-219.75 213.78,-191.03"/>
<polygon fill="black" stroke="black" points="217.14,-192.08 215.64,-181.6 210.27,-190.73 217.14,-192.08"/>
</g>
<!-- awscrt -->
<g id="node8" class="node">
<title>awscrt</title>
<g id="a_node8"><a xlink:href="https://github.com/conda-forge/awscrt-feedstock" xlink:title="awscrt">
<ellipse fill="#fde725" stroke="black" cx="279.31" cy="-90" rx="44.89" ry="18"/>
<text text-anchor="middle" x="279.31" y="-85.33" font-family="Times,serif" font-size="14.00">awscrt</text>
</a>
</g>
</g>
<!-- aws&#45;c&#45;http&#45;&gt;awscrt -->
<g id="edge6" class="edge">
<title>aws&#45;c&#45;http&#45;&gt;awscrt</title>
<path fill="none" stroke="black" d="M253.79,-302.61C290.61,-297.58 334.51,-284.53 358.31,-252 391.02,-207.3 340.11,-146.96 306,-114.32"/>
<polygon fill="black" stroke="black" points="308.57,-111.92 298.86,-107.67 303.8,-117.05 308.57,-111.92"/>
</g>
<!-- aws&#45;c&#45;mqtt&#45;&gt;aws&#45;crt&#45;cpp -->
<g id="edge7" class="edge">
<title>aws&#45;c&#45;mqtt&#45;&gt;aws&#45;crt&#45;cpp</title>
<path fill="none" stroke="black" d="M96.56,-144.05C104.07,-135.71 113.27,-125.49 121.58,-116.25"/>
<polygon fill="black" stroke="black" points="124.1,-118.69 128.19,-108.91 118.9,-114.01 124.1,-118.69"/>
</g>
<!-- aws&#45;c&#45;mqtt&#45;&gt;awscrt -->
<g id="edge8" class="edge">
<title>aws&#45;c&#45;mqtt&#45;&gt;awscrt</title>
<path fill="none" stroke="black" d="M120.43,-147.17C153.68,-135.41 201.38,-118.55 235.82,-106.37"/>
<polygon fill="black" stroke="black" points="236.82,-109.74 245.08,-103.1 234.48,-103.14 236.82,-109.74"/>
</g>
<!-- aws&#45;c&#45;auth&#45;&gt;aws&#45;crt&#45;cpp -->
<g id="edge10" class="edge">
<title>aws&#45;c&#45;auth&#45;&gt;aws&#45;crt&#45;cpp</title>
<path fill="none" stroke="black" d="M289.14,-215.86C293.49,-196.55 297.17,-165.11 282.31,-144 272.56,-130.14 236.14,-116.48 203.16,-106.49"/>
<polygon fill="black" stroke="black" points="204.19,-103.15 193.61,-103.68 202.21,-109.86 204.19,-103.15"/>
</g>
<!-- aws&#45;c&#45;auth&#45;&gt;aws&#45;c&#45;s3 -->
<g id="edge9" class="edge">
<title>aws&#45;c&#45;auth&#45;&gt;aws&#45;c&#45;s3</title>
<path fill="none" stroke="black" d="M268.58,-216.05C260.64,-207.5 250.86,-196.97 242.11,-187.56"/>
<polygon fill="black" stroke="black" points="244.85,-185.36 235.48,-180.42 239.72,-190.13 244.85,-185.36"/>
</g>
<!-- aws&#45;c&#45;auth&#45;&gt;awscrt -->
<g id="edge11" class="edge">
<title>aws&#45;c&#45;auth&#45;&gt;awscrt</title>
<path fill="none" stroke="black" d="M297.46,-215.91C304.23,-206.01 311.8,-192.96 315.31,-180 319.49,-164.56 320.01,-159.29 315.31,-144 312.3,-134.22 306.81,-124.62 301,-116.34"/>
<polygon fill="black" stroke="black" points="303.9,-114.38 295.08,-108.5 298.31,-118.59 303.9,-114.38"/>
</g>
<!-- aws&#45;crt&#45;cpp&#45;&gt;aws&#45;sdk&#45;cpp -->
<g id="edge12" class="edge">
<title>aws&#45;crt&#45;cpp&#45;&gt;aws&#45;sdk&#45;cpp</title>
<path fill="none" stroke="black" d="M144.31,-71.7C144.31,-64.41 144.31,-55.73 144.31,-47.54"/>
<polygon fill="black" stroke="black" points="147.81,-47.62 144.31,-37.62 140.81,-47.62 147.81,-47.62"/>
</g>
<!-- aws&#45;c&#45;s3&#45;&gt;aws&#45;crt&#45;cpp -->
<g id="edge13" class="edge">
<title>aws&#45;c&#45;s3&#45;&gt;aws&#45;crt&#45;cpp</title>
<path fill="none" stroke="black" d="M201.91,-144.76C192.58,-136.06 180.9,-125.15 170.49,-115.43"/>
<polygon fill="black" stroke="black" points="172.94,-112.93 163.24,-108.67 168.16,-118.05 172.94,-112.93"/>
</g>
<!-- aws&#45;c&#45;s3&#45;&gt;awscrt -->
<g id="edge14" class="edge">
<title>aws&#45;c&#45;s3&#45;&gt;awscrt</title>
<path fill="none" stroke="black" d="M233.53,-144.41C240.78,-135.95 249.74,-125.49 257.81,-116.08"/>
<polygon fill="black" stroke="black" points="260.36,-118.49 264.21,-108.62 255.04,-113.93 260.36,-118.49"/>
</g>
</g>
</svg>
