<?xml version="1.0" encoding="UTF-8" standalone="no"?>
<!DOCTYPE svg PUBLIC "-//W3C//DTD SVG 1.1//EN"
 "http://www.w3.org/Graphics/SVG/1.1/DTD/svg11.dtd">
<!-- Generated by graphviz version 13.1.2 (20250809.0930)
 -->
<!-- Pages: 1 -->
<svg width="628pt" height="548pt"
 viewBox="0.00 0.00 628.00 548.00" xmlns="http://www.w3.org/2000/svg" xmlns:xlink="http://www.w3.org/1999/xlink">
<g id="graph0" class="graph" transform="scale(1 1) rotate(0) translate(4 544)">
<polygon fill="white" stroke="none" points="-4,4 -4,-544 624.36,-544 624.36,4 -4,4"/>
<!-- arrow&#45;cpp -->
<g id="node1" class="node">
<title>arrow&#45;cpp</title>
<g id="a_node1"><a xlink:href="https://github.com/conda-forge/arrow-cpp-feedstock" xlink:title="arrow cpp">
<ellipse fill="#fde725" stroke="black" cx="398" cy="-18" rx="61.73" ry="18"/>
<text xml:space="preserve" text-anchor="middle" x="398" y="-13.32" font-family="Times,serif" font-size="14.00">arrow cpp</text>
</a>
</g>
</g>
<!-- tiledb -->
<g id="node2" class="node">
<title>tiledb</title>
<g id="a_node2"><a xlink:href="https://github.com/conda-forge/tiledb-feedstock" xlink:title="tiledb">
<ellipse fill="#fde725" stroke="black" cx="538" cy="-18" rx="40.16" ry="18"/>
<text xml:space="preserve" text-anchor="middle" x="538" y="-13.32" font-family="Times,serif" font-size="14.00">tiledb</text>
</a>
</g>
</g>
<!-- aws&#45;sdk&#45;cpp -->
<g id="node3" class="node">
<title>aws&#45;sdk&#45;cpp</title>
<g id="a_node3"><a xlink:href="https://github.com/conda-forge/aws-sdk-cpp-feedstock" xlink:title="aws sdk cpp">
<ellipse fill="#fde725" stroke="black" cx="458" cy="-90" rx="72.25" ry="18"/>
<text xml:space="preserve" text-anchor="middle" x="458" y="-85.33" font-family="Times,serif" font-size="14.00">aws sdk cpp</text>
</a>
</g>
</g>
<!-- aws&#45;sdk&#45;cpp&#45;&gt;arrow&#45;cpp -->
<g id="edge1" class="edge">
<title>aws&#45;sdk&#45;cpp&#45;&gt;arrow&#45;cpp</title>
<path fill="none" stroke="black" d="M443.48,-72.05C436.33,-63.71 427.56,-53.49 419.64,-44.25"/>
<polygon fill="black" stroke="black" points="422.54,-42.25 413.38,-36.94 417.23,-46.81 422.54,-42.25"/>
</g>
<!-- aws&#45;sdk&#45;cpp&#45;&gt;tiledb -->
<g id="edge2" class="edge">
<title>aws&#45;sdk&#45;cpp&#45;&gt;tiledb</title>
<path fill="none" stroke="black" d="M476.96,-72.41C487.31,-63.35 500.3,-51.99 511.63,-42.08"/>
<polygon fill="black" stroke="black" points="513.91,-44.73 519.13,-35.51 509.3,-39.46 513.91,-44.73"/>
</g>
<!-- aws&#45;c&#45;event&#45;stream -->
<g id="node4" class="node">
<title>aws&#45;c&#45;event&#45;stream</title>
<g id="a_node4"><a xlink:href="https://github.com/conda-forge/aws-c-event-stream-feedstock" xlink:title="aws c event stream">
<ellipse fill="#fde725" stroke="black" cx="175" cy="-234" rx="108.55" ry="18"/>
<text xml:space="preserve" text-anchor="middle" x="175" y="-229.32" font-family="Times,serif" font-size="14.00">aws c event stream</text>
</a>
</g>
</g>
<!-- aws&#45;c&#45;event&#45;stream&#45;&gt;aws&#45;sdk&#45;cpp -->
<g id="edge3" class="edge">
<title>aws&#45;c&#45;event&#45;stream&#45;&gt;aws&#45;sdk&#45;cpp</title>
<path fill="none" stroke="black" d="M186.38,-215.86C200.7,-195.65 227.19,-162.46 258,-144 295.95,-121.27 343.66,-108.15 382.96,-100.64"/>
<polygon fill="black" stroke="black" points="383.37,-104.13 392.59,-98.9 382.12,-97.24 383.37,-104.13"/>
</g>
<!-- aws&#45;crt&#45;cpp -->
<g id="node5" class="node">
<title>aws&#45;crt&#45;cpp</title>
<g id="a_node5"><a xlink:href="https://github.com/conda-forge/aws-crt-cpp-feedstock" xlink:title="aws crt cpp">
<ellipse fill="#fde725" stroke="black" cx="508" cy="-162" rx="69.1" ry="18"/>
<text xml:space="preserve" text-anchor="middle" x="508" y="-157.32" font-family="Times,serif" font-size="14.00">aws crt cpp</text>
</a>
</g>
</g>
<!-- aws&#45;c&#45;event&#45;stream&#45;&gt;aws&#45;crt&#45;cpp -->
<g id="edge4" class="edge">
<title>aws&#45;c&#45;event&#45;stream&#45;&gt;aws&#45;crt&#45;cpp</title>
<path fill="none" stroke="black" d="M240.39,-219.25C299.47,-206.84 385.88,-188.67 444.4,-176.37"/>
<polygon fill="black" stroke="black" points="444.8,-179.86 453.87,-174.38 443.36,-173.01 444.8,-179.86"/>
</g>
<!-- awscrt -->
<g id="node6" class="node">
<title>awscrt</title>
<g id="a_node6"><a xlink:href="https://github.com/conda-forge/awscrt-feedstock" xlink:title="awscrt">
<ellipse fill="#fde725" stroke="black" cx="312" cy="-162" rx="44.9" ry="18"/>
<text xml:space="preserve" text-anchor="middle" x="312" y="-157.32" font-family="Times,serif" font-size="14.00">awscrt</text>
</a>
</g>
</g>
<!-- aws&#45;c&#45;event&#45;stream&#45;&gt;awscrt -->
<g id="edge5" class="edge">
<title>aws&#45;c&#45;event&#45;stream&#45;&gt;awscrt</title>
<path fill="none" stroke="black" d="M207.47,-216.41C227.77,-206.04 253.99,-192.64 275.08,-181.86"/>
<polygon fill="black" stroke="black" points="276.63,-185.01 283.94,-177.34 273.44,-178.77 276.63,-185.01"/>
</g>
<!-- aws&#45;crt&#45;cpp&#45;&gt;arrow&#45;cpp -->
<g id="edge6" class="edge">
<title>aws&#45;crt&#45;cpp&#45;&gt;arrow&#45;cpp</title>
<path fill="none" stroke="black" d="M448.95,-152.33C422.28,-145.14 393.18,-132 377,-108 364.63,-89.65 371.96,-64.89 381.2,-46.14"/>
<polygon fill="black" stroke="black" points="384.2,-47.96 385.86,-37.5 378.04,-44.64 384.2,-47.96"/>
</g>
<!-- aws&#45;crt&#45;cpp&#45;&gt;tiledb -->
<g id="edge7" class="edge">
<title>aws&#45;crt&#45;cpp&#45;&gt;tiledb</title>
<path fill="none" stroke="black" d="M521.15,-143.91C527.92,-134.01 535.49,-120.96 539,-108 544.32,-88.37 543.9,-65.4 542.25,-47.71"/>
<polygon fill="black" stroke="black" points="545.74,-47.45 541.13,-37.92 538.78,-48.25 545.74,-47.45"/>
</g>
<!-- aws&#45;crt&#45;cpp&#45;&gt;aws&#45;sdk&#45;cpp -->
<g id="edge8" class="edge">
<title>aws&#45;crt&#45;cpp&#45;&gt;aws&#45;sdk&#45;cpp</title>
<path fill="none" stroke="black" d="M495.9,-144.05C490.12,-135.97 483.09,-126.12 476.65,-117.11"/>
<polygon fill="black" stroke="black" points="479.53,-115.12 470.87,-109.02 473.84,-119.19 479.53,-115.12"/>
</g>
<!-- s2n -->
<g id="node7" class="node">
<title>s2n</title>
<g id="a_node7"><a xlink:href="https://github.com/conda-forge/s2n-feedstock" xlink:title="s2n">
<ellipse fill="#35b779" stroke="black" cx="134" cy="-522" rx="29.11" ry="18"/>
<text xml:space="preserve" text-anchor="middle" x="134" y="-517.33" font-family="Times,serif" font-size="14.00">s2n</text>
</a>
</g>
</g>
<!-- s2n&#45;&gt;awscrt -->
<g id="edge9" class="edge">
<title>s2n&#45;&gt;awscrt</title>
<path fill="none" stroke="black" d="M111.57,-510.24C73.42,-490.18 0,-443.23 0,-379 0,-379 0,-379 0,-305 0,-262.16 3.79,-243.06 37,-216 69.99,-189.13 186.39,-174.23 256.74,-167.49"/>
<polygon fill="black" stroke="black" points="256.9,-170.99 266.54,-166.58 256.26,-164.02 256.9,-170.99"/>
</g>
<!-- aws&#45;c&#45;io -->
<g id="node8" class="node">
<title>aws&#45;c&#45;io</title>
<g id="a_node8"><a xlink:href="https://github.com/conda-forge/aws-c-io-feedstock" xlink:title="aws c io">
<ellipse fill="#fde725" stroke="black" cx="316" cy="-450" rx="51.21" ry="18"/>
<text xml:space="preserve" text-anchor="middle" x="316" y="-445.32" font-family="Times,serif" font-size="14.00">aws c io</text>
</a>
</g>
</g>
<!-- s2n&#45;&gt;aws&#45;c&#45;io -->
<g id="edge10" class="edge">
<title>s2n&#45;&gt;aws&#45;c&#45;io</title>
<path fill="none" stroke="black" d="M158.17,-511.7C187.09,-500.58 236.07,-481.74 271.81,-467.99"/>
<polygon fill="black" stroke="black" points="272.95,-471.31 281.03,-464.45 270.44,-464.77 272.95,-471.31"/>
</g>
<!-- aws&#45;c&#45;io&#45;&gt;aws&#45;c&#45;event&#45;stream -->
<g id="edge11" class="edge">
<title>aws&#45;c&#45;io&#45;&gt;aws&#45;c&#45;event&#45;stream</title>
<path fill="none" stroke="black" d="M292.57,-433.56C262.85,-412.6 212.53,-372.16 188,-324 178.51,-305.37 175.39,-281.88 174.57,-263.71"/>
<polygon fill="black" stroke="black" points="178.08,-263.81 174.36,-253.89 171.08,-263.97 178.08,-263.81"/>
</g>
<!-- aws&#45;c&#45;io&#45;&gt;aws&#45;crt&#45;cpp -->
<g id="edge12" class="edge">
<title>aws&#45;c&#45;io&#45;&gt;aws&#45;crt&#45;cpp</title>
<path fill="none" stroke="black" d="M365.53,-445.08C410.69,-439.62 477.82,-426.66 528,-396 564.28,-373.83 571.54,-361.81 591,-324 613.24,-280.8 633.05,-257.63 608,-216 598.27,-199.83 581.76,-188.33 564.93,-180.27"/>
<polygon fill="black" stroke="black" points="566.42,-177.11 555.85,-176.3 563.61,-183.52 566.42,-177.11"/>
</g>
<!-- aws&#45;c&#45;io&#45;&gt;awscrt -->
<g id="edge13" class="edge">
<title>aws&#45;c&#45;io&#45;&gt;awscrt</title>
<path fill="none" stroke="black" d="M280.58,-436.63C192.95,-404.18 -21.44,-312.42 57,-216 81.65,-185.7 189.15,-172.16 256.46,-166.56"/>
<polygon fill="black" stroke="black" points="256.52,-170.06 266.21,-165.78 255.96,-163.09 256.52,-170.06"/>
</g>
<!-- aws&#45;c&#45;http -->
<g id="node9" class="node">
<title>aws&#45;c&#45;http</title>
<g id="a_node9"><a xlink:href="https://github.com/conda-forge/aws-c-http-feedstock" xlink:title="aws c http">
<ellipse fill="#fde725" stroke="black" cx="367" cy="-378" rx="63.31" ry="18"/>
<text xml:space="preserve" text-anchor="middle" x="367" y="-373.32" font-family="Times,serif" font-size="14.00">aws c http</text>
</a>
</g>
</g>
<!-- aws&#45;c&#45;io&#45;&gt;aws&#45;c&#45;http -->
<g id="edge14" class="edge">
<title>aws&#45;c&#45;io&#45;&gt;aws&#45;c&#45;http</title>
<path fill="none" stroke="black" d="M328.35,-432.05C334.3,-423.89 341.56,-413.91 348.19,-404.82"/>
<polygon fill="black" stroke="black" points="350.82,-407.16 353.88,-397.01 345.16,-403.03 350.82,-407.16"/>
</g>
<!-- aws&#45;c&#45;mqtt -->
<g id="node10" class="node">
<title>aws&#45;c&#45;mqtt</title>
<g id="a_node10"><a xlink:href="https://github.com/conda-forge/aws-c-mqtt-feedstock" xlink:title="aws c mqtt">
<ellipse fill="#fde725" stroke="black" cx="263" cy="-306" rx="66.47" ry="18"/>
<text xml:space="preserve" text-anchor="middle" x="263" y="-301.32" font-family="Times,serif" font-size="14.00">aws c mqtt</text>
</a>
</g>
</g>
<!-- aws&#45;c&#45;io&#45;&gt;aws&#45;c&#45;mqtt -->
<g id="edge15" class="edge">
<title>aws&#45;c&#45;io&#45;&gt;aws&#45;c&#45;mqtt</title>
<path fill="none" stroke="black" d="M309.05,-431.87C304.89,-421.52 299.55,-408.04 295,-396 287.29,-375.59 278.96,-352.38 272.73,-334.79"/>
<polygon fill="black" stroke="black" points="276.1,-333.82 269.48,-325.55 269.5,-336.14 276.1,-333.82"/>
</g>
<!-- aws&#45;c&#45;auth -->
<g id="node11" class="node">
<title>aws&#45;c&#45;auth</title>
<g id="a_node11"><a xlink:href="https://github.com/conda-forge/aws-c-auth-feedstock" xlink:title="aws c auth">
<ellipse fill="#fde725" stroke="black" cx="488" cy="-306" rx="64.89" ry="18"/>
<text xml:space="preserve" text-anchor="middle" x="488" y="-301.32" font-family="Times,serif" font-size="14.00">aws c auth</text>
</a>
</g>
</g>
<!-- aws&#45;c&#45;io&#45;&gt;aws&#45;c&#45;auth -->
<g id="edge16" class="edge">
<title>aws&#45;c&#45;io&#45;&gt;aws&#45;c&#45;auth</title>
<path fill="none" stroke="black" d="M356.88,-438.81C382.83,-430.69 415.76,-417.1 439,-396 457.34,-379.35 470.3,-354.18 478.27,-334.86"/>
<polygon fill="black" stroke="black" points="481.48,-336.26 481.84,-325.67 474.96,-333.72 481.48,-336.26"/>
</g>
<!-- aws&#45;c&#45;s3 -->
<g id="node12" class="node">
<title>aws&#45;c&#45;s3</title>
<g id="a_node12"><a xlink:href="https://github.com/conda-forge/aws-c-s3-feedstock" xlink:title="aws c s3">
<ellipse fill="#fde725" stroke="black" cx="508" cy="-234" rx="53.84" ry="18"/>
<text xml:space="preserve" text-anchor="middle" x="508" y="-229.32" font-family="Times,serif" font-size="14.00">aws c s3</text>
</a>
</g>
</g>
<!-- aws&#45;c&#45;io&#45;&gt;aws&#45;c&#45;s3 -->
<g id="edge17" class="edge">
<title>aws&#45;c&#45;io&#45;&gt;aws&#45;c&#45;s3</title>
<path fill="none" stroke="black" d="M362.52,-442C422.74,-430.04 524.4,-399.2 562,-324 569.16,-309.69 568.19,-302.75 562,-288 557.18,-276.53 548.54,-266.29 539.56,-257.94"/>
<polygon fill="black" stroke="black" points="541.97,-255.4 532.1,-251.52 537.4,-260.7 541.97,-255.4"/>
</g>
<!-- aws&#45;c&#45;http&#45;&gt;aws&#45;crt&#45;cpp -->
<g id="edge18" class="edge">
<title>aws&#45;c&#45;http&#45;&gt;aws&#45;crt&#45;cpp</title>
<path fill="none" stroke="black" d="M429.5,-374.62C471.74,-369.84 526.15,-357.05 562,-324 598.3,-290.53 611.36,-259.5 588,-216 580.52,-202.06 567.58,-191.17 554.26,-182.99"/>
<polygon fill="black" stroke="black" points="556.31,-180.13 545.89,-178.25 552.86,-186.22 556.31,-180.13"/>
</g>
<!-- aws&#45;c&#45;http&#45;&gt;awscrt -->
<g id="edge19" class="edge">
<title>aws&#45;c&#45;http&#45;&gt;awscrt</title>
<path fill="none" stroke="black" d="M362.59,-359.85C353.14,-323.07 330.84,-236.29 319.26,-191.24"/>
<polygon fill="black" stroke="black" points="322.68,-190.51 316.81,-181.7 315.91,-192.25 322.68,-190.51"/>
</g>
<!-- aws&#45;c&#45;http&#45;&gt;aws&#45;c&#45;mqtt -->
<g id="edge20" class="edge">
<title>aws&#45;c&#45;http&#45;&gt;aws&#45;c&#45;mqtt</title>
<path fill="none" stroke="black" d="M343.14,-360.94C329.23,-351.58 311.49,-339.64 296.23,-329.37"/>
<polygon fill="black" stroke="black" points="298.61,-326.75 288.36,-324.07 294.71,-332.56 298.61,-326.75"/>
</g>
<!-- aws&#45;c&#45;http&#45;&gt;aws&#45;c&#45;auth -->
<g id="edge21" class="edge">
<title>aws&#45;c&#45;http&#45;&gt;aws&#45;c&#45;auth</title>
<path fill="none" stroke="black" d="M394.15,-361.29C410.97,-351.56 432.78,-338.95 451.14,-328.32"/>
<polygon fill="black" stroke="black" points="452.72,-331.45 459.63,-323.41 449.22,-325.39 452.72,-331.45"/>
</g>
<!-- aws&#45;c&#45;http&#45;&gt;aws&#45;c&#45;s3 -->
<g id="edge22" class="edge">
<title>aws&#45;c&#45;http&#45;&gt;aws&#45;c&#45;s3</title>
<path fill="none" stroke="black" d="M372.71,-359.79C379.85,-340.42 393.65,-308.92 414,-288 427.96,-273.65 446.63,-262.05 463.66,-253.4"/>
<polygon fill="black" stroke="black" points="465.16,-256.57 472.63,-249.06 462.11,-250.27 465.16,-256.57"/>
</g>
<!-- aws&#45;c&#45;mqtt&#45;&gt;aws&#45;crt&#45;cpp -->
<g id="edge23" class="edge">
<title>aws&#45;c&#45;mqtt&#45;&gt;aws&#45;crt&#45;cpp</title>
<path fill="none" stroke="black" d="M290.16,-289.26C334.21,-263.72 421.34,-213.23 471.01,-184.44"/>
<polygon fill="black" stroke="black" points="472.52,-187.61 479.41,-179.57 469.01,-181.55 472.52,-187.61"/>
</g>
<!-- aws&#45;c&#45;mqtt&#45;&gt;awscrt -->
<g id="edge24" class="edge">
<title>aws&#45;c&#45;mqtt&#45;&gt;awscrt</title>
<path fill="none" stroke="black" d="M274.4,-287.99C280.7,-277.9 288.2,-264.65 293,-252 300.42,-232.44 305.25,-209.3 308.18,-191.51"/>
<polygon fill="black" stroke="black" points="311.64,-192.08 309.69,-181.67 304.72,-191.02 311.64,-192.08"/>
</g>
<!-- aws&#45;c&#45;auth&#45;&gt;aws&#45;crt&#45;cpp -->
<g id="edge25" class="edge">
<title>aws&#45;c&#45;auth&#45;&gt;aws&#45;crt&#45;cpp</title>
<path fill="none" stroke="black" d="M525.47,-291.04C542.6,-282.55 561.22,-269.84 571,-252 578.69,-237.97 577.75,-230.51 571,-216 565.4,-203.97 555.58,-193.7 545.34,-185.49"/>
<polygon fill="black" stroke="black" points="547.66,-182.85 537.54,-179.72 543.49,-188.48 547.66,-182.85"/>
</g>
<!-- aws&#45;c&#45;auth&#45;&gt;awscrt -->
<g id="edge26" class="edge">
<title>aws&#45;c&#45;auth&#45;&gt;awscrt</title>
<path fill="none" stroke="black" d="M467.81,-288.71C436.48,-263.43 376.05,-214.68 340.36,-185.88"/>
<polygon fill="black" stroke="black" points="342.58,-183.17 332.6,-179.62 338.18,-188.62 342.58,-183.17"/>
</g>
<!-- aws&#45;c&#45;auth&#45;&gt;aws&#45;c&#45;s3 -->
<g id="edge27" class="edge">
<title>aws&#45;c&#45;auth&#45;&gt;aws&#45;c&#45;s3</title>
<path fill="none" stroke="black" d="M492.94,-287.7C495.08,-280.24 497.62,-271.32 500.01,-262.97"/>
<polygon fill="black" stroke="black" points="503.32,-264.14 502.7,-253.56 496.58,-262.21 503.32,-264.14"/>
</g>
<!-- aws&#45;c&#45;s3&#45;&gt;aws&#45;crt&#45;cpp -->
<g id="edge28" class="edge">
<title>aws&#45;c&#45;s3&#45;&gt;aws&#45;crt&#45;cpp</title>
<path fill="none" stroke="black" d="M508,-215.7C508,-208.41 508,-199.73 508,-191.54"/>
<polygon fill="black" stroke="black" points="511.5,-191.62 508,-181.62 504.5,-191.62 511.5,-191.62"/>
</g>
<!-- aws&#45;c&#45;s3&#45;&gt;awscrt -->
<g id="edge29" class="edge">
<title>aws&#45;c&#45;s3&#45;&gt;awscrt</title>
<path fill="none" stroke="black" d="M472.05,-220.16C439.1,-208.39 390.25,-190.95 355.19,-178.43"/>
<polygon fill="black" stroke="black" points="356.81,-175.29 346.21,-175.22 354.45,-181.88 356.81,-175.29"/>
</g>
</g>
</svg>
