<?xml version="1.0" encoding="UTF-8" standalone="no"?>
<!DOCTYPE svg PUBLIC "-//W3C//DTD SVG 1.1//EN"
 "http://www.w3.org/Graphics/SVG/1.1/DTD/svg11.dtd">
<!-- Generated by graphviz version 12.0.0 (20240803.0821)
 -->
<!-- Pages: 1 -->
<svg width="559pt" height="260pt"
 viewBox="0.00 0.00 559.48 260.00" xmlns="http://www.w3.org/2000/svg" xmlns:xlink="http://www.w3.org/1999/xlink">
<g id="graph0" class="graph" transform="scale(1 1) rotate(0) translate(4 256)">
<polygon fill="white" stroke="none" points="-4,4 -4,-256 555.48,-256 555.48,4 -4,4"/>
<!-- aws&#45;c&#45;event&#45;stream -->
<g id="node1" class="node">
<title>aws&#45;c&#45;event&#45;stream</title>
<g id="a_node1"><a xlink:href="https://github.com/conda-forge/aws-c-event-stream-feedstock" xlink:title="aws c event stream">
<ellipse fill="#35b779" stroke="black" cx="409.6" cy="-90" rx="108.55" ry="18"/>
<text text-anchor="middle" x="409.6" y="-85.33" font-family="Times,serif" font-size="14.00">aws c event stream</text>
</a>
</g>
</g>
<!-- aws&#45;crt&#45;cpp -->
<g id="node5" class="node">
<title>aws&#45;crt&#45;cpp</title>
<g id="a_node5"><a xlink:href="https://github.com/conda-forge/aws-crt-cpp-feedstock" xlink:title="aws crt cpp">
<ellipse fill="#fde725" stroke="black" cx="91.6" cy="-18" rx="69.1" ry="18"/>
<text text-anchor="middle" x="91.6" y="-13.32" font-family="Times,serif" font-size="14.00">aws crt cpp</text>
</a>
</g>
</g>
<!-- aws&#45;c&#45;event&#45;stream&#45;&gt;aws&#45;crt&#45;cpp -->
<g id="edge1" class="edge">
<title>aws&#45;c&#45;event&#45;stream&#45;&gt;aws&#45;crt&#45;cpp</title>
<path fill="none" stroke="black" d="M346.02,-75C290.31,-62.74 209.82,-45.02 154.36,-32.81"/>
<polygon fill="black" stroke="black" points="155.27,-29.43 144.75,-30.7 153.76,-36.27 155.27,-29.43"/>
</g>
<!-- awscrt -->
<g id="node7" class="node">
<title>awscrt</title>
<g id="a_node7"><a xlink:href="https://github.com/conda-forge/awscrt-feedstock" xlink:title="awscrt">
<ellipse fill="#fde725" stroke="black" cx="409.6" cy="-18" rx="44.89" ry="18"/>
<text text-anchor="middle" x="409.6" y="-13.32" font-family="Times,serif" font-size="14.00">awscrt</text>
</a>
</g>
</g>
<!-- aws&#45;c&#45;event&#45;stream&#45;&gt;awscrt -->
<g id="edge2" class="edge">
<title>aws&#45;c&#45;event&#45;stream&#45;&gt;awscrt</title>
<path fill="none" stroke="black" d="M409.6,-71.7C409.6,-64.41 409.6,-55.73 409.6,-47.54"/>
<polygon fill="black" stroke="black" points="413.1,-47.62 409.6,-37.62 406.1,-47.62 413.1,-47.62"/>
</g>
<!-- aws&#45;c&#45;http -->
<g id="node2" class="node">
<title>aws&#45;c&#45;http</title>
<g id="a_node2"><a xlink:href="https://github.com/conda-forge/aws-c-http-feedstock" xlink:title="aws c http">
<ellipse fill="#35b779" stroke="black" cx="184.6" cy="-234" rx="63.31" ry="18"/>
<text text-anchor="middle" x="184.6" y="-229.32" font-family="Times,serif" font-size="14.00">aws c http</text>
</a>
</g>
</g>
<!-- aws&#45;c&#45;mqtt -->
<g id="node3" class="node">
<title>aws&#45;c&#45;mqtt</title>
<g id="a_node3"><a xlink:href="https://github.com/conda-forge/aws-c-mqtt-feedstock" xlink:title="aws c mqtt">
<ellipse fill="#fde725" stroke="black" cx="91.6" cy="-90" rx="66.47" ry="18"/>
<text text-anchor="middle" x="91.6" y="-85.33" font-family="Times,serif" font-size="14.00">aws c mqtt</text>
</a>
</g>
</g>
<!-- aws&#45;c&#45;http&#45;&gt;aws&#45;c&#45;mqtt -->
<g id="edge4" class="edge">
<title>aws&#45;c&#45;http&#45;&gt;aws&#45;c&#45;mqtt</title>
<path fill="none" stroke="black" d="M153.68,-217.89C138.47,-208.92 121.17,-196.13 110.6,-180 98.89,-162.11 94.25,-138.26 92.48,-119.75"/>
<polygon fill="black" stroke="black" points="95.99,-119.71 91.79,-109.99 89,-120.21 95.99,-119.71"/>
</g>
<!-- aws&#45;c&#45;auth -->
<g id="node4" class="node">
<title>aws&#45;c&#45;auth</title>
<g id="a_node4"><a xlink:href="https://github.com/conda-forge/aws-c-auth-feedstock" xlink:title="aws c auth">
<ellipse fill="#fde725" stroke="black" cx="184.6" cy="-162" rx="64.89" ry="18"/>
<text text-anchor="middle" x="184.6" y="-157.32" font-family="Times,serif" font-size="14.00">aws c auth</text>
</a>
</g>
</g>
<!-- aws&#45;c&#45;http&#45;&gt;aws&#45;c&#45;auth -->
<g id="edge3" class="edge">
<title>aws&#45;c&#45;http&#45;&gt;aws&#45;c&#45;auth</title>
<path fill="none" stroke="black" d="M184.6,-215.7C184.6,-208.41 184.6,-199.73 184.6,-191.54"/>
<polygon fill="black" stroke="black" points="188.1,-191.62 184.6,-181.62 181.1,-191.62 188.1,-191.62"/>
</g>
<!-- aws&#45;c&#45;http&#45;&gt;aws&#45;crt&#45;cpp -->
<g id="edge6" class="edge">
<title>aws&#45;c&#45;http&#45;&gt;aws&#45;crt&#45;cpp</title>
<path fill="none" stroke="black" d="M145.69,-219.43C101.74,-201.66 32.79,-165.79 5.6,-108 -1.21,-93.52 -2.2,-85.97 5.6,-72 13.73,-57.44 27.68,-46.39 42.01,-38.24"/>
<polygon fill="black" stroke="black" points="43.34,-41.5 50.58,-33.76 40.1,-35.29 43.34,-41.5"/>
</g>
<!-- aws&#45;c&#45;s3 -->
<g id="node6" class="node">
<title>aws&#45;c&#45;s3</title>
<g id="a_node6"><a xlink:href="https://github.com/conda-forge/aws-c-s3-feedstock" xlink:title="aws c s3">
<ellipse fill="#fde725" stroke="black" cx="229.6" cy="-90" rx="53.84" ry="18"/>
<text text-anchor="middle" x="229.6" y="-85.33" font-family="Times,serif" font-size="14.00">aws c s3</text>
</a>
</g>
</g>
<!-- aws&#45;c&#45;http&#45;&gt;aws&#45;c&#45;s3 -->
<g id="edge5" class="edge">
<title>aws&#45;c&#45;http&#45;&gt;aws&#45;c&#45;s3</title>
<path fill="none" stroke="black" d="M217.73,-218.3C233.14,-209.57 249.94,-196.87 258.6,-180 268.89,-159.97 259.55,-135.55 248.81,-117.36"/>
<polygon fill="black" stroke="black" points="251.79,-115.52 243.45,-108.98 245.89,-119.29 251.79,-115.52"/>
</g>
<!-- aws&#45;c&#45;http&#45;&gt;awscrt -->
<g id="edge7" class="edge">
<title>aws&#45;c&#45;http&#45;&gt;awscrt</title>
<path fill="none" stroke="black" d="M247.97,-231.83C331.85,-226.45 477.01,-203.02 544.6,-108 553.88,-94.96 553.62,-85.22 544.6,-72 526.49,-45.44 492.86,-32.18 463.7,-25.58"/>
<polygon fill="black" stroke="black" points="464.77,-22.22 454.27,-23.66 463.37,-29.08 464.77,-22.22"/>
</g>
<!-- aws&#45;c&#45;mqtt&#45;&gt;aws&#45;crt&#45;cpp -->
<g id="edge8" class="edge">
<title>aws&#45;c&#45;mqtt&#45;&gt;aws&#45;crt&#45;cpp</title>
<path fill="none" stroke="black" d="M91.6,-71.7C91.6,-64.41 91.6,-55.73 91.6,-47.54"/>
<polygon fill="black" stroke="black" points="95.1,-47.62 91.6,-37.62 88.1,-47.62 95.1,-47.62"/>
</g>
<!-- aws&#45;c&#45;mqtt&#45;&gt;awscrt -->
<g id="edge9" class="edge">
<title>aws&#45;c&#45;mqtt&#45;&gt;awscrt</title>
<path fill="none" stroke="black" d="M141.21,-77.7C149.68,-75.78 158.39,-73.83 166.6,-72 233.47,-57.13 310.78,-40.34 359.91,-29.71"/>
<polygon fill="black" stroke="black" points="360.35,-33.2 369.38,-27.67 358.87,-26.36 360.35,-33.2"/>
</g>
<!-- aws&#45;c&#45;auth&#45;&gt;aws&#45;crt&#45;cpp -->
<g id="edge11" class="edge">
<title>aws&#45;c&#45;auth&#45;&gt;aws&#45;crt&#45;cpp</title>
<path fill="none" stroke="black" d="M120.5,-158.54C83.73,-153.43 40.29,-140.31 16.6,-108 7.14,-95.1 9.25,-86.21 16.6,-72 23.5,-58.69 35.45,-48 47.8,-39.81"/>
<polygon fill="black" stroke="black" points="49.26,-43.03 55.97,-34.82 45.61,-37.05 49.26,-43.03"/>
</g>
<!-- aws&#45;c&#45;auth&#45;&gt;aws&#45;c&#45;s3 -->
<g id="edge10" class="edge">
<title>aws&#45;c&#45;auth&#45;&gt;aws&#45;c&#45;s3</title>
<path fill="none" stroke="black" d="M195.5,-144.05C200.64,-136.06 206.89,-126.33 212.63,-117.4"/>
<polygon fill="black" stroke="black" points="215.53,-119.37 217.99,-109.06 209.64,-115.58 215.53,-119.37"/>
</g>
<!-- aws&#45;c&#45;auth&#45;&gt;awscrt -->
<g id="edge12" class="edge">
<title>aws&#45;c&#45;auth&#45;&gt;awscrt</title>
<path fill="none" stroke="black" d="M249.5,-160.61C338.79,-158.54 492.5,-148.94 527.6,-108 538.02,-95.85 536.3,-85.43 527.6,-72 512.95,-49.35 486.07,-36.29 461.67,-28.8"/>
<polygon fill="black" stroke="black" points="462.71,-25.46 452.14,-26.15 460.83,-32.21 462.71,-25.46"/>
</g>
<!-- aws&#45;c&#45;s3&#45;&gt;aws&#45;crt&#45;cpp -->
<g id="edge13" class="edge">
<title>aws&#45;c&#45;s3&#45;&gt;aws&#45;crt&#45;cpp</title>
<path fill="none" stroke="black" d="M201.01,-74.5C181.11,-64.4 154.28,-50.79 132.18,-39.58"/>
<polygon fill="black" stroke="black" points="133.93,-36.54 123.42,-35.14 130.76,-42.79 133.93,-36.54"/>
</g>
<!-- aws&#45;c&#45;s3&#45;&gt;awscrt -->
<g id="edge14" class="edge">
<title>aws&#45;c&#45;s3&#45;&gt;awscrt</title>
<path fill="none" stroke="black" d="M263.88,-75.67C293.36,-64.21 335.97,-47.64 367.51,-35.37"/>
<polygon fill="black" stroke="black" points="368.7,-38.66 376.75,-31.78 366.16,-32.14 368.7,-38.66"/>
</g>
</g>
</svg>
