<?xml version="1.0" encoding="UTF-8" standalone="no"?>
<!DOCTYPE svg PUBLIC "-//W3C//DTD SVG 1.1//EN"
 "http://www.w3.org/Graphics/SVG/1.1/DTD/svg11.dtd">
<!-- Generated by graphviz version 12.2.1 (20250203.1708)
 -->
<!-- Pages: 1 -->
<svg width="616pt" height="260pt"
 viewBox="0.00 0.00 616.13 260.00" xmlns="http://www.w3.org/2000/svg" xmlns:xlink="http://www.w3.org/1999/xlink">
<g id="graph0" class="graph" transform="scale(1 1) rotate(0) translate(4 256)">
<polygon fill="white" stroke="none" points="-4,4 -4,-256 612.13,-256 612.13,4 -4,4"/>
<!-- arrow&#45;cpp -->
<g id="node1" class="node">
<title>arrow&#45;cpp</title>
<g id="a_node1"><a xlink:href="https://github.com/conda-forge/arrow-cpp-feedstock" xlink:title="arrow cpp">
<ellipse fill="#fde725" stroke="black" cx="136.09" cy="-18" rx="61.73" ry="18"/>
<text text-anchor="middle" x="136.09" y="-13.32" font-family="Times,serif" font-size="14.00">arrow cpp</text>
</a>
</g>
</g>
<!-- tiledb -->
<g id="node2" class="node">
<title>tiledb</title>
<g id="a_node2"><a xlink:href="https://github.com/conda-forge/tiledb-feedstock" xlink:title="tiledb">
<ellipse fill="#fde725" stroke="black" cx="374.09" cy="-18" rx="40.16" ry="18"/>
<text text-anchor="middle" x="374.09" y="-13.32" font-family="Times,serif" font-size="14.00">tiledb</text>
</a>
</g>
</g>
<!-- aws&#45;sdk&#45;cpp -->
<g id="node3" class="node">
<title>aws&#45;sdk&#45;cpp</title>
<g id="a_node3"><a xlink:href="https://github.com/conda-forge/aws-sdk-cpp-feedstock" xlink:title="aws sdk cpp">
<ellipse fill="#fde725" stroke="black" cx="274.09" cy="-90" rx="72.25" ry="18"/>
<text text-anchor="middle" x="274.09" y="-85.33" font-family="Times,serif" font-size="14.00">aws sdk cpp</text>
</a>
</g>
</g>
<!-- aws&#45;sdk&#45;cpp&#45;&gt;arrow&#45;cpp -->
<g id="edge1" class="edge">
<title>aws&#45;sdk&#45;cpp&#45;&gt;arrow&#45;cpp</title>
<path fill="none" stroke="black" d="M243.12,-73.29C223.31,-63.24 197.43,-50.12 176.08,-39.28"/>
<polygon fill="black" stroke="black" points="177.86,-36.26 167.35,-34.86 174.69,-42.51 177.86,-36.26"/>
</g>
<!-- aws&#45;sdk&#45;cpp&#45;&gt;tiledb -->
<g id="edge2" class="edge">
<title>aws&#45;sdk&#45;cpp&#45;&gt;tiledb</title>
<path fill="none" stroke="black" d="M297.53,-72.59C311.36,-62.91 329,-50.56 343.87,-40.15"/>
<polygon fill="black" stroke="black" points="345.74,-43.11 351.93,-34.51 341.73,-37.38 345.74,-43.11"/>
</g>
<!-- aws&#45;c&#45;event&#45;stream -->
<g id="node4" class="node">
<title>aws&#45;c&#45;event&#45;stream</title>
<g id="a_node4"><a xlink:href="https://github.com/conda-forge/aws-c-event-stream-feedstock" xlink:title="aws c event stream">
<ellipse fill="#fde725" stroke="black" cx="130.09" cy="-162" rx="108.55" ry="18"/>
<text text-anchor="middle" x="130.09" y="-157.32" font-family="Times,serif" font-size="14.00">aws c event stream</text>
</a>
</g>
</g>
<!-- aws&#45;c&#45;event&#45;stream&#45;&gt;arrow&#45;cpp -->
<g id="edge3" class="edge">
<title>aws&#45;c&#45;event&#45;stream&#45;&gt;arrow&#45;cpp</title>
<path fill="none" stroke="black" d="M126.27,-143.56C122.86,-125.58 118.87,-96.77 122.09,-72 123.16,-63.76 125.13,-54.97 127.26,-46.97"/>
<polygon fill="black" stroke="black" points="130.6,-47.99 129.99,-37.42 123.87,-46.07 130.6,-47.99"/>
</g>
<!-- aws&#45;c&#45;event&#45;stream&#45;&gt;tiledb -->
<g id="edge4" class="edge">
<title>aws&#45;c&#45;event&#45;stream&#45;&gt;tiledb</title>
<path fill="none" stroke="black" d="M137.95,-143.59C147.93,-123.42 167.04,-90.58 193.09,-72 232.02,-44.21 285.46,-30.88 324.17,-24.56"/>
<polygon fill="black" stroke="black" points="324.32,-28.07 333.68,-23.11 323.26,-21.15 324.32,-28.07"/>
</g>
<!-- aws&#45;c&#45;event&#45;stream&#45;&gt;aws&#45;sdk&#45;cpp -->
<g id="edge5" class="edge">
<title>aws&#45;c&#45;event&#45;stream&#45;&gt;aws&#45;sdk&#45;cpp</title>
<path fill="none" stroke="black" d="M163.85,-144.59C184.14,-134.73 210.13,-122.09 231.78,-111.56"/>
<polygon fill="black" stroke="black" points="233.19,-114.77 240.66,-107.25 230.13,-108.47 233.19,-114.77"/>
</g>
<!-- awscrt -->
<g id="node5" class="node">
<title>awscrt</title>
<g id="a_node5"><a xlink:href="https://github.com/conda-forge/awscrt-feedstock" xlink:title="awscrt">
<ellipse fill="#fde725" stroke="black" cx="447.09" cy="-90" rx="44.9" ry="18"/>
<text text-anchor="middle" x="447.09" y="-85.33" font-family="Times,serif" font-size="14.00">awscrt</text>
</a>
</g>
</g>
<!-- aws&#45;c&#45;event&#45;stream&#45;&gt;awscrt -->
<g id="edge6" class="edge">
<title>aws&#45;c&#45;event&#45;stream&#45;&gt;awscrt</title>
<path fill="none" stroke="black" d="M193.47,-147C253.36,-133.78 341.98,-114.21 397.05,-102.05"/>
<polygon fill="black" stroke="black" points="397.78,-105.47 406.79,-99.9 396.27,-98.64 397.78,-105.47"/>
</g>
<!-- aws&#45;c&#45;io -->
<g id="node6" class="node">
<title>aws&#45;c&#45;io</title>
<g id="a_node6"><a xlink:href="https://github.com/conda-forge/aws-c-io-feedstock/pull/345" xlink:title="aws c io ❎">
<ellipse fill="#31688e" stroke="black" cx="361.09" cy="-234" rx="66.47" ry="18"/>
<text text-anchor="middle" x="361.09" y="-229.32" font-family="Times,serif" font-size="14.00" fill="white">aws c io ❎</text>
</a>
</g>
</g>
<!-- aws&#45;c&#45;io&#45;&gt;arrow&#45;cpp -->
<g id="edge7" class="edge">
<title>aws&#45;c&#45;io&#45;&gt;arrow&#45;cpp</title>
<path fill="none" stroke="black" d="M294.3,-232.77C203.35,-230.88 47.74,-221.48 12.09,-180 -29.31,-131.84 48.81,-71.81 98.84,-40.41"/>
<polygon fill="black" stroke="black" points="100.45,-43.53 107.14,-35.32 96.79,-37.57 100.45,-43.53"/>
</g>
<!-- aws&#45;c&#45;io&#45;&gt;tiledb -->
<g id="edge8" class="edge">
<title>aws&#45;c&#45;io&#45;&gt;tiledb</title>
<path fill="none" stroke="black" d="M423.92,-227.82C487.16,-221.16 578.37,-207.06 600.09,-180 631.12,-141.33 557.79,-74.78 554.09,-72 516.16,-43.51 463.13,-30.28 424.46,-24.17"/>
<polygon fill="black" stroke="black" points="425.36,-20.76 414.96,-22.78 424.35,-27.69 425.36,-20.76"/>
</g>
<!-- aws&#45;c&#45;io&#45;&gt;aws&#45;sdk&#45;cpp -->
<g id="edge9" class="edge">
<title>aws&#45;c&#45;io&#45;&gt;aws&#45;sdk&#45;cpp</title>
<path fill="none" stroke="black" d="M328.47,-217.87C313.1,-209.03 296,-196.36 286.09,-180 275.2,-162.04 272.45,-138.34 272.28,-119.91"/>
<polygon fill="black" stroke="black" points="275.78,-119.98 272.47,-109.92 268.79,-119.85 275.78,-119.98"/>
</g>
<!-- aws&#45;c&#45;io&#45;&gt;aws&#45;c&#45;event&#45;stream -->
<g id="edge10" class="edge">
<title>aws&#45;c&#45;io&#45;&gt;aws&#45;c&#45;event&#45;stream</title>
<path fill="none" stroke="black" d="M317.91,-219.92C282.34,-209.14 231.45,-193.72 191.62,-181.65"/>
<polygon fill="black" stroke="black" points="192.73,-178.33 182.15,-178.78 190.7,-185.03 192.73,-178.33"/>
</g>
<!-- aws&#45;c&#45;io&#45;&gt;awscrt -->
<g id="edge11" class="edge">
<title>aws&#45;c&#45;io&#45;&gt;awscrt</title>
<path fill="none" stroke="black" d="M393.78,-217.92C409.17,-209.09 426.26,-196.42 436.09,-180 446.86,-162 449.34,-138.3 449.27,-119.89"/>
<polygon fill="black" stroke="black" points="452.77,-119.78 448.95,-109.9 445.77,-120.01 452.77,-119.78"/>
</g>
<!-- aws&#45;c&#45;mqtt -->
<g id="node7" class="node">
<title>aws&#45;c&#45;mqtt</title>
<g id="a_node7"><a xlink:href="https://github.com/conda-forge/aws-c-mqtt-feedstock" xlink:title="aws c mqtt">
<ellipse fill="#fde725" stroke="black" cx="361.09" cy="-162" rx="66.47" ry="18"/>
<text text-anchor="middle" x="361.09" y="-157.32" font-family="Times,serif" font-size="14.00">aws c mqtt</text>
</a>
</g>
</g>
<!-- aws&#45;c&#45;io&#45;&gt;aws&#45;c&#45;mqtt -->
<g id="edge12" class="edge">
<title>aws&#45;c&#45;io&#45;&gt;aws&#45;c&#45;mqtt</title>
<path fill="none" stroke="black" d="M361.09,-215.7C361.09,-208.41 361.09,-199.73 361.09,-191.54"/>
<polygon fill="black" stroke="black" points="364.59,-191.62 361.09,-181.62 357.59,-191.62 364.59,-191.62"/>
</g>
<!-- aws&#45;c&#45;s3 -->
<g id="node8" class="node">
<title>aws&#45;c&#45;s3</title>
<g id="a_node8"><a xlink:href="https://github.com/conda-forge/aws-c-s3-feedstock" xlink:title="aws c s3">
<ellipse fill="#fde725" stroke="black" cx="537.09" cy="-162" rx="53.84" ry="18"/>
<text text-anchor="middle" x="537.09" y="-157.32" font-family="Times,serif" font-size="14.00">aws c s3</text>
</a>
</g>
</g>
<!-- aws&#45;c&#45;io&#45;&gt;aws&#45;c&#45;s3 -->
<g id="edge13" class="edge">
<title>aws&#45;c&#45;io&#45;&gt;aws&#45;c&#45;s3</title>
<path fill="none" stroke="black" d="M397.55,-218.5C425.26,-207.48 463.5,-192.27 492.94,-180.56"/>
<polygon fill="black" stroke="black" points="493.94,-183.93 501.94,-176.98 491.36,-177.42 493.94,-183.93"/>
</g>
<!-- aws&#45;c&#45;mqtt&#45;&gt;arrow&#45;cpp -->
<g id="edge14" class="edge">
<title>aws&#45;c&#45;mqtt&#45;&gt;arrow&#45;cpp</title>
<path fill="none" stroke="black" d="M303.19,-152.93C268.48,-145.76 225.02,-132.45 193.09,-108 172.31,-92.1 157,-66.3 147.5,-46.56"/>
<polygon fill="black" stroke="black" points="150.79,-45.34 143.46,-37.7 144.43,-48.25 150.79,-45.34"/>
</g>
<!-- aws&#45;c&#45;mqtt&#45;&gt;tiledb -->
<g id="edge15" class="edge">
<title>aws&#45;c&#45;mqtt&#45;&gt;tiledb</title>
<path fill="none" stroke="black" d="M362.68,-143.59C364.88,-119.61 368.86,-76.14 371.48,-47.42"/>
<polygon fill="black" stroke="black" points="374.96,-47.9 372.38,-37.62 367.98,-47.26 374.96,-47.9"/>
</g>
<!-- aws&#45;c&#45;mqtt&#45;&gt;aws&#45;sdk&#45;cpp -->
<g id="edge16" class="edge">
<title>aws&#45;c&#45;mqtt&#45;&gt;aws&#45;sdk&#45;cpp</title>
<path fill="none" stroke="black" d="M340.47,-144.41C329.5,-135.58 315.81,-124.57 303.72,-114.84"/>
<polygon fill="black" stroke="black" points="306.02,-112.2 296.04,-108.66 301.63,-117.66 306.02,-112.2"/>
</g>
<!-- aws&#45;c&#45;mqtt&#45;&gt;awscrt -->
<g id="edge17" class="edge">
<title>aws&#45;c&#45;mqtt&#45;&gt;awscrt</title>
<path fill="none" stroke="black" d="M381.47,-144.41C392.82,-135.17 407.11,-123.54 419.45,-113.49"/>
<polygon fill="black" stroke="black" points="421.31,-116.49 426.86,-107.47 416.89,-111.06 421.31,-116.49"/>
</g>
<!-- aws&#45;c&#45;s3&#45;&gt;arrow&#45;cpp -->
<g id="edge18" class="edge">
<title>aws&#45;c&#45;s3&#45;&gt;arrow&#45;cpp</title>
<path fill="none" stroke="black" d="M535.18,-143.54C531.94,-123 523.38,-89.49 501.09,-72 478.28,-54.11 305.12,-35.01 205.71,-25.36"/>
<polygon fill="black" stroke="black" points="206.06,-21.88 195.77,-24.41 205.39,-28.85 206.06,-21.88"/>
</g>
<!-- aws&#45;c&#45;s3&#45;&gt;tiledb -->
<g id="edge19" class="edge">
<title>aws&#45;c&#45;s3&#45;&gt;tiledb</title>
<path fill="none" stroke="black" d="M541.86,-143.7C546.12,-124.25 549.55,-92.67 534.09,-72 508.99,-38.45 461.91,-25.85 425.29,-21.26"/>
<polygon fill="black" stroke="black" points="426.12,-17.83 415.81,-20.24 425.37,-24.79 426.12,-17.83"/>
</g>
<!-- aws&#45;c&#45;s3&#45;&gt;aws&#45;sdk&#45;cpp -->
<g id="edge20" class="edge">
<title>aws&#45;c&#45;s3&#45;&gt;aws&#45;sdk&#45;cpp</title>
<path fill="none" stroke="black" d="M495.99,-150.06C452.21,-138.41 382.5,-119.86 332.91,-106.66"/>
<polygon fill="black" stroke="black" points="334.05,-103.34 323.48,-104.15 332.24,-110.1 334.05,-103.34"/>
</g>
<!-- aws&#45;c&#45;s3&#45;&gt;awscrt -->
<g id="edge21" class="edge">
<title>aws&#45;c&#45;s3&#45;&gt;awscrt</title>
<path fill="none" stroke="black" d="M516.66,-145.12C504.61,-135.74 489.17,-123.73 475.89,-113.41"/>
<polygon fill="black" stroke="black" points="478.36,-110.89 468.31,-107.51 474.06,-116.41 478.36,-110.89"/>
</g>
</g>
</svg>
