<?xml version="1.0" encoding="UTF-8" standalone="no"?>
<!DOCTYPE svg PUBLIC "-//W3C//DTD SVG 1.1//EN"
 "http://www.w3.org/Graphics/SVG/1.1/DTD/svg11.dtd">
<!-- Generated by graphviz version 13.1.2 (20250809.0930)
 -->
<!-- Pages: 1 -->
<svg width="353pt" height="116pt"
 viewBox="0.00 0.00 353.00 116.00" xmlns="http://www.w3.org/2000/svg" xmlns:xlink="http://www.w3.org/1999/xlink">
<g id="graph0" class="graph" transform="scale(1 1) rotate(0) translate(4 112)">
<polygon fill="white" stroke="none" points="-4,4 -4,-112 348.57,-112 348.57,4 -4,4"/>
<!-- hdf5 -->
<g id="node1" class="node">
<title>hdf5</title>
<g id="a_node1"><a xlink:href="https://github.com/conda-forge/hdf5-feedstock" xlink:title="hdf5">
<ellipse fill="#fde725" stroke="black" cx="33.85" cy="-18" rx="33.85" ry="18"/>
<text xml:space="preserve" text-anchor="middle" x="33.85" y="-13.32" font-family="Times,serif" font-size="14.00">hdf5</text>
</a>
</g>
</g>
<!-- aws&#45;c&#45;mqtt -->
<g id="node2" class="node">
<title>aws&#45;c&#45;mqtt</title>
<g id="a_node2"><a xlink:href="https://github.com/conda-forge/aws-c-mqtt-feedstock/pull/285" xlink:title="aws c mqtt ❎">
<ellipse fill="#31688e" stroke="black" cx="262.85" cy="-90" rx="81.72" ry="18"/>
<text xml:space="preserve" text-anchor="middle" x="262.85" y="-85.33" font-family="Times,serif" font-size="14.00" fill="white">aws c mqtt ❎</text>
</a>
</g>
</g>
<!-- aws&#45;crt&#45;cpp -->
<g id="node3" class="node">
<title>aws&#45;crt&#45;cpp</title>
<g id="a_node3"><a xlink:href="https://github.com/conda-forge/aws-crt-cpp-feedstock" xlink:title="aws crt cpp">
<ellipse fill="#fde725" stroke="black" cx="262.85" cy="-18" rx="69.1" ry="18"/>
<text xml:space="preserve" text-anchor="middle" x="262.85" y="-13.32" font-family="Times,serif" font-size="14.00">aws crt cpp</text>
</a>
</g>
</g>
<!-- aws&#45;c&#45;mqtt&#45;&gt;aws&#45;crt&#45;cpp -->
<g id="edge1" class="edge">
<title>aws&#45;c&#45;mqtt&#45;&gt;aws&#45;crt&#45;cpp</title>
<path fill="none" stroke="black" d="M262.85,-71.7C262.85,-64.41 262.85,-55.73 262.85,-47.54"/>
<polygon fill="black" stroke="black" points="266.35,-47.62 262.85,-37.62 259.35,-47.62 266.35,-47.62"/>
</g>
<!-- awscrt -->
<g id="node5" class="node">
<title>awscrt</title>
<g id="a_node5"><a xlink:href="https://github.com/conda-forge/awscrt-feedstock" xlink:title="awscrt">
<ellipse fill="#fde725" stroke="black" cx="130.85" cy="-18" rx="44.89" ry="18"/>
<text xml:space="preserve" text-anchor="middle" x="130.85" y="-13.32" font-family="Times,serif" font-size="14.00">awscrt</text>
</a>
</g>
</g>
<!-- aws&#45;c&#45;mqtt&#45;&gt;awscrt -->
<g id="edge2" class="edge">
<title>aws&#45;c&#45;mqtt&#45;&gt;awscrt</title>
<path fill="none" stroke="black" d="M232.56,-72.94C213.03,-62.58 187.52,-49.05 166.94,-38.14"/>
<polygon fill="black" stroke="black" points="168.79,-35.16 158.31,-33.57 165.51,-41.34 168.79,-35.16"/>
</g>
<!-- aws&#45;c&#45;s3 -->
<g id="node4" class="node">
<title>aws&#45;c&#45;s3</title>
<g id="a_node4"><a xlink:href="https://github.com/conda-forge/aws-c-s3-feedstock" xlink:title="aws c s3">
<ellipse fill="#35b779" stroke="black" cx="108.85" cy="-90" rx="53.84" ry="18"/>
<text xml:space="preserve" text-anchor="middle" x="108.85" y="-85.33" font-family="Times,serif" font-size="14.00">aws c s3</text>
</a>
</g>
</g>
<!-- aws&#45;c&#45;s3&#45;&gt;hdf5 -->
<g id="edge5" class="edge">
<title>aws&#45;c&#45;s3&#45;&gt;hdf5</title>
<path fill="none" stroke="black" d="M91.45,-72.76C81.62,-63.59 69.16,-51.96 58.36,-41.88"/>
<polygon fill="black" stroke="black" points="60.93,-39.49 51.23,-35.22 56.15,-44.6 60.93,-39.49"/>
</g>
<!-- aws&#45;c&#45;s3&#45;&gt;aws&#45;crt&#45;cpp -->
<g id="edge3" class="edge">
<title>aws&#45;c&#45;s3&#45;&gt;aws&#45;crt&#45;cpp</title>
<path fill="none" stroke="black" d="M139.64,-75C162.37,-64.67 193.64,-50.46 218.98,-38.94"/>
<polygon fill="black" stroke="black" points="220.4,-42.14 228.06,-34.81 217.51,-35.76 220.4,-42.14"/>
</g>
<!-- aws&#45;c&#45;s3&#45;&gt;awscrt -->
<g id="edge4" class="edge">
<title>aws&#45;c&#45;s3&#45;&gt;awscrt</title>
<path fill="none" stroke="black" d="M114.28,-71.7C116.63,-64.24 119.43,-55.32 122.06,-46.97"/>
<polygon fill="black" stroke="black" points="125.36,-48.14 125.02,-37.55 118.68,-46.04 125.36,-48.14"/>
</g>
</g>
</svg>
