<?xml version="1.0" encoding="UTF-8" standalone="no"?>
<!DOCTYPE svg PUBLIC "-//W3C//DTD SVG 1.1//EN"
 "http://www.w3.org/Graphics/SVG/1.1/DTD/svg11.dtd">
<!-- Generated by graphviz version 12.0.0 (20240803.0821)
 -->
<!-- Pages: 1 -->
<svg width="298pt" height="188pt"
 viewBox="0.00 0.00 297.56 188.00" xmlns="http://www.w3.org/2000/svg" xmlns:xlink="http://www.w3.org/1999/xlink">
<g id="graph0" class="graph" transform="scale(1 1) rotate(0) translate(4 184)">
<polygon fill="white" stroke="none" points="-4,4 -4,-184 293.56,-184 293.56,4 -4,4"/>
<!-- aws&#45;sdk&#45;cpp -->
<g id="node1" class="node">
<title>aws&#45;sdk&#45;cpp</title>
<g id="a_node1"><a xlink:href="https://github.com/conda-forge/aws-sdk-cpp-feedstock" xlink:title="aws sdk cpp">
<ellipse fill="#fde725" stroke="black" cx="92.72" cy="-18" rx="72.25" ry="18"/>
<text text-anchor="middle" x="92.72" y="-13.32" font-family="Times,serif" font-size="14.00">aws sdk cpp</text>
</a>
</g>
</g>
<!-- aws&#45;c&#45;mqtt -->
<g id="node2" class="node">
<title>aws&#45;c&#45;mqtt</title>
<g id="a_node2"><a xlink:href="https://github.com/conda-forge/aws-c-mqtt-feedstock/pull/224" xlink:title="aws c mqtt ❎">
<ellipse fill="#31688e" stroke="black" cx="81.72" cy="-162" rx="81.72" ry="18"/>
<text text-anchor="middle" x="81.72" y="-157.32" font-family="Times,serif" font-size="14.00" fill="white">aws c mqtt ❎</text>
</a>
</g>
</g>
<!-- aws&#45;crt&#45;cpp -->
<g id="node3" class="node">
<title>aws&#45;crt&#45;cpp</title>
<g id="a_node3"><a xlink:href="https://github.com/conda-forge/aws-crt-cpp-feedstock" xlink:title="aws crt cpp">
<ellipse fill="#fde725" stroke="black" cx="92.72" cy="-90" rx="69.1" ry="18"/>
<text text-anchor="middle" x="92.72" y="-85.33" font-family="Times,serif" font-size="14.00">aws crt cpp</text>
</a>
</g>
</g>
<!-- aws&#45;c&#45;mqtt&#45;&gt;aws&#45;crt&#45;cpp -->
<g id="edge1" class="edge">
<title>aws&#45;c&#45;mqtt&#45;&gt;aws&#45;crt&#45;cpp</title>
<path fill="none" stroke="black" d="M84.44,-143.7C85.6,-136.32 86.98,-127.52 88.28,-119.25"/>
<polygon fill="black" stroke="black" points="91.7,-120.02 89.8,-109.6 84.79,-118.93 91.7,-120.02"/>
</g>
<!-- awscrt -->
<g id="node5" class="node">
<title>awscrt</title>
<g id="a_node5"><a xlink:href="https://github.com/conda-forge/awscrt-feedstock" xlink:title="awscrt">
<ellipse fill="#fde725" stroke="black" cx="229.72" cy="-90" rx="44.89" ry="18"/>
<text text-anchor="middle" x="229.72" y="-85.33" font-family="Times,serif" font-size="14.00">awscrt</text>
</a>
</g>
</g>
<!-- aws&#45;c&#45;mqtt&#45;&gt;awscrt -->
<g id="edge2" class="edge">
<title>aws&#45;c&#45;mqtt&#45;&gt;awscrt</title>
<path fill="none" stroke="black" d="M115.31,-145.12C137.94,-134.41 167.84,-120.27 191.41,-109.12"/>
<polygon fill="black" stroke="black" points="192.82,-112.32 200.37,-104.88 189.83,-106 192.82,-112.32"/>
</g>
<!-- aws&#45;crt&#45;cpp&#45;&gt;aws&#45;sdk&#45;cpp -->
<g id="edge3" class="edge">
<title>aws&#45;crt&#45;cpp&#45;&gt;aws&#45;sdk&#45;cpp</title>
<path fill="none" stroke="black" d="M92.72,-71.7C92.72,-64.41 92.72,-55.73 92.72,-47.54"/>
<polygon fill="black" stroke="black" points="96.22,-47.62 92.72,-37.62 89.22,-47.62 96.22,-47.62"/>
</g>
<!-- aws&#45;c&#45;s3 -->
<g id="node4" class="node">
<title>aws&#45;c&#45;s3</title>
<g id="a_node4"><a xlink:href="https://github.com/conda-forge/aws-c-s3-feedstock" xlink:title="aws c s3">
<ellipse fill="#35b779" stroke="black" cx="235.72" cy="-162" rx="53.84" ry="18"/>
<text text-anchor="middle" x="235.72" y="-157.32" font-family="Times,serif" font-size="14.00">aws c s3</text>
</a>
</g>
</g>
<!-- aws&#45;c&#45;s3&#45;&gt;aws&#45;crt&#45;cpp -->
<g id="edge4" class="edge">
<title>aws&#45;c&#45;s3&#45;&gt;aws&#45;crt&#45;cpp</title>
<path fill="none" stroke="black" d="M206.09,-146.5C185.38,-136.36 157.42,-122.67 134.46,-111.43"/>
<polygon fill="black" stroke="black" points="136.18,-108.38 125.66,-107.12 133.1,-114.66 136.18,-108.38"/>
</g>
<!-- aws&#45;c&#45;s3&#45;&gt;awscrt -->
<g id="edge5" class="edge">
<title>aws&#45;c&#45;s3&#45;&gt;awscrt</title>
<path fill="none" stroke="black" d="M234.24,-143.7C233.61,-136.41 232.87,-127.73 232.17,-119.54"/>
<polygon fill="black" stroke="black" points="235.66,-119.28 231.32,-109.61 228.68,-119.87 235.66,-119.28"/>
</g>
</g>
</svg>
