<?xml version="1.0" encoding="UTF-8" standalone="no"?>
<!DOCTYPE svg PUBLIC "-//W3C//DTD SVG 1.1//EN"
 "http://www.w3.org/Graphics/SVG/1.1/DTD/svg11.dtd">
<!-- Generated by graphviz version 12.0.0 (20240803.0821)
 -->
<!-- Pages: 1 -->
<svg width="265pt" height="260pt"
 viewBox="0.00 0.00 265.15 260.00" xmlns="http://www.w3.org/2000/svg" xmlns:xlink="http://www.w3.org/1999/xlink">
<g id="graph0" class="graph" transform="scale(1 1) rotate(0) translate(4 256)">
<polygon fill="white" stroke="none" points="-4,4 -4,-256 261.15,-256 261.15,4 -4,4"/>
<!-- aws&#45;sdk&#45;cpp -->
<g id="node1" class="node">
<title>aws&#45;sdk&#45;cpp</title>
<g id="a_node1"><a xlink:href="https://github.com/conda-forge/aws-sdk-cpp-feedstock" xlink:title="aws sdk cpp">
<ellipse fill="#fde725" stroke="black" cx="72.25" cy="-18" rx="72.25" ry="18"/>
<text text-anchor="middle" x="72.25" y="-13.32" font-family="Times,serif" font-size="14.00">aws sdk cpp</text>
</a>
</g>
</g>
<!-- aws&#45;c&#45;auth -->
<g id="node2" class="node">
<title>aws&#45;c&#45;auth</title>
<g id="a_node2"><a xlink:href="https://github.com/conda-forge/aws-c-auth-feedstock/pull/305" xlink:title="aws c auth ❎">
<ellipse fill="#31688e" stroke="black" cx="138.25" cy="-234" rx="80.14" ry="18"/>
<text text-anchor="middle" x="138.25" y="-229.32" font-family="Times,serif" font-size="14.00" fill="white">aws c auth ❎</text>
</a>
</g>
</g>
<!-- aws&#45;crt&#45;cpp -->
<g id="node3" class="node">
<title>aws&#45;crt&#45;cpp</title>
<g id="a_node3"><a xlink:href="https://github.com/conda-forge/aws-crt-cpp-feedstock" xlink:title="aws crt cpp">
<ellipse fill="#fde725" stroke="black" cx="72.25" cy="-90" rx="69.1" ry="18"/>
<text text-anchor="middle" x="72.25" y="-85.33" font-family="Times,serif" font-size="14.00">aws crt cpp</text>
</a>
</g>
</g>
<!-- aws&#45;c&#45;auth&#45;&gt;aws&#45;crt&#45;cpp -->
<g id="edge2" class="edge">
<title>aws&#45;c&#45;auth&#45;&gt;aws&#45;crt&#45;cpp</title>
<path fill="none" stroke="black" d="M109.83,-216.85C96.83,-207.82 82.69,-195.3 75.25,-180 66.2,-161.38 65.8,-137.9 67.47,-119.72"/>
<polygon fill="black" stroke="black" points="70.93,-120.24 68.66,-109.89 63.98,-119.4 70.93,-120.24"/>
</g>
<!-- aws&#45;c&#45;s3 -->
<g id="node4" class="node">
<title>aws&#45;c&#45;s3</title>
<g id="a_node4"><a xlink:href="https://github.com/conda-forge/aws-c-s3-feedstock" xlink:title="aws c s3">
<ellipse fill="#fde725" stroke="black" cx="138.25" cy="-162" rx="53.84" ry="18"/>
<text text-anchor="middle" x="138.25" y="-157.32" font-family="Times,serif" font-size="14.00">aws c s3</text>
</a>
</g>
</g>
<!-- aws&#45;c&#45;auth&#45;&gt;aws&#45;c&#45;s3 -->
<g id="edge1" class="edge">
<title>aws&#45;c&#45;auth&#45;&gt;aws&#45;c&#45;s3</title>
<path fill="none" stroke="black" d="M138.25,-215.7C138.25,-208.41 138.25,-199.73 138.25,-191.54"/>
<polygon fill="black" stroke="black" points="141.75,-191.62 138.25,-181.62 134.75,-191.62 141.75,-191.62"/>
</g>
<!-- awscrt -->
<g id="node5" class="node">
<title>awscrt</title>
<g id="a_node5"><a xlink:href="https://github.com/conda-forge/awscrt-feedstock" xlink:title="awscrt">
<ellipse fill="#fde725" stroke="black" cx="212.25" cy="-90" rx="44.89" ry="18"/>
<text text-anchor="middle" x="212.25" y="-85.33" font-family="Times,serif" font-size="14.00">awscrt</text>
</a>
</g>
</g>
<!-- aws&#45;c&#45;auth&#45;&gt;awscrt -->
<g id="edge3" class="edge">
<title>aws&#45;c&#45;auth&#45;&gt;awscrt</title>
<path fill="none" stroke="black" d="M165.78,-216.78C178.72,-207.66 193.07,-195.08 201.25,-180 211.26,-161.57 213.78,-137.89 213.92,-119.59"/>
<polygon fill="black" stroke="black" points="217.42,-119.63 213.74,-109.7 210.42,-119.76 217.42,-119.63"/>
</g>
<!-- aws&#45;crt&#45;cpp&#45;&gt;aws&#45;sdk&#45;cpp -->
<g id="edge4" class="edge">
<title>aws&#45;crt&#45;cpp&#45;&gt;aws&#45;sdk&#45;cpp</title>
<path fill="none" stroke="black" d="M72.25,-71.7C72.25,-64.41 72.25,-55.73 72.25,-47.54"/>
<polygon fill="black" stroke="black" points="75.75,-47.62 72.25,-37.62 68.75,-47.62 75.75,-47.62"/>
</g>
<!-- aws&#45;c&#45;s3&#45;&gt;aws&#45;crt&#45;cpp -->
<g id="edge5" class="edge">
<title>aws&#45;c&#45;s3&#45;&gt;aws&#45;crt&#45;cpp</title>
<path fill="none" stroke="black" d="M122.61,-144.41C114.67,-135.99 104.86,-125.58 96.01,-116.2"/>
<polygon fill="black" stroke="black" points="98.68,-113.93 89.28,-109.06 93.59,-118.73 98.68,-113.93"/>
</g>
<!-- aws&#45;c&#45;s3&#45;&gt;awscrt -->
<g id="edge6" class="edge">
<title>aws&#45;c&#45;s3&#45;&gt;awscrt</title>
<path fill="none" stroke="black" d="M155.42,-144.76C164.82,-135.87 176.66,-124.67 187.09,-114.8"/>
<polygon fill="black" stroke="black" points="189.48,-117.36 194.34,-107.95 184.67,-112.28 189.48,-117.36"/>
</g>
</g>
</svg>
