<?xml version="1.0" encoding="UTF-8" standalone="no"?>
<!DOCTYPE svg PUBLIC "-//W3C//DTD SVG 1.1//EN"
 "http://www.w3.org/Graphics/SVG/1.1/DTD/svg11.dtd">
<!-- Generated by graphviz version 13.1.2 (20250809.0930)
 -->
<!-- Pages: 1 -->
<svg width="559pt" height="260pt"
 viewBox="0.00 0.00 559.00 260.00" xmlns="http://www.w3.org/2000/svg" xmlns:xlink="http://www.w3.org/1999/xlink">
<g id="graph0" class="graph" transform="scale(1 1) rotate(0) translate(4 256)">
<polygon fill="white" stroke="none" points="-4,4 -4,-256 555.46,-256 555.46,4 -4,4"/>
<!-- aws&#45;c&#45;event&#45;stream -->
<g id="node1" class="node">
<title>aws&#45;c&#45;event&#45;stream</title>
<g id="a_node1"><a xlink:href="https://github.com/conda-forge/aws-c-event-stream-feedstock" xlink:title="aws c event stream">
<ellipse fill="#35b779" stroke="black" cx="408.57" cy="-90" rx="108.55" ry="18"/>
<text xml:space="preserve" text-anchor="middle" x="408.57" y="-85.33" font-family="Times,serif" font-size="14.00">aws c event stream</text>
</a>
</g>
</g>
<!-- aws&#45;crt&#45;cpp -->
<g id="node5" class="node">
<title>aws&#45;crt&#45;cpp</title>
<g id="a_node5"><a xlink:href="https://github.com/conda-forge/aws-crt-cpp-feedstock" xlink:title="aws crt cpp">
<ellipse fill="#fde725" stroke="black" cx="90.57" cy="-18" rx="69.1" ry="18"/>
<text xml:space="preserve" text-anchor="middle" x="90.57" y="-13.32" font-family="Times,serif" font-size="14.00">aws crt cpp</text>
</a>
</g>
</g>
<!-- aws&#45;c&#45;event&#45;stream&#45;&gt;aws&#45;crt&#45;cpp -->
<g id="edge1" class="edge">
<title>aws&#45;c&#45;event&#45;stream&#45;&gt;aws&#45;crt&#45;cpp</title>
<path fill="none" stroke="black" d="M344.99,-75C289.28,-62.74 208.79,-45.02 153.33,-32.81"/>
<polygon fill="black" stroke="black" points="154.24,-29.43 143.72,-30.7 152.74,-36.27 154.24,-29.43"/>
</g>
<!-- awscrt -->
<g id="node7" class="node">
<title>awscrt</title>
<g id="a_node7"><a xlink:href="https://github.com/conda-forge/awscrt-feedstock" xlink:title="awscrt">
<ellipse fill="#fde725" stroke="black" cx="408.57" cy="-18" rx="44.89" ry="18"/>
<text xml:space="preserve" text-anchor="middle" x="408.57" y="-13.32" font-family="Times,serif" font-size="14.00">awscrt</text>
</a>
</g>
</g>
<!-- aws&#45;c&#45;event&#45;stream&#45;&gt;awscrt -->
<g id="edge2" class="edge">
<title>aws&#45;c&#45;event&#45;stream&#45;&gt;awscrt</title>
<path fill="none" stroke="black" d="M408.57,-71.7C408.57,-64.41 408.57,-55.73 408.57,-47.54"/>
<polygon fill="black" stroke="black" points="412.07,-47.62 408.57,-37.62 405.07,-47.62 412.07,-47.62"/>
</g>
<!-- aws&#45;c&#45;http -->
<g id="node2" class="node">
<title>aws&#45;c&#45;http</title>
<g id="a_node2"><a xlink:href="https://github.com/conda-forge/aws-c-http-feedstock/pull/287" xlink:title="aws c http ❎">
<ellipse fill="#31688e" stroke="black" cx="183.57" cy="-234" rx="78.57" ry="18"/>
<text xml:space="preserve" text-anchor="middle" x="183.57" y="-229.32" font-family="Times,serif" font-size="14.00" fill="white">aws c http ❎</text>
</a>
</g>
</g>
<!-- aws&#45;c&#45;mqtt -->
<g id="node3" class="node">
<title>aws&#45;c&#45;mqtt</title>
<g id="a_node3"><a xlink:href="https://github.com/conda-forge/aws-c-mqtt-feedstock" xlink:title="aws c mqtt">
<ellipse fill="#fde725" stroke="black" cx="90.57" cy="-90" rx="66.47" ry="18"/>
<text xml:space="preserve" text-anchor="middle" x="90.57" y="-85.33" font-family="Times,serif" font-size="14.00">aws c mqtt</text>
</a>
</g>
</g>
<!-- aws&#45;c&#45;http&#45;&gt;aws&#45;c&#45;mqtt -->
<g id="edge4" class="edge">
<title>aws&#45;c&#45;http&#45;&gt;aws&#45;c&#45;mqtt</title>
<path fill="none" stroke="black" d="M151.53,-217.23C136.59,-208.29 119.88,-195.73 109.57,-180 97.86,-162.11 93.22,-138.26 91.45,-119.75"/>
<polygon fill="black" stroke="black" points="94.96,-119.71 90.76,-109.99 87.97,-120.21 94.96,-119.71"/>
</g>
<!-- aws&#45;c&#45;auth -->
<g id="node4" class="node">
<title>aws&#45;c&#45;auth</title>
<g id="a_node4"><a xlink:href="https://github.com/conda-forge/aws-c-auth-feedstock" xlink:title="aws c auth">
<ellipse fill="#fde725" stroke="black" cx="183.57" cy="-162" rx="64.89" ry="18"/>
<text xml:space="preserve" text-anchor="middle" x="183.57" y="-157.32" font-family="Times,serif" font-size="14.00">aws c auth</text>
</a>
</g>
</g>
<!-- aws&#45;c&#45;http&#45;&gt;aws&#45;c&#45;auth -->
<g id="edge3" class="edge">
<title>aws&#45;c&#45;http&#45;&gt;aws&#45;c&#45;auth</title>
<path fill="none" stroke="black" d="M183.57,-215.7C183.57,-208.41 183.57,-199.73 183.57,-191.54"/>
<polygon fill="black" stroke="black" points="187.07,-191.62 183.57,-181.62 180.07,-191.62 187.07,-191.62"/>
</g>
<!-- aws&#45;c&#45;http&#45;&gt;aws&#45;crt&#45;cpp -->
<g id="edge6" class="edge">
<title>aws&#45;c&#45;http&#45;&gt;aws&#45;crt&#45;cpp</title>
<path fill="none" stroke="black" d="M142.48,-218.41C98.66,-200.28 32.02,-164.63 5.57,-108 -1.2,-93.5 -2.19,-85.99 5.57,-72 13.6,-57.54 27.38,-46.52 41.54,-38.36"/>
<polygon fill="black" stroke="black" points="42.81,-41.66 50,-33.88 39.53,-35.47 42.81,-41.66"/>
</g>
<!-- aws&#45;c&#45;s3 -->
<g id="node6" class="node">
<title>aws&#45;c&#45;s3</title>
<g id="a_node6"><a xlink:href="https://github.com/conda-forge/aws-c-s3-feedstock" xlink:title="aws c s3">
<ellipse fill="#fde725" stroke="black" cx="228.57" cy="-90" rx="53.84" ry="18"/>
<text xml:space="preserve" text-anchor="middle" x="228.57" y="-85.33" font-family="Times,serif" font-size="14.00">aws c s3</text>
</a>
</g>
</g>
<!-- aws&#45;c&#45;http&#45;&gt;aws&#45;c&#45;s3 -->
<g id="edge5" class="edge">
<title>aws&#45;c&#45;http&#45;&gt;aws&#45;c&#45;s3</title>
<path fill="none" stroke="black" d="M218.25,-217.41C233.22,-208.72 249.2,-196.3 257.57,-180 267.87,-159.97 258.52,-135.55 247.78,-117.36"/>
<polygon fill="black" stroke="black" points="250.76,-115.52 242.42,-108.98 244.86,-119.29 250.76,-115.52"/>
</g>
<!-- aws&#45;c&#45;http&#45;&gt;awscrt -->
<g id="edge7" class="edge">
<title>aws&#45;c&#45;http&#45;&gt;awscrt</title>
<path fill="none" stroke="black" d="M261.22,-230.87C346.68,-223.85 480.43,-198.09 544.57,-108 553.85,-94.97 553.6,-85.21 544.57,-72 526.32,-45.29 492.44,-32.04 463.06,-25.46"/>
<polygon fill="black" stroke="black" points="464.04,-22.09 453.55,-23.56 462.67,-28.96 464.04,-22.09"/>
</g>
<!-- aws&#45;c&#45;mqtt&#45;&gt;aws&#45;crt&#45;cpp -->
<g id="edge8" class="edge">
<title>aws&#45;c&#45;mqtt&#45;&gt;aws&#45;crt&#45;cpp</title>
<path fill="none" stroke="black" d="M90.57,-71.7C90.57,-64.41 90.57,-55.73 90.57,-47.54"/>
<polygon fill="black" stroke="black" points="94.07,-47.62 90.57,-37.62 87.07,-47.62 94.07,-47.62"/>
</g>
<!-- aws&#45;c&#45;mqtt&#45;&gt;awscrt -->
<g id="edge9" class="edge">
<title>aws&#45;c&#45;mqtt&#45;&gt;awscrt</title>
<path fill="none" stroke="black" d="M140.18,-77.7C148.65,-75.78 157.36,-73.83 165.57,-72 232.44,-57.13 309.75,-40.34 358.88,-29.71"/>
<polygon fill="black" stroke="black" points="359.32,-33.2 368.35,-27.67 357.84,-26.36 359.32,-33.2"/>
</g>
<!-- aws&#45;c&#45;auth&#45;&gt;aws&#45;crt&#45;cpp -->
<g id="edge11" class="edge">
<title>aws&#45;c&#45;auth&#45;&gt;aws&#45;crt&#45;cpp</title>
<path fill="none" stroke="black" d="M119.47,-158.54C82.7,-153.43 39.26,-140.31 15.57,-108 6.11,-95.1 8.22,-86.21 15.57,-72 22.47,-58.69 34.42,-48 46.78,-39.81"/>
<polygon fill="black" stroke="black" points="48.23,-43.03 54.94,-34.82 44.58,-37.05 48.23,-43.03"/>
</g>
<!-- aws&#45;c&#45;auth&#45;&gt;aws&#45;c&#45;s3 -->
<g id="edge10" class="edge">
<title>aws&#45;c&#45;auth&#45;&gt;aws&#45;c&#45;s3</title>
<path fill="none" stroke="black" d="M194.47,-144.05C199.61,-136.06 205.86,-126.33 211.6,-117.4"/>
<polygon fill="black" stroke="black" points="214.5,-119.37 216.96,-109.06 208.61,-115.58 214.5,-119.37"/>
</g>
<!-- aws&#45;c&#45;auth&#45;&gt;awscrt -->
<g id="edge12" class="edge">
<title>aws&#45;c&#45;auth&#45;&gt;awscrt</title>
<path fill="none" stroke="black" d="M248.47,-160.61C337.76,-158.54 491.47,-148.94 526.57,-108 536.99,-95.85 535.27,-85.43 526.57,-72 511.92,-49.35 485.04,-36.29 460.64,-28.8"/>
<polygon fill="black" stroke="black" points="461.68,-25.46 451.11,-26.15 459.8,-32.21 461.68,-25.46"/>
</g>
<!-- aws&#45;c&#45;s3&#45;&gt;aws&#45;crt&#45;cpp -->
<g id="edge13" class="edge">
<title>aws&#45;c&#45;s3&#45;&gt;aws&#45;crt&#45;cpp</title>
<path fill="none" stroke="black" d="M199.98,-74.5C180.08,-64.4 153.25,-50.79 131.15,-39.58"/>
<polygon fill="black" stroke="black" points="132.9,-36.54 122.4,-35.14 129.73,-42.79 132.9,-36.54"/>
</g>
<!-- aws&#45;c&#45;s3&#45;&gt;awscrt -->
<g id="edge14" class="edge">
<title>aws&#45;c&#45;s3&#45;&gt;awscrt</title>
<path fill="none" stroke="black" d="M262.85,-75.67C292.33,-64.21 334.94,-47.64 366.48,-35.37"/>
<polygon fill="black" stroke="black" points="367.67,-38.66 375.72,-31.78 365.13,-32.14 367.67,-38.66"/>
</g>
</g>
</svg>
