<?xml version="1.0" encoding="UTF-8" standalone="no"?>
<!DOCTYPE svg PUBLIC "-//W3C//DTD SVG 1.1//EN"
 "http://www.w3.org/Graphics/SVG/1.1/DTD/svg11.dtd">
<!-- Generated by graphviz version 13.1.2 (20250809.0930)
 -->
<!-- Pages: 1 -->
<svg width="1001pt" height="476pt"
 viewBox="0.00 0.00 1001.00 476.00" xmlns="http://www.w3.org/2000/svg" xmlns:xlink="http://www.w3.org/1999/xlink">
<g id="graph0" class="graph" transform="scale(1 1) rotate(0) translate(4 472)">
<polygon fill="white" stroke="none" points="-4,4 -4,-472 997.3,-472 997.3,4 -4,4"/>
<!-- aws&#45;sdk&#45;cpp -->
<g id="node1" class="node">
<title>aws&#45;sdk&#45;cpp</title>
<g id="a_node1"><a xlink:href="https://github.com/conda-forge/aws-sdk-cpp-feedstock" xlink:title="aws sdk cpp">
<ellipse fill="#fde725" stroke="black" cx="404" cy="-18" rx="72.25" ry="18"/>
<text xml:space="preserve" text-anchor="middle" x="404" y="-13.32" font-family="Times,serif" font-size="14.00">aws sdk cpp</text>
</a>
</g>
</g>
<!-- aws&#45;checksums -->
<g id="node2" class="node">
<title>aws&#45;checksums</title>
<g id="a_node2"><a xlink:href="https://github.com/conda-forge/aws-checksums-feedstock" xlink:title="aws checksums">
<ellipse fill="#35b779" stroke="black" cx="671" cy="-234" rx="88.56" ry="18"/>
<text xml:space="preserve" text-anchor="middle" x="671" y="-229.32" font-family="Times,serif" font-size="14.00">aws checksums</text>
</a>
</g>
</g>
<!-- aws&#45;c&#45;event&#45;stream -->
<g id="node3" class="node">
<title>aws&#45;c&#45;event&#45;stream</title>
<g id="a_node3"><a xlink:href="https://github.com/conda-forge/aws-c-event-stream-feedstock" xlink:title="aws c event stream">
<ellipse fill="#fde725" stroke="black" cx="554" cy="-162" rx="108.55" ry="18"/>
<text xml:space="preserve" text-anchor="middle" x="554" y="-157.32" font-family="Times,serif" font-size="14.00">aws c event stream</text>
</a>
</g>
</g>
<!-- aws&#45;checksums&#45;&gt;aws&#45;c&#45;event&#45;stream -->
<g id="edge1" class="edge">
<title>aws&#45;checksums&#45;&gt;aws&#45;c&#45;event&#45;stream</title>
<path fill="none" stroke="black" d="M643.57,-216.59C628.1,-207.33 608.54,-195.63 591.66,-185.53"/>
<polygon fill="black" stroke="black" points="593.75,-182.7 583.37,-180.57 590.16,-188.71 593.75,-182.7"/>
</g>
<!-- aws&#45;c&#45;s3 -->
<g id="node4" class="node">
<title>aws&#45;c&#45;s3</title>
<g id="a_node4"><a xlink:href="https://github.com/conda-forge/aws-c-s3-feedstock" xlink:title="aws c s3">
<ellipse fill="#fde725" stroke="black" cx="374" cy="-162" rx="53.84" ry="18"/>
<text xml:space="preserve" text-anchor="middle" x="374" y="-157.32" font-family="Times,serif" font-size="14.00">aws c s3</text>
</a>
</g>
</g>
<!-- aws&#45;checksums&#45;&gt;aws&#45;c&#45;s3 -->
<g id="edge2" class="edge">
<title>aws&#45;checksums&#45;&gt;aws&#45;c&#45;s3</title>
<path fill="none" stroke="black" d="M611.42,-220.35C563.81,-210.06 495.45,-194.84 436,-180 432.48,-179.12 428.86,-178.19 425.21,-177.24"/>
<polygon fill="black" stroke="black" points="426.31,-173.91 415.75,-174.72 424.51,-180.67 426.31,-173.91"/>
</g>
<!-- awscrt -->
<g id="node5" class="node">
<title>awscrt</title>
<g id="a_node5"><a xlink:href="https://github.com/conda-forge/awscrt-feedstock" xlink:title="awscrt">
<ellipse fill="#fde725" stroke="black" cx="785" cy="-90" rx="44.9" ry="18"/>
<text xml:space="preserve" text-anchor="middle" x="785" y="-85.33" font-family="Times,serif" font-size="14.00">awscrt</text>
</a>
</g>
</g>
<!-- aws&#45;checksums&#45;&gt;awscrt -->
<g id="edge3" class="edge">
<title>aws&#45;checksums&#45;&gt;awscrt</title>
<path fill="none" stroke="black" d="M675.51,-215.78C681.15,-196.68 692.3,-165.7 710,-144 720.71,-130.88 735.44,-119.52 749.01,-110.72"/>
<polygon fill="black" stroke="black" points="750.67,-113.81 757.33,-105.58 746.99,-107.86 750.67,-113.81"/>
</g>
<!-- aws&#45;c&#45;event&#45;stream&#45;&gt;aws&#45;sdk&#45;cpp -->
<g id="edge4" class="edge">
<title>aws&#45;c&#45;event&#45;stream&#45;&gt;aws&#45;sdk&#45;cpp</title>
<path fill="none" stroke="black" d="M535.91,-143.87C509.41,-118.79 459.93,-71.95 429.68,-43.31"/>
<polygon fill="black" stroke="black" points="432.46,-41.12 422.79,-36.79 427.65,-46.21 432.46,-41.12"/>
</g>
<!-- aws&#45;c&#45;event&#45;stream&#45;&gt;awscrt -->
<g id="edge5" class="edge">
<title>aws&#45;c&#45;event&#45;stream&#45;&gt;awscrt</title>
<path fill="none" stroke="black" d="M604.69,-145.64C644.7,-133.51 700.06,-116.74 738.84,-104.99"/>
<polygon fill="black" stroke="black" points="739.81,-108.35 748.36,-102.1 737.78,-101.65 739.81,-108.35"/>
</g>
<!-- aws&#45;crt&#45;cpp -->
<g id="node6" class="node">
<title>aws&#45;crt&#45;cpp</title>
<g id="a_node6"><a xlink:href="https://github.com/conda-forge/aws-crt-cpp-feedstock" xlink:title="aws crt cpp">
<ellipse fill="#fde725" stroke="black" cx="254" cy="-90" rx="69.1" ry="18"/>
<text xml:space="preserve" text-anchor="middle" x="254" y="-85.33" font-family="Times,serif" font-size="14.00">aws crt cpp</text>
</a>
</g>
</g>
<!-- aws&#45;c&#45;event&#45;stream&#45;&gt;aws&#45;crt&#45;cpp -->
<g id="edge6" class="edge">
<title>aws&#45;c&#45;event&#45;stream&#45;&gt;aws&#45;crt&#45;cpp</title>
<path fill="none" stroke="black" d="M492.93,-146.75C441.06,-134.65 366.98,-117.36 315.1,-105.26"/>
<polygon fill="black" stroke="black" points="316.06,-101.89 305.53,-103.02 314.47,-108.7 316.06,-101.89"/>
</g>
<!-- aws&#45;c&#45;s3&#45;&gt;awscrt -->
<g id="edge7" class="edge">
<title>aws&#45;c&#45;s3&#45;&gt;awscrt</title>
<path fill="none" stroke="black" d="M413.52,-149.42C420.95,-147.46 428.68,-145.55 436,-144 539.28,-122.08 661.61,-105.66 730.58,-97.26"/>
<polygon fill="black" stroke="black" points="730.99,-100.74 740.49,-96.07 730.15,-93.79 730.99,-100.74"/>
</g>
<!-- aws&#45;c&#45;s3&#45;&gt;aws&#45;crt&#45;cpp -->
<g id="edge8" class="edge">
<title>aws&#45;c&#45;s3&#45;&gt;aws&#45;crt&#45;cpp</title>
<path fill="none" stroke="black" d="M347.96,-145.81C331.33,-136.11 309.5,-123.38 291.07,-112.63"/>
<polygon fill="black" stroke="black" points="292.95,-109.67 282.54,-107.65 289.42,-115.71 292.95,-109.67"/>
</g>
<!-- aws&#45;crt&#45;cpp&#45;&gt;aws&#45;sdk&#45;cpp -->
<g id="edge9" class="edge">
<title>aws&#45;crt&#45;cpp&#45;&gt;aws&#45;sdk&#45;cpp</title>
<path fill="none" stroke="black" d="M286.55,-73.81C308.31,-63.65 337.19,-50.18 360.87,-39.13"/>
<polygon fill="black" stroke="black" points="362.04,-42.44 369.63,-35.04 359.08,-36.1 362.04,-42.44"/>
</g>
<!-- s2n -->
<g id="node7" class="node">
<title>s2n</title>
<g id="a_node7"><a xlink:href="https://github.com/conda-forge/s2n-feedstock/pull/165" xlink:title="s2n ❎">
<ellipse fill="#31688e" stroke="black" cx="817" cy="-450" rx="44.37" ry="18"/>
<text xml:space="preserve" text-anchor="middle" x="817" y="-445.32" font-family="Times,serif" font-size="14.00" fill="white">s2n ❎</text>
</a>
</g>
</g>
<!-- s2n&#45;&gt;awscrt -->
<g id="edge10" class="edge">
<title>s2n&#45;&gt;awscrt</title>
<path fill="none" stroke="black" d="M859.94,-444.89C894.11,-439.35 940.73,-426.38 969,-396 996.91,-366.01 993,-347.97 993,-307 993,-307 993,-307 993,-233 993,-192.03 997.72,-173.22 969,-144 935.63,-110.05 882.02,-97.5 841.25,-93.03"/>
<polygon fill="black" stroke="black" points="841.65,-89.55 831.36,-92.09 840.99,-96.52 841.65,-89.55"/>
</g>
<!-- aws&#45;c&#45;io -->
<g id="node8" class="node">
<title>aws&#45;c&#45;io</title>
<g id="a_node8"><a xlink:href="https://github.com/conda-forge/aws-c-io-feedstock" xlink:title="aws c io">
<ellipse fill="#fde725" stroke="black" cx="642" cy="-378" rx="51.21" ry="18"/>
<text xml:space="preserve" text-anchor="middle" x="642" y="-373.32" font-family="Times,serif" font-size="14.00">aws c io</text>
</a>
</g>
</g>
<!-- s2n&#45;&gt;aws&#45;c&#45;io -->
<g id="edge11" class="edge">
<title>s2n&#45;&gt;aws&#45;c&#45;io</title>
<path fill="none" stroke="black" d="M786.12,-436.65C758.2,-425.48 716.82,-408.93 685.55,-396.42"/>
<polygon fill="black" stroke="black" points="686.94,-393.21 676.36,-392.74 684.34,-399.71 686.94,-393.21"/>
</g>
<!-- aws&#45;c&#45;io&#45;&gt;aws&#45;c&#45;event&#45;stream -->
<g id="edge12" class="edge">
<title>aws&#45;c&#45;io&#45;&gt;aws&#45;c&#45;event&#45;stream</title>
<path fill="none" stroke="black" d="M630.47,-359.98C615.15,-336.63 588.26,-292.87 573,-252 565.73,-232.52 560.91,-209.54 557.95,-191.81"/>
<polygon fill="black" stroke="black" points="561.41,-191.33 556.42,-181.98 554.49,-192.4 561.41,-191.33"/>
</g>
<!-- aws&#45;c&#45;io&#45;&gt;aws&#45;c&#45;s3 -->
<g id="edge13" class="edge">
<title>aws&#45;c&#45;io&#45;&gt;aws&#45;c&#45;s3</title>
<path fill="none" stroke="black" d="M622.29,-361.26C575.56,-323.94 457.82,-229.93 402.96,-186.13"/>
<polygon fill="black" stroke="black" points="405.28,-183.5 395.28,-179.99 400.91,-188.97 405.28,-183.5"/>
</g>
<!-- aws&#45;c&#45;io&#45;&gt;awscrt -->
<g id="edge14" class="edge">
<title>aws&#45;c&#45;io&#45;&gt;awscrt</title>
<path fill="none" stroke="black" d="M678.89,-365.15C703.92,-356.11 737.05,-342.12 763,-324 830.14,-277.1 855.03,-258.62 878,-180 882.49,-164.64 886.04,-157.83 878,-144 867.7,-126.27 849,-113.98 831.05,-105.73"/>
<polygon fill="black" stroke="black" points="832.61,-102.59 822.04,-101.92 829.89,-109.04 832.61,-102.59"/>
</g>
<!-- aws&#45;c&#45;io&#45;&gt;aws&#45;crt&#45;cpp -->
<g id="edge15" class="edge">
<title>aws&#45;c&#45;io&#45;&gt;aws&#45;crt&#45;cpp</title>
<path fill="none" stroke="black" d="M604.52,-365.3C596.81,-363.25 588.69,-361.34 581,-360 527.66,-350.69 131.85,-363.68 95,-324 30.49,-254.54 154.44,-156.91 218.73,-113.42"/>
<polygon fill="black" stroke="black" points="220.48,-116.46 226.87,-108 216.6,-110.63 220.48,-116.46"/>
</g>
<!-- aws&#45;c&#45;http -->
<g id="node9" class="node">
<title>aws&#45;c&#45;http</title>
<g id="a_node9"><a xlink:href="https://github.com/conda-forge/aws-c-http-feedstock" xlink:title="aws c http">
<ellipse fill="#fde725" stroke="black" cx="425" cy="-306" rx="63.31" ry="18"/>
<text xml:space="preserve" text-anchor="middle" x="425" y="-301.32" font-family="Times,serif" font-size="14.00">aws c http</text>
</a>
</g>
</g>
<!-- aws&#45;c&#45;io&#45;&gt;aws&#45;c&#45;http -->
<g id="edge16" class="edge">
<title>aws&#45;c&#45;io&#45;&gt;aws&#45;c&#45;http</title>
<path fill="none" stroke="black" d="M605.19,-365.13C569.82,-353.72 516.05,-336.37 476.45,-323.6"/>
<polygon fill="black" stroke="black" points="477.72,-320.33 467.13,-320.59 475.57,-326.99 477.72,-320.33"/>
</g>
<!-- aws&#45;c&#45;mqtt -->
<g id="node10" class="node">
<title>aws&#45;c&#45;mqtt</title>
<g id="a_node10"><a xlink:href="https://github.com/conda-forge/aws-c-mqtt-feedstock" xlink:title="aws c mqtt">
<ellipse fill="#fde725" stroke="black" cx="785" cy="-162" rx="66.47" ry="18"/>
<text xml:space="preserve" text-anchor="middle" x="785" y="-157.32" font-family="Times,serif" font-size="14.00">aws c mqtt</text>
</a>
</g>
</g>
<!-- aws&#45;c&#45;io&#45;&gt;aws&#45;c&#45;mqtt -->
<g id="edge17" class="edge">
<title>aws&#45;c&#45;io&#45;&gt;aws&#45;c&#45;mqtt</title>
<path fill="none" stroke="black" d="M671.05,-362.8C706.94,-343.41 766.31,-304.94 791,-252 799.81,-233.12 797.7,-209.5 793.72,-191.34"/>
<polygon fill="black" stroke="black" points="797.14,-190.61 791.3,-181.77 790.36,-192.32 797.14,-190.61"/>
</g>
<!-- aws&#45;c&#45;auth -->
<g id="node11" class="node">
<title>aws&#45;c&#45;auth</title>
<g id="a_node11"><a xlink:href="https://github.com/conda-forge/aws-c-auth-feedstock" xlink:title="aws c auth">
<ellipse fill="#fde725" stroke="black" cx="269" cy="-234" rx="64.89" ry="18"/>
<text xml:space="preserve" text-anchor="middle" x="269" y="-229.32" font-family="Times,serif" font-size="14.00">aws c auth</text>
</a>
</g>
</g>
<!-- aws&#45;c&#45;io&#45;&gt;aws&#45;c&#45;auth -->
<g id="edge18" class="edge">
<title>aws&#45;c&#45;io&#45;&gt;aws&#45;c&#45;auth</title>
<path fill="none" stroke="black" d="M603.77,-365.62C596.26,-363.59 588.41,-361.61 581,-360 480.76,-338.19 443.74,-371.87 353,-324 338.15,-316.17 309.63,-284.09 289.97,-260.69"/>
<polygon fill="black" stroke="black" points="292.72,-258.52 283.63,-253.07 287.33,-262.99 292.72,-258.52"/>
</g>
<!-- aws&#45;c&#45;http&#45;&gt;aws&#45;c&#45;s3 -->
<g id="edge19" class="edge">
<title>aws&#45;c&#45;http&#45;&gt;aws&#45;c&#45;s3</title>
<path fill="none" stroke="black" d="M418.85,-287.87C410.19,-263.78 394.33,-219.6 383.98,-190.77"/>
<polygon fill="black" stroke="black" points="387.36,-189.84 380.69,-181.61 380.77,-192.21 387.36,-189.84"/>
</g>
<!-- aws&#45;c&#45;http&#45;&gt;awscrt -->
<g id="edge20" class="edge">
<title>aws&#45;c&#45;http&#45;&gt;awscrt</title>
<path fill="none" stroke="black" d="M486.04,-300.98C575.98,-294.24 739.05,-278.73 791,-252 841.65,-225.94 886.19,-194.58 860,-144 852.39,-129.3 838.62,-117.81 824.94,-109.34"/>
<polygon fill="black" stroke="black" points="826.81,-106.38 816.39,-104.46 823.34,-112.46 826.81,-106.38"/>
</g>
<!-- aws&#45;c&#45;http&#45;&gt;aws&#45;crt&#45;cpp -->
<g id="edge21" class="edge">
<title>aws&#45;c&#45;http&#45;&gt;aws&#45;crt&#45;cpp</title>
<path fill="none" stroke="black" d="M409.64,-288.31C379.55,-255.59 315.37,-185.69 311,-180 295.78,-160.17 280.61,-136.23 269.76,-118.18"/>
<polygon fill="black" stroke="black" points="272.78,-116.42 264.67,-109.61 266.76,-120 272.78,-116.42"/>
</g>
<!-- aws&#45;c&#45;http&#45;&gt;aws&#45;c&#45;mqtt -->
<g id="edge22" class="edge">
<title>aws&#45;c&#45;http&#45;&gt;aws&#45;c&#45;mqtt</title>
<path fill="none" stroke="black" d="M488.03,-303.79C576.24,-300.72 730.12,-289.92 769,-252 784.73,-236.66 788.04,-211.49 787.81,-191.83"/>
<polygon fill="black" stroke="black" points="791.32,-191.77 787.36,-181.94 784.32,-192.09 791.32,-191.77"/>
</g>
<!-- aws&#45;c&#45;http&#45;&gt;aws&#45;c&#45;auth -->
<g id="edge23" class="edge">
<title>aws&#45;c&#45;http&#45;&gt;aws&#45;c&#45;auth</title>
<path fill="none" stroke="black" d="M392.3,-290.33C369.16,-279.94 337.88,-265.91 312.61,-254.57"/>
<polygon fill="black" stroke="black" points="314.13,-251.42 303.58,-250.52 311.27,-257.8 314.13,-251.42"/>
</g>
<!-- aws&#45;c&#45;mqtt&#45;&gt;awscrt -->
<g id="edge24" class="edge">
<title>aws&#45;c&#45;mqtt&#45;&gt;awscrt</title>
<path fill="none" stroke="black" d="M785,-143.7C785,-136.41 785,-127.73 785,-119.54"/>
<polygon fill="black" stroke="black" points="788.5,-119.62 785,-109.62 781.5,-119.62 788.5,-119.62"/>
</g>
<!-- aws&#45;c&#45;mqtt&#45;&gt;aws&#45;crt&#45;cpp -->
<g id="edge25" class="edge">
<title>aws&#45;c&#45;mqtt&#45;&gt;aws&#45;crt&#45;cpp</title>
<path fill="none" stroke="black" d="M728.42,-152.22C710.4,-149.5 690.37,-146.55 672,-144 551.24,-127.26 410.56,-109.86 327.07,-99.74"/>
<polygon fill="black" stroke="black" points="327.53,-96.27 317.18,-98.55 326.69,-103.22 327.53,-96.27"/>
</g>
<!-- aws&#45;c&#45;auth&#45;&gt;aws&#45;c&#45;s3 -->
<g id="edge26" class="edge">
<title>aws&#45;c&#45;auth&#45;&gt;aws&#45;c&#45;s3</title>
<path fill="none" stroke="black" d="M293.09,-216.94C307.43,-207.38 325.82,-195.12 341.44,-184.71"/>
<polygon fill="black" stroke="black" points="343.11,-187.8 349.49,-179.34 339.22,-181.98 343.11,-187.8"/>
</g>
<!-- aws&#45;c&#45;auth&#45;&gt;awscrt -->
<g id="edge27" class="edge">
<title>aws&#45;c&#45;auth&#45;&gt;awscrt</title>
<path fill="none" stroke="black" d="M271.96,-215.7C276.48,-194.99 287.23,-160.99 311,-144 376.71,-97.03 617.56,-90.87 728.44,-90.6"/>
<polygon fill="black" stroke="black" points="728.2,-94.1 738.19,-90.59 728.19,-87.1 728.2,-94.1"/>
</g>
<!-- aws&#45;c&#45;auth&#45;&gt;aws&#45;crt&#45;cpp -->
<g id="edge28" class="edge">
<title>aws&#45;c&#45;auth&#45;&gt;aws&#45;crt&#45;cpp</title>
<path fill="none" stroke="black" d="M256.99,-216.26C250.58,-206.26 243.33,-193.01 240,-180 234.88,-159.96 238.78,-136.87 243.76,-119.23"/>
<polygon fill="black" stroke="black" points="247.09,-120.29 246.73,-109.7 240.41,-118.2 247.09,-120.29"/>
</g>
<!-- aws&#45;c&#45;cal -->
<g id="node12" class="node">
<title>aws&#45;c&#45;cal</title>
<g id="a_node12"><a xlink:href="https://github.com/conda-forge/aws-c-cal-feedstock/pull/167" xlink:title="aws c cal ❎">
<ellipse fill="#31688e" stroke="black" cx="315" cy="-450" rx="71.73" ry="18"/>
<text xml:space="preserve" text-anchor="middle" x="315" y="-445.32" font-family="Times,serif" font-size="14.00" fill="white">aws c cal ❎</text>
</a>
</g>
</g>
<!-- aws&#45;c&#45;cal&#45;&gt;aws&#45;c&#45;s3 -->
<g id="edge29" class="edge">
<title>aws&#45;c&#45;cal&#45;&gt;aws&#45;c&#45;s3</title>
<path fill="none" stroke="black" d="M264.72,-436.79C188.11,-415.44 55.03,-366.04 95,-288 135.46,-209.02 242.07,-179.89 311.17,-169.18"/>
<polygon fill="black" stroke="black" points="311.46,-172.67 320.85,-167.77 310.45,-165.75 311.46,-172.67"/>
</g>
<!-- aws&#45;c&#45;cal&#45;&gt;awscrt -->
<g id="edge30" class="edge">
<title>aws&#45;c&#45;cal&#45;&gt;awscrt</title>
<path fill="none" stroke="black" d="M386.55,-448.1C553.56,-444.07 955,-422.38 955,-307 955,-307 955,-307 955,-233 955,-167.62 880.01,-126.45 829.64,-106.17"/>
<polygon fill="black" stroke="black" points="830.99,-102.94 820.4,-102.59 828.46,-109.46 830.99,-102.94"/>
</g>
<!-- aws&#45;c&#45;cal&#45;&gt;aws&#45;crt&#45;cpp -->
<g id="edge31" class="edge">
<title>aws&#45;c&#45;cal&#45;&gt;aws&#45;crt&#45;cpp</title>
<path fill="none" stroke="black" d="M243.92,-447.14C151.01,-440.49 0,-413.33 0,-307 0,-307 0,-307 0,-233 0,-149.51 105.86,-114.63 180.9,-100.4"/>
<polygon fill="black" stroke="black" points="181.48,-103.86 190.7,-98.64 180.24,-96.97 181.48,-103.86"/>
</g>
<!-- aws&#45;c&#45;cal&#45;&gt;aws&#45;c&#45;io -->
<g id="edge32" class="edge">
<title>aws&#45;c&#45;cal&#45;&gt;aws&#45;c&#45;io</title>
<path fill="none" stroke="black" d="M372.35,-438.86C426.4,-429 509.55,-413.05 581,-396 584.75,-395.11 588.62,-394.14 592.5,-393.13"/>
<polygon fill="black" stroke="black" points="593.16,-396.58 601.93,-390.62 591.36,-389.81 593.16,-396.58"/>
</g>
<!-- aws&#45;c&#45;cal&#45;&gt;aws&#45;c&#45;http -->
<g id="edge33" class="edge">
<title>aws&#45;c&#45;cal&#45;&gt;aws&#45;c&#45;http</title>
<path fill="none" stroke="black" d="M319.37,-431.84C324.85,-412.79 335.68,-381.86 353,-360 362.6,-347.88 375.63,-337.17 387.97,-328.6"/>
<polygon fill="black" stroke="black" points="389.54,-331.76 395.94,-323.32 385.67,-325.93 389.54,-331.76"/>
</g>
<!-- aws&#45;c&#45;cal&#45;&gt;aws&#45;c&#45;auth -->
<g id="edge34" class="edge">
<title>aws&#45;c&#45;cal&#45;&gt;aws&#45;c&#45;auth</title>
<path fill="none" stroke="black" d="M311.31,-431.85C303.41,-395.07 284.75,-308.29 275.07,-263.24"/>
<polygon fill="black" stroke="black" points="278.55,-262.75 273.02,-253.71 271.7,-264.22 278.55,-262.75"/>
</g>
<!-- aws&#45;c&#45;compression -->
<g id="node13" class="node">
<title>aws&#45;c&#45;compression</title>
<g id="a_node13"><a xlink:href="https://github.com/conda-forge/aws-c-compression-feedstock" xlink:title="aws c compression">
<ellipse fill="#35b779" stroke="black" cx="467" cy="-378" rx="105.4" ry="18"/>
<text xml:space="preserve" text-anchor="middle" x="467" y="-373.32" font-family="Times,serif" font-size="14.00">aws c compression</text>
</a>
</g>
</g>
<!-- aws&#45;c&#45;compression&#45;&gt;aws&#45;c&#45;http -->
<g id="edge35" class="edge">
<title>aws&#45;c&#45;compression&#45;&gt;aws&#45;c&#45;http</title>
<path fill="none" stroke="black" d="M456.62,-359.7C451.94,-351.9 446.31,-342.51 441.1,-333.83"/>
<polygon fill="black" stroke="black" points="444.19,-332.18 436.04,-325.4 438.19,-335.78 444.19,-332.18"/>
</g>
<!-- aws&#45;c&#45;sdkutils -->
<g id="node14" class="node">
<title>aws&#45;c&#45;sdkutils</title>
<g id="a_node14"><a xlink:href="https://github.com/conda-forge/aws-c-sdkutils-feedstock" xlink:title="aws c sdkutils">
<ellipse fill="#35b779" stroke="black" cx="186" cy="-306" rx="81.72" ry="18"/>
<text xml:space="preserve" text-anchor="middle" x="186" y="-301.32" font-family="Times,serif" font-size="14.00">aws c sdkutils</text>
</a>
</g>
</g>
<!-- aws&#45;c&#45;sdkutils&#45;&gt;aws&#45;crt&#45;cpp -->
<g id="edge36" class="edge">
<title>aws&#45;c&#45;sdkutils&#45;&gt;aws&#45;crt&#45;cpp</title>
<path fill="none" stroke="black" d="M186.03,-287.62C186.45,-269.44 188.27,-240.24 195,-216 204.89,-180.39 224.23,-142.39 238.07,-117.76"/>
<polygon fill="black" stroke="black" points="240.94,-119.8 242.87,-109.38 234.87,-116.32 240.94,-119.8"/>
</g>
<!-- aws&#45;c&#45;sdkutils&#45;&gt;aws&#45;c&#45;auth -->
<g id="edge37" class="edge">
<title>aws&#45;c&#45;sdkutils&#45;&gt;aws&#45;c&#45;auth</title>
<path fill="none" stroke="black" d="M205.67,-288.41C216.21,-279.52 229.38,-268.41 240.98,-258.63"/>
<polygon fill="black" stroke="black" points="242.93,-261.57 248.31,-252.45 238.41,-256.22 242.93,-261.57"/>
</g>
</g>
</svg>
