<?xml version="1.0" encoding="UTF-8" standalone="no"?>
<!DOCTYPE svg PUBLIC "-//W3C//DTD SVG 1.1//EN"
 "http://www.w3.org/Graphics/SVG/1.1/DTD/svg11.dtd">
<!-- Generated by graphviz version 12.2.1 (20250203.1708)
 -->
<!-- Pages: 1 -->
<svg width="661pt" height="332pt"
 viewBox="0.00 0.00 660.54 332.00" xmlns="http://www.w3.org/2000/svg" xmlns:xlink="http://www.w3.org/1999/xlink">
<g id="graph0" class="graph" transform="scale(1 1) rotate(0) translate(4 328)">
<polygon fill="white" stroke="none" points="-4,4 -4,-328 656.54,-328 656.54,4 -4,4"/>
<!-- aws&#45;sdk&#45;cpp -->
<g id="node1" class="node">
<title>aws&#45;sdk&#45;cpp</title>
<g id="a_node1"><a xlink:href="https://github.com/conda-forge/aws-sdk-cpp-feedstock" xlink:title="aws sdk cpp">
<ellipse fill="#fde725" stroke="black" cx="246.81" cy="-18" rx="72.25" ry="18"/>
<text text-anchor="middle" x="246.81" y="-13.32" font-family="Times,serif" font-size="14.00">aws sdk cpp</text>
</a>
</g>
</g>
<!-- aws&#45;c&#45;event&#45;stream -->
<g id="node2" class="node">
<title>aws&#45;c&#45;event&#45;stream</title>
<g id="a_node2"><a xlink:href="https://github.com/conda-forge/aws-c-event-stream-feedstock/pull/206" xlink:title="aws c event stream ❎">
<ellipse fill="#31688e" stroke="black" cx="123.81" cy="-162" rx="123.81" ry="18"/>
<text text-anchor="middle" x="123.81" y="-157.32" font-family="Times,serif" font-size="14.00" fill="white">aws c event stream ❎</text>
</a>
</g>
</g>
<!-- aws&#45;c&#45;event&#45;stream&#45;&gt;aws&#45;sdk&#45;cpp -->
<g id="edge2" class="edge">
<title>aws&#45;c&#45;event&#45;stream&#45;&gt;aws&#45;sdk&#45;cpp</title>
<path fill="none" stroke="black" d="M138.65,-143.87C160.1,-119.11 199.91,-73.14 224.79,-44.42"/>
<polygon fill="black" stroke="black" points="227.41,-46.74 231.31,-36.89 222.12,-42.16 227.41,-46.74"/>
</g>
<!-- aws&#45;crt&#45;cpp -->
<g id="node6" class="node">
<title>aws&#45;crt&#45;cpp</title>
<g id="a_node6"><a xlink:href="https://github.com/conda-forge/aws-crt-cpp-feedstock" xlink:title="aws crt cpp">
<ellipse fill="#fde725" stroke="black" cx="322.81" cy="-90" rx="69.1" ry="18"/>
<text text-anchor="middle" x="322.81" y="-85.33" font-family="Times,serif" font-size="14.00">aws crt cpp</text>
</a>
</g>
</g>
<!-- aws&#45;c&#45;event&#45;stream&#45;&gt;aws&#45;crt&#45;cpp -->
<g id="edge1" class="edge">
<title>aws&#45;c&#45;event&#45;stream&#45;&gt;aws&#45;crt&#45;cpp</title>
<path fill="none" stroke="black" d="M169.47,-144.94C200.05,-134.18 240.36,-120 271.97,-108.88"/>
<polygon fill="black" stroke="black" points="273.06,-112.21 281.33,-105.59 270.74,-105.61 273.06,-112.21"/>
</g>
<!-- awscrt -->
<g id="node8" class="node">
<title>awscrt</title>
<g id="a_node8"><a xlink:href="https://github.com/conda-forge/awscrt-feedstock" xlink:title="awscrt">
<ellipse fill="#fde725" stroke="black" cx="501.81" cy="-90" rx="44.89" ry="18"/>
<text text-anchor="middle" x="501.81" y="-85.33" font-family="Times,serif" font-size="14.00">awscrt</text>
</a>
</g>
</g>
<!-- aws&#45;c&#45;event&#45;stream&#45;&gt;awscrt -->
<g id="edge3" class="edge">
<title>aws&#45;c&#45;event&#45;stream&#45;&gt;awscrt</title>
<path fill="none" stroke="black" d="M198.04,-147.25C272.48,-133.47 385.14,-112.61 450.3,-100.54"/>
<polygon fill="black" stroke="black" points="450.82,-104 460.02,-98.74 449.55,-97.12 450.82,-104"/>
</g>
<!-- aws&#45;c&#45;http -->
<g id="node3" class="node">
<title>aws&#45;c&#45;http</title>
<g id="a_node3"><a xlink:href="https://github.com/conda-forge/aws-c-http-feedstock/pull/248" xlink:title="aws c http ❎">
<ellipse fill="#31688e" stroke="black" cx="490.81" cy="-306" rx="78.57" ry="18"/>
<text text-anchor="middle" x="490.81" y="-301.32" font-family="Times,serif" font-size="14.00" fill="white">aws c http ❎</text>
</a>
</g>
</g>
<!-- aws&#45;c&#45;mqtt -->
<g id="node4" class="node">
<title>aws&#45;c&#45;mqtt</title>
<g id="a_node4"><a xlink:href="https://github.com/conda-forge/aws-c-mqtt-feedstock" xlink:title="aws c mqtt">
<ellipse fill="#fde725" stroke="black" cx="369.81" cy="-162" rx="66.47" ry="18"/>
<text text-anchor="middle" x="369.81" y="-157.32" font-family="Times,serif" font-size="14.00">aws c mqtt</text>
</a>
</g>
</g>
<!-- aws&#45;c&#45;http&#45;&gt;aws&#45;c&#45;mqtt -->
<g id="edge5" class="edge">
<title>aws&#45;c&#45;http&#45;&gt;aws&#45;c&#45;mqtt</title>
<path fill="none" stroke="black" d="M461.99,-288.81C447.17,-279.45 429.59,-266.64 416.81,-252 400.94,-233.82 388.52,-209.35 380.44,-190.67"/>
<polygon fill="black" stroke="black" points="383.72,-189.46 376.66,-181.56 377.26,-192.14 383.72,-189.46"/>
</g>
<!-- aws&#45;c&#45;auth -->
<g id="node5" class="node">
<title>aws&#45;c&#45;auth</title>
<g id="a_node5"><a xlink:href="https://github.com/conda-forge/aws-c-auth-feedstock" xlink:title="aws c auth">
<ellipse fill="#fde725" stroke="black" cx="490.81" cy="-234" rx="64.89" ry="18"/>
<text text-anchor="middle" x="490.81" y="-229.32" font-family="Times,serif" font-size="14.00">aws c auth</text>
</a>
</g>
</g>
<!-- aws&#45;c&#45;http&#45;&gt;aws&#45;c&#45;auth -->
<g id="edge4" class="edge">
<title>aws&#45;c&#45;http&#45;&gt;aws&#45;c&#45;auth</title>
<path fill="none" stroke="black" d="M490.81,-287.7C490.81,-280.41 490.81,-271.73 490.81,-263.54"/>
<polygon fill="black" stroke="black" points="494.31,-263.62 490.81,-253.62 487.31,-263.62 494.31,-263.62"/>
</g>
<!-- aws&#45;c&#45;http&#45;&gt;aws&#45;crt&#45;cpp -->
<g id="edge7" class="edge">
<title>aws&#45;c&#45;http&#45;&gt;aws&#45;crt&#45;cpp</title>
<path fill="none" stroke="black" d="M444.48,-291.14C396.42,-273.9 324.26,-239.28 294.81,-180 284.88,-160.02 293.74,-135.78 304.05,-117.64"/>
<polygon fill="black" stroke="black" points="306.93,-119.64 309.19,-109.29 300.97,-115.97 306.93,-119.64"/>
</g>
<!-- aws&#45;c&#45;s3 -->
<g id="node7" class="node">
<title>aws&#45;c&#45;s3</title>
<g id="a_node7"><a xlink:href="https://github.com/conda-forge/aws-c-s3-feedstock" xlink:title="aws c s3">
<ellipse fill="#fde725" stroke="black" cx="583.81" cy="-162" rx="53.84" ry="18"/>
<text text-anchor="middle" x="583.81" y="-157.32" font-family="Times,serif" font-size="14.00">aws c s3</text>
</a>
</g>
</g>
<!-- aws&#45;c&#45;http&#45;&gt;aws&#45;c&#45;s3 -->
<g id="edge6" class="edge">
<title>aws&#45;c&#45;http&#45;&gt;aws&#45;c&#45;s3</title>
<path fill="none" stroke="black" d="M522.86,-289.23C537.79,-280.29 554.51,-267.73 564.81,-252 576.53,-234.11 581.17,-210.26 582.94,-191.75"/>
<polygon fill="black" stroke="black" points="586.41,-192.21 583.62,-181.99 579.43,-191.71 586.41,-192.21"/>
</g>
<!-- aws&#45;c&#45;http&#45;&gt;awscrt -->
<g id="edge8" class="edge">
<title>aws&#45;c&#45;http&#45;&gt;awscrt</title>
<path fill="none" stroke="black" d="M527.39,-289.74C566.91,-270.81 626.92,-234.25 646.81,-180 652.32,-164.98 655.98,-157.11 646.81,-144 626.62,-115.12 588.91,-101.92 557.01,-95.92"/>
<polygon fill="black" stroke="black" points="557.94,-92.53 547.5,-94.33 556.79,-99.43 557.94,-92.53"/>
</g>
<!-- aws&#45;c&#45;mqtt&#45;&gt;aws&#45;crt&#45;cpp -->
<g id="edge9" class="edge">
<title>aws&#45;c&#45;mqtt&#45;&gt;aws&#45;crt&#45;cpp</title>
<path fill="none" stroke="black" d="M358.43,-144.05C353.01,-135.97 346.39,-126.12 340.34,-117.11"/>
<polygon fill="black" stroke="black" points="343.41,-115.4 334.93,-109.05 337.6,-119.3 343.41,-115.4"/>
</g>
<!-- aws&#45;c&#45;mqtt&#45;&gt;awscrt -->
<g id="edge10" class="edge">
<title>aws&#45;c&#45;mqtt&#45;&gt;awscrt</title>
<path fill="none" stroke="black" d="M399.11,-145.46C418.73,-135.06 444.7,-121.29 465.61,-110.2"/>
<polygon fill="black" stroke="black" points="467.2,-113.32 474.39,-105.54 463.92,-107.13 467.2,-113.32"/>
</g>
<!-- aws&#45;c&#45;auth&#45;&gt;aws&#45;crt&#45;cpp -->
<g id="edge12" class="edge">
<title>aws&#45;c&#45;auth&#45;&gt;aws&#45;crt&#45;cpp</title>
<path fill="none" stroke="black" d="M485.81,-215.75C479.3,-196.05 466.16,-163.96 444.81,-144 426.98,-127.33 403.07,-115.39 381.15,-107.12"/>
<polygon fill="black" stroke="black" points="382.6,-103.92 372.01,-103.85 380.25,-110.51 382.6,-103.92"/>
</g>
<!-- aws&#45;c&#45;auth&#45;&gt;aws&#45;c&#45;s3 -->
<g id="edge11" class="edge">
<title>aws&#45;c&#45;auth&#45;&gt;aws&#45;c&#45;s3</title>
<path fill="none" stroke="black" d="M512.38,-216.76C524.68,-207.51 540.27,-195.77 553.75,-185.63"/>
<polygon fill="black" stroke="black" points="555.58,-188.63 561.47,-179.82 551.38,-183.03 555.58,-188.63"/>
</g>
<!-- aws&#45;c&#45;auth&#45;&gt;awscrt -->
<g id="edge13" class="edge">
<title>aws&#45;c&#45;auth&#45;&gt;awscrt</title>
<path fill="none" stroke="black" d="M492.16,-215.59C494.02,-191.61 497.38,-148.14 499.61,-119.42"/>
<polygon fill="black" stroke="black" points="503.09,-119.86 500.37,-109.62 496.11,-119.32 503.09,-119.86"/>
</g>
<!-- aws&#45;crt&#45;cpp&#45;&gt;aws&#45;sdk&#45;cpp -->
<g id="edge14" class="edge">
<title>aws&#45;crt&#45;cpp&#45;&gt;aws&#45;sdk&#45;cpp</title>
<path fill="none" stroke="black" d="M304.8,-72.41C295.4,-63.76 283.73,-53 273.32,-43.42"/>
<polygon fill="black" stroke="black" points="275.8,-40.94 266.07,-36.74 271.05,-46.09 275.8,-40.94"/>
</g>
<!-- aws&#45;c&#45;s3&#45;&gt;aws&#45;crt&#45;cpp -->
<g id="edge15" class="edge">
<title>aws&#45;c&#45;s3&#45;&gt;aws&#45;crt&#45;cpp</title>
<path fill="none" stroke="black" d="M542.74,-149.99C499.19,-138.31 430.04,-119.76 380.91,-106.58"/>
<polygon fill="black" stroke="black" points="381.84,-103.21 371.28,-104 380.03,-109.97 381.84,-103.21"/>
</g>
<!-- aws&#45;c&#45;s3&#45;&gt;awscrt -->
<g id="edge16" class="edge">
<title>aws&#45;c&#45;s3&#45;&gt;awscrt</title>
<path fill="none" stroke="black" d="M564.79,-144.76C554.09,-135.62 540.54,-124.06 528.75,-114"/>
<polygon fill="black" stroke="black" points="531.19,-111.48 521.31,-107.65 526.65,-116.8 531.19,-111.48"/>
</g>
</g>
</svg>
