<?xml version="1.0" encoding="UTF-8" standalone="no"?>
<!DOCTYPE svg PUBLIC "-//W3C//DTD SVG 1.1//EN"
 "http://www.w3.org/Graphics/SVG/1.1/DTD/svg11.dtd">
<!-- Generated by graphviz version 13.1.2 (20250809.0930)
 -->
<!-- Pages: 1 -->
<svg width="393pt" height="332pt"
 viewBox="0.00 0.00 393.00 332.00" xmlns="http://www.w3.org/2000/svg" xmlns:xlink="http://www.w3.org/1999/xlink">
<g id="graph0" class="graph" transform="scale(1 1) rotate(0) translate(4 328)">
<polygon fill="white" stroke="none" points="-4,4 -4,-328 388.62,-328 388.62,4 -4,4"/>
<!-- arrow&#45;cpp -->
<g id="node1" class="node">
<title>arrow&#45;cpp</title>
<g id="a_node1"><a xlink:href="https://github.com/conda-forge/arrow-cpp-feedstock" xlink:title="arrow cpp">
<ellipse fill="#fde725" stroke="black" cx="61.73" cy="-18" rx="61.73" ry="18"/>
<text xml:space="preserve" text-anchor="middle" x="61.73" y="-13.32" font-family="Times,serif" font-size="14.00">arrow cpp</text>
</a>
</g>
</g>
<!-- hdf5 -->
<g id="node2" class="node">
<title>hdf5</title>
<g id="a_node2"><a xlink:href="https://github.com/conda-forge/hdf5-feedstock" xlink:title="hdf5">
<ellipse fill="#fde725" stroke="black" cx="242.73" cy="-162" rx="33.85" ry="18"/>
<text xml:space="preserve" text-anchor="middle" x="242.73" y="-157.32" font-family="Times,serif" font-size="14.00">hdf5</text>
</a>
</g>
</g>
<!-- tiledb -->
<g id="node3" class="node">
<title>tiledb</title>
<g id="a_node3"><a xlink:href="https://github.com/conda-forge/tiledb-feedstock" xlink:title="tiledb">
<ellipse fill="#fde725" stroke="black" cx="201.73" cy="-18" rx="40.16" ry="18"/>
<text xml:space="preserve" text-anchor="middle" x="201.73" y="-13.32" font-family="Times,serif" font-size="14.00">tiledb</text>
</a>
</g>
</g>
<!-- aws&#45;sdk&#45;cpp -->
<g id="node4" class="node">
<title>aws&#45;sdk&#45;cpp</title>
<g id="a_node4"><a xlink:href="https://github.com/conda-forge/aws-sdk-cpp-feedstock" xlink:title="aws sdk cpp">
<ellipse fill="#fde725" stroke="black" cx="121.73" cy="-90" rx="72.25" ry="18"/>
<text xml:space="preserve" text-anchor="middle" x="121.73" y="-85.33" font-family="Times,serif" font-size="14.00">aws sdk cpp</text>
</a>
</g>
</g>
<!-- aws&#45;sdk&#45;cpp&#45;&gt;arrow&#45;cpp -->
<g id="edge1" class="edge">
<title>aws&#45;sdk&#45;cpp&#45;&gt;arrow&#45;cpp</title>
<path fill="none" stroke="black" d="M107.21,-72.05C100.06,-63.71 91.29,-53.49 83.37,-44.25"/>
<polygon fill="black" stroke="black" points="86.27,-42.25 77.11,-36.94 80.96,-46.81 86.27,-42.25"/>
</g>
<!-- aws&#45;sdk&#45;cpp&#45;&gt;tiledb -->
<g id="edge2" class="edge">
<title>aws&#45;sdk&#45;cpp&#45;&gt;tiledb</title>
<path fill="none" stroke="black" d="M140.69,-72.41C151.04,-63.35 164.03,-51.99 175.36,-42.08"/>
<polygon fill="black" stroke="black" points="177.64,-44.73 182.86,-35.51 173.03,-39.46 177.64,-44.73"/>
</g>
<!-- aws&#45;c&#45;auth -->
<g id="node5" class="node">
<title>aws&#45;c&#45;auth</title>
<g id="a_node5"><a xlink:href="https://github.com/conda-forge/aws-c-auth-feedstock" xlink:title="aws c auth">
<ellipse fill="#ff8c00" stroke="black" cx="256.73" cy="-306" rx="64.89" ry="18"/>
<text xml:space="preserve" text-anchor="middle" x="256.73" y="-301.32" font-family="Times,serif" font-size="14.00">aws c auth</text>
</a>
</g>
</g>
<!-- aws&#45;c&#45;auth&#45;&gt;hdf5 -->
<g id="edge6" class="edge">
<title>aws&#45;c&#45;auth&#45;&gt;hdf5</title>
<path fill="none" stroke="black" d="M266.52,-287.78C275.49,-269.74 286.31,-240.65 278.73,-216 275.59,-205.8 269.76,-195.81 263.68,-187.29"/>
<polygon fill="black" stroke="black" points="266.63,-185.39 257.77,-179.58 261.07,-189.65 266.63,-185.39"/>
</g>
<!-- aws&#45;crt&#45;cpp -->
<g id="node6" class="node">
<title>aws&#45;crt&#45;cpp</title>
<g id="a_node6"><a xlink:href="https://github.com/conda-forge/aws-crt-cpp-feedstock" xlink:title="aws crt cpp">
<ellipse fill="#fde725" stroke="black" cx="121.73" cy="-162" rx="69.1" ry="18"/>
<text xml:space="preserve" text-anchor="middle" x="121.73" y="-157.32" font-family="Times,serif" font-size="14.00">aws crt cpp</text>
</a>
</g>
</g>
<!-- aws&#45;c&#45;auth&#45;&gt;aws&#45;crt&#45;cpp -->
<g id="edge4" class="edge">
<title>aws&#45;c&#45;auth&#45;&gt;aws&#45;crt&#45;cpp</title>
<path fill="none" stroke="black" d="M214.44,-291.95C193.36,-283.54 168.98,-270.63 152.73,-252 137.93,-235.03 130.08,-210.58 125.99,-191.6"/>
<polygon fill="black" stroke="black" points="129.43,-190.99 124.13,-181.81 122.56,-192.29 129.43,-190.99"/>
</g>
<!-- aws&#45;c&#45;s3 -->
<g id="node7" class="node">
<title>aws&#45;c&#45;s3</title>
<g id="a_node7"><a xlink:href="https://github.com/conda-forge/aws-c-s3-feedstock" xlink:title="aws c s3">
<ellipse fill="#fde725" stroke="black" cx="215.73" cy="-234" rx="53.84" ry="18"/>
<text xml:space="preserve" text-anchor="middle" x="215.73" y="-229.32" font-family="Times,serif" font-size="14.00">aws c s3</text>
</a>
</g>
</g>
<!-- aws&#45;c&#45;auth&#45;&gt;aws&#45;c&#45;s3 -->
<g id="edge3" class="edge">
<title>aws&#45;c&#45;auth&#45;&gt;aws&#45;c&#45;s3</title>
<path fill="none" stroke="black" d="M246.81,-288.05C242.17,-280.14 236.55,-270.54 231.36,-261.69"/>
<polygon fill="black" stroke="black" points="234.4,-259.95 226.33,-253.1 228.36,-263.49 234.4,-259.95"/>
</g>
<!-- awscrt -->
<g id="node8" class="node">
<title>awscrt</title>
<g id="a_node8"><a xlink:href="https://github.com/conda-forge/awscrt-feedstock" xlink:title="awscrt">
<ellipse fill="#fde725" stroke="black" cx="339.73" cy="-162" rx="44.89" ry="18"/>
<text xml:space="preserve" text-anchor="middle" x="339.73" y="-157.32" font-family="Times,serif" font-size="14.00">awscrt</text>
</a>
</g>
</g>
<!-- aws&#45;c&#45;auth&#45;&gt;awscrt -->
<g id="edge5" class="edge">
<title>aws&#45;c&#45;auth&#45;&gt;awscrt</title>
<path fill="none" stroke="black" d="M269.32,-288.2C276.77,-277.96 286.19,-264.49 293.73,-252 305.87,-231.9 317.99,-208.25 326.75,-190.39"/>
<polygon fill="black" stroke="black" points="329.86,-191.98 331.07,-181.46 323.56,-188.93 329.86,-191.98"/>
</g>
<!-- aws&#45;crt&#45;cpp&#45;&gt;arrow&#45;cpp -->
<g id="edge7" class="edge">
<title>aws&#45;crt&#45;cpp&#45;&gt;arrow&#45;cpp</title>
<path fill="none" stroke="black" d="M84.72,-146.61C68.11,-138.07 50.16,-125.44 40.73,-108 30.31,-88.74 37.22,-64.4 45.8,-46.04"/>
<polygon fill="black" stroke="black" points="48.81,-47.85 50.24,-37.36 42.58,-44.67 48.81,-47.85"/>
</g>
<!-- aws&#45;crt&#45;cpp&#45;&gt;tiledb -->
<g id="edge9" class="edge">
<title>aws&#45;crt&#45;cpp&#45;&gt;tiledb</title>
<path fill="none" stroke="black" d="M158.74,-146.61C175.35,-138.07 193.3,-125.44 202.73,-108 212.68,-89.6 211.83,-65.78 208.82,-47.41"/>
<polygon fill="black" stroke="black" points="212.27,-46.86 206.91,-37.73 205.41,-48.21 212.27,-46.86"/>
</g>
<!-- aws&#45;crt&#45;cpp&#45;&gt;aws&#45;sdk&#45;cpp -->
<g id="edge8" class="edge">
<title>aws&#45;crt&#45;cpp&#45;&gt;aws&#45;sdk&#45;cpp</title>
<path fill="none" stroke="black" d="M121.73,-143.7C121.73,-136.41 121.73,-127.73 121.73,-119.54"/>
<polygon fill="black" stroke="black" points="125.23,-119.62 121.73,-109.62 118.23,-119.62 125.23,-119.62"/>
</g>
<!-- aws&#45;c&#45;s3&#45;&gt;hdf5 -->
<g id="edge12" class="edge">
<title>aws&#45;c&#45;s3&#45;&gt;hdf5</title>
<path fill="none" stroke="black" d="M222.4,-215.7C225.31,-208.15 228.8,-199.12 232.05,-190.68"/>
<polygon fill="black" stroke="black" points="235.25,-192.11 235.59,-181.52 228.72,-189.59 235.25,-192.11"/>
</g>
<!-- aws&#45;c&#45;s3&#45;&gt;aws&#45;crt&#45;cpp -->
<g id="edge10" class="edge">
<title>aws&#45;c&#45;s3&#45;&gt;aws&#45;crt&#45;cpp</title>
<path fill="none" stroke="black" d="M194.4,-217.12C182.08,-207.94 166.36,-196.23 152.69,-186.06"/>
<polygon fill="black" stroke="black" points="154.95,-183.38 144.84,-180.21 150.77,-188.99 154.95,-183.38"/>
</g>
<!-- aws&#45;c&#45;s3&#45;&gt;awscrt -->
<g id="edge11" class="edge">
<title>aws&#45;c&#45;s3&#45;&gt;awscrt</title>
<path fill="none" stroke="black" d="M242.33,-217.98C260.51,-207.72 284.8,-194.01 304.57,-182.85"/>
<polygon fill="black" stroke="black" points="306.14,-185.98 313.13,-178.02 302.7,-179.89 306.14,-185.98"/>
</g>
</g>
</svg>
