<?xml version="1.0" encoding="UTF-8" standalone="no"?>
<!DOCTYPE svg PUBLIC "-//W3C//DTD SVG 1.1//EN"
 "http://www.w3.org/Graphics/SVG/1.1/DTD/svg11.dtd">
<!-- Generated by graphviz version 13.1.2 (20250809.0930)
 -->
<!-- Pages: 1 -->
<svg width="1469pt" height="260pt"
 viewBox="0.00 0.00 1469.00 260.00" xmlns="http://www.w3.org/2000/svg" xmlns:xlink="http://www.w3.org/1999/xlink">
<g id="graph0" class="graph" transform="scale(1 1) rotate(0) translate(4 256)">
<polygon fill="white" stroke="none" points="-4,4 -4,-256 1465.1,-256 1465.1,4 -4,4"/>
<!-- arrow&#45;cpp -->
<g id="node1" class="node">
<title>arrow&#45;cpp</title>
<g id="a_node1"><a xlink:href="https://github.com/conda-forge/arrow-cpp-feedstock" xlink:title="arrow cpp">
<ellipse fill="#fde725" stroke="black" cx="905.98" cy="-90" rx="61.73" ry="18"/>
<text xml:space="preserve" text-anchor="middle" x="905.98" y="-85.33" font-family="Times,serif" font-size="14.00">arrow cpp</text>
</a>
</g>
</g>
<!-- arcticdb -->
<g id="node3" class="node">
<title>arcticdb</title>
<g id="a_node3"><a xlink:href="https://github.com/conda-forge/arcticdb-feedstock" xlink:title="arcticdb">
<ellipse fill="#fde725" stroke="black" cx="601.98" cy="-18" rx="52.26" ry="18"/>
<text xml:space="preserve" text-anchor="middle" x="601.98" y="-13.32" font-family="Times,serif" font-size="14.00">arcticdb</text>
</a>
</g>
</g>
<!-- arrow&#45;cpp&#45;&gt;arcticdb -->
<g id="edge1" class="edge">
<title>arrow&#45;cpp&#45;&gt;arcticdb</title>
<path fill="none" stroke="black" d="M858.48,-78.06C803.37,-65.37 712.75,-44.51 655.28,-31.27"/>
<polygon fill="black" stroke="black" points="656.25,-27.91 645.72,-29.07 654.68,-34.73 656.25,-27.91"/>
</g>
<!-- tiledb -->
<g id="node2" class="node">
<title>tiledb</title>
<g id="a_node2"><a xlink:href="https://github.com/conda-forge/tiledb-feedstock" xlink:title="tiledb">
<ellipse fill="#fde725" stroke="black" cx="746.98" cy="-90" rx="40.16" ry="18"/>
<text xml:space="preserve" text-anchor="middle" x="746.98" y="-85.33" font-family="Times,serif" font-size="14.00">tiledb</text>
</a>
</g>
</g>
<!-- azure&#45;storage&#45;queues&#45;cpp -->
<g id="node4" class="node">
<title>azure&#45;storage&#45;queues&#45;cpp</title>
<g id="a_node4"><a xlink:href="https://github.com/conda-forge/azure-storage-queues-cpp-feedstock" xlink:title="azure storage queues cpp">
<ellipse fill="#35b779" stroke="black" cx="1320.98" cy="-126" rx="140.12" ry="18"/>
<text xml:space="preserve" text-anchor="middle" x="1320.98" y="-121.33" font-family="Times,serif" font-size="14.00">azure storage queues cpp</text>
</a>
</g>
</g>
<!-- azure&#45;storage&#45;files&#45;datalake&#45;cpp -->
<g id="node5" class="node">
<title>azure&#45;storage&#45;files&#45;datalake&#45;cpp</title>
<g id="a_node5"><a xlink:href="https://github.com/conda-forge/azure-storage-files-datalake-cpp-feedstock" xlink:title="azure storage files datalake cpp">
<ellipse fill="#fde725" stroke="black" cx="945.98" cy="-162" rx="170.63" ry="18"/>
<text xml:space="preserve" text-anchor="middle" x="945.98" y="-157.32" font-family="Times,serif" font-size="14.00">azure storage files datalake cpp</text>
</a>
</g>
</g>
<!-- azure&#45;storage&#45;files&#45;datalake&#45;cpp&#45;&gt;arrow&#45;cpp -->
<g id="edge2" class="edge">
<title>azure&#45;storage&#45;files&#45;datalake&#45;cpp&#45;&gt;arrow&#45;cpp</title>
<path fill="none" stroke="black" d="M936.09,-143.7C931.64,-135.9 926.27,-126.51 921.31,-117.83"/>
<polygon fill="black" stroke="black" points="924.5,-116.36 916.5,-109.42 918.43,-119.84 924.5,-116.36"/>
</g>
<!-- azure&#45;storage&#45;files&#45;datalake&#45;cpp&#45;&gt;tiledb -->
<g id="edge3" class="edge">
<title>azure&#45;storage&#45;files&#45;datalake&#45;cpp&#45;&gt;tiledb</title>
<path fill="none" stroke="black" d="M898.31,-144.23C864.89,-132.47 820.63,-116.91 788.61,-105.65"/>
<polygon fill="black" stroke="black" points="789.86,-102.37 779.27,-102.36 787.54,-108.98 789.86,-102.37"/>
</g>
<!-- azure&#45;storage&#45;files&#45;shares&#45;cpp -->
<g id="node6" class="node">
<title>azure&#45;storage&#45;files&#45;shares&#45;cpp</title>
<g id="a_node6"><a xlink:href="https://github.com/conda-forge/azure-storage-files-shares-cpp-feedstock" xlink:title="azure storage files shares cpp">
<ellipse fill="#35b779" stroke="black" cx="304.98" cy="-162" rx="161.17" ry="18"/>
<text xml:space="preserve" text-anchor="middle" x="304.98" y="-157.32" font-family="Times,serif" font-size="14.00">azure storage files shares cpp</text>
</a>
</g>
</g>
<!-- khiops&#45;driver&#45;azure -->
<g id="node9" class="node">
<title>khiops&#45;driver&#45;azure</title>
<g id="a_node9"><a xlink:href="https://github.com/conda-forge/khiops-driver-azure-feedstock" xlink:title="khiops driver azure">
<ellipse fill="#fde725" stroke="black" cx="304.98" cy="-90" rx="108.55" ry="18"/>
<text xml:space="preserve" text-anchor="middle" x="304.98" y="-85.33" font-family="Times,serif" font-size="14.00">khiops driver azure</text>
</a>
</g>
</g>
<!-- azure&#45;storage&#45;files&#45;shares&#45;cpp&#45;&gt;khiops&#45;driver&#45;azure -->
<g id="edge4" class="edge">
<title>azure&#45;storage&#45;files&#45;shares&#45;cpp&#45;&gt;khiops&#45;driver&#45;azure</title>
<path fill="none" stroke="black" d="M304.98,-143.7C304.98,-136.41 304.98,-127.73 304.98,-119.54"/>
<polygon fill="black" stroke="black" points="308.48,-119.62 304.98,-109.62 301.48,-119.62 308.48,-119.62"/>
</g>
<!-- azure&#45;identity&#45;cpp -->
<g id="node7" class="node">
<title>azure&#45;identity&#45;cpp</title>
<g id="a_node7"><a xlink:href="https://github.com/conda-forge/azure-identity-cpp-feedstock/pull/24" xlink:title="azure identity cpp ❎">
<ellipse fill="#31688e" stroke="black" cx="601.98" cy="-162" rx="117.5" ry="18"/>
<text xml:space="preserve" text-anchor="middle" x="601.98" y="-157.32" font-family="Times,serif" font-size="14.00" fill="white">azure identity cpp ❎</text>
</a>
</g>
</g>
<!-- azure&#45;identity&#45;cpp&#45;&gt;arrow&#45;cpp -->
<g id="edge6" class="edge">
<title>azure&#45;identity&#45;cpp&#45;&gt;arrow&#45;cpp</title>
<path fill="none" stroke="black" d="M665.34,-146.41C719,-134.05 795.31,-116.48 847.53,-104.46"/>
<polygon fill="black" stroke="black" points="848.18,-107.9 857.14,-102.25 846.61,-101.08 848.18,-107.9"/>
</g>
<!-- azure&#45;identity&#45;cpp&#45;&gt;tiledb -->
<g id="edge8" class="edge">
<title>azure&#45;identity&#45;cpp&#45;&gt;tiledb</title>
<path fill="none" stroke="black" d="M636.34,-144.41C658.61,-133.66 687.59,-119.67 710.3,-108.71"/>
<polygon fill="black" stroke="black" points="711.72,-111.91 719.21,-104.41 708.68,-105.6 711.72,-111.91"/>
</g>
<!-- azure&#45;identity&#45;cpp&#45;&gt;arcticdb -->
<g id="edge5" class="edge">
<title>azure&#45;identity&#45;cpp&#45;&gt;arcticdb</title>
<path fill="none" stroke="black" d="M601.98,-143.59C601.98,-119.61 601.98,-76.14 601.98,-47.42"/>
<polygon fill="black" stroke="black" points="605.48,-47.62 601.98,-37.62 598.48,-47.62 605.48,-47.62"/>
</g>
<!-- azure&#45;identity&#45;cpp&#45;&gt;khiops&#45;driver&#45;azure -->
<g id="edge7" class="edge">
<title>azure&#45;identity&#45;cpp&#45;&gt;khiops&#45;driver&#45;azure</title>
<path fill="none" stroke="black" d="M539.72,-146.33C492.12,-135.11 426.43,-119.62 376.64,-107.89"/>
<polygon fill="black" stroke="black" points="377.64,-104.53 367.11,-105.64 376.04,-111.34 377.64,-104.53"/>
</g>
<!-- azure&#45;storage&#45;blobs&#45;cpp -->
<g id="node8" class="node">
<title>azure&#45;storage&#45;blobs&#45;cpp</title>
<g id="a_node8"><a xlink:href="https://github.com/conda-forge/azure-storage-blobs-cpp-feedstock" xlink:title="azure storage blobs cpp">
<ellipse fill="#35b779" stroke="black" cx="746.98" cy="-234" rx="131.18" ry="18"/>
<text xml:space="preserve" text-anchor="middle" x="746.98" y="-229.32" font-family="Times,serif" font-size="14.00">azure storage blobs cpp</text>
</a>
</g>
</g>
<!-- azure&#45;storage&#45;blobs&#45;cpp&#45;&gt;arrow&#45;cpp -->
<g id="edge10" class="edge">
<title>azure&#45;storage&#45;blobs&#45;cpp&#45;&gt;arrow&#45;cpp</title>
<path fill="none" stroke="black" d="M877.66,-232.38C974.13,-228.81 1093.98,-216.78 1125.98,-180 1172.47,-126.56 1057.31,-104.76 976.64,-96.2"/>
<polygon fill="black" stroke="black" points="977.31,-92.75 967.01,-95.23 976.61,-99.72 977.31,-92.75"/>
</g>
<!-- azure&#45;storage&#45;blobs&#45;cpp&#45;&gt;tiledb -->
<g id="edge13" class="edge">
<title>azure&#45;storage&#45;blobs&#45;cpp&#45;&gt;tiledb</title>
<path fill="none" stroke="black" d="M746.98,-215.59C746.98,-191.61 746.98,-148.14 746.98,-119.42"/>
<polygon fill="black" stroke="black" points="750.48,-119.62 746.98,-109.62 743.48,-119.62 750.48,-119.62"/>
</g>
<!-- azure&#45;storage&#45;blobs&#45;cpp&#45;&gt;arcticdb -->
<g id="edge9" class="edge">
<title>azure&#45;storage&#45;blobs&#45;cpp&#45;&gt;arcticdb</title>
<path fill="none" stroke="black" d="M617.04,-231.17C443.71,-227.35 154.74,-215.66 121.98,-180 0,-47.24 381.64,-23.87 538.17,-19.82"/>
<polygon fill="black" stroke="black" points="538.06,-23.32 547.98,-19.59 537.9,-16.32 538.06,-23.32"/>
</g>
<!-- azure&#45;storage&#45;blobs&#45;cpp&#45;&gt;azure&#45;storage&#45;files&#45;datalake&#45;cpp -->
<g id="edge11" class="edge">
<title>azure&#45;storage&#45;blobs&#45;cpp&#45;&gt;azure&#45;storage&#45;files&#45;datalake&#45;cpp</title>
<path fill="none" stroke="black" d="M793.13,-216.76C821.26,-206.87 857.45,-194.14 887.56,-183.55"/>
<polygon fill="black" stroke="black" points="888.65,-186.88 896.92,-180.26 886.32,-180.27 888.65,-186.88"/>
</g>
<!-- azure&#45;storage&#45;blobs&#45;cpp&#45;&gt;khiops&#45;driver&#45;azure -->
<g id="edge12" class="edge">
<title>azure&#45;storage&#45;blobs&#45;cpp&#45;&gt;khiops&#45;driver&#45;azure</title>
<path fill="none" stroke="black" d="M617.22,-230.91C447.23,-226.8 166.88,-214.78 134.98,-180 101.98,-144.02 162.48,-120.07 220.24,-106.16"/>
<polygon fill="black" stroke="black" points="220.91,-109.6 229.87,-103.94 219.34,-102.78 220.91,-109.6"/>
</g>
</g>
</svg>
