<?xml version="1.0" encoding="UTF-8" standalone="no"?>
<!DOCTYPE svg PUBLIC "-//W3C//DTD SVG 1.1//EN"
 "http://www.w3.org/Graphics/SVG/1.1/DTD/svg11.dtd">
<!-- Generated by graphviz version 13.1.2 (20250809.0930)
 -->
<!-- Pages: 1 -->
<svg width="671pt" height="188pt"
 viewBox="0.00 0.00 671.00 188.00" xmlns="http://www.w3.org/2000/svg" xmlns:xlink="http://www.w3.org/1999/xlink">
<g id="graph0" class="graph" transform="scale(1 1) rotate(0) translate(4 184)">
<polygon fill="white" stroke="none" points="-4,4 -4,-184 667.19,-184 667.19,4 -4,4"/>
<!-- arrow&#45;cpp -->
<g id="node1" class="node">
<title>arrow&#45;cpp</title>
<g id="a_node1"><a xlink:href="https://github.com/conda-forge/arrow-cpp-feedstock" xlink:title="arrow cpp">
<ellipse fill="#fde725" stroke="black" cx="229.63" cy="-90" rx="61.73" ry="18"/>
<text xml:space="preserve" text-anchor="middle" x="229.63" y="-85.33" font-family="Times,serif" font-size="14.00">arrow cpp</text>
</a>
</g>
</g>
<!-- arcticdb -->
<g id="node3" class="node">
<title>arcticdb</title>
<g id="a_node3"><a xlink:href="https://github.com/conda-forge/arcticdb-feedstock" xlink:title="arcticdb">
<ellipse fill="#fde725" stroke="black" cx="323.63" cy="-18" rx="52.26" ry="18"/>
<text xml:space="preserve" text-anchor="middle" x="323.63" y="-13.32" font-family="Times,serif" font-size="14.00">arcticdb</text>
</a>
</g>
</g>
<!-- arrow&#45;cpp&#45;&gt;arcticdb -->
<g id="edge1" class="edge">
<title>arrow&#45;cpp&#45;&gt;arcticdb</title>
<path fill="none" stroke="black" d="M251.44,-72.76C263.86,-63.51 279.63,-51.77 293.25,-41.63"/>
<polygon fill="black" stroke="black" points="295.13,-44.59 301.06,-35.81 290.95,-38.98 295.13,-44.59"/>
</g>
<!-- tiledb -->
<g id="node2" class="node">
<title>tiledb</title>
<g id="a_node2"><a xlink:href="https://github.com/conda-forge/tiledb-feedstock" xlink:title="tiledb">
<ellipse fill="#fde725" stroke="black" cx="349.63" cy="-90" rx="40.16" ry="18"/>
<text xml:space="preserve" text-anchor="middle" x="349.63" y="-85.33" font-family="Times,serif" font-size="14.00">tiledb</text>
</a>
</g>
</g>
<!-- azure&#45;storage&#45;files&#45;datalake&#45;cpp -->
<g id="node4" class="node">
<title>azure&#45;storage&#45;files&#45;datalake&#45;cpp</title>
<g id="a_node4"><a xlink:href="https://github.com/conda-forge/azure-storage-files-datalake-cpp-feedstock" xlink:title="azure storage files datalake cpp">
<ellipse fill="#35b779" stroke="black" cx="170.63" cy="-162" rx="170.63" ry="18"/>
<text xml:space="preserve" text-anchor="middle" x="170.63" y="-157.32" font-family="Times,serif" font-size="14.00">azure storage files datalake cpp</text>
</a>
</g>
</g>
<!-- azure&#45;storage&#45;files&#45;datalake&#45;cpp&#45;&gt;arrow&#45;cpp -->
<g id="edge2" class="edge">
<title>azure&#45;storage&#45;files&#45;datalake&#45;cpp&#45;&gt;arrow&#45;cpp</title>
<path fill="none" stroke="black" d="M185.22,-143.7C192.18,-135.44 200.65,-125.39 208.31,-116.3"/>
<polygon fill="black" stroke="black" points="210.88,-118.68 214.65,-108.78 205.53,-114.17 210.88,-118.68"/>
</g>
<!-- azure&#45;storage&#45;files&#45;datalake&#45;cpp&#45;&gt;tiledb -->
<g id="edge3" class="edge">
<title>azure&#45;storage&#45;files&#45;datalake&#45;cpp&#45;&gt;tiledb</title>
<path fill="none" stroke="black" d="M213.51,-144.23C242.67,-132.83 281,-117.84 309.56,-106.67"/>
<polygon fill="black" stroke="black" points="310.53,-110.05 318.57,-103.15 307.98,-103.53 310.53,-110.05"/>
</g>
<!-- azure&#45;identity&#45;cpp -->
<g id="node5" class="node">
<title>azure&#45;identity&#45;cpp</title>
<g id="a_node5"><a xlink:href="https://github.com/conda-forge/azure-identity-cpp-feedstock/pull/24" xlink:title="azure identity cpp ❎">
<ellipse fill="#31688e" stroke="black" cx="476.63" cy="-162" rx="117.5" ry="18"/>
<text xml:space="preserve" text-anchor="middle" x="476.63" y="-157.32" font-family="Times,serif" font-size="14.00" fill="white">azure identity cpp ❎</text>
</a>
</g>
</g>
<!-- azure&#45;identity&#45;cpp&#45;&gt;arrow&#45;cpp -->
<g id="edge5" class="edge">
<title>azure&#45;identity&#45;cpp&#45;&gt;arrow&#45;cpp</title>
<path fill="none" stroke="black" d="M422.43,-145.64C381.19,-133.95 324.72,-117.95 283.55,-106.28"/>
<polygon fill="black" stroke="black" points="284.67,-102.96 274.1,-103.6 282.76,-109.69 284.67,-102.96"/>
</g>
<!-- azure&#45;identity&#45;cpp&#45;&gt;tiledb -->
<g id="edge7" class="edge">
<title>azure&#45;identity&#45;cpp&#45;&gt;tiledb</title>
<path fill="none" stroke="black" d="M446.22,-144.23C427.55,-133.95 403.61,-120.75 384.22,-110.07"/>
<polygon fill="black" stroke="black" points="386.05,-107.07 375.6,-105.31 382.67,-113.2 386.05,-107.07"/>
</g>
<!-- azure&#45;identity&#45;cpp&#45;&gt;arcticdb -->
<g id="edge4" class="edge">
<title>azure&#45;identity&#45;cpp&#45;&gt;arcticdb</title>
<path fill="none" stroke="black" d="M463.62,-143.86C448.95,-125.1 423.82,-94.69 398.63,-72 385.96,-60.58 370.77,-49.45 357.39,-40.35"/>
<polygon fill="black" stroke="black" points="359.55,-37.59 349.29,-34.96 355.67,-43.41 359.55,-37.59"/>
</g>
<!-- khiops&#45;driver&#45;azure -->
<g id="node6" class="node">
<title>khiops&#45;driver&#45;azure</title>
<g id="a_node6"><a xlink:href="https://github.com/conda-forge/khiops-driver-azure-feedstock" xlink:title="khiops driver azure">
<ellipse fill="#fde725" stroke="black" cx="554.63" cy="-90" rx="108.55" ry="18"/>
<text xml:space="preserve" text-anchor="middle" x="554.63" y="-85.33" font-family="Times,serif" font-size="14.00">khiops driver azure</text>
</a>
</g>
</g>
<!-- azure&#45;identity&#45;cpp&#45;&gt;khiops&#45;driver&#45;azure -->
<g id="edge6" class="edge">
<title>azure&#45;identity&#45;cpp&#45;&gt;khiops&#45;driver&#45;azure</title>
<path fill="none" stroke="black" d="M495.52,-144.05C505.03,-135.52 516.74,-125.01 527.22,-115.61"/>
<polygon fill="black" stroke="black" points="529.43,-118.33 534.53,-109.04 524.75,-113.12 529.43,-118.33"/>
</g>
</g>
</svg>
