<?xml version="1.0" encoding="UTF-8" standalone="no"?>
<!DOCTYPE svg PUBLIC "-//W3C//DTD SVG 1.1//EN"
 "http://www.w3.org/Graphics/SVG/1.1/DTD/svg11.dtd">
<!-- Generated by graphviz version 13.1.2 (20250809.0930)
 -->
<!-- Pages: 1 -->
<svg width="693pt" height="188pt"
 viewBox="0.00 0.00 693.00 188.00" xmlns="http://www.w3.org/2000/svg" xmlns:xlink="http://www.w3.org/1999/xlink">
<g id="graph0" class="graph" transform="scale(1 1) rotate(0) translate(4 184)">
<polygon fill="white" stroke="none" points="-4,4 -4,-184 689.45,-184 689.45,4 -4,4"/>
<!-- arrow&#45;cpp -->
<g id="node1" class="node">
<title>arrow&#45;cpp</title>
<g id="a_node1"><a xlink:href="https://github.com/conda-forge/arrow-cpp-feedstock" xlink:title="arrow cpp">
<ellipse fill="#fde725" stroke="black" cx="251.89" cy="-90" rx="61.73" ry="18"/>
<text xml:space="preserve" text-anchor="middle" x="251.89" y="-85.33" font-family="Times,serif" font-size="14.00">arrow cpp</text>
</a>
</g>
</g>
<!-- arcticdb -->
<g id="node3" class="node">
<title>arcticdb</title>
<g id="a_node3"><a xlink:href="https://github.com/conda-forge/arcticdb-feedstock" xlink:title="arcticdb">
<ellipse fill="#fde725" stroke="black" cx="345.89" cy="-18" rx="52.26" ry="18"/>
<text xml:space="preserve" text-anchor="middle" x="345.89" y="-13.32" font-family="Times,serif" font-size="14.00">arcticdb</text>
</a>
</g>
</g>
<!-- arrow&#45;cpp&#45;&gt;arcticdb -->
<g id="edge1" class="edge">
<title>arrow&#45;cpp&#45;&gt;arcticdb</title>
<path fill="none" stroke="black" d="M273.69,-72.76C286.12,-63.51 301.88,-51.77 315.51,-41.63"/>
<polygon fill="black" stroke="black" points="317.39,-44.59 323.32,-35.81 313.21,-38.98 317.39,-44.59"/>
</g>
<!-- tiledb -->
<g id="node2" class="node">
<title>tiledb</title>
<g id="a_node2"><a xlink:href="https://github.com/conda-forge/tiledb-feedstock" xlink:title="tiledb">
<ellipse fill="#fde725" stroke="black" cx="371.89" cy="-90" rx="40.16" ry="18"/>
<text xml:space="preserve" text-anchor="middle" x="371.89" y="-85.33" font-family="Times,serif" font-size="14.00">tiledb</text>
</a>
</g>
</g>
<!-- azure&#45;storage&#45;files&#45;datalake&#45;cpp -->
<g id="node4" class="node">
<title>azure&#45;storage&#45;files&#45;datalake&#45;cpp</title>
<g id="a_node4"><a xlink:href="https://github.com/conda-forge/azure-storage-files-datalake-cpp-feedstock/pull/26" xlink:title="azure storage files datalake cpp ❎">
<ellipse fill="#31688e" stroke="black" cx="185.89" cy="-162" rx="185.89" ry="18"/>
<text xml:space="preserve" text-anchor="middle" x="185.89" y="-157.32" font-family="Times,serif" font-size="14.00" fill="white">azure storage files datalake cpp ❎</text>
</a>
</g>
</g>
<!-- azure&#45;storage&#45;files&#45;datalake&#45;cpp&#45;&gt;arrow&#45;cpp -->
<g id="edge2" class="edge">
<title>azure&#45;storage&#45;files&#45;datalake&#45;cpp&#45;&gt;arrow&#45;cpp</title>
<path fill="none" stroke="black" d="M202.21,-143.7C210.16,-135.27 219.86,-124.97 228.57,-115.73"/>
<polygon fill="black" stroke="black" points="230.87,-118.4 235.18,-108.72 225.77,-113.6 230.87,-118.4"/>
</g>
<!-- azure&#45;storage&#45;files&#45;datalake&#45;cpp&#45;&gt;tiledb -->
<g id="edge3" class="edge">
<title>azure&#45;storage&#45;files&#45;datalake&#45;cpp&#45;&gt;tiledb</title>
<path fill="none" stroke="black" d="M230.92,-144.05C261.56,-132.52 301.77,-117.39 331.4,-106.24"/>
<polygon fill="black" stroke="black" points="332.26,-109.66 340.38,-102.86 329.79,-103.1 332.26,-109.66"/>
</g>
<!-- azure&#45;identity&#45;cpp -->
<g id="node5" class="node">
<title>azure&#45;identity&#45;cpp</title>
<g id="a_node5"><a xlink:href="https://github.com/conda-forge/azure-identity-cpp-feedstock/pull/24" xlink:title="azure identity cpp ❎">
<ellipse fill="#31688e" stroke="black" cx="506.89" cy="-162" rx="117.5" ry="18"/>
<text xml:space="preserve" text-anchor="middle" x="506.89" y="-157.32" font-family="Times,serif" font-size="14.00" fill="white">azure identity cpp ❎</text>
</a>
</g>
</g>
<!-- azure&#45;identity&#45;cpp&#45;&gt;arrow&#45;cpp -->
<g id="edge5" class="edge">
<title>azure&#45;identity&#45;cpp&#45;&gt;arrow&#45;cpp</title>
<path fill="none" stroke="black" d="M451.25,-145.72C408.33,-133.94 349.3,-117.74 306.62,-106.02"/>
<polygon fill="black" stroke="black" points="307.62,-102.67 297.05,-103.4 305.77,-109.42 307.62,-102.67"/>
</g>
<!-- azure&#45;identity&#45;cpp&#45;&gt;tiledb -->
<g id="edge7" class="edge">
<title>azure&#45;identity&#45;cpp&#45;&gt;tiledb</title>
<path fill="none" stroke="black" d="M474.56,-144.23C454.27,-133.71 428.1,-120.15 407.27,-109.34"/>
<polygon fill="black" stroke="black" points="409.05,-106.32 398.56,-104.83 405.83,-112.54 409.05,-106.32"/>
</g>
<!-- azure&#45;identity&#45;cpp&#45;&gt;arcticdb -->
<g id="edge4" class="edge">
<title>azure&#45;identity&#45;cpp&#45;&gt;arcticdb</title>
<path fill="none" stroke="black" d="M491.92,-143.67C475.41,-125.01 447.64,-94.94 420.89,-72 407.94,-60.89 392.71,-49.81 379.37,-40.67"/>
<polygon fill="black" stroke="black" points="381.55,-37.92 371.3,-35.23 377.64,-43.73 381.55,-37.92"/>
</g>
<!-- khiops&#45;driver&#45;azure -->
<g id="node6" class="node">
<title>khiops&#45;driver&#45;azure</title>
<g id="a_node6"><a xlink:href="https://github.com/conda-forge/khiops-driver-azure-feedstock" xlink:title="khiops driver azure">
<ellipse fill="#fde725" stroke="black" cx="576.89" cy="-90" rx="108.55" ry="18"/>
<text xml:space="preserve" text-anchor="middle" x="576.89" y="-85.33" font-family="Times,serif" font-size="14.00">khiops driver azure</text>
</a>
</g>
</g>
<!-- azure&#45;identity&#45;cpp&#45;&gt;khiops&#45;driver&#45;azure -->
<g id="edge6" class="edge">
<title>azure&#45;identity&#45;cpp&#45;&gt;khiops&#45;driver&#45;azure</title>
<path fill="none" stroke="black" d="M523.84,-144.05C532.35,-135.54 542.82,-125.07 552.21,-115.68"/>
<polygon fill="black" stroke="black" points="554.44,-118.41 559.03,-108.86 549.49,-113.46 554.44,-118.41"/>
</g>
</g>
</svg>
