<?xml version="1.0" encoding="UTF-8" standalone="no"?>
<!DOCTYPE svg PUBLIC "-//W3C//DTD SVG 1.1//EN"
 "http://www.w3.org/Graphics/SVG/1.1/DTD/svg11.dtd">
<!-- Generated by graphviz version 12.0.0 (20240803.0821)
 -->
<!-- Pages: 1 -->
<svg width="1181pt" height="260pt"
 viewBox="0.00 0.00 1181.37 260.00" xmlns="http://www.w3.org/2000/svg" xmlns:xlink="http://www.w3.org/1999/xlink">
<g id="graph0" class="graph" transform="scale(1 1) rotate(0) translate(4 256)">
<polygon fill="white" stroke="none" points="-4,4 -4,-256 1177.37,-256 1177.37,4 -4,4"/>
<!-- arrow&#45;cpp -->
<g id="node1" class="node">
<title>arrow&#45;cpp</title>
<g id="a_node1"><a xlink:href="https://github.com/conda-forge/arrow-cpp-feedstock" xlink:title="arrow cpp">
<ellipse fill="#fde725" stroke="black" cx="308.42" cy="-90" rx="61.73" ry="18"/>
<text text-anchor="middle" x="308.42" y="-85.33" font-family="Times,serif" font-size="14.00">arrow cpp</text>
</a>
</g>
</g>
<!-- arcticdb -->
<g id="node3" class="node">
<title>arcticdb</title>
<g id="a_node3"><a xlink:href="https://github.com/conda-forge/arcticdb-feedstock" xlink:title="arcticdb">
<ellipse fill="#fde725" stroke="black" cx="407.42" cy="-18" rx="52.26" ry="18"/>
<text text-anchor="middle" x="407.42" y="-13.32" font-family="Times,serif" font-size="14.00">arcticdb</text>
</a>
</g>
</g>
<!-- arrow&#45;cpp&#45;&gt;arcticdb -->
<g id="edge1" class="edge">
<title>arrow&#45;cpp&#45;&gt;arcticdb</title>
<path fill="none" stroke="black" d="M330.88,-73.12C344.27,-63.65 361.46,-51.5 376.15,-41.11"/>
<polygon fill="black" stroke="black" points="378,-44.09 384.15,-35.45 373.96,-38.37 378,-44.09"/>
</g>
<!-- tiledb -->
<g id="node2" class="node">
<title>tiledb</title>
<g id="a_node2"><a xlink:href="https://github.com/conda-forge/tiledb-feedstock" xlink:title="tiledb">
<ellipse fill="#fde725" stroke="black" cx="79.42" cy="-162" rx="40.16" ry="18"/>
<text text-anchor="middle" x="79.42" y="-157.32" font-family="Times,serif" font-size="14.00">tiledb</text>
</a>
</g>
</g>
<!-- azure&#45;storage&#45;queues&#45;cpp -->
<g id="node4" class="node">
<title>azure&#45;storage&#45;queues&#45;cpp</title>
<g id="a_node4"><a xlink:href="https://github.com/conda-forge/azure-storage-queues-cpp-feedstock/pull/11" xlink:title="azure storage queues cpp ❎">
<ellipse fill="#31688e" stroke="black" cx="1017.99" cy="-126" rx="155.38" ry="18"/>
<text text-anchor="middle" x="1017.99" y="-121.33" font-family="Times,serif" font-size="14.00" fill="white">azure storage queues cpp ❎</text>
</a>
</g>
</g>
<!-- azure&#45;storage&#45;files&#45;datalake&#45;cpp -->
<g id="node5" class="node">
<title>azure&#45;storage&#45;files&#45;datalake&#45;cpp</title>
<g id="a_node5"><a xlink:href="https://github.com/conda-forge/azure-storage-files-datalake-cpp-feedstock" xlink:title="azure storage files datalake cpp">
<ellipse fill="#fde725" stroke="black" cx="308.42" cy="-162" rx="170.63" ry="18"/>
<text text-anchor="middle" x="308.42" y="-157.32" font-family="Times,serif" font-size="14.00">azure storage files datalake cpp</text>
</a>
</g>
</g>
<!-- azure&#45;storage&#45;files&#45;datalake&#45;cpp&#45;&gt;arrow&#45;cpp -->
<g id="edge2" class="edge">
<title>azure&#45;storage&#45;files&#45;datalake&#45;cpp&#45;&gt;arrow&#45;cpp</title>
<path fill="none" stroke="black" d="M308.42,-143.7C308.42,-136.41 308.42,-127.73 308.42,-119.54"/>
<polygon fill="black" stroke="black" points="311.92,-119.62 308.42,-109.62 304.92,-119.62 311.92,-119.62"/>
</g>
<!-- azure&#45;storage&#45;files&#45;shares&#45;cpp -->
<g id="node6" class="node">
<title>azure&#45;storage&#45;files&#45;shares&#45;cpp</title>
<g id="a_node6"><a xlink:href="https://github.com/conda-forge/azure-storage-files-shares-cpp-feedstock" xlink:title="azure storage files shares cpp">
<ellipse fill="#000000" stroke="black" cx="693.45" cy="-126" rx="161.17" ry="18"/>
<text text-anchor="middle" x="693.45" y="-121.33" font-family="Times,serif" font-size="14.00" fill="white">azure storage files shares cpp</text>
</a>
</g>
</g>
<!-- azure&#45;storage&#45;blobs&#45;cpp -->
<g id="node7" class="node">
<title>azure&#45;storage&#45;blobs&#45;cpp</title>
<g id="a_node7"><a xlink:href="https://github.com/conda-forge/azure-storage-blobs-cpp-feedstock/pull/17" xlink:title="azure storage blobs cpp ❎">
<ellipse fill="#31688e" stroke="black" cx="193.42" cy="-234" rx="146.43" ry="18"/>
<text text-anchor="middle" x="193.42" y="-229.32" font-family="Times,serif" font-size="14.00" fill="white">azure storage blobs cpp ❎</text>
</a>
</g>
</g>
<!-- azure&#45;storage&#45;blobs&#45;cpp&#45;&gt;arrow&#45;cpp -->
<g id="edge4" class="edge">
<title>azure&#45;storage&#45;blobs&#45;cpp&#45;&gt;arrow&#45;cpp</title>
<path fill="none" stroke="black" d="M114.62,-218.48C59.23,-204.77 0,-180.77 30.42,-144 56.11,-112.94 163.07,-99.93 236.57,-94.58"/>
<polygon fill="black" stroke="black" points="236.36,-98.1 246.1,-93.92 235.88,-91.12 236.36,-98.1"/>
</g>
<!-- azure&#45;storage&#45;blobs&#45;cpp&#45;&gt;tiledb -->
<g id="edge6" class="edge">
<title>azure&#45;storage&#45;blobs&#45;cpp&#45;&gt;tiledb</title>
<path fill="none" stroke="black" d="M165.53,-215.88C149.33,-205.93 128.84,-193.35 111.91,-182.95"/>
<polygon fill="black" stroke="black" points="114.06,-180.16 103.71,-177.91 110.4,-186.13 114.06,-180.16"/>
</g>
<!-- azure&#45;storage&#45;blobs&#45;cpp&#45;&gt;arcticdb -->
<g id="edge3" class="edge">
<title>azure&#45;storage&#45;blobs&#45;cpp&#45;&gt;arcticdb</title>
<path fill="none" stroke="black" d="M324.49,-225.7C393.02,-218.85 467.01,-205.6 488.42,-180 524.29,-137.11 470.63,-75.66 434.94,-42.45"/>
<polygon fill="black" stroke="black" points="437.64,-40.18 427.88,-36.05 432.94,-45.36 437.64,-40.18"/>
</g>
<!-- azure&#45;storage&#45;blobs&#45;cpp&#45;&gt;azure&#45;storage&#45;files&#45;datalake&#45;cpp -->
<g id="edge5" class="edge">
<title>azure&#45;storage&#45;blobs&#45;cpp&#45;&gt;azure&#45;storage&#45;files&#45;datalake&#45;cpp</title>
<path fill="none" stroke="black" d="M221.55,-215.88C236.31,-206.89 254.59,-195.76 270.58,-186.03"/>
<polygon fill="black" stroke="black" points="272.16,-189.17 278.89,-180.98 268.52,-183.19 272.16,-189.17"/>
</g>
</g>
</svg>
