<?xml version="1.0" encoding="UTF-8" standalone="no"?>
<!DOCTYPE svg PUBLIC "-//W3C//DTD SVG 1.1//EN"
 "http://www.w3.org/Graphics/SVG/1.1/DTD/svg11.dtd">
<!-- Generated by graphviz version 13.1.2 (20250809.0930)
 -->
<!-- Pages: 1 -->
<svg width="1924pt" height="952pt"
 viewBox="0.00 0.00 1924.00 952.00" xmlns="http://www.w3.org/2000/svg" xmlns:xlink="http://www.w3.org/1999/xlink">
<g id="graph0" class="graph" transform="scale(1 1) rotate(0) translate(4 948)">
<polygon fill="white" stroke="none" points="-4,4 -4,-948 1919.64,-948 1919.64,4 -4,4"/>
<!-- simbody -->
<g id="node1" class="node">
<title>simbody</title>
<g id="a_node1"><a xlink:href="https://github.com/conda-forge/simbody-feedstock/pull/43" xlink:title="simbody ❎">
<ellipse fill="#31688e" stroke="black" cx="505.13" cy="-674" rx="68.57" ry="18"/>
<text xml:space="preserve" text-anchor="middle" x="505.13" y="-669.33" font-family="Times,serif" font-size="14.00" fill="white">simbody ❎</text>
</a>
</g>
</g>
<!-- texlive&#45;core -->
<g id="node2" class="node">
<title>texlive&#45;core</title>
<g id="a_node2"><a xlink:href="https://github.com/conda-forge/texlive-core-feedstock/pull/108" xlink:title="texlive core ❎">
<ellipse fill="#31688e" stroke="black" cx="339.13" cy="-746" rx="84.88" ry="18"/>
<text xml:space="preserve" text-anchor="middle" x="339.13" y="-741.33" font-family="Times,serif" font-size="14.00" fill="white">texlive core ❎</text>
</a>
</g>
</g>
<!-- texlive&#45;core&#45;&gt;simbody -->
<g id="edge1" class="edge">
<title>texlive&#45;core&#45;&gt;simbody</title>
<path fill="none" stroke="black" d="M375.97,-729.46C400.57,-719.09 433.1,-705.38 459.36,-694.3"/>
<polygon fill="black" stroke="black" points="460.57,-697.59 468.42,-690.48 457.85,-691.14 460.57,-697.59"/>
</g>
<!-- freecad -->
<g id="node3" class="node">
<title>freecad</title>
<g id="a_node3"><a xlink:href="https://github.com/conda-forge/freecad-feedstock/pull/161" xlink:title="freecad ❎">
<ellipse fill="#31688e" stroke="black" cx="655.13" cy="-674" rx="63.84" ry="18"/>
<text xml:space="preserve" text-anchor="middle" x="655.13" y="-669.33" font-family="Times,serif" font-size="14.00" fill="white">freecad ❎</text>
</a>
</g>
</g>
<!-- texlive&#45;core&#45;&gt;freecad -->
<g id="edge2" class="edge">
<title>texlive&#45;core&#45;&gt;freecad</title>
<path fill="none" stroke="black" d="M397.37,-732.66C446.85,-722.1 519.72,-706.37 583.13,-692 587.45,-691.02 591.91,-690 596.39,-688.96"/>
<polygon fill="black" stroke="black" points="597.1,-692.39 606.05,-686.71 595.52,-685.57 597.1,-692.39"/>
</g>
<!-- lyx -->
<g id="node4" class="node">
<title>lyx</title>
<g id="a_node4"><a xlink:href="https://github.com/conda-forge/lyx-feedstock/pull/13" xlink:title="lyx ❎">
<ellipse fill="#31688e" stroke="black" cx="339.13" cy="-674" rx="41.21" ry="18"/>
<text xml:space="preserve" text-anchor="middle" x="339.13" y="-669.33" font-family="Times,serif" font-size="14.00" fill="white">lyx ❎</text>
</a>
</g>
</g>
<!-- texlive&#45;core&#45;&gt;lyx -->
<g id="edge3" class="edge">
<title>texlive&#45;core&#45;&gt;lyx</title>
<path fill="none" stroke="black" d="M339.13,-727.7C339.13,-720.41 339.13,-711.73 339.13,-703.54"/>
<polygon fill="black" stroke="black" points="342.63,-703.62 339.13,-693.62 335.63,-703.62 342.63,-703.62"/>
</g>
<!-- meld -->
<g id="node5" class="node">
<title>meld</title>
<g id="a_node5"><a xlink:href="https://github.com/conda-forge/meld-feedstock/pull/29" xlink:title="meld ❎">
<ellipse fill="#31688e" stroke="black" cx="291.13" cy="-602" rx="51.21" ry="18"/>
<text xml:space="preserve" text-anchor="middle" x="291.13" y="-597.33" font-family="Times,serif" font-size="14.00" fill="white">meld ❎</text>
</a>
</g>
</g>
<!-- texlive&#45;core&#45;&gt;meld -->
<g id="edge4" class="edge">
<title>texlive&#45;core&#45;&gt;meld</title>
<path fill="none" stroke="black" d="M316.8,-728.2C306.26,-718.84 294.78,-706.22 289.13,-692 281.54,-672.89 282.38,-649.59 284.94,-631.63"/>
<polygon fill="black" stroke="black" points="288.36,-632.37 286.6,-621.93 281.46,-631.19 288.36,-632.37"/>
</g>
<!-- texmaker -->
<g id="node6" class="node">
<title>texmaker</title>
<g id="a_node6"><a xlink:href="https://github.com/conda-forge/texmaker-feedstock/pull/10" xlink:title="texmaker ❎">
<ellipse fill="#31688e" stroke="black" cx="212.13" cy="-530" rx="73.83" ry="18"/>
<text xml:space="preserve" text-anchor="middle" x="212.13" y="-525.33" font-family="Times,serif" font-size="14.00" fill="white">texmaker ❎</text>
</a>
</g>
</g>
<!-- texlive&#45;core&#45;&gt;texmaker -->
<g id="edge5" class="edge">
<title>texlive&#45;core&#45;&gt;texmaker</title>
<path fill="none" stroke="black" d="M317.62,-728.32C305.6,-718.45 290.74,-705.3 279.13,-692 253.84,-663.03 246.08,-655.44 231.13,-620 222.96,-600.63 218.15,-577.35 215.42,-559.46"/>
<polygon fill="black" stroke="black" points="218.92,-559.23 214.08,-549.81 211.98,-560.19 218.92,-559.23"/>
</g>
<!-- gimagereader&#45;qt -->
<g id="node7" class="node">
<title>gimagereader&#45;qt</title>
<g id="a_node7"><a xlink:href="https://github.com/conda-forge/gimagereader-qt-feedstock/pull/33" xlink:title="gimagereader qt ❎">
<ellipse fill="#31688e" stroke="black" cx="110.13" cy="-458" rx="110.13" ry="18"/>
<text xml:space="preserve" text-anchor="middle" x="110.13" y="-453.32" font-family="Times,serif" font-size="14.00" fill="white">gimagereader qt ❎</text>
</a>
</g>
</g>
<!-- texlive&#45;core&#45;&gt;gimagereader&#45;qt -->
<g id="edge6" class="edge">
<title>texlive&#45;core&#45;&gt;gimagereader&#45;qt</title>
<path fill="none" stroke="black" d="M304.47,-729.14C286.08,-719.8 263.71,-706.9 246.13,-692 183.23,-638.67 164.73,-622.38 129.13,-548 120,-528.92 115.22,-505.45 112.74,-487.41"/>
<polygon fill="black" stroke="black" points="116.24,-487.18 111.58,-477.67 109.29,-488.01 116.24,-487.18"/>
</g>
<!-- openmm&#45;nonbonded&#45;slicing -->
<g id="node8" class="node">
<title>openmm&#45;nonbonded&#45;slicing</title>
<g id="a_node8"><a xlink:href="https://github.com/conda-forge/openmm-nonbonded-slicing-feedstock/pull/14" xlink:title="openmm nonbonded slicing ❎">
<ellipse fill="#31688e" stroke="black" cx="408.13" cy="-386" rx="163.8" ry="18"/>
<text xml:space="preserve" text-anchor="middle" x="408.13" y="-381.32" font-family="Times,serif" font-size="14.00" fill="white">openmm nonbonded slicing ❎</text>
</a>
</g>
</g>
<!-- texlive&#45;core&#45;&gt;openmm&#45;nonbonded&#45;slicing -->
<g id="edge7" class="edge">
<title>texlive&#45;core&#45;&gt;openmm&#45;nonbonded&#45;slicing</title>
<path fill="none" stroke="black" d="M359.74,-728.1C370.08,-718.55 381.9,-705.78 389.13,-692 407.93,-656.19 408.13,-643.45 408.13,-603 408.13,-603 408.13,-603 408.13,-529 408.13,-489.74 408.13,-444.38 408.13,-415.69"/>
<polygon fill="black" stroke="black" points="411.63,-416 408.13,-406 404.63,-416 411.63,-416"/>
</g>
<!-- freeglut -->
<g id="node9" class="node">
<title>freeglut</title>
<g id="a_node9"><a xlink:href="https://github.com/conda-forge/freeglut-feedstock/pull/43" xlink:title="freeglut ❎">
<ellipse fill="#31688e" stroke="black" cx="914.13" cy="-746" rx="66.47" ry="18"/>
<text xml:space="preserve" text-anchor="middle" x="914.13" y="-741.33" font-family="Times,serif" font-size="14.00" fill="white">freeglut ❎</text>
</a>
</g>
</g>
<!-- freeglut&#45;&gt;simbody -->
<g id="edge8" class="edge">
<title>freeglut&#45;&gt;simbody</title>
<path fill="none" stroke="black" d="M856.08,-736.79C789.66,-727.16 677.75,-710.17 582.13,-692 577.02,-691.03 571.73,-689.97 566.43,-688.87"/>
<polygon fill="black" stroke="black" points="567.56,-685.54 557.06,-686.9 566.12,-692.39 567.56,-685.54"/>
</g>
<!-- freeglut&#45;&gt;freecad -->
<g id="edge9" class="edge">
<title>freeglut&#45;&gt;freecad</title>
<path fill="none" stroke="black" d="M868.13,-732.57C824.12,-720.67 757.69,-702.72 710.74,-690.03"/>
<polygon fill="black" stroke="black" points="711.87,-686.71 701.3,-687.48 710.04,-693.47 711.87,-686.71"/>
</g>
<!-- codes&#45;ui -->
<g id="node10" class="node">
<title>codes&#45;ui</title>
<g id="a_node10"><a xlink:href="https://github.com/conda-forge/codes-ui-feedstock/pull/19" xlink:title="codes ui ❎">
<ellipse fill="#31688e" stroke="black" cx="1318.13" cy="-674" rx="67.52" ry="18"/>
<text xml:space="preserve" text-anchor="middle" x="1318.13" y="-669.33" font-family="Times,serif" font-size="14.00" fill="white">codes ui ❎</text>
</a>
</g>
</g>
<!-- freeglut&#45;&gt;codes&#45;ui -->
<g id="edge10" class="edge">
<title>freeglut&#45;&gt;codes&#45;ui</title>
<path fill="none" stroke="black" d="M970.97,-736.37C1035.4,-726.42 1143.53,-709.21 1236.13,-692 1242.45,-690.83 1249.03,-689.55 1255.6,-688.24"/>
<polygon fill="black" stroke="black" points="1255.99,-691.73 1265.1,-686.33 1254.6,-684.87 1255.99,-691.73"/>
</g>
<!-- nionui&#45;tool -->
<g id="node11" class="node">
<title>nionui&#45;tool</title>
<g id="a_node11"><a xlink:href="https://github.com/conda-forge/nionui-tool-feedstock/pull/62" xlink:title="nionui tool ❎">
<ellipse fill="#31688e" stroke="black" cx="1257.13" cy="-602" rx="79.62" ry="18"/>
<text xml:space="preserve" text-anchor="middle" x="1257.13" y="-597.33" font-family="Times,serif" font-size="14.00" fill="white">nionui tool ❎</text>
</a>
</g>
</g>
<!-- freeglut&#45;&gt;nionui&#45;tool -->
<g id="edge11" class="edge">
<title>freeglut&#45;&gt;nionui&#45;tool</title>
<path fill="none" stroke="black" d="M978.51,-740.94C1030.8,-735.44 1105.13,-722.48 1163.13,-692 1192.63,-676.5 1219.5,-649.09 1236.88,-628.77"/>
<polygon fill="black" stroke="black" points="1239.5,-631.1 1243.21,-621.17 1234.12,-626.62 1239.5,-631.1"/>
</g>
<!-- nionswift&#45;tool -->
<g id="node12" class="node">
<title>nionswift&#45;tool</title>
<g id="a_node12"><a xlink:href="https://github.com/conda-forge/nionswift-tool-feedstock/pull/37" xlink:title="nionswift tool ❎">
<ellipse fill="#31688e" stroke="black" cx="1234.13" cy="-530" rx="94.88" ry="18"/>
<text xml:space="preserve" text-anchor="middle" x="1234.13" y="-525.33" font-family="Times,serif" font-size="14.00" fill="white">nionswift tool ❎</text>
</a>
</g>
</g>
<!-- freeglut&#45;&gt;nionswift&#45;tool -->
<g id="edge12" class="edge">
<title>freeglut&#45;&gt;nionswift&#45;tool</title>
<path fill="none" stroke="black" d="M980.33,-743.67C1025.97,-739.41 1085.34,-726.83 1125.13,-692 1164.01,-657.97 1137.42,-625.55 1168.13,-584 1176.31,-572.94 1187.33,-562.88 1198.02,-554.58"/>
<polygon fill="black" stroke="black" points="1200.07,-557.41 1206.03,-548.64 1195.91,-551.78 1200.07,-557.41"/>
</g>
<!-- puma -->
<g id="node13" class="node">
<title>puma</title>
<g id="a_node13"><a xlink:href="https://github.com/conda-forge/puma-feedstock/pull/29" xlink:title="puma ❎">
<ellipse fill="#31688e" stroke="black" cx="1155.13" cy="-458" rx="54.36" ry="18"/>
<text xml:space="preserve" text-anchor="middle" x="1155.13" y="-453.32" font-family="Times,serif" font-size="14.00" fill="white">puma ❎</text>
</a>
</g>
</g>
<!-- freeglut&#45;&gt;puma -->
<g id="edge13" class="edge">
<title>freeglut&#45;&gt;puma</title>
<path fill="none" stroke="black" d="M978.29,-740.75C1015,-734.97 1059.18,-721.77 1087.13,-692 1143.44,-632.04 1102.89,-589.61 1130.13,-512 1133.18,-503.32 1137.19,-494.17 1141.11,-485.95"/>
<polygon fill="black" stroke="black" points="1144.15,-487.68 1145.44,-477.17 1137.88,-484.59 1144.15,-487.68"/>
</g>
<!-- diplib -->
<g id="node14" class="node">
<title>diplib</title>
<g id="a_node14"><a xlink:href="https://github.com/conda-forge/diplib-feedstock/pull/23" xlink:title="diplib ❎">
<ellipse fill="#31688e" stroke="black" cx="1073.13" cy="-386" rx="54.89" ry="18"/>
<text xml:space="preserve" text-anchor="middle" x="1073.13" y="-381.32" font-family="Times,serif" font-size="14.00" fill="white">diplib ❎</text>
</a>
</g>
</g>
<!-- freeglut&#45;&gt;diplib -->
<g id="edge14" class="edge">
<title>freeglut&#45;&gt;diplib</title>
<path fill="none" stroke="black" d="M971.37,-736.58C1000.17,-729.43 1033.3,-716.25 1054.13,-692 1080.49,-661.32 1073.13,-643.45 1073.13,-603 1073.13,-603 1073.13,-603 1073.13,-529 1073.13,-489.74 1073.13,-444.38 1073.13,-415.69"/>
<polygon fill="black" stroke="black" points="1076.63,-416 1073.13,-406 1069.63,-416 1076.63,-416"/>
</g>
<!-- bgslibrary -->
<g id="node15" class="node">
<title>bgslibrary</title>
<g id="a_node15"><a xlink:href="https://github.com/conda-forge/bgslibrary-feedstock/pull/16" xlink:title="bgslibrary ❎">
<ellipse fill="#31688e" stroke="black" cx="967.13" cy="-674" rx="78.04" ry="18"/>
<text xml:space="preserve" text-anchor="middle" x="967.13" y="-669.33" font-family="Times,serif" font-size="14.00" fill="white">bgslibrary ❎</text>
</a>
</g>
</g>
<!-- freeglut&#45;&gt;bgslibrary -->
<g id="edge15" class="edge">
<title>freeglut&#45;&gt;bgslibrary</title>
<path fill="none" stroke="black" d="M926.96,-728.05C933.15,-719.89 940.7,-709.91 947.58,-700.82"/>
<polygon fill="black" stroke="black" points="950.26,-703.08 953.51,-693 944.68,-698.86 950.26,-703.08"/>
</g>
<!-- easyocr -->
<g id="node16" class="node">
<title>easyocr</title>
<g id="a_node16"><a xlink:href="https://github.com/conda-forge/easyocr-feedstock/pull/16" xlink:title="easyocr ❎">
<ellipse fill="#31688e" stroke="black" cx="916.13" cy="-602" rx="64.89" ry="18"/>
<text xml:space="preserve" text-anchor="middle" x="916.13" y="-597.33" font-family="Times,serif" font-size="14.00" fill="white">easyocr ❎</text>
</a>
</g>
</g>
<!-- freeglut&#45;&gt;easyocr -->
<g id="edge16" class="edge">
<title>freeglut&#45;&gt;easyocr</title>
<path fill="none" stroke="black" d="M899.73,-728.1C892.3,-718.26 884.01,-705.22 880.13,-692 875.63,-676.65 875.43,-671.29 880.13,-656 883.09,-646.37 888.46,-636.92 894.17,-628.73"/>
<polygon fill="black" stroke="black" points="896.79,-631.07 899.99,-620.97 891.19,-626.87 896.79,-631.07"/>
</g>
<!-- autogluon.vision -->
<g id="node17" class="node">
<title>autogluon.vision</title>
<g id="a_node17"><a xlink:href="https://github.com/conda-forge/autogluon.vision-feedstock/pull/15" xlink:title="autogluon vision ❎">
<ellipse fill="#31688e" stroke="black" cx="922.13" cy="-530" rx="109.08" ry="18"/>
<text xml:space="preserve" text-anchor="middle" x="922.13" y="-525.33" font-family="Times,serif" font-size="14.00" fill="white">autogluon vision ❎</text>
</a>
</g>
</g>
<!-- freeglut&#45;&gt;autogluon.vision -->
<g id="edge17" class="edge">
<title>freeglut&#45;&gt;autogluon.vision</title>
<path fill="none" stroke="black" d="M896.75,-728.63C867.6,-699.11 814.61,-635.25 842.13,-584 849.04,-571.14 860.58,-560.88 872.78,-552.94"/>
<polygon fill="black" stroke="black" points="874.54,-555.97 881.33,-547.84 870.95,-549.96 874.54,-555.97"/>
</g>
<!-- wholeslidedata -->
<g id="node18" class="node">
<title>wholeslidedata</title>
<g id="a_node18"><a xlink:href="https://github.com/conda-forge/wholeslidedata-feedstock/pull/4" xlink:title="wholeslidedata ❎">
<ellipse fill="#31688e" stroke="black" cx="877.13" cy="-458" rx="101.71" ry="18"/>
<text xml:space="preserve" text-anchor="middle" x="877.13" y="-453.32" font-family="Times,serif" font-size="14.00" fill="white">wholeslidedata ❎</text>
</a>
</g>
</g>
<!-- freeglut&#45;&gt;wholeslidedata -->
<g id="edge18" class="edge">
<title>freeglut&#45;&gt;wholeslidedata</title>
<path fill="none" stroke="black" d="M883.9,-729.63C868.96,-720.58 851.88,-707.8 841.13,-692 803.98,-637.36 812.42,-613.56 804.13,-548 802.13,-532.13 796.87,-526.25 804.13,-512 810.47,-499.57 821.23,-489.38 832.57,-481.37"/>
<polygon fill="black" stroke="black" points="834.4,-484.35 840.88,-475.97 830.59,-478.48 834.4,-484.35"/>
</g>
<!-- arcjetcv -->
<g id="node19" class="node">
<title>arcjetcv</title>
<g id="a_node19"><a xlink:href="https://github.com/conda-forge/arcjetcv-feedstock/pull/15" xlink:title="arcjetcv ❎">
<ellipse fill="#31688e" stroke="black" cx="747.13" cy="-386" rx="66.47" ry="18"/>
<text xml:space="preserve" text-anchor="middle" x="747.13" y="-381.32" font-family="Times,serif" font-size="14.00" fill="white">arcjetcv ❎</text>
</a>
</g>
</g>
<!-- freeglut&#45;&gt;arcjetcv -->
<g id="edge19" class="edge">
<title>freeglut&#45;&gt;arcjetcv</title>
<path fill="none" stroke="black" d="M874.13,-731.18C824.73,-711.26 747.13,-669.41 747.13,-603 747.13,-603 747.13,-603 747.13,-529 747.13,-489.74 747.13,-444.38 747.13,-415.69"/>
<polygon fill="black" stroke="black" points="750.63,-416 747.13,-406 743.63,-416 750.63,-416"/>
</g>
<!-- modestpy -->
<g id="node20" class="node">
<title>modestpy</title>
<g id="a_node20"><a xlink:href="https://github.com/conda-forge/modestpy-feedstock/pull/5" xlink:title="modestpy ❎">
<ellipse fill="#31688e" stroke="black" cx="1563.13" cy="-926" rx="75.41" ry="18"/>
<text xml:space="preserve" text-anchor="middle" x="1563.13" y="-921.33" font-family="Times,serif" font-size="14.00" fill="white">modestpy ❎</text>
</a>
</g>
</g>
<!-- topologytoolkit -->
<g id="node21" class="node">
<title>topologytoolkit</title>
<g id="a_node21"><a xlink:href="https://github.com/conda-forge/topologytoolkit-feedstock/pull/98" xlink:title="topologytoolkit ❎">
<ellipse fill="#31688e" stroke="black" cx="1563.13" cy="-854" rx="101.71" ry="18"/>
<text xml:space="preserve" text-anchor="middle" x="1563.13" y="-849.33" font-family="Times,serif" font-size="14.00" fill="white">topologytoolkit ❎</text>
</a>
</g>
</g>
<!-- modestpy&#45;&gt;topologytoolkit -->
<!-- javafx&#45;sdk -->
<g id="node23" class="node">
<title>javafx&#45;sdk</title>
<g id="a_node23"><a xlink:href="https://github.com/conda-forge/javafx-sdk-feedstock/pull/8" xlink:title="javafx sdk ❎">
<ellipse fill="#31688e" stroke="black" cx="1563.13" cy="-782" rx="76.99" ry="18"/>
<text xml:space="preserve" text-anchor="middle" x="1563.13" y="-777.33" font-family="Times,serif" font-size="14.00" fill="white">javafx sdk ❎</text>
</a>
</g>
</g>
<!-- topologytoolkit&#45;&gt;javafx&#45;sdk -->
<!-- fltk -->
<g id="node22" class="node">
<title>fltk</title>
<g id="a_node22"><a xlink:href="https://github.com/conda-forge/fltk-feedstock/pull/31" xlink:title="fltk ❎">
<ellipse fill="#31688e" stroke="black" cx="655.13" cy="-746" rx="42.79" ry="18"/>
<text xml:space="preserve" text-anchor="middle" x="655.13" y="-741.33" font-family="Times,serif" font-size="14.00" fill="white">fltk ❎</text>
</a>
</g>
</g>
<!-- fltk&#45;&gt;freecad -->
<g id="edge21" class="edge">
<title>fltk&#45;&gt;freecad</title>
<path fill="none" stroke="black" d="M655.13,-727.7C655.13,-720.41 655.13,-711.73 655.13,-703.54"/>
<polygon fill="black" stroke="black" points="658.63,-703.62 655.13,-693.62 651.63,-703.62 658.63,-703.62"/>
</g>
<!-- kguiaddons -->
<g id="node24" class="node">
<title>kguiaddons</title>
<g id="a_node24"><a xlink:href="https://github.com/conda-forge/kguiaddons-feedstock/pull/20" xlink:title="kguiaddons ❎">
<ellipse fill="#31688e" stroke="black" cx="1563.13" cy="-710" rx="83.83" ry="18"/>
<text xml:space="preserve" text-anchor="middle" x="1563.13" y="-705.33" font-family="Times,serif" font-size="14.00" fill="white">kguiaddons ❎</text>
</a>
</g>
</g>
<!-- javafx&#45;sdk&#45;&gt;kguiaddons -->
<!-- phonon -->
<g id="node25" class="node">
<title>phonon</title>
<g id="a_node25"><a xlink:href="https://github.com/conda-forge/phonon-feedstock/pull/9" xlink:title="phonon ❎">
<ellipse fill="#31688e" stroke="black" cx="1563.13" cy="-638" rx="63.31" ry="18"/>
<text xml:space="preserve" text-anchor="middle" x="1563.13" y="-633.33" font-family="Times,serif" font-size="14.00" fill="white">phonon ❎</text>
</a>
</g>
</g>
<!-- kguiaddons&#45;&gt;phonon -->
<!-- jkqtplotter -->
<g id="node26" class="node">
<title>jkqtplotter</title>
<g id="a_node26"><a xlink:href="https://github.com/conda-forge/jkqtplotter-feedstock/pull/6" xlink:title="jkqtplotter ❎">
<ellipse fill="#31688e" stroke="black" cx="1563.13" cy="-566" rx="80.14" ry="18"/>
<text xml:space="preserve" text-anchor="middle" x="1563.13" y="-561.33" font-family="Times,serif" font-size="14.00" fill="white">jkqtplotter ❎</text>
</a>
</g>
</g>
<!-- phonon&#45;&gt;jkqtplotter -->
<!-- ftgl -->
<g id="node27" class="node">
<title>ftgl</title>
<g id="a_node27"><a xlink:href="https://github.com/conda-forge/ftgl-feedstock/pull/5" xlink:title="ftgl ❎">
<ellipse fill="#31688e" stroke="black" cx="1563.13" cy="-494" rx="43.84" ry="18"/>
<text xml:space="preserve" text-anchor="middle" x="1563.13" y="-489.32" font-family="Times,serif" font-size="14.00" fill="white">ftgl ❎</text>
</a>
</g>
</g>
<!-- jkqtplotter&#45;&gt;ftgl -->
<!-- sharppy -->
<g id="node28" class="node">
<title>sharppy</title>
<g id="a_node28"><a xlink:href="https://github.com/conda-forge/sharppy-feedstock/pull/17" xlink:title="sharppy ❎">
<ellipse fill="#31688e" stroke="black" cx="1563.13" cy="-422" rx="66.99" ry="18"/>
<text xml:space="preserve" text-anchor="middle" x="1563.13" y="-417.32" font-family="Times,serif" font-size="14.00" fill="white">sharppy ❎</text>
</a>
</g>
</g>
<!-- ftgl&#45;&gt;sharppy -->
<!-- cadabra2 -->
<g id="node29" class="node">
<title>cadabra2</title>
<g id="a_node29"><a xlink:href="https://github.com/conda-forge/cadabra2-feedstock/pull/45" xlink:title="cadabra2 ❎">
<ellipse fill="#31688e" stroke="black" cx="1563.13" cy="-350" rx="72.78" ry="18"/>
<text xml:space="preserve" text-anchor="middle" x="1563.13" y="-345.32" font-family="Times,serif" font-size="14.00" fill="white">cadabra2 ❎</text>
</a>
</g>
</g>
<!-- sharppy&#45;&gt;cadabra2 -->
<!-- kitemmodels -->
<g id="node30" class="node">
<title>kitemmodels</title>
<g id="a_node30"><a xlink:href="https://github.com/conda-forge/kitemmodels-feedstock/pull/34" xlink:title="kitemmodels ❎">
<ellipse fill="#31688e" stroke="black" cx="1563.13" cy="-278" rx="90.67" ry="18"/>
<text xml:space="preserve" text-anchor="middle" x="1563.13" y="-273.32" font-family="Times,serif" font-size="14.00" fill="white">kitemmodels ❎</text>
</a>
</g>
</g>
<!-- cadabra2&#45;&gt;kitemmodels -->
<!-- polyscope -->
<g id="node31" class="node">
<title>polyscope</title>
<g id="a_node31"><a xlink:href="https://github.com/conda-forge/polyscope-feedstock/pull/44" xlink:title="polyscope ❎">
<ellipse fill="#31688e" stroke="black" cx="1563.13" cy="-206" rx="75.94" ry="18"/>
<text xml:space="preserve" text-anchor="middle" x="1563.13" y="-201.32" font-family="Times,serif" font-size="14.00" fill="white">polyscope ❎</text>
</a>
</g>
</g>
<!-- kitemmodels&#45;&gt;polyscope -->
<!-- xppaut -->
<g id="node32" class="node">
<title>xppaut</title>
<g id="a_node32"><a xlink:href="https://github.com/conda-forge/xppaut-feedstock/pull/1" xlink:title="xppaut ❎">
<ellipse fill="#31688e" stroke="black" cx="1828.13" cy="-926" rx="61.2" ry="18"/>
<text xml:space="preserve" text-anchor="middle" x="1828.13" y="-921.33" font-family="Times,serif" font-size="14.00" fill="white">xppaut ❎</text>
</a>
</g>
</g>
<!-- libsmu -->
<g id="node33" class="node">
<title>libsmu</title>
<g id="a_node33"><a xlink:href="https://github.com/conda-forge/libsmu-feedstock/pull/19" xlink:title="libsmu ❎">
<ellipse fill="#31688e" stroke="black" cx="1828.13" cy="-854" rx="60.15" ry="18"/>
<text xml:space="preserve" text-anchor="middle" x="1828.13" y="-849.33" font-family="Times,serif" font-size="14.00" fill="white">libsmu ❎</text>
</a>
</g>
</g>
<!-- xppaut&#45;&gt;libsmu -->
<!-- gammaray -->
<g id="node34" class="node">
<title>gammaray</title>
<g id="a_node34"><a xlink:href="https://github.com/conda-forge/gammaray-feedstock/pull/7" xlink:title="gammaray ❎">
<ellipse fill="#31688e" stroke="black" cx="1828.13" cy="-782" rx="79.62" ry="18"/>
<text xml:space="preserve" text-anchor="middle" x="1828.13" y="-777.33" font-family="Times,serif" font-size="14.00" fill="white">gammaray ❎</text>
</a>
</g>
</g>
<!-- libsmu&#45;&gt;gammaray -->
<!-- python&#45;mint -->
<g id="node35" class="node">
<title>python&#45;mint</title>
<g id="a_node35"><a xlink:href="https://github.com/conda-forge/python-mint-feedstock/pull/82" xlink:title="python mint ❎">
<ellipse fill="#31688e" stroke="black" cx="1828.13" cy="-710" rx="87.51" ry="18"/>
<text xml:space="preserve" text-anchor="middle" x="1828.13" y="-705.33" font-family="Times,serif" font-size="14.00" fill="white">python mint ❎</text>
</a>
</g>
</g>
<!-- gammaray&#45;&gt;python&#45;mint -->
<!-- fcitx&#45;qt5 -->
<g id="node36" class="node">
<title>fcitx&#45;qt5</title>
<g id="a_node36"><a xlink:href="https://github.com/conda-forge/fcitx-qt5-feedstock/pull/9" xlink:title="fcitx qt5 ❎">
<ellipse fill="#31688e" stroke="black" cx="1828.13" cy="-638" rx="68.57" ry="18"/>
<text xml:space="preserve" text-anchor="middle" x="1828.13" y="-633.33" font-family="Times,serif" font-size="14.00" fill="white">fcitx qt5 ❎</text>
</a>
</g>
</g>
<!-- python&#45;mint&#45;&gt;fcitx&#45;qt5 -->
<!-- libdazzle -->
<g id="node37" class="node">
<title>libdazzle</title>
<g id="a_node37"><a xlink:href="https://github.com/conda-forge/libdazzle-feedstock/pull/6" xlink:title="libdazzle ❎">
<ellipse fill="#31688e" stroke="black" cx="1828.13" cy="-566" rx="70.68" ry="18"/>
<text xml:space="preserve" text-anchor="middle" x="1828.13" y="-561.33" font-family="Times,serif" font-size="14.00" fill="white">libdazzle ❎</text>
</a>
</g>
</g>
<!-- fcitx&#45;qt5&#45;&gt;libdazzle -->
<!-- lfric_reader -->
<g id="node38" class="node">
<title>lfric_reader</title>
<g id="a_node38"><a xlink:href="https://github.com/conda-forge/lfric_reader-feedstock/pull/25" xlink:title="lfric_reader ❎">
<ellipse fill="#31688e" stroke="black" cx="1828.13" cy="-494" rx="84.35" ry="18"/>
<text xml:space="preserve" text-anchor="middle" x="1828.13" y="-489.32" font-family="Times,serif" font-size="14.00" fill="white">lfric_reader ❎</text>
</a>
</g>
</g>
<!-- libdazzle&#45;&gt;lfric_reader -->
<!-- vmtk -->
<g id="node39" class="node">
<title>vmtk</title>
<g id="a_node39"><a xlink:href="https://github.com/conda-forge/vmtk-feedstock/pull/39" xlink:title="vmtk ❎">
<ellipse fill="#31688e" stroke="black" cx="1828.13" cy="-422" rx="51.74" ry="18"/>
<text xml:space="preserve" text-anchor="middle" x="1828.13" y="-417.32" font-family="Times,serif" font-size="14.00" fill="white">vmtk ❎</text>
</a>
</g>
</g>
<!-- lfric_reader&#45;&gt;vmtk -->
<!-- yad -->
<g id="node40" class="node">
<title>yad</title>
<g id="a_node40"><a xlink:href="https://github.com/conda-forge/yad-feedstock/pull/12" xlink:title="yad ❎">
<ellipse fill="#31688e" stroke="black" cx="1828.13" cy="-350" rx="44.37" ry="18"/>
<text xml:space="preserve" text-anchor="middle" x="1828.13" y="-345.32" font-family="Times,serif" font-size="14.00" fill="white">yad ❎</text>
</a>
</g>
</g>
<!-- vmtk&#45;&gt;yad -->
<!-- rstudio -->
<g id="node41" class="node">
<title>rstudio</title>
<g id="a_node41"><a xlink:href="https://github.com/conda-forge/rstudio-feedstock/pull/47" xlink:title="rstudio ❎">
<ellipse fill="#31688e" stroke="black" cx="1828.13" cy="-278" rx="62.26" ry="18"/>
<text xml:space="preserve" text-anchor="middle" x="1828.13" y="-273.32" font-family="Times,serif" font-size="14.00" fill="white">rstudio ❎</text>
</a>
</g>
</g>
<!-- yad&#45;&gt;rstudio -->
<!-- pcsclite -->
<g id="node42" class="node">
<title>pcsclite</title>
<g id="a_node42"><a xlink:href="https://github.com/conda-forge/pcsclite-feedstock/pull/10" xlink:title="pcsclite ❎">
<ellipse fill="#31688e" stroke="black" cx="1828.13" cy="-206" rx="64.89" ry="18"/>
<text xml:space="preserve" text-anchor="middle" x="1828.13" y="-201.32" font-family="Times,serif" font-size="14.00" fill="white">pcsclite ❎</text>
</a>
</g>
</g>
<!-- rstudio&#45;&gt;pcsclite -->
<!-- qtmolecularnetwork -->
<g id="node43" class="node">
<title>qtmolecularnetwork</title>
<g id="a_node43"><a xlink:href="https://github.com/conda-forge/qtmolecularnetwork-feedstock/pull/29" xlink:title="qtmolecularnetwork ❎">
<ellipse fill="#31688e" stroke="black" cx="836.13" cy="-90" rx="127.49" ry="18"/>
<text xml:space="preserve" text-anchor="middle" x="836.13" y="-85.33" font-family="Times,serif" font-size="14.00" fill="white">qtmolecularnetwork ❎</text>
</a>
</g>
</g>
<!-- metgem -->
<g id="node44" class="node">
<title>metgem</title>
<g id="a_node44"><a xlink:href="https://github.com/conda-forge/metgem-feedstock/pull/6" xlink:title="metgem ❎">
<ellipse fill="#31688e" stroke="black" cx="716.13" cy="-18" rx="67.52" ry="18"/>
<text xml:space="preserve" text-anchor="middle" x="716.13" y="-13.32" font-family="Times,serif" font-size="14.00" fill="white">metgem ❎</text>
</a>
</g>
</g>
<!-- qtmolecularnetwork&#45;&gt;metgem -->
<g id="edge41" class="edge">
<title>qtmolecularnetwork&#45;&gt;metgem</title>
<path fill="none" stroke="black" d="M807.08,-72.05C790.85,-62.58 770.45,-50.68 753.09,-40.56"/>
<polygon fill="black" stroke="black" points="754.98,-37.61 744.58,-35.59 751.45,-43.65 754.98,-37.61"/>
</g>
<!-- leocad -->
<g id="node45" class="node">
<title>leocad</title>
<g id="a_node45"><a xlink:href="https://github.com/conda-forge/leocad-feedstock/pull/8" xlink:title="leocad ❎">
<ellipse fill="#31688e" stroke="black" cx="1563.13" cy="-162" rx="58.57" ry="18"/>
<text xml:space="preserve" text-anchor="middle" x="1563.13" y="-157.32" font-family="Times,serif" font-size="14.00" fill="white">leocad ❎</text>
</a>
</g>
</g>
<!-- qcachegrind -->
<g id="node46" class="node">
<title>qcachegrind</title>
<g id="a_node46"><a xlink:href="https://github.com/conda-forge/qcachegrind-feedstock/pull/8" xlink:title="qcachegrind ❎">
<ellipse fill="#31688e" stroke="black" cx="1563.13" cy="-90" rx="88.04" ry="18"/>
<text xml:space="preserve" text-anchor="middle" x="1563.13" y="-85.33" font-family="Times,serif" font-size="14.00" fill="white">qcachegrind ❎</text>
</a>
</g>
</g>
<!-- leocad&#45;&gt;qcachegrind -->
<!-- connectome&#45;workbench&#45;split -->
<g id="node49" class="node">
<title>connectome&#45;workbench&#45;split</title>
<g id="a_node49"><a xlink:href="https://github.com/conda-forge/connectome-workbench-split-feedstock/pull/15" xlink:title="connectome workbench split ❎">
<ellipse fill="#31688e" stroke="black" cx="1563.13" cy="-18" rx="169.58" ry="18"/>
<text xml:space="preserve" text-anchor="middle" x="1563.13" y="-13.32" font-family="Times,serif" font-size="14.00" fill="white">connectome workbench split ❎</text>
</a>
</g>
</g>
<!-- qcachegrind&#45;&gt;connectome&#45;workbench&#45;split -->
<!-- qt6&#45;advanced&#45;docking&#45;system -->
<g id="node47" class="node">
<title>qt6&#45;advanced&#45;docking&#45;system</title>
<g id="a_node47"><a xlink:href="https://github.com/conda-forge/qt6-advanced-docking-system-feedstock/pull/26" xlink:title="qt6 advanced docking system ❎">
<ellipse fill="#31688e" stroke="black" cx="597.13" cy="-162" rx="174.84" ry="18"/>
<text xml:space="preserve" text-anchor="middle" x="597.13" y="-157.32" font-family="Times,serif" font-size="14.00" fill="white">qt6 advanced docking system ❎</text>
</a>
</g>
</g>
<!-- pyside6qtads -->
<g id="node48" class="node">
<title>pyside6qtads</title>
<g id="a_node48"><a xlink:href="https://github.com/conda-forge/pyside6qtads-feedstock/pull/43" xlink:title="pyside6qtads ❎">
<ellipse fill="#31688e" stroke="black" cx="597.13" cy="-90" rx="93.3" ry="18"/>
<text xml:space="preserve" text-anchor="middle" x="597.13" y="-85.33" font-family="Times,serif" font-size="14.00" fill="white">pyside6qtads ❎</text>
</a>
</g>
</g>
<!-- qt6&#45;advanced&#45;docking&#45;system&#45;&gt;pyside6qtads -->
<g id="edge43" class="edge">
<title>qt6&#45;advanced&#45;docking&#45;system&#45;&gt;pyside6qtads</title>
<path fill="none" stroke="black" d="M597.13,-143.7C597.13,-136.41 597.13,-127.73 597.13,-119.54"/>
<polygon fill="black" stroke="black" points="600.63,-119.62 597.13,-109.62 593.63,-119.62 600.63,-119.62"/>
</g>
<!-- pyside6qtads&#45;&gt;metgem -->
<g id="edge44" class="edge">
<title>pyside6qtads&#45;&gt;metgem</title>
<path fill="none" stroke="black" d="M625.33,-72.41C641.54,-62.88 662.07,-50.8 679.51,-40.55"/>
<polygon fill="black" stroke="black" points="681.21,-43.6 688.05,-35.52 677.66,-37.57 681.21,-43.6"/>
</g>
</g>
</svg>
