<?xml version="1.0" encoding="UTF-8" standalone="no"?>
<!DOCTYPE svg PUBLIC "-//W3C//DTD SVG 1.1//EN"
 "http://www.w3.org/Graphics/SVG/1.1/DTD/svg11.dtd">
<!-- Generated by graphviz version 13.1.2 (20250809.0930)
 -->
<!-- Pages: 1 -->
<svg width="1193pt" height="880pt"
 viewBox="0.00 0.00 1193.00 880.00" xmlns="http://www.w3.org/2000/svg" xmlns:xlink="http://www.w3.org/1999/xlink">
<g id="graph0" class="graph" transform="scale(1 1) rotate(0) translate(4 876)">
<polygon fill="white" stroke="none" points="-4,4 -4,-876 1188.84,-876 1188.84,4 -4,4"/>
<!-- casacore -->
<g id="node1" class="node">
<title>casacore</title>
<g id="a_node1"><a xlink:href="https://github.com/conda-forge/casacore-feedstock" xlink:title="casacore">
<ellipse fill="#fde725" stroke="black" cx="402.53" cy="-638" rx="54.89" ry="18"/>
<text xml:space="preserve" text-anchor="middle" x="402.53" y="-633.33" font-family="Times,serif" font-size="14.00">casacore</text>
</a>
</g>
</g>
<!-- casacpp -->
<g id="node2" class="node">
<title>casacpp</title>
<g id="a_node2"><a xlink:href="https://github.com/conda-forge/casacpp-feedstock" xlink:title="casacpp">
<ellipse fill="#fde725" stroke="black" cx="375.53" cy="-566" rx="51.21" ry="18"/>
<text xml:space="preserve" text-anchor="middle" x="375.53" y="-561.33" font-family="Times,serif" font-size="14.00">casacpp</text>
</a>
</g>
</g>
<!-- casacore&#45;&gt;casacpp -->
<g id="edge1" class="edge">
<title>casacore&#45;&gt;casacpp</title>
<path fill="none" stroke="black" d="M395.86,-619.7C392.95,-612.15 389.47,-603.12 386.21,-594.68"/>
<polygon fill="black" stroke="black" points="389.54,-593.59 382.68,-585.52 383.01,-596.11 389.54,-593.59"/>
</g>
<!-- gdal -->
<g id="node3" class="node">
<title>gdal</title>
<g id="a_node3"><a xlink:href="https://github.com/conda-forge/gdal-feedstock" xlink:title="gdal">
<ellipse fill="#000000" stroke="black" cx="158.53" cy="-854" rx="32.79" ry="18"/>
<text xml:space="preserve" text-anchor="middle" x="158.53" y="-849.33" font-family="Times,serif" font-size="14.00" fill="white">gdal</text>
</a>
</g>
</g>
<!-- healpix_cxx -->
<g id="node4" class="node">
<title>healpix_cxx</title>
<g id="a_node4"><a xlink:href="https://github.com/conda-forge/healpix_cxx-feedstock/pull/38" xlink:title="healpix_cxx ✓">
<ellipse fill="#31688e" stroke="black" cx="158.53" cy="-782" rx="76.99" ry="18"/>
<text xml:space="preserve" text-anchor="middle" x="158.53" y="-777.33" font-family="Times,serif" font-size="14.00" fill="white">healpix_cxx ✓</text>
</a>
</g>
</g>
<!-- gdal&#45;&gt;healpix_cxx -->
<!-- ccfits -->
<g id="node5" class="node">
<title>ccfits</title>
<g id="a_node5"><a xlink:href="https://github.com/conda-forge/ccfits-feedstock/pull/20" xlink:title="ccfits ❎">
<ellipse fill="#31688e" stroke="black" cx="158.53" cy="-710" rx="52.79" ry="18"/>
<text xml:space="preserve" text-anchor="middle" x="158.53" y="-705.33" font-family="Times,serif" font-size="14.00" fill="white">ccfits ❎</text>
</a>
</g>
</g>
<!-- healpix_cxx&#45;&gt;ccfits -->
<!-- numcosmo -->
<g id="node16" class="node">
<title>numcosmo</title>
<g id="a_node16"><a xlink:href="https://github.com/conda-forge/numcosmo-feedstock/pull/94" xlink:title="numcosmo ✓">
<ellipse fill="#31688e" stroke="black" cx="158.53" cy="-638" rx="72.78" ry="18"/>
<text xml:space="preserve" text-anchor="middle" x="158.53" y="-633.33" font-family="Times,serif" font-size="14.00" fill="white">numcosmo ✓</text>
</a>
</g>
</g>
<!-- ccfits&#45;&gt;numcosmo -->
<!-- healpy -->
<g id="node6" class="node">
<title>healpy</title>
<g id="a_node6"><a xlink:href="https://github.com/conda-forge/healpy-feedstock/pull/82" xlink:title="healpy ❎">
<ellipse fill="#31688e" stroke="black" cx="1018.53" cy="-602" rx="59.63" ry="18"/>
<text xml:space="preserve" text-anchor="middle" x="1018.53" y="-597.33" font-family="Times,serif" font-size="14.00" fill="white">healpy ❎</text>
</a>
</g>
</g>
<!-- lalpulsar -->
<g id="node7" class="node">
<title>lalpulsar</title>
<g id="a_node7"><a xlink:href="https://github.com/conda-forge/lalpulsar-feedstock" xlink:title="lalpulsar">
<ellipse fill="#fde725" stroke="black" cx="973.53" cy="-530" rx="54.89" ry="18"/>
<text xml:space="preserve" text-anchor="middle" x="973.53" y="-525.33" font-family="Times,serif" font-size="14.00">lalpulsar</text>
</a>
</g>
</g>
<!-- healpy&#45;&gt;lalpulsar -->
<g id="edge4" class="edge">
<title>healpy&#45;&gt;lalpulsar</title>
<path fill="none" stroke="black" d="M1007.64,-584.05C1002.5,-576.06 996.25,-566.33 990.51,-557.4"/>
<polygon fill="black" stroke="black" points="993.5,-555.58 985.15,-549.06 987.61,-559.37 993.5,-555.58"/>
</g>
<!-- namaster -->
<g id="node8" class="node">
<title>namaster</title>
<g id="a_node8"><a xlink:href="https://github.com/conda-forge/namaster-feedstock" xlink:title="namaster">
<ellipse fill="#fde725" stroke="black" cx="842.53" cy="-530" rx="58.57" ry="18"/>
<text xml:space="preserve" text-anchor="middle" x="842.53" y="-525.33" font-family="Times,serif" font-size="14.00">namaster</text>
</a>
</g>
</g>
<!-- healpy&#45;&gt;namaster -->
<g id="edge5" class="edge">
<title>healpy&#45;&gt;namaster</title>
<path fill="none" stroke="black" d="M983.34,-587C955.91,-576.09 917.62,-560.86 887.9,-549.04"/>
<polygon fill="black" stroke="black" points="889.36,-545.86 878.77,-545.41 886.77,-552.36 889.36,-545.86"/>
</g>
<!-- lalapps -->
<g id="node9" class="node">
<title>lalapps</title>
<g id="a_node9"><a xlink:href="https://github.com/conda-forge/lalapps-feedstock" xlink:title="lalapps">
<ellipse fill="#fde725" stroke="black" cx="973.53" cy="-458" rx="47" ry="18"/>
<text xml:space="preserve" text-anchor="middle" x="973.53" y="-453.32" font-family="Times,serif" font-size="14.00">lalapps</text>
</a>
</g>
</g>
<!-- healpy&#45;&gt;lalapps -->
<g id="edge6" class="edge">
<title>healpy&#45;&gt;lalapps</title>
<path fill="none" stroke="black" d="M1028.4,-583.86C1037.66,-565.38 1048.56,-535.45 1037.53,-512 1031.44,-499.05 1020.46,-488.17 1009.29,-479.71"/>
<polygon fill="black" stroke="black" points="1011.41,-476.92 1001.21,-474.05 1007.39,-482.65 1011.41,-476.92"/>
</g>
<!-- des&#45;eastlake -->
<g id="node10" class="node">
<title>des&#45;eastlake</title>
<g id="a_node10"><a xlink:href="https://github.com/conda-forge/des-eastlake-feedstock" xlink:title="des eastlake">
<ellipse fill="#fde725" stroke="black" cx="1111.53" cy="-458" rx="73.3" ry="18"/>
<text xml:space="preserve" text-anchor="middle" x="1111.53" y="-453.32" font-family="Times,serif" font-size="14.00">des eastlake</text>
</a>
</g>
</g>
<!-- healpy&#45;&gt;des&#45;eastlake -->
<g id="edge7" class="edge">
<title>healpy&#45;&gt;des&#45;eastlake</title>
<path fill="none" stroke="black" d="M1029.59,-584.31C1036.49,-573.88 1045.55,-560.17 1053.53,-548 1067.23,-527.12 1082.67,-503.42 1094.17,-485.74"/>
<polygon fill="black" stroke="black" points="1097.11,-487.64 1099.62,-477.35 1091.24,-483.83 1097.11,-487.64"/>
</g>
<!-- lalpulsar&#45;&gt;lalapps -->
<g id="edge8" class="edge">
<title>lalpulsar&#45;&gt;lalapps</title>
<path fill="none" stroke="black" d="M973.53,-511.7C973.53,-504.41 973.53,-495.73 973.53,-487.54"/>
<polygon fill="black" stroke="black" points="977.03,-487.62 973.53,-477.62 970.03,-487.62 977.03,-487.62"/>
</g>
<!-- wcslib -->
<g id="node11" class="node">
<title>wcslib</title>
<g id="a_node11"><a xlink:href="https://github.com/conda-forge/wcslib-feedstock/pull/38" xlink:title="wcslib ✓">
<ellipse fill="#31688e" stroke="black" cx="606.53" cy="-710" rx="50.68" ry="18"/>
<text xml:space="preserve" text-anchor="middle" x="606.53" y="-705.33" font-family="Times,serif" font-size="14.00" fill="white">wcslib ✓</text>
</a>
</g>
</g>
<!-- wcslib&#45;&gt;casacore -->
<g id="edge9" class="edge">
<title>wcslib&#45;&gt;casacore</title>
<path fill="none" stroke="black" d="M571,-696.81C537.44,-685.29 486.88,-667.94 449.9,-655.25"/>
<polygon fill="black" stroke="black" points="451.41,-652.07 440.81,-652.13 449.14,-658.69 451.41,-652.07"/>
</g>
<!-- astrometry -->
<g id="node12" class="node">
<title>astrometry</title>
<g id="a_node12"><a xlink:href="https://github.com/conda-forge/astrometry-feedstock" xlink:title="astrometry">
<ellipse fill="#fde725" stroke="black" cx="511.53" cy="-566" rx="66.99" ry="18"/>
<text xml:space="preserve" text-anchor="middle" x="511.53" y="-561.33" font-family="Times,serif" font-size="14.00">astrometry</text>
</a>
</g>
</g>
<!-- wcslib&#45;&gt;astrometry -->
<g id="edge10" class="edge">
<title>wcslib&#45;&gt;astrometry</title>
<path fill="none" stroke="black" d="M595.26,-692.15C578.91,-667.71 548.44,-622.17 529.12,-593.29"/>
<polygon fill="black" stroke="black" points="532.1,-591.45 523.63,-585.08 526.28,-595.34 532.1,-591.45"/>
</g>
<!-- gnuastro -->
<g id="node13" class="node">
<title>gnuastro</title>
<g id="a_node13"><a xlink:href="https://github.com/conda-forge/gnuastro-feedstock" xlink:title="gnuastro">
<ellipse fill="#fde725" stroke="black" cx="583.53" cy="-494" rx="55.94" ry="18"/>
<text xml:space="preserve" text-anchor="middle" x="583.53" y="-489.32" font-family="Times,serif" font-size="14.00">gnuastro</text>
</a>
</g>
</g>
<!-- wcslib&#45;&gt;gnuastro -->
<g id="edge11" class="edge">
<title>wcslib&#45;&gt;gnuastro</title>
<path fill="none" stroke="black" d="M604.69,-691.85C600.75,-655.14 591.45,-568.66 586.6,-523.53"/>
<polygon fill="black" stroke="black" points="590.1,-523.31 585.55,-513.74 583.14,-524.05 590.1,-523.31"/>
</g>
<!-- cpl -->
<g id="node14" class="node">
<title>cpl</title>
<g id="a_node14"><a xlink:href="https://github.com/conda-forge/cpl-feedstock" xlink:title="cpl">
<ellipse fill="#fde725" stroke="black" cx="667.53" cy="-422" rx="27" ry="18"/>
<text xml:space="preserve" text-anchor="middle" x="667.53" y="-417.32" font-family="Times,serif" font-size="14.00">cpl</text>
</a>
</g>
</g>
<!-- wcslib&#45;&gt;cpl -->
<g id="edge12" class="edge">
<title>wcslib&#45;&gt;cpl</title>
<path fill="none" stroke="black" d="M610.17,-691.97C620.29,-644.49 648.91,-510.31 661.48,-451.36"/>
<polygon fill="black" stroke="black" points="664.86,-452.3 663.53,-441.79 658.02,-450.84 664.86,-452.3"/>
</g>
<!-- lenstool -->
<g id="node15" class="node">
<title>lenstool</title>
<g id="a_node15"><a xlink:href="https://github.com/conda-forge/lenstool-feedstock" xlink:title="lenstool">
<ellipse fill="#fde725" stroke="black" cx="722.53" cy="-350" rx="50.68" ry="18"/>
<text xml:space="preserve" text-anchor="middle" x="722.53" y="-345.32" font-family="Times,serif" font-size="14.00">lenstool</text>
</a>
</g>
</g>
<!-- wcslib&#45;&gt;lenstool -->
<g id="edge13" class="edge">
<title>wcslib&#45;&gt;lenstool</title>
<path fill="none" stroke="black" d="M631.42,-693.84C665.5,-670.96 722.53,-624.14 722.53,-567 722.53,-567 722.53,-567 722.53,-493 722.53,-453.74 722.53,-408.38 722.53,-379.69"/>
<polygon fill="black" stroke="black" points="726.03,-380 722.53,-370 719.03,-380 726.03,-380"/>
</g>
<!-- root -->
<g id="node17" class="node">
<title>root</title>
<g id="a_node17"><a xlink:href="https://github.com/conda-forge/root-feedstock/pull/318" xlink:title="root ❎">
<ellipse fill="#31688e" stroke="black" cx="158.53" cy="-566" rx="47" ry="18"/>
<text xml:space="preserve" text-anchor="middle" x="158.53" y="-561.33" font-family="Times,serif" font-size="14.00" fill="white">root ❎</text>
</a>
</g>
</g>
<!-- numcosmo&#45;&gt;root -->
<!-- libvips -->
<g id="node19" class="node">
<title>libvips</title>
<g id="a_node19"><a xlink:href="https://github.com/conda-forge/libvips-feedstock/pull/146" xlink:title="libvips ❎">
<ellipse fill="#31688e" stroke="black" cx="158.53" cy="-494" rx="59.63" ry="18"/>
<text xml:space="preserve" text-anchor="middle" x="158.53" y="-489.32" font-family="Times,serif" font-size="14.00" fill="white">libvips ❎</text>
</a>
</g>
</g>
<!-- root&#45;&gt;libvips -->
<!-- chealpix -->
<g id="node18" class="node">
<title>chealpix</title>
<g id="a_node18"><a xlink:href="https://github.com/conda-forge/chealpix-feedstock/pull/18" xlink:title="chealpix ✓">
<ellipse fill="#31688e" stroke="black" cx="842.53" cy="-602" rx="60.68" ry="18"/>
<text xml:space="preserve" text-anchor="middle" x="842.53" y="-597.33" font-family="Times,serif" font-size="14.00" fill="white">chealpix ✓</text>
</a>
</g>
</g>
<!-- chealpix&#45;&gt;namaster -->
<g id="edge16" class="edge">
<title>chealpix&#45;&gt;namaster</title>
<path fill="none" stroke="black" d="M842.53,-583.7C842.53,-576.41 842.53,-567.73 842.53,-559.54"/>
<polygon fill="black" stroke="black" points="846.03,-559.62 842.53,-549.62 839.03,-559.62 846.03,-559.62"/>
</g>
<!-- astromatic&#45;source&#45;extractor -->
<g id="node22" class="node">
<title>astromatic&#45;source&#45;extractor</title>
<g id="a_node22"><a xlink:href="https://github.com/conda-forge/astromatic-source-extractor-feedstock/pull/21" xlink:title="astromatic source extractor ✓">
<ellipse fill="#31688e" stroke="black" cx="158.53" cy="-422" rx="158.53" ry="18"/>
<text xml:space="preserve" text-anchor="middle" x="158.53" y="-417.32" font-family="Times,serif" font-size="14.00" fill="white">astromatic source extractor ✓</text>
</a>
</g>
</g>
<!-- libvips&#45;&gt;astromatic&#45;source&#45;extractor -->
<!-- photospline -->
<g id="node20" class="node">
<title>photospline</title>
<g id="a_node20"><a xlink:href="https://github.com/conda-forge/photospline-feedstock/pull/50" xlink:title="photospline ✓">
<ellipse fill="#31688e" stroke="black" cx="549.53" cy="-126" rx="77.52" ry="18"/>
<text xml:space="preserve" text-anchor="middle" x="549.53" y="-121.33" font-family="Times,serif" font-size="14.00" fill="white">photospline ✓</text>
</a>
</g>
</g>
<!-- nuflux -->
<g id="node21" class="node">
<title>nuflux</title>
<g id="a_node21"><a xlink:href="https://github.com/conda-forge/nuflux-feedstock" xlink:title="nuflux">
<ellipse fill="#fde725" stroke="black" cx="549.53" cy="-54" rx="42.26" ry="18"/>
<text xml:space="preserve" text-anchor="middle" x="549.53" y="-49.33" font-family="Times,serif" font-size="14.00">nuflux</text>
</a>
</g>
</g>
<!-- photospline&#45;&gt;nuflux -->
<g id="edge18" class="edge">
<title>photospline&#45;&gt;nuflux</title>
<path fill="none" stroke="black" d="M549.53,-107.7C549.53,-100.41 549.53,-91.73 549.53,-83.54"/>
<polygon fill="black" stroke="black" points="553.03,-83.62 549.53,-73.62 546.03,-83.62 553.03,-83.62"/>
</g>
<!-- fitsverify -->
<g id="node23" class="node">
<title>fitsverify</title>
<g id="a_node23"><a xlink:href="https://github.com/conda-forge/fitsverify-feedstock/pull/23" xlink:title="fitsverify ❎">
<ellipse fill="#31688e" stroke="black" cx="158.53" cy="-350" rx="71.2" ry="18"/>
<text xml:space="preserve" text-anchor="middle" x="158.53" y="-345.32" font-family="Times,serif" font-size="14.00" fill="white">fitsverify ❎</text>
</a>
</g>
</g>
<!-- astromatic&#45;source&#45;extractor&#45;&gt;fitsverify -->
<!-- disperse -->
<g id="node27" class="node">
<title>disperse</title>
<g id="a_node27"><a xlink:href="https://github.com/conda-forge/disperse-feedstock/pull/12" xlink:title="disperse ✓">
<ellipse fill="#31688e" stroke="black" cx="158.53" cy="-278" rx="61.73" ry="18"/>
<text xml:space="preserve" text-anchor="middle" x="158.53" y="-273.32" font-family="Times,serif" font-size="14.00" fill="white">disperse ✓</text>
</a>
</g>
</g>
<!-- fitsverify&#45;&gt;disperse -->
<!-- tempo2 -->
<g id="node24" class="node">
<title>tempo2</title>
<g id="a_node24"><a xlink:href="https://github.com/conda-forge/tempo2-feedstock/pull/43" xlink:title="tempo2 ❎">
<ellipse fill="#31688e" stroke="black" cx="158.53" cy="-162" rx="64.36" ry="18"/>
<text xml:space="preserve" text-anchor="middle" x="158.53" y="-157.32" font-family="Times,serif" font-size="14.00" fill="white">tempo2 ❎</text>
</a>
</g>
</g>
<!-- psrchive -->
<g id="node25" class="node">
<title>psrchive</title>
<g id="a_node25"><a xlink:href="https://github.com/conda-forge/psrchive-feedstock" xlink:title="psrchive">
<ellipse fill="#fde725" stroke="black" cx="158.53" cy="-90" rx="53.84" ry="18"/>
<text xml:space="preserve" text-anchor="middle" x="158.53" y="-85.33" font-family="Times,serif" font-size="14.00">psrchive</text>
</a>
</g>
</g>
<!-- tempo2&#45;&gt;psrchive -->
<g id="edge21" class="edge">
<title>tempo2&#45;&gt;psrchive</title>
<path fill="none" stroke="black" d="M158.53,-143.7C158.53,-136.41 158.53,-127.73 158.53,-119.54"/>
<polygon fill="black" stroke="black" points="162.03,-119.62 158.53,-109.62 155.03,-119.62 162.03,-119.62"/>
</g>
<!-- dspsr -->
<g id="node26" class="node">
<title>dspsr</title>
<g id="a_node26"><a xlink:href="https://github.com/conda-forge/dspsr-feedstock" xlink:title="dspsr">
<ellipse fill="#fde725" stroke="black" cx="158.53" cy="-18" rx="39.11" ry="18"/>
<text xml:space="preserve" text-anchor="middle" x="158.53" y="-13.32" font-family="Times,serif" font-size="14.00">dspsr</text>
</a>
</g>
</g>
<!-- psrchive&#45;&gt;dspsr -->
<g id="edge22" class="edge">
<title>psrchive&#45;&gt;dspsr</title>
<path fill="none" stroke="black" d="M158.53,-71.7C158.53,-64.41 158.53,-55.73 158.53,-47.54"/>
<polygon fill="black" stroke="black" points="162.03,-47.62 158.53,-37.62 155.03,-47.62 162.03,-47.62"/>
</g>
<!-- nvidia&#45;dali&#45;python -->
<g id="node28" class="node">
<title>nvidia&#45;dali&#45;python</title>
<g id="a_node28"><a xlink:href="https://github.com/conda-forge/nvidia-dali-python-feedstock/pull/53" xlink:title="nvidia dali python ❎">
<ellipse fill="#31688e" stroke="black" cx="158.53" cy="-206" rx="116.45" ry="18"/>
<text xml:space="preserve" text-anchor="middle" x="158.53" y="-201.32" font-family="Times,serif" font-size="14.00" fill="white">nvidia dali python ❎</text>
</a>
</g>
</g>
<!-- disperse&#45;&gt;nvidia&#45;dali&#45;python -->
</g>
</svg>
