<?xml version="1.0" encoding="UTF-8" standalone="no"?>
<!DOCTYPE svg PUBLIC "-//W3C//DTD SVG 1.1//EN"
 "http://www.w3.org/Graphics/SVG/1.1/DTD/svg11.dtd">
<!-- Generated by graphviz version 12.0.0 (20240803.0821)
 -->
<!-- Pages: 1 -->
<svg width="934pt" height="664pt"
 viewBox="0.00 0.00 933.76 664.00" xmlns="http://www.w3.org/2000/svg" xmlns:xlink="http://www.w3.org/1999/xlink">
<g id="graph0" class="graph" transform="scale(1 1) rotate(0) translate(4 660)">
<polygon fill="white" stroke="none" points="-4,4 -4,-660 929.76,-660 929.76,4 -4,4"/>
<!-- casacore -->
<g id="node1" class="node">
<title>casacore</title>
<g id="a_node1"><a xlink:href="https://github.com/conda-forge/casacore-feedstock" xlink:title="casacore">
<ellipse fill="#fde725" stroke="black" cx="267.84" cy="-422" rx="54.89" ry="18"/>
<text text-anchor="middle" x="267.84" y="-417.32" font-family="Times,serif" font-size="14.00">casacore</text>
</a>
</g>
</g>
<!-- gdal -->
<g id="node2" class="node">
<title>gdal</title>
<g id="a_node2"><a xlink:href="https://github.com/conda-forge/gdal-feedstock/pull/1036" xlink:title="gdal ✓">
<ellipse fill="#31688e" stroke="black" cx="207.84" cy="-494" rx="40.69" ry="18"/>
<text text-anchor="middle" x="207.84" y="-489.32" font-family="Times,serif" font-size="14.00" fill="white">gdal ✓</text>
</a>
</g>
</g>
<!-- rubinenv -->
<g id="node3" class="node">
<title>rubinenv</title>
<g id="a_node3"><a xlink:href="https://github.com/conda-forge/rubinenv-feedstock" xlink:title="rubinenv">
<ellipse fill="#fde725" stroke="black" cx="138.84" cy="-422" rx="55.94" ry="18"/>
<text text-anchor="middle" x="138.84" y="-417.32" font-family="Times,serif" font-size="14.00">rubinenv</text>
</a>
</g>
</g>
<!-- gdal&#45;&gt;rubinenv -->
<g id="edge1" class="edge">
<title>gdal&#45;&gt;rubinenv</title>
<path fill="none" stroke="black" d="M192.18,-477.12C183.48,-468.29 172.48,-457.13 162.73,-447.24"/>
<polygon fill="black" stroke="black" points="165.48,-445.05 155.97,-440.38 160.5,-449.96 165.48,-445.05"/>
</g>
<!-- wcslib -->
<g id="node4" class="node">
<title>wcslib</title>
<g id="a_node4"><a xlink:href="https://github.com/conda-forge/wcslib-feedstock/pull/34" xlink:title="wcslib ✓">
<ellipse fill="#31688e" stroke="black" cx="369.84" cy="-494" rx="50.68" ry="18"/>
<text text-anchor="middle" x="369.84" y="-489.32" font-family="Times,serif" font-size="14.00" fill="white">wcslib ✓</text>
</a>
</g>
</g>
<!-- wcslib&#45;&gt;casacore -->
<g id="edge2" class="edge">
<title>wcslib&#45;&gt;casacore</title>
<path fill="none" stroke="black" d="M347.2,-477.46C333.3,-467.93 315.27,-455.56 299.92,-445.02"/>
<polygon fill="black" stroke="black" points="302.24,-442.36 292.01,-439.59 298.27,-448.13 302.24,-442.36"/>
</g>
<!-- wcslib&#45;&gt;rubinenv -->
<g id="edge3" class="edge">
<title>wcslib&#45;&gt;rubinenv</title>
<path fill="none" stroke="black" d="M332.21,-481.6C293.28,-469.8 232.26,-451.31 189.19,-438.26"/>
<polygon fill="black" stroke="black" points="190.42,-434.97 179.83,-435.42 188.39,-441.67 190.42,-434.97"/>
</g>
<!-- astrometry -->
<g id="node5" class="node">
<title>astrometry</title>
<g id="a_node5"><a xlink:href="https://github.com/conda-forge/astrometry-feedstock" xlink:title="astrometry">
<ellipse fill="#fde725" stroke="black" cx="293.84" cy="-350" rx="66.99" ry="18"/>
<text text-anchor="middle" x="293.84" y="-345.32" font-family="Times,serif" font-size="14.00">astrometry</text>
</a>
</g>
</g>
<!-- wcslib&#45;&gt;astrometry -->
<g id="edge4" class="edge">
<title>wcslib&#45;&gt;astrometry</title>
<path fill="none" stroke="black" d="M363.75,-475.74C357,-457.42 345.27,-427.86 331.84,-404 326.72,-394.92 320.38,-385.53 314.35,-377.21"/>
<polygon fill="black" stroke="black" points="317.19,-375.17 308.41,-369.24 311.58,-379.35 317.19,-375.17"/>
</g>
<!-- gnuastro -->
<g id="node6" class="node">
<title>gnuastro</title>
<g id="a_node6"><a xlink:href="https://github.com/conda-forge/gnuastro-feedstock" xlink:title="gnuastro">
<ellipse fill="#fde725" stroke="black" cx="365.84" cy="-278" rx="55.94" ry="18"/>
<text text-anchor="middle" x="365.84" y="-273.32" font-family="Times,serif" font-size="14.00">gnuastro</text>
</a>
</g>
</g>
<!-- wcslib&#45;&gt;gnuastro -->
<g id="edge5" class="edge">
<title>wcslib&#45;&gt;gnuastro</title>
<path fill="none" stroke="black" d="M370.26,-475.6C370.9,-446.06 371.8,-384.23 369.84,-332 369.54,-324.04 368.98,-315.42 368.38,-307.49"/>
<polygon fill="black" stroke="black" points="371.88,-307.36 367.58,-297.68 364.91,-307.93 371.88,-307.36"/>
</g>
<!-- cpl -->
<g id="node7" class="node">
<title>cpl</title>
<g id="a_node7"><a xlink:href="https://github.com/conda-forge/cpl-feedstock" xlink:title="cpl">
<ellipse fill="#fde725" stroke="black" cx="449.84" cy="-206" rx="27" ry="18"/>
<text text-anchor="middle" x="449.84" y="-201.33" font-family="Times,serif" font-size="14.00">cpl</text>
</a>
</g>
</g>
<!-- wcslib&#45;&gt;cpl -->
<g id="edge6" class="edge">
<title>wcslib&#45;&gt;cpl</title>
<path fill="none" stroke="black" d="M375.75,-475.76C387.31,-441.69 413.29,-363.21 430.84,-296 436.09,-275.88 440.96,-252.92 444.46,-235.36"/>
<polygon fill="black" stroke="black" points="447.87,-236.14 446.36,-225.65 441,-234.8 447.87,-236.14"/>
</g>
<!-- lenstool -->
<g id="node8" class="node">
<title>lenstool</title>
<g id="a_node8"><a xlink:href="https://github.com/conda-forge/lenstool-feedstock" xlink:title="lenstool">
<ellipse fill="#fde725" stroke="black" cx="504.84" cy="-134" rx="50.68" ry="18"/>
<text text-anchor="middle" x="504.84" y="-129.32" font-family="Times,serif" font-size="14.00">lenstool</text>
</a>
</g>
</g>
<!-- wcslib&#45;&gt;lenstool -->
<g id="edge7" class="edge">
<title>wcslib&#45;&gt;lenstool</title>
<path fill="none" stroke="black" d="M398.8,-478.89C438.46,-457.31 504.84,-412.06 504.84,-351 504.84,-351 504.84,-351 504.84,-277 504.84,-237.74 504.84,-192.38 504.84,-163.69"/>
<polygon fill="black" stroke="black" points="508.34,-164 504.84,-154 501.34,-164 508.34,-164"/>
</g>
<!-- ccfits -->
<g id="node9" class="node">
<title>ccfits</title>
<g id="a_node9"><a xlink:href="https://github.com/conda-forge/ccfits-feedstock/pull/17" xlink:title="ccfits ✓">
<ellipse fill="#31688e" stroke="black" cx="679.96" cy="-566" rx="45.42" ry="18"/>
<text text-anchor="middle" x="679.96" y="-561.33" font-family="Times,serif" font-size="14.00" fill="white">ccfits ✓</text>
</a>
</g>
</g>
<!-- numcosmo -->
<g id="node10" class="node">
<title>numcosmo</title>
<g id="a_node10"><a xlink:href="https://github.com/conda-forge/numcosmo-feedstock/pull/77" xlink:title="numcosmo ❎">
<ellipse fill="#31688e" stroke="black" cx="679.96" cy="-494" rx="80.14" ry="18"/>
<text text-anchor="middle" x="679.96" y="-489.32" font-family="Times,serif" font-size="14.00" fill="white">numcosmo ❎</text>
</a>
</g>
</g>
<!-- ccfits&#45;&gt;numcosmo -->
<!-- hstcal -->
<g id="node11" class="node">
<title>hstcal</title>
<g id="a_node11"><a xlink:href="https://github.com/conda-forge/hstcal-feedstock/pull/29" xlink:title="hstcal ✓">
<ellipse fill="#31688e" stroke="black" cx="679.96" cy="-422" rx="49.1" ry="18"/>
<text text-anchor="middle" x="679.96" y="-417.32" font-family="Times,serif" font-size="14.00" fill="white">hstcal ✓</text>
</a>
</g>
</g>
<!-- numcosmo&#45;&gt;hstcal -->
<!-- des&#45;eastlake -->
<g id="node22" class="node">
<title>des&#45;eastlake</title>
<g id="a_node22"><a xlink:href="https://github.com/conda-forge/des-eastlake-feedstock/pull/55" xlink:title="des eastlake ❎">
<ellipse fill="#31688e" stroke="black" cx="679.96" cy="-350" rx="88.56" ry="18"/>
<text text-anchor="middle" x="679.96" y="-345.32" font-family="Times,serif" font-size="14.00" fill="white">des eastlake ❎</text>
</a>
</g>
</g>
<!-- hstcal&#45;&gt;des&#45;eastlake -->
<!-- lalpulsar -->
<g id="node12" class="node">
<title>lalpulsar</title>
<g id="a_node12"><a xlink:href="https://github.com/conda-forge/lalpulsar-feedstock/pull/78" xlink:title="lalpulsar ✓">
<ellipse fill="#31688e" stroke="black" cx="679.96" cy="-90" rx="62.78" ry="18"/>
<text text-anchor="middle" x="679.96" y="-85.33" font-family="Times,serif" font-size="14.00" fill="white">lalpulsar ✓</text>
</a>
</g>
</g>
<!-- lalapps -->
<g id="node13" class="node">
<title>lalapps</title>
<g id="a_node13"><a xlink:href="https://github.com/conda-forge/lalapps-feedstock" xlink:title="lalapps">
<ellipse fill="#fde725" stroke="black" cx="679.96" cy="-18" rx="47" ry="18"/>
<text text-anchor="middle" x="679.96" y="-13.32" font-family="Times,serif" font-size="14.00">lalapps</text>
</a>
</g>
</g>
<!-- lalpulsar&#45;&gt;lalapps -->
<g id="edge10" class="edge">
<title>lalpulsar&#45;&gt;lalapps</title>
<path fill="none" stroke="black" d="M679.96,-71.7C679.96,-64.41 679.96,-55.73 679.96,-47.54"/>
<polygon fill="black" stroke="black" points="683.46,-47.62 679.96,-37.62 676.46,-47.62 683.46,-47.62"/>
</g>
<!-- chealpix -->
<g id="node14" class="node">
<title>chealpix</title>
<g id="a_node14"><a xlink:href="https://github.com/conda-forge/chealpix-feedstock/pull/14" xlink:title="chealpix ✓">
<ellipse fill="#31688e" stroke="black" cx="865.09" cy="-90" rx="60.68" ry="18"/>
<text text-anchor="middle" x="865.09" y="-85.33" font-family="Times,serif" font-size="14.00" fill="white">chealpix ✓</text>
</a>
</g>
</g>
<!-- namaster -->
<g id="node15" class="node">
<title>namaster</title>
<g id="a_node15"><a xlink:href="https://github.com/conda-forge/namaster-feedstock" xlink:title="namaster">
<ellipse fill="#fde725" stroke="black" cx="865.09" cy="-18" rx="58.57" ry="18"/>
<text text-anchor="middle" x="865.09" y="-13.32" font-family="Times,serif" font-size="14.00">namaster</text>
</a>
</g>
</g>
<!-- chealpix&#45;&gt;namaster -->
<g id="edge11" class="edge">
<title>chealpix&#45;&gt;namaster</title>
<path fill="none" stroke="black" d="M865.09,-71.7C865.09,-64.41 865.09,-55.73 865.09,-47.54"/>
<polygon fill="black" stroke="black" points="868.59,-47.62 865.09,-37.62 861.59,-47.62 868.59,-47.62"/>
</g>
<!-- root -->
<g id="node16" class="node">
<title>root</title>
<g id="a_node16"><a xlink:href="https://github.com/conda-forge/root-feedstock/pull/277" xlink:title="root ❎">
<ellipse fill="#31688e" stroke="black" cx="138.84" cy="-566" rx="47" ry="18"/>
<text text-anchor="middle" x="138.84" y="-561.33" font-family="Times,serif" font-size="14.00" fill="white">root ❎</text>
</a>
</g>
</g>
<!-- root&#45;&gt;rubinenv -->
<g id="edge12" class="edge">
<title>root&#45;&gt;rubinenv</title>
<path fill="none" stroke="black" d="M138.84,-547.59C138.84,-523.61 138.84,-480.14 138.84,-451.42"/>
<polygon fill="black" stroke="black" points="142.34,-451.62 138.84,-441.62 135.34,-451.62 142.34,-451.62"/>
</g>
<!-- photospline -->
<g id="node17" class="node">
<title>photospline</title>
<g id="a_node17"><a xlink:href="https://github.com/conda-forge/photospline-feedstock/pull/45" xlink:title="photospline ✓">
<ellipse fill="#31688e" stroke="black" cx="277.76" cy="-90" rx="77.52" ry="18"/>
<text text-anchor="middle" x="277.76" y="-85.33" font-family="Times,serif" font-size="14.00" fill="white">photospline ✓</text>
</a>
</g>
</g>
<!-- nuflux -->
<g id="node18" class="node">
<title>nuflux</title>
<g id="a_node18"><a xlink:href="https://github.com/conda-forge/nuflux-feedstock" xlink:title="nuflux">
<ellipse fill="#fde725" stroke="black" cx="277.76" cy="-18" rx="42.26" ry="18"/>
<text text-anchor="middle" x="277.76" y="-13.32" font-family="Times,serif" font-size="14.00">nuflux</text>
</a>
</g>
</g>
<!-- photospline&#45;&gt;nuflux -->
<g id="edge13" class="edge">
<title>photospline&#45;&gt;nuflux</title>
<path fill="none" stroke="black" d="M277.76,-71.7C277.76,-64.41 277.76,-55.73 277.76,-47.54"/>
<polygon fill="black" stroke="black" points="281.26,-47.62 277.76,-37.62 274.26,-47.62 281.26,-47.62"/>
</g>
<!-- tempo2 -->
<g id="node19" class="node">
<title>tempo2</title>
<g id="a_node19"><a xlink:href="https://github.com/conda-forge/tempo2-feedstock/pull/38" xlink:title="tempo2 ✓">
<ellipse fill="#31688e" stroke="black" cx="865.09" cy="-458" rx="57" ry="18"/>
<text text-anchor="middle" x="865.09" y="-453.32" font-family="Times,serif" font-size="14.00" fill="white">tempo2 ✓</text>
</a>
</g>
</g>
<!-- psrchive -->
<g id="node20" class="node">
<title>psrchive</title>
<g id="a_node20"><a xlink:href="https://github.com/conda-forge/psrchive-feedstock" xlink:title="psrchive">
<ellipse fill="#fde725" stroke="black" cx="865.09" cy="-386" rx="53.84" ry="18"/>
<text text-anchor="middle" x="865.09" y="-381.32" font-family="Times,serif" font-size="14.00">psrchive</text>
</a>
</g>
</g>
<!-- tempo2&#45;&gt;psrchive -->
<g id="edge14" class="edge">
<title>tempo2&#45;&gt;psrchive</title>
<path fill="none" stroke="black" d="M865.09,-439.7C865.09,-432.41 865.09,-423.73 865.09,-415.54"/>
<polygon fill="black" stroke="black" points="868.59,-415.62 865.09,-405.62 861.59,-415.62 868.59,-415.62"/>
</g>
<!-- dspsr -->
<g id="node21" class="node">
<title>dspsr</title>
<g id="a_node21"><a xlink:href="https://github.com/conda-forge/dspsr-feedstock" xlink:title="dspsr">
<ellipse fill="#fde725" stroke="black" cx="865.09" cy="-314" rx="39.11" ry="18"/>
<text text-anchor="middle" x="865.09" y="-309.32" font-family="Times,serif" font-size="14.00">dspsr</text>
</a>
</g>
</g>
<!-- psrchive&#45;&gt;dspsr -->
<g id="edge15" class="edge">
<title>psrchive&#45;&gt;dspsr</title>
<path fill="none" stroke="black" d="M865.09,-367.7C865.09,-360.41 865.09,-351.73 865.09,-343.54"/>
<polygon fill="black" stroke="black" points="868.59,-343.62 865.09,-333.62 861.59,-343.62 868.59,-343.62"/>
</g>
<!-- disperse -->
<g id="node24" class="node">
<title>disperse</title>
<g id="a_node24"><a xlink:href="https://github.com/conda-forge/disperse-feedstock/pull/9" xlink:title="disperse ❎">
<ellipse fill="#31688e" stroke="black" cx="679.96" cy="-278" rx="69.1" ry="18"/>
<text text-anchor="middle" x="679.96" y="-273.32" font-family="Times,serif" font-size="14.00" fill="white">disperse ❎</text>
</a>
</g>
</g>
<!-- des&#45;eastlake&#45;&gt;disperse -->
<!-- fitsverify -->
<g id="node23" class="node">
<title>fitsverify</title>
<g id="a_node23"><a xlink:href="https://github.com/conda-forge/fitsverify-feedstock/pull/17" xlink:title="fitsverify ✓">
<ellipse fill="#31688e" stroke="black" cx="63.84" cy="-638" rx="63.84" ry="18"/>
<text text-anchor="middle" x="63.84" y="-633.33" font-family="Times,serif" font-size="14.00" fill="white">fitsverify ✓</text>
</a>
</g>
</g>
<!-- fitsverify&#45;&gt;rubinenv -->
<g id="edge17" class="edge">
<title>fitsverify&#45;&gt;rubinenv</title>
<path fill="none" stroke="black" d="M66.42,-619.65C69.39,-601.51 74.89,-572.33 82.84,-548 94.22,-513.15 112.21,-474.93 124.71,-450.05"/>
<polygon fill="black" stroke="black" points="127.76,-451.78 129.18,-441.28 121.52,-448.61 127.76,-451.78"/>
</g>
<!-- nvidia&#45;dali&#45;python -->
<g id="node25" class="node">
<title>nvidia&#45;dali&#45;python</title>
<g id="a_node25"><a xlink:href="https://github.com/conda-forge/nvidia-dali-python-feedstock/pull/18" xlink:title="nvidia dali python ❎">
<ellipse fill="#31688e" stroke="black" cx="679.96" cy="-206" rx="116.45" ry="18"/>
<text text-anchor="middle" x="679.96" y="-201.32" font-family="Times,serif" font-size="14.00" fill="white">nvidia dali python ❎</text>
</a>
</g>
</g>
<!-- disperse&#45;&gt;nvidia&#45;dali&#45;python -->
</g>
</svg>
