<?xml version="1.0" encoding="UTF-8" standalone="no"?>
<!DOCTYPE svg PUBLIC "-//W3C//DTD SVG 1.1//EN"
 "http://www.w3.org/Graphics/SVG/1.1/DTD/svg11.dtd">
<!-- Generated by graphviz version 12.2.1 (20250203.1708)
 -->
<!-- Pages: 1 -->
<svg width="1252pt" height="736pt"
 viewBox="0.00 0.00 1251.52 736.00" xmlns="http://www.w3.org/2000/svg" xmlns:xlink="http://www.w3.org/1999/xlink">
<g id="graph0" class="graph" transform="scale(1 1) rotate(0) translate(4 732)">
<polygon fill="white" stroke="none" points="-4,4 -4,-732 1247.52,-732 1247.52,4 -4,4"/>
<!-- casacore -->
<g id="node1" class="node">
<title>casacore</title>
<g id="a_node1"><a xlink:href="https://github.com/conda-forge/casacore-feedstock" xlink:title="casacore">
<ellipse fill="#fde725" stroke="black" cx="287.68" cy="-494" rx="54.89" ry="18"/>
<text text-anchor="middle" x="287.68" y="-489.32" font-family="Times,serif" font-size="14.00">casacore</text>
</a>
</g>
</g>
<!-- gdal -->
<g id="node2" class="node">
<title>gdal</title>
<g id="a_node2"><a xlink:href="https://github.com/conda-forge/gdal-feedstock" xlink:title="gdal">
<ellipse fill="#35b779" stroke="black" cx="785.68" cy="-566" rx="32.79" ry="18"/>
<text text-anchor="middle" x="785.68" y="-561.33" font-family="Times,serif" font-size="14.00">gdal</text>
</a>
</g>
</g>
<!-- rubinenv -->
<g id="node3" class="node">
<title>rubinenv</title>
<g id="a_node3"><a xlink:href="https://github.com/conda-forge/rubinenv-feedstock" xlink:title="rubinenv">
<ellipse fill="#fde725" stroke="black" cx="755.68" cy="-494" rx="55.94" ry="18"/>
<text text-anchor="middle" x="755.68" y="-489.32" font-family="Times,serif" font-size="14.00">rubinenv</text>
</a>
</g>
</g>
<!-- gdal&#45;&gt;rubinenv -->
<g id="edge1" class="edge">
<title>gdal&#45;&gt;rubinenv</title>
<path fill="none" stroke="black" d="M778.42,-548.05C775.15,-540.43 771.21,-531.23 767.53,-522.65"/>
<polygon fill="black" stroke="black" points="770.84,-521.48 763.68,-513.67 764.4,-524.24 770.84,-521.48"/>
</g>
<!-- healpix_cxx -->
<g id="node4" class="node">
<title>healpix_cxx</title>
<g id="a_node4"><a xlink:href="https://github.com/conda-forge/healpix_cxx-feedstock" xlink:title="healpix_cxx">
<ellipse fill="#35b779" stroke="black" cx="976.68" cy="-710" rx="69.1" ry="18"/>
<text text-anchor="middle" x="976.68" y="-705.33" font-family="Times,serif" font-size="14.00">healpix_cxx</text>
</a>
</g>
</g>
<!-- ccfits -->
<g id="node5" class="node">
<title>ccfits</title>
<g id="a_node5"><a xlink:href="https://github.com/conda-forge/ccfits-feedstock" xlink:title="ccfits">
<ellipse fill="#35b779" stroke="black" cx="976.68" cy="-638" rx="37.53" ry="18"/>
<text text-anchor="middle" x="976.68" y="-633.33" font-family="Times,serif" font-size="14.00">ccfits</text>
</a>
</g>
</g>
<!-- healpix_cxx&#45;&gt;ccfits -->
<!-- numcosmo -->
<g id="node16" class="node">
<title>numcosmo</title>
<g id="a_node16"><a xlink:href="https://github.com/conda-forge/numcosmo-feedstock" xlink:title="numcosmo">
<ellipse fill="#35b779" stroke="black" cx="976.68" cy="-566" rx="64.89" ry="18"/>
<text text-anchor="middle" x="976.68" y="-561.33" font-family="Times,serif" font-size="14.00">numcosmo</text>
</a>
</g>
</g>
<!-- ccfits&#45;&gt;numcosmo -->
<!-- healpy -->
<g id="node6" class="node">
<title>healpy</title>
<g id="a_node6"><a xlink:href="https://github.com/conda-forge/healpy-feedstock" xlink:title="healpy">
<ellipse fill="#35b779" stroke="black" cx="588.68" cy="-566" rx="44.37" ry="18"/>
<text text-anchor="middle" x="588.68" y="-561.33" font-family="Times,serif" font-size="14.00">healpy</text>
</a>
</g>
</g>
<!-- healpy&#45;&gt;rubinenv -->
<g id="edge3" class="edge">
<title>healpy&#45;&gt;rubinenv</title>
<path fill="none" stroke="black" d="M618.54,-552.49C644.61,-541.56 682.78,-525.56 712.23,-513.21"/>
<polygon fill="black" stroke="black" points="713.39,-516.52 721.25,-509.43 710.68,-510.07 713.39,-516.52"/>
</g>
<!-- lalpulsar -->
<g id="node7" class="node">
<title>lalpulsar</title>
<g id="a_node7"><a xlink:href="https://github.com/conda-forge/lalpulsar-feedstock" xlink:title="lalpulsar">
<ellipse fill="#fde725" stroke="black" cx="588.68" cy="-494" rx="54.89" ry="18"/>
<text text-anchor="middle" x="588.68" y="-489.32" font-family="Times,serif" font-size="14.00">lalpulsar</text>
</a>
</g>
</g>
<!-- healpy&#45;&gt;lalpulsar -->
<g id="edge4" class="edge">
<title>healpy&#45;&gt;lalpulsar</title>
<path fill="none" stroke="black" d="M588.68,-547.7C588.68,-540.41 588.68,-531.73 588.68,-523.54"/>
<polygon fill="black" stroke="black" points="592.18,-523.62 588.68,-513.62 585.18,-523.62 592.18,-523.62"/>
</g>
<!-- namaster -->
<g id="node8" class="node">
<title>namaster</title>
<g id="a_node8"><a xlink:href="https://github.com/conda-forge/namaster-feedstock" xlink:title="namaster">
<ellipse fill="#fde725" stroke="black" cx="418.68" cy="-494" rx="58.57" ry="18"/>
<text text-anchor="middle" x="418.68" y="-489.32" font-family="Times,serif" font-size="14.00">namaster</text>
</a>
</g>
</g>
<!-- healpy&#45;&gt;namaster -->
<g id="edge5" class="edge">
<title>healpy&#45;&gt;namaster</title>
<path fill="none" stroke="black" d="M558.29,-552.49C531.84,-541.59 493.15,-525.66 463.2,-513.33"/>
<polygon fill="black" stroke="black" points="464.58,-510.12 454,-509.54 461.92,-516.59 464.58,-510.12"/>
</g>
<!-- lalapps -->
<g id="node9" class="node">
<title>lalapps</title>
<g id="a_node9"><a xlink:href="https://github.com/conda-forge/lalapps-feedstock" xlink:title="lalapps">
<ellipse fill="#fde725" stroke="black" cx="519.68" cy="-422" rx="47" ry="18"/>
<text text-anchor="middle" x="519.68" y="-417.32" font-family="Times,serif" font-size="14.00">lalapps</text>
</a>
</g>
</g>
<!-- healpy&#45;&gt;lalapps -->
<g id="edge6" class="edge">
<title>healpy&#45;&gt;lalapps</title>
<path fill="none" stroke="black" d="M562.92,-550.86C549.01,-541.73 533.01,-528.48 524.68,-512 515.34,-493.5 514.4,-470.01 515.63,-451.81"/>
<polygon fill="black" stroke="black" points="519.11,-452.24 516.58,-441.95 512.14,-451.57 519.11,-452.24"/>
</g>
<!-- des&#45;eastlake -->
<g id="node10" class="node">
<title>des&#45;eastlake</title>
<g id="a_node10"><a xlink:href="https://github.com/conda-forge/des-eastlake-feedstock" xlink:title="des eastlake">
<ellipse fill="#fde725" stroke="black" cx="671.68" cy="-422" rx="73.3" ry="18"/>
<text text-anchor="middle" x="671.68" y="-417.32" font-family="Times,serif" font-size="14.00">des eastlake</text>
</a>
</g>
</g>
<!-- healpy&#45;&gt;des&#45;eastlake -->
<g id="edge7" class="edge">
<title>healpy&#45;&gt;des&#45;eastlake</title>
<path fill="none" stroke="black" d="M613.19,-550.56C626.86,-541.25 643.04,-527.92 652.68,-512 663.71,-493.8 668.39,-470.11 670.36,-451.75"/>
<polygon fill="black" stroke="black" points="673.84,-452.05 671.18,-441.8 666.87,-451.47 673.84,-452.05"/>
</g>
<!-- lalpulsar&#45;&gt;lalapps -->
<g id="edge8" class="edge">
<title>lalpulsar&#45;&gt;lalapps</title>
<path fill="none" stroke="black" d="M572.33,-476.41C563.7,-467.66 552.95,-456.75 543.42,-447.08"/>
<polygon fill="black" stroke="black" points="546.02,-444.73 536.5,-440.07 541.03,-449.64 546.02,-444.73"/>
</g>
<!-- wcslib -->
<g id="node11" class="node">
<title>wcslib</title>
<g id="a_node11"><a xlink:href="https://github.com/conda-forge/wcslib-feedstock" xlink:title="wcslib">
<ellipse fill="#35b779" stroke="black" cx="185.68" cy="-566" rx="42.79" ry="18"/>
<text text-anchor="middle" x="185.68" y="-561.33" font-family="Times,serif" font-size="14.00">wcslib</text>
</a>
</g>
</g>
<!-- wcslib&#45;&gt;casacore -->
<g id="edge9" class="edge">
<title>wcslib&#45;&gt;casacore</title>
<path fill="none" stroke="black" d="M207.31,-550.15C221.26,-540.58 239.65,-527.96 255.32,-517.21"/>
<polygon fill="black" stroke="black" points="257.15,-520.2 263.42,-511.65 253.19,-514.43 257.15,-520.2"/>
</g>
<!-- wcslib&#45;&gt;rubinenv -->
<g id="edge10" class="edge">
<title>wcslib&#45;&gt;rubinenv</title>
<path fill="none" stroke="black" d="M227.32,-560.99C309.03,-552.96 496.1,-533.79 652.68,-512 666.78,-510.04 681.91,-507.68 696.13,-505.36"/>
<polygon fill="black" stroke="black" points="696.5,-508.84 705.8,-503.75 695.36,-501.93 696.5,-508.84"/>
</g>
<!-- astrometry -->
<g id="node12" class="node">
<title>astrometry</title>
<g id="a_node12"><a xlink:href="https://github.com/conda-forge/astrometry-feedstock" xlink:title="astrometry">
<ellipse fill="#fde725" stroke="black" cx="261.68" cy="-422" rx="66.99" ry="18"/>
<text text-anchor="middle" x="261.68" y="-417.32" font-family="Times,serif" font-size="14.00">astrometry</text>
</a>
</g>
</g>
<!-- wcslib&#45;&gt;astrometry -->
<g id="edge11" class="edge">
<title>wcslib&#45;&gt;astrometry</title>
<path fill="none" stroke="black" d="M191.76,-547.74C198.51,-529.42 210.25,-499.86 223.68,-476 228.79,-466.92 235.14,-457.53 241.17,-449.21"/>
<polygon fill="black" stroke="black" points="243.94,-451.35 247.11,-441.24 238.33,-447.17 243.94,-451.35"/>
</g>
<!-- gnuastro -->
<g id="node13" class="node">
<title>gnuastro</title>
<g id="a_node13"><a xlink:href="https://github.com/conda-forge/gnuastro-feedstock" xlink:title="gnuastro">
<ellipse fill="#fde725" stroke="black" cx="189.68" cy="-350" rx="55.94" ry="18"/>
<text text-anchor="middle" x="189.68" y="-345.32" font-family="Times,serif" font-size="14.00">gnuastro</text>
</a>
</g>
</g>
<!-- wcslib&#45;&gt;gnuastro -->
<g id="edge12" class="edge">
<title>wcslib&#45;&gt;gnuastro</title>
<path fill="none" stroke="black" d="M185.25,-547.6C184.62,-518.06 183.71,-456.23 185.68,-404 185.98,-396.04 186.53,-387.42 187.14,-379.49"/>
<polygon fill="black" stroke="black" points="190.61,-379.93 187.93,-369.68 183.63,-379.36 190.61,-379.93"/>
</g>
<!-- cpl -->
<g id="node14" class="node">
<title>cpl</title>
<g id="a_node14"><a xlink:href="https://github.com/conda-forge/cpl-feedstock" xlink:title="cpl">
<ellipse fill="#fde725" stroke="black" cx="105.68" cy="-278" rx="27" ry="18"/>
<text text-anchor="middle" x="105.68" y="-273.32" font-family="Times,serif" font-size="14.00">cpl</text>
</a>
</g>
</g>
<!-- wcslib&#45;&gt;cpl -->
<g id="edge13" class="edge">
<title>wcslib&#45;&gt;cpl</title>
<path fill="none" stroke="black" d="M179.77,-547.76C168.21,-513.69 142.22,-435.21 124.68,-368 119.43,-347.88 114.56,-324.92 111.06,-307.36"/>
<polygon fill="black" stroke="black" points="114.52,-306.8 109.16,-297.65 107.65,-308.14 114.52,-306.8"/>
</g>
<!-- lenstool -->
<g id="node15" class="node">
<title>lenstool</title>
<g id="a_node15"><a xlink:href="https://github.com/conda-forge/lenstool-feedstock" xlink:title="lenstool">
<ellipse fill="#fde725" stroke="black" cx="50.68" cy="-206" rx="50.68" ry="18"/>
<text text-anchor="middle" x="50.68" y="-201.32" font-family="Times,serif" font-size="14.00">lenstool</text>
</a>
</g>
</g>
<!-- wcslib&#45;&gt;lenstool -->
<g id="edge14" class="edge">
<title>wcslib&#45;&gt;lenstool</title>
<path fill="none" stroke="black" d="M158.36,-551.78C118.92,-530.56 50.68,-484.91 50.68,-423 50.68,-423 50.68,-423 50.68,-349 50.68,-309.74 50.68,-264.38 50.68,-235.69"/>
<polygon fill="black" stroke="black" points="54.18,-236 50.68,-226 47.18,-236 54.18,-236"/>
</g>
<!-- root -->
<g id="node17" class="node">
<title>root</title>
<g id="a_node17"><a xlink:href="https://github.com/conda-forge/root-feedstock" xlink:title="root">
<ellipse fill="#35b779" stroke="black" cx="976.68" cy="-494" rx="31.74" ry="18"/>
<text text-anchor="middle" x="976.68" y="-489.32" font-family="Times,serif" font-size="14.00">root</text>
</a>
</g>
</g>
<!-- numcosmo&#45;&gt;root -->
<!-- libvips -->
<g id="node19" class="node">
<title>libvips</title>
<g id="a_node19"><a xlink:href="https://github.com/conda-forge/libvips-feedstock" xlink:title="libvips">
<ellipse fill="#35b779" stroke="black" cx="976.68" cy="-422" rx="44.37" ry="18"/>
<text text-anchor="middle" x="976.68" y="-417.32" font-family="Times,serif" font-size="14.00">libvips</text>
</a>
</g>
</g>
<!-- root&#45;&gt;libvips -->
<!-- chealpix -->
<g id="node18" class="node">
<title>chealpix</title>
<g id="a_node18"><a xlink:href="https://github.com/conda-forge/chealpix-feedstock" xlink:title="chealpix">
<ellipse fill="#35b779" stroke="black" cx="418.68" cy="-566" rx="52.79" ry="18"/>
<text text-anchor="middle" x="418.68" y="-561.33" font-family="Times,serif" font-size="14.00">chealpix</text>
</a>
</g>
</g>
<!-- chealpix&#45;&gt;namaster -->
<g id="edge17" class="edge">
<title>chealpix&#45;&gt;namaster</title>
<path fill="none" stroke="black" d="M418.68,-547.7C418.68,-540.41 418.68,-531.73 418.68,-523.54"/>
<polygon fill="black" stroke="black" points="422.18,-523.62 418.68,-513.62 415.18,-523.62 422.18,-523.62"/>
</g>
<!-- astromatic&#45;source&#45;extractor -->
<g id="node22" class="node">
<title>astromatic&#45;source&#45;extractor</title>
<g id="a_node22"><a xlink:href="https://github.com/conda-forge/astromatic-source-extractor-feedstock" xlink:title="astromatic source extractor">
<ellipse fill="#35b779" stroke="black" cx="976.68" cy="-350" rx="150.64" ry="18"/>
<text text-anchor="middle" x="976.68" y="-345.32" font-family="Times,serif" font-size="14.00">astromatic source extractor</text>
</a>
</g>
</g>
<!-- libvips&#45;&gt;astromatic&#45;source&#45;extractor -->
<!-- photospline -->
<g id="node20" class="node">
<title>photospline</title>
<g id="a_node20"><a xlink:href="https://github.com/conda-forge/photospline-feedstock" xlink:title="photospline">
<ellipse fill="#35b779" stroke="black" cx="408.68" cy="-90" rx="69.62" ry="18"/>
<text text-anchor="middle" x="408.68" y="-85.33" font-family="Times,serif" font-size="14.00">photospline</text>
</a>
</g>
</g>
<!-- nuflux -->
<g id="node21" class="node">
<title>nuflux</title>
<g id="a_node21"><a xlink:href="https://github.com/conda-forge/nuflux-feedstock" xlink:title="nuflux">
<ellipse fill="#fde725" stroke="black" cx="408.68" cy="-18" rx="42.26" ry="18"/>
<text text-anchor="middle" x="408.68" y="-13.32" font-family="Times,serif" font-size="14.00">nuflux</text>
</a>
</g>
</g>
<!-- photospline&#45;&gt;nuflux -->
<g id="edge19" class="edge">
<title>photospline&#45;&gt;nuflux</title>
<path fill="none" stroke="black" d="M408.68,-71.7C408.68,-64.41 408.68,-55.73 408.68,-47.54"/>
<polygon fill="black" stroke="black" points="412.18,-47.62 408.68,-37.62 405.18,-47.62 412.18,-47.62"/>
</g>
<!-- hstcal -->
<g id="node23" class="node">
<title>hstcal</title>
<g id="a_node23"><a xlink:href="https://github.com/conda-forge/hstcal-feedstock" xlink:title="hstcal">
<ellipse fill="#35b779" stroke="black" cx="976.68" cy="-278" rx="41.21" ry="18"/>
<text text-anchor="middle" x="976.68" y="-273.32" font-family="Times,serif" font-size="14.00">hstcal</text>
</a>
</g>
</g>
<!-- astromatic&#45;source&#45;extractor&#45;&gt;hstcal -->
<!-- disperse -->
<g id="node27" class="node">
<title>disperse</title>
<g id="a_node27"><a xlink:href="https://github.com/conda-forge/disperse-feedstock" xlink:title="disperse">
<ellipse fill="#35b779" stroke="black" cx="976.68" cy="-206" rx="53.84" ry="18"/>
<text text-anchor="middle" x="976.68" y="-201.33" font-family="Times,serif" font-size="14.00">disperse</text>
</a>
</g>
</g>
<!-- hstcal&#45;&gt;disperse -->
<!-- tempo2 -->
<g id="node24" class="node">
<title>tempo2</title>
<g id="a_node24"><a xlink:href="https://github.com/conda-forge/tempo2-feedstock" xlink:title="tempo2">
<ellipse fill="#35b779" stroke="black" cx="1189.68" cy="-494" rx="49.1" ry="18"/>
<text text-anchor="middle" x="1189.68" y="-489.32" font-family="Times,serif" font-size="14.00">tempo2</text>
</a>
</g>
</g>
<!-- psrchive -->
<g id="node25" class="node">
<title>psrchive</title>
<g id="a_node25"><a xlink:href="https://github.com/conda-forge/psrchive-feedstock" xlink:title="psrchive">
<ellipse fill="#fde725" stroke="black" cx="1189.68" cy="-422" rx="53.84" ry="18"/>
<text text-anchor="middle" x="1189.68" y="-417.32" font-family="Times,serif" font-size="14.00">psrchive</text>
</a>
</g>
</g>
<!-- tempo2&#45;&gt;psrchive -->
<g id="edge22" class="edge">
<title>tempo2&#45;&gt;psrchive</title>
<path fill="none" stroke="black" d="M1189.68,-475.7C1189.68,-468.41 1189.68,-459.73 1189.68,-451.54"/>
<polygon fill="black" stroke="black" points="1193.18,-451.62 1189.68,-441.62 1186.18,-451.62 1193.18,-451.62"/>
</g>
<!-- dspsr -->
<g id="node26" class="node">
<title>dspsr</title>
<g id="a_node26"><a xlink:href="https://github.com/conda-forge/dspsr-feedstock" xlink:title="dspsr">
<ellipse fill="#fde725" stroke="black" cx="1189.68" cy="-350" rx="39.11" ry="18"/>
<text text-anchor="middle" x="1189.68" y="-345.32" font-family="Times,serif" font-size="14.00">dspsr</text>
</a>
</g>
</g>
<!-- psrchive&#45;&gt;dspsr -->
<g id="edge23" class="edge">
<title>psrchive&#45;&gt;dspsr</title>
<path fill="none" stroke="black" d="M1189.68,-403.7C1189.68,-396.41 1189.68,-387.73 1189.68,-379.54"/>
<polygon fill="black" stroke="black" points="1193.18,-379.62 1189.68,-369.62 1186.18,-379.62 1193.18,-379.62"/>
</g>
<!-- nvidia&#45;dali&#45;python -->
<g id="node29" class="node">
<title>nvidia&#45;dali&#45;python</title>
<g id="a_node29"><a xlink:href="https://github.com/conda-forge/nvidia-dali-python-feedstock" xlink:title="nvidia dali python">
<ellipse fill="#35b779" stroke="black" cx="976.68" cy="-134" rx="101.19" ry="18"/>
<text text-anchor="middle" x="976.68" y="-129.32" font-family="Times,serif" font-size="14.00">nvidia dali python</text>
</a>
</g>
</g>
<!-- disperse&#45;&gt;nvidia&#45;dali&#45;python -->
<!-- fitsverify -->
<g id="node28" class="node">
<title>fitsverify</title>
<g id="a_node28"><a xlink:href="https://github.com/conda-forge/fitsverify-feedstock" xlink:title="fitsverify">
<ellipse fill="#35b779" stroke="black" cx="724.68" cy="-638" rx="55.94" ry="18"/>
<text text-anchor="middle" x="724.68" y="-633.33" font-family="Times,serif" font-size="14.00">fitsverify</text>
</a>
</g>
</g>
<!-- fitsverify&#45;&gt;rubinenv -->
<g id="edge25" class="edge">
<title>fitsverify&#45;&gt;rubinenv</title>
<path fill="none" stroke="black" d="M728.33,-619.59C732.11,-601.64 738.22,-572.84 743.68,-548 745.45,-539.95 747.41,-531.23 749.22,-523.22"/>
<polygon fill="black" stroke="black" points="752.6,-524.18 751.4,-513.65 745.77,-522.62 752.6,-524.18"/>
</g>
</g>
</svg>
