<?xml version="1.0" encoding="UTF-8" standalone="no"?>
<!DOCTYPE svg PUBLIC "-//W3C//DTD SVG 1.1//EN"
 "http://www.w3.org/Graphics/SVG/1.1/DTD/svg11.dtd">
<!-- Generated by graphviz version 13.1.2 (20250809.0930)
 -->
<!-- Pages: 1 -->
<svg width="1184pt" height="952pt"
 viewBox="0.00 0.00 1184.00 952.00" xmlns="http://www.w3.org/2000/svg" xmlns:xlink="http://www.w3.org/1999/xlink">
<g id="graph0" class="graph" transform="scale(1 1) rotate(0) translate(4 948)">
<polygon fill="white" stroke="none" points="-4,4 -4,-948 1179.95,-948 1179.95,4 -4,4"/>
<!-- casacore -->
<g id="node1" class="node">
<title>casacore</title>
<g id="a_node1"><a xlink:href="https://github.com/conda-forge/casacore-feedstock" xlink:title="casacore">
<ellipse fill="#fde725" stroke="black" cx="386.64" cy="-674" rx="54.89" ry="18"/>
<text xml:space="preserve" text-anchor="middle" x="386.64" y="-669.33" font-family="Times,serif" font-size="14.00">casacore</text>
</a>
</g>
</g>
<!-- casacpp -->
<g id="node2" class="node">
<title>casacpp</title>
<g id="a_node2"><a xlink:href="https://github.com/conda-forge/casacpp-feedstock" xlink:title="casacpp">
<ellipse fill="#fde725" stroke="black" cx="359.64" cy="-602" rx="51.21" ry="18"/>
<text xml:space="preserve" text-anchor="middle" x="359.64" y="-597.33" font-family="Times,serif" font-size="14.00">casacpp</text>
</a>
</g>
</g>
<!-- casacore&#45;&gt;casacpp -->
<g id="edge1" class="edge">
<title>casacore&#45;&gt;casacpp</title>
<path fill="none" stroke="black" d="M379.97,-655.7C377.06,-648.15 373.57,-639.12 370.32,-630.68"/>
<polygon fill="black" stroke="black" points="373.65,-629.59 366.78,-621.52 367.12,-632.11 373.65,-629.59"/>
</g>
<!-- gdal -->
<g id="node3" class="node">
<title>gdal</title>
<g id="a_node3"><a xlink:href="https://github.com/conda-forge/gdal-feedstock" xlink:title="gdal">
<ellipse fill="#000000" stroke="black" cx="150.64" cy="-926" rx="32.79" ry="18"/>
<text xml:space="preserve" text-anchor="middle" x="150.64" y="-921.33" font-family="Times,serif" font-size="14.00" fill="white">gdal</text>
</a>
</g>
</g>
<!-- healpix_cxx -->
<g id="node4" class="node">
<title>healpix_cxx</title>
<g id="a_node4"><a xlink:href="https://github.com/conda-forge/healpix_cxx-feedstock" xlink:title="healpix_cxx">
<ellipse fill="#35b779" stroke="black" cx="150.64" cy="-854" rx="69.1" ry="18"/>
<text xml:space="preserve" text-anchor="middle" x="150.64" y="-849.33" font-family="Times,serif" font-size="14.00">healpix_cxx</text>
</a>
</g>
</g>
<!-- gdal&#45;&gt;healpix_cxx -->
<!-- ccfits -->
<g id="node5" class="node">
<title>ccfits</title>
<g id="a_node5"><a xlink:href="https://github.com/conda-forge/ccfits-feedstock" xlink:title="ccfits">
<ellipse fill="#35b779" stroke="black" cx="150.64" cy="-782" rx="37.53" ry="18"/>
<text xml:space="preserve" text-anchor="middle" x="150.64" y="-777.33" font-family="Times,serif" font-size="14.00">ccfits</text>
</a>
</g>
</g>
<!-- healpix_cxx&#45;&gt;ccfits -->
<!-- numcosmo -->
<g id="node16" class="node">
<title>numcosmo</title>
<g id="a_node16"><a xlink:href="https://github.com/conda-forge/numcosmo-feedstock" xlink:title="numcosmo">
<ellipse fill="#35b779" stroke="black" cx="150.64" cy="-710" rx="64.89" ry="18"/>
<text xml:space="preserve" text-anchor="middle" x="150.64" y="-705.33" font-family="Times,serif" font-size="14.00">numcosmo</text>
</a>
</g>
</g>
<!-- ccfits&#45;&gt;numcosmo -->
<!-- healpy -->
<g id="node6" class="node">
<title>healpy</title>
<g id="a_node6"><a xlink:href="https://github.com/conda-forge/healpy-feedstock/pull/82" xlink:title="healpy ❎">
<ellipse fill="#31688e" stroke="black" cx="1013.64" cy="-638" rx="59.63" ry="18"/>
<text xml:space="preserve" text-anchor="middle" x="1013.64" y="-633.33" font-family="Times,serif" font-size="14.00" fill="white">healpy ❎</text>
</a>
</g>
</g>
<!-- lalpulsar -->
<g id="node7" class="node">
<title>lalpulsar</title>
<g id="a_node7"><a xlink:href="https://github.com/conda-forge/lalpulsar-feedstock" xlink:title="lalpulsar">
<ellipse fill="#fde725" stroke="black" cx="964.64" cy="-566" rx="54.89" ry="18"/>
<text xml:space="preserve" text-anchor="middle" x="964.64" y="-561.33" font-family="Times,serif" font-size="14.00">lalpulsar</text>
</a>
</g>
</g>
<!-- healpy&#45;&gt;lalpulsar -->
<g id="edge4" class="edge">
<title>healpy&#45;&gt;lalpulsar</title>
<path fill="none" stroke="black" d="M1001.78,-620.05C996.12,-611.97 989.23,-602.12 982.92,-593.11"/>
<polygon fill="black" stroke="black" points="985.87,-591.21 977.26,-585.03 980.13,-595.23 985.87,-591.21"/>
</g>
<!-- namaster -->
<g id="node8" class="node">
<title>namaster</title>
<g id="a_node8"><a xlink:href="https://github.com/conda-forge/namaster-feedstock" xlink:title="namaster">
<ellipse fill="#fde725" stroke="black" cx="833.64" cy="-566" rx="58.57" ry="18"/>
<text xml:space="preserve" text-anchor="middle" x="833.64" y="-561.33" font-family="Times,serif" font-size="14.00">namaster</text>
</a>
</g>
</g>
<!-- healpy&#45;&gt;namaster -->
<g id="edge5" class="edge">
<title>healpy&#45;&gt;namaster</title>
<path fill="none" stroke="black" d="M978.08,-623.17C949.76,-612.16 909.92,-596.66 879.26,-584.74"/>
<polygon fill="black" stroke="black" points="880.82,-581.59 870.24,-581.23 878.29,-588.12 880.82,-581.59"/>
</g>
<!-- lalapps -->
<g id="node9" class="node">
<title>lalapps</title>
<g id="a_node9"><a xlink:href="https://github.com/conda-forge/lalapps-feedstock" xlink:title="lalapps">
<ellipse fill="#fde725" stroke="black" cx="964.64" cy="-494" rx="47" ry="18"/>
<text xml:space="preserve" text-anchor="middle" x="964.64" y="-489.32" font-family="Times,serif" font-size="14.00">lalapps</text>
</a>
</g>
</g>
<!-- healpy&#45;&gt;lalapps -->
<g id="edge6" class="edge">
<title>healpy&#45;&gt;lalapps</title>
<path fill="none" stroke="black" d="M1022.3,-619.79C1030.35,-601.24 1039.58,-571.25 1028.64,-548 1022.55,-535.05 1011.57,-524.17 1000.4,-515.71"/>
<polygon fill="black" stroke="black" points="1002.52,-512.92 992.32,-510.05 998.5,-518.65 1002.52,-512.92"/>
</g>
<!-- des&#45;eastlake -->
<g id="node10" class="node">
<title>des&#45;eastlake</title>
<g id="a_node10"><a xlink:href="https://github.com/conda-forge/des-eastlake-feedstock" xlink:title="des eastlake">
<ellipse fill="#fde725" stroke="black" cx="1102.64" cy="-494" rx="73.3" ry="18"/>
<text xml:space="preserve" text-anchor="middle" x="1102.64" y="-489.32" font-family="Times,serif" font-size="14.00">des eastlake</text>
</a>
</g>
</g>
<!-- healpy&#45;&gt;des&#45;eastlake -->
<g id="edge7" class="edge">
<title>healpy&#45;&gt;des&#45;eastlake</title>
<path fill="none" stroke="black" d="M1024.38,-619.87C1039.68,-595.46 1067.9,-550.43 1085.95,-521.64"/>
<polygon fill="black" stroke="black" points="1088.72,-523.8 1091.07,-513.47 1082.79,-520.09 1088.72,-523.8"/>
</g>
<!-- lalpulsar&#45;&gt;lalapps -->
<g id="edge8" class="edge">
<title>lalpulsar&#45;&gt;lalapps</title>
<path fill="none" stroke="black" d="M964.64,-547.7C964.64,-540.41 964.64,-531.73 964.64,-523.54"/>
<polygon fill="black" stroke="black" points="968.14,-523.62 964.64,-513.62 961.14,-523.62 968.14,-523.62"/>
</g>
<!-- wcslib -->
<g id="node11" class="node">
<title>wcslib</title>
<g id="a_node11"><a xlink:href="https://github.com/conda-forge/wcslib-feedstock/pull/38" xlink:title="wcslib ❎">
<ellipse fill="#31688e" stroke="black" cx="590.64" cy="-746" rx="58.05" ry="18"/>
<text xml:space="preserve" text-anchor="middle" x="590.64" y="-741.33" font-family="Times,serif" font-size="14.00" fill="white">wcslib ❎</text>
</a>
</g>
</g>
<!-- wcslib&#45;&gt;casacore -->
<g id="edge9" class="edge">
<title>wcslib&#45;&gt;casacore</title>
<path fill="none" stroke="black" d="M552.75,-732C519.33,-720.53 470.48,-703.77 434.4,-691.39"/>
<polygon fill="black" stroke="black" points="435.67,-688.12 425.08,-688.19 433.4,-694.74 435.67,-688.12"/>
</g>
<!-- astrometry -->
<g id="node12" class="node">
<title>astrometry</title>
<g id="a_node12"><a xlink:href="https://github.com/conda-forge/astrometry-feedstock" xlink:title="astrometry">
<ellipse fill="#fde725" stroke="black" cx="495.64" cy="-602" rx="66.99" ry="18"/>
<text xml:space="preserve" text-anchor="middle" x="495.64" y="-597.33" font-family="Times,serif" font-size="14.00">astrometry</text>
</a>
</g>
</g>
<!-- wcslib&#45;&gt;astrometry -->
<g id="edge10" class="edge">
<title>wcslib&#45;&gt;astrometry</title>
<path fill="none" stroke="black" d="M579.18,-727.87C562.85,-703.46 532.72,-658.43 513.46,-629.64"/>
<polygon fill="black" stroke="black" points="516.45,-627.81 507.98,-621.45 510.64,-631.7 516.45,-627.81"/>
</g>
<!-- gnuastro -->
<g id="node13" class="node">
<title>gnuastro</title>
<g id="a_node13"><a xlink:href="https://github.com/conda-forge/gnuastro-feedstock" xlink:title="gnuastro">
<ellipse fill="#fde725" stroke="black" cx="567.64" cy="-530" rx="55.94" ry="18"/>
<text xml:space="preserve" text-anchor="middle" x="567.64" y="-525.33" font-family="Times,serif" font-size="14.00">gnuastro</text>
</a>
</g>
</g>
<!-- wcslib&#45;&gt;gnuastro -->
<g id="edge11" class="edge">
<title>wcslib&#45;&gt;gnuastro</title>
<path fill="none" stroke="black" d="M588.8,-727.85C584.85,-691.14 575.56,-604.66 570.71,-559.53"/>
<polygon fill="black" stroke="black" points="574.21,-559.31 569.66,-549.74 567.25,-560.05 574.21,-559.31"/>
</g>
<!-- cpl -->
<g id="node14" class="node">
<title>cpl</title>
<g id="a_node14"><a xlink:href="https://github.com/conda-forge/cpl-feedstock" xlink:title="cpl">
<ellipse fill="#fde725" stroke="black" cx="651.64" cy="-458" rx="27" ry="18"/>
<text xml:space="preserve" text-anchor="middle" x="651.64" y="-453.32" font-family="Times,serif" font-size="14.00">cpl</text>
</a>
</g>
</g>
<!-- wcslib&#45;&gt;cpl -->
<g id="edge12" class="edge">
<title>wcslib&#45;&gt;cpl</title>
<path fill="none" stroke="black" d="M594.37,-727.54C604.58,-679.66 633.1,-545.95 645.62,-487.24"/>
<polygon fill="black" stroke="black" points="648.99,-488.22 647.65,-477.71 642.14,-486.76 648.99,-488.22"/>
</g>
<!-- lenstool -->
<g id="node15" class="node">
<title>lenstool</title>
<g id="a_node15"><a xlink:href="https://github.com/conda-forge/lenstool-feedstock" xlink:title="lenstool">
<ellipse fill="#fde725" stroke="black" cx="706.64" cy="-386" rx="50.68" ry="18"/>
<text xml:space="preserve" text-anchor="middle" x="706.64" y="-381.32" font-family="Times,serif" font-size="14.00">lenstool</text>
</a>
</g>
</g>
<!-- wcslib&#45;&gt;lenstool -->
<g id="edge13" class="edge">
<title>wcslib&#45;&gt;lenstool</title>
<path fill="none" stroke="black" d="M616.1,-729.46C650.25,-706.44 706.64,-659.82 706.64,-603 706.64,-603 706.64,-603 706.64,-529 706.64,-489.74 706.64,-444.38 706.64,-415.69"/>
<polygon fill="black" stroke="black" points="710.14,-416 706.64,-406 703.14,-416 710.14,-416"/>
</g>
<!-- root -->
<g id="node17" class="node">
<title>root</title>
<g id="a_node17"><a xlink:href="https://github.com/conda-forge/root-feedstock/pull/318" xlink:title="root ❎">
<ellipse fill="#31688e" stroke="black" cx="150.64" cy="-638" rx="47" ry="18"/>
<text xml:space="preserve" text-anchor="middle" x="150.64" y="-633.33" font-family="Times,serif" font-size="14.00" fill="white">root ❎</text>
</a>
</g>
</g>
<!-- numcosmo&#45;&gt;root -->
<!-- libvips -->
<g id="node19" class="node">
<title>libvips</title>
<g id="a_node19"><a xlink:href="https://github.com/conda-forge/libvips-feedstock" xlink:title="libvips">
<ellipse fill="#35b779" stroke="black" cx="150.64" cy="-566" rx="44.37" ry="18"/>
<text xml:space="preserve" text-anchor="middle" x="150.64" y="-561.33" font-family="Times,serif" font-size="14.00">libvips</text>
</a>
</g>
</g>
<!-- root&#45;&gt;libvips -->
<!-- chealpix -->
<g id="node18" class="node">
<title>chealpix</title>
<g id="a_node18"><a xlink:href="https://github.com/conda-forge/chealpix-feedstock/pull/18" xlink:title="chealpix ❎">
<ellipse fill="#31688e" stroke="black" cx="833.64" cy="-638" rx="68.04" ry="18"/>
<text xml:space="preserve" text-anchor="middle" x="833.64" y="-633.33" font-family="Times,serif" font-size="14.00" fill="white">chealpix ❎</text>
</a>
</g>
</g>
<!-- chealpix&#45;&gt;namaster -->
<g id="edge16" class="edge">
<title>chealpix&#45;&gt;namaster</title>
<path fill="none" stroke="black" d="M833.64,-619.7C833.64,-612.41 833.64,-603.73 833.64,-595.54"/>
<polygon fill="black" stroke="black" points="837.14,-595.62 833.64,-585.62 830.14,-595.62 837.14,-595.62"/>
</g>
<!-- astromatic&#45;source&#45;extractor -->
<g id="node22" class="node">
<title>astromatic&#45;source&#45;extractor</title>
<g id="a_node22"><a xlink:href="https://github.com/conda-forge/astromatic-source-extractor-feedstock" xlink:title="astromatic source extractor">
<ellipse fill="#35b779" stroke="black" cx="150.64" cy="-494" rx="150.64" ry="18"/>
<text xml:space="preserve" text-anchor="middle" x="150.64" y="-489.32" font-family="Times,serif" font-size="14.00">astromatic source extractor</text>
</a>
</g>
</g>
<!-- libvips&#45;&gt;astromatic&#45;source&#45;extractor -->
<!-- photospline -->
<g id="node20" class="node">
<title>photospline</title>
<g id="a_node20"><a xlink:href="https://github.com/conda-forge/photospline-feedstock" xlink:title="photospline">
<ellipse fill="#35b779" stroke="black" cx="533.64" cy="-126" rx="69.62" ry="18"/>
<text xml:space="preserve" text-anchor="middle" x="533.64" y="-121.33" font-family="Times,serif" font-size="14.00">photospline</text>
</a>
</g>
</g>
<!-- nuflux -->
<g id="node21" class="node">
<title>nuflux</title>
<g id="a_node21"><a xlink:href="https://github.com/conda-forge/nuflux-feedstock" xlink:title="nuflux">
<ellipse fill="#fde725" stroke="black" cx="533.64" cy="-54" rx="42.26" ry="18"/>
<text xml:space="preserve" text-anchor="middle" x="533.64" y="-49.33" font-family="Times,serif" font-size="14.00">nuflux</text>
</a>
</g>
</g>
<!-- photospline&#45;&gt;nuflux -->
<g id="edge18" class="edge">
<title>photospline&#45;&gt;nuflux</title>
<path fill="none" stroke="black" d="M533.64,-107.7C533.64,-100.41 533.64,-91.73 533.64,-83.54"/>
<polygon fill="black" stroke="black" points="537.14,-83.62 533.64,-73.62 530.14,-83.62 537.14,-83.62"/>
</g>
<!-- hstcal -->
<g id="node23" class="node">
<title>hstcal</title>
<g id="a_node23"><a xlink:href="https://github.com/conda-forge/hstcal-feedstock" xlink:title="hstcal">
<ellipse fill="#35b779" stroke="black" cx="150.64" cy="-422" rx="41.21" ry="18"/>
<text xml:space="preserve" text-anchor="middle" x="150.64" y="-417.32" font-family="Times,serif" font-size="14.00">hstcal</text>
</a>
</g>
</g>
<!-- astromatic&#45;source&#45;extractor&#45;&gt;hstcal -->
<!-- fitsverify -->
<g id="node27" class="node">
<title>fitsverify</title>
<g id="a_node27"><a xlink:href="https://github.com/conda-forge/fitsverify-feedstock" xlink:title="fitsverify">
<ellipse fill="#35b779" stroke="black" cx="150.64" cy="-350" rx="55.94" ry="18"/>
<text xml:space="preserve" text-anchor="middle" x="150.64" y="-345.32" font-family="Times,serif" font-size="14.00">fitsverify</text>
</a>
</g>
</g>
<!-- hstcal&#45;&gt;fitsverify -->
<!-- tempo2 -->
<g id="node24" class="node">
<title>tempo2</title>
<g id="a_node24"><a xlink:href="https://github.com/conda-forge/tempo2-feedstock" xlink:title="tempo2">
<ellipse fill="#35b779" stroke="black" cx="150.64" cy="-162" rx="49.1" ry="18"/>
<text xml:space="preserve" text-anchor="middle" x="150.64" y="-157.32" font-family="Times,serif" font-size="14.00">tempo2</text>
</a>
</g>
</g>
<!-- psrchive -->
<g id="node25" class="node">
<title>psrchive</title>
<g id="a_node25"><a xlink:href="https://github.com/conda-forge/psrchive-feedstock" xlink:title="psrchive">
<ellipse fill="#fde725" stroke="black" cx="150.64" cy="-90" rx="53.84" ry="18"/>
<text xml:space="preserve" text-anchor="middle" x="150.64" y="-85.33" font-family="Times,serif" font-size="14.00">psrchive</text>
</a>
</g>
</g>
<!-- tempo2&#45;&gt;psrchive -->
<g id="edge21" class="edge">
<title>tempo2&#45;&gt;psrchive</title>
<path fill="none" stroke="black" d="M150.64,-143.7C150.64,-136.41 150.64,-127.73 150.64,-119.54"/>
<polygon fill="black" stroke="black" points="154.14,-119.62 150.64,-109.62 147.14,-119.62 154.14,-119.62"/>
</g>
<!-- dspsr -->
<g id="node26" class="node">
<title>dspsr</title>
<g id="a_node26"><a xlink:href="https://github.com/conda-forge/dspsr-feedstock" xlink:title="dspsr">
<ellipse fill="#fde725" stroke="black" cx="150.64" cy="-18" rx="39.11" ry="18"/>
<text xml:space="preserve" text-anchor="middle" x="150.64" y="-13.32" font-family="Times,serif" font-size="14.00">dspsr</text>
</a>
</g>
</g>
<!-- psrchive&#45;&gt;dspsr -->
<g id="edge22" class="edge">
<title>psrchive&#45;&gt;dspsr</title>
<path fill="none" stroke="black" d="M150.64,-71.7C150.64,-64.41 150.64,-55.73 150.64,-47.54"/>
<polygon fill="black" stroke="black" points="154.14,-47.62 150.64,-37.62 147.14,-47.62 154.14,-47.62"/>
</g>
<!-- disperse -->
<g id="node28" class="node">
<title>disperse</title>
<g id="a_node28"><a xlink:href="https://github.com/conda-forge/disperse-feedstock" xlink:title="disperse">
<ellipse fill="#35b779" stroke="black" cx="150.64" cy="-278" rx="53.84" ry="18"/>
<text xml:space="preserve" text-anchor="middle" x="150.64" y="-273.32" font-family="Times,serif" font-size="14.00">disperse</text>
</a>
</g>
</g>
<!-- fitsverify&#45;&gt;disperse -->
<!-- nvidia&#45;dali&#45;python -->
<g id="node29" class="node">
<title>nvidia&#45;dali&#45;python</title>
<g id="a_node29"><a xlink:href="https://github.com/conda-forge/nvidia-dali-python-feedstock" xlink:title="nvidia dali python">
<ellipse fill="#35b779" stroke="black" cx="150.64" cy="-206" rx="101.19" ry="18"/>
<text xml:space="preserve" text-anchor="middle" x="150.64" y="-201.32" font-family="Times,serif" font-size="14.00">nvidia dali python</text>
</a>
</g>
</g>
<!-- disperse&#45;&gt;nvidia&#45;dali&#45;python -->
</g>
</svg>
