<?xml version="1.0" encoding="UTF-8" standalone="no"?>
<!DOCTYPE svg PUBLIC "-//W3C//DTD SVG 1.1//EN"
 "http://www.w3.org/Graphics/SVG/1.1/DTD/svg11.dtd">
<!-- Generated by graphviz version 13.1.2 (20250809.0930)
 -->
<!-- Pages: 1 -->
<svg width="1207pt" height="952pt"
 viewBox="0.00 0.00 1207.00 952.00" xmlns="http://www.w3.org/2000/svg" xmlns:xlink="http://www.w3.org/1999/xlink">
<g id="graph0" class="graph" transform="scale(1 1) rotate(0) translate(4 948)">
<polygon fill="white" stroke="none" points="-4,4 -4,-948 1203.2,-948 1203.2,4 -4,4"/>
<!-- casacore -->
<g id="node1" class="node">
<title>casacore</title>
<g id="a_node1"><a xlink:href="https://github.com/conda-forge/casacore-feedstock" xlink:title="casacore">
<ellipse fill="#fde725" stroke="black" cx="417.9" cy="-674" rx="54.89" ry="18"/>
<text xml:space="preserve" text-anchor="middle" x="417.9" y="-669.33" font-family="Times,serif" font-size="14.00">casacore</text>
</a>
</g>
</g>
<!-- casacpp -->
<g id="node2" class="node">
<title>casacpp</title>
<g id="a_node2"><a xlink:href="https://github.com/conda-forge/casacpp-feedstock" xlink:title="casacpp">
<ellipse fill="#fde725" stroke="black" cx="390.9" cy="-602" rx="51.21" ry="18"/>
<text xml:space="preserve" text-anchor="middle" x="390.9" y="-597.33" font-family="Times,serif" font-size="14.00">casacpp</text>
</a>
</g>
</g>
<!-- casacore&#45;&gt;casacpp -->
<g id="edge1" class="edge">
<title>casacore&#45;&gt;casacpp</title>
<path fill="none" stroke="black" d="M411.23,-655.7C408.32,-648.15 404.83,-639.12 401.58,-630.68"/>
<polygon fill="black" stroke="black" points="404.91,-629.59 398.04,-621.52 398.38,-632.11 404.91,-629.59"/>
</g>
<!-- gdal -->
<g id="node3" class="node">
<title>gdal</title>
<g id="a_node3"><a xlink:href="https://github.com/conda-forge/gdal-feedstock" xlink:title="gdal">
<ellipse fill="#000000" stroke="black" cx="165.9" cy="-926" rx="32.79" ry="18"/>
<text xml:space="preserve" text-anchor="middle" x="165.9" y="-921.33" font-family="Times,serif" font-size="14.00" fill="white">gdal</text>
</a>
</g>
</g>
<!-- healpix_cxx -->
<g id="node4" class="node">
<title>healpix_cxx</title>
<g id="a_node4"><a xlink:href="https://github.com/conda-forge/healpix_cxx-feedstock/pull/38" xlink:title="healpix_cxx ✓">
<ellipse fill="#31688e" stroke="black" cx="165.9" cy="-854" rx="76.99" ry="18"/>
<text xml:space="preserve" text-anchor="middle" x="165.9" y="-849.33" font-family="Times,serif" font-size="14.00" fill="white">healpix_cxx ✓</text>
</a>
</g>
</g>
<!-- gdal&#45;&gt;healpix_cxx -->
<!-- ccfits -->
<g id="node5" class="node">
<title>ccfits</title>
<g id="a_node5"><a xlink:href="https://github.com/conda-forge/ccfits-feedstock/pull/20" xlink:title="ccfits ❎">
<ellipse fill="#31688e" stroke="black" cx="165.9" cy="-782" rx="52.79" ry="18"/>
<text xml:space="preserve" text-anchor="middle" x="165.9" y="-777.33" font-family="Times,serif" font-size="14.00" fill="white">ccfits ❎</text>
</a>
</g>
</g>
<!-- healpix_cxx&#45;&gt;ccfits -->
<!-- numcosmo -->
<g id="node16" class="node">
<title>numcosmo</title>
<g id="a_node16"><a xlink:href="https://github.com/conda-forge/numcosmo-feedstock/pull/94" xlink:title="numcosmo ❎">
<ellipse fill="#31688e" stroke="black" cx="165.9" cy="-710" rx="80.14" ry="18"/>
<text xml:space="preserve" text-anchor="middle" x="165.9" y="-705.33" font-family="Times,serif" font-size="14.00" fill="white">numcosmo ❎</text>
</a>
</g>
</g>
<!-- ccfits&#45;&gt;numcosmo -->
<!-- healpy -->
<g id="node6" class="node">
<title>healpy</title>
<g id="a_node6"><a xlink:href="https://github.com/conda-forge/healpy-feedstock/pull/82" xlink:title="healpy ❎">
<ellipse fill="#31688e" stroke="black" cx="1032.9" cy="-638" rx="59.63" ry="18"/>
<text xml:space="preserve" text-anchor="middle" x="1032.9" y="-633.33" font-family="Times,serif" font-size="14.00" fill="white">healpy ❎</text>
</a>
</g>
</g>
<!-- lalpulsar -->
<g id="node7" class="node">
<title>lalpulsar</title>
<g id="a_node7"><a xlink:href="https://github.com/conda-forge/lalpulsar-feedstock" xlink:title="lalpulsar">
<ellipse fill="#fde725" stroke="black" cx="987.9" cy="-566" rx="54.89" ry="18"/>
<text xml:space="preserve" text-anchor="middle" x="987.9" y="-561.33" font-family="Times,serif" font-size="14.00">lalpulsar</text>
</a>
</g>
</g>
<!-- healpy&#45;&gt;lalpulsar -->
<g id="edge4" class="edge">
<title>healpy&#45;&gt;lalpulsar</title>
<path fill="none" stroke="black" d="M1022.01,-620.05C1016.87,-612.06 1010.61,-602.33 1004.87,-593.4"/>
<polygon fill="black" stroke="black" points="1007.86,-591.58 999.51,-585.06 1001.97,-595.37 1007.86,-591.58"/>
</g>
<!-- namaster -->
<g id="node8" class="node">
<title>namaster</title>
<g id="a_node8"><a xlink:href="https://github.com/conda-forge/namaster-feedstock" xlink:title="namaster">
<ellipse fill="#fde725" stroke="black" cx="856.9" cy="-566" rx="58.57" ry="18"/>
<text xml:space="preserve" text-anchor="middle" x="856.9" y="-561.33" font-family="Times,serif" font-size="14.00">namaster</text>
</a>
</g>
</g>
<!-- healpy&#45;&gt;namaster -->
<g id="edge5" class="edge">
<title>healpy&#45;&gt;namaster</title>
<path fill="none" stroke="black" d="M997.71,-623C970.28,-612.09 931.99,-596.86 902.26,-585.04"/>
<polygon fill="black" stroke="black" points="903.72,-581.86 893.14,-581.41 901.14,-588.36 903.72,-581.86"/>
</g>
<!-- lalapps -->
<g id="node9" class="node">
<title>lalapps</title>
<g id="a_node9"><a xlink:href="https://github.com/conda-forge/lalapps-feedstock" xlink:title="lalapps">
<ellipse fill="#fde725" stroke="black" cx="987.9" cy="-494" rx="47" ry="18"/>
<text xml:space="preserve" text-anchor="middle" x="987.9" y="-489.32" font-family="Times,serif" font-size="14.00">lalapps</text>
</a>
</g>
</g>
<!-- healpy&#45;&gt;lalapps -->
<g id="edge6" class="edge">
<title>healpy&#45;&gt;lalapps</title>
<path fill="none" stroke="black" d="M1042.77,-619.86C1052.03,-601.38 1062.93,-571.45 1051.9,-548 1045.81,-535.05 1034.83,-524.17 1023.66,-515.71"/>
<polygon fill="black" stroke="black" points="1025.77,-512.92 1015.58,-510.05 1021.76,-518.65 1025.77,-512.92"/>
</g>
<!-- des&#45;eastlake -->
<g id="node10" class="node">
<title>des&#45;eastlake</title>
<g id="a_node10"><a xlink:href="https://github.com/conda-forge/des-eastlake-feedstock" xlink:title="des eastlake">
<ellipse fill="#fde725" stroke="black" cx="1125.9" cy="-494" rx="73.3" ry="18"/>
<text xml:space="preserve" text-anchor="middle" x="1125.9" y="-489.32" font-family="Times,serif" font-size="14.00">des eastlake</text>
</a>
</g>
</g>
<!-- healpy&#45;&gt;des&#45;eastlake -->
<g id="edge7" class="edge">
<title>healpy&#45;&gt;des&#45;eastlake</title>
<path fill="none" stroke="black" d="M1043.96,-620.31C1050.86,-609.88 1059.92,-596.17 1067.9,-584 1081.6,-563.12 1097.04,-539.42 1108.54,-521.74"/>
<polygon fill="black" stroke="black" points="1111.47,-523.64 1113.99,-513.35 1105.6,-519.83 1111.47,-523.64"/>
</g>
<!-- lalpulsar&#45;&gt;lalapps -->
<g id="edge8" class="edge">
<title>lalpulsar&#45;&gt;lalapps</title>
<path fill="none" stroke="black" d="M987.9,-547.7C987.9,-540.41 987.9,-531.73 987.9,-523.54"/>
<polygon fill="black" stroke="black" points="991.4,-523.62 987.9,-513.62 984.4,-523.62 991.4,-523.62"/>
</g>
<!-- wcslib -->
<g id="node11" class="node">
<title>wcslib</title>
<g id="a_node11"><a xlink:href="https://github.com/conda-forge/wcslib-feedstock/pull/38" xlink:title="wcslib ✓">
<ellipse fill="#31688e" stroke="black" cx="621.9" cy="-746" rx="50.68" ry="18"/>
<text xml:space="preserve" text-anchor="middle" x="621.9" y="-741.33" font-family="Times,serif" font-size="14.00" fill="white">wcslib ✓</text>
</a>
</g>
</g>
<!-- wcslib&#45;&gt;casacore -->
<g id="edge9" class="edge">
<title>wcslib&#45;&gt;casacore</title>
<path fill="none" stroke="black" d="M586.37,-732.81C552.81,-721.29 502.25,-703.94 465.27,-691.25"/>
<polygon fill="black" stroke="black" points="466.77,-688.07 456.18,-688.13 464.5,-694.69 466.77,-688.07"/>
</g>
<!-- astrometry -->
<g id="node12" class="node">
<title>astrometry</title>
<g id="a_node12"><a xlink:href="https://github.com/conda-forge/astrometry-feedstock" xlink:title="astrometry">
<ellipse fill="#fde725" stroke="black" cx="526.9" cy="-602" rx="66.99" ry="18"/>
<text xml:space="preserve" text-anchor="middle" x="526.9" y="-597.33" font-family="Times,serif" font-size="14.00">astrometry</text>
</a>
</g>
</g>
<!-- wcslib&#45;&gt;astrometry -->
<g id="edge10" class="edge">
<title>wcslib&#45;&gt;astrometry</title>
<path fill="none" stroke="black" d="M610.63,-728.15C594.27,-703.71 563.81,-658.17 544.49,-629.29"/>
<polygon fill="black" stroke="black" points="547.47,-627.45 539,-621.08 541.65,-631.34 547.47,-627.45"/>
</g>
<!-- gnuastro -->
<g id="node13" class="node">
<title>gnuastro</title>
<g id="a_node13"><a xlink:href="https://github.com/conda-forge/gnuastro-feedstock" xlink:title="gnuastro">
<ellipse fill="#fde725" stroke="black" cx="598.9" cy="-530" rx="55.94" ry="18"/>
<text xml:space="preserve" text-anchor="middle" x="598.9" y="-525.33" font-family="Times,serif" font-size="14.00">gnuastro</text>
</a>
</g>
</g>
<!-- wcslib&#45;&gt;gnuastro -->
<g id="edge11" class="edge">
<title>wcslib&#45;&gt;gnuastro</title>
<path fill="none" stroke="black" d="M620.06,-727.85C616.11,-691.14 606.82,-604.66 601.97,-559.53"/>
<polygon fill="black" stroke="black" points="605.46,-559.31 600.91,-549.74 598.5,-560.05 605.46,-559.31"/>
</g>
<!-- cpl -->
<g id="node14" class="node">
<title>cpl</title>
<g id="a_node14"><a xlink:href="https://github.com/conda-forge/cpl-feedstock" xlink:title="cpl">
<ellipse fill="#fde725" stroke="black" cx="682.9" cy="-458" rx="27" ry="18"/>
<text xml:space="preserve" text-anchor="middle" x="682.9" y="-453.32" font-family="Times,serif" font-size="14.00">cpl</text>
</a>
</g>
</g>
<!-- wcslib&#45;&gt;cpl -->
<g id="edge12" class="edge">
<title>wcslib&#45;&gt;cpl</title>
<path fill="none" stroke="black" d="M625.53,-727.97C635.66,-680.49 664.28,-546.31 676.85,-487.36"/>
<polygon fill="black" stroke="black" points="680.23,-488.3 678.89,-477.79 673.38,-486.84 680.23,-488.3"/>
</g>
<!-- lenstool -->
<g id="node15" class="node">
<title>lenstool</title>
<g id="a_node15"><a xlink:href="https://github.com/conda-forge/lenstool-feedstock" xlink:title="lenstool">
<ellipse fill="#fde725" stroke="black" cx="737.9" cy="-386" rx="50.68" ry="18"/>
<text xml:space="preserve" text-anchor="middle" x="737.9" y="-381.32" font-family="Times,serif" font-size="14.00">lenstool</text>
</a>
</g>
</g>
<!-- wcslib&#45;&gt;lenstool -->
<g id="edge13" class="edge">
<title>wcslib&#45;&gt;lenstool</title>
<path fill="none" stroke="black" d="M646.78,-729.84C680.87,-706.96 737.9,-660.14 737.9,-603 737.9,-603 737.9,-603 737.9,-529 737.9,-489.74 737.9,-444.38 737.9,-415.69"/>
<polygon fill="black" stroke="black" points="741.4,-416 737.9,-406 734.4,-416 741.4,-416"/>
</g>
<!-- root -->
<g id="node17" class="node">
<title>root</title>
<g id="a_node17"><a xlink:href="https://github.com/conda-forge/root-feedstock/pull/318" xlink:title="root ❎">
<ellipse fill="#31688e" stroke="black" cx="165.9" cy="-638" rx="47" ry="18"/>
<text xml:space="preserve" text-anchor="middle" x="165.9" y="-633.33" font-family="Times,serif" font-size="14.00" fill="white">root ❎</text>
</a>
</g>
</g>
<!-- numcosmo&#45;&gt;root -->
<!-- libvips -->
<g id="node19" class="node">
<title>libvips</title>
<g id="a_node19"><a xlink:href="https://github.com/conda-forge/libvips-feedstock/pull/146" xlink:title="libvips ❎">
<ellipse fill="#31688e" stroke="black" cx="165.9" cy="-566" rx="59.63" ry="18"/>
<text xml:space="preserve" text-anchor="middle" x="165.9" y="-561.33" font-family="Times,serif" font-size="14.00" fill="white">libvips ❎</text>
</a>
</g>
</g>
<!-- root&#45;&gt;libvips -->
<!-- chealpix -->
<g id="node18" class="node">
<title>chealpix</title>
<g id="a_node18"><a xlink:href="https://github.com/conda-forge/chealpix-feedstock/pull/18" xlink:title="chealpix ✓">
<ellipse fill="#31688e" stroke="black" cx="856.9" cy="-638" rx="60.68" ry="18"/>
<text xml:space="preserve" text-anchor="middle" x="856.9" y="-633.33" font-family="Times,serif" font-size="14.00" fill="white">chealpix ✓</text>
</a>
</g>
</g>
<!-- chealpix&#45;&gt;namaster -->
<g id="edge16" class="edge">
<title>chealpix&#45;&gt;namaster</title>
<path fill="none" stroke="black" d="M856.9,-619.7C856.9,-612.41 856.9,-603.73 856.9,-595.54"/>
<polygon fill="black" stroke="black" points="860.4,-595.62 856.9,-585.62 853.4,-595.62 860.4,-595.62"/>
</g>
<!-- astromatic&#45;source&#45;extractor -->
<g id="node22" class="node">
<title>astromatic&#45;source&#45;extractor</title>
<g id="a_node22"><a xlink:href="https://github.com/conda-forge/astromatic-source-extractor-feedstock/pull/21" xlink:title="astromatic source extractor ❎">
<ellipse fill="#31688e" stroke="black" cx="165.9" cy="-494" rx="165.9" ry="18"/>
<text xml:space="preserve" text-anchor="middle" x="165.9" y="-489.32" font-family="Times,serif" font-size="14.00" fill="white">astromatic source extractor ❎</text>
</a>
</g>
</g>
<!-- libvips&#45;&gt;astromatic&#45;source&#45;extractor -->
<!-- photospline -->
<g id="node20" class="node">
<title>photospline</title>
<g id="a_node20"><a xlink:href="https://github.com/conda-forge/photospline-feedstock/pull/50" xlink:title="photospline ❎">
<ellipse fill="#31688e" stroke="black" cx="563.9" cy="-126" rx="84.88" ry="18"/>
<text xml:space="preserve" text-anchor="middle" x="563.9" y="-121.33" font-family="Times,serif" font-size="14.00" fill="white">photospline ❎</text>
</a>
</g>
</g>
<!-- nuflux -->
<g id="node21" class="node">
<title>nuflux</title>
<g id="a_node21"><a xlink:href="https://github.com/conda-forge/nuflux-feedstock" xlink:title="nuflux">
<ellipse fill="#fde725" stroke="black" cx="563.9" cy="-54" rx="42.26" ry="18"/>
<text xml:space="preserve" text-anchor="middle" x="563.9" y="-49.33" font-family="Times,serif" font-size="14.00">nuflux</text>
</a>
</g>
</g>
<!-- photospline&#45;&gt;nuflux -->
<g id="edge18" class="edge">
<title>photospline&#45;&gt;nuflux</title>
<path fill="none" stroke="black" d="M563.9,-107.7C563.9,-100.41 563.9,-91.73 563.9,-83.54"/>
<polygon fill="black" stroke="black" points="567.4,-83.62 563.9,-73.62 560.4,-83.62 567.4,-83.62"/>
</g>
<!-- hstcal -->
<g id="node23" class="node">
<title>hstcal</title>
<g id="a_node23"><a xlink:href="https://github.com/conda-forge/hstcal-feedstock/pull/35" xlink:title="hstcal ❎">
<ellipse fill="#31688e" stroke="black" cx="165.9" cy="-422" rx="56.47" ry="18"/>
<text xml:space="preserve" text-anchor="middle" x="165.9" y="-417.32" font-family="Times,serif" font-size="14.00" fill="white">hstcal ❎</text>
</a>
</g>
</g>
<!-- astromatic&#45;source&#45;extractor&#45;&gt;hstcal -->
<!-- fitsverify -->
<g id="node27" class="node">
<title>fitsverify</title>
<g id="a_node27"><a xlink:href="https://github.com/conda-forge/fitsverify-feedstock/pull/23" xlink:title="fitsverify ❎">
<ellipse fill="#31688e" stroke="black" cx="165.9" cy="-350" rx="71.2" ry="18"/>
<text xml:space="preserve" text-anchor="middle" x="165.9" y="-345.32" font-family="Times,serif" font-size="14.00" fill="white">fitsverify ❎</text>
</a>
</g>
</g>
<!-- hstcal&#45;&gt;fitsverify -->
<!-- tempo2 -->
<g id="node24" class="node">
<title>tempo2</title>
<g id="a_node24"><a xlink:href="https://github.com/conda-forge/tempo2-feedstock/pull/43" xlink:title="tempo2 ❎">
<ellipse fill="#31688e" stroke="black" cx="165.9" cy="-162" rx="64.36" ry="18"/>
<text xml:space="preserve" text-anchor="middle" x="165.9" y="-157.32" font-family="Times,serif" font-size="14.00" fill="white">tempo2 ❎</text>
</a>
</g>
</g>
<!-- psrchive -->
<g id="node25" class="node">
<title>psrchive</title>
<g id="a_node25"><a xlink:href="https://github.com/conda-forge/psrchive-feedstock" xlink:title="psrchive">
<ellipse fill="#fde725" stroke="black" cx="165.9" cy="-90" rx="53.84" ry="18"/>
<text xml:space="preserve" text-anchor="middle" x="165.9" y="-85.33" font-family="Times,serif" font-size="14.00">psrchive</text>
</a>
</g>
</g>
<!-- tempo2&#45;&gt;psrchive -->
<g id="edge21" class="edge">
<title>tempo2&#45;&gt;psrchive</title>
<path fill="none" stroke="black" d="M165.9,-143.7C165.9,-136.41 165.9,-127.73 165.9,-119.54"/>
<polygon fill="black" stroke="black" points="169.4,-119.62 165.9,-109.62 162.4,-119.62 169.4,-119.62"/>
</g>
<!-- dspsr -->
<g id="node26" class="node">
<title>dspsr</title>
<g id="a_node26"><a xlink:href="https://github.com/conda-forge/dspsr-feedstock" xlink:title="dspsr">
<ellipse fill="#fde725" stroke="black" cx="165.9" cy="-18" rx="39.11" ry="18"/>
<text xml:space="preserve" text-anchor="middle" x="165.9" y="-13.32" font-family="Times,serif" font-size="14.00">dspsr</text>
</a>
</g>
</g>
<!-- psrchive&#45;&gt;dspsr -->
<g id="edge22" class="edge">
<title>psrchive&#45;&gt;dspsr</title>
<path fill="none" stroke="black" d="M165.9,-71.7C165.9,-64.41 165.9,-55.73 165.9,-47.54"/>
<polygon fill="black" stroke="black" points="169.4,-47.62 165.9,-37.62 162.4,-47.62 169.4,-47.62"/>
</g>
<!-- disperse -->
<g id="node28" class="node">
<title>disperse</title>
<g id="a_node28"><a xlink:href="https://github.com/conda-forge/disperse-feedstock/pull/12" xlink:title="disperse ❎">
<ellipse fill="#31688e" stroke="black" cx="165.9" cy="-278" rx="69.1" ry="18"/>
<text xml:space="preserve" text-anchor="middle" x="165.9" y="-273.32" font-family="Times,serif" font-size="14.00" fill="white">disperse ❎</text>
</a>
</g>
</g>
<!-- fitsverify&#45;&gt;disperse -->
<!-- nvidia&#45;dali&#45;python -->
<g id="node29" class="node">
<title>nvidia&#45;dali&#45;python</title>
<g id="a_node29"><a xlink:href="https://github.com/conda-forge/nvidia-dali-python-feedstock/pull/53" xlink:title="nvidia dali python ❎">
<ellipse fill="#31688e" stroke="black" cx="165.9" cy="-206" rx="116.45" ry="18"/>
<text xml:space="preserve" text-anchor="middle" x="165.9" y="-201.32" font-family="Times,serif" font-size="14.00" fill="white">nvidia dali python ❎</text>
</a>
</g>
</g>
<!-- disperse&#45;&gt;nvidia&#45;dali&#45;python -->
</g>
</svg>
