<?xml version="1.0" encoding="UTF-8" standalone="no"?>
<!DOCTYPE svg PUBLIC "-//W3C//DTD SVG 1.1//EN"
 "http://www.w3.org/Graphics/SVG/1.1/DTD/svg11.dtd">
<!-- Generated by graphviz version 12.0.0 (20240803.0821)
 -->
<!-- Pages: 1 -->
<svg width="995pt" height="232pt"
 viewBox="0.00 0.00 994.68 232.00" xmlns="http://www.w3.org/2000/svg" xmlns:xlink="http://www.w3.org/1999/xlink">
<g id="graph0" class="graph" transform="scale(1 1) rotate(0) translate(4 228)">
<polygon fill="white" stroke="none" points="-4,4 -4,-228 990.68,-228 990.68,4 -4,4"/>
<!-- torchvision -->
<g id="node1" class="node">
<title>torchvision</title>
<g id="a_node1"><a xlink:href="https://github.com/conda-forge/torchvision-feedstock" xlink:title="torchvision">
<ellipse fill="#fde725" stroke="black" cx="66.99" cy="-134" rx="66.99" ry="18"/>
<text text-anchor="middle" x="66.99" y="-129.32" font-family="Times,serif" font-size="14.00">torchvision</text>
</a>
</g>
</g>
<!-- pytorch3d -->
<g id="node7" class="node">
<title>pytorch3d</title>
<g id="a_node7"><a xlink:href="https://github.com/conda-forge/pytorch3d-feedstock" xlink:title="pytorch3d">
<ellipse fill="#fde725" stroke="black" cx="198.99" cy="-62" rx="62.26" ry="18"/>
<text text-anchor="middle" x="198.99" y="-57.33" font-family="Times,serif" font-size="14.00">pytorch3d</text>
</a>
</g>
</g>
<!-- torchvision&#45;&gt;pytorch3d -->
<g id="edge1" class="edge">
<title>torchvision&#45;&gt;pytorch3d</title>
<path fill="none" stroke="black" d="M96.29,-117.46C115.13,-107.47 139.83,-94.38 160.28,-83.53"/>
<polygon fill="black" stroke="black" points="161.7,-86.74 168.9,-78.96 158.42,-80.55 161.7,-86.74"/>
</g>
<!-- pytorch&#45;cpu -->
<g id="node2" class="node">
<title>pytorch&#45;cpu</title>
<g id="a_node2"><a xlink:href="https://github.com/conda-forge/pytorch-cpu-feedstock/pull/259" xlink:title="pytorch cpu ❎">
<ellipse fill="#31688e" stroke="black" cx="331.99" cy="-206" rx="85.93" ry="18"/>
<text text-anchor="middle" x="331.99" y="-201.32" font-family="Times,serif" font-size="14.00" fill="white">pytorch cpu ❎</text>
</a>
</g>
</g>
<!-- pytorch&#45;cpu&#45;&gt;torchvision -->
<g id="edge6" class="edge">
<title>pytorch&#45;cpu&#45;&gt;torchvision</title>
<path fill="none" stroke="black" d="M279.95,-191.25C235.25,-179.45 170.89,-162.45 124.64,-150.23"/>
<polygon fill="black" stroke="black" points="125.61,-146.87 115.05,-147.7 123.83,-153.63 125.61,-146.87"/>
</g>
<!-- torch&#45;scatter -->
<g id="node5" class="node">
<title>torch&#45;scatter</title>
<g id="a_node5"><a xlink:href="https://github.com/conda-forge/torch-scatter-feedstock" xlink:title="torch scatter">
<ellipse fill="#fde725" stroke="black" cx="227.99" cy="-134" rx="75.94" ry="18"/>
<text text-anchor="middle" x="227.99" y="-129.32" font-family="Times,serif" font-size="14.00">torch scatter</text>
</a>
</g>
</g>
<!-- pytorch&#45;cpu&#45;&gt;torch&#45;scatter -->
<g id="edge5" class="edge">
<title>pytorch&#45;cpu&#45;&gt;torch&#45;scatter</title>
<path fill="none" stroke="black" d="M307.34,-188.41C293.75,-179.26 276.66,-167.76 261.82,-157.77"/>
<polygon fill="black" stroke="black" points="263.97,-155 253.72,-152.32 260.06,-160.8 263.97,-155"/>
</g>
<!-- pytorch&#45;cpu&#45;&gt;pytorch3d -->
<g id="edge4" class="edge">
<title>pytorch&#45;cpu&#45;&gt;pytorch3d</title>
<path fill="none" stroke="black" d="M332.66,-187.69C332.51,-168.22 329.44,-136.63 312.99,-116 298.8,-98.2 277.24,-86.1 256.68,-78.02"/>
<polygon fill="black" stroke="black" points="258.08,-74.8 247.49,-74.67 255.69,-81.38 258.08,-74.8"/>
</g>
<!-- dgl -->
<g id="node8" class="node">
<title>dgl</title>
<g id="a_node8"><a xlink:href="https://github.com/conda-forge/dgl-feedstock" xlink:title="dgl">
<ellipse fill="#fde725" stroke="black" cx="386.99" cy="-134" rx="27.01" ry="18"/>
<text text-anchor="middle" x="386.99" y="-129.32" font-family="Times,serif" font-size="14.00">dgl</text>
</a>
</g>
</g>
<!-- pytorch&#45;cpu&#45;&gt;dgl -->
<g id="edge2" class="edge">
<title>pytorch&#45;cpu&#45;&gt;dgl</title>
<path fill="none" stroke="black" d="M345.31,-188.05C352.08,-179.44 360.43,-168.81 367.87,-159.33"/>
<polygon fill="black" stroke="black" points="370.56,-161.57 373.99,-151.55 365.06,-157.25 370.56,-161.57"/>
</g>
<!-- momentum -->
<g id="node10" class="node">
<title>momentum</title>
<g id="a_node10"><a xlink:href="https://github.com/conda-forge/momentum-feedstock" xlink:title="momentum">
<ellipse fill="#fde725" stroke="black" cx="499.99" cy="-134" rx="68.04" ry="18"/>
<text text-anchor="middle" x="499.99" y="-129.32" font-family="Times,serif" font-size="14.00">momentum</text>
</a>
</g>
</g>
<!-- pytorch&#45;cpu&#45;&gt;momentum -->
<g id="edge3" class="edge">
<title>pytorch&#45;cpu&#45;&gt;momentum</title>
<path fill="none" stroke="black" d="M369.28,-189.46C394.25,-179.06 427.31,-165.28 453.94,-154.19"/>
<polygon fill="black" stroke="black" points="455.25,-157.43 463.14,-150.36 452.56,-150.97 455.25,-157.43"/>
</g>
<!-- cupy -->
<g id="node3" class="node">
<title>cupy</title>
<g id="a_node3"><a xlink:href="https://github.com/conda-forge/cupy-feedstock/pull/286" xlink:title="cupy ❎">
<ellipse fill="#31688e" stroke="black" cx="717.21" cy="-18" rx="50.16" ry="18"/>
<text text-anchor="middle" x="717.21" y="-13.32" font-family="Times,serif" font-size="14.00" fill="white">cupy ❎</text>
</a>
</g>
</g>
<!-- libtvm -->
<g id="node4" class="node">
<title>libtvm</title>
<g id="a_node4"><a xlink:href="https://github.com/conda-forge/libtvm-feedstock/pull/41" xlink:title="libtvm ❎">
<ellipse fill="#31688e" stroke="black" cx="284.02" cy="-18" rx="58.57" ry="18"/>
<text text-anchor="middle" x="284.02" y="-13.32" font-family="Times,serif" font-size="14.00" fill="white">libtvm ❎</text>
</a>
</g>
</g>
<!-- katago -->
<g id="node6" class="node">
<title>katago</title>
<g id="a_node6"><a xlink:href="https://github.com/conda-forge/katago-feedstock/pull/10" xlink:title="katago ❎">
<ellipse fill="#31688e" stroke="black" cx="926.53" cy="-134" rx="60.15" ry="18"/>
<text text-anchor="middle" x="926.53" y="-129.32" font-family="Times,serif" font-size="14.00" fill="white">katago ❎</text>
</a>
</g>
</g>
<!-- python&#45;cudnn&#45;frontend -->
<g id="node9" class="node">
<title>python&#45;cudnn&#45;frontend</title>
<g id="a_node9"><a xlink:href="https://github.com/conda-forge/python-cudnn-frontend-feedstock/pull/11" xlink:title="python cudnn frontend ❎">
<ellipse fill="#31688e" stroke="black" cx="717.21" cy="-134" rx="141.17" ry="18"/>
<text text-anchor="middle" x="717.21" y="-129.32" font-family="Times,serif" font-size="14.00" fill="white">python cudnn frontend ❎</text>
</a>
</g>
</g>
</g>
</svg>
