<?xml version="1.0" encoding="UTF-8" standalone="no"?>
<!DOCTYPE svg PUBLIC "-//W3C//DTD SVG 1.1//EN"
 "http://www.w3.org/Graphics/SVG/1.1/DTD/svg11.dtd">
<!-- Generated by graphviz version 13.1.2 (20250809.0930)
 -->
<!-- Pages: 1 -->
<svg width="1175pt" height="232pt"
 viewBox="0.00 0.00 1175.00 232.00" xmlns="http://www.w3.org/2000/svg" xmlns:xlink="http://www.w3.org/1999/xlink">
<g id="graph0" class="graph" transform="scale(1 1) rotate(0) translate(4 228)">
<polygon fill="white" stroke="none" points="-4,4 -4,-228 1170.76,-228 1170.76,4 -4,4"/>
<!-- torchvision -->
<g id="node1" class="node">
<title>torchvision</title>
<g id="a_node1"><a xlink:href="https://github.com/conda-forge/torchvision-feedstock" xlink:title="torchvision">
<ellipse fill="#fde725" stroke="black" cx="191.09" cy="-134" rx="66.99" ry="18"/>
<text xml:space="preserve" text-anchor="middle" x="191.09" y="-129.32" font-family="Times,serif" font-size="14.00">torchvision</text>
</a>
</g>
</g>
<!-- pytorch3d -->
<g id="node9" class="node">
<title>pytorch3d</title>
<g id="a_node9"><a xlink:href="https://github.com/conda-forge/pytorch3d-feedstock" xlink:title="pytorch3d">
<ellipse fill="#fde725" stroke="black" cx="323.09" cy="-62" rx="62.26" ry="18"/>
<text xml:space="preserve" text-anchor="middle" x="323.09" y="-57.33" font-family="Times,serif" font-size="14.00">pytorch3d</text>
</a>
</g>
</g>
<!-- torchvision&#45;&gt;pytorch3d -->
<g id="edge1" class="edge">
<title>torchvision&#45;&gt;pytorch3d</title>
<path fill="none" stroke="black" d="M220.39,-117.46C239.23,-107.47 263.93,-94.38 284.38,-83.53"/>
<polygon fill="black" stroke="black" points="285.8,-86.74 293,-78.96 282.52,-80.55 285.8,-86.74"/>
</g>
<!-- tensorflow -->
<g id="node2" class="node">
<title>tensorflow</title>
<g id="a_node2"><a xlink:href="https://github.com/conda-forge/tensorflow-feedstock/pull/461" xlink:title="tensorflow ❎">
<ellipse fill="#31688e" stroke="black" cx="79.09" cy="-206" rx="79.09" ry="18"/>
<text xml:space="preserve" text-anchor="middle" x="79.09" y="-201.32" font-family="Times,serif" font-size="14.00" fill="white">tensorflow ❎</text>
</a>
</g>
</g>
<!-- dgl -->
<g id="node10" class="node">
<title>dgl</title>
<g id="a_node10"><a xlink:href="https://github.com/conda-forge/dgl-feedstock" xlink:title="dgl">
<ellipse fill="#fde725" stroke="black" cx="79.09" cy="-134" rx="27.01" ry="18"/>
<text xml:space="preserve" text-anchor="middle" x="79.09" y="-129.32" font-family="Times,serif" font-size="14.00">dgl</text>
</a>
</g>
</g>
<!-- tensorflow&#45;&gt;dgl -->
<g id="edge2" class="edge">
<title>tensorflow&#45;&gt;dgl</title>
<path fill="none" stroke="black" d="M79.09,-187.7C79.09,-180.41 79.09,-171.73 79.09,-163.54"/>
<polygon fill="black" stroke="black" points="82.59,-163.62 79.09,-153.62 75.59,-163.62 82.59,-163.62"/>
</g>
<!-- pytorch&#45;cpu -->
<g id="node3" class="node">
<title>pytorch&#45;cpu</title>
<g id="a_node3"><a xlink:href="https://github.com/conda-forge/pytorch-cpu-feedstock/pull/436" xlink:title="pytorch cpu ❎">
<ellipse fill="#31688e" stroke="black" cx="352.09" cy="-206" rx="85.93" ry="18"/>
<text xml:space="preserve" text-anchor="middle" x="352.09" y="-201.32" font-family="Times,serif" font-size="14.00" fill="white">pytorch cpu ❎</text>
</a>
</g>
</g>
<!-- pytorch&#45;cpu&#45;&gt;torchvision -->
<g id="edge6" class="edge">
<title>pytorch&#45;cpu&#45;&gt;torchvision</title>
<path fill="none" stroke="black" d="M315.96,-189.29C292.19,-178.96 260.92,-165.36 235.61,-154.36"/>
<polygon fill="black" stroke="black" points="237.13,-151.2 226.56,-150.42 234.34,-157.62 237.13,-151.2"/>
</g>
<!-- torch&#45;scatter -->
<g id="node7" class="node">
<title>torch&#45;scatter</title>
<g id="a_node7"><a xlink:href="https://github.com/conda-forge/torch-scatter-feedstock" xlink:title="torch scatter">
<ellipse fill="#fde725" stroke="black" cx="352.09" cy="-134" rx="75.94" ry="18"/>
<text xml:space="preserve" text-anchor="middle" x="352.09" y="-129.32" font-family="Times,serif" font-size="14.00">torch scatter</text>
</a>
</g>
</g>
<!-- pytorch&#45;cpu&#45;&gt;torch&#45;scatter -->
<g id="edge5" class="edge">
<title>pytorch&#45;cpu&#45;&gt;torch&#45;scatter</title>
<path fill="none" stroke="black" d="M352.09,-187.7C352.09,-180.41 352.09,-171.73 352.09,-163.54"/>
<polygon fill="black" stroke="black" points="355.59,-163.62 352.09,-153.62 348.59,-163.62 355.59,-163.62"/>
</g>
<!-- pytorch&#45;cpu&#45;&gt;pytorch3d -->
<g id="edge4" class="edge">
<title>pytorch&#45;cpu&#45;&gt;pytorch3d</title>
<path fill="none" stroke="black" d="M393.1,-189.95C409.88,-181.52 427.56,-169.18 437.09,-152 444.86,-138.01 445.7,-129.49 437.09,-116 425,-97.04 404.17,-84.76 383.6,-76.85"/>
<polygon fill="black" stroke="black" points="384.94,-73.61 374.34,-73.6 382.62,-80.21 384.94,-73.61"/>
</g>
<!-- pytorch&#45;cpu&#45;&gt;dgl -->
<g id="edge3" class="edge">
<title>pytorch&#45;cpu&#45;&gt;dgl</title>
<path fill="none" stroke="black" d="M285.62,-194.21C237.51,-185.42 171.32,-171.3 115.09,-152 113.54,-151.47 111.96,-150.89 110.39,-150.27"/>
<polygon fill="black" stroke="black" points="112.05,-147.18 101.48,-146.46 109.3,-153.61 112.05,-147.18"/>
</g>
<!-- transformer&#45;engine -->
<g id="node12" class="node">
<title>transformer&#45;engine</title>
<g id="a_node12"><a xlink:href="https://github.com/conda-forge/transformer-engine-feedstock" xlink:title="transformer engine">
<ellipse fill="#fde725" stroke="black" cx="593.09" cy="-134" rx="108.55" ry="18"/>
<text xml:space="preserve" text-anchor="middle" x="593.09" y="-129.32" font-family="Times,serif" font-size="14.00">transformer engine</text>
</a>
</g>
</g>
<!-- pytorch&#45;cpu&#45;&gt;transformer&#45;engine -->
<g id="edge7" class="edge">
<title>pytorch&#45;cpu&#45;&gt;transformer&#45;engine</title>
<path fill="none" stroke="black" d="M400.86,-190.83C438.15,-180 489.86,-164.98 530.25,-153.25"/>
<polygon fill="black" stroke="black" points="530.98,-156.69 539.6,-150.54 529.03,-149.96 530.98,-156.69"/>
</g>
<!-- jaxlib -->
<g id="node4" class="node">
<title>jaxlib</title>
<g id="a_node4"><a xlink:href="https://github.com/conda-forge/jaxlib-feedstock/pull/331" xlink:title="jaxlib ❎">
<ellipse fill="#31688e" stroke="black" cx="843.09" cy="-18" rx="53.84" ry="18"/>
<text xml:space="preserve" text-anchor="middle" x="843.09" y="-13.32" font-family="Times,serif" font-size="14.00" fill="white">jaxlib ❎</text>
</a>
</g>
</g>
<!-- libtvm -->
<g id="node5" class="node">
<title>libtvm</title>
<g id="a_node5"><a xlink:href="https://github.com/conda-forge/libtvm-feedstock/pull/43" xlink:title="libtvm ❎">
<ellipse fill="#31688e" stroke="black" cx="351.09" cy="-18" rx="58.57" ry="18"/>
<text xml:space="preserve" text-anchor="middle" x="351.09" y="-13.32" font-family="Times,serif" font-size="14.00" fill="white">libtvm ❎</text>
</a>
</g>
</g>
<!-- onnxruntime -->
<g id="node6" class="node">
<title>onnxruntime</title>
<g id="a_node6"><a xlink:href="https://github.com/conda-forge/onnxruntime-feedstock/pull/158" xlink:title="onnxruntime ❎">
<ellipse fill="#31688e" stroke="black" cx="1076.09" cy="-134" rx="90.67" ry="18"/>
<text xml:space="preserve" text-anchor="middle" x="1076.09" y="-129.32" font-family="Times,serif" font-size="14.00" fill="white">onnxruntime ❎</text>
</a>
</g>
</g>
<!-- katago -->
<g id="node8" class="node">
<title>katago</title>
<g id="a_node8"><a xlink:href="https://github.com/conda-forge/katago-feedstock/pull/27" xlink:title="katago ✓">
<ellipse fill="#31688e" stroke="black" cx="1076.09" cy="-18" rx="52.79" ry="18"/>
<text xml:space="preserve" text-anchor="middle" x="1076.09" y="-13.32" font-family="Times,serif" font-size="14.00" fill="white">katago ✓</text>
</a>
</g>
</g>
<!-- python&#45;cudnn&#45;frontend -->
<g id="node11" class="node">
<title>python&#45;cudnn&#45;frontend</title>
<g id="a_node11"><a xlink:href="https://github.com/conda-forge/python-cudnn-frontend-feedstock/pull/33" xlink:title="python cudnn frontend ✓">
<ellipse fill="#31688e" stroke="black" cx="843.09" cy="-134" rx="133.81" ry="18"/>
<text xml:space="preserve" text-anchor="middle" x="843.09" y="-129.32" font-family="Times,serif" font-size="14.00" fill="white">python cudnn frontend ✓</text>
</a>
</g>
</g>
</g>
</svg>
