<?xml version="1.0" encoding="UTF-8" standalone="no"?>
<!DOCTYPE svg PUBLIC "-//W3C//DTD SVG 1.1//EN"
 "http://www.w3.org/Graphics/SVG/1.1/DTD/svg11.dtd">
<!-- Generated by graphviz version 13.1.2 (20250809.0930)
 -->
<!-- Pages: 1 -->
<svg width="1174pt" height="448pt"
 viewBox="0.00 0.00 1174.00 448.00" xmlns="http://www.w3.org/2000/svg" xmlns:xlink="http://www.w3.org/1999/xlink">
<g id="graph0" class="graph" transform="scale(1 1) rotate(0) translate(4 444)">
<polygon fill="white" stroke="none" points="-4,4 -4,-444 1169.98,-444 1169.98,4 -4,4"/>
<!-- rdkit -->
<g id="node1" class="node">
<title>rdkit</title>
<g id="a_node1"><a xlink:href="https://github.com/conda-forge/rdkit-feedstock/pull/216" xlink:title="rdkit ❎">
<ellipse fill="#31688e" stroke="black" cx="244.42" cy="-162" rx="50.68" ry="18"/>
<text xml:space="preserve" text-anchor="middle" x="244.42" y="-157.32" font-family="Times,serif" font-size="14.00" fill="white">rdkit ❎</text>
</a>
</g>
</g>
<!-- rbdl -->
<g id="node2" class="node">
<title>rbdl</title>
<g id="a_node2"><a xlink:href="https://github.com/conda-forge/rbdl-feedstock/pull/42" xlink:title="rbdl ❎">
<ellipse fill="#31688e" stroke="black" cx="244.42" cy="-90" rx="47" ry="18"/>
<text xml:space="preserve" text-anchor="middle" x="244.42" y="-85.33" font-family="Times,serif" font-size="14.00" fill="white">rbdl ❎</text>
</a>
</g>
</g>
<!-- rdkit&#45;&gt;rbdl -->
<!-- nurikit -->
<g id="node5" class="node">
<title>nurikit</title>
<g id="a_node5"><a xlink:href="https://github.com/conda-forge/nurikit-feedstock/pull/18" xlink:title="nurikit ❎">
<ellipse fill="#31688e" stroke="black" cx="244.42" cy="-18" rx="60.15" ry="18"/>
<text xml:space="preserve" text-anchor="middle" x="244.42" y="-13.32" font-family="Times,serif" font-size="14.00" fill="white">nurikit ❎</text>
</a>
</g>
</g>
<!-- rbdl&#45;&gt;nurikit -->
<!-- cgal&#45;cpp -->
<g id="node3" class="node">
<title>cgal&#45;cpp</title>
<g id="a_node3"><a xlink:href="https://github.com/conda-forge/cgal-cpp-feedstock/pull/48" xlink:title="cgal cpp ❎">
<ellipse fill="#31688e" stroke="black" cx="728.42" cy="-126" rx="68.04" ry="18"/>
<text xml:space="preserve" text-anchor="middle" x="728.42" y="-121.33" font-family="Times,serif" font-size="14.00" fill="white">cgal cpp ❎</text>
</a>
</g>
</g>
<!-- colmap -->
<g id="node4" class="node">
<title>colmap</title>
<g id="a_node4"><a xlink:href="https://github.com/conda-forge/colmap-feedstock" xlink:title="colmap">
<ellipse fill="#fde725" stroke="black" cx="728.42" cy="-54" rx="47" ry="18"/>
<text xml:space="preserve" text-anchor="middle" x="728.42" y="-49.33" font-family="Times,serif" font-size="14.00">colmap</text>
</a>
</g>
</g>
<!-- cgal&#45;cpp&#45;&gt;colmap -->
<g id="edge2" class="edge">
<title>cgal&#45;cpp&#45;&gt;colmap</title>
<path fill="none" stroke="black" d="M728.42,-107.7C728.42,-100.41 728.42,-91.73 728.42,-83.54"/>
<polygon fill="black" stroke="black" points="731.92,-83.62 728.42,-73.62 724.92,-83.62 731.92,-83.62"/>
</g>
<!-- eigenpy -->
<g id="node6" class="node">
<title>eigenpy</title>
<g id="a_node6"><a xlink:href="https://github.com/conda-forge/eigenpy-feedstock/pull/184" xlink:title="eigenpy ❎">
<ellipse fill="#31688e" stroke="black" cx="308.42" cy="-422" rx="65.94" ry="18"/>
<text xml:space="preserve" text-anchor="middle" x="308.42" y="-417.32" font-family="Times,serif" font-size="14.00" fill="white">eigenpy ❎</text>
</a>
</g>
</g>
<!-- pinocchio -->
<g id="node7" class="node">
<title>pinocchio</title>
<g id="a_node7"><a xlink:href="https://github.com/conda-forge/pinocchio-feedstock" xlink:title="pinocchio">
<ellipse fill="#fde725" stroke="black" cx="221.42" cy="-350" rx="58.57" ry="18"/>
<text xml:space="preserve" text-anchor="middle" x="221.42" y="-345.32" font-family="Times,serif" font-size="14.00">pinocchio</text>
</a>
</g>
</g>
<!-- eigenpy&#45;&gt;pinocchio -->
<g id="edge4" class="edge">
<title>eigenpy&#45;&gt;pinocchio</title>
<path fill="none" stroke="black" d="M288.24,-404.76C276.93,-395.66 262.63,-384.16 250.17,-374.13"/>
<polygon fill="black" stroke="black" points="252.65,-371.64 242.67,-368.1 248.26,-377.09 252.65,-371.64"/>
</g>
<!-- crocoddyl -->
<g id="node8" class="node">
<title>crocoddyl</title>
<g id="a_node8"><a xlink:href="https://github.com/conda-forge/crocoddyl-feedstock" xlink:title="crocoddyl">
<ellipse fill="#fde725" stroke="black" cx="427.42" cy="-278" rx="59.63" ry="18"/>
<text xml:space="preserve" text-anchor="middle" x="427.42" y="-273.32" font-family="Times,serif" font-size="14.00">crocoddyl</text>
</a>
</g>
</g>
<!-- eigenpy&#45;&gt;crocoddyl -->
<g id="edge5" class="edge">
<title>eigenpy&#45;&gt;crocoddyl</title>
<path fill="none" stroke="black" d="M322.54,-404.15C343.2,-379.49 381.85,-333.37 406.02,-304.53"/>
<polygon fill="black" stroke="black" points="408.61,-306.9 412.35,-296.99 403.24,-302.4 408.61,-306.9"/>
</g>
<!-- hpp&#45;python -->
<g id="node9" class="node">
<title>hpp&#45;python</title>
<g id="a_node9"><a xlink:href="https://github.com/conda-forge/hpp-python-feedstock" xlink:title="hpp python">
<ellipse fill="#fde725" stroke="black" cx="281.42" cy="-278" rx="68.04" ry="18"/>
<text xml:space="preserve" text-anchor="middle" x="281.42" y="-273.32" font-family="Times,serif" font-size="14.00">hpp python</text>
</a>
</g>
</g>
<!-- eigenpy&#45;&gt;hpp&#45;python -->
<g id="edge6" class="edge">
<title>eigenpy&#45;&gt;hpp&#45;python</title>
<path fill="none" stroke="black" d="M305.11,-403.59C300.55,-379.61 292.28,-336.14 286.82,-307.42"/>
<polygon fill="black" stroke="black" points="290.26,-306.77 284.95,-297.6 283.38,-308.08 290.26,-306.77"/>
</g>
<!-- pinocchio&#45;&gt;crocoddyl -->
<g id="edge7" class="edge">
<title>pinocchio&#45;&gt;crocoddyl</title>
<path fill="none" stroke="black" d="M259.68,-336C293.11,-324.64 341.83,-308.08 378.16,-295.74"/>
<polygon fill="black" stroke="black" points="379.23,-299.07 387.58,-292.54 376.98,-292.44 379.23,-299.07"/>
</g>
<!-- pinocchio&#45;&gt;hpp&#45;python -->
<g id="edge8" class="edge">
<title>pinocchio&#45;&gt;hpp&#45;python</title>
<path fill="none" stroke="black" d="M235.64,-332.41C242.78,-324.08 251.59,-313.8 259.57,-304.49"/>
<polygon fill="black" stroke="black" points="262.05,-306.98 265.9,-297.11 256.73,-302.42 262.05,-306.98"/>
</g>
<!-- libfranka -->
<g id="node10" class="node">
<title>libfranka</title>
<g id="a_node10"><a xlink:href="https://github.com/conda-forge/libfranka-feedstock" xlink:title="libfranka">
<ellipse fill="#fde725" stroke="black" cx="139.42" cy="-278" rx="55.94" ry="18"/>
<text xml:space="preserve" text-anchor="middle" x="139.42" y="-273.32" font-family="Times,serif" font-size="14.00">libfranka</text>
</a>
</g>
</g>
<!-- pinocchio&#45;&gt;libfranka -->
<g id="edge9" class="edge">
<title>pinocchio&#45;&gt;libfranka</title>
<path fill="none" stroke="black" d="M202.4,-332.76C191.92,-323.82 178.72,-312.55 167.11,-302.64"/>
<polygon fill="black" stroke="black" points="169.65,-300.2 159.77,-296.37 165.1,-305.53 169.65,-300.2"/>
</g>
<!-- roboplan -->
<g id="node11" class="node">
<title>roboplan</title>
<g id="a_node11"><a xlink:href="https://github.com/conda-forge/roboplan-feedstock" xlink:title="roboplan">
<ellipse fill="#fde725" stroke="black" cx="55.42" cy="-206" rx="55.42" ry="18"/>
<text xml:space="preserve" text-anchor="middle" x="55.42" y="-201.32" font-family="Times,serif" font-size="14.00">roboplan</text>
</a>
</g>
</g>
<!-- pinocchio&#45;&gt;roboplan -->
<g id="edge10" class="edge">
<title>pinocchio&#45;&gt;roboplan</title>
<path fill="none" stroke="black" d="M167.58,-342.66C136.02,-336.13 97.88,-322.88 74.42,-296 60.03,-279.52 55.65,-254.83 54.66,-235.63"/>
<polygon fill="black" stroke="black" points="58.16,-235.67 54.45,-225.74 51.16,-235.81 58.16,-235.67"/>
</g>
<!-- panda3d -->
<g id="node12" class="node">
<title>panda3d</title>
<g id="a_node12"><a xlink:href="https://github.com/conda-forge/panda3d-feedstock" xlink:title="panda3d">
<ellipse fill="#35b779" stroke="black" cx="1067.42" cy="-126" rx="54.36" ry="18"/>
<text xml:space="preserve" text-anchor="middle" x="1067.42" y="-121.33" font-family="Times,serif" font-size="14.00">panda3d</text>
</a>
</g>
</g>
<!-- visp -->
<g id="node13" class="node">
<title>visp</title>
<g id="a_node13"><a xlink:href="https://github.com/conda-forge/visp-feedstock/pull/46" xlink:title="visp ✓">
<ellipse fill="#31688e" stroke="black" cx="1067.42" cy="-54" rx="39.63" ry="18"/>
<text xml:space="preserve" text-anchor="middle" x="1067.42" y="-49.33" font-family="Times,serif" font-size="14.00" fill="white">visp ✓</text>
</a>
</g>
</g>
<!-- panda3d&#45;&gt;visp -->
<g id="edge11" class="edge">
<title>panda3d&#45;&gt;visp</title>
<path fill="none" stroke="black" d="M1067.42,-107.7C1067.42,-100.41 1067.42,-91.73 1067.42,-83.54"/>
<polygon fill="black" stroke="black" points="1070.92,-83.62 1067.42,-73.62 1063.92,-83.62 1070.92,-83.62"/>
</g>
<!-- manif -->
<g id="node14" class="node">
<title>manif</title>
<g id="a_node14"><a xlink:href="https://github.com/conda-forge/manif-feedstock/pull/57" xlink:title="manif ❎">
<ellipse fill="#31688e" stroke="black" cx="777.42" cy="-386" rx="54.89" ry="18"/>
<text xml:space="preserve" text-anchor="middle" x="777.42" y="-381.32" font-family="Times,serif" font-size="14.00" fill="white">manif ❎</text>
</a>
</g>
</g>
<!-- bipedal&#45;locomotion&#45;framework -->
<g id="node15" class="node">
<title>bipedal&#45;locomotion&#45;framework</title>
<g id="a_node15"><a xlink:href="https://github.com/conda-forge/bipedal-locomotion-framework-feedstock/pull/155" xlink:title="bipedal locomotion framework ❎">
<ellipse fill="#31688e" stroke="black" cx="674.42" cy="-314" rx="178.53" ry="18"/>
<text xml:space="preserve" text-anchor="middle" x="674.42" y="-309.32" font-family="Times,serif" font-size="14.00" fill="white">bipedal locomotion framework ❎</text>
</a>
</g>
</g>
<!-- manif&#45;&gt;bipedal&#45;locomotion&#45;framework -->
<g id="edge12" class="edge">
<title>manif&#45;&gt;bipedal&#45;locomotion&#45;framework</title>
<path fill="none" stroke="black" d="M754.3,-369.29C740.97,-360.23 723.95,-348.66 709.05,-338.53"/>
<polygon fill="black" stroke="black" points="711.11,-335.7 700.87,-332.98 707.18,-341.49 711.11,-335.7"/>
</g>
<!-- biomechanical&#45;analysis&#45;framework -->
<g id="node16" class="node">
<title>biomechanical&#45;analysis&#45;framework</title>
<g id="a_node16"><a xlink:href="https://github.com/conda-forge/biomechanical-analysis-framework-feedstock" xlink:title="biomechanical analysis framework">
<ellipse fill="#fde725" stroke="black" cx="777.42" cy="-242" rx="183.79" ry="18"/>
<text xml:space="preserve" text-anchor="middle" x="777.42" y="-237.32" font-family="Times,serif" font-size="14.00">biomechanical analysis framework</text>
</a>
</g>
</g>
<!-- manif&#45;&gt;biomechanical&#45;analysis&#45;framework -->
<g id="edge13" class="edge">
<title>manif&#45;&gt;biomechanical&#45;analysis&#45;framework</title>
<path fill="none" stroke="black" d="M813.56,-372.3C831.69,-363.88 851.95,-350.86 862.42,-332 870.18,-318.01 870.18,-309.99 862.42,-296 855.43,-283.4 844.06,-273.41 831.88,-265.65"/>
<polygon fill="black" stroke="black" points="833.71,-262.67 823.31,-260.66 830.19,-268.72 833.71,-262.67"/>
</g>
<!-- bipedal&#45;locomotion&#45;framework&#45;&gt;biomechanical&#45;analysis&#45;framework -->
<g id="edge14" class="edge">
<title>bipedal&#45;locomotion&#45;framework&#45;&gt;biomechanical&#45;analysis&#45;framework</title>
<path fill="none" stroke="black" d="M699.88,-295.7C712.85,-286.88 728.81,-276.03 742.88,-266.47"/>
<polygon fill="black" stroke="black" points="744.7,-269.47 751,-260.96 740.76,-263.68 744.7,-269.47"/>
</g>
<!-- sofa -->
<g id="node17" class="node">
<title>sofa</title>
<g id="a_node17"><a xlink:href="https://github.com/conda-forge/sofa-feedstock" xlink:title="sofa">
<ellipse fill="#fde725" stroke="black" cx="1067.42" cy="-278" rx="31.74" ry="18"/>
<text xml:space="preserve" text-anchor="middle" x="1067.42" y="-273.32" font-family="Times,serif" font-size="14.00">sofa</text>
</a>
</g>
</g>
<!-- tight&#45;inclusion -->
<g id="node18" class="node">
<title>tight&#45;inclusion</title>
<g id="a_node18"><a xlink:href="https://github.com/conda-forge/tight-inclusion-feedstock/pull/4" xlink:title="tight inclusion ❎">
<ellipse fill="#31688e" stroke="black" cx="1067.42" cy="-350" rx="98.56" ry="18"/>
<text xml:space="preserve" text-anchor="middle" x="1067.42" y="-345.32" font-family="Times,serif" font-size="14.00" fill="white">tight inclusion ❎</text>
</a>
</g>
</g>
<!-- tight&#45;inclusion&#45;&gt;sofa -->
<g id="edge15" class="edge">
<title>tight&#45;inclusion&#45;&gt;sofa</title>
<path fill="none" stroke="black" d="M1067.42,-331.7C1067.42,-324.41 1067.42,-315.73 1067.42,-307.54"/>
<polygon fill="black" stroke="black" points="1070.92,-307.62 1067.42,-297.62 1063.92,-307.62 1070.92,-307.62"/>
</g>
</g>
</svg>
