<?xml version="1.0" encoding="UTF-8" standalone="no"?>
<!DOCTYPE svg PUBLIC "-//W3C//DTD SVG 1.1//EN"
 "http://www.w3.org/Graphics/SVG/1.1/DTD/svg11.dtd">
<!-- Generated by graphviz version 13.1.2 (20250809.0930)
 -->
<!-- Pages: 1 -->
<svg width="883pt" height="304pt"
 viewBox="0.00 0.00 883.00 304.00" xmlns="http://www.w3.org/2000/svg" xmlns:xlink="http://www.w3.org/1999/xlink">
<g id="graph0" class="graph" transform="scale(1 1) rotate(0) translate(4 300)">
<polygon fill="white" stroke="none" points="-4,4 -4,-300 878.57,-300 878.57,4 -4,4"/>
<!-- rdkit -->
<g id="node1" class="node">
<title>rdkit</title>
<g id="a_node1"><a xlink:href="https://github.com/conda-forge/rdkit-feedstock/pull/216" xlink:title="rdkit ❎">
<ellipse fill="#31688e" stroke="black" cx="232.53" cy="-18" rx="50.68" ry="18"/>
<text xml:space="preserve" text-anchor="middle" x="232.53" y="-13.32" font-family="Times,serif" font-size="14.00" fill="white">rdkit ❎</text>
</a>
</g>
</g>
<!-- cgal&#45;cpp -->
<g id="node2" class="node">
<title>cgal&#45;cpp</title>
<g id="a_node2"><a xlink:href="https://github.com/conda-forge/cgal-cpp-feedstock/pull/48" xlink:title="cgal cpp ❎">
<ellipse fill="#31688e" stroke="black" cx="806.53" cy="-206" rx="68.04" ry="18"/>
<text xml:space="preserve" text-anchor="middle" x="806.53" y="-201.33" font-family="Times,serif" font-size="14.00" fill="white">cgal cpp ❎</text>
</a>
</g>
</g>
<!-- colmap -->
<g id="node8" class="node">
<title>colmap</title>
<g id="a_node8"><a xlink:href="https://github.com/conda-forge/colmap-feedstock" xlink:title="colmap">
<ellipse fill="#fde725" stroke="black" cx="806.53" cy="-134" rx="47" ry="18"/>
<text xml:space="preserve" text-anchor="middle" x="806.53" y="-129.32" font-family="Times,serif" font-size="14.00">colmap</text>
</a>
</g>
</g>
<!-- cgal&#45;cpp&#45;&gt;colmap -->
<g id="edge1" class="edge">
<title>cgal&#45;cpp&#45;&gt;colmap</title>
<path fill="none" stroke="black" d="M806.53,-187.7C806.53,-180.41 806.53,-171.73 806.53,-163.54"/>
<polygon fill="black" stroke="black" points="810.03,-163.62 806.53,-153.62 803.03,-163.62 810.03,-163.62"/>
</g>
<!-- rbdl -->
<g id="node3" class="node">
<title>rbdl</title>
<g id="a_node3"><a xlink:href="https://github.com/conda-forge/rbdl-feedstock/pull/42" xlink:title="rbdl ❎">
<ellipse fill="#31688e" stroke="black" cx="601.53" cy="-18" rx="47" ry="18"/>
<text xml:space="preserve" text-anchor="middle" x="601.53" y="-13.32" font-family="Times,serif" font-size="14.00" fill="white">rbdl ❎</text>
</a>
</g>
</g>
<!-- eigenpy -->
<g id="node4" class="node">
<title>eigenpy</title>
<g id="a_node4"><a xlink:href="https://github.com/conda-forge/eigenpy-feedstock/pull/183" xlink:title="eigenpy ❎">
<ellipse fill="#31688e" stroke="black" cx="574.53" cy="-278" rx="65.94" ry="18"/>
<text xml:space="preserve" text-anchor="middle" x="574.53" y="-273.32" font-family="Times,serif" font-size="14.00" fill="white">eigenpy ❎</text>
</a>
</g>
</g>
<!-- pinocchio -->
<g id="node5" class="node">
<title>pinocchio</title>
<g id="a_node5"><a xlink:href="https://github.com/conda-forge/pinocchio-feedstock" xlink:title="pinocchio">
<ellipse fill="#fde725" stroke="black" cx="599.53" cy="-134" rx="58.57" ry="18"/>
<text xml:space="preserve" text-anchor="middle" x="599.53" y="-129.32" font-family="Times,serif" font-size="14.00">pinocchio</text>
</a>
</g>
</g>
<!-- eigenpy&#45;&gt;pinocchio -->
<g id="edge4" class="edge">
<title>eigenpy&#45;&gt;pinocchio</title>
<path fill="none" stroke="black" d="M577.59,-259.59C581.81,-235.61 589.47,-192.14 594.52,-163.42"/>
<polygon fill="black" stroke="black" points="597.96,-164.06 596.25,-153.6 591.07,-162.84 597.96,-164.06"/>
</g>
<!-- crocoddyl -->
<g id="node6" class="node">
<title>crocoddyl</title>
<g id="a_node6"><a xlink:href="https://github.com/conda-forge/crocoddyl-feedstock" xlink:title="crocoddyl">
<ellipse fill="#fde725" stroke="black" cx="532.53" cy="-62" rx="59.63" ry="18"/>
<text xml:space="preserve" text-anchor="middle" x="532.53" y="-57.33" font-family="Times,serif" font-size="14.00">crocoddyl</text>
</a>
</g>
</g>
<!-- eigenpy&#45;&gt;crocoddyl -->
<g id="edge3" class="edge">
<title>eigenpy&#45;&gt;crocoddyl</title>
<path fill="none" stroke="black" d="M566.5,-259.68C556.01,-235.98 538.19,-191.84 531.53,-152 528.89,-136.22 531.38,-132 531.53,-116 531.6,-108.06 531.74,-99.44 531.89,-91.51"/>
<polygon fill="black" stroke="black" points="535.39,-91.77 532.09,-81.7 528.39,-91.62 535.39,-91.77"/>
</g>
<!-- coal -->
<g id="node10" class="node">
<title>coal</title>
<g id="a_node10"><a xlink:href="https://github.com/conda-forge/coal-feedstock/pull/22" xlink:title="coal ✓">
<ellipse fill="#31688e" stroke="black" cx="641.53" cy="-206" rx="39.11" ry="18"/>
<text xml:space="preserve" text-anchor="middle" x="641.53" y="-201.32" font-family="Times,serif" font-size="14.00" fill="white">coal ✓</text>
</a>
</g>
</g>
<!-- eigenpy&#45;&gt;coal -->
<g id="edge2" class="edge">
<title>eigenpy&#45;&gt;coal</title>
<path fill="none" stroke="black" d="M590.4,-260.41C598.78,-251.66 609.22,-240.75 618.48,-231.08"/>
<polygon fill="black" stroke="black" points="620.79,-233.73 625.18,-224.08 615.73,-228.89 620.79,-233.73"/>
</g>
<!-- pinocchio&#45;&gt;crocoddyl -->
<g id="edge5" class="edge">
<title>pinocchio&#45;&gt;crocoddyl</title>
<path fill="none" stroke="black" d="M583.65,-116.41C575.47,-107.87 565.34,-97.28 556.25,-87.79"/>
<polygon fill="black" stroke="black" points="558.78,-85.37 549.34,-80.56 553.72,-90.21 558.78,-85.37"/>
</g>
<!-- roboplan -->
<g id="node12" class="node">
<title>roboplan</title>
<g id="a_node12"><a xlink:href="https://github.com/conda-forge/roboplan-feedstock" xlink:title="roboplan">
<ellipse fill="#fde725" stroke="black" cx="675.53" cy="-62" rx="55.42" ry="18"/>
<text xml:space="preserve" text-anchor="middle" x="675.53" y="-57.33" font-family="Times,serif" font-size="14.00">roboplan</text>
</a>
</g>
</g>
<!-- pinocchio&#45;&gt;roboplan -->
<g id="edge6" class="edge">
<title>pinocchio&#45;&gt;roboplan</title>
<path fill="none" stroke="black" d="M617.54,-116.41C627,-107.69 638.78,-96.85 649.24,-87.21"/>
<polygon fill="black" stroke="black" points="651.55,-89.84 656.53,-80.5 646.81,-84.7 651.55,-89.84"/>
</g>
<!-- manif -->
<g id="node7" class="node">
<title>manif</title>
<g id="a_node7"><a xlink:href="https://github.com/conda-forge/manif-feedstock/pull/57" xlink:title="manif ❎">
<ellipse fill="#31688e" stroke="black" cx="281.53" cy="-242" rx="54.89" ry="18"/>
<text xml:space="preserve" text-anchor="middle" x="281.53" y="-237.33" font-family="Times,serif" font-size="14.00" fill="white">manif ❎</text>
</a>
</g>
</g>
<!-- bipedal&#45;locomotion&#45;framework -->
<g id="node9" class="node">
<title>bipedal&#45;locomotion&#45;framework</title>
<g id="a_node9"><a xlink:href="https://github.com/conda-forge/bipedal-locomotion-framework-feedstock/pull/155" xlink:title="bipedal locomotion framework ❎">
<ellipse fill="#31688e" stroke="black" cx="178.53" cy="-170" rx="178.53" ry="18"/>
<text xml:space="preserve" text-anchor="middle" x="178.53" y="-165.33" font-family="Times,serif" font-size="14.00" fill="white">bipedal locomotion framework ❎</text>
</a>
</g>
</g>
<!-- manif&#45;&gt;bipedal&#45;locomotion&#45;framework -->
<g id="edge8" class="edge">
<title>manif&#45;&gt;bipedal&#45;locomotion&#45;framework</title>
<path fill="none" stroke="black" d="M258.41,-225.29C245.08,-216.23 228.06,-204.66 213.16,-194.53"/>
<polygon fill="black" stroke="black" points="215.22,-191.7 204.98,-188.98 211.28,-197.49 215.22,-191.7"/>
</g>
<!-- biomechanical&#45;analysis&#45;framework -->
<g id="node11" class="node">
<title>biomechanical&#45;analysis&#45;framework</title>
<g id="a_node11"><a xlink:href="https://github.com/conda-forge/biomechanical-analysis-framework-feedstock" xlink:title="biomechanical analysis framework">
<ellipse fill="#fde725" stroke="black" cx="281.53" cy="-98" rx="183.79" ry="18"/>
<text xml:space="preserve" text-anchor="middle" x="281.53" y="-93.33" font-family="Times,serif" font-size="14.00">biomechanical analysis framework</text>
</a>
</g>
</g>
<!-- manif&#45;&gt;biomechanical&#45;analysis&#45;framework -->
<g id="edge7" class="edge">
<title>manif&#45;&gt;biomechanical&#45;analysis&#45;framework</title>
<path fill="none" stroke="black" d="M317.67,-228.3C335.79,-219.88 356.06,-206.86 366.53,-188 374.29,-174.01 374.29,-165.99 366.53,-152 359.54,-139.4 348.17,-129.41 335.99,-121.65"/>
<polygon fill="black" stroke="black" points="337.82,-118.67 327.42,-116.66 334.3,-124.72 337.82,-118.67"/>
</g>
<!-- bipedal&#45;locomotion&#45;framework&#45;&gt;biomechanical&#45;analysis&#45;framework -->
<g id="edge9" class="edge">
<title>bipedal&#45;locomotion&#45;framework&#45;&gt;biomechanical&#45;analysis&#45;framework</title>
<path fill="none" stroke="black" d="M203.99,-151.7C216.96,-142.88 232.92,-132.03 246.99,-122.47"/>
<polygon fill="black" stroke="black" points="248.8,-125.47 255.11,-116.96 244.87,-119.68 248.8,-125.47"/>
</g>
<!-- coal&#45;&gt;pinocchio -->
<g id="edge10" class="edge">
<title>coal&#45;&gt;pinocchio</title>
<path fill="none" stroke="black" d="M631.57,-188.41C626.78,-180.42 620.91,-170.64 615.51,-161.64"/>
<polygon fill="black" stroke="black" points="618.63,-160.03 610.48,-153.25 612.62,-163.63 618.63,-160.03"/>
</g>
<!-- coal&#45;&gt;roboplan -->
<g id="edge11" class="edge">
<title>coal&#45;&gt;roboplan</title>
<path fill="none" stroke="black" d="M651.61,-188.45C657.29,-178.3 663.94,-164.83 667.53,-152 673.03,-132.34 674.99,-109.36 675.59,-91.69"/>
<polygon fill="black" stroke="black" points="679.09,-91.98 675.79,-81.91 672.09,-91.84 679.09,-91.98"/>
</g>
</g>
</svg>
