<?xml version="1.0" encoding="UTF-8" standalone="no"?>
<!DOCTYPE svg PUBLIC "-//W3C//DTD SVG 1.1//EN"
 "http://www.w3.org/Graphics/SVG/1.1/DTD/svg11.dtd">
<!-- Generated by graphviz version 13.1.2 (20250809.0930)
 -->
<!-- Pages: 1 -->
<svg width="1199pt" height="476pt"
 viewBox="0.00 0.00 1199.00 476.00" xmlns="http://www.w3.org/2000/svg" xmlns:xlink="http://www.w3.org/1999/xlink">
<g id="graph0" class="graph" transform="scale(1 1) rotate(0) translate(4 472)">
<polygon fill="white" stroke="none" points="-4,4 -4,-472 1194.83,-472 1194.83,4 -4,4"/>
<!-- casadi -->
<g id="node1" class="node">
<title>casadi</title>
<g id="a_node1"><a xlink:href="https://github.com/conda-forge/casadi-feedstock/pull/145" xlink:title="casadi ✓">
<ellipse fill="#31688e" stroke="black" cx="550.79" cy="-450" rx="50.68" ry="18"/>
<text xml:space="preserve" text-anchor="middle" x="550.79" y="-445.32" font-family="Times,serif" font-size="14.00" fill="white">casadi ✓</text>
</a>
</g>
</g>
<!-- rbdl -->
<g id="node2" class="node">
<title>rbdl</title>
<g id="a_node2"><a xlink:href="https://github.com/conda-forge/rbdl-feedstock/pull/42" xlink:title="rbdl ❎">
<ellipse fill="#31688e" stroke="black" cx="550.79" cy="-378" rx="47" ry="18"/>
<text xml:space="preserve" text-anchor="middle" x="550.79" y="-373.32" font-family="Times,serif" font-size="14.00" fill="white">rbdl ❎</text>
</a>
</g>
</g>
<!-- casadi&#45;&gt;rbdl -->
<g id="edge1" class="edge">
<title>casadi&#45;&gt;rbdl</title>
<path fill="none" stroke="black" d="M550.79,-431.7C550.79,-424.41 550.79,-415.73 550.79,-407.54"/>
<polygon fill="black" stroke="black" points="554.29,-407.62 550.79,-397.62 547.29,-407.62 554.29,-407.62"/>
</g>
<!-- pinocchio -->
<g id="node3" class="node">
<title>pinocchio</title>
<g id="a_node3"><a xlink:href="https://github.com/conda-forge/pinocchio-feedstock" xlink:title="pinocchio">
<ellipse fill="#fde725" stroke="black" cx="674.79" cy="-378" rx="58.57" ry="18"/>
<text xml:space="preserve" text-anchor="middle" x="674.79" y="-373.32" font-family="Times,serif" font-size="14.00">pinocchio</text>
</a>
</g>
</g>
<!-- casadi&#45;&gt;pinocchio -->
<g id="edge2" class="edge">
<title>casadi&#45;&gt;pinocchio</title>
<path fill="none" stroke="black" d="M577.08,-434.15C594.76,-424.18 618.31,-410.88 637.86,-399.84"/>
<polygon fill="black" stroke="black" points="639.37,-403.02 646.35,-395.05 635.92,-396.92 639.37,-403.02"/>
</g>
<!-- bipedal&#45;locomotion&#45;framework -->
<g id="node4" class="node">
<title>bipedal&#45;locomotion&#45;framework</title>
<g id="a_node4"><a xlink:href="https://github.com/conda-forge/bipedal-locomotion-framework-feedstock/pull/155" xlink:title="bipedal locomotion framework ❎">
<ellipse fill="#31688e" stroke="black" cx="306.79" cy="-378" rx="178.53" ry="18"/>
<text xml:space="preserve" text-anchor="middle" x="306.79" y="-373.32" font-family="Times,serif" font-size="14.00" fill="white">bipedal locomotion framework ❎</text>
</a>
</g>
</g>
<!-- casadi&#45;&gt;bipedal&#45;locomotion&#45;framework -->
<g id="edge3" class="edge">
<title>casadi&#45;&gt;bipedal&#45;locomotion&#45;framework</title>
<path fill="none" stroke="black" d="M512.13,-437.91C475.46,-427.39 419.55,-411.35 375.32,-398.66"/>
<polygon fill="black" stroke="black" points="376.38,-395.32 365.81,-395.93 374.45,-402.05 376.38,-395.32"/>
</g>
<!-- crocoddyl -->
<g id="node5" class="node">
<title>crocoddyl</title>
<g id="a_node5"><a xlink:href="https://github.com/conda-forge/crocoddyl-feedstock" xlink:title="crocoddyl">
<ellipse fill="#fde725" stroke="black" cx="519.79" cy="-306" rx="59.63" ry="18"/>
<text xml:space="preserve" text-anchor="middle" x="519.79" y="-301.32" font-family="Times,serif" font-size="14.00">crocoddyl</text>
</a>
</g>
</g>
<!-- pinocchio&#45;&gt;crocoddyl -->
<g id="edge4" class="edge">
<title>pinocchio&#45;&gt;crocoddyl</title>
<path fill="none" stroke="black" d="M642.67,-362.5C619.4,-351.98 587.69,-337.66 562.31,-326.2"/>
<polygon fill="black" stroke="black" points="563.8,-323.03 553.24,-322.11 560.92,-329.41 563.8,-323.03"/>
</g>
<!-- tsid -->
<g id="node6" class="node">
<title>tsid</title>
<g id="a_node6"><a xlink:href="https://github.com/conda-forge/tsid-feedstock" xlink:title="tsid">
<ellipse fill="#fde725" stroke="black" cx="597.79" cy="-234" rx="30.16" ry="18"/>
<text xml:space="preserve" text-anchor="middle" x="597.79" y="-229.32" font-family="Times,serif" font-size="14.00">tsid</text>
</a>
</g>
</g>
<!-- pinocchio&#45;&gt;tsid -->
<g id="edge5" class="edge">
<title>pinocchio&#45;&gt;tsid</title>
<path fill="none" stroke="black" d="M663.66,-360.07C657.05,-349.79 648.64,-336.31 641.79,-324 630.4,-303.55 618.71,-279.75 610.25,-261.91"/>
<polygon fill="black" stroke="black" points="613.49,-260.58 606.07,-253.02 607.16,-263.56 613.49,-260.58"/>
</g>
<!-- ndcurves -->
<g id="node7" class="node">
<title>ndcurves</title>
<g id="a_node7"><a xlink:href="https://github.com/conda-forge/ndcurves-feedstock" xlink:title="ndcurves">
<ellipse fill="#fde725" stroke="black" cx="608.79" cy="-162" rx="57" ry="18"/>
<text xml:space="preserve" text-anchor="middle" x="608.79" y="-157.32" font-family="Times,serif" font-size="14.00">ndcurves</text>
</a>
</g>
</g>
<!-- pinocchio&#45;&gt;ndcurves -->
<g id="edge6" class="edge">
<title>pinocchio&#45;&gt;ndcurves</title>
<path fill="none" stroke="black" d="M672.18,-359.66C667.36,-329.68 655.75,-266.55 636.79,-216 633.53,-207.33 629.16,-198.28 624.83,-190.17"/>
<polygon fill="black" stroke="black" points="627.92,-188.52 620.01,-181.47 621.8,-191.91 627.92,-188.52"/>
</g>
<!-- libfranka -->
<g id="node8" class="node">
<title>libfranka</title>
<g id="a_node8"><a xlink:href="https://github.com/conda-forge/libfranka-feedstock" xlink:title="libfranka">
<ellipse fill="#fde725" stroke="black" cx="670.79" cy="-90" rx="55.94" ry="18"/>
<text xml:space="preserve" text-anchor="middle" x="670.79" y="-85.33" font-family="Times,serif" font-size="14.00">libfranka</text>
</a>
</g>
</g>
<!-- pinocchio&#45;&gt;libfranka -->
<g id="edge7" class="edge">
<title>pinocchio&#45;&gt;libfranka</title>
<path fill="none" stroke="black" d="M675.27,-359.74C676.25,-321.09 678.11,-224.63 674.79,-144 674.46,-136.04 673.9,-127.42 673.3,-119.49"/>
<polygon fill="black" stroke="black" points="676.8,-119.36 672.5,-109.68 669.82,-119.93 676.8,-119.36"/>
</g>
<!-- roboplan -->
<g id="node9" class="node">
<title>roboplan</title>
<g id="a_node9"><a xlink:href="https://github.com/conda-forge/roboplan-feedstock" xlink:title="roboplan">
<ellipse fill="#fde725" stroke="black" cx="754.79" cy="-18" rx="55.42" ry="18"/>
<text xml:space="preserve" text-anchor="middle" x="754.79" y="-13.32" font-family="Times,serif" font-size="14.00">roboplan</text>
</a>
</g>
</g>
<!-- pinocchio&#45;&gt;roboplan -->
<g id="edge8" class="edge">
<title>pinocchio&#45;&gt;roboplan</title>
<path fill="none" stroke="black" d="M691.75,-360.35C715.24,-335.44 754.79,-285.93 754.79,-235 754.79,-235 754.79,-235 754.79,-161 754.79,-121.74 754.79,-76.38 754.79,-47.69"/>
<polygon fill="black" stroke="black" points="758.29,-48 754.79,-38 751.29,-48 758.29,-48"/>
</g>
<!-- hpp&#45;python -->
<g id="node10" class="node">
<title>hpp&#45;python</title>
<g id="a_node10"><a xlink:href="https://github.com/conda-forge/hpp-python-feedstock" xlink:title="hpp python">
<ellipse fill="#fde725" stroke="black" cx="850.79" cy="-306" rx="68.04" ry="18"/>
<text xml:space="preserve" text-anchor="middle" x="850.79" y="-301.32" font-family="Times,serif" font-size="14.00">hpp python</text>
</a>
</g>
</g>
<!-- pinocchio&#45;&gt;hpp&#45;python -->
<g id="edge9" class="edge">
<title>pinocchio&#45;&gt;hpp&#45;python</title>
<path fill="none" stroke="black" d="M709.56,-363.17C736.5,-352.45 774.11,-337.49 803.75,-325.71"/>
<polygon fill="black" stroke="black" points="804.87,-329.03 812.86,-322.08 802.28,-322.53 804.87,-329.03"/>
</g>
<!-- biomechanical&#45;analysis&#45;framework -->
<g id="node11" class="node">
<title>biomechanical&#45;analysis&#45;framework</title>
<g id="a_node11"><a xlink:href="https://github.com/conda-forge/biomechanical-analysis-framework-feedstock" xlink:title="biomechanical analysis framework">
<ellipse fill="#fde725" stroke="black" cx="183.79" cy="-306" rx="183.79" ry="18"/>
<text xml:space="preserve" text-anchor="middle" x="183.79" y="-301.32" font-family="Times,serif" font-size="14.00">biomechanical analysis framework</text>
</a>
</g>
</g>
<!-- bipedal&#45;locomotion&#45;framework&#45;&gt;biomechanical&#45;analysis&#45;framework -->
<g id="edge10" class="edge">
<title>bipedal&#45;locomotion&#45;framework&#45;&gt;biomechanical&#45;analysis&#45;framework</title>
<path fill="none" stroke="black" d="M276.7,-359.88C260.77,-350.81 240.99,-339.55 223.78,-329.76"/>
<polygon fill="black" stroke="black" points="225.73,-326.84 215.31,-324.94 222.27,-332.93 225.73,-326.84"/>
</g>
<!-- rdkit -->
<g id="node12" class="node">
<title>rdkit</title>
<g id="a_node12"><a xlink:href="https://github.com/conda-forge/rdkit-feedstock/pull/218" xlink:title="rdkit ✓">
<ellipse fill="#31688e" stroke="black" cx="986.79" cy="-306" rx="43.32" ry="18"/>
<text xml:space="preserve" text-anchor="middle" x="986.79" y="-301.32" font-family="Times,serif" font-size="14.00" fill="white">rdkit ✓</text>
</a>
</g>
</g>
<!-- nurikit -->
<g id="node13" class="node">
<title>nurikit</title>
<g id="a_node13"><a xlink:href="https://github.com/conda-forge/nurikit-feedstock/pull/18" xlink:title="nurikit ❎">
<ellipse fill="#31688e" stroke="black" cx="986.79" cy="-234" rx="60.15" ry="18"/>
<text xml:space="preserve" text-anchor="middle" x="986.79" y="-229.32" font-family="Times,serif" font-size="14.00" fill="white">nurikit ❎</text>
</a>
</g>
</g>
<!-- rdkit&#45;&gt;nurikit -->
<!-- lwtnn -->
<g id="node17" class="node">
<title>lwtnn</title>
<g id="a_node17"><a xlink:href="https://github.com/conda-forge/lwtnn-feedstock/pull/9" xlink:title="lwtnn ❎">
<ellipse fill="#31688e" stroke="black" cx="986.79" cy="-162" rx="54.89" ry="18"/>
<text xml:space="preserve" text-anchor="middle" x="986.79" y="-157.32" font-family="Times,serif" font-size="14.00" fill="white">lwtnn ❎</text>
</a>
</g>
</g>
<!-- nurikit&#45;&gt;lwtnn -->
<!-- cgal&#45;cpp -->
<g id="node14" class="node">
<title>cgal&#45;cpp</title>
<g id="a_node14"><a xlink:href="https://github.com/conda-forge/cgal-cpp-feedstock/pull/48" xlink:title="cgal cpp ❎">
<ellipse fill="#31688e" stroke="black" cx="1122.79" cy="-270" rx="68.04" ry="18"/>
<text xml:space="preserve" text-anchor="middle" x="1122.79" y="-265.32" font-family="Times,serif" font-size="14.00" fill="white">cgal cpp ❎</text>
</a>
</g>
</g>
<!-- colmap -->
<g id="node15" class="node">
<title>colmap</title>
<g id="a_node15"><a xlink:href="https://github.com/conda-forge/colmap-feedstock" xlink:title="colmap">
<ellipse fill="#fde725" stroke="black" cx="1122.79" cy="-198" rx="47" ry="18"/>
<text xml:space="preserve" text-anchor="middle" x="1122.79" y="-193.32" font-family="Times,serif" font-size="14.00">colmap</text>
</a>
</g>
</g>
<!-- cgal&#45;cpp&#45;&gt;colmap -->
<g id="edge12" class="edge">
<title>cgal&#45;cpp&#45;&gt;colmap</title>
<path fill="none" stroke="black" d="M1122.79,-251.7C1122.79,-244.41 1122.79,-235.73 1122.79,-227.54"/>
<polygon fill="black" stroke="black" points="1126.29,-227.62 1122.79,-217.62 1119.29,-227.62 1126.29,-227.62"/>
</g>
<!-- manif -->
<g id="node16" class="node">
<title>manif</title>
<g id="a_node16"><a xlink:href="https://github.com/conda-forge/manif-feedstock/pull/57" xlink:title="manif ❎">
<ellipse fill="#31688e" stroke="black" cx="203.79" cy="-450" rx="54.89" ry="18"/>
<text xml:space="preserve" text-anchor="middle" x="203.79" y="-445.32" font-family="Times,serif" font-size="14.00" fill="white">manif ❎</text>
</a>
</g>
</g>
<!-- manif&#45;&gt;bipedal&#45;locomotion&#45;framework -->
<g id="edge13" class="edge">
<title>manif&#45;&gt;bipedal&#45;locomotion&#45;framework</title>
<path fill="none" stroke="black" d="M226.9,-433.29C240.23,-424.23 257.26,-412.66 272.16,-402.53"/>
<polygon fill="black" stroke="black" points="274.03,-405.49 280.33,-396.98 270.1,-399.7 274.03,-405.49"/>
</g>
<!-- manif&#45;&gt;biomechanical&#45;analysis&#45;framework -->
<g id="edge14" class="edge">
<title>manif&#45;&gt;biomechanical&#45;analysis&#45;framework</title>
<path fill="none" stroke="black" d="M167.64,-436.3C149.52,-427.88 129.25,-414.86 118.79,-396 111.02,-382.01 111.92,-374.45 118.79,-360 124.19,-348.62 133.37,-338.88 143.15,-330.97"/>
<polygon fill="black" stroke="black" points="145.06,-333.91 150.99,-325.13 140.88,-328.29 145.06,-333.91"/>
</g>
</g>
</svg>
