<?xml version="1.0" encoding="UTF-8" standalone="no"?>
<!DOCTYPE svg PUBLIC "-//W3C//DTD SVG 1.1//EN"
 "http://www.w3.org/Graphics/SVG/1.1/DTD/svg11.dtd">
<!-- Generated by graphviz version 13.1.2 (20250809.0930)
 -->
<!-- Pages: 1 -->
<svg width="873pt" height="232pt"
 viewBox="0.00 0.00 873.00 232.00" xmlns="http://www.w3.org/2000/svg" xmlns:xlink="http://www.w3.org/1999/xlink">
<g id="graph0" class="graph" transform="scale(1 1) rotate(0) translate(4 228)">
<polygon fill="white" stroke="none" points="-4,4 -4,-228 868.57,-228 868.57,4 -4,4"/>
<!-- rdkit -->
<g id="node1" class="node">
<title>rdkit</title>
<g id="a_node1"><a xlink:href="https://github.com/conda-forge/rdkit-feedstock/pull/216" xlink:title="rdkit ❎">
<ellipse fill="#31688e" stroke="black" cx="596.53" cy="-18" rx="50.68" ry="18"/>
<text xml:space="preserve" text-anchor="middle" x="596.53" y="-13.32" font-family="Times,serif" font-size="14.00" fill="white">rdkit ❎</text>
</a>
</g>
</g>
<!-- cgal&#45;cpp -->
<g id="node2" class="node">
<title>cgal&#45;cpp</title>
<g id="a_node2"><a xlink:href="https://github.com/conda-forge/cgal-cpp-feedstock/pull/48" xlink:title="cgal cpp ❎">
<ellipse fill="#31688e" stroke="black" cx="796.53" cy="-170" rx="68.04" ry="18"/>
<text xml:space="preserve" text-anchor="middle" x="796.53" y="-165.33" font-family="Times,serif" font-size="14.00" fill="white">cgal cpp ❎</text>
</a>
</g>
</g>
<!-- colmap -->
<g id="node8" class="node">
<title>colmap</title>
<g id="a_node8"><a xlink:href="https://github.com/conda-forge/colmap-feedstock" xlink:title="colmap">
<ellipse fill="#fde725" stroke="black" cx="796.53" cy="-98" rx="47" ry="18"/>
<text xml:space="preserve" text-anchor="middle" x="796.53" y="-93.33" font-family="Times,serif" font-size="14.00">colmap</text>
</a>
</g>
</g>
<!-- cgal&#45;cpp&#45;&gt;colmap -->
<g id="edge1" class="edge">
<title>cgal&#45;cpp&#45;&gt;colmap</title>
<path fill="none" stroke="black" d="M796.53,-151.7C796.53,-144.41 796.53,-135.73 796.53,-127.54"/>
<polygon fill="black" stroke="black" points="800.03,-127.62 796.53,-117.62 793.03,-127.62 800.03,-127.62"/>
</g>
<!-- rbdl -->
<g id="node3" class="node">
<title>rbdl</title>
<g id="a_node3"><a xlink:href="https://github.com/conda-forge/rbdl-feedstock/pull/42" xlink:title="rbdl ❎">
<ellipse fill="#31688e" stroke="black" cx="796.53" cy="-18" rx="47" ry="18"/>
<text xml:space="preserve" text-anchor="middle" x="796.53" y="-13.32" font-family="Times,serif" font-size="14.00" fill="white">rbdl ❎</text>
</a>
</g>
</g>
<!-- eigenpy -->
<g id="node4" class="node">
<title>eigenpy</title>
<g id="a_node4"><a xlink:href="https://github.com/conda-forge/eigenpy-feedstock/pull/183" xlink:title="eigenpy ❎">
<ellipse fill="#31688e" stroke="black" cx="575.53" cy="-206" rx="65.94" ry="18"/>
<text xml:space="preserve" text-anchor="middle" x="575.53" y="-201.32" font-family="Times,serif" font-size="14.00" fill="white">eigenpy ❎</text>
</a>
</g>
</g>
<!-- pinocchio -->
<g id="node5" class="node">
<title>pinocchio</title>
<g id="a_node5"><a xlink:href="https://github.com/conda-forge/pinocchio-feedstock" xlink:title="pinocchio">
<ellipse fill="#fde725" stroke="black" cx="619.53" cy="-134" rx="58.57" ry="18"/>
<text xml:space="preserve" text-anchor="middle" x="619.53" y="-129.32" font-family="Times,serif" font-size="14.00">pinocchio</text>
</a>
</g>
</g>
<!-- eigenpy&#45;&gt;pinocchio -->
<g id="edge3" class="edge">
<title>eigenpy&#45;&gt;pinocchio</title>
<path fill="none" stroke="black" d="M586.18,-188.05C591.2,-180.06 597.32,-170.33 602.93,-161.4"/>
<polygon fill="black" stroke="black" points="605.81,-163.4 608.17,-153.07 599.88,-159.67 605.81,-163.4"/>
</g>
<!-- crocoddyl -->
<g id="node6" class="node">
<title>crocoddyl</title>
<g id="a_node6"><a xlink:href="https://github.com/conda-forge/crocoddyl-feedstock" xlink:title="crocoddyl">
<ellipse fill="#fde725" stroke="black" cx="532.53" cy="-62" rx="59.63" ry="18"/>
<text xml:space="preserve" text-anchor="middle" x="532.53" y="-57.33" font-family="Times,serif" font-size="14.00">crocoddyl</text>
</a>
</g>
</g>
<!-- eigenpy&#45;&gt;crocoddyl -->
<g id="edge2" class="edge">
<title>eigenpy&#45;&gt;crocoddyl</title>
<path fill="none" stroke="black" d="M566.56,-187.71C561.57,-177.53 555.57,-164.28 551.53,-152 545.03,-132.24 540.19,-109.28 537.02,-91.62"/>
<polygon fill="black" stroke="black" points="540.49,-91.11 535.35,-81.84 533.59,-92.29 540.49,-91.11"/>
</g>
<!-- pinocchio&#45;&gt;crocoddyl -->
<g id="edge4" class="edge">
<title>pinocchio&#45;&gt;crocoddyl</title>
<path fill="none" stroke="black" d="M599.35,-116.76C588.12,-107.73 573.95,-96.33 561.55,-86.35"/>
<polygon fill="black" stroke="black" points="564.06,-83.88 554.08,-80.34 559.67,-89.33 564.06,-83.88"/>
</g>
<!-- roboplan -->
<g id="node12" class="node">
<title>roboplan</title>
<g id="a_node12"><a xlink:href="https://github.com/conda-forge/roboplan-feedstock" xlink:title="roboplan">
<ellipse fill="#fde725" stroke="black" cx="665.53" cy="-62" rx="55.42" ry="18"/>
<text xml:space="preserve" text-anchor="middle" x="665.53" y="-57.33" font-family="Times,serif" font-size="14.00">roboplan</text>
</a>
</g>
</g>
<!-- pinocchio&#45;&gt;roboplan -->
<g id="edge5" class="edge">
<title>pinocchio&#45;&gt;roboplan</title>
<path fill="none" stroke="black" d="M630.66,-116.05C635.92,-108.06 642.31,-98.33 648.18,-89.4"/>
<polygon fill="black" stroke="black" points="651.1,-91.33 653.66,-81.05 645.25,-87.49 651.1,-91.33"/>
</g>
<!-- manif -->
<g id="node7" class="node">
<title>manif</title>
<g id="a_node7"><a xlink:href="https://github.com/conda-forge/manif-feedstock/pull/57" xlink:title="manif ❎">
<ellipse fill="#31688e" stroke="black" cx="281.53" cy="-206" rx="54.89" ry="18"/>
<text xml:space="preserve" text-anchor="middle" x="281.53" y="-201.32" font-family="Times,serif" font-size="14.00" fill="white">manif ❎</text>
</a>
</g>
</g>
<!-- bipedal&#45;locomotion&#45;framework -->
<g id="node9" class="node">
<title>bipedal&#45;locomotion&#45;framework</title>
<g id="a_node9"><a xlink:href="https://github.com/conda-forge/bipedal-locomotion-framework-feedstock/pull/155" xlink:title="bipedal locomotion framework ❎">
<ellipse fill="#31688e" stroke="black" cx="178.53" cy="-134" rx="178.53" ry="18"/>
<text xml:space="preserve" text-anchor="middle" x="178.53" y="-129.32" font-family="Times,serif" font-size="14.00" fill="white">bipedal locomotion framework ❎</text>
</a>
</g>
</g>
<!-- manif&#45;&gt;bipedal&#45;locomotion&#45;framework -->
<g id="edge7" class="edge">
<title>manif&#45;&gt;bipedal&#45;locomotion&#45;framework</title>
<path fill="none" stroke="black" d="M258.41,-189.29C245.08,-180.23 228.06,-168.66 213.16,-158.53"/>
<polygon fill="black" stroke="black" points="215.22,-155.7 204.98,-152.98 211.28,-161.49 215.22,-155.7"/>
</g>
<!-- biomechanical&#45;analysis&#45;framework -->
<g id="node10" class="node">
<title>biomechanical&#45;analysis&#45;framework</title>
<g id="a_node10"><a xlink:href="https://github.com/conda-forge/biomechanical-analysis-framework-feedstock" xlink:title="biomechanical analysis framework">
<ellipse fill="#fde725" stroke="black" cx="281.53" cy="-62" rx="183.79" ry="18"/>
<text xml:space="preserve" text-anchor="middle" x="281.53" y="-57.33" font-family="Times,serif" font-size="14.00">biomechanical analysis framework</text>
</a>
</g>
</g>
<!-- manif&#45;&gt;biomechanical&#45;analysis&#45;framework -->
<g id="edge6" class="edge">
<title>manif&#45;&gt;biomechanical&#45;analysis&#45;framework</title>
<path fill="none" stroke="black" d="M317.67,-192.3C335.79,-183.88 356.06,-170.86 366.53,-152 374.29,-138.01 374.29,-129.99 366.53,-116 359.54,-103.4 348.17,-93.41 335.99,-85.65"/>
<polygon fill="black" stroke="black" points="337.82,-82.67 327.42,-80.66 334.3,-88.72 337.82,-82.67"/>
</g>
<!-- bipedal&#45;locomotion&#45;framework&#45;&gt;biomechanical&#45;analysis&#45;framework -->
<g id="edge8" class="edge">
<title>bipedal&#45;locomotion&#45;framework&#45;&gt;biomechanical&#45;analysis&#45;framework</title>
<path fill="none" stroke="black" d="M203.99,-115.7C216.96,-106.88 232.92,-96.03 246.99,-86.47"/>
<polygon fill="black" stroke="black" points="248.8,-89.47 255.11,-80.96 244.87,-83.68 248.8,-89.47"/>
</g>
<!-- nurikit -->
<g id="node11" class="node">
<title>nurikit</title>
<g id="a_node11"><a xlink:href="https://github.com/conda-forge/nurikit-feedstock/pull/18" xlink:title="nurikit ❎">
<ellipse fill="#31688e" stroke="black" cx="232.53" cy="-18" rx="60.15" ry="18"/>
<text xml:space="preserve" text-anchor="middle" x="232.53" y="-13.32" font-family="Times,serif" font-size="14.00" fill="white">nurikit ❎</text>
</a>
</g>
</g>
</g>
</svg>
