<?xml version="1.0" encoding="UTF-8" standalone="no"?>
<!DOCTYPE svg PUBLIC "-//W3C//DTD SVG 1.1//EN"
 "http://www.w3.org/Graphics/SVG/1.1/DTD/svg11.dtd">
<!-- Generated by graphviz version 13.1.2 (20250809.0930)
 -->
<!-- Pages: 1 -->
<svg width="1163pt" height="404pt"
 viewBox="0.00 0.00 1163.00 404.00" xmlns="http://www.w3.org/2000/svg" xmlns:xlink="http://www.w3.org/1999/xlink">
<g id="graph0" class="graph" transform="scale(1 1) rotate(0) translate(4 400)">
<polygon fill="white" stroke="none" points="-4,4 -4,-400 1158.83,-400 1158.83,4 -4,4"/>
<!-- casadi -->
<g id="node1" class="node">
<title>casadi</title>
<g id="a_node1"><a xlink:href="https://github.com/conda-forge/casadi-feedstock/pull/142" xlink:title="casadi ❎">
<ellipse fill="#31688e" stroke="black" cx="533.79" cy="-378" rx="58.05" ry="18"/>
<text xml:space="preserve" text-anchor="middle" x="533.79" y="-373.32" font-family="Times,serif" font-size="14.00" fill="white">casadi ❎</text>
</a>
</g>
</g>
<!-- rbdl -->
<g id="node2" class="node">
<title>rbdl</title>
<g id="a_node2"><a xlink:href="https://github.com/conda-forge/rbdl-feedstock/pull/42" xlink:title="rbdl ❎">
<ellipse fill="#31688e" stroke="black" cx="533.79" cy="-306" rx="47" ry="18"/>
<text xml:space="preserve" text-anchor="middle" x="533.79" y="-301.32" font-family="Times,serif" font-size="14.00" fill="white">rbdl ❎</text>
</a>
</g>
</g>
<!-- casadi&#45;&gt;rbdl -->
<g id="edge1" class="edge">
<title>casadi&#45;&gt;rbdl</title>
<path fill="none" stroke="black" d="M533.79,-359.7C533.79,-352.41 533.79,-343.73 533.79,-335.54"/>
<polygon fill="black" stroke="black" points="537.29,-335.62 533.79,-325.62 530.29,-335.62 537.29,-335.62"/>
</g>
<!-- pinocchio -->
<g id="node3" class="node">
<title>pinocchio</title>
<g id="a_node3"><a xlink:href="https://github.com/conda-forge/pinocchio-feedstock" xlink:title="pinocchio">
<ellipse fill="#fde725" stroke="black" cx="657.79" cy="-306" rx="58.57" ry="18"/>
<text xml:space="preserve" text-anchor="middle" x="657.79" y="-301.32" font-family="Times,serif" font-size="14.00">pinocchio</text>
</a>
</g>
</g>
<!-- casadi&#45;&gt;pinocchio -->
<g id="edge2" class="edge">
<title>casadi&#45;&gt;pinocchio</title>
<path fill="none" stroke="black" d="M561,-361.64C578.53,-351.75 601.53,-338.76 620.72,-327.93"/>
<polygon fill="black" stroke="black" points="622.33,-331.03 629.32,-323.07 618.89,-324.94 622.33,-331.03"/>
</g>
<!-- bipedal&#45;locomotion&#45;framework -->
<g id="node4" class="node">
<title>bipedal&#45;locomotion&#45;framework</title>
<g id="a_node4"><a xlink:href="https://github.com/conda-forge/bipedal-locomotion-framework-feedstock/pull/155" xlink:title="bipedal locomotion framework ❎">
<ellipse fill="#31688e" stroke="black" cx="289.79" cy="-306" rx="178.53" ry="18"/>
<text xml:space="preserve" text-anchor="middle" x="289.79" y="-301.32" font-family="Times,serif" font-size="14.00" fill="white">bipedal locomotion framework ❎</text>
</a>
</g>
</g>
<!-- casadi&#45;&gt;bipedal&#45;locomotion&#45;framework -->
<g id="edge3" class="edge">
<title>casadi&#45;&gt;bipedal&#45;locomotion&#45;framework</title>
<path fill="none" stroke="black" d="M492.12,-365.05C455.43,-354.52 401.3,-338.99 358.25,-326.64"/>
<polygon fill="black" stroke="black" points="359.32,-323.31 348.74,-323.91 357.39,-330.03 359.32,-323.31"/>
</g>
<!-- crocoddyl -->
<g id="node5" class="node">
<title>crocoddyl</title>
<g id="a_node5"><a xlink:href="https://github.com/conda-forge/crocoddyl-feedstock" xlink:title="crocoddyl">
<ellipse fill="#fde725" stroke="black" cx="538.79" cy="-234" rx="59.63" ry="18"/>
<text xml:space="preserve" text-anchor="middle" x="538.79" y="-229.32" font-family="Times,serif" font-size="14.00">crocoddyl</text>
</a>
</g>
</g>
<!-- pinocchio&#45;&gt;crocoddyl -->
<g id="edge4" class="edge">
<title>pinocchio&#45;&gt;crocoddyl</title>
<path fill="none" stroke="black" d="M631.38,-289.46C614.74,-279.68 593.04,-266.91 574.83,-256.2"/>
<polygon fill="black" stroke="black" points="576.82,-253.31 566.43,-251.26 573.27,-259.35 576.82,-253.31"/>
</g>
<!-- libfranka -->
<g id="node6" class="node">
<title>libfranka</title>
<g id="a_node6"><a xlink:href="https://github.com/conda-forge/libfranka-feedstock" xlink:title="libfranka">
<ellipse fill="#fde725" stroke="black" cx="603.79" cy="-162" rx="55.94" ry="18"/>
<text xml:space="preserve" text-anchor="middle" x="603.79" y="-157.32" font-family="Times,serif" font-size="14.00">libfranka</text>
</a>
</g>
</g>
<!-- pinocchio&#45;&gt;libfranka -->
<g id="edge5" class="edge">
<title>pinocchio&#45;&gt;libfranka</title>
<path fill="none" stroke="black" d="M651.27,-287.87C642.11,-263.78 625.31,-219.6 614.35,-190.77"/>
<polygon fill="black" stroke="black" points="617.69,-189.71 610.86,-181.6 611.15,-192.2 617.69,-189.71"/>
</g>
<!-- roboplan -->
<g id="node7" class="node">
<title>roboplan</title>
<g id="a_node7"><a xlink:href="https://github.com/conda-forge/roboplan-feedstock" xlink:title="roboplan">
<ellipse fill="#fde725" stroke="black" cx="687.79" cy="-90" rx="55.42" ry="18"/>
<text xml:space="preserve" text-anchor="middle" x="687.79" y="-85.33" font-family="Times,serif" font-size="14.00">roboplan</text>
</a>
</g>
</g>
<!-- pinocchio&#45;&gt;roboplan -->
<g id="edge6" class="edge">
<title>pinocchio&#45;&gt;roboplan</title>
<path fill="none" stroke="black" d="M660.19,-287.85C665.34,-251.14 677.46,-164.66 683.79,-119.53"/>
<polygon fill="black" stroke="black" points="687.24,-120.12 685.16,-109.73 680.31,-119.15 687.24,-120.12"/>
</g>
<!-- hpp&#45;python -->
<g id="node8" class="node">
<title>hpp&#45;python</title>
<g id="a_node8"><a xlink:href="https://github.com/conda-forge/hpp-python-feedstock" xlink:title="hpp python">
<ellipse fill="#fde725" stroke="black" cx="770.79" cy="-18" rx="68.04" ry="18"/>
<text xml:space="preserve" text-anchor="middle" x="770.79" y="-13.32" font-family="Times,serif" font-size="14.00">hpp python</text>
</a>
</g>
</g>
<!-- pinocchio&#45;&gt;hpp&#45;python -->
<g id="edge7" class="edge">
<title>pinocchio&#45;&gt;hpp&#45;python</title>
<path fill="none" stroke="black" d="M667.64,-287.92C686.56,-254.45 728.18,-177.42 751.79,-108 758.48,-88.31 763.32,-65.34 766.43,-47.67"/>
<polygon fill="black" stroke="black" points="769.87,-48.32 768.07,-37.88 762.97,-47.16 769.87,-48.32"/>
</g>
<!-- biomechanical&#45;analysis&#45;framework -->
<g id="node9" class="node">
<title>biomechanical&#45;analysis&#45;framework</title>
<g id="a_node9"><a xlink:href="https://github.com/conda-forge/biomechanical-analysis-framework-feedstock" xlink:title="biomechanical analysis framework">
<ellipse fill="#fde725" stroke="black" cx="183.79" cy="-234" rx="183.79" ry="18"/>
<text xml:space="preserve" text-anchor="middle" x="183.79" y="-229.32" font-family="Times,serif" font-size="14.00">biomechanical analysis framework</text>
</a>
</g>
</g>
<!-- bipedal&#45;locomotion&#45;framework&#45;&gt;biomechanical&#45;analysis&#45;framework -->
<g id="edge8" class="edge">
<title>bipedal&#45;locomotion&#45;framework&#45;&gt;biomechanical&#45;analysis&#45;framework</title>
<path fill="none" stroke="black" d="M263.86,-287.88C250.38,-278.98 233.72,-267.97 219.09,-258.31"/>
<polygon fill="black" stroke="black" points="221.35,-255.61 211.08,-253.02 217.5,-261.46 221.35,-255.61"/>
</g>
<!-- rdkit -->
<g id="node10" class="node">
<title>rdkit</title>
<g id="a_node10"><a xlink:href="https://github.com/conda-forge/rdkit-feedstock/pull/218" xlink:title="rdkit ✓">
<ellipse fill="#31688e" stroke="black" cx="928.79" cy="-306" rx="43.32" ry="18"/>
<text xml:space="preserve" text-anchor="middle" x="928.79" y="-301.32" font-family="Times,serif" font-size="14.00" fill="white">rdkit ✓</text>
</a>
</g>
</g>
<!-- nurikit -->
<g id="node11" class="node">
<title>nurikit</title>
<g id="a_node11"><a xlink:href="https://github.com/conda-forge/nurikit-feedstock/pull/18" xlink:title="nurikit ❎">
<ellipse fill="#31688e" stroke="black" cx="928.79" cy="-234" rx="60.15" ry="18"/>
<text xml:space="preserve" text-anchor="middle" x="928.79" y="-229.32" font-family="Times,serif" font-size="14.00" fill="white">nurikit ❎</text>
</a>
</g>
</g>
<!-- rdkit&#45;&gt;nurikit -->
<!-- lwtnn -->
<g id="node15" class="node">
<title>lwtnn</title>
<g id="a_node15"><a xlink:href="https://github.com/conda-forge/lwtnn-feedstock/pull/9" xlink:title="lwtnn ❎">
<ellipse fill="#31688e" stroke="black" cx="928.79" cy="-162" rx="54.89" ry="18"/>
<text xml:space="preserve" text-anchor="middle" x="928.79" y="-157.32" font-family="Times,serif" font-size="14.00" fill="white">lwtnn ❎</text>
</a>
</g>
</g>
<!-- nurikit&#45;&gt;lwtnn -->
<!-- cgal&#45;cpp -->
<g id="node12" class="node">
<title>cgal&#45;cpp</title>
<g id="a_node12"><a xlink:href="https://github.com/conda-forge/cgal-cpp-feedstock/pull/48" xlink:title="cgal cpp ❎">
<ellipse fill="#31688e" stroke="black" cx="1086.79" cy="-234" rx="68.04" ry="18"/>
<text xml:space="preserve" text-anchor="middle" x="1086.79" y="-229.32" font-family="Times,serif" font-size="14.00" fill="white">cgal cpp ❎</text>
</a>
</g>
</g>
<!-- colmap -->
<g id="node13" class="node">
<title>colmap</title>
<g id="a_node13"><a xlink:href="https://github.com/conda-forge/colmap-feedstock" xlink:title="colmap">
<ellipse fill="#fde725" stroke="black" cx="1086.79" cy="-162" rx="47" ry="18"/>
<text xml:space="preserve" text-anchor="middle" x="1086.79" y="-157.32" font-family="Times,serif" font-size="14.00">colmap</text>
</a>
</g>
</g>
<!-- cgal&#45;cpp&#45;&gt;colmap -->
<g id="edge10" class="edge">
<title>cgal&#45;cpp&#45;&gt;colmap</title>
<path fill="none" stroke="black" d="M1086.79,-215.7C1086.79,-208.41 1086.79,-199.73 1086.79,-191.54"/>
<polygon fill="black" stroke="black" points="1090.29,-191.62 1086.79,-181.62 1083.29,-191.62 1090.29,-191.62"/>
</g>
<!-- manif -->
<g id="node14" class="node">
<title>manif</title>
<g id="a_node14"><a xlink:href="https://github.com/conda-forge/manif-feedstock/pull/57" xlink:title="manif ❎">
<ellipse fill="#31688e" stroke="black" cx="186.79" cy="-378" rx="54.89" ry="18"/>
<text xml:space="preserve" text-anchor="middle" x="186.79" y="-373.32" font-family="Times,serif" font-size="14.00" fill="white">manif ❎</text>
</a>
</g>
</g>
<!-- manif&#45;&gt;bipedal&#45;locomotion&#45;framework -->
<g id="edge11" class="edge">
<title>manif&#45;&gt;bipedal&#45;locomotion&#45;framework</title>
<path fill="none" stroke="black" d="M209.9,-361.29C223.23,-352.23 240.26,-340.66 255.16,-330.53"/>
<polygon fill="black" stroke="black" points="257.03,-333.49 263.33,-324.98 253.1,-327.7 257.03,-333.49"/>
</g>
<!-- manif&#45;&gt;biomechanical&#45;analysis&#45;framework -->
<g id="edge12" class="edge">
<title>manif&#45;&gt;biomechanical&#45;analysis&#45;framework</title>
<path fill="none" stroke="black" d="M150.64,-364.3C132.52,-355.88 112.25,-342.86 101.79,-324 94.02,-310.01 94.14,-302.05 101.79,-288 108.63,-275.43 119.88,-265.39 131.88,-257.57"/>
<polygon fill="black" stroke="black" points="133.51,-260.68 140.3,-252.55 129.92,-254.67 133.51,-260.68"/>
</g>
<!-- spot&#45;cpp&#45;sdk -->
<g id="node16" class="node">
<title>spot&#45;cpp&#45;sdk</title>
<g id="a_node16"><a xlink:href="https://github.com/conda-forge/spot-cpp-sdk-feedstock/pull/3" xlink:title="spot cpp sdk ✓">
<ellipse fill="#31688e" stroke="black" cx="928.79" cy="-90" rx="82.25" ry="18"/>
<text xml:space="preserve" text-anchor="middle" x="928.79" y="-85.33" font-family="Times,serif" font-size="14.00" fill="white">spot cpp sdk ✓</text>
</a>
</g>
</g>
<!-- lwtnn&#45;&gt;spot&#45;cpp&#45;sdk -->
</g>
</svg>
