<?xml version="1.0" encoding="UTF-8" standalone="no"?>
<!DOCTYPE svg PUBLIC "-//W3C//DTD SVG 1.1//EN"
 "http://www.w3.org/Graphics/SVG/1.1/DTD/svg11.dtd">
<!-- Generated by graphviz version 12.0.0 (20240803.0821)
 -->
<!-- Pages: 1 -->
<svg width="1102pt" height="188pt"
 viewBox="0.00 0.00 1102.45 188.00" xmlns="http://www.w3.org/2000/svg" xmlns:xlink="http://www.w3.org/1999/xlink">
<g id="graph0" class="graph" transform="scale(1 1) rotate(0) translate(4 184)">
<polygon fill="white" stroke="none" points="-4,4 -4,-184 1098.45,-184 1098.45,4 -4,4"/>
<!-- basemap -->
<g id="node1" class="node">
<title>basemap</title>
<g id="a_node1"><a xlink:href="https://github.com/conda-forge/basemap-feedstock/pull/135" xlink:title="basemap ❎">
<ellipse fill="#31688e" stroke="black" cx="1023.25" cy="-90" rx="71.2" ry="18"/>
<text text-anchor="middle" x="1023.25" y="-85.33" font-family="Times,serif" font-size="14.00" fill="white">basemap ❎</text>
</a>
</g>
</g>
<!-- gdal -->
<g id="node2" class="node">
<title>gdal</title>
<g id="a_node2"><a xlink:href="https://github.com/conda-forge/gdal-feedstock" xlink:title="gdal">
<ellipse fill="#35b779" stroke="black" cx="349.22" cy="-162" rx="32.79" ry="18"/>
<text text-anchor="middle" x="349.22" y="-157.32" font-family="Times,serif" font-size="14.00">gdal</text>
</a>
</g>
</g>
<!-- gmt -->
<g id="node3" class="node">
<title>gmt</title>
<g id="a_node3"><a xlink:href="https://github.com/conda-forge/gmt-feedstock" xlink:title="gmt">
<ellipse fill="#fde725" stroke="black" cx="31.22" cy="-90" rx="31.22" ry="18"/>
<text text-anchor="middle" x="31.22" y="-85.33" font-family="Times,serif" font-size="14.00">gmt</text>
</a>
</g>
</g>
<!-- gdal&#45;&gt;gmt -->
<g id="edge2" class="edge">
<title>gdal&#45;&gt;gmt</title>
<path fill="none" stroke="black" d="M317.42,-157.19C265.21,-150.43 158.42,-134.51 71.22,-108 69.38,-107.44 67.51,-106.83 65.64,-106.17"/>
<polygon fill="black" stroke="black" points="67.02,-102.95 56.43,-102.64 64.52,-109.49 67.02,-102.95"/>
</g>
<!-- postgis -->
<g id="node4" class="node">
<title>postgis</title>
<g id="a_node4"><a xlink:href="https://github.com/conda-forge/postgis-feedstock" xlink:title="postgis">
<ellipse fill="#fde725" stroke="black" cx="128.22" cy="-90" rx="47.53" ry="18"/>
<text text-anchor="middle" x="128.22" y="-85.33" font-family="Times,serif" font-size="14.00">postgis</text>
</a>
</g>
</g>
<!-- gdal&#45;&gt;postgis -->
<g id="edge5" class="edge">
<title>gdal&#45;&gt;postgis</title>
<path fill="none" stroke="black" d="M321.23,-152.13C284.29,-140.43 218.76,-119.68 174.42,-105.63"/>
<polygon fill="black" stroke="black" points="175.67,-102.36 165.08,-102.68 173.55,-109.03 175.67,-102.36"/>
</g>
<!-- qgis -->
<g id="node5" class="node">
<title>qgis</title>
<g id="a_node5"><a xlink:href="https://github.com/conda-forge/qgis-feedstock" xlink:title="qgis">
<ellipse fill="#fde725" stroke="black" cx="226.22" cy="-90" rx="32.27" ry="18"/>
<text text-anchor="middle" x="226.22" y="-85.33" font-family="Times,serif" font-size="14.00">qgis</text>
</a>
</g>
</g>
<!-- gdal&#45;&gt;qgis -->
<g id="edge6" class="edge">
<title>gdal&#45;&gt;qgis</title>
<path fill="none" stroke="black" d="M326.94,-148.32C307.7,-137.37 279.66,-121.41 258.05,-109.12"/>
<polygon fill="black" stroke="black" points="260.06,-106.24 249.64,-104.33 256.6,-112.32 260.06,-106.24"/>
</g>
<!-- r&#45;sf -->
<g id="node6" class="node">
<title>r&#45;sf</title>
<g id="a_node6"><a xlink:href="https://github.com/conda-forge/r-sf-feedstock" xlink:title="r sf">
<ellipse fill="#fde725" stroke="black" cx="304.22" cy="-90" rx="28.06" ry="18"/>
<text text-anchor="middle" x="304.22" y="-85.33" font-family="Times,serif" font-size="14.00">r sf</text>
</a>
</g>
</g>
<!-- gdal&#45;&gt;r&#45;sf -->
<g id="edge7" class="edge">
<title>gdal&#45;&gt;r&#45;sf</title>
<path fill="none" stroke="black" d="M338.78,-144.76C333.44,-136.46 326.81,-126.15 320.8,-116.79"/>
<polygon fill="black" stroke="black" points="323.77,-114.94 315.41,-108.42 317.88,-118.72 323.77,-114.94"/>
</g>
<!-- r&#45;terra -->
<g id="node9" class="node">
<title>r&#45;terra</title>
<g id="a_node9"><a xlink:href="https://github.com/conda-forge/r-terra-feedstock" xlink:title="r terra">
<ellipse fill="#fde725" stroke="black" cx="394.22" cy="-90" rx="44.37" ry="18"/>
<text text-anchor="middle" x="394.22" y="-85.33" font-family="Times,serif" font-size="14.00">r terra</text>
</a>
</g>
</g>
<!-- gdal&#45;&gt;r&#45;terra -->
<g id="edge8" class="edge">
<title>gdal&#45;&gt;r&#45;terra</title>
<path fill="none" stroke="black" d="M359.65,-144.76C364.92,-136.58 371.43,-126.45 377.38,-117.2"/>
<polygon fill="black" stroke="black" points="380.24,-119.21 382.7,-108.91 374.35,-115.43 380.24,-119.21"/>
</g>
<!-- mapserver -->
<g id="node10" class="node">
<title>mapserver</title>
<g id="a_node10"><a xlink:href="https://github.com/conda-forge/mapserver-feedstock" xlink:title="mapserver">
<ellipse fill="#fde725" stroke="black" cx="521.22" cy="-90" rx="64.89" ry="18"/>
<text text-anchor="middle" x="521.22" y="-85.33" font-family="Times,serif" font-size="14.00">mapserver</text>
</a>
</g>
</g>
<!-- gdal&#45;&gt;mapserver -->
<g id="edge4" class="edge">
<title>gdal&#45;&gt;mapserver</title>
<path fill="none" stroke="black" d="M374.97,-150.52C401.4,-139.76 443.11,-122.79 475.23,-109.72"/>
<polygon fill="black" stroke="black" points="476.37,-113.03 484.32,-106.02 473.74,-106.54 476.37,-113.03"/>
</g>
<!-- heavydb&#45;ext -->
<g id="node11" class="node">
<title>heavydb&#45;ext</title>
<g id="a_node11"><a xlink:href="https://github.com/conda-forge/heavydb-ext-feedstock/pull/79" xlink:title="heavydb ext ❎">
<ellipse fill="#31688e" stroke="black" cx="691.22" cy="-90" rx="87.51" ry="18"/>
<text text-anchor="middle" x="691.22" y="-85.33" font-family="Times,serif" font-size="14.00" fill="white">heavydb ext ❎</text>
</a>
</g>
</g>
<!-- gdal&#45;&gt;heavydb&#45;ext -->
<g id="edge3" class="edge">
<title>gdal&#45;&gt;heavydb&#45;ext</title>
<path fill="none" stroke="black" d="M379.57,-154.79C433.06,-143.84 545.46,-120.83 619.63,-105.65"/>
<polygon fill="black" stroke="black" points="620.16,-109.12 629.25,-103.68 618.76,-102.26 620.16,-109.12"/>
</g>
<!-- exactextract -->
<g id="node13" class="node">
<title>exactextract</title>
<g id="a_node13"><a xlink:href="https://github.com/conda-forge/exactextract-feedstock" xlink:title="exactextract">
<ellipse fill="#fde725" stroke="black" cx="870.22" cy="-90" rx="73.83" ry="18"/>
<text text-anchor="middle" x="870.22" y="-85.33" font-family="Times,serif" font-size="14.00">exactextract</text>
</a>
</g>
</g>
<!-- gdal&#45;&gt;exactextract -->
<g id="edge1" class="edge">
<title>gdal&#45;&gt;exactextract</title>
<path fill="none" stroke="black" d="M381.57,-158.04C454.44,-151.16 636.89,-132.78 788.22,-108 793.9,-107.07 799.79,-106.02 805.68,-104.91"/>
<polygon fill="black" stroke="black" points="806.33,-108.35 815.48,-103.01 805,-101.48 806.33,-108.35"/>
</g>
<!-- meos -->
<g id="node12" class="node">
<title>meos</title>
<g id="a_node12"><a xlink:href="https://github.com/conda-forge/meos-feedstock" xlink:title="meos">
<ellipse fill="#fde725" stroke="black" cx="122.22" cy="-18" rx="37.53" ry="18"/>
<text text-anchor="middle" x="122.22" y="-13.32" font-family="Times,serif" font-size="14.00">meos</text>
</a>
</g>
</g>
<!-- postgis&#45;&gt;meos -->
<g id="edge9" class="edge">
<title>postgis&#45;&gt;meos</title>
<path fill="none" stroke="black" d="M126.73,-71.7C126.11,-64.41 125.36,-55.73 124.66,-47.54"/>
<polygon fill="black" stroke="black" points="128.15,-47.28 123.81,-37.61 121.18,-47.87 128.15,-47.28"/>
</g>
<!-- r&#45;lwgeom -->
<g id="node7" class="node">
<title>r&#45;lwgeom</title>
<g id="a_node7"><a xlink:href="https://github.com/conda-forge/r-lwgeom-feedstock" xlink:title="r lwgeom">
<ellipse fill="#fde725" stroke="black" cx="236.22" cy="-18" rx="58.05" ry="18"/>
<text text-anchor="middle" x="236.22" y="-13.32" font-family="Times,serif" font-size="14.00">r lwgeom</text>
</a>
</g>
</g>
<!-- r&#45;sf&#45;&gt;r&#45;lwgeom -->
<g id="edge11" class="edge">
<title>r&#45;sf&#45;&gt;r&#45;lwgeom</title>
<path fill="none" stroke="black" d="M289.79,-74.15C281.14,-65.25 269.93,-53.71 260,-43.48"/>
<polygon fill="black" stroke="black" points="262.57,-41.11 253.1,-36.38 257.55,-45.99 262.57,-41.11"/>
</g>
<!-- r&#45;exactextractr -->
<g id="node8" class="node">
<title>r&#45;exactextractr</title>
<g id="a_node8"><a xlink:href="https://github.com/conda-forge/r-exactextractr-feedstock" xlink:title="r exactextractr">
<ellipse fill="#fde725" stroke="black" cx="399.22" cy="-18" rx="86.46" ry="18"/>
<text text-anchor="middle" x="399.22" y="-13.32" font-family="Times,serif" font-size="14.00">r exactextractr</text>
</a>
</g>
</g>
<!-- r&#45;sf&#45;&gt;r&#45;exactextractr -->
<g id="edge10" class="edge">
<title>r&#45;sf&#45;&gt;r&#45;exactextractr</title>
<path fill="none" stroke="black" d="M322.08,-75.83C334.81,-66.45 352.27,-53.59 367.36,-42.47"/>
<polygon fill="black" stroke="black" points="369.19,-45.47 375.17,-36.72 365.04,-39.84 369.19,-45.47"/>
</g>
<!-- r&#45;terra&#45;&gt;r&#45;exactextractr -->
<g id="edge12" class="edge">
<title>r&#45;terra&#45;&gt;r&#45;exactextractr</title>
<path fill="none" stroke="black" d="M395.45,-71.7C395.97,-64.41 396.59,-55.73 397.18,-47.54"/>
<polygon fill="black" stroke="black" points="400.66,-47.84 397.89,-37.61 393.68,-47.34 400.66,-47.84"/>
</g>
</g>
</svg>
