<?xml version="1.0" encoding="UTF-8" standalone="no"?>
<!DOCTYPE svg PUBLIC "-//W3C//DTD SVG 1.1//EN"
 "http://www.w3.org/Graphics/SVG/1.1/DTD/svg11.dtd">
<!-- Generated by graphviz version 13.0.0 (20250614.1013)
 -->
<!-- Pages: 1 -->
<svg width="169pt" height="188pt"
 viewBox="0.00 0.00 169.00 188.00" xmlns="http://www.w3.org/2000/svg" xmlns:xlink="http://www.w3.org/1999/xlink">
<g id="graph0" class="graph" transform="scale(1 1) rotate(0) translate(4 184)">
<polygon fill="white" stroke="none" points="-4,4 -4,-184 165.34,-184 165.34,4 -4,4"/>
<!-- fflas&#45;ffpack -->
<g id="node1" class="node">
<title>fflas&#45;ffpack</title>
<g id="a_node1"><a xlink:href="https://github.com/conda-forge/fflas-ffpack-feedstock/pull/21" xlink:title="fflas ffpack ❎">
<ellipse fill="#31688e" stroke="black" cx="80.67" cy="-162" rx="80.67" ry="18"/>
<text xml:space="preserve" text-anchor="middle" x="80.67" y="-157.32" font-family="Times,serif" font-size="14.00" fill="white">fflas ffpack ❎</text>
</a>
</g>
</g>
<!-- linbox -->
<g id="node2" class="node">
<title>linbox</title>
<g id="a_node2"><a xlink:href="https://github.com/conda-forge/linbox-feedstock" xlink:title="linbox">
<ellipse fill="#fde725" stroke="black" cx="45.67" cy="-90" rx="41.74" ry="18"/>
<text xml:space="preserve" text-anchor="middle" x="45.67" y="-85.33" font-family="Times,serif" font-size="14.00">linbox</text>
</a>
</g>
</g>
<!-- fflas&#45;ffpack&#45;&gt;linbox -->
<g id="edge1" class="edge">
<title>fflas&#45;ffpack&#45;&gt;linbox</title>
<path fill="none" stroke="black" d="M72.02,-143.7C68.2,-136.07 63.63,-126.92 59.37,-118.4"/>
<polygon fill="black" stroke="black" points="62.5,-116.84 54.9,-109.46 56.24,-119.97 62.5,-116.84"/>
</g>
<!-- sagelib -->
<g id="node3" class="node">
<title>sagelib</title>
<g id="a_node3"><a xlink:href="https://github.com/conda-forge/sagelib-feedstock" xlink:title="sagelib">
<ellipse fill="#fde725" stroke="black" cx="80.67" cy="-18" rx="47" ry="18"/>
<text xml:space="preserve" text-anchor="middle" x="80.67" y="-13.32" font-family="Times,serif" font-size="14.00">sagelib</text>
</a>
</g>
</g>
<!-- fflas&#45;ffpack&#45;&gt;sagelib -->
<g id="edge2" class="edge">
<title>fflas&#45;ffpack&#45;&gt;sagelib</title>
<path fill="none" stroke="black" d="M87.32,-143.63C90.87,-133.42 94.87,-120.17 96.67,-108 99.01,-92.17 99.01,-87.83 96.67,-72 95.43,-63.6 93.14,-54.68 90.67,-46.61"/>
<polygon fill="black" stroke="black" points="94.07,-45.74 87.63,-37.33 87.42,-47.93 94.07,-45.74"/>
</g>
<!-- linbox&#45;&gt;sagelib -->
<g id="edge3" class="edge">
<title>linbox&#45;&gt;sagelib</title>
<path fill="none" stroke="black" d="M54.14,-72.05C58.05,-64.23 62.8,-54.75 67.18,-45.98"/>
<polygon fill="black" stroke="black" points="70.26,-47.65 71.6,-37.14 64,-44.52 70.26,-47.65"/>
</g>
</g>
</svg>
