<?xml version="1.0" encoding="UTF-8" standalone="no"?>
<!DOCTYPE svg PUBLIC "-//W3C//DTD SVG 1.1//EN"
 "http://www.w3.org/Graphics/SVG/1.1/DTD/svg11.dtd">
<!-- Generated by graphviz version 12.2.1 (20250203.1708)
 -->
<!-- Pages: 1 -->
<svg width="150pt" height="188pt"
 viewBox="0.00 0.00 150.15 188.00" xmlns="http://www.w3.org/2000/svg" xmlns:xlink="http://www.w3.org/1999/xlink">
<g id="graph0" class="graph" transform="scale(1 1) rotate(0) translate(4 184)">
<polygon fill="white" stroke="none" points="-4,4 -4,-184 146.15,-184 146.15,4 -4,4"/>
<!-- fflas&#45;ffpack -->
<g id="node1" class="node">
<title>fflas&#45;ffpack</title>
<g id="a_node1"><a xlink:href="https://github.com/conda-forge/fflas-ffpack-feedstock" xlink:title="fflas ffpack">
<ellipse fill="#35b779" stroke="black" cx="76.74" cy="-162" rx="65.41" ry="18"/>
<text text-anchor="middle" x="76.74" y="-157.32" font-family="Times,serif" font-size="14.00">fflas ffpack</text>
</a>
</g>
</g>
<!-- linbox -->
<g id="node2" class="node">
<title>linbox</title>
<g id="a_node2"><a xlink:href="https://github.com/conda-forge/linbox-feedstock" xlink:title="linbox">
<ellipse fill="#fde725" stroke="black" cx="41.74" cy="-90" rx="41.74" ry="18"/>
<text text-anchor="middle" x="41.74" y="-85.33" font-family="Times,serif" font-size="14.00">linbox</text>
</a>
</g>
</g>
<!-- fflas&#45;ffpack&#45;&gt;linbox -->
<g id="edge1" class="edge">
<title>fflas&#45;ffpack&#45;&gt;linbox</title>
<path fill="none" stroke="black" d="M68.09,-143.7C64.27,-136.07 59.7,-126.92 55.44,-118.4"/>
<polygon fill="black" stroke="black" points="58.57,-116.84 50.97,-109.46 52.31,-119.97 58.57,-116.84"/>
</g>
<!-- sagelib -->
<g id="node3" class="node">
<title>sagelib</title>
<g id="a_node3"><a xlink:href="https://github.com/conda-forge/sagelib-feedstock" xlink:title="sagelib">
<ellipse fill="#fde725" stroke="black" cx="76.74" cy="-18" rx="47" ry="18"/>
<text text-anchor="middle" x="76.74" y="-13.32" font-family="Times,serif" font-size="14.00">sagelib</text>
</a>
</g>
</g>
<!-- fflas&#45;ffpack&#45;&gt;sagelib -->
<g id="edge2" class="edge">
<title>fflas&#45;ffpack&#45;&gt;sagelib</title>
<path fill="none" stroke="black" d="M83.39,-143.63C86.94,-133.42 90.94,-120.17 92.74,-108 95.08,-92.17 95.08,-87.83 92.74,-72 91.5,-63.6 89.21,-54.68 86.74,-46.61"/>
<polygon fill="black" stroke="black" points="90.14,-45.74 83.7,-37.33 83.49,-47.93 90.14,-45.74"/>
</g>
<!-- linbox&#45;&gt;sagelib -->
<g id="edge3" class="edge">
<title>linbox&#45;&gt;sagelib</title>
<path fill="none" stroke="black" d="M50.21,-72.05C54.12,-64.23 58.86,-54.75 63.25,-45.98"/>
<polygon fill="black" stroke="black" points="66.32,-47.65 67.67,-37.14 60.06,-44.52 66.32,-47.65"/>
</g>
</g>
</svg>
