<?xml version="1.0" encoding="UTF-8" standalone="no"?>
<!DOCTYPE svg PUBLIC "-//W3C//DTD SVG 1.1//EN"
 "http://www.w3.org/Graphics/SVG/1.1/DTD/svg11.dtd">
<!-- Generated by graphviz version 13.1.2 (20250809.0930)
 -->
<!-- Pages: 1 -->
<svg width="1074pt" height="476pt"
 viewBox="0.00 0.00 1074.00 476.00" xmlns="http://www.w3.org/2000/svg" xmlns:xlink="http://www.w3.org/1999/xlink">
<g id="graph0" class="graph" transform="scale(1 1) rotate(0) translate(4 472)">
<polygon fill="white" stroke="none" points="-4,4 -4,-472 1069.94,-472 1069.94,4 -4,4"/>
<!-- kivy -->
<g id="node1" class="node">
<title>kivy</title>
<g id="a_node1"><a xlink:href="https://github.com/conda-forge/kivy-feedstock" xlink:title="kivy">
<ellipse fill="#35b779" stroke="black" cx="980.01" cy="-450" rx="31.74" ry="18"/>
<text xml:space="preserve" text-anchor="middle" x="980.01" y="-445.32" font-family="Times,serif" font-size="14.00">kivy</text>
</a>
</g>
</g>
<!-- wxwidgets -->
<g id="node2" class="node">
<title>wxwidgets</title>
<g id="a_node2"><a xlink:href="https://github.com/conda-forge/wxwidgets-feedstock" xlink:title="wxwidgets">
<ellipse fill="#35b779" stroke="black" cx="980.01" cy="-378" rx="64.89" ry="18"/>
<text xml:space="preserve" text-anchor="middle" x="980.01" y="-373.32" font-family="Times,serif" font-size="14.00">wxwidgets</text>
</a>
</g>
</g>
<!-- kivy&#45;&gt;wxwidgets -->
<!-- gst&#45;libav -->
<g id="node10" class="node">
<title>gst&#45;libav</title>
<g id="a_node10"><a xlink:href="https://github.com/conda-forge/gst-libav-feedstock" xlink:title="gst libav">
<ellipse fill="#35b779" stroke="black" cx="980.01" cy="-306" rx="54.36" ry="18"/>
<text xml:space="preserve" text-anchor="middle" x="980.01" y="-301.32" font-family="Times,serif" font-size="14.00">gst libav</text>
</a>
</g>
</g>
<!-- wxwidgets&#45;&gt;gst&#45;libav -->
<!-- gst&#45;python -->
<g id="node3" class="node">
<title>gst&#45;python</title>
<g id="a_node3"><a xlink:href="https://github.com/conda-forge/gst-python-feedstock" xlink:title="gst python">
<ellipse fill="#fde725" stroke="black" cx="397.01" cy="-342" rx="64.89" ry="18"/>
<text xml:space="preserve" text-anchor="middle" x="397.01" y="-337.32" font-family="Times,serif" font-size="14.00">gst python</text>
</a>
</g>
</g>
<!-- gstlal -->
<g id="node4" class="node">
<title>gstlal</title>
<g id="a_node4"><a xlink:href="https://github.com/conda-forge/gstlal-feedstock" xlink:title="gstlal">
<ellipse fill="#fde725" stroke="black" cx="367.01" cy="-270" rx="39.11" ry="18"/>
<text xml:space="preserve" text-anchor="middle" x="367.01" y="-265.32" font-family="Times,serif" font-size="14.00">gstlal</text>
</a>
</g>
</g>
<!-- gst&#45;python&#45;&gt;gstlal -->
<g id="edge2" class="edge">
<title>gst&#45;python&#45;&gt;gstlal</title>
<path fill="none" stroke="black" d="M389.6,-323.7C386.36,-316.15 382.49,-307.12 378.88,-298.68"/>
<polygon fill="black" stroke="black" points="382.1,-297.31 374.94,-289.5 375.66,-300.07 382.1,-297.31"/>
</g>
<!-- gstlal&#45;ugly -->
<g id="node5" class="node">
<title>gstlal&#45;ugly</title>
<g id="a_node5"><a xlink:href="https://github.com/conda-forge/gstlal-ugly-feedstock" xlink:title="gstlal ugly">
<ellipse fill="#fde725" stroke="black" cx="237.01" cy="-198" rx="63.84" ry="18"/>
<text xml:space="preserve" text-anchor="middle" x="237.01" y="-193.32" font-family="Times,serif" font-size="14.00">gstlal ugly</text>
</a>
</g>
</g>
<!-- gst&#45;python&#45;&gt;gstlal&#45;ugly -->
<g id="edge3" class="edge">
<title>gst&#45;python&#45;&gt;gstlal&#45;ugly</title>
<path fill="none" stroke="black" d="M370.64,-325.22C354.99,-315.35 335.13,-301.9 319.01,-288 296.42,-268.52 273.66,-243.26 257.87,-224.64"/>
<polygon fill="black" stroke="black" points="260.57,-222.41 251.47,-216.98 255.2,-226.9 260.57,-222.41"/>
</g>
<!-- gstlal&#45;burst -->
<g id="node6" class="node">
<title>gstlal&#45;burst</title>
<g id="a_node6"><a xlink:href="https://github.com/conda-forge/gstlal-burst-feedstock" xlink:title="gstlal burst">
<ellipse fill="#fde725" stroke="black" cx="289.01" cy="-54" rx="69.1" ry="18"/>
<text xml:space="preserve" text-anchor="middle" x="289.01" y="-49.33" font-family="Times,serif" font-size="14.00">gstlal burst</text>
</a>
</g>
</g>
<!-- gst&#45;python&#45;&gt;gstlal&#45;burst -->
<g id="edge4" class="edge">
<title>gst&#45;python&#45;&gt;gstlal&#45;burst</title>
<path fill="none" stroke="black" d="M408.99,-323.94C436.29,-282.75 497.16,-176.19 448.01,-108 429.22,-81.93 397.05,-68.49 366.55,-61.63"/>
<polygon fill="black" stroke="black" points="367.39,-58.23 356.89,-59.69 366.01,-65.1 367.39,-58.23"/>
</g>
<!-- adaflow -->
<g id="node7" class="node">
<title>adaflow</title>
<g id="a_node7"><a xlink:href="https://github.com/conda-forge/adaflow-feedstock" xlink:title="adaflow">
<ellipse fill="#fde725" stroke="black" cx="564.01" cy="-270" rx="49.63" ry="18"/>
<text xml:space="preserve" text-anchor="middle" x="564.01" y="-265.32" font-family="Times,serif" font-size="14.00">adaflow</text>
</a>
</g>
</g>
<!-- gst&#45;python&#45;&gt;adaflow -->
<g id="edge5" class="edge">
<title>gst&#45;python&#45;&gt;adaflow</title>
<path fill="none" stroke="black" d="M431.61,-326.5C457.88,-315.49 494.1,-300.3 522.02,-288.6"/>
<polygon fill="black" stroke="black" points="523.01,-291.98 530.88,-284.89 520.31,-285.52 523.01,-291.98"/>
</g>
<!-- gstlal&#45;&gt;gstlal&#45;ugly -->
<g id="edge6" class="edge">
<title>gstlal&#45;&gt;gstlal&#45;ugly</title>
<path fill="none" stroke="black" d="M342.25,-255.67C323.43,-245.53 297.18,-231.4 275.61,-219.78"/>
<polygon fill="black" stroke="black" points="277.55,-216.86 267.09,-215.2 274.24,-223.02 277.55,-216.86"/>
</g>
<!-- gstlal&#45;&gt;gstlal&#45;burst -->
<g id="edge7" class="edge">
<title>gstlal&#45;&gt;gstlal&#45;burst</title>
<path fill="none" stroke="black" d="M382.4,-253.19C409.94,-222.92 461.86,-155.57 429.01,-108 413.57,-85.64 387.38,-72.7 361.81,-65.22"/>
<polygon fill="black" stroke="black" points="362.95,-61.9 352.38,-62.73 361.15,-68.67 362.95,-61.9"/>
</g>
<!-- gstlal&#45;inspiral -->
<g id="node8" class="node">
<title>gstlal&#45;inspiral</title>
<g id="a_node8"><a xlink:href="https://github.com/conda-forge/gstlal-inspiral-feedstock" xlink:title="gstlal inspiral">
<ellipse fill="#fde725" stroke="black" cx="130.01" cy="-126" rx="80.14" ry="18"/>
<text xml:space="preserve" text-anchor="middle" x="130.01" y="-121.33" font-family="Times,serif" font-size="14.00">gstlal inspiral</text>
</a>
</g>
</g>
<!-- gstlal&#45;&gt;gstlal&#45;inspiral -->
<g id="edge8" class="edge">
<title>gstlal&#45;&gt;gstlal&#45;inspiral</title>
<path fill="none" stroke="black" d="M360.48,-251.95C351.91,-231.83 334.96,-198.72 310.01,-180 291.98,-166.46 240.8,-152.07 197.61,-141.7"/>
<polygon fill="black" stroke="black" points="198.55,-138.33 188.01,-139.44 196.94,-145.14 198.55,-138.33"/>
</g>
<!-- gstlal&#45;calibration -->
<g id="node9" class="node">
<title>gstlal&#45;calibration</title>
<g id="a_node9"><a xlink:href="https://github.com/conda-forge/gstlal-calibration-feedstock" xlink:title="gstlal calibration">
<ellipse fill="#fde725" stroke="black" cx="324.01" cy="-126" rx="95.93" ry="18"/>
<text xml:space="preserve" text-anchor="middle" x="324.01" y="-121.33" font-family="Times,serif" font-size="14.00">gstlal calibration</text>
</a>
</g>
</g>
<!-- gstlal&#45;&gt;gstlal&#45;calibration -->
<g id="edge9" class="edge">
<title>gstlal&#45;&gt;gstlal&#45;calibration</title>
<path fill="none" stroke="black" d="M362.82,-251.82C358.32,-233.81 350.77,-204.74 343.01,-180 340.43,-171.76 337.36,-162.89 334.46,-154.81"/>
<polygon fill="black" stroke="black" points="337.77,-153.68 331.05,-145.49 331.2,-156.08 337.77,-153.68"/>
</g>
<!-- gstlal&#45;ugly&#45;&gt;gstlal&#45;burst -->
<g id="edge10" class="edge">
<title>gstlal&#45;ugly&#45;&gt;gstlal&#45;burst</title>
<path fill="none" stroke="black" d="M177.6,-191.1C105.97,-181.64 0,-158.7 41.01,-108 62.27,-81.72 147.23,-67.9 211.84,-61.05"/>
<polygon fill="black" stroke="black" points="212.14,-64.53 221.73,-60.04 211.43,-57.57 212.14,-64.53"/>
</g>
<!-- gstlal&#45;ugly&#45;&gt;gstlal&#45;inspiral -->
<g id="edge11" class="edge">
<title>gstlal&#45;ugly&#45;&gt;gstlal&#45;inspiral</title>
<path fill="none" stroke="black" d="M212.46,-180.94C198.26,-171.65 180.16,-159.81 164.54,-149.59"/>
<polygon fill="black" stroke="black" points="166.74,-146.84 156.46,-144.3 162.91,-152.7 166.74,-146.84"/>
</g>
<!-- gstlal&#45;ugly&#45;&gt;gstlal&#45;calibration -->
<g id="edge12" class="edge">
<title>gstlal&#45;ugly&#45;&gt;gstlal&#45;calibration</title>
<path fill="none" stroke="black" d="M257.19,-180.76C268.15,-171.95 281.92,-160.87 294.1,-151.07"/>
<polygon fill="black" stroke="black" points="296.26,-153.82 301.86,-144.83 291.87,-148.37 296.26,-153.82"/>
</g>
<!-- gstlal&#45;inspiral&#45;&gt;gstlal&#45;burst -->
<g id="edge13" class="edge">
<title>gstlal&#45;inspiral&#45;&gt;gstlal&#45;burst</title>
<path fill="none" stroke="black" d="M165.3,-109.46C188.68,-99.17 219.53,-85.59 244.57,-74.56"/>
<polygon fill="black" stroke="black" points="245.79,-77.85 253.53,-70.62 242.97,-71.45 245.79,-77.85"/>
</g>
<!-- xpra -->
<g id="node14" class="node">
<title>xpra</title>
<g id="a_node14"><a xlink:href="https://github.com/conda-forge/xpra-feedstock" xlink:title="xpra">
<ellipse fill="#35b779" stroke="black" cx="980.01" cy="-234" rx="33.85" ry="18"/>
<text xml:space="preserve" text-anchor="middle" x="980.01" y="-229.32" font-family="Times,serif" font-size="14.00">xpra</text>
</a>
</g>
</g>
<!-- gst&#45;libav&#45;&gt;xpra -->
<!-- gst&#45;plugins&#45;ugly -->
<g id="node11" class="node">
<title>gst&#45;plugins&#45;ugly</title>
<g id="a_node11"><a xlink:href="https://github.com/conda-forge/gst-plugins-ugly-feedstock" xlink:title="gst plugins ugly">
<ellipse fill="#35b779" stroke="black" cx="794.01" cy="-342" rx="91.72" ry="18"/>
<text xml:space="preserve" text-anchor="middle" x="794.01" y="-337.32" font-family="Times,serif" font-size="14.00">gst plugins ugly</text>
</a>
</g>
</g>
<!-- gst&#45;plugins&#45;ugly&#45;&gt;adaflow -->
<g id="edge15" class="edge">
<title>gst&#45;plugins&#45;ugly&#45;&gt;adaflow</title>
<path fill="none" stroke="black" d="M745.8,-326.33C706.51,-314.37 651.31,-297.57 612.06,-285.62"/>
<polygon fill="black" stroke="black" points="613.22,-282.32 602.64,-282.76 611.19,-289.02 613.22,-282.32"/>
</g>
<!-- gst&#45;plugins&#45;bad -->
<g id="node12" class="node">
<title>gst&#45;plugins&#45;bad</title>
<g id="a_node12"><a xlink:href="https://github.com/conda-forge/gst-plugins-bad-feedstock" xlink:title="gst plugins bad">
<ellipse fill="#35b779" stroke="black" cx="490.01" cy="-414" rx="88.56" ry="18"/>
<text xml:space="preserve" text-anchor="middle" x="490.01" y="-409.32" font-family="Times,serif" font-size="14.00">gst plugins bad</text>
</a>
</g>
</g>
<!-- gst&#45;plugins&#45;bad&#45;&gt;gst&#45;python -->
<g id="edge16" class="edge">
<title>gst&#45;plugins&#45;bad&#45;&gt;gst&#45;python</title>
<path fill="none" stroke="black" d="M467.97,-396.41C455.96,-387.37 440.89,-376.03 427.74,-366.13"/>
<polygon fill="black" stroke="black" points="429.88,-363.36 419.78,-360.14 425.67,-368.95 429.88,-363.36"/>
</g>
<!-- gst&#45;plugins&#45;bad&#45;&gt;adaflow -->
<g id="edge17" class="edge">
<title>gst&#45;plugins&#45;bad&#45;&gt;adaflow</title>
<path fill="none" stroke="black" d="M490.73,-395.55C492.17,-376.81 496.43,-346.65 509.01,-324 515.21,-312.84 524.52,-302.59 533.73,-294.13"/>
<polygon fill="black" stroke="black" points="536.01,-296.78 541.28,-287.59 531.43,-291.49 536.01,-296.78"/>
</g>
<!-- webkit2gtk4.1 -->
<g id="node13" class="node">
<title>webkit2gtk4.1</title>
<g id="a_node13"><a xlink:href="https://github.com/conda-forge/webkit2gtk4.1-feedstock" xlink:title="webkit2gtk4 1">
<ellipse fill="#fde725" stroke="black" cx="601.01" cy="-342" rx="83.3" ry="18"/>
<text xml:space="preserve" text-anchor="middle" x="601.01" y="-337.32" font-family="Times,serif" font-size="14.00">webkit2gtk4 1</text>
</a>
</g>
</g>
<!-- gst&#45;plugins&#45;bad&#45;&gt;webkit2gtk4.1 -->
<g id="edge18" class="edge">
<title>gst&#45;plugins&#45;bad&#45;&gt;webkit2gtk4.1</title>
<path fill="none" stroke="black" d="M516.32,-396.41C530.97,-387.17 549.42,-375.54 565.35,-365.49"/>
<polygon fill="black" stroke="black" points="567.02,-368.57 573.62,-360.28 563.29,-362.65 567.02,-368.57"/>
</g>
<!-- kornia&#45;rs -->
<g id="node15" class="node">
<title>kornia&#45;rs</title>
<g id="a_node15"><a xlink:href="https://github.com/conda-forge/kornia-rs-feedstock" xlink:title="kornia rs">
<ellipse fill="#35b779" stroke="black" cx="980.01" cy="-162" rx="55.94" ry="18"/>
<text xml:space="preserve" text-anchor="middle" x="980.01" y="-157.32" font-family="Times,serif" font-size="14.00">kornia rs</text>
</a>
</g>
</g>
<!-- xpra&#45;&gt;kornia&#45;rs -->
<!-- libcamera -->
<g id="node16" class="node">
<title>libcamera</title>
<g id="a_node16"><a xlink:href="https://github.com/conda-forge/libcamera-feedstock" xlink:title="libcamera">
<ellipse fill="#35b779" stroke="black" cx="980.01" cy="-90" rx="60.68" ry="18"/>
<text xml:space="preserve" text-anchor="middle" x="980.01" y="-85.33" font-family="Times,serif" font-size="14.00">libcamera</text>
</a>
</g>
</g>
<!-- kornia&#45;rs&#45;&gt;libcamera -->
<!-- gst&#45;rtsp&#45;server -->
<g id="node17" class="node">
<title>gst&#45;rtsp&#45;server</title>
<g id="a_node17"><a xlink:href="https://github.com/conda-forge/gst-rtsp-server-feedstock" xlink:title="gst rtsp server">
<ellipse fill="#35b779" stroke="black" cx="980.01" cy="-18" rx="85.93" ry="18"/>
<text xml:space="preserve" text-anchor="middle" x="980.01" y="-13.32" font-family="Times,serif" font-size="14.00">gst rtsp server</text>
</a>
</g>
</g>
<!-- libcamera&#45;&gt;gst&#45;rtsp&#45;server -->
</g>
</svg>
