<?xml version="1.0" encoding="UTF-8" standalone="no"?>
<!DOCTYPE svg PUBLIC "-//W3C//DTD SVG 1.1//EN"
 "http://www.w3.org/Graphics/SVG/1.1/DTD/svg11.dtd">
<!-- Generated by graphviz version 13.1.2 (20250809.0930)
 -->
<!-- Pages: 1 -->
<svg width="646pt" height="332pt"
 viewBox="0.00 0.00 646.00 332.00" xmlns="http://www.w3.org/2000/svg" xmlns:xlink="http://www.w3.org/1999/xlink">
<g id="graph0" class="graph" transform="scale(1 1) rotate(0) translate(4 328)">
<polygon fill="white" stroke="none" points="-4,4 -4,-328 642,-328 642,4 -4,4"/>
<!-- kivy -->
<g id="node1" class="node">
<title>kivy</title>
<g id="a_node1"><a xlink:href="https://github.com/conda-forge/kivy-feedstock/pull/79" xlink:title="kivy ✓">
<ellipse fill="#31688e" stroke="black" cx="539.44" cy="-306" rx="39.63" ry="18"/>
<text xml:space="preserve" text-anchor="middle" x="539.44" y="-301.32" font-family="Times,serif" font-size="14.00" fill="white">kivy ✓</text>
</a>
</g>
</g>
<!-- xpra -->
<g id="node2" class="node">
<title>xpra</title>
<g id="a_node2"><a xlink:href="https://github.com/conda-forge/xpra-feedstock/pull/57" xlink:title="xpra ❎">
<ellipse fill="#31688e" stroke="black" cx="539.44" cy="-234" rx="49.1" ry="18"/>
<text xml:space="preserve" text-anchor="middle" x="539.44" y="-229.32" font-family="Times,serif" font-size="14.00" fill="white">xpra ❎</text>
</a>
</g>
</g>
<!-- kivy&#45;&gt;xpra -->
<!-- kornia&#45;rs -->
<g id="node11" class="node">
<title>kornia&#45;rs</title>
<g id="a_node11"><a xlink:href="https://github.com/conda-forge/kornia-rs-feedstock/pull/26" xlink:title="kornia rs ✓">
<ellipse fill="#31688e" stroke="black" cx="539.44" cy="-162" rx="63.84" ry="18"/>
<text xml:space="preserve" text-anchor="middle" x="539.44" y="-157.32" font-family="Times,serif" font-size="14.00" fill="white">kornia rs ✓</text>
</a>
</g>
</g>
<!-- xpra&#45;&gt;kornia&#45;rs -->
<!-- gst&#45;python -->
<g id="node3" class="node">
<title>gst&#45;python</title>
<g id="a_node3"><a xlink:href="https://github.com/conda-forge/gst-python-feedstock/pull/91" xlink:title="gst python ✓">
<ellipse fill="#31688e" stroke="black" cx="306.44" cy="-306" rx="72.78" ry="18"/>
<text xml:space="preserve" text-anchor="middle" x="306.44" y="-301.32" font-family="Times,serif" font-size="14.00" fill="white">gst python ✓</text>
</a>
</g>
</g>
<!-- gstlal -->
<g id="node4" class="node">
<title>gstlal</title>
<g id="a_node4"><a xlink:href="https://github.com/conda-forge/gstlal-feedstock" xlink:title="gstlal">
<ellipse fill="#fde725" stroke="black" cx="219.44" cy="-234" rx="39.11" ry="18"/>
<text xml:space="preserve" text-anchor="middle" x="219.44" y="-229.32" font-family="Times,serif" font-size="14.00">gstlal</text>
</a>
</g>
</g>
<!-- gst&#45;python&#45;&gt;gstlal -->
<g id="edge2" class="edge">
<title>gst&#45;python&#45;&gt;gstlal</title>
<path fill="none" stroke="black" d="M285.82,-288.41C274.18,-279.04 259.47,-267.21 246.87,-257.07"/>
<polygon fill="black" stroke="black" points="249.29,-254.53 239.31,-250.99 244.91,-259.98 249.29,-254.53"/>
</g>
<!-- gstlal&#45;ugly -->
<g id="node5" class="node">
<title>gstlal&#45;ugly</title>
<g id="a_node5"><a xlink:href="https://github.com/conda-forge/gstlal-ugly-feedstock" xlink:title="gstlal ugly">
<ellipse fill="#fde725" stroke="black" cx="309.44" cy="-162" rx="63.84" ry="18"/>
<text xml:space="preserve" text-anchor="middle" x="309.44" y="-157.32" font-family="Times,serif" font-size="14.00">gstlal ugly</text>
</a>
</g>
</g>
<!-- gst&#45;python&#45;&gt;gstlal&#45;ugly -->
<g id="edge3" class="edge">
<title>gst&#45;python&#45;&gt;gstlal&#45;ugly</title>
<path fill="none" stroke="black" d="M306.81,-287.59C307.31,-263.61 308.23,-220.14 308.84,-191.42"/>
<polygon fill="black" stroke="black" points="312.33,-191.7 309.05,-181.62 305.34,-191.55 312.33,-191.7"/>
</g>
<!-- gstlal&#45;burst -->
<g id="node6" class="node">
<title>gstlal&#45;burst</title>
<g id="a_node6"><a xlink:href="https://github.com/conda-forge/gstlal-burst-feedstock" xlink:title="gstlal burst">
<ellipse fill="#fde725" stroke="black" cx="363.44" cy="-18" rx="69.1" ry="18"/>
<text xml:space="preserve" text-anchor="middle" x="363.44" y="-13.32" font-family="Times,serif" font-size="14.00">gstlal burst</text>
</a>
</g>
</g>
<!-- gst&#45;python&#45;&gt;gstlal&#45;burst -->
<g id="edge4" class="edge">
<title>gst&#45;python&#45;&gt;gstlal&#45;burst</title>
<path fill="none" stroke="black" d="M320.4,-287.95C345.92,-255.44 398.89,-181.26 414.44,-108 417.76,-92.35 420.42,-86.84 414.44,-72 410.07,-61.16 402.31,-51.3 394.14,-43.1"/>
<polygon fill="black" stroke="black" points="396.76,-40.76 387.05,-36.52 392,-45.89 396.76,-40.76"/>
</g>
<!-- adaflow -->
<g id="node7" class="node">
<title>adaflow</title>
<g id="a_node7"><a xlink:href="https://github.com/conda-forge/adaflow-feedstock" xlink:title="adaflow">
<ellipse fill="#fde725" stroke="black" cx="112.44" cy="-234" rx="49.63" ry="18"/>
<text xml:space="preserve" text-anchor="middle" x="112.44" y="-229.32" font-family="Times,serif" font-size="14.00">adaflow</text>
</a>
</g>
</g>
<!-- gst&#45;python&#45;&gt;adaflow -->
<g id="edge5" class="edge">
<title>gst&#45;python&#45;&gt;adaflow</title>
<path fill="none" stroke="black" d="M266.71,-290.67C234.94,-279.2 190.4,-263.13 157.34,-251.2"/>
<polygon fill="black" stroke="black" points="158.62,-247.94 148.03,-247.84 156.25,-254.53 158.62,-247.94"/>
</g>
<!-- gstlal&#45;&gt;gstlal&#45;ugly -->
<g id="edge6" class="edge">
<title>gstlal&#45;&gt;gstlal&#45;ugly</title>
<path fill="none" stroke="black" d="M238.53,-218.15C250.43,-208.89 266.01,-196.78 279.53,-186.26"/>
<polygon fill="black" stroke="black" points="281.56,-189.12 287.3,-180.22 277.26,-183.6 281.56,-189.12"/>
</g>
<!-- gstlal&#45;&gt;gstlal&#45;burst -->
<g id="edge7" class="edge">
<title>gstlal&#45;&gt;gstlal&#45;burst</title>
<path fill="none" stroke="black" d="M192.16,-220.83C140.26,-197.06 30.67,-143.67 10.44,-108 2.55,-94.08 0,-84.12 10.44,-72 44.89,-31.99 189.87,-21.76 282.98,-19.39"/>
<polygon fill="black" stroke="black" points="282.91,-22.9 292.83,-19.17 282.75,-15.9 282.91,-22.9"/>
</g>
<!-- gstlal&#45;inspiral -->
<g id="node8" class="node">
<title>gstlal&#45;inspiral</title>
<g id="a_node8"><a xlink:href="https://github.com/conda-forge/gstlal-inspiral-feedstock" xlink:title="gstlal inspiral">
<ellipse fill="#fde725" stroke="black" cx="309.44" cy="-90" rx="80.14" ry="18"/>
<text xml:space="preserve" text-anchor="middle" x="309.44" y="-85.33" font-family="Times,serif" font-size="14.00">gstlal inspiral</text>
</a>
</g>
</g>
<!-- gstlal&#45;&gt;gstlal&#45;inspiral -->
<g id="edge8" class="edge">
<title>gstlal&#45;&gt;gstlal&#45;inspiral</title>
<path fill="none" stroke="black" d="M219.08,-215.56C219.49,-196.55 222.53,-165.91 236.44,-144 244.32,-131.59 256.24,-121.15 268.18,-112.91"/>
<polygon fill="black" stroke="black" points="269.91,-115.96 276.41,-107.59 266.11,-110.08 269.91,-115.96"/>
</g>
<!-- gstlal&#45;calibration -->
<g id="node9" class="node">
<title>gstlal&#45;calibration</title>
<g id="a_node9"><a xlink:href="https://github.com/conda-forge/gstlal-calibration-feedstock" xlink:title="gstlal calibration">
<ellipse fill="#fde725" stroke="black" cx="115.44" cy="-90" rx="95.93" ry="18"/>
<text xml:space="preserve" text-anchor="middle" x="115.44" y="-85.33" font-family="Times,serif" font-size="14.00">gstlal calibration</text>
</a>
</g>
</g>
<!-- gstlal&#45;&gt;gstlal&#45;calibration -->
<g id="edge9" class="edge">
<title>gstlal&#45;&gt;gstlal&#45;calibration</title>
<path fill="none" stroke="black" d="M207.31,-216.43C189.4,-191.98 155.72,-146 134.5,-117.02"/>
<polygon fill="black" stroke="black" points="137.45,-115.12 128.71,-109.12 131.8,-119.26 137.45,-115.12"/>
</g>
<!-- gstlal&#45;ugly&#45;&gt;gstlal&#45;burst -->
<g id="edge10" class="edge">
<title>gstlal&#45;ugly&#45;&gt;gstlal&#45;burst</title>
<path fill="none" stroke="black" d="M349.54,-147.69C367.89,-139.37 387.87,-126.61 398.44,-108 409.91,-87.81 398.4,-63.12 385.6,-44.87"/>
<polygon fill="black" stroke="black" points="388.42,-42.8 379.61,-36.92 382.83,-47.01 388.42,-42.8"/>
</g>
<!-- gstlal&#45;ugly&#45;&gt;gstlal&#45;inspiral -->
<g id="edge11" class="edge">
<title>gstlal&#45;ugly&#45;&gt;gstlal&#45;inspiral</title>
<path fill="none" stroke="black" d="M309.44,-143.7C309.44,-136.41 309.44,-127.73 309.44,-119.54"/>
<polygon fill="black" stroke="black" points="312.94,-119.62 309.44,-109.62 305.94,-119.62 312.94,-119.62"/>
</g>
<!-- gstlal&#45;ugly&#45;&gt;gstlal&#45;calibration -->
<g id="edge12" class="edge">
<title>gstlal&#45;ugly&#45;&gt;gstlal&#45;calibration</title>
<path fill="none" stroke="black" d="M271.11,-147.17C241.94,-136.65 201.44,-122.03 169.06,-110.35"/>
<polygon fill="black" stroke="black" points="170.43,-107.12 159.84,-107.02 168.06,-113.71 170.43,-107.12"/>
</g>
<!-- gstlal&#45;inspiral&#45;&gt;gstlal&#45;burst -->
<g id="edge13" class="edge">
<title>gstlal&#45;inspiral&#45;&gt;gstlal&#45;burst</title>
<path fill="none" stroke="black" d="M322.51,-72.05C328.81,-63.89 336.51,-53.91 343.52,-44.82"/>
<polygon fill="black" stroke="black" points="346.23,-47.04 349.56,-36.99 340.68,-42.77 346.23,-47.04"/>
</g>
<!-- gst&#45;plugins&#45;ugly -->
<g id="node10" class="node">
<title>gst&#45;plugins&#45;ugly</title>
<g id="a_node10"><a xlink:href="https://github.com/conda-forge/gst-plugins-ugly-feedstock/pull/76" xlink:title="gst plugins ugly ✓">
<ellipse fill="#31688e" stroke="black" cx="112.44" cy="-306" rx="99.61" ry="18"/>
<text xml:space="preserve" text-anchor="middle" x="112.44" y="-301.32" font-family="Times,serif" font-size="14.00" fill="white">gst plugins ugly ✓</text>
</a>
</g>
</g>
<!-- gst&#45;plugins&#45;ugly&#45;&gt;adaflow -->
<g id="edge14" class="edge">
<title>gst&#45;plugins&#45;ugly&#45;&gt;adaflow</title>
<path fill="none" stroke="black" d="M112.44,-287.7C112.44,-280.41 112.44,-271.73 112.44,-263.54"/>
<polygon fill="black" stroke="black" points="115.94,-263.62 112.44,-253.62 108.94,-263.62 115.94,-263.62"/>
</g>
<!-- libcamera -->
<g id="node12" class="node">
<title>libcamera</title>
<g id="a_node12"><a xlink:href="https://github.com/conda-forge/libcamera-feedstock/pull/20" xlink:title="libcamera ✓">
<ellipse fill="#31688e" stroke="black" cx="539.44" cy="-90" rx="68.57" ry="18"/>
<text xml:space="preserve" text-anchor="middle" x="539.44" y="-85.33" font-family="Times,serif" font-size="14.00" fill="white">libcamera ✓</text>
</a>
</g>
</g>
<!-- kornia&#45;rs&#45;&gt;libcamera -->
<!-- webkit2gtk4.1 -->
<g id="node13" class="node">
<title>webkit2gtk4.1</title>
<g id="a_node13"><a xlink:href="https://github.com/conda-forge/webkit2gtk4.1-feedstock/pull/10" xlink:title="webkit2gtk4 1 ❎">
<ellipse fill="#31688e" stroke="black" cx="539.44" cy="-18" rx="98.56" ry="18"/>
<text xml:space="preserve" text-anchor="middle" x="539.44" y="-13.32" font-family="Times,serif" font-size="14.00" fill="white">webkit2gtk4 1 ❎</text>
</a>
</g>
</g>
<!-- libcamera&#45;&gt;webkit2gtk4.1 -->
</g>
</svg>
