<?xml version="1.0" encoding="UTF-8" standalone="no"?>
<!DOCTYPE svg PUBLIC "-//W3C//DTD SVG 1.1//EN"
 "http://www.w3.org/Graphics/SVG/1.1/DTD/svg11.dtd">
<!-- Generated by graphviz version 13.1.2 (20250809.0930)
 -->
<!-- Pages: 1 -->
<svg width="646pt" height="404pt"
 viewBox="0.00 0.00 646.00 404.00" xmlns="http://www.w3.org/2000/svg" xmlns:xlink="http://www.w3.org/1999/xlink">
<g id="graph0" class="graph" transform="scale(1 1) rotate(0) translate(4 400)">
<polygon fill="white" stroke="none" points="-4,4 -4,-400 642,-400 642,4 -4,4"/>
<!-- kivy -->
<g id="node1" class="node">
<title>kivy</title>
<g id="a_node1"><a xlink:href="https://github.com/conda-forge/kivy-feedstock/pull/79" xlink:title="kivy ❎">
<ellipse fill="#31688e" stroke="black" cx="539.44" cy="-378" rx="47" ry="18"/>
<text xml:space="preserve" text-anchor="middle" x="539.44" y="-373.32" font-family="Times,serif" font-size="14.00" fill="white">kivy ❎</text>
</a>
</g>
</g>
<!-- wxwidgets -->
<g id="node2" class="node">
<title>wxwidgets</title>
<g id="a_node2"><a xlink:href="https://github.com/conda-forge/wxwidgets-feedstock/pull/68" xlink:title="wxwidgets ✓">
<ellipse fill="#31688e" stroke="black" cx="539.44" cy="-306" rx="72.78" ry="18"/>
<text xml:space="preserve" text-anchor="middle" x="539.44" y="-301.32" font-family="Times,serif" font-size="14.00" fill="white">wxwidgets ✓</text>
</a>
</g>
</g>
<!-- kivy&#45;&gt;wxwidgets -->
<!-- xpra -->
<g id="node10" class="node">
<title>xpra</title>
<g id="a_node10"><a xlink:href="https://github.com/conda-forge/xpra-feedstock" xlink:title="xpra">
<ellipse fill="#ff8c00" stroke="black" cx="539.44" cy="-234" rx="33.85" ry="18"/>
<text xml:space="preserve" text-anchor="middle" x="539.44" y="-229.32" font-family="Times,serif" font-size="14.00">xpra</text>
</a>
</g>
</g>
<!-- wxwidgets&#45;&gt;xpra -->
<!-- gst&#45;python -->
<g id="node3" class="node">
<title>gst&#45;python</title>
<g id="a_node3"><a xlink:href="https://github.com/conda-forge/gst-python-feedstock/pull/91" xlink:title="gst python ❎">
<ellipse fill="#31688e" stroke="black" cx="309.44" cy="-342" rx="80.14" ry="18"/>
<text xml:space="preserve" text-anchor="middle" x="309.44" y="-337.32" font-family="Times,serif" font-size="14.00" fill="white">gst python ❎</text>
</a>
</g>
</g>
<!-- gstlal -->
<g id="node4" class="node">
<title>gstlal</title>
<g id="a_node4"><a xlink:href="https://github.com/conda-forge/gstlal-feedstock" xlink:title="gstlal">
<ellipse fill="#fde725" stroke="black" cx="218.44" cy="-270" rx="39.11" ry="18"/>
<text xml:space="preserve" text-anchor="middle" x="218.44" y="-265.32" font-family="Times,serif" font-size="14.00">gstlal</text>
</a>
</g>
</g>
<!-- gst&#45;python&#45;&gt;gstlal -->
<g id="edge2" class="edge">
<title>gst&#45;python&#45;&gt;gstlal</title>
<path fill="none" stroke="black" d="M287.87,-324.41C275.58,-314.95 260.02,-302.98 246.74,-292.77"/>
<polygon fill="black" stroke="black" points="249.25,-290.28 239.19,-286.96 244.98,-295.83 249.25,-290.28"/>
</g>
<!-- gstlal&#45;ugly -->
<g id="node5" class="node">
<title>gstlal&#45;ugly</title>
<g id="a_node5"><a xlink:href="https://github.com/conda-forge/gstlal-ugly-feedstock" xlink:title="gstlal ugly">
<ellipse fill="#fde725" stroke="black" cx="309.44" cy="-198" rx="63.84" ry="18"/>
<text xml:space="preserve" text-anchor="middle" x="309.44" y="-193.32" font-family="Times,serif" font-size="14.00">gstlal ugly</text>
</a>
</g>
</g>
<!-- gst&#45;python&#45;&gt;gstlal&#45;ugly -->
<g id="edge3" class="edge">
<title>gst&#45;python&#45;&gt;gstlal&#45;ugly</title>
<path fill="none" stroke="black" d="M309.44,-323.59C309.44,-299.61 309.44,-256.14 309.44,-227.42"/>
<polygon fill="black" stroke="black" points="312.94,-227.62 309.44,-217.62 305.94,-227.62 312.94,-227.62"/>
</g>
<!-- gstlal&#45;burst -->
<g id="node6" class="node">
<title>gstlal&#45;burst</title>
<g id="a_node6"><a xlink:href="https://github.com/conda-forge/gstlal-burst-feedstock" xlink:title="gstlal burst">
<ellipse fill="#fde725" stroke="black" cx="363.44" cy="-54" rx="69.1" ry="18"/>
<text xml:space="preserve" text-anchor="middle" x="363.44" y="-49.33" font-family="Times,serif" font-size="14.00">gstlal burst</text>
</a>
</g>
</g>
<!-- gst&#45;python&#45;&gt;gstlal&#45;burst -->
<g id="edge4" class="edge">
<title>gst&#45;python&#45;&gt;gstlal&#45;burst</title>
<path fill="none" stroke="black" d="M322.95,-323.87C347.65,-291.21 398.99,-216.79 414.44,-144 417.76,-128.35 420.42,-122.84 414.44,-108 410.07,-97.16 402.31,-87.3 394.14,-79.1"/>
<polygon fill="black" stroke="black" points="396.76,-76.76 387.05,-72.52 392,-81.89 396.76,-76.76"/>
</g>
<!-- adaflow -->
<g id="node7" class="node">
<title>adaflow</title>
<g id="a_node7"><a xlink:href="https://github.com/conda-forge/adaflow-feedstock" xlink:title="adaflow">
<ellipse fill="#fde725" stroke="black" cx="111.44" cy="-270" rx="49.63" ry="18"/>
<text xml:space="preserve" text-anchor="middle" x="111.44" y="-265.32" font-family="Times,serif" font-size="14.00">adaflow</text>
</a>
</g>
</g>
<!-- gst&#45;python&#45;&gt;adaflow -->
<g id="edge5" class="edge">
<title>gst&#45;python&#45;&gt;adaflow</title>
<path fill="none" stroke="black" d="M267.93,-326.33C235.29,-314.79 189.89,-298.73 156.39,-286.89"/>
<polygon fill="black" stroke="black" points="157.99,-283.74 147.39,-283.71 155.65,-290.34 157.99,-283.74"/>
</g>
<!-- gstlal&#45;&gt;gstlal&#45;ugly -->
<g id="edge6" class="edge">
<title>gstlal&#45;&gt;gstlal&#45;ugly</title>
<path fill="none" stroke="black" d="M237.74,-254.15C249.78,-244.89 265.53,-232.78 279.2,-222.26"/>
<polygon fill="black" stroke="black" points="281.27,-225.08 287.06,-216.21 277,-219.54 281.27,-225.08"/>
</g>
<!-- gstlal&#45;&gt;gstlal&#45;burst -->
<g id="edge7" class="edge">
<title>gstlal&#45;&gt;gstlal&#45;burst</title>
<path fill="none" stroke="black" d="M191.29,-256.81C139.64,-233.01 30.56,-179.57 10.44,-144 2.56,-130.07 0,-120.12 10.44,-108 44.89,-67.99 189.87,-57.76 282.98,-55.39"/>
<polygon fill="black" stroke="black" points="282.91,-58.9 292.83,-55.17 282.75,-51.9 282.91,-58.9"/>
</g>
<!-- gstlal&#45;inspiral -->
<g id="node8" class="node">
<title>gstlal&#45;inspiral</title>
<g id="a_node8"><a xlink:href="https://github.com/conda-forge/gstlal-inspiral-feedstock" xlink:title="gstlal inspiral">
<ellipse fill="#fde725" stroke="black" cx="309.44" cy="-126" rx="80.14" ry="18"/>
<text xml:space="preserve" text-anchor="middle" x="309.44" y="-121.33" font-family="Times,serif" font-size="14.00">gstlal inspiral</text>
</a>
</g>
</g>
<!-- gstlal&#45;&gt;gstlal&#45;inspiral -->
<g id="edge8" class="edge">
<title>gstlal&#45;&gt;gstlal&#45;inspiral</title>
<path fill="none" stroke="black" d="M218.32,-251.55C218.97,-232.53 222.38,-201.88 236.44,-180 244.39,-167.63 256.33,-157.2 268.26,-148.96"/>
<polygon fill="black" stroke="black" points="269.99,-152.01 276.48,-143.64 266.19,-146.13 269.99,-152.01"/>
</g>
<!-- gstlal&#45;calibration -->
<g id="node9" class="node">
<title>gstlal&#45;calibration</title>
<g id="a_node9"><a xlink:href="https://github.com/conda-forge/gstlal-calibration-feedstock" xlink:title="gstlal calibration">
<ellipse fill="#fde725" stroke="black" cx="115.44" cy="-126" rx="95.93" ry="18"/>
<text xml:space="preserve" text-anchor="middle" x="115.44" y="-121.33" font-family="Times,serif" font-size="14.00">gstlal calibration</text>
</a>
</g>
</g>
<!-- gstlal&#45;&gt;gstlal&#45;calibration -->
<g id="edge9" class="edge">
<title>gstlal&#45;&gt;gstlal&#45;calibration</title>
<path fill="none" stroke="black" d="M206.42,-252.43C188.69,-227.98 155.34,-182 134.32,-153.02"/>
<polygon fill="black" stroke="black" points="137.29,-151.17 128.59,-145.13 131.63,-155.28 137.29,-151.17"/>
</g>
<!-- gstlal&#45;ugly&#45;&gt;gstlal&#45;burst -->
<g id="edge10" class="edge">
<title>gstlal&#45;ugly&#45;&gt;gstlal&#45;burst</title>
<path fill="none" stroke="black" d="M349.54,-183.69C367.89,-175.37 387.87,-162.61 398.44,-144 409.91,-123.81 398.4,-99.12 385.6,-80.87"/>
<polygon fill="black" stroke="black" points="388.42,-78.8 379.61,-72.92 382.83,-83.01 388.42,-78.8"/>
</g>
<!-- gstlal&#45;ugly&#45;&gt;gstlal&#45;inspiral -->
<g id="edge11" class="edge">
<title>gstlal&#45;ugly&#45;&gt;gstlal&#45;inspiral</title>
<path fill="none" stroke="black" d="M309.44,-179.7C309.44,-172.41 309.44,-163.73 309.44,-155.54"/>
<polygon fill="black" stroke="black" points="312.94,-155.62 309.44,-145.62 305.94,-155.62 312.94,-155.62"/>
</g>
<!-- gstlal&#45;ugly&#45;&gt;gstlal&#45;calibration -->
<g id="edge12" class="edge">
<title>gstlal&#45;ugly&#45;&gt;gstlal&#45;calibration</title>
<path fill="none" stroke="black" d="M271.11,-183.17C241.94,-172.65 201.44,-158.03 169.06,-146.35"/>
<polygon fill="black" stroke="black" points="170.43,-143.12 159.84,-143.02 168.06,-149.71 170.43,-143.12"/>
</g>
<!-- gstlal&#45;inspiral&#45;&gt;gstlal&#45;burst -->
<g id="edge13" class="edge">
<title>gstlal&#45;inspiral&#45;&gt;gstlal&#45;burst</title>
<path fill="none" stroke="black" d="M322.51,-108.05C328.81,-99.89 336.51,-89.91 343.52,-80.82"/>
<polygon fill="black" stroke="black" points="346.23,-83.04 349.56,-72.99 340.68,-78.77 346.23,-83.04"/>
</g>
<!-- kornia&#45;rs -->
<g id="node12" class="node">
<title>kornia&#45;rs</title>
<g id="a_node12"><a xlink:href="https://github.com/conda-forge/kornia-rs-feedstock/pull/26" xlink:title="kornia rs ✓">
<ellipse fill="#31688e" stroke="black" cx="539.44" cy="-162" rx="63.84" ry="18"/>
<text xml:space="preserve" text-anchor="middle" x="539.44" y="-157.32" font-family="Times,serif" font-size="14.00" fill="white">kornia rs ✓</text>
</a>
</g>
</g>
<!-- xpra&#45;&gt;kornia&#45;rs -->
<!-- gst&#45;plugins&#45;ugly -->
<g id="node11" class="node">
<title>gst&#45;plugins&#45;ugly</title>
<g id="a_node11"><a xlink:href="https://github.com/conda-forge/gst-plugins-ugly-feedstock/pull/76" xlink:title="gst plugins ugly ✓">
<ellipse fill="#31688e" stroke="black" cx="111.44" cy="-342" rx="99.61" ry="18"/>
<text xml:space="preserve" text-anchor="middle" x="111.44" y="-337.32" font-family="Times,serif" font-size="14.00" fill="white">gst plugins ugly ✓</text>
</a>
</g>
</g>
<!-- gst&#45;plugins&#45;ugly&#45;&gt;adaflow -->
<g id="edge15" class="edge">
<title>gst&#45;plugins&#45;ugly&#45;&gt;adaflow</title>
<path fill="none" stroke="black" d="M111.44,-323.7C111.44,-316.41 111.44,-307.73 111.44,-299.54"/>
<polygon fill="black" stroke="black" points="114.94,-299.62 111.44,-289.62 107.94,-299.62 114.94,-299.62"/>
</g>
<!-- libcamera -->
<g id="node13" class="node">
<title>libcamera</title>
<g id="a_node13"><a xlink:href="https://github.com/conda-forge/libcamera-feedstock/pull/20" xlink:title="libcamera ✓">
<ellipse fill="#31688e" stroke="black" cx="539.44" cy="-90" rx="68.57" ry="18"/>
<text xml:space="preserve" text-anchor="middle" x="539.44" y="-85.33" font-family="Times,serif" font-size="14.00" fill="white">libcamera ✓</text>
</a>
</g>
</g>
<!-- kornia&#45;rs&#45;&gt;libcamera -->
<!-- webkit2gtk4.1 -->
<g id="node14" class="node">
<title>webkit2gtk4.1</title>
<g id="a_node14"><a xlink:href="https://github.com/conda-forge/webkit2gtk4.1-feedstock/pull/10" xlink:title="webkit2gtk4 1 ❎">
<ellipse fill="#31688e" stroke="black" cx="539.44" cy="-18" rx="98.56" ry="18"/>
<text xml:space="preserve" text-anchor="middle" x="539.44" y="-13.32" font-family="Times,serif" font-size="14.00" fill="white">webkit2gtk4 1 ❎</text>
</a>
</g>
</g>
<!-- libcamera&#45;&gt;webkit2gtk4.1 -->
</g>
</svg>
