<?xml version="1.0" encoding="UTF-8" standalone="no"?>
<!DOCTYPE svg PUBLIC "-//W3C//DTD SVG 1.1//EN"
 "http://www.w3.org/Graphics/SVG/1.1/DTD/svg11.dtd">
<!-- Generated by graphviz version 12.2.1 (20250203.1708)
 -->
<!-- Pages: 1 -->
<svg width="833pt" height="404pt"
 viewBox="0.00 0.00 832.57 404.00" xmlns="http://www.w3.org/2000/svg" xmlns:xlink="http://www.w3.org/1999/xlink">
<g id="graph0" class="graph" transform="scale(1 1) rotate(0) translate(4 400)">
<polygon fill="white" stroke="none" points="-4,4 -4,-400 828.57,-400 828.57,4 -4,4"/>
<!-- emacs -->
<g id="node1" class="node">
<title>emacs</title>
<g id="a_node1"><a xlink:href="https://github.com/conda-forge/emacs-feedstock" xlink:title="emacs">
<ellipse fill="#fde725" stroke="black" cx="280.47" cy="-90" rx="42.79" ry="18"/>
<text text-anchor="middle" x="280.47" y="-85.33" font-family="Times,serif" font-size="14.00">emacs</text>
</a>
</g>
</g>
<!-- ffmpeg -->
<g id="node2" class="node">
<title>ffmpeg</title>
<g id="a_node2"><a xlink:href="https://github.com/conda-forge/ffmpeg-feedstock" xlink:title="ffmpeg">
<ellipse fill="#fde725" stroke="black" cx="56.47" cy="-162" rx="45.95" ry="18"/>
<text text-anchor="middle" x="56.47" y="-157.32" font-family="Times,serif" font-size="14.00">ffmpeg</text>
</a>
</g>
</g>
<!-- opencv -->
<g id="node3" class="node">
<title>opencv</title>
<g id="a_node3"><a xlink:href="https://github.com/conda-forge/opencv-feedstock" xlink:title="opencv">
<ellipse fill="#fde725" stroke="black" cx="46.47" cy="-90" rx="46.47" ry="18"/>
<text text-anchor="middle" x="46.47" y="-85.33" font-family="Times,serif" font-size="14.00">opencv</text>
</a>
</g>
</g>
<!-- ffmpeg&#45;&gt;opencv -->
<g id="edge1" class="edge">
<title>ffmpeg&#45;&gt;opencv</title>
<path fill="none" stroke="black" d="M54,-143.7C52.95,-136.32 51.69,-127.52 50.51,-119.25"/>
<polygon fill="black" stroke="black" points="54.01,-119.01 49.13,-109.6 47.08,-120 54.01,-119.01"/>
</g>
<!-- panda3d -->
<g id="node4" class="node">
<title>panda3d</title>
<g id="a_node4"><a xlink:href="https://github.com/conda-forge/panda3d-feedstock" xlink:title="panda3d">
<ellipse fill="#fde725" stroke="black" cx="165.47" cy="-90" rx="54.36" ry="18"/>
<text text-anchor="middle" x="165.47" y="-85.33" font-family="Times,serif" font-size="14.00">panda3d</text>
</a>
</g>
</g>
<!-- ffmpeg&#45;&gt;panda3d -->
<g id="edge2" class="edge">
<title>ffmpeg&#45;&gt;panda3d</title>
<path fill="none" stroke="black" d="M79.59,-146.15C94.74,-136.43 114.8,-123.54 131.72,-112.68"/>
<polygon fill="black" stroke="black" points="133.46,-115.72 139.98,-107.37 129.68,-109.83 133.46,-115.72"/>
</g>
<!-- librsvg -->
<g id="node5" class="node">
<title>librsvg</title>
<g id="a_node5"><a xlink:href="https://github.com/conda-forge/librsvg-feedstock" xlink:title="librsvg">
<ellipse fill="#fde725" stroke="black" cx="291.47" cy="-234" rx="45.95" ry="18"/>
<text text-anchor="middle" x="291.47" y="-229.32" font-family="Times,serif" font-size="14.00">librsvg</text>
</a>
</g>
</g>
<!-- librsvg&#45;&gt;emacs -->
<g id="edge3" class="edge">
<title>librsvg&#45;&gt;emacs</title>
<path fill="none" stroke="black" d="M290.12,-215.59C288.27,-191.61 284.9,-148.14 282.67,-119.42"/>
<polygon fill="black" stroke="black" points="286.18,-119.32 281.92,-109.62 279.2,-119.86 286.18,-119.32"/>
</g>
<!-- librsvg&#45;&gt;ffmpeg -->
<g id="edge4" class="edge">
<title>librsvg&#45;&gt;ffmpeg</title>
<path fill="none" stroke="black" d="M256.29,-222.05C249.71,-220.02 242.88,-217.93 236.47,-216 191.39,-202.4 139.83,-187.26 103.48,-176.65"/>
<polygon fill="black" stroke="black" points="104.75,-173.38 94.17,-173.94 102.79,-180.1 104.75,-173.38"/>
</g>
<!-- kitty -->
<g id="node6" class="node">
<title>kitty</title>
<g id="a_node6"><a xlink:href="https://github.com/conda-forge/kitty-feedstock" xlink:title="kitty">
<ellipse fill="#fde725" stroke="black" cx="342.47" cy="-162" rx="34.37" ry="18"/>
<text text-anchor="middle" x="342.47" y="-157.32" font-family="Times,serif" font-size="14.00">kitty</text>
</a>
</g>
</g>
<!-- librsvg&#45;&gt;kitty -->
<g id="edge5" class="edge">
<title>librsvg&#45;&gt;kitty</title>
<path fill="none" stroke="black" d="M303.56,-216.41C309.68,-208.01 317.24,-197.63 324.07,-188.26"/>
<polygon fill="black" stroke="black" points="326.87,-190.35 329.93,-180.21 321.22,-186.23 326.87,-190.35"/>
</g>
<!-- gtk3 -->
<g id="node7" class="node">
<title>gtk3</title>
<g id="a_node7"><a xlink:href="https://github.com/conda-forge/gtk3-feedstock" xlink:title="gtk3">
<ellipse fill="#fde725" stroke="black" cx="191.47" cy="-162" rx="33.85" ry="18"/>
<text text-anchor="middle" x="191.47" y="-157.32" font-family="Times,serif" font-size="14.00">gtk3</text>
</a>
</g>
</g>
<!-- librsvg&#45;&gt;gtk3 -->
<g id="edge6" class="edge">
<title>librsvg&#45;&gt;gtk3</title>
<path fill="none" stroke="black" d="M269.77,-217.81C255.41,-207.75 236.39,-194.44 220.7,-183.46"/>
<polygon fill="black" stroke="black" points="222.87,-180.71 212.67,-177.84 218.86,-186.44 222.87,-180.71"/>
</g>
<!-- gtk3&#45;&gt;emacs -->
<g id="edge7" class="edge">
<title>gtk3&#45;&gt;emacs</title>
<path fill="none" stroke="black" d="M209.91,-146.5C222.11,-136.9 238.34,-124.14 252.16,-113.27"/>
<polygon fill="black" stroke="black" points="253.94,-116.33 259.63,-107.39 249.61,-110.82 253.94,-116.33"/>
</g>
<!-- gtk3&#45;&gt;panda3d -->
<g id="edge8" class="edge">
<title>gtk3&#45;&gt;panda3d</title>
<path fill="none" stroke="black" d="M185.18,-144.05C182.38,-136.52 179.01,-127.44 175.85,-118.94"/>
<polygon fill="black" stroke="black" points="179.18,-117.85 172.42,-109.69 172.62,-120.29 179.18,-117.85"/>
</g>
<!-- pango -->
<g id="node8" class="node">
<title>pango</title>
<g id="a_node8"><a xlink:href="https://github.com/conda-forge/pango-feedstock/pull/87" xlink:title="pango ❎">
<ellipse fill="#31688e" stroke="black" cx="291.47" cy="-306" rx="57" ry="18"/>
<text text-anchor="middle" x="291.47" y="-301.32" font-family="Times,serif" font-size="14.00" fill="white">pango ❎</text>
</a>
</g>
</g>
<!-- pango&#45;&gt;librsvg -->
<g id="edge9" class="edge">
<title>pango&#45;&gt;librsvg</title>
<path fill="none" stroke="black" d="M291.47,-287.7C291.47,-280.41 291.47,-271.73 291.47,-263.54"/>
<polygon fill="black" stroke="black" points="294.97,-263.62 291.47,-253.62 287.97,-263.62 294.97,-263.62"/>
</g>
<!-- pango&#45;&gt;kitty -->
<g id="edge10" class="edge">
<title>pango&#45;&gt;kitty</title>
<path fill="none" stroke="black" d="M315.13,-289.33C326.94,-280.04 340.04,-267.13 346.47,-252 354.57,-232.94 353.11,-209.47 349.86,-191.42"/>
<polygon fill="black" stroke="black" points="353.29,-190.72 347.81,-181.66 346.44,-192.16 353.29,-190.72"/>
</g>
<!-- pango&#45;&gt;gtk3 -->
<g id="edge11" class="edge">
<title>pango&#45;&gt;gtk3</title>
<path fill="none" stroke="black" d="M237.75,-299.65C206.72,-293.48 170.05,-280.27 150.47,-252 136.24,-231.45 151.86,-205.16 167.75,-186.5"/>
<polygon fill="black" stroke="black" points="170.3,-188.89 174.42,-179.13 165.11,-184.19 170.3,-188.89"/>
</g>
<!-- gtk2 -->
<g id="node9" class="node">
<title>gtk2</title>
<g id="a_node9"><a xlink:href="https://github.com/conda-forge/gtk2-feedstock" xlink:title="gtk2">
<ellipse fill="#fde725" stroke="black" cx="193.47" cy="-234" rx="33.85" ry="18"/>
<text text-anchor="middle" x="193.47" y="-229.32" font-family="Times,serif" font-size="14.00">gtk2</text>
</a>
</g>
</g>
<!-- pango&#45;&gt;gtk2 -->
<g id="edge12" class="edge">
<title>pango&#45;&gt;gtk2</title>
<path fill="none" stroke="black" d="M269.24,-289.12C255.34,-279.19 237.3,-266.3 222.31,-255.6"/>
<polygon fill="black" stroke="black" points="224.37,-252.77 214.2,-249.81 220.3,-258.47 224.37,-252.77"/>
</g>
<!-- gtk4 -->
<g id="node10" class="node">
<title>gtk4</title>
<g id="a_node10"><a xlink:href="https://github.com/conda-forge/gtk4-feedstock" xlink:title="gtk4">
<ellipse fill="#fde725" stroke="black" cx="428.47" cy="-162" rx="33.85" ry="18"/>
<text text-anchor="middle" x="428.47" y="-157.32" font-family="Times,serif" font-size="14.00">gtk4</text>
</a>
</g>
</g>
<!-- pango&#45;&gt;gtk4 -->
<g id="edge13" class="edge">
<title>pango&#45;&gt;gtk4</title>
<path fill="none" stroke="black" d="M316.28,-289.51C330.89,-279.74 349.23,-266.29 363.47,-252 382.5,-232.9 400.27,-207.86 412.41,-189.21"/>
<polygon fill="black" stroke="black" points="415.31,-191.17 417.73,-180.86 409.41,-187.41 415.31,-191.17"/>
</g>
<!-- r&#45;cairo -->
<g id="node11" class="node">
<title>r&#45;cairo</title>
<g id="a_node11"><a xlink:href="https://github.com/conda-forge/r-cairo-feedstock/pull/45" xlink:title="r cairo ❎">
<ellipse fill="#31688e" stroke="black" cx="564.47" cy="-378" rx="59.1" ry="18"/>
<text text-anchor="middle" x="564.47" y="-373.32" font-family="Times,serif" font-size="14.00" fill="white">r cairo ❎</text>
</a>
</g>
</g>
<!-- tectonic -->
<g id="node12" class="node">
<title>tectonic</title>
<g id="a_node12"><a xlink:href="https://github.com/conda-forge/tectonic-feedstock/pull/76" xlink:title="tectonic ❎">
<ellipse fill="#31688e" stroke="black" cx="564.47" cy="-306" rx="66.47" ry="18"/>
<text text-anchor="middle" x="564.47" y="-301.32" font-family="Times,serif" font-size="14.00" fill="white">tectonic ❎</text>
</a>
</g>
</g>
<!-- r&#45;cairo&#45;&gt;tectonic -->
<!-- texlive&#45;core -->
<g id="node13" class="node">
<title>texlive&#45;core</title>
<g id="a_node13"><a xlink:href="https://github.com/conda-forge/texlive-core-feedstock/pull/101" xlink:title="texlive core ❎">
<ellipse fill="#31688e" stroke="black" cx="564.47" cy="-234" rx="84.88" ry="18"/>
<text text-anchor="middle" x="564.47" y="-229.32" font-family="Times,serif" font-size="14.00" fill="white">texlive core ❎</text>
</a>
</g>
</g>
<!-- tectonic&#45;&gt;texlive&#45;core -->
<!-- r&#45;textshaping -->
<g id="node14" class="node">
<title>r&#45;textshaping</title>
<g id="a_node14"><a xlink:href="https://github.com/conda-forge/r-textshaping-feedstock/pull/29" xlink:title="r textshaping ❎">
<ellipse fill="#31688e" stroke="black" cx="564.47" cy="-162" rx="93.82" ry="18"/>
<text text-anchor="middle" x="564.47" y="-157.32" font-family="Times,serif" font-size="14.00" fill="white">r textshaping ❎</text>
</a>
</g>
</g>
<!-- texlive&#45;core&#45;&gt;r&#45;textshaping -->
<!-- mapserver -->
<g id="node16" class="node">
<title>mapserver</title>
<g id="a_node16"><a xlink:href="https://github.com/conda-forge/mapserver-feedstock/pull/71" xlink:title="mapserver ❎">
<ellipse fill="#31688e" stroke="black" cx="564.47" cy="-90" rx="80.14" ry="18"/>
<text text-anchor="middle" x="564.47" y="-85.33" font-family="Times,serif" font-size="14.00" fill="white">mapserver ❎</text>
</a>
</g>
</g>
<!-- r&#45;textshaping&#45;&gt;mapserver -->
<!-- libass -->
<g id="node15" class="node">
<title>libass</title>
<g id="a_node15"><a xlink:href="https://github.com/conda-forge/libass-feedstock/pull/30" xlink:title="libass ✓">
<ellipse fill="#31688e" stroke="black" cx="55.47" cy="-234" rx="48.05" ry="18"/>
<text text-anchor="middle" x="55.47" y="-229.32" font-family="Times,serif" font-size="14.00" fill="white">libass ✓</text>
</a>
</g>
</g>
<!-- libass&#45;&gt;ffmpeg -->
<g id="edge17" class="edge">
<title>libass&#45;&gt;ffmpeg</title>
<path fill="none" stroke="black" d="M55.72,-215.7C55.82,-208.41 55.95,-199.73 56.07,-191.54"/>
<polygon fill="black" stroke="black" points="59.56,-191.67 56.21,-181.62 52.56,-191.57 59.56,-191.67"/>
</g>
<!-- silicon -->
<g id="node19" class="node">
<title>silicon</title>
<g id="a_node19"><a xlink:href="https://github.com/conda-forge/silicon-feedstock/pull/5" xlink:title="silicon ❎">
<ellipse fill="#31688e" stroke="black" cx="564.47" cy="-18" rx="58.57" ry="18"/>
<text text-anchor="middle" x="564.47" y="-13.32" font-family="Times,serif" font-size="14.00" fill="white">silicon ❎</text>
</a>
</g>
</g>
<!-- mapserver&#45;&gt;silicon -->
<!-- qt&#45;main -->
<g id="node17" class="node">
<title>qt&#45;main</title>
<g id="a_node17"><a xlink:href="https://github.com/conda-forge/qt-main-feedstock/pull/324" xlink:title="qt main ❎">
<ellipse fill="#31688e" stroke="black" cx="745.47" cy="-234" rx="64.89" ry="18"/>
<text text-anchor="middle" x="745.47" y="-229.32" font-family="Times,serif" font-size="14.00" fill="white">qt main ❎</text>
</a>
</g>
</g>
<!-- qt&#45;webengine -->
<g id="node18" class="node">
<title>qt&#45;webengine</title>
<g id="a_node18"><a xlink:href="https://github.com/conda-forge/qt-webengine-feedstock" xlink:title="qt webengine">
<ellipse fill="#fde725" stroke="black" cx="745.47" cy="-162" rx="79.09" ry="18"/>
<text text-anchor="middle" x="745.47" y="-157.32" font-family="Times,serif" font-size="14.00">qt webengine</text>
</a>
</g>
</g>
<!-- qt&#45;main&#45;&gt;qt&#45;webengine -->
<g id="edge19" class="edge">
<title>qt&#45;main&#45;&gt;qt&#45;webengine</title>
<path fill="none" stroke="black" d="M745.47,-215.7C745.47,-208.41 745.47,-199.73 745.47,-191.54"/>
<polygon fill="black" stroke="black" points="748.97,-191.62 745.47,-181.62 741.97,-191.62 748.97,-191.62"/>
</g>
</g>
</svg>
