<?xml version="1.0" encoding="UTF-8" standalone="no"?>
<!DOCTYPE svg PUBLIC "-//W3C//DTD SVG 1.1//EN"
 "http://www.w3.org/Graphics/SVG/1.1/DTD/svg11.dtd">
<!-- Generated by graphviz version 12.2.1 (20250203.1708)
 -->
<!-- Pages: 1 -->
<svg width="815pt" height="476pt"
 viewBox="0.00 0.00 814.57 476.00" xmlns="http://www.w3.org/2000/svg" xmlns:xlink="http://www.w3.org/1999/xlink">
<g id="graph0" class="graph" transform="scale(1 1) rotate(0) translate(4 472)">
<polygon fill="white" stroke="none" points="-4,4 -4,-472 810.57,-472 810.57,4 -4,4"/>
<!-- emacs -->
<g id="node1" class="node">
<title>emacs</title>
<g id="a_node1"><a xlink:href="https://github.com/conda-forge/emacs-feedstock" xlink:title="emacs">
<ellipse fill="#fde725" stroke="black" cx="280.47" cy="-126" rx="42.79" ry="18"/>
<text text-anchor="middle" x="280.47" y="-121.33" font-family="Times,serif" font-size="14.00">emacs</text>
</a>
</g>
</g>
<!-- ffmpeg -->
<g id="node2" class="node">
<title>ffmpeg</title>
<g id="a_node2"><a xlink:href="https://github.com/conda-forge/ffmpeg-feedstock" xlink:title="ffmpeg">
<ellipse fill="#fde725" stroke="black" cx="56.47" cy="-198" rx="45.95" ry="18"/>
<text text-anchor="middle" x="56.47" y="-193.32" font-family="Times,serif" font-size="14.00">ffmpeg</text>
</a>
</g>
</g>
<!-- opencv -->
<g id="node3" class="node">
<title>opencv</title>
<g id="a_node3"><a xlink:href="https://github.com/conda-forge/opencv-feedstock" xlink:title="opencv">
<ellipse fill="#fde725" stroke="black" cx="46.47" cy="-126" rx="46.47" ry="18"/>
<text text-anchor="middle" x="46.47" y="-121.33" font-family="Times,serif" font-size="14.00">opencv</text>
</a>
</g>
</g>
<!-- ffmpeg&#45;&gt;opencv -->
<g id="edge1" class="edge">
<title>ffmpeg&#45;&gt;opencv</title>
<path fill="none" stroke="black" d="M54,-179.7C52.95,-172.32 51.69,-163.52 50.51,-155.25"/>
<polygon fill="black" stroke="black" points="54.01,-155.01 49.13,-145.6 47.08,-156 54.01,-155.01"/>
</g>
<!-- panda3d -->
<g id="node4" class="node">
<title>panda3d</title>
<g id="a_node4"><a xlink:href="https://github.com/conda-forge/panda3d-feedstock" xlink:title="panda3d">
<ellipse fill="#fde725" stroke="black" cx="165.47" cy="-126" rx="54.36" ry="18"/>
<text text-anchor="middle" x="165.47" y="-121.33" font-family="Times,serif" font-size="14.00">panda3d</text>
</a>
</g>
</g>
<!-- ffmpeg&#45;&gt;panda3d -->
<g id="edge2" class="edge">
<title>ffmpeg&#45;&gt;panda3d</title>
<path fill="none" stroke="black" d="M79.59,-182.15C94.74,-172.43 114.8,-159.54 131.72,-148.68"/>
<polygon fill="black" stroke="black" points="133.46,-151.72 139.98,-143.37 129.68,-145.83 133.46,-151.72"/>
</g>
<!-- librsvg -->
<g id="node5" class="node">
<title>librsvg</title>
<g id="a_node5"><a xlink:href="https://github.com/conda-forge/librsvg-feedstock" xlink:title="librsvg">
<ellipse fill="#fde725" stroke="black" cx="291.47" cy="-270" rx="45.95" ry="18"/>
<text text-anchor="middle" x="291.47" y="-265.32" font-family="Times,serif" font-size="14.00">librsvg</text>
</a>
</g>
</g>
<!-- librsvg&#45;&gt;emacs -->
<g id="edge3" class="edge">
<title>librsvg&#45;&gt;emacs</title>
<path fill="none" stroke="black" d="M290.12,-251.59C288.27,-227.61 284.9,-184.14 282.67,-155.42"/>
<polygon fill="black" stroke="black" points="286.18,-155.32 281.92,-145.62 279.2,-155.86 286.18,-155.32"/>
</g>
<!-- librsvg&#45;&gt;ffmpeg -->
<g id="edge4" class="edge">
<title>librsvg&#45;&gt;ffmpeg</title>
<path fill="none" stroke="black" d="M256.29,-258.05C249.71,-256.02 242.88,-253.93 236.47,-252 191.39,-238.4 139.83,-223.26 103.48,-212.65"/>
<polygon fill="black" stroke="black" points="104.75,-209.38 94.17,-209.94 102.79,-216.1 104.75,-209.38"/>
</g>
<!-- kitty -->
<g id="node6" class="node">
<title>kitty</title>
<g id="a_node6"><a xlink:href="https://github.com/conda-forge/kitty-feedstock" xlink:title="kitty">
<ellipse fill="#fde725" stroke="black" cx="342.47" cy="-198" rx="34.37" ry="18"/>
<text text-anchor="middle" x="342.47" y="-193.32" font-family="Times,serif" font-size="14.00">kitty</text>
</a>
</g>
</g>
<!-- librsvg&#45;&gt;kitty -->
<g id="edge5" class="edge">
<title>librsvg&#45;&gt;kitty</title>
<path fill="none" stroke="black" d="M303.56,-252.41C309.68,-244.01 317.24,-233.63 324.07,-224.26"/>
<polygon fill="black" stroke="black" points="326.87,-226.35 329.93,-216.21 321.22,-222.23 326.87,-226.35"/>
</g>
<!-- gtk3 -->
<g id="node7" class="node">
<title>gtk3</title>
<g id="a_node7"><a xlink:href="https://github.com/conda-forge/gtk3-feedstock" xlink:title="gtk3">
<ellipse fill="#fde725" stroke="black" cx="191.47" cy="-198" rx="33.85" ry="18"/>
<text text-anchor="middle" x="191.47" y="-193.32" font-family="Times,serif" font-size="14.00">gtk3</text>
</a>
</g>
</g>
<!-- librsvg&#45;&gt;gtk3 -->
<g id="edge6" class="edge">
<title>librsvg&#45;&gt;gtk3</title>
<path fill="none" stroke="black" d="M269.77,-253.81C255.41,-243.75 236.39,-230.44 220.7,-219.46"/>
<polygon fill="black" stroke="black" points="222.87,-216.71 212.67,-213.84 218.86,-222.44 222.87,-216.71"/>
</g>
<!-- gtk3&#45;&gt;emacs -->
<g id="edge7" class="edge">
<title>gtk3&#45;&gt;emacs</title>
<path fill="none" stroke="black" d="M209.91,-182.5C222.11,-172.9 238.34,-160.14 252.16,-149.27"/>
<polygon fill="black" stroke="black" points="253.94,-152.33 259.63,-143.39 249.61,-146.82 253.94,-152.33"/>
</g>
<!-- gtk3&#45;&gt;panda3d -->
<g id="edge8" class="edge">
<title>gtk3&#45;&gt;panda3d</title>
<path fill="none" stroke="black" d="M185.18,-180.05C182.38,-172.52 179.01,-163.44 175.85,-154.94"/>
<polygon fill="black" stroke="black" points="179.18,-153.85 172.42,-145.69 172.62,-156.29 179.18,-153.85"/>
</g>
<!-- openjdk -->
<g id="node8" class="node">
<title>openjdk</title>
<g id="a_node8"><a xlink:href="https://github.com/conda-forge/openjdk-feedstock/pull/193" xlink:title="openjdk ❎">
<ellipse fill="#31688e" stroke="black" cx="555.47" cy="-450" rx="65.94" ry="18"/>
<text text-anchor="middle" x="555.47" y="-445.32" font-family="Times,serif" font-size="14.00" fill="white">openjdk ❎</text>
</a>
</g>
</g>
<!-- r&#45;cairo -->
<g id="node9" class="node">
<title>r&#45;cairo</title>
<g id="a_node9"><a xlink:href="https://github.com/conda-forge/r-cairo-feedstock" xlink:title="r cairo">
<ellipse fill="#ff8c00" stroke="black" cx="555.47" cy="-378" rx="43.84" ry="18"/>
<text text-anchor="middle" x="555.47" y="-373.32" font-family="Times,serif" font-size="14.00">r cairo</text>
</a>
</g>
</g>
<!-- openjdk&#45;&gt;r&#45;cairo -->
<!-- tectonic -->
<g id="node13" class="node">
<title>tectonic</title>
<g id="a_node13"><a xlink:href="https://github.com/conda-forge/tectonic-feedstock/pull/76" xlink:title="tectonic ❎">
<ellipse fill="#31688e" stroke="black" cx="555.47" cy="-306" rx="66.47" ry="18"/>
<text text-anchor="middle" x="555.47" y="-301.32" font-family="Times,serif" font-size="14.00" fill="white">tectonic ❎</text>
</a>
</g>
</g>
<!-- r&#45;cairo&#45;&gt;tectonic -->
<!-- pango -->
<g id="node10" class="node">
<title>pango</title>
<g id="a_node10"><a xlink:href="https://github.com/conda-forge/pango-feedstock/pull/87" xlink:title="pango ❎">
<ellipse fill="#31688e" stroke="black" cx="291.47" cy="-342" rx="57" ry="18"/>
<text text-anchor="middle" x="291.47" y="-337.32" font-family="Times,serif" font-size="14.00" fill="white">pango ❎</text>
</a>
</g>
</g>
<!-- pango&#45;&gt;librsvg -->
<g id="edge10" class="edge">
<title>pango&#45;&gt;librsvg</title>
<path fill="none" stroke="black" d="M291.47,-323.7C291.47,-316.41 291.47,-307.73 291.47,-299.54"/>
<polygon fill="black" stroke="black" points="294.97,-299.62 291.47,-289.62 287.97,-299.62 294.97,-299.62"/>
</g>
<!-- pango&#45;&gt;kitty -->
<g id="edge11" class="edge">
<title>pango&#45;&gt;kitty</title>
<path fill="none" stroke="black" d="M315.13,-325.33C326.94,-316.04 340.04,-303.13 346.47,-288 354.57,-268.94 353.11,-245.47 349.86,-227.42"/>
<polygon fill="black" stroke="black" points="353.29,-226.72 347.81,-217.66 346.44,-228.16 353.29,-226.72"/>
</g>
<!-- pango&#45;&gt;gtk3 -->
<g id="edge12" class="edge">
<title>pango&#45;&gt;gtk3</title>
<path fill="none" stroke="black" d="M237.75,-335.65C206.72,-329.48 170.05,-316.27 150.47,-288 136.24,-267.45 151.86,-241.16 167.75,-222.5"/>
<polygon fill="black" stroke="black" points="170.3,-224.89 174.42,-215.13 165.11,-220.19 170.3,-224.89"/>
</g>
<!-- gtk2 -->
<g id="node11" class="node">
<title>gtk2</title>
<g id="a_node11"><a xlink:href="https://github.com/conda-forge/gtk2-feedstock" xlink:title="gtk2">
<ellipse fill="#fde725" stroke="black" cx="193.47" cy="-270" rx="33.85" ry="18"/>
<text text-anchor="middle" x="193.47" y="-265.32" font-family="Times,serif" font-size="14.00">gtk2</text>
</a>
</g>
</g>
<!-- pango&#45;&gt;gtk2 -->
<g id="edge13" class="edge">
<title>pango&#45;&gt;gtk2</title>
<path fill="none" stroke="black" d="M269.24,-325.12C255.34,-315.19 237.3,-302.3 222.31,-291.6"/>
<polygon fill="black" stroke="black" points="224.37,-288.77 214.2,-285.81 220.3,-294.47 224.37,-288.77"/>
</g>
<!-- gtk4 -->
<g id="node12" class="node">
<title>gtk4</title>
<g id="a_node12"><a xlink:href="https://github.com/conda-forge/gtk4-feedstock" xlink:title="gtk4">
<ellipse fill="#fde725" stroke="black" cx="428.47" cy="-198" rx="33.85" ry="18"/>
<text text-anchor="middle" x="428.47" y="-193.32" font-family="Times,serif" font-size="14.00">gtk4</text>
</a>
</g>
</g>
<!-- pango&#45;&gt;gtk4 -->
<g id="edge14" class="edge">
<title>pango&#45;&gt;gtk4</title>
<path fill="none" stroke="black" d="M316.28,-325.51C330.89,-315.74 349.23,-302.29 363.47,-288 382.5,-268.9 400.27,-243.86 412.41,-225.21"/>
<polygon fill="black" stroke="black" points="415.31,-227.17 417.73,-216.86 409.41,-223.41 415.31,-227.17"/>
</g>
<!-- texlive&#45;core -->
<g id="node14" class="node">
<title>texlive&#45;core</title>
<g id="a_node14"><a xlink:href="https://github.com/conda-forge/texlive-core-feedstock/pull/101" xlink:title="texlive core ❎">
<ellipse fill="#31688e" stroke="black" cx="555.47" cy="-234" rx="84.88" ry="18"/>
<text text-anchor="middle" x="555.47" y="-229.32" font-family="Times,serif" font-size="14.00" fill="white">texlive core ❎</text>
</a>
</g>
</g>
<!-- tectonic&#45;&gt;texlive&#45;core -->
<!-- r&#45;textshaping -->
<g id="node15" class="node">
<title>r&#45;textshaping</title>
<g id="a_node15"><a xlink:href="https://github.com/conda-forge/r-textshaping-feedstock" xlink:title="r textshaping">
<ellipse fill="#ff8c00" stroke="black" cx="555.47" cy="-162" rx="78.57" ry="18"/>
<text text-anchor="middle" x="555.47" y="-157.32" font-family="Times,serif" font-size="14.00">r textshaping</text>
</a>
</g>
</g>
<!-- texlive&#45;core&#45;&gt;r&#45;textshaping -->
<!-- mapserver -->
<g id="node17" class="node">
<title>mapserver</title>
<g id="a_node17"><a xlink:href="https://github.com/conda-forge/mapserver-feedstock/pull/71" xlink:title="mapserver ❎">
<ellipse fill="#31688e" stroke="black" cx="555.47" cy="-90" rx="80.14" ry="18"/>
<text text-anchor="middle" x="555.47" y="-85.33" font-family="Times,serif" font-size="14.00" fill="white">mapserver ❎</text>
</a>
</g>
</g>
<!-- r&#45;textshaping&#45;&gt;mapserver -->
<!-- libass -->
<g id="node16" class="node">
<title>libass</title>
<g id="a_node16"><a xlink:href="https://github.com/conda-forge/libass-feedstock/pull/30" xlink:title="libass ✓">
<ellipse fill="#31688e" stroke="black" cx="55.47" cy="-270" rx="48.05" ry="18"/>
<text text-anchor="middle" x="55.47" y="-265.32" font-family="Times,serif" font-size="14.00" fill="white">libass ✓</text>
</a>
</g>
</g>
<!-- libass&#45;&gt;ffmpeg -->
<g id="edge18" class="edge">
<title>libass&#45;&gt;ffmpeg</title>
<path fill="none" stroke="black" d="M55.72,-251.7C55.82,-244.41 55.95,-235.73 56.07,-227.54"/>
<polygon fill="black" stroke="black" points="59.56,-227.67 56.21,-217.62 52.56,-227.57 59.56,-227.67"/>
</g>
<!-- silicon -->
<g id="node20" class="node">
<title>silicon</title>
<g id="a_node20"><a xlink:href="https://github.com/conda-forge/silicon-feedstock/pull/5" xlink:title="silicon ❎">
<ellipse fill="#31688e" stroke="black" cx="555.47" cy="-18" rx="58.57" ry="18"/>
<text text-anchor="middle" x="555.47" y="-13.32" font-family="Times,serif" font-size="14.00" fill="white">silicon ❎</text>
</a>
</g>
</g>
<!-- mapserver&#45;&gt;silicon -->
<!-- qt&#45;main -->
<g id="node18" class="node">
<title>qt&#45;main</title>
<g id="a_node18"><a xlink:href="https://github.com/conda-forge/qt-main-feedstock/pull/324" xlink:title="qt main ❎">
<ellipse fill="#31688e" stroke="black" cx="727.47" cy="-270" rx="64.89" ry="18"/>
<text text-anchor="middle" x="727.47" y="-265.32" font-family="Times,serif" font-size="14.00" fill="white">qt main ❎</text>
</a>
</g>
</g>
<!-- qt&#45;webengine -->
<g id="node19" class="node">
<title>qt&#45;webengine</title>
<g id="a_node19"><a xlink:href="https://github.com/conda-forge/qt-webengine-feedstock" xlink:title="qt webengine">
<ellipse fill="#fde725" stroke="black" cx="727.47" cy="-198" rx="79.09" ry="18"/>
<text text-anchor="middle" x="727.47" y="-193.32" font-family="Times,serif" font-size="14.00">qt webengine</text>
</a>
</g>
</g>
<!-- qt&#45;main&#45;&gt;qt&#45;webengine -->
<g id="edge20" class="edge">
<title>qt&#45;main&#45;&gt;qt&#45;webengine</title>
<path fill="none" stroke="black" d="M727.47,-251.7C727.47,-244.41 727.47,-235.73 727.47,-227.54"/>
<polygon fill="black" stroke="black" points="730.97,-227.62 727.47,-217.62 723.97,-227.62 730.97,-227.62"/>
</g>
</g>
</svg>
