<?xml version="1.0" encoding="UTF-8" standalone="no"?>
<!DOCTYPE svg PUBLIC "-//W3C//DTD SVG 1.1//EN"
 "http://www.w3.org/Graphics/SVG/1.1/DTD/svg11.dtd">
<!-- Generated by graphviz version 12.0.0 (20240803.0821)
 -->
<!-- Pages: 1 -->
<svg width="811pt" height="548pt"
 viewBox="0.00 0.00 811.27 548.00" xmlns="http://www.w3.org/2000/svg" xmlns:xlink="http://www.w3.org/1999/xlink">
<g id="graph0" class="graph" transform="scale(1 1) rotate(0) translate(4 544)">
<polygon fill="white" stroke="none" points="-4,4 -4,-544 807.27,-544 807.27,4 -4,4"/>
<!-- emacs -->
<g id="node1" class="node">
<title>emacs</title>
<g id="a_node1"><a xlink:href="https://github.com/conda-forge/emacs-feedstock" xlink:title="emacs">
<ellipse fill="#fde725" stroke="black" cx="157.42" cy="-162" rx="42.79" ry="18"/>
<text text-anchor="middle" x="157.42" y="-157.32" font-family="Times,serif" font-size="14.00">emacs</text>
</a>
</g>
</g>
<!-- ffmpeg -->
<g id="node2" class="node">
<title>ffmpeg</title>
<g id="a_node2"><a xlink:href="https://github.com/conda-forge/ffmpeg-feedstock" xlink:title="ffmpeg">
<ellipse fill="#fde725" stroke="black" cx="295.42" cy="-234" rx="45.95" ry="18"/>
<text text-anchor="middle" x="295.42" y="-229.32" font-family="Times,serif" font-size="14.00">ffmpeg</text>
</a>
</g>
</g>
<!-- opencv -->
<g id="node3" class="node">
<title>opencv</title>
<g id="a_node3"><a xlink:href="https://github.com/conda-forge/opencv-feedstock" xlink:title="opencv">
<ellipse fill="#fde725" stroke="black" cx="402.42" cy="-162" rx="46.47" ry="18"/>
<text text-anchor="middle" x="402.42" y="-157.32" font-family="Times,serif" font-size="14.00">opencv</text>
</a>
</g>
</g>
<!-- ffmpeg&#45;&gt;opencv -->
<g id="edge1" class="edge">
<title>ffmpeg&#45;&gt;opencv</title>
<path fill="none" stroke="black" d="M318.38,-217.98C333.47,-208.11 353.44,-195.05 370.12,-184.13"/>
<polygon fill="black" stroke="black" points="371.79,-187.22 378.24,-178.82 367.95,-181.37 371.79,-187.22"/>
</g>
<!-- panda3d -->
<g id="node4" class="node">
<title>panda3d</title>
<g id="a_node4"><a xlink:href="https://github.com/conda-forge/panda3d-feedstock" xlink:title="panda3d">
<ellipse fill="#fde725" stroke="black" cx="283.42" cy="-162" rx="54.36" ry="18"/>
<text text-anchor="middle" x="283.42" y="-157.32" font-family="Times,serif" font-size="14.00">panda3d</text>
</a>
</g>
</g>
<!-- ffmpeg&#45;&gt;panda3d -->
<g id="edge2" class="edge">
<title>ffmpeg&#45;&gt;panda3d</title>
<path fill="none" stroke="black" d="M292.45,-215.7C291.19,-208.32 289.68,-199.52 288.26,-191.25"/>
<polygon fill="black" stroke="black" points="291.75,-190.86 286.61,-181.6 284.85,-192.04 291.75,-190.86"/>
</g>
<!-- librsvg -->
<g id="node5" class="node">
<title>librsvg</title>
<g id="a_node5"><a xlink:href="https://github.com/conda-forge/librsvg-feedstock" xlink:title="librsvg">
<ellipse fill="#fde725" stroke="black" cx="155.42" cy="-306" rx="45.95" ry="18"/>
<text text-anchor="middle" x="155.42" y="-301.32" font-family="Times,serif" font-size="14.00">librsvg</text>
</a>
</g>
</g>
<!-- librsvg&#45;&gt;emacs -->
<g id="edge3" class="edge">
<title>librsvg&#45;&gt;emacs</title>
<path fill="none" stroke="black" d="M154.82,-287.6C154.29,-269.66 153.72,-240.87 154.42,-216 154.65,-208.05 155.06,-199.43 155.51,-191.5"/>
<polygon fill="black" stroke="black" points="158.99,-191.88 156.11,-181.69 152.01,-191.45 158.99,-191.88"/>
</g>
<!-- librsvg&#45;&gt;ffmpeg -->
<g id="edge4" class="edge">
<title>librsvg&#45;&gt;ffmpeg</title>
<path fill="none" stroke="black" d="M183.08,-291.17C204.46,-280.48 234.28,-265.57 257.83,-253.8"/>
<polygon fill="black" stroke="black" points="259.09,-257.08 266.47,-249.48 255.96,-250.82 259.09,-257.08"/>
</g>
<!-- kitty -->
<g id="node6" class="node">
<title>kitty</title>
<g id="a_node6"><a xlink:href="https://github.com/conda-forge/kitty-feedstock" xlink:title="kitty">
<ellipse fill="#fde725" stroke="black" cx="57.42" cy="-234" rx="34.37" ry="18"/>
<text text-anchor="middle" x="57.42" y="-229.32" font-family="Times,serif" font-size="14.00">kitty</text>
</a>
</g>
</g>
<!-- librsvg&#45;&gt;kitty -->
<g id="edge5" class="edge">
<title>librsvg&#45;&gt;kitty</title>
<path fill="none" stroke="black" d="M134.16,-289.81C120.08,-279.75 101.44,-266.44 86.06,-255.46"/>
<polygon fill="black" stroke="black" points="88.38,-252.81 78.21,-249.85 84.31,-258.51 88.38,-252.81"/>
</g>
<!-- gtk3 -->
<g id="node7" class="node">
<title>gtk3</title>
<g id="a_node7"><a xlink:href="https://github.com/conda-forge/gtk3-feedstock" xlink:title="gtk3">
<ellipse fill="#fde725" stroke="black" cx="197.42" cy="-234" rx="33.85" ry="18"/>
<text text-anchor="middle" x="197.42" y="-229.32" font-family="Times,serif" font-size="14.00">gtk3</text>
</a>
</g>
</g>
<!-- librsvg&#45;&gt;gtk3 -->
<g id="edge6" class="edge">
<title>librsvg&#45;&gt;gtk3</title>
<path fill="none" stroke="black" d="M165.59,-288.05C170.46,-279.94 176.39,-270.04 181.82,-261.01"/>
<polygon fill="black" stroke="black" points="184.71,-262.98 186.86,-252.6 178.71,-259.38 184.71,-262.98"/>
</g>
<!-- gtk3&#45;&gt;emacs -->
<g id="edge7" class="edge">
<title>gtk3&#45;&gt;emacs</title>
<path fill="none" stroke="black" d="M187.94,-216.41C183.43,-208.51 177.91,-198.85 172.81,-189.94"/>
<polygon fill="black" stroke="black" points="175.86,-188.22 167.86,-181.27 169.78,-191.69 175.86,-188.22"/>
</g>
<!-- openjdk -->
<g id="node8" class="node">
<title>openjdk</title>
<g id="a_node8"><a xlink:href="https://github.com/conda-forge/openjdk-feedstock/pull/175" xlink:title="openjdk ❎">
<ellipse fill="#31688e" stroke="black" cx="718.39" cy="-522" rx="65.94" ry="18"/>
<text text-anchor="middle" x="718.39" y="-517.33" font-family="Times,serif" font-size="14.00" fill="white">openjdk ❎</text>
</a>
</g>
</g>
<!-- r&#45;cairo -->
<g id="node9" class="node">
<title>r&#45;cairo</title>
<g id="a_node9"><a xlink:href="https://github.com/conda-forge/r-cairo-feedstock" xlink:title="r cairo">
<ellipse fill="#35b779" stroke="black" cx="718.39" cy="-450" rx="43.84" ry="18"/>
<text text-anchor="middle" x="718.39" y="-445.32" font-family="Times,serif" font-size="14.00">r cairo</text>
</a>
</g>
</g>
<!-- openjdk&#45;&gt;r&#45;cairo -->
<!-- tectonic -->
<g id="node13" class="node">
<title>tectonic</title>
<g id="a_node13"><a xlink:href="https://github.com/conda-forge/tectonic-feedstock" xlink:title="tectonic">
<ellipse fill="#35b779" stroke="black" cx="718.39" cy="-378" rx="51.21" ry="18"/>
<text text-anchor="middle" x="718.39" y="-373.32" font-family="Times,serif" font-size="14.00">tectonic</text>
</a>
</g>
</g>
<!-- r&#45;cairo&#45;&gt;tectonic -->
<!-- pango -->
<g id="node10" class="node">
<title>pango</title>
<g id="a_node10"><a xlink:href="https://github.com/conda-forge/pango-feedstock/pull/80" xlink:title="pango ✓">
<ellipse fill="#31688e" stroke="black" cx="155.42" cy="-378" rx="49.63" ry="18"/>
<text text-anchor="middle" x="155.42" y="-373.32" font-family="Times,serif" font-size="14.00" fill="white">pango ✓</text>
</a>
</g>
</g>
<!-- pango&#45;&gt;librsvg -->
<g id="edge9" class="edge">
<title>pango&#45;&gt;librsvg</title>
<path fill="none" stroke="black" d="M155.42,-359.7C155.42,-352.41 155.42,-343.73 155.42,-335.54"/>
<polygon fill="black" stroke="black" points="158.92,-335.62 155.42,-325.62 151.92,-335.62 158.92,-335.62"/>
</g>
<!-- pango&#45;&gt;kitty -->
<g id="edge10" class="edge">
<title>pango&#45;&gt;kitty</title>
<path fill="none" stroke="black" d="M107.64,-372.76C75.48,-367.13 35.26,-354.1 14.42,-324 0,-303.17 16.51,-276.77 33.07,-258.15"/>
<polygon fill="black" stroke="black" points="35.46,-260.72 39.78,-251.04 30.37,-255.91 35.46,-260.72"/>
</g>
<!-- pango&#45;&gt;gtk3 -->
<g id="edge11" class="edge">
<title>pango&#45;&gt;gtk3</title>
<path fill="none" stroke="black" d="M178.51,-361.77C190.46,-352.46 203.88,-339.38 210.42,-324 218.73,-304.46 214.54,-280.56 208.79,-262.45"/>
<polygon fill="black" stroke="black" points="212.14,-261.44 205.51,-253.18 205.55,-263.78 212.14,-261.44"/>
</g>
<!-- gtk2 -->
<g id="node11" class="node">
<title>gtk2</title>
<g id="a_node11"><a xlink:href="https://github.com/conda-forge/gtk2-feedstock" xlink:title="gtk2">
<ellipse fill="#fde725" stroke="black" cx="57.42" cy="-306" rx="33.85" ry="18"/>
<text text-anchor="middle" x="57.42" y="-301.32" font-family="Times,serif" font-size="14.00">gtk2</text>
</a>
</g>
</g>
<!-- pango&#45;&gt;gtk2 -->
<g id="edge12" class="edge">
<title>pango&#45;&gt;gtk2</title>
<path fill="none" stroke="black" d="M133.67,-361.46C119.66,-351.46 101.3,-338.34 86.1,-327.48"/>
<polygon fill="black" stroke="black" points="88.52,-324.91 78.34,-321.95 84.45,-330.61 88.52,-324.91"/>
</g>
<!-- gtk4 -->
<g id="node12" class="node">
<title>gtk4</title>
<g id="a_node12"><a xlink:href="https://github.com/conda-forge/gtk4-feedstock" xlink:title="gtk4">
<ellipse fill="#fde725" stroke="black" cx="541.42" cy="-234" rx="33.85" ry="18"/>
<text text-anchor="middle" x="541.42" y="-229.32" font-family="Times,serif" font-size="14.00">gtk4</text>
</a>
</g>
</g>
<!-- pango&#45;&gt;gtk4 -->
<g id="edge13" class="edge">
<title>pango&#45;&gt;gtk4</title>
<path fill="none" stroke="black" d="M200.04,-369.81C245.42,-361.7 317.27,-346.61 376.42,-324 425.66,-305.18 478.65,-274.55 510.92,-254.58"/>
<polygon fill="black" stroke="black" points="512.74,-257.58 519.36,-249.31 509.03,-251.64 512.74,-257.58"/>
</g>
<!-- gtk2&#45;&gt;kitty -->
<g id="edge14" class="edge">
<title>gtk2&#45;&gt;kitty</title>
<path fill="none" stroke="black" d="M57.42,-287.7C57.42,-280.41 57.42,-271.73 57.42,-263.54"/>
<polygon fill="black" stroke="black" points="60.92,-263.62 57.42,-253.62 53.92,-263.62 60.92,-263.62"/>
</g>
<!-- texlive&#45;core -->
<g id="node14" class="node">
<title>texlive&#45;core</title>
<g id="a_node14"><a xlink:href="https://github.com/conda-forge/texlive-core-feedstock/pull/100" xlink:title="texlive core ❎">
<ellipse fill="#31688e" stroke="black" cx="718.39" cy="-306" rx="84.88" ry="18"/>
<text text-anchor="middle" x="718.39" y="-301.32" font-family="Times,serif" font-size="14.00" fill="white">texlive core ❎</text>
</a>
</g>
</g>
<!-- tectonic&#45;&gt;texlive&#45;core -->
<!-- mupdf -->
<g id="node15" class="node">
<title>mupdf</title>
<g id="a_node15"><a xlink:href="https://github.com/conda-forge/mupdf-feedstock" xlink:title="mupdf">
<ellipse fill="#35b779" stroke="black" cx="718.39" cy="-234" rx="43.32" ry="18"/>
<text text-anchor="middle" x="718.39" y="-229.32" font-family="Times,serif" font-size="14.00">mupdf</text>
</a>
</g>
</g>
<!-- texlive&#45;core&#45;&gt;mupdf -->
<!-- r&#45;textshaping -->
<g id="node17" class="node">
<title>r&#45;textshaping</title>
<g id="a_node17"><a xlink:href="https://github.com/conda-forge/r-textshaping-feedstock" xlink:title="r textshaping">
<ellipse fill="#35b779" stroke="black" cx="718.39" cy="-162" rx="78.57" ry="18"/>
<text text-anchor="middle" x="718.39" y="-157.32" font-family="Times,serif" font-size="14.00">r textshaping</text>
</a>
</g>
</g>
<!-- mupdf&#45;&gt;r&#45;textshaping -->
<!-- libass -->
<g id="node16" class="node">
<title>libass</title>
<g id="a_node16"><a xlink:href="https://github.com/conda-forge/libass-feedstock/pull/29" xlink:title="libass ❎">
<ellipse fill="#31688e" stroke="black" cx="312.42" cy="-306" rx="55.42" ry="18"/>
<text text-anchor="middle" x="312.42" y="-301.32" font-family="Times,serif" font-size="14.00" fill="white">libass ❎</text>
</a>
</g>
</g>
<!-- libass&#45;&gt;ffmpeg -->
<g id="edge18" class="edge">
<title>libass&#45;&gt;ffmpeg</title>
<path fill="none" stroke="black" d="M308.22,-287.7C306.43,-280.32 304.29,-271.52 302.28,-263.25"/>
<polygon fill="black" stroke="black" points="305.69,-262.47 299.93,-253.58 298.89,-264.12 305.69,-262.47"/>
</g>
<!-- mapserver -->
<g id="node18" class="node">
<title>mapserver</title>
<g id="a_node18"><a xlink:href="https://github.com/conda-forge/mapserver-feedstock" xlink:title="mapserver">
<ellipse fill="#35b779" stroke="black" cx="718.39" cy="-90" rx="64.89" ry="18"/>
<text text-anchor="middle" x="718.39" y="-85.33" font-family="Times,serif" font-size="14.00">mapserver</text>
</a>
</g>
</g>
<!-- r&#45;textshaping&#45;&gt;mapserver -->
<!-- silicon -->
<g id="node21" class="node">
<title>silicon</title>
<g id="a_node21"><a xlink:href="https://github.com/conda-forge/silicon-feedstock" xlink:title="silicon">
<ellipse fill="#35b779" stroke="black" cx="718.39" cy="-18" rx="43.32" ry="18"/>
<text text-anchor="middle" x="718.39" y="-13.32" font-family="Times,serif" font-size="14.00">silicon</text>
</a>
</g>
</g>
<!-- mapserver&#45;&gt;silicon -->
<!-- qt&#45;main -->
<g id="node19" class="node">
<title>qt&#45;main</title>
<g id="a_node19"><a xlink:href="https://github.com/conda-forge/qt-main-feedstock/pull/316" xlink:title="qt main ❎">
<ellipse fill="#31688e" stroke="black" cx="424.42" cy="-234" rx="64.89" ry="18"/>
<text text-anchor="middle" x="424.42" y="-229.32" font-family="Times,serif" font-size="14.00" fill="white">qt main ❎</text>
</a>
</g>
</g>
<!-- qt&#45;main&#45;&gt;opencv -->
<g id="edge21" class="edge">
<title>qt&#45;main&#45;&gt;opencv</title>
<path fill="none" stroke="black" d="M418.98,-215.7C416.64,-208.24 413.84,-199.32 411.21,-190.97"/>
<polygon fill="black" stroke="black" points="414.59,-190.04 408.25,-181.55 407.91,-192.14 414.59,-190.04"/>
</g>
<!-- qt&#45;webengine -->
<g id="node20" class="node">
<title>qt&#45;webengine</title>
<g id="a_node20"><a xlink:href="https://github.com/conda-forge/qt-webengine-feedstock" xlink:title="qt webengine">
<ellipse fill="#fde725" stroke="black" cx="546.42" cy="-162" rx="79.09" ry="18"/>
<text text-anchor="middle" x="546.42" y="-157.32" font-family="Times,serif" font-size="14.00">qt webengine</text>
</a>
</g>
</g>
<!-- qt&#45;main&#45;&gt;qt&#45;webengine -->
<g id="edge22" class="edge">
<title>qt&#45;main&#45;&gt;qt&#45;webengine</title>
<path fill="none" stroke="black" d="M451.8,-217.29C468.52,-207.7 490.13,-195.3 508.48,-184.77"/>
<polygon fill="black" stroke="black" points="510.04,-187.91 516.97,-179.9 506.56,-181.84 510.04,-187.91"/>
</g>
</g>
</svg>
