<?xml version="1.0" encoding="UTF-8" standalone="no"?>
<!DOCTYPE svg PUBLIC "-//W3C//DTD SVG 1.1//EN"
 "http://www.w3.org/Graphics/SVG/1.1/DTD/svg11.dtd">
<!-- Generated by graphviz version 12.2.1 (20250203.1708)
 -->
<!-- Pages: 1 -->
<svg width="773pt" height="332pt"
 viewBox="0.00 0.00 772.94 332.00" xmlns="http://www.w3.org/2000/svg" xmlns:xlink="http://www.w3.org/1999/xlink">
<g id="graph0" class="graph" transform="scale(1 1) rotate(0) translate(4 328)">
<polygon fill="white" stroke="none" points="-4,4 -4,-328 768.94,-328 768.94,4 -4,4"/>
<!-- emacs -->
<g id="node1" class="node">
<title>emacs</title>
<g id="a_node1"><a xlink:href="https://github.com/conda-forge/emacs-feedstock" xlink:title="emacs">
<ellipse fill="#fde725" stroke="black" cx="360.85" cy="-54" rx="42.79" ry="18"/>
<text text-anchor="middle" x="360.85" y="-49.33" font-family="Times,serif" font-size="14.00">emacs</text>
</a>
</g>
</g>
<!-- ffmpeg -->
<g id="node2" class="node">
<title>ffmpeg</title>
<g id="a_node2"><a xlink:href="https://github.com/conda-forge/ffmpeg-feedstock" xlink:title="ffmpeg">
<ellipse fill="#fde725" stroke="black" cx="224.85" cy="-126" rx="45.95" ry="18"/>
<text text-anchor="middle" x="224.85" y="-121.33" font-family="Times,serif" font-size="14.00">ffmpeg</text>
</a>
</g>
</g>
<!-- opencv -->
<g id="node3" class="node">
<title>opencv</title>
<g id="a_node3"><a xlink:href="https://github.com/conda-forge/opencv-feedstock" xlink:title="opencv">
<ellipse fill="#fde725" stroke="black" cx="126.85" cy="-54" rx="46.47" ry="18"/>
<text text-anchor="middle" x="126.85" y="-49.33" font-family="Times,serif" font-size="14.00">opencv</text>
</a>
</g>
</g>
<!-- ffmpeg&#45;&gt;opencv -->
<g id="edge1" class="edge">
<title>ffmpeg&#45;&gt;opencv</title>
<path fill="none" stroke="black" d="M203.58,-109.81C190.19,-100.25 172.68,-87.74 157.76,-77.08"/>
<polygon fill="black" stroke="black" points="159.81,-74.25 149.64,-71.28 155.74,-79.94 159.81,-74.25"/>
</g>
<!-- panda3d -->
<g id="node4" class="node">
<title>panda3d</title>
<g id="a_node4"><a xlink:href="https://github.com/conda-forge/panda3d-feedstock" xlink:title="panda3d">
<ellipse fill="#fde725" stroke="black" cx="245.85" cy="-54" rx="54.36" ry="18"/>
<text text-anchor="middle" x="245.85" y="-49.33" font-family="Times,serif" font-size="14.00">panda3d</text>
</a>
</g>
</g>
<!-- ffmpeg&#45;&gt;panda3d -->
<g id="edge2" class="edge">
<title>ffmpeg&#45;&gt;panda3d</title>
<path fill="none" stroke="black" d="M230.04,-107.7C232.28,-100.24 234.95,-91.32 237.46,-82.97"/>
<polygon fill="black" stroke="black" points="240.76,-84.14 240.28,-73.55 234.05,-82.13 240.76,-84.14"/>
</g>
<!-- librsvg -->
<g id="node5" class="node">
<title>librsvg</title>
<g id="a_node5"><a xlink:href="https://github.com/conda-forge/librsvg-feedstock" xlink:title="librsvg">
<ellipse fill="#fde725" stroke="black" cx="231.85" cy="-198" rx="45.95" ry="18"/>
<text text-anchor="middle" x="231.85" y="-193.32" font-family="Times,serif" font-size="14.00">librsvg</text>
</a>
</g>
</g>
<!-- librsvg&#45;&gt;emacs -->
<g id="edge3" class="edge">
<title>librsvg&#45;&gt;emacs</title>
<path fill="none" stroke="black" d="M246.64,-180.71C269.2,-155.89 312.31,-108.42 338.63,-79.45"/>
<polygon fill="black" stroke="black" points="341.07,-81.97 345.2,-72.22 335.89,-77.27 341.07,-81.97"/>
</g>
<!-- librsvg&#45;&gt;ffmpeg -->
<g id="edge4" class="edge">
<title>librsvg&#45;&gt;ffmpeg</title>
<path fill="none" stroke="black" d="M230.12,-179.7C229.39,-172.41 228.52,-163.73 227.7,-155.54"/>
<polygon fill="black" stroke="black" points="231.19,-155.21 226.71,-145.61 224.22,-155.91 231.19,-155.21"/>
</g>
<!-- kitty -->
<g id="node6" class="node">
<title>kitty</title>
<g id="a_node6"><a xlink:href="https://github.com/conda-forge/kitty-feedstock" xlink:title="kitty">
<ellipse fill="#fde725" stroke="black" cx="126.85" cy="-126" rx="34.37" ry="18"/>
<text text-anchor="middle" x="126.85" y="-121.33" font-family="Times,serif" font-size="14.00">kitty</text>
</a>
</g>
</g>
<!-- librsvg&#45;&gt;kitty -->
<g id="edge5" class="edge">
<title>librsvg&#45;&gt;kitty</title>
<path fill="none" stroke="black" d="M209.32,-181.98C194.01,-171.77 173.58,-158.15 156.88,-147.02"/>
<polygon fill="black" stroke="black" points="159.07,-144.28 148.81,-141.64 155.19,-150.1 159.07,-144.28"/>
</g>
<!-- gtk3 -->
<g id="node7" class="node">
<title>gtk3</title>
<g id="a_node7"><a xlink:href="https://github.com/conda-forge/gtk3-feedstock" xlink:title="gtk3">
<ellipse fill="#fde725" stroke="black" cx="360.85" cy="-126" rx="33.85" ry="18"/>
<text text-anchor="middle" x="360.85" y="-121.33" font-family="Times,serif" font-size="14.00">gtk3</text>
</a>
</g>
</g>
<!-- librsvg&#45;&gt;gtk3 -->
<g id="edge6" class="edge">
<title>librsvg&#45;&gt;gtk3</title>
<path fill="none" stroke="black" d="M257.95,-182.83C278.07,-171.92 306.03,-156.75 327.72,-144.97"/>
<polygon fill="black" stroke="black" points="329.36,-148.07 336.48,-140.22 326.02,-141.92 329.36,-148.07"/>
</g>
<!-- gtk3&#45;&gt;emacs -->
<g id="edge7" class="edge">
<title>gtk3&#45;&gt;emacs</title>
<path fill="none" stroke="black" d="M360.85,-107.7C360.85,-100.41 360.85,-91.73 360.85,-83.54"/>
<polygon fill="black" stroke="black" points="364.35,-83.62 360.85,-73.62 357.35,-83.62 364.35,-83.62"/>
</g>
<!-- gtk3&#45;&gt;panda3d -->
<g id="edge8" class="edge">
<title>gtk3&#45;&gt;panda3d</title>
<path fill="none" stroke="black" d="M339.22,-111.83C322.78,-101.83 299.84,-87.86 280.8,-76.28"/>
<polygon fill="black" stroke="black" points="282.64,-73.3 272.28,-71.09 279,-79.28 282.64,-73.3"/>
</g>
<!-- pango -->
<g id="node8" class="node">
<title>pango</title>
<g id="a_node8"><a xlink:href="https://github.com/conda-forge/pango-feedstock/pull/87" xlink:title="pango ❎">
<ellipse fill="#31688e" stroke="black" cx="157.85" cy="-270" rx="57" ry="18"/>
<text text-anchor="middle" x="157.85" y="-265.32" font-family="Times,serif" font-size="14.00" fill="white">pango ❎</text>
</a>
</g>
</g>
<!-- pango&#45;&gt;librsvg -->
<g id="edge9" class="edge">
<title>pango&#45;&gt;librsvg</title>
<path fill="none" stroke="black" d="M175.38,-252.41C184.73,-243.57 196.4,-232.53 206.7,-222.79"/>
<polygon fill="black" stroke="black" points="208.99,-225.44 213.85,-216.03 204.18,-220.36 208.99,-225.44"/>
</g>
<!-- pango&#45;&gt;kitty -->
<g id="edge10" class="edge">
<title>pango&#45;&gt;kitty</title>
<path fill="none" stroke="black" d="M154.2,-251.59C150.42,-233.64 144.31,-204.84 138.85,-180 137.08,-171.95 135.12,-163.23 133.3,-155.22"/>
<polygon fill="black" stroke="black" points="136.76,-154.62 131.13,-145.65 129.93,-156.18 136.76,-154.62"/>
</g>
<!-- pango&#45;&gt;gtk3 -->
<g id="edge11" class="edge">
<title>pango&#45;&gt;gtk3</title>
<path fill="none" stroke="black" d="M200,-257.45C226.58,-248.83 260.7,-235.21 286.85,-216 310.29,-198.78 330.88,-172.57 344.35,-153.05"/>
<polygon fill="black" stroke="black" points="347.23,-155.05 349.88,-144.79 341.41,-151.16 347.23,-155.05"/>
</g>
<!-- gtk2 -->
<g id="node9" class="node">
<title>gtk2</title>
<g id="a_node9"><a xlink:href="https://github.com/conda-forge/gtk2-feedstock" xlink:title="gtk2">
<ellipse fill="#fde725" stroke="black" cx="95.85" cy="-198" rx="33.85" ry="18"/>
<text text-anchor="middle" x="95.85" y="-193.32" font-family="Times,serif" font-size="14.00">gtk2</text>
</a>
</g>
</g>
<!-- pango&#45;&gt;gtk2 -->
<g id="edge12" class="edge">
<title>pango&#45;&gt;gtk2</title>
<path fill="none" stroke="black" d="M143.15,-252.41C135.37,-243.62 125.66,-232.66 117.07,-222.96"/>
<polygon fill="black" stroke="black" points="119.84,-220.81 110.59,-215.64 114.6,-225.45 119.84,-220.81"/>
</g>
<!-- gtk4 -->
<g id="node10" class="node">
<title>gtk4</title>
<g id="a_node10"><a xlink:href="https://github.com/conda-forge/gtk4-feedstock" xlink:title="gtk4">
<ellipse fill="#fde725" stroke="black" cx="33.85" cy="-126" rx="33.85" ry="18"/>
<text text-anchor="middle" x="33.85" y="-121.33" font-family="Times,serif" font-size="14.00">gtk4</text>
</a>
</g>
</g>
<!-- pango&#45;&gt;gtk4 -->
<g id="edge13" class="edge">
<title>pango&#45;&gt;gtk4</title>
<path fill="none" stroke="black" d="M115.74,-257.45C93.83,-249.32 68.43,-236.21 52.85,-216 39.63,-198.86 35.12,-174.58 33.78,-155.71"/>
<polygon fill="black" stroke="black" points="37.28,-155.57 33.36,-145.73 30.28,-155.86 37.28,-155.57"/>
</g>
<!-- r&#45;cairo -->
<g id="node11" class="node">
<title>r&#45;cairo</title>
<g id="a_node11"><a xlink:href="https://github.com/conda-forge/r-cairo-feedstock/pull/45" xlink:title="r cairo ❎">
<ellipse fill="#31688e" stroke="black" cx="504.85" cy="-306" rx="59.1" ry="18"/>
<text text-anchor="middle" x="504.85" y="-301.32" font-family="Times,serif" font-size="14.00" fill="white">r cairo ❎</text>
</a>
</g>
</g>
<!-- texlive&#45;core -->
<g id="node12" class="node">
<title>texlive&#45;core</title>
<g id="a_node12"><a xlink:href="https://github.com/conda-forge/texlive-core-feedstock/pull/101" xlink:title="texlive core ❎">
<ellipse fill="#31688e" stroke="black" cx="504.85" cy="-234" rx="84.88" ry="18"/>
<text text-anchor="middle" x="504.85" y="-229.32" font-family="Times,serif" font-size="14.00" fill="white">texlive core ❎</text>
</a>
</g>
</g>
<!-- r&#45;cairo&#45;&gt;texlive&#45;core -->
<!-- r&#45;textshaping -->
<g id="node13" class="node">
<title>r&#45;textshaping</title>
<g id="a_node13"><a xlink:href="https://github.com/conda-forge/r-textshaping-feedstock/pull/29" xlink:title="r textshaping ❎">
<ellipse fill="#31688e" stroke="black" cx="504.85" cy="-162" rx="93.82" ry="18"/>
<text text-anchor="middle" x="504.85" y="-157.32" font-family="Times,serif" font-size="14.00" fill="white">r textshaping ❎</text>
</a>
</g>
</g>
<!-- texlive&#45;core&#45;&gt;r&#45;textshaping -->
<!-- mapserver -->
<g id="node14" class="node">
<title>mapserver</title>
<g id="a_node14"><a xlink:href="https://github.com/conda-forge/mapserver-feedstock/pull/71" xlink:title="mapserver ❎">
<ellipse fill="#31688e" stroke="black" cx="504.85" cy="-90" rx="80.14" ry="18"/>
<text text-anchor="middle" x="504.85" y="-85.33" font-family="Times,serif" font-size="14.00" fill="white">mapserver ❎</text>
</a>
</g>
</g>
<!-- r&#45;textshaping&#45;&gt;mapserver -->
<!-- silicon -->
<g id="node17" class="node">
<title>silicon</title>
<g id="a_node17"><a xlink:href="https://github.com/conda-forge/silicon-feedstock/pull/5" xlink:title="silicon ❎">
<ellipse fill="#31688e" stroke="black" cx="504.85" cy="-18" rx="58.57" ry="18"/>
<text text-anchor="middle" x="504.85" y="-13.32" font-family="Times,serif" font-size="14.00" fill="white">silicon ❎</text>
</a>
</g>
</g>
<!-- mapserver&#45;&gt;silicon -->
<!-- qt&#45;main -->
<g id="node15" class="node">
<title>qt&#45;main</title>
<g id="a_node15"><a xlink:href="https://github.com/conda-forge/qt-main-feedstock/pull/324" xlink:title="qt main ❎">
<ellipse fill="#31688e" stroke="black" cx="685.85" cy="-198" rx="64.89" ry="18"/>
<text text-anchor="middle" x="685.85" y="-193.32" font-family="Times,serif" font-size="14.00" fill="white">qt main ❎</text>
</a>
</g>
</g>
<!-- qt&#45;webengine -->
<g id="node16" class="node">
<title>qt&#45;webengine</title>
<g id="a_node16"><a xlink:href="https://github.com/conda-forge/qt-webengine-feedstock" xlink:title="qt webengine">
<ellipse fill="#fde725" stroke="black" cx="685.85" cy="-126" rx="79.09" ry="18"/>
<text text-anchor="middle" x="685.85" y="-121.33" font-family="Times,serif" font-size="14.00">qt webengine</text>
</a>
</g>
</g>
<!-- qt&#45;main&#45;&gt;qt&#45;webengine -->
<g id="edge17" class="edge">
<title>qt&#45;main&#45;&gt;qt&#45;webengine</title>
<path fill="none" stroke="black" d="M685.85,-179.7C685.85,-172.41 685.85,-163.73 685.85,-155.54"/>
<polygon fill="black" stroke="black" points="689.35,-155.62 685.85,-145.62 682.35,-155.62 689.35,-155.62"/>
</g>
</g>
</svg>
