<?xml version="1.0" encoding="UTF-8" standalone="no"?>
<!DOCTYPE svg PUBLIC "-//W3C//DTD SVG 1.1//EN"
 "http://www.w3.org/Graphics/SVG/1.1/DTD/svg11.dtd">
<!-- Generated by graphviz version 12.0.0 (20240803.0821)
 -->
<!-- Pages: 1 -->
<svg width="2397pt" height="1068pt"
 viewBox="0.00 0.00 2396.87 1068.00" xmlns="http://www.w3.org/2000/svg" xmlns:xlink="http://www.w3.org/1999/xlink">
<g id="graph0" class="graph" transform="scale(1 1) rotate(0) translate(4 1064)">
<polygon fill="white" stroke="none" points="-4,4 -4,-1064 2392.87,-1064 2392.87,4 -4,4"/>
<!-- fenics -->
<g id="node1" class="node">
<title>fenics</title>
<g id="a_node1"><a xlink:href="https://github.com/conda-forge/fenics-feedstock/pull/233" xlink:title="fenics ❎">
<ellipse fill="#31688e" stroke="black" cx="2302.41" cy="-1042" rx="55.94" ry="18"/>
<text text-anchor="middle" x="2302.41" y="-1037.33" font-family="Times,serif" font-size="14.00" fill="white">fenics ❎</text>
</a>
</g>
</g>
<!-- graph -->
<g id="node2" class="node">
<title>graph</title>
<g id="a_node2"><a xlink:href="https://github.com/conda-forge/graph-feedstock/pull/11" xlink:title="graph ✓">
<ellipse fill="#31688e" stroke="black" cx="2302.41" cy="-970" rx="48.58" ry="18"/>
<text text-anchor="middle" x="2302.41" y="-965.33" font-family="Times,serif" font-size="14.00" fill="white">graph ✓</text>
</a>
</g>
</g>
<!-- fenics&#45;&gt;graph -->
<!-- pytrilinos -->
<g id="node13" class="node">
<title>pytrilinos</title>
<g id="a_node13"><a xlink:href="https://github.com/conda-forge/pytrilinos-feedstock/pull/58" xlink:title="pytrilinos ❎">
<ellipse fill="#31688e" stroke="black" cx="2302.41" cy="-898" rx="74.36" ry="18"/>
<text text-anchor="middle" x="2302.41" y="-893.33" font-family="Times,serif" font-size="14.00" fill="white">pytrilinos ❎</text>
</a>
</g>
</g>
<!-- graph&#45;&gt;pytrilinos -->
<!-- gdal -->
<g id="node3" class="node">
<title>gdal</title>
<g id="a_node3"><a xlink:href="https://github.com/conda-forge/gdal-feedstock" xlink:title="gdal">
<ellipse fill="#fde725" stroke="black" cx="1662.21" cy="-826" rx="32.79" ry="18"/>
<text text-anchor="middle" x="1662.21" y="-821.33" font-family="Times,serif" font-size="14.00">gdal</text>
</a>
</g>
</g>
<!-- gmt -->
<g id="node4" class="node">
<title>gmt</title>
<g id="a_node4"><a xlink:href="https://github.com/conda-forge/gmt-feedstock" xlink:title="gmt">
<ellipse fill="#fde725" stroke="black" cx="1740.21" cy="-754" rx="31.22" ry="18"/>
<text text-anchor="middle" x="1740.21" y="-749.33" font-family="Times,serif" font-size="14.00">gmt</text>
</a>
</g>
</g>
<!-- gdal&#45;&gt;gmt -->
<g id="edge2" class="edge">
<title>gdal&#45;&gt;gmt</title>
<path fill="none" stroke="black" d="M1678.75,-810.15C1689.48,-800.53 1703.64,-787.82 1715.66,-777.03"/>
<polygon fill="black" stroke="black" points="1717.73,-779.88 1722.84,-770.59 1713.06,-774.67 1717.73,-779.88"/>
</g>
<!-- ncl -->
<g id="node5" class="node">
<title>ncl</title>
<g id="a_node5"><a xlink:href="https://github.com/conda-forge/ncl-feedstock" xlink:title="ncl">
<ellipse fill="#fde725" stroke="black" cx="1698.21" cy="-682" rx="27" ry="18"/>
<text text-anchor="middle" x="1698.21" y="-677.33" font-family="Times,serif" font-size="14.00">ncl</text>
</a>
</g>
</g>
<!-- gdal&#45;&gt;ncl -->
<g id="edge3" class="edge">
<title>gdal&#45;&gt;ncl</title>
<path fill="none" stroke="black" d="M1666.56,-807.87C1672.64,-783.88 1683.76,-739.99 1691.07,-711.16"/>
<polygon fill="black" stroke="black" points="1694.42,-712.21 1693.48,-701.66 1687.63,-710.49 1694.42,-712.21"/>
</g>
<!-- rsgislib -->
<g id="node6" class="node">
<title>rsgislib</title>
<g id="a_node6"><a xlink:href="https://github.com/conda-forge/rsgislib-feedstock" xlink:title="rsgislib">
<ellipse fill="#fde725" stroke="black" cx="1382.21" cy="-754" rx="48.58" ry="18"/>
<text text-anchor="middle" x="1382.21" y="-749.33" font-family="Times,serif" font-size="14.00">rsgislib</text>
</a>
</g>
</g>
<!-- gdal&#45;&gt;rsgislib -->
<g id="edge4" class="edge">
<title>gdal&#45;&gt;rsgislib</title>
<path fill="none" stroke="black" d="M1632.29,-818.36C1589.53,-808.77 1508.57,-790.17 1440.21,-772 1436.87,-771.11 1433.43,-770.17 1429.97,-769.21"/>
<polygon fill="black" stroke="black" points="1430.98,-765.86 1420.41,-766.49 1429.07,-772.59 1430.98,-765.86"/>
</g>
<!-- isce2 -->
<g id="node7" class="node">
<title>isce2</title>
<g id="a_node7"><a xlink:href="https://github.com/conda-forge/isce2-feedstock" xlink:title="isce2">
<ellipse fill="#fde725" stroke="black" cx="1486.21" cy="-754" rx="37" ry="18"/>
<text text-anchor="middle" x="1486.21" y="-749.33" font-family="Times,serif" font-size="14.00">isce2</text>
</a>
</g>
</g>
<!-- gdal&#45;&gt;isce2 -->
<g id="edge5" class="edge">
<title>gdal&#45;&gt;isce2</title>
<path fill="none" stroke="black" d="M1636.24,-814.67C1606.82,-802.97 1558.58,-783.78 1524.76,-770.33"/>
<polygon fill="black" stroke="black" points="1526.32,-767.19 1515.74,-766.74 1523.73,-773.69 1526.32,-767.19"/>
</g>
<!-- gazebo -->
<g id="node8" class="node">
<title>gazebo</title>
<g id="a_node8"><a xlink:href="https://github.com/conda-forge/gazebo-feedstock" xlink:title="gazebo">
<ellipse fill="#fde725" stroke="black" cx="1643.21" cy="-610" rx="46.47" ry="18"/>
<text text-anchor="middle" x="1643.21" y="-605.33" font-family="Times,serif" font-size="14.00">gazebo</text>
</a>
</g>
</g>
<!-- gdal&#45;&gt;gazebo -->
<g id="edge6" class="edge">
<title>gdal&#45;&gt;gazebo</title>
<path fill="none" stroke="black" d="M1660.69,-807.85C1657.43,-771.14 1649.75,-684.66 1645.75,-639.53"/>
<polygon fill="black" stroke="black" points="1649.25,-639.39 1644.88,-629.74 1642.27,-640.01 1649.25,-639.39"/>
</g>
<!-- lue -->
<g id="node9" class="node">
<title>lue</title>
<g id="a_node9"><a xlink:href="https://github.com/conda-forge/lue-feedstock" xlink:title="lue">
<ellipse fill="#fde725" stroke="black" cx="1963.21" cy="-538" rx="27" ry="18"/>
<text text-anchor="middle" x="1963.21" y="-533.33" font-family="Times,serif" font-size="14.00">lue</text>
</a>
</g>
</g>
<!-- gdal&#45;&gt;lue -->
<g id="edge7" class="edge">
<title>gdal&#45;&gt;lue</title>
<path fill="none" stroke="black" d="M1694.61,-822.85C1757.11,-818.02 1890.96,-804.1 1922.21,-772 1976.22,-716.52 1972.92,-616.39 1967.43,-567.47"/>
<polygon fill="black" stroke="black" points="1970.92,-567.18 1966.2,-557.69 1963.97,-568.05 1970.92,-567.18"/>
</g>
<!-- mdal -->
<g id="node10" class="node">
<title>mdal</title>
<g id="a_node10"><a xlink:href="https://github.com/conda-forge/mdal-feedstock" xlink:title="mdal">
<ellipse fill="#fde725" stroke="black" cx="1908.21" cy="-466" rx="35.95" ry="18"/>
<text text-anchor="middle" x="1908.21" y="-461.32" font-family="Times,serif" font-size="14.00">mdal</text>
</a>
</g>
</g>
<!-- gdal&#45;&gt;mdal -->
<g id="edge8" class="edge">
<title>gdal&#45;&gt;mdal</title>
<path fill="none" stroke="black" d="M1694.33,-821.72C1750.29,-815.35 1862.29,-799.44 1889.21,-772 1917.54,-743.13 1908.21,-723.45 1908.21,-683 1908.21,-683 1908.21,-683 1908.21,-609 1908.21,-569.74 1908.21,-524.38 1908.21,-495.69"/>
<polygon fill="black" stroke="black" points="1911.71,-496 1908.21,-486 1904.71,-496 1911.71,-496"/>
</g>
<!-- isce3 -->
<g id="node11" class="node">
<title>isce3</title>
<g id="a_node11"><a xlink:href="https://github.com/conda-forge/isce3-feedstock" xlink:title="isce3">
<ellipse fill="#fde725" stroke="black" cx="1578.21" cy="-754" rx="37" ry="18"/>
<text text-anchor="middle" x="1578.21" y="-749.33" font-family="Times,serif" font-size="14.00">isce3</text>
</a>
</g>
</g>
<!-- gdal&#45;&gt;isce3 -->
<g id="edge9" class="edge">
<title>gdal&#45;&gt;isce3</title>
<path fill="none" stroke="black" d="M1644.81,-810.5C1633.25,-800.86 1617.86,-788.04 1604.78,-777.14"/>
<polygon fill="black" stroke="black" points="1607.26,-774.65 1597.34,-770.94 1602.78,-780.03 1607.26,-774.65"/>
</g>
<!-- libpdal -->
<g id="node12" class="node">
<title>libpdal</title>
<g id="a_node12"><a xlink:href="https://github.com/conda-forge/libpdal-feedstock" xlink:title="libpdal">
<ellipse fill="#fde725" stroke="black" cx="1835.21" cy="-754" rx="45.42" ry="18"/>
<text text-anchor="middle" x="1835.21" y="-749.33" font-family="Times,serif" font-size="14.00">libpdal</text>
</a>
</g>
</g>
<!-- gdal&#45;&gt;libpdal -->
<g id="edge10" class="edge">
<title>gdal&#45;&gt;libpdal</title>
<path fill="none" stroke="black" d="M1688.11,-814.52C1715.97,-803.25 1760.69,-785.15 1793.52,-771.87"/>
<polygon fill="black" stroke="black" points="1794.79,-775.13 1802.75,-768.13 1792.17,-768.64 1794.79,-775.13"/>
</g>
<!-- siesta -->
<g id="node37" class="node">
<title>siesta</title>
<g id="a_node37"><a xlink:href="https://github.com/conda-forge/siesta-feedstock/pull/67" xlink:title="siesta ❎">
<ellipse fill="#31688e" stroke="black" cx="2302.41" cy="-826" rx="55.94" ry="18"/>
<text text-anchor="middle" x="2302.41" y="-821.33" font-family="Times,serif" font-size="14.00" fill="white">siesta ❎</text>
</a>
</g>
</g>
<!-- pytrilinos&#45;&gt;siesta -->
<!-- h5py -->
<g id="node14" class="node">
<title>h5py</title>
<g id="a_node14"><a xlink:href="https://github.com/conda-forge/h5py-feedstock/pull/151" xlink:title="h5py ❎">
<ellipse fill="#31688e" stroke="black" cx="807.21" cy="-826" rx="51.21" ry="18"/>
<text text-anchor="middle" x="807.21" y="-821.33" font-family="Times,serif" font-size="14.00" fill="white">h5py ❎</text>
</a>
</g>
</g>
<!-- h5py&#45;&gt;rsgislib -->
<g id="edge12" class="edge">
<title>h5py&#45;&gt;rsgislib</title>
<path fill="none" stroke="black" d="M857.94,-822.88C951.08,-818.31 1155.32,-805.12 1324.21,-772 1327.98,-771.26 1331.86,-770.39 1335.74,-769.43"/>
<polygon fill="black" stroke="black" points="1336.34,-772.89 1345.11,-766.94 1334.55,-766.12 1336.34,-772.89"/>
</g>
<!-- h5py&#45;&gt;isce2 -->
<g id="edge13" class="edge">
<title>h5py&#45;&gt;isce2</title>
<path fill="none" stroke="black" d="M857.53,-822.55C987.02,-815.95 1329.33,-796.65 1440.21,-772 1442.81,-771.42 1445.45,-770.73 1448.1,-769.97"/>
<polygon fill="black" stroke="black" points="1448.97,-773.37 1457.41,-766.95 1446.82,-766.71 1448.97,-773.37"/>
</g>
<!-- h5py&#45;&gt;isce3 -->
<g id="edge14" class="edge">
<title>h5py&#45;&gt;isce3</title>
<path fill="none" stroke="black" d="M858.26,-823.13C1001.18,-817.61 1403.25,-799.96 1532.21,-772 1534.81,-771.44 1537.46,-770.76 1540.11,-770"/>
<polygon fill="black" stroke="black" points="1540.97,-773.4 1549.42,-767 1538.83,-766.74 1540.97,-773.4"/>
</g>
<!-- openmc -->
<g id="node15" class="node">
<title>openmc</title>
<g id="a_node15"><a xlink:href="https://github.com/conda-forge/openmc-feedstock" xlink:title="openmc">
<ellipse fill="#fde725" stroke="black" cx="1265.21" cy="-754" rx="50.16" ry="18"/>
<text text-anchor="middle" x="1265.21" y="-749.33" font-family="Times,serif" font-size="14.00">openmc</text>
</a>
</g>
</g>
<!-- h5py&#45;&gt;openmc -->
<g id="edge15" class="edge">
<title>h5py&#45;&gt;openmc</title>
<path fill="none" stroke="black" d="M856.37,-820.4C931.26,-812.93 1078.19,-796.51 1201.21,-772 1206.04,-771.04 1211.03,-769.92 1216.02,-768.73"/>
<polygon fill="black" stroke="black" points="1216.49,-772.22 1225.35,-766.41 1214.8,-765.43 1216.49,-772.22"/>
</g>
<!-- h5utils -->
<g id="node16" class="node">
<title>h5utils</title>
<g id="a_node16"><a xlink:href="https://github.com/conda-forge/h5utils-feedstock" xlink:title="h5utils">
<ellipse fill="#fde725" stroke="black" cx="881.21" cy="-754" rx="45.95" ry="18"/>
<text text-anchor="middle" x="881.21" y="-749.33" font-family="Times,serif" font-size="14.00">h5utils</text>
</a>
</g>
</g>
<!-- h5py&#45;&gt;h5utils -->
<g id="edge16" class="edge">
<title>h5py&#45;&gt;h5utils</title>
<path fill="none" stroke="black" d="M824.38,-808.76C833.72,-799.93 845.45,-788.83 855.83,-779.01"/>
<polygon fill="black" stroke="black" points="858.18,-781.6 863.04,-772.19 853.37,-776.52 858.18,-781.6"/>
</g>
<!-- pymeep -->
<g id="node17" class="node">
<title>pymeep</title>
<g id="a_node17"><a xlink:href="https://github.com/conda-forge/pymeep-feedstock" xlink:title="pymeep">
<ellipse fill="#fde725" stroke="black" cx="900.21" cy="-682" rx="50.68" ry="18"/>
<text text-anchor="middle" x="900.21" y="-677.33" font-family="Times,serif" font-size="14.00">pymeep</text>
</a>
</g>
</g>
<!-- h5py&#45;&gt;pymeep -->
<g id="edge17" class="edge">
<title>h5py&#45;&gt;pymeep</title>
<path fill="none" stroke="black" d="M854.55,-818.8C883.39,-812.31 918.08,-799.05 936.21,-772 949.47,-752.22 936.72,-726.8 922.86,-708.19"/>
<polygon fill="black" stroke="black" points="925.77,-706.23 916.8,-700.59 920.3,-710.59 925.77,-706.23"/>
</g>
<!-- blosc&#45;hdf5&#45;plugin -->
<g id="node18" class="node">
<title>blosc&#45;hdf5&#45;plugin</title>
<g id="a_node18"><a xlink:href="https://github.com/conda-forge/blosc-hdf5-plugin-feedstock" xlink:title="blosc hdf5 plugin">
<ellipse fill="#fde725" stroke="black" cx="329.21" cy="-682" rx="97.51" ry="18"/>
<text text-anchor="middle" x="329.21" y="-677.33" font-family="Times,serif" font-size="14.00">blosc hdf5 plugin</text>
</a>
</g>
</g>
<!-- h5py&#45;&gt;blosc&#45;hdf5&#45;plugin -->
<g id="edge18" class="edge">
<title>h5py&#45;&gt;blosc&#45;hdf5&#45;plugin</title>
<path fill="none" stroke="black" d="M755.51,-825.86C682.48,-825.25 546.28,-817.37 441.21,-772 406.74,-757.12 373.93,-728.78 352.83,-708.06"/>
<polygon fill="black" stroke="black" points="355.41,-705.69 345.87,-701.06 350.44,-710.62 355.41,-705.69"/>
</g>
<!-- nest&#45;simulator -->
<g id="node19" class="node">
<title>nest&#45;simulator</title>
<g id="a_node19"><a xlink:href="https://github.com/conda-forge/nest-simulator-feedstock" xlink:title="nest simulator">
<ellipse fill="#fde725" stroke="black" cx="240.21" cy="-610" rx="83.83" ry="18"/>
<text text-anchor="middle" x="240.21" y="-605.33" font-family="Times,serif" font-size="14.00">nest simulator</text>
</a>
</g>
</g>
<!-- h5py&#45;&gt;nest&#45;simulator -->
<g id="edge19" class="edge">
<title>h5py&#45;&gt;nest&#45;simulator</title>
<path fill="none" stroke="black" d="M756.2,-823.54C675.43,-820.13 513.77,-808.9 382.21,-772 307.13,-750.94 264.55,-765.48 222.21,-700 210.34,-681.63 216.62,-657.03 224.87,-638.34"/>
<polygon fill="black" stroke="black" points="227.96,-640 229.17,-629.48 221.66,-636.95 227.96,-640"/>
</g>
<!-- bitshuffle -->
<g id="node20" class="node">
<title>bitshuffle</title>
<g id="a_node20"><a xlink:href="https://github.com/conda-forge/bitshuffle-feedstock" xlink:title="bitshuffle">
<ellipse fill="#fde725" stroke="black" cx="128.21" cy="-538" rx="58.57" ry="18"/>
<text text-anchor="middle" x="128.21" y="-533.33" font-family="Times,serif" font-size="14.00">bitshuffle</text>
</a>
</g>
</g>
<!-- h5py&#45;&gt;bitshuffle -->
<g id="edge20" class="edge">
<title>h5py&#45;&gt;bitshuffle</title>
<path fill="none" stroke="black" d="M755.78,-825.38C635.07,-825.44 337.36,-820.52 252.21,-772 183.4,-732.78 179.52,-700.32 147.21,-628 138.64,-608.8 133.84,-585.52 131.22,-567.58"/>
<polygon fill="black" stroke="black" points="134.72,-567.36 129.95,-557.89 127.78,-568.26 134.72,-567.36"/>
</g>
<!-- bonsu -->
<g id="node21" class="node">
<title>bonsu</title>
<g id="a_node21"><a xlink:href="https://github.com/conda-forge/bonsu-feedstock" xlink:title="bonsu">
<ellipse fill="#fde725" stroke="black" cx="41.21" cy="-466" rx="41.21" ry="18"/>
<text text-anchor="middle" x="41.21" y="-461.32" font-family="Times,serif" font-size="14.00">bonsu</text>
</a>
</g>
</g>
<!-- h5py&#45;&gt;bonsu -->
<g id="edge21" class="edge">
<title>h5py&#45;&gt;bonsu</title>
<path fill="none" stroke="black" d="M756.13,-823.25C629.77,-818.48 305.33,-803.47 202.21,-772 124.01,-748.14 41.21,-764.76 41.21,-683 41.21,-683 41.21,-683 41.21,-609 41.21,-569.74 41.21,-524.38 41.21,-495.69"/>
<polygon fill="black" stroke="black" points="44.71,-496 41.21,-486 37.71,-496 44.71,-496"/>
</g>
<!-- proteus -->
<g id="node22" class="node">
<title>proteus</title>
<g id="a_node22"><a xlink:href="https://github.com/conda-forge/proteus-feedstock" xlink:title="proteus">
<ellipse fill="#fde725" stroke="black" cx="1109.21" cy="-754" rx="49.63" ry="18"/>
<text text-anchor="middle" x="1109.21" y="-749.33" font-family="Times,serif" font-size="14.00">proteus</text>
</a>
</g>
</g>
<!-- h5py&#45;&gt;proteus -->
<g id="edge22" class="edge">
<title>h5py&#45;&gt;proteus</title>
<path fill="none" stroke="black" d="M850.33,-815.95C898.1,-805.79 977.36,-788.56 1045.21,-772 1049.8,-770.88 1054.56,-769.68 1059.32,-768.46"/>
<polygon fill="black" stroke="black" points="1060.09,-771.88 1068.89,-765.97 1058.33,-765.1 1060.09,-771.88"/>
</g>
<!-- hdf5plugin -->
<g id="node23" class="node">
<title>hdf5plugin</title>
<g id="a_node23"><a xlink:href="https://github.com/conda-forge/hdf5plugin-feedstock" xlink:title="hdf5plugin">
<ellipse fill="#fde725" stroke="black" cx="1090.21" cy="-682" rx="65.41" ry="18"/>
<text text-anchor="middle" x="1090.21" y="-677.33" font-family="Times,serif" font-size="14.00">hdf5plugin</text>
</a>
</g>
</g>
<!-- h5py&#45;&gt;hdf5plugin -->
<g id="edge23" class="edge">
<title>h5py&#45;&gt;hdf5plugin</title>
<path fill="none" stroke="black" d="M855.81,-819.82C898.24,-813.57 960.22,-800.15 1007.21,-772 1033.69,-756.14 1056.98,-729.4 1072.1,-709.36"/>
<polygon fill="black" stroke="black" points="1074.87,-711.5 1077.94,-701.36 1069.22,-707.36 1074.87,-711.5"/>
</g>
<!-- prismatic_split -->
<g id="node24" class="node">
<title>prismatic_split</title>
<g id="a_node24"><a xlink:href="https://github.com/conda-forge/prismatic_split-feedstock" xlink:title="prismatic_split">
<ellipse fill="#fde725" stroke="black" cx="993.21" cy="-610" rx="85.41" ry="18"/>
<text text-anchor="middle" x="993.21" y="-605.33" font-family="Times,serif" font-size="14.00">prismatic_split</text>
</a>
</g>
</g>
<!-- h5py&#45;&gt;prismatic_split -->
<g id="edge24" class="edge">
<title>h5py&#45;&gt;prismatic_split</title>
<path fill="none" stroke="black" d="M855.11,-819.36C887.24,-813.09 928.13,-799.85 953.21,-772 986.31,-735.24 993,-675.34 993.82,-639.89"/>
<polygon fill="black" stroke="black" points="997.32,-639.99 993.89,-629.96 990.32,-639.94 997.32,-639.99"/>
</g>
<!-- digital_rf -->
<g id="node25" class="node">
<title>digital_rf</title>
<g id="a_node25"><a xlink:href="https://github.com/conda-forge/digital_rf-feedstock" xlink:title="digital_rf">
<ellipse fill="#fde725" stroke="black" cx="807.21" cy="-538" rx="56.47" ry="18"/>
<text text-anchor="middle" x="807.21" y="-533.33" font-family="Times,serif" font-size="14.00">digital_rf</text>
</a>
</g>
</g>
<!-- h5py&#45;&gt;digital_rf -->
<g id="edge25" class="edge">
<title>h5py&#45;&gt;digital_rf</title>
<path fill="none" stroke="black" d="M807.21,-807.54C807.21,-759.76 807.21,-626.51 807.21,-567.61"/>
<polygon fill="black" stroke="black" points="810.71,-567.75 807.21,-557.75 803.71,-567.75 810.71,-567.75"/>
</g>
<!-- damask -->
<g id="node26" class="node">
<title>damask</title>
<g id="a_node26"><a xlink:href="https://github.com/conda-forge/damask-feedstock" xlink:title="damask">
<ellipse fill="#fde725" stroke="black" cx="679.21" cy="-466" rx="49.63" ry="18"/>
<text text-anchor="middle" x="679.21" y="-461.32" font-family="Times,serif" font-size="14.00">damask</text>
</a>
</g>
</g>
<!-- h5py&#45;&gt;damask -->
<g id="edge26" class="edge">
<title>h5py&#45;&gt;damask</title>
<path fill="none" stroke="black" d="M761,-817.87C712.92,-809.39 642.41,-793.62 626.21,-772 616.62,-759.19 620.3,-750.87 626.21,-736 634.34,-715.55 651.26,-720.1 660.21,-700 690.62,-631.74 687.12,-541.14 682.75,-495.65"/>
<polygon fill="black" stroke="black" points="686.25,-495.41 681.71,-485.83 679.29,-496.14 686.25,-495.41"/>
</g>
<!-- pp&#45;sketchlib -->
<g id="node27" class="node">
<title>pp&#45;sketchlib</title>
<g id="a_node27"><a xlink:href="https://github.com/conda-forge/pp-sketchlib-feedstock" xlink:title="pp sketchlib">
<ellipse fill="#fde725" stroke="black" cx="707.21" cy="-754" rx="72.25" ry="18"/>
<text text-anchor="middle" x="707.21" y="-749.33" font-family="Times,serif" font-size="14.00">pp sketchlib</text>
</a>
</g>
</g>
<!-- h5py&#45;&gt;pp&#45;sketchlib -->
<g id="edge27" class="edge">
<title>h5py&#45;&gt;pp&#45;sketchlib</title>
<path fill="none" stroke="black" d="M785.02,-809.46C771.8,-800.21 754.79,-788.3 740.04,-777.98"/>
<polygon fill="black" stroke="black" points="742.18,-775.2 731.98,-772.34 738.16,-780.94 742.18,-775.2"/>
</g>
<!-- readdy -->
<g id="node28" class="node">
<title>readdy</title>
<g id="a_node28"><a xlink:href="https://github.com/conda-forge/readdy-feedstock" xlink:title="readdy">
<ellipse fill="#fde725" stroke="black" cx="605.21" cy="-682" rx="45.95" ry="18"/>
<text text-anchor="middle" x="605.21" y="-677.33" font-family="Times,serif" font-size="14.00">readdy</text>
</a>
</g>
</g>
<!-- h5py&#45;&gt;readdy -->
<g id="edge28" class="edge">
<title>h5py&#45;&gt;readdy</title>
<path fill="none" stroke="black" d="M758.77,-819.87C702.09,-812.76 613.38,-797.77 593.21,-772 579.72,-754.76 584.64,-729.65 591.84,-710.49"/>
<polygon fill="black" stroke="black" points="595.01,-711.98 595.63,-701.4 588.55,-709.28 595.01,-711.98"/>
</g>
<!-- votca -->
<g id="node29" class="node">
<title>votca</title>
<g id="a_node29"><a xlink:href="https://github.com/conda-forge/votca-feedstock" xlink:title="votca">
<ellipse fill="#fde725" stroke="black" cx="559.21" cy="-610" rx="38.06" ry="18"/>
<text text-anchor="middle" x="559.21" y="-605.33" font-family="Times,serif" font-size="14.00">votca</text>
</a>
</g>
</g>
<!-- h5py&#45;&gt;votca -->
<g id="edge29" class="edge">
<title>h5py&#45;&gt;votca</title>
<path fill="none" stroke="black" d="M759.52,-818.92C701.48,-810.67 607.9,-794.35 581.21,-772 543.26,-740.21 547,-676.34 553.11,-639.31"/>
<polygon fill="black" stroke="black" points="556.5,-640.27 554.86,-629.8 549.61,-639 556.5,-640.27"/>
</g>
<!-- dxtbx -->
<g id="node30" class="node">
<title>dxtbx</title>
<g id="a_node30"><a xlink:href="https://github.com/conda-forge/dxtbx-feedstock" xlink:title="dxtbx">
<ellipse fill="#fde725" stroke="black" cx="1162.21" cy="-610" rx="39.63" ry="18"/>
<text text-anchor="middle" x="1162.21" y="-605.33" font-family="Times,serif" font-size="14.00">dxtbx</text>
</a>
</g>
</g>
<!-- h5py&#45;&gt;dxtbx -->
<g id="edge30" class="edge">
<title>h5py&#45;&gt;dxtbx</title>
<path fill="none" stroke="black" d="M858.62,-825.33C948.6,-824.69 1128.82,-817.6 1168.21,-772 1200.06,-735.14 1185.8,-673.92 1173.43,-638.54"/>
<polygon fill="black" stroke="black" points="1176.81,-637.61 1170.06,-629.45 1170.25,-640.04 1176.81,-637.61"/>
</g>
<!-- paraprobe -->
<g id="node31" class="node">
<title>paraprobe</title>
<g id="a_node31"><a xlink:href="https://github.com/conda-forge/paraprobe-feedstock" xlink:title="paraprobe">
<ellipse fill="#fde725" stroke="black" cx="546.21" cy="-538" rx="62.78" ry="18"/>
<text text-anchor="middle" x="546.21" y="-533.33" font-family="Times,serif" font-size="14.00">paraprobe</text>
</a>
</g>
</g>
<!-- h5py&#45;&gt;paraprobe -->
<g id="edge31" class="edge">
<title>h5py&#45;&gt;paraprobe</title>
<path fill="none" stroke="black" d="M757.85,-820.65C692.84,-813.94 583.32,-798.94 554.21,-772 493.92,-716.2 489.1,-670.83 512.21,-592 514.97,-582.6 519.96,-573.29 525.28,-565.16"/>
<polygon fill="black" stroke="black" points="528.04,-567.32 530.94,-557.13 522.32,-563.29 528.04,-567.32"/>
</g>
<!-- pixsfm -->
<g id="node32" class="node">
<title>pixsfm</title>
<g id="a_node32"><a xlink:href="https://github.com/conda-forge/pixsfm-feedstock" xlink:title="pixsfm">
<ellipse fill="#fde725" stroke="black" cx="455.21" cy="-466" rx="44.9" ry="18"/>
<text text-anchor="middle" x="455.21" y="-461.32" font-family="Times,serif" font-size="14.00">pixsfm</text>
</a>
</g>
</g>
<!-- h5py&#45;&gt;pixsfm -->
<g id="edge32" class="edge">
<title>h5py&#45;&gt;pixsfm</title>
<path fill="none" stroke="black" d="M758.14,-820.42C686.66,-813.01 558.19,-796.69 519.21,-772 478.06,-745.93 455.21,-731.72 455.21,-683 455.21,-683 455.21,-683 455.21,-609 455.21,-569.74 455.21,-524.38 455.21,-495.69"/>
<polygon fill="black" stroke="black" points="458.71,-496 455.21,-486 451.71,-496 458.71,-496"/>
</g>
<!-- pyne -->
<g id="node33" class="node">
<title>pyne</title>
<g id="a_node33"><a xlink:href="https://github.com/conda-forge/pyne-feedstock" xlink:title="pyne">
<ellipse fill="#fde725" stroke="black" cx="1265.21" cy="-682" rx="35.42" ry="18"/>
<text text-anchor="middle" x="1265.21" y="-677.33" font-family="Times,serif" font-size="14.00">pyne</text>
</a>
</g>
</g>
<!-- openmc&#45;&gt;pyne -->
<g id="edge33" class="edge">
<title>openmc&#45;&gt;pyne</title>
<path fill="none" stroke="black" d="M1265.21,-735.7C1265.21,-728.41 1265.21,-719.73 1265.21,-711.54"/>
<polygon fill="black" stroke="black" points="1268.71,-711.62 1265.21,-701.62 1261.71,-711.62 1268.71,-711.62"/>
</g>
<!-- h5utils&#45;&gt;pymeep -->
<g id="edge34" class="edge">
<title>h5utils&#45;&gt;pymeep</title>
<path fill="none" stroke="black" d="M885.91,-735.7C887.93,-728.24 890.35,-719.32 892.62,-710.97"/>
<polygon fill="black" stroke="black" points="895.93,-712.13 895.17,-701.57 889.18,-710.3 895.93,-712.13"/>
</g>
<!-- hdf5plugin&#45;&gt;dxtbx -->
<g id="edge35" class="edge">
<title>hdf5plugin&#45;&gt;dxtbx</title>
<path fill="none" stroke="black" d="M1107.28,-664.41C1116.5,-655.44 1128.05,-644.21 1138.17,-634.37"/>
<polygon fill="black" stroke="black" points="1140.44,-637.05 1145.17,-627.57 1135.56,-632.03 1140.44,-637.05"/>
</g>
<!-- kealib -->
<g id="node34" class="node">
<title>kealib</title>
<g id="a_node34"><a xlink:href="https://github.com/conda-forge/kealib-feedstock/pull/65" xlink:title="kealib ❎">
<ellipse fill="#31688e" stroke="black" cx="1531.21" cy="-898" rx="56.47" ry="18"/>
<text text-anchor="middle" x="1531.21" y="-893.33" font-family="Times,serif" font-size="14.00" fill="white">kealib ❎</text>
</a>
</g>
</g>
<!-- kealib&#45;&gt;gdal -->
<g id="edge36" class="edge">
<title>kealib&#45;&gt;gdal</title>
<path fill="none" stroke="black" d="M1559.32,-881.98C1579.86,-871 1607.79,-856.08 1629.36,-844.55"/>
<polygon fill="black" stroke="black" points="1630.88,-847.71 1638.05,-839.91 1627.58,-841.54 1630.88,-847.71"/>
</g>
<!-- kealib&#45;&gt;rsgislib -->
<g id="edge37" class="edge">
<title>kealib&#45;&gt;rsgislib</title>
<path fill="none" stroke="black" d="M1513.83,-880.43C1487.45,-855.29 1437.18,-807.38 1406.98,-778.6"/>
<polygon fill="black" stroke="black" points="1409.78,-776.44 1400.12,-772.07 1404.95,-781.5 1409.78,-776.44"/>
</g>
<!-- libitk -->
<g id="node35" class="node">
<title>libitk</title>
<g id="a_node35"><a xlink:href="https://github.com/conda-forge/libitk-feedstock/pull/99" xlink:title="libitk ❎">
<ellipse fill="#31688e" stroke="black" cx="995.11" cy="-90" rx="52.26" ry="18"/>
<text text-anchor="middle" x="995.11" y="-85.33" font-family="Times,serif" font-size="14.00" fill="white">libitk ❎</text>
</a>
</g>
</g>
<!-- stir -->
<g id="node36" class="node">
<title>stir</title>
<g id="a_node36"><a xlink:href="https://github.com/conda-forge/stir-feedstock" xlink:title="stir">
<ellipse fill="#fde725" stroke="black" cx="995.11" cy="-18" rx="28.59" ry="18"/>
<text text-anchor="middle" x="995.11" y="-13.32" font-family="Times,serif" font-size="14.00">stir</text>
</a>
</g>
</g>
<!-- libitk&#45;&gt;stir -->
<g id="edge38" class="edge">
<title>libitk&#45;&gt;stir</title>
<path fill="none" stroke="black" d="M995.11,-71.7C995.11,-64.41 995.11,-55.73 995.11,-47.54"/>
<polygon fill="black" stroke="black" points="998.61,-47.62 995.11,-37.62 991.61,-47.62 998.61,-47.62"/>
</g>
<!-- trilinos -->
<g id="node38" class="node">
<title>trilinos</title>
<g id="a_node38"><a xlink:href="https://github.com/conda-forge/trilinos-feedstock/pull/48" xlink:title="trilinos ❎">
<ellipse fill="#31688e" stroke="black" cx="2302.41" cy="-754" rx="62.26" ry="18"/>
<text text-anchor="middle" x="2302.41" y="-749.33" font-family="Times,serif" font-size="14.00" fill="white">trilinos ❎</text>
</a>
</g>
</g>
<!-- siesta&#45;&gt;trilinos -->
<!-- lammps -->
<g id="node41" class="node">
<title>lammps</title>
<g id="a_node41"><a xlink:href="https://github.com/conda-forge/lammps-feedstock/pull/211" xlink:title="lammps ❎">
<ellipse fill="#31688e" stroke="black" cx="2302.41" cy="-682" rx="65.94" ry="18"/>
<text text-anchor="middle" x="2302.41" y="-677.33" font-family="Times,serif" font-size="14.00" fill="white">lammps ❎</text>
</a>
</g>
</g>
<!-- trilinos&#45;&gt;lammps -->
<!-- libmed -->
<g id="node39" class="node">
<title>libmed</title>
<g id="a_node39"><a xlink:href="https://github.com/conda-forge/libmed-feedstock/pull/69" xlink:title="libmed ❎">
<ellipse fill="#31688e" stroke="black" cx="2302.41" cy="-242" rx="60.68" ry="18"/>
<text text-anchor="middle" x="2302.41" y="-237.32" font-family="Times,serif" font-size="14.00" fill="white">libmed ❎</text>
</a>
</g>
</g>
<!-- medcoupling -->
<g id="node40" class="node">
<title>medcoupling</title>
<g id="a_node40"><a xlink:href="https://github.com/conda-forge/medcoupling-feedstock" xlink:title="medcoupling">
<ellipse fill="#fde725" stroke="black" cx="2302.41" cy="-170" rx="75.41" ry="18"/>
<text text-anchor="middle" x="2302.41" y="-165.32" font-family="Times,serif" font-size="14.00">medcoupling</text>
</a>
</g>
</g>
<!-- libmed&#45;&gt;medcoupling -->
<g id="edge41" class="edge">
<title>libmed&#45;&gt;medcoupling</title>
<path fill="none" stroke="black" d="M2302.41,-223.7C2302.41,-216.41 2302.41,-207.73 2302.41,-199.54"/>
<polygon fill="black" stroke="black" points="2305.91,-199.62 2302.41,-189.62 2298.91,-199.62 2305.91,-199.62"/>
</g>
<!-- freecad -->
<g id="node42" class="node">
<title>freecad</title>
<g id="a_node42"><a xlink:href="https://github.com/conda-forge/freecad-feedstock/pull/128" xlink:title="freecad ❎">
<ellipse fill="#31688e" stroke="black" cx="2302.41" cy="-610" rx="63.84" ry="18"/>
<text text-anchor="middle" x="2302.41" y="-605.33" font-family="Times,serif" font-size="14.00" fill="white">freecad ❎</text>
</a>
</g>
</g>
<!-- lammps&#45;&gt;freecad -->
<!-- scilab -->
<g id="node43" class="node">
<title>scilab</title>
<g id="a_node43"><a xlink:href="https://github.com/conda-forge/scilab-feedstock/pull/54" xlink:title="scilab ❎">
<ellipse fill="#31688e" stroke="black" cx="2302.41" cy="-538" rx="55.42" ry="18"/>
<text text-anchor="middle" x="2302.41" y="-533.33" font-family="Times,serif" font-size="14.00" fill="white">scilab ❎</text>
</a>
</g>
</g>
<!-- freecad&#45;&gt;scilab -->
<!-- esys&#45;escript -->
<g id="node44" class="node">
<title>esys&#45;escript</title>
<g id="a_node44"><a xlink:href="https://github.com/conda-forge/esys-escript-feedstock/pull/76" xlink:title="esys escript ❎">
<ellipse fill="#31688e" stroke="black" cx="2302.41" cy="-466" rx="86.46" ry="18"/>
<text text-anchor="middle" x="2302.41" y="-461.32" font-family="Times,serif" font-size="14.00" fill="white">esys escript ❎</text>
</a>
</g>
</g>
<!-- scilab&#45;&gt;esys&#45;escript -->
<!-- dakota -->
<g id="node45" class="node">
<title>dakota</title>
<g id="a_node45"><a xlink:href="https://github.com/conda-forge/dakota-feedstock/pull/52" xlink:title="dakota ❎">
<ellipse fill="#31688e" stroke="black" cx="2302.41" cy="-394" rx="60.15" ry="18"/>
<text text-anchor="middle" x="2302.41" y="-389.32" font-family="Times,serif" font-size="14.00" fill="white">dakota ❎</text>
</a>
</g>
</g>
<!-- esys&#45;escript&#45;&gt;dakota -->
<!-- ecell4_base -->
<g id="node46" class="node">
<title>ecell4_base</title>
<g id="a_node46"><a xlink:href="https://github.com/conda-forge/ecell4_base-feedstock/pull/32" xlink:title="ecell4_base ❎">
<ellipse fill="#31688e" stroke="black" cx="2302.41" cy="-322" rx="83.83" ry="18"/>
<text text-anchor="middle" x="2302.41" y="-317.32" font-family="Times,serif" font-size="14.00" fill="white">ecell4_base ❎</text>
</a>
</g>
</g>
<!-- dakota&#45;&gt;ecell4_base -->
<!-- triqs -->
<g id="node47" class="node">
<title>triqs</title>
<g id="a_node47"><a xlink:href="https://github.com/conda-forge/triqs-feedstock/pull/72" xlink:title="triqs ✓">
<ellipse fill="#31688e" stroke="black" cx="995.63" cy="-278" rx="42.79" ry="18"/>
<text text-anchor="middle" x="995.63" y="-273.32" font-family="Times,serif" font-size="14.00" fill="white">triqs ✓</text>
</a>
</g>
</g>
<!-- triqs_cthyb -->
<g id="node48" class="node">
<title>triqs_cthyb</title>
<g id="a_node48"><a xlink:href="https://github.com/conda-forge/triqs_cthyb-feedstock" xlink:title="triqs_cthyb">
<ellipse fill="#fde725" stroke="black" cx="947.63" cy="-206" rx="67.52" ry="18"/>
<text text-anchor="middle" x="947.63" y="-201.33" font-family="Times,serif" font-size="14.00">triqs_cthyb</text>
</a>
</g>
</g>
<!-- triqs&#45;&gt;triqs_cthyb -->
<g id="edge48" class="edge">
<title>triqs&#45;&gt;triqs_cthyb</title>
<path fill="none" stroke="black" d="M984.26,-260.41C978.72,-252.34 971.93,-242.43 965.7,-233.35"/>
<polygon fill="black" stroke="black" points="968.66,-231.47 960.12,-225.2 962.88,-235.43 968.66,-231.47"/>
</g>
<!-- triqs_ctseg -->
<g id="node49" class="node">
<title>triqs_ctseg</title>
<g id="a_node49"><a xlink:href="https://github.com/conda-forge/triqs_ctseg-feedstock" xlink:title="triqs_ctseg">
<ellipse fill="#fde725" stroke="black" cx="1043.63" cy="-134" rx="66.47" ry="18"/>
<text text-anchor="middle" x="1043.63" y="-129.32" font-family="Times,serif" font-size="14.00">triqs_ctseg</text>
</a>
</g>
</g>
<!-- triqs&#45;&gt;triqs_ctseg -->
<g id="edge49" class="edge">
<title>triqs&#45;&gt;triqs_ctseg</title>
<path fill="none" stroke="black" d="M1006.34,-260.41C1012.48,-250.25 1019.89,-236.78 1024.63,-224 1031.87,-204.5 1036.69,-181.53 1039.66,-163.8"/>
<polygon fill="black" stroke="black" points="1043.11,-164.4 1041.2,-153.98 1036.19,-163.32 1043.11,-164.4"/>
</g>
<!-- gwollum -->
<g id="node50" class="node">
<title>gwollum</title>
<g id="a_node50"><a xlink:href="https://github.com/conda-forge/gwollum-feedstock/pull/61" xlink:title="gwollum ✓">
<ellipse fill="#31688e" stroke="black" cx="2103.08" cy="-1042" rx="61.73" ry="18"/>
<text text-anchor="middle" x="2103.08" y="-1037.33" font-family="Times,serif" font-size="14.00" fill="white">gwollum ✓</text>
</a>
</g>
</g>
<!-- conduit -->
<g id="node51" class="node">
<title>conduit</title>
<g id="a_node51"><a xlink:href="https://github.com/conda-forge/conduit-feedstock/pull/47" xlink:title="conduit ✓">
<ellipse fill="#31688e" stroke="black" cx="2103.08" cy="-970" rx="56.47" ry="18"/>
<text text-anchor="middle" x="2103.08" y="-965.33" font-family="Times,serif" font-size="14.00" fill="white">conduit ✓</text>
</a>
</g>
</g>
<!-- gwollum&#45;&gt;conduit -->
<!-- nccmp -->
<g id="node52" class="node">
<title>nccmp</title>
<g id="a_node52"><a xlink:href="https://github.com/conda-forge/nccmp-feedstock/pull/20" xlink:title="nccmp ✓">
<ellipse fill="#31688e" stroke="black" cx="2103.08" cy="-898" rx="51.74" ry="18"/>
<text text-anchor="middle" x="2103.08" y="-893.33" font-family="Times,serif" font-size="14.00" fill="white">nccmp ✓</text>
</a>
</g>
</g>
<!-- conduit&#45;&gt;nccmp -->
<!-- mbsolve -->
<g id="node54" class="node">
<title>mbsolve</title>
<g id="a_node54"><a xlink:href="https://github.com/conda-forge/mbsolve-feedstock/pull/19" xlink:title="mbsolve ❎">
<ellipse fill="#31688e" stroke="black" cx="2103.08" cy="-826" rx="68.04" ry="18"/>
<text text-anchor="middle" x="2103.08" y="-821.33" font-family="Times,serif" font-size="14.00" fill="white">mbsolve ❎</text>
</a>
</g>
</g>
<!-- nccmp&#45;&gt;mbsolve -->
<!-- dagmc -->
<g id="node53" class="node">
<title>dagmc</title>
<g id="a_node53"><a xlink:href="https://github.com/conda-forge/dagmc-feedstock/pull/31" xlink:title="dagmc ❎">
<ellipse fill="#31688e" stroke="black" cx="1265.21" cy="-826" rx="59.63" ry="18"/>
<text text-anchor="middle" x="1265.21" y="-821.33" font-family="Times,serif" font-size="14.00" fill="white">dagmc ❎</text>
</a>
</g>
</g>
<!-- dagmc&#45;&gt;openmc -->
<g id="edge52" class="edge">
<title>dagmc&#45;&gt;openmc</title>
<path fill="none" stroke="black" d="M1265.21,-807.7C1265.21,-800.41 1265.21,-791.73 1265.21,-783.54"/>
<polygon fill="black" stroke="black" points="1268.71,-783.62 1265.21,-773.62 1261.71,-783.62 1268.71,-783.62"/>
</g>
<!-- fates&#45;emerald -->
<g id="node55" class="node">
<title>fates&#45;emerald</title>
<g id="a_node55"><a xlink:href="https://github.com/conda-forge/fates-emerald-feedstock/pull/20" xlink:title="fates emerald ❎">
<ellipse fill="#31688e" stroke="black" cx="2103.08" cy="-754" rx="95.4" ry="18"/>
<text text-anchor="middle" x="2103.08" y="-749.33" font-family="Times,serif" font-size="14.00" fill="white">fates emerald ❎</text>
</a>
</g>
</g>
<!-- mbsolve&#45;&gt;fates&#45;emerald -->
<!-- tomviz -->
<g id="node56" class="node">
<title>tomviz</title>
<g id="a_node56"><a xlink:href="https://github.com/conda-forge/tomviz-feedstock/pull/65" xlink:title="tomviz ❎">
<ellipse fill="#31688e" stroke="black" cx="2103.08" cy="-682" rx="60.15" ry="18"/>
<text text-anchor="middle" x="2103.08" y="-677.33" font-family="Times,serif" font-size="14.00" fill="white">tomviz ❎</text>
</a>
</g>
</g>
<!-- fates&#45;emerald&#45;&gt;tomviz -->
<!-- sirius -->
<g id="node57" class="node">
<title>sirius</title>
<g id="a_node57"><a xlink:href="https://github.com/conda-forge/sirius-feedstock/pull/33" xlink:title="sirius ❎">
<ellipse fill="#31688e" stroke="black" cx="2103.08" cy="-610" rx="54.36" ry="18"/>
<text text-anchor="middle" x="2103.08" y="-605.33" font-family="Times,serif" font-size="14.00" fill="white">sirius ❎</text>
</a>
</g>
</g>
<!-- tomviz&#45;&gt;sirius -->
<!-- yambo -->
<g id="node58" class="node">
<title>yambo</title>
<g id="a_node58"><a xlink:href="https://github.com/conda-forge/yambo-feedstock/pull/33" xlink:title="yambo ✓">
<ellipse fill="#31688e" stroke="black" cx="2103.08" cy="-538" rx="52.26" ry="18"/>
<text text-anchor="middle" x="2103.08" y="-533.33" font-family="Times,serif" font-size="14.00" fill="white">yambo ✓</text>
</a>
</g>
</g>
<!-- sirius&#45;&gt;yambo -->
<!-- fleur -->
<g id="node59" class="node">
<title>fleur</title>
<g id="a_node59"><a xlink:href="https://github.com/conda-forge/fleur-feedstock/pull/21" xlink:title="fleur ✓">
<ellipse fill="#31688e" stroke="black" cx="2103.08" cy="-466" rx="42.26" ry="18"/>
<text text-anchor="middle" x="2103.08" y="-461.32" font-family="Times,serif" font-size="14.00" fill="white">fleur ✓</text>
</a>
</g>
</g>
<!-- yambo&#45;&gt;fleur -->
<!-- freefem -->
<g id="node60" class="node">
<title>freefem</title>
<g id="a_node60"><a xlink:href="https://github.com/conda-forge/freefem-feedstock/pull/35" xlink:title="freefem ❎">
<ellipse fill="#31688e" stroke="black" cx="2103.08" cy="-394" rx="65.41" ry="18"/>
<text text-anchor="middle" x="2103.08" y="-389.32" font-family="Times,serif" font-size="14.00" fill="white">freefem ❎</text>
</a>
</g>
</g>
<!-- fleur&#45;&gt;freefem -->
<!-- fortnet -->
<g id="node61" class="node">
<title>fortnet</title>
<g id="a_node61"><a xlink:href="https://github.com/conda-forge/fortnet-feedstock/pull/8" xlink:title="fortnet ❎">
<ellipse fill="#31688e" stroke="black" cx="2103.08" cy="-322" rx="61.2" ry="18"/>
<text text-anchor="middle" x="2103.08" y="-317.32" font-family="Times,serif" font-size="14.00" fill="white">fortnet ❎</text>
</a>
</g>
</g>
<!-- freefem&#45;&gt;fortnet -->
<!-- cascade -->
<g id="node62" class="node">
<title>cascade</title>
<g id="a_node62"><a xlink:href="https://github.com/conda-forge/cascade-feedstock/pull/25" xlink:title="cascade ❎">
<ellipse fill="#31688e" stroke="black" cx="2103.08" cy="-278" rx="65.94" ry="18"/>
<text text-anchor="middle" x="2103.08" y="-273.32" font-family="Times,serif" font-size="14.00" fill="white">cascade ❎</text>
</a>
</g>
</g>
<!-- rockstar&#45;galaxies -->
<g id="node63" class="node">
<title>rockstar&#45;galaxies</title>
<g id="a_node63"><a xlink:href="https://github.com/conda-forge/rockstar-galaxies-feedstock/pull/4" xlink:title="rockstar galaxies ✓">
<ellipse fill="#31688e" stroke="black" cx="2103.08" cy="-206" rx="104.87" ry="18"/>
<text text-anchor="middle" x="2103.08" y="-201.33" font-family="Times,serif" font-size="14.00" fill="white">rockstar galaxies ✓</text>
</a>
</g>
</g>
<!-- cascade&#45;&gt;rockstar&#45;galaxies -->
<!-- ogs -->
<g id="node64" class="node">
<title>ogs</title>
<g id="a_node64"><a xlink:href="https://github.com/conda-forge/ogs-feedstock/pull/2" xlink:title="ogs ✓">
<ellipse fill="#31688e" stroke="black" cx="2103.08" cy="-134" rx="36.48" ry="18"/>
<text text-anchor="middle" x="2103.08" y="-129.32" font-family="Times,serif" font-size="14.00" fill="white">ogs ✓</text>
</a>
</g>
</g>
<!-- rockstar&#45;galaxies&#45;&gt;ogs -->
</g>
</svg>
