<?xml version="1.0" encoding="UTF-8" standalone="no"?>
<!DOCTYPE svg PUBLIC "-//W3C//DTD SVG 1.1//EN"
 "http://www.w3.org/Graphics/SVG/1.1/DTD/svg11.dtd">
<!-- Generated by graphviz version 12.0.0 (20240803.0821)
 -->
<!-- Pages: 1 -->
<svg width="2882pt" height="1212pt"
 viewBox="0.00 0.00 2882.16 1212.00" xmlns="http://www.w3.org/2000/svg" xmlns:xlink="http://www.w3.org/1999/xlink">
<g id="graph0" class="graph" transform="scale(1 1) rotate(0) translate(4 1208)">
<polygon fill="white" stroke="none" points="-4,4 -4,-1208 2878.16,-1208 2878.16,4 -4,4"/>
<!-- cyclus -->
<g id="node1" class="node">
<title>cyclus</title>
<g id="a_node1"><a xlink:href="https://github.com/conda-forge/cyclus-feedstock" xlink:title="cyclus">
<ellipse fill="#ff8c00" stroke="black" cx="2482.38" cy="-1186" rx="42.26" ry="18"/>
<text text-anchor="middle" x="2482.38" y="-1181.33" font-family="Times,serif" font-size="14.00">cyclus</text>
</a>
</g>
</g>
<!-- fenics -->
<g id="node2" class="node">
<title>fenics</title>
<g id="a_node2"><a xlink:href="https://github.com/conda-forge/fenics-feedstock" xlink:title="fenics">
<ellipse fill="#ff8c00" stroke="black" cx="2482.38" cy="-1114" rx="40.69" ry="18"/>
<text text-anchor="middle" x="2482.38" y="-1109.33" font-family="Times,serif" font-size="14.00">fenics</text>
</a>
</g>
</g>
<!-- cyclus&#45;&gt;fenics -->
<!-- graph -->
<g id="node3" class="node">
<title>graph</title>
<g id="a_node3"><a xlink:href="https://github.com/conda-forge/graph-feedstock/pull/11" xlink:title="graph ✓">
<ellipse fill="#31688e" stroke="black" cx="2482.38" cy="-1042" rx="48.58" ry="18"/>
<text text-anchor="middle" x="2482.38" y="-1037.33" font-family="Times,serif" font-size="14.00" fill="white">graph ✓</text>
</a>
</g>
</g>
<!-- fenics&#45;&gt;graph -->
<!-- siesta -->
<g id="node14" class="node">
<title>siesta</title>
<g id="a_node14"><a xlink:href="https://github.com/conda-forge/siesta-feedstock" xlink:title="siesta">
<ellipse fill="#35b779" stroke="black" cx="2482.38" cy="-970" rx="40.69" ry="18"/>
<text text-anchor="middle" x="2482.38" y="-965.33" font-family="Times,serif" font-size="14.00">siesta</text>
</a>
</g>
</g>
<!-- graph&#45;&gt;siesta -->
<!-- gdal -->
<g id="node4" class="node">
<title>gdal</title>
<g id="a_node4"><a xlink:href="https://github.com/conda-forge/gdal-feedstock" xlink:title="gdal">
<ellipse fill="#fde725" stroke="black" cx="1955.1" cy="-970" rx="32.79" ry="18"/>
<text text-anchor="middle" x="1955.1" y="-965.33" font-family="Times,serif" font-size="14.00">gdal</text>
</a>
</g>
</g>
<!-- gmt -->
<g id="node5" class="node">
<title>gmt</title>
<g id="a_node5"><a xlink:href="https://github.com/conda-forge/gmt-feedstock" xlink:title="gmt">
<ellipse fill="#fde725" stroke="black" cx="1985.1" cy="-898" rx="31.22" ry="18"/>
<text text-anchor="middle" x="1985.1" y="-893.33" font-family="Times,serif" font-size="14.00">gmt</text>
</a>
</g>
</g>
<!-- gdal&#45;&gt;gmt -->
<g id="edge3" class="edge">
<title>gdal&#45;&gt;gmt</title>
<path fill="none" stroke="black" d="M1962.37,-952.05C1965.68,-944.32 1969.69,-934.96 1973.42,-926.27"/>
<polygon fill="black" stroke="black" points="1976.59,-927.75 1977.31,-917.18 1970.16,-924.99 1976.59,-927.75"/>
</g>
<!-- ncl -->
<g id="node6" class="node">
<title>ncl</title>
<g id="a_node6"><a xlink:href="https://github.com/conda-forge/ncl-feedstock" xlink:title="ncl">
<ellipse fill="#fde725" stroke="black" cx="1926.1" cy="-826" rx="27" ry="18"/>
<text text-anchor="middle" x="1926.1" y="-821.33" font-family="Times,serif" font-size="14.00">ncl</text>
</a>
</g>
</g>
<!-- gdal&#45;&gt;ncl -->
<g id="edge4" class="edge">
<title>gdal&#45;&gt;ncl</title>
<path fill="none" stroke="black" d="M1951.61,-951.87C1946.71,-927.88 1937.74,-883.99 1931.85,-855.16"/>
<polygon fill="black" stroke="black" points="1935.35,-854.77 1929.92,-845.67 1928.49,-856.17 1935.35,-854.77"/>
</g>
<!-- rsgislib -->
<g id="node7" class="node">
<title>rsgislib</title>
<g id="a_node7"><a xlink:href="https://github.com/conda-forge/rsgislib-feedstock" xlink:title="rsgislib">
<ellipse fill="#fde725" stroke="black" cx="1665.1" cy="-898" rx="48.58" ry="18"/>
<text text-anchor="middle" x="1665.1" y="-893.33" font-family="Times,serif" font-size="14.00">rsgislib</text>
</a>
</g>
</g>
<!-- gdal&#45;&gt;rsgislib -->
<g id="edge5" class="edge">
<title>gdal&#45;&gt;rsgislib</title>
<path fill="none" stroke="black" d="M1924.56,-962.64C1880.06,-953.23 1794.87,-934.7 1723.1,-916 1719.76,-915.13 1716.32,-914.2 1712.85,-913.24"/>
<polygon fill="black" stroke="black" points="1713.86,-909.89 1703.29,-910.54 1711.96,-916.63 1713.86,-909.89"/>
</g>
<!-- isce2 -->
<g id="node8" class="node">
<title>isce2</title>
<g id="a_node8"><a xlink:href="https://github.com/conda-forge/isce2-feedstock" xlink:title="isce2">
<ellipse fill="#fde725" stroke="black" cx="1861.1" cy="-898" rx="37" ry="18"/>
<text text-anchor="middle" x="1861.1" y="-893.33" font-family="Times,serif" font-size="14.00">isce2</text>
</a>
</g>
</g>
<!-- gdal&#45;&gt;isce2 -->
<g id="edge6" class="edge">
<title>gdal&#45;&gt;isce2</title>
<path fill="none" stroke="black" d="M1936.08,-954.83C1922.75,-944.91 1904.71,-931.47 1889.66,-920.26"/>
<polygon fill="black" stroke="black" points="1892.07,-917.7 1881.96,-914.53 1887.89,-923.31 1892.07,-917.7"/>
</g>
<!-- gazebo -->
<g id="node9" class="node">
<title>gazebo</title>
<g id="a_node9"><a xlink:href="https://github.com/conda-forge/gazebo-feedstock" xlink:title="gazebo">
<ellipse fill="#fde725" stroke="black" cx="2274.1" cy="-754" rx="46.47" ry="18"/>
<text text-anchor="middle" x="2274.1" y="-749.33" font-family="Times,serif" font-size="14.00">gazebo</text>
</a>
</g>
</g>
<!-- gdal&#45;&gt;gazebo -->
<g id="edge7" class="edge">
<title>gdal&#45;&gt;gazebo</title>
<path fill="none" stroke="black" d="M1987.37,-966.27C2048.98,-960.46 2180.28,-944.95 2214.1,-916 2253.5,-882.28 2267.06,-820.11 2271.7,-783.68"/>
<polygon fill="black" stroke="black" points="2275.17,-784.22 2272.79,-773.9 2268.21,-783.45 2275.17,-784.22"/>
</g>
<!-- lue -->
<g id="node10" class="node">
<title>lue</title>
<g id="a_node10"><a xlink:href="https://github.com/conda-forge/lue-feedstock" xlink:title="lue">
<ellipse fill="#fde725" stroke="black" cx="2208.1" cy="-682" rx="27" ry="18"/>
<text text-anchor="middle" x="2208.1" y="-677.33" font-family="Times,serif" font-size="14.00">lue</text>
</a>
</g>
</g>
<!-- gdal&#45;&gt;lue -->
<g id="edge8" class="edge">
<title>gdal&#45;&gt;lue</title>
<path fill="none" stroke="black" d="M1986.89,-965.29C2039.86,-958.45 2142.8,-942.09 2167.1,-916 2219.76,-859.48 2217.18,-760.26 2212.1,-711.58"/>
<polygon fill="black" stroke="black" points="2215.6,-711.38 2210.96,-701.85 2208.65,-712.19 2215.6,-711.38"/>
</g>
<!-- mdal -->
<g id="node11" class="node">
<title>mdal</title>
<g id="a_node11"><a xlink:href="https://github.com/conda-forge/mdal-feedstock" xlink:title="mdal">
<ellipse fill="#fde725" stroke="black" cx="2153.1" cy="-610" rx="35.95" ry="18"/>
<text text-anchor="middle" x="2153.1" y="-605.33" font-family="Times,serif" font-size="14.00">mdal</text>
</a>
</g>
</g>
<!-- gdal&#45;&gt;mdal -->
<g id="edge9" class="edge">
<title>gdal&#45;&gt;mdal</title>
<path fill="none" stroke="black" d="M1988.04,-968.84C2028.45,-966.78 2096.24,-956.92 2134.1,-916 2161.57,-886.31 2153.1,-867.45 2153.1,-827 2153.1,-827 2153.1,-827 2153.1,-753 2153.1,-713.74 2153.1,-668.38 2153.1,-639.69"/>
<polygon fill="black" stroke="black" points="2156.6,-640 2153.1,-630 2149.6,-640 2156.6,-640"/>
</g>
<!-- isce3 -->
<g id="node12" class="node">
<title>isce3</title>
<g id="a_node12"><a xlink:href="https://github.com/conda-forge/isce3-feedstock" xlink:title="isce3">
<ellipse fill="#fde725" stroke="black" cx="1769.1" cy="-898" rx="37" ry="18"/>
<text text-anchor="middle" x="1769.1" y="-893.33" font-family="Times,serif" font-size="14.00">isce3</text>
</a>
</g>
</g>
<!-- gdal&#45;&gt;isce3 -->
<g id="edge10" class="edge">
<title>gdal&#45;&gt;isce3</title>
<path fill="none" stroke="black" d="M1928.45,-958.97C1897.05,-947.15 1844.58,-927.4 1808.48,-913.82"/>
<polygon fill="black" stroke="black" points="1809.85,-910.6 1799.26,-910.35 1807.39,-917.15 1809.85,-910.6"/>
</g>
<!-- libpdal -->
<g id="node13" class="node">
<title>libpdal</title>
<g id="a_node13"><a xlink:href="https://github.com/conda-forge/libpdal-feedstock" xlink:title="libpdal">
<ellipse fill="#fde725" stroke="black" cx="2080.1" cy="-898" rx="45.42" ry="18"/>
<text text-anchor="middle" x="2080.1" y="-893.33" font-family="Times,serif" font-size="14.00">libpdal</text>
</a>
</g>
</g>
<!-- gdal&#45;&gt;libpdal -->
<g id="edge11" class="edge">
<title>gdal&#45;&gt;libpdal</title>
<path fill="none" stroke="black" d="M1977.45,-956.49C1996.12,-946.03 2023.09,-930.93 2044.69,-918.83"/>
<polygon fill="black" stroke="black" points="2046.17,-922.02 2053.18,-914.08 2042.75,-915.91 2046.17,-922.02"/>
</g>
<!-- lammps -->
<g id="node43" class="node">
<title>lammps</title>
<g id="a_node43"><a xlink:href="https://github.com/conda-forge/lammps-feedstock" xlink:title="lammps">
<ellipse fill="#000000" stroke="black" cx="2482.38" cy="-898" rx="50.68" ry="18"/>
<text text-anchor="middle" x="2482.38" y="-893.33" font-family="Times,serif" font-size="14.00" fill="white">lammps</text>
</a>
</g>
</g>
<!-- siesta&#45;&gt;lammps -->
<!-- h5py -->
<g id="node15" class="node">
<title>h5py</title>
<g id="a_node15"><a xlink:href="https://github.com/conda-forge/h5py-feedstock/pull/151" xlink:title="h5py ❎">
<ellipse fill="#31688e" stroke="black" cx="1037.1" cy="-970" rx="51.21" ry="18"/>
<text text-anchor="middle" x="1037.1" y="-965.33" font-family="Times,serif" font-size="14.00" fill="white">h5py ❎</text>
</a>
</g>
</g>
<!-- h5py&#45;&gt;rsgislib -->
<g id="edge13" class="edge">
<title>h5py&#45;&gt;rsgislib</title>
<path fill="none" stroke="black" d="M1088.27,-967.54C1188.63,-963.94 1417.97,-952.16 1607.1,-916 1610.88,-915.28 1614.76,-914.42 1618.64,-913.47"/>
<polygon fill="black" stroke="black" points="1619.24,-916.93 1628.01,-911 1617.45,-910.16 1619.24,-916.93"/>
</g>
<!-- h5py&#45;&gt;isce2 -->
<g id="edge14" class="edge">
<title>h5py&#45;&gt;isce2</title>
<path fill="none" stroke="black" d="M1088.09,-967.43C1238,-962.5 1675.53,-945.9 1815.1,-916 1817.7,-915.44 1820.35,-914.77 1823,-914.02"/>
<polygon fill="black" stroke="black" points="1823.86,-917.41 1832.31,-911.02 1821.72,-910.75 1823.86,-917.41"/>
</g>
<!-- h5py&#45;&gt;isce3 -->
<g id="edge15" class="edge">
<title>h5py&#45;&gt;isce3</title>
<path fill="none" stroke="black" d="M1088.58,-969.84C1203.74,-970.69 1490.31,-966.97 1723.1,-916 1725.7,-915.43 1728.35,-914.75 1730.99,-913.99"/>
<polygon fill="black" stroke="black" points="1731.86,-917.39 1740.3,-910.98 1729.71,-910.72 1731.86,-917.39"/>
</g>
<!-- openmc -->
<g id="node16" class="node">
<title>openmc</title>
<g id="a_node16"><a xlink:href="https://github.com/conda-forge/openmc-feedstock" xlink:title="openmc">
<ellipse fill="#fde725" stroke="black" cx="1548.1" cy="-898" rx="50.16" ry="18"/>
<text text-anchor="middle" x="1548.1" y="-893.33" font-family="Times,serif" font-size="14.00">openmc</text>
</a>
</g>
</g>
<!-- h5py&#45;&gt;openmc -->
<g id="edge16" class="edge">
<title>h5py&#45;&gt;openmc</title>
<path fill="none" stroke="black" d="M1087.07,-965.4C1170.06,-958.9 1341.33,-943.28 1484.1,-916 1489,-915.06 1494.07,-913.96 1499.12,-912.77"/>
<polygon fill="black" stroke="black" points="1499.73,-916.22 1508.6,-910.41 1498.05,-909.43 1499.73,-916.22"/>
</g>
<!-- h5utils -->
<g id="node17" class="node">
<title>h5utils</title>
<g id="a_node17"><a xlink:href="https://github.com/conda-forge/h5utils-feedstock" xlink:title="h5utils">
<ellipse fill="#fde725" stroke="black" cx="1111.1" cy="-898" rx="45.95" ry="18"/>
<text text-anchor="middle" x="1111.1" y="-893.33" font-family="Times,serif" font-size="14.00">h5utils</text>
</a>
</g>
</g>
<!-- h5py&#45;&gt;h5utils -->
<g id="edge17" class="edge">
<title>h5py&#45;&gt;h5utils</title>
<path fill="none" stroke="black" d="M1054.27,-952.76C1063.61,-943.93 1075.34,-932.83 1085.72,-923.01"/>
<polygon fill="black" stroke="black" points="1088.07,-925.6 1092.93,-916.19 1083.26,-920.52 1088.07,-925.6"/>
</g>
<!-- pymeep -->
<g id="node18" class="node">
<title>pymeep</title>
<g id="a_node18"><a xlink:href="https://github.com/conda-forge/pymeep-feedstock" xlink:title="pymeep">
<ellipse fill="#fde725" stroke="black" cx="1111.1" cy="-826" rx="50.68" ry="18"/>
<text text-anchor="middle" x="1111.1" y="-821.33" font-family="Times,serif" font-size="14.00">pymeep</text>
</a>
</g>
</g>
<!-- h5py&#45;&gt;pymeep -->
<g id="edge18" class="edge">
<title>h5py&#45;&gt;pymeep</title>
<path fill="none" stroke="black" d="M1037.83,-951.55C1039.26,-932.81 1043.52,-902.65 1056.1,-880 1062.3,-868.84 1071.61,-858.59 1080.82,-850.13"/>
<polygon fill="black" stroke="black" points="1083.1,-852.78 1088.37,-843.59 1078.52,-847.49 1083.1,-852.78"/>
</g>
<!-- blosc&#45;hdf5&#45;plugin -->
<g id="node19" class="node">
<title>blosc&#45;hdf5&#45;plugin</title>
<g id="a_node19"><a xlink:href="https://github.com/conda-forge/blosc-hdf5-plugin-feedstock" xlink:title="blosc hdf5 plugin">
<ellipse fill="#fde725" stroke="black" cx="945.1" cy="-826" rx="97.51" ry="18"/>
<text text-anchor="middle" x="945.1" y="-821.33" font-family="Times,serif" font-size="14.00">blosc hdf5 plugin</text>
</a>
</g>
</g>
<!-- h5py&#45;&gt;blosc&#45;hdf5&#45;plugin -->
<g id="edge19" class="edge">
<title>h5py&#45;&gt;blosc&#45;hdf5&#45;plugin</title>
<path fill="none" stroke="black" d="M1026.19,-952.15C1010.44,-927.84 981.17,-882.66 962.44,-853.75"/>
<polygon fill="black" stroke="black" points="965.49,-852.03 957.11,-845.54 959.61,-855.83 965.49,-852.03"/>
</g>
<!-- nest&#45;simulator -->
<g id="node20" class="node">
<title>nest&#45;simulator</title>
<g id="a_node20"><a xlink:href="https://github.com/conda-forge/nest-simulator-feedstock" xlink:title="nest simulator">
<ellipse fill="#fde725" stroke="black" cx="855.1" cy="-754" rx="83.83" ry="18"/>
<text text-anchor="middle" x="855.1" y="-749.33" font-family="Times,serif" font-size="14.00">nest simulator</text>
</a>
</g>
</g>
<!-- h5py&#45;&gt;nest&#45;simulator -->
<g id="edge20" class="edge">
<title>h5py&#45;&gt;nest&#45;simulator</title>
<path fill="none" stroke="black" d="M986.13,-967.86C943.19,-964.2 882.88,-952.3 845.1,-916 809.72,-882 808.61,-855.19 822.1,-808 824.77,-798.66 829.61,-789.37 834.78,-781.24"/>
<polygon fill="black" stroke="black" points="837.51,-783.44 840.27,-773.21 831.73,-779.49 837.51,-783.44"/>
</g>
<!-- bitshuffle -->
<g id="node21" class="node">
<title>bitshuffle</title>
<g id="a_node21"><a xlink:href="https://github.com/conda-forge/bitshuffle-feedstock" xlink:title="bitshuffle">
<ellipse fill="#fde725" stroke="black" cx="743.1" cy="-682" rx="58.57" ry="18"/>
<text text-anchor="middle" x="743.1" y="-677.33" font-family="Times,serif" font-size="14.00">bitshuffle</text>
</a>
</g>
</g>
<!-- h5py&#45;&gt;bitshuffle -->
<g id="edge21" class="edge">
<title>h5py&#45;&gt;bitshuffle</title>
<path fill="none" stroke="black" d="M989.55,-962.88C932.55,-954.67 841.53,-938.47 816.1,-916 756.07,-862.95 744.89,-761.25 743.15,-711.64"/>
<polygon fill="black" stroke="black" points="746.65,-711.64 742.92,-701.72 739.65,-711.8 746.65,-711.64"/>
</g>
<!-- bonsu -->
<g id="node22" class="node">
<title>bonsu</title>
<g id="a_node22"><a xlink:href="https://github.com/conda-forge/bonsu-feedstock" xlink:title="bonsu">
<ellipse fill="#fde725" stroke="black" cx="622.1" cy="-610" rx="41.21" ry="18"/>
<text text-anchor="middle" x="622.1" y="-605.33" font-family="Times,serif" font-size="14.00">bonsu</text>
</a>
</g>
</g>
<!-- h5py&#45;&gt;bonsu -->
<g id="edge22" class="edge">
<title>h5py&#45;&gt;bonsu</title>
<path fill="none" stroke="black" d="M986.62,-966.49C878.23,-960.58 630.99,-944.13 606.1,-916 588.05,-895.59 609.32,-711.22 618.39,-639.43"/>
<polygon fill="black" stroke="black" points="621.84,-640.02 619.64,-629.66 614.9,-639.13 621.84,-640.02"/>
</g>
<!-- proteus -->
<g id="node23" class="node">
<title>proteus</title>
<g id="a_node23"><a xlink:href="https://github.com/conda-forge/proteus-feedstock" xlink:title="proteus">
<ellipse fill="#fde725" stroke="black" cx="665.1" cy="-898" rx="49.63" ry="18"/>
<text text-anchor="middle" x="665.1" y="-893.33" font-family="Times,serif" font-size="14.00">proteus</text>
</a>
</g>
</g>
<!-- h5py&#45;&gt;proteus -->
<g id="edge23" class="edge">
<title>h5py&#45;&gt;proteus</title>
<path fill="none" stroke="black" d="M990.15,-962.25C929.54,-953.24 820.94,-936.06 729.1,-916 724.3,-914.95 719.31,-913.78 714.34,-912.55"/>
<polygon fill="black" stroke="black" points="715.57,-909.25 705.02,-910.18 713.85,-916.04 715.57,-909.25"/>
</g>
<!-- hdf5plugin -->
<g id="node24" class="node">
<title>hdf5plugin</title>
<g id="a_node24"><a xlink:href="https://github.com/conda-forge/hdf5plugin-feedstock" xlink:title="hdf5plugin">
<ellipse fill="#fde725" stroke="black" cx="1245.1" cy="-826" rx="65.41" ry="18"/>
<text text-anchor="middle" x="1245.1" y="-821.33" font-family="Times,serif" font-size="14.00">hdf5plugin</text>
</a>
</g>
</g>
<!-- h5py&#45;&gt;hdf5plugin -->
<g id="edge24" class="edge">
<title>h5py&#45;&gt;hdf5plugin</title>
<path fill="none" stroke="black" d="M1076.4,-958.02C1103.24,-949.33 1138.76,-935.41 1166.1,-916 1190.32,-898.81 1212.24,-872.87 1226.82,-853.42"/>
<polygon fill="black" stroke="black" points="1229.59,-855.56 1232.66,-845.42 1223.94,-851.43 1229.59,-855.56"/>
</g>
<!-- prismatic_split -->
<g id="node25" class="node">
<title>prismatic_split</title>
<g id="a_node25"><a xlink:href="https://github.com/conda-forge/prismatic_split-feedstock" xlink:title="prismatic_split">
<ellipse fill="#fde725" stroke="black" cx="509.1" cy="-754" rx="85.41" ry="18"/>
<text text-anchor="middle" x="509.1" y="-749.33" font-family="Times,serif" font-size="14.00">prismatic_split</text>
</a>
</g>
</g>
<!-- h5py&#45;&gt;prismatic_split -->
<g id="edge25" class="edge">
<title>h5py&#45;&gt;prismatic_split</title>
<path fill="none" stroke="black" d="M985.45,-969.58C878.33,-969.78 636.69,-964.65 573.1,-916 531.18,-883.92 516.66,-820.16 511.67,-783.23"/>
<polygon fill="black" stroke="black" points="515.2,-783.27 510.54,-773.76 508.25,-784.1 515.2,-783.27"/>
</g>
<!-- digital_rf -->
<g id="node26" class="node">
<title>digital_rf</title>
<g id="a_node26"><a xlink:href="https://github.com/conda-forge/digital_rf-feedstock" xlink:title="digital_rf">
<ellipse fill="#fde725" stroke="black" cx="396.1" cy="-682" rx="56.47" ry="18"/>
<text text-anchor="middle" x="396.1" y="-677.33" font-family="Times,serif" font-size="14.00">digital_rf</text>
</a>
</g>
</g>
<!-- h5py&#45;&gt;digital_rf -->
<g id="edge26" class="edge">
<title>h5py&#45;&gt;digital_rf</title>
<path fill="none" stroke="black" d="M985.85,-968.27C874.8,-965.94 615.82,-956.23 539.1,-916 464.31,-876.78 452.65,-847.66 415.1,-772 405.7,-753.05 400.94,-729.58 398.53,-711.5"/>
<polygon fill="black" stroke="black" points="402.03,-711.27 397.41,-701.73 395.07,-712.07 402.03,-711.27"/>
</g>
<!-- damask -->
<g id="node27" class="node">
<title>damask</title>
<g id="a_node27"><a xlink:href="https://github.com/conda-forge/damask-feedstock" xlink:title="damask">
<ellipse fill="#fde725" stroke="black" cx="1470.1" cy="-610" rx="49.63" ry="18"/>
<text text-anchor="middle" x="1470.1" y="-605.33" font-family="Times,serif" font-size="14.00">damask</text>
</a>
</g>
</g>
<!-- h5py&#45;&gt;damask -->
<g id="edge27" class="edge">
<title>h5py&#45;&gt;damask</title>
<path fill="none" stroke="black" d="M1088.32,-967.74C1180.82,-964.53 1371.07,-953.46 1424.1,-916 1460.47,-890.31 1470.1,-871.53 1470.1,-827 1470.1,-827 1470.1,-827 1470.1,-753 1470.1,-713.74 1470.1,-668.38 1470.1,-639.69"/>
<polygon fill="black" stroke="black" points="1473.6,-640 1470.1,-630 1466.6,-640 1473.6,-640"/>
</g>
<!-- pp&#45;sketchlib -->
<g id="node28" class="node">
<title>pp&#45;sketchlib</title>
<g id="a_node28"><a xlink:href="https://github.com/conda-forge/pp-sketchlib-feedstock" xlink:title="pp sketchlib">
<ellipse fill="#fde725" stroke="black" cx="296.1" cy="-898" rx="72.25" ry="18"/>
<text text-anchor="middle" x="296.1" y="-893.33" font-family="Times,serif" font-size="14.00">pp sketchlib</text>
</a>
</g>
</g>
<!-- h5py&#45;&gt;pp&#45;sketchlib -->
<g id="edge28" class="edge">
<title>h5py&#45;&gt;pp&#45;sketchlib</title>
<path fill="none" stroke="black" d="M986.35,-966.87C875.99,-961.82 606.13,-947.1 382.1,-916 375,-915.01 367.59,-913.81 360.24,-912.51"/>
<polygon fill="black" stroke="black" points="361.12,-909.12 350.65,-910.75 359.85,-916 361.12,-909.12"/>
</g>
<!-- readdy -->
<g id="node29" class="node">
<title>readdy</title>
<g id="a_node29"><a xlink:href="https://github.com/conda-forge/readdy-feedstock" xlink:title="readdy">
<ellipse fill="#fde725" stroke="black" cx="1343.1" cy="-898" rx="45.95" ry="18"/>
<text text-anchor="middle" x="1343.1" y="-893.33" font-family="Times,serif" font-size="14.00">readdy</text>
</a>
</g>
</g>
<!-- h5py&#45;&gt;readdy -->
<g id="edge29" class="edge">
<title>h5py&#45;&gt;readdy</title>
<path fill="none" stroke="black" d="M1080.85,-960.45C1130.19,-950.61 1212.73,-933.53 1283.1,-916 1287.36,-914.94 1291.76,-913.79 1296.17,-912.61"/>
<polygon fill="black" stroke="black" points="1296.86,-916.05 1305.57,-910.02 1295,-909.3 1296.86,-916.05"/>
</g>
<!-- votca -->
<g id="node30" class="node">
<title>votca</title>
<g id="a_node30"><a xlink:href="https://github.com/conda-forge/votca-feedstock" xlink:title="votca">
<ellipse fill="#fde725" stroke="black" cx="1366.1" cy="-826" rx="38.06" ry="18"/>
<text text-anchor="middle" x="1366.1" y="-821.33" font-family="Times,serif" font-size="14.00">votca</text>
</a>
</g>
</g>
<!-- h5py&#45;&gt;votca -->
<g id="edge30" class="edge">
<title>h5py&#45;&gt;votca</title>
<path fill="none" stroke="black" d="M1076.68,-958.27C1110.14,-948.7 1159.05,-933.52 1200.1,-916 1248.21,-895.47 1301.01,-865.85 1333.85,-846.52"/>
<polygon fill="black" stroke="black" points="1335.26,-849.75 1342.08,-841.64 1331.69,-843.73 1335.26,-849.75"/>
</g>
<!-- dxtbx -->
<g id="node31" class="node">
<title>dxtbx</title>
<g id="a_node31"><a xlink:href="https://github.com/conda-forge/dxtbx-feedstock" xlink:title="dxtbx">
<ellipse fill="#fde725" stroke="black" cx="1121.1" cy="-754" rx="39.63" ry="18"/>
<text text-anchor="middle" x="1121.1" y="-749.33" font-family="Times,serif" font-size="14.00">dxtbx</text>
</a>
</g>
</g>
<!-- h5py&#45;&gt;dxtbx -->
<g id="edge31" class="edge">
<title>h5py&#45;&gt;dxtbx</title>
<path fill="none" stroke="black" d="M999.44,-957.38C927.56,-933.34 782.68,-874.76 838.1,-808 852.89,-790.19 994.45,-770.4 1071.58,-760.83"/>
<polygon fill="black" stroke="black" points="1071.92,-764.31 1081.42,-759.62 1071.07,-757.36 1071.92,-764.31"/>
</g>
<!-- paraprobe -->
<g id="node32" class="node">
<title>paraprobe</title>
<g id="a_node32"><a xlink:href="https://github.com/conda-forge/paraprobe-feedstock" xlink:title="paraprobe">
<ellipse fill="#fde725" stroke="black" cx="1379.1" cy="-754" rx="62.78" ry="18"/>
<text text-anchor="middle" x="1379.1" y="-749.33" font-family="Times,serif" font-size="14.00">paraprobe</text>
</a>
</g>
</g>
<!-- h5py&#45;&gt;paraprobe -->
<g id="edge32" class="edge">
<title>h5py&#45;&gt;paraprobe</title>
<path fill="none" stroke="black" d="M1088.33,-968.47C1177.13,-966.45 1354.36,-957.21 1398.1,-916 1433.38,-882.77 1426.74,-854.5 1413.1,-808 1410.35,-798.6 1405.36,-789.29 1400.04,-781.16"/>
<polygon fill="black" stroke="black" points="1403,-779.29 1394.38,-773.13 1397.28,-783.32 1403,-779.29"/>
</g>
<!-- pixsfm -->
<g id="node33" class="node">
<title>pixsfm</title>
<g id="a_node33"><a xlink:href="https://github.com/conda-forge/pixsfm-feedstock" xlink:title="pixsfm">
<ellipse fill="#fde725" stroke="black" cx="161.1" cy="-898" rx="44.9" ry="18"/>
<text text-anchor="middle" x="161.1" y="-893.33" font-family="Times,serif" font-size="14.00">pixsfm</text>
</a>
</g>
</g>
<!-- h5py&#45;&gt;pixsfm -->
<g id="edge33" class="edge">
<title>h5py&#45;&gt;pixsfm</title>
<path fill="none" stroke="black" d="M986.08,-967.32C830.59,-961.94 364.2,-943.85 215.1,-916 211.73,-915.37 208.28,-914.6 204.83,-913.73"/>
<polygon fill="black" stroke="black" points="205.94,-910.41 195.37,-911.11 204.07,-917.15 205.94,-910.41"/>
</g>
<!-- pyne -->
<g id="node34" class="node">
<title>pyne</title>
<g id="a_node34"><a xlink:href="https://github.com/conda-forge/pyne-feedstock" xlink:title="pyne">
<ellipse fill="#fde725" stroke="black" cx="1548.1" cy="-826" rx="35.42" ry="18"/>
<text text-anchor="middle" x="1548.1" y="-821.33" font-family="Times,serif" font-size="14.00">pyne</text>
</a>
</g>
</g>
<!-- openmc&#45;&gt;pyne -->
<g id="edge34" class="edge">
<title>openmc&#45;&gt;pyne</title>
<path fill="none" stroke="black" d="M1548.1,-879.7C1548.1,-872.41 1548.1,-863.73 1548.1,-855.54"/>
<polygon fill="black" stroke="black" points="1551.6,-855.62 1548.1,-845.62 1544.6,-855.62 1551.6,-855.62"/>
</g>
<!-- h5utils&#45;&gt;pymeep -->
<g id="edge35" class="edge">
<title>h5utils&#45;&gt;pymeep</title>
<path fill="none" stroke="black" d="M1111.1,-879.7C1111.1,-872.41 1111.1,-863.73 1111.1,-855.54"/>
<polygon fill="black" stroke="black" points="1114.6,-855.62 1111.1,-845.62 1107.6,-855.62 1114.6,-855.62"/>
</g>
<!-- hdf5plugin&#45;&gt;dxtbx -->
<g id="edge36" class="edge">
<title>hdf5plugin&#45;&gt;dxtbx</title>
<path fill="none" stroke="black" d="M1217.28,-809.29C1198.88,-798.9 1174.64,-785.22 1155.1,-774.19"/>
<polygon fill="black" stroke="black" points="1156.82,-771.15 1146.39,-769.28 1153.38,-777.24 1156.82,-771.15"/>
</g>
<!-- kealib -->
<g id="node35" class="node">
<title>kealib</title>
<g id="a_node35"><a xlink:href="https://github.com/conda-forge/kealib-feedstock/pull/65" xlink:title="kealib ❎">
<ellipse fill="#31688e" stroke="black" cx="1824.1" cy="-1042" rx="56.47" ry="18"/>
<text text-anchor="middle" x="1824.1" y="-1037.33" font-family="Times,serif" font-size="14.00" fill="white">kealib ❎</text>
</a>
</g>
</g>
<!-- kealib&#45;&gt;gdal -->
<g id="edge37" class="edge">
<title>kealib&#45;&gt;gdal</title>
<path fill="none" stroke="black" d="M1852.21,-1025.98C1872.75,-1015 1900.68,-1000.08 1922.26,-988.55"/>
<polygon fill="black" stroke="black" points="1923.77,-991.71 1930.94,-983.91 1920.47,-985.54 1923.77,-991.71"/>
</g>
<!-- kealib&#45;&gt;rsgislib -->
<g id="edge38" class="edge">
<title>kealib&#45;&gt;rsgislib</title>
<path fill="none" stroke="black" d="M1805.86,-1024.71C1777.83,-999.67 1724.01,-951.6 1691.65,-922.71"/>
<polygon fill="black" stroke="black" points="1694.05,-920.16 1684.26,-916.11 1689.39,-925.38 1694.05,-920.16"/>
</g>
<!-- libitk -->
<g id="node36" class="node">
<title>libitk</title>
<g id="a_node36"><a xlink:href="https://github.com/conda-forge/libitk-feedstock/pull/99" xlink:title="libitk ❎">
<ellipse fill="#31688e" stroke="black" cx="2482.38" cy="-90" rx="52.26" ry="18"/>
<text text-anchor="middle" x="2482.38" y="-85.33" font-family="Times,serif" font-size="14.00" fill="white">libitk ❎</text>
</a>
</g>
</g>
<!-- stir -->
<g id="node37" class="node">
<title>stir</title>
<g id="a_node37"><a xlink:href="https://github.com/conda-forge/stir-feedstock" xlink:title="stir">
<ellipse fill="#fde725" stroke="black" cx="2482.38" cy="-18" rx="28.59" ry="18"/>
<text text-anchor="middle" x="2482.38" y="-13.32" font-family="Times,serif" font-size="14.00">stir</text>
</a>
</g>
</g>
<!-- libitk&#45;&gt;stir -->
<g id="edge39" class="edge">
<title>libitk&#45;&gt;stir</title>
<path fill="none" stroke="black" d="M2482.38,-71.7C2482.38,-64.41 2482.38,-55.73 2482.38,-47.54"/>
<polygon fill="black" stroke="black" points="2485.88,-47.62 2482.38,-37.62 2478.88,-47.62 2485.88,-47.62"/>
</g>
<!-- libmatio -->
<g id="node38" class="node">
<title>libmatio</title>
<g id="a_node38"><a xlink:href="https://github.com/conda-forge/libmatio-feedstock/pull/53" xlink:title="libmatio ✓">
<ellipse fill="#31688e" stroke="black" cx="1167.76" cy="-422" rx="60.15" ry="18"/>
<text text-anchor="middle" x="1167.76" y="-417.32" font-family="Times,serif" font-size="14.00" fill="white">libmatio ✓</text>
</a>
</g>
</g>
<!-- pytrilinos -->
<g id="node39" class="node">
<title>pytrilinos</title>
<g id="a_node39"><a xlink:href="https://github.com/conda-forge/pytrilinos-feedstock" xlink:title="pytrilinos">
<ellipse fill="#fde725" stroke="black" cx="1052.76" cy="-350" rx="59.1" ry="18"/>
<text text-anchor="middle" x="1052.76" y="-345.32" font-family="Times,serif" font-size="14.00">pytrilinos</text>
</a>
</g>
</g>
<!-- libmatio&#45;&gt;pytrilinos -->
<g id="edge40" class="edge">
<title>libmatio&#45;&gt;pytrilinos</title>
<path fill="none" stroke="black" d="M1141.95,-405.29C1126.12,-395.65 1105.62,-383.18 1088.27,-372.62"/>
<polygon fill="black" stroke="black" points="1090.14,-369.65 1079.77,-367.44 1086.5,-375.63 1090.14,-369.65"/>
</g>
<!-- trilinos -->
<g id="node40" class="node">
<title>trilinos</title>
<g id="a_node40"><a xlink:href="https://github.com/conda-forge/trilinos-feedstock" xlink:title="trilinos">
<ellipse fill="#fde725" stroke="black" cx="1120.76" cy="-278" rx="47" ry="18"/>
<text text-anchor="middle" x="1120.76" y="-273.32" font-family="Times,serif" font-size="14.00">trilinos</text>
</a>
</g>
</g>
<!-- libmatio&#45;&gt;trilinos -->
<g id="edge41" class="edge">
<title>libmatio&#45;&gt;trilinos</title>
<path fill="none" stroke="black" d="M1162,-403.59C1154.02,-379.5 1139.54,-335.75 1130.04,-307.03"/>
<polygon fill="black" stroke="black" points="1133.36,-305.94 1126.9,-297.55 1126.72,-308.14 1133.36,-305.94"/>
</g>
<!-- openmeeg -->
<g id="node41" class="node">
<title>openmeeg</title>
<g id="a_node41"><a xlink:href="https://github.com/conda-forge/openmeeg-feedstock" xlink:title="openmeeg">
<ellipse fill="#fde725" stroke="black" cx="1195.76" cy="-206" rx="62.78" ry="18"/>
<text text-anchor="middle" x="1195.76" y="-201.33" font-family="Times,serif" font-size="14.00">openmeeg</text>
</a>
</g>
</g>
<!-- libmatio&#45;&gt;openmeeg -->
<g id="edge42" class="edge">
<title>libmatio&#45;&gt;openmeeg</title>
<path fill="none" stroke="black" d="M1170,-403.85C1174.81,-367.14 1186.12,-280.66 1192.03,-235.53"/>
<polygon fill="black" stroke="black" points="1195.48,-236.1 1193.31,-225.73 1188.54,-235.19 1195.48,-236.1"/>
</g>
<!-- scilab -->
<g id="node42" class="node">
<title>scilab</title>
<g id="a_node42"><a xlink:href="https://github.com/conda-forge/scilab-feedstock" xlink:title="scilab">
<ellipse fill="#fde725" stroke="black" cx="1286.76" cy="-134" rx="40.16" ry="18"/>
<text text-anchor="middle" x="1286.76" y="-129.32" font-family="Times,serif" font-size="14.00">scilab</text>
</a>
</g>
</g>
<!-- libmatio&#45;&gt;scilab -->
<g id="edge43" class="edge">
<title>libmatio&#45;&gt;scilab</title>
<path fill="none" stroke="black" d="M1178.3,-404.02C1198.54,-370.72 1243.01,-293.97 1267.76,-224 1274.69,-204.39 1279.52,-181.42 1282.57,-163.73"/>
<polygon fill="black" stroke="black" points="1286.02,-164.35 1284.17,-153.92 1279.11,-163.23 1286.02,-164.35"/>
</g>
<!-- freecad -->
<g id="node46" class="node">
<title>freecad</title>
<g id="a_node46"><a xlink:href="https://github.com/conda-forge/freecad-feedstock" xlink:title="freecad">
<ellipse fill="#000000" stroke="black" cx="2482.38" cy="-826" rx="48.58" ry="18"/>
<text text-anchor="middle" x="2482.38" y="-821.33" font-family="Times,serif" font-size="14.00" fill="white">freecad</text>
</a>
</g>
</g>
<!-- lammps&#45;&gt;freecad -->
<!-- libmed -->
<g id="node44" class="node">
<title>libmed</title>
<g id="a_node44"><a xlink:href="https://github.com/conda-forge/libmed-feedstock/pull/69" xlink:title="libmed ❎">
<ellipse fill="#31688e" stroke="black" cx="1160.29" cy="-90" rx="60.68" ry="18"/>
<text text-anchor="middle" x="1160.29" y="-85.33" font-family="Times,serif" font-size="14.00" fill="white">libmed ❎</text>
</a>
</g>
</g>
<!-- medcoupling -->
<g id="node45" class="node">
<title>medcoupling</title>
<g id="a_node45"><a xlink:href="https://github.com/conda-forge/medcoupling-feedstock" xlink:title="medcoupling">
<ellipse fill="#fde725" stroke="black" cx="1160.29" cy="-18" rx="75.41" ry="18"/>
<text text-anchor="middle" x="1160.29" y="-13.32" font-family="Times,serif" font-size="14.00">medcoupling</text>
</a>
</g>
</g>
<!-- libmed&#45;&gt;medcoupling -->
<g id="edge45" class="edge">
<title>libmed&#45;&gt;medcoupling</title>
<path fill="none" stroke="black" d="M1160.29,-71.7C1160.29,-64.41 1160.29,-55.73 1160.29,-47.54"/>
<polygon fill="black" stroke="black" points="1163.79,-47.62 1160.29,-37.62 1156.79,-47.62 1163.79,-47.62"/>
</g>
<!-- esys&#45;escript -->
<g id="node47" class="node">
<title>esys&#45;escript</title>
<g id="a_node47"><a xlink:href="https://github.com/conda-forge/esys-escript-feedstock/pull/76" xlink:title="esys escript ❎">
<ellipse fill="#31688e" stroke="black" cx="2482.38" cy="-754" rx="86.46" ry="18"/>
<text text-anchor="middle" x="2482.38" y="-749.33" font-family="Times,serif" font-size="14.00" fill="white">esys escript ❎</text>
</a>
</g>
</g>
<!-- freecad&#45;&gt;esys&#45;escript -->
<!-- dakota -->
<g id="node50" class="node">
<title>dakota</title>
<g id="a_node50"><a xlink:href="https://github.com/conda-forge/dakota-feedstock/pull/52" xlink:title="dakota ❎">
<ellipse fill="#31688e" stroke="black" cx="2482.38" cy="-682" rx="60.15" ry="18"/>
<text text-anchor="middle" x="2482.38" y="-677.33" font-family="Times,serif" font-size="14.00" fill="white">dakota ❎</text>
</a>
</g>
</g>
<!-- esys&#45;escript&#45;&gt;dakota -->
<!-- highfive -->
<g id="node48" class="node">
<title>highfive</title>
<g id="a_node48"><a xlink:href="https://github.com/conda-forge/highfive-feedstock/pull/44" xlink:title="highfive ✓">
<ellipse fill="#31688e" stroke="black" cx="161.1" cy="-970" rx="59.1" ry="18"/>
<text text-anchor="middle" x="161.1" y="-965.33" font-family="Times,serif" font-size="14.00" fill="white">highfive ✓</text>
</a>
</g>
</g>
<!-- highfive&#45;&gt;pp&#45;sketchlib -->
<g id="edge48" class="edge">
<title>highfive&#45;&gt;pp&#45;sketchlib</title>
<path fill="none" stroke="black" d="M190.06,-953.98C209.24,-944.04 234.66,-930.86 255.8,-919.9"/>
<polygon fill="black" stroke="black" points="257.18,-923.13 264.44,-915.42 253.95,-916.91 257.18,-923.13"/>
</g>
<!-- highfive&#45;&gt;pixsfm -->
<g id="edge49" class="edge">
<title>highfive&#45;&gt;pixsfm</title>
<path fill="none" stroke="black" d="M161.1,-951.7C161.1,-944.41 161.1,-935.73 161.1,-927.54"/>
<polygon fill="black" stroke="black" points="164.6,-927.62 161.1,-917.62 157.6,-927.62 164.6,-927.62"/>
</g>
<!-- cantera -->
<g id="node49" class="node">
<title>cantera</title>
<g id="a_node49"><a xlink:href="https://github.com/conda-forge/cantera-feedstock" xlink:title="cantera">
<ellipse fill="#fde725" stroke="black" cx="49.1" cy="-898" rx="49.1" ry="18"/>
<text text-anchor="middle" x="49.1" y="-893.33" font-family="Times,serif" font-size="14.00">cantera</text>
</a>
</g>
</g>
<!-- highfive&#45;&gt;cantera -->
<g id="edge50" class="edge">
<title>highfive&#45;&gt;cantera</title>
<path fill="none" stroke="black" d="M135.97,-953.29C120.23,-943.45 99.75,-930.65 82.63,-919.96"/>
<polygon fill="black" stroke="black" points="84.62,-917.07 74.29,-914.74 80.91,-923.01 84.62,-917.07"/>
</g>
<!-- hdf5&#45;external&#45;filter&#45;plugins -->
<g id="node51" class="node">
<title>hdf5&#45;external&#45;filter&#45;plugins</title>
<g id="a_node51"><a xlink:href="https://github.com/conda-forge/hdf5-external-filter-plugins-feedstock/pull/23" xlink:title="hdf5 external filter plugins ✓">
<ellipse fill="#31688e" stroke="black" cx="2482.38" cy="-610" rx="153.8" ry="18"/>
<text text-anchor="middle" x="2482.38" y="-605.33" font-family="Times,serif" font-size="14.00" fill="white">hdf5 external filter plugins ✓</text>
</a>
</g>
</g>
<!-- dakota&#45;&gt;hdf5&#45;external&#45;filter&#45;plugins -->
<!-- ecell4_base -->
<g id="node55" class="node">
<title>ecell4_base</title>
<g id="a_node55"><a xlink:href="https://github.com/conda-forge/ecell4_base-feedstock/pull/32" xlink:title="ecell4_base ❎">
<ellipse fill="#31688e" stroke="black" cx="2482.38" cy="-538" rx="83.83" ry="18"/>
<text text-anchor="middle" x="2482.38" y="-533.33" font-family="Times,serif" font-size="14.00" fill="white">ecell4_base ❎</text>
</a>
</g>
</g>
<!-- hdf5&#45;external&#45;filter&#45;plugins&#45;&gt;ecell4_base -->
<!-- triqs -->
<g id="node52" class="node">
<title>triqs</title>
<g id="a_node52"><a xlink:href="https://github.com/conda-forge/triqs-feedstock/pull/72" xlink:title="triqs ❎">
<ellipse fill="#31688e" stroke="black" cx="2759.69" cy="-350" rx="50.16" ry="18"/>
<text text-anchor="middle" x="2759.69" y="-345.32" font-family="Times,serif" font-size="14.00" fill="white">triqs ❎</text>
</a>
</g>
</g>
<!-- triqs_cthyb -->
<g id="node53" class="node">
<title>triqs_cthyb</title>
<g id="a_node53"><a xlink:href="https://github.com/conda-forge/triqs_cthyb-feedstock" xlink:title="triqs_cthyb">
<ellipse fill="#fde725" stroke="black" cx="2711.69" cy="-278" rx="67.52" ry="18"/>
<text text-anchor="middle" x="2711.69" y="-273.32" font-family="Times,serif" font-size="14.00">triqs_cthyb</text>
</a>
</g>
</g>
<!-- triqs&#45;&gt;triqs_cthyb -->
<g id="edge53" class="edge">
<title>triqs&#45;&gt;triqs_cthyb</title>
<path fill="none" stroke="black" d="M2748.07,-332.05C2742.53,-323.97 2735.78,-314.12 2729.6,-305.11"/>
<polygon fill="black" stroke="black" points="2732.6,-303.31 2724.06,-297.04 2726.83,-307.26 2732.6,-303.31"/>
</g>
<!-- triqs_ctseg -->
<g id="node54" class="node">
<title>triqs_ctseg</title>
<g id="a_node54"><a xlink:href="https://github.com/conda-forge/triqs_ctseg-feedstock" xlink:title="triqs_ctseg">
<ellipse fill="#fde725" stroke="black" cx="2807.69" cy="-206" rx="66.47" ry="18"/>
<text text-anchor="middle" x="2807.69" y="-201.32" font-family="Times,serif" font-size="14.00">triqs_ctseg</text>
</a>
</g>
</g>
<!-- triqs&#45;&gt;triqs_ctseg -->
<g id="edge54" class="edge">
<title>triqs&#45;&gt;triqs_ctseg</title>
<path fill="none" stroke="black" d="M2770.41,-332.41C2776.54,-322.25 2783.95,-308.78 2788.69,-296 2795.93,-276.5 2800.75,-253.53 2803.72,-235.8"/>
<polygon fill="black" stroke="black" points="2807.17,-236.4 2805.26,-225.98 2800.26,-235.32 2807.17,-236.4"/>
</g>
<!-- gwollum -->
<g id="node56" class="node">
<title>gwollum</title>
<g id="a_node56"><a xlink:href="https://github.com/conda-forge/gwollum-feedstock" xlink:title="gwollum">
<ellipse fill="#000000" stroke="black" cx="2482.38" cy="-466" rx="53.84" ry="18"/>
<text text-anchor="middle" x="2482.38" y="-461.32" font-family="Times,serif" font-size="14.00" fill="white">gwollum</text>
</a>
</g>
</g>
<!-- ecell4_base&#45;&gt;gwollum -->
<!-- conduit -->
<g id="node57" class="node">
<title>conduit</title>
<g id="a_node57"><a xlink:href="https://github.com/conda-forge/conduit-feedstock/pull/47" xlink:title="conduit ✓">
<ellipse fill="#31688e" stroke="black" cx="2759.17" cy="-1186" rx="56.47" ry="18"/>
<text text-anchor="middle" x="2759.17" y="-1181.33" font-family="Times,serif" font-size="14.00" fill="white">conduit ✓</text>
</a>
</g>
</g>
<!-- nccmp -->
<g id="node58" class="node">
<title>nccmp</title>
<g id="a_node58"><a xlink:href="https://github.com/conda-forge/nccmp-feedstock/pull/20" xlink:title="nccmp ✓">
<ellipse fill="#31688e" stroke="black" cx="2759.17" cy="-1114" rx="51.74" ry="18"/>
<text text-anchor="middle" x="2759.17" y="-1109.33" font-family="Times,serif" font-size="14.00" fill="white">nccmp ✓</text>
</a>
</g>
</g>
<!-- conduit&#45;&gt;nccmp -->
<!-- mbsolve -->
<g id="node60" class="node">
<title>mbsolve</title>
<g id="a_node60"><a xlink:href="https://github.com/conda-forge/mbsolve-feedstock/pull/19" xlink:title="mbsolve ❎">
<ellipse fill="#31688e" stroke="black" cx="2759.17" cy="-1042" rx="68.04" ry="18"/>
<text text-anchor="middle" x="2759.17" y="-1037.33" font-family="Times,serif" font-size="14.00" fill="white">mbsolve ❎</text>
</a>
</g>
</g>
<!-- nccmp&#45;&gt;mbsolve -->
<!-- dagmc -->
<g id="node59" class="node">
<title>dagmc</title>
<g id="a_node59"><a xlink:href="https://github.com/conda-forge/dagmc-feedstock" xlink:title="dagmc">
<ellipse fill="#000000" stroke="black" cx="1548.1" cy="-970" rx="44.37" ry="18"/>
<text text-anchor="middle" x="1548.1" y="-965.33" font-family="Times,serif" font-size="14.00" fill="white">dagmc</text>
</a>
</g>
</g>
<!-- dagmc&#45;&gt;openmc -->
<g id="edge58" class="edge">
<title>dagmc&#45;&gt;openmc</title>
<path fill="none" stroke="black" d="M1548.1,-951.7C1548.1,-944.41 1548.1,-935.73 1548.1,-927.54"/>
<polygon fill="black" stroke="black" points="1551.6,-927.62 1548.1,-917.62 1544.6,-927.62 1551.6,-927.62"/>
</g>
<!-- fates&#45;emerald -->
<g id="node61" class="node">
<title>fates&#45;emerald</title>
<g id="a_node61"><a xlink:href="https://github.com/conda-forge/fates-emerald-feedstock/pull/20" xlink:title="fates emerald ❎">
<ellipse fill="#31688e" stroke="black" cx="2759.17" cy="-970" rx="95.4" ry="18"/>
<text text-anchor="middle" x="2759.17" y="-965.33" font-family="Times,serif" font-size="14.00" fill="white">fates emerald ❎</text>
</a>
</g>
</g>
<!-- mbsolve&#45;&gt;fates&#45;emerald -->
<!-- tomviz -->
<g id="node62" class="node">
<title>tomviz</title>
<g id="a_node62"><a xlink:href="https://github.com/conda-forge/tomviz-feedstock" xlink:title="tomviz">
<ellipse fill="#ff8c00" stroke="black" cx="2759.17" cy="-898" rx="44.9" ry="18"/>
<text text-anchor="middle" x="2759.17" y="-893.33" font-family="Times,serif" font-size="14.00">tomviz</text>
</a>
</g>
</g>
<!-- fates&#45;emerald&#45;&gt;tomviz -->
<!-- sirius -->
<g id="node63" class="node">
<title>sirius</title>
<g id="a_node63"><a xlink:href="https://github.com/conda-forge/sirius-feedstock/pull/33" xlink:title="sirius ❎">
<ellipse fill="#31688e" stroke="black" cx="2759.17" cy="-826" rx="54.36" ry="18"/>
<text text-anchor="middle" x="2759.17" y="-821.33" font-family="Times,serif" font-size="14.00" fill="white">sirius ❎</text>
</a>
</g>
</g>
<!-- tomviz&#45;&gt;sirius -->
<!-- yambo -->
<g id="node64" class="node">
<title>yambo</title>
<g id="a_node64"><a xlink:href="https://github.com/conda-forge/yambo-feedstock/pull/33" xlink:title="yambo ✓">
<ellipse fill="#31688e" stroke="black" cx="2759.17" cy="-754" rx="52.26" ry="18"/>
<text text-anchor="middle" x="2759.17" y="-749.33" font-family="Times,serif" font-size="14.00" fill="white">yambo ✓</text>
</a>
</g>
</g>
<!-- sirius&#45;&gt;yambo -->
<!-- cadet -->
<g id="node65" class="node">
<title>cadet</title>
<g id="a_node65"><a xlink:href="https://github.com/conda-forge/cadet-feedstock/pull/15" xlink:title="cadet ❎">
<ellipse fill="#31688e" stroke="black" cx="2759.17" cy="-682" rx="53.84" ry="18"/>
<text text-anchor="middle" x="2759.17" y="-677.33" font-family="Times,serif" font-size="14.00" fill="white">cadet ❎</text>
</a>
</g>
</g>
<!-- yambo&#45;&gt;cadet -->
<!-- fleur -->
<g id="node66" class="node">
<title>fleur</title>
<g id="a_node66"><a xlink:href="https://github.com/conda-forge/fleur-feedstock/pull/21" xlink:title="fleur ✓">
<ellipse fill="#31688e" stroke="black" cx="2759.17" cy="-610" rx="42.26" ry="18"/>
<text text-anchor="middle" x="2759.17" y="-605.33" font-family="Times,serif" font-size="14.00" fill="white">fleur ✓</text>
</a>
</g>
</g>
<!-- cadet&#45;&gt;fleur -->
<!-- fenics&#45;dolfinx -->
<g id="node67" class="node">
<title>fenics&#45;dolfinx</title>
<g id="a_node67"><a xlink:href="https://github.com/conda-forge/fenics-dolfinx-feedstock/pull/89" xlink:title="fenics dolfinx ❎">
<ellipse fill="#31688e" stroke="black" cx="2759.17" cy="-538" rx="92.77" ry="18"/>
<text text-anchor="middle" x="2759.17" y="-533.33" font-family="Times,serif" font-size="14.00" fill="white">fenics dolfinx ❎</text>
</a>
</g>
</g>
<!-- fleur&#45;&gt;fenics&#45;dolfinx -->
<!-- freefem -->
<g id="node68" class="node">
<title>freefem</title>
<g id="a_node68"><a xlink:href="https://github.com/conda-forge/freefem-feedstock" xlink:title="freefem">
<ellipse fill="#000000" stroke="black" cx="2759.17" cy="-466" rx="50.16" ry="18"/>
<text text-anchor="middle" x="2759.17" y="-461.32" font-family="Times,serif" font-size="14.00" fill="white">freefem</text>
</a>
</g>
</g>
<!-- fenics&#45;dolfinx&#45;&gt;freefem -->
<!-- fortnet -->
<g id="node69" class="node">
<title>fortnet</title>
<g id="a_node69"><a xlink:href="https://github.com/conda-forge/fortnet-feedstock/pull/8" xlink:title="fortnet ❎">
<ellipse fill="#31688e" stroke="black" cx="2482.38" cy="-386" rx="61.2" ry="18"/>
<text text-anchor="middle" x="2482.38" y="-381.32" font-family="Times,serif" font-size="14.00" fill="white">fortnet ❎</text>
</a>
</g>
</g>
<!-- cascade -->
<g id="node70" class="node">
<title>cascade</title>
<g id="a_node70"><a xlink:href="https://github.com/conda-forge/cascade-feedstock/pull/25" xlink:title="cascade ❎">
<ellipse fill="#31688e" stroke="black" cx="2482.38" cy="-314" rx="65.94" ry="18"/>
<text text-anchor="middle" x="2482.38" y="-309.32" font-family="Times,serif" font-size="14.00" fill="white">cascade ❎</text>
</a>
</g>
</g>
<!-- fortnet&#45;&gt;cascade -->
<!-- rockstar&#45;galaxies -->
<g id="node71" class="node">
<title>rockstar&#45;galaxies</title>
<g id="a_node71"><a xlink:href="https://github.com/conda-forge/rockstar-galaxies-feedstock/pull/4" xlink:title="rockstar galaxies ✓">
<ellipse fill="#31688e" stroke="black" cx="2482.38" cy="-242" rx="104.87" ry="18"/>
<text text-anchor="middle" x="2482.38" y="-237.32" font-family="Times,serif" font-size="14.00" fill="white">rockstar galaxies ✓</text>
</a>
</g>
</g>
<!-- cascade&#45;&gt;rockstar&#45;galaxies -->
<!-- ogs -->
<g id="node72" class="node">
<title>ogs</title>
<g id="a_node72"><a xlink:href="https://github.com/conda-forge/ogs-feedstock/pull/2" xlink:title="ogs ✓">
<ellipse fill="#31688e" stroke="black" cx="2482.38" cy="-170" rx="36.48" ry="18"/>
<text text-anchor="middle" x="2482.38" y="-165.32" font-family="Times,serif" font-size="14.00" fill="white">ogs ✓</text>
</a>
</g>
</g>
<!-- rockstar&#45;galaxies&#45;&gt;ogs -->
</g>
</svg>
