<?xml version="1.0" encoding="UTF-8" standalone="no"?>
<!DOCTYPE svg PUBLIC "-//W3C//DTD SVG 1.1//EN"
 "http://www.w3.org/Graphics/SVG/1.1/DTD/svg11.dtd">
<!-- Generated by graphviz version 12.0.0 (20240803.0821)
 -->
<!-- Pages: 1 -->
<svg width="2809pt" height="1284pt"
 viewBox="0.00 0.00 2808.90 1284.00" xmlns="http://www.w3.org/2000/svg" xmlns:xlink="http://www.w3.org/1999/xlink">
<g id="graph0" class="graph" transform="scale(1 1) rotate(0) translate(4 1280)">
<polygon fill="white" stroke="none" points="-4,4 -4,-1280 2804.9,-1280 2804.9,4 -4,4"/>
<!-- cyclus -->
<g id="node1" class="node">
<title>cyclus</title>
<g id="a_node1"><a xlink:href="https://github.com/conda-forge/cyclus-feedstock" xlink:title="cyclus">
<ellipse fill="#ff8c00" stroke="black" cx="2409.12" cy="-1258" rx="42.26" ry="18"/>
<text text-anchor="middle" x="2409.12" y="-1253.33" font-family="Times,serif" font-size="14.00">cyclus</text>
</a>
</g>
</g>
<!-- fenics -->
<g id="node2" class="node">
<title>fenics</title>
<g id="a_node2"><a xlink:href="https://github.com/conda-forge/fenics-feedstock" xlink:title="fenics">
<ellipse fill="#ff8c00" stroke="black" cx="2409.12" cy="-1186" rx="40.69" ry="18"/>
<text text-anchor="middle" x="2409.12" y="-1181.33" font-family="Times,serif" font-size="14.00">fenics</text>
</a>
</g>
</g>
<!-- cyclus&#45;&gt;fenics -->
<!-- graph -->
<g id="node3" class="node">
<title>graph</title>
<g id="a_node3"><a xlink:href="https://github.com/conda-forge/graph-feedstock/pull/11" xlink:title="graph ✓">
<ellipse fill="#31688e" stroke="black" cx="2409.12" cy="-1114" rx="48.58" ry="18"/>
<text text-anchor="middle" x="2409.12" y="-1109.33" font-family="Times,serif" font-size="14.00" fill="white">graph ✓</text>
</a>
</g>
</g>
<!-- fenics&#45;&gt;graph -->
<!-- hyperion&#45;fortran -->
<g id="node14" class="node">
<title>hyperion&#45;fortran</title>
<g id="a_node14"><a xlink:href="https://github.com/conda-forge/hyperion-fortran-feedstock/pull/31" xlink:title="hyperion fortran ✓">
<ellipse fill="#31688e" stroke="black" cx="2409.12" cy="-1042" rx="101.71" ry="18"/>
<text text-anchor="middle" x="2409.12" y="-1037.33" font-family="Times,serif" font-size="14.00" fill="white">hyperion fortran ✓</text>
</a>
</g>
</g>
<!-- graph&#45;&gt;hyperion&#45;fortran -->
<!-- gdal -->
<g id="node4" class="node">
<title>gdal</title>
<g id="a_node4"><a xlink:href="https://github.com/conda-forge/gdal-feedstock" xlink:title="gdal">
<ellipse fill="#fde725" stroke="black" cx="1997.1" cy="-1042" rx="32.79" ry="18"/>
<text text-anchor="middle" x="1997.1" y="-1037.33" font-family="Times,serif" font-size="14.00">gdal</text>
</a>
</g>
</g>
<!-- gmt -->
<g id="node5" class="node">
<title>gmt</title>
<g id="a_node5"><a xlink:href="https://github.com/conda-forge/gmt-feedstock" xlink:title="gmt">
<ellipse fill="#fde725" stroke="black" cx="2216.1" cy="-970" rx="31.22" ry="18"/>
<text text-anchor="middle" x="2216.1" y="-965.33" font-family="Times,serif" font-size="14.00">gmt</text>
</a>
</g>
</g>
<!-- gdal&#45;&gt;gmt -->
<g id="edge3" class="edge">
<title>gdal&#45;&gt;gmt</title>
<path fill="none" stroke="black" d="M2025.92,-1032.85C2060.59,-1022.9 2120.44,-1005.27 2171.1,-988 2174.14,-986.96 2177.28,-985.86 2180.43,-984.72"/>
<polygon fill="black" stroke="black" points="2181.39,-988.1 2189.56,-981.35 2178.97,-981.53 2181.39,-988.1"/>
</g>
<!-- ncl -->
<g id="node6" class="node">
<title>ncl</title>
<g id="a_node6"><a xlink:href="https://github.com/conda-forge/ncl-feedstock" xlink:title="ncl">
<ellipse fill="#fde725" stroke="black" cx="2165.1" cy="-898" rx="27" ry="18"/>
<text text-anchor="middle" x="2165.1" y="-893.33" font-family="Times,serif" font-size="14.00">ncl</text>
</a>
</g>
</g>
<!-- gdal&#45;&gt;ncl -->
<g id="edge4" class="edge">
<title>gdal&#45;&gt;ncl</title>
<path fill="none" stroke="black" d="M2027.82,-1034.9C2055.98,-1027.89 2097.27,-1013.87 2124.1,-988 2141.22,-971.49 2151.87,-946.48 2158.01,-927.17"/>
<polygon fill="black" stroke="black" points="2161.32,-928.32 2160.77,-917.74 2154.6,-926.35 2161.32,-928.32"/>
</g>
<!-- rsgislib -->
<g id="node7" class="node">
<title>rsgislib</title>
<g id="a_node7"><a xlink:href="https://github.com/conda-forge/rsgislib-feedstock" xlink:title="rsgislib">
<ellipse fill="#fde725" stroke="black" cx="1849.1" cy="-970" rx="48.58" ry="18"/>
<text text-anchor="middle" x="1849.1" y="-965.33" font-family="Times,serif" font-size="14.00">rsgislib</text>
</a>
</g>
</g>
<!-- gdal&#45;&gt;rsgislib -->
<g id="edge5" class="edge">
<title>gdal&#45;&gt;rsgislib</title>
<path fill="none" stroke="black" d="M1972.66,-1029.44C1949.76,-1018.61 1915.13,-1002.23 1888.36,-989.57"/>
<polygon fill="black" stroke="black" points="1890.06,-986.5 1879.52,-985.39 1887.07,-992.83 1890.06,-986.5"/>
</g>
<!-- isce2 -->
<g id="node8" class="node">
<title>isce2</title>
<g id="a_node8"><a xlink:href="https://github.com/conda-forge/isce2-feedstock" xlink:title="isce2">
<ellipse fill="#fde725" stroke="black" cx="1745.1" cy="-970" rx="37" ry="18"/>
<text text-anchor="middle" x="1745.1" y="-965.33" font-family="Times,serif" font-size="14.00">isce2</text>
</a>
</g>
</g>
<!-- gdal&#45;&gt;isce2 -->
<g id="edge6" class="edge">
<title>gdal&#45;&gt;isce2</title>
<path fill="none" stroke="black" d="M1967.16,-1034.31C1926.82,-1025.07 1852.96,-1007.33 1791.1,-988 1788.73,-987.26 1786.29,-986.46 1783.85,-985.64"/>
<polygon fill="black" stroke="black" points="1785.19,-982.4 1774.59,-982.39 1782.87,-989 1785.19,-982.4"/>
</g>
<!-- gazebo -->
<g id="node9" class="node">
<title>gazebo</title>
<g id="a_node9"><a xlink:href="https://github.com/conda-forge/gazebo-feedstock" xlink:title="gazebo">
<ellipse fill="#fde725" stroke="black" cx="2146.1" cy="-826" rx="46.47" ry="18"/>
<text text-anchor="middle" x="2146.1" y="-821.33" font-family="Times,serif" font-size="14.00">gazebo</text>
</a>
</g>
</g>
<!-- gdal&#45;&gt;gazebo -->
<g id="edge7" class="edge">
<title>gdal&#45;&gt;gazebo</title>
<path fill="none" stroke="black" d="M2023.37,-1031.04C2043.07,-1022.37 2069.4,-1008.02 2086.1,-988 2094.94,-977.41 2122.33,-898.07 2136.85,-854.86"/>
<polygon fill="black" stroke="black" points="2140.08,-856.24 2139.93,-845.65 2133.44,-854.02 2140.08,-856.24"/>
</g>
<!-- lue -->
<g id="node10" class="node">
<title>lue</title>
<g id="a_node10"><a xlink:href="https://github.com/conda-forge/lue-feedstock" xlink:title="lue">
<ellipse fill="#fde725" stroke="black" cx="2089.1" cy="-754" rx="27" ry="18"/>
<text text-anchor="middle" x="2089.1" y="-749.33" font-family="Times,serif" font-size="14.00">lue</text>
</a>
</g>
</g>
<!-- gdal&#45;&gt;lue -->
<g id="edge8" class="edge">
<title>gdal&#45;&gt;lue</title>
<path fill="none" stroke="black" d="M2015.53,-1026.76C2026.74,-1017.06 2040.35,-1003.25 2048.1,-988 2082.36,-920.58 2088.55,-829.62 2089.33,-783.85"/>
<polygon fill="black" stroke="black" points="2092.82,-783.99 2089.41,-773.97 2085.82,-783.94 2092.82,-783.99"/>
</g>
<!-- mdal -->
<g id="node11" class="node">
<title>mdal</title>
<g id="a_node11"><a xlink:href="https://github.com/conda-forge/mdal-feedstock" xlink:title="mdal">
<ellipse fill="#fde725" stroke="black" cx="2034.1" cy="-682" rx="35.95" ry="18"/>
<text text-anchor="middle" x="2034.1" y="-677.33" font-family="Times,serif" font-size="14.00">mdal</text>
</a>
</g>
</g>
<!-- gdal&#45;&gt;mdal -->
<g id="edge9" class="edge">
<title>gdal&#45;&gt;mdal</title>
<path fill="none" stroke="black" d="M2004.41,-1024.32C2015.2,-998.15 2034.1,-945.62 2034.1,-899 2034.1,-899 2034.1,-899 2034.1,-825 2034.1,-785.74 2034.1,-740.38 2034.1,-711.69"/>
<polygon fill="black" stroke="black" points="2037.6,-712 2034.1,-702 2030.6,-712 2037.6,-712"/>
</g>
<!-- isce3 -->
<g id="node12" class="node">
<title>isce3</title>
<g id="a_node12"><a xlink:href="https://github.com/conda-forge/isce3-feedstock" xlink:title="isce3">
<ellipse fill="#fde725" stroke="black" cx="1653.1" cy="-970" rx="37" ry="18"/>
<text text-anchor="middle" x="1653.1" y="-965.33" font-family="Times,serif" font-size="14.00">isce3</text>
</a>
</g>
</g>
<!-- gdal&#45;&gt;isce3 -->
<g id="edge10" class="edge">
<title>gdal&#45;&gt;isce3</title>
<path fill="none" stroke="black" d="M1965.38,-1037.24C1910.47,-1030.33 1794.45,-1013.87 1699.1,-988 1696.7,-987.35 1694.25,-986.62 1691.78,-985.85"/>
<polygon fill="black" stroke="black" points="1693.09,-982.6 1682.5,-982.72 1690.86,-989.23 1693.09,-982.6"/>
</g>
<!-- libpdal -->
<g id="node13" class="node">
<title>libpdal</title>
<g id="a_node13"><a xlink:href="https://github.com/conda-forge/libpdal-feedstock" xlink:title="libpdal">
<ellipse fill="#fde725" stroke="black" cx="1961.1" cy="-970" rx="45.42" ry="18"/>
<text text-anchor="middle" x="1961.1" y="-965.33" font-family="Times,serif" font-size="14.00">libpdal</text>
</a>
</g>
</g>
<!-- gdal&#45;&gt;libpdal -->
<g id="edge11" class="edge">
<title>gdal&#45;&gt;libpdal</title>
<path fill="none" stroke="black" d="M1988.57,-1024.41C1984.51,-1016.51 1979.54,-1006.85 1974.96,-997.94"/>
<polygon fill="black" stroke="black" points="1978.2,-996.59 1970.52,-989.3 1971.98,-999.8 1978.2,-996.59"/>
</g>
<!-- siesta -->
<g id="node35" class="node">
<title>siesta</title>
<g id="a_node35"><a xlink:href="https://github.com/conda-forge/siesta-feedstock" xlink:title="siesta">
<ellipse fill="#fde725" stroke="black" cx="2409.12" cy="-970" rx="40.69" ry="18"/>
<text text-anchor="middle" x="2409.12" y="-965.33" font-family="Times,serif" font-size="14.00">siesta</text>
</a>
</g>
</g>
<!-- hyperion&#45;fortran&#45;&gt;siesta -->
<!-- h5py -->
<g id="node15" class="node">
<title>h5py</title>
<g id="a_node15"><a xlink:href="https://github.com/conda-forge/h5py-feedstock" xlink:title="h5py">
<ellipse fill="#35b779" stroke="black" cx="1037.1" cy="-1042" rx="35.95" ry="18"/>
<text text-anchor="middle" x="1037.1" y="-1037.33" font-family="Times,serif" font-size="14.00">h5py</text>
</a>
</g>
</g>
<!-- h5py&#45;&gt;rsgislib -->
<g id="edge13" class="edge">
<title>h5py&#45;&gt;rsgislib</title>
<path fill="none" stroke="black" d="M1073.15,-1039.49C1203.57,-1033.89 1650.48,-1013.25 1791.1,-988 1794.94,-987.31 1798.88,-986.47 1802.82,-985.52"/>
<polygon fill="black" stroke="black" points="1803.55,-988.95 1812.35,-983.04 1801.79,-982.17 1803.55,-988.95"/>
</g>
<!-- h5py&#45;&gt;isce2 -->
<g id="edge14" class="edge">
<title>h5py&#45;&gt;isce2</title>
<path fill="none" stroke="black" d="M1073.5,-1041.55C1174.26,-1042.35 1464.9,-1039.62 1699.1,-988 1701.7,-987.43 1704.35,-986.74 1706.99,-985.98"/>
<polygon fill="black" stroke="black" points="1707.86,-989.38 1716.3,-982.97 1705.71,-982.72 1707.86,-989.38"/>
</g>
<!-- h5py&#45;&gt;isce3 -->
<g id="edge15" class="edge">
<title>h5py&#45;&gt;isce3</title>
<path fill="none" stroke="black" d="M1073.3,-1040.89C1164.23,-1039.92 1409.15,-1032.96 1607.1,-988 1609.7,-987.41 1612.34,-986.71 1614.98,-985.94"/>
<polygon fill="black" stroke="black" points="1615.86,-989.34 1624.29,-982.91 1613.7,-982.68 1615.86,-989.34"/>
</g>
<!-- openmc -->
<g id="node16" class="node">
<title>openmc</title>
<g id="a_node16"><a xlink:href="https://github.com/conda-forge/openmc-feedstock" xlink:title="openmc">
<ellipse fill="#fde725" stroke="black" cx="1548.1" cy="-970" rx="50.16" ry="18"/>
<text text-anchor="middle" x="1548.1" y="-965.33" font-family="Times,serif" font-size="14.00">openmc</text>
</a>
</g>
</g>
<!-- h5py&#45;&gt;openmc -->
<g id="edge16" class="edge">
<title>h5py&#45;&gt;openmc</title>
<path fill="none" stroke="black" d="M1072.71,-1038.5C1148.77,-1032.79 1332.51,-1016.97 1484.1,-988 1489,-987.06 1494.07,-985.96 1499.12,-984.77"/>
<polygon fill="black" stroke="black" points="1499.73,-988.22 1508.6,-982.41 1498.05,-981.43 1499.73,-988.22"/>
</g>
<!-- h5utils -->
<g id="node17" class="node">
<title>h5utils</title>
<g id="a_node17"><a xlink:href="https://github.com/conda-forge/h5utils-feedstock" xlink:title="h5utils">
<ellipse fill="#fde725" stroke="black" cx="1111.1" cy="-970" rx="45.95" ry="18"/>
<text text-anchor="middle" x="1111.1" y="-965.33" font-family="Times,serif" font-size="14.00">h5utils</text>
</a>
</g>
</g>
<!-- h5py&#45;&gt;h5utils -->
<g id="edge17" class="edge">
<title>h5py&#45;&gt;h5utils</title>
<path fill="none" stroke="black" d="M1053.16,-1025.81C1062.69,-1016.8 1074.97,-1005.18 1085.78,-994.95"/>
<polygon fill="black" stroke="black" points="1088.09,-997.59 1092.95,-988.17 1083.28,-992.5 1088.09,-997.59"/>
</g>
<!-- pymeep -->
<g id="node18" class="node">
<title>pymeep</title>
<g id="a_node18"><a xlink:href="https://github.com/conda-forge/pymeep-feedstock" xlink:title="pymeep">
<ellipse fill="#fde725" stroke="black" cx="1111.1" cy="-898" rx="50.68" ry="18"/>
<text text-anchor="middle" x="1111.1" y="-893.33" font-family="Times,serif" font-size="14.00">pymeep</text>
</a>
</g>
</g>
<!-- h5py&#45;&gt;pymeep -->
<g id="edge18" class="edge">
<title>h5py&#45;&gt;pymeep</title>
<path fill="none" stroke="black" d="M1037.83,-1023.55C1039.26,-1004.81 1043.52,-974.65 1056.1,-952 1062.3,-940.84 1071.61,-930.59 1080.82,-922.13"/>
<polygon fill="black" stroke="black" points="1083.1,-924.78 1088.37,-915.59 1078.52,-919.49 1083.1,-924.78"/>
</g>
<!-- blosc&#45;hdf5&#45;plugin -->
<g id="node19" class="node">
<title>blosc&#45;hdf5&#45;plugin</title>
<g id="a_node19"><a xlink:href="https://github.com/conda-forge/blosc-hdf5-plugin-feedstock" xlink:title="blosc hdf5 plugin">
<ellipse fill="#fde725" stroke="black" cx="945.1" cy="-898" rx="97.51" ry="18"/>
<text text-anchor="middle" x="945.1" y="-893.33" font-family="Times,serif" font-size="14.00">blosc hdf5 plugin</text>
</a>
</g>
</g>
<!-- h5py&#45;&gt;blosc&#45;hdf5&#45;plugin -->
<g id="edge19" class="edge">
<title>h5py&#45;&gt;blosc&#45;hdf5&#45;plugin</title>
<path fill="none" stroke="black" d="M1026.37,-1024.43C1010.68,-1000.22 981.32,-954.89 962.51,-925.87"/>
<polygon fill="black" stroke="black" points="965.54,-924.11 957.17,-917.62 959.67,-927.91 965.54,-924.11"/>
</g>
<!-- nest&#45;simulator -->
<g id="node20" class="node">
<title>nest&#45;simulator</title>
<g id="a_node20"><a xlink:href="https://github.com/conda-forge/nest-simulator-feedstock" xlink:title="nest simulator">
<ellipse fill="#fde725" stroke="black" cx="855.1" cy="-826" rx="83.83" ry="18"/>
<text text-anchor="middle" x="855.1" y="-821.33" font-family="Times,serif" font-size="14.00">nest simulator</text>
</a>
</g>
</g>
<!-- h5py&#45;&gt;nest&#45;simulator -->
<g id="edge20" class="edge">
<title>h5py&#45;&gt;nest&#45;simulator</title>
<path fill="none" stroke="black" d="M1001.01,-1040.86C958.25,-1038.74 887.49,-1028.73 845.1,-988 809.72,-954 808.61,-927.19 822.1,-880 824.77,-870.66 829.61,-861.37 834.78,-853.24"/>
<polygon fill="black" stroke="black" points="837.51,-855.44 840.27,-845.21 831.73,-851.49 837.51,-855.44"/>
</g>
<!-- bitshuffle -->
<g id="node21" class="node">
<title>bitshuffle</title>
<g id="a_node21"><a xlink:href="https://github.com/conda-forge/bitshuffle-feedstock" xlink:title="bitshuffle">
<ellipse fill="#fde725" stroke="black" cx="743.1" cy="-754" rx="58.57" ry="18"/>
<text text-anchor="middle" x="743.1" y="-749.33" font-family="Times,serif" font-size="14.00">bitshuffle</text>
</a>
</g>
</g>
<!-- h5py&#45;&gt;bitshuffle -->
<g id="edge21" class="edge">
<title>h5py&#45;&gt;bitshuffle</title>
<path fill="none" stroke="black" d="M1002.29,-1036.67C947.25,-1029.17 843.53,-1012.23 816.1,-988 756.07,-934.95 744.89,-833.25 743.15,-783.64"/>
<polygon fill="black" stroke="black" points="746.65,-783.64 742.92,-773.72 739.65,-783.8 746.65,-783.64"/>
</g>
<!-- bonsu -->
<g id="node22" class="node">
<title>bonsu</title>
<g id="a_node22"><a xlink:href="https://github.com/conda-forge/bonsu-feedstock" xlink:title="bonsu">
<ellipse fill="#fde725" stroke="black" cx="622.1" cy="-682" rx="41.21" ry="18"/>
<text text-anchor="middle" x="622.1" y="-677.33" font-family="Times,serif" font-size="14.00">bonsu</text>
</a>
</g>
</g>
<!-- h5py&#45;&gt;bonsu -->
<g id="edge22" class="edge">
<title>h5py&#45;&gt;bonsu</title>
<path fill="none" stroke="black" d="M1001.14,-1039.26C902.31,-1034.12 632.17,-1017.47 606.1,-988 588.05,-967.59 609.32,-783.22 618.39,-711.43"/>
<polygon fill="black" stroke="black" points="621.84,-712.02 619.64,-701.66 614.9,-711.13 621.84,-712.02"/>
</g>
<!-- proteus -->
<g id="node23" class="node">
<title>proteus</title>
<g id="a_node23"><a xlink:href="https://github.com/conda-forge/proteus-feedstock" xlink:title="proteus">
<ellipse fill="#fde725" stroke="black" cx="665.1" cy="-970" rx="49.63" ry="18"/>
<text text-anchor="middle" x="665.1" y="-965.33" font-family="Times,serif" font-size="14.00">proteus</text>
</a>
</g>
</g>
<!-- h5py&#45;&gt;proteus -->
<g id="edge23" class="edge">
<title>h5py&#45;&gt;proteus</title>
<path fill="none" stroke="black" d="M1002.73,-1036.11C945.61,-1027.75 827.7,-1009.53 729.1,-988 724.3,-986.95 719.31,-985.78 714.34,-984.55"/>
<polygon fill="black" stroke="black" points="715.57,-981.25 705.02,-982.18 713.85,-988.04 715.57,-981.25"/>
</g>
<!-- hdf5plugin -->
<g id="node24" class="node">
<title>hdf5plugin</title>
<g id="a_node24"><a xlink:href="https://github.com/conda-forge/hdf5plugin-feedstock" xlink:title="hdf5plugin">
<ellipse fill="#fde725" stroke="black" cx="1245.1" cy="-898" rx="65.41" ry="18"/>
<text text-anchor="middle" x="1245.1" y="-893.33" font-family="Times,serif" font-size="14.00">hdf5plugin</text>
</a>
</g>
</g>
<!-- h5py&#45;&gt;hdf5plugin -->
<g id="edge24" class="edge">
<title>h5py&#45;&gt;hdf5plugin</title>
<path fill="none" stroke="black" d="M1068.28,-1032.58C1095.72,-1024.19 1135.9,-1009.44 1166.1,-988 1190.32,-970.81 1212.24,-944.87 1226.82,-925.42"/>
<polygon fill="black" stroke="black" points="1229.59,-927.56 1232.66,-917.42 1223.94,-923.43 1229.59,-927.56"/>
</g>
<!-- prismatic_split -->
<g id="node25" class="node">
<title>prismatic_split</title>
<g id="a_node25"><a xlink:href="https://github.com/conda-forge/prismatic_split-feedstock" xlink:title="prismatic_split">
<ellipse fill="#fde725" stroke="black" cx="509.1" cy="-826" rx="85.41" ry="18"/>
<text text-anchor="middle" x="509.1" y="-821.33" font-family="Times,serif" font-size="14.00">prismatic_split</text>
</a>
</g>
</g>
<!-- h5py&#45;&gt;prismatic_split -->
<g id="edge25" class="edge">
<title>h5py&#45;&gt;prismatic_split</title>
<path fill="none" stroke="black" d="M1001,-1041.52C903.89,-1042.2 639.99,-1039.18 573.1,-988 531.18,-955.92 516.66,-892.16 511.67,-855.23"/>
<polygon fill="black" stroke="black" points="515.2,-855.27 510.54,-845.76 508.25,-856.1 515.2,-855.27"/>
</g>
<!-- digital_rf -->
<g id="node26" class="node">
<title>digital_rf</title>
<g id="a_node26"><a xlink:href="https://github.com/conda-forge/digital_rf-feedstock" xlink:title="digital_rf">
<ellipse fill="#fde725" stroke="black" cx="396.1" cy="-754" rx="56.47" ry="18"/>
<text text-anchor="middle" x="396.1" y="-749.33" font-family="Times,serif" font-size="14.00">digital_rf</text>
</a>
</g>
</g>
<!-- h5py&#45;&gt;digital_rf -->
<g id="edge26" class="edge">
<title>h5py&#45;&gt;digital_rf</title>
<path fill="none" stroke="black" d="M1001.05,-1040.56C900.58,-1038.82 619.57,-1030.19 539.1,-988 464.31,-948.78 452.65,-919.66 415.1,-844 405.7,-825.05 400.94,-801.58 398.53,-783.5"/>
<polygon fill="black" stroke="black" points="402.03,-783.27 397.41,-773.73 395.07,-784.07 402.03,-783.27"/>
</g>
<!-- damask -->
<g id="node27" class="node">
<title>damask</title>
<g id="a_node27"><a xlink:href="https://github.com/conda-forge/damask-feedstock" xlink:title="damask">
<ellipse fill="#fde725" stroke="black" cx="1470.1" cy="-682" rx="49.63" ry="18"/>
<text text-anchor="middle" x="1470.1" y="-677.33" font-family="Times,serif" font-size="14.00">damask</text>
</a>
</g>
</g>
<!-- h5py&#45;&gt;damask -->
<g id="edge27" class="edge">
<title>h5py&#45;&gt;damask</title>
<path fill="none" stroke="black" d="M1073.2,-1040.8C1160.56,-1039.6 1380.26,-1032.15 1436.1,-988 1469.32,-961.74 1470.1,-941.34 1470.1,-899 1470.1,-899 1470.1,-899 1470.1,-825 1470.1,-785.74 1470.1,-740.38 1470.1,-711.69"/>
<polygon fill="black" stroke="black" points="1473.6,-712 1470.1,-702 1466.6,-712 1473.6,-712"/>
</g>
<!-- pp&#45;sketchlib -->
<g id="node28" class="node">
<title>pp&#45;sketchlib</title>
<g id="a_node28"><a xlink:href="https://github.com/conda-forge/pp-sketchlib-feedstock" xlink:title="pp sketchlib">
<ellipse fill="#fde725" stroke="black" cx="296.1" cy="-970" rx="72.25" ry="18"/>
<text text-anchor="middle" x="296.1" y="-965.33" font-family="Times,serif" font-size="14.00">pp sketchlib</text>
</a>
</g>
</g>
<!-- h5py&#45;&gt;pp&#45;sketchlib -->
<g id="edge28" class="edge">
<title>h5py&#45;&gt;pp&#45;sketchlib</title>
<path fill="none" stroke="black" d="M1001.09,-1039.53C901.96,-1035.19 616.87,-1020.59 382.1,-988 375,-987.01 367.59,-985.81 360.24,-984.51"/>
<polygon fill="black" stroke="black" points="361.12,-981.12 350.65,-982.75 359.85,-988 361.12,-981.12"/>
</g>
<!-- readdy -->
<g id="node29" class="node">
<title>readdy</title>
<g id="a_node29"><a xlink:href="https://github.com/conda-forge/readdy-feedstock" xlink:title="readdy">
<ellipse fill="#fde725" stroke="black" cx="1358.1" cy="-970" rx="45.95" ry="18"/>
<text text-anchor="middle" x="1358.1" y="-965.33" font-family="Times,serif" font-size="14.00">readdy</text>
</a>
</g>
</g>
<!-- h5py&#45;&gt;readdy -->
<g id="edge29" class="edge">
<title>h5py&#45;&gt;readdy</title>
<path fill="none" stroke="black" d="M1070.66,-1035.03C1120.51,-1025.96 1217,-1007.69 1298.1,-988 1302.42,-986.95 1306.89,-985.8 1311.36,-984.61"/>
<polygon fill="black" stroke="black" points="1312.19,-988.02 1320.91,-982 1310.34,-981.26 1312.19,-988.02"/>
</g>
<!-- votca -->
<g id="node30" class="node">
<title>votca</title>
<g id="a_node30"><a xlink:href="https://github.com/conda-forge/votca-feedstock" xlink:title="votca">
<ellipse fill="#fde725" stroke="black" cx="1366.1" cy="-898" rx="38.06" ry="18"/>
<text text-anchor="middle" x="1366.1" y="-893.33" font-family="Times,serif" font-size="14.00">votca</text>
</a>
</g>
</g>
<!-- h5py&#45;&gt;votca -->
<g id="edge30" class="edge">
<title>h5py&#45;&gt;votca</title>
<path fill="none" stroke="black" d="M1068.35,-1032.63C1101.61,-1023.32 1155.49,-1007.03 1200.1,-988 1248.21,-967.47 1301.01,-937.85 1333.85,-918.52"/>
<polygon fill="black" stroke="black" points="1335.26,-921.75 1342.08,-913.64 1331.69,-915.73 1335.26,-921.75"/>
</g>
<!-- dxtbx -->
<g id="node31" class="node">
<title>dxtbx</title>
<g id="a_node31"><a xlink:href="https://github.com/conda-forge/dxtbx-feedstock" xlink:title="dxtbx">
<ellipse fill="#fde725" stroke="black" cx="1121.1" cy="-826" rx="39.63" ry="18"/>
<text text-anchor="middle" x="1121.1" y="-821.33" font-family="Times,serif" font-size="14.00">dxtbx</text>
</a>
</g>
</g>
<!-- h5py&#45;&gt;dxtbx -->
<g id="edge31" class="edge">
<title>h5py&#45;&gt;dxtbx</title>
<path fill="none" stroke="black" d="M1006.88,-1031.83C938.21,-1009.53 780.7,-949.16 838.1,-880 852.89,-862.19 994.45,-842.4 1071.58,-832.83"/>
<polygon fill="black" stroke="black" points="1071.92,-836.31 1081.42,-831.62 1071.07,-829.36 1071.92,-836.31"/>
</g>
<!-- paraprobe -->
<g id="node32" class="node">
<title>paraprobe</title>
<g id="a_node32"><a xlink:href="https://github.com/conda-forge/paraprobe-feedstock" xlink:title="paraprobe">
<ellipse fill="#fde725" stroke="black" cx="1379.1" cy="-826" rx="62.78" ry="18"/>
<text text-anchor="middle" x="1379.1" y="-821.33" font-family="Times,serif" font-size="14.00">paraprobe</text>
</a>
</g>
</g>
<!-- h5py&#45;&gt;paraprobe -->
<g id="edge32" class="edge">
<title>h5py&#45;&gt;paraprobe</title>
<path fill="none" stroke="black" d="M1073.45,-1041.62C1159.02,-1042.23 1369.27,-1038.45 1413.1,-988 1444.59,-951.77 1426.61,-926.06 1413.1,-880 1410.35,-870.6 1405.36,-861.29 1400.04,-853.16"/>
<polygon fill="black" stroke="black" points="1403,-851.29 1394.38,-845.13 1397.28,-855.32 1403,-851.29"/>
</g>
<!-- pixsfm -->
<g id="node33" class="node">
<title>pixsfm</title>
<g id="a_node33"><a xlink:href="https://github.com/conda-forge/pixsfm-feedstock" xlink:title="pixsfm">
<ellipse fill="#fde725" stroke="black" cx="161.1" cy="-970" rx="44.9" ry="18"/>
<text text-anchor="middle" x="161.1" y="-965.33" font-family="Times,serif" font-size="14.00">pixsfm</text>
</a>
</g>
</g>
<!-- h5py&#45;&gt;pixsfm -->
<g id="edge33" class="edge">
<title>h5py&#45;&gt;pixsfm</title>
<path fill="none" stroke="black" d="M1001.15,-1039.83C863.41,-1035.18 369.38,-1016.82 215.1,-988 211.73,-987.37 208.28,-986.6 204.83,-985.73"/>
<polygon fill="black" stroke="black" points="205.94,-982.41 195.37,-983.11 204.07,-989.15 205.94,-982.41"/>
</g>
<!-- pyne -->
<g id="node34" class="node">
<title>pyne</title>
<g id="a_node34"><a xlink:href="https://github.com/conda-forge/pyne-feedstock" xlink:title="pyne">
<ellipse fill="#fde725" stroke="black" cx="1548.1" cy="-898" rx="35.42" ry="18"/>
<text text-anchor="middle" x="1548.1" y="-893.33" font-family="Times,serif" font-size="14.00">pyne</text>
</a>
</g>
</g>
<!-- openmc&#45;&gt;pyne -->
<g id="edge34" class="edge">
<title>openmc&#45;&gt;pyne</title>
<path fill="none" stroke="black" d="M1548.1,-951.7C1548.1,-944.41 1548.1,-935.73 1548.1,-927.54"/>
<polygon fill="black" stroke="black" points="1551.6,-927.62 1548.1,-917.62 1544.6,-927.62 1551.6,-927.62"/>
</g>
<!-- h5utils&#45;&gt;pymeep -->
<g id="edge35" class="edge">
<title>h5utils&#45;&gt;pymeep</title>
<path fill="none" stroke="black" d="M1111.1,-951.7C1111.1,-944.41 1111.1,-935.73 1111.1,-927.54"/>
<polygon fill="black" stroke="black" points="1114.6,-927.62 1111.1,-917.62 1107.6,-927.62 1114.6,-927.62"/>
</g>
<!-- hdf5plugin&#45;&gt;dxtbx -->
<g id="edge36" class="edge">
<title>hdf5plugin&#45;&gt;dxtbx</title>
<path fill="none" stroke="black" d="M1217.28,-881.29C1198.88,-870.9 1174.64,-857.22 1155.1,-846.19"/>
<polygon fill="black" stroke="black" points="1156.82,-843.15 1146.39,-841.28 1153.38,-849.24 1156.82,-843.15"/>
</g>
<!-- lammps -->
<g id="node44" class="node">
<title>lammps</title>
<g id="a_node44"><a xlink:href="https://github.com/conda-forge/lammps-feedstock" xlink:title="lammps">
<ellipse fill="#ff8c00" stroke="black" cx="2409.12" cy="-898" rx="50.68" ry="18"/>
<text text-anchor="middle" x="2409.12" y="-893.33" font-family="Times,serif" font-size="14.00">lammps</text>
</a>
</g>
</g>
<!-- siesta&#45;&gt;lammps -->
<!-- kealib -->
<g id="node36" class="node">
<title>kealib</title>
<g id="a_node36"><a xlink:href="https://github.com/conda-forge/kealib-feedstock/pull/65" xlink:title="kealib ❎">
<ellipse fill="#31688e" stroke="black" cx="1941.1" cy="-1114" rx="56.47" ry="18"/>
<text text-anchor="middle" x="1941.1" y="-1109.33" font-family="Times,serif" font-size="14.00" fill="white">kealib ❎</text>
</a>
</g>
</g>
<!-- kealib&#45;&gt;gdal -->
<g id="edge38" class="edge">
<title>kealib&#45;&gt;gdal</title>
<path fill="none" stroke="black" d="M1954.66,-1096.05C1961.46,-1087.56 1969.82,-1077.11 1977.32,-1067.73"/>
<polygon fill="black" stroke="black" points="1979.98,-1070.01 1983.49,-1060.01 1974.51,-1065.63 1979.98,-1070.01"/>
</g>
<!-- kealib&#45;&gt;rsgislib -->
<g id="edge39" class="edge">
<title>kealib&#45;&gt;rsgislib</title>
<path fill="none" stroke="black" d="M1930.01,-1095.87C1914.1,-1071.33 1884.7,-1025.94 1866.06,-997.17"/>
<polygon fill="black" stroke="black" points="1869.15,-995.51 1860.78,-989.02 1863.28,-999.31 1869.15,-995.51"/>
</g>
<!-- libitk -->
<g id="node37" class="node">
<title>libitk</title>
<g id="a_node37"><a xlink:href="https://github.com/conda-forge/libitk-feedstock/pull/99" xlink:title="libitk ❎">
<ellipse fill="#31688e" stroke="black" cx="2409.12" cy="-90" rx="52.26" ry="18"/>
<text text-anchor="middle" x="2409.12" y="-85.33" font-family="Times,serif" font-size="14.00" fill="white">libitk ❎</text>
</a>
</g>
</g>
<!-- stir -->
<g id="node38" class="node">
<title>stir</title>
<g id="a_node38"><a xlink:href="https://github.com/conda-forge/stir-feedstock" xlink:title="stir">
<ellipse fill="#fde725" stroke="black" cx="2409.12" cy="-18" rx="28.59" ry="18"/>
<text text-anchor="middle" x="2409.12" y="-13.32" font-family="Times,serif" font-size="14.00">stir</text>
</a>
</g>
</g>
<!-- libitk&#45;&gt;stir -->
<g id="edge40" class="edge">
<title>libitk&#45;&gt;stir</title>
<path fill="none" stroke="black" d="M2409.12,-71.7C2409.12,-64.41 2409.12,-55.73 2409.12,-47.54"/>
<polygon fill="black" stroke="black" points="2412.62,-47.62 2409.12,-37.62 2405.62,-47.62 2412.62,-47.62"/>
</g>
<!-- libmatio -->
<g id="node39" class="node">
<title>libmatio</title>
<g id="a_node39"><a xlink:href="https://github.com/conda-forge/libmatio-feedstock/pull/53" xlink:title="libmatio ✓">
<ellipse fill="#31688e" stroke="black" cx="1131.13" cy="-458" rx="60.15" ry="18"/>
<text text-anchor="middle" x="1131.13" y="-453.32" font-family="Times,serif" font-size="14.00" fill="white">libmatio ✓</text>
</a>
</g>
</g>
<!-- pytrilinos -->
<g id="node40" class="node">
<title>pytrilinos</title>
<g id="a_node40"><a xlink:href="https://github.com/conda-forge/pytrilinos-feedstock" xlink:title="pytrilinos">
<ellipse fill="#fde725" stroke="black" cx="1016.13" cy="-386" rx="59.1" ry="18"/>
<text text-anchor="middle" x="1016.13" y="-381.32" font-family="Times,serif" font-size="14.00">pytrilinos</text>
</a>
</g>
</g>
<!-- libmatio&#45;&gt;pytrilinos -->
<g id="edge41" class="edge">
<title>libmatio&#45;&gt;pytrilinos</title>
<path fill="none" stroke="black" d="M1105.32,-441.29C1089.49,-431.65 1069,-419.18 1051.65,-408.62"/>
<polygon fill="black" stroke="black" points="1053.51,-405.65 1043.15,-403.44 1049.87,-411.63 1053.51,-405.65"/>
</g>
<!-- trilinos -->
<g id="node41" class="node">
<title>trilinos</title>
<g id="a_node41"><a xlink:href="https://github.com/conda-forge/trilinos-feedstock" xlink:title="trilinos">
<ellipse fill="#fde725" stroke="black" cx="1084.13" cy="-314" rx="47" ry="18"/>
<text text-anchor="middle" x="1084.13" y="-309.32" font-family="Times,serif" font-size="14.00">trilinos</text>
</a>
</g>
</g>
<!-- libmatio&#45;&gt;trilinos -->
<g id="edge42" class="edge">
<title>libmatio&#45;&gt;trilinos</title>
<path fill="none" stroke="black" d="M1125.37,-439.59C1117.4,-415.5 1102.92,-371.75 1093.41,-343.03"/>
<polygon fill="black" stroke="black" points="1096.73,-341.94 1090.27,-333.55 1090.09,-344.14 1096.73,-341.94"/>
</g>
<!-- openmeeg -->
<g id="node42" class="node">
<title>openmeeg</title>
<g id="a_node42"><a xlink:href="https://github.com/conda-forge/openmeeg-feedstock" xlink:title="openmeeg">
<ellipse fill="#fde725" stroke="black" cx="1159.13" cy="-242" rx="62.78" ry="18"/>
<text text-anchor="middle" x="1159.13" y="-237.32" font-family="Times,serif" font-size="14.00">openmeeg</text>
</a>
</g>
</g>
<!-- libmatio&#45;&gt;openmeeg -->
<g id="edge43" class="edge">
<title>libmatio&#45;&gt;openmeeg</title>
<path fill="none" stroke="black" d="M1133.37,-439.85C1138.18,-403.14 1149.49,-316.66 1155.4,-271.53"/>
<polygon fill="black" stroke="black" points="1158.85,-272.1 1156.68,-261.73 1151.91,-271.19 1158.85,-272.1"/>
</g>
<!-- scilab -->
<g id="node43" class="node">
<title>scilab</title>
<g id="a_node43"><a xlink:href="https://github.com/conda-forge/scilab-feedstock" xlink:title="scilab">
<ellipse fill="#fde725" stroke="black" cx="1250.13" cy="-170" rx="40.16" ry="18"/>
<text text-anchor="middle" x="1250.13" y="-165.32" font-family="Times,serif" font-size="14.00">scilab</text>
</a>
</g>
</g>
<!-- libmatio&#45;&gt;scilab -->
<g id="edge44" class="edge">
<title>libmatio&#45;&gt;scilab</title>
<path fill="none" stroke="black" d="M1141.68,-440.02C1161.91,-406.72 1206.38,-329.97 1231.13,-260 1238.07,-240.39 1242.89,-217.42 1245.95,-199.73"/>
<polygon fill="black" stroke="black" points="1249.39,-200.35 1247.54,-189.92 1242.48,-199.23 1249.39,-200.35"/>
</g>
<!-- freecad -->
<g id="node47" class="node">
<title>freecad</title>
<g id="a_node47"><a xlink:href="https://github.com/conda-forge/freecad-feedstock" xlink:title="freecad">
<ellipse fill="#ff8c00" stroke="black" cx="2409.12" cy="-826" rx="48.58" ry="18"/>
<text text-anchor="middle" x="2409.12" y="-821.33" font-family="Times,serif" font-size="14.00">freecad</text>
</a>
</g>
</g>
<!-- lammps&#45;&gt;freecad -->
<!-- libmed -->
<g id="node45" class="node">
<title>libmed</title>
<g id="a_node45"><a xlink:href="https://github.com/conda-forge/libmed-feedstock/pull/69" xlink:title="libmed ❎">
<ellipse fill="#31688e" stroke="black" cx="1123.66" cy="-90" rx="60.68" ry="18"/>
<text text-anchor="middle" x="1123.66" y="-85.33" font-family="Times,serif" font-size="14.00" fill="white">libmed ❎</text>
</a>
</g>
</g>
<!-- medcoupling -->
<g id="node46" class="node">
<title>medcoupling</title>
<g id="a_node46"><a xlink:href="https://github.com/conda-forge/medcoupling-feedstock" xlink:title="medcoupling">
<ellipse fill="#fde725" stroke="black" cx="1123.66" cy="-18" rx="75.41" ry="18"/>
<text text-anchor="middle" x="1123.66" y="-13.32" font-family="Times,serif" font-size="14.00">medcoupling</text>
</a>
</g>
</g>
<!-- libmed&#45;&gt;medcoupling -->
<g id="edge46" class="edge">
<title>libmed&#45;&gt;medcoupling</title>
<path fill="none" stroke="black" d="M1123.66,-71.7C1123.66,-64.41 1123.66,-55.73 1123.66,-47.54"/>
<polygon fill="black" stroke="black" points="1127.16,-47.62 1123.66,-37.62 1120.16,-47.62 1127.16,-47.62"/>
</g>
<!-- esys&#45;escript -->
<g id="node48" class="node">
<title>esys&#45;escript</title>
<g id="a_node48"><a xlink:href="https://github.com/conda-forge/esys-escript-feedstock/pull/76" xlink:title="esys escript ❎">
<ellipse fill="#31688e" stroke="black" cx="2409.12" cy="-754" rx="86.46" ry="18"/>
<text text-anchor="middle" x="2409.12" y="-749.33" font-family="Times,serif" font-size="14.00" fill="white">esys escript ❎</text>
</a>
</g>
</g>
<!-- freecad&#45;&gt;esys&#45;escript -->
<!-- dakota -->
<g id="node51" class="node">
<title>dakota</title>
<g id="a_node51"><a xlink:href="https://github.com/conda-forge/dakota-feedstock/pull/52" xlink:title="dakota ❎">
<ellipse fill="#31688e" stroke="black" cx="2409.12" cy="-682" rx="60.15" ry="18"/>
<text text-anchor="middle" x="2409.12" y="-677.33" font-family="Times,serif" font-size="14.00" fill="white">dakota ❎</text>
</a>
</g>
</g>
<!-- esys&#45;escript&#45;&gt;dakota -->
<!-- highfive -->
<g id="node49" class="node">
<title>highfive</title>
<g id="a_node49"><a xlink:href="https://github.com/conda-forge/highfive-feedstock/pull/44" xlink:title="highfive ✓">
<ellipse fill="#31688e" stroke="black" cx="161.1" cy="-1042" rx="59.1" ry="18"/>
<text text-anchor="middle" x="161.1" y="-1037.33" font-family="Times,serif" font-size="14.00" fill="white">highfive ✓</text>
</a>
</g>
</g>
<!-- highfive&#45;&gt;pp&#45;sketchlib -->
<g id="edge49" class="edge">
<title>highfive&#45;&gt;pp&#45;sketchlib</title>
<path fill="none" stroke="black" d="M190.06,-1025.98C209.24,-1016.04 234.66,-1002.86 255.8,-991.9"/>
<polygon fill="black" stroke="black" points="257.18,-995.13 264.44,-987.42 253.95,-988.91 257.18,-995.13"/>
</g>
<!-- highfive&#45;&gt;pixsfm -->
<g id="edge50" class="edge">
<title>highfive&#45;&gt;pixsfm</title>
<path fill="none" stroke="black" d="M161.1,-1023.7C161.1,-1016.41 161.1,-1007.73 161.1,-999.54"/>
<polygon fill="black" stroke="black" points="164.6,-999.62 161.1,-989.62 157.6,-999.62 164.6,-999.62"/>
</g>
<!-- cantera -->
<g id="node50" class="node">
<title>cantera</title>
<g id="a_node50"><a xlink:href="https://github.com/conda-forge/cantera-feedstock" xlink:title="cantera">
<ellipse fill="#fde725" stroke="black" cx="49.1" cy="-970" rx="49.1" ry="18"/>
<text text-anchor="middle" x="49.1" y="-965.33" font-family="Times,serif" font-size="14.00">cantera</text>
</a>
</g>
</g>
<!-- highfive&#45;&gt;cantera -->
<g id="edge51" class="edge">
<title>highfive&#45;&gt;cantera</title>
<path fill="none" stroke="black" d="M135.97,-1025.29C120.23,-1015.45 99.75,-1002.65 82.63,-991.96"/>
<polygon fill="black" stroke="black" points="84.62,-989.07 74.29,-986.74 80.91,-995.01 84.62,-989.07"/>
</g>
<!-- hdf5&#45;external&#45;filter&#45;plugins -->
<g id="node52" class="node">
<title>hdf5&#45;external&#45;filter&#45;plugins</title>
<g id="a_node52"><a xlink:href="https://github.com/conda-forge/hdf5-external-filter-plugins-feedstock/pull/23" xlink:title="hdf5 external filter plugins ✓">
<ellipse fill="#31688e" stroke="black" cx="2409.12" cy="-610" rx="153.8" ry="18"/>
<text text-anchor="middle" x="2409.12" y="-605.33" font-family="Times,serif" font-size="14.00" fill="white">hdf5 external filter plugins ✓</text>
</a>
</g>
</g>
<!-- dakota&#45;&gt;hdf5&#45;external&#45;filter&#45;plugins -->
<!-- ecell4_base -->
<g id="node56" class="node">
<title>ecell4_base</title>
<g id="a_node56"><a xlink:href="https://github.com/conda-forge/ecell4_base-feedstock/pull/32" xlink:title="ecell4_base ❎">
<ellipse fill="#31688e" stroke="black" cx="2409.12" cy="-538" rx="83.83" ry="18"/>
<text text-anchor="middle" x="2409.12" y="-533.33" font-family="Times,serif" font-size="14.00" fill="white">ecell4_base ❎</text>
</a>
</g>
</g>
<!-- hdf5&#45;external&#45;filter&#45;plugins&#45;&gt;ecell4_base -->
<!-- triqs -->
<g id="node53" class="node">
<title>triqs</title>
<g id="a_node53"><a xlink:href="https://github.com/conda-forge/triqs-feedstock/pull/72" xlink:title="triqs ❎">
<ellipse fill="#31688e" stroke="black" cx="2686.44" cy="-386" rx="50.16" ry="18"/>
<text text-anchor="middle" x="2686.44" y="-381.32" font-family="Times,serif" font-size="14.00" fill="white">triqs ❎</text>
</a>
</g>
</g>
<!-- triqs_cthyb -->
<g id="node54" class="node">
<title>triqs_cthyb</title>
<g id="a_node54"><a xlink:href="https://github.com/conda-forge/triqs_cthyb-feedstock" xlink:title="triqs_cthyb">
<ellipse fill="#fde725" stroke="black" cx="2638.44" cy="-314" rx="67.52" ry="18"/>
<text text-anchor="middle" x="2638.44" y="-309.32" font-family="Times,serif" font-size="14.00">triqs_cthyb</text>
</a>
</g>
</g>
<!-- triqs&#45;&gt;triqs_cthyb -->
<g id="edge54" class="edge">
<title>triqs&#45;&gt;triqs_cthyb</title>
<path fill="none" stroke="black" d="M2674.82,-368.05C2669.28,-359.97 2662.52,-350.12 2656.34,-341.11"/>
<polygon fill="black" stroke="black" points="2659.35,-339.31 2650.81,-333.04 2653.57,-343.26 2659.35,-339.31"/>
</g>
<!-- triqs_ctseg -->
<g id="node55" class="node">
<title>triqs_ctseg</title>
<g id="a_node55"><a xlink:href="https://github.com/conda-forge/triqs_ctseg-feedstock" xlink:title="triqs_ctseg">
<ellipse fill="#fde725" stroke="black" cx="2734.44" cy="-242" rx="66.47" ry="18"/>
<text text-anchor="middle" x="2734.44" y="-237.32" font-family="Times,serif" font-size="14.00">triqs_ctseg</text>
</a>
</g>
</g>
<!-- triqs&#45;&gt;triqs_ctseg -->
<g id="edge55" class="edge">
<title>triqs&#45;&gt;triqs_ctseg</title>
<path fill="none" stroke="black" d="M2697.15,-368.41C2703.29,-358.25 2710.69,-344.78 2715.44,-332 2722.68,-312.5 2727.49,-289.53 2730.47,-271.8"/>
<polygon fill="black" stroke="black" points="2733.92,-272.4 2732,-261.98 2727,-271.32 2733.92,-272.4"/>
</g>
<!-- gwollum -->
<g id="node57" class="node">
<title>gwollum</title>
<g id="a_node57"><a xlink:href="https://github.com/conda-forge/gwollum-feedstock" xlink:title="gwollum">
<ellipse fill="#ff8c00" stroke="black" cx="2685.91" cy="-1258" rx="53.84" ry="18"/>
<text text-anchor="middle" x="2685.91" y="-1253.33" font-family="Times,serif" font-size="14.00">gwollum</text>
</a>
</g>
</g>
<!-- conduit -->
<g id="node58" class="node">
<title>conduit</title>
<g id="a_node58"><a xlink:href="https://github.com/conda-forge/conduit-feedstock/pull/47" xlink:title="conduit ✓">
<ellipse fill="#31688e" stroke="black" cx="2685.91" cy="-1186" rx="56.47" ry="18"/>
<text text-anchor="middle" x="2685.91" y="-1181.33" font-family="Times,serif" font-size="14.00" fill="white">conduit ✓</text>
</a>
</g>
</g>
<!-- gwollum&#45;&gt;conduit -->
<!-- nccmp -->
<g id="node59" class="node">
<title>nccmp</title>
<g id="a_node59"><a xlink:href="https://github.com/conda-forge/nccmp-feedstock/pull/20" xlink:title="nccmp ✓">
<ellipse fill="#31688e" stroke="black" cx="2685.91" cy="-1114" rx="51.74" ry="18"/>
<text text-anchor="middle" x="2685.91" y="-1109.33" font-family="Times,serif" font-size="14.00" fill="white">nccmp ✓</text>
</a>
</g>
</g>
<!-- conduit&#45;&gt;nccmp -->
<!-- mbsolve -->
<g id="node61" class="node">
<title>mbsolve</title>
<g id="a_node61"><a xlink:href="https://github.com/conda-forge/mbsolve-feedstock/pull/19" xlink:title="mbsolve ❎">
<ellipse fill="#31688e" stroke="black" cx="2685.91" cy="-1042" rx="68.04" ry="18"/>
<text text-anchor="middle" x="2685.91" y="-1037.33" font-family="Times,serif" font-size="14.00" fill="white">mbsolve ❎</text>
</a>
</g>
</g>
<!-- nccmp&#45;&gt;mbsolve -->
<!-- dagmc -->
<g id="node60" class="node">
<title>dagmc</title>
<g id="a_node60"><a xlink:href="https://github.com/conda-forge/dagmc-feedstock" xlink:title="dagmc">
<ellipse fill="#ff8c00" stroke="black" cx="1548.1" cy="-1042" rx="44.37" ry="18"/>
<text text-anchor="middle" x="1548.1" y="-1037.33" font-family="Times,serif" font-size="14.00">dagmc</text>
</a>
</g>
</g>
<!-- dagmc&#45;&gt;openmc -->
<g id="edge59" class="edge">
<title>dagmc&#45;&gt;openmc</title>
<path fill="none" stroke="black" d="M1548.1,-1023.7C1548.1,-1016.41 1548.1,-1007.73 1548.1,-999.54"/>
<polygon fill="black" stroke="black" points="1551.6,-999.62 1548.1,-989.62 1544.6,-999.62 1551.6,-999.62"/>
</g>
<!-- abinit -->
<g id="node62" class="node">
<title>abinit</title>
<g id="a_node62"><a xlink:href="https://github.com/conda-forge/abinit-feedstock/pull/61" xlink:title="abinit ❎">
<ellipse fill="#31688e" stroke="black" cx="2685.91" cy="-970" rx="55.42" ry="18"/>
<text text-anchor="middle" x="2685.91" y="-965.33" font-family="Times,serif" font-size="14.00" fill="white">abinit ❎</text>
</a>
</g>
</g>
<!-- mbsolve&#45;&gt;abinit -->
<!-- fates&#45;emerald -->
<g id="node63" class="node">
<title>fates&#45;emerald</title>
<g id="a_node63"><a xlink:href="https://github.com/conda-forge/fates-emerald-feedstock/pull/20" xlink:title="fates emerald ❎">
<ellipse fill="#31688e" stroke="black" cx="2685.91" cy="-898" rx="95.4" ry="18"/>
<text text-anchor="middle" x="2685.91" y="-893.33" font-family="Times,serif" font-size="14.00" fill="white">fates emerald ❎</text>
</a>
</g>
</g>
<!-- abinit&#45;&gt;fates&#45;emerald -->
<!-- tomviz -->
<g id="node65" class="node">
<title>tomviz</title>
<g id="a_node65"><a xlink:href="https://github.com/conda-forge/tomviz-feedstock" xlink:title="tomviz">
<ellipse fill="#ff8c00" stroke="black" cx="2685.91" cy="-826" rx="44.9" ry="18"/>
<text text-anchor="middle" x="2685.91" y="-821.33" font-family="Times,serif" font-size="14.00">tomviz</text>
</a>
</g>
</g>
<!-- fates&#45;emerald&#45;&gt;tomviz -->
<!-- pyre -->
<g id="node64" class="node">
<title>pyre</title>
<g id="a_node64"><a xlink:href="https://github.com/conda-forge/pyre-feedstock/pull/42" xlink:title="pyre ✓">
<ellipse fill="#31688e" stroke="black" cx="1653.1" cy="-1042" rx="41.74" ry="18"/>
<text text-anchor="middle" x="1653.1" y="-1037.33" font-family="Times,serif" font-size="14.00" fill="white">pyre ✓</text>
</a>
</g>
</g>
<!-- pyre&#45;&gt;isce3 -->
<g id="edge63" class="edge">
<title>pyre&#45;&gt;isce3</title>
<path fill="none" stroke="black" d="M1653.1,-1023.7C1653.1,-1016.41 1653.1,-1007.73 1653.1,-999.54"/>
<polygon fill="black" stroke="black" points="1656.6,-999.62 1653.1,-989.62 1649.6,-999.62 1656.6,-999.62"/>
</g>
<!-- sirius -->
<g id="node66" class="node">
<title>sirius</title>
<g id="a_node66"><a xlink:href="https://github.com/conda-forge/sirius-feedstock/pull/33" xlink:title="sirius ❎">
<ellipse fill="#31688e" stroke="black" cx="2685.91" cy="-754" rx="54.36" ry="18"/>
<text text-anchor="middle" x="2685.91" y="-749.33" font-family="Times,serif" font-size="14.00" fill="white">sirius ❎</text>
</a>
</g>
</g>
<!-- tomviz&#45;&gt;sirius -->
<!-- bmad -->
<g id="node67" class="node">
<title>bmad</title>
<g id="a_node67"><a xlink:href="https://github.com/conda-forge/bmad-feedstock/pull/467" xlink:title="bmad ✓">
<ellipse fill="#31688e" stroke="black" cx="2685.91" cy="-682" rx="47" ry="18"/>
<text text-anchor="middle" x="2685.91" y="-677.33" font-family="Times,serif" font-size="14.00" fill="white">bmad ✓</text>
</a>
</g>
</g>
<!-- sirius&#45;&gt;bmad -->
<!-- yambo -->
<g id="node68" class="node">
<title>yambo</title>
<g id="a_node68"><a xlink:href="https://github.com/conda-forge/yambo-feedstock/pull/33" xlink:title="yambo ✓">
<ellipse fill="#31688e" stroke="black" cx="2685.91" cy="-610" rx="52.26" ry="18"/>
<text text-anchor="middle" x="2685.91" y="-605.33" font-family="Times,serif" font-size="14.00" fill="white">yambo ✓</text>
</a>
</g>
</g>
<!-- bmad&#45;&gt;yambo -->
<!-- cadet -->
<g id="node69" class="node">
<title>cadet</title>
<g id="a_node69"><a xlink:href="https://github.com/conda-forge/cadet-feedstock/pull/15" xlink:title="cadet ❎">
<ellipse fill="#31688e" stroke="black" cx="2685.91" cy="-538" rx="53.84" ry="18"/>
<text text-anchor="middle" x="2685.91" y="-533.33" font-family="Times,serif" font-size="14.00" fill="white">cadet ❎</text>
</a>
</g>
</g>
<!-- yambo&#45;&gt;cadet -->
<!-- fleur -->
<g id="node70" class="node">
<title>fleur</title>
<g id="a_node70"><a xlink:href="https://github.com/conda-forge/fleur-feedstock/pull/21" xlink:title="fleur ✓">
<ellipse fill="#31688e" stroke="black" cx="2409.12" cy="-494" rx="42.26" ry="18"/>
<text text-anchor="middle" x="2409.12" y="-489.32" font-family="Times,serif" font-size="14.00" fill="white">fleur ✓</text>
</a>
</g>
</g>
<!-- fenics&#45;dolfinx -->
<g id="node71" class="node">
<title>fenics&#45;dolfinx</title>
<g id="a_node71"><a xlink:href="https://github.com/conda-forge/fenics-dolfinx-feedstock" xlink:title="fenics dolfinx">
<ellipse fill="#ff8c00" stroke="black" cx="2409.12" cy="-422" rx="77.52" ry="18"/>
<text text-anchor="middle" x="2409.12" y="-417.32" font-family="Times,serif" font-size="14.00">fenics dolfinx</text>
</a>
</g>
</g>
<!-- fleur&#45;&gt;fenics&#45;dolfinx -->
<!-- freefem -->
<g id="node72" class="node">
<title>freefem</title>
<g id="a_node72"><a xlink:href="https://github.com/conda-forge/freefem-feedstock" xlink:title="freefem">
<ellipse fill="#ff8c00" stroke="black" cx="2409.12" cy="-350" rx="50.16" ry="18"/>
<text text-anchor="middle" x="2409.12" y="-345.32" font-family="Times,serif" font-size="14.00">freefem</text>
</a>
</g>
</g>
<!-- fenics&#45;dolfinx&#45;&gt;freefem -->
<!-- fortnet -->
<g id="node73" class="node">
<title>fortnet</title>
<g id="a_node73"><a xlink:href="https://github.com/conda-forge/fortnet-feedstock/pull/8" xlink:title="fortnet ❎">
<ellipse fill="#31688e" stroke="black" cx="2409.12" cy="-278" rx="61.2" ry="18"/>
<text text-anchor="middle" x="2409.12" y="-273.32" font-family="Times,serif" font-size="14.00" fill="white">fortnet ❎</text>
</a>
</g>
</g>
<!-- freefem&#45;&gt;fortnet -->
<!-- cascade -->
<g id="node74" class="node">
<title>cascade</title>
<g id="a_node74"><a xlink:href="https://github.com/conda-forge/cascade-feedstock/pull/25" xlink:title="cascade ❎">
<ellipse fill="#31688e" stroke="black" cx="2409.12" cy="-206" rx="65.94" ry="18"/>
<text text-anchor="middle" x="2409.12" y="-201.33" font-family="Times,serif" font-size="14.00" fill="white">cascade ❎</text>
</a>
</g>
</g>
<!-- fortnet&#45;&gt;cascade -->
<!-- rockstar&#45;galaxies -->
<g id="node75" class="node">
<title>rockstar&#45;galaxies</title>
<g id="a_node75"><a xlink:href="https://github.com/conda-forge/rockstar-galaxies-feedstock/pull/4" xlink:title="rockstar galaxies ✓">
<ellipse fill="#31688e" stroke="black" cx="2409.12" cy="-134" rx="104.87" ry="18"/>
<text text-anchor="middle" x="2409.12" y="-129.32" font-family="Times,serif" font-size="14.00" fill="white">rockstar galaxies ✓</text>
</a>
</g>
</g>
<!-- cascade&#45;&gt;rockstar&#45;galaxies -->
</g>
</svg>
