<?xml version="1.0" encoding="UTF-8" standalone="no"?>
<!DOCTYPE svg PUBLIC "-//W3C//DTD SVG 1.1//EN"
 "http://www.w3.org/Graphics/SVG/1.1/DTD/svg11.dtd">
<!-- Generated by graphviz version 12.0.0 (20240803.0821)
 -->
<!-- Pages: 1 -->
<svg width="2806pt" height="1312pt"
 viewBox="0.00 0.00 2806.40 1312.00" xmlns="http://www.w3.org/2000/svg" xmlns:xlink="http://www.w3.org/1999/xlink">
<g id="graph0" class="graph" transform="scale(1 1) rotate(0) translate(4 1308)">
<polygon fill="white" stroke="none" points="-4,4 -4,-1308 2802.4,-1308 2802.4,4 -4,4"/>
<!-- cyclus -->
<g id="node1" class="node">
<title>cyclus</title>
<g id="a_node1"><a xlink:href="https://github.com/conda-forge/cyclus-feedstock" xlink:title="cyclus">
<ellipse fill="#ff8c00" stroke="black" cx="2696.68" cy="-1286" rx="42.26" ry="18"/>
<text text-anchor="middle" x="2696.68" y="-1281.33" font-family="Times,serif" font-size="14.00">cyclus</text>
</a>
</g>
</g>
<!-- graph -->
<g id="node2" class="node">
<title>graph</title>
<g id="a_node2"><a xlink:href="https://github.com/conda-forge/graph-feedstock/pull/12" xlink:title="graph ✓">
<ellipse fill="#31688e" stroke="black" cx="2696.68" cy="-1214" rx="48.58" ry="18"/>
<text text-anchor="middle" x="2696.68" y="-1209.33" font-family="Times,serif" font-size="14.00" fill="white">graph ✓</text>
</a>
</g>
</g>
<!-- cyclus&#45;&gt;graph -->
<!-- hyperion&#45;fortran -->
<g id="node15" class="node">
<title>hyperion&#45;fortran</title>
<g id="a_node15"><a xlink:href="https://github.com/conda-forge/hyperion-fortran-feedstock/pull/32" xlink:title="hyperion fortran ✓">
<ellipse fill="#31688e" stroke="black" cx="2696.68" cy="-1142" rx="101.71" ry="18"/>
<text text-anchor="middle" x="2696.68" y="-1137.33" font-family="Times,serif" font-size="14.00" fill="white">hyperion fortran ✓</text>
</a>
</g>
</g>
<!-- graph&#45;&gt;hyperion&#45;fortran -->
<!-- fenics -->
<g id="node3" class="node">
<title>fenics</title>
<g id="a_node3"><a xlink:href="https://github.com/conda-forge/fenics-feedstock" xlink:title="fenics">
<ellipse fill="#fde725" stroke="black" cx="113.37" cy="-998" rx="40.69" ry="18"/>
<text text-anchor="middle" x="113.37" y="-993.33" font-family="Times,serif" font-size="14.00">fenics</text>
</a>
</g>
</g>
<!-- gdal -->
<g id="node4" class="node">
<title>gdal</title>
<g id="a_node4"><a xlink:href="https://github.com/conda-forge/gdal-feedstock" xlink:title="gdal">
<ellipse fill="#fde725" stroke="black" cx="1949.37" cy="-1070" rx="32.79" ry="18"/>
<text text-anchor="middle" x="1949.37" y="-1065.33" font-family="Times,serif" font-size="14.00">gdal</text>
</a>
</g>
</g>
<!-- gmt -->
<g id="node5" class="node">
<title>gmt</title>
<g id="a_node5"><a xlink:href="https://github.com/conda-forge/gmt-feedstock" xlink:title="gmt">
<ellipse fill="#fde725" stroke="black" cx="1890.37" cy="-998" rx="31.22" ry="18"/>
<text text-anchor="middle" x="1890.37" y="-993.33" font-family="Times,serif" font-size="14.00">gmt</text>
</a>
</g>
</g>
<!-- gdal&#45;&gt;gmt -->
<g id="edge2" class="edge">
<title>gdal&#45;&gt;gmt</title>
<path fill="none" stroke="black" d="M1935.98,-1053.12C1928.49,-1044.22 1918.99,-1032.95 1910.6,-1023"/>
<polygon fill="black" stroke="black" points="1913.4,-1020.89 1904.27,-1015.5 1908.04,-1025.4 1913.4,-1020.89"/>
</g>
<!-- ncl -->
<g id="node6" class="node">
<title>ncl</title>
<g id="a_node6"><a xlink:href="https://github.com/conda-forge/ncl-feedstock" xlink:title="ncl">
<ellipse fill="#fde725" stroke="black" cx="2244.37" cy="-926" rx="27" ry="18"/>
<text text-anchor="middle" x="2244.37" y="-921.33" font-family="Times,serif" font-size="14.00">ncl</text>
</a>
</g>
</g>
<!-- gdal&#45;&gt;ncl -->
<g id="edge3" class="edge">
<title>gdal&#45;&gt;ncl</title>
<path fill="none" stroke="black" d="M1981.77,-1065.87C2042.26,-1059.45 2169.36,-1043.08 2203.37,-1016 2222.28,-1000.94 2232.83,-975.18 2238.48,-955.23"/>
<polygon fill="black" stroke="black" points="2241.81,-956.31 2240.88,-945.75 2235.03,-954.58 2241.81,-956.31"/>
</g>
<!-- rsgislib -->
<g id="node7" class="node">
<title>rsgislib</title>
<g id="a_node7"><a xlink:href="https://github.com/conda-forge/rsgislib-feedstock" xlink:title="rsgislib">
<ellipse fill="#fde725" stroke="black" cx="1608.37" cy="-998" rx="48.58" ry="18"/>
<text text-anchor="middle" x="1608.37" y="-993.33" font-family="Times,serif" font-size="14.00">rsgislib</text>
</a>
</g>
</g>
<!-- gdal&#45;&gt;rsgislib -->
<g id="edge4" class="edge">
<title>gdal&#45;&gt;rsgislib</title>
<path fill="none" stroke="black" d="M1918.17,-1064.2C1865.79,-1055.92 1757.03,-1037.72 1666.37,-1016 1662.85,-1015.16 1659.22,-1014.23 1655.59,-1013.26"/>
<polygon fill="black" stroke="black" points="1656.76,-1009.96 1646.19,-1010.66 1654.89,-1016.7 1656.76,-1009.96"/>
</g>
<!-- isce2 -->
<g id="node8" class="node">
<title>isce2</title>
<g id="a_node8"><a xlink:href="https://github.com/conda-forge/isce2-feedstock" xlink:title="isce2">
<ellipse fill="#fde725" stroke="black" cx="1712.37" cy="-998" rx="37" ry="18"/>
<text text-anchor="middle" x="1712.37" y="-993.33" font-family="Times,serif" font-size="14.00">isce2</text>
</a>
</g>
</g>
<!-- gdal&#45;&gt;isce2 -->
<g id="edge5" class="edge">
<title>gdal&#45;&gt;isce2</title>
<path fill="none" stroke="black" d="M1920.02,-1061.67C1882.33,-1052.07 1815.02,-1034.29 1758.37,-1016 1756,-1015.23 1753.57,-1014.42 1751.13,-1013.58"/>
<polygon fill="black" stroke="black" points="1752.48,-1010.35 1741.89,-1010.31 1750.14,-1016.95 1752.48,-1010.35"/>
</g>
<!-- gazebo -->
<g id="node9" class="node">
<title>gazebo</title>
<g id="a_node9"><a xlink:href="https://github.com/conda-forge/gazebo-feedstock" xlink:title="gazebo">
<ellipse fill="#fde725" stroke="black" cx="2207.37" cy="-854" rx="46.47" ry="18"/>
<text text-anchor="middle" x="2207.37" y="-849.33" font-family="Times,serif" font-size="14.00">gazebo</text>
</a>
</g>
</g>
<!-- gdal&#45;&gt;gazebo -->
<g id="edge6" class="edge">
<title>gdal&#45;&gt;gazebo</title>
<path fill="none" stroke="black" d="M1982.45,-1069.02C2025.68,-1067.28 2101.29,-1057.89 2147.37,-1016 2185.64,-981.21 2199.6,-919.68 2204.61,-883.6"/>
<polygon fill="black" stroke="black" points="2208.06,-884.27 2205.81,-873.92 2201.11,-883.41 2208.06,-884.27"/>
</g>
<!-- lue -->
<g id="node10" class="node">
<title>lue</title>
<g id="a_node10"><a xlink:href="https://github.com/conda-forge/lue-feedstock" xlink:title="lue">
<ellipse fill="#fde725" stroke="black" cx="2150.37" cy="-782" rx="27" ry="18"/>
<text text-anchor="middle" x="2150.37" y="-777.33" font-family="Times,serif" font-size="14.00">lue</text>
</a>
</g>
</g>
<!-- gdal&#45;&gt;lue -->
<g id="edge7" class="edge">
<title>gdal&#45;&gt;lue</title>
<path fill="none" stroke="black" d="M1982.35,-1067.64C2019.07,-1064.27 2077.42,-1052.98 2109.37,-1016 2135.46,-985.81 2145.56,-867.22 2148.92,-811.81"/>
<polygon fill="black" stroke="black" points="2152.41,-812.09 2149.48,-801.9 2145.42,-811.69 2152.41,-812.09"/>
</g>
<!-- mdal -->
<g id="node11" class="node">
<title>mdal</title>
<g id="a_node11"><a xlink:href="https://github.com/conda-forge/mdal-feedstock" xlink:title="mdal">
<ellipse fill="#fde725" stroke="black" cx="2095.37" cy="-710" rx="35.95" ry="18"/>
<text text-anchor="middle" x="2095.37" y="-705.33" font-family="Times,serif" font-size="14.00">mdal</text>
</a>
</g>
</g>
<!-- gdal&#45;&gt;mdal -->
<g id="edge8" class="edge">
<title>gdal&#45;&gt;mdal</title>
<path fill="none" stroke="black" d="M1980.91,-1064.3C2010.07,-1058.26 2052.41,-1044.86 2076.37,-1016 2102.21,-984.88 2095.37,-967.45 2095.37,-927 2095.37,-927 2095.37,-927 2095.37,-853 2095.37,-813.74 2095.37,-768.38 2095.37,-739.69"/>
<polygon fill="black" stroke="black" points="2098.87,-740 2095.37,-730 2091.87,-740 2098.87,-740"/>
</g>
<!-- isce3 -->
<g id="node12" class="node">
<title>isce3</title>
<g id="a_node12"><a xlink:href="https://github.com/conda-forge/isce3-feedstock" xlink:title="isce3">
<ellipse fill="#fde725" stroke="black" cx="1804.37" cy="-998" rx="37" ry="18"/>
<text text-anchor="middle" x="1804.37" y="-993.33" font-family="Times,serif" font-size="14.00">isce3</text>
</a>
</g>
</g>
<!-- gdal&#45;&gt;isce3 -->
<g id="edge9" class="edge">
<title>gdal&#45;&gt;isce3</title>
<path fill="none" stroke="black" d="M1925.43,-1057.44C1902.13,-1046.2 1866.47,-1028.98 1839.87,-1016.14"/>
<polygon fill="black" stroke="black" points="1841.7,-1013.14 1831.18,-1011.94 1838.66,-1019.44 1841.7,-1013.14"/>
</g>
<!-- libpdal -->
<g id="node13" class="node">
<title>libpdal</title>
<g id="a_node13"><a xlink:href="https://github.com/conda-forge/libpdal-feedstock" xlink:title="libpdal">
<ellipse fill="#fde725" stroke="black" cx="2022.37" cy="-998" rx="45.42" ry="18"/>
<text text-anchor="middle" x="2022.37" y="-993.33" font-family="Times,serif" font-size="14.00">libpdal</text>
</a>
</g>
</g>
<!-- gdal&#45;&gt;libpdal -->
<g id="edge10" class="edge">
<title>gdal&#45;&gt;libpdal</title>
<path fill="none" stroke="black" d="M1965.21,-1053.81C1974.61,-1044.8 1986.73,-1033.18 1997.39,-1022.95"/>
<polygon fill="black" stroke="black" points="1999.66,-1025.63 2004.45,-1016.18 1994.81,-1020.58 1999.66,-1025.63"/>
</g>
<!-- pygnome -->
<g id="node14" class="node">
<title>pygnome</title>
<g id="a_node14"><a xlink:href="https://github.com/conda-forge/pygnome-feedstock" xlink:title="pygnome">
<ellipse fill="#fde725" stroke="black" cx="1949.37" cy="-926" rx="57" ry="18"/>
<text text-anchor="middle" x="1949.37" y="-921.33" font-family="Times,serif" font-size="14.00">pygnome</text>
</a>
</g>
</g>
<!-- gdal&#45;&gt;pygnome -->
<g id="edge11" class="edge">
<title>gdal&#45;&gt;pygnome</title>
<path fill="none" stroke="black" d="M1949.37,-1051.59C1949.37,-1027.61 1949.37,-984.14 1949.37,-955.42"/>
<polygon fill="black" stroke="black" points="1952.87,-955.62 1949.37,-945.62 1945.87,-955.62 1952.87,-955.62"/>
</g>
<!-- octave -->
<g id="node38" class="node">
<title>octave</title>
<g id="a_node38"><a xlink:href="https://github.com/conda-forge/octave-feedstock/pull/131" xlink:title="octave ❎">
<ellipse fill="#31688e" stroke="black" cx="2696.68" cy="-1070" rx="59.1" ry="18"/>
<text text-anchor="middle" x="2696.68" y="-1065.33" font-family="Times,serif" font-size="14.00" fill="white">octave ❎</text>
</a>
</g>
</g>
<!-- hyperion&#45;fortran&#45;&gt;octave -->
<!-- h5py -->
<g id="node16" class="node">
<title>h5py</title>
<g id="a_node16"><a xlink:href="https://github.com/conda-forge/h5py-feedstock/pull/152" xlink:title="h5py ✓">
<ellipse fill="#31688e" stroke="black" cx="965.37" cy="-1070" rx="43.84" ry="18"/>
<text text-anchor="middle" x="965.37" y="-1065.33" font-family="Times,serif" font-size="14.00" fill="white">h5py ✓</text>
</a>
</g>
</g>
<!-- h5py&#45;&gt;rsgislib -->
<g id="edge13" class="edge">
<title>h5py&#45;&gt;rsgislib</title>
<path fill="none" stroke="black" d="M1009.07,-1067.94C1106.87,-1064.95 1350.5,-1053.97 1550.37,-1016 1554.14,-1015.28 1558.02,-1014.42 1561.9,-1013.48"/>
<polygon fill="black" stroke="black" points="1562.5,-1016.94 1571.28,-1011.01 1560.72,-1010.17 1562.5,-1016.94"/>
</g>
<!-- h5py&#45;&gt;isce2 -->
<g id="edge14" class="edge">
<title>h5py&#45;&gt;isce2</title>
<path fill="none" stroke="black" d="M1009.17,-1067.28C1142.18,-1061.82 1539.97,-1043.57 1666.37,-1016 1668.97,-1015.43 1671.61,-1014.75 1674.26,-1013.99"/>
<polygon fill="black" stroke="black" points="1675.13,-1017.39 1683.57,-1010.99 1672.98,-1010.73 1675.13,-1017.39"/>
</g>
<!-- h5py&#45;&gt;isce3 -->
<g id="edge15" class="edge">
<title>h5py&#45;&gt;isce3</title>
<path fill="none" stroke="black" d="M1009.22,-1067.73C1153.64,-1063.27 1613.48,-1046.94 1758.37,-1016 1760.97,-1015.44 1763.62,-1014.77 1766.27,-1014.02"/>
<polygon fill="black" stroke="black" points="1767.13,-1017.42 1775.58,-1011.03 1764.99,-1010.75 1767.13,-1017.42"/>
</g>
<!-- openmc -->
<g id="node17" class="node">
<title>openmc</title>
<g id="a_node17"><a xlink:href="https://github.com/conda-forge/openmc-feedstock" xlink:title="openmc">
<ellipse fill="#fde725" stroke="black" cx="1491.37" cy="-998" rx="50.16" ry="18"/>
<text text-anchor="middle" x="1491.37" y="-993.33" font-family="Times,serif" font-size="14.00">openmc</text>
</a>
</g>
</g>
<!-- h5py&#45;&gt;openmc -->
<g id="edge16" class="edge">
<title>h5py&#45;&gt;openmc</title>
<path fill="none" stroke="black" d="M1008.88,-1066.5C1091.89,-1061.2 1278.33,-1046.71 1432.37,-1016 1435.98,-1015.28 1439.68,-1014.45 1443.4,-1013.54"/>
<polygon fill="black" stroke="black" points="1444.21,-1016.95 1453,-1011.04 1442.44,-1010.17 1444.21,-1016.95"/>
</g>
<!-- h5utils -->
<g id="node18" class="node">
<title>h5utils</title>
<g id="a_node18"><a xlink:href="https://github.com/conda-forge/h5utils-feedstock" xlink:title="h5utils">
<ellipse fill="#fde725" stroke="black" cx="1377.37" cy="-998" rx="45.95" ry="18"/>
<text text-anchor="middle" x="1377.37" y="-993.33" font-family="Times,serif" font-size="14.00">h5utils</text>
</a>
</g>
</g>
<!-- h5py&#45;&gt;h5utils -->
<g id="edge17" class="edge">
<title>h5py&#45;&gt;h5utils</title>
<path fill="none" stroke="black" d="M1007.4,-1064.42C1073.73,-1056.8 1206.52,-1039.95 1317.37,-1016 1321.89,-1015.02 1326.58,-1013.9 1331.25,-1012.7"/>
<polygon fill="black" stroke="black" points="1331.81,-1016.18 1340.56,-1010.21 1330,-1009.41 1331.81,-1016.18"/>
</g>
<!-- pymeep -->
<g id="node19" class="node">
<title>pymeep</title>
<g id="a_node19"><a xlink:href="https://github.com/conda-forge/pymeep-feedstock" xlink:title="pymeep">
<ellipse fill="#fde725" stroke="black" cx="1519.37" cy="-926" rx="50.68" ry="18"/>
<text text-anchor="middle" x="1519.37" y="-921.33" font-family="Times,serif" font-size="14.00">pymeep</text>
</a>
</g>
</g>
<!-- h5py&#45;&gt;pymeep -->
<g id="edge18" class="edge">
<title>h5py&#45;&gt;pymeep</title>
<path fill="none" stroke="black" d="M1009.5,-1068.39C1071.83,-1066.03 1188.01,-1056.07 1277.37,-1016 1300.74,-1005.52 1299.48,-991.48 1322.37,-980 1379.03,-951.58 1399.24,-960.78 1460.37,-944 1463.5,-943.14 1466.72,-942.24 1469.97,-941.33"/>
<polygon fill="black" stroke="black" points="1470.88,-944.71 1479.55,-938.62 1468.98,-937.98 1470.88,-944.71"/>
</g>
<!-- blosc&#45;hdf5&#45;plugin -->
<g id="node20" class="node">
<title>blosc&#45;hdf5&#45;plugin</title>
<g id="a_node20"><a xlink:href="https://github.com/conda-forge/blosc-hdf5-plugin-feedstock" xlink:title="blosc hdf5 plugin">
<ellipse fill="#fde725" stroke="black" cx="1353.37" cy="-926" rx="97.51" ry="18"/>
<text text-anchor="middle" x="1353.37" y="-921.33" font-family="Times,serif" font-size="14.00">blosc hdf5 plugin</text>
</a>
</g>
</g>
<!-- h5py&#45;&gt;blosc&#45;hdf5&#45;plugin -->
<g id="edge19" class="edge">
<title>h5py&#45;&gt;blosc&#45;hdf5&#45;plugin</title>
<path fill="none" stroke="black" d="M1008.92,-1067.04C1065.01,-1063.12 1164.44,-1051.34 1241.37,-1016 1250.68,-1011.73 1294.48,-976.01 1324.47,-951.15"/>
<polygon fill="black" stroke="black" points="1326.66,-953.88 1332.12,-944.8 1322.19,-948.5 1326.66,-953.88"/>
</g>
<!-- nest&#45;simulator -->
<g id="node21" class="node">
<title>nest&#45;simulator</title>
<g id="a_node21"><a xlink:href="https://github.com/conda-forge/nest-simulator-feedstock" xlink:title="nest simulator">
<ellipse fill="#fde725" stroke="black" cx="1301.37" cy="-854" rx="83.83" ry="18"/>
<text text-anchor="middle" x="1301.37" y="-849.33" font-family="Times,serif" font-size="14.00">nest simulator</text>
</a>
</g>
</g>
<!-- h5py&#45;&gt;nest&#45;simulator -->
<g id="edge20" class="edge">
<title>h5py&#45;&gt;nest&#45;simulator</title>
<path fill="none" stroke="black" d="M1007.17,-1064.41C1067.31,-1057.05 1174.21,-1040.84 1203.37,-1016 1242.7,-982.5 1217.57,-950.89 1246.37,-908 1253.32,-897.66 1262.57,-887.76 1271.51,-879.39"/>
<polygon fill="black" stroke="black" points="1273.67,-882.15 1278.77,-872.87 1268.99,-876.95 1273.67,-882.15"/>
</g>
<!-- bitshuffle -->
<g id="node22" class="node">
<title>bitshuffle</title>
<g id="a_node22"><a xlink:href="https://github.com/conda-forge/bitshuffle-feedstock" xlink:title="bitshuffle">
<ellipse fill="#fde725" stroke="black" cx="1238.37" cy="-782" rx="58.57" ry="18"/>
<text text-anchor="middle" x="1238.37" y="-777.33" font-family="Times,serif" font-size="14.00">bitshuffle</text>
</a>
</g>
</g>
<!-- h5py&#45;&gt;bitshuffle -->
<g id="edge21" class="edge">
<title>h5py&#45;&gt;bitshuffle</title>
<path fill="none" stroke="black" d="M1006.17,-1063.2C1058.02,-1055 1143.42,-1038.5 1165.37,-1016 1222.81,-957.13 1178.26,-912.54 1208.37,-836 1211.85,-827.14 1216.6,-817.97 1221.28,-809.78"/>
<polygon fill="black" stroke="black" points="1224.19,-811.74 1226.31,-801.35 1218.18,-808.15 1224.19,-811.74"/>
</g>
<!-- bonsu -->
<g id="node23" class="node">
<title>bonsu</title>
<g id="a_node23"><a xlink:href="https://github.com/conda-forge/bonsu-feedstock" xlink:title="bonsu">
<ellipse fill="#fde725" stroke="black" cx="1151.37" cy="-710" rx="41.21" ry="18"/>
<text text-anchor="middle" x="1151.37" y="-705.33" font-family="Times,serif" font-size="14.00">bonsu</text>
</a>
</g>
</g>
<!-- h5py&#45;&gt;bonsu -->
<g id="edge22" class="edge">
<title>h5py&#45;&gt;bonsu</title>
<path fill="none" stroke="black" d="M1008.79,-1066.98C1046.85,-1062.82 1100.89,-1050.69 1132.37,-1016 1159.55,-986.05 1151.37,-967.45 1151.37,-927 1151.37,-927 1151.37,-927 1151.37,-853 1151.37,-813.74 1151.37,-768.38 1151.37,-739.69"/>
<polygon fill="black" stroke="black" points="1154.87,-740 1151.37,-730 1147.87,-740 1154.87,-740"/>
</g>
<!-- proteus -->
<g id="node24" class="node">
<title>proteus</title>
<g id="a_node24"><a xlink:href="https://github.com/conda-forge/proteus-feedstock" xlink:title="proteus">
<ellipse fill="#fde725" stroke="black" cx="415.37" cy="-998" rx="49.63" ry="18"/>
<text text-anchor="middle" x="415.37" y="-993.33" font-family="Times,serif" font-size="14.00">proteus</text>
</a>
</g>
</g>
<!-- h5py&#45;&gt;proteus -->
<g id="edge23" class="edge">
<title>h5py&#45;&gt;proteus</title>
<path fill="none" stroke="black" d="M922.14,-1066.48C836.88,-1061.04 641.24,-1046.15 479.37,-1016 474.4,-1015.08 469.26,-1013.97 464.14,-1012.77"/>
<polygon fill="black" stroke="black" points="465.07,-1009.39 454.53,-1010.39 463.39,-1016.19 465.07,-1009.39"/>
</g>
<!-- hdf5plugin -->
<g id="node25" class="node">
<title>hdf5plugin</title>
<g id="a_node25"><a xlink:href="https://github.com/conda-forge/hdf5plugin-feedstock" xlink:title="hdf5plugin">
<ellipse fill="#fde725" stroke="black" cx="1058.37" cy="-998" rx="65.41" ry="18"/>
<text text-anchor="middle" x="1058.37" y="-993.33" font-family="Times,serif" font-size="14.00">hdf5plugin</text>
</a>
</g>
</g>
<!-- h5py&#45;&gt;hdf5plugin -->
<g id="edge24" class="edge">
<title>h5py&#45;&gt;hdf5plugin</title>
<path fill="none" stroke="black" d="M985.55,-1053.81C997.79,-1044.6 1013.66,-1032.65 1027.46,-1022.27"/>
<polygon fill="black" stroke="black" points="1029.51,-1025.1 1035.4,-1016.29 1025.3,-1019.51 1029.51,-1025.1"/>
</g>
<!-- prismatic_split -->
<g id="node26" class="node">
<title>prismatic_split</title>
<g id="a_node26"><a xlink:href="https://github.com/conda-forge/prismatic_split-feedstock" xlink:title="prismatic_split">
<ellipse fill="#fde725" stroke="black" cx="940.37" cy="-926" rx="85.41" ry="18"/>
<text text-anchor="middle" x="940.37" y="-921.33" font-family="Times,serif" font-size="14.00">prismatic_split</text>
</a>
</g>
</g>
<!-- h5py&#45;&gt;prismatic_split -->
<g id="edge25" class="edge">
<title>h5py&#45;&gt;prismatic_split</title>
<path fill="none" stroke="black" d="M960.24,-1051.95C957.29,-1041.63 953.71,-1028.15 951.37,-1016 947.51,-995.98 944.72,-973.14 942.91,-955.62"/>
<polygon fill="black" stroke="black" points="946.4,-955.29 941.94,-945.68 939.43,-955.97 946.4,-955.29"/>
</g>
<!-- digital_rf -->
<g id="node27" class="node">
<title>digital_rf</title>
<g id="a_node27"><a xlink:href="https://github.com/conda-forge/digital_rf-feedstock" xlink:title="digital_rf">
<ellipse fill="#fde725" stroke="black" cx="873.37" cy="-854" rx="56.47" ry="18"/>
<text text-anchor="middle" x="873.37" y="-849.33" font-family="Times,serif" font-size="14.00">digital_rf</text>
</a>
</g>
</g>
<!-- h5py&#45;&gt;digital_rf -->
<g id="edge26" class="edge">
<title>h5py&#45;&gt;digital_rf</title>
<path fill="none" stroke="black" d="M943.51,-1054.35C914.85,-1033.69 865.95,-992.96 846.37,-944 838.2,-923.57 846.38,-899.68 855.81,-881.79"/>
<polygon fill="black" stroke="black" points="858.72,-883.76 860.65,-873.34 852.64,-880.28 858.72,-883.76"/>
</g>
<!-- damask -->
<g id="node28" class="node">
<title>damask</title>
<g id="a_node28"><a xlink:href="https://github.com/conda-forge/damask-feedstock" xlink:title="damask">
<ellipse fill="#fde725" stroke="black" cx="298.37" cy="-998" rx="49.63" ry="18"/>
<text text-anchor="middle" x="298.37" y="-993.33" font-family="Times,serif" font-size="14.00">damask</text>
</a>
</g>
</g>
<!-- h5py&#45;&gt;damask -->
<g id="edge27" class="edge">
<title>h5py&#45;&gt;damask</title>
<path fill="none" stroke="black" d="M921.4,-1068.15C820.61,-1065.57 565.49,-1055.34 356.37,-1016 352.76,-1015.32 349.05,-1014.51 345.34,-1013.62"/>
<polygon fill="black" stroke="black" points="346.32,-1010.25 335.76,-1011.11 344.56,-1017.03 346.32,-1010.25"/>
</g>
<!-- pp&#45;sketchlib -->
<g id="node29" class="node">
<title>pp&#45;sketchlib</title>
<g id="a_node29"><a xlink:href="https://github.com/conda-forge/pp-sketchlib-feedstock" xlink:title="pp sketchlib">
<ellipse fill="#fde725" stroke="black" cx="851.37" cy="-782" rx="72.25" ry="18"/>
<text text-anchor="middle" x="851.37" y="-777.33" font-family="Times,serif" font-size="14.00">pp sketchlib</text>
</a>
</g>
</g>
<!-- h5py&#45;&gt;pp&#45;sketchlib -->
<g id="edge28" class="edge">
<title>h5py&#45;&gt;pp&#45;sketchlib</title>
<path fill="none" stroke="black" d="M931.05,-1058.33C909.09,-1049.95 881.43,-1036.26 863.37,-1016 807.7,-953.57 780.41,-914.84 808.37,-836 811.94,-825.94 818.32,-816.4 825.09,-808.25"/>
<polygon fill="black" stroke="black" points="827.69,-810.6 831.77,-800.82 822.48,-805.92 827.69,-810.6"/>
</g>
<!-- readdy -->
<g id="node30" class="node">
<title>readdy</title>
<g id="a_node30"><a xlink:href="https://github.com/conda-forge/readdy-feedstock" xlink:title="readdy">
<ellipse fill="#fde725" stroke="black" cx="751.37" cy="-710" rx="45.95" ry="18"/>
<text text-anchor="middle" x="751.37" y="-705.33" font-family="Times,serif" font-size="14.00">readdy</text>
</a>
</g>
</g>
<!-- h5py&#45;&gt;readdy -->
<g id="edge29" class="edge">
<title>h5py&#45;&gt;readdy</title>
<path fill="none" stroke="black" d="M926.12,-1061.56C864.34,-1047.32 751.37,-1009.93 751.37,-927 751.37,-927 751.37,-927 751.37,-853 751.37,-813.74 751.37,-768.38 751.37,-739.69"/>
<polygon fill="black" stroke="black" points="754.87,-740 751.37,-730 747.87,-740 754.87,-740"/>
</g>
<!-- votca -->
<g id="node31" class="node">
<title>votca</title>
<g id="a_node31"><a xlink:href="https://github.com/conda-forge/votca-feedstock" xlink:title="votca">
<ellipse fill="#fde725" stroke="black" cx="685.37" cy="-998" rx="38.06" ry="18"/>
<text text-anchor="middle" x="685.37" y="-993.33" font-family="Times,serif" font-size="14.00">votca</text>
</a>
</g>
</g>
<!-- h5py&#45;&gt;votca -->
<g id="edge30" class="edge">
<title>h5py&#45;&gt;votca</title>
<path fill="none" stroke="black" d="M926.79,-1061.11C881.23,-1051.55 803.33,-1034.41 737.37,-1016 733.8,-1015 730.11,-1013.92 726.43,-1012.79"/>
<polygon fill="black" stroke="black" points="727.51,-1009.46 716.92,-1009.79 725.41,-1016.14 727.51,-1009.46"/>
</g>
<!-- dxtbx -->
<g id="node32" class="node">
<title>dxtbx</title>
<g id="a_node32"><a xlink:href="https://github.com/conda-forge/dxtbx-feedstock" xlink:title="dxtbx">
<ellipse fill="#fde725" stroke="black" cx="1083.37" cy="-926" rx="39.63" ry="18"/>
<text text-anchor="middle" x="1083.37" y="-921.33" font-family="Times,serif" font-size="14.00">dxtbx</text>
</a>
</g>
</g>
<!-- h5py&#45;&gt;dxtbx -->
<g id="edge31" class="edge">
<title>h5py&#45;&gt;dxtbx</title>
<path fill="none" stroke="black" d="M964.92,-1051.51C965.3,-1032.16 968.61,-1000.96 984.37,-980 992.43,-969.28 1020.44,-954.77 1044.62,-943.64"/>
<polygon fill="black" stroke="black" points="1045.97,-946.87 1053.64,-939.57 1043.09,-940.49 1045.97,-946.87"/>
</g>
<!-- paraprobe -->
<g id="node33" class="node">
<title>paraprobe</title>
<g id="a_node33"><a xlink:href="https://github.com/conda-forge/paraprobe-feedstock" xlink:title="paraprobe">
<ellipse fill="#fde725" stroke="black" cx="660.37" cy="-926" rx="62.78" ry="18"/>
<text text-anchor="middle" x="660.37" y="-921.33" font-family="Times,serif" font-size="14.00">paraprobe</text>
</a>
</g>
</g>
<!-- h5py&#45;&gt;paraprobe -->
<g id="edge32" class="edge">
<title>h5py&#45;&gt;paraprobe</title>
<path fill="none" stroke="black" d="M921.3,-1068.61C840.63,-1066.86 674.2,-1058.1 638.37,-1016 623.68,-998.74 632.14,-973.14 642.54,-953.82"/>
<polygon fill="black" stroke="black" points="645.44,-955.81 647.45,-945.41 639.39,-952.28 645.44,-955.81"/>
</g>
<!-- pixsfm -->
<g id="node34" class="node">
<title>pixsfm</title>
<g id="a_node34"><a xlink:href="https://github.com/conda-forge/pixsfm-feedstock" xlink:title="pixsfm">
<ellipse fill="#fde725" stroke="black" cx="604.37" cy="-854" rx="44.9" ry="18"/>
<text text-anchor="middle" x="604.37" y="-849.33" font-family="Times,serif" font-size="14.00">pixsfm</text>
</a>
</g>
</g>
<!-- h5py&#45;&gt;pixsfm -->
<g id="edge33" class="edge">
<title>h5py&#45;&gt;pixsfm</title>
<path fill="none" stroke="black" d="M921.76,-1066.99C841.2,-1062.5 673.03,-1049.32 626.37,-1016 584.96,-986.43 580.94,-958.34 588.37,-908 589.61,-899.6 591.9,-890.68 594.37,-882.61"/>
<polygon fill="black" stroke="black" points="597.62,-883.93 597.41,-873.33 590.97,-881.74 597.62,-883.93"/>
</g>
<!-- photochem -->
<g id="node35" class="node">
<title>photochem</title>
<g id="a_node35"><a xlink:href="https://github.com/conda-forge/photochem-feedstock" xlink:title="photochem">
<ellipse fill="#fde725" stroke="black" cx="587.37" cy="-782" rx="66.47" ry="18"/>
<text text-anchor="middle" x="587.37" y="-777.33" font-family="Times,serif" font-size="14.00">photochem</text>
</a>
</g>
</g>
<!-- h5py&#45;&gt;photochem -->
<g id="edge34" class="edge">
<title>h5py&#45;&gt;photochem</title>
<path fill="none" stroke="black" d="M921.41,-1068.68C832.97,-1067.13 637.87,-1058.81 589.37,-1016 528,-961.83 525.81,-914.08 550.37,-836 553.42,-826.31 558.94,-816.84 564.81,-808.65"/>
<polygon fill="black" stroke="black" points="567.46,-810.94 570.79,-800.88 561.91,-806.67 567.46,-810.94"/>
</g>
<!-- tomoatt -->
<g id="node36" class="node">
<title>tomoatt</title>
<g id="a_node36"><a xlink:href="https://github.com/conda-forge/tomoatt-feedstock" xlink:title="tomoatt">
<ellipse fill="#fde725" stroke="black" cx="493.37" cy="-710" rx="50.68" ry="18"/>
<text text-anchor="middle" x="493.37" y="-705.33" font-family="Times,serif" font-size="14.00">tomoatt</text>
</a>
</g>
</g>
<!-- h5py&#45;&gt;tomoatt -->
<g id="edge35" class="edge">
<title>h5py&#45;&gt;tomoatt</title>
<path fill="none" stroke="black" d="M921.44,-1067.92C828.05,-1064.89 613.29,-1053.9 552.37,-1016 512.07,-990.93 493.37,-974.46 493.37,-927 493.37,-927 493.37,-927 493.37,-853 493.37,-813.74 493.37,-768.38 493.37,-739.69"/>
<polygon fill="black" stroke="black" points="496.87,-740 493.37,-730 489.87,-740 496.87,-740"/>
</g>
<!-- pyne -->
<g id="node37" class="node">
<title>pyne</title>
<g id="a_node37"><a xlink:href="https://github.com/conda-forge/pyne-feedstock" xlink:title="pyne">
<ellipse fill="#fde725" stroke="black" cx="1623.37" cy="-926" rx="35.42" ry="18"/>
<text text-anchor="middle" x="1623.37" y="-921.33" font-family="Times,serif" font-size="14.00">pyne</text>
</a>
</g>
</g>
<!-- openmc&#45;&gt;pyne -->
<g id="edge36" class="edge">
<title>openmc&#45;&gt;pyne</title>
<path fill="none" stroke="black" d="M1518.72,-982.5C1539.32,-971.57 1567.68,-956.53 1589.68,-944.87"/>
<polygon fill="black" stroke="black" points="1591.06,-948.09 1598.26,-940.32 1587.78,-941.91 1591.06,-948.09"/>
</g>
<!-- h5utils&#45;&gt;pymeep -->
<g id="edge37" class="edge">
<title>h5utils&#45;&gt;pymeep</title>
<path fill="none" stroke="black" d="M1405.09,-983.34C1426.6,-972.73 1456.69,-957.9 1480.59,-946.12"/>
<polygon fill="black" stroke="black" points="1481.97,-949.34 1489.39,-941.78 1478.88,-943.06 1481.97,-949.34"/>
</g>
<!-- hdf5plugin&#45;&gt;dxtbx -->
<g id="edge38" class="edge">
<title>hdf5plugin&#45;&gt;dxtbx</title>
<path fill="none" stroke="black" d="M1064.55,-979.7C1067.24,-972.15 1070.47,-963.12 1073.48,-954.68"/>
<polygon fill="black" stroke="black" points="1076.68,-956.12 1076.75,-945.53 1070.09,-953.77 1076.68,-956.12"/>
</g>
<!-- pytrilinos -->
<g id="node40" class="node">
<title>pytrilinos</title>
<g id="a_node40"><a xlink:href="https://github.com/conda-forge/pytrilinos-feedstock" xlink:title="pytrilinos">
<ellipse fill="#ff8c00" stroke="black" cx="2696.68" cy="-998" rx="59.1" ry="18"/>
<text text-anchor="middle" x="2696.68" y="-993.33" font-family="Times,serif" font-size="14.00">pytrilinos</text>
</a>
</g>
</g>
<!-- octave&#45;&gt;pytrilinos -->
<!-- kealib -->
<g id="node39" class="node">
<title>kealib</title>
<g id="a_node39"><a xlink:href="https://github.com/conda-forge/kealib-feedstock/pull/72" xlink:title="kealib ❎">
<ellipse fill="#31688e" stroke="black" cx="1848.37" cy="-1142" rx="56.47" ry="18"/>
<text text-anchor="middle" x="1848.37" y="-1137.33" font-family="Times,serif" font-size="14.00" fill="white">kealib ❎</text>
</a>
</g>
</g>
<!-- kealib&#45;&gt;gdal -->
<g id="edge40" class="edge">
<title>kealib&#45;&gt;gdal</title>
<path fill="none" stroke="black" d="M1871.29,-1125.12C1885.84,-1115.03 1904.81,-1101.88 1920.4,-1091.07"/>
<polygon fill="black" stroke="black" points="1922.14,-1094.13 1928.37,-1085.56 1918.15,-1088.38 1922.14,-1094.13"/>
</g>
<!-- kealib&#45;&gt;rsgislib -->
<g id="edge41" class="edge">
<title>kealib&#45;&gt;rsgislib</title>
<path fill="none" stroke="black" d="M1822.69,-1125.8C1779.45,-1100.22 1692.08,-1048.53 1643.3,-1019.67"/>
<polygon fill="black" stroke="black" points="1645.2,-1016.72 1634.81,-1014.64 1641.64,-1022.75 1645.2,-1016.72"/>
</g>
<!-- trilinos -->
<g id="node41" class="node">
<title>trilinos</title>
<g id="a_node41"><a xlink:href="https://github.com/conda-forge/trilinos-feedstock/pull/50" xlink:title="trilinos ❎">
<ellipse fill="#31688e" stroke="black" cx="2696.68" cy="-926" rx="62.26" ry="18"/>
<text text-anchor="middle" x="2696.68" y="-921.33" font-family="Times,serif" font-size="14.00" fill="white">trilinos ❎</text>
</a>
</g>
</g>
<!-- pytrilinos&#45;&gt;trilinos -->
<!-- lammps -->
<g id="node46" class="node">
<title>lammps</title>
<g id="a_node46"><a xlink:href="https://github.com/conda-forge/lammps-feedstock" xlink:title="lammps">
<ellipse fill="#ff8c00" stroke="black" cx="2696.68" cy="-854" rx="50.68" ry="18"/>
<text text-anchor="middle" x="2696.68" y="-849.33" font-family="Times,serif" font-size="14.00">lammps</text>
</a>
</g>
</g>
<!-- trilinos&#45;&gt;lammps -->
<!-- petsc -->
<g id="node42" class="node">
<title>petsc</title>
<g id="a_node42"><a xlink:href="https://github.com/conda-forge/petsc-feedstock/pull/224" xlink:title="petsc ✓">
<ellipse fill="#31688e" stroke="black" cx="201.37" cy="-1070" rx="45.95" ry="18"/>
<text text-anchor="middle" x="201.37" y="-1065.33" font-family="Times,serif" font-size="14.00" fill="white">petsc ✓</text>
</a>
</g>
</g>
<!-- petsc&#45;&gt;fenics -->
<g id="edge44" class="edge">
<title>petsc&#45;&gt;fenics</title>
<path fill="none" stroke="black" d="M181.84,-1053.46C169.91,-1043.97 154.46,-1031.68 141.25,-1021.18"/>
<polygon fill="black" stroke="black" points="143.73,-1018.68 133.73,-1015.19 139.37,-1024.16 143.73,-1018.68"/>
</g>
<!-- petsc&#45;&gt;proteus -->
<g id="edge45" class="edge">
<title>petsc&#45;&gt;proteus</title>
<path fill="none" stroke="black" d="M235.75,-1057.75C271.72,-1045.99 328.4,-1027.45 368.46,-1014.34"/>
<polygon fill="black" stroke="black" points="369.43,-1017.71 377.85,-1011.27 367.25,-1011.06 369.43,-1017.71"/>
</g>
<!-- petsc&#45;&gt;damask -->
<g id="edge46" class="edge">
<title>petsc&#45;&gt;damask</title>
<path fill="none" stroke="black" d="M222.42,-1053.81C235.58,-1044.31 252.77,-1031.91 267.46,-1021.3"/>
<polygon fill="black" stroke="black" points="269.4,-1024.22 275.46,-1015.53 265.31,-1018.54 269.4,-1024.22"/>
</g>
<!-- yambo -->
<g id="node43" class="node">
<title>yambo</title>
<g id="a_node43"><a xlink:href="https://github.com/conda-forge/yambo-feedstock" xlink:title="yambo">
<ellipse fill="#fde725" stroke="black" cx="44.37" cy="-926" rx="44.37" ry="18"/>
<text text-anchor="middle" x="44.37" y="-921.33" font-family="Times,serif" font-size="14.00">yambo</text>
</a>
</g>
</g>
<!-- petsc&#45;&gt;yambo -->
<g id="edge47" class="edge">
<title>petsc&#45;&gt;yambo</title>
<path fill="none" stroke="black" d="M158.06,-1063.38C127.2,-1057.07 87.13,-1043.8 63.37,-1016 49.16,-999.37 44.76,-974.69 43.72,-955.54"/>
<polygon fill="black" stroke="black" points="47.22,-955.59 43.48,-945.68 40.22,-955.76 47.22,-955.59"/>
</g>
<!-- fenics&#45;dolfinx -->
<g id="node44" class="node">
<title>fenics&#45;dolfinx</title>
<g id="a_node44"><a xlink:href="https://github.com/conda-forge/fenics-dolfinx-feedstock" xlink:title="fenics dolfinx">
<ellipse fill="#fde725" stroke="black" cx="288.37" cy="-854" rx="77.52" ry="18"/>
<text text-anchor="middle" x="288.37" y="-849.33" font-family="Times,serif" font-size="14.00">fenics dolfinx</text>
</a>
</g>
</g>
<!-- petsc&#45;&gt;fenics&#45;dolfinx -->
<g id="edge48" class="edge">
<title>petsc&#45;&gt;fenics&#45;dolfinx</title>
<path fill="none" stroke="black" d="M208.34,-1051.85C223.36,-1014.91 258.87,-927.55 277.12,-882.67"/>
<polygon fill="black" stroke="black" points="280.27,-884.22 280.79,-873.63 273.79,-881.58 280.27,-884.22"/>
</g>
<!-- freefem -->
<g id="node45" class="node">
<title>freefem</title>
<g id="a_node45"><a xlink:href="https://github.com/conda-forge/freefem-feedstock" xlink:title="freefem">
<ellipse fill="#fde725" stroke="black" cx="182.37" cy="-782" rx="50.16" ry="18"/>
<text text-anchor="middle" x="182.37" y="-777.33" font-family="Times,serif" font-size="14.00">freefem</text>
</a>
</g>
</g>
<!-- petsc&#45;&gt;freefem -->
<g id="edge49" class="edge">
<title>petsc&#45;&gt;freefem</title>
<path fill="none" stroke="black" d="M200.21,-1051.54C197.04,-1003.76 188.18,-870.51 184.27,-811.61"/>
<polygon fill="black" stroke="black" points="187.77,-811.49 183.62,-801.74 180.79,-811.95 187.77,-811.49"/>
</g>
<!-- openpmd&#45;api -->
<g id="node47" class="node">
<title>openpmd&#45;api</title>
<g id="a_node47"><a xlink:href="https://github.com/conda-forge/openpmd-api-feedstock/pull/117" xlink:title="openpmd api ❎">
<ellipse fill="#31688e" stroke="black" cx="2696.68" cy="-782" rx="91.19" ry="18"/>
<text text-anchor="middle" x="2696.68" y="-777.33" font-family="Times,serif" font-size="14.00" fill="white">openpmd api ❎</text>
</a>
</g>
</g>
<!-- lammps&#45;&gt;openpmd&#45;api -->
<!-- freecad -->
<g id="node48" class="node">
<title>freecad</title>
<g id="a_node48"><a xlink:href="https://github.com/conda-forge/freecad-feedstock/pull/140" xlink:title="freecad ❎">
<ellipse fill="#31688e" stroke="black" cx="2696.68" cy="-710" rx="63.84" ry="18"/>
<text text-anchor="middle" x="2696.68" y="-705.33" font-family="Times,serif" font-size="14.00" fill="white">freecad ❎</text>
</a>
</g>
</g>
<!-- openpmd&#45;api&#45;&gt;freecad -->
<!-- scilab -->
<g id="node49" class="node">
<title>scilab</title>
<g id="a_node49"><a xlink:href="https://github.com/conda-forge/scilab-feedstock" xlink:title="scilab">
<ellipse fill="#ff8c00" stroke="black" cx="2696.68" cy="-638" rx="40.16" ry="18"/>
<text text-anchor="middle" x="2696.68" y="-633.33" font-family="Times,serif" font-size="14.00">scilab</text>
</a>
</g>
</g>
<!-- freecad&#45;&gt;scilab -->
<!-- esys&#45;escript -->
<g id="node50" class="node">
<title>esys&#45;escript</title>
<g id="a_node50"><a xlink:href="https://github.com/conda-forge/esys-escript-feedstock/pull/77" xlink:title="esys escript ❎">
<ellipse fill="#31688e" stroke="black" cx="2696.68" cy="-566" rx="86.46" ry="18"/>
<text text-anchor="middle" x="2696.68" y="-561.33" font-family="Times,serif" font-size="14.00" fill="white">esys escript ❎</text>
</a>
</g>
</g>
<!-- scilab&#45;&gt;esys&#45;escript -->
<!-- dakota -->
<g id="node51" class="node">
<title>dakota</title>
<g id="a_node51"><a xlink:href="https://github.com/conda-forge/dakota-feedstock/pull/55" xlink:title="dakota ❎">
<ellipse fill="#31688e" stroke="black" cx="2433.17" cy="-1286" rx="60.15" ry="18"/>
<text text-anchor="middle" x="2433.17" y="-1281.33" font-family="Times,serif" font-size="14.00" fill="white">dakota ❎</text>
</a>
</g>
</g>
<!-- hdf5&#45;external&#45;filter&#45;plugins -->
<g id="node52" class="node">
<title>hdf5&#45;external&#45;filter&#45;plugins</title>
<g id="a_node52"><a xlink:href="https://github.com/conda-forge/hdf5-external-filter-plugins-feedstock/pull/24" xlink:title="hdf5 external filter plugins ✓">
<ellipse fill="#31688e" stroke="black" cx="2433.17" cy="-1214" rx="153.8" ry="18"/>
<text text-anchor="middle" x="2433.17" y="-1209.33" font-family="Times,serif" font-size="14.00" fill="white">hdf5 external filter plugins ✓</text>
</a>
</g>
</g>
<!-- dakota&#45;&gt;hdf5&#45;external&#45;filter&#45;plugins -->
<!-- ecell4_base -->
<g id="node53" class="node">
<title>ecell4_base</title>
<g id="a_node53"><a xlink:href="https://github.com/conda-forge/ecell4_base-feedstock/pull/33" xlink:title="ecell4_base ❎">
<ellipse fill="#31688e" stroke="black" cx="2433.17" cy="-1142" rx="83.83" ry="18"/>
<text text-anchor="middle" x="2433.17" y="-1137.33" font-family="Times,serif" font-size="14.00" fill="white">ecell4_base ❎</text>
</a>
</g>
</g>
<!-- hdf5&#45;external&#45;filter&#45;plugins&#45;&gt;ecell4_base -->
<!-- gwollum -->
<g id="node54" class="node">
<title>gwollum</title>
<g id="a_node54"><a xlink:href="https://github.com/conda-forge/gwollum-feedstock/pull/62" xlink:title="gwollum ✓">
<ellipse fill="#31688e" stroke="black" cx="2433.17" cy="-1070" rx="61.73" ry="18"/>
<text text-anchor="middle" x="2433.17" y="-1065.33" font-family="Times,serif" font-size="14.00" fill="white">gwollum ✓</text>
</a>
</g>
</g>
<!-- ecell4_base&#45;&gt;gwollum -->
<!-- conduit -->
<g id="node55" class="node">
<title>conduit</title>
<g id="a_node55"><a xlink:href="https://github.com/conda-forge/conduit-feedstock/pull/49" xlink:title="conduit ✓">
<ellipse fill="#31688e" stroke="black" cx="2433.17" cy="-998" rx="56.47" ry="18"/>
<text text-anchor="middle" x="2433.17" y="-993.33" font-family="Times,serif" font-size="14.00" fill="white">conduit ✓</text>
</a>
</g>
</g>
<!-- gwollum&#45;&gt;conduit -->
<!-- nccmp -->
<g id="node56" class="node">
<title>nccmp</title>
<g id="a_node56"><a xlink:href="https://github.com/conda-forge/nccmp-feedstock/pull/21" xlink:title="nccmp ✓">
<ellipse fill="#31688e" stroke="black" cx="2433.17" cy="-926" rx="51.74" ry="18"/>
<text text-anchor="middle" x="2433.17" y="-921.33" font-family="Times,serif" font-size="14.00" fill="white">nccmp ✓</text>
</a>
</g>
</g>
<!-- conduit&#45;&gt;nccmp -->
<!-- mbsolve -->
<g id="node58" class="node">
<title>mbsolve</title>
<g id="a_node58"><a xlink:href="https://github.com/conda-forge/mbsolve-feedstock/pull/20" xlink:title="mbsolve ❎">
<ellipse fill="#31688e" stroke="black" cx="2433.17" cy="-854" rx="68.04" ry="18"/>
<text text-anchor="middle" x="2433.17" y="-849.33" font-family="Times,serif" font-size="14.00" fill="white">mbsolve ❎</text>
</a>
</g>
</g>
<!-- nccmp&#45;&gt;mbsolve -->
<!-- dagmc -->
<g id="node57" class="node">
<title>dagmc</title>
<g id="a_node57"><a xlink:href="https://github.com/conda-forge/dagmc-feedstock" xlink:title="dagmc">
<ellipse fill="#ff8c00" stroke="black" cx="1491.37" cy="-1070" rx="44.37" ry="18"/>
<text text-anchor="middle" x="1491.37" y="-1065.33" font-family="Times,serif" font-size="14.00">dagmc</text>
</a>
</g>
</g>
<!-- dagmc&#45;&gt;openmc -->
<g id="edge60" class="edge">
<title>dagmc&#45;&gt;openmc</title>
<path fill="none" stroke="black" d="M1491.37,-1051.7C1491.37,-1044.41 1491.37,-1035.73 1491.37,-1027.54"/>
<polygon fill="black" stroke="black" points="1494.87,-1027.62 1491.37,-1017.62 1487.87,-1027.62 1494.87,-1027.62"/>
</g>
<!-- qe -->
<g id="node59" class="node">
<title>qe</title>
<g id="a_node59"><a xlink:href="https://github.com/conda-forge/qe-feedstock/pull/57" xlink:title="qe ❎">
<ellipse fill="#31688e" stroke="black" cx="2433.17" cy="-782" rx="38.58" ry="18"/>
<text text-anchor="middle" x="2433.17" y="-777.33" font-family="Times,serif" font-size="14.00" fill="white">qe ❎</text>
</a>
</g>
</g>
<!-- mbsolve&#45;&gt;qe -->
<!-- fates&#45;emerald -->
<g id="node60" class="node">
<title>fates&#45;emerald</title>
<g id="a_node60"><a xlink:href="https://github.com/conda-forge/fates-emerald-feedstock/pull/21" xlink:title="fates emerald ❎">
<ellipse fill="#31688e" stroke="black" cx="2433.17" cy="-710" rx="95.4" ry="18"/>
<text text-anchor="middle" x="2433.17" y="-705.33" font-family="Times,serif" font-size="14.00" fill="white">fates emerald ❎</text>
</a>
</g>
</g>
<!-- qe&#45;&gt;fates&#45;emerald -->
<!-- muq -->
<g id="node61" class="node">
<title>muq</title>
<g id="a_node61"><a xlink:href="https://github.com/conda-forge/muq-feedstock/pull/54" xlink:title="muq ✓">
<ellipse fill="#31688e" stroke="black" cx="2433.17" cy="-638" rx="41.21" ry="18"/>
<text text-anchor="middle" x="2433.17" y="-633.33" font-family="Times,serif" font-size="14.00" fill="white">muq ✓</text>
</a>
</g>
</g>
<!-- fates&#45;emerald&#45;&gt;muq -->
<!-- tomviz -->
<g id="node62" class="node">
<title>tomviz</title>
<g id="a_node62"><a xlink:href="https://github.com/conda-forge/tomviz-feedstock" xlink:title="tomviz">
<ellipse fill="#ff8c00" stroke="black" cx="2433.17" cy="-566" rx="44.9" ry="18"/>
<text text-anchor="middle" x="2433.17" y="-561.33" font-family="Times,serif" font-size="14.00">tomviz</text>
</a>
</g>
</g>
<!-- muq&#45;&gt;tomviz -->
<!-- sirius -->
<g id="node63" class="node">
<title>sirius</title>
<g id="a_node63"><a xlink:href="https://github.com/conda-forge/sirius-feedstock/pull/34" xlink:title="sirius ❎">
<ellipse fill="#31688e" stroke="black" cx="1135.68" cy="-522" rx="54.36" ry="18"/>
<text text-anchor="middle" x="1135.68" y="-517.33" font-family="Times,serif" font-size="14.00" fill="white">sirius ❎</text>
</a>
</g>
</g>
<!-- pycgns -->
<g id="node64" class="node">
<title>pycgns</title>
<g id="a_node64"><a xlink:href="https://github.com/conda-forge/pycgns-feedstock/pull/39" xlink:title="pycgns ✓">
<ellipse fill="#31688e" stroke="black" cx="1135.68" cy="-450" rx="54.36" ry="18"/>
<text text-anchor="middle" x="1135.68" y="-445.32" font-family="Times,serif" font-size="14.00" fill="white">pycgns ✓</text>
</a>
</g>
</g>
<!-- sirius&#45;&gt;pycgns -->
<!-- fleur -->
<g id="node65" class="node">
<title>fleur</title>
<g id="a_node65"><a xlink:href="https://github.com/conda-forge/fleur-feedstock/pull/22" xlink:title="fleur ✓">
<ellipse fill="#31688e" stroke="black" cx="1135.68" cy="-378" rx="42.26" ry="18"/>
<text text-anchor="middle" x="1135.68" y="-373.32" font-family="Times,serif" font-size="14.00" fill="white">fleur ✓</text>
</a>
</g>
</g>
<!-- pycgns&#45;&gt;fleur -->
<!-- ambit -->
<g id="node69" class="node">
<title>ambit</title>
<g id="a_node69"><a xlink:href="https://github.com/conda-forge/ambit-feedstock/pull/15" xlink:title="ambit ✓">
<ellipse fill="#31688e" stroke="black" cx="1135.68" cy="-306" rx="48.05" ry="18"/>
<text text-anchor="middle" x="1135.68" y="-301.32" font-family="Times,serif" font-size="14.00" fill="white">ambit ✓</text>
</a>
</g>
</g>
<!-- fleur&#45;&gt;ambit -->
<!-- coda -->
<g id="node66" class="node">
<title>coda</title>
<g id="a_node66"><a xlink:href="https://github.com/conda-forge/coda-feedstock/pull/36" xlink:title="coda ❎">
<ellipse fill="#31688e" stroke="black" cx="2430.01" cy="-342" rx="49.63" ry="18"/>
<text text-anchor="middle" x="2430.01" y="-337.32" font-family="Times,serif" font-size="14.00" fill="white">coda ❎</text>
</a>
</g>
</g>
<!-- harp -->
<g id="node67" class="node">
<title>harp</title>
<g id="a_node67"><a xlink:href="https://github.com/conda-forge/harp-feedstock" xlink:title="harp">
<ellipse fill="#fde725" stroke="black" cx="2399.01" cy="-270" rx="34.37" ry="18"/>
<text text-anchor="middle" x="2399.01" y="-265.32" font-family="Times,serif" font-size="14.00">harp</text>
</a>
</g>
</g>
<!-- coda&#45;&gt;harp -->
<g id="edge68" class="edge">
<title>coda&#45;&gt;harp</title>
<path fill="none" stroke="black" d="M2422.51,-324.05C2419.08,-316.32 2414.94,-306.96 2411.09,-298.27"/>
<polygon fill="black" stroke="black" points="2414.31,-296.9 2407.06,-289.17 2407.91,-299.73 2414.31,-296.9"/>
</g>
<!-- qdoas -->
<g id="node68" class="node">
<title>qdoas</title>
<g id="a_node68"><a xlink:href="https://github.com/conda-forge/qdoas-feedstock" xlink:title="qdoas">
<ellipse fill="#fde725" stroke="black" cx="2461.01" cy="-198" rx="40.69" ry="18"/>
<text text-anchor="middle" x="2461.01" y="-193.32" font-family="Times,serif" font-size="14.00">qdoas</text>
</a>
</g>
</g>
<!-- coda&#45;&gt;qdoas -->
<g id="edge69" class="edge">
<title>coda&#45;&gt;qdoas</title>
<path fill="none" stroke="black" d="M2433.96,-323.83C2436.32,-313.46 2439.38,-299.98 2442.01,-288 2446.45,-267.81 2451.32,-245.02 2455.01,-227.55"/>
<polygon fill="black" stroke="black" points="2458.41,-228.4 2457.05,-217.89 2451.56,-226.95 2458.41,-228.4"/>
</g>
<!-- reprimand -->
<g id="node70" class="node">
<title>reprimand</title>
<g id="a_node70"><a xlink:href="https://github.com/conda-forge/reprimand-feedstock/pull/8" xlink:title="reprimand ✓">
<ellipse fill="#31688e" stroke="black" cx="1135.68" cy="-234" rx="71.73" ry="18"/>
<text text-anchor="middle" x="1135.68" y="-229.32" font-family="Times,serif" font-size="14.00" fill="white">reprimand ✓</text>
</a>
</g>
</g>
<!-- ambit&#45;&gt;reprimand -->
<!-- elegant -->
<g id="node71" class="node">
<title>elegant</title>
<g id="a_node71"><a xlink:href="https://github.com/conda-forge/elegant-feedstock/pull/14" xlink:title="elegant ❎">
<ellipse fill="#31688e" stroke="black" cx="1135.68" cy="-162" rx="63.84" ry="18"/>
<text text-anchor="middle" x="1135.68" y="-157.32" font-family="Times,serif" font-size="14.00" fill="white">elegant ❎</text>
</a>
</g>
</g>
<!-- reprimand&#45;&gt;elegant -->
<!-- ogs -->
<g id="node72" class="node">
<title>ogs</title>
<g id="a_node72"><a xlink:href="https://github.com/conda-forge/ogs-feedstock/pull/6" xlink:title="ogs ❎">
<ellipse fill="#31688e" stroke="black" cx="1135.68" cy="-90" rx="43.84" ry="18"/>
<text text-anchor="middle" x="1135.68" y="-85.33" font-family="Times,serif" font-size="14.00" fill="white">ogs ❎</text>
</a>
</g>
</g>
<!-- elegant&#45;&gt;ogs -->
<!-- fans -->
<g id="node73" class="node">
<title>fans</title>
<g id="a_node73"><a xlink:href="https://github.com/conda-forge/fans-feedstock" xlink:title="fans">
<ellipse fill="#fde725" stroke="black" cx="1135.68" cy="-18" rx="32.27" ry="18"/>
<text text-anchor="middle" x="1135.68" y="-13.32" font-family="Times,serif" font-size="14.00">fans</text>
</a>
</g>
</g>
<!-- ogs&#45;&gt;fans -->
</g>
</svg>
