<?xml version="1.0" encoding="UTF-8" standalone="no"?>
<!DOCTYPE svg PUBLIC "-//W3C//DTD SVG 1.1//EN"
 "http://www.w3.org/Graphics/SVG/1.1/DTD/svg11.dtd">
<!-- Generated by graphviz version 13.1.2 (20250809.0930)
 -->
<!-- Pages: 1 -->
<svg width="2570pt" height="880pt"
 viewBox="0.00 0.00 2570.00 880.00" xmlns="http://www.w3.org/2000/svg" xmlns:xlink="http://www.w3.org/1999/xlink">
<g id="graph0" class="graph" transform="scale(1 1) rotate(0) translate(4 876)">
<polygon fill="white" stroke="none" points="-4,4 -4,-876 2565.97,-876 2565.97,4 -4,4"/>
<!-- boost -->
<g id="node1" class="node">
<title>boost</title>
<g id="a_node1"><a xlink:href="https://github.com/conda-forge/boost-feedstock/pull/258" xlink:title="boost ❎">
<ellipse fill="#31688e" stroke="black" cx="1702.26" cy="-602" rx="53.84" ry="18"/>
<text xml:space="preserve" text-anchor="middle" x="1702.26" y="-597.33" font-family="Times,serif" font-size="14.00" fill="white">boost ❎</text>
</a>
</g>
</g>
<!-- paraview -->
<g id="node2" class="node">
<title>paraview</title>
<g id="a_node2"><a xlink:href="https://github.com/conda-forge/paraview-feedstock" xlink:title="paraview">
<ellipse fill="#fde725" stroke="black" cx="1451.26" cy="-530" rx="57" ry="18"/>
<text xml:space="preserve" text-anchor="middle" x="1451.26" y="-525.33" font-family="Times,serif" font-size="14.00">paraview</text>
</a>
</g>
</g>
<!-- boost&#45;&gt;paraview -->
<g id="edge1" class="edge">
<title>boost&#45;&gt;paraview</title>
<path fill="none" stroke="black" d="M1661.93,-589.75C1618.96,-577.77 1550.75,-558.74 1503.64,-545.61"/>
<polygon fill="black" stroke="black" points="1504.77,-542.29 1494.2,-542.97 1502.89,-549.03 1504.77,-542.29"/>
</g>
<!-- qgis -->
<g id="node3" class="node">
<title>qgis</title>
<g id="a_node3"><a xlink:href="https://github.com/conda-forge/qgis-feedstock" xlink:title="qgis">
<ellipse fill="#fde725" stroke="black" cx="1239.26" cy="-458" rx="32.27" ry="18"/>
<text xml:space="preserve" text-anchor="middle" x="1239.26" y="-453.32" font-family="Times,serif" font-size="14.00">qgis</text>
</a>
</g>
</g>
<!-- boost&#45;&gt;qgis -->
<g id="edge2" class="edge">
<title>boost&#45;&gt;qgis</title>
<path fill="none" stroke="black" d="M1657.73,-591.64C1625.94,-583.54 1583.18,-569.67 1550.26,-548 1532.13,-536.07 1536.22,-522.57 1517.26,-512 1496.89,-500.64 1353.85,-476.98 1281.28,-465.51"/>
<polygon fill="black" stroke="black" points="1282.19,-462.11 1271.76,-464.02 1281.1,-469.03 1282.19,-462.11"/>
</g>
<!-- clickhouse&#45;odbc -->
<g id="node4" class="node">
<title>clickhouse&#45;odbc</title>
<g id="a_node4"><a xlink:href="https://github.com/conda-forge/clickhouse-odbc-feedstock" xlink:title="clickhouse odbc">
<ellipse fill="#fde725" stroke="black" cx="2086.26" cy="-530" rx="90.14" ry="18"/>
<text xml:space="preserve" text-anchor="middle" x="2086.26" y="-525.33" font-family="Times,serif" font-size="14.00">clickhouse odbc</text>
</a>
</g>
</g>
<!-- boost&#45;&gt;clickhouse&#45;odbc -->
<g id="edge3" class="edge">
<title>boost&#45;&gt;clickhouse&#45;odbc</title>
<path fill="none" stroke="black" d="M1748.58,-592.56C1813.41,-580.74 1932.01,-559.12 2009.98,-544.9"/>
<polygon fill="black" stroke="black" points="2010.48,-548.37 2019.69,-543.13 2009.23,-541.48 2010.48,-548.37"/>
</g>
<!-- e&#45;antic -->
<g id="node5" class="node">
<title>e&#45;antic</title>
<g id="a_node5"><a xlink:href="https://github.com/conda-forge/e-antic-feedstock" xlink:title="e antic">
<ellipse fill="#fde725" stroke="black" cx="1723.26" cy="-458" rx="44.9" ry="18"/>
<text xml:space="preserve" text-anchor="middle" x="1723.26" y="-453.32" font-family="Times,serif" font-size="14.00">e antic</text>
</a>
</g>
</g>
<!-- boost&#45;&gt;e&#45;antic -->
<g id="edge4" class="edge">
<title>boost&#45;&gt;e&#45;antic</title>
<path fill="none" stroke="black" d="M1704.84,-583.59C1708.38,-559.61 1714.81,-516.14 1719.06,-487.42"/>
<polygon fill="black" stroke="black" points="1722.51,-488.01 1720.51,-477.61 1715.58,-486.99 1722.51,-488.01"/>
</g>
<!-- mongodb -->
<g id="node6" class="node">
<title>mongodb</title>
<g id="a_node6"><a xlink:href="https://github.com/conda-forge/mongodb-feedstock" xlink:title="mongodb">
<ellipse fill="#fde725" stroke="black" cx="1882.26" cy="-386" rx="57.52" ry="18"/>
<text xml:space="preserve" text-anchor="middle" x="1882.26" y="-381.32" font-family="Times,serif" font-size="14.00">mongodb</text>
</a>
</g>
</g>
<!-- boost&#45;&gt;mongodb -->
<g id="edge5" class="edge">
<title>boost&#45;&gt;mongodb</title>
<path fill="none" stroke="black" d="M1741.55,-589.22C1764.06,-580.8 1791.48,-567.46 1810.26,-548 1846.94,-509.99 1866.88,-450.1 1875.98,-415.08"/>
<polygon fill="black" stroke="black" points="1879.3,-416.24 1878.3,-405.69 1872.51,-414.56 1879.3,-416.24"/>
</g>
<!-- topologytoolkit -->
<g id="node7" class="node">
<title>topologytoolkit</title>
<g id="a_node7"><a xlink:href="https://github.com/conda-forge/topologytoolkit-feedstock" xlink:title="topologytoolkit">
<ellipse fill="#fde725" stroke="black" cx="1451.26" cy="-458" rx="86.46" ry="18"/>
<text xml:space="preserve" text-anchor="middle" x="1451.26" y="-453.32" font-family="Times,serif" font-size="14.00">topologytoolkit</text>
</a>
</g>
</g>
<!-- boost&#45;&gt;topologytoolkit -->
<g id="edge6" class="edge">
<title>boost&#45;&gt;topologytoolkit</title>
<path fill="none" stroke="black" d="M1676.88,-585.74C1646.84,-567.77 1595.22,-537.18 1550.26,-512 1531.35,-501.41 1510.19,-490.02 1492.31,-480.52"/>
<polygon fill="black" stroke="black" points="1494.01,-477.46 1483.53,-475.88 1490.73,-483.65 1494.01,-477.46"/>
</g>
<!-- odil -->
<g id="node8" class="node">
<title>odil</title>
<g id="a_node8"><a xlink:href="https://github.com/conda-forge/odil-feedstock" xlink:title="odil">
<ellipse fill="#fde725" stroke="black" cx="1968.26" cy="-314" rx="29.64" ry="18"/>
<text xml:space="preserve" text-anchor="middle" x="1968.26" y="-309.32" font-family="Times,serif" font-size="14.00">odil</text>
</a>
</g>
</g>
<!-- boost&#45;&gt;odil -->
<g id="edge7" class="edge">
<title>boost&#45;&gt;odil</title>
<path fill="none" stroke="black" d="M1744.74,-590.68C1772.91,-582.38 1809.63,-568.65 1837.26,-548 1902.2,-499.45 1915.04,-477.5 1949.26,-404 1958.13,-384.94 1962.92,-361.65 1965.46,-343.67"/>
<polygon fill="black" stroke="black" points="1968.91,-344.32 1966.68,-333.96 1961.96,-343.45 1968.91,-344.32"/>
</g>
<!-- exact&#45;real -->
<g id="node9" class="node">
<title>exact&#45;real</title>
<g id="a_node9"><a xlink:href="https://github.com/conda-forge/exact-real-feedstock" xlink:title="exact real">
<ellipse fill="#fde725" stroke="black" cx="1650.26" cy="-386" rx="60.68" ry="18"/>
<text xml:space="preserve" text-anchor="middle" x="1650.26" y="-381.32" font-family="Times,serif" font-size="14.00">exact real</text>
</a>
</g>
</g>
<!-- boost&#45;&gt;exact&#45;real -->
<g id="edge8" class="edge">
<title>boost&#45;&gt;exact&#45;real</title>
<path fill="none" stroke="black" d="M1697.41,-583.68C1690.73,-559.61 1678.48,-514.64 1669.26,-476 1664.46,-455.9 1659.61,-433.1 1656.01,-415.61"/>
<polygon fill="black" stroke="black" points="1659.46,-415.03 1654.03,-405.93 1652.6,-416.43 1659.46,-415.03"/>
</g>
<!-- libpdal -->
<g id="node10" class="node">
<title>libpdal</title>
<g id="a_node10"><a xlink:href="https://github.com/conda-forge/libpdal-feedstock" xlink:title="libpdal">
<ellipse fill="#fde725" stroke="black" cx="1331.26" cy="-530" rx="45.42" ry="18"/>
<text xml:space="preserve" text-anchor="middle" x="1331.26" y="-525.33" font-family="Times,serif" font-size="14.00">libpdal</text>
</a>
</g>
</g>
<!-- boost&#45;&gt;libpdal -->
<g id="edge9" class="edge">
<title>boost&#45;&gt;libpdal</title>
<path fill="none" stroke="black" d="M1652.41,-594.85C1589.61,-586.61 1478.59,-570.38 1385.26,-548 1382.17,-547.26 1379,-546.43 1375.81,-545.56"/>
<polygon fill="black" stroke="black" points="1377.08,-542.28 1366.5,-542.85 1375.13,-549 1377.08,-542.28"/>
</g>
<!-- dssp -->
<g id="node11" class="node">
<title>dssp</title>
<g id="a_node11"><a xlink:href="https://github.com/conda-forge/dssp-feedstock" xlink:title="dssp">
<ellipse fill="#fde725" stroke="black" cx="1796.26" cy="-242" rx="34.37" ry="18"/>
<text xml:space="preserve" text-anchor="middle" x="1796.26" y="-237.32" font-family="Times,serif" font-size="14.00">dssp</text>
</a>
</g>
</g>
<!-- boost&#45;&gt;dssp -->
<g id="edge10" class="edge">
<title>boost&#45;&gt;dssp</title>
<path fill="none" stroke="black" d="M1722.2,-584.96C1749.79,-560.8 1796.26,-512.22 1796.26,-459 1796.26,-459 1796.26,-459 1796.26,-385 1796.26,-345.74 1796.26,-300.38 1796.26,-271.69"/>
<polygon fill="black" stroke="black" points="1799.76,-272 1796.26,-262 1792.76,-272 1799.76,-272"/>
</g>
<!-- paraview&#45;&gt;topologytoolkit -->
<g id="edge11" class="edge">
<title>paraview&#45;&gt;topologytoolkit</title>
<path fill="none" stroke="black" d="M1451.26,-511.7C1451.26,-504.41 1451.26,-495.73 1451.26,-487.54"/>
<polygon fill="black" stroke="black" points="1454.76,-487.62 1451.26,-477.62 1447.76,-487.62 1454.76,-487.62"/>
</g>
<!-- e&#45;antic&#45;&gt;exact&#45;real -->
<g id="edge12" class="edge">
<title>e&#45;antic&#45;&gt;exact&#45;real</title>
<path fill="none" stroke="black" d="M1706.7,-441.12C1697.56,-432.36 1686.02,-421.29 1675.76,-411.45"/>
<polygon fill="black" stroke="black" points="1678.25,-408.99 1668.61,-404.6 1673.41,-414.05 1678.25,-408.99"/>
</g>
<!-- libpdal&#45;&gt;qgis -->
<g id="edge13" class="edge">
<title>libpdal&#45;&gt;qgis</title>
<path fill="none" stroke="black" d="M1310.84,-513.46C1297.82,-503.55 1280.77,-490.59 1266.59,-479.79"/>
<polygon fill="black" stroke="black" points="1269.03,-477.25 1258.95,-473.98 1264.79,-482.82 1269.03,-477.25"/>
</g>
<!-- cairo -->
<g id="node12" class="node">
<title>cairo</title>
<g id="a_node12"><a xlink:href="https://github.com/conda-forge/cairo-feedstock/pull/83" xlink:title="cairo ❎">
<ellipse fill="#31688e" stroke="black" cx="242.26" cy="-746" rx="51.21" ry="18"/>
<text xml:space="preserve" text-anchor="middle" x="242.26" y="-741.33" font-family="Times,serif" font-size="14.00" fill="white">cairo ❎</text>
</a>
</g>
</g>
<!-- harfbuzz -->
<g id="node13" class="node">
<title>harfbuzz</title>
<g id="a_node13"><a xlink:href="https://github.com/conda-forge/harfbuzz-feedstock" xlink:title="harfbuzz">
<ellipse fill="#fde725" stroke="black" cx="283.26" cy="-674" rx="54.89" ry="18"/>
<text xml:space="preserve" text-anchor="middle" x="283.26" y="-669.33" font-family="Times,serif" font-size="14.00">harfbuzz</text>
</a>
</g>
</g>
<!-- cairo&#45;&gt;harfbuzz -->
<g id="edge14" class="edge">
<title>cairo&#45;&gt;harfbuzz</title>
<path fill="none" stroke="black" d="M252.19,-728.05C256.82,-720.14 262.45,-710.54 267.63,-701.69"/>
<polygon fill="black" stroke="black" points="270.63,-703.49 272.66,-693.1 264.59,-699.95 270.63,-703.49"/>
</g>
<!-- r&#45;base -->
<g id="node14" class="node">
<title>r&#45;base</title>
<g id="a_node14"><a xlink:href="https://github.com/conda-forge/r-base-feedstock" xlink:title="r base">
<ellipse fill="#fde725" stroke="black" cx="130.26" cy="-674" rx="42.26" ry="18"/>
<text xml:space="preserve" text-anchor="middle" x="130.26" y="-669.33" font-family="Times,serif" font-size="14.00">r base</text>
</a>
</g>
</g>
<!-- cairo&#45;&gt;r&#45;base -->
<g id="edge15" class="edge">
<title>cairo&#45;&gt;r&#45;base</title>
<path fill="none" stroke="black" d="M217.96,-729.81C201.78,-719.7 180.34,-706.3 162.71,-695.28"/>
<polygon fill="black" stroke="black" points="164.99,-692.58 154.65,-690.24 161.28,-698.51 164.99,-692.58"/>
</g>
<!-- r&#45;cairo -->
<g id="node15" class="node">
<title>r&#45;cairo</title>
<g id="a_node15"><a xlink:href="https://github.com/conda-forge/r-cairo-feedstock" xlink:title="r cairo">
<ellipse fill="#fde725" stroke="black" cx="166.26" cy="-602" rx="43.84" ry="18"/>
<text xml:space="preserve" text-anchor="middle" x="166.26" y="-597.33" font-family="Times,serif" font-size="14.00">r cairo</text>
</a>
</g>
</g>
<!-- cairo&#45;&gt;r&#45;cairo -->
<g id="edge16" class="edge">
<title>cairo&#45;&gt;r&#45;cairo</title>
<path fill="none" stroke="black" d="M233.09,-727.87C220.01,-703.43 195.88,-658.33 180.47,-629.55"/>
<polygon fill="black" stroke="black" points="183.74,-628.25 175.94,-621.08 177.57,-631.55 183.74,-628.25"/>
</g>
<!-- texlive&#45;core -->
<g id="node16" class="node">
<title>texlive&#45;core</title>
<g id="a_node16"><a xlink:href="https://github.com/conda-forge/texlive-core-feedstock" xlink:title="texlive core">
<ellipse fill="#fde725" stroke="black" cx="418.26" cy="-602" rx="69.62" ry="18"/>
<text xml:space="preserve" text-anchor="middle" x="418.26" y="-597.33" font-family="Times,serif" font-size="14.00">texlive core</text>
</a>
</g>
</g>
<!-- cairo&#45;&gt;texlive&#45;core -->
<g id="edge17" class="edge">
<title>cairo&#45;&gt;texlive&#45;core</title>
<path fill="none" stroke="black" d="M276.12,-732.32C297.84,-723.17 325.87,-709.39 347.26,-692 369.07,-674.27 388.56,-648.78 401.58,-629.61"/>
<polygon fill="black" stroke="black" points="404.34,-631.78 406.94,-621.51 398.5,-627.92 404.34,-631.78"/>
</g>
<!-- harfbuzz&#45;&gt;r&#45;cairo -->
<g id="edge18" class="edge">
<title>harfbuzz&#45;&gt;r&#45;cairo</title>
<path fill="none" stroke="black" d="M257.59,-657.64C240.67,-647.52 218.35,-634.16 200,-623.19"/>
<polygon fill="black" stroke="black" points="201.96,-620.28 191.58,-618.15 198.36,-626.29 201.96,-620.28"/>
</g>
<!-- harfbuzz&#45;&gt;texlive&#45;core -->
<g id="edge19" class="edge">
<title>harfbuzz&#45;&gt;texlive&#45;core</title>
<path fill="none" stroke="black" d="M311.56,-658.33C330.83,-648.33 356.62,-634.96 378.02,-623.87"/>
<polygon fill="black" stroke="black" points="379.51,-627.03 386.78,-619.32 376.29,-620.82 379.51,-627.03"/>
</g>
<!-- tectonic -->
<g id="node17" class="node">
<title>tectonic</title>
<g id="a_node17"><a xlink:href="https://github.com/conda-forge/tectonic-feedstock" xlink:title="tectonic">
<ellipse fill="#fde725" stroke="black" cx="279.26" cy="-602" rx="51.21" ry="18"/>
<text xml:space="preserve" text-anchor="middle" x="279.26" y="-597.33" font-family="Times,serif" font-size="14.00">tectonic</text>
</a>
</g>
</g>
<!-- harfbuzz&#45;&gt;tectonic -->
<g id="edge20" class="edge">
<title>harfbuzz&#45;&gt;tectonic</title>
<path fill="none" stroke="black" d="M282.27,-655.7C281.86,-648.41 281.36,-639.73 280.89,-631.54"/>
<polygon fill="black" stroke="black" points="284.39,-631.4 280.32,-621.62 277.4,-631.8 284.39,-631.4"/>
</g>
<!-- qt&#45;main -->
<g id="node18" class="node">
<title>qt&#45;main</title>
<g id="a_node18"><a xlink:href="https://github.com/conda-forge/qt-main-feedstock" xlink:title="qt main">
<ellipse fill="#fde725" stroke="black" cx="1007.26" cy="-602" rx="49.63" ry="18"/>
<text xml:space="preserve" text-anchor="middle" x="1007.26" y="-597.33" font-family="Times,serif" font-size="14.00">qt main</text>
</a>
</g>
</g>
<!-- harfbuzz&#45;&gt;qt&#45;main -->
<g id="edge21" class="edge">
<title>harfbuzz&#45;&gt;qt&#45;main</title>
<path fill="none" stroke="black" d="M331.71,-665.1C351.94,-661.98 375.7,-658.54 397.26,-656 598.18,-632.31 837.49,-614.55 947.07,-607"/>
<polygon fill="black" stroke="black" points="947.28,-610.49 957.02,-606.32 946.8,-603.51 947.28,-610.49"/>
</g>
<!-- r&#45;base&#45;&gt;r&#45;cairo -->
<g id="edge22" class="edge">
<title>r&#45;base&#45;&gt;r&#45;cairo</title>
<path fill="none" stroke="black" d="M138.98,-656.05C143,-648.23 147.88,-638.75 152.39,-629.98"/>
<polygon fill="black" stroke="black" points="155.47,-631.63 156.93,-621.13 149.25,-628.43 155.47,-631.63"/>
</g>
<!-- r&#45;stringi -->
<g id="node19" class="node">
<title>r&#45;stringi</title>
<g id="a_node19"><a xlink:href="https://github.com/conda-forge/r-stringi-feedstock" xlink:title="r stringi">
<ellipse fill="#fde725" stroke="black" cx="52.26" cy="-602" rx="52.26" ry="18"/>
<text xml:space="preserve" text-anchor="middle" x="52.26" y="-597.33" font-family="Times,serif" font-size="14.00">r stringi</text>
</a>
</g>
</g>
<!-- r&#45;base&#45;&gt;r&#45;stringi -->
<g id="edge23" class="edge">
<title>r&#45;base&#45;&gt;r&#45;stringi</title>
<path fill="none" stroke="black" d="M112.95,-657.46C102.86,-648.41 89.94,-636.82 78.61,-626.65"/>
<polygon fill="black" stroke="black" points="81.24,-624.31 71.46,-620.23 76.57,-629.52 81.24,-624.31"/>
</g>
<!-- qt&#45;main&#45;&gt;paraview -->
<g id="edge24" class="edge">
<title>qt&#45;main&#45;&gt;paraview</title>
<path fill="none" stroke="black" d="M1043.85,-589.42C1051.22,-587.39 1058.94,-585.46 1066.26,-584 1206.19,-556.15 1244.95,-573.86 1385.26,-548 1389.59,-547.2 1394.05,-546.28 1398.52,-545.28"/>
<polygon fill="black" stroke="black" points="1399.16,-548.73 1408.09,-543.03 1397.55,-541.91 1399.16,-548.73"/>
</g>
<!-- qt&#45;main&#45;&gt;qgis -->
<g id="edge25" class="edge">
<title>qt&#45;main&#45;&gt;qgis</title>
<path fill="none" stroke="black" d="M1013.42,-583.98C1021.54,-563.87 1037.76,-530.79 1062.26,-512 1101.48,-481.93 1157.6,-468.86 1196.07,-463.22"/>
<polygon fill="black" stroke="black" points="1196.46,-466.69 1205.91,-461.89 1195.53,-459.76 1196.46,-466.69"/>
</g>
<!-- qt&#45;main&#45;&gt;topologytoolkit -->
<g id="edge26" class="edge">
<title>qt&#45;main&#45;&gt;topologytoolkit</title>
<path fill="none" stroke="black" d="M1023.97,-584.92C1034.72,-574.5 1048.93,-560.57 1061.26,-548 1076.67,-532.29 1075.75,-522.18 1095.26,-512 1118.78,-499.73 1267.68,-480.43 1365.31,-468.81"/>
<polygon fill="black" stroke="black" points="1365.64,-472.3 1375.16,-467.65 1364.82,-465.35 1365.64,-472.3"/>
</g>
<!-- octave -->
<g id="node20" class="node">
<title>octave</title>
<g id="a_node20"><a xlink:href="https://github.com/conda-forge/octave-feedstock" xlink:title="octave">
<ellipse fill="#fde725" stroke="black" cx="1148.26" cy="-530" rx="43.84" ry="18"/>
<text xml:space="preserve" text-anchor="middle" x="1148.26" y="-525.33" font-family="Times,serif" font-size="14.00">octave</text>
</a>
</g>
</g>
<!-- qt&#45;main&#45;&gt;octave -->
<g id="edge27" class="edge">
<title>qt&#45;main&#45;&gt;octave</title>
<path fill="none" stroke="black" d="M1035.79,-586.83C1057.52,-576.05 1087.62,-561.11 1111.21,-549.4"/>
<polygon fill="black" stroke="black" points="1112.45,-552.69 1119.85,-545.11 1109.34,-546.42 1112.45,-552.69"/>
</g>
<!-- qtwebkit -->
<g id="node21" class="node">
<title>qtwebkit</title>
<g id="a_node21"><a xlink:href="https://github.com/conda-forge/qtwebkit-feedstock" xlink:title="qtwebkit">
<ellipse fill="#fde725" stroke="black" cx="796.26" cy="-530" rx="55.42" ry="18"/>
<text xml:space="preserve" text-anchor="middle" x="796.26" y="-525.33" font-family="Times,serif" font-size="14.00">qtwebkit</text>
</a>
</g>
</g>
<!-- qt&#45;main&#45;&gt;qtwebkit -->
<g id="edge28" class="edge">
<title>qt&#45;main&#45;&gt;qtwebkit</title>
<path fill="none" stroke="black" d="M971.47,-589.13C936.54,-577.54 883.16,-559.83 844.5,-547"/>
<polygon fill="black" stroke="black" points="846.04,-543.83 835.45,-544 843.84,-550.47 846.04,-543.83"/>
</g>
<!-- lalinference -->
<g id="node22" class="node">
<title>lalinference</title>
<g id="a_node22"><a xlink:href="https://github.com/conda-forge/lalinference-feedstock" xlink:title="lalinference">
<ellipse fill="#fde725" stroke="black" cx="940.26" cy="-530" rx="70.15" ry="18"/>
<text xml:space="preserve" text-anchor="middle" x="940.26" y="-525.33" font-family="Times,serif" font-size="14.00">lalinference</text>
</a>
</g>
</g>
<!-- qt&#45;main&#45;&gt;lalinference -->
<g id="edge29" class="edge">
<title>qt&#45;main&#45;&gt;lalinference</title>
<path fill="none" stroke="black" d="M991.72,-584.76C983.47,-576.14 973.15,-565.36 963.93,-555.73"/>
<polygon fill="black" stroke="black" points="966.67,-553.53 957.23,-548.73 961.61,-558.37 966.67,-553.53"/>
</g>
<!-- qtwebkit&#45;&gt;qgis -->
<g id="edge50" class="edge">
<title>qtwebkit&#45;&gt;qgis</title>
<path fill="none" stroke="black" d="M837.36,-517.48C845.25,-515.49 853.48,-513.56 861.26,-512 981.75,-487.88 1126.01,-470.9 1196.39,-463.36"/>
<polygon fill="black" stroke="black" points="1196.36,-466.89 1205.93,-462.35 1195.62,-459.93 1196.36,-466.89"/>
</g>
<!-- kaldi -->
<g id="node23" class="node">
<title>kaldi</title>
<g id="a_node23"><a xlink:href="https://github.com/conda-forge/kaldi-feedstock" xlink:title="kaldi">
<ellipse fill="#35b779" stroke="black" cx="2257.26" cy="-854" rx="35.42" ry="18"/>
<text xml:space="preserve" text-anchor="middle" x="2257.26" y="-849.33" font-family="Times,serif" font-size="14.00">kaldi</text>
</a>
</g>
</g>
<!-- libgd -->
<g id="node24" class="node">
<title>libgd</title>
<g id="a_node24"><a xlink:href="https://github.com/conda-forge/libgd-feedstock/pull/57" xlink:title="libgd ❎">
<ellipse fill="#31688e" stroke="black" cx="2257.26" cy="-782" rx="51.74" ry="18"/>
<text xml:space="preserve" text-anchor="middle" x="2257.26" y="-777.33" font-family="Times,serif" font-size="14.00" fill="white">libgd ❎</text>
</a>
</g>
</g>
<!-- kaldi&#45;&gt;libgd -->
<!-- mysql -->
<g id="node25" class="node">
<title>mysql</title>
<g id="a_node25"><a xlink:href="https://github.com/conda-forge/mysql-feedstock" xlink:title="mysql">
<ellipse fill="#35b779" stroke="black" cx="2257.26" cy="-710" rx="41.21" ry="18"/>
<text xml:space="preserve" text-anchor="middle" x="2257.26" y="-705.33" font-family="Times,serif" font-size="14.00">mysql</text>
</a>
</g>
</g>
<!-- libgd&#45;&gt;mysql -->
<!-- nodejs -->
<g id="node35" class="node">
<title>nodejs</title>
<g id="a_node35"><a xlink:href="https://github.com/conda-forge/nodejs-feedstock" xlink:title="nodejs">
<ellipse fill="#35b779" stroke="black" cx="2257.26" cy="-638" rx="43.84" ry="18"/>
<text xml:space="preserve" text-anchor="middle" x="2257.26" y="-633.33" font-family="Times,serif" font-size="14.00">nodejs</text>
</a>
</g>
</g>
<!-- mysql&#45;&gt;nodejs -->
<!-- libxml2 -->
<g id="node26" class="node">
<title>libxml2</title>
<g id="a_node26"><a xlink:href="https://github.com/conda-forge/libxml2-feedstock/pull/170" xlink:title="libxml2 ❎">
<ellipse fill="#31688e" stroke="black" cx="1007.26" cy="-746" rx="63.84" ry="18"/>
<text xml:space="preserve" text-anchor="middle" x="1007.26" y="-741.33" font-family="Times,serif" font-size="14.00" fill="white">libxml2 ❎</text>
</a>
</g>
</g>
<!-- libxml2&#45;&gt;paraview -->
<g id="edge32" class="edge">
<title>libxml2&#45;&gt;paraview</title>
<path fill="none" stroke="black" d="M1071.13,-744.89C1171.55,-743.39 1360.05,-734.77 1409.26,-692 1447.26,-658.97 1452.99,-596.29 1452.77,-559.64"/>
<polygon fill="black" stroke="black" points="1456.27,-559.72 1452.54,-549.8 1449.28,-559.88 1456.27,-559.72"/>
</g>
<!-- libxml2&#45;&gt;qgis -->
<g id="edge33" class="edge">
<title>libxml2&#45;&gt;qgis</title>
<path fill="none" stroke="black" d="M1047.86,-731.67C1069.92,-722.94 1096.64,-709.83 1116.26,-692 1180.07,-634.04 1216.59,-535.14 1231.42,-486.99"/>
<polygon fill="black" stroke="black" points="1234.71,-488.2 1234.22,-477.62 1228,-486.2 1234.71,-488.2"/>
</g>
<!-- libxml2&#45;&gt;exact&#45;real -->
<g id="edge34" class="edge">
<title>libxml2&#45;&gt;exact&#45;real</title>
<path fill="none" stroke="black" d="M1070.86,-743.47C1226.19,-738 1612.26,-713.32 1612.26,-603 1612.26,-603 1612.26,-603 1612.26,-529 1612.26,-488.18 1627.1,-442.93 1638.23,-414.72"/>
<polygon fill="black" stroke="black" points="1641.46,-416.08 1642,-405.49 1634.98,-413.43 1641.46,-416.08"/>
</g>
<!-- libxml2&#45;&gt;libpdal -->
<g id="edge35" class="edge">
<title>libxml2&#45;&gt;libpdal</title>
<path fill="none" stroke="black" d="M1070.55,-743.29C1163.56,-739.59 1331.24,-727.98 1378.26,-692 1417.92,-661.66 1432.63,-628.13 1409.26,-584 1401.23,-568.83 1386.7,-557.2 1372.34,-548.75"/>
<polygon fill="black" stroke="black" points="1374.29,-545.83 1363.84,-544.13 1370.95,-551.98 1374.29,-545.83"/>
</g>
<!-- libxml2&#45;&gt;qt&#45;main -->
<g id="edge36" class="edge">
<title>libxml2&#45;&gt;qt&#45;main</title>
<path fill="none" stroke="black" d="M1007.26,-727.59C1007.26,-703.61 1007.26,-660.14 1007.26,-631.42"/>
<polygon fill="black" stroke="black" points="1010.76,-631.62 1007.26,-621.62 1003.76,-631.62 1010.76,-631.62"/>
</g>
<!-- libxml2&#45;&gt;octave -->
<g id="edge37" class="edge">
<title>libxml2&#45;&gt;octave</title>
<path fill="none" stroke="black" d="M1034.22,-729.41C1066.6,-708.97 1119.43,-669.8 1142.26,-620 1150.9,-601.15 1152.14,-577.67 1151.37,-559.56"/>
<polygon fill="black" stroke="black" points="1154.87,-559.52 1150.7,-549.79 1147.89,-560 1154.87,-559.52"/>
</g>
<!-- libxml2&#45;&gt;qtwebkit -->
<g id="edge40" class="edge">
<title>libxml2&#45;&gt;qtwebkit</title>
<path fill="none" stroke="black" d="M990.7,-728.21C953.64,-690.61 863.83,-599.53 820.47,-555.56"/>
<polygon fill="black" stroke="black" points="823.03,-553.16 813.51,-548.5 818.04,-558.08 823.03,-553.16"/>
</g>
<!-- postgresql -->
<g id="node27" class="node">
<title>postgresql</title>
<g id="a_node27"><a xlink:href="https://github.com/conda-forge/postgresql-feedstock" xlink:title="postgresql">
<ellipse fill="#fde725" stroke="black" cx="1305.26" cy="-674" rx="64.36" ry="18"/>
<text xml:space="preserve" text-anchor="middle" x="1305.26" y="-669.33" font-family="Times,serif" font-size="14.00">postgresql</text>
</a>
</g>
</g>
<!-- libxml2&#45;&gt;postgresql -->
<g id="edge38" class="edge">
<title>libxml2&#45;&gt;postgresql</title>
<path fill="none" stroke="black" d="M1055.14,-733.75C1107.01,-721.57 1189.84,-702.11 1245.84,-688.96"/>
<polygon fill="black" stroke="black" points="1246.6,-692.38 1255.53,-686.68 1245,-685.56 1246.6,-692.38"/>
</g>
<!-- uwsgi -->
<g id="node28" class="node">
<title>uwsgi</title>
<g id="a_node28"><a xlink:href="https://github.com/conda-forge/uwsgi-feedstock" xlink:title="uwsgi">
<ellipse fill="#fde725" stroke="black" cx="447.26" cy="-674" rx="40.69" ry="18"/>
<text xml:space="preserve" text-anchor="middle" x="447.26" y="-669.33" font-family="Times,serif" font-size="14.00">uwsgi</text>
</a>
</g>
</g>
<!-- libxml2&#45;&gt;uwsgi -->
<g id="edge39" class="edge">
<title>libxml2&#45;&gt;uwsgi</title>
<path fill="none" stroke="black" d="M944.47,-742.35C848.37,-737.41 659.44,-724.22 502.26,-692 498.15,-691.16 493.91,-690.13 489.69,-689.01"/>
<polygon fill="black" stroke="black" points="490.72,-685.67 480.14,-686.28 488.8,-692.4 490.72,-685.67"/>
</g>
<!-- ticcutils -->
<g id="node29" class="node">
<title>ticcutils</title>
<g id="a_node29"><a xlink:href="https://github.com/conda-forge/ticcutils-feedstock" xlink:title="ticcutils">
<ellipse fill="#fde725" stroke="black" cx="595.26" cy="-602" rx="51.21" ry="18"/>
<text xml:space="preserve" text-anchor="middle" x="595.26" y="-597.33" font-family="Times,serif" font-size="14.00">ticcutils</text>
</a>
</g>
</g>
<!-- libxml2&#45;&gt;ticcutils -->
<g id="edge41" class="edge">
<title>libxml2&#45;&gt;ticcutils</title>
<path fill="none" stroke="black" d="M945.34,-741.24C858.8,-735.03 707.01,-720.39 660.26,-692 636.45,-677.54 618.69,-650.73 607.81,-630.3"/>
<polygon fill="black" stroke="black" points="611.07,-629 603.43,-621.65 604.83,-632.16 611.07,-629"/>
</g>
<!-- scilab -->
<g id="node30" class="node">
<title>scilab</title>
<g id="a_node30"><a xlink:href="https://github.com/conda-forge/scilab-feedstock" xlink:title="scilab">
<ellipse fill="#fde725" stroke="black" cx="682.26" cy="-530" rx="40.16" ry="18"/>
<text xml:space="preserve" text-anchor="middle" x="682.26" y="-525.33" font-family="Times,serif" font-size="14.00">scilab</text>
</a>
</g>
</g>
<!-- libxml2&#45;&gt;scilab -->
<g id="edge42" class="edge">
<title>libxml2&#45;&gt;scilab</title>
<path fill="none" stroke="black" d="M943.54,-743.82C893.69,-739.94 824.91,-727.77 776.26,-692 730.61,-658.44 703.44,-595.49 690.82,-559.04"/>
<polygon fill="black" stroke="black" points="694.17,-558.04 687.71,-549.65 687.53,-560.24 694.17,-558.04"/>
</g>
<!-- libical -->
<g id="node31" class="node">
<title>libical</title>
<g id="a_node31"><a xlink:href="https://github.com/conda-forge/libical-feedstock" xlink:title="libical">
<ellipse fill="#fde725" stroke="black" cx="516.26" cy="-458" rx="41.21" ry="18"/>
<text xml:space="preserve" text-anchor="middle" x="516.26" y="-453.32" font-family="Times,serif" font-size="14.00">libical</text>
</a>
</g>
</g>
<!-- libxml2&#45;&gt;libical -->
<g id="edge43" class="edge">
<title>libxml2&#45;&gt;libical</title>
<path fill="none" stroke="black" d="M945.78,-740.78C851.76,-733.63 677.17,-717.37 620.26,-692 575.04,-671.84 558.68,-663.62 535.26,-620 512.73,-578.04 511.68,-521.2 513.56,-487.49"/>
<polygon fill="black" stroke="black" points="517.04,-487.92 514.25,-477.7 510.06,-487.43 517.04,-487.92"/>
</g>
<!-- libxmlsec1 -->
<g id="node32" class="node">
<title>libxmlsec1</title>
<g id="a_node32"><a xlink:href="https://github.com/conda-forge/libxmlsec1-feedstock" xlink:title="libxmlsec1">
<ellipse fill="#fde725" stroke="black" cx="614.26" cy="-386" rx="64.89" ry="18"/>
<text xml:space="preserve" text-anchor="middle" x="614.26" y="-381.32" font-family="Times,serif" font-size="14.00">libxmlsec1</text>
</a>
</g>
</g>
<!-- libxml2&#45;&gt;libxmlsec1 -->
<g id="edge44" class="edge">
<title>libxml2&#45;&gt;libxmlsec1</title>
<path fill="none" stroke="black" d="M948.5,-738.56C879.93,-730.18 771.56,-713.96 737.26,-692 728.95,-686.68 636.84,-557.2 633.26,-548 616.14,-504.05 613.29,-448.64 613.37,-415.62"/>
<polygon fill="black" stroke="black" points="616.87,-415.68 613.5,-405.64 609.87,-415.59 616.87,-415.68"/>
</g>
<!-- libabigail -->
<g id="node33" class="node">
<title>libabigail</title>
<g id="a_node33"><a xlink:href="https://github.com/conda-forge/libabigail-feedstock" xlink:title="libabigail">
<ellipse fill="#fde725" stroke="black" cx="843.26" cy="-674" rx="57.52" ry="18"/>
<text xml:space="preserve" text-anchor="middle" x="843.26" y="-669.33" font-family="Times,serif" font-size="14.00">libabigail</text>
</a>
</g>
</g>
<!-- libxml2&#45;&gt;libabigail -->
<g id="edge45" class="edge">
<title>libxml2&#45;&gt;libabigail</title>
<path fill="none" stroke="black" d="M973.28,-730.5C948.18,-719.78 913.82,-705.12 886.73,-693.55"/>
<polygon fill="black" stroke="black" points="888.32,-690.43 877.75,-689.72 885.57,-696.87 888.32,-690.43"/>
</g>
<!-- ds9 -->
<g id="node34" class="node">
<title>ds9</title>
<g id="a_node34"><a xlink:href="https://github.com/conda-forge/ds9-feedstock" xlink:title="ds9">
<ellipse fill="#fde725" stroke="black" cx="1104.26" cy="-602" rx="29.11" ry="18"/>
<text xml:space="preserve" text-anchor="middle" x="1104.26" y="-597.33" font-family="Times,serif" font-size="14.00">ds9</text>
</a>
</g>
</g>
<!-- libxml2&#45;&gt;ds9 -->
<g id="edge46" class="edge">
<title>libxml2&#45;&gt;ds9</title>
<path fill="none" stroke="black" d="M1018.96,-727.87C1035.91,-703.06 1067.4,-656.96 1087.01,-628.25"/>
<polygon fill="black" stroke="black" points="1089.81,-630.36 1092.56,-620.13 1084.03,-626.41 1089.81,-630.36"/>
</g>
<!-- postgresql&#45;&gt;qgis -->
<g id="edge47" class="edge">
<title>postgresql&#45;&gt;qgis</title>
<path fill="none" stroke="black" d="M1291.76,-656.3C1284.34,-646.32 1275.59,-633.07 1270.26,-620 1252.26,-575.82 1244.54,-520.49 1241.36,-487.54"/>
<polygon fill="black" stroke="black" points="1244.85,-487.24 1240.48,-477.58 1237.87,-487.85 1244.85,-487.24"/>
</g>
<!-- postgresql&#45;&gt;libpdal -->
<g id="edge48" class="edge">
<title>postgresql&#45;&gt;libpdal</title>
<path fill="none" stroke="black" d="M1344.49,-659.48C1362.43,-651.09 1381.95,-638.35 1392.26,-620 1400.1,-606.05 1398.9,-598.56 1392.26,-584 1386.44,-571.23 1375.86,-560.36 1365.13,-551.84"/>
<polygon fill="black" stroke="black" points="1367.52,-549.25 1357.39,-546.14 1363.37,-554.89 1367.52,-549.25"/>
</g>
<!-- postgresql&#45;&gt;qt&#45;main -->
<g id="edge49" class="edge">
<title>postgresql&#45;&gt;qt&#45;main</title>
<path fill="none" stroke="black" d="M1254.22,-662.64C1205.69,-652.57 1130.72,-636.42 1066.26,-620 1062.75,-619.11 1059.13,-618.15 1055.49,-617.16"/>
<polygon fill="black" stroke="black" points="1056.65,-613.85 1046.08,-614.55 1054.78,-620.6 1056.65,-613.85"/>
</g>
<!-- pyicu -->
<g id="node36" class="node">
<title>pyicu</title>
<g id="a_node36"><a xlink:href="https://github.com/conda-forge/pyicu-feedstock" xlink:title="pyicu">
<ellipse fill="#35b779" stroke="black" cx="2257.26" cy="-566" rx="38.06" ry="18"/>
<text xml:space="preserve" text-anchor="middle" x="2257.26" y="-561.33" font-family="Times,serif" font-size="14.00">pyicu</text>
</a>
</g>
</g>
<!-- nodejs&#45;&gt;pyicu -->
<!-- tensorflow -->
<g id="node38" class="node">
<title>tensorflow</title>
<g id="a_node38"><a xlink:href="https://github.com/conda-forge/tensorflow-feedstock" xlink:title="tensorflow">
<ellipse fill="#35b779" stroke="black" cx="2257.26" cy="-494" rx="63.84" ry="18"/>
<text xml:space="preserve" text-anchor="middle" x="2257.26" y="-489.32" font-family="Times,serif" font-size="14.00">tensorflow</text>
</a>
</g>
</g>
<!-- pyicu&#45;&gt;tensorflow -->
<!-- xerces&#45;c -->
<g id="node37" class="node">
<title>xerces&#45;c</title>
<g id="a_node37"><a xlink:href="https://github.com/conda-forge/xerces-c-feedstock" xlink:title="xerces c">
<ellipse fill="#35b779" stroke="black" cx="1331.26" cy="-602" rx="52.26" ry="18"/>
<text xml:space="preserve" text-anchor="middle" x="1331.26" y="-597.33" font-family="Times,serif" font-size="14.00">xerces c</text>
</a>
</g>
</g>
<!-- xerces&#45;c&#45;&gt;libpdal -->
<g id="edge53" class="edge">
<title>xerces&#45;c&#45;&gt;libpdal</title>
<path fill="none" stroke="black" d="M1331.26,-583.7C1331.26,-576.41 1331.26,-567.73 1331.26,-559.54"/>
<polygon fill="black" stroke="black" points="1334.76,-559.62 1331.26,-549.62 1327.76,-559.62 1334.76,-559.62"/>
</g>
<!-- libv8 -->
<g id="node39" class="node">
<title>libv8</title>
<g id="a_node39"><a xlink:href="https://github.com/conda-forge/libv8-feedstock" xlink:title="libv8">
<ellipse fill="#35b779" stroke="black" cx="2257.26" cy="-422" rx="35.95" ry="18"/>
<text xml:space="preserve" text-anchor="middle" x="2257.26" y="-417.32" font-family="Times,serif" font-size="14.00">libv8</text>
</a>
</g>
</g>
<!-- tensorflow&#45;&gt;libv8 -->
<!-- baumwelch -->
<g id="node40" class="node">
<title>baumwelch</title>
<g id="a_node40"><a xlink:href="https://github.com/conda-forge/baumwelch-feedstock" xlink:title="baumwelch">
<ellipse fill="#35b779" stroke="black" cx="2257.26" cy="-350" rx="68.04" ry="18"/>
<text xml:space="preserve" text-anchor="middle" x="2257.26" y="-345.32" font-family="Times,serif" font-size="14.00">baumwelch</text>
</a>
</g>
</g>
<!-- libv8&#45;&gt;baumwelch -->
<!-- libpsl -->
<g id="node41" class="node">
<title>libpsl</title>
<g id="a_node41"><a xlink:href="https://github.com/conda-forge/libpsl-feedstock" xlink:title="libpsl">
<ellipse fill="#35b779" stroke="black" cx="2257.26" cy="-278" rx="38.58" ry="18"/>
<text xml:space="preserve" text-anchor="middle" x="2257.26" y="-273.32" font-family="Times,serif" font-size="14.00">libpsl</text>
</a>
</g>
</g>
<!-- baumwelch&#45;&gt;libpsl -->
<!-- libmongoc -->
<g id="node42" class="node">
<title>libmongoc</title>
<g id="a_node42"><a xlink:href="https://github.com/conda-forge/libmongoc-feedstock" xlink:title="libmongoc">
<ellipse fill="#35b779" stroke="black" cx="2257.26" cy="-206" rx="62.78" ry="18"/>
<text xml:space="preserve" text-anchor="middle" x="2257.26" y="-201.33" font-family="Times,serif" font-size="14.00">libmongoc</text>
</a>
</g>
</g>
<!-- libpsl&#45;&gt;libmongoc -->
<!-- duckdb&#45;split -->
<g id="node43" class="node">
<title>duckdb&#45;split</title>
<g id="a_node43"><a xlink:href="https://github.com/conda-forge/duckdb-split-feedstock" xlink:title="duckdb split">
<ellipse fill="#35b779" stroke="black" cx="2257.26" cy="-134" rx="72.78" ry="18"/>
<text xml:space="preserve" text-anchor="middle" x="2257.26" y="-129.32" font-family="Times,serif" font-size="14.00">duckdb split</text>
</a>
</g>
</g>
<!-- libmongoc&#45;&gt;duckdb&#45;split -->
<!-- spidermonkey -->
<g id="node44" class="node">
<title>spidermonkey</title>
<g id="a_node44"><a xlink:href="https://github.com/conda-forge/spidermonkey-feedstock" xlink:title="spidermonkey">
<ellipse fill="#35b779" stroke="black" cx="1088.26" cy="-90" rx="81.72" ry="18"/>
<text xml:space="preserve" text-anchor="middle" x="1088.26" y="-85.33" font-family="Times,serif" font-size="14.00">spidermonkey</text>
</a>
</g>
</g>
<!-- couchdb -->
<g id="node45" class="node">
<title>couchdb</title>
<g id="a_node45"><a xlink:href="https://github.com/conda-forge/couchdb-feedstock" xlink:title="couchdb">
<ellipse fill="#fde725" stroke="black" cx="1088.26" cy="-18" rx="52.79" ry="18"/>
<text xml:space="preserve" text-anchor="middle" x="1088.26" y="-13.32" font-family="Times,serif" font-size="14.00">couchdb</text>
</a>
</g>
</g>
<!-- spidermonkey&#45;&gt;couchdb -->
<g id="edge60" class="edge">
<title>spidermonkey&#45;&gt;couchdb</title>
<path fill="none" stroke="black" d="M1088.26,-71.7C1088.26,-64.41 1088.26,-55.73 1088.26,-47.54"/>
<polygon fill="black" stroke="black" points="1091.76,-47.62 1088.26,-37.62 1084.76,-47.62 1091.76,-47.62"/>
</g>
<!-- openvino&#45;tokenizers -->
<g id="node46" class="node">
<title>openvino&#45;tokenizers</title>
<g id="a_node46"><a xlink:href="https://github.com/conda-forge/openvino-tokenizers-feedstock" xlink:title="openvino tokenizers">
<ellipse fill="#35b779" stroke="black" cx="2450.26" cy="-530" rx="111.71" ry="18"/>
<text xml:space="preserve" text-anchor="middle" x="2450.26" y="-525.33" font-family="Times,serif" font-size="14.00">openvino tokenizers</text>
</a>
</g>
</g>
<!-- zk -->
<g id="node47" class="node">
<title>zk</title>
<g id="a_node47"><a xlink:href="https://github.com/conda-forge/zk-feedstock" xlink:title="zk">
<ellipse fill="#35b779" stroke="black" cx="2450.26" cy="-458" rx="27" ry="18"/>
<text xml:space="preserve" text-anchor="middle" x="2450.26" y="-453.32" font-family="Times,serif" font-size="14.00">zk</text>
</a>
</g>
</g>
<!-- openvino&#45;tokenizers&#45;&gt;zk -->
</g>
</svg>
