<?xml version="1.0" encoding="UTF-8" standalone="no"?>
<!DOCTYPE svg PUBLIC "-//W3C//DTD SVG 1.1//EN"
 "http://www.w3.org/Graphics/SVG/1.1/DTD/svg11.dtd">
<!-- Generated by graphviz version 13.1.2 (20250809.0930)
 -->
<!-- Pages: 1 -->
<svg width="1246pt" height="880pt"
 viewBox="0.00 0.00 1246.00 880.00" xmlns="http://www.w3.org/2000/svg" xmlns:xlink="http://www.w3.org/1999/xlink">
<g id="graph0" class="graph" transform="scale(1 1) rotate(0) translate(4 876)">
<polygon fill="white" stroke="none" points="-4,4 -4,-876 1241.57,-876 1241.57,4 -4,4"/>
<!-- harfbuzz -->
<g id="node1" class="node">
<title>harfbuzz</title>
<g id="a_node1"><a xlink:href="https://github.com/conda-forge/harfbuzz-feedstock" xlink:title="harfbuzz">
<ellipse fill="#35b779" stroke="black" cx="550.42" cy="-674" rx="54.89" ry="18"/>
<text xml:space="preserve" text-anchor="middle" x="550.42" y="-669.33" font-family="Times,serif" font-size="14.00">harfbuzz</text>
</a>
</g>
</g>
<!-- r&#45;cairo -->
<g id="node2" class="node">
<title>r&#45;cairo</title>
<g id="a_node2"><a xlink:href="https://github.com/conda-forge/r-cairo-feedstock" xlink:title="r cairo">
<ellipse fill="#fde725" stroke="black" cx="683.42" cy="-602" rx="43.84" ry="18"/>
<text xml:space="preserve" text-anchor="middle" x="683.42" y="-597.33" font-family="Times,serif" font-size="14.00">r cairo</text>
</a>
</g>
</g>
<!-- harfbuzz&#45;&gt;r&#45;cairo -->
<g id="edge1" class="edge">
<title>harfbuzz&#45;&gt;r&#45;cairo</title>
<path fill="none" stroke="black" d="M578.63,-658.15C598.55,-647.67 625.42,-633.53 646.97,-622.18"/>
<polygon fill="black" stroke="black" points="648.51,-625.33 655.73,-617.58 645.25,-619.14 648.51,-625.33"/>
</g>
<!-- tectonic -->
<g id="node3" class="node">
<title>tectonic</title>
<g id="a_node3"><a xlink:href="https://github.com/conda-forge/tectonic-feedstock" xlink:title="tectonic">
<ellipse fill="#fde725" stroke="black" cx="532.42" cy="-602" rx="51.21" ry="18"/>
<text xml:space="preserve" text-anchor="middle" x="532.42" y="-597.33" font-family="Times,serif" font-size="14.00">tectonic</text>
</a>
</g>
</g>
<!-- harfbuzz&#45;&gt;tectonic -->
<g id="edge2" class="edge">
<title>harfbuzz&#45;&gt;tectonic</title>
<path fill="none" stroke="black" d="M545.97,-655.7C544.08,-648.32 541.81,-639.52 539.69,-631.25"/>
<polygon fill="black" stroke="black" points="543.08,-630.38 537.2,-621.57 536.3,-632.13 543.08,-630.38"/>
</g>
<!-- texlive&#45;core -->
<g id="node4" class="node">
<title>texlive&#45;core</title>
<g id="a_node4"><a xlink:href="https://github.com/conda-forge/texlive-core-feedstock" xlink:title="texlive core">
<ellipse fill="#fde725" stroke="black" cx="611.42" cy="-530" rx="69.62" ry="18"/>
<text xml:space="preserve" text-anchor="middle" x="611.42" y="-525.33" font-family="Times,serif" font-size="14.00">texlive core</text>
</a>
</g>
</g>
<!-- harfbuzz&#45;&gt;texlive&#45;core -->
<g id="edge3" class="edge">
<title>harfbuzz&#45;&gt;texlive&#45;core</title>
<path fill="none" stroke="black" d="M566.62,-656.7C575.52,-646.84 586.02,-633.59 592.42,-620 601.38,-600.98 606.16,-577.68 608.68,-559.7"/>
<polygon fill="black" stroke="black" points="612.13,-560.33 609.88,-549.98 605.18,-559.48 612.13,-560.33"/>
</g>
<!-- qt&#45;main -->
<g id="node5" class="node">
<title>qt&#45;main</title>
<g id="a_node5"><a xlink:href="https://github.com/conda-forge/qt-main-feedstock" xlink:title="qt main">
<ellipse fill="#fde725" stroke="black" cx="322.42" cy="-602" rx="49.63" ry="18"/>
<text xml:space="preserve" text-anchor="middle" x="322.42" y="-597.33" font-family="Times,serif" font-size="14.00">qt main</text>
</a>
</g>
</g>
<!-- harfbuzz&#45;&gt;qt&#45;main -->
<g id="edge4" class="edge">
<title>harfbuzz&#45;&gt;qt&#45;main</title>
<path fill="none" stroke="black" d="M511.23,-660.97C472.07,-648.95 411.84,-630.45 369.98,-617.6"/>
<polygon fill="black" stroke="black" points="371.25,-614.33 360.67,-614.74 369.2,-621.02 371.25,-614.33"/>
</g>
<!-- octave -->
<g id="node6" class="node">
<title>octave</title>
<g id="a_node6"><a xlink:href="https://github.com/conda-forge/octave-feedstock" xlink:title="octave">
<ellipse fill="#fde725" stroke="black" cx="358.42" cy="-530" rx="43.84" ry="18"/>
<text xml:space="preserve" text-anchor="middle" x="358.42" y="-525.33" font-family="Times,serif" font-size="14.00">octave</text>
</a>
</g>
</g>
<!-- qt&#45;main&#45;&gt;octave -->
<g id="edge5" class="edge">
<title>qt&#45;main&#45;&gt;octave</title>
<path fill="none" stroke="black" d="M331.14,-584.05C335.16,-576.23 340.04,-566.75 344.55,-557.98"/>
<polygon fill="black" stroke="black" points="347.63,-559.63 349.09,-549.13 341.41,-556.43 347.63,-559.63"/>
</g>
<!-- paraview -->
<g id="node7" class="node">
<title>paraview</title>
<g id="a_node7"><a xlink:href="https://github.com/conda-forge/paraview-feedstock" xlink:title="paraview">
<ellipse fill="#fde725" stroke="black" cx="310.42" cy="-458" rx="57" ry="18"/>
<text xml:space="preserve" text-anchor="middle" x="310.42" y="-453.32" font-family="Times,serif" font-size="14.00">paraview</text>
</a>
</g>
</g>
<!-- qt&#45;main&#45;&gt;paraview -->
<g id="edge6" class="edge">
<title>qt&#45;main&#45;&gt;paraview</title>
<path fill="none" stroke="black" d="M315.53,-584.14C311.72,-573.88 307.36,-560.41 305.42,-548 302.27,-527.87 303.68,-504.92 305.8,-487.36"/>
<polygon fill="black" stroke="black" points="309.24,-488.05 307.12,-477.67 302.3,-487.1 309.24,-488.05"/>
</g>
<!-- topologytoolkit -->
<g id="node8" class="node">
<title>topologytoolkit</title>
<g id="a_node8"><a xlink:href="https://github.com/conda-forge/topologytoolkit-feedstock" xlink:title="topologytoolkit">
<ellipse fill="#fde725" stroke="black" cx="270.42" cy="-386" rx="86.46" ry="18"/>
<text xml:space="preserve" text-anchor="middle" x="270.42" y="-381.32" font-family="Times,serif" font-size="14.00">topologytoolkit</text>
</a>
</g>
</g>
<!-- qt&#45;main&#45;&gt;topologytoolkit -->
<g id="edge7" class="edge">
<title>qt&#45;main&#45;&gt;topologytoolkit</title>
<path fill="none" stroke="black" d="M307.96,-584.69C289.04,-562.13 256.82,-519.28 244.42,-476 240.02,-460.62 240.8,-455.59 244.42,-440 246.48,-431.11 250.25,-422 254.3,-413.89"/>
<polygon fill="black" stroke="black" points="257.29,-415.72 258.93,-405.25 251.12,-412.41 257.29,-415.72"/>
</g>
<!-- qgis -->
<g id="node9" class="node">
<title>qgis</title>
<g id="a_node9"><a xlink:href="https://github.com/conda-forge/qgis-feedstock" xlink:title="qgis">
<ellipse fill="#fde725" stroke="black" cx="137.42" cy="-314" rx="32.27" ry="18"/>
<text xml:space="preserve" text-anchor="middle" x="137.42" y="-309.32" font-family="Times,serif" font-size="14.00">qgis</text>
</a>
</g>
</g>
<!-- qt&#45;main&#45;&gt;qgis -->
<g id="edge8" class="edge">
<title>qt&#45;main&#45;&gt;qgis</title>
<path fill="none" stroke="black" d="M298.78,-585.8C284.99,-576.13 267.91,-562.69 255.42,-548 200.61,-483.5 162.99,-389.17 146.64,-342.81"/>
<polygon fill="black" stroke="black" points="150.01,-341.85 143.43,-333.54 143.39,-344.13 150.01,-341.85"/>
</g>
<!-- qtwebkit -->
<g id="node10" class="node">
<title>qtwebkit</title>
<g id="a_node10"><a xlink:href="https://github.com/conda-forge/qtwebkit-feedstock" xlink:title="qtwebkit">
<ellipse fill="#fde725" stroke="black" cx="430.42" cy="-386" rx="55.42" ry="18"/>
<text xml:space="preserve" text-anchor="middle" x="430.42" y="-381.32" font-family="Times,serif" font-size="14.00">qtwebkit</text>
</a>
</g>
</g>
<!-- qt&#45;main&#45;&gt;qtwebkit -->
<g id="edge9" class="edge">
<title>qt&#45;main&#45;&gt;qtwebkit</title>
<path fill="none" stroke="black" d="M357.52,-588.98C376.64,-580.56 398.89,-567.31 411.42,-548 437.6,-507.66 437.3,-449.45 434.2,-415.2"/>
<polygon fill="black" stroke="black" points="437.72,-415.23 433.19,-405.65 430.76,-415.96 437.72,-415.23"/>
</g>
<!-- lalinference -->
<g id="node11" class="node">
<title>lalinference</title>
<g id="a_node11"><a xlink:href="https://github.com/conda-forge/lalinference-feedstock" xlink:title="lalinference">
<ellipse fill="#fde725" stroke="black" cx="513.42" cy="-314" rx="70.15" ry="18"/>
<text xml:space="preserve" text-anchor="middle" x="513.42" y="-309.32" font-family="Times,serif" font-size="14.00">lalinference</text>
</a>
</g>
</g>
<!-- qt&#45;main&#45;&gt;lalinference -->
<g id="edge10" class="edge">
<title>qt&#45;main&#45;&gt;lalinference</title>
<path fill="none" stroke="black" d="M361.08,-590.27C384.6,-582.03 413.79,-568.53 433.42,-548 488.75,-490.13 505.94,-392.3 511.18,-343.9"/>
<polygon fill="black" stroke="black" points="514.67,-344.24 512.15,-333.95 507.7,-343.56 514.67,-344.24"/>
</g>
<!-- paraview&#45;&gt;topologytoolkit -->
<g id="edge12" class="edge">
<title>paraview&#45;&gt;topologytoolkit</title>
<path fill="none" stroke="black" d="M300.74,-440.05C296.28,-432.26 290.89,-422.82 285.89,-414.08"/>
<polygon fill="black" stroke="black" points="289.04,-412.54 281.04,-405.59 282.97,-416.01 289.04,-412.54"/>
</g>
<!-- qtwebkit&#45;&gt;qgis -->
<g id="edge20" class="edge">
<title>qtwebkit&#45;&gt;qgis</title>
<path fill="none" stroke="black" d="M388.51,-373.86C380.84,-371.87 372.9,-369.85 365.42,-368 300.09,-351.87 223.89,-334.43 178.21,-324.13"/>
<polygon fill="black" stroke="black" points="179,-320.72 168.47,-321.94 177.46,-327.55 179,-320.72"/>
</g>
<!-- nodejs -->
<g id="node12" class="node">
<title>nodejs</title>
<g id="a_node12"><a xlink:href="https://github.com/conda-forge/nodejs-feedstock/pull/436" xlink:title="nodejs ❎">
<ellipse fill="#31688e" stroke="black" cx="963.42" cy="-854" rx="59.1" ry="18"/>
<text xml:space="preserve" text-anchor="middle" x="963.42" y="-849.33" font-family="Times,serif" font-size="14.00" fill="white">nodejs ❎</text>
</a>
</g>
</g>
<!-- uwsgi -->
<g id="node13" class="node">
<title>uwsgi</title>
<g id="a_node13"><a xlink:href="https://github.com/conda-forge/uwsgi-feedstock/pull/104" xlink:title="uwsgi ❎">
<ellipse fill="#31688e" stroke="black" cx="963.42" cy="-782" rx="55.94" ry="18"/>
<text xml:space="preserve" text-anchor="middle" x="963.42" y="-777.33" font-family="Times,serif" font-size="14.00" fill="white">uwsgi ❎</text>
</a>
</g>
</g>
<!-- nodejs&#45;&gt;uwsgi -->
<!-- tensorflow -->
<g id="node18" class="node">
<title>tensorflow</title>
<g id="a_node18"><a xlink:href="https://github.com/conda-forge/tensorflow-feedstock/pull/471" xlink:title="tensorflow ❎">
<ellipse fill="#31688e" stroke="black" cx="963.42" cy="-710" rx="79.09" ry="18"/>
<text xml:space="preserve" text-anchor="middle" x="963.42" y="-705.33" font-family="Times,serif" font-size="14.00" fill="white">tensorflow ❎</text>
</a>
</g>
</g>
<!-- uwsgi&#45;&gt;tensorflow -->
<!-- postgresql -->
<g id="node14" class="node">
<title>postgresql</title>
<g id="a_node14"><a xlink:href="https://github.com/conda-forge/postgresql-feedstock/pull/277" xlink:title="postgresql ❎">
<ellipse fill="#31688e" stroke="black" cx="118.42" cy="-674" rx="79.62" ry="18"/>
<text xml:space="preserve" text-anchor="middle" x="118.42" y="-669.33" font-family="Times,serif" font-size="14.00" fill="white">postgresql ❎</text>
</a>
</g>
</g>
<!-- postgresql&#45;&gt;qt&#45;main -->
<g id="edge13" class="edge">
<title>postgresql&#45;&gt;qt&#45;main</title>
<path fill="none" stroke="black" d="M160.69,-658.5C194.49,-646.9 241.81,-630.66 276.53,-618.75"/>
<polygon fill="black" stroke="black" points="277.58,-622.09 285.9,-615.53 275.31,-615.47 277.58,-622.09"/>
</g>
<!-- postgresql&#45;&gt;qgis -->
<g id="edge14" class="edge">
<title>postgresql&#45;&gt;qgis</title>
<path fill="none" stroke="black" d="M118.42,-655.51C118.42,-628.71 118.42,-575.87 118.42,-531 118.42,-531 118.42,-531 118.42,-457 118.42,-417.17 125.85,-371.61 131.42,-343.07"/>
<polygon fill="black" stroke="black" points="134.82,-343.93 133.37,-333.43 127.96,-342.54 134.82,-343.93"/>
</g>
<!-- libpdal -->
<g id="node15" class="node">
<title>libpdal</title>
<g id="a_node15"><a xlink:href="https://github.com/conda-forge/libpdal-feedstock" xlink:title="libpdal">
<ellipse fill="#fde725" stroke="black" cx="45.42" cy="-458" rx="45.42" ry="18"/>
<text xml:space="preserve" text-anchor="middle" x="45.42" y="-453.32" font-family="Times,serif" font-size="14.00">libpdal</text>
</a>
</g>
</g>
<!-- postgresql&#45;&gt;libpdal -->
<g id="edge15" class="edge">
<title>postgresql&#45;&gt;libpdal</title>
<path fill="none" stroke="black" d="M112.57,-655.85C100,-618.99 70.3,-531.92 54.96,-486.96"/>
<polygon fill="black" stroke="black" points="58.33,-486 51.79,-477.66 51.7,-488.26 58.33,-486"/>
</g>
<!-- libpdal&#45;&gt;qgis -->
<g id="edge16" class="edge">
<title>libpdal&#45;&gt;qgis</title>
<path fill="none" stroke="black" d="M56.34,-440.15C72.26,-415.57 101.99,-369.68 120.69,-340.82"/>
<polygon fill="black" stroke="black" points="123.48,-342.95 125.98,-332.66 117.61,-339.15 123.48,-342.95"/>
</g>
<!-- r&#45;base -->
<g id="node16" class="node">
<title>r&#45;base</title>
<g id="a_node16"><a xlink:href="https://github.com/conda-forge/r-base-feedstock" xlink:title="r base">
<ellipse fill="#35b779" stroke="black" cx="740.42" cy="-674" rx="42.26" ry="18"/>
<text xml:space="preserve" text-anchor="middle" x="740.42" y="-669.33" font-family="Times,serif" font-size="14.00">r base</text>
</a>
</g>
</g>
<!-- r&#45;base&#45;&gt;r&#45;cairo -->
<g id="edge17" class="edge">
<title>r&#45;base&#45;&gt;r&#45;cairo</title>
<path fill="none" stroke="black" d="M727.2,-656.76C720.22,-648.19 711.51,-637.49 703.7,-627.9"/>
<polygon fill="black" stroke="black" points="706.55,-625.87 697.53,-620.32 701.13,-630.29 706.55,-625.87"/>
</g>
<!-- r&#45;stringi -->
<g id="node17" class="node">
<title>r&#45;stringi</title>
<g id="a_node17"><a xlink:href="https://github.com/conda-forge/r-stringi-feedstock" xlink:title="r stringi">
<ellipse fill="#fde725" stroke="black" cx="797.42" cy="-602" rx="52.26" ry="18"/>
<text xml:space="preserve" text-anchor="middle" x="797.42" y="-597.33" font-family="Times,serif" font-size="14.00">r stringi</text>
</a>
</g>
</g>
<!-- r&#45;base&#45;&gt;r&#45;stringi -->
<g id="edge18" class="edge">
<title>r&#45;base&#45;&gt;r&#45;stringi</title>
<path fill="none" stroke="black" d="M753.64,-656.76C760.52,-648.32 769.08,-637.8 776.81,-628.31"/>
<polygon fill="black" stroke="black" points="779.32,-630.77 782.92,-620.81 773.89,-626.35 779.32,-630.77"/>
</g>
<!-- ticcutils -->
<g id="node19" class="node">
<title>ticcutils</title>
<g id="a_node19"><a xlink:href="https://github.com/conda-forge/ticcutils-feedstock/pull/41" xlink:title="ticcutils ❎">
<ellipse fill="#31688e" stroke="black" cx="963.42" cy="-638" rx="66.47" ry="18"/>
<text xml:space="preserve" text-anchor="middle" x="963.42" y="-633.33" font-family="Times,serif" font-size="14.00" fill="white">ticcutils ❎</text>
</a>
</g>
</g>
<!-- tensorflow&#45;&gt;ticcutils -->
<!-- clickhouse&#45;odbc -->
<g id="node20" class="node">
<title>clickhouse&#45;odbc</title>
<g id="a_node20"><a xlink:href="https://github.com/conda-forge/clickhouse-odbc-feedstock/pull/38" xlink:title="clickhouse odbc ❎">
<ellipse fill="#31688e" stroke="black" cx="963.42" cy="-566" rx="105.4" ry="18"/>
<text xml:space="preserve" text-anchor="middle" x="963.42" y="-561.33" font-family="Times,serif" font-size="14.00" fill="white">clickhouse odbc ❎</text>
</a>
</g>
</g>
<!-- ticcutils&#45;&gt;clickhouse&#45;odbc -->
<!-- mongodb -->
<g id="node21" class="node">
<title>mongodb</title>
<g id="a_node21"><a xlink:href="https://github.com/conda-forge/mongodb-feedstock/pull/107" xlink:title="mongodb ❎">
<ellipse fill="#31688e" stroke="black" cx="963.42" cy="-494" rx="72.78" ry="18"/>
<text xml:space="preserve" text-anchor="middle" x="963.42" y="-489.32" font-family="Times,serif" font-size="14.00" fill="white">mongodb ❎</text>
</a>
</g>
</g>
<!-- clickhouse&#45;odbc&#45;&gt;mongodb -->
<!-- scilab -->
<g id="node24" class="node">
<title>scilab</title>
<g id="a_node24"><a xlink:href="https://github.com/conda-forge/scilab-feedstock/pull/61" xlink:title="scilab ❎">
<ellipse fill="#31688e" stroke="black" cx="963.42" cy="-422" rx="55.42" ry="18"/>
<text xml:space="preserve" text-anchor="middle" x="963.42" y="-417.32" font-family="Times,serif" font-size="14.00" fill="white">scilab ❎</text>
</a>
</g>
</g>
<!-- mongodb&#45;&gt;scilab -->
<!-- e&#45;antic -->
<g id="node22" class="node">
<title>e&#45;antic</title>
<g id="a_node22"><a xlink:href="https://github.com/conda-forge/e-antic-feedstock/pull/73" xlink:title="e antic ❎">
<ellipse fill="#31688e" stroke="black" cx="963.42" cy="-90" rx="60.15" ry="18"/>
<text xml:space="preserve" text-anchor="middle" x="963.42" y="-85.33" font-family="Times,serif" font-size="14.00" fill="white">e antic ❎</text>
</a>
</g>
</g>
<!-- exact&#45;real -->
<g id="node23" class="node">
<title>exact&#45;real</title>
<g id="a_node23"><a xlink:href="https://github.com/conda-forge/exact-real-feedstock" xlink:title="exact real">
<ellipse fill="#fde725" stroke="black" cx="963.42" cy="-18" rx="60.68" ry="18"/>
<text xml:space="preserve" text-anchor="middle" x="963.42" y="-13.32" font-family="Times,serif" font-size="14.00">exact real</text>
</a>
</g>
</g>
<!-- e&#45;antic&#45;&gt;exact&#45;real -->
<g id="edge24" class="edge">
<title>e&#45;antic&#45;&gt;exact&#45;real</title>
<path fill="none" stroke="black" d="M963.42,-71.7C963.42,-64.41 963.42,-55.73 963.42,-47.54"/>
<polygon fill="black" stroke="black" points="966.92,-47.62 963.42,-37.62 959.92,-47.62 966.92,-47.62"/>
</g>
<!-- libical -->
<g id="node25" class="node">
<title>libical</title>
<g id="a_node25"><a xlink:href="https://github.com/conda-forge/libical-feedstock/pull/30" xlink:title="libical ❎">
<ellipse fill="#31688e" stroke="black" cx="963.42" cy="-350" rx="56.47" ry="18"/>
<text xml:space="preserve" text-anchor="middle" x="963.42" y="-345.32" font-family="Times,serif" font-size="14.00" fill="white">libical ❎</text>
</a>
</g>
</g>
<!-- scilab&#45;&gt;libical -->
<!-- libv8 -->
<g id="node26" class="node">
<title>libv8</title>
<g id="a_node26"><a xlink:href="https://github.com/conda-forge/libv8-feedstock/pull/89" xlink:title="libv8 ❎">
<ellipse fill="#31688e" stroke="black" cx="963.42" cy="-278" rx="51.21" ry="18"/>
<text xml:space="preserve" text-anchor="middle" x="963.42" y="-273.32" font-family="Times,serif" font-size="14.00" fill="white">libv8 ❎</text>
</a>
</g>
</g>
<!-- libical&#45;&gt;libv8 -->
<!-- baumwelch -->
<g id="node27" class="node">
<title>baumwelch</title>
<g id="a_node27"><a xlink:href="https://github.com/conda-forge/baumwelch-feedstock/pull/24" xlink:title="baumwelch ❎">
<ellipse fill="#31688e" stroke="black" cx="963.42" cy="-206" rx="83.3" ry="18"/>
<text xml:space="preserve" text-anchor="middle" x="963.42" y="-201.33" font-family="Times,serif" font-size="14.00" fill="white">baumwelch ❎</text>
</a>
</g>
</g>
<!-- libv8&#45;&gt;baumwelch -->
<!-- odil -->
<g id="node28" class="node">
<title>odil</title>
<g id="a_node28"><a xlink:href="https://github.com/conda-forge/odil-feedstock/pull/41" xlink:title="odil ❎">
<ellipse fill="#31688e" stroke="black" cx="963.42" cy="-134" rx="44.9" ry="18"/>
<text xml:space="preserve" text-anchor="middle" x="963.42" y="-129.32" font-family="Times,serif" font-size="14.00" fill="white">odil ❎</text>
</a>
</g>
</g>
<!-- baumwelch&#45;&gt;odil -->
<!-- libpsl -->
<g id="node29" class="node">
<title>libpsl</title>
<g id="a_node29"><a xlink:href="https://github.com/conda-forge/libpsl-feedstock/pull/17" xlink:title="libpsl ✓">
<ellipse fill="#31688e" stroke="black" cx="1157.42" cy="-674" rx="46.47" ry="18"/>
<text xml:space="preserve" text-anchor="middle" x="1157.42" y="-669.33" font-family="Times,serif" font-size="14.00" fill="white">libpsl ✓</text>
</a>
</g>
</g>
<!-- libxmlsec1 -->
<g id="node30" class="node">
<title>libxmlsec1</title>
<g id="a_node30"><a xlink:href="https://github.com/conda-forge/libxmlsec1-feedstock/pull/44" xlink:title="libxmlsec1 ❎">
<ellipse fill="#31688e" stroke="black" cx="1157.42" cy="-602" rx="80.14" ry="18"/>
<text xml:space="preserve" text-anchor="middle" x="1157.42" y="-597.33" font-family="Times,serif" font-size="14.00" fill="white">libxmlsec1 ❎</text>
</a>
</g>
</g>
<!-- libpsl&#45;&gt;libxmlsec1 -->
<!-- libmongoc -->
<g id="node31" class="node">
<title>libmongoc</title>
<g id="a_node31"><a xlink:href="https://github.com/conda-forge/libmongoc-feedstock/pull/32" xlink:title="libmongoc ❎">
<ellipse fill="#31688e" stroke="black" cx="1157.42" cy="-530" rx="78.04" ry="18"/>
<text xml:space="preserve" text-anchor="middle" x="1157.42" y="-525.33" font-family="Times,serif" font-size="14.00" fill="white">libmongoc ❎</text>
</a>
</g>
</g>
<!-- libxmlsec1&#45;&gt;libmongoc -->
<!-- libabigail -->
<g id="node32" class="node">
<title>libabigail</title>
<g id="a_node32"><a xlink:href="https://github.com/conda-forge/libabigail-feedstock/pull/13" xlink:title="libabigail ❎">
<ellipse fill="#31688e" stroke="black" cx="1157.42" cy="-458" rx="72.78" ry="18"/>
<text xml:space="preserve" text-anchor="middle" x="1157.42" y="-453.32" font-family="Times,serif" font-size="14.00" fill="white">libabigail ❎</text>
</a>
</g>
</g>
<!-- libmongoc&#45;&gt;libabigail -->
<!-- zk -->
<g id="node35" class="node">
<title>zk</title>
<g id="a_node35"><a xlink:href="https://github.com/conda-forge/zk-feedstock/pull/10" xlink:title="zk ❎">
<ellipse fill="#31688e" stroke="black" cx="1157.42" cy="-386" rx="37.53" ry="18"/>
<text xml:space="preserve" text-anchor="middle" x="1157.42" y="-381.32" font-family="Times,serif" font-size="14.00" fill="white">zk ❎</text>
</a>
</g>
</g>
<!-- libabigail&#45;&gt;zk -->
<!-- spidermonkey -->
<g id="node33" class="node">
<title>spidermonkey</title>
<g id="a_node33"><a xlink:href="https://github.com/conda-forge/spidermonkey-feedstock/pull/14" xlink:title="spidermonkey ❎">
<ellipse fill="#31688e" stroke="black" cx="425.42" cy="-90" rx="96.98" ry="18"/>
<text xml:space="preserve" text-anchor="middle" x="425.42" y="-85.33" font-family="Times,serif" font-size="14.00" fill="white">spidermonkey ❎</text>
</a>
</g>
</g>
<!-- couchdb -->
<g id="node34" class="node">
<title>couchdb</title>
<g id="a_node34"><a xlink:href="https://github.com/conda-forge/couchdb-feedstock" xlink:title="couchdb">
<ellipse fill="#fde725" stroke="black" cx="425.42" cy="-18" rx="52.79" ry="18"/>
<text xml:space="preserve" text-anchor="middle" x="425.42" y="-13.32" font-family="Times,serif" font-size="14.00">couchdb</text>
</a>
</g>
</g>
<!-- spidermonkey&#45;&gt;couchdb -->
<g id="edge33" class="edge">
<title>spidermonkey&#45;&gt;couchdb</title>
<path fill="none" stroke="black" d="M425.42,-71.7C425.42,-64.41 425.42,-55.73 425.42,-47.54"/>
<polygon fill="black" stroke="black" points="428.92,-47.62 425.42,-37.62 421.92,-47.62 428.92,-47.62"/>
</g>
<!-- ds9 -->
<g id="node36" class="node">
<title>ds9</title>
<g id="a_node36"><a xlink:href="https://github.com/conda-forge/ds9-feedstock/pull/7" xlink:title="ds9 ❎">
<ellipse fill="#31688e" stroke="black" cx="1157.42" cy="-314" rx="44.37" ry="18"/>
<text xml:space="preserve" text-anchor="middle" x="1157.42" y="-309.32" font-family="Times,serif" font-size="14.00" fill="white">ds9 ❎</text>
</a>
</g>
</g>
<!-- zk&#45;&gt;ds9 -->
</g>
</svg>
