<?xml version="1.0" encoding="UTF-8" standalone="no"?>
<!DOCTYPE svg PUBLIC "-//W3C//DTD SVG 1.1//EN"
 "http://www.w3.org/Graphics/SVG/1.1/DTD/svg11.dtd">
<!-- Generated by graphviz version 13.1.2 (20250809.0930)
 -->
<!-- Pages: 1 -->
<svg width="1528pt" height="880pt"
 viewBox="0.00 0.00 1528.00 880.00" xmlns="http://www.w3.org/2000/svg" xmlns:xlink="http://www.w3.org/1999/xlink">
<g id="graph0" class="graph" transform="scale(1 1) rotate(0) translate(4 876)">
<polygon fill="white" stroke="none" points="-4,4 -4,-876 1523.61,-876 1523.61,4 -4,4"/>
<!-- boost -->
<g id="node1" class="node">
<title>boost</title>
<g id="a_node1"><a xlink:href="https://github.com/conda-forge/boost-feedstock/pull/258" xlink:title="boost ❎">
<ellipse fill="#31688e" stroke="black" cx="239.64" cy="-602" rx="53.84" ry="18"/>
<text xml:space="preserve" text-anchor="middle" x="239.64" y="-597.33" font-family="Times,serif" font-size="14.00" fill="white">boost ❎</text>
</a>
</g>
</g>
<!-- paraview -->
<g id="node2" class="node">
<title>paraview</title>
<g id="a_node2"><a xlink:href="https://github.com/conda-forge/paraview-feedstock" xlink:title="paraview">
<ellipse fill="#fde725" stroke="black" cx="708.64" cy="-530" rx="57" ry="18"/>
<text xml:space="preserve" text-anchor="middle" x="708.64" y="-525.33" font-family="Times,serif" font-size="14.00">paraview</text>
</a>
</g>
</g>
<!-- boost&#45;&gt;paraview -->
<g id="edge1" class="edge">
<title>boost&#45;&gt;paraview</title>
<path fill="none" stroke="black" d="M279.07,-589.34C286.83,-587.33 294.95,-585.43 302.64,-584 452.01,-556.12 493.1,-575.02 642.64,-548 646.97,-547.22 651.43,-546.3 655.9,-545.31"/>
<polygon fill="black" stroke="black" points="656.53,-548.76 665.47,-543.07 654.94,-541.94 656.53,-548.76"/>
</g>
<!-- qgis -->
<g id="node3" class="node">
<title>qgis</title>
<g id="a_node3"><a xlink:href="https://github.com/conda-forge/qgis-feedstock" xlink:title="qgis">
<ellipse fill="#fde725" stroke="black" cx="831.64" cy="-386" rx="32.27" ry="18"/>
<text xml:space="preserve" text-anchor="middle" x="831.64" y="-381.32" font-family="Times,serif" font-size="14.00">qgis</text>
</a>
</g>
</g>
<!-- boost&#45;&gt;qgis -->
<g id="edge2" class="edge">
<title>boost&#45;&gt;qgis</title>
<path fill="none" stroke="black" d="M280.26,-589.85C287.69,-587.86 295.39,-585.84 302.64,-584 369.51,-567.01 392.97,-580.85 453.64,-548 474.1,-536.92 473.75,-526.87 491.64,-512 533.47,-477.22 541.02,-462.32 590.64,-440 656.11,-410.56 739.12,-396.95 788.67,-391.06"/>
<polygon fill="black" stroke="black" points="788.86,-394.56 798.41,-389.96 788.08,-387.61 788.86,-394.56"/>
</g>
<!-- clickhouse&#45;odbc -->
<g id="node4" class="node">
<title>clickhouse&#45;odbc</title>
<g id="a_node4"><a xlink:href="https://github.com/conda-forge/clickhouse-odbc-feedstock" xlink:title="clickhouse odbc">
<ellipse fill="#fde725" stroke="black" cx="321.64" cy="-530" rx="90.14" ry="18"/>
<text xml:space="preserve" text-anchor="middle" x="321.64" y="-525.33" font-family="Times,serif" font-size="14.00">clickhouse odbc</text>
</a>
</g>
</g>
<!-- boost&#45;&gt;clickhouse&#45;odbc -->
<g id="edge3" class="edge">
<title>boost&#45;&gt;clickhouse&#45;odbc</title>
<path fill="none" stroke="black" d="M258.66,-584.76C268.99,-575.95 281.96,-564.87 293.44,-555.07"/>
<polygon fill="black" stroke="black" points="295.38,-558.02 300.71,-548.86 290.84,-552.69 295.38,-558.02"/>
</g>
<!-- e&#45;antic -->
<g id="node5" class="node">
<title>e&#45;antic</title>
<g id="a_node5"><a xlink:href="https://github.com/conda-forge/e-antic-feedstock" xlink:title="e antic">
<ellipse fill="#fde725" stroke="black" cx="245.64" cy="-458" rx="44.9" ry="18"/>
<text xml:space="preserve" text-anchor="middle" x="245.64" y="-453.32" font-family="Times,serif" font-size="14.00">e antic</text>
</a>
</g>
</g>
<!-- boost&#45;&gt;e&#45;antic -->
<g id="edge4" class="edge">
<title>boost&#45;&gt;e&#45;antic</title>
<path fill="none" stroke="black" d="M232.35,-583.91C225.64,-565.96 217.46,-536.95 222.64,-512 224.43,-503.36 227.71,-494.39 231.24,-486.35"/>
<polygon fill="black" stroke="black" points="234.34,-487.98 235.45,-477.44 228.01,-484.99 234.34,-487.98"/>
</g>
<!-- mongodb -->
<g id="node6" class="node">
<title>mongodb</title>
<g id="a_node6"><a xlink:href="https://github.com/conda-forge/mongodb-feedstock" xlink:title="mongodb">
<ellipse fill="#fde725" stroke="black" cx="115.64" cy="-386" rx="57.52" ry="18"/>
<text xml:space="preserve" text-anchor="middle" x="115.64" y="-381.32" font-family="Times,serif" font-size="14.00">mongodb</text>
</a>
</g>
</g>
<!-- boost&#45;&gt;mongodb -->
<g id="edge5" class="edge">
<title>boost&#45;&gt;mongodb</title>
<path fill="none" stroke="black" d="M220.19,-584.81C209.3,-574.99 196.05,-561.74 186.64,-548 157.31,-505.16 135.63,-448.24 124.37,-414.82"/>
<polygon fill="black" stroke="black" points="127.74,-413.88 121.3,-405.47 121.09,-416.07 127.74,-413.88"/>
</g>
<!-- topologytoolkit -->
<g id="node7" class="node">
<title>topologytoolkit</title>
<g id="a_node7"><a xlink:href="https://github.com/conda-forge/topologytoolkit-feedstock" xlink:title="topologytoolkit">
<ellipse fill="#fde725" stroke="black" cx="708.64" cy="-458" rx="86.46" ry="18"/>
<text xml:space="preserve" text-anchor="middle" x="708.64" y="-453.32" font-family="Times,serif" font-size="14.00">topologytoolkit</text>
</a>
</g>
</g>
<!-- boost&#45;&gt;topologytoolkit -->
<g id="edge6" class="edge">
<title>boost&#45;&gt;topologytoolkit</title>
<path fill="none" stroke="black" d="M279.85,-589.66C287.4,-587.67 295.24,-585.7 302.64,-584 385.98,-564.85 414.37,-584.62 491.64,-548 514.16,-537.32 512.72,-523.87 534.64,-512 566.45,-494.77 604.63,-482.35 637.11,-473.88"/>
<polygon fill="black" stroke="black" points="637.58,-477.37 646.42,-471.53 635.87,-470.59 637.58,-477.37"/>
</g>
<!-- odil -->
<g id="node8" class="node">
<title>odil</title>
<g id="a_node8"><a xlink:href="https://github.com/conda-forge/odil-feedstock" xlink:title="odil">
<ellipse fill="#fde725" stroke="black" cx="29.64" cy="-314" rx="29.64" ry="18"/>
<text xml:space="preserve" text-anchor="middle" x="29.64" y="-309.32" font-family="Times,serif" font-size="14.00">odil</text>
</a>
</g>
</g>
<!-- boost&#45;&gt;odil -->
<g id="edge7" class="edge">
<title>boost&#45;&gt;odil</title>
<path fill="none" stroke="black" d="M213.22,-585.9C197.37,-576.17 177.31,-562.64 161.64,-548 102.18,-492.48 83.13,-477.68 48.64,-404 39.72,-384.96 34.94,-361.66 32.41,-343.68"/>
<polygon fill="black" stroke="black" points="35.91,-343.46 31.2,-333.97 28.96,-344.33 35.91,-343.46"/>
</g>
<!-- exact&#45;real -->
<g id="node9" class="node">
<title>exact&#45;real</title>
<g id="a_node9"><a xlink:href="https://github.com/conda-forge/exact-real-feedstock" xlink:title="exact real">
<ellipse fill="#fde725" stroke="black" cx="251.64" cy="-386" rx="60.68" ry="18"/>
<text xml:space="preserve" text-anchor="middle" x="251.64" y="-381.32" font-family="Times,serif" font-size="14.00">exact real</text>
</a>
</g>
</g>
<!-- boost&#45;&gt;exact&#45;real -->
<g id="edge8" class="edge">
<title>boost&#45;&gt;exact&#45;real</title>
<path fill="none" stroke="black" d="M227.17,-584.49C206.33,-554.73 168.86,-490.52 191.64,-440 196.97,-428.17 206.4,-417.91 216.23,-409.66"/>
<polygon fill="black" stroke="black" points="218.31,-412.48 224.06,-403.58 214.02,-406.95 218.31,-412.48"/>
</g>
<!-- libpdal -->
<g id="node10" class="node">
<title>libpdal</title>
<g id="a_node10"><a xlink:href="https://github.com/conda-forge/libpdal-feedstock" xlink:title="libpdal">
<ellipse fill="#fde725" stroke="black" cx="588.64" cy="-530" rx="45.42" ry="18"/>
<text xml:space="preserve" text-anchor="middle" x="588.64" y="-525.33" font-family="Times,serif" font-size="14.00">libpdal</text>
</a>
</g>
</g>
<!-- boost&#45;&gt;libpdal -->
<g id="edge9" class="edge">
<title>boost&#45;&gt;libpdal</title>
<path fill="none" stroke="black" d="M279.47,-589.56C287.13,-587.56 295.1,-585.61 302.64,-584 402.53,-562.66 429.93,-570.18 529.64,-548 533.91,-547.05 538.32,-545.97 542.73,-544.82"/>
<polygon fill="black" stroke="black" points="543.37,-548.27 552.11,-542.27 541.54,-541.52 543.37,-548.27"/>
</g>
<!-- dssp -->
<g id="node11" class="node">
<title>dssp</title>
<g id="a_node11"><a xlink:href="https://github.com/conda-forge/dssp-feedstock" xlink:title="dssp">
<ellipse fill="#fde725" stroke="black" cx="439.64" cy="-242" rx="34.37" ry="18"/>
<text xml:space="preserve" text-anchor="middle" x="439.64" y="-237.32" font-family="Times,serif" font-size="14.00">dssp</text>
</a>
</g>
</g>
<!-- boost&#45;&gt;dssp -->
<g id="edge10" class="edge">
<title>boost&#45;&gt;dssp</title>
<path fill="none" stroke="black" d="M280.01,-589.73C332.59,-574.97 418.17,-550.65 420.64,-548 448.15,-518.35 439.64,-499.45 439.64,-459 439.64,-459 439.64,-459 439.64,-385 439.64,-345.74 439.64,-300.38 439.64,-271.69"/>
<polygon fill="black" stroke="black" points="443.14,-272 439.64,-262 436.14,-272 443.14,-272"/>
</g>
<!-- paraview&#45;&gt;topologytoolkit -->
<g id="edge11" class="edge">
<title>paraview&#45;&gt;topologytoolkit</title>
<path fill="none" stroke="black" d="M708.64,-511.7C708.64,-504.41 708.64,-495.73 708.64,-487.54"/>
<polygon fill="black" stroke="black" points="712.14,-487.62 708.64,-477.62 705.14,-487.62 712.14,-487.62"/>
</g>
<!-- e&#45;antic&#45;&gt;exact&#45;real -->
<g id="edge12" class="edge">
<title>e&#45;antic&#45;&gt;exact&#45;real</title>
<path fill="none" stroke="black" d="M247.12,-439.7C247.75,-432.41 248.49,-423.73 249.19,-415.54"/>
<polygon fill="black" stroke="black" points="252.68,-415.87 250.04,-405.61 245.7,-415.28 252.68,-415.87"/>
</g>
<!-- libpdal&#45;&gt;qgis -->
<g id="edge13" class="edge">
<title>libpdal&#45;&gt;qgis</title>
<path fill="none" stroke="black" d="M588.58,-511.68C589.48,-491.59 594.12,-458.84 613.64,-440 638.36,-416.13 732.57,-399.99 788.73,-392.26"/>
<polygon fill="black" stroke="black" points="789.15,-395.73 798.6,-390.94 788.22,-388.8 789.15,-395.73"/>
</g>
<!-- cairo -->
<g id="node12" class="node">
<title>cairo</title>
<g id="a_node12"><a xlink:href="https://github.com/conda-forge/cairo-feedstock/pull/83" xlink:title="cairo ❎">
<ellipse fill="#31688e" stroke="black" cx="562.64" cy="-746" rx="51.21" ry="18"/>
<text xml:space="preserve" text-anchor="middle" x="562.64" y="-741.33" font-family="Times,serif" font-size="14.00" fill="white">cairo ❎</text>
</a>
</g>
</g>
<!-- harfbuzz -->
<g id="node13" class="node">
<title>harfbuzz</title>
<g id="a_node13"><a xlink:href="https://github.com/conda-forge/harfbuzz-feedstock" xlink:title="harfbuzz">
<ellipse fill="#fde725" stroke="black" cx="604.64" cy="-674" rx="54.89" ry="18"/>
<text xml:space="preserve" text-anchor="middle" x="604.64" y="-669.33" font-family="Times,serif" font-size="14.00">harfbuzz</text>
</a>
</g>
</g>
<!-- cairo&#45;&gt;harfbuzz -->
<g id="edge14" class="edge">
<title>cairo&#45;&gt;harfbuzz</title>
<path fill="none" stroke="black" d="M572.8,-728.05C577.6,-720.06 583.44,-710.33 588.8,-701.4"/>
<polygon fill="black" stroke="black" points="591.64,-703.46 593.79,-693.09 585.64,-699.86 591.64,-703.46"/>
</g>
<!-- r&#45;base -->
<g id="node14" class="node">
<title>r&#45;base</title>
<g id="a_node14"><a xlink:href="https://github.com/conda-forge/r-base-feedstock" xlink:title="r base">
<ellipse fill="#fde725" stroke="black" cx="451.64" cy="-674" rx="42.26" ry="18"/>
<text xml:space="preserve" text-anchor="middle" x="451.64" y="-669.33" font-family="Times,serif" font-size="14.00">r base</text>
</a>
</g>
</g>
<!-- cairo&#45;&gt;r&#45;base -->
<g id="edge15" class="edge">
<title>cairo&#45;&gt;r&#45;base</title>
<path fill="none" stroke="black" d="M538.55,-729.81C522.52,-719.7 501.27,-706.3 483.8,-695.28"/>
<polygon fill="black" stroke="black" points="486.14,-692.62 475.82,-690.25 482.41,-698.54 486.14,-692.62"/>
</g>
<!-- r&#45;cairo -->
<g id="node15" class="node">
<title>r&#45;cairo</title>
<g id="a_node15"><a xlink:href="https://github.com/conda-forge/r-cairo-feedstock" xlink:title="r cairo">
<ellipse fill="#fde725" stroke="black" cx="477.64" cy="-602" rx="43.84" ry="18"/>
<text xml:space="preserve" text-anchor="middle" x="477.64" y="-597.33" font-family="Times,serif" font-size="14.00">r cairo</text>
</a>
</g>
</g>
<!-- cairo&#45;&gt;r&#45;cairo -->
<g id="edge16" class="edge">
<title>cairo&#45;&gt;r&#45;cairo</title>
<path fill="none" stroke="black" d="M552.38,-727.87C537.76,-703.43 510.76,-658.33 493.53,-629.55"/>
<polygon fill="black" stroke="black" points="496.58,-627.83 488.44,-621.05 490.57,-631.42 496.58,-627.83"/>
</g>
<!-- texlive&#45;core -->
<g id="node16" class="node">
<title>texlive&#45;core</title>
<g id="a_node16"><a xlink:href="https://github.com/conda-forge/texlive-core-feedstock" xlink:title="texlive core">
<ellipse fill="#fde725" stroke="black" cx="729.64" cy="-602" rx="69.62" ry="18"/>
<text xml:space="preserve" text-anchor="middle" x="729.64" y="-597.33" font-family="Times,serif" font-size="14.00">texlive core</text>
</a>
</g>
</g>
<!-- cairo&#45;&gt;texlive&#45;core -->
<g id="edge17" class="edge">
<title>cairo&#45;&gt;texlive&#45;core</title>
<path fill="none" stroke="black" d="M597.75,-732.7C619.78,-723.79 647.85,-710.11 668.64,-692 688.54,-674.66 705.01,-649.44 715.8,-630.28"/>
<polygon fill="black" stroke="black" points="718.78,-632.13 720.48,-621.67 712.63,-628.79 718.78,-632.13"/>
</g>
<!-- harfbuzz&#45;&gt;r&#45;cairo -->
<g id="edge18" class="edge">
<title>harfbuzz&#45;&gt;r&#45;cairo</title>
<path fill="none" stroke="black" d="M577.39,-657.98C558.56,-647.6 533.34,-633.7 512.96,-622.47"/>
<polygon fill="black" stroke="black" points="514.88,-619.53 504.43,-617.77 511.5,-625.66 514.88,-619.53"/>
</g>
<!-- harfbuzz&#45;&gt;texlive&#45;core -->
<g id="edge19" class="edge">
<title>harfbuzz&#45;&gt;texlive&#45;core</title>
<path fill="none" stroke="black" d="M631.45,-657.98C649.05,-648.13 672.31,-635.1 691.78,-624.2"/>
<polygon fill="black" stroke="black" points="693.23,-627.4 700.25,-619.46 689.81,-621.29 693.23,-627.4"/>
</g>
<!-- tectonic -->
<g id="node17" class="node">
<title>tectonic</title>
<g id="a_node17"><a xlink:href="https://github.com/conda-forge/tectonic-feedstock" xlink:title="tectonic">
<ellipse fill="#fde725" stroke="black" cx="590.64" cy="-602" rx="51.21" ry="18"/>
<text xml:space="preserve" text-anchor="middle" x="590.64" y="-597.33" font-family="Times,serif" font-size="14.00">tectonic</text>
</a>
</g>
</g>
<!-- harfbuzz&#45;&gt;tectonic -->
<g id="edge20" class="edge">
<title>harfbuzz&#45;&gt;tectonic</title>
<path fill="none" stroke="black" d="M601.18,-655.7C599.7,-648.32 597.94,-639.52 596.29,-631.25"/>
<polygon fill="black" stroke="black" points="599.75,-630.71 594.36,-621.59 592.88,-632.08 599.75,-630.71"/>
</g>
<!-- qt&#45;main -->
<g id="node18" class="node">
<title>qt&#45;main</title>
<g id="a_node18"><a xlink:href="https://github.com/conda-forge/qt-main-feedstock" xlink:title="qt main">
<ellipse fill="#fde725" stroke="black" cx="905.64" cy="-602" rx="49.63" ry="18"/>
<text xml:space="preserve" text-anchor="middle" x="905.64" y="-597.33" font-family="Times,serif" font-size="14.00">qt main</text>
</a>
</g>
</g>
<!-- harfbuzz&#45;&gt;qt&#45;main -->
<g id="edge21" class="edge">
<title>harfbuzz&#45;&gt;qt&#45;main</title>
<path fill="none" stroke="black" d="M648.41,-662.82C702.82,-650.17 795.6,-628.59 853.6,-615.1"/>
<polygon fill="black" stroke="black" points="854.29,-618.53 863.24,-612.86 852.71,-611.72 854.29,-618.53"/>
</g>
<!-- r&#45;base&#45;&gt;r&#45;cairo -->
<g id="edge22" class="edge">
<title>r&#45;base&#45;&gt;r&#45;cairo</title>
<path fill="none" stroke="black" d="M457.93,-656.05C460.73,-648.52 464.1,-639.44 467.26,-630.94"/>
<polygon fill="black" stroke="black" points="470.49,-632.29 470.69,-621.69 463.93,-629.85 470.49,-632.29"/>
</g>
<!-- r&#45;stringi -->
<g id="node19" class="node">
<title>r&#45;stringi</title>
<g id="a_node19"><a xlink:href="https://github.com/conda-forge/r-stringi-feedstock" xlink:title="r stringi">
<ellipse fill="#fde725" stroke="black" cx="363.64" cy="-602" rx="52.26" ry="18"/>
<text xml:space="preserve" text-anchor="middle" x="363.64" y="-597.33" font-family="Times,serif" font-size="14.00">r stringi</text>
</a>
</g>
</g>
<!-- r&#45;base&#45;&gt;r&#45;stringi -->
<g id="edge23" class="edge">
<title>r&#45;base&#45;&gt;r&#45;stringi</title>
<path fill="none" stroke="black" d="M432.54,-657.81C420.8,-648.47 405.52,-636.31 392.33,-625.83"/>
<polygon fill="black" stroke="black" points="394.8,-623.32 384.8,-619.83 390.44,-628.79 394.8,-623.32"/>
</g>
<!-- qt&#45;main&#45;&gt;paraview -->
<g id="edge24" class="edge">
<title>qt&#45;main&#45;&gt;paraview</title>
<path fill="none" stroke="black" d="M871.32,-588.81C839.45,-577.48 791.71,-560.52 756.17,-547.89"/>
<polygon fill="black" stroke="black" points="757.59,-544.68 747,-544.63 755.25,-551.28 757.59,-544.68"/>
</g>
<!-- qt&#45;main&#45;&gt;qgis -->
<g id="edge25" class="edge">
<title>qt&#45;main&#45;&gt;qgis</title>
<path fill="none" stroke="black" d="M896.84,-584.04C884.89,-560.4 863.54,-515.93 850.64,-476 844.25,-456.21 839.4,-433.24 836.21,-415.6"/>
<polygon fill="black" stroke="black" points="839.67,-415.08 834.52,-405.83 832.77,-416.28 839.67,-415.08"/>
</g>
<!-- qt&#45;main&#45;&gt;topologytoolkit -->
<g id="edge26" class="edge">
<title>qt&#45;main&#45;&gt;topologytoolkit</title>
<path fill="none" stroke="black" d="M879.17,-586.49C861.33,-576.37 837.53,-562.19 817.64,-548 797.35,-533.53 793.91,-527.8 774.64,-512 762.89,-502.37 749.87,-491.87 738.52,-482.78"/>
<polygon fill="black" stroke="black" points="741.01,-480.29 731.01,-476.78 736.64,-485.76 741.01,-480.29"/>
</g>
<!-- octave -->
<g id="node20" class="node">
<title>octave</title>
<g id="a_node20"><a xlink:href="https://github.com/conda-forge/octave-feedstock" xlink:title="octave">
<ellipse fill="#fde725" stroke="black" cx="941.64" cy="-530" rx="43.84" ry="18"/>
<text xml:space="preserve" text-anchor="middle" x="941.64" y="-525.33" font-family="Times,serif" font-size="14.00">octave</text>
</a>
</g>
</g>
<!-- qt&#45;main&#45;&gt;octave -->
<g id="edge27" class="edge">
<title>qt&#45;main&#45;&gt;octave</title>
<path fill="none" stroke="black" d="M914.35,-584.05C918.38,-576.23 923.25,-566.75 927.76,-557.98"/>
<polygon fill="black" stroke="black" points="930.85,-559.63 932.31,-549.13 924.62,-556.43 930.85,-559.63"/>
</g>
<!-- qtwebkit -->
<g id="node21" class="node">
<title>qtwebkit</title>
<g id="a_node21"><a xlink:href="https://github.com/conda-forge/qtwebkit-feedstock" xlink:title="qtwebkit">
<ellipse fill="#fde725" stroke="black" cx="914.64" cy="-458" rx="55.42" ry="18"/>
<text xml:space="preserve" text-anchor="middle" x="914.64" y="-453.32" font-family="Times,serif" font-size="14.00">qtwebkit</text>
</a>
</g>
</g>
<!-- qt&#45;main&#45;&gt;qtwebkit -->
<g id="edge28" class="edge">
<title>qt&#45;main&#45;&gt;qtwebkit</title>
<path fill="none" stroke="black" d="M898.11,-583.85C891.21,-565.87 882.88,-536.82 888.64,-512 890.7,-503.11 894.47,-494 898.51,-485.89"/>
<polygon fill="black" stroke="black" points="901.51,-487.72 903.15,-477.25 895.34,-484.41 901.51,-487.72"/>
</g>
<!-- lalinference -->
<g id="node22" class="node">
<title>lalinference</title>
<g id="a_node22"><a xlink:href="https://github.com/conda-forge/lalinference-feedstock" xlink:title="lalinference">
<ellipse fill="#fde725" stroke="black" cx="1013.64" cy="-386" rx="70.15" ry="18"/>
<text xml:space="preserve" text-anchor="middle" x="1013.64" y="-381.32" font-family="Times,serif" font-size="14.00">lalinference</text>
</a>
</g>
</g>
<!-- qt&#45;main&#45;&gt;lalinference -->
<g id="edge29" class="edge">
<title>qt&#45;main&#45;&gt;lalinference</title>
<path fill="none" stroke="black" d="M940.74,-588.98C959.86,-580.56 982.11,-567.31 994.64,-548 1020.81,-507.66 1020.51,-449.45 1017.42,-415.2"/>
<polygon fill="black" stroke="black" points="1020.94,-415.23 1016.4,-405.65 1013.98,-415.96 1020.94,-415.23"/>
</g>
<!-- qtwebkit&#45;&gt;qgis -->
<g id="edge37" class="edge">
<title>qtwebkit&#45;&gt;qgis</title>
<path fill="none" stroke="black" d="M895.39,-440.76C884.06,-431.21 869.59,-419.01 857.3,-408.64"/>
<polygon fill="black" stroke="black" points="859.87,-406.23 849.97,-402.46 855.35,-411.58 859.87,-406.23"/>
</g>
<!-- kaldi -->
<g id="node23" class="node">
<title>kaldi</title>
<g id="a_node23"><a xlink:href="https://github.com/conda-forge/kaldi-feedstock/pull/65" xlink:title="kaldi ✓">
<ellipse fill="#31688e" stroke="black" cx="1174.64" cy="-854" rx="43.32" ry="18"/>
<text xml:space="preserve" text-anchor="middle" x="1174.64" y="-849.33" font-family="Times,serif" font-size="14.00" fill="white">kaldi ✓</text>
</a>
</g>
</g>
<!-- mysql -->
<g id="node24" class="node">
<title>mysql</title>
<g id="a_node24"><a xlink:href="https://github.com/conda-forge/mysql-feedstock/pull/116" xlink:title="mysql ❎">
<ellipse fill="#31688e" stroke="black" cx="1174.64" cy="-782" rx="56.47" ry="18"/>
<text xml:space="preserve" text-anchor="middle" x="1174.64" y="-777.33" font-family="Times,serif" font-size="14.00" fill="white">mysql ❎</text>
</a>
</g>
</g>
<!-- kaldi&#45;&gt;mysql -->
<!-- nodejs -->
<g id="node25" class="node">
<title>nodejs</title>
<g id="a_node25"><a xlink:href="https://github.com/conda-forge/nodejs-feedstock/pull/436" xlink:title="nodejs ❎">
<ellipse fill="#31688e" stroke="black" cx="1174.64" cy="-710" rx="59.1" ry="18"/>
<text xml:space="preserve" text-anchor="middle" x="1174.64" y="-705.33" font-family="Times,serif" font-size="14.00" fill="white">nodejs ❎</text>
</a>
</g>
</g>
<!-- mysql&#45;&gt;nodejs -->
<!-- uwsgi -->
<g id="node26" class="node">
<title>uwsgi</title>
<g id="a_node26"><a xlink:href="https://github.com/conda-forge/uwsgi-feedstock" xlink:title="uwsgi">
<ellipse fill="#ff8c00" stroke="black" cx="1174.64" cy="-638" rx="40.69" ry="18"/>
<text xml:space="preserve" text-anchor="middle" x="1174.64" y="-633.33" font-family="Times,serif" font-size="14.00">uwsgi</text>
</a>
</g>
</g>
<!-- nodejs&#45;&gt;uwsgi -->
<!-- pyicu -->
<g id="node28" class="node">
<title>pyicu</title>
<g id="a_node28"><a xlink:href="https://github.com/conda-forge/pyicu-feedstock/pull/72" xlink:title="pyicu ✓">
<ellipse fill="#31688e" stroke="black" cx="1174.64" cy="-566" rx="45.95" ry="18"/>
<text xml:space="preserve" text-anchor="middle" x="1174.64" y="-561.33" font-family="Times,serif" font-size="14.00" fill="white">pyicu ✓</text>
</a>
</g>
</g>
<!-- uwsgi&#45;&gt;pyicu -->
<!-- postgresql -->
<g id="node27" class="node">
<title>postgresql</title>
<g id="a_node27"><a xlink:href="https://github.com/conda-forge/postgresql-feedstock" xlink:title="postgresql">
<ellipse fill="#ff8c00" stroke="black" cx="905.64" cy="-674" rx="64.36" ry="18"/>
<text xml:space="preserve" text-anchor="middle" x="905.64" y="-669.33" font-family="Times,serif" font-size="14.00">postgresql</text>
</a>
</g>
</g>
<!-- postgresql&#45;&gt;qgis -->
<g id="edge33" class="edge">
<title>postgresql&#45;&gt;qgis</title>
<path fill="none" stroke="black" d="M928.06,-656.83C940.15,-647.21 954.6,-634.15 964.64,-620 1011.06,-554.55 1031.65,-500.24 978.64,-440 952.34,-410.12 907.91,-397.08 874.76,-391.4"/>
<polygon fill="black" stroke="black" points="875.47,-387.96 865.05,-389.9 874.41,-394.88 875.47,-387.96"/>
</g>
<!-- postgresql&#45;&gt;libpdal -->
<g id="edge34" class="edge">
<title>postgresql&#45;&gt;libpdal</title>
<path fill="none" stroke="black" d="M886.92,-656.42C875.27,-646.03 860,-632.32 846.64,-620 829.54,-604.23 829.21,-594.87 808.64,-584 741.89,-548.74 715.61,-567.35 642.64,-548 639.71,-547.22 636.71,-546.39 633.68,-545.52"/>
<polygon fill="black" stroke="black" points="634.81,-542.2 624.23,-542.7 632.81,-548.91 634.81,-542.2"/>
</g>
<!-- postgresql&#45;&gt;qt&#45;main -->
<g id="edge35" class="edge">
<title>postgresql&#45;&gt;qt&#45;main</title>
<path fill="none" stroke="black" d="M905.64,-655.7C905.64,-648.41 905.64,-639.73 905.64,-631.54"/>
<polygon fill="black" stroke="black" points="909.14,-631.62 905.64,-621.62 902.14,-631.62 909.14,-631.62"/>
</g>
<!-- tensorflow -->
<g id="node29" class="node">
<title>tensorflow</title>
<g id="a_node29"><a xlink:href="https://github.com/conda-forge/tensorflow-feedstock/pull/471" xlink:title="tensorflow ❎">
<ellipse fill="#31688e" stroke="black" cx="1174.64" cy="-494" rx="79.09" ry="18"/>
<text xml:space="preserve" text-anchor="middle" x="1174.64" y="-489.32" font-family="Times,serif" font-size="14.00" fill="white">tensorflow ❎</text>
</a>
</g>
</g>
<!-- pyicu&#45;&gt;tensorflow -->
<!-- ticcutils -->
<g id="node30" class="node">
<title>ticcutils</title>
<g id="a_node30"><a xlink:href="https://github.com/conda-forge/ticcutils-feedstock" xlink:title="ticcutils">
<ellipse fill="#ff8c00" stroke="black" cx="1174.64" cy="-422" rx="51.21" ry="18"/>
<text xml:space="preserve" text-anchor="middle" x="1174.64" y="-417.32" font-family="Times,serif" font-size="14.00">ticcutils</text>
</a>
</g>
</g>
<!-- tensorflow&#45;&gt;ticcutils -->
<!-- scilab -->
<g id="node31" class="node">
<title>scilab</title>
<g id="a_node31"><a xlink:href="https://github.com/conda-forge/scilab-feedstock" xlink:title="scilab">
<ellipse fill="#ff8c00" stroke="black" cx="1174.64" cy="-350" rx="40.16" ry="18"/>
<text xml:space="preserve" text-anchor="middle" x="1174.64" y="-345.32" font-family="Times,serif" font-size="14.00">scilab</text>
</a>
</g>
</g>
<!-- ticcutils&#45;&gt;scilab -->
<!-- libical -->
<g id="node32" class="node">
<title>libical</title>
<g id="a_node32"><a xlink:href="https://github.com/conda-forge/libical-feedstock" xlink:title="libical">
<ellipse fill="#ff8c00" stroke="black" cx="1174.64" cy="-278" rx="41.21" ry="18"/>
<text xml:space="preserve" text-anchor="middle" x="1174.64" y="-273.32" font-family="Times,serif" font-size="14.00">libical</text>
</a>
</g>
</g>
<!-- scilab&#45;&gt;libical -->
<!-- libv8 -->
<g id="node33" class="node">
<title>libv8</title>
<g id="a_node33"><a xlink:href="https://github.com/conda-forge/libv8-feedstock/pull/89" xlink:title="libv8 ❎">
<ellipse fill="#31688e" stroke="black" cx="1174.64" cy="-206" rx="51.21" ry="18"/>
<text xml:space="preserve" text-anchor="middle" x="1174.64" y="-201.33" font-family="Times,serif" font-size="14.00" fill="white">libv8 ❎</text>
</a>
</g>
</g>
<!-- libical&#45;&gt;libv8 -->
<!-- baumwelch -->
<g id="node34" class="node">
<title>baumwelch</title>
<g id="a_node34"><a xlink:href="https://github.com/conda-forge/baumwelch-feedstock/pull/24" xlink:title="baumwelch ❎">
<ellipse fill="#31688e" stroke="black" cx="1174.64" cy="-134" rx="83.3" ry="18"/>
<text xml:space="preserve" text-anchor="middle" x="1174.64" y="-129.32" font-family="Times,serif" font-size="14.00" fill="white">baumwelch ❎</text>
</a>
</g>
</g>
<!-- libv8&#45;&gt;baumwelch -->
<!-- libpsl -->
<g id="node35" class="node">
<title>libpsl</title>
<g id="a_node35"><a xlink:href="https://github.com/conda-forge/libpsl-feedstock/pull/17" xlink:title="libpsl ✓">
<ellipse fill="#31688e" stroke="black" cx="1392.64" cy="-710" rx="46.47" ry="18"/>
<text xml:space="preserve" text-anchor="middle" x="1392.64" y="-705.33" font-family="Times,serif" font-size="14.00" fill="white">libpsl ✓</text>
</a>
</g>
</g>
<!-- libxmlsec1 -->
<g id="node36" class="node">
<title>libxmlsec1</title>
<g id="a_node36"><a xlink:href="https://github.com/conda-forge/libxmlsec1-feedstock" xlink:title="libxmlsec1">
<ellipse fill="#ff8c00" stroke="black" cx="1392.64" cy="-638" rx="64.89" ry="18"/>
<text xml:space="preserve" text-anchor="middle" x="1392.64" y="-633.33" font-family="Times,serif" font-size="14.00">libxmlsec1</text>
</a>
</g>
</g>
<!-- libpsl&#45;&gt;libxmlsec1 -->
<!-- libmongoc -->
<g id="node37" class="node">
<title>libmongoc</title>
<g id="a_node37"><a xlink:href="https://github.com/conda-forge/libmongoc-feedstock/pull/32" xlink:title="libmongoc ❎">
<ellipse fill="#31688e" stroke="black" cx="1392.64" cy="-566" rx="78.04" ry="18"/>
<text xml:space="preserve" text-anchor="middle" x="1392.64" y="-561.33" font-family="Times,serif" font-size="14.00" fill="white">libmongoc ❎</text>
</a>
</g>
</g>
<!-- libxmlsec1&#45;&gt;libmongoc -->
<!-- openvino&#45;tokenizers -->
<g id="node38" class="node">
<title>openvino&#45;tokenizers</title>
<g id="a_node38"><a xlink:href="https://github.com/conda-forge/openvino-tokenizers-feedstock/pull/50" xlink:title="openvino tokenizers ❎">
<ellipse fill="#31688e" stroke="black" cx="1392.64" cy="-494" rx="126.97" ry="18"/>
<text xml:space="preserve" text-anchor="middle" x="1392.64" y="-489.32" font-family="Times,serif" font-size="14.00" fill="white">openvino tokenizers ❎</text>
</a>
</g>
</g>
<!-- libmongoc&#45;&gt;openvino&#45;tokenizers -->
<!-- libabigail -->
<g id="node41" class="node">
<title>libabigail</title>
<g id="a_node41"><a xlink:href="https://github.com/conda-forge/libabigail-feedstock" xlink:title="libabigail">
<ellipse fill="#ff8c00" stroke="black" cx="1392.64" cy="-422" rx="57.52" ry="18"/>
<text xml:space="preserve" text-anchor="middle" x="1392.64" y="-417.32" font-family="Times,serif" font-size="14.00">libabigail</text>
</a>
</g>
</g>
<!-- openvino&#45;tokenizers&#45;&gt;libabigail -->
<!-- spidermonkey -->
<g id="node39" class="node">
<title>spidermonkey</title>
<g id="a_node39"><a xlink:href="https://github.com/conda-forge/spidermonkey-feedstock/pull/14" xlink:title="spidermonkey ❎">
<ellipse fill="#31688e" stroke="black" cx="541.64" cy="-90" rx="96.98" ry="18"/>
<text xml:space="preserve" text-anchor="middle" x="541.64" y="-85.33" font-family="Times,serif" font-size="14.00" fill="white">spidermonkey ❎</text>
</a>
</g>
</g>
<!-- couchdb -->
<g id="node40" class="node">
<title>couchdb</title>
<g id="a_node40"><a xlink:href="https://github.com/conda-forge/couchdb-feedstock" xlink:title="couchdb">
<ellipse fill="#fde725" stroke="black" cx="541.64" cy="-18" rx="52.79" ry="18"/>
<text xml:space="preserve" text-anchor="middle" x="541.64" y="-13.32" font-family="Times,serif" font-size="14.00">couchdb</text>
</a>
</g>
</g>
<!-- spidermonkey&#45;&gt;couchdb -->
<g id="edge47" class="edge">
<title>spidermonkey&#45;&gt;couchdb</title>
<path fill="none" stroke="black" d="M541.64,-71.7C541.64,-64.41 541.64,-55.73 541.64,-47.54"/>
<polygon fill="black" stroke="black" points="545.14,-47.62 541.64,-37.62 538.14,-47.62 545.14,-47.62"/>
</g>
<!-- zk -->
<g id="node42" class="node">
<title>zk</title>
<g id="a_node42"><a xlink:href="https://github.com/conda-forge/zk-feedstock/pull/10" xlink:title="zk ❎">
<ellipse fill="#31688e" stroke="black" cx="1392.64" cy="-350" rx="37.53" ry="18"/>
<text xml:space="preserve" text-anchor="middle" x="1392.64" y="-345.32" font-family="Times,serif" font-size="14.00" fill="white">zk ❎</text>
</a>
</g>
</g>
<!-- libabigail&#45;&gt;zk -->
<!-- ds9 -->
<g id="node43" class="node">
<title>ds9</title>
<g id="a_node43"><a xlink:href="https://github.com/conda-forge/ds9-feedstock" xlink:title="ds9">
<ellipse fill="#ff8c00" stroke="black" cx="1392.64" cy="-278" rx="29.11" ry="18"/>
<text xml:space="preserve" text-anchor="middle" x="1392.64" y="-273.32" font-family="Times,serif" font-size="14.00">ds9</text>
</a>
</g>
</g>
<!-- zk&#45;&gt;ds9 -->
</g>
</svg>
