<?xml version="1.0" encoding="UTF-8" standalone="no"?>
<!DOCTYPE svg PUBLIC "-//W3C//DTD SVG 1.1//EN"
 "http://www.w3.org/Graphics/SVG/1.1/DTD/svg11.dtd">
<!-- Generated by graphviz version 12.0.0 (20240803.0821)
 -->
<!-- Pages: 1 -->
<svg width="943pt" height="232pt"
 viewBox="0.00 0.00 943.47 232.00" xmlns="http://www.w3.org/2000/svg" xmlns:xlink="http://www.w3.org/1999/xlink">
<g id="graph0" class="graph" transform="scale(1 1) rotate(0) translate(4 228)">
<polygon fill="white" stroke="none" points="-4,4 -4,-228 939.47,-228 939.47,4 -4,4"/>
<!-- paraview -->
<g id="node1" class="node">
<title>paraview</title>
<g id="a_node1"><a xlink:href="https://github.com/conda-forge/paraview-feedstock" xlink:title="paraview">
<ellipse fill="#fde725" stroke="black" cx="57" cy="-98" rx="57" ry="18"/>
<text text-anchor="middle" x="57" y="-93.33" font-family="Times,serif" font-size="14.00">paraview</text>
</a>
</g>
</g>
<!-- libprotobuf -->
<g id="node2" class="node">
<title>libprotobuf</title>
<g id="a_node2"><a xlink:href="https://github.com/conda-forge/libprotobuf-feedstock/pull/231" xlink:title="libprotobuf ✓">
<ellipse fill="#31688e" stroke="black" cx="331" cy="-170" rx="74.88" ry="18"/>
<text text-anchor="middle" x="331" y="-165.33" font-family="Times,serif" font-size="14.00" fill="white">libprotobuf ✓</text>
</a>
</g>
</g>
<!-- libprotobuf&#45;&gt;paraview -->
<g id="edge3" class="edge">
<title>libprotobuf&#45;&gt;paraview</title>
<path fill="none" stroke="black" d="M280.97,-156.29C238.83,-145.58 176.96,-129.83 123,-116 119.04,-114.99 114.95,-113.94 110.83,-112.88"/>
<polygon fill="black" stroke="black" points="111.97,-109.56 101.42,-110.46 110.23,-116.34 111.97,-109.56"/>
</g>
<!-- libignition&#45;fuel&#45;tools -->
<g id="node4" class="node">
<title>libignition&#45;fuel&#45;tools</title>
<g id="a_node4"><a xlink:href="https://github.com/conda-forge/libignition-fuel-tools-feedstock" xlink:title="libignition fuel tools">
<ellipse fill="#fde725" stroke="black" cx="244" cy="-98" rx="111.71" ry="18"/>
<text text-anchor="middle" x="244" y="-93.33" font-family="Times,serif" font-size="14.00">libignition fuel tools</text>
</a>
</g>
</g>
<!-- libprotobuf&#45;&gt;libignition&#45;fuel&#45;tools -->
<g id="edge2" class="edge">
<title>libprotobuf&#45;&gt;libignition&#45;fuel&#45;tools</title>
<path fill="none" stroke="black" d="M310.38,-152.41C299.49,-143.65 285.92,-132.73 273.89,-123.06"/>
<polygon fill="black" stroke="black" points="276.23,-120.45 266.25,-116.91 271.85,-125.9 276.23,-120.45"/>
</g>
<!-- tomviz -->
<g id="node7" class="node">
<title>tomviz</title>
<g id="a_node7"><a xlink:href="https://github.com/conda-forge/tomviz-feedstock" xlink:title="tomviz">
<ellipse fill="#fde725" stroke="black" cx="419" cy="-98" rx="44.89" ry="18"/>
<text text-anchor="middle" x="419" y="-93.33" font-family="Times,serif" font-size="14.00">tomviz</text>
</a>
</g>
</g>
<!-- libprotobuf&#45;&gt;tomviz -->
<g id="edge4" class="edge">
<title>libprotobuf&#45;&gt;tomviz</title>
<path fill="none" stroke="black" d="M351.85,-152.41C363.47,-143.17 378.09,-131.54 390.72,-121.49"/>
<polygon fill="black" stroke="black" points="392.66,-124.42 398.31,-115.45 388.31,-118.94 392.66,-124.42"/>
</g>
<!-- gz&#45;fuel&#45;tools -->
<g id="node9" class="node">
<title>gz&#45;fuel&#45;tools</title>
<g id="a_node9"><a xlink:href="https://github.com/conda-forge/gz-fuel-tools-feedstock" xlink:title="gz fuel tools">
<ellipse fill="#fde725" stroke="black" cx="554" cy="-98" rx="72.25" ry="18"/>
<text text-anchor="middle" x="554" y="-93.33" font-family="Times,serif" font-size="14.00">gz fuel tools</text>
</a>
</g>
</g>
<!-- libprotobuf&#45;&gt;gz&#45;fuel&#45;tools -->
<g id="edge1" class="edge">
<title>libprotobuf&#45;&gt;gz&#45;fuel&#45;tools</title>
<path fill="none" stroke="black" d="M375.32,-155.09C411.04,-143.87 461.43,-128.06 499.6,-116.08"/>
<polygon fill="black" stroke="black" points="500.58,-119.44 509.07,-113.1 498.48,-112.76 500.58,-119.44"/>
</g>
<!-- vtk -->
<g id="node3" class="node">
<title>vtk</title>
<g id="a_node3"><a xlink:href="https://github.com/conda-forge/vtk-feedstock" xlink:title="vtk">
<ellipse fill="#35b779" stroke="black" cx="887.41" cy="-170" rx="27.01" ry="18"/>
<text text-anchor="middle" x="887.41" y="-165.33" font-family="Times,serif" font-size="14.00">vtk</text>
</a>
</g>
</g>
<!-- open3d -->
<g id="node12" class="node">
<title>open3d</title>
<g id="a_node12"><a xlink:href="https://github.com/conda-forge/open3d-feedstock" xlink:title="open3d">
<ellipse fill="#fde725" stroke="black" cx="887.41" cy="-98" rx="48.05" ry="18"/>
<text text-anchor="middle" x="887.41" y="-93.33" font-family="Times,serif" font-size="14.00">open3d</text>
</a>
</g>
</g>
<!-- vtk&#45;&gt;open3d -->
<g id="edge5" class="edge">
<title>vtk&#45;&gt;open3d</title>
<path fill="none" stroke="black" d="M887.41,-151.7C887.41,-144.41 887.41,-135.73 887.41,-127.54"/>
<polygon fill="black" stroke="black" points="890.91,-127.62 887.41,-117.62 883.91,-127.62 890.91,-127.62"/>
</g>
<!-- odil -->
<g id="node5" class="node">
<title>odil</title>
<g id="a_node5"><a xlink:href="https://github.com/conda-forge/odil-feedstock/pull/35" xlink:title="odil ❎">
<ellipse fill="#31688e" stroke="black" cx="732.81" cy="-18" rx="44.89" ry="18"/>
<text text-anchor="middle" x="732.81" y="-13.32" font-family="Times,serif" font-size="14.00" fill="white">odil ❎</text>
</a>
</g>
</g>
<!-- cadabra2 -->
<g id="node6" class="node">
<title>cadabra2</title>
<g id="a_node6"><a xlink:href="https://github.com/conda-forge/cadabra2-feedstock" xlink:title="cadabra2">
<ellipse fill="#35b779" stroke="black" cx="313.12" cy="-18" rx="57.52" ry="18"/>
<text text-anchor="middle" x="313.12" y="-13.32" font-family="Times,serif" font-size="14.00">cadabra2</text>
</a>
</g>
</g>
<!-- gds -->
<g id="node8" class="node">
<title>gds</title>
<g id="a_node8"><a xlink:href="https://github.com/conda-forge/gds-feedstock/pull/21" xlink:title="gds ❎">
<ellipse fill="#31688e" stroke="black" cx="732.81" cy="-206" rx="44.37" ry="18"/>
<text text-anchor="middle" x="732.81" y="-201.32" font-family="Times,serif" font-size="14.00" fill="white">gds ❎</text>
</a>
</g>
</g>
<!-- gds&#45;monitor&#45;apps -->
<g id="node10" class="node">
<title>gds&#45;monitor&#45;apps</title>
<g id="a_node10"><a xlink:href="https://github.com/conda-forge/gds-monitor-apps-feedstock" xlink:title="gds monitor apps">
<ellipse fill="#fde725" stroke="black" cx="732.81" cy="-62" rx="98.56" ry="18"/>
<text text-anchor="middle" x="732.81" y="-57.33" font-family="Times,serif" font-size="14.00">gds monitor apps</text>
</a>
</g>
</g>
<!-- gds&#45;&gt;gds&#45;monitor&#45;apps -->
<g id="edge7" class="edge">
<title>gds&#45;&gt;gds&#45;monitor&#45;apps</title>
<path fill="none" stroke="black" d="M724.31,-188.31C719.6,-178.11 714.22,-164.64 711.81,-152 708.81,-136.28 708.81,-131.72 711.81,-116 713.42,-107.54 716.36,-98.71 719.54,-90.74"/>
<polygon fill="black" stroke="black" points="722.76,-92.13 723.49,-81.56 716.33,-89.36 722.76,-92.13"/>
</g>
<!-- gds&#45;dmt -->
<g id="node11" class="node">
<title>gds&#45;dmt</title>
<g id="a_node11"><a xlink:href="https://github.com/conda-forge/gds-dmt-feedstock" xlink:title="gds dmt">
<ellipse fill="#fde725" stroke="black" cx="772.81" cy="-134" rx="52.26" ry="18"/>
<text text-anchor="middle" x="772.81" y="-129.32" font-family="Times,serif" font-size="14.00">gds dmt</text>
</a>
</g>
</g>
<!-- gds&#45;&gt;gds&#45;dmt -->
<g id="edge6" class="edge">
<title>gds&#45;&gt;gds&#45;dmt</title>
<path fill="none" stroke="black" d="M742.49,-188.05C747.01,-180.14 752.5,-170.54 757.56,-161.69"/>
<polygon fill="black" stroke="black" points="760.54,-163.52 762.46,-153.1 754.46,-160.05 760.54,-163.52"/>
</g>
<!-- gds&#45;dmt&#45;&gt;gds&#45;monitor&#45;apps -->
<g id="edge8" class="edge">
<title>gds&#45;dmt&#45;&gt;gds&#45;monitor&#45;apps</title>
<path fill="none" stroke="black" d="M763.12,-116.05C758.67,-108.26 753.28,-98.82 748.28,-90.08"/>
<polygon fill="black" stroke="black" points="751.43,-88.54 743.43,-81.59 745.35,-92.01 751.43,-88.54"/>
</g>
</g>
</svg>
