<?xml version="1.0" encoding="UTF-8" standalone="no"?>
<!DOCTYPE svg PUBLIC "-//W3C//DTD SVG 1.1//EN"
 "http://www.w3.org/Graphics/SVG/1.1/DTD/svg11.dtd">
<!-- Generated by graphviz version 12.0.0 (20240803.0821)
 -->
<!-- Pages: 1 -->
<svg width="2237pt" height="1716pt"
 viewBox="0.00 0.00 2237.36 1716.00" xmlns="http://www.w3.org/2000/svg" xmlns:xlink="http://www.w3.org/1999/xlink">
<g id="graph0" class="graph" transform="scale(1 1) rotate(0) translate(4 1712)">
<polygon fill="white" stroke="none" points="-4,4 -4,-1712 2233.36,-1712 2233.36,4 -4,4"/>
<!-- arrow&#45;cpp -->
<g id="node1" class="node">
<title>arrow&#45;cpp</title>
<g id="a_node1"><a xlink:href="https://github.com/conda-forge/arrow-cpp-feedstock/pull/1548" xlink:title="arrow cpp ❎">
<ellipse fill="#31688e" stroke="black" cx="108.06" cy="-1402" rx="76.99" ry="18"/>
<text text-anchor="middle" x="108.06" y="-1397.33" font-family="Times,serif" font-size="14.00" fill="white">arrow cpp ❎</text>
</a>
</g>
</g>
<!-- ray&#45;packages -->
<g id="node2" class="node">
<title>ray&#45;packages</title>
<g id="a_node2"><a xlink:href="https://github.com/conda-forge/ray-packages-feedstock" xlink:title="ray packages">
<ellipse fill="#fde725" stroke="black" cx="764.06" cy="-1330" rx="76.99" ry="18"/>
<text text-anchor="middle" x="764.06" y="-1325.33" font-family="Times,serif" font-size="14.00">ray packages</text>
</a>
</g>
</g>
<!-- arrow&#45;cpp&#45;&gt;ray&#45;packages -->
<g id="edge1" class="edge">
<title>arrow&#45;cpp&#45;&gt;ray&#45;packages</title>
<path fill="none" stroke="black" d="M162.95,-1389.12C173.25,-1387.19 183.95,-1385.37 194.06,-1384 407.81,-1355.03 464.31,-1376.97 678.06,-1348 684.53,-1347.12 691.25,-1346.06 697.95,-1344.9"/>
<polygon fill="black" stroke="black" points="698.46,-1348.37 707.68,-1343.15 697.22,-1341.48 698.46,-1348.37"/>
</g>
<!-- datafusion -->
<g id="node3" class="node">
<title>datafusion</title>
<g id="a_node3"><a xlink:href="https://github.com/conda-forge/datafusion-feedstock" xlink:title="datafusion">
<ellipse fill="#fde725" stroke="black" cx="200.06" cy="-1330" rx="63.84" ry="18"/>
<text text-anchor="middle" x="200.06" y="-1325.33" font-family="Times,serif" font-size="14.00">datafusion</text>
</a>
</g>
</g>
<!-- arrow&#45;cpp&#45;&gt;datafusion -->
<g id="edge2" class="edge">
<title>arrow&#45;cpp&#45;&gt;datafusion</title>
<path fill="none" stroke="black" d="M129.86,-1384.41C141.75,-1375.37 156.65,-1364.03 169.66,-1354.13"/>
<polygon fill="black" stroke="black" points="171.69,-1356.99 177.53,-1348.14 167.45,-1351.41 171.69,-1356.99"/>
</g>
<!-- arcticdb -->
<g id="node4" class="node">
<title>arcticdb</title>
<g id="a_node4"><a xlink:href="https://github.com/conda-forge/arcticdb-feedstock" xlink:title="arcticdb">
<ellipse fill="#fde725" stroke="black" cx="108.06" cy="-1258" rx="52.26" ry="18"/>
<text text-anchor="middle" x="108.06" y="-1253.33" font-family="Times,serif" font-size="14.00">arcticdb</text>
</a>
</g>
</g>
<!-- arrow&#45;cpp&#45;&gt;arcticdb -->
<g id="edge3" class="edge">
<title>arrow&#45;cpp&#45;&gt;arcticdb</title>
<path fill="none" stroke="black" d="M108.06,-1383.59C108.06,-1359.61 108.06,-1316.14 108.06,-1287.42"/>
<polygon fill="black" stroke="black" points="111.56,-1287.62 108.06,-1277.62 104.56,-1287.62 111.56,-1287.62"/>
</g>
<!-- csp -->
<g id="node5" class="node">
<title>csp</title>
<g id="a_node5"><a xlink:href="https://github.com/conda-forge/csp-feedstock" xlink:title="csp">
<ellipse fill="#fde725" stroke="black" cx="28.06" cy="-1186" rx="28.06" ry="18"/>
<text text-anchor="middle" x="28.06" y="-1181.33" font-family="Times,serif" font-size="14.00">csp</text>
</a>
</g>
</g>
<!-- arrow&#45;cpp&#45;&gt;csp -->
<g id="edge4" class="edge">
<title>arrow&#45;cpp&#45;&gt;csp</title>
<path fill="none" stroke="black" d="M97.97,-1383.78C84.55,-1360.19 60.92,-1316.18 47.06,-1276 40.28,-1256.34 35.45,-1233.37 32.35,-1215.69"/>
<polygon fill="black" stroke="black" points="35.82,-1215.19 30.73,-1205.89 28.91,-1216.33 35.82,-1215.19"/>
</g>
<!-- bazel -->
<g id="node6" class="node">
<title>bazel</title>
<g id="a_node6"><a xlink:href="https://github.com/conda-forge/bazel-feedstock" xlink:title="bazel">
<ellipse fill="#ff8c00" stroke="black" cx="523.92" cy="-926" rx="37.53" ry="18"/>
<text text-anchor="middle" x="523.92" y="-921.33" font-family="Times,serif" font-size="14.00">bazel</text>
</a>
</g>
</g>
<!-- mosh -->
<g id="node7" class="node">
<title>mosh</title>
<g id="a_node7"><a xlink:href="https://github.com/conda-forge/mosh-feedstock" xlink:title="mosh">
<ellipse fill="#35b779" stroke="black" cx="523.92" cy="-854" rx="38.06" ry="18"/>
<text text-anchor="middle" x="523.92" y="-849.33" font-family="Times,serif" font-size="14.00">mosh</text>
</a>
</g>
</g>
<!-- bazel&#45;&gt;mosh -->
<!-- mysql -->
<g id="node8" class="node">
<title>mysql</title>
<g id="a_node8"><a xlink:href="https://github.com/conda-forge/mysql-feedstock/pull/103" xlink:title="mysql ❎">
<ellipse fill="#31688e" stroke="black" cx="523.92" cy="-782" rx="56.47" ry="18"/>
<text text-anchor="middle" x="523.92" y="-777.33" font-family="Times,serif" font-size="14.00" fill="white">mysql ❎</text>
</a>
</g>
</g>
<!-- mosh&#45;&gt;mysql -->
<!-- onnx -->
<g id="node9" class="node">
<title>onnx</title>
<g id="a_node9"><a xlink:href="https://github.com/conda-forge/onnx-feedstock/pull/122" xlink:title="onnx ✓">
<ellipse fill="#31688e" stroke="black" cx="523.92" cy="-710" rx="43.32" ry="18"/>
<text text-anchor="middle" x="523.92" y="-705.33" font-family="Times,serif" font-size="14.00" fill="white">onnx ✓</text>
</a>
</g>
</g>
<!-- mysql&#45;&gt;onnx -->
<!-- paraview -->
<g id="node10" class="node">
<title>paraview</title>
<g id="a_node10"><a xlink:href="https://github.com/conda-forge/paraview-feedstock" xlink:title="paraview">
<ellipse fill="#35b779" stroke="black" cx="523.92" cy="-638" rx="57" ry="18"/>
<text text-anchor="middle" x="523.92" y="-633.33" font-family="Times,serif" font-size="14.00">paraview</text>
</a>
</g>
</g>
<!-- onnx&#45;&gt;paraview -->
<!-- qgis -->
<g id="node14" class="node">
<title>qgis</title>
<g id="a_node14"><a xlink:href="https://github.com/conda-forge/qgis-feedstock" xlink:title="qgis">
<ellipse fill="#35b779" stroke="black" cx="523.92" cy="-566" rx="32.27" ry="18"/>
<text text-anchor="middle" x="523.92" y="-561.33" font-family="Times,serif" font-size="14.00">qgis</text>
</a>
</g>
</g>
<!-- paraview&#45;&gt;qgis -->
<!-- opencv -->
<g id="node11" class="node">
<title>opencv</title>
<g id="a_node11"><a xlink:href="https://github.com/conda-forge/opencv-feedstock" xlink:title="opencv">
<ellipse fill="#fde725" stroke="black" cx="602.06" cy="-1402" rx="46.47" ry="18"/>
<text text-anchor="middle" x="602.06" y="-1397.33" font-family="Times,serif" font-size="14.00">opencv</text>
</a>
</g>
</g>
<!-- opencv&#45;&gt;ray&#45;packages -->
<g id="edge9" class="edge">
<title>opencv&#45;&gt;ray&#45;packages</title>
<path fill="none" stroke="black" d="M632.15,-1388C656.33,-1377.55 690.69,-1362.7 718.27,-1350.78"/>
<polygon fill="black" stroke="black" points="719.3,-1354.15 727.09,-1346.97 716.52,-1347.73 719.3,-1354.15"/>
</g>
<!-- imp -->
<g id="node12" class="node">
<title>imp</title>
<g id="a_node12"><a xlink:href="https://github.com/conda-forge/imp-feedstock" xlink:title="imp">
<ellipse fill="#fde725" stroke="black" cx="639.06" cy="-1330" rx="30.16" ry="18"/>
<text text-anchor="middle" x="639.06" y="-1325.33" font-family="Times,serif" font-size="14.00">imp</text>
</a>
</g>
</g>
<!-- opencv&#45;&gt;imp -->
<g id="edge10" class="edge">
<title>opencv&#45;&gt;imp</title>
<path fill="none" stroke="black" d="M611.02,-1384.05C615.26,-1376.03 620.42,-1366.26 625.16,-1357.3"/>
<polygon fill="black" stroke="black" points="628.15,-1359.12 629.73,-1348.65 621.97,-1355.85 628.15,-1359.12"/>
</g>
<!-- gazebo&#45;yarp&#45;plugins -->
<g id="node13" class="node">
<title>gazebo&#45;yarp&#45;plugins</title>
<g id="a_node13"><a xlink:href="https://github.com/conda-forge/gazebo-yarp-plugins-feedstock" xlink:title="gazebo yarp plugins">
<ellipse fill="#fde725" stroke="black" cx="479.06" cy="-1330" rx="112.24" ry="18"/>
<text text-anchor="middle" x="479.06" y="-1325.33" font-family="Times,serif" font-size="14.00">gazebo yarp plugins</text>
</a>
</g>
</g>
<!-- opencv&#45;&gt;gazebo&#45;yarp&#45;plugins -->
<g id="edge11" class="edge">
<title>opencv&#45;&gt;gazebo&#45;yarp&#45;plugins</title>
<path fill="none" stroke="black" d="M576.57,-1386.5C559.75,-1376.92 537.38,-1364.19 518.31,-1353.34"/>
<polygon fill="black" stroke="black" points="520.14,-1350.35 509.72,-1348.45 516.68,-1356.44 520.14,-1350.35"/>
</g>
<!-- tensorflow -->
<g id="node15" class="node">
<title>tensorflow</title>
<g id="a_node15"><a xlink:href="https://github.com/conda-forge/tensorflow-feedstock" xlink:title="tensorflow">
<ellipse fill="#ff8c00" stroke="black" cx="523.92" cy="-494" rx="63.84" ry="18"/>
<text text-anchor="middle" x="523.92" y="-489.32" font-family="Times,serif" font-size="14.00">tensorflow</text>
</a>
</g>
</g>
<!-- qgis&#45;&gt;tensorflow -->
<!-- r&#45;protolite -->
<g id="node17" class="node">
<title>r&#45;protolite</title>
<g id="a_node17"><a xlink:href="https://github.com/conda-forge/r-protolite-feedstock/pull/42" xlink:title="r protolite ❎">
<ellipse fill="#31688e" stroke="black" cx="523.92" cy="-422" rx="77.52" ry="18"/>
<text text-anchor="middle" x="523.92" y="-417.32" font-family="Times,serif" font-size="14.00" fill="white">r protolite ❎</text>
</a>
</g>
</g>
<!-- tensorflow&#45;&gt;r&#45;protolite -->
<!-- pyaudi -->
<g id="node16" class="node">
<title>pyaudi</title>
<g id="a_node16"><a xlink:href="https://github.com/conda-forge/pyaudi-feedstock" xlink:title="pyaudi">
<ellipse fill="#fde725" stroke="black" cx="1909.84" cy="-54" rx="44.9" ry="18"/>
<text text-anchor="middle" x="1909.84" y="-49.33" font-family="Times,serif" font-size="14.00">pyaudi</text>
</a>
</g>
</g>
<!-- mongodb -->
<g id="node18" class="node">
<title>mongodb</title>
<g id="a_node18"><a xlink:href="https://github.com/conda-forge/mongodb-feedstock/pull/97" xlink:title="mongodb ❎">
<ellipse fill="#31688e" stroke="black" cx="523.92" cy="-350" rx="72.78" ry="18"/>
<text text-anchor="middle" x="523.92" y="-345.32" font-family="Times,serif" font-size="14.00" fill="white">mongodb ❎</text>
</a>
</g>
</g>
<!-- r&#45;protolite&#45;&gt;mongodb -->
<!-- go&#45;cockroach -->
<g id="node20" class="node">
<title>go&#45;cockroach</title>
<g id="a_node20"><a xlink:href="https://github.com/conda-forge/go-cockroach-feedstock" xlink:title="go cockroach">
<ellipse fill="#35b779" stroke="black" cx="523.92" cy="-278" rx="76.46" ry="18"/>
<text text-anchor="middle" x="523.92" y="-273.32" font-family="Times,serif" font-size="14.00">go cockroach</text>
</a>
</g>
</g>
<!-- mongodb&#45;&gt;go&#45;cockroach -->
<!-- pytorch&#45;cpu -->
<g id="node19" class="node">
<title>pytorch&#45;cpu</title>
<g id="a_node19"><a xlink:href="https://github.com/conda-forge/pytorch-cpu-feedstock/pull/265" xlink:title="pytorch cpu ❎">
<ellipse fill="#31688e" stroke="black" cx="752.06" cy="-1402" rx="85.93" ry="18"/>
<text text-anchor="middle" x="752.06" y="-1397.33" font-family="Times,serif" font-size="14.00" fill="white">pytorch cpu ❎</text>
</a>
</g>
</g>
<!-- pytorch&#45;cpu&#45;&gt;ray&#45;packages -->
<g id="edge16" class="edge">
<title>pytorch&#45;cpu&#45;&gt;ray&#45;packages</title>
<path fill="none" stroke="black" d="M755.03,-1383.7C756.29,-1376.32 757.8,-1367.52 759.22,-1359.25"/>
<polygon fill="black" stroke="black" points="762.63,-1360.04 760.87,-1349.6 755.73,-1358.86 762.63,-1360.04"/>
</g>
<!-- cartographer -->
<g id="node33" class="node">
<title>cartographer</title>
<g id="a_node33"><a xlink:href="https://github.com/conda-forge/cartographer-feedstock" xlink:title="cartographer">
<ellipse fill="#35b779" stroke="black" cx="523.92" cy="-206" rx="76.99" ry="18"/>
<text text-anchor="middle" x="523.92" y="-201.32" font-family="Times,serif" font-size="14.00">cartographer</text>
</a>
</g>
</g>
<!-- go&#45;cockroach&#45;&gt;cartographer -->
<!-- jaxlib -->
<g id="node21" class="node">
<title>jaxlib</title>
<g id="a_node21"><a xlink:href="https://github.com/conda-forge/jaxlib-feedstock" xlink:title="jaxlib">
<ellipse fill="#ff8c00" stroke="black" cx="886.06" cy="-1474" rx="38.58" ry="18"/>
<text text-anchor="middle" x="886.06" y="-1469.33" font-family="Times,serif" font-size="14.00">jaxlib</text>
</a>
</g>
</g>
<!-- mujoco -->
<g id="node22" class="node">
<title>mujoco</title>
<g id="a_node22"><a xlink:href="https://github.com/conda-forge/mujoco-feedstock" xlink:title="mujoco">
<ellipse fill="#fde725" stroke="black" cx="903.06" cy="-1402" rx="47" ry="18"/>
<text text-anchor="middle" x="903.06" y="-1397.33" font-family="Times,serif" font-size="14.00">mujoco</text>
</a>
</g>
</g>
<!-- jaxlib&#45;&gt;mujoco -->
<g id="edge18" class="edge">
<title>jaxlib&#45;&gt;mujoco</title>
<path fill="none" stroke="black" d="M890.26,-1455.7C892.05,-1448.32 894.19,-1439.52 896.2,-1431.25"/>
<polygon fill="black" stroke="black" points="899.59,-1432.12 898.55,-1421.58 892.79,-1430.47 899.59,-1432.12"/>
</g>
<!-- mujoco&#45;&gt;ray&#45;packages -->
<g id="edge19" class="edge">
<title>mujoco&#45;&gt;ray&#45;packages</title>
<path fill="none" stroke="black" d="M875.26,-1387C855.2,-1376.9 827.78,-1363.09 805.19,-1351.71"/>
<polygon fill="black" stroke="black" points="807.05,-1348.73 796.55,-1347.36 803.91,-1354.99 807.05,-1348.73"/>
</g>
<!-- obake -->
<g id="node23" class="node">
<title>obake</title>
<g id="a_node23"><a xlink:href="https://github.com/conda-forge/obake-feedstock" xlink:title="obake">
<ellipse fill="#35b779" stroke="black" cx="1909.84" cy="-126" rx="40.69" ry="18"/>
<text text-anchor="middle" x="1909.84" y="-121.33" font-family="Times,serif" font-size="14.00">obake</text>
</a>
</g>
</g>
<!-- obake&#45;&gt;pyaudi -->
<g id="edge20" class="edge">
<title>obake&#45;&gt;pyaudi</title>
<path fill="none" stroke="black" d="M1909.84,-107.7C1909.84,-100.41 1909.84,-91.73 1909.84,-83.54"/>
<polygon fill="black" stroke="black" points="1913.34,-83.62 1909.84,-73.62 1906.34,-83.62 1913.34,-83.62"/>
</g>
<!-- libignition&#45;transport4 -->
<g id="node24" class="node">
<title>libignition&#45;transport4</title>
<g id="a_node24"><a xlink:href="https://github.com/conda-forge/libignition-transport4-feedstock" xlink:title="libignition transport4">
<ellipse fill="#fde725" stroke="black" cx="1795.53" cy="-1402" rx="119.08" ry="18"/>
<text text-anchor="middle" x="1795.53" y="-1397.33" font-family="Times,serif" font-size="14.00">libignition transport4</text>
</a>
</g>
</g>
<!-- libignition&#45;sensors -->
<g id="node25" class="node">
<title>libignition&#45;sensors</title>
<g id="a_node25"><a xlink:href="https://github.com/conda-forge/libignition-sensors-feedstock" xlink:title="libignition sensors">
<ellipse fill="#fde725" stroke="black" cx="1950.53" cy="-1330" rx="103.82" ry="18"/>
<text text-anchor="middle" x="1950.53" y="-1325.33" font-family="Times,serif" font-size="14.00">libignition sensors</text>
</a>
</g>
</g>
<!-- libignition&#45;transport4&#45;&gt;libignition&#45;sensors -->
<g id="edge21" class="edge">
<title>libignition&#45;transport4&#45;&gt;libignition&#45;sensors</title>
<path fill="none" stroke="black" d="M1832.26,-1384.41C1853.77,-1374.7 1881.12,-1362.34 1904.11,-1351.96"/>
<polygon fill="black" stroke="black" points="1905.27,-1355.28 1912.95,-1347.97 1902.39,-1348.9 1905.27,-1355.28"/>
</g>
<!-- libignition&#45;gui -->
<g id="node26" class="node">
<title>libignition&#45;gui</title>
<g id="a_node26"><a xlink:href="https://github.com/conda-forge/libignition-gui-feedstock" xlink:title="libignition gui">
<ellipse fill="#fde725" stroke="black" cx="1671.53" cy="-1330" rx="81.2" ry="18"/>
<text text-anchor="middle" x="1671.53" y="-1325.33" font-family="Times,serif" font-size="14.00">libignition gui</text>
</a>
</g>
</g>
<!-- libignition&#45;transport4&#45;&gt;libignition&#45;gui -->
<g id="edge22" class="edge">
<title>libignition&#45;transport4&#45;&gt;libignition&#45;gui</title>
<path fill="none" stroke="black" d="M1765.83,-1384.23C1749.1,-1374.79 1728.02,-1362.89 1710.03,-1352.74"/>
<polygon fill="black" stroke="black" points="1711.88,-1349.76 1701.45,-1347.89 1708.44,-1355.86 1711.88,-1349.76"/>
</g>
<!-- libignition&#45;gazebo -->
<g id="node27" class="node">
<title>libignition&#45;gazebo</title>
<g id="a_node27"><a xlink:href="https://github.com/conda-forge/libignition-gazebo-feedstock" xlink:title="libignition gazebo">
<ellipse fill="#fde725" stroke="black" cx="1930.53" cy="-1258" rx="100.66" ry="18"/>
<text text-anchor="middle" x="1930.53" y="-1253.33" font-family="Times,serif" font-size="14.00">libignition gazebo</text>
</a>
</g>
</g>
<!-- libignition&#45;transport4&#45;&gt;libignition&#45;gazebo -->
<g id="edge23" class="edge">
<title>libignition&#45;transport4&#45;&gt;libignition&#45;gazebo</title>
<path fill="none" stroke="black" d="M1800.2,-1383.8C1806.18,-1364.43 1818.14,-1332.94 1837.53,-1312 1849.64,-1298.91 1865.75,-1288.19 1881.15,-1279.89"/>
<polygon fill="black" stroke="black" points="1882.46,-1283.16 1889.77,-1275.49 1879.27,-1276.92 1882.46,-1283.16"/>
</g>
<!-- libignition&#45;launch -->
<g id="node28" class="node">
<title>libignition&#45;launch</title>
<g id="a_node28"><a xlink:href="https://github.com/conda-forge/libignition-launch-feedstock" xlink:title="libignition launch">
<ellipse fill="#fde725" stroke="black" cx="1865.53" cy="-1186" rx="98.56" ry="18"/>
<text text-anchor="middle" x="1865.53" y="-1181.33" font-family="Times,serif" font-size="14.00">libignition launch</text>
</a>
</g>
</g>
<!-- libignition&#45;transport4&#45;&gt;libignition&#45;launch -->
<g id="edge24" class="edge">
<title>libignition&#45;transport4&#45;&gt;libignition&#45;launch</title>
<path fill="none" stroke="black" d="M1795.2,-1383.68C1795.26,-1353.2 1798.29,-1288.62 1820.53,-1240 1825.1,-1230 1832.11,-1220.41 1839.25,-1212.2"/>
<polygon fill="black" stroke="black" points="1841.7,-1214.72 1845.91,-1205 1836.56,-1209.97 1841.7,-1214.72"/>
</g>
<!-- libignition&#45;sensors&#45;&gt;libignition&#45;gazebo -->
<g id="edge25" class="edge">
<title>libignition&#45;sensors&#45;&gt;libignition&#45;gazebo</title>
<path fill="none" stroke="black" d="M1945.58,-1311.7C1943.45,-1304.24 1940.91,-1295.32 1938.52,-1286.97"/>
<polygon fill="black" stroke="black" points="1941.94,-1286.21 1935.83,-1277.56 1935.21,-1288.14 1941.94,-1286.21"/>
</g>
<!-- libignition&#45;gui&#45;&gt;libignition&#45;gazebo -->
<g id="edge26" class="edge">
<title>libignition&#45;gui&#45;&gt;libignition&#45;gazebo</title>
<path fill="none" stroke="black" d="M1721.77,-1315.42C1762.73,-1304.35 1820.87,-1288.64 1865.39,-1276.6"/>
<polygon fill="black" stroke="black" points="1866.2,-1280.01 1874.94,-1274.02 1864.37,-1273.25 1866.2,-1280.01"/>
</g>
<!-- libignition&#45;gui&#45;&gt;libignition&#45;launch -->
<g id="edge27" class="edge">
<title>libignition&#45;gui&#45;&gt;libignition&#45;launch</title>
<path fill="none" stroke="black" d="M1686.87,-1312.18C1704.78,-1293.17 1735.86,-1262 1766.53,-1240 1783.21,-1228.03 1802.93,-1216.94 1820.35,-1208.03"/>
<polygon fill="black" stroke="black" points="1821.58,-1211.33 1828.96,-1203.72 1818.45,-1205.07 1821.58,-1211.33"/>
</g>
<!-- libignition&#45;gazebo&#45;&gt;libignition&#45;launch -->
<g id="edge28" class="edge">
<title>libignition&#45;gazebo&#45;&gt;libignition&#45;launch</title>
<path fill="none" stroke="black" d="M1914.79,-1240.05C1906.97,-1231.63 1897.36,-1221.28 1888.71,-1211.97"/>
<polygon fill="black" stroke="black" points="1891.52,-1209.84 1882.15,-1204.9 1886.39,-1214.61 1891.52,-1209.84"/>
</g>
<!-- libignition&#45;msgs1 -->
<g id="node29" class="node">
<title>libignition&#45;msgs1</title>
<g id="a_node29"><a xlink:href="https://github.com/conda-forge/libignition-msgs1-feedstock/pull/108" xlink:title="libignition msgs1 ❎">
<ellipse fill="#31688e" stroke="black" cx="2012.53" cy="-1474" rx="113.29" ry="18"/>
<text text-anchor="middle" x="2012.53" y="-1469.33" font-family="Times,serif" font-size="14.00" fill="white">libignition msgs1 ❎</text>
</a>
</g>
</g>
<!-- libignition&#45;msgs1&#45;&gt;libignition&#45;transport4 -->
<g id="edge29" class="edge">
<title>libignition&#45;msgs1&#45;&gt;libignition&#45;transport4</title>
<path fill="none" stroke="black" d="M1963.83,-1457.29C1931.69,-1446.92 1889.38,-1433.27 1855.22,-1422.26"/>
<polygon fill="black" stroke="black" points="1856.47,-1418.98 1845.88,-1419.24 1854.32,-1425.64 1856.47,-1418.98"/>
</g>
<!-- libignition&#45;msgs1&#45;&gt;libignition&#45;sensors -->
<g id="edge30" class="edge">
<title>libignition&#45;msgs1&#45;&gt;libignition&#45;sensors</title>
<path fill="none" stroke="black" d="M1990.48,-1455.97C1979.93,-1446.55 1968.17,-1433.95 1961.53,-1420 1952.56,-1401.18 1949.97,-1377.7 1949.53,-1359.59"/>
<polygon fill="black" stroke="black" points="1953.03,-1359.8 1949.52,-1349.8 1946.03,-1359.81 1953.03,-1359.8"/>
</g>
<!-- libignition&#45;msgs1&#45;&gt;libignition&#45;gui -->
<g id="edge31" class="edge">
<title>libignition&#45;msgs1&#45;&gt;libignition&#45;gui</title>
<path fill="none" stroke="black" d="M1900.62,-1471.07C1811.62,-1466.88 1697.27,-1454.66 1667.53,-1420 1653.45,-1403.59 1655.94,-1378.57 1661.1,-1359.23"/>
<polygon fill="black" stroke="black" points="1664.41,-1360.36 1663.99,-1349.78 1657.72,-1358.31 1664.41,-1360.36"/>
</g>
<!-- libignition&#45;msgs1&#45;&gt;libignition&#45;gazebo -->
<g id="edge32" class="edge">
<title>libignition&#45;msgs1&#45;&gt;libignition&#45;gazebo</title>
<path fill="none" stroke="black" d="M2104.7,-1463.23C2165.43,-1452.43 2229.36,-1430.02 2203.53,-1384 2166.63,-1318.25 2084.28,-1286.9 2019.62,-1272.06"/>
<polygon fill="black" stroke="black" points="2020.58,-1268.69 2010.07,-1269.97 2019.09,-1275.53 2020.58,-1268.69"/>
</g>
<!-- libignition&#45;msgs1&#45;&gt;libignition&#45;launch -->
<g id="edge33" class="edge">
<title>libignition&#45;msgs1&#45;&gt;libignition&#45;launch</title>
<path fill="none" stroke="black" d="M2097.81,-1461.83C2147.87,-1453.34 2204.23,-1439.71 2219.53,-1420 2229.34,-1407.36 2224.65,-1399.16 2219.53,-1384 2181.63,-1271.96 2040.77,-1222.11 1948.57,-1201.09"/>
<polygon fill="black" stroke="black" points="1949.57,-1197.73 1939.05,-1198.99 1948.07,-1204.56 1949.57,-1197.73"/>
</g>
<!-- libignition&#45;fuel&#45;tools -->
<g id="node30" class="node">
<title>libignition&#45;fuel&#45;tools</title>
<g id="a_node30"><a xlink:href="https://github.com/conda-forge/libignition-fuel-tools-feedstock" xlink:title="libignition fuel tools">
<ellipse fill="#fde725" stroke="black" cx="2082.53" cy="-1402" rx="111.71" ry="18"/>
<text text-anchor="middle" x="2082.53" y="-1397.33" font-family="Times,serif" font-size="14.00">libignition fuel tools</text>
</a>
</g>
</g>
<!-- libignition&#45;msgs1&#45;&gt;libignition&#45;fuel&#45;tools -->
<g id="edge34" class="edge">
<title>libignition&#45;msgs1&#45;&gt;libignition&#45;fuel&#45;tools</title>
<path fill="none" stroke="black" d="M2029.47,-1456.05C2037.78,-1447.75 2047.94,-1437.58 2057.15,-1428.38"/>
<polygon fill="black" stroke="black" points="2059.59,-1430.89 2064.18,-1421.35 2054.64,-1425.94 2059.59,-1430.89"/>
</g>
<!-- libignition&#45;fuel&#45;tools&#45;&gt;libignition&#45;gazebo -->
<g id="edge35" class="edge">
<title>libignition&#45;fuel&#45;tools&#45;&gt;libignition&#45;gazebo</title>
<path fill="none" stroke="black" d="M2083.41,-1383.52C2083.45,-1363.89 2080.55,-1332.16 2063.53,-1312 2049.26,-1295.1 2028.84,-1283.54 2008.27,-1275.66"/>
<polygon fill="black" stroke="black" points="2009.56,-1272.4 1998.96,-1272.36 2007.22,-1279 2009.56,-1272.4"/>
</g>
<!-- gazebo -->
<g id="node31" class="node">
<title>gazebo</title>
<g id="a_node31"><a xlink:href="https://github.com/conda-forge/gazebo-feedstock" xlink:title="gazebo">
<ellipse fill="#35b779" stroke="black" cx="491.06" cy="-1402" rx="46.47" ry="18"/>
<text text-anchor="middle" x="491.06" y="-1397.33" font-family="Times,serif" font-size="14.00">gazebo</text>
</a>
</g>
</g>
<!-- gazebo&#45;&gt;gazebo&#45;yarp&#45;plugins -->
<g id="edge36" class="edge">
<title>gazebo&#45;&gt;gazebo&#45;yarp&#45;plugins</title>
<path fill="none" stroke="black" d="M488.09,-1383.7C486.83,-1376.32 485.32,-1367.52 483.9,-1359.25"/>
<polygon fill="black" stroke="black" points="487.39,-1358.86 482.25,-1349.6 480.49,-1360.04 487.39,-1358.86"/>
</g>
<!-- google&#45;cloud&#45;cpp -->
<g id="node32" class="node">
<title>google&#45;cloud&#45;cpp</title>
<g id="a_node32"><a xlink:href="https://github.com/conda-forge/google-cloud-cpp-feedstock" xlink:title="google cloud cpp">
<ellipse fill="#fde725" stroke="black" cx="1893.25" cy="-458" rx="95.4" ry="18"/>
<text text-anchor="middle" x="1893.25" y="-453.32" font-family="Times,serif" font-size="14.00">google cloud cpp</text>
</a>
</g>
</g>
<!-- sentencepiece -->
<g id="node34" class="node">
<title>sentencepiece</title>
<g id="a_node34"><a xlink:href="https://github.com/conda-forge/sentencepiece-feedstock/pull/55" xlink:title="sentencepiece ❎">
<ellipse fill="#31688e" stroke="black" cx="315.06" cy="-1474" rx="97.51" ry="18"/>
<text text-anchor="middle" x="315.06" y="-1469.33" font-family="Times,serif" font-size="14.00" fill="white">sentencepiece ❎</text>
</a>
</g>
</g>
<!-- openvino&#45;tokenizers -->
<g id="node35" class="node">
<title>openvino&#45;tokenizers</title>
<g id="a_node35"><a xlink:href="https://github.com/conda-forge/openvino-tokenizers-feedstock" xlink:title="openvino tokenizers">
<ellipse fill="#fde725" stroke="black" cx="315.06" cy="-1402" rx="111.71" ry="18"/>
<text text-anchor="middle" x="315.06" y="-1397.33" font-family="Times,serif" font-size="14.00">openvino tokenizers</text>
</a>
</g>
</g>
<!-- sentencepiece&#45;&gt;openvino&#45;tokenizers -->
<g id="edge38" class="edge">
<title>sentencepiece&#45;&gt;openvino&#45;tokenizers</title>
<path fill="none" stroke="black" d="M315.06,-1455.7C315.06,-1448.41 315.06,-1439.73 315.06,-1431.54"/>
<polygon fill="black" stroke="black" points="318.56,-1431.62 315.06,-1421.62 311.56,-1431.62 318.56,-1431.62"/>
</g>
<!-- s2geometry -->
<g id="node36" class="node">
<title>s2geometry</title>
<g id="a_node36"><a xlink:href="https://github.com/conda-forge/s2geometry-feedstock/pull/21" xlink:title="s2geometry ❎">
<ellipse fill="#31688e" stroke="black" cx="1319.09" cy="-126" rx="85.93" ry="18"/>
<text text-anchor="middle" x="1319.09" y="-121.33" font-family="Times,serif" font-size="14.00" fill="white">s2geometry ❎</text>
</a>
</g>
</g>
<!-- s2geography -->
<g id="node37" class="node">
<title>s2geography</title>
<g id="a_node37"><a xlink:href="https://github.com/conda-forge/s2geography-feedstock" xlink:title="s2geography">
<ellipse fill="#fde725" stroke="black" cx="1319.09" cy="-54" rx="75.94" ry="18"/>
<text text-anchor="middle" x="1319.09" y="-49.33" font-family="Times,serif" font-size="14.00">s2geography</text>
</a>
</g>
</g>
<!-- s2geometry&#45;&gt;s2geography -->
<g id="edge39" class="edge">
<title>s2geometry&#45;&gt;s2geography</title>
<path fill="none" stroke="black" d="M1319.09,-107.7C1319.09,-100.41 1319.09,-91.73 1319.09,-83.54"/>
<polygon fill="black" stroke="black" points="1322.59,-83.62 1319.09,-73.62 1315.59,-83.62 1322.59,-83.62"/>
</g>
<!-- tomviz -->
<g id="node38" class="node">
<title>tomviz</title>
<g id="a_node38"><a xlink:href="https://github.com/conda-forge/tomviz-feedstock" xlink:title="tomviz">
<ellipse fill="#35b779" stroke="black" cx="1319.09" cy="-1690" rx="44.9" ry="18"/>
<text text-anchor="middle" x="1319.09" y="-1685.33" font-family="Times,serif" font-size="14.00">tomviz</text>
</a>
</g>
</g>
<!-- grpc_java_plugin -->
<g id="node39" class="node">
<title>grpc_java_plugin</title>
<g id="a_node39"><a xlink:href="https://github.com/conda-forge/grpc_java_plugin-feedstock" xlink:title="grpc_java_plugin">
<ellipse fill="#000000" stroke="black" cx="1319.09" cy="-1618" rx="95.4" ry="18"/>
<text text-anchor="middle" x="1319.09" y="-1613.33" font-family="Times,serif" font-size="14.00" fill="white">grpc_java_plugin</text>
</a>
</g>
</g>
<!-- tomviz&#45;&gt;grpc_java_plugin -->
<!-- or&#45;tools -->
<g id="node40" class="node">
<title>or&#45;tools</title>
<g id="a_node40"><a xlink:href="https://github.com/conda-forge/or-tools-feedstock/pull/62" xlink:title="or tools ❎">
<ellipse fill="#31688e" stroke="black" cx="1319.09" cy="-1546" rx="64.36" ry="18"/>
<text text-anchor="middle" x="1319.09" y="-1541.33" font-family="Times,serif" font-size="14.00" fill="white">or tools ❎</text>
</a>
</g>
</g>
<!-- grpc_java_plugin&#45;&gt;or&#45;tools -->
<!-- bear -->
<g id="node41" class="node">
<title>bear</title>
<g id="a_node41"><a xlink:href="https://github.com/conda-forge/bear-feedstock" xlink:title="bear">
<ellipse fill="#35b779" stroke="black" cx="1319.09" cy="-1474" rx="33.85" ry="18"/>
<text text-anchor="middle" x="1319.09" y="-1469.33" font-family="Times,serif" font-size="14.00">bear</text>
</a>
</g>
</g>
<!-- or&#45;tools&#45;&gt;bear -->
<!-- cpp&#45;opentelemetry&#45;sdk -->
<g id="node42" class="node">
<title>cpp&#45;opentelemetry&#45;sdk</title>
<g id="a_node42"><a xlink:href="https://github.com/conda-forge/cpp-opentelemetry-sdk-feedstock" xlink:title="cpp opentelemetry sdk">
<ellipse fill="#35b779" stroke="black" cx="1319.09" cy="-1402" rx="125.92" ry="18"/>
<text text-anchor="middle" x="1319.09" y="-1397.33" font-family="Times,serif" font-size="14.00">cpp opentelemetry sdk</text>
</a>
</g>
</g>
<!-- bear&#45;&gt;cpp&#45;opentelemetry&#45;sdk -->
<!-- xilinx&#45;runtime -->
<g id="node43" class="node">
<title>xilinx&#45;runtime</title>
<g id="a_node43"><a xlink:href="https://github.com/conda-forge/xilinx-runtime-feedstock" xlink:title="xilinx runtime">
<ellipse fill="#35b779" stroke="black" cx="1319.09" cy="-1330" rx="81.72" ry="18"/>
<text text-anchor="middle" x="1319.09" y="-1325.33" font-family="Times,serif" font-size="14.00">xilinx runtime</text>
</a>
</g>
</g>
<!-- cpp&#45;opentelemetry&#45;sdk&#45;&gt;xilinx&#45;runtime -->
<!-- libpulsar -->
<g id="node44" class="node">
<title>libpulsar</title>
<g id="a_node44"><a xlink:href="https://github.com/conda-forge/libpulsar-feedstock/pull/22" xlink:title="libpulsar ❎">
<ellipse fill="#31688e" stroke="black" cx="1319.09" cy="-1258" rx="70.68" ry="18"/>
<text text-anchor="middle" x="1319.09" y="-1253.33" font-family="Times,serif" font-size="14.00" fill="white">libpulsar ❎</text>
</a>
</g>
</g>
<!-- xilinx&#45;runtime&#45;&gt;libpulsar -->
<!-- gnss&#45;sdr -->
<g id="node55" class="node">
<title>gnss&#45;sdr</title>
<g id="a_node55"><a xlink:href="https://github.com/conda-forge/gnss-sdr-feedstock" xlink:title="gnss sdr">
<ellipse fill="#35b779" stroke="black" cx="1319.09" cy="-1186" rx="53.84" ry="18"/>
<text text-anchor="middle" x="1319.09" y="-1181.33" font-family="Times,serif" font-size="14.00">gnss sdr</text>
</a>
</g>
</g>
<!-- libpulsar&#45;&gt;gnss&#45;sdr -->
<!-- gz&#45;msgs -->
<g id="node45" class="node">
<title>gz&#45;msgs</title>
<g id="a_node45"><a xlink:href="https://github.com/conda-forge/gz-msgs-feedstock/pull/39" xlink:title="gz msgs ❎">
<ellipse fill="#31688e" stroke="black" cx="1323.93" cy="-710" rx="67.52" ry="18"/>
<text text-anchor="middle" x="1323.93" y="-705.33" font-family="Times,serif" font-size="14.00" fill="white">gz msgs ❎</text>
</a>
</g>
</g>
<!-- gz&#45;transport -->
<g id="node46" class="node">
<title>gz&#45;transport</title>
<g id="a_node46"><a xlink:href="https://github.com/conda-forge/gz-transport-feedstock" xlink:title="gz transport">
<ellipse fill="#fde725" stroke="black" cx="1222.93" cy="-638" rx="73.3" ry="18"/>
<text text-anchor="middle" x="1222.93" y="-633.33" font-family="Times,serif" font-size="14.00">gz transport</text>
</a>
</g>
</g>
<!-- gz&#45;msgs&#45;&gt;gz&#45;transport -->
<g id="edge46" class="edge">
<title>gz&#45;msgs&#45;&gt;gz&#45;transport</title>
<path fill="none" stroke="black" d="M1300.51,-692.76C1287.22,-683.55 1270.38,-671.88 1255.78,-661.77"/>
<polygon fill="black" stroke="black" points="1258.04,-659.07 1247.82,-656.25 1254.05,-664.82 1258.04,-659.07"/>
</g>
<!-- gz&#45;fuel&#45;tools -->
<g id="node47" class="node">
<title>gz&#45;fuel&#45;tools</title>
<g id="a_node47"><a xlink:href="https://github.com/conda-forge/gz-fuel-tools-feedstock" xlink:title="gz fuel tools">
<ellipse fill="#fde725" stroke="black" cx="1423.93" cy="-638" rx="72.25" ry="18"/>
<text text-anchor="middle" x="1423.93" y="-633.33" font-family="Times,serif" font-size="14.00">gz fuel tools</text>
</a>
</g>
</g>
<!-- gz&#45;msgs&#45;&gt;gz&#45;fuel&#45;tools -->
<g id="edge47" class="edge">
<title>gz&#45;msgs&#45;&gt;gz&#45;fuel&#45;tools</title>
<path fill="none" stroke="black" d="M1347.12,-692.76C1360.28,-683.55 1376.96,-671.88 1391.4,-661.77"/>
<polygon fill="black" stroke="black" points="1393.09,-664.86 1399.28,-656.26 1389.08,-659.13 1393.09,-664.86"/>
</g>
<!-- gz&#45;gui -->
<g id="node48" class="node">
<title>gz&#45;gui</title>
<g id="a_node48"><a xlink:href="https://github.com/conda-forge/gz-gui-feedstock" xlink:title="gz gui">
<ellipse fill="#fde725" stroke="black" cx="1121.93" cy="-566" rx="41.74" ry="18"/>
<text text-anchor="middle" x="1121.93" y="-561.33" font-family="Times,serif" font-size="14.00">gz gui</text>
</a>
</g>
</g>
<!-- gz&#45;msgs&#45;&gt;gz&#45;gui -->
<g id="edge48" class="edge">
<title>gz&#45;msgs&#45;&gt;gz&#45;gui</title>
<path fill="none" stroke="black" d="M1257.66,-706.24C1218.4,-701.05 1170.68,-687.96 1140.93,-656 1126.02,-639.99 1121.68,-615.26 1120.84,-595.93"/>
<polygon fill="black" stroke="black" points="1124.34,-595.91 1120.73,-585.95 1117.34,-595.98 1124.34,-595.91"/>
</g>
<!-- gz&#45;sensors -->
<g id="node49" class="node">
<title>gz&#45;sensors</title>
<g id="a_node49"><a xlink:href="https://github.com/conda-forge/gz-sensors-feedstock" xlink:title="gz sensors">
<ellipse fill="#fde725" stroke="black" cx="1359.93" cy="-566" rx="64.36" ry="18"/>
<text text-anchor="middle" x="1359.93" y="-561.33" font-family="Times,serif" font-size="14.00">gz sensors</text>
</a>
</g>
</g>
<!-- gz&#45;msgs&#45;&gt;gz&#45;sensors -->
<g id="edge49" class="edge">
<title>gz&#45;msgs&#45;&gt;gz&#45;sensors</title>
<path fill="none" stroke="black" d="M1327.07,-691.82C1330.48,-673.8 1336.34,-644.73 1342.93,-620 1345.13,-611.75 1347.83,-602.88 1350.44,-594.8"/>
<polygon fill="black" stroke="black" points="1353.7,-596.09 1353.51,-585.49 1347.05,-593.9 1353.7,-596.09"/>
</g>
<!-- gz&#45;sim -->
<g id="node50" class="node">
<title>gz&#45;sim</title>
<g id="a_node50"><a xlink:href="https://github.com/conda-forge/gz-sim-feedstock" xlink:title="gz sim">
<ellipse fill="#fde725" stroke="black" cx="1334.93" cy="-494" rx="43.84" ry="18"/>
<text text-anchor="middle" x="1334.93" y="-489.32" font-family="Times,serif" font-size="14.00">gz sim</text>
</a>
</g>
</g>
<!-- gz&#45;msgs&#45;&gt;gz&#45;sim -->
<g id="edge50" class="edge">
<title>gz&#45;msgs&#45;&gt;gz&#45;sim</title>
<path fill="none" stroke="black" d="M1380.5,-699.99C1427.79,-691.16 1489.86,-676.11 1504.93,-656 1538.41,-611.31 1451.14,-548.97 1449.93,-548 1429.14,-531.35 1402.26,-518.59 1379.72,-509.76"/>
<polygon fill="black" stroke="black" points="1381.06,-506.53 1370.47,-506.28 1378.6,-513.08 1381.06,-506.53"/>
</g>
<!-- gz&#45;launch -->
<g id="node51" class="node">
<title>gz&#45;launch</title>
<g id="a_node51"><a xlink:href="https://github.com/conda-forge/gz-launch-feedstock" xlink:title="gz launch">
<ellipse fill="#fde725" stroke="black" cx="1134.93" cy="-422" rx="59.1" ry="18"/>
<text text-anchor="middle" x="1134.93" y="-417.32" font-family="Times,serif" font-size="14.00">gz launch</text>
</a>
</g>
</g>
<!-- gz&#45;msgs&#45;&gt;gz&#45;launch -->
<g id="edge51" class="edge">
<title>gz&#45;msgs&#45;&gt;gz&#45;launch</title>
<path fill="none" stroke="black" d="M1259.71,-704.07C1216.86,-698.12 1161.06,-684.98 1119.93,-656 1088.29,-633.71 1082.32,-620.99 1070.93,-584 1055.85,-535.02 1089.19,-479.93 1113.18,-448.55"/>
<polygon fill="black" stroke="black" points="1115.86,-450.8 1119.32,-440.79 1110.37,-446.46 1115.86,-450.8"/>
</g>
<!-- gz&#45;sim&#45;yarp&#45;plugins -->
<g id="node52" class="node">
<title>gz&#45;sim&#45;yarp&#45;plugins</title>
<g id="a_node52"><a xlink:href="https://github.com/conda-forge/gz-sim-yarp-plugins-feedstock" xlink:title="gz sim yarp plugins">
<ellipse fill="#fde725" stroke="black" cx="1334.93" cy="-422" rx="109.61" ry="18"/>
<text text-anchor="middle" x="1334.93" y="-417.32" font-family="Times,serif" font-size="14.00">gz sim yarp plugins</text>
</a>
</g>
</g>
<!-- gz&#45;msgs&#45;&gt;gz&#45;sim&#45;yarp&#45;plugins -->
<g id="edge52" class="edge">
<title>gz&#45;msgs&#45;&gt;gz&#45;sim&#45;yarp&#45;plugins</title>
<path fill="none" stroke="black" d="M1383.48,-701.1C1435.43,-692.84 1505.06,-677.98 1521.93,-656 1582.33,-577.31 1448.11,-486.15 1376.35,-445.07"/>
<polygon fill="black" stroke="black" points="1378.42,-442.22 1367.99,-440.36 1374.98,-448.32 1378.42,-442.22"/>
</g>
<!-- gz&#45;transport&#45;&gt;gz&#45;gui -->
<g id="edge53" class="edge">
<title>gz&#45;transport&#45;&gt;gz&#45;gui</title>
<path fill="none" stroke="black" d="M1199.25,-620.59C1185.38,-610.97 1167.71,-598.73 1152.76,-588.37"/>
<polygon fill="black" stroke="black" points="1154.85,-585.56 1144.64,-582.74 1150.87,-591.31 1154.85,-585.56"/>
</g>
<!-- gz&#45;transport&#45;&gt;gz&#45;sensors -->
<g id="edge54" class="edge">
<title>gz&#45;transport&#45;&gt;gz&#45;sensors</title>
<path fill="none" stroke="black" d="M1253.68,-621.29C1273.34,-611.24 1299.03,-598.12 1320.23,-587.28"/>
<polygon fill="black" stroke="black" points="1321.57,-590.53 1328.88,-582.86 1318.38,-584.3 1321.57,-590.53"/>
</g>
<!-- gz&#45;transport&#45;&gt;gz&#45;sim -->
<g id="edge55" class="edge">
<title>gz&#45;transport&#45;&gt;gz&#45;sim</title>
<path fill="none" stroke="black" d="M1234.41,-619.85C1246.82,-601.61 1267.43,-572.13 1286.93,-548 1294.66,-538.44 1303.58,-528.35 1311.63,-519.57"/>
<polygon fill="black" stroke="black" points="1314.04,-522.11 1318.28,-512.4 1308.91,-517.35 1314.04,-522.11"/>
</g>
<!-- gz&#45;transport&#45;&gt;gz&#45;launch -->
<g id="edge56" class="edge">
<title>gz&#45;transport&#45;&gt;gz&#45;launch</title>
<path fill="none" stroke="black" d="M1215.88,-619.85C1200.69,-582.91 1164.76,-495.55 1146.31,-450.67"/>
<polygon fill="black" stroke="black" points="1149.63,-449.55 1142.59,-441.63 1143.16,-452.21 1149.63,-449.55"/>
</g>
<!-- gz&#45;transport&#45;&gt;gz&#45;sim&#45;yarp&#45;plugins -->
<g id="edge57" class="edge">
<title>gz&#45;transport&#45;&gt;gz&#45;sim&#45;yarp&#45;plugins</title>
<path fill="none" stroke="black" d="M1226.57,-619.9C1233.64,-589.21 1251.31,-523.56 1281.93,-476 1288.43,-465.91 1297.13,-456.21 1305.59,-447.92"/>
<polygon fill="black" stroke="black" points="1307.88,-450.58 1312.79,-441.19 1303.1,-445.47 1307.88,-450.58"/>
</g>
<!-- gz&#45;fuel&#45;tools&#45;&gt;gz&#45;sim -->
<g id="edge58" class="edge">
<title>gz&#45;fuel&#45;tools&#45;&gt;gz&#45;sim</title>
<path fill="none" stroke="black" d="M1431.51,-619.6C1438.52,-600.62 1446.05,-570.01 1432.93,-548 1421.73,-529.21 1401.31,-516.68 1382,-508.55"/>
<polygon fill="black" stroke="black" points="1383.45,-505.36 1372.86,-505.01 1380.92,-511.89 1383.45,-505.36"/>
</g>
<!-- gz&#45;gui&#45;&gt;gz&#45;sim -->
<g id="edge59" class="edge">
<title>gz&#45;gui&#45;&gt;gz&#45;sim</title>
<path fill="none" stroke="black" d="M1154.28,-554.37C1190.74,-542.39 1250.21,-522.84 1290.89,-509.47"/>
<polygon fill="black" stroke="black" points="1291.73,-512.88 1300.13,-506.44 1289.54,-506.23 1291.73,-512.88"/>
</g>
<!-- gz&#45;gui&#45;&gt;gz&#45;launch -->
<g id="edge60" class="edge">
<title>gz&#45;gui&#45;&gt;gz&#45;launch</title>
<path fill="none" stroke="black" d="M1123.52,-547.59C1125.72,-523.61 1129.7,-480.14 1132.33,-451.42"/>
<polygon fill="black" stroke="black" points="1135.8,-451.9 1133.23,-441.62 1128.83,-451.26 1135.8,-451.9"/>
</g>
<!-- gz&#45;sensors&#45;&gt;gz&#45;sim -->
<g id="edge61" class="edge">
<title>gz&#45;sensors&#45;&gt;gz&#45;sim</title>
<path fill="none" stroke="black" d="M1353.75,-547.7C1351.06,-540.15 1347.83,-531.12 1344.82,-522.68"/>
<polygon fill="black" stroke="black" points="1348.21,-521.77 1341.55,-513.53 1341.62,-524.12 1348.21,-521.77"/>
</g>
<!-- gz&#45;sim&#45;&gt;gz&#45;launch -->
<g id="edge62" class="edge">
<title>gz&#45;sim&#45;&gt;gz&#45;launch</title>
<path fill="none" stroke="black" d="M1302.35,-481.6C1270.01,-470.28 1220.07,-452.8 1183.14,-439.87"/>
<polygon fill="black" stroke="black" points="1184.63,-436.69 1174.04,-436.69 1182.32,-443.3 1184.63,-436.69"/>
</g>
<!-- gz&#45;sim&#45;&gt;gz&#45;sim&#45;yarp&#45;plugins -->
<g id="edge63" class="edge">
<title>gz&#45;sim&#45;&gt;gz&#45;sim&#45;yarp&#45;plugins</title>
<path fill="none" stroke="black" d="M1334.93,-475.7C1334.93,-468.41 1334.93,-459.73 1334.93,-451.54"/>
<polygon fill="black" stroke="black" points="1338.43,-451.62 1334.93,-441.62 1331.43,-451.62 1338.43,-451.62"/>
</g>
<!-- labmaze -->
<g id="node53" class="node">
<title>labmaze</title>
<g id="a_node53"><a xlink:href="https://github.com/conda-forge/labmaze-feedstock" xlink:title="labmaze">
<ellipse fill="#35b779" stroke="black" cx="995.06" cy="-1474" rx="52.79" ry="18"/>
<text text-anchor="middle" x="995.06" y="-1469.33" font-family="Times,serif" font-size="14.00">labmaze</text>
</a>
</g>
</g>
<!-- labmaze&#45;&gt;ray&#45;packages -->
<g id="edge64" class="edge">
<title>labmaze&#45;&gt;ray&#45;packages</title>
<path fill="none" stroke="black" d="M992.71,-1455.63C989.07,-1435.5 980.13,-1402.7 959.06,-1384 928.85,-1357.19 886.37,-1343.77 848.77,-1337.13"/>
<polygon fill="black" stroke="black" points="849.72,-1333.73 839.29,-1335.59 848.6,-1340.64 849.72,-1333.73"/>
</g>
<!-- openvino -->
<g id="node54" class="node">
<title>openvino</title>
<g id="a_node54"><a xlink:href="https://github.com/conda-forge/openvino-feedstock/pull/106" xlink:title="openvino ❎">
<ellipse fill="#31688e" stroke="black" cx="552.06" cy="-1474" rx="71.73" ry="18"/>
<text text-anchor="middle" x="552.06" y="-1469.33" font-family="Times,serif" font-size="14.00" fill="white">openvino ❎</text>
</a>
</g>
</g>
<!-- openvino&#45;&gt;opencv -->
<g id="edge65" class="edge">
<title>openvino&#45;&gt;opencv</title>
<path fill="none" stroke="black" d="M564.16,-1456.05C569.94,-1447.97 576.97,-1438.12 583.41,-1429.11"/>
<polygon fill="black" stroke="black" points="586.22,-1431.19 589.19,-1421.02 580.53,-1427.12 586.22,-1431.19"/>
</g>
<!-- openvino&#45;&gt;openvino&#45;tokenizers -->
<g id="edge66" class="edge">
<title>openvino&#45;&gt;openvino&#45;tokenizers</title>
<path fill="none" stroke="black" d="M506.92,-1459.67C470.39,-1448.88 418.51,-1433.55 377.9,-1421.56"/>
<polygon fill="black" stroke="black" points="379.07,-1418.26 368.49,-1418.78 377.09,-1424.97 379.07,-1418.26"/>
</g>
<!-- tensorstore -->
<g id="node56" class="node">
<title>tensorstore</title>
<g id="a_node56"><a xlink:href="https://github.com/conda-forge/tensorstore-feedstock/pull/42" xlink:title="tensorstore ✓">
<ellipse fill="#31688e" stroke="black" cx="1319.09" cy="-1114" rx="76.99" ry="18"/>
<text text-anchor="middle" x="1319.09" y="-1109.33" font-family="Times,serif" font-size="14.00" fill="white">tensorstore ✓</text>
</a>
</g>
</g>
<!-- gnss&#45;sdr&#45;&gt;tensorstore -->
<!-- gcld3 -->
<g id="node57" class="node">
<title>gcld3</title>
<g id="a_node57"><a xlink:href="https://github.com/conda-forge/gcld3-feedstock" xlink:title="gcld3">
<ellipse fill="#35b779" stroke="black" cx="1319.09" cy="-1042" rx="38.58" ry="18"/>
<text text-anchor="middle" x="1319.09" y="-1037.33" font-family="Times,serif" font-size="14.00">gcld3</text>
</a>
</g>
</g>
<!-- tensorstore&#45;&gt;gcld3 -->
<!-- bloaty -->
<g id="node58" class="node">
<title>bloaty</title>
<g id="a_node58"><a xlink:href="https://github.com/conda-forge/bloaty-feedstock" xlink:title="bloaty">
<ellipse fill="#35b779" stroke="black" cx="1319.09" cy="-970" rx="42.26" ry="18"/>
<text text-anchor="middle" x="1319.09" y="-965.33" font-family="Times,serif" font-size="14.00">bloaty</text>
</a>
</g>
</g>
<!-- gcld3&#45;&gt;bloaty -->
<!-- google&#45;cloud&#45;cpp&#45;compute -->
<g id="node59" class="node">
<title>google&#45;cloud&#45;cpp&#45;compute</title>
<g id="a_node59"><a xlink:href="https://github.com/conda-forge/google-cloud-cpp-compute-feedstock" xlink:title="google cloud cpp compute">
<ellipse fill="#35b779" stroke="black" cx="2063.25" cy="-530" rx="141.7" ry="18"/>
<text text-anchor="middle" x="2063.25" y="-525.33" font-family="Times,serif" font-size="14.00">google cloud cpp compute</text>
</a>
</g>
</g>
<!-- google&#45;cloud&#45;cpp&#45;compute&#45;&gt;google&#45;cloud&#45;cpp -->
<g id="edge71" class="edge">
<title>google&#45;cloud&#45;cpp&#45;compute&#45;&gt;google&#45;cloud&#45;cpp</title>
<path fill="none" stroke="black" d="M2022.96,-512.41C1998.82,-502.47 1967.95,-489.76 1942.38,-479.23"/>
<polygon fill="black" stroke="black" points="1943.76,-476.02 1933.18,-475.44 1941.1,-482.49 1943.76,-476.02"/>
</g>
<!-- google&#45;cloud&#45;cpp&#45;bigquery -->
<g id="node60" class="node">
<title>google&#45;cloud&#45;cpp&#45;bigquery</title>
<g id="a_node60"><a xlink:href="https://github.com/conda-forge/google-cloud-cpp-bigquery-feedstock" xlink:title="google cloud cpp bigquery">
<ellipse fill="#35b779" stroke="black" cx="1893.25" cy="-602" rx="143.28" ry="18"/>
<text text-anchor="middle" x="1893.25" y="-597.33" font-family="Times,serif" font-size="14.00">google cloud cpp bigquery</text>
</a>
</g>
</g>
<!-- google&#45;cloud&#45;cpp&#45;bigquery&#45;&gt;google&#45;cloud&#45;cpp -->
<g id="edge72" class="edge">
<title>google&#45;cloud&#45;cpp&#45;bigquery&#45;&gt;google&#45;cloud&#45;cpp</title>
<path fill="none" stroke="black" d="M1893.25,-583.59C1893.25,-559.61 1893.25,-516.14 1893.25,-487.42"/>
<polygon fill="black" stroke="black" points="1896.75,-487.62 1893.25,-477.62 1889.75,-487.62 1896.75,-487.62"/>
</g>
<!-- google&#45;cloud&#45;cpp&#45;ai -->
<g id="node61" class="node">
<title>google&#45;cloud&#45;cpp&#45;ai</title>
<g id="a_node61"><a xlink:href="https://github.com/conda-forge/google-cloud-cpp-ai-feedstock" xlink:title="google cloud cpp ai">
<ellipse fill="#35b779" stroke="black" cx="1722.25" cy="-674" rx="107.5" ry="18"/>
<text text-anchor="middle" x="1722.25" y="-669.33" font-family="Times,serif" font-size="14.00">google cloud cpp ai</text>
</a>
</g>
</g>
<!-- google&#45;cloud&#45;cpp&#45;ai&#45;&gt;google&#45;cloud&#45;cpp -->
<g id="edge73" class="edge">
<title>google&#45;cloud&#45;cpp&#45;ai&#45;&gt;google&#45;cloud&#45;cpp</title>
<path fill="none" stroke="black" d="M1722.61,-655.7C1723.72,-636.81 1727.7,-606.27 1741.25,-584 1768.67,-538.91 1818.35,-502.72 1853.43,-481.11"/>
<polygon fill="black" stroke="black" points="1854.85,-484.34 1861.61,-476.19 1851.24,-478.34 1854.85,-484.34"/>
</g>
<!-- bfiocpp -->
<g id="node62" class="node">
<title>bfiocpp</title>
<g id="a_node62"><a xlink:href="https://github.com/conda-forge/bfiocpp-feedstock" xlink:title="bfiocpp">
<ellipse fill="#35b779" stroke="black" cx="523.92" cy="-162" rx="47.53" ry="18"/>
<text text-anchor="middle" x="523.92" y="-157.32" font-family="Times,serif" font-size="14.00">bfiocpp</text>
</a>
</g>
</g>
<!-- protobuf&#45;c -->
<g id="node63" class="node">
<title>protobuf&#45;c</title>
<g id="a_node63"><a xlink:href="https://github.com/conda-forge/protobuf-c-feedstock" xlink:title="protobuf c">
<ellipse fill="#35b779" stroke="black" cx="523.92" cy="-90" rx="62.78" ry="18"/>
<text text-anchor="middle" x="523.92" y="-85.33" font-family="Times,serif" font-size="14.00">protobuf c</text>
</a>
</g>
</g>
<!-- bfiocpp&#45;&gt;protobuf&#45;c -->
<!-- mysqlx&#45;connector&#45;python -->
<g id="node64" class="node">
<title>mysqlx&#45;connector&#45;python</title>
<g id="a_node64"><a xlink:href="https://github.com/conda-forge/mysqlx-connector-python-feedstock" xlink:title="mysqlx connector python">
<ellipse fill="#35b779" stroke="black" cx="523.92" cy="-18" rx="137.49" ry="18"/>
<text text-anchor="middle" x="523.92" y="-13.32" font-family="Times,serif" font-size="14.00">mysqlx connector python</text>
</a>
</g>
</g>
<!-- protobuf&#45;c&#45;&gt;mysqlx&#45;connector&#45;python -->
</g>
</svg>
