<?xml version="1.0" encoding="UTF-8" standalone="no"?>
<!DOCTYPE svg PUBLIC "-//W3C//DTD SVG 1.1//EN"
 "http://www.w3.org/Graphics/SVG/1.1/DTD/svg11.dtd">
<!-- Generated by graphviz version 12.0.0 (20240803.0821)
 -->
<!-- Pages: 1 -->
<svg width="1816pt" height="1212pt"
 viewBox="0.00 0.00 1816.09 1212.00" xmlns="http://www.w3.org/2000/svg" xmlns:xlink="http://www.w3.org/1999/xlink">
<g id="graph0" class="graph" transform="scale(1 1) rotate(0) translate(4 1208)">
<polygon fill="white" stroke="none" points="-4,4 -4,-1208 1812.09,-1208 1812.09,4 -4,4"/>
<!-- arrow&#45;cpp -->
<g id="node1" class="node">
<title>arrow&#45;cpp</title>
<g id="a_node1"><a xlink:href="https://github.com/conda-forge/arrow-cpp-feedstock/pull/1548" xlink:title="arrow cpp ❎">
<ellipse fill="#31688e" stroke="black" cx="108.06" cy="-898" rx="76.99" ry="18"/>
<text text-anchor="middle" x="108.06" y="-893.33" font-family="Times,serif" font-size="14.00" fill="white">arrow cpp ❎</text>
</a>
</g>
</g>
<!-- ray&#45;packages -->
<g id="node2" class="node">
<title>ray&#45;packages</title>
<g id="a_node2"><a xlink:href="https://github.com/conda-forge/ray-packages-feedstock" xlink:title="ray packages">
<ellipse fill="#fde725" stroke="black" cx="764.06" cy="-826" rx="76.99" ry="18"/>
<text text-anchor="middle" x="764.06" y="-821.33" font-family="Times,serif" font-size="14.00">ray packages</text>
</a>
</g>
</g>
<!-- arrow&#45;cpp&#45;&gt;ray&#45;packages -->
<g id="edge1" class="edge">
<title>arrow&#45;cpp&#45;&gt;ray&#45;packages</title>
<path fill="none" stroke="black" d="M162.95,-885.12C173.25,-883.19 183.95,-881.37 194.06,-880 407.81,-851.03 464.31,-872.97 678.06,-844 684.53,-843.12 691.25,-842.06 697.95,-840.9"/>
<polygon fill="black" stroke="black" points="698.46,-844.37 707.68,-839.15 697.22,-837.48 698.46,-844.37"/>
</g>
<!-- datafusion -->
<g id="node3" class="node">
<title>datafusion</title>
<g id="a_node3"><a xlink:href="https://github.com/conda-forge/datafusion-feedstock" xlink:title="datafusion">
<ellipse fill="#fde725" stroke="black" cx="200.06" cy="-826" rx="63.84" ry="18"/>
<text text-anchor="middle" x="200.06" y="-821.33" font-family="Times,serif" font-size="14.00">datafusion</text>
</a>
</g>
</g>
<!-- arrow&#45;cpp&#45;&gt;datafusion -->
<g id="edge2" class="edge">
<title>arrow&#45;cpp&#45;&gt;datafusion</title>
<path fill="none" stroke="black" d="M129.86,-880.41C141.75,-871.37 156.65,-860.03 169.66,-850.13"/>
<polygon fill="black" stroke="black" points="171.69,-852.99 177.53,-844.14 167.45,-847.41 171.69,-852.99"/>
</g>
<!-- arcticdb -->
<g id="node4" class="node">
<title>arcticdb</title>
<g id="a_node4"><a xlink:href="https://github.com/conda-forge/arcticdb-feedstock" xlink:title="arcticdb">
<ellipse fill="#fde725" stroke="black" cx="108.06" cy="-754" rx="52.26" ry="18"/>
<text text-anchor="middle" x="108.06" y="-749.33" font-family="Times,serif" font-size="14.00">arcticdb</text>
</a>
</g>
</g>
<!-- arrow&#45;cpp&#45;&gt;arcticdb -->
<g id="edge3" class="edge">
<title>arrow&#45;cpp&#45;&gt;arcticdb</title>
<path fill="none" stroke="black" d="M108.06,-879.59C108.06,-855.61 108.06,-812.14 108.06,-783.42"/>
<polygon fill="black" stroke="black" points="111.56,-783.62 108.06,-773.62 104.56,-783.62 111.56,-783.62"/>
</g>
<!-- csp -->
<g id="node5" class="node">
<title>csp</title>
<g id="a_node5"><a xlink:href="https://github.com/conda-forge/csp-feedstock" xlink:title="csp">
<ellipse fill="#fde725" stroke="black" cx="28.06" cy="-682" rx="28.06" ry="18"/>
<text text-anchor="middle" x="28.06" y="-677.33" font-family="Times,serif" font-size="14.00">csp</text>
</a>
</g>
</g>
<!-- arrow&#45;cpp&#45;&gt;csp -->
<g id="edge4" class="edge">
<title>arrow&#45;cpp&#45;&gt;csp</title>
<path fill="none" stroke="black" d="M97.97,-879.78C84.55,-856.19 60.92,-812.18 47.06,-772 40.28,-752.34 35.45,-729.37 32.35,-711.69"/>
<polygon fill="black" stroke="black" points="35.82,-711.19 30.73,-701.89 28.91,-712.33 35.82,-711.19"/>
</g>
<!-- bazel -->
<g id="node6" class="node">
<title>bazel</title>
<g id="a_node6"><a xlink:href="https://github.com/conda-forge/bazel-feedstock" xlink:title="bazel">
<ellipse fill="#ff8c00" stroke="black" cx="1206.96" cy="-1186" rx="37.53" ry="18"/>
<text text-anchor="middle" x="1206.96" y="-1181.33" font-family="Times,serif" font-size="14.00">bazel</text>
</a>
</g>
</g>
<!-- paraview -->
<g id="node7" class="node">
<title>paraview</title>
<g id="a_node7"><a xlink:href="https://github.com/conda-forge/paraview-feedstock/pull/257" xlink:title="paraview ❎">
<ellipse fill="#31688e" stroke="black" cx="1206.96" cy="-1114" rx="72.25" ry="18"/>
<text text-anchor="middle" x="1206.96" y="-1109.33" font-family="Times,serif" font-size="14.00" fill="white">paraview ❎</text>
</a>
</g>
</g>
<!-- bazel&#45;&gt;paraview -->
<!-- qgis -->
<g id="node11" class="node">
<title>qgis</title>
<g id="a_node11"><a xlink:href="https://github.com/conda-forge/qgis-feedstock" xlink:title="qgis">
<ellipse fill="#ff8c00" stroke="black" cx="1206.96" cy="-1042" rx="32.27" ry="18"/>
<text text-anchor="middle" x="1206.96" y="-1037.33" font-family="Times,serif" font-size="14.00">qgis</text>
</a>
</g>
</g>
<!-- paraview&#45;&gt;qgis -->
<!-- opencv -->
<g id="node8" class="node">
<title>opencv</title>
<g id="a_node8"><a xlink:href="https://github.com/conda-forge/opencv-feedstock" xlink:title="opencv">
<ellipse fill="#fde725" stroke="black" cx="602.06" cy="-898" rx="46.47" ry="18"/>
<text text-anchor="middle" x="602.06" y="-893.33" font-family="Times,serif" font-size="14.00">opencv</text>
</a>
</g>
</g>
<!-- opencv&#45;&gt;ray&#45;packages -->
<g id="edge6" class="edge">
<title>opencv&#45;&gt;ray&#45;packages</title>
<path fill="none" stroke="black" d="M632.15,-884C656.33,-873.55 690.69,-858.7 718.27,-846.78"/>
<polygon fill="black" stroke="black" points="719.3,-850.15 727.09,-842.97 716.52,-843.73 719.3,-850.15"/>
</g>
<!-- imp -->
<g id="node9" class="node">
<title>imp</title>
<g id="a_node9"><a xlink:href="https://github.com/conda-forge/imp-feedstock" xlink:title="imp">
<ellipse fill="#fde725" stroke="black" cx="639.06" cy="-826" rx="30.16" ry="18"/>
<text text-anchor="middle" x="639.06" y="-821.33" font-family="Times,serif" font-size="14.00">imp</text>
</a>
</g>
</g>
<!-- opencv&#45;&gt;imp -->
<g id="edge7" class="edge">
<title>opencv&#45;&gt;imp</title>
<path fill="none" stroke="black" d="M611.02,-880.05C615.26,-872.03 620.42,-862.26 625.16,-853.3"/>
<polygon fill="black" stroke="black" points="628.15,-855.12 629.73,-844.65 621.97,-851.85 628.15,-855.12"/>
</g>
<!-- gazebo&#45;yarp&#45;plugins -->
<g id="node10" class="node">
<title>gazebo&#45;yarp&#45;plugins</title>
<g id="a_node10"><a xlink:href="https://github.com/conda-forge/gazebo-yarp-plugins-feedstock" xlink:title="gazebo yarp plugins">
<ellipse fill="#fde725" stroke="black" cx="479.06" cy="-826" rx="112.24" ry="18"/>
<text text-anchor="middle" x="479.06" y="-821.33" font-family="Times,serif" font-size="14.00">gazebo yarp plugins</text>
</a>
</g>
</g>
<!-- opencv&#45;&gt;gazebo&#45;yarp&#45;plugins -->
<g id="edge8" class="edge">
<title>opencv&#45;&gt;gazebo&#45;yarp&#45;plugins</title>
<path fill="none" stroke="black" d="M576.57,-882.5C559.75,-872.92 537.38,-860.19 518.31,-849.34"/>
<polygon fill="black" stroke="black" points="520.14,-846.35 509.72,-844.45 516.68,-852.44 520.14,-846.35"/>
</g>
<!-- tensorflow -->
<g id="node12" class="node">
<title>tensorflow</title>
<g id="a_node12"><a xlink:href="https://github.com/conda-forge/tensorflow-feedstock" xlink:title="tensorflow">
<ellipse fill="#ff8c00" stroke="black" cx="1206.96" cy="-970" rx="63.84" ry="18"/>
<text text-anchor="middle" x="1206.96" y="-965.33" font-family="Times,serif" font-size="14.00">tensorflow</text>
</a>
</g>
</g>
<!-- qgis&#45;&gt;tensorflow -->
<!-- r&#45;protolite -->
<g id="node14" class="node">
<title>r&#45;protolite</title>
<g id="a_node14"><a xlink:href="https://github.com/conda-forge/r-protolite-feedstock/pull/42" xlink:title="r protolite ❎">
<ellipse fill="#31688e" stroke="black" cx="1206.96" cy="-898" rx="77.52" ry="18"/>
<text text-anchor="middle" x="1206.96" y="-893.33" font-family="Times,serif" font-size="14.00" fill="white">r protolite ❎</text>
</a>
</g>
</g>
<!-- tensorflow&#45;&gt;r&#45;protolite -->
<!-- pyaudi -->
<g id="node13" class="node">
<title>pyaudi</title>
<g id="a_node13"><a xlink:href="https://github.com/conda-forge/pyaudi-feedstock" xlink:title="pyaudi">
<ellipse fill="#fde725" stroke="black" cx="535.55" cy="-18" rx="44.9" ry="18"/>
<text text-anchor="middle" x="535.55" y="-13.32" font-family="Times,serif" font-size="14.00">pyaudi</text>
</a>
</g>
</g>
<!-- mongodb -->
<g id="node15" class="node">
<title>mongodb</title>
<g id="a_node15"><a xlink:href="https://github.com/conda-forge/mongodb-feedstock/pull/97" xlink:title="mongodb ❎">
<ellipse fill="#31688e" stroke="black" cx="1206.96" cy="-826" rx="72.78" ry="18"/>
<text text-anchor="middle" x="1206.96" y="-821.33" font-family="Times,serif" font-size="14.00" fill="white">mongodb ❎</text>
</a>
</g>
</g>
<!-- r&#45;protolite&#45;&gt;mongodb -->
<!-- go&#45;cockroach -->
<g id="node17" class="node">
<title>go&#45;cockroach</title>
<g id="a_node17"><a xlink:href="https://github.com/conda-forge/go-cockroach-feedstock" xlink:title="go cockroach">
<ellipse fill="#ff8c00" stroke="black" cx="1206.96" cy="-754" rx="76.46" ry="18"/>
<text text-anchor="middle" x="1206.96" y="-749.33" font-family="Times,serif" font-size="14.00">go cockroach</text>
</a>
</g>
</g>
<!-- mongodb&#45;&gt;go&#45;cockroach -->
<!-- pytorch&#45;cpu -->
<g id="node16" class="node">
<title>pytorch&#45;cpu</title>
<g id="a_node16"><a xlink:href="https://github.com/conda-forge/pytorch-cpu-feedstock/pull/265" xlink:title="pytorch cpu ❎">
<ellipse fill="#31688e" stroke="black" cx="752.06" cy="-898" rx="85.93" ry="18"/>
<text text-anchor="middle" x="752.06" y="-893.33" font-family="Times,serif" font-size="14.00" fill="white">pytorch cpu ❎</text>
</a>
</g>
</g>
<!-- pytorch&#45;cpu&#45;&gt;ray&#45;packages -->
<g id="edge13" class="edge">
<title>pytorch&#45;cpu&#45;&gt;ray&#45;packages</title>
<path fill="none" stroke="black" d="M755.03,-879.7C756.29,-872.32 757.8,-863.52 759.22,-855.25"/>
<polygon fill="black" stroke="black" points="762.63,-856.04 760.87,-845.6 755.73,-854.86 762.63,-856.04"/>
</g>
<!-- cartographer -->
<g id="node27" class="node">
<title>cartographer</title>
<g id="a_node27"><a xlink:href="https://github.com/conda-forge/cartographer-feedstock/pull/71" xlink:title="cartographer ✓">
<ellipse fill="#31688e" stroke="black" cx="1206.96" cy="-682" rx="84.88" ry="18"/>
<text text-anchor="middle" x="1206.96" y="-677.33" font-family="Times,serif" font-size="14.00" fill="white">cartographer ✓</text>
</a>
</g>
</g>
<!-- go&#45;cockroach&#45;&gt;cartographer -->
<!-- jaxlib -->
<g id="node18" class="node">
<title>jaxlib</title>
<g id="a_node18"><a xlink:href="https://github.com/conda-forge/jaxlib-feedstock" xlink:title="jaxlib">
<ellipse fill="#ff8c00" stroke="black" cx="878.06" cy="-970" rx="38.58" ry="18"/>
<text text-anchor="middle" x="878.06" y="-965.33" font-family="Times,serif" font-size="14.00">jaxlib</text>
</a>
</g>
</g>
<!-- mujoco -->
<g id="node19" class="node">
<title>mujoco</title>
<g id="a_node19"><a xlink:href="https://github.com/conda-forge/mujoco-feedstock" xlink:title="mujoco">
<ellipse fill="#fde725" stroke="black" cx="903.06" cy="-898" rx="47" ry="18"/>
<text text-anchor="middle" x="903.06" y="-893.33" font-family="Times,serif" font-size="14.00">mujoco</text>
</a>
</g>
</g>
<!-- jaxlib&#45;&gt;mujoco -->
<g id="edge15" class="edge">
<title>jaxlib&#45;&gt;mujoco</title>
<path fill="none" stroke="black" d="M884.11,-952.05C886.8,-944.52 890.05,-935.44 893.08,-926.94"/>
<polygon fill="black" stroke="black" points="896.31,-928.3 896.38,-917.7 889.72,-925.94 896.31,-928.3"/>
</g>
<!-- mujoco&#45;&gt;ray&#45;packages -->
<g id="edge16" class="edge">
<title>mujoco&#45;&gt;ray&#45;packages</title>
<path fill="none" stroke="black" d="M875.26,-883C855.2,-872.9 827.78,-859.09 805.19,-847.71"/>
<polygon fill="black" stroke="black" points="807.05,-844.73 796.55,-843.36 803.91,-850.99 807.05,-844.73"/>
</g>
<!-- obake -->
<g id="node20" class="node">
<title>obake</title>
<g id="a_node20"><a xlink:href="https://github.com/conda-forge/obake-feedstock/pull/49" xlink:title="obake ❎">
<ellipse fill="#31688e" stroke="black" cx="535.55" cy="-90" rx="55.94" ry="18"/>
<text text-anchor="middle" x="535.55" y="-85.33" font-family="Times,serif" font-size="14.00" fill="white">obake ❎</text>
</a>
</g>
</g>
<!-- obake&#45;&gt;pyaudi -->
<g id="edge17" class="edge">
<title>obake&#45;&gt;pyaudi</title>
<path fill="none" stroke="black" d="M535.55,-71.7C535.55,-64.41 535.55,-55.73 535.55,-47.54"/>
<polygon fill="black" stroke="black" points="539.05,-47.62 535.55,-37.62 532.05,-47.62 539.05,-47.62"/>
</g>
<!-- libignition&#45;transport4 -->
<g id="node21" class="node">
<title>libignition&#45;transport4</title>
<g id="a_node21"><a xlink:href="https://github.com/conda-forge/libignition-transport4-feedstock/pull/100" xlink:title="libignition transport4 ✓">
<ellipse fill="#31688e" stroke="black" cx="1632.63" cy="-934" rx="126.97" ry="18"/>
<text text-anchor="middle" x="1632.63" y="-929.33" font-family="Times,serif" font-size="14.00" fill="white">libignition transport4 ✓</text>
</a>
</g>
</g>
<!-- libignition&#45;sensors -->
<g id="node22" class="node">
<title>libignition&#45;sensors</title>
<g id="a_node22"><a xlink:href="https://github.com/conda-forge/libignition-sensors-feedstock" xlink:title="libignition sensors">
<ellipse fill="#fde725" stroke="black" cx="1446.63" cy="-862" rx="103.82" ry="18"/>
<text text-anchor="middle" x="1446.63" y="-857.33" font-family="Times,serif" font-size="14.00">libignition sensors</text>
</a>
</g>
</g>
<!-- libignition&#45;transport4&#45;&gt;libignition&#45;sensors -->
<g id="edge18" class="edge">
<title>libignition&#45;transport4&#45;&gt;libignition&#45;sensors</title>
<path fill="none" stroke="black" d="M1589.49,-916.76C1562.66,-906.67 1527.96,-893.61 1499.48,-882.89"/>
<polygon fill="black" stroke="black" points="1500.9,-879.69 1490.31,-879.44 1498.44,-886.24 1500.9,-879.69"/>
</g>
<!-- libignition&#45;gui -->
<g id="node23" class="node">
<title>libignition&#45;gui</title>
<g id="a_node23"><a xlink:href="https://github.com/conda-forge/libignition-gui-feedstock" xlink:title="libignition gui">
<ellipse fill="#fde725" stroke="black" cx="1687.63" cy="-862" rx="81.2" ry="18"/>
<text text-anchor="middle" x="1687.63" y="-857.33" font-family="Times,serif" font-size="14.00">libignition gui</text>
</a>
</g>
</g>
<!-- libignition&#45;transport4&#45;&gt;libignition&#45;gui -->
<g id="edge19" class="edge">
<title>libignition&#45;transport4&#45;&gt;libignition&#45;gui</title>
<path fill="none" stroke="black" d="M1646.23,-915.7C1652.55,-907.64 1660.21,-897.89 1667.22,-888.98"/>
<polygon fill="black" stroke="black" points="1669.83,-891.32 1673.26,-881.29 1664.33,-887 1669.83,-891.32"/>
</g>
<!-- libignition&#45;gazebo -->
<g id="node24" class="node">
<title>libignition&#45;gazebo</title>
<g id="a_node24"><a xlink:href="https://github.com/conda-forge/libignition-gazebo-feedstock" xlink:title="libignition gazebo">
<ellipse fill="#fde725" stroke="black" cx="1578.63" cy="-790" rx="100.66" ry="18"/>
<text text-anchor="middle" x="1578.63" y="-785.33" font-family="Times,serif" font-size="14.00">libignition gazebo</text>
</a>
</g>
</g>
<!-- libignition&#45;transport4&#45;&gt;libignition&#45;gazebo -->
<g id="edge20" class="edge">
<title>libignition&#45;transport4&#45;&gt;libignition&#45;gazebo</title>
<path fill="none" stroke="black" d="M1618.88,-915.79C1611.57,-905.85 1603,-892.81 1597.63,-880 1589.54,-860.7 1584.74,-837.55 1581.98,-819.7"/>
<polygon fill="black" stroke="black" points="1585.45,-819.22 1580.6,-809.8 1578.52,-820.19 1585.45,-819.22"/>
</g>
<!-- libignition&#45;launch -->
<g id="node25" class="node">
<title>libignition&#45;launch</title>
<g id="a_node25"><a xlink:href="https://github.com/conda-forge/libignition-launch-feedstock" xlink:title="libignition launch">
<ellipse fill="#fde725" stroke="black" cx="1707.63" cy="-718" rx="98.56" ry="18"/>
<text text-anchor="middle" x="1707.63" y="-713.33" font-family="Times,serif" font-size="14.00">libignition launch</text>
</a>
</g>
</g>
<!-- libignition&#45;transport4&#45;&gt;libignition&#45;launch -->
<g id="edge21" class="edge">
<title>libignition&#45;transport4&#45;&gt;libignition&#45;launch</title>
<path fill="none" stroke="black" d="M1717.89,-920.37C1741.05,-912.6 1763.58,-900.1 1777.63,-880 1808.09,-836.43 1764.55,-777.5 1733.71,-744.36"/>
<polygon fill="black" stroke="black" points="1736.3,-742.01 1726.85,-737.21 1731.25,-746.85 1736.3,-742.01"/>
</g>
<!-- libignition&#45;sensors&#45;&gt;libignition&#45;gazebo -->
<g id="edge22" class="edge">
<title>libignition&#45;sensors&#45;&gt;libignition&#45;gazebo</title>
<path fill="none" stroke="black" d="M1477.91,-844.41C1495.75,-834.95 1518.31,-822.99 1537.56,-812.78"/>
<polygon fill="black" stroke="black" points="1539.04,-815.96 1546.24,-808.18 1535.76,-809.77 1539.04,-815.96"/>
</g>
<!-- libignition&#45;gui&#45;&gt;libignition&#45;gazebo -->
<g id="edge23" class="edge">
<title>libignition&#45;gui&#45;&gt;libignition&#45;gazebo</title>
<path fill="none" stroke="black" d="M1662.07,-844.59C1647.8,-835.42 1629.79,-823.85 1614.15,-813.81"/>
<polygon fill="black" stroke="black" points="1616.36,-811.07 1606.06,-808.61 1612.58,-816.96 1616.36,-811.07"/>
</g>
<!-- libignition&#45;gui&#45;&gt;libignition&#45;launch -->
<g id="edge24" class="edge">
<title>libignition&#45;gui&#45;&gt;libignition&#45;launch</title>
<path fill="none" stroke="black" d="M1690.08,-843.59C1693.46,-819.61 1699.58,-776.14 1703.63,-747.42"/>
<polygon fill="black" stroke="black" points="1707.08,-748 1705.01,-737.61 1700.15,-747.02 1707.08,-748"/>
</g>
<!-- libignition&#45;gazebo&#45;&gt;libignition&#45;launch -->
<g id="edge25" class="edge">
<title>libignition&#45;gazebo&#45;&gt;libignition&#45;launch</title>
<path fill="none" stroke="black" d="M1609.2,-772.41C1626.55,-763 1648.48,-751.1 1667.24,-740.92"/>
<polygon fill="black" stroke="black" points="1668.83,-744.04 1675.95,-736.19 1665.49,-737.89 1668.83,-744.04"/>
</g>
<!-- gazebo -->
<g id="node26" class="node">
<title>gazebo</title>
<g id="a_node26"><a xlink:href="https://github.com/conda-forge/gazebo-feedstock" xlink:title="gazebo">
<ellipse fill="#ff8c00" stroke="black" cx="491.06" cy="-898" rx="46.47" ry="18"/>
<text text-anchor="middle" x="491.06" y="-893.33" font-family="Times,serif" font-size="14.00">gazebo</text>
</a>
</g>
</g>
<!-- gazebo&#45;&gt;gazebo&#45;yarp&#45;plugins -->
<g id="edge26" class="edge">
<title>gazebo&#45;&gt;gazebo&#45;yarp&#45;plugins</title>
<path fill="none" stroke="black" d="M488.09,-879.7C486.83,-872.32 485.32,-863.52 483.9,-855.25"/>
<polygon fill="black" stroke="black" points="487.39,-854.86 482.25,-845.6 480.49,-856.04 487.39,-854.86"/>
</g>
<!-- tomviz -->
<g id="node28" class="node">
<title>tomviz</title>
<g id="a_node28"><a xlink:href="https://github.com/conda-forge/tomviz-feedstock" xlink:title="tomviz">
<ellipse fill="#ff8c00" stroke="black" cx="1206.96" cy="-610" rx="44.9" ry="18"/>
<text text-anchor="middle" x="1206.96" y="-605.33" font-family="Times,serif" font-size="14.00">tomviz</text>
</a>
</g>
</g>
<!-- cartographer&#45;&gt;tomviz -->
<!-- grpc_java_plugin -->
<g id="node33" class="node">
<title>grpc_java_plugin</title>
<g id="a_node33"><a xlink:href="https://github.com/conda-forge/grpc_java_plugin-feedstock" xlink:title="grpc_java_plugin">
<ellipse fill="#000000" stroke="black" cx="1206.96" cy="-538" rx="95.4" ry="18"/>
<text text-anchor="middle" x="1206.96" y="-533.33" font-family="Times,serif" font-size="14.00" fill="white">grpc_java_plugin</text>
</a>
</g>
</g>
<!-- tomviz&#45;&gt;grpc_java_plugin -->
<!-- sentencepiece -->
<g id="node29" class="node">
<title>sentencepiece</title>
<g id="a_node29"><a xlink:href="https://github.com/conda-forge/sentencepiece-feedstock/pull/55" xlink:title="sentencepiece ❎">
<ellipse fill="#31688e" stroke="black" cx="315.06" cy="-970" rx="97.51" ry="18"/>
<text text-anchor="middle" x="315.06" y="-965.33" font-family="Times,serif" font-size="14.00" fill="white">sentencepiece ❎</text>
</a>
</g>
</g>
<!-- openvino&#45;tokenizers -->
<g id="node30" class="node">
<title>openvino&#45;tokenizers</title>
<g id="a_node30"><a xlink:href="https://github.com/conda-forge/openvino-tokenizers-feedstock" xlink:title="openvino tokenizers">
<ellipse fill="#fde725" stroke="black" cx="315.06" cy="-898" rx="111.71" ry="18"/>
<text text-anchor="middle" x="315.06" y="-893.33" font-family="Times,serif" font-size="14.00">openvino tokenizers</text>
</a>
</g>
</g>
<!-- sentencepiece&#45;&gt;openvino&#45;tokenizers -->
<g id="edge29" class="edge">
<title>sentencepiece&#45;&gt;openvino&#45;tokenizers</title>
<path fill="none" stroke="black" d="M315.06,-951.7C315.06,-944.41 315.06,-935.73 315.06,-927.54"/>
<polygon fill="black" stroke="black" points="318.56,-927.62 315.06,-917.62 311.56,-927.62 318.56,-927.62"/>
</g>
<!-- s2geometry -->
<g id="node31" class="node">
<title>s2geometry</title>
<g id="a_node31"><a xlink:href="https://github.com/conda-forge/s2geometry-feedstock/pull/21" xlink:title="s2geometry ✓">
<ellipse fill="#31688e" stroke="black" cx="1575.45" cy="-314" rx="78.57" ry="18"/>
<text text-anchor="middle" x="1575.45" y="-309.32" font-family="Times,serif" font-size="14.00" fill="white">s2geometry ✓</text>
</a>
</g>
</g>
<!-- s2geography -->
<g id="node32" class="node">
<title>s2geography</title>
<g id="a_node32"><a xlink:href="https://github.com/conda-forge/s2geography-feedstock" xlink:title="s2geography">
<ellipse fill="#fde725" stroke="black" cx="1575.45" cy="-242" rx="75.94" ry="18"/>
<text text-anchor="middle" x="1575.45" y="-237.32" font-family="Times,serif" font-size="14.00">s2geography</text>
</a>
</g>
</g>
<!-- s2geometry&#45;&gt;s2geography -->
<g id="edge30" class="edge">
<title>s2geometry&#45;&gt;s2geography</title>
<path fill="none" stroke="black" d="M1575.45,-295.7C1575.45,-288.41 1575.45,-279.73 1575.45,-271.54"/>
<polygon fill="black" stroke="black" points="1578.95,-271.62 1575.45,-261.62 1571.95,-271.62 1578.95,-271.62"/>
</g>
<!-- or&#45;tools -->
<g id="node34" class="node">
<title>or&#45;tools</title>
<g id="a_node34"><a xlink:href="https://github.com/conda-forge/or-tools-feedstock/pull/62" xlink:title="or tools ❎">
<ellipse fill="#31688e" stroke="black" cx="1206.96" cy="-466" rx="64.36" ry="18"/>
<text text-anchor="middle" x="1206.96" y="-461.32" font-family="Times,serif" font-size="14.00" fill="white">or tools ❎</text>
</a>
</g>
</g>
<!-- grpc_java_plugin&#45;&gt;or&#45;tools -->
<!-- xilinx&#45;runtime -->
<g id="node35" class="node">
<title>xilinx&#45;runtime</title>
<g id="a_node35"><a xlink:href="https://github.com/conda-forge/xilinx-runtime-feedstock/pull/37" xlink:title="xilinx runtime ❎">
<ellipse fill="#31688e" stroke="black" cx="535.55" cy="-422" rx="96.98" ry="18"/>
<text text-anchor="middle" x="535.55" y="-417.32" font-family="Times,serif" font-size="14.00" fill="white">xilinx runtime ❎</text>
</a>
</g>
</g>
<!-- gnss&#45;sdr -->
<g id="node36" class="node">
<title>gnss&#45;sdr</title>
<g id="a_node36"><a xlink:href="https://github.com/conda-forge/gnss-sdr-feedstock/pull/29" xlink:title="gnss sdr ✓">
<ellipse fill="#31688e" stroke="black" cx="535.55" cy="-350" rx="61.73" ry="18"/>
<text text-anchor="middle" x="535.55" y="-345.32" font-family="Times,serif" font-size="14.00" fill="white">gnss sdr ✓</text>
</a>
</g>
</g>
<!-- xilinx&#45;runtime&#45;&gt;gnss&#45;sdr -->
<!-- gcld3 -->
<g id="node42" class="node">
<title>gcld3</title>
<g id="a_node42"><a xlink:href="https://github.com/conda-forge/gcld3-feedstock/pull/11" xlink:title="gcld3 ✓">
<ellipse fill="#31688e" stroke="black" cx="535.55" cy="-278" rx="46.47" ry="18"/>
<text text-anchor="middle" x="535.55" y="-273.32" font-family="Times,serif" font-size="14.00" fill="white">gcld3 ✓</text>
</a>
</g>
</g>
<!-- gnss&#45;sdr&#45;&gt;gcld3 -->
<!-- gz&#45;sim -->
<g id="node37" class="node">
<title>gz&#45;sim</title>
<g id="a_node37"><a xlink:href="https://github.com/conda-forge/gz-sim-feedstock" xlink:title="gz sim">
<ellipse fill="#ff8c00" stroke="black" cx="1181.2" cy="-350" rx="43.84" ry="18"/>
<text text-anchor="middle" x="1181.2" y="-345.32" font-family="Times,serif" font-size="14.00">gz sim</text>
</a>
</g>
</g>
<!-- gz&#45;launch -->
<g id="node38" class="node">
<title>gz&#45;launch</title>
<g id="a_node38"><a xlink:href="https://github.com/conda-forge/gz-launch-feedstock" xlink:title="gz launch">
<ellipse fill="#fde725" stroke="black" cx="1138.2" cy="-278" rx="59.1" ry="18"/>
<text text-anchor="middle" x="1138.2" y="-273.32" font-family="Times,serif" font-size="14.00">gz launch</text>
</a>
</g>
</g>
<!-- gz&#45;sim&#45;&gt;gz&#45;launch -->
<g id="edge34" class="edge">
<title>gz&#45;sim&#45;&gt;gz&#45;launch</title>
<path fill="none" stroke="black" d="M1170.79,-332.05C1165.88,-324.06 1159.91,-314.33 1154.42,-305.4"/>
<polygon fill="black" stroke="black" points="1157.53,-303.77 1149.31,-297.08 1151.56,-307.43 1157.53,-303.77"/>
</g>
<!-- gz&#45;sim&#45;yarp&#45;plugins -->
<g id="node39" class="node">
<title>gz&#45;sim&#45;yarp&#45;plugins</title>
<g id="a_node39"><a xlink:href="https://github.com/conda-forge/gz-sim-yarp-plugins-feedstock" xlink:title="gz sim yarp plugins">
<ellipse fill="#fde725" stroke="black" cx="1225.2" cy="-206" rx="109.61" ry="18"/>
<text text-anchor="middle" x="1225.2" y="-201.32" font-family="Times,serif" font-size="14.00">gz sim yarp plugins</text>
</a>
</g>
</g>
<!-- gz&#45;sim&#45;&gt;gz&#45;sim&#45;yarp&#45;plugins -->
<g id="edge35" class="edge">
<title>gz&#45;sim&#45;&gt;gz&#45;sim&#45;yarp&#45;plugins</title>
<path fill="none" stroke="black" d="M1190.34,-332.23C1195.59,-322 1201.97,-308.53 1206.2,-296 1212.86,-276.3 1217.69,-253.33 1220.82,-235.66"/>
<polygon fill="black" stroke="black" points="1224.26,-236.31 1222.46,-225.87 1217.35,-235.15 1224.26,-236.31"/>
</g>
<!-- labmaze -->
<g id="node40" class="node">
<title>labmaze</title>
<g id="a_node40"><a xlink:href="https://github.com/conda-forge/labmaze-feedstock/pull/14" xlink:title="labmaze ❎">
<ellipse fill="#31688e" stroke="black" cx="1003.06" cy="-970" rx="68.04" ry="18"/>
<text text-anchor="middle" x="1003.06" y="-965.33" font-family="Times,serif" font-size="14.00" fill="white">labmaze ❎</text>
</a>
</g>
</g>
<!-- labmaze&#45;&gt;ray&#45;packages -->
<g id="edge36" class="edge">
<title>labmaze&#45;&gt;ray&#45;packages</title>
<path fill="none" stroke="black" d="M999.06,-951.56C993.52,-931.37 981.55,-898.51 959.06,-880 927.75,-854.23 884.95,-840.93 847.43,-834.09"/>
<polygon fill="black" stroke="black" points="848.43,-830.71 837.99,-832.5 847.27,-837.61 848.43,-830.71"/>
</g>
<!-- openvino -->
<g id="node41" class="node">
<title>openvino</title>
<g id="a_node41"><a xlink:href="https://github.com/conda-forge/openvino-feedstock/pull/106" xlink:title="openvino ❎">
<ellipse fill="#31688e" stroke="black" cx="552.06" cy="-970" rx="71.73" ry="18"/>
<text text-anchor="middle" x="552.06" y="-965.33" font-family="Times,serif" font-size="14.00" fill="white">openvino ❎</text>
</a>
</g>
</g>
<!-- openvino&#45;&gt;opencv -->
<g id="edge37" class="edge">
<title>openvino&#45;&gt;opencv</title>
<path fill="none" stroke="black" d="M564.16,-952.05C569.94,-943.97 576.97,-934.12 583.41,-925.11"/>
<polygon fill="black" stroke="black" points="586.22,-927.19 589.19,-917.02 580.53,-923.12 586.22,-927.19"/>
</g>
<!-- openvino&#45;&gt;openvino&#45;tokenizers -->
<g id="edge38" class="edge">
<title>openvino&#45;&gt;openvino&#45;tokenizers</title>
<path fill="none" stroke="black" d="M506.92,-955.67C470.39,-944.88 418.51,-929.55 377.9,-917.56"/>
<polygon fill="black" stroke="black" points="379.07,-914.26 368.49,-914.78 377.09,-920.97 379.07,-914.26"/>
</g>
<!-- bfiocpp -->
<g id="node43" class="node">
<title>bfiocpp</title>
<g id="a_node43"><a xlink:href="https://github.com/conda-forge/bfiocpp-feedstock/pull/9" xlink:title="bfiocpp ❎">
<ellipse fill="#31688e" stroke="black" cx="535.55" cy="-206" rx="62.78" ry="18"/>
<text text-anchor="middle" x="535.55" y="-201.33" font-family="Times,serif" font-size="14.00" fill="white">bfiocpp ❎</text>
</a>
</g>
</g>
<!-- gcld3&#45;&gt;bfiocpp -->
<!-- mysqlx&#45;connector&#45;python -->
<g id="node44" class="node">
<title>mysqlx&#45;connector&#45;python</title>
<g id="a_node44"><a xlink:href="https://github.com/conda-forge/mysqlx-connector-python-feedstock/pull/8" xlink:title="mysqlx connector python ❎">
<ellipse fill="#31688e" stroke="black" cx="535.55" cy="-134" rx="152.75" ry="18"/>
<text text-anchor="middle" x="535.55" y="-129.32" font-family="Times,serif" font-size="14.00" fill="white">mysqlx connector python ❎</text>
</a>
</g>
</g>
<!-- bfiocpp&#45;&gt;mysqlx&#45;connector&#45;python -->
</g>
</svg>
