<?xml version="1.0" encoding="UTF-8" standalone="no"?>
<!DOCTYPE svg PUBLIC "-//W3C//DTD SVG 1.1//EN"
 "http://www.w3.org/Graphics/SVG/1.1/DTD/svg11.dtd">
<!-- Generated by graphviz version 12.0.0 (20240803.0821)
 -->
<!-- Pages: 1 -->
<svg width="1969pt" height="1140pt"
 viewBox="0.00 0.00 1968.83 1140.00" xmlns="http://www.w3.org/2000/svg" xmlns:xlink="http://www.w3.org/1999/xlink">
<g id="graph0" class="graph" transform="scale(1 1) rotate(0) translate(4 1136)">
<polygon fill="white" stroke="none" points="-4,4 -4,-1136 1964.83,-1136 1964.83,4 -4,4"/>
<!-- arrow&#45;cpp -->
<g id="node1" class="node">
<title>arrow&#45;cpp</title>
<g id="a_node1"><a xlink:href="https://github.com/conda-forge/arrow-cpp-feedstock/pull/1548" xlink:title="arrow cpp ❎">
<ellipse fill="#31688e" stroke="black" cx="108.06" cy="-826" rx="76.99" ry="18"/>
<text text-anchor="middle" x="108.06" y="-821.33" font-family="Times,serif" font-size="14.00" fill="white">arrow cpp ❎</text>
</a>
</g>
</g>
<!-- ray&#45;packages -->
<g id="node2" class="node">
<title>ray&#45;packages</title>
<g id="a_node2"><a xlink:href="https://github.com/conda-forge/ray-packages-feedstock" xlink:title="ray packages">
<ellipse fill="#fde725" stroke="black" cx="764.06" cy="-754" rx="76.99" ry="18"/>
<text text-anchor="middle" x="764.06" y="-749.33" font-family="Times,serif" font-size="14.00">ray packages</text>
</a>
</g>
</g>
<!-- arrow&#45;cpp&#45;&gt;ray&#45;packages -->
<g id="edge1" class="edge">
<title>arrow&#45;cpp&#45;&gt;ray&#45;packages</title>
<path fill="none" stroke="black" d="M162.95,-813.12C173.25,-811.19 183.95,-809.37 194.06,-808 407.81,-779.03 464.31,-800.97 678.06,-772 684.53,-771.12 691.25,-770.06 697.95,-768.9"/>
<polygon fill="black" stroke="black" points="698.46,-772.37 707.68,-767.15 697.22,-765.48 698.46,-772.37"/>
</g>
<!-- datafusion -->
<g id="node3" class="node">
<title>datafusion</title>
<g id="a_node3"><a xlink:href="https://github.com/conda-forge/datafusion-feedstock" xlink:title="datafusion">
<ellipse fill="#fde725" stroke="black" cx="200.06" cy="-754" rx="63.84" ry="18"/>
<text text-anchor="middle" x="200.06" y="-749.33" font-family="Times,serif" font-size="14.00">datafusion</text>
</a>
</g>
</g>
<!-- arrow&#45;cpp&#45;&gt;datafusion -->
<g id="edge2" class="edge">
<title>arrow&#45;cpp&#45;&gt;datafusion</title>
<path fill="none" stroke="black" d="M129.86,-808.41C141.75,-799.37 156.65,-788.03 169.66,-778.13"/>
<polygon fill="black" stroke="black" points="171.69,-780.99 177.53,-772.14 167.45,-775.41 171.69,-780.99"/>
</g>
<!-- arcticdb -->
<g id="node4" class="node">
<title>arcticdb</title>
<g id="a_node4"><a xlink:href="https://github.com/conda-forge/arcticdb-feedstock" xlink:title="arcticdb">
<ellipse fill="#fde725" stroke="black" cx="108.06" cy="-682" rx="52.26" ry="18"/>
<text text-anchor="middle" x="108.06" y="-677.33" font-family="Times,serif" font-size="14.00">arcticdb</text>
</a>
</g>
</g>
<!-- arrow&#45;cpp&#45;&gt;arcticdb -->
<g id="edge3" class="edge">
<title>arrow&#45;cpp&#45;&gt;arcticdb</title>
<path fill="none" stroke="black" d="M108.06,-807.59C108.06,-783.61 108.06,-740.14 108.06,-711.42"/>
<polygon fill="black" stroke="black" points="111.56,-711.62 108.06,-701.62 104.56,-711.62 111.56,-711.62"/>
</g>
<!-- csp -->
<g id="node5" class="node">
<title>csp</title>
<g id="a_node5"><a xlink:href="https://github.com/conda-forge/csp-feedstock" xlink:title="csp">
<ellipse fill="#fde725" stroke="black" cx="28.06" cy="-610" rx="28.06" ry="18"/>
<text text-anchor="middle" x="28.06" y="-605.33" font-family="Times,serif" font-size="14.00">csp</text>
</a>
</g>
</g>
<!-- arrow&#45;cpp&#45;&gt;csp -->
<g id="edge4" class="edge">
<title>arrow&#45;cpp&#45;&gt;csp</title>
<path fill="none" stroke="black" d="M97.97,-807.78C84.55,-784.19 60.92,-740.18 47.06,-700 40.28,-680.34 35.45,-657.37 32.35,-639.69"/>
<polygon fill="black" stroke="black" points="35.82,-639.19 30.73,-629.89 28.91,-640.33 35.82,-639.19"/>
</g>
<!-- bazel -->
<g id="node6" class="node">
<title>bazel</title>
<g id="a_node6"><a xlink:href="https://github.com/conda-forge/bazel-feedstock" xlink:title="bazel">
<ellipse fill="#ff8c00" stroke="black" cx="1756.61" cy="-1114" rx="37.53" ry="18"/>
<text text-anchor="middle" x="1756.61" y="-1109.33" font-family="Times,serif" font-size="14.00">bazel</text>
</a>
</g>
</g>
<!-- mosh -->
<g id="node7" class="node">
<title>mosh</title>
<g id="a_node7"><a xlink:href="https://github.com/conda-forge/mosh-feedstock" xlink:title="mosh">
<ellipse fill="#35b779" stroke="black" cx="1756.61" cy="-1042" rx="38.06" ry="18"/>
<text text-anchor="middle" x="1756.61" y="-1037.33" font-family="Times,serif" font-size="14.00">mosh</text>
</a>
</g>
</g>
<!-- bazel&#45;&gt;mosh -->
<!-- mysql -->
<g id="node8" class="node">
<title>mysql</title>
<g id="a_node8"><a xlink:href="https://github.com/conda-forge/mysql-feedstock/pull/103" xlink:title="mysql ✓">
<ellipse fill="#31688e" stroke="black" cx="1756.61" cy="-970" rx="49.1" ry="18"/>
<text text-anchor="middle" x="1756.61" y="-965.33" font-family="Times,serif" font-size="14.00" fill="white">mysql ✓</text>
</a>
</g>
</g>
<!-- mosh&#45;&gt;mysql -->
<!-- paraview -->
<g id="node9" class="node">
<title>paraview</title>
<g id="a_node9"><a xlink:href="https://github.com/conda-forge/paraview-feedstock/pull/257" xlink:title="paraview ❎">
<ellipse fill="#31688e" stroke="black" cx="1756.61" cy="-898" rx="72.25" ry="18"/>
<text text-anchor="middle" x="1756.61" y="-893.33" font-family="Times,serif" font-size="14.00" fill="white">paraview ❎</text>
</a>
</g>
</g>
<!-- mysql&#45;&gt;paraview -->
<!-- qgis -->
<g id="node13" class="node">
<title>qgis</title>
<g id="a_node13"><a xlink:href="https://github.com/conda-forge/qgis-feedstock" xlink:title="qgis">
<ellipse fill="#ff8c00" stroke="black" cx="1756.61" cy="-826" rx="32.27" ry="18"/>
<text text-anchor="middle" x="1756.61" y="-821.33" font-family="Times,serif" font-size="14.00">qgis</text>
</a>
</g>
</g>
<!-- paraview&#45;&gt;qgis -->
<!-- opencv -->
<g id="node10" class="node">
<title>opencv</title>
<g id="a_node10"><a xlink:href="https://github.com/conda-forge/opencv-feedstock" xlink:title="opencv">
<ellipse fill="#fde725" stroke="black" cx="602.06" cy="-826" rx="46.47" ry="18"/>
<text text-anchor="middle" x="602.06" y="-821.33" font-family="Times,serif" font-size="14.00">opencv</text>
</a>
</g>
</g>
<!-- opencv&#45;&gt;ray&#45;packages -->
<g id="edge8" class="edge">
<title>opencv&#45;&gt;ray&#45;packages</title>
<path fill="none" stroke="black" d="M632.15,-812C656.33,-801.55 690.69,-786.7 718.27,-774.78"/>
<polygon fill="black" stroke="black" points="719.3,-778.15 727.09,-770.97 716.52,-771.73 719.3,-778.15"/>
</g>
<!-- imp -->
<g id="node11" class="node">
<title>imp</title>
<g id="a_node11"><a xlink:href="https://github.com/conda-forge/imp-feedstock" xlink:title="imp">
<ellipse fill="#fde725" stroke="black" cx="639.06" cy="-754" rx="30.16" ry="18"/>
<text text-anchor="middle" x="639.06" y="-749.33" font-family="Times,serif" font-size="14.00">imp</text>
</a>
</g>
</g>
<!-- opencv&#45;&gt;imp -->
<g id="edge9" class="edge">
<title>opencv&#45;&gt;imp</title>
<path fill="none" stroke="black" d="M611.02,-808.05C615.26,-800.03 620.42,-790.26 625.16,-781.3"/>
<polygon fill="black" stroke="black" points="628.15,-783.12 629.73,-772.65 621.97,-779.85 628.15,-783.12"/>
</g>
<!-- gazebo&#45;yarp&#45;plugins -->
<g id="node12" class="node">
<title>gazebo&#45;yarp&#45;plugins</title>
<g id="a_node12"><a xlink:href="https://github.com/conda-forge/gazebo-yarp-plugins-feedstock" xlink:title="gazebo yarp plugins">
<ellipse fill="#fde725" stroke="black" cx="479.06" cy="-754" rx="112.24" ry="18"/>
<text text-anchor="middle" x="479.06" y="-749.33" font-family="Times,serif" font-size="14.00">gazebo yarp plugins</text>
</a>
</g>
</g>
<!-- opencv&#45;&gt;gazebo&#45;yarp&#45;plugins -->
<g id="edge10" class="edge">
<title>opencv&#45;&gt;gazebo&#45;yarp&#45;plugins</title>
<path fill="none" stroke="black" d="M576.57,-810.5C559.75,-800.92 537.38,-788.19 518.31,-777.34"/>
<polygon fill="black" stroke="black" points="520.14,-774.35 509.72,-772.45 516.68,-780.44 520.14,-774.35"/>
</g>
<!-- tensorflow -->
<g id="node14" class="node">
<title>tensorflow</title>
<g id="a_node14"><a xlink:href="https://github.com/conda-forge/tensorflow-feedstock" xlink:title="tensorflow">
<ellipse fill="#ff8c00" stroke="black" cx="1756.61" cy="-754" rx="63.84" ry="18"/>
<text text-anchor="middle" x="1756.61" y="-749.33" font-family="Times,serif" font-size="14.00">tensorflow</text>
</a>
</g>
</g>
<!-- qgis&#45;&gt;tensorflow -->
<!-- r&#45;protolite -->
<g id="node16" class="node">
<title>r&#45;protolite</title>
<g id="a_node16"><a xlink:href="https://github.com/conda-forge/r-protolite-feedstock/pull/42" xlink:title="r protolite ❎">
<ellipse fill="#31688e" stroke="black" cx="1756.61" cy="-682" rx="77.52" ry="18"/>
<text text-anchor="middle" x="1756.61" y="-677.33" font-family="Times,serif" font-size="14.00" fill="white">r protolite ❎</text>
</a>
</g>
</g>
<!-- tensorflow&#45;&gt;r&#45;protolite -->
<!-- pyaudi -->
<g id="node15" class="node">
<title>pyaudi</title>
<g id="a_node15"><a xlink:href="https://github.com/conda-forge/pyaudi-feedstock" xlink:title="pyaudi">
<ellipse fill="#fde725" stroke="black" cx="1311.74" cy="-18" rx="44.9" ry="18"/>
<text text-anchor="middle" x="1311.74" y="-13.32" font-family="Times,serif" font-size="14.00">pyaudi</text>
</a>
</g>
</g>
<!-- mongodb -->
<g id="node17" class="node">
<title>mongodb</title>
<g id="a_node17"><a xlink:href="https://github.com/conda-forge/mongodb-feedstock/pull/97" xlink:title="mongodb ❎">
<ellipse fill="#31688e" stroke="black" cx="1756.61" cy="-610" rx="72.78" ry="18"/>
<text text-anchor="middle" x="1756.61" y="-605.33" font-family="Times,serif" font-size="14.00" fill="white">mongodb ❎</text>
</a>
</g>
</g>
<!-- r&#45;protolite&#45;&gt;mongodb -->
<!-- go&#45;cockroach -->
<g id="node19" class="node">
<title>go&#45;cockroach</title>
<g id="a_node19"><a xlink:href="https://github.com/conda-forge/go-cockroach-feedstock" xlink:title="go cockroach">
<ellipse fill="#35b779" stroke="black" cx="1756.61" cy="-538" rx="76.46" ry="18"/>
<text text-anchor="middle" x="1756.61" y="-533.33" font-family="Times,serif" font-size="14.00">go cockroach</text>
</a>
</g>
</g>
<!-- mongodb&#45;&gt;go&#45;cockroach -->
<!-- pytorch&#45;cpu -->
<g id="node18" class="node">
<title>pytorch&#45;cpu</title>
<g id="a_node18"><a xlink:href="https://github.com/conda-forge/pytorch-cpu-feedstock/pull/265" xlink:title="pytorch cpu ❎">
<ellipse fill="#31688e" stroke="black" cx="752.06" cy="-826" rx="85.93" ry="18"/>
<text text-anchor="middle" x="752.06" y="-821.33" font-family="Times,serif" font-size="14.00" fill="white">pytorch cpu ❎</text>
</a>
</g>
</g>
<!-- pytorch&#45;cpu&#45;&gt;ray&#45;packages -->
<g id="edge15" class="edge">
<title>pytorch&#45;cpu&#45;&gt;ray&#45;packages</title>
<path fill="none" stroke="black" d="M755.03,-807.7C756.29,-800.32 757.8,-791.52 759.22,-783.25"/>
<polygon fill="black" stroke="black" points="762.63,-784.04 760.87,-773.6 755.73,-782.86 762.63,-784.04"/>
</g>
<!-- cartographer -->
<g id="node30" class="node">
<title>cartographer</title>
<g id="a_node30"><a xlink:href="https://github.com/conda-forge/cartographer-feedstock" xlink:title="cartographer">
<ellipse fill="#35b779" stroke="black" cx="1756.61" cy="-466" rx="76.99" ry="18"/>
<text text-anchor="middle" x="1756.61" y="-461.32" font-family="Times,serif" font-size="14.00">cartographer</text>
</a>
</g>
</g>
<!-- go&#45;cockroach&#45;&gt;cartographer -->
<!-- jaxlib -->
<g id="node20" class="node">
<title>jaxlib</title>
<g id="a_node20"><a xlink:href="https://github.com/conda-forge/jaxlib-feedstock" xlink:title="jaxlib">
<ellipse fill="#ff8c00" stroke="black" cx="878.06" cy="-898" rx="38.58" ry="18"/>
<text text-anchor="middle" x="878.06" y="-893.33" font-family="Times,serif" font-size="14.00">jaxlib</text>
</a>
</g>
</g>
<!-- mujoco -->
<g id="node21" class="node">
<title>mujoco</title>
<g id="a_node21"><a xlink:href="https://github.com/conda-forge/mujoco-feedstock" xlink:title="mujoco">
<ellipse fill="#fde725" stroke="black" cx="903.06" cy="-826" rx="47" ry="18"/>
<text text-anchor="middle" x="903.06" y="-821.33" font-family="Times,serif" font-size="14.00">mujoco</text>
</a>
</g>
</g>
<!-- jaxlib&#45;&gt;mujoco -->
<g id="edge17" class="edge">
<title>jaxlib&#45;&gt;mujoco</title>
<path fill="none" stroke="black" d="M884.11,-880.05C886.8,-872.52 890.05,-863.44 893.08,-854.94"/>
<polygon fill="black" stroke="black" points="896.31,-856.3 896.38,-845.7 889.72,-853.94 896.31,-856.3"/>
</g>
<!-- mujoco&#45;&gt;ray&#45;packages -->
<g id="edge18" class="edge">
<title>mujoco&#45;&gt;ray&#45;packages</title>
<path fill="none" stroke="black" d="M875.26,-811C855.2,-800.9 827.78,-787.09 805.19,-775.71"/>
<polygon fill="black" stroke="black" points="807.05,-772.73 796.55,-771.36 803.91,-778.99 807.05,-772.73"/>
</g>
<!-- obake -->
<g id="node22" class="node">
<title>obake</title>
<g id="a_node22"><a xlink:href="https://github.com/conda-forge/obake-feedstock/pull/49" xlink:title="obake ❎">
<ellipse fill="#31688e" stroke="black" cx="1311.74" cy="-90" rx="55.94" ry="18"/>
<text text-anchor="middle" x="1311.74" y="-85.33" font-family="Times,serif" font-size="14.00" fill="white">obake ❎</text>
</a>
</g>
</g>
<!-- obake&#45;&gt;pyaudi -->
<g id="edge19" class="edge">
<title>obake&#45;&gt;pyaudi</title>
<path fill="none" stroke="black" d="M1311.74,-71.7C1311.74,-64.41 1311.74,-55.73 1311.74,-47.54"/>
<polygon fill="black" stroke="black" points="1315.24,-47.62 1311.74,-37.62 1308.24,-47.62 1315.24,-47.62"/>
</g>
<!-- libignition&#45;transport4 -->
<g id="node23" class="node">
<title>libignition&#45;transport4</title>
<g id="a_node23"><a xlink:href="https://github.com/conda-forge/libignition-transport4-feedstock/pull/100" xlink:title="libignition transport4 ✓">
<ellipse fill="#31688e" stroke="black" cx="1368.92" cy="-350" rx="126.97" ry="18"/>
<text text-anchor="middle" x="1368.92" y="-345.32" font-family="Times,serif" font-size="14.00" fill="white">libignition transport4 ✓</text>
</a>
</g>
</g>
<!-- libignition&#45;sensors -->
<g id="node24" class="node">
<title>libignition&#45;sensors</title>
<g id="a_node24"><a xlink:href="https://github.com/conda-forge/libignition-sensors-feedstock" xlink:title="libignition sensors">
<ellipse fill="#fde725" stroke="black" cx="1182.92" cy="-278" rx="103.82" ry="18"/>
<text text-anchor="middle" x="1182.92" y="-273.32" font-family="Times,serif" font-size="14.00">libignition sensors</text>
</a>
</g>
</g>
<!-- libignition&#45;transport4&#45;&gt;libignition&#45;sensors -->
<g id="edge20" class="edge">
<title>libignition&#45;transport4&#45;&gt;libignition&#45;sensors</title>
<path fill="none" stroke="black" d="M1325.78,-332.76C1298.95,-322.67 1264.25,-309.61 1235.77,-298.89"/>
<polygon fill="black" stroke="black" points="1237.2,-295.69 1226.6,-295.44 1234.73,-302.24 1237.2,-295.69"/>
</g>
<!-- libignition&#45;gui -->
<g id="node25" class="node">
<title>libignition&#45;gui</title>
<g id="a_node25"><a xlink:href="https://github.com/conda-forge/libignition-gui-feedstock" xlink:title="libignition gui">
<ellipse fill="#fde725" stroke="black" cx="1423.92" cy="-278" rx="81.2" ry="18"/>
<text text-anchor="middle" x="1423.92" y="-273.32" font-family="Times,serif" font-size="14.00">libignition gui</text>
</a>
</g>
</g>
<!-- libignition&#45;transport4&#45;&gt;libignition&#45;gui -->
<g id="edge21" class="edge">
<title>libignition&#45;transport4&#45;&gt;libignition&#45;gui</title>
<path fill="none" stroke="black" d="M1382.52,-331.7C1388.85,-323.64 1396.51,-313.89 1403.51,-304.98"/>
<polygon fill="black" stroke="black" points="1406.12,-307.32 1409.55,-297.29 1400.62,-303 1406.12,-307.32"/>
</g>
<!-- libignition&#45;gazebo -->
<g id="node26" class="node">
<title>libignition&#45;gazebo</title>
<g id="a_node26"><a xlink:href="https://github.com/conda-forge/libignition-gazebo-feedstock" xlink:title="libignition gazebo">
<ellipse fill="#fde725" stroke="black" cx="1314.92" cy="-206" rx="100.66" ry="18"/>
<text text-anchor="middle" x="1314.92" y="-201.33" font-family="Times,serif" font-size="14.00">libignition gazebo</text>
</a>
</g>
</g>
<!-- libignition&#45;transport4&#45;&gt;libignition&#45;gazebo -->
<g id="edge22" class="edge">
<title>libignition&#45;transport4&#45;&gt;libignition&#45;gazebo</title>
<path fill="none" stroke="black" d="M1355.17,-331.79C1347.86,-321.85 1339.29,-308.81 1333.92,-296 1325.83,-276.7 1321.03,-253.55 1318.28,-235.7"/>
<polygon fill="black" stroke="black" points="1321.74,-235.22 1316.89,-225.8 1314.81,-236.19 1321.74,-235.22"/>
</g>
<!-- libignition&#45;launch -->
<g id="node27" class="node">
<title>libignition&#45;launch</title>
<g id="a_node27"><a xlink:href="https://github.com/conda-forge/libignition-launch-feedstock" xlink:title="libignition launch">
<ellipse fill="#fde725" stroke="black" cx="1443.92" cy="-134" rx="98.56" ry="18"/>
<text text-anchor="middle" x="1443.92" y="-129.32" font-family="Times,serif" font-size="14.00">libignition launch</text>
</a>
</g>
</g>
<!-- libignition&#45;transport4&#45;&gt;libignition&#45;launch -->
<g id="edge23" class="edge">
<title>libignition&#45;transport4&#45;&gt;libignition&#45;launch</title>
<path fill="none" stroke="black" d="M1454.19,-336.37C1477.34,-328.6 1499.87,-316.1 1513.92,-296 1544.38,-252.43 1500.85,-193.5 1470,-160.36"/>
<polygon fill="black" stroke="black" points="1472.6,-158.01 1463.15,-153.21 1467.54,-162.85 1472.6,-158.01"/>
</g>
<!-- libignition&#45;sensors&#45;&gt;libignition&#45;gazebo -->
<g id="edge24" class="edge">
<title>libignition&#45;sensors&#45;&gt;libignition&#45;gazebo</title>
<path fill="none" stroke="black" d="M1214.21,-260.41C1232.04,-250.95 1254.61,-238.99 1273.86,-228.78"/>
<polygon fill="black" stroke="black" points="1275.33,-231.96 1282.53,-224.18 1272.05,-225.77 1275.33,-231.96"/>
</g>
<!-- libignition&#45;gui&#45;&gt;libignition&#45;gazebo -->
<g id="edge25" class="edge">
<title>libignition&#45;gui&#45;&gt;libignition&#45;gazebo</title>
<path fill="none" stroke="black" d="M1398.37,-260.59C1384.09,-251.42 1366.08,-239.85 1350.45,-229.81"/>
<polygon fill="black" stroke="black" points="1352.65,-227.07 1342.35,-224.61 1348.87,-232.96 1352.65,-227.07"/>
</g>
<!-- libignition&#45;gui&#45;&gt;libignition&#45;launch -->
<g id="edge26" class="edge">
<title>libignition&#45;gui&#45;&gt;libignition&#45;launch</title>
<path fill="none" stroke="black" d="M1426.38,-259.59C1429.75,-235.61 1435.87,-192.14 1439.92,-163.42"/>
<polygon fill="black" stroke="black" points="1443.37,-164 1441.3,-153.61 1436.44,-163.02 1443.37,-164"/>
</g>
<!-- libignition&#45;gazebo&#45;&gt;libignition&#45;launch -->
<g id="edge27" class="edge">
<title>libignition&#45;gazebo&#45;&gt;libignition&#45;launch</title>
<path fill="none" stroke="black" d="M1345.49,-188.41C1362.84,-179 1384.77,-167.1 1403.53,-156.92"/>
<polygon fill="black" stroke="black" points="1405.12,-160.04 1412.24,-152.19 1401.78,-153.89 1405.12,-160.04"/>
</g>
<!-- gazebo -->
<g id="node28" class="node">
<title>gazebo</title>
<g id="a_node28"><a xlink:href="https://github.com/conda-forge/gazebo-feedstock" xlink:title="gazebo">
<ellipse fill="#35b779" stroke="black" cx="491.06" cy="-826" rx="46.47" ry="18"/>
<text text-anchor="middle" x="491.06" y="-821.33" font-family="Times,serif" font-size="14.00">gazebo</text>
</a>
</g>
</g>
<!-- gazebo&#45;&gt;gazebo&#45;yarp&#45;plugins -->
<g id="edge28" class="edge">
<title>gazebo&#45;&gt;gazebo&#45;yarp&#45;plugins</title>
<path fill="none" stroke="black" d="M488.09,-807.7C486.83,-800.32 485.32,-791.52 483.9,-783.25"/>
<polygon fill="black" stroke="black" points="487.39,-782.86 482.25,-773.6 480.49,-784.04 487.39,-782.86"/>
</g>
<!-- google&#45;cloud&#45;cpp -->
<g id="node29" class="node">
<title>google&#45;cloud&#45;cpp</title>
<g id="a_node29"><a xlink:href="https://github.com/conda-forge/google-cloud-cpp-feedstock" xlink:title="google cloud cpp">
<ellipse fill="#fde725" stroke="black" cx="511.01" cy="-134" rx="95.4" ry="18"/>
<text text-anchor="middle" x="511.01" y="-129.32" font-family="Times,serif" font-size="14.00">google cloud cpp</text>
</a>
</g>
</g>
<!-- tomviz -->
<g id="node31" class="node">
<title>tomviz</title>
<g id="a_node31"><a xlink:href="https://github.com/conda-forge/tomviz-feedstock" xlink:title="tomviz">
<ellipse fill="#35b779" stroke="black" cx="1756.61" cy="-394" rx="44.9" ry="18"/>
<text text-anchor="middle" x="1756.61" y="-389.32" font-family="Times,serif" font-size="14.00">tomviz</text>
</a>
</g>
</g>
<!-- cartographer&#45;&gt;tomviz -->
<!-- sentencepiece -->
<g id="node32" class="node">
<title>sentencepiece</title>
<g id="a_node32"><a xlink:href="https://github.com/conda-forge/sentencepiece-feedstock/pull/55" xlink:title="sentencepiece ❎">
<ellipse fill="#31688e" stroke="black" cx="315.06" cy="-898" rx="97.51" ry="18"/>
<text text-anchor="middle" x="315.06" y="-893.33" font-family="Times,serif" font-size="14.00" fill="white">sentencepiece ❎</text>
</a>
</g>
</g>
<!-- openvino&#45;tokenizers -->
<g id="node33" class="node">
<title>openvino&#45;tokenizers</title>
<g id="a_node33"><a xlink:href="https://github.com/conda-forge/openvino-tokenizers-feedstock" xlink:title="openvino tokenizers">
<ellipse fill="#fde725" stroke="black" cx="315.06" cy="-826" rx="111.71" ry="18"/>
<text text-anchor="middle" x="315.06" y="-821.33" font-family="Times,serif" font-size="14.00">openvino tokenizers</text>
</a>
</g>
</g>
<!-- sentencepiece&#45;&gt;openvino&#45;tokenizers -->
<g id="edge31" class="edge">
<title>sentencepiece&#45;&gt;openvino&#45;tokenizers</title>
<path fill="none" stroke="black" d="M315.06,-879.7C315.06,-872.41 315.06,-863.73 315.06,-855.54"/>
<polygon fill="black" stroke="black" points="318.56,-855.62 315.06,-845.62 311.56,-855.62 318.56,-855.62"/>
</g>
<!-- s2geometry -->
<g id="node34" class="node">
<title>s2geometry</title>
<g id="a_node34"><a xlink:href="https://github.com/conda-forge/s2geometry-feedstock/pull/21" xlink:title="s2geometry ✓">
<ellipse fill="#31688e" stroke="black" cx="535.55" cy="-90" rx="78.57" ry="18"/>
<text text-anchor="middle" x="535.55" y="-85.33" font-family="Times,serif" font-size="14.00" fill="white">s2geometry ✓</text>
</a>
</g>
</g>
<!-- s2geography -->
<g id="node35" class="node">
<title>s2geography</title>
<g id="a_node35"><a xlink:href="https://github.com/conda-forge/s2geography-feedstock" xlink:title="s2geography">
<ellipse fill="#fde725" stroke="black" cx="535.55" cy="-18" rx="75.94" ry="18"/>
<text text-anchor="middle" x="535.55" y="-13.32" font-family="Times,serif" font-size="14.00">s2geography</text>
</a>
</g>
</g>
<!-- s2geometry&#45;&gt;s2geography -->
<g id="edge32" class="edge">
<title>s2geometry&#45;&gt;s2geography</title>
<path fill="none" stroke="black" d="M535.55,-71.7C535.55,-64.41 535.55,-55.73 535.55,-47.54"/>
<polygon fill="black" stroke="black" points="539.05,-47.62 535.55,-37.62 532.05,-47.62 539.05,-47.62"/>
</g>
<!-- grpc_java_plugin -->
<g id="node36" class="node">
<title>grpc_java_plugin</title>
<g id="a_node36"><a xlink:href="https://github.com/conda-forge/grpc_java_plugin-feedstock" xlink:title="grpc_java_plugin">
<ellipse fill="#000000" stroke="black" cx="1311.74" cy="-1114" rx="95.4" ry="18"/>
<text text-anchor="middle" x="1311.74" y="-1109.33" font-family="Times,serif" font-size="14.00" fill="white">grpc_java_plugin</text>
</a>
</g>
</g>
<!-- or&#45;tools -->
<g id="node37" class="node">
<title>or&#45;tools</title>
<g id="a_node37"><a xlink:href="https://github.com/conda-forge/or-tools-feedstock/pull/62" xlink:title="or tools ❎">
<ellipse fill="#31688e" stroke="black" cx="1311.74" cy="-1042" rx="64.36" ry="18"/>
<text text-anchor="middle" x="1311.74" y="-1037.33" font-family="Times,serif" font-size="14.00" fill="white">or tools ❎</text>
</a>
</g>
</g>
<!-- grpc_java_plugin&#45;&gt;or&#45;tools -->
<!-- bear -->
<g id="node38" class="node">
<title>bear</title>
<g id="a_node38"><a xlink:href="https://github.com/conda-forge/bear-feedstock" xlink:title="bear">
<ellipse fill="#35b779" stroke="black" cx="1311.74" cy="-970" rx="33.85" ry="18"/>
<text text-anchor="middle" x="1311.74" y="-965.33" font-family="Times,serif" font-size="14.00">bear</text>
</a>
</g>
</g>
<!-- or&#45;tools&#45;&gt;bear -->
<!-- cpp&#45;opentelemetry&#45;sdk -->
<g id="node39" class="node">
<title>cpp&#45;opentelemetry&#45;sdk</title>
<g id="a_node39"><a xlink:href="https://github.com/conda-forge/cpp-opentelemetry-sdk-feedstock" xlink:title="cpp opentelemetry sdk">
<ellipse fill="#35b779" stroke="black" cx="1311.74" cy="-898" rx="125.92" ry="18"/>
<text text-anchor="middle" x="1311.74" y="-893.33" font-family="Times,serif" font-size="14.00">cpp opentelemetry sdk</text>
</a>
</g>
</g>
<!-- bear&#45;&gt;cpp&#45;opentelemetry&#45;sdk -->
<!-- xilinx&#45;runtime -->
<g id="node40" class="node">
<title>xilinx&#45;runtime</title>
<g id="a_node40"><a xlink:href="https://github.com/conda-forge/xilinx-runtime-feedstock" xlink:title="xilinx runtime">
<ellipse fill="#35b779" stroke="black" cx="1311.74" cy="-826" rx="81.72" ry="18"/>
<text text-anchor="middle" x="1311.74" y="-821.33" font-family="Times,serif" font-size="14.00">xilinx runtime</text>
</a>
</g>
</g>
<!-- cpp&#45;opentelemetry&#45;sdk&#45;&gt;xilinx&#45;runtime -->
<!-- gnss&#45;sdr -->
<g id="node41" class="node">
<title>gnss&#45;sdr</title>
<g id="a_node41"><a xlink:href="https://github.com/conda-forge/gnss-sdr-feedstock" xlink:title="gnss sdr">
<ellipse fill="#35b779" stroke="black" cx="1311.74" cy="-754" rx="53.84" ry="18"/>
<text text-anchor="middle" x="1311.74" y="-749.33" font-family="Times,serif" font-size="14.00">gnss sdr</text>
</a>
</g>
</g>
<!-- xilinx&#45;runtime&#45;&gt;gnss&#45;sdr -->
<!-- gcld3 -->
<g id="node50" class="node">
<title>gcld3</title>
<g id="a_node50"><a xlink:href="https://github.com/conda-forge/gcld3-feedstock" xlink:title="gcld3">
<ellipse fill="#35b779" stroke="black" cx="1311.74" cy="-682" rx="38.58" ry="18"/>
<text text-anchor="middle" x="1311.74" y="-677.33" font-family="Times,serif" font-size="14.00">gcld3</text>
</a>
</g>
</g>
<!-- gnss&#45;sdr&#45;&gt;gcld3 -->
<!-- gz&#45;transport -->
<g id="node42" class="node">
<title>gz&#45;transport</title>
<g id="a_node42"><a xlink:href="https://github.com/conda-forge/gz-transport-feedstock/pull/42" xlink:title="gz transport ✓">
<ellipse fill="#31688e" stroke="black" cx="1701.22" cy="-350" rx="81.2" ry="18"/>
<text text-anchor="middle" x="1701.22" y="-345.32" font-family="Times,serif" font-size="14.00" fill="white">gz transport ✓</text>
</a>
</g>
</g>
<!-- gz&#45;gui -->
<g id="node43" class="node">
<title>gz&#45;gui</title>
<g id="a_node43"><a xlink:href="https://github.com/conda-forge/gz-gui-feedstock" xlink:title="gz gui">
<ellipse fill="#fde725" stroke="black" cx="1631.22" cy="-278" rx="41.74" ry="18"/>
<text text-anchor="middle" x="1631.22" y="-273.32" font-family="Times,serif" font-size="14.00">gz gui</text>
</a>
</g>
</g>
<!-- gz&#45;transport&#45;&gt;gz&#45;gui -->
<g id="edge38" class="edge">
<title>gz&#45;transport&#45;&gt;gz&#45;gui</title>
<path fill="none" stroke="black" d="M1684.28,-332.05C1675.52,-323.29 1664.67,-312.45 1655.08,-302.86"/>
<polygon fill="black" stroke="black" points="1657.67,-300.5 1648.12,-295.9 1652.72,-305.45 1657.67,-300.5"/>
</g>
<!-- gz&#45;sensors -->
<g id="node44" class="node">
<title>gz&#45;sensors</title>
<g id="a_node44"><a xlink:href="https://github.com/conda-forge/gz-sensors-feedstock" xlink:title="gz sensors">
<ellipse fill="#fde725" stroke="black" cx="1793.22" cy="-278" rx="64.36" ry="18"/>
<text text-anchor="middle" x="1793.22" y="-273.32" font-family="Times,serif" font-size="14.00">gz sensors</text>
</a>
</g>
</g>
<!-- gz&#45;transport&#45;&gt;gz&#45;sensors -->
<g id="edge39" class="edge">
<title>gz&#45;transport&#45;&gt;gz&#45;sensors</title>
<path fill="none" stroke="black" d="M1723.03,-332.41C1734.91,-323.37 1749.81,-312.03 1762.83,-302.13"/>
<polygon fill="black" stroke="black" points="1764.85,-304.99 1770.69,-296.14 1760.61,-299.41 1764.85,-304.99"/>
</g>
<!-- gz&#45;sim -->
<g id="node45" class="node">
<title>gz&#45;sim</title>
<g id="a_node45"><a xlink:href="https://github.com/conda-forge/gz-sim-feedstock" xlink:title="gz sim">
<ellipse fill="#fde725" stroke="black" cx="1702.22" cy="-206" rx="43.84" ry="18"/>
<text text-anchor="middle" x="1702.22" y="-201.33" font-family="Times,serif" font-size="14.00">gz sim</text>
</a>
</g>
</g>
<!-- gz&#45;transport&#45;&gt;gz&#45;sim -->
<g id="edge40" class="edge">
<title>gz&#45;transport&#45;&gt;gz&#45;sim</title>
<path fill="none" stroke="black" d="M1701.35,-331.59C1701.52,-307.61 1701.82,-264.14 1702.02,-235.42"/>
<polygon fill="black" stroke="black" points="1705.52,-235.65 1702.09,-225.62 1698.52,-235.6 1705.52,-235.65"/>
</g>
<!-- gz&#45;launch -->
<g id="node46" class="node">
<title>gz&#45;launch</title>
<g id="a_node46"><a xlink:href="https://github.com/conda-forge/gz-launch-feedstock" xlink:title="gz launch">
<ellipse fill="#fde725" stroke="black" cx="1630.22" cy="-134" rx="59.1" ry="18"/>
<text text-anchor="middle" x="1630.22" y="-129.32" font-family="Times,serif" font-size="14.00">gz launch</text>
</a>
</g>
</g>
<!-- gz&#45;transport&#45;&gt;gz&#45;launch -->
<g id="edge41" class="edge">
<title>gz&#45;transport&#45;&gt;gz&#45;launch</title>
<path fill="none" stroke="black" d="M1641.52,-337.55C1618.31,-329.87 1594.03,-317.12 1580.22,-296 1552.38,-253.41 1585.41,-194.42 1609.48,-160.95"/>
<polygon fill="black" stroke="black" points="1612.21,-163.14 1615.37,-153.03 1606.59,-158.96 1612.21,-163.14"/>
</g>
<!-- gz&#45;sim&#45;yarp&#45;plugins -->
<g id="node47" class="node">
<title>gz&#45;sim&#45;yarp&#45;plugins</title>
<g id="a_node47"><a xlink:href="https://github.com/conda-forge/gz-sim-yarp-plugins-feedstock" xlink:title="gz sim yarp plugins">
<ellipse fill="#fde725" stroke="black" cx="1851.22" cy="-134" rx="109.61" ry="18"/>
<text text-anchor="middle" x="1851.22" y="-129.32" font-family="Times,serif" font-size="14.00">gz sim yarp plugins</text>
</a>
</g>
</g>
<!-- gz&#45;transport&#45;&gt;gz&#45;sim&#45;yarp&#45;plugins -->
<g id="edge42" class="edge">
<title>gz&#45;transport&#45;&gt;gz&#45;sim&#45;yarp&#45;plugins</title>
<path fill="none" stroke="black" d="M1778.13,-343.84C1810.78,-337.37 1845.93,-323.84 1866.22,-296 1894.8,-256.8 1877.97,-197.17 1864,-162.54"/>
<polygon fill="black" stroke="black" points="1867.35,-161.47 1860.22,-153.63 1860.91,-164.2 1867.35,-161.47"/>
</g>
<!-- gz&#45;gui&#45;&gt;gz&#45;sim -->
<g id="edge43" class="edge">
<title>gz&#45;gui&#45;&gt;gz&#45;sim</title>
<path fill="none" stroke="black" d="M1647.34,-261.12C1656.41,-252.17 1667.93,-240.81 1678.07,-230.81"/>
<polygon fill="black" stroke="black" points="1680.44,-233.4 1685.1,-223.88 1675.52,-228.41 1680.44,-233.4"/>
</g>
<!-- gz&#45;gui&#45;&gt;gz&#45;launch -->
<g id="edge44" class="edge">
<title>gz&#45;gui&#45;&gt;gz&#45;launch</title>
<path fill="none" stroke="black" d="M1631.1,-259.59C1630.93,-235.61 1630.63,-192.14 1630.42,-163.42"/>
<polygon fill="black" stroke="black" points="1633.93,-163.6 1630.36,-153.62 1626.93,-163.65 1633.93,-163.6"/>
</g>
<!-- gz&#45;sensors&#45;&gt;gz&#45;sim -->
<g id="edge45" class="edge">
<title>gz&#45;sensors&#45;&gt;gz&#45;sim</title>
<path fill="none" stroke="black" d="M1772.12,-260.76C1759.92,-251.38 1744.39,-239.44 1731.08,-229.2"/>
<polygon fill="black" stroke="black" points="1733.54,-226.67 1723.48,-223.35 1729.27,-232.22 1733.54,-226.67"/>
</g>
<!-- gz&#45;sim&#45;&gt;gz&#45;launch -->
<g id="edge46" class="edge">
<title>gz&#45;sim&#45;&gt;gz&#45;launch</title>
<path fill="none" stroke="black" d="M1685.89,-189.12C1676.88,-180.36 1665.49,-169.29 1655.37,-159.45"/>
<polygon fill="black" stroke="black" points="1657.94,-157.07 1648.33,-152.61 1653.06,-162.09 1657.94,-157.07"/>
</g>
<!-- gz&#45;sim&#45;&gt;gz&#45;sim&#45;yarp&#45;plugins -->
<g id="edge47" class="edge">
<title>gz&#45;sim&#45;&gt;gz&#45;sim&#45;yarp&#45;plugins</title>
<path fill="none" stroke="black" d="M1730.25,-191.83C1751.57,-181.82 1781.34,-167.83 1806.01,-156.24"/>
<polygon fill="black" stroke="black" points="1807.3,-159.5 1814.86,-152.08 1804.32,-153.17 1807.3,-159.5"/>
</g>
<!-- labmaze -->
<g id="node48" class="node">
<title>labmaze</title>
<g id="a_node48"><a xlink:href="https://github.com/conda-forge/labmaze-feedstock/pull/14" xlink:title="labmaze ❎">
<ellipse fill="#31688e" stroke="black" cx="1003.06" cy="-898" rx="68.04" ry="18"/>
<text text-anchor="middle" x="1003.06" y="-893.33" font-family="Times,serif" font-size="14.00" fill="white">labmaze ❎</text>
</a>
</g>
</g>
<!-- labmaze&#45;&gt;ray&#45;packages -->
<g id="edge48" class="edge">
<title>labmaze&#45;&gt;ray&#45;packages</title>
<path fill="none" stroke="black" d="M999.06,-879.56C993.52,-859.37 981.55,-826.51 959.06,-808 927.75,-782.23 884.95,-768.93 847.43,-762.09"/>
<polygon fill="black" stroke="black" points="848.43,-758.71 837.99,-760.5 847.27,-765.61 848.43,-758.71"/>
</g>
<!-- openvino -->
<g id="node49" class="node">
<title>openvino</title>
<g id="a_node49"><a xlink:href="https://github.com/conda-forge/openvino-feedstock/pull/106" xlink:title="openvino ❎">
<ellipse fill="#31688e" stroke="black" cx="552.06" cy="-898" rx="71.73" ry="18"/>
<text text-anchor="middle" x="552.06" y="-893.33" font-family="Times,serif" font-size="14.00" fill="white">openvino ❎</text>
</a>
</g>
</g>
<!-- openvino&#45;&gt;opencv -->
<g id="edge49" class="edge">
<title>openvino&#45;&gt;opencv</title>
<path fill="none" stroke="black" d="M564.16,-880.05C569.94,-871.97 576.97,-862.12 583.41,-853.11"/>
<polygon fill="black" stroke="black" points="586.22,-855.19 589.19,-845.02 580.53,-851.12 586.22,-855.19"/>
</g>
<!-- openvino&#45;&gt;openvino&#45;tokenizers -->
<g id="edge50" class="edge">
<title>openvino&#45;&gt;openvino&#45;tokenizers</title>
<path fill="none" stroke="black" d="M506.92,-883.67C470.39,-872.88 418.51,-857.55 377.9,-845.56"/>
<polygon fill="black" stroke="black" points="379.07,-842.26 368.49,-842.78 377.09,-848.97 379.07,-842.26"/>
</g>
<!-- bloaty -->
<g id="node51" class="node">
<title>bloaty</title>
<g id="a_node51"><a xlink:href="https://github.com/conda-forge/bloaty-feedstock" xlink:title="bloaty">
<ellipse fill="#35b779" stroke="black" cx="1311.74" cy="-610" rx="42.26" ry="18"/>
<text text-anchor="middle" x="1311.74" y="-605.33" font-family="Times,serif" font-size="14.00">bloaty</text>
</a>
</g>
</g>
<!-- gcld3&#45;&gt;bloaty -->
<!-- bfiocpp -->
<g id="node52" class="node">
<title>bfiocpp</title>
<g id="a_node52"><a xlink:href="https://github.com/conda-forge/bfiocpp-feedstock/pull/9" xlink:title="bfiocpp ❎">
<ellipse fill="#31688e" stroke="black" cx="1311.74" cy="-538" rx="62.78" ry="18"/>
<text text-anchor="middle" x="1311.74" y="-533.33" font-family="Times,serif" font-size="14.00" fill="white">bfiocpp ❎</text>
</a>
</g>
</g>
<!-- bloaty&#45;&gt;bfiocpp -->
<!-- protobuf&#45;c -->
<g id="node56" class="node">
<title>protobuf&#45;c</title>
<g id="a_node56"><a xlink:href="https://github.com/conda-forge/protobuf-c-feedstock/pull/3" xlink:title="protobuf c ❎">
<ellipse fill="#31688e" stroke="black" cx="1311.74" cy="-466" rx="78.04" ry="18"/>
<text text-anchor="middle" x="1311.74" y="-461.32" font-family="Times,serif" font-size="14.00" fill="white">protobuf c ❎</text>
</a>
</g>
</g>
<!-- bfiocpp&#45;&gt;protobuf&#45;c -->
<!-- google&#45;cloud&#45;cpp&#45;compute -->
<g id="node53" class="node">
<title>google&#45;cloud&#45;cpp&#45;compute</title>
<g id="a_node53"><a xlink:href="https://github.com/conda-forge/google-cloud-cpp-compute-feedstock/pull/23" xlink:title="google cloud cpp compute ✓">
<ellipse fill="#31688e" stroke="black" cx="689.01" cy="-206" rx="149.59" ry="18"/>
<text text-anchor="middle" x="689.01" y="-201.33" font-family="Times,serif" font-size="14.00" fill="white">google cloud cpp compute ✓</text>
</a>
</g>
</g>
<!-- google&#45;cloud&#45;cpp&#45;compute&#45;&gt;google&#45;cloud&#45;cpp -->
<g id="edge54" class="edge">
<title>google&#45;cloud&#45;cpp&#45;compute&#45;&gt;google&#45;cloud&#45;cpp</title>
<path fill="none" stroke="black" d="M646.82,-188.41C621.23,-178.35 588.41,-165.44 561.45,-154.84"/>
<polygon fill="black" stroke="black" points="563.05,-151.71 552.46,-151.3 560.49,-158.22 563.05,-151.71"/>
</g>
<!-- google&#45;cloud&#45;cpp&#45;bigquery -->
<g id="node54" class="node">
<title>google&#45;cloud&#45;cpp&#45;bigquery</title>
<g id="a_node54"><a xlink:href="https://github.com/conda-forge/google-cloud-cpp-bigquery-feedstock" xlink:title="google cloud cpp bigquery">
<ellipse fill="#35b779" stroke="black" cx="511.01" cy="-278" rx="143.28" ry="18"/>
<text text-anchor="middle" x="511.01" y="-273.32" font-family="Times,serif" font-size="14.00">google cloud cpp bigquery</text>
</a>
</g>
</g>
<!-- google&#45;cloud&#45;cpp&#45;bigquery&#45;&gt;google&#45;cloud&#45;cpp -->
<g id="edge55" class="edge">
<title>google&#45;cloud&#45;cpp&#45;bigquery&#45;&gt;google&#45;cloud&#45;cpp</title>
<path fill="none" stroke="black" d="M511.01,-259.59C511.01,-235.61 511.01,-192.14 511.01,-163.42"/>
<polygon fill="black" stroke="black" points="514.51,-163.62 511.01,-153.62 507.51,-163.62 514.51,-163.62"/>
</g>
<!-- google&#45;cloud&#45;cpp&#45;ai -->
<g id="node55" class="node">
<title>google&#45;cloud&#45;cpp&#45;ai</title>
<g id="a_node55"><a xlink:href="https://github.com/conda-forge/google-cloud-cpp-ai-feedstock" xlink:title="google cloud cpp ai">
<ellipse fill="#35b779" stroke="black" cx="340.01" cy="-350" rx="107.5" ry="18"/>
<text text-anchor="middle" x="340.01" y="-345.32" font-family="Times,serif" font-size="14.00">google cloud cpp ai</text>
</a>
</g>
</g>
<!-- google&#45;cloud&#45;cpp&#45;ai&#45;&gt;google&#45;cloud&#45;cpp -->
<g id="edge56" class="edge">
<title>google&#45;cloud&#45;cpp&#45;ai&#45;&gt;google&#45;cloud&#45;cpp</title>
<path fill="none" stroke="black" d="M340.37,-331.7C341.48,-312.81 345.46,-282.27 359.01,-260 386.43,-214.91 436.11,-178.72 471.19,-157.11"/>
<polygon fill="black" stroke="black" points="472.61,-160.34 479.37,-152.19 469,-154.34 472.61,-160.34"/>
</g>
<!-- mysqlx&#45;connector&#45;python -->
<g id="node57" class="node">
<title>mysqlx&#45;connector&#45;python</title>
<g id="a_node57"><a xlink:href="https://github.com/conda-forge/mysqlx-connector-python-feedstock" xlink:title="mysqlx connector python">
<ellipse fill="#35b779" stroke="black" cx="1311.74" cy="-394" rx="137.49" ry="18"/>
<text text-anchor="middle" x="1311.74" y="-389.32" font-family="Times,serif" font-size="14.00">mysqlx connector python</text>
</a>
</g>
</g>
<!-- protobuf&#45;c&#45;&gt;mysqlx&#45;connector&#45;python -->
</g>
</svg>
