<?xml version="1.0" encoding="UTF-8" standalone="no"?>
<!DOCTYPE svg PUBLIC "-//W3C//DTD SVG 1.1//EN"
 "http://www.w3.org/Graphics/SVG/1.1/DTD/svg11.dtd">
<!-- Generated by graphviz version 12.0.0 (20240803.0821)
 -->
<!-- Pages: 1 -->
<svg width="2393pt" height="1644pt"
 viewBox="0.00 0.00 2393.34 1644.00" xmlns="http://www.w3.org/2000/svg" xmlns:xlink="http://www.w3.org/1999/xlink">
<g id="graph0" class="graph" transform="scale(1 1) rotate(0) translate(4 1640)">
<polygon fill="white" stroke="none" points="-4,4 -4,-1640 2389.34,-1640 2389.34,4 -4,4"/>
<!-- arrow&#45;cpp -->
<g id="node1" class="node">
<title>arrow&#45;cpp</title>
<g id="a_node1"><a xlink:href="https://github.com/conda-forge/arrow-cpp-feedstock/pull/1548" xlink:title="arrow cpp ❎">
<ellipse fill="#31688e" stroke="black" cx="108.06" cy="-1330" rx="76.99" ry="18"/>
<text text-anchor="middle" x="108.06" y="-1325.33" font-family="Times,serif" font-size="14.00" fill="white">arrow cpp ❎</text>
</a>
</g>
</g>
<!-- ray&#45;packages -->
<g id="node2" class="node">
<title>ray&#45;packages</title>
<g id="a_node2"><a xlink:href="https://github.com/conda-forge/ray-packages-feedstock" xlink:title="ray packages">
<ellipse fill="#fde725" stroke="black" cx="764.06" cy="-1258" rx="76.99" ry="18"/>
<text text-anchor="middle" x="764.06" y="-1253.33" font-family="Times,serif" font-size="14.00">ray packages</text>
</a>
</g>
</g>
<!-- arrow&#45;cpp&#45;&gt;ray&#45;packages -->
<g id="edge1" class="edge">
<title>arrow&#45;cpp&#45;&gt;ray&#45;packages</title>
<path fill="none" stroke="black" d="M162.95,-1317.12C173.25,-1315.19 183.95,-1313.37 194.06,-1312 407.81,-1283.03 464.31,-1304.97 678.06,-1276 684.53,-1275.12 691.25,-1274.06 697.95,-1272.9"/>
<polygon fill="black" stroke="black" points="698.46,-1276.37 707.68,-1271.15 697.22,-1269.48 698.46,-1276.37"/>
</g>
<!-- datafusion -->
<g id="node3" class="node">
<title>datafusion</title>
<g id="a_node3"><a xlink:href="https://github.com/conda-forge/datafusion-feedstock" xlink:title="datafusion">
<ellipse fill="#fde725" stroke="black" cx="200.06" cy="-1258" rx="63.84" ry="18"/>
<text text-anchor="middle" x="200.06" y="-1253.33" font-family="Times,serif" font-size="14.00">datafusion</text>
</a>
</g>
</g>
<!-- arrow&#45;cpp&#45;&gt;datafusion -->
<g id="edge2" class="edge">
<title>arrow&#45;cpp&#45;&gt;datafusion</title>
<path fill="none" stroke="black" d="M129.86,-1312.41C141.75,-1303.37 156.65,-1292.03 169.66,-1282.13"/>
<polygon fill="black" stroke="black" points="171.69,-1284.99 177.53,-1276.14 167.45,-1279.41 171.69,-1284.99"/>
</g>
<!-- arcticdb -->
<g id="node4" class="node">
<title>arcticdb</title>
<g id="a_node4"><a xlink:href="https://github.com/conda-forge/arcticdb-feedstock" xlink:title="arcticdb">
<ellipse fill="#fde725" stroke="black" cx="108.06" cy="-1186" rx="52.26" ry="18"/>
<text text-anchor="middle" x="108.06" y="-1181.33" font-family="Times,serif" font-size="14.00">arcticdb</text>
</a>
</g>
</g>
<!-- arrow&#45;cpp&#45;&gt;arcticdb -->
<g id="edge3" class="edge">
<title>arrow&#45;cpp&#45;&gt;arcticdb</title>
<path fill="none" stroke="black" d="M108.06,-1311.59C108.06,-1287.61 108.06,-1244.14 108.06,-1215.42"/>
<polygon fill="black" stroke="black" points="111.56,-1215.62 108.06,-1205.62 104.56,-1215.62 111.56,-1215.62"/>
</g>
<!-- csp -->
<g id="node5" class="node">
<title>csp</title>
<g id="a_node5"><a xlink:href="https://github.com/conda-forge/csp-feedstock" xlink:title="csp">
<ellipse fill="#fde725" stroke="black" cx="28.06" cy="-1114" rx="28.06" ry="18"/>
<text text-anchor="middle" x="28.06" y="-1109.33" font-family="Times,serif" font-size="14.00">csp</text>
</a>
</g>
</g>
<!-- arrow&#45;cpp&#45;&gt;csp -->
<g id="edge4" class="edge">
<title>arrow&#45;cpp&#45;&gt;csp</title>
<path fill="none" stroke="black" d="M97.97,-1311.78C84.55,-1288.19 60.92,-1244.18 47.06,-1204 40.28,-1184.34 35.45,-1161.37 32.35,-1143.69"/>
<polygon fill="black" stroke="black" points="35.82,-1143.19 30.73,-1133.89 28.91,-1144.33 35.82,-1143.19"/>
</g>
<!-- bazel -->
<g id="node6" class="node">
<title>bazel</title>
<g id="a_node6"><a xlink:href="https://github.com/conda-forge/bazel-feedstock" xlink:title="bazel">
<ellipse fill="#ff8c00" stroke="black" cx="535.55" cy="-854" rx="37.53" ry="18"/>
<text text-anchor="middle" x="535.55" y="-849.33" font-family="Times,serif" font-size="14.00">bazel</text>
</a>
</g>
</g>
<!-- mosh -->
<g id="node7" class="node">
<title>mosh</title>
<g id="a_node7"><a xlink:href="https://github.com/conda-forge/mosh-feedstock" xlink:title="mosh">
<ellipse fill="#35b779" stroke="black" cx="535.55" cy="-782" rx="38.06" ry="18"/>
<text text-anchor="middle" x="535.55" y="-777.33" font-family="Times,serif" font-size="14.00">mosh</text>
</a>
</g>
</g>
<!-- bazel&#45;&gt;mosh -->
<!-- mysql -->
<g id="node8" class="node">
<title>mysql</title>
<g id="a_node8"><a xlink:href="https://github.com/conda-forge/mysql-feedstock/pull/103" xlink:title="mysql ❎">
<ellipse fill="#31688e" stroke="black" cx="535.55" cy="-710" rx="56.47" ry="18"/>
<text text-anchor="middle" x="535.55" y="-705.33" font-family="Times,serif" font-size="14.00" fill="white">mysql ❎</text>
</a>
</g>
</g>
<!-- mosh&#45;&gt;mysql -->
<!-- paraview -->
<g id="node9" class="node">
<title>paraview</title>
<g id="a_node9"><a xlink:href="https://github.com/conda-forge/paraview-feedstock/pull/257" xlink:title="paraview ❎">
<ellipse fill="#31688e" stroke="black" cx="535.55" cy="-638" rx="72.25" ry="18"/>
<text text-anchor="middle" x="535.55" y="-633.33" font-family="Times,serif" font-size="14.00" fill="white">paraview ❎</text>
</a>
</g>
</g>
<!-- mysql&#45;&gt;paraview -->
<!-- qgis -->
<g id="node13" class="node">
<title>qgis</title>
<g id="a_node13"><a xlink:href="https://github.com/conda-forge/qgis-feedstock" xlink:title="qgis">
<ellipse fill="#35b779" stroke="black" cx="535.55" cy="-566" rx="32.27" ry="18"/>
<text text-anchor="middle" x="535.55" y="-561.33" font-family="Times,serif" font-size="14.00">qgis</text>
</a>
</g>
</g>
<!-- paraview&#45;&gt;qgis -->
<!-- opencv -->
<g id="node10" class="node">
<title>opencv</title>
<g id="a_node10"><a xlink:href="https://github.com/conda-forge/opencv-feedstock" xlink:title="opencv">
<ellipse fill="#fde725" stroke="black" cx="602.06" cy="-1330" rx="46.47" ry="18"/>
<text text-anchor="middle" x="602.06" y="-1325.33" font-family="Times,serif" font-size="14.00">opencv</text>
</a>
</g>
</g>
<!-- opencv&#45;&gt;ray&#45;packages -->
<g id="edge8" class="edge">
<title>opencv&#45;&gt;ray&#45;packages</title>
<path fill="none" stroke="black" d="M632.15,-1316C656.33,-1305.55 690.69,-1290.7 718.27,-1278.78"/>
<polygon fill="black" stroke="black" points="719.3,-1282.15 727.09,-1274.97 716.52,-1275.73 719.3,-1282.15"/>
</g>
<!-- imp -->
<g id="node11" class="node">
<title>imp</title>
<g id="a_node11"><a xlink:href="https://github.com/conda-forge/imp-feedstock" xlink:title="imp">
<ellipse fill="#fde725" stroke="black" cx="639.06" cy="-1258" rx="30.16" ry="18"/>
<text text-anchor="middle" x="639.06" y="-1253.33" font-family="Times,serif" font-size="14.00">imp</text>
</a>
</g>
</g>
<!-- opencv&#45;&gt;imp -->
<g id="edge9" class="edge">
<title>opencv&#45;&gt;imp</title>
<path fill="none" stroke="black" d="M611.02,-1312.05C615.26,-1304.03 620.42,-1294.26 625.16,-1285.3"/>
<polygon fill="black" stroke="black" points="628.15,-1287.12 629.73,-1276.65 621.97,-1283.85 628.15,-1287.12"/>
</g>
<!-- gazebo&#45;yarp&#45;plugins -->
<g id="node12" class="node">
<title>gazebo&#45;yarp&#45;plugins</title>
<g id="a_node12"><a xlink:href="https://github.com/conda-forge/gazebo-yarp-plugins-feedstock" xlink:title="gazebo yarp plugins">
<ellipse fill="#fde725" stroke="black" cx="479.06" cy="-1258" rx="112.24" ry="18"/>
<text text-anchor="middle" x="479.06" y="-1253.33" font-family="Times,serif" font-size="14.00">gazebo yarp plugins</text>
</a>
</g>
</g>
<!-- opencv&#45;&gt;gazebo&#45;yarp&#45;plugins -->
<g id="edge10" class="edge">
<title>opencv&#45;&gt;gazebo&#45;yarp&#45;plugins</title>
<path fill="none" stroke="black" d="M576.57,-1314.5C559.75,-1304.92 537.38,-1292.19 518.31,-1281.34"/>
<polygon fill="black" stroke="black" points="520.14,-1278.35 509.72,-1276.45 516.68,-1284.44 520.14,-1278.35"/>
</g>
<!-- tensorflow -->
<g id="node14" class="node">
<title>tensorflow</title>
<g id="a_node14"><a xlink:href="https://github.com/conda-forge/tensorflow-feedstock" xlink:title="tensorflow">
<ellipse fill="#ff8c00" stroke="black" cx="535.55" cy="-494" rx="63.84" ry="18"/>
<text text-anchor="middle" x="535.55" y="-489.32" font-family="Times,serif" font-size="14.00">tensorflow</text>
</a>
</g>
</g>
<!-- qgis&#45;&gt;tensorflow -->
<!-- r&#45;protolite -->
<g id="node16" class="node">
<title>r&#45;protolite</title>
<g id="a_node16"><a xlink:href="https://github.com/conda-forge/r-protolite-feedstock/pull/42" xlink:title="r protolite ❎">
<ellipse fill="#31688e" stroke="black" cx="535.55" cy="-422" rx="77.52" ry="18"/>
<text text-anchor="middle" x="535.55" y="-417.32" font-family="Times,serif" font-size="14.00" fill="white">r protolite ❎</text>
</a>
</g>
</g>
<!-- tensorflow&#45;&gt;r&#45;protolite -->
<!-- pyaudi -->
<g id="node15" class="node">
<title>pyaudi</title>
<g id="a_node15"><a xlink:href="https://github.com/conda-forge/pyaudi-feedstock" xlink:title="pyaudi">
<ellipse fill="#fde725" stroke="black" cx="2031.32" cy="-18" rx="44.9" ry="18"/>
<text text-anchor="middle" x="2031.32" y="-13.32" font-family="Times,serif" font-size="14.00">pyaudi</text>
</a>
</g>
</g>
<!-- mongodb -->
<g id="node17" class="node">
<title>mongodb</title>
<g id="a_node17"><a xlink:href="https://github.com/conda-forge/mongodb-feedstock/pull/97" xlink:title="mongodb ❎">
<ellipse fill="#31688e" stroke="black" cx="535.55" cy="-350" rx="72.78" ry="18"/>
<text text-anchor="middle" x="535.55" y="-345.32" font-family="Times,serif" font-size="14.00" fill="white">mongodb ❎</text>
</a>
</g>
</g>
<!-- r&#45;protolite&#45;&gt;mongodb -->
<!-- go&#45;cockroach -->
<g id="node19" class="node">
<title>go&#45;cockroach</title>
<g id="a_node19"><a xlink:href="https://github.com/conda-forge/go-cockroach-feedstock" xlink:title="go cockroach">
<ellipse fill="#35b779" stroke="black" cx="535.55" cy="-278" rx="76.46" ry="18"/>
<text text-anchor="middle" x="535.55" y="-273.32" font-family="Times,serif" font-size="14.00">go cockroach</text>
</a>
</g>
</g>
<!-- mongodb&#45;&gt;go&#45;cockroach -->
<!-- pytorch&#45;cpu -->
<g id="node18" class="node">
<title>pytorch&#45;cpu</title>
<g id="a_node18"><a xlink:href="https://github.com/conda-forge/pytorch-cpu-feedstock/pull/265" xlink:title="pytorch cpu ❎">
<ellipse fill="#31688e" stroke="black" cx="752.06" cy="-1330" rx="85.93" ry="18"/>
<text text-anchor="middle" x="752.06" y="-1325.33" font-family="Times,serif" font-size="14.00" fill="white">pytorch cpu ❎</text>
</a>
</g>
</g>
<!-- pytorch&#45;cpu&#45;&gt;ray&#45;packages -->
<g id="edge15" class="edge">
<title>pytorch&#45;cpu&#45;&gt;ray&#45;packages</title>
<path fill="none" stroke="black" d="M755.03,-1311.7C756.29,-1304.32 757.8,-1295.52 759.22,-1287.25"/>
<polygon fill="black" stroke="black" points="762.63,-1288.04 760.87,-1277.6 755.73,-1286.86 762.63,-1288.04"/>
</g>
<!-- cartographer -->
<g id="node31" class="node">
<title>cartographer</title>
<g id="a_node31"><a xlink:href="https://github.com/conda-forge/cartographer-feedstock" xlink:title="cartographer">
<ellipse fill="#35b779" stroke="black" cx="535.55" cy="-206" rx="76.99" ry="18"/>
<text text-anchor="middle" x="535.55" y="-201.33" font-family="Times,serif" font-size="14.00">cartographer</text>
</a>
</g>
</g>
<!-- go&#45;cockroach&#45;&gt;cartographer -->
<!-- jaxlib -->
<g id="node20" class="node">
<title>jaxlib</title>
<g id="a_node20"><a xlink:href="https://github.com/conda-forge/jaxlib-feedstock" xlink:title="jaxlib">
<ellipse fill="#ff8c00" stroke="black" cx="878.06" cy="-1402" rx="38.58" ry="18"/>
<text text-anchor="middle" x="878.06" y="-1397.33" font-family="Times,serif" font-size="14.00">jaxlib</text>
</a>
</g>
</g>
<!-- mujoco -->
<g id="node21" class="node">
<title>mujoco</title>
<g id="a_node21"><a xlink:href="https://github.com/conda-forge/mujoco-feedstock" xlink:title="mujoco">
<ellipse fill="#fde725" stroke="black" cx="903.06" cy="-1330" rx="47" ry="18"/>
<text text-anchor="middle" x="903.06" y="-1325.33" font-family="Times,serif" font-size="14.00">mujoco</text>
</a>
</g>
</g>
<!-- jaxlib&#45;&gt;mujoco -->
<g id="edge17" class="edge">
<title>jaxlib&#45;&gt;mujoco</title>
<path fill="none" stroke="black" d="M884.11,-1384.05C886.8,-1376.52 890.05,-1367.44 893.08,-1358.94"/>
<polygon fill="black" stroke="black" points="896.31,-1360.3 896.38,-1349.7 889.72,-1357.94 896.31,-1360.3"/>
</g>
<!-- mujoco&#45;&gt;ray&#45;packages -->
<g id="edge18" class="edge">
<title>mujoco&#45;&gt;ray&#45;packages</title>
<path fill="none" stroke="black" d="M875.26,-1315C855.2,-1304.9 827.78,-1291.09 805.19,-1279.71"/>
<polygon fill="black" stroke="black" points="807.05,-1276.73 796.55,-1275.36 803.91,-1282.99 807.05,-1276.73"/>
</g>
<!-- obake -->
<g id="node22" class="node">
<title>obake</title>
<g id="a_node22"><a xlink:href="https://github.com/conda-forge/obake-feedstock/pull/49" xlink:title="obake ❎">
<ellipse fill="#31688e" stroke="black" cx="2031.32" cy="-90" rx="55.94" ry="18"/>
<text text-anchor="middle" x="2031.32" y="-85.33" font-family="Times,serif" font-size="14.00" fill="white">obake ❎</text>
</a>
</g>
</g>
<!-- obake&#45;&gt;pyaudi -->
<g id="edge19" class="edge">
<title>obake&#45;&gt;pyaudi</title>
<path fill="none" stroke="black" d="M2031.32,-71.7C2031.32,-64.41 2031.32,-55.73 2031.32,-47.54"/>
<polygon fill="black" stroke="black" points="2034.82,-47.62 2031.32,-37.62 2027.82,-47.62 2034.82,-47.62"/>
</g>
<!-- libignition&#45;transport4 -->
<g id="node23" class="node">
<title>libignition&#45;transport4</title>
<g id="a_node23"><a xlink:href="https://github.com/conda-forge/libignition-transport4-feedstock" xlink:title="libignition transport4">
<ellipse fill="#35b779" stroke="black" cx="2209.02" cy="-1366" rx="119.08" ry="18"/>
<text text-anchor="middle" x="2209.02" y="-1361.33" font-family="Times,serif" font-size="14.00">libignition transport4</text>
</a>
</g>
</g>
<!-- libignition&#45;sensors -->
<g id="node24" class="node">
<title>libignition&#45;sensors</title>
<g id="a_node24"><a xlink:href="https://github.com/conda-forge/libignition-sensors-feedstock" xlink:title="libignition sensors">
<ellipse fill="#fde725" stroke="black" cx="2023.02" cy="-1294" rx="103.82" ry="18"/>
<text text-anchor="middle" x="2023.02" y="-1289.33" font-family="Times,serif" font-size="14.00">libignition sensors</text>
</a>
</g>
</g>
<!-- libignition&#45;transport4&#45;&gt;libignition&#45;sensors -->
<g id="edge20" class="edge">
<title>libignition&#45;transport4&#45;&gt;libignition&#45;sensors</title>
<path fill="none" stroke="black" d="M2165.88,-1348.76C2139.04,-1338.67 2104.34,-1325.61 2075.86,-1314.89"/>
<polygon fill="black" stroke="black" points="2077.29,-1311.69 2066.7,-1311.44 2074.82,-1318.24 2077.29,-1311.69"/>
</g>
<!-- libignition&#45;gui -->
<g id="node25" class="node">
<title>libignition&#45;gui</title>
<g id="a_node25"><a xlink:href="https://github.com/conda-forge/libignition-gui-feedstock" xlink:title="libignition gui">
<ellipse fill="#fde725" stroke="black" cx="2264.02" cy="-1294" rx="81.2" ry="18"/>
<text text-anchor="middle" x="2264.02" y="-1289.33" font-family="Times,serif" font-size="14.00">libignition gui</text>
</a>
</g>
</g>
<!-- libignition&#45;transport4&#45;&gt;libignition&#45;gui -->
<g id="edge21" class="edge">
<title>libignition&#45;transport4&#45;&gt;libignition&#45;gui</title>
<path fill="none" stroke="black" d="M2222.61,-1347.7C2228.94,-1339.64 2236.6,-1329.89 2243.6,-1320.98"/>
<polygon fill="black" stroke="black" points="2246.22,-1323.32 2249.64,-1313.29 2240.71,-1319 2246.22,-1323.32"/>
</g>
<!-- libignition&#45;gazebo -->
<g id="node26" class="node">
<title>libignition&#45;gazebo</title>
<g id="a_node26"><a xlink:href="https://github.com/conda-forge/libignition-gazebo-feedstock" xlink:title="libignition gazebo">
<ellipse fill="#fde725" stroke="black" cx="2145.02" cy="-1222" rx="100.66" ry="18"/>
<text text-anchor="middle" x="2145.02" y="-1217.33" font-family="Times,serif" font-size="14.00">libignition gazebo</text>
</a>
</g>
</g>
<!-- libignition&#45;transport4&#45;&gt;libignition&#45;gazebo -->
<g id="edge22" class="edge">
<title>libignition&#45;transport4&#45;&gt;libignition&#45;gazebo</title>
<path fill="none" stroke="black" d="M2196.12,-1348.03C2188.9,-1337.96 2180.15,-1324.71 2174.02,-1312 2164.58,-1292.43 2157.09,-1269.02 2152.09,-1251.13"/>
<polygon fill="black" stroke="black" points="2155.53,-1250.47 2149.56,-1241.72 2148.77,-1252.28 2155.53,-1250.47"/>
</g>
<!-- libignition&#45;launch -->
<g id="node27" class="node">
<title>libignition&#45;launch</title>
<g id="a_node27"><a xlink:href="https://github.com/conda-forge/libignition-launch-feedstock" xlink:title="libignition launch">
<ellipse fill="#fde725" stroke="black" cx="2274.02" cy="-1150" rx="98.56" ry="18"/>
<text text-anchor="middle" x="2274.02" y="-1145.33" font-family="Times,serif" font-size="14.00">libignition launch</text>
</a>
</g>
</g>
<!-- libignition&#45;transport4&#45;&gt;libignition&#45;launch -->
<g id="edge23" class="edge">
<title>libignition&#45;transport4&#45;&gt;libignition&#45;launch</title>
<path fill="none" stroke="black" d="M2292.76,-1352.87C2316.44,-1345.14 2339.66,-1332.54 2354.02,-1312 2385.34,-1267.2 2336.35,-1208.33 2302.29,-1175.62"/>
<polygon fill="black" stroke="black" points="2304.81,-1173.19 2295.11,-1168.93 2300.03,-1178.31 2304.81,-1173.19"/>
</g>
<!-- libignition&#45;sensors&#45;&gt;libignition&#45;gazebo -->
<g id="edge24" class="edge">
<title>libignition&#45;sensors&#45;&gt;libignition&#45;gazebo</title>
<path fill="none" stroke="black" d="M2051.93,-1276.41C2068.07,-1267.15 2088.4,-1255.49 2105.94,-1245.42"/>
<polygon fill="black" stroke="black" points="2107.65,-1248.48 2114.58,-1240.47 2104.16,-1242.41 2107.65,-1248.48"/>
</g>
<!-- libignition&#45;gui&#45;&gt;libignition&#45;gazebo -->
<g id="edge25" class="edge">
<title>libignition&#45;gui&#45;&gt;libignition&#45;gazebo</title>
<path fill="none" stroke="black" d="M2236.42,-1276.76C2220.58,-1267.45 2200.45,-1255.61 2183.12,-1245.41"/>
<polygon fill="black" stroke="black" points="2184.99,-1242.45 2174.6,-1240.4 2181.44,-1248.49 2184.99,-1242.45"/>
</g>
<!-- libignition&#45;gui&#45;&gt;libignition&#45;launch -->
<g id="edge26" class="edge">
<title>libignition&#45;gui&#45;&gt;libignition&#45;launch</title>
<path fill="none" stroke="black" d="M2265.24,-1275.59C2266.93,-1251.61 2269.99,-1208.14 2272.02,-1179.42"/>
<polygon fill="black" stroke="black" points="2275.49,-1179.84 2272.71,-1169.62 2268.51,-1179.35 2275.49,-1179.84"/>
</g>
<!-- libignition&#45;gazebo&#45;&gt;libignition&#45;launch -->
<g id="edge27" class="edge">
<title>libignition&#45;gazebo&#45;&gt;libignition&#45;launch</title>
<path fill="none" stroke="black" d="M2175.59,-1204.41C2192.94,-1195 2214.87,-1183.1 2233.62,-1172.92"/>
<polygon fill="black" stroke="black" points="2235.22,-1176.04 2242.34,-1168.19 2231.88,-1169.89 2235.22,-1176.04"/>
</g>
<!-- gazebo -->
<g id="node28" class="node">
<title>gazebo</title>
<g id="a_node28"><a xlink:href="https://github.com/conda-forge/gazebo-feedstock" xlink:title="gazebo">
<ellipse fill="#35b779" stroke="black" cx="491.06" cy="-1330" rx="46.47" ry="18"/>
<text text-anchor="middle" x="491.06" y="-1325.33" font-family="Times,serif" font-size="14.00">gazebo</text>
</a>
</g>
</g>
<!-- gazebo&#45;&gt;gazebo&#45;yarp&#45;plugins -->
<g id="edge28" class="edge">
<title>gazebo&#45;&gt;gazebo&#45;yarp&#45;plugins</title>
<path fill="none" stroke="black" d="M488.09,-1311.7C486.83,-1304.32 485.32,-1295.52 483.9,-1287.25"/>
<polygon fill="black" stroke="black" points="487.39,-1286.86 482.25,-1277.6 480.49,-1288.04 487.39,-1286.86"/>
</g>
<!-- libignition&#45;fuel&#45;tools -->
<g id="node29" class="node">
<title>libignition&#45;fuel&#45;tools</title>
<g id="a_node29"><a xlink:href="https://github.com/conda-forge/libignition-fuel-tools-feedstock" xlink:title="libignition fuel tools">
<ellipse fill="#35b779" stroke="black" cx="1789.02" cy="-1294" rx="111.71" ry="18"/>
<text text-anchor="middle" x="1789.02" y="-1289.33" font-family="Times,serif" font-size="14.00">libignition fuel tools</text>
</a>
</g>
</g>
<!-- libignition&#45;fuel&#45;tools&#45;&gt;libignition&#45;gazebo -->
<g id="edge29" class="edge">
<title>libignition&#45;fuel&#45;tools&#45;&gt;libignition&#45;gazebo</title>
<path fill="none" stroke="black" d="M1858.08,-1279.42C1918.36,-1267.57 2005.71,-1250.39 2068.18,-1238.11"/>
<polygon fill="black" stroke="black" points="2068.53,-1241.61 2077.67,-1236.24 2067.18,-1234.74 2068.53,-1241.61"/>
</g>
<!-- google&#45;cloud&#45;cpp -->
<g id="node30" class="node">
<title>google&#45;cloud&#45;cpp</title>
<g id="a_node30"><a xlink:href="https://github.com/conda-forge/google-cloud-cpp-feedstock" xlink:title="google cloud cpp">
<ellipse fill="#fde725" stroke="black" cx="1357.61" cy="-386" rx="95.4" ry="18"/>
<text text-anchor="middle" x="1357.61" y="-381.32" font-family="Times,serif" font-size="14.00">google cloud cpp</text>
</a>
</g>
</g>
<!-- tomviz -->
<g id="node32" class="node">
<title>tomviz</title>
<g id="a_node32"><a xlink:href="https://github.com/conda-forge/tomviz-feedstock" xlink:title="tomviz">
<ellipse fill="#35b779" stroke="black" cx="535.55" cy="-134" rx="44.9" ry="18"/>
<text text-anchor="middle" x="535.55" y="-129.32" font-family="Times,serif" font-size="14.00">tomviz</text>
</a>
</g>
</g>
<!-- cartographer&#45;&gt;tomviz -->
<!-- sentencepiece -->
<g id="node33" class="node">
<title>sentencepiece</title>
<g id="a_node33"><a xlink:href="https://github.com/conda-forge/sentencepiece-feedstock/pull/55" xlink:title="sentencepiece ❎">
<ellipse fill="#31688e" stroke="black" cx="315.06" cy="-1402" rx="97.51" ry="18"/>
<text text-anchor="middle" x="315.06" y="-1397.33" font-family="Times,serif" font-size="14.00" fill="white">sentencepiece ❎</text>
</a>
</g>
</g>
<!-- openvino&#45;tokenizers -->
<g id="node34" class="node">
<title>openvino&#45;tokenizers</title>
<g id="a_node34"><a xlink:href="https://github.com/conda-forge/openvino-tokenizers-feedstock" xlink:title="openvino tokenizers">
<ellipse fill="#fde725" stroke="black" cx="315.06" cy="-1330" rx="111.71" ry="18"/>
<text text-anchor="middle" x="315.06" y="-1325.33" font-family="Times,serif" font-size="14.00">openvino tokenizers</text>
</a>
</g>
</g>
<!-- sentencepiece&#45;&gt;openvino&#45;tokenizers -->
<g id="edge32" class="edge">
<title>sentencepiece&#45;&gt;openvino&#45;tokenizers</title>
<path fill="none" stroke="black" d="M315.06,-1383.7C315.06,-1376.41 315.06,-1367.73 315.06,-1359.54"/>
<polygon fill="black" stroke="black" points="318.56,-1359.62 315.06,-1349.62 311.56,-1359.62 318.56,-1359.62"/>
</g>
<!-- s2geometry -->
<g id="node35" class="node">
<title>s2geometry</title>
<g id="a_node35"><a xlink:href="https://github.com/conda-forge/s2geometry-feedstock/pull/21" xlink:title="s2geometry ✓">
<ellipse fill="#31688e" stroke="black" cx="1374.2" cy="-90" rx="78.57" ry="18"/>
<text text-anchor="middle" x="1374.2" y="-85.33" font-family="Times,serif" font-size="14.00" fill="white">s2geometry ✓</text>
</a>
</g>
</g>
<!-- s2geography -->
<g id="node36" class="node">
<title>s2geography</title>
<g id="a_node36"><a xlink:href="https://github.com/conda-forge/s2geography-feedstock" xlink:title="s2geography">
<ellipse fill="#fde725" stroke="black" cx="1374.2" cy="-18" rx="75.94" ry="18"/>
<text text-anchor="middle" x="1374.2" y="-13.32" font-family="Times,serif" font-size="14.00">s2geography</text>
</a>
</g>
</g>
<!-- s2geometry&#45;&gt;s2geography -->
<g id="edge33" class="edge">
<title>s2geometry&#45;&gt;s2geography</title>
<path fill="none" stroke="black" d="M1374.2,-71.7C1374.2,-64.41 1374.2,-55.73 1374.2,-47.54"/>
<polygon fill="black" stroke="black" points="1377.7,-47.62 1374.2,-37.62 1370.7,-47.62 1377.7,-47.62"/>
</g>
<!-- grpc_java_plugin -->
<g id="node37" class="node">
<title>grpc_java_plugin</title>
<g id="a_node37"><a xlink:href="https://github.com/conda-forge/grpc_java_plugin-feedstock" xlink:title="grpc_java_plugin">
<ellipse fill="#000000" stroke="black" cx="1374.2" cy="-1618" rx="95.4" ry="18"/>
<text text-anchor="middle" x="1374.2" y="-1613.33" font-family="Times,serif" font-size="14.00" fill="white">grpc_java_plugin</text>
</a>
</g>
</g>
<!-- or&#45;tools -->
<g id="node38" class="node">
<title>or&#45;tools</title>
<g id="a_node38"><a xlink:href="https://github.com/conda-forge/or-tools-feedstock/pull/62" xlink:title="or tools ❎">
<ellipse fill="#31688e" stroke="black" cx="1374.2" cy="-1546" rx="64.36" ry="18"/>
<text text-anchor="middle" x="1374.2" y="-1541.33" font-family="Times,serif" font-size="14.00" fill="white">or tools ❎</text>
</a>
</g>
</g>
<!-- grpc_java_plugin&#45;&gt;or&#45;tools -->
<!-- bear -->
<g id="node39" class="node">
<title>bear</title>
<g id="a_node39"><a xlink:href="https://github.com/conda-forge/bear-feedstock" xlink:title="bear">
<ellipse fill="#35b779" stroke="black" cx="1374.2" cy="-1474" rx="33.85" ry="18"/>
<text text-anchor="middle" x="1374.2" y="-1469.33" font-family="Times,serif" font-size="14.00">bear</text>
</a>
</g>
</g>
<!-- or&#45;tools&#45;&gt;bear -->
<!-- cpp&#45;opentelemetry&#45;sdk -->
<g id="node40" class="node">
<title>cpp&#45;opentelemetry&#45;sdk</title>
<g id="a_node40"><a xlink:href="https://github.com/conda-forge/cpp-opentelemetry-sdk-feedstock" xlink:title="cpp opentelemetry sdk">
<ellipse fill="#35b779" stroke="black" cx="1374.2" cy="-1402" rx="125.92" ry="18"/>
<text text-anchor="middle" x="1374.2" y="-1397.33" font-family="Times,serif" font-size="14.00">cpp opentelemetry sdk</text>
</a>
</g>
</g>
<!-- bear&#45;&gt;cpp&#45;opentelemetry&#45;sdk -->
<!-- xilinx&#45;runtime -->
<g id="node41" class="node">
<title>xilinx&#45;runtime</title>
<g id="a_node41"><a xlink:href="https://github.com/conda-forge/xilinx-runtime-feedstock" xlink:title="xilinx runtime">
<ellipse fill="#35b779" stroke="black" cx="1374.2" cy="-1330" rx="81.72" ry="18"/>
<text text-anchor="middle" x="1374.2" y="-1325.33" font-family="Times,serif" font-size="14.00">xilinx runtime</text>
</a>
</g>
</g>
<!-- cpp&#45;opentelemetry&#45;sdk&#45;&gt;xilinx&#45;runtime -->
<!-- gnss&#45;sdr -->
<g id="node42" class="node">
<title>gnss&#45;sdr</title>
<g id="a_node42"><a xlink:href="https://github.com/conda-forge/gnss-sdr-feedstock" xlink:title="gnss sdr">
<ellipse fill="#35b779" stroke="black" cx="1374.2" cy="-1258" rx="53.84" ry="18"/>
<text text-anchor="middle" x="1374.2" y="-1253.33" font-family="Times,serif" font-size="14.00">gnss sdr</text>
</a>
</g>
</g>
<!-- xilinx&#45;runtime&#45;&gt;gnss&#45;sdr -->
<!-- tensorstore -->
<g id="node52" class="node">
<title>tensorstore</title>
<g id="a_node52"><a xlink:href="https://github.com/conda-forge/tensorstore-feedstock/pull/42" xlink:title="tensorstore ✓">
<ellipse fill="#31688e" stroke="black" cx="1374.2" cy="-1186" rx="76.99" ry="18"/>
<text text-anchor="middle" x="1374.2" y="-1181.33" font-family="Times,serif" font-size="14.00" fill="white">tensorstore ✓</text>
</a>
</g>
</g>
<!-- gnss&#45;sdr&#45;&gt;tensorstore -->
<!-- gz&#45;transport -->
<g id="node43" class="node">
<title>gz&#45;transport</title>
<g id="a_node43"><a xlink:href="https://github.com/conda-forge/gz-transport-feedstock" xlink:title="gz transport">
<ellipse fill="#35b779" stroke="black" cx="2090" cy="-602" rx="73.3" ry="18"/>
<text text-anchor="middle" x="2090" y="-597.33" font-family="Times,serif" font-size="14.00">gz transport</text>
</a>
</g>
</g>
<!-- gz&#45;gui -->
<g id="node44" class="node">
<title>gz&#45;gui</title>
<g id="a_node44"><a xlink:href="https://github.com/conda-forge/gz-gui-feedstock" xlink:title="gz gui">
<ellipse fill="#fde725" stroke="black" cx="1858" cy="-530" rx="41.74" ry="18"/>
<text text-anchor="middle" x="1858" y="-525.33" font-family="Times,serif" font-size="14.00">gz gui</text>
</a>
</g>
</g>
<!-- gz&#45;transport&#45;&gt;gz&#45;gui -->
<g id="edge39" class="edge">
<title>gz&#45;transport&#45;&gt;gz&#45;gui</title>
<path fill="none" stroke="black" d="M2042.98,-587.75C2006.36,-577.3 1954.31,-562.18 1909,-548 1906.31,-547.16 1903.55,-546.28 1900.76,-545.38"/>
<polygon fill="black" stroke="black" points="1902.08,-542.13 1891.48,-542.35 1899.9,-548.78 1902.08,-542.13"/>
</g>
<!-- gz&#45;sensors -->
<g id="node45" class="node">
<title>gz&#45;sensors</title>
<g id="a_node45"><a xlink:href="https://github.com/conda-forge/gz-sensors-feedstock" xlink:title="gz sensors">
<ellipse fill="#fde725" stroke="black" cx="2182" cy="-530" rx="64.36" ry="18"/>
<text text-anchor="middle" x="2182" y="-525.33" font-family="Times,serif" font-size="14.00">gz sensors</text>
</a>
</g>
</g>
<!-- gz&#45;transport&#45;&gt;gz&#45;sensors -->
<g id="edge40" class="edge">
<title>gz&#45;transport&#45;&gt;gz&#45;sensors</title>
<path fill="none" stroke="black" d="M2111.8,-584.41C2123.69,-575.37 2138.59,-564.03 2151.6,-554.13"/>
<polygon fill="black" stroke="black" points="2153.63,-556.99 2159.47,-548.14 2149.39,-551.41 2153.63,-556.99"/>
</g>
<!-- gz&#45;sim -->
<g id="node46" class="node">
<title>gz&#45;sim</title>
<g id="a_node46"><a xlink:href="https://github.com/conda-forge/gz-sim-feedstock" xlink:title="gz sim">
<ellipse fill="#fde725" stroke="black" cx="2040" cy="-458" rx="43.84" ry="18"/>
<text text-anchor="middle" x="2040" y="-453.32" font-family="Times,serif" font-size="14.00">gz sim</text>
</a>
</g>
</g>
<!-- gz&#45;transport&#45;&gt;gz&#45;sim -->
<g id="edge41" class="edge">
<title>gz&#45;transport&#45;&gt;gz&#45;sim</title>
<path fill="none" stroke="black" d="M2087.99,-583.8C2085.47,-565.53 2080.31,-536.01 2071,-512 2067.44,-502.81 2062.41,-493.35 2057.44,-485.01"/>
<polygon fill="black" stroke="black" points="2060.56,-483.41 2052.3,-476.77 2054.62,-487.11 2060.56,-483.41"/>
</g>
<!-- gz&#45;launch -->
<g id="node47" class="node">
<title>gz&#45;launch</title>
<g id="a_node47"><a xlink:href="https://github.com/conda-forge/gz-launch-feedstock" xlink:title="gz launch">
<ellipse fill="#fde725" stroke="black" cx="1858" cy="-386" rx="59.1" ry="18"/>
<text text-anchor="middle" x="1858" y="-381.32" font-family="Times,serif" font-size="14.00">gz launch</text>
</a>
</g>
</g>
<!-- gz&#45;transport&#45;&gt;gz&#45;launch -->
<g id="edge42" class="edge">
<title>gz&#45;transport&#45;&gt;gz&#45;launch</title>
<path fill="none" stroke="black" d="M2018.47,-597.72C1943.62,-592.61 1833.38,-579.78 1807,-548 1773.96,-508.2 1810.68,-446.8 1836.7,-412.47"/>
<polygon fill="black" stroke="black" points="1839.35,-414.76 1842.76,-404.73 1833.83,-410.45 1839.35,-414.76"/>
</g>
<!-- gz&#45;sim&#45;yarp&#45;plugins -->
<g id="node48" class="node">
<title>gz&#45;sim&#45;yarp&#45;plugins</title>
<g id="a_node48"><a xlink:href="https://github.com/conda-forge/gz-sim-yarp-plugins-feedstock" xlink:title="gz sim yarp plugins">
<ellipse fill="#fde725" stroke="black" cx="2160" cy="-386" rx="109.61" ry="18"/>
<text text-anchor="middle" x="2160" y="-381.32" font-family="Times,serif" font-size="14.00">gz sim yarp plugins</text>
</a>
</g>
</g>
<!-- gz&#45;transport&#45;&gt;gz&#45;sim&#45;yarp&#45;plugins -->
<g id="edge43" class="edge">
<title>gz&#45;transport&#45;&gt;gz&#45;sim&#45;yarp&#45;plugins</title>
<path fill="none" stroke="black" d="M2160.94,-596.94C2195.2,-590.98 2233.46,-577.54 2255,-548 2288.69,-501.8 2231.02,-442.94 2191.78,-410.72"/>
<polygon fill="black" stroke="black" points="2194.41,-408.35 2184.42,-404.83 2190.04,-413.82 2194.41,-408.35"/>
</g>
<!-- gz&#45;gui&#45;&gt;gz&#45;sim -->
<g id="edge44" class="edge">
<title>gz&#45;gui&#45;&gt;gz&#45;sim</title>
<path fill="none" stroke="black" d="M1888.46,-517.28C1918.6,-505.69 1964.94,-487.87 1998.44,-474.99"/>
<polygon fill="black" stroke="black" points="1999.34,-478.39 2007.42,-471.53 1996.83,-471.86 1999.34,-478.39"/>
</g>
<!-- gz&#45;gui&#45;&gt;gz&#45;launch -->
<g id="edge45" class="edge">
<title>gz&#45;gui&#45;&gt;gz&#45;launch</title>
<path fill="none" stroke="black" d="M1858,-511.59C1858,-487.61 1858,-444.14 1858,-415.42"/>
<polygon fill="black" stroke="black" points="1861.5,-415.62 1858,-405.62 1854.5,-415.62 1861.5,-415.62"/>
</g>
<!-- gz&#45;sensors&#45;&gt;gz&#45;sim -->
<g id="edge46" class="edge">
<title>gz&#45;sensors&#45;&gt;gz&#45;sim</title>
<path fill="none" stroke="black" d="M2151.19,-513.81C2129.54,-503.14 2100.47,-488.81 2077.48,-477.48"/>
<polygon fill="black" stroke="black" points="2079.27,-474.45 2068.75,-473.17 2076.17,-480.73 2079.27,-474.45"/>
</g>
<!-- gz&#45;sim&#45;&gt;gz&#45;launch -->
<g id="edge47" class="edge">
<title>gz&#45;sim&#45;&gt;gz&#45;launch</title>
<path fill="none" stroke="black" d="M2008.71,-444.97C1979.95,-433.9 1936.94,-417.36 1904.22,-404.77"/>
<polygon fill="black" stroke="black" points="1905.55,-401.54 1894.96,-401.22 1903.04,-408.07 1905.55,-401.54"/>
</g>
<!-- gz&#45;sim&#45;&gt;gz&#45;sim&#45;yarp&#45;plugins -->
<g id="edge48" class="edge">
<title>gz&#45;sim&#45;&gt;gz&#45;sim&#45;yarp&#45;plugins</title>
<path fill="none" stroke="black" d="M2064.57,-442.67C2080.96,-433.1 2102.85,-420.34 2121.53,-409.44"/>
<polygon fill="black" stroke="black" points="2123.06,-412.6 2129.93,-404.54 2119.53,-406.56 2123.06,-412.6"/>
</g>
<!-- gz&#45;fuel&#45;tools -->
<g id="node49" class="node">
<title>gz&#45;fuel&#45;tools</title>
<g id="a_node49"><a xlink:href="https://github.com/conda-forge/gz-fuel-tools-feedstock" xlink:title="gz fuel tools">
<ellipse fill="#35b779" stroke="black" cx="1990" cy="-530" rx="72.25" ry="18"/>
<text text-anchor="middle" x="1990" y="-525.33" font-family="Times,serif" font-size="14.00">gz fuel tools</text>
</a>
</g>
</g>
<!-- gz&#45;fuel&#45;tools&#45;&gt;gz&#45;sim -->
<g id="edge49" class="edge">
<title>gz&#45;fuel&#45;tools&#45;&gt;gz&#45;sim</title>
<path fill="none" stroke="black" d="M2002.1,-512.05C2007.88,-503.97 2014.91,-494.12 2021.35,-485.11"/>
<polygon fill="black" stroke="black" points="2024.16,-487.19 2027.13,-477.02 2018.47,-483.12 2024.16,-487.19"/>
</g>
<!-- labmaze -->
<g id="node50" class="node">
<title>labmaze</title>
<g id="a_node50"><a xlink:href="https://github.com/conda-forge/labmaze-feedstock/pull/14" xlink:title="labmaze ❎">
<ellipse fill="#31688e" stroke="black" cx="1003.06" cy="-1402" rx="68.04" ry="18"/>
<text text-anchor="middle" x="1003.06" y="-1397.33" font-family="Times,serif" font-size="14.00" fill="white">labmaze ❎</text>
</a>
</g>
</g>
<!-- labmaze&#45;&gt;ray&#45;packages -->
<g id="edge50" class="edge">
<title>labmaze&#45;&gt;ray&#45;packages</title>
<path fill="none" stroke="black" d="M999.06,-1383.56C993.52,-1363.37 981.55,-1330.51 959.06,-1312 927.75,-1286.23 884.95,-1272.93 847.43,-1266.09"/>
<polygon fill="black" stroke="black" points="848.43,-1262.71 837.99,-1264.5 847.27,-1269.61 848.43,-1262.71"/>
</g>
<!-- openvino -->
<g id="node51" class="node">
<title>openvino</title>
<g id="a_node51"><a xlink:href="https://github.com/conda-forge/openvino-feedstock/pull/106" xlink:title="openvino ❎">
<ellipse fill="#31688e" stroke="black" cx="552.06" cy="-1402" rx="71.73" ry="18"/>
<text text-anchor="middle" x="552.06" y="-1397.33" font-family="Times,serif" font-size="14.00" fill="white">openvino ❎</text>
</a>
</g>
</g>
<!-- openvino&#45;&gt;opencv -->
<g id="edge51" class="edge">
<title>openvino&#45;&gt;opencv</title>
<path fill="none" stroke="black" d="M564.16,-1384.05C569.94,-1375.97 576.97,-1366.12 583.41,-1357.11"/>
<polygon fill="black" stroke="black" points="586.22,-1359.19 589.19,-1349.02 580.53,-1355.12 586.22,-1359.19"/>
</g>
<!-- openvino&#45;&gt;openvino&#45;tokenizers -->
<g id="edge52" class="edge">
<title>openvino&#45;&gt;openvino&#45;tokenizers</title>
<path fill="none" stroke="black" d="M506.92,-1387.67C470.39,-1376.88 418.51,-1361.55 377.9,-1349.56"/>
<polygon fill="black" stroke="black" points="379.07,-1346.26 368.49,-1346.78 377.09,-1352.97 379.07,-1346.26"/>
</g>
<!-- gcld3 -->
<g id="node53" class="node">
<title>gcld3</title>
<g id="a_node53"><a xlink:href="https://github.com/conda-forge/gcld3-feedstock" xlink:title="gcld3">
<ellipse fill="#35b779" stroke="black" cx="1374.2" cy="-1114" rx="38.58" ry="18"/>
<text text-anchor="middle" x="1374.2" y="-1109.33" font-family="Times,serif" font-size="14.00">gcld3</text>
</a>
</g>
</g>
<!-- tensorstore&#45;&gt;gcld3 -->
<!-- bloaty -->
<g id="node54" class="node">
<title>bloaty</title>
<g id="a_node54"><a xlink:href="https://github.com/conda-forge/bloaty-feedstock" xlink:title="bloaty">
<ellipse fill="#35b779" stroke="black" cx="1374.2" cy="-1042" rx="42.26" ry="18"/>
<text text-anchor="middle" x="1374.2" y="-1037.33" font-family="Times,serif" font-size="14.00">bloaty</text>
</a>
</g>
</g>
<!-- gcld3&#45;&gt;bloaty -->
<!-- bfiocpp -->
<g id="node55" class="node">
<title>bfiocpp</title>
<g id="a_node55"><a xlink:href="https://github.com/conda-forge/bfiocpp-feedstock/pull/9" xlink:title="bfiocpp ❎">
<ellipse fill="#31688e" stroke="black" cx="1374.2" cy="-970" rx="62.78" ry="18"/>
<text text-anchor="middle" x="1374.2" y="-965.33" font-family="Times,serif" font-size="14.00" fill="white">bfiocpp ❎</text>
</a>
</g>
</g>
<!-- bloaty&#45;&gt;bfiocpp -->
<!-- protobuf&#45;c -->
<g id="node59" class="node">
<title>protobuf&#45;c</title>
<g id="a_node59"><a xlink:href="https://github.com/conda-forge/protobuf-c-feedstock" xlink:title="protobuf c">
<ellipse fill="#35b779" stroke="black" cx="1374.2" cy="-898" rx="62.78" ry="18"/>
<text text-anchor="middle" x="1374.2" y="-893.33" font-family="Times,serif" font-size="14.00">protobuf c</text>
</a>
</g>
</g>
<!-- bfiocpp&#45;&gt;protobuf&#45;c -->
<!-- google&#45;cloud&#45;cpp&#45;compute -->
<g id="node56" class="node">
<title>google&#45;cloud&#45;cpp&#45;compute</title>
<g id="a_node56"><a xlink:href="https://github.com/conda-forge/google-cloud-cpp-compute-feedstock" xlink:title="google cloud cpp compute">
<ellipse fill="#35b779" stroke="black" cx="1527.61" cy="-458" rx="141.7" ry="18"/>
<text text-anchor="middle" x="1527.61" y="-453.32" font-family="Times,serif" font-size="14.00">google cloud cpp compute</text>
</a>
</g>
</g>
<!-- google&#45;cloud&#45;cpp&#45;compute&#45;&gt;google&#45;cloud&#45;cpp -->
<g id="edge57" class="edge">
<title>google&#45;cloud&#45;cpp&#45;compute&#45;&gt;google&#45;cloud&#45;cpp</title>
<path fill="none" stroke="black" d="M1487.32,-440.41C1463.18,-430.47 1432.31,-417.76 1406.74,-407.23"/>
<polygon fill="black" stroke="black" points="1408.12,-404.02 1397.54,-403.44 1405.46,-410.49 1408.12,-404.02"/>
</g>
<!-- google&#45;cloud&#45;cpp&#45;bigquery -->
<g id="node57" class="node">
<title>google&#45;cloud&#45;cpp&#45;bigquery</title>
<g id="a_node57"><a xlink:href="https://github.com/conda-forge/google-cloud-cpp-bigquery-feedstock" xlink:title="google cloud cpp bigquery">
<ellipse fill="#35b779" stroke="black" cx="1357.61" cy="-530" rx="143.28" ry="18"/>
<text text-anchor="middle" x="1357.61" y="-525.33" font-family="Times,serif" font-size="14.00">google cloud cpp bigquery</text>
</a>
</g>
</g>
<!-- google&#45;cloud&#45;cpp&#45;bigquery&#45;&gt;google&#45;cloud&#45;cpp -->
<g id="edge58" class="edge">
<title>google&#45;cloud&#45;cpp&#45;bigquery&#45;&gt;google&#45;cloud&#45;cpp</title>
<path fill="none" stroke="black" d="M1357.61,-511.59C1357.61,-487.61 1357.61,-444.14 1357.61,-415.42"/>
<polygon fill="black" stroke="black" points="1361.11,-415.62 1357.61,-405.62 1354.11,-415.62 1361.11,-415.62"/>
</g>
<!-- google&#45;cloud&#45;cpp&#45;ai -->
<g id="node58" class="node">
<title>google&#45;cloud&#45;cpp&#45;ai</title>
<g id="a_node58"><a xlink:href="https://github.com/conda-forge/google-cloud-cpp-ai-feedstock" xlink:title="google cloud cpp ai">
<ellipse fill="#35b779" stroke="black" cx="1186.61" cy="-602" rx="107.5" ry="18"/>
<text text-anchor="middle" x="1186.61" y="-597.33" font-family="Times,serif" font-size="14.00">google cloud cpp ai</text>
</a>
</g>
</g>
<!-- google&#45;cloud&#45;cpp&#45;ai&#45;&gt;google&#45;cloud&#45;cpp -->
<g id="edge59" class="edge">
<title>google&#45;cloud&#45;cpp&#45;ai&#45;&gt;google&#45;cloud&#45;cpp</title>
<path fill="none" stroke="black" d="M1186.97,-583.7C1188.08,-564.81 1192.06,-534.27 1205.61,-512 1233.03,-466.91 1282.71,-430.72 1317.79,-409.11"/>
<polygon fill="black" stroke="black" points="1319.21,-412.34 1325.97,-404.19 1315.6,-406.34 1319.21,-412.34"/>
</g>
<!-- mysqlx&#45;connector&#45;python -->
<g id="node60" class="node">
<title>mysqlx&#45;connector&#45;python</title>
<g id="a_node60"><a xlink:href="https://github.com/conda-forge/mysqlx-connector-python-feedstock" xlink:title="mysqlx connector python">
<ellipse fill="#35b779" stroke="black" cx="535.55" cy="-54" rx="137.49" ry="18"/>
<text text-anchor="middle" x="535.55" y="-49.33" font-family="Times,serif" font-size="14.00">mysqlx connector python</text>
</a>
</g>
</g>
</g>
</svg>
