<?xml version="1.0" encoding="UTF-8" standalone="no"?>
<!DOCTYPE svg PUBLIC "-//W3C//DTD SVG 1.1//EN"
 "http://www.w3.org/Graphics/SVG/1.1/DTD/svg11.dtd">
<!-- Generated by graphviz version 12.0.0 (20240803.0821)
 -->
<!-- Pages: 1 -->
<svg width="567pt" height="160pt"
 viewBox="0.00 0.00 567.09 160.00" xmlns="http://www.w3.org/2000/svg" xmlns:xlink="http://www.w3.org/1999/xlink">
<g id="graph0" class="graph" transform="scale(1 1) rotate(0) translate(4 156)">
<polygon fill="white" stroke="none" points="-4,4 -4,-156 563.09,-156 563.09,4 -4,4"/>
<!-- gdal -->
<g id="node1" class="node">
<title>gdal</title>
<g id="a_node1"><a xlink:href="https://github.com/conda-forge/gdal-feedstock" xlink:title="gdal">
<ellipse fill="#fde725" stroke="black" cx="32.79" cy="-62" rx="32.79" ry="18"/>
<text text-anchor="middle" x="32.79" y="-57.33" font-family="Times,serif" font-size="14.00">gdal</text>
</a>
</g>
</g>
<!-- libtiff -->
<g id="node2" class="node">
<title>libtiff</title>
<g id="a_node2"><a xlink:href="https://github.com/conda-forge/libtiff-feedstock" xlink:title="libtiff">
<ellipse fill="#35b779" stroke="black" cx="125.79" cy="-134" rx="38.06" ry="18"/>
<text text-anchor="middle" x="125.79" y="-129.32" font-family="Times,serif" font-size="14.00">libtiff</text>
</a>
</g>
</g>
<!-- libtiff&#45;&gt;gdal -->
<g id="edge1" class="edge">
<title>libtiff&#45;&gt;gdal</title>
<path fill="none" stroke="black" d="M106.07,-118.15C92.86,-108.21 75.28,-94.98 60.65,-83.97"/>
<polygon fill="black" stroke="black" points="62.84,-81.24 52.75,-78.02 58.63,-86.83 62.84,-81.24"/>
</g>
<!-- r&#45;base -->
<g id="node4" class="node">
<title>r&#45;base</title>
<g id="a_node4"><a xlink:href="https://github.com/conda-forge/r-base-feedstock" xlink:title="r base">
<ellipse fill="#fde725" stroke="black" cx="125.79" cy="-62" rx="42.26" ry="18"/>
<text text-anchor="middle" x="125.79" y="-57.33" font-family="Times,serif" font-size="14.00">r base</text>
</a>
</g>
</g>
<!-- libtiff&#45;&gt;r&#45;base -->
<g id="edge3" class="edge">
<title>libtiff&#45;&gt;r&#45;base</title>
<path fill="none" stroke="black" d="M125.79,-115.7C125.79,-108.41 125.79,-99.73 125.79,-91.54"/>
<polygon fill="black" stroke="black" points="129.29,-91.62 125.79,-81.62 122.29,-91.62 129.29,-91.62"/>
</g>
<!-- imagecodecs -->
<g id="node6" class="node">
<title>imagecodecs</title>
<g id="a_node6"><a xlink:href="https://github.com/conda-forge/imagecodecs-feedstock" xlink:title="imagecodecs">
<ellipse fill="#fde725" stroke="black" cx="261.79" cy="-62" rx="75.41" ry="18"/>
<text text-anchor="middle" x="261.79" y="-57.33" font-family="Times,serif" font-size="14.00">imagecodecs</text>
</a>
</g>
</g>
<!-- libtiff&#45;&gt;imagecodecs -->
<g id="edge2" class="edge">
<title>libtiff&#45;&gt;imagecodecs</title>
<path fill="none" stroke="black" d="M150.74,-120.16C170.42,-110.03 198.28,-95.69 221.17,-83.91"/>
<polygon fill="black" stroke="black" points="222.66,-87.08 229.95,-79.39 219.46,-80.86 222.66,-87.08"/>
</g>
<!-- lighttpd -->
<g id="node3" class="node">
<title>lighttpd</title>
<g id="a_node3"><a xlink:href="https://github.com/conda-forge/lighttpd-feedstock" xlink:title="lighttpd">
<ellipse fill="#35b779" stroke="black" cx="507.88" cy="-98" rx="51.21" ry="18"/>
<text text-anchor="middle" x="507.88" y="-93.33" font-family="Times,serif" font-size="14.00">lighttpd</text>
</a>
</g>
</g>
<!-- openexr -->
<g id="node5" class="node">
<title>openexr</title>
<g id="a_node5"><a xlink:href="https://github.com/conda-forge/openexr-feedstock" xlink:title="openexr">
<ellipse fill="#35b779" stroke="black" cx="396.94" cy="-98" rx="51.73" ry="18"/>
<text text-anchor="middle" x="396.94" y="-93.33" font-family="Times,serif" font-size="14.00">openexr</text>
</a>
</g>
</g>
<!-- openfbx -->
<g id="node7" class="node">
<title>openfbx</title>
<g id="a_node7"><a xlink:href="https://github.com/conda-forge/openfbx-feedstock" xlink:title="openfbx">
<ellipse fill="#35b779" stroke="black" cx="168.6" cy="-18" rx="51.21" ry="18"/>
<text text-anchor="middle" x="168.6" y="-13.32" font-family="Times,serif" font-size="14.00">openfbx</text>
</a>
</g>
</g>
</g>
</svg>
