<?xml version="1.0" encoding="UTF-8" standalone="no"?>
<!DOCTYPE svg PUBLIC "-//W3C//DTD SVG 1.1//EN"
 "http://www.w3.org/Graphics/SVG/1.1/DTD/svg11.dtd">
<!-- Generated by graphviz version 12.0.0 (20240803.0821)
 -->
<!-- Pages: 1 -->
<svg width="566pt" height="116pt"
 viewBox="0.00 0.00 566.04 116.00" xmlns="http://www.w3.org/2000/svg" xmlns:xlink="http://www.w3.org/1999/xlink">
<g id="graph0" class="graph" transform="scale(1 1) rotate(0) translate(4 112)">
<polygon fill="white" stroke="none" points="-4,4 -4,-112 562.04,-112 562.04,4 -4,4"/>
<!-- gdal -->
<g id="node1" class="node">
<title>gdal</title>
<g id="a_node1"><a xlink:href="https://github.com/conda-forge/gdal-feedstock" xlink:title="gdal">
<ellipse fill="#fde725" stroke="black" cx="32.79" cy="-18" rx="32.79" ry="18"/>
<text text-anchor="middle" x="32.79" y="-13.32" font-family="Times,serif" font-size="14.00">gdal</text>
</a>
</g>
</g>
<!-- libtiff -->
<g id="node2" class="node">
<title>libtiff</title>
<g id="a_node2"><a xlink:href="https://github.com/conda-forge/libtiff-feedstock" xlink:title="libtiff">
<ellipse fill="#35b779" stroke="black" cx="125.79" cy="-90" rx="38.06" ry="18"/>
<text text-anchor="middle" x="125.79" y="-85.33" font-family="Times,serif" font-size="14.00">libtiff</text>
</a>
</g>
</g>
<!-- libtiff&#45;&gt;gdal -->
<g id="edge1" class="edge">
<title>libtiff&#45;&gt;gdal</title>
<path fill="none" stroke="black" d="M106.07,-74.15C92.86,-64.21 75.28,-50.98 60.65,-39.97"/>
<polygon fill="black" stroke="black" points="62.84,-37.24 52.75,-34.02 58.63,-42.83 62.84,-37.24"/>
</g>
<!-- r&#45;base -->
<g id="node4" class="node">
<title>r&#45;base</title>
<g id="a_node4"><a xlink:href="https://github.com/conda-forge/r-base-feedstock" xlink:title="r base">
<ellipse fill="#fde725" stroke="black" cx="125.79" cy="-18" rx="42.26" ry="18"/>
<text text-anchor="middle" x="125.79" y="-13.32" font-family="Times,serif" font-size="14.00">r base</text>
</a>
</g>
</g>
<!-- libtiff&#45;&gt;r&#45;base -->
<g id="edge3" class="edge">
<title>libtiff&#45;&gt;r&#45;base</title>
<path fill="none" stroke="black" d="M125.79,-71.7C125.79,-64.41 125.79,-55.73 125.79,-47.54"/>
<polygon fill="black" stroke="black" points="129.29,-47.62 125.79,-37.62 122.29,-47.62 129.29,-47.62"/>
</g>
<!-- imagecodecs -->
<g id="node5" class="node">
<title>imagecodecs</title>
<g id="a_node5"><a xlink:href="https://github.com/conda-forge/imagecodecs-feedstock" xlink:title="imagecodecs">
<ellipse fill="#fde725" stroke="black" cx="261.79" cy="-18" rx="75.41" ry="18"/>
<text text-anchor="middle" x="261.79" y="-13.32" font-family="Times,serif" font-size="14.00">imagecodecs</text>
</a>
</g>
</g>
<!-- libtiff&#45;&gt;imagecodecs -->
<g id="edge2" class="edge">
<title>libtiff&#45;&gt;imagecodecs</title>
<path fill="none" stroke="black" d="M150.74,-76.16C170.42,-66.03 198.28,-51.69 221.17,-39.91"/>
<polygon fill="black" stroke="black" points="222.66,-43.08 229.95,-35.39 219.46,-36.86 222.66,-43.08"/>
</g>
<!-- lighttpd -->
<g id="node3" class="node">
<title>lighttpd</title>
<g id="a_node3"><a xlink:href="https://github.com/conda-forge/lighttpd-feedstock" xlink:title="lighttpd">
<ellipse fill="#35b779" stroke="black" cx="396.41" cy="-54" rx="51.21" ry="18"/>
<text text-anchor="middle" x="396.41" y="-49.33" font-family="Times,serif" font-size="14.00">lighttpd</text>
</a>
</g>
</g>
<!-- openfbx -->
<g id="node6" class="node">
<title>openfbx</title>
<g id="a_node6"><a xlink:href="https://github.com/conda-forge/openfbx-feedstock" xlink:title="openfbx">
<ellipse fill="#35b779" stroke="black" cx="506.83" cy="-54" rx="51.21" ry="18"/>
<text text-anchor="middle" x="506.83" y="-49.33" font-family="Times,serif" font-size="14.00">openfbx</text>
</a>
</g>
</g>
</g>
</svg>
