<?xml version="1.0" encoding="UTF-8" standalone="no"?>
<!DOCTYPE svg PUBLIC "-//W3C//DTD SVG 1.1//EN"
 "http://www.w3.org/Graphics/SVG/1.1/DTD/svg11.dtd">
<!-- Generated by graphviz version 13.1.2 (20250809.0930)
 -->
<!-- Pages: 1 -->
<svg width="919pt" height="260pt"
 viewBox="0.00 0.00 919.00 260.00" xmlns="http://www.w3.org/2000/svg" xmlns:xlink="http://www.w3.org/1999/xlink">
<g id="graph0" class="graph" transform="scale(1 1) rotate(0) translate(4 256)">
<polygon fill="white" stroke="none" points="-4,4 -4,-256 915.4,-256 915.4,4 -4,4"/>
<!-- gap -->
<g id="node1" class="node">
<title>gap</title>
<g id="a_node1"><a xlink:href="https://github.com/conda-forge/gap-feedstock" xlink:title="gap">
<ellipse fill="#fde725" stroke="black" cx="74.89" cy="-90" rx="29.64" ry="18"/>
<text xml:space="preserve" text-anchor="middle" x="74.89" y="-85.33" font-family="Times,serif" font-size="14.00">gap</text>
</a>
</g>
</g>
<!-- sagelib -->
<g id="node4" class="node">
<title>sagelib</title>
<g id="a_node4"><a xlink:href="https://github.com/conda-forge/sagelib-feedstock" xlink:title="sagelib">
<ellipse fill="#fde725" stroke="black" cx="183.89" cy="-18" rx="47" ry="18"/>
<text xml:space="preserve" text-anchor="middle" x="183.89" y="-13.32" font-family="Times,serif" font-size="14.00">sagelib</text>
</a>
</g>
</g>
<!-- gap&#45;&gt;sagelib -->
<g id="edge1" class="edge">
<title>gap&#45;&gt;sagelib</title>
<path fill="none" stroke="black" d="M94.88,-76.16C110.62,-66.06 132.87,-51.77 151.19,-40"/>
<polygon fill="black" stroke="black" points="152.82,-43.11 159.35,-34.76 149.04,-37.22 152.82,-43.11"/>
</g>
<!-- linbox -->
<g id="node2" class="node">
<title>linbox</title>
<g id="a_node2"><a xlink:href="https://github.com/conda-forge/linbox-feedstock/pull/33" xlink:title="linbox ❎">
<ellipse fill="#31688e" stroke="black" cx="311.89" cy="-90" rx="57" ry="18"/>
<text xml:space="preserve" text-anchor="middle" x="311.89" y="-85.33" font-family="Times,serif" font-size="14.00" fill="white">linbox ❎</text>
</a>
</g>
</g>
<!-- linbox&#45;&gt;sagelib -->
<g id="edge2" class="edge">
<title>linbox&#45;&gt;sagelib</title>
<path fill="none" stroke="black" d="M284.12,-73.81C265.25,-63.49 240.11,-49.75 219.73,-38.6"/>
<polygon fill="black" stroke="black" points="221.65,-35.66 211.19,-33.93 218.29,-41.8 221.65,-35.66"/>
</g>
<!-- python&#45;symengine -->
<g id="node3" class="node">
<title>python&#45;symengine</title>
<g id="a_node3"><a xlink:href="https://github.com/conda-forge/python-symengine-feedstock" xlink:title="python symengine">
<ellipse fill="#fde725" stroke="black" cx="479.89" cy="-90" rx="103.29" ry="18"/>
<text xml:space="preserve" text-anchor="middle" x="479.89" y="-85.33" font-family="Times,serif" font-size="14.00">python symengine</text>
</a>
</g>
</g>
<!-- symengine -->
<g id="node5" class="node">
<title>symengine</title>
<g id="a_node5"><a xlink:href="https://github.com/conda-forge/symengine-feedstock/pull/63" xlink:title="symengine ✓">
<ellipse fill="#31688e" stroke="black" cx="576.89" cy="-162" rx="73.3" ry="18"/>
<text xml:space="preserve" text-anchor="middle" x="576.89" y="-157.32" font-family="Times,serif" font-size="14.00" fill="white">symengine ✓</text>
</a>
</g>
</g>
<!-- symengine&#45;&gt;python&#45;symengine -->
<g id="edge3" class="edge">
<title>symengine&#45;&gt;python&#45;symengine</title>
<path fill="none" stroke="black" d="M554.39,-144.76C541.93,-135.77 526.22,-124.44 512.45,-114.49"/>
<polygon fill="black" stroke="black" points="514.66,-111.78 504.51,-108.76 510.57,-117.45 514.66,-111.78"/>
</g>
<!-- r&#45;symengine -->
<g id="node8" class="node">
<title>r&#45;symengine</title>
<g id="a_node8"><a xlink:href="https://github.com/conda-forge/r-symengine-feedstock" xlink:title="r symengine">
<ellipse fill="#fde725" stroke="black" cx="674.89" cy="-90" rx="73.3" ry="18"/>
<text xml:space="preserve" text-anchor="middle" x="674.89" y="-85.33" font-family="Times,serif" font-size="14.00">r symengine</text>
</a>
</g>
</g>
<!-- symengine&#45;&gt;r&#45;symengine -->
<g id="edge4" class="edge">
<title>symengine&#45;&gt;r&#45;symengine</title>
<path fill="none" stroke="black" d="M599.62,-144.76C612.39,-135.64 628.54,-124.1 642.61,-114.06"/>
<polygon fill="black" stroke="black" points="644.61,-116.93 650.71,-108.27 640.54,-111.23 644.61,-116.93"/>
</g>
<!-- e&#45;antic -->
<g id="node6" class="node">
<title>e&#45;antic</title>
<g id="a_node6"><a xlink:href="https://github.com/conda-forge/e-antic-feedstock/pull/70" xlink:title="e antic ❎">
<ellipse fill="#31688e" stroke="black" cx="188.89" cy="-234" rx="60.15" ry="18"/>
<text xml:space="preserve" text-anchor="middle" x="188.89" y="-229.32" font-family="Times,serif" font-size="14.00" fill="white">e antic ❎</text>
</a>
</g>
</g>
<!-- normaliz -->
<g id="node7" class="node">
<title>normaliz</title>
<g id="a_node7"><a xlink:href="https://github.com/conda-forge/normaliz-feedstock" xlink:title="normaliz">
<ellipse fill="#fde725" stroke="black" cx="54.89" cy="-162" rx="54.89" ry="18"/>
<text xml:space="preserve" text-anchor="middle" x="54.89" y="-157.32" font-family="Times,serif" font-size="14.00">normaliz</text>
</a>
</g>
</g>
<!-- e&#45;antic&#45;&gt;normaliz -->
<g id="edge7" class="edge">
<title>e&#45;antic&#45;&gt;normaliz</title>
<path fill="none" stroke="black" d="M159.81,-217.81C140.23,-207.58 114.21,-193.99 92.98,-182.9"/>
<polygon fill="black" stroke="black" points="94.82,-179.91 84.33,-178.38 91.58,-186.11 94.82,-179.91"/>
</g>
<!-- exact&#45;real -->
<g id="node9" class="node">
<title>exact&#45;real</title>
<g id="a_node9"><a xlink:href="https://github.com/conda-forge/exact-real-feedstock" xlink:title="exact real">
<ellipse fill="#fde725" stroke="black" cx="188.89" cy="-162" rx="60.68" ry="18"/>
<text xml:space="preserve" text-anchor="middle" x="188.89" y="-157.32" font-family="Times,serif" font-size="14.00">exact real</text>
</a>
</g>
</g>
<!-- e&#45;antic&#45;&gt;exact&#45;real -->
<g id="edge5" class="edge">
<title>e&#45;antic&#45;&gt;exact&#45;real</title>
<path fill="none" stroke="black" d="M188.89,-215.7C188.89,-208.41 188.89,-199.73 188.89,-191.54"/>
<polygon fill="black" stroke="black" points="192.39,-191.62 188.89,-181.62 185.39,-191.62 192.39,-191.62"/>
</g>
<!-- flatsurf -->
<g id="node10" class="node">
<title>flatsurf</title>
<g id="a_node10"><a xlink:href="https://github.com/conda-forge/flatsurf-feedstock" xlink:title="flatsurf">
<ellipse fill="#fde725" stroke="black" cx="188.89" cy="-90" rx="47.53" ry="18"/>
<text xml:space="preserve" text-anchor="middle" x="188.89" y="-85.33" font-family="Times,serif" font-size="14.00">flatsurf</text>
</a>
</g>
</g>
<!-- e&#45;antic&#45;&gt;flatsurf -->
<g id="edge6" class="edge">
<title>e&#45;antic&#45;&gt;flatsurf</title>
<path fill="none" stroke="black" d="M219.91,-218.11C234.59,-209.26 250.68,-196.52 258.89,-180 266.01,-165.67 266.01,-158.33 258.89,-144 252.02,-130.19 239.65,-119.01 227.19,-110.55"/>
<polygon fill="black" stroke="black" points="229.35,-107.77 219.02,-105.41 225.62,-113.7 229.35,-107.77"/>
</g>
<!-- normaliz&#45;&gt;gap -->
<g id="edge8" class="edge">
<title>normaliz&#45;&gt;gap</title>
<path fill="none" stroke="black" d="M59.83,-143.7C61.97,-136.24 64.51,-127.32 66.9,-118.97"/>
<polygon fill="black" stroke="black" points="70.21,-120.14 69.59,-109.56 63.48,-118.21 70.21,-120.14"/>
</g>
<!-- exact&#45;real&#45;&gt;flatsurf -->
<g id="edge9" class="edge">
<title>exact&#45;real&#45;&gt;flatsurf</title>
<path fill="none" stroke="black" d="M188.89,-143.7C188.89,-136.41 188.89,-127.73 188.89,-119.54"/>
<polygon fill="black" stroke="black" points="192.39,-119.62 188.89,-109.62 185.39,-119.62 192.39,-119.62"/>
</g>
<!-- gravelamps -->
<g id="node11" class="node">
<title>gravelamps</title>
<g id="a_node11"><a xlink:href="https://github.com/conda-forge/gravelamps-feedstock/pull/22" xlink:title="gravelamps ✓">
<ellipse fill="#31688e" stroke="black" cx="833.89" cy="-126" rx="77.51" ry="18"/>
<text xml:space="preserve" text-anchor="middle" x="833.89" y="-121.33" font-family="Times,serif" font-size="14.00" fill="white">gravelamps ✓</text>
</a>
</g>
</g>
</g>
</svg>
