<?xml version="1.0" encoding="UTF-8" standalone="no"?>
<!DOCTYPE svg PUBLIC "-//W3C//DTD SVG 1.1//EN"
 "http://www.w3.org/Graphics/SVG/1.1/DTD/svg11.dtd">
<!-- Generated by graphviz version 13.1.2 (20250809.0930)
 -->
<!-- Pages: 1 -->
<svg width="1852pt" height="404pt"
 viewBox="0.00 0.00 1852.00 404.00" xmlns="http://www.w3.org/2000/svg" xmlns:xlink="http://www.w3.org/1999/xlink">
<g id="graph0" class="graph" transform="scale(1 1) rotate(0) translate(4 400)">
<polygon fill="white" stroke="none" points="-4,4 -4,-400 1848.03,-400 1848.03,4 -4,4"/>
<!-- cffi -->
<g id="node1" class="node">
<title>cffi</title>
<g id="a_node1"><a xlink:href="https://github.com/conda-forge/cffi-feedstock" xlink:title="cffi">
<ellipse fill="#fde725" stroke="black" cx="1586.11" cy="-306" rx="27" ry="18"/>
<text xml:space="preserve" text-anchor="middle" x="1586.11" y="-301.32" font-family="Times,serif" font-size="14.00">cffi</text>
</a>
</g>
</g>
<!-- ghc -->
<g id="node2" class="node">
<title>ghc</title>
<g id="a_node2"><a xlink:href="https://github.com/conda-forge/ghc-feedstock" xlink:title="ghc">
<ellipse fill="#fde725" stroke="black" cx="1615.11" cy="-234" rx="29.11" ry="18"/>
<text xml:space="preserve" text-anchor="middle" x="1615.11" y="-229.32" font-family="Times,serif" font-size="14.00">ghc</text>
</a>
</g>
</g>
<!-- cffi&#45;&gt;ghc -->
<g id="edge1" class="edge">
<title>cffi&#45;&gt;ghc</title>
<path fill="none" stroke="black" d="M1592.98,-288.41C1596.18,-280.68 1600.08,-271.27 1603.71,-262.52"/>
<polygon fill="black" stroke="black" points="1606.91,-263.93 1607.5,-253.35 1600.44,-261.25 1606.91,-263.93"/>
</g>
<!-- glib -->
<g id="node3" class="node">
<title>glib</title>
<g id="a_node3"><a xlink:href="https://github.com/conda-forge/glib-feedstock" xlink:title="glib">
<ellipse fill="#fde725" stroke="black" cx="1261.11" cy="-306" rx="30.16" ry="18"/>
<text xml:space="preserve" text-anchor="middle" x="1261.11" y="-301.32" font-family="Times,serif" font-size="14.00">glib</text>
</a>
</g>
</g>
<!-- gobject&#45;introspection -->
<g id="node4" class="node">
<title>gobject&#45;introspection</title>
<g id="a_node4"><a xlink:href="https://github.com/conda-forge/gobject-introspection-feedstock" xlink:title="gobject introspection">
<ellipse fill="#fde725" stroke="black" cx="1386.11" cy="-234" rx="117.5" ry="18"/>
<text xml:space="preserve" text-anchor="middle" x="1386.11" y="-229.32" font-family="Times,serif" font-size="14.00">gobject introspection</text>
</a>
</g>
</g>
<!-- glib&#45;&gt;gobject&#45;introspection -->
<g id="edge2" class="edge">
<title>glib&#45;&gt;gobject&#45;introspection</title>
<path fill="none" stroke="black" d="M1282.6,-292.97C1299.99,-283.22 1324.98,-269.23 1346.04,-257.44"/>
<polygon fill="black" stroke="black" points="1347.68,-260.53 1354.7,-252.59 1344.26,-254.42 1347.68,-260.53"/>
</g>
<!-- pygobject -->
<g id="node5" class="node">
<title>pygobject</title>
<g id="a_node5"><a xlink:href="https://github.com/conda-forge/pygobject-feedstock" xlink:title="pygobject">
<ellipse fill="#fde725" stroke="black" cx="1577.11" cy="-162" rx="60.15" ry="18"/>
<text xml:space="preserve" text-anchor="middle" x="1577.11" y="-157.32" font-family="Times,serif" font-size="14.00">pygobject</text>
</a>
</g>
</g>
<!-- glib&#45;&gt;pygobject -->
<g id="edge3" class="edge">
<title>glib&#45;&gt;pygobject</title>
<path fill="none" stroke="black" d="M1254.92,-287.99C1248.93,-268.21 1243.02,-235.75 1260.11,-216 1296.55,-173.89 1453.45,-190.67 1508.11,-180 1512.67,-179.11 1517.39,-178.11 1522.11,-177.06"/>
<polygon fill="black" stroke="black" points="1522.65,-180.53 1531.6,-174.87 1521.07,-173.71 1522.65,-180.53"/>
</g>
<!-- gobject&#45;introspection&#45;&gt;pygobject -->
<g id="edge4" class="edge">
<title>gobject&#45;introspection&#45;&gt;pygobject</title>
<path fill="none" stroke="black" d="M1429.93,-216.94C1459.65,-206.05 1498.93,-191.65 1529.43,-180.47"/>
<polygon fill="black" stroke="black" points="1530.63,-183.76 1538.82,-177.03 1528.22,-177.19 1530.63,-183.76"/>
</g>
<!-- pyobjc&#45;core -->
<g id="node6" class="node">
<title>pyobjc&#45;core</title>
<g id="a_node6"><a xlink:href="https://github.com/conda-forge/pyobjc-core-feedstock" xlink:title="pyobjc core">
<ellipse fill="#fde725" stroke="black" cx="866.11" cy="-306" rx="68.57" ry="18"/>
<text xml:space="preserve" text-anchor="middle" x="866.11" y="-301.32" font-family="Times,serif" font-size="14.00">pyobjc core</text>
</a>
</g>
</g>
<!-- pyobjc&#45;framework&#45;cocoa -->
<g id="node7" class="node">
<title>pyobjc&#45;framework&#45;cocoa</title>
<g id="a_node7"><a xlink:href="https://github.com/conda-forge/pyobjc-framework-cocoa-feedstock" xlink:title="pyobjc framework cocoa">
<ellipse fill="#fde725" stroke="black" cx="1005.11" cy="-234" rx="132.23" ry="18"/>
<text xml:space="preserve" text-anchor="middle" x="1005.11" y="-229.32" font-family="Times,serif" font-size="14.00">pyobjc framework cocoa</text>
</a>
</g>
</g>
<!-- pyobjc&#45;core&#45;&gt;pyobjc&#45;framework&#45;cocoa -->
<g id="edge5" class="edge">
<title>pyobjc&#45;core&#45;&gt;pyobjc&#45;framework&#45;cocoa</title>
<path fill="none" stroke="black" d="M896.96,-289.46C915.98,-279.89 940.66,-267.45 961.65,-256.89"/>
<polygon fill="black" stroke="black" points="963.21,-260.02 970.57,-252.39 960.06,-253.77 963.21,-260.02"/>
</g>
<!-- pyobjc&#45;framework&#45;metal -->
<g id="node8" class="node">
<title>pyobjc&#45;framework&#45;metal</title>
<g id="a_node8"><a xlink:href="https://github.com/conda-forge/pyobjc-framework-metal-feedstock" xlink:title="pyobjc framework metal">
<ellipse fill="#fde725" stroke="black" cx="1058.11" cy="-162" rx="132.76" ry="18"/>
<text xml:space="preserve" text-anchor="middle" x="1058.11" y="-157.32" font-family="Times,serif" font-size="14.00">pyobjc framework metal</text>
</a>
</g>
</g>
<!-- pyobjc&#45;core&#45;&gt;pyobjc&#45;framework&#45;metal -->
<g id="edge6" class="edge">
<title>pyobjc&#45;core&#45;&gt;pyobjc&#45;framework&#45;metal</title>
<path fill="none" stroke="black" d="M859.87,-287.65C854.07,-268.14 848.45,-236.52 864.11,-216 876.6,-199.63 918.77,-187.1 960.62,-178.33"/>
<polygon fill="black" stroke="black" points="961.21,-181.79 970.32,-176.38 959.83,-174.92 961.21,-181.79"/>
</g>
<!-- pyobjc&#45;framework&#45;security -->
<g id="node9" class="node">
<title>pyobjc&#45;framework&#45;security</title>
<g id="a_node9"><a xlink:href="https://github.com/conda-forge/pyobjc-framework-security-feedstock" xlink:title="pyobjc framework security">
<ellipse fill="#fde725" stroke="black" cx="1354.11" cy="-162" rx="144.86" ry="18"/>
<text xml:space="preserve" text-anchor="middle" x="1354.11" y="-157.32" font-family="Times,serif" font-size="14.00">pyobjc framework security</text>
</a>
</g>
</g>
<!-- pyobjc&#45;core&#45;&gt;pyobjc&#45;framework&#45;security -->
<g id="edge7" class="edge">
<title>pyobjc&#45;core&#45;&gt;pyobjc&#45;framework&#45;security</title>
<path fill="none" stroke="black" d="M933.25,-301.82C991.89,-296.86 1078.02,-284.22 1146.11,-252 1168.64,-241.34 1167.28,-228.03 1189.11,-216 1215.86,-201.25 1247.34,-189.86 1275.59,-181.49"/>
<polygon fill="black" stroke="black" points="1276.56,-184.86 1285.2,-178.74 1274.63,-178.13 1276.56,-184.86"/>
</g>
<!-- pyobjc&#45;framework&#45;webkit -->
<g id="node10" class="node">
<title>pyobjc&#45;framework&#45;webkit</title>
<g id="a_node10"><a xlink:href="https://github.com/conda-forge/pyobjc-framework-webkit-feedstock" xlink:title="pyobjc framework webkit">
<ellipse fill="#fde725" stroke="black" cx="769.11" cy="-162" rx="138.02" ry="18"/>
<text xml:space="preserve" text-anchor="middle" x="769.11" y="-157.32" font-family="Times,serif" font-size="14.00">pyobjc framework webkit</text>
</a>
</g>
</g>
<!-- pyobjc&#45;core&#45;&gt;pyobjc&#45;framework&#45;webkit -->
<g id="edge8" class="edge">
<title>pyobjc&#45;core&#45;&gt;pyobjc&#45;framework&#45;webkit</title>
<path fill="none" stroke="black" d="M854.41,-287.87C837.73,-263.46 806.97,-218.43 787.3,-189.64"/>
<polygon fill="black" stroke="black" points="790.23,-187.72 781.7,-181.44 784.45,-191.67 790.23,-187.72"/>
</g>
<!-- pyobjc&#45;framework&#45;cocoa&#45;&gt;pyobjc&#45;framework&#45;metal -->
<g id="edge9" class="edge">
<title>pyobjc&#45;framework&#45;cocoa&#45;&gt;pyobjc&#45;framework&#45;metal</title>
<path fill="none" stroke="black" d="M1018.21,-215.7C1024.24,-207.73 1031.53,-198.1 1038.22,-189.26"/>
<polygon fill="black" stroke="black" points="1041,-191.4 1044.24,-181.31 1035.42,-187.17 1041,-191.4"/>
</g>
<!-- pyobjc&#45;framework&#45;cocoa&#45;&gt;pyobjc&#45;framework&#45;security -->
<g id="edge10" class="edge">
<title>pyobjc&#45;framework&#45;cocoa&#45;&gt;pyobjc&#45;framework&#45;security</title>
<path fill="none" stroke="black" d="M1077.42,-218.5C1133.13,-207.32 1210.29,-191.85 1268.98,-180.07"/>
<polygon fill="black" stroke="black" points="1269.48,-183.54 1278.6,-178.14 1268.11,-176.68 1269.48,-183.54"/>
</g>
<!-- pyobjc&#45;framework&#45;cocoa&#45;&gt;pyobjc&#45;framework&#45;webkit -->
<g id="edge11" class="edge">
<title>pyobjc&#45;framework&#45;cocoa&#45;&gt;pyobjc&#45;framework&#45;webkit</title>
<path fill="none" stroke="black" d="M951.56,-217.12C916.53,-206.73 870.57,-193.09 833.54,-182.11"/>
<polygon fill="black" stroke="black" points="834.89,-178.86 824.31,-179.37 832.9,-185.57 834.89,-178.86"/>
</g>
<!-- python -->
<g id="node11" class="node">
<title>python</title>
<g id="a_node11"><a xlink:href="https://github.com/conda-forge/python-feedstock/pull/824" xlink:title="python ❎">
<ellipse fill="#31688e" stroke="black" cx="750.11" cy="-378" rx="61.2" ry="18"/>
<text xml:space="preserve" text-anchor="middle" x="750.11" y="-373.32" font-family="Times,serif" font-size="14.00" fill="white">python ❎</text>
</a>
</g>
</g>
<!-- python&#45;&gt;cffi -->
<g id="edge12" class="edge">
<title>python&#45;&gt;cffi</title>
<path fill="none" stroke="black" d="M811.01,-375.5C971.95,-371.14 1405.7,-356.61 1545.11,-324 1548.1,-323.3 1551.15,-322.41 1554.18,-321.39"/>
<polygon fill="black" stroke="black" points="1555.31,-324.71 1563.43,-317.89 1552.83,-318.16 1555.31,-324.71"/>
</g>
<!-- python&#45;&gt;ghc -->
<g id="edge13" class="edge">
<title>python&#45;&gt;ghc</title>
<path fill="none" stroke="black" d="M811.25,-375.56C1005.02,-370.69 1594.34,-353.51 1622.11,-324 1637.29,-307.87 1633.34,-282 1626.88,-262.3"/>
<polygon fill="black" stroke="black" points="1630.18,-261.13 1623.44,-252.96 1623.61,-263.55 1630.18,-261.13"/>
</g>
<!-- python&#45;&gt;glib -->
<g id="edge14" class="edge">
<title>python&#45;&gt;glib</title>
<path fill="none" stroke="black" d="M810.68,-375.06C900.58,-371.07 1074.08,-359.13 1217.11,-324 1220.24,-323.23 1223.45,-322.3 1226.64,-321.26"/>
<polygon fill="black" stroke="black" points="1227.58,-324.64 1235.83,-318 1225.24,-318.05 1227.58,-324.64"/>
</g>
<!-- python&#45;&gt;gobject&#45;introspection -->
<g id="edge15" class="edge">
<title>python&#45;&gt;gobject&#45;introspection</title>
<path fill="none" stroke="black" d="M811.2,-376.38C935.89,-374.28 1215.1,-364.99 1300.11,-324 1328.85,-310.14 1353.18,-282.42 1368.55,-261.58"/>
<polygon fill="black" stroke="black" points="1371.34,-263.69 1374.28,-253.51 1365.64,-259.63 1371.34,-263.69"/>
</g>
<!-- python&#45;&gt;pygobject -->
<g id="edge16" class="edge">
<title>python&#45;&gt;pygobject</title>
<path fill="none" stroke="black" d="M811.51,-377.46C919.44,-376.95 1149.51,-369.94 1337.11,-324 1418.8,-303.99 1445.93,-303.91 1512.11,-252 1533.55,-235.18 1551.25,-209.54 1562.73,-190.09"/>
<polygon fill="black" stroke="black" points="1565.66,-192.02 1567.56,-181.6 1559.57,-188.56 1565.66,-192.02"/>
</g>
<!-- python&#45;&gt;pyobjc&#45;core -->
<g id="edge17" class="edge">
<title>python&#45;&gt;pyobjc&#45;core</title>
<path fill="none" stroke="black" d="M776.14,-361.29C792,-351.72 812.49,-339.35 829.92,-328.84"/>
<polygon fill="black" stroke="black" points="831.71,-331.84 838.46,-323.68 828.09,-325.85 831.71,-331.84"/>
</g>
<!-- python&#45;&gt;pyobjc&#45;framework&#45;cocoa -->
<g id="edge18" class="edge">
<title>python&#45;&gt;pyobjc&#45;framework&#45;cocoa</title>
<path fill="none" stroke="black" d="M808.1,-371.8C849.21,-365.72 903.99,-352.54 944.11,-324 966,-308.42 982.51,-282.36 992.8,-262.46"/>
<polygon fill="black" stroke="black" points="995.93,-264.01 997.2,-253.49 989.65,-260.93 995.93,-264.01"/>
</g>
<!-- python&#45;&gt;pyobjc&#45;framework&#45;metal -->
<g id="edge19" class="edge">
<title>python&#45;&gt;pyobjc&#45;framework&#45;metal</title>
<path fill="none" stroke="black" d="M755.14,-359.69C766.09,-325.52 795.56,-249.79 850.11,-216 880.48,-197.18 917.27,-185.03 951.42,-177.18"/>
<polygon fill="black" stroke="black" points="951.9,-180.66 960.93,-175.11 950.41,-173.82 951.9,-180.66"/>
</g>
<!-- python&#45;&gt;pyobjc&#45;framework&#45;security -->
<g id="edge20" class="edge">
<title>python&#45;&gt;pyobjc&#45;framework&#45;security</title>
<path fill="none" stroke="black" d="M798.98,-366.93C844.61,-357.17 914.43,-341.34 974.11,-324 1068.05,-296.7 1093.03,-292.44 1182.11,-252 1211.47,-238.67 1216.59,-231.06 1245.11,-216 1265.45,-205.26 1288.31,-194.02 1307.81,-184.67"/>
<polygon fill="black" stroke="black" points="1309.08,-187.94 1316.6,-180.48 1306.07,-181.63 1309.08,-187.94"/>
</g>
<!-- python&#45;&gt;pyobjc&#45;framework&#45;webkit -->
<g id="edge21" class="edge">
<title>python&#45;&gt;pyobjc&#45;framework&#45;webkit</title>
<path fill="none" stroke="black" d="M749.37,-359.97C748.39,-330.47 747.53,-268.02 755.11,-216 756.29,-207.9 758.25,-199.26 760.35,-191.36"/>
<polygon fill="black" stroke="black" points="763.66,-192.49 763.01,-181.92 756.93,-190.59 763.66,-192.49"/>
</g>
<!-- ruby -->
<g id="node12" class="node">
<title>ruby</title>
<g id="a_node12"><a xlink:href="https://github.com/conda-forge/ruby-feedstock" xlink:title="ruby">
<ellipse fill="#fde725" stroke="black" cx="607.11" cy="-234" rx="34.37" ry="18"/>
<text xml:space="preserve" text-anchor="middle" x="607.11" y="-229.32" font-family="Times,serif" font-size="14.00">ruby</text>
</a>
</g>
</g>
<!-- python&#45;&gt;ruby -->
<g id="edge22" class="edge">
<title>python&#45;&gt;ruby</title>
<path fill="none" stroke="black" d="M733.42,-360.43C707.94,-335.13 659.25,-286.78 630.33,-258.06"/>
<polygon fill="black" stroke="black" points="633.02,-255.8 623.46,-251.24 628.09,-260.77 633.02,-255.8"/>
</g>
<!-- git&#45;annex -->
<g id="node13" class="node">
<title>git&#45;annex</title>
<g id="a_node13"><a xlink:href="https://github.com/conda-forge/git-annex-feedstock" xlink:title="git annex">
<ellipse fill="#fde725" stroke="black" cx="467.11" cy="-162" rx="58.05" ry="18"/>
<text xml:space="preserve" text-anchor="middle" x="467.11" y="-157.32" font-family="Times,serif" font-size="14.00">git annex</text>
</a>
</g>
</g>
<!-- python&#45;&gt;git&#45;annex -->
<g id="edge23" class="edge">
<title>python&#45;&gt;git&#45;annex</title>
<path fill="none" stroke="black" d="M720.99,-361.78C702.33,-351.69 677.82,-337.82 657.11,-324 593.45,-281.52 526.99,-220.82 492.03,-187.4"/>
<polygon fill="black" stroke="black" points="494.57,-184.98 484.94,-180.57 489.72,-190.02 494.57,-184.98"/>
</g>
<!-- pypy3.6 -->
<g id="node14" class="node">
<title>pypy3.6</title>
<g id="a_node14"><a xlink:href="https://github.com/conda-forge/pypy3.6-feedstock" xlink:title="pypy3 6">
<ellipse fill="#fde725" stroke="black" cx="422.11" cy="-90" rx="51.21" ry="18"/>
<text xml:space="preserve" text-anchor="middle" x="422.11" y="-85.33" font-family="Times,serif" font-size="14.00">pypy3 6</text>
</a>
</g>
</g>
<!-- python&#45;&gt;pypy3.6 -->
<g id="edge24" class="edge">
<title>python&#45;&gt;pypy3.6</title>
<path fill="none" stroke="black" d="M700.67,-366.98C619.34,-347.45 460.36,-295.63 400.11,-180 389.96,-160.53 397.14,-136.21 405.91,-117.91"/>
<polygon fill="black" stroke="black" points="408.9,-119.74 410.44,-109.25 402.7,-116.49 408.9,-119.74"/>
</g>
<!-- guile -->
<g id="node15" class="node">
<title>guile</title>
<g id="a_node15"><a xlink:href="https://github.com/conda-forge/guile-feedstock" xlink:title="guile">
<ellipse fill="#fde725" stroke="black" cx="343.11" cy="-18" rx="35.95" ry="18"/>
<text xml:space="preserve" text-anchor="middle" x="343.11" y="-13.32" font-family="Times,serif" font-size="14.00">guile</text>
</a>
</g>
</g>
<!-- python&#45;&gt;guile -->
<g id="edge25" class="edge">
<title>python&#45;&gt;guile</title>
<path fill="none" stroke="black" d="M695.22,-369.6C584.12,-353.07 343.11,-308.71 343.11,-235 343.11,-235 343.11,-235 343.11,-161 343.11,-121.74 343.11,-76.38 343.11,-47.69"/>
<polygon fill="black" stroke="black" points="346.61,-48 343.11,-38 339.61,-48 346.61,-48"/>
</g>
<!-- adios2 -->
<g id="node16" class="node">
<title>adios2</title>
<g id="a_node16"><a xlink:href="https://github.com/conda-forge/adios2-feedstock" xlink:title="adios2">
<ellipse fill="#fde725" stroke="black" cx="271.11" cy="-306" rx="43.84" ry="18"/>
<text xml:space="preserve" text-anchor="middle" x="271.11" y="-301.32" font-family="Times,serif" font-size="14.00">adios2</text>
</a>
</g>
</g>
<!-- python&#45;&gt;adios2 -->
<g id="edge26" class="edge">
<title>python&#45;&gt;adios2</title>
<path fill="none" stroke="black" d="M691.39,-372.59C609.58,-365.78 456.94,-350.6 329.11,-324 324.78,-323.1 320.31,-322.04 315.86,-320.89"/>
<polygon fill="black" stroke="black" points="316.95,-317.56 306.38,-318.3 315.1,-324.31 316.95,-317.56"/>
</g>
<!-- micropython -->
<g id="node17" class="node">
<title>micropython</title>
<g id="a_node17"><a xlink:href="https://github.com/conda-forge/micropython-feedstock" xlink:title="micropython">
<ellipse fill="#fde725" stroke="black" cx="220.11" cy="-234" rx="74.36" ry="18"/>
<text xml:space="preserve" text-anchor="middle" x="220.11" y="-229.32" font-family="Times,serif" font-size="14.00">micropython</text>
</a>
</g>
</g>
<!-- python&#45;&gt;micropython -->
<g id="edge27" class="edge">
<title>python&#45;&gt;micropython</title>
<path fill="none" stroke="black" d="M689.1,-375.43C556.06,-371.38 249.24,-358.38 218.11,-324 203.52,-307.89 205.56,-282.63 210.37,-263.12"/>
<polygon fill="black" stroke="black" points="213.71,-264.17 213.08,-253.6 206.97,-262.25 213.71,-264.17"/>
</g>
<!-- wasmer -->
<g id="node18" class="node">
<title>wasmer</title>
<g id="a_node18"><a xlink:href="https://github.com/conda-forge/wasmer-feedstock" xlink:title="wasmer">
<ellipse fill="#fde725" stroke="black" cx="118.11" cy="-162" rx="50.68" ry="18"/>
<text xml:space="preserve" text-anchor="middle" x="118.11" y="-157.32" font-family="Times,serif" font-size="14.00">wasmer</text>
</a>
</g>
</g>
<!-- python&#45;&gt;wasmer -->
<g id="edge28" class="edge">
<title>python&#45;&gt;wasmer</title>
<path fill="none" stroke="black" d="M688.79,-376.52C564.38,-374.68 286.99,-365.84 203.11,-324 164.26,-304.62 157,-290.58 137.11,-252 127.41,-233.2 122.66,-209.72 120.33,-191.6"/>
<polygon fill="black" stroke="black" points="123.83,-191.37 119.27,-181.8 116.87,-192.12 123.83,-191.37"/>
</g>
<!-- yosys -->
<g id="node19" class="node">
<title>yosys</title>
<g id="a_node19"><a xlink:href="https://github.com/conda-forge/yosys-feedstock" xlink:title="yosys">
<ellipse fill="#fde725" stroke="black" cx="39.11" cy="-90" rx="39.11" ry="18"/>
<text xml:space="preserve" text-anchor="middle" x="39.11" y="-85.33" font-family="Times,serif" font-size="14.00">yosys</text>
</a>
</g>
</g>
<!-- python&#45;&gt;yosys -->
<g id="edge29" class="edge">
<title>python&#45;&gt;yosys</title>
<path fill="none" stroke="black" d="M689.61,-374.57C547.21,-368.45 199.41,-350.9 154.11,-324 79.95,-279.98 52.42,-171.77 43.23,-119.79"/>
<polygon fill="black" stroke="black" points="46.68,-119.22 41.61,-109.93 39.78,-120.36 46.68,-119.22"/>
</g>
<!-- rb&#45;ffi -->
<g id="node20" class="node">
<title>rb&#45;ffi</title>
<g id="a_node20"><a xlink:href="https://github.com/conda-forge/rb-ffi-feedstock" xlink:title="rb ffi">
<ellipse fill="#fde725" stroke="black" cx="578.11" cy="-162" rx="35.42" ry="18"/>
<text xml:space="preserve" text-anchor="middle" x="578.11" y="-157.32" font-family="Times,serif" font-size="14.00">rb ffi</text>
</a>
</g>
</g>
<!-- ruby&#45;&gt;rb&#45;ffi -->
<g id="edge30" class="edge">
<title>ruby&#45;&gt;rb&#45;ffi</title>
<path fill="none" stroke="black" d="M600.09,-216.05C596.88,-208.32 593,-198.96 589.4,-190.27"/>
<polygon fill="black" stroke="black" points="592.7,-189.09 585.64,-181.19 586.24,-191.77 592.7,-189.09"/>
</g>
<!-- p11&#45;kit -->
<g id="node21" class="node">
<title>p11&#45;kit</title>
<g id="a_node21"><a xlink:href="https://github.com/conda-forge/p11-kit-feedstock/pull/32" xlink:title="p11 kit ❎">
<ellipse fill="#31688e" stroke="black" cx="1748.11" cy="-234" rx="61.73" ry="18"/>
<text xml:space="preserve" text-anchor="middle" x="1748.11" y="-229.32" font-family="Times,serif" font-size="14.00" fill="white">p11 kit ❎</text>
</a>
</g>
</g>
<!-- ghc&#45;bootstrap -->
<g id="node22" class="node">
<title>ghc&#45;bootstrap</title>
<g id="a_node22"><a xlink:href="https://github.com/conda-forge/ghc-bootstrap-feedstock/pull/45" xlink:title="ghc bootstrap ❎">
<ellipse fill="#31688e" stroke="black" cx="1748.11" cy="-162" rx="95.93" ry="18"/>
<text xml:space="preserve" text-anchor="middle" x="1748.11" y="-157.32" font-family="Times,serif" font-size="14.00" fill="white">ghc bootstrap ❎</text>
</a>
</g>
</g>
<!-- p11&#45;kit&#45;&gt;ghc&#45;bootstrap -->
</g>
</svg>
