<?xml version="1.0" encoding="UTF-8" standalone="no"?>
<!DOCTYPE svg PUBLIC "-//W3C//DTD SVG 1.1//EN"
 "http://www.w3.org/Graphics/SVG/1.1/DTD/svg11.dtd">
<!-- Generated by graphviz version 13.1.2 (20250809.0930)
 -->
<!-- Pages: 1 -->
<svg width="1333pt" height="736pt"
 viewBox="0.00 0.00 1333.00 736.00" xmlns="http://www.w3.org/2000/svg" xmlns:xlink="http://www.w3.org/1999/xlink">
<g id="graph0" class="graph" transform="scale(1 1) rotate(0) translate(4 732)">
<polygon fill="white" stroke="none" points="-4,4 -4,-732 1329.21,-732 1329.21,4 -4,4"/>
<!-- cffi -->
<g id="node1" class="node">
<title>cffi</title>
<g id="a_node1"><a xlink:href="https://github.com/conda-forge/cffi-feedstock" xlink:title="cffi">
<ellipse fill="#35b779" stroke="black" cx="972.02" cy="-90" rx="27" ry="18"/>
<text xml:space="preserve" text-anchor="middle" x="972.02" y="-85.33" font-family="Times,serif" font-size="14.00">cffi</text>
</a>
</g>
</g>
<!-- ghc -->
<g id="node2" class="node">
<title>ghc</title>
<g id="a_node2"><a xlink:href="https://github.com/conda-forge/ghc-feedstock" xlink:title="ghc">
<ellipse fill="#fde725" stroke="black" cx="972.02" cy="-18" rx="29.11" ry="18"/>
<text xml:space="preserve" text-anchor="middle" x="972.02" y="-13.32" font-family="Times,serif" font-size="14.00">ghc</text>
</a>
</g>
</g>
<!-- cffi&#45;&gt;ghc -->
<g id="edge1" class="edge">
<title>cffi&#45;&gt;ghc</title>
<path fill="none" stroke="black" d="M972.02,-71.7C972.02,-64.41 972.02,-55.73 972.02,-47.54"/>
<polygon fill="black" stroke="black" points="975.52,-47.62 972.02,-37.62 968.52,-47.62 975.52,-47.62"/>
</g>
<!-- glib -->
<g id="node3" class="node">
<title>glib</title>
<g id="a_node3"><a xlink:href="https://github.com/conda-forge/glib-feedstock" xlink:title="glib">
<ellipse fill="#35b779" stroke="black" cx="1265.02" cy="-494" rx="30.16" ry="18"/>
<text xml:space="preserve" text-anchor="middle" x="1265.02" y="-489.32" font-family="Times,serif" font-size="14.00">glib</text>
</a>
</g>
</g>
<!-- gobject&#45;introspection -->
<g id="node4" class="node">
<title>gobject&#45;introspection</title>
<g id="a_node4"><a xlink:href="https://github.com/conda-forge/gobject-introspection-feedstock" xlink:title="gobject introspection">
<ellipse fill="#fde725" stroke="black" cx="1193.02" cy="-422" rx="117.5" ry="18"/>
<text xml:space="preserve" text-anchor="middle" x="1193.02" y="-417.32" font-family="Times,serif" font-size="14.00">gobject introspection</text>
</a>
</g>
</g>
<!-- glib&#45;&gt;gobject&#45;introspection -->
<g id="edge2" class="edge">
<title>glib&#45;&gt;gobject&#45;introspection</title>
<path fill="none" stroke="black" d="M1249.75,-478.15C1240.69,-469.35 1228.98,-457.97 1218.56,-447.83"/>
<polygon fill="black" stroke="black" points="1221.24,-445.56 1211.63,-441.1 1216.36,-450.58 1221.24,-445.56"/>
</g>
<!-- pygobject -->
<g id="node5" class="node">
<title>pygobject</title>
<g id="a_node5"><a xlink:href="https://github.com/conda-forge/pygobject-feedstock" xlink:title="pygobject">
<ellipse fill="#fde725" stroke="black" cx="1265.02" cy="-350" rx="60.15" ry="18"/>
<text xml:space="preserve" text-anchor="middle" x="1265.02" y="-345.32" font-family="Times,serif" font-size="14.00">pygobject</text>
</a>
</g>
</g>
<!-- glib&#45;&gt;pygobject -->
<g id="edge3" class="edge">
<title>glib&#45;&gt;pygobject</title>
<path fill="none" stroke="black" d="M1284.66,-480.05C1297.08,-470.61 1312.05,-456.59 1319.02,-440 1325.21,-425.25 1325.21,-418.75 1319.02,-404 1314.28,-392.71 1305.83,-382.61 1297.01,-374.34"/>
<polygon fill="black" stroke="black" points="1299.52,-371.89 1289.68,-367.98 1294.93,-377.18 1299.52,-371.89"/>
</g>
<!-- gobject&#45;introspection&#45;&gt;pygobject -->
<g id="edge4" class="edge">
<title>gobject&#45;introspection&#45;&gt;pygobject</title>
<path fill="none" stroke="black" d="M1210.45,-404.05C1219.33,-395.42 1230.29,-384.76 1240.06,-375.27"/>
<polygon fill="black" stroke="black" points="1242.43,-377.84 1247.16,-368.36 1237.55,-372.82 1242.43,-377.84"/>
</g>
<!-- pyobjc&#45;core -->
<g id="node6" class="node">
<title>pyobjc&#45;core</title>
<g id="a_node6"><a xlink:href="https://github.com/conda-forge/pyobjc-core-feedstock" xlink:title="pyobjc core">
<ellipse fill="#35b779" stroke="black" cx="483.02" cy="-494" rx="68.57" ry="18"/>
<text xml:space="preserve" text-anchor="middle" x="483.02" y="-489.32" font-family="Times,serif" font-size="14.00">pyobjc core</text>
</a>
</g>
</g>
<!-- pyobjc&#45;framework&#45;cocoa -->
<g id="node7" class="node">
<title>pyobjc&#45;framework&#45;cocoa</title>
<g id="a_node7"><a xlink:href="https://github.com/conda-forge/pyobjc-framework-cocoa-feedstock" xlink:title="pyobjc framework cocoa">
<ellipse fill="#fde725" stroke="black" cx="403.02" cy="-422" rx="132.23" ry="18"/>
<text xml:space="preserve" text-anchor="middle" x="403.02" y="-417.32" font-family="Times,serif" font-size="14.00">pyobjc framework cocoa</text>
</a>
</g>
</g>
<!-- pyobjc&#45;core&#45;&gt;pyobjc&#45;framework&#45;cocoa -->
<g id="edge5" class="edge">
<title>pyobjc&#45;core&#45;&gt;pyobjc&#45;framework&#45;cocoa</title>
<path fill="none" stroke="black" d="M464.06,-476.41C454.21,-467.8 441.99,-457.1 431.08,-447.55"/>
<polygon fill="black" stroke="black" points="433.64,-445.15 423.81,-441.2 429.04,-450.42 433.64,-445.15"/>
</g>
<!-- pyobjc&#45;framework&#45;metal -->
<g id="node8" class="node">
<title>pyobjc&#45;framework&#45;metal</title>
<g id="a_node8"><a xlink:href="https://github.com/conda-forge/pyobjc-framework-metal-feedstock" xlink:title="pyobjc framework metal">
<ellipse fill="#fde725" stroke="black" cx="735.02" cy="-350" rx="132.76" ry="18"/>
<text xml:space="preserve" text-anchor="middle" x="735.02" y="-345.32" font-family="Times,serif" font-size="14.00">pyobjc framework metal</text>
</a>
</g>
</g>
<!-- pyobjc&#45;core&#45;&gt;pyobjc&#45;framework&#45;metal -->
<g id="edge6" class="edge">
<title>pyobjc&#45;core&#45;&gt;pyobjc&#45;framework&#45;metal</title>
<path fill="none" stroke="black" d="M510.95,-477.26C555.76,-452.01 643.88,-402.35 695.25,-373.41"/>
<polygon fill="black" stroke="black" points="696.7,-376.61 703.69,-368.65 693.26,-370.51 696.7,-376.61"/>
</g>
<!-- pyobjc&#45;framework&#45;security -->
<g id="node9" class="node">
<title>pyobjc&#45;framework&#45;security</title>
<g id="a_node9"><a xlink:href="https://github.com/conda-forge/pyobjc-framework-security-feedstock" xlink:title="pyobjc framework security">
<ellipse fill="#fde725" stroke="black" cx="439.02" cy="-350" rx="144.86" ry="18"/>
<text xml:space="preserve" text-anchor="middle" x="439.02" y="-345.32" font-family="Times,serif" font-size="14.00">pyobjc framework security</text>
</a>
</g>
</g>
<!-- pyobjc&#45;core&#45;&gt;pyobjc&#45;framework&#45;security -->
<g id="edge7" class="edge">
<title>pyobjc&#45;core&#45;&gt;pyobjc&#45;framework&#45;security</title>
<path fill="none" stroke="black" d="M510.14,-477.21C522.96,-468.13 536.98,-455.45 544.02,-440 550.65,-425.44 552.4,-417.63 544.02,-404 535.41,-390.01 521.84,-379.58 507.29,-371.85"/>
<polygon fill="black" stroke="black" points="508.99,-368.79 498.46,-367.58 505.94,-375.09 508.99,-368.79"/>
</g>
<!-- pyobjc&#45;framework&#45;webkit -->
<g id="node10" class="node">
<title>pyobjc&#45;framework&#45;webkit</title>
<g id="a_node10"><a xlink:href="https://github.com/conda-forge/pyobjc-framework-webkit-feedstock" xlink:title="pyobjc framework webkit">
<ellipse fill="#fde725" stroke="black" cx="138.02" cy="-350" rx="138.02" ry="18"/>
<text xml:space="preserve" text-anchor="middle" x="138.02" y="-345.32" font-family="Times,serif" font-size="14.00">pyobjc framework webkit</text>
</a>
</g>
</g>
<!-- pyobjc&#45;core&#45;&gt;pyobjc&#45;framework&#45;webkit -->
<g id="edge8" class="edge">
<title>pyobjc&#45;core&#45;&gt;pyobjc&#45;framework&#45;webkit</title>
<path fill="none" stroke="black" d="M422.8,-485.01C377.15,-477.45 313.69,-463.63 262.02,-440 225.69,-423.39 189.15,-395.48 165.24,-375.34"/>
<polygon fill="black" stroke="black" points="167.75,-372.87 157.88,-369.03 163.19,-378.19 167.75,-372.87"/>
</g>
<!-- pyobjc&#45;framework&#45;cocoa&#45;&gt;pyobjc&#45;framework&#45;metal -->
<g id="edge9" class="edge">
<title>pyobjc&#45;framework&#45;cocoa&#45;&gt;pyobjc&#45;framework&#45;metal</title>
<path fill="none" stroke="black" d="M472.61,-406.33C525.54,-395.17 598.46,-379.79 654.01,-368.08"/>
<polygon fill="black" stroke="black" points="654.68,-371.52 663.74,-366.03 653.24,-364.67 654.68,-371.52"/>
</g>
<!-- pyobjc&#45;framework&#45;cocoa&#45;&gt;pyobjc&#45;framework&#45;security -->
<g id="edge10" class="edge">
<title>pyobjc&#45;framework&#45;cocoa&#45;&gt;pyobjc&#45;framework&#45;security</title>
<path fill="none" stroke="black" d="M411.92,-403.7C415.88,-395.98 420.65,-386.71 425.07,-378.11"/>
<polygon fill="black" stroke="black" points="428.07,-379.94 429.53,-369.45 421.84,-376.74 428.07,-379.94"/>
</g>
<!-- pyobjc&#45;framework&#45;cocoa&#45;&gt;pyobjc&#45;framework&#45;webkit -->
<g id="edge11" class="edge">
<title>pyobjc&#45;framework&#45;cocoa&#45;&gt;pyobjc&#45;framework&#45;webkit</title>
<path fill="none" stroke="black" d="M344.2,-405.46C304.03,-394.85 250.61,-380.74 208.21,-369.54"/>
<polygon fill="black" stroke="black" points="209.15,-366.17 198.59,-367 207.36,-372.94 209.15,-366.17"/>
</g>
<!-- ruby -->
<g id="node11" class="node">
<title>ruby</title>
<g id="a_node11"><a xlink:href="https://github.com/conda-forge/ruby-feedstock" xlink:title="ruby">
<ellipse fill="#35b779" stroke="black" cx="434.02" cy="-90" rx="34.37" ry="18"/>
<text xml:space="preserve" text-anchor="middle" x="434.02" y="-85.33" font-family="Times,serif" font-size="14.00">ruby</text>
</a>
</g>
</g>
<!-- rb&#45;ffi -->
<g id="node12" class="node">
<title>rb&#45;ffi</title>
<g id="a_node12"><a xlink:href="https://github.com/conda-forge/rb-ffi-feedstock" xlink:title="rb ffi">
<ellipse fill="#fde725" stroke="black" cx="434.02" cy="-18" rx="35.42" ry="18"/>
<text xml:space="preserve" text-anchor="middle" x="434.02" y="-13.32" font-family="Times,serif" font-size="14.00">rb ffi</text>
</a>
</g>
</g>
<!-- ruby&#45;&gt;rb&#45;ffi -->
<g id="edge12" class="edge">
<title>ruby&#45;&gt;rb&#45;ffi</title>
<path fill="none" stroke="black" d="M434.02,-71.7C434.02,-64.41 434.02,-55.73 434.02,-47.54"/>
<polygon fill="black" stroke="black" points="437.52,-47.62 434.02,-37.62 430.52,-47.62 437.52,-47.62"/>
</g>
<!-- git&#45;annex -->
<g id="node13" class="node">
<title>git&#45;annex</title>
<g id="a_node13"><a xlink:href="https://github.com/conda-forge/git-annex-feedstock" xlink:title="git annex">
<ellipse fill="#35b779" stroke="black" cx="972.02" cy="-710" rx="58.05" ry="18"/>
<text xml:space="preserve" text-anchor="middle" x="972.02" y="-705.33" font-family="Times,serif" font-size="14.00">git annex</text>
</a>
</g>
</g>
<!-- p11&#45;kit -->
<g id="node14" class="node">
<title>p11&#45;kit</title>
<g id="a_node14"><a xlink:href="https://github.com/conda-forge/p11-kit-feedstock/pull/32" xlink:title="p11 kit ❎">
<ellipse fill="#31688e" stroke="black" cx="972.02" cy="-638" rx="61.73" ry="18"/>
<text xml:space="preserve" text-anchor="middle" x="972.02" y="-633.33" font-family="Times,serif" font-size="14.00" fill="white">p11 kit ❎</text>
</a>
</g>
</g>
<!-- git&#45;annex&#45;&gt;p11&#45;kit -->
<!-- ghc&#45;bootstrap -->
<g id="node15" class="node">
<title>ghc&#45;bootstrap</title>
<g id="a_node15"><a xlink:href="https://github.com/conda-forge/ghc-bootstrap-feedstock/pull/45" xlink:title="ghc bootstrap ❎">
<ellipse fill="#31688e" stroke="black" cx="972.02" cy="-566" rx="95.93" ry="18"/>
<text xml:space="preserve" text-anchor="middle" x="972.02" y="-561.33" font-family="Times,serif" font-size="14.00" fill="white">ghc bootstrap ❎</text>
</a>
</g>
</g>
<!-- p11&#45;kit&#45;&gt;ghc&#45;bootstrap -->
<!-- pypy3.6 -->
<g id="node16" class="node">
<title>pypy3.6</title>
<g id="a_node16"><a xlink:href="https://github.com/conda-forge/pypy3.6-feedstock" xlink:title="pypy3 6">
<ellipse fill="#35b779" stroke="black" cx="972.02" cy="-494" rx="51.21" ry="18"/>
<text xml:space="preserve" text-anchor="middle" x="972.02" y="-489.32" font-family="Times,serif" font-size="14.00">pypy3 6</text>
</a>
</g>
</g>
<!-- ghc&#45;bootstrap&#45;&gt;pypy3.6 -->
<!-- guile -->
<g id="node17" class="node">
<title>guile</title>
<g id="a_node17"><a xlink:href="https://github.com/conda-forge/guile-feedstock" xlink:title="guile">
<ellipse fill="#35b779" stroke="black" cx="972.02" cy="-422" rx="35.95" ry="18"/>
<text xml:space="preserve" text-anchor="middle" x="972.02" y="-417.32" font-family="Times,serif" font-size="14.00">guile</text>
</a>
</g>
</g>
<!-- pypy3.6&#45;&gt;guile -->
<!-- adios2 -->
<g id="node18" class="node">
<title>adios2</title>
<g id="a_node18"><a xlink:href="https://github.com/conda-forge/adios2-feedstock" xlink:title="adios2">
<ellipse fill="#35b779" stroke="black" cx="972.02" cy="-350" rx="43.84" ry="18"/>
<text xml:space="preserve" text-anchor="middle" x="972.02" y="-345.32" font-family="Times,serif" font-size="14.00">adios2</text>
</a>
</g>
</g>
<!-- guile&#45;&gt;adios2 -->
<!-- micropython -->
<g id="node19" class="node">
<title>micropython</title>
<g id="a_node19"><a xlink:href="https://github.com/conda-forge/micropython-feedstock" xlink:title="micropython">
<ellipse fill="#35b779" stroke="black" cx="972.02" cy="-278" rx="74.36" ry="18"/>
<text xml:space="preserve" text-anchor="middle" x="972.02" y="-273.32" font-family="Times,serif" font-size="14.00">micropython</text>
</a>
</g>
</g>
<!-- adios2&#45;&gt;micropython -->
<!-- wasmer -->
<g id="node20" class="node">
<title>wasmer</title>
<g id="a_node20"><a xlink:href="https://github.com/conda-forge/wasmer-feedstock" xlink:title="wasmer">
<ellipse fill="#35b779" stroke="black" cx="972.02" cy="-206" rx="50.68" ry="18"/>
<text xml:space="preserve" text-anchor="middle" x="972.02" y="-201.33" font-family="Times,serif" font-size="14.00">wasmer</text>
</a>
</g>
</g>
<!-- micropython&#45;&gt;wasmer -->
<!-- yosys -->
<g id="node21" class="node">
<title>yosys</title>
<g id="a_node21"><a xlink:href="https://github.com/conda-forge/yosys-feedstock" xlink:title="yosys">
<ellipse fill="#35b779" stroke="black" cx="972.02" cy="-134" rx="39.11" ry="18"/>
<text xml:space="preserve" text-anchor="middle" x="972.02" y="-129.32" font-family="Times,serif" font-size="14.00">yosys</text>
</a>
</g>
</g>
<!-- wasmer&#45;&gt;yosys -->
</g>
</svg>
