<?xml version="1.0" encoding="UTF-8" standalone="no"?>
<!DOCTYPE svg PUBLIC "-//W3C//DTD SVG 1.1//EN"
 "http://www.w3.org/Graphics/SVG/1.1/DTD/svg11.dtd">
<!-- Generated by graphviz version 13.1.2 (20250809.0930)
 -->
<!-- Pages: 1 -->
<svg width="780pt" height="232pt"
 viewBox="0.00 0.00 780.00 232.00" xmlns="http://www.w3.org/2000/svg" xmlns:xlink="http://www.w3.org/1999/xlink">
<g id="graph0" class="graph" transform="scale(1 1) rotate(0) translate(4 228)">
<polygon fill="white" stroke="none" points="-4,4 -4,-228 776.23,-228 776.23,4 -4,4"/>
<!-- gap -->
<g id="node1" class="node">
<title>gap</title>
<g id="a_node1"><a xlink:href="https://github.com/conda-forge/gap-feedstock" xlink:title="gap">
<ellipse fill="#fde725" stroke="black" cx="450.29" cy="-134" rx="29.64" ry="18"/>
<text xml:space="preserve" text-anchor="middle" x="450.29" y="-129.32" font-family="Times,serif" font-size="14.00">gap</text>
</a>
</g>
</g>
<!-- sagelib -->
<g id="node4" class="node">
<title>sagelib</title>
<g id="a_node4"><a xlink:href="https://github.com/conda-forge/sagelib-feedstock" xlink:title="sagelib">
<ellipse fill="#fde725" stroke="black" cx="502.29" cy="-62" rx="47" ry="18"/>
<text xml:space="preserve" text-anchor="middle" x="502.29" y="-57.33" font-family="Times,serif" font-size="14.00">sagelib</text>
</a>
</g>
</g>
<!-- gap&#45;&gt;sagelib -->
<g id="edge1" class="edge">
<title>gap&#45;&gt;sagelib</title>
<path fill="none" stroke="black" d="M462.09,-117.12C468.3,-108.77 476.05,-98.32 483.1,-88.84"/>
<polygon fill="black" stroke="black" points="485.76,-91.13 488.91,-81.01 480.14,-86.95 485.76,-91.13"/>
</g>
<!-- linbox -->
<g id="node2" class="node">
<title>linbox</title>
<g id="a_node2"><a xlink:href="https://github.com/conda-forge/linbox-feedstock/pull/33" xlink:title="linbox ❎">
<ellipse fill="#31688e" stroke="black" cx="555.29" cy="-134" rx="57" ry="18"/>
<text xml:space="preserve" text-anchor="middle" x="555.29" y="-129.32" font-family="Times,serif" font-size="14.00" fill="white">linbox ❎</text>
</a>
</g>
</g>
<!-- linbox&#45;&gt;sagelib -->
<g id="edge2" class="edge">
<title>linbox&#45;&gt;sagelib</title>
<path fill="none" stroke="black" d="M542.46,-116.05C536.28,-107.89 528.73,-97.91 521.85,-88.82"/>
<polygon fill="black" stroke="black" points="524.75,-86.86 515.92,-81 519.16,-91.08 524.75,-86.86"/>
</g>
<!-- python&#45;symengine -->
<g id="node3" class="node">
<title>python&#45;symengine</title>
<g id="a_node3"><a xlink:href="https://github.com/conda-forge/python-symengine-feedstock" xlink:title="python symengine">
<ellipse fill="#fde725" stroke="black" cx="103.29" cy="-98" rx="103.29" ry="18"/>
<text xml:space="preserve" text-anchor="middle" x="103.29" y="-93.33" font-family="Times,serif" font-size="14.00">python symengine</text>
</a>
</g>
</g>
<!-- symengine -->
<g id="node5" class="node">
<title>symengine</title>
<g id="a_node5"><a xlink:href="https://github.com/conda-forge/symengine-feedstock/pull/63" xlink:title="symengine ✓">
<ellipse fill="#31688e" stroke="black" cx="200.29" cy="-170" rx="73.3" ry="18"/>
<text xml:space="preserve" text-anchor="middle" x="200.29" y="-165.33" font-family="Times,serif" font-size="14.00" fill="white">symengine ✓</text>
</a>
</g>
</g>
<!-- symengine&#45;&gt;python&#45;symengine -->
<g id="edge3" class="edge">
<title>symengine&#45;&gt;python&#45;symengine</title>
<path fill="none" stroke="black" d="M177.8,-152.76C165.34,-143.77 149.63,-132.44 135.85,-122.49"/>
<polygon fill="black" stroke="black" points="138.07,-119.78 127.91,-116.76 133.97,-125.45 138.07,-119.78"/>
</g>
<!-- r&#45;symengine -->
<g id="node7" class="node">
<title>r&#45;symengine</title>
<g id="a_node7"><a xlink:href="https://github.com/conda-forge/r-symengine-feedstock" xlink:title="r symengine">
<ellipse fill="#fde725" stroke="black" cx="298.29" cy="-98" rx="73.3" ry="18"/>
<text xml:space="preserve" text-anchor="middle" x="298.29" y="-93.33" font-family="Times,serif" font-size="14.00">r symengine</text>
</a>
</g>
</g>
<!-- symengine&#45;&gt;r&#45;symengine -->
<g id="edge4" class="edge">
<title>symengine&#45;&gt;r&#45;symengine</title>
<path fill="none" stroke="black" d="M223.02,-152.76C235.79,-143.64 251.95,-132.1 266.01,-122.06"/>
<polygon fill="black" stroke="black" points="268.01,-124.93 274.12,-116.27 263.94,-119.23 268.01,-124.93"/>
</g>
<!-- normaliz -->
<g id="node6" class="node">
<title>normaliz</title>
<g id="a_node6"><a xlink:href="https://github.com/conda-forge/normaliz-feedstock/pull/61" xlink:title="normaliz ❎">
<ellipse fill="#31688e" stroke="black" cx="450.29" cy="-206" rx="70.15" ry="18"/>
<text xml:space="preserve" text-anchor="middle" x="450.29" y="-201.32" font-family="Times,serif" font-size="14.00" fill="white">normaliz ❎</text>
</a>
</g>
</g>
<!-- normaliz&#45;&gt;gap -->
<g id="edge5" class="edge">
<title>normaliz&#45;&gt;gap</title>
<path fill="none" stroke="black" d="M450.29,-187.7C450.29,-180.41 450.29,-171.73 450.29,-163.54"/>
<polygon fill="black" stroke="black" points="453.79,-163.62 450.29,-153.62 446.79,-163.62 453.79,-163.62"/>
</g>
<!-- exact&#45;real -->
<g id="node8" class="node">
<title>exact&#45;real</title>
<g id="a_node8"><a xlink:href="https://github.com/conda-forge/exact-real-feedstock/pull/34" xlink:title="exact real ❎">
<ellipse fill="#31688e" stroke="black" cx="696.29" cy="-170" rx="75.94" ry="18"/>
<text xml:space="preserve" text-anchor="middle" x="696.29" y="-165.33" font-family="Times,serif" font-size="14.00" fill="white">exact real ❎</text>
</a>
</g>
</g>
<!-- flatsurf -->
<g id="node9" class="node">
<title>flatsurf</title>
<g id="a_node9"><a xlink:href="https://github.com/conda-forge/flatsurf-feedstock" xlink:title="flatsurf">
<ellipse fill="#fde725" stroke="black" cx="696.29" cy="-98" rx="47.53" ry="18"/>
<text xml:space="preserve" text-anchor="middle" x="696.29" y="-93.33" font-family="Times,serif" font-size="14.00">flatsurf</text>
</a>
</g>
</g>
<!-- exact&#45;real&#45;&gt;flatsurf -->
<g id="edge6" class="edge">
<title>exact&#45;real&#45;&gt;flatsurf</title>
<path fill="none" stroke="black" d="M696.29,-151.7C696.29,-144.41 696.29,-135.73 696.29,-127.54"/>
<polygon fill="black" stroke="black" points="699.79,-127.62 696.29,-117.62 692.79,-127.62 699.79,-127.62"/>
</g>
<!-- gravelamps -->
<g id="node10" class="node">
<title>gravelamps</title>
<g id="a_node10"><a xlink:href="https://github.com/conda-forge/gravelamps-feedstock/pull/22" xlink:title="gravelamps ✓">
<ellipse fill="#31688e" stroke="black" cx="186.29" cy="-18" rx="77.51" ry="18"/>
<text xml:space="preserve" text-anchor="middle" x="186.29" y="-13.32" font-family="Times,serif" font-size="14.00" fill="white">gravelamps ✓</text>
</a>
</g>
</g>
</g>
</svg>
