<?xml version="1.0" encoding="UTF-8" standalone="no"?>
<!DOCTYPE svg PUBLIC "-//W3C//DTD SVG 1.1//EN"
 "http://www.w3.org/Graphics/SVG/1.1/DTD/svg11.dtd">
<!-- Generated by graphviz version 12.2.1 (20250203.1708)
 -->
<!-- Pages: 1 -->
<svg width="894pt" height="348pt"
 viewBox="0.00 0.00 893.87 348.00" xmlns="http://www.w3.org/2000/svg" xmlns:xlink="http://www.w3.org/1999/xlink">
<g id="graph0" class="graph" transform="scale(1 1) rotate(0) translate(4 344)">
<polygon fill="white" stroke="none" points="-4,4 -4,-344 889.87,-344 889.87,4 -4,4"/>
<!-- arb -->
<g id="node1" class="node">
<title>arb</title>
<g id="a_node1"><a xlink:href="https://github.com/conda-forge/arb-feedstock" xlink:title="arb">
<ellipse fill="#ff8c00" stroke="black" cx="247" cy="-18" rx="28.06" ry="18"/>
<text text-anchor="middle" x="247" y="-13.32" font-family="Times,serif" font-size="14.00">arb</text>
</a>
</g>
</g>
<!-- eclib -->
<g id="node2" class="node">
<title>eclib</title>
<g id="a_node2"><a xlink:href="https://github.com/conda-forge/eclib-feedstock/pull/50" xlink:title="eclib ❎">
<ellipse fill="#31688e" stroke="black" cx="443" cy="-178" rx="50.16" ry="18"/>
<text text-anchor="middle" x="443" y="-173.32" font-family="Times,serif" font-size="14.00" fill="white">eclib ❎</text>
</a>
</g>
</g>
<!-- sagelib -->
<g id="node6" class="node">
<title>sagelib</title>
<g id="a_node6"><a xlink:href="https://github.com/conda-forge/sagelib-feedstock" xlink:title="sagelib">
<ellipse fill="#fde725" stroke="black" cx="336" cy="-106" rx="47" ry="18"/>
<text text-anchor="middle" x="336" y="-101.33" font-family="Times,serif" font-size="14.00">sagelib</text>
</a>
</g>
</g>
<!-- eclib&#45;&gt;sagelib -->
<g id="edge1" class="edge">
<title>eclib&#45;&gt;sagelib</title>
<path fill="none" stroke="black" d="M419.51,-161.64C404.5,-151.81 384.82,-138.94 368.33,-128.15"/>
<polygon fill="black" stroke="black" points="370.61,-125.46 360.32,-122.91 366.77,-131.32 370.61,-125.46"/>
</g>
<!-- gap -->
<g id="node3" class="node">
<title>gap</title>
<g id="a_node3"><a xlink:href="https://github.com/conda-forge/gap-feedstock" xlink:title="gap">
<ellipse fill="#fde725" stroke="black" cx="307" cy="-178" rx="29.64" ry="18"/>
<text text-anchor="middle" x="307" y="-173.32" font-family="Times,serif" font-size="14.00">gap</text>
</a>
</g>
</g>
<!-- gap&#45;&gt;sagelib -->
<g id="edge2" class="edge">
<title>gap&#45;&gt;sagelib</title>
<path fill="none" stroke="black" d="M314.02,-160.05C317.17,-152.43 320.99,-143.23 324.54,-134.65"/>
<polygon fill="black" stroke="black" points="327.67,-136.25 328.26,-125.67 321.2,-133.57 327.67,-136.25"/>
</g>
<!-- linbox -->
<g id="node4" class="node">
<title>linbox</title>
<g id="a_node4"><a xlink:href="https://github.com/conda-forge/linbox-feedstock/pull/30" xlink:title="linbox ❎">
<ellipse fill="#31688e" stroke="black" cx="57" cy="-178" rx="57" ry="18"/>
<text text-anchor="middle" x="57" y="-173.32" font-family="Times,serif" font-size="14.00" fill="white">linbox ❎</text>
</a>
</g>
</g>
<!-- linbox&#45;&gt;sagelib -->
<g id="edge3" class="edge">
<title>linbox&#45;&gt;sagelib</title>
<path fill="none" stroke="black" d="M99.94,-165.88C107.61,-163.91 115.54,-161.89 123,-160 178.78,-145.88 242.86,-129.97 286.05,-119.31"/>
<polygon fill="black" stroke="black" points="286.76,-122.73 295.63,-116.94 285.09,-115.94 286.76,-122.73"/>
</g>
<!-- python&#45;symengine -->
<g id="node5" class="node">
<title>python&#45;symengine</title>
<g id="a_node5"><a xlink:href="https://github.com/conda-forge/python-symengine-feedstock" xlink:title="python symengine">
<ellipse fill="#35b779" stroke="black" cx="604" cy="-214" rx="103.29" ry="18"/>
<text text-anchor="middle" x="604" y="-209.32" font-family="Times,serif" font-size="14.00">python symengine</text>
</a>
</g>
</g>
<!-- singular -->
<g id="node7" class="node">
<title>singular</title>
<g id="a_node7"><a xlink:href="https://github.com/conda-forge/singular-feedstock/pull/30" xlink:title="singular ✓">
<ellipse fill="#31688e" stroke="black" cx="396" cy="-250" rx="60.15" ry="18"/>
<text text-anchor="middle" x="396" y="-245.32" font-family="Times,serif" font-size="14.00" fill="white">singular ✓</text>
</a>
</g>
</g>
<!-- singular&#45;&gt;gap -->
<g id="edge4" class="edge">
<title>singular&#45;&gt;gap</title>
<path fill="none" stroke="black" d="M375.35,-232.76C362.84,-222.92 346.74,-210.26 333.32,-199.7"/>
<polygon fill="black" stroke="black" points="335.74,-197.15 325.72,-193.72 331.41,-202.66 335.74,-197.15"/>
</g>
<!-- singular&#45;&gt;sagelib -->
<g id="edge5" class="edge">
<title>singular&#45;&gt;sagelib</title>
<path fill="none" stroke="black" d="M388.76,-231.87C378.58,-207.78 359.91,-163.6 347.73,-134.77"/>
<polygon fill="black" stroke="black" points="350.96,-133.43 343.85,-125.58 344.52,-136.16 350.96,-133.43"/>
</g>
<!-- python&#45;flint -->
<g id="node8" class="node">
<title>python&#45;flint</title>
<g id="a_node8"><a xlink:href="https://github.com/conda-forge/python-flint-feedstock" xlink:title="python flint">
<ellipse fill="#ff8c00" stroke="black" cx="604" cy="-62" rx="69.1" ry="18"/>
<text text-anchor="middle" x="604" y="-57.33" font-family="Times,serif" font-size="14.00">python flint</text>
</a>
</g>
</g>
<!-- e&#45;antic -->
<g id="node9" class="node">
<title>e&#45;antic</title>
<g id="a_node9"><a xlink:href="https://github.com/conda-forge/e-antic-feedstock/pull/66" xlink:title="e antic ❎">
<ellipse fill="#31688e" stroke="black" cx="180" cy="-322" rx="60.15" ry="18"/>
<text text-anchor="middle" x="180" y="-317.32" font-family="Times,serif" font-size="14.00" fill="white">e antic ❎</text>
</a>
</g>
</g>
<!-- normaliz -->
<g id="node10" class="node">
<title>normaliz</title>
<g id="a_node10"><a xlink:href="https://github.com/conda-forge/normaliz-feedstock" xlink:title="normaliz">
<ellipse fill="#fde725" stroke="black" cx="263" cy="-250" rx="54.89" ry="18"/>
<text text-anchor="middle" x="263" y="-245.32" font-family="Times,serif" font-size="14.00">normaliz</text>
</a>
</g>
</g>
<!-- e&#45;antic&#45;&gt;normaliz -->
<g id="edge8" class="edge">
<title>e&#45;antic&#45;&gt;normaliz</title>
<path fill="none" stroke="black" d="M199.25,-304.76C209.93,-295.75 223.41,-284.39 235.22,-274.43"/>
<polygon fill="black" stroke="black" points="237.3,-277.25 242.69,-268.12 232.79,-271.89 237.3,-277.25"/>
</g>
<!-- exact&#45;real -->
<g id="node13" class="node">
<title>exact&#45;real</title>
<g id="a_node13"><a xlink:href="https://github.com/conda-forge/exact-real-feedstock" xlink:title="exact real">
<ellipse fill="#fde725" stroke="black" cx="91" cy="-250" rx="60.68" ry="18"/>
<text text-anchor="middle" x="91" y="-245.32" font-family="Times,serif" font-size="14.00">exact real</text>
</a>
</g>
</g>
<!-- e&#45;antic&#45;&gt;exact&#45;real -->
<g id="edge6" class="edge">
<title>e&#45;antic&#45;&gt;exact&#45;real</title>
<path fill="none" stroke="black" d="M159.35,-304.76C147.87,-295.73 133.37,-284.33 120.68,-274.35"/>
<polygon fill="black" stroke="black" points="123.05,-271.76 113.02,-268.33 118.72,-277.26 123.05,-271.76"/>
</g>
<!-- flatsurf -->
<g id="node14" class="node">
<title>flatsurf</title>
<g id="a_node14"><a xlink:href="https://github.com/conda-forge/flatsurf-feedstock" xlink:title="flatsurf">
<ellipse fill="#fde725" stroke="black" cx="180" cy="-178" rx="47.53" ry="18"/>
<text text-anchor="middle" x="180" y="-173.32" font-family="Times,serif" font-size="14.00">flatsurf</text>
</a>
</g>
</g>
<!-- e&#45;antic&#45;&gt;flatsurf -->
<g id="edge7" class="edge">
<title>e&#45;antic&#45;&gt;flatsurf</title>
<path fill="none" stroke="black" d="M180,-303.59C180,-279.61 180,-236.14 180,-207.42"/>
<polygon fill="black" stroke="black" points="183.5,-207.62 180,-197.62 176.5,-207.62 183.5,-207.62"/>
</g>
<!-- normaliz&#45;&gt;gap -->
<g id="edge9" class="edge">
<title>normaliz&#45;&gt;gap</title>
<path fill="none" stroke="black" d="M273.65,-232.05C278.75,-223.94 284.97,-214.04 290.65,-205.01"/>
<polygon fill="black" stroke="black" points="293.58,-206.92 295.94,-196.59 287.65,-203.19 293.58,-206.92"/>
</g>
<!-- antic -->
<g id="node11" class="node">
<title>antic</title>
<g id="a_node11"><a xlink:href="https://github.com/conda-forge/antic-feedstock" xlink:title="antic">
<ellipse fill="#ff8c00" stroke="black" cx="801" cy="-62" rx="35.95" ry="18"/>
<text text-anchor="middle" x="801" y="-57.33" font-family="Times,serif" font-size="14.00">antic</text>
</a>
</g>
</g>
<!-- r&#45;symengine -->
<g id="node12" class="node">
<title>r&#45;symengine</title>
<g id="a_node12"><a xlink:href="https://github.com/conda-forge/r-symengine-feedstock" xlink:title="r symengine">
<ellipse fill="#35b779" stroke="black" cx="247" cy="-62" rx="73.3" ry="18"/>
<text text-anchor="middle" x="247" y="-57.33" font-family="Times,serif" font-size="14.00">r symengine</text>
</a>
</g>
</g>
<!-- exact&#45;real&#45;&gt;flatsurf -->
<g id="edge10" class="edge">
<title>exact&#45;real&#45;&gt;flatsurf</title>
<path fill="none" stroke="black" d="M111.64,-232.76C123.37,-223.53 138.25,-211.83 151.13,-201.7"/>
<polygon fill="black" stroke="black" points="153.19,-204.53 158.89,-195.6 148.86,-199.03 153.19,-204.53"/>
</g>
<!-- gravelamps -->
<g id="node15" class="node">
<title>gravelamps</title>
<g id="a_node15"><a xlink:href="https://github.com/conda-forge/gravelamps-feedstock/pull/16" xlink:title="gravelamps ❎">
<ellipse fill="#31688e" stroke="black" cx="801" cy="-214" rx="84.88" ry="18"/>
<text text-anchor="middle" x="801" y="-209.32" font-family="Times,serif" font-size="14.00" fill="white">gravelamps ❎</text>
</a>
</g>
</g>
</g>
</svg>
