<?xml version="1.0" encoding="UTF-8" standalone="no"?>
<!DOCTYPE svg PUBLIC "-//W3C//DTD SVG 1.1//EN"
 "http://www.w3.org/Graphics/SVG/1.1/DTD/svg11.dtd">
<!-- Generated by graphviz version 12.0.0 (20240803.0821)
 -->
<!-- Pages: 1 -->
<svg width="904pt" height="376pt"
 viewBox="0.00 0.00 904.00 376.00" xmlns="http://www.w3.org/2000/svg" xmlns:xlink="http://www.w3.org/1999/xlink">
<g id="graph0" class="graph" transform="scale(1 1) rotate(0) translate(4 372)">
<polygon fill="white" stroke="none" points="-4,4 -4,-372 900,-372 900,4 -4,4"/>
<!-- arb -->
<g id="node1" class="node">
<title>arb</title>
<g id="a_node1"><a xlink:href="https://github.com/conda-forge/arb-feedstock/pull/37" xlink:title="arb ❎">
<ellipse fill="#31688e" stroke="black" cx="577.79" cy="-314" rx="43.32" ry="18"/>
<text text-anchor="middle" x="577.79" y="-309.32" font-family="Times,serif" font-size="14.00" fill="white">arb ❎</text>
</a>
</g>
</g>
<!-- mppp -->
<g id="node2" class="node">
<title>mppp</title>
<g id="a_node2"><a xlink:href="https://github.com/conda-forge/mppp-feedstock" xlink:title="mppp">
<ellipse fill="#fde725" stroke="black" cx="543.79" cy="-242" rx="39.63" ry="18"/>
<text text-anchor="middle" x="543.79" y="-237.32" font-family="Times,serif" font-size="14.00">mppp</text>
</a>
</g>
</g>
<!-- arb&#45;&gt;mppp -->
<g id="edge1" class="edge">
<title>arb&#45;&gt;mppp</title>
<path fill="none" stroke="black" d="M569.56,-296.05C565.76,-288.23 561.15,-278.75 556.89,-269.98"/>
<polygon fill="black" stroke="black" points="560.12,-268.62 552.6,-261.15 553.83,-271.67 560.12,-268.62"/>
</g>
<!-- gravelamps -->
<g id="node3" class="node">
<title>gravelamps</title>
<g id="a_node3"><a xlink:href="https://github.com/conda-forge/gravelamps-feedstock" xlink:title="gravelamps">
<ellipse fill="#fde725" stroke="black" cx="611.79" cy="-170" rx="69.62" ry="18"/>
<text text-anchor="middle" x="611.79" y="-165.32" font-family="Times,serif" font-size="14.00">gravelamps</text>
</a>
</g>
</g>
<!-- arb&#45;&gt;gravelamps -->
<g id="edge2" class="edge">
<title>arb&#45;&gt;gravelamps</title>
<path fill="none" stroke="black" d="M582.94,-295.89C585.98,-285.54 589.8,-272.07 592.79,-260 597.76,-239.94 602.61,-217.14 606.17,-199.64"/>
<polygon fill="black" stroke="black" points="609.58,-200.45 608.11,-189.96 602.71,-199.07 609.58,-200.45"/>
</g>
<!-- eclib -->
<g id="node4" class="node">
<title>eclib</title>
<g id="a_node4"><a xlink:href="https://github.com/conda-forge/eclib-feedstock/pull/47" xlink:title="eclib ❎">
<ellipse fill="#31688e" stroke="black" cx="220.53" cy="-206" rx="50.16" ry="18"/>
<text text-anchor="middle" x="220.53" y="-201.33" font-family="Times,serif" font-size="14.00" fill="white">eclib ❎</text>
</a>
</g>
</g>
<!-- sagelib -->
<g id="node5" class="node">
<title>sagelib</title>
<g id="a_node5"><a xlink:href="https://github.com/conda-forge/sagelib-feedstock" xlink:title="sagelib">
<ellipse fill="#fde725" stroke="black" cx="347.53" cy="-134" rx="47" ry="18"/>
<text text-anchor="middle" x="347.53" y="-129.32" font-family="Times,serif" font-size="14.00">sagelib</text>
</a>
</g>
</g>
<!-- eclib&#45;&gt;sagelib -->
<g id="edge3" class="edge">
<title>eclib&#45;&gt;sagelib</title>
<path fill="none" stroke="black" d="M247.15,-190.33C265.82,-180.04 290.99,-166.16 311.46,-154.88"/>
<polygon fill="black" stroke="black" points="312.98,-158.04 320.05,-150.15 309.6,-151.91 312.98,-158.04"/>
</g>
<!-- gap -->
<g id="node6" class="node">
<title>gap</title>
<g id="a_node6"><a xlink:href="https://github.com/conda-forge/gap-feedstock" xlink:title="gap">
<ellipse fill="#fde725" stroke="black" cx="318.53" cy="-206" rx="29.64" ry="18"/>
<text text-anchor="middle" x="318.53" y="-201.33" font-family="Times,serif" font-size="14.00">gap</text>
</a>
</g>
</g>
<!-- gap&#45;&gt;sagelib -->
<g id="edge4" class="edge">
<title>gap&#45;&gt;sagelib</title>
<path fill="none" stroke="black" d="M325.55,-188.05C328.7,-180.43 332.52,-171.23 336.07,-162.65"/>
<polygon fill="black" stroke="black" points="339.2,-164.25 339.79,-153.67 332.73,-161.57 339.2,-164.25"/>
</g>
<!-- linbox -->
<g id="node7" class="node">
<title>linbox</title>
<g id="a_node7"><a xlink:href="https://github.com/conda-forge/linbox-feedstock/pull/29" xlink:title="linbox ✓">
<ellipse fill="#31688e" stroke="black" cx="446.53" cy="-278" rx="49.63" ry="18"/>
<text text-anchor="middle" x="446.53" y="-273.32" font-family="Times,serif" font-size="14.00" fill="white">linbox ✓</text>
</a>
</g>
</g>
<!-- linbox&#45;&gt;sagelib -->
<g id="edge5" class="edge">
<title>linbox&#45;&gt;sagelib</title>
<path fill="none" stroke="black" d="M434.78,-260.15C417.66,-235.6 385.71,-189.77 365.59,-160.91"/>
<polygon fill="black" stroke="black" points="368.71,-159.27 360.12,-153.07 362.97,-163.27 368.71,-159.27"/>
</g>
<!-- python&#45;symengine -->
<g id="node8" class="node">
<title>python&#45;symengine</title>
<g id="a_node8"><a xlink:href="https://github.com/conda-forge/python-symengine-feedstock" xlink:title="python symengine">
<ellipse fill="#fde725" stroke="black" cx="792.7" cy="-206" rx="103.29" ry="18"/>
<text text-anchor="middle" x="792.7" y="-201.32" font-family="Times,serif" font-size="14.00">python symengine</text>
</a>
</g>
</g>
<!-- singular -->
<g id="node9" class="node">
<title>singular</title>
<g id="a_node9"><a xlink:href="https://github.com/conda-forge/singular-feedstock/pull/28" xlink:title="singular ✓">
<ellipse fill="#31688e" stroke="black" cx="318.53" cy="-278" rx="60.15" ry="18"/>
<text text-anchor="middle" x="318.53" y="-273.32" font-family="Times,serif" font-size="14.00" fill="white">singular ✓</text>
</a>
</g>
</g>
<!-- singular&#45;&gt;sagelib -->
<g id="edge6" class="edge">
<title>singular&#45;&gt;sagelib</title>
<path fill="none" stroke="black" d="M335.01,-260.46C343.52,-250.73 353.04,-237.68 357.53,-224 363.98,-204.34 361.02,-181.07 356.69,-163.26"/>
<polygon fill="black" stroke="black" points="360.07,-162.35 354.06,-153.63 353.32,-164.2 360.07,-162.35"/>
</g>
<!-- singular&#45;&gt;gap -->
<g id="edge7" class="edge">
<title>singular&#45;&gt;gap</title>
<path fill="none" stroke="black" d="M318.53,-259.7C318.53,-252.41 318.53,-243.73 318.53,-235.54"/>
<polygon fill="black" stroke="black" points="322.03,-235.62 318.53,-225.62 315.03,-235.62 322.03,-235.62"/>
</g>
<!-- symengine -->
<g id="node10" class="node">
<title>symengine</title>
<g id="a_node10"><a xlink:href="https://github.com/conda-forge/symengine-feedstock/pull/59" xlink:title="symengine ❎">
<ellipse fill="#31688e" stroke="black" cx="792.7" cy="-278" rx="80.67" ry="18"/>
<text text-anchor="middle" x="792.7" y="-273.32" font-family="Times,serif" font-size="14.00" fill="white">symengine ❎</text>
</a>
</g>
</g>
<!-- symengine&#45;&gt;python&#45;symengine -->
<g id="edge8" class="edge">
<title>symengine&#45;&gt;python&#45;symengine</title>
<path fill="none" stroke="black" d="M792.7,-259.7C792.7,-252.41 792.7,-243.73 792.7,-235.54"/>
<polygon fill="black" stroke="black" points="796.2,-235.62 792.7,-225.62 789.2,-235.62 796.2,-235.62"/>
</g>
<!-- python&#45;flint -->
<g id="node11" class="node">
<title>python&#45;flint</title>
<g id="a_node11"><a xlink:href="https://github.com/conda-forge/python-flint-feedstock/pull/43" xlink:title="python flint ❎">
<ellipse fill="#31688e" stroke="black" cx="248.08" cy="-90" rx="84.35" ry="18"/>
<text text-anchor="middle" x="248.08" y="-85.33" font-family="Times,serif" font-size="14.00" fill="white">python flint ❎</text>
</a>
</g>
</g>
<!-- antic -->
<g id="node12" class="node">
<title>antic</title>
<g id="a_node12"><a xlink:href="https://github.com/conda-forge/antic-feedstock/pull/14" xlink:title="antic ❎">
<ellipse fill="#31688e" stroke="black" cx="248.08" cy="-18" rx="51.21" ry="18"/>
<text text-anchor="middle" x="248.08" y="-13.32" font-family="Times,serif" font-size="14.00" fill="white">antic ❎</text>
</a>
</g>
</g>
<!-- python&#45;flint&#45;&gt;antic -->
<!-- e&#45;antic -->
<g id="node13" class="node">
<title>e&#45;antic</title>
<g id="a_node13"><a xlink:href="https://github.com/conda-forge/e-antic-feedstock/pull/61" xlink:title="e antic ❎">
<ellipse fill="#31688e" stroke="black" cx="91.53" cy="-350" rx="60.15" ry="18"/>
<text text-anchor="middle" x="91.53" y="-345.32" font-family="Times,serif" font-size="14.00" fill="white">e antic ❎</text>
</a>
</g>
</g>
<!-- normaliz -->
<g id="node14" class="node">
<title>normaliz</title>
<g id="a_node14"><a xlink:href="https://github.com/conda-forge/normaliz-feedstock" xlink:title="normaliz">
<ellipse fill="#fde725" stroke="black" cx="180.53" cy="-278" rx="54.89" ry="18"/>
<text text-anchor="middle" x="180.53" y="-273.32" font-family="Times,serif" font-size="14.00">normaliz</text>
</a>
</g>
</g>
<!-- e&#45;antic&#45;&gt;normaliz -->
<g id="edge10" class="edge">
<title>e&#45;antic&#45;&gt;normaliz</title>
<path fill="none" stroke="black" d="M112.17,-332.76C123.74,-323.66 138.36,-312.16 151.11,-302.13"/>
<polygon fill="black" stroke="black" points="153.11,-305.02 158.81,-296.08 148.78,-299.51 153.11,-305.02"/>
</g>
<!-- exact&#45;real -->
<g id="node15" class="node">
<title>exact&#45;real</title>
<g id="a_node15"><a xlink:href="https://github.com/conda-forge/exact-real-feedstock" xlink:title="exact real">
<ellipse fill="#fde725" stroke="black" cx="91.53" cy="-206" rx="60.68" ry="18"/>
<text text-anchor="middle" x="91.53" y="-201.33" font-family="Times,serif" font-size="14.00">exact real</text>
</a>
</g>
</g>
<!-- e&#45;antic&#45;&gt;exact&#45;real -->
<g id="edge11" class="edge">
<title>e&#45;antic&#45;&gt;exact&#45;real</title>
<path fill="none" stroke="black" d="M91.53,-331.59C91.53,-307.61 91.53,-264.14 91.53,-235.42"/>
<polygon fill="black" stroke="black" points="95.03,-235.62 91.53,-225.62 88.03,-235.62 95.03,-235.62"/>
</g>
<!-- flatsurf -->
<g id="node16" class="node">
<title>flatsurf</title>
<g id="a_node16"><a xlink:href="https://github.com/conda-forge/flatsurf-feedstock" xlink:title="flatsurf">
<ellipse fill="#fde725" stroke="black" cx="47.53" cy="-134" rx="47.53" ry="18"/>
<text text-anchor="middle" x="47.53" y="-129.32" font-family="Times,serif" font-size="14.00">flatsurf</text>
</a>
</g>
</g>
<!-- e&#45;antic&#45;&gt;flatsurf -->
<g id="edge12" class="edge">
<title>e&#45;antic&#45;&gt;flatsurf</title>
<path fill="none" stroke="black" d="M78.24,-332.03C61.19,-309.06 32.51,-266.12 21.53,-224 17.49,-208.52 17.91,-203.59 21.53,-188 23.59,-179.11 27.36,-170 31.4,-161.89"/>
<polygon fill="black" stroke="black" points="34.39,-163.72 36.03,-153.25 28.22,-160.41 34.39,-163.72"/>
</g>
<!-- normaliz&#45;&gt;gap -->
<g id="edge13" class="edge">
<title>normaliz&#45;&gt;gap</title>
<path fill="none" stroke="black" d="M209.45,-262.33C231.94,-250.92 263.1,-235.11 286.36,-223.31"/>
<polygon fill="black" stroke="black" points="287.75,-226.54 295.08,-218.89 284.58,-220.29 287.75,-226.54"/>
</g>
<!-- exact&#45;real&#45;&gt;flatsurf -->
<g id="edge14" class="edge">
<title>exact&#45;real&#45;&gt;flatsurf</title>
<path fill="none" stroke="black" d="M80.87,-188.05C75.85,-180.06 69.73,-170.33 64.12,-161.4"/>
<polygon fill="black" stroke="black" points="67.17,-159.67 58.88,-153.07 61.24,-163.4 67.17,-159.67"/>
</g>
</g>
</svg>
