<?xml version="1.0" encoding="UTF-8" standalone="no"?>
<!DOCTYPE svg PUBLIC "-//W3C//DTD SVG 1.1//EN"
 "http://www.w3.org/Graphics/SVG/1.1/DTD/svg11.dtd">
<!-- Generated by graphviz version 12.0.0 (20240803.0821)
 -->
<!-- Pages: 1 -->
<svg width="719pt" height="348pt"
 viewBox="0.00 0.00 718.64 348.00" xmlns="http://www.w3.org/2000/svg" xmlns:xlink="http://www.w3.org/1999/xlink">
<g id="graph0" class="graph" transform="scale(1 1) rotate(0) translate(4 344)">
<polygon fill="white" stroke="none" points="-4,4 -4,-344 714.64,-344 714.64,4 -4,4"/>
<!-- gap -->
<g id="node1" class="node">
<title>gap</title>
<g id="a_node1"><a xlink:href="https://github.com/conda-forge/gap-feedstock" xlink:title="gap">
<ellipse fill="#fde725" stroke="black" cx="54.89" cy="-178" rx="29.64" ry="18"/>
<text text-anchor="middle" x="54.89" y="-173.32" font-family="Times,serif" font-size="14.00">gap</text>
</a>
</g>
</g>
<!-- sagelib -->
<g id="node4" class="node">
<title>sagelib</title>
<g id="a_node4"><a xlink:href="https://github.com/conda-forge/sagelib-feedstock" xlink:title="sagelib">
<ellipse fill="#fde725" stroke="black" cx="54.89" cy="-106" rx="47" ry="18"/>
<text text-anchor="middle" x="54.89" y="-101.33" font-family="Times,serif" font-size="14.00">sagelib</text>
</a>
</g>
</g>
<!-- gap&#45;&gt;sagelib -->
<g id="edge1" class="edge">
<title>gap&#45;&gt;sagelib</title>
<path fill="none" stroke="black" d="M54.89,-159.7C54.89,-152.41 54.89,-143.73 54.89,-135.54"/>
<polygon fill="black" stroke="black" points="58.39,-135.62 54.89,-125.62 51.39,-135.62 58.39,-135.62"/>
</g>
<!-- mppp -->
<g id="node2" class="node">
<title>mppp</title>
<g id="a_node2"><a xlink:href="https://github.com/conda-forge/mppp-feedstock/pull/64" xlink:title="mppp ❎">
<ellipse fill="#31688e" stroke="black" cx="622.08" cy="-62" rx="54.89" ry="18"/>
<text text-anchor="middle" x="622.08" y="-57.33" font-family="Times,serif" font-size="14.00" fill="white">mppp ❎</text>
</a>
</g>
</g>
<!-- python&#45;symengine -->
<g id="node3" class="node">
<title>python&#45;symengine</title>
<g id="a_node3"><a xlink:href="https://github.com/conda-forge/python-symengine-feedstock/pull/57" xlink:title="python symengine ❎">
<ellipse fill="#31688e" stroke="black" cx="406.97" cy="-214" rx="118.55" ry="18"/>
<text text-anchor="middle" x="406.97" y="-209.32" font-family="Times,serif" font-size="14.00" fill="white">python symengine ❎</text>
</a>
</g>
</g>
<!-- python&#45;flint -->
<g id="node5" class="node">
<title>python&#45;flint</title>
<g id="a_node5"><a xlink:href="https://github.com/conda-forge/python-flint-feedstock/pull/43" xlink:title="python flint ❎">
<ellipse fill="#31688e" stroke="black" cx="406.97" cy="-62" rx="84.35" ry="18"/>
<text text-anchor="middle" x="406.97" y="-57.33" font-family="Times,serif" font-size="14.00" fill="white">python flint ❎</text>
</a>
</g>
</g>
<!-- e&#45;antic -->
<g id="node6" class="node">
<title>e&#45;antic</title>
<g id="a_node6"><a xlink:href="https://github.com/conda-forge/e-antic-feedstock/pull/61" xlink:title="e antic ❎">
<ellipse fill="#31688e" stroke="black" cx="188.89" cy="-322" rx="60.15" ry="18"/>
<text text-anchor="middle" x="188.89" y="-317.32" font-family="Times,serif" font-size="14.00" fill="white">e antic ❎</text>
</a>
</g>
</g>
<!-- normaliz -->
<g id="node7" class="node">
<title>normaliz</title>
<g id="a_node7"><a xlink:href="https://github.com/conda-forge/normaliz-feedstock" xlink:title="normaliz">
<ellipse fill="#fde725" stroke="black" cx="54.89" cy="-250" rx="54.89" ry="18"/>
<text text-anchor="middle" x="54.89" y="-245.32" font-family="Times,serif" font-size="14.00">normaliz</text>
</a>
</g>
</g>
<!-- e&#45;antic&#45;&gt;normaliz -->
<g id="edge4" class="edge">
<title>e&#45;antic&#45;&gt;normaliz</title>
<path fill="none" stroke="black" d="M159.81,-305.81C140.23,-295.58 114.21,-281.99 92.98,-270.9"/>
<polygon fill="black" stroke="black" points="94.82,-267.91 84.33,-266.38 91.58,-274.11 94.82,-267.91"/>
</g>
<!-- exact&#45;real -->
<g id="node10" class="node">
<title>exact&#45;real</title>
<g id="a_node10"><a xlink:href="https://github.com/conda-forge/exact-real-feedstock" xlink:title="exact real">
<ellipse fill="#fde725" stroke="black" cx="188.89" cy="-250" rx="60.68" ry="18"/>
<text text-anchor="middle" x="188.89" y="-245.32" font-family="Times,serif" font-size="14.00">exact real</text>
</a>
</g>
</g>
<!-- e&#45;antic&#45;&gt;exact&#45;real -->
<g id="edge2" class="edge">
<title>e&#45;antic&#45;&gt;exact&#45;real</title>
<path fill="none" stroke="black" d="M188.89,-303.7C188.89,-296.41 188.89,-287.73 188.89,-279.54"/>
<polygon fill="black" stroke="black" points="192.39,-279.62 188.89,-269.62 185.39,-279.62 192.39,-279.62"/>
</g>
<!-- flatsurf -->
<g id="node11" class="node">
<title>flatsurf</title>
<g id="a_node11"><a xlink:href="https://github.com/conda-forge/flatsurf-feedstock" xlink:title="flatsurf">
<ellipse fill="#fde725" stroke="black" cx="232.89" cy="-178" rx="47.53" ry="18"/>
<text text-anchor="middle" x="232.89" y="-173.32" font-family="Times,serif" font-size="14.00">flatsurf</text>
</a>
</g>
</g>
<!-- e&#45;antic&#45;&gt;flatsurf -->
<g id="edge3" class="edge">
<title>e&#45;antic&#45;&gt;flatsurf</title>
<path fill="none" stroke="black" d="M219.91,-306.11C234.59,-297.26 250.68,-284.52 258.89,-268 268.77,-248.12 260.46,-223.82 250.69,-205.64"/>
<polygon fill="black" stroke="black" points="253.72,-203.9 245.66,-197.03 247.68,-207.43 253.72,-203.9"/>
</g>
<!-- normaliz&#45;&gt;gap -->
<g id="edge5" class="edge">
<title>normaliz&#45;&gt;gap</title>
<path fill="none" stroke="black" d="M54.89,-231.7C54.89,-224.41 54.89,-215.73 54.89,-207.54"/>
<polygon fill="black" stroke="black" points="58.39,-207.62 54.89,-197.62 51.39,-207.62 58.39,-207.62"/>
</g>
<!-- antic -->
<g id="node8" class="node">
<title>antic</title>
<g id="a_node8"><a xlink:href="https://github.com/conda-forge/antic-feedstock/pull/14" xlink:title="antic ❎">
<ellipse fill="#31688e" stroke="black" cx="140.21" cy="-18" rx="51.21" ry="18"/>
<text text-anchor="middle" x="140.21" y="-13.32" font-family="Times,serif" font-size="14.00" fill="white">antic ❎</text>
</a>
</g>
</g>
<!-- r&#45;symengine -->
<g id="node9" class="node">
<title>r&#45;symengine</title>
<g id="a_node9"><a xlink:href="https://github.com/conda-forge/r-symengine-feedstock/pull/12" xlink:title="r symengine ❎">
<ellipse fill="#31688e" stroke="black" cx="622.08" cy="-214" rx="88.56" ry="18"/>
<text text-anchor="middle" x="622.08" y="-209.32" font-family="Times,serif" font-size="14.00" fill="white">r symengine ❎</text>
</a>
</g>
</g>
<!-- exact&#45;real&#45;&gt;flatsurf -->
<g id="edge6" class="edge">
<title>exact&#45;real&#45;&gt;flatsurf</title>
<path fill="none" stroke="black" d="M199.54,-232.05C204.57,-224.06 210.68,-214.33 216.3,-205.4"/>
<polygon fill="black" stroke="black" points="219.17,-207.4 221.53,-197.07 213.25,-203.67 219.17,-207.4"/>
</g>
<!-- gravelamps -->
<g id="node12" class="node">
<title>gravelamps</title>
<g id="a_node12"><a xlink:href="https://github.com/conda-forge/gravelamps-feedstock/pull/12" xlink:title="gravelamps ❎">
<ellipse fill="#31688e" stroke="black" cx="140.21" cy="-62" rx="84.88" ry="18"/>
<text text-anchor="middle" x="140.21" y="-57.33" font-family="Times,serif" font-size="14.00" fill="white">gravelamps ❎</text>
</a>
</g>
</g>
</g>
</svg>
