<?xml version="1.0" encoding="UTF-8" standalone="no"?>
<!DOCTYPE svg PUBLIC "-//W3C//DTD SVG 1.1//EN"
 "http://www.w3.org/Graphics/SVG/1.1/DTD/svg11.dtd">
<!-- Generated by graphviz version 12.0.0 (20240803.0821)
 -->
<!-- Pages: 1 -->
<svg width="651pt" height="304pt"
 viewBox="0.00 0.00 651.30 304.00" xmlns="http://www.w3.org/2000/svg" xmlns:xlink="http://www.w3.org/1999/xlink">
<g id="graph0" class="graph" transform="scale(1 1) rotate(0) translate(4 300)">
<polygon fill="white" stroke="none" points="-4,4 -4,-300 647.3,-300 647.3,4 -4,4"/>
<!-- gap -->
<g id="node1" class="node">
<title>gap</title>
<g id="a_node1"><a xlink:href="https://github.com/conda-forge/gap-feedstock" xlink:title="gap">
<ellipse fill="#fde725" stroke="black" cx="54.89" cy="-134" rx="29.64" ry="18"/>
<text text-anchor="middle" x="54.89" y="-129.32" font-family="Times,serif" font-size="14.00">gap</text>
</a>
</g>
</g>
<!-- sagelib -->
<g id="node3" class="node">
<title>sagelib</title>
<g id="a_node3"><a xlink:href="https://github.com/conda-forge/sagelib-feedstock" xlink:title="sagelib">
<ellipse fill="#fde725" stroke="black" cx="54.89" cy="-62" rx="47" ry="18"/>
<text text-anchor="middle" x="54.89" y="-57.33" font-family="Times,serif" font-size="14.00">sagelib</text>
</a>
</g>
</g>
<!-- gap&#45;&gt;sagelib -->
<g id="edge1" class="edge">
<title>gap&#45;&gt;sagelib</title>
<path fill="none" stroke="black" d="M54.89,-115.7C54.89,-108.41 54.89,-99.73 54.89,-91.54"/>
<polygon fill="black" stroke="black" points="58.39,-91.62 54.89,-81.62 51.39,-91.62 58.39,-91.62"/>
</g>
<!-- mppp -->
<g id="node2" class="node">
<title>mppp</title>
<g id="a_node2"><a xlink:href="https://github.com/conda-forge/mppp-feedstock/pull/64" xlink:title="mppp ❎">
<ellipse fill="#31688e" stroke="black" cx="376.98" cy="-18" rx="54.89" ry="18"/>
<text text-anchor="middle" x="376.98" y="-13.32" font-family="Times,serif" font-size="14.00" fill="white">mppp ❎</text>
</a>
</g>
</g>
<!-- python&#45;flint -->
<g id="node4" class="node">
<title>python&#45;flint</title>
<g id="a_node4"><a xlink:href="https://github.com/conda-forge/python-flint-feedstock/pull/43" xlink:title="python flint ❎">
<ellipse fill="#31688e" stroke="black" cx="140.21" cy="-18" rx="84.35" ry="18"/>
<text text-anchor="middle" x="140.21" y="-13.32" font-family="Times,serif" font-size="14.00" fill="white">python flint ❎</text>
</a>
</g>
</g>
<!-- e&#45;antic -->
<g id="node5" class="node">
<title>e&#45;antic</title>
<g id="a_node5"><a xlink:href="https://github.com/conda-forge/e-antic-feedstock/pull/61" xlink:title="e antic ❎">
<ellipse fill="#31688e" stroke="black" cx="188.89" cy="-278" rx="60.15" ry="18"/>
<text text-anchor="middle" x="188.89" y="-273.32" font-family="Times,serif" font-size="14.00" fill="white">e antic ❎</text>
</a>
</g>
</g>
<!-- normaliz -->
<g id="node6" class="node">
<title>normaliz</title>
<g id="a_node6"><a xlink:href="https://github.com/conda-forge/normaliz-feedstock" xlink:title="normaliz">
<ellipse fill="#fde725" stroke="black" cx="54.89" cy="-206" rx="54.89" ry="18"/>
<text text-anchor="middle" x="54.89" y="-201.32" font-family="Times,serif" font-size="14.00">normaliz</text>
</a>
</g>
</g>
<!-- e&#45;antic&#45;&gt;normaliz -->
<g id="edge4" class="edge">
<title>e&#45;antic&#45;&gt;normaliz</title>
<path fill="none" stroke="black" d="M159.81,-261.81C140.23,-251.58 114.21,-237.99 92.98,-226.9"/>
<polygon fill="black" stroke="black" points="94.82,-223.91 84.33,-222.38 91.58,-230.11 94.82,-223.91"/>
</g>
<!-- exact&#45;real -->
<g id="node9" class="node">
<title>exact&#45;real</title>
<g id="a_node9"><a xlink:href="https://github.com/conda-forge/exact-real-feedstock" xlink:title="exact real">
<ellipse fill="#fde725" stroke="black" cx="188.89" cy="-206" rx="60.68" ry="18"/>
<text text-anchor="middle" x="188.89" y="-201.32" font-family="Times,serif" font-size="14.00">exact real</text>
</a>
</g>
</g>
<!-- e&#45;antic&#45;&gt;exact&#45;real -->
<g id="edge2" class="edge">
<title>e&#45;antic&#45;&gt;exact&#45;real</title>
<path fill="none" stroke="black" d="M188.89,-259.7C188.89,-252.41 188.89,-243.73 188.89,-235.54"/>
<polygon fill="black" stroke="black" points="192.39,-235.62 188.89,-225.62 185.39,-235.62 192.39,-235.62"/>
</g>
<!-- flatsurf -->
<g id="node10" class="node">
<title>flatsurf</title>
<g id="a_node10"><a xlink:href="https://github.com/conda-forge/flatsurf-feedstock" xlink:title="flatsurf">
<ellipse fill="#fde725" stroke="black" cx="232.89" cy="-134" rx="47.53" ry="18"/>
<text text-anchor="middle" x="232.89" y="-129.32" font-family="Times,serif" font-size="14.00">flatsurf</text>
</a>
</g>
</g>
<!-- e&#45;antic&#45;&gt;flatsurf -->
<g id="edge3" class="edge">
<title>e&#45;antic&#45;&gt;flatsurf</title>
<path fill="none" stroke="black" d="M219.91,-262.11C234.59,-253.26 250.68,-240.52 258.89,-224 268.77,-204.12 260.46,-179.82 250.69,-161.64"/>
<polygon fill="black" stroke="black" points="253.72,-159.9 245.66,-153.03 247.68,-163.43 253.72,-159.9"/>
</g>
<!-- normaliz&#45;&gt;gap -->
<g id="edge5" class="edge">
<title>normaliz&#45;&gt;gap</title>
<path fill="none" stroke="black" d="M54.89,-187.7C54.89,-180.41 54.89,-171.73 54.89,-163.54"/>
<polygon fill="black" stroke="black" points="58.39,-163.62 54.89,-153.62 51.39,-163.62 58.39,-163.62"/>
</g>
<!-- antic -->
<g id="node7" class="node">
<title>antic</title>
<g id="a_node7"><a xlink:href="https://github.com/conda-forge/antic-feedstock/pull/14" xlink:title="antic ❎">
<ellipse fill="#31688e" stroke="black" cx="558.42" cy="-18" rx="51.21" ry="18"/>
<text text-anchor="middle" x="558.42" y="-13.32" font-family="Times,serif" font-size="14.00" fill="white">antic ❎</text>
</a>
</g>
</g>
<!-- r&#45;symengine -->
<g id="node8" class="node">
<title>r&#45;symengine</title>
<g id="a_node8"><a xlink:href="https://github.com/conda-forge/r-symengine-feedstock/pull/12" xlink:title="r symengine ❎">
<ellipse fill="#31688e" stroke="black" cx="376.98" cy="-170" rx="88.56" ry="18"/>
<text text-anchor="middle" x="376.98" y="-165.32" font-family="Times,serif" font-size="14.00" fill="white">r symengine ❎</text>
</a>
</g>
</g>
<!-- exact&#45;real&#45;&gt;flatsurf -->
<g id="edge6" class="edge">
<title>exact&#45;real&#45;&gt;flatsurf</title>
<path fill="none" stroke="black" d="M199.54,-188.05C204.57,-180.06 210.68,-170.33 216.3,-161.4"/>
<polygon fill="black" stroke="black" points="219.17,-163.4 221.53,-153.07 213.25,-159.67 219.17,-163.4"/>
</g>
<!-- gravelamps -->
<g id="node11" class="node">
<title>gravelamps</title>
<g id="a_node11"><a xlink:href="https://github.com/conda-forge/gravelamps-feedstock/pull/12" xlink:title="gravelamps ❎">
<ellipse fill="#31688e" stroke="black" cx="558.42" cy="-170" rx="84.88" ry="18"/>
<text text-anchor="middle" x="558.42" y="-165.32" font-family="Times,serif" font-size="14.00" fill="white">gravelamps ❎</text>
</a>
</g>
</g>
</g>
</svg>
