<?xml version="1.0" encoding="UTF-8" standalone="no"?>
<!DOCTYPE svg PUBLIC "-//W3C//DTD SVG 1.1//EN"
 "http://www.w3.org/Graphics/SVG/1.1/DTD/svg11.dtd">
<!-- Generated by graphviz version 12.0.0 (20240803.0821)
 -->
<!-- Pages: 1 -->
<svg width="2830pt" height="1644pt"
 viewBox="0.00 0.00 2830.46 1644.00" xmlns="http://www.w3.org/2000/svg" xmlns:xlink="http://www.w3.org/1999/xlink">
<g id="graph0" class="graph" transform="scale(1 1) rotate(0) translate(4 1640)">
<polygon fill="white" stroke="none" points="-4,4 -4,-1640 2826.46,-1640 2826.46,4 -4,4"/>
<!-- arrow&#45;cpp -->
<g id="node1" class="node">
<title>arrow&#45;cpp</title>
<g id="a_node1"><a xlink:href="https://github.com/conda-forge/arrow-cpp-feedstock" xlink:title="arrow cpp">
<ellipse fill="#fde725" stroke="black" cx="889.29" cy="-1330" rx="61.73" ry="18"/>
<text text-anchor="middle" x="889.29" y="-1325.33" font-family="Times,serif" font-size="14.00">arrow cpp</text>
</a>
</g>
</g>
<!-- ray&#45;packages -->
<g id="node2" class="node">
<title>ray&#45;packages</title>
<g id="a_node2"><a xlink:href="https://github.com/conda-forge/ray-packages-feedstock" xlink:title="ray packages">
<ellipse fill="#fde725" stroke="black" cx="1502.29" cy="-1258" rx="76.99" ry="18"/>
<text text-anchor="middle" x="1502.29" y="-1253.33" font-family="Times,serif" font-size="14.00">ray packages</text>
</a>
</g>
</g>
<!-- arrow&#45;cpp&#45;&gt;ray&#45;packages -->
<g id="edge1" class="edge">
<title>arrow&#45;cpp&#45;&gt;ray&#45;packages</title>
<path fill="none" stroke="black" d="M933.51,-1317.13C942.02,-1315.17 950.9,-1313.34 959.29,-1312 1160.48,-1279.86 1214.46,-1303.8 1416.29,-1276 1422.67,-1275.12 1429.28,-1274.07 1435.88,-1272.93"/>
<polygon fill="black" stroke="black" points="1436.23,-1276.42 1445.45,-1271.2 1434.99,-1269.53 1436.23,-1276.42"/>
</g>
<!-- datafusion -->
<g id="node3" class="node">
<title>datafusion</title>
<g id="a_node3"><a xlink:href="https://github.com/conda-forge/datafusion-feedstock" xlink:title="datafusion">
<ellipse fill="#fde725" stroke="black" cx="1021.29" cy="-1258" rx="63.84" ry="18"/>
<text text-anchor="middle" x="1021.29" y="-1253.33" font-family="Times,serif" font-size="14.00">datafusion</text>
</a>
</g>
</g>
<!-- arrow&#45;cpp&#45;&gt;datafusion -->
<g id="edge2" class="edge">
<title>arrow&#45;cpp&#45;&gt;datafusion</title>
<path fill="none" stroke="black" d="M918.26,-1313.64C937.09,-1303.65 961.86,-1290.52 982.4,-1279.63"/>
<polygon fill="black" stroke="black" points="983.86,-1282.81 991.06,-1275.04 980.58,-1276.63 983.86,-1282.81"/>
</g>
<!-- arcticdb -->
<g id="node4" class="node">
<title>arcticdb</title>
<g id="a_node4"><a xlink:href="https://github.com/conda-forge/arcticdb-feedstock" xlink:title="arcticdb">
<ellipse fill="#fde725" stroke="black" cx="949.29" cy="-1186" rx="52.26" ry="18"/>
<text text-anchor="middle" x="949.29" y="-1181.33" font-family="Times,serif" font-size="14.00">arcticdb</text>
</a>
</g>
</g>
<!-- arrow&#45;cpp&#45;&gt;arcticdb -->
<g id="edge3" class="edge">
<title>arrow&#45;cpp&#45;&gt;arcticdb</title>
<path fill="none" stroke="black" d="M896.53,-1311.87C906.71,-1287.78 925.38,-1243.6 937.56,-1214.77"/>
<polygon fill="black" stroke="black" points="940.77,-1216.16 941.44,-1205.58 934.32,-1213.43 940.77,-1216.16"/>
</g>
<!-- csp -->
<g id="node5" class="node">
<title>csp</title>
<g id="a_node5"><a xlink:href="https://github.com/conda-forge/csp-feedstock" xlink:title="csp">
<ellipse fill="#fde725" stroke="black" cx="869.29" cy="-1114" rx="28.06" ry="18"/>
<text text-anchor="middle" x="869.29" y="-1109.33" font-family="Times,serif" font-size="14.00">csp</text>
</a>
</g>
</g>
<!-- arrow&#45;cpp&#45;&gt;csp -->
<g id="edge4" class="edge">
<title>arrow&#45;cpp&#45;&gt;csp</title>
<path fill="none" stroke="black" d="M887.69,-1311.85C884.26,-1275.14 876.18,-1188.66 871.96,-1143.53"/>
<polygon fill="black" stroke="black" points="875.46,-1143.37 871.04,-1133.74 868.49,-1144.02 875.46,-1143.37"/>
</g>
<!-- bazel -->
<g id="node6" class="node">
<title>bazel</title>
<g id="a_node6"><a xlink:href="https://github.com/conda-forge/bazel-feedstock" xlink:title="bazel">
<ellipse fill="#fde725" stroke="black" cx="819.94" cy="-18" rx="37.53" ry="18"/>
<text text-anchor="middle" x="819.94" y="-13.32" font-family="Times,serif" font-size="14.00">bazel</text>
</a>
</g>
</g>
<!-- mosh -->
<g id="node7" class="node">
<title>mosh</title>
<g id="a_node7"><a xlink:href="https://github.com/conda-forge/mosh-feedstock" xlink:title="mosh">
<ellipse fill="#35b779" stroke="black" cx="819.94" cy="-854" rx="38.06" ry="18"/>
<text text-anchor="middle" x="819.94" y="-849.33" font-family="Times,serif" font-size="14.00">mosh</text>
</a>
</g>
</g>
<!-- mysql -->
<g id="node8" class="node">
<title>mysql</title>
<g id="a_node8"><a xlink:href="https://github.com/conda-forge/mysql-feedstock" xlink:title="mysql">
<ellipse fill="#35b779" stroke="black" cx="819.94" cy="-782" rx="41.21" ry="18"/>
<text text-anchor="middle" x="819.94" y="-777.33" font-family="Times,serif" font-size="14.00">mysql</text>
</a>
</g>
</g>
<!-- mosh&#45;&gt;mysql -->
<!-- onnx -->
<g id="node9" class="node">
<title>onnx</title>
<g id="a_node9"><a xlink:href="https://github.com/conda-forge/onnx-feedstock" xlink:title="onnx">
<ellipse fill="#35b779" stroke="black" cx="819.94" cy="-710" rx="35.42" ry="18"/>
<text text-anchor="middle" x="819.94" y="-705.33" font-family="Times,serif" font-size="14.00">onnx</text>
</a>
</g>
</g>
<!-- mysql&#45;&gt;onnx -->
<!-- paraview -->
<g id="node10" class="node">
<title>paraview</title>
<g id="a_node10"><a xlink:href="https://github.com/conda-forge/paraview-feedstock" xlink:title="paraview">
<ellipse fill="#35b779" stroke="black" cx="819.94" cy="-638" rx="57" ry="18"/>
<text text-anchor="middle" x="819.94" y="-633.33" font-family="Times,serif" font-size="14.00">paraview</text>
</a>
</g>
</g>
<!-- onnx&#45;&gt;paraview -->
<!-- qgis -->
<g id="node14" class="node">
<title>qgis</title>
<g id="a_node14"><a xlink:href="https://github.com/conda-forge/qgis-feedstock" xlink:title="qgis">
<ellipse fill="#35b779" stroke="black" cx="819.94" cy="-566" rx="32.27" ry="18"/>
<text text-anchor="middle" x="819.94" y="-561.33" font-family="Times,serif" font-size="14.00">qgis</text>
</a>
</g>
</g>
<!-- paraview&#45;&gt;qgis -->
<!-- opencv -->
<g id="node11" class="node">
<title>opencv</title>
<g id="a_node11"><a xlink:href="https://github.com/conda-forge/opencv-feedstock" xlink:title="opencv">
<ellipse fill="#fde725" stroke="black" cx="1367.29" cy="-1330" rx="46.47" ry="18"/>
<text text-anchor="middle" x="1367.29" y="-1325.33" font-family="Times,serif" font-size="14.00">opencv</text>
</a>
</g>
</g>
<!-- opencv&#45;&gt;ray&#45;packages -->
<g id="edge8" class="edge">
<title>opencv&#45;&gt;ray&#45;packages</title>
<path fill="none" stroke="black" d="M1394.29,-1315C1413.55,-1305.01 1439.8,-1291.4 1461.6,-1280.1"/>
<polygon fill="black" stroke="black" points="1462.96,-1283.34 1470.23,-1275.63 1459.74,-1277.12 1462.96,-1283.34"/>
</g>
<!-- imp -->
<g id="node12" class="node">
<title>imp</title>
<g id="a_node12"><a xlink:href="https://github.com/conda-forge/imp-feedstock" xlink:title="imp">
<ellipse fill="#fde725" stroke="black" cx="1377.29" cy="-1258" rx="30.16" ry="18"/>
<text text-anchor="middle" x="1377.29" y="-1253.33" font-family="Times,serif" font-size="14.00">imp</text>
</a>
</g>
</g>
<!-- opencv&#45;&gt;imp -->
<g id="edge9" class="edge">
<title>opencv&#45;&gt;imp</title>
<path fill="none" stroke="black" d="M1369.76,-1311.7C1370.82,-1304.32 1372.08,-1295.52 1373.26,-1287.25"/>
<polygon fill="black" stroke="black" points="1376.69,-1288 1374.64,-1277.6 1369.76,-1287.01 1376.69,-1288"/>
</g>
<!-- gazebo&#45;yarp&#45;plugins -->
<g id="node13" class="node">
<title>gazebo&#45;yarp&#45;plugins</title>
<g id="a_node13"><a xlink:href="https://github.com/conda-forge/gazebo-yarp-plugins-feedstock" xlink:title="gazebo yarp plugins">
<ellipse fill="#fde725" stroke="black" cx="1217.29" cy="-1258" rx="112.24" ry="18"/>
<text text-anchor="middle" x="1217.29" y="-1253.33" font-family="Times,serif" font-size="14.00">gazebo yarp plugins</text>
</a>
</g>
</g>
<!-- opencv&#45;&gt;gazebo&#45;yarp&#45;plugins -->
<g id="edge10" class="edge">
<title>opencv&#45;&gt;gazebo&#45;yarp&#45;plugins</title>
<path fill="none" stroke="black" d="M1338.37,-1315.5C1316.99,-1305.53 1287.46,-1291.74 1262.91,-1280.29"/>
<polygon fill="black" stroke="black" points="1264.65,-1277.24 1254.11,-1276.18 1261.69,-1283.58 1264.65,-1277.24"/>
</g>
<!-- tensorflow -->
<g id="node15" class="node">
<title>tensorflow</title>
<g id="a_node15"><a xlink:href="https://github.com/conda-forge/tensorflow-feedstock" xlink:title="tensorflow">
<ellipse fill="#35b779" stroke="black" cx="819.94" cy="-494" rx="63.84" ry="18"/>
<text text-anchor="middle" x="819.94" y="-489.32" font-family="Times,serif" font-size="14.00">tensorflow</text>
</a>
</g>
</g>
<!-- qgis&#45;&gt;tensorflow -->
<!-- r&#45;protolite -->
<g id="node16" class="node">
<title>r&#45;protolite</title>
<g id="a_node16"><a xlink:href="https://github.com/conda-forge/r-protolite-feedstock" xlink:title="r protolite">
<ellipse fill="#35b779" stroke="black" cx="819.94" cy="-422" rx="62.26" ry="18"/>
<text text-anchor="middle" x="819.94" y="-417.32" font-family="Times,serif" font-size="14.00">r protolite</text>
</a>
</g>
</g>
<!-- tensorflow&#45;&gt;r&#45;protolite -->
<!-- go&#45;cockroach -->
<g id="node17" class="node">
<title>go&#45;cockroach</title>
<g id="a_node17"><a xlink:href="https://github.com/conda-forge/go-cockroach-feedstock" xlink:title="go cockroach">
<ellipse fill="#35b779" stroke="black" cx="819.94" cy="-350" rx="76.46" ry="18"/>
<text text-anchor="middle" x="819.94" y="-345.32" font-family="Times,serif" font-size="14.00">go cockroach</text>
</a>
</g>
</g>
<!-- r&#45;protolite&#45;&gt;go&#45;cockroach -->
<!-- cartographer -->
<g id="node30" class="node">
<title>cartographer</title>
<g id="a_node30"><a xlink:href="https://github.com/conda-forge/cartographer-feedstock" xlink:title="cartographer">
<ellipse fill="#35b779" stroke="black" cx="819.94" cy="-278" rx="76.99" ry="18"/>
<text text-anchor="middle" x="819.94" y="-273.32" font-family="Times,serif" font-size="14.00">cartographer</text>
</a>
</g>
</g>
<!-- go&#45;cockroach&#45;&gt;cartographer -->
<!-- pytorch&#45;cpu -->
<g id="node18" class="node">
<title>pytorch&#45;cpu</title>
<g id="a_node18"><a xlink:href="https://github.com/conda-forge/pytorch-cpu-feedstock" xlink:title="pytorch cpu">
<ellipse fill="#35b779" stroke="black" cx="1502.29" cy="-1330" rx="70.68" ry="18"/>
<text text-anchor="middle" x="1502.29" y="-1325.33" font-family="Times,serif" font-size="14.00">pytorch cpu</text>
</a>
</g>
</g>
<!-- pytorch&#45;cpu&#45;&gt;ray&#45;packages -->
<g id="edge15" class="edge">
<title>pytorch&#45;cpu&#45;&gt;ray&#45;packages</title>
<path fill="none" stroke="black" d="M1502.29,-1311.7C1502.29,-1304.41 1502.29,-1295.73 1502.29,-1287.54"/>
<polygon fill="black" stroke="black" points="1505.79,-1287.62 1502.29,-1277.62 1498.79,-1287.62 1505.79,-1287.62"/>
</g>
<!-- orc -->
<g id="node19" class="node">
<title>orc</title>
<g id="a_node19"><a xlink:href="https://github.com/conda-forge/orc-feedstock" xlink:title="orc">
<ellipse fill="#35b779" stroke="black" cx="889.29" cy="-1402" rx="27.01" ry="18"/>
<text text-anchor="middle" x="889.29" y="-1397.33" font-family="Times,serif" font-size="14.00">orc</text>
</a>
</g>
</g>
<!-- orc&#45;&gt;arrow&#45;cpp -->
<g id="edge16" class="edge">
<title>orc&#45;&gt;arrow&#45;cpp</title>
<path fill="none" stroke="black" d="M889.29,-1383.7C889.29,-1376.41 889.29,-1367.73 889.29,-1359.54"/>
<polygon fill="black" stroke="black" points="892.79,-1359.62 889.29,-1349.62 885.79,-1359.62 892.79,-1359.62"/>
</g>
<!-- jaxlib -->
<g id="node20" class="node">
<title>jaxlib</title>
<g id="a_node20"><a xlink:href="https://github.com/conda-forge/jaxlib-feedstock" xlink:title="jaxlib">
<ellipse fill="#35b779" stroke="black" cx="1601.29" cy="-1402" rx="38.58" ry="18"/>
<text text-anchor="middle" x="1601.29" y="-1397.33" font-family="Times,serif" font-size="14.00">jaxlib</text>
</a>
</g>
</g>
<!-- jaxlib&#45;&gt;ray&#45;packages -->
<g id="edge17" class="edge">
<title>jaxlib&#45;&gt;ray&#45;packages</title>
<path fill="none" stroke="black" d="M1601.37,-1383.77C1600.66,-1364.66 1597.06,-1333.68 1582.29,-1312 1573.47,-1299.05 1560.34,-1288.47 1547.25,-1280.25"/>
<polygon fill="black" stroke="black" points="1549.03,-1277.24 1538.63,-1275.2 1545.49,-1283.28 1549.03,-1277.24"/>
</g>
<!-- libignition&#45;transport4 -->
<g id="node21" class="node">
<title>libignition&#45;transport4</title>
<g id="a_node21"><a xlink:href="https://github.com/conda-forge/libignition-transport4-feedstock" xlink:title="libignition transport4">
<ellipse fill="#fde725" stroke="black" cx="2387.56" cy="-1330" rx="119.08" ry="18"/>
<text text-anchor="middle" x="2387.56" y="-1325.33" font-family="Times,serif" font-size="14.00">libignition transport4</text>
</a>
</g>
</g>
<!-- libignition&#45;sensors -->
<g id="node22" class="node">
<title>libignition&#45;sensors</title>
<g id="a_node22"><a xlink:href="https://github.com/conda-forge/libignition-sensors-feedstock" xlink:title="libignition sensors">
<ellipse fill="#fde725" stroke="black" cx="2542.56" cy="-1258" rx="103.82" ry="18"/>
<text text-anchor="middle" x="2542.56" y="-1253.33" font-family="Times,serif" font-size="14.00">libignition sensors</text>
</a>
</g>
</g>
<!-- libignition&#45;transport4&#45;&gt;libignition&#45;sensors -->
<g id="edge18" class="edge">
<title>libignition&#45;transport4&#45;&gt;libignition&#45;sensors</title>
<path fill="none" stroke="black" d="M2424.29,-1312.41C2445.79,-1302.7 2473.15,-1290.34 2496.14,-1279.96"/>
<polygon fill="black" stroke="black" points="2497.3,-1283.28 2504.98,-1275.97 2494.42,-1276.9 2497.3,-1283.28"/>
</g>
<!-- libignition&#45;gui -->
<g id="node23" class="node">
<title>libignition&#45;gui</title>
<g id="a_node23"><a xlink:href="https://github.com/conda-forge/libignition-gui-feedstock" xlink:title="libignition gui">
<ellipse fill="#fde725" stroke="black" cx="2263.56" cy="-1258" rx="81.2" ry="18"/>
<text text-anchor="middle" x="2263.56" y="-1253.33" font-family="Times,serif" font-size="14.00">libignition gui</text>
</a>
</g>
</g>
<!-- libignition&#45;transport4&#45;&gt;libignition&#45;gui -->
<g id="edge19" class="edge">
<title>libignition&#45;transport4&#45;&gt;libignition&#45;gui</title>
<path fill="none" stroke="black" d="M2357.86,-1312.23C2341.13,-1302.79 2320.05,-1290.89 2302.06,-1280.74"/>
<polygon fill="black" stroke="black" points="2303.91,-1277.76 2293.48,-1275.89 2300.47,-1283.86 2303.91,-1277.76"/>
</g>
<!-- libignition&#45;gazebo -->
<g id="node24" class="node">
<title>libignition&#45;gazebo</title>
<g id="a_node24"><a xlink:href="https://github.com/conda-forge/libignition-gazebo-feedstock" xlink:title="libignition gazebo">
<ellipse fill="#fde725" stroke="black" cx="2522.56" cy="-1186" rx="100.66" ry="18"/>
<text text-anchor="middle" x="2522.56" y="-1181.33" font-family="Times,serif" font-size="14.00">libignition gazebo</text>
</a>
</g>
</g>
<!-- libignition&#45;transport4&#45;&gt;libignition&#45;gazebo -->
<g id="edge20" class="edge">
<title>libignition&#45;transport4&#45;&gt;libignition&#45;gazebo</title>
<path fill="none" stroke="black" d="M2392.23,-1311.8C2398.21,-1292.43 2410.17,-1260.94 2429.56,-1240 2441.67,-1226.91 2457.78,-1216.19 2473.17,-1207.89"/>
<polygon fill="black" stroke="black" points="2474.48,-1211.16 2481.79,-1203.49 2471.3,-1204.92 2474.48,-1211.16"/>
</g>
<!-- libignition&#45;launch -->
<g id="node25" class="node">
<title>libignition&#45;launch</title>
<g id="a_node25"><a xlink:href="https://github.com/conda-forge/libignition-launch-feedstock" xlink:title="libignition launch">
<ellipse fill="#fde725" stroke="black" cx="2457.56" cy="-1114" rx="98.56" ry="18"/>
<text text-anchor="middle" x="2457.56" y="-1109.33" font-family="Times,serif" font-size="14.00">libignition launch</text>
</a>
</g>
</g>
<!-- libignition&#45;transport4&#45;&gt;libignition&#45;launch -->
<g id="edge21" class="edge">
<title>libignition&#45;transport4&#45;&gt;libignition&#45;launch</title>
<path fill="none" stroke="black" d="M2387.23,-1311.68C2387.29,-1281.2 2390.32,-1216.62 2412.56,-1168 2417.13,-1158 2424.14,-1148.41 2431.28,-1140.2"/>
<polygon fill="black" stroke="black" points="2433.72,-1142.72 2437.94,-1133 2428.58,-1137.97 2433.72,-1142.72"/>
</g>
<!-- libignition&#45;sensors&#45;&gt;libignition&#45;gazebo -->
<g id="edge22" class="edge">
<title>libignition&#45;sensors&#45;&gt;libignition&#45;gazebo</title>
<path fill="none" stroke="black" d="M2537.61,-1239.7C2535.48,-1232.24 2532.93,-1223.32 2530.55,-1214.97"/>
<polygon fill="black" stroke="black" points="2533.97,-1214.21 2527.86,-1205.56 2527.24,-1216.14 2533.97,-1214.21"/>
</g>
<!-- libignition&#45;gui&#45;&gt;libignition&#45;gazebo -->
<g id="edge23" class="edge">
<title>libignition&#45;gui&#45;&gt;libignition&#45;gazebo</title>
<path fill="none" stroke="black" d="M2313.8,-1243.42C2354.76,-1232.35 2412.9,-1216.64 2457.42,-1204.6"/>
<polygon fill="black" stroke="black" points="2458.23,-1208.01 2466.97,-1202.02 2456.4,-1201.25 2458.23,-1208.01"/>
</g>
<!-- libignition&#45;gui&#45;&gt;libignition&#45;launch -->
<g id="edge24" class="edge">
<title>libignition&#45;gui&#45;&gt;libignition&#45;launch</title>
<path fill="none" stroke="black" d="M2278.9,-1240.18C2296.8,-1221.17 2327.89,-1190 2358.56,-1168 2375.24,-1156.03 2394.96,-1144.94 2412.38,-1136.03"/>
<polygon fill="black" stroke="black" points="2413.61,-1139.33 2420.99,-1131.72 2410.48,-1133.07 2413.61,-1139.33"/>
</g>
<!-- libignition&#45;gazebo&#45;&gt;libignition&#45;launch -->
<g id="edge25" class="edge">
<title>libignition&#45;gazebo&#45;&gt;libignition&#45;launch</title>
<path fill="none" stroke="black" d="M2506.82,-1168.05C2499,-1159.63 2489.39,-1149.28 2480.74,-1139.97"/>
<polygon fill="black" stroke="black" points="2483.55,-1137.84 2474.18,-1132.9 2478.42,-1142.61 2483.55,-1137.84"/>
</g>
<!-- libignition&#45;msgs1 -->
<g id="node26" class="node">
<title>libignition&#45;msgs1</title>
<g id="a_node26"><a xlink:href="https://github.com/conda-forge/libignition-msgs1-feedstock" xlink:title="libignition msgs1">
<ellipse fill="#35b779" stroke="black" cx="2604.56" cy="-1402" rx="98.03" ry="18"/>
<text text-anchor="middle" x="2604.56" y="-1397.33" font-family="Times,serif" font-size="14.00">libignition msgs1</text>
</a>
</g>
</g>
<!-- libignition&#45;msgs1&#45;&gt;libignition&#45;transport4 -->
<g id="edge26" class="edge">
<title>libignition&#45;msgs1&#45;&gt;libignition&#45;transport4</title>
<path fill="none" stroke="black" d="M2557.47,-1385.81C2525.19,-1375.4 2482.09,-1361.5 2447.38,-1350.3"/>
<polygon fill="black" stroke="black" points="2448.46,-1346.97 2437.87,-1347.23 2446.31,-1353.63 2448.46,-1346.97"/>
</g>
<!-- libignition&#45;msgs1&#45;&gt;libignition&#45;sensors -->
<g id="edge27" class="edge">
<title>libignition&#45;msgs1&#45;&gt;libignition&#45;sensors</title>
<path fill="none" stroke="black" d="M2582.77,-1384.2C2572.15,-1374.76 2560.26,-1362.06 2553.56,-1348 2544.59,-1329.18 2541.99,-1305.7 2541.56,-1287.59"/>
<polygon fill="black" stroke="black" points="2545.06,-1287.8 2541.54,-1277.8 2538.06,-1287.81 2545.06,-1287.8"/>
</g>
<!-- libignition&#45;msgs1&#45;&gt;libignition&#45;gui -->
<g id="edge28" class="edge">
<title>libignition&#45;msgs1&#45;&gt;libignition&#45;gui</title>
<path fill="none" stroke="black" d="M2507.01,-1399.69C2416.42,-1396.15 2290.93,-1384.56 2259.56,-1348 2245.48,-1331.59 2247.97,-1306.57 2253.13,-1287.23"/>
<polygon fill="black" stroke="black" points="2256.44,-1288.36 2256.02,-1277.78 2249.75,-1286.31 2256.44,-1288.36"/>
</g>
<!-- libignition&#45;msgs1&#45;&gt;libignition&#45;gazebo -->
<g id="edge29" class="edge">
<title>libignition&#45;msgs1&#45;&gt;libignition&#45;gazebo</title>
<path fill="none" stroke="black" d="M2689.18,-1392.52C2751.99,-1382.26 2822.46,-1359.93 2795.56,-1312 2758.65,-1246.25 2676.31,-1214.9 2611.65,-1200.06"/>
<polygon fill="black" stroke="black" points="2612.61,-1196.69 2602.1,-1197.97 2611.12,-1203.53 2612.61,-1196.69"/>
</g>
<!-- libignition&#45;msgs1&#45;&gt;libignition&#45;launch -->
<g id="edge30" class="edge">
<title>libignition&#45;msgs1&#45;&gt;libignition&#45;launch</title>
<path fill="none" stroke="black" d="M2683.19,-1390.94C2734.79,-1382.54 2795.58,-1368.59 2811.56,-1348 2821.37,-1335.36 2816.68,-1327.16 2811.56,-1312 2773.66,-1199.96 2632.8,-1150.11 2540.6,-1129.09"/>
<polygon fill="black" stroke="black" points="2541.6,-1125.73 2531.08,-1126.99 2540.1,-1132.56 2541.6,-1125.73"/>
</g>
<!-- libignition&#45;fuel&#45;tools -->
<g id="node27" class="node">
<title>libignition&#45;fuel&#45;tools</title>
<g id="a_node27"><a xlink:href="https://github.com/conda-forge/libignition-fuel-tools-feedstock" xlink:title="libignition fuel tools">
<ellipse fill="#fde725" stroke="black" cx="2674.56" cy="-1330" rx="111.71" ry="18"/>
<text text-anchor="middle" x="2674.56" y="-1325.33" font-family="Times,serif" font-size="14.00">libignition fuel tools</text>
</a>
</g>
</g>
<!-- libignition&#45;msgs1&#45;&gt;libignition&#45;fuel&#45;tools -->
<g id="edge31" class="edge">
<title>libignition&#45;msgs1&#45;&gt;libignition&#45;fuel&#45;tools</title>
<path fill="none" stroke="black" d="M2621.5,-1384.05C2629.8,-1375.75 2639.97,-1365.58 2649.18,-1356.38"/>
<polygon fill="black" stroke="black" points="2651.61,-1358.89 2656.21,-1349.35 2646.66,-1353.94 2651.61,-1358.89"/>
</g>
<!-- libignition&#45;fuel&#45;tools&#45;&gt;libignition&#45;gazebo -->
<g id="edge32" class="edge">
<title>libignition&#45;fuel&#45;tools&#45;&gt;libignition&#45;gazebo</title>
<path fill="none" stroke="black" d="M2675.43,-1311.52C2675.47,-1291.89 2672.57,-1260.16 2655.56,-1240 2641.29,-1223.1 2620.87,-1211.54 2600.3,-1203.66"/>
<polygon fill="black" stroke="black" points="2601.58,-1200.4 2590.99,-1200.36 2599.25,-1207 2601.58,-1200.4"/>
</g>
<!-- gazebo -->
<g id="node28" class="node">
<title>gazebo</title>
<g id="a_node28"><a xlink:href="https://github.com/conda-forge/gazebo-feedstock" xlink:title="gazebo">
<ellipse fill="#35b779" stroke="black" cx="1256.29" cy="-1330" rx="46.47" ry="18"/>
<text text-anchor="middle" x="1256.29" y="-1325.33" font-family="Times,serif" font-size="14.00">gazebo</text>
</a>
</g>
</g>
<!-- gazebo&#45;&gt;gazebo&#45;yarp&#45;plugins -->
<g id="edge33" class="edge">
<title>gazebo&#45;&gt;gazebo&#45;yarp&#45;plugins</title>
<path fill="none" stroke="black" d="M1246.85,-1312.05C1242.51,-1304.26 1237.25,-1294.82 1232.38,-1286.08"/>
<polygon fill="black" stroke="black" points="1235.58,-1284.63 1227.65,-1277.6 1229.46,-1288.04 1235.58,-1284.63"/>
</g>
<!-- google&#45;cloud&#45;cpp -->
<g id="node29" class="node">
<title>google&#45;cloud&#45;cpp</title>
<g id="a_node29"><a xlink:href="https://github.com/conda-forge/google-cloud-cpp-feedstock" xlink:title="google cloud cpp">
<ellipse fill="#fde725" stroke="black" cx="313.29" cy="-1114" rx="95.4" ry="18"/>
<text text-anchor="middle" x="313.29" y="-1109.33" font-family="Times,serif" font-size="14.00">google cloud cpp</text>
</a>
</g>
</g>
<!-- tomviz -->
<g id="node31" class="node">
<title>tomviz</title>
<g id="a_node31"><a xlink:href="https://github.com/conda-forge/tomviz-feedstock" xlink:title="tomviz">
<ellipse fill="#35b779" stroke="black" cx="819.94" cy="-206" rx="44.9" ry="18"/>
<text text-anchor="middle" x="819.94" y="-201.33" font-family="Times,serif" font-size="14.00">tomviz</text>
</a>
</g>
</g>
<!-- cartographer&#45;&gt;tomviz -->
<!-- protozfits -->
<g id="node34" class="node">
<title>protozfits</title>
<g id="a_node34"><a xlink:href="https://github.com/conda-forge/protozfits-feedstock" xlink:title="protozfits">
<ellipse fill="#35b779" stroke="black" cx="819.94" cy="-134" rx="59.1" ry="18"/>
<text text-anchor="middle" x="819.94" y="-129.32" font-family="Times,serif" font-size="14.00">protozfits</text>
</a>
</g>
</g>
<!-- tomviz&#45;&gt;protozfits -->
<!-- sentencepiece -->
<g id="node32" class="node">
<title>sentencepiece</title>
<g id="a_node32"><a xlink:href="https://github.com/conda-forge/sentencepiece-feedstock" xlink:title="sentencepiece">
<ellipse fill="#35b779" stroke="black" cx="1080.29" cy="-1402" rx="82.25" ry="18"/>
<text text-anchor="middle" x="1080.29" y="-1397.33" font-family="Times,serif" font-size="14.00">sentencepiece</text>
</a>
</g>
</g>
<!-- openvino&#45;tokenizers -->
<g id="node33" class="node">
<title>openvino&#45;tokenizers</title>
<g id="a_node33"><a xlink:href="https://github.com/conda-forge/openvino-tokenizers-feedstock" xlink:title="openvino tokenizers">
<ellipse fill="#fde725" stroke="black" cx="1080.29" cy="-1330" rx="111.71" ry="18"/>
<text text-anchor="middle" x="1080.29" y="-1325.33" font-family="Times,serif" font-size="14.00">openvino tokenizers</text>
</a>
</g>
</g>
<!-- sentencepiece&#45;&gt;openvino&#45;tokenizers -->
<g id="edge36" class="edge">
<title>sentencepiece&#45;&gt;openvino&#45;tokenizers</title>
<path fill="none" stroke="black" d="M1080.29,-1383.7C1080.29,-1376.41 1080.29,-1367.73 1080.29,-1359.54"/>
<polygon fill="black" stroke="black" points="1083.79,-1359.62 1080.29,-1349.62 1076.79,-1359.62 1083.79,-1359.62"/>
</g>
<!-- grpc_java_plugin -->
<g id="node35" class="node">
<title>grpc_java_plugin</title>
<g id="a_node35"><a xlink:href="https://github.com/conda-forge/grpc_java_plugin-feedstock" xlink:title="grpc_java_plugin">
<ellipse fill="#35b779" stroke="black" cx="1911.12" cy="-1618" rx="95.4" ry="18"/>
<text text-anchor="middle" x="1911.12" y="-1613.33" font-family="Times,serif" font-size="14.00">grpc_java_plugin</text>
</a>
</g>
</g>
<!-- or&#45;tools -->
<g id="node36" class="node">
<title>or&#45;tools</title>
<g id="a_node36"><a xlink:href="https://github.com/conda-forge/or-tools-feedstock" xlink:title="or tools">
<ellipse fill="#35b779" stroke="black" cx="1911.12" cy="-1546" rx="49.1" ry="18"/>
<text text-anchor="middle" x="1911.12" y="-1541.33" font-family="Times,serif" font-size="14.00">or tools</text>
</a>
</g>
</g>
<!-- grpc_java_plugin&#45;&gt;or&#45;tools -->
<!-- bear -->
<g id="node37" class="node">
<title>bear</title>
<g id="a_node37"><a xlink:href="https://github.com/conda-forge/bear-feedstock" xlink:title="bear">
<ellipse fill="#35b779" stroke="black" cx="1911.12" cy="-1474" rx="33.85" ry="18"/>
<text text-anchor="middle" x="1911.12" y="-1469.33" font-family="Times,serif" font-size="14.00">bear</text>
</a>
</g>
</g>
<!-- or&#45;tools&#45;&gt;bear -->
<!-- cpp&#45;opentelemetry&#45;sdk -->
<g id="node38" class="node">
<title>cpp&#45;opentelemetry&#45;sdk</title>
<g id="a_node38"><a xlink:href="https://github.com/conda-forge/cpp-opentelemetry-sdk-feedstock" xlink:title="cpp opentelemetry sdk">
<ellipse fill="#35b779" stroke="black" cx="1911.12" cy="-1402" rx="125.92" ry="18"/>
<text text-anchor="middle" x="1911.12" y="-1397.33" font-family="Times,serif" font-size="14.00">cpp opentelemetry sdk</text>
</a>
</g>
</g>
<!-- bear&#45;&gt;cpp&#45;opentelemetry&#45;sdk -->
<!-- xilinx&#45;runtime -->
<g id="node39" class="node">
<title>xilinx&#45;runtime</title>
<g id="a_node39"><a xlink:href="https://github.com/conda-forge/xilinx-runtime-feedstock" xlink:title="xilinx runtime">
<ellipse fill="#35b779" stroke="black" cx="1911.12" cy="-1330" rx="81.72" ry="18"/>
<text text-anchor="middle" x="1911.12" y="-1325.33" font-family="Times,serif" font-size="14.00">xilinx runtime</text>
</a>
</g>
</g>
<!-- cpp&#45;opentelemetry&#45;sdk&#45;&gt;xilinx&#45;runtime -->
<!-- libpulsar -->
<g id="node41" class="node">
<title>libpulsar</title>
<g id="a_node41"><a xlink:href="https://github.com/conda-forge/libpulsar-feedstock" xlink:title="libpulsar">
<ellipse fill="#35b779" stroke="black" cx="1911.12" cy="-1258" rx="55.42" ry="18"/>
<text text-anchor="middle" x="1911.12" y="-1253.33" font-family="Times,serif" font-size="14.00">libpulsar</text>
</a>
</g>
</g>
<!-- xilinx&#45;runtime&#45;&gt;libpulsar -->
<!-- singlejar -->
<g id="node40" class="node">
<title>singlejar</title>
<g id="a_node40"><a xlink:href="https://github.com/conda-forge/singlejar-feedstock" xlink:title="singlejar">
<ellipse fill="#35b779" stroke="black" cx="819.94" cy="-90" rx="54.89" ry="18"/>
<text text-anchor="middle" x="819.94" y="-85.33" font-family="Times,serif" font-size="14.00">singlejar</text>
</a>
</g>
</g>
<!-- singlejar&#45;&gt;bazel -->
<g id="edge42" class="edge">
<title>singlejar&#45;&gt;bazel</title>
<path fill="none" stroke="black" d="M819.94,-71.7C819.94,-64.41 819.94,-55.73 819.94,-47.54"/>
<polygon fill="black" stroke="black" points="823.44,-47.62 819.94,-37.62 816.44,-47.62 823.44,-47.62"/>
</g>
<!-- gnss&#45;sdr -->
<g id="node51" class="node">
<title>gnss&#45;sdr</title>
<g id="a_node51"><a xlink:href="https://github.com/conda-forge/gnss-sdr-feedstock" xlink:title="gnss sdr">
<ellipse fill="#35b779" stroke="black" cx="1911.12" cy="-1186" rx="53.84" ry="18"/>
<text text-anchor="middle" x="1911.12" y="-1181.33" font-family="Times,serif" font-size="14.00">gnss sdr</text>
</a>
</g>
</g>
<!-- libpulsar&#45;&gt;gnss&#45;sdr -->
<!-- gz&#45;msgs -->
<g id="node42" class="node">
<title>gz&#45;msgs</title>
<g id="a_node42"><a xlink:href="https://github.com/conda-forge/gz-msgs-feedstock" xlink:title="gz msgs">
<ellipse fill="#35b779" stroke="black" cx="1915.96" cy="-638" rx="52.26" ry="18"/>
<text text-anchor="middle" x="1915.96" y="-633.33" font-family="Times,serif" font-size="14.00">gz msgs</text>
</a>
</g>
</g>
<!-- gz&#45;transport -->
<g id="node43" class="node">
<title>gz&#45;transport</title>
<g id="a_node43"><a xlink:href="https://github.com/conda-forge/gz-transport-feedstock" xlink:title="gz transport">
<ellipse fill="#fde725" stroke="black" cx="1814.96" cy="-566" rx="73.3" ry="18"/>
<text text-anchor="middle" x="1814.96" y="-561.33" font-family="Times,serif" font-size="14.00">gz transport</text>
</a>
</g>
</g>
<!-- gz&#45;msgs&#45;&gt;gz&#45;transport -->
<g id="edge44" class="edge">
<title>gz&#45;msgs&#45;&gt;gz&#45;transport</title>
<path fill="none" stroke="black" d="M1893.54,-621.46C1880.2,-612.21 1863.01,-600.3 1848.11,-589.98"/>
<polygon fill="black" stroke="black" points="1850.18,-587.15 1839.96,-584.33 1846.19,-592.9 1850.18,-587.15"/>
</g>
<!-- gz&#45;fuel&#45;tools -->
<g id="node44" class="node">
<title>gz&#45;fuel&#45;tools</title>
<g id="a_node44"><a xlink:href="https://github.com/conda-forge/gz-fuel-tools-feedstock" xlink:title="gz fuel tools">
<ellipse fill="#fde725" stroke="black" cx="2015.96" cy="-566" rx="72.25" ry="18"/>
<text text-anchor="middle" x="2015.96" y="-561.33" font-family="Times,serif" font-size="14.00">gz fuel tools</text>
</a>
</g>
</g>
<!-- gz&#45;msgs&#45;&gt;gz&#45;fuel&#45;tools -->
<g id="edge45" class="edge">
<title>gz&#45;msgs&#45;&gt;gz&#45;fuel&#45;tools</title>
<path fill="none" stroke="black" d="M1938.15,-621.46C1951.37,-612.21 1968.39,-600.3 1983.13,-589.98"/>
<polygon fill="black" stroke="black" points="1985.01,-592.94 1991.19,-584.34 1981,-587.2 1985.01,-592.94"/>
</g>
<!-- gz&#45;gui -->
<g id="node45" class="node">
<title>gz&#45;gui</title>
<g id="a_node45"><a xlink:href="https://github.com/conda-forge/gz-gui-feedstock" xlink:title="gz gui">
<ellipse fill="#fde725" stroke="black" cx="1713.96" cy="-494" rx="41.74" ry="18"/>
<text text-anchor="middle" x="1713.96" y="-489.32" font-family="Times,serif" font-size="14.00">gz gui</text>
</a>
</g>
</g>
<!-- gz&#45;msgs&#45;&gt;gz&#45;gui -->
<g id="edge46" class="edge">
<title>gz&#45;msgs&#45;&gt;gz&#45;gui</title>
<path fill="none" stroke="black" d="M1863.96,-635.83C1822.64,-632.03 1766.43,-619.95 1732.96,-584 1718.05,-567.99 1713.71,-543.26 1712.87,-523.93"/>
<polygon fill="black" stroke="black" points="1716.37,-523.91 1712.76,-513.95 1709.37,-523.98 1716.37,-523.91"/>
</g>
<!-- gz&#45;sensors -->
<g id="node46" class="node">
<title>gz&#45;sensors</title>
<g id="a_node46"><a xlink:href="https://github.com/conda-forge/gz-sensors-feedstock" xlink:title="gz sensors">
<ellipse fill="#fde725" stroke="black" cx="1951.96" cy="-494" rx="64.36" ry="18"/>
<text text-anchor="middle" x="1951.96" y="-489.32" font-family="Times,serif" font-size="14.00">gz sensors</text>
</a>
</g>
</g>
<!-- gz&#45;msgs&#45;&gt;gz&#45;sensors -->
<g id="edge47" class="edge">
<title>gz&#45;msgs&#45;&gt;gz&#45;sensors</title>
<path fill="none" stroke="black" d="M1919.1,-619.82C1922.51,-601.8 1928.37,-572.73 1934.96,-548 1937.16,-539.75 1939.86,-530.88 1942.46,-522.8"/>
<polygon fill="black" stroke="black" points="1945.73,-524.09 1945.53,-513.49 1939.08,-521.9 1945.73,-524.09"/>
</g>
<!-- gz&#45;sim -->
<g id="node47" class="node">
<title>gz&#45;sim</title>
<g id="a_node47"><a xlink:href="https://github.com/conda-forge/gz-sim-feedstock" xlink:title="gz sim">
<ellipse fill="#fde725" stroke="black" cx="1926.96" cy="-422" rx="43.84" ry="18"/>
<text text-anchor="middle" x="1926.96" y="-417.32" font-family="Times,serif" font-size="14.00">gz sim</text>
</a>
</g>
</g>
<!-- gz&#45;msgs&#45;&gt;gz&#45;sim -->
<g id="edge48" class="edge">
<title>gz&#45;msgs&#45;&gt;gz&#45;sim</title>
<path fill="none" stroke="black" d="M1963.05,-629.71C2011.11,-621.2 2080.86,-605.49 2096.96,-584 2130.44,-539.31 2043.17,-476.97 2041.96,-476 2021.17,-459.35 1994.29,-446.59 1971.75,-437.76"/>
<polygon fill="black" stroke="black" points="1973.09,-434.53 1962.5,-434.28 1970.62,-441.08 1973.09,-434.53"/>
</g>
<!-- gz&#45;launch -->
<g id="node48" class="node">
<title>gz&#45;launch</title>
<g id="a_node48"><a xlink:href="https://github.com/conda-forge/gz-launch-feedstock" xlink:title="gz launch">
<ellipse fill="#fde725" stroke="black" cx="1726.96" cy="-350" rx="59.1" ry="18"/>
<text text-anchor="middle" x="1726.96" y="-345.32" font-family="Times,serif" font-size="14.00">gz launch</text>
</a>
</g>
</g>
<!-- gz&#45;msgs&#45;&gt;gz&#45;launch -->
<g id="edge49" class="edge">
<title>gz&#45;msgs&#45;&gt;gz&#45;launch</title>
<path fill="none" stroke="black" d="M1864.82,-633.73C1820.82,-628.71 1757.43,-616.03 1711.96,-584 1680.32,-561.71 1674.35,-548.99 1662.96,-512 1647.87,-463.02 1681.22,-407.93 1705.21,-376.55"/>
<polygon fill="black" stroke="black" points="1707.88,-378.8 1711.35,-368.79 1702.4,-374.46 1707.88,-378.8"/>
</g>
<!-- gz&#45;sim&#45;yarp&#45;plugins -->
<g id="node49" class="node">
<title>gz&#45;sim&#45;yarp&#45;plugins</title>
<g id="a_node49"><a xlink:href="https://github.com/conda-forge/gz-sim-yarp-plugins-feedstock" xlink:title="gz sim yarp plugins">
<ellipse fill="#fde725" stroke="black" cx="1926.96" cy="-350" rx="109.61" ry="18"/>
<text text-anchor="middle" x="1926.96" y="-345.32" font-family="Times,serif" font-size="14.00">gz sim yarp plugins</text>
</a>
</g>
</g>
<!-- gz&#45;msgs&#45;&gt;gz&#45;sim&#45;yarp&#45;plugins -->
<g id="edge50" class="edge">
<title>gz&#45;msgs&#45;&gt;gz&#45;sim&#45;yarp&#45;plugins</title>
<path fill="none" stroke="black" d="M1964.08,-630.85C2016.65,-623.04 2095.81,-607.64 2113.96,-584 2174.36,-505.31 2040.14,-414.15 1968.38,-373.07"/>
<polygon fill="black" stroke="black" points="1970.45,-370.22 1960.02,-368.36 1967.01,-376.32 1970.45,-370.22"/>
</g>
<!-- gz&#45;transport&#45;&gt;gz&#45;gui -->
<g id="edge51" class="edge">
<title>gz&#45;transport&#45;&gt;gz&#45;gui</title>
<path fill="none" stroke="black" d="M1791.28,-548.59C1777.41,-538.97 1759.74,-526.73 1744.79,-516.37"/>
<polygon fill="black" stroke="black" points="1746.88,-513.56 1736.67,-510.74 1742.9,-519.31 1746.88,-513.56"/>
</g>
<!-- gz&#45;transport&#45;&gt;gz&#45;sensors -->
<g id="edge52" class="edge">
<title>gz&#45;transport&#45;&gt;gz&#45;sensors</title>
<path fill="none" stroke="black" d="M1845.7,-549.29C1865.37,-539.24 1891.06,-526.12 1912.26,-515.28"/>
<polygon fill="black" stroke="black" points="1913.6,-518.53 1920.91,-510.86 1910.41,-512.3 1913.6,-518.53"/>
</g>
<!-- gz&#45;transport&#45;&gt;gz&#45;sim -->
<g id="edge53" class="edge">
<title>gz&#45;transport&#45;&gt;gz&#45;sim</title>
<path fill="none" stroke="black" d="M1826.44,-547.85C1838.85,-529.61 1859.46,-500.13 1878.96,-476 1886.68,-466.44 1895.61,-456.35 1903.66,-447.57"/>
<polygon fill="black" stroke="black" points="1906.07,-450.11 1910.3,-440.4 1900.94,-445.35 1906.07,-450.11"/>
</g>
<!-- gz&#45;transport&#45;&gt;gz&#45;launch -->
<g id="edge54" class="edge">
<title>gz&#45;transport&#45;&gt;gz&#45;launch</title>
<path fill="none" stroke="black" d="M1807.91,-547.85C1792.72,-510.91 1756.79,-423.55 1738.34,-378.67"/>
<polygon fill="black" stroke="black" points="1741.66,-377.55 1734.62,-369.63 1735.19,-380.21 1741.66,-377.55"/>
</g>
<!-- gz&#45;transport&#45;&gt;gz&#45;sim&#45;yarp&#45;plugins -->
<g id="edge55" class="edge">
<title>gz&#45;transport&#45;&gt;gz&#45;sim&#45;yarp&#45;plugins</title>
<path fill="none" stroke="black" d="M1818.6,-547.9C1825.67,-517.21 1843.34,-451.56 1873.96,-404 1880.46,-393.91 1889.16,-384.21 1897.62,-375.92"/>
<polygon fill="black" stroke="black" points="1899.91,-378.58 1904.82,-369.19 1895.13,-373.47 1899.91,-378.58"/>
</g>
<!-- gz&#45;fuel&#45;tools&#45;&gt;gz&#45;sim -->
<g id="edge56" class="edge">
<title>gz&#45;fuel&#45;tools&#45;&gt;gz&#45;sim</title>
<path fill="none" stroke="black" d="M2023.54,-547.6C2030.55,-528.62 2038.08,-498.01 2024.96,-476 2013.76,-457.21 1993.34,-444.68 1974.03,-436.55"/>
<polygon fill="black" stroke="black" points="1975.48,-433.36 1964.89,-433.01 1972.95,-439.89 1975.48,-433.36"/>
</g>
<!-- gz&#45;gui&#45;&gt;gz&#45;sim -->
<g id="edge57" class="edge">
<title>gz&#45;gui&#45;&gt;gz&#45;sim</title>
<path fill="none" stroke="black" d="M1746.31,-482.37C1782.77,-470.39 1842.24,-450.84 1882.92,-437.47"/>
<polygon fill="black" stroke="black" points="1883.76,-440.88 1892.16,-434.44 1881.57,-434.23 1883.76,-440.88"/>
</g>
<!-- gz&#45;gui&#45;&gt;gz&#45;launch -->
<g id="edge58" class="edge">
<title>gz&#45;gui&#45;&gt;gz&#45;launch</title>
<path fill="none" stroke="black" d="M1715.55,-475.59C1717.75,-451.61 1721.73,-408.14 1724.36,-379.42"/>
<polygon fill="black" stroke="black" points="1727.83,-379.9 1725.25,-369.62 1720.86,-379.26 1727.83,-379.9"/>
</g>
<!-- gz&#45;sensors&#45;&gt;gz&#45;sim -->
<g id="edge59" class="edge">
<title>gz&#45;sensors&#45;&gt;gz&#45;sim</title>
<path fill="none" stroke="black" d="M1945.78,-475.7C1943.08,-468.15 1939.86,-459.12 1936.84,-450.68"/>
<polygon fill="black" stroke="black" points="1940.24,-449.77 1933.58,-441.53 1933.64,-452.12 1940.24,-449.77"/>
</g>
<!-- gz&#45;sim&#45;&gt;gz&#45;launch -->
<g id="edge60" class="edge">
<title>gz&#45;sim&#45;&gt;gz&#45;launch</title>
<path fill="none" stroke="black" d="M1894.38,-409.6C1862.04,-398.28 1812.09,-380.8 1775.17,-367.87"/>
<polygon fill="black" stroke="black" points="1776.66,-364.69 1766.07,-364.69 1774.35,-371.3 1776.66,-364.69"/>
</g>
<!-- gz&#45;sim&#45;&gt;gz&#45;sim&#45;yarp&#45;plugins -->
<g id="edge61" class="edge">
<title>gz&#45;sim&#45;&gt;gz&#45;sim&#45;yarp&#45;plugins</title>
<path fill="none" stroke="black" d="M1926.96,-403.7C1926.96,-396.41 1926.96,-387.73 1926.96,-379.54"/>
<polygon fill="black" stroke="black" points="1930.46,-379.62 1926.96,-369.62 1923.46,-379.62 1930.46,-379.62"/>
</g>
<!-- openvino -->
<g id="node50" class="node">
<title>openvino</title>
<g id="a_node50"><a xlink:href="https://github.com/conda-forge/openvino-feedstock" xlink:title="openvino">
<ellipse fill="#35b779" stroke="black" cx="1302.29" cy="-1402" rx="56.47" ry="18"/>
<text text-anchor="middle" x="1302.29" y="-1397.33" font-family="Times,serif" font-size="14.00">openvino</text>
</a>
</g>
</g>
<!-- openvino&#45;&gt;opencv -->
<g id="edge62" class="edge">
<title>openvino&#45;&gt;opencv</title>
<path fill="none" stroke="black" d="M1317.7,-1384.41C1325.63,-1375.87 1335.46,-1365.28 1344.28,-1355.79"/>
<polygon fill="black" stroke="black" points="1346.73,-1358.29 1350.97,-1348.58 1341.6,-1353.53 1346.73,-1358.29"/>
</g>
<!-- openvino&#45;&gt;openvino&#45;tokenizers -->
<g id="edge63" class="edge">
<title>openvino&#45;&gt;openvino&#45;tokenizers</title>
<path fill="none" stroke="black" d="M1263.11,-1388.65C1229.17,-1377.94 1179.51,-1362.29 1140.52,-1349.99"/>
<polygon fill="black" stroke="black" points="1141.6,-1346.66 1131.01,-1346.99 1139.49,-1353.34 1141.6,-1346.66"/>
</g>
<!-- tensorstore -->
<g id="node52" class="node">
<title>tensorstore</title>
<g id="a_node52"><a xlink:href="https://github.com/conda-forge/tensorstore-feedstock" xlink:title="tensorstore">
<ellipse fill="#35b779" stroke="black" cx="1911.12" cy="-1114" rx="69.1" ry="18"/>
<text text-anchor="middle" x="1911.12" y="-1109.33" font-family="Times,serif" font-size="14.00">tensorstore</text>
</a>
</g>
</g>
<!-- gnss&#45;sdr&#45;&gt;tensorstore -->
<!-- gcld3 -->
<g id="node53" class="node">
<title>gcld3</title>
<g id="a_node53"><a xlink:href="https://github.com/conda-forge/gcld3-feedstock" xlink:title="gcld3">
<ellipse fill="#35b779" stroke="black" cx="1911.12" cy="-1042" rx="38.58" ry="18"/>
<text text-anchor="middle" x="1911.12" y="-1037.33" font-family="Times,serif" font-size="14.00">gcld3</text>
</a>
</g>
</g>
<!-- tensorstore&#45;&gt;gcld3 -->
<!-- bloaty -->
<g id="node54" class="node">
<title>bloaty</title>
<g id="a_node54"><a xlink:href="https://github.com/conda-forge/bloaty-feedstock" xlink:title="bloaty">
<ellipse fill="#35b779" stroke="black" cx="1911.12" cy="-970" rx="42.26" ry="18"/>
<text text-anchor="middle" x="1911.12" y="-965.33" font-family="Times,serif" font-size="14.00">bloaty</text>
</a>
</g>
</g>
<!-- gcld3&#45;&gt;bloaty -->
<!-- bfiocpp -->
<g id="node59" class="node">
<title>bfiocpp</title>
<g id="a_node59"><a xlink:href="https://github.com/conda-forge/bfiocpp-feedstock" xlink:title="bfiocpp">
<ellipse fill="#35b779" stroke="black" cx="1911.12" cy="-898" rx="47.53" ry="18"/>
<text text-anchor="middle" x="1911.12" y="-893.33" font-family="Times,serif" font-size="14.00">bfiocpp</text>
</a>
</g>
</g>
<!-- bloaty&#45;&gt;bfiocpp -->
<!-- google&#45;cloud&#45;cpp&#45;core -->
<g id="node55" class="node">
<title>google&#45;cloud&#45;cpp&#45;core</title>
<g id="a_node55"><a xlink:href="https://github.com/conda-forge/google-cloud-cpp-core-feedstock" xlink:title="google cloud cpp core">
<ellipse fill="#35b779" stroke="black" cx="464.29" cy="-1402" rx="120.13" ry="18"/>
<text text-anchor="middle" x="464.29" y="-1397.33" font-family="Times,serif" font-size="14.00">google cloud cpp core</text>
</a>
</g>
</g>
<!-- google&#45;cloud&#45;cpp&#45;core&#45;&gt;arrow&#45;cpp -->
<g id="edge68" class="edge">
<title>google&#45;cloud&#45;cpp&#45;core&#45;&gt;arrow&#45;cpp</title>
<path fill="none" stroke="black" d="M542.74,-1388.08C624.07,-1374.68 749.68,-1354 825.24,-1341.55"/>
<polygon fill="black" stroke="black" points="825.68,-1345.02 834.98,-1339.95 824.54,-1338.12 825.68,-1345.02"/>
</g>
<!-- google&#45;cloud&#45;cpp&#45;core&#45;&gt;google&#45;cloud&#45;cpp -->
<g id="edge69" class="edge">
<title>google&#45;cloud&#45;cpp&#45;core&#45;&gt;google&#45;cloud&#45;cpp</title>
<path fill="none" stroke="black" d="M370.55,-1390.46C262.49,-1372.72 89.6,-1325.89 10.29,-1204 1.57,-1190.59 0,-1180.25 10.29,-1168 35.55,-1137.95 131.73,-1124.93 209.04,-1119.3"/>
<polygon fill="black" stroke="black" points="209.06,-1122.8 218.79,-1118.62 208.57,-1115.82 209.06,-1122.8"/>
</g>
<!-- google&#45;cloud&#45;cpp&#45;compute -->
<g id="node56" class="node">
<title>google&#45;cloud&#45;cpp&#45;compute</title>
<g id="a_node56"><a xlink:href="https://github.com/conda-forge/google-cloud-cpp-compute-feedstock" xlink:title="google cloud cpp compute">
<ellipse fill="#fde725" stroke="black" cx="161.29" cy="-1186" rx="141.7" ry="18"/>
<text text-anchor="middle" x="161.29" y="-1181.33" font-family="Times,serif" font-size="14.00">google cloud cpp compute</text>
</a>
</g>
</g>
<!-- google&#45;cloud&#45;cpp&#45;core&#45;&gt;google&#45;cloud&#45;cpp&#45;compute -->
<g id="edge70" class="edge">
<title>google&#45;cloud&#45;cpp&#45;core&#45;&gt;google&#45;cloud&#45;cpp&#45;compute</title>
<path fill="none" stroke="black" d="M440.26,-1384.03C386.45,-1346.02 256.17,-1254.01 194.6,-1210.52"/>
<polygon fill="black" stroke="black" points="196.75,-1207.76 186.56,-1204.85 192.71,-1213.47 196.75,-1207.76"/>
</g>
<!-- google&#45;cloud&#45;cpp&#45;bigquery -->
<g id="node57" class="node">
<title>google&#45;cloud&#45;cpp&#45;bigquery</title>
<g id="a_node57"><a xlink:href="https://github.com/conda-forge/google-cloud-cpp-bigquery-feedstock" xlink:title="google cloud cpp bigquery">
<ellipse fill="#fde725" stroke="black" cx="464.29" cy="-1186" rx="143.28" ry="18"/>
<text text-anchor="middle" x="464.29" y="-1181.33" font-family="Times,serif" font-size="14.00">google cloud cpp bigquery</text>
</a>
</g>
</g>
<!-- google&#45;cloud&#45;cpp&#45;core&#45;&gt;google&#45;cloud&#45;cpp&#45;bigquery -->
<g id="edge71" class="edge">
<title>google&#45;cloud&#45;cpp&#45;core&#45;&gt;google&#45;cloud&#45;cpp&#45;bigquery</title>
<path fill="none" stroke="black" d="M464.29,-1383.85C464.29,-1347.14 464.29,-1260.66 464.29,-1215.53"/>
<polygon fill="black" stroke="black" points="467.79,-1215.75 464.29,-1205.75 460.79,-1215.75 467.79,-1215.75"/>
</g>
<!-- google&#45;cloud&#45;cpp&#45;ai -->
<g id="node58" class="node">
<title>google&#45;cloud&#45;cpp&#45;ai</title>
<g id="a_node58"><a xlink:href="https://github.com/conda-forge/google-cloud-cpp-ai-feedstock" xlink:title="google cloud cpp ai">
<ellipse fill="#fde725" stroke="black" cx="733.29" cy="-1186" rx="107.5" ry="18"/>
<text text-anchor="middle" x="733.29" y="-1181.33" font-family="Times,serif" font-size="14.00">google cloud cpp ai</text>
</a>
</g>
</g>
<!-- google&#45;cloud&#45;cpp&#45;core&#45;&gt;google&#45;cloud&#45;cpp&#45;ai -->
<g id="edge72" class="edge">
<title>google&#45;cloud&#45;cpp&#45;core&#45;&gt;google&#45;cloud&#45;cpp&#45;ai</title>
<path fill="none" stroke="black" d="M485.85,-1383.85C533.58,-1345.88 648.29,-1254.63 703.11,-1211.01"/>
<polygon fill="black" stroke="black" points="705.17,-1213.84 710.82,-1204.88 700.82,-1208.36 705.17,-1213.84"/>
</g>
<!-- google&#45;cloud&#45;cpp&#45;compute&#45;&gt;google&#45;cloud&#45;cpp -->
<g id="edge73" class="edge">
<title>google&#45;cloud&#45;cpp&#45;compute&#45;&gt;google&#45;cloud&#45;cpp</title>
<path fill="none" stroke="black" d="M197.7,-1168.23C218.78,-1158.53 245.49,-1146.22 267.93,-1135.89"/>
<polygon fill="black" stroke="black" points="269.23,-1139.14 276.85,-1131.78 266.31,-1132.79 269.23,-1139.14"/>
</g>
<!-- google&#45;cloud&#45;cpp&#45;bigquery&#45;&gt;google&#45;cloud&#45;cpp -->
<g id="edge74" class="edge">
<title>google&#45;cloud&#45;cpp&#45;bigquery&#45;&gt;google&#45;cloud&#45;cpp</title>
<path fill="none" stroke="black" d="M428.12,-1168.23C407.19,-1158.53 380.65,-1146.22 358.36,-1135.89"/>
<polygon fill="black" stroke="black" points="360.04,-1132.82 349.5,-1131.78 357.1,-1139.17 360.04,-1132.82"/>
</g>
<!-- google&#45;cloud&#45;cpp&#45;ai&#45;&gt;google&#45;cloud&#45;cpp -->
<g id="edge75" class="edge">
<title>google&#45;cloud&#45;cpp&#45;ai&#45;&gt;google&#45;cloud&#45;cpp</title>
<path fill="none" stroke="black" d="M659.17,-1172.65C584.88,-1160.26 470.82,-1141.25 394.21,-1128.49"/>
<polygon fill="black" stroke="black" points="395.12,-1125.09 384.68,-1126.9 393.96,-1131.99 395.12,-1125.09"/>
</g>
<!-- protobuf&#45;c -->
<g id="node60" class="node">
<title>protobuf&#45;c</title>
<g id="a_node60"><a xlink:href="https://github.com/conda-forge/protobuf-c-feedstock" xlink:title="protobuf c">
<ellipse fill="#35b779" stroke="black" cx="2502.41" cy="-530" rx="62.78" ry="18"/>
<text text-anchor="middle" x="2502.41" y="-525.33" font-family="Times,serif" font-size="14.00">protobuf c</text>
</a>
</g>
</g>
<!-- mysqlx&#45;connector&#45;python -->
<g id="node61" class="node">
<title>mysqlx&#45;connector&#45;python</title>
<g id="a_node61"><a xlink:href="https://github.com/conda-forge/mysqlx-connector-python-feedstock" xlink:title="mysqlx connector python">
<ellipse fill="#35b779" stroke="black" cx="2502.41" cy="-458" rx="137.49" ry="18"/>
<text text-anchor="middle" x="2502.41" y="-453.32" font-family="Times,serif" font-size="14.00">mysqlx connector python</text>
</a>
</g>
</g>
<!-- protobuf&#45;c&#45;&gt;mysqlx&#45;connector&#45;python -->
</g>
</svg>
