<?xml version="1.0" encoding="UTF-8" standalone="no"?>
<!DOCTYPE svg PUBLIC "-//W3C//DTD SVG 1.1//EN"
 "http://www.w3.org/Graphics/SVG/1.1/DTD/svg11.dtd">
<!-- Generated by graphviz version 12.0.0 (20240803.0821)
 -->
<!-- Pages: 1 -->
<svg width="2050pt" height="1168pt"
 viewBox="0.00 0.00 2050.49 1168.00" xmlns="http://www.w3.org/2000/svg" xmlns:xlink="http://www.w3.org/1999/xlink">
<g id="graph0" class="graph" transform="scale(1 1) rotate(0) translate(4 1164)">
<polygon fill="white" stroke="none" points="-4,4 -4,-1164 2046.49,-1164 2046.49,4 -4,4"/>
<!-- arrow&#45;cpp -->
<g id="node1" class="node">
<title>arrow&#45;cpp</title>
<g id="a_node1"><a xlink:href="https://github.com/conda-forge/arrow-cpp-feedstock" xlink:title="arrow cpp">
<ellipse fill="#fde725" stroke="black" cx="1032.5" cy="-854" rx="61.73" ry="18"/>
<text text-anchor="middle" x="1032.5" y="-849.33" font-family="Times,serif" font-size="14.00">arrow cpp</text>
</a>
</g>
</g>
<!-- ray&#45;packages -->
<g id="node2" class="node">
<title>ray&#45;packages</title>
<g id="a_node2"><a xlink:href="https://github.com/conda-forge/ray-packages-feedstock" xlink:title="ray packages">
<ellipse fill="#fde725" stroke="black" cx="1208.5" cy="-782" rx="76.99" ry="18"/>
<text text-anchor="middle" x="1208.5" y="-777.33" font-family="Times,serif" font-size="14.00">ray packages</text>
</a>
</g>
</g>
<!-- arrow&#45;cpp&#45;&gt;ray&#45;packages -->
<g id="edge1" class="edge">
<title>arrow&#45;cpp&#45;&gt;ray&#45;packages</title>
<path fill="none" stroke="black" d="M1068.12,-838.83C1094.6,-828.3 1131.03,-813.81 1160.14,-802.24"/>
<polygon fill="black" stroke="black" points="1161.1,-805.62 1169.1,-798.67 1158.51,-799.12 1161.1,-805.62"/>
</g>
<!-- datafusion -->
<g id="node3" class="node">
<title>datafusion</title>
<g id="a_node3"><a xlink:href="https://github.com/conda-forge/datafusion-feedstock" xlink:title="datafusion">
<ellipse fill="#fde725" stroke="black" cx="940.5" cy="-782" rx="63.84" ry="18"/>
<text text-anchor="middle" x="940.5" y="-777.33" font-family="Times,serif" font-size="14.00">datafusion</text>
</a>
</g>
</g>
<!-- arrow&#45;cpp&#45;&gt;datafusion -->
<g id="edge2" class="edge">
<title>arrow&#45;cpp&#45;&gt;datafusion</title>
<path fill="none" stroke="black" d="M1011.17,-836.76C999.29,-827.73 984.3,-816.33 971.19,-806.35"/>
<polygon fill="black" stroke="black" points="973.33,-803.58 963.25,-800.31 969.09,-809.15 973.33,-803.58"/>
</g>
<!-- arcticdb -->
<g id="node4" class="node">
<title>arcticdb</title>
<g id="a_node4"><a xlink:href="https://github.com/conda-forge/arcticdb-feedstock" xlink:title="arcticdb">
<ellipse fill="#fde725" stroke="black" cx="1023.5" cy="-710" rx="52.26" ry="18"/>
<text text-anchor="middle" x="1023.5" y="-705.33" font-family="Times,serif" font-size="14.00">arcticdb</text>
</a>
</g>
</g>
<!-- arrow&#45;cpp&#45;&gt;arcticdb -->
<g id="edge3" class="edge">
<title>arrow&#45;cpp&#45;&gt;arcticdb</title>
<path fill="none" stroke="black" d="M1031.4,-835.59C1029.88,-811.61 1027.12,-768.14 1025.3,-739.42"/>
<polygon fill="black" stroke="black" points="1028.81,-739.38 1024.68,-729.62 1021.82,-739.82 1028.81,-739.38"/>
</g>
<!-- csp -->
<g id="node5" class="node">
<title>csp</title>
<g id="a_node5"><a xlink:href="https://github.com/conda-forge/csp-feedstock" xlink:title="csp">
<ellipse fill="#fde725" stroke="black" cx="1103.5" cy="-638" rx="28.06" ry="18"/>
<text text-anchor="middle" x="1103.5" y="-633.33" font-family="Times,serif" font-size="14.00">csp</text>
</a>
</g>
</g>
<!-- arrow&#45;cpp&#45;&gt;csp -->
<g id="edge4" class="edge">
<title>arrow&#45;cpp&#45;&gt;csp</title>
<path fill="none" stroke="black" d="M1040.76,-835.98C1052,-812.27 1072.12,-767.72 1084.5,-728 1090.69,-708.15 1095.54,-685.18 1098.79,-667.55"/>
<polygon fill="black" stroke="black" points="1102.22,-668.25 1100.52,-657.79 1095.33,-667.03 1102.22,-668.25"/>
</g>
<!-- bazel -->
<g id="node6" class="node">
<title>bazel</title>
<g id="a_node6"><a xlink:href="https://github.com/conda-forge/bazel-feedstock/pull/247" xlink:title="bazel ❎">
<ellipse fill="#31688e" stroke="black" cx="1457.32" cy="-1142" rx="52.79" ry="18"/>
<text text-anchor="middle" x="1457.32" y="-1137.33" font-family="Times,serif" font-size="14.00" fill="white">bazel ❎</text>
</a>
</g>
</g>
<!-- mosh -->
<g id="node7" class="node">
<title>mosh</title>
<g id="a_node7"><a xlink:href="https://github.com/conda-forge/mosh-feedstock/pull/41" xlink:title="mosh ❎">
<ellipse fill="#31688e" stroke="black" cx="1457.32" cy="-1070" rx="53.31" ry="18"/>
<text text-anchor="middle" x="1457.32" y="-1065.33" font-family="Times,serif" font-size="14.00" fill="white">mosh ❎</text>
</a>
</g>
</g>
<!-- bazel&#45;&gt;mosh -->
<!-- mysql -->
<g id="node8" class="node">
<title>mysql</title>
<g id="a_node8"><a xlink:href="https://github.com/conda-forge/mysql-feedstock/pull/104" xlink:title="mysql ✓">
<ellipse fill="#31688e" stroke="black" cx="1457.32" cy="-998" rx="49.1" ry="18"/>
<text text-anchor="middle" x="1457.32" y="-993.33" font-family="Times,serif" font-size="14.00" fill="white">mysql ✓</text>
</a>
</g>
</g>
<!-- mosh&#45;&gt;mysql -->
<!-- qgis -->
<g id="node9" class="node">
<title>qgis</title>
<g id="a_node9"><a xlink:href="https://github.com/conda-forge/qgis-feedstock" xlink:title="qgis">
<ellipse fill="#ff8c00" stroke="black" cx="1457.32" cy="-926" rx="32.27" ry="18"/>
<text text-anchor="middle" x="1457.32" y="-921.33" font-family="Times,serif" font-size="14.00">qgis</text>
</a>
</g>
</g>
<!-- mysql&#45;&gt;qgis -->
<!-- tensorflow -->
<g id="node10" class="node">
<title>tensorflow</title>
<g id="a_node10"><a xlink:href="https://github.com/conda-forge/tensorflow-feedstock/pull/407" xlink:title="tensorflow ❎">
<ellipse fill="#31688e" stroke="black" cx="1457.32" cy="-854" rx="79.09" ry="18"/>
<text text-anchor="middle" x="1457.32" y="-849.33" font-family="Times,serif" font-size="14.00" fill="white">tensorflow ❎</text>
</a>
</g>
</g>
<!-- qgis&#45;&gt;tensorflow -->
<!-- r&#45;protolite -->
<g id="node11" class="node">
<title>r&#45;protolite</title>
<g id="a_node11"><a xlink:href="https://github.com/conda-forge/r-protolite-feedstock" xlink:title="r protolite">
<ellipse fill="#ff8c00" stroke="black" cx="1457.32" cy="-782" rx="62.26" ry="18"/>
<text text-anchor="middle" x="1457.32" y="-777.33" font-family="Times,serif" font-size="14.00">r protolite</text>
</a>
</g>
</g>
<!-- tensorflow&#45;&gt;r&#45;protolite -->
<!-- go&#45;cockroach -->
<g id="node12" class="node">
<title>go&#45;cockroach</title>
<g id="a_node12"><a xlink:href="https://github.com/conda-forge/go-cockroach-feedstock" xlink:title="go cockroach">
<ellipse fill="#ff8c00" stroke="black" cx="1457.32" cy="-710" rx="76.46" ry="18"/>
<text text-anchor="middle" x="1457.32" y="-705.33" font-family="Times,serif" font-size="14.00">go cockroach</text>
</a>
</g>
</g>
<!-- r&#45;protolite&#45;&gt;go&#45;cockroach -->
<!-- tomviz -->
<g id="node18" class="node">
<title>tomviz</title>
<g id="a_node18"><a xlink:href="https://github.com/conda-forge/tomviz-feedstock" xlink:title="tomviz">
<ellipse fill="#ff8c00" stroke="black" cx="1457.32" cy="-638" rx="44.9" ry="18"/>
<text text-anchor="middle" x="1457.32" y="-633.33" font-family="Times,serif" font-size="14.00">tomviz</text>
</a>
</g>
</g>
<!-- go&#45;cockroach&#45;&gt;tomviz -->
<!-- pytorch&#45;cpu -->
<g id="node13" class="node">
<title>pytorch&#45;cpu</title>
<g id="a_node13"><a xlink:href="https://github.com/conda-forge/pytorch-cpu-feedstock" xlink:title="pytorch cpu">
<ellipse fill="#000000" stroke="black" cx="1199.5" cy="-854" rx="70.68" ry="18"/>
<text text-anchor="middle" x="1199.5" y="-849.33" font-family="Times,serif" font-size="14.00" fill="white">pytorch cpu</text>
</a>
</g>
</g>
<!-- pytorch&#45;cpu&#45;&gt;ray&#45;packages -->
<g id="edge11" class="edge">
<title>pytorch&#45;cpu&#45;&gt;ray&#45;packages</title>
<path fill="none" stroke="black" d="M1201.73,-835.7C1202.68,-828.32 1203.81,-819.52 1204.87,-811.25"/>
<polygon fill="black" stroke="black" points="1208.31,-811.97 1206.11,-801.61 1201.36,-811.08 1208.31,-811.97"/>
</g>
<!-- jaxlib -->
<g id="node14" class="node">
<title>jaxlib</title>
<g id="a_node14"><a xlink:href="https://github.com/conda-forge/jaxlib-feedstock" xlink:title="jaxlib">
<ellipse fill="#ff8c00" stroke="black" cx="1298.5" cy="-926" rx="38.58" ry="18"/>
<text text-anchor="middle" x="1298.5" y="-921.33" font-family="Times,serif" font-size="14.00">jaxlib</text>
</a>
</g>
</g>
<!-- jaxlib&#45;&gt;ray&#45;packages -->
<g id="edge12" class="edge">
<title>jaxlib&#45;&gt;ray&#45;packages</title>
<path fill="none" stroke="black" d="M1298.34,-907.58C1297.4,-888.58 1293.57,-857.95 1279.5,-836 1271.64,-823.74 1259.89,-813.3 1248.19,-805"/>
<polygon fill="black" stroke="black" points="1250.42,-802.29 1240.15,-799.66 1246.54,-808.11 1250.42,-802.29"/>
</g>
<!-- gazebo -->
<g id="node15" class="node">
<title>gazebo</title>
<g id="a_node15"><a xlink:href="https://github.com/conda-forge/gazebo-feedstock" xlink:title="gazebo">
<ellipse fill="#ff8c00" stroke="black" cx="1457.32" cy="-234" rx="46.47" ry="18"/>
<text text-anchor="middle" x="1457.32" y="-229.32" font-family="Times,serif" font-size="14.00">gazebo</text>
</a>
</g>
</g>
<!-- gazebo&#45;yarp&#45;plugins -->
<g id="node16" class="node">
<title>gazebo&#45;yarp&#45;plugins</title>
<g id="a_node16"><a xlink:href="https://github.com/conda-forge/gazebo-yarp-plugins-feedstock" xlink:title="gazebo yarp plugins">
<ellipse fill="#fde725" stroke="black" cx="1457.32" cy="-162" rx="112.24" ry="18"/>
<text text-anchor="middle" x="1457.32" y="-157.32" font-family="Times,serif" font-size="14.00">gazebo yarp plugins</text>
</a>
</g>
</g>
<!-- gazebo&#45;&gt;gazebo&#45;yarp&#45;plugins -->
<g id="edge13" class="edge">
<title>gazebo&#45;&gt;gazebo&#45;yarp&#45;plugins</title>
<path fill="none" stroke="black" d="M1457.32,-215.7C1457.32,-208.41 1457.32,-199.73 1457.32,-191.54"/>
<polygon fill="black" stroke="black" points="1460.82,-191.62 1457.32,-181.62 1453.82,-191.62 1460.82,-191.62"/>
</g>
<!-- google&#45;cloud&#45;cpp -->
<g id="node17" class="node">
<title>google&#45;cloud&#45;cpp</title>
<g id="a_node17"><a xlink:href="https://github.com/conda-forge/google-cloud-cpp-feedstock" xlink:title="google cloud cpp">
<ellipse fill="#fde725" stroke="black" cx="459.5" cy="-638" rx="95.4" ry="18"/>
<text text-anchor="middle" x="459.5" y="-633.33" font-family="Times,serif" font-size="14.00">google cloud cpp</text>
</a>
</g>
</g>
<!-- protozfits -->
<g id="node19" class="node">
<title>protozfits</title>
<g id="a_node19"><a xlink:href="https://github.com/conda-forge/protozfits-feedstock/pull/43" xlink:title="protozfits ✓">
<ellipse fill="#31688e" stroke="black" cx="1457.32" cy="-566" rx="66.99" ry="18"/>
<text text-anchor="middle" x="1457.32" y="-561.33" font-family="Times,serif" font-size="14.00" fill="white">protozfits ✓</text>
</a>
</g>
</g>
<!-- tomviz&#45;&gt;protozfits -->
<!-- or&#45;tools -->
<g id="node20" class="node">
<title>or&#45;tools</title>
<g id="a_node20"><a xlink:href="https://github.com/conda-forge/or-tools-feedstock" xlink:title="or tools">
<ellipse fill="#ff8c00" stroke="black" cx="1457.32" cy="-494" rx="49.1" ry="18"/>
<text text-anchor="middle" x="1457.32" y="-489.32" font-family="Times,serif" font-size="14.00">or tools</text>
</a>
</g>
</g>
<!-- protozfits&#45;&gt;or&#45;tools -->
<!-- bear -->
<g id="node21" class="node">
<title>bear</title>
<g id="a_node21"><a xlink:href="https://github.com/conda-forge/bear-feedstock/pull/52" xlink:title="bear ❎">
<ellipse fill="#31688e" stroke="black" cx="1457.32" cy="-422" rx="49.1" ry="18"/>
<text text-anchor="middle" x="1457.32" y="-417.32" font-family="Times,serif" font-size="14.00" fill="white">bear ❎</text>
</a>
</g>
</g>
<!-- or&#45;tools&#45;&gt;bear -->
<!-- xilinx&#45;runtime -->
<g id="node22" class="node">
<title>xilinx&#45;runtime</title>
<g id="a_node22"><a xlink:href="https://github.com/conda-forge/xilinx-runtime-feedstock/pull/38" xlink:title="xilinx runtime ❎">
<ellipse fill="#31688e" stroke="black" cx="668.54" cy="-378" rx="96.98" ry="18"/>
<text text-anchor="middle" x="668.54" y="-373.32" font-family="Times,serif" font-size="14.00" fill="white">xilinx runtime ❎</text>
</a>
</g>
</g>
<!-- gcld3 -->
<g id="node23" class="node">
<title>gcld3</title>
<g id="a_node23"><a xlink:href="https://github.com/conda-forge/gcld3-feedstock/pull/14" xlink:title="gcld3 ✓">
<ellipse fill="#31688e" stroke="black" cx="668.54" cy="-306" rx="46.47" ry="18"/>
<text text-anchor="middle" x="668.54" y="-301.32" font-family="Times,serif" font-size="14.00" fill="white">gcld3 ✓</text>
</a>
</g>
</g>
<!-- xilinx&#45;runtime&#45;&gt;gcld3 -->
<!-- openvino&#45;tokenizers -->
<g id="node30" class="node">
<title>openvino&#45;tokenizers</title>
<g id="a_node30"><a xlink:href="https://github.com/conda-forge/openvino-tokenizers-feedstock" xlink:title="openvino tokenizers">
<ellipse fill="#ff8c00" stroke="black" cx="668.54" cy="-234" rx="111.71" ry="18"/>
<text text-anchor="middle" x="668.54" y="-229.32" font-family="Times,serif" font-size="14.00">openvino tokenizers</text>
</a>
</g>
</g>
<!-- gcld3&#45;&gt;openvino&#45;tokenizers -->
<!-- gz&#45;transport -->
<g id="node24" class="node">
<title>gz&#45;transport</title>
<g id="a_node24"><a xlink:href="https://github.com/conda-forge/gz-transport-feedstock" xlink:title="gz transport">
<ellipse fill="#35b779" stroke="black" cx="1931.81" cy="-890" rx="73.3" ry="18"/>
<text text-anchor="middle" x="1931.81" y="-885.33" font-family="Times,serif" font-size="14.00">gz transport</text>
</a>
</g>
</g>
<!-- gz&#45;gui -->
<g id="node25" class="node">
<title>gz&#45;gui</title>
<g id="a_node25"><a xlink:href="https://github.com/conda-forge/gz-gui-feedstock" xlink:title="gz gui">
<ellipse fill="#fde725" stroke="black" cx="1966.81" cy="-818" rx="41.74" ry="18"/>
<text text-anchor="middle" x="1966.81" y="-813.33" font-family="Times,serif" font-size="14.00">gz gui</text>
</a>
</g>
</g>
<!-- gz&#45;transport&#45;&gt;gz&#45;gui -->
<g id="edge19" class="edge">
<title>gz&#45;transport&#45;&gt;gz&#45;gui</title>
<path fill="none" stroke="black" d="M1940.46,-871.7C1944.28,-864.07 1948.85,-854.92 1953.11,-846.4"/>
<polygon fill="black" stroke="black" points="1956.24,-847.97 1957.58,-837.46 1949.98,-844.84 1956.24,-847.97"/>
</g>
<!-- gz&#45;sensors -->
<g id="node26" class="node">
<title>gz&#45;sensors</title>
<g id="a_node26"><a xlink:href="https://github.com/conda-forge/gz-sensors-feedstock" xlink:title="gz sensors">
<ellipse fill="#fde725" stroke="black" cx="1804.81" cy="-818" rx="64.36" ry="18"/>
<text text-anchor="middle" x="1804.81" y="-813.33" font-family="Times,serif" font-size="14.00">gz sensors</text>
</a>
</g>
</g>
<!-- gz&#45;transport&#45;&gt;gz&#45;sensors -->
<g id="edge20" class="edge">
<title>gz&#45;transport&#45;&gt;gz&#45;sensors</title>
<path fill="none" stroke="black" d="M1902.99,-873.12C1885.25,-863.34 1862.3,-850.69 1843.05,-840.07"/>
<polygon fill="black" stroke="black" points="1844.85,-837.07 1834.4,-835.31 1841.47,-843.2 1844.85,-837.07"/>
</g>
<!-- gz&#45;sim -->
<g id="node27" class="node">
<title>gz&#45;sim</title>
<g id="a_node27"><a xlink:href="https://github.com/conda-forge/gz-sim-feedstock" xlink:title="gz sim">
<ellipse fill="#fde725" stroke="black" cx="1895.81" cy="-746" rx="43.84" ry="18"/>
<text text-anchor="middle" x="1895.81" y="-741.33" font-family="Times,serif" font-size="14.00">gz sim</text>
</a>
</g>
</g>
<!-- gz&#45;transport&#45;&gt;gz&#45;sim -->
<g id="edge21" class="edge">
<title>gz&#45;transport&#45;&gt;gz&#45;sim</title>
<path fill="none" stroke="black" d="M1926.31,-871.9C1923.07,-861.56 1918.99,-848.08 1915.81,-836 1910.51,-815.84 1905.37,-792.88 1901.63,-775.33"/>
<polygon fill="black" stroke="black" points="1905.08,-774.7 1899.59,-765.63 1898.23,-776.14 1905.08,-774.7"/>
</g>
<!-- gz&#45;launch -->
<g id="node28" class="node">
<title>gz&#45;launch</title>
<g id="a_node28"><a xlink:href="https://github.com/conda-forge/gz-launch-feedstock" xlink:title="gz launch">
<ellipse fill="#fde725" stroke="black" cx="1967.81" cy="-674" rx="59.1" ry="18"/>
<text text-anchor="middle" x="1967.81" y="-669.33" font-family="Times,serif" font-size="14.00">gz launch</text>
</a>
</g>
</g>
<!-- gz&#45;transport&#45;&gt;gz&#45;launch -->
<g id="edge22" class="edge">
<title>gz&#45;transport&#45;&gt;gz&#45;launch</title>
<path fill="none" stroke="black" d="M1971.94,-874.72C1989.31,-866.31 2007.89,-853.76 2017.81,-836 2042.49,-791.81 2011.01,-733.85 1987.98,-700.9"/>
<polygon fill="black" stroke="black" points="1991.06,-699.18 1982.36,-693.13 1985.39,-703.28 1991.06,-699.18"/>
</g>
<!-- gz&#45;gui&#45;&gt;gz&#45;sim -->
<g id="edge23" class="edge">
<title>gz&#45;gui&#45;&gt;gz&#45;sim</title>
<path fill="none" stroke="black" d="M1950.7,-801.12C1941.62,-792.17 1930.1,-780.81 1919.97,-770.81"/>
<polygon fill="black" stroke="black" points="1922.51,-768.41 1912.94,-763.88 1917.6,-773.4 1922.51,-768.41"/>
</g>
<!-- gz&#45;gui&#45;&gt;gz&#45;launch -->
<g id="edge24" class="edge">
<title>gz&#45;gui&#45;&gt;gz&#45;launch</title>
<path fill="none" stroke="black" d="M1966.93,-799.59C1967.1,-775.61 1967.41,-732.14 1967.61,-703.42"/>
<polygon fill="black" stroke="black" points="1971.11,-703.65 1967.68,-693.62 1964.11,-703.6 1971.11,-703.65"/>
</g>
<!-- gz&#45;sensors&#45;&gt;gz&#45;sim -->
<g id="edge25" class="edge">
<title>gz&#45;sensors&#45;&gt;gz&#45;sim</title>
<path fill="none" stroke="black" d="M1825.92,-800.76C1838.12,-791.38 1853.64,-779.44 1866.96,-769.2"/>
<polygon fill="black" stroke="black" points="1868.76,-772.22 1874.56,-763.35 1864.5,-766.67 1868.76,-772.22"/>
</g>
<!-- gz&#45;sim&#45;&gt;gz&#45;launch -->
<g id="edge26" class="edge">
<title>gz&#45;sim&#45;&gt;gz&#45;launch</title>
<path fill="none" stroke="black" d="M1912.15,-729.12C1921.16,-720.36 1932.54,-709.29 1942.66,-699.45"/>
<polygon fill="black" stroke="black" points="1944.97,-702.09 1949.7,-692.61 1940.09,-697.07 1944.97,-702.09"/>
</g>
<!-- gz&#45;fuel&#45;tools -->
<g id="node29" class="node">
<title>gz&#45;fuel&#45;tools</title>
<g id="a_node29"><a xlink:href="https://github.com/conda-forge/gz-fuel-tools-feedstock" xlink:title="gz fuel tools">
<ellipse fill="#35b779" stroke="black" cx="1649.81" cy="-818" rx="72.25" ry="18"/>
<text text-anchor="middle" x="1649.81" y="-813.33" font-family="Times,serif" font-size="14.00">gz fuel tools</text>
</a>
</g>
</g>
<!-- gz&#45;fuel&#45;tools&#45;&gt;gz&#45;sim -->
<g id="edge27" class="edge">
<title>gz&#45;fuel&#45;tools&#45;&gt;gz&#45;sim</title>
<path fill="none" stroke="black" d="M1696.08,-803.83C1740,-791.34 1805.64,-772.66 1849.55,-760.16"/>
<polygon fill="black" stroke="black" points="1850.38,-763.57 1859.04,-757.46 1848.47,-756.83 1850.38,-763.57"/>
</g>
<!-- bloaty -->
<g id="node31" class="node">
<title>bloaty</title>
<g id="a_node31"><a xlink:href="https://github.com/conda-forge/bloaty-feedstock/pull/5" xlink:title="bloaty ✓">
<ellipse fill="#31688e" stroke="black" cx="668.54" cy="-162" rx="50.16" ry="18"/>
<text text-anchor="middle" x="668.54" y="-157.32" font-family="Times,serif" font-size="14.00" fill="white">bloaty ✓</text>
</a>
</g>
</g>
<!-- openvino&#45;tokenizers&#45;&gt;bloaty -->
<!-- gz&#45;sim&#45;yarp&#45;plugins -->
<g id="node36" class="node">
<title>gz&#45;sim&#45;yarp&#45;plugins</title>
<g id="a_node36"><a xlink:href="https://github.com/conda-forge/gz-sim-yarp-plugins-feedstock" xlink:title="gz sim yarp plugins">
<ellipse fill="#ff8c00" stroke="black" cx="668.54" cy="-90" rx="109.61" ry="18"/>
<text text-anchor="middle" x="668.54" y="-85.33" font-family="Times,serif" font-size="14.00">gz sim yarp plugins</text>
</a>
</g>
</g>
<!-- bloaty&#45;&gt;gz&#45;sim&#45;yarp&#45;plugins -->
<!-- google&#45;cloud&#45;cpp&#45;core -->
<g id="node32" class="node">
<title>google&#45;cloud&#45;cpp&#45;core</title>
<g id="a_node32"><a xlink:href="https://github.com/conda-forge/google-cloud-cpp-core-feedstock/pull/25" xlink:title="google cloud cpp core ❎">
<ellipse fill="#31688e" stroke="black" cx="544.5" cy="-926" rx="135.39" ry="18"/>
<text text-anchor="middle" x="544.5" y="-921.33" font-family="Times,serif" font-size="14.00" fill="white">google cloud cpp core ❎</text>
</a>
</g>
</g>
<!-- google&#45;cloud&#45;cpp&#45;core&#45;&gt;arrow&#45;cpp -->
<g id="edge30" class="edge">
<title>google&#45;cloud&#45;cpp&#45;core&#45;&gt;arrow&#45;cpp</title>
<path fill="none" stroke="black" d="M634.29,-912.12C730.59,-898.31 881.17,-876.71 966.92,-864.41"/>
<polygon fill="black" stroke="black" points="967.17,-867.91 976.57,-863.02 966.17,-860.98 967.17,-867.91"/>
</g>
<!-- google&#45;cloud&#45;cpp&#45;core&#45;&gt;google&#45;cloud&#45;cpp -->
<g id="edge31" class="edge">
<title>google&#45;cloud&#45;cpp&#45;core&#45;&gt;google&#45;cloud&#45;cpp</title>
<path fill="none" stroke="black" d="M547.5,-907.64C553.59,-867.11 563.83,-764.24 525.5,-692 519.27,-680.25 509.2,-670.19 498.78,-662.08"/>
<polygon fill="black" stroke="black" points="501,-659.37 490.85,-656.36 496.91,-665.05 501,-659.37"/>
</g>
<!-- google&#45;cloud&#45;cpp&#45;compute -->
<g id="node33" class="node">
<title>google&#45;cloud&#45;cpp&#45;compute</title>
<g id="a_node33"><a xlink:href="https://github.com/conda-forge/google-cloud-cpp-compute-feedstock" xlink:title="google cloud cpp compute">
<ellipse fill="#fde725" stroke="black" cx="374.5" cy="-710" rx="141.7" ry="18"/>
<text text-anchor="middle" x="374.5" y="-705.33" font-family="Times,serif" font-size="14.00">google cloud cpp compute</text>
</a>
</g>
</g>
<!-- google&#45;cloud&#45;cpp&#45;core&#45;&gt;google&#45;cloud&#45;cpp&#45;compute -->
<g id="edge32" class="edge">
<title>google&#45;cloud&#45;cpp&#45;core&#45;&gt;google&#45;cloud&#45;cpp&#45;compute</title>
<path fill="none" stroke="black" d="M530.88,-907.85C501.16,-870.44 430.37,-781.32 395.14,-736.98"/>
<polygon fill="black" stroke="black" points="398.09,-735.07 389.13,-729.42 392.61,-739.42 398.09,-735.07"/>
</g>
<!-- google&#45;cloud&#45;cpp&#45;bigquery -->
<g id="node34" class="node">
<title>google&#45;cloud&#45;cpp&#45;bigquery</title>
<g id="a_node34"><a xlink:href="https://github.com/conda-forge/google-cloud-cpp-bigquery-feedstock" xlink:title="google cloud cpp bigquery">
<ellipse fill="#fde725" stroke="black" cx="715.5" cy="-782" rx="143.28" ry="18"/>
<text text-anchor="middle" x="715.5" y="-777.33" font-family="Times,serif" font-size="14.00">google cloud cpp bigquery</text>
</a>
</g>
</g>
<!-- google&#45;cloud&#45;cpp&#45;core&#45;&gt;google&#45;cloud&#45;cpp&#45;bigquery -->
<g id="edge33" class="edge">
<title>google&#45;cloud&#45;cpp&#45;core&#45;&gt;google&#45;cloud&#45;cpp&#45;bigquery</title>
<path fill="none" stroke="black" d="M565.13,-907.87C595.3,-882.82 651.62,-836.05 686.11,-807.41"/>
<polygon fill="black" stroke="black" points="688.18,-810.24 693.64,-801.16 683.71,-804.85 688.18,-810.24"/>
</g>
<!-- google&#45;cloud&#45;cpp&#45;ai -->
<g id="node35" class="node">
<title>google&#45;cloud&#45;cpp&#45;ai</title>
<g id="a_node35"><a xlink:href="https://github.com/conda-forge/google-cloud-cpp-ai-feedstock" xlink:title="google cloud cpp ai">
<ellipse fill="#fde725" stroke="black" cx="107.5" cy="-710" rx="107.5" ry="18"/>
<text text-anchor="middle" x="107.5" y="-705.33" font-family="Times,serif" font-size="14.00">google cloud cpp ai</text>
</a>
</g>
</g>
<!-- google&#45;cloud&#45;cpp&#45;core&#45;&gt;google&#45;cloud&#45;cpp&#45;ai -->
<g id="edge34" class="edge">
<title>google&#45;cloud&#45;cpp&#45;core&#45;&gt;google&#45;cloud&#45;cpp&#45;ai</title>
<path fill="none" stroke="black" d="M510.21,-908.21C431.62,-869.72 238.54,-775.17 151.42,-732.51"/>
<polygon fill="black" stroke="black" points="153.21,-729.49 142.69,-728.23 150.13,-735.77 153.21,-729.49"/>
</g>
<!-- google&#45;cloud&#45;cpp&#45;compute&#45;&gt;google&#45;cloud&#45;cpp -->
<g id="edge35" class="edge">
<title>google&#45;cloud&#45;cpp&#45;compute&#45;&gt;google&#45;cloud&#45;cpp</title>
<path fill="none" stroke="black" d="M395.08,-692.05C405.55,-683.43 418.46,-672.8 429.97,-663.32"/>
<polygon fill="black" stroke="black" points="432.16,-666.05 437.65,-656.99 427.71,-660.65 432.16,-666.05"/>
</g>
<!-- google&#45;cloud&#45;cpp&#45;bigquery&#45;&gt;google&#45;cloud&#45;cpp -->
<g id="edge36" class="edge">
<title>google&#45;cloud&#45;cpp&#45;bigquery&#45;&gt;google&#45;cloud&#45;cpp</title>
<path fill="none" stroke="black" d="M686.11,-764.06C654.65,-745.99 603.23,-716.65 558.5,-692 539.52,-681.54 518.35,-670.17 500.48,-660.65"/>
<polygon fill="black" stroke="black" points="502.19,-657.59 491.71,-655.99 498.9,-663.78 502.19,-657.59"/>
</g>
<!-- google&#45;cloud&#45;cpp&#45;ai&#45;&gt;google&#45;cloud&#45;cpp -->
<g id="edge37" class="edge">
<title>google&#45;cloud&#45;cpp&#45;ai&#45;&gt;google&#45;cloud&#45;cpp</title>
<path fill="none" stroke="black" d="M174.96,-695.59C234.81,-683.68 322.15,-666.31 384.25,-653.96"/>
<polygon fill="black" stroke="black" points="384.93,-657.4 394.06,-652.02 383.57,-650.53 384.93,-657.4"/>
</g>
<!-- mysqlx&#45;connector&#45;python -->
<g id="node37" class="node">
<title>mysqlx&#45;connector&#45;python</title>
<g id="a_node37"><a xlink:href="https://github.com/conda-forge/mysqlx-connector-python-feedstock/pull/9" xlink:title="mysqlx connector python ✓">
<ellipse fill="#31688e" stroke="black" cx="668.54" cy="-18" rx="145.38" ry="18"/>
<text text-anchor="middle" x="668.54" y="-13.32" font-family="Times,serif" font-size="14.00" fill="white">mysqlx connector python ✓</text>
</a>
</g>
</g>
<!-- gz&#45;sim&#45;yarp&#45;plugins&#45;&gt;mysqlx&#45;connector&#45;python -->
</g>
</svg>
