<?xml version="1.0" encoding="UTF-8" standalone="no"?>
<!DOCTYPE svg PUBLIC "-//W3C//DTD SVG 1.1//EN"
 "http://www.w3.org/Graphics/SVG/1.1/DTD/svg11.dtd">
<!-- Generated by graphviz version 12.0.0 (20240803.0821)
 -->
<!-- Pages: 1 -->
<svg width="2874pt" height="1528pt"
 viewBox="0.00 0.00 2874.27 1528.00" xmlns="http://www.w3.org/2000/svg" xmlns:xlink="http://www.w3.org/1999/xlink">
<g id="graph0" class="graph" transform="scale(1 1) rotate(0) translate(4 1524)">
<polygon fill="white" stroke="none" points="-4,4 -4,-1524 2870.27,-1524 2870.27,4 -4,4"/>
<!-- arrow&#45;cpp -->
<g id="node1" class="node">
<title>arrow&#45;cpp</title>
<g id="a_node1"><a xlink:href="https://github.com/conda-forge/arrow-cpp-feedstock" xlink:title="arrow cpp">
<ellipse fill="#fde725" stroke="black" cx="953.7" cy="-1214" rx="61.73" ry="18"/>
<text text-anchor="middle" x="953.7" y="-1209.32" font-family="Times,serif" font-size="14.00">arrow cpp</text>
</a>
</g>
</g>
<!-- ray&#45;packages -->
<g id="node2" class="node">
<title>ray&#45;packages</title>
<g id="a_node2"><a xlink:href="https://github.com/conda-forge/ray-packages-feedstock" xlink:title="ray packages">
<ellipse fill="#fde725" stroke="black" cx="1587.7" cy="-1142" rx="76.99" ry="18"/>
<text text-anchor="middle" x="1587.7" y="-1137.33" font-family="Times,serif" font-size="14.00">ray packages</text>
</a>
</g>
</g>
<!-- arrow&#45;cpp&#45;&gt;ray&#45;packages -->
<g id="edge1" class="edge">
<title>arrow&#45;cpp&#45;&gt;ray&#45;packages</title>
<path fill="none" stroke="black" d="M997.92,-1201.15C1006.43,-1199.19 1015.3,-1197.35 1023.7,-1196 1217.4,-1164.75 1268.65,-1181.33 1463.7,-1160 1479.67,-1158.25 1496.76,-1156.1 1512.99,-1153.91"/>
<polygon fill="black" stroke="black" points="1513.13,-1157.43 1522.56,-1152.61 1512.18,-1150.49 1513.13,-1157.43"/>
</g>
<!-- datafusion -->
<g id="node3" class="node">
<title>datafusion</title>
<g id="a_node3"><a xlink:href="https://github.com/conda-forge/datafusion-feedstock" xlink:title="datafusion">
<ellipse fill="#fde725" stroke="black" cx="1052.7" cy="-1142" rx="63.84" ry="18"/>
<text text-anchor="middle" x="1052.7" y="-1137.33" font-family="Times,serif" font-size="14.00">datafusion</text>
</a>
</g>
</g>
<!-- arrow&#45;cpp&#45;&gt;datafusion -->
<g id="edge2" class="edge">
<title>arrow&#45;cpp&#45;&gt;datafusion</title>
<path fill="none" stroke="black" d="M976.16,-1197.12C989.36,-1187.78 1006.26,-1175.84 1020.81,-1165.55"/>
<polygon fill="black" stroke="black" points="1022.6,-1168.57 1028.75,-1159.94 1018.56,-1162.85 1022.6,-1168.57"/>
</g>
<!-- arcticdb -->
<g id="node4" class="node">
<title>arcticdb</title>
<g id="a_node4"><a xlink:href="https://github.com/conda-forge/arcticdb-feedstock" xlink:title="arcticdb">
<ellipse fill="#fde725" stroke="black" cx="967.7" cy="-1070" rx="52.26" ry="18"/>
<text text-anchor="middle" x="967.7" y="-1065.33" font-family="Times,serif" font-size="14.00">arcticdb</text>
</a>
</g>
</g>
<!-- arrow&#45;cpp&#45;&gt;arcticdb -->
<g id="edge3" class="edge">
<title>arrow&#45;cpp&#45;&gt;arcticdb</title>
<path fill="none" stroke="black" d="M955.42,-1195.59C957.78,-1171.61 962.07,-1128.14 964.9,-1099.42"/>
<polygon fill="black" stroke="black" points="968.37,-1099.91 965.86,-1089.62 961.4,-1099.23 968.37,-1099.91"/>
</g>
<!-- csp -->
<g id="node5" class="node">
<title>csp</title>
<g id="a_node5"><a xlink:href="https://github.com/conda-forge/csp-feedstock" xlink:title="csp">
<ellipse fill="#fde725" stroke="black" cx="887.7" cy="-998" rx="28.06" ry="18"/>
<text text-anchor="middle" x="887.7" y="-993.33" font-family="Times,serif" font-size="14.00">csp</text>
</a>
</g>
</g>
<!-- arrow&#45;cpp&#45;&gt;csp -->
<g id="edge4" class="edge">
<title>arrow&#45;cpp&#45;&gt;csp</title>
<path fill="none" stroke="black" d="M946.33,-1195.89C936.29,-1172.06 918.24,-1127.38 906.7,-1088 900.85,-1068.04 896,-1045.08 892.66,-1027.48"/>
<polygon fill="black" stroke="black" points="896.12,-1026.94 890.87,-1017.74 889.23,-1028.21 896.12,-1026.94"/>
</g>
<!-- bazel -->
<g id="node6" class="node">
<title>bazel</title>
<g id="a_node6"><a xlink:href="https://github.com/conda-forge/bazel-feedstock" xlink:title="bazel">
<ellipse fill="#35b779" stroke="black" cx="859.14" cy="-738" rx="37.53" ry="18"/>
<text text-anchor="middle" x="859.14" y="-733.33" font-family="Times,serif" font-size="14.00">bazel</text>
</a>
</g>
</g>
<!-- mosh -->
<g id="node7" class="node">
<title>mosh</title>
<g id="a_node7"><a xlink:href="https://github.com/conda-forge/mosh-feedstock/pull/41" xlink:title="mosh ❎">
<ellipse fill="#31688e" stroke="black" cx="859.14" cy="-666" rx="53.31" ry="18"/>
<text text-anchor="middle" x="859.14" y="-661.33" font-family="Times,serif" font-size="14.00" fill="white">mosh ❎</text>
</a>
</g>
</g>
<!-- bazel&#45;&gt;mosh -->
<!-- mysql -->
<g id="node8" class="node">
<title>mysql</title>
<g id="a_node8"><a xlink:href="https://github.com/conda-forge/mysql-feedstock" xlink:title="mysql">
<ellipse fill="#000000" stroke="black" cx="859.14" cy="-594" rx="41.21" ry="18"/>
<text text-anchor="middle" x="859.14" y="-589.33" font-family="Times,serif" font-size="14.00" fill="white">mysql</text>
</a>
</g>
</g>
<!-- mosh&#45;&gt;mysql -->
<!-- paraview -->
<g id="node9" class="node">
<title>paraview</title>
<g id="a_node9"><a xlink:href="https://github.com/conda-forge/paraview-feedstock" xlink:title="paraview">
<ellipse fill="#000000" stroke="black" cx="859.14" cy="-522" rx="57" ry="18"/>
<text text-anchor="middle" x="859.14" y="-517.33" font-family="Times,serif" font-size="14.00" fill="white">paraview</text>
</a>
</g>
</g>
<!-- mysql&#45;&gt;paraview -->
<!-- qgis -->
<g id="node14" class="node">
<title>qgis</title>
<g id="a_node14"><a xlink:href="https://github.com/conda-forge/qgis-feedstock" xlink:title="qgis">
<ellipse fill="#ff8c00" stroke="black" cx="859.14" cy="-450" rx="32.27" ry="18"/>
<text text-anchor="middle" x="859.14" y="-445.32" font-family="Times,serif" font-size="14.00">qgis</text>
</a>
</g>
</g>
<!-- paraview&#45;&gt;qgis -->
<!-- opencv -->
<g id="node10" class="node">
<title>opencv</title>
<g id="a_node10"><a xlink:href="https://github.com/conda-forge/opencv-feedstock" xlink:title="opencv">
<ellipse fill="#fde725" stroke="black" cx="1431.7" cy="-1214" rx="46.47" ry="18"/>
<text text-anchor="middle" x="1431.7" y="-1209.32" font-family="Times,serif" font-size="14.00">opencv</text>
</a>
</g>
</g>
<!-- opencv&#45;&gt;ray&#45;packages -->
<g id="edge8" class="edge">
<title>opencv&#45;&gt;ray&#45;packages</title>
<path fill="none" stroke="black" d="M1461.04,-1199.83C1484.08,-1189.5 1516.55,-1174.93 1542.85,-1163.13"/>
<polygon fill="black" stroke="black" points="1544.25,-1166.33 1551.94,-1159.05 1541.38,-1159.95 1544.25,-1166.33"/>
</g>
<!-- imp -->
<g id="node11" class="node">
<title>imp</title>
<g id="a_node11"><a xlink:href="https://github.com/conda-forge/imp-feedstock" xlink:title="imp">
<ellipse fill="#fde725" stroke="black" cx="1424.7" cy="-1142" rx="30.16" ry="18"/>
<text text-anchor="middle" x="1424.7" y="-1137.33" font-family="Times,serif" font-size="14.00">imp</text>
</a>
</g>
</g>
<!-- opencv&#45;&gt;imp -->
<g id="edge9" class="edge">
<title>opencv&#45;&gt;imp</title>
<path fill="none" stroke="black" d="M1429.97,-1195.7C1429.24,-1188.41 1428.37,-1179.73 1427.55,-1171.54"/>
<polygon fill="black" stroke="black" points="1431.04,-1171.21 1426.56,-1161.61 1424.07,-1171.91 1431.04,-1171.21"/>
</g>
<!-- gazebo&#45;yarp&#45;plugins -->
<g id="node12" class="node">
<title>gazebo&#45;yarp&#45;plugins</title>
<g id="a_node12"><a xlink:href="https://github.com/conda-forge/gazebo-yarp-plugins-feedstock" xlink:title="gazebo yarp plugins">
<ellipse fill="#fde725" stroke="black" cx="1264.7" cy="-1142" rx="112.24" ry="18"/>
<text text-anchor="middle" x="1264.7" y="-1137.33" font-family="Times,serif" font-size="14.00">gazebo yarp plugins</text>
</a>
</g>
</g>
<!-- opencv&#45;&gt;gazebo&#45;yarp&#45;plugins -->
<g id="edge10" class="edge">
<title>opencv&#45;&gt;gazebo&#45;yarp&#45;plugins</title>
<path fill="none" stroke="black" d="M1401.07,-1200.16C1376.77,-1189.98 1342.33,-1175.54 1314.14,-1163.72"/>
<polygon fill="black" stroke="black" points="1315.64,-1160.56 1305.07,-1159.92 1312.94,-1167.01 1315.64,-1160.56"/>
</g>
<!-- nvidia&#45;dali&#45;python -->
<g id="node13" class="node">
<title>nvidia&#45;dali&#45;python</title>
<g id="a_node13"><a xlink:href="https://github.com/conda-forge/nvidia-dali-python-feedstock" xlink:title="nvidia dali python">
<ellipse fill="#fde725" stroke="black" cx="1482.7" cy="-1070" rx="101.19" ry="18"/>
<text text-anchor="middle" x="1482.7" y="-1065.33" font-family="Times,serif" font-size="14.00">nvidia dali python</text>
</a>
</g>
</g>
<!-- opencv&#45;&gt;nvidia&#45;dali&#45;python -->
<g id="edge11" class="edge">
<title>opencv&#45;&gt;nvidia&#45;dali&#45;python</title>
<path fill="none" stroke="black" d="M1443.59,-1196.56C1450.39,-1186.46 1458.56,-1172.99 1463.7,-1160 1471.4,-1140.54 1476.22,-1117.4 1479.07,-1099.59"/>
<polygon fill="black" stroke="black" points="1482.53,-1100.12 1480.53,-1089.72 1475.61,-1099.1 1482.53,-1100.12"/>
</g>
<!-- tensorflow -->
<g id="node15" class="node">
<title>tensorflow</title>
<g id="a_node15"><a xlink:href="https://github.com/conda-forge/tensorflow-feedstock" xlink:title="tensorflow">
<ellipse fill="#000000" stroke="black" cx="859.14" cy="-378" rx="63.84" ry="18"/>
<text text-anchor="middle" x="859.14" y="-373.32" font-family="Times,serif" font-size="14.00" fill="white">tensorflow</text>
</a>
</g>
</g>
<!-- qgis&#45;&gt;tensorflow -->
<!-- r&#45;protolite -->
<g id="node16" class="node">
<title>r&#45;protolite</title>
<g id="a_node16"><a xlink:href="https://github.com/conda-forge/r-protolite-feedstock" xlink:title="r protolite">
<ellipse fill="#ff8c00" stroke="black" cx="859.14" cy="-306" rx="62.26" ry="18"/>
<text text-anchor="middle" x="859.14" y="-301.32" font-family="Times,serif" font-size="14.00">r protolite</text>
</a>
</g>
</g>
<!-- tensorflow&#45;&gt;r&#45;protolite -->
<!-- go&#45;cockroach -->
<g id="node17" class="node">
<title>go&#45;cockroach</title>
<g id="a_node17"><a xlink:href="https://github.com/conda-forge/go-cockroach-feedstock" xlink:title="go cockroach">
<ellipse fill="#ff8c00" stroke="black" cx="859.14" cy="-234" rx="76.46" ry="18"/>
<text text-anchor="middle" x="859.14" y="-229.32" font-family="Times,serif" font-size="14.00">go cockroach</text>
</a>
</g>
</g>
<!-- r&#45;protolite&#45;&gt;go&#45;cockroach -->
<!-- cartographer -->
<g id="node29" class="node">
<title>cartographer</title>
<g id="a_node29"><a xlink:href="https://github.com/conda-forge/cartographer-feedstock" xlink:title="cartographer">
<ellipse fill="#000000" stroke="black" cx="859.14" cy="-162" rx="76.99" ry="18"/>
<text text-anchor="middle" x="859.14" y="-157.32" font-family="Times,serif" font-size="14.00" fill="white">cartographer</text>
</a>
</g>
</g>
<!-- go&#45;cockroach&#45;&gt;cartographer -->
<!-- pytorch&#45;cpu -->
<g id="node18" class="node">
<title>pytorch&#45;cpu</title>
<g id="a_node18"><a xlink:href="https://github.com/conda-forge/pytorch-cpu-feedstock" xlink:title="pytorch cpu">
<ellipse fill="#000000" stroke="black" cx="1580.7" cy="-1214" rx="70.68" ry="18"/>
<text text-anchor="middle" x="1580.7" y="-1209.32" font-family="Times,serif" font-size="14.00" fill="white">pytorch cpu</text>
</a>
</g>
</g>
<!-- pytorch&#45;cpu&#45;&gt;ray&#45;packages -->
<g id="edge16" class="edge">
<title>pytorch&#45;cpu&#45;&gt;ray&#45;packages</title>
<path fill="none" stroke="black" d="M1582.43,-1195.7C1583.16,-1188.41 1584.03,-1179.73 1584.85,-1171.54"/>
<polygon fill="black" stroke="black" points="1588.33,-1171.91 1585.84,-1161.61 1581.36,-1171.21 1588.33,-1171.91"/>
</g>
<!-- jaxlib -->
<g id="node19" class="node">
<title>jaxlib</title>
<g id="a_node19"><a xlink:href="https://github.com/conda-forge/jaxlib-feedstock" xlink:title="jaxlib">
<ellipse fill="#ff8c00" stroke="black" cx="1679.7" cy="-1286" rx="38.58" ry="18"/>
<text text-anchor="middle" x="1679.7" y="-1281.32" font-family="Times,serif" font-size="14.00">jaxlib</text>
</a>
</g>
</g>
<!-- jaxlib&#45;&gt;ray&#45;packages -->
<g id="edge17" class="edge">
<title>jaxlib&#45;&gt;ray&#45;packages</title>
<path fill="none" stroke="black" d="M1679.59,-1267.54C1678.7,-1248.51 1674.91,-1217.85 1660.7,-1196 1652.68,-1183.67 1640.73,-1173.26 1628.8,-1165.01"/>
<polygon fill="black" stroke="black" points="1630.88,-1162.19 1620.58,-1159.69 1627.07,-1168.06 1630.88,-1162.19"/>
</g>
<!-- libignition&#45;transport4 -->
<g id="node20" class="node">
<title>libignition&#45;transport4</title>
<g id="a_node20"><a xlink:href="https://github.com/conda-forge/libignition-transport4-feedstock" xlink:title="libignition transport4">
<ellipse fill="#fde725" stroke="black" cx="2431.37" cy="-1214" rx="119.08" ry="18"/>
<text text-anchor="middle" x="2431.37" y="-1209.32" font-family="Times,serif" font-size="14.00">libignition transport4</text>
</a>
</g>
</g>
<!-- libignition&#45;sensors -->
<g id="node21" class="node">
<title>libignition&#45;sensors</title>
<g id="a_node21"><a xlink:href="https://github.com/conda-forge/libignition-sensors-feedstock" xlink:title="libignition sensors">
<ellipse fill="#fde725" stroke="black" cx="2586.37" cy="-1142" rx="103.82" ry="18"/>
<text text-anchor="middle" x="2586.37" y="-1137.33" font-family="Times,serif" font-size="14.00">libignition sensors</text>
</a>
</g>
</g>
<!-- libignition&#45;transport4&#45;&gt;libignition&#45;sensors -->
<g id="edge18" class="edge">
<title>libignition&#45;transport4&#45;&gt;libignition&#45;sensors</title>
<path fill="none" stroke="black" d="M2468.1,-1196.41C2489.61,-1186.7 2516.97,-1174.34 2539.95,-1163.96"/>
<polygon fill="black" stroke="black" points="2541.12,-1167.28 2548.79,-1159.97 2538.23,-1160.9 2541.12,-1167.28"/>
</g>
<!-- libignition&#45;gui -->
<g id="node22" class="node">
<title>libignition&#45;gui</title>
<g id="a_node22"><a xlink:href="https://github.com/conda-forge/libignition-gui-feedstock" xlink:title="libignition gui">
<ellipse fill="#fde725" stroke="black" cx="2307.37" cy="-1142" rx="81.2" ry="18"/>
<text text-anchor="middle" x="2307.37" y="-1137.33" font-family="Times,serif" font-size="14.00">libignition gui</text>
</a>
</g>
</g>
<!-- libignition&#45;transport4&#45;&gt;libignition&#45;gui -->
<g id="edge19" class="edge">
<title>libignition&#45;transport4&#45;&gt;libignition&#45;gui</title>
<path fill="none" stroke="black" d="M2401.67,-1196.23C2384.94,-1186.79 2363.86,-1174.89 2345.87,-1164.74"/>
<polygon fill="black" stroke="black" points="2347.72,-1161.76 2337.29,-1159.89 2344.28,-1167.86 2347.72,-1161.76"/>
</g>
<!-- libignition&#45;gazebo -->
<g id="node23" class="node">
<title>libignition&#45;gazebo</title>
<g id="a_node23"><a xlink:href="https://github.com/conda-forge/libignition-gazebo-feedstock" xlink:title="libignition gazebo">
<ellipse fill="#fde725" stroke="black" cx="2566.37" cy="-1070" rx="100.66" ry="18"/>
<text text-anchor="middle" x="2566.37" y="-1065.33" font-family="Times,serif" font-size="14.00">libignition gazebo</text>
</a>
</g>
</g>
<!-- libignition&#45;transport4&#45;&gt;libignition&#45;gazebo -->
<g id="edge20" class="edge">
<title>libignition&#45;transport4&#45;&gt;libignition&#45;gazebo</title>
<path fill="none" stroke="black" d="M2436.04,-1195.8C2442.02,-1176.43 2453.99,-1144.94 2473.37,-1124 2485.49,-1110.91 2501.59,-1100.19 2516.99,-1091.89"/>
<polygon fill="black" stroke="black" points="2518.3,-1095.16 2525.61,-1087.49 2515.11,-1088.92 2518.3,-1095.16"/>
</g>
<!-- libignition&#45;launch -->
<g id="node24" class="node">
<title>libignition&#45;launch</title>
<g id="a_node24"><a xlink:href="https://github.com/conda-forge/libignition-launch-feedstock" xlink:title="libignition launch">
<ellipse fill="#fde725" stroke="black" cx="2501.37" cy="-998" rx="98.56" ry="18"/>
<text text-anchor="middle" x="2501.37" y="-993.33" font-family="Times,serif" font-size="14.00">libignition launch</text>
</a>
</g>
</g>
<!-- libignition&#45;transport4&#45;&gt;libignition&#45;launch -->
<g id="edge21" class="edge">
<title>libignition&#45;transport4&#45;&gt;libignition&#45;launch</title>
<path fill="none" stroke="black" d="M2431.04,-1195.68C2431.1,-1165.2 2434.13,-1100.62 2456.37,-1052 2460.94,-1042 2467.96,-1032.41 2475.09,-1024.2"/>
<polygon fill="black" stroke="black" points="2477.54,-1026.72 2481.75,-1017 2472.4,-1021.97 2477.54,-1026.72"/>
</g>
<!-- libignition&#45;sensors&#45;&gt;libignition&#45;gazebo -->
<g id="edge22" class="edge">
<title>libignition&#45;sensors&#45;&gt;libignition&#45;gazebo</title>
<path fill="none" stroke="black" d="M2581.43,-1123.7C2579.29,-1116.24 2576.75,-1107.32 2574.36,-1098.97"/>
<polygon fill="black" stroke="black" points="2577.79,-1098.21 2571.67,-1089.56 2571.05,-1100.14 2577.79,-1098.21"/>
</g>
<!-- libignition&#45;gui&#45;&gt;libignition&#45;gazebo -->
<g id="edge23" class="edge">
<title>libignition&#45;gui&#45;&gt;libignition&#45;gazebo</title>
<path fill="none" stroke="black" d="M2357.61,-1127.42C2398.57,-1116.35 2456.71,-1100.64 2501.24,-1088.6"/>
<polygon fill="black" stroke="black" points="2502.04,-1092.01 2510.78,-1086.02 2500.22,-1085.25 2502.04,-1092.01"/>
</g>
<!-- libignition&#45;gui&#45;&gt;libignition&#45;launch -->
<g id="edge24" class="edge">
<title>libignition&#45;gui&#45;&gt;libignition&#45;launch</title>
<path fill="none" stroke="black" d="M2322.71,-1124.18C2340.62,-1105.17 2371.7,-1074 2402.37,-1052 2419.06,-1040.03 2438.77,-1028.94 2456.2,-1020.03"/>
<polygon fill="black" stroke="black" points="2457.42,-1023.33 2464.8,-1015.72 2454.29,-1017.07 2457.42,-1023.33"/>
</g>
<!-- libignition&#45;gazebo&#45;&gt;libignition&#45;launch -->
<g id="edge25" class="edge">
<title>libignition&#45;gazebo&#45;&gt;libignition&#45;launch</title>
<path fill="none" stroke="black" d="M2550.63,-1052.05C2542.81,-1043.63 2533.2,-1033.28 2524.55,-1023.97"/>
<polygon fill="black" stroke="black" points="2527.36,-1021.84 2517.99,-1016.9 2522.23,-1026.61 2527.36,-1021.84"/>
</g>
<!-- libignition&#45;msgs1 -->
<g id="node25" class="node">
<title>libignition&#45;msgs1</title>
<g id="a_node25"><a xlink:href="https://github.com/conda-forge/libignition-msgs1-feedstock" xlink:title="libignition msgs1">
<ellipse fill="#000000" stroke="black" cx="2648.37" cy="-1286" rx="98.03" ry="18"/>
<text text-anchor="middle" x="2648.37" y="-1281.32" font-family="Times,serif" font-size="14.00" fill="white">libignition msgs1</text>
</a>
</g>
</g>
<!-- libignition&#45;msgs1&#45;&gt;libignition&#45;transport4 -->
<g id="edge26" class="edge">
<title>libignition&#45;msgs1&#45;&gt;libignition&#45;transport4</title>
<path fill="none" stroke="black" d="M2601.28,-1269.81C2569,-1259.4 2525.91,-1245.5 2491.2,-1234.3"/>
<polygon fill="black" stroke="black" points="2492.28,-1230.97 2481.68,-1231.23 2490.13,-1237.63 2492.28,-1230.97"/>
</g>
<!-- libignition&#45;msgs1&#45;&gt;libignition&#45;sensors -->
<g id="edge27" class="edge">
<title>libignition&#45;msgs1&#45;&gt;libignition&#45;sensors</title>
<path fill="none" stroke="black" d="M2626.59,-1268.2C2615.97,-1258.76 2604.07,-1246.06 2597.37,-1232 2588.4,-1213.18 2585.81,-1189.7 2585.37,-1171.59"/>
<polygon fill="black" stroke="black" points="2588.87,-1171.8 2585.36,-1161.8 2581.87,-1171.81 2588.87,-1171.8"/>
</g>
<!-- libignition&#45;msgs1&#45;&gt;libignition&#45;gui -->
<g id="edge28" class="edge">
<title>libignition&#45;msgs1&#45;&gt;libignition&#45;gui</title>
<path fill="none" stroke="black" d="M2550.82,-1283.69C2460.23,-1280.15 2334.74,-1268.56 2303.37,-1232 2289.29,-1215.59 2291.78,-1190.57 2296.94,-1171.23"/>
<polygon fill="black" stroke="black" points="2300.25,-1172.36 2299.83,-1161.78 2293.56,-1170.31 2300.25,-1172.36"/>
</g>
<!-- libignition&#45;msgs1&#45;&gt;libignition&#45;gazebo -->
<g id="edge29" class="edge">
<title>libignition&#45;msgs1&#45;&gt;libignition&#45;gazebo</title>
<path fill="none" stroke="black" d="M2732.99,-1276.52C2795.8,-1266.26 2866.27,-1243.93 2839.37,-1196 2802.47,-1130.25 2720.12,-1098.9 2655.46,-1084.06"/>
<polygon fill="black" stroke="black" points="2656.43,-1080.69 2645.91,-1081.97 2654.93,-1087.53 2656.43,-1080.69"/>
</g>
<!-- libignition&#45;msgs1&#45;&gt;libignition&#45;launch -->
<g id="edge30" class="edge">
<title>libignition&#45;msgs1&#45;&gt;libignition&#45;launch</title>
<path fill="none" stroke="black" d="M2727,-1274.94C2778.6,-1266.54 2839.39,-1252.59 2855.37,-1232 2865.18,-1219.36 2860.5,-1211.16 2855.37,-1196 2817.47,-1083.96 2676.61,-1034.11 2584.41,-1013.09"/>
<polygon fill="black" stroke="black" points="2585.42,-1009.73 2574.9,-1010.99 2583.91,-1016.56 2585.42,-1009.73"/>
</g>
<!-- libignition&#45;fuel&#45;tools -->
<g id="node26" class="node">
<title>libignition&#45;fuel&#45;tools</title>
<g id="a_node26"><a xlink:href="https://github.com/conda-forge/libignition-fuel-tools-feedstock" xlink:title="libignition fuel tools">
<ellipse fill="#fde725" stroke="black" cx="2718.37" cy="-1214" rx="111.71" ry="18"/>
<text text-anchor="middle" x="2718.37" y="-1209.32" font-family="Times,serif" font-size="14.00">libignition fuel tools</text>
</a>
</g>
</g>
<!-- libignition&#45;msgs1&#45;&gt;libignition&#45;fuel&#45;tools -->
<g id="edge31" class="edge">
<title>libignition&#45;msgs1&#45;&gt;libignition&#45;fuel&#45;tools</title>
<path fill="none" stroke="black" d="M2665.31,-1268.05C2673.62,-1259.75 2683.79,-1249.58 2692.99,-1240.38"/>
<polygon fill="black" stroke="black" points="2695.43,-1242.89 2700.02,-1233.35 2690.48,-1237.94 2695.43,-1242.89"/>
</g>
<!-- libignition&#45;fuel&#45;tools&#45;&gt;libignition&#45;gazebo -->
<g id="edge32" class="edge">
<title>libignition&#45;fuel&#45;tools&#45;&gt;libignition&#45;gazebo</title>
<path fill="none" stroke="black" d="M2719.25,-1195.52C2719.29,-1175.89 2716.39,-1144.16 2699.37,-1124 2685.1,-1107.1 2664.69,-1095.54 2644.12,-1087.66"/>
<polygon fill="black" stroke="black" points="2645.4,-1084.4 2634.8,-1084.36 2643.06,-1091 2645.4,-1084.4"/>
</g>
<!-- gazebo -->
<g id="node27" class="node">
<title>gazebo</title>
<g id="a_node27"><a xlink:href="https://github.com/conda-forge/gazebo-feedstock" xlink:title="gazebo">
<ellipse fill="#ff8c00" stroke="black" cx="1320.7" cy="-1214" rx="46.47" ry="18"/>
<text text-anchor="middle" x="1320.7" y="-1209.32" font-family="Times,serif" font-size="14.00">gazebo</text>
</a>
</g>
</g>
<!-- gazebo&#45;&gt;gazebo&#45;yarp&#45;plugins -->
<g id="edge33" class="edge">
<title>gazebo&#45;&gt;gazebo&#45;yarp&#45;plugins</title>
<path fill="none" stroke="black" d="M1307.43,-1196.41C1300.83,-1188.16 1292.71,-1178.01 1285.32,-1168.78"/>
<polygon fill="black" stroke="black" points="1288.19,-1166.76 1279.21,-1161.14 1282.72,-1171.13 1288.19,-1166.76"/>
</g>
<!-- google&#45;cloud&#45;cpp -->
<g id="node28" class="node">
<title>google&#45;cloud&#45;cpp</title>
<g id="a_node28"><a xlink:href="https://github.com/conda-forge/google-cloud-cpp-feedstock" xlink:title="google cloud cpp">
<ellipse fill="#fde725" stroke="black" cx="579.7" cy="-998" rx="95.4" ry="18"/>
<text text-anchor="middle" x="579.7" y="-993.33" font-family="Times,serif" font-size="14.00">google cloud cpp</text>
</a>
</g>
</g>
<!-- tomviz -->
<g id="node30" class="node">
<title>tomviz</title>
<g id="a_node30"><a xlink:href="https://github.com/conda-forge/tomviz-feedstock" xlink:title="tomviz">
<ellipse fill="#ff8c00" stroke="black" cx="859.14" cy="-90" rx="44.9" ry="18"/>
<text text-anchor="middle" x="859.14" y="-85.33" font-family="Times,serif" font-size="14.00">tomviz</text>
</a>
</g>
</g>
<!-- cartographer&#45;&gt;tomviz -->
<!-- protozfits -->
<g id="node33" class="node">
<title>protozfits</title>
<g id="a_node33"><a xlink:href="https://github.com/conda-forge/protozfits-feedstock" xlink:title="protozfits">
<ellipse fill="#000000" stroke="black" cx="859.14" cy="-18" rx="59.1" ry="18"/>
<text text-anchor="middle" x="859.14" y="-13.32" font-family="Times,serif" font-size="14.00" fill="white">protozfits</text>
</a>
</g>
</g>
<!-- tomviz&#45;&gt;protozfits -->
<!-- sentencepiece -->
<g id="node31" class="node">
<title>sentencepiece</title>
<g id="a_node31"><a xlink:href="https://github.com/conda-forge/sentencepiece-feedstock" xlink:title="sentencepiece">
<ellipse fill="#000000" stroke="black" cx="1144.7" cy="-1286" rx="82.25" ry="18"/>
<text text-anchor="middle" x="1144.7" y="-1281.32" font-family="Times,serif" font-size="14.00" fill="white">sentencepiece</text>
</a>
</g>
</g>
<!-- openvino&#45;tokenizers -->
<g id="node32" class="node">
<title>openvino&#45;tokenizers</title>
<g id="a_node32"><a xlink:href="https://github.com/conda-forge/openvino-tokenizers-feedstock" xlink:title="openvino tokenizers">
<ellipse fill="#fde725" stroke="black" cx="1144.7" cy="-1214" rx="111.71" ry="18"/>
<text text-anchor="middle" x="1144.7" y="-1209.32" font-family="Times,serif" font-size="14.00">openvino tokenizers</text>
</a>
</g>
</g>
<!-- sentencepiece&#45;&gt;openvino&#45;tokenizers -->
<g id="edge36" class="edge">
<title>sentencepiece&#45;&gt;openvino&#45;tokenizers</title>
<path fill="none" stroke="black" d="M1144.7,-1267.7C1144.7,-1260.41 1144.7,-1251.73 1144.7,-1243.54"/>
<polygon fill="black" stroke="black" points="1148.2,-1243.62 1144.7,-1233.62 1141.2,-1243.62 1148.2,-1243.62"/>
</g>
<!-- or&#45;tools -->
<g id="node34" class="node">
<title>or&#45;tools</title>
<g id="a_node34"><a xlink:href="https://github.com/conda-forge/or-tools-feedstock" xlink:title="or tools">
<ellipse fill="#ff8c00" stroke="black" cx="1972.23" cy="-1502" rx="49.1" ry="18"/>
<text text-anchor="middle" x="1972.23" y="-1497.32" font-family="Times,serif" font-size="14.00">or tools</text>
</a>
</g>
</g>
<!-- bear -->
<g id="node35" class="node">
<title>bear</title>
<g id="a_node35"><a xlink:href="https://github.com/conda-forge/bear-feedstock/pull/52" xlink:title="bear ❎">
<ellipse fill="#31688e" stroke="black" cx="1972.23" cy="-1430" rx="49.1" ry="18"/>
<text text-anchor="middle" x="1972.23" y="-1425.32" font-family="Times,serif" font-size="14.00" fill="white">bear ❎</text>
</a>
</g>
</g>
<!-- or&#45;tools&#45;&gt;bear -->
<!-- cpp&#45;opentelemetry&#45;sdk -->
<g id="node36" class="node">
<title>cpp&#45;opentelemetry&#45;sdk</title>
<g id="a_node36"><a xlink:href="https://github.com/conda-forge/cpp-opentelemetry-sdk-feedstock" xlink:title="cpp opentelemetry sdk">
<ellipse fill="#000000" stroke="black" cx="1972.23" cy="-1358" rx="125.92" ry="18"/>
<text text-anchor="middle" x="1972.23" y="-1353.32" font-family="Times,serif" font-size="14.00" fill="white">cpp opentelemetry sdk</text>
</a>
</g>
</g>
<!-- bear&#45;&gt;cpp&#45;opentelemetry&#45;sdk -->
<!-- xilinx&#45;runtime -->
<g id="node37" class="node">
<title>xilinx&#45;runtime</title>
<g id="a_node37"><a xlink:href="https://github.com/conda-forge/xilinx-runtime-feedstock/pull/38" xlink:title="xilinx runtime ❎">
<ellipse fill="#31688e" stroke="black" cx="1972.23" cy="-1286" rx="96.98" ry="18"/>
<text text-anchor="middle" x="1972.23" y="-1281.32" font-family="Times,serif" font-size="14.00" fill="white">xilinx runtime ❎</text>
</a>
</g>
</g>
<!-- cpp&#45;opentelemetry&#45;sdk&#45;&gt;xilinx&#45;runtime -->
<!-- gnss&#45;sdr -->
<g id="node38" class="node">
<title>gnss&#45;sdr</title>
<g id="a_node38"><a xlink:href="https://github.com/conda-forge/gnss-sdr-feedstock/pull/30" xlink:title="gnss sdr ✓">
<ellipse fill="#31688e" stroke="black" cx="1972.23" cy="-1214" rx="61.73" ry="18"/>
<text text-anchor="middle" x="1972.23" y="-1209.32" font-family="Times,serif" font-size="14.00" fill="white">gnss sdr ✓</text>
</a>
</g>
</g>
<!-- xilinx&#45;runtime&#45;&gt;gnss&#45;sdr -->
<!-- tensorstore -->
<g id="node47" class="node">
<title>tensorstore</title>
<g id="a_node47"><a xlink:href="https://github.com/conda-forge/tensorstore-feedstock/pull/44" xlink:title="tensorstore ✓">
<ellipse fill="#31688e" stroke="black" cx="1972.23" cy="-1142" rx="76.99" ry="18"/>
<text text-anchor="middle" x="1972.23" y="-1137.33" font-family="Times,serif" font-size="14.00" fill="white">tensorstore ✓</text>
</a>
</g>
</g>
<!-- gnss&#45;sdr&#45;&gt;tensorstore -->
<!-- gz&#45;msgs -->
<g id="node39" class="node">
<title>gz&#45;msgs</title>
<g id="a_node39"><a xlink:href="https://github.com/conda-forge/gz-msgs-feedstock" xlink:title="gz msgs">
<ellipse fill="#000000" stroke="black" cx="1933.41" cy="-522" rx="52.26" ry="18"/>
<text text-anchor="middle" x="1933.41" y="-517.33" font-family="Times,serif" font-size="14.00" fill="white">gz msgs</text>
</a>
</g>
</g>
<!-- gz&#45;transport -->
<g id="node40" class="node">
<title>gz&#45;transport</title>
<g id="a_node40"><a xlink:href="https://github.com/conda-forge/gz-transport-feedstock" xlink:title="gz transport">
<ellipse fill="#fde725" stroke="black" cx="1883.41" cy="-450" rx="73.3" ry="18"/>
<text text-anchor="middle" x="1883.41" y="-445.32" font-family="Times,serif" font-size="14.00">gz transport</text>
</a>
</g>
</g>
<!-- gz&#45;msgs&#45;&gt;gz&#45;transport -->
<g id="edge42" class="edge">
<title>gz&#45;msgs&#45;&gt;gz&#45;transport</title>
<path fill="none" stroke="black" d="M1921.31,-504.05C1915.53,-495.97 1908.5,-486.12 1902.06,-477.11"/>
<polygon fill="black" stroke="black" points="1904.94,-475.12 1896.28,-469.02 1899.25,-479.19 1904.94,-475.12"/>
</g>
<!-- gz&#45;fuel&#45;tools -->
<g id="node41" class="node">
<title>gz&#45;fuel&#45;tools</title>
<g id="a_node41"><a xlink:href="https://github.com/conda-forge/gz-fuel-tools-feedstock" xlink:title="gz fuel tools">
<ellipse fill="#fde725" stroke="black" cx="2084.41" cy="-450" rx="72.25" ry="18"/>
<text text-anchor="middle" x="2084.41" y="-445.32" font-family="Times,serif" font-size="14.00">gz fuel tools</text>
</a>
</g>
</g>
<!-- gz&#45;msgs&#45;&gt;gz&#45;fuel&#45;tools -->
<g id="edge43" class="edge">
<title>gz&#45;msgs&#45;&gt;gz&#45;fuel&#45;tools</title>
<path fill="none" stroke="black" d="M1963.6,-507C1985.75,-496.74 2016.13,-482.65 2040.89,-471.17"/>
<polygon fill="black" stroke="black" points="2042.15,-474.45 2049.75,-467.07 2039.2,-468.1 2042.15,-474.45"/>
</g>
<!-- gz&#45;gui -->
<g id="node42" class="node">
<title>gz&#45;gui</title>
<g id="a_node42"><a xlink:href="https://github.com/conda-forge/gz-gui-feedstock" xlink:title="gz gui">
<ellipse fill="#fde725" stroke="black" cx="1792.41" cy="-378" rx="41.74" ry="18"/>
<text text-anchor="middle" x="1792.41" y="-373.32" font-family="Times,serif" font-size="14.00">gz gui</text>
</a>
</g>
</g>
<!-- gz&#45;msgs&#45;&gt;gz&#45;gui -->
<g id="edge44" class="edge">
<title>gz&#45;msgs&#45;&gt;gz&#45;gui</title>
<path fill="none" stroke="black" d="M1885.6,-514.38C1856.54,-507.73 1821.3,-494.45 1801.41,-468 1788.56,-450.92 1786.93,-426.47 1788.16,-407.53"/>
<polygon fill="black" stroke="black" points="1791.63,-408.08 1789.12,-397.78 1784.66,-407.39 1791.63,-408.08"/>
</g>
<!-- gz&#45;sensors -->
<g id="node43" class="node">
<title>gz&#45;sensors</title>
<g id="a_node43"><a xlink:href="https://github.com/conda-forge/gz-sensors-feedstock" xlink:title="gz sensors">
<ellipse fill="#fde725" stroke="black" cx="1992.41" cy="-378" rx="64.36" ry="18"/>
<text text-anchor="middle" x="1992.41" y="-373.32" font-family="Times,serif" font-size="14.00">gz sensors</text>
</a>
</g>
</g>
<!-- gz&#45;msgs&#45;&gt;gz&#45;sensors -->
<g id="edge45" class="edge">
<title>gz&#45;msgs&#45;&gt;gz&#45;sensors</title>
<path fill="none" stroke="black" d="M1944.91,-504.4C1951.56,-494.23 1959.73,-480.77 1965.41,-468 1974.15,-448.37 1981.1,-425.1 1985.76,-407.28"/>
<polygon fill="black" stroke="black" points="1989.13,-408.2 1988.18,-397.65 1982.35,-406.5 1989.13,-408.2"/>
</g>
<!-- gz&#45;sim -->
<g id="node44" class="node">
<title>gz&#45;sim</title>
<g id="a_node44"><a xlink:href="https://github.com/conda-forge/gz-sim-feedstock" xlink:title="gz sim">
<ellipse fill="#fde725" stroke="black" cx="1963.41" cy="-306" rx="43.84" ry="18"/>
<text text-anchor="middle" x="1963.41" y="-301.32" font-family="Times,serif" font-size="14.00">gz sim</text>
</a>
</g>
</g>
<!-- gz&#45;msgs&#45;&gt;gz&#45;sim -->
<g id="edge46" class="edge">
<title>gz&#45;msgs&#45;&gt;gz&#45;sim</title>
<path fill="none" stroke="black" d="M1983.73,-516.71C2045.01,-510.32 2143.13,-495.94 2165.41,-468 2218.17,-401.83 2083.37,-345.72 2008.87,-320.8"/>
<polygon fill="black" stroke="black" points="2010.37,-317.61 1999.78,-317.83 2008.19,-324.27 2010.37,-317.61"/>
</g>
<!-- gz&#45;launch -->
<g id="node45" class="node">
<title>gz&#45;launch</title>
<g id="a_node45"><a xlink:href="https://github.com/conda-forge/gz-launch-feedstock" xlink:title="gz launch">
<ellipse fill="#fde725" stroke="black" cx="1843.41" cy="-234" rx="59.1" ry="18"/>
<text text-anchor="middle" x="1843.41" y="-229.32" font-family="Times,serif" font-size="14.00">gz launch</text>
</a>
</g>
</g>
<!-- gz&#45;msgs&#45;&gt;gz&#45;launch -->
<g id="edge47" class="edge">
<title>gz&#45;msgs&#45;&gt;gz&#45;launch</title>
<path fill="none" stroke="black" d="M1887.32,-513.16C1855.6,-505.85 1814.02,-492.29 1784.41,-468 1755.6,-444.36 1751.32,-431.93 1741.41,-396 1726.28,-341.16 1777.48,-287.36 1812.74,-257.94"/>
<polygon fill="black" stroke="black" points="1814.57,-260.97 1820.13,-251.95 1810.16,-255.53 1814.57,-260.97"/>
</g>
<!-- gz&#45;transport&#45;&gt;gz&#45;gui -->
<g id="edge48" class="edge">
<title>gz&#45;transport&#45;&gt;gz&#45;gui</title>
<path fill="none" stroke="black" d="M1861.84,-432.41C1849.75,-423.11 1834.5,-411.38 1821.37,-401.28"/>
<polygon fill="black" stroke="black" points="1823.53,-398.52 1813.47,-395.2 1819.26,-404.07 1823.53,-398.52"/>
</g>
<!-- gz&#45;transport&#45;&gt;gz&#45;sensors -->
<g id="edge49" class="edge">
<title>gz&#45;transport&#45;&gt;gz&#45;sensors</title>
<path fill="none" stroke="black" d="M1908.69,-432.76C1923.38,-423.33 1942.08,-411.32 1958.09,-401.04"/>
<polygon fill="black" stroke="black" points="1959.85,-404.07 1966.37,-395.72 1956.06,-398.18 1959.85,-404.07"/>
</g>
<!-- gz&#45;transport&#45;&gt;gz&#45;sim -->
<g id="edge50" class="edge">
<title>gz&#45;transport&#45;&gt;gz&#45;sim</title>
<path fill="none" stroke="black" d="M1888.58,-431.87C1894.56,-413.39 1905.39,-383.46 1919.41,-360 1925.33,-350.1 1933.04,-340.13 1940.34,-331.55"/>
<polygon fill="black" stroke="black" points="1942.74,-334.13 1946.72,-324.32 1937.48,-329.5 1942.74,-334.13"/>
</g>
<!-- gz&#45;transport&#45;&gt;gz&#45;launch -->
<g id="edge51" class="edge">
<title>gz&#45;transport&#45;&gt;gz&#45;launch</title>
<path fill="none" stroke="black" d="M1880.2,-431.85C1873.34,-395.14 1857.18,-308.66 1848.74,-263.53"/>
<polygon fill="black" stroke="black" points="1852.19,-262.91 1846.91,-253.72 1845.31,-264.19 1852.19,-262.91"/>
</g>
<!-- gz&#45;fuel&#45;tools&#45;&gt;gz&#45;sim -->
<g id="edge52" class="edge">
<title>gz&#45;fuel&#45;tools&#45;&gt;gz&#45;sim</title>
<path fill="none" stroke="black" d="M2084.92,-431.82C2084.61,-412.47 2081.4,-380.99 2065.41,-360 2051.47,-341.7 2029.4,-329.13 2009.35,-320.85"/>
<polygon fill="black" stroke="black" points="2010.8,-317.65 2000.21,-317.33 2008.28,-324.19 2010.8,-317.65"/>
</g>
<!-- gz&#45;gui&#45;&gt;gz&#45;sim -->
<g id="edge53" class="edge">
<title>gz&#45;gui&#45;&gt;gz&#45;sim</title>
<path fill="none" stroke="black" d="M1821.81,-364.97C1849.65,-353.57 1891.72,-336.35 1922.77,-323.64"/>
<polygon fill="black" stroke="black" points="1923.92,-326.95 1931.85,-319.92 1921.27,-320.47 1923.92,-326.95"/>
</g>
<!-- gz&#45;gui&#45;&gt;gz&#45;launch -->
<g id="edge54" class="edge">
<title>gz&#45;gui&#45;&gt;gz&#45;launch</title>
<path fill="none" stroke="black" d="M1798.56,-359.87C1807.22,-335.78 1823.08,-291.6 1833.44,-262.77"/>
<polygon fill="black" stroke="black" points="1836.64,-264.21 1836.73,-253.61 1830.05,-261.84 1836.64,-264.21"/>
</g>
<!-- gz&#45;sensors&#45;&gt;gz&#45;sim -->
<g id="edge55" class="edge">
<title>gz&#45;sensors&#45;&gt;gz&#45;sim</title>
<path fill="none" stroke="black" d="M1985.24,-359.7C1982.12,-352.15 1978.37,-343.12 1974.88,-334.68"/>
<polygon fill="black" stroke="black" points="1978.14,-333.4 1971.08,-325.5 1971.67,-336.08 1978.14,-333.4"/>
</g>
<!-- gz&#45;sim&#45;&gt;gz&#45;launch -->
<g id="edge56" class="edge">
<title>gz&#45;sim&#45;&gt;gz&#45;launch</title>
<path fill="none" stroke="black" d="M1938.84,-290.67C1921.87,-280.77 1899,-267.43 1879.91,-256.29"/>
<polygon fill="black" stroke="black" points="1881.74,-253.31 1871.34,-251.29 1878.22,-259.36 1881.74,-253.31"/>
</g>
<!-- openvino -->
<g id="node46" class="node">
<title>openvino</title>
<g id="a_node46"><a xlink:href="https://github.com/conda-forge/openvino-feedstock" xlink:title="openvino">
<ellipse fill="#000000" stroke="black" cx="1366.7" cy="-1286" rx="56.47" ry="18"/>
<text text-anchor="middle" x="1366.7" y="-1281.32" font-family="Times,serif" font-size="14.00" fill="white">openvino</text>
</a>
</g>
</g>
<!-- openvino&#45;&gt;opencv -->
<g id="edge57" class="edge">
<title>openvino&#45;&gt;opencv</title>
<path fill="none" stroke="black" d="M1382.1,-1268.41C1390.04,-1259.87 1399.87,-1249.28 1408.68,-1239.79"/>
<polygon fill="black" stroke="black" points="1411.14,-1242.29 1415.38,-1232.58 1406.01,-1237.53 1411.14,-1242.29"/>
</g>
<!-- openvino&#45;&gt;openvino&#45;tokenizers -->
<g id="edge58" class="edge">
<title>openvino&#45;&gt;openvino&#45;tokenizers</title>
<path fill="none" stroke="black" d="M1327.52,-1272.65C1293.57,-1261.94 1243.92,-1246.29 1204.92,-1233.99"/>
<polygon fill="black" stroke="black" points="1206,-1230.66 1195.42,-1230.99 1203.9,-1237.34 1206,-1230.66"/>
</g>
<!-- gcld3 -->
<g id="node48" class="node">
<title>gcld3</title>
<g id="a_node48"><a xlink:href="https://github.com/conda-forge/gcld3-feedstock/pull/14" xlink:title="gcld3 ✓">
<ellipse fill="#31688e" stroke="black" cx="1972.23" cy="-1070" rx="46.47" ry="18"/>
<text text-anchor="middle" x="1972.23" y="-1065.33" font-family="Times,serif" font-size="14.00" fill="white">gcld3 ✓</text>
</a>
</g>
</g>
<!-- tensorstore&#45;&gt;gcld3 -->
<!-- bloaty -->
<g id="node49" class="node">
<title>bloaty</title>
<g id="a_node49"><a xlink:href="https://github.com/conda-forge/bloaty-feedstock" xlink:title="bloaty">
<ellipse fill="#000000" stroke="black" cx="1972.23" cy="-998" rx="42.26" ry="18"/>
<text text-anchor="middle" x="1972.23" y="-993.33" font-family="Times,serif" font-size="14.00" fill="white">bloaty</text>
</a>
</g>
</g>
<!-- gcld3&#45;&gt;bloaty -->
<!-- gz&#45;sim&#45;yarp&#45;plugins -->
<g id="node54" class="node">
<title>gz&#45;sim&#45;yarp&#45;plugins</title>
<g id="a_node54"><a xlink:href="https://github.com/conda-forge/gz-sim-yarp-plugins-feedstock" xlink:title="gz sim yarp plugins">
<ellipse fill="#ff8c00" stroke="black" cx="1972.23" cy="-926" rx="109.61" ry="18"/>
<text text-anchor="middle" x="1972.23" y="-921.33" font-family="Times,serif" font-size="14.00">gz sim yarp plugins</text>
</a>
</g>
</g>
<!-- bloaty&#45;&gt;gz&#45;sim&#45;yarp&#45;plugins -->
<!-- google&#45;cloud&#45;cpp&#45;core -->
<g id="node50" class="node">
<title>google&#45;cloud&#45;cpp&#45;core</title>
<g id="a_node50"><a xlink:href="https://github.com/conda-forge/google-cloud-cpp-core-feedstock" xlink:title="google cloud cpp core">
<ellipse fill="#000000" stroke="black" cx="713.7" cy="-1286" rx="120.13" ry="18"/>
<text text-anchor="middle" x="713.7" y="-1281.32" font-family="Times,serif" font-size="14.00" fill="white">google cloud cpp core</text>
</a>
</g>
</g>
<!-- google&#45;cloud&#45;cpp&#45;core&#45;&gt;arrow&#45;cpp -->
<g id="edge62" class="edge">
<title>google&#45;cloud&#45;cpp&#45;core&#45;&gt;arrow&#45;cpp</title>
<path fill="none" stroke="black" d="M766.96,-1269.46C806.73,-1257.87 860.82,-1242.09 900.56,-1230.5"/>
<polygon fill="black" stroke="black" points="901.28,-1233.93 909.9,-1227.77 899.32,-1227.21 901.28,-1233.93"/>
</g>
<!-- google&#45;cloud&#45;cpp&#45;core&#45;&gt;google&#45;cloud&#45;cpp -->
<g id="edge63" class="edge">
<title>google&#45;cloud&#45;cpp&#45;core&#45;&gt;google&#45;cloud&#45;cpp</title>
<path fill="none" stroke="black" d="M734.46,-1268.05C781.62,-1227.55 888.43,-1123.2 830.7,-1052 811.29,-1028.06 739.52,-1014.52 677.67,-1007.12"/>
<polygon fill="black" stroke="black" points="678.09,-1003.65 667.75,-1005.99 677.29,-1010.6 678.09,-1003.65"/>
</g>
<!-- google&#45;cloud&#45;cpp&#45;compute -->
<g id="node51" class="node">
<title>google&#45;cloud&#45;cpp&#45;compute</title>
<g id="a_node51"><a xlink:href="https://github.com/conda-forge/google-cloud-cpp-compute-feedstock" xlink:title="google cloud cpp compute">
<ellipse fill="#fde725" stroke="black" cx="141.7" cy="-1070" rx="141.7" ry="18"/>
<text text-anchor="middle" x="141.7" y="-1065.33" font-family="Times,serif" font-size="14.00">google cloud cpp compute</text>
</a>
</g>
</g>
<!-- google&#45;cloud&#45;cpp&#45;core&#45;&gt;google&#45;cloud&#45;cpp&#45;compute -->
<g id="edge64" class="edge">
<title>google&#45;cloud&#45;cpp&#45;core&#45;&gt;google&#45;cloud&#45;cpp&#45;compute</title>
<path fill="none" stroke="black" d="M670.71,-1268.92C568.27,-1230.59 309.89,-1133.92 196.49,-1091.5"/>
<polygon fill="black" stroke="black" points="197.99,-1088.32 187.4,-1088.1 195.53,-1094.88 197.99,-1088.32"/>
</g>
<!-- google&#45;cloud&#45;cpp&#45;bigquery -->
<g id="node52" class="node">
<title>google&#45;cloud&#45;cpp&#45;bigquery</title>
<g id="a_node52"><a xlink:href="https://github.com/conda-forge/google-cloud-cpp-bigquery-feedstock" xlink:title="google cloud cpp bigquery">
<ellipse fill="#fde725" stroke="black" cx="444.7" cy="-1070" rx="143.28" ry="18"/>
<text text-anchor="middle" x="444.7" y="-1065.33" font-family="Times,serif" font-size="14.00">google cloud cpp bigquery</text>
</a>
</g>
</g>
<!-- google&#45;cloud&#45;cpp&#45;core&#45;&gt;google&#45;cloud&#45;cpp&#45;bigquery -->
<g id="edge65" class="edge">
<title>google&#45;cloud&#45;cpp&#45;core&#45;&gt;google&#45;cloud&#45;cpp&#45;bigquery</title>
<path fill="none" stroke="black" d="M692.14,-1267.85C644.53,-1229.97 530.27,-1139.08 475.28,-1095.33"/>
<polygon fill="black" stroke="black" points="477.55,-1092.66 467.55,-1089.17 473.19,-1098.14 477.55,-1092.66"/>
</g>
<!-- google&#45;cloud&#45;cpp&#45;ai -->
<g id="node53" class="node">
<title>google&#45;cloud&#45;cpp&#45;ai</title>
<g id="a_node53"><a xlink:href="https://github.com/conda-forge/google-cloud-cpp-ai-feedstock" xlink:title="google cloud cpp ai">
<ellipse fill="#fde725" stroke="black" cx="713.7" cy="-1070" rx="107.5" ry="18"/>
<text text-anchor="middle" x="713.7" y="-1065.33" font-family="Times,serif" font-size="14.00">google cloud cpp ai</text>
</a>
</g>
</g>
<!-- google&#45;cloud&#45;cpp&#45;core&#45;&gt;google&#45;cloud&#45;cpp&#45;ai -->
<g id="edge66" class="edge">
<title>google&#45;cloud&#45;cpp&#45;core&#45;&gt;google&#45;cloud&#45;cpp&#45;ai</title>
<path fill="none" stroke="black" d="M713.7,-1267.85C713.7,-1231.14 713.7,-1144.66 713.7,-1099.53"/>
<polygon fill="black" stroke="black" points="717.2,-1099.75 713.7,-1089.75 710.2,-1099.75 717.2,-1099.75"/>
</g>
<!-- google&#45;cloud&#45;cpp&#45;compute&#45;&gt;google&#45;cloud&#45;cpp -->
<g id="edge67" class="edge">
<title>google&#45;cloud&#45;cpp&#45;compute&#45;&gt;google&#45;cloud&#45;cpp</title>
<path fill="none" stroke="black" d="M227.45,-1055.3C305.67,-1042.8 420.46,-1024.45 497.53,-1012.13"/>
<polygon fill="black" stroke="black" points="497.8,-1015.63 507.13,-1010.6 496.7,-1008.72 497.8,-1015.63"/>
</g>
<!-- google&#45;cloud&#45;cpp&#45;bigquery&#45;&gt;google&#45;cloud&#45;cpp -->
<g id="edge68" class="edge">
<title>google&#45;cloud&#45;cpp&#45;bigquery&#45;&gt;google&#45;cloud&#45;cpp</title>
<path fill="none" stroke="black" d="M477.38,-1052.05C495.64,-1042.59 518.57,-1030.7 538.1,-1020.57"/>
<polygon fill="black" stroke="black" points="539.64,-1023.71 546.91,-1016 536.42,-1017.5 539.64,-1023.71"/>
</g>
<!-- google&#45;cloud&#45;cpp&#45;ai&#45;&gt;google&#45;cloud&#45;cpp -->
<g id="edge69" class="edge">
<title>google&#45;cloud&#45;cpp&#45;ai&#45;&gt;google&#45;cloud&#45;cpp</title>
<path fill="none" stroke="black" d="M681.94,-1052.41C663.84,-1042.95 640.93,-1030.99 621.39,-1020.78"/>
<polygon fill="black" stroke="black" points="623.05,-1017.7 612.57,-1016.17 619.81,-1023.9 623.05,-1017.7"/>
</g>
<!-- bfiocpp -->
<g id="node55" class="node">
<title>bfiocpp</title>
<g id="a_node55"><a xlink:href="https://github.com/conda-forge/bfiocpp-feedstock/pull/10" xlink:title="bfiocpp ✓">
<ellipse fill="#31688e" stroke="black" cx="1972.23" cy="-854" rx="55.42" ry="18"/>
<text text-anchor="middle" x="1972.23" y="-849.33" font-family="Times,serif" font-size="14.00" fill="white">bfiocpp ✓</text>
</a>
</g>
</g>
<!-- gz&#45;sim&#45;yarp&#45;plugins&#45;&gt;bfiocpp -->
<!-- protobuf&#45;c -->
<g id="node56" class="node">
<title>protobuf&#45;c</title>
<g id="a_node56"><a xlink:href="https://github.com/conda-forge/protobuf-c-feedstock" xlink:title="protobuf c">
<ellipse fill="#000000" stroke="black" cx="1972.23" cy="-782" rx="62.78" ry="18"/>
<text text-anchor="middle" x="1972.23" y="-777.33" font-family="Times,serif" font-size="14.00" fill="white">protobuf c</text>
</a>
</g>
</g>
<!-- bfiocpp&#45;&gt;protobuf&#45;c -->
<!-- mysqlx&#45;connector&#45;python -->
<g id="node57" class="node">
<title>mysqlx&#45;connector&#45;python</title>
<g id="a_node57"><a xlink:href="https://github.com/conda-forge/mysqlx-connector-python-feedstock/pull/9" xlink:title="mysqlx connector python ✓">
<ellipse fill="#31688e" stroke="black" cx="2546.22" cy="-378" rx="145.38" ry="18"/>
<text text-anchor="middle" x="2546.22" y="-373.32" font-family="Times,serif" font-size="14.00" fill="white">mysqlx connector python ✓</text>
</a>
</g>
</g>
</g>
</svg>
