<?xml version="1.0" encoding="UTF-8" standalone="no"?>
<!DOCTYPE svg PUBLIC "-//W3C//DTD SVG 1.1//EN"
 "http://www.w3.org/Graphics/SVG/1.1/DTD/svg11.dtd">
<!-- Generated by graphviz version 12.0.0 (20240803.0821)
 -->
<!-- Pages: 1 -->
<svg width="1722pt" height="952pt"
 viewBox="0.00 0.00 1721.74 952.00" xmlns="http://www.w3.org/2000/svg" xmlns:xlink="http://www.w3.org/1999/xlink">
<g id="graph0" class="graph" transform="scale(1 1) rotate(0) translate(4 948)">
<polygon fill="white" stroke="none" points="-4,4 -4,-948 1717.74,-948 1717.74,4 -4,4"/>
<!-- arrow&#45;cpp -->
<g id="node1" class="node">
<title>arrow&#45;cpp</title>
<g id="a_node1"><a xlink:href="https://github.com/conda-forge/arrow-cpp-feedstock" xlink:title="arrow cpp">
<ellipse fill="#fde725" stroke="black" cx="208.84" cy="-638" rx="61.73" ry="18"/>
<text text-anchor="middle" x="208.84" y="-633.33" font-family="Times,serif" font-size="14.00">arrow cpp</text>
</a>
</g>
</g>
<!-- ray&#45;packages -->
<g id="node2" class="node">
<title>ray&#45;packages</title>
<g id="a_node2"><a xlink:href="https://github.com/conda-forge/ray-packages-feedstock" xlink:title="ray packages">
<ellipse fill="#fde725" stroke="black" cx="319.84" cy="-566" rx="76.99" ry="18"/>
<text text-anchor="middle" x="319.84" y="-561.33" font-family="Times,serif" font-size="14.00">ray packages</text>
</a>
</g>
</g>
<!-- arrow&#45;cpp&#45;&gt;ray&#45;packages -->
<g id="edge1" class="edge">
<title>arrow&#45;cpp&#45;&gt;ray&#45;packages</title>
<path fill="none" stroke="black" d="M234.02,-621.12C248.99,-611.67 268.21,-599.56 284.66,-589.18"/>
<polygon fill="black" stroke="black" points="286.11,-592.41 292.7,-584.11 282.37,-586.49 286.11,-592.41"/>
</g>
<!-- datafusion -->
<g id="node3" class="node">
<title>datafusion</title>
<g id="a_node3"><a xlink:href="https://github.com/conda-forge/datafusion-feedstock" xlink:title="datafusion">
<ellipse fill="#fde725" stroke="black" cx="63.84" cy="-566" rx="63.84" ry="18"/>
<text text-anchor="middle" x="63.84" y="-561.33" font-family="Times,serif" font-size="14.00">datafusion</text>
</a>
</g>
</g>
<!-- arrow&#45;cpp&#45;&gt;datafusion -->
<g id="edge2" class="edge">
<title>arrow&#45;cpp&#45;&gt;datafusion</title>
<path fill="none" stroke="black" d="M177.73,-621.98C156.59,-611.78 128.38,-598.16 105.33,-587.03"/>
<polygon fill="black" stroke="black" points="107.03,-583.97 96.5,-582.77 103.99,-590.27 107.03,-583.97"/>
</g>
<!-- arcticdb -->
<g id="node4" class="node">
<title>arcticdb</title>
<g id="a_node4"><a xlink:href="https://github.com/conda-forge/arcticdb-feedstock" xlink:title="arcticdb">
<ellipse fill="#fde725" stroke="black" cx="134.84" cy="-494" rx="52.26" ry="18"/>
<text text-anchor="middle" x="134.84" y="-489.32" font-family="Times,serif" font-size="14.00">arcticdb</text>
</a>
</g>
</g>
<!-- arrow&#45;cpp&#45;&gt;arcticdb -->
<g id="edge3" class="edge">
<title>arrow&#45;cpp&#45;&gt;arcticdb</title>
<path fill="none" stroke="black" d="M199.91,-619.87C187.3,-595.67 164.13,-551.21 149.11,-522.39"/>
<polygon fill="black" stroke="black" points="152.22,-520.78 144.49,-513.53 146.01,-524.02 152.22,-520.78"/>
</g>
<!-- csp -->
<g id="node5" class="node">
<title>csp</title>
<g id="a_node5"><a xlink:href="https://github.com/conda-forge/csp-feedstock" xlink:title="csp">
<ellipse fill="#fde725" stroke="black" cx="214.84" cy="-422" rx="28.06" ry="18"/>
<text text-anchor="middle" x="214.84" y="-417.32" font-family="Times,serif" font-size="14.00">csp</text>
</a>
</g>
</g>
<!-- arrow&#45;cpp&#45;&gt;csp -->
<g id="edge4" class="edge">
<title>arrow&#45;cpp&#45;&gt;csp</title>
<path fill="none" stroke="black" d="M209.32,-619.85C210.35,-583.14 212.77,-496.66 214.04,-451.53"/>
<polygon fill="black" stroke="black" points="217.53,-451.84 214.31,-441.75 210.53,-451.64 217.53,-451.84"/>
</g>
<!-- bazel -->
<g id="node6" class="node">
<title>bazel</title>
<g id="a_node6"><a xlink:href="https://github.com/conda-forge/bazel-feedstock/pull/247" xlink:title="bazel ❎">
<ellipse fill="#31688e" stroke="black" cx="1128.58" cy="-926" rx="52.79" ry="18"/>
<text text-anchor="middle" x="1128.58" y="-921.33" font-family="Times,serif" font-size="14.00" fill="white">bazel ❎</text>
</a>
</g>
</g>
<!-- mosh -->
<g id="node7" class="node">
<title>mosh</title>
<g id="a_node7"><a xlink:href="https://github.com/conda-forge/mosh-feedstock/pull/41" xlink:title="mosh ✓">
<ellipse fill="#31688e" stroke="black" cx="1128.58" cy="-854" rx="45.95" ry="18"/>
<text text-anchor="middle" x="1128.58" y="-849.33" font-family="Times,serif" font-size="14.00" fill="white">mosh ✓</text>
</a>
</g>
</g>
<!-- bazel&#45;&gt;mosh -->
<!-- qgis -->
<g id="node8" class="node">
<title>qgis</title>
<g id="a_node8"><a xlink:href="https://github.com/conda-forge/qgis-feedstock" xlink:title="qgis">
<ellipse fill="#ff8c00" stroke="black" cx="1128.58" cy="-782" rx="32.27" ry="18"/>
<text text-anchor="middle" x="1128.58" y="-777.33" font-family="Times,serif" font-size="14.00">qgis</text>
</a>
</g>
</g>
<!-- mosh&#45;&gt;qgis -->
<!-- tensorflow -->
<g id="node9" class="node">
<title>tensorflow</title>
<g id="a_node9"><a xlink:href="https://github.com/conda-forge/tensorflow-feedstock/pull/407" xlink:title="tensorflow ❎">
<ellipse fill="#31688e" stroke="black" cx="1128.58" cy="-710" rx="79.09" ry="18"/>
<text text-anchor="middle" x="1128.58" y="-705.33" font-family="Times,serif" font-size="14.00" fill="white">tensorflow ❎</text>
</a>
</g>
</g>
<!-- qgis&#45;&gt;tensorflow -->
<!-- r&#45;protolite -->
<g id="node10" class="node">
<title>r&#45;protolite</title>
<g id="a_node10"><a xlink:href="https://github.com/conda-forge/r-protolite-feedstock" xlink:title="r protolite">
<ellipse fill="#ff8c00" stroke="black" cx="1128.58" cy="-638" rx="62.26" ry="18"/>
<text text-anchor="middle" x="1128.58" y="-633.33" font-family="Times,serif" font-size="14.00">r protolite</text>
</a>
</g>
</g>
<!-- tensorflow&#45;&gt;r&#45;protolite -->
<!-- go&#45;cockroach -->
<g id="node11" class="node">
<title>go&#45;cockroach</title>
<g id="a_node11"><a xlink:href="https://github.com/conda-forge/go-cockroach-feedstock" xlink:title="go cockroach">
<ellipse fill="#ff8c00" stroke="black" cx="1128.58" cy="-566" rx="76.46" ry="18"/>
<text text-anchor="middle" x="1128.58" y="-561.33" font-family="Times,serif" font-size="14.00">go cockroach</text>
</a>
</g>
</g>
<!-- r&#45;protolite&#45;&gt;go&#45;cockroach -->
<!-- tomviz -->
<g id="node16" class="node">
<title>tomviz</title>
<g id="a_node16"><a xlink:href="https://github.com/conda-forge/tomviz-feedstock" xlink:title="tomviz">
<ellipse fill="#ff8c00" stroke="black" cx="1128.58" cy="-494" rx="44.9" ry="18"/>
<text text-anchor="middle" x="1128.58" y="-489.32" font-family="Times,serif" font-size="14.00">tomviz</text>
</a>
</g>
</g>
<!-- go&#45;cockroach&#45;&gt;tomviz -->
<!-- jaxlib -->
<g id="node12" class="node">
<title>jaxlib</title>
<g id="a_node12"><a xlink:href="https://github.com/conda-forge/jaxlib-feedstock" xlink:title="jaxlib">
<ellipse fill="#000000" stroke="black" cx="326.84" cy="-638" rx="38.58" ry="18"/>
<text text-anchor="middle" x="326.84" y="-633.33" font-family="Times,serif" font-size="14.00" fill="white">jaxlib</text>
</a>
</g>
</g>
<!-- jaxlib&#45;&gt;ray&#45;packages -->
<g id="edge10" class="edge">
<title>jaxlib&#45;&gt;ray&#45;packages</title>
<path fill="none" stroke="black" d="M325.1,-619.7C324.38,-612.41 323.51,-603.73 322.69,-595.54"/>
<polygon fill="black" stroke="black" points="326.17,-595.21 321.7,-585.61 319.21,-595.91 326.17,-595.21"/>
</g>
<!-- gazebo -->
<g id="node13" class="node">
<title>gazebo</title>
<g id="a_node13"><a xlink:href="https://github.com/conda-forge/gazebo-feedstock" xlink:title="gazebo">
<ellipse fill="#ff8c00" stroke="black" cx="1128.58" cy="-126" rx="46.47" ry="18"/>
<text text-anchor="middle" x="1128.58" y="-121.33" font-family="Times,serif" font-size="14.00">gazebo</text>
</a>
</g>
</g>
<!-- gazebo&#45;yarp&#45;plugins -->
<g id="node14" class="node">
<title>gazebo&#45;yarp&#45;plugins</title>
<g id="a_node14"><a xlink:href="https://github.com/conda-forge/gazebo-yarp-plugins-feedstock" xlink:title="gazebo yarp plugins">
<ellipse fill="#fde725" stroke="black" cx="1128.58" cy="-54" rx="112.24" ry="18"/>
<text text-anchor="middle" x="1128.58" y="-49.33" font-family="Times,serif" font-size="14.00">gazebo yarp plugins</text>
</a>
</g>
</g>
<!-- gazebo&#45;&gt;gazebo&#45;yarp&#45;plugins -->
<g id="edge11" class="edge">
<title>gazebo&#45;&gt;gazebo&#45;yarp&#45;plugins</title>
<path fill="none" stroke="black" d="M1128.58,-107.7C1128.58,-100.41 1128.58,-91.73 1128.58,-83.54"/>
<polygon fill="black" stroke="black" points="1132.08,-83.62 1128.58,-73.62 1125.08,-83.62 1132.08,-83.62"/>
</g>
<!-- google&#45;cloud&#45;cpp -->
<g id="node15" class="node">
<title>google&#45;cloud&#45;cpp</title>
<g id="a_node15"><a xlink:href="https://github.com/conda-forge/google-cloud-cpp-feedstock" xlink:title="google cloud cpp">
<ellipse fill="#fde725" stroke="black" cx="679.84" cy="-422" rx="95.4" ry="18"/>
<text text-anchor="middle" x="679.84" y="-417.32" font-family="Times,serif" font-size="14.00">google cloud cpp</text>
</a>
</g>
</g>
<!-- or&#45;tools -->
<g id="node17" class="node">
<title>or&#45;tools</title>
<g id="a_node17"><a xlink:href="https://github.com/conda-forge/or-tools-feedstock/pull/63" xlink:title="or tools ❎">
<ellipse fill="#31688e" stroke="black" cx="1128.58" cy="-422" rx="64.36" ry="18"/>
<text text-anchor="middle" x="1128.58" y="-417.32" font-family="Times,serif" font-size="14.00" fill="white">or tools ❎</text>
</a>
</g>
</g>
<!-- tomviz&#45;&gt;or&#45;tools -->
<!-- bear -->
<g id="node18" class="node">
<title>bear</title>
<g id="a_node18"><a xlink:href="https://github.com/conda-forge/bear-feedstock/pull/52" xlink:title="bear ❎">
<ellipse fill="#31688e" stroke="black" cx="1128.58" cy="-350" rx="49.1" ry="18"/>
<text text-anchor="middle" x="1128.58" y="-345.32" font-family="Times,serif" font-size="14.00" fill="white">bear ❎</text>
</a>
</g>
</g>
<!-- or&#45;tools&#45;&gt;bear -->
<!-- xilinx&#45;runtime -->
<g id="node19" class="node">
<title>xilinx&#45;runtime</title>
<g id="a_node19"><a xlink:href="https://github.com/conda-forge/xilinx-runtime-feedstock/pull/38" xlink:title="xilinx runtime ❎">
<ellipse fill="#31688e" stroke="black" cx="1128.58" cy="-278" rx="96.98" ry="18"/>
<text text-anchor="middle" x="1128.58" y="-273.32" font-family="Times,serif" font-size="14.00" fill="white">xilinx runtime ❎</text>
</a>
</g>
</g>
<!-- bear&#45;&gt;xilinx&#45;runtime -->
<!-- gcld3 -->
<g id="node20" class="node">
<title>gcld3</title>
<g id="a_node20"><a xlink:href="https://github.com/conda-forge/gcld3-feedstock/pull/14" xlink:title="gcld3 ✓">
<ellipse fill="#31688e" stroke="black" cx="1128.58" cy="-206" rx="46.47" ry="18"/>
<text text-anchor="middle" x="1128.58" y="-201.32" font-family="Times,serif" font-size="14.00" fill="white">gcld3 ✓</text>
</a>
</g>
</g>
<!-- xilinx&#45;runtime&#45;&gt;gcld3 -->
<!-- gz&#45;transport -->
<g id="node21" class="node">
<title>gz&#45;transport</title>
<g id="a_node21"><a xlink:href="https://github.com/conda-forge/gz-transport-feedstock" xlink:title="gz transport">
<ellipse fill="#000000" stroke="black" cx="1603.07" cy="-674" rx="73.3" ry="18"/>
<text text-anchor="middle" x="1603.07" y="-669.33" font-family="Times,serif" font-size="14.00" fill="white">gz transport</text>
</a>
</g>
</g>
<!-- gz&#45;gui -->
<g id="node22" class="node">
<title>gz&#45;gui</title>
<g id="a_node22"><a xlink:href="https://github.com/conda-forge/gz-gui-feedstock" xlink:title="gz gui">
<ellipse fill="#fde725" stroke="black" cx="1638.07" cy="-602" rx="41.74" ry="18"/>
<text text-anchor="middle" x="1638.07" y="-597.33" font-family="Times,serif" font-size="14.00">gz gui</text>
</a>
</g>
</g>
<!-- gz&#45;transport&#45;&gt;gz&#45;gui -->
<g id="edge17" class="edge">
<title>gz&#45;transport&#45;&gt;gz&#45;gui</title>
<path fill="none" stroke="black" d="M1611.72,-655.7C1615.53,-648.07 1620.11,-638.92 1624.37,-630.4"/>
<polygon fill="black" stroke="black" points="1627.49,-631.97 1628.84,-621.46 1621.23,-628.84 1627.49,-631.97"/>
</g>
<!-- gz&#45;sensors -->
<g id="node23" class="node">
<title>gz&#45;sensors</title>
<g id="a_node23"><a xlink:href="https://github.com/conda-forge/gz-sensors-feedstock" xlink:title="gz sensors">
<ellipse fill="#fde725" stroke="black" cx="1476.07" cy="-602" rx="64.36" ry="18"/>
<text text-anchor="middle" x="1476.07" y="-597.33" font-family="Times,serif" font-size="14.00">gz sensors</text>
</a>
</g>
</g>
<!-- gz&#45;transport&#45;&gt;gz&#45;sensors -->
<g id="edge18" class="edge">
<title>gz&#45;transport&#45;&gt;gz&#45;sensors</title>
<path fill="none" stroke="black" d="M1574.25,-657.12C1556.5,-647.34 1533.55,-634.69 1514.3,-624.07"/>
<polygon fill="black" stroke="black" points="1516.1,-621.07 1505.66,-619.31 1512.73,-627.2 1516.1,-621.07"/>
</g>
<!-- gz&#45;sim -->
<g id="node24" class="node">
<title>gz&#45;sim</title>
<g id="a_node24"><a xlink:href="https://github.com/conda-forge/gz-sim-feedstock" xlink:title="gz sim">
<ellipse fill="#fde725" stroke="black" cx="1567.07" cy="-530" rx="43.84" ry="18"/>
<text text-anchor="middle" x="1567.07" y="-525.33" font-family="Times,serif" font-size="14.00">gz sim</text>
</a>
</g>
</g>
<!-- gz&#45;transport&#45;&gt;gz&#45;sim -->
<g id="edge19" class="edge">
<title>gz&#45;transport&#45;&gt;gz&#45;sim</title>
<path fill="none" stroke="black" d="M1597.56,-655.9C1594.32,-645.56 1590.24,-632.08 1587.07,-620 1581.76,-599.84 1576.63,-576.88 1572.89,-559.33"/>
<polygon fill="black" stroke="black" points="1576.33,-558.7 1570.85,-549.63 1569.48,-560.14 1576.33,-558.7"/>
</g>
<!-- gz&#45;launch -->
<g id="node25" class="node">
<title>gz&#45;launch</title>
<g id="a_node25"><a xlink:href="https://github.com/conda-forge/gz-launch-feedstock" xlink:title="gz launch">
<ellipse fill="#fde725" stroke="black" cx="1639.07" cy="-458" rx="59.1" ry="18"/>
<text text-anchor="middle" x="1639.07" y="-453.32" font-family="Times,serif" font-size="14.00">gz launch</text>
</a>
</g>
</g>
<!-- gz&#45;transport&#45;&gt;gz&#45;launch -->
<g id="edge20" class="edge">
<title>gz&#45;transport&#45;&gt;gz&#45;launch</title>
<path fill="none" stroke="black" d="M1643.2,-658.72C1660.56,-650.31 1679.15,-637.76 1689.07,-620 1713.74,-575.81 1682.26,-517.85 1659.24,-484.9"/>
<polygon fill="black" stroke="black" points="1662.31,-483.18 1653.62,-477.13 1656.64,-487.28 1662.31,-483.18"/>
</g>
<!-- gz&#45;gui&#45;&gt;gz&#45;sim -->
<g id="edge21" class="edge">
<title>gz&#45;gui&#45;&gt;gz&#45;sim</title>
<path fill="none" stroke="black" d="M1621.95,-585.12C1612.88,-576.17 1601.36,-564.81 1591.22,-554.81"/>
<polygon fill="black" stroke="black" points="1593.77,-552.41 1584.19,-547.88 1588.85,-557.4 1593.77,-552.41"/>
</g>
<!-- gz&#45;gui&#45;&gt;gz&#45;launch -->
<g id="edge22" class="edge">
<title>gz&#45;gui&#45;&gt;gz&#45;launch</title>
<path fill="none" stroke="black" d="M1638.19,-583.59C1638.36,-559.61 1638.66,-516.14 1638.87,-487.42"/>
<polygon fill="black" stroke="black" points="1642.36,-487.65 1638.93,-477.62 1635.36,-487.6 1642.36,-487.65"/>
</g>
<!-- gz&#45;sensors&#45;&gt;gz&#45;sim -->
<g id="edge23" class="edge">
<title>gz&#45;sensors&#45;&gt;gz&#45;sim</title>
<path fill="none" stroke="black" d="M1497.17,-584.76C1509.37,-575.38 1524.9,-563.44 1538.21,-553.2"/>
<polygon fill="black" stroke="black" points="1540.02,-556.22 1545.81,-547.35 1535.75,-550.67 1540.02,-556.22"/>
</g>
<!-- gz&#45;sim&#45;&gt;gz&#45;launch -->
<g id="edge24" class="edge">
<title>gz&#45;sim&#45;&gt;gz&#45;launch</title>
<path fill="none" stroke="black" d="M1583.4,-513.12C1592.41,-504.36 1603.8,-493.29 1613.92,-483.45"/>
<polygon fill="black" stroke="black" points="1616.23,-486.09 1620.96,-476.61 1611.35,-481.07 1616.23,-486.09"/>
</g>
<!-- gz&#45;fuel&#45;tools -->
<g id="node26" class="node">
<title>gz&#45;fuel&#45;tools</title>
<g id="a_node26"><a xlink:href="https://github.com/conda-forge/gz-fuel-tools-feedstock" xlink:title="gz fuel tools">
<ellipse fill="#ff8c00" stroke="black" cx="1321.07" cy="-602" rx="72.25" ry="18"/>
<text text-anchor="middle" x="1321.07" y="-597.33" font-family="Times,serif" font-size="14.00">gz fuel tools</text>
</a>
</g>
</g>
<!-- gz&#45;fuel&#45;tools&#45;&gt;gz&#45;sim -->
<g id="edge25" class="edge">
<title>gz&#45;fuel&#45;tools&#45;&gt;gz&#45;sim</title>
<path fill="none" stroke="black" d="M1367.34,-587.83C1411.25,-575.34 1476.9,-556.66 1520.81,-544.16"/>
<polygon fill="black" stroke="black" points="1521.64,-547.57 1530.3,-541.46 1519.72,-540.83 1521.64,-547.57"/>
</g>
<!-- openvino&#45;tokenizers -->
<g id="node27" class="node">
<title>openvino&#45;tokenizers</title>
<g id="a_node27"><a xlink:href="https://github.com/conda-forge/openvino-tokenizers-feedstock" xlink:title="openvino tokenizers">
<ellipse fill="#ff8c00" stroke="black" cx="504.17" cy="-162" rx="111.71" ry="18"/>
<text text-anchor="middle" x="504.17" y="-157.32" font-family="Times,serif" font-size="14.00">openvino tokenizers</text>
</a>
</g>
</g>
<!-- gz&#45;sim&#45;yarp&#45;plugins -->
<g id="node28" class="node">
<title>gz&#45;sim&#45;yarp&#45;plugins</title>
<g id="a_node28"><a xlink:href="https://github.com/conda-forge/gz-sim-yarp-plugins-feedstock" xlink:title="gz sim yarp plugins">
<ellipse fill="#000000" stroke="black" cx="504.17" cy="-90" rx="109.61" ry="18"/>
<text text-anchor="middle" x="504.17" y="-85.33" font-family="Times,serif" font-size="14.00" fill="white">gz sim yarp plugins</text>
</a>
</g>
</g>
<!-- openvino&#45;tokenizers&#45;&gt;gz&#45;sim&#45;yarp&#45;plugins -->
<!-- mysqlx&#45;connector&#45;python -->
<g id="node33" class="node">
<title>mysqlx&#45;connector&#45;python</title>
<g id="a_node33"><a xlink:href="https://github.com/conda-forge/mysqlx-connector-python-feedstock/pull/9" xlink:title="mysqlx connector python ✓">
<ellipse fill="#31688e" stroke="black" cx="504.17" cy="-18" rx="145.38" ry="18"/>
<text text-anchor="middle" x="504.17" y="-13.32" font-family="Times,serif" font-size="14.00" fill="white">mysqlx connector python ✓</text>
</a>
</g>
</g>
<!-- gz&#45;sim&#45;yarp&#45;plugins&#45;&gt;mysqlx&#45;connector&#45;python -->
<!-- google&#45;cloud&#45;cpp&#45;core -->
<g id="node29" class="node">
<title>google&#45;cloud&#45;cpp&#45;core</title>
<g id="a_node29"><a xlink:href="https://github.com/conda-forge/google-cloud-cpp-core-feedstock/pull/26" xlink:title="google cloud cpp core ✓">
<ellipse fill="#31688e" stroke="black" cx="558.84" cy="-710" rx="128.02" ry="18"/>
<text text-anchor="middle" x="558.84" y="-705.33" font-family="Times,serif" font-size="14.00" fill="white">google cloud cpp core ✓</text>
</a>
</g>
</g>
<!-- google&#45;cloud&#45;cpp&#45;core&#45;&gt;arrow&#45;cpp -->
<g id="edge27" class="edge">
<title>google&#45;cloud&#45;cpp&#45;core&#45;&gt;arrow&#45;cpp</title>
<path fill="none" stroke="black" d="M480.77,-695.33C424.48,-685.2 346.78,-670.67 278.84,-656 274.56,-655.08 270.14,-654.09 265.7,-653.07"/>
<polygon fill="black" stroke="black" points="266.7,-649.71 256.17,-650.84 265.11,-656.52 266.7,-649.71"/>
</g>
<!-- google&#45;cloud&#45;cpp&#45;core&#45;&gt;google&#45;cloud&#45;cpp -->
<g id="edge28" class="edge">
<title>google&#45;cloud&#45;cpp&#45;core&#45;&gt;google&#45;cloud&#45;cpp</title>
<path fill="none" stroke="black" d="M538.04,-691.77C491.42,-651.08 386.9,-547.14 443.84,-476 461.67,-453.72 527.11,-440.15 584.57,-432.33"/>
<polygon fill="black" stroke="black" points="584.97,-435.81 594.43,-431.04 584.06,-428.87 584.97,-435.81"/>
</g>
<!-- google&#45;cloud&#45;cpp&#45;compute -->
<g id="node30" class="node">
<title>google&#45;cloud&#45;cpp&#45;compute</title>
<g id="a_node30"><a xlink:href="https://github.com/conda-forge/google-cloud-cpp-compute-feedstock" xlink:title="google cloud cpp compute">
<ellipse fill="#fde725" stroke="black" cx="594.84" cy="-494" rx="141.7" ry="18"/>
<text text-anchor="middle" x="594.84" y="-489.32" font-family="Times,serif" font-size="14.00">google cloud cpp compute</text>
</a>
</g>
</g>
<!-- google&#45;cloud&#45;cpp&#45;core&#45;&gt;google&#45;cloud&#45;cpp&#45;compute -->
<g id="edge29" class="edge">
<title>google&#45;cloud&#45;cpp&#45;core&#45;&gt;google&#45;cloud&#45;cpp&#45;compute</title>
<path fill="none" stroke="black" d="M559.77,-691.9C561.62,-662.3 566.6,-599.71 577.84,-548 579.6,-539.88 582.1,-531.23 584.64,-523.33"/>
<polygon fill="black" stroke="black" points="587.95,-524.46 587.82,-513.87 581.31,-522.23 587.95,-524.46"/>
</g>
<!-- google&#45;cloud&#45;cpp&#45;bigquery -->
<g id="node31" class="node">
<title>google&#45;cloud&#45;cpp&#45;bigquery</title>
<g id="a_node31"><a xlink:href="https://github.com/conda-forge/google-cloud-cpp-bigquery-feedstock" xlink:title="google cloud cpp bigquery">
<ellipse fill="#fde725" stroke="black" cx="729.84" cy="-566" rx="143.28" ry="18"/>
<text text-anchor="middle" x="729.84" y="-561.33" font-family="Times,serif" font-size="14.00">google cloud cpp bigquery</text>
</a>
</g>
</g>
<!-- google&#45;cloud&#45;cpp&#45;core&#45;&gt;google&#45;cloud&#45;cpp&#45;bigquery -->
<g id="edge30" class="edge">
<title>google&#45;cloud&#45;cpp&#45;core&#45;&gt;google&#45;cloud&#45;cpp&#45;bigquery</title>
<path fill="none" stroke="black" d="M579.46,-691.87C609.63,-666.82 665.95,-620.05 700.44,-591.41"/>
<polygon fill="black" stroke="black" points="702.51,-594.24 707.97,-585.16 698.04,-588.85 702.51,-594.24"/>
</g>
<!-- google&#45;cloud&#45;cpp&#45;ai -->
<g id="node32" class="node">
<title>google&#45;cloud&#45;cpp&#45;ai</title>
<g id="a_node32"><a xlink:href="https://github.com/conda-forge/google-cloud-cpp-ai-feedstock" xlink:title="google cloud cpp ai">
<ellipse fill="#fde725" stroke="black" cx="900.84" cy="-494" rx="107.5" ry="18"/>
<text text-anchor="middle" x="900.84" y="-489.32" font-family="Times,serif" font-size="14.00">google cloud cpp ai</text>
</a>
</g>
</g>
<!-- google&#45;cloud&#45;cpp&#45;core&#45;&gt;google&#45;cloud&#45;cpp&#45;ai -->
<g id="edge31" class="edge">
<title>google&#45;cloud&#45;cpp&#45;core&#45;&gt;google&#45;cloud&#45;cpp&#45;ai</title>
<path fill="none" stroke="black" d="M651.6,-697.26C724.83,-683.02 824,-651.84 881.84,-584 896.03,-567.35 900.43,-542.67 901.47,-523.53"/>
<polygon fill="black" stroke="black" points="904.97,-523.75 901.71,-513.67 897.97,-523.58 904.97,-523.75"/>
</g>
<!-- google&#45;cloud&#45;cpp&#45;compute&#45;&gt;google&#45;cloud&#45;cpp -->
<g id="edge32" class="edge">
<title>google&#45;cloud&#45;cpp&#45;compute&#45;&gt;google&#45;cloud&#45;cpp</title>
<path fill="none" stroke="black" d="M615.41,-476.05C625.88,-467.43 638.79,-456.8 650.3,-447.32"/>
<polygon fill="black" stroke="black" points="652.49,-450.05 657.99,-440.99 648.04,-444.65 652.49,-450.05"/>
</g>
<!-- google&#45;cloud&#45;cpp&#45;bigquery&#45;&gt;google&#45;cloud&#45;cpp -->
<g id="edge33" class="edge">
<title>google&#45;cloud&#45;cpp&#45;bigquery&#45;&gt;google&#45;cloud&#45;cpp</title>
<path fill="none" stroke="black" d="M738.86,-547.77C747.27,-529.21 756.97,-499.22 745.84,-476 740.13,-464.11 730.32,-454.05 719.98,-445.99"/>
<polygon fill="black" stroke="black" points="722.24,-443.3 712.08,-440.31 718.16,-448.98 722.24,-443.3"/>
</g>
<!-- google&#45;cloud&#45;cpp&#45;ai&#45;&gt;google&#45;cloud&#45;cpp -->
<g id="edge34" class="edge">
<title>google&#45;cloud&#45;cpp&#45;ai&#45;&gt;google&#45;cloud&#45;cpp</title>
<path fill="none" stroke="black" d="M852.06,-477.55C818.42,-466.9 773.55,-452.68 738.04,-441.44"/>
<polygon fill="black" stroke="black" points="739.38,-438.19 728.79,-438.51 737.26,-444.86 739.38,-438.19"/>
</g>
</g>
</svg>
