<?xml version="1.0" encoding="UTF-8" standalone="no"?>
<!DOCTYPE svg PUBLIC "-//W3C//DTD SVG 1.1//EN"
 "http://www.w3.org/Graphics/SVG/1.1/DTD/svg11.dtd">
<!-- Generated by graphviz version 12.0.0 (20240803.0821)
 -->
<!-- Pages: 1 -->
<svg width="2649pt" height="1384pt"
 viewBox="0.00 0.00 2648.59 1384.00" xmlns="http://www.w3.org/2000/svg" xmlns:xlink="http://www.w3.org/1999/xlink">
<g id="graph0" class="graph" transform="scale(1 1) rotate(0) translate(4 1380)">
<polygon fill="white" stroke="none" points="-4,4 -4,-1380 2644.59,-1380 2644.59,4 -4,4"/>
<!-- arrow&#45;cpp -->
<g id="node1" class="node">
<title>arrow&#45;cpp</title>
<g id="a_node1"><a xlink:href="https://github.com/conda-forge/arrow-cpp-feedstock" xlink:title="arrow cpp">
<ellipse fill="#fde725" stroke="black" cx="928.29" cy="-1070" rx="61.73" ry="18"/>
<text text-anchor="middle" x="928.29" y="-1065.33" font-family="Times,serif" font-size="14.00">arrow cpp</text>
</a>
</g>
</g>
<!-- ray&#45;packages -->
<g id="node2" class="node">
<title>ray&#45;packages</title>
<g id="a_node2"><a xlink:href="https://github.com/conda-forge/ray-packages-feedstock" xlink:title="ray packages">
<ellipse fill="#fde725" stroke="black" cx="1537.29" cy="-998" rx="76.99" ry="18"/>
<text text-anchor="middle" x="1537.29" y="-993.33" font-family="Times,serif" font-size="14.00">ray packages</text>
</a>
</g>
</g>
<!-- arrow&#45;cpp&#45;&gt;ray&#45;packages -->
<g id="edge1" class="edge">
<title>arrow&#45;cpp&#45;&gt;ray&#45;packages</title>
<path fill="none" stroke="black" d="M987.74,-1064.81C1085,-1057.54 1284.08,-1040.94 1451.29,-1016 1457.66,-1015.05 1464.27,-1013.95 1470.86,-1012.78"/>
<polygon fill="black" stroke="black" points="1471.22,-1016.27 1480.42,-1011.02 1469.95,-1009.39 1471.22,-1016.27"/>
</g>
<!-- datafusion -->
<g id="node3" class="node">
<title>datafusion</title>
<g id="a_node3"><a xlink:href="https://github.com/conda-forge/datafusion-feedstock" xlink:title="datafusion">
<ellipse fill="#fde725" stroke="black" cx="1020.29" cy="-998" rx="63.84" ry="18"/>
<text text-anchor="middle" x="1020.29" y="-993.33" font-family="Times,serif" font-size="14.00">datafusion</text>
</a>
</g>
</g>
<!-- arrow&#45;cpp&#45;&gt;datafusion -->
<g id="edge2" class="edge">
<title>arrow&#45;cpp&#45;&gt;datafusion</title>
<path fill="none" stroke="black" d="M949.63,-1052.76C961.51,-1043.73 976.49,-1032.33 989.61,-1022.35"/>
<polygon fill="black" stroke="black" points="991.71,-1025.15 997.55,-1016.31 987.47,-1019.58 991.71,-1025.15"/>
</g>
<!-- arcticdb -->
<g id="node4" class="node">
<title>arcticdb</title>
<g id="a_node4"><a xlink:href="https://github.com/conda-forge/arcticdb-feedstock" xlink:title="arcticdb">
<ellipse fill="#fde725" stroke="black" cx="949.29" cy="-926" rx="52.26" ry="18"/>
<text text-anchor="middle" x="949.29" y="-921.33" font-family="Times,serif" font-size="14.00">arcticdb</text>
</a>
</g>
</g>
<!-- arrow&#45;cpp&#45;&gt;arcticdb -->
<g id="edge3" class="edge">
<title>arrow&#45;cpp&#45;&gt;arcticdb</title>
<path fill="none" stroke="black" d="M930.87,-1051.59C934.41,-1027.61 940.84,-984.14 945.09,-955.42"/>
<polygon fill="black" stroke="black" points="948.54,-956.01 946.54,-945.61 941.62,-954.99 948.54,-956.01"/>
</g>
<!-- csp -->
<g id="node5" class="node">
<title>csp</title>
<g id="a_node5"><a xlink:href="https://github.com/conda-forge/csp-feedstock" xlink:title="csp">
<ellipse fill="#fde725" stroke="black" cx="869.29" cy="-854" rx="28.06" ry="18"/>
<text text-anchor="middle" x="869.29" y="-849.33" font-family="Times,serif" font-size="14.00">csp</text>
</a>
</g>
</g>
<!-- arrow&#45;cpp&#45;&gt;csp -->
<g id="edge4" class="edge">
<title>arrow&#45;cpp&#45;&gt;csp</title>
<path fill="none" stroke="black" d="M922.18,-1051.77C913.81,-1027.81 898.66,-982.97 888.29,-944 882.95,-923.9 878.07,-900.94 874.6,-883.38"/>
<polygon fill="black" stroke="black" points="878.06,-882.82 872.72,-873.67 871.19,-884.15 878.06,-882.82"/>
</g>
<!-- bazel -->
<g id="node6" class="node">
<title>bazel</title>
<g id="a_node6"><a xlink:href="https://github.com/conda-forge/bazel-feedstock/pull/247" xlink:title="bazel ❎">
<ellipse fill="#31688e" stroke="black" cx="2528.88" cy="-1358" rx="52.79" ry="18"/>
<text text-anchor="middle" x="2528.88" y="-1353.32" font-family="Times,serif" font-size="14.00" fill="white">bazel ❎</text>
</a>
</g>
</g>
<!-- mosh -->
<g id="node7" class="node">
<title>mosh</title>
<g id="a_node7"><a xlink:href="https://github.com/conda-forge/mosh-feedstock/pull/41" xlink:title="mosh ❎">
<ellipse fill="#31688e" stroke="black" cx="2528.88" cy="-1286" rx="53.31" ry="18"/>
<text text-anchor="middle" x="2528.88" y="-1281.32" font-family="Times,serif" font-size="14.00" fill="white">mosh ❎</text>
</a>
</g>
</g>
<!-- bazel&#45;&gt;mosh -->
<!-- mysql -->
<g id="node8" class="node">
<title>mysql</title>
<g id="a_node8"><a xlink:href="https://github.com/conda-forge/mysql-feedstock/pull/104" xlink:title="mysql ❎">
<ellipse fill="#31688e" stroke="black" cx="2528.88" cy="-1214" rx="56.47" ry="18"/>
<text text-anchor="middle" x="2528.88" y="-1209.32" font-family="Times,serif" font-size="14.00" fill="white">mysql ❎</text>
</a>
</g>
</g>
<!-- mosh&#45;&gt;mysql -->
<!-- paraview -->
<g id="node9" class="node">
<title>paraview</title>
<g id="a_node9"><a xlink:href="https://github.com/conda-forge/paraview-feedstock" xlink:title="paraview">
<ellipse fill="#000000" stroke="black" cx="2528.88" cy="-1142" rx="57" ry="18"/>
<text text-anchor="middle" x="2528.88" y="-1137.33" font-family="Times,serif" font-size="14.00" fill="white">paraview</text>
</a>
</g>
</g>
<!-- mysql&#45;&gt;paraview -->
<!-- qgis -->
<g id="node14" class="node">
<title>qgis</title>
<g id="a_node14"><a xlink:href="https://github.com/conda-forge/qgis-feedstock" xlink:title="qgis">
<ellipse fill="#ff8c00" stroke="black" cx="2528.88" cy="-1070" rx="32.27" ry="18"/>
<text text-anchor="middle" x="2528.88" y="-1065.33" font-family="Times,serif" font-size="14.00">qgis</text>
</a>
</g>
</g>
<!-- paraview&#45;&gt;qgis -->
<!-- opencv -->
<g id="node10" class="node">
<title>opencv</title>
<g id="a_node10"><a xlink:href="https://github.com/conda-forge/opencv-feedstock" xlink:title="opencv">
<ellipse fill="#35b779" stroke="black" cx="1366.29" cy="-1070" rx="46.47" ry="18"/>
<text text-anchor="middle" x="1366.29" y="-1065.33" font-family="Times,serif" font-size="14.00">opencv</text>
</a>
</g>
</g>
<!-- opencv&#45;&gt;ray&#45;packages -->
<g id="edge8" class="edge">
<title>opencv&#45;&gt;ray&#45;packages</title>
<path fill="none" stroke="black" d="M1397.26,-1056.32C1423.06,-1045.76 1460.23,-1030.54 1489.8,-1018.44"/>
<polygon fill="black" stroke="black" points="1490.98,-1021.74 1498.91,-1014.71 1488.33,-1015.26 1490.98,-1021.74"/>
</g>
<!-- imp -->
<g id="node11" class="node">
<title>imp</title>
<g id="a_node11"><a xlink:href="https://github.com/conda-forge/imp-feedstock" xlink:title="imp">
<ellipse fill="#fde725" stroke="black" cx="1412.29" cy="-998" rx="30.16" ry="18"/>
<text text-anchor="middle" x="1412.29" y="-993.33" font-family="Times,serif" font-size="14.00">imp</text>
</a>
</g>
</g>
<!-- opencv&#45;&gt;imp -->
<g id="edge9" class="edge">
<title>opencv&#45;&gt;imp</title>
<path fill="none" stroke="black" d="M1377.43,-1052.05C1382.82,-1043.85 1389.4,-1033.83 1395.39,-1024.71"/>
<polygon fill="black" stroke="black" points="1398.18,-1026.85 1400.75,-1016.57 1392.33,-1023.01 1398.18,-1026.85"/>
</g>
<!-- gazebo&#45;yarp&#45;plugins -->
<g id="node12" class="node">
<title>gazebo&#45;yarp&#45;plugins</title>
<g id="a_node12"><a xlink:href="https://github.com/conda-forge/gazebo-yarp-plugins-feedstock" xlink:title="gazebo yarp plugins">
<ellipse fill="#fde725" stroke="black" cx="1214.29" cy="-998" rx="112.24" ry="18"/>
<text text-anchor="middle" x="1214.29" y="-993.33" font-family="Times,serif" font-size="14.00">gazebo yarp plugins</text>
</a>
</g>
</g>
<!-- opencv&#45;&gt;gazebo&#45;yarp&#45;plugins -->
<g id="edge10" class="edge">
<title>opencv&#45;&gt;gazebo&#45;yarp&#45;plugins</title>
<path fill="none" stroke="black" d="M1337.35,-1055.67C1315.64,-1045.67 1285.49,-1031.79 1260.47,-1020.27"/>
<polygon fill="black" stroke="black" points="1262.02,-1017.13 1251.47,-1016.12 1259.09,-1023.48 1262.02,-1017.13"/>
</g>
<!-- nvidia&#45;dali&#45;python -->
<g id="node13" class="node">
<title>nvidia&#45;dali&#45;python</title>
<g id="a_node13"><a xlink:href="https://github.com/conda-forge/nvidia-dali-python-feedstock" xlink:title="nvidia dali python">
<ellipse fill="#fde725" stroke="black" cx="1354.29" cy="-926" rx="101.19" ry="18"/>
<text text-anchor="middle" x="1354.29" y="-921.33" font-family="Times,serif" font-size="14.00">nvidia dali python</text>
</a>
</g>
</g>
<!-- opencv&#45;&gt;nvidia&#45;dali&#45;python -->
<g id="edge11" class="edge">
<title>opencv&#45;&gt;nvidia&#45;dali&#45;python</title>
<path fill="none" stroke="black" d="M1364.82,-1051.59C1362.8,-1027.61 1359.12,-984.14 1356.69,-955.42"/>
<polygon fill="black" stroke="black" points="1360.2,-955.29 1355.87,-945.62 1353.22,-955.88 1360.2,-955.29"/>
</g>
<!-- tensorflow -->
<g id="node15" class="node">
<title>tensorflow</title>
<g id="a_node15"><a xlink:href="https://github.com/conda-forge/tensorflow-feedstock" xlink:title="tensorflow">
<ellipse fill="#000000" stroke="black" cx="2528.88" cy="-998" rx="63.84" ry="18"/>
<text text-anchor="middle" x="2528.88" y="-993.33" font-family="Times,serif" font-size="14.00" fill="white">tensorflow</text>
</a>
</g>
</g>
<!-- qgis&#45;&gt;tensorflow -->
<!-- r&#45;protolite -->
<g id="node16" class="node">
<title>r&#45;protolite</title>
<g id="a_node16"><a xlink:href="https://github.com/conda-forge/r-protolite-feedstock" xlink:title="r protolite">
<ellipse fill="#ff8c00" stroke="black" cx="2528.88" cy="-926" rx="62.26" ry="18"/>
<text text-anchor="middle" x="2528.88" y="-921.33" font-family="Times,serif" font-size="14.00">r protolite</text>
</a>
</g>
</g>
<!-- tensorflow&#45;&gt;r&#45;protolite -->
<!-- go&#45;cockroach -->
<g id="node17" class="node">
<title>go&#45;cockroach</title>
<g id="a_node17"><a xlink:href="https://github.com/conda-forge/go-cockroach-feedstock" xlink:title="go cockroach">
<ellipse fill="#ff8c00" stroke="black" cx="2528.88" cy="-854" rx="76.46" ry="18"/>
<text text-anchor="middle" x="2528.88" y="-849.33" font-family="Times,serif" font-size="14.00">go cockroach</text>
</a>
</g>
</g>
<!-- r&#45;protolite&#45;&gt;go&#45;cockroach -->
<!-- tomviz -->
<g id="node28" class="node">
<title>tomviz</title>
<g id="a_node28"><a xlink:href="https://github.com/conda-forge/tomviz-feedstock" xlink:title="tomviz">
<ellipse fill="#ff8c00" stroke="black" cx="2528.88" cy="-782" rx="44.9" ry="18"/>
<text text-anchor="middle" x="2528.88" y="-777.33" font-family="Times,serif" font-size="14.00">tomviz</text>
</a>
</g>
</g>
<!-- go&#45;cockroach&#45;&gt;tomviz -->
<!-- pytorch&#45;cpu -->
<g id="node18" class="node">
<title>pytorch&#45;cpu</title>
<g id="a_node18"><a xlink:href="https://github.com/conda-forge/pytorch-cpu-feedstock" xlink:title="pytorch cpu">
<ellipse fill="#000000" stroke="black" cx="1525.29" cy="-1070" rx="70.68" ry="18"/>
<text text-anchor="middle" x="1525.29" y="-1065.33" font-family="Times,serif" font-size="14.00" fill="white">pytorch cpu</text>
</a>
</g>
</g>
<!-- pytorch&#45;cpu&#45;&gt;ray&#45;packages -->
<g id="edge16" class="edge">
<title>pytorch&#45;cpu&#45;&gt;ray&#45;packages</title>
<path fill="none" stroke="black" d="M1528.26,-1051.7C1529.52,-1044.32 1531.03,-1035.52 1532.45,-1027.25"/>
<polygon fill="black" stroke="black" points="1535.87,-1028.04 1534.11,-1017.6 1528.97,-1026.86 1535.87,-1028.04"/>
</g>
<!-- jaxlib -->
<g id="node19" class="node">
<title>jaxlib</title>
<g id="a_node19"><a xlink:href="https://github.com/conda-forge/jaxlib-feedstock" xlink:title="jaxlib">
<ellipse fill="#ff8c00" stroke="black" cx="1624.29" cy="-1142" rx="38.58" ry="18"/>
<text text-anchor="middle" x="1624.29" y="-1137.33" font-family="Times,serif" font-size="14.00">jaxlib</text>
</a>
</g>
</g>
<!-- jaxlib&#45;&gt;ray&#45;packages -->
<g id="edge17" class="edge">
<title>jaxlib&#45;&gt;ray&#45;packages</title>
<path fill="none" stroke="black" d="M1624.04,-1123.63C1623.02,-1104.68 1619.13,-1074.09 1605.29,-1052 1597.84,-1040.11 1586.73,-1029.82 1575.64,-1021.55"/>
<polygon fill="black" stroke="black" points="1577.85,-1018.82 1567.64,-1015.96 1573.83,-1024.56 1577.85,-1018.82"/>
</g>
<!-- libignition&#45;transport4 -->
<g id="node20" class="node">
<title>libignition&#45;transport4</title>
<g id="a_node20"><a xlink:href="https://github.com/conda-forge/libignition-transport4-feedstock/pull/102" xlink:title="libignition transport4 ❎">
<ellipse fill="#31688e" stroke="black" cx="2232.84" cy="-1106" rx="134.33" ry="18"/>
<text text-anchor="middle" x="2232.84" y="-1101.33" font-family="Times,serif" font-size="14.00" fill="white">libignition transport4 ❎</text>
</a>
</g>
</g>
<!-- libignition&#45;sensors -->
<g id="node21" class="node">
<title>libignition&#45;sensors</title>
<g id="a_node21"><a xlink:href="https://github.com/conda-forge/libignition-sensors-feedstock" xlink:title="libignition sensors">
<ellipse fill="#fde725" stroke="black" cx="2046.84" cy="-1034" rx="103.82" ry="18"/>
<text text-anchor="middle" x="2046.84" y="-1029.33" font-family="Times,serif" font-size="14.00">libignition sensors</text>
</a>
</g>
</g>
<!-- libignition&#45;transport4&#45;&gt;libignition&#45;sensors -->
<g id="edge18" class="edge">
<title>libignition&#45;transport4&#45;&gt;libignition&#45;sensors</title>
<path fill="none" stroke="black" d="M2189.23,-1088.59C2162.38,-1078.48 2127.8,-1065.47 2099.43,-1054.79"/>
<polygon fill="black" stroke="black" points="2100.91,-1051.61 2090.31,-1051.36 2098.44,-1058.16 2100.91,-1051.61"/>
</g>
<!-- libignition&#45;gui -->
<g id="node22" class="node">
<title>libignition&#45;gui</title>
<g id="a_node22"><a xlink:href="https://github.com/conda-forge/libignition-gui-feedstock" xlink:title="libignition gui">
<ellipse fill="#fde725" stroke="black" cx="2287.84" cy="-1034" rx="81.2" ry="18"/>
<text text-anchor="middle" x="2287.84" y="-1029.33" font-family="Times,serif" font-size="14.00">libignition gui</text>
</a>
</g>
</g>
<!-- libignition&#45;transport4&#45;&gt;libignition&#45;gui -->
<g id="edge19" class="edge">
<title>libignition&#45;transport4&#45;&gt;libignition&#45;gui</title>
<path fill="none" stroke="black" d="M2246.44,-1087.7C2252.77,-1079.64 2260.43,-1069.89 2267.43,-1060.98"/>
<polygon fill="black" stroke="black" points="2270.04,-1063.32 2273.47,-1053.29 2264.54,-1059 2270.04,-1063.32"/>
</g>
<!-- libignition&#45;gazebo -->
<g id="node23" class="node">
<title>libignition&#45;gazebo</title>
<g id="a_node23"><a xlink:href="https://github.com/conda-forge/libignition-gazebo-feedstock" xlink:title="libignition gazebo">
<ellipse fill="#fde725" stroke="black" cx="2168.84" cy="-962" rx="100.66" ry="18"/>
<text text-anchor="middle" x="2168.84" y="-957.33" font-family="Times,serif" font-size="14.00">libignition gazebo</text>
</a>
</g>
</g>
<!-- libignition&#45;transport4&#45;&gt;libignition&#45;gazebo -->
<g id="edge20" class="edge">
<title>libignition&#45;transport4&#45;&gt;libignition&#45;gazebo</title>
<path fill="none" stroke="black" d="M2219.94,-1088.03C2212.72,-1077.96 2203.97,-1064.71 2197.84,-1052 2188.4,-1032.43 2180.91,-1009.02 2175.91,-991.13"/>
<polygon fill="black" stroke="black" points="2179.36,-990.47 2173.38,-981.72 2172.6,-992.28 2179.36,-990.47"/>
</g>
<!-- libignition&#45;launch -->
<g id="node24" class="node">
<title>libignition&#45;launch</title>
<g id="a_node24"><a xlink:href="https://github.com/conda-forge/libignition-launch-feedstock" xlink:title="libignition launch">
<ellipse fill="#fde725" stroke="black" cx="2297.84" cy="-890" rx="98.56" ry="18"/>
<text text-anchor="middle" x="2297.84" y="-885.33" font-family="Times,serif" font-size="14.00">libignition launch</text>
</a>
</g>
</g>
<!-- libignition&#45;transport4&#45;&gt;libignition&#45;launch -->
<g id="edge21" class="edge">
<title>libignition&#45;transport4&#45;&gt;libignition&#45;launch</title>
<path fill="none" stroke="black" d="M2319.62,-1091.85C2342.24,-1084.05 2364.1,-1071.66 2377.84,-1052 2409.17,-1007.2 2360.18,-948.33 2326.11,-915.62"/>
<polygon fill="black" stroke="black" points="2328.63,-913.19 2318.94,-908.93 2323.86,-918.31 2328.63,-913.19"/>
</g>
<!-- libignition&#45;sensors&#45;&gt;libignition&#45;gazebo -->
<g id="edge22" class="edge">
<title>libignition&#45;sensors&#45;&gt;libignition&#45;gazebo</title>
<path fill="none" stroke="black" d="M2075.76,-1016.41C2091.89,-1007.15 2112.22,-995.49 2129.76,-985.42"/>
<polygon fill="black" stroke="black" points="2131.47,-988.48 2138.4,-980.47 2127.99,-982.41 2131.47,-988.48"/>
</g>
<!-- libignition&#45;gui&#45;&gt;libignition&#45;gazebo -->
<g id="edge23" class="edge">
<title>libignition&#45;gui&#45;&gt;libignition&#45;gazebo</title>
<path fill="none" stroke="black" d="M2260.24,-1016.76C2244.4,-1007.45 2224.28,-995.61 2206.95,-985.41"/>
<polygon fill="black" stroke="black" points="2208.82,-982.45 2198.42,-980.4 2205.27,-988.49 2208.82,-982.45"/>
</g>
<!-- libignition&#45;gui&#45;&gt;libignition&#45;launch -->
<g id="edge24" class="edge">
<title>libignition&#45;gui&#45;&gt;libignition&#45;launch</title>
<path fill="none" stroke="black" d="M2289.07,-1015.59C2290.76,-991.61 2293.82,-948.14 2295.84,-919.42"/>
<polygon fill="black" stroke="black" points="2299.32,-919.84 2296.53,-909.62 2292.34,-919.35 2299.32,-919.84"/>
</g>
<!-- libignition&#45;gazebo&#45;&gt;libignition&#45;launch -->
<g id="edge25" class="edge">
<title>libignition&#45;gazebo&#45;&gt;libignition&#45;launch</title>
<path fill="none" stroke="black" d="M2199.41,-944.41C2216.76,-935 2238.69,-923.1 2257.45,-912.92"/>
<polygon fill="black" stroke="black" points="2259.04,-916.04 2266.16,-908.19 2255.7,-909.89 2259.04,-916.04"/>
</g>
<!-- gazebo -->
<g id="node25" class="node">
<title>gazebo</title>
<g id="a_node25"><a xlink:href="https://github.com/conda-forge/gazebo-feedstock" xlink:title="gazebo">
<ellipse fill="#ff8c00" stroke="black" cx="1214.29" cy="-1070" rx="46.47" ry="18"/>
<text text-anchor="middle" x="1214.29" y="-1065.33" font-family="Times,serif" font-size="14.00">gazebo</text>
</a>
</g>
</g>
<!-- gazebo&#45;&gt;gazebo&#45;yarp&#45;plugins -->
<g id="edge26" class="edge">
<title>gazebo&#45;&gt;gazebo&#45;yarp&#45;plugins</title>
<path fill="none" stroke="black" d="M1214.29,-1051.7C1214.29,-1044.41 1214.29,-1035.73 1214.29,-1027.54"/>
<polygon fill="black" stroke="black" points="1217.79,-1027.62 1214.29,-1017.62 1210.79,-1027.62 1217.79,-1027.62"/>
</g>
<!-- libignition&#45;fuel&#45;tools -->
<g id="node26" class="node">
<title>libignition&#45;fuel&#45;tools</title>
<g id="a_node26"><a xlink:href="https://github.com/conda-forge/libignition-fuel-tools-feedstock/pull/96" xlink:title="libignition fuel tools ❎">
<ellipse fill="#31688e" stroke="black" cx="1797.84" cy="-1034" rx="126.97" ry="18"/>
<text text-anchor="middle" x="1797.84" y="-1029.33" font-family="Times,serif" font-size="14.00" fill="white">libignition fuel tools ❎</text>
</a>
</g>
</g>
<!-- libignition&#45;fuel&#45;tools&#45;&gt;libignition&#45;gazebo -->
<g id="edge27" class="edge">
<title>libignition&#45;fuel&#45;tools&#45;&gt;libignition&#45;gazebo</title>
<path fill="none" stroke="black" d="M1872.03,-1019C1935.16,-1007.09 2025.6,-990.03 2090.03,-977.87"/>
<polygon fill="black" stroke="black" points="2090.67,-981.31 2099.85,-976.02 2089.38,-974.43 2090.67,-981.31"/>
</g>
<!-- google&#45;cloud&#45;cpp -->
<g id="node27" class="node">
<title>google&#45;cloud&#45;cpp</title>
<g id="a_node27"><a xlink:href="https://github.com/conda-forge/google-cloud-cpp-feedstock" xlink:title="google cloud cpp">
<ellipse fill="#fde725" stroke="black" cx="313.29" cy="-854" rx="95.4" ry="18"/>
<text text-anchor="middle" x="313.29" y="-849.33" font-family="Times,serif" font-size="14.00">google cloud cpp</text>
</a>
</g>
</g>
<!-- protozfits -->
<g id="node31" class="node">
<title>protozfits</title>
<g id="a_node31"><a xlink:href="https://github.com/conda-forge/protozfits-feedstock" xlink:title="protozfits">
<ellipse fill="#000000" stroke="black" cx="2528.88" cy="-710" rx="59.1" ry="18"/>
<text text-anchor="middle" x="2528.88" y="-705.33" font-family="Times,serif" font-size="14.00" fill="white">protozfits</text>
</a>
</g>
</g>
<!-- tomviz&#45;&gt;protozfits -->
<!-- sentencepiece -->
<g id="node29" class="node">
<title>sentencepiece</title>
<g id="a_node29"><a xlink:href="https://github.com/conda-forge/sentencepiece-feedstock" xlink:title="sentencepiece">
<ellipse fill="#000000" stroke="black" cx="2528.88" cy="-342" rx="82.25" ry="18"/>
<text text-anchor="middle" x="2528.88" y="-337.32" font-family="Times,serif" font-size="14.00" fill="white">sentencepiece</text>
</a>
</g>
</g>
<!-- openvino&#45;tokenizers -->
<g id="node30" class="node">
<title>openvino&#45;tokenizers</title>
<g id="a_node30"><a xlink:href="https://github.com/conda-forge/openvino-tokenizers-feedstock" xlink:title="openvino tokenizers">
<ellipse fill="#fde725" stroke="black" cx="2528.88" cy="-270" rx="111.71" ry="18"/>
<text text-anchor="middle" x="2528.88" y="-265.32" font-family="Times,serif" font-size="14.00">openvino tokenizers</text>
</a>
</g>
</g>
<!-- sentencepiece&#45;&gt;openvino&#45;tokenizers -->
<g id="edge29" class="edge">
<title>sentencepiece&#45;&gt;openvino&#45;tokenizers</title>
<path fill="none" stroke="black" d="M2528.88,-323.7C2528.88,-316.41 2528.88,-307.73 2528.88,-299.54"/>
<polygon fill="black" stroke="black" points="2532.38,-299.62 2528.88,-289.62 2525.38,-299.62 2532.38,-299.62"/>
</g>
<!-- or&#45;tools -->
<g id="node32" class="node">
<title>or&#45;tools</title>
<g id="a_node32"><a xlink:href="https://github.com/conda-forge/or-tools-feedstock" xlink:title="or tools">
<ellipse fill="#ff8c00" stroke="black" cx="2528.88" cy="-638" rx="49.1" ry="18"/>
<text text-anchor="middle" x="2528.88" y="-633.33" font-family="Times,serif" font-size="14.00">or tools</text>
</a>
</g>
</g>
<!-- protozfits&#45;&gt;or&#45;tools -->
<!-- bear -->
<g id="node33" class="node">
<title>bear</title>
<g id="a_node33"><a xlink:href="https://github.com/conda-forge/bear-feedstock/pull/52" xlink:title="bear ❎">
<ellipse fill="#31688e" stroke="black" cx="831.44" cy="-594" rx="49.1" ry="18"/>
<text text-anchor="middle" x="831.44" y="-589.33" font-family="Times,serif" font-size="14.00" fill="white">bear ❎</text>
</a>
</g>
</g>
<!-- cpp&#45;opentelemetry&#45;sdk -->
<g id="node34" class="node">
<title>cpp&#45;opentelemetry&#45;sdk</title>
<g id="a_node34"><a xlink:href="https://github.com/conda-forge/cpp-opentelemetry-sdk-feedstock" xlink:title="cpp opentelemetry sdk">
<ellipse fill="#000000" stroke="black" cx="831.44" cy="-522" rx="125.92" ry="18"/>
<text text-anchor="middle" x="831.44" y="-517.33" font-family="Times,serif" font-size="14.00" fill="white">cpp opentelemetry sdk</text>
</a>
</g>
</g>
<!-- bear&#45;&gt;cpp&#45;opentelemetry&#45;sdk -->
<!-- xilinx&#45;runtime -->
<g id="node35" class="node">
<title>xilinx&#45;runtime</title>
<g id="a_node35"><a xlink:href="https://github.com/conda-forge/xilinx-runtime-feedstock/pull/38" xlink:title="xilinx runtime ❎">
<ellipse fill="#31688e" stroke="black" cx="831.44" cy="-450" rx="96.98" ry="18"/>
<text text-anchor="middle" x="831.44" y="-445.32" font-family="Times,serif" font-size="14.00" fill="white">xilinx runtime ❎</text>
</a>
</g>
</g>
<!-- cpp&#45;opentelemetry&#45;sdk&#45;&gt;xilinx&#45;runtime -->
<!-- gnss&#45;sdr -->
<g id="node36" class="node">
<title>gnss&#45;sdr</title>
<g id="a_node36"><a xlink:href="https://github.com/conda-forge/gnss-sdr-feedstock/pull/30" xlink:title="gnss sdr ✓">
<ellipse fill="#31688e" stroke="black" cx="831.44" cy="-378" rx="61.73" ry="18"/>
<text text-anchor="middle" x="831.44" y="-373.32" font-family="Times,serif" font-size="14.00" fill="white">gnss sdr ✓</text>
</a>
</g>
</g>
<!-- xilinx&#45;runtime&#45;&gt;gnss&#45;sdr -->
<!-- gcld3 -->
<g id="node44" class="node">
<title>gcld3</title>
<g id="a_node44"><a xlink:href="https://github.com/conda-forge/gcld3-feedstock/pull/14" xlink:title="gcld3 ✓">
<ellipse fill="#31688e" stroke="black" cx="831.44" cy="-306" rx="46.47" ry="18"/>
<text text-anchor="middle" x="831.44" y="-301.32" font-family="Times,serif" font-size="14.00" fill="white">gcld3 ✓</text>
</a>
</g>
</g>
<!-- gnss&#45;sdr&#45;&gt;gcld3 -->
<!-- gz&#45;msgs -->
<g id="node37" class="node">
<title>gz&#45;msgs</title>
<g id="a_node37"><a xlink:href="https://github.com/conda-forge/gz-msgs-feedstock" xlink:title="gz msgs">
<ellipse fill="#000000" stroke="black" cx="2001.21" cy="-450" rx="52.26" ry="18"/>
<text text-anchor="middle" x="2001.21" y="-445.32" font-family="Times,serif" font-size="14.00" fill="white">gz msgs</text>
</a>
</g>
</g>
<!-- gz&#45;transport -->
<g id="node38" class="node">
<title>gz&#45;transport</title>
<g id="a_node38"><a xlink:href="https://github.com/conda-forge/gz-transport-feedstock" xlink:title="gz transport">
<ellipse fill="#fde725" stroke="black" cx="1951.21" cy="-378" rx="73.3" ry="18"/>
<text text-anchor="middle" x="1951.21" y="-373.32" font-family="Times,serif" font-size="14.00">gz transport</text>
</a>
</g>
</g>
<!-- gz&#45;msgs&#45;&gt;gz&#45;transport -->
<g id="edge35" class="edge">
<title>gz&#45;msgs&#45;&gt;gz&#45;transport</title>
<path fill="none" stroke="black" d="M1989.1,-432.05C1983.33,-423.97 1976.29,-414.12 1969.86,-405.11"/>
<polygon fill="black" stroke="black" points="1972.74,-403.12 1964.08,-397.02 1967.04,-407.19 1972.74,-403.12"/>
</g>
<!-- gz&#45;fuel&#45;tools -->
<g id="node39" class="node">
<title>gz&#45;fuel&#45;tools</title>
<g id="a_node39"><a xlink:href="https://github.com/conda-forge/gz-fuel-tools-feedstock" xlink:title="gz fuel tools">
<ellipse fill="#fde725" stroke="black" cx="2152.21" cy="-378" rx="72.25" ry="18"/>
<text text-anchor="middle" x="2152.21" y="-373.32" font-family="Times,serif" font-size="14.00">gz fuel tools</text>
</a>
</g>
</g>
<!-- gz&#45;msgs&#45;&gt;gz&#45;fuel&#45;tools -->
<g id="edge36" class="edge">
<title>gz&#45;msgs&#45;&gt;gz&#45;fuel&#45;tools</title>
<path fill="none" stroke="black" d="M2031.4,-435C2053.54,-424.74 2083.93,-410.65 2108.69,-399.17"/>
<polygon fill="black" stroke="black" points="2109.94,-402.45 2117.54,-395.07 2107,-396.1 2109.94,-402.45"/>
</g>
<!-- gz&#45;gui -->
<g id="node40" class="node">
<title>gz&#45;gui</title>
<g id="a_node40"><a xlink:href="https://github.com/conda-forge/gz-gui-feedstock" xlink:title="gz gui">
<ellipse fill="#fde725" stroke="black" cx="1860.21" cy="-306" rx="41.74" ry="18"/>
<text text-anchor="middle" x="1860.21" y="-301.32" font-family="Times,serif" font-size="14.00">gz gui</text>
</a>
</g>
</g>
<!-- gz&#45;msgs&#45;&gt;gz&#45;gui -->
<g id="edge37" class="edge">
<title>gz&#45;msgs&#45;&gt;gz&#45;gui</title>
<path fill="none" stroke="black" d="M1953.4,-442.38C1924.33,-435.73 1889.1,-422.45 1869.21,-396 1856.36,-378.92 1854.72,-354.47 1855.96,-335.53"/>
<polygon fill="black" stroke="black" points="1859.42,-336.08 1856.91,-325.78 1852.46,-335.39 1859.42,-336.08"/>
</g>
<!-- gz&#45;sensors -->
<g id="node41" class="node">
<title>gz&#45;sensors</title>
<g id="a_node41"><a xlink:href="https://github.com/conda-forge/gz-sensors-feedstock" xlink:title="gz sensors">
<ellipse fill="#fde725" stroke="black" cx="2060.21" cy="-306" rx="64.36" ry="18"/>
<text text-anchor="middle" x="2060.21" y="-301.32" font-family="Times,serif" font-size="14.00">gz sensors</text>
</a>
</g>
</g>
<!-- gz&#45;msgs&#45;&gt;gz&#45;sensors -->
<g id="edge38" class="edge">
<title>gz&#45;msgs&#45;&gt;gz&#45;sensors</title>
<path fill="none" stroke="black" d="M2012.7,-432.4C2019.36,-422.23 2027.52,-408.77 2033.21,-396 2041.95,-376.37 2048.89,-353.1 2053.55,-335.28"/>
<polygon fill="black" stroke="black" points="2056.93,-336.2 2055.97,-325.65 2050.14,-334.5 2056.93,-336.2"/>
</g>
<!-- gz&#45;sim -->
<g id="node42" class="node">
<title>gz&#45;sim</title>
<g id="a_node42"><a xlink:href="https://github.com/conda-forge/gz-sim-feedstock" xlink:title="gz sim">
<ellipse fill="#fde725" stroke="black" cx="2031.21" cy="-234" rx="43.84" ry="18"/>
<text text-anchor="middle" x="2031.21" y="-229.32" font-family="Times,serif" font-size="14.00">gz sim</text>
</a>
</g>
</g>
<!-- gz&#45;msgs&#45;&gt;gz&#45;sim -->
<g id="edge39" class="edge">
<title>gz&#45;msgs&#45;&gt;gz&#45;sim</title>
<path fill="none" stroke="black" d="M2051.53,-444.71C2112.81,-438.32 2210.93,-423.94 2233.21,-396 2285.97,-329.83 2151.16,-273.72 2076.66,-248.8"/>
<polygon fill="black" stroke="black" points="2078.17,-245.61 2067.58,-245.83 2075.99,-252.27 2078.17,-245.61"/>
</g>
<!-- gz&#45;launch -->
<g id="node43" class="node">
<title>gz&#45;launch</title>
<g id="a_node43"><a xlink:href="https://github.com/conda-forge/gz-launch-feedstock" xlink:title="gz launch">
<ellipse fill="#fde725" stroke="black" cx="1911.21" cy="-162" rx="59.1" ry="18"/>
<text text-anchor="middle" x="1911.21" y="-157.32" font-family="Times,serif" font-size="14.00">gz launch</text>
</a>
</g>
</g>
<!-- gz&#45;msgs&#45;&gt;gz&#45;launch -->
<g id="edge40" class="edge">
<title>gz&#45;msgs&#45;&gt;gz&#45;launch</title>
<path fill="none" stroke="black" d="M1955.12,-441.16C1923.4,-433.85 1881.82,-420.29 1852.21,-396 1823.39,-372.36 1819.12,-359.93 1809.21,-324 1794.08,-269.16 1845.28,-215.36 1880.54,-185.94"/>
<polygon fill="black" stroke="black" points="1882.36,-188.97 1887.93,-179.95 1877.96,-183.53 1882.36,-188.97"/>
</g>
<!-- gz&#45;transport&#45;&gt;gz&#45;gui -->
<g id="edge41" class="edge">
<title>gz&#45;transport&#45;&gt;gz&#45;gui</title>
<path fill="none" stroke="black" d="M1929.64,-360.41C1917.54,-351.11 1902.29,-339.38 1889.17,-329.28"/>
<polygon fill="black" stroke="black" points="1891.32,-326.52 1881.26,-323.2 1887.05,-332.07 1891.32,-326.52"/>
</g>
<!-- gz&#45;transport&#45;&gt;gz&#45;sensors -->
<g id="edge42" class="edge">
<title>gz&#45;transport&#45;&gt;gz&#45;sensors</title>
<path fill="none" stroke="black" d="M1976.49,-360.76C1991.17,-351.33 2009.88,-339.32 2025.88,-329.04"/>
<polygon fill="black" stroke="black" points="2027.64,-332.07 2034.16,-323.72 2023.86,-326.18 2027.64,-332.07"/>
</g>
<!-- gz&#45;transport&#45;&gt;gz&#45;sim -->
<g id="edge43" class="edge">
<title>gz&#45;transport&#45;&gt;gz&#45;sim</title>
<path fill="none" stroke="black" d="M1956.38,-359.87C1962.35,-341.39 1973.18,-311.46 1987.21,-288 1993.12,-278.1 2000.83,-268.13 2008.14,-259.55"/>
<polygon fill="black" stroke="black" points="2010.53,-262.13 2014.52,-252.32 2005.28,-257.5 2010.53,-262.13"/>
</g>
<!-- gz&#45;transport&#45;&gt;gz&#45;launch -->
<g id="edge44" class="edge">
<title>gz&#45;transport&#45;&gt;gz&#45;launch</title>
<path fill="none" stroke="black" d="M1948,-359.85C1941.14,-323.14 1924.97,-236.66 1916.54,-191.53"/>
<polygon fill="black" stroke="black" points="1919.98,-190.91 1914.71,-181.72 1913.1,-192.19 1919.98,-190.91"/>
</g>
<!-- gz&#45;fuel&#45;tools&#45;&gt;gz&#45;sim -->
<g id="edge45" class="edge">
<title>gz&#45;fuel&#45;tools&#45;&gt;gz&#45;sim</title>
<path fill="none" stroke="black" d="M2152.71,-359.82C2152.41,-340.47 2149.19,-308.99 2133.21,-288 2119.27,-269.7 2097.2,-257.13 2077.15,-248.85"/>
<polygon fill="black" stroke="black" points="2078.59,-245.65 2068,-245.33 2076.08,-252.19 2078.59,-245.65"/>
</g>
<!-- gz&#45;gui&#45;&gt;gz&#45;sim -->
<g id="edge46" class="edge">
<title>gz&#45;gui&#45;&gt;gz&#45;sim</title>
<path fill="none" stroke="black" d="M1889.6,-292.97C1917.45,-281.57 1959.51,-264.35 1990.56,-251.64"/>
<polygon fill="black" stroke="black" points="1991.72,-254.95 1999.64,-247.92 1989.06,-248.47 1991.72,-254.95"/>
</g>
<!-- gz&#45;gui&#45;&gt;gz&#45;launch -->
<g id="edge47" class="edge">
<title>gz&#45;gui&#45;&gt;gz&#45;launch</title>
<path fill="none" stroke="black" d="M1866.36,-287.87C1875.01,-263.78 1890.88,-219.6 1901.23,-190.77"/>
<polygon fill="black" stroke="black" points="1904.43,-192.21 1904.52,-181.61 1897.85,-189.84 1904.43,-192.21"/>
</g>
<!-- gz&#45;sensors&#45;&gt;gz&#45;sim -->
<g id="edge48" class="edge">
<title>gz&#45;sensors&#45;&gt;gz&#45;sim</title>
<path fill="none" stroke="black" d="M2053.04,-287.7C2049.91,-280.15 2046.17,-271.12 2042.67,-262.68"/>
<polygon fill="black" stroke="black" points="2045.93,-261.4 2038.87,-253.5 2039.47,-264.08 2045.93,-261.4"/>
</g>
<!-- gz&#45;sim&#45;&gt;gz&#45;launch -->
<g id="edge49" class="edge">
<title>gz&#45;sim&#45;&gt;gz&#45;launch</title>
<path fill="none" stroke="black" d="M2006.63,-218.67C1989.66,-208.77 1966.8,-195.43 1947.7,-184.29"/>
<polygon fill="black" stroke="black" points="1949.54,-181.31 1939.14,-179.29 1946.01,-187.36 1949.54,-181.31"/>
</g>
<!-- bloaty -->
<g id="node45" class="node">
<title>bloaty</title>
<g id="a_node45"><a xlink:href="https://github.com/conda-forge/bloaty-feedstock" xlink:title="bloaty">
<ellipse fill="#000000" stroke="black" cx="831.44" cy="-234" rx="42.26" ry="18"/>
<text text-anchor="middle" x="831.44" y="-229.32" font-family="Times,serif" font-size="14.00" fill="white">bloaty</text>
</a>
</g>
</g>
<!-- gcld3&#45;&gt;bloaty -->
<!-- gz&#45;sim&#45;yarp&#45;plugins -->
<g id="node50" class="node">
<title>gz&#45;sim&#45;yarp&#45;plugins</title>
<g id="a_node50"><a xlink:href="https://github.com/conda-forge/gz-sim-yarp-plugins-feedstock" xlink:title="gz sim yarp plugins">
<ellipse fill="#ff8c00" stroke="black" cx="831.44" cy="-162" rx="109.61" ry="18"/>
<text text-anchor="middle" x="831.44" y="-157.32" font-family="Times,serif" font-size="14.00">gz sim yarp plugins</text>
</a>
</g>
</g>
<!-- bloaty&#45;&gt;gz&#45;sim&#45;yarp&#45;plugins -->
<!-- google&#45;cloud&#45;cpp&#45;core -->
<g id="node46" class="node">
<title>google&#45;cloud&#45;cpp&#45;core</title>
<g id="a_node46"><a xlink:href="https://github.com/conda-forge/google-cloud-cpp-core-feedstock" xlink:title="google cloud cpp core">
<ellipse fill="#000000" stroke="black" cx="464.29" cy="-1142" rx="120.13" ry="18"/>
<text text-anchor="middle" x="464.29" y="-1137.33" font-family="Times,serif" font-size="14.00" fill="white">google cloud cpp core</text>
</a>
</g>
</g>
<!-- google&#45;cloud&#45;cpp&#45;core&#45;&gt;arrow&#45;cpp -->
<g id="edge52" class="edge">
<title>google&#45;cloud&#45;cpp&#45;core&#45;&gt;arrow&#45;cpp</title>
<path fill="none" stroke="black" d="M546.71,-1128.57C637.12,-1114.93 780.37,-1093.32 863.23,-1080.82"/>
<polygon fill="black" stroke="black" points="863.64,-1084.29 873.01,-1079.34 862.6,-1077.37 863.64,-1084.29"/>
</g>
<!-- google&#45;cloud&#45;cpp&#45;core&#45;&gt;google&#45;cloud&#45;cpp -->
<g id="edge53" class="edge">
<title>google&#45;cloud&#45;cpp&#45;core&#45;&gt;google&#45;cloud&#45;cpp</title>
<path fill="none" stroke="black" d="M370.55,-1130.46C262.49,-1112.72 89.6,-1065.89 10.29,-944 1.57,-930.59 0,-920.25 10.29,-908 35.55,-877.95 131.73,-864.93 209.04,-859.3"/>
<polygon fill="black" stroke="black" points="209.06,-862.8 218.79,-858.62 208.57,-855.82 209.06,-862.8"/>
</g>
<!-- google&#45;cloud&#45;cpp&#45;compute -->
<g id="node47" class="node">
<title>google&#45;cloud&#45;cpp&#45;compute</title>
<g id="a_node47"><a xlink:href="https://github.com/conda-forge/google-cloud-cpp-compute-feedstock" xlink:title="google cloud cpp compute">
<ellipse fill="#fde725" stroke="black" cx="161.29" cy="-926" rx="141.7" ry="18"/>
<text text-anchor="middle" x="161.29" y="-921.33" font-family="Times,serif" font-size="14.00">google cloud cpp compute</text>
</a>
</g>
</g>
<!-- google&#45;cloud&#45;cpp&#45;core&#45;&gt;google&#45;cloud&#45;cpp&#45;compute -->
<g id="edge54" class="edge">
<title>google&#45;cloud&#45;cpp&#45;core&#45;&gt;google&#45;cloud&#45;cpp&#45;compute</title>
<path fill="none" stroke="black" d="M440.26,-1124.03C386.45,-1086.02 256.17,-994.01 194.6,-950.52"/>
<polygon fill="black" stroke="black" points="196.75,-947.76 186.56,-944.85 192.71,-953.47 196.75,-947.76"/>
</g>
<!-- google&#45;cloud&#45;cpp&#45;bigquery -->
<g id="node48" class="node">
<title>google&#45;cloud&#45;cpp&#45;bigquery</title>
<g id="a_node48"><a xlink:href="https://github.com/conda-forge/google-cloud-cpp-bigquery-feedstock" xlink:title="google cloud cpp bigquery">
<ellipse fill="#fde725" stroke="black" cx="464.29" cy="-926" rx="143.28" ry="18"/>
<text text-anchor="middle" x="464.29" y="-921.33" font-family="Times,serif" font-size="14.00">google cloud cpp bigquery</text>
</a>
</g>
</g>
<!-- google&#45;cloud&#45;cpp&#45;core&#45;&gt;google&#45;cloud&#45;cpp&#45;bigquery -->
<g id="edge55" class="edge">
<title>google&#45;cloud&#45;cpp&#45;core&#45;&gt;google&#45;cloud&#45;cpp&#45;bigquery</title>
<path fill="none" stroke="black" d="M464.29,-1123.85C464.29,-1087.14 464.29,-1000.66 464.29,-955.53"/>
<polygon fill="black" stroke="black" points="467.79,-955.75 464.29,-945.75 460.79,-955.75 467.79,-955.75"/>
</g>
<!-- google&#45;cloud&#45;cpp&#45;ai -->
<g id="node49" class="node">
<title>google&#45;cloud&#45;cpp&#45;ai</title>
<g id="a_node49"><a xlink:href="https://github.com/conda-forge/google-cloud-cpp-ai-feedstock" xlink:title="google cloud cpp ai">
<ellipse fill="#fde725" stroke="black" cx="733.29" cy="-926" rx="107.5" ry="18"/>
<text text-anchor="middle" x="733.29" y="-921.33" font-family="Times,serif" font-size="14.00">google cloud cpp ai</text>
</a>
</g>
</g>
<!-- google&#45;cloud&#45;cpp&#45;core&#45;&gt;google&#45;cloud&#45;cpp&#45;ai -->
<g id="edge56" class="edge">
<title>google&#45;cloud&#45;cpp&#45;core&#45;&gt;google&#45;cloud&#45;cpp&#45;ai</title>
<path fill="none" stroke="black" d="M485.85,-1123.85C533.58,-1085.88 648.29,-994.63 703.11,-951.01"/>
<polygon fill="black" stroke="black" points="705.17,-953.84 710.82,-944.88 700.82,-948.36 705.17,-953.84"/>
</g>
<!-- google&#45;cloud&#45;cpp&#45;compute&#45;&gt;google&#45;cloud&#45;cpp -->
<g id="edge57" class="edge">
<title>google&#45;cloud&#45;cpp&#45;compute&#45;&gt;google&#45;cloud&#45;cpp</title>
<path fill="none" stroke="black" d="M197.7,-908.23C218.78,-898.53 245.49,-886.22 267.93,-875.89"/>
<polygon fill="black" stroke="black" points="269.23,-879.14 276.85,-871.78 266.31,-872.79 269.23,-879.14"/>
</g>
<!-- google&#45;cloud&#45;cpp&#45;bigquery&#45;&gt;google&#45;cloud&#45;cpp -->
<g id="edge58" class="edge">
<title>google&#45;cloud&#45;cpp&#45;bigquery&#45;&gt;google&#45;cloud&#45;cpp</title>
<path fill="none" stroke="black" d="M428.12,-908.23C407.19,-898.53 380.65,-886.22 358.36,-875.89"/>
<polygon fill="black" stroke="black" points="360.04,-872.82 349.5,-871.78 357.1,-879.17 360.04,-872.82"/>
</g>
<!-- google&#45;cloud&#45;cpp&#45;ai&#45;&gt;google&#45;cloud&#45;cpp -->
<g id="edge59" class="edge">
<title>google&#45;cloud&#45;cpp&#45;ai&#45;&gt;google&#45;cloud&#45;cpp</title>
<path fill="none" stroke="black" d="M659.17,-912.65C584.88,-900.26 470.82,-881.25 394.21,-868.49"/>
<polygon fill="black" stroke="black" points="395.12,-865.09 384.68,-866.9 393.96,-871.99 395.12,-865.09"/>
</g>
<!-- bfiocpp -->
<g id="node51" class="node">
<title>bfiocpp</title>
<g id="a_node51"><a xlink:href="https://github.com/conda-forge/bfiocpp-feedstock/pull/10" xlink:title="bfiocpp ✓">
<ellipse fill="#31688e" stroke="black" cx="831.44" cy="-90" rx="55.42" ry="18"/>
<text text-anchor="middle" x="831.44" y="-85.33" font-family="Times,serif" font-size="14.00" fill="white">bfiocpp ✓</text>
</a>
</g>
</g>
<!-- gz&#45;sim&#45;yarp&#45;plugins&#45;&gt;bfiocpp -->
<!-- mysqlx&#45;connector&#45;python -->
<g id="node52" class="node">
<title>mysqlx&#45;connector&#45;python</title>
<g id="a_node52"><a xlink:href="https://github.com/conda-forge/mysqlx-connector-python-feedstock/pull/9" xlink:title="mysqlx connector python ✓">
<ellipse fill="#31688e" stroke="black" cx="831.44" cy="-18" rx="145.38" ry="18"/>
<text text-anchor="middle" x="831.44" y="-13.32" font-family="Times,serif" font-size="14.00" fill="white">mysqlx connector python ✓</text>
</a>
</g>
</g>
<!-- bfiocpp&#45;&gt;mysqlx&#45;connector&#45;python -->
</g>
</svg>
