<?xml version="1.0" encoding="UTF-8" standalone="no"?>
<!DOCTYPE svg PUBLIC "-//W3C//DTD SVG 1.1//EN"
 "http://www.w3.org/Graphics/SVG/1.1/DTD/svg11.dtd">
<!-- Generated by graphviz version 12.0.0 (20240803.0821)
 -->
<!-- Pages: 1 -->
<svg width="1849pt" height="1096pt"
 viewBox="0.00 0.00 1848.97 1096.00" xmlns="http://www.w3.org/2000/svg" xmlns:xlink="http://www.w3.org/1999/xlink">
<g id="graph0" class="graph" transform="scale(1 1) rotate(0) translate(4 1092)">
<polygon fill="white" stroke="none" points="-4,4 -4,-1092 1844.97,-1092 1844.97,4 -4,4"/>
<!-- arrow&#45;cpp -->
<g id="node1" class="node">
<title>arrow&#45;cpp</title>
<g id="a_node1"><a xlink:href="https://github.com/conda-forge/arrow-cpp-feedstock" xlink:title="arrow cpp">
<ellipse fill="#fde725" stroke="black" cx="1032.5" cy="-782" rx="61.73" ry="18"/>
<text text-anchor="middle" x="1032.5" y="-777.33" font-family="Times,serif" font-size="14.00">arrow cpp</text>
</a>
</g>
</g>
<!-- ray&#45;packages -->
<g id="node2" class="node">
<title>ray&#45;packages</title>
<g id="a_node2"><a xlink:href="https://github.com/conda-forge/ray-packages-feedstock" xlink:title="ray packages">
<ellipse fill="#fde725" stroke="black" cx="1208.5" cy="-710" rx="76.99" ry="18"/>
<text text-anchor="middle" x="1208.5" y="-705.33" font-family="Times,serif" font-size="14.00">ray packages</text>
</a>
</g>
</g>
<!-- arrow&#45;cpp&#45;&gt;ray&#45;packages -->
<g id="edge1" class="edge">
<title>arrow&#45;cpp&#45;&gt;ray&#45;packages</title>
<path fill="none" stroke="black" d="M1068.12,-766.83C1094.6,-756.3 1131.03,-741.81 1160.14,-730.24"/>
<polygon fill="black" stroke="black" points="1161.1,-733.62 1169.1,-726.67 1158.51,-727.12 1161.1,-733.62"/>
</g>
<!-- datafusion -->
<g id="node3" class="node">
<title>datafusion</title>
<g id="a_node3"><a xlink:href="https://github.com/conda-forge/datafusion-feedstock" xlink:title="datafusion">
<ellipse fill="#fde725" stroke="black" cx="940.5" cy="-710" rx="63.84" ry="18"/>
<text text-anchor="middle" x="940.5" y="-705.33" font-family="Times,serif" font-size="14.00">datafusion</text>
</a>
</g>
</g>
<!-- arrow&#45;cpp&#45;&gt;datafusion -->
<g id="edge2" class="edge">
<title>arrow&#45;cpp&#45;&gt;datafusion</title>
<path fill="none" stroke="black" d="M1011.17,-764.76C999.29,-755.73 984.3,-744.33 971.19,-734.35"/>
<polygon fill="black" stroke="black" points="973.33,-731.58 963.25,-728.31 969.09,-737.15 973.33,-731.58"/>
</g>
<!-- arcticdb -->
<g id="node4" class="node">
<title>arcticdb</title>
<g id="a_node4"><a xlink:href="https://github.com/conda-forge/arcticdb-feedstock" xlink:title="arcticdb">
<ellipse fill="#fde725" stroke="black" cx="1023.5" cy="-638" rx="52.26" ry="18"/>
<text text-anchor="middle" x="1023.5" y="-633.33" font-family="Times,serif" font-size="14.00">arcticdb</text>
</a>
</g>
</g>
<!-- arrow&#45;cpp&#45;&gt;arcticdb -->
<g id="edge3" class="edge">
<title>arrow&#45;cpp&#45;&gt;arcticdb</title>
<path fill="none" stroke="black" d="M1031.4,-763.59C1029.88,-739.61 1027.12,-696.14 1025.3,-667.42"/>
<polygon fill="black" stroke="black" points="1028.81,-667.38 1024.68,-657.62 1021.82,-667.82 1028.81,-667.38"/>
</g>
<!-- csp -->
<g id="node5" class="node">
<title>csp</title>
<g id="a_node5"><a xlink:href="https://github.com/conda-forge/csp-feedstock" xlink:title="csp">
<ellipse fill="#fde725" stroke="black" cx="1103.5" cy="-566" rx="28.06" ry="18"/>
<text text-anchor="middle" x="1103.5" y="-561.33" font-family="Times,serif" font-size="14.00">csp</text>
</a>
</g>
</g>
<!-- arrow&#45;cpp&#45;&gt;csp -->
<g id="edge4" class="edge">
<title>arrow&#45;cpp&#45;&gt;csp</title>
<path fill="none" stroke="black" d="M1040.76,-763.98C1052,-740.27 1072.12,-695.72 1084.5,-656 1090.69,-636.15 1095.54,-613.18 1098.79,-595.55"/>
<polygon fill="black" stroke="black" points="1102.22,-596.25 1100.52,-585.79 1095.33,-595.03 1102.22,-596.25"/>
</g>
<!-- bazel -->
<g id="node6" class="node">
<title>bazel</title>
<g id="a_node6"><a xlink:href="https://github.com/conda-forge/bazel-feedstock/pull/247" xlink:title="bazel ❎">
<ellipse fill="#31688e" stroke="black" cx="1742.41" cy="-1070" rx="52.79" ry="18"/>
<text text-anchor="middle" x="1742.41" y="-1065.33" font-family="Times,serif" font-size="14.00" fill="white">bazel ❎</text>
</a>
</g>
</g>
<!-- mosh -->
<g id="node7" class="node">
<title>mosh</title>
<g id="a_node7"><a xlink:href="https://github.com/conda-forge/mosh-feedstock/pull/41" xlink:title="mosh ❎">
<ellipse fill="#31688e" stroke="black" cx="1742.41" cy="-998" rx="53.31" ry="18"/>
<text text-anchor="middle" x="1742.41" y="-993.33" font-family="Times,serif" font-size="14.00" fill="white">mosh ❎</text>
</a>
</g>
</g>
<!-- bazel&#45;&gt;mosh -->
<!-- mysql -->
<g id="node8" class="node">
<title>mysql</title>
<g id="a_node8"><a xlink:href="https://github.com/conda-forge/mysql-feedstock/pull/104" xlink:title="mysql ✓">
<ellipse fill="#31688e" stroke="black" cx="1742.41" cy="-926" rx="49.1" ry="18"/>
<text text-anchor="middle" x="1742.41" y="-921.33" font-family="Times,serif" font-size="14.00" fill="white">mysql ✓</text>
</a>
</g>
</g>
<!-- mosh&#45;&gt;mysql -->
<!-- paraview -->
<g id="node9" class="node">
<title>paraview</title>
<g id="a_node9"><a xlink:href="https://github.com/conda-forge/paraview-feedstock/pull/260" xlink:title="paraview ❎">
<ellipse fill="#31688e" stroke="black" cx="1742.41" cy="-854" rx="72.25" ry="18"/>
<text text-anchor="middle" x="1742.41" y="-849.33" font-family="Times,serif" font-size="14.00" fill="white">paraview ❎</text>
</a>
</g>
</g>
<!-- mysql&#45;&gt;paraview -->
<!-- qgis -->
<g id="node10" class="node">
<title>qgis</title>
<g id="a_node10"><a xlink:href="https://github.com/conda-forge/qgis-feedstock" xlink:title="qgis">
<ellipse fill="#ff8c00" stroke="black" cx="1742.41" cy="-782" rx="32.27" ry="18"/>
<text text-anchor="middle" x="1742.41" y="-777.33" font-family="Times,serif" font-size="14.00">qgis</text>
</a>
</g>
</g>
<!-- paraview&#45;&gt;qgis -->
<!-- tensorflow -->
<g id="node11" class="node">
<title>tensorflow</title>
<g id="a_node11"><a xlink:href="https://github.com/conda-forge/tensorflow-feedstock" xlink:title="tensorflow">
<ellipse fill="#000000" stroke="black" cx="1742.41" cy="-710" rx="63.84" ry="18"/>
<text text-anchor="middle" x="1742.41" y="-705.33" font-family="Times,serif" font-size="14.00" fill="white">tensorflow</text>
</a>
</g>
</g>
<!-- qgis&#45;&gt;tensorflow -->
<!-- r&#45;protolite -->
<g id="node12" class="node">
<title>r&#45;protolite</title>
<g id="a_node12"><a xlink:href="https://github.com/conda-forge/r-protolite-feedstock" xlink:title="r protolite">
<ellipse fill="#ff8c00" stroke="black" cx="1742.41" cy="-638" rx="62.26" ry="18"/>
<text text-anchor="middle" x="1742.41" y="-633.33" font-family="Times,serif" font-size="14.00">r protolite</text>
</a>
</g>
</g>
<!-- tensorflow&#45;&gt;r&#45;protolite -->
<!-- go&#45;cockroach -->
<g id="node13" class="node">
<title>go&#45;cockroach</title>
<g id="a_node13"><a xlink:href="https://github.com/conda-forge/go-cockroach-feedstock" xlink:title="go cockroach">
<ellipse fill="#ff8c00" stroke="black" cx="1742.41" cy="-566" rx="76.46" ry="18"/>
<text text-anchor="middle" x="1742.41" y="-561.33" font-family="Times,serif" font-size="14.00">go cockroach</text>
</a>
</g>
</g>
<!-- r&#45;protolite&#45;&gt;go&#45;cockroach -->
<!-- tomviz -->
<g id="node19" class="node">
<title>tomviz</title>
<g id="a_node19"><a xlink:href="https://github.com/conda-forge/tomviz-feedstock" xlink:title="tomviz">
<ellipse fill="#ff8c00" stroke="black" cx="1742.41" cy="-494" rx="44.9" ry="18"/>
<text text-anchor="middle" x="1742.41" y="-489.32" font-family="Times,serif" font-size="14.00">tomviz</text>
</a>
</g>
</g>
<!-- go&#45;cockroach&#45;&gt;tomviz -->
<!-- pytorch&#45;cpu -->
<g id="node14" class="node">
<title>pytorch&#45;cpu</title>
<g id="a_node14"><a xlink:href="https://github.com/conda-forge/pytorch-cpu-feedstock" xlink:title="pytorch cpu">
<ellipse fill="#000000" stroke="black" cx="1199.5" cy="-782" rx="70.68" ry="18"/>
<text text-anchor="middle" x="1199.5" y="-777.33" font-family="Times,serif" font-size="14.00" fill="white">pytorch cpu</text>
</a>
</g>
</g>
<!-- pytorch&#45;cpu&#45;&gt;ray&#45;packages -->
<g id="edge12" class="edge">
<title>pytorch&#45;cpu&#45;&gt;ray&#45;packages</title>
<path fill="none" stroke="black" d="M1201.73,-763.7C1202.68,-756.32 1203.81,-747.52 1204.87,-739.25"/>
<polygon fill="black" stroke="black" points="1208.31,-739.97 1206.11,-729.61 1201.36,-739.08 1208.31,-739.97"/>
</g>
<!-- jaxlib -->
<g id="node15" class="node">
<title>jaxlib</title>
<g id="a_node15"><a xlink:href="https://github.com/conda-forge/jaxlib-feedstock" xlink:title="jaxlib">
<ellipse fill="#ff8c00" stroke="black" cx="1298.5" cy="-854" rx="38.58" ry="18"/>
<text text-anchor="middle" x="1298.5" y="-849.33" font-family="Times,serif" font-size="14.00">jaxlib</text>
</a>
</g>
</g>
<!-- jaxlib&#45;&gt;ray&#45;packages -->
<g id="edge13" class="edge">
<title>jaxlib&#45;&gt;ray&#45;packages</title>
<path fill="none" stroke="black" d="M1298.34,-835.58C1297.4,-816.58 1293.57,-785.95 1279.5,-764 1271.64,-751.74 1259.89,-741.3 1248.19,-733"/>
<polygon fill="black" stroke="black" points="1250.42,-730.29 1240.15,-727.66 1246.54,-736.11 1250.42,-730.29"/>
</g>
<!-- gazebo -->
<g id="node16" class="node">
<title>gazebo</title>
<g id="a_node16"><a xlink:href="https://github.com/conda-forge/gazebo-feedstock" xlink:title="gazebo">
<ellipse fill="#ff8c00" stroke="black" cx="1490.47" cy="-198" rx="46.47" ry="18"/>
<text text-anchor="middle" x="1490.47" y="-193.32" font-family="Times,serif" font-size="14.00">gazebo</text>
</a>
</g>
</g>
<!-- gazebo&#45;yarp&#45;plugins -->
<g id="node17" class="node">
<title>gazebo&#45;yarp&#45;plugins</title>
<g id="a_node17"><a xlink:href="https://github.com/conda-forge/gazebo-yarp-plugins-feedstock" xlink:title="gazebo yarp plugins">
<ellipse fill="#fde725" stroke="black" cx="1490.47" cy="-126" rx="112.24" ry="18"/>
<text text-anchor="middle" x="1490.47" y="-121.33" font-family="Times,serif" font-size="14.00">gazebo yarp plugins</text>
</a>
</g>
</g>
<!-- gazebo&#45;&gt;gazebo&#45;yarp&#45;plugins -->
<g id="edge14" class="edge">
<title>gazebo&#45;&gt;gazebo&#45;yarp&#45;plugins</title>
<path fill="none" stroke="black" d="M1490.47,-179.7C1490.47,-172.41 1490.47,-163.73 1490.47,-155.54"/>
<polygon fill="black" stroke="black" points="1493.97,-155.62 1490.47,-145.62 1486.97,-155.62 1493.97,-155.62"/>
</g>
<!-- google&#45;cloud&#45;cpp -->
<g id="node18" class="node">
<title>google&#45;cloud&#45;cpp</title>
<g id="a_node18"><a xlink:href="https://github.com/conda-forge/google-cloud-cpp-feedstock" xlink:title="google cloud cpp">
<ellipse fill="#fde725" stroke="black" cx="459.5" cy="-566" rx="95.4" ry="18"/>
<text text-anchor="middle" x="459.5" y="-561.33" font-family="Times,serif" font-size="14.00">google cloud cpp</text>
</a>
</g>
</g>
<!-- protozfits -->
<g id="node20" class="node">
<title>protozfits</title>
<g id="a_node20"><a xlink:href="https://github.com/conda-forge/protozfits-feedstock" xlink:title="protozfits">
<ellipse fill="#000000" stroke="black" cx="1742.41" cy="-422" rx="59.1" ry="18"/>
<text text-anchor="middle" x="1742.41" y="-417.32" font-family="Times,serif" font-size="14.00" fill="white">protozfits</text>
</a>
</g>
</g>
<!-- tomviz&#45;&gt;protozfits -->
<!-- libignition&#45;launch -->
<g id="node21" class="node">
<title>libignition&#45;launch</title>
<g id="a_node21"><a xlink:href="https://github.com/conda-forge/libignition-launch-feedstock" xlink:title="libignition launch">
<ellipse fill="#ff8c00" stroke="black" cx="1742.41" cy="-350" rx="98.56" ry="18"/>
<text text-anchor="middle" x="1742.41" y="-345.32" font-family="Times,serif" font-size="14.00">libignition launch</text>
</a>
</g>
</g>
<!-- protozfits&#45;&gt;libignition&#45;launch -->
<!-- or&#45;tools -->
<g id="node22" class="node">
<title>or&#45;tools</title>
<g id="a_node22"><a xlink:href="https://github.com/conda-forge/or-tools-feedstock" xlink:title="or tools">
<ellipse fill="#ff8c00" stroke="black" cx="1490.47" cy="-1034" rx="49.1" ry="18"/>
<text text-anchor="middle" x="1490.47" y="-1029.33" font-family="Times,serif" font-size="14.00">or tools</text>
</a>
</g>
</g>
<!-- bear -->
<g id="node23" class="node">
<title>bear</title>
<g id="a_node23"><a xlink:href="https://github.com/conda-forge/bear-feedstock/pull/52" xlink:title="bear ❎">
<ellipse fill="#31688e" stroke="black" cx="1490.47" cy="-962" rx="49.1" ry="18"/>
<text text-anchor="middle" x="1490.47" y="-957.33" font-family="Times,serif" font-size="14.00" fill="white">bear ❎</text>
</a>
</g>
</g>
<!-- or&#45;tools&#45;&gt;bear -->
<!-- xilinx&#45;runtime -->
<g id="node24" class="node">
<title>xilinx&#45;runtime</title>
<g id="a_node24"><a xlink:href="https://github.com/conda-forge/xilinx-runtime-feedstock/pull/38" xlink:title="xilinx runtime ❎">
<ellipse fill="#31688e" stroke="black" cx="1490.47" cy="-890" rx="96.98" ry="18"/>
<text text-anchor="middle" x="1490.47" y="-885.33" font-family="Times,serif" font-size="14.00" fill="white">xilinx runtime ❎</text>
</a>
</g>
</g>
<!-- bear&#45;&gt;xilinx&#45;runtime -->
<!-- gcld3 -->
<g id="node25" class="node">
<title>gcld3</title>
<g id="a_node25"><a xlink:href="https://github.com/conda-forge/gcld3-feedstock/pull/14" xlink:title="gcld3 ✓">
<ellipse fill="#31688e" stroke="black" cx="1490.47" cy="-818" rx="46.47" ry="18"/>
<text text-anchor="middle" x="1490.47" y="-813.33" font-family="Times,serif" font-size="14.00" fill="white">gcld3 ✓</text>
</a>
</g>
</g>
<!-- xilinx&#45;runtime&#45;&gt;gcld3 -->
<!-- openvino&#45;tokenizers -->
<g id="node33" class="node">
<title>openvino&#45;tokenizers</title>
<g id="a_node33"><a xlink:href="https://github.com/conda-forge/openvino-tokenizers-feedstock" xlink:title="openvino tokenizers">
<ellipse fill="#ff8c00" stroke="black" cx="1490.47" cy="-746" rx="111.71" ry="18"/>
<text text-anchor="middle" x="1490.47" y="-741.33" font-family="Times,serif" font-size="14.00">openvino tokenizers</text>
</a>
</g>
</g>
<!-- gcld3&#45;&gt;openvino&#45;tokenizers -->
<!-- gz&#45;msgs -->
<g id="node26" class="node">
<title>gz&#45;msgs</title>
<g id="a_node26"><a xlink:href="https://github.com/conda-forge/gz-msgs-feedstock" xlink:title="gz msgs">
<ellipse fill="#000000" stroke="black" cx="629.73" cy="-306" rx="52.26" ry="18"/>
<text text-anchor="middle" x="629.73" y="-301.32" font-family="Times,serif" font-size="14.00" fill="white">gz msgs</text>
</a>
</g>
</g>
<!-- gz&#45;transport -->
<g id="node27" class="node">
<title>gz&#45;transport</title>
<g id="a_node27"><a xlink:href="https://github.com/conda-forge/gz-transport-feedstock" xlink:title="gz transport">
<ellipse fill="#fde725" stroke="black" cx="579.73" cy="-234" rx="73.3" ry="18"/>
<text text-anchor="middle" x="579.73" y="-229.32" font-family="Times,serif" font-size="14.00">gz transport</text>
</a>
</g>
</g>
<!-- gz&#45;msgs&#45;&gt;gz&#45;transport -->
<g id="edge21" class="edge">
<title>gz&#45;msgs&#45;&gt;gz&#45;transport</title>
<path fill="none" stroke="black" d="M617.62,-288.05C611.85,-279.97 604.81,-270.12 598.38,-261.11"/>
<polygon fill="black" stroke="black" points="601.26,-259.12 592.6,-253.02 595.56,-263.19 601.26,-259.12"/>
</g>
<!-- gz&#45;fuel&#45;tools -->
<g id="node28" class="node">
<title>gz&#45;fuel&#45;tools</title>
<g id="a_node28"><a xlink:href="https://github.com/conda-forge/gz-fuel-tools-feedstock" xlink:title="gz fuel tools">
<ellipse fill="#fde725" stroke="black" cx="780.73" cy="-234" rx="72.25" ry="18"/>
<text text-anchor="middle" x="780.73" y="-229.32" font-family="Times,serif" font-size="14.00">gz fuel tools</text>
</a>
</g>
</g>
<!-- gz&#45;msgs&#45;&gt;gz&#45;fuel&#45;tools -->
<g id="edge22" class="edge">
<title>gz&#45;msgs&#45;&gt;gz&#45;fuel&#45;tools</title>
<path fill="none" stroke="black" d="M659.92,-291C682.06,-280.74 712.45,-266.65 737.21,-255.17"/>
<polygon fill="black" stroke="black" points="738.46,-258.45 746.06,-251.07 735.52,-252.1 738.46,-258.45"/>
</g>
<!-- gz&#45;gui -->
<g id="node29" class="node">
<title>gz&#45;gui</title>
<g id="a_node29"><a xlink:href="https://github.com/conda-forge/gz-gui-feedstock" xlink:title="gz gui">
<ellipse fill="#fde725" stroke="black" cx="488.73" cy="-162" rx="41.74" ry="18"/>
<text text-anchor="middle" x="488.73" y="-157.32" font-family="Times,serif" font-size="14.00">gz gui</text>
</a>
</g>
</g>
<!-- gz&#45;msgs&#45;&gt;gz&#45;gui -->
<g id="edge23" class="edge">
<title>gz&#45;msgs&#45;&gt;gz&#45;gui</title>
<path fill="none" stroke="black" d="M581.92,-298.38C552.85,-291.73 517.62,-278.45 497.73,-252 484.88,-234.92 483.24,-210.47 484.48,-191.53"/>
<polygon fill="black" stroke="black" points="487.94,-192.08 485.43,-181.78 480.98,-191.39 487.94,-192.08"/>
</g>
<!-- gz&#45;sensors -->
<g id="node30" class="node">
<title>gz&#45;sensors</title>
<g id="a_node30"><a xlink:href="https://github.com/conda-forge/gz-sensors-feedstock" xlink:title="gz sensors">
<ellipse fill="#fde725" stroke="black" cx="688.73" cy="-162" rx="64.36" ry="18"/>
<text text-anchor="middle" x="688.73" y="-157.32" font-family="Times,serif" font-size="14.00">gz sensors</text>
</a>
</g>
</g>
<!-- gz&#45;msgs&#45;&gt;gz&#45;sensors -->
<g id="edge24" class="edge">
<title>gz&#45;msgs&#45;&gt;gz&#45;sensors</title>
<path fill="none" stroke="black" d="M641.22,-288.4C647.88,-278.23 656.04,-264.77 661.73,-252 670.47,-232.37 677.42,-209.1 682.07,-191.28"/>
<polygon fill="black" stroke="black" points="685.45,-192.2 684.49,-181.65 678.66,-190.5 685.45,-192.2"/>
</g>
<!-- gz&#45;sim -->
<g id="node31" class="node">
<title>gz&#45;sim</title>
<g id="a_node31"><a xlink:href="https://github.com/conda-forge/gz-sim-feedstock" xlink:title="gz sim">
<ellipse fill="#fde725" stroke="black" cx="659.73" cy="-90" rx="43.84" ry="18"/>
<text text-anchor="middle" x="659.73" y="-85.33" font-family="Times,serif" font-size="14.00">gz sim</text>
</a>
</g>
</g>
<!-- gz&#45;msgs&#45;&gt;gz&#45;sim -->
<g id="edge25" class="edge">
<title>gz&#45;msgs&#45;&gt;gz&#45;sim</title>
<path fill="none" stroke="black" d="M680.05,-300.71C741.33,-294.32 839.45,-279.94 861.73,-252 914.49,-185.83 779.69,-129.72 705.18,-104.8"/>
<polygon fill="black" stroke="black" points="706.69,-101.61 696.1,-101.83 704.51,-108.27 706.69,-101.61"/>
</g>
<!-- gz&#45;launch -->
<g id="node32" class="node">
<title>gz&#45;launch</title>
<g id="a_node32"><a xlink:href="https://github.com/conda-forge/gz-launch-feedstock" xlink:title="gz launch">
<ellipse fill="#fde725" stroke="black" cx="539.73" cy="-18" rx="59.1" ry="18"/>
<text text-anchor="middle" x="539.73" y="-13.32" font-family="Times,serif" font-size="14.00">gz launch</text>
</a>
</g>
</g>
<!-- gz&#45;msgs&#45;&gt;gz&#45;launch -->
<g id="edge26" class="edge">
<title>gz&#45;msgs&#45;&gt;gz&#45;launch</title>
<path fill="none" stroke="black" d="M583.64,-297.16C551.92,-289.85 510.34,-276.29 480.73,-252 451.91,-228.36 447.64,-215.93 437.73,-180 422.6,-125.16 473.8,-71.36 509.06,-41.94"/>
<polygon fill="black" stroke="black" points="510.88,-44.97 516.45,-35.95 506.48,-39.53 510.88,-44.97"/>
</g>
<!-- gz&#45;transport&#45;&gt;gz&#45;gui -->
<g id="edge27" class="edge">
<title>gz&#45;transport&#45;&gt;gz&#45;gui</title>
<path fill="none" stroke="black" d="M558.16,-216.41C546.07,-207.11 530.81,-195.38 517.69,-185.28"/>
<polygon fill="black" stroke="black" points="519.84,-182.52 509.78,-179.2 515.57,-188.07 519.84,-182.52"/>
</g>
<!-- gz&#45;transport&#45;&gt;gz&#45;sensors -->
<g id="edge28" class="edge">
<title>gz&#45;transport&#45;&gt;gz&#45;sensors</title>
<path fill="none" stroke="black" d="M605.01,-216.76C619.69,-207.33 638.4,-195.32 654.4,-185.04"/>
<polygon fill="black" stroke="black" points="656.16,-188.07 662.69,-179.72 652.38,-182.18 656.16,-188.07"/>
</g>
<!-- gz&#45;transport&#45;&gt;gz&#45;sim -->
<g id="edge29" class="edge">
<title>gz&#45;transport&#45;&gt;gz&#45;sim</title>
<path fill="none" stroke="black" d="M584.9,-215.87C590.87,-197.39 601.7,-167.46 615.73,-144 621.65,-134.1 629.35,-124.13 636.66,-115.55"/>
<polygon fill="black" stroke="black" points="639.05,-118.13 643.04,-108.32 633.8,-113.5 639.05,-118.13"/>
</g>
<!-- gz&#45;transport&#45;&gt;gz&#45;launch -->
<g id="edge30" class="edge">
<title>gz&#45;transport&#45;&gt;gz&#45;launch</title>
<path fill="none" stroke="black" d="M576.52,-215.85C569.66,-179.14 553.49,-92.66 545.06,-47.53"/>
<polygon fill="black" stroke="black" points="548.5,-46.91 543.23,-37.72 541.62,-48.19 548.5,-46.91"/>
</g>
<!-- gz&#45;fuel&#45;tools&#45;&gt;gz&#45;sim -->
<g id="edge31" class="edge">
<title>gz&#45;fuel&#45;tools&#45;&gt;gz&#45;sim</title>
<path fill="none" stroke="black" d="M781.23,-215.82C780.93,-196.47 777.71,-164.99 761.73,-144 747.79,-125.7 725.72,-113.13 705.67,-104.85"/>
<polygon fill="black" stroke="black" points="707.11,-101.65 696.52,-101.33 704.6,-108.19 707.11,-101.65"/>
</g>
<!-- gz&#45;gui&#45;&gt;gz&#45;sim -->
<g id="edge32" class="edge">
<title>gz&#45;gui&#45;&gt;gz&#45;sim</title>
<path fill="none" stroke="black" d="M518.12,-148.97C545.97,-137.57 588.03,-120.35 619.08,-107.64"/>
<polygon fill="black" stroke="black" points="620.24,-110.95 628.17,-103.92 617.58,-104.47 620.24,-110.95"/>
</g>
<!-- gz&#45;gui&#45;&gt;gz&#45;launch -->
<g id="edge33" class="edge">
<title>gz&#45;gui&#45;&gt;gz&#45;launch</title>
<path fill="none" stroke="black" d="M494.88,-143.87C503.53,-119.78 519.4,-75.6 529.75,-46.77"/>
<polygon fill="black" stroke="black" points="532.96,-48.21 533.04,-37.61 526.37,-45.84 532.96,-48.21"/>
</g>
<!-- gz&#45;sensors&#45;&gt;gz&#45;sim -->
<g id="edge34" class="edge">
<title>gz&#45;sensors&#45;&gt;gz&#45;sim</title>
<path fill="none" stroke="black" d="M681.56,-143.7C678.43,-136.15 674.69,-127.12 671.19,-118.68"/>
<polygon fill="black" stroke="black" points="674.45,-117.4 667.39,-109.5 667.99,-120.08 674.45,-117.4"/>
</g>
<!-- gz&#45;sim&#45;&gt;gz&#45;launch -->
<g id="edge35" class="edge">
<title>gz&#45;sim&#45;&gt;gz&#45;launch</title>
<path fill="none" stroke="black" d="M635.15,-74.67C618.18,-64.77 595.32,-51.43 576.22,-40.29"/>
<polygon fill="black" stroke="black" points="578.06,-37.31 567.66,-35.29 574.53,-43.36 578.06,-37.31"/>
</g>
<!-- bloaty -->
<g id="node34" class="node">
<title>bloaty</title>
<g id="a_node34"><a xlink:href="https://github.com/conda-forge/bloaty-feedstock/pull/5" xlink:title="bloaty ✓">
<ellipse fill="#31688e" stroke="black" cx="1490.47" cy="-674" rx="50.16" ry="18"/>
<text text-anchor="middle" x="1490.47" y="-669.33" font-family="Times,serif" font-size="14.00" fill="white">bloaty ✓</text>
</a>
</g>
</g>
<!-- openvino&#45;tokenizers&#45;&gt;bloaty -->
<!-- gz&#45;sim&#45;yarp&#45;plugins -->
<g id="node39" class="node">
<title>gz&#45;sim&#45;yarp&#45;plugins</title>
<g id="a_node39"><a xlink:href="https://github.com/conda-forge/gz-sim-yarp-plugins-feedstock" xlink:title="gz sim yarp plugins">
<ellipse fill="#ff8c00" stroke="black" cx="1490.47" cy="-602" rx="109.61" ry="18"/>
<text text-anchor="middle" x="1490.47" y="-597.33" font-family="Times,serif" font-size="14.00">gz sim yarp plugins</text>
</a>
</g>
</g>
<!-- bloaty&#45;&gt;gz&#45;sim&#45;yarp&#45;plugins -->
<!-- google&#45;cloud&#45;cpp&#45;core -->
<g id="node35" class="node">
<title>google&#45;cloud&#45;cpp&#45;core</title>
<g id="a_node35"><a xlink:href="https://github.com/conda-forge/google-cloud-cpp-core-feedstock/pull/25" xlink:title="google cloud cpp core ❎">
<ellipse fill="#31688e" stroke="black" cx="544.5" cy="-854" rx="135.39" ry="18"/>
<text text-anchor="middle" x="544.5" y="-849.33" font-family="Times,serif" font-size="14.00" fill="white">google cloud cpp core ❎</text>
</a>
</g>
</g>
<!-- google&#45;cloud&#45;cpp&#45;core&#45;&gt;arrow&#45;cpp -->
<g id="edge38" class="edge">
<title>google&#45;cloud&#45;cpp&#45;core&#45;&gt;arrow&#45;cpp</title>
<path fill="none" stroke="black" d="M634.29,-840.12C730.59,-826.31 881.17,-804.71 966.92,-792.41"/>
<polygon fill="black" stroke="black" points="967.17,-795.91 976.57,-791.02 966.17,-788.98 967.17,-795.91"/>
</g>
<!-- google&#45;cloud&#45;cpp&#45;core&#45;&gt;google&#45;cloud&#45;cpp -->
<g id="edge39" class="edge">
<title>google&#45;cloud&#45;cpp&#45;core&#45;&gt;google&#45;cloud&#45;cpp</title>
<path fill="none" stroke="black" d="M547.5,-835.64C553.59,-795.11 563.83,-692.24 525.5,-620 519.27,-608.25 509.2,-598.19 498.78,-590.08"/>
<polygon fill="black" stroke="black" points="501,-587.37 490.85,-584.36 496.91,-593.05 501,-587.37"/>
</g>
<!-- google&#45;cloud&#45;cpp&#45;compute -->
<g id="node36" class="node">
<title>google&#45;cloud&#45;cpp&#45;compute</title>
<g id="a_node36"><a xlink:href="https://github.com/conda-forge/google-cloud-cpp-compute-feedstock" xlink:title="google cloud cpp compute">
<ellipse fill="#fde725" stroke="black" cx="374.5" cy="-638" rx="141.7" ry="18"/>
<text text-anchor="middle" x="374.5" y="-633.33" font-family="Times,serif" font-size="14.00">google cloud cpp compute</text>
</a>
</g>
</g>
<!-- google&#45;cloud&#45;cpp&#45;core&#45;&gt;google&#45;cloud&#45;cpp&#45;compute -->
<g id="edge40" class="edge">
<title>google&#45;cloud&#45;cpp&#45;core&#45;&gt;google&#45;cloud&#45;cpp&#45;compute</title>
<path fill="none" stroke="black" d="M530.88,-835.85C501.16,-798.44 430.37,-709.32 395.14,-664.98"/>
<polygon fill="black" stroke="black" points="398.09,-663.07 389.13,-657.42 392.61,-667.42 398.09,-663.07"/>
</g>
<!-- google&#45;cloud&#45;cpp&#45;bigquery -->
<g id="node37" class="node">
<title>google&#45;cloud&#45;cpp&#45;bigquery</title>
<g id="a_node37"><a xlink:href="https://github.com/conda-forge/google-cloud-cpp-bigquery-feedstock" xlink:title="google cloud cpp bigquery">
<ellipse fill="#fde725" stroke="black" cx="715.5" cy="-710" rx="143.28" ry="18"/>
<text text-anchor="middle" x="715.5" y="-705.33" font-family="Times,serif" font-size="14.00">google cloud cpp bigquery</text>
</a>
</g>
</g>
<!-- google&#45;cloud&#45;cpp&#45;core&#45;&gt;google&#45;cloud&#45;cpp&#45;bigquery -->
<g id="edge41" class="edge">
<title>google&#45;cloud&#45;cpp&#45;core&#45;&gt;google&#45;cloud&#45;cpp&#45;bigquery</title>
<path fill="none" stroke="black" d="M565.13,-835.87C595.3,-810.82 651.62,-764.05 686.11,-735.41"/>
<polygon fill="black" stroke="black" points="688.18,-738.24 693.64,-729.16 683.71,-732.85 688.18,-738.24"/>
</g>
<!-- google&#45;cloud&#45;cpp&#45;ai -->
<g id="node38" class="node">
<title>google&#45;cloud&#45;cpp&#45;ai</title>
<g id="a_node38"><a xlink:href="https://github.com/conda-forge/google-cloud-cpp-ai-feedstock" xlink:title="google cloud cpp ai">
<ellipse fill="#fde725" stroke="black" cx="107.5" cy="-638" rx="107.5" ry="18"/>
<text text-anchor="middle" x="107.5" y="-633.33" font-family="Times,serif" font-size="14.00">google cloud cpp ai</text>
</a>
</g>
</g>
<!-- google&#45;cloud&#45;cpp&#45;core&#45;&gt;google&#45;cloud&#45;cpp&#45;ai -->
<g id="edge42" class="edge">
<title>google&#45;cloud&#45;cpp&#45;core&#45;&gt;google&#45;cloud&#45;cpp&#45;ai</title>
<path fill="none" stroke="black" d="M510.21,-836.21C431.62,-797.72 238.54,-703.17 151.42,-660.51"/>
<polygon fill="black" stroke="black" points="153.21,-657.49 142.69,-656.23 150.13,-663.77 153.21,-657.49"/>
</g>
<!-- google&#45;cloud&#45;cpp&#45;compute&#45;&gt;google&#45;cloud&#45;cpp -->
<g id="edge43" class="edge">
<title>google&#45;cloud&#45;cpp&#45;compute&#45;&gt;google&#45;cloud&#45;cpp</title>
<path fill="none" stroke="black" d="M395.08,-620.05C405.55,-611.43 418.46,-600.8 429.97,-591.32"/>
<polygon fill="black" stroke="black" points="432.16,-594.05 437.65,-584.99 427.71,-588.65 432.16,-594.05"/>
</g>
<!-- google&#45;cloud&#45;cpp&#45;bigquery&#45;&gt;google&#45;cloud&#45;cpp -->
<g id="edge44" class="edge">
<title>google&#45;cloud&#45;cpp&#45;bigquery&#45;&gt;google&#45;cloud&#45;cpp</title>
<path fill="none" stroke="black" d="M686.11,-692.06C654.65,-673.99 603.23,-644.65 558.5,-620 539.52,-609.54 518.35,-598.17 500.48,-588.65"/>
<polygon fill="black" stroke="black" points="502.19,-585.59 491.71,-583.99 498.9,-591.78 502.19,-585.59"/>
</g>
<!-- google&#45;cloud&#45;cpp&#45;ai&#45;&gt;google&#45;cloud&#45;cpp -->
<g id="edge45" class="edge">
<title>google&#45;cloud&#45;cpp&#45;ai&#45;&gt;google&#45;cloud&#45;cpp</title>
<path fill="none" stroke="black" d="M174.96,-623.59C234.81,-611.68 322.15,-594.31 384.25,-581.96"/>
<polygon fill="black" stroke="black" points="384.93,-585.4 394.06,-580.02 383.57,-578.53 384.93,-585.4"/>
</g>
<!-- bfiocpp -->
<g id="node40" class="node">
<title>bfiocpp</title>
<g id="a_node40"><a xlink:href="https://github.com/conda-forge/bfiocpp-feedstock/pull/10" xlink:title="bfiocpp ✓">
<ellipse fill="#31688e" stroke="black" cx="1490.47" cy="-530" rx="55.42" ry="18"/>
<text text-anchor="middle" x="1490.47" y="-525.33" font-family="Times,serif" font-size="14.00" fill="white">bfiocpp ✓</text>
</a>
</g>
</g>
<!-- gz&#45;sim&#45;yarp&#45;plugins&#45;&gt;bfiocpp -->
<!-- mysqlx&#45;connector&#45;python -->
<g id="node41" class="node">
<title>mysqlx&#45;connector&#45;python</title>
<g id="a_node41"><a xlink:href="https://github.com/conda-forge/mysqlx-connector-python-feedstock/pull/9" xlink:title="mysqlx connector python ✓">
<ellipse fill="#31688e" stroke="black" cx="1490.47" cy="-458" rx="145.38" ry="18"/>
<text text-anchor="middle" x="1490.47" y="-453.32" font-family="Times,serif" font-size="14.00" fill="white">mysqlx connector python ✓</text>
</a>
</g>
</g>
<!-- bfiocpp&#45;&gt;mysqlx&#45;connector&#45;python -->
<!-- nvidia&#45;dali&#45;python -->
<g id="node42" class="node">
<title>nvidia&#45;dali&#45;python</title>
<g id="a_node42"><a xlink:href="https://github.com/conda-forge/nvidia-dali-python-feedstock/pull/11" xlink:title="nvidia dali python ✓">
<ellipse fill="#31688e" stroke="black" cx="1490.47" cy="-386" rx="109.08" ry="18"/>
<text text-anchor="middle" x="1490.47" y="-381.32" font-family="Times,serif" font-size="14.00" fill="white">nvidia dali python ✓</text>
</a>
</g>
</g>
<!-- mysqlx&#45;connector&#45;python&#45;&gt;nvidia&#45;dali&#45;python -->
</g>
</svg>
