<?xml version="1.0" encoding="UTF-8" standalone="no"?>
<!DOCTYPE svg PUBLIC "-//W3C//DTD SVG 1.1//EN"
 "http://www.w3.org/Graphics/SVG/1.1/DTD/svg11.dtd">
<!-- Generated by graphviz version 12.0.0 (20240803.0821)
 -->
<!-- Pages: 1 -->
<svg width="2603pt" height="1384pt"
 viewBox="0.00 0.00 2603.24 1384.00" xmlns="http://www.w3.org/2000/svg" xmlns:xlink="http://www.w3.org/1999/xlink">
<g id="graph0" class="graph" transform="scale(1 1) rotate(0) translate(4 1380)">
<polygon fill="white" stroke="none" points="-4,4 -4,-1380 2599.24,-1380 2599.24,4 -4,4"/>
<!-- arrow&#45;cpp -->
<g id="node1" class="node">
<title>arrow&#45;cpp</title>
<g id="a_node1"><a xlink:href="https://github.com/conda-forge/arrow-cpp-feedstock" xlink:title="arrow cpp">
<ellipse fill="#fde725" stroke="black" cx="953.7" cy="-1070" rx="61.73" ry="18"/>
<text text-anchor="middle" x="953.7" y="-1065.33" font-family="Times,serif" font-size="14.00">arrow cpp</text>
</a>
</g>
</g>
<!-- ray&#45;packages -->
<g id="node2" class="node">
<title>ray&#45;packages</title>
<g id="a_node2"><a xlink:href="https://github.com/conda-forge/ray-packages-feedstock" xlink:title="ray packages">
<ellipse fill="#fde725" stroke="black" cx="1587.7" cy="-998" rx="76.99" ry="18"/>
<text text-anchor="middle" x="1587.7" y="-993.33" font-family="Times,serif" font-size="14.00">ray packages</text>
</a>
</g>
</g>
<!-- arrow&#45;cpp&#45;&gt;ray&#45;packages -->
<g id="edge1" class="edge">
<title>arrow&#45;cpp&#45;&gt;ray&#45;packages</title>
<path fill="none" stroke="black" d="M997.92,-1057.15C1006.43,-1055.19 1015.3,-1053.35 1023.7,-1052 1217.4,-1020.75 1268.65,-1037.33 1463.7,-1016 1479.67,-1014.25 1496.76,-1012.1 1512.99,-1009.91"/>
<polygon fill="black" stroke="black" points="1513.13,-1013.43 1522.56,-1008.61 1512.18,-1006.49 1513.13,-1013.43"/>
</g>
<!-- datafusion -->
<g id="node3" class="node">
<title>datafusion</title>
<g id="a_node3"><a xlink:href="https://github.com/conda-forge/datafusion-feedstock" xlink:title="datafusion">
<ellipse fill="#fde725" stroke="black" cx="1052.7" cy="-998" rx="63.84" ry="18"/>
<text text-anchor="middle" x="1052.7" y="-993.33" font-family="Times,serif" font-size="14.00">datafusion</text>
</a>
</g>
</g>
<!-- arrow&#45;cpp&#45;&gt;datafusion -->
<g id="edge2" class="edge">
<title>arrow&#45;cpp&#45;&gt;datafusion</title>
<path fill="none" stroke="black" d="M976.16,-1053.12C989.36,-1043.78 1006.26,-1031.84 1020.81,-1021.55"/>
<polygon fill="black" stroke="black" points="1022.6,-1024.57 1028.75,-1015.94 1018.56,-1018.85 1022.6,-1024.57"/>
</g>
<!-- arcticdb -->
<g id="node4" class="node">
<title>arcticdb</title>
<g id="a_node4"><a xlink:href="https://github.com/conda-forge/arcticdb-feedstock" xlink:title="arcticdb">
<ellipse fill="#fde725" stroke="black" cx="967.7" cy="-926" rx="52.26" ry="18"/>
<text text-anchor="middle" x="967.7" y="-921.33" font-family="Times,serif" font-size="14.00">arcticdb</text>
</a>
</g>
</g>
<!-- arrow&#45;cpp&#45;&gt;arcticdb -->
<g id="edge3" class="edge">
<title>arrow&#45;cpp&#45;&gt;arcticdb</title>
<path fill="none" stroke="black" d="M955.42,-1051.59C957.78,-1027.61 962.07,-984.14 964.9,-955.42"/>
<polygon fill="black" stroke="black" points="968.37,-955.91 965.86,-945.62 961.4,-955.23 968.37,-955.91"/>
</g>
<!-- csp -->
<g id="node5" class="node">
<title>csp</title>
<g id="a_node5"><a xlink:href="https://github.com/conda-forge/csp-feedstock" xlink:title="csp">
<ellipse fill="#fde725" stroke="black" cx="887.7" cy="-854" rx="28.06" ry="18"/>
<text text-anchor="middle" x="887.7" y="-849.33" font-family="Times,serif" font-size="14.00">csp</text>
</a>
</g>
</g>
<!-- arrow&#45;cpp&#45;&gt;csp -->
<g id="edge4" class="edge">
<title>arrow&#45;cpp&#45;&gt;csp</title>
<path fill="none" stroke="black" d="M946.33,-1051.89C936.29,-1028.06 918.24,-983.38 906.7,-944 900.85,-924.04 896,-901.08 892.66,-883.48"/>
<polygon fill="black" stroke="black" points="896.12,-882.94 890.87,-873.74 889.23,-884.21 896.12,-882.94"/>
</g>
<!-- bazel -->
<g id="node6" class="node">
<title>bazel</title>
<g id="a_node6"><a xlink:href="https://github.com/conda-forge/bazel-feedstock/pull/247" xlink:title="bazel ❎">
<ellipse fill="#31688e" stroke="black" cx="2518.78" cy="-1358" rx="52.79" ry="18"/>
<text text-anchor="middle" x="2518.78" y="-1353.32" font-family="Times,serif" font-size="14.00" fill="white">bazel ❎</text>
</a>
</g>
</g>
<!-- mosh -->
<g id="node7" class="node">
<title>mosh</title>
<g id="a_node7"><a xlink:href="https://github.com/conda-forge/mosh-feedstock/pull/41" xlink:title="mosh ❎">
<ellipse fill="#31688e" stroke="black" cx="2518.78" cy="-1286" rx="53.31" ry="18"/>
<text text-anchor="middle" x="2518.78" y="-1281.32" font-family="Times,serif" font-size="14.00" fill="white">mosh ❎</text>
</a>
</g>
</g>
<!-- bazel&#45;&gt;mosh -->
<!-- mysql -->
<g id="node8" class="node">
<title>mysql</title>
<g id="a_node8"><a xlink:href="https://github.com/conda-forge/mysql-feedstock/pull/104" xlink:title="mysql ❎">
<ellipse fill="#31688e" stroke="black" cx="2518.78" cy="-1214" rx="56.47" ry="18"/>
<text text-anchor="middle" x="2518.78" y="-1209.32" font-family="Times,serif" font-size="14.00" fill="white">mysql ❎</text>
</a>
</g>
</g>
<!-- mosh&#45;&gt;mysql -->
<!-- paraview -->
<g id="node9" class="node">
<title>paraview</title>
<g id="a_node9"><a xlink:href="https://github.com/conda-forge/paraview-feedstock" xlink:title="paraview">
<ellipse fill="#000000" stroke="black" cx="2518.78" cy="-1142" rx="57" ry="18"/>
<text text-anchor="middle" x="2518.78" y="-1137.33" font-family="Times,serif" font-size="14.00" fill="white">paraview</text>
</a>
</g>
</g>
<!-- mysql&#45;&gt;paraview -->
<!-- qgis -->
<g id="node14" class="node">
<title>qgis</title>
<g id="a_node14"><a xlink:href="https://github.com/conda-forge/qgis-feedstock" xlink:title="qgis">
<ellipse fill="#ff8c00" stroke="black" cx="2518.78" cy="-1070" rx="32.27" ry="18"/>
<text text-anchor="middle" x="2518.78" y="-1065.33" font-family="Times,serif" font-size="14.00">qgis</text>
</a>
</g>
</g>
<!-- paraview&#45;&gt;qgis -->
<!-- opencv -->
<g id="node10" class="node">
<title>opencv</title>
<g id="a_node10"><a xlink:href="https://github.com/conda-forge/opencv-feedstock" xlink:title="opencv">
<ellipse fill="#fde725" stroke="black" cx="1431.7" cy="-1070" rx="46.47" ry="18"/>
<text text-anchor="middle" x="1431.7" y="-1065.33" font-family="Times,serif" font-size="14.00">opencv</text>
</a>
</g>
</g>
<!-- opencv&#45;&gt;ray&#45;packages -->
<g id="edge8" class="edge">
<title>opencv&#45;&gt;ray&#45;packages</title>
<path fill="none" stroke="black" d="M1461.04,-1055.83C1484.08,-1045.5 1516.55,-1030.93 1542.85,-1019.13"/>
<polygon fill="black" stroke="black" points="1544.25,-1022.33 1551.94,-1015.05 1541.38,-1015.95 1544.25,-1022.33"/>
</g>
<!-- imp -->
<g id="node11" class="node">
<title>imp</title>
<g id="a_node11"><a xlink:href="https://github.com/conda-forge/imp-feedstock" xlink:title="imp">
<ellipse fill="#fde725" stroke="black" cx="1424.7" cy="-998" rx="30.16" ry="18"/>
<text text-anchor="middle" x="1424.7" y="-993.33" font-family="Times,serif" font-size="14.00">imp</text>
</a>
</g>
</g>
<!-- opencv&#45;&gt;imp -->
<g id="edge9" class="edge">
<title>opencv&#45;&gt;imp</title>
<path fill="none" stroke="black" d="M1429.97,-1051.7C1429.24,-1044.41 1428.37,-1035.73 1427.55,-1027.54"/>
<polygon fill="black" stroke="black" points="1431.04,-1027.21 1426.56,-1017.61 1424.07,-1027.91 1431.04,-1027.21"/>
</g>
<!-- gazebo&#45;yarp&#45;plugins -->
<g id="node12" class="node">
<title>gazebo&#45;yarp&#45;plugins</title>
<g id="a_node12"><a xlink:href="https://github.com/conda-forge/gazebo-yarp-plugins-feedstock" xlink:title="gazebo yarp plugins">
<ellipse fill="#fde725" stroke="black" cx="1264.7" cy="-998" rx="112.24" ry="18"/>
<text text-anchor="middle" x="1264.7" y="-993.33" font-family="Times,serif" font-size="14.00">gazebo yarp plugins</text>
</a>
</g>
</g>
<!-- opencv&#45;&gt;gazebo&#45;yarp&#45;plugins -->
<g id="edge10" class="edge">
<title>opencv&#45;&gt;gazebo&#45;yarp&#45;plugins</title>
<path fill="none" stroke="black" d="M1401.07,-1056.16C1376.77,-1045.98 1342.33,-1031.54 1314.14,-1019.72"/>
<polygon fill="black" stroke="black" points="1315.64,-1016.56 1305.07,-1015.92 1312.94,-1023.01 1315.64,-1016.56"/>
</g>
<!-- nvidia&#45;dali&#45;python -->
<g id="node13" class="node">
<title>nvidia&#45;dali&#45;python</title>
<g id="a_node13"><a xlink:href="https://github.com/conda-forge/nvidia-dali-python-feedstock" xlink:title="nvidia dali python">
<ellipse fill="#fde725" stroke="black" cx="1482.7" cy="-926" rx="101.19" ry="18"/>
<text text-anchor="middle" x="1482.7" y="-921.33" font-family="Times,serif" font-size="14.00">nvidia dali python</text>
</a>
</g>
</g>
<!-- opencv&#45;&gt;nvidia&#45;dali&#45;python -->
<g id="edge11" class="edge">
<title>opencv&#45;&gt;nvidia&#45;dali&#45;python</title>
<path fill="none" stroke="black" d="M1443.59,-1052.56C1450.39,-1042.46 1458.56,-1028.99 1463.7,-1016 1471.4,-996.54 1476.22,-973.4 1479.07,-955.59"/>
<polygon fill="black" stroke="black" points="1482.53,-956.12 1480.53,-945.72 1475.61,-955.1 1482.53,-956.12"/>
</g>
<!-- tensorflow -->
<g id="node15" class="node">
<title>tensorflow</title>
<g id="a_node15"><a xlink:href="https://github.com/conda-forge/tensorflow-feedstock" xlink:title="tensorflow">
<ellipse fill="#000000" stroke="black" cx="2518.78" cy="-998" rx="63.84" ry="18"/>
<text text-anchor="middle" x="2518.78" y="-993.33" font-family="Times,serif" font-size="14.00" fill="white">tensorflow</text>
</a>
</g>
</g>
<!-- qgis&#45;&gt;tensorflow -->
<!-- r&#45;protolite -->
<g id="node16" class="node">
<title>r&#45;protolite</title>
<g id="a_node16"><a xlink:href="https://github.com/conda-forge/r-protolite-feedstock" xlink:title="r protolite">
<ellipse fill="#ff8c00" stroke="black" cx="2518.78" cy="-926" rx="62.26" ry="18"/>
<text text-anchor="middle" x="2518.78" y="-921.33" font-family="Times,serif" font-size="14.00">r protolite</text>
</a>
</g>
</g>
<!-- tensorflow&#45;&gt;r&#45;protolite -->
<!-- go&#45;cockroach -->
<g id="node17" class="node">
<title>go&#45;cockroach</title>
<g id="a_node17"><a xlink:href="https://github.com/conda-forge/go-cockroach-feedstock" xlink:title="go cockroach">
<ellipse fill="#ff8c00" stroke="black" cx="2518.78" cy="-854" rx="76.46" ry="18"/>
<text text-anchor="middle" x="2518.78" y="-849.33" font-family="Times,serif" font-size="14.00">go cockroach</text>
</a>
</g>
</g>
<!-- r&#45;protolite&#45;&gt;go&#45;cockroach -->
<!-- tomviz -->
<g id="node28" class="node">
<title>tomviz</title>
<g id="a_node28"><a xlink:href="https://github.com/conda-forge/tomviz-feedstock" xlink:title="tomviz">
<ellipse fill="#ff8c00" stroke="black" cx="2518.78" cy="-782" rx="44.9" ry="18"/>
<text text-anchor="middle" x="2518.78" y="-777.33" font-family="Times,serif" font-size="14.00">tomviz</text>
</a>
</g>
</g>
<!-- go&#45;cockroach&#45;&gt;tomviz -->
<!-- pytorch&#45;cpu -->
<g id="node18" class="node">
<title>pytorch&#45;cpu</title>
<g id="a_node18"><a xlink:href="https://github.com/conda-forge/pytorch-cpu-feedstock" xlink:title="pytorch cpu">
<ellipse fill="#000000" stroke="black" cx="1580.7" cy="-1070" rx="70.68" ry="18"/>
<text text-anchor="middle" x="1580.7" y="-1065.33" font-family="Times,serif" font-size="14.00" fill="white">pytorch cpu</text>
</a>
</g>
</g>
<!-- pytorch&#45;cpu&#45;&gt;ray&#45;packages -->
<g id="edge16" class="edge">
<title>pytorch&#45;cpu&#45;&gt;ray&#45;packages</title>
<path fill="none" stroke="black" d="M1582.43,-1051.7C1583.16,-1044.41 1584.03,-1035.73 1584.85,-1027.54"/>
<polygon fill="black" stroke="black" points="1588.33,-1027.91 1585.84,-1017.61 1581.36,-1027.21 1588.33,-1027.91"/>
</g>
<!-- jaxlib -->
<g id="node19" class="node">
<title>jaxlib</title>
<g id="a_node19"><a xlink:href="https://github.com/conda-forge/jaxlib-feedstock" xlink:title="jaxlib">
<ellipse fill="#ff8c00" stroke="black" cx="1679.7" cy="-1142" rx="38.58" ry="18"/>
<text text-anchor="middle" x="1679.7" y="-1137.33" font-family="Times,serif" font-size="14.00">jaxlib</text>
</a>
</g>
</g>
<!-- jaxlib&#45;&gt;ray&#45;packages -->
<g id="edge17" class="edge">
<title>jaxlib&#45;&gt;ray&#45;packages</title>
<path fill="none" stroke="black" d="M1679.59,-1123.54C1678.7,-1104.51 1674.91,-1073.85 1660.7,-1052 1652.68,-1039.67 1640.73,-1029.26 1628.8,-1021.01"/>
<polygon fill="black" stroke="black" points="1630.88,-1018.19 1620.58,-1015.69 1627.07,-1024.06 1630.88,-1018.19"/>
</g>
<!-- libignition&#45;transport4 -->
<g id="node20" class="node">
<title>libignition&#45;transport4</title>
<g id="a_node20"><a xlink:href="https://github.com/conda-forge/libignition-transport4-feedstock" xlink:title="libignition transport4">
<ellipse fill="#35b779" stroke="black" cx="2257.99" cy="-1106" rx="119.08" ry="18"/>
<text text-anchor="middle" x="2257.99" y="-1101.33" font-family="Times,serif" font-size="14.00">libignition transport4</text>
</a>
</g>
</g>
<!-- libignition&#45;sensors -->
<g id="node21" class="node">
<title>libignition&#45;sensors</title>
<g id="a_node21"><a xlink:href="https://github.com/conda-forge/libignition-sensors-feedstock" xlink:title="libignition sensors">
<ellipse fill="#fde725" stroke="black" cx="2071.99" cy="-1034" rx="103.82" ry="18"/>
<text text-anchor="middle" x="2071.99" y="-1029.33" font-family="Times,serif" font-size="14.00">libignition sensors</text>
</a>
</g>
</g>
<!-- libignition&#45;transport4&#45;&gt;libignition&#45;sensors -->
<g id="edge18" class="edge">
<title>libignition&#45;transport4&#45;&gt;libignition&#45;sensors</title>
<path fill="none" stroke="black" d="M2214.85,-1088.76C2188.02,-1078.67 2153.32,-1065.61 2124.84,-1054.89"/>
<polygon fill="black" stroke="black" points="2126.27,-1051.69 2115.67,-1051.44 2123.8,-1058.24 2126.27,-1051.69"/>
</g>
<!-- libignition&#45;gui -->
<g id="node22" class="node">
<title>libignition&#45;gui</title>
<g id="a_node22"><a xlink:href="https://github.com/conda-forge/libignition-gui-feedstock" xlink:title="libignition gui">
<ellipse fill="#fde725" stroke="black" cx="2312.99" cy="-1034" rx="81.2" ry="18"/>
<text text-anchor="middle" x="2312.99" y="-1029.33" font-family="Times,serif" font-size="14.00">libignition gui</text>
</a>
</g>
</g>
<!-- libignition&#45;transport4&#45;&gt;libignition&#45;gui -->
<g id="edge19" class="edge">
<title>libignition&#45;transport4&#45;&gt;libignition&#45;gui</title>
<path fill="none" stroke="black" d="M2271.59,-1087.7C2277.92,-1079.64 2285.58,-1069.89 2292.58,-1060.98"/>
<polygon fill="black" stroke="black" points="2295.19,-1063.32 2298.62,-1053.29 2289.69,-1059 2295.19,-1063.32"/>
</g>
<!-- libignition&#45;gazebo -->
<g id="node23" class="node">
<title>libignition&#45;gazebo</title>
<g id="a_node23"><a xlink:href="https://github.com/conda-forge/libignition-gazebo-feedstock" xlink:title="libignition gazebo">
<ellipse fill="#fde725" stroke="black" cx="2193.99" cy="-962" rx="100.66" ry="18"/>
<text text-anchor="middle" x="2193.99" y="-957.33" font-family="Times,serif" font-size="14.00">libignition gazebo</text>
</a>
</g>
</g>
<!-- libignition&#45;transport4&#45;&gt;libignition&#45;gazebo -->
<g id="edge20" class="edge">
<title>libignition&#45;transport4&#45;&gt;libignition&#45;gazebo</title>
<path fill="none" stroke="black" d="M2245.09,-1088.03C2237.87,-1077.96 2229.12,-1064.71 2222.99,-1052 2213.55,-1032.43 2206.06,-1009.02 2201.06,-991.13"/>
<polygon fill="black" stroke="black" points="2204.51,-990.47 2198.53,-981.72 2197.75,-992.28 2204.51,-990.47"/>
</g>
<!-- libignition&#45;launch -->
<g id="node24" class="node">
<title>libignition&#45;launch</title>
<g id="a_node24"><a xlink:href="https://github.com/conda-forge/libignition-launch-feedstock" xlink:title="libignition launch">
<ellipse fill="#fde725" stroke="black" cx="2322.99" cy="-890" rx="98.56" ry="18"/>
<text text-anchor="middle" x="2322.99" y="-885.33" font-family="Times,serif" font-size="14.00">libignition launch</text>
</a>
</g>
</g>
<!-- libignition&#45;transport4&#45;&gt;libignition&#45;launch -->
<g id="edge21" class="edge">
<title>libignition&#45;transport4&#45;&gt;libignition&#45;launch</title>
<path fill="none" stroke="black" d="M2341.74,-1092.87C2365.42,-1085.14 2388.63,-1072.54 2402.99,-1052 2434.32,-1007.2 2385.33,-948.33 2351.26,-915.62"/>
<polygon fill="black" stroke="black" points="2353.78,-913.19 2344.09,-908.93 2349.01,-918.31 2353.78,-913.19"/>
</g>
<!-- libignition&#45;sensors&#45;&gt;libignition&#45;gazebo -->
<g id="edge22" class="edge">
<title>libignition&#45;sensors&#45;&gt;libignition&#45;gazebo</title>
<path fill="none" stroke="black" d="M2100.9,-1016.41C2117.04,-1007.15 2137.37,-995.49 2154.91,-985.42"/>
<polygon fill="black" stroke="black" points="2156.62,-988.48 2163.55,-980.47 2153.14,-982.41 2156.62,-988.48"/>
</g>
<!-- libignition&#45;gui&#45;&gt;libignition&#45;gazebo -->
<g id="edge23" class="edge">
<title>libignition&#45;gui&#45;&gt;libignition&#45;gazebo</title>
<path fill="none" stroke="black" d="M2285.39,-1016.76C2269.55,-1007.45 2249.43,-995.61 2232.1,-985.41"/>
<polygon fill="black" stroke="black" points="2233.97,-982.45 2223.57,-980.4 2230.42,-988.49 2233.97,-982.45"/>
</g>
<!-- libignition&#45;gui&#45;&gt;libignition&#45;launch -->
<g id="edge24" class="edge">
<title>libignition&#45;gui&#45;&gt;libignition&#45;launch</title>
<path fill="none" stroke="black" d="M2314.22,-1015.59C2315.91,-991.61 2318.97,-948.14 2320.99,-919.42"/>
<polygon fill="black" stroke="black" points="2324.47,-919.84 2321.68,-909.62 2317.49,-919.35 2324.47,-919.84"/>
</g>
<!-- libignition&#45;gazebo&#45;&gt;libignition&#45;launch -->
<g id="edge25" class="edge">
<title>libignition&#45;gazebo&#45;&gt;libignition&#45;launch</title>
<path fill="none" stroke="black" d="M2224.56,-944.41C2241.91,-935 2263.84,-923.1 2282.6,-912.92"/>
<polygon fill="black" stroke="black" points="2284.19,-916.04 2291.31,-908.19 2280.85,-909.89 2284.19,-916.04"/>
</g>
<!-- gazebo -->
<g id="node25" class="node">
<title>gazebo</title>
<g id="a_node25"><a xlink:href="https://github.com/conda-forge/gazebo-feedstock" xlink:title="gazebo">
<ellipse fill="#ff8c00" stroke="black" cx="1320.7" cy="-1070" rx="46.47" ry="18"/>
<text text-anchor="middle" x="1320.7" y="-1065.33" font-family="Times,serif" font-size="14.00">gazebo</text>
</a>
</g>
</g>
<!-- gazebo&#45;&gt;gazebo&#45;yarp&#45;plugins -->
<g id="edge26" class="edge">
<title>gazebo&#45;&gt;gazebo&#45;yarp&#45;plugins</title>
<path fill="none" stroke="black" d="M1307.43,-1052.41C1300.83,-1044.16 1292.71,-1034.01 1285.32,-1024.78"/>
<polygon fill="black" stroke="black" points="1288.19,-1022.76 1279.21,-1017.14 1282.72,-1027.13 1288.19,-1022.76"/>
</g>
<!-- libignition&#45;fuel&#45;tools -->
<g id="node26" class="node">
<title>libignition&#45;fuel&#45;tools</title>
<g id="a_node26"><a xlink:href="https://github.com/conda-forge/libignition-fuel-tools-feedstock" xlink:title="libignition fuel tools">
<ellipse fill="#35b779" stroke="black" cx="1837.99" cy="-1034" rx="111.71" ry="18"/>
<text text-anchor="middle" x="1837.99" y="-1029.33" font-family="Times,serif" font-size="14.00">libignition fuel tools</text>
</a>
</g>
</g>
<!-- libignition&#45;fuel&#45;tools&#45;&gt;libignition&#45;gazebo -->
<g id="edge27" class="edge">
<title>libignition&#45;fuel&#45;tools&#45;&gt;libignition&#45;gazebo</title>
<path fill="none" stroke="black" d="M1907.06,-1019.42C1967.33,-1007.57 2054.69,-990.39 2117.16,-978.11"/>
<polygon fill="black" stroke="black" points="2117.51,-981.61 2126.64,-976.24 2116.16,-974.74 2117.51,-981.61"/>
</g>
<!-- google&#45;cloud&#45;cpp -->
<g id="node27" class="node">
<title>google&#45;cloud&#45;cpp</title>
<g id="a_node27"><a xlink:href="https://github.com/conda-forge/google-cloud-cpp-feedstock" xlink:title="google cloud cpp">
<ellipse fill="#fde725" stroke="black" cx="579.7" cy="-854" rx="95.4" ry="18"/>
<text text-anchor="middle" x="579.7" y="-849.33" font-family="Times,serif" font-size="14.00">google cloud cpp</text>
</a>
</g>
</g>
<!-- protozfits -->
<g id="node31" class="node">
<title>protozfits</title>
<g id="a_node31"><a xlink:href="https://github.com/conda-forge/protozfits-feedstock" xlink:title="protozfits">
<ellipse fill="#000000" stroke="black" cx="2518.78" cy="-710" rx="59.1" ry="18"/>
<text text-anchor="middle" x="2518.78" y="-705.33" font-family="Times,serif" font-size="14.00" fill="white">protozfits</text>
</a>
</g>
</g>
<!-- tomviz&#45;&gt;protozfits -->
<!-- sentencepiece -->
<g id="node29" class="node">
<title>sentencepiece</title>
<g id="a_node29"><a xlink:href="https://github.com/conda-forge/sentencepiece-feedstock" xlink:title="sentencepiece">
<ellipse fill="#000000" stroke="black" cx="1144.7" cy="-1142" rx="82.25" ry="18"/>
<text text-anchor="middle" x="1144.7" y="-1137.33" font-family="Times,serif" font-size="14.00" fill="white">sentencepiece</text>
</a>
</g>
</g>
<!-- openvino&#45;tokenizers -->
<g id="node30" class="node">
<title>openvino&#45;tokenizers</title>
<g id="a_node30"><a xlink:href="https://github.com/conda-forge/openvino-tokenizers-feedstock" xlink:title="openvino tokenizers">
<ellipse fill="#fde725" stroke="black" cx="1144.7" cy="-1070" rx="111.71" ry="18"/>
<text text-anchor="middle" x="1144.7" y="-1065.33" font-family="Times,serif" font-size="14.00">openvino tokenizers</text>
</a>
</g>
</g>
<!-- sentencepiece&#45;&gt;openvino&#45;tokenizers -->
<g id="edge29" class="edge">
<title>sentencepiece&#45;&gt;openvino&#45;tokenizers</title>
<path fill="none" stroke="black" d="M1144.7,-1123.7C1144.7,-1116.41 1144.7,-1107.73 1144.7,-1099.54"/>
<polygon fill="black" stroke="black" points="1148.2,-1099.62 1144.7,-1089.62 1141.2,-1099.62 1148.2,-1099.62"/>
</g>
<!-- or&#45;tools -->
<g id="node32" class="node">
<title>or&#45;tools</title>
<g id="a_node32"><a xlink:href="https://github.com/conda-forge/or-tools-feedstock" xlink:title="or tools">
<ellipse fill="#ff8c00" stroke="black" cx="2518.78" cy="-638" rx="49.1" ry="18"/>
<text text-anchor="middle" x="2518.78" y="-633.33" font-family="Times,serif" font-size="14.00">or tools</text>
</a>
</g>
</g>
<!-- protozfits&#45;&gt;or&#45;tools -->
<!-- bear -->
<g id="node33" class="node">
<title>bear</title>
<g id="a_node33"><a xlink:href="https://github.com/conda-forge/bear-feedstock/pull/52" xlink:title="bear ❎">
<ellipse fill="#31688e" stroke="black" cx="859.14" cy="-594" rx="49.1" ry="18"/>
<text text-anchor="middle" x="859.14" y="-589.33" font-family="Times,serif" font-size="14.00" fill="white">bear ❎</text>
</a>
</g>
</g>
<!-- cpp&#45;opentelemetry&#45;sdk -->
<g id="node34" class="node">
<title>cpp&#45;opentelemetry&#45;sdk</title>
<g id="a_node34"><a xlink:href="https://github.com/conda-forge/cpp-opentelemetry-sdk-feedstock" xlink:title="cpp opentelemetry sdk">
<ellipse fill="#000000" stroke="black" cx="859.14" cy="-522" rx="125.92" ry="18"/>
<text text-anchor="middle" x="859.14" y="-517.33" font-family="Times,serif" font-size="14.00" fill="white">cpp opentelemetry sdk</text>
</a>
</g>
</g>
<!-- bear&#45;&gt;cpp&#45;opentelemetry&#45;sdk -->
<!-- xilinx&#45;runtime -->
<g id="node35" class="node">
<title>xilinx&#45;runtime</title>
<g id="a_node35"><a xlink:href="https://github.com/conda-forge/xilinx-runtime-feedstock/pull/38" xlink:title="xilinx runtime ❎">
<ellipse fill="#31688e" stroke="black" cx="859.14" cy="-450" rx="96.98" ry="18"/>
<text text-anchor="middle" x="859.14" y="-445.32" font-family="Times,serif" font-size="14.00" fill="white">xilinx runtime ❎</text>
</a>
</g>
</g>
<!-- cpp&#45;opentelemetry&#45;sdk&#45;&gt;xilinx&#45;runtime -->
<!-- gnss&#45;sdr -->
<g id="node36" class="node">
<title>gnss&#45;sdr</title>
<g id="a_node36"><a xlink:href="https://github.com/conda-forge/gnss-sdr-feedstock/pull/30" xlink:title="gnss sdr ✓">
<ellipse fill="#31688e" stroke="black" cx="859.14" cy="-378" rx="61.73" ry="18"/>
<text text-anchor="middle" x="859.14" y="-373.32" font-family="Times,serif" font-size="14.00" fill="white">gnss sdr ✓</text>
</a>
</g>
</g>
<!-- xilinx&#45;runtime&#45;&gt;gnss&#45;sdr -->
<!-- gcld3 -->
<g id="node45" class="node">
<title>gcld3</title>
<g id="a_node45"><a xlink:href="https://github.com/conda-forge/gcld3-feedstock/pull/14" xlink:title="gcld3 ✓">
<ellipse fill="#31688e" stroke="black" cx="859.14" cy="-306" rx="46.47" ry="18"/>
<text text-anchor="middle" x="859.14" y="-301.32" font-family="Times,serif" font-size="14.00" fill="white">gcld3 ✓</text>
</a>
</g>
</g>
<!-- gnss&#45;sdr&#45;&gt;gcld3 -->
<!-- gz&#45;msgs -->
<g id="node37" class="node">
<title>gz&#45;msgs</title>
<g id="a_node37"><a xlink:href="https://github.com/conda-forge/gz-msgs-feedstock" xlink:title="gz msgs">
<ellipse fill="#000000" stroke="black" cx="2041.48" cy="-450" rx="52.26" ry="18"/>
<text text-anchor="middle" x="2041.48" y="-445.32" font-family="Times,serif" font-size="14.00" fill="white">gz msgs</text>
</a>
</g>
</g>
<!-- gz&#45;transport -->
<g id="node38" class="node">
<title>gz&#45;transport</title>
<g id="a_node38"><a xlink:href="https://github.com/conda-forge/gz-transport-feedstock" xlink:title="gz transport">
<ellipse fill="#fde725" stroke="black" cx="1991.48" cy="-378" rx="73.3" ry="18"/>
<text text-anchor="middle" x="1991.48" y="-373.32" font-family="Times,serif" font-size="14.00">gz transport</text>
</a>
</g>
</g>
<!-- gz&#45;msgs&#45;&gt;gz&#45;transport -->
<g id="edge35" class="edge">
<title>gz&#45;msgs&#45;&gt;gz&#45;transport</title>
<path fill="none" stroke="black" d="M2029.38,-432.05C2023.61,-423.97 2016.57,-414.12 2010.14,-405.11"/>
<polygon fill="black" stroke="black" points="2013.02,-403.12 2004.36,-397.02 2007.32,-407.19 2013.02,-403.12"/>
</g>
<!-- gz&#45;fuel&#45;tools -->
<g id="node39" class="node">
<title>gz&#45;fuel&#45;tools</title>
<g id="a_node39"><a xlink:href="https://github.com/conda-forge/gz-fuel-tools-feedstock" xlink:title="gz fuel tools">
<ellipse fill="#fde725" stroke="black" cx="2192.48" cy="-378" rx="72.25" ry="18"/>
<text text-anchor="middle" x="2192.48" y="-373.32" font-family="Times,serif" font-size="14.00">gz fuel tools</text>
</a>
</g>
</g>
<!-- gz&#45;msgs&#45;&gt;gz&#45;fuel&#45;tools -->
<g id="edge36" class="edge">
<title>gz&#45;msgs&#45;&gt;gz&#45;fuel&#45;tools</title>
<path fill="none" stroke="black" d="M2071.68,-435C2093.82,-424.74 2124.21,-410.65 2148.97,-399.17"/>
<polygon fill="black" stroke="black" points="2150.22,-402.45 2157.82,-395.07 2147.28,-396.1 2150.22,-402.45"/>
</g>
<!-- gz&#45;gui -->
<g id="node40" class="node">
<title>gz&#45;gui</title>
<g id="a_node40"><a xlink:href="https://github.com/conda-forge/gz-gui-feedstock" xlink:title="gz gui">
<ellipse fill="#fde725" stroke="black" cx="1900.48" cy="-306" rx="41.74" ry="18"/>
<text text-anchor="middle" x="1900.48" y="-301.32" font-family="Times,serif" font-size="14.00">gz gui</text>
</a>
</g>
</g>
<!-- gz&#45;msgs&#45;&gt;gz&#45;gui -->
<g id="edge37" class="edge">
<title>gz&#45;msgs&#45;&gt;gz&#45;gui</title>
<path fill="none" stroke="black" d="M1993.67,-442.38C1964.61,-435.73 1929.38,-422.45 1909.48,-396 1896.63,-378.92 1895,-354.47 1896.24,-335.53"/>
<polygon fill="black" stroke="black" points="1899.7,-336.08 1897.19,-325.78 1892.73,-335.39 1899.7,-336.08"/>
</g>
<!-- gz&#45;sensors -->
<g id="node41" class="node">
<title>gz&#45;sensors</title>
<g id="a_node41"><a xlink:href="https://github.com/conda-forge/gz-sensors-feedstock" xlink:title="gz sensors">
<ellipse fill="#fde725" stroke="black" cx="2100.48" cy="-306" rx="64.36" ry="18"/>
<text text-anchor="middle" x="2100.48" y="-301.32" font-family="Times,serif" font-size="14.00">gz sensors</text>
</a>
</g>
</g>
<!-- gz&#45;msgs&#45;&gt;gz&#45;sensors -->
<g id="edge38" class="edge">
<title>gz&#45;msgs&#45;&gt;gz&#45;sensors</title>
<path fill="none" stroke="black" d="M2052.98,-432.4C2059.64,-422.23 2067.8,-408.77 2073.48,-396 2082.22,-376.37 2089.17,-353.1 2093.83,-335.28"/>
<polygon fill="black" stroke="black" points="2097.21,-336.2 2096.25,-325.65 2090.42,-334.5 2097.21,-336.2"/>
</g>
<!-- gz&#45;sim -->
<g id="node42" class="node">
<title>gz&#45;sim</title>
<g id="a_node42"><a xlink:href="https://github.com/conda-forge/gz-sim-feedstock" xlink:title="gz sim">
<ellipse fill="#fde725" stroke="black" cx="2071.48" cy="-234" rx="43.84" ry="18"/>
<text text-anchor="middle" x="2071.48" y="-229.32" font-family="Times,serif" font-size="14.00">gz sim</text>
</a>
</g>
</g>
<!-- gz&#45;msgs&#45;&gt;gz&#45;sim -->
<g id="edge39" class="edge">
<title>gz&#45;msgs&#45;&gt;gz&#45;sim</title>
<path fill="none" stroke="black" d="M2091.81,-444.71C2153.09,-438.32 2251.2,-423.94 2273.48,-396 2326.25,-329.83 2191.44,-273.72 2116.94,-248.8"/>
<polygon fill="black" stroke="black" points="2118.45,-245.61 2107.86,-245.83 2116.27,-252.27 2118.45,-245.61"/>
</g>
<!-- gz&#45;launch -->
<g id="node43" class="node">
<title>gz&#45;launch</title>
<g id="a_node43"><a xlink:href="https://github.com/conda-forge/gz-launch-feedstock" xlink:title="gz launch">
<ellipse fill="#fde725" stroke="black" cx="1951.48" cy="-162" rx="59.1" ry="18"/>
<text text-anchor="middle" x="1951.48" y="-157.32" font-family="Times,serif" font-size="14.00">gz launch</text>
</a>
</g>
</g>
<!-- gz&#45;msgs&#45;&gt;gz&#45;launch -->
<g id="edge40" class="edge">
<title>gz&#45;msgs&#45;&gt;gz&#45;launch</title>
<path fill="none" stroke="black" d="M1995.39,-441.16C1963.68,-433.85 1922.09,-420.29 1892.48,-396 1863.67,-372.36 1859.4,-359.93 1849.48,-324 1834.35,-269.16 1885.55,-215.36 1920.81,-185.94"/>
<polygon fill="black" stroke="black" points="1922.64,-188.97 1928.21,-179.95 1918.23,-183.53 1922.64,-188.97"/>
</g>
<!-- gz&#45;transport&#45;&gt;gz&#45;gui -->
<g id="edge41" class="edge">
<title>gz&#45;transport&#45;&gt;gz&#45;gui</title>
<path fill="none" stroke="black" d="M1969.92,-360.41C1957.82,-351.11 1942.57,-339.38 1929.45,-329.28"/>
<polygon fill="black" stroke="black" points="1931.6,-326.52 1921.54,-323.2 1927.33,-332.07 1931.6,-326.52"/>
</g>
<!-- gz&#45;transport&#45;&gt;gz&#45;sensors -->
<g id="edge42" class="edge">
<title>gz&#45;transport&#45;&gt;gz&#45;sensors</title>
<path fill="none" stroke="black" d="M2016.77,-360.76C2031.45,-351.33 2050.16,-339.32 2066.16,-329.04"/>
<polygon fill="black" stroke="black" points="2067.92,-332.07 2074.44,-323.72 2064.14,-326.18 2067.92,-332.07"/>
</g>
<!-- gz&#45;transport&#45;&gt;gz&#45;sim -->
<g id="edge43" class="edge">
<title>gz&#45;transport&#45;&gt;gz&#45;sim</title>
<path fill="none" stroke="black" d="M1996.66,-359.87C2002.63,-341.39 2013.46,-311.46 2027.48,-288 2033.4,-278.1 2041.11,-268.13 2048.42,-259.55"/>
<polygon fill="black" stroke="black" points="2050.81,-262.13 2054.79,-252.32 2045.56,-257.5 2050.81,-262.13"/>
</g>
<!-- gz&#45;transport&#45;&gt;gz&#45;launch -->
<g id="edge44" class="edge">
<title>gz&#45;transport&#45;&gt;gz&#45;launch</title>
<path fill="none" stroke="black" d="M1988.28,-359.85C1981.42,-323.14 1965.25,-236.66 1956.82,-191.53"/>
<polygon fill="black" stroke="black" points="1960.26,-190.91 1954.98,-181.72 1953.38,-192.19 1960.26,-190.91"/>
</g>
<!-- gz&#45;fuel&#45;tools&#45;&gt;gz&#45;sim -->
<g id="edge45" class="edge">
<title>gz&#45;fuel&#45;tools&#45;&gt;gz&#45;sim</title>
<path fill="none" stroke="black" d="M2192.99,-359.82C2192.69,-340.47 2189.47,-308.99 2173.48,-288 2159.54,-269.7 2137.47,-257.13 2117.42,-248.85"/>
<polygon fill="black" stroke="black" points="2118.87,-245.65 2108.28,-245.33 2116.36,-252.19 2118.87,-245.65"/>
</g>
<!-- gz&#45;gui&#45;&gt;gz&#45;sim -->
<g id="edge46" class="edge">
<title>gz&#45;gui&#45;&gt;gz&#45;sim</title>
<path fill="none" stroke="black" d="M1929.88,-292.97C1957.73,-281.57 1999.79,-264.35 2030.84,-251.64"/>
<polygon fill="black" stroke="black" points="2031.99,-254.95 2039.92,-247.92 2029.34,-248.47 2031.99,-254.95"/>
</g>
<!-- gz&#45;gui&#45;&gt;gz&#45;launch -->
<g id="edge47" class="edge">
<title>gz&#45;gui&#45;&gt;gz&#45;launch</title>
<path fill="none" stroke="black" d="M1906.64,-287.87C1915.29,-263.78 1931.16,-219.6 1941.51,-190.77"/>
<polygon fill="black" stroke="black" points="1944.71,-192.21 1944.8,-181.61 1938.12,-189.84 1944.71,-192.21"/>
</g>
<!-- gz&#45;sensors&#45;&gt;gz&#45;sim -->
<g id="edge48" class="edge">
<title>gz&#45;sensors&#45;&gt;gz&#45;sim</title>
<path fill="none" stroke="black" d="M2093.32,-287.7C2090.19,-280.15 2086.45,-271.12 2082.95,-262.68"/>
<polygon fill="black" stroke="black" points="2086.21,-261.4 2079.15,-253.5 2079.74,-264.08 2086.21,-261.4"/>
</g>
<!-- gz&#45;sim&#45;&gt;gz&#45;launch -->
<g id="edge49" class="edge">
<title>gz&#45;sim&#45;&gt;gz&#45;launch</title>
<path fill="none" stroke="black" d="M2046.91,-218.67C2029.94,-208.77 2007.07,-195.43 1987.98,-184.29"/>
<polygon fill="black" stroke="black" points="1989.82,-181.31 1979.42,-179.29 1986.29,-187.36 1989.82,-181.31"/>
</g>
<!-- openvino -->
<g id="node44" class="node">
<title>openvino</title>
<g id="a_node44"><a xlink:href="https://github.com/conda-forge/openvino-feedstock/pull/108" xlink:title="openvino ❎">
<ellipse fill="#31688e" stroke="black" cx="1374.7" cy="-1142" rx="71.73" ry="18"/>
<text text-anchor="middle" x="1374.7" y="-1137.33" font-family="Times,serif" font-size="14.00" fill="white">openvino ❎</text>
</a>
</g>
</g>
<!-- openvino&#45;&gt;opencv -->
<g id="edge50" class="edge">
<title>openvino&#45;&gt;opencv</title>
<path fill="none" stroke="black" d="M1388.5,-1124.05C1395.32,-1115.68 1403.68,-1105.4 1411.23,-1096.13"/>
<polygon fill="black" stroke="black" points="1413.87,-1098.45 1417.47,-1088.48 1408.44,-1094.03 1413.87,-1098.45"/>
</g>
<!-- openvino&#45;&gt;openvino&#45;tokenizers -->
<g id="edge51" class="edge">
<title>openvino&#45;&gt;openvino&#45;tokenizers</title>
<path fill="none" stroke="black" d="M1330.35,-1127.5C1295.11,-1116.78 1245.41,-1101.65 1206.3,-1089.75"/>
<polygon fill="black" stroke="black" points="1207.35,-1086.41 1196.76,-1086.85 1205.31,-1093.11 1207.35,-1086.41"/>
</g>
<!-- bloaty -->
<g id="node46" class="node">
<title>bloaty</title>
<g id="a_node46"><a xlink:href="https://github.com/conda-forge/bloaty-feedstock" xlink:title="bloaty">
<ellipse fill="#000000" stroke="black" cx="859.14" cy="-234" rx="42.26" ry="18"/>
<text text-anchor="middle" x="859.14" y="-229.32" font-family="Times,serif" font-size="14.00" fill="white">bloaty</text>
</a>
</g>
</g>
<!-- gcld3&#45;&gt;bloaty -->
<!-- gz&#45;sim&#45;yarp&#45;plugins -->
<g id="node51" class="node">
<title>gz&#45;sim&#45;yarp&#45;plugins</title>
<g id="a_node51"><a xlink:href="https://github.com/conda-forge/gz-sim-yarp-plugins-feedstock" xlink:title="gz sim yarp plugins">
<ellipse fill="#ff8c00" stroke="black" cx="859.14" cy="-162" rx="109.61" ry="18"/>
<text text-anchor="middle" x="859.14" y="-157.32" font-family="Times,serif" font-size="14.00">gz sim yarp plugins</text>
</a>
</g>
</g>
<!-- bloaty&#45;&gt;gz&#45;sim&#45;yarp&#45;plugins -->
<!-- google&#45;cloud&#45;cpp&#45;core -->
<g id="node47" class="node">
<title>google&#45;cloud&#45;cpp&#45;core</title>
<g id="a_node47"><a xlink:href="https://github.com/conda-forge/google-cloud-cpp-core-feedstock" xlink:title="google cloud cpp core">
<ellipse fill="#000000" stroke="black" cx="713.7" cy="-1142" rx="120.13" ry="18"/>
<text text-anchor="middle" x="713.7" y="-1137.33" font-family="Times,serif" font-size="14.00" fill="white">google cloud cpp core</text>
</a>
</g>
</g>
<!-- google&#45;cloud&#45;cpp&#45;core&#45;&gt;arrow&#45;cpp -->
<g id="edge54" class="edge">
<title>google&#45;cloud&#45;cpp&#45;core&#45;&gt;arrow&#45;cpp</title>
<path fill="none" stroke="black" d="M766.96,-1125.46C806.73,-1113.87 860.82,-1098.09 900.56,-1086.5"/>
<polygon fill="black" stroke="black" points="901.28,-1089.93 909.9,-1083.77 899.32,-1083.21 901.28,-1089.93"/>
</g>
<!-- google&#45;cloud&#45;cpp&#45;core&#45;&gt;google&#45;cloud&#45;cpp -->
<g id="edge55" class="edge">
<title>google&#45;cloud&#45;cpp&#45;core&#45;&gt;google&#45;cloud&#45;cpp</title>
<path fill="none" stroke="black" d="M734.46,-1124.05C781.62,-1083.55 888.43,-979.2 830.7,-908 811.29,-884.06 739.52,-870.52 677.67,-863.12"/>
<polygon fill="black" stroke="black" points="678.09,-859.65 667.75,-861.99 677.29,-866.6 678.09,-859.65"/>
</g>
<!-- google&#45;cloud&#45;cpp&#45;compute -->
<g id="node48" class="node">
<title>google&#45;cloud&#45;cpp&#45;compute</title>
<g id="a_node48"><a xlink:href="https://github.com/conda-forge/google-cloud-cpp-compute-feedstock" xlink:title="google cloud cpp compute">
<ellipse fill="#fde725" stroke="black" cx="141.7" cy="-926" rx="141.7" ry="18"/>
<text text-anchor="middle" x="141.7" y="-921.33" font-family="Times,serif" font-size="14.00">google cloud cpp compute</text>
</a>
</g>
</g>
<!-- google&#45;cloud&#45;cpp&#45;core&#45;&gt;google&#45;cloud&#45;cpp&#45;compute -->
<g id="edge56" class="edge">
<title>google&#45;cloud&#45;cpp&#45;core&#45;&gt;google&#45;cloud&#45;cpp&#45;compute</title>
<path fill="none" stroke="black" d="M670.71,-1124.92C568.27,-1086.59 309.89,-989.92 196.49,-947.5"/>
<polygon fill="black" stroke="black" points="197.99,-944.32 187.4,-944.1 195.53,-950.88 197.99,-944.32"/>
</g>
<!-- google&#45;cloud&#45;cpp&#45;bigquery -->
<g id="node49" class="node">
<title>google&#45;cloud&#45;cpp&#45;bigquery</title>
<g id="a_node49"><a xlink:href="https://github.com/conda-forge/google-cloud-cpp-bigquery-feedstock" xlink:title="google cloud cpp bigquery">
<ellipse fill="#fde725" stroke="black" cx="444.7" cy="-926" rx="143.28" ry="18"/>
<text text-anchor="middle" x="444.7" y="-921.33" font-family="Times,serif" font-size="14.00">google cloud cpp bigquery</text>
</a>
</g>
</g>
<!-- google&#45;cloud&#45;cpp&#45;core&#45;&gt;google&#45;cloud&#45;cpp&#45;bigquery -->
<g id="edge57" class="edge">
<title>google&#45;cloud&#45;cpp&#45;core&#45;&gt;google&#45;cloud&#45;cpp&#45;bigquery</title>
<path fill="none" stroke="black" d="M692.14,-1123.85C644.53,-1085.97 530.27,-995.08 475.28,-951.33"/>
<polygon fill="black" stroke="black" points="477.55,-948.66 467.55,-945.17 473.19,-954.14 477.55,-948.66"/>
</g>
<!-- google&#45;cloud&#45;cpp&#45;ai -->
<g id="node50" class="node">
<title>google&#45;cloud&#45;cpp&#45;ai</title>
<g id="a_node50"><a xlink:href="https://github.com/conda-forge/google-cloud-cpp-ai-feedstock" xlink:title="google cloud cpp ai">
<ellipse fill="#fde725" stroke="black" cx="713.7" cy="-926" rx="107.5" ry="18"/>
<text text-anchor="middle" x="713.7" y="-921.33" font-family="Times,serif" font-size="14.00">google cloud cpp ai</text>
</a>
</g>
</g>
<!-- google&#45;cloud&#45;cpp&#45;core&#45;&gt;google&#45;cloud&#45;cpp&#45;ai -->
<g id="edge58" class="edge">
<title>google&#45;cloud&#45;cpp&#45;core&#45;&gt;google&#45;cloud&#45;cpp&#45;ai</title>
<path fill="none" stroke="black" d="M713.7,-1123.85C713.7,-1087.14 713.7,-1000.66 713.7,-955.53"/>
<polygon fill="black" stroke="black" points="717.2,-955.75 713.7,-945.75 710.2,-955.75 717.2,-955.75"/>
</g>
<!-- google&#45;cloud&#45;cpp&#45;compute&#45;&gt;google&#45;cloud&#45;cpp -->
<g id="edge59" class="edge">
<title>google&#45;cloud&#45;cpp&#45;compute&#45;&gt;google&#45;cloud&#45;cpp</title>
<path fill="none" stroke="black" d="M227.45,-911.3C305.67,-898.8 420.46,-880.45 497.53,-868.13"/>
<polygon fill="black" stroke="black" points="497.8,-871.63 507.13,-866.6 496.7,-864.72 497.8,-871.63"/>
</g>
<!-- google&#45;cloud&#45;cpp&#45;bigquery&#45;&gt;google&#45;cloud&#45;cpp -->
<g id="edge60" class="edge">
<title>google&#45;cloud&#45;cpp&#45;bigquery&#45;&gt;google&#45;cloud&#45;cpp</title>
<path fill="none" stroke="black" d="M477.38,-908.05C495.64,-898.59 518.57,-886.7 538.1,-876.57"/>
<polygon fill="black" stroke="black" points="539.64,-879.71 546.91,-872 536.42,-873.5 539.64,-879.71"/>
</g>
<!-- google&#45;cloud&#45;cpp&#45;ai&#45;&gt;google&#45;cloud&#45;cpp -->
<g id="edge61" class="edge">
<title>google&#45;cloud&#45;cpp&#45;ai&#45;&gt;google&#45;cloud&#45;cpp</title>
<path fill="none" stroke="black" d="M681.94,-908.41C663.84,-898.95 640.93,-886.99 621.39,-876.78"/>
<polygon fill="black" stroke="black" points="623.05,-873.7 612.57,-872.17 619.81,-879.9 623.05,-873.7"/>
</g>
<!-- bfiocpp -->
<g id="node52" class="node">
<title>bfiocpp</title>
<g id="a_node52"><a xlink:href="https://github.com/conda-forge/bfiocpp-feedstock/pull/10" xlink:title="bfiocpp ✓">
<ellipse fill="#31688e" stroke="black" cx="859.14" cy="-90" rx="55.42" ry="18"/>
<text text-anchor="middle" x="859.14" y="-85.33" font-family="Times,serif" font-size="14.00" fill="white">bfiocpp ✓</text>
</a>
</g>
</g>
<!-- gz&#45;sim&#45;yarp&#45;plugins&#45;&gt;bfiocpp -->
<!-- mysqlx&#45;connector&#45;python -->
<g id="node53" class="node">
<title>mysqlx&#45;connector&#45;python</title>
<g id="a_node53"><a xlink:href="https://github.com/conda-forge/mysqlx-connector-python-feedstock/pull/9" xlink:title="mysqlx connector python ✓">
<ellipse fill="#31688e" stroke="black" cx="859.14" cy="-18" rx="145.38" ry="18"/>
<text text-anchor="middle" x="859.14" y="-13.32" font-family="Times,serif" font-size="14.00" fill="white">mysqlx connector python ✓</text>
</a>
</g>
</g>
<!-- bfiocpp&#45;&gt;mysqlx&#45;connector&#45;python -->
</g>
</svg>
