<?xml version="1.0" encoding="UTF-8" standalone="no"?>
<!DOCTYPE svg PUBLIC "-//W3C//DTD SVG 1.1//EN"
 "http://www.w3.org/Graphics/SVG/1.1/DTD/svg11.dtd">
<!-- Generated by graphviz version 12.0.0 (20240803.0821)
 -->
<!-- Pages: 1 -->
<svg width="2073pt" height="1096pt"
 viewBox="0.00 0.00 2073.49 1096.00" xmlns="http://www.w3.org/2000/svg" xmlns:xlink="http://www.w3.org/1999/xlink">
<g id="graph0" class="graph" transform="scale(1 1) rotate(0) translate(4 1092)">
<polygon fill="white" stroke="none" points="-4,4 -4,-1092 2069.49,-1092 2069.49,4 -4,4"/>
<!-- arrow&#45;cpp -->
<g id="node1" class="node">
<title>arrow&#45;cpp</title>
<g id="a_node1"><a xlink:href="https://github.com/conda-forge/arrow-cpp-feedstock" xlink:title="arrow cpp">
<ellipse fill="#fde725" stroke="black" cx="1032.5" cy="-782" rx="61.73" ry="18"/>
<text text-anchor="middle" x="1032.5" y="-777.33" font-family="Times,serif" font-size="14.00">arrow cpp</text>
</a>
</g>
</g>
<!-- ray&#45;packages -->
<g id="node2" class="node">
<title>ray&#45;packages</title>
<g id="a_node2"><a xlink:href="https://github.com/conda-forge/ray-packages-feedstock" xlink:title="ray packages">
<ellipse fill="#fde725" stroke="black" cx="1212.5" cy="-710" rx="76.99" ry="18"/>
<text text-anchor="middle" x="1212.5" y="-705.33" font-family="Times,serif" font-size="14.00">ray packages</text>
</a>
</g>
</g>
<!-- arrow&#45;cpp&#45;&gt;ray&#45;packages -->
<g id="edge1" class="edge">
<title>arrow&#45;cpp&#45;&gt;ray&#45;packages</title>
<path fill="none" stroke="black" d="M1068.5,-767C1095.73,-756.41 1133.42,-741.75 1163.42,-730.09"/>
<polygon fill="black" stroke="black" points="1164.62,-733.38 1172.67,-726.49 1162.08,-726.85 1164.62,-733.38"/>
</g>
<!-- datafusion -->
<g id="node3" class="node">
<title>datafusion</title>
<g id="a_node3"><a xlink:href="https://github.com/conda-forge/datafusion-feedstock" xlink:title="datafusion">
<ellipse fill="#fde725" stroke="black" cx="940.5" cy="-710" rx="63.84" ry="18"/>
<text text-anchor="middle" x="940.5" y="-705.33" font-family="Times,serif" font-size="14.00">datafusion</text>
</a>
</g>
</g>
<!-- arrow&#45;cpp&#45;&gt;datafusion -->
<g id="edge2" class="edge">
<title>arrow&#45;cpp&#45;&gt;datafusion</title>
<path fill="none" stroke="black" d="M1011.17,-764.76C999.29,-755.73 984.3,-744.33 971.19,-734.35"/>
<polygon fill="black" stroke="black" points="973.33,-731.58 963.25,-728.31 969.09,-737.15 973.33,-731.58"/>
</g>
<!-- arcticdb -->
<g id="node4" class="node">
<title>arcticdb</title>
<g id="a_node4"><a xlink:href="https://github.com/conda-forge/arcticdb-feedstock" xlink:title="arcticdb">
<ellipse fill="#fde725" stroke="black" cx="1027.5" cy="-638" rx="52.26" ry="18"/>
<text text-anchor="middle" x="1027.5" y="-633.33" font-family="Times,serif" font-size="14.00">arcticdb</text>
</a>
</g>
</g>
<!-- arrow&#45;cpp&#45;&gt;arcticdb -->
<g id="edge3" class="edge">
<title>arrow&#45;cpp&#45;&gt;arcticdb</title>
<path fill="none" stroke="black" d="M1031.89,-763.59C1031.05,-739.61 1029.52,-696.14 1028.5,-667.42"/>
<polygon fill="black" stroke="black" points="1032.01,-667.49 1028.16,-657.62 1025.01,-667.74 1032.01,-667.49"/>
</g>
<!-- csp -->
<g id="node5" class="node">
<title>csp</title>
<g id="a_node5"><a xlink:href="https://github.com/conda-forge/csp-feedstock" xlink:title="csp">
<ellipse fill="#fde725" stroke="black" cx="1107.5" cy="-566" rx="28.06" ry="18"/>
<text text-anchor="middle" x="1107.5" y="-561.33" font-family="Times,serif" font-size="14.00">csp</text>
</a>
</g>
</g>
<!-- arrow&#45;cpp&#45;&gt;csp -->
<g id="edge4" class="edge">
<title>arrow&#45;cpp&#45;&gt;csp</title>
<path fill="none" stroke="black" d="M1041.48,-764.07C1053.67,-740.45 1075.43,-696.01 1088.5,-656 1094.96,-636.23 1099.8,-613.26 1102.98,-595.61"/>
<polygon fill="black" stroke="black" points="1106.42,-596.29 1104.66,-585.84 1099.52,-595.1 1106.42,-596.29"/>
</g>
<!-- bazel -->
<g id="node6" class="node">
<title>bazel</title>
<g id="a_node6"><a xlink:href="https://github.com/conda-forge/bazel-feedstock/pull/247" xlink:title="bazel ❎">
<ellipse fill="#31688e" stroke="black" cx="1480.32" cy="-1070" rx="52.79" ry="18"/>
<text text-anchor="middle" x="1480.32" y="-1065.33" font-family="Times,serif" font-size="14.00" fill="white">bazel ❎</text>
</a>
</g>
</g>
<!-- mosh -->
<g id="node7" class="node">
<title>mosh</title>
<g id="a_node7"><a xlink:href="https://github.com/conda-forge/mosh-feedstock/pull/41" xlink:title="mosh ❎">
<ellipse fill="#31688e" stroke="black" cx="1480.32" cy="-998" rx="53.31" ry="18"/>
<text text-anchor="middle" x="1480.32" y="-993.33" font-family="Times,serif" font-size="14.00" fill="white">mosh ❎</text>
</a>
</g>
</g>
<!-- bazel&#45;&gt;mosh -->
<!-- mysql -->
<g id="node8" class="node">
<title>mysql</title>
<g id="a_node8"><a xlink:href="https://github.com/conda-forge/mysql-feedstock/pull/104" xlink:title="mysql ✓">
<ellipse fill="#31688e" stroke="black" cx="1480.32" cy="-926" rx="49.1" ry="18"/>
<text text-anchor="middle" x="1480.32" y="-921.33" font-family="Times,serif" font-size="14.00" fill="white">mysql ✓</text>
</a>
</g>
</g>
<!-- mosh&#45;&gt;mysql -->
<!-- qgis -->
<g id="node9" class="node">
<title>qgis</title>
<g id="a_node9"><a xlink:href="https://github.com/conda-forge/qgis-feedstock" xlink:title="qgis">
<ellipse fill="#000000" stroke="black" cx="1480.32" cy="-854" rx="32.27" ry="18"/>
<text text-anchor="middle" x="1480.32" y="-849.33" font-family="Times,serif" font-size="14.00" fill="white">qgis</text>
</a>
</g>
</g>
<!-- mysql&#45;&gt;qgis -->
<!-- tensorflow -->
<g id="node10" class="node">
<title>tensorflow</title>
<g id="a_node10"><a xlink:href="https://github.com/conda-forge/tensorflow-feedstock/pull/407" xlink:title="tensorflow ❎">
<ellipse fill="#31688e" stroke="black" cx="1480.32" cy="-782" rx="79.09" ry="18"/>
<text text-anchor="middle" x="1480.32" y="-777.33" font-family="Times,serif" font-size="14.00" fill="white">tensorflow ❎</text>
</a>
</g>
</g>
<!-- qgis&#45;&gt;tensorflow -->
<!-- r&#45;protolite -->
<g id="node11" class="node">
<title>r&#45;protolite</title>
<g id="a_node11"><a xlink:href="https://github.com/conda-forge/r-protolite-feedstock" xlink:title="r protolite">
<ellipse fill="#ff8c00" stroke="black" cx="1480.32" cy="-710" rx="62.26" ry="18"/>
<text text-anchor="middle" x="1480.32" y="-705.33" font-family="Times,serif" font-size="14.00">r protolite</text>
</a>
</g>
</g>
<!-- tensorflow&#45;&gt;r&#45;protolite -->
<!-- go&#45;cockroach -->
<g id="node12" class="node">
<title>go&#45;cockroach</title>
<g id="a_node12"><a xlink:href="https://github.com/conda-forge/go-cockroach-feedstock" xlink:title="go cockroach">
<ellipse fill="#ff8c00" stroke="black" cx="1480.32" cy="-638" rx="76.46" ry="18"/>
<text text-anchor="middle" x="1480.32" y="-633.33" font-family="Times,serif" font-size="14.00">go cockroach</text>
</a>
</g>
</g>
<!-- r&#45;protolite&#45;&gt;go&#45;cockroach -->
<!-- tomviz -->
<g id="node18" class="node">
<title>tomviz</title>
<g id="a_node18"><a xlink:href="https://github.com/conda-forge/tomviz-feedstock" xlink:title="tomviz">
<ellipse fill="#fde725" stroke="black" cx="1480.32" cy="-566" rx="44.9" ry="18"/>
<text text-anchor="middle" x="1480.32" y="-561.33" font-family="Times,serif" font-size="14.00">tomviz</text>
</a>
</g>
</g>
<!-- go&#45;cockroach&#45;&gt;tomviz -->
<!-- pytorch&#45;cpu -->
<g id="node13" class="node">
<title>pytorch&#45;cpu</title>
<g id="a_node13"><a xlink:href="https://github.com/conda-forge/pytorch-cpu-feedstock/pull/279" xlink:title="pytorch cpu ❎">
<ellipse fill="#31688e" stroke="black" cx="1207.5" cy="-782" rx="85.93" ry="18"/>
<text text-anchor="middle" x="1207.5" y="-777.33" font-family="Times,serif" font-size="14.00" fill="white">pytorch cpu ❎</text>
</a>
</g>
</g>
<!-- pytorch&#45;cpu&#45;&gt;ray&#45;packages -->
<g id="edge11" class="edge">
<title>pytorch&#45;cpu&#45;&gt;ray&#45;packages</title>
<path fill="none" stroke="black" d="M1208.74,-763.7C1209.26,-756.41 1209.88,-747.73 1210.46,-739.54"/>
<polygon fill="black" stroke="black" points="1213.95,-739.84 1211.17,-729.61 1206.97,-739.34 1213.95,-739.84"/>
</g>
<!-- jaxlib -->
<g id="node14" class="node">
<title>jaxlib</title>
<g id="a_node14"><a xlink:href="https://github.com/conda-forge/jaxlib-feedstock" xlink:title="jaxlib">
<ellipse fill="#ff8c00" stroke="black" cx="1321.5" cy="-854" rx="38.58" ry="18"/>
<text text-anchor="middle" x="1321.5" y="-849.33" font-family="Times,serif" font-size="14.00">jaxlib</text>
</a>
</g>
</g>
<!-- jaxlib&#45;&gt;ray&#45;packages -->
<g id="edge12" class="edge">
<title>jaxlib&#45;&gt;ray&#45;packages</title>
<path fill="none" stroke="black" d="M1321.8,-835.62C1321.27,-816.38 1317.84,-785.28 1302.5,-764 1292.43,-750.02 1277.42,-739.11 1262.54,-730.92"/>
<polygon fill="black" stroke="black" points="1264.16,-727.82 1253.67,-726.37 1260.97,-734.05 1264.16,-727.82"/>
</g>
<!-- gazebo -->
<g id="node15" class="node">
<title>gazebo</title>
<g id="a_node15"><a xlink:href="https://github.com/conda-forge/gazebo-feedstock" xlink:title="gazebo">
<ellipse fill="#ff8c00" stroke="black" cx="1480.32" cy="-198" rx="46.47" ry="18"/>
<text text-anchor="middle" x="1480.32" y="-193.32" font-family="Times,serif" font-size="14.00">gazebo</text>
</a>
</g>
</g>
<!-- gazebo&#45;yarp&#45;plugins -->
<g id="node16" class="node">
<title>gazebo&#45;yarp&#45;plugins</title>
<g id="a_node16"><a xlink:href="https://github.com/conda-forge/gazebo-yarp-plugins-feedstock" xlink:title="gazebo yarp plugins">
<ellipse fill="#fde725" stroke="black" cx="1480.32" cy="-126" rx="112.24" ry="18"/>
<text text-anchor="middle" x="1480.32" y="-121.33" font-family="Times,serif" font-size="14.00">gazebo yarp plugins</text>
</a>
</g>
</g>
<!-- gazebo&#45;&gt;gazebo&#45;yarp&#45;plugins -->
<g id="edge13" class="edge">
<title>gazebo&#45;&gt;gazebo&#45;yarp&#45;plugins</title>
<path fill="none" stroke="black" d="M1480.32,-179.7C1480.32,-172.41 1480.32,-163.73 1480.32,-155.54"/>
<polygon fill="black" stroke="black" points="1483.82,-155.62 1480.32,-145.62 1476.82,-155.62 1483.82,-155.62"/>
</g>
<!-- google&#45;cloud&#45;cpp -->
<g id="node17" class="node">
<title>google&#45;cloud&#45;cpp</title>
<g id="a_node17"><a xlink:href="https://github.com/conda-forge/google-cloud-cpp-feedstock" xlink:title="google cloud cpp">
<ellipse fill="#fde725" stroke="black" cx="459.5" cy="-566" rx="95.4" ry="18"/>
<text text-anchor="middle" x="459.5" y="-561.33" font-family="Times,serif" font-size="14.00">google cloud cpp</text>
</a>
</g>
</g>
<!-- or&#45;tools -->
<g id="node19" class="node">
<title>or&#45;tools</title>
<g id="a_node19"><a xlink:href="https://github.com/conda-forge/or-tools-feedstock/pull/63" xlink:title="or tools ❎">
<ellipse fill="#31688e" stroke="black" cx="1480.32" cy="-494" rx="64.36" ry="18"/>
<text text-anchor="middle" x="1480.32" y="-489.32" font-family="Times,serif" font-size="14.00" fill="white">or tools ❎</text>
</a>
</g>
</g>
<!-- tomviz&#45;&gt;or&#45;tools -->
<!-- bear -->
<g id="node20" class="node">
<title>bear</title>
<g id="a_node20"><a xlink:href="https://github.com/conda-forge/bear-feedstock/pull/52" xlink:title="bear ❎">
<ellipse fill="#31688e" stroke="black" cx="1480.32" cy="-422" rx="49.1" ry="18"/>
<text text-anchor="middle" x="1480.32" y="-417.32" font-family="Times,serif" font-size="14.00" fill="white">bear ❎</text>
</a>
</g>
</g>
<!-- or&#45;tools&#45;&gt;bear -->
<!-- xilinx&#45;runtime -->
<g id="node21" class="node">
<title>xilinx&#45;runtime</title>
<g id="a_node21"><a xlink:href="https://github.com/conda-forge/xilinx-runtime-feedstock/pull/38" xlink:title="xilinx runtime ❎">
<ellipse fill="#31688e" stroke="black" cx="1480.32" cy="-350" rx="96.98" ry="18"/>
<text text-anchor="middle" x="1480.32" y="-345.32" font-family="Times,serif" font-size="14.00" fill="white">xilinx runtime ❎</text>
</a>
</g>
</g>
<!-- bear&#45;&gt;xilinx&#45;runtime -->
<!-- gz&#45;transport -->
<g id="node22" class="node">
<title>gz&#45;transport</title>
<g id="a_node22"><a xlink:href="https://github.com/conda-forge/gz-transport-feedstock" xlink:title="gz transport">
<ellipse fill="#000000" stroke="black" cx="1954.81" cy="-818" rx="73.3" ry="18"/>
<text text-anchor="middle" x="1954.81" y="-813.33" font-family="Times,serif" font-size="14.00" fill="white">gz transport</text>
</a>
</g>
</g>
<!-- gz&#45;gui -->
<g id="node23" class="node">
<title>gz&#45;gui</title>
<g id="a_node23"><a xlink:href="https://github.com/conda-forge/gz-gui-feedstock" xlink:title="gz gui">
<ellipse fill="#fde725" stroke="black" cx="1989.81" cy="-746" rx="41.74" ry="18"/>
<text text-anchor="middle" x="1989.81" y="-741.33" font-family="Times,serif" font-size="14.00">gz gui</text>
</a>
</g>
</g>
<!-- gz&#45;transport&#45;&gt;gz&#45;gui -->
<g id="edge18" class="edge">
<title>gz&#45;transport&#45;&gt;gz&#45;gui</title>
<path fill="none" stroke="black" d="M1963.46,-799.7C1967.28,-792.07 1971.85,-782.92 1976.11,-774.4"/>
<polygon fill="black" stroke="black" points="1979.24,-775.97 1980.58,-765.46 1972.98,-772.84 1979.24,-775.97"/>
</g>
<!-- gz&#45;sensors -->
<g id="node24" class="node">
<title>gz&#45;sensors</title>
<g id="a_node24"><a xlink:href="https://github.com/conda-forge/gz-sensors-feedstock" xlink:title="gz sensors">
<ellipse fill="#fde725" stroke="black" cx="1827.81" cy="-746" rx="64.36" ry="18"/>
<text text-anchor="middle" x="1827.81" y="-741.33" font-family="Times,serif" font-size="14.00">gz sensors</text>
</a>
</g>
</g>
<!-- gz&#45;transport&#45;&gt;gz&#45;sensors -->
<g id="edge19" class="edge">
<title>gz&#45;transport&#45;&gt;gz&#45;sensors</title>
<path fill="none" stroke="black" d="M1925.99,-801.12C1908.25,-791.34 1885.3,-778.69 1866.05,-768.07"/>
<polygon fill="black" stroke="black" points="1867.85,-765.07 1857.4,-763.31 1864.47,-771.2 1867.85,-765.07"/>
</g>
<!-- gz&#45;sim -->
<g id="node25" class="node">
<title>gz&#45;sim</title>
<g id="a_node25"><a xlink:href="https://github.com/conda-forge/gz-sim-feedstock" xlink:title="gz sim">
<ellipse fill="#fde725" stroke="black" cx="1918.81" cy="-674" rx="43.84" ry="18"/>
<text text-anchor="middle" x="1918.81" y="-669.33" font-family="Times,serif" font-size="14.00">gz sim</text>
</a>
</g>
</g>
<!-- gz&#45;transport&#45;&gt;gz&#45;sim -->
<g id="edge20" class="edge">
<title>gz&#45;transport&#45;&gt;gz&#45;sim</title>
<path fill="none" stroke="black" d="M1949.31,-799.9C1946.07,-789.56 1941.99,-776.08 1938.81,-764 1933.51,-743.84 1928.37,-720.88 1924.63,-703.33"/>
<polygon fill="black" stroke="black" points="1928.08,-702.7 1922.59,-693.63 1921.23,-704.14 1928.08,-702.7"/>
</g>
<!-- gz&#45;launch -->
<g id="node26" class="node">
<title>gz&#45;launch</title>
<g id="a_node26"><a xlink:href="https://github.com/conda-forge/gz-launch-feedstock" xlink:title="gz launch">
<ellipse fill="#fde725" stroke="black" cx="1990.81" cy="-602" rx="59.1" ry="18"/>
<text text-anchor="middle" x="1990.81" y="-597.33" font-family="Times,serif" font-size="14.00">gz launch</text>
</a>
</g>
</g>
<!-- gz&#45;transport&#45;&gt;gz&#45;launch -->
<g id="edge21" class="edge">
<title>gz&#45;transport&#45;&gt;gz&#45;launch</title>
<path fill="none" stroke="black" d="M1994.94,-802.72C2012.31,-794.31 2030.89,-781.76 2040.81,-764 2065.49,-719.81 2034.01,-661.85 2010.98,-628.9"/>
<polygon fill="black" stroke="black" points="2014.06,-627.18 2005.36,-621.13 2008.39,-631.28 2014.06,-627.18"/>
</g>
<!-- gz&#45;gui&#45;&gt;gz&#45;sim -->
<g id="edge22" class="edge">
<title>gz&#45;gui&#45;&gt;gz&#45;sim</title>
<path fill="none" stroke="black" d="M1973.7,-729.12C1964.62,-720.17 1953.1,-708.81 1942.97,-698.81"/>
<polygon fill="black" stroke="black" points="1945.51,-696.41 1935.94,-691.88 1940.6,-701.4 1945.51,-696.41"/>
</g>
<!-- gz&#45;gui&#45;&gt;gz&#45;launch -->
<g id="edge23" class="edge">
<title>gz&#45;gui&#45;&gt;gz&#45;launch</title>
<path fill="none" stroke="black" d="M1989.93,-727.59C1990.1,-703.61 1990.41,-660.14 1990.61,-631.42"/>
<polygon fill="black" stroke="black" points="1994.11,-631.65 1990.68,-621.62 1987.11,-631.6 1994.11,-631.65"/>
</g>
<!-- gz&#45;sensors&#45;&gt;gz&#45;sim -->
<g id="edge24" class="edge">
<title>gz&#45;sensors&#45;&gt;gz&#45;sim</title>
<path fill="none" stroke="black" d="M1848.92,-728.76C1861.12,-719.38 1876.64,-707.44 1889.96,-697.2"/>
<polygon fill="black" stroke="black" points="1891.76,-700.22 1897.56,-691.35 1887.5,-694.67 1891.76,-700.22"/>
</g>
<!-- gz&#45;sim&#45;&gt;gz&#45;launch -->
<g id="edge25" class="edge">
<title>gz&#45;sim&#45;&gt;gz&#45;launch</title>
<path fill="none" stroke="black" d="M1935.15,-657.12C1944.16,-648.36 1955.54,-637.29 1965.66,-627.45"/>
<polygon fill="black" stroke="black" points="1967.97,-630.09 1972.7,-620.61 1963.09,-625.07 1967.97,-630.09"/>
</g>
<!-- gz&#45;fuel&#45;tools -->
<g id="node27" class="node">
<title>gz&#45;fuel&#45;tools</title>
<g id="a_node27"><a xlink:href="https://github.com/conda-forge/gz-fuel-tools-feedstock" xlink:title="gz fuel tools">
<ellipse fill="#ff8c00" stroke="black" cx="1672.81" cy="-746" rx="72.25" ry="18"/>
<text text-anchor="middle" x="1672.81" y="-741.33" font-family="Times,serif" font-size="14.00">gz fuel tools</text>
</a>
</g>
</g>
<!-- gz&#45;fuel&#45;tools&#45;&gt;gz&#45;sim -->
<g id="edge26" class="edge">
<title>gz&#45;fuel&#45;tools&#45;&gt;gz&#45;sim</title>
<path fill="none" stroke="black" d="M1719.08,-731.83C1763,-719.34 1828.64,-700.66 1872.55,-688.16"/>
<polygon fill="black" stroke="black" points="1873.38,-691.57 1882.04,-685.46 1871.47,-684.83 1873.38,-691.57"/>
</g>
<!-- gcld3 -->
<g id="node28" class="node">
<title>gcld3</title>
<g id="a_node28"><a xlink:href="https://github.com/conda-forge/gcld3-feedstock/pull/14" xlink:title="gcld3 ✓">
<ellipse fill="#31688e" stroke="black" cx="680.04" cy="-306" rx="46.47" ry="18"/>
<text text-anchor="middle" x="680.04" y="-301.32" font-family="Times,serif" font-size="14.00" fill="white">gcld3 ✓</text>
</a>
</g>
</g>
<!-- openvino&#45;tokenizers -->
<g id="node29" class="node">
<title>openvino&#45;tokenizers</title>
<g id="a_node29"><a xlink:href="https://github.com/conda-forge/openvino-tokenizers-feedstock" xlink:title="openvino tokenizers">
<ellipse fill="#ff8c00" stroke="black" cx="680.04" cy="-234" rx="111.71" ry="18"/>
<text text-anchor="middle" x="680.04" y="-229.32" font-family="Times,serif" font-size="14.00">openvino tokenizers</text>
</a>
</g>
</g>
<!-- gcld3&#45;&gt;openvino&#45;tokenizers -->
<!-- bloaty -->
<g id="node30" class="node">
<title>bloaty</title>
<g id="a_node30"><a xlink:href="https://github.com/conda-forge/bloaty-feedstock/pull/5" xlink:title="bloaty ✓">
<ellipse fill="#31688e" stroke="black" cx="680.04" cy="-162" rx="50.16" ry="18"/>
<text text-anchor="middle" x="680.04" y="-157.32" font-family="Times,serif" font-size="14.00" fill="white">bloaty ✓</text>
</a>
</g>
</g>
<!-- openvino&#45;tokenizers&#45;&gt;bloaty -->
<!-- gz&#45;sim&#45;yarp&#45;plugins -->
<g id="node35" class="node">
<title>gz&#45;sim&#45;yarp&#45;plugins</title>
<g id="a_node35"><a xlink:href="https://github.com/conda-forge/gz-sim-yarp-plugins-feedstock" xlink:title="gz sim yarp plugins">
<ellipse fill="#000000" stroke="black" cx="680.04" cy="-90" rx="109.61" ry="18"/>
<text text-anchor="middle" x="680.04" y="-85.33" font-family="Times,serif" font-size="14.00" fill="white">gz sim yarp plugins</text>
</a>
</g>
</g>
<!-- bloaty&#45;&gt;gz&#45;sim&#45;yarp&#45;plugins -->
<!-- google&#45;cloud&#45;cpp&#45;core -->
<g id="node31" class="node">
<title>google&#45;cloud&#45;cpp&#45;core</title>
<g id="a_node31"><a xlink:href="https://github.com/conda-forge/google-cloud-cpp-core-feedstock/pull/26" xlink:title="google cloud cpp core ❎">
<ellipse fill="#31688e" stroke="black" cx="544.5" cy="-854" rx="135.39" ry="18"/>
<text text-anchor="middle" x="544.5" y="-849.33" font-family="Times,serif" font-size="14.00" fill="white">google cloud cpp core ❎</text>
</a>
</g>
</g>
<!-- google&#45;cloud&#45;cpp&#45;core&#45;&gt;arrow&#45;cpp -->
<g id="edge29" class="edge">
<title>google&#45;cloud&#45;cpp&#45;core&#45;&gt;arrow&#45;cpp</title>
<path fill="none" stroke="black" d="M634.29,-840.12C730.59,-826.31 881.17,-804.71 966.92,-792.41"/>
<polygon fill="black" stroke="black" points="967.17,-795.91 976.57,-791.02 966.17,-788.98 967.17,-795.91"/>
</g>
<!-- google&#45;cloud&#45;cpp&#45;core&#45;&gt;google&#45;cloud&#45;cpp -->
<g id="edge30" class="edge">
<title>google&#45;cloud&#45;cpp&#45;core&#45;&gt;google&#45;cloud&#45;cpp</title>
<path fill="none" stroke="black" d="M547.5,-835.64C553.59,-795.11 563.83,-692.24 525.5,-620 519.27,-608.25 509.2,-598.19 498.78,-590.08"/>
<polygon fill="black" stroke="black" points="501,-587.37 490.85,-584.36 496.91,-593.05 501,-587.37"/>
</g>
<!-- google&#45;cloud&#45;cpp&#45;compute -->
<g id="node32" class="node">
<title>google&#45;cloud&#45;cpp&#45;compute</title>
<g id="a_node32"><a xlink:href="https://github.com/conda-forge/google-cloud-cpp-compute-feedstock" xlink:title="google cloud cpp compute">
<ellipse fill="#fde725" stroke="black" cx="374.5" cy="-638" rx="141.7" ry="18"/>
<text text-anchor="middle" x="374.5" y="-633.33" font-family="Times,serif" font-size="14.00">google cloud cpp compute</text>
</a>
</g>
</g>
<!-- google&#45;cloud&#45;cpp&#45;core&#45;&gt;google&#45;cloud&#45;cpp&#45;compute -->
<g id="edge31" class="edge">
<title>google&#45;cloud&#45;cpp&#45;core&#45;&gt;google&#45;cloud&#45;cpp&#45;compute</title>
<path fill="none" stroke="black" d="M530.88,-835.85C501.16,-798.44 430.37,-709.32 395.14,-664.98"/>
<polygon fill="black" stroke="black" points="398.09,-663.07 389.13,-657.42 392.61,-667.42 398.09,-663.07"/>
</g>
<!-- google&#45;cloud&#45;cpp&#45;bigquery -->
<g id="node33" class="node">
<title>google&#45;cloud&#45;cpp&#45;bigquery</title>
<g id="a_node33"><a xlink:href="https://github.com/conda-forge/google-cloud-cpp-bigquery-feedstock" xlink:title="google cloud cpp bigquery">
<ellipse fill="#fde725" stroke="black" cx="715.5" cy="-710" rx="143.28" ry="18"/>
<text text-anchor="middle" x="715.5" y="-705.33" font-family="Times,serif" font-size="14.00">google cloud cpp bigquery</text>
</a>
</g>
</g>
<!-- google&#45;cloud&#45;cpp&#45;core&#45;&gt;google&#45;cloud&#45;cpp&#45;bigquery -->
<g id="edge32" class="edge">
<title>google&#45;cloud&#45;cpp&#45;core&#45;&gt;google&#45;cloud&#45;cpp&#45;bigquery</title>
<path fill="none" stroke="black" d="M565.13,-835.87C595.3,-810.82 651.62,-764.05 686.11,-735.41"/>
<polygon fill="black" stroke="black" points="688.18,-738.24 693.64,-729.16 683.71,-732.85 688.18,-738.24"/>
</g>
<!-- google&#45;cloud&#45;cpp&#45;ai -->
<g id="node34" class="node">
<title>google&#45;cloud&#45;cpp&#45;ai</title>
<g id="a_node34"><a xlink:href="https://github.com/conda-forge/google-cloud-cpp-ai-feedstock" xlink:title="google cloud cpp ai">
<ellipse fill="#fde725" stroke="black" cx="107.5" cy="-638" rx="107.5" ry="18"/>
<text text-anchor="middle" x="107.5" y="-633.33" font-family="Times,serif" font-size="14.00">google cloud cpp ai</text>
</a>
</g>
</g>
<!-- google&#45;cloud&#45;cpp&#45;core&#45;&gt;google&#45;cloud&#45;cpp&#45;ai -->
<g id="edge33" class="edge">
<title>google&#45;cloud&#45;cpp&#45;core&#45;&gt;google&#45;cloud&#45;cpp&#45;ai</title>
<path fill="none" stroke="black" d="M510.21,-836.21C431.62,-797.72 238.54,-703.17 151.42,-660.51"/>
<polygon fill="black" stroke="black" points="153.21,-657.49 142.69,-656.23 150.13,-663.77 153.21,-657.49"/>
</g>
<!-- google&#45;cloud&#45;cpp&#45;compute&#45;&gt;google&#45;cloud&#45;cpp -->
<g id="edge34" class="edge">
<title>google&#45;cloud&#45;cpp&#45;compute&#45;&gt;google&#45;cloud&#45;cpp</title>
<path fill="none" stroke="black" d="M395.08,-620.05C405.55,-611.43 418.46,-600.8 429.97,-591.32"/>
<polygon fill="black" stroke="black" points="432.16,-594.05 437.65,-584.99 427.71,-588.65 432.16,-594.05"/>
</g>
<!-- google&#45;cloud&#45;cpp&#45;bigquery&#45;&gt;google&#45;cloud&#45;cpp -->
<g id="edge35" class="edge">
<title>google&#45;cloud&#45;cpp&#45;bigquery&#45;&gt;google&#45;cloud&#45;cpp</title>
<path fill="none" stroke="black" d="M686.11,-692.06C654.65,-673.99 603.23,-644.65 558.5,-620 539.52,-609.54 518.35,-598.17 500.48,-588.65"/>
<polygon fill="black" stroke="black" points="502.19,-585.59 491.71,-583.99 498.9,-591.78 502.19,-585.59"/>
</g>
<!-- google&#45;cloud&#45;cpp&#45;ai&#45;&gt;google&#45;cloud&#45;cpp -->
<g id="edge36" class="edge">
<title>google&#45;cloud&#45;cpp&#45;ai&#45;&gt;google&#45;cloud&#45;cpp</title>
<path fill="none" stroke="black" d="M174.96,-623.59C234.81,-611.68 322.15,-594.31 384.25,-581.96"/>
<polygon fill="black" stroke="black" points="384.93,-585.4 394.06,-580.02 383.57,-578.53 384.93,-585.4"/>
</g>
<!-- mysqlx&#45;connector&#45;python -->
<g id="node36" class="node">
<title>mysqlx&#45;connector&#45;python</title>
<g id="a_node36"><a xlink:href="https://github.com/conda-forge/mysqlx-connector-python-feedstock/pull/9" xlink:title="mysqlx connector python ✓">
<ellipse fill="#31688e" stroke="black" cx="680.04" cy="-18" rx="145.38" ry="18"/>
<text text-anchor="middle" x="680.04" y="-13.32" font-family="Times,serif" font-size="14.00" fill="white">mysqlx connector python ✓</text>
</a>
</g>
</g>
<!-- gz&#45;sim&#45;yarp&#45;plugins&#45;&gt;mysqlx&#45;connector&#45;python -->
</g>
</svg>
