<?xml version="1.0" encoding="UTF-8" standalone="no"?>
<!DOCTYPE svg PUBLIC "-//W3C//DTD SVG 1.1//EN"
 "http://www.w3.org/Graphics/SVG/1.1/DTD/svg11.dtd">
<!-- Generated by graphviz version 13.1.2 (20250809.0930)
 -->
<!-- Pages: 1 -->
<svg width="1108pt" height="188pt"
 viewBox="0.00 0.00 1108.00 188.00" xmlns="http://www.w3.org/2000/svg" xmlns:xlink="http://www.w3.org/1999/xlink">
<g id="graph0" class="graph" transform="scale(1 1) rotate(0) translate(4 184)">
<polygon fill="white" stroke="none" points="-4,4 -4,-184 1103.63,-184 1103.63,4 -4,4"/>
<!-- mpich -->
<g id="node1" class="node">
<title>mpich</title>
<g id="a_node1"><a xlink:href="https://github.com/conda-forge/mpich-feedstock/pull/134" xlink:title="mpich ❎">
<ellipse fill="#31688e" stroke="black" cx="259.73" cy="-162" rx="57" ry="18"/>
<text xml:space="preserve" text-anchor="middle" x="259.73" y="-157.32" font-family="Times,serif" font-size="14.00" fill="white">mpich ❎</text>
</a>
</g>
</g>
<!-- petsc -->
<g id="node2" class="node">
<title>petsc</title>
<g id="a_node2"><a xlink:href="https://github.com/conda-forge/petsc-feedstock" xlink:title="petsc">
<ellipse fill="#fde725" stroke="black" cx="273.73" cy="-18" rx="38.06" ry="18"/>
<text xml:space="preserve" text-anchor="middle" x="273.73" y="-13.32" font-family="Times,serif" font-size="14.00">petsc</text>
</a>
</g>
</g>
<!-- mpich&#45;&gt;petsc -->
<g id="edge1" class="edge">
<title>mpich&#45;&gt;petsc</title>
<path fill="none" stroke="black" d="M218.14,-149.39C197.63,-141.33 174.77,-128.3 162.73,-108 154.57,-94.24 154.2,-85.53 162.73,-72 176.99,-49.39 203.84,-36.22 227.57,-28.66"/>
<polygon fill="black" stroke="black" points="228.46,-32.05 237.08,-25.9 226.51,-25.33 228.46,-32.05"/>
</g>
<!-- intel&#45;compiler&#45;repack -->
<g id="node3" class="node">
<title>intel&#45;compiler&#45;repack</title>
<g id="a_node3"><a xlink:href="https://github.com/conda-forge/intel-compiler-repack-feedstock" xlink:title="intel compiler repack">
<ellipse fill="#fde725" stroke="black" cx="558.73" cy="-90" rx="117.5" ry="18"/>
<text xml:space="preserve" text-anchor="middle" x="558.73" y="-85.33" font-family="Times,serif" font-size="14.00">intel compiler repack</text>
</a>
</g>
</g>
<!-- mpich&#45;&gt;intel&#45;compiler&#45;repack -->
<g id="edge2" class="edge">
<title>mpich&#45;&gt;intel&#45;compiler&#45;repack</title>
<path fill="none" stroke="black" d="M304.49,-150.52C352.22,-139.35 428.57,-121.47 485.16,-108.22"/>
<polygon fill="black" stroke="black" points="485.79,-111.67 494.73,-105.98 484.19,-104.86 485.79,-111.67"/>
</g>
<!-- flux&#45;core -->
<g id="node4" class="node">
<title>flux&#45;core</title>
<g id="a_node4"><a xlink:href="https://github.com/conda-forge/flux-core-feedstock" xlink:title="flux core">
<ellipse fill="#fde725" stroke="black" cx="61.73" cy="-90" rx="54.36" ry="18"/>
<text xml:space="preserve" text-anchor="middle" x="61.73" y="-85.33" font-family="Times,serif" font-size="14.00">flux core</text>
</a>
</g>
</g>
<!-- mpich&#45;&gt;flux&#45;core -->
<g id="edge3" class="edge">
<title>mpich&#45;&gt;flux&#45;core</title>
<path fill="none" stroke="black" d="M222.95,-148C190.62,-136.57 143.4,-119.87 108.41,-107.5"/>
<polygon fill="black" stroke="black" points="110,-104.35 99.4,-104.32 107.67,-110.95 110,-104.35"/>
</g>
<!-- libplanc -->
<g id="node5" class="node">
<title>libplanc</title>
<g id="a_node5"><a xlink:href="https://github.com/conda-forge/libplanc-feedstock" xlink:title="libplanc">
<ellipse fill="#fde725" stroke="black" cx="413.73" cy="-18" rx="50.68" ry="18"/>
<text xml:space="preserve" text-anchor="middle" x="413.73" y="-13.32" font-family="Times,serif" font-size="14.00">libplanc</text>
</a>
</g>
</g>
<!-- mpich&#45;&gt;libplanc -->
<g id="edge4" class="edge">
<title>mpich&#45;&gt;libplanc</title>
<path fill="none" stroke="black" d="M278.16,-144.63C289.84,-134.2 305.24,-120.38 318.73,-108 342.56,-86.14 369.43,-60.91 388.5,-42.91"/>
<polygon fill="black" stroke="black" points="390.71,-45.64 395.57,-36.23 385.9,-40.55 390.71,-45.64"/>
</g>
<!-- intel&#45;compiler&#45;repack&#45;&gt;petsc -->
<g id="edge5" class="edge">
<title>intel&#45;compiler&#45;repack&#45;&gt;petsc</title>
<path fill="none" stroke="black" d="M498.29,-74.15C444.29,-60.89 366.43,-41.77 318.02,-29.88"/>
<polygon fill="black" stroke="black" points="318.99,-26.51 308.44,-27.53 317.32,-33.31 318.99,-26.51"/>
</g>
<!-- intel&#45;compiler&#45;repack&#45;&gt;libplanc -->
<g id="edge6" class="edge">
<title>intel&#45;compiler&#45;repack&#45;&gt;libplanc</title>
<path fill="none" stroke="black" d="M524.37,-72.41C502.97,-62.08 475.37,-48.76 453.09,-38"/>
<polygon fill="black" stroke="black" points="454.84,-34.96 444.32,-33.77 451.8,-41.27 454.84,-34.96"/>
</g>
<!-- spral -->
<g id="node6" class="node">
<title>spral</title>
<g id="a_node6"><a xlink:href="https://github.com/conda-forge/spral-feedstock" xlink:title="spral">
<ellipse fill="#fde725" stroke="black" cx="782.73" cy="-18" rx="36.48" ry="18"/>
<text xml:space="preserve" text-anchor="middle" x="782.73" y="-13.32" font-family="Times,serif" font-size="14.00">spral</text>
</a>
</g>
</g>
<!-- intel&#45;compiler&#45;repack&#45;&gt;spral -->
<g id="edge7" class="edge">
<title>intel&#45;compiler&#45;repack&#45;&gt;spral</title>
<path fill="none" stroke="black" d="M614.3,-73.68C649.81,-63.62 696.72,-49.8 737.73,-36 739.81,-35.3 741.93,-34.57 744.07,-33.81"/>
<polygon fill="black" stroke="black" points="745.13,-37.15 753.34,-30.45 742.74,-30.57 745.13,-37.15"/>
</g>
<!-- pastix -->
<g id="node7" class="node">
<title>pastix</title>
<g id="a_node7"><a xlink:href="https://github.com/conda-forge/pastix-feedstock" xlink:title="pastix">
<ellipse fill="#fde725" stroke="black" cx="686.73" cy="-18" rx="41.74" ry="18"/>
<text xml:space="preserve" text-anchor="middle" x="686.73" y="-13.32" font-family="Times,serif" font-size="14.00">pastix</text>
</a>
</g>
</g>
<!-- intel&#45;compiler&#45;repack&#45;&gt;pastix -->
<g id="edge8" class="edge">
<title>intel&#45;compiler&#45;repack&#45;&gt;pastix</title>
<path fill="none" stroke="black" d="M589.39,-72.23C608.07,-62.02 632.01,-48.92 651.48,-38.28"/>
<polygon fill="black" stroke="black" points="653.06,-41.4 660.15,-33.53 649.7,-35.26 653.06,-41.4"/>
</g>
<!-- tt&#45;metalium -->
<g id="node8" class="node">
<title>tt&#45;metalium</title>
<g id="a_node8"><a xlink:href="https://github.com/conda-forge/tt-metalium-feedstock" xlink:title="tt metalium">
<ellipse fill="#fde725" stroke="black" cx="556.73" cy="-18" rx="70.15" ry="18"/>
<text xml:space="preserve" text-anchor="middle" x="556.73" y="-13.32" font-family="Times,serif" font-size="14.00">tt metalium</text>
</a>
</g>
</g>
<!-- intel&#45;compiler&#45;repack&#45;&gt;tt&#45;metalium -->
<g id="edge9" class="edge">
<title>intel&#45;compiler&#45;repack&#45;&gt;tt&#45;metalium</title>
<path fill="none" stroke="black" d="M558.24,-71.7C558.03,-64.41 557.78,-55.73 557.55,-47.54"/>
<polygon fill="black" stroke="black" points="561.05,-47.51 557.26,-37.62 554.05,-47.71 561.05,-47.51"/>
</g>
<!-- flux&#45;sched -->
<g id="node9" class="node">
<title>flux&#45;sched</title>
<g id="a_node9"><a xlink:href="https://github.com/conda-forge/flux-sched-feedstock" xlink:title="flux sched">
<ellipse fill="#fde725" stroke="black" cx="61.73" cy="-18" rx="61.73" ry="18"/>
<text xml:space="preserve" text-anchor="middle" x="61.73" y="-13.32" font-family="Times,serif" font-size="14.00">flux sched</text>
</a>
</g>
</g>
<!-- flux&#45;core&#45;&gt;flux&#45;sched -->
<g id="edge10" class="edge">
<title>flux&#45;core&#45;&gt;flux&#45;sched</title>
<path fill="none" stroke="black" d="M61.73,-71.7C61.73,-64.41 61.73,-55.73 61.73,-47.54"/>
<polygon fill="black" stroke="black" points="65.23,-47.62 61.73,-37.62 58.23,-47.62 65.23,-47.62"/>
</g>
<!-- pocl -->
<g id="node10" class="node">
<title>pocl</title>
<g id="a_node10"><a xlink:href="https://github.com/conda-forge/pocl-feedstock/pull/116" xlink:title="pocl ❎">
<ellipse fill="#31688e" stroke="black" cx="914.73" cy="-162" rx="47" ry="18"/>
<text xml:space="preserve" text-anchor="middle" x="914.73" y="-157.32" font-family="Times,serif" font-size="14.00" fill="white">pocl ❎</text>
</a>
</g>
</g>
<!-- tblis -->
<g id="node11" class="node">
<title>tblis</title>
<g id="a_node11"><a xlink:href="https://github.com/conda-forge/tblis-feedstock/pull/7" xlink:title="tblis ❎">
<ellipse fill="#31688e" stroke="black" cx="914.73" cy="-90" rx="48.58" ry="18"/>
<text xml:space="preserve" text-anchor="middle" x="914.73" y="-85.33" font-family="Times,serif" font-size="14.00" fill="white">tblis ❎</text>
</a>
</g>
</g>
<!-- pocl&#45;&gt;tblis -->
<!-- libnvshmem -->
<g id="node13" class="node">
<title>libnvshmem</title>
<g id="a_node13"><a xlink:href="https://github.com/conda-forge/libnvshmem-feedstock/pull/29" xlink:title="libnvshmem ❎">
<ellipse fill="#31688e" stroke="black" cx="914.73" cy="-18" rx="87.51" ry="18"/>
<text xml:space="preserve" text-anchor="middle" x="914.73" y="-13.32" font-family="Times,serif" font-size="14.00" fill="white">libnvshmem ❎</text>
</a>
</g>
</g>
<!-- tblis&#45;&gt;libnvshmem -->
<!-- tbb -->
<g id="node12" class="node">
<title>tbb</title>
<g id="a_node12"><a xlink:href="https://github.com/conda-forge/tbb-feedstock/pull/158" xlink:title="tbb ❎">
<ellipse fill="#31688e" stroke="black" cx="630.73" cy="-162" rx="43.32" ry="18"/>
<text xml:space="preserve" text-anchor="middle" x="630.73" y="-157.32" font-family="Times,serif" font-size="14.00" fill="white">tbb ❎</text>
</a>
</g>
</g>
<!-- tbb&#45;&gt;petsc -->
<g id="edge12" class="edge">
<title>tbb&#45;&gt;petsc</title>
<path fill="none" stroke="black" d="M590.28,-155.38C545.33,-148.19 471.23,-133.52 411.73,-108 370.66,-90.39 328.15,-60.98 301.35,-40.82"/>
<polygon fill="black" stroke="black" points="303.5,-38.05 293.43,-34.77 299.25,-43.62 303.5,-38.05"/>
</g>
<!-- tbb&#45;&gt;intel&#45;compiler&#45;repack -->
<g id="edge13" class="edge">
<title>tbb&#45;&gt;intel&#45;compiler&#45;repack</title>
<path fill="none" stroke="black" d="M614.39,-145.12C605.51,-136.48 594.33,-125.61 584.32,-115.88"/>
<polygon fill="black" stroke="black" points="586.96,-113.56 577.35,-109.1 582.08,-118.58 586.96,-113.56"/>
</g>
<!-- tbb&#45;&gt;libplanc -->
<g id="edge14" class="edge">
<title>tbb&#45;&gt;libplanc</title>
<path fill="none" stroke="black" d="M590.25,-155.22C538.83,-147.05 454.18,-130.57 432.73,-108 417.5,-91.97 413.24,-66.87 412.51,-47.4"/>
<polygon fill="black" stroke="black" points="416.02,-47.64 412.46,-37.66 409.02,-47.68 416.02,-47.64"/>
</g>
<!-- tbb&#45;&gt;spral -->
<g id="edge15" class="edge">
<title>tbb&#45;&gt;spral</title>
<path fill="none" stroke="black" d="M663.53,-149.93C685.46,-141.24 713.83,-127.35 733.73,-108 751.49,-90.73 764.51,-65.63 772.65,-46.48"/>
<polygon fill="black" stroke="black" points="775.81,-47.98 776.31,-37.4 769.32,-45.37 775.81,-47.98"/>
</g>
<!-- tbb&#45;&gt;pastix -->
<g id="edge16" class="edge">
<title>tbb&#45;&gt;pastix</title>
<path fill="none" stroke="black" d="M664.14,-150.07C683.52,-141.81 706.3,-128.35 717.73,-108 728.95,-88.02 718.62,-63.26 706.95,-44.93"/>
<polygon fill="black" stroke="black" points="709.87,-43 701.32,-36.73 704.1,-46.96 709.87,-43"/>
</g>
<!-- tbb&#45;&gt;tt&#45;metalium -->
<g id="edge17" class="edge">
<title>tbb&#45;&gt;tt&#45;metalium</title>
<path fill="none" stroke="black" d="M652.85,-146.13C664.72,-136.75 678.22,-123.5 684.73,-108 690.92,-93.25 693.62,-85.3 684.73,-72 676.03,-58.99 643.09,-45.51 612.81,-35.4"/>
<polygon fill="black" stroke="black" points="614.28,-32.2 603.69,-32.44 612.12,-38.85 614.28,-32.2"/>
</g>
<!-- mvapich -->
<g id="node14" class="node">
<title>mvapich</title>
<g id="a_node14"><a xlink:href="https://github.com/conda-forge/mvapich-feedstock/pull/50" xlink:title="mvapich ❎">
<ellipse fill="#31688e" stroke="black" cx="240.73" cy="-90" rx="68.57" ry="18"/>
<text xml:space="preserve" text-anchor="middle" x="240.73" y="-85.33" font-family="Times,serif" font-size="14.00" fill="white">mvapich ❎</text>
</a>
</g>
</g>
<!-- mvapich&#45;&gt;petsc -->
<g id="edge19" class="edge">
<title>mvapich&#45;&gt;petsc</title>
<path fill="none" stroke="black" d="M248.89,-71.7C252.54,-63.95 256.93,-54.64 260.99,-46.02"/>
<polygon fill="black" stroke="black" points="264.15,-47.53 265.25,-36.99 257.82,-44.54 264.15,-47.53"/>
</g>
<!-- prrte -->
<g id="node15" class="node">
<title>prrte</title>
<g id="a_node15"><a xlink:href="https://github.com/conda-forge/prrte-feedstock/pull/12" xlink:title="prrte ✓">
<ellipse fill="#31688e" stroke="black" cx="1054.73" cy="-126" rx="44.9" ry="18"/>
<text xml:space="preserve" text-anchor="middle" x="1054.73" y="-121.33" font-family="Times,serif" font-size="14.00" fill="white">prrte ✓</text>
</a>
</g>
</g>
<!-- psmpi -->
<g id="node16" class="node">
<title>psmpi</title>
<g id="a_node16"><a xlink:href="https://github.com/conda-forge/psmpi-feedstock" xlink:title="psmpi">
<ellipse fill="#fde725" stroke="black" cx="1054.73" cy="-54" rx="41.74" ry="18"/>
<text xml:space="preserve" text-anchor="middle" x="1054.73" y="-49.33" font-family="Times,serif" font-size="14.00">psmpi</text>
</a>
</g>
</g>
<!-- prrte&#45;&gt;psmpi -->
<g id="edge20" class="edge">
<title>prrte&#45;&gt;psmpi</title>
<path fill="none" stroke="black" d="M1054.73,-107.7C1054.73,-100.41 1054.73,-91.73 1054.73,-83.54"/>
<polygon fill="black" stroke="black" points="1058.23,-83.62 1054.73,-73.62 1051.23,-83.62 1058.23,-83.62"/>
</g>
</g>
</svg>
