<?xml version="1.0" encoding="UTF-8" standalone="no"?>
<!DOCTYPE svg PUBLIC "-//W3C//DTD SVG 1.1//EN"
 "http://www.w3.org/Graphics/SVG/1.1/DTD/svg11.dtd">
<!-- Generated by graphviz version 13.1.2 (20250809.0930)
 -->
<!-- Pages: 1 -->
<svg width="1101pt" height="260pt"
 viewBox="0.00 0.00 1101.00 260.00" xmlns="http://www.w3.org/2000/svg" xmlns:xlink="http://www.w3.org/1999/xlink">
<g id="graph0" class="graph" transform="scale(1 1) rotate(0) translate(4 256)">
<polygon fill="white" stroke="none" points="-4,4 -4,-256 1097.47,-256 1097.47,4 -4,4"/>
<!-- mpich -->
<g id="node1" class="node">
<title>mpich</title>
<g id="a_node1"><a xlink:href="https://github.com/conda-forge/mpich-feedstock/pull/134" xlink:title="mpich ❎">
<ellipse fill="#31688e" stroke="black" cx="259.73" cy="-198" rx="57" ry="18"/>
<text xml:space="preserve" text-anchor="middle" x="259.73" y="-193.32" font-family="Times,serif" font-size="14.00" fill="white">mpich ❎</text>
</a>
</g>
</g>
<!-- petsc -->
<g id="node2" class="node">
<title>petsc</title>
<g id="a_node2"><a xlink:href="https://github.com/conda-forge/petsc-feedstock" xlink:title="petsc">
<ellipse fill="#fde725" stroke="black" cx="273.73" cy="-54" rx="38.06" ry="18"/>
<text xml:space="preserve" text-anchor="middle" x="273.73" y="-49.33" font-family="Times,serif" font-size="14.00">petsc</text>
</a>
</g>
</g>
<!-- mpich&#45;&gt;petsc -->
<g id="edge1" class="edge">
<title>mpich&#45;&gt;petsc</title>
<path fill="none" stroke="black" d="M218.14,-185.39C197.63,-177.33 174.77,-164.3 162.73,-144 154.57,-130.24 154.2,-121.53 162.73,-108 176.99,-85.39 203.84,-72.22 227.57,-64.66"/>
<polygon fill="black" stroke="black" points="228.46,-68.05 237.08,-61.9 226.51,-61.33 228.46,-68.05"/>
</g>
<!-- intel&#45;compiler&#45;repack -->
<g id="node3" class="node">
<title>intel&#45;compiler&#45;repack</title>
<g id="a_node3"><a xlink:href="https://github.com/conda-forge/intel-compiler-repack-feedstock" xlink:title="intel compiler repack">
<ellipse fill="#fde725" stroke="black" cx="558.73" cy="-126" rx="117.5" ry="18"/>
<text xml:space="preserve" text-anchor="middle" x="558.73" y="-121.33" font-family="Times,serif" font-size="14.00">intel compiler repack</text>
</a>
</g>
</g>
<!-- mpich&#45;&gt;intel&#45;compiler&#45;repack -->
<g id="edge2" class="edge">
<title>mpich&#45;&gt;intel&#45;compiler&#45;repack</title>
<path fill="none" stroke="black" d="M304.49,-186.52C352.22,-175.35 428.57,-157.47 485.16,-144.22"/>
<polygon fill="black" stroke="black" points="485.79,-147.67 494.73,-141.98 484.19,-140.86 485.79,-147.67"/>
</g>
<!-- flux&#45;core -->
<g id="node4" class="node">
<title>flux&#45;core</title>
<g id="a_node4"><a xlink:href="https://github.com/conda-forge/flux-core-feedstock" xlink:title="flux core">
<ellipse fill="#fde725" stroke="black" cx="61.73" cy="-126" rx="54.36" ry="18"/>
<text xml:space="preserve" text-anchor="middle" x="61.73" y="-121.33" font-family="Times,serif" font-size="14.00">flux core</text>
</a>
</g>
</g>
<!-- mpich&#45;&gt;flux&#45;core -->
<g id="edge3" class="edge">
<title>mpich&#45;&gt;flux&#45;core</title>
<path fill="none" stroke="black" d="M222.95,-184C190.62,-172.57 143.4,-155.87 108.41,-143.5"/>
<polygon fill="black" stroke="black" points="110,-140.35 99.4,-140.32 107.67,-146.95 110,-140.35"/>
</g>
<!-- libplanc -->
<g id="node5" class="node">
<title>libplanc</title>
<g id="a_node5"><a xlink:href="https://github.com/conda-forge/libplanc-feedstock" xlink:title="libplanc">
<ellipse fill="#fde725" stroke="black" cx="413.73" cy="-54" rx="50.68" ry="18"/>
<text xml:space="preserve" text-anchor="middle" x="413.73" y="-49.33" font-family="Times,serif" font-size="14.00">libplanc</text>
</a>
</g>
</g>
<!-- mpich&#45;&gt;libplanc -->
<g id="edge4" class="edge">
<title>mpich&#45;&gt;libplanc</title>
<path fill="none" stroke="black" d="M278.16,-180.63C289.84,-170.2 305.24,-156.38 318.73,-144 342.56,-122.14 369.43,-96.91 388.5,-78.91"/>
<polygon fill="black" stroke="black" points="390.71,-81.64 395.57,-72.23 385.9,-76.55 390.71,-81.64"/>
</g>
<!-- intel&#45;compiler&#45;repack&#45;&gt;petsc -->
<g id="edge5" class="edge">
<title>intel&#45;compiler&#45;repack&#45;&gt;petsc</title>
<path fill="none" stroke="black" d="M498.29,-110.15C444.29,-96.89 366.43,-77.77 318.02,-65.88"/>
<polygon fill="black" stroke="black" points="318.99,-62.51 308.44,-63.53 317.32,-69.31 318.99,-62.51"/>
</g>
<!-- intel&#45;compiler&#45;repack&#45;&gt;libplanc -->
<g id="edge6" class="edge">
<title>intel&#45;compiler&#45;repack&#45;&gt;libplanc</title>
<path fill="none" stroke="black" d="M524.37,-108.41C502.97,-98.08 475.37,-84.76 453.09,-74"/>
<polygon fill="black" stroke="black" points="454.84,-70.96 444.32,-69.77 451.8,-77.27 454.84,-70.96"/>
</g>
<!-- spral -->
<g id="node6" class="node">
<title>spral</title>
<g id="a_node6"><a xlink:href="https://github.com/conda-forge/spral-feedstock" xlink:title="spral">
<ellipse fill="#fde725" stroke="black" cx="782.73" cy="-54" rx="36.48" ry="18"/>
<text xml:space="preserve" text-anchor="middle" x="782.73" y="-49.33" font-family="Times,serif" font-size="14.00">spral</text>
</a>
</g>
</g>
<!-- intel&#45;compiler&#45;repack&#45;&gt;spral -->
<g id="edge7" class="edge">
<title>intel&#45;compiler&#45;repack&#45;&gt;spral</title>
<path fill="none" stroke="black" d="M614.3,-109.68C649.81,-99.62 696.72,-85.8 737.73,-72 739.81,-71.3 741.93,-70.57 744.07,-69.81"/>
<polygon fill="black" stroke="black" points="745.13,-73.15 753.34,-66.45 742.74,-66.57 745.13,-73.15"/>
</g>
<!-- pastix -->
<g id="node7" class="node">
<title>pastix</title>
<g id="a_node7"><a xlink:href="https://github.com/conda-forge/pastix-feedstock" xlink:title="pastix">
<ellipse fill="#fde725" stroke="black" cx="686.73" cy="-54" rx="41.74" ry="18"/>
<text xml:space="preserve" text-anchor="middle" x="686.73" y="-49.33" font-family="Times,serif" font-size="14.00">pastix</text>
</a>
</g>
</g>
<!-- intel&#45;compiler&#45;repack&#45;&gt;pastix -->
<g id="edge8" class="edge">
<title>intel&#45;compiler&#45;repack&#45;&gt;pastix</title>
<path fill="none" stroke="black" d="M589.39,-108.23C608.07,-98.02 632.01,-84.92 651.48,-74.28"/>
<polygon fill="black" stroke="black" points="653.06,-77.4 660.15,-69.53 649.7,-71.26 653.06,-77.4"/>
</g>
<!-- tt&#45;metalium -->
<g id="node8" class="node">
<title>tt&#45;metalium</title>
<g id="a_node8"><a xlink:href="https://github.com/conda-forge/tt-metalium-feedstock" xlink:title="tt metalium">
<ellipse fill="#fde725" stroke="black" cx="556.73" cy="-54" rx="70.15" ry="18"/>
<text xml:space="preserve" text-anchor="middle" x="556.73" y="-49.33" font-family="Times,serif" font-size="14.00">tt metalium</text>
</a>
</g>
</g>
<!-- intel&#45;compiler&#45;repack&#45;&gt;tt&#45;metalium -->
<g id="edge9" class="edge">
<title>intel&#45;compiler&#45;repack&#45;&gt;tt&#45;metalium</title>
<path fill="none" stroke="black" d="M558.24,-107.7C558.03,-100.41 557.78,-91.73 557.55,-83.54"/>
<polygon fill="black" stroke="black" points="561.05,-83.51 557.26,-73.62 554.05,-83.71 561.05,-83.51"/>
</g>
<!-- flux&#45;sched -->
<g id="node9" class="node">
<title>flux&#45;sched</title>
<g id="a_node9"><a xlink:href="https://github.com/conda-forge/flux-sched-feedstock" xlink:title="flux sched">
<ellipse fill="#fde725" stroke="black" cx="61.73" cy="-54" rx="61.73" ry="18"/>
<text xml:space="preserve" text-anchor="middle" x="61.73" y="-49.33" font-family="Times,serif" font-size="14.00">flux sched</text>
</a>
</g>
</g>
<!-- flux&#45;core&#45;&gt;flux&#45;sched -->
<g id="edge10" class="edge">
<title>flux&#45;core&#45;&gt;flux&#45;sched</title>
<path fill="none" stroke="black" d="M61.73,-107.7C61.73,-100.41 61.73,-91.73 61.73,-83.54"/>
<polygon fill="black" stroke="black" points="65.23,-83.62 61.73,-73.62 58.23,-83.62 65.23,-83.62"/>
</g>
<!-- pocl -->
<g id="node10" class="node">
<title>pocl</title>
<g id="a_node10"><a xlink:href="https://github.com/conda-forge/pocl-feedstock/pull/116" xlink:title="pocl ❎">
<ellipse fill="#31688e" stroke="black" cx="914.73" cy="-234" rx="47" ry="18"/>
<text xml:space="preserve" text-anchor="middle" x="914.73" y="-229.32" font-family="Times,serif" font-size="14.00" fill="white">pocl ❎</text>
</a>
</g>
</g>
<!-- hpx -->
<g id="node11" class="node">
<title>hpx</title>
<g id="a_node11"><a xlink:href="https://github.com/conda-forge/hpx-feedstock/pull/64" xlink:title="hpx ❎">
<ellipse fill="#31688e" stroke="black" cx="914.73" cy="-162" rx="44.9" ry="18"/>
<text xml:space="preserve" text-anchor="middle" x="914.73" y="-157.32" font-family="Times,serif" font-size="14.00" fill="white">hpx ❎</text>
</a>
</g>
</g>
<!-- pocl&#45;&gt;hpx -->
<!-- tblis -->
<g id="node13" class="node">
<title>tblis</title>
<g id="a_node13"><a xlink:href="https://github.com/conda-forge/tblis-feedstock/pull/7" xlink:title="tblis ❎">
<ellipse fill="#31688e" stroke="black" cx="914.73" cy="-90" rx="48.58" ry="18"/>
<text xml:space="preserve" text-anchor="middle" x="914.73" y="-85.33" font-family="Times,serif" font-size="14.00" fill="white">tblis ❎</text>
</a>
</g>
</g>
<!-- hpx&#45;&gt;tblis -->
<!-- tbb -->
<g id="node12" class="node">
<title>tbb</title>
<g id="a_node12"><a xlink:href="https://github.com/conda-forge/tbb-feedstock/pull/158" xlink:title="tbb ❎">
<ellipse fill="#31688e" stroke="black" cx="630.73" cy="-198" rx="43.32" ry="18"/>
<text xml:space="preserve" text-anchor="middle" x="630.73" y="-193.32" font-family="Times,serif" font-size="14.00" fill="white">tbb ❎</text>
</a>
</g>
</g>
<!-- tbb&#45;&gt;petsc -->
<g id="edge12" class="edge">
<title>tbb&#45;&gt;petsc</title>
<path fill="none" stroke="black" d="M590.28,-191.38C545.33,-184.19 471.23,-169.52 411.73,-144 370.66,-126.39 328.15,-96.98 301.35,-76.82"/>
<polygon fill="black" stroke="black" points="303.5,-74.05 293.43,-70.77 299.25,-79.62 303.5,-74.05"/>
</g>
<!-- tbb&#45;&gt;intel&#45;compiler&#45;repack -->
<g id="edge13" class="edge">
<title>tbb&#45;&gt;intel&#45;compiler&#45;repack</title>
<path fill="none" stroke="black" d="M614.39,-181.12C605.51,-172.48 594.33,-161.61 584.32,-151.88"/>
<polygon fill="black" stroke="black" points="586.96,-149.56 577.35,-145.1 582.08,-154.58 586.96,-149.56"/>
</g>
<!-- tbb&#45;&gt;libplanc -->
<g id="edge14" class="edge">
<title>tbb&#45;&gt;libplanc</title>
<path fill="none" stroke="black" d="M590.25,-191.22C538.83,-183.05 454.18,-166.57 432.73,-144 417.5,-127.97 413.24,-102.87 412.51,-83.4"/>
<polygon fill="black" stroke="black" points="416.02,-83.64 412.46,-73.66 409.02,-83.68 416.02,-83.64"/>
</g>
<!-- tbb&#45;&gt;spral -->
<g id="edge15" class="edge">
<title>tbb&#45;&gt;spral</title>
<path fill="none" stroke="black" d="M663.53,-185.93C685.46,-177.24 713.83,-163.35 733.73,-144 751.49,-126.73 764.51,-101.63 772.65,-82.48"/>
<polygon fill="black" stroke="black" points="775.81,-83.98 776.31,-73.4 769.32,-81.37 775.81,-83.98"/>
</g>
<!-- tbb&#45;&gt;pastix -->
<g id="edge16" class="edge">
<title>tbb&#45;&gt;pastix</title>
<path fill="none" stroke="black" d="M664.14,-186.07C683.52,-177.81 706.3,-164.35 717.73,-144 728.95,-124.02 718.62,-99.26 706.95,-80.93"/>
<polygon fill="black" stroke="black" points="709.87,-79 701.32,-72.73 704.1,-82.96 709.87,-79"/>
</g>
<!-- tbb&#45;&gt;tt&#45;metalium -->
<g id="edge17" class="edge">
<title>tbb&#45;&gt;tt&#45;metalium</title>
<path fill="none" stroke="black" d="M652.85,-182.13C664.72,-172.75 678.22,-159.5 684.73,-144 690.92,-129.25 693.62,-121.3 684.73,-108 676.03,-94.99 643.09,-81.51 612.81,-71.4"/>
<polygon fill="black" stroke="black" points="614.28,-68.2 603.69,-68.44 612.12,-74.85 614.28,-68.2"/>
</g>
<!-- libnvshmem -->
<g id="node14" class="node">
<title>libnvshmem</title>
<g id="a_node14"><a xlink:href="https://github.com/conda-forge/libnvshmem-feedstock/pull/29" xlink:title="libnvshmem ❎">
<ellipse fill="#31688e" stroke="black" cx="914.73" cy="-18" rx="87.51" ry="18"/>
<text xml:space="preserve" text-anchor="middle" x="914.73" y="-13.32" font-family="Times,serif" font-size="14.00" fill="white">libnvshmem ❎</text>
</a>
</g>
</g>
<!-- tblis&#45;&gt;libnvshmem -->
<!-- mvapich -->
<g id="node15" class="node">
<title>mvapich</title>
<g id="a_node15"><a xlink:href="https://github.com/conda-forge/mvapich-feedstock/pull/50" xlink:title="mvapich ❎">
<ellipse fill="#31688e" stroke="black" cx="240.73" cy="-126" rx="68.57" ry="18"/>
<text xml:space="preserve" text-anchor="middle" x="240.73" y="-121.33" font-family="Times,serif" font-size="14.00" fill="white">mvapich ❎</text>
</a>
</g>
</g>
<!-- mvapich&#45;&gt;petsc -->
<g id="edge20" class="edge">
<title>mvapich&#45;&gt;petsc</title>
<path fill="none" stroke="black" d="M248.89,-107.7C252.54,-99.95 256.93,-90.64 260.99,-82.02"/>
<polygon fill="black" stroke="black" points="264.15,-83.53 265.25,-72.99 257.82,-80.54 264.15,-83.53"/>
</g>
<!-- prrte -->
<g id="node16" class="node">
<title>prrte</title>
<g id="a_node16"><a xlink:href="https://github.com/conda-forge/prrte-feedstock" xlink:title="prrte">
<ellipse fill="#35b779" stroke="black" cx="1051.73" cy="-162" rx="37" ry="18"/>
<text xml:space="preserve" text-anchor="middle" x="1051.73" y="-157.32" font-family="Times,serif" font-size="14.00">prrte</text>
</a>
</g>
</g>
<!-- psmpi -->
<g id="node17" class="node">
<title>psmpi</title>
<g id="a_node17"><a xlink:href="https://github.com/conda-forge/psmpi-feedstock" xlink:title="psmpi">
<ellipse fill="#fde725" stroke="black" cx="1051.73" cy="-90" rx="41.74" ry="18"/>
<text xml:space="preserve" text-anchor="middle" x="1051.73" y="-85.33" font-family="Times,serif" font-size="14.00">psmpi</text>
</a>
</g>
</g>
<!-- prrte&#45;&gt;psmpi -->
<g id="edge21" class="edge">
<title>prrte&#45;&gt;psmpi</title>
<path fill="none" stroke="black" d="M1051.73,-143.7C1051.73,-136.41 1051.73,-127.73 1051.73,-119.54"/>
<polygon fill="black" stroke="black" points="1055.23,-119.62 1051.73,-109.62 1048.23,-119.62 1055.23,-119.62"/>
</g>
</g>
</svg>
