<?xml version="1.0" encoding="UTF-8" standalone="no"?>
<!DOCTYPE svg PUBLIC "-//W3C//DTD SVG 1.1//EN"
 "http://www.w3.org/Graphics/SVG/1.1/DTD/svg11.dtd">
<!-- Generated by graphviz version 13.1.2 (20250809.0930)
 -->
<!-- Pages: 1 -->
<svg width="1013pt" height="404pt"
 viewBox="0.00 0.00 1013.00 404.00" xmlns="http://www.w3.org/2000/svg" xmlns:xlink="http://www.w3.org/1999/xlink">
<g id="graph0" class="graph" transform="scale(1 1) rotate(0) translate(4 400)">
<polygon fill="white" stroke="none" points="-4,4 -4,-400 1009.14,-400 1009.14,4 -4,4"/>
<!-- mpich -->
<g id="node1" class="node">
<title>mpich</title>
<g id="a_node1"><a xlink:href="https://github.com/conda-forge/mpich-feedstock" xlink:title="mpich">
<ellipse fill="#35b779" stroke="black" cx="162.73" cy="-270" rx="41.74" ry="18"/>
<text xml:space="preserve" text-anchor="middle" x="162.73" y="-265.32" font-family="Times,serif" font-size="14.00">mpich</text>
</a>
</g>
</g>
<!-- petsc -->
<g id="node2" class="node">
<title>petsc</title>
<g id="a_node2"><a xlink:href="https://github.com/conda-forge/petsc-feedstock" xlink:title="petsc">
<ellipse fill="#fde725" stroke="black" cx="182.73" cy="-126" rx="38.06" ry="18"/>
<text xml:space="preserve" text-anchor="middle" x="182.73" y="-121.33" font-family="Times,serif" font-size="14.00">petsc</text>
</a>
</g>
</g>
<!-- mpich&#45;&gt;petsc -->
<g id="edge1" class="edge">
<title>mpich&#45;&gt;petsc</title>
<path fill="none" stroke="black" d="M162.58,-251.81C162.69,-233.8 163.59,-204.73 167.73,-180 169.11,-171.76 171.29,-162.98 173.57,-154.97"/>
<polygon fill="black" stroke="black" points="176.92,-156 176.46,-145.42 170.22,-153.98 176.92,-156"/>
</g>
<!-- intel&#45;compiler&#45;repack -->
<g id="node3" class="node">
<title>intel&#45;compiler&#45;repack</title>
<g id="a_node3"><a xlink:href="https://github.com/conda-forge/intel-compiler-repack-feedstock" xlink:title="intel compiler repack">
<ellipse fill="#fde725" stroke="black" cx="402.73" cy="-198" rx="117.5" ry="18"/>
<text xml:space="preserve" text-anchor="middle" x="402.73" y="-193.32" font-family="Times,serif" font-size="14.00">intel compiler repack</text>
</a>
</g>
</g>
<!-- mpich&#45;&gt;intel&#45;compiler&#45;repack -->
<g id="edge2" class="edge">
<title>mpich&#45;&gt;intel&#45;compiler&#45;repack</title>
<path fill="none" stroke="black" d="M196.61,-259.12C233.37,-248.4 292.93,-231.02 338.6,-217.7"/>
<polygon fill="black" stroke="black" points="339.52,-221.08 348.14,-214.92 337.56,-214.36 339.52,-221.08"/>
</g>
<!-- flux&#45;core -->
<g id="node4" class="node">
<title>flux&#45;core</title>
<g id="a_node4"><a xlink:href="https://github.com/conda-forge/flux-core-feedstock" xlink:title="flux core">
<ellipse fill="#fde725" stroke="black" cx="61.73" cy="-198" rx="54.36" ry="18"/>
<text xml:space="preserve" text-anchor="middle" x="61.73" y="-193.32" font-family="Times,serif" font-size="14.00">flux core</text>
</a>
</g>
</g>
<!-- mpich&#45;&gt;flux&#45;core -->
<g id="edge3" class="edge">
<title>mpich&#45;&gt;flux&#45;core</title>
<path fill="none" stroke="black" d="M141.31,-254.15C127.5,-244.58 109.29,-231.96 93.77,-221.21"/>
<polygon fill="black" stroke="black" points="95.98,-218.48 85.77,-215.66 91.99,-224.23 95.98,-218.48"/>
</g>
<!-- libplanc -->
<g id="node5" class="node">
<title>libplanc</title>
<g id="a_node5"><a xlink:href="https://github.com/conda-forge/libplanc-feedstock" xlink:title="libplanc">
<ellipse fill="#fde725" stroke="black" cx="289.73" cy="-126" rx="50.68" ry="18"/>
<text xml:space="preserve" text-anchor="middle" x="289.73" y="-121.33" font-family="Times,serif" font-size="14.00">libplanc</text>
</a>
</g>
</g>
<!-- mpich&#45;&gt;libplanc -->
<g id="edge4" class="edge">
<title>mpich&#45;&gt;libplanc</title>
<path fill="none" stroke="black" d="M177.3,-252.71C199.38,-228.02 241.5,-180.93 267.45,-151.92"/>
<polygon fill="black" stroke="black" points="269.87,-154.45 273.93,-144.66 264.66,-149.79 269.87,-154.45"/>
</g>
<!-- intel&#45;compiler&#45;repack&#45;&gt;petsc -->
<g id="edge5" class="edge">
<title>intel&#45;compiler&#45;repack&#45;&gt;petsc</title>
<path fill="none" stroke="black" d="M349.9,-181.56C315.53,-171.33 269.81,-157.38 229.73,-144 227.39,-143.22 224.99,-142.4 222.57,-141.57"/>
<polygon fill="black" stroke="black" points="224.01,-138.36 213.41,-138.34 221.68,-144.96 224.01,-138.36"/>
</g>
<!-- intel&#45;compiler&#45;repack&#45;&gt;libplanc -->
<g id="edge6" class="edge">
<title>intel&#45;compiler&#45;repack&#45;&gt;libplanc</title>
<path fill="none" stroke="black" d="M375.38,-180.05C359.76,-170.38 340.05,-158.17 323.48,-147.91"/>
<polygon fill="black" stroke="black" points="325.77,-145.21 315.43,-142.92 322.09,-151.16 325.77,-145.21"/>
</g>
<!-- spral -->
<g id="node6" class="node">
<title>spral</title>
<g id="a_node6"><a xlink:href="https://github.com/conda-forge/spral-feedstock" xlink:title="spral">
<ellipse fill="#fde725" stroke="black" cx="498.73" cy="-126" rx="36.48" ry="18"/>
<text xml:space="preserve" text-anchor="middle" x="498.73" y="-121.33" font-family="Times,serif" font-size="14.00">spral</text>
</a>
</g>
</g>
<!-- intel&#45;compiler&#45;repack&#45;&gt;spral -->
<g id="edge7" class="edge">
<title>intel&#45;compiler&#45;repack&#45;&gt;spral</title>
<path fill="none" stroke="black" d="M425.97,-180.05C439.13,-170.46 455.72,-158.36 469.73,-148.14"/>
<polygon fill="black" stroke="black" points="471.71,-151.04 477.73,-142.32 467.58,-145.38 471.71,-151.04"/>
</g>
<!-- pastix -->
<g id="node7" class="node">
<title>pastix</title>
<g id="a_node7"><a xlink:href="https://github.com/conda-forge/pastix-feedstock" xlink:title="pastix">
<ellipse fill="#fde725" stroke="black" cx="402.73" cy="-126" rx="41.74" ry="18"/>
<text xml:space="preserve" text-anchor="middle" x="402.73" y="-121.33" font-family="Times,serif" font-size="14.00">pastix</text>
</a>
</g>
</g>
<!-- intel&#45;compiler&#45;repack&#45;&gt;pastix -->
<g id="edge8" class="edge">
<title>intel&#45;compiler&#45;repack&#45;&gt;pastix</title>
<path fill="none" stroke="black" d="M402.73,-179.7C402.73,-172.41 402.73,-163.73 402.73,-155.54"/>
<polygon fill="black" stroke="black" points="406.23,-155.62 402.73,-145.62 399.23,-155.62 406.23,-155.62"/>
</g>
<!-- tt&#45;metalium -->
<g id="node8" class="node">
<title>tt&#45;metalium</title>
<g id="a_node8"><a xlink:href="https://github.com/conda-forge/tt-metalium-feedstock" xlink:title="tt metalium">
<ellipse fill="#fde725" stroke="black" cx="623.73" cy="-126" rx="70.15" ry="18"/>
<text xml:space="preserve" text-anchor="middle" x="623.73" y="-121.33" font-family="Times,serif" font-size="14.00">tt metalium</text>
</a>
</g>
</g>
<!-- intel&#45;compiler&#45;repack&#45;&gt;tt&#45;metalium -->
<g id="edge9" class="edge">
<title>intel&#45;compiler&#45;repack&#45;&gt;tt&#45;metalium</title>
<path fill="none" stroke="black" d="M452.33,-181.29C487.27,-170.22 534.04,-155.41 569.89,-144.05"/>
<polygon fill="black" stroke="black" points="570.72,-147.46 579.2,-141.11 568.61,-140.79 570.72,-147.46"/>
</g>
<!-- flux&#45;sched -->
<g id="node9" class="node">
<title>flux&#45;sched</title>
<g id="a_node9"><a xlink:href="https://github.com/conda-forge/flux-sched-feedstock" xlink:title="flux sched">
<ellipse fill="#fde725" stroke="black" cx="61.73" cy="-126" rx="61.73" ry="18"/>
<text xml:space="preserve" text-anchor="middle" x="61.73" y="-121.33" font-family="Times,serif" font-size="14.00">flux sched</text>
</a>
</g>
</g>
<!-- flux&#45;core&#45;&gt;flux&#45;sched -->
<g id="edge10" class="edge">
<title>flux&#45;core&#45;&gt;flux&#45;sched</title>
<path fill="none" stroke="black" d="M61.73,-179.7C61.73,-172.41 61.73,-163.73 61.73,-155.54"/>
<polygon fill="black" stroke="black" points="65.23,-155.62 61.73,-145.62 58.23,-155.62 65.23,-155.62"/>
</g>
<!-- pocl -->
<g id="node10" class="node">
<title>pocl</title>
<g id="a_node10"><a xlink:href="https://github.com/conda-forge/pocl-feedstock" xlink:title="pocl">
<ellipse fill="#35b779" stroke="black" cx="773.73" cy="-378" rx="31.74" ry="18"/>
<text xml:space="preserve" text-anchor="middle" x="773.73" y="-373.32" font-family="Times,serif" font-size="14.00">pocl</text>
</a>
</g>
</g>
<!-- gromacs -->
<g id="node11" class="node">
<title>gromacs</title>
<g id="a_node11"><a xlink:href="https://github.com/conda-forge/gromacs-feedstock" xlink:title="gromacs">
<ellipse fill="#35b779" stroke="black" cx="773.73" cy="-306" rx="53.84" ry="18"/>
<text xml:space="preserve" text-anchor="middle" x="773.73" y="-301.32" font-family="Times,serif" font-size="14.00">gromacs</text>
</a>
</g>
</g>
<!-- pocl&#45;&gt;gromacs -->
<!-- hpx -->
<g id="node13" class="node">
<title>hpx</title>
<g id="a_node13"><a xlink:href="https://github.com/conda-forge/hpx-feedstock" xlink:title="hpx">
<ellipse fill="#35b779" stroke="black" cx="773.73" cy="-234" rx="29.64" ry="18"/>
<text xml:space="preserve" text-anchor="middle" x="773.73" y="-229.32" font-family="Times,serif" font-size="14.00">hpx</text>
</a>
</g>
</g>
<!-- gromacs&#45;&gt;hpx -->
<!-- tbb -->
<g id="node12" class="node">
<title>tbb</title>
<g id="a_node12"><a xlink:href="https://github.com/conda-forge/tbb-feedstock" xlink:title="tbb">
<ellipse fill="#35b779" stroke="black" cx="474.73" cy="-270" rx="28.06" ry="18"/>
<text xml:space="preserve" text-anchor="middle" x="474.73" y="-265.32" font-family="Times,serif" font-size="14.00">tbb</text>
</a>
</g>
</g>
<!-- tbb&#45;&gt;petsc -->
<g id="edge12" class="edge">
<title>tbb&#45;&gt;petsc</title>
<path fill="none" stroke="black" d="M446.63,-267.01C404.42,-262.95 323.38,-250.9 264.73,-216 238.04,-200.12 214.84,-172.91 199.99,-152.74"/>
<polygon fill="black" stroke="black" points="202.93,-150.83 194.27,-144.72 197.23,-154.9 202.93,-150.83"/>
</g>
<!-- tbb&#45;&gt;intel&#45;compiler&#45;repack -->
<g id="edge13" class="edge">
<title>tbb&#45;&gt;intel&#45;compiler&#45;repack</title>
<path fill="none" stroke="black" d="M459.81,-254.5C450.78,-245.71 439.01,-234.27 428.5,-224.06"/>
<polygon fill="black" stroke="black" points="431.12,-221.72 421.51,-217.26 426.24,-226.74 431.12,-221.72"/>
</g>
<!-- tbb&#45;&gt;libplanc -->
<g id="edge14" class="edge">
<title>tbb&#45;&gt;libplanc</title>
<path fill="none" stroke="black" d="M447.31,-265.75C397.98,-259.28 297.48,-243.03 276.73,-216 263.38,-198.6 268.59,-173.51 276.01,-154.4"/>
<polygon fill="black" stroke="black" points="279.18,-155.9 279.92,-145.33 272.75,-153.13 279.18,-155.9"/>
</g>
<!-- tbb&#45;&gt;spral -->
<g id="edge15" class="edge">
<title>tbb&#45;&gt;spral</title>
<path fill="none" stroke="black" d="M499.62,-261.47C520.36,-253.73 548.56,-239.44 561.73,-216 569.57,-202.05 568.48,-194.51 561.73,-180 555.4,-166.4 543.67,-155.05 532.04,-146.38"/>
<polygon fill="black" stroke="black" points="534.29,-143.68 524.07,-140.87 530.31,-149.44 534.29,-143.68"/>
</g>
<!-- tbb&#45;&gt;pastix -->
<g id="edge16" class="edge">
<title>tbb&#45;&gt;pastix</title>
<path fill="none" stroke="black" d="M493.83,-256.46C506.35,-247.01 521.66,-232.84 528.73,-216 534.92,-201.25 537.58,-193.33 528.73,-180 523.69,-172.41 479.33,-154.85 444.66,-142.01"/>
<polygon fill="black" stroke="black" points="446.27,-138.88 435.68,-138.72 443.86,-145.45 446.27,-138.88"/>
</g>
<!-- tbb&#45;&gt;tt&#45;metalium -->
<g id="edge17" class="edge">
<title>tbb&#45;&gt;tt&#45;metalium</title>
<path fill="none" stroke="black" d="M499.72,-261.31C522.67,-253.17 556.41,-238.39 578.73,-216 595.71,-198.96 607.52,-174.2 614.76,-155.12"/>
<polygon fill="black" stroke="black" points="618.03,-156.39 618.09,-145.79 611.43,-154.03 618.03,-156.39"/>
</g>
<!-- tblis -->
<g id="node14" class="node">
<title>tblis</title>
<g id="a_node14"><a xlink:href="https://github.com/conda-forge/tblis-feedstock" xlink:title="tblis">
<ellipse fill="#35b779" stroke="black" cx="773.73" cy="-162" rx="33.32" ry="18"/>
<text xml:space="preserve" text-anchor="middle" x="773.73" y="-157.32" font-family="Times,serif" font-size="14.00">tblis</text>
</a>
</g>
</g>
<!-- hpx&#45;&gt;tblis -->
<!-- mvapich -->
<g id="node15" class="node">
<title>mvapich</title>
<g id="a_node15"><a xlink:href="https://github.com/conda-forge/mvapich-feedstock" xlink:title="mvapich">
<ellipse fill="#35b779" stroke="black" cx="773.73" cy="-90" rx="53.31" ry="18"/>
<text xml:space="preserve" text-anchor="middle" x="773.73" y="-85.33" font-family="Times,serif" font-size="14.00">mvapich</text>
</a>
</g>
</g>
<!-- tblis&#45;&gt;mvapich -->
<!-- libnvshmem -->
<g id="node16" class="node">
<title>libnvshmem</title>
<g id="a_node16"><a xlink:href="https://github.com/conda-forge/libnvshmem-feedstock" xlink:title="libnvshmem">
<ellipse fill="#35b779" stroke="black" cx="773.73" cy="-18" rx="72.25" ry="18"/>
<text xml:space="preserve" text-anchor="middle" x="773.73" y="-13.32" font-family="Times,serif" font-size="14.00">libnvshmem</text>
</a>
</g>
</g>
<!-- mvapich&#45;&gt;libnvshmem -->
<!-- prrte -->
<g id="node17" class="node">
<title>prrte</title>
<g id="a_node17"><a xlink:href="https://github.com/conda-forge/prrte-feedstock" xlink:title="prrte">
<ellipse fill="#fde725" stroke="black" cx="897.73" cy="-198" rx="37" ry="18"/>
<text xml:space="preserve" text-anchor="middle" x="897.73" y="-193.32" font-family="Times,serif" font-size="14.00">prrte</text>
</a>
</g>
</g>
<!-- psmpi -->
<g id="node18" class="node">
<title>psmpi</title>
<g id="a_node18"><a xlink:href="https://github.com/conda-forge/psmpi-feedstock" xlink:title="psmpi">
<ellipse fill="#fde725" stroke="black" cx="929.73" cy="-126" rx="41.74" ry="18"/>
<text xml:space="preserve" text-anchor="middle" x="929.73" y="-121.33" font-family="Times,serif" font-size="14.00">psmpi</text>
</a>
</g>
</g>
<!-- prrte&#45;&gt;psmpi -->
<g id="edge22" class="edge">
<title>prrte&#45;&gt;psmpi</title>
<path fill="none" stroke="black" d="M905.48,-180.05C909.05,-172.23 913.39,-162.75 917.4,-153.98"/>
<polygon fill="black" stroke="black" points="920.45,-155.72 921.43,-145.17 914.09,-152.81 920.45,-155.72"/>
</g>
<!-- openpmix -->
<g id="node19" class="node">
<title>openpmix</title>
<g id="a_node19"><a xlink:href="https://github.com/conda-forge/openpmix-feedstock/pull/10" xlink:title="openpmix ❎">
<ellipse fill="#31688e" stroke="black" cx="929.73" cy="-270" rx="75.41" ry="18"/>
<text xml:space="preserve" text-anchor="middle" x="929.73" y="-265.32" font-family="Times,serif" font-size="14.00" fill="white">openpmix ❎</text>
</a>
</g>
</g>
<!-- openpmix&#45;&gt;prrte -->
<g id="edge23" class="edge">
<title>openpmix&#45;&gt;prrte</title>
<path fill="none" stroke="black" d="M921.82,-251.7C918.28,-243.95 914.02,-234.64 910.08,-226.02"/>
<polygon fill="black" stroke="black" points="913.3,-224.64 905.96,-217 906.93,-227.55 913.3,-224.64"/>
</g>
<!-- openpmix&#45;&gt;psmpi -->
<g id="edge24" class="edge">
<title>openpmix&#45;&gt;psmpi</title>
<path fill="none" stroke="black" d="M935.55,-251.56C938.66,-241.33 942.16,-228.08 943.73,-216 945.79,-200.13 945.79,-195.87 943.73,-180 942.66,-171.76 940.69,-162.97 938.56,-154.97"/>
<polygon fill="black" stroke="black" points="941.94,-154.07 935.83,-145.42 935.21,-155.99 941.94,-154.07"/>
</g>
</g>
</svg>
