<?xml version="1.0" encoding="UTF-8" standalone="no"?>
<!DOCTYPE svg PUBLIC "-//W3C//DTD SVG 1.1//EN"
 "http://www.w3.org/Graphics/SVG/1.1/DTD/svg11.dtd">
<!-- Generated by graphviz version 13.1.1 (20250720.1534)
 -->
<!-- Pages: 1 -->
<svg width="864pt" height="332pt"
 viewBox="0.00 0.00 864.00 332.00" xmlns="http://www.w3.org/2000/svg" xmlns:xlink="http://www.w3.org/1999/xlink">
<g id="graph0" class="graph" transform="scale(1 1) rotate(0) translate(4 328)">
<polygon fill="white" stroke="none" points="-4,4 -4,-328 859.88,-328 859.88,4 -4,4"/>
<!-- openmpi -->
<g id="node1" class="node">
<title>openmpi</title>
<g id="a_node1"><a xlink:href="https://github.com/conda-forge/openmpi-feedstock" xlink:title="openmpi">
<ellipse fill="#fde725" stroke="black" cx="214.74" cy="-234" rx="54.36" ry="18"/>
<text xml:space="preserve" text-anchor="middle" x="214.74" y="-229.32" font-family="Times,serif" font-size="14.00">openmpi</text>
</a>
</g>
</g>
<!-- petsc -->
<g id="node2" class="node">
<title>petsc</title>
<g id="a_node2"><a xlink:href="https://github.com/conda-forge/petsc-feedstock" xlink:title="petsc">
<ellipse fill="#fde725" stroke="black" cx="303.74" cy="-162" rx="38.06" ry="18"/>
<text xml:space="preserve" text-anchor="middle" x="303.74" y="-157.32" font-family="Times,serif" font-size="14.00">petsc</text>
</a>
</g>
</g>
<!-- openmpi&#45;&gt;petsc -->
<g id="edge1" class="edge">
<title>openmpi&#45;&gt;petsc</title>
<path fill="none" stroke="black" d="M234.93,-217.12C247.1,-207.55 262.77,-195.23 276.07,-184.76"/>
<polygon fill="black" stroke="black" points="277.95,-187.73 283.65,-178.8 273.63,-182.23 277.95,-187.73"/>
</g>
<!-- gromacs -->
<g id="node3" class="node">
<title>gromacs</title>
<g id="a_node3"><a xlink:href="https://github.com/conda-forge/gromacs-feedstock" xlink:title="gromacs">
<ellipse fill="#fde725" stroke="black" cx="155.74" cy="-162" rx="53.84" ry="18"/>
<text xml:space="preserve" text-anchor="middle" x="155.74" y="-157.32" font-family="Times,serif" font-size="14.00">gromacs</text>
</a>
</g>
</g>
<!-- openmpi&#45;&gt;gromacs -->
<g id="edge2" class="edge">
<title>openmpi&#45;&gt;gromacs</title>
<path fill="none" stroke="black" d="M200.76,-216.41C193.63,-207.95 184.81,-197.49 176.88,-188.08"/>
<polygon fill="black" stroke="black" points="179.72,-186.02 170.6,-180.63 174.36,-190.53 179.72,-186.02"/>
</g>
<!-- flux&#45;core -->
<g id="node4" class="node">
<title>flux&#45;core</title>
<g id="a_node4"><a xlink:href="https://github.com/conda-forge/flux-core-feedstock" xlink:title="flux core">
<ellipse fill="#fde725" stroke="black" cx="237.74" cy="-90" rx="54.36" ry="18"/>
<text xml:space="preserve" text-anchor="middle" x="237.74" y="-85.33" font-family="Times,serif" font-size="14.00">flux core</text>
</a>
</g>
</g>
<!-- openmpi&#45;&gt;flux&#45;core -->
<g id="edge3" class="edge">
<title>openmpi&#45;&gt;flux&#45;core</title>
<path fill="none" stroke="black" d="M217.56,-215.59C221.44,-191.61 228.48,-148.14 233.14,-119.42"/>
<polygon fill="black" stroke="black" points="236.58,-120.04 234.72,-109.6 229.67,-118.92 236.58,-120.04"/>
</g>
<!-- libplanc -->
<g id="node5" class="node">
<title>libplanc</title>
<g id="a_node5"><a xlink:href="https://github.com/conda-forge/libplanc-feedstock" xlink:title="libplanc">
<ellipse fill="#fde725" stroke="black" cx="410.74" cy="-162" rx="50.68" ry="18"/>
<text xml:space="preserve" text-anchor="middle" x="410.74" y="-157.32" font-family="Times,serif" font-size="14.00">libplanc</text>
</a>
</g>
</g>
<!-- openmpi&#45;&gt;libplanc -->
<g id="edge4" class="edge">
<title>openmpi&#45;&gt;libplanc</title>
<path fill="none" stroke="black" d="M250.69,-220.16C282.9,-208.66 330.3,-191.73 365.16,-179.28"/>
<polygon fill="black" stroke="black" points="366.34,-182.57 374.58,-175.91 363.98,-175.98 366.34,-182.57"/>
</g>
<!-- flux&#45;sched -->
<g id="node6" class="node">
<title>flux&#45;sched</title>
<g id="a_node6"><a xlink:href="https://github.com/conda-forge/flux-sched-feedstock" xlink:title="flux sched">
<ellipse fill="#fde725" stroke="black" cx="237.74" cy="-18" rx="61.73" ry="18"/>
<text xml:space="preserve" text-anchor="middle" x="237.74" y="-13.32" font-family="Times,serif" font-size="14.00">flux sched</text>
</a>
</g>
</g>
<!-- flux&#45;core&#45;&gt;flux&#45;sched -->
<g id="edge5" class="edge">
<title>flux&#45;core&#45;&gt;flux&#45;sched</title>
<path fill="none" stroke="black" d="M237.74,-71.7C237.74,-64.41 237.74,-55.73 237.74,-47.54"/>
<polygon fill="black" stroke="black" points="241.24,-47.62 237.74,-37.62 234.24,-47.62 241.24,-47.62"/>
</g>
<!-- intel&#45;compiler&#45;repack -->
<g id="node7" class="node">
<title>intel&#45;compiler&#45;repack</title>
<g id="a_node7"><a xlink:href="https://github.com/conda-forge/intel-compiler-repack-feedstock/pull/65" xlink:title="intel compiler repack ❎">
<ellipse fill="#31688e" stroke="black" cx="511.74" cy="-234" rx="132.76" ry="18"/>
<text xml:space="preserve" text-anchor="middle" x="511.74" y="-229.32" font-family="Times,serif" font-size="14.00" fill="white">intel compiler repack ❎</text>
</a>
</g>
</g>
<!-- intel&#45;compiler&#45;repack&#45;&gt;petsc -->
<g id="edge6" class="edge">
<title>intel&#45;compiler&#45;repack&#45;&gt;petsc</title>
<path fill="none" stroke="black" d="M461.57,-216.9C429.74,-206.58 387.73,-192.78 350.74,-180 348.53,-179.24 346.26,-178.45 343.98,-177.64"/>
<polygon fill="black" stroke="black" points="345.3,-174.4 334.7,-174.34 342.95,-180.99 345.3,-174.4"/>
</g>
<!-- intel&#45;compiler&#45;repack&#45;&gt;libplanc -->
<g id="edge7" class="edge">
<title>intel&#45;compiler&#45;repack&#45;&gt;libplanc</title>
<path fill="none" stroke="black" d="M487.03,-215.88C473.52,-206.51 456.65,-194.82 442.2,-184.81"/>
<polygon fill="black" stroke="black" points="444.58,-182.2 434.37,-179.38 440.59,-187.95 444.58,-182.2"/>
</g>
<!-- spral -->
<g id="node8" class="node">
<title>spral</title>
<g id="a_node8"><a xlink:href="https://github.com/conda-forge/spral-feedstock" xlink:title="spral">
<ellipse fill="#fde725" stroke="black" cx="553.74" cy="-162" rx="36.48" ry="18"/>
<text xml:space="preserve" text-anchor="middle" x="553.74" y="-157.32" font-family="Times,serif" font-size="14.00">spral</text>
</a>
</g>
</g>
<!-- intel&#45;compiler&#45;repack&#45;&gt;spral -->
<g id="edge8" class="edge">
<title>intel&#45;compiler&#45;repack&#45;&gt;spral</title>
<path fill="none" stroke="black" d="M522.12,-215.7C526.87,-207.78 532.6,-198.23 537.87,-189.44"/>
<polygon fill="black" stroke="black" points="540.84,-191.3 542.99,-180.92 534.84,-187.69 540.84,-191.3"/>
</g>
<!-- pastix -->
<g id="node9" class="node">
<title>pastix</title>
<g id="a_node9"><a xlink:href="https://github.com/conda-forge/pastix-feedstock" xlink:title="pastix">
<ellipse fill="#fde725" stroke="black" cx="489.74" cy="-90" rx="41.74" ry="18"/>
<text xml:space="preserve" text-anchor="middle" x="489.74" y="-85.33" font-family="Times,serif" font-size="14.00">pastix</text>
</a>
</g>
</g>
<!-- intel&#45;compiler&#45;repack&#45;&gt;pastix -->
<g id="edge9" class="edge">
<title>intel&#45;compiler&#45;repack&#45;&gt;pastix</title>
<path fill="none" stroke="black" d="M509.04,-215.59C505.33,-191.61 498.59,-148.14 494.14,-119.42"/>
<polygon fill="black" stroke="black" points="497.61,-118.95 492.62,-109.61 490.69,-120.02 497.61,-118.95"/>
</g>
<!-- tt&#45;metalium -->
<g id="node10" class="node">
<title>tt&#45;metalium</title>
<g id="a_node10"><a xlink:href="https://github.com/conda-forge/tt-metalium-feedstock" xlink:title="tt metalium">
<ellipse fill="#fde725" stroke="black" cx="617.74" cy="-18" rx="70.15" ry="18"/>
<text xml:space="preserve" text-anchor="middle" x="617.74" y="-13.32" font-family="Times,serif" font-size="14.00">tt metalium</text>
</a>
</g>
</g>
<!-- intel&#45;compiler&#45;repack&#45;&gt;tt&#45;metalium -->
<g id="edge10" class="edge">
<title>intel&#45;compiler&#45;repack&#45;&gt;tt&#45;metalium</title>
<path fill="none" stroke="black" d="M554.55,-216.69C571.01,-208.24 588.33,-196.22 598.74,-180 624.71,-139.53 624.48,-81.37 621.45,-47.15"/>
<polygon fill="black" stroke="black" points="624.98,-47.21 620.46,-37.62 618.01,-47.93 624.98,-47.21"/>
</g>
<!-- hpx -->
<g id="node11" class="node">
<title>hpx</title>
<g id="a_node11"><a xlink:href="https://github.com/conda-forge/hpx-feedstock/pull/38" xlink:title="hpx ✓">
<ellipse fill="#31688e" stroke="black" cx="775.74" cy="-234" rx="37.53" ry="18"/>
<text xml:space="preserve" text-anchor="middle" x="775.74" y="-229.32" font-family="Times,serif" font-size="14.00" fill="white">hpx ✓</text>
</a>
</g>
</g>
<!-- mvapich -->
<g id="node12" class="node">
<title>mvapich</title>
<g id="a_node12"><a xlink:href="https://github.com/conda-forge/mvapich-feedstock/pull/21" xlink:title="mvapich ✓">
<ellipse fill="#31688e" stroke="black" cx="775.74" cy="-162" rx="61.2" ry="18"/>
<text xml:space="preserve" text-anchor="middle" x="775.74" y="-157.32" font-family="Times,serif" font-size="14.00" fill="white">mvapich ✓</text>
</a>
</g>
</g>
<!-- hpx&#45;&gt;mvapich -->
<!-- libnvshmem -->
<g id="node13" class="node">
<title>libnvshmem</title>
<g id="a_node13"><a xlink:href="https://github.com/conda-forge/libnvshmem-feedstock/pull/9" xlink:title="libnvshmem ✓">
<ellipse fill="#31688e" stroke="black" cx="775.74" cy="-90" rx="80.14" ry="18"/>
<text xml:space="preserve" text-anchor="middle" x="775.74" y="-85.33" font-family="Times,serif" font-size="14.00" fill="white">libnvshmem ✓</text>
</a>
</g>
</g>
<!-- mvapich&#45;&gt;libnvshmem -->
<!-- prrte -->
<g id="node14" class="node">
<title>prrte</title>
<g id="a_node14"><a xlink:href="https://github.com/conda-forge/prrte-feedstock" xlink:title="prrte">
<ellipse fill="#fde725" stroke="black" cx="323.74" cy="-234" rx="37" ry="18"/>
<text xml:space="preserve" text-anchor="middle" x="323.74" y="-229.32" font-family="Times,serif" font-size="14.00">prrte</text>
</a>
</g>
</g>
<!-- openpmix -->
<g id="node15" class="node">
<title>openpmix</title>
<g id="a_node15"><a xlink:href="https://github.com/conda-forge/openpmix-feedstock/pull/8" xlink:title="openpmix ✓">
<ellipse fill="#31688e" stroke="black" cx="214.74" cy="-306" rx="68.04" ry="18"/>
<text xml:space="preserve" text-anchor="middle" x="214.74" y="-301.32" font-family="Times,serif" font-size="14.00" fill="white">openpmix ✓</text>
</a>
</g>
</g>
<!-- openpmix&#45;&gt;openmpi -->
<g id="edge13" class="edge">
<title>openpmix&#45;&gt;openmpi</title>
<path fill="none" stroke="black" d="M214.74,-287.7C214.74,-280.41 214.74,-271.73 214.74,-263.54"/>
<polygon fill="black" stroke="black" points="218.24,-263.62 214.74,-253.62 211.24,-263.62 218.24,-263.62"/>
</g>
<!-- openpmix&#45;&gt;prrte -->
<g id="edge14" class="edge">
<title>openpmix&#45;&gt;prrte</title>
<path fill="none" stroke="black" d="M239.75,-288.94C255.51,-278.82 275.98,-265.67 292.77,-254.89"/>
<polygon fill="black" stroke="black" points="294.36,-258.02 300.89,-249.68 290.58,-252.13 294.36,-258.02"/>
</g>
<!-- psmpi -->
<g id="node16" class="node">
<title>psmpi</title>
<g id="a_node16"><a xlink:href="https://github.com/conda-forge/psmpi-feedstock" xlink:title="psmpi">
<ellipse fill="#fde725" stroke="black" cx="41.74" cy="-162" rx="41.74" ry="18"/>
<text xml:space="preserve" text-anchor="middle" x="41.74" y="-157.32" font-family="Times,serif" font-size="14.00">psmpi</text>
</a>
</g>
</g>
<!-- openpmix&#45;&gt;psmpi -->
<g id="edge15" class="edge">
<title>openpmix&#45;&gt;psmpi</title>
<path fill="none" stroke="black" d="M194.55,-288.43C163.54,-262.98 104.12,-214.2 69.21,-185.55"/>
<polygon fill="black" stroke="black" points="71.6,-182.98 61.65,-179.34 67.16,-188.39 71.6,-182.98"/>
</g>
</g>
</svg>
