<?xml version="1.0" encoding="UTF-8" standalone="no"?>
<!DOCTYPE svg PUBLIC "-//W3C//DTD SVG 1.1//EN"
 "http://www.w3.org/Graphics/SVG/1.1/DTD/svg11.dtd">
<!-- Generated by graphviz version 13.1.2 (20250809.0930)
 -->
<!-- Pages: 1 -->
<svg width="558pt" height="188pt"
 viewBox="0.00 0.00 558.00 188.00" xmlns="http://www.w3.org/2000/svg" xmlns:xlink="http://www.w3.org/1999/xlink">
<g id="graph0" class="graph" transform="scale(1 1) rotate(0) translate(4 184)">
<polygon fill="white" stroke="none" points="-4,4 -4,-184 554.15,-184 554.15,4 -4,4"/>
<!-- pocl -->
<g id="node1" class="node">
<title>pocl</title>
<g id="a_node1"><a xlink:href="https://github.com/conda-forge/pocl-feedstock/pull/116" xlink:title="pocl ❎">
<ellipse fill="#31688e" stroke="black" cx="503.15" cy="-90" rx="47" ry="18"/>
<text xml:space="preserve" text-anchor="middle" x="503.15" y="-85.33" font-family="Times,serif" font-size="14.00" fill="white">pocl ❎</text>
</a>
</g>
</g>
<!-- tbb -->
<g id="node2" class="node">
<title>tbb</title>
<g id="a_node2"><a xlink:href="https://github.com/conda-forge/tbb-feedstock/pull/158" xlink:title="tbb ❎">
<ellipse fill="#31688e" stroke="black" cx="230.15" cy="-162" rx="43.32" ry="18"/>
<text xml:space="preserve" text-anchor="middle" x="230.15" y="-157.32" font-family="Times,serif" font-size="14.00" fill="white">tbb ❎</text>
</a>
</g>
</g>
<!-- petsc -->
<g id="node3" class="node">
<title>petsc</title>
<g id="a_node3"><a xlink:href="https://github.com/conda-forge/petsc-feedstock" xlink:title="petsc">
<ellipse fill="#fde725" stroke="black" cx="410.15" cy="-18" rx="38.06" ry="18"/>
<text xml:space="preserve" text-anchor="middle" x="410.15" y="-13.32" font-family="Times,serif" font-size="14.00">petsc</text>
</a>
</g>
</g>
<!-- tbb&#45;&gt;petsc -->
<g id="edge3" class="edge">
<title>tbb&#45;&gt;petsc</title>
<path fill="none" stroke="black" d="M270.59,-155.03C302.11,-148.45 345.09,-134.98 373.15,-108 390.01,-91.79 399.49,-66.74 404.62,-47.35"/>
<polygon fill="black" stroke="black" points="407.96,-48.42 406.87,-37.88 401.15,-46.8 407.96,-48.42"/>
</g>
<!-- intel&#45;compiler&#45;repack -->
<g id="node4" class="node">
<title>intel&#45;compiler&#45;repack</title>
<g id="a_node4"><a xlink:href="https://github.com/conda-forge/intel-compiler-repack-feedstock" xlink:title="intel compiler repack">
<ellipse fill="#fde725" stroke="black" cx="230.15" cy="-90" rx="117.5" ry="18"/>
<text xml:space="preserve" text-anchor="middle" x="230.15" y="-85.33" font-family="Times,serif" font-size="14.00">intel compiler repack</text>
</a>
</g>
</g>
<!-- tbb&#45;&gt;intel&#45;compiler&#45;repack -->
<g id="edge1" class="edge">
<title>tbb&#45;&gt;intel&#45;compiler&#45;repack</title>
<path fill="none" stroke="black" d="M230.15,-143.7C230.15,-136.41 230.15,-127.73 230.15,-119.54"/>
<polygon fill="black" stroke="black" points="233.65,-119.62 230.15,-109.62 226.65,-119.62 233.65,-119.62"/>
</g>
<!-- spral -->
<g id="node5" class="node">
<title>spral</title>
<g id="a_node5"><a xlink:href="https://github.com/conda-forge/spral-feedstock" xlink:title="spral">
<ellipse fill="#fde725" stroke="black" cx="314.15" cy="-18" rx="36.48" ry="18"/>
<text xml:space="preserve" text-anchor="middle" x="314.15" y="-13.32" font-family="Times,serif" font-size="14.00">spral</text>
</a>
</g>
</g>
<!-- tbb&#45;&gt;spral -->
<g id="edge4" class="edge">
<title>tbb&#45;&gt;spral</title>
<path fill="none" stroke="black" d="M271.15,-155.66C300.26,-149.49 337.37,-136.27 356.15,-108 369.96,-87.21 354.33,-61.16 338.36,-42.63"/>
<polygon fill="black" stroke="black" points="340.99,-40.31 331.65,-35.31 335.83,-45.04 340.99,-40.31"/>
</g>
<!-- pastix -->
<g id="node6" class="node">
<title>pastix</title>
<g id="a_node6"><a xlink:href="https://github.com/conda-forge/pastix-feedstock" xlink:title="pastix">
<ellipse fill="#fde725" stroke="black" cx="212.15" cy="-18" rx="41.74" ry="18"/>
<text xml:space="preserve" text-anchor="middle" x="212.15" y="-13.32" font-family="Times,serif" font-size="14.00">pastix</text>
</a>
</g>
</g>
<!-- tbb&#45;&gt;pastix -->
<g id="edge2" class="edge">
<title>tbb&#45;&gt;pastix</title>
<path fill="none" stroke="black" d="M189.15,-155.66C160.04,-149.49 122.92,-136.27 104.15,-108 95.3,-94.67 95.69,-85.58 104.15,-72 117.39,-50.75 141.91,-37.78 164.25,-29.99"/>
<polygon fill="black" stroke="black" points="165.07,-33.41 173.54,-27.03 162.95,-26.74 165.07,-33.41"/>
</g>
<!-- tt&#45;metalium -->
<g id="node7" class="node">
<title>tt&#45;metalium</title>
<g id="a_node7"><a xlink:href="https://github.com/conda-forge/tt-metalium-feedstock" xlink:title="tt metalium">
<ellipse fill="#fde725" stroke="black" cx="70.15" cy="-18" rx="70.15" ry="18"/>
<text xml:space="preserve" text-anchor="middle" x="70.15" y="-13.32" font-family="Times,serif" font-size="14.00">tt metalium</text>
</a>
</g>
</g>
<!-- tbb&#45;&gt;tt&#45;metalium -->
<g id="edge5" class="edge">
<title>tbb&#45;&gt;tt&#45;metalium</title>
<path fill="none" stroke="black" d="M189.46,-155.17C159.06,-148.72 118.69,-135.35 94.15,-108 79.35,-91.51 73.54,-66.82 71.32,-47.62"/>
<polygon fill="black" stroke="black" points="74.81,-47.4 70.47,-37.73 67.84,-48 74.81,-47.4"/>
</g>
<!-- intel&#45;compiler&#45;repack&#45;&gt;petsc -->
<g id="edge7" class="edge">
<title>intel&#45;compiler&#45;repack&#45;&gt;petsc</title>
<path fill="none" stroke="black" d="M271.9,-72.76C301.64,-61.2 341.37,-45.75 370.6,-34.38"/>
<polygon fill="black" stroke="black" points="371.79,-37.67 379.84,-30.79 369.25,-31.15 371.79,-37.67"/>
</g>
<!-- intel&#45;compiler&#45;repack&#45;&gt;spral -->
<g id="edge8" class="edge">
<title>intel&#45;compiler&#45;repack&#45;&gt;spral</title>
<path fill="none" stroke="black" d="M250.48,-72.05C261.63,-62.77 275.57,-51.15 287.57,-41.15"/>
<polygon fill="black" stroke="black" points="289.68,-43.95 295.12,-34.86 285.2,-38.57 289.68,-43.95"/>
</g>
<!-- intel&#45;compiler&#45;repack&#45;&gt;pastix -->
<g id="edge6" class="edge">
<title>intel&#45;compiler&#45;repack&#45;&gt;pastix</title>
<path fill="none" stroke="black" d="M225.7,-71.7C223.8,-64.32 221.54,-55.52 219.41,-47.25"/>
<polygon fill="black" stroke="black" points="222.8,-46.38 216.92,-37.57 216.02,-48.13 222.8,-46.38"/>
</g>
<!-- intel&#45;compiler&#45;repack&#45;&gt;tt&#45;metalium -->
<g id="edge9" class="edge">
<title>intel&#45;compiler&#45;repack&#45;&gt;tt&#45;metalium</title>
<path fill="none" stroke="black" d="M192.64,-72.59C169.46,-62.45 139.59,-49.38 115.15,-38.69"/>
<polygon fill="black" stroke="black" points="116.64,-35.52 106.08,-34.72 113.84,-41.93 116.64,-35.52"/>
</g>
</g>
</svg>
