<?xml version="1.0" encoding="UTF-8" standalone="no"?>
<!DOCTYPE svg PUBLIC "-//W3C//DTD SVG 1.1//EN"
 "http://www.w3.org/Graphics/SVG/1.1/DTD/svg11.dtd">
<!-- Generated by graphviz version 13.1.1 (20250720.1534)
 -->
<!-- Pages: 1 -->
<svg width="814pt" height="304pt"
 viewBox="0.00 0.00 814.00 304.00" xmlns="http://www.w3.org/2000/svg" xmlns:xlink="http://www.w3.org/1999/xlink">
<g id="graph0" class="graph" transform="scale(1 1) rotate(0) translate(4 300)">
<polygon fill="white" stroke="none" points="-4,4 -4,-300 810.2,-300 810.2,4 -4,4"/>
<!-- openmpi -->
<g id="node1" class="node">
<title>openmpi</title>
<g id="a_node1"><a xlink:href="https://github.com/conda-forge/openmpi-feedstock" xlink:title="openmpi">
<ellipse fill="#fde725" stroke="black" cx="211.06" cy="-206" rx="54.36" ry="18"/>
<text xml:space="preserve" text-anchor="middle" x="211.06" y="-201.32" font-family="Times,serif" font-size="14.00">openmpi</text>
</a>
</g>
</g>
<!-- petsc -->
<g id="node2" class="node">
<title>petsc</title>
<g id="a_node2"><a xlink:href="https://github.com/conda-forge/petsc-feedstock" xlink:title="petsc">
<ellipse fill="#fde725" stroke="black" cx="38.06" cy="-134" rx="38.06" ry="18"/>
<text xml:space="preserve" text-anchor="middle" x="38.06" y="-129.32" font-family="Times,serif" font-size="14.00">petsc</text>
</a>
</g>
</g>
<!-- openmpi&#45;&gt;petsc -->
<g id="edge4" class="edge">
<title>openmpi&#45;&gt;petsc</title>
<path fill="none" stroke="black" d="M177.7,-191.5C148.93,-179.86 107.35,-163.04 77.05,-150.78"/>
<polygon fill="black" stroke="black" points="78.43,-147.56 67.84,-147.05 75.8,-154.05 78.43,-147.56"/>
</g>
<!-- gromacs -->
<g id="node3" class="node">
<title>gromacs</title>
<g id="a_node3"><a xlink:href="https://github.com/conda-forge/gromacs-feedstock" xlink:title="gromacs">
<ellipse fill="#fde725" stroke="black" cx="148.06" cy="-134" rx="53.84" ry="18"/>
<text xml:space="preserve" text-anchor="middle" x="148.06" y="-129.32" font-family="Times,serif" font-size="14.00">gromacs</text>
</a>
</g>
</g>
<!-- openmpi&#45;&gt;gromacs -->
<g id="edge2" class="edge">
<title>openmpi&#45;&gt;gromacs</title>
<path fill="none" stroke="black" d="M196.13,-188.41C188.44,-179.87 178.91,-169.28 170.36,-159.79"/>
<polygon fill="black" stroke="black" points="173.18,-157.69 163.89,-152.59 167.98,-162.37 173.18,-157.69"/>
</g>
<!-- flux&#45;core -->
<g id="node4" class="node">
<title>flux&#45;core</title>
<g id="a_node4"><a xlink:href="https://github.com/conda-forge/flux-core-feedstock" xlink:title="flux core">
<ellipse fill="#fde725" stroke="black" cx="274.06" cy="-134" rx="54.36" ry="18"/>
<text xml:space="preserve" text-anchor="middle" x="274.06" y="-129.32" font-family="Times,serif" font-size="14.00">flux core</text>
</a>
</g>
</g>
<!-- openmpi&#45;&gt;flux&#45;core -->
<g id="edge1" class="edge">
<title>openmpi&#45;&gt;flux&#45;core</title>
<path fill="none" stroke="black" d="M225.99,-188.41C233.67,-179.87 243.2,-169.28 251.75,-159.79"/>
<polygon fill="black" stroke="black" points="254.13,-162.37 258.22,-152.59 248.93,-157.69 254.13,-162.37"/>
</g>
<!-- libplanc -->
<g id="node13" class="node">
<title>libplanc</title>
<g id="a_node13"><a xlink:href="https://github.com/conda-forge/libplanc-feedstock" xlink:title="libplanc">
<ellipse fill="#fde725" stroke="black" cx="397.06" cy="-134" rx="50.68" ry="18"/>
<text xml:space="preserve" text-anchor="middle" x="397.06" y="-129.32" font-family="Times,serif" font-size="14.00">libplanc</text>
</a>
</g>
</g>
<!-- openmpi&#45;&gt;libplanc -->
<g id="edge3" class="edge">
<title>openmpi&#45;&gt;libplanc</title>
<path fill="none" stroke="black" d="M246.04,-191.83C276.2,-180.48 319.91,-164.03 352.56,-151.75"/>
<polygon fill="black" stroke="black" points="353.63,-155.08 361.75,-148.29 351.16,-148.53 353.63,-155.08"/>
</g>
<!-- flux&#45;sched -->
<g id="node5" class="node">
<title>flux&#45;sched</title>
<g id="a_node5"><a xlink:href="https://github.com/conda-forge/flux-sched-feedstock" xlink:title="flux sched">
<ellipse fill="#fde725" stroke="black" cx="274.06" cy="-62" rx="61.73" ry="18"/>
<text xml:space="preserve" text-anchor="middle" x="274.06" y="-57.33" font-family="Times,serif" font-size="14.00">flux sched</text>
</a>
</g>
</g>
<!-- flux&#45;core&#45;&gt;flux&#45;sched -->
<g id="edge5" class="edge">
<title>flux&#45;core&#45;&gt;flux&#45;sched</title>
<path fill="none" stroke="black" d="M274.06,-115.7C274.06,-108.41 274.06,-99.73 274.06,-91.54"/>
<polygon fill="black" stroke="black" points="277.56,-91.62 274.06,-81.62 270.56,-91.62 277.56,-91.62"/>
</g>
<!-- spral -->
<g id="node6" class="node">
<title>spral</title>
<g id="a_node6"><a xlink:href="https://github.com/conda-forge/spral-feedstock/pull/24" xlink:title="spral ✓">
<ellipse fill="#31688e" stroke="black" cx="552.06" cy="-18" rx="44.37" ry="18"/>
<text xml:space="preserve" text-anchor="middle" x="552.06" y="-13.32" font-family="Times,serif" font-size="14.00" fill="white">spral ✓</text>
</a>
</g>
</g>
<!-- mvapich -->
<g id="node7" class="node">
<title>mvapich</title>
<g id="a_node7"><a xlink:href="https://github.com/conda-forge/mvapich-feedstock/pull/21" xlink:title="mvapich ✓">
<ellipse fill="#31688e" stroke="black" cx="229.06" cy="-18" rx="61.2" ry="18"/>
<text xml:space="preserve" text-anchor="middle" x="229.06" y="-13.32" font-family="Times,serif" font-size="14.00" fill="white">mvapich ✓</text>
</a>
</g>
</g>
<!-- prrte -->
<g id="node8" class="node">
<title>prrte</title>
<g id="a_node8"><a xlink:href="https://github.com/conda-forge/prrte-feedstock" xlink:title="prrte">
<ellipse fill="#fde725" stroke="black" cx="320.06" cy="-206" rx="37" ry="18"/>
<text xml:space="preserve" text-anchor="middle" x="320.06" y="-201.32" font-family="Times,serif" font-size="14.00">prrte</text>
</a>
</g>
</g>
<!-- openpmix -->
<g id="node9" class="node">
<title>openpmix</title>
<g id="a_node9"><a xlink:href="https://github.com/conda-forge/openpmix-feedstock/pull/8" xlink:title="openpmix ✓">
<ellipse fill="#31688e" stroke="black" cx="320.06" cy="-278" rx="68.04" ry="18"/>
<text xml:space="preserve" text-anchor="middle" x="320.06" y="-273.32" font-family="Times,serif" font-size="14.00" fill="white">openpmix ✓</text>
</a>
</g>
</g>
<!-- openpmix&#45;&gt;openmpi -->
<g id="edge6" class="edge">
<title>openpmix&#45;&gt;openmpi</title>
<path fill="none" stroke="black" d="M295.05,-260.94C280.16,-251.38 261.08,-239.12 244.86,-228.71"/>
<polygon fill="black" stroke="black" points="246.78,-225.78 236.47,-223.32 242.99,-231.67 246.78,-225.78"/>
</g>
<!-- openpmix&#45;&gt;prrte -->
<g id="edge7" class="edge">
<title>openpmix&#45;&gt;prrte</title>
<path fill="none" stroke="black" d="M320.06,-259.7C320.06,-252.41 320.06,-243.73 320.06,-235.54"/>
<polygon fill="black" stroke="black" points="323.56,-235.62 320.06,-225.62 316.56,-235.62 323.56,-235.62"/>
</g>
<!-- psmpi -->
<g id="node10" class="node">
<title>psmpi</title>
<g id="a_node10"><a xlink:href="https://github.com/conda-forge/psmpi-feedstock" xlink:title="psmpi">
<ellipse fill="#fde725" stroke="black" cx="417.06" cy="-206" rx="41.74" ry="18"/>
<text xml:space="preserve" text-anchor="middle" x="417.06" y="-201.32" font-family="Times,serif" font-size="14.00">psmpi</text>
</a>
</g>
</g>
<!-- openpmix&#45;&gt;psmpi -->
<g id="edge8" class="edge">
<title>openpmix&#45;&gt;psmpi</title>
<path fill="none" stroke="black" d="M342.55,-260.76C355.87,-251.16 372.89,-238.87 387.31,-228.47"/>
<polygon fill="black" stroke="black" points="389.05,-231.53 395.11,-222.84 384.95,-225.85 389.05,-231.53"/>
</g>
<!-- libnvshmem -->
<g id="node11" class="node">
<title>libnvshmem</title>
<g id="a_node11"><a xlink:href="https://github.com/conda-forge/libnvshmem-feedstock/pull/9" xlink:title="libnvshmem ✓">
<ellipse fill="#31688e" stroke="black" cx="726.06" cy="-170" rx="80.14" ry="18"/>
<text xml:space="preserve" text-anchor="middle" x="726.06" y="-165.32" font-family="Times,serif" font-size="14.00" fill="white">libnvshmem ✓</text>
</a>
</g>
</g>
<!-- tt&#45;metalium -->
<g id="node12" class="node">
<title>tt&#45;metalium</title>
<g id="a_node12"><a xlink:href="https://github.com/conda-forge/tt-metalium-feedstock/pull/12" xlink:title="tt metalium ❎">
<ellipse fill="#31688e" stroke="black" cx="552.06" cy="-170" rx="85.41" ry="18"/>
<text xml:space="preserve" text-anchor="middle" x="552.06" y="-165.32" font-family="Times,serif" font-size="14.00" fill="white">tt metalium ❎</text>
</a>
</g>
</g>
</g>
</svg>
