<?xml version="1.0" encoding="UTF-8" standalone="no"?>
<!DOCTYPE svg PUBLIC "-//W3C//DTD SVG 1.1//EN"
 "http://www.w3.org/Graphics/SVG/1.1/DTD/svg11.dtd">
<!-- Generated by graphviz version 13.1.0 (20250701.1702)
 -->
<!-- Pages: 1 -->
<svg width="1001pt" height="332pt"
 viewBox="0.00 0.00 1001.00 332.00" xmlns="http://www.w3.org/2000/svg" xmlns:xlink="http://www.w3.org/1999/xlink">
<g id="graph0" class="graph" transform="scale(1 1) rotate(0) translate(4 328)">
<polygon fill="white" stroke="none" points="-4,4 -4,-328 996.88,-328 996.88,4 -4,4"/>
<!-- openmpi -->
<g id="node1" class="node">
<title>openmpi</title>
<g id="a_node1"><a xlink:href="https://github.com/conda-forge/openmpi-feedstock" xlink:title="openmpi">
<ellipse fill="#fde725" stroke="black" cx="215.74" cy="-234" rx="54.36" ry="18"/>
<text xml:space="preserve" text-anchor="middle" x="215.74" y="-229.32" font-family="Times,serif" font-size="14.00">openmpi</text>
</a>
</g>
</g>
<!-- petsc -->
<g id="node2" class="node">
<title>petsc</title>
<g id="a_node2"><a xlink:href="https://github.com/conda-forge/petsc-feedstock" xlink:title="petsc">
<ellipse fill="#fde725" stroke="black" cx="434.74" cy="-162" rx="38.06" ry="18"/>
<text xml:space="preserve" text-anchor="middle" x="434.74" y="-157.32" font-family="Times,serif" font-size="14.00">petsc</text>
</a>
</g>
</g>
<!-- openmpi&#45;&gt;petsc -->
<g id="edge1" class="edge">
<title>openmpi&#45;&gt;petsc</title>
<path fill="none" stroke="black" d="M255.53,-221.33C290.51,-210.93 342.7,-195.07 387.74,-180 390.08,-179.22 392.48,-178.4 394.9,-177.56"/>
<polygon fill="black" stroke="black" points="395.79,-180.96 404.05,-174.33 393.46,-174.36 395.79,-180.96"/>
</g>
<!-- gromacs -->
<g id="node3" class="node">
<title>gromacs</title>
<g id="a_node3"><a xlink:href="https://github.com/conda-forge/gromacs-feedstock" xlink:title="gromacs">
<ellipse fill="#fde725" stroke="black" cx="204.74" cy="-162" rx="53.84" ry="18"/>
<text xml:space="preserve" text-anchor="middle" x="204.74" y="-157.32" font-family="Times,serif" font-size="14.00">gromacs</text>
</a>
</g>
</g>
<!-- openmpi&#45;&gt;gromacs -->
<g id="edge2" class="edge">
<title>openmpi&#45;&gt;gromacs</title>
<path fill="none" stroke="black" d="M213.02,-215.7C211.86,-208.32 210.48,-199.52 209.18,-191.25"/>
<polygon fill="black" stroke="black" points="212.67,-190.93 207.66,-181.6 205.76,-192.02 212.67,-190.93"/>
</g>
<!-- flux&#45;core -->
<g id="node4" class="node">
<title>flux&#45;core</title>
<g id="a_node4"><a xlink:href="https://github.com/conda-forge/flux-core-feedstock" xlink:title="flux core">
<ellipse fill="#fde725" stroke="black" cx="122.74" cy="-90" rx="54.36" ry="18"/>
<text xml:space="preserve" text-anchor="middle" x="122.74" y="-85.33" font-family="Times,serif" font-size="14.00">flux core</text>
</a>
</g>
</g>
<!-- openmpi&#45;&gt;flux&#45;core -->
<g id="edge3" class="edge">
<title>openmpi&#45;&gt;flux&#45;core</title>
<path fill="none" stroke="black" d="M185.94,-218.55C170.46,-209.55 152.56,-196.52 141.74,-180 130.02,-162.11 125.38,-138.26 123.61,-119.75"/>
<polygon fill="black" stroke="black" points="127.12,-119.71 122.93,-109.99 120.14,-120.21 127.12,-119.71"/>
</g>
<!-- libplanc -->
<g id="node5" class="node">
<title>libplanc</title>
<g id="a_node5"><a xlink:href="https://github.com/conda-forge/libplanc-feedstock" xlink:title="libplanc">
<ellipse fill="#fde725" stroke="black" cx="327.74" cy="-162" rx="50.68" ry="18"/>
<text xml:space="preserve" text-anchor="middle" x="327.74" y="-157.32" font-family="Times,serif" font-size="14.00">libplanc</text>
</a>
</g>
</g>
<!-- openmpi&#45;&gt;libplanc -->
<g id="edge4" class="edge">
<title>openmpi&#45;&gt;libplanc</title>
<path fill="none" stroke="black" d="M240.32,-217.64C256.04,-207.81 276.64,-194.94 293.89,-184.15"/>
<polygon fill="black" stroke="black" points="295.69,-187.16 302.32,-178.89 291.98,-181.22 295.69,-187.16"/>
</g>
<!-- flux&#45;sched -->
<g id="node6" class="node">
<title>flux&#45;sched</title>
<g id="a_node6"><a xlink:href="https://github.com/conda-forge/flux-sched-feedstock" xlink:title="flux sched">
<ellipse fill="#fde725" stroke="black" cx="122.74" cy="-18" rx="61.73" ry="18"/>
<text xml:space="preserve" text-anchor="middle" x="122.74" y="-13.32" font-family="Times,serif" font-size="14.00">flux sched</text>
</a>
</g>
</g>
<!-- flux&#45;core&#45;&gt;flux&#45;sched -->
<g id="edge5" class="edge">
<title>flux&#45;core&#45;&gt;flux&#45;sched</title>
<path fill="none" stroke="black" d="M122.74,-71.7C122.74,-64.41 122.74,-55.73 122.74,-47.54"/>
<polygon fill="black" stroke="black" points="126.24,-47.62 122.74,-37.62 119.24,-47.62 126.24,-47.62"/>
</g>
<!-- tbb -->
<g id="node7" class="node">
<title>tbb</title>
<g id="a_node7"><a xlink:href="https://github.com/conda-forge/tbb-feedstock/pull/141" xlink:title="tbb ❎">
<ellipse fill="#31688e" stroke="black" cx="594.74" cy="-306" rx="43.32" ry="18"/>
<text xml:space="preserve" text-anchor="middle" x="594.74" y="-301.32" font-family="Times,serif" font-size="14.00" fill="white">tbb ❎</text>
</a>
</g>
</g>
<!-- tbb&#45;&gt;petsc -->
<g id="edge6" class="edge">
<title>tbb&#45;&gt;petsc</title>
<path fill="none" stroke="black" d="M553.51,-299.86C501.26,-292.4 415.7,-276.7 396.74,-252 381.79,-232.53 396.28,-206.3 411.48,-187.36"/>
<polygon fill="black" stroke="black" points="414.05,-189.74 417.88,-179.86 408.73,-185.19 414.05,-189.74"/>
</g>
<!-- tbb&#45;&gt;libplanc -->
<g id="edge7" class="edge">
<title>tbb&#45;&gt;libplanc</title>
<path fill="none" stroke="black" d="M551.53,-302.98C506.61,-298.96 436.11,-287.06 386.74,-252 365.06,-236.61 349.15,-210.52 339.35,-190.56"/>
<polygon fill="black" stroke="black" points="342.57,-189.17 335.18,-181.58 336.22,-192.12 342.57,-189.17"/>
</g>
<!-- intel&#45;compiler&#45;repack -->
<g id="node8" class="node">
<title>intel&#45;compiler&#45;repack</title>
<g id="a_node8"><a xlink:href="https://github.com/conda-forge/intel-compiler-repack-feedstock" xlink:title="intel compiler repack">
<ellipse fill="#fde725" stroke="black" cx="522.74" cy="-234" rx="117.5" ry="18"/>
<text xml:space="preserve" text-anchor="middle" x="522.74" y="-229.32" font-family="Times,serif" font-size="14.00">intel compiler repack</text>
</a>
</g>
</g>
<!-- tbb&#45;&gt;intel&#45;compiler&#45;repack -->
<g id="edge8" class="edge">
<title>tbb&#45;&gt;intel&#45;compiler&#45;repack</title>
<path fill="none" stroke="black" d="M578.4,-289.12C569.52,-280.48 558.33,-269.61 548.32,-259.88"/>
<polygon fill="black" stroke="black" points="550.96,-257.56 541.35,-253.1 546.08,-262.58 550.96,-257.56"/>
</g>
<!-- spral -->
<g id="node9" class="node">
<title>spral</title>
<g id="a_node9"><a xlink:href="https://github.com/conda-forge/spral-feedstock" xlink:title="spral">
<ellipse fill="#fde725" stroke="black" cx="527.74" cy="-162" rx="36.48" ry="18"/>
<text xml:space="preserve" text-anchor="middle" x="527.74" y="-157.32" font-family="Times,serif" font-size="14.00">spral</text>
</a>
</g>
</g>
<!-- tbb&#45;&gt;spral -->
<g id="edge9" class="edge">
<title>tbb&#45;&gt;spral</title>
<path fill="none" stroke="black" d="M616.86,-290.13C628.73,-280.75 642.23,-267.5 648.74,-252 654.93,-237.25 657.49,-229.39 648.74,-216 643.86,-208.53 600.18,-190.55 566.69,-177.6"/>
<polygon fill="black" stroke="black" points="568.24,-174.45 557.65,-174.14 565.73,-180.98 568.24,-174.45"/>
</g>
<!-- pastix -->
<g id="node10" class="node">
<title>pastix</title>
<g id="a_node10"><a xlink:href="https://github.com/conda-forge/pastix-feedstock" xlink:title="pastix">
<ellipse fill="#fde725" stroke="black" cx="782.74" cy="-162" rx="41.74" ry="18"/>
<text xml:space="preserve" text-anchor="middle" x="782.74" y="-157.32" font-family="Times,serif" font-size="14.00">pastix</text>
</a>
</g>
</g>
<!-- tbb&#45;&gt;pastix -->
<g id="edge10" class="edge">
<title>tbb&#45;&gt;pastix</title>
<path fill="none" stroke="black" d="M624.67,-292.8C646.09,-283.33 675.03,-268.97 697.74,-252 722.59,-233.42 746.61,-207.28 762.73,-188.13"/>
<polygon fill="black" stroke="black" points="765.34,-190.47 769.02,-180.53 759.95,-186.01 765.34,-190.47"/>
</g>
<!-- tt&#45;metalium -->
<g id="node11" class="node">
<title>tt&#45;metalium</title>
<g id="a_node11"><a xlink:href="https://github.com/conda-forge/tt-metalium-feedstock" xlink:title="tt metalium">
<ellipse fill="#fde725" stroke="black" cx="652.74" cy="-162" rx="70.15" ry="18"/>
<text xml:space="preserve" text-anchor="middle" x="652.74" y="-157.32" font-family="Times,serif" font-size="14.00">tt metalium</text>
</a>
</g>
</g>
<!-- tbb&#45;&gt;tt&#45;metalium -->
<g id="edge11" class="edge">
<title>tbb&#45;&gt;tt&#45;metalium</title>
<path fill="none" stroke="black" d="M628.15,-294.07C647.53,-285.81 670.3,-272.35 681.74,-252 692.82,-232.27 683.27,-207.68 672.25,-189.35"/>
<polygon fill="black" stroke="black" points="675.31,-187.63 666.93,-181.15 669.44,-191.44 675.31,-187.63"/>
</g>
<!-- intel&#45;compiler&#45;repack&#45;&gt;petsc -->
<g id="edge12" class="edge">
<title>intel&#45;compiler&#45;repack&#45;&gt;petsc</title>
<path fill="none" stroke="black" d="M501.44,-216.05C489.65,-206.68 474.87,-194.92 462.22,-184.86"/>
<polygon fill="black" stroke="black" points="464.64,-182.32 454.64,-178.83 460.29,-187.79 464.64,-182.32"/>
</g>
<!-- intel&#45;compiler&#45;repack&#45;&gt;libplanc -->
<g id="edge13" class="edge">
<title>intel&#45;compiler&#45;repack&#45;&gt;libplanc</title>
<path fill="none" stroke="black" d="M478,-216.94C446.62,-205.68 404.8,-190.66 373.25,-179.34"/>
<polygon fill="black" stroke="black" points="374.57,-176.09 363.98,-176.01 372.21,-182.68 374.57,-176.09"/>
</g>
<!-- intel&#45;compiler&#45;repack&#45;&gt;spral -->
<g id="edge14" class="edge">
<title>intel&#45;compiler&#45;repack&#45;&gt;spral</title>
<path fill="none" stroke="black" d="M523.97,-215.7C524.5,-208.41 525.12,-199.73 525.7,-191.54"/>
<polygon fill="black" stroke="black" points="529.19,-191.84 526.41,-181.61 522.21,-191.34 529.19,-191.84"/>
</g>
<!-- intel&#45;compiler&#45;repack&#45;&gt;pastix -->
<g id="edge15" class="edge">
<title>intel&#45;compiler&#45;repack&#45;&gt;pastix</title>
<path fill="none" stroke="black" d="M585.25,-218.42C626.95,-208.38 682.88,-194.32 731.74,-180 734.44,-179.21 737.22,-178.37 740.01,-177.5"/>
<polygon fill="black" stroke="black" points="740.85,-180.9 749.31,-174.52 738.72,-174.24 740.85,-180.9"/>
</g>
<!-- intel&#45;compiler&#45;repack&#45;&gt;tt&#45;metalium -->
<g id="edge16" class="edge">
<title>intel&#45;compiler&#45;repack&#45;&gt;tt&#45;metalium</title>
<path fill="none" stroke="black" d="M553.88,-216.23C571.83,-206.56 594.57,-194.32 613.71,-184.01"/>
<polygon fill="black" stroke="black" points="615.16,-187.21 622.3,-179.39 611.84,-181.05 615.16,-187.21"/>
</g>
<!-- hpx -->
<g id="node12" class="node">
<title>hpx</title>
<g id="a_node12"><a xlink:href="https://github.com/conda-forge/hpx-feedstock/pull/38" xlink:title="hpx ✓">
<ellipse fill="#31688e" stroke="black" cx="912.74" cy="-270" rx="37.53" ry="18"/>
<text xml:space="preserve" text-anchor="middle" x="912.74" y="-265.32" font-family="Times,serif" font-size="14.00" fill="white">hpx ✓</text>
</a>
</g>
</g>
<!-- tblis -->
<g id="node13" class="node">
<title>tblis</title>
<g id="a_node13"><a xlink:href="https://github.com/conda-forge/tblis-feedstock/pull/4" xlink:title="tblis ❎">
<ellipse fill="#31688e" stroke="black" cx="912.74" cy="-198" rx="48.58" ry="18"/>
<text xml:space="preserve" text-anchor="middle" x="912.74" y="-193.32" font-family="Times,serif" font-size="14.00" fill="white">tblis ❎</text>
</a>
</g>
</g>
<!-- hpx&#45;&gt;tblis -->
<!-- mvapich -->
<g id="node14" class="node">
<title>mvapich</title>
<g id="a_node14"><a xlink:href="https://github.com/conda-forge/mvapich-feedstock/pull/21" xlink:title="mvapich ✓">
<ellipse fill="#31688e" stroke="black" cx="912.74" cy="-126" rx="61.2" ry="18"/>
<text xml:space="preserve" text-anchor="middle" x="912.74" y="-121.33" font-family="Times,serif" font-size="14.00" fill="white">mvapich ✓</text>
</a>
</g>
</g>
<!-- tblis&#45;&gt;mvapich -->
<!-- libnvshmem -->
<g id="node15" class="node">
<title>libnvshmem</title>
<g id="a_node15"><a xlink:href="https://github.com/conda-forge/libnvshmem-feedstock/pull/9" xlink:title="libnvshmem ✓">
<ellipse fill="#31688e" stroke="black" cx="912.74" cy="-54" rx="80.14" ry="18"/>
<text xml:space="preserve" text-anchor="middle" x="912.74" y="-49.33" font-family="Times,serif" font-size="14.00" fill="white">libnvshmem ✓</text>
</a>
</g>
</g>
<!-- mvapich&#45;&gt;libnvshmem -->
<!-- prrte -->
<g id="node16" class="node">
<title>prrte</title>
<g id="a_node16"><a xlink:href="https://github.com/conda-forge/prrte-feedstock" xlink:title="prrte">
<ellipse fill="#fde725" stroke="black" cx="106.74" cy="-234" rx="37" ry="18"/>
<text xml:space="preserve" text-anchor="middle" x="106.74" y="-229.32" font-family="Times,serif" font-size="14.00">prrte</text>
</a>
</g>
</g>
<!-- openpmix -->
<g id="node17" class="node">
<title>openpmix</title>
<g id="a_node17"><a xlink:href="https://github.com/conda-forge/openpmix-feedstock/pull/8" xlink:title="openpmix ✓">
<ellipse fill="#31688e" stroke="black" cx="106.74" cy="-306" rx="68.04" ry="18"/>
<text xml:space="preserve" text-anchor="middle" x="106.74" y="-301.32" font-family="Times,serif" font-size="14.00" fill="white">openpmix ✓</text>
</a>
</g>
</g>
<!-- openpmix&#45;&gt;openmpi -->
<g id="edge20" class="edge">
<title>openpmix&#45;&gt;openmpi</title>
<path fill="none" stroke="black" d="M131.75,-288.94C146.63,-279.38 165.72,-267.12 181.93,-256.71"/>
<polygon fill="black" stroke="black" points="183.8,-259.67 190.32,-251.32 180.02,-253.78 183.8,-259.67"/>
</g>
<!-- openpmix&#45;&gt;prrte -->
<g id="edge21" class="edge">
<title>openpmix&#45;&gt;prrte</title>
<path fill="none" stroke="black" d="M106.74,-287.7C106.74,-280.41 106.74,-271.73 106.74,-263.54"/>
<polygon fill="black" stroke="black" points="110.24,-263.62 106.74,-253.62 103.24,-263.62 110.24,-263.62"/>
</g>
<!-- psmpi -->
<g id="node18" class="node">
<title>psmpi</title>
<g id="a_node18"><a xlink:href="https://github.com/conda-forge/psmpi-feedstock" xlink:title="psmpi">
<ellipse fill="#fde725" stroke="black" cx="41.74" cy="-162" rx="41.74" ry="18"/>
<text xml:space="preserve" text-anchor="middle" x="41.74" y="-157.32" font-family="Times,serif" font-size="14.00">psmpi</text>
</a>
</g>
</g>
<!-- openpmix&#45;&gt;psmpi -->
<g id="edge22" class="edge">
<title>openpmix&#45;&gt;psmpi</title>
<path fill="none" stroke="black" d="M88.5,-288.51C78.84,-278.79 67.59,-265.74 60.74,-252 51.3,-233.07 46.54,-209.6 44.14,-191.51"/>
<polygon fill="black" stroke="black" points="47.64,-191.28 43.03,-181.74 40.68,-192.07 47.64,-191.28"/>
</g>
</g>
</svg>
