<?xml version="1.0" encoding="UTF-8" standalone="no"?>
<!DOCTYPE svg PUBLIC "-//W3C//DTD SVG 1.1//EN"
 "http://www.w3.org/Graphics/SVG/1.1/DTD/svg11.dtd">
<!-- Generated by graphviz version 13.1.2 (20250809.0930)
 -->
<!-- Pages: 1 -->
<svg width="1106pt" height="996pt"
 viewBox="0.00 0.00 1106.00 996.00" xmlns="http://www.w3.org/2000/svg" xmlns:xlink="http://www.w3.org/1999/xlink">
<g id="graph0" class="graph" transform="scale(1 1) rotate(0) translate(4 992)">
<polygon fill="white" stroke="none" points="-4,4 -4,-992 1102.03,-992 1102.03,4 -4,4"/>
<!-- cdms2 -->
<g id="node1" class="node">
<title>cdms2</title>
<g id="a_node1"><a xlink:href="https://github.com/conda-forge/cdms2-feedstock" xlink:title="cdms2">
<ellipse fill="#fde725" stroke="black" cx="126.05" cy="-646" rx="43.84" ry="18"/>
<text xml:space="preserve" text-anchor="middle" x="126.05" y="-641.33" font-family="Times,serif" font-size="14.00">cdms2</text>
</a>
</g>
</g>
<!-- cdo -->
<g id="node2" class="node">
<title>cdo</title>
<g id="a_node2"><a xlink:href="https://github.com/conda-forge/cdo-feedstock" xlink:title="cdo">
<ellipse fill="#fde725" stroke="black" cx="329.05" cy="-18" rx="28.59" ry="18"/>
<text xml:space="preserve" text-anchor="middle" x="329.05" y="-13.32" font-family="Times,serif" font-size="14.00">cdo</text>
</a>
</g>
</g>
<!-- cdtime -->
<g id="node3" class="node">
<title>cdtime</title>
<g id="a_node3"><a xlink:href="https://github.com/conda-forge/cdtime-feedstock" xlink:title="cdtime">
<ellipse fill="#fde725" stroke="black" cx="197.05" cy="-718" rx="45.42" ry="18"/>
<text xml:space="preserve" text-anchor="middle" x="197.05" y="-713.33" font-family="Times,serif" font-size="14.00">cdtime</text>
</a>
</g>
</g>
<!-- cdtime&#45;&gt;cdms2 -->
<g id="edge1" class="edge">
<title>cdtime&#45;&gt;cdms2</title>
<path fill="none" stroke="black" d="M180.59,-700.76C171.62,-691.93 160.37,-680.83 150.41,-671.01"/>
<polygon fill="black" stroke="black" points="153.09,-668.74 143.51,-664.21 148.17,-673.72 153.09,-668.74"/>
</g>
<!-- esmf -->
<g id="node4" class="node">
<title>esmf</title>
<g id="a_node4"><a xlink:href="https://github.com/conda-forge/esmf-feedstock" xlink:title="esmf">
<ellipse fill="#35b779" stroke="black" cx="296.05" cy="-718" rx="35.42" ry="18"/>
<text xml:space="preserve" text-anchor="middle" x="296.05" y="-713.33" font-family="Times,serif" font-size="14.00">esmf</text>
</a>
</g>
</g>
<!-- esmf&#45;&gt;cdms2 -->
<g id="edge2" class="edge">
<title>esmf&#45;&gt;cdms2</title>
<path fill="none" stroke="black" d="M269.12,-705.91C241.53,-694.55 198.3,-676.75 166.58,-663.69"/>
<polygon fill="black" stroke="black" points="168.28,-660.6 157.7,-660.03 165.62,-667.08 168.28,-660.6"/>
</g>
<!-- ncl -->
<g id="node5" class="node">
<title>ncl</title>
<g id="a_node5"><a xlink:href="https://github.com/conda-forge/ncl-feedstock" xlink:title="ncl">
<ellipse fill="#fde725" stroke="black" cx="296.05" cy="-646" rx="27" ry="18"/>
<text xml:space="preserve" text-anchor="middle" x="296.05" y="-641.33" font-family="Times,serif" font-size="14.00">ncl</text>
</a>
</g>
</g>
<!-- esmf&#45;&gt;ncl -->
<g id="edge3" class="edge">
<title>esmf&#45;&gt;ncl</title>
<path fill="none" stroke="black" d="M296.05,-699.7C296.05,-692.41 296.05,-683.73 296.05,-675.54"/>
<polygon fill="black" stroke="black" points="299.55,-675.62 296.05,-665.62 292.55,-675.62 299.55,-675.62"/>
</g>
<!-- nco -->
<g id="node6" class="node">
<title>nco</title>
<g id="a_node6"><a xlink:href="https://github.com/conda-forge/nco-feedstock" xlink:title="nco">
<ellipse fill="#fde725" stroke="black" cx="220.05" cy="-646" rx="28.59" ry="18"/>
<text xml:space="preserve" text-anchor="middle" x="220.05" y="-641.33" font-family="Times,serif" font-size="14.00">nco</text>
</a>
</g>
</g>
<!-- esmf&#45;&gt;nco -->
<g id="edge4" class="edge">
<title>esmf&#45;&gt;nco</title>
<path fill="none" stroke="black" d="M279.56,-701.81C269.19,-692.26 255.64,-679.78 244.09,-669.14"/>
<polygon fill="black" stroke="black" points="246.57,-666.67 236.85,-662.47 241.83,-671.82 246.57,-666.67"/>
</g>
<!-- mpas_tools -->
<g id="node7" class="node">
<title>mpas_tools</title>
<g id="a_node7"><a xlink:href="https://github.com/conda-forge/mpas_tools-feedstock" xlink:title="mpas_tools">
<ellipse fill="#fde725" stroke="black" cx="218.05" cy="-574" rx="66.99" ry="18"/>
<text xml:space="preserve" text-anchor="middle" x="218.05" y="-569.33" font-family="Times,serif" font-size="14.00">mpas_tools</text>
</a>
</g>
</g>
<!-- nco&#45;&gt;mpas_tools -->
<g id="edge5" class="edge">
<title>nco&#45;&gt;mpas_tools</title>
<path fill="none" stroke="black" d="M219.56,-627.7C219.35,-620.41 219.1,-611.73 218.87,-603.54"/>
<polygon fill="black" stroke="black" points="222.37,-603.51 218.58,-593.62 215.37,-603.71 222.37,-603.51"/>
</g>
<!-- gdal -->
<g id="node8" class="node">
<title>gdal</title>
<g id="a_node8"><a xlink:href="https://github.com/conda-forge/gdal-feedstock" xlink:title="gdal">
<ellipse fill="#000000" stroke="black" cx="431.05" cy="-718" rx="32.79" ry="18"/>
<text xml:space="preserve" text-anchor="middle" x="431.05" y="-713.33" font-family="Times,serif" font-size="14.00" fill="white">gdal</text>
</a>
</g>
</g>
<!-- gdal&#45;&gt;ncl -->
<g id="edge6" class="edge">
<title>gdal&#45;&gt;ncl</title>
<path fill="none" stroke="black" d="M407.85,-704.97C385.42,-693.34 351.31,-675.65 326.67,-662.87"/>
<polygon fill="black" stroke="black" points="328.58,-659.92 318.09,-658.43 325.36,-666.14 328.58,-659.92"/>
</g>
<!-- gmt -->
<g id="node9" class="node">
<title>gmt</title>
<g id="a_node9"><a xlink:href="https://github.com/conda-forge/gmt-feedstock" xlink:title="gmt">
<ellipse fill="#fde725" stroke="black" cx="372.05" cy="-646" rx="31.22" ry="18"/>
<text xml:space="preserve" text-anchor="middle" x="372.05" y="-641.33" font-family="Times,serif" font-size="14.00">gmt</text>
</a>
</g>
</g>
<!-- gdal&#45;&gt;gmt -->
<g id="edge7" class="edge">
<title>gdal&#45;&gt;gmt</title>
<path fill="none" stroke="black" d="M417.66,-701.12C410.17,-692.22 400.67,-680.95 392.28,-671"/>
<polygon fill="black" stroke="black" points="395.08,-668.89 385.96,-663.5 389.73,-673.4 395.08,-668.89"/>
</g>
<!-- r&#45;gdalcubes -->
<g id="node10" class="node">
<title>r&#45;gdalcubes</title>
<g id="a_node10"><a xlink:href="https://github.com/conda-forge/r-gdalcubes-feedstock" xlink:title="r gdalcubes">
<ellipse fill="#fde725" stroke="black" cx="373.05" cy="-574" rx="69.62" ry="18"/>
<text xml:space="preserve" text-anchor="middle" x="373.05" y="-569.33" font-family="Times,serif" font-size="14.00">r gdalcubes</text>
</a>
</g>
</g>
<!-- gdal&#45;&gt;r&#45;gdalcubes -->
<g id="edge8" class="edge">
<title>gdal&#45;&gt;r&#45;gdalcubes</title>
<path fill="none" stroke="black" d="M429.53,-699.6C427.43,-681.15 422.61,-651.49 412.05,-628 407.81,-618.56 401.69,-609.17 395.55,-600.97"/>
<polygon fill="black" stroke="black" points="398.32,-598.84 389.38,-593.15 392.83,-603.17 398.32,-598.84"/>
</g>
<!-- pygnome -->
<g id="node11" class="node">
<title>pygnome</title>
<g id="a_node11"><a xlink:href="https://github.com/conda-forge/pygnome-feedstock" xlink:title="pygnome">
<ellipse fill="#fde725" stroke="black" cx="447.05" cy="-502" rx="57" ry="18"/>
<text xml:space="preserve" text-anchor="middle" x="447.05" y="-497.32" font-family="Times,serif" font-size="14.00">pygnome</text>
</a>
</g>
</g>
<!-- gdal&#45;&gt;pygnome -->
<g id="edge9" class="edge">
<title>gdal&#45;&gt;pygnome</title>
<path fill="none" stroke="black" d="M434.89,-699.72C440.02,-675.71 448.82,-630.81 452.05,-592 453.38,-576.06 452.81,-571.98 452.05,-556 451.68,-548.03 450.99,-539.41 450.24,-531.48"/>
<polygon fill="black" stroke="black" points="453.73,-531.26 449.24,-521.66 446.77,-531.97 453.73,-531.26"/>
</g>
<!-- windninja -->
<g id="node12" class="node">
<title>windninja</title>
<g id="a_node12"><a xlink:href="https://github.com/conda-forge/windninja-feedstock" xlink:title="windninja">
<ellipse fill="#fde725" stroke="black" cx="532.05" cy="-430" rx="60.15" ry="18"/>
<text xml:space="preserve" text-anchor="middle" x="532.05" y="-425.32" font-family="Times,serif" font-size="14.00">windninja</text>
</a>
</g>
</g>
<!-- gdal&#45;&gt;windninja -->
<g id="edge10" class="edge">
<title>gdal&#45;&gt;windninja</title>
<path fill="none" stroke="black" d="M440.43,-700.56C446.15,-690.23 453.42,-676.53 459.05,-664 487.07,-601.66 493.86,-585.6 513.05,-520 518.89,-500.04 523.75,-477.08 527.09,-459.48"/>
<polygon fill="black" stroke="black" points="530.51,-460.21 528.88,-449.74 523.63,-458.94 530.51,-460.21"/>
</g>
<!-- libcdms -->
<g id="node13" class="node">
<title>libcdms</title>
<g id="a_node13"><a xlink:href="https://github.com/conda-forge/libcdms-feedstock/pull/59" xlink:title="libcdms ❎">
<ellipse fill="#31688e" stroke="black" cx="197.05" cy="-790" rx="65.41" ry="18"/>
<text xml:space="preserve" text-anchor="middle" x="197.05" y="-785.33" font-family="Times,serif" font-size="14.00" fill="white">libcdms ❎</text>
</a>
</g>
</g>
<!-- libcdms&#45;&gt;cdms2 -->
<g id="edge11" class="edge">
<title>libcdms&#45;&gt;cdms2</title>
<path fill="none" stroke="black" d="M174.92,-772.71C163.65,-763.24 150.74,-750.36 143.05,-736 133.11,-717.43 128.92,-693.94 127.18,-675.76"/>
<polygon fill="black" stroke="black" points="130.68,-675.64 126.45,-665.92 123.7,-676.15 130.68,-675.64"/>
</g>
<!-- libcdms&#45;&gt;cdtime -->
<g id="edge12" class="edge">
<title>libcdms&#45;&gt;cdtime</title>
<path fill="none" stroke="black" d="M197.05,-771.7C197.05,-764.41 197.05,-755.73 197.05,-747.54"/>
<polygon fill="black" stroke="black" points="200.55,-747.62 197.05,-737.62 193.55,-747.62 200.55,-747.62"/>
</g>
<!-- libdrs_f -->
<g id="node14" class="node">
<title>libdrs_f</title>
<g id="a_node14"><a xlink:href="https://github.com/conda-forge/libdrs_f-feedstock" xlink:title="libdrs_f">
<ellipse fill="#fde725" stroke="black" cx="609.05" cy="-646" rx="48.58" ry="18"/>
<text xml:space="preserve" text-anchor="middle" x="609.05" y="-641.33" font-family="Times,serif" font-size="14.00">libdrs_f</text>
</a>
</g>
</g>
<!-- libcdms&#45;&gt;libdrs_f -->
<g id="edge13" class="edge">
<title>libcdms&#45;&gt;libdrs_f</title>
<path fill="none" stroke="black" d="M259.3,-784.01C316.56,-777.82 402.95,-764.37 473.05,-736 513.59,-719.59 554.88,-690.44 581.17,-669.98"/>
<polygon fill="black" stroke="black" points="583.28,-672.76 588.95,-663.81 578.94,-667.28 583.28,-672.76"/>
</g>
<!-- libcf -->
<g id="node15" class="node">
<title>libcf</title>
<g id="a_node15"><a xlink:href="https://github.com/conda-forge/libcf-feedstock/pull/55" xlink:title="libcf ❎">
<ellipse fill="#31688e" stroke="black" cx="48.05" cy="-718" rx="48.05" ry="18"/>
<text xml:space="preserve" text-anchor="middle" x="48.05" y="-713.33" font-family="Times,serif" font-size="14.00" fill="white">libcf ❎</text>
</a>
</g>
</g>
<!-- libcf&#45;&gt;cdms2 -->
<g id="edge14" class="edge">
<title>libcf&#45;&gt;cdms2</title>
<path fill="none" stroke="black" d="M65.75,-701.12C75.92,-691.99 88.89,-680.36 100.18,-670.22"/>
<polygon fill="black" stroke="black" points="102.19,-673.12 107.3,-663.83 97.52,-667.91 102.19,-673.12"/>
</g>
<!-- magics -->
<g id="node16" class="node">
<title>magics</title>
<g id="a_node16"><a xlink:href="https://github.com/conda-forge/magics-feedstock" xlink:title="magics">
<ellipse fill="#ff8c00" stroke="black" cx="329.05" cy="-90" rx="46.47" ry="18"/>
<text xml:space="preserve" text-anchor="middle" x="329.05" y="-85.33" font-family="Times,serif" font-size="14.00">magics</text>
</a>
</g>
</g>
<!-- magics&#45;&gt;cdo -->
<g id="edge15" class="edge">
<title>magics&#45;&gt;cdo</title>
<path fill="none" stroke="black" d="M329.05,-71.7C329.05,-64.41 329.05,-55.73 329.05,-47.54"/>
<polygon fill="black" stroke="black" points="332.55,-47.62 329.05,-37.62 325.55,-47.62 332.55,-47.62"/>
</g>
<!-- paraview -->
<g id="node17" class="node">
<title>paraview</title>
<g id="a_node17"><a xlink:href="https://github.com/conda-forge/paraview-feedstock/pull/291" xlink:title="paraview ❎">
<ellipse fill="#31688e" stroke="black" cx="991.05" cy="-206" rx="72.25" ry="18"/>
<text xml:space="preserve" text-anchor="middle" x="991.05" y="-201.33" font-family="Times,serif" font-size="14.00" fill="white">paraview ❎</text>
</a>
</g>
</g>
<!-- lfric_reader -->
<g id="node18" class="node">
<title>lfric_reader</title>
<g id="a_node18"><a xlink:href="https://github.com/conda-forge/lfric_reader-feedstock" xlink:title="lfric_reader">
<ellipse fill="#fde725" stroke="black" cx="991.05" cy="-134" rx="69.1" ry="18"/>
<text xml:space="preserve" text-anchor="middle" x="991.05" y="-129.32" font-family="Times,serif" font-size="14.00">lfric_reader</text>
</a>
</g>
</g>
<!-- paraview&#45;&gt;lfric_reader -->
<g id="edge16" class="edge">
<title>paraview&#45;&gt;lfric_reader</title>
<path fill="none" stroke="black" d="M991.05,-187.7C991.05,-180.41 991.05,-171.73 991.05,-163.54"/>
<polygon fill="black" stroke="black" points="994.55,-163.62 991.05,-153.62 987.55,-163.62 994.55,-163.62"/>
</g>
<!-- pyferret -->
<g id="node19" class="node">
<title>pyferret</title>
<g id="a_node19"><a xlink:href="https://github.com/conda-forge/pyferret-feedstock/pull/115" xlink:title="pyferret ❎">
<ellipse fill="#31688e" stroke="black" cx="771.05" cy="-970" rx="67.52" ry="18"/>
<text xml:space="preserve" text-anchor="middle" x="771.05" y="-965.33" font-family="Times,serif" font-size="14.00" fill="white">pyferret ❎</text>
</a>
</g>
</g>
<!-- vic -->
<g id="node20" class="node">
<title>vic</title>
<g id="a_node20"><a xlink:href="https://github.com/conda-forge/vic-feedstock/pull/24" xlink:title="vic ❎">
<ellipse fill="#31688e" stroke="black" cx="771.05" cy="-898" rx="40.69" ry="18"/>
<text xml:space="preserve" text-anchor="middle" x="771.05" y="-893.33" font-family="Times,serif" font-size="14.00" fill="white">vic ❎</text>
</a>
</g>
</g>
<!-- pyferret&#45;&gt;vic -->
<!-- vtk -->
<g id="node21" class="node">
<title>vtk</title>
<g id="a_node21"><a xlink:href="https://github.com/conda-forge/vtk-feedstock/pull/395" xlink:title="vtk ❎">
<ellipse fill="#31688e" stroke="black" cx="771.05" cy="-826" rx="42.26" ry="18"/>
<text xml:space="preserve" text-anchor="middle" x="771.05" y="-821.33" font-family="Times,serif" font-size="14.00" fill="white">vtk ❎</text>
</a>
</g>
</g>
<!-- vic&#45;&gt;vtk -->
<!-- vmd&#45;python -->
<g id="node22" class="node">
<title>vmd&#45;python</title>
<g id="a_node22"><a xlink:href="https://github.com/conda-forge/vmd-python-feedstock/pull/47" xlink:title="vmd python ❎">
<ellipse fill="#31688e" stroke="black" cx="771.05" cy="-754" rx="85.93" ry="18"/>
<text xml:space="preserve" text-anchor="middle" x="771.05" y="-749.33" font-family="Times,serif" font-size="14.00" fill="white">vmd python ❎</text>
</a>
</g>
</g>
<!-- vtk&#45;&gt;vmd&#45;python -->
<!-- lammps -->
<g id="node23" class="node">
<title>lammps</title>
<g id="a_node23"><a xlink:href="https://github.com/conda-forge/lammps-feedstock" xlink:title="lammps">
<ellipse fill="#ff8c00" stroke="black" cx="771.05" cy="-682" rx="50.68" ry="18"/>
<text xml:space="preserve" text-anchor="middle" x="771.05" y="-677.33" font-family="Times,serif" font-size="14.00">lammps</text>
</a>
</g>
</g>
<!-- vmd&#45;python&#45;&gt;lammps -->
<!-- ambertools -->
<g id="node24" class="node">
<title>ambertools</title>
<g id="a_node24"><a xlink:href="https://github.com/conda-forge/ambertools-feedstock/pull/179" xlink:title="ambertools ❎">
<ellipse fill="#31688e" stroke="black" cx="771.05" cy="-610" rx="82.77" ry="18"/>
<text xml:space="preserve" text-anchor="middle" x="771.05" y="-605.33" font-family="Times,serif" font-size="14.00" fill="white">ambertools ❎</text>
</a>
</g>
</g>
<!-- lammps&#45;&gt;ambertools -->
<!-- fpocket -->
<g id="node26" class="node">
<title>fpocket</title>
<g id="a_node26"><a xlink:href="https://github.com/conda-forge/fpocket-feedstock/pull/36" xlink:title="fpocket ❎">
<ellipse fill="#31688e" stroke="black" cx="771.05" cy="-538" rx="63.31" ry="18"/>
<text xml:space="preserve" text-anchor="middle" x="771.05" y="-533.33" font-family="Times,serif" font-size="14.00" fill="white">fpocket ❎</text>
</a>
</g>
</g>
<!-- ambertools&#45;&gt;fpocket -->
<!-- metview -->
<g id="node25" class="node">
<title>metview</title>
<g id="a_node25"><a xlink:href="https://github.com/conda-forge/metview-feedstock" xlink:title="metview">
<ellipse fill="#fde725" stroke="black" cx="771.05" cy="-134" rx="53.84" ry="18"/>
<text xml:space="preserve" text-anchor="middle" x="771.05" y="-129.32" font-family="Times,serif" font-size="14.00">metview</text>
</a>
</g>
</g>
<!-- sphinxdft -->
<g id="node27" class="node">
<title>sphinxdft</title>
<g id="a_node27"><a xlink:href="https://github.com/conda-forge/sphinxdft-feedstock/pull/49" xlink:title="sphinxdft ❎">
<ellipse fill="#31688e" stroke="black" cx="771.05" cy="-466" rx="73.83" ry="18"/>
<text xml:space="preserve" text-anchor="middle" x="771.05" y="-461.32" font-family="Times,serif" font-size="14.00" fill="white">sphinxdft ❎</text>
</a>
</g>
</g>
<!-- fpocket&#45;&gt;sphinxdft -->
<!-- nccmp -->
<g id="node28" class="node">
<title>nccmp</title>
<g id="a_node28"><a xlink:href="https://github.com/conda-forge/nccmp-feedstock/pull/25" xlink:title="nccmp ✓">
<ellipse fill="#31688e" stroke="black" cx="771.05" cy="-394" rx="51.74" ry="18"/>
<text xml:space="preserve" text-anchor="middle" x="771.05" y="-389.32" font-family="Times,serif" font-size="14.00" fill="white">nccmp ✓</text>
</a>
</g>
</g>
<!-- sphinxdft&#45;&gt;nccmp -->
<!-- abinit -->
<g id="node32" class="node">
<title>abinit</title>
<g id="a_node32"><a xlink:href="https://github.com/conda-forge/abinit-feedstock" xlink:title="abinit">
<ellipse fill="#ff8c00" stroke="black" cx="771.05" cy="-322" rx="40.16" ry="18"/>
<text xml:space="preserve" text-anchor="middle" x="771.05" y="-317.32" font-family="Times,serif" font-size="14.00">abinit</text>
</a>
</g>
</g>
<!-- nccmp&#45;&gt;abinit -->
<!-- magics&#45;metview -->
<g id="node29" class="node">
<title>magics&#45;metview</title>
<g id="a_node29"><a xlink:href="https://github.com/conda-forge/magics-metview-feedstock" xlink:title="magics metview">
<ellipse fill="#ff8c00" stroke="black" cx="771.05" cy="-206" rx="92.25" ry="18"/>
<text xml:space="preserve" text-anchor="middle" x="771.05" y="-201.33" font-family="Times,serif" font-size="14.00">magics metview</text>
</a>
</g>
</g>
<!-- magics&#45;metview&#45;&gt;metview -->
<g id="edge25" class="edge">
<title>magics&#45;metview&#45;&gt;metview</title>
<path fill="none" stroke="black" d="M771.05,-187.7C771.05,-180.41 771.05,-171.73 771.05,-163.54"/>
<polygon fill="black" stroke="black" points="774.55,-163.62 771.05,-153.62 767.55,-163.62 774.55,-163.62"/>
</g>
<!-- magics&#45;metview&#45;batch -->
<g id="node30" class="node">
<title>magics&#45;metview&#45;batch</title>
<g id="a_node30"><a xlink:href="https://github.com/conda-forge/magics-metview-batch-feedstock" xlink:title="magics metview batch">
<ellipse fill="#ff8c00" stroke="black" cx="329.05" cy="-206" rx="123.29" ry="18"/>
<text xml:space="preserve" text-anchor="middle" x="329.05" y="-201.33" font-family="Times,serif" font-size="14.00">magics metview batch</text>
</a>
</g>
</g>
<!-- metview&#45;batch -->
<g id="node31" class="node">
<title>metview&#45;batch</title>
<g id="a_node31"><a xlink:href="https://github.com/conda-forge/metview-batch-feedstock" xlink:title="metview batch">
<ellipse fill="#fde725" stroke="black" cx="329.05" cy="-134" rx="84.88" ry="18"/>
<text xml:space="preserve" text-anchor="middle" x="329.05" y="-129.32" font-family="Times,serif" font-size="14.00">metview batch</text>
</a>
</g>
</g>
<!-- magics&#45;metview&#45;batch&#45;&gt;metview&#45;batch -->
<g id="edge26" class="edge">
<title>magics&#45;metview&#45;batch&#45;&gt;metview&#45;batch</title>
<path fill="none" stroke="black" d="M329.05,-187.7C329.05,-180.41 329.05,-171.73 329.05,-163.54"/>
<polygon fill="black" stroke="black" points="332.55,-163.62 329.05,-153.62 325.55,-163.62 332.55,-163.62"/>
</g>
<!-- pymol&#45;open&#45;source -->
<g id="node33" class="node">
<title>pymol&#45;open&#45;source</title>
<g id="a_node33"><a xlink:href="https://github.com/conda-forge/pymol-open-source-feedstock" xlink:title="pymol open source">
<ellipse fill="#ff8c00" stroke="black" cx="771.05" cy="-250" rx="105.4" ry="18"/>
<text xml:space="preserve" text-anchor="middle" x="771.05" y="-245.32" font-family="Times,serif" font-size="14.00">pymol open source</text>
</a>
</g>
</g>
<!-- abinit&#45;&gt;pymol&#45;open&#45;source -->
<!-- fimex -->
<g id="node34" class="node">
<title>fimex</title>
<g id="a_node34"><a xlink:href="https://github.com/conda-forge/fimex-feedstock" xlink:title="fimex">
<ellipse fill="#ff8c00" stroke="black" cx="991.05" cy="-790" rx="38.58" ry="18"/>
<text xml:space="preserve" text-anchor="middle" x="991.05" y="-785.33" font-family="Times,serif" font-size="14.00">fimex</text>
</a>
</g>
</g>
<!-- yambo -->
<g id="node35" class="node">
<title>yambo</title>
<g id="a_node35"><a xlink:href="https://github.com/conda-forge/yambo-feedstock/pull/48" xlink:title="yambo ❎">
<ellipse fill="#31688e" stroke="black" cx="991.05" cy="-718" rx="59.63" ry="18"/>
<text xml:space="preserve" text-anchor="middle" x="991.05" y="-713.33" font-family="Times,serif" font-size="14.00" fill="white">yambo ❎</text>
</a>
</g>
</g>
<!-- fimex&#45;&gt;yambo -->
<!-- ccr -->
<g id="node36" class="node">
<title>ccr</title>
<g id="a_node36"><a xlink:href="https://github.com/conda-forge/ccr-feedstock/pull/12" xlink:title="ccr ❎">
<ellipse fill="#31688e" stroke="black" cx="991.05" cy="-646" rx="41.74" ry="18"/>
<text xml:space="preserve" text-anchor="middle" x="991.05" y="-641.33" font-family="Times,serif" font-size="14.00" fill="white">ccr ❎</text>
</a>
</g>
</g>
<!-- yambo&#45;&gt;ccr -->
<!-- loos -->
<g id="node37" class="node">
<title>loos</title>
<g id="a_node37"><a xlink:href="https://github.com/conda-forge/loos-feedstock" xlink:title="loos">
<ellipse fill="#000000" stroke="black" cx="991.05" cy="-574" rx="31.22" ry="18"/>
<text xml:space="preserve" text-anchor="middle" x="991.05" y="-569.33" font-family="Times,serif" font-size="14.00" fill="white">loos</text>
</a>
</g>
</g>
<!-- ccr&#45;&gt;loos -->
<!-- rubin&#45;libradtran -->
<g id="node38" class="node">
<title>rubin&#45;libradtran</title>
<g id="a_node38"><a xlink:href="https://github.com/conda-forge/rubin-libradtran-feedstock/pull/12" xlink:title="rubin libradtran ❎">
<ellipse fill="#31688e" stroke="black" cx="991.05" cy="-502" rx="106.98" ry="18"/>
<text xml:space="preserve" text-anchor="middle" x="991.05" y="-497.32" font-family="Times,serif" font-size="14.00" fill="white">rubin libradtran ❎</text>
</a>
</g>
</g>
<!-- loos&#45;&gt;rubin&#45;libradtran -->
<!-- qdoas -->
<g id="node39" class="node">
<title>qdoas</title>
<g id="a_node39"><a xlink:href="https://github.com/conda-forge/qdoas-feedstock/pull/28" xlink:title="qdoas ✓">
<ellipse fill="#31688e" stroke="black" cx="991.05" cy="-430" rx="48.58" ry="18"/>
<text xml:space="preserve" text-anchor="middle" x="991.05" y="-425.32" font-family="Times,serif" font-size="14.00" fill="white">qdoas ✓</text>
</a>
</g>
</g>
<!-- rubin&#45;libradtran&#45;&gt;qdoas -->
</g>
</svg>
