<?xml version="1.0" encoding="UTF-8" standalone="no"?>
<!DOCTYPE svg PUBLIC "-//W3C//DTD SVG 1.1//EN"
 "http://www.w3.org/Graphics/SVG/1.1/DTD/svg11.dtd">
<!-- Generated by graphviz version 13.1.2 (20250809.0930)
 -->
<!-- Pages: 1 -->
<svg width="1185pt" height="1240pt"
 viewBox="0.00 0.00 1185.00 1240.00" xmlns="http://www.w3.org/2000/svg" xmlns:xlink="http://www.w3.org/1999/xlink">
<g id="graph0" class="graph" transform="scale(1 1) rotate(0) translate(4 1236)">
<polygon fill="white" stroke="none" points="-4,4 -4,-1236 1180.57,-1236 1180.57,4 -4,4"/>
<!-- cdms2 -->
<g id="node1" class="node">
<title>cdms2</title>
<g id="a_node1"><a xlink:href="https://github.com/conda-forge/cdms2-feedstock" xlink:title="cdms2">
<ellipse fill="#fde725" stroke="black" cx="558.22" cy="-854" rx="43.84" ry="18"/>
<text xml:space="preserve" text-anchor="middle" x="558.22" y="-849.33" font-family="Times,serif" font-size="14.00">cdms2</text>
</a>
</g>
</g>
<!-- cdo -->
<g id="node2" class="node">
<title>cdo</title>
<g id="a_node2"><a xlink:href="https://github.com/conda-forge/cdo-feedstock" xlink:title="cdo">
<ellipse fill="#fde725" stroke="black" cx="140.22" cy="-234" rx="28.59" ry="18"/>
<text xml:space="preserve" text-anchor="middle" x="140.22" y="-229.32" font-family="Times,serif" font-size="14.00">cdo</text>
</a>
</g>
</g>
<!-- cdtime -->
<g id="node3" class="node">
<title>cdtime</title>
<g id="a_node3"><a xlink:href="https://github.com/conda-forge/cdtime-feedstock" xlink:title="cdtime">
<ellipse fill="#fde725" stroke="black" cx="507.22" cy="-926" rx="45.42" ry="18"/>
<text xml:space="preserve" text-anchor="middle" x="507.22" y="-921.33" font-family="Times,serif" font-size="14.00">cdtime</text>
</a>
</g>
</g>
<!-- cdtime&#45;&gt;cdms2 -->
<g id="edge1" class="edge">
<title>cdtime&#45;&gt;cdms2</title>
<path fill="none" stroke="black" d="M519.3,-908.41C525.34,-900.13 532.77,-889.92 539.52,-880.66"/>
<polygon fill="black" stroke="black" points="542.27,-882.84 545.33,-872.69 536.61,-878.71 542.27,-882.84"/>
</g>
<!-- eccodes -->
<g id="node4" class="node">
<title>eccodes</title>
<g id="a_node4"><a xlink:href="https://github.com/conda-forge/eccodes-feedstock/pull/187" xlink:title="eccodes ❎">
<ellipse fill="#31688e" stroke="black" cx="371.22" cy="-378" rx="65.94" ry="18"/>
<text xml:space="preserve" text-anchor="middle" x="371.22" y="-373.32" font-family="Times,serif" font-size="14.00" fill="white">eccodes ❎</text>
</a>
</g>
</g>
<!-- eccodes&#45;&gt;cdo -->
<g id="edge2" class="edge">
<title>eccodes&#45;&gt;cdo</title>
<path fill="none" stroke="black" d="M307.89,-372.41C241.97,-366.17 145.16,-352.34 122.22,-324 107.9,-306.32 115.44,-280.3 124.75,-260.96"/>
<polygon fill="black" stroke="black" points="127.73,-262.81 129.27,-252.33 121.53,-259.56 127.73,-262.81"/>
</g>
<!-- magics -->
<g id="node5" class="node">
<title>magics</title>
<g id="a_node5"><a xlink:href="https://github.com/conda-forge/magics-feedstock" xlink:title="magics">
<ellipse fill="#fde725" stroke="black" cx="177.22" cy="-306" rx="46.47" ry="18"/>
<text xml:space="preserve" text-anchor="middle" x="177.22" y="-301.32" font-family="Times,serif" font-size="14.00">magics</text>
</a>
</g>
</g>
<!-- eccodes&#45;&gt;magics -->
<g id="edge3" class="edge">
<title>eccodes&#45;&gt;magics</title>
<path fill="none" stroke="black" d="M332.42,-363C300.2,-351.37 254.36,-334.84 220.86,-322.75"/>
<polygon fill="black" stroke="black" points="222.47,-319.61 211.87,-319.51 220.09,-326.19 222.47,-319.61"/>
</g>
<!-- metview -->
<g id="node6" class="node">
<title>metview</title>
<g id="a_node6"><a xlink:href="https://github.com/conda-forge/metview-feedstock" xlink:title="metview">
<ellipse fill="#fde725" stroke="black" cx="251.22" cy="-162" rx="53.84" ry="18"/>
<text xml:space="preserve" text-anchor="middle" x="251.22" y="-157.32" font-family="Times,serif" font-size="14.00">metview</text>
</a>
</g>
</g>
<!-- eccodes&#45;&gt;metview -->
<g id="edge4" class="edge">
<title>eccodes&#45;&gt;metview</title>
<path fill="none" stroke="black" d="M353.2,-360.23C330.26,-337.82 291.11,-295.82 270.22,-252 261.11,-232.91 256.33,-209.44 253.85,-191.4"/>
<polygon fill="black" stroke="black" points="257.34,-191.17 252.67,-181.66 250.39,-192.01 257.34,-191.17"/>
</g>
<!-- magics&#45;metview -->
<g id="node7" class="node">
<title>magics&#45;metview</title>
<g id="a_node7"><a xlink:href="https://github.com/conda-forge/magics-metview-feedstock" xlink:title="magics metview">
<ellipse fill="#fde725" stroke="black" cx="371.22" cy="-234" rx="92.25" ry="18"/>
<text xml:space="preserve" text-anchor="middle" x="371.22" y="-229.32" font-family="Times,serif" font-size="14.00">magics metview</text>
</a>
</g>
</g>
<!-- eccodes&#45;&gt;magics&#45;metview -->
<g id="edge5" class="edge">
<title>eccodes&#45;&gt;magics&#45;metview</title>
<path fill="none" stroke="black" d="M371.22,-359.59C371.22,-335.61 371.22,-292.14 371.22,-263.42"/>
<polygon fill="black" stroke="black" points="374.72,-263.62 371.22,-253.62 367.72,-263.62 374.72,-263.62"/>
</g>
<!-- magics&#45;metview&#45;batch -->
<g id="node8" class="node">
<title>magics&#45;metview&#45;batch</title>
<g id="a_node8"><a xlink:href="https://github.com/conda-forge/magics-metview-batch-feedstock" xlink:title="magics metview batch">
<ellipse fill="#fde725" stroke="black" cx="446.22" cy="-162" rx="123.29" ry="18"/>
<text xml:space="preserve" text-anchor="middle" x="446.22" y="-157.32" font-family="Times,serif" font-size="14.00">magics metview batch</text>
</a>
</g>
</g>
<!-- eccodes&#45;&gt;magics&#45;metview&#45;batch -->
<g id="edge6" class="edge">
<title>eccodes&#45;&gt;magics&#45;metview&#45;batch</title>
<path fill="none" stroke="black" d="M391.11,-360.45C415.66,-338.59 456.13,-297.51 472.22,-252 479.45,-231.54 471.86,-207.96 463.05,-190.2"/>
<polygon fill="black" stroke="black" points="466.22,-188.71 458.39,-181.57 460.06,-192.04 466.22,-188.71"/>
</g>
<!-- metview&#45;batch -->
<g id="node9" class="node">
<title>metview&#45;batch</title>
<g id="a_node9"><a xlink:href="https://github.com/conda-forge/metview-batch-feedstock" xlink:title="metview batch">
<ellipse fill="#fde725" stroke="black" cx="470.22" cy="-90" rx="84.88" ry="18"/>
<text xml:space="preserve" text-anchor="middle" x="470.22" y="-85.33" font-family="Times,serif" font-size="14.00">metview batch</text>
</a>
</g>
</g>
<!-- eccodes&#45;&gt;metview&#45;batch -->
<g id="edge7" class="edge">
<title>eccodes&#45;&gt;metview&#45;batch</title>
<path fill="none" stroke="black" d="M400.05,-361.43C448.91,-333.08 545.85,-267.74 578.22,-180 583.75,-164.99 586.68,-157.58 578.22,-144 568.15,-127.85 551.57,-116.48 534.38,-108.54"/>
<polygon fill="black" stroke="black" points="536.21,-105.51 525.63,-104.83 533.48,-111.95 536.21,-105.51"/>
</g>
<!-- fimex -->
<g id="node10" class="node">
<title>fimex</title>
<g id="a_node10"><a xlink:href="https://github.com/conda-forge/fimex-feedstock" xlink:title="fimex">
<ellipse fill="#fde725" stroke="black" cx="635.22" cy="-90" rx="38.58" ry="18"/>
<text xml:space="preserve" text-anchor="middle" x="635.22" y="-85.33" font-family="Times,serif" font-size="14.00">fimex</text>
</a>
</g>
</g>
<!-- eccodes&#45;&gt;fimex -->
<g id="edge8" class="edge">
<title>eccodes&#45;&gt;fimex</title>
<path fill="none" stroke="black" d="M412.21,-363.57C436.66,-354.49 467.62,-341.05 492.22,-324 528.9,-298.57 537,-288.82 562.22,-252 582.11,-222.96 580.67,-212.05 595.22,-180 604.56,-159.4 615.04,-136.08 622.93,-118.48"/>
<polygon fill="black" stroke="black" points="626.07,-120.02 626.97,-109.46 619.69,-117.16 626.07,-120.02"/>
</g>
<!-- magics&#45;&gt;cdo -->
<g id="edge9" class="edge">
<title>magics&#45;&gt;cdo</title>
<path fill="none" stroke="black" d="M168.26,-288.05C164.02,-280.03 158.85,-270.26 154.12,-261.3"/>
<polygon fill="black" stroke="black" points="157.31,-259.85 149.54,-252.65 151.12,-263.12 157.31,-259.85"/>
</g>
<!-- magics&#45;metview&#45;&gt;metview -->
<g id="edge10" class="edge">
<title>magics&#45;metview&#45;&gt;metview</title>
<path fill="none" stroke="black" d="M342.78,-216.41C326.01,-206.63 304.65,-194.17 286.78,-183.75"/>
<polygon fill="black" stroke="black" points="288.7,-180.82 278.3,-178.8 285.18,-186.86 288.7,-180.82"/>
</g>
<!-- magics&#45;metview&#45;batch&#45;&gt;metview&#45;batch -->
<g id="edge11" class="edge">
<title>magics&#45;metview&#45;batch&#45;&gt;metview&#45;batch</title>
<path fill="none" stroke="black" d="M452.15,-143.7C454.71,-136.24 457.76,-127.32 460.63,-118.97"/>
<polygon fill="black" stroke="black" points="463.93,-120.13 463.86,-109.54 457.31,-117.86 463.93,-120.13"/>
</g>
<!-- esmf -->
<g id="node11" class="node">
<title>esmf</title>
<g id="a_node11"><a xlink:href="https://github.com/conda-forge/esmf-feedstock" xlink:title="esmf">
<ellipse fill="#fde725" stroke="black" cx="408.22" cy="-926" rx="35.42" ry="18"/>
<text xml:space="preserve" text-anchor="middle" x="408.22" y="-921.33" font-family="Times,serif" font-size="14.00">esmf</text>
</a>
</g>
</g>
<!-- esmf&#45;&gt;cdms2 -->
<g id="edge12" class="edge">
<title>esmf&#45;&gt;cdms2</title>
<path fill="none" stroke="black" d="M433.66,-913.13C457.27,-902.11 492.75,-885.55 519.81,-872.92"/>
<polygon fill="black" stroke="black" points="521.14,-876.17 528.72,-868.77 518.18,-869.82 521.14,-876.17"/>
</g>
<!-- ncl -->
<g id="node12" class="node">
<title>ncl</title>
<g id="a_node12"><a xlink:href="https://github.com/conda-forge/ncl-feedstock" xlink:title="ncl">
<ellipse fill="#fde725" stroke="black" cx="364.22" cy="-854" rx="27" ry="18"/>
<text xml:space="preserve" text-anchor="middle" x="364.22" y="-849.33" font-family="Times,serif" font-size="14.00">ncl</text>
</a>
</g>
</g>
<!-- esmf&#45;&gt;ncl -->
<g id="edge13" class="edge">
<title>esmf&#45;&gt;ncl</title>
<path fill="none" stroke="black" d="M397.79,-908.41C392.56,-900.1 386.12,-889.85 380.28,-880.56"/>
<polygon fill="black" stroke="black" points="383.36,-878.87 375.07,-872.27 377.43,-882.6 383.36,-878.87"/>
</g>
<!-- nco -->
<g id="node13" class="node">
<title>nco</title>
<g id="a_node13"><a xlink:href="https://github.com/conda-forge/nco-feedstock" xlink:title="nco">
<ellipse fill="#fde725" stroke="black" cx="438.22" cy="-854" rx="28.59" ry="18"/>
<text xml:space="preserve" text-anchor="middle" x="438.22" y="-849.33" font-family="Times,serif" font-size="14.00">nco</text>
</a>
</g>
</g>
<!-- esmf&#45;&gt;nco -->
<g id="edge14" class="edge">
<title>esmf&#45;&gt;nco</title>
<path fill="none" stroke="black" d="M415.48,-908.05C418.79,-900.32 422.81,-890.96 426.53,-882.27"/>
<polygon fill="black" stroke="black" points="429.7,-883.75 430.42,-873.18 423.27,-880.99 429.7,-883.75"/>
</g>
<!-- mpas_tools -->
<g id="node14" class="node">
<title>mpas_tools</title>
<g id="a_node14"><a xlink:href="https://github.com/conda-forge/mpas_tools-feedstock" xlink:title="mpas_tools">
<ellipse fill="#fde725" stroke="black" cx="438.22" cy="-782" rx="66.99" ry="18"/>
<text xml:space="preserve" text-anchor="middle" x="438.22" y="-777.33" font-family="Times,serif" font-size="14.00">mpas_tools</text>
</a>
</g>
</g>
<!-- nco&#45;&gt;mpas_tools -->
<g id="edge15" class="edge">
<title>nco&#45;&gt;mpas_tools</title>
<path fill="none" stroke="black" d="M438.22,-835.7C438.22,-828.41 438.22,-819.73 438.22,-811.54"/>
<polygon fill="black" stroke="black" points="441.72,-811.62 438.22,-801.62 434.72,-811.62 441.72,-811.62"/>
</g>
<!-- gdal -->
<g id="node15" class="node">
<title>gdal</title>
<g id="a_node15"><a xlink:href="https://github.com/conda-forge/gdal-feedstock" xlink:title="gdal">
<ellipse fill="#000000" stroke="black" cx="143.22" cy="-926" rx="32.79" ry="18"/>
<text xml:space="preserve" text-anchor="middle" x="143.22" y="-921.33" font-family="Times,serif" font-size="14.00" fill="white">gdal</text>
</a>
</g>
</g>
<!-- gdal&#45;&gt;ncl -->
<g id="edge16" class="edge">
<title>gdal&#45;&gt;ncl</title>
<path fill="none" stroke="black" d="M168.33,-914.18C173.84,-911.99 179.68,-909.81 185.22,-908 247.52,-887.66 266.51,-894.1 328.22,-872 329.76,-871.45 331.33,-870.85 332.9,-870.22"/>
<polygon fill="black" stroke="black" points="334.01,-873.56 341.8,-866.37 331.23,-867.13 334.01,-873.56"/>
</g>
<!-- gmt -->
<g id="node16" class="node">
<title>gmt</title>
<g id="a_node16"><a xlink:href="https://github.com/conda-forge/gmt-feedstock" xlink:title="gmt">
<ellipse fill="#fde725" stroke="black" cx="31.22" cy="-854" rx="31.22" ry="18"/>
<text xml:space="preserve" text-anchor="middle" x="31.22" y="-849.33" font-family="Times,serif" font-size="14.00">gmt</text>
</a>
</g>
</g>
<!-- gdal&#45;&gt;gmt -->
<g id="edge17" class="edge">
<title>gdal&#45;&gt;gmt</title>
<path fill="none" stroke="black" d="M122.15,-911.83C104.99,-901.11 80.54,-885.83 61.32,-873.82"/>
<polygon fill="black" stroke="black" points="63.43,-871.01 53.09,-868.67 59.72,-876.94 63.43,-871.01"/>
</g>
<!-- r&#45;gdalcubes -->
<g id="node17" class="node">
<title>r&#45;gdalcubes</title>
<g id="a_node17"><a xlink:href="https://github.com/conda-forge/r-gdalcubes-feedstock" xlink:title="r gdalcubes">
<ellipse fill="#fde725" stroke="black" cx="249.22" cy="-854" rx="69.62" ry="18"/>
<text xml:space="preserve" text-anchor="middle" x="249.22" y="-849.33" font-family="Times,serif" font-size="14.00">r gdalcubes</text>
</a>
</g>
</g>
<!-- gdal&#45;&gt;r&#45;gdalcubes -->
<g id="edge18" class="edge">
<title>gdal&#45;&gt;r&#45;gdalcubes</title>
<path fill="none" stroke="black" d="M163.65,-911.5C178.24,-901.87 198.19,-888.69 215.16,-877.49"/>
<polygon fill="black" stroke="black" points="217.07,-880.42 223.48,-871.99 213.21,-874.58 217.07,-880.42"/>
</g>
<!-- pygnome -->
<g id="node18" class="node">
<title>pygnome</title>
<g id="a_node18"><a xlink:href="https://github.com/conda-forge/pygnome-feedstock" xlink:title="pygnome">
<ellipse fill="#fde725" stroke="black" cx="175.22" cy="-782" rx="57" ry="18"/>
<text xml:space="preserve" text-anchor="middle" x="175.22" y="-777.33" font-family="Times,serif" font-size="14.00">pygnome</text>
</a>
</g>
</g>
<!-- gdal&#45;&gt;pygnome -->
<g id="edge19" class="edge">
<title>gdal&#45;&gt;pygnome</title>
<path fill="none" stroke="black" d="M147.08,-907.87C152.48,-883.88 162.37,-839.99 168.87,-811.16"/>
<polygon fill="black" stroke="black" points="172.23,-812.19 171.01,-801.67 165.4,-810.65 172.23,-812.19"/>
</g>
<!-- windninja -->
<g id="node19" class="node">
<title>windninja</title>
<g id="a_node19"><a xlink:href="https://github.com/conda-forge/windninja-feedstock" xlink:title="windninja">
<ellipse fill="#fde725" stroke="black" cx="90.22" cy="-710" rx="60.15" ry="18"/>
<text xml:space="preserve" text-anchor="middle" x="90.22" y="-705.33" font-family="Times,serif" font-size="14.00">windninja</text>
</a>
</g>
</g>
<!-- gdal&#45;&gt;windninja -->
<g id="edge20" class="edge">
<title>gdal&#45;&gt;windninja</title>
<path fill="none" stroke="black" d="M138.3,-908.09C131.4,-884.14 118.65,-838.9 109.22,-800 104.34,-779.91 99.49,-757.12 95.91,-739.62"/>
<polygon fill="black" stroke="black" points="99.36,-739.05 93.95,-729.94 92.5,-740.44 99.36,-739.05"/>
</g>
<!-- libcdms -->
<g id="node20" class="node">
<title>libcdms</title>
<g id="a_node20"><a xlink:href="https://github.com/conda-forge/libcdms-feedstock/pull/59" xlink:title="libcdms ❎">
<ellipse fill="#31688e" stroke="black" cx="580.22" cy="-998" rx="65.41" ry="18"/>
<text xml:space="preserve" text-anchor="middle" x="580.22" y="-993.33" font-family="Times,serif" font-size="14.00" fill="white">libcdms ❎</text>
</a>
</g>
</g>
<!-- libcdms&#45;&gt;cdms2 -->
<g id="edge21" class="edge">
<title>libcdms&#45;&gt;cdms2</title>
<path fill="none" stroke="black" d="M577.52,-979.59C573.8,-955.61 567.07,-912.14 562.62,-883.42"/>
<polygon fill="black" stroke="black" points="566.09,-882.95 561.1,-873.61 559.17,-884.02 566.09,-882.95"/>
</g>
<!-- libcdms&#45;&gt;cdtime -->
<g id="edge22" class="edge">
<title>libcdms&#45;&gt;cdtime</title>
<path fill="none" stroke="black" d="M562.92,-980.41C553.69,-971.57 542.18,-960.53 532.02,-950.79"/>
<polygon fill="black" stroke="black" points="534.62,-948.43 524.98,-944.04 529.78,-953.48 534.62,-948.43"/>
</g>
<!-- libdrs_f -->
<g id="node21" class="node">
<title>libdrs_f</title>
<g id="a_node21"><a xlink:href="https://github.com/conda-forge/libdrs_f-feedstock" xlink:title="libdrs_f">
<ellipse fill="#fde725" stroke="black" cx="732.22" cy="-854" rx="48.58" ry="18"/>
<text xml:space="preserve" text-anchor="middle" x="732.22" y="-849.33" font-family="Times,serif" font-size="14.00">libdrs_f</text>
</a>
</g>
</g>
<!-- libcdms&#45;&gt;libdrs_f -->
<g id="edge23" class="edge">
<title>libcdms&#45;&gt;libdrs_f</title>
<path fill="none" stroke="black" d="M634.98,-987.78C662.28,-980.41 693.58,-967.27 713.22,-944 727.24,-927.38 731.68,-902.9 732.78,-883.82"/>
<polygon fill="black" stroke="black" points="736.28,-884.09 733.05,-873.99 729.28,-883.89 736.28,-884.09"/>
</g>
<!-- libcf -->
<g id="node22" class="node">
<title>libcf</title>
<g id="a_node22"><a xlink:href="https://github.com/conda-forge/libcf-feedstock/pull/55" xlink:title="libcf ❎">
<ellipse fill="#31688e" stroke="black" cx="656.22" cy="-926" rx="48.05" ry="18"/>
<text xml:space="preserve" text-anchor="middle" x="656.22" y="-921.33" font-family="Times,serif" font-size="14.00" fill="white">libcf ❎</text>
</a>
</g>
</g>
<!-- libcf&#45;&gt;cdms2 -->
<g id="edge24" class="edge">
<title>libcf&#45;&gt;cdms2</title>
<path fill="none" stroke="black" d="M634.47,-909.46C620.96,-899.82 603.4,-887.28 588.54,-876.66"/>
<polygon fill="black" stroke="black" points="590.64,-873.86 580.46,-870.89 586.57,-879.55 590.64,-873.86"/>
</g>
<!-- moab -->
<g id="node23" class="node">
<title>moab</title>
<g id="a_node23"><a xlink:href="https://github.com/conda-forge/moab-feedstock" xlink:title="moab">
<ellipse fill="#35b779" stroke="black" cx="1092.22" cy="-1214" rx="38.58" ry="18"/>
<text xml:space="preserve" text-anchor="middle" x="1092.22" y="-1209.33" font-family="Times,serif" font-size="14.00">moab</text>
</a>
</g>
</g>
<!-- netcdf&#45;cxx4 -->
<g id="node24" class="node">
<title>netcdf&#45;cxx4</title>
<g id="a_node24"><a xlink:href="https://github.com/conda-forge/netcdf-cxx4-feedstock/pull/57" xlink:title="netcdf cxx4 ❎">
<ellipse fill="#31688e" stroke="black" cx="1092.22" cy="-1142" rx="84.35" ry="18"/>
<text xml:space="preserve" text-anchor="middle" x="1092.22" y="-1137.33" font-family="Times,serif" font-size="14.00" fill="white">netcdf cxx4 ❎</text>
</a>
</g>
</g>
<!-- moab&#45;&gt;netcdf&#45;cxx4 -->
<!-- pyferret -->
<g id="node25" class="node">
<title>pyferret</title>
<g id="a_node25"><a xlink:href="https://github.com/conda-forge/pyferret-feedstock" xlink:title="pyferret">
<ellipse fill="#35b779" stroke="black" cx="1092.22" cy="-1070" rx="52.26" ry="18"/>
<text xml:space="preserve" text-anchor="middle" x="1092.22" y="-1065.33" font-family="Times,serif" font-size="14.00">pyferret</text>
</a>
</g>
</g>
<!-- netcdf&#45;cxx4&#45;&gt;pyferret -->
<!-- r&#45;rnetcdf -->
<g id="node28" class="node">
<title>r&#45;rnetcdf</title>
<g id="a_node28"><a xlink:href="https://github.com/conda-forge/r-rnetcdf-feedstock" xlink:title="r rnetcdf">
<ellipse fill="#35b779" stroke="black" cx="1092.22" cy="-998" rx="55.42" ry="18"/>
<text xml:space="preserve" text-anchor="middle" x="1092.22" y="-993.33" font-family="Times,serif" font-size="14.00">r rnetcdf</text>
</a>
</g>
</g>
<!-- pyferret&#45;&gt;r&#45;rnetcdf -->
<!-- paraview -->
<g id="node26" class="node">
<title>paraview</title>
<g id="a_node26"><a xlink:href="https://github.com/conda-forge/paraview-feedstock" xlink:title="paraview">
<ellipse fill="#35b779" stroke="black" cx="1092.22" cy="-270" rx="57" ry="18"/>
<text xml:space="preserve" text-anchor="middle" x="1092.22" y="-265.32" font-family="Times,serif" font-size="14.00">paraview</text>
</a>
</g>
</g>
<!-- lfric_reader -->
<g id="node27" class="node">
<title>lfric_reader</title>
<g id="a_node27"><a xlink:href="https://github.com/conda-forge/lfric_reader-feedstock" xlink:title="lfric_reader">
<ellipse fill="#fde725" stroke="black" cx="1092.22" cy="-198" rx="69.1" ry="18"/>
<text xml:space="preserve" text-anchor="middle" x="1092.22" y="-193.32" font-family="Times,serif" font-size="14.00">lfric_reader</text>
</a>
</g>
</g>
<!-- paraview&#45;&gt;lfric_reader -->
<g id="edge27" class="edge">
<title>paraview&#45;&gt;lfric_reader</title>
<path fill="none" stroke="black" d="M1092.22,-251.7C1092.22,-244.41 1092.22,-235.73 1092.22,-227.54"/>
<polygon fill="black" stroke="black" points="1095.72,-227.62 1092.22,-217.62 1088.72,-227.62 1095.72,-227.62"/>
</g>
<!-- wgrib2 -->
<g id="node30" class="node">
<title>wgrib2</title>
<g id="a_node30"><a xlink:href="https://github.com/conda-forge/wgrib2-feedstock" xlink:title="wgrib2">
<ellipse fill="#35b779" stroke="black" cx="1092.22" cy="-926" rx="46.47" ry="18"/>
<text xml:space="preserve" text-anchor="middle" x="1092.22" y="-921.33" font-family="Times,serif" font-size="14.00">wgrib2</text>
</a>
</g>
</g>
<!-- r&#45;rnetcdf&#45;&gt;wgrib2 -->
<!-- r&#45;ncdf4 -->
<g id="node29" class="node">
<title>r&#45;ncdf4</title>
<g id="a_node29"><a xlink:href="https://github.com/conda-forge/r-ncdf4-feedstock/pull/49" xlink:title="r ncdf4 ❎">
<ellipse fill="#31688e" stroke="black" cx="256.22" cy="-926" rx="62.26" ry="18"/>
<text xml:space="preserve" text-anchor="middle" x="256.22" y="-921.33" font-family="Times,serif" font-size="14.00" fill="white">r ncdf4 ❎</text>
</a>
</g>
</g>
<!-- r&#45;ncdf4&#45;&gt;r&#45;gdalcubes -->
<g id="edge29" class="edge">
<title>r&#45;ncdf4&#45;&gt;r&#45;gdalcubes</title>
<path fill="none" stroke="black" d="M254.49,-907.7C253.76,-900.41 252.89,-891.73 252.07,-883.54"/>
<polygon fill="black" stroke="black" points="255.55,-883.21 251.08,-873.61 248.59,-883.91 255.55,-883.21"/>
</g>
<!-- siesta -->
<g id="node31" class="node">
<title>siesta</title>
<g id="a_node31"><a xlink:href="https://github.com/conda-forge/siesta-feedstock" xlink:title="siesta">
<ellipse fill="#35b779" stroke="black" cx="1092.22" cy="-854" rx="40.69" ry="18"/>
<text xml:space="preserve" text-anchor="middle" x="1092.22" y="-849.33" font-family="Times,serif" font-size="14.00">siesta</text>
</a>
</g>
</g>
<!-- wgrib2&#45;&gt;siesta -->
<!-- vic -->
<g id="node32" class="node">
<title>vic</title>
<g id="a_node32"><a xlink:href="https://github.com/conda-forge/vic-feedstock" xlink:title="vic">
<ellipse fill="#35b779" stroke="black" cx="1092.22" cy="-782" rx="27" ry="18"/>
<text xml:space="preserve" text-anchor="middle" x="1092.22" y="-777.33" font-family="Times,serif" font-size="14.00">vic</text>
</a>
</g>
</g>
<!-- siesta&#45;&gt;vic -->
<!-- vtk -->
<g id="node33" class="node">
<title>vtk</title>
<g id="a_node33"><a xlink:href="https://github.com/conda-forge/vtk-feedstock/pull/395" xlink:title="vtk ❎">
<ellipse fill="#31688e" stroke="black" cx="1092.22" cy="-710" rx="42.26" ry="18"/>
<text xml:space="preserve" text-anchor="middle" x="1092.22" y="-705.33" font-family="Times,serif" font-size="14.00" fill="white">vtk ❎</text>
</a>
</g>
</g>
<!-- vic&#45;&gt;vtk -->
<!-- vmd&#45;python -->
<g id="node34" class="node">
<title>vmd&#45;python</title>
<g id="a_node34"><a xlink:href="https://github.com/conda-forge/vmd-python-feedstock" xlink:title="vmd python">
<ellipse fill="#35b779" stroke="black" cx="1092.22" cy="-638" rx="70.68" ry="18"/>
<text xml:space="preserve" text-anchor="middle" x="1092.22" y="-633.33" font-family="Times,serif" font-size="14.00">vmd python</text>
</a>
</g>
</g>
<!-- vtk&#45;&gt;vmd&#45;python -->
<!-- lammps -->
<g id="node35" class="node">
<title>lammps</title>
<g id="a_node35"><a xlink:href="https://github.com/conda-forge/lammps-feedstock" xlink:title="lammps">
<ellipse fill="#35b779" stroke="black" cx="1092.22" cy="-566" rx="50.68" ry="18"/>
<text xml:space="preserve" text-anchor="middle" x="1092.22" y="-561.33" font-family="Times,serif" font-size="14.00">lammps</text>
</a>
</g>
</g>
<!-- vmd&#45;python&#45;&gt;lammps -->
<!-- ovito -->
<g id="node36" class="node">
<title>ovito</title>
<g id="a_node36"><a xlink:href="https://github.com/conda-forge/ovito-feedstock" xlink:title="ovito">
<ellipse fill="#35b779" stroke="black" cx="1092.22" cy="-494" rx="35.95" ry="18"/>
<text xml:space="preserve" text-anchor="middle" x="1092.22" y="-489.32" font-family="Times,serif" font-size="14.00">ovito</text>
</a>
</g>
</g>
<!-- lammps&#45;&gt;ovito -->
<!-- cmor -->
<g id="node37" class="node">
<title>cmor</title>
<g id="a_node37"><a xlink:href="https://github.com/conda-forge/cmor-feedstock" xlink:title="cmor">
<ellipse fill="#35b779" stroke="black" cx="894.22" cy="-1214" rx="36.48" ry="18"/>
<text xml:space="preserve" text-anchor="middle" x="894.22" y="-1209.33" font-family="Times,serif" font-size="14.00">cmor</text>
</a>
</g>
</g>
<!-- ambertools -->
<g id="node38" class="node">
<title>ambertools</title>
<g id="a_node38"><a xlink:href="https://github.com/conda-forge/ambertools-feedstock" xlink:title="ambertools">
<ellipse fill="#35b779" stroke="black" cx="894.22" cy="-1142" rx="67.52" ry="18"/>
<text xml:space="preserve" text-anchor="middle" x="894.22" y="-1137.33" font-family="Times,serif" font-size="14.00">ambertools</text>
</a>
</g>
</g>
<!-- cmor&#45;&gt;ambertools -->
<!-- fpocket -->
<g id="node39" class="node">
<title>fpocket</title>
<g id="a_node39"><a xlink:href="https://github.com/conda-forge/fpocket-feedstock" xlink:title="fpocket">
<ellipse fill="#35b779" stroke="black" cx="894.22" cy="-1070" rx="48.05" ry="18"/>
<text xml:space="preserve" text-anchor="middle" x="894.22" y="-1065.33" font-family="Times,serif" font-size="14.00">fpocket</text>
</a>
</g>
</g>
<!-- ambertools&#45;&gt;fpocket -->
<!-- sphinxdft -->
<g id="node40" class="node">
<title>sphinxdft</title>
<g id="a_node40"><a xlink:href="https://github.com/conda-forge/sphinxdft-feedstock" xlink:title="sphinxdft">
<ellipse fill="#35b779" stroke="black" cx="894.22" cy="-998" rx="58.57" ry="18"/>
<text xml:space="preserve" text-anchor="middle" x="894.22" y="-993.33" font-family="Times,serif" font-size="14.00">sphinxdft</text>
</a>
</g>
</g>
<!-- fpocket&#45;&gt;sphinxdft -->
<!-- ncview -->
<g id="node41" class="node">
<title>ncview</title>
<g id="a_node41"><a xlink:href="https://github.com/conda-forge/ncview-feedstock" xlink:title="ncview">
<ellipse fill="#35b779" stroke="black" cx="894.22" cy="-926" rx="45.95" ry="18"/>
<text xml:space="preserve" text-anchor="middle" x="894.22" y="-921.33" font-family="Times,serif" font-size="14.00">ncview</text>
</a>
</g>
</g>
<!-- sphinxdft&#45;&gt;ncview -->
<!-- netcdf&#45;cxx&#45;legacy -->
<g id="node42" class="node">
<title>netcdf&#45;cxx&#45;legacy</title>
<g id="a_node42"><a xlink:href="https://github.com/conda-forge/netcdf-cxx-legacy-feedstock" xlink:title="netcdf cxx legacy">
<ellipse fill="#35b779" stroke="black" cx="894.22" cy="-854" rx="98.03" ry="18"/>
<text xml:space="preserve" text-anchor="middle" x="894.22" y="-849.33" font-family="Times,serif" font-size="14.00">netcdf cxx legacy</text>
</a>
</g>
</g>
<!-- ncview&#45;&gt;netcdf&#45;cxx&#45;legacy -->
<!-- nccmp -->
<g id="node43" class="node">
<title>nccmp</title>
<g id="a_node43"><a xlink:href="https://github.com/conda-forge/nccmp-feedstock" xlink:title="nccmp">
<ellipse fill="#35b779" stroke="black" cx="894.22" cy="-782" rx="43.84" ry="18"/>
<text xml:space="preserve" text-anchor="middle" x="894.22" y="-777.33" font-family="Times,serif" font-size="14.00">nccmp</text>
</a>
</g>
</g>
<!-- netcdf&#45;cxx&#45;legacy&#45;&gt;nccmp -->
<!-- abinit -->
<g id="node44" class="node">
<title>abinit</title>
<g id="a_node44"><a xlink:href="https://github.com/conda-forge/abinit-feedstock" xlink:title="abinit">
<ellipse fill="#35b779" stroke="black" cx="894.22" cy="-710" rx="40.16" ry="18"/>
<text xml:space="preserve" text-anchor="middle" x="894.22" y="-705.33" font-family="Times,serif" font-size="14.00">abinit</text>
</a>
</g>
</g>
<!-- nccmp&#45;&gt;abinit -->
<!-- tempest&#45;extremes -->
<g id="node45" class="node">
<title>tempest&#45;extremes</title>
<g id="a_node45"><a xlink:href="https://github.com/conda-forge/tempest-extremes-feedstock" xlink:title="tempest extremes">
<ellipse fill="#35b779" stroke="black" cx="894.22" cy="-638" rx="102.24" ry="18"/>
<text xml:space="preserve" text-anchor="middle" x="894.22" y="-633.33" font-family="Times,serif" font-size="14.00">tempest extremes</text>
</a>
</g>
</g>
<!-- abinit&#45;&gt;tempest&#45;extremes -->
<!-- pymol&#45;open&#45;source -->
<g id="node46" class="node">
<title>pymol&#45;open&#45;source</title>
<g id="a_node46"><a xlink:href="https://github.com/conda-forge/pymol-open-source-feedstock" xlink:title="pymol open source">
<ellipse fill="#35b779" stroke="black" cx="894.22" cy="-566" rx="105.4" ry="18"/>
<text xml:space="preserve" text-anchor="middle" x="894.22" y="-561.33" font-family="Times,serif" font-size="14.00">pymol open source</text>
</a>
</g>
</g>
<!-- tempest&#45;extremes&#45;&gt;pymol&#45;open&#45;source -->
<!-- raven&#45;hydro -->
<g id="node47" class="node">
<title>raven&#45;hydro</title>
<g id="a_node47"><a xlink:href="https://github.com/conda-forge/raven-hydro-feedstock" xlink:title="raven hydro">
<ellipse fill="#35b779" stroke="black" cx="894.22" cy="-494" rx="71.73" ry="18"/>
<text xml:space="preserve" text-anchor="middle" x="894.22" y="-489.32" font-family="Times,serif" font-size="14.00">raven hydro</text>
</a>
</g>
</g>
<!-- pymol&#45;open&#45;source&#45;&gt;raven&#45;hydro -->
<!-- yambo -->
<g id="node48" class="node">
<title>yambo</title>
<g id="a_node48"><a xlink:href="https://github.com/conda-forge/yambo-feedstock" xlink:title="yambo">
<ellipse fill="#35b779" stroke="black" cx="894.22" cy="-450" rx="44.37" ry="18"/>
<text xml:space="preserve" text-anchor="middle" x="894.22" y="-445.32" font-family="Times,serif" font-size="14.00">yambo</text>
</a>
</g>
</g>
<!-- ccr -->
<g id="node49" class="node">
<title>ccr</title>
<g id="a_node49"><a xlink:href="https://github.com/conda-forge/ccr-feedstock" xlink:title="ccr">
<ellipse fill="#35b779" stroke="black" cx="894.22" cy="-378" rx="27" ry="18"/>
<text xml:space="preserve" text-anchor="middle" x="894.22" y="-373.32" font-family="Times,serif" font-size="14.00">ccr</text>
</a>
</g>
</g>
<!-- yambo&#45;&gt;ccr -->
<!-- loos -->
<g id="node50" class="node">
<title>loos</title>
<g id="a_node50"><a xlink:href="https://github.com/conda-forge/loos-feedstock" xlink:title="loos">
<ellipse fill="#35b779" stroke="black" cx="894.22" cy="-306" rx="31.22" ry="18"/>
<text xml:space="preserve" text-anchor="middle" x="894.22" y="-301.32" font-family="Times,serif" font-size="14.00">loos</text>
</a>
</g>
</g>
<!-- ccr&#45;&gt;loos -->
<!-- rubin&#45;libradtran -->
<g id="node51" class="node">
<title>rubin&#45;libradtran</title>
<g id="a_node51"><a xlink:href="https://github.com/conda-forge/rubin-libradtran-feedstock" xlink:title="rubin libradtran">
<ellipse fill="#35b779" stroke="black" cx="894.22" cy="-234" rx="91.72" ry="18"/>
<text xml:space="preserve" text-anchor="middle" x="894.22" y="-229.32" font-family="Times,serif" font-size="14.00">rubin libradtran</text>
</a>
</g>
</g>
<!-- loos&#45;&gt;rubin&#45;libradtran -->
<!-- ncvis&#45;climate -->
<g id="node53" class="node">
<title>ncvis&#45;climate</title>
<g id="a_node53"><a xlink:href="https://github.com/conda-forge/ncvis-climate-feedstock" xlink:title="ncvis climate">
<ellipse fill="#35b779" stroke="black" cx="894.22" cy="-162" rx="76.99" ry="18"/>
<text xml:space="preserve" text-anchor="middle" x="894.22" y="-157.32" font-family="Times,serif" font-size="14.00">ncvis climate</text>
</a>
</g>
</g>
<!-- rubin&#45;libradtran&#45;&gt;ncvis&#45;climate -->
<!-- parallelio -->
<g id="node52" class="node">
<title>parallelio</title>
<g id="a_node52"><a xlink:href="https://github.com/conda-forge/parallelio-feedstock" xlink:title="parallelio">
<ellipse fill="#35b779" stroke="black" cx="408.22" cy="-998" rx="58.05" ry="18"/>
<text xml:space="preserve" text-anchor="middle" x="408.22" y="-993.33" font-family="Times,serif" font-size="14.00">parallelio</text>
</a>
</g>
</g>
<!-- parallelio&#45;&gt;esmf -->
<g id="edge50" class="edge">
<title>parallelio&#45;&gt;esmf</title>
<path fill="none" stroke="black" d="M408.22,-979.7C408.22,-972.41 408.22,-963.73 408.22,-955.54"/>
<polygon fill="black" stroke="black" points="411.72,-955.62 408.22,-945.62 404.72,-955.62 411.72,-955.62"/>
</g>
<!-- qdoas -->
<g id="node54" class="node">
<title>qdoas</title>
<g id="a_node54"><a xlink:href="https://github.com/conda-forge/qdoas-feedstock" xlink:title="qdoas">
<ellipse fill="#35b779" stroke="black" cx="894.22" cy="-90" rx="40.69" ry="18"/>
<text xml:space="preserve" text-anchor="middle" x="894.22" y="-85.33" font-family="Times,serif" font-size="14.00">qdoas</text>
</a>
</g>
</g>
<!-- ncvis&#45;climate&#45;&gt;qdoas -->
<!-- squadgen -->
<g id="node55" class="node">
<title>squadgen</title>
<g id="a_node55"><a xlink:href="https://github.com/conda-forge/squadgen-feedstock" xlink:title="squadgen">
<ellipse fill="#35b779" stroke="black" cx="894.22" cy="-18" rx="59.63" ry="18"/>
<text xml:space="preserve" text-anchor="middle" x="894.22" y="-13.32" font-family="Times,serif" font-size="14.00">squadgen</text>
</a>
</g>
</g>
<!-- qdoas&#45;&gt;squadgen -->
</g>
</svg>
