<?xml version="1.0" encoding="UTF-8" standalone="no"?>
<!DOCTYPE svg PUBLIC "-//W3C//DTD SVG 1.1//EN"
 "http://www.w3.org/Graphics/SVG/1.1/DTD/svg11.dtd">
<!-- Generated by graphviz version 13.1.2 (20250809.0930)
 -->
<!-- Pages: 1 -->
<svg width="1564pt" height="1312pt"
 viewBox="0.00 0.00 1564.00 1312.00" xmlns="http://www.w3.org/2000/svg" xmlns:xlink="http://www.w3.org/1999/xlink">
<g id="graph0" class="graph" transform="scale(1 1) rotate(0) translate(4 1308)">
<polygon fill="white" stroke="none" points="-4,4 -4,-1308 1560.3,-1308 1560.3,4 -4,4"/>
<!-- cdo -->
<g id="node1" class="node">
<title>cdo</title>
<g id="a_node1"><a xlink:href="https://github.com/conda-forge/cdo-feedstock" xlink:title="cdo">
<ellipse fill="#fde725" stroke="black" cx="1022.72" cy="-926" rx="28.59" ry="18"/>
<text xml:space="preserve" text-anchor="middle" x="1022.72" y="-921.33" font-family="Times,serif" font-size="14.00">cdo</text>
</a>
</g>
</g>
<!-- eccodes -->
<g id="node2" class="node">
<title>eccodes</title>
<g id="a_node2"><a xlink:href="https://github.com/conda-forge/eccodes-feedstock/pull/195" xlink:title="eccodes ❎">
<ellipse fill="#31688e" stroke="black" cx="1253.72" cy="-1070" rx="65.94" ry="18"/>
<text xml:space="preserve" text-anchor="middle" x="1253.72" y="-1065.33" font-family="Times,serif" font-size="14.00" fill="white">eccodes ❎</text>
</a>
</g>
</g>
<!-- eccodes&#45;&gt;cdo -->
<g id="edge1" class="edge">
<title>eccodes&#45;&gt;cdo</title>
<path fill="none" stroke="black" d="M1190.39,-1064.41C1124.47,-1058.17 1027.66,-1044.34 1004.72,-1016 990.41,-998.32 997.95,-972.3 1007.25,-952.96"/>
<polygon fill="black" stroke="black" points="1010.23,-954.81 1011.77,-944.33 1004.03,-951.56 1010.23,-954.81"/>
</g>
<!-- magics -->
<g id="node3" class="node">
<title>magics</title>
<g id="a_node3"><a xlink:href="https://github.com/conda-forge/magics-feedstock" xlink:title="magics">
<ellipse fill="#fde725" stroke="black" cx="1059.72" cy="-998" rx="46.47" ry="18"/>
<text xml:space="preserve" text-anchor="middle" x="1059.72" y="-993.33" font-family="Times,serif" font-size="14.00">magics</text>
</a>
</g>
</g>
<!-- eccodes&#45;&gt;magics -->
<g id="edge2" class="edge">
<title>eccodes&#45;&gt;magics</title>
<path fill="none" stroke="black" d="M1214.93,-1055C1182.7,-1043.37 1136.87,-1026.84 1103.36,-1014.75"/>
<polygon fill="black" stroke="black" points="1104.97,-1011.61 1094.38,-1011.51 1102.59,-1018.19 1104.97,-1011.61"/>
</g>
<!-- metview -->
<g id="node4" class="node">
<title>metview</title>
<g id="a_node4"><a xlink:href="https://github.com/conda-forge/metview-feedstock" xlink:title="metview">
<ellipse fill="#fde725" stroke="black" cx="1133.72" cy="-854" rx="53.84" ry="18"/>
<text xml:space="preserve" text-anchor="middle" x="1133.72" y="-849.33" font-family="Times,serif" font-size="14.00">metview</text>
</a>
</g>
</g>
<!-- eccodes&#45;&gt;metview -->
<g id="edge3" class="edge">
<title>eccodes&#45;&gt;metview</title>
<path fill="none" stroke="black" d="M1235.7,-1052.23C1212.76,-1029.82 1173.61,-987.82 1152.72,-944 1143.61,-924.91 1138.84,-901.44 1136.35,-883.4"/>
<polygon fill="black" stroke="black" points="1139.85,-883.17 1135.18,-873.66 1132.9,-884.01 1139.85,-883.17"/>
</g>
<!-- magics&#45;metview -->
<g id="node5" class="node">
<title>magics&#45;metview</title>
<g id="a_node5"><a xlink:href="https://github.com/conda-forge/magics-metview-feedstock" xlink:title="magics metview">
<ellipse fill="#fde725" stroke="black" cx="1253.72" cy="-926" rx="92.25" ry="18"/>
<text xml:space="preserve" text-anchor="middle" x="1253.72" y="-921.33" font-family="Times,serif" font-size="14.00">magics metview</text>
</a>
</g>
</g>
<!-- eccodes&#45;&gt;magics&#45;metview -->
<g id="edge4" class="edge">
<title>eccodes&#45;&gt;magics&#45;metview</title>
<path fill="none" stroke="black" d="M1253.72,-1051.59C1253.72,-1027.61 1253.72,-984.14 1253.72,-955.42"/>
<polygon fill="black" stroke="black" points="1257.22,-955.62 1253.72,-945.62 1250.22,-955.62 1257.22,-955.62"/>
</g>
<!-- magics&#45;metview&#45;batch -->
<g id="node6" class="node">
<title>magics&#45;metview&#45;batch</title>
<g id="a_node6"><a xlink:href="https://github.com/conda-forge/magics-metview-batch-feedstock" xlink:title="magics metview batch">
<ellipse fill="#fde725" stroke="black" cx="1328.72" cy="-854" rx="123.29" ry="18"/>
<text xml:space="preserve" text-anchor="middle" x="1328.72" y="-849.33" font-family="Times,serif" font-size="14.00">magics metview batch</text>
</a>
</g>
</g>
<!-- eccodes&#45;&gt;magics&#45;metview&#45;batch -->
<g id="edge5" class="edge">
<title>eccodes&#45;&gt;magics&#45;metview&#45;batch</title>
<path fill="none" stroke="black" d="M1273.61,-1052.45C1298.16,-1030.59 1338.63,-989.51 1354.72,-944 1361.95,-923.54 1354.36,-899.96 1345.55,-882.2"/>
<polygon fill="black" stroke="black" points="1348.72,-880.71 1340.89,-873.57 1342.56,-884.04 1348.72,-880.71"/>
</g>
<!-- metview&#45;batch -->
<g id="node7" class="node">
<title>metview&#45;batch</title>
<g id="a_node7"><a xlink:href="https://github.com/conda-forge/metview-batch-feedstock" xlink:title="metview batch">
<ellipse fill="#fde725" stroke="black" cx="1352.72" cy="-782" rx="84.88" ry="18"/>
<text xml:space="preserve" text-anchor="middle" x="1352.72" y="-777.33" font-family="Times,serif" font-size="14.00">metview batch</text>
</a>
</g>
</g>
<!-- eccodes&#45;&gt;metview&#45;batch -->
<g id="edge6" class="edge">
<title>eccodes&#45;&gt;metview&#45;batch</title>
<path fill="none" stroke="black" d="M1282.55,-1053.43C1331.42,-1025.08 1428.35,-959.74 1460.72,-872 1466.26,-856.99 1469.18,-849.58 1460.72,-836 1450.65,-819.85 1434.07,-808.48 1416.89,-800.54"/>
<polygon fill="black" stroke="black" points="1418.71,-797.51 1408.14,-796.83 1415.98,-803.95 1418.71,-797.51"/>
</g>
<!-- fimex -->
<g id="node8" class="node">
<title>fimex</title>
<g id="a_node8"><a xlink:href="https://github.com/conda-forge/fimex-feedstock" xlink:title="fimex">
<ellipse fill="#fde725" stroke="black" cx="1517.72" cy="-782" rx="38.58" ry="18"/>
<text xml:space="preserve" text-anchor="middle" x="1517.72" y="-777.33" font-family="Times,serif" font-size="14.00">fimex</text>
</a>
</g>
</g>
<!-- eccodes&#45;&gt;fimex -->
<g id="edge7" class="edge">
<title>eccodes&#45;&gt;fimex</title>
<path fill="none" stroke="black" d="M1294.71,-1055.57C1319.16,-1046.49 1350.12,-1033.05 1374.72,-1016 1411.4,-990.57 1419.5,-980.82 1444.72,-944 1464.61,-914.96 1463.17,-904.05 1477.72,-872 1487.07,-851.4 1497.55,-828.08 1505.43,-810.48"/>
<polygon fill="black" stroke="black" points="1508.58,-812.02 1509.47,-801.46 1502.19,-809.16 1508.58,-812.02"/>
</g>
<!-- magics&#45;&gt;cdo -->
<g id="edge8" class="edge">
<title>magics&#45;&gt;cdo</title>
<path fill="none" stroke="black" d="M1050.76,-980.05C1046.52,-972.03 1041.35,-962.26 1036.62,-953.3"/>
<polygon fill="black" stroke="black" points="1039.81,-951.85 1032.05,-944.65 1033.62,-955.12 1039.81,-951.85"/>
</g>
<!-- magics&#45;metview&#45;&gt;metview -->
<g id="edge9" class="edge">
<title>magics&#45;metview&#45;&gt;metview</title>
<path fill="none" stroke="black" d="M1225.28,-908.41C1208.52,-898.63 1187.16,-886.17 1169.29,-875.75"/>
<polygon fill="black" stroke="black" points="1171.21,-872.82 1160.81,-870.8 1167.68,-878.86 1171.21,-872.82"/>
</g>
<!-- magics&#45;metview&#45;batch&#45;&gt;metview&#45;batch -->
<g id="edge10" class="edge">
<title>magics&#45;metview&#45;batch&#45;&gt;metview&#45;batch</title>
<path fill="none" stroke="black" d="M1334.65,-835.7C1337.21,-828.24 1340.27,-819.32 1343.13,-810.97"/>
<polygon fill="black" stroke="black" points="1346.43,-812.13 1346.36,-801.54 1339.81,-809.86 1346.43,-812.13"/>
</g>
<!-- esmf -->
<g id="node9" class="node">
<title>esmf</title>
<g id="a_node9"><a xlink:href="https://github.com/conda-forge/esmf-feedstock" xlink:title="esmf">
<ellipse fill="#ff8c00" stroke="black" cx="453.72" cy="-1034" rx="35.42" ry="18"/>
<text xml:space="preserve" text-anchor="middle" x="453.72" y="-1029.33" font-family="Times,serif" font-size="14.00">esmf</text>
</a>
</g>
</g>
<!-- ncl -->
<g id="node10" class="node">
<title>ncl</title>
<g id="a_node10"><a xlink:href="https://github.com/conda-forge/ncl-feedstock" xlink:title="ncl">
<ellipse fill="#fde725" stroke="black" cx="579.72" cy="-962" rx="27" ry="18"/>
<text xml:space="preserve" text-anchor="middle" x="579.72" y="-957.33" font-family="Times,serif" font-size="14.00">ncl</text>
</a>
</g>
</g>
<!-- esmf&#45;&gt;ncl -->
<g id="edge11" class="edge">
<title>esmf&#45;&gt;ncl</title>
<path fill="none" stroke="black" d="M477.12,-1020C497.52,-1008.67 527.23,-992.16 549.44,-979.82"/>
<polygon fill="black" stroke="black" points="550.99,-982.96 558.03,-975.05 547.59,-976.85 550.99,-982.96"/>
</g>
<!-- nco -->
<g id="node11" class="node">
<title>nco</title>
<g id="a_node11"><a xlink:href="https://github.com/conda-forge/nco-feedstock" xlink:title="nco">
<ellipse fill="#fde725" stroke="black" cx="373.72" cy="-962" rx="28.59" ry="18"/>
<text xml:space="preserve" text-anchor="middle" x="373.72" y="-957.33" font-family="Times,serif" font-size="14.00">nco</text>
</a>
</g>
</g>
<!-- esmf&#45;&gt;nco -->
<g id="edge12" class="edge">
<title>esmf&#45;&gt;nco</title>
<path fill="none" stroke="black" d="M436.36,-1017.81C425.27,-1008.1 410.71,-995.37 398.42,-984.61"/>
<polygon fill="black" stroke="black" points="400.92,-982.15 391.09,-978.2 396.31,-987.42 400.92,-982.15"/>
</g>
<!-- mpas_tools -->
<g id="node12" class="node">
<title>mpas_tools</title>
<g id="a_node12"><a xlink:href="https://github.com/conda-forge/mpas_tools-feedstock" xlink:title="mpas_tools">
<ellipse fill="#fde725" stroke="black" cx="358.72" cy="-890" rx="66.99" ry="18"/>
<text xml:space="preserve" text-anchor="middle" x="358.72" y="-885.33" font-family="Times,serif" font-size="14.00">mpas_tools</text>
</a>
</g>
</g>
<!-- nco&#45;&gt;mpas_tools -->
<g id="edge13" class="edge">
<title>nco&#45;&gt;mpas_tools</title>
<path fill="none" stroke="black" d="M370.01,-943.7C368.43,-936.32 366.55,-927.52 364.77,-919.25"/>
<polygon fill="black" stroke="black" points="368.22,-918.63 362.7,-909.58 361.37,-920.1 368.22,-918.63"/>
</g>
<!-- gdal -->
<g id="node13" class="node">
<title>gdal</title>
<g id="a_node13"><a xlink:href="https://github.com/conda-forge/gdal-feedstock/pull/1183" xlink:title="gdal ❎">
<ellipse fill="#31688e" stroke="black" cx="634.72" cy="-1034" rx="48.05" ry="18"/>
<text xml:space="preserve" text-anchor="middle" x="634.72" y="-1029.33" font-family="Times,serif" font-size="14.00" fill="white">gdal ❎</text>
</a>
</g>
</g>
<!-- gdal&#45;&gt;ncl -->
<g id="edge14" class="edge">
<title>gdal&#45;&gt;ncl</title>
<path fill="none" stroke="black" d="M621.68,-1016.41C614.92,-1007.8 606.52,-997.11 599.02,-987.56"/>
<polygon fill="black" stroke="black" points="601.77,-985.4 592.84,-979.7 596.27,-989.73 601.77,-985.4"/>
</g>
<!-- gmt -->
<g id="node14" class="node">
<title>gmt</title>
<g id="a_node14"><a xlink:href="https://github.com/conda-forge/gmt-feedstock" xlink:title="gmt">
<ellipse fill="#fde725" stroke="black" cx="761.72" cy="-962" rx="31.22" ry="18"/>
<text xml:space="preserve" text-anchor="middle" x="761.72" y="-957.33" font-family="Times,serif" font-size="14.00">gmt</text>
</a>
</g>
</g>
<!-- gdal&#45;&gt;gmt -->
<g id="edge15" class="edge">
<title>gdal&#45;&gt;gmt</title>
<path fill="none" stroke="black" d="M661.03,-1018.5C681.01,-1007.48 708.58,-992.29 729.81,-980.59"/>
<polygon fill="black" stroke="black" points="731.28,-983.78 738.34,-975.88 727.9,-977.65 731.28,-983.78"/>
</g>
<!-- r&#45;gdalcubes -->
<g id="node15" class="node">
<title>r&#45;gdalcubes</title>
<g id="a_node15"><a xlink:href="https://github.com/conda-forge/r-gdalcubes-feedstock" xlink:title="r gdalcubes">
<ellipse fill="#fde725" stroke="black" cx="732.72" cy="-890" rx="69.62" ry="18"/>
<text xml:space="preserve" text-anchor="middle" x="732.72" y="-885.33" font-family="Times,serif" font-size="14.00">r gdalcubes</text>
</a>
</g>
</g>
<!-- gdal&#45;&gt;r&#45;gdalcubes -->
<g id="edge16" class="edge">
<title>gdal&#45;&gt;r&#45;gdalcubes</title>
<path fill="none" stroke="black" d="M646.35,-1016.15C663.22,-991.71 694.64,-946.17 714.58,-917.29"/>
<polygon fill="black" stroke="black" points="717.45,-919.29 720.25,-909.07 711.69,-915.31 717.45,-919.29"/>
</g>
<!-- pygnome -->
<g id="node16" class="node">
<title>pygnome</title>
<g id="a_node16"><a xlink:href="https://github.com/conda-forge/pygnome-feedstock" xlink:title="pygnome">
<ellipse fill="#fde725" stroke="black" cx="477.72" cy="-962" rx="57" ry="18"/>
<text xml:space="preserve" text-anchor="middle" x="477.72" y="-957.33" font-family="Times,serif" font-size="14.00">pygnome</text>
</a>
</g>
</g>
<!-- gdal&#45;&gt;pygnome -->
<g id="edge17" class="edge">
<title>gdal&#45;&gt;pygnome</title>
<path fill="none" stroke="black" d="M604.82,-1019.67C580.78,-1008.95 546.73,-993.77 519.92,-981.82"/>
<polygon fill="black" stroke="black" points="521.61,-978.74 511.05,-977.86 518.76,-985.13 521.61,-978.74"/>
</g>
<!-- windninja -->
<g id="node17" class="node">
<title>windninja</title>
<g id="a_node17"><a xlink:href="https://github.com/conda-forge/windninja-feedstock" xlink:title="windninja">
<ellipse fill="#fde725" stroke="black" cx="634.72" cy="-818" rx="60.15" ry="18"/>
<text xml:space="preserve" text-anchor="middle" x="634.72" y="-813.33" font-family="Times,serif" font-size="14.00">windninja</text>
</a>
</g>
</g>
<!-- gdal&#45;&gt;windninja -->
<g id="edge18" class="edge">
<title>gdal&#45;&gt;windninja</title>
<path fill="none" stroke="black" d="M634.72,-1015.85C634.72,-979.14 634.72,-892.66 634.72,-847.53"/>
<polygon fill="black" stroke="black" points="638.22,-847.75 634.72,-837.75 631.22,-847.75 638.22,-847.75"/>
</g>
<!-- moab -->
<g id="node18" class="node">
<title>moab</title>
<g id="a_node18"><a xlink:href="https://github.com/conda-forge/moab-feedstock/pull/114" xlink:title="moab ❎">
<ellipse fill="#31688e" stroke="black" cx="895.72" cy="-1286" rx="53.84" ry="18"/>
<text xml:space="preserve" text-anchor="middle" x="895.72" y="-1281.33" font-family="Times,serif" font-size="14.00" fill="white">moab ❎</text>
</a>
</g>
</g>
<!-- pyferret -->
<g id="node19" class="node">
<title>pyferret</title>
<g id="a_node19"><a xlink:href="https://github.com/conda-forge/pyferret-feedstock/pull/117" xlink:title="pyferret ❎">
<ellipse fill="#31688e" stroke="black" cx="895.72" cy="-1214" rx="67.52" ry="18"/>
<text xml:space="preserve" text-anchor="middle" x="895.72" y="-1209.33" font-family="Times,serif" font-size="14.00" fill="white">pyferret ❎</text>
</a>
</g>
</g>
<!-- moab&#45;&gt;pyferret -->
<!-- siesta -->
<g id="node26" class="node">
<title>siesta</title>
<g id="a_node26"><a xlink:href="https://github.com/conda-forge/siesta-feedstock/pull/79" xlink:title="siesta ❎">
<ellipse fill="#31688e" stroke="black" cx="895.72" cy="-1142" rx="55.94" ry="18"/>
<text xml:space="preserve" text-anchor="middle" x="895.72" y="-1137.33" font-family="Times,serif" font-size="14.00" fill="white">siesta ❎</text>
</a>
</g>
</g>
<!-- pyferret&#45;&gt;siesta -->
<!-- netcdf&#45;cxx4 -->
<g id="node20" class="node">
<title>netcdf&#45;cxx4</title>
<g id="a_node20"><a xlink:href="https://github.com/conda-forge/netcdf-cxx4-feedstock/pull/64" xlink:title="netcdf cxx4 ❎">
<ellipse fill="#31688e" stroke="black" cx="895.72" cy="-306" rx="84.35" ry="18"/>
<text xml:space="preserve" text-anchor="middle" x="895.72" y="-301.32" font-family="Times,serif" font-size="14.00" fill="white">netcdf cxx4 ❎</text>
</a>
</g>
</g>
<!-- smspp&#45;project -->
<g id="node21" class="node">
<title>smspp&#45;project</title>
<g id="a_node21"><a xlink:href="https://github.com/conda-forge/smspp-project-feedstock" xlink:title="smspp project">
<ellipse fill="#fde725" stroke="black" cx="895.72" cy="-234" rx="82.25" ry="18"/>
<text xml:space="preserve" text-anchor="middle" x="895.72" y="-229.32" font-family="Times,serif" font-size="14.00">smspp project</text>
</a>
</g>
</g>
<!-- netcdf&#45;cxx4&#45;&gt;smspp&#45;project -->
<g id="edge20" class="edge">
<title>netcdf&#45;cxx4&#45;&gt;smspp&#45;project</title>
<path fill="none" stroke="black" d="M895.72,-287.7C895.72,-280.41 895.72,-271.73 895.72,-263.54"/>
<polygon fill="black" stroke="black" points="899.22,-263.62 895.72,-253.62 892.22,-263.62 899.22,-263.62"/>
</g>
<!-- netcdf4 -->
<g id="node22" class="node">
<title>netcdf4</title>
<g id="a_node22"><a xlink:href="https://github.com/conda-forge/netcdf4-feedstock/pull/185" xlink:title="netcdf4 ❎">
<ellipse fill="#31688e" stroke="black" cx="226.72" cy="-1034" rx="64.36" ry="18"/>
<text xml:space="preserve" text-anchor="middle" x="226.72" y="-1029.33" font-family="Times,serif" font-size="14.00" fill="white">netcdf4 ❎</text>
</a>
</g>
</g>
<!-- netcdf4&#45;&gt;mpas_tools -->
<g id="edge22" class="edge">
<title>netcdf4&#45;&gt;mpas_tools</title>
<path fill="none" stroke="black" d="M226.06,-1015.7C226.22,-996.24 229.31,-964.66 245.72,-944 259.37,-926.81 279.91,-914.93 299.75,-906.84"/>
<polygon fill="black" stroke="black" points="300.8,-910.19 308.92,-903.38 298.33,-903.64 300.8,-910.19"/>
</g>
<!-- netcdf4&#45;&gt;pygnome -->
<g id="edge21" class="edge">
<title>netcdf4&#45;&gt;pygnome</title>
<path fill="none" stroke="black" d="M271.3,-1020.57C314.38,-1008.55 379.63,-990.36 425.2,-977.65"/>
<polygon fill="black" stroke="black" points="425.9,-981.08 434.59,-975.03 424.02,-974.34 425.9,-981.08"/>
</g>
<!-- cmor -->
<g id="node23" class="node">
<title>cmor</title>
<g id="a_node23"><a xlink:href="https://github.com/conda-forge/cmor-feedstock" xlink:title="cmor">
<ellipse fill="#fde725" stroke="black" cx="290.72" cy="-962" rx="36.48" ry="18"/>
<text xml:space="preserve" text-anchor="middle" x="290.72" y="-957.33" font-family="Times,serif" font-size="14.00">cmor</text>
</a>
</g>
</g>
<!-- netcdf4&#45;&gt;cmor -->
<g id="edge23" class="edge">
<title>netcdf4&#45;&gt;cmor</title>
<path fill="none" stroke="black" d="M242.21,-1016.05C250.14,-1007.38 259.94,-996.67 268.64,-987.15"/>
<polygon fill="black" stroke="black" points="271.06,-989.69 275.22,-979.95 265.89,-984.97 271.06,-989.69"/>
</g>
<!-- lfric_reader -->
<g id="node24" class="node">
<title>lfric_reader</title>
<g id="a_node24"><a xlink:href="https://github.com/conda-forge/lfric_reader-feedstock" xlink:title="lfric_reader">
<ellipse fill="#fde725" stroke="black" cx="188.72" cy="-890" rx="69.1" ry="18"/>
<text xml:space="preserve" text-anchor="middle" x="188.72" y="-885.33" font-family="Times,serif" font-size="14.00">lfric_reader</text>
</a>
</g>
</g>
<!-- netcdf4&#45;&gt;lfric_reader -->
<g id="edge24" class="edge">
<title>netcdf4&#45;&gt;lfric_reader</title>
<path fill="none" stroke="black" d="M222.06,-1015.59C215.61,-991.5 203.91,-947.75 196.22,-919.03"/>
<polygon fill="black" stroke="black" points="199.65,-918.33 193.69,-909.57 192.89,-920.14 199.65,-918.33"/>
</g>
<!-- rubin&#45;libradtran -->
<g id="node25" class="node">
<title>rubin&#45;libradtran</title>
<g id="a_node25"><a xlink:href="https://github.com/conda-forge/rubin-libradtran-feedstock" xlink:title="rubin libradtran">
<ellipse fill="#fde725" stroke="black" cx="91.72" cy="-818" rx="91.72" ry="18"/>
<text xml:space="preserve" text-anchor="middle" x="91.72" y="-813.33" font-family="Times,serif" font-size="14.00">rubin libradtran</text>
</a>
</g>
</g>
<!-- netcdf4&#45;&gt;rubin&#45;libradtran -->
<g id="edge25" class="edge">
<title>netcdf4&#45;&gt;rubin&#45;libradtran</title>
<path fill="none" stroke="black" d="M205.95,-1016.81C179.52,-995.03 134.47,-953.71 110.72,-908 100.96,-889.23 96.22,-865.75 93.91,-847.62"/>
<polygon fill="black" stroke="black" points="97.4,-847.39 92.85,-837.82 90.44,-848.14 97.4,-847.39"/>
</g>
<!-- vic -->
<g id="node27" class="node">
<title>vic</title>
<g id="a_node27"><a xlink:href="https://github.com/conda-forge/vic-feedstock/pull/26" xlink:title="vic ❎">
<ellipse fill="#31688e" stroke="black" cx="895.72" cy="-1070" rx="40.69" ry="18"/>
<text xml:space="preserve" text-anchor="middle" x="895.72" y="-1065.33" font-family="Times,serif" font-size="14.00" fill="white">vic ❎</text>
</a>
</g>
</g>
<!-- siesta&#45;&gt;vic -->
<!-- vtk -->
<g id="node28" class="node">
<title>vtk</title>
<g id="a_node28"><a xlink:href="https://github.com/conda-forge/vtk-feedstock/pull/427" xlink:title="vtk ❎">
<ellipse fill="#31688e" stroke="black" cx="895.72" cy="-998" rx="42.26" ry="18"/>
<text xml:space="preserve" text-anchor="middle" x="895.72" y="-993.33" font-family="Times,serif" font-size="14.00" fill="white">vtk ❎</text>
</a>
</g>
</g>
<!-- vic&#45;&gt;vtk -->
<!-- vmd&#45;python -->
<g id="node29" class="node">
<title>vmd&#45;python</title>
<g id="a_node29"><a xlink:href="https://github.com/conda-forge/vmd-python-feedstock/pull/48" xlink:title="vmd python ❎">
<ellipse fill="#31688e" stroke="black" cx="895.72" cy="-926" rx="85.93" ry="18"/>
<text xml:space="preserve" text-anchor="middle" x="895.72" y="-921.33" font-family="Times,serif" font-size="14.00" fill="white">vmd python ❎</text>
</a>
</g>
</g>
<!-- vtk&#45;&gt;vmd&#45;python -->
<!-- lammps -->
<g id="node30" class="node">
<title>lammps</title>
<g id="a_node30"><a xlink:href="https://github.com/conda-forge/lammps-feedstock/pull/238" xlink:title="lammps ❎">
<ellipse fill="#31688e" stroke="black" cx="895.72" cy="-854" rx="65.94" ry="18"/>
<text xml:space="preserve" text-anchor="middle" x="895.72" y="-849.33" font-family="Times,serif" font-size="14.00" fill="white">lammps ❎</text>
</a>
</g>
</g>
<!-- vmd&#45;python&#45;&gt;lammps -->
<!-- ovito -->
<g id="node31" class="node">
<title>ovito</title>
<g id="a_node31"><a xlink:href="https://github.com/conda-forge/ovito-feedstock/pull/126" xlink:title="ovito ❎">
<ellipse fill="#31688e" stroke="black" cx="895.72" cy="-782" rx="51.21" ry="18"/>
<text xml:space="preserve" text-anchor="middle" x="895.72" y="-777.33" font-family="Times,serif" font-size="14.00" fill="white">ovito ❎</text>
</a>
</g>
</g>
<!-- lammps&#45;&gt;ovito -->
<!-- ambertools -->
<g id="node32" class="node">
<title>ambertools</title>
<g id="a_node32"><a xlink:href="https://github.com/conda-forge/ambertools-feedstock/pull/186" xlink:title="ambertools ❎">
<ellipse fill="#31688e" stroke="black" cx="895.72" cy="-710" rx="82.77" ry="18"/>
<text xml:space="preserve" text-anchor="middle" x="895.72" y="-705.33" font-family="Times,serif" font-size="14.00" fill="white">ambertools ❎</text>
</a>
</g>
</g>
<!-- ovito&#45;&gt;ambertools -->
<!-- fpocket -->
<g id="node33" class="node">
<title>fpocket</title>
<g id="a_node33"><a xlink:href="https://github.com/conda-forge/fpocket-feedstock/pull/40" xlink:title="fpocket ❎">
<ellipse fill="#31688e" stroke="black" cx="895.72" cy="-638" rx="63.31" ry="18"/>
<text xml:space="preserve" text-anchor="middle" x="895.72" y="-633.33" font-family="Times,serif" font-size="14.00" fill="white">fpocket ❎</text>
</a>
</g>
</g>
<!-- ambertools&#45;&gt;fpocket -->
<!-- nccmp -->
<g id="node34" class="node">
<title>nccmp</title>
<g id="a_node34"><a xlink:href="https://github.com/conda-forge/nccmp-feedstock/pull/26" xlink:title="nccmp ❎">
<ellipse fill="#31688e" stroke="black" cx="895.72" cy="-566" rx="59.1" ry="18"/>
<text xml:space="preserve" text-anchor="middle" x="895.72" y="-561.33" font-family="Times,serif" font-size="14.00" fill="white">nccmp ❎</text>
</a>
</g>
</g>
<!-- fpocket&#45;&gt;nccmp -->
<!-- abinit -->
<g id="node35" class="node">
<title>abinit</title>
<g id="a_node35"><a xlink:href="https://github.com/conda-forge/abinit-feedstock" xlink:title="abinit">
<ellipse fill="#ff8c00" stroke="black" cx="400.72" cy="-522" rx="40.16" ry="18"/>
<text xml:space="preserve" text-anchor="middle" x="400.72" y="-517.33" font-family="Times,serif" font-size="14.00">abinit</text>
</a>
</g>
</g>
<!-- tempest&#45;extremes -->
<g id="node36" class="node">
<title>tempest&#45;extremes</title>
<g id="a_node36"><a xlink:href="https://github.com/conda-forge/tempest-extremes-feedstock/pull/18" xlink:title="tempest extremes ❎">
<ellipse fill="#31688e" stroke="black" cx="400.72" cy="-450" rx="117.5" ry="18"/>
<text xml:space="preserve" text-anchor="middle" x="400.72" y="-445.32" font-family="Times,serif" font-size="14.00" fill="white">tempest extremes ❎</text>
</a>
</g>
</g>
<!-- abinit&#45;&gt;tempest&#45;extremes -->
<!-- pymol&#45;open&#45;source -->
<g id="node37" class="node">
<title>pymol&#45;open&#45;source</title>
<g id="a_node37"><a xlink:href="https://github.com/conda-forge/pymol-open-source-feedstock/pull/43" xlink:title="pymol open source ❎">
<ellipse fill="#31688e" stroke="black" cx="400.72" cy="-378" rx="120.65" ry="18"/>
<text xml:space="preserve" text-anchor="middle" x="400.72" y="-373.32" font-family="Times,serif" font-size="14.00" fill="white">pymol open source ❎</text>
</a>
</g>
</g>
<!-- tempest&#45;extremes&#45;&gt;pymol&#45;open&#45;source -->
<!-- raven&#45;hydro -->
<g id="node38" class="node">
<title>raven&#45;hydro</title>
<g id="a_node38"><a xlink:href="https://github.com/conda-forge/raven-hydro-feedstock/pull/35" xlink:title="raven hydro ❎">
<ellipse fill="#31688e" stroke="black" cx="400.72" cy="-306" rx="86.98" ry="18"/>
<text xml:space="preserve" text-anchor="middle" x="400.72" y="-301.32" font-family="Times,serif" font-size="14.00" fill="white">raven hydro ❎</text>
</a>
</g>
</g>
<!-- pymol&#45;open&#45;source&#45;&gt;raven&#45;hydro -->
<!-- yambo -->
<g id="node39" class="node">
<title>yambo</title>
<g id="a_node39"><a xlink:href="https://github.com/conda-forge/yambo-feedstock/pull/51" xlink:title="yambo ❎">
<ellipse fill="#31688e" stroke="black" cx="400.72" cy="-234" rx="59.63" ry="18"/>
<text xml:space="preserve" text-anchor="middle" x="400.72" y="-229.32" font-family="Times,serif" font-size="14.00" fill="white">yambo ❎</text>
</a>
</g>
</g>
<!-- raven&#45;hydro&#45;&gt;yambo -->
<!-- ccr -->
<g id="node40" class="node">
<title>ccr</title>
<g id="a_node40"><a xlink:href="https://github.com/conda-forge/ccr-feedstock/pull/13" xlink:title="ccr ❎">
<ellipse fill="#31688e" stroke="black" cx="400.72" cy="-162" rx="41.74" ry="18"/>
<text xml:space="preserve" text-anchor="middle" x="400.72" y="-157.32" font-family="Times,serif" font-size="14.00" fill="white">ccr ❎</text>
</a>
</g>
</g>
<!-- yambo&#45;&gt;ccr -->
<!-- loos -->
<g id="node41" class="node">
<title>loos</title>
<g id="a_node41"><a xlink:href="https://github.com/conda-forge/loos-feedstock/pull/33" xlink:title="loos ❎">
<ellipse fill="#31688e" stroke="black" cx="400.72" cy="-90" rx="46.47" ry="18"/>
<text xml:space="preserve" text-anchor="middle" x="400.72" y="-85.33" font-family="Times,serif" font-size="14.00" fill="white">loos ❎</text>
</a>
</g>
</g>
<!-- ccr&#45;&gt;loos -->
<!-- qdoas -->
<g id="node42" class="node">
<title>qdoas</title>
<g id="a_node42"><a xlink:href="https://github.com/conda-forge/qdoas-feedstock/pull/41" xlink:title="qdoas ❎">
<ellipse fill="#31688e" stroke="black" cx="400.72" cy="-18" rx="55.94" ry="18"/>
<text xml:space="preserve" text-anchor="middle" x="400.72" y="-13.32" font-family="Times,serif" font-size="14.00" fill="white">qdoas ❎</text>
</a>
</g>
</g>
<!-- loos&#45;&gt;qdoas -->
</g>
</svg>
