<?xml version="1.0" encoding="UTF-8" standalone="no"?>
<!DOCTYPE svg PUBLIC "-//W3C//DTD SVG 1.1//EN"
 "http://www.w3.org/Graphics/SVG/1.1/DTD/svg11.dtd">
<!-- Generated by graphviz version 13.1.2 (20250809.0930)
 -->
<!-- Pages: 1 -->
<svg width="1714pt" height="1096pt"
 viewBox="0.00 0.00 1714.00 1096.00" xmlns="http://www.w3.org/2000/svg" xmlns:xlink="http://www.w3.org/1999/xlink">
<g id="graph0" class="graph" transform="scale(1 1) rotate(0) translate(4 1092)">
<polygon fill="white" stroke="none" points="-4,4 -4,-1092 1709.87,-1092 1709.87,4 -4,4"/>
<!-- cdo -->
<g id="node1" class="node">
<title>cdo</title>
<g id="a_node1"><a xlink:href="https://github.com/conda-forge/cdo-feedstock" xlink:title="cdo">
<ellipse fill="#fde725" stroke="black" cx="390.48" cy="-162" rx="28.59" ry="18"/>
<text xml:space="preserve" text-anchor="middle" x="390.48" y="-157.32" font-family="Times,serif" font-size="14.00">cdo</text>
</a>
</g>
</g>
<!-- eccodes -->
<g id="node2" class="node">
<title>eccodes</title>
<g id="a_node2"><a xlink:href="https://github.com/conda-forge/eccodes-feedstock/pull/195" xlink:title="eccodes ❎">
<ellipse fill="#31688e" stroke="black" cx="621.48" cy="-306" rx="65.94" ry="18"/>
<text xml:space="preserve" text-anchor="middle" x="621.48" y="-301.32" font-family="Times,serif" font-size="14.00" fill="white">eccodes ❎</text>
</a>
</g>
</g>
<!-- eccodes&#45;&gt;cdo -->
<g id="edge1" class="edge">
<title>eccodes&#45;&gt;cdo</title>
<path fill="none" stroke="black" d="M558.15,-300.41C492.23,-294.17 395.42,-280.34 372.48,-252 358.17,-234.32 365.7,-208.3 375.01,-188.96"/>
<polygon fill="black" stroke="black" points="377.99,-190.81 379.53,-180.33 371.79,-187.56 377.99,-190.81"/>
</g>
<!-- magics -->
<g id="node3" class="node">
<title>magics</title>
<g id="a_node3"><a xlink:href="https://github.com/conda-forge/magics-feedstock" xlink:title="magics">
<ellipse fill="#fde725" stroke="black" cx="427.48" cy="-234" rx="46.47" ry="18"/>
<text xml:space="preserve" text-anchor="middle" x="427.48" y="-229.32" font-family="Times,serif" font-size="14.00">magics</text>
</a>
</g>
</g>
<!-- eccodes&#45;&gt;magics -->
<g id="edge2" class="edge">
<title>eccodes&#45;&gt;magics</title>
<path fill="none" stroke="black" d="M582.68,-291C550.46,-279.37 504.63,-262.84 471.12,-250.75"/>
<polygon fill="black" stroke="black" points="472.73,-247.61 462.13,-247.51 470.35,-254.19 472.73,-247.61"/>
</g>
<!-- metview -->
<g id="node4" class="node">
<title>metview</title>
<g id="a_node4"><a xlink:href="https://github.com/conda-forge/metview-feedstock" xlink:title="metview">
<ellipse fill="#fde725" stroke="black" cx="501.48" cy="-90" rx="53.84" ry="18"/>
<text xml:space="preserve" text-anchor="middle" x="501.48" y="-85.33" font-family="Times,serif" font-size="14.00">metview</text>
</a>
</g>
</g>
<!-- eccodes&#45;&gt;metview -->
<g id="edge3" class="edge">
<title>eccodes&#45;&gt;metview</title>
<path fill="none" stroke="black" d="M603.46,-288.23C580.52,-265.82 541.37,-223.82 520.48,-180 511.37,-160.91 506.59,-137.44 504.11,-119.4"/>
<polygon fill="black" stroke="black" points="507.61,-119.17 502.93,-109.66 500.66,-120.01 507.61,-119.17"/>
</g>
<!-- magics&#45;metview -->
<g id="node5" class="node">
<title>magics&#45;metview</title>
<g id="a_node5"><a xlink:href="https://github.com/conda-forge/magics-metview-feedstock" xlink:title="magics metview">
<ellipse fill="#fde725" stroke="black" cx="621.48" cy="-162" rx="92.25" ry="18"/>
<text xml:space="preserve" text-anchor="middle" x="621.48" y="-157.32" font-family="Times,serif" font-size="14.00">magics metview</text>
</a>
</g>
</g>
<!-- eccodes&#45;&gt;magics&#45;metview -->
<g id="edge4" class="edge">
<title>eccodes&#45;&gt;magics&#45;metview</title>
<path fill="none" stroke="black" d="M621.48,-287.59C621.48,-263.61 621.48,-220.14 621.48,-191.42"/>
<polygon fill="black" stroke="black" points="624.98,-191.62 621.48,-181.62 617.98,-191.62 624.98,-191.62"/>
</g>
<!-- magics&#45;metview&#45;batch -->
<g id="node6" class="node">
<title>magics&#45;metview&#45;batch</title>
<g id="a_node6"><a xlink:href="https://github.com/conda-forge/magics-metview-batch-feedstock" xlink:title="magics metview batch">
<ellipse fill="#fde725" stroke="black" cx="696.48" cy="-90" rx="123.29" ry="18"/>
<text xml:space="preserve" text-anchor="middle" x="696.48" y="-85.33" font-family="Times,serif" font-size="14.00">magics metview batch</text>
</a>
</g>
</g>
<!-- eccodes&#45;&gt;magics&#45;metview&#45;batch -->
<g id="edge5" class="edge">
<title>eccodes&#45;&gt;magics&#45;metview&#45;batch</title>
<path fill="none" stroke="black" d="M641.37,-288.45C665.92,-266.59 706.39,-225.51 722.48,-180 729.71,-159.54 722.12,-135.96 713.31,-118.2"/>
<polygon fill="black" stroke="black" points="716.48,-116.71 708.65,-109.57 710.32,-120.04 716.48,-116.71"/>
</g>
<!-- metview&#45;batch -->
<g id="node7" class="node">
<title>metview&#45;batch</title>
<g id="a_node7"><a xlink:href="https://github.com/conda-forge/metview-batch-feedstock" xlink:title="metview batch">
<ellipse fill="#fde725" stroke="black" cx="720.48" cy="-18" rx="84.88" ry="18"/>
<text xml:space="preserve" text-anchor="middle" x="720.48" y="-13.32" font-family="Times,serif" font-size="14.00">metview batch</text>
</a>
</g>
</g>
<!-- eccodes&#45;&gt;metview&#45;batch -->
<g id="edge6" class="edge">
<title>eccodes&#45;&gt;metview&#45;batch</title>
<path fill="none" stroke="black" d="M650.31,-289.43C699.18,-261.08 796.11,-195.74 828.48,-108 834.02,-92.99 836.94,-85.58 828.48,-72 818.41,-55.85 801.83,-44.48 784.64,-36.54"/>
<polygon fill="black" stroke="black" points="786.47,-33.51 775.9,-32.83 783.74,-39.95 786.47,-33.51"/>
</g>
<!-- fimex -->
<g id="node8" class="node">
<title>fimex</title>
<g id="a_node8"><a xlink:href="https://github.com/conda-forge/fimex-feedstock" xlink:title="fimex">
<ellipse fill="#fde725" stroke="black" cx="885.48" cy="-18" rx="38.58" ry="18"/>
<text xml:space="preserve" text-anchor="middle" x="885.48" y="-13.32" font-family="Times,serif" font-size="14.00">fimex</text>
</a>
</g>
</g>
<!-- eccodes&#45;&gt;fimex -->
<g id="edge7" class="edge">
<title>eccodes&#45;&gt;fimex</title>
<path fill="none" stroke="black" d="M662.47,-291.57C686.92,-282.49 717.88,-269.05 742.48,-252 779.16,-226.57 787.26,-216.82 812.48,-180 832.37,-150.96 830.93,-140.05 845.48,-108 854.83,-87.4 865.3,-64.08 873.19,-46.48"/>
<polygon fill="black" stroke="black" points="876.34,-48.02 877.23,-37.46 869.95,-45.16 876.34,-48.02"/>
</g>
<!-- magics&#45;&gt;cdo -->
<g id="edge8" class="edge">
<title>magics&#45;&gt;cdo</title>
<path fill="none" stroke="black" d="M418.52,-216.05C414.28,-208.03 409.11,-198.26 404.38,-189.3"/>
<polygon fill="black" stroke="black" points="407.57,-187.85 399.8,-180.65 401.38,-191.12 407.57,-187.85"/>
</g>
<!-- magics&#45;metview&#45;&gt;metview -->
<g id="edge9" class="edge">
<title>magics&#45;metview&#45;&gt;metview</title>
<path fill="none" stroke="black" d="M593.04,-144.41C576.27,-134.63 554.92,-122.17 537.04,-111.75"/>
<polygon fill="black" stroke="black" points="538.97,-108.82 528.56,-106.8 535.44,-114.86 538.97,-108.82"/>
</g>
<!-- magics&#45;metview&#45;batch&#45;&gt;metview&#45;batch -->
<g id="edge10" class="edge">
<title>magics&#45;metview&#45;batch&#45;&gt;metview&#45;batch</title>
<path fill="none" stroke="black" d="M702.41,-71.7C704.97,-64.24 708.02,-55.32 710.89,-46.97"/>
<polygon fill="black" stroke="black" points="714.19,-48.13 714.12,-37.54 707.57,-45.86 714.19,-48.13"/>
</g>
<!-- esmf -->
<g id="node9" class="node">
<title>esmf</title>
<g id="a_node9"><a xlink:href="https://github.com/conda-forge/esmf-feedstock" xlink:title="esmf">
<ellipse fill="#fde725" stroke="black" cx="983.48" cy="-746" rx="35.42" ry="18"/>
<text xml:space="preserve" text-anchor="middle" x="983.48" y="-741.33" font-family="Times,serif" font-size="14.00">esmf</text>
</a>
</g>
</g>
<!-- ncl -->
<g id="node10" class="node">
<title>ncl</title>
<g id="a_node10"><a xlink:href="https://github.com/conda-forge/ncl-feedstock" xlink:title="ncl">
<ellipse fill="#fde725" stroke="black" cx="987.48" cy="-674" rx="27" ry="18"/>
<text xml:space="preserve" text-anchor="middle" x="987.48" y="-669.33" font-family="Times,serif" font-size="14.00">ncl</text>
</a>
</g>
</g>
<!-- esmf&#45;&gt;ncl -->
<g id="edge11" class="edge">
<title>esmf&#45;&gt;ncl</title>
<path fill="none" stroke="black" d="M984.47,-727.7C984.88,-720.41 985.38,-711.73 985.85,-703.54"/>
<polygon fill="black" stroke="black" points="989.34,-703.8 986.41,-693.62 982.35,-703.4 989.34,-703.8"/>
</g>
<!-- nco -->
<g id="node11" class="node">
<title>nco</title>
<g id="a_node11"><a xlink:href="https://github.com/conda-forge/nco-feedstock" xlink:title="nco">
<ellipse fill="#fde725" stroke="black" cx="1061.48" cy="-674" rx="28.59" ry="18"/>
<text xml:space="preserve" text-anchor="middle" x="1061.48" y="-669.33" font-family="Times,serif" font-size="14.00">nco</text>
</a>
</g>
</g>
<!-- esmf&#45;&gt;nco -->
<g id="edge12" class="edge">
<title>esmf&#45;&gt;nco</title>
<path fill="none" stroke="black" d="M1000.4,-729.81C1011.22,-720.1 1025.41,-707.37 1037.39,-696.61"/>
<polygon fill="black" stroke="black" points="1039.42,-699.5 1044.52,-690.22 1034.74,-694.29 1039.42,-699.5"/>
</g>
<!-- mpas_tools -->
<g id="node12" class="node">
<title>mpas_tools</title>
<g id="a_node12"><a xlink:href="https://github.com/conda-forge/mpas_tools-feedstock" xlink:title="mpas_tools">
<ellipse fill="#fde725" stroke="black" cx="1061.48" cy="-602" rx="66.99" ry="18"/>
<text xml:space="preserve" text-anchor="middle" x="1061.48" y="-597.33" font-family="Times,serif" font-size="14.00">mpas_tools</text>
</a>
</g>
</g>
<!-- nco&#45;&gt;mpas_tools -->
<g id="edge13" class="edge">
<title>nco&#45;&gt;mpas_tools</title>
<path fill="none" stroke="black" d="M1061.48,-655.7C1061.48,-648.41 1061.48,-639.73 1061.48,-631.54"/>
<polygon fill="black" stroke="black" points="1064.98,-631.62 1061.48,-621.62 1057.98,-631.62 1064.98,-631.62"/>
</g>
<!-- gdal -->
<g id="node13" class="node">
<title>gdal</title>
<g id="a_node13"><a xlink:href="https://github.com/conda-forge/gdal-feedstock" xlink:title="gdal">
<ellipse fill="#000000" stroke="black" cx="679.48" cy="-746" rx="32.79" ry="18"/>
<text xml:space="preserve" text-anchor="middle" x="679.48" y="-741.33" font-family="Times,serif" font-size="14.00" fill="white">gdal</text>
</a>
</g>
</g>
<!-- gdal&#45;&gt;ncl -->
<g id="edge14" class="edge">
<title>gdal&#45;&gt;ncl</title>
<path fill="none" stroke="black" d="M703.86,-733.78C709.25,-731.61 714.99,-729.54 720.48,-728 820.51,-699.9 852.15,-722.5 951.48,-692 953.09,-691.51 954.72,-690.95 956.35,-690.35"/>
<polygon fill="black" stroke="black" points="957.66,-693.6 965.54,-686.52 954.97,-687.14 957.66,-693.6"/>
</g>
<!-- gmt -->
<g id="node14" class="node">
<title>gmt</title>
<g id="a_node14"><a xlink:href="https://github.com/conda-forge/gmt-feedstock" xlink:title="gmt">
<ellipse fill="#fde725" stroke="black" cx="753.48" cy="-674" rx="31.22" ry="18"/>
<text xml:space="preserve" text-anchor="middle" x="753.48" y="-669.33" font-family="Times,serif" font-size="14.00">gmt</text>
</a>
</g>
</g>
<!-- gdal&#45;&gt;gmt -->
<g id="edge15" class="edge">
<title>gdal&#45;&gt;gmt</title>
<path fill="none" stroke="black" d="M695.53,-729.81C705.49,-720.39 718.47,-708.12 729.62,-697.57"/>
<polygon fill="black" stroke="black" points="731.75,-700.37 736.61,-690.96 726.94,-695.29 731.75,-700.37"/>
</g>
<!-- r&#45;gdalcubes -->
<g id="node15" class="node">
<title>r&#45;gdalcubes</title>
<g id="a_node15"><a xlink:href="https://github.com/conda-forge/r-gdalcubes-feedstock" xlink:title="r gdalcubes">
<ellipse fill="#fde725" stroke="black" cx="872.48" cy="-674" rx="69.62" ry="18"/>
<text xml:space="preserve" text-anchor="middle" x="872.48" y="-669.33" font-family="Times,serif" font-size="14.00">r gdalcubes</text>
</a>
</g>
</g>
<!-- gdal&#45;&gt;r&#45;gdalcubes -->
<g id="edge16" class="edge">
<title>gdal&#45;&gt;r&#45;gdalcubes</title>
<path fill="none" stroke="black" d="M704.98,-734.16C710.09,-732.06 715.44,-729.92 720.48,-728 753.36,-715.46 790.66,-702.44 820.09,-692.44"/>
<polygon fill="black" stroke="black" points="821.17,-695.76 829.52,-689.24 818.93,-689.13 821.17,-695.76"/>
</g>
<!-- pygnome -->
<g id="node16" class="node">
<title>pygnome</title>
<g id="a_node16"><a xlink:href="https://github.com/conda-forge/pygnome-feedstock" xlink:title="pygnome">
<ellipse fill="#fde725" stroke="black" cx="609.48" cy="-674" rx="57" ry="18"/>
<text xml:space="preserve" text-anchor="middle" x="609.48" y="-669.33" font-family="Times,serif" font-size="14.00">pygnome</text>
</a>
</g>
</g>
<!-- gdal&#45;&gt;pygnome -->
<g id="edge17" class="edge">
<title>gdal&#45;&gt;pygnome</title>
<path fill="none" stroke="black" d="M664.29,-729.81C655.49,-721.02 644.21,-709.73 634.17,-699.69"/>
<polygon fill="black" stroke="black" points="636.72,-697.29 627.18,-692.7 631.77,-702.24 636.72,-697.29"/>
</g>
<!-- windninja -->
<g id="node17" class="node">
<title>windninja</title>
<g id="a_node17"><a xlink:href="https://github.com/conda-forge/windninja-feedstock" xlink:title="windninja">
<ellipse fill="#fde725" stroke="black" cx="694.48" cy="-602" rx="60.15" ry="18"/>
<text xml:space="preserve" text-anchor="middle" x="694.48" y="-597.33" font-family="Times,serif" font-size="14.00">windninja</text>
</a>
</g>
</g>
<!-- gdal&#45;&gt;windninja -->
<g id="edge18" class="edge">
<title>gdal&#45;&gt;windninja</title>
<path fill="none" stroke="black" d="M681.32,-727.59C683.85,-703.61 688.44,-660.14 691.48,-631.42"/>
<polygon fill="black" stroke="black" points="694.94,-631.93 692.51,-621.62 687.98,-631.19 694.94,-631.93"/>
</g>
<!-- moab -->
<g id="node18" class="node">
<title>moab</title>
<g id="a_node18"><a xlink:href="https://github.com/conda-forge/moab-feedstock" xlink:title="moab">
<ellipse fill="#fde725" stroke="black" cx="1146.48" cy="-674" rx="38.58" ry="18"/>
<text xml:space="preserve" text-anchor="middle" x="1146.48" y="-669.33" font-family="Times,serif" font-size="14.00">moab</text>
</a>
</g>
</g>
<!-- netcdf&#45;cxx4 -->
<g id="node19" class="node">
<title>netcdf&#45;cxx4</title>
<g id="a_node19"><a xlink:href="https://github.com/conda-forge/netcdf-cxx4-feedstock" xlink:title="netcdf cxx4">
<ellipse fill="#35b779" stroke="black" cx="1388.48" cy="-198" rx="69.1" ry="18"/>
<text xml:space="preserve" text-anchor="middle" x="1388.48" y="-193.32" font-family="Times,serif" font-size="14.00">netcdf cxx4</text>
</a>
</g>
</g>
<!-- smspp&#45;project -->
<g id="node20" class="node">
<title>smspp&#45;project</title>
<g id="a_node20"><a xlink:href="https://github.com/conda-forge/smspp-project-feedstock" xlink:title="smspp project">
<ellipse fill="#fde725" stroke="black" cx="1388.48" cy="-126" rx="82.25" ry="18"/>
<text xml:space="preserve" text-anchor="middle" x="1388.48" y="-121.33" font-family="Times,serif" font-size="14.00">smspp project</text>
</a>
</g>
</g>
<!-- netcdf&#45;cxx4&#45;&gt;smspp&#45;project -->
<g id="edge19" class="edge">
<title>netcdf&#45;cxx4&#45;&gt;smspp&#45;project</title>
<path fill="none" stroke="black" d="M1388.48,-179.7C1388.48,-172.41 1388.48,-163.73 1388.48,-155.54"/>
<polygon fill="black" stroke="black" points="1391.98,-155.62 1388.48,-145.62 1384.98,-155.62 1391.98,-155.62"/>
</g>
<!-- netcdf&#45;fortran -->
<g id="node21" class="node">
<title>netcdf&#45;fortran</title>
<g id="a_node21"><a xlink:href="https://github.com/conda-forge/netcdf-fortran-feedstock/pull/102" xlink:title="netcdf fortran ❎">
<ellipse fill="#31688e" stroke="black" cx="793.48" cy="-890" rx="96.45" ry="18"/>
<text xml:space="preserve" text-anchor="middle" x="793.48" y="-885.33" font-family="Times,serif" font-size="14.00" fill="white">netcdf fortran ❎</text>
</a>
</g>
</g>
<!-- netcdf&#45;fortran&#45;&gt;esmf -->
<g id="edge20" class="edge">
<title>netcdf&#45;fortran&#45;&gt;esmf</title>
<path fill="none" stroke="black" d="M830.09,-873.09C849.99,-863.65 874.54,-850.67 894.48,-836 901.72,-830.67 936.44,-795.4 960.31,-770.9"/>
<polygon fill="black" stroke="black" points="962.72,-773.44 967.18,-763.83 957.7,-768.56 962.72,-773.44"/>
</g>
<!-- netcdf&#45;fortran&#45;&gt;mpas_tools -->
<g id="edge21" class="edge">
<title>netcdf&#45;fortran&#45;&gt;mpas_tools</title>
<path fill="none" stroke="black" d="M873.09,-879.56C992.57,-863.48 1208.85,-826.34 1251.48,-764 1282.11,-719.2 1238,-688.42 1194.48,-656 1172.16,-639.38 1143.94,-627.16 1119.23,-618.67"/>
<polygon fill="black" stroke="black" points="1120.56,-615.42 1109.96,-615.62 1118.37,-622.07 1120.56,-615.42"/>
</g>
<!-- pyferret -->
<g id="node22" class="node">
<title>pyferret</title>
<g id="a_node22"><a xlink:href="https://github.com/conda-forge/pyferret-feedstock" xlink:title="pyferret">
<ellipse fill="#fde725" stroke="black" cx="833.48" cy="-818" rx="52.26" ry="18"/>
<text xml:space="preserve" text-anchor="middle" x="833.48" y="-813.33" font-family="Times,serif" font-size="14.00">pyferret</text>
</a>
</g>
</g>
<!-- netcdf&#45;fortran&#45;&gt;pyferret -->
<g id="edge22" class="edge">
<title>netcdf&#45;fortran&#45;&gt;pyferret</title>
<path fill="none" stroke="black" d="M803.36,-871.7C807.82,-863.9 813.19,-854.51 818.15,-845.83"/>
<polygon fill="black" stroke="black" points="821.03,-847.84 822.95,-837.42 814.95,-844.36 821.03,-847.84"/>
</g>
<!-- siesta -->
<g id="node23" class="node">
<title>siesta</title>
<g id="a_node23"><a xlink:href="https://github.com/conda-forge/siesta-feedstock" xlink:title="siesta">
<ellipse fill="#fde725" stroke="black" cx="770.48" cy="-746" rx="40.69" ry="18"/>
<text xml:space="preserve" text-anchor="middle" x="770.48" y="-741.33" font-family="Times,serif" font-size="14.00">siesta</text>
</a>
</g>
</g>
<!-- netcdf&#45;fortran&#45;&gt;siesta -->
<g id="edge23" class="edge">
<title>netcdf&#45;fortran&#45;&gt;siesta</title>
<path fill="none" stroke="black" d="M784.86,-871.81C780.24,-861.67 774.99,-848.42 772.48,-836 768.46,-816.16 768.03,-793.32 768.57,-775.75"/>
<polygon fill="black" stroke="black" points="772.06,-775.92 769.01,-765.77 765.07,-775.61 772.06,-775.92"/>
</g>
<!-- ambertools -->
<g id="node24" class="node">
<title>ambertools</title>
<g id="a_node24"><a xlink:href="https://github.com/conda-forge/ambertools-feedstock" xlink:title="ambertools">
<ellipse fill="#fde725" stroke="black" cx="466.48" cy="-674" rx="67.52" ry="18"/>
<text xml:space="preserve" text-anchor="middle" x="466.48" y="-669.33" font-family="Times,serif" font-size="14.00">ambertools</text>
</a>
</g>
</g>
<!-- netcdf&#45;fortran&#45;&gt;ambertools -->
<g id="edge24" class="edge">
<title>netcdf&#45;fortran&#45;&gt;ambertools</title>
<path fill="none" stroke="black" d="M767.82,-872.21C709.39,-833.97 566.41,-740.4 500.62,-697.35"/>
<polygon fill="black" stroke="black" points="502.67,-694.5 492.39,-691.96 498.84,-700.36 502.67,-694.5"/>
</g>
<!-- abinit -->
<g id="node25" class="node">
<title>abinit</title>
<g id="a_node25"><a xlink:href="https://github.com/conda-forge/abinit-feedstock" xlink:title="abinit">
<ellipse fill="#fde725" stroke="black" cx="362.48" cy="-602" rx="40.16" ry="18"/>
<text xml:space="preserve" text-anchor="middle" x="362.48" y="-597.33" font-family="Times,serif" font-size="14.00">abinit</text>
</a>
</g>
</g>
<!-- netcdf&#45;fortran&#45;&gt;abinit -->
<g id="edge25" class="edge">
<title>netcdf&#45;fortran&#45;&gt;abinit</title>
<path fill="none" stroke="black" d="M730.86,-875.94C641.39,-853.94 478,-800.8 389.48,-692 375.45,-674.76 368.7,-650.33 365.46,-631.43"/>
<polygon fill="black" stroke="black" points="368.95,-631.1 364.05,-621.71 362.02,-632.1 368.95,-631.1"/>
</g>
<!-- yambo -->
<g id="node26" class="node">
<title>yambo</title>
<g id="a_node26"><a xlink:href="https://github.com/conda-forge/yambo-feedstock" xlink:title="yambo">
<ellipse fill="#fde725" stroke="black" cx="294.48" cy="-530" rx="44.37" ry="18"/>
<text xml:space="preserve" text-anchor="middle" x="294.48" y="-525.33" font-family="Times,serif" font-size="14.00">yambo</text>
</a>
</g>
</g>
<!-- netcdf&#45;fortran&#45;&gt;yambo -->
<g id="edge26" class="edge">
<title>netcdf&#45;fortran&#45;&gt;yambo</title>
<path fill="none" stroke="black" d="M705.99,-882.13C562.88,-868.46 294.48,-831.55 294.48,-747 294.48,-747 294.48,-747 294.48,-673 294.48,-633.74 294.48,-588.38 294.48,-559.69"/>
<polygon fill="black" stroke="black" points="297.98,-560 294.48,-550 290.98,-560 297.98,-560"/>
</g>
<!-- parallelio -->
<g id="node27" class="node">
<title>parallelio</title>
<g id="a_node27"><a xlink:href="https://github.com/conda-forge/parallelio-feedstock" xlink:title="parallelio">
<ellipse fill="#fde725" stroke="black" cx="999.48" cy="-818" rx="58.05" ry="18"/>
<text xml:space="preserve" text-anchor="middle" x="999.48" y="-813.33" font-family="Times,serif" font-size="14.00">parallelio</text>
</a>
</g>
</g>
<!-- netcdf&#45;fortran&#45;&gt;parallelio -->
<g id="edge27" class="edge">
<title>netcdf&#45;fortran&#45;&gt;parallelio</title>
<path fill="none" stroke="black" d="M838.68,-873.64C871.81,-862.38 916.74,-847.12 950.68,-835.58"/>
<polygon fill="black" stroke="black" points="951.51,-839 959.85,-832.46 949.26,-832.37 951.51,-839"/>
</g>
<!-- parallelio&#45;&gt;esmf -->
<g id="edge28" class="edge">
<title>parallelio&#45;&gt;esmf</title>
<path fill="none" stroke="black" d="M995.52,-799.7C993.84,-792.32 991.83,-783.52 989.93,-775.25"/>
<polygon fill="black" stroke="black" points="993.36,-774.55 987.72,-765.58 986.54,-776.11 993.36,-774.55"/>
</g>
<!-- netcdf4 -->
<g id="node28" class="node">
<title>netcdf4</title>
<g id="a_node28"><a xlink:href="https://github.com/conda-forge/netcdf4-feedstock/pull/185" xlink:title="netcdf4 ❎">
<ellipse fill="#31688e" stroke="black" cx="197.48" cy="-746" rx="64.36" ry="18"/>
<text xml:space="preserve" text-anchor="middle" x="197.48" y="-741.33" font-family="Times,serif" font-size="14.00" fill="white">netcdf4 ❎</text>
</a>
</g>
</g>
<!-- netcdf4&#45;&gt;mpas_tools -->
<g id="edge30" class="edge">
<title>netcdf4&#45;&gt;mpas_tools</title>
<path fill="none" stroke="black" d="M223.68,-729.16C259.63,-708.31 326.93,-672.4 389.48,-656 445.82,-641.23 820.99,-617.38 984.98,-607.5"/>
<polygon fill="black" stroke="black" points="985.14,-611 994.91,-606.91 984.72,-604.01 985.14,-611"/>
</g>
<!-- netcdf4&#45;&gt;pygnome -->
<g id="edge29" class="edge">
<title>netcdf4&#45;&gt;pygnome</title>
<path fill="none" stroke="black" d="M255.64,-737.9C324.65,-729.06 443.01,-712.58 543.48,-692 547.72,-691.13 552.11,-690.16 556.5,-689.14"/>
<polygon fill="black" stroke="black" points="557,-692.62 565.9,-686.87 555.36,-685.81 557,-692.62"/>
</g>
<!-- cmor -->
<g id="node29" class="node">
<title>cmor</title>
<g id="a_node29"><a xlink:href="https://github.com/conda-forge/cmor-feedstock" xlink:title="cmor">
<ellipse fill="#fde725" stroke="black" cx="36.48" cy="-674" rx="36.48" ry="18"/>
<text xml:space="preserve" text-anchor="middle" x="36.48" y="-669.33" font-family="Times,serif" font-size="14.00">cmor</text>
</a>
</g>
</g>
<!-- netcdf4&#45;&gt;cmor -->
<g id="edge31" class="edge">
<title>netcdf4&#45;&gt;cmor</title>
<path fill="none" stroke="black" d="M163.73,-730.33C137.35,-718.86 100.73,-702.94 73.55,-691.12"/>
<polygon fill="black" stroke="black" points="75.22,-688.03 64.65,-687.25 72.43,-694.45 75.22,-688.03"/>
</g>
<!-- lfric_reader -->
<g id="node30" class="node">
<title>lfric_reader</title>
<g id="a_node30"><a xlink:href="https://github.com/conda-forge/lfric_reader-feedstock" xlink:title="lfric_reader">
<ellipse fill="#fde725" stroke="black" cx="197.48" cy="-602" rx="69.1" ry="18"/>
<text xml:space="preserve" text-anchor="middle" x="197.48" y="-597.33" font-family="Times,serif" font-size="14.00">lfric_reader</text>
</a>
</g>
</g>
<!-- netcdf4&#45;&gt;lfric_reader -->
<g id="edge32" class="edge">
<title>netcdf4&#45;&gt;lfric_reader</title>
<path fill="none" stroke="black" d="M197.48,-727.59C197.48,-703.61 197.48,-660.14 197.48,-631.42"/>
<polygon fill="black" stroke="black" points="200.98,-631.62 197.48,-621.62 193.98,-631.62 200.98,-631.62"/>
</g>
<!-- rubin&#45;libradtran -->
<g id="node31" class="node">
<title>rubin&#45;libradtran</title>
<g id="a_node31"><a xlink:href="https://github.com/conda-forge/rubin-libradtran-feedstock" xlink:title="rubin libradtran">
<ellipse fill="#fde725" stroke="black" cx="100.48" cy="-530" rx="91.72" ry="18"/>
<text xml:space="preserve" text-anchor="middle" x="100.48" y="-525.33" font-family="Times,serif" font-size="14.00">rubin libradtran</text>
</a>
</g>
</g>
<!-- netcdf4&#45;&gt;rubin&#45;libradtran -->
<g id="edge33" class="edge">
<title>netcdf4&#45;&gt;rubin&#45;libradtran</title>
<path fill="none" stroke="black" d="M184.33,-728.24C166.89,-705.17 136.35,-661.74 119.48,-620 111.64,-600.6 106.82,-577.45 104,-559.63"/>
<polygon fill="black" stroke="black" points="107.47,-559.14 102.57,-549.75 100.54,-560.15 107.47,-559.14"/>
</g>
<!-- r&#45;ncdf4 -->
<g id="node32" class="node">
<title>r&#45;ncdf4</title>
<g id="a_node32"><a xlink:href="https://github.com/conda-forge/r-ncdf4-feedstock" xlink:title="r ncdf4">
<ellipse fill="#35b779" stroke="black" cx="876.48" cy="-746" rx="47" ry="18"/>
<text xml:space="preserve" text-anchor="middle" x="876.48" y="-741.33" font-family="Times,serif" font-size="14.00">r ncdf4</text>
</a>
</g>
</g>
<!-- r&#45;ncdf4&#45;&gt;r&#45;gdalcubes -->
<g id="edge34" class="edge">
<title>r&#45;ncdf4&#45;&gt;r&#45;gdalcubes</title>
<path fill="none" stroke="black" d="M875.49,-727.7C875.07,-720.41 874.58,-711.73 874.11,-703.54"/>
<polygon fill="black" stroke="black" points="877.61,-703.4 873.54,-693.62 870.62,-703.8 877.61,-703.4"/>
</g>
<!-- r&#45;rnetcdf -->
<g id="node33" class="node">
<title>r&#45;rnetcdf</title>
<g id="a_node33"><a xlink:href="https://github.com/conda-forge/r-rnetcdf-feedstock" xlink:title="r rnetcdf">
<ellipse fill="#35b779" stroke="black" cx="1388.48" cy="-1070" rx="55.42" ry="18"/>
<text xml:space="preserve" text-anchor="middle" x="1388.48" y="-1065.33" font-family="Times,serif" font-size="14.00">r rnetcdf</text>
</a>
</g>
</g>
<!-- wgrib2 -->
<g id="node34" class="node">
<title>wgrib2</title>
<g id="a_node34"><a xlink:href="https://github.com/conda-forge/wgrib2-feedstock" xlink:title="wgrib2">
<ellipse fill="#35b779" stroke="black" cx="1388.48" cy="-998" rx="46.47" ry="18"/>
<text xml:space="preserve" text-anchor="middle" x="1388.48" y="-993.33" font-family="Times,serif" font-size="14.00">wgrib2</text>
</a>
</g>
</g>
<!-- r&#45;rnetcdf&#45;&gt;wgrib2 -->
<!-- vic -->
<g id="node35" class="node">
<title>vic</title>
<g id="a_node35"><a xlink:href="https://github.com/conda-forge/vic-feedstock" xlink:title="vic">
<ellipse fill="#35b779" stroke="black" cx="1388.48" cy="-926" rx="27" ry="18"/>
<text xml:space="preserve" text-anchor="middle" x="1388.48" y="-921.33" font-family="Times,serif" font-size="14.00">vic</text>
</a>
</g>
</g>
<!-- wgrib2&#45;&gt;vic -->
<!-- vtk -->
<g id="node36" class="node">
<title>vtk</title>
<g id="a_node36"><a xlink:href="https://github.com/conda-forge/vtk-feedstock/pull/427" xlink:title="vtk ❎">
<ellipse fill="#31688e" stroke="black" cx="1388.48" cy="-854" rx="42.26" ry="18"/>
<text xml:space="preserve" text-anchor="middle" x="1388.48" y="-849.33" font-family="Times,serif" font-size="14.00" fill="white">vtk ❎</text>
</a>
</g>
</g>
<!-- vic&#45;&gt;vtk -->
<!-- vmd&#45;python -->
<g id="node37" class="node">
<title>vmd&#45;python</title>
<g id="a_node37"><a xlink:href="https://github.com/conda-forge/vmd-python-feedstock" xlink:title="vmd python">
<ellipse fill="#35b779" stroke="black" cx="1388.48" cy="-782" rx="70.68" ry="18"/>
<text xml:space="preserve" text-anchor="middle" x="1388.48" y="-777.33" font-family="Times,serif" font-size="14.00">vmd python</text>
</a>
</g>
</g>
<!-- vtk&#45;&gt;vmd&#45;python -->
<!-- lammps -->
<g id="node38" class="node">
<title>lammps</title>
<g id="a_node38"><a xlink:href="https://github.com/conda-forge/lammps-feedstock" xlink:title="lammps">
<ellipse fill="#35b779" stroke="black" cx="1388.48" cy="-710" rx="50.68" ry="18"/>
<text xml:space="preserve" text-anchor="middle" x="1388.48" y="-705.33" font-family="Times,serif" font-size="14.00">lammps</text>
</a>
</g>
</g>
<!-- vmd&#45;python&#45;&gt;lammps -->
<!-- ovito -->
<g id="node39" class="node">
<title>ovito</title>
<g id="a_node39"><a xlink:href="https://github.com/conda-forge/ovito-feedstock" xlink:title="ovito">
<ellipse fill="#35b779" stroke="black" cx="1388.48" cy="-638" rx="35.95" ry="18"/>
<text xml:space="preserve" text-anchor="middle" x="1388.48" y="-633.33" font-family="Times,serif" font-size="14.00">ovito</text>
</a>
</g>
</g>
<!-- lammps&#45;&gt;ovito -->
<!-- fpocket -->
<g id="node40" class="node">
<title>fpocket</title>
<g id="a_node40"><a xlink:href="https://github.com/conda-forge/fpocket-feedstock" xlink:title="fpocket">
<ellipse fill="#35b779" stroke="black" cx="1388.48" cy="-566" rx="48.05" ry="18"/>
<text xml:space="preserve" text-anchor="middle" x="1388.48" y="-561.33" font-family="Times,serif" font-size="14.00">fpocket</text>
</a>
</g>
</g>
<!-- ovito&#45;&gt;fpocket -->
<!-- sphinxdft -->
<g id="node42" class="node">
<title>sphinxdft</title>
<g id="a_node42"><a xlink:href="https://github.com/conda-forge/sphinxdft-feedstock" xlink:title="sphinxdft">
<ellipse fill="#35b779" stroke="black" cx="1388.48" cy="-494" rx="58.57" ry="18"/>
<text xml:space="preserve" text-anchor="middle" x="1388.48" y="-489.32" font-family="Times,serif" font-size="14.00">sphinxdft</text>
</a>
</g>
</g>
<!-- fpocket&#45;&gt;sphinxdft -->
<!-- tempest&#45;remap -->
<g id="node41" class="node">
<title>tempest&#45;remap</title>
<g id="a_node41"><a xlink:href="https://github.com/conda-forge/tempest-remap-feedstock/pull/51" xlink:title="tempest remap ❎">
<ellipse fill="#31688e" stroke="black" cx="1139.48" cy="-746" rx="102.77" ry="18"/>
<text xml:space="preserve" text-anchor="middle" x="1139.48" y="-741.33" font-family="Times,serif" font-size="14.00" fill="white">tempest remap ❎</text>
</a>
</g>
</g>
<!-- tempest&#45;remap&#45;&gt;nco -->
<g id="edge42" class="edge">
<title>tempest&#45;remap&#45;&gt;nco</title>
<path fill="none" stroke="black" d="M1120.6,-728.05C1110.14,-718.67 1097.02,-706.9 1085.8,-696.83"/>
<polygon fill="black" stroke="black" points="1088.2,-694.28 1078.42,-690.21 1083.52,-699.49 1088.2,-694.28"/>
</g>
<!-- tempest&#45;remap&#45;&gt;moab -->
<g id="edge43" class="edge">
<title>tempest&#45;remap&#45;&gt;moab</title>
<path fill="none" stroke="black" d="M1141.21,-727.7C1141.94,-720.41 1142.8,-711.73 1143.62,-703.54"/>
<polygon fill="black" stroke="black" points="1147.1,-703.91 1144.62,-693.61 1140.14,-703.21 1147.1,-703.91"/>
</g>
<!-- ncview -->
<g id="node43" class="node">
<title>ncview</title>
<g id="a_node43"><a xlink:href="https://github.com/conda-forge/ncview-feedstock" xlink:title="ncview">
<ellipse fill="#35b779" stroke="black" cx="1388.48" cy="-422" rx="45.95" ry="18"/>
<text xml:space="preserve" text-anchor="middle" x="1388.48" y="-417.32" font-family="Times,serif" font-size="14.00">ncview</text>
</a>
</g>
</g>
<!-- sphinxdft&#45;&gt;ncview -->
<!-- netcdf&#45;cxx&#45;legacy -->
<g id="node44" class="node">
<title>netcdf&#45;cxx&#45;legacy</title>
<g id="a_node44"><a xlink:href="https://github.com/conda-forge/netcdf-cxx-legacy-feedstock" xlink:title="netcdf cxx legacy">
<ellipse fill="#35b779" stroke="black" cx="1388.48" cy="-350" rx="98.03" ry="18"/>
<text xml:space="preserve" text-anchor="middle" x="1388.48" y="-345.32" font-family="Times,serif" font-size="14.00">netcdf cxx legacy</text>
</a>
</g>
</g>
<!-- ncview&#45;&gt;netcdf&#45;cxx&#45;legacy -->
<!-- nccmp -->
<g id="node45" class="node">
<title>nccmp</title>
<g id="a_node45"><a xlink:href="https://github.com/conda-forge/nccmp-feedstock" xlink:title="nccmp">
<ellipse fill="#35b779" stroke="black" cx="1600.48" cy="-1034" rx="43.84" ry="18"/>
<text xml:space="preserve" text-anchor="middle" x="1600.48" y="-1029.33" font-family="Times,serif" font-size="14.00">nccmp</text>
</a>
</g>
</g>
<!-- tempest&#45;extremes -->
<g id="node46" class="node">
<title>tempest&#45;extremes</title>
<g id="a_node46"><a xlink:href="https://github.com/conda-forge/tempest-extremes-feedstock" xlink:title="tempest extremes">
<ellipse fill="#35b779" stroke="black" cx="1600.48" cy="-962" rx="102.24" ry="18"/>
<text xml:space="preserve" text-anchor="middle" x="1600.48" y="-957.33" font-family="Times,serif" font-size="14.00">tempest extremes</text>
</a>
</g>
</g>
<!-- nccmp&#45;&gt;tempest&#45;extremes -->
<!-- pymol&#45;open&#45;source -->
<g id="node47" class="node">
<title>pymol&#45;open&#45;source</title>
<g id="a_node47"><a xlink:href="https://github.com/conda-forge/pymol-open-source-feedstock" xlink:title="pymol open source">
<ellipse fill="#35b779" stroke="black" cx="1600.48" cy="-890" rx="105.4" ry="18"/>
<text xml:space="preserve" text-anchor="middle" x="1600.48" y="-885.33" font-family="Times,serif" font-size="14.00">pymol open source</text>
</a>
</g>
</g>
<!-- tempest&#45;extremes&#45;&gt;pymol&#45;open&#45;source -->
<!-- raven&#45;hydro -->
<g id="node48" class="node">
<title>raven&#45;hydro</title>
<g id="a_node48"><a xlink:href="https://github.com/conda-forge/raven-hydro-feedstock" xlink:title="raven hydro">
<ellipse fill="#35b779" stroke="black" cx="1600.48" cy="-818" rx="71.73" ry="18"/>
<text xml:space="preserve" text-anchor="middle" x="1600.48" y="-813.33" font-family="Times,serif" font-size="14.00">raven hydro</text>
</a>
</g>
</g>
<!-- pymol&#45;open&#45;source&#45;&gt;raven&#45;hydro -->
<!-- ccr -->
<g id="node49" class="node">
<title>ccr</title>
<g id="a_node49"><a xlink:href="https://github.com/conda-forge/ccr-feedstock" xlink:title="ccr">
<ellipse fill="#35b779" stroke="black" cx="1600.48" cy="-746" rx="27" ry="18"/>
<text xml:space="preserve" text-anchor="middle" x="1600.48" y="-741.33" font-family="Times,serif" font-size="14.00">ccr</text>
</a>
</g>
</g>
<!-- raven&#45;hydro&#45;&gt;ccr -->
<!-- loos -->
<g id="node50" class="node">
<title>loos</title>
<g id="a_node50"><a xlink:href="https://github.com/conda-forge/loos-feedstock" xlink:title="loos">
<ellipse fill="#35b779" stroke="black" cx="1600.48" cy="-674" rx="31.22" ry="18"/>
<text xml:space="preserve" text-anchor="middle" x="1600.48" y="-669.33" font-family="Times,serif" font-size="14.00">loos</text>
</a>
</g>
</g>
<!-- ccr&#45;&gt;loos -->
<!-- ncvis&#45;climate -->
<g id="node51" class="node">
<title>ncvis&#45;climate</title>
<g id="a_node51"><a xlink:href="https://github.com/conda-forge/ncvis-climate-feedstock" xlink:title="ncvis climate">
<ellipse fill="#35b779" stroke="black" cx="1600.48" cy="-602" rx="76.99" ry="18"/>
<text xml:space="preserve" text-anchor="middle" x="1600.48" y="-597.33" font-family="Times,serif" font-size="14.00">ncvis climate</text>
</a>
</g>
</g>
<!-- loos&#45;&gt;ncvis&#45;climate -->
<!-- qdoas -->
<g id="node52" class="node">
<title>qdoas</title>
<g id="a_node52"><a xlink:href="https://github.com/conda-forge/qdoas-feedstock" xlink:title="qdoas">
<ellipse fill="#35b779" stroke="black" cx="1600.48" cy="-530" rx="40.69" ry="18"/>
<text xml:space="preserve" text-anchor="middle" x="1600.48" y="-525.33" font-family="Times,serif" font-size="14.00">qdoas</text>
</a>
</g>
</g>
<!-- ncvis&#45;climate&#45;&gt;qdoas -->
<!-- squadgen -->
<g id="node53" class="node">
<title>squadgen</title>
<g id="a_node53"><a xlink:href="https://github.com/conda-forge/squadgen-feedstock" xlink:title="squadgen">
<ellipse fill="#35b779" stroke="black" cx="1600.48" cy="-458" rx="59.63" ry="18"/>
<text xml:space="preserve" text-anchor="middle" x="1600.48" y="-453.32" font-family="Times,serif" font-size="14.00">squadgen</text>
</a>
</g>
</g>
<!-- qdoas&#45;&gt;squadgen -->
<!-- octave&#45;netcdf -->
<g id="node54" class="node">
<title>octave&#45;netcdf</title>
<g id="a_node54"><a xlink:href="https://github.com/conda-forge/octave-netcdf-feedstock" xlink:title="octave netcdf">
<ellipse fill="#35b779" stroke="black" cx="1600.48" cy="-386" rx="78.57" ry="18"/>
<text xml:space="preserve" text-anchor="middle" x="1600.48" y="-381.32" font-family="Times,serif" font-size="14.00">octave netcdf</text>
</a>
</g>
</g>
<!-- squadgen&#45;&gt;octave&#45;netcdf -->
</g>
</svg>
