<?xml version="1.0" encoding="UTF-8" standalone="no"?>
<!DOCTYPE svg PUBLIC "-//W3C//DTD SVG 1.1//EN"
 "http://www.w3.org/Graphics/SVG/1.1/DTD/svg11.dtd">
<!-- Generated by graphviz version 13.1.2 (20250809.0930)
 -->
<!-- Pages: 1 -->
<svg width="1120pt" height="996pt"
 viewBox="0.00 0.00 1120.00 996.00" xmlns="http://www.w3.org/2000/svg" xmlns:xlink="http://www.w3.org/1999/xlink">
<g id="graph0" class="graph" transform="scale(1 1) rotate(0) translate(4 992)">
<polygon fill="white" stroke="none" points="-4,4 -4,-992 1116.03,-992 1116.03,4 -4,4"/>
<!-- cdms2 -->
<g id="node1" class="node">
<title>cdms2</title>
<g id="a_node1"><a xlink:href="https://github.com/conda-forge/cdms2-feedstock" xlink:title="cdms2">
<ellipse fill="#fde725" stroke="black" cx="133.05" cy="-646" rx="43.84" ry="18"/>
<text xml:space="preserve" text-anchor="middle" x="133.05" y="-641.33" font-family="Times,serif" font-size="14.00">cdms2</text>
</a>
</g>
</g>
<!-- cdo -->
<g id="node2" class="node">
<title>cdo</title>
<g id="a_node2"><a xlink:href="https://github.com/conda-forge/cdo-feedstock" xlink:title="cdo">
<ellipse fill="#fde725" stroke="black" cx="336.05" cy="-18" rx="28.59" ry="18"/>
<text xml:space="preserve" text-anchor="middle" x="336.05" y="-13.32" font-family="Times,serif" font-size="14.00">cdo</text>
</a>
</g>
</g>
<!-- cdtime -->
<g id="node3" class="node">
<title>cdtime</title>
<g id="a_node3"><a xlink:href="https://github.com/conda-forge/cdtime-feedstock" xlink:title="cdtime">
<ellipse fill="#fde725" stroke="black" cx="197.05" cy="-718" rx="45.42" ry="18"/>
<text xml:space="preserve" text-anchor="middle" x="197.05" y="-713.33" font-family="Times,serif" font-size="14.00">cdtime</text>
</a>
</g>
</g>
<!-- cdtime&#45;&gt;cdms2 -->
<g id="edge1" class="edge">
<title>cdtime&#45;&gt;cdms2</title>
<path fill="none" stroke="black" d="M182.21,-700.76C174.29,-692.11 164.39,-681.27 155.55,-671.6"/>
<polygon fill="black" stroke="black" points="158.17,-669.28 148.84,-664.26 153,-674.01 158.17,-669.28"/>
</g>
<!-- esmf -->
<g id="node4" class="node">
<title>esmf</title>
<g id="a_node4"><a xlink:href="https://github.com/conda-forge/esmf-feedstock/pull/133" xlink:title="esmf ❎">
<ellipse fill="#31688e" stroke="black" cx="311.05" cy="-718" rx="50.68" ry="18"/>
<text xml:space="preserve" text-anchor="middle" x="311.05" y="-713.33" font-family="Times,serif" font-size="14.00" fill="white">esmf ❎</text>
</a>
</g>
</g>
<!-- esmf&#45;&gt;cdms2 -->
<g id="edge2" class="edge">
<title>esmf&#45;&gt;cdms2</title>
<path fill="none" stroke="black" d="M277.99,-704C248.76,-692.5 205.99,-675.69 174.49,-663.3"/>
<polygon fill="black" stroke="black" points="175.85,-660.07 165.26,-659.67 173.29,-666.58 175.85,-660.07"/>
</g>
<!-- ncl -->
<g id="node5" class="node">
<title>ncl</title>
<g id="a_node5"><a xlink:href="https://github.com/conda-forge/ncl-feedstock" xlink:title="ncl">
<ellipse fill="#fde725" stroke="black" cx="311.05" cy="-646" rx="27" ry="18"/>
<text xml:space="preserve" text-anchor="middle" x="311.05" y="-641.33" font-family="Times,serif" font-size="14.00">ncl</text>
</a>
</g>
</g>
<!-- esmf&#45;&gt;ncl -->
<g id="edge3" class="edge">
<title>esmf&#45;&gt;ncl</title>
<path fill="none" stroke="black" d="M311.05,-699.7C311.05,-692.41 311.05,-683.73 311.05,-675.54"/>
<polygon fill="black" stroke="black" points="314.55,-675.62 311.05,-665.62 307.55,-675.62 314.55,-675.62"/>
</g>
<!-- nco -->
<g id="node6" class="node">
<title>nco</title>
<g id="a_node6"><a xlink:href="https://github.com/conda-forge/nco-feedstock" xlink:title="nco">
<ellipse fill="#fde725" stroke="black" cx="234.05" cy="-646" rx="28.59" ry="18"/>
<text xml:space="preserve" text-anchor="middle" x="234.05" y="-641.33" font-family="Times,serif" font-size="14.00">nco</text>
</a>
</g>
</g>
<!-- esmf&#45;&gt;nco -->
<g id="edge4" class="edge">
<title>esmf&#45;&gt;nco</title>
<path fill="none" stroke="black" d="M293.19,-700.76C282.71,-691.24 269.34,-679.08 257.96,-668.73"/>
<polygon fill="black" stroke="black" points="260.6,-666.4 250.85,-662.27 255.89,-671.58 260.6,-666.4"/>
</g>
<!-- mpas_tools -->
<g id="node7" class="node">
<title>mpas_tools</title>
<g id="a_node7"><a xlink:href="https://github.com/conda-forge/mpas_tools-feedstock" xlink:title="mpas_tools">
<ellipse fill="#fde725" stroke="black" cx="232.05" cy="-574" rx="66.99" ry="18"/>
<text xml:space="preserve" text-anchor="middle" x="232.05" y="-569.33" font-family="Times,serif" font-size="14.00">mpas_tools</text>
</a>
</g>
</g>
<!-- nco&#45;&gt;mpas_tools -->
<g id="edge5" class="edge">
<title>nco&#45;&gt;mpas_tools</title>
<path fill="none" stroke="black" d="M233.56,-627.7C233.35,-620.41 233.1,-611.73 232.87,-603.54"/>
<polygon fill="black" stroke="black" points="236.37,-603.51 232.58,-593.62 229.37,-603.71 236.37,-603.51"/>
</g>
<!-- gdal -->
<g id="node8" class="node">
<title>gdal</title>
<g id="a_node8"><a xlink:href="https://github.com/conda-forge/gdal-feedstock/pull/1117" xlink:title="gdal ❎">
<ellipse fill="#31688e" stroke="black" cx="446.05" cy="-718" rx="48.05" ry="18"/>
<text xml:space="preserve" text-anchor="middle" x="446.05" y="-713.33" font-family="Times,serif" font-size="14.00" fill="white">gdal ❎</text>
</a>
</g>
</g>
<!-- gdal&#45;&gt;ncl -->
<g id="edge6" class="edge">
<title>gdal&#45;&gt;ncl</title>
<path fill="none" stroke="black" d="M418.73,-702.83C396.42,-691.26 364.89,-674.92 341.71,-662.9"/>
<polygon fill="black" stroke="black" points="343.55,-659.91 333.06,-658.41 340.33,-666.12 343.55,-659.91"/>
</g>
<!-- gmt -->
<g id="node9" class="node">
<title>gmt</title>
<g id="a_node9"><a xlink:href="https://github.com/conda-forge/gmt-feedstock" xlink:title="gmt">
<ellipse fill="#fde725" stroke="black" cx="387.05" cy="-646" rx="31.22" ry="18"/>
<text xml:space="preserve" text-anchor="middle" x="387.05" y="-641.33" font-family="Times,serif" font-size="14.00">gmt</text>
</a>
</g>
</g>
<!-- gdal&#45;&gt;gmt -->
<g id="edge7" class="edge">
<title>gdal&#45;&gt;gmt</title>
<path fill="none" stroke="black" d="M432.07,-700.41C424.74,-691.71 415.61,-680.89 407.5,-671.26"/>
<polygon fill="black" stroke="black" points="410.22,-669.06 401.1,-663.67 404.87,-673.57 410.22,-669.06"/>
</g>
<!-- r&#45;gdalcubes -->
<g id="node10" class="node">
<title>r&#45;gdalcubes</title>
<g id="a_node10"><a xlink:href="https://github.com/conda-forge/r-gdalcubes-feedstock" xlink:title="r gdalcubes">
<ellipse fill="#fde725" stroke="black" cx="387.05" cy="-574" rx="69.62" ry="18"/>
<text xml:space="preserve" text-anchor="middle" x="387.05" y="-569.33" font-family="Times,serif" font-size="14.00">r gdalcubes</text>
</a>
</g>
</g>
<!-- gdal&#45;&gt;r&#45;gdalcubes -->
<g id="edge8" class="edge">
<title>gdal&#45;&gt;r&#45;gdalcubes</title>
<path fill="none" stroke="black" d="M444.59,-699.57C442.53,-681.1 437.75,-651.43 427.05,-628 422.67,-618.4 416.3,-608.89 409.94,-600.63"/>
<polygon fill="black" stroke="black" points="412.83,-598.63 403.81,-593.07 407.39,-603.05 412.83,-598.63"/>
</g>
<!-- pygnome -->
<g id="node11" class="node">
<title>pygnome</title>
<g id="a_node11"><a xlink:href="https://github.com/conda-forge/pygnome-feedstock" xlink:title="pygnome">
<ellipse fill="#fde725" stroke="black" cx="461.05" cy="-502" rx="57" ry="18"/>
<text xml:space="preserve" text-anchor="middle" x="461.05" y="-497.32" font-family="Times,serif" font-size="14.00">pygnome</text>
</a>
</g>
</g>
<!-- gdal&#45;&gt;pygnome -->
<g id="edge9" class="edge">
<title>gdal&#45;&gt;pygnome</title>
<path fill="none" stroke="black" d="M449.71,-699.71C454.59,-675.69 462.97,-630.78 466.05,-592 467.32,-576.05 466.81,-571.98 466.05,-556 465.68,-548.03 464.99,-539.41 464.24,-531.48"/>
<polygon fill="black" stroke="black" points="467.73,-531.26 463.24,-521.66 460.77,-531.97 467.73,-531.26"/>
</g>
<!-- windninja -->
<g id="node12" class="node">
<title>windninja</title>
<g id="a_node12"><a xlink:href="https://github.com/conda-forge/windninja-feedstock" xlink:title="windninja">
<ellipse fill="#fde725" stroke="black" cx="546.05" cy="-430" rx="60.15" ry="18"/>
<text xml:space="preserve" text-anchor="middle" x="546.05" y="-425.32" font-family="Times,serif" font-size="14.00">windninja</text>
</a>
</g>
</g>
<!-- gdal&#45;&gt;windninja -->
<g id="edge10" class="edge">
<title>gdal&#45;&gt;windninja</title>
<path fill="none" stroke="black" d="M455.3,-700.05C460.76,-689.76 467.64,-676.29 473.05,-664 500.61,-601.45 507.86,-585.6 527.05,-520 532.89,-500.04 537.75,-477.08 541.09,-459.48"/>
<polygon fill="black" stroke="black" points="544.51,-460.21 542.88,-449.74 537.63,-458.94 544.51,-460.21"/>
</g>
<!-- libcdms -->
<g id="node13" class="node">
<title>libcdms</title>
<g id="a_node13"><a xlink:href="https://github.com/conda-forge/libcdms-feedstock/pull/59" xlink:title="libcdms ❎">
<ellipse fill="#31688e" stroke="black" cx="197.05" cy="-790" rx="65.41" ry="18"/>
<text xml:space="preserve" text-anchor="middle" x="197.05" y="-785.33" font-family="Times,serif" font-size="14.00" fill="white">libcdms ❎</text>
</a>
</g>
</g>
<!-- libcdms&#45;&gt;cdms2 -->
<g id="edge11" class="edge">
<title>libcdms&#45;&gt;cdms2</title>
<path fill="none" stroke="black" d="M174.2,-772.71C162.87,-763.33 150.13,-750.53 143.05,-736 133.94,-717.28 131.62,-693.8 131.48,-675.66"/>
<polygon fill="black" stroke="black" points="134.98,-675.91 131.65,-665.85 127.98,-675.79 134.98,-675.91"/>
</g>
<!-- libcdms&#45;&gt;cdtime -->
<g id="edge12" class="edge">
<title>libcdms&#45;&gt;cdtime</title>
<path fill="none" stroke="black" d="M197.05,-771.7C197.05,-764.41 197.05,-755.73 197.05,-747.54"/>
<polygon fill="black" stroke="black" points="200.55,-747.62 197.05,-737.62 193.55,-747.62 200.55,-747.62"/>
</g>
<!-- libdrs_f -->
<g id="node14" class="node">
<title>libdrs_f</title>
<g id="a_node14"><a xlink:href="https://github.com/conda-forge/libdrs_f-feedstock" xlink:title="libdrs_f">
<ellipse fill="#fde725" stroke="black" cx="623.05" cy="-646" rx="48.58" ry="18"/>
<text xml:space="preserve" text-anchor="middle" x="623.05" y="-641.33" font-family="Times,serif" font-size="14.00">libdrs_f</text>
</a>
</g>
</g>
<!-- libcdms&#45;&gt;libdrs_f -->
<g id="edge13" class="edge">
<title>libcdms&#45;&gt;libdrs_f</title>
<path fill="none" stroke="black" d="M261.62,-786.48C325.3,-782.03 424.26,-769.76 503.05,-736 539.68,-720.31 575.55,-691.4 598.39,-670.79"/>
<polygon fill="black" stroke="black" points="600.68,-673.45 605.66,-664.1 595.93,-668.3 600.68,-673.45"/>
</g>
<!-- libcf -->
<g id="node15" class="node">
<title>libcf</title>
<g id="a_node15"><a xlink:href="https://github.com/conda-forge/libcf-feedstock/pull/55" xlink:title="libcf ❎">
<ellipse fill="#31688e" stroke="black" cx="48.05" cy="-718" rx="48.05" ry="18"/>
<text xml:space="preserve" text-anchor="middle" x="48.05" y="-713.33" font-family="Times,serif" font-size="14.00" fill="white">libcf ❎</text>
</a>
</g>
</g>
<!-- libcf&#45;&gt;cdms2 -->
<g id="edge14" class="edge">
<title>libcf&#45;&gt;cdms2</title>
<path fill="none" stroke="black" d="M67.34,-701.12C78.61,-691.83 93.03,-679.96 105.48,-669.7"/>
<polygon fill="black" stroke="black" points="107.47,-672.6 112.97,-663.54 103.02,-667.2 107.47,-672.6"/>
</g>
<!-- magics -->
<g id="node16" class="node">
<title>magics</title>
<g id="a_node16"><a xlink:href="https://github.com/conda-forge/magics-feedstock" xlink:title="magics">
<ellipse fill="#ff8c00" stroke="black" cx="336.05" cy="-90" rx="46.47" ry="18"/>
<text xml:space="preserve" text-anchor="middle" x="336.05" y="-85.33" font-family="Times,serif" font-size="14.00">magics</text>
</a>
</g>
</g>
<!-- magics&#45;&gt;cdo -->
<g id="edge15" class="edge">
<title>magics&#45;&gt;cdo</title>
<path fill="none" stroke="black" d="M336.05,-71.7C336.05,-64.41 336.05,-55.73 336.05,-47.54"/>
<polygon fill="black" stroke="black" points="339.55,-47.62 336.05,-37.62 332.55,-47.62 339.55,-47.62"/>
</g>
<!-- paraview -->
<g id="node17" class="node">
<title>paraview</title>
<g id="a_node17"><a xlink:href="https://github.com/conda-forge/paraview-feedstock/pull/291" xlink:title="paraview ❎">
<ellipse fill="#31688e" stroke="black" cx="1005.05" cy="-206" rx="72.25" ry="18"/>
<text xml:space="preserve" text-anchor="middle" x="1005.05" y="-201.33" font-family="Times,serif" font-size="14.00" fill="white">paraview ❎</text>
</a>
</g>
</g>
<!-- lfric_reader -->
<g id="node18" class="node">
<title>lfric_reader</title>
<g id="a_node18"><a xlink:href="https://github.com/conda-forge/lfric_reader-feedstock" xlink:title="lfric_reader">
<ellipse fill="#fde725" stroke="black" cx="1005.05" cy="-134" rx="69.1" ry="18"/>
<text xml:space="preserve" text-anchor="middle" x="1005.05" y="-129.32" font-family="Times,serif" font-size="14.00">lfric_reader</text>
</a>
</g>
</g>
<!-- paraview&#45;&gt;lfric_reader -->
<g id="edge16" class="edge">
<title>paraview&#45;&gt;lfric_reader</title>
<path fill="none" stroke="black" d="M1005.05,-187.7C1005.05,-180.41 1005.05,-171.73 1005.05,-163.54"/>
<polygon fill="black" stroke="black" points="1008.55,-163.62 1005.05,-153.62 1001.55,-163.62 1008.55,-163.62"/>
</g>
<!-- pyferret -->
<g id="node19" class="node">
<title>pyferret</title>
<g id="a_node19"><a xlink:href="https://github.com/conda-forge/pyferret-feedstock/pull/115" xlink:title="pyferret ❎">
<ellipse fill="#31688e" stroke="black" cx="785.05" cy="-970" rx="67.52" ry="18"/>
<text xml:space="preserve" text-anchor="middle" x="785.05" y="-965.33" font-family="Times,serif" font-size="14.00" fill="white">pyferret ❎</text>
</a>
</g>
</g>
<!-- vic -->
<g id="node20" class="node">
<title>vic</title>
<g id="a_node20"><a xlink:href="https://github.com/conda-forge/vic-feedstock/pull/24" xlink:title="vic ❎">
<ellipse fill="#31688e" stroke="black" cx="785.05" cy="-898" rx="40.69" ry="18"/>
<text xml:space="preserve" text-anchor="middle" x="785.05" y="-893.33" font-family="Times,serif" font-size="14.00" fill="white">vic ❎</text>
</a>
</g>
</g>
<!-- pyferret&#45;&gt;vic -->
<!-- vtk -->
<g id="node21" class="node">
<title>vtk</title>
<g id="a_node21"><a xlink:href="https://github.com/conda-forge/vtk-feedstock/pull/395" xlink:title="vtk ❎">
<ellipse fill="#31688e" stroke="black" cx="785.05" cy="-826" rx="42.26" ry="18"/>
<text xml:space="preserve" text-anchor="middle" x="785.05" y="-821.33" font-family="Times,serif" font-size="14.00" fill="white">vtk ❎</text>
</a>
</g>
</g>
<!-- vic&#45;&gt;vtk -->
<!-- vmd&#45;python -->
<g id="node22" class="node">
<title>vmd&#45;python</title>
<g id="a_node22"><a xlink:href="https://github.com/conda-forge/vmd-python-feedstock/pull/47" xlink:title="vmd python ❎">
<ellipse fill="#31688e" stroke="black" cx="785.05" cy="-754" rx="85.93" ry="18"/>
<text xml:space="preserve" text-anchor="middle" x="785.05" y="-749.33" font-family="Times,serif" font-size="14.00" fill="white">vmd python ❎</text>
</a>
</g>
</g>
<!-- vtk&#45;&gt;vmd&#45;python -->
<!-- lammps -->
<g id="node23" class="node">
<title>lammps</title>
<g id="a_node23"><a xlink:href="https://github.com/conda-forge/lammps-feedstock/pull/232" xlink:title="lammps ❎">
<ellipse fill="#31688e" stroke="black" cx="785.05" cy="-682" rx="65.94" ry="18"/>
<text xml:space="preserve" text-anchor="middle" x="785.05" y="-677.33" font-family="Times,serif" font-size="14.00" fill="white">lammps ❎</text>
</a>
</g>
</g>
<!-- vmd&#45;python&#45;&gt;lammps -->
<!-- ambertools -->
<g id="node24" class="node">
<title>ambertools</title>
<g id="a_node24"><a xlink:href="https://github.com/conda-forge/ambertools-feedstock/pull/179" xlink:title="ambertools ❎">
<ellipse fill="#31688e" stroke="black" cx="785.05" cy="-610" rx="82.77" ry="18"/>
<text xml:space="preserve" text-anchor="middle" x="785.05" y="-605.33" font-family="Times,serif" font-size="14.00" fill="white">ambertools ❎</text>
</a>
</g>
</g>
<!-- lammps&#45;&gt;ambertools -->
<!-- fpocket -->
<g id="node26" class="node">
<title>fpocket</title>
<g id="a_node26"><a xlink:href="https://github.com/conda-forge/fpocket-feedstock/pull/36" xlink:title="fpocket ❎">
<ellipse fill="#31688e" stroke="black" cx="785.05" cy="-538" rx="63.31" ry="18"/>
<text xml:space="preserve" text-anchor="middle" x="785.05" y="-533.33" font-family="Times,serif" font-size="14.00" fill="white">fpocket ❎</text>
</a>
</g>
</g>
<!-- ambertools&#45;&gt;fpocket -->
<!-- metview -->
<g id="node25" class="node">
<title>metview</title>
<g id="a_node25"><a xlink:href="https://github.com/conda-forge/metview-feedstock" xlink:title="metview">
<ellipse fill="#fde725" stroke="black" cx="785.05" cy="-134" rx="53.84" ry="18"/>
<text xml:space="preserve" text-anchor="middle" x="785.05" y="-129.32" font-family="Times,serif" font-size="14.00">metview</text>
</a>
</g>
</g>
<!-- sphinxdft -->
<g id="node27" class="node">
<title>sphinxdft</title>
<g id="a_node27"><a xlink:href="https://github.com/conda-forge/sphinxdft-feedstock/pull/49" xlink:title="sphinxdft ❎">
<ellipse fill="#31688e" stroke="black" cx="785.05" cy="-466" rx="73.83" ry="18"/>
<text xml:space="preserve" text-anchor="middle" x="785.05" y="-461.32" font-family="Times,serif" font-size="14.00" fill="white">sphinxdft ❎</text>
</a>
</g>
</g>
<!-- fpocket&#45;&gt;sphinxdft -->
<!-- nccmp -->
<g id="node28" class="node">
<title>nccmp</title>
<g id="a_node28"><a xlink:href="https://github.com/conda-forge/nccmp-feedstock/pull/25" xlink:title="nccmp ✓">
<ellipse fill="#31688e" stroke="black" cx="785.05" cy="-394" rx="51.74" ry="18"/>
<text xml:space="preserve" text-anchor="middle" x="785.05" y="-389.32" font-family="Times,serif" font-size="14.00" fill="white">nccmp ✓</text>
</a>
</g>
</g>
<!-- sphinxdft&#45;&gt;nccmp -->
<!-- abinit -->
<g id="node32" class="node">
<title>abinit</title>
<g id="a_node32"><a xlink:href="https://github.com/conda-forge/abinit-feedstock" xlink:title="abinit">
<ellipse fill="#ff8c00" stroke="black" cx="785.05" cy="-322" rx="40.16" ry="18"/>
<text xml:space="preserve" text-anchor="middle" x="785.05" y="-317.32" font-family="Times,serif" font-size="14.00">abinit</text>
</a>
</g>
</g>
<!-- nccmp&#45;&gt;abinit -->
<!-- magics&#45;metview -->
<g id="node29" class="node">
<title>magics&#45;metview</title>
<g id="a_node29"><a xlink:href="https://github.com/conda-forge/magics-metview-feedstock" xlink:title="magics metview">
<ellipse fill="#ff8c00" stroke="black" cx="785.05" cy="-206" rx="92.25" ry="18"/>
<text xml:space="preserve" text-anchor="middle" x="785.05" y="-201.33" font-family="Times,serif" font-size="14.00">magics metview</text>
</a>
</g>
</g>
<!-- magics&#45;metview&#45;&gt;metview -->
<g id="edge25" class="edge">
<title>magics&#45;metview&#45;&gt;metview</title>
<path fill="none" stroke="black" d="M785.05,-187.7C785.05,-180.41 785.05,-171.73 785.05,-163.54"/>
<polygon fill="black" stroke="black" points="788.55,-163.62 785.05,-153.62 781.55,-163.62 788.55,-163.62"/>
</g>
<!-- magics&#45;metview&#45;batch -->
<g id="node30" class="node">
<title>magics&#45;metview&#45;batch</title>
<g id="a_node30"><a xlink:href="https://github.com/conda-forge/magics-metview-batch-feedstock" xlink:title="magics metview batch">
<ellipse fill="#ff8c00" stroke="black" cx="336.05" cy="-206" rx="123.29" ry="18"/>
<text xml:space="preserve" text-anchor="middle" x="336.05" y="-201.33" font-family="Times,serif" font-size="14.00">magics metview batch</text>
</a>
</g>
</g>
<!-- metview&#45;batch -->
<g id="node31" class="node">
<title>metview&#45;batch</title>
<g id="a_node31"><a xlink:href="https://github.com/conda-forge/metview-batch-feedstock" xlink:title="metview batch">
<ellipse fill="#fde725" stroke="black" cx="336.05" cy="-134" rx="84.88" ry="18"/>
<text xml:space="preserve" text-anchor="middle" x="336.05" y="-129.32" font-family="Times,serif" font-size="14.00">metview batch</text>
</a>
</g>
</g>
<!-- magics&#45;metview&#45;batch&#45;&gt;metview&#45;batch -->
<g id="edge26" class="edge">
<title>magics&#45;metview&#45;batch&#45;&gt;metview&#45;batch</title>
<path fill="none" stroke="black" d="M336.05,-187.7C336.05,-180.41 336.05,-171.73 336.05,-163.54"/>
<polygon fill="black" stroke="black" points="339.55,-163.62 336.05,-153.62 332.55,-163.62 339.55,-163.62"/>
</g>
<!-- pymol&#45;open&#45;source -->
<g id="node33" class="node">
<title>pymol&#45;open&#45;source</title>
<g id="a_node33"><a xlink:href="https://github.com/conda-forge/pymol-open-source-feedstock" xlink:title="pymol open source">
<ellipse fill="#ff8c00" stroke="black" cx="785.05" cy="-250" rx="105.4" ry="18"/>
<text xml:space="preserve" text-anchor="middle" x="785.05" y="-245.32" font-family="Times,serif" font-size="14.00">pymol open source</text>
</a>
</g>
</g>
<!-- abinit&#45;&gt;pymol&#45;open&#45;source -->
<!-- fimex -->
<g id="node34" class="node">
<title>fimex</title>
<g id="a_node34"><a xlink:href="https://github.com/conda-forge/fimex-feedstock" xlink:title="fimex">
<ellipse fill="#ff8c00" stroke="black" cx="1005.05" cy="-790" rx="38.58" ry="18"/>
<text xml:space="preserve" text-anchor="middle" x="1005.05" y="-785.33" font-family="Times,serif" font-size="14.00">fimex</text>
</a>
</g>
</g>
<!-- yambo -->
<g id="node35" class="node">
<title>yambo</title>
<g id="a_node35"><a xlink:href="https://github.com/conda-forge/yambo-feedstock/pull/48" xlink:title="yambo ❎">
<ellipse fill="#31688e" stroke="black" cx="1005.05" cy="-718" rx="59.63" ry="18"/>
<text xml:space="preserve" text-anchor="middle" x="1005.05" y="-713.33" font-family="Times,serif" font-size="14.00" fill="white">yambo ❎</text>
</a>
</g>
</g>
<!-- fimex&#45;&gt;yambo -->
<!-- ccr -->
<g id="node36" class="node">
<title>ccr</title>
<g id="a_node36"><a xlink:href="https://github.com/conda-forge/ccr-feedstock/pull/12" xlink:title="ccr ❎">
<ellipse fill="#31688e" stroke="black" cx="1005.05" cy="-646" rx="41.74" ry="18"/>
<text xml:space="preserve" text-anchor="middle" x="1005.05" y="-641.33" font-family="Times,serif" font-size="14.00" fill="white">ccr ❎</text>
</a>
</g>
</g>
<!-- yambo&#45;&gt;ccr -->
<!-- loos -->
<g id="node37" class="node">
<title>loos</title>
<g id="a_node37"><a xlink:href="https://github.com/conda-forge/loos-feedstock" xlink:title="loos">
<ellipse fill="#000000" stroke="black" cx="1005.05" cy="-574" rx="31.22" ry="18"/>
<text xml:space="preserve" text-anchor="middle" x="1005.05" y="-569.33" font-family="Times,serif" font-size="14.00" fill="white">loos</text>
</a>
</g>
</g>
<!-- ccr&#45;&gt;loos -->
<!-- rubin&#45;libradtran -->
<g id="node38" class="node">
<title>rubin&#45;libradtran</title>
<g id="a_node38"><a xlink:href="https://github.com/conda-forge/rubin-libradtran-feedstock/pull/12" xlink:title="rubin libradtran ❎">
<ellipse fill="#31688e" stroke="black" cx="1005.05" cy="-502" rx="106.98" ry="18"/>
<text xml:space="preserve" text-anchor="middle" x="1005.05" y="-497.32" font-family="Times,serif" font-size="14.00" fill="white">rubin libradtran ❎</text>
</a>
</g>
</g>
<!-- loos&#45;&gt;rubin&#45;libradtran -->
<!-- qdoas -->
<g id="node39" class="node">
<title>qdoas</title>
<g id="a_node39"><a xlink:href="https://github.com/conda-forge/qdoas-feedstock/pull/28" xlink:title="qdoas ✓">
<ellipse fill="#31688e" stroke="black" cx="1005.05" cy="-430" rx="48.58" ry="18"/>
<text xml:space="preserve" text-anchor="middle" x="1005.05" y="-425.32" font-family="Times,serif" font-size="14.00" fill="white">qdoas ✓</text>
</a>
</g>
</g>
<!-- rubin&#45;libradtran&#45;&gt;qdoas -->
</g>
</svg>
