<?xml version="1.0" encoding="UTF-8" standalone="no"?>
<!DOCTYPE svg PUBLIC "-//W3C//DTD SVG 1.1//EN"
 "http://www.w3.org/Graphics/SVG/1.1/DTD/svg11.dtd">
<!-- Generated by graphviz version 13.1.2 (20250809.0930)
 -->
<!-- Pages: 1 -->
<svg width="1444pt" height="1168pt"
 viewBox="0.00 0.00 1444.00 1168.00" xmlns="http://www.w3.org/2000/svg" xmlns:xlink="http://www.w3.org/1999/xlink">
<g id="graph0" class="graph" transform="scale(1 1) rotate(0) translate(4 1164)">
<polygon fill="white" stroke="none" points="-4,4 -4,-1164 1440.12,-1164 1440.12,4 -4,4"/>
<!-- cdms2 -->
<g id="node1" class="node">
<title>cdms2</title>
<g id="a_node1"><a xlink:href="https://github.com/conda-forge/cdms2-feedstock" xlink:title="cdms2">
<ellipse fill="#fde725" stroke="black" cx="378.77" cy="-782" rx="43.84" ry="18"/>
<text xml:space="preserve" text-anchor="middle" x="378.77" y="-777.33" font-family="Times,serif" font-size="14.00">cdms2</text>
</a>
</g>
</g>
<!-- cdo -->
<g id="node2" class="node">
<title>cdo</title>
<g id="a_node2"><a xlink:href="https://github.com/conda-forge/cdo-feedstock" xlink:title="cdo">
<ellipse fill="#fde725" stroke="black" cx="269.77" cy="-198" rx="28.59" ry="18"/>
<text xml:space="preserve" text-anchor="middle" x="269.77" y="-193.32" font-family="Times,serif" font-size="14.00">cdo</text>
</a>
</g>
</g>
<!-- cdtime -->
<g id="node3" class="node">
<title>cdtime</title>
<g id="a_node3"><a xlink:href="https://github.com/conda-forge/cdtime-feedstock" xlink:title="cdtime">
<ellipse fill="#fde725" stroke="black" cx="508.77" cy="-854" rx="45.42" ry="18"/>
<text xml:space="preserve" text-anchor="middle" x="508.77" y="-849.33" font-family="Times,serif" font-size="14.00">cdtime</text>
</a>
</g>
</g>
<!-- cdtime&#45;&gt;cdms2 -->
<g id="edge1" class="edge">
<title>cdtime&#45;&gt;cdms2</title>
<path fill="none" stroke="black" d="M482.77,-839C463.29,-828.51 436.38,-814.02 414.82,-802.41"/>
<polygon fill="black" stroke="black" points="416.51,-799.35 406.05,-797.69 413.19,-805.51 416.51,-799.35"/>
</g>
<!-- eccodes -->
<g id="node4" class="node">
<title>eccodes</title>
<g id="a_node4"><a xlink:href="https://github.com/conda-forge/eccodes-feedstock/pull/187" xlink:title="eccodes ❎">
<ellipse fill="#31688e" stroke="black" cx="500.77" cy="-342" rx="65.94" ry="18"/>
<text xml:space="preserve" text-anchor="middle" x="500.77" y="-337.32" font-family="Times,serif" font-size="14.00" fill="white">eccodes ❎</text>
</a>
</g>
</g>
<!-- eccodes&#45;&gt;cdo -->
<g id="edge2" class="edge">
<title>eccodes&#45;&gt;cdo</title>
<path fill="none" stroke="black" d="M437.44,-336.41C371.52,-330.17 274.71,-316.34 251.77,-288 237.46,-270.32 244.99,-244.3 254.3,-224.96"/>
<polygon fill="black" stroke="black" points="257.28,-226.81 258.82,-216.33 251.08,-223.56 257.28,-226.81"/>
</g>
<!-- magics -->
<g id="node5" class="node">
<title>magics</title>
<g id="a_node5"><a xlink:href="https://github.com/conda-forge/magics-feedstock" xlink:title="magics">
<ellipse fill="#fde725" stroke="black" cx="306.77" cy="-270" rx="46.47" ry="18"/>
<text xml:space="preserve" text-anchor="middle" x="306.77" y="-265.32" font-family="Times,serif" font-size="14.00">magics</text>
</a>
</g>
</g>
<!-- eccodes&#45;&gt;magics -->
<g id="edge3" class="edge">
<title>eccodes&#45;&gt;magics</title>
<path fill="none" stroke="black" d="M461.97,-327C429.75,-315.37 383.92,-298.84 350.41,-286.75"/>
<polygon fill="black" stroke="black" points="352.02,-283.61 341.42,-283.51 349.64,-290.19 352.02,-283.61"/>
</g>
<!-- metview -->
<g id="node6" class="node">
<title>metview</title>
<g id="a_node6"><a xlink:href="https://github.com/conda-forge/metview-feedstock" xlink:title="metview">
<ellipse fill="#fde725" stroke="black" cx="380.77" cy="-126" rx="53.84" ry="18"/>
<text xml:space="preserve" text-anchor="middle" x="380.77" y="-121.33" font-family="Times,serif" font-size="14.00">metview</text>
</a>
</g>
</g>
<!-- eccodes&#45;&gt;metview -->
<g id="edge4" class="edge">
<title>eccodes&#45;&gt;metview</title>
<path fill="none" stroke="black" d="M482.75,-324.23C459.81,-301.82 420.66,-259.82 399.77,-216 390.66,-196.91 385.88,-173.44 383.4,-155.4"/>
<polygon fill="black" stroke="black" points="386.89,-155.17 382.22,-145.66 379.95,-156.01 386.89,-155.17"/>
</g>
<!-- magics&#45;metview -->
<g id="node7" class="node">
<title>magics&#45;metview</title>
<g id="a_node7"><a xlink:href="https://github.com/conda-forge/magics-metview-feedstock" xlink:title="magics metview">
<ellipse fill="#fde725" stroke="black" cx="500.77" cy="-198" rx="92.25" ry="18"/>
<text xml:space="preserve" text-anchor="middle" x="500.77" y="-193.32" font-family="Times,serif" font-size="14.00">magics metview</text>
</a>
</g>
</g>
<!-- eccodes&#45;&gt;magics&#45;metview -->
<g id="edge5" class="edge">
<title>eccodes&#45;&gt;magics&#45;metview</title>
<path fill="none" stroke="black" d="M500.77,-323.59C500.77,-299.61 500.77,-256.14 500.77,-227.42"/>
<polygon fill="black" stroke="black" points="504.27,-227.62 500.77,-217.62 497.27,-227.62 504.27,-227.62"/>
</g>
<!-- magics&#45;metview&#45;batch -->
<g id="node8" class="node">
<title>magics&#45;metview&#45;batch</title>
<g id="a_node8"><a xlink:href="https://github.com/conda-forge/magics-metview-batch-feedstock" xlink:title="magics metview batch">
<ellipse fill="#fde725" stroke="black" cx="575.77" cy="-126" rx="123.29" ry="18"/>
<text xml:space="preserve" text-anchor="middle" x="575.77" y="-121.33" font-family="Times,serif" font-size="14.00">magics metview batch</text>
</a>
</g>
</g>
<!-- eccodes&#45;&gt;magics&#45;metview&#45;batch -->
<g id="edge6" class="edge">
<title>eccodes&#45;&gt;magics&#45;metview&#45;batch</title>
<path fill="none" stroke="black" d="M520.66,-324.45C545.21,-302.59 585.68,-261.51 601.77,-216 609,-195.54 601.41,-171.96 592.6,-154.2"/>
<polygon fill="black" stroke="black" points="595.77,-152.71 587.94,-145.57 589.61,-156.04 595.77,-152.71"/>
</g>
<!-- metview&#45;batch -->
<g id="node9" class="node">
<title>metview&#45;batch</title>
<g id="a_node9"><a xlink:href="https://github.com/conda-forge/metview-batch-feedstock" xlink:title="metview batch">
<ellipse fill="#fde725" stroke="black" cx="599.77" cy="-54" rx="84.88" ry="18"/>
<text xml:space="preserve" text-anchor="middle" x="599.77" y="-49.33" font-family="Times,serif" font-size="14.00">metview batch</text>
</a>
</g>
</g>
<!-- eccodes&#45;&gt;metview&#45;batch -->
<g id="edge7" class="edge">
<title>eccodes&#45;&gt;metview&#45;batch</title>
<path fill="none" stroke="black" d="M529.6,-325.43C578.47,-297.08 675.4,-231.74 707.77,-144 713.31,-128.99 716.23,-121.58 707.77,-108 697.7,-91.85 681.12,-80.48 663.93,-72.54"/>
<polygon fill="black" stroke="black" points="665.76,-69.51 655.19,-68.83 663.03,-75.95 665.76,-69.51"/>
</g>
<!-- fimex -->
<g id="node10" class="node">
<title>fimex</title>
<g id="a_node10"><a xlink:href="https://github.com/conda-forge/fimex-feedstock" xlink:title="fimex">
<ellipse fill="#fde725" stroke="black" cx="764.77" cy="-54" rx="38.58" ry="18"/>
<text xml:space="preserve" text-anchor="middle" x="764.77" y="-49.33" font-family="Times,serif" font-size="14.00">fimex</text>
</a>
</g>
</g>
<!-- eccodes&#45;&gt;fimex -->
<g id="edge8" class="edge">
<title>eccodes&#45;&gt;fimex</title>
<path fill="none" stroke="black" d="M541.76,-327.57C566.21,-318.49 597.17,-305.05 621.77,-288 658.45,-262.57 666.55,-252.82 691.77,-216 711.66,-186.96 710.22,-176.05 724.77,-144 734.12,-123.4 744.59,-100.08 752.48,-82.48"/>
<polygon fill="black" stroke="black" points="755.63,-84.02 756.52,-73.46 749.24,-81.16 755.63,-84.02"/>
</g>
<!-- magics&#45;&gt;cdo -->
<g id="edge9" class="edge">
<title>magics&#45;&gt;cdo</title>
<path fill="none" stroke="black" d="M297.81,-252.05C293.57,-244.03 288.4,-234.26 283.67,-225.3"/>
<polygon fill="black" stroke="black" points="286.86,-223.85 279.09,-216.65 280.67,-227.12 286.86,-223.85"/>
</g>
<!-- magics&#45;metview&#45;&gt;metview -->
<g id="edge10" class="edge">
<title>magics&#45;metview&#45;&gt;metview</title>
<path fill="none" stroke="black" d="M472.33,-180.41C455.56,-170.63 434.21,-158.17 416.33,-147.75"/>
<polygon fill="black" stroke="black" points="418.26,-144.82 407.85,-142.8 414.73,-150.86 418.26,-144.82"/>
</g>
<!-- magics&#45;metview&#45;batch&#45;&gt;metview&#45;batch -->
<g id="edge11" class="edge">
<title>magics&#45;metview&#45;batch&#45;&gt;metview&#45;batch</title>
<path fill="none" stroke="black" d="M581.7,-107.7C584.26,-100.24 587.31,-91.32 590.18,-82.97"/>
<polygon fill="black" stroke="black" points="593.48,-84.13 593.41,-73.54 586.86,-81.86 593.48,-84.13"/>
</g>
<!-- esmf -->
<g id="node11" class="node">
<title>esmf</title>
<g id="a_node11"><a xlink:href="https://github.com/conda-forge/esmf-feedstock" xlink:title="esmf">
<ellipse fill="#fde725" stroke="black" cx="372.77" cy="-854" rx="35.42" ry="18"/>
<text xml:space="preserve" text-anchor="middle" x="372.77" y="-849.33" font-family="Times,serif" font-size="14.00">esmf</text>
</a>
</g>
</g>
<!-- esmf&#45;&gt;cdms2 -->
<g id="edge12" class="edge">
<title>esmf&#45;&gt;cdms2</title>
<path fill="none" stroke="black" d="M374.25,-835.7C374.87,-828.41 375.62,-819.73 376.32,-811.54"/>
<polygon fill="black" stroke="black" points="379.8,-811.87 377.17,-801.61 372.83,-811.28 379.8,-811.87"/>
</g>
<!-- ncl -->
<g id="node12" class="node">
<title>ncl</title>
<g id="a_node12"><a xlink:href="https://github.com/conda-forge/ncl-feedstock" xlink:title="ncl">
<ellipse fill="#fde725" stroke="black" cx="474.77" cy="-782" rx="27" ry="18"/>
<text xml:space="preserve" text-anchor="middle" x="474.77" y="-777.33" font-family="Times,serif" font-size="14.00">ncl</text>
</a>
</g>
</g>
<!-- esmf&#45;&gt;ncl -->
<g id="edge13" class="edge">
<title>esmf&#45;&gt;ncl</title>
<path fill="none" stroke="black" d="M392.92,-839.17C408.35,-828.58 429.82,-813.84 446.9,-802.12"/>
<polygon fill="black" stroke="black" points="448.86,-805.03 455.12,-796.48 444.9,-799.25 448.86,-805.03"/>
</g>
<!-- nco -->
<g id="node13" class="node">
<title>nco</title>
<g id="a_node13"><a xlink:href="https://github.com/conda-forge/nco-feedstock" xlink:title="nco">
<ellipse fill="#fde725" stroke="black" cx="241.77" cy="-782" rx="28.59" ry="18"/>
<text xml:space="preserve" text-anchor="middle" x="241.77" y="-777.33" font-family="Times,serif" font-size="14.00">nco</text>
</a>
</g>
</g>
<!-- esmf&#45;&gt;nco -->
<g id="edge14" class="edge">
<title>esmf&#45;&gt;nco</title>
<path fill="none" stroke="black" d="M349.04,-840.32C327.82,-828.98 296.54,-812.27 273.23,-799.81"/>
<polygon fill="black" stroke="black" points="274.95,-796.76 264.48,-795.14 271.65,-802.94 274.95,-796.76"/>
</g>
<!-- mpas_tools -->
<g id="node14" class="node">
<title>mpas_tools</title>
<g id="a_node14"><a xlink:href="https://github.com/conda-forge/mpas_tools-feedstock" xlink:title="mpas_tools">
<ellipse fill="#fde725" stroke="black" cx="241.77" cy="-710" rx="66.99" ry="18"/>
<text xml:space="preserve" text-anchor="middle" x="241.77" y="-705.33" font-family="Times,serif" font-size="14.00">mpas_tools</text>
</a>
</g>
</g>
<!-- nco&#45;&gt;mpas_tools -->
<g id="edge15" class="edge">
<title>nco&#45;&gt;mpas_tools</title>
<path fill="none" stroke="black" d="M241.77,-763.7C241.77,-756.41 241.77,-747.73 241.77,-739.54"/>
<polygon fill="black" stroke="black" points="245.27,-739.62 241.77,-729.62 238.27,-739.62 245.27,-739.62"/>
</g>
<!-- gdal -->
<g id="node15" class="node">
<title>gdal</title>
<g id="a_node15"><a xlink:href="https://github.com/conda-forge/gdal-feedstock" xlink:title="gdal">
<ellipse fill="#000000" stroke="black" cx="836.77" cy="-854" rx="32.79" ry="18"/>
<text xml:space="preserve" text-anchor="middle" x="836.77" y="-849.33" font-family="Times,serif" font-size="14.00" fill="white">gdal</text>
</a>
</g>
</g>
<!-- gdal&#45;&gt;ncl -->
<g id="edge16" class="edge">
<title>gdal&#45;&gt;ncl</title>
<path fill="none" stroke="black" d="M810.65,-842.66C803.63,-840.18 795.98,-837.75 788.77,-836 673.25,-808.01 639.37,-827.62 523.77,-800 518.7,-798.79 513.43,-797.26 508.29,-795.62"/>
<polygon fill="black" stroke="black" points="509.45,-792.31 498.85,-792.4 507.19,-798.94 509.45,-792.31"/>
</g>
<!-- gmt -->
<g id="node16" class="node">
<title>gmt</title>
<g id="a_node16"><a xlink:href="https://github.com/conda-forge/gmt-feedstock" xlink:title="gmt">
<ellipse fill="#fde725" stroke="black" cx="836.77" cy="-782" rx="31.22" ry="18"/>
<text xml:space="preserve" text-anchor="middle" x="836.77" y="-777.33" font-family="Times,serif" font-size="14.00">gmt</text>
</a>
</g>
</g>
<!-- gdal&#45;&gt;gmt -->
<g id="edge17" class="edge">
<title>gdal&#45;&gt;gmt</title>
<path fill="none" stroke="black" d="M836.77,-835.7C836.77,-828.41 836.77,-819.73 836.77,-811.54"/>
<polygon fill="black" stroke="black" points="840.27,-811.62 836.77,-801.62 833.27,-811.62 840.27,-811.62"/>
</g>
<!-- r&#45;gdalcubes -->
<g id="node17" class="node">
<title>r&#45;gdalcubes</title>
<g id="a_node17"><a xlink:href="https://github.com/conda-forge/r-gdalcubes-feedstock" xlink:title="r gdalcubes">
<ellipse fill="#fde725" stroke="black" cx="717.77" cy="-782" rx="69.62" ry="18"/>
<text xml:space="preserve" text-anchor="middle" x="717.77" y="-777.33" font-family="Times,serif" font-size="14.00">r gdalcubes</text>
</a>
</g>
</g>
<!-- gdal&#45;&gt;r&#45;gdalcubes -->
<g id="edge18" class="edge">
<title>gdal&#45;&gt;r&#45;gdalcubes</title>
<path fill="none" stroke="black" d="M814.94,-840.16C798.14,-830.28 774.54,-816.39 754.8,-804.78"/>
<polygon fill="black" stroke="black" points="756.58,-801.77 746.19,-799.72 753.04,-807.81 756.58,-801.77"/>
</g>
<!-- pygnome -->
<g id="node18" class="node">
<title>pygnome</title>
<g id="a_node18"><a xlink:href="https://github.com/conda-forge/pygnome-feedstock" xlink:title="pygnome">
<ellipse fill="#fde725" stroke="black" cx="895.77" cy="-710" rx="57" ry="18"/>
<text xml:space="preserve" text-anchor="middle" x="895.77" y="-705.33" font-family="Times,serif" font-size="14.00">pygnome</text>
</a>
</g>
</g>
<!-- gdal&#45;&gt;pygnome -->
<g id="edge19" class="edge">
<title>gdal&#45;&gt;pygnome</title>
<path fill="none" stroke="black" d="M851.38,-837.48C860.01,-827.5 870.45,-813.84 876.77,-800 885.5,-780.88 890.29,-757.58 892.87,-739.63"/>
<polygon fill="black" stroke="black" points="896.32,-740.29 894.11,-729.93 889.37,-739.41 896.32,-740.29"/>
</g>
<!-- windninja -->
<g id="node19" class="node">
<title>windninja</title>
<g id="a_node19"><a xlink:href="https://github.com/conda-forge/windninja-feedstock" xlink:title="windninja">
<ellipse fill="#fde725" stroke="black" cx="980.77" cy="-638" rx="60.15" ry="18"/>
<text xml:space="preserve" text-anchor="middle" x="980.77" y="-633.33" font-family="Times,serif" font-size="14.00">windninja</text>
</a>
</g>
</g>
<!-- gdal&#45;&gt;windninja -->
<g id="edge20" class="edge">
<title>gdal&#45;&gt;windninja</title>
<path fill="none" stroke="black" d="M856.63,-839.5C885.05,-819.01 936.63,-777.19 961.77,-728 971.39,-709.16 976.15,-685.68 978.49,-667.57"/>
<polygon fill="black" stroke="black" points="981.95,-668.11 979.57,-657.79 975,-667.34 981.95,-668.11"/>
</g>
<!-- libcdms -->
<g id="node20" class="node">
<title>libcdms</title>
<g id="a_node20"><a xlink:href="https://github.com/conda-forge/libcdms-feedstock/pull/59" xlink:title="libcdms ❎">
<ellipse fill="#31688e" stroke="black" cx="510.77" cy="-926" rx="65.41" ry="18"/>
<text xml:space="preserve" text-anchor="middle" x="510.77" y="-921.33" font-family="Times,serif" font-size="14.00" fill="white">libcdms ❎</text>
</a>
</g>
</g>
<!-- libcdms&#45;&gt;cdms2 -->
<g id="edge21" class="edge">
<title>libcdms&#45;&gt;cdms2</title>
<path fill="none" stroke="black" d="M492.13,-908.29C481.01,-898.09 466.75,-884.62 454.77,-872 435.1,-851.3 414.13,-826.52 399.21,-808.36"/>
<polygon fill="black" stroke="black" points="401.99,-806.23 392.95,-800.7 396.57,-810.66 401.99,-806.23"/>
</g>
<!-- libcdms&#45;&gt;cdtime -->
<g id="edge22" class="edge">
<title>libcdms&#45;&gt;cdtime</title>
<path fill="none" stroke="black" d="M510.27,-907.7C510.06,-900.41 509.82,-891.73 509.58,-883.54"/>
<polygon fill="black" stroke="black" points="513.08,-883.51 509.3,-873.62 506.09,-883.71 513.08,-883.51"/>
</g>
<!-- libdrs_f -->
<g id="node21" class="node">
<title>libdrs_f</title>
<g id="a_node21"><a xlink:href="https://github.com/conda-forge/libdrs_f-feedstock" xlink:title="libdrs_f">
<ellipse fill="#fde725" stroke="black" cx="581.77" cy="-782" rx="48.58" ry="18"/>
<text xml:space="preserve" text-anchor="middle" x="581.77" y="-777.33" font-family="Times,serif" font-size="14.00">libdrs_f</text>
</a>
</g>
</g>
<!-- libcdms&#45;&gt;libdrs_f -->
<g id="edge23" class="edge">
<title>libcdms&#45;&gt;libdrs_f</title>
<path fill="none" stroke="black" d="M531.95,-908.49C542.76,-898.95 555.2,-886.08 562.77,-872 572.78,-853.37 577.52,-829.88 579.76,-811.71"/>
<polygon fill="black" stroke="black" points="583.23,-812.19 580.77,-801.88 576.26,-811.47 583.23,-812.19"/>
</g>
<!-- libcf -->
<g id="node22" class="node">
<title>libcf</title>
<g id="a_node22"><a xlink:href="https://github.com/conda-forge/libcf-feedstock/pull/55" xlink:title="libcf ❎">
<ellipse fill="#31688e" stroke="black" cx="271.77" cy="-854" rx="48.05" ry="18"/>
<text xml:space="preserve" text-anchor="middle" x="271.77" y="-849.33" font-family="Times,serif" font-size="14.00" fill="white">libcf ❎</text>
</a>
</g>
</g>
<!-- libcf&#45;&gt;cdms2 -->
<g id="edge24" class="edge">
<title>libcf&#45;&gt;cdms2</title>
<path fill="none" stroke="black" d="M294.98,-837.81C310.19,-827.86 330.27,-814.73 346.96,-803.81"/>
<polygon fill="black" stroke="black" points="348.61,-806.91 355.06,-798.51 344.78,-801.05 348.61,-806.91"/>
</g>
<!-- moab -->
<g id="node23" class="node">
<title>moab</title>
<g id="a_node23"><a xlink:href="https://github.com/conda-forge/moab-feedstock" xlink:title="moab">
<ellipse fill="#fde725" stroke="black" cx="102.77" cy="-782" rx="38.58" ry="18"/>
<text xml:space="preserve" text-anchor="middle" x="102.77" y="-777.33" font-family="Times,serif" font-size="14.00">moab</text>
</a>
</g>
</g>
<!-- netcdf&#45;cxx4 -->
<g id="node24" class="node">
<title>netcdf&#45;cxx4</title>
<g id="a_node24"><a xlink:href="https://github.com/conda-forge/netcdf-cxx4-feedstock/pull/57" xlink:title="netcdf cxx4 ❎">
<ellipse fill="#31688e" stroke="black" cx="1351.77" cy="-1142" rx="84.35" ry="18"/>
<text xml:space="preserve" text-anchor="middle" x="1351.77" y="-1137.33" font-family="Times,serif" font-size="14.00" fill="white">netcdf cxx4 ❎</text>
</a>
</g>
</g>
<!-- pyferret -->
<g id="node25" class="node">
<title>pyferret</title>
<g id="a_node25"><a xlink:href="https://github.com/conda-forge/pyferret-feedstock" xlink:title="pyferret">
<ellipse fill="#35b779" stroke="black" cx="1351.77" cy="-1070" rx="52.26" ry="18"/>
<text xml:space="preserve" text-anchor="middle" x="1351.77" y="-1065.33" font-family="Times,serif" font-size="14.00">pyferret</text>
</a>
</g>
</g>
<!-- netcdf&#45;cxx4&#45;&gt;pyferret -->
<!-- r&#45;rnetcdf -->
<g id="node28" class="node">
<title>r&#45;rnetcdf</title>
<g id="a_node28"><a xlink:href="https://github.com/conda-forge/r-rnetcdf-feedstock" xlink:title="r rnetcdf">
<ellipse fill="#35b779" stroke="black" cx="1351.77" cy="-998" rx="55.42" ry="18"/>
<text xml:space="preserve" text-anchor="middle" x="1351.77" y="-993.33" font-family="Times,serif" font-size="14.00">r rnetcdf</text>
</a>
</g>
</g>
<!-- pyferret&#45;&gt;r&#45;rnetcdf -->
<!-- paraview -->
<g id="node26" class="node">
<title>paraview</title>
<g id="a_node26"><a xlink:href="https://github.com/conda-forge/paraview-feedstock" xlink:title="paraview">
<ellipse fill="#35b779" stroke="black" cx="1351.77" cy="-234" rx="57" ry="18"/>
<text xml:space="preserve" text-anchor="middle" x="1351.77" y="-229.32" font-family="Times,serif" font-size="14.00">paraview</text>
</a>
</g>
</g>
<!-- lfric_reader -->
<g id="node27" class="node">
<title>lfric_reader</title>
<g id="a_node27"><a xlink:href="https://github.com/conda-forge/lfric_reader-feedstock" xlink:title="lfric_reader">
<ellipse fill="#fde725" stroke="black" cx="1351.77" cy="-162" rx="69.1" ry="18"/>
<text xml:space="preserve" text-anchor="middle" x="1351.77" y="-157.32" font-family="Times,serif" font-size="14.00">lfric_reader</text>
</a>
</g>
</g>
<!-- paraview&#45;&gt;lfric_reader -->
<g id="edge26" class="edge">
<title>paraview&#45;&gt;lfric_reader</title>
<path fill="none" stroke="black" d="M1351.77,-215.7C1351.77,-208.41 1351.77,-199.73 1351.77,-191.54"/>
<polygon fill="black" stroke="black" points="1355.27,-191.62 1351.77,-181.62 1348.27,-191.62 1355.27,-191.62"/>
</g>
<!-- wgrib2 -->
<g id="node30" class="node">
<title>wgrib2</title>
<g id="a_node30"><a xlink:href="https://github.com/conda-forge/wgrib2-feedstock" xlink:title="wgrib2">
<ellipse fill="#35b779" stroke="black" cx="1351.77" cy="-926" rx="46.47" ry="18"/>
<text xml:space="preserve" text-anchor="middle" x="1351.77" y="-921.33" font-family="Times,serif" font-size="14.00">wgrib2</text>
</a>
</g>
</g>
<!-- r&#45;rnetcdf&#45;&gt;wgrib2 -->
<!-- r&#45;ncdf4 -->
<g id="node29" class="node">
<title>r&#45;ncdf4</title>
<g id="a_node29"><a xlink:href="https://github.com/conda-forge/r-ncdf4-feedstock/pull/49" xlink:title="r ncdf4 ❎">
<ellipse fill="#31688e" stroke="black" cx="717.77" cy="-854" rx="62.26" ry="18"/>
<text xml:space="preserve" text-anchor="middle" x="717.77" y="-849.33" font-family="Times,serif" font-size="14.00" fill="white">r ncdf4 ❎</text>
</a>
</g>
</g>
<!-- r&#45;ncdf4&#45;&gt;r&#45;gdalcubes -->
<g id="edge28" class="edge">
<title>r&#45;ncdf4&#45;&gt;r&#45;gdalcubes</title>
<path fill="none" stroke="black" d="M717.77,-835.7C717.77,-828.41 717.77,-819.73 717.77,-811.54"/>
<polygon fill="black" stroke="black" points="721.27,-811.62 717.77,-801.62 714.27,-811.62 721.27,-811.62"/>
</g>
<!-- siesta -->
<g id="node31" class="node">
<title>siesta</title>
<g id="a_node31"><a xlink:href="https://github.com/conda-forge/siesta-feedstock" xlink:title="siesta">
<ellipse fill="#35b779" stroke="black" cx="1351.77" cy="-854" rx="40.69" ry="18"/>
<text xml:space="preserve" text-anchor="middle" x="1351.77" y="-849.33" font-family="Times,serif" font-size="14.00">siesta</text>
</a>
</g>
</g>
<!-- wgrib2&#45;&gt;siesta -->
<!-- vic -->
<g id="node32" class="node">
<title>vic</title>
<g id="a_node32"><a xlink:href="https://github.com/conda-forge/vic-feedstock" xlink:title="vic">
<ellipse fill="#35b779" stroke="black" cx="1351.77" cy="-782" rx="27" ry="18"/>
<text xml:space="preserve" text-anchor="middle" x="1351.77" y="-777.33" font-family="Times,serif" font-size="14.00">vic</text>
</a>
</g>
</g>
<!-- siesta&#45;&gt;vic -->
<!-- vtk -->
<g id="node33" class="node">
<title>vtk</title>
<g id="a_node33"><a xlink:href="https://github.com/conda-forge/vtk-feedstock/pull/395" xlink:title="vtk ❎">
<ellipse fill="#31688e" stroke="black" cx="1351.77" cy="-710" rx="42.26" ry="18"/>
<text xml:space="preserve" text-anchor="middle" x="1351.77" y="-705.33" font-family="Times,serif" font-size="14.00" fill="white">vtk ❎</text>
</a>
</g>
</g>
<!-- vic&#45;&gt;vtk -->
<!-- vmd&#45;python -->
<g id="node34" class="node">
<title>vmd&#45;python</title>
<g id="a_node34"><a xlink:href="https://github.com/conda-forge/vmd-python-feedstock" xlink:title="vmd python">
<ellipse fill="#35b779" stroke="black" cx="1351.77" cy="-638" rx="70.68" ry="18"/>
<text xml:space="preserve" text-anchor="middle" x="1351.77" y="-633.33" font-family="Times,serif" font-size="14.00">vmd python</text>
</a>
</g>
</g>
<!-- vtk&#45;&gt;vmd&#45;python -->
<!-- lammps -->
<g id="node35" class="node">
<title>lammps</title>
<g id="a_node35"><a xlink:href="https://github.com/conda-forge/lammps-feedstock" xlink:title="lammps">
<ellipse fill="#35b779" stroke="black" cx="1351.77" cy="-566" rx="50.68" ry="18"/>
<text xml:space="preserve" text-anchor="middle" x="1351.77" y="-561.33" font-family="Times,serif" font-size="14.00">lammps</text>
</a>
</g>
</g>
<!-- vmd&#45;python&#45;&gt;lammps -->
<!-- ovito -->
<g id="node36" class="node">
<title>ovito</title>
<g id="a_node36"><a xlink:href="https://github.com/conda-forge/ovito-feedstock" xlink:title="ovito">
<ellipse fill="#35b779" stroke="black" cx="1351.77" cy="-494" rx="35.95" ry="18"/>
<text xml:space="preserve" text-anchor="middle" x="1351.77" y="-489.32" font-family="Times,serif" font-size="14.00">ovito</text>
</a>
</g>
</g>
<!-- lammps&#45;&gt;ovito -->
<!-- cmor -->
<g id="node37" class="node">
<title>cmor</title>
<g id="a_node37"><a xlink:href="https://github.com/conda-forge/cmor-feedstock" xlink:title="cmor">
<ellipse fill="#35b779" stroke="black" cx="1351.77" cy="-422" rx="36.48" ry="18"/>
<text xml:space="preserve" text-anchor="middle" x="1351.77" y="-417.32" font-family="Times,serif" font-size="14.00">cmor</text>
</a>
</g>
</g>
<!-- ovito&#45;&gt;cmor -->
<!-- tempest&#45;remap -->
<g id="node38" class="node">
<title>tempest&#45;remap</title>
<g id="a_node38"><a xlink:href="https://github.com/conda-forge/tempest-remap-feedstock/pull/50" xlink:title="tempest remap ❎">
<ellipse fill="#31688e" stroke="black" cx="102.77" cy="-854" rx="102.77" ry="18"/>
<text xml:space="preserve" text-anchor="middle" x="102.77" y="-849.33" font-family="Times,serif" font-size="14.00" fill="white">tempest remap ❎</text>
</a>
</g>
</g>
<!-- tempest&#45;remap&#45;&gt;nco -->
<g id="edge37" class="edge">
<title>tempest&#45;remap&#45;&gt;nco</title>
<path fill="none" stroke="black" d="M135.36,-836.59C157.8,-825.29 187.48,-810.34 209.79,-799.1"/>
<polygon fill="black" stroke="black" points="211.07,-802.38 218.43,-794.75 207.92,-796.13 211.07,-802.38"/>
</g>
<!-- tempest&#45;remap&#45;&gt;moab -->
<g id="edge38" class="edge">
<title>tempest&#45;remap&#45;&gt;moab</title>
<path fill="none" stroke="black" d="M102.77,-835.7C102.77,-828.41 102.77,-819.73 102.77,-811.54"/>
<polygon fill="black" stroke="black" points="106.27,-811.62 102.77,-801.62 99.27,-811.62 106.27,-811.62"/>
</g>
<!-- ambertools -->
<g id="node39" class="node">
<title>ambertools</title>
<g id="a_node39"><a xlink:href="https://github.com/conda-forge/ambertools-feedstock" xlink:title="ambertools">
<ellipse fill="#35b779" stroke="black" cx="1153.77" cy="-1142" rx="67.52" ry="18"/>
<text xml:space="preserve" text-anchor="middle" x="1153.77" y="-1137.33" font-family="Times,serif" font-size="14.00">ambertools</text>
</a>
</g>
</g>
<!-- fpocket -->
<g id="node40" class="node">
<title>fpocket</title>
<g id="a_node40"><a xlink:href="https://github.com/conda-forge/fpocket-feedstock" xlink:title="fpocket">
<ellipse fill="#35b779" stroke="black" cx="1153.77" cy="-1070" rx="48.05" ry="18"/>
<text xml:space="preserve" text-anchor="middle" x="1153.77" y="-1065.33" font-family="Times,serif" font-size="14.00">fpocket</text>
</a>
</g>
</g>
<!-- ambertools&#45;&gt;fpocket -->
<!-- sphinxdft -->
<g id="node41" class="node">
<title>sphinxdft</title>
<g id="a_node41"><a xlink:href="https://github.com/conda-forge/sphinxdft-feedstock" xlink:title="sphinxdft">
<ellipse fill="#35b779" stroke="black" cx="1153.77" cy="-998" rx="58.57" ry="18"/>
<text xml:space="preserve" text-anchor="middle" x="1153.77" y="-993.33" font-family="Times,serif" font-size="14.00">sphinxdft</text>
</a>
</g>
</g>
<!-- fpocket&#45;&gt;sphinxdft -->
<!-- ncview -->
<g id="node42" class="node">
<title>ncview</title>
<g id="a_node42"><a xlink:href="https://github.com/conda-forge/ncview-feedstock" xlink:title="ncview">
<ellipse fill="#35b779" stroke="black" cx="1153.77" cy="-926" rx="45.95" ry="18"/>
<text xml:space="preserve" text-anchor="middle" x="1153.77" y="-921.33" font-family="Times,serif" font-size="14.00">ncview</text>
</a>
</g>
</g>
<!-- sphinxdft&#45;&gt;ncview -->
<!-- netcdf&#45;cxx&#45;legacy -->
<g id="node43" class="node">
<title>netcdf&#45;cxx&#45;legacy</title>
<g id="a_node43"><a xlink:href="https://github.com/conda-forge/netcdf-cxx-legacy-feedstock" xlink:title="netcdf cxx legacy">
<ellipse fill="#35b779" stroke="black" cx="1153.77" cy="-854" rx="98.03" ry="18"/>
<text xml:space="preserve" text-anchor="middle" x="1153.77" y="-849.33" font-family="Times,serif" font-size="14.00">netcdf cxx legacy</text>
</a>
</g>
</g>
<!-- ncview&#45;&gt;netcdf&#45;cxx&#45;legacy -->
<!-- nccmp -->
<g id="node44" class="node">
<title>nccmp</title>
<g id="a_node44"><a xlink:href="https://github.com/conda-forge/nccmp-feedstock" xlink:title="nccmp">
<ellipse fill="#35b779" stroke="black" cx="1153.77" cy="-782" rx="43.84" ry="18"/>
<text xml:space="preserve" text-anchor="middle" x="1153.77" y="-777.33" font-family="Times,serif" font-size="14.00">nccmp</text>
</a>
</g>
</g>
<!-- netcdf&#45;cxx&#45;legacy&#45;&gt;nccmp -->
<!-- abinit -->
<g id="node45" class="node">
<title>abinit</title>
<g id="a_node45"><a xlink:href="https://github.com/conda-forge/abinit-feedstock" xlink:title="abinit">
<ellipse fill="#35b779" stroke="black" cx="1153.77" cy="-710" rx="40.16" ry="18"/>
<text xml:space="preserve" text-anchor="middle" x="1153.77" y="-705.33" font-family="Times,serif" font-size="14.00">abinit</text>
</a>
</g>
</g>
<!-- nccmp&#45;&gt;abinit -->
<!-- tempest&#45;extremes -->
<g id="node46" class="node">
<title>tempest&#45;extremes</title>
<g id="a_node46"><a xlink:href="https://github.com/conda-forge/tempest-extremes-feedstock" xlink:title="tempest extremes">
<ellipse fill="#35b779" stroke="black" cx="1153.77" cy="-638" rx="102.24" ry="18"/>
<text xml:space="preserve" text-anchor="middle" x="1153.77" y="-633.33" font-family="Times,serif" font-size="14.00">tempest extremes</text>
</a>
</g>
</g>
<!-- abinit&#45;&gt;tempest&#45;extremes -->
<!-- pymol&#45;open&#45;source -->
<g id="node47" class="node">
<title>pymol&#45;open&#45;source</title>
<g id="a_node47"><a xlink:href="https://github.com/conda-forge/pymol-open-source-feedstock" xlink:title="pymol open source">
<ellipse fill="#35b779" stroke="black" cx="1153.77" cy="-566" rx="105.4" ry="18"/>
<text xml:space="preserve" text-anchor="middle" x="1153.77" y="-561.33" font-family="Times,serif" font-size="14.00">pymol open source</text>
</a>
</g>
</g>
<!-- tempest&#45;extremes&#45;&gt;pymol&#45;open&#45;source -->
<!-- raven&#45;hydro -->
<g id="node48" class="node">
<title>raven&#45;hydro</title>
<g id="a_node48"><a xlink:href="https://github.com/conda-forge/raven-hydro-feedstock" xlink:title="raven hydro">
<ellipse fill="#35b779" stroke="black" cx="1153.77" cy="-494" rx="71.73" ry="18"/>
<text xml:space="preserve" text-anchor="middle" x="1153.77" y="-489.32" font-family="Times,serif" font-size="14.00">raven hydro</text>
</a>
</g>
</g>
<!-- pymol&#45;open&#45;source&#45;&gt;raven&#45;hydro -->
<!-- yambo -->
<g id="node49" class="node">
<title>yambo</title>
<g id="a_node49"><a xlink:href="https://github.com/conda-forge/yambo-feedstock" xlink:title="yambo">
<ellipse fill="#35b779" stroke="black" cx="1153.77" cy="-422" rx="44.37" ry="18"/>
<text xml:space="preserve" text-anchor="middle" x="1153.77" y="-417.32" font-family="Times,serif" font-size="14.00">yambo</text>
</a>
</g>
</g>
<!-- raven&#45;hydro&#45;&gt;yambo -->
<!-- ccr -->
<g id="node50" class="node">
<title>ccr</title>
<g id="a_node50"><a xlink:href="https://github.com/conda-forge/ccr-feedstock" xlink:title="ccr">
<ellipse fill="#35b779" stroke="black" cx="1153.77" cy="-378" rx="27" ry="18"/>
<text xml:space="preserve" text-anchor="middle" x="1153.77" y="-373.32" font-family="Times,serif" font-size="14.00">ccr</text>
</a>
</g>
</g>
<!-- loos -->
<g id="node51" class="node">
<title>loos</title>
<g id="a_node51"><a xlink:href="https://github.com/conda-forge/loos-feedstock" xlink:title="loos">
<ellipse fill="#35b779" stroke="black" cx="1153.77" cy="-306" rx="31.22" ry="18"/>
<text xml:space="preserve" text-anchor="middle" x="1153.77" y="-301.32" font-family="Times,serif" font-size="14.00">loos</text>
</a>
</g>
</g>
<!-- ccr&#45;&gt;loos -->
<!-- rubin&#45;libradtran -->
<g id="node52" class="node">
<title>rubin&#45;libradtran</title>
<g id="a_node52"><a xlink:href="https://github.com/conda-forge/rubin-libradtran-feedstock" xlink:title="rubin libradtran">
<ellipse fill="#35b779" stroke="black" cx="1153.77" cy="-234" rx="91.72" ry="18"/>
<text xml:space="preserve" text-anchor="middle" x="1153.77" y="-229.32" font-family="Times,serif" font-size="14.00">rubin libradtran</text>
</a>
</g>
</g>
<!-- loos&#45;&gt;rubin&#45;libradtran -->
<!-- ncvis&#45;climate -->
<g id="node54" class="node">
<title>ncvis&#45;climate</title>
<g id="a_node54"><a xlink:href="https://github.com/conda-forge/ncvis-climate-feedstock" xlink:title="ncvis climate">
<ellipse fill="#35b779" stroke="black" cx="1153.77" cy="-162" rx="76.99" ry="18"/>
<text xml:space="preserve" text-anchor="middle" x="1153.77" y="-157.32" font-family="Times,serif" font-size="14.00">ncvis climate</text>
</a>
</g>
</g>
<!-- rubin&#45;libradtran&#45;&gt;ncvis&#45;climate -->
<!-- parallelio -->
<g id="node53" class="node">
<title>parallelio</title>
<g id="a_node53"><a xlink:href="https://github.com/conda-forge/parallelio-feedstock" xlink:title="parallelio">
<ellipse fill="#35b779" stroke="black" cx="369.77" cy="-926" rx="58.05" ry="18"/>
<text xml:space="preserve" text-anchor="middle" x="369.77" y="-921.33" font-family="Times,serif" font-size="14.00">parallelio</text>
</a>
</g>
</g>
<!-- parallelio&#45;&gt;esmf -->
<g id="edge51" class="edge">
<title>parallelio&#45;&gt;esmf</title>
<path fill="none" stroke="black" d="M370.51,-907.7C370.82,-900.41 371.19,-891.73 371.54,-883.54"/>
<polygon fill="black" stroke="black" points="375.04,-883.76 371.97,-873.62 368.04,-883.46 375.04,-883.76"/>
</g>
<!-- qdoas -->
<g id="node55" class="node">
<title>qdoas</title>
<g id="a_node55"><a xlink:href="https://github.com/conda-forge/qdoas-feedstock" xlink:title="qdoas">
<ellipse fill="#35b779" stroke="black" cx="1153.77" cy="-90" rx="40.69" ry="18"/>
<text xml:space="preserve" text-anchor="middle" x="1153.77" y="-85.33" font-family="Times,serif" font-size="14.00">qdoas</text>
</a>
</g>
</g>
<!-- ncvis&#45;climate&#45;&gt;qdoas -->
<!-- squadgen -->
<g id="node56" class="node">
<title>squadgen</title>
<g id="a_node56"><a xlink:href="https://github.com/conda-forge/squadgen-feedstock" xlink:title="squadgen">
<ellipse fill="#35b779" stroke="black" cx="1153.77" cy="-18" rx="59.63" ry="18"/>
<text xml:space="preserve" text-anchor="middle" x="1153.77" y="-13.32" font-family="Times,serif" font-size="14.00">squadgen</text>
</a>
</g>
</g>
<!-- qdoas&#45;&gt;squadgen -->
</g>
</svg>
