<?xml version="1.0" encoding="UTF-8" standalone="no"?>
<!DOCTYPE svg PUBLIC "-//W3C//DTD SVG 1.1//EN"
 "http://www.w3.org/Graphics/SVG/1.1/DTD/svg11.dtd">
<!-- Generated by graphviz version 13.1.2 (20250809.0930)
 -->
<!-- Pages: 1 -->
<svg width="1294pt" height="1096pt"
 viewBox="0.00 0.00 1294.00 1096.00" xmlns="http://www.w3.org/2000/svg" xmlns:xlink="http://www.w3.org/1999/xlink">
<g id="graph0" class="graph" transform="scale(1 1) rotate(0) translate(4 1092)">
<polygon fill="white" stroke="none" points="-4,4 -4,-1092 1290.01,-1092 1290.01,4 -4,4"/>
<!-- cdo -->
<g id="node1" class="node">
<title>cdo</title>
<g id="a_node1"><a xlink:href="https://github.com/conda-forge/cdo-feedstock" xlink:title="cdo">
<ellipse fill="#fde725" stroke="black" cx="150.72" cy="-162" rx="28.59" ry="18"/>
<text xml:space="preserve" text-anchor="middle" x="150.72" y="-157.32" font-family="Times,serif" font-size="14.00">cdo</text>
</a>
</g>
</g>
<!-- eccodes -->
<g id="node2" class="node">
<title>eccodes</title>
<g id="a_node2"><a xlink:href="https://github.com/conda-forge/eccodes-feedstock/pull/195" xlink:title="eccodes ❎">
<ellipse fill="#31688e" stroke="black" cx="381.72" cy="-306" rx="65.94" ry="18"/>
<text xml:space="preserve" text-anchor="middle" x="381.72" y="-301.32" font-family="Times,serif" font-size="14.00" fill="white">eccodes ❎</text>
</a>
</g>
</g>
<!-- eccodes&#45;&gt;cdo -->
<g id="edge1" class="edge">
<title>eccodes&#45;&gt;cdo</title>
<path fill="none" stroke="black" d="M318.39,-300.41C252.47,-294.17 155.66,-280.34 132.72,-252 118.41,-234.32 125.95,-208.3 135.25,-188.96"/>
<polygon fill="black" stroke="black" points="138.23,-190.81 139.77,-180.33 132.03,-187.56 138.23,-190.81"/>
</g>
<!-- magics -->
<g id="node3" class="node">
<title>magics</title>
<g id="a_node3"><a xlink:href="https://github.com/conda-forge/magics-feedstock" xlink:title="magics">
<ellipse fill="#fde725" stroke="black" cx="187.72" cy="-234" rx="46.47" ry="18"/>
<text xml:space="preserve" text-anchor="middle" x="187.72" y="-229.32" font-family="Times,serif" font-size="14.00">magics</text>
</a>
</g>
</g>
<!-- eccodes&#45;&gt;magics -->
<g id="edge2" class="edge">
<title>eccodes&#45;&gt;magics</title>
<path fill="none" stroke="black" d="M342.93,-291C310.7,-279.37 264.87,-262.84 231.36,-250.75"/>
<polygon fill="black" stroke="black" points="232.97,-247.61 222.38,-247.51 230.59,-254.19 232.97,-247.61"/>
</g>
<!-- metview -->
<g id="node4" class="node">
<title>metview</title>
<g id="a_node4"><a xlink:href="https://github.com/conda-forge/metview-feedstock" xlink:title="metview">
<ellipse fill="#fde725" stroke="black" cx="261.72" cy="-90" rx="53.84" ry="18"/>
<text xml:space="preserve" text-anchor="middle" x="261.72" y="-85.33" font-family="Times,serif" font-size="14.00">metview</text>
</a>
</g>
</g>
<!-- eccodes&#45;&gt;metview -->
<g id="edge3" class="edge">
<title>eccodes&#45;&gt;metview</title>
<path fill="none" stroke="black" d="M363.7,-288.23C340.76,-265.82 301.61,-223.82 280.72,-180 271.61,-160.91 266.84,-137.44 264.35,-119.4"/>
<polygon fill="black" stroke="black" points="267.85,-119.17 263.18,-109.66 260.9,-120.01 267.85,-119.17"/>
</g>
<!-- magics&#45;metview -->
<g id="node5" class="node">
<title>magics&#45;metview</title>
<g id="a_node5"><a xlink:href="https://github.com/conda-forge/magics-metview-feedstock" xlink:title="magics metview">
<ellipse fill="#fde725" stroke="black" cx="381.72" cy="-162" rx="92.25" ry="18"/>
<text xml:space="preserve" text-anchor="middle" x="381.72" y="-157.32" font-family="Times,serif" font-size="14.00">magics metview</text>
</a>
</g>
</g>
<!-- eccodes&#45;&gt;magics&#45;metview -->
<g id="edge4" class="edge">
<title>eccodes&#45;&gt;magics&#45;metview</title>
<path fill="none" stroke="black" d="M381.72,-287.59C381.72,-263.61 381.72,-220.14 381.72,-191.42"/>
<polygon fill="black" stroke="black" points="385.22,-191.62 381.72,-181.62 378.22,-191.62 385.22,-191.62"/>
</g>
<!-- magics&#45;metview&#45;batch -->
<g id="node6" class="node">
<title>magics&#45;metview&#45;batch</title>
<g id="a_node6"><a xlink:href="https://github.com/conda-forge/magics-metview-batch-feedstock" xlink:title="magics metview batch">
<ellipse fill="#fde725" stroke="black" cx="456.72" cy="-90" rx="123.29" ry="18"/>
<text xml:space="preserve" text-anchor="middle" x="456.72" y="-85.33" font-family="Times,serif" font-size="14.00">magics metview batch</text>
</a>
</g>
</g>
<!-- eccodes&#45;&gt;magics&#45;metview&#45;batch -->
<g id="edge5" class="edge">
<title>eccodes&#45;&gt;magics&#45;metview&#45;batch</title>
<path fill="none" stroke="black" d="M401.61,-288.45C426.16,-266.59 466.63,-225.51 482.72,-180 489.95,-159.54 482.36,-135.96 473.55,-118.2"/>
<polygon fill="black" stroke="black" points="476.72,-116.71 468.89,-109.57 470.56,-120.04 476.72,-116.71"/>
</g>
<!-- metview&#45;batch -->
<g id="node7" class="node">
<title>metview&#45;batch</title>
<g id="a_node7"><a xlink:href="https://github.com/conda-forge/metview-batch-feedstock" xlink:title="metview batch">
<ellipse fill="#fde725" stroke="black" cx="480.72" cy="-18" rx="84.88" ry="18"/>
<text xml:space="preserve" text-anchor="middle" x="480.72" y="-13.32" font-family="Times,serif" font-size="14.00">metview batch</text>
</a>
</g>
</g>
<!-- eccodes&#45;&gt;metview&#45;batch -->
<g id="edge6" class="edge">
<title>eccodes&#45;&gt;metview&#45;batch</title>
<path fill="none" stroke="black" d="M410.55,-289.43C459.42,-261.08 556.35,-195.74 588.72,-108 594.26,-92.99 597.18,-85.58 588.72,-72 578.65,-55.85 562.07,-44.48 544.89,-36.54"/>
<polygon fill="black" stroke="black" points="546.71,-33.51 536.14,-32.83 543.98,-39.95 546.71,-33.51"/>
</g>
<!-- fimex -->
<g id="node8" class="node">
<title>fimex</title>
<g id="a_node8"><a xlink:href="https://github.com/conda-forge/fimex-feedstock" xlink:title="fimex">
<ellipse fill="#fde725" stroke="black" cx="645.72" cy="-18" rx="38.58" ry="18"/>
<text xml:space="preserve" text-anchor="middle" x="645.72" y="-13.32" font-family="Times,serif" font-size="14.00">fimex</text>
</a>
</g>
</g>
<!-- eccodes&#45;&gt;fimex -->
<g id="edge7" class="edge">
<title>eccodes&#45;&gt;fimex</title>
<path fill="none" stroke="black" d="M422.71,-291.57C447.16,-282.49 478.12,-269.05 502.72,-252 539.4,-226.57 547.5,-216.82 572.72,-180 592.61,-150.96 591.17,-140.05 605.72,-108 615.07,-87.4 625.55,-64.08 633.43,-46.48"/>
<polygon fill="black" stroke="black" points="636.58,-48.02 637.47,-37.46 630.19,-45.16 636.58,-48.02"/>
</g>
<!-- magics&#45;&gt;cdo -->
<g id="edge8" class="edge">
<title>magics&#45;&gt;cdo</title>
<path fill="none" stroke="black" d="M178.76,-216.05C174.52,-208.03 169.35,-198.26 164.62,-189.3"/>
<polygon fill="black" stroke="black" points="167.81,-187.85 160.05,-180.65 161.62,-191.12 167.81,-187.85"/>
</g>
<!-- magics&#45;metview&#45;&gt;metview -->
<g id="edge9" class="edge">
<title>magics&#45;metview&#45;&gt;metview</title>
<path fill="none" stroke="black" d="M353.28,-144.41C336.52,-134.63 315.16,-122.17 297.29,-111.75"/>
<polygon fill="black" stroke="black" points="299.21,-108.82 288.81,-106.8 295.68,-114.86 299.21,-108.82"/>
</g>
<!-- magics&#45;metview&#45;batch&#45;&gt;metview&#45;batch -->
<g id="edge10" class="edge">
<title>magics&#45;metview&#45;batch&#45;&gt;metview&#45;batch</title>
<path fill="none" stroke="black" d="M462.65,-71.7C465.21,-64.24 468.27,-55.32 471.13,-46.97"/>
<polygon fill="black" stroke="black" points="474.43,-48.13 474.36,-37.54 467.81,-45.86 474.43,-48.13"/>
</g>
<!-- esmf -->
<g id="node9" class="node">
<title>esmf</title>
<g id="a_node9"><a xlink:href="https://github.com/conda-forge/esmf-feedstock" xlink:title="esmf">
<ellipse fill="#35b779" stroke="black" cx="460.72" cy="-782" rx="35.42" ry="18"/>
<text xml:space="preserve" text-anchor="middle" x="460.72" y="-777.33" font-family="Times,serif" font-size="14.00">esmf</text>
</a>
</g>
</g>
<!-- ncl -->
<g id="node10" class="node">
<title>ncl</title>
<g id="a_node10"><a xlink:href="https://github.com/conda-forge/ncl-feedstock" xlink:title="ncl">
<ellipse fill="#fde725" stroke="black" cx="579.72" cy="-710" rx="27" ry="18"/>
<text xml:space="preserve" text-anchor="middle" x="579.72" y="-705.33" font-family="Times,serif" font-size="14.00">ncl</text>
</a>
</g>
</g>
<!-- esmf&#45;&gt;ncl -->
<g id="edge11" class="edge">
<title>esmf&#45;&gt;ncl</title>
<path fill="none" stroke="black" d="M483.38,-767.67C502.3,-756.54 529.42,-740.59 550.07,-728.44"/>
<polygon fill="black" stroke="black" points="551.76,-731.51 558.6,-723.42 548.21,-725.48 551.76,-731.51"/>
</g>
<!-- nco -->
<g id="node11" class="node">
<title>nco</title>
<g id="a_node11"><a xlink:href="https://github.com/conda-forge/nco-feedstock" xlink:title="nco">
<ellipse fill="#fde725" stroke="black" cx="373.72" cy="-710" rx="28.59" ry="18"/>
<text xml:space="preserve" text-anchor="middle" x="373.72" y="-705.33" font-family="Times,serif" font-size="14.00">nco</text>
</a>
</g>
</g>
<!-- esmf&#45;&gt;nco -->
<g id="edge12" class="edge">
<title>esmf&#45;&gt;nco</title>
<path fill="none" stroke="black" d="M442.27,-766.15C429.95,-756.24 413.56,-743.06 399.9,-732.06"/>
<polygon fill="black" stroke="black" points="402.12,-729.36 392.14,-725.82 397.74,-734.82 402.12,-729.36"/>
</g>
<!-- mpas_tools -->
<g id="node12" class="node">
<title>mpas_tools</title>
<g id="a_node12"><a xlink:href="https://github.com/conda-forge/mpas_tools-feedstock" xlink:title="mpas_tools">
<ellipse fill="#fde725" stroke="black" cx="358.72" cy="-638" rx="66.99" ry="18"/>
<text xml:space="preserve" text-anchor="middle" x="358.72" y="-633.33" font-family="Times,serif" font-size="14.00">mpas_tools</text>
</a>
</g>
</g>
<!-- nco&#45;&gt;mpas_tools -->
<g id="edge13" class="edge">
<title>nco&#45;&gt;mpas_tools</title>
<path fill="none" stroke="black" d="M370.01,-691.7C368.43,-684.32 366.55,-675.52 364.77,-667.25"/>
<polygon fill="black" stroke="black" points="368.22,-666.63 362.7,-657.58 361.37,-668.1 368.22,-666.63"/>
</g>
<!-- gdal -->
<g id="node13" class="node">
<title>gdal</title>
<g id="a_node13"><a xlink:href="https://github.com/conda-forge/gdal-feedstock" xlink:title="gdal">
<ellipse fill="#000000" stroke="black" cx="634.72" cy="-782" rx="32.79" ry="18"/>
<text xml:space="preserve" text-anchor="middle" x="634.72" y="-777.33" font-family="Times,serif" font-size="14.00" fill="white">gdal</text>
</a>
</g>
</g>
<!-- gdal&#45;&gt;ncl -->
<g id="edge14" class="edge">
<title>gdal&#45;&gt;ncl</title>
<path fill="none" stroke="black" d="M622.24,-765.12C615.32,-756.31 606.57,-745.18 598.82,-735.31"/>
<polygon fill="black" stroke="black" points="601.64,-733.23 592.71,-727.53 596.13,-737.56 601.64,-733.23"/>
</g>
<!-- gmt -->
<g id="node14" class="node">
<title>gmt</title>
<g id="a_node14"><a xlink:href="https://github.com/conda-forge/gmt-feedstock" xlink:title="gmt">
<ellipse fill="#fde725" stroke="black" cx="761.72" cy="-710" rx="31.22" ry="18"/>
<text xml:space="preserve" text-anchor="middle" x="761.72" y="-705.33" font-family="Times,serif" font-size="14.00">gmt</text>
</a>
</g>
</g>
<!-- gdal&#45;&gt;gmt -->
<g id="edge15" class="edge">
<title>gdal&#45;&gt;gmt</title>
<path fill="none" stroke="black" d="M657.42,-768.49C677.59,-757.37 707.29,-741 729.84,-728.57"/>
<polygon fill="black" stroke="black" points="731.24,-731.79 738.31,-723.9 727.86,-725.66 731.24,-731.79"/>
</g>
<!-- r&#45;gdalcubes -->
<g id="node15" class="node">
<title>r&#45;gdalcubes</title>
<g id="a_node15"><a xlink:href="https://github.com/conda-forge/r-gdalcubes-feedstock" xlink:title="r gdalcubes">
<ellipse fill="#fde725" stroke="black" cx="732.72" cy="-638" rx="69.62" ry="18"/>
<text xml:space="preserve" text-anchor="middle" x="732.72" y="-633.33" font-family="Times,serif" font-size="14.00">r gdalcubes</text>
</a>
</g>
</g>
<!-- gdal&#45;&gt;r&#45;gdalcubes -->
<g id="edge16" class="edge">
<title>gdal&#45;&gt;r&#45;gdalcubes</title>
<path fill="none" stroke="black" d="M645.96,-764.71C662.76,-740.36 694.6,-694.24 714.68,-665.14"/>
<polygon fill="black" stroke="black" points="717.34,-667.44 720.14,-657.22 711.58,-663.47 717.34,-667.44"/>
</g>
<!-- pygnome -->
<g id="node16" class="node">
<title>pygnome</title>
<g id="a_node16"><a xlink:href="https://github.com/conda-forge/pygnome-feedstock" xlink:title="pygnome">
<ellipse fill="#fde725" stroke="black" cx="477.72" cy="-710" rx="57" ry="18"/>
<text xml:space="preserve" text-anchor="middle" x="477.72" y="-705.33" font-family="Times,serif" font-size="14.00">pygnome</text>
</a>
</g>
</g>
<!-- gdal&#45;&gt;pygnome -->
<g id="edge17" class="edge">
<title>gdal&#45;&gt;pygnome</title>
<path fill="none" stroke="black" d="M609.84,-769.91C585.74,-759.16 548.71,-742.65 519.99,-729.85"/>
<polygon fill="black" stroke="black" points="521.76,-726.8 511.2,-725.93 518.91,-733.2 521.76,-726.8"/>
</g>
<!-- windninja -->
<g id="node17" class="node">
<title>windninja</title>
<g id="a_node17"><a xlink:href="https://github.com/conda-forge/windninja-feedstock" xlink:title="windninja">
<ellipse fill="#fde725" stroke="black" cx="634.72" cy="-566" rx="60.15" ry="18"/>
<text xml:space="preserve" text-anchor="middle" x="634.72" y="-561.33" font-family="Times,serif" font-size="14.00">windninja</text>
</a>
</g>
</g>
<!-- gdal&#45;&gt;windninja -->
<g id="edge18" class="edge">
<title>gdal&#45;&gt;windninja</title>
<path fill="none" stroke="black" d="M634.72,-763.85C634.72,-727.14 634.72,-640.66 634.72,-595.53"/>
<polygon fill="black" stroke="black" points="638.22,-595.75 634.72,-585.75 631.22,-595.75 638.22,-595.75"/>
</g>
<!-- moab -->
<g id="node18" class="node">
<title>moab</title>
<g id="a_node18"><a xlink:href="https://github.com/conda-forge/moab-feedstock" xlink:title="moab">
<ellipse fill="#35b779" stroke="black" cx="1172.72" cy="-1070" rx="38.58" ry="18"/>
<text xml:space="preserve" text-anchor="middle" x="1172.72" y="-1065.33" font-family="Times,serif" font-size="14.00">moab</text>
</a>
</g>
</g>
<!-- pyferret -->
<g id="node19" class="node">
<title>pyferret</title>
<g id="a_node19"><a xlink:href="https://github.com/conda-forge/pyferret-feedstock/pull/117" xlink:title="pyferret ❎">
<ellipse fill="#31688e" stroke="black" cx="1172.72" cy="-998" rx="67.52" ry="18"/>
<text xml:space="preserve" text-anchor="middle" x="1172.72" y="-993.33" font-family="Times,serif" font-size="14.00" fill="white">pyferret ❎</text>
</a>
</g>
</g>
<!-- moab&#45;&gt;pyferret -->
<!-- siesta -->
<g id="node26" class="node">
<title>siesta</title>
<g id="a_node26"><a xlink:href="https://github.com/conda-forge/siesta-feedstock/pull/79" xlink:title="siesta ❎">
<ellipse fill="#31688e" stroke="black" cx="1172.72" cy="-926" rx="55.94" ry="18"/>
<text xml:space="preserve" text-anchor="middle" x="1172.72" y="-921.33" font-family="Times,serif" font-size="14.00" fill="white">siesta ❎</text>
</a>
</g>
</g>
<!-- pyferret&#45;&gt;siesta -->
<!-- netcdf&#45;cxx4 -->
<g id="node20" class="node">
<title>netcdf&#45;cxx4</title>
<g id="a_node20"><a xlink:href="https://github.com/conda-forge/netcdf-cxx4-feedstock/pull/64" xlink:title="netcdf cxx4 ❎">
<ellipse fill="#31688e" stroke="black" cx="930.72" cy="-198" rx="84.35" ry="18"/>
<text xml:space="preserve" text-anchor="middle" x="930.72" y="-193.32" font-family="Times,serif" font-size="14.00" fill="white">netcdf cxx4 ❎</text>
</a>
</g>
</g>
<!-- smspp&#45;project -->
<g id="node21" class="node">
<title>smspp&#45;project</title>
<g id="a_node21"><a xlink:href="https://github.com/conda-forge/smspp-project-feedstock" xlink:title="smspp project">
<ellipse fill="#fde725" stroke="black" cx="930.72" cy="-126" rx="82.25" ry="18"/>
<text xml:space="preserve" text-anchor="middle" x="930.72" y="-121.33" font-family="Times,serif" font-size="14.00">smspp project</text>
</a>
</g>
</g>
<!-- netcdf&#45;cxx4&#45;&gt;smspp&#45;project -->
<g id="edge20" class="edge">
<title>netcdf&#45;cxx4&#45;&gt;smspp&#45;project</title>
<path fill="none" stroke="black" d="M930.72,-179.7C930.72,-172.41 930.72,-163.73 930.72,-155.54"/>
<polygon fill="black" stroke="black" points="934.22,-155.62 930.72,-145.62 927.22,-155.62 934.22,-155.62"/>
</g>
<!-- netcdf4 -->
<g id="node22" class="node">
<title>netcdf4</title>
<g id="a_node22"><a xlink:href="https://github.com/conda-forge/netcdf4-feedstock/pull/185" xlink:title="netcdf4 ❎">
<ellipse fill="#31688e" stroke="black" cx="226.72" cy="-782" rx="64.36" ry="18"/>
<text xml:space="preserve" text-anchor="middle" x="226.72" y="-777.33" font-family="Times,serif" font-size="14.00" fill="white">netcdf4 ❎</text>
</a>
</g>
</g>
<!-- netcdf4&#45;&gt;mpas_tools -->
<g id="edge22" class="edge">
<title>netcdf4&#45;&gt;mpas_tools</title>
<path fill="none" stroke="black" d="M226.06,-763.7C226.22,-744.24 229.31,-712.66 245.72,-692 259.37,-674.81 279.91,-662.93 299.75,-654.84"/>
<polygon fill="black" stroke="black" points="300.8,-658.19 308.92,-651.38 298.33,-651.64 300.8,-658.19"/>
</g>
<!-- netcdf4&#45;&gt;pygnome -->
<g id="edge21" class="edge">
<title>netcdf4&#45;&gt;pygnome</title>
<path fill="none" stroke="black" d="M271.3,-768.57C314.38,-756.55 379.63,-738.36 425.2,-725.65"/>
<polygon fill="black" stroke="black" points="425.9,-729.08 434.59,-723.03 424.02,-722.34 425.9,-729.08"/>
</g>
<!-- cmor -->
<g id="node23" class="node">
<title>cmor</title>
<g id="a_node23"><a xlink:href="https://github.com/conda-forge/cmor-feedstock" xlink:title="cmor">
<ellipse fill="#fde725" stroke="black" cx="290.72" cy="-710" rx="36.48" ry="18"/>
<text xml:space="preserve" text-anchor="middle" x="290.72" y="-705.33" font-family="Times,serif" font-size="14.00">cmor</text>
</a>
</g>
</g>
<!-- netcdf4&#45;&gt;cmor -->
<g id="edge23" class="edge">
<title>netcdf4&#45;&gt;cmor</title>
<path fill="none" stroke="black" d="M242.21,-764.05C250.14,-755.38 259.94,-744.67 268.64,-735.15"/>
<polygon fill="black" stroke="black" points="271.06,-737.69 275.22,-727.95 265.89,-732.97 271.06,-737.69"/>
</g>
<!-- lfric_reader -->
<g id="node24" class="node">
<title>lfric_reader</title>
<g id="a_node24"><a xlink:href="https://github.com/conda-forge/lfric_reader-feedstock" xlink:title="lfric_reader">
<ellipse fill="#fde725" stroke="black" cx="188.72" cy="-638" rx="69.1" ry="18"/>
<text xml:space="preserve" text-anchor="middle" x="188.72" y="-633.33" font-family="Times,serif" font-size="14.00">lfric_reader</text>
</a>
</g>
</g>
<!-- netcdf4&#45;&gt;lfric_reader -->
<g id="edge24" class="edge">
<title>netcdf4&#45;&gt;lfric_reader</title>
<path fill="none" stroke="black" d="M222.06,-763.59C215.61,-739.5 203.91,-695.75 196.22,-667.03"/>
<polygon fill="black" stroke="black" points="199.65,-666.33 193.69,-657.57 192.89,-668.14 199.65,-666.33"/>
</g>
<!-- rubin&#45;libradtran -->
<g id="node25" class="node">
<title>rubin&#45;libradtran</title>
<g id="a_node25"><a xlink:href="https://github.com/conda-forge/rubin-libradtran-feedstock" xlink:title="rubin libradtran">
<ellipse fill="#fde725" stroke="black" cx="91.72" cy="-566" rx="91.72" ry="18"/>
<text xml:space="preserve" text-anchor="middle" x="91.72" y="-561.33" font-family="Times,serif" font-size="14.00">rubin libradtran</text>
</a>
</g>
</g>
<!-- netcdf4&#45;&gt;rubin&#45;libradtran -->
<g id="edge25" class="edge">
<title>netcdf4&#45;&gt;rubin&#45;libradtran</title>
<path fill="none" stroke="black" d="M205.95,-764.81C179.52,-743.03 134.47,-701.71 110.72,-656 100.96,-637.23 96.22,-613.75 93.91,-595.62"/>
<polygon fill="black" stroke="black" points="97.4,-595.39 92.85,-585.82 90.44,-596.14 97.4,-595.39"/>
</g>
<!-- vic -->
<g id="node27" class="node">
<title>vic</title>
<g id="a_node27"><a xlink:href="https://github.com/conda-forge/vic-feedstock/pull/26" xlink:title="vic ❎">
<ellipse fill="#31688e" stroke="black" cx="1172.72" cy="-854" rx="40.69" ry="18"/>
<text xml:space="preserve" text-anchor="middle" x="1172.72" y="-849.33" font-family="Times,serif" font-size="14.00" fill="white">vic ❎</text>
</a>
</g>
</g>
<!-- siesta&#45;&gt;vic -->
<!-- vtk -->
<g id="node28" class="node">
<title>vtk</title>
<g id="a_node28"><a xlink:href="https://github.com/conda-forge/vtk-feedstock/pull/427" xlink:title="vtk ❎">
<ellipse fill="#31688e" stroke="black" cx="1172.72" cy="-782" rx="42.26" ry="18"/>
<text xml:space="preserve" text-anchor="middle" x="1172.72" y="-777.33" font-family="Times,serif" font-size="14.00" fill="white">vtk ❎</text>
</a>
</g>
</g>
<!-- vic&#45;&gt;vtk -->
<!-- vmd&#45;python -->
<g id="node29" class="node">
<title>vmd&#45;python</title>
<g id="a_node29"><a xlink:href="https://github.com/conda-forge/vmd-python-feedstock/pull/48" xlink:title="vmd python ❎">
<ellipse fill="#31688e" stroke="black" cx="1172.72" cy="-710" rx="85.93" ry="18"/>
<text xml:space="preserve" text-anchor="middle" x="1172.72" y="-705.33" font-family="Times,serif" font-size="14.00" fill="white">vmd python ❎</text>
</a>
</g>
</g>
<!-- vtk&#45;&gt;vmd&#45;python -->
<!-- lammps -->
<g id="node30" class="node">
<title>lammps</title>
<g id="a_node30"><a xlink:href="https://github.com/conda-forge/lammps-feedstock" xlink:title="lammps">
<ellipse fill="#ff8c00" stroke="black" cx="1172.72" cy="-638" rx="50.68" ry="18"/>
<text xml:space="preserve" text-anchor="middle" x="1172.72" y="-633.33" font-family="Times,serif" font-size="14.00">lammps</text>
</a>
</g>
</g>
<!-- vmd&#45;python&#45;&gt;lammps -->
<!-- ovito -->
<g id="node31" class="node">
<title>ovito</title>
<g id="a_node31"><a xlink:href="https://github.com/conda-forge/ovito-feedstock/pull/126" xlink:title="ovito ❎">
<ellipse fill="#31688e" stroke="black" cx="1172.72" cy="-566" rx="51.21" ry="18"/>
<text xml:space="preserve" text-anchor="middle" x="1172.72" y="-561.33" font-family="Times,serif" font-size="14.00" fill="white">ovito ❎</text>
</a>
</g>
</g>
<!-- lammps&#45;&gt;ovito -->
<!-- ambertools -->
<g id="node32" class="node">
<title>ambertools</title>
<g id="a_node32"><a xlink:href="https://github.com/conda-forge/ambertools-feedstock/pull/186" xlink:title="ambertools ❎">
<ellipse fill="#31688e" stroke="black" cx="1172.72" cy="-494" rx="82.77" ry="18"/>
<text xml:space="preserve" text-anchor="middle" x="1172.72" y="-489.32" font-family="Times,serif" font-size="14.00" fill="white">ambertools ❎</text>
</a>
</g>
</g>
<!-- ovito&#45;&gt;ambertools -->
<!-- fpocket -->
<g id="node33" class="node">
<title>fpocket</title>
<g id="a_node33"><a xlink:href="https://github.com/conda-forge/fpocket-feedstock/pull/40" xlink:title="fpocket ❎">
<ellipse fill="#31688e" stroke="black" cx="1172.72" cy="-422" rx="63.31" ry="18"/>
<text xml:space="preserve" text-anchor="middle" x="1172.72" y="-417.32" font-family="Times,serif" font-size="14.00" fill="white">fpocket ❎</text>
</a>
</g>
</g>
<!-- ambertools&#45;&gt;fpocket -->
<!-- netcdf&#45;cxx&#45;legacy -->
<g id="node34" class="node">
<title>netcdf&#45;cxx&#45;legacy</title>
<g id="a_node34"><a xlink:href="https://github.com/conda-forge/netcdf-cxx-legacy-feedstock/pull/21" xlink:title="netcdf cxx legacy ❎">
<ellipse fill="#31688e" stroke="black" cx="1172.72" cy="-350" rx="113.29" ry="18"/>
<text xml:space="preserve" text-anchor="middle" x="1172.72" y="-345.32" font-family="Times,serif" font-size="14.00" fill="white">netcdf cxx legacy ❎</text>
</a>
</g>
</g>
<!-- fpocket&#45;&gt;netcdf&#45;cxx&#45;legacy -->
<!-- nccmp -->
<g id="node35" class="node">
<title>nccmp</title>
<g id="a_node35"><a xlink:href="https://github.com/conda-forge/nccmp-feedstock/pull/26" xlink:title="nccmp ❎">
<ellipse fill="#31688e" stroke="black" cx="930.72" cy="-1070" rx="59.1" ry="18"/>
<text xml:space="preserve" text-anchor="middle" x="930.72" y="-1065.33" font-family="Times,serif" font-size="14.00" fill="white">nccmp ❎</text>
</a>
</g>
</g>
<!-- abinit -->
<g id="node36" class="node">
<title>abinit</title>
<g id="a_node36"><a xlink:href="https://github.com/conda-forge/abinit-feedstock" xlink:title="abinit">
<ellipse fill="#35b779" stroke="black" cx="930.72" cy="-998" rx="40.16" ry="18"/>
<text xml:space="preserve" text-anchor="middle" x="930.72" y="-993.33" font-family="Times,serif" font-size="14.00">abinit</text>
</a>
</g>
</g>
<!-- nccmp&#45;&gt;abinit -->
<!-- tempest&#45;extremes -->
<g id="node37" class="node">
<title>tempest&#45;extremes</title>
<g id="a_node37"><a xlink:href="https://github.com/conda-forge/tempest-extremes-feedstock/pull/18" xlink:title="tempest extremes ❎">
<ellipse fill="#31688e" stroke="black" cx="930.72" cy="-926" rx="117.5" ry="18"/>
<text xml:space="preserve" text-anchor="middle" x="930.72" y="-921.33" font-family="Times,serif" font-size="14.00" fill="white">tempest extremes ❎</text>
</a>
</g>
</g>
<!-- abinit&#45;&gt;tempest&#45;extremes -->
<!-- pymol&#45;open&#45;source -->
<g id="node38" class="node">
<title>pymol&#45;open&#45;source</title>
<g id="a_node38"><a xlink:href="https://github.com/conda-forge/pymol-open-source-feedstock/pull/43" xlink:title="pymol open source ❎">
<ellipse fill="#31688e" stroke="black" cx="930.72" cy="-854" rx="120.65" ry="18"/>
<text xml:space="preserve" text-anchor="middle" x="930.72" y="-849.33" font-family="Times,serif" font-size="14.00" fill="white">pymol open source ❎</text>
</a>
</g>
</g>
<!-- tempest&#45;extremes&#45;&gt;pymol&#45;open&#45;source -->
<!-- raven&#45;hydro -->
<g id="node39" class="node">
<title>raven&#45;hydro</title>
<g id="a_node39"><a xlink:href="https://github.com/conda-forge/raven-hydro-feedstock/pull/35" xlink:title="raven hydro ❎">
<ellipse fill="#31688e" stroke="black" cx="930.72" cy="-782" rx="86.98" ry="18"/>
<text xml:space="preserve" text-anchor="middle" x="930.72" y="-777.33" font-family="Times,serif" font-size="14.00" fill="white">raven hydro ❎</text>
</a>
</g>
</g>
<!-- pymol&#45;open&#45;source&#45;&gt;raven&#45;hydro -->
<!-- yambo -->
<g id="node40" class="node">
<title>yambo</title>
<g id="a_node40"><a xlink:href="https://github.com/conda-forge/yambo-feedstock/pull/51" xlink:title="yambo ❎">
<ellipse fill="#31688e" stroke="black" cx="930.72" cy="-710" rx="59.63" ry="18"/>
<text xml:space="preserve" text-anchor="middle" x="930.72" y="-705.33" font-family="Times,serif" font-size="14.00" fill="white">yambo ❎</text>
</a>
</g>
</g>
<!-- raven&#45;hydro&#45;&gt;yambo -->
<!-- ccr -->
<g id="node41" class="node">
<title>ccr</title>
<g id="a_node41"><a xlink:href="https://github.com/conda-forge/ccr-feedstock/pull/13" xlink:title="ccr ❎">
<ellipse fill="#31688e" stroke="black" cx="930.72" cy="-638" rx="41.74" ry="18"/>
<text xml:space="preserve" text-anchor="middle" x="930.72" y="-633.33" font-family="Times,serif" font-size="14.00" fill="white">ccr ❎</text>
</a>
</g>
</g>
<!-- yambo&#45;&gt;ccr -->
<!-- loos -->
<g id="node42" class="node">
<title>loos</title>
<g id="a_node42"><a xlink:href="https://github.com/conda-forge/loos-feedstock" xlink:title="loos">
<ellipse fill="#000000" stroke="black" cx="930.72" cy="-566" rx="31.22" ry="18"/>
<text xml:space="preserve" text-anchor="middle" x="930.72" y="-561.33" font-family="Times,serif" font-size="14.00" fill="white">loos</text>
</a>
</g>
</g>
<!-- ccr&#45;&gt;loos -->
<!-- ncvis&#45;climate -->
<g id="node43" class="node">
<title>ncvis&#45;climate</title>
<g id="a_node43"><a xlink:href="https://github.com/conda-forge/ncvis-climate-feedstock/pull/24" xlink:title="ncvis climate ❎">
<ellipse fill="#31688e" stroke="black" cx="930.72" cy="-494" rx="92.25" ry="18"/>
<text xml:space="preserve" text-anchor="middle" x="930.72" y="-489.32" font-family="Times,serif" font-size="14.00" fill="white">ncvis climate ❎</text>
</a>
</g>
</g>
<!-- loos&#45;&gt;ncvis&#45;climate -->
<!-- qdoas -->
<g id="node45" class="node">
<title>qdoas</title>
<g id="a_node45"><a xlink:href="https://github.com/conda-forge/qdoas-feedstock/pull/41" xlink:title="qdoas ❎">
<ellipse fill="#31688e" stroke="black" cx="930.72" cy="-422" rx="55.94" ry="18"/>
<text xml:space="preserve" text-anchor="middle" x="930.72" y="-417.32" font-family="Times,serif" font-size="14.00" fill="white">qdoas ❎</text>
</a>
</g>
</g>
<!-- ncvis&#45;climate&#45;&gt;qdoas -->
<!-- parallelio -->
<g id="node44" class="node">
<title>parallelio</title>
<g id="a_node44"><a xlink:href="https://github.com/conda-forge/parallelio-feedstock/pull/32" xlink:title="parallelio ❎">
<ellipse fill="#31688e" stroke="black" cx="460.72" cy="-854" rx="73.3" ry="18"/>
<text xml:space="preserve" text-anchor="middle" x="460.72" y="-849.33" font-family="Times,serif" font-size="14.00" fill="white">parallelio ❎</text>
</a>
</g>
</g>
<!-- parallelio&#45;&gt;esmf -->
<g id="edge43" class="edge">
<title>parallelio&#45;&gt;esmf</title>
<path fill="none" stroke="black" d="M460.72,-835.7C460.72,-828.41 460.72,-819.73 460.72,-811.54"/>
<polygon fill="black" stroke="black" points="464.22,-811.62 460.72,-801.62 457.22,-811.62 464.22,-811.62"/>
</g>
<!-- squadgen -->
<g id="node46" class="node">
<title>squadgen</title>
<g id="a_node46"><a xlink:href="https://github.com/conda-forge/squadgen-feedstock/pull/7" xlink:title="squadgen ❎">
<ellipse fill="#31688e" stroke="black" cx="930.72" cy="-350" rx="74.88" ry="18"/>
<text xml:space="preserve" text-anchor="middle" x="930.72" y="-345.32" font-family="Times,serif" font-size="14.00" fill="white">squadgen ❎</text>
</a>
</g>
</g>
<!-- qdoas&#45;&gt;squadgen -->
<!-- octave&#45;netcdf -->
<g id="node47" class="node">
<title>octave&#45;netcdf</title>
<g id="a_node47"><a xlink:href="https://github.com/conda-forge/octave-netcdf-feedstock/pull/1" xlink:title="octave netcdf ❎">
<ellipse fill="#31688e" stroke="black" cx="1172.72" cy="-162" rx="93.82" ry="18"/>
<text xml:space="preserve" text-anchor="middle" x="1172.72" y="-157.32" font-family="Times,serif" font-size="14.00" fill="white">octave netcdf ❎</text>
</a>
</g>
</g>
</g>
</svg>
