<?xml version="1.0" encoding="UTF-8" standalone="no"?>
<!DOCTYPE svg PUBLIC "-//W3C//DTD SVG 1.1//EN"
 "http://www.w3.org/Graphics/SVG/1.1/DTD/svg11.dtd">
<!-- Generated by graphviz version 12.0.0 (20240803.0821)
 -->
<!-- Pages: 1 -->
<svg width="579pt" height="116pt"
 viewBox="0.00 0.00 579.20 116.00" xmlns="http://www.w3.org/2000/svg" xmlns:xlink="http://www.w3.org/1999/xlink">
<g id="graph0" class="graph" transform="scale(1 1) rotate(0) translate(4 112)">
<polygon fill="white" stroke="none" points="-4,4 -4,-112 575.2,-112 575.2,4 -4,4"/>
<!-- gazebo -->
<g id="node1" class="node">
<title>gazebo</title>
<g id="a_node1"><a xlink:href="https://github.com/conda-forge/gazebo-feedstock" xlink:title="gazebo">
<ellipse fill="#fde725" stroke="black" cx="46.47" cy="-18" rx="46.47" ry="18"/>
<text text-anchor="middle" x="46.47" y="-13.32" font-family="Times,serif" font-size="14.00">gazebo</text>
</a>
</g>
</g>
<!-- ompl -->
<g id="node2" class="node">
<title>ompl</title>
<g id="a_node2"><a xlink:href="https://github.com/conda-forge/ompl-feedstock/pull/42" xlink:title="ompl ❎">
<ellipse fill="#31688e" stroke="black" cx="519.99" cy="-54" rx="51.21" ry="18"/>
<text text-anchor="middle" x="519.99" y="-49.33" font-family="Times,serif" font-size="14.00" fill="white">ompl ❎</text>
</a>
</g>
</g>
<!-- libignition&#45;physics -->
<g id="node3" class="node">
<title>libignition&#45;physics</title>
<g id="a_node3"><a xlink:href="https://github.com/conda-forge/libignition-physics-feedstock" xlink:title="libignition physics">
<ellipse fill="#fde725" stroke="black" cx="213.47" cy="-18" rx="102.77" ry="18"/>
<text text-anchor="middle" x="213.47" y="-13.32" font-family="Times,serif" font-size="14.00">libignition physics</text>
</a>
</g>
</g>
<!-- dartsim -->
<g id="node4" class="node">
<title>dartsim</title>
<g id="a_node4"><a xlink:href="https://github.com/conda-forge/dartsim-feedstock/pull/109" xlink:title="dartsim ❎">
<ellipse fill="#31688e" stroke="black" cx="213.47" cy="-90" rx="65.41" ry="18"/>
<text text-anchor="middle" x="213.47" y="-85.33" font-family="Times,serif" font-size="14.00" fill="white">dartsim ❎</text>
</a>
</g>
</g>
<!-- dartsim&#45;&gt;gazebo -->
<g id="edge1" class="edge">
<title>dartsim&#45;&gt;gazebo</title>
<path fill="none" stroke="black" d="M178.46,-74.33C152.04,-63.25 115.69,-48.01 87.83,-36.33"/>
<polygon fill="black" stroke="black" points="89.2,-33.11 78.62,-32.47 86.49,-39.57 89.2,-33.11"/>
</g>
<!-- dartsim&#45;&gt;libignition&#45;physics -->
<g id="edge3" class="edge">
<title>dartsim&#45;&gt;libignition&#45;physics</title>
<path fill="none" stroke="black" d="M213.47,-71.7C213.47,-64.41 213.47,-55.73 213.47,-47.54"/>
<polygon fill="black" stroke="black" points="216.97,-47.62 213.47,-37.62 209.97,-47.62 216.97,-47.62"/>
</g>
<!-- gz&#45;physics -->
<g id="node5" class="node">
<title>gz&#45;physics</title>
<g id="a_node5"><a xlink:href="https://github.com/conda-forge/gz-physics-feedstock" xlink:title="gz physics">
<ellipse fill="#fde725" stroke="black" cx="397.47" cy="-18" rx="63.31" ry="18"/>
<text text-anchor="middle" x="397.47" y="-13.32" font-family="Times,serif" font-size="14.00">gz physics</text>
</a>
</g>
</g>
<!-- dartsim&#45;&gt;gz&#45;physics -->
<g id="edge2" class="edge">
<title>dartsim&#45;&gt;gz&#45;physics</title>
<path fill="none" stroke="black" d="M250.71,-74.83C279.36,-63.93 319.15,-48.8 350.07,-37.03"/>
<polygon fill="black" stroke="black" points="351.09,-40.39 359.19,-33.56 348.6,-33.85 351.09,-40.39"/>
</g>
</g>
</svg>
