<?xml version="1.0" encoding="UTF-8" standalone="no"?>
<!DOCTYPE svg PUBLIC "-//W3C//DTD SVG 1.1//EN"
 "http://www.w3.org/Graphics/SVG/1.1/DTD/svg11.dtd">
<!-- Generated by graphviz version 12.2.1 (20250203.1708)
 -->
<!-- Pages: 1 -->
<svg width="845pt" height="188pt"
 viewBox="0.00 0.00 845.12 188.00" xmlns="http://www.w3.org/2000/svg" xmlns:xlink="http://www.w3.org/1999/xlink">
<g id="graph0" class="graph" transform="scale(1 1) rotate(0) translate(4 184)">
<polygon fill="white" stroke="none" points="-4,4 -4,-184 841.12,-184 841.12,4 -4,4"/>
<!-- casadi -->
<g id="node1" class="node">
<title>casadi</title>
<g id="a_node1"><a xlink:href="https://github.com/conda-forge/casadi-feedstock" xlink:title="casadi">
<ellipse fill="#35b779" stroke="black" cx="569.22" cy="-90" rx="42.79" ry="18"/>
<text text-anchor="middle" x="569.22" y="-85.33" font-family="Times,serif" font-size="14.00">casadi</text>
</a>
</g>
</g>
<!-- bipedal&#45;locomotion&#45;framework -->
<g id="node6" class="node">
<title>bipedal&#45;locomotion&#45;framework</title>
<g id="a_node6"><a xlink:href="https://github.com/conda-forge/bipedal-locomotion-framework-feedstock" xlink:title="bipedal locomotion framework">
<ellipse fill="#fde725" stroke="black" cx="498.22" cy="-18" rx="163.27" ry="18"/>
<text text-anchor="middle" x="498.22" y="-13.32" font-family="Times,serif" font-size="14.00">bipedal locomotion framework</text>
</a>
</g>
</g>
<!-- casadi&#45;&gt;bipedal&#45;locomotion&#45;framework -->
<g id="edge1" class="edge">
<title>casadi&#45;&gt;bipedal&#45;locomotion&#45;framework</title>
<path fill="none" stroke="black" d="M553.11,-73.12C544.42,-64.54 533.48,-53.77 523.67,-44.09"/>
<polygon fill="black" stroke="black" points="526.42,-41.88 516.84,-37.35 521.5,-46.87 526.42,-41.88"/>
</g>
<!-- osqp -->
<g id="node2" class="node">
<title>osqp</title>
<g id="a_node2"><a xlink:href="https://github.com/conda-forge/osqp-feedstock" xlink:title="osqp">
<ellipse fill="#35b779" stroke="black" cx="802.22" cy="-90" rx="34.9" ry="18"/>
<text text-anchor="middle" x="802.22" y="-85.33" font-family="Times,serif" font-size="14.00">osqp</text>
</a>
</g>
</g>
<!-- osqp&#45;eigen -->
<g id="node3" class="node">
<title>osqp&#45;eigen</title>
<g id="a_node3"><a xlink:href="https://github.com/conda-forge/osqp-eigen-feedstock" xlink:title="osqp eigen">
<ellipse fill="#35b779" stroke="black" cx="299.22" cy="-162" rx="65.41" ry="18"/>
<text text-anchor="middle" x="299.22" y="-157.32" font-family="Times,serif" font-size="14.00">osqp eigen</text>
</a>
</g>
</g>
<!-- idyntree -->
<g id="node4" class="node">
<title>idyntree</title>
<g id="a_node4"><a xlink:href="https://github.com/conda-forge/idyntree-feedstock" xlink:title="idyntree">
<ellipse fill="#fde725" stroke="black" cx="219.22" cy="-90" rx="53.31" ry="18"/>
<text text-anchor="middle" x="219.22" y="-85.33" font-family="Times,serif" font-size="14.00">idyntree</text>
</a>
</g>
</g>
<!-- osqp&#45;eigen&#45;&gt;idyntree -->
<g id="edge4" class="edge">
<title>osqp&#45;eigen&#45;&gt;idyntree</title>
<path fill="none" stroke="black" d="M280.26,-144.41C270.13,-135.54 257.47,-124.47 246.32,-114.71"/>
<polygon fill="black" stroke="black" points="248.74,-112.18 238.91,-108.23 244.13,-117.44 248.74,-112.18"/>
</g>
<!-- osqp&#45;eigen&#45;&gt;bipedal&#45;locomotion&#45;framework -->
<g id="edge2" class="edge">
<title>osqp&#45;eigen&#45;&gt;bipedal&#45;locomotion&#45;framework</title>
<path fill="none" stroke="black" d="M363.55,-158.06C402.34,-152.84 449.77,-139.78 479.22,-108 494.09,-91.95 498.43,-67.23 499.29,-47.91"/>
<polygon fill="black" stroke="black" points="502.79,-47.97 499.41,-37.93 495.79,-47.89 502.79,-47.97"/>
</g>
<!-- human&#45;dynamics&#45;estimation -->
<g id="node7" class="node">
<title>human&#45;dynamics&#45;estimation</title>
<g id="a_node7"><a xlink:href="https://github.com/conda-forge/human-dynamics-estimation-feedstock" xlink:title="human dynamics estimation">
<ellipse fill="#fde725" stroke="black" cx="152.22" cy="-18" rx="152.22" ry="18"/>
<text text-anchor="middle" x="152.22" y="-13.32" font-family="Times,serif" font-size="14.00">human dynamics estimation</text>
</a>
</g>
</g>
<!-- osqp&#45;eigen&#45;&gt;human&#45;dynamics&#45;estimation -->
<g id="edge3" class="edge">
<title>osqp&#45;eigen&#45;&gt;human&#45;dynamics&#45;estimation</title>
<path fill="none" stroke="black" d="M239.97,-154.13C210.22,-147.42 176.49,-134.17 157.22,-108 144.59,-90.85 144.09,-66.41 146.34,-47.48"/>
<polygon fill="black" stroke="black" points="149.78,-48.16 147.83,-37.74 142.86,-47.1 149.78,-48.16"/>
</g>
<!-- qpsolvers&#45;eigen -->
<g id="node8" class="node">
<title>qpsolvers&#45;eigen</title>
<g id="a_node8"><a xlink:href="https://github.com/conda-forge/qpsolvers-eigen-feedstock" xlink:title="qpsolvers eigen">
<ellipse fill="#fde725" stroke="black" cx="380.22" cy="-90" rx="90.14" ry="18"/>
<text text-anchor="middle" x="380.22" y="-85.33" font-family="Times,serif" font-size="14.00">qpsolvers eigen</text>
</a>
</g>
</g>
<!-- osqp&#45;eigen&#45;&gt;qpsolvers&#45;eigen -->
<g id="edge5" class="edge">
<title>osqp&#45;eigen&#45;&gt;qpsolvers&#45;eigen</title>
<path fill="none" stroke="black" d="M318.42,-144.41C328.46,-135.73 340.94,-124.95 352.05,-115.34"/>
<polygon fill="black" stroke="black" points="354.18,-118.13 359.46,-108.95 349.6,-112.84 354.18,-118.13"/>
</g>
<!-- idyntree&#45;&gt;bipedal&#45;locomotion&#45;framework -->
<g id="edge6" class="edge">
<title>idyntree&#45;&gt;bipedal&#45;locomotion&#45;framework</title>
<path fill="none" stroke="black" d="M259.53,-77.77C266.74,-75.81 274.2,-73.82 281.22,-72 327.13,-60.1 378.69,-47.48 420.04,-37.54"/>
<polygon fill="black" stroke="black" points="420.76,-40.96 429.67,-35.22 419.12,-34.15 420.76,-40.96"/>
</g>
<!-- idyntree&#45;&gt;human&#45;dynamics&#45;estimation -->
<g id="edge7" class="edge">
<title>idyntree&#45;&gt;human&#45;dynamics&#45;estimation</title>
<path fill="none" stroke="black" d="M203.34,-72.41C195.28,-63.99 185.32,-53.58 176.34,-44.2"/>
<polygon fill="black" stroke="black" points="178.94,-41.85 169.5,-37.05 173.88,-46.69 178.94,-41.85"/>
</g>
<!-- kvxopt -->
<g id="node5" class="node">
<title>kvxopt</title>
<g id="a_node5"><a xlink:href="https://github.com/conda-forge/kvxopt-feedstock" xlink:title="kvxopt">
<ellipse fill="#35b779" stroke="black" cx="714.22" cy="-90" rx="44.89" ry="18"/>
<text text-anchor="middle" x="714.22" y="-85.33" font-family="Times,serif" font-size="14.00">kvxopt</text>
</a>
</g>
</g>
</g>
</svg>
