<?xml version="1.0" encoding="UTF-8" standalone="no"?>
<!DOCTYPE svg PUBLIC "-//W3C//DTD SVG 1.1//EN"
 "http://www.w3.org/Graphics/SVG/1.1/DTD/svg11.dtd">
<!-- Generated by graphviz version 12.0.0 (20240803.0821)
 -->
<!-- Pages: 1 -->
<svg width="1602pt" height="952pt"
 viewBox="0.00 0.00 1602.33 952.00" xmlns="http://www.w3.org/2000/svg" xmlns:xlink="http://www.w3.org/1999/xlink">
<g id="graph0" class="graph" transform="scale(1 1) rotate(0) translate(4 948)">
<polygon fill="white" stroke="none" points="-4,4 -4,-948 1598.33,-948 1598.33,4 -4,4"/>
<!-- arrow&#45;cpp -->
<g id="node1" class="node">
<title>arrow&#45;cpp</title>
<g id="a_node1"><a xlink:href="https://github.com/conda-forge/arrow-cpp-feedstock/pull/1652" xlink:title="arrow cpp ❎">
<ellipse fill="#31688e" stroke="black" cx="789.17" cy="-234" rx="76.99" ry="18"/>
<text text-anchor="middle" x="789.17" y="-229.32" font-family="Times,serif" font-size="14.00" fill="white">arrow cpp ❎</text>
</a>
</g>
</g>
<!-- datafusion -->
<g id="node2" class="node">
<title>datafusion</title>
<g id="a_node2"><a xlink:href="https://github.com/conda-forge/datafusion-feedstock" xlink:title="datafusion">
<ellipse fill="#fde725" stroke="black" cx="697.17" cy="-162" rx="63.84" ry="18"/>
<text text-anchor="middle" x="697.17" y="-157.32" font-family="Times,serif" font-size="14.00">datafusion</text>
</a>
</g>
</g>
<!-- arrow&#45;cpp&#45;&gt;datafusion -->
<g id="edge1" class="edge">
<title>arrow&#45;cpp&#45;&gt;datafusion</title>
<path fill="none" stroke="black" d="M767.37,-216.41C755.48,-207.37 740.58,-196.03 727.57,-186.13"/>
<polygon fill="black" stroke="black" points="729.78,-183.41 719.71,-180.14 725.54,-188.99 729.78,-183.41"/>
</g>
<!-- arcticdb -->
<g id="node3" class="node">
<title>arcticdb</title>
<g id="a_node3"><a xlink:href="https://github.com/conda-forge/arcticdb-feedstock" xlink:title="arcticdb">
<ellipse fill="#fde725" stroke="black" cx="789.17" cy="-90" rx="52.26" ry="18"/>
<text text-anchor="middle" x="789.17" y="-85.33" font-family="Times,serif" font-size="14.00">arcticdb</text>
</a>
</g>
</g>
<!-- arrow&#45;cpp&#45;&gt;arcticdb -->
<g id="edge2" class="edge">
<title>arrow&#45;cpp&#45;&gt;arcticdb</title>
<path fill="none" stroke="black" d="M789.17,-215.59C789.17,-191.61 789.17,-148.14 789.17,-119.42"/>
<polygon fill="black" stroke="black" points="792.67,-119.62 789.17,-109.62 785.67,-119.62 792.67,-119.62"/>
</g>
<!-- csp -->
<g id="node4" class="node">
<title>csp</title>
<g id="a_node4"><a xlink:href="https://github.com/conda-forge/csp-feedstock" xlink:title="csp">
<ellipse fill="#fde725" stroke="black" cx="869.17" cy="-18" rx="28.06" ry="18"/>
<text text-anchor="middle" x="869.17" y="-13.32" font-family="Times,serif" font-size="14.00">csp</text>
</a>
</g>
</g>
<!-- arrow&#45;cpp&#45;&gt;csp -->
<g id="edge3" class="edge">
<title>arrow&#45;cpp&#45;&gt;csp</title>
<path fill="none" stroke="black" d="M799.26,-215.78C812.68,-192.19 836.31,-148.18 850.17,-108 856.95,-88.34 861.78,-65.37 864.88,-47.69"/>
<polygon fill="black" stroke="black" points="868.32,-48.33 866.5,-37.89 861.41,-47.19 868.32,-48.33"/>
</g>
<!-- opencv -->
<g id="node5" class="node">
<title>opencv</title>
<g id="a_node5"><a xlink:href="https://github.com/conda-forge/opencv-feedstock/pull/446" xlink:title="opencv ❎">
<ellipse fill="#31688e" stroke="black" cx="272.24" cy="-198" rx="61.73" ry="18"/>
<text text-anchor="middle" x="272.24" y="-193.32" font-family="Times,serif" font-size="14.00" fill="white">opencv ❎</text>
</a>
</g>
</g>
<!-- imp -->
<g id="node6" class="node">
<title>imp</title>
<g id="a_node6"><a xlink:href="https://github.com/conda-forge/imp-feedstock" xlink:title="imp">
<ellipse fill="#fde725" stroke="black" cx="272.24" cy="-126" rx="30.16" ry="18"/>
<text text-anchor="middle" x="272.24" y="-121.33" font-family="Times,serif" font-size="14.00">imp</text>
</a>
</g>
</g>
<!-- opencv&#45;&gt;imp -->
<g id="edge4" class="edge">
<title>opencv&#45;&gt;imp</title>
<path fill="none" stroke="black" d="M272.24,-179.7C272.24,-172.41 272.24,-163.73 272.24,-155.54"/>
<polygon fill="black" stroke="black" points="275.74,-155.62 272.24,-145.62 268.74,-155.62 275.74,-155.62"/>
</g>
<!-- gazebo&#45;yarp&#45;plugins -->
<g id="node7" class="node">
<title>gazebo&#45;yarp&#45;plugins</title>
<g id="a_node7"><a xlink:href="https://github.com/conda-forge/gazebo-yarp-plugins-feedstock" xlink:title="gazebo yarp plugins">
<ellipse fill="#fde725" stroke="black" cx="112.24" cy="-126" rx="112.24" ry="18"/>
<text text-anchor="middle" x="112.24" y="-121.33" font-family="Times,serif" font-size="14.00">gazebo yarp plugins</text>
</a>
</g>
</g>
<!-- opencv&#45;&gt;gazebo&#45;yarp&#45;plugins -->
<g id="edge5" class="edge">
<title>opencv&#45;&gt;gazebo&#45;yarp&#45;plugins</title>
<path fill="none" stroke="black" d="M239.09,-182.5C216.16,-172.46 185.3,-158.97 159.76,-147.79"/>
<polygon fill="black" stroke="black" points="161.5,-144.73 150.93,-143.93 158.69,-151.14 161.5,-144.73"/>
</g>
<!-- nvidia&#45;dali&#45;python -->
<g id="node8" class="node">
<title>nvidia&#45;dali&#45;python</title>
<g id="a_node8"><a xlink:href="https://github.com/conda-forge/nvidia-dali-python-feedstock" xlink:title="nvidia dali python">
<ellipse fill="#fde725" stroke="black" cx="330.24" cy="-54" rx="101.19" ry="18"/>
<text text-anchor="middle" x="330.24" y="-49.33" font-family="Times,serif" font-size="14.00">nvidia dali python</text>
</a>
</g>
</g>
<!-- opencv&#45;&gt;nvidia&#45;dali&#45;python -->
<g id="edge6" class="edge">
<title>opencv&#45;&gt;nvidia&#45;dali&#45;python</title>
<path fill="none" stroke="black" d="M287.24,-180.5C295.49,-170.59 305.24,-157.34 311.24,-144 319.86,-124.82 324.65,-101.53 327.26,-83.59"/>
<polygon fill="black" stroke="black" points="330.7,-84.27 328.52,-73.9 323.76,-83.37 330.7,-84.27"/>
</g>
<!-- qgis -->
<g id="node9" class="node">
<title>qgis</title>
<g id="a_node9"><a xlink:href="https://github.com/conda-forge/qgis-feedstock/pull/495" xlink:title="qgis ❎">
<ellipse fill="#31688e" stroke="black" cx="215.71" cy="-926" rx="47.53" ry="18"/>
<text text-anchor="middle" x="215.71" y="-921.33" font-family="Times,serif" font-size="14.00" fill="white">qgis ❎</text>
</a>
</g>
</g>
<!-- tensorflow -->
<g id="node10" class="node">
<title>tensorflow</title>
<g id="a_node10"><a xlink:href="https://github.com/conda-forge/tensorflow-feedstock/pull/411" xlink:title="tensorflow ❎">
<ellipse fill="#31688e" stroke="black" cx="215.71" cy="-854" rx="79.09" ry="18"/>
<text text-anchor="middle" x="215.71" y="-849.33" font-family="Times,serif" font-size="14.00" fill="white">tensorflow ❎</text>
</a>
</g>
</g>
<!-- qgis&#45;&gt;tensorflow -->
<!-- pytorch&#45;cpu -->
<g id="node11" class="node">
<title>pytorch&#45;cpu</title>
<g id="a_node11"><a xlink:href="https://github.com/conda-forge/pytorch-cpu-feedstock/pull/310" xlink:title="pytorch cpu ❎">
<ellipse fill="#31688e" stroke="black" cx="215.71" cy="-782" rx="85.93" ry="18"/>
<text text-anchor="middle" x="215.71" y="-777.33" font-family="Times,serif" font-size="14.00" fill="white">pytorch cpu ❎</text>
</a>
</g>
</g>
<!-- tensorflow&#45;&gt;pytorch&#45;cpu -->
<!-- go&#45;cockroach -->
<g id="node12" class="node">
<title>go&#45;cockroach</title>
<g id="a_node12"><a xlink:href="https://github.com/conda-forge/go-cockroach-feedstock/pull/30" xlink:title="go cockroach ❎">
<ellipse fill="#31688e" stroke="black" cx="215.71" cy="-710" rx="91.72" ry="18"/>
<text text-anchor="middle" x="215.71" y="-705.33" font-family="Times,serif" font-size="14.00" fill="white">go cockroach ❎</text>
</a>
</g>
</g>
<!-- pytorch&#45;cpu&#45;&gt;go&#45;cockroach -->
<!-- tomviz -->
<g id="node15" class="node">
<title>tomviz</title>
<g id="a_node15"><a xlink:href="https://github.com/conda-forge/tomviz-feedstock/pull/70" xlink:title="tomviz ❎">
<ellipse fill="#31688e" stroke="black" cx="215.71" cy="-638" rx="60.15" ry="18"/>
<text text-anchor="middle" x="215.71" y="-633.33" font-family="Times,serif" font-size="14.00" fill="white">tomviz ❎</text>
</a>
</g>
</g>
<!-- go&#45;cockroach&#45;&gt;tomviz -->
<!-- gazebo -->
<g id="node13" class="node">
<title>gazebo</title>
<g id="a_node13"><a xlink:href="https://github.com/conda-forge/gazebo-feedstock/pull/236" xlink:title="gazebo ❎">
<ellipse fill="#31688e" stroke="black" cx="112.24" cy="-198" rx="61.73" ry="18"/>
<text text-anchor="middle" x="112.24" y="-193.32" font-family="Times,serif" font-size="14.00" fill="white">gazebo ❎</text>
</a>
</g>
</g>
<!-- gazebo&#45;&gt;gazebo&#45;yarp&#45;plugins -->
<g id="edge10" class="edge">
<title>gazebo&#45;&gt;gazebo&#45;yarp&#45;plugins</title>
<path fill="none" stroke="black" d="M112.24,-179.7C112.24,-172.41 112.24,-163.73 112.24,-155.54"/>
<polygon fill="black" stroke="black" points="115.74,-155.62 112.24,-145.62 108.74,-155.62 115.74,-155.62"/>
</g>
<!-- google&#45;cloud&#45;cpp -->
<g id="node14" class="node">
<title>google&#45;cloud&#45;cpp</title>
<g id="a_node14"><a xlink:href="https://github.com/conda-forge/google-cloud-cpp-feedstock" xlink:title="google cloud cpp">
<ellipse fill="#fde725" stroke="black" cx="749.19" cy="-494" rx="95.4" ry="18"/>
<text text-anchor="middle" x="749.19" y="-489.32" font-family="Times,serif" font-size="14.00">google cloud cpp</text>
</a>
</g>
</g>
<!-- or&#45;tools -->
<g id="node16" class="node">
<title>or&#45;tools</title>
<g id="a_node16"><a xlink:href="https://github.com/conda-forge/or-tools-feedstock/pull/64" xlink:title="or tools ❎">
<ellipse fill="#31688e" stroke="black" cx="215.71" cy="-566" rx="64.36" ry="18"/>
<text text-anchor="middle" x="215.71" y="-561.33" font-family="Times,serif" font-size="14.00" fill="white">or tools ❎</text>
</a>
</g>
</g>
<!-- tomviz&#45;&gt;or&#45;tools -->
<!-- xilinx&#45;runtime -->
<g id="node17" class="node">
<title>xilinx&#45;runtime</title>
<g id="a_node17"><a xlink:href="https://github.com/conda-forge/xilinx-runtime-feedstock/pull/39" xlink:title="xilinx runtime ❎">
<ellipse fill="#31688e" stroke="black" cx="215.71" cy="-494" rx="96.98" ry="18"/>
<text text-anchor="middle" x="215.71" y="-489.32" font-family="Times,serif" font-size="14.00" fill="white">xilinx runtime ❎</text>
</a>
</g>
</g>
<!-- or&#45;tools&#45;&gt;xilinx&#45;runtime -->
<!-- tensorstore -->
<g id="node18" class="node">
<title>tensorstore</title>
<g id="a_node18"><a xlink:href="https://github.com/conda-forge/tensorstore-feedstock/pull/52" xlink:title="tensorstore ❎">
<ellipse fill="#31688e" stroke="black" cx="215.71" cy="-422" rx="84.35" ry="18"/>
<text text-anchor="middle" x="215.71" y="-417.32" font-family="Times,serif" font-size="14.00" fill="white">tensorstore ❎</text>
</a>
</g>
</g>
<!-- xilinx&#45;runtime&#45;&gt;tensorstore -->
<!-- openvino&#45;tokenizers -->
<g id="node25" class="node">
<title>openvino&#45;tokenizers</title>
<g id="a_node25"><a xlink:href="https://github.com/conda-forge/openvino-tokenizers-feedstock/pull/38" xlink:title="openvino tokenizers ❎">
<ellipse fill="#31688e" stroke="black" cx="215.71" cy="-350" rx="126.97" ry="18"/>
<text text-anchor="middle" x="215.71" y="-345.32" font-family="Times,serif" font-size="14.00" fill="white">openvino tokenizers ❎</text>
</a>
</g>
</g>
<!-- tensorstore&#45;&gt;openvino&#45;tokenizers -->
<!-- gz&#45;transport -->
<g id="node19" class="node">
<title>gz&#45;transport</title>
<g id="a_node19"><a xlink:href="https://github.com/conda-forge/gz-transport-feedstock/pull/52" xlink:title="gz transport ✓">
<ellipse fill="#31688e" stroke="black" cx="1483.65" cy="-710" rx="81.2" ry="18"/>
<text text-anchor="middle" x="1483.65" y="-705.33" font-family="Times,serif" font-size="14.00" fill="white">gz transport ✓</text>
</a>
</g>
</g>
<!-- gz&#45;gui -->
<g id="node20" class="node">
<title>gz&#45;gui</title>
<g id="a_node20"><a xlink:href="https://github.com/conda-forge/gz-gui-feedstock" xlink:title="gz gui">
<ellipse fill="#fde725" stroke="black" cx="1518.65" cy="-638" rx="41.74" ry="18"/>
<text text-anchor="middle" x="1518.65" y="-633.33" font-family="Times,serif" font-size="14.00">gz gui</text>
</a>
</g>
</g>
<!-- gz&#45;transport&#45;&gt;gz&#45;gui -->
<g id="edge15" class="edge">
<title>gz&#45;transport&#45;&gt;gz&#45;gui</title>
<path fill="none" stroke="black" d="M1492.3,-691.7C1496.12,-684.07 1500.69,-674.92 1504.95,-666.4"/>
<polygon fill="black" stroke="black" points="1508.08,-667.97 1509.42,-657.46 1501.82,-664.84 1508.08,-667.97"/>
</g>
<!-- gz&#45;sensors -->
<g id="node21" class="node">
<title>gz&#45;sensors</title>
<g id="a_node21"><a xlink:href="https://github.com/conda-forge/gz-sensors-feedstock" xlink:title="gz sensors">
<ellipse fill="#fde725" stroke="black" cx="1356.65" cy="-638" rx="64.36" ry="18"/>
<text text-anchor="middle" x="1356.65" y="-633.33" font-family="Times,serif" font-size="14.00">gz sensors</text>
</a>
</g>
</g>
<!-- gz&#45;transport&#45;&gt;gz&#45;sensors -->
<g id="edge16" class="edge">
<title>gz&#45;transport&#45;&gt;gz&#45;sensors</title>
<path fill="none" stroke="black" d="M1454.2,-692.76C1436.43,-682.97 1413.62,-670.4 1394.53,-659.88"/>
<polygon fill="black" stroke="black" points="1396.41,-656.92 1385.97,-655.16 1393.03,-663.05 1396.41,-656.92"/>
</g>
<!-- gz&#45;sim -->
<g id="node22" class="node">
<title>gz&#45;sim</title>
<g id="a_node22"><a xlink:href="https://github.com/conda-forge/gz-sim-feedstock" xlink:title="gz sim">
<ellipse fill="#fde725" stroke="black" cx="1447.65" cy="-566" rx="43.84" ry="18"/>
<text text-anchor="middle" x="1447.65" y="-561.33" font-family="Times,serif" font-size="14.00">gz sim</text>
</a>
</g>
</g>
<!-- gz&#45;transport&#45;&gt;gz&#45;sim -->
<g id="edge17" class="edge">
<title>gz&#45;transport&#45;&gt;gz&#45;sim</title>
<path fill="none" stroke="black" d="M1478.15,-691.9C1474.91,-681.56 1470.83,-668.08 1467.65,-656 1462.35,-635.84 1457.21,-612.88 1453.47,-595.33"/>
<polygon fill="black" stroke="black" points="1456.92,-594.7 1451.43,-585.63 1450.07,-596.14 1456.92,-594.7"/>
</g>
<!-- gz&#45;launch -->
<g id="node23" class="node">
<title>gz&#45;launch</title>
<g id="a_node23"><a xlink:href="https://github.com/conda-forge/gz-launch-feedstock" xlink:title="gz launch">
<ellipse fill="#fde725" stroke="black" cx="1519.65" cy="-494" rx="59.1" ry="18"/>
<text text-anchor="middle" x="1519.65" y="-489.32" font-family="Times,serif" font-size="14.00">gz launch</text>
</a>
</g>
</g>
<!-- gz&#45;transport&#45;&gt;gz&#45;launch -->
<g id="edge18" class="edge">
<title>gz&#45;transport&#45;&gt;gz&#45;launch</title>
<path fill="none" stroke="black" d="M1524.68,-694.28C1541.78,-685.88 1559.9,-673.46 1569.65,-656 1594.33,-611.81 1562.85,-553.85 1539.82,-520.9"/>
<polygon fill="black" stroke="black" points="1542.9,-519.18 1534.2,-513.13 1537.23,-523.28 1542.9,-519.18"/>
</g>
<!-- gz&#45;gui&#45;&gt;gz&#45;sim -->
<g id="edge19" class="edge">
<title>gz&#45;gui&#45;&gt;gz&#45;sim</title>
<path fill="none" stroke="black" d="M1502.54,-621.12C1493.46,-612.17 1481.95,-600.81 1471.81,-590.81"/>
<polygon fill="black" stroke="black" points="1474.36,-588.41 1464.78,-583.88 1469.44,-593.4 1474.36,-588.41"/>
</g>
<!-- gz&#45;gui&#45;&gt;gz&#45;launch -->
<g id="edge20" class="edge">
<title>gz&#45;gui&#45;&gt;gz&#45;launch</title>
<path fill="none" stroke="black" d="M1518.77,-619.59C1518.94,-595.61 1519.25,-552.14 1519.45,-523.42"/>
<polygon fill="black" stroke="black" points="1522.95,-523.65 1519.52,-513.62 1515.95,-523.6 1522.95,-523.65"/>
</g>
<!-- gz&#45;sensors&#45;&gt;gz&#45;sim -->
<g id="edge21" class="edge">
<title>gz&#45;sensors&#45;&gt;gz&#45;sim</title>
<path fill="none" stroke="black" d="M1377.76,-620.76C1389.96,-611.38 1405.48,-599.44 1418.8,-589.2"/>
<polygon fill="black" stroke="black" points="1420.61,-592.22 1426.4,-583.35 1416.34,-586.67 1420.61,-592.22"/>
</g>
<!-- gz&#45;sim&#45;&gt;gz&#45;launch -->
<g id="edge22" class="edge">
<title>gz&#45;sim&#45;&gt;gz&#45;launch</title>
<path fill="none" stroke="black" d="M1463.99,-549.12C1473,-540.36 1484.38,-529.29 1494.5,-519.45"/>
<polygon fill="black" stroke="black" points="1496.81,-522.09 1501.54,-512.61 1491.93,-517.07 1496.81,-522.09"/>
</g>
<!-- gz&#45;fuel&#45;tools -->
<g id="node24" class="node">
<title>gz&#45;fuel&#45;tools</title>
<g id="a_node24"><a xlink:href="https://github.com/conda-forge/gz-fuel-tools-feedstock/pull/45" xlink:title="gz fuel tools ❎">
<ellipse fill="#31688e" stroke="black" cx="1186.65" cy="-638" rx="87.51" ry="18"/>
<text text-anchor="middle" x="1186.65" y="-633.33" font-family="Times,serif" font-size="14.00" fill="white">gz fuel tools ❎</text>
</a>
</g>
</g>
<!-- gz&#45;fuel&#45;tools&#45;&gt;gz&#45;sim -->
<g id="edge23" class="edge">
<title>gz&#45;fuel&#45;tools&#45;&gt;gz&#45;sim</title>
<path fill="none" stroke="black" d="M1238.53,-623.09C1285.81,-610.41 1355.05,-591.84 1400.72,-579.59"/>
<polygon fill="black" stroke="black" points="1401.58,-582.98 1410.33,-577.01 1399.76,-576.22 1401.58,-582.98"/>
</g>
<!-- gz&#45;sim&#45;yarp&#45;plugins -->
<g id="node26" class="node">
<title>gz&#45;sim&#45;yarp&#45;plugins</title>
<g id="a_node26"><a xlink:href="https://github.com/conda-forge/gz-sim-yarp-plugins-feedstock/pull/16" xlink:title="gz sim yarp plugins ❎">
<ellipse fill="#31688e" stroke="black" cx="215.71" cy="-278" rx="124.86" ry="18"/>
<text text-anchor="middle" x="215.71" y="-273.32" font-family="Times,serif" font-size="14.00" fill="white">gz sim yarp plugins ❎</text>
</a>
</g>
</g>
<!-- openvino&#45;tokenizers&#45;&gt;gz&#45;sim&#45;yarp&#45;plugins -->
<!-- google&#45;cloud&#45;cpp&#45;compute -->
<g id="node27" class="node">
<title>google&#45;cloud&#45;cpp&#45;compute</title>
<g id="a_node27"><a xlink:href="https://github.com/conda-forge/google-cloud-cpp-compute-feedstock/pull/29" xlink:title="google cloud cpp compute ❎">
<ellipse fill="#31688e" stroke="black" cx="934.19" cy="-566" rx="156.96" ry="18"/>
<text text-anchor="middle" x="934.19" y="-561.33" font-family="Times,serif" font-size="14.00" fill="white">google cloud cpp compute ❎</text>
</a>
</g>
</g>
<!-- google&#45;cloud&#45;cpp&#45;compute&#45;&gt;google&#45;cloud&#45;cpp -->
<g id="edge26" class="edge">
<title>google&#45;cloud&#45;cpp&#45;compute&#45;&gt;google&#45;cloud&#45;cpp</title>
<path fill="none" stroke="black" d="M890.34,-548.41C863.53,-538.27 829.09,-525.23 800.94,-514.58"/>
<polygon fill="black" stroke="black" points="802.5,-511.43 791.91,-511.17 800.02,-517.98 802.5,-511.43"/>
</g>
<!-- google&#45;cloud&#45;cpp&#45;bigquery -->
<g id="node28" class="node">
<title>google&#45;cloud&#45;cpp&#45;bigquery</title>
<g id="a_node28"><a xlink:href="https://github.com/conda-forge/google-cloud-cpp-bigquery-feedstock/pull/24" xlink:title="google cloud cpp bigquery ❎">
<ellipse fill="#31688e" stroke="black" cx="749.19" cy="-638" rx="158.53" ry="18"/>
<text text-anchor="middle" x="749.19" y="-633.33" font-family="Times,serif" font-size="14.00" fill="white">google cloud cpp bigquery ❎</text>
</a>
</g>
</g>
<!-- google&#45;cloud&#45;cpp&#45;bigquery&#45;&gt;google&#45;cloud&#45;cpp -->
<g id="edge27" class="edge">
<title>google&#45;cloud&#45;cpp&#45;bigquery&#45;&gt;google&#45;cloud&#45;cpp</title>
<path fill="none" stroke="black" d="M749.19,-619.59C749.19,-595.61 749.19,-552.14 749.19,-523.42"/>
<polygon fill="black" stroke="black" points="752.69,-523.62 749.19,-513.62 745.69,-523.62 752.69,-523.62"/>
</g>
<!-- google&#45;cloud&#45;cpp&#45;ai -->
<g id="node29" class="node">
<title>google&#45;cloud&#45;cpp&#45;ai</title>
<g id="a_node29"><a xlink:href="https://github.com/conda-forge/google-cloud-cpp-ai-feedstock/pull/27" xlink:title="google cloud cpp ai ❎">
<ellipse fill="#31688e" stroke="black" cx="562.19" cy="-710" rx="122.76" ry="18"/>
<text text-anchor="middle" x="562.19" y="-705.33" font-family="Times,serif" font-size="14.00" fill="white">google cloud cpp ai ❎</text>
</a>
</g>
</g>
<!-- google&#45;cloud&#45;cpp&#45;ai&#45;&gt;google&#45;cloud&#45;cpp -->
<g id="edge28" class="edge">
<title>google&#45;cloud&#45;cpp&#45;ai&#45;&gt;google&#45;cloud&#45;cpp</title>
<path fill="none" stroke="black" d="M562.34,-691.57C563.28,-672.57 567.1,-641.94 581.19,-620 611.38,-572.96 665.91,-537.33 704.65,-516.38"/>
<polygon fill="black" stroke="black" points="706.08,-519.58 713.29,-511.82 702.81,-513.39 706.08,-519.58"/>
</g>
</g>
</svg>
