<?xml version="1.0" encoding="UTF-8" standalone="no"?>
<!DOCTYPE svg PUBLIC "-//W3C//DTD SVG 1.1//EN"
 "http://www.w3.org/Graphics/SVG/1.1/DTD/svg11.dtd">
<!-- Generated by graphviz version 12.0.0 (20240803.0821)
 -->
<!-- Pages: 1 -->
<svg width="2036pt" height="1716pt"
 viewBox="0.00 0.00 2036.34 1716.00" xmlns="http://www.w3.org/2000/svg" xmlns:xlink="http://www.w3.org/1999/xlink">
<g id="graph0" class="graph" transform="scale(1 1) rotate(0) translate(4 1712)">
<polygon fill="white" stroke="none" points="-4,4 -4,-1712 2032.34,-1712 2032.34,4 -4,4"/>
<!-- arrow&#45;cpp -->
<g id="node1" class="node">
<title>arrow&#45;cpp</title>
<g id="a_node1"><a xlink:href="https://github.com/conda-forge/arrow-cpp-feedstock" xlink:title="arrow cpp">
<ellipse fill="#fde725" stroke="black" cx="169.84" cy="-1402" rx="61.73" ry="18"/>
<text text-anchor="middle" x="169.84" y="-1397.33" font-family="Times,serif" font-size="14.00">arrow cpp</text>
</a>
</g>
</g>
<!-- datafusion -->
<g id="node2" class="node">
<title>datafusion</title>
<g id="a_node2"><a xlink:href="https://github.com/conda-forge/datafusion-feedstock" xlink:title="datafusion">
<ellipse fill="#fde725" stroke="black" cx="63.84" cy="-1330" rx="63.84" ry="18"/>
<text text-anchor="middle" x="63.84" y="-1325.33" font-family="Times,serif" font-size="14.00">datafusion</text>
</a>
</g>
</g>
<!-- arrow&#45;cpp&#45;&gt;datafusion -->
<g id="edge1" class="edge">
<title>arrow&#45;cpp&#45;&gt;datafusion</title>
<path fill="none" stroke="black" d="M145.78,-1385.12C131.52,-1375.7 113.22,-1363.61 97.53,-1353.25"/>
<polygon fill="black" stroke="black" points="99.7,-1350.49 89.42,-1347.9 95.84,-1356.33 99.7,-1350.49"/>
</g>
<!-- arcticdb -->
<g id="node3" class="node">
<title>arcticdb</title>
<g id="a_node3"><a xlink:href="https://github.com/conda-forge/arcticdb-feedstock" xlink:title="arcticdb">
<ellipse fill="#fde725" stroke="black" cx="148.84" cy="-1258" rx="52.26" ry="18"/>
<text text-anchor="middle" x="148.84" y="-1253.33" font-family="Times,serif" font-size="14.00">arcticdb</text>
</a>
</g>
</g>
<!-- arrow&#45;cpp&#45;&gt;arcticdb -->
<g id="edge2" class="edge">
<title>arrow&#45;cpp&#45;&gt;arcticdb</title>
<path fill="none" stroke="black" d="M167.26,-1383.59C163.71,-1359.61 157.29,-1316.14 153.04,-1287.42"/>
<polygon fill="black" stroke="black" points="156.51,-1286.99 151.59,-1277.61 149.59,-1288.01 156.51,-1286.99"/>
</g>
<!-- csp -->
<g id="node4" class="node">
<title>csp</title>
<g id="a_node4"><a xlink:href="https://github.com/conda-forge/csp-feedstock" xlink:title="csp">
<ellipse fill="#fde725" stroke="black" cx="228.84" cy="-1186" rx="28.06" ry="18"/>
<text text-anchor="middle" x="228.84" y="-1181.33" font-family="Times,serif" font-size="14.00">csp</text>
</a>
</g>
</g>
<!-- arrow&#45;cpp&#45;&gt;csp -->
<g id="edge3" class="edge">
<title>arrow&#45;cpp&#45;&gt;csp</title>
<path fill="none" stroke="black" d="M175.95,-1383.77C184.31,-1359.81 199.47,-1314.97 209.84,-1276 215.18,-1255.9 220.05,-1232.94 223.52,-1215.38"/>
<polygon fill="black" stroke="black" points="226.94,-1216.15 225.41,-1205.67 220.07,-1214.82 226.94,-1216.15"/>
</g>
<!-- bazel -->
<g id="node5" class="node">
<title>bazel</title>
<g id="a_node5"><a xlink:href="https://github.com/conda-forge/bazel-feedstock" xlink:title="bazel">
<ellipse fill="#ff8c00" stroke="black" cx="376.17" cy="-926" rx="37.53" ry="18"/>
<text text-anchor="middle" x="376.17" y="-921.33" font-family="Times,serif" font-size="14.00">bazel</text>
</a>
</g>
</g>
<!-- mosh -->
<g id="node6" class="node">
<title>mosh</title>
<g id="a_node6"><a xlink:href="https://github.com/conda-forge/mosh-feedstock/pull/42" xlink:title="mosh ❎">
<ellipse fill="#31688e" stroke="black" cx="376.17" cy="-854" rx="53.31" ry="18"/>
<text text-anchor="middle" x="376.17" y="-849.33" font-family="Times,serif" font-size="14.00" fill="white">mosh ❎</text>
</a>
</g>
</g>
<!-- bazel&#45;&gt;mosh -->
<!-- mysql -->
<g id="node7" class="node">
<title>mysql</title>
<g id="a_node7"><a xlink:href="https://github.com/conda-forge/mysql-feedstock/pull/107" xlink:title="mysql ❎">
<ellipse fill="#31688e" stroke="black" cx="376.17" cy="-782" rx="56.47" ry="18"/>
<text text-anchor="middle" x="376.17" y="-777.33" font-family="Times,serif" font-size="14.00" fill="white">mysql ❎</text>
</a>
</g>
</g>
<!-- mosh&#45;&gt;mysql -->
<!-- onnx -->
<g id="node8" class="node">
<title>onnx</title>
<g id="a_node8"><a xlink:href="https://github.com/conda-forge/onnx-feedstock/pull/125" xlink:title="onnx ❎">
<ellipse fill="#31688e" stroke="black" cx="376.17" cy="-710" rx="50.68" ry="18"/>
<text text-anchor="middle" x="376.17" y="-705.33" font-family="Times,serif" font-size="14.00" fill="white">onnx ❎</text>
</a>
</g>
</g>
<!-- mysql&#45;&gt;onnx -->
<!-- paraview -->
<g id="node9" class="node">
<title>paraview</title>
<g id="a_node9"><a xlink:href="https://github.com/conda-forge/paraview-feedstock/pull/269" xlink:title="paraview ❎">
<ellipse fill="#31688e" stroke="black" cx="376.17" cy="-638" rx="72.25" ry="18"/>
<text text-anchor="middle" x="376.17" y="-633.33" font-family="Times,serif" font-size="14.00" fill="white">paraview ❎</text>
</a>
</g>
</g>
<!-- onnx&#45;&gt;paraview -->
<!-- qgis -->
<g id="node14" class="node">
<title>qgis</title>
<g id="a_node14"><a xlink:href="https://github.com/conda-forge/qgis-feedstock/pull/495" xlink:title="qgis ❎">
<ellipse fill="#31688e" stroke="black" cx="376.17" cy="-566" rx="47.53" ry="18"/>
<text text-anchor="middle" x="376.17" y="-561.33" font-family="Times,serif" font-size="14.00" fill="white">qgis ❎</text>
</a>
</g>
</g>
<!-- paraview&#45;&gt;qgis -->
<!-- opencv -->
<g id="node10" class="node">
<title>opencv</title>
<g id="a_node10"><a xlink:href="https://github.com/conda-forge/opencv-feedstock" xlink:title="opencv">
<ellipse fill="#fde725" stroke="black" cx="1776.1" cy="-1366" rx="46.47" ry="18"/>
<text text-anchor="middle" x="1776.1" y="-1361.33" font-family="Times,serif" font-size="14.00">opencv</text>
</a>
</g>
</g>
<!-- imp -->
<g id="node11" class="node">
<title>imp</title>
<g id="a_node11"><a xlink:href="https://github.com/conda-forge/imp-feedstock" xlink:title="imp">
<ellipse fill="#fde725" stroke="black" cx="1718.1" cy="-1294" rx="30.16" ry="18"/>
<text text-anchor="middle" x="1718.1" y="-1289.33" font-family="Times,serif" font-size="14.00">imp</text>
</a>
</g>
</g>
<!-- opencv&#45;&gt;imp -->
<g id="edge8" class="edge">
<title>opencv&#45;&gt;imp</title>
<path fill="none" stroke="black" d="M1762.36,-1348.41C1755.15,-1339.71 1746.18,-1328.89 1738.2,-1319.26"/>
<polygon fill="black" stroke="black" points="1740.99,-1317.14 1731.92,-1311.68 1735.6,-1321.61 1740.99,-1317.14"/>
</g>
<!-- gazebo&#45;yarp&#45;plugins -->
<g id="node12" class="node">
<title>gazebo&#45;yarp&#45;plugins</title>
<g id="a_node12"><a xlink:href="https://github.com/conda-forge/gazebo-yarp-plugins-feedstock" xlink:title="gazebo yarp plugins">
<ellipse fill="#fde725" stroke="black" cx="1916.1" cy="-1294" rx="112.24" ry="18"/>
<text text-anchor="middle" x="1916.1" y="-1289.33" font-family="Times,serif" font-size="14.00">gazebo yarp plugins</text>
</a>
</g>
</g>
<!-- opencv&#45;&gt;gazebo&#45;yarp&#45;plugins -->
<g id="edge9" class="edge">
<title>opencv&#45;&gt;gazebo&#45;yarp&#45;plugins</title>
<path fill="none" stroke="black" d="M1803.76,-1351.17C1823.45,-1341.32 1850.31,-1327.89 1872.83,-1316.64"/>
<polygon fill="black" stroke="black" points="1874.09,-1319.92 1881.47,-1312.31 1870.96,-1313.66 1874.09,-1319.92"/>
</g>
<!-- nvidia&#45;dali&#45;python -->
<g id="node13" class="node">
<title>nvidia&#45;dali&#45;python</title>
<g id="a_node13"><a xlink:href="https://github.com/conda-forge/nvidia-dali-python-feedstock" xlink:title="nvidia dali python">
<ellipse fill="#fde725" stroke="black" cx="1776.1" cy="-1222" rx="101.19" ry="18"/>
<text text-anchor="middle" x="1776.1" y="-1217.33" font-family="Times,serif" font-size="14.00">nvidia dali python</text>
</a>
</g>
</g>
<!-- opencv&#45;&gt;nvidia&#45;dali&#45;python -->
<g id="edge10" class="edge">
<title>opencv&#45;&gt;nvidia&#45;dali&#45;python</title>
<path fill="none" stroke="black" d="M1776.1,-1347.59C1776.1,-1323.61 1776.1,-1280.14 1776.1,-1251.42"/>
<polygon fill="black" stroke="black" points="1779.6,-1251.62 1776.1,-1241.62 1772.6,-1251.62 1779.6,-1251.62"/>
</g>
<!-- tensorflow -->
<g id="node15" class="node">
<title>tensorflow</title>
<g id="a_node15"><a xlink:href="https://github.com/conda-forge/tensorflow-feedstock/pull/411" xlink:title="tensorflow ❎">
<ellipse fill="#31688e" stroke="black" cx="376.17" cy="-494" rx="79.09" ry="18"/>
<text text-anchor="middle" x="376.17" y="-489.32" font-family="Times,serif" font-size="14.00" fill="white">tensorflow ❎</text>
</a>
</g>
</g>
<!-- qgis&#45;&gt;tensorflow -->
<!-- r&#45;protolite -->
<g id="node16" class="node">
<title>r&#45;protolite</title>
<g id="a_node16"><a xlink:href="https://github.com/conda-forge/r-protolite-feedstock/pull/46" xlink:title="r protolite ✓">
<ellipse fill="#31688e" stroke="black" cx="376.17" cy="-422" rx="70.15" ry="18"/>
<text text-anchor="middle" x="376.17" y="-417.32" font-family="Times,serif" font-size="14.00" fill="white">r protolite ✓</text>
</a>
</g>
</g>
<!-- tensorflow&#45;&gt;r&#45;protolite -->
<!-- pytorch&#45;cpu -->
<g id="node17" class="node">
<title>pytorch&#45;cpu</title>
<g id="a_node17"><a xlink:href="https://github.com/conda-forge/pytorch-cpu-feedstock/pull/310" xlink:title="pytorch cpu ❎">
<ellipse fill="#31688e" stroke="black" cx="376.17" cy="-350" rx="85.93" ry="18"/>
<text text-anchor="middle" x="376.17" y="-345.32" font-family="Times,serif" font-size="14.00" fill="white">pytorch cpu ❎</text>
</a>
</g>
</g>
<!-- r&#45;protolite&#45;&gt;pytorch&#45;cpu -->
<!-- go&#45;cockroach -->
<g id="node18" class="node">
<title>go&#45;cockroach</title>
<g id="a_node18"><a xlink:href="https://github.com/conda-forge/go-cockroach-feedstock/pull/30" xlink:title="go cockroach ❎">
<ellipse fill="#31688e" stroke="black" cx="376.17" cy="-278" rx="91.72" ry="18"/>
<text text-anchor="middle" x="376.17" y="-273.32" font-family="Times,serif" font-size="14.00" fill="white">go cockroach ❎</text>
</a>
</g>
</g>
<!-- pytorch&#45;cpu&#45;&gt;go&#45;cockroach -->
<!-- cartographer -->
<g id="node22" class="node">
<title>cartographer</title>
<g id="a_node22"><a xlink:href="https://github.com/conda-forge/cartographer-feedstock/pull/73" xlink:title="cartographer ❎">
<ellipse fill="#31688e" stroke="black" cx="376.17" cy="-206" rx="92.25" ry="18"/>
<text text-anchor="middle" x="376.17" y="-201.32" font-family="Times,serif" font-size="14.00" fill="white">cartographer ❎</text>
</a>
</g>
</g>
<!-- go&#45;cockroach&#45;&gt;cartographer -->
<!-- orc -->
<g id="node19" class="node">
<title>orc</title>
<g id="a_node19"><a xlink:href="https://github.com/conda-forge/orc-feedstock/pull/82" xlink:title="orc ✓">
<ellipse fill="#31688e" stroke="black" cx="169.84" cy="-1474" rx="34.9" ry="18"/>
<text text-anchor="middle" x="169.84" y="-1469.33" font-family="Times,serif" font-size="14.00" fill="white">orc ✓</text>
</a>
</g>
</g>
<!-- orc&#45;&gt;arrow&#45;cpp -->
<g id="edge16" class="edge">
<title>orc&#45;&gt;arrow&#45;cpp</title>
<path fill="none" stroke="black" d="M169.84,-1455.7C169.84,-1448.41 169.84,-1439.73 169.84,-1431.54"/>
<polygon fill="black" stroke="black" points="173.34,-1431.62 169.84,-1421.62 166.34,-1431.62 173.34,-1431.62"/>
</g>
<!-- gazebo -->
<g id="node20" class="node">
<title>gazebo</title>
<g id="a_node20"><a xlink:href="https://github.com/conda-forge/gazebo-feedstock/pull/236" xlink:title="gazebo ❎">
<ellipse fill="#31688e" stroke="black" cx="1916.1" cy="-1366" rx="61.73" ry="18"/>
<text text-anchor="middle" x="1916.1" y="-1361.33" font-family="Times,serif" font-size="14.00" fill="white">gazebo ❎</text>
</a>
</g>
</g>
<!-- gazebo&#45;&gt;gazebo&#45;yarp&#45;plugins -->
<g id="edge17" class="edge">
<title>gazebo&#45;&gt;gazebo&#45;yarp&#45;plugins</title>
<path fill="none" stroke="black" d="M1916.1,-1347.7C1916.1,-1340.41 1916.1,-1331.73 1916.1,-1323.54"/>
<polygon fill="black" stroke="black" points="1919.6,-1323.62 1916.1,-1313.62 1912.6,-1323.62 1919.6,-1323.62"/>
</g>
<!-- google&#45;cloud&#45;cpp -->
<g id="node21" class="node">
<title>google&#45;cloud&#45;cpp</title>
<g id="a_node21"><a xlink:href="https://github.com/conda-forge/google-cloud-cpp-feedstock" xlink:title="google cloud cpp">
<ellipse fill="#fde725" stroke="black" cx="402.84" cy="-1186" rx="95.4" ry="18"/>
<text text-anchor="middle" x="402.84" y="-1181.33" font-family="Times,serif" font-size="14.00">google cloud cpp</text>
</a>
</g>
</g>
<!-- sentencepiece -->
<g id="node23" class="node">
<title>sentencepiece</title>
<g id="a_node23"><a xlink:href="https://github.com/conda-forge/sentencepiece-feedstock/pull/62" xlink:title="sentencepiece ❎">
<ellipse fill="#31688e" stroke="black" cx="1477.1" cy="-1438" rx="97.51" ry="18"/>
<text text-anchor="middle" x="1477.1" y="-1433.33" font-family="Times,serif" font-size="14.00" fill="white">sentencepiece ❎</text>
</a>
</g>
</g>
<!-- openvino&#45;tokenizers -->
<g id="node24" class="node">
<title>openvino&#45;tokenizers</title>
<g id="a_node24"><a xlink:href="https://github.com/conda-forge/openvino-tokenizers-feedstock" xlink:title="openvino tokenizers">
<ellipse fill="#fde725" stroke="black" cx="1600.1" cy="-1366" rx="111.71" ry="18"/>
<text text-anchor="middle" x="1600.1" y="-1361.33" font-family="Times,serif" font-size="14.00">openvino tokenizers</text>
</a>
</g>
</g>
<!-- sentencepiece&#45;&gt;openvino&#45;tokenizers -->
<g id="edge19" class="edge">
<title>sentencepiece&#45;&gt;openvino&#45;tokenizers</title>
<path fill="none" stroke="black" d="M1506.25,-1420.41C1522.67,-1411.06 1543.4,-1399.27 1561.2,-1389.14"/>
<polygon fill="black" stroke="black" points="1562.46,-1392.45 1569.42,-1384.46 1559,-1386.37 1562.46,-1392.45"/>
</g>
<!-- curated&#45;tokenizers -->
<g id="node25" class="node">
<title>curated&#45;tokenizers</title>
<g id="a_node25"><a xlink:href="https://github.com/conda-forge/curated-tokenizers-feedstock" xlink:title="curated tokenizers">
<ellipse fill="#fde725" stroke="black" cx="1365.1" cy="-1366" rx="104.87" ry="18"/>
<text text-anchor="middle" x="1365.1" y="-1361.33" font-family="Times,serif" font-size="14.00">curated tokenizers</text>
</a>
</g>
</g>
<!-- sentencepiece&#45;&gt;curated&#45;tokenizers -->
<g id="edge20" class="edge">
<title>sentencepiece&#45;&gt;curated&#45;tokenizers</title>
<path fill="none" stroke="black" d="M1450.27,-1420.23C1435.7,-1411.12 1417.46,-1399.72 1401.61,-1389.82"/>
<polygon fill="black" stroke="black" points="1403.72,-1387.01 1393.38,-1384.67 1400.01,-1392.94 1403.72,-1387.01"/>
</g>
<!-- tomviz -->
<g id="node26" class="node">
<title>tomviz</title>
<g id="a_node26"><a xlink:href="https://github.com/conda-forge/tomviz-feedstock/pull/70" xlink:title="tomviz ❎">
<ellipse fill="#31688e" stroke="black" cx="1006.28" cy="-1690" rx="60.15" ry="18"/>
<text text-anchor="middle" x="1006.28" y="-1685.33" font-family="Times,serif" font-size="14.00" fill="white">tomviz ❎</text>
</a>
</g>
</g>
<!-- protozfits -->
<g id="node27" class="node">
<title>protozfits</title>
<g id="a_node27"><a xlink:href="https://github.com/conda-forge/protozfits-feedstock/pull/46" xlink:title="protozfits ✓">
<ellipse fill="#31688e" stroke="black" cx="1006.28" cy="-1618" rx="66.99" ry="18"/>
<text text-anchor="middle" x="1006.28" y="-1613.33" font-family="Times,serif" font-size="14.00" fill="white">protozfits ✓</text>
</a>
</g>
</g>
<!-- tomviz&#45;&gt;protozfits -->
<!-- grpc_java_plugin -->
<g id="node28" class="node">
<title>grpc_java_plugin</title>
<g id="a_node28"><a xlink:href="https://github.com/conda-forge/grpc_java_plugin-feedstock/pull/88" xlink:title="grpc_java_plugin ✓">
<ellipse fill="#31688e" stroke="black" cx="1006.28" cy="-1546" rx="103.29" ry="18"/>
<text text-anchor="middle" x="1006.28" y="-1541.33" font-family="Times,serif" font-size="14.00" fill="white">grpc_java_plugin ✓</text>
</a>
</g>
</g>
<!-- protozfits&#45;&gt;grpc_java_plugin -->
<!-- or&#45;tools -->
<g id="node33" class="node">
<title>or&#45;tools</title>
<g id="a_node33"><a xlink:href="https://github.com/conda-forge/or-tools-feedstock/pull/64" xlink:title="or tools ❎">
<ellipse fill="#31688e" stroke="black" cx="1006.28" cy="-1474" rx="64.36" ry="18"/>
<text text-anchor="middle" x="1006.28" y="-1469.33" font-family="Times,serif" font-size="14.00" fill="white">or tools ❎</text>
</a>
</g>
</g>
<!-- grpc_java_plugin&#45;&gt;or&#45;tools -->
<!-- libignition&#45;sensors -->
<g id="node29" class="node">
<title>libignition&#45;sensors</title>
<g id="a_node29"><a xlink:href="https://github.com/conda-forge/libignition-sensors-feedstock" xlink:title="libignition sensors">
<ellipse fill="#35b779" stroke="black" cx="285.98" cy="-162" rx="103.82" ry="18"/>
<text text-anchor="middle" x="285.98" y="-157.32" font-family="Times,serif" font-size="14.00">libignition sensors</text>
</a>
</g>
</g>
<!-- libignition&#45;gazebo -->
<g id="node30" class="node">
<title>libignition&#45;gazebo</title>
<g id="a_node30"><a xlink:href="https://github.com/conda-forge/libignition-gazebo-feedstock" xlink:title="libignition gazebo">
<ellipse fill="#fde725" stroke="black" cx="359.98" cy="-90" rx="100.66" ry="18"/>
<text text-anchor="middle" x="359.98" y="-85.33" font-family="Times,serif" font-size="14.00">libignition gazebo</text>
</a>
</g>
</g>
<!-- libignition&#45;sensors&#45;&gt;libignition&#45;gazebo -->
<g id="edge23" class="edge">
<title>libignition&#45;sensors&#45;&gt;libignition&#45;gazebo</title>
<path fill="none" stroke="black" d="M303.89,-144.05C312.83,-135.61 323.8,-125.22 333.67,-115.89"/>
<polygon fill="black" stroke="black" points="336.02,-118.49 340.88,-109.07 331.21,-113.4 336.02,-118.49"/>
</g>
<!-- libignition&#45;launch -->
<g id="node31" class="node">
<title>libignition&#45;launch</title>
<g id="a_node31"><a xlink:href="https://github.com/conda-forge/libignition-launch-feedstock" xlink:title="libignition launch">
<ellipse fill="#fde725" stroke="black" cx="423.98" cy="-18" rx="98.56" ry="18"/>
<text text-anchor="middle" x="423.98" y="-13.32" font-family="Times,serif" font-size="14.00">libignition launch</text>
</a>
</g>
</g>
<!-- libignition&#45;gazebo&#45;&gt;libignition&#45;launch -->
<g id="edge24" class="edge">
<title>libignition&#45;gazebo&#45;&gt;libignition&#45;launch</title>
<path fill="none" stroke="black" d="M375.47,-72.05C383.1,-63.71 392.45,-53.49 400.89,-44.25"/>
<polygon fill="black" stroke="black" points="403.44,-46.65 407.61,-36.91 398.28,-41.92 403.44,-46.65"/>
</g>
<!-- libignition&#45;gui -->
<g id="node32" class="node">
<title>libignition&#45;gui</title>
<g id="a_node32"><a xlink:href="https://github.com/conda-forge/libignition-gui-feedstock" xlink:title="libignition gui">
<ellipse fill="#35b779" stroke="black" cx="488.98" cy="-162" rx="81.2" ry="18"/>
<text text-anchor="middle" x="488.98" y="-157.32" font-family="Times,serif" font-size="14.00">libignition gui</text>
</a>
</g>
</g>
<!-- libignition&#45;gui&#45;&gt;libignition&#45;gazebo -->
<g id="edge25" class="edge">
<title>libignition&#45;gui&#45;&gt;libignition&#45;gazebo</title>
<path fill="none" stroke="black" d="M459.39,-144.94C441.86,-135.43 419.41,-123.25 400.28,-112.87"/>
<polygon fill="black" stroke="black" points="402.12,-109.89 391.66,-108.19 398.78,-116.04 402.12,-109.89"/>
</g>
<!-- libignition&#45;gui&#45;&gt;libignition&#45;launch -->
<g id="edge26" class="edge">
<title>libignition&#45;gui&#45;&gt;libignition&#45;launch</title>
<path fill="none" stroke="black" d="M487.86,-143.76C486.09,-125.19 481.54,-95.19 469.98,-72 465.03,-62.07 457.78,-52.5 450.49,-44.29"/>
<polygon fill="black" stroke="black" points="453.11,-41.96 443.72,-37.06 448,-46.75 453.11,-41.96"/>
</g>
<!-- cpp&#45;opentelemetry&#45;sdk -->
<g id="node34" class="node">
<title>cpp&#45;opentelemetry&#45;sdk</title>
<g id="a_node34"><a xlink:href="https://github.com/conda-forge/cpp-opentelemetry-sdk-feedstock/pull/73" xlink:title="cpp opentelemetry sdk ❎">
<ellipse fill="#31688e" stroke="black" cx="1006.28" cy="-1402" rx="141.17" ry="18"/>
<text text-anchor="middle" x="1006.28" y="-1397.33" font-family="Times,serif" font-size="14.00" fill="white">cpp opentelemetry sdk ❎</text>
</a>
</g>
</g>
<!-- or&#45;tools&#45;&gt;cpp&#45;opentelemetry&#45;sdk -->
<!-- xilinx&#45;runtime -->
<g id="node35" class="node">
<title>xilinx&#45;runtime</title>
<g id="a_node35"><a xlink:href="https://github.com/conda-forge/xilinx-runtime-feedstock/pull/39" xlink:title="xilinx runtime ❎">
<ellipse fill="#31688e" stroke="black" cx="1006.28" cy="-1330" rx="96.98" ry="18"/>
<text text-anchor="middle" x="1006.28" y="-1325.33" font-family="Times,serif" font-size="14.00" fill="white">xilinx runtime ❎</text>
</a>
</g>
</g>
<!-- cpp&#45;opentelemetry&#45;sdk&#45;&gt;xilinx&#45;runtime -->
<!-- libpulsar -->
<g id="node36" class="node">
<title>libpulsar</title>
<g id="a_node36"><a xlink:href="https://github.com/conda-forge/libpulsar-feedstock/pull/24" xlink:title="libpulsar ❎">
<ellipse fill="#31688e" stroke="black" cx="1006.28" cy="-1258" rx="70.68" ry="18"/>
<text text-anchor="middle" x="1006.28" y="-1253.33" font-family="Times,serif" font-size="14.00" fill="white">libpulsar ❎</text>
</a>
</g>
</g>
<!-- xilinx&#45;runtime&#45;&gt;libpulsar -->
<!-- gnss&#45;sdr -->
<g id="node45" class="node">
<title>gnss&#45;sdr</title>
<g id="a_node45"><a xlink:href="https://github.com/conda-forge/gnss-sdr-feedstock/pull/32" xlink:title="gnss sdr ❎">
<ellipse fill="#31688e" stroke="black" cx="1006.28" cy="-1186" rx="69.1" ry="18"/>
<text text-anchor="middle" x="1006.28" y="-1181.33" font-family="Times,serif" font-size="14.00" fill="white">gnss sdr ❎</text>
</a>
</g>
</g>
<!-- libpulsar&#45;&gt;gnss&#45;sdr -->
<!-- gz&#45;msgs -->
<g id="node37" class="node">
<title>gz&#45;msgs</title>
<g id="a_node37"><a xlink:href="https://github.com/conda-forge/gz-msgs-feedstock/pull/51" xlink:title="gz msgs ❎">
<ellipse fill="#31688e" stroke="black" cx="967.47" cy="-710" rx="67.52" ry="18"/>
<text text-anchor="middle" x="967.47" y="-705.33" font-family="Times,serif" font-size="14.00" fill="white">gz msgs ❎</text>
</a>
</g>
</g>
<!-- gz&#45;transport -->
<g id="node38" class="node">
<title>gz&#45;transport</title>
<g id="a_node38"><a xlink:href="https://github.com/conda-forge/gz-transport-feedstock" xlink:title="gz transport">
<ellipse fill="#fde725" stroke="black" cx="917.47" cy="-638" rx="73.3" ry="18"/>
<text text-anchor="middle" x="917.47" y="-633.33" font-family="Times,serif" font-size="14.00">gz transport</text>
</a>
</g>
</g>
<!-- gz&#45;msgs&#45;&gt;gz&#45;transport -->
<g id="edge31" class="edge">
<title>gz&#45;msgs&#45;&gt;gz&#45;transport</title>
<path fill="none" stroke="black" d="M955.36,-692.05C949.59,-683.97 942.55,-674.12 936.12,-665.11"/>
<polygon fill="black" stroke="black" points="939,-663.12 930.34,-657.02 933.3,-667.19 939,-663.12"/>
</g>
<!-- gz&#45;fuel&#45;tools -->
<g id="node39" class="node">
<title>gz&#45;fuel&#45;tools</title>
<g id="a_node39"><a xlink:href="https://github.com/conda-forge/gz-fuel-tools-feedstock" xlink:title="gz fuel tools">
<ellipse fill="#fde725" stroke="black" cx="1118.47" cy="-638" rx="72.25" ry="18"/>
<text text-anchor="middle" x="1118.47" y="-633.33" font-family="Times,serif" font-size="14.00">gz fuel tools</text>
</a>
</g>
</g>
<!-- gz&#45;msgs&#45;&gt;gz&#45;fuel&#45;tools -->
<g id="edge32" class="edge">
<title>gz&#45;msgs&#45;&gt;gz&#45;fuel&#45;tools</title>
<path fill="none" stroke="black" d="M1000.23,-693.81C1022.14,-683.65 1051.22,-670.18 1075.05,-659.13"/>
<polygon fill="black" stroke="black" points="1076.27,-662.42 1083.87,-655.04 1073.33,-656.07 1076.27,-662.42"/>
</g>
<!-- gz&#45;gui -->
<g id="node40" class="node">
<title>gz&#45;gui</title>
<g id="a_node40"><a xlink:href="https://github.com/conda-forge/gz-gui-feedstock" xlink:title="gz gui">
<ellipse fill="#fde725" stroke="black" cx="826.47" cy="-566" rx="41.74" ry="18"/>
<text text-anchor="middle" x="826.47" y="-561.33" font-family="Times,serif" font-size="14.00">gz gui</text>
</a>
</g>
</g>
<!-- gz&#45;msgs&#45;&gt;gz&#45;gui -->
<g id="edge33" class="edge">
<title>gz&#45;msgs&#45;&gt;gz&#45;gui</title>
<path fill="none" stroke="black" d="M910.37,-700.07C883.4,-692.81 853.28,-679.68 835.47,-656 822.62,-638.92 820.98,-614.47 822.22,-595.53"/>
<polygon fill="black" stroke="black" points="825.68,-596.08 823.17,-585.78 818.72,-595.39 825.68,-596.08"/>
</g>
<!-- gz&#45;sensors -->
<g id="node41" class="node">
<title>gz&#45;sensors</title>
<g id="a_node41"><a xlink:href="https://github.com/conda-forge/gz-sensors-feedstock" xlink:title="gz sensors">
<ellipse fill="#fde725" stroke="black" cx="1026.47" cy="-566" rx="64.36" ry="18"/>
<text text-anchor="middle" x="1026.47" y="-561.33" font-family="Times,serif" font-size="14.00">gz sensors</text>
</a>
</g>
</g>
<!-- gz&#45;msgs&#45;&gt;gz&#45;sensors -->
<g id="edge34" class="edge">
<title>gz&#45;msgs&#45;&gt;gz&#45;sensors</title>
<path fill="none" stroke="black" d="M979.27,-691.93C985.87,-681.82 993.87,-668.57 999.47,-656 1008.21,-636.37 1015.16,-613.1 1019.82,-595.28"/>
<polygon fill="black" stroke="black" points="1023.19,-596.2 1022.24,-585.65 1016.4,-594.5 1023.19,-596.2"/>
</g>
<!-- gz&#45;sim -->
<g id="node42" class="node">
<title>gz&#45;sim</title>
<g id="a_node42"><a xlink:href="https://github.com/conda-forge/gz-sim-feedstock" xlink:title="gz sim">
<ellipse fill="#fde725" stroke="black" cx="997.47" cy="-494" rx="43.84" ry="18"/>
<text text-anchor="middle" x="997.47" y="-489.32" font-family="Times,serif" font-size="14.00">gz sim</text>
</a>
</g>
</g>
<!-- gz&#45;msgs&#45;&gt;gz&#45;sim -->
<g id="edge35" class="edge">
<title>gz&#45;msgs&#45;&gt;gz&#45;sim</title>
<path fill="none" stroke="black" d="M1030.75,-703.3C1092.05,-696.31 1178.7,-682.05 1199.47,-656 1252.23,-589.83 1117.43,-533.72 1042.93,-508.8"/>
<polygon fill="black" stroke="black" points="1044.43,-505.61 1033.84,-505.83 1042.25,-512.27 1044.43,-505.61"/>
</g>
<!-- gz&#45;launch -->
<g id="node43" class="node">
<title>gz&#45;launch</title>
<g id="a_node43"><a xlink:href="https://github.com/conda-forge/gz-launch-feedstock" xlink:title="gz launch">
<ellipse fill="#fde725" stroke="black" cx="877.47" cy="-422" rx="59.1" ry="18"/>
<text text-anchor="middle" x="877.47" y="-417.32" font-family="Times,serif" font-size="14.00">gz launch</text>
</a>
</g>
</g>
<!-- gz&#45;msgs&#45;&gt;gz&#45;launch -->
<g id="edge36" class="edge">
<title>gz&#45;msgs&#45;&gt;gz&#45;launch</title>
<path fill="none" stroke="black" d="M912.99,-699.13C882.6,-691.44 845.53,-678.2 818.47,-656 789.65,-632.36 785.38,-619.93 775.47,-584 760.34,-529.16 811.54,-475.36 846.8,-445.94"/>
<polygon fill="black" stroke="black" points="848.62,-448.97 854.19,-439.95 844.22,-443.53 848.62,-448.97"/>
</g>
<!-- gz&#45;transport&#45;&gt;gz&#45;gui -->
<g id="edge37" class="edge">
<title>gz&#45;transport&#45;&gt;gz&#45;gui</title>
<path fill="none" stroke="black" d="M895.9,-620.41C883.81,-611.11 868.56,-599.38 855.43,-589.28"/>
<polygon fill="black" stroke="black" points="857.58,-586.52 847.52,-583.2 853.32,-592.07 857.58,-586.52"/>
</g>
<!-- gz&#45;transport&#45;&gt;gz&#45;sensors -->
<g id="edge38" class="edge">
<title>gz&#45;transport&#45;&gt;gz&#45;sensors</title>
<path fill="none" stroke="black" d="M942.75,-620.76C957.44,-611.33 976.14,-599.32 992.15,-589.04"/>
<polygon fill="black" stroke="black" points="993.9,-592.07 1000.43,-583.72 990.12,-586.18 993.9,-592.07"/>
</g>
<!-- gz&#45;transport&#45;&gt;gz&#45;sim -->
<g id="edge39" class="edge">
<title>gz&#45;transport&#45;&gt;gz&#45;sim</title>
<path fill="none" stroke="black" d="M922.64,-619.87C928.62,-601.39 939.45,-571.46 953.47,-548 959.39,-538.1 967.09,-528.13 974.4,-519.55"/>
<polygon fill="black" stroke="black" points="976.79,-522.13 980.78,-512.32 971.54,-517.5 976.79,-522.13"/>
</g>
<!-- gz&#45;transport&#45;&gt;gz&#45;launch -->
<g id="edge40" class="edge">
<title>gz&#45;transport&#45;&gt;gz&#45;launch</title>
<path fill="none" stroke="black" d="M914.26,-619.85C907.4,-583.14 891.24,-496.66 882.8,-451.53"/>
<polygon fill="black" stroke="black" points="886.24,-450.91 880.97,-441.72 879.36,-452.19 886.24,-450.91"/>
</g>
<!-- gz&#45;fuel&#45;tools&#45;&gt;gz&#45;sim -->
<g id="edge41" class="edge">
<title>gz&#45;fuel&#45;tools&#45;&gt;gz&#45;sim</title>
<path fill="none" stroke="black" d="M1118.97,-619.82C1118.67,-600.47 1115.46,-568.99 1099.47,-548 1085.53,-529.7 1063.46,-517.13 1043.41,-508.85"/>
<polygon fill="black" stroke="black" points="1044.85,-505.65 1034.26,-505.33 1042.34,-512.19 1044.85,-505.65"/>
</g>
<!-- gz&#45;gui&#45;&gt;gz&#45;sim -->
<g id="edge42" class="edge">
<title>gz&#45;gui&#45;&gt;gz&#45;sim</title>
<path fill="none" stroke="black" d="M855.86,-552.97C883.71,-541.57 925.77,-524.35 956.82,-511.64"/>
<polygon fill="black" stroke="black" points="957.98,-514.95 965.91,-507.92 955.33,-508.47 957.98,-514.95"/>
</g>
<!-- gz&#45;gui&#45;&gt;gz&#45;launch -->
<g id="edge43" class="edge">
<title>gz&#45;gui&#45;&gt;gz&#45;launch</title>
<path fill="none" stroke="black" d="M832.62,-547.87C841.27,-523.78 857.14,-479.6 867.49,-450.77"/>
<polygon fill="black" stroke="black" points="870.7,-452.21 870.78,-441.61 864.11,-449.84 870.7,-452.21"/>
</g>
<!-- gz&#45;sensors&#45;&gt;gz&#45;sim -->
<g id="edge44" class="edge">
<title>gz&#45;sensors&#45;&gt;gz&#45;sim</title>
<path fill="none" stroke="black" d="M1019.3,-547.7C1016.17,-540.15 1012.43,-531.12 1008.94,-522.68"/>
<polygon fill="black" stroke="black" points="1012.19,-521.4 1005.13,-513.5 1005.73,-524.08 1012.19,-521.4"/>
</g>
<!-- gz&#45;sim&#45;&gt;gz&#45;launch -->
<g id="edge45" class="edge">
<title>gz&#45;sim&#45;&gt;gz&#45;launch</title>
<path fill="none" stroke="black" d="M972.89,-478.67C955.92,-468.77 933.06,-455.43 913.97,-444.29"/>
<polygon fill="black" stroke="black" points="915.8,-441.31 905.4,-439.29 912.27,-447.36 915.8,-441.31"/>
</g>
<!-- openvino -->
<g id="node44" class="node">
<title>openvino</title>
<g id="a_node44"><a xlink:href="https://github.com/conda-forge/openvino-feedstock/pull/117" xlink:title="openvino ❎">
<ellipse fill="#31688e" stroke="black" cx="1688.1" cy="-1438" rx="71.73" ry="18"/>
<text text-anchor="middle" x="1688.1" y="-1433.33" font-family="Times,serif" font-size="14.00" fill="white">openvino ❎</text>
</a>
</g>
</g>
<!-- openvino&#45;&gt;opencv -->
<g id="edge46" class="edge">
<title>openvino&#45;&gt;opencv</title>
<path fill="none" stroke="black" d="M1708.96,-1420.41C1720.49,-1411.24 1734.99,-1399.7 1747.56,-1389.7"/>
<polygon fill="black" stroke="black" points="1749.47,-1392.66 1755.12,-1383.69 1745.11,-1387.18 1749.47,-1392.66"/>
</g>
<!-- openvino&#45;&gt;openvino&#45;tokenizers -->
<g id="edge47" class="edge">
<title>openvino&#45;&gt;openvino&#45;tokenizers</title>
<path fill="none" stroke="black" d="M1667.25,-1420.41C1656.23,-1411.65 1642.51,-1400.73 1630.34,-1391.06"/>
<polygon fill="black" stroke="black" points="1632.61,-1388.38 1622.6,-1384.9 1628.25,-1393.86 1632.61,-1388.38"/>
</g>
<!-- tensorstore -->
<g id="node46" class="node">
<title>tensorstore</title>
<g id="a_node46"><a xlink:href="https://github.com/conda-forge/tensorstore-feedstock/pull/52" xlink:title="tensorstore ❎">
<ellipse fill="#31688e" stroke="black" cx="1006.28" cy="-1114" rx="84.35" ry="18"/>
<text text-anchor="middle" x="1006.28" y="-1109.33" font-family="Times,serif" font-size="14.00" fill="white">tensorstore ❎</text>
</a>
</g>
</g>
<!-- gnss&#45;sdr&#45;&gt;tensorstore -->
<!-- gcld3 -->
<g id="node47" class="node">
<title>gcld3</title>
<g id="a_node47"><a xlink:href="https://github.com/conda-forge/gcld3-feedstock/pull/15" xlink:title="gcld3 ✓">
<ellipse fill="#31688e" stroke="black" cx="1006.28" cy="-1042" rx="46.47" ry="18"/>
<text text-anchor="middle" x="1006.28" y="-1037.33" font-family="Times,serif" font-size="14.00" fill="white">gcld3 ✓</text>
</a>
</g>
</g>
<!-- tensorstore&#45;&gt;gcld3 -->
<!-- bloaty -->
<g id="node48" class="node">
<title>bloaty</title>
<g id="a_node48"><a xlink:href="https://github.com/conda-forge/bloaty-feedstock/pull/6" xlink:title="bloaty ✓">
<ellipse fill="#31688e" stroke="black" cx="1006.28" cy="-970" rx="50.16" ry="18"/>
<text text-anchor="middle" x="1006.28" y="-965.33" font-family="Times,serif" font-size="14.00" fill="white">bloaty ✓</text>
</a>
</g>
</g>
<!-- gcld3&#45;&gt;bloaty -->
<!-- google&#45;cloud&#45;cpp&#45;core -->
<g id="node49" class="node">
<title>google&#45;cloud&#45;cpp&#45;core</title>
<g id="a_node49"><a xlink:href="https://github.com/conda-forge/google-cloud-cpp-core-feedstock/pull/30" xlink:title="google cloud cpp core ❎">
<ellipse fill="#31688e" stroke="black" cx="436.84" cy="-1474" rx="135.39" ry="18"/>
<text text-anchor="middle" x="436.84" y="-1469.33" font-family="Times,serif" font-size="14.00" fill="white">google cloud cpp core ❎</text>
</a>
</g>
</g>
<!-- google&#45;cloud&#45;cpp&#45;core&#45;&gt;arrow&#45;cpp -->
<g id="edge52" class="edge">
<title>google&#45;cloud&#45;cpp&#45;core&#45;&gt;arrow&#45;cpp</title>
<path fill="none" stroke="black" d="M377.25,-1457.38C331.91,-1445.49 269.96,-1429.25 225.59,-1417.62"/>
<polygon fill="black" stroke="black" points="226.74,-1414.3 216.18,-1415.15 224.96,-1421.07 226.74,-1414.3"/>
</g>
<!-- google&#45;cloud&#45;cpp&#45;core&#45;&gt;google&#45;cloud&#45;cpp -->
<g id="edge53" class="edge">
<title>google&#45;cloud&#45;cpp&#45;core&#45;&gt;google&#45;cloud&#45;cpp</title>
<path fill="none" stroke="black" d="M345.76,-1460.39C322.49,-1452.58 300.05,-1440.06 285.84,-1420 236.06,-1349.77 324.79,-1255.31 373.72,-1211.37"/>
<polygon fill="black" stroke="black" points="376.03,-1214.01 381.22,-1204.77 371.4,-1208.75 376.03,-1214.01"/>
</g>
<!-- google&#45;cloud&#45;cpp&#45;compute -->
<g id="node50" class="node">
<title>google&#45;cloud&#45;cpp&#45;compute</title>
<g id="a_node50"><a xlink:href="https://github.com/conda-forge/google-cloud-cpp-compute-feedstock" xlink:title="google cloud cpp compute">
<ellipse fill="#fde725" stroke="black" cx="436.84" cy="-1402" rx="141.7" ry="18"/>
<text text-anchor="middle" x="436.84" y="-1397.33" font-family="Times,serif" font-size="14.00">google cloud cpp compute</text>
</a>
</g>
</g>
<!-- google&#45;cloud&#45;cpp&#45;core&#45;&gt;google&#45;cloud&#45;cpp&#45;compute -->
<g id="edge54" class="edge">
<title>google&#45;cloud&#45;cpp&#45;core&#45;&gt;google&#45;cloud&#45;cpp&#45;compute</title>
<path fill="none" stroke="black" d="M436.84,-1455.7C436.84,-1448.41 436.84,-1439.73 436.84,-1431.54"/>
<polygon fill="black" stroke="black" points="440.34,-1431.62 436.84,-1421.62 433.34,-1431.62 440.34,-1431.62"/>
</g>
<!-- google&#45;cloud&#45;cpp&#45;bigquery -->
<g id="node51" class="node">
<title>google&#45;cloud&#45;cpp&#45;bigquery</title>
<g id="a_node51"><a xlink:href="https://github.com/conda-forge/google-cloud-cpp-bigquery-feedstock" xlink:title="google cloud cpp bigquery">
<ellipse fill="#fde725" stroke="black" cx="524.84" cy="-1330" rx="143.28" ry="18"/>
<text text-anchor="middle" x="524.84" y="-1325.33" font-family="Times,serif" font-size="14.00">google cloud cpp bigquery</text>
</a>
</g>
</g>
<!-- google&#45;cloud&#45;cpp&#45;core&#45;&gt;google&#45;cloud&#45;cpp&#45;bigquery -->
<g id="edge55" class="edge">
<title>google&#45;cloud&#45;cpp&#45;core&#45;&gt;google&#45;cloud&#45;cpp&#45;bigquery</title>
<path fill="none" stroke="black" d="M527.91,-1460.39C551.18,-1452.58 573.62,-1440.06 587.84,-1420 597.09,-1406.95 594.59,-1398.51 587.84,-1384 582.52,-1372.59 573.41,-1362.76 563.75,-1354.77"/>
<polygon fill="black" stroke="black" points="566.08,-1352.15 556.01,-1348.88 561.84,-1357.72 566.08,-1352.15"/>
</g>
<!-- google&#45;cloud&#45;cpp&#45;ai -->
<g id="node52" class="node">
<title>google&#45;cloud&#45;cpp&#45;ai</title>
<g id="a_node52"><a xlink:href="https://github.com/conda-forge/google-cloud-cpp-ai-feedstock" xlink:title="google cloud cpp ai">
<ellipse fill="#fde725" stroke="black" cx="644.84" cy="-1258" rx="107.5" ry="18"/>
<text text-anchor="middle" x="644.84" y="-1253.33" font-family="Times,serif" font-size="14.00">google cloud cpp ai</text>
</a>
</g>
</g>
<!-- google&#45;cloud&#45;cpp&#45;core&#45;&gt;google&#45;cloud&#45;cpp&#45;ai -->
<g id="edge56" class="edge">
<title>google&#45;cloud&#45;cpp&#45;core&#45;&gt;google&#45;cloud&#45;cpp&#45;ai</title>
<path fill="none" stroke="black" d="M508.71,-1458.43C539.74,-1450.14 575.55,-1437.77 604.84,-1420 643.52,-1396.52 659.52,-1389.81 676.84,-1348 685.38,-1327.36 675.81,-1303.52 664.96,-1285.71"/>
<polygon fill="black" stroke="black" points="667.98,-1283.94 659.56,-1277.51 662.13,-1287.79 667.98,-1283.94"/>
</g>
<!-- google&#45;cloud&#45;cpp&#45;compute&#45;&gt;google&#45;cloud&#45;cpp -->
<g id="edge57" class="edge">
<title>google&#45;cloud&#45;cpp&#45;compute&#45;&gt;google&#45;cloud&#45;cpp</title>
<path fill="none" stroke="black" d="M406.4,-1384.14C393.53,-1375.23 379.9,-1363.01 372.84,-1348 352.29,-1304.31 372.2,-1247.74 387.93,-1214.61"/>
<polygon fill="black" stroke="black" points="391.06,-1216.19 392.37,-1205.67 384.79,-1213.07 391.06,-1216.19"/>
</g>
<!-- google&#45;cloud&#45;cpp&#45;bigquery&#45;&gt;google&#45;cloud&#45;cpp -->
<g id="edge58" class="edge">
<title>google&#45;cloud&#45;cpp&#45;bigquery&#45;&gt;google&#45;cloud&#45;cpp</title>
<path fill="none" stroke="black" d="M510.12,-1311.87C488.96,-1287.24 449.78,-1241.64 425.07,-1212.88"/>
<polygon fill="black" stroke="black" points="427.76,-1210.64 418.59,-1205.34 422.45,-1215.2 427.76,-1210.64"/>
</g>
<!-- google&#45;cloud&#45;cpp&#45;ai&#45;&gt;google&#45;cloud&#45;cpp -->
<g id="edge59" class="edge">
<title>google&#45;cloud&#45;cpp&#45;ai&#45;&gt;google&#45;cloud&#45;cpp</title>
<path fill="none" stroke="black" d="M592.62,-1241.9C554.9,-1230.99 503.82,-1216.21 464.16,-1204.74"/>
<polygon fill="black" stroke="black" points="465.33,-1201.43 454.75,-1202.02 463.38,-1208.16 465.33,-1201.43"/>
</g>
<!-- gz&#45;sim&#45;yarp&#45;plugins -->
<g id="node53" class="node">
<title>gz&#45;sim&#45;yarp&#45;plugins</title>
<g id="a_node53"><a xlink:href="https://github.com/conda-forge/gz-sim-yarp-plugins-feedstock/pull/16" xlink:title="gz sim yarp plugins ❎">
<ellipse fill="#31688e" stroke="black" cx="1644.28" cy="-710" rx="124.86" ry="18"/>
<text text-anchor="middle" x="1644.28" y="-705.33" font-family="Times,serif" font-size="14.00" fill="white">gz sim yarp plugins ❎</text>
</a>
</g>
</g>
<!-- bfiocpp -->
<g id="node54" class="node">
<title>bfiocpp</title>
<g id="a_node54"><a xlink:href="https://github.com/conda-forge/bfiocpp-feedstock/pull/12" xlink:title="bfiocpp ✓">
<ellipse fill="#31688e" stroke="black" cx="1644.28" cy="-638" rx="55.42" ry="18"/>
<text text-anchor="middle" x="1644.28" y="-633.33" font-family="Times,serif" font-size="14.00" fill="white">bfiocpp ✓</text>
</a>
</g>
</g>
<!-- gz&#45;sim&#45;yarp&#45;plugins&#45;&gt;bfiocpp -->
<!-- protobuf&#45;c -->
<g id="node55" class="node">
<title>protobuf&#45;c</title>
<g id="a_node55"><a xlink:href="https://github.com/conda-forge/protobuf-c-feedstock/pull/5" xlink:title="protobuf c ❎">
<ellipse fill="#31688e" stroke="black" cx="1644.28" cy="-566" rx="78.04" ry="18"/>
<text text-anchor="middle" x="1644.28" y="-561.33" font-family="Times,serif" font-size="14.00" fill="white">protobuf c ❎</text>
</a>
</g>
</g>
<!-- bfiocpp&#45;&gt;protobuf&#45;c -->
<!-- mysqlx&#45;connector&#45;python -->
<g id="node56" class="node">
<title>mysqlx&#45;connector&#45;python</title>
<g id="a_node56"><a xlink:href="https://github.com/conda-forge/mysqlx-connector-python-feedstock/pull/10" xlink:title="mysqlx connector python ✓">
<ellipse fill="#31688e" stroke="black" cx="1644.28" cy="-494" rx="145.38" ry="18"/>
<text text-anchor="middle" x="1644.28" y="-489.32" font-family="Times,serif" font-size="14.00" fill="white">mysqlx connector python ✓</text>
</a>
</g>
</g>
<!-- protobuf&#45;c&#45;&gt;mysqlx&#45;connector&#45;python -->
<!-- dydx&#45;v4&#45;proto&#45;cpp -->
<g id="node57" class="node">
<title>dydx&#45;v4&#45;proto&#45;cpp</title>
<g id="a_node57"><a xlink:href="https://github.com/conda-forge/dydx-v4-proto-cpp-feedstock/pull/4" xlink:title="dydx v4 proto cpp ❎">
<ellipse fill="#31688e" stroke="black" cx="1644.28" cy="-422" rx="116.97" ry="18"/>
<text text-anchor="middle" x="1644.28" y="-417.32" font-family="Times,serif" font-size="14.00" fill="white">dydx v4 proto cpp ❎</text>
</a>
</g>
</g>
<!-- mysqlx&#45;connector&#45;python&#45;&gt;dydx&#45;v4&#45;proto&#45;cpp -->
</g>
</svg>
