<?xml version="1.0" encoding="UTF-8" standalone="no"?>
<!DOCTYPE svg PUBLIC "-//W3C//DTD SVG 1.1//EN"
 "http://www.w3.org/Graphics/SVG/1.1/DTD/svg11.dtd">
<!-- Generated by graphviz version 12.0.0 (20240803.0821)
 -->
<!-- Pages: 1 -->
<svg width="1541pt" height="1024pt"
 viewBox="0.00 0.00 1540.81 1024.00" xmlns="http://www.w3.org/2000/svg" xmlns:xlink="http://www.w3.org/1999/xlink">
<g id="graph0" class="graph" transform="scale(1 1) rotate(0) translate(4 1020)">
<polygon fill="white" stroke="none" points="-4,4 -4,-1020 1536.81,-1020 1536.81,4 -4,4"/>
<!-- arrow&#45;cpp -->
<g id="node1" class="node">
<title>arrow&#45;cpp</title>
<g id="a_node1"><a xlink:href="https://github.com/conda-forge/arrow-cpp-feedstock/pull/1652" xlink:title="arrow cpp ❎">
<ellipse fill="#31688e" stroke="black" cx="758.42" cy="-234" rx="76.99" ry="18"/>
<text text-anchor="middle" x="758.42" y="-229.32" font-family="Times,serif" font-size="14.00" fill="white">arrow cpp ❎</text>
</a>
</g>
</g>
<!-- datafusion -->
<g id="node2" class="node">
<title>datafusion</title>
<g id="a_node2"><a xlink:href="https://github.com/conda-forge/datafusion-feedstock" xlink:title="datafusion">
<ellipse fill="#fde725" stroke="black" cx="666.42" cy="-162" rx="63.84" ry="18"/>
<text text-anchor="middle" x="666.42" y="-157.32" font-family="Times,serif" font-size="14.00">datafusion</text>
</a>
</g>
</g>
<!-- arrow&#45;cpp&#45;&gt;datafusion -->
<g id="edge1" class="edge">
<title>arrow&#45;cpp&#45;&gt;datafusion</title>
<path fill="none" stroke="black" d="M736.61,-216.41C724.73,-207.37 709.83,-196.03 696.81,-186.13"/>
<polygon fill="black" stroke="black" points="699.03,-183.41 688.95,-180.14 694.79,-188.99 699.03,-183.41"/>
</g>
<!-- arcticdb -->
<g id="node3" class="node">
<title>arcticdb</title>
<g id="a_node3"><a xlink:href="https://github.com/conda-forge/arcticdb-feedstock" xlink:title="arcticdb">
<ellipse fill="#fde725" stroke="black" cx="758.42" cy="-90" rx="52.26" ry="18"/>
<text text-anchor="middle" x="758.42" y="-85.33" font-family="Times,serif" font-size="14.00">arcticdb</text>
</a>
</g>
</g>
<!-- arrow&#45;cpp&#45;&gt;arcticdb -->
<g id="edge2" class="edge">
<title>arrow&#45;cpp&#45;&gt;arcticdb</title>
<path fill="none" stroke="black" d="M758.42,-215.59C758.42,-191.61 758.42,-148.14 758.42,-119.42"/>
<polygon fill="black" stroke="black" points="761.92,-119.62 758.42,-109.62 754.92,-119.62 761.92,-119.62"/>
</g>
<!-- csp -->
<g id="node4" class="node">
<title>csp</title>
<g id="a_node4"><a xlink:href="https://github.com/conda-forge/csp-feedstock" xlink:title="csp">
<ellipse fill="#fde725" stroke="black" cx="838.42" cy="-18" rx="28.06" ry="18"/>
<text text-anchor="middle" x="838.42" y="-13.32" font-family="Times,serif" font-size="14.00">csp</text>
</a>
</g>
</g>
<!-- arrow&#45;cpp&#45;&gt;csp -->
<g id="edge3" class="edge">
<title>arrow&#45;cpp&#45;&gt;csp</title>
<path fill="none" stroke="black" d="M768.5,-215.78C781.92,-192.19 805.56,-148.18 819.42,-108 826.2,-88.34 831.03,-65.37 834.12,-47.69"/>
<polygon fill="black" stroke="black" points="837.56,-48.33 835.74,-37.89 830.66,-47.19 837.56,-48.33"/>
</g>
<!-- opencv -->
<g id="node5" class="node">
<title>opencv</title>
<g id="a_node5"><a xlink:href="https://github.com/conda-forge/opencv-feedstock/pull/446" xlink:title="opencv ❎">
<ellipse fill="#31688e" stroke="black" cx="272.24" cy="-198" rx="61.73" ry="18"/>
<text text-anchor="middle" x="272.24" y="-193.32" font-family="Times,serif" font-size="14.00" fill="white">opencv ❎</text>
</a>
</g>
</g>
<!-- imp -->
<g id="node6" class="node">
<title>imp</title>
<g id="a_node6"><a xlink:href="https://github.com/conda-forge/imp-feedstock" xlink:title="imp">
<ellipse fill="#fde725" stroke="black" cx="272.24" cy="-126" rx="30.16" ry="18"/>
<text text-anchor="middle" x="272.24" y="-121.33" font-family="Times,serif" font-size="14.00">imp</text>
</a>
</g>
</g>
<!-- opencv&#45;&gt;imp -->
<g id="edge4" class="edge">
<title>opencv&#45;&gt;imp</title>
<path fill="none" stroke="black" d="M272.24,-179.7C272.24,-172.41 272.24,-163.73 272.24,-155.54"/>
<polygon fill="black" stroke="black" points="275.74,-155.62 272.24,-145.62 268.74,-155.62 275.74,-155.62"/>
</g>
<!-- gazebo&#45;yarp&#45;plugins -->
<g id="node7" class="node">
<title>gazebo&#45;yarp&#45;plugins</title>
<g id="a_node7"><a xlink:href="https://github.com/conda-forge/gazebo-yarp-plugins-feedstock" xlink:title="gazebo yarp plugins">
<ellipse fill="#fde725" stroke="black" cx="112.24" cy="-126" rx="112.24" ry="18"/>
<text text-anchor="middle" x="112.24" y="-121.33" font-family="Times,serif" font-size="14.00">gazebo yarp plugins</text>
</a>
</g>
</g>
<!-- opencv&#45;&gt;gazebo&#45;yarp&#45;plugins -->
<g id="edge5" class="edge">
<title>opencv&#45;&gt;gazebo&#45;yarp&#45;plugins</title>
<path fill="none" stroke="black" d="M239.09,-182.5C216.16,-172.46 185.3,-158.97 159.76,-147.79"/>
<polygon fill="black" stroke="black" points="161.5,-144.73 150.93,-143.93 158.69,-151.14 161.5,-144.73"/>
</g>
<!-- nvidia&#45;dali&#45;python -->
<g id="node8" class="node">
<title>nvidia&#45;dali&#45;python</title>
<g id="a_node8"><a xlink:href="https://github.com/conda-forge/nvidia-dali-python-feedstock" xlink:title="nvidia dali python">
<ellipse fill="#fde725" stroke="black" cx="330.24" cy="-54" rx="101.19" ry="18"/>
<text text-anchor="middle" x="330.24" y="-49.33" font-family="Times,serif" font-size="14.00">nvidia dali python</text>
</a>
</g>
</g>
<!-- opencv&#45;&gt;nvidia&#45;dali&#45;python -->
<g id="edge6" class="edge">
<title>opencv&#45;&gt;nvidia&#45;dali&#45;python</title>
<path fill="none" stroke="black" d="M287.24,-180.5C295.49,-170.59 305.24,-157.34 311.24,-144 319.86,-124.82 324.65,-101.53 327.26,-83.59"/>
<polygon fill="black" stroke="black" points="330.7,-84.27 328.52,-73.9 323.76,-83.37 330.7,-84.27"/>
</g>
<!-- paraview -->
<g id="node9" class="node">
<title>paraview</title>
<g id="a_node9"><a xlink:href="https://github.com/conda-forge/paraview-feedstock/pull/269" xlink:title="paraview ❎">
<ellipse fill="#31688e" stroke="black" cx="215.71" cy="-998" rx="72.25" ry="18"/>
<text text-anchor="middle" x="215.71" y="-993.33" font-family="Times,serif" font-size="14.00" fill="white">paraview ❎</text>
</a>
</g>
</g>
<!-- qgis -->
<g id="node10" class="node">
<title>qgis</title>
<g id="a_node10"><a xlink:href="https://github.com/conda-forge/qgis-feedstock/pull/495" xlink:title="qgis ❎">
<ellipse fill="#31688e" stroke="black" cx="215.71" cy="-926" rx="47.53" ry="18"/>
<text text-anchor="middle" x="215.71" y="-921.33" font-family="Times,serif" font-size="14.00" fill="white">qgis ❎</text>
</a>
</g>
</g>
<!-- paraview&#45;&gt;qgis -->
<!-- tensorflow -->
<g id="node11" class="node">
<title>tensorflow</title>
<g id="a_node11"><a xlink:href="https://github.com/conda-forge/tensorflow-feedstock/pull/411" xlink:title="tensorflow ❎">
<ellipse fill="#31688e" stroke="black" cx="215.71" cy="-854" rx="79.09" ry="18"/>
<text text-anchor="middle" x="215.71" y="-849.33" font-family="Times,serif" font-size="14.00" fill="white">tensorflow ❎</text>
</a>
</g>
</g>
<!-- qgis&#45;&gt;tensorflow -->
<!-- pytorch&#45;cpu -->
<g id="node12" class="node">
<title>pytorch&#45;cpu</title>
<g id="a_node12"><a xlink:href="https://github.com/conda-forge/pytorch-cpu-feedstock/pull/310" xlink:title="pytorch cpu ❎">
<ellipse fill="#31688e" stroke="black" cx="215.71" cy="-782" rx="85.93" ry="18"/>
<text text-anchor="middle" x="215.71" y="-777.33" font-family="Times,serif" font-size="14.00" fill="white">pytorch cpu ❎</text>
</a>
</g>
</g>
<!-- tensorflow&#45;&gt;pytorch&#45;cpu -->
<!-- go&#45;cockroach -->
<g id="node13" class="node">
<title>go&#45;cockroach</title>
<g id="a_node13"><a xlink:href="https://github.com/conda-forge/go-cockroach-feedstock/pull/30" xlink:title="go cockroach ❎">
<ellipse fill="#31688e" stroke="black" cx="215.71" cy="-710" rx="91.72" ry="18"/>
<text text-anchor="middle" x="215.71" y="-705.33" font-family="Times,serif" font-size="14.00" fill="white">go cockroach ❎</text>
</a>
</g>
</g>
<!-- pytorch&#45;cpu&#45;&gt;go&#45;cockroach -->
<!-- tomviz -->
<g id="node16" class="node">
<title>tomviz</title>
<g id="a_node16"><a xlink:href="https://github.com/conda-forge/tomviz-feedstock/pull/70" xlink:title="tomviz ❎">
<ellipse fill="#31688e" stroke="black" cx="215.71" cy="-638" rx="60.15" ry="18"/>
<text text-anchor="middle" x="215.71" y="-633.33" font-family="Times,serif" font-size="14.00" fill="white">tomviz ❎</text>
</a>
</g>
</g>
<!-- go&#45;cockroach&#45;&gt;tomviz -->
<!-- gazebo -->
<g id="node14" class="node">
<title>gazebo</title>
<g id="a_node14"><a xlink:href="https://github.com/conda-forge/gazebo-feedstock/pull/236" xlink:title="gazebo ❎">
<ellipse fill="#31688e" stroke="black" cx="112.24" cy="-198" rx="61.73" ry="18"/>
<text text-anchor="middle" x="112.24" y="-193.32" font-family="Times,serif" font-size="14.00" fill="white">gazebo ❎</text>
</a>
</g>
</g>
<!-- gazebo&#45;&gt;gazebo&#45;yarp&#45;plugins -->
<g id="edge11" class="edge">
<title>gazebo&#45;&gt;gazebo&#45;yarp&#45;plugins</title>
<path fill="none" stroke="black" d="M112.24,-179.7C112.24,-172.41 112.24,-163.73 112.24,-155.54"/>
<polygon fill="black" stroke="black" points="115.74,-155.62 112.24,-145.62 108.74,-155.62 115.74,-155.62"/>
</g>
<!-- google&#45;cloud&#45;cpp -->
<g id="node15" class="node">
<title>google&#45;cloud&#45;cpp</title>
<g id="a_node15"><a xlink:href="https://github.com/conda-forge/google-cloud-cpp-feedstock" xlink:title="google cloud cpp">
<ellipse fill="#fde725" stroke="black" cx="717.93" cy="-530" rx="95.4" ry="18"/>
<text text-anchor="middle" x="717.93" y="-525.33" font-family="Times,serif" font-size="14.00">google cloud cpp</text>
</a>
</g>
</g>
<!-- or&#45;tools -->
<g id="node17" class="node">
<title>or&#45;tools</title>
<g id="a_node17"><a xlink:href="https://github.com/conda-forge/or-tools-feedstock/pull/64" xlink:title="or tools ❎">
<ellipse fill="#31688e" stroke="black" cx="215.71" cy="-566" rx="64.36" ry="18"/>
<text text-anchor="middle" x="215.71" y="-561.33" font-family="Times,serif" font-size="14.00" fill="white">or tools ❎</text>
</a>
</g>
</g>
<!-- tomviz&#45;&gt;or&#45;tools -->
<!-- xilinx&#45;runtime -->
<g id="node18" class="node">
<title>xilinx&#45;runtime</title>
<g id="a_node18"><a xlink:href="https://github.com/conda-forge/xilinx-runtime-feedstock/pull/39" xlink:title="xilinx runtime ❎">
<ellipse fill="#31688e" stroke="black" cx="215.71" cy="-494" rx="96.98" ry="18"/>
<text text-anchor="middle" x="215.71" y="-489.32" font-family="Times,serif" font-size="14.00" fill="white">xilinx runtime ❎</text>
</a>
</g>
</g>
<!-- or&#45;tools&#45;&gt;xilinx&#45;runtime -->
<!-- tensorstore -->
<g id="node19" class="node">
<title>tensorstore</title>
<g id="a_node19"><a xlink:href="https://github.com/conda-forge/tensorstore-feedstock/pull/52" xlink:title="tensorstore ❎">
<ellipse fill="#31688e" stroke="black" cx="215.71" cy="-422" rx="84.35" ry="18"/>
<text text-anchor="middle" x="215.71" y="-417.32" font-family="Times,serif" font-size="14.00" fill="white">tensorstore ❎</text>
</a>
</g>
</g>
<!-- xilinx&#45;runtime&#45;&gt;tensorstore -->
<!-- openvino&#45;tokenizers -->
<g id="node26" class="node">
<title>openvino&#45;tokenizers</title>
<g id="a_node26"><a xlink:href="https://github.com/conda-forge/openvino-tokenizers-feedstock/pull/38" xlink:title="openvino tokenizers ❎">
<ellipse fill="#31688e" stroke="black" cx="215.71" cy="-350" rx="126.97" ry="18"/>
<text text-anchor="middle" x="215.71" y="-345.32" font-family="Times,serif" font-size="14.00" fill="white">openvino tokenizers ❎</text>
</a>
</g>
</g>
<!-- tensorstore&#45;&gt;openvino&#45;tokenizers -->
<!-- gz&#45;transport -->
<g id="node20" class="node">
<title>gz&#45;transport</title>
<g id="a_node20"><a xlink:href="https://github.com/conda-forge/gz-transport-feedstock/pull/52" xlink:title="gz transport ✓">
<ellipse fill="#31688e" stroke="black" cx="1422.14" cy="-746" rx="81.2" ry="18"/>
<text text-anchor="middle" x="1422.14" y="-741.33" font-family="Times,serif" font-size="14.00" fill="white">gz transport ✓</text>
</a>
</g>
</g>
<!-- gz&#45;gui -->
<g id="node21" class="node">
<title>gz&#45;gui</title>
<g id="a_node21"><a xlink:href="https://github.com/conda-forge/gz-gui-feedstock" xlink:title="gz gui">
<ellipse fill="#fde725" stroke="black" cx="1457.14" cy="-674" rx="41.74" ry="18"/>
<text text-anchor="middle" x="1457.14" y="-669.33" font-family="Times,serif" font-size="14.00">gz gui</text>
</a>
</g>
</g>
<!-- gz&#45;transport&#45;&gt;gz&#45;gui -->
<g id="edge16" class="edge">
<title>gz&#45;transport&#45;&gt;gz&#45;gui</title>
<path fill="none" stroke="black" d="M1430.79,-727.7C1434.6,-720.07 1439.18,-710.92 1443.44,-702.4"/>
<polygon fill="black" stroke="black" points="1446.57,-703.97 1447.91,-693.46 1440.31,-700.84 1446.57,-703.97"/>
</g>
<!-- gz&#45;sensors -->
<g id="node22" class="node">
<title>gz&#45;sensors</title>
<g id="a_node22"><a xlink:href="https://github.com/conda-forge/gz-sensors-feedstock" xlink:title="gz sensors">
<ellipse fill="#fde725" stroke="black" cx="1295.14" cy="-674" rx="64.36" ry="18"/>
<text text-anchor="middle" x="1295.14" y="-669.33" font-family="Times,serif" font-size="14.00">gz sensors</text>
</a>
</g>
</g>
<!-- gz&#45;transport&#45;&gt;gz&#45;sensors -->
<g id="edge17" class="edge">
<title>gz&#45;transport&#45;&gt;gz&#45;sensors</title>
<path fill="none" stroke="black" d="M1392.68,-728.76C1374.92,-718.97 1352.11,-706.4 1333.01,-695.88"/>
<polygon fill="black" stroke="black" points="1334.9,-692.92 1324.45,-691.16 1331.52,-699.05 1334.9,-692.92"/>
</g>
<!-- gz&#45;sim -->
<g id="node23" class="node">
<title>gz&#45;sim</title>
<g id="a_node23"><a xlink:href="https://github.com/conda-forge/gz-sim-feedstock" xlink:title="gz sim">
<ellipse fill="#fde725" stroke="black" cx="1386.14" cy="-602" rx="43.84" ry="18"/>
<text text-anchor="middle" x="1386.14" y="-597.33" font-family="Times,serif" font-size="14.00">gz sim</text>
</a>
</g>
</g>
<!-- gz&#45;transport&#45;&gt;gz&#45;sim -->
<g id="edge18" class="edge">
<title>gz&#45;transport&#45;&gt;gz&#45;sim</title>
<path fill="none" stroke="black" d="M1416.64,-727.9C1413.39,-717.56 1409.32,-704.08 1406.14,-692 1400.84,-671.84 1395.7,-648.88 1391.96,-631.33"/>
<polygon fill="black" stroke="black" points="1395.4,-630.7 1389.92,-621.63 1388.55,-632.14 1395.4,-630.7"/>
</g>
<!-- gz&#45;launch -->
<g id="node24" class="node">
<title>gz&#45;launch</title>
<g id="a_node24"><a xlink:href="https://github.com/conda-forge/gz-launch-feedstock" xlink:title="gz launch">
<ellipse fill="#fde725" stroke="black" cx="1458.14" cy="-530" rx="59.1" ry="18"/>
<text text-anchor="middle" x="1458.14" y="-525.33" font-family="Times,serif" font-size="14.00">gz launch</text>
</a>
</g>
</g>
<!-- gz&#45;transport&#45;&gt;gz&#45;launch -->
<g id="edge19" class="edge">
<title>gz&#45;transport&#45;&gt;gz&#45;launch</title>
<path fill="none" stroke="black" d="M1463.17,-730.28C1480.27,-721.88 1498.39,-709.46 1508.14,-692 1532.81,-647.81 1501.34,-589.85 1478.31,-556.9"/>
<polygon fill="black" stroke="black" points="1481.39,-555.18 1472.69,-549.13 1475.72,-559.28 1481.39,-555.18"/>
</g>
<!-- gz&#45;gui&#45;&gt;gz&#45;sim -->
<g id="edge20" class="edge">
<title>gz&#45;gui&#45;&gt;gz&#45;sim</title>
<path fill="none" stroke="black" d="M1441.03,-657.12C1431.95,-648.17 1420.43,-636.81 1410.29,-626.81"/>
<polygon fill="black" stroke="black" points="1412.84,-624.41 1403.26,-619.88 1407.93,-629.4 1412.84,-624.41"/>
</g>
<!-- gz&#45;gui&#45;&gt;gz&#45;launch -->
<g id="edge21" class="edge">
<title>gz&#45;gui&#45;&gt;gz&#45;launch</title>
<path fill="none" stroke="black" d="M1457.26,-655.59C1457.43,-631.61 1457.74,-588.14 1457.94,-559.42"/>
<polygon fill="black" stroke="black" points="1461.44,-559.65 1458.01,-549.62 1454.44,-559.6 1461.44,-559.65"/>
</g>
<!-- gz&#45;sensors&#45;&gt;gz&#45;sim -->
<g id="edge22" class="edge">
<title>gz&#45;sensors&#45;&gt;gz&#45;sim</title>
<path fill="none" stroke="black" d="M1316.24,-656.76C1328.45,-647.38 1343.97,-635.44 1357.28,-625.2"/>
<polygon fill="black" stroke="black" points="1359.09,-628.22 1364.88,-619.35 1354.82,-622.67 1359.09,-628.22"/>
</g>
<!-- gz&#45;sim&#45;&gt;gz&#45;launch -->
<g id="edge23" class="edge">
<title>gz&#45;sim&#45;&gt;gz&#45;launch</title>
<path fill="none" stroke="black" d="M1402.48,-585.12C1411.49,-576.36 1422.87,-565.29 1432.99,-555.45"/>
<polygon fill="black" stroke="black" points="1435.3,-558.09 1440.03,-548.61 1430.42,-553.07 1435.3,-558.09"/>
</g>
<!-- gz&#45;fuel&#45;tools -->
<g id="node25" class="node">
<title>gz&#45;fuel&#45;tools</title>
<g id="a_node25"><a xlink:href="https://github.com/conda-forge/gz-fuel-tools-feedstock/pull/45" xlink:title="gz fuel tools ❎">
<ellipse fill="#31688e" stroke="black" cx="1125.14" cy="-674" rx="87.51" ry="18"/>
<text text-anchor="middle" x="1125.14" y="-669.33" font-family="Times,serif" font-size="14.00" fill="white">gz fuel tools ❎</text>
</a>
</g>
</g>
<!-- gz&#45;fuel&#45;tools&#45;&gt;gz&#45;sim -->
<g id="edge24" class="edge">
<title>gz&#45;fuel&#45;tools&#45;&gt;gz&#45;sim</title>
<path fill="none" stroke="black" d="M1177.02,-659.09C1224.3,-646.41 1293.53,-627.84 1339.2,-615.59"/>
<polygon fill="black" stroke="black" points="1340.06,-618.98 1348.82,-613.01 1338.25,-612.22 1340.06,-618.98"/>
</g>
<!-- gz&#45;sim&#45;yarp&#45;plugins -->
<g id="node27" class="node">
<title>gz&#45;sim&#45;yarp&#45;plugins</title>
<g id="a_node27"><a xlink:href="https://github.com/conda-forge/gz-sim-yarp-plugins-feedstock/pull/16" xlink:title="gz sim yarp plugins ❎">
<ellipse fill="#31688e" stroke="black" cx="215.71" cy="-278" rx="124.86" ry="18"/>
<text text-anchor="middle" x="215.71" y="-273.32" font-family="Times,serif" font-size="14.00" fill="white">gz sim yarp plugins ❎</text>
</a>
</g>
</g>
<!-- openvino&#45;tokenizers&#45;&gt;gz&#45;sim&#45;yarp&#45;plugins -->
<!-- google&#45;cloud&#45;cpp&#45;compute -->
<g id="node28" class="node">
<title>google&#45;cloud&#45;cpp&#45;compute</title>
<g id="a_node28"><a xlink:href="https://github.com/conda-forge/google-cloud-cpp-compute-feedstock" xlink:title="google cloud cpp compute">
<ellipse fill="#35b779" stroke="black" cx="887.93" cy="-602" rx="141.7" ry="18"/>
<text text-anchor="middle" x="887.93" y="-597.33" font-family="Times,serif" font-size="14.00">google cloud cpp compute</text>
</a>
</g>
</g>
<!-- google&#45;cloud&#45;cpp&#45;compute&#45;&gt;google&#45;cloud&#45;cpp -->
<g id="edge27" class="edge">
<title>google&#45;cloud&#45;cpp&#45;compute&#45;&gt;google&#45;cloud&#45;cpp</title>
<path fill="none" stroke="black" d="M847.64,-584.41C823.5,-574.47 792.63,-561.76 767.06,-551.23"/>
<polygon fill="black" stroke="black" points="768.45,-548.02 757.87,-547.44 765.78,-554.49 768.45,-548.02"/>
</g>
<!-- google&#45;cloud&#45;cpp&#45;bigquery -->
<g id="node29" class="node">
<title>google&#45;cloud&#45;cpp&#45;bigquery</title>
<g id="a_node29"><a xlink:href="https://github.com/conda-forge/google-cloud-cpp-bigquery-feedstock" xlink:title="google cloud cpp bigquery">
<ellipse fill="#35b779" stroke="black" cx="717.93" cy="-674" rx="143.28" ry="18"/>
<text text-anchor="middle" x="717.93" y="-669.33" font-family="Times,serif" font-size="14.00">google cloud cpp bigquery</text>
</a>
</g>
</g>
<!-- google&#45;cloud&#45;cpp&#45;bigquery&#45;&gt;google&#45;cloud&#45;cpp -->
<g id="edge28" class="edge">
<title>google&#45;cloud&#45;cpp&#45;bigquery&#45;&gt;google&#45;cloud&#45;cpp</title>
<path fill="none" stroke="black" d="M717.93,-655.59C717.93,-631.61 717.93,-588.14 717.93,-559.42"/>
<polygon fill="black" stroke="black" points="721.43,-559.62 717.93,-549.62 714.43,-559.62 721.43,-559.62"/>
</g>
<!-- google&#45;cloud&#45;cpp&#45;ai -->
<g id="node30" class="node">
<title>google&#45;cloud&#45;cpp&#45;ai</title>
<g id="a_node30"><a xlink:href="https://github.com/conda-forge/google-cloud-cpp-ai-feedstock" xlink:title="google cloud cpp ai">
<ellipse fill="#35b779" stroke="black" cx="546.93" cy="-746" rx="107.5" ry="18"/>
<text text-anchor="middle" x="546.93" y="-741.33" font-family="Times,serif" font-size="14.00">google cloud cpp ai</text>
</a>
</g>
</g>
<!-- google&#45;cloud&#45;cpp&#45;ai&#45;&gt;google&#45;cloud&#45;cpp -->
<g id="edge29" class="edge">
<title>google&#45;cloud&#45;cpp&#45;ai&#45;&gt;google&#45;cloud&#45;cpp</title>
<path fill="none" stroke="black" d="M547.29,-727.7C548.41,-708.81 552.38,-678.27 565.93,-656 593.36,-610.91 643.03,-574.72 678.11,-553.11"/>
<polygon fill="black" stroke="black" points="679.53,-556.34 686.3,-548.19 675.92,-550.34 679.53,-556.34"/>
</g>
</g>
</svg>
