<?xml version="1.0" encoding="UTF-8" standalone="no"?>
<!DOCTYPE svg PUBLIC "-//W3C//DTD SVG 1.1//EN"
 "http://www.w3.org/Graphics/SVG/1.1/DTD/svg11.dtd">
<!-- Generated by graphviz version 13.1.1 (20250720.1534)
 -->
<!-- Pages: 1 -->
<svg width="244pt" height="116pt"
 viewBox="0.00 0.00 244.00 116.00" xmlns="http://www.w3.org/2000/svg" xmlns:xlink="http://www.w3.org/1999/xlink">
<g id="graph0" class="graph" transform="scale(1 1) rotate(0) translate(4 112)">
<polygon fill="white" stroke="none" points="-4,4 -4,-112 239.73,-112 239.73,4 -4,4"/>
<!-- libnetcdf -->
<g id="node1" class="node">
<title>libnetcdf</title>
<g id="a_node1"><a xlink:href="https://github.com/conda-forge/libnetcdf-feedstock" xlink:title="libnetcdf">
<ellipse fill="#35b779" stroke="black" cx="113.68" cy="-90" rx="55.42" ry="18"/>
<text xml:space="preserve" text-anchor="middle" x="113.68" y="-85.33" font-family="Times,serif" font-size="14.00">libnetcdf</text>
</a>
</g>
</g>
<!-- lammps -->
<g id="node2" class="node">
<title>lammps</title>
<g id="a_node2"><a xlink:href="https://github.com/conda-forge/lammps-feedstock" xlink:title="lammps">
<ellipse fill="#fde725" stroke="black" cx="50.68" cy="-18" rx="50.68" ry="18"/>
<text xml:space="preserve" text-anchor="middle" x="50.68" y="-13.32" font-family="Times,serif" font-size="14.00">lammps</text>
</a>
</g>
</g>
<!-- libnetcdf&#45;&gt;lammps -->
<g id="edge1" class="edge">
<title>libnetcdf&#45;&gt;lammps</title>
<path fill="none" stroke="black" d="M98.75,-72.41C91.06,-63.87 81.53,-53.28 72.99,-43.79"/>
<polygon fill="black" stroke="black" points="75.81,-41.69 66.52,-36.59 70.61,-46.37 75.81,-41.69"/>
</g>
<!-- parallelio -->
<g id="node3" class="node">
<title>parallelio</title>
<g id="a_node3"><a xlink:href="https://github.com/conda-forge/parallelio-feedstock" xlink:title="parallelio">
<ellipse fill="#fde725" stroke="black" cx="177.68" cy="-18" rx="58.05" ry="18"/>
<text xml:space="preserve" text-anchor="middle" x="177.68" y="-13.32" font-family="Times,serif" font-size="14.00">parallelio</text>
</a>
</g>
</g>
<!-- libnetcdf&#45;&gt;parallelio -->
<g id="edge2" class="edge">
<title>libnetcdf&#45;&gt;parallelio</title>
<path fill="none" stroke="black" d="M128.85,-72.41C136.66,-63.87 146.34,-53.28 155.02,-43.79"/>
<polygon fill="black" stroke="black" points="157.44,-46.33 161.6,-36.59 152.27,-41.61 157.44,-46.33"/>
</g>
</g>
</svg>
