<?xml version="1.0" encoding="UTF-8" standalone="no"?>
<!DOCTYPE svg PUBLIC "-//W3C//DTD SVG 1.1//EN"
 "http://www.w3.org/Graphics/SVG/1.1/DTD/svg11.dtd">
<!-- Generated by graphviz version 13.1.2 (20250809.0930)
 -->
<!-- Pages: 1 -->
<svg width="1135pt" height="404pt"
 viewBox="0.00 0.00 1135.00 404.00" xmlns="http://www.w3.org/2000/svg" xmlns:xlink="http://www.w3.org/1999/xlink">
<g id="graph0" class="graph" transform="scale(1 1) rotate(0) translate(4 400)">
<polygon fill="white" stroke="none" points="-4,4 -4,-400 1131.2,-400 1131.2,4 -4,4"/>
<!-- gdal -->
<g id="node1" class="node">
<title>gdal</title>
<g id="a_node1"><a xlink:href="https://github.com/conda-forge/gdal-feedstock" xlink:title="gdal">
<ellipse fill="#fde725" stroke="black" cx="460.69" cy="-270" rx="32.79" ry="18"/>
<text xml:space="preserve" text-anchor="middle" x="460.69" y="-265.32" font-family="Times,serif" font-size="14.00">gdal</text>
</a>
</g>
</g>
<!-- postgis -->
<g id="node2" class="node">
<title>postgis</title>
<g id="a_node2"><a xlink:href="https://github.com/conda-forge/postgis-feedstock" xlink:title="postgis">
<ellipse fill="#fde725" stroke="black" cx="568.69" cy="-198" rx="47.53" ry="18"/>
<text xml:space="preserve" text-anchor="middle" x="568.69" y="-193.32" font-family="Times,serif" font-size="14.00">postgis</text>
</a>
</g>
</g>
<!-- gdal&#45;&gt;postgis -->
<g id="edge1" class="edge">
<title>gdal&#45;&gt;postgis</title>
<path fill="none" stroke="black" d="M481.26,-255.67C496.75,-245.63 518.29,-231.66 536.12,-220.11"/>
<polygon fill="black" stroke="black" points="537.82,-223.18 544.31,-214.8 534.01,-217.31 537.82,-223.18"/>
</g>
<!-- qgis -->
<g id="node3" class="node">
<title>qgis</title>
<g id="a_node3"><a xlink:href="https://github.com/conda-forge/qgis-feedstock" xlink:title="qgis">
<ellipse fill="#fde725" stroke="black" cx="311.69" cy="-54" rx="32.27" ry="18"/>
<text xml:space="preserve" text-anchor="middle" x="311.69" y="-49.33" font-family="Times,serif" font-size="14.00">qgis</text>
</a>
</g>
</g>
<!-- gdal&#45;&gt;qgis -->
<g id="edge2" class="edge">
<title>gdal&#45;&gt;qgis</title>
<path fill="none" stroke="black" d="M466.57,-251.82C476.24,-220.13 491.55,-151.73 460.69,-108 437.01,-74.44 390.13,-62.01 355.25,-57.47"/>
<polygon fill="black" stroke="black" points="355.76,-54 345.43,-56.38 354.98,-60.96 355.76,-54"/>
</g>
<!-- mapserver -->
<g id="node4" class="node">
<title>mapserver</title>
<g id="a_node4"><a xlink:href="https://github.com/conda-forge/mapserver-feedstock" xlink:title="mapserver">
<ellipse fill="#fde725" stroke="black" cx="348.69" cy="-198" rx="64.89" ry="18"/>
<text xml:space="preserve" text-anchor="middle" x="348.69" y="-193.32" font-family="Times,serif" font-size="14.00">mapserver</text>
</a>
</g>
</g>
<!-- gdal&#45;&gt;mapserver -->
<g id="edge3" class="edge">
<title>gdal&#45;&gt;mapserver</title>
<path fill="none" stroke="black" d="M439.62,-255.83C423.83,-245.96 401.87,-232.24 383.48,-220.75"/>
<polygon fill="black" stroke="black" points="385.59,-217.94 375.26,-215.61 381.88,-223.87 385.59,-217.94"/>
</g>
<!-- libpdal -->
<g id="node5" class="node">
<title>libpdal</title>
<g id="a_node5"><a xlink:href="https://github.com/conda-forge/libpdal-feedstock" xlink:title="libpdal">
<ellipse fill="#fde725" stroke="black" cx="406.69" cy="-126" rx="45.42" ry="18"/>
<text xml:space="preserve" text-anchor="middle" x="406.69" y="-121.33" font-family="Times,serif" font-size="14.00">libpdal</text>
</a>
</g>
</g>
<!-- gdal&#45;&gt;libpdal -->
<g id="edge4" class="edge">
<title>gdal&#45;&gt;libpdal</title>
<path fill="none" stroke="black" d="M454.18,-251.87C445.01,-227.78 428.21,-183.6 417.25,-154.77"/>
<polygon fill="black" stroke="black" points="420.59,-153.71 413.76,-145.6 414.05,-156.2 420.59,-153.71"/>
</g>
<!-- pgrouting -->
<g id="node6" class="node">
<title>pgrouting</title>
<g id="a_node6"><a xlink:href="https://github.com/conda-forge/pgrouting-feedstock" xlink:title="pgrouting">
<ellipse fill="#fde725" stroke="black" cx="568.69" cy="-126" rx="60.68" ry="18"/>
<text xml:space="preserve" text-anchor="middle" x="568.69" y="-121.33" font-family="Times,serif" font-size="14.00">pgrouting</text>
</a>
</g>
</g>
<!-- postgis&#45;&gt;pgrouting -->
<g id="edge5" class="edge">
<title>postgis&#45;&gt;pgrouting</title>
<path fill="none" stroke="black" d="M568.69,-179.7C568.69,-172.41 568.69,-163.73 568.69,-155.54"/>
<polygon fill="black" stroke="black" points="572.19,-155.62 568.69,-145.62 565.19,-155.62 572.19,-155.62"/>
</g>
<!-- meos -->
<g id="node7" class="node">
<title>meos</title>
<g id="a_node7"><a xlink:href="https://github.com/conda-forge/meos-feedstock" xlink:title="meos">
<ellipse fill="#fde725" stroke="black" cx="657.69" cy="-54" rx="37.53" ry="18"/>
<text xml:space="preserve" text-anchor="middle" x="657.69" y="-49.33" font-family="Times,serif" font-size="14.00">meos</text>
</a>
</g>
</g>
<!-- postgis&#45;&gt;meos -->
<g id="edge6" class="edge">
<title>postgis&#45;&gt;meos</title>
<path fill="none" stroke="black" d="M595.84,-182.85C610.72,-173.71 628.22,-160.46 638.69,-144 650.17,-125.96 654.82,-102.11 656.66,-83.65"/>
<polygon fill="black" stroke="black" points="660.13,-84.15 657.38,-73.91 653.15,-83.62 660.13,-84.15"/>
</g>
<!-- libpdal&#45;&gt;qgis -->
<g id="edge7" class="edge">
<title>libpdal&#45;&gt;qgis</title>
<path fill="none" stroke="black" d="M386.08,-109.81C372.56,-99.85 354.71,-86.7 339.88,-75.77"/>
<polygon fill="black" stroke="black" points="341.99,-72.98 331.87,-69.87 337.84,-78.62 341.99,-72.98"/>
</g>
<!-- psycopg2 -->
<g id="node8" class="node">
<title>psycopg2</title>
<g id="a_node8"><a xlink:href="https://github.com/conda-forge/psycopg2-feedstock/pull/129" xlink:title="psycopg2 ❎">
<ellipse fill="#31688e" stroke="black" cx="269.69" cy="-126" rx="73.83" ry="18"/>
<text xml:space="preserve" text-anchor="middle" x="269.69" y="-121.33" font-family="Times,serif" font-size="14.00" fill="white">psycopg2 ❎</text>
</a>
</g>
</g>
<!-- psycopg2&#45;&gt;qgis -->
<g id="edge8" class="edge">
<title>psycopg2&#45;&gt;qgis</title>
<path fill="none" stroke="black" d="M280.07,-107.7C284.94,-99.58 290.85,-89.74 296.23,-80.76"/>
<polygon fill="black" stroke="black" points="299.08,-82.82 301.22,-72.44 293.08,-79.22 299.08,-82.82"/>
</g>
<!-- rdkit -->
<g id="node9" class="node">
<title>rdkit</title>
<g id="a_node9"><a xlink:href="https://github.com/conda-forge/rdkit-feedstock" xlink:title="rdkit">
<ellipse fill="#fde725" stroke="black" cx="212.69" cy="-54" rx="35.42" ry="18"/>
<text xml:space="preserve" text-anchor="middle" x="212.69" y="-49.33" font-family="Times,serif" font-size="14.00">rdkit</text>
</a>
</g>
</g>
<!-- psycopg2&#45;&gt;rdkit -->
<g id="edge9" class="edge">
<title>psycopg2&#45;&gt;rdkit</title>
<path fill="none" stroke="black" d="M255.89,-108.05C248.97,-99.56 240.46,-89.11 232.83,-79.73"/>
<polygon fill="black" stroke="black" points="235.56,-77.55 226.54,-72 230.14,-81.97 235.56,-77.55"/>
</g>
<!-- r&#45;rpostgresql -->
<g id="node10" class="node">
<title>r&#45;rpostgresql</title>
<g id="a_node10"><a xlink:href="https://github.com/conda-forge/r-rpostgresql-feedstock" xlink:title="r rpostgresql">
<ellipse fill="#35b779" stroke="black" cx="823.69" cy="-378" rx="76.99" ry="18"/>
<text xml:space="preserve" text-anchor="middle" x="823.69" y="-373.32" font-family="Times,serif" font-size="14.00">r rpostgresql</text>
</a>
</g>
</g>
<!-- r&#45;rpostgres -->
<g id="node11" class="node">
<title>r&#45;rpostgres</title>
<g id="a_node11"><a xlink:href="https://github.com/conda-forge/r-rpostgres-feedstock" xlink:title="r rpostgres">
<ellipse fill="#35b779" stroke="black" cx="823.69" cy="-306" rx="67.52" ry="18"/>
<text xml:space="preserve" text-anchor="middle" x="823.69" y="-301.32" font-family="Times,serif" font-size="14.00">r rpostgres</text>
</a>
</g>
</g>
<!-- r&#45;rpostgresql&#45;&gt;r&#45;rpostgres -->
<!-- psqlodbc -->
<g id="node12" class="node">
<title>psqlodbc</title>
<g id="a_node12"><a xlink:href="https://github.com/conda-forge/psqlodbc-feedstock" xlink:title="psqlodbc">
<ellipse fill="#35b779" stroke="black" cx="823.69" cy="-234" rx="55.94" ry="18"/>
<text xml:space="preserve" text-anchor="middle" x="823.69" y="-229.32" font-family="Times,serif" font-size="14.00">psqlodbc</text>
</a>
</g>
</g>
<!-- r&#45;rpostgres&#45;&gt;psqlodbc -->
<!-- pgvector -->
<g id="node13" class="node">
<title>pgvector</title>
<g id="a_node13"><a xlink:href="https://github.com/conda-forge/pgvector-feedstock" xlink:title="pgvector">
<ellipse fill="#35b779" stroke="black" cx="823.69" cy="-162" rx="55.42" ry="18"/>
<text xml:space="preserve" text-anchor="middle" x="823.69" y="-157.32" font-family="Times,serif" font-size="14.00">pgvector</text>
</a>
</g>
</g>
<!-- psqlodbc&#45;&gt;pgvector -->
<!-- psycopg2&#45;yugabytedb -->
<g id="node19" class="node">
<title>psycopg2&#45;yugabytedb</title>
<g id="a_node19"><a xlink:href="https://github.com/conda-forge/psycopg2-yugabytedb-feedstock" xlink:title="psycopg2 yugabytedb">
<ellipse fill="#35b779" stroke="black" cx="823.69" cy="-90" rx="120.65" ry="18"/>
<text xml:space="preserve" text-anchor="middle" x="823.69" y="-85.33" font-family="Times,serif" font-size="14.00">psycopg2 yugabytedb</text>
</a>
</g>
</g>
<!-- pgvector&#45;&gt;psycopg2&#45;yugabytedb -->
<!-- soci -->
<g id="node14" class="node">
<title>soci</title>
<g id="a_node14"><a xlink:href="https://github.com/conda-forge/soci-feedstock" xlink:title="soci">
<ellipse fill="#35b779" stroke="black" cx="30.69" cy="-126" rx="30.69" ry="18"/>
<text xml:space="preserve" text-anchor="middle" x="30.69" y="-121.33" font-family="Times,serif" font-size="14.00">soci</text>
</a>
</g>
</g>
<!-- rstudio -->
<g id="node15" class="node">
<title>rstudio</title>
<g id="a_node15"><a xlink:href="https://github.com/conda-forge/rstudio-feedstock" xlink:title="rstudio">
<ellipse fill="#fde725" stroke="black" cx="86.69" cy="-54" rx="47" ry="18"/>
<text xml:space="preserve" text-anchor="middle" x="86.69" y="-49.33" font-family="Times,serif" font-size="14.00">rstudio</text>
</a>
</g>
</g>
<!-- soci&#45;&gt;rstudio -->
<g id="edge13" class="edge">
<title>soci&#45;&gt;rstudio</title>
<path fill="none" stroke="black" d="M43.4,-109.12C50.24,-100.56 58.85,-89.8 66.58,-80.13"/>
<polygon fill="black" stroke="black" points="69.18,-82.48 72.7,-72.49 63.72,-78.11 69.18,-82.48"/>
</g>
<!-- libpqxx -->
<g id="node16" class="node">
<title>libpqxx</title>
<g id="a_node16"><a xlink:href="https://github.com/conda-forge/libpqxx-feedstock" xlink:title="libpqxx">
<ellipse fill="#35b779" stroke="black" cx="1039.69" cy="-234" rx="48.05" ry="18"/>
<text xml:space="preserve" text-anchor="middle" x="1039.69" y="-229.32" font-family="Times,serif" font-size="14.00">libpqxx</text>
</a>
</g>
</g>
<!-- osm2pgrouting -->
<g id="node17" class="node">
<title>osm2pgrouting</title>
<g id="a_node17"><a xlink:href="https://github.com/conda-forge/osm2pgrouting-feedstock" xlink:title="osm2pgrouting">
<ellipse fill="#fde725" stroke="black" cx="1039.69" cy="-162" rx="87.51" ry="18"/>
<text xml:space="preserve" text-anchor="middle" x="1039.69" y="-157.32" font-family="Times,serif" font-size="14.00">osm2pgrouting</text>
</a>
</g>
</g>
<!-- libpqxx&#45;&gt;osm2pgrouting -->
<g id="edge14" class="edge">
<title>libpqxx&#45;&gt;osm2pgrouting</title>
<path fill="none" stroke="black" d="M1039.69,-215.7C1039.69,-208.41 1039.69,-199.73 1039.69,-191.54"/>
<polygon fill="black" stroke="black" points="1043.19,-191.62 1039.69,-181.62 1036.19,-191.62 1043.19,-191.62"/>
</g>
<!-- qt&#45;main -->
<g id="node18" class="node">
<title>qt&#45;main</title>
<g id="a_node18"><a xlink:href="https://github.com/conda-forge/qt-main-feedstock" xlink:title="qt main">
<ellipse fill="#35b779" stroke="black" cx="128.69" cy="-126" rx="49.63" ry="18"/>
<text xml:space="preserve" text-anchor="middle" x="128.69" y="-121.33" font-family="Times,serif" font-size="14.00">qt main</text>
</a>
</g>
</g>
<!-- qt&#45;main&#45;&gt;qgis -->
<g id="edge15" class="edge">
<title>qt&#45;main&#45;&gt;qgis</title>
<path fill="none" stroke="black" d="M161.83,-112.32C193.76,-100.11 241.95,-81.68 275.01,-69.03"/>
<polygon fill="black" stroke="black" points="276.1,-72.36 284.19,-65.52 273.6,-65.82 276.1,-72.36"/>
</g>
<!-- qt&#45;main&#45;&gt;rdkit -->
<g id="edge16" class="edge">
<title>qt&#45;main&#45;&gt;rdkit</title>
<path fill="none" stroke="black" d="M147.75,-109.12C159.12,-99.64 173.74,-87.46 186.22,-77.06"/>
<polygon fill="black" stroke="black" points="188.25,-79.92 193.69,-70.83 183.77,-74.55 188.25,-79.92"/>
</g>
<!-- qt&#45;main&#45;&gt;rstudio -->
<g id="edge17" class="edge">
<title>qt&#45;main&#45;&gt;rstudio</title>
<path fill="none" stroke="black" d="M118.52,-108.05C113.72,-100.06 107.89,-90.33 102.53,-81.4"/>
<polygon fill="black" stroke="black" points="105.69,-79.86 97.54,-73.09 99.69,-83.46 105.69,-79.86"/>
</g>
<!-- pspg -->
<g id="node21" class="node">
<title>pspg</title>
<g id="a_node21"><a xlink:href="https://github.com/conda-forge/pspg-feedstock" xlink:title="pspg">
<ellipse fill="#35b779" stroke="black" cx="823.69" cy="-18" rx="35.42" ry="18"/>
<text xml:space="preserve" text-anchor="middle" x="823.69" y="-13.32" font-family="Times,serif" font-size="14.00">pspg</text>
</a>
</g>
</g>
<!-- psycopg2&#45;yugabytedb&#45;&gt;pspg -->
<!-- arrow&#45;adbc&#45;split -->
<g id="node20" class="node">
<title>arrow&#45;adbc&#45;split</title>
<g id="a_node20"><a xlink:href="https://github.com/conda-forge/arrow-adbc-split-feedstock" xlink:title="arrow adbc split">
<ellipse fill="#35b779" stroke="black" cx="460.69" cy="-342" rx="92.77" ry="18"/>
<text xml:space="preserve" text-anchor="middle" x="460.69" y="-337.32" font-family="Times,serif" font-size="14.00">arrow adbc split</text>
</a>
</g>
</g>
<!-- arrow&#45;adbc&#45;split&#45;&gt;gdal -->
<g id="edge19" class="edge">
<title>arrow&#45;adbc&#45;split&#45;&gt;gdal</title>
<path fill="none" stroke="black" d="M460.69,-323.7C460.69,-316.41 460.69,-307.73 460.69,-299.54"/>
<polygon fill="black" stroke="black" points="464.19,-299.62 460.69,-289.62 457.19,-299.62 464.19,-299.62"/>
</g>
</g>
</svg>
