<?xml version="1.0" encoding="UTF-8" standalone="no"?>
<!DOCTYPE svg PUBLIC "-//W3C//DTD SVG 1.1//EN"
 "http://www.w3.org/Graphics/SVG/1.1/DTD/svg11.dtd">
<!-- Generated by graphviz version 12.0.0 (20240803.0821)
 -->
<!-- Pages: 1 -->
<svg width="447pt" height="116pt"
 viewBox="0.00 0.00 447.19 116.00" xmlns="http://www.w3.org/2000/svg" xmlns:xlink="http://www.w3.org/1999/xlink">
<g id="graph0" class="graph" transform="scale(1 1) rotate(0) translate(4 112)">
<polygon fill="white" stroke="none" points="-4,4 -4,-112 443.19,-112 443.19,4 -4,4"/>
<!-- qgis -->
<g id="node1" class="node">
<title>qgis</title>
<g id="a_node1"><a xlink:href="https://github.com/conda-forge/qgis-feedstock" xlink:title="qgis">
<ellipse fill="#fde725" stroke="black" cx="32.27" cy="-18" rx="32.27" ry="18"/>
<text text-anchor="middle" x="32.27" y="-13.32" font-family="Times,serif" font-size="14.00">qgis</text>
</a>
</g>
</g>
<!-- qt&#45;main -->
<g id="node2" class="node">
<title>qt&#45;main</title>
<g id="a_node2"><a xlink:href="https://github.com/conda-forge/qt-main-feedstock/pull/303" xlink:title="qt main ❎">
<ellipse fill="#31688e" stroke="black" cx="80.27" cy="-90" rx="64.89" ry="18"/>
<text text-anchor="middle" x="80.27" y="-85.33" font-family="Times,serif" font-size="14.00" fill="white">qt main ❎</text>
</a>
</g>
</g>
<!-- qt&#45;main&#45;&gt;qgis -->
<g id="edge1" class="edge">
<title>qt&#45;main&#45;&gt;qgis</title>
<path fill="none" stroke="black" d="M68.65,-72.05C63.02,-63.85 56.15,-53.83 49.9,-44.71"/>
<polygon fill="black" stroke="black" points="52.85,-42.82 44.31,-36.56 47.07,-46.78 52.85,-42.82"/>
</g>
<!-- rstudio -->
<g id="node3" class="node">
<title>rstudio</title>
<g id="a_node3"><a xlink:href="https://github.com/conda-forge/rstudio-feedstock" xlink:title="rstudio">
<ellipse fill="#fde725" stroke="black" cx="129.27" cy="-18" rx="47" ry="18"/>
<text text-anchor="middle" x="129.27" y="-13.32" font-family="Times,serif" font-size="14.00">rstudio</text>
</a>
</g>
</g>
<!-- qt&#45;main&#45;&gt;rstudio -->
<g id="edge2" class="edge">
<title>qt&#45;main&#45;&gt;rstudio</title>
<path fill="none" stroke="black" d="M92.13,-72.05C97.79,-63.97 104.68,-54.12 110.99,-45.11"/>
<polygon fill="black" stroke="black" points="113.78,-47.23 116.65,-37.03 108.05,-43.21 113.78,-47.23"/>
</g>
<!-- pgvector -->
<g id="node4" class="node">
<title>pgvector</title>
<g id="a_node4"><a xlink:href="https://github.com/conda-forge/pgvector-feedstock/pull/29" xlink:title="pgvector ❎">
<ellipse fill="#31688e" stroke="black" cx="254.94" cy="-54" rx="70.67" ry="18"/>
<text text-anchor="middle" x="254.94" y="-49.33" font-family="Times,serif" font-size="14.00" fill="white">pgvector ❎</text>
</a>
</g>
</g>
<!-- meos -->
<g id="node5" class="node">
<title>meos</title>
<g id="a_node5"><a xlink:href="https://github.com/conda-forge/meos-feedstock/pull/9" xlink:title="meos ❎">
<ellipse fill="#31688e" stroke="black" cx="386.4" cy="-54" rx="52.79" ry="18"/>
<text text-anchor="middle" x="386.4" y="-49.33" font-family="Times,serif" font-size="14.00" fill="white">meos ❎</text>
</a>
</g>
</g>
</g>
</svg>
