<?xml version="1.0" encoding="UTF-8" standalone="no"?>
<!DOCTYPE svg PUBLIC "-//W3C//DTD SVG 1.1//EN"
 "http://www.w3.org/Graphics/SVG/1.1/DTD/svg11.dtd">
<!-- Generated by graphviz version 12.0.0 (20240803.0821)
 -->
<!-- Pages: 1 -->
<svg width="2036pt" height="1644pt"
 viewBox="0.00 0.00 2036.34 1644.00" xmlns="http://www.w3.org/2000/svg" xmlns:xlink="http://www.w3.org/1999/xlink">
<g id="graph0" class="graph" transform="scale(1 1) rotate(0) translate(4 1640)">
<polygon fill="white" stroke="none" points="-4,4 -4,-1640 2032.34,-1640 2032.34,4 -4,4"/>
<!-- arrow&#45;cpp -->
<g id="node1" class="node">
<title>arrow&#45;cpp</title>
<g id="a_node1"><a xlink:href="https://github.com/conda-forge/arrow-cpp-feedstock" xlink:title="arrow cpp">
<ellipse fill="#fde725" stroke="black" cx="169.84" cy="-1330" rx="61.73" ry="18"/>
<text text-anchor="middle" x="169.84" y="-1325.33" font-family="Times,serif" font-size="14.00">arrow cpp</text>
</a>
</g>
</g>
<!-- datafusion -->
<g id="node2" class="node">
<title>datafusion</title>
<g id="a_node2"><a xlink:href="https://github.com/conda-forge/datafusion-feedstock" xlink:title="datafusion">
<ellipse fill="#fde725" stroke="black" cx="63.84" cy="-1258" rx="63.84" ry="18"/>
<text text-anchor="middle" x="63.84" y="-1253.33" font-family="Times,serif" font-size="14.00">datafusion</text>
</a>
</g>
</g>
<!-- arrow&#45;cpp&#45;&gt;datafusion -->
<g id="edge1" class="edge">
<title>arrow&#45;cpp&#45;&gt;datafusion</title>
<path fill="none" stroke="black" d="M145.78,-1313.12C131.52,-1303.7 113.22,-1291.61 97.53,-1281.25"/>
<polygon fill="black" stroke="black" points="99.7,-1278.49 89.42,-1275.9 95.84,-1284.33 99.7,-1278.49"/>
</g>
<!-- arcticdb -->
<g id="node3" class="node">
<title>arcticdb</title>
<g id="a_node3"><a xlink:href="https://github.com/conda-forge/arcticdb-feedstock" xlink:title="arcticdb">
<ellipse fill="#fde725" stroke="black" cx="148.84" cy="-1186" rx="52.26" ry="18"/>
<text text-anchor="middle" x="148.84" y="-1181.33" font-family="Times,serif" font-size="14.00">arcticdb</text>
</a>
</g>
</g>
<!-- arrow&#45;cpp&#45;&gt;arcticdb -->
<g id="edge2" class="edge">
<title>arrow&#45;cpp&#45;&gt;arcticdb</title>
<path fill="none" stroke="black" d="M167.26,-1311.59C163.71,-1287.61 157.29,-1244.14 153.04,-1215.42"/>
<polygon fill="black" stroke="black" points="156.51,-1214.99 151.59,-1205.61 149.59,-1216.01 156.51,-1214.99"/>
</g>
<!-- csp -->
<g id="node4" class="node">
<title>csp</title>
<g id="a_node4"><a xlink:href="https://github.com/conda-forge/csp-feedstock" xlink:title="csp">
<ellipse fill="#fde725" stroke="black" cx="228.84" cy="-1114" rx="28.06" ry="18"/>
<text text-anchor="middle" x="228.84" y="-1109.33" font-family="Times,serif" font-size="14.00">csp</text>
</a>
</g>
</g>
<!-- arrow&#45;cpp&#45;&gt;csp -->
<g id="edge3" class="edge">
<title>arrow&#45;cpp&#45;&gt;csp</title>
<path fill="none" stroke="black" d="M175.95,-1311.77C184.31,-1287.81 199.47,-1242.97 209.84,-1204 215.18,-1183.9 220.05,-1160.94 223.52,-1143.38"/>
<polygon fill="black" stroke="black" points="226.94,-1144.15 225.41,-1133.67 220.07,-1142.82 226.94,-1144.15"/>
</g>
<!-- bazel -->
<g id="node5" class="node">
<title>bazel</title>
<g id="a_node5"><a xlink:href="https://github.com/conda-forge/bazel-feedstock" xlink:title="bazel">
<ellipse fill="#ff8c00" stroke="black" cx="376.17" cy="-854" rx="37.53" ry="18"/>
<text text-anchor="middle" x="376.17" y="-849.33" font-family="Times,serif" font-size="14.00">bazel</text>
</a>
</g>
</g>
<!-- mosh -->
<g id="node6" class="node">
<title>mosh</title>
<g id="a_node6"><a xlink:href="https://github.com/conda-forge/mosh-feedstock/pull/42" xlink:title="mosh ❎">
<ellipse fill="#31688e" stroke="black" cx="376.17" cy="-782" rx="53.31" ry="18"/>
<text text-anchor="middle" x="376.17" y="-777.33" font-family="Times,serif" font-size="14.00" fill="white">mosh ❎</text>
</a>
</g>
</g>
<!-- bazel&#45;&gt;mosh -->
<!-- mysql -->
<g id="node7" class="node">
<title>mysql</title>
<g id="a_node7"><a xlink:href="https://github.com/conda-forge/mysql-feedstock/pull/107" xlink:title="mysql ❎">
<ellipse fill="#31688e" stroke="black" cx="376.17" cy="-710" rx="56.47" ry="18"/>
<text text-anchor="middle" x="376.17" y="-705.33" font-family="Times,serif" font-size="14.00" fill="white">mysql ❎</text>
</a>
</g>
</g>
<!-- mosh&#45;&gt;mysql -->
<!-- onnx -->
<g id="node8" class="node">
<title>onnx</title>
<g id="a_node8"><a xlink:href="https://github.com/conda-forge/onnx-feedstock/pull/125" xlink:title="onnx ❎">
<ellipse fill="#31688e" stroke="black" cx="376.17" cy="-638" rx="50.68" ry="18"/>
<text text-anchor="middle" x="376.17" y="-633.33" font-family="Times,serif" font-size="14.00" fill="white">onnx ❎</text>
</a>
</g>
</g>
<!-- mysql&#45;&gt;onnx -->
<!-- paraview -->
<g id="node9" class="node">
<title>paraview</title>
<g id="a_node9"><a xlink:href="https://github.com/conda-forge/paraview-feedstock/pull/269" xlink:title="paraview ❎">
<ellipse fill="#31688e" stroke="black" cx="376.17" cy="-566" rx="72.25" ry="18"/>
<text text-anchor="middle" x="376.17" y="-561.33" font-family="Times,serif" font-size="14.00" fill="white">paraview ❎</text>
</a>
</g>
</g>
<!-- onnx&#45;&gt;paraview -->
<!-- qgis -->
<g id="node14" class="node">
<title>qgis</title>
<g id="a_node14"><a xlink:href="https://github.com/conda-forge/qgis-feedstock/pull/495" xlink:title="qgis ❎">
<ellipse fill="#31688e" stroke="black" cx="376.17" cy="-494" rx="47.53" ry="18"/>
<text text-anchor="middle" x="376.17" y="-489.32" font-family="Times,serif" font-size="14.00" fill="white">qgis ❎</text>
</a>
</g>
</g>
<!-- paraview&#45;&gt;qgis -->
<!-- opencv -->
<g id="node10" class="node">
<title>opencv</title>
<g id="a_node10"><a xlink:href="https://github.com/conda-forge/opencv-feedstock" xlink:title="opencv">
<ellipse fill="#fde725" stroke="black" cx="1776.1" cy="-1294" rx="46.47" ry="18"/>
<text text-anchor="middle" x="1776.1" y="-1289.33" font-family="Times,serif" font-size="14.00">opencv</text>
</a>
</g>
</g>
<!-- imp -->
<g id="node11" class="node">
<title>imp</title>
<g id="a_node11"><a xlink:href="https://github.com/conda-forge/imp-feedstock" xlink:title="imp">
<ellipse fill="#fde725" stroke="black" cx="1718.1" cy="-1222" rx="30.16" ry="18"/>
<text text-anchor="middle" x="1718.1" y="-1217.33" font-family="Times,serif" font-size="14.00">imp</text>
</a>
</g>
</g>
<!-- opencv&#45;&gt;imp -->
<g id="edge8" class="edge">
<title>opencv&#45;&gt;imp</title>
<path fill="none" stroke="black" d="M1762.36,-1276.41C1755.15,-1267.71 1746.18,-1256.89 1738.2,-1247.26"/>
<polygon fill="black" stroke="black" points="1740.99,-1245.14 1731.92,-1239.68 1735.6,-1249.61 1740.99,-1245.14"/>
</g>
<!-- gazebo&#45;yarp&#45;plugins -->
<g id="node12" class="node">
<title>gazebo&#45;yarp&#45;plugins</title>
<g id="a_node12"><a xlink:href="https://github.com/conda-forge/gazebo-yarp-plugins-feedstock" xlink:title="gazebo yarp plugins">
<ellipse fill="#fde725" stroke="black" cx="1916.1" cy="-1222" rx="112.24" ry="18"/>
<text text-anchor="middle" x="1916.1" y="-1217.33" font-family="Times,serif" font-size="14.00">gazebo yarp plugins</text>
</a>
</g>
</g>
<!-- opencv&#45;&gt;gazebo&#45;yarp&#45;plugins -->
<g id="edge9" class="edge">
<title>opencv&#45;&gt;gazebo&#45;yarp&#45;plugins</title>
<path fill="none" stroke="black" d="M1803.76,-1279.17C1823.45,-1269.32 1850.31,-1255.89 1872.83,-1244.64"/>
<polygon fill="black" stroke="black" points="1874.09,-1247.92 1881.47,-1240.31 1870.96,-1241.66 1874.09,-1247.92"/>
</g>
<!-- nvidia&#45;dali&#45;python -->
<g id="node13" class="node">
<title>nvidia&#45;dali&#45;python</title>
<g id="a_node13"><a xlink:href="https://github.com/conda-forge/nvidia-dali-python-feedstock" xlink:title="nvidia dali python">
<ellipse fill="#fde725" stroke="black" cx="1776.1" cy="-1150" rx="101.19" ry="18"/>
<text text-anchor="middle" x="1776.1" y="-1145.33" font-family="Times,serif" font-size="14.00">nvidia dali python</text>
</a>
</g>
</g>
<!-- opencv&#45;&gt;nvidia&#45;dali&#45;python -->
<g id="edge10" class="edge">
<title>opencv&#45;&gt;nvidia&#45;dali&#45;python</title>
<path fill="none" stroke="black" d="M1776.1,-1275.59C1776.1,-1251.61 1776.1,-1208.14 1776.1,-1179.42"/>
<polygon fill="black" stroke="black" points="1779.6,-1179.62 1776.1,-1169.62 1772.6,-1179.62 1779.6,-1179.62"/>
</g>
<!-- tensorflow -->
<g id="node15" class="node">
<title>tensorflow</title>
<g id="a_node15"><a xlink:href="https://github.com/conda-forge/tensorflow-feedstock/pull/411" xlink:title="tensorflow ❎">
<ellipse fill="#31688e" stroke="black" cx="376.17" cy="-422" rx="79.09" ry="18"/>
<text text-anchor="middle" x="376.17" y="-417.32" font-family="Times,serif" font-size="14.00" fill="white">tensorflow ❎</text>
</a>
</g>
</g>
<!-- qgis&#45;&gt;tensorflow -->
<!-- pytorch&#45;cpu -->
<g id="node16" class="node">
<title>pytorch&#45;cpu</title>
<g id="a_node16"><a xlink:href="https://github.com/conda-forge/pytorch-cpu-feedstock/pull/310" xlink:title="pytorch cpu ❎">
<ellipse fill="#31688e" stroke="black" cx="376.17" cy="-350" rx="85.93" ry="18"/>
<text text-anchor="middle" x="376.17" y="-345.32" font-family="Times,serif" font-size="14.00" fill="white">pytorch cpu ❎</text>
</a>
</g>
</g>
<!-- tensorflow&#45;&gt;pytorch&#45;cpu -->
<!-- go&#45;cockroach -->
<g id="node17" class="node">
<title>go&#45;cockroach</title>
<g id="a_node17"><a xlink:href="https://github.com/conda-forge/go-cockroach-feedstock/pull/30" xlink:title="go cockroach ❎">
<ellipse fill="#31688e" stroke="black" cx="376.17" cy="-278" rx="91.72" ry="18"/>
<text text-anchor="middle" x="376.17" y="-273.32" font-family="Times,serif" font-size="14.00" fill="white">go cockroach ❎</text>
</a>
</g>
</g>
<!-- pytorch&#45;cpu&#45;&gt;go&#45;cockroach -->
<!-- cartographer -->
<g id="node21" class="node">
<title>cartographer</title>
<g id="a_node21"><a xlink:href="https://github.com/conda-forge/cartographer-feedstock/pull/73" xlink:title="cartographer ❎">
<ellipse fill="#31688e" stroke="black" cx="376.17" cy="-206" rx="92.25" ry="18"/>
<text text-anchor="middle" x="376.17" y="-201.33" font-family="Times,serif" font-size="14.00" fill="white">cartographer ❎</text>
</a>
</g>
</g>
<!-- go&#45;cockroach&#45;&gt;cartographer -->
<!-- orc -->
<g id="node18" class="node">
<title>orc</title>
<g id="a_node18"><a xlink:href="https://github.com/conda-forge/orc-feedstock/pull/82" xlink:title="orc ✓">
<ellipse fill="#31688e" stroke="black" cx="169.84" cy="-1402" rx="34.9" ry="18"/>
<text text-anchor="middle" x="169.84" y="-1397.33" font-family="Times,serif" font-size="14.00" fill="white">orc ✓</text>
</a>
</g>
</g>
<!-- orc&#45;&gt;arrow&#45;cpp -->
<g id="edge15" class="edge">
<title>orc&#45;&gt;arrow&#45;cpp</title>
<path fill="none" stroke="black" d="M169.84,-1383.7C169.84,-1376.41 169.84,-1367.73 169.84,-1359.54"/>
<polygon fill="black" stroke="black" points="173.34,-1359.62 169.84,-1349.62 166.34,-1359.62 173.34,-1359.62"/>
</g>
<!-- gazebo -->
<g id="node19" class="node">
<title>gazebo</title>
<g id="a_node19"><a xlink:href="https://github.com/conda-forge/gazebo-feedstock/pull/236" xlink:title="gazebo ❎">
<ellipse fill="#31688e" stroke="black" cx="1916.1" cy="-1294" rx="61.73" ry="18"/>
<text text-anchor="middle" x="1916.1" y="-1289.33" font-family="Times,serif" font-size="14.00" fill="white">gazebo ❎</text>
</a>
</g>
</g>
<!-- gazebo&#45;&gt;gazebo&#45;yarp&#45;plugins -->
<g id="edge16" class="edge">
<title>gazebo&#45;&gt;gazebo&#45;yarp&#45;plugins</title>
<path fill="none" stroke="black" d="M1916.1,-1275.7C1916.1,-1268.41 1916.1,-1259.73 1916.1,-1251.54"/>
<polygon fill="black" stroke="black" points="1919.6,-1251.62 1916.1,-1241.62 1912.6,-1251.62 1919.6,-1251.62"/>
</g>
<!-- google&#45;cloud&#45;cpp -->
<g id="node20" class="node">
<title>google&#45;cloud&#45;cpp</title>
<g id="a_node20"><a xlink:href="https://github.com/conda-forge/google-cloud-cpp-feedstock" xlink:title="google cloud cpp">
<ellipse fill="#fde725" stroke="black" cx="402.84" cy="-1114" rx="95.4" ry="18"/>
<text text-anchor="middle" x="402.84" y="-1109.33" font-family="Times,serif" font-size="14.00">google cloud cpp</text>
</a>
</g>
</g>
<!-- tomviz -->
<g id="node22" class="node">
<title>tomviz</title>
<g id="a_node22"><a xlink:href="https://github.com/conda-forge/tomviz-feedstock/pull/70" xlink:title="tomviz ❎">
<ellipse fill="#31688e" stroke="black" cx="376.17" cy="-134" rx="60.15" ry="18"/>
<text text-anchor="middle" x="376.17" y="-129.32" font-family="Times,serif" font-size="14.00" fill="white">tomviz ❎</text>
</a>
</g>
</g>
<!-- cartographer&#45;&gt;tomviz -->
<!-- sentencepiece -->
<g id="node23" class="node">
<title>sentencepiece</title>
<g id="a_node23"><a xlink:href="https://github.com/conda-forge/sentencepiece-feedstock/pull/62" xlink:title="sentencepiece ❎">
<ellipse fill="#31688e" stroke="black" cx="1477.1" cy="-1366" rx="97.51" ry="18"/>
<text text-anchor="middle" x="1477.1" y="-1361.33" font-family="Times,serif" font-size="14.00" fill="white">sentencepiece ❎</text>
</a>
</g>
</g>
<!-- openvino&#45;tokenizers -->
<g id="node24" class="node">
<title>openvino&#45;tokenizers</title>
<g id="a_node24"><a xlink:href="https://github.com/conda-forge/openvino-tokenizers-feedstock" xlink:title="openvino tokenizers">
<ellipse fill="#fde725" stroke="black" cx="1600.1" cy="-1294" rx="111.71" ry="18"/>
<text text-anchor="middle" x="1600.1" y="-1289.33" font-family="Times,serif" font-size="14.00">openvino tokenizers</text>
</a>
</g>
</g>
<!-- sentencepiece&#45;&gt;openvino&#45;tokenizers -->
<g id="edge19" class="edge">
<title>sentencepiece&#45;&gt;openvino&#45;tokenizers</title>
<path fill="none" stroke="black" d="M1506.25,-1348.41C1522.67,-1339.06 1543.4,-1327.27 1561.2,-1317.14"/>
<polygon fill="black" stroke="black" points="1562.46,-1320.45 1569.42,-1312.46 1559,-1314.37 1562.46,-1320.45"/>
</g>
<!-- curated&#45;tokenizers -->
<g id="node25" class="node">
<title>curated&#45;tokenizers</title>
<g id="a_node25"><a xlink:href="https://github.com/conda-forge/curated-tokenizers-feedstock" xlink:title="curated tokenizers">
<ellipse fill="#fde725" stroke="black" cx="1365.1" cy="-1294" rx="104.87" ry="18"/>
<text text-anchor="middle" x="1365.1" y="-1289.33" font-family="Times,serif" font-size="14.00">curated tokenizers</text>
</a>
</g>
</g>
<!-- sentencepiece&#45;&gt;curated&#45;tokenizers -->
<g id="edge20" class="edge">
<title>sentencepiece&#45;&gt;curated&#45;tokenizers</title>
<path fill="none" stroke="black" d="M1450.27,-1348.23C1435.7,-1339.12 1417.46,-1327.72 1401.61,-1317.82"/>
<polygon fill="black" stroke="black" points="1403.72,-1315.01 1393.38,-1312.67 1400.01,-1320.94 1403.72,-1315.01"/>
</g>
<!-- protozfits -->
<g id="node26" class="node">
<title>protozfits</title>
<g id="a_node26"><a xlink:href="https://github.com/conda-forge/protozfits-feedstock/pull/46" xlink:title="protozfits ✓">
<ellipse fill="#31688e" stroke="black" cx="1006.28" cy="-1618" rx="66.99" ry="18"/>
<text text-anchor="middle" x="1006.28" y="-1613.33" font-family="Times,serif" font-size="14.00" fill="white">protozfits ✓</text>
</a>
</g>
</g>
<!-- grpc_java_plugin -->
<g id="node27" class="node">
<title>grpc_java_plugin</title>
<g id="a_node27"><a xlink:href="https://github.com/conda-forge/grpc_java_plugin-feedstock/pull/88" xlink:title="grpc_java_plugin ✓">
<ellipse fill="#31688e" stroke="black" cx="1006.28" cy="-1546" rx="103.29" ry="18"/>
<text text-anchor="middle" x="1006.28" y="-1541.33" font-family="Times,serif" font-size="14.00" fill="white">grpc_java_plugin ✓</text>
</a>
</g>
</g>
<!-- protozfits&#45;&gt;grpc_java_plugin -->
<!-- or&#45;tools -->
<g id="node28" class="node">
<title>or&#45;tools</title>
<g id="a_node28"><a xlink:href="https://github.com/conda-forge/or-tools-feedstock/pull/64" xlink:title="or tools ❎">
<ellipse fill="#31688e" stroke="black" cx="1006.28" cy="-1474" rx="64.36" ry="18"/>
<text text-anchor="middle" x="1006.28" y="-1469.33" font-family="Times,serif" font-size="14.00" fill="white">or tools ❎</text>
</a>
</g>
</g>
<!-- grpc_java_plugin&#45;&gt;or&#45;tools -->
<!-- cpp&#45;opentelemetry&#45;sdk -->
<g id="node31" class="node">
<title>cpp&#45;opentelemetry&#45;sdk</title>
<g id="a_node31"><a xlink:href="https://github.com/conda-forge/cpp-opentelemetry-sdk-feedstock/pull/73" xlink:title="cpp opentelemetry sdk ❎">
<ellipse fill="#31688e" stroke="black" cx="1006.28" cy="-1402" rx="141.17" ry="18"/>
<text text-anchor="middle" x="1006.28" y="-1397.33" font-family="Times,serif" font-size="14.00" fill="white">cpp opentelemetry sdk ❎</text>
</a>
</g>
</g>
<!-- or&#45;tools&#45;&gt;cpp&#45;opentelemetry&#45;sdk -->
<!-- libignition&#45;gazebo -->
<g id="node29" class="node">
<title>libignition&#45;gazebo</title>
<g id="a_node29"><a xlink:href="https://github.com/conda-forge/libignition-gazebo-feedstock" xlink:title="libignition gazebo">
<ellipse fill="#35b779" stroke="black" cx="376.17" cy="-90" rx="100.66" ry="18"/>
<text text-anchor="middle" x="376.17" y="-85.33" font-family="Times,serif" font-size="14.00">libignition gazebo</text>
</a>
</g>
</g>
<!-- libignition&#45;launch -->
<g id="node30" class="node">
<title>libignition&#45;launch</title>
<g id="a_node30"><a xlink:href="https://github.com/conda-forge/libignition-launch-feedstock" xlink:title="libignition launch">
<ellipse fill="#fde725" stroke="black" cx="376.17" cy="-18" rx="98.56" ry="18"/>
<text text-anchor="middle" x="376.17" y="-13.32" font-family="Times,serif" font-size="14.00">libignition launch</text>
</a>
</g>
</g>
<!-- libignition&#45;gazebo&#45;&gt;libignition&#45;launch -->
<g id="edge23" class="edge">
<title>libignition&#45;gazebo&#45;&gt;libignition&#45;launch</title>
<path fill="none" stroke="black" d="M376.17,-71.7C376.17,-64.41 376.17,-55.73 376.17,-47.54"/>
<polygon fill="black" stroke="black" points="379.67,-47.62 376.17,-37.62 372.67,-47.62 379.67,-47.62"/>
</g>
<!-- xilinx&#45;runtime -->
<g id="node32" class="node">
<title>xilinx&#45;runtime</title>
<g id="a_node32"><a xlink:href="https://github.com/conda-forge/xilinx-runtime-feedstock/pull/39" xlink:title="xilinx runtime ❎">
<ellipse fill="#31688e" stroke="black" cx="1006.28" cy="-1330" rx="96.98" ry="18"/>
<text text-anchor="middle" x="1006.28" y="-1325.33" font-family="Times,serif" font-size="14.00" fill="white">xilinx runtime ❎</text>
</a>
</g>
</g>
<!-- cpp&#45;opentelemetry&#45;sdk&#45;&gt;xilinx&#45;runtime -->
<!-- libpulsar -->
<g id="node33" class="node">
<title>libpulsar</title>
<g id="a_node33"><a xlink:href="https://github.com/conda-forge/libpulsar-feedstock/pull/24" xlink:title="libpulsar ✓">
<ellipse fill="#31688e" stroke="black" cx="1006.28" cy="-1258" rx="63.31" ry="18"/>
<text text-anchor="middle" x="1006.28" y="-1253.33" font-family="Times,serif" font-size="14.00" fill="white">libpulsar ✓</text>
</a>
</g>
</g>
<!-- xilinx&#45;runtime&#45;&gt;libpulsar -->
<!-- gnss&#45;sdr -->
<g id="node42" class="node">
<title>gnss&#45;sdr</title>
<g id="a_node42"><a xlink:href="https://github.com/conda-forge/gnss-sdr-feedstock/pull/32" xlink:title="gnss sdr ❎">
<ellipse fill="#31688e" stroke="black" cx="1006.28" cy="-1186" rx="69.1" ry="18"/>
<text text-anchor="middle" x="1006.28" y="-1181.33" font-family="Times,serif" font-size="14.00" fill="white">gnss sdr ❎</text>
</a>
</g>
</g>
<!-- libpulsar&#45;&gt;gnss&#45;sdr -->
<!-- gz&#45;msgs -->
<g id="node34" class="node">
<title>gz&#45;msgs</title>
<g id="a_node34"><a xlink:href="https://github.com/conda-forge/gz-msgs-feedstock/pull/51" xlink:title="gz msgs ❎">
<ellipse fill="#31688e" stroke="black" cx="967.47" cy="-638" rx="67.52" ry="18"/>
<text text-anchor="middle" x="967.47" y="-633.33" font-family="Times,serif" font-size="14.00" fill="white">gz msgs ❎</text>
</a>
</g>
</g>
<!-- gz&#45;transport -->
<g id="node35" class="node">
<title>gz&#45;transport</title>
<g id="a_node35"><a xlink:href="https://github.com/conda-forge/gz-transport-feedstock" xlink:title="gz transport">
<ellipse fill="#fde725" stroke="black" cx="917.47" cy="-566" rx="73.3" ry="18"/>
<text text-anchor="middle" x="917.47" y="-561.33" font-family="Times,serif" font-size="14.00">gz transport</text>
</a>
</g>
</g>
<!-- gz&#45;msgs&#45;&gt;gz&#45;transport -->
<g id="edge27" class="edge">
<title>gz&#45;msgs&#45;&gt;gz&#45;transport</title>
<path fill="none" stroke="black" d="M955.36,-620.05C949.59,-611.97 942.55,-602.12 936.12,-593.11"/>
<polygon fill="black" stroke="black" points="939,-591.12 930.34,-585.02 933.3,-595.19 939,-591.12"/>
</g>
<!-- gz&#45;fuel&#45;tools -->
<g id="node36" class="node">
<title>gz&#45;fuel&#45;tools</title>
<g id="a_node36"><a xlink:href="https://github.com/conda-forge/gz-fuel-tools-feedstock" xlink:title="gz fuel tools">
<ellipse fill="#fde725" stroke="black" cx="1118.47" cy="-566" rx="72.25" ry="18"/>
<text text-anchor="middle" x="1118.47" y="-561.33" font-family="Times,serif" font-size="14.00">gz fuel tools</text>
</a>
</g>
</g>
<!-- gz&#45;msgs&#45;&gt;gz&#45;fuel&#45;tools -->
<g id="edge28" class="edge">
<title>gz&#45;msgs&#45;&gt;gz&#45;fuel&#45;tools</title>
<path fill="none" stroke="black" d="M1000.23,-621.81C1022.14,-611.65 1051.22,-598.18 1075.05,-587.13"/>
<polygon fill="black" stroke="black" points="1076.27,-590.42 1083.87,-583.04 1073.33,-584.07 1076.27,-590.42"/>
</g>
<!-- gz&#45;gui -->
<g id="node37" class="node">
<title>gz&#45;gui</title>
<g id="a_node37"><a xlink:href="https://github.com/conda-forge/gz-gui-feedstock" xlink:title="gz gui">
<ellipse fill="#fde725" stroke="black" cx="826.47" cy="-494" rx="41.74" ry="18"/>
<text text-anchor="middle" x="826.47" y="-489.32" font-family="Times,serif" font-size="14.00">gz gui</text>
</a>
</g>
</g>
<!-- gz&#45;msgs&#45;&gt;gz&#45;gui -->
<g id="edge29" class="edge">
<title>gz&#45;msgs&#45;&gt;gz&#45;gui</title>
<path fill="none" stroke="black" d="M910.37,-628.07C883.4,-620.81 853.28,-607.68 835.47,-584 822.62,-566.92 820.98,-542.47 822.22,-523.53"/>
<polygon fill="black" stroke="black" points="825.68,-524.08 823.17,-513.78 818.72,-523.39 825.68,-524.08"/>
</g>
<!-- gz&#45;sensors -->
<g id="node38" class="node">
<title>gz&#45;sensors</title>
<g id="a_node38"><a xlink:href="https://github.com/conda-forge/gz-sensors-feedstock" xlink:title="gz sensors">
<ellipse fill="#fde725" stroke="black" cx="1026.47" cy="-494" rx="64.36" ry="18"/>
<text text-anchor="middle" x="1026.47" y="-489.32" font-family="Times,serif" font-size="14.00">gz sensors</text>
</a>
</g>
</g>
<!-- gz&#45;msgs&#45;&gt;gz&#45;sensors -->
<g id="edge30" class="edge">
<title>gz&#45;msgs&#45;&gt;gz&#45;sensors</title>
<path fill="none" stroke="black" d="M979.27,-619.93C985.87,-609.82 993.87,-596.57 999.47,-584 1008.21,-564.37 1015.16,-541.1 1019.82,-523.28"/>
<polygon fill="black" stroke="black" points="1023.19,-524.2 1022.24,-513.65 1016.4,-522.5 1023.19,-524.2"/>
</g>
<!-- gz&#45;sim -->
<g id="node39" class="node">
<title>gz&#45;sim</title>
<g id="a_node39"><a xlink:href="https://github.com/conda-forge/gz-sim-feedstock" xlink:title="gz sim">
<ellipse fill="#fde725" stroke="black" cx="997.47" cy="-422" rx="43.84" ry="18"/>
<text text-anchor="middle" x="997.47" y="-417.32" font-family="Times,serif" font-size="14.00">gz sim</text>
</a>
</g>
</g>
<!-- gz&#45;msgs&#45;&gt;gz&#45;sim -->
<g id="edge31" class="edge">
<title>gz&#45;msgs&#45;&gt;gz&#45;sim</title>
<path fill="none" stroke="black" d="M1030.75,-631.3C1092.05,-624.31 1178.7,-610.05 1199.47,-584 1252.23,-517.83 1117.43,-461.72 1042.93,-436.8"/>
<polygon fill="black" stroke="black" points="1044.43,-433.61 1033.84,-433.83 1042.25,-440.27 1044.43,-433.61"/>
</g>
<!-- gz&#45;launch -->
<g id="node40" class="node">
<title>gz&#45;launch</title>
<g id="a_node40"><a xlink:href="https://github.com/conda-forge/gz-launch-feedstock" xlink:title="gz launch">
<ellipse fill="#fde725" stroke="black" cx="877.47" cy="-350" rx="59.1" ry="18"/>
<text text-anchor="middle" x="877.47" y="-345.32" font-family="Times,serif" font-size="14.00">gz launch</text>
</a>
</g>
</g>
<!-- gz&#45;msgs&#45;&gt;gz&#45;launch -->
<g id="edge32" class="edge">
<title>gz&#45;msgs&#45;&gt;gz&#45;launch</title>
<path fill="none" stroke="black" d="M912.99,-627.13C882.6,-619.44 845.53,-606.2 818.47,-584 789.65,-560.36 785.38,-547.93 775.47,-512 760.34,-457.16 811.54,-403.36 846.8,-373.94"/>
<polygon fill="black" stroke="black" points="848.62,-376.97 854.19,-367.95 844.22,-371.53 848.62,-376.97"/>
</g>
<!-- gz&#45;transport&#45;&gt;gz&#45;gui -->
<g id="edge33" class="edge">
<title>gz&#45;transport&#45;&gt;gz&#45;gui</title>
<path fill="none" stroke="black" d="M895.9,-548.41C883.81,-539.11 868.56,-527.38 855.43,-517.28"/>
<polygon fill="black" stroke="black" points="857.58,-514.52 847.52,-511.2 853.32,-520.07 857.58,-514.52"/>
</g>
<!-- gz&#45;transport&#45;&gt;gz&#45;sensors -->
<g id="edge34" class="edge">
<title>gz&#45;transport&#45;&gt;gz&#45;sensors</title>
<path fill="none" stroke="black" d="M942.75,-548.76C957.44,-539.33 976.14,-527.32 992.15,-517.04"/>
<polygon fill="black" stroke="black" points="993.9,-520.07 1000.43,-511.72 990.12,-514.18 993.9,-520.07"/>
</g>
<!-- gz&#45;transport&#45;&gt;gz&#45;sim -->
<g id="edge35" class="edge">
<title>gz&#45;transport&#45;&gt;gz&#45;sim</title>
<path fill="none" stroke="black" d="M922.64,-547.87C928.62,-529.39 939.45,-499.46 953.47,-476 959.39,-466.1 967.09,-456.13 974.4,-447.55"/>
<polygon fill="black" stroke="black" points="976.79,-450.13 980.78,-440.32 971.54,-445.5 976.79,-450.13"/>
</g>
<!-- gz&#45;transport&#45;&gt;gz&#45;launch -->
<g id="edge36" class="edge">
<title>gz&#45;transport&#45;&gt;gz&#45;launch</title>
<path fill="none" stroke="black" d="M914.26,-547.85C907.4,-511.14 891.24,-424.66 882.8,-379.53"/>
<polygon fill="black" stroke="black" points="886.24,-378.91 880.97,-369.72 879.36,-380.19 886.24,-378.91"/>
</g>
<!-- gz&#45;fuel&#45;tools&#45;&gt;gz&#45;sim -->
<g id="edge37" class="edge">
<title>gz&#45;fuel&#45;tools&#45;&gt;gz&#45;sim</title>
<path fill="none" stroke="black" d="M1118.97,-547.82C1118.67,-528.47 1115.46,-496.99 1099.47,-476 1085.53,-457.7 1063.46,-445.13 1043.41,-436.85"/>
<polygon fill="black" stroke="black" points="1044.85,-433.65 1034.26,-433.33 1042.34,-440.19 1044.85,-433.65"/>
</g>
<!-- gz&#45;gui&#45;&gt;gz&#45;sim -->
<g id="edge38" class="edge">
<title>gz&#45;gui&#45;&gt;gz&#45;sim</title>
<path fill="none" stroke="black" d="M855.86,-480.97C883.71,-469.57 925.77,-452.35 956.82,-439.64"/>
<polygon fill="black" stroke="black" points="957.98,-442.95 965.91,-435.92 955.33,-436.47 957.98,-442.95"/>
</g>
<!-- gz&#45;gui&#45;&gt;gz&#45;launch -->
<g id="edge39" class="edge">
<title>gz&#45;gui&#45;&gt;gz&#45;launch</title>
<path fill="none" stroke="black" d="M832.62,-475.87C841.27,-451.78 857.14,-407.6 867.49,-378.77"/>
<polygon fill="black" stroke="black" points="870.7,-380.21 870.78,-369.61 864.11,-377.84 870.7,-380.21"/>
</g>
<!-- gz&#45;sensors&#45;&gt;gz&#45;sim -->
<g id="edge40" class="edge">
<title>gz&#45;sensors&#45;&gt;gz&#45;sim</title>
<path fill="none" stroke="black" d="M1019.3,-475.7C1016.17,-468.15 1012.43,-459.12 1008.94,-450.68"/>
<polygon fill="black" stroke="black" points="1012.19,-449.4 1005.13,-441.5 1005.73,-452.08 1012.19,-449.4"/>
</g>
<!-- gz&#45;sim&#45;&gt;gz&#45;launch -->
<g id="edge41" class="edge">
<title>gz&#45;sim&#45;&gt;gz&#45;launch</title>
<path fill="none" stroke="black" d="M972.89,-406.67C955.92,-396.77 933.06,-383.43 913.97,-372.29"/>
<polygon fill="black" stroke="black" points="915.8,-369.31 905.4,-367.29 912.27,-375.36 915.8,-369.31"/>
</g>
<!-- openvino -->
<g id="node41" class="node">
<title>openvino</title>
<g id="a_node41"><a xlink:href="https://github.com/conda-forge/openvino-feedstock/pull/117" xlink:title="openvino ❎">
<ellipse fill="#31688e" stroke="black" cx="1688.1" cy="-1366" rx="71.73" ry="18"/>
<text text-anchor="middle" x="1688.1" y="-1361.33" font-family="Times,serif" font-size="14.00" fill="white">openvino ❎</text>
</a>
</g>
</g>
<!-- openvino&#45;&gt;opencv -->
<g id="edge42" class="edge">
<title>openvino&#45;&gt;opencv</title>
<path fill="none" stroke="black" d="M1708.96,-1348.41C1720.49,-1339.24 1734.99,-1327.7 1747.56,-1317.7"/>
<polygon fill="black" stroke="black" points="1749.47,-1320.66 1755.12,-1311.69 1745.11,-1315.18 1749.47,-1320.66"/>
</g>
<!-- openvino&#45;&gt;openvino&#45;tokenizers -->
<g id="edge43" class="edge">
<title>openvino&#45;&gt;openvino&#45;tokenizers</title>
<path fill="none" stroke="black" d="M1667.25,-1348.41C1656.23,-1339.65 1642.51,-1328.73 1630.34,-1319.06"/>
<polygon fill="black" stroke="black" points="1632.61,-1316.38 1622.6,-1312.9 1628.25,-1321.86 1632.61,-1316.38"/>
</g>
<!-- tensorstore -->
<g id="node43" class="node">
<title>tensorstore</title>
<g id="a_node43"><a xlink:href="https://github.com/conda-forge/tensorstore-feedstock/pull/52" xlink:title="tensorstore ❎">
<ellipse fill="#31688e" stroke="black" cx="1006.28" cy="-1114" rx="84.35" ry="18"/>
<text text-anchor="middle" x="1006.28" y="-1109.33" font-family="Times,serif" font-size="14.00" fill="white">tensorstore ❎</text>
</a>
</g>
</g>
<!-- gnss&#45;sdr&#45;&gt;tensorstore -->
<!-- gcld3 -->
<g id="node44" class="node">
<title>gcld3</title>
<g id="a_node44"><a xlink:href="https://github.com/conda-forge/gcld3-feedstock/pull/15" xlink:title="gcld3 ✓">
<ellipse fill="#31688e" stroke="black" cx="1006.28" cy="-1042" rx="46.47" ry="18"/>
<text text-anchor="middle" x="1006.28" y="-1037.33" font-family="Times,serif" font-size="14.00" fill="white">gcld3 ✓</text>
</a>
</g>
</g>
<!-- tensorstore&#45;&gt;gcld3 -->
<!-- bloaty -->
<g id="node45" class="node">
<title>bloaty</title>
<g id="a_node45"><a xlink:href="https://github.com/conda-forge/bloaty-feedstock/pull/6" xlink:title="bloaty ✓">
<ellipse fill="#31688e" stroke="black" cx="1006.28" cy="-970" rx="50.16" ry="18"/>
<text text-anchor="middle" x="1006.28" y="-965.33" font-family="Times,serif" font-size="14.00" fill="white">bloaty ✓</text>
</a>
</g>
</g>
<!-- gcld3&#45;&gt;bloaty -->
<!-- gz&#45;sim&#45;yarp&#45;plugins -->
<g id="node50" class="node">
<title>gz&#45;sim&#45;yarp&#45;plugins</title>
<g id="a_node50"><a xlink:href="https://github.com/conda-forge/gz-sim-yarp-plugins-feedstock/pull/16" xlink:title="gz sim yarp plugins ❎">
<ellipse fill="#31688e" stroke="black" cx="1006.28" cy="-898" rx="124.86" ry="18"/>
<text text-anchor="middle" x="1006.28" y="-893.33" font-family="Times,serif" font-size="14.00" fill="white">gz sim yarp plugins ❎</text>
</a>
</g>
</g>
<!-- bloaty&#45;&gt;gz&#45;sim&#45;yarp&#45;plugins -->
<!-- google&#45;cloud&#45;cpp&#45;core -->
<g id="node46" class="node">
<title>google&#45;cloud&#45;cpp&#45;core</title>
<g id="a_node46"><a xlink:href="https://github.com/conda-forge/google-cloud-cpp-core-feedstock/pull/30" xlink:title="google cloud cpp core ❎">
<ellipse fill="#31688e" stroke="black" cx="436.84" cy="-1402" rx="135.39" ry="18"/>
<text text-anchor="middle" x="436.84" y="-1397.33" font-family="Times,serif" font-size="14.00" fill="white">google cloud cpp core ❎</text>
</a>
</g>
</g>
<!-- google&#45;cloud&#45;cpp&#45;core&#45;&gt;arrow&#45;cpp -->
<g id="edge48" class="edge">
<title>google&#45;cloud&#45;cpp&#45;core&#45;&gt;arrow&#45;cpp</title>
<path fill="none" stroke="black" d="M377.25,-1385.38C331.91,-1373.49 269.96,-1357.25 225.59,-1345.62"/>
<polygon fill="black" stroke="black" points="226.74,-1342.3 216.18,-1343.15 224.96,-1349.07 226.74,-1342.3"/>
</g>
<!-- google&#45;cloud&#45;cpp&#45;core&#45;&gt;google&#45;cloud&#45;cpp -->
<g id="edge49" class="edge">
<title>google&#45;cloud&#45;cpp&#45;core&#45;&gt;google&#45;cloud&#45;cpp</title>
<path fill="none" stroke="black" d="M345.76,-1388.39C322.49,-1380.58 300.05,-1368.06 285.84,-1348 236.06,-1277.77 324.79,-1183.31 373.72,-1139.37"/>
<polygon fill="black" stroke="black" points="376.03,-1142.01 381.22,-1132.77 371.4,-1136.75 376.03,-1142.01"/>
</g>
<!-- google&#45;cloud&#45;cpp&#45;compute -->
<g id="node47" class="node">
<title>google&#45;cloud&#45;cpp&#45;compute</title>
<g id="a_node47"><a xlink:href="https://github.com/conda-forge/google-cloud-cpp-compute-feedstock" xlink:title="google cloud cpp compute">
<ellipse fill="#fde725" stroke="black" cx="436.84" cy="-1330" rx="141.7" ry="18"/>
<text text-anchor="middle" x="436.84" y="-1325.33" font-family="Times,serif" font-size="14.00">google cloud cpp compute</text>
</a>
</g>
</g>
<!-- google&#45;cloud&#45;cpp&#45;core&#45;&gt;google&#45;cloud&#45;cpp&#45;compute -->
<g id="edge50" class="edge">
<title>google&#45;cloud&#45;cpp&#45;core&#45;&gt;google&#45;cloud&#45;cpp&#45;compute</title>
<path fill="none" stroke="black" d="M436.84,-1383.7C436.84,-1376.41 436.84,-1367.73 436.84,-1359.54"/>
<polygon fill="black" stroke="black" points="440.34,-1359.62 436.84,-1349.62 433.34,-1359.62 440.34,-1359.62"/>
</g>
<!-- google&#45;cloud&#45;cpp&#45;bigquery -->
<g id="node48" class="node">
<title>google&#45;cloud&#45;cpp&#45;bigquery</title>
<g id="a_node48"><a xlink:href="https://github.com/conda-forge/google-cloud-cpp-bigquery-feedstock" xlink:title="google cloud cpp bigquery">
<ellipse fill="#fde725" stroke="black" cx="524.84" cy="-1258" rx="143.28" ry="18"/>
<text text-anchor="middle" x="524.84" y="-1253.33" font-family="Times,serif" font-size="14.00">google cloud cpp bigquery</text>
</a>
</g>
</g>
<!-- google&#45;cloud&#45;cpp&#45;core&#45;&gt;google&#45;cloud&#45;cpp&#45;bigquery -->
<g id="edge51" class="edge">
<title>google&#45;cloud&#45;cpp&#45;core&#45;&gt;google&#45;cloud&#45;cpp&#45;bigquery</title>
<path fill="none" stroke="black" d="M527.91,-1388.39C551.18,-1380.58 573.62,-1368.06 587.84,-1348 597.09,-1334.95 594.59,-1326.51 587.84,-1312 582.52,-1300.59 573.41,-1290.76 563.75,-1282.77"/>
<polygon fill="black" stroke="black" points="566.08,-1280.15 556.01,-1276.88 561.84,-1285.72 566.08,-1280.15"/>
</g>
<!-- google&#45;cloud&#45;cpp&#45;ai -->
<g id="node49" class="node">
<title>google&#45;cloud&#45;cpp&#45;ai</title>
<g id="a_node49"><a xlink:href="https://github.com/conda-forge/google-cloud-cpp-ai-feedstock" xlink:title="google cloud cpp ai">
<ellipse fill="#fde725" stroke="black" cx="644.84" cy="-1186" rx="107.5" ry="18"/>
<text text-anchor="middle" x="644.84" y="-1181.33" font-family="Times,serif" font-size="14.00">google cloud cpp ai</text>
</a>
</g>
</g>
<!-- google&#45;cloud&#45;cpp&#45;core&#45;&gt;google&#45;cloud&#45;cpp&#45;ai -->
<g id="edge52" class="edge">
<title>google&#45;cloud&#45;cpp&#45;core&#45;&gt;google&#45;cloud&#45;cpp&#45;ai</title>
<path fill="none" stroke="black" d="M508.71,-1386.43C539.74,-1378.14 575.55,-1365.77 604.84,-1348 643.52,-1324.52 659.52,-1317.81 676.84,-1276 685.38,-1255.36 675.81,-1231.52 664.96,-1213.71"/>
<polygon fill="black" stroke="black" points="667.98,-1211.94 659.56,-1205.51 662.13,-1215.79 667.98,-1211.94"/>
</g>
<!-- google&#45;cloud&#45;cpp&#45;compute&#45;&gt;google&#45;cloud&#45;cpp -->
<g id="edge53" class="edge">
<title>google&#45;cloud&#45;cpp&#45;compute&#45;&gt;google&#45;cloud&#45;cpp</title>
<path fill="none" stroke="black" d="M406.4,-1312.14C393.53,-1303.23 379.9,-1291.01 372.84,-1276 352.29,-1232.31 372.2,-1175.74 387.93,-1142.61"/>
<polygon fill="black" stroke="black" points="391.06,-1144.19 392.37,-1133.67 384.79,-1141.07 391.06,-1144.19"/>
</g>
<!-- google&#45;cloud&#45;cpp&#45;bigquery&#45;&gt;google&#45;cloud&#45;cpp -->
<g id="edge54" class="edge">
<title>google&#45;cloud&#45;cpp&#45;bigquery&#45;&gt;google&#45;cloud&#45;cpp</title>
<path fill="none" stroke="black" d="M510.12,-1239.87C488.96,-1215.24 449.78,-1169.64 425.07,-1140.88"/>
<polygon fill="black" stroke="black" points="427.76,-1138.64 418.59,-1133.34 422.45,-1143.2 427.76,-1138.64"/>
</g>
<!-- google&#45;cloud&#45;cpp&#45;ai&#45;&gt;google&#45;cloud&#45;cpp -->
<g id="edge55" class="edge">
<title>google&#45;cloud&#45;cpp&#45;ai&#45;&gt;google&#45;cloud&#45;cpp</title>
<path fill="none" stroke="black" d="M592.62,-1169.9C554.9,-1158.99 503.82,-1144.21 464.16,-1132.74"/>
<polygon fill="black" stroke="black" points="465.33,-1129.43 454.75,-1130.02 463.38,-1136.16 465.33,-1129.43"/>
</g>
<!-- bfiocpp -->
<g id="node51" class="node">
<title>bfiocpp</title>
<g id="a_node51"><a xlink:href="https://github.com/conda-forge/bfiocpp-feedstock/pull/12" xlink:title="bfiocpp ✓">
<ellipse fill="#31688e" stroke="black" cx="1644.28" cy="-566" rx="55.42" ry="18"/>
<text text-anchor="middle" x="1644.28" y="-561.33" font-family="Times,serif" font-size="14.00" fill="white">bfiocpp ✓</text>
</a>
</g>
</g>
<!-- mysqlx&#45;connector&#45;python -->
<g id="node52" class="node">
<title>mysqlx&#45;connector&#45;python</title>
<g id="a_node52"><a xlink:href="https://github.com/conda-forge/mysqlx-connector-python-feedstock/pull/10" xlink:title="mysqlx connector python ✓">
<ellipse fill="#31688e" stroke="black" cx="1644.28" cy="-494" rx="145.38" ry="18"/>
<text text-anchor="middle" x="1644.28" y="-489.32" font-family="Times,serif" font-size="14.00" fill="white">mysqlx connector python ✓</text>
</a>
</g>
</g>
<!-- bfiocpp&#45;&gt;mysqlx&#45;connector&#45;python -->
<!-- dydx&#45;v4&#45;proto&#45;cpp -->
<g id="node53" class="node">
<title>dydx&#45;v4&#45;proto&#45;cpp</title>
<g id="a_node53"><a xlink:href="https://github.com/conda-forge/dydx-v4-proto-cpp-feedstock/pull/4" xlink:title="dydx v4 proto cpp ✓">
<ellipse fill="#31688e" stroke="black" cx="1644.28" cy="-422" rx="109.61" ry="18"/>
<text text-anchor="middle" x="1644.28" y="-417.32" font-family="Times,serif" font-size="14.00" fill="white">dydx v4 proto cpp ✓</text>
</a>
</g>
</g>
<!-- mysqlx&#45;connector&#45;python&#45;&gt;dydx&#45;v4&#45;proto&#45;cpp -->
</g>
</svg>
