<?xml version="1.0" encoding="UTF-8" standalone="no"?>
<!DOCTYPE svg PUBLIC "-//W3C//DTD SVG 1.1//EN"
 "http://www.w3.org/Graphics/SVG/1.1/DTD/svg11.dtd">
<!-- Generated by graphviz version 12.0.0 (20240803.0821)
 -->
<!-- Pages: 1 -->
<svg width="1827pt" height="1788pt"
 viewBox="0.00 0.00 1826.80 1788.00" xmlns="http://www.w3.org/2000/svg" xmlns:xlink="http://www.w3.org/1999/xlink">
<g id="graph0" class="graph" transform="scale(1 1) rotate(0) translate(4 1784)">
<polygon fill="white" stroke="none" points="-4,4 -4,-1784 1822.8,-1784 1822.8,4 -4,4"/>
<!-- arrow&#45;cpp -->
<g id="node1" class="node">
<title>arrow&#45;cpp</title>
<g id="a_node1"><a xlink:href="https://github.com/conda-forge/arrow-cpp-feedstock" xlink:title="arrow cpp">
<ellipse fill="#fde725" stroke="black" cx="169.84" cy="-1474" rx="61.73" ry="18"/>
<text text-anchor="middle" x="169.84" y="-1469.33" font-family="Times,serif" font-size="14.00">arrow cpp</text>
</a>
</g>
</g>
<!-- datafusion -->
<g id="node2" class="node">
<title>datafusion</title>
<g id="a_node2"><a xlink:href="https://github.com/conda-forge/datafusion-feedstock" xlink:title="datafusion">
<ellipse fill="#fde725" stroke="black" cx="63.84" cy="-1402" rx="63.84" ry="18"/>
<text text-anchor="middle" x="63.84" y="-1397.33" font-family="Times,serif" font-size="14.00">datafusion</text>
</a>
</g>
</g>
<!-- arrow&#45;cpp&#45;&gt;datafusion -->
<g id="edge1" class="edge">
<title>arrow&#45;cpp&#45;&gt;datafusion</title>
<path fill="none" stroke="black" d="M145.78,-1457.12C131.52,-1447.7 113.22,-1435.61 97.53,-1425.25"/>
<polygon fill="black" stroke="black" points="99.7,-1422.49 89.42,-1419.9 95.84,-1428.33 99.7,-1422.49"/>
</g>
<!-- arcticdb -->
<g id="node3" class="node">
<title>arcticdb</title>
<g id="a_node3"><a xlink:href="https://github.com/conda-forge/arcticdb-feedstock" xlink:title="arcticdb">
<ellipse fill="#fde725" stroke="black" cx="148.84" cy="-1330" rx="52.26" ry="18"/>
<text text-anchor="middle" x="148.84" y="-1325.33" font-family="Times,serif" font-size="14.00">arcticdb</text>
</a>
</g>
</g>
<!-- arrow&#45;cpp&#45;&gt;arcticdb -->
<g id="edge2" class="edge">
<title>arrow&#45;cpp&#45;&gt;arcticdb</title>
<path fill="none" stroke="black" d="M167.26,-1455.59C163.71,-1431.61 157.29,-1388.14 153.04,-1359.42"/>
<polygon fill="black" stroke="black" points="156.51,-1358.99 151.59,-1349.61 149.59,-1360.01 156.51,-1358.99"/>
</g>
<!-- csp -->
<g id="node4" class="node">
<title>csp</title>
<g id="a_node4"><a xlink:href="https://github.com/conda-forge/csp-feedstock" xlink:title="csp">
<ellipse fill="#fde725" stroke="black" cx="228.84" cy="-1258" rx="28.06" ry="18"/>
<text text-anchor="middle" x="228.84" y="-1253.33" font-family="Times,serif" font-size="14.00">csp</text>
</a>
</g>
</g>
<!-- arrow&#45;cpp&#45;&gt;csp -->
<g id="edge3" class="edge">
<title>arrow&#45;cpp&#45;&gt;csp</title>
<path fill="none" stroke="black" d="M175.95,-1455.77C184.31,-1431.81 199.47,-1386.97 209.84,-1348 215.18,-1327.9 220.05,-1304.94 223.52,-1287.38"/>
<polygon fill="black" stroke="black" points="226.94,-1288.15 225.41,-1277.67 220.07,-1286.82 226.94,-1288.15"/>
</g>
<!-- bazel -->
<g id="node5" class="node">
<title>bazel</title>
<g id="a_node5"><a xlink:href="https://github.com/conda-forge/bazel-feedstock" xlink:title="bazel">
<ellipse fill="#fde725" stroke="black" cx="901.51" cy="-90" rx="37.53" ry="18"/>
<text text-anchor="middle" x="901.51" y="-85.33" font-family="Times,serif" font-size="14.00">bazel</text>
</a>
</g>
</g>
<!-- mosh -->
<g id="node6" class="node">
<title>mosh</title>
<g id="a_node6"><a xlink:href="https://github.com/conda-forge/mosh-feedstock" xlink:title="mosh">
<ellipse fill="#35b779" stroke="black" cx="901.51" cy="-998" rx="38.06" ry="18"/>
<text text-anchor="middle" x="901.51" y="-993.33" font-family="Times,serif" font-size="14.00">mosh</text>
</a>
</g>
</g>
<!-- mysql -->
<g id="node7" class="node">
<title>mysql</title>
<g id="a_node7"><a xlink:href="https://github.com/conda-forge/mysql-feedstock/pull/107" xlink:title="mysql ❎">
<ellipse fill="#31688e" stroke="black" cx="901.51" cy="-926" rx="56.47" ry="18"/>
<text text-anchor="middle" x="901.51" y="-921.33" font-family="Times,serif" font-size="14.00" fill="white">mysql ❎</text>
</a>
</g>
</g>
<!-- mosh&#45;&gt;mysql -->
<!-- onnx -->
<g id="node8" class="node">
<title>onnx</title>
<g id="a_node8"><a xlink:href="https://github.com/conda-forge/onnx-feedstock/pull/125" xlink:title="onnx ❎">
<ellipse fill="#31688e" stroke="black" cx="901.51" cy="-854" rx="50.68" ry="18"/>
<text text-anchor="middle" x="901.51" y="-849.33" font-family="Times,serif" font-size="14.00" fill="white">onnx ❎</text>
</a>
</g>
</g>
<!-- mysql&#45;&gt;onnx -->
<!-- paraview -->
<g id="node9" class="node">
<title>paraview</title>
<g id="a_node9"><a xlink:href="https://github.com/conda-forge/paraview-feedstock" xlink:title="paraview">
<ellipse fill="#35b779" stroke="black" cx="901.51" cy="-782" rx="57" ry="18"/>
<text text-anchor="middle" x="901.51" y="-777.33" font-family="Times,serif" font-size="14.00">paraview</text>
</a>
</g>
</g>
<!-- onnx&#45;&gt;paraview -->
<!-- qgis -->
<g id="node14" class="node">
<title>qgis</title>
<g id="a_node14"><a xlink:href="https://github.com/conda-forge/qgis-feedstock" xlink:title="qgis">
<ellipse fill="#35b779" stroke="black" cx="901.51" cy="-710" rx="32.27" ry="18"/>
<text text-anchor="middle" x="901.51" y="-705.33" font-family="Times,serif" font-size="14.00">qgis</text>
</a>
</g>
</g>
<!-- paraview&#45;&gt;qgis -->
<!-- opencv -->
<g id="node10" class="node">
<title>opencv</title>
<g id="a_node10"><a xlink:href="https://github.com/conda-forge/opencv-feedstock" xlink:title="opencv">
<ellipse fill="#fde725" stroke="black" cx="1566.56" cy="-1438" rx="46.47" ry="18"/>
<text text-anchor="middle" x="1566.56" y="-1433.33" font-family="Times,serif" font-size="14.00">opencv</text>
</a>
</g>
</g>
<!-- imp -->
<g id="node11" class="node">
<title>imp</title>
<g id="a_node11"><a xlink:href="https://github.com/conda-forge/imp-feedstock" xlink:title="imp">
<ellipse fill="#fde725" stroke="black" cx="1508.56" cy="-1366" rx="30.16" ry="18"/>
<text text-anchor="middle" x="1508.56" y="-1361.33" font-family="Times,serif" font-size="14.00">imp</text>
</a>
</g>
</g>
<!-- opencv&#45;&gt;imp -->
<g id="edge7" class="edge">
<title>opencv&#45;&gt;imp</title>
<path fill="none" stroke="black" d="M1552.81,-1420.41C1545.6,-1411.71 1536.64,-1400.89 1528.66,-1391.26"/>
<polygon fill="black" stroke="black" points="1531.45,-1389.14 1522.38,-1383.68 1526.06,-1393.61 1531.45,-1389.14"/>
</g>
<!-- gazebo&#45;yarp&#45;plugins -->
<g id="node12" class="node">
<title>gazebo&#45;yarp&#45;plugins</title>
<g id="a_node12"><a xlink:href="https://github.com/conda-forge/gazebo-yarp-plugins-feedstock" xlink:title="gazebo yarp plugins">
<ellipse fill="#fde725" stroke="black" cx="1706.56" cy="-1366" rx="112.24" ry="18"/>
<text text-anchor="middle" x="1706.56" y="-1361.33" font-family="Times,serif" font-size="14.00">gazebo yarp plugins</text>
</a>
</g>
</g>
<!-- opencv&#45;&gt;gazebo&#45;yarp&#45;plugins -->
<g id="edge8" class="edge">
<title>opencv&#45;&gt;gazebo&#45;yarp&#45;plugins</title>
<path fill="none" stroke="black" d="M1594.22,-1423.17C1613.91,-1413.32 1640.77,-1399.89 1663.29,-1388.64"/>
<polygon fill="black" stroke="black" points="1664.55,-1391.92 1671.93,-1384.31 1661.42,-1385.66 1664.55,-1391.92"/>
</g>
<!-- nvidia&#45;dali&#45;python -->
<g id="node13" class="node">
<title>nvidia&#45;dali&#45;python</title>
<g id="a_node13"><a xlink:href="https://github.com/conda-forge/nvidia-dali-python-feedstock" xlink:title="nvidia dali python">
<ellipse fill="#fde725" stroke="black" cx="1566.56" cy="-1294" rx="101.19" ry="18"/>
<text text-anchor="middle" x="1566.56" y="-1289.33" font-family="Times,serif" font-size="14.00">nvidia dali python</text>
</a>
</g>
</g>
<!-- opencv&#45;&gt;nvidia&#45;dali&#45;python -->
<g id="edge9" class="edge">
<title>opencv&#45;&gt;nvidia&#45;dali&#45;python</title>
<path fill="none" stroke="black" d="M1566.56,-1419.59C1566.56,-1395.61 1566.56,-1352.14 1566.56,-1323.42"/>
<polygon fill="black" stroke="black" points="1570.06,-1323.62 1566.56,-1313.62 1563.06,-1323.62 1570.06,-1323.62"/>
</g>
<!-- tensorflow -->
<g id="node15" class="node">
<title>tensorflow</title>
<g id="a_node15"><a xlink:href="https://github.com/conda-forge/tensorflow-feedstock/pull/411" xlink:title="tensorflow ❎">
<ellipse fill="#31688e" stroke="black" cx="901.51" cy="-638" rx="79.09" ry="18"/>
<text text-anchor="middle" x="901.51" y="-633.33" font-family="Times,serif" font-size="14.00" fill="white">tensorflow ❎</text>
</a>
</g>
</g>
<!-- qgis&#45;&gt;tensorflow -->
<!-- r&#45;protolite -->
<g id="node16" class="node">
<title>r&#45;protolite</title>
<g id="a_node16"><a xlink:href="https://github.com/conda-forge/r-protolite-feedstock" xlink:title="r protolite">
<ellipse fill="#35b779" stroke="black" cx="901.51" cy="-566" rx="62.26" ry="18"/>
<text text-anchor="middle" x="901.51" y="-561.33" font-family="Times,serif" font-size="14.00">r protolite</text>
</a>
</g>
</g>
<!-- tensorflow&#45;&gt;r&#45;protolite -->
<!-- pytorch&#45;cpu -->
<g id="node17" class="node">
<title>pytorch&#45;cpu</title>
<g id="a_node17"><a xlink:href="https://github.com/conda-forge/pytorch-cpu-feedstock/pull/310" xlink:title="pytorch cpu ❎">
<ellipse fill="#31688e" stroke="black" cx="901.51" cy="-494" rx="85.93" ry="18"/>
<text text-anchor="middle" x="901.51" y="-489.32" font-family="Times,serif" font-size="14.00" fill="white">pytorch cpu ❎</text>
</a>
</g>
</g>
<!-- r&#45;protolite&#45;&gt;pytorch&#45;cpu -->
<!-- go&#45;cockroach -->
<g id="node18" class="node">
<title>go&#45;cockroach</title>
<g id="a_node18"><a xlink:href="https://github.com/conda-forge/go-cockroach-feedstock" xlink:title="go cockroach">
<ellipse fill="#35b779" stroke="black" cx="901.51" cy="-422" rx="76.46" ry="18"/>
<text text-anchor="middle" x="901.51" y="-417.32" font-family="Times,serif" font-size="14.00">go cockroach</text>
</a>
</g>
</g>
<!-- pytorch&#45;cpu&#45;&gt;go&#45;cockroach -->
<!-- cartographer -->
<g id="node29" class="node">
<title>cartographer</title>
<g id="a_node29"><a xlink:href="https://github.com/conda-forge/cartographer-feedstock" xlink:title="cartographer">
<ellipse fill="#35b779" stroke="black" cx="901.51" cy="-350" rx="76.99" ry="18"/>
<text text-anchor="middle" x="901.51" y="-345.32" font-family="Times,serif" font-size="14.00">cartographer</text>
</a>
</g>
</g>
<!-- go&#45;cockroach&#45;&gt;cartographer -->
<!-- orc -->
<g id="node19" class="node">
<title>orc</title>
<g id="a_node19"><a xlink:href="https://github.com/conda-forge/orc-feedstock/pull/82" xlink:title="orc ✓">
<ellipse fill="#31688e" stroke="black" cx="169.84" cy="-1546" rx="34.9" ry="18"/>
<text text-anchor="middle" x="169.84" y="-1541.33" font-family="Times,serif" font-size="14.00" fill="white">orc ✓</text>
</a>
</g>
</g>
<!-- orc&#45;&gt;arrow&#45;cpp -->
<g id="edge15" class="edge">
<title>orc&#45;&gt;arrow&#45;cpp</title>
<path fill="none" stroke="black" d="M169.84,-1527.7C169.84,-1520.41 169.84,-1511.73 169.84,-1503.54"/>
<polygon fill="black" stroke="black" points="173.34,-1503.62 169.84,-1493.62 166.34,-1503.62 173.34,-1503.62"/>
</g>
<!-- libignition&#45;transport4 -->
<g id="node20" class="node">
<title>libignition&#45;transport4</title>
<g id="a_node20"><a xlink:href="https://github.com/conda-forge/libignition-transport4-feedstock" xlink:title="libignition transport4">
<ellipse fill="#fde725" stroke="black" cx="261.85" cy="-710" rx="119.08" ry="18"/>
<text text-anchor="middle" x="261.85" y="-705.33" font-family="Times,serif" font-size="14.00">libignition transport4</text>
</a>
</g>
</g>
<!-- libignition&#45;sensors -->
<g id="node21" class="node">
<title>libignition&#45;sensors</title>
<g id="a_node21"><a xlink:href="https://github.com/conda-forge/libignition-sensors-feedstock" xlink:title="libignition sensors">
<ellipse fill="#fde725" stroke="black" cx="416.85" cy="-638" rx="103.82" ry="18"/>
<text text-anchor="middle" x="416.85" y="-633.33" font-family="Times,serif" font-size="14.00">libignition sensors</text>
</a>
</g>
</g>
<!-- libignition&#45;transport4&#45;&gt;libignition&#45;sensors -->
<g id="edge16" class="edge">
<title>libignition&#45;transport4&#45;&gt;libignition&#45;sensors</title>
<path fill="none" stroke="black" d="M298.59,-692.41C320.09,-682.7 347.45,-670.34 370.44,-659.96"/>
<polygon fill="black" stroke="black" points="371.6,-663.28 379.27,-655.97 368.72,-656.9 371.6,-663.28"/>
</g>
<!-- libignition&#45;gui -->
<g id="node22" class="node">
<title>libignition&#45;gui</title>
<g id="a_node22"><a xlink:href="https://github.com/conda-forge/libignition-gui-feedstock" xlink:title="libignition gui">
<ellipse fill="#fde725" stroke="black" cx="137.85" cy="-638" rx="81.2" ry="18"/>
<text text-anchor="middle" x="137.85" y="-633.33" font-family="Times,serif" font-size="14.00">libignition gui</text>
</a>
</g>
</g>
<!-- libignition&#45;transport4&#45;&gt;libignition&#45;gui -->
<g id="edge17" class="edge">
<title>libignition&#45;transport4&#45;&gt;libignition&#45;gui</title>
<path fill="none" stroke="black" d="M232.15,-692.23C215.42,-682.79 194.34,-670.89 176.36,-660.74"/>
<polygon fill="black" stroke="black" points="178.21,-657.76 167.78,-655.89 174.76,-663.86 178.21,-657.76"/>
</g>
<!-- libignition&#45;gazebo -->
<g id="node23" class="node">
<title>libignition&#45;gazebo</title>
<g id="a_node23"><a xlink:href="https://github.com/conda-forge/libignition-gazebo-feedstock" xlink:title="libignition gazebo">
<ellipse fill="#fde725" stroke="black" cx="396.85" cy="-566" rx="100.66" ry="18"/>
<text text-anchor="middle" x="396.85" y="-561.33" font-family="Times,serif" font-size="14.00">libignition gazebo</text>
</a>
</g>
</g>
<!-- libignition&#45;transport4&#45;&gt;libignition&#45;gazebo -->
<g id="edge18" class="edge">
<title>libignition&#45;transport4&#45;&gt;libignition&#45;gazebo</title>
<path fill="none" stroke="black" d="M266.52,-691.8C272.5,-672.43 284.47,-640.94 303.85,-620 315.97,-606.91 332.07,-596.19 347.47,-587.89"/>
<polygon fill="black" stroke="black" points="348.78,-591.16 356.09,-583.49 345.59,-584.92 348.78,-591.16"/>
</g>
<!-- libignition&#45;launch -->
<g id="node24" class="node">
<title>libignition&#45;launch</title>
<g id="a_node24"><a xlink:href="https://github.com/conda-forge/libignition-launch-feedstock" xlink:title="libignition launch">
<ellipse fill="#fde725" stroke="black" cx="331.85" cy="-494" rx="98.56" ry="18"/>
<text text-anchor="middle" x="331.85" y="-489.32" font-family="Times,serif" font-size="14.00">libignition launch</text>
</a>
</g>
</g>
<!-- libignition&#45;transport4&#45;&gt;libignition&#45;launch -->
<g id="edge19" class="edge">
<title>libignition&#45;transport4&#45;&gt;libignition&#45;launch</title>
<path fill="none" stroke="black" d="M261.52,-691.68C261.59,-661.2 264.62,-596.62 286.85,-548 291.43,-538 298.44,-528.41 305.58,-520.2"/>
<polygon fill="black" stroke="black" points="308.02,-522.72 312.24,-513 302.88,-517.97 308.02,-522.72"/>
</g>
<!-- libignition&#45;sensors&#45;&gt;libignition&#45;gazebo -->
<g id="edge20" class="edge">
<title>libignition&#45;sensors&#45;&gt;libignition&#45;gazebo</title>
<path fill="none" stroke="black" d="M411.91,-619.7C409.78,-612.24 407.23,-603.32 404.84,-594.97"/>
<polygon fill="black" stroke="black" points="408.27,-594.21 402.16,-585.56 401.54,-596.14 408.27,-594.21"/>
</g>
<!-- libignition&#45;gui&#45;&gt;libignition&#45;gazebo -->
<g id="edge21" class="edge">
<title>libignition&#45;gui&#45;&gt;libignition&#45;gazebo</title>
<path fill="none" stroke="black" d="M188.1,-623.42C229.05,-612.35 287.19,-596.64 331.72,-584.6"/>
<polygon fill="black" stroke="black" points="332.53,-588.01 341.27,-582.02 330.7,-581.25 332.53,-588.01"/>
</g>
<!-- libignition&#45;gui&#45;&gt;libignition&#45;launch -->
<g id="edge22" class="edge">
<title>libignition&#45;gui&#45;&gt;libignition&#45;launch</title>
<path fill="none" stroke="black" d="M153.2,-620.18C171.1,-601.17 202.18,-570 232.85,-548 249.54,-536.03 269.25,-524.94 286.68,-516.03"/>
<polygon fill="black" stroke="black" points="287.91,-519.33 295.28,-511.72 284.77,-513.07 287.91,-519.33"/>
</g>
<!-- libignition&#45;gazebo&#45;&gt;libignition&#45;launch -->
<g id="edge23" class="edge">
<title>libignition&#45;gazebo&#45;&gt;libignition&#45;launch</title>
<path fill="none" stroke="black" d="M381.12,-548.05C373.29,-539.63 363.68,-529.28 355.04,-519.97"/>
<polygon fill="black" stroke="black" points="357.84,-517.84 348.47,-512.9 352.71,-522.61 357.84,-517.84"/>
</g>
<!-- libignition&#45;msgs1 -->
<g id="node25" class="node">
<title>libignition&#45;msgs1</title>
<g id="a_node25"><a xlink:href="https://github.com/conda-forge/libignition-msgs1-feedstock/pull/112" xlink:title="libignition msgs1 ❎">
<ellipse fill="#31688e" stroke="black" cx="478.85" cy="-782" rx="113.29" ry="18"/>
<text text-anchor="middle" x="478.85" y="-777.33" font-family="Times,serif" font-size="14.00" fill="white">libignition msgs1 ❎</text>
</a>
</g>
</g>
<!-- libignition&#45;msgs1&#45;&gt;libignition&#45;transport4 -->
<g id="edge24" class="edge">
<title>libignition&#45;msgs1&#45;&gt;libignition&#45;transport4</title>
<path fill="none" stroke="black" d="M430.15,-765.29C398.02,-754.92 355.71,-741.27 321.55,-730.26"/>
<polygon fill="black" stroke="black" points="322.8,-726.98 312.21,-727.24 320.65,-733.64 322.8,-726.98"/>
</g>
<!-- libignition&#45;msgs1&#45;&gt;libignition&#45;sensors -->
<g id="edge25" class="edge">
<title>libignition&#45;msgs1&#45;&gt;libignition&#45;sensors</title>
<path fill="none" stroke="black" d="M456.81,-763.97C446.26,-754.55 434.5,-741.95 427.85,-728 418.89,-709.18 416.29,-685.7 415.86,-667.59"/>
<polygon fill="black" stroke="black" points="419.36,-667.8 415.84,-657.8 412.36,-667.81 419.36,-667.8"/>
</g>
<!-- libignition&#45;msgs1&#45;&gt;libignition&#45;gui -->
<g id="edge26" class="edge">
<title>libignition&#45;msgs1&#45;&gt;libignition&#45;gui</title>
<path fill="none" stroke="black" d="M366.94,-779.07C277.95,-774.88 163.6,-762.66 133.85,-728 119.77,-711.59 122.26,-686.57 127.42,-667.23"/>
<polygon fill="black" stroke="black" points="130.74,-668.36 130.32,-657.78 124.04,-666.31 130.74,-668.36"/>
</g>
<!-- libignition&#45;msgs1&#45;&gt;libignition&#45;gazebo -->
<g id="edge27" class="edge">
<title>libignition&#45;msgs1&#45;&gt;libignition&#45;gazebo</title>
<path fill="none" stroke="black" d="M571.03,-771.23C631.76,-760.43 695.68,-738.02 669.85,-692 632.95,-626.25 550.61,-594.9 485.95,-580.06"/>
<polygon fill="black" stroke="black" points="486.91,-576.69 476.39,-577.97 485.41,-583.53 486.91,-576.69"/>
</g>
<!-- libignition&#45;msgs1&#45;&gt;libignition&#45;launch -->
<g id="edge28" class="edge">
<title>libignition&#45;msgs1&#45;&gt;libignition&#45;launch</title>
<path fill="none" stroke="black" d="M564.14,-769.83C614.19,-761.34 670.56,-747.71 685.85,-728 695.66,-715.36 690.98,-707.16 685.85,-692 647.96,-579.96 507.09,-530.11 414.89,-509.09"/>
<polygon fill="black" stroke="black" points="415.9,-505.73 405.38,-506.99 414.39,-512.56 415.9,-505.73"/>
</g>
<!-- libignition&#45;fuel&#45;tools -->
<g id="node26" class="node">
<title>libignition&#45;fuel&#45;tools</title>
<g id="a_node26"><a xlink:href="https://github.com/conda-forge/libignition-fuel-tools-feedstock" xlink:title="libignition fuel tools">
<ellipse fill="#fde725" stroke="black" cx="548.85" cy="-710" rx="111.71" ry="18"/>
<text text-anchor="middle" x="548.85" y="-705.33" font-family="Times,serif" font-size="14.00">libignition fuel tools</text>
</a>
</g>
</g>
<!-- libignition&#45;msgs1&#45;&gt;libignition&#45;fuel&#45;tools -->
<g id="edge29" class="edge">
<title>libignition&#45;msgs1&#45;&gt;libignition&#45;fuel&#45;tools</title>
<path fill="none" stroke="black" d="M495.8,-764.05C504.1,-755.75 514.27,-745.58 523.48,-736.38"/>
<polygon fill="black" stroke="black" points="525.91,-738.89 530.51,-729.35 520.96,-733.94 525.91,-738.89"/>
</g>
<!-- libignition&#45;fuel&#45;tools&#45;&gt;libignition&#45;gazebo -->
<g id="edge30" class="edge">
<title>libignition&#45;fuel&#45;tools&#45;&gt;libignition&#45;gazebo</title>
<path fill="none" stroke="black" d="M549.73,-691.52C549.77,-671.89 546.87,-640.16 529.85,-620 515.59,-603.1 495.17,-591.54 474.6,-583.66"/>
<polygon fill="black" stroke="black" points="475.88,-580.4 465.29,-580.36 473.55,-587 475.88,-580.4"/>
</g>
<!-- gazebo -->
<g id="node27" class="node">
<title>gazebo</title>
<g id="a_node27"><a xlink:href="https://github.com/conda-forge/gazebo-feedstock" xlink:title="gazebo">
<ellipse fill="#35b779" stroke="black" cx="1706.56" cy="-1438" rx="46.47" ry="18"/>
<text text-anchor="middle" x="1706.56" y="-1433.33" font-family="Times,serif" font-size="14.00">gazebo</text>
</a>
</g>
</g>
<!-- gazebo&#45;&gt;gazebo&#45;yarp&#45;plugins -->
<g id="edge31" class="edge">
<title>gazebo&#45;&gt;gazebo&#45;yarp&#45;plugins</title>
<path fill="none" stroke="black" d="M1706.56,-1419.7C1706.56,-1412.41 1706.56,-1403.73 1706.56,-1395.54"/>
<polygon fill="black" stroke="black" points="1710.06,-1395.62 1706.56,-1385.62 1703.06,-1395.62 1710.06,-1395.62"/>
</g>
<!-- google&#45;cloud&#45;cpp -->
<g id="node28" class="node">
<title>google&#45;cloud&#45;cpp</title>
<g id="a_node28"><a xlink:href="https://github.com/conda-forge/google-cloud-cpp-feedstock" xlink:title="google cloud cpp">
<ellipse fill="#fde725" stroke="black" cx="402.84" cy="-1258" rx="95.4" ry="18"/>
<text text-anchor="middle" x="402.84" y="-1253.33" font-family="Times,serif" font-size="14.00">google cloud cpp</text>
</a>
</g>
</g>
<!-- tomviz -->
<g id="node30" class="node">
<title>tomviz</title>
<g id="a_node30"><a xlink:href="https://github.com/conda-forge/tomviz-feedstock" xlink:title="tomviz">
<ellipse fill="#35b779" stroke="black" cx="901.51" cy="-278" rx="44.9" ry="18"/>
<text text-anchor="middle" x="901.51" y="-273.32" font-family="Times,serif" font-size="14.00">tomviz</text>
</a>
</g>
</g>
<!-- cartographer&#45;&gt;tomviz -->
<!-- sentencepiece -->
<g id="node31" class="node">
<title>sentencepiece</title>
<g id="a_node31"><a xlink:href="https://github.com/conda-forge/sentencepiece-feedstock/pull/62" xlink:title="sentencepiece ❎">
<ellipse fill="#31688e" stroke="black" cx="1267.56" cy="-1510" rx="97.51" ry="18"/>
<text text-anchor="middle" x="1267.56" y="-1505.33" font-family="Times,serif" font-size="14.00" fill="white">sentencepiece ❎</text>
</a>
</g>
</g>
<!-- openvino&#45;tokenizers -->
<g id="node32" class="node">
<title>openvino&#45;tokenizers</title>
<g id="a_node32"><a xlink:href="https://github.com/conda-forge/openvino-tokenizers-feedstock" xlink:title="openvino tokenizers">
<ellipse fill="#fde725" stroke="black" cx="1390.56" cy="-1438" rx="111.71" ry="18"/>
<text text-anchor="middle" x="1390.56" y="-1433.33" font-family="Times,serif" font-size="14.00">openvino tokenizers</text>
</a>
</g>
</g>
<!-- sentencepiece&#45;&gt;openvino&#45;tokenizers -->
<g id="edge34" class="edge">
<title>sentencepiece&#45;&gt;openvino&#45;tokenizers</title>
<path fill="none" stroke="black" d="M1296.71,-1492.41C1313.13,-1483.06 1333.86,-1471.27 1351.65,-1461.14"/>
<polygon fill="black" stroke="black" points="1352.92,-1464.45 1359.88,-1456.46 1349.45,-1458.37 1352.92,-1464.45"/>
</g>
<!-- curated&#45;tokenizers -->
<g id="node33" class="node">
<title>curated&#45;tokenizers</title>
<g id="a_node33"><a xlink:href="https://github.com/conda-forge/curated-tokenizers-feedstock" xlink:title="curated tokenizers">
<ellipse fill="#fde725" stroke="black" cx="1155.56" cy="-1438" rx="104.87" ry="18"/>
<text text-anchor="middle" x="1155.56" y="-1433.33" font-family="Times,serif" font-size="14.00">curated tokenizers</text>
</a>
</g>
</g>
<!-- sentencepiece&#45;&gt;curated&#45;tokenizers -->
<g id="edge35" class="edge">
<title>sentencepiece&#45;&gt;curated&#45;tokenizers</title>
<path fill="none" stroke="black" d="M1240.73,-1492.23C1226.15,-1483.12 1207.92,-1471.72 1192.06,-1461.82"/>
<polygon fill="black" stroke="black" points="1194.17,-1459.01 1183.84,-1456.67 1190.46,-1464.94 1194.17,-1459.01"/>
</g>
<!-- protozfits -->
<g id="node34" class="node">
<title>protozfits</title>
<g id="a_node34"><a xlink:href="https://github.com/conda-forge/protozfits-feedstock/pull/46" xlink:title="protozfits ❎">
<ellipse fill="#31688e" stroke="black" cx="901.51" cy="-1762" rx="74.36" ry="18"/>
<text text-anchor="middle" x="901.51" y="-1757.33" font-family="Times,serif" font-size="14.00" fill="white">protozfits ❎</text>
</a>
</g>
</g>
<!-- grpc_java_plugin -->
<g id="node35" class="node">
<title>grpc_java_plugin</title>
<g id="a_node35"><a xlink:href="https://github.com/conda-forge/grpc_java_plugin-feedstock/pull/88" xlink:title="grpc_java_plugin ✓">
<ellipse fill="#31688e" stroke="black" cx="901.51" cy="-1690" rx="103.29" ry="18"/>
<text text-anchor="middle" x="901.51" y="-1685.33" font-family="Times,serif" font-size="14.00" fill="white">grpc_java_plugin ✓</text>
</a>
</g>
</g>
<!-- protozfits&#45;&gt;grpc_java_plugin -->
<!-- or&#45;tools -->
<g id="node36" class="node">
<title>or&#45;tools</title>
<g id="a_node36"><a xlink:href="https://github.com/conda-forge/or-tools-feedstock" xlink:title="or tools">
<ellipse fill="#35b779" stroke="black" cx="901.51" cy="-1618" rx="49.1" ry="18"/>
<text text-anchor="middle" x="901.51" y="-1613.33" font-family="Times,serif" font-size="14.00">or tools</text>
</a>
</g>
</g>
<!-- grpc_java_plugin&#45;&gt;or&#45;tools -->
<!-- cpp&#45;opentelemetry&#45;sdk -->
<g id="node37" class="node">
<title>cpp&#45;opentelemetry&#45;sdk</title>
<g id="a_node37"><a xlink:href="https://github.com/conda-forge/cpp-opentelemetry-sdk-feedstock/pull/73" xlink:title="cpp opentelemetry sdk ❎">
<ellipse fill="#31688e" stroke="black" cx="901.51" cy="-1546" rx="141.17" ry="18"/>
<text text-anchor="middle" x="901.51" y="-1541.33" font-family="Times,serif" font-size="14.00" fill="white">cpp opentelemetry sdk ❎</text>
</a>
</g>
</g>
<!-- or&#45;tools&#45;&gt;cpp&#45;opentelemetry&#45;sdk -->
<!-- xilinx&#45;runtime -->
<g id="node38" class="node">
<title>xilinx&#45;runtime</title>
<g id="a_node38"><a xlink:href="https://github.com/conda-forge/xilinx-runtime-feedstock" xlink:title="xilinx runtime">
<ellipse fill="#35b779" stroke="black" cx="901.51" cy="-1474" rx="81.72" ry="18"/>
<text text-anchor="middle" x="901.51" y="-1469.33" font-family="Times,serif" font-size="14.00">xilinx runtime</text>
</a>
</g>
</g>
<!-- cpp&#45;opentelemetry&#45;sdk&#45;&gt;xilinx&#45;runtime -->
<!-- libpulsar -->
<g id="node40" class="node">
<title>libpulsar</title>
<g id="a_node40"><a xlink:href="https://github.com/conda-forge/libpulsar-feedstock" xlink:title="libpulsar">
<ellipse fill="#35b779" stroke="black" cx="901.51" cy="-1402" rx="55.42" ry="18"/>
<text text-anchor="middle" x="901.51" y="-1397.33" font-family="Times,serif" font-size="14.00">libpulsar</text>
</a>
</g>
</g>
<!-- xilinx&#45;runtime&#45;&gt;libpulsar -->
<!-- singlejar -->
<g id="node39" class="node">
<title>singlejar</title>
<g id="a_node39"><a xlink:href="https://github.com/conda-forge/singlejar-feedstock/pull/98" xlink:title="singlejar ✓">
<ellipse fill="#31688e" stroke="black" cx="901.51" cy="-162" rx="62.78" ry="18"/>
<text text-anchor="middle" x="901.51" y="-157.32" font-family="Times,serif" font-size="14.00" fill="white">singlejar ✓</text>
</a>
</g>
</g>
<!-- singlejar&#45;&gt;bazel -->
<g id="edge40" class="edge">
<title>singlejar&#45;&gt;bazel</title>
<path fill="none" stroke="black" d="M901.51,-143.7C901.51,-136.41 901.51,-127.73 901.51,-119.54"/>
<polygon fill="black" stroke="black" points="905.01,-119.62 901.51,-109.62 898.01,-119.62 905.01,-119.62"/>
</g>
<!-- gnss&#45;sdr -->
<g id="node49" class="node">
<title>gnss&#45;sdr</title>
<g id="a_node49"><a xlink:href="https://github.com/conda-forge/gnss-sdr-feedstock" xlink:title="gnss sdr">
<ellipse fill="#35b779" stroke="black" cx="901.51" cy="-1330" rx="53.84" ry="18"/>
<text text-anchor="middle" x="901.51" y="-1325.33" font-family="Times,serif" font-size="14.00">gnss sdr</text>
</a>
</g>
</g>
<!-- libpulsar&#45;&gt;gnss&#45;sdr -->
<!-- gz&#45;msgs -->
<g id="node41" class="node">
<title>gz&#45;msgs</title>
<g id="a_node41"><a xlink:href="https://github.com/conda-forge/gz-msgs-feedstock/pull/51" xlink:title="gz msgs ❎">
<ellipse fill="#31688e" stroke="black" cx="1395.93" cy="-782" rx="67.52" ry="18"/>
<text text-anchor="middle" x="1395.93" y="-777.33" font-family="Times,serif" font-size="14.00" fill="white">gz msgs ❎</text>
</a>
</g>
</g>
<!-- gz&#45;transport -->
<g id="node42" class="node">
<title>gz&#45;transport</title>
<g id="a_node42"><a xlink:href="https://github.com/conda-forge/gz-transport-feedstock" xlink:title="gz transport">
<ellipse fill="#fde725" stroke="black" cx="1345.93" cy="-710" rx="73.3" ry="18"/>
<text text-anchor="middle" x="1345.93" y="-705.33" font-family="Times,serif" font-size="14.00">gz transport</text>
</a>
</g>
</g>
<!-- gz&#45;msgs&#45;&gt;gz&#45;transport -->
<g id="edge42" class="edge">
<title>gz&#45;msgs&#45;&gt;gz&#45;transport</title>
<path fill="none" stroke="black" d="M1383.82,-764.05C1378.05,-755.97 1371.01,-746.12 1364.58,-737.11"/>
<polygon fill="black" stroke="black" points="1367.46,-735.12 1358.8,-729.02 1361.76,-739.19 1367.46,-735.12"/>
</g>
<!-- gz&#45;fuel&#45;tools -->
<g id="node43" class="node">
<title>gz&#45;fuel&#45;tools</title>
<g id="a_node43"><a xlink:href="https://github.com/conda-forge/gz-fuel-tools-feedstock" xlink:title="gz fuel tools">
<ellipse fill="#fde725" stroke="black" cx="1546.93" cy="-710" rx="72.25" ry="18"/>
<text text-anchor="middle" x="1546.93" y="-705.33" font-family="Times,serif" font-size="14.00">gz fuel tools</text>
</a>
</g>
</g>
<!-- gz&#45;msgs&#45;&gt;gz&#45;fuel&#45;tools -->
<g id="edge43" class="edge">
<title>gz&#45;msgs&#45;&gt;gz&#45;fuel&#45;tools</title>
<path fill="none" stroke="black" d="M1428.69,-765.81C1450.6,-755.65 1479.67,-742.18 1503.51,-731.13"/>
<polygon fill="black" stroke="black" points="1504.73,-734.42 1512.33,-727.04 1501.79,-728.07 1504.73,-734.42"/>
</g>
<!-- gz&#45;gui -->
<g id="node44" class="node">
<title>gz&#45;gui</title>
<g id="a_node44"><a xlink:href="https://github.com/conda-forge/gz-gui-feedstock" xlink:title="gz gui">
<ellipse fill="#fde725" stroke="black" cx="1254.93" cy="-638" rx="41.74" ry="18"/>
<text text-anchor="middle" x="1254.93" y="-633.33" font-family="Times,serif" font-size="14.00">gz gui</text>
</a>
</g>
</g>
<!-- gz&#45;msgs&#45;&gt;gz&#45;gui -->
<g id="edge44" class="edge">
<title>gz&#45;msgs&#45;&gt;gz&#45;gui</title>
<path fill="none" stroke="black" d="M1338.83,-772.07C1311.86,-764.81 1281.74,-751.68 1263.93,-728 1251.08,-710.92 1249.44,-686.47 1250.68,-667.53"/>
<polygon fill="black" stroke="black" points="1254.14,-668.08 1251.63,-657.78 1247.17,-667.39 1254.14,-668.08"/>
</g>
<!-- gz&#45;sensors -->
<g id="node45" class="node">
<title>gz&#45;sensors</title>
<g id="a_node45"><a xlink:href="https://github.com/conda-forge/gz-sensors-feedstock" xlink:title="gz sensors">
<ellipse fill="#fde725" stroke="black" cx="1454.93" cy="-638" rx="64.36" ry="18"/>
<text text-anchor="middle" x="1454.93" y="-633.33" font-family="Times,serif" font-size="14.00">gz sensors</text>
</a>
</g>
</g>
<!-- gz&#45;msgs&#45;&gt;gz&#45;sensors -->
<g id="edge45" class="edge">
<title>gz&#45;msgs&#45;&gt;gz&#45;sensors</title>
<path fill="none" stroke="black" d="M1407.73,-763.93C1414.33,-753.82 1422.33,-740.57 1427.93,-728 1436.66,-708.37 1443.61,-685.1 1448.27,-667.28"/>
<polygon fill="black" stroke="black" points="1451.65,-668.2 1450.69,-657.65 1444.86,-666.5 1451.65,-668.2"/>
</g>
<!-- gz&#45;sim -->
<g id="node46" class="node">
<title>gz&#45;sim</title>
<g id="a_node46"><a xlink:href="https://github.com/conda-forge/gz-sim-feedstock" xlink:title="gz sim">
<ellipse fill="#fde725" stroke="black" cx="1425.93" cy="-566" rx="43.84" ry="18"/>
<text text-anchor="middle" x="1425.93" y="-561.33" font-family="Times,serif" font-size="14.00">gz sim</text>
</a>
</g>
</g>
<!-- gz&#45;msgs&#45;&gt;gz&#45;sim -->
<g id="edge46" class="edge">
<title>gz&#45;msgs&#45;&gt;gz&#45;sim</title>
<path fill="none" stroke="black" d="M1459.21,-775.3C1520.51,-768.31 1607.16,-754.05 1627.93,-728 1680.69,-661.83 1545.88,-605.72 1471.38,-580.8"/>
<polygon fill="black" stroke="black" points="1472.89,-577.61 1462.3,-577.83 1470.71,-584.27 1472.89,-577.61"/>
</g>
<!-- gz&#45;launch -->
<g id="node47" class="node">
<title>gz&#45;launch</title>
<g id="a_node47"><a xlink:href="https://github.com/conda-forge/gz-launch-feedstock" xlink:title="gz launch">
<ellipse fill="#fde725" stroke="black" cx="1305.93" cy="-494" rx="59.1" ry="18"/>
<text text-anchor="middle" x="1305.93" y="-489.32" font-family="Times,serif" font-size="14.00">gz launch</text>
</a>
</g>
</g>
<!-- gz&#45;msgs&#45;&gt;gz&#45;launch -->
<g id="edge47" class="edge">
<title>gz&#45;msgs&#45;&gt;gz&#45;launch</title>
<path fill="none" stroke="black" d="M1341.44,-771.13C1311.05,-763.44 1273.99,-750.2 1246.93,-728 1218.11,-704.36 1213.84,-691.93 1203.93,-656 1188.8,-601.16 1239.99,-547.36 1275.25,-517.94"/>
<polygon fill="black" stroke="black" points="1277.08,-520.97 1282.65,-511.95 1272.67,-515.53 1277.08,-520.97"/>
</g>
<!-- gz&#45;transport&#45;&gt;gz&#45;gui -->
<g id="edge48" class="edge">
<title>gz&#45;transport&#45;&gt;gz&#45;gui</title>
<path fill="none" stroke="black" d="M1324.36,-692.41C1312.26,-683.11 1297.01,-671.38 1283.89,-661.28"/>
<polygon fill="black" stroke="black" points="1286.04,-658.52 1275.98,-655.2 1281.77,-664.07 1286.04,-658.52"/>
</g>
<!-- gz&#45;transport&#45;&gt;gz&#45;sensors -->
<g id="edge49" class="edge">
<title>gz&#45;transport&#45;&gt;gz&#45;sensors</title>
<path fill="none" stroke="black" d="M1371.21,-692.76C1385.89,-683.33 1404.6,-671.32 1420.6,-661.04"/>
<polygon fill="black" stroke="black" points="1422.36,-664.07 1428.88,-655.72 1418.58,-658.18 1422.36,-664.07"/>
</g>
<!-- gz&#45;transport&#45;&gt;gz&#45;sim -->
<g id="edge50" class="edge">
<title>gz&#45;transport&#45;&gt;gz&#45;sim</title>
<path fill="none" stroke="black" d="M1351.1,-691.87C1357.07,-673.39 1367.9,-643.46 1381.93,-620 1387.84,-610.1 1395.55,-600.13 1402.86,-591.55"/>
<polygon fill="black" stroke="black" points="1405.25,-594.13 1409.24,-584.32 1400,-589.5 1405.25,-594.13"/>
</g>
<!-- gz&#45;transport&#45;&gt;gz&#45;launch -->
<g id="edge51" class="edge">
<title>gz&#45;transport&#45;&gt;gz&#45;launch</title>
<path fill="none" stroke="black" d="M1342.72,-691.85C1335.86,-655.14 1319.69,-568.66 1311.26,-523.53"/>
<polygon fill="black" stroke="black" points="1314.7,-522.91 1309.42,-513.72 1307.82,-524.19 1314.7,-522.91"/>
</g>
<!-- gz&#45;fuel&#45;tools&#45;&gt;gz&#45;sim -->
<g id="edge52" class="edge">
<title>gz&#45;fuel&#45;tools&#45;&gt;gz&#45;sim</title>
<path fill="none" stroke="black" d="M1547.43,-691.82C1547.13,-672.47 1543.91,-640.99 1527.93,-620 1513.98,-601.7 1491.92,-589.13 1471.87,-580.85"/>
<polygon fill="black" stroke="black" points="1473.31,-577.65 1462.72,-577.33 1470.8,-584.19 1473.31,-577.65"/>
</g>
<!-- gz&#45;gui&#45;&gt;gz&#45;sim -->
<g id="edge53" class="edge">
<title>gz&#45;gui&#45;&gt;gz&#45;sim</title>
<path fill="none" stroke="black" d="M1284.32,-624.97C1312.17,-613.57 1354.23,-596.35 1385.28,-583.64"/>
<polygon fill="black" stroke="black" points="1386.43,-586.95 1394.36,-579.92 1383.78,-580.47 1386.43,-586.95"/>
</g>
<!-- gz&#45;gui&#45;&gt;gz&#45;launch -->
<g id="edge54" class="edge">
<title>gz&#45;gui&#45;&gt;gz&#45;launch</title>
<path fill="none" stroke="black" d="M1261.08,-619.87C1269.73,-595.78 1285.6,-551.6 1295.95,-522.77"/>
<polygon fill="black" stroke="black" points="1299.15,-524.21 1299.24,-513.61 1292.57,-521.84 1299.15,-524.21"/>
</g>
<!-- gz&#45;sensors&#45;&gt;gz&#45;sim -->
<g id="edge55" class="edge">
<title>gz&#45;sensors&#45;&gt;gz&#45;sim</title>
<path fill="none" stroke="black" d="M1447.76,-619.7C1444.63,-612.15 1440.89,-603.12 1437.39,-594.68"/>
<polygon fill="black" stroke="black" points="1440.65,-593.4 1433.59,-585.5 1434.18,-596.08 1440.65,-593.4"/>
</g>
<!-- gz&#45;sim&#45;&gt;gz&#45;launch -->
<g id="edge56" class="edge">
<title>gz&#45;sim&#45;&gt;gz&#45;launch</title>
<path fill="none" stroke="black" d="M1401.35,-550.67C1384.38,-540.77 1361.52,-527.43 1342.42,-516.29"/>
<polygon fill="black" stroke="black" points="1344.26,-513.31 1333.86,-511.29 1340.73,-519.36 1344.26,-513.31"/>
</g>
<!-- openvino -->
<g id="node48" class="node">
<title>openvino</title>
<g id="a_node48"><a xlink:href="https://github.com/conda-forge/openvino-feedstock/pull/117" xlink:title="openvino ❎">
<ellipse fill="#31688e" stroke="black" cx="1478.56" cy="-1510" rx="71.73" ry="18"/>
<text text-anchor="middle" x="1478.56" y="-1505.33" font-family="Times,serif" font-size="14.00" fill="white">openvino ❎</text>
</a>
</g>
</g>
<!-- openvino&#45;&gt;opencv -->
<g id="edge57" class="edge">
<title>openvino&#45;&gt;opencv</title>
<path fill="none" stroke="black" d="M1499.41,-1492.41C1510.95,-1483.24 1525.45,-1471.7 1538.02,-1461.7"/>
<polygon fill="black" stroke="black" points="1539.93,-1464.66 1545.57,-1455.69 1535.57,-1459.18 1539.93,-1464.66"/>
</g>
<!-- openvino&#45;&gt;openvino&#45;tokenizers -->
<g id="edge58" class="edge">
<title>openvino&#45;&gt;openvino&#45;tokenizers</title>
<path fill="none" stroke="black" d="M1457.7,-1492.41C1446.69,-1483.65 1432.96,-1472.73 1420.8,-1463.06"/>
<polygon fill="black" stroke="black" points="1423.06,-1460.38 1413.06,-1456.9 1418.71,-1465.86 1423.06,-1460.38"/>
</g>
<!-- tensorstore -->
<g id="node50" class="node">
<title>tensorstore</title>
<g id="a_node50"><a xlink:href="https://github.com/conda-forge/tensorstore-feedstock/pull/52" xlink:title="tensorstore ❎">
<ellipse fill="#31688e" stroke="black" cx="901.51" cy="-1258" rx="84.35" ry="18"/>
<text text-anchor="middle" x="901.51" y="-1253.33" font-family="Times,serif" font-size="14.00" fill="white">tensorstore ❎</text>
</a>
</g>
</g>
<!-- gnss&#45;sdr&#45;&gt;tensorstore -->
<!-- gcld3 -->
<g id="node51" class="node">
<title>gcld3</title>
<g id="a_node51"><a xlink:href="https://github.com/conda-forge/gcld3-feedstock" xlink:title="gcld3">
<ellipse fill="#35b779" stroke="black" cx="901.51" cy="-1186" rx="38.58" ry="18"/>
<text text-anchor="middle" x="901.51" y="-1181.33" font-family="Times,serif" font-size="14.00">gcld3</text>
</a>
</g>
</g>
<!-- tensorstore&#45;&gt;gcld3 -->
<!-- bloaty -->
<g id="node52" class="node">
<title>bloaty</title>
<g id="a_node52"><a xlink:href="https://github.com/conda-forge/bloaty-feedstock" xlink:title="bloaty">
<ellipse fill="#35b779" stroke="black" cx="901.51" cy="-1114" rx="42.26" ry="18"/>
<text text-anchor="middle" x="901.51" y="-1109.33" font-family="Times,serif" font-size="14.00">bloaty</text>
</a>
</g>
</g>
<!-- gcld3&#45;&gt;bloaty -->
<!-- gz&#45;sim&#45;yarp&#45;plugins -->
<g id="node57" class="node">
<title>gz&#45;sim&#45;yarp&#45;plugins</title>
<g id="a_node57"><a xlink:href="https://github.com/conda-forge/gz-sim-yarp-plugins-feedstock" xlink:title="gz sim yarp plugins">
<ellipse fill="#35b779" stroke="black" cx="901.51" cy="-1042" rx="109.61" ry="18"/>
<text text-anchor="middle" x="901.51" y="-1037.33" font-family="Times,serif" font-size="14.00">gz sim yarp plugins</text>
</a>
</g>
</g>
<!-- bloaty&#45;&gt;gz&#45;sim&#45;yarp&#45;plugins -->
<!-- google&#45;cloud&#45;cpp&#45;core -->
<g id="node53" class="node">
<title>google&#45;cloud&#45;cpp&#45;core</title>
<g id="a_node53"><a xlink:href="https://github.com/conda-forge/google-cloud-cpp-core-feedstock/pull/30" xlink:title="google cloud cpp core ❎">
<ellipse fill="#31688e" stroke="black" cx="436.84" cy="-1546" rx="135.39" ry="18"/>
<text text-anchor="middle" x="436.84" y="-1541.33" font-family="Times,serif" font-size="14.00" fill="white">google cloud cpp core ❎</text>
</a>
</g>
</g>
<!-- google&#45;cloud&#45;cpp&#45;core&#45;&gt;arrow&#45;cpp -->
<g id="edge63" class="edge">
<title>google&#45;cloud&#45;cpp&#45;core&#45;&gt;arrow&#45;cpp</title>
<path fill="none" stroke="black" d="M377.25,-1529.38C331.91,-1517.49 269.96,-1501.25 225.59,-1489.62"/>
<polygon fill="black" stroke="black" points="226.74,-1486.3 216.18,-1487.15 224.96,-1493.07 226.74,-1486.3"/>
</g>
<!-- google&#45;cloud&#45;cpp&#45;core&#45;&gt;google&#45;cloud&#45;cpp -->
<g id="edge64" class="edge">
<title>google&#45;cloud&#45;cpp&#45;core&#45;&gt;google&#45;cloud&#45;cpp</title>
<path fill="none" stroke="black" d="M345.76,-1532.39C322.49,-1524.58 300.05,-1512.06 285.84,-1492 236.06,-1421.77 324.79,-1327.31 373.72,-1283.37"/>
<polygon fill="black" stroke="black" points="376.03,-1286.01 381.22,-1276.77 371.4,-1280.75 376.03,-1286.01"/>
</g>
<!-- google&#45;cloud&#45;cpp&#45;compute -->
<g id="node54" class="node">
<title>google&#45;cloud&#45;cpp&#45;compute</title>
<g id="a_node54"><a xlink:href="https://github.com/conda-forge/google-cloud-cpp-compute-feedstock" xlink:title="google cloud cpp compute">
<ellipse fill="#fde725" stroke="black" cx="436.84" cy="-1474" rx="141.7" ry="18"/>
<text text-anchor="middle" x="436.84" y="-1469.33" font-family="Times,serif" font-size="14.00">google cloud cpp compute</text>
</a>
</g>
</g>
<!-- google&#45;cloud&#45;cpp&#45;core&#45;&gt;google&#45;cloud&#45;cpp&#45;compute -->
<g id="edge65" class="edge">
<title>google&#45;cloud&#45;cpp&#45;core&#45;&gt;google&#45;cloud&#45;cpp&#45;compute</title>
<path fill="none" stroke="black" d="M436.84,-1527.7C436.84,-1520.41 436.84,-1511.73 436.84,-1503.54"/>
<polygon fill="black" stroke="black" points="440.34,-1503.62 436.84,-1493.62 433.34,-1503.62 440.34,-1503.62"/>
</g>
<!-- google&#45;cloud&#45;cpp&#45;bigquery -->
<g id="node55" class="node">
<title>google&#45;cloud&#45;cpp&#45;bigquery</title>
<g id="a_node55"><a xlink:href="https://github.com/conda-forge/google-cloud-cpp-bigquery-feedstock" xlink:title="google cloud cpp bigquery">
<ellipse fill="#fde725" stroke="black" cx="524.84" cy="-1402" rx="143.28" ry="18"/>
<text text-anchor="middle" x="524.84" y="-1397.33" font-family="Times,serif" font-size="14.00">google cloud cpp bigquery</text>
</a>
</g>
</g>
<!-- google&#45;cloud&#45;cpp&#45;core&#45;&gt;google&#45;cloud&#45;cpp&#45;bigquery -->
<g id="edge66" class="edge">
<title>google&#45;cloud&#45;cpp&#45;core&#45;&gt;google&#45;cloud&#45;cpp&#45;bigquery</title>
<path fill="none" stroke="black" d="M527.91,-1532.39C551.18,-1524.58 573.62,-1512.06 587.84,-1492 597.09,-1478.95 594.59,-1470.51 587.84,-1456 582.52,-1444.59 573.41,-1434.76 563.75,-1426.77"/>
<polygon fill="black" stroke="black" points="566.08,-1424.15 556.01,-1420.88 561.84,-1429.72 566.08,-1424.15"/>
</g>
<!-- google&#45;cloud&#45;cpp&#45;ai -->
<g id="node56" class="node">
<title>google&#45;cloud&#45;cpp&#45;ai</title>
<g id="a_node56"><a xlink:href="https://github.com/conda-forge/google-cloud-cpp-ai-feedstock" xlink:title="google cloud cpp ai">
<ellipse fill="#fde725" stroke="black" cx="644.84" cy="-1330" rx="107.5" ry="18"/>
<text text-anchor="middle" x="644.84" y="-1325.33" font-family="Times,serif" font-size="14.00">google cloud cpp ai</text>
</a>
</g>
</g>
<!-- google&#45;cloud&#45;cpp&#45;core&#45;&gt;google&#45;cloud&#45;cpp&#45;ai -->
<g id="edge67" class="edge">
<title>google&#45;cloud&#45;cpp&#45;core&#45;&gt;google&#45;cloud&#45;cpp&#45;ai</title>
<path fill="none" stroke="black" d="M508.71,-1530.43C539.74,-1522.14 575.55,-1509.77 604.84,-1492 643.52,-1468.52 659.52,-1461.81 676.84,-1420 685.38,-1399.36 675.81,-1375.52 664.96,-1357.71"/>
<polygon fill="black" stroke="black" points="667.98,-1355.94 659.56,-1349.51 662.13,-1359.79 667.98,-1355.94"/>
</g>
<!-- google&#45;cloud&#45;cpp&#45;compute&#45;&gt;google&#45;cloud&#45;cpp -->
<g id="edge68" class="edge">
<title>google&#45;cloud&#45;cpp&#45;compute&#45;&gt;google&#45;cloud&#45;cpp</title>
<path fill="none" stroke="black" d="M406.4,-1456.14C393.53,-1447.23 379.9,-1435.01 372.84,-1420 352.29,-1376.31 372.2,-1319.74 387.93,-1286.61"/>
<polygon fill="black" stroke="black" points="391.06,-1288.19 392.37,-1277.67 384.79,-1285.07 391.06,-1288.19"/>
</g>
<!-- google&#45;cloud&#45;cpp&#45;bigquery&#45;&gt;google&#45;cloud&#45;cpp -->
<g id="edge69" class="edge">
<title>google&#45;cloud&#45;cpp&#45;bigquery&#45;&gt;google&#45;cloud&#45;cpp</title>
<path fill="none" stroke="black" d="M510.12,-1383.87C488.96,-1359.24 449.78,-1313.64 425.07,-1284.88"/>
<polygon fill="black" stroke="black" points="427.76,-1282.64 418.59,-1277.34 422.45,-1287.2 427.76,-1282.64"/>
</g>
<!-- google&#45;cloud&#45;cpp&#45;ai&#45;&gt;google&#45;cloud&#45;cpp -->
<g id="edge70" class="edge">
<title>google&#45;cloud&#45;cpp&#45;ai&#45;&gt;google&#45;cloud&#45;cpp</title>
<path fill="none" stroke="black" d="M592.62,-1313.9C554.9,-1302.99 503.82,-1288.21 464.16,-1276.74"/>
<polygon fill="black" stroke="black" points="465.33,-1273.43 454.75,-1274.02 463.38,-1280.16 465.33,-1273.43"/>
</g>
<!-- bfiocpp -->
<g id="node58" class="node">
<title>bfiocpp</title>
<g id="a_node58"><a xlink:href="https://github.com/conda-forge/bfiocpp-feedstock/pull/12" xlink:title="bfiocpp ❎">
<ellipse fill="#31688e" stroke="black" cx="376.17" cy="-234" rx="62.78" ry="18"/>
<text text-anchor="middle" x="376.17" y="-229.32" font-family="Times,serif" font-size="14.00" fill="white">bfiocpp ❎</text>
</a>
</g>
</g>
<!-- protobuf&#45;c -->
<g id="node59" class="node">
<title>protobuf&#45;c</title>
<g id="a_node59"><a xlink:href="https://github.com/conda-forge/protobuf-c-feedstock" xlink:title="protobuf c">
<ellipse fill="#35b779" stroke="black" cx="376.17" cy="-162" rx="62.78" ry="18"/>
<text text-anchor="middle" x="376.17" y="-157.32" font-family="Times,serif" font-size="14.00">protobuf c</text>
</a>
</g>
</g>
<!-- bfiocpp&#45;&gt;protobuf&#45;c -->
<!-- mysqlx&#45;connector&#45;python -->
<g id="node60" class="node">
<title>mysqlx&#45;connector&#45;python</title>
<g id="a_node60"><a xlink:href="https://github.com/conda-forge/mysqlx-connector-python-feedstock" xlink:title="mysqlx connector python">
<ellipse fill="#35b779" stroke="black" cx="376.17" cy="-90" rx="137.49" ry="18"/>
<text text-anchor="middle" x="376.17" y="-85.33" font-family="Times,serif" font-size="14.00">mysqlx connector python</text>
</a>
</g>
</g>
<!-- protobuf&#45;c&#45;&gt;mysqlx&#45;connector&#45;python -->
<!-- dydx&#45;v4&#45;proto&#45;cpp -->
<g id="node61" class="node">
<title>dydx&#45;v4&#45;proto&#45;cpp</title>
<g id="a_node61"><a xlink:href="https://github.com/conda-forge/dydx-v4-proto-cpp-feedstock" xlink:title="dydx v4 proto cpp">
<ellipse fill="#35b779" stroke="black" cx="376.17" cy="-18" rx="101.71" ry="18"/>
<text text-anchor="middle" x="376.17" y="-13.32" font-family="Times,serif" font-size="14.00">dydx v4 proto cpp</text>
</a>
</g>
</g>
<!-- mysqlx&#45;connector&#45;python&#45;&gt;dydx&#45;v4&#45;proto&#45;cpp -->
</g>
</svg>
