<?xml version="1.0" encoding="UTF-8" standalone="no"?>
<!DOCTYPE svg PUBLIC "-//W3C//DTD SVG 1.1//EN"
 "http://www.w3.org/Graphics/SVG/1.1/DTD/svg11.dtd">
<!-- Generated by graphviz version 12.0.0 (20240803.0821)
 -->
<!-- Pages: 1 -->
<svg width="1109pt" height="476pt"
 viewBox="0.00 0.00 1108.70 476.00" xmlns="http://www.w3.org/2000/svg" xmlns:xlink="http://www.w3.org/1999/xlink">
<g id="graph0" class="graph" transform="scale(1 1) rotate(0) translate(4 472)">
<polygon fill="white" stroke="none" points="-4,4 -4,-472 1104.7,-472 1104.7,4 -4,4"/>
<!-- gdal -->
<g id="node1" class="node">
<title>gdal</title>
<g id="a_node1"><a xlink:href="https://github.com/conda-forge/gdal-feedstock" xlink:title="gdal">
<ellipse fill="#35b779" stroke="black" cx="242.69" cy="-342" rx="32.79" ry="18"/>
<text text-anchor="middle" x="242.69" y="-337.32" font-family="Times,serif" font-size="14.00">gdal</text>
</a>
</g>
</g>
<!-- postgis -->
<g id="node2" class="node">
<title>postgis</title>
<g id="a_node2"><a xlink:href="https://github.com/conda-forge/postgis-feedstock" xlink:title="postgis">
<ellipse fill="#fde725" stroke="black" cx="518.69" cy="-270" rx="47.53" ry="18"/>
<text text-anchor="middle" x="518.69" y="-265.32" font-family="Times,serif" font-size="14.00">postgis</text>
</a>
</g>
</g>
<!-- gdal&#45;&gt;postgis -->
<g id="edge1" class="edge">
<title>gdal&#45;&gt;postgis</title>
<path fill="none" stroke="black" d="M272.23,-333.51C319.29,-321.57 411.82,-298.1 469.15,-283.56"/>
<polygon fill="black" stroke="black" points="469.82,-287 478.66,-281.15 468.1,-280.22 469.82,-287"/>
</g>
<!-- qgis -->
<g id="node3" class="node">
<title>qgis</title>
<g id="a_node3"><a xlink:href="https://github.com/conda-forge/qgis-feedstock" xlink:title="qgis">
<ellipse fill="#fde725" stroke="black" cx="235.69" cy="-126" rx="32.27" ry="18"/>
<text text-anchor="middle" x="235.69" y="-121.33" font-family="Times,serif" font-size="14.00">qgis</text>
</a>
</g>
</g>
<!-- gdal&#45;&gt;qgis -->
<g id="edge2" class="edge">
<title>gdal&#45;&gt;qgis</title>
<path fill="none" stroke="black" d="M238.69,-324.09C232.24,-294.78 220.77,-232.61 225.69,-180 226.45,-171.86 227.86,-163.1 229.38,-155.1"/>
<polygon fill="black" stroke="black" points="232.76,-156.05 231.33,-145.55 225.9,-154.65 232.76,-156.05"/>
</g>
<!-- mapserver -->
<g id="node4" class="node">
<title>mapserver</title>
<g id="a_node4"><a xlink:href="https://github.com/conda-forge/mapserver-feedstock" xlink:title="mapserver">
<ellipse fill="#fde725" stroke="black" cx="113.69" cy="-270" rx="64.89" ry="18"/>
<text text-anchor="middle" x="113.69" y="-265.32" font-family="Times,serif" font-size="14.00">mapserver</text>
</a>
</g>
</g>
<!-- gdal&#45;&gt;mapserver -->
<g id="edge3" class="edge">
<title>gdal&#45;&gt;mapserver</title>
<path fill="none" stroke="black" d="M219.92,-328.65C201.19,-318.48 174.23,-303.85 152.15,-291.87"/>
<polygon fill="black" stroke="black" points="153.88,-288.82 143.42,-287.13 150.54,-294.98 153.88,-288.82"/>
</g>
<!-- libpdal -->
<g id="node5" class="node">
<title>libpdal</title>
<g id="a_node5"><a xlink:href="https://github.com/conda-forge/libpdal-feedstock" xlink:title="libpdal">
<ellipse fill="#fde725" stroke="black" cx="279.69" cy="-198" rx="45.42" ry="18"/>
<text text-anchor="middle" x="279.69" y="-193.32" font-family="Times,serif" font-size="14.00">libpdal</text>
</a>
</g>
</g>
<!-- gdal&#45;&gt;libpdal -->
<g id="edge4" class="edge">
<title>gdal&#45;&gt;libpdal</title>
<path fill="none" stroke="black" d="M247.15,-323.87C253.4,-299.88 264.84,-255.99 272.35,-227.16"/>
<polygon fill="black" stroke="black" points="275.69,-228.21 274.83,-217.65 268.92,-226.45 275.69,-228.21"/>
</g>
<!-- pgrouting -->
<g id="node6" class="node">
<title>pgrouting</title>
<g id="a_node6"><a xlink:href="https://github.com/conda-forge/pgrouting-feedstock" xlink:title="pgrouting">
<ellipse fill="#fde725" stroke="black" cx="607.69" cy="-198" rx="60.68" ry="18"/>
<text text-anchor="middle" x="607.69" y="-193.32" font-family="Times,serif" font-size="14.00">pgrouting</text>
</a>
</g>
</g>
<!-- postgis&#45;&gt;pgrouting -->
<g id="edge5" class="edge">
<title>postgis&#45;&gt;pgrouting</title>
<path fill="none" stroke="black" d="M538.44,-253.46C550.18,-244.24 565.28,-232.36 578.38,-222.05"/>
<polygon fill="black" stroke="black" points="580.18,-225.09 585.88,-216.16 575.85,-219.59 580.18,-225.09"/>
</g>
<!-- meos -->
<g id="node7" class="node">
<title>meos</title>
<g id="a_node7"><a xlink:href="https://github.com/conda-forge/meos-feedstock" xlink:title="meos">
<ellipse fill="#fde725" stroke="black" cx="518.69" cy="-126" rx="37.53" ry="18"/>
<text text-anchor="middle" x="518.69" y="-121.33" font-family="Times,serif" font-size="14.00">meos</text>
</a>
</g>
</g>
<!-- postgis&#45;&gt;meos -->
<g id="edge6" class="edge">
<title>postgis&#45;&gt;meos</title>
<path fill="none" stroke="black" d="M518.69,-251.59C518.69,-227.61 518.69,-184.14 518.69,-155.42"/>
<polygon fill="black" stroke="black" points="522.19,-155.62 518.69,-145.62 515.19,-155.62 522.19,-155.62"/>
</g>
<!-- libpdal&#45;&gt;qgis -->
<g id="edge7" class="edge">
<title>libpdal&#45;&gt;qgis</title>
<path fill="none" stroke="black" d="M269.04,-180.05C263.94,-171.94 257.72,-162.04 252.04,-153.01"/>
<polygon fill="black" stroke="black" points="255.03,-151.19 246.75,-144.59 249.1,-154.92 255.03,-151.19"/>
</g>
<!-- psycopg2 -->
<g id="node8" class="node">
<title>psycopg2</title>
<g id="a_node8"><a xlink:href="https://github.com/conda-forge/psycopg2-feedstock/pull/111" xlink:title="psycopg2 ❎">
<ellipse fill="#31688e" stroke="black" cx="416.69" cy="-198" rx="73.83" ry="18"/>
<text text-anchor="middle" x="416.69" y="-193.32" font-family="Times,serif" font-size="14.00" fill="white">psycopg2 ❎</text>
</a>
</g>
</g>
<!-- psycopg2&#45;&gt;qgis -->
<g id="edge8" class="edge">
<title>psycopg2&#45;&gt;qgis</title>
<path fill="none" stroke="black" d="M378.75,-182.33C347.31,-170.17 302.93,-153 271.96,-141.03"/>
<polygon fill="black" stroke="black" points="273.62,-137.91 263.03,-137.57 271.09,-144.44 273.62,-137.91"/>
</g>
<!-- rdkit -->
<g id="node9" class="node">
<title>rdkit</title>
<g id="a_node9"><a xlink:href="https://github.com/conda-forge/rdkit-feedstock" xlink:title="rdkit">
<ellipse fill="#35b779" stroke="black" cx="797.02" cy="-450" rx="35.42" ry="18"/>
<text text-anchor="middle" x="797.02" y="-445.32" font-family="Times,serif" font-size="14.00">rdkit</text>
</a>
</g>
</g>
<!-- r&#45;rpostgresql -->
<g id="node10" class="node">
<title>r&#45;rpostgresql</title>
<g id="a_node10"><a xlink:href="https://github.com/conda-forge/r-rpostgresql-feedstock" xlink:title="r rpostgresql">
<ellipse fill="#35b779" stroke="black" cx="797.02" cy="-378" rx="76.99" ry="18"/>
<text text-anchor="middle" x="797.02" y="-373.32" font-family="Times,serif" font-size="14.00">r rpostgresql</text>
</a>
</g>
</g>
<!-- rdkit&#45;&gt;r&#45;rpostgresql -->
<!-- r&#45;rpostgres -->
<g id="node11" class="node">
<title>r&#45;rpostgres</title>
<g id="a_node11"><a xlink:href="https://github.com/conda-forge/r-rpostgres-feedstock" xlink:title="r rpostgres">
<ellipse fill="#35b779" stroke="black" cx="797.02" cy="-306" rx="67.52" ry="18"/>
<text text-anchor="middle" x="797.02" y="-301.32" font-family="Times,serif" font-size="14.00">r rpostgres</text>
</a>
</g>
</g>
<!-- r&#45;rpostgresql&#45;&gt;r&#45;rpostgres -->
<!-- psqlodbc -->
<g id="node12" class="node">
<title>psqlodbc</title>
<g id="a_node12"><a xlink:href="https://github.com/conda-forge/psqlodbc-feedstock" xlink:title="psqlodbc">
<ellipse fill="#35b779" stroke="black" cx="797.02" cy="-234" rx="55.94" ry="18"/>
<text text-anchor="middle" x="797.02" y="-229.32" font-family="Times,serif" font-size="14.00">psqlodbc</text>
</a>
</g>
</g>
<!-- r&#45;rpostgres&#45;&gt;psqlodbc -->
<!-- pgvector -->
<g id="node13" class="node">
<title>pgvector</title>
<g id="a_node13"><a xlink:href="https://github.com/conda-forge/pgvector-feedstock" xlink:title="pgvector">
<ellipse fill="#35b779" stroke="black" cx="797.02" cy="-162" rx="55.42" ry="18"/>
<text text-anchor="middle" x="797.02" y="-157.32" font-family="Times,serif" font-size="14.00">pgvector</text>
</a>
</g>
</g>
<!-- psqlodbc&#45;&gt;pgvector -->
<!-- arrow&#45;adbc&#45;split -->
<g id="node19" class="node">
<title>arrow&#45;adbc&#45;split</title>
<g id="a_node19"><a xlink:href="https://github.com/conda-forge/arrow-adbc-split-feedstock" xlink:title="arrow adbc split">
<ellipse fill="#35b779" stroke="black" cx="797.02" cy="-90" rx="92.77" ry="18"/>
<text text-anchor="middle" x="797.02" y="-85.33" font-family="Times,serif" font-size="14.00">arrow adbc split</text>
</a>
</g>
</g>
<!-- pgvector&#45;&gt;arrow&#45;adbc&#45;split -->
<!-- soci -->
<g id="node14" class="node">
<title>soci</title>
<g id="a_node14"><a xlink:href="https://github.com/conda-forge/soci-feedstock" xlink:title="soci">
<ellipse fill="#35b779" stroke="black" cx="30.69" cy="-198" rx="30.69" ry="18"/>
<text text-anchor="middle" x="30.69" y="-193.32" font-family="Times,serif" font-size="14.00">soci</text>
</a>
</g>
</g>
<!-- rstudio -->
<g id="node15" class="node">
<title>rstudio</title>
<g id="a_node15"><a xlink:href="https://github.com/conda-forge/rstudio-feedstock" xlink:title="rstudio">
<ellipse fill="#fde725" stroke="black" cx="99.69" cy="-126" rx="47" ry="18"/>
<text text-anchor="middle" x="99.69" y="-121.33" font-family="Times,serif" font-size="14.00">rstudio</text>
</a>
</g>
</g>
<!-- soci&#45;&gt;rstudio -->
<g id="edge13" class="edge">
<title>soci&#45;&gt;rstudio</title>
<path fill="none" stroke="black" d="M45.66,-181.81C54.46,-172.89 65.77,-161.41 75.78,-151.26"/>
<polygon fill="black" stroke="black" points="78.2,-153.79 82.72,-144.21 73.21,-148.88 78.2,-153.79"/>
</g>
<!-- libpqxx -->
<g id="node16" class="node">
<title>libpqxx</title>
<g id="a_node16"><a xlink:href="https://github.com/conda-forge/libpqxx-feedstock" xlink:title="libpqxx">
<ellipse fill="#35b779" stroke="black" cx="1013.19" cy="-270" rx="48.05" ry="18"/>
<text text-anchor="middle" x="1013.19" y="-265.32" font-family="Times,serif" font-size="14.00">libpqxx</text>
</a>
</g>
</g>
<!-- osm2pgrouting -->
<g id="node17" class="node">
<title>osm2pgrouting</title>
<g id="a_node17"><a xlink:href="https://github.com/conda-forge/osm2pgrouting-feedstock" xlink:title="osm2pgrouting">
<ellipse fill="#fde725" stroke="black" cx="1013.19" cy="-198" rx="87.51" ry="18"/>
<text text-anchor="middle" x="1013.19" y="-193.32" font-family="Times,serif" font-size="14.00">osm2pgrouting</text>
</a>
</g>
</g>
<!-- libpqxx&#45;&gt;osm2pgrouting -->
<g id="edge14" class="edge">
<title>libpqxx&#45;&gt;osm2pgrouting</title>
<path fill="none" stroke="black" d="M1013.19,-251.7C1013.19,-244.41 1013.19,-235.73 1013.19,-227.54"/>
<polygon fill="black" stroke="black" points="1016.69,-227.62 1013.19,-217.62 1009.69,-227.62 1016.69,-227.62"/>
</g>
<!-- qt&#45;main -->
<g id="node18" class="node">
<title>qt&#45;main</title>
<g id="a_node18"><a xlink:href="https://github.com/conda-forge/qt-main-feedstock" xlink:title="qt main">
<ellipse fill="#35b779" stroke="black" cx="128.69" cy="-198" rx="49.63" ry="18"/>
<text text-anchor="middle" x="128.69" y="-193.32" font-family="Times,serif" font-size="14.00">qt main</text>
</a>
</g>
</g>
<!-- qt&#45;main&#45;&gt;qgis -->
<g id="edge15" class="edge">
<title>qt&#45;main&#45;&gt;qgis</title>
<path fill="none" stroke="black" d="M151.91,-181.81C167.73,-171.46 188.83,-157.66 205.89,-146.49"/>
<polygon fill="black" stroke="black" points="207.68,-149.5 214.14,-141.1 203.85,-143.65 207.68,-149.5"/>
</g>
<!-- qt&#45;main&#45;&gt;rstudio -->
<g id="edge16" class="edge">
<title>qt&#45;main&#45;&gt;rstudio</title>
<path fill="none" stroke="black" d="M121.52,-179.7C118.4,-172.15 114.65,-163.12 111.16,-154.68"/>
<polygon fill="black" stroke="black" points="114.42,-153.4 107.36,-145.5 107.95,-156.08 114.42,-153.4"/>
</g>
<!-- psycopg2&#45;yugabytedb -->
<g id="node20" class="node">
<title>psycopg2&#45;yugabytedb</title>
<g id="a_node20"><a xlink:href="https://github.com/conda-forge/psycopg2-yugabytedb-feedstock" xlink:title="psycopg2 yugabytedb">
<ellipse fill="#35b779" stroke="black" cx="797.02" cy="-18" rx="120.65" ry="18"/>
<text text-anchor="middle" x="797.02" y="-13.32" font-family="Times,serif" font-size="14.00">psycopg2 yugabytedb</text>
</a>
</g>
</g>
<!-- arrow&#45;adbc&#45;split&#45;&gt;psycopg2&#45;yugabytedb -->
</g>
</svg>
