<?xml version="1.0" encoding="UTF-8" standalone="no"?>
<!DOCTYPE svg PUBLIC "-//W3C//DTD SVG 1.1//EN"
 "http://www.w3.org/Graphics/SVG/1.1/DTD/svg11.dtd">
<!-- Generated by graphviz version 12.0.0 (20240803.0821)
 -->
<!-- Pages: 1 -->
<svg width="2040pt" height="1528pt"
 viewBox="0.00 0.00 2039.63 1528.00" xmlns="http://www.w3.org/2000/svg" xmlns:xlink="http://www.w3.org/1999/xlink">
<g id="graph0" class="graph" transform="scale(1 1) rotate(0) translate(4 1524)">
<polygon fill="white" stroke="none" points="-4,4 -4,-1524 2035.63,-1524 2035.63,4 -4,4"/>
<!-- arrow&#45;cpp -->
<g id="node1" class="node">
<title>arrow&#45;cpp</title>
<g id="a_node1"><a xlink:href="https://github.com/conda-forge/arrow-cpp-feedstock" xlink:title="arrow cpp">
<ellipse fill="#fde725" stroke="black" cx="169.84" cy="-1214" rx="61.73" ry="18"/>
<text text-anchor="middle" x="169.84" y="-1209.32" font-family="Times,serif" font-size="14.00">arrow cpp</text>
</a>
</g>
</g>
<!-- datafusion -->
<g id="node2" class="node">
<title>datafusion</title>
<g id="a_node2"><a xlink:href="https://github.com/conda-forge/datafusion-feedstock" xlink:title="datafusion">
<ellipse fill="#fde725" stroke="black" cx="63.84" cy="-1142" rx="63.84" ry="18"/>
<text text-anchor="middle" x="63.84" y="-1137.33" font-family="Times,serif" font-size="14.00">datafusion</text>
</a>
</g>
</g>
<!-- arrow&#45;cpp&#45;&gt;datafusion -->
<g id="edge1" class="edge">
<title>arrow&#45;cpp&#45;&gt;datafusion</title>
<path fill="none" stroke="black" d="M145.78,-1197.12C131.52,-1187.7 113.22,-1175.61 97.53,-1165.25"/>
<polygon fill="black" stroke="black" points="99.7,-1162.49 89.42,-1159.9 95.84,-1168.33 99.7,-1162.49"/>
</g>
<!-- arcticdb -->
<g id="node3" class="node">
<title>arcticdb</title>
<g id="a_node3"><a xlink:href="https://github.com/conda-forge/arcticdb-feedstock" xlink:title="arcticdb">
<ellipse fill="#fde725" stroke="black" cx="148.84" cy="-1070" rx="52.26" ry="18"/>
<text text-anchor="middle" x="148.84" y="-1065.33" font-family="Times,serif" font-size="14.00">arcticdb</text>
</a>
</g>
</g>
<!-- arrow&#45;cpp&#45;&gt;arcticdb -->
<g id="edge2" class="edge">
<title>arrow&#45;cpp&#45;&gt;arcticdb</title>
<path fill="none" stroke="black" d="M167.26,-1195.59C163.71,-1171.61 157.29,-1128.14 153.04,-1099.42"/>
<polygon fill="black" stroke="black" points="156.51,-1098.99 151.59,-1089.61 149.59,-1100.01 156.51,-1098.99"/>
</g>
<!-- csp -->
<g id="node4" class="node">
<title>csp</title>
<g id="a_node4"><a xlink:href="https://github.com/conda-forge/csp-feedstock" xlink:title="csp">
<ellipse fill="#fde725" stroke="black" cx="228.84" cy="-998" rx="28.06" ry="18"/>
<text text-anchor="middle" x="228.84" y="-993.33" font-family="Times,serif" font-size="14.00">csp</text>
</a>
</g>
</g>
<!-- arrow&#45;cpp&#45;&gt;csp -->
<g id="edge3" class="edge">
<title>arrow&#45;cpp&#45;&gt;csp</title>
<path fill="none" stroke="black" d="M175.95,-1195.77C184.31,-1171.81 199.47,-1126.97 209.84,-1088 215.18,-1067.9 220.05,-1044.94 223.52,-1027.38"/>
<polygon fill="black" stroke="black" points="226.94,-1028.15 225.41,-1017.67 220.07,-1026.82 226.94,-1028.15"/>
</g>
<!-- bazel -->
<g id="node5" class="node">
<title>bazel</title>
<g id="a_node5"><a xlink:href="https://github.com/conda-forge/bazel-feedstock/pull/253" xlink:title="bazel ❎">
<ellipse fill="#31688e" stroke="black" cx="376.17" cy="-738" rx="52.79" ry="18"/>
<text text-anchor="middle" x="376.17" y="-733.33" font-family="Times,serif" font-size="14.00" fill="white">bazel ❎</text>
</a>
</g>
</g>
<!-- mosh -->
<g id="node6" class="node">
<title>mosh</title>
<g id="a_node6"><a xlink:href="https://github.com/conda-forge/mosh-feedstock/pull/42" xlink:title="mosh ✓">
<ellipse fill="#31688e" stroke="black" cx="376.17" cy="-666" rx="45.95" ry="18"/>
<text text-anchor="middle" x="376.17" y="-661.33" font-family="Times,serif" font-size="14.00" fill="white">mosh ✓</text>
</a>
</g>
</g>
<!-- bazel&#45;&gt;mosh -->
<!-- mysql -->
<g id="node7" class="node">
<title>mysql</title>
<g id="a_node7"><a xlink:href="https://github.com/conda-forge/mysql-feedstock/pull/107" xlink:title="mysql ❎">
<ellipse fill="#31688e" stroke="black" cx="376.17" cy="-594" rx="56.47" ry="18"/>
<text text-anchor="middle" x="376.17" y="-589.33" font-family="Times,serif" font-size="14.00" fill="white">mysql ❎</text>
</a>
</g>
</g>
<!-- mosh&#45;&gt;mysql -->
<!-- onnx -->
<g id="node8" class="node">
<title>onnx</title>
<g id="a_node8"><a xlink:href="https://github.com/conda-forge/onnx-feedstock/pull/125" xlink:title="onnx ❎">
<ellipse fill="#31688e" stroke="black" cx="376.17" cy="-522" rx="50.68" ry="18"/>
<text text-anchor="middle" x="376.17" y="-517.33" font-family="Times,serif" font-size="14.00" fill="white">onnx ❎</text>
</a>
</g>
</g>
<!-- mysql&#45;&gt;onnx -->
<!-- paraview -->
<g id="node9" class="node">
<title>paraview</title>
<g id="a_node9"><a xlink:href="https://github.com/conda-forge/paraview-feedstock/pull/269" xlink:title="paraview ❎">
<ellipse fill="#31688e" stroke="black" cx="376.17" cy="-450" rx="72.25" ry="18"/>
<text text-anchor="middle" x="376.17" y="-445.32" font-family="Times,serif" font-size="14.00" fill="white">paraview ❎</text>
</a>
</g>
</g>
<!-- onnx&#45;&gt;paraview -->
<!-- qgis -->
<g id="node14" class="node">
<title>qgis</title>
<g id="a_node14"><a xlink:href="https://github.com/conda-forge/qgis-feedstock/pull/495" xlink:title="qgis ❎">
<ellipse fill="#31688e" stroke="black" cx="376.17" cy="-378" rx="47.53" ry="18"/>
<text text-anchor="middle" x="376.17" y="-373.32" font-family="Times,serif" font-size="14.00" fill="white">qgis ❎</text>
</a>
</g>
</g>
<!-- paraview&#45;&gt;qgis -->
<!-- opencv -->
<g id="node10" class="node">
<title>opencv</title>
<g id="a_node10"><a xlink:href="https://github.com/conda-forge/opencv-feedstock" xlink:title="opencv">
<ellipse fill="#fde725" stroke="black" cx="1779.39" cy="-1178" rx="46.47" ry="18"/>
<text text-anchor="middle" x="1779.39" y="-1173.32" font-family="Times,serif" font-size="14.00">opencv</text>
</a>
</g>
</g>
<!-- imp -->
<g id="node11" class="node">
<title>imp</title>
<g id="a_node11"><a xlink:href="https://github.com/conda-forge/imp-feedstock" xlink:title="imp">
<ellipse fill="#fde725" stroke="black" cx="1721.39" cy="-1106" rx="30.16" ry="18"/>
<text text-anchor="middle" x="1721.39" y="-1101.33" font-family="Times,serif" font-size="14.00">imp</text>
</a>
</g>
</g>
<!-- opencv&#45;&gt;imp -->
<g id="edge8" class="edge">
<title>opencv&#45;&gt;imp</title>
<path fill="none" stroke="black" d="M1765.65,-1160.41C1758.44,-1151.71 1749.47,-1140.89 1741.5,-1131.26"/>
<polygon fill="black" stroke="black" points="1744.29,-1129.14 1735.21,-1123.68 1738.9,-1133.61 1744.29,-1129.14"/>
</g>
<!-- gazebo&#45;yarp&#45;plugins -->
<g id="node12" class="node">
<title>gazebo&#45;yarp&#45;plugins</title>
<g id="a_node12"><a xlink:href="https://github.com/conda-forge/gazebo-yarp-plugins-feedstock" xlink:title="gazebo yarp plugins">
<ellipse fill="#fde725" stroke="black" cx="1919.39" cy="-1106" rx="112.24" ry="18"/>
<text text-anchor="middle" x="1919.39" y="-1101.33" font-family="Times,serif" font-size="14.00">gazebo yarp plugins</text>
</a>
</g>
</g>
<!-- opencv&#45;&gt;gazebo&#45;yarp&#45;plugins -->
<g id="edge9" class="edge">
<title>opencv&#45;&gt;gazebo&#45;yarp&#45;plugins</title>
<path fill="none" stroke="black" d="M1807.05,-1163.17C1826.75,-1153.32 1853.61,-1139.89 1876.12,-1128.64"/>
<polygon fill="black" stroke="black" points="1877.39,-1131.92 1884.77,-1124.31 1874.26,-1125.66 1877.39,-1131.92"/>
</g>
<!-- nvidia&#45;dali&#45;python -->
<g id="node13" class="node">
<title>nvidia&#45;dali&#45;python</title>
<g id="a_node13"><a xlink:href="https://github.com/conda-forge/nvidia-dali-python-feedstock" xlink:title="nvidia dali python">
<ellipse fill="#fde725" stroke="black" cx="1779.39" cy="-1034" rx="101.19" ry="18"/>
<text text-anchor="middle" x="1779.39" y="-1029.33" font-family="Times,serif" font-size="14.00">nvidia dali python</text>
</a>
</g>
</g>
<!-- opencv&#45;&gt;nvidia&#45;dali&#45;python -->
<g id="edge10" class="edge">
<title>opencv&#45;&gt;nvidia&#45;dali&#45;python</title>
<path fill="none" stroke="black" d="M1779.39,-1159.59C1779.39,-1135.61 1779.39,-1092.14 1779.39,-1063.42"/>
<polygon fill="black" stroke="black" points="1782.89,-1063.62 1779.39,-1053.62 1775.89,-1063.62 1782.89,-1063.62"/>
</g>
<!-- tensorflow -->
<g id="node15" class="node">
<title>tensorflow</title>
<g id="a_node15"><a xlink:href="https://github.com/conda-forge/tensorflow-feedstock/pull/411" xlink:title="tensorflow ❎">
<ellipse fill="#31688e" stroke="black" cx="376.17" cy="-306" rx="79.09" ry="18"/>
<text text-anchor="middle" x="376.17" y="-301.32" font-family="Times,serif" font-size="14.00" fill="white">tensorflow ❎</text>
</a>
</g>
</g>
<!-- qgis&#45;&gt;tensorflow -->
<!-- pytorch&#45;cpu -->
<g id="node16" class="node">
<title>pytorch&#45;cpu</title>
<g id="a_node16"><a xlink:href="https://github.com/conda-forge/pytorch-cpu-feedstock/pull/310" xlink:title="pytorch cpu ❎">
<ellipse fill="#31688e" stroke="black" cx="376.17" cy="-234" rx="85.93" ry="18"/>
<text text-anchor="middle" x="376.17" y="-229.32" font-family="Times,serif" font-size="14.00" fill="white">pytorch cpu ❎</text>
</a>
</g>
</g>
<!-- tensorflow&#45;&gt;pytorch&#45;cpu -->
<!-- go&#45;cockroach -->
<g id="node17" class="node">
<title>go&#45;cockroach</title>
<g id="a_node17"><a xlink:href="https://github.com/conda-forge/go-cockroach-feedstock/pull/30" xlink:title="go cockroach ❎">
<ellipse fill="#31688e" stroke="black" cx="376.17" cy="-162" rx="91.72" ry="18"/>
<text text-anchor="middle" x="376.17" y="-157.32" font-family="Times,serif" font-size="14.00" fill="white">go cockroach ❎</text>
</a>
</g>
</g>
<!-- pytorch&#45;cpu&#45;&gt;go&#45;cockroach -->
<!-- tomviz -->
<g id="node21" class="node">
<title>tomviz</title>
<g id="a_node21"><a xlink:href="https://github.com/conda-forge/tomviz-feedstock/pull/70" xlink:title="tomviz ❎">
<ellipse fill="#31688e" stroke="black" cx="376.17" cy="-90" rx="60.15" ry="18"/>
<text text-anchor="middle" x="376.17" y="-85.33" font-family="Times,serif" font-size="14.00" fill="white">tomviz ❎</text>
</a>
</g>
</g>
<!-- go&#45;cockroach&#45;&gt;tomviz -->
<!-- orc -->
<g id="node18" class="node">
<title>orc</title>
<g id="a_node18"><a xlink:href="https://github.com/conda-forge/orc-feedstock/pull/82" xlink:title="orc ✓">
<ellipse fill="#31688e" stroke="black" cx="169.84" cy="-1286" rx="34.9" ry="18"/>
<text text-anchor="middle" x="169.84" y="-1281.32" font-family="Times,serif" font-size="14.00" fill="white">orc ✓</text>
</a>
</g>
</g>
<!-- orc&#45;&gt;arrow&#45;cpp -->
<g id="edge15" class="edge">
<title>orc&#45;&gt;arrow&#45;cpp</title>
<path fill="none" stroke="black" d="M169.84,-1267.7C169.84,-1260.41 169.84,-1251.73 169.84,-1243.54"/>
<polygon fill="black" stroke="black" points="173.34,-1243.62 169.84,-1233.62 166.34,-1243.62 173.34,-1243.62"/>
</g>
<!-- gazebo -->
<g id="node19" class="node">
<title>gazebo</title>
<g id="a_node19"><a xlink:href="https://github.com/conda-forge/gazebo-feedstock/pull/236" xlink:title="gazebo ❎">
<ellipse fill="#31688e" stroke="black" cx="1919.39" cy="-1178" rx="61.73" ry="18"/>
<text text-anchor="middle" x="1919.39" y="-1173.32" font-family="Times,serif" font-size="14.00" fill="white">gazebo ❎</text>
</a>
</g>
</g>
<!-- gazebo&#45;&gt;gazebo&#45;yarp&#45;plugins -->
<g id="edge16" class="edge">
<title>gazebo&#45;&gt;gazebo&#45;yarp&#45;plugins</title>
<path fill="none" stroke="black" d="M1919.39,-1159.7C1919.39,-1152.41 1919.39,-1143.73 1919.39,-1135.54"/>
<polygon fill="black" stroke="black" points="1922.89,-1135.62 1919.39,-1125.62 1915.89,-1135.62 1922.89,-1135.62"/>
</g>
<!-- google&#45;cloud&#45;cpp -->
<g id="node20" class="node">
<title>google&#45;cloud&#45;cpp</title>
<g id="a_node20"><a xlink:href="https://github.com/conda-forge/google-cloud-cpp-feedstock" xlink:title="google cloud cpp">
<ellipse fill="#fde725" stroke="black" cx="402.84" cy="-998" rx="95.4" ry="18"/>
<text text-anchor="middle" x="402.84" y="-993.33" font-family="Times,serif" font-size="14.00">google cloud cpp</text>
</a>
</g>
</g>
<!-- protozfits -->
<g id="node25" class="node">
<title>protozfits</title>
<g id="a_node25"><a xlink:href="https://github.com/conda-forge/protozfits-feedstock/pull/46" xlink:title="protozfits ✓">
<ellipse fill="#31688e" stroke="black" cx="376.17" cy="-18" rx="66.99" ry="18"/>
<text text-anchor="middle" x="376.17" y="-13.32" font-family="Times,serif" font-size="14.00" fill="white">protozfits ✓</text>
</a>
</g>
</g>
<!-- tomviz&#45;&gt;protozfits -->
<!-- sentencepiece -->
<g id="node22" class="node">
<title>sentencepiece</title>
<g id="a_node22"><a xlink:href="https://github.com/conda-forge/sentencepiece-feedstock/pull/62" xlink:title="sentencepiece ❎">
<ellipse fill="#31688e" stroke="black" cx="1480.39" cy="-1250" rx="97.51" ry="18"/>
<text text-anchor="middle" x="1480.39" y="-1245.32" font-family="Times,serif" font-size="14.00" fill="white">sentencepiece ❎</text>
</a>
</g>
</g>
<!-- openvino&#45;tokenizers -->
<g id="node23" class="node">
<title>openvino&#45;tokenizers</title>
<g id="a_node23"><a xlink:href="https://github.com/conda-forge/openvino-tokenizers-feedstock" xlink:title="openvino tokenizers">
<ellipse fill="#fde725" stroke="black" cx="1603.39" cy="-1178" rx="111.71" ry="18"/>
<text text-anchor="middle" x="1603.39" y="-1173.32" font-family="Times,serif" font-size="14.00">openvino tokenizers</text>
</a>
</g>
</g>
<!-- sentencepiece&#45;&gt;openvino&#45;tokenizers -->
<g id="edge18" class="edge">
<title>sentencepiece&#45;&gt;openvino&#45;tokenizers</title>
<path fill="none" stroke="black" d="M1509.54,-1232.41C1525.97,-1223.06 1546.69,-1211.27 1564.49,-1201.14"/>
<polygon fill="black" stroke="black" points="1565.75,-1204.45 1572.71,-1196.46 1562.29,-1198.37 1565.75,-1204.45"/>
</g>
<!-- curated&#45;tokenizers -->
<g id="node24" class="node">
<title>curated&#45;tokenizers</title>
<g id="a_node24"><a xlink:href="https://github.com/conda-forge/curated-tokenizers-feedstock" xlink:title="curated tokenizers">
<ellipse fill="#fde725" stroke="black" cx="1368.39" cy="-1178" rx="104.87" ry="18"/>
<text text-anchor="middle" x="1368.39" y="-1173.32" font-family="Times,serif" font-size="14.00">curated tokenizers</text>
</a>
</g>
</g>
<!-- sentencepiece&#45;&gt;curated&#45;tokenizers -->
<g id="edge19" class="edge">
<title>sentencepiece&#45;&gt;curated&#45;tokenizers</title>
<path fill="none" stroke="black" d="M1453.57,-1232.23C1438.99,-1223.12 1420.75,-1211.72 1404.9,-1201.82"/>
<polygon fill="black" stroke="black" points="1407.01,-1199.01 1396.67,-1196.67 1403.3,-1204.94 1407.01,-1199.01"/>
</g>
<!-- libignition&#45;launch -->
<g id="node26" class="node">
<title>libignition&#45;launch</title>
<g id="a_node26"><a xlink:href="https://github.com/conda-forge/libignition-launch-feedstock/pull/32" xlink:title="libignition launch ❎">
<ellipse fill="#31688e" stroke="black" cx="1007.93" cy="-1502" rx="113.82" ry="18"/>
<text text-anchor="middle" x="1007.93" y="-1497.32" font-family="Times,serif" font-size="14.00" fill="white">libignition launch ❎</text>
</a>
</g>
</g>
<!-- or&#45;tools -->
<g id="node27" class="node">
<title>or&#45;tools</title>
<g id="a_node27"><a xlink:href="https://github.com/conda-forge/or-tools-feedstock/pull/64" xlink:title="or tools ❎">
<ellipse fill="#31688e" stroke="black" cx="1007.93" cy="-1430" rx="64.36" ry="18"/>
<text text-anchor="middle" x="1007.93" y="-1425.32" font-family="Times,serif" font-size="14.00" fill="white">or tools ❎</text>
</a>
</g>
</g>
<!-- libignition&#45;launch&#45;&gt;or&#45;tools -->
<!-- cpp&#45;opentelemetry&#45;sdk -->
<g id="node28" class="node">
<title>cpp&#45;opentelemetry&#45;sdk</title>
<g id="a_node28"><a xlink:href="https://github.com/conda-forge/cpp-opentelemetry-sdk-feedstock/pull/74" xlink:title="cpp opentelemetry sdk ❎">
<ellipse fill="#31688e" stroke="black" cx="1007.93" cy="-1358" rx="141.17" ry="18"/>
<text text-anchor="middle" x="1007.93" y="-1353.32" font-family="Times,serif" font-size="14.00" fill="white">cpp opentelemetry sdk ❎</text>
</a>
</g>
</g>
<!-- or&#45;tools&#45;&gt;cpp&#45;opentelemetry&#45;sdk -->
<!-- xilinx&#45;runtime -->
<g id="node29" class="node">
<title>xilinx&#45;runtime</title>
<g id="a_node29"><a xlink:href="https://github.com/conda-forge/xilinx-runtime-feedstock/pull/39" xlink:title="xilinx runtime ❎">
<ellipse fill="#31688e" stroke="black" cx="1007.93" cy="-1286" rx="96.98" ry="18"/>
<text text-anchor="middle" x="1007.93" y="-1281.32" font-family="Times,serif" font-size="14.00" fill="white">xilinx runtime ❎</text>
</a>
</g>
</g>
<!-- cpp&#45;opentelemetry&#45;sdk&#45;&gt;xilinx&#45;runtime -->
<!-- libpulsar -->
<g id="node30" class="node">
<title>libpulsar</title>
<g id="a_node30"><a xlink:href="https://github.com/conda-forge/libpulsar-feedstock/pull/24" xlink:title="libpulsar ✓">
<ellipse fill="#31688e" stroke="black" cx="1007.93" cy="-1214" rx="63.31" ry="18"/>
<text text-anchor="middle" x="1007.93" y="-1209.32" font-family="Times,serif" font-size="14.00" fill="white">libpulsar ✓</text>
</a>
</g>
</g>
<!-- xilinx&#45;runtime&#45;&gt;libpulsar -->
<!-- gnss&#45;sdr -->
<g id="node38" class="node">
<title>gnss&#45;sdr</title>
<g id="a_node38"><a xlink:href="https://github.com/conda-forge/gnss-sdr-feedstock/pull/32" xlink:title="gnss sdr ✓">
<ellipse fill="#31688e" stroke="black" cx="1007.93" cy="-1142" rx="61.73" ry="18"/>
<text text-anchor="middle" x="1007.93" y="-1137.33" font-family="Times,serif" font-size="14.00" fill="white">gnss sdr ✓</text>
</a>
</g>
</g>
<!-- libpulsar&#45;&gt;gnss&#45;sdr -->
<!-- gz&#45;transport -->
<g id="node31" class="node">
<title>gz&#45;transport</title>
<g id="a_node31"><a xlink:href="https://github.com/conda-forge/gz-transport-feedstock/pull/52" xlink:title="gz transport ❎">
<ellipse fill="#31688e" stroke="black" cx="1144.85" cy="-486" rx="88.56" ry="18"/>
<text text-anchor="middle" x="1144.85" y="-481.32" font-family="Times,serif" font-size="14.00" fill="white">gz transport ❎</text>
</a>
</g>
</g>
<!-- gz&#45;gui -->
<g id="node32" class="node">
<title>gz&#45;gui</title>
<g id="a_node32"><a xlink:href="https://github.com/conda-forge/gz-gui-feedstock" xlink:title="gz gui">
<ellipse fill="#fde725" stroke="black" cx="1179.85" cy="-414" rx="41.74" ry="18"/>
<text text-anchor="middle" x="1179.85" y="-409.32" font-family="Times,serif" font-size="14.00">gz gui</text>
</a>
</g>
</g>
<!-- gz&#45;transport&#45;&gt;gz&#45;gui -->
<g id="edge25" class="edge">
<title>gz&#45;transport&#45;&gt;gz&#45;gui</title>
<path fill="none" stroke="black" d="M1153.5,-467.7C1157.31,-460.07 1161.89,-450.92 1166.15,-442.4"/>
<polygon fill="black" stroke="black" points="1169.28,-443.97 1170.62,-433.46 1163.02,-440.84 1169.28,-443.97"/>
</g>
<!-- gz&#45;sensors -->
<g id="node33" class="node">
<title>gz&#45;sensors</title>
<g id="a_node33"><a xlink:href="https://github.com/conda-forge/gz-sensors-feedstock" xlink:title="gz sensors">
<ellipse fill="#fde725" stroke="black" cx="1017.85" cy="-414" rx="64.36" ry="18"/>
<text text-anchor="middle" x="1017.85" y="-409.32" font-family="Times,serif" font-size="14.00">gz sensors</text>
</a>
</g>
</g>
<!-- gz&#45;transport&#45;&gt;gz&#45;sensors -->
<g id="edge26" class="edge">
<title>gz&#45;transport&#45;&gt;gz&#45;sensors</title>
<path fill="none" stroke="black" d="M1115.07,-468.59C1097.5,-458.9 1075.08,-446.55 1056.2,-436.14"/>
<polygon fill="black" stroke="black" points="1057.9,-433.08 1047.46,-431.32 1054.52,-439.21 1057.9,-433.08"/>
</g>
<!-- gz&#45;sim -->
<g id="node34" class="node">
<title>gz&#45;sim</title>
<g id="a_node34"><a xlink:href="https://github.com/conda-forge/gz-sim-feedstock" xlink:title="gz sim">
<ellipse fill="#fde725" stroke="black" cx="1108.85" cy="-342" rx="43.84" ry="18"/>
<text text-anchor="middle" x="1108.85" y="-337.32" font-family="Times,serif" font-size="14.00">gz sim</text>
</a>
</g>
</g>
<!-- gz&#45;transport&#45;&gt;gz&#45;sim -->
<g id="edge27" class="edge">
<title>gz&#45;transport&#45;&gt;gz&#45;sim</title>
<path fill="none" stroke="black" d="M1139.34,-467.9C1136.1,-457.56 1132.03,-444.08 1128.85,-432 1123.55,-411.84 1118.41,-388.88 1114.67,-371.33"/>
<polygon fill="black" stroke="black" points="1118.11,-370.7 1112.63,-361.63 1111.26,-372.14 1118.11,-370.7"/>
</g>
<!-- gz&#45;launch -->
<g id="node35" class="node">
<title>gz&#45;launch</title>
<g id="a_node35"><a xlink:href="https://github.com/conda-forge/gz-launch-feedstock" xlink:title="gz launch">
<ellipse fill="#fde725" stroke="black" cx="1180.85" cy="-270" rx="59.1" ry="18"/>
<text text-anchor="middle" x="1180.85" y="-265.32" font-family="Times,serif" font-size="14.00">gz launch</text>
</a>
</g>
</g>
<!-- gz&#45;transport&#45;&gt;gz&#45;launch -->
<g id="edge28" class="edge">
<title>gz&#45;transport&#45;&gt;gz&#45;launch</title>
<path fill="none" stroke="black" d="M1186.78,-469.84C1203.61,-461.44 1221.27,-449.15 1230.85,-432 1255.52,-387.81 1224.05,-329.85 1201.02,-296.9"/>
<polygon fill="black" stroke="black" points="1204.1,-295.18 1195.4,-289.13 1198.43,-299.28 1204.1,-295.18"/>
</g>
<!-- gz&#45;gui&#45;&gt;gz&#45;sim -->
<g id="edge29" class="edge">
<title>gz&#45;gui&#45;&gt;gz&#45;sim</title>
<path fill="none" stroke="black" d="M1163.74,-397.12C1154.66,-388.17 1143.14,-376.81 1133,-366.81"/>
<polygon fill="black" stroke="black" points="1135.55,-364.41 1125.97,-359.88 1130.64,-369.4 1135.55,-364.41"/>
</g>
<!-- gz&#45;gui&#45;&gt;gz&#45;launch -->
<g id="edge30" class="edge">
<title>gz&#45;gui&#45;&gt;gz&#45;launch</title>
<path fill="none" stroke="black" d="M1179.97,-395.59C1180.14,-371.61 1180.45,-328.14 1180.65,-299.42"/>
<polygon fill="black" stroke="black" points="1184.15,-299.65 1180.72,-289.62 1177.15,-299.6 1184.15,-299.65"/>
</g>
<!-- gz&#45;sensors&#45;&gt;gz&#45;sim -->
<g id="edge31" class="edge">
<title>gz&#45;sensors&#45;&gt;gz&#45;sim</title>
<path fill="none" stroke="black" d="M1038.95,-396.76C1051.15,-387.38 1066.68,-375.44 1079.99,-365.2"/>
<polygon fill="black" stroke="black" points="1081.8,-368.22 1087.59,-359.35 1077.53,-362.67 1081.8,-368.22"/>
</g>
<!-- gz&#45;sim&#45;&gt;gz&#45;launch -->
<g id="edge32" class="edge">
<title>gz&#45;sim&#45;&gt;gz&#45;launch</title>
<path fill="none" stroke="black" d="M1125.19,-325.12C1134.2,-316.36 1145.58,-305.29 1155.7,-295.45"/>
<polygon fill="black" stroke="black" points="1158.01,-298.09 1162.74,-288.61 1153.13,-293.07 1158.01,-298.09"/>
</g>
<!-- gz&#45;fuel&#45;tools -->
<g id="node36" class="node">
<title>gz&#45;fuel&#45;tools</title>
<g id="a_node36"><a xlink:href="https://github.com/conda-forge/gz-fuel-tools-feedstock/pull/45" xlink:title="gz fuel tools ❎">
<ellipse fill="#31688e" stroke="black" cx="847.85" cy="-414" rx="87.51" ry="18"/>
<text text-anchor="middle" x="847.85" y="-409.32" font-family="Times,serif" font-size="14.00" fill="white">gz fuel tools ❎</text>
</a>
</g>
</g>
<!-- gz&#45;fuel&#45;tools&#45;&gt;gz&#45;sim -->
<g id="edge33" class="edge">
<title>gz&#45;fuel&#45;tools&#45;&gt;gz&#45;sim</title>
<path fill="none" stroke="black" d="M899.73,-399.09C947.01,-386.41 1016.24,-367.84 1061.91,-355.59"/>
<polygon fill="black" stroke="black" points="1062.77,-358.98 1071.52,-353.01 1060.96,-352.22 1062.77,-358.98"/>
</g>
<!-- openvino -->
<g id="node37" class="node">
<title>openvino</title>
<g id="a_node37"><a xlink:href="https://github.com/conda-forge/openvino-feedstock/pull/117" xlink:title="openvino ❎">
<ellipse fill="#31688e" stroke="black" cx="1691.39" cy="-1250" rx="71.73" ry="18"/>
<text text-anchor="middle" x="1691.39" y="-1245.32" font-family="Times,serif" font-size="14.00" fill="white">openvino ❎</text>
</a>
</g>
</g>
<!-- openvino&#45;&gt;opencv -->
<g id="edge34" class="edge">
<title>openvino&#45;&gt;opencv</title>
<path fill="none" stroke="black" d="M1712.25,-1232.41C1723.78,-1223.24 1738.28,-1211.7 1750.85,-1201.7"/>
<polygon fill="black" stroke="black" points="1752.76,-1204.66 1758.41,-1195.69 1748.41,-1199.18 1752.76,-1204.66"/>
</g>
<!-- openvino&#45;&gt;openvino&#45;tokenizers -->
<g id="edge35" class="edge">
<title>openvino&#45;&gt;openvino&#45;tokenizers</title>
<path fill="none" stroke="black" d="M1670.54,-1232.41C1659.52,-1223.65 1645.8,-1212.73 1633.64,-1203.06"/>
<polygon fill="black" stroke="black" points="1635.9,-1200.38 1625.9,-1196.9 1631.54,-1205.86 1635.9,-1200.38"/>
</g>
<!-- tensorstore -->
<g id="node39" class="node">
<title>tensorstore</title>
<g id="a_node39"><a xlink:href="https://github.com/conda-forge/tensorstore-feedstock/pull/52" xlink:title="tensorstore ❎">
<ellipse fill="#31688e" stroke="black" cx="1007.93" cy="-1070" rx="84.35" ry="18"/>
<text text-anchor="middle" x="1007.93" y="-1065.33" font-family="Times,serif" font-size="14.00" fill="white">tensorstore ❎</text>
</a>
</g>
</g>
<!-- gnss&#45;sdr&#45;&gt;tensorstore -->
<!-- gcld3 -->
<g id="node40" class="node">
<title>gcld3</title>
<g id="a_node40"><a xlink:href="https://github.com/conda-forge/gcld3-feedstock/pull/15" xlink:title="gcld3 ✓">
<ellipse fill="#31688e" stroke="black" cx="1007.93" cy="-998" rx="46.47" ry="18"/>
<text text-anchor="middle" x="1007.93" y="-993.33" font-family="Times,serif" font-size="14.00" fill="white">gcld3 ✓</text>
</a>
</g>
</g>
<!-- tensorstore&#45;&gt;gcld3 -->
<!-- bloaty -->
<g id="node41" class="node">
<title>bloaty</title>
<g id="a_node41"><a xlink:href="https://github.com/conda-forge/bloaty-feedstock/pull/6" xlink:title="bloaty ✓">
<ellipse fill="#31688e" stroke="black" cx="1007.93" cy="-926" rx="50.16" ry="18"/>
<text text-anchor="middle" x="1007.93" y="-921.33" font-family="Times,serif" font-size="14.00" fill="white">bloaty ✓</text>
</a>
</g>
</g>
<!-- gcld3&#45;&gt;bloaty -->
<!-- gz&#45;sim&#45;yarp&#45;plugins -->
<g id="node46" class="node">
<title>gz&#45;sim&#45;yarp&#45;plugins</title>
<g id="a_node46"><a xlink:href="https://github.com/conda-forge/gz-sim-yarp-plugins-feedstock/pull/16" xlink:title="gz sim yarp plugins ❎">
<ellipse fill="#31688e" stroke="black" cx="1007.93" cy="-854" rx="124.86" ry="18"/>
<text text-anchor="middle" x="1007.93" y="-849.33" font-family="Times,serif" font-size="14.00" fill="white">gz sim yarp plugins ❎</text>
</a>
</g>
</g>
<!-- bloaty&#45;&gt;gz&#45;sim&#45;yarp&#45;plugins -->
<!-- google&#45;cloud&#45;cpp&#45;core -->
<g id="node42" class="node">
<title>google&#45;cloud&#45;cpp&#45;core</title>
<g id="a_node42"><a xlink:href="https://github.com/conda-forge/google-cloud-cpp-core-feedstock/pull/30" xlink:title="google cloud cpp core ❎">
<ellipse fill="#31688e" stroke="black" cx="436.84" cy="-1286" rx="135.39" ry="18"/>
<text text-anchor="middle" x="436.84" y="-1281.32" font-family="Times,serif" font-size="14.00" fill="white">google cloud cpp core ❎</text>
</a>
</g>
</g>
<!-- google&#45;cloud&#45;cpp&#45;core&#45;&gt;arrow&#45;cpp -->
<g id="edge40" class="edge">
<title>google&#45;cloud&#45;cpp&#45;core&#45;&gt;arrow&#45;cpp</title>
<path fill="none" stroke="black" d="M377.25,-1269.38C331.91,-1257.49 269.96,-1241.25 225.59,-1229.62"/>
<polygon fill="black" stroke="black" points="226.74,-1226.3 216.18,-1227.15 224.96,-1233.07 226.74,-1226.3"/>
</g>
<!-- google&#45;cloud&#45;cpp&#45;core&#45;&gt;google&#45;cloud&#45;cpp -->
<g id="edge41" class="edge">
<title>google&#45;cloud&#45;cpp&#45;core&#45;&gt;google&#45;cloud&#45;cpp</title>
<path fill="none" stroke="black" d="M345.76,-1272.39C322.49,-1264.58 300.05,-1252.06 285.84,-1232 236.06,-1161.77 324.79,-1067.31 373.72,-1023.37"/>
<polygon fill="black" stroke="black" points="376.03,-1026.01 381.22,-1016.77 371.4,-1020.75 376.03,-1026.01"/>
</g>
<!-- google&#45;cloud&#45;cpp&#45;compute -->
<g id="node43" class="node">
<title>google&#45;cloud&#45;cpp&#45;compute</title>
<g id="a_node43"><a xlink:href="https://github.com/conda-forge/google-cloud-cpp-compute-feedstock" xlink:title="google cloud cpp compute">
<ellipse fill="#fde725" stroke="black" cx="436.84" cy="-1214" rx="141.7" ry="18"/>
<text text-anchor="middle" x="436.84" y="-1209.32" font-family="Times,serif" font-size="14.00">google cloud cpp compute</text>
</a>
</g>
</g>
<!-- google&#45;cloud&#45;cpp&#45;core&#45;&gt;google&#45;cloud&#45;cpp&#45;compute -->
<g id="edge42" class="edge">
<title>google&#45;cloud&#45;cpp&#45;core&#45;&gt;google&#45;cloud&#45;cpp&#45;compute</title>
<path fill="none" stroke="black" d="M436.84,-1267.7C436.84,-1260.41 436.84,-1251.73 436.84,-1243.54"/>
<polygon fill="black" stroke="black" points="440.34,-1243.62 436.84,-1233.62 433.34,-1243.62 440.34,-1243.62"/>
</g>
<!-- google&#45;cloud&#45;cpp&#45;bigquery -->
<g id="node44" class="node">
<title>google&#45;cloud&#45;cpp&#45;bigquery</title>
<g id="a_node44"><a xlink:href="https://github.com/conda-forge/google-cloud-cpp-bigquery-feedstock" xlink:title="google cloud cpp bigquery">
<ellipse fill="#fde725" stroke="black" cx="524.84" cy="-1142" rx="143.28" ry="18"/>
<text text-anchor="middle" x="524.84" y="-1137.33" font-family="Times,serif" font-size="14.00">google cloud cpp bigquery</text>
</a>
</g>
</g>
<!-- google&#45;cloud&#45;cpp&#45;core&#45;&gt;google&#45;cloud&#45;cpp&#45;bigquery -->
<g id="edge43" class="edge">
<title>google&#45;cloud&#45;cpp&#45;core&#45;&gt;google&#45;cloud&#45;cpp&#45;bigquery</title>
<path fill="none" stroke="black" d="M527.91,-1272.39C551.18,-1264.58 573.62,-1252.06 587.84,-1232 597.09,-1218.95 594.59,-1210.51 587.84,-1196 582.52,-1184.59 573.41,-1174.76 563.75,-1166.77"/>
<polygon fill="black" stroke="black" points="566.08,-1164.15 556.01,-1160.88 561.84,-1169.72 566.08,-1164.15"/>
</g>
<!-- google&#45;cloud&#45;cpp&#45;ai -->
<g id="node45" class="node">
<title>google&#45;cloud&#45;cpp&#45;ai</title>
<g id="a_node45"><a xlink:href="https://github.com/conda-forge/google-cloud-cpp-ai-feedstock" xlink:title="google cloud cpp ai">
<ellipse fill="#fde725" stroke="black" cx="644.84" cy="-1070" rx="107.5" ry="18"/>
<text text-anchor="middle" x="644.84" y="-1065.33" font-family="Times,serif" font-size="14.00">google cloud cpp ai</text>
</a>
</g>
</g>
<!-- google&#45;cloud&#45;cpp&#45;core&#45;&gt;google&#45;cloud&#45;cpp&#45;ai -->
<g id="edge44" class="edge">
<title>google&#45;cloud&#45;cpp&#45;core&#45;&gt;google&#45;cloud&#45;cpp&#45;ai</title>
<path fill="none" stroke="black" d="M508.71,-1270.43C539.74,-1262.14 575.55,-1249.77 604.84,-1232 643.52,-1208.52 659.52,-1201.81 676.84,-1160 685.38,-1139.36 675.81,-1115.52 664.96,-1097.71"/>
<polygon fill="black" stroke="black" points="667.98,-1095.94 659.56,-1089.51 662.13,-1099.79 667.98,-1095.94"/>
</g>
<!-- google&#45;cloud&#45;cpp&#45;compute&#45;&gt;google&#45;cloud&#45;cpp -->
<g id="edge45" class="edge">
<title>google&#45;cloud&#45;cpp&#45;compute&#45;&gt;google&#45;cloud&#45;cpp</title>
<path fill="none" stroke="black" d="M406.4,-1196.14C393.53,-1187.23 379.9,-1175.01 372.84,-1160 352.29,-1116.31 372.2,-1059.74 387.93,-1026.61"/>
<polygon fill="black" stroke="black" points="391.06,-1028.19 392.37,-1017.67 384.79,-1025.07 391.06,-1028.19"/>
</g>
<!-- google&#45;cloud&#45;cpp&#45;bigquery&#45;&gt;google&#45;cloud&#45;cpp -->
<g id="edge46" class="edge">
<title>google&#45;cloud&#45;cpp&#45;bigquery&#45;&gt;google&#45;cloud&#45;cpp</title>
<path fill="none" stroke="black" d="M510.12,-1123.87C488.96,-1099.24 449.78,-1053.64 425.07,-1024.88"/>
<polygon fill="black" stroke="black" points="427.76,-1022.64 418.59,-1017.34 422.45,-1027.2 427.76,-1022.64"/>
</g>
<!-- google&#45;cloud&#45;cpp&#45;ai&#45;&gt;google&#45;cloud&#45;cpp -->
<g id="edge47" class="edge">
<title>google&#45;cloud&#45;cpp&#45;ai&#45;&gt;google&#45;cloud&#45;cpp</title>
<path fill="none" stroke="black" d="M592.62,-1053.9C554.9,-1042.99 503.82,-1028.21 464.16,-1016.74"/>
<polygon fill="black" stroke="black" points="465.33,-1013.43 454.75,-1014.02 463.38,-1020.16 465.33,-1013.43"/>
</g>
<!-- bfiocpp -->
<g id="node47" class="node">
<title>bfiocpp</title>
<g id="a_node47"><a xlink:href="https://github.com/conda-forge/bfiocpp-feedstock/pull/12" xlink:title="bfiocpp ✓">
<ellipse fill="#31688e" stroke="black" cx="1007.93" cy="-782" rx="55.42" ry="18"/>
<text text-anchor="middle" x="1007.93" y="-777.33" font-family="Times,serif" font-size="14.00" fill="white">bfiocpp ✓</text>
</a>
</g>
</g>
<!-- gz&#45;sim&#45;yarp&#45;plugins&#45;&gt;bfiocpp -->
<!-- mysqlx&#45;connector&#45;python -->
<g id="node48" class="node">
<title>mysqlx&#45;connector&#45;python</title>
<g id="a_node48"><a xlink:href="https://github.com/conda-forge/mysqlx-connector-python-feedstock/pull/10" xlink:title="mysqlx connector python ✓">
<ellipse fill="#31688e" stroke="black" cx="1647.58" cy="-378" rx="145.38" ry="18"/>
<text text-anchor="middle" x="1647.58" y="-373.32" font-family="Times,serif" font-size="14.00" fill="white">mysqlx connector python ✓</text>
</a>
</g>
</g>
</g>
</svg>
