<?xml version="1.0" encoding="UTF-8" standalone="no"?>
<!DOCTYPE svg PUBLIC "-//W3C//DTD SVG 1.1//EN"
 "http://www.w3.org/Graphics/SVG/1.1/DTD/svg11.dtd">
<!-- Generated by graphviz version 12.0.0 (20240803.0821)
 -->
<!-- Pages: 1 -->
<svg width="1827pt" height="1860pt"
 viewBox="0.00 0.00 1826.80 1860.00" xmlns="http://www.w3.org/2000/svg" xmlns:xlink="http://www.w3.org/1999/xlink">
<g id="graph0" class="graph" transform="scale(1 1) rotate(0) translate(4 1856)">
<polygon fill="white" stroke="none" points="-4,4 -4,-1856 1822.8,-1856 1822.8,4 -4,4"/>
<!-- arrow&#45;cpp -->
<g id="node1" class="node">
<title>arrow&#45;cpp</title>
<g id="a_node1"><a xlink:href="https://github.com/conda-forge/arrow-cpp-feedstock" xlink:title="arrow cpp">
<ellipse fill="#fde725" stroke="black" cx="169.84" cy="-1546" rx="61.73" ry="18"/>
<text text-anchor="middle" x="169.84" y="-1541.33" font-family="Times,serif" font-size="14.00">arrow cpp</text>
</a>
</g>
</g>
<!-- datafusion -->
<g id="node2" class="node">
<title>datafusion</title>
<g id="a_node2"><a xlink:href="https://github.com/conda-forge/datafusion-feedstock" xlink:title="datafusion">
<ellipse fill="#fde725" stroke="black" cx="63.84" cy="-1474" rx="63.84" ry="18"/>
<text text-anchor="middle" x="63.84" y="-1469.33" font-family="Times,serif" font-size="14.00">datafusion</text>
</a>
</g>
</g>
<!-- arrow&#45;cpp&#45;&gt;datafusion -->
<g id="edge1" class="edge">
<title>arrow&#45;cpp&#45;&gt;datafusion</title>
<path fill="none" stroke="black" d="M145.78,-1529.12C131.52,-1519.7 113.22,-1507.61 97.53,-1497.25"/>
<polygon fill="black" stroke="black" points="99.7,-1494.49 89.42,-1491.9 95.84,-1500.33 99.7,-1494.49"/>
</g>
<!-- arcticdb -->
<g id="node3" class="node">
<title>arcticdb</title>
<g id="a_node3"><a xlink:href="https://github.com/conda-forge/arcticdb-feedstock" xlink:title="arcticdb">
<ellipse fill="#fde725" stroke="black" cx="148.84" cy="-1402" rx="52.26" ry="18"/>
<text text-anchor="middle" x="148.84" y="-1397.33" font-family="Times,serif" font-size="14.00">arcticdb</text>
</a>
</g>
</g>
<!-- arrow&#45;cpp&#45;&gt;arcticdb -->
<g id="edge2" class="edge">
<title>arrow&#45;cpp&#45;&gt;arcticdb</title>
<path fill="none" stroke="black" d="M167.26,-1527.59C163.71,-1503.61 157.29,-1460.14 153.04,-1431.42"/>
<polygon fill="black" stroke="black" points="156.51,-1430.99 151.59,-1421.61 149.59,-1432.01 156.51,-1430.99"/>
</g>
<!-- csp -->
<g id="node4" class="node">
<title>csp</title>
<g id="a_node4"><a xlink:href="https://github.com/conda-forge/csp-feedstock" xlink:title="csp">
<ellipse fill="#fde725" stroke="black" cx="228.84" cy="-1330" rx="28.06" ry="18"/>
<text text-anchor="middle" x="228.84" y="-1325.33" font-family="Times,serif" font-size="14.00">csp</text>
</a>
</g>
</g>
<!-- arrow&#45;cpp&#45;&gt;csp -->
<g id="edge3" class="edge">
<title>arrow&#45;cpp&#45;&gt;csp</title>
<path fill="none" stroke="black" d="M175.95,-1527.77C184.31,-1503.81 199.47,-1458.97 209.84,-1420 215.18,-1399.9 220.05,-1376.94 223.52,-1359.38"/>
<polygon fill="black" stroke="black" points="226.94,-1360.15 225.41,-1349.67 220.07,-1358.82 226.94,-1360.15"/>
</g>
<!-- bazel -->
<g id="node5" class="node">
<title>bazel</title>
<g id="a_node5"><a xlink:href="https://github.com/conda-forge/bazel-feedstock" xlink:title="bazel">
<ellipse fill="#35b779" stroke="black" cx="901.51" cy="-1070" rx="37.53" ry="18"/>
<text text-anchor="middle" x="901.51" y="-1065.33" font-family="Times,serif" font-size="14.00">bazel</text>
</a>
</g>
</g>
<!-- mosh -->
<g id="node6" class="node">
<title>mosh</title>
<g id="a_node6"><a xlink:href="https://github.com/conda-forge/mosh-feedstock/pull/42" xlink:title="mosh ❎">
<ellipse fill="#31688e" stroke="black" cx="901.51" cy="-998" rx="53.31" ry="18"/>
<text text-anchor="middle" x="901.51" y="-993.33" font-family="Times,serif" font-size="14.00" fill="white">mosh ❎</text>
</a>
</g>
</g>
<!-- bazel&#45;&gt;mosh -->
<!-- mysql -->
<g id="node7" class="node">
<title>mysql</title>
<g id="a_node7"><a xlink:href="https://github.com/conda-forge/mysql-feedstock/pull/107" xlink:title="mysql ❎">
<ellipse fill="#31688e" stroke="black" cx="901.51" cy="-926" rx="56.47" ry="18"/>
<text text-anchor="middle" x="901.51" y="-921.33" font-family="Times,serif" font-size="14.00" fill="white">mysql ❎</text>
</a>
</g>
</g>
<!-- mosh&#45;&gt;mysql -->
<!-- onnx -->
<g id="node8" class="node">
<title>onnx</title>
<g id="a_node8"><a xlink:href="https://github.com/conda-forge/onnx-feedstock/pull/125" xlink:title="onnx ❎">
<ellipse fill="#31688e" stroke="black" cx="901.51" cy="-854" rx="50.68" ry="18"/>
<text text-anchor="middle" x="901.51" y="-849.33" font-family="Times,serif" font-size="14.00" fill="white">onnx ❎</text>
</a>
</g>
</g>
<!-- mysql&#45;&gt;onnx -->
<!-- paraview -->
<g id="node9" class="node">
<title>paraview</title>
<g id="a_node9"><a xlink:href="https://github.com/conda-forge/paraview-feedstock/pull/269" xlink:title="paraview ❎">
<ellipse fill="#31688e" stroke="black" cx="901.51" cy="-782" rx="72.25" ry="18"/>
<text text-anchor="middle" x="901.51" y="-777.33" font-family="Times,serif" font-size="14.00" fill="white">paraview ❎</text>
</a>
</g>
</g>
<!-- onnx&#45;&gt;paraview -->
<!-- qgis -->
<g id="node14" class="node">
<title>qgis</title>
<g id="a_node14"><a xlink:href="https://github.com/conda-forge/qgis-feedstock/pull/495" xlink:title="qgis ❎">
<ellipse fill="#31688e" stroke="black" cx="901.51" cy="-710" rx="47.53" ry="18"/>
<text text-anchor="middle" x="901.51" y="-705.33" font-family="Times,serif" font-size="14.00" fill="white">qgis ❎</text>
</a>
</g>
</g>
<!-- paraview&#45;&gt;qgis -->
<!-- opencv -->
<g id="node10" class="node">
<title>opencv</title>
<g id="a_node10"><a xlink:href="https://github.com/conda-forge/opencv-feedstock" xlink:title="opencv">
<ellipse fill="#fde725" stroke="black" cx="1566.56" cy="-1510" rx="46.47" ry="18"/>
<text text-anchor="middle" x="1566.56" y="-1505.33" font-family="Times,serif" font-size="14.00">opencv</text>
</a>
</g>
</g>
<!-- imp -->
<g id="node11" class="node">
<title>imp</title>
<g id="a_node11"><a xlink:href="https://github.com/conda-forge/imp-feedstock" xlink:title="imp">
<ellipse fill="#fde725" stroke="black" cx="1508.56" cy="-1438" rx="30.16" ry="18"/>
<text text-anchor="middle" x="1508.56" y="-1433.33" font-family="Times,serif" font-size="14.00">imp</text>
</a>
</g>
</g>
<!-- opencv&#45;&gt;imp -->
<g id="edge8" class="edge">
<title>opencv&#45;&gt;imp</title>
<path fill="none" stroke="black" d="M1552.81,-1492.41C1545.6,-1483.71 1536.64,-1472.89 1528.66,-1463.26"/>
<polygon fill="black" stroke="black" points="1531.45,-1461.14 1522.38,-1455.68 1526.06,-1465.61 1531.45,-1461.14"/>
</g>
<!-- gazebo&#45;yarp&#45;plugins -->
<g id="node12" class="node">
<title>gazebo&#45;yarp&#45;plugins</title>
<g id="a_node12"><a xlink:href="https://github.com/conda-forge/gazebo-yarp-plugins-feedstock" xlink:title="gazebo yarp plugins">
<ellipse fill="#fde725" stroke="black" cx="1706.56" cy="-1438" rx="112.24" ry="18"/>
<text text-anchor="middle" x="1706.56" y="-1433.33" font-family="Times,serif" font-size="14.00">gazebo yarp plugins</text>
</a>
</g>
</g>
<!-- opencv&#45;&gt;gazebo&#45;yarp&#45;plugins -->
<g id="edge9" class="edge">
<title>opencv&#45;&gt;gazebo&#45;yarp&#45;plugins</title>
<path fill="none" stroke="black" d="M1594.22,-1495.17C1613.91,-1485.32 1640.77,-1471.89 1663.29,-1460.64"/>
<polygon fill="black" stroke="black" points="1664.55,-1463.92 1671.93,-1456.31 1661.42,-1457.66 1664.55,-1463.92"/>
</g>
<!-- nvidia&#45;dali&#45;python -->
<g id="node13" class="node">
<title>nvidia&#45;dali&#45;python</title>
<g id="a_node13"><a xlink:href="https://github.com/conda-forge/nvidia-dali-python-feedstock" xlink:title="nvidia dali python">
<ellipse fill="#fde725" stroke="black" cx="1566.56" cy="-1366" rx="101.19" ry="18"/>
<text text-anchor="middle" x="1566.56" y="-1361.33" font-family="Times,serif" font-size="14.00">nvidia dali python</text>
</a>
</g>
</g>
<!-- opencv&#45;&gt;nvidia&#45;dali&#45;python -->
<g id="edge10" class="edge">
<title>opencv&#45;&gt;nvidia&#45;dali&#45;python</title>
<path fill="none" stroke="black" d="M1566.56,-1491.59C1566.56,-1467.61 1566.56,-1424.14 1566.56,-1395.42"/>
<polygon fill="black" stroke="black" points="1570.06,-1395.62 1566.56,-1385.62 1563.06,-1395.62 1570.06,-1395.62"/>
</g>
<!-- tensorflow -->
<g id="node15" class="node">
<title>tensorflow</title>
<g id="a_node15"><a xlink:href="https://github.com/conda-forge/tensorflow-feedstock/pull/411" xlink:title="tensorflow ❎">
<ellipse fill="#31688e" stroke="black" cx="901.51" cy="-638" rx="79.09" ry="18"/>
<text text-anchor="middle" x="901.51" y="-633.33" font-family="Times,serif" font-size="14.00" fill="white">tensorflow ❎</text>
</a>
</g>
</g>
<!-- qgis&#45;&gt;tensorflow -->
<!-- r&#45;protolite -->
<g id="node16" class="node">
<title>r&#45;protolite</title>
<g id="a_node16"><a xlink:href="https://github.com/conda-forge/r-protolite-feedstock/pull/46" xlink:title="r protolite ✓">
<ellipse fill="#31688e" stroke="black" cx="901.51" cy="-566" rx="70.15" ry="18"/>
<text text-anchor="middle" x="901.51" y="-561.33" font-family="Times,serif" font-size="14.00" fill="white">r protolite ✓</text>
</a>
</g>
</g>
<!-- tensorflow&#45;&gt;r&#45;protolite -->
<!-- pytorch&#45;cpu -->
<g id="node17" class="node">
<title>pytorch&#45;cpu</title>
<g id="a_node17"><a xlink:href="https://github.com/conda-forge/pytorch-cpu-feedstock/pull/310" xlink:title="pytorch cpu ❎">
<ellipse fill="#31688e" stroke="black" cx="901.51" cy="-494" rx="85.93" ry="18"/>
<text text-anchor="middle" x="901.51" y="-489.32" font-family="Times,serif" font-size="14.00" fill="white">pytorch cpu ❎</text>
</a>
</g>
</g>
<!-- r&#45;protolite&#45;&gt;pytorch&#45;cpu -->
<!-- go&#45;cockroach -->
<g id="node18" class="node">
<title>go&#45;cockroach</title>
<g id="a_node18"><a xlink:href="https://github.com/conda-forge/go-cockroach-feedstock/pull/30" xlink:title="go cockroach ❎">
<ellipse fill="#31688e" stroke="black" cx="901.51" cy="-422" rx="91.72" ry="18"/>
<text text-anchor="middle" x="901.51" y="-417.32" font-family="Times,serif" font-size="14.00" fill="white">go cockroach ❎</text>
</a>
</g>
</g>
<!-- pytorch&#45;cpu&#45;&gt;go&#45;cockroach -->
<!-- cartographer -->
<g id="node28" class="node">
<title>cartographer</title>
<g id="a_node28"><a xlink:href="https://github.com/conda-forge/cartographer-feedstock/pull/73" xlink:title="cartographer ❎">
<ellipse fill="#31688e" stroke="black" cx="901.51" cy="-350" rx="92.25" ry="18"/>
<text text-anchor="middle" x="901.51" y="-345.32" font-family="Times,serif" font-size="14.00" fill="white">cartographer ❎</text>
</a>
</g>
</g>
<!-- go&#45;cockroach&#45;&gt;cartographer -->
<!-- orc -->
<g id="node19" class="node">
<title>orc</title>
<g id="a_node19"><a xlink:href="https://github.com/conda-forge/orc-feedstock/pull/82" xlink:title="orc ✓">
<ellipse fill="#31688e" stroke="black" cx="169.84" cy="-1618" rx="34.9" ry="18"/>
<text text-anchor="middle" x="169.84" y="-1613.33" font-family="Times,serif" font-size="14.00" fill="white">orc ✓</text>
</a>
</g>
</g>
<!-- orc&#45;&gt;arrow&#45;cpp -->
<g id="edge16" class="edge">
<title>orc&#45;&gt;arrow&#45;cpp</title>
<path fill="none" stroke="black" d="M169.84,-1599.7C169.84,-1592.41 169.84,-1583.73 169.84,-1575.54"/>
<polygon fill="black" stroke="black" points="173.34,-1575.62 169.84,-1565.62 166.34,-1575.62 173.34,-1575.62"/>
</g>
<!-- libignition&#45;transport4 -->
<g id="node20" class="node">
<title>libignition&#45;transport4</title>
<g id="a_node20"><a xlink:href="https://github.com/conda-forge/libignition-transport4-feedstock/pull/104" xlink:title="libignition transport4 ❎">
<ellipse fill="#31688e" stroke="black" cx="568.99" cy="-818" rx="134.33" ry="18"/>
<text text-anchor="middle" x="568.99" y="-813.33" font-family="Times,serif" font-size="14.00" fill="white">libignition transport4 ❎</text>
</a>
</g>
</g>
<!-- libignition&#45;sensors -->
<g id="node21" class="node">
<title>libignition&#45;sensors</title>
<g id="a_node21"><a xlink:href="https://github.com/conda-forge/libignition-sensors-feedstock" xlink:title="libignition sensors">
<ellipse fill="#fde725" stroke="black" cx="382.99" cy="-746" rx="103.82" ry="18"/>
<text text-anchor="middle" x="382.99" y="-741.33" font-family="Times,serif" font-size="14.00">libignition sensors</text>
</a>
</g>
</g>
<!-- libignition&#45;transport4&#45;&gt;libignition&#45;sensors -->
<g id="edge17" class="edge">
<title>libignition&#45;transport4&#45;&gt;libignition&#45;sensors</title>
<path fill="none" stroke="black" d="M525.38,-800.59C498.53,-790.48 463.94,-777.47 435.58,-766.79"/>
<polygon fill="black" stroke="black" points="437.05,-763.61 426.46,-763.36 434.59,-770.16 437.05,-763.61"/>
</g>
<!-- libignition&#45;gui -->
<g id="node22" class="node">
<title>libignition&#45;gui</title>
<g id="a_node22"><a xlink:href="https://github.com/conda-forge/libignition-gui-feedstock" xlink:title="libignition gui">
<ellipse fill="#fde725" stroke="black" cx="623.99" cy="-746" rx="81.2" ry="18"/>
<text text-anchor="middle" x="623.99" y="-741.33" font-family="Times,serif" font-size="14.00">libignition gui</text>
</a>
</g>
</g>
<!-- libignition&#45;transport4&#45;&gt;libignition&#45;gui -->
<g id="edge18" class="edge">
<title>libignition&#45;transport4&#45;&gt;libignition&#45;gui</title>
<path fill="none" stroke="black" d="M582.59,-799.7C588.91,-791.64 596.57,-781.89 603.58,-772.98"/>
<polygon fill="black" stroke="black" points="606.19,-775.32 609.62,-765.29 600.69,-771 606.19,-775.32"/>
</g>
<!-- libignition&#45;gazebo -->
<g id="node23" class="node">
<title>libignition&#45;gazebo</title>
<g id="a_node23"><a xlink:href="https://github.com/conda-forge/libignition-gazebo-feedstock" xlink:title="libignition gazebo">
<ellipse fill="#fde725" stroke="black" cx="504.99" cy="-674" rx="100.66" ry="18"/>
<text text-anchor="middle" x="504.99" y="-669.33" font-family="Times,serif" font-size="14.00">libignition gazebo</text>
</a>
</g>
</g>
<!-- libignition&#45;transport4&#45;&gt;libignition&#45;gazebo -->
<g id="edge19" class="edge">
<title>libignition&#45;transport4&#45;&gt;libignition&#45;gazebo</title>
<path fill="none" stroke="black" d="M556.09,-800.03C548.87,-789.96 540.12,-776.71 533.99,-764 524.55,-744.43 517.06,-721.02 512.06,-703.13"/>
<polygon fill="black" stroke="black" points="515.51,-702.47 509.53,-693.72 508.75,-704.28 515.51,-702.47"/>
</g>
<!-- libignition&#45;launch -->
<g id="node24" class="node">
<title>libignition&#45;launch</title>
<g id="a_node24"><a xlink:href="https://github.com/conda-forge/libignition-launch-feedstock" xlink:title="libignition launch">
<ellipse fill="#fde725" stroke="black" cx="633.99" cy="-602" rx="98.56" ry="18"/>
<text text-anchor="middle" x="633.99" y="-597.33" font-family="Times,serif" font-size="14.00">libignition launch</text>
</a>
</g>
</g>
<!-- libignition&#45;transport4&#45;&gt;libignition&#45;launch -->
<g id="edge20" class="edge">
<title>libignition&#45;transport4&#45;&gt;libignition&#45;launch</title>
<path fill="none" stroke="black" d="M655.77,-803.85C678.39,-796.05 700.24,-783.66 713.99,-764 745.32,-719.2 696.32,-660.33 662.26,-627.62"/>
<polygon fill="black" stroke="black" points="664.78,-625.19 655.08,-620.93 660.01,-630.31 664.78,-625.19"/>
</g>
<!-- libignition&#45;sensors&#45;&gt;libignition&#45;gazebo -->
<g id="edge21" class="edge">
<title>libignition&#45;sensors&#45;&gt;libignition&#45;gazebo</title>
<path fill="none" stroke="black" d="M411.9,-728.41C428.04,-719.15 448.37,-707.49 465.91,-697.42"/>
<polygon fill="black" stroke="black" points="467.62,-700.48 474.55,-692.47 464.13,-694.41 467.62,-700.48"/>
</g>
<!-- libignition&#45;gui&#45;&gt;libignition&#45;gazebo -->
<g id="edge22" class="edge">
<title>libignition&#45;gui&#45;&gt;libignition&#45;gazebo</title>
<path fill="none" stroke="black" d="M596.39,-728.76C580.55,-719.45 560.42,-707.61 543.09,-697.41"/>
<polygon fill="black" stroke="black" points="544.97,-694.45 534.57,-692.4 541.42,-700.49 544.97,-694.45"/>
</g>
<!-- libignition&#45;gui&#45;&gt;libignition&#45;launch -->
<g id="edge23" class="edge">
<title>libignition&#45;gui&#45;&gt;libignition&#45;launch</title>
<path fill="none" stroke="black" d="M625.22,-727.59C626.9,-703.61 629.97,-660.14 631.99,-631.42"/>
<polygon fill="black" stroke="black" points="635.47,-631.84 632.68,-621.62 628.48,-631.35 635.47,-631.84"/>
</g>
<!-- libignition&#45;gazebo&#45;&gt;libignition&#45;launch -->
<g id="edge24" class="edge">
<title>libignition&#45;gazebo&#45;&gt;libignition&#45;launch</title>
<path fill="none" stroke="black" d="M535.56,-656.41C552.91,-647 574.84,-635.1 593.6,-624.92"/>
<polygon fill="black" stroke="black" points="595.19,-628.04 602.31,-620.19 591.85,-621.89 595.19,-628.04"/>
</g>
<!-- gazebo -->
<g id="node25" class="node">
<title>gazebo</title>
<g id="a_node25"><a xlink:href="https://github.com/conda-forge/gazebo-feedstock/pull/236" xlink:title="gazebo ❎">
<ellipse fill="#31688e" stroke="black" cx="1706.56" cy="-1510" rx="61.73" ry="18"/>
<text text-anchor="middle" x="1706.56" y="-1505.33" font-family="Times,serif" font-size="14.00" fill="white">gazebo ❎</text>
</a>
</g>
</g>
<!-- gazebo&#45;&gt;gazebo&#45;yarp&#45;plugins -->
<g id="edge25" class="edge">
<title>gazebo&#45;&gt;gazebo&#45;yarp&#45;plugins</title>
<path fill="none" stroke="black" d="M1706.56,-1491.7C1706.56,-1484.41 1706.56,-1475.73 1706.56,-1467.54"/>
<polygon fill="black" stroke="black" points="1710.06,-1467.62 1706.56,-1457.62 1703.06,-1467.62 1710.06,-1467.62"/>
</g>
<!-- libignition&#45;fuel&#45;tools -->
<g id="node26" class="node">
<title>libignition&#45;fuel&#45;tools</title>
<g id="a_node26"><a xlink:href="https://github.com/conda-forge/libignition-fuel-tools-feedstock/pull/98" xlink:title="libignition fuel tools ❎">
<ellipse fill="#31688e" stroke="black" cx="133.99" cy="-746" rx="126.97" ry="18"/>
<text text-anchor="middle" x="133.99" y="-741.33" font-family="Times,serif" font-size="14.00" fill="white">libignition fuel tools ❎</text>
</a>
</g>
</g>
<!-- libignition&#45;fuel&#45;tools&#45;&gt;libignition&#45;gazebo -->
<g id="edge26" class="edge">
<title>libignition&#45;fuel&#45;tools&#45;&gt;libignition&#45;gazebo</title>
<path fill="none" stroke="black" d="M208.18,-731C271.31,-719.09 361.75,-702.03 426.17,-689.87"/>
<polygon fill="black" stroke="black" points="426.82,-693.31 436,-688.02 425.52,-686.43 426.82,-693.31"/>
</g>
<!-- google&#45;cloud&#45;cpp -->
<g id="node27" class="node">
<title>google&#45;cloud&#45;cpp</title>
<g id="a_node27"><a xlink:href="https://github.com/conda-forge/google-cloud-cpp-feedstock" xlink:title="google cloud cpp">
<ellipse fill="#fde725" stroke="black" cx="402.84" cy="-1330" rx="95.4" ry="18"/>
<text text-anchor="middle" x="402.84" y="-1325.33" font-family="Times,serif" font-size="14.00">google cloud cpp</text>
</a>
</g>
</g>
<!-- sentencepiece -->
<g id="node29" class="node">
<title>sentencepiece</title>
<g id="a_node29"><a xlink:href="https://github.com/conda-forge/sentencepiece-feedstock/pull/62" xlink:title="sentencepiece ❎">
<ellipse fill="#31688e" stroke="black" cx="1267.56" cy="-1582" rx="97.51" ry="18"/>
<text text-anchor="middle" x="1267.56" y="-1577.33" font-family="Times,serif" font-size="14.00" fill="white">sentencepiece ❎</text>
</a>
</g>
</g>
<!-- openvino&#45;tokenizers -->
<g id="node30" class="node">
<title>openvino&#45;tokenizers</title>
<g id="a_node30"><a xlink:href="https://github.com/conda-forge/openvino-tokenizers-feedstock" xlink:title="openvino tokenizers">
<ellipse fill="#fde725" stroke="black" cx="1390.56" cy="-1510" rx="111.71" ry="18"/>
<text text-anchor="middle" x="1390.56" y="-1505.33" font-family="Times,serif" font-size="14.00">openvino tokenizers</text>
</a>
</g>
</g>
<!-- sentencepiece&#45;&gt;openvino&#45;tokenizers -->
<g id="edge28" class="edge">
<title>sentencepiece&#45;&gt;openvino&#45;tokenizers</title>
<path fill="none" stroke="black" d="M1296.71,-1564.41C1313.13,-1555.06 1333.86,-1543.27 1351.65,-1533.14"/>
<polygon fill="black" stroke="black" points="1352.92,-1536.45 1359.88,-1528.46 1349.45,-1530.37 1352.92,-1536.45"/>
</g>
<!-- curated&#45;tokenizers -->
<g id="node31" class="node">
<title>curated&#45;tokenizers</title>
<g id="a_node31"><a xlink:href="https://github.com/conda-forge/curated-tokenizers-feedstock" xlink:title="curated tokenizers">
<ellipse fill="#fde725" stroke="black" cx="1155.56" cy="-1510" rx="104.87" ry="18"/>
<text text-anchor="middle" x="1155.56" y="-1505.33" font-family="Times,serif" font-size="14.00">curated tokenizers</text>
</a>
</g>
</g>
<!-- sentencepiece&#45;&gt;curated&#45;tokenizers -->
<g id="edge29" class="edge">
<title>sentencepiece&#45;&gt;curated&#45;tokenizers</title>
<path fill="none" stroke="black" d="M1240.73,-1564.23C1226.15,-1555.12 1207.92,-1543.72 1192.06,-1533.82"/>
<polygon fill="black" stroke="black" points="1194.17,-1531.01 1183.84,-1528.67 1190.46,-1536.94 1194.17,-1531.01"/>
</g>
<!-- tomviz -->
<g id="node32" class="node">
<title>tomviz</title>
<g id="a_node32"><a xlink:href="https://github.com/conda-forge/tomviz-feedstock/pull/70" xlink:title="tomviz ❎">
<ellipse fill="#31688e" stroke="black" cx="901.51" cy="-1834" rx="60.15" ry="18"/>
<text text-anchor="middle" x="901.51" y="-1829.33" font-family="Times,serif" font-size="14.00" fill="white">tomviz ❎</text>
</a>
</g>
</g>
<!-- protozfits -->
<g id="node33" class="node">
<title>protozfits</title>
<g id="a_node33"><a xlink:href="https://github.com/conda-forge/protozfits-feedstock/pull/46" xlink:title="protozfits ✓">
<ellipse fill="#31688e" stroke="black" cx="901.51" cy="-1762" rx="66.99" ry="18"/>
<text text-anchor="middle" x="901.51" y="-1757.33" font-family="Times,serif" font-size="14.00" fill="white">protozfits ✓</text>
</a>
</g>
</g>
<!-- tomviz&#45;&gt;protozfits -->
<!-- grpc_java_plugin -->
<g id="node34" class="node">
<title>grpc_java_plugin</title>
<g id="a_node34"><a xlink:href="https://github.com/conda-forge/grpc_java_plugin-feedstock/pull/88" xlink:title="grpc_java_plugin ✓">
<ellipse fill="#31688e" stroke="black" cx="901.51" cy="-1690" rx="103.29" ry="18"/>
<text text-anchor="middle" x="901.51" y="-1685.33" font-family="Times,serif" font-size="14.00" fill="white">grpc_java_plugin ✓</text>
</a>
</g>
</g>
<!-- protozfits&#45;&gt;grpc_java_plugin -->
<!-- or&#45;tools -->
<g id="node35" class="node">
<title>or&#45;tools</title>
<g id="a_node35"><a xlink:href="https://github.com/conda-forge/or-tools-feedstock/pull/64" xlink:title="or tools ❎">
<ellipse fill="#31688e" stroke="black" cx="901.51" cy="-1618" rx="64.36" ry="18"/>
<text text-anchor="middle" x="901.51" y="-1613.33" font-family="Times,serif" font-size="14.00" fill="white">or tools ❎</text>
</a>
</g>
</g>
<!-- grpc_java_plugin&#45;&gt;or&#45;tools -->
<!-- cpp&#45;opentelemetry&#45;sdk -->
<g id="node36" class="node">
<title>cpp&#45;opentelemetry&#45;sdk</title>
<g id="a_node36"><a xlink:href="https://github.com/conda-forge/cpp-opentelemetry-sdk-feedstock/pull/73" xlink:title="cpp opentelemetry sdk ❎">
<ellipse fill="#31688e" stroke="black" cx="901.51" cy="-1546" rx="141.17" ry="18"/>
<text text-anchor="middle" x="901.51" y="-1541.33" font-family="Times,serif" font-size="14.00" fill="white">cpp opentelemetry sdk ❎</text>
</a>
</g>
</g>
<!-- or&#45;tools&#45;&gt;cpp&#45;opentelemetry&#45;sdk -->
<!-- xilinx&#45;runtime -->
<g id="node37" class="node">
<title>xilinx&#45;runtime</title>
<g id="a_node37"><a xlink:href="https://github.com/conda-forge/xilinx-runtime-feedstock/pull/39" xlink:title="xilinx runtime ❎">
<ellipse fill="#31688e" stroke="black" cx="901.51" cy="-1474" rx="96.98" ry="18"/>
<text text-anchor="middle" x="901.51" y="-1469.33" font-family="Times,serif" font-size="14.00" fill="white">xilinx runtime ❎</text>
</a>
</g>
</g>
<!-- cpp&#45;opentelemetry&#45;sdk&#45;&gt;xilinx&#45;runtime -->
<!-- libpulsar -->
<g id="node38" class="node">
<title>libpulsar</title>
<g id="a_node38"><a xlink:href="https://github.com/conda-forge/libpulsar-feedstock/pull/24" xlink:title="libpulsar ❎">
<ellipse fill="#31688e" stroke="black" cx="901.51" cy="-1402" rx="70.68" ry="18"/>
<text text-anchor="middle" x="901.51" y="-1397.33" font-family="Times,serif" font-size="14.00" fill="white">libpulsar ❎</text>
</a>
</g>
</g>
<!-- xilinx&#45;runtime&#45;&gt;libpulsar -->
<!-- gnss&#45;sdr -->
<g id="node47" class="node">
<title>gnss&#45;sdr</title>
<g id="a_node47"><a xlink:href="https://github.com/conda-forge/gnss-sdr-feedstock/pull/32" xlink:title="gnss sdr ❎">
<ellipse fill="#31688e" stroke="black" cx="901.51" cy="-1330" rx="69.1" ry="18"/>
<text text-anchor="middle" x="901.51" y="-1325.33" font-family="Times,serif" font-size="14.00" fill="white">gnss sdr ❎</text>
</a>
</g>
</g>
<!-- libpulsar&#45;&gt;gnss&#45;sdr -->
<!-- gz&#45;msgs -->
<g id="node39" class="node">
<title>gz&#45;msgs</title>
<g id="a_node39"><a xlink:href="https://github.com/conda-forge/gz-msgs-feedstock/pull/51" xlink:title="gz msgs ❎">
<ellipse fill="#31688e" stroke="black" cx="1395.93" cy="-854" rx="67.52" ry="18"/>
<text text-anchor="middle" x="1395.93" y="-849.33" font-family="Times,serif" font-size="14.00" fill="white">gz msgs ❎</text>
</a>
</g>
</g>
<!-- gz&#45;transport -->
<g id="node40" class="node">
<title>gz&#45;transport</title>
<g id="a_node40"><a xlink:href="https://github.com/conda-forge/gz-transport-feedstock" xlink:title="gz transport">
<ellipse fill="#fde725" stroke="black" cx="1345.93" cy="-782" rx="73.3" ry="18"/>
<text text-anchor="middle" x="1345.93" y="-777.33" font-family="Times,serif" font-size="14.00">gz transport</text>
</a>
</g>
</g>
<!-- gz&#45;msgs&#45;&gt;gz&#45;transport -->
<g id="edge36" class="edge">
<title>gz&#45;msgs&#45;&gt;gz&#45;transport</title>
<path fill="none" stroke="black" d="M1383.82,-836.05C1378.05,-827.97 1371.01,-818.12 1364.58,-809.11"/>
<polygon fill="black" stroke="black" points="1367.46,-807.12 1358.8,-801.02 1361.76,-811.19 1367.46,-807.12"/>
</g>
<!-- gz&#45;fuel&#45;tools -->
<g id="node41" class="node">
<title>gz&#45;fuel&#45;tools</title>
<g id="a_node41"><a xlink:href="https://github.com/conda-forge/gz-fuel-tools-feedstock" xlink:title="gz fuel tools">
<ellipse fill="#fde725" stroke="black" cx="1546.93" cy="-782" rx="72.25" ry="18"/>
<text text-anchor="middle" x="1546.93" y="-777.33" font-family="Times,serif" font-size="14.00">gz fuel tools</text>
</a>
</g>
</g>
<!-- gz&#45;msgs&#45;&gt;gz&#45;fuel&#45;tools -->
<g id="edge37" class="edge">
<title>gz&#45;msgs&#45;&gt;gz&#45;fuel&#45;tools</title>
<path fill="none" stroke="black" d="M1428.69,-837.81C1450.6,-827.65 1479.67,-814.18 1503.51,-803.13"/>
<polygon fill="black" stroke="black" points="1504.73,-806.42 1512.33,-799.04 1501.79,-800.07 1504.73,-806.42"/>
</g>
<!-- gz&#45;gui -->
<g id="node42" class="node">
<title>gz&#45;gui</title>
<g id="a_node42"><a xlink:href="https://github.com/conda-forge/gz-gui-feedstock" xlink:title="gz gui">
<ellipse fill="#fde725" stroke="black" cx="1254.93" cy="-710" rx="41.74" ry="18"/>
<text text-anchor="middle" x="1254.93" y="-705.33" font-family="Times,serif" font-size="14.00">gz gui</text>
</a>
</g>
</g>
<!-- gz&#45;msgs&#45;&gt;gz&#45;gui -->
<g id="edge38" class="edge">
<title>gz&#45;msgs&#45;&gt;gz&#45;gui</title>
<path fill="none" stroke="black" d="M1338.83,-844.07C1311.86,-836.81 1281.74,-823.68 1263.93,-800 1251.08,-782.92 1249.44,-758.47 1250.68,-739.53"/>
<polygon fill="black" stroke="black" points="1254.14,-740.08 1251.63,-729.78 1247.17,-739.39 1254.14,-740.08"/>
</g>
<!-- gz&#45;sensors -->
<g id="node43" class="node">
<title>gz&#45;sensors</title>
<g id="a_node43"><a xlink:href="https://github.com/conda-forge/gz-sensors-feedstock" xlink:title="gz sensors">
<ellipse fill="#fde725" stroke="black" cx="1454.93" cy="-710" rx="64.36" ry="18"/>
<text text-anchor="middle" x="1454.93" y="-705.33" font-family="Times,serif" font-size="14.00">gz sensors</text>
</a>
</g>
</g>
<!-- gz&#45;msgs&#45;&gt;gz&#45;sensors -->
<g id="edge39" class="edge">
<title>gz&#45;msgs&#45;&gt;gz&#45;sensors</title>
<path fill="none" stroke="black" d="M1407.73,-835.93C1414.33,-825.82 1422.33,-812.57 1427.93,-800 1436.66,-780.37 1443.61,-757.1 1448.27,-739.28"/>
<polygon fill="black" stroke="black" points="1451.65,-740.2 1450.69,-729.65 1444.86,-738.5 1451.65,-740.2"/>
</g>
<!-- gz&#45;sim -->
<g id="node44" class="node">
<title>gz&#45;sim</title>
<g id="a_node44"><a xlink:href="https://github.com/conda-forge/gz-sim-feedstock" xlink:title="gz sim">
<ellipse fill="#fde725" stroke="black" cx="1425.93" cy="-638" rx="43.84" ry="18"/>
<text text-anchor="middle" x="1425.93" y="-633.33" font-family="Times,serif" font-size="14.00">gz sim</text>
</a>
</g>
</g>
<!-- gz&#45;msgs&#45;&gt;gz&#45;sim -->
<g id="edge40" class="edge">
<title>gz&#45;msgs&#45;&gt;gz&#45;sim</title>
<path fill="none" stroke="black" d="M1459.21,-847.3C1520.51,-840.31 1607.16,-826.05 1627.93,-800 1680.69,-733.83 1545.88,-677.72 1471.38,-652.8"/>
<polygon fill="black" stroke="black" points="1472.89,-649.61 1462.3,-649.83 1470.71,-656.27 1472.89,-649.61"/>
</g>
<!-- gz&#45;launch -->
<g id="node45" class="node">
<title>gz&#45;launch</title>
<g id="a_node45"><a xlink:href="https://github.com/conda-forge/gz-launch-feedstock" xlink:title="gz launch">
<ellipse fill="#fde725" stroke="black" cx="1305.93" cy="-566" rx="59.1" ry="18"/>
<text text-anchor="middle" x="1305.93" y="-561.33" font-family="Times,serif" font-size="14.00">gz launch</text>
</a>
</g>
</g>
<!-- gz&#45;msgs&#45;&gt;gz&#45;launch -->
<g id="edge41" class="edge">
<title>gz&#45;msgs&#45;&gt;gz&#45;launch</title>
<path fill="none" stroke="black" d="M1341.44,-843.13C1311.05,-835.44 1273.99,-822.2 1246.93,-800 1218.11,-776.36 1213.84,-763.93 1203.93,-728 1188.8,-673.16 1239.99,-619.36 1275.25,-589.94"/>
<polygon fill="black" stroke="black" points="1277.08,-592.97 1282.65,-583.95 1272.67,-587.53 1277.08,-592.97"/>
</g>
<!-- gz&#45;transport&#45;&gt;gz&#45;gui -->
<g id="edge42" class="edge">
<title>gz&#45;transport&#45;&gt;gz&#45;gui</title>
<path fill="none" stroke="black" d="M1324.36,-764.41C1312.26,-755.11 1297.01,-743.38 1283.89,-733.28"/>
<polygon fill="black" stroke="black" points="1286.04,-730.52 1275.98,-727.2 1281.77,-736.07 1286.04,-730.52"/>
</g>
<!-- gz&#45;transport&#45;&gt;gz&#45;sensors -->
<g id="edge43" class="edge">
<title>gz&#45;transport&#45;&gt;gz&#45;sensors</title>
<path fill="none" stroke="black" d="M1371.21,-764.76C1385.89,-755.33 1404.6,-743.32 1420.6,-733.04"/>
<polygon fill="black" stroke="black" points="1422.36,-736.07 1428.88,-727.72 1418.58,-730.18 1422.36,-736.07"/>
</g>
<!-- gz&#45;transport&#45;&gt;gz&#45;sim -->
<g id="edge44" class="edge">
<title>gz&#45;transport&#45;&gt;gz&#45;sim</title>
<path fill="none" stroke="black" d="M1351.1,-763.87C1357.07,-745.39 1367.9,-715.46 1381.93,-692 1387.84,-682.1 1395.55,-672.13 1402.86,-663.55"/>
<polygon fill="black" stroke="black" points="1405.25,-666.13 1409.24,-656.32 1400,-661.5 1405.25,-666.13"/>
</g>
<!-- gz&#45;transport&#45;&gt;gz&#45;launch -->
<g id="edge45" class="edge">
<title>gz&#45;transport&#45;&gt;gz&#45;launch</title>
<path fill="none" stroke="black" d="M1342.72,-763.85C1335.86,-727.14 1319.69,-640.66 1311.26,-595.53"/>
<polygon fill="black" stroke="black" points="1314.7,-594.91 1309.42,-585.72 1307.82,-596.19 1314.7,-594.91"/>
</g>
<!-- gz&#45;fuel&#45;tools&#45;&gt;gz&#45;sim -->
<g id="edge46" class="edge">
<title>gz&#45;fuel&#45;tools&#45;&gt;gz&#45;sim</title>
<path fill="none" stroke="black" d="M1547.43,-763.82C1547.13,-744.47 1543.91,-712.99 1527.93,-692 1513.98,-673.7 1491.92,-661.13 1471.87,-652.85"/>
<polygon fill="black" stroke="black" points="1473.31,-649.65 1462.72,-649.33 1470.8,-656.19 1473.31,-649.65"/>
</g>
<!-- gz&#45;gui&#45;&gt;gz&#45;sim -->
<g id="edge47" class="edge">
<title>gz&#45;gui&#45;&gt;gz&#45;sim</title>
<path fill="none" stroke="black" d="M1284.32,-696.97C1312.17,-685.57 1354.23,-668.35 1385.28,-655.64"/>
<polygon fill="black" stroke="black" points="1386.43,-658.95 1394.36,-651.92 1383.78,-652.47 1386.43,-658.95"/>
</g>
<!-- gz&#45;gui&#45;&gt;gz&#45;launch -->
<g id="edge48" class="edge">
<title>gz&#45;gui&#45;&gt;gz&#45;launch</title>
<path fill="none" stroke="black" d="M1261.08,-691.87C1269.73,-667.78 1285.6,-623.6 1295.95,-594.77"/>
<polygon fill="black" stroke="black" points="1299.15,-596.21 1299.24,-585.61 1292.57,-593.84 1299.15,-596.21"/>
</g>
<!-- gz&#45;sensors&#45;&gt;gz&#45;sim -->
<g id="edge49" class="edge">
<title>gz&#45;sensors&#45;&gt;gz&#45;sim</title>
<path fill="none" stroke="black" d="M1447.76,-691.7C1444.63,-684.15 1440.89,-675.12 1437.39,-666.68"/>
<polygon fill="black" stroke="black" points="1440.65,-665.4 1433.59,-657.5 1434.18,-668.08 1440.65,-665.4"/>
</g>
<!-- gz&#45;sim&#45;&gt;gz&#45;launch -->
<g id="edge50" class="edge">
<title>gz&#45;sim&#45;&gt;gz&#45;launch</title>
<path fill="none" stroke="black" d="M1401.35,-622.67C1384.38,-612.77 1361.52,-599.43 1342.42,-588.29"/>
<polygon fill="black" stroke="black" points="1344.26,-585.31 1333.86,-583.29 1340.73,-591.36 1344.26,-585.31"/>
</g>
<!-- openvino -->
<g id="node46" class="node">
<title>openvino</title>
<g id="a_node46"><a xlink:href="https://github.com/conda-forge/openvino-feedstock/pull/117" xlink:title="openvino ❎">
<ellipse fill="#31688e" stroke="black" cx="1478.56" cy="-1582" rx="71.73" ry="18"/>
<text text-anchor="middle" x="1478.56" y="-1577.33" font-family="Times,serif" font-size="14.00" fill="white">openvino ❎</text>
</a>
</g>
</g>
<!-- openvino&#45;&gt;opencv -->
<g id="edge51" class="edge">
<title>openvino&#45;&gt;opencv</title>
<path fill="none" stroke="black" d="M1499.41,-1564.41C1510.95,-1555.24 1525.45,-1543.7 1538.02,-1533.7"/>
<polygon fill="black" stroke="black" points="1539.93,-1536.66 1545.57,-1527.69 1535.57,-1531.18 1539.93,-1536.66"/>
</g>
<!-- openvino&#45;&gt;openvino&#45;tokenizers -->
<g id="edge52" class="edge">
<title>openvino&#45;&gt;openvino&#45;tokenizers</title>
<path fill="none" stroke="black" d="M1457.7,-1564.41C1446.69,-1555.65 1432.96,-1544.73 1420.8,-1535.06"/>
<polygon fill="black" stroke="black" points="1423.06,-1532.38 1413.06,-1528.9 1418.71,-1537.86 1423.06,-1532.38"/>
</g>
<!-- tensorstore -->
<g id="node48" class="node">
<title>tensorstore</title>
<g id="a_node48"><a xlink:href="https://github.com/conda-forge/tensorstore-feedstock/pull/52" xlink:title="tensorstore ❎">
<ellipse fill="#31688e" stroke="black" cx="901.51" cy="-1258" rx="84.35" ry="18"/>
<text text-anchor="middle" x="901.51" y="-1253.33" font-family="Times,serif" font-size="14.00" fill="white">tensorstore ❎</text>
</a>
</g>
</g>
<!-- gnss&#45;sdr&#45;&gt;tensorstore -->
<!-- gcld3 -->
<g id="node49" class="node">
<title>gcld3</title>
<g id="a_node49"><a xlink:href="https://github.com/conda-forge/gcld3-feedstock/pull/15" xlink:title="gcld3 ✓">
<ellipse fill="#31688e" stroke="black" cx="901.51" cy="-1186" rx="46.47" ry="18"/>
<text text-anchor="middle" x="901.51" y="-1181.33" font-family="Times,serif" font-size="14.00" fill="white">gcld3 ✓</text>
</a>
</g>
</g>
<!-- tensorstore&#45;&gt;gcld3 -->
<!-- bloaty -->
<g id="node50" class="node">
<title>bloaty</title>
<g id="a_node50"><a xlink:href="https://github.com/conda-forge/bloaty-feedstock/pull/6" xlink:title="bloaty ❎">
<ellipse fill="#31688e" stroke="black" cx="901.51" cy="-1114" rx="57.52" ry="18"/>
<text text-anchor="middle" x="901.51" y="-1109.33" font-family="Times,serif" font-size="14.00" fill="white">bloaty ❎</text>
</a>
</g>
</g>
<!-- gcld3&#45;&gt;bloaty -->
<!-- google&#45;cloud&#45;cpp&#45;core -->
<g id="node51" class="node">
<title>google&#45;cloud&#45;cpp&#45;core</title>
<g id="a_node51"><a xlink:href="https://github.com/conda-forge/google-cloud-cpp-core-feedstock/pull/30" xlink:title="google cloud cpp core ❎">
<ellipse fill="#31688e" stroke="black" cx="436.84" cy="-1618" rx="135.39" ry="18"/>
<text text-anchor="middle" x="436.84" y="-1613.33" font-family="Times,serif" font-size="14.00" fill="white">google cloud cpp core ❎</text>
</a>
</g>
</g>
<!-- google&#45;cloud&#45;cpp&#45;core&#45;&gt;arrow&#45;cpp -->
<g id="edge57" class="edge">
<title>google&#45;cloud&#45;cpp&#45;core&#45;&gt;arrow&#45;cpp</title>
<path fill="none" stroke="black" d="M377.25,-1601.38C331.91,-1589.49 269.96,-1573.25 225.59,-1561.62"/>
<polygon fill="black" stroke="black" points="226.74,-1558.3 216.18,-1559.15 224.96,-1565.07 226.74,-1558.3"/>
</g>
<!-- google&#45;cloud&#45;cpp&#45;core&#45;&gt;google&#45;cloud&#45;cpp -->
<g id="edge58" class="edge">
<title>google&#45;cloud&#45;cpp&#45;core&#45;&gt;google&#45;cloud&#45;cpp</title>
<path fill="none" stroke="black" d="M345.76,-1604.39C322.49,-1596.58 300.05,-1584.06 285.84,-1564 236.06,-1493.77 324.79,-1399.31 373.72,-1355.37"/>
<polygon fill="black" stroke="black" points="376.03,-1358.01 381.22,-1348.77 371.4,-1352.75 376.03,-1358.01"/>
</g>
<!-- google&#45;cloud&#45;cpp&#45;compute -->
<g id="node52" class="node">
<title>google&#45;cloud&#45;cpp&#45;compute</title>
<g id="a_node52"><a xlink:href="https://github.com/conda-forge/google-cloud-cpp-compute-feedstock" xlink:title="google cloud cpp compute">
<ellipse fill="#fde725" stroke="black" cx="436.84" cy="-1546" rx="141.7" ry="18"/>
<text text-anchor="middle" x="436.84" y="-1541.33" font-family="Times,serif" font-size="14.00">google cloud cpp compute</text>
</a>
</g>
</g>
<!-- google&#45;cloud&#45;cpp&#45;core&#45;&gt;google&#45;cloud&#45;cpp&#45;compute -->
<g id="edge59" class="edge">
<title>google&#45;cloud&#45;cpp&#45;core&#45;&gt;google&#45;cloud&#45;cpp&#45;compute</title>
<path fill="none" stroke="black" d="M436.84,-1599.7C436.84,-1592.41 436.84,-1583.73 436.84,-1575.54"/>
<polygon fill="black" stroke="black" points="440.34,-1575.62 436.84,-1565.62 433.34,-1575.62 440.34,-1575.62"/>
</g>
<!-- google&#45;cloud&#45;cpp&#45;bigquery -->
<g id="node53" class="node">
<title>google&#45;cloud&#45;cpp&#45;bigquery</title>
<g id="a_node53"><a xlink:href="https://github.com/conda-forge/google-cloud-cpp-bigquery-feedstock" xlink:title="google cloud cpp bigquery">
<ellipse fill="#fde725" stroke="black" cx="524.84" cy="-1474" rx="143.28" ry="18"/>
<text text-anchor="middle" x="524.84" y="-1469.33" font-family="Times,serif" font-size="14.00">google cloud cpp bigquery</text>
</a>
</g>
</g>
<!-- google&#45;cloud&#45;cpp&#45;core&#45;&gt;google&#45;cloud&#45;cpp&#45;bigquery -->
<g id="edge60" class="edge">
<title>google&#45;cloud&#45;cpp&#45;core&#45;&gt;google&#45;cloud&#45;cpp&#45;bigquery</title>
<path fill="none" stroke="black" d="M527.91,-1604.39C551.18,-1596.58 573.62,-1584.06 587.84,-1564 597.09,-1550.95 594.59,-1542.51 587.84,-1528 582.52,-1516.59 573.41,-1506.76 563.75,-1498.77"/>
<polygon fill="black" stroke="black" points="566.08,-1496.15 556.01,-1492.88 561.84,-1501.72 566.08,-1496.15"/>
</g>
<!-- google&#45;cloud&#45;cpp&#45;ai -->
<g id="node54" class="node">
<title>google&#45;cloud&#45;cpp&#45;ai</title>
<g id="a_node54"><a xlink:href="https://github.com/conda-forge/google-cloud-cpp-ai-feedstock" xlink:title="google cloud cpp ai">
<ellipse fill="#fde725" stroke="black" cx="644.84" cy="-1402" rx="107.5" ry="18"/>
<text text-anchor="middle" x="644.84" y="-1397.33" font-family="Times,serif" font-size="14.00">google cloud cpp ai</text>
</a>
</g>
</g>
<!-- google&#45;cloud&#45;cpp&#45;core&#45;&gt;google&#45;cloud&#45;cpp&#45;ai -->
<g id="edge61" class="edge">
<title>google&#45;cloud&#45;cpp&#45;core&#45;&gt;google&#45;cloud&#45;cpp&#45;ai</title>
<path fill="none" stroke="black" d="M508.71,-1602.43C539.74,-1594.14 575.55,-1581.77 604.84,-1564 643.52,-1540.52 659.52,-1533.81 676.84,-1492 685.38,-1471.36 675.81,-1447.52 664.96,-1429.71"/>
<polygon fill="black" stroke="black" points="667.98,-1427.94 659.56,-1421.51 662.13,-1431.79 667.98,-1427.94"/>
</g>
<!-- google&#45;cloud&#45;cpp&#45;compute&#45;&gt;google&#45;cloud&#45;cpp -->
<g id="edge62" class="edge">
<title>google&#45;cloud&#45;cpp&#45;compute&#45;&gt;google&#45;cloud&#45;cpp</title>
<path fill="none" stroke="black" d="M406.4,-1528.14C393.53,-1519.23 379.9,-1507.01 372.84,-1492 352.29,-1448.31 372.2,-1391.74 387.93,-1358.61"/>
<polygon fill="black" stroke="black" points="391.06,-1360.19 392.37,-1349.67 384.79,-1357.07 391.06,-1360.19"/>
</g>
<!-- google&#45;cloud&#45;cpp&#45;bigquery&#45;&gt;google&#45;cloud&#45;cpp -->
<g id="edge63" class="edge">
<title>google&#45;cloud&#45;cpp&#45;bigquery&#45;&gt;google&#45;cloud&#45;cpp</title>
<path fill="none" stroke="black" d="M510.12,-1455.87C488.96,-1431.24 449.78,-1385.64 425.07,-1356.88"/>
<polygon fill="black" stroke="black" points="427.76,-1354.64 418.59,-1349.34 422.45,-1359.2 427.76,-1354.64"/>
</g>
<!-- google&#45;cloud&#45;cpp&#45;ai&#45;&gt;google&#45;cloud&#45;cpp -->
<g id="edge64" class="edge">
<title>google&#45;cloud&#45;cpp&#45;ai&#45;&gt;google&#45;cloud&#45;cpp</title>
<path fill="none" stroke="black" d="M592.62,-1385.9C554.9,-1374.99 503.82,-1360.21 464.16,-1348.74"/>
<polygon fill="black" stroke="black" points="465.33,-1345.43 454.75,-1346.02 463.38,-1352.16 465.33,-1345.43"/>
</g>
<!-- gz&#45;sim&#45;yarp&#45;plugins -->
<g id="node55" class="node">
<title>gz&#45;sim&#45;yarp&#45;plugins</title>
<g id="a_node55"><a xlink:href="https://github.com/conda-forge/gz-sim-yarp-plugins-feedstock/pull/16" xlink:title="gz sim yarp plugins ❎">
<ellipse fill="#31688e" stroke="black" cx="376.17" cy="-306" rx="124.86" ry="18"/>
<text text-anchor="middle" x="376.17" y="-301.32" font-family="Times,serif" font-size="14.00" fill="white">gz sim yarp plugins ❎</text>
</a>
</g>
</g>
<!-- bfiocpp -->
<g id="node56" class="node">
<title>bfiocpp</title>
<g id="a_node56"><a xlink:href="https://github.com/conda-forge/bfiocpp-feedstock/pull/12" xlink:title="bfiocpp ✓">
<ellipse fill="#31688e" stroke="black" cx="376.17" cy="-234" rx="55.42" ry="18"/>
<text text-anchor="middle" x="376.17" y="-229.32" font-family="Times,serif" font-size="14.00" fill="white">bfiocpp ✓</text>
</a>
</g>
</g>
<!-- gz&#45;sim&#45;yarp&#45;plugins&#45;&gt;bfiocpp -->
<!-- protobuf&#45;c -->
<g id="node57" class="node">
<title>protobuf&#45;c</title>
<g id="a_node57"><a xlink:href="https://github.com/conda-forge/protobuf-c-feedstock/pull/5" xlink:title="protobuf c ❎">
<ellipse fill="#31688e" stroke="black" cx="376.17" cy="-162" rx="78.04" ry="18"/>
<text text-anchor="middle" x="376.17" y="-157.32" font-family="Times,serif" font-size="14.00" fill="white">protobuf c ❎</text>
</a>
</g>
</g>
<!-- bfiocpp&#45;&gt;protobuf&#45;c -->
<!-- mysqlx&#45;connector&#45;python -->
<g id="node58" class="node">
<title>mysqlx&#45;connector&#45;python</title>
<g id="a_node58"><a xlink:href="https://github.com/conda-forge/mysqlx-connector-python-feedstock/pull/10" xlink:title="mysqlx connector python ✓">
<ellipse fill="#31688e" stroke="black" cx="376.17" cy="-90" rx="145.38" ry="18"/>
<text text-anchor="middle" x="376.17" y="-85.33" font-family="Times,serif" font-size="14.00" fill="white">mysqlx connector python ✓</text>
</a>
</g>
</g>
<!-- protobuf&#45;c&#45;&gt;mysqlx&#45;connector&#45;python -->
<!-- dydx&#45;v4&#45;proto&#45;cpp -->
<g id="node59" class="node">
<title>dydx&#45;v4&#45;proto&#45;cpp</title>
<g id="a_node59"><a xlink:href="https://github.com/conda-forge/dydx-v4-proto-cpp-feedstock" xlink:title="dydx v4 proto cpp">
<ellipse fill="#35b779" stroke="black" cx="376.17" cy="-18" rx="101.71" ry="18"/>
<text text-anchor="middle" x="376.17" y="-13.32" font-family="Times,serif" font-size="14.00">dydx v4 proto cpp</text>
</a>
</g>
</g>
<!-- mysqlx&#45;connector&#45;python&#45;&gt;dydx&#45;v4&#45;proto&#45;cpp -->
</g>
</svg>
