<?xml version="1.0" encoding="UTF-8" standalone="no"?>
<!DOCTYPE svg PUBLIC "-//W3C//DTD SVG 1.1//EN"
 "http://www.w3.org/Graphics/SVG/1.1/DTD/svg11.dtd">
<!-- Generated by graphviz version 12.0.0 (20240803.0821)
 -->
<!-- Pages: 1 -->
<svg width="1562pt" height="1024pt"
 viewBox="0.00 0.00 1562.29 1024.00" xmlns="http://www.w3.org/2000/svg" xmlns:xlink="http://www.w3.org/1999/xlink">
<g id="graph0" class="graph" transform="scale(1 1) rotate(0) translate(4 1020)">
<polygon fill="white" stroke="none" points="-4,4 -4,-1020 1558.29,-1020 1558.29,4 -4,4"/>
<!-- arrow&#45;cpp -->
<g id="node1" class="node">
<title>arrow&#45;cpp</title>
<g id="a_node1"><a xlink:href="https://github.com/conda-forge/arrow-cpp-feedstock" xlink:title="arrow cpp">
<ellipse fill="#fde725" stroke="black" cx="169.84" cy="-710" rx="61.73" ry="18"/>
<text text-anchor="middle" x="169.84" y="-705.33" font-family="Times,serif" font-size="14.00">arrow cpp</text>
</a>
</g>
</g>
<!-- datafusion -->
<g id="node2" class="node">
<title>datafusion</title>
<g id="a_node2"><a xlink:href="https://github.com/conda-forge/datafusion-feedstock" xlink:title="datafusion">
<ellipse fill="#fde725" stroke="black" cx="63.84" cy="-638" rx="63.84" ry="18"/>
<text text-anchor="middle" x="63.84" y="-633.33" font-family="Times,serif" font-size="14.00">datafusion</text>
</a>
</g>
</g>
<!-- arrow&#45;cpp&#45;&gt;datafusion -->
<g id="edge1" class="edge">
<title>arrow&#45;cpp&#45;&gt;datafusion</title>
<path fill="none" stroke="black" d="M145.78,-693.12C131.52,-683.7 113.22,-671.61 97.53,-661.25"/>
<polygon fill="black" stroke="black" points="99.7,-658.49 89.42,-655.9 95.84,-664.33 99.7,-658.49"/>
</g>
<!-- arcticdb -->
<g id="node3" class="node">
<title>arcticdb</title>
<g id="a_node3"><a xlink:href="https://github.com/conda-forge/arcticdb-feedstock" xlink:title="arcticdb">
<ellipse fill="#fde725" stroke="black" cx="148.84" cy="-566" rx="52.26" ry="18"/>
<text text-anchor="middle" x="148.84" y="-561.33" font-family="Times,serif" font-size="14.00">arcticdb</text>
</a>
</g>
</g>
<!-- arrow&#45;cpp&#45;&gt;arcticdb -->
<g id="edge2" class="edge">
<title>arrow&#45;cpp&#45;&gt;arcticdb</title>
<path fill="none" stroke="black" d="M167.26,-691.59C163.71,-667.61 157.29,-624.14 153.04,-595.42"/>
<polygon fill="black" stroke="black" points="156.51,-594.99 151.59,-585.61 149.59,-596.01 156.51,-594.99"/>
</g>
<!-- csp -->
<g id="node4" class="node">
<title>csp</title>
<g id="a_node4"><a xlink:href="https://github.com/conda-forge/csp-feedstock" xlink:title="csp">
<ellipse fill="#fde725" stroke="black" cx="228.84" cy="-494" rx="28.06" ry="18"/>
<text text-anchor="middle" x="228.84" y="-489.32" font-family="Times,serif" font-size="14.00">csp</text>
</a>
</g>
</g>
<!-- arrow&#45;cpp&#45;&gt;csp -->
<g id="edge3" class="edge">
<title>arrow&#45;cpp&#45;&gt;csp</title>
<path fill="none" stroke="black" d="M175.95,-691.77C184.31,-667.81 199.47,-622.97 209.84,-584 215.18,-563.9 220.05,-540.94 223.52,-523.38"/>
<polygon fill="black" stroke="black" points="226.94,-524.15 225.41,-513.67 220.07,-522.82 226.94,-524.15"/>
</g>
<!-- bazel -->
<g id="node5" class="node">
<title>bazel</title>
<g id="a_node5"><a xlink:href="https://github.com/conda-forge/bazel-feedstock/pull/253" xlink:title="bazel ❎">
<ellipse fill="#31688e" stroke="black" cx="1408.91" cy="-998" rx="52.79" ry="18"/>
<text text-anchor="middle" x="1408.91" y="-993.33" font-family="Times,serif" font-size="14.00" fill="white">bazel ❎</text>
</a>
</g>
</g>
<!-- mosh -->
<g id="node6" class="node">
<title>mosh</title>
<g id="a_node6"><a xlink:href="https://github.com/conda-forge/mosh-feedstock/pull/42" xlink:title="mosh ✓">
<ellipse fill="#31688e" stroke="black" cx="1408.91" cy="-926" rx="45.95" ry="18"/>
<text text-anchor="middle" x="1408.91" y="-921.33" font-family="Times,serif" font-size="14.00" fill="white">mosh ✓</text>
</a>
</g>
</g>
<!-- bazel&#45;&gt;mosh -->
<!-- mysql -->
<g id="node7" class="node">
<title>mysql</title>
<g id="a_node7"><a xlink:href="https://github.com/conda-forge/mysql-feedstock/pull/107" xlink:title="mysql ❎">
<ellipse fill="#31688e" stroke="black" cx="1408.91" cy="-854" rx="56.47" ry="18"/>
<text text-anchor="middle" x="1408.91" y="-849.33" font-family="Times,serif" font-size="14.00" fill="white">mysql ❎</text>
</a>
</g>
</g>
<!-- mosh&#45;&gt;mysql -->
<!-- onnx -->
<g id="node8" class="node">
<title>onnx</title>
<g id="a_node8"><a xlink:href="https://github.com/conda-forge/onnx-feedstock/pull/125" xlink:title="onnx ❎">
<ellipse fill="#31688e" stroke="black" cx="1408.91" cy="-782" rx="50.68" ry="18"/>
<text text-anchor="middle" x="1408.91" y="-777.33" font-family="Times,serif" font-size="14.00" fill="white">onnx ❎</text>
</a>
</g>
</g>
<!-- mysql&#45;&gt;onnx -->
<!-- paraview -->
<g id="node9" class="node">
<title>paraview</title>
<g id="a_node9"><a xlink:href="https://github.com/conda-forge/paraview-feedstock/pull/269" xlink:title="paraview ❎">
<ellipse fill="#31688e" stroke="black" cx="1408.91" cy="-710" rx="72.25" ry="18"/>
<text text-anchor="middle" x="1408.91" y="-705.33" font-family="Times,serif" font-size="14.00" fill="white">paraview ❎</text>
</a>
</g>
</g>
<!-- onnx&#45;&gt;paraview -->
<!-- qgis -->
<g id="node14" class="node">
<title>qgis</title>
<g id="a_node14"><a xlink:href="https://github.com/conda-forge/qgis-feedstock/pull/495" xlink:title="qgis ❎">
<ellipse fill="#31688e" stroke="black" cx="1408.91" cy="-638" rx="47.53" ry="18"/>
<text text-anchor="middle" x="1408.91" y="-633.33" font-family="Times,serif" font-size="14.00" fill="white">qgis ❎</text>
</a>
</g>
</g>
<!-- paraview&#45;&gt;qgis -->
<!-- opencv -->
<g id="node10" class="node">
<title>opencv</title>
<g id="a_node10"><a xlink:href="https://github.com/conda-forge/opencv-feedstock" xlink:title="opencv">
<ellipse fill="#fde725" stroke="black" cx="197.9" cy="-162" rx="46.47" ry="18"/>
<text text-anchor="middle" x="197.9" y="-157.32" font-family="Times,serif" font-size="14.00">opencv</text>
</a>
</g>
</g>
<!-- imp -->
<g id="node11" class="node">
<title>imp</title>
<g id="a_node11"><a xlink:href="https://github.com/conda-forge/imp-feedstock" xlink:title="imp">
<ellipse fill="#fde725" stroke="black" cx="168.9" cy="-90" rx="30.16" ry="18"/>
<text text-anchor="middle" x="168.9" y="-85.33" font-family="Times,serif" font-size="14.00">imp</text>
</a>
</g>
</g>
<!-- opencv&#45;&gt;imp -->
<g id="edge8" class="edge">
<title>opencv&#45;&gt;imp</title>
<path fill="none" stroke="black" d="M190.88,-144.05C187.67,-136.32 183.79,-126.96 180.19,-118.27"/>
<polygon fill="black" stroke="black" points="183.49,-117.09 176.43,-109.19 177.03,-119.77 183.49,-117.09"/>
</g>
<!-- gazebo&#45;yarp&#45;plugins -->
<g id="node12" class="node">
<title>gazebo&#45;yarp&#45;plugins</title>
<g id="a_node12"><a xlink:href="https://github.com/conda-forge/gazebo-yarp-plugins-feedstock" xlink:title="gazebo yarp plugins">
<ellipse fill="#fde725" stroke="black" cx="465.9" cy="-90" rx="112.24" ry="18"/>
<text text-anchor="middle" x="465.9" y="-85.33" font-family="Times,serif" font-size="14.00">gazebo yarp plugins</text>
</a>
</g>
</g>
<!-- opencv&#45;&gt;gazebo&#45;yarp&#45;plugins -->
<g id="edge9" class="edge">
<title>opencv&#45;&gt;gazebo&#45;yarp&#45;plugins</title>
<path fill="none" stroke="black" d="M233.02,-149.82C239.61,-147.82 246.45,-145.8 252.9,-144 299.3,-131.07 351.81,-117.98 393.09,-108.05"/>
<polygon fill="black" stroke="black" points="393.76,-111.49 402.67,-105.75 392.13,-104.68 393.76,-111.49"/>
</g>
<!-- nvidia&#45;dali&#45;python -->
<g id="node13" class="node">
<title>nvidia&#45;dali&#45;python</title>
<g id="a_node13"><a xlink:href="https://github.com/conda-forge/nvidia-dali-python-feedstock" xlink:title="nvidia dali python">
<ellipse fill="#fde725" stroke="black" cx="226.9" cy="-18" rx="101.19" ry="18"/>
<text text-anchor="middle" x="226.9" y="-13.32" font-family="Times,serif" font-size="14.00">nvidia dali python</text>
</a>
</g>
</g>
<!-- opencv&#45;&gt;nvidia&#45;dali&#45;python -->
<g id="edge10" class="edge">
<title>opencv&#45;&gt;nvidia&#45;dali&#45;python</title>
<path fill="none" stroke="black" d="M201.45,-143.59C206.37,-119.5 215.31,-75.75 221.17,-47.03"/>
<polygon fill="black" stroke="black" points="224.53,-48.09 223.1,-37.59 217.67,-46.69 224.53,-48.09"/>
</g>
<!-- tensorflow -->
<g id="node15" class="node">
<title>tensorflow</title>
<g id="a_node15"><a xlink:href="https://github.com/conda-forge/tensorflow-feedstock/pull/411" xlink:title="tensorflow ❎">
<ellipse fill="#31688e" stroke="black" cx="1408.91" cy="-566" rx="79.09" ry="18"/>
<text text-anchor="middle" x="1408.91" y="-561.33" font-family="Times,serif" font-size="14.00" fill="white">tensorflow ❎</text>
</a>
</g>
</g>
<!-- qgis&#45;&gt;tensorflow -->
<!-- pytorch&#45;cpu -->
<g id="node16" class="node">
<title>pytorch&#45;cpu</title>
<g id="a_node16"><a xlink:href="https://github.com/conda-forge/pytorch-cpu-feedstock/pull/310" xlink:title="pytorch cpu ❎">
<ellipse fill="#31688e" stroke="black" cx="1408.91" cy="-494" rx="85.93" ry="18"/>
<text text-anchor="middle" x="1408.91" y="-489.32" font-family="Times,serif" font-size="14.00" fill="white">pytorch cpu ❎</text>
</a>
</g>
</g>
<!-- tensorflow&#45;&gt;pytorch&#45;cpu -->
<!-- go&#45;cockroach -->
<g id="node17" class="node">
<title>go&#45;cockroach</title>
<g id="a_node17"><a xlink:href="https://github.com/conda-forge/go-cockroach-feedstock/pull/30" xlink:title="go cockroach ❎">
<ellipse fill="#31688e" stroke="black" cx="1408.91" cy="-422" rx="91.72" ry="18"/>
<text text-anchor="middle" x="1408.91" y="-417.32" font-family="Times,serif" font-size="14.00" fill="white">go cockroach ❎</text>
</a>
</g>
</g>
<!-- pytorch&#45;cpu&#45;&gt;go&#45;cockroach -->
<!-- tomviz -->
<g id="node21" class="node">
<title>tomviz</title>
<g id="a_node21"><a xlink:href="https://github.com/conda-forge/tomviz-feedstock/pull/70" xlink:title="tomviz ❎">
<ellipse fill="#31688e" stroke="black" cx="1408.91" cy="-350" rx="60.15" ry="18"/>
<text text-anchor="middle" x="1408.91" y="-345.32" font-family="Times,serif" font-size="14.00" fill="white">tomviz ❎</text>
</a>
</g>
</g>
<!-- go&#45;cockroach&#45;&gt;tomviz -->
<!-- orc -->
<g id="node18" class="node">
<title>orc</title>
<g id="a_node18"><a xlink:href="https://github.com/conda-forge/orc-feedstock/pull/82" xlink:title="orc ✓">
<ellipse fill="#31688e" stroke="black" cx="169.84" cy="-782" rx="34.9" ry="18"/>
<text text-anchor="middle" x="169.84" y="-777.33" font-family="Times,serif" font-size="14.00" fill="white">orc ✓</text>
</a>
</g>
</g>
<!-- orc&#45;&gt;arrow&#45;cpp -->
<g id="edge15" class="edge">
<title>orc&#45;&gt;arrow&#45;cpp</title>
<path fill="none" stroke="black" d="M169.84,-763.7C169.84,-756.41 169.84,-747.73 169.84,-739.54"/>
<polygon fill="black" stroke="black" points="173.34,-739.62 169.84,-729.62 166.34,-739.62 173.34,-739.62"/>
</g>
<!-- gazebo -->
<g id="node19" class="node">
<title>gazebo</title>
<g id="a_node19"><a xlink:href="https://github.com/conda-forge/gazebo-feedstock/pull/236" xlink:title="gazebo ❎">
<ellipse fill="#31688e" stroke="black" cx="564.9" cy="-162" rx="61.73" ry="18"/>
<text text-anchor="middle" x="564.9" y="-157.32" font-family="Times,serif" font-size="14.00" fill="white">gazebo ❎</text>
</a>
</g>
</g>
<!-- gazebo&#45;&gt;gazebo&#45;yarp&#45;plugins -->
<g id="edge16" class="edge">
<title>gazebo&#45;&gt;gazebo&#45;yarp&#45;plugins</title>
<path fill="none" stroke="black" d="M542.43,-145.12C529.61,-136.05 513.3,-124.51 499.03,-114.42"/>
<polygon fill="black" stroke="black" points="501.43,-111.83 491.24,-108.92 497.38,-117.55 501.43,-111.83"/>
</g>
<!-- google&#45;cloud&#45;cpp -->
<g id="node20" class="node">
<title>google&#45;cloud&#45;cpp</title>
<g id="a_node20"><a xlink:href="https://github.com/conda-forge/google-cloud-cpp-feedstock" xlink:title="google cloud cpp">
<ellipse fill="#fde725" stroke="black" cx="402.84" cy="-494" rx="95.4" ry="18"/>
<text text-anchor="middle" x="402.84" y="-489.32" font-family="Times,serif" font-size="14.00">google cloud cpp</text>
</a>
</g>
</g>
<!-- protozfits -->
<g id="node22" class="node">
<title>protozfits</title>
<g id="a_node22"><a xlink:href="https://github.com/conda-forge/protozfits-feedstock/pull/46" xlink:title="protozfits ✓">
<ellipse fill="#31688e" stroke="black" cx="1408.91" cy="-278" rx="66.99" ry="18"/>
<text text-anchor="middle" x="1408.91" y="-273.32" font-family="Times,serif" font-size="14.00" fill="white">protozfits ✓</text>
</a>
</g>
</g>
<!-- tomviz&#45;&gt;protozfits -->
<!-- libignition&#45;launch -->
<g id="node23" class="node">
<title>libignition&#45;launch</title>
<g id="a_node23"><a xlink:href="https://github.com/conda-forge/libignition-launch-feedstock/pull/32" xlink:title="libignition launch ❎">
<ellipse fill="#31688e" stroke="black" cx="1007.93" cy="-998" rx="113.82" ry="18"/>
<text text-anchor="middle" x="1007.93" y="-993.33" font-family="Times,serif" font-size="14.00" fill="white">libignition launch ❎</text>
</a>
</g>
</g>
<!-- or&#45;tools -->
<g id="node24" class="node">
<title>or&#45;tools</title>
<g id="a_node24"><a xlink:href="https://github.com/conda-forge/or-tools-feedstock/pull/64" xlink:title="or tools ❎">
<ellipse fill="#31688e" stroke="black" cx="1007.93" cy="-926" rx="64.36" ry="18"/>
<text text-anchor="middle" x="1007.93" y="-921.33" font-family="Times,serif" font-size="14.00" fill="white">or tools ❎</text>
</a>
</g>
</g>
<!-- libignition&#45;launch&#45;&gt;or&#45;tools -->
<!-- cpp&#45;opentelemetry&#45;sdk -->
<g id="node25" class="node">
<title>cpp&#45;opentelemetry&#45;sdk</title>
<g id="a_node25"><a xlink:href="https://github.com/conda-forge/cpp-opentelemetry-sdk-feedstock/pull/74" xlink:title="cpp opentelemetry sdk ❎">
<ellipse fill="#31688e" stroke="black" cx="1007.93" cy="-854" rx="141.17" ry="18"/>
<text text-anchor="middle" x="1007.93" y="-849.33" font-family="Times,serif" font-size="14.00" fill="white">cpp opentelemetry sdk ❎</text>
</a>
</g>
</g>
<!-- or&#45;tools&#45;&gt;cpp&#45;opentelemetry&#45;sdk -->
<!-- xilinx&#45;runtime -->
<g id="node26" class="node">
<title>xilinx&#45;runtime</title>
<g id="a_node26"><a xlink:href="https://github.com/conda-forge/xilinx-runtime-feedstock/pull/39" xlink:title="xilinx runtime ❎">
<ellipse fill="#31688e" stroke="black" cx="1007.93" cy="-782" rx="96.98" ry="18"/>
<text text-anchor="middle" x="1007.93" y="-777.33" font-family="Times,serif" font-size="14.00" fill="white">xilinx runtime ❎</text>
</a>
</g>
</g>
<!-- cpp&#45;opentelemetry&#45;sdk&#45;&gt;xilinx&#45;runtime -->
<!-- libpulsar -->
<g id="node27" class="node">
<title>libpulsar</title>
<g id="a_node27"><a xlink:href="https://github.com/conda-forge/libpulsar-feedstock/pull/24" xlink:title="libpulsar ✓">
<ellipse fill="#31688e" stroke="black" cx="1007.93" cy="-710" rx="63.31" ry="18"/>
<text text-anchor="middle" x="1007.93" y="-705.33" font-family="Times,serif" font-size="14.00" fill="white">libpulsar ✓</text>
</a>
</g>
</g>
<!-- xilinx&#45;runtime&#45;&gt;libpulsar -->
<!-- gnss&#45;sdr -->
<g id="node36" class="node">
<title>gnss&#45;sdr</title>
<g id="a_node36"><a xlink:href="https://github.com/conda-forge/gnss-sdr-feedstock/pull/32" xlink:title="gnss sdr ✓">
<ellipse fill="#31688e" stroke="black" cx="1007.93" cy="-638" rx="61.73" ry="18"/>
<text text-anchor="middle" x="1007.93" y="-633.33" font-family="Times,serif" font-size="14.00" fill="white">gnss sdr ✓</text>
</a>
</g>
</g>
<!-- libpulsar&#45;&gt;gnss&#45;sdr -->
<!-- gz&#45;transport -->
<g id="node28" class="node">
<title>gz&#45;transport</title>
<g id="a_node28"><a xlink:href="https://github.com/conda-forge/gz-transport-feedstock/pull/52" xlink:title="gz transport ❎">
<ellipse fill="#31688e" stroke="black" cx="1144.85" cy="-234" rx="88.56" ry="18"/>
<text text-anchor="middle" x="1144.85" y="-229.32" font-family="Times,serif" font-size="14.00" fill="white">gz transport ❎</text>
</a>
</g>
</g>
<!-- gz&#45;gui -->
<g id="node29" class="node">
<title>gz&#45;gui</title>
<g id="a_node29"><a xlink:href="https://github.com/conda-forge/gz-gui-feedstock" xlink:title="gz gui">
<ellipse fill="#fde725" stroke="black" cx="1179.85" cy="-162" rx="41.74" ry="18"/>
<text text-anchor="middle" x="1179.85" y="-157.32" font-family="Times,serif" font-size="14.00">gz gui</text>
</a>
</g>
</g>
<!-- gz&#45;transport&#45;&gt;gz&#45;gui -->
<g id="edge23" class="edge">
<title>gz&#45;transport&#45;&gt;gz&#45;gui</title>
<path fill="none" stroke="black" d="M1153.5,-215.7C1157.31,-208.07 1161.89,-198.92 1166.15,-190.4"/>
<polygon fill="black" stroke="black" points="1169.28,-191.97 1170.62,-181.46 1163.02,-188.84 1169.28,-191.97"/>
</g>
<!-- gz&#45;sensors -->
<g id="node30" class="node">
<title>gz&#45;sensors</title>
<g id="a_node30"><a xlink:href="https://github.com/conda-forge/gz-sensors-feedstock" xlink:title="gz sensors">
<ellipse fill="#fde725" stroke="black" cx="1017.85" cy="-162" rx="64.36" ry="18"/>
<text text-anchor="middle" x="1017.85" y="-157.32" font-family="Times,serif" font-size="14.00">gz sensors</text>
</a>
</g>
</g>
<!-- gz&#45;transport&#45;&gt;gz&#45;sensors -->
<g id="edge24" class="edge">
<title>gz&#45;transport&#45;&gt;gz&#45;sensors</title>
<path fill="none" stroke="black" d="M1115.07,-216.59C1097.5,-206.9 1075.08,-194.55 1056.2,-184.14"/>
<polygon fill="black" stroke="black" points="1057.9,-181.08 1047.46,-179.32 1054.52,-187.21 1057.9,-181.08"/>
</g>
<!-- gz&#45;sim -->
<g id="node31" class="node">
<title>gz&#45;sim</title>
<g id="a_node31"><a xlink:href="https://github.com/conda-forge/gz-sim-feedstock" xlink:title="gz sim">
<ellipse fill="#fde725" stroke="black" cx="1108.85" cy="-90" rx="43.84" ry="18"/>
<text text-anchor="middle" x="1108.85" y="-85.33" font-family="Times,serif" font-size="14.00">gz sim</text>
</a>
</g>
</g>
<!-- gz&#45;transport&#45;&gt;gz&#45;sim -->
<g id="edge25" class="edge">
<title>gz&#45;transport&#45;&gt;gz&#45;sim</title>
<path fill="none" stroke="black" d="M1139.34,-215.9C1136.1,-205.56 1132.03,-192.08 1128.85,-180 1123.55,-159.84 1118.41,-136.88 1114.67,-119.33"/>
<polygon fill="black" stroke="black" points="1118.11,-118.7 1112.63,-109.63 1111.26,-120.14 1118.11,-118.7"/>
</g>
<!-- gz&#45;launch -->
<g id="node32" class="node">
<title>gz&#45;launch</title>
<g id="a_node32"><a xlink:href="https://github.com/conda-forge/gz-launch-feedstock" xlink:title="gz launch">
<ellipse fill="#fde725" stroke="black" cx="1180.85" cy="-18" rx="59.1" ry="18"/>
<text text-anchor="middle" x="1180.85" y="-13.32" font-family="Times,serif" font-size="14.00">gz launch</text>
</a>
</g>
</g>
<!-- gz&#45;transport&#45;&gt;gz&#45;launch -->
<g id="edge26" class="edge">
<title>gz&#45;transport&#45;&gt;gz&#45;launch</title>
<path fill="none" stroke="black" d="M1186.78,-217.84C1203.61,-209.44 1221.27,-197.15 1230.85,-180 1255.52,-135.81 1224.05,-77.85 1201.02,-44.9"/>
<polygon fill="black" stroke="black" points="1204.1,-43.18 1195.4,-37.13 1198.43,-47.28 1204.1,-43.18"/>
</g>
<!-- gz&#45;gui&#45;&gt;gz&#45;sim -->
<g id="edge27" class="edge">
<title>gz&#45;gui&#45;&gt;gz&#45;sim</title>
<path fill="none" stroke="black" d="M1163.74,-145.12C1154.66,-136.17 1143.14,-124.81 1133,-114.81"/>
<polygon fill="black" stroke="black" points="1135.55,-112.41 1125.97,-107.88 1130.64,-117.4 1135.55,-112.41"/>
</g>
<!-- gz&#45;gui&#45;&gt;gz&#45;launch -->
<g id="edge28" class="edge">
<title>gz&#45;gui&#45;&gt;gz&#45;launch</title>
<path fill="none" stroke="black" d="M1179.97,-143.59C1180.14,-119.61 1180.45,-76.14 1180.65,-47.42"/>
<polygon fill="black" stroke="black" points="1184.15,-47.65 1180.72,-37.62 1177.15,-47.6 1184.15,-47.65"/>
</g>
<!-- gz&#45;sensors&#45;&gt;gz&#45;sim -->
<g id="edge29" class="edge">
<title>gz&#45;sensors&#45;&gt;gz&#45;sim</title>
<path fill="none" stroke="black" d="M1038.95,-144.76C1051.15,-135.38 1066.68,-123.44 1079.99,-113.2"/>
<polygon fill="black" stroke="black" points="1081.8,-116.22 1087.59,-107.35 1077.53,-110.67 1081.8,-116.22"/>
</g>
<!-- gz&#45;sim&#45;&gt;gz&#45;launch -->
<g id="edge30" class="edge">
<title>gz&#45;sim&#45;&gt;gz&#45;launch</title>
<path fill="none" stroke="black" d="M1125.19,-73.12C1134.2,-64.36 1145.58,-53.29 1155.7,-43.45"/>
<polygon fill="black" stroke="black" points="1158.01,-46.09 1162.74,-36.61 1153.13,-41.07 1158.01,-46.09"/>
</g>
<!-- gz&#45;fuel&#45;tools -->
<g id="node33" class="node">
<title>gz&#45;fuel&#45;tools</title>
<g id="a_node33"><a xlink:href="https://github.com/conda-forge/gz-fuel-tools-feedstock/pull/45" xlink:title="gz fuel tools ❎">
<ellipse fill="#31688e" stroke="black" cx="847.85" cy="-162" rx="87.51" ry="18"/>
<text text-anchor="middle" x="847.85" y="-157.32" font-family="Times,serif" font-size="14.00" fill="white">gz fuel tools ❎</text>
</a>
</g>
</g>
<!-- gz&#45;fuel&#45;tools&#45;&gt;gz&#45;sim -->
<g id="edge31" class="edge">
<title>gz&#45;fuel&#45;tools&#45;&gt;gz&#45;sim</title>
<path fill="none" stroke="black" d="M899.73,-147.09C947.01,-134.41 1016.24,-115.84 1061.91,-103.59"/>
<polygon fill="black" stroke="black" points="1062.77,-106.98 1071.52,-101.01 1060.96,-100.22 1062.77,-106.98"/>
</g>
<!-- openvino -->
<g id="node34" class="node">
<title>openvino</title>
<g id="a_node34"><a xlink:href="https://github.com/conda-forge/openvino-feedstock/pull/117" xlink:title="openvino ❎">
<ellipse fill="#31688e" stroke="black" cx="285.9" cy="-234" rx="71.73" ry="18"/>
<text text-anchor="middle" x="285.9" y="-229.32" font-family="Times,serif" font-size="14.00" fill="white">openvino ❎</text>
</a>
</g>
</g>
<!-- openvino&#45;&gt;opencv -->
<g id="edge32" class="edge">
<title>openvino&#45;&gt;opencv</title>
<path fill="none" stroke="black" d="M265.04,-216.41C253.51,-207.24 239.01,-195.7 226.44,-185.7"/>
<polygon fill="black" stroke="black" points="228.89,-183.18 218.88,-179.69 224.53,-188.66 228.89,-183.18"/>
</g>
<!-- openvino&#45;tokenizers -->
<g id="node35" class="node">
<title>openvino&#45;tokenizers</title>
<g id="a_node35"><a xlink:href="https://github.com/conda-forge/openvino-tokenizers-feedstock" xlink:title="openvino tokenizers">
<ellipse fill="#fde725" stroke="black" cx="373.9" cy="-162" rx="111.71" ry="18"/>
<text text-anchor="middle" x="373.9" y="-157.32" font-family="Times,serif" font-size="14.00">openvino tokenizers</text>
</a>
</g>
</g>
<!-- openvino&#45;&gt;openvino&#45;tokenizers -->
<g id="edge33" class="edge">
<title>openvino&#45;&gt;openvino&#45;tokenizers</title>
<path fill="none" stroke="black" d="M306.75,-216.41C317.77,-207.65 331.49,-196.73 343.66,-187.06"/>
<polygon fill="black" stroke="black" points="345.75,-189.86 351.4,-180.9 341.39,-184.38 345.75,-189.86"/>
</g>
<!-- tensorstore -->
<g id="node37" class="node">
<title>tensorstore</title>
<g id="a_node37"><a xlink:href="https://github.com/conda-forge/tensorstore-feedstock/pull/52" xlink:title="tensorstore ❎">
<ellipse fill="#31688e" stroke="black" cx="1007.93" cy="-566" rx="84.35" ry="18"/>
<text text-anchor="middle" x="1007.93" y="-561.33" font-family="Times,serif" font-size="14.00" fill="white">tensorstore ❎</text>
</a>
</g>
</g>
<!-- gnss&#45;sdr&#45;&gt;tensorstore -->
<!-- gcld3 -->
<g id="node38" class="node">
<title>gcld3</title>
<g id="a_node38"><a xlink:href="https://github.com/conda-forge/gcld3-feedstock/pull/15" xlink:title="gcld3 ✓">
<ellipse fill="#31688e" stroke="black" cx="1007.93" cy="-494" rx="46.47" ry="18"/>
<text text-anchor="middle" x="1007.93" y="-489.32" font-family="Times,serif" font-size="14.00" fill="white">gcld3 ✓</text>
</a>
</g>
</g>
<!-- tensorstore&#45;&gt;gcld3 -->
<!-- bloaty -->
<g id="node39" class="node">
<title>bloaty</title>
<g id="a_node39"><a xlink:href="https://github.com/conda-forge/bloaty-feedstock/pull/6" xlink:title="bloaty ✓">
<ellipse fill="#31688e" stroke="black" cx="1007.93" cy="-422" rx="50.16" ry="18"/>
<text text-anchor="middle" x="1007.93" y="-417.32" font-family="Times,serif" font-size="14.00" fill="white">bloaty ✓</text>
</a>
</g>
</g>
<!-- gcld3&#45;&gt;bloaty -->
<!-- gz&#45;sim&#45;yarp&#45;plugins -->
<g id="node44" class="node">
<title>gz&#45;sim&#45;yarp&#45;plugins</title>
<g id="a_node44"><a xlink:href="https://github.com/conda-forge/gz-sim-yarp-plugins-feedstock/pull/16" xlink:title="gz sim yarp plugins ❎">
<ellipse fill="#31688e" stroke="black" cx="1007.93" cy="-350" rx="124.86" ry="18"/>
<text text-anchor="middle" x="1007.93" y="-345.32" font-family="Times,serif" font-size="14.00" fill="white">gz sim yarp plugins ❎</text>
</a>
</g>
</g>
<!-- bloaty&#45;&gt;gz&#45;sim&#45;yarp&#45;plugins -->
<!-- google&#45;cloud&#45;cpp&#45;core -->
<g id="node40" class="node">
<title>google&#45;cloud&#45;cpp&#45;core</title>
<g id="a_node40"><a xlink:href="https://github.com/conda-forge/google-cloud-cpp-core-feedstock/pull/30" xlink:title="google cloud cpp core ❎">
<ellipse fill="#31688e" stroke="black" cx="436.84" cy="-782" rx="135.39" ry="18"/>
<text text-anchor="middle" x="436.84" y="-777.33" font-family="Times,serif" font-size="14.00" fill="white">google cloud cpp core ❎</text>
</a>
</g>
</g>
<!-- google&#45;cloud&#45;cpp&#45;core&#45;&gt;arrow&#45;cpp -->
<g id="edge38" class="edge">
<title>google&#45;cloud&#45;cpp&#45;core&#45;&gt;arrow&#45;cpp</title>
<path fill="none" stroke="black" d="M377.25,-765.38C331.91,-753.49 269.96,-737.25 225.59,-725.62"/>
<polygon fill="black" stroke="black" points="226.74,-722.3 216.18,-723.15 224.96,-729.07 226.74,-722.3"/>
</g>
<!-- google&#45;cloud&#45;cpp&#45;core&#45;&gt;google&#45;cloud&#45;cpp -->
<g id="edge39" class="edge">
<title>google&#45;cloud&#45;cpp&#45;core&#45;&gt;google&#45;cloud&#45;cpp</title>
<path fill="none" stroke="black" d="M345.76,-768.39C322.49,-760.58 300.05,-748.06 285.84,-728 236.06,-657.77 324.79,-563.31 373.72,-519.37"/>
<polygon fill="black" stroke="black" points="376.03,-522.01 381.22,-512.77 371.4,-516.75 376.03,-522.01"/>
</g>
<!-- google&#45;cloud&#45;cpp&#45;compute -->
<g id="node41" class="node">
<title>google&#45;cloud&#45;cpp&#45;compute</title>
<g id="a_node41"><a xlink:href="https://github.com/conda-forge/google-cloud-cpp-compute-feedstock" xlink:title="google cloud cpp compute">
<ellipse fill="#fde725" stroke="black" cx="436.84" cy="-710" rx="141.7" ry="18"/>
<text text-anchor="middle" x="436.84" y="-705.33" font-family="Times,serif" font-size="14.00">google cloud cpp compute</text>
</a>
</g>
</g>
<!-- google&#45;cloud&#45;cpp&#45;core&#45;&gt;google&#45;cloud&#45;cpp&#45;compute -->
<g id="edge40" class="edge">
<title>google&#45;cloud&#45;cpp&#45;core&#45;&gt;google&#45;cloud&#45;cpp&#45;compute</title>
<path fill="none" stroke="black" d="M436.84,-763.7C436.84,-756.41 436.84,-747.73 436.84,-739.54"/>
<polygon fill="black" stroke="black" points="440.34,-739.62 436.84,-729.62 433.34,-739.62 440.34,-739.62"/>
</g>
<!-- google&#45;cloud&#45;cpp&#45;bigquery -->
<g id="node42" class="node">
<title>google&#45;cloud&#45;cpp&#45;bigquery</title>
<g id="a_node42"><a xlink:href="https://github.com/conda-forge/google-cloud-cpp-bigquery-feedstock" xlink:title="google cloud cpp bigquery">
<ellipse fill="#fde725" stroke="black" cx="524.84" cy="-638" rx="143.28" ry="18"/>
<text text-anchor="middle" x="524.84" y="-633.33" font-family="Times,serif" font-size="14.00">google cloud cpp bigquery</text>
</a>
</g>
</g>
<!-- google&#45;cloud&#45;cpp&#45;core&#45;&gt;google&#45;cloud&#45;cpp&#45;bigquery -->
<g id="edge41" class="edge">
<title>google&#45;cloud&#45;cpp&#45;core&#45;&gt;google&#45;cloud&#45;cpp&#45;bigquery</title>
<path fill="none" stroke="black" d="M527.91,-768.39C551.18,-760.58 573.62,-748.06 587.84,-728 597.09,-714.95 594.59,-706.51 587.84,-692 582.52,-680.59 573.41,-670.76 563.75,-662.77"/>
<polygon fill="black" stroke="black" points="566.08,-660.15 556.01,-656.88 561.84,-665.72 566.08,-660.15"/>
</g>
<!-- google&#45;cloud&#45;cpp&#45;ai -->
<g id="node43" class="node">
<title>google&#45;cloud&#45;cpp&#45;ai</title>
<g id="a_node43"><a xlink:href="https://github.com/conda-forge/google-cloud-cpp-ai-feedstock" xlink:title="google cloud cpp ai">
<ellipse fill="#fde725" stroke="black" cx="644.84" cy="-566" rx="107.5" ry="18"/>
<text text-anchor="middle" x="644.84" y="-561.33" font-family="Times,serif" font-size="14.00">google cloud cpp ai</text>
</a>
</g>
</g>
<!-- google&#45;cloud&#45;cpp&#45;core&#45;&gt;google&#45;cloud&#45;cpp&#45;ai -->
<g id="edge42" class="edge">
<title>google&#45;cloud&#45;cpp&#45;core&#45;&gt;google&#45;cloud&#45;cpp&#45;ai</title>
<path fill="none" stroke="black" d="M508.71,-766.43C539.74,-758.14 575.55,-745.77 604.84,-728 643.52,-704.52 659.52,-697.81 676.84,-656 685.38,-635.36 675.81,-611.52 664.96,-593.71"/>
<polygon fill="black" stroke="black" points="667.98,-591.94 659.56,-585.51 662.13,-595.79 667.98,-591.94"/>
</g>
<!-- google&#45;cloud&#45;cpp&#45;compute&#45;&gt;google&#45;cloud&#45;cpp -->
<g id="edge43" class="edge">
<title>google&#45;cloud&#45;cpp&#45;compute&#45;&gt;google&#45;cloud&#45;cpp</title>
<path fill="none" stroke="black" d="M406.4,-692.14C393.53,-683.23 379.9,-671.01 372.84,-656 352.29,-612.31 372.2,-555.74 387.93,-522.61"/>
<polygon fill="black" stroke="black" points="391.06,-524.19 392.37,-513.67 384.79,-521.07 391.06,-524.19"/>
</g>
<!-- google&#45;cloud&#45;cpp&#45;bigquery&#45;&gt;google&#45;cloud&#45;cpp -->
<g id="edge44" class="edge">
<title>google&#45;cloud&#45;cpp&#45;bigquery&#45;&gt;google&#45;cloud&#45;cpp</title>
<path fill="none" stroke="black" d="M510.12,-619.87C488.96,-595.24 449.78,-549.64 425.07,-520.88"/>
<polygon fill="black" stroke="black" points="427.76,-518.64 418.59,-513.34 422.45,-523.2 427.76,-518.64"/>
</g>
<!-- google&#45;cloud&#45;cpp&#45;ai&#45;&gt;google&#45;cloud&#45;cpp -->
<g id="edge45" class="edge">
<title>google&#45;cloud&#45;cpp&#45;ai&#45;&gt;google&#45;cloud&#45;cpp</title>
<path fill="none" stroke="black" d="M592.62,-549.9C554.9,-538.99 503.82,-524.21 464.16,-512.74"/>
<polygon fill="black" stroke="black" points="465.33,-509.43 454.75,-510.02 463.38,-516.16 465.33,-509.43"/>
</g>
<!-- bfiocpp -->
<g id="node45" class="node">
<title>bfiocpp</title>
<g id="a_node45"><a xlink:href="https://github.com/conda-forge/bfiocpp-feedstock/pull/12" xlink:title="bfiocpp ✓">
<ellipse fill="#31688e" stroke="black" cx="1007.93" cy="-278" rx="55.42" ry="18"/>
<text text-anchor="middle" x="1007.93" y="-273.32" font-family="Times,serif" font-size="14.00" fill="white">bfiocpp ✓</text>
</a>
</g>
</g>
<!-- gz&#45;sim&#45;yarp&#45;plugins&#45;&gt;bfiocpp -->
<!-- mysqlx&#45;connector&#45;python -->
<g id="node46" class="node">
<title>mysqlx&#45;connector&#45;python</title>
<g id="a_node46"><a xlink:href="https://github.com/conda-forge/mysqlx-connector-python-feedstock/pull/10" xlink:title="mysqlx connector python ✓">
<ellipse fill="#31688e" stroke="black" cx="1408.91" cy="-162" rx="145.38" ry="18"/>
<text text-anchor="middle" x="1408.91" y="-157.32" font-family="Times,serif" font-size="14.00" fill="white">mysqlx connector python ✓</text>
</a>
</g>
</g>
<!-- curated&#45;tokenizers -->
<g id="node47" class="node">
<title>curated&#45;tokenizers</title>
<g id="a_node47"><a xlink:href="https://github.com/conda-forge/curated-tokenizers-feedstock" xlink:title="curated tokenizers">
<ellipse fill="#35b779" stroke="black" cx="1408.91" cy="-90" rx="104.87" ry="18"/>
<text text-anchor="middle" x="1408.91" y="-85.33" font-family="Times,serif" font-size="14.00">curated tokenizers</text>
</a>
</g>
</g>
<!-- mysqlx&#45;connector&#45;python&#45;&gt;curated&#45;tokenizers -->
</g>
</svg>
