<?xml version="1.0" encoding="UTF-8" standalone="no"?>
<!DOCTYPE svg PUBLIC "-//W3C//DTD SVG 1.1//EN"
 "http://www.w3.org/Graphics/SVG/1.1/DTD/svg11.dtd">
<!-- Generated by graphviz version 12.0.0 (20240803.0821)
 -->
<!-- Pages: 1 -->
<svg width="678pt" height="188pt"
 viewBox="0.00 0.00 678.28 188.00" xmlns="http://www.w3.org/2000/svg" xmlns:xlink="http://www.w3.org/1999/xlink">
<g id="graph0" class="graph" transform="scale(1 1) rotate(0) translate(4 184)">
<polygon fill="white" stroke="none" points="-4,4 -4,-184 674.28,-184 674.28,4 -4,4"/>
<!-- fenics -->
<g id="node1" class="node">
<title>fenics</title>
<g id="a_node1"><a xlink:href="https://github.com/conda-forge/fenics-feedstock" xlink:title="fenics">
<ellipse fill="#fde725" stroke="black" cx="246.46" cy="-18" rx="40.69" ry="18"/>
<text text-anchor="middle" x="246.46" y="-13.32" font-family="Times,serif" font-size="14.00">fenics</text>
</a>
</g>
</g>
<!-- mumps -->
<g id="node2" class="node">
<title>mumps</title>
<g id="a_node2"><a xlink:href="https://github.com/conda-forge/mumps-feedstock/pull/130" xlink:title="mumps ❎">
<ellipse fill="#31688e" stroke="black" cx="213.46" cy="-162" rx="63.31" ry="18"/>
<text text-anchor="middle" x="213.46" y="-157.32" font-family="Times,serif" font-size="14.00" fill="white">mumps ❎</text>
</a>
</g>
</g>
<!-- petsc -->
<g id="node3" class="node">
<title>petsc</title>
<g id="a_node3"><a xlink:href="https://github.com/conda-forge/petsc-feedstock" xlink:title="petsc">
<ellipse fill="#fde725" stroke="black" cx="246.46" cy="-90" rx="38.06" ry="18"/>
<text text-anchor="middle" x="246.46" y="-85.33" font-family="Times,serif" font-size="14.00">petsc</text>
</a>
</g>
</g>
<!-- mumps&#45;&gt;petsc -->
<g id="edge2" class="edge">
<title>mumps&#45;&gt;petsc</title>
<path fill="none" stroke="black" d="M221.62,-143.7C225.27,-135.95 229.66,-126.64 233.73,-118.02"/>
<polygon fill="black" stroke="black" points="236.88,-119.53 237.98,-108.99 230.55,-116.54 236.88,-119.53"/>
</g>
<!-- freefem -->
<g id="node6" class="node">
<title>freefem</title>
<g id="a_node6"><a xlink:href="https://github.com/conda-forge/freefem-feedstock" xlink:title="freefem">
<ellipse fill="#fde725" stroke="black" cx="137.46" cy="-18" rx="50.16" ry="18"/>
<text text-anchor="middle" x="137.46" y="-13.32" font-family="Times,serif" font-size="14.00">freefem</text>
</a>
</g>
</g>
<!-- mumps&#45;&gt;freefem -->
<g id="edge1" class="edge">
<title>mumps&#45;&gt;freefem</title>
<path fill="none" stroke="black" d="M204.29,-143.87C191.28,-119.56 167.34,-74.82 151.92,-46.01"/>
<polygon fill="black" stroke="black" points="155.18,-44.69 147.38,-37.52 149.01,-47.99 155.18,-44.69"/>
</g>
<!-- petsc&#45;&gt;fenics -->
<g id="edge3" class="edge">
<title>petsc&#45;&gt;fenics</title>
<path fill="none" stroke="black" d="M246.46,-71.7C246.46,-64.41 246.46,-55.73 246.46,-47.54"/>
<polygon fill="black" stroke="black" points="249.96,-47.62 246.46,-37.62 242.96,-47.62 249.96,-47.62"/>
</g>
<!-- fenics&#45;dolfinx -->
<g id="node5" class="node">
<title>fenics&#45;dolfinx</title>
<g id="a_node5"><a xlink:href="https://github.com/conda-forge/fenics-dolfinx-feedstock" xlink:title="fenics dolfinx">
<ellipse fill="#fde725" stroke="black" cx="382.46" cy="-18" rx="77.51" ry="18"/>
<text text-anchor="middle" x="382.46" y="-13.32" font-family="Times,serif" font-size="14.00">fenics dolfinx</text>
</a>
</g>
</g>
<!-- petsc&#45;&gt;fenics&#45;dolfinx -->
<g id="edge4" class="edge">
<title>petsc&#45;&gt;fenics&#45;dolfinx</title>
<path fill="none" stroke="black" d="M271.41,-76.16C290.96,-66.1 318.57,-51.88 341.38,-40.15"/>
<polygon fill="black" stroke="black" points="342.83,-43.33 350.12,-35.65 339.63,-37.11 342.83,-43.33"/>
</g>
<!-- petsc&#45;&gt;freefem -->
<g id="edge5" class="edge">
<title>petsc&#45;&gt;freefem</title>
<path fill="none" stroke="black" d="M224.4,-74.83C208.87,-64.86 187.8,-51.33 170.3,-40.09"/>
<polygon fill="black" stroke="black" points="172.57,-37.39 162.27,-34.93 168.79,-43.28 172.57,-37.39"/>
</g>
<!-- neper -->
<g id="node4" class="node">
<title>neper</title>
<g id="a_node4"><a xlink:href="https://github.com/conda-forge/neper-feedstock" xlink:title="neper">
<ellipse fill="#35b779" stroke="black" cx="630.13" cy="-90" rx="40.16" ry="18"/>
<text text-anchor="middle" x="630.13" y="-85.33" font-family="Times,serif" font-size="14.00">neper</text>
</a>
</g>
</g>
<!-- mmgsuite -->
<g id="node7" class="node">
<title>mmgsuite</title>
<g id="a_node7"><a xlink:href="https://github.com/conda-forge/mmgsuite-feedstock/pull/14" xlink:title="mmgsuite ❎">
<ellipse fill="#31688e" stroke="black" cx="76.46" cy="-90" rx="76.46" ry="18"/>
<text text-anchor="middle" x="76.46" y="-85.33" font-family="Times,serif" font-size="14.00" fill="white">mmgsuite ❎</text>
</a>
</g>
</g>
<!-- mmgsuite&#45;&gt;freefem -->
<g id="edge6" class="edge">
<title>mmgsuite&#45;&gt;freefem</title>
<path fill="none" stroke="black" d="M91.23,-72.05C98.6,-63.59 107.67,-53.19 115.81,-43.84"/>
<polygon fill="black" stroke="black" points="118.33,-46.29 122.26,-36.45 113.05,-41.69 118.33,-46.29"/>
</g>
<!-- pastix -->
<g id="node8" class="node">
<title>pastix</title>
<g id="a_node8"><a xlink:href="https://github.com/conda-forge/pastix-feedstock/pull/7" xlink:title="pastix ❎">
<ellipse fill="#31688e" stroke="black" cx="524.97" cy="-90" rx="57" ry="18"/>
<text text-anchor="middle" x="524.97" y="-85.33" font-family="Times,serif" font-size="14.00" fill="white">pastix ❎</text>
</a>
</g>
</g>
</g>
</svg>
