<?xml version="1.0" encoding="UTF-8" standalone="no"?>
<!DOCTYPE svg PUBLIC "-//W3C//DTD SVG 1.1//EN"
 "http://www.w3.org/Graphics/SVG/1.1/DTD/svg11.dtd">
<!-- Generated by graphviz version 13.1.2 (20250809.0930)
 -->
<!-- Pages: 1 -->
<svg width="759pt" height="116pt"
 viewBox="0.00 0.00 759.00 116.00" xmlns="http://www.w3.org/2000/svg" xmlns:xlink="http://www.w3.org/1999/xlink">
<g id="graph0" class="graph" transform="scale(1 1) rotate(0) translate(4 112)">
<polygon fill="white" stroke="none" points="-4,4 -4,-112 755.1,-112 755.1,4 -4,4"/>
<!-- fenics -->
<g id="node1" class="node">
<title>fenics</title>
<g id="a_node1"><a xlink:href="https://github.com/conda-forge/fenics-feedstock" xlink:title="fenics">
<ellipse fill="#fde725" stroke="black" cx="40.69" cy="-18" rx="40.69" ry="18"/>
<text xml:space="preserve" text-anchor="middle" x="40.69" y="-13.32" font-family="Times,serif" font-size="14.00">fenics</text>
</a>
</g>
</g>
<!-- petsc -->
<g id="node2" class="node">
<title>petsc</title>
<g id="a_node2"><a xlink:href="https://github.com/conda-forge/petsc-feedstock" xlink:title="petsc">
<ellipse fill="#000000" stroke="black" cx="249.69" cy="-90" rx="38.06" ry="18"/>
<text xml:space="preserve" text-anchor="middle" x="249.69" y="-85.33" font-family="Times,serif" font-size="14.00" fill="white">petsc</text>
</a>
</g>
</g>
<!-- petsc&#45;&gt;fenics -->
<g id="edge1" class="edge">
<title>petsc&#45;&gt;fenics</title>
<path fill="none" stroke="black" d="M218.97,-78.97C186.73,-68.4 134.58,-51.22 89.69,-36 87.45,-35.24 85.17,-34.46 82.86,-33.67"/>
<polygon fill="black" stroke="black" points="84.06,-30.38 73.46,-30.44 81.78,-37 84.06,-30.38"/>
</g>
<!-- fenics&#45;dolfinx -->
<g id="node4" class="node">
<title>fenics&#45;dolfinx</title>
<g id="a_node4"><a xlink:href="https://github.com/conda-forge/fenics-dolfinx-feedstock" xlink:title="fenics dolfinx">
<ellipse fill="#fde725" stroke="black" cx="176.69" cy="-18" rx="77.51" ry="18"/>
<text xml:space="preserve" text-anchor="middle" x="176.69" y="-13.32" font-family="Times,serif" font-size="14.00">fenics dolfinx</text>
</a>
</g>
</g>
<!-- petsc&#45;&gt;fenics&#45;dolfinx -->
<g id="edge2" class="edge">
<title>petsc&#45;&gt;fenics&#45;dolfinx</title>
<path fill="none" stroke="black" d="M233.48,-73.46C224.43,-64.78 212.93,-53.75 202.64,-43.89"/>
<polygon fill="black" stroke="black" points="205.11,-41.4 195.47,-37.01 200.26,-46.46 205.11,-41.4"/>
</g>
<!-- freefem -->
<g id="node5" class="node">
<title>freefem</title>
<g id="a_node5"><a xlink:href="https://github.com/conda-forge/freefem-feedstock" xlink:title="freefem">
<ellipse fill="#fde725" stroke="black" cx="322.69" cy="-18" rx="50.16" ry="18"/>
<text xml:space="preserve" text-anchor="middle" x="322.69" y="-13.32" font-family="Times,serif" font-size="14.00">freefem</text>
</a>
</g>
</g>
<!-- petsc&#45;&gt;freefem -->
<g id="edge3" class="edge">
<title>petsc&#45;&gt;freefem</title>
<path fill="none" stroke="black" d="M265.89,-73.46C275.23,-64.5 287.18,-53.04 297.71,-42.95"/>
<polygon fill="black" stroke="black" points="299.88,-45.72 304.68,-36.27 295.04,-40.66 299.88,-45.72"/>
</g>
<!-- openfoam -->
<g id="node7" class="node">
<title>openfoam</title>
<g id="a_node7"><a xlink:href="https://github.com/conda-forge/openfoam-feedstock" xlink:title="openfoam">
<ellipse fill="#fde725" stroke="black" cx="450.69" cy="-18" rx="60.15" ry="18"/>
<text xml:space="preserve" text-anchor="middle" x="450.69" y="-13.32" font-family="Times,serif" font-size="14.00">openfoam</text>
</a>
</g>
</g>
<!-- petsc&#45;&gt;openfoam -->
<g id="edge4" class="edge">
<title>petsc&#45;&gt;openfoam</title>
<path fill="none" stroke="black" d="M279.78,-78.52C311.97,-67.31 363.54,-49.35 401.62,-36.09"/>
<polygon fill="black" stroke="black" points="402.75,-39.4 411.04,-32.81 400.45,-32.79 402.75,-39.4"/>
</g>
<!-- neper -->
<g id="node3" class="node">
<title>neper</title>
<g id="a_node3"><a xlink:href="https://github.com/conda-forge/neper-feedstock/pull/25" xlink:title="neper ❎">
<ellipse fill="#31688e" stroke="black" cx="695.69" cy="-54" rx="55.42" ry="18"/>
<text xml:space="preserve" text-anchor="middle" x="695.69" y="-49.33" font-family="Times,serif" font-size="14.00" fill="white">neper ❎</text>
</a>
</g>
</g>
<!-- pastix -->
<g id="node6" class="node">
<title>pastix</title>
<g id="a_node6"><a xlink:href="https://github.com/conda-forge/pastix-feedstock/pull/13" xlink:title="pastix ❎">
<ellipse fill="#31688e" stroke="black" cx="575.69" cy="-54" rx="57" ry="18"/>
<text xml:space="preserve" text-anchor="middle" x="575.69" y="-49.33" font-family="Times,serif" font-size="14.00" fill="white">pastix ❎</text>
</a>
</g>
</g>
</g>
</svg>
