<?xml version="1.0" encoding="UTF-8" standalone="no"?>
<!DOCTYPE svg PUBLIC "-//W3C//DTD SVG 1.1//EN"
 "http://www.w3.org/Graphics/SVG/1.1/DTD/svg11.dtd">
<!-- Generated by graphviz version 12.0.0 (20240803.0821)
 -->
<!-- Pages: 1 -->
<svg width="469pt" height="116pt"
 viewBox="0.00 0.00 469.16 116.00" xmlns="http://www.w3.org/2000/svg" xmlns:xlink="http://www.w3.org/1999/xlink">
<g id="graph0" class="graph" transform="scale(1 1) rotate(0) translate(4 112)">
<polygon fill="white" stroke="none" points="-4,4 -4,-112 465.16,-112 465.16,4 -4,4"/>
<!-- fenics -->
<g id="node1" class="node">
<title>fenics</title>
<g id="a_node1"><a xlink:href="https://github.com/conda-forge/fenics-feedstock" xlink:title="fenics">
<ellipse fill="#fde725" stroke="black" cx="40.69" cy="-18" rx="40.69" ry="18"/>
<text text-anchor="middle" x="40.69" y="-13.32" font-family="Times,serif" font-size="14.00">fenics</text>
</a>
</g>
</g>
<!-- petsc -->
<g id="node2" class="node">
<title>petsc</title>
<g id="a_node2"><a xlink:href="https://github.com/conda-forge/petsc-feedstock/pull/212" xlink:title="petsc ✓">
<ellipse fill="#31688e" stroke="black" cx="176.69" cy="-90" rx="45.95" ry="18"/>
<text text-anchor="middle" x="176.69" y="-85.33" font-family="Times,serif" font-size="14.00" fill="white">petsc ✓</text>
</a>
</g>
</g>
<!-- petsc&#45;&gt;fenics -->
<g id="edge1" class="edge">
<title>petsc&#45;&gt;fenics</title>
<path fill="none" stroke="black" d="M149.49,-75C128.52,-64.21 99.33,-49.18 76.46,-37.41"/>
<polygon fill="black" stroke="black" points="78.29,-34.42 67.8,-32.95 75.09,-40.64 78.29,-34.42"/>
</g>
<!-- fenics&#45;dolfinx -->
<g id="node4" class="node">
<title>fenics&#45;dolfinx</title>
<g id="a_node4"><a xlink:href="https://github.com/conda-forge/fenics-dolfinx-feedstock" xlink:title="fenics dolfinx">
<ellipse fill="#fde725" stroke="black" cx="176.69" cy="-18" rx="77.51" ry="18"/>
<text text-anchor="middle" x="176.69" y="-13.32" font-family="Times,serif" font-size="14.00">fenics dolfinx</text>
</a>
</g>
</g>
<!-- petsc&#45;&gt;fenics&#45;dolfinx -->
<g id="edge2" class="edge">
<title>petsc&#45;&gt;fenics&#45;dolfinx</title>
<path fill="none" stroke="black" d="M176.69,-71.7C176.69,-64.41 176.69,-55.73 176.69,-47.54"/>
<polygon fill="black" stroke="black" points="180.19,-47.62 176.69,-37.62 173.19,-47.62 180.19,-47.62"/>
</g>
<!-- freefem -->
<g id="node5" class="node">
<title>freefem</title>
<g id="a_node5"><a xlink:href="https://github.com/conda-forge/freefem-feedstock" xlink:title="freefem">
<ellipse fill="#fde725" stroke="black" cx="322.69" cy="-18" rx="50.16" ry="18"/>
<text text-anchor="middle" x="322.69" y="-13.32" font-family="Times,serif" font-size="14.00">freefem</text>
</a>
</g>
</g>
<!-- petsc&#45;&gt;freefem -->
<g id="edge3" class="edge">
<title>petsc&#45;&gt;freefem</title>
<path fill="none" stroke="black" d="M204.84,-75.5C227.1,-64.83 258.44,-49.8 283.2,-37.93"/>
<polygon fill="black" stroke="black" points="284.5,-41.19 292.01,-33.71 281.48,-34.88 284.5,-41.19"/>
</g>
<!-- neper -->
<g id="node3" class="node">
<title>neper</title>
<g id="a_node3"><a xlink:href="https://github.com/conda-forge/neper-feedstock" xlink:title="neper">
<ellipse fill="#000000" stroke="black" cx="421" cy="-54" rx="40.16" ry="18"/>
<text text-anchor="middle" x="421" y="-49.33" font-family="Times,serif" font-size="14.00" fill="white">neper</text>
</a>
</g>
</g>
</g>
</svg>
