<?xml version="1.0" encoding="UTF-8" standalone="no"?>
<!DOCTYPE svg PUBLIC "-//W3C//DTD SVG 1.1//EN"
 "http://www.w3.org/Graphics/SVG/1.1/DTD/svg11.dtd">
<!-- Generated by graphviz version 13.1.1 (20250720.1534)
 -->
<!-- Pages: 1 -->
<svg width="841pt" height="160pt"
 viewBox="0.00 0.00 841.00 160.00" xmlns="http://www.w3.org/2000/svg" xmlns:xlink="http://www.w3.org/1999/xlink">
<g id="graph0" class="graph" transform="scale(1 1) rotate(0) translate(4 156)">
<polygon fill="white" stroke="none" points="-4,4 -4,-156 837.1,-156 837.1,4 -4,4"/>
<!-- fenics -->
<g id="node1" class="node">
<title>fenics</title>
<g id="a_node1"><a xlink:href="https://github.com/conda-forge/fenics-feedstock" xlink:title="fenics">
<ellipse fill="#fde725" stroke="black" cx="40.69" cy="-62" rx="40.69" ry="18"/>
<text xml:space="preserve" text-anchor="middle" x="40.69" y="-57.33" font-family="Times,serif" font-size="14.00">fenics</text>
</a>
</g>
</g>
<!-- petsc -->
<g id="node2" class="node">
<title>petsc</title>
<g id="a_node2"><a xlink:href="https://github.com/conda-forge/petsc-feedstock/pull/255" xlink:title="petsc ❎">
<ellipse fill="#31688e" stroke="black" cx="249.69" cy="-134" rx="53.31" ry="18"/>
<text xml:space="preserve" text-anchor="middle" x="249.69" y="-129.32" font-family="Times,serif" font-size="14.00" fill="white">petsc ❎</text>
</a>
</g>
</g>
<!-- petsc&#45;&gt;fenics -->
<g id="edge1" class="edge">
<title>petsc&#45;&gt;fenics</title>
<path fill="none" stroke="black" d="M212.46,-120.83C180,-110.18 131.67,-94.24 89.69,-80 87.45,-79.24 85.17,-78.46 82.86,-77.67"/>
<polygon fill="black" stroke="black" points="84.06,-74.38 73.46,-74.44 81.78,-81 84.06,-74.38"/>
</g>
<!-- fenics&#45;dolfinx -->
<g id="node4" class="node">
<title>fenics&#45;dolfinx</title>
<g id="a_node4"><a xlink:href="https://github.com/conda-forge/fenics-dolfinx-feedstock" xlink:title="fenics dolfinx">
<ellipse fill="#fde725" stroke="black" cx="176.69" cy="-62" rx="77.51" ry="18"/>
<text xml:space="preserve" text-anchor="middle" x="176.69" y="-57.33" font-family="Times,serif" font-size="14.00">fenics dolfinx</text>
</a>
</g>
</g>
<!-- petsc&#45;&gt;fenics&#45;dolfinx -->
<g id="edge2" class="edge">
<title>petsc&#45;&gt;fenics&#45;dolfinx</title>
<path fill="none" stroke="black" d="M232.75,-116.76C223.74,-108.12 212.46,-97.3 202.39,-87.65"/>
<polygon fill="black" stroke="black" points="205.02,-85.32 195.38,-80.93 200.18,-90.37 205.02,-85.32"/>
</g>
<!-- freefem -->
<g id="node5" class="node">
<title>freefem</title>
<g id="a_node5"><a xlink:href="https://github.com/conda-forge/freefem-feedstock" xlink:title="freefem">
<ellipse fill="#fde725" stroke="black" cx="322.69" cy="-62" rx="50.16" ry="18"/>
<text xml:space="preserve" text-anchor="middle" x="322.69" y="-57.33" font-family="Times,serif" font-size="14.00">freefem</text>
</a>
</g>
</g>
<!-- petsc&#45;&gt;freefem -->
<g id="edge3" class="edge">
<title>petsc&#45;&gt;freefem</title>
<path fill="none" stroke="black" d="M266.62,-116.76C275.76,-107.99 287.24,-96.99 297.42,-87.22"/>
<polygon fill="black" stroke="black" points="299.71,-89.88 304.5,-80.44 294.86,-84.83 299.71,-89.88"/>
</g>
<!-- openfoam -->
<g id="node8" class="node">
<title>openfoam</title>
<g id="a_node8"><a xlink:href="https://github.com/conda-forge/openfoam-feedstock" xlink:title="openfoam">
<ellipse fill="#fde725" stroke="black" cx="450.69" cy="-62" rx="60.15" ry="18"/>
<text xml:space="preserve" text-anchor="middle" x="450.69" y="-57.33" font-family="Times,serif" font-size="14.00">openfoam</text>
</a>
</g>
</g>
<!-- petsc&#45;&gt;openfoam -->
<g id="edge4" class="edge">
<title>petsc&#45;&gt;openfoam</title>
<path fill="none" stroke="black" d="M285.62,-120.49C318.06,-109.19 366.06,-92.47 401.95,-79.97"/>
<polygon fill="black" stroke="black" points="402.95,-83.33 411.24,-76.74 400.65,-76.72 402.95,-83.33"/>
</g>
<!-- neper -->
<g id="node3" class="node">
<title>neper</title>
<g id="a_node3"><a xlink:href="https://github.com/conda-forge/neper-feedstock/pull/24" xlink:title="neper ❎">
<ellipse fill="#31688e" stroke="black" cx="606.69" cy="-18" rx="55.42" ry="18"/>
<text xml:space="preserve" text-anchor="middle" x="606.69" y="-13.32" font-family="Times,serif" font-size="14.00" fill="white">neper ❎</text>
</a>
</g>
</g>
<!-- muscat&#45;split -->
<g id="node6" class="node">
<title>muscat&#45;split</title>
<g id="a_node6"><a xlink:href="https://github.com/conda-forge/muscat-split-feedstock/pull/41" xlink:title="muscat split ❎">
<ellipse fill="#31688e" stroke="black" cx="606.69" cy="-98" rx="88.04" ry="18"/>
<text xml:space="preserve" text-anchor="middle" x="606.69" y="-93.33" font-family="Times,serif" font-size="14.00" fill="white">muscat split ❎</text>
</a>
</g>
</g>
<!-- pastix -->
<g id="node7" class="node">
<title>pastix</title>
<g id="a_node7"><a xlink:href="https://github.com/conda-forge/pastix-feedstock/pull/12" xlink:title="pastix ❎">
<ellipse fill="#31688e" stroke="black" cx="254.69" cy="-18" rx="57" ry="18"/>
<text xml:space="preserve" text-anchor="middle" x="254.69" y="-13.32" font-family="Times,serif" font-size="14.00" fill="white">pastix ❎</text>
</a>
</g>
</g>
<!-- opensees -->
<g id="node9" class="node">
<title>opensees</title>
<g id="a_node9"><a xlink:href="https://github.com/conda-forge/opensees-feedstock/pull/4" xlink:title="opensees ✓">
<ellipse fill="#31688e" stroke="black" cx="767.69" cy="-98" rx="65.41" ry="18"/>
<text xml:space="preserve" text-anchor="middle" x="767.69" y="-93.33" font-family="Times,serif" font-size="14.00" fill="white">opensees ✓</text>
</a>
</g>
</g>
</g>
</svg>
