<?xml version="1.0" encoding="UTF-8" standalone="no"?>
<!DOCTYPE svg PUBLIC "-//W3C//DTD SVG 1.1//EN"
 "http://www.w3.org/Graphics/SVG/1.1/DTD/svg11.dtd">
<!-- Generated by graphviz version 13.1.1 (20250720.1534)
 -->
<!-- Pages: 1 -->
<svg width="779pt" height="232pt"
 viewBox="0.00 0.00 779.00 232.00" xmlns="http://www.w3.org/2000/svg" xmlns:xlink="http://www.w3.org/1999/xlink">
<g id="graph0" class="graph" transform="scale(1 1) rotate(0) translate(4 228)">
<polygon fill="white" stroke="none" points="-4,4 -4,-228 774.94,-228 774.94,4 -4,4"/>
<!-- fenics -->
<g id="node1" class="node">
<title>fenics</title>
<g id="a_node1"><a xlink:href="https://github.com/conda-forge/fenics-feedstock" xlink:title="fenics">
<ellipse fill="#fde725" stroke="black" cx="192.2" cy="-62" rx="40.69" ry="18"/>
<text xml:space="preserve" text-anchor="middle" x="192.2" y="-57.33" font-family="Times,serif" font-size="14.00">fenics</text>
</a>
</g>
</g>
<!-- mumps -->
<g id="node2" class="node">
<title>mumps</title>
<g id="a_node2"><a xlink:href="https://github.com/conda-forge/mumps-feedstock" xlink:title="mumps">
<ellipse fill="#35b779" stroke="black" cx="225.2" cy="-206" rx="48.05" ry="18"/>
<text xml:space="preserve" text-anchor="middle" x="225.2" y="-201.32" font-family="Times,serif" font-size="14.00">mumps</text>
</a>
</g>
</g>
<!-- petsc -->
<g id="node3" class="node">
<title>petsc</title>
<g id="a_node3"><a xlink:href="https://github.com/conda-forge/petsc-feedstock" xlink:title="petsc">
<ellipse fill="#fde725" stroke="black" cx="260.2" cy="-134" rx="38.06" ry="18"/>
<text xml:space="preserve" text-anchor="middle" x="260.2" y="-129.32" font-family="Times,serif" font-size="14.00">petsc</text>
</a>
</g>
</g>
<!-- mumps&#45;&gt;petsc -->
<g id="edge4" class="edge">
<title>mumps&#45;&gt;petsc</title>
<path fill="none" stroke="black" d="M233.68,-188.05C237.59,-180.23 242.33,-170.75 246.72,-161.98"/>
<polygon fill="black" stroke="black" points="249.79,-163.65 251.13,-153.14 243.53,-160.52 249.79,-163.65"/>
</g>
<!-- freefem -->
<g id="node6" class="node">
<title>freefem</title>
<g id="a_node6"><a xlink:href="https://github.com/conda-forge/freefem-feedstock" xlink:title="freefem">
<ellipse fill="#fde725" stroke="black" cx="83.2" cy="-62" rx="50.16" ry="18"/>
<text xml:space="preserve" text-anchor="middle" x="83.2" y="-57.33" font-family="Times,serif" font-size="14.00">freefem</text>
</a>
</g>
</g>
<!-- mumps&#45;&gt;freefem -->
<g id="edge1" class="edge">
<title>mumps&#45;&gt;freefem</title>
<path fill="none" stroke="black" d="M218.82,-187.84C210.95,-168.5 196.02,-137.04 175.2,-116 161.03,-101.68 142.19,-89.92 125.25,-81.15"/>
<polygon fill="black" stroke="black" points="126.88,-78.05 116.36,-76.75 123.77,-84.33 126.88,-78.05"/>
</g>
<!-- muscat&#45;split -->
<g id="node9" class="node">
<title>muscat&#45;split</title>
<g id="a_node9"><a xlink:href="https://github.com/conda-forge/muscat-split-feedstock" xlink:title="muscat split">
<ellipse fill="#fde725" stroke="black" cx="93.2" cy="-134" rx="72.78" ry="18"/>
<text xml:space="preserve" text-anchor="middle" x="93.2" y="-129.32" font-family="Times,serif" font-size="14.00">muscat split</text>
</a>
</g>
</g>
<!-- mumps&#45;&gt;muscat&#45;split -->
<g id="edge2" class="edge">
<title>mumps&#45;&gt;muscat&#45;split</title>
<path fill="none" stroke="black" d="M198.17,-190.67C179.38,-180.7 154.01,-167.24 132.92,-156.06"/>
<polygon fill="black" stroke="black" points="134.77,-153.08 124.29,-151.49 131.49,-159.26 134.77,-153.08"/>
</g>
<!-- opensees -->
<g id="node12" class="node">
<title>opensees</title>
<g id="a_node12"><a xlink:href="https://github.com/conda-forge/opensees-feedstock" xlink:title="opensees">
<ellipse fill="#fde725" stroke="black" cx="374.2" cy="-134" rx="57.52" ry="18"/>
<text xml:space="preserve" text-anchor="middle" x="374.2" y="-129.32" font-family="Times,serif" font-size="14.00">opensees</text>
</a>
</g>
</g>
<!-- mumps&#45;&gt;opensees -->
<g id="edge3" class="edge">
<title>mumps&#45;&gt;opensees</title>
<path fill="none" stroke="black" d="M254.29,-191.34C276.67,-180.82 307.89,-166.16 332.86,-154.42"/>
<polygon fill="black" stroke="black" points="334.21,-157.66 341.77,-150.24 331.23,-151.32 334.21,-157.66"/>
</g>
<!-- petsc&#45;&gt;fenics -->
<g id="edge5" class="edge">
<title>petsc&#45;&gt;fenics</title>
<path fill="none" stroke="black" d="M244.77,-117.12C236.08,-108.17 225.05,-96.81 215.34,-86.81"/>
<polygon fill="black" stroke="black" points="218.11,-84.64 208.63,-79.91 213.09,-89.52 218.11,-84.64"/>
</g>
<!-- fenics&#45;dolfinx -->
<g id="node5" class="node">
<title>fenics&#45;dolfinx</title>
<g id="a_node5"><a xlink:href="https://github.com/conda-forge/fenics-dolfinx-feedstock" xlink:title="fenics dolfinx">
<ellipse fill="#fde725" stroke="black" cx="328.2" cy="-62" rx="77.51" ry="18"/>
<text xml:space="preserve" text-anchor="middle" x="328.2" y="-57.33" font-family="Times,serif" font-size="14.00">fenics dolfinx</text>
</a>
</g>
</g>
<!-- petsc&#45;&gt;fenics&#45;dolfinx -->
<g id="edge6" class="edge">
<title>petsc&#45;&gt;fenics&#45;dolfinx</title>
<path fill="none" stroke="black" d="M275.63,-117.12C284,-108.51 294.53,-97.67 303.96,-87.96"/>
<polygon fill="black" stroke="black" points="306.37,-90.49 310.83,-80.88 301.35,-85.62 306.37,-90.49"/>
</g>
<!-- petsc&#45;&gt;freefem -->
<g id="edge7" class="edge">
<title>petsc&#45;&gt;freefem</title>
<path fill="none" stroke="black" d="M231.77,-121.75C203.41,-110.54 159.47,-93.16 126.72,-80.21"/>
<polygon fill="black" stroke="black" points="128.08,-76.98 117.49,-76.56 125.51,-83.49 128.08,-76.98"/>
</g>
<!-- openfoam -->
<g id="node11" class="node">
<title>openfoam</title>
<g id="a_node11"><a xlink:href="https://github.com/conda-forge/openfoam-feedstock" xlink:title="openfoam">
<ellipse fill="#fde725" stroke="black" cx="484.2" cy="-62" rx="60.15" ry="18"/>
<text xml:space="preserve" text-anchor="middle" x="484.2" y="-57.33" font-family="Times,serif" font-size="14.00">openfoam</text>
</a>
</g>
</g>
<!-- petsc&#45;&gt;openfoam -->
<g id="edge8" class="edge">
<title>petsc&#45;&gt;openfoam</title>
<path fill="none" stroke="black" d="M289.45,-122.13C295.31,-120.04 301.44,-117.9 307.2,-116 348.29,-102.43 395.23,-88.44 430.44,-78.25"/>
<polygon fill="black" stroke="black" points="431.34,-81.63 439.98,-75.5 429.4,-74.9 431.34,-81.63"/>
</g>
<!-- neper -->
<g id="node4" class="node">
<title>neper</title>
<g id="a_node4"><a xlink:href="https://github.com/conda-forge/neper-feedstock" xlink:title="neper">
<ellipse fill="#35b779" stroke="black" cx="272.2" cy="-18" rx="40.16" ry="18"/>
<text xml:space="preserve" text-anchor="middle" x="272.2" y="-13.32" font-family="Times,serif" font-size="14.00">neper</text>
</a>
</g>
</g>
<!-- mmgsuite -->
<g id="node7" class="node">
<title>mmgsuite</title>
<g id="a_node7"><a xlink:href="https://github.com/conda-forge/mmgsuite-feedstock" xlink:title="mmgsuite">
<ellipse fill="#35b779" stroke="black" cx="61.2" cy="-206" rx="61.2" ry="18"/>
<text xml:space="preserve" text-anchor="middle" x="61.2" y="-201.32" font-family="Times,serif" font-size="14.00">mmgsuite</text>
</a>
</g>
</g>
<!-- mmgsuite&#45;&gt;freefem -->
<g id="edge9" class="edge">
<title>mmgsuite&#45;&gt;freefem</title>
<path fill="none" stroke="black" d="M39.65,-188.89C28.91,-179.47 17,-166.58 11.2,-152 5.3,-137.13 3.98,-130.28 11.2,-116 18.24,-102.09 30.83,-90.94 43.54,-82.52"/>
<polygon fill="black" stroke="black" points="45.19,-85.61 51.9,-77.41 41.54,-79.64 45.19,-85.61"/>
</g>
<!-- mmgsuite&#45;&gt;muscat&#45;split -->
<g id="edge10" class="edge">
<title>mmgsuite&#45;&gt;muscat&#45;split</title>
<path fill="none" stroke="black" d="M69.11,-187.7C72.6,-180.07 76.79,-170.92 80.68,-162.4"/>
<polygon fill="black" stroke="black" points="83.78,-164.03 84.76,-153.48 77.41,-161.12 83.78,-164.03"/>
</g>
<!-- code&#45;aster -->
<g id="node8" class="node">
<title>code&#45;aster</title>
<g id="a_node8"><a xlink:href="https://github.com/conda-forge/code-aster-feedstock" xlink:title="code aster">
<ellipse fill="#35b779" stroke="black" cx="616.2" cy="-134" rx="63.31" ry="18"/>
<text xml:space="preserve" text-anchor="middle" x="616.2" y="-129.32" font-family="Times,serif" font-size="14.00">code aster</text>
</a>
</g>
</g>
<!-- pastix -->
<g id="node10" class="node">
<title>pastix</title>
<g id="a_node10"><a xlink:href="https://github.com/conda-forge/pastix-feedstock" xlink:title="pastix">
<ellipse fill="#35b779" stroke="black" cx="729.2" cy="-134" rx="41.74" ry="18"/>
<text xml:space="preserve" text-anchor="middle" x="729.2" y="-129.32" font-family="Times,serif" font-size="14.00">pastix</text>
</a>
</g>
</g>
</g>
</svg>
