<?xml version="1.0" encoding="UTF-8" standalone="no"?>
<!DOCTYPE svg PUBLIC "-//W3C//DTD SVG 1.1//EN"
 "http://www.w3.org/Graphics/SVG/1.1/DTD/svg11.dtd">
<!-- Generated by graphviz version 13.1.1 (20250720.1534)
 -->
<!-- Pages: 1 -->
<svg width="772pt" height="188pt"
 viewBox="0.00 0.00 772.00 188.00" xmlns="http://www.w3.org/2000/svg" xmlns:xlink="http://www.w3.org/1999/xlink">
<g id="graph0" class="graph" transform="scale(1 1) rotate(0) translate(4 184)">
<polygon fill="white" stroke="none" points="-4,4 -4,-184 768.26,-184 768.26,4 -4,4"/>
<!-- fenics -->
<g id="node1" class="node">
<title>fenics</title>
<g id="a_node1"><a xlink:href="https://github.com/conda-forge/fenics-feedstock" xlink:title="fenics">
<ellipse fill="#fde725" stroke="black" cx="202.1" cy="-18" rx="40.69" ry="18"/>
<text xml:space="preserve" text-anchor="middle" x="202.1" y="-13.32" font-family="Times,serif" font-size="14.00">fenics</text>
</a>
</g>
</g>
<!-- mumps -->
<g id="node2" class="node">
<title>mumps</title>
<g id="a_node2"><a xlink:href="https://github.com/conda-forge/mumps-feedstock" xlink:title="mumps">
<ellipse fill="#ff8c00" stroke="black" cx="237.1" cy="-162" rx="48.05" ry="18"/>
<text xml:space="preserve" text-anchor="middle" x="237.1" y="-157.32" font-family="Times,serif" font-size="14.00">mumps</text>
</a>
</g>
</g>
<!-- petsc -->
<g id="node3" class="node">
<title>petsc</title>
<g id="a_node3"><a xlink:href="https://github.com/conda-forge/petsc-feedstock" xlink:title="petsc">
<ellipse fill="#fde725" stroke="black" cx="270.1" cy="-90" rx="38.06" ry="18"/>
<text xml:space="preserve" text-anchor="middle" x="270.1" y="-85.33" font-family="Times,serif" font-size="14.00">petsc</text>
</a>
</g>
</g>
<!-- mumps&#45;&gt;petsc -->
<g id="edge4" class="edge">
<title>mumps&#45;&gt;petsc</title>
<path fill="none" stroke="black" d="M245.08,-144.05C248.77,-136.23 253.24,-126.75 257.38,-117.98"/>
<polygon fill="black" stroke="black" points="260.44,-119.7 261.54,-109.16 254.11,-116.71 260.44,-119.7"/>
</g>
<!-- freefem -->
<g id="node6" class="node">
<title>freefem</title>
<g id="a_node6"><a xlink:href="https://github.com/conda-forge/freefem-feedstock" xlink:title="freefem">
<ellipse fill="#fde725" stroke="black" cx="93.1" cy="-18" rx="50.16" ry="18"/>
<text xml:space="preserve" text-anchor="middle" x="93.1" y="-13.32" font-family="Times,serif" font-size="14.00">freefem</text>
</a>
</g>
</g>
<!-- mumps&#45;&gt;freefem -->
<g id="edge1" class="edge">
<title>mumps&#45;&gt;freefem</title>
<path fill="none" stroke="black" d="M230.3,-143.85C221.96,-124.52 206.29,-93.07 185.1,-72 170.8,-57.8 151.94,-46.06 135.02,-37.27"/>
<polygon fill="black" stroke="black" points="136.66,-34.18 126.15,-32.86 133.54,-40.45 136.66,-34.18"/>
</g>
<!-- muscat&#45;split -->
<g id="node8" class="node">
<title>muscat&#45;split</title>
<g id="a_node8"><a xlink:href="https://github.com/conda-forge/muscat-split-feedstock" xlink:title="muscat split">
<ellipse fill="#fde725" stroke="black" cx="103.1" cy="-90" rx="72.78" ry="18"/>
<text xml:space="preserve" text-anchor="middle" x="103.1" y="-85.33" font-family="Times,serif" font-size="14.00">muscat split</text>
</a>
</g>
</g>
<!-- mumps&#45;&gt;muscat&#45;split -->
<g id="edge2" class="edge">
<title>mumps&#45;&gt;muscat&#45;split</title>
<path fill="none" stroke="black" d="M209.98,-146.83C190.79,-136.81 164.73,-123.2 143.15,-111.93"/>
<polygon fill="black" stroke="black" points="144.8,-108.83 134.31,-107.31 141.55,-115.04 144.8,-108.83"/>
</g>
<!-- opensees -->
<g id="node11" class="node">
<title>opensees</title>
<g id="a_node11"><a xlink:href="https://github.com/conda-forge/opensees-feedstock" xlink:title="opensees">
<ellipse fill="#fde725" stroke="black" cx="384.1" cy="-90" rx="57.52" ry="18"/>
<text xml:space="preserve" text-anchor="middle" x="384.1" y="-85.33" font-family="Times,serif" font-size="14.00">opensees</text>
</a>
</g>
</g>
<!-- mumps&#45;&gt;opensees -->
<g id="edge3" class="edge">
<title>mumps&#45;&gt;opensees</title>
<path fill="none" stroke="black" d="M265.79,-147.34C287.87,-136.82 318.67,-122.16 343.31,-110.42"/>
<polygon fill="black" stroke="black" points="344.56,-113.7 352.08,-106.24 341.55,-107.38 344.56,-113.7"/>
</g>
<!-- petsc&#45;&gt;fenics -->
<g id="edge5" class="edge">
<title>petsc&#45;&gt;fenics</title>
<path fill="none" stroke="black" d="M254.67,-73.12C245.97,-64.17 234.94,-52.81 225.23,-42.81"/>
<polygon fill="black" stroke="black" points="228,-40.64 218.52,-35.91 222.98,-45.52 228,-40.64"/>
</g>
<!-- fenics&#45;dolfinx -->
<g id="node5" class="node">
<title>fenics&#45;dolfinx</title>
<g id="a_node5"><a xlink:href="https://github.com/conda-forge/fenics-dolfinx-feedstock" xlink:title="fenics dolfinx">
<ellipse fill="#fde725" stroke="black" cx="338.1" cy="-18" rx="77.51" ry="18"/>
<text xml:space="preserve" text-anchor="middle" x="338.1" y="-13.32" font-family="Times,serif" font-size="14.00">fenics dolfinx</text>
</a>
</g>
</g>
<!-- petsc&#45;&gt;fenics&#45;dolfinx -->
<g id="edge6" class="edge">
<title>petsc&#45;&gt;fenics&#45;dolfinx</title>
<path fill="none" stroke="black" d="M285.53,-73.12C293.89,-64.51 304.42,-53.67 313.85,-43.96"/>
<polygon fill="black" stroke="black" points="316.27,-46.49 320.72,-36.88 311.25,-41.62 316.27,-46.49"/>
</g>
<!-- petsc&#45;&gt;freefem -->
<g id="edge7" class="edge">
<title>petsc&#45;&gt;freefem</title>
<path fill="none" stroke="black" d="M241.66,-77.75C213.3,-66.54 169.36,-49.16 136.62,-36.21"/>
<polygon fill="black" stroke="black" points="137.97,-32.98 127.39,-32.56 135.4,-39.49 137.97,-32.98"/>
</g>
<!-- openfoam -->
<g id="node10" class="node">
<title>openfoam</title>
<g id="a_node10"><a xlink:href="https://github.com/conda-forge/openfoam-feedstock" xlink:title="openfoam">
<ellipse fill="#fde725" stroke="black" cx="494.1" cy="-18" rx="60.15" ry="18"/>
<text xml:space="preserve" text-anchor="middle" x="494.1" y="-13.32" font-family="Times,serif" font-size="14.00">openfoam</text>
</a>
</g>
</g>
<!-- petsc&#45;&gt;openfoam -->
<g id="edge8" class="edge">
<title>petsc&#45;&gt;openfoam</title>
<path fill="none" stroke="black" d="M299.34,-78.13C305.2,-76.04 311.33,-73.9 317.1,-72 358.18,-58.43 405.12,-44.44 440.33,-34.25"/>
<polygon fill="black" stroke="black" points="441.23,-37.63 449.87,-31.5 439.29,-30.9 441.23,-37.63"/>
</g>
<!-- neper -->
<g id="node4" class="node">
<title>neper</title>
<g id="a_node4"><a xlink:href="https://github.com/conda-forge/neper-feedstock" xlink:title="neper">
<ellipse fill="#ff8c00" stroke="black" cx="724.1" cy="-90" rx="40.16" ry="18"/>
<text xml:space="preserve" text-anchor="middle" x="724.1" y="-85.33" font-family="Times,serif" font-size="14.00">neper</text>
</a>
</g>
</g>
<!-- mmgsuite -->
<g id="node7" class="node">
<title>mmgsuite</title>
<g id="a_node7"><a xlink:href="https://github.com/conda-forge/mmgsuite-feedstock/pull/17" xlink:title="mmgsuite ✓">
<ellipse fill="#31688e" stroke="black" cx="69.1" cy="-162" rx="69.1" ry="18"/>
<text xml:space="preserve" text-anchor="middle" x="69.1" y="-157.32" font-family="Times,serif" font-size="14.00" fill="white">mmgsuite ✓</text>
</a>
</g>
</g>
<!-- mmgsuite&#45;&gt;freefem -->
<g id="edge9" class="edge">
<title>mmgsuite&#45;&gt;freefem</title>
<path fill="none" stroke="black" d="M48.14,-144.48C37.88,-135.04 26.59,-122.25 21.1,-108 15.34,-93.07 13.88,-86.28 21.1,-72 28.13,-58.09 40.72,-46.94 53.43,-38.52"/>
<polygon fill="black" stroke="black" points="55.08,-41.61 61.79,-33.41 51.43,-35.64 55.08,-41.61"/>
</g>
<!-- mmgsuite&#45;&gt;muscat&#45;split -->
<g id="edge10" class="edge">
<title>mmgsuite&#45;&gt;muscat&#45;split</title>
<path fill="none" stroke="black" d="M77.5,-143.7C81.21,-136.07 85.65,-126.92 89.79,-118.4"/>
<polygon fill="black" stroke="black" points="92.91,-119.99 94.13,-109.47 86.61,-116.93 92.91,-119.99"/>
</g>
<!-- pastix -->
<g id="node9" class="node">
<title>pastix</title>
<g id="a_node9"><a xlink:href="https://github.com/conda-forge/pastix-feedstock/pull/12" xlink:title="pastix ❎">
<ellipse fill="#31688e" stroke="black" cx="619.1" cy="-90" rx="57" ry="18"/>
<text xml:space="preserve" text-anchor="middle" x="619.1" y="-85.33" font-family="Times,serif" font-size="14.00" fill="white">pastix ❎</text>
</a>
</g>
</g>
</g>
</svg>
