<?xml version="1.0" encoding="UTF-8" standalone="no"?>
<!DOCTYPE svg PUBLIC "-//W3C//DTD SVG 1.1//EN"
 "http://www.w3.org/Graphics/SVG/1.1/DTD/svg11.dtd">
<!-- Generated by graphviz version 13.1.1 (20250720.1534)
 -->
<!-- Pages: 1 -->
<svg width="856pt" height="160pt"
 viewBox="0.00 0.00 856.00 160.00" xmlns="http://www.w3.org/2000/svg" xmlns:xlink="http://www.w3.org/1999/xlink">
<g id="graph0" class="graph" transform="scale(1 1) rotate(0) translate(4 156)">
<polygon fill="white" stroke="none" points="-4,4 -4,-156 852.46,-156 852.46,4 -4,4"/>
<!-- fenics -->
<g id="node1" class="node">
<title>fenics</title>
<g id="a_node1"><a xlink:href="https://github.com/conda-forge/fenics-feedstock" xlink:title="fenics">
<ellipse fill="#fde725" stroke="black" cx="40.69" cy="-62" rx="40.69" ry="18"/>
<text xml:space="preserve" text-anchor="middle" x="40.69" y="-57.33" font-family="Times,serif" font-size="14.00">fenics</text>
</a>
</g>
</g>
<!-- petsc -->
<g id="node2" class="node">
<title>petsc</title>
<g id="a_node2"><a xlink:href="https://github.com/conda-forge/petsc-feedstock" xlink:title="petsc">
<ellipse fill="#000000" stroke="black" cx="249.69" cy="-134" rx="38.06" ry="18"/>
<text xml:space="preserve" text-anchor="middle" x="249.69" y="-129.32" font-family="Times,serif" font-size="14.00" fill="white">petsc</text>
</a>
</g>
</g>
<!-- petsc&#45;&gt;fenics -->
<g id="edge1" class="edge">
<title>petsc&#45;&gt;fenics</title>
<path fill="none" stroke="black" d="M218.97,-122.97C186.73,-112.4 134.58,-95.22 89.69,-80 87.45,-79.24 85.17,-78.46 82.86,-77.67"/>
<polygon fill="black" stroke="black" points="84.06,-74.38 73.46,-74.44 81.78,-81 84.06,-74.38"/>
</g>
<!-- fenics&#45;dolfinx -->
<g id="node4" class="node">
<title>fenics&#45;dolfinx</title>
<g id="a_node4"><a xlink:href="https://github.com/conda-forge/fenics-dolfinx-feedstock" xlink:title="fenics dolfinx">
<ellipse fill="#fde725" stroke="black" cx="176.69" cy="-62" rx="77.51" ry="18"/>
<text xml:space="preserve" text-anchor="middle" x="176.69" y="-57.33" font-family="Times,serif" font-size="14.00">fenics dolfinx</text>
</a>
</g>
</g>
<!-- petsc&#45;&gt;fenics&#45;dolfinx -->
<g id="edge2" class="edge">
<title>petsc&#45;&gt;fenics&#45;dolfinx</title>
<path fill="none" stroke="black" d="M233.48,-117.46C224.43,-108.78 212.93,-97.75 202.64,-87.89"/>
<polygon fill="black" stroke="black" points="205.11,-85.4 195.47,-81.01 200.26,-90.46 205.11,-85.4"/>
</g>
<!-- freefem -->
<g id="node5" class="node">
<title>freefem</title>
<g id="a_node5"><a xlink:href="https://github.com/conda-forge/freefem-feedstock" xlink:title="freefem">
<ellipse fill="#fde725" stroke="black" cx="322.69" cy="-62" rx="50.16" ry="18"/>
<text xml:space="preserve" text-anchor="middle" x="322.69" y="-57.33" font-family="Times,serif" font-size="14.00">freefem</text>
</a>
</g>
</g>
<!-- petsc&#45;&gt;freefem -->
<g id="edge3" class="edge">
<title>petsc&#45;&gt;freefem</title>
<path fill="none" stroke="black" d="M265.89,-117.46C275.23,-108.5 287.18,-97.04 297.71,-86.95"/>
<polygon fill="black" stroke="black" points="299.88,-89.72 304.68,-80.27 295.04,-84.66 299.88,-89.72"/>
</g>
<!-- openfoam -->
<g id="node8" class="node">
<title>openfoam</title>
<g id="a_node8"><a xlink:href="https://github.com/conda-forge/openfoam-feedstock" xlink:title="openfoam">
<ellipse fill="#fde725" stroke="black" cx="450.69" cy="-62" rx="60.15" ry="18"/>
<text xml:space="preserve" text-anchor="middle" x="450.69" y="-57.33" font-family="Times,serif" font-size="14.00">openfoam</text>
</a>
</g>
</g>
<!-- petsc&#45;&gt;openfoam -->
<g id="edge4" class="edge">
<title>petsc&#45;&gt;openfoam</title>
<path fill="none" stroke="black" d="M279.78,-122.52C311.97,-111.31 363.54,-93.35 401.62,-80.09"/>
<polygon fill="black" stroke="black" points="402.75,-83.4 411.04,-76.81 400.45,-76.79 402.75,-83.4"/>
</g>
<!-- neper -->
<g id="node3" class="node">
<title>neper</title>
<g id="a_node3"><a xlink:href="https://github.com/conda-forge/neper-feedstock/pull/24" xlink:title="neper ❎">
<ellipse fill="#31688e" stroke="black" cx="606.69" cy="-18" rx="55.42" ry="18"/>
<text xml:space="preserve" text-anchor="middle" x="606.69" y="-13.32" font-family="Times,serif" font-size="14.00" fill="white">neper ❎</text>
</a>
</g>
</g>
<!-- muscat&#45;split -->
<g id="node6" class="node">
<title>muscat&#45;split</title>
<g id="a_node6"><a xlink:href="https://github.com/conda-forge/muscat-split-feedstock/pull/41" xlink:title="muscat split ❎">
<ellipse fill="#31688e" stroke="black" cx="606.69" cy="-98" rx="88.04" ry="18"/>
<text xml:space="preserve" text-anchor="middle" x="606.69" y="-93.33" font-family="Times,serif" font-size="14.00" fill="white">muscat split ❎</text>
</a>
</g>
</g>
<!-- pastix -->
<g id="node7" class="node">
<title>pastix</title>
<g id="a_node7"><a xlink:href="https://github.com/conda-forge/pastix-feedstock/pull/12" xlink:title="pastix ❎">
<ellipse fill="#31688e" stroke="black" cx="254.69" cy="-18" rx="57" ry="18"/>
<text xml:space="preserve" text-anchor="middle" x="254.69" y="-13.32" font-family="Times,serif" font-size="14.00" fill="white">pastix ❎</text>
</a>
</g>
</g>
<!-- opensees -->
<g id="node9" class="node">
<title>opensees</title>
<g id="a_node9"><a xlink:href="https://github.com/conda-forge/opensees-feedstock/pull/4" xlink:title="opensees ❎">
<ellipse fill="#31688e" stroke="black" cx="775.69" cy="-98" rx="72.78" ry="18"/>
<text xml:space="preserve" text-anchor="middle" x="775.69" y="-93.33" font-family="Times,serif" font-size="14.00" fill="white">opensees ❎</text>
</a>
</g>
</g>
</g>
</svg>
