<?xml version="1.0" encoding="UTF-8" standalone="no"?>
<!DOCTYPE svg PUBLIC "-//W3C//DTD SVG 1.1//EN"
 "http://www.w3.org/Graphics/SVG/1.1/DTD/svg11.dtd">
<!-- Generated by graphviz version 13.1.2 (20250809.0930)
 -->
<!-- Pages: 1 -->
<svg width="1027pt" height="188pt"
 viewBox="0.00 0.00 1027.00 188.00" xmlns="http://www.w3.org/2000/svg" xmlns:xlink="http://www.w3.org/1999/xlink">
<g id="graph0" class="graph" transform="scale(1 1) rotate(0) translate(4 184)">
<polygon fill="white" stroke="none" points="-4,4 -4,-184 1022.57,-184 1022.57,4 -4,4"/>
<!-- fenics -->
<g id="node1" class="node">
<title>fenics</title>
<g id="a_node1"><a xlink:href="https://github.com/conda-forge/fenics-feedstock" xlink:title="fenics">
<ellipse fill="#fde725" stroke="black" cx="352.15" cy="-18" rx="40.69" ry="18"/>
<text xml:space="preserve" text-anchor="middle" x="352.15" y="-13.32" font-family="Times,serif" font-size="14.00">fenics</text>
</a>
</g>
</g>
<!-- mumps -->
<g id="node2" class="node">
<title>mumps</title>
<g id="a_node2"><a xlink:href="https://github.com/conda-forge/mumps-feedstock/pull/145" xlink:title="mumps ❎">
<ellipse fill="#31688e" stroke="black" cx="555.15" cy="-162" rx="63.31" ry="18"/>
<text xml:space="preserve" text-anchor="middle" x="555.15" y="-157.32" font-family="Times,serif" font-size="14.00" fill="white">mumps ❎</text>
</a>
</g>
</g>
<!-- petsc -->
<g id="node3" class="node">
<title>petsc</title>
<g id="a_node3"><a xlink:href="https://github.com/conda-forge/petsc-feedstock" xlink:title="petsc">
<ellipse fill="#fde725" stroke="black" cx="216.15" cy="-90" rx="38.06" ry="18"/>
<text xml:space="preserve" text-anchor="middle" x="216.15" y="-85.33" font-family="Times,serif" font-size="14.00">petsc</text>
</a>
</g>
</g>
<!-- mumps&#45;&gt;petsc -->
<g id="edge6" class="edge">
<title>mumps&#45;&gt;petsc</title>
<path fill="none" stroke="black" d="M498.78,-153.47C439.72,-144.95 344.54,-129.41 264.15,-108 261.42,-107.27 258.63,-106.46 255.83,-105.6"/>
<polygon fill="black" stroke="black" points="257.14,-102.35 246.55,-102.57 254.96,-109 257.14,-102.35"/>
</g>
<!-- freefem -->
<g id="node6" class="node">
<title>freefem</title>
<g id="a_node6"><a xlink:href="https://github.com/conda-forge/freefem-feedstock" xlink:title="freefem">
<ellipse fill="#fde725" stroke="black" cx="727.15" cy="-18" rx="50.16" ry="18"/>
<text xml:space="preserve" text-anchor="middle" x="727.15" y="-13.32" font-family="Times,serif" font-size="14.00">freefem</text>
</a>
</g>
</g>
<!-- mumps&#45;&gt;freefem -->
<g id="edge2" class="edge">
<title>mumps&#45;&gt;freefem</title>
<path fill="none" stroke="black" d="M618.09,-159.47C656.55,-154.87 703.03,-141.97 728.15,-108 740.86,-90.82 739.54,-66.23 735.65,-47.25"/>
<polygon fill="black" stroke="black" points="739.1,-46.64 733.35,-37.74 732.3,-48.28 739.1,-46.64"/>
</g>
<!-- code&#45;aster -->
<g id="node7" class="node">
<title>code&#45;aster</title>
<g id="a_node7"><a xlink:href="https://github.com/conda-forge/code-aster-feedstock" xlink:title="code aster">
<ellipse fill="#fde725" stroke="black" cx="555.15" cy="-18" rx="63.31" ry="18"/>
<text xml:space="preserve" text-anchor="middle" x="555.15" y="-13.32" font-family="Times,serif" font-size="14.00">code aster</text>
</a>
</g>
</g>
<!-- mumps&#45;&gt;code&#45;aster -->
<g id="edge1" class="edge">
<title>mumps&#45;&gt;code&#45;aster</title>
<path fill="none" stroke="black" d="M616.37,-156.96C650.22,-151.22 689.66,-138 711.15,-108 739.74,-68.1 674.19,-43.62 619.47,-30.68"/>
<polygon fill="black" stroke="black" points="620.34,-27.29 609.82,-28.5 618.8,-34.12 620.34,-27.29"/>
</g>
<!-- muscat&#45;split -->
<g id="node8" class="node">
<title>muscat&#45;split</title>
<g id="a_node8"><a xlink:href="https://github.com/conda-forge/muscat-split-feedstock" xlink:title="muscat split">
<ellipse fill="#fde725" stroke="black" cx="629.15" cy="-90" rx="72.78" ry="18"/>
<text xml:space="preserve" text-anchor="middle" x="629.15" y="-85.33" font-family="Times,serif" font-size="14.00">muscat split</text>
</a>
</g>
</g>
<!-- mumps&#45;&gt;muscat&#45;split -->
<g id="edge4" class="edge">
<title>mumps&#45;&gt;muscat&#45;split</title>
<path fill="none" stroke="black" d="M572.69,-144.41C581.84,-135.76 593.21,-125 603.34,-115.42"/>
<polygon fill="black" stroke="black" points="605.53,-118.17 610.38,-108.75 600.71,-113.08 605.53,-118.17"/>
</g>
<!-- opensees -->
<g id="node11" class="node">
<title>opensees</title>
<g id="a_node11"><a xlink:href="https://github.com/conda-forge/opensees-feedstock" xlink:title="opensees">
<ellipse fill="#fde725" stroke="black" cx="481.15" cy="-90" rx="57.52" ry="18"/>
<text xml:space="preserve" text-anchor="middle" x="481.15" y="-85.33" font-family="Times,serif" font-size="14.00">opensees</text>
</a>
</g>
</g>
<!-- mumps&#45;&gt;opensees -->
<g id="edge5" class="edge">
<title>mumps&#45;&gt;opensees</title>
<path fill="none" stroke="black" d="M537.61,-144.41C528.4,-135.69 516.93,-124.85 506.74,-115.21"/>
<polygon fill="black" stroke="black" points="509.33,-112.84 499.66,-108.51 504.52,-117.92 509.33,-112.84"/>
</g>
<!-- mumps4py -->
<g id="node12" class="node">
<title>mumps4py</title>
<g id="a_node12"><a xlink:href="https://github.com/conda-forge/mumps4py-feedstock" xlink:title="mumps4py">
<ellipse fill="#fde725" stroke="black" cx="339.15" cy="-90" rx="66.47" ry="18"/>
<text xml:space="preserve" text-anchor="middle" x="339.15" y="-85.33" font-family="Times,serif" font-size="14.00">mumps4py</text>
</a>
</g>
</g>
<!-- mumps&#45;&gt;mumps4py -->
<g id="edge3" class="edge">
<title>mumps&#45;&gt;mumps4py</title>
<path fill="none" stroke="black" d="M514.52,-147.83C479.71,-136.55 429.34,-120.23 391.51,-107.97"/>
<polygon fill="black" stroke="black" points="392.73,-104.69 382.14,-104.93 390.57,-111.34 392.73,-104.69"/>
</g>
<!-- petsc&#45;&gt;fenics -->
<g id="edge8" class="edge">
<title>petsc&#45;&gt;fenics</title>
<path fill="none" stroke="black" d="M241.1,-76.16C262.2,-65.3 292.72,-49.59 316.42,-37.39"/>
<polygon fill="black" stroke="black" points="317.81,-40.61 325.1,-32.93 314.6,-34.39 317.81,-40.61"/>
</g>
<!-- fenics&#45;dolfinx -->
<g id="node5" class="node">
<title>fenics&#45;dolfinx</title>
<g id="a_node5"><a xlink:href="https://github.com/conda-forge/fenics-dolfinx-feedstock" xlink:title="fenics dolfinx">
<ellipse fill="#fde725" stroke="black" cx="216.15" cy="-18" rx="77.51" ry="18"/>
<text xml:space="preserve" text-anchor="middle" x="216.15" y="-13.32" font-family="Times,serif" font-size="14.00">fenics dolfinx</text>
</a>
</g>
</g>
<!-- petsc&#45;&gt;fenics&#45;dolfinx -->
<g id="edge9" class="edge">
<title>petsc&#45;&gt;fenics&#45;dolfinx</title>
<path fill="none" stroke="black" d="M216.15,-71.7C216.15,-64.41 216.15,-55.73 216.15,-47.54"/>
<polygon fill="black" stroke="black" points="219.65,-47.62 216.15,-37.62 212.65,-47.62 219.65,-47.62"/>
</g>
<!-- petsc&#45;&gt;freefem -->
<g id="edge10" class="edge">
<title>petsc&#45;&gt;freefem</title>
<path fill="none" stroke="black" d="M244.76,-77.6C251.06,-75.45 257.77,-73.43 264.15,-72 422.38,-36.68 466.47,-57.6 627.15,-36 641.89,-34.02 657.8,-31.49 672.49,-29"/>
<polygon fill="black" stroke="black" points="672.69,-32.52 681.95,-27.37 671.5,-25.62 672.69,-32.52"/>
</g>
<!-- petsc&#45;&gt;code&#45;aster -->
<g id="edge7" class="edge">
<title>petsc&#45;&gt;code&#45;aster</title>
<path fill="none" stroke="black" d="M245.11,-77.9C251.33,-75.76 257.92,-73.66 264.15,-72 339.67,-51.89 428.25,-36.96 487.66,-28.16"/>
<polygon fill="black" stroke="black" points="487.89,-31.66 497.28,-26.75 486.88,-24.73 487.89,-31.66"/>
</g>
<!-- openfoam -->
<g id="node10" class="node">
<title>openfoam</title>
<g id="a_node10"><a xlink:href="https://github.com/conda-forge/openfoam-feedstock" xlink:title="openfoam">
<ellipse fill="#fde725" stroke="black" cx="60.15" cy="-18" rx="60.15" ry="18"/>
<text xml:space="preserve" text-anchor="middle" x="60.15" y="-13.32" font-family="Times,serif" font-size="14.00">openfoam</text>
</a>
</g>
</g>
<!-- petsc&#45;&gt;openfoam -->
<g id="edge11" class="edge">
<title>petsc&#45;&gt;openfoam</title>
<path fill="none" stroke="black" d="M189.33,-76.97C165.54,-66.29 130.38,-50.51 102.74,-38.11"/>
<polygon fill="black" stroke="black" points="104.49,-35.06 93.94,-34.16 101.63,-41.45 104.49,-35.06"/>
</g>
<!-- neper -->
<g id="node4" class="node">
<title>neper</title>
<g id="a_node4"><a xlink:href="https://github.com/conda-forge/neper-feedstock/pull/27" xlink:title="neper ❎">
<ellipse fill="#31688e" stroke="black" cx="963.15" cy="-90" rx="55.42" ry="18"/>
<text xml:space="preserve" text-anchor="middle" x="963.15" y="-85.33" font-family="Times,serif" font-size="14.00" fill="white">neper ❎</text>
</a>
</g>
</g>
<!-- pastix -->
<g id="node9" class="node">
<title>pastix</title>
<g id="a_node9"><a xlink:href="https://github.com/conda-forge/pastix-feedstock/pull/16" xlink:title="pastix ❎">
<ellipse fill="#31688e" stroke="black" cx="842.15" cy="-90" rx="57" ry="18"/>
<text xml:space="preserve" text-anchor="middle" x="842.15" y="-85.33" font-family="Times,serif" font-size="14.00" fill="white">pastix ❎</text>
</a>
</g>
</g>
</g>
</svg>
