<?xml version="1.0" encoding="UTF-8" standalone="no"?>
<!DOCTYPE svg PUBLIC "-//W3C//DTD SVG 1.1//EN"
 "http://www.w3.org/Graphics/SVG/1.1/DTD/svg11.dtd">
<!-- Generated by graphviz version 12.0.0 (20240803.0821)
 -->
<!-- Pages: 1 -->
<svg width="1581pt" height="1024pt"
 viewBox="0.00 0.00 1581.48 1024.00" xmlns="http://www.w3.org/2000/svg" xmlns:xlink="http://www.w3.org/1999/xlink">
<g id="graph0" class="graph" transform="scale(1 1) rotate(0) translate(4 1020)">
<polygon fill="white" stroke="none" points="-4,4 -4,-1020 1577.48,-1020 1577.48,4 -4,4"/>
<!-- arrow&#45;cpp -->
<g id="node1" class="node">
<title>arrow&#45;cpp</title>
<g id="a_node1"><a xlink:href="https://github.com/conda-forge/arrow-cpp-feedstock" xlink:title="arrow cpp">
<ellipse fill="#fde725" stroke="black" cx="202.73" cy="-638" rx="61.73" ry="18"/>
<text text-anchor="middle" x="202.73" y="-633.33" font-family="Times,serif" font-size="14.00">arrow cpp</text>
</a>
</g>
</g>
<!-- gdal -->
<g id="node2" class="node">
<title>gdal</title>
<g id="a_node2"><a xlink:href="https://github.com/conda-forge/gdal-feedstock" xlink:title="gdal">
<ellipse fill="#fde725" stroke="black" cx="460.73" cy="-566" rx="32.79" ry="18"/>
<text text-anchor="middle" x="460.73" y="-561.33" font-family="Times,serif" font-size="14.00">gdal</text>
</a>
</g>
</g>
<!-- arrow&#45;cpp&#45;&gt;gdal -->
<g id="edge1" class="edge">
<title>arrow&#45;cpp&#45;&gt;gdal</title>
<path fill="none" stroke="black" d="M248.1,-625.34C288.69,-614.82 349.79,-598.77 402.73,-584 408.79,-582.31 415.2,-580.48 421.46,-578.66"/>
<polygon fill="black" stroke="black" points="422.38,-582.04 431,-575.87 420.42,-575.32 422.38,-582.04"/>
</g>
<!-- arcticdb -->
<g id="node3" class="node">
<title>arcticdb</title>
<g id="a_node3"><a xlink:href="https://github.com/conda-forge/arcticdb-feedstock" xlink:title="arcticdb">
<ellipse fill="#fde725" stroke="black" cx="624.73" cy="-494" rx="52.26" ry="18"/>
<text text-anchor="middle" x="624.73" y="-489.32" font-family="Times,serif" font-size="14.00">arcticdb</text>
</a>
</g>
</g>
<!-- arrow&#45;cpp&#45;&gt;arcticdb -->
<g id="edge2" class="edge">
<title>arrow&#45;cpp&#45;&gt;arcticdb</title>
<path fill="none" stroke="black" d="M205.36,-619.83C209.49,-599.25 219.55,-565.37 242.73,-548 291.77,-511.25 466,-499.96 561.31,-496.51"/>
<polygon fill="black" stroke="black" points="561.14,-500.01 571.02,-496.17 560.9,-493.02 561.14,-500.01"/>
</g>
<!-- csp -->
<g id="node4" class="node">
<title>csp</title>
<g id="a_node4"><a xlink:href="https://github.com/conda-forge/csp-feedstock" xlink:title="csp">
<ellipse fill="#fde725" stroke="black" cx="114.73" cy="-566" rx="28.06" ry="18"/>
<text text-anchor="middle" x="114.73" y="-561.33" font-family="Times,serif" font-size="14.00">csp</text>
</a>
</g>
</g>
<!-- arrow&#45;cpp&#45;&gt;csp -->
<g id="edge3" class="edge">
<title>arrow&#45;cpp&#45;&gt;csp</title>
<path fill="none" stroke="black" d="M182.32,-620.76C169.86,-610.85 153.82,-598.09 140.49,-587.49"/>
<polygon fill="black" stroke="black" points="142.97,-584.99 132.96,-581.5 138.61,-590.47 142.97,-584.99"/>
</g>
<!-- blosc -->
<g id="node5" class="node">
<title>blosc</title>
<g id="a_node5"><a xlink:href="https://github.com/conda-forge/blosc-feedstock" xlink:title="blosc">
<ellipse fill="#fde725" stroke="black" cx="788.73" cy="-710" rx="37" ry="18"/>
<text text-anchor="middle" x="788.73" y="-705.33" font-family="Times,serif" font-size="14.00">blosc</text>
</a>
</g>
</g>
<!-- blosc&#45;&gt;gdal -->
<g id="edge4" class="edge">
<title>blosc&#45;&gt;gdal</title>
<path fill="none" stroke="black" d="M752.96,-705.03C711.13,-699.19 640.86,-685.58 587.73,-656 567.4,-644.68 568.28,-634.04 549.73,-620 532.11,-606.67 510.9,-593.92 493.6,-584.27"/>
<polygon fill="black" stroke="black" points="495.71,-581.43 485.26,-579.7 492.34,-587.57 495.71,-581.43"/>
</g>
<!-- imagecodecs -->
<g id="node6" class="node">
<title>imagecodecs</title>
<g id="a_node6"><a xlink:href="https://github.com/conda-forge/imagecodecs-feedstock" xlink:title="imagecodecs">
<ellipse fill="#fde725" stroke="black" cx="849.73" cy="-638" rx="75.41" ry="18"/>
<text text-anchor="middle" x="849.73" y="-633.33" font-family="Times,serif" font-size="14.00">imagecodecs</text>
</a>
</g>
</g>
<!-- blosc&#45;&gt;imagecodecs -->
<g id="edge5" class="edge">
<title>blosc&#45;&gt;imagecodecs</title>
<path fill="none" stroke="black" d="M802.57,-693.12C810,-684.59 819.33,-673.89 827.73,-664.25"/>
<polygon fill="black" stroke="black" points="830.17,-666.78 834.1,-656.94 824.89,-662.18 830.17,-666.78"/>
</g>
<!-- flann -->
<g id="node7" class="node">
<title>flann</title>
<g id="a_node7"><a xlink:href="https://github.com/conda-forge/flann-feedstock" xlink:title="flann">
<ellipse fill="#35b779" stroke="black" cx="1227.44" cy="-198" rx="35.95" ry="18"/>
<text text-anchor="middle" x="1227.44" y="-193.32" font-family="Times,serif" font-size="14.00">flann</text>
</a>
</g>
</g>
<!-- colmap -->
<g id="node8" class="node">
<title>colmap</title>
<g id="a_node8"><a xlink:href="https://github.com/conda-forge/colmap-feedstock" xlink:title="colmap">
<ellipse fill="#fde725" stroke="black" cx="1190.44" cy="-126" rx="47" ry="18"/>
<text text-anchor="middle" x="1190.44" y="-121.33" font-family="Times,serif" font-size="14.00">colmap</text>
</a>
</g>
</g>
<!-- flann&#45;&gt;colmap -->
<g id="edge6" class="edge">
<title>flann&#45;&gt;colmap</title>
<path fill="none" stroke="black" d="M1218.67,-180.41C1214.49,-172.51 1209.39,-162.85 1204.67,-153.94"/>
<polygon fill="black" stroke="black" points="1207.87,-152.5 1200.11,-145.29 1201.69,-155.77 1207.87,-152.5"/>
</g>
<!-- pycolmap -->
<g id="node9" class="node">
<title>pycolmap</title>
<g id="a_node9"><a xlink:href="https://github.com/conda-forge/pycolmap-feedstock" xlink:title="pycolmap">
<ellipse fill="#fde725" stroke="black" cx="1227.44" cy="-54" rx="59.1" ry="18"/>
<text text-anchor="middle" x="1227.44" y="-49.33" font-family="Times,serif" font-size="14.00">pycolmap</text>
</a>
</g>
</g>
<!-- flann&#45;&gt;pycolmap -->
<g id="edge7" class="edge">
<title>flann&#45;&gt;pycolmap</title>
<path fill="none" stroke="black" d="M1235.13,-180.22C1239.4,-169.99 1244.26,-156.52 1246.44,-144 1249.18,-128.24 1249.18,-123.76 1246.44,-108 1244.98,-99.62 1242.32,-90.82 1239.44,-82.84"/>
<polygon fill="black" stroke="black" points="1242.76,-81.72 1235.88,-73.67 1236.24,-84.25 1242.76,-81.72"/>
</g>
<!-- colmap&#45;&gt;pycolmap -->
<g id="edge8" class="edge">
<title>colmap&#45;&gt;pycolmap</title>
<path fill="none" stroke="black" d="M1199.39,-108.05C1203.47,-100.35 1208.39,-91.03 1212.97,-82.36"/>
<polygon fill="black" stroke="black" points="1216.02,-84.09 1217.6,-73.61 1209.83,-80.82 1216.02,-84.09"/>
</g>
<!-- libarchive -->
<g id="node10" class="node">
<title>libarchive</title>
<g id="a_node10"><a xlink:href="https://github.com/conda-forge/libarchive-feedstock" xlink:title="libarchive">
<ellipse fill="#35b779" stroke="black" cx="657.73" cy="-638" rx="60.68" ry="18"/>
<text text-anchor="middle" x="657.73" y="-633.33" font-family="Times,serif" font-size="14.00">libarchive</text>
</a>
</g>
</g>
<!-- libarchive&#45;&gt;gdal -->
<g id="edge9" class="edge">
<title>libarchive&#45;&gt;gdal</title>
<path fill="none" stroke="black" d="M619.75,-623.5C584.84,-611.1 533.37,-592.81 498.53,-580.43"/>
<polygon fill="black" stroke="black" points="499.86,-577.19 489.26,-577.14 497.52,-583.79 499.86,-577.19"/>
</g>
<!-- flux&#45;core -->
<g id="node11" class="node">
<title>flux&#45;core</title>
<g id="a_node11"><a xlink:href="https://github.com/conda-forge/flux-core-feedstock" xlink:title="flux core">
<ellipse fill="#fde725" stroke="black" cx="657.73" cy="-566" rx="54.36" ry="18"/>
<text text-anchor="middle" x="657.73" y="-561.33" font-family="Times,serif" font-size="14.00">flux core</text>
</a>
</g>
</g>
<!-- libarchive&#45;&gt;flux&#45;core -->
<g id="edge10" class="edge">
<title>libarchive&#45;&gt;flux&#45;core</title>
<path fill="none" stroke="black" d="M657.73,-619.7C657.73,-612.41 657.73,-603.73 657.73,-595.54"/>
<polygon fill="black" stroke="black" points="661.23,-595.62 657.73,-585.62 654.23,-595.62 661.23,-595.62"/>
</g>
<!-- librdkafka -->
<g id="node12" class="node">
<title>librdkafka</title>
<g id="a_node12"><a xlink:href="https://github.com/conda-forge/librdkafka-feedstock" xlink:title="librdkafka">
<ellipse fill="#35b779" stroke="black" cx="61.73" cy="-638" rx="61.73" ry="18"/>
<text text-anchor="middle" x="61.73" y="-633.33" font-family="Times,serif" font-size="14.00">librdkafka</text>
</a>
</g>
</g>
<!-- librdkafka&#45;&gt;csp -->
<g id="edge11" class="edge">
<title>librdkafka&#45;&gt;csp</title>
<path fill="none" stroke="black" d="M74.56,-620.05C81.09,-611.44 89.13,-600.81 96.31,-591.33"/>
<polygon fill="black" stroke="black" points="98.94,-593.65 102.19,-583.56 93.36,-589.42 98.94,-593.65"/>
</g>
<!-- mysql -->
<g id="node13" class="node">
<title>mysql</title>
<g id="a_node13"><a xlink:href="https://github.com/conda-forge/mysql-feedstock" xlink:title="mysql">
<ellipse fill="#35b779" stroke="black" cx="1214.99" cy="-998" rx="41.21" ry="18"/>
<text text-anchor="middle" x="1214.99" y="-993.33" font-family="Times,serif" font-size="14.00">mysql</text>
</a>
</g>
</g>
<!-- paraview -->
<g id="node14" class="node">
<title>paraview</title>
<g id="a_node14"><a xlink:href="https://github.com/conda-forge/paraview-feedstock" xlink:title="paraview">
<ellipse fill="#35b779" stroke="black" cx="1214.99" cy="-926" rx="57" ry="18"/>
<text text-anchor="middle" x="1214.99" y="-921.33" font-family="Times,serif" font-size="14.00">paraview</text>
</a>
</g>
</g>
<!-- mysql&#45;&gt;paraview -->
<!-- vtk -->
<g id="node15" class="node">
<title>vtk</title>
<g id="a_node15"><a xlink:href="https://github.com/conda-forge/vtk-feedstock" xlink:title="vtk">
<ellipse fill="#35b779" stroke="black" cx="1214.99" cy="-854" rx="27.01" ry="18"/>
<text text-anchor="middle" x="1214.99" y="-849.33" font-family="Times,serif" font-size="14.00">vtk</text>
</a>
</g>
</g>
<!-- paraview&#45;&gt;vtk -->
<!-- squashfs&#45;tools -->
<g id="node28" class="node">
<title>squashfs&#45;tools</title>
<g id="a_node28"><a xlink:href="https://github.com/conda-forge/squashfs-tools-feedstock" xlink:title="squashfs tools">
<ellipse fill="#35b779" stroke="black" cx="1214.99" cy="-782" rx="82.77" ry="18"/>
<text text-anchor="middle" x="1214.99" y="-777.33" font-family="Times,serif" font-size="14.00">squashfs tools</text>
</a>
</g>
</g>
<!-- vtk&#45;&gt;squashfs&#45;tools -->
<!-- postgresql -->
<g id="node16" class="node">
<title>postgresql</title>
<g id="a_node16"><a xlink:href="https://github.com/conda-forge/postgresql-feedstock/pull/230" xlink:title="postgresql ❎">
<ellipse fill="#31688e" stroke="black" cx="460.73" cy="-638" rx="79.62" ry="18"/>
<text text-anchor="middle" x="460.73" y="-633.33" font-family="Times,serif" font-size="14.00" fill="white">postgresql ❎</text>
</a>
</g>
</g>
<!-- postgresql&#45;&gt;gdal -->
<g id="edge14" class="edge">
<title>postgresql&#45;&gt;gdal</title>
<path fill="none" stroke="black" d="M460.73,-619.7C460.73,-612.41 460.73,-603.73 460.73,-595.54"/>
<polygon fill="black" stroke="black" points="464.23,-595.62 460.73,-585.62 457.23,-595.62 464.23,-595.62"/>
</g>
<!-- rsync -->
<g id="node17" class="node">
<title>rsync</title>
<g id="a_node17"><a xlink:href="https://github.com/conda-forge/rsync-feedstock" xlink:title="rsync">
<ellipse fill="#35b779" stroke="black" cx="1460.64" cy="-746" rx="38.58" ry="18"/>
<text text-anchor="middle" x="1460.64" y="-741.33" font-family="Times,serif" font-size="14.00">rsync</text>
</a>
</g>
</g>
<!-- root -->
<g id="node18" class="node">
<title>root</title>
<g id="a_node18"><a xlink:href="https://github.com/conda-forge/root-feedstock" xlink:title="root">
<ellipse fill="#fde725" stroke="black" cx="1400.64" cy="-674" rx="31.74" ry="18"/>
<text text-anchor="middle" x="1400.64" y="-669.33" font-family="Times,serif" font-size="14.00">root</text>
</a>
</g>
</g>
<!-- rsync&#45;&gt;root -->
<g id="edge15" class="edge">
<title>rsync&#45;&gt;root</title>
<path fill="none" stroke="black" d="M1446.72,-728.76C1439.2,-719.98 1429.75,-708.96 1421.37,-699.19"/>
<polygon fill="black" stroke="black" points="1424.22,-697.13 1415.05,-691.81 1418.9,-701.69 1424.22,-697.13"/>
</g>
<!-- r&#45;qs -->
<g id="node19" class="node">
<title>r&#45;qs</title>
<g id="a_node19"><a xlink:href="https://github.com/conda-forge/r-qs-feedstock" xlink:title="r qs">
<ellipse fill="#fde725" stroke="black" cx="1460.64" cy="-602" rx="30.69" ry="18"/>
<text text-anchor="middle" x="1460.64" y="-597.33" font-family="Times,serif" font-size="14.00">r qs</text>
</a>
</g>
</g>
<!-- rsync&#45;&gt;r&#45;qs -->
<g id="edge16" class="edge">
<title>rsync&#45;&gt;r&#45;qs</title>
<path fill="none" stroke="black" d="M1460.64,-727.59C1460.64,-703.61 1460.64,-660.14 1460.64,-631.42"/>
<polygon fill="black" stroke="black" points="1464.14,-631.62 1460.64,-621.62 1457.14,-631.62 1464.14,-631.62"/>
</g>
<!-- r&#45;fstcore -->
<g id="node20" class="node">
<title>r&#45;fstcore</title>
<g id="a_node20"><a xlink:href="https://github.com/conda-forge/r-fstcore-feedstock" xlink:title="r fstcore">
<ellipse fill="#fde725" stroke="black" cx="1519.64" cy="-530" rx="53.84" ry="18"/>
<text text-anchor="middle" x="1519.64" y="-525.33" font-family="Times,serif" font-size="14.00">r fstcore</text>
</a>
</g>
</g>
<!-- rsync&#45;&gt;r&#45;fstcore -->
<g id="edge17" class="edge">
<title>rsync&#45;&gt;r&#45;fstcore</title>
<path fill="none" stroke="black" d="M1466.75,-727.77C1475.12,-703.81 1490.27,-658.97 1500.64,-620 1505.98,-599.9 1510.86,-576.94 1514.33,-559.38"/>
<polygon fill="black" stroke="black" points="1517.74,-560.15 1516.21,-549.67 1510.87,-558.82 1517.74,-560.15"/>
</g>
<!-- tiledb -->
<g id="node21" class="node">
<title>tiledb</title>
<g id="a_node21"><a xlink:href="https://github.com/conda-forge/tiledb-feedstock" xlink:title="tiledb">
<ellipse fill="#35b779" stroke="black" cx="322.73" cy="-638" rx="40.16" ry="18"/>
<text text-anchor="middle" x="322.73" y="-633.33" font-family="Times,serif" font-size="14.00">tiledb</text>
</a>
</g>
</g>
<!-- tiledb&#45;&gt;gdal -->
<g id="edge18" class="edge">
<title>tiledb&#45;&gt;gdal</title>
<path fill="none" stroke="black" d="M348.69,-623.83C370.86,-612.59 402.9,-596.33 427.05,-584.08"/>
<polygon fill="black" stroke="black" points="428.51,-587.27 435.84,-579.62 425.34,-581.03 428.51,-587.27"/>
</g>
<!-- libtiledb&#45;sql -->
<g id="node22" class="node">
<title>libtiledb&#45;sql</title>
<g id="a_node22"><a xlink:href="https://github.com/conda-forge/libtiledb-sql-feedstock" xlink:title="libtiledb sql">
<ellipse fill="#fde725" stroke="black" cx="322.73" cy="-566" rx="70.68" ry="18"/>
<text text-anchor="middle" x="322.73" y="-561.33" font-family="Times,serif" font-size="14.00">libtiledb sql</text>
</a>
</g>
</g>
<!-- tiledb&#45;&gt;libtiledb&#45;sql -->
<g id="edge19" class="edge">
<title>tiledb&#45;&gt;libtiledb&#45;sql</title>
<path fill="none" stroke="black" d="M322.73,-619.7C322.73,-612.41 322.73,-603.73 322.73,-595.54"/>
<polygon fill="black" stroke="black" points="326.23,-595.62 322.73,-585.62 319.23,-595.62 326.23,-595.62"/>
</g>
<!-- snappy -->
<g id="node23" class="node">
<title>snappy</title>
<g id="a_node23"><a xlink:href="https://github.com/conda-forge/snappy-feedstock" xlink:title="snappy">
<ellipse fill="#35b779" stroke="black" cx="788.73" cy="-782" rx="47" ry="18"/>
<text text-anchor="middle" x="788.73" y="-777.33" font-family="Times,serif" font-size="14.00">snappy</text>
</a>
</g>
</g>
<!-- snappy&#45;&gt;arrow&#45;cpp -->
<g id="edge20" class="edge">
<title>snappy&#45;&gt;arrow&#45;cpp</title>
<path fill="none" stroke="black" d="M747.22,-773.08C696.79,-763.29 609.23,-745.74 534.73,-728 435.95,-704.47 321.81,-672.9 256.37,-654.38"/>
<polygon fill="black" stroke="black" points="257.54,-651.07 246.97,-651.71 255.63,-657.8 257.54,-651.07"/>
</g>
<!-- snappy&#45;&gt;blosc -->
<g id="edge21" class="edge">
<title>snappy&#45;&gt;blosc</title>
<path fill="none" stroke="black" d="M788.73,-763.7C788.73,-756.41 788.73,-747.73 788.73,-739.54"/>
<polygon fill="black" stroke="black" points="792.23,-739.62 788.73,-729.62 785.23,-739.62 792.23,-739.62"/>
</g>
<!-- snappy&#45;&gt;imagecodecs -->
<g id="edge22" class="edge">
<title>snappy&#45;&gt;imagecodecs</title>
<path fill="none" stroke="black" d="M835.77,-780.43C875.17,-777.15 929.24,-765.49 956.73,-728 966.19,-715.1 965.17,-705.59 956.73,-692 946.4,-675.36 929.13,-663.79 911.44,-655.8"/>
<polygon fill="black" stroke="black" points="913.01,-652.66 902.43,-652.08 910.34,-659.13 913.01,-652.66"/>
</g>
<!-- orc -->
<g id="node24" class="node">
<title>orc</title>
<g id="a_node24"><a xlink:href="https://github.com/conda-forge/orc-feedstock" xlink:title="orc">
<ellipse fill="#fde725" stroke="black" cx="570.73" cy="-710" rx="27.01" ry="18"/>
<text text-anchor="middle" x="570.73" y="-705.33" font-family="Times,serif" font-size="14.00">orc</text>
</a>
</g>
</g>
<!-- snappy&#45;&gt;orc -->
<g id="edge23" class="edge">
<title>snappy&#45;&gt;orc</title>
<path fill="none" stroke="black" d="M753.7,-769.75C713,-756.68 646.23,-735.24 605.6,-722.2"/>
<polygon fill="black" stroke="black" points="606.9,-718.94 596.31,-719.21 604.76,-725.6 606.9,-718.94"/>
</g>
<!-- rocksdb -->
<g id="node25" class="node">
<title>rocksdb</title>
<g id="a_node25"><a xlink:href="https://github.com/conda-forge/rocksdb-feedstock" xlink:title="rocksdb">
<ellipse fill="#fde725" stroke="black" cx="993.73" cy="-638" rx="50.68" ry="18"/>
<text text-anchor="middle" x="993.73" y="-633.33" font-family="Times,serif" font-size="14.00">rocksdb</text>
</a>
</g>
</g>
<!-- snappy&#45;&gt;rocksdb -->
<g id="edge24" class="edge">
<title>snappy&#45;&gt;rocksdb</title>
<path fill="none" stroke="black" d="M835.8,-780.35C877.87,-777.15 938.19,-765.66 973.73,-728 988.78,-712.05 993.4,-687.32 994.47,-667.97"/>
<polygon fill="black" stroke="black" points="997.97,-668.05 994.7,-657.97 990.97,-667.89 997.97,-668.05"/>
</g>
<!-- folly -->
<g id="node26" class="node">
<title>folly</title>
<g id="a_node26"><a xlink:href="https://github.com/conda-forge/folly-feedstock" xlink:title="folly">
<ellipse fill="#fde725" stroke="black" cx="1027.73" cy="-566" rx="32.79" ry="18"/>
<text text-anchor="middle" x="1027.73" y="-561.33" font-family="Times,serif" font-size="14.00">folly</text>
</a>
</g>
</g>
<!-- snappy&#45;&gt;folly -->
<g id="edge25" class="edge">
<title>snappy&#45;&gt;folly</title>
<path fill="none" stroke="black" d="M834.84,-777.59C879.14,-772.47 946.44,-759.71 995.73,-728 1030.29,-705.77 1040.06,-694.75 1053.73,-656 1061.08,-635.16 1053.07,-611.08 1044.06,-593.22"/>
<polygon fill="black" stroke="black" points="1047.2,-591.67 1039.33,-584.57 1041.06,-595.03 1047.2,-591.67"/>
</g>
<!-- aimrocks -->
<g id="node27" class="node">
<title>aimrocks</title>
<g id="a_node27"><a xlink:href="https://github.com/conda-forge/aimrocks-feedstock" xlink:title="aimrocks">
<ellipse fill="#fde725" stroke="black" cx="875.73" cy="-566" rx="56.47" ry="18"/>
<text text-anchor="middle" x="875.73" y="-561.33" font-family="Times,serif" font-size="14.00">aimrocks</text>
</a>
</g>
</g>
<!-- snappy&#45;&gt;aimrocks -->
<g id="edge26" class="edge">
<title>snappy&#45;&gt;aimrocks</title>
<path fill="none" stroke="black" d="M769.82,-765.46C759.69,-755.86 748.19,-742.61 742.73,-728 725.56,-682.02 733.54,-657.04 765.73,-620 780.7,-602.78 802.53,-590.67 822.81,-582.41"/>
<polygon fill="black" stroke="black" points="824.02,-585.7 832.12,-578.87 821.53,-579.15 824.02,-585.7"/>
</g>
<!-- orc&#45;&gt;arrow&#45;cpp -->
<g id="edge27" class="edge">
<title>orc&#45;&gt;arrow&#45;cpp</title>
<path fill="none" stroke="black" d="M544.41,-704.83C492.47,-696.49 373.2,-676.76 273.73,-656 269.12,-655.04 264.36,-654 259.58,-652.92"/>
<polygon fill="black" stroke="black" points="260.48,-649.54 249.95,-650.71 258.91,-656.36 260.48,-649.54"/>
</g>
<!-- rocksdb&#45;&gt;aimrocks -->
<g id="edge28" class="edge">
<title>rocksdb&#45;&gt;aimrocks</title>
<path fill="none" stroke="black" d="M968.42,-621.98C951.73,-612.09 929.64,-598.98 911.21,-588.05"/>
<polygon fill="black" stroke="black" points="913.1,-585.1 902.71,-583.01 909.53,-591.12 913.1,-585.1"/>
</g>
<!-- folly&#45;&gt;arcticdb -->
<g id="edge29" class="edge">
<title>folly&#45;&gt;arcticdb</title>
<path fill="none" stroke="black" d="M997.17,-558.82C980.51,-555.5 959.51,-551.41 940.73,-548 850.82,-531.68 746.18,-514.48 682.73,-504.25"/>
<polygon fill="black" stroke="black" points="683.3,-500.8 672.87,-502.66 682.19,-507.71 683.3,-500.8"/>
</g>
<!-- hdf5&#45;external&#45;filter&#45;plugins -->
<g id="node31" class="node">
<title>hdf5&#45;external&#45;filter&#45;plugins</title>
<g id="a_node31"><a xlink:href="https://github.com/conda-forge/hdf5-external-filter-plugins-feedstock" xlink:title="hdf5 external filter plugins">
<ellipse fill="#35b779" stroke="black" cx="1214.99" cy="-710" rx="145.91" ry="18"/>
<text text-anchor="middle" x="1214.99" y="-705.33" font-family="Times,serif" font-size="14.00">hdf5 external filter plugins</text>
</a>
</g>
</g>
<!-- squashfs&#45;tools&#45;&gt;hdf5&#45;external&#45;filter&#45;plugins -->
<!-- lz4 -->
<g id="node29" class="node">
<title>lz4</title>
<g id="a_node29"><a xlink:href="https://github.com/conda-forge/lz4-feedstock" xlink:title="lz4">
<ellipse fill="#35b779" stroke="black" cx="1471.19" cy="-162" rx="27" ry="18"/>
<text text-anchor="middle" x="1471.19" y="-157.32" font-family="Times,serif" font-size="14.00">lz4</text>
</a>
</g>
</g>
<!-- vrs -->
<g id="node30" class="node">
<title>vrs</title>
<g id="a_node30"><a xlink:href="https://github.com/conda-forge/vrs-feedstock" xlink:title="vrs">
<ellipse fill="#fde725" stroke="black" cx="1471.19" cy="-90" rx="27.01" ry="18"/>
<text text-anchor="middle" x="1471.19" y="-85.33" font-family="Times,serif" font-size="14.00">vrs</text>
</a>
</g>
</g>
<!-- lz4&#45;&gt;vrs -->
<g id="edge31" class="edge">
<title>lz4&#45;&gt;vrs</title>
<path fill="none" stroke="black" d="M1471.19,-143.7C1471.19,-136.41 1471.19,-127.73 1471.19,-119.54"/>
<polygon fill="black" stroke="black" points="1474.69,-119.62 1471.19,-109.62 1467.69,-119.62 1474.69,-119.62"/>
</g>
<!-- subversion -->
<g id="node32" class="node">
<title>subversion</title>
<g id="a_node32"><a xlink:href="https://github.com/conda-forge/subversion-feedstock" xlink:title="subversion">
<ellipse fill="#35b779" stroke="black" cx="1214.99" cy="-638" rx="65.94" ry="18"/>
<text text-anchor="middle" x="1214.99" y="-633.33" font-family="Times,serif" font-size="14.00">subversion</text>
</a>
</g>
</g>
<!-- hdf5&#45;external&#45;filter&#45;plugins&#45;&gt;subversion -->
<!-- openconnect -->
<g id="node34" class="node">
<title>openconnect</title>
<g id="a_node34"><a xlink:href="https://github.com/conda-forge/openconnect-feedstock" xlink:title="openconnect">
<ellipse fill="#35b779" stroke="black" cx="1214.99" cy="-566" rx="74.36" ry="18"/>
<text text-anchor="middle" x="1214.99" y="-561.33" font-family="Times,serif" font-size="14.00">openconnect</text>
</a>
</g>
</g>
<!-- subversion&#45;&gt;openconnect -->
<!-- c&#45;blosc2 -->
<g id="node33" class="node">
<title>c&#45;blosc2</title>
<g id="a_node33"><a xlink:href="https://github.com/conda-forge/c-blosc2-feedstock" xlink:title="c blosc2">
<ellipse fill="#35b779" stroke="black" cx="895.73" cy="-710" rx="51.74" ry="18"/>
<text text-anchor="middle" x="895.73" y="-705.33" font-family="Times,serif" font-size="14.00">c blosc2</text>
</a>
</g>
</g>
<!-- c&#45;blosc2&#45;&gt;imagecodecs -->
<g id="edge34" class="edge">
<title>c&#45;blosc2&#45;&gt;imagecodecs</title>
<path fill="none" stroke="black" d="M884.59,-692.05C879.42,-684.18 873.14,-674.62 867.34,-665.79"/>
<polygon fill="black" stroke="black" points="870.33,-663.98 861.91,-657.54 864.48,-667.82 870.33,-663.98"/>
</g>
<!-- squashfuse -->
<g id="node35" class="node">
<title>squashfuse</title>
<g id="a_node35"><a xlink:href="https://github.com/conda-forge/squashfuse-feedstock" xlink:title="squashfuse">
<ellipse fill="#35b779" stroke="black" cx="1214.99" cy="-494" rx="67.52" ry="18"/>
<text text-anchor="middle" x="1214.99" y="-489.32" font-family="Times,serif" font-size="14.00">squashfuse</text>
</a>
</g>
</g>
<!-- openconnect&#45;&gt;squashfuse -->
<!-- tomviz -->
<g id="node36" class="node">
<title>tomviz</title>
<g id="a_node36"><a xlink:href="https://github.com/conda-forge/tomviz-feedstock" xlink:title="tomviz">
<ellipse fill="#35b779" stroke="black" cx="1214.99" cy="-422" rx="44.9" ry="18"/>
<text text-anchor="middle" x="1214.99" y="-417.32" font-family="Times,serif" font-size="14.00">tomviz</text>
</a>
</g>
</g>
<!-- squashfuse&#45;&gt;tomviz -->
<!-- systemd -->
<g id="node37" class="node">
<title>systemd</title>
<g id="a_node37"><a xlink:href="https://github.com/conda-forge/systemd-feedstock" xlink:title="systemd">
<ellipse fill="#35b779" stroke="black" cx="1214.99" cy="-350" rx="53.31" ry="18"/>
<text text-anchor="middle" x="1214.99" y="-345.32" font-family="Times,serif" font-size="14.00">systemd</text>
</a>
</g>
</g>
<!-- tomviz&#45;&gt;systemd -->
<!-- odc -->
<g id="node38" class="node">
<title>odc</title>
<g id="a_node38"><a xlink:href="https://github.com/conda-forge/odc-feedstock" xlink:title="odc">
<ellipse fill="#35b779" stroke="black" cx="1214.99" cy="-278" rx="28.59" ry="18"/>
<text text-anchor="middle" x="1214.99" y="-273.32" font-family="Times,serif" font-size="14.00">odc</text>
</a>
</g>
</g>
<!-- systemd&#45;&gt;odc -->
<!-- memray -->
<g id="node39" class="node">
<title>memray</title>
<g id="a_node39"><a xlink:href="https://github.com/conda-forge/memray-feedstock" xlink:title="memray">
<ellipse fill="#35b779" stroke="black" cx="530.54" cy="-234" rx="52.26" ry="18"/>
<text text-anchor="middle" x="530.54" y="-229.32" font-family="Times,serif" font-size="14.00">memray</text>
</a>
</g>
</g>
<!-- osmium&#45;tool -->
<g id="node40" class="node">
<title>osmium&#45;tool</title>
<g id="a_node40"><a xlink:href="https://github.com/conda-forge/osmium-tool-feedstock" xlink:title="osmium tool">
<ellipse fill="#35b779" stroke="black" cx="530.54" cy="-162" rx="72.78" ry="18"/>
<text text-anchor="middle" x="530.54" y="-157.32" font-family="Times,serif" font-size="14.00">osmium tool</text>
</a>
</g>
</g>
<!-- memray&#45;&gt;osmium&#45;tool -->
<!-- aestream -->
<g id="node41" class="node">
<title>aestream</title>
<g id="a_node41"><a xlink:href="https://github.com/conda-forge/aestream-feedstock" xlink:title="aestream">
<ellipse fill="#35b779" stroke="black" cx="530.54" cy="-90" rx="58.05" ry="18"/>
<text text-anchor="middle" x="530.54" y="-85.33" font-family="Times,serif" font-size="14.00">aestream</text>
</a>
</g>
</g>
<!-- osmium&#45;tool&#45;&gt;aestream -->
<!-- ugrep -->
<g id="node42" class="node">
<title>ugrep</title>
<g id="a_node42"><a xlink:href="https://github.com/conda-forge/ugrep-feedstock" xlink:title="ugrep">
<ellipse fill="#fde725" stroke="black" cx="530.54" cy="-18" rx="40.69" ry="18"/>
<text text-anchor="middle" x="530.54" y="-13.32" font-family="Times,serif" font-size="14.00">ugrep</text>
</a>
</g>
</g>
<!-- aestream&#45;&gt;ugrep -->
</g>
</svg>
