<?xml version="1.0" encoding="UTF-8" standalone="no"?>
<!DOCTYPE svg PUBLIC "-//W3C//DTD SVG 1.1//EN"
 "http://www.w3.org/Graphics/SVG/1.1/DTD/svg11.dtd">
<!-- Generated by graphviz version 12.0.0 (20240803.0821)
 -->
<!-- Pages: 1 -->
<svg width="1609pt" height="1024pt"
 viewBox="0.00 0.00 1609.45 1024.00" xmlns="http://www.w3.org/2000/svg" xmlns:xlink="http://www.w3.org/1999/xlink">
<g id="graph0" class="graph" transform="scale(1 1) rotate(0) translate(4 1020)">
<polygon fill="white" stroke="none" points="-4,4 -4,-1020 1605.45,-1020 1605.45,4 -4,4"/>
<!-- arrow&#45;cpp -->
<g id="node1" class="node">
<title>arrow&#45;cpp</title>
<g id="a_node1"><a xlink:href="https://github.com/conda-forge/arrow-cpp-feedstock" xlink:title="arrow cpp">
<ellipse fill="#fde725" stroke="black" cx="202.73" cy="-638" rx="61.73" ry="18"/>
<text text-anchor="middle" x="202.73" y="-633.33" font-family="Times,serif" font-size="14.00">arrow cpp</text>
</a>
</g>
</g>
<!-- gdal -->
<g id="node2" class="node">
<title>gdal</title>
<g id="a_node2"><a xlink:href="https://github.com/conda-forge/gdal-feedstock" xlink:title="gdal">
<ellipse fill="#fde725" stroke="black" cx="460.73" cy="-566" rx="32.79" ry="18"/>
<text text-anchor="middle" x="460.73" y="-561.33" font-family="Times,serif" font-size="14.00">gdal</text>
</a>
</g>
</g>
<!-- arrow&#45;cpp&#45;&gt;gdal -->
<g id="edge1" class="edge">
<title>arrow&#45;cpp&#45;&gt;gdal</title>
<path fill="none" stroke="black" d="M248.1,-625.34C288.69,-614.82 349.79,-598.77 402.73,-584 408.79,-582.31 415.2,-580.48 421.46,-578.66"/>
<polygon fill="black" stroke="black" points="422.38,-582.04 431,-575.87 420.42,-575.32 422.38,-582.04"/>
</g>
<!-- arcticdb -->
<g id="node3" class="node">
<title>arcticdb</title>
<g id="a_node3"><a xlink:href="https://github.com/conda-forge/arcticdb-feedstock" xlink:title="arcticdb">
<ellipse fill="#fde725" stroke="black" cx="637.73" cy="-494" rx="52.26" ry="18"/>
<text text-anchor="middle" x="637.73" y="-489.32" font-family="Times,serif" font-size="14.00">arcticdb</text>
</a>
</g>
</g>
<!-- arrow&#45;cpp&#45;&gt;arcticdb -->
<g id="edge2" class="edge">
<title>arrow&#45;cpp&#45;&gt;arcticdb</title>
<path fill="none" stroke="black" d="M205.35,-619.81C209.46,-599.21 219.51,-565.32 242.73,-548 293.81,-509.9 475.9,-499.19 574.01,-496.18"/>
<polygon fill="black" stroke="black" points="573.85,-499.68 583.74,-495.9 573.65,-492.69 573.85,-499.68"/>
</g>
<!-- csp -->
<g id="node4" class="node">
<title>csp</title>
<g id="a_node4"><a xlink:href="https://github.com/conda-forge/csp-feedstock" xlink:title="csp">
<ellipse fill="#fde725" stroke="black" cx="114.73" cy="-566" rx="28.06" ry="18"/>
<text text-anchor="middle" x="114.73" y="-561.33" font-family="Times,serif" font-size="14.00">csp</text>
</a>
</g>
</g>
<!-- arrow&#45;cpp&#45;&gt;csp -->
<g id="edge3" class="edge">
<title>arrow&#45;cpp&#45;&gt;csp</title>
<path fill="none" stroke="black" d="M182.32,-620.76C169.86,-610.85 153.82,-598.09 140.49,-587.49"/>
<polygon fill="black" stroke="black" points="142.97,-584.99 132.96,-581.5 138.61,-590.47 142.97,-584.99"/>
</g>
<!-- blosc -->
<g id="node5" class="node">
<title>blosc</title>
<g id="a_node5"><a xlink:href="https://github.com/conda-forge/blosc-feedstock" xlink:title="blosc">
<ellipse fill="#fde725" stroke="black" cx="818.73" cy="-710" rx="37" ry="18"/>
<text text-anchor="middle" x="818.73" y="-705.33" font-family="Times,serif" font-size="14.00">blosc</text>
</a>
</g>
</g>
<!-- blosc&#45;&gt;gdal -->
<g id="edge4" class="edge">
<title>blosc&#45;&gt;gdal</title>
<path fill="none" stroke="black" d="M782.24,-706.58C734.87,-702.15 650.83,-689.82 587.73,-656 567.22,-645.01 568.28,-634.04 549.73,-620 532.11,-606.67 510.9,-593.92 493.6,-584.27"/>
<polygon fill="black" stroke="black" points="495.71,-581.43 485.26,-579.7 492.34,-587.57 495.71,-581.43"/>
</g>
<!-- imagecodecs -->
<g id="node6" class="node">
<title>imagecodecs</title>
<g id="a_node6"><a xlink:href="https://github.com/conda-forge/imagecodecs-feedstock" xlink:title="imagecodecs">
<ellipse fill="#fde725" stroke="black" cx="879.73" cy="-638" rx="75.41" ry="18"/>
<text text-anchor="middle" x="879.73" y="-633.33" font-family="Times,serif" font-size="14.00">imagecodecs</text>
</a>
</g>
</g>
<!-- blosc&#45;&gt;imagecodecs -->
<g id="edge5" class="edge">
<title>blosc&#45;&gt;imagecodecs</title>
<path fill="none" stroke="black" d="M832.57,-693.12C840,-684.59 849.33,-673.89 857.73,-664.25"/>
<polygon fill="black" stroke="black" points="860.17,-666.78 864.1,-656.94 854.89,-662.18 860.17,-666.78"/>
</g>
<!-- flann -->
<g id="node7" class="node">
<title>flann</title>
<g id="a_node7"><a xlink:href="https://github.com/conda-forge/flann-feedstock" xlink:title="flann">
<ellipse fill="#35b779" stroke="black" cx="1255.41" cy="-198" rx="35.95" ry="18"/>
<text text-anchor="middle" x="1255.41" y="-193.32" font-family="Times,serif" font-size="14.00">flann</text>
</a>
</g>
</g>
<!-- colmap -->
<g id="node8" class="node">
<title>colmap</title>
<g id="a_node8"><a xlink:href="https://github.com/conda-forge/colmap-feedstock" xlink:title="colmap">
<ellipse fill="#fde725" stroke="black" cx="1218.41" cy="-126" rx="47" ry="18"/>
<text text-anchor="middle" x="1218.41" y="-121.33" font-family="Times,serif" font-size="14.00">colmap</text>
</a>
</g>
</g>
<!-- flann&#45;&gt;colmap -->
<g id="edge6" class="edge">
<title>flann&#45;&gt;colmap</title>
<path fill="none" stroke="black" d="M1246.64,-180.41C1242.46,-172.51 1237.36,-162.85 1232.65,-153.94"/>
<polygon fill="black" stroke="black" points="1235.85,-152.5 1228.08,-145.29 1229.66,-155.77 1235.85,-152.5"/>
</g>
<!-- pycolmap -->
<g id="node9" class="node">
<title>pycolmap</title>
<g id="a_node9"><a xlink:href="https://github.com/conda-forge/pycolmap-feedstock" xlink:title="pycolmap">
<ellipse fill="#fde725" stroke="black" cx="1255.41" cy="-54" rx="59.1" ry="18"/>
<text text-anchor="middle" x="1255.41" y="-49.33" font-family="Times,serif" font-size="14.00">pycolmap</text>
</a>
</g>
</g>
<!-- flann&#45;&gt;pycolmap -->
<g id="edge7" class="edge">
<title>flann&#45;&gt;pycolmap</title>
<path fill="none" stroke="black" d="M1263.1,-180.22C1267.37,-169.99 1272.23,-156.52 1274.41,-144 1277.15,-128.24 1277.15,-123.76 1274.41,-108 1272.95,-99.62 1270.29,-90.82 1267.41,-82.84"/>
<polygon fill="black" stroke="black" points="1270.73,-81.72 1263.85,-73.67 1264.21,-84.25 1270.73,-81.72"/>
</g>
<!-- colmap&#45;&gt;pycolmap -->
<g id="edge8" class="edge">
<title>colmap&#45;&gt;pycolmap</title>
<path fill="none" stroke="black" d="M1227.37,-108.05C1231.44,-100.35 1236.37,-91.03 1240.94,-82.36"/>
<polygon fill="black" stroke="black" points="1243.99,-84.09 1245.57,-73.61 1237.8,-80.82 1243.99,-84.09"/>
</g>
<!-- libarchive -->
<g id="node10" class="node">
<title>libarchive</title>
<g id="a_node10"><a xlink:href="https://github.com/conda-forge/libarchive-feedstock/pull/99" xlink:title="libarchive ❎">
<ellipse fill="#31688e" stroke="black" cx="672.73" cy="-638" rx="75.94" ry="18"/>
<text text-anchor="middle" x="672.73" y="-633.33" font-family="Times,serif" font-size="14.00" fill="white">libarchive ❎</text>
</a>
</g>
</g>
<!-- libarchive&#45;&gt;gdal -->
<g id="edge9" class="edge">
<title>libarchive&#45;&gt;gdal</title>
<path fill="none" stroke="black" d="M629.57,-622.75C591.28,-610.11 535.87,-591.81 499.1,-579.67"/>
<polygon fill="black" stroke="black" points="500.36,-576.4 489.76,-576.59 498.16,-583.05 500.36,-576.4"/>
</g>
<!-- flux&#45;core -->
<g id="node11" class="node">
<title>flux&#45;core</title>
<g id="a_node11"><a xlink:href="https://github.com/conda-forge/flux-core-feedstock" xlink:title="flux core">
<ellipse fill="#fde725" stroke="black" cx="672.73" cy="-566" rx="54.36" ry="18"/>
<text text-anchor="middle" x="672.73" y="-561.33" font-family="Times,serif" font-size="14.00">flux core</text>
</a>
</g>
</g>
<!-- libarchive&#45;&gt;flux&#45;core -->
<g id="edge10" class="edge">
<title>libarchive&#45;&gt;flux&#45;core</title>
<path fill="none" stroke="black" d="M672.73,-619.7C672.73,-612.41 672.73,-603.73 672.73,-595.54"/>
<polygon fill="black" stroke="black" points="676.23,-595.62 672.73,-585.62 669.23,-595.62 676.23,-595.62"/>
</g>
<!-- librdkafka -->
<g id="node12" class="node">
<title>librdkafka</title>
<g id="a_node12"><a xlink:href="https://github.com/conda-forge/librdkafka-feedstock" xlink:title="librdkafka">
<ellipse fill="#35b779" stroke="black" cx="61.73" cy="-638" rx="61.73" ry="18"/>
<text text-anchor="middle" x="61.73" y="-633.33" font-family="Times,serif" font-size="14.00">librdkafka</text>
</a>
</g>
</g>
<!-- librdkafka&#45;&gt;csp -->
<g id="edge11" class="edge">
<title>librdkafka&#45;&gt;csp</title>
<path fill="none" stroke="black" d="M74.56,-620.05C81.09,-611.44 89.13,-600.81 96.31,-591.33"/>
<polygon fill="black" stroke="black" points="98.94,-593.65 102.19,-583.56 93.36,-589.42 98.94,-593.65"/>
</g>
<!-- mysql -->
<g id="node13" class="node">
<title>mysql</title>
<g id="a_node13"><a xlink:href="https://github.com/conda-forge/mysql-feedstock/pull/105" xlink:title="mysql ❎">
<ellipse fill="#31688e" stroke="black" cx="1242.96" cy="-998" rx="56.47" ry="18"/>
<text text-anchor="middle" x="1242.96" y="-993.33" font-family="Times,serif" font-size="14.00" fill="white">mysql ❎</text>
</a>
</g>
</g>
<!-- paraview -->
<g id="node14" class="node">
<title>paraview</title>
<g id="a_node14"><a xlink:href="https://github.com/conda-forge/paraview-feedstock" xlink:title="paraview">
<ellipse fill="#35b779" stroke="black" cx="1242.96" cy="-926" rx="57" ry="18"/>
<text text-anchor="middle" x="1242.96" y="-921.33" font-family="Times,serif" font-size="14.00">paraview</text>
</a>
</g>
</g>
<!-- mysql&#45;&gt;paraview -->
<!-- vtk -->
<g id="node15" class="node">
<title>vtk</title>
<g id="a_node15"><a xlink:href="https://github.com/conda-forge/vtk-feedstock" xlink:title="vtk">
<ellipse fill="#35b779" stroke="black" cx="1242.96" cy="-854" rx="27.01" ry="18"/>
<text text-anchor="middle" x="1242.96" y="-849.33" font-family="Times,serif" font-size="14.00">vtk</text>
</a>
</g>
</g>
<!-- paraview&#45;&gt;vtk -->
<!-- squashfs&#45;tools -->
<g id="node28" class="node">
<title>squashfs&#45;tools</title>
<g id="a_node28"><a xlink:href="https://github.com/conda-forge/squashfs-tools-feedstock" xlink:title="squashfs tools">
<ellipse fill="#35b779" stroke="black" cx="1242.96" cy="-782" rx="82.77" ry="18"/>
<text text-anchor="middle" x="1242.96" y="-777.33" font-family="Times,serif" font-size="14.00">squashfs tools</text>
</a>
</g>
</g>
<!-- vtk&#45;&gt;squashfs&#45;tools -->
<!-- postgresql -->
<g id="node16" class="node">
<title>postgresql</title>
<g id="a_node16"><a xlink:href="https://github.com/conda-forge/postgresql-feedstock/pull/230" xlink:title="postgresql ❎">
<ellipse fill="#31688e" stroke="black" cx="460.73" cy="-638" rx="79.62" ry="18"/>
<text text-anchor="middle" x="460.73" y="-633.33" font-family="Times,serif" font-size="14.00" fill="white">postgresql ❎</text>
</a>
</g>
</g>
<!-- postgresql&#45;&gt;gdal -->
<g id="edge14" class="edge">
<title>postgresql&#45;&gt;gdal</title>
<path fill="none" stroke="black" d="M460.73,-619.7C460.73,-612.41 460.73,-603.73 460.73,-595.54"/>
<polygon fill="black" stroke="black" points="464.23,-595.62 460.73,-585.62 457.23,-595.62 464.23,-595.62"/>
</g>
<!-- rsync -->
<g id="node17" class="node">
<title>rsync</title>
<g id="a_node17"><a xlink:href="https://github.com/conda-forge/rsync-feedstock/pull/35" xlink:title="rsync ❎">
<ellipse fill="#31688e" stroke="black" cx="1488.61" cy="-746" rx="53.84" ry="18"/>
<text text-anchor="middle" x="1488.61" y="-741.33" font-family="Times,serif" font-size="14.00" fill="white">rsync ❎</text>
</a>
</g>
</g>
<!-- root -->
<g id="node18" class="node">
<title>root</title>
<g id="a_node18"><a xlink:href="https://github.com/conda-forge/root-feedstock" xlink:title="root">
<ellipse fill="#fde725" stroke="black" cx="1428.61" cy="-674" rx="31.74" ry="18"/>
<text text-anchor="middle" x="1428.61" y="-669.33" font-family="Times,serif" font-size="14.00">root</text>
</a>
</g>
</g>
<!-- rsync&#45;&gt;root -->
<g id="edge15" class="edge">
<title>rsync&#45;&gt;root</title>
<path fill="none" stroke="black" d="M1474.39,-728.41C1466.86,-719.62 1457.46,-708.66 1449.15,-698.96"/>
<polygon fill="black" stroke="black" points="1452.06,-696.97 1442.89,-691.66 1446.74,-701.53 1452.06,-696.97"/>
</g>
<!-- r&#45;qs -->
<g id="node19" class="node">
<title>r&#45;qs</title>
<g id="a_node19"><a xlink:href="https://github.com/conda-forge/r-qs-feedstock" xlink:title="r qs">
<ellipse fill="#fde725" stroke="black" cx="1488.61" cy="-602" rx="30.69" ry="18"/>
<text text-anchor="middle" x="1488.61" y="-597.33" font-family="Times,serif" font-size="14.00">r qs</text>
</a>
</g>
</g>
<!-- rsync&#45;&gt;r&#45;qs -->
<g id="edge16" class="edge">
<title>rsync&#45;&gt;r&#45;qs</title>
<path fill="none" stroke="black" d="M1488.61,-727.59C1488.61,-703.61 1488.61,-660.14 1488.61,-631.42"/>
<polygon fill="black" stroke="black" points="1492.11,-631.62 1488.61,-621.62 1485.11,-631.62 1492.11,-631.62"/>
</g>
<!-- r&#45;fstcore -->
<g id="node20" class="node">
<title>r&#45;fstcore</title>
<g id="a_node20"><a xlink:href="https://github.com/conda-forge/r-fstcore-feedstock" xlink:title="r fstcore">
<ellipse fill="#fde725" stroke="black" cx="1547.61" cy="-530" rx="53.84" ry="18"/>
<text text-anchor="middle" x="1547.61" y="-525.33" font-family="Times,serif" font-size="14.00">r fstcore</text>
</a>
</g>
</g>
<!-- rsync&#45;&gt;r&#45;fstcore -->
<g id="edge17" class="edge">
<title>rsync&#45;&gt;r&#45;fstcore</title>
<path fill="none" stroke="black" d="M1494.72,-727.77C1503.09,-703.81 1518.24,-658.97 1528.61,-620 1533.96,-599.9 1538.83,-576.94 1542.3,-559.38"/>
<polygon fill="black" stroke="black" points="1545.71,-560.15 1544.18,-549.67 1538.84,-558.82 1545.71,-560.15"/>
</g>
<!-- tiledb -->
<g id="node21" class="node">
<title>tiledb</title>
<g id="a_node21"><a xlink:href="https://github.com/conda-forge/tiledb-feedstock" xlink:title="tiledb">
<ellipse fill="#35b779" stroke="black" cx="322.73" cy="-638" rx="40.16" ry="18"/>
<text text-anchor="middle" x="322.73" y="-633.33" font-family="Times,serif" font-size="14.00">tiledb</text>
</a>
</g>
</g>
<!-- tiledb&#45;&gt;gdal -->
<g id="edge18" class="edge">
<title>tiledb&#45;&gt;gdal</title>
<path fill="none" stroke="black" d="M348.69,-623.83C370.86,-612.59 402.9,-596.33 427.05,-584.08"/>
<polygon fill="black" stroke="black" points="428.51,-587.27 435.84,-579.62 425.34,-581.03 428.51,-587.27"/>
</g>
<!-- libtiledb&#45;sql -->
<g id="node22" class="node">
<title>libtiledb&#45;sql</title>
<g id="a_node22"><a xlink:href="https://github.com/conda-forge/libtiledb-sql-feedstock" xlink:title="libtiledb sql">
<ellipse fill="#fde725" stroke="black" cx="322.73" cy="-566" rx="70.68" ry="18"/>
<text text-anchor="middle" x="322.73" y="-561.33" font-family="Times,serif" font-size="14.00">libtiledb sql</text>
</a>
</g>
</g>
<!-- tiledb&#45;&gt;libtiledb&#45;sql -->
<g id="edge19" class="edge">
<title>tiledb&#45;&gt;libtiledb&#45;sql</title>
<path fill="none" stroke="black" d="M322.73,-619.7C322.73,-612.41 322.73,-603.73 322.73,-595.54"/>
<polygon fill="black" stroke="black" points="326.23,-595.62 322.73,-585.62 319.23,-595.62 326.23,-595.62"/>
</g>
<!-- snappy -->
<g id="node23" class="node">
<title>snappy</title>
<g id="a_node23"><a xlink:href="https://github.com/conda-forge/snappy-feedstock/pull/39" xlink:title="snappy ❎">
<ellipse fill="#31688e" stroke="black" cx="818.73" cy="-782" rx="62.26" ry="18"/>
<text text-anchor="middle" x="818.73" y="-777.33" font-family="Times,serif" font-size="14.00" fill="white">snappy ❎</text>
</a>
</g>
</g>
<!-- snappy&#45;&gt;arrow&#45;cpp -->
<g id="edge20" class="edge">
<title>snappy&#45;&gt;arrow&#45;cpp</title>
<path fill="none" stroke="black" d="M767.57,-771.32C714.84,-761.18 630.33,-744.46 557.73,-728 451.34,-703.87 327.98,-672.08 258.26,-653.75"/>
<polygon fill="black" stroke="black" points="259.15,-650.37 248.59,-651.2 257.37,-657.14 259.15,-650.37"/>
</g>
<!-- snappy&#45;&gt;blosc -->
<g id="edge21" class="edge">
<title>snappy&#45;&gt;blosc</title>
<path fill="none" stroke="black" d="M818.73,-763.7C818.73,-756.41 818.73,-747.73 818.73,-739.54"/>
<polygon fill="black" stroke="black" points="822.23,-739.62 818.73,-729.62 815.23,-739.62 822.23,-739.62"/>
</g>
<!-- snappy&#45;&gt;imagecodecs -->
<g id="edge22" class="edge">
<title>snappy&#45;&gt;imagecodecs</title>
<path fill="none" stroke="black" d="M880.32,-778.88C917.61,-774.02 962.5,-761.05 986.73,-728 996.19,-715.1 995.17,-705.59 986.73,-692 976.4,-675.36 959.13,-663.79 941.44,-655.8"/>
<polygon fill="black" stroke="black" points="943.01,-652.66 932.43,-652.08 940.34,-659.13 943.01,-652.66"/>
</g>
<!-- orc -->
<g id="node24" class="node">
<title>orc</title>
<g id="a_node24"><a xlink:href="https://github.com/conda-forge/orc-feedstock" xlink:title="orc">
<ellipse fill="#fde725" stroke="black" cx="593.73" cy="-710" rx="27.01" ry="18"/>
<text text-anchor="middle" x="593.73" y="-705.33" font-family="Times,serif" font-size="14.00">orc</text>
</a>
</g>
</g>
<!-- snappy&#45;&gt;orc -->
<g id="edge23" class="edge">
<title>snappy&#45;&gt;orc</title>
<path fill="none" stroke="black" d="M777.46,-768.16C734.88,-754.91 669.16,-734.47 628.95,-721.96"/>
<polygon fill="black" stroke="black" points="630.11,-718.65 619.52,-719.02 628.03,-725.34 630.11,-718.65"/>
</g>
<!-- rocksdb -->
<g id="node25" class="node">
<title>rocksdb</title>
<g id="a_node25"><a xlink:href="https://github.com/conda-forge/rocksdb-feedstock" xlink:title="rocksdb">
<ellipse fill="#fde725" stroke="black" cx="1023.73" cy="-638" rx="50.68" ry="18"/>
<text text-anchor="middle" x="1023.73" y="-633.33" font-family="Times,serif" font-size="14.00">rocksdb</text>
</a>
</g>
</g>
<!-- snappy&#45;&gt;rocksdb -->
<g id="edge24" class="edge">
<title>snappy&#45;&gt;rocksdb</title>
<path fill="none" stroke="black" d="M880.24,-778.97C920.8,-774.31 972.09,-761.53 1003.73,-728 1018.78,-712.05 1023.4,-687.32 1024.47,-667.97"/>
<polygon fill="black" stroke="black" points="1027.97,-668.05 1024.7,-657.97 1020.97,-667.89 1027.97,-668.05"/>
</g>
<!-- folly -->
<g id="node26" class="node">
<title>folly</title>
<g id="a_node26"><a xlink:href="https://github.com/conda-forge/folly-feedstock" xlink:title="folly">
<ellipse fill="#fde725" stroke="black" cx="1053.73" cy="-566" rx="32.79" ry="18"/>
<text text-anchor="middle" x="1053.73" y="-561.33" font-family="Times,serif" font-size="14.00">folly</text>
</a>
</g>
</g>
<!-- snappy&#45;&gt;folly -->
<g id="edge25" class="edge">
<title>snappy&#45;&gt;folly</title>
<path fill="none" stroke="black" d="M877.58,-775.98C921.34,-769.97 980.96,-756.8 1025.73,-728 1060.29,-705.77 1070.06,-694.75 1083.73,-656 1089.05,-640.91 1087.81,-635.47 1083.73,-620 1081.27,-610.65 1076.74,-601.23 1071.93,-592.96"/>
<polygon fill="black" stroke="black" points="1074.91,-591.12 1066.64,-584.5 1068.98,-594.84 1074.91,-591.12"/>
</g>
<!-- aimrocks -->
<g id="node27" class="node">
<title>aimrocks</title>
<g id="a_node27"><a xlink:href="https://github.com/conda-forge/aimrocks-feedstock" xlink:title="aimrocks">
<ellipse fill="#fde725" stroke="black" cx="898.73" cy="-566" rx="56.47" ry="18"/>
<text text-anchor="middle" x="898.73" y="-561.33" font-family="Times,serif" font-size="14.00">aimrocks</text>
</a>
</g>
</g>
<!-- snappy&#45;&gt;aimrocks -->
<g id="edge26" class="edge">
<title>snappy&#45;&gt;aimrocks</title>
<path fill="none" stroke="black" d="M798.87,-764.55C788.97,-755.03 778.02,-742.15 772.73,-728 755.56,-682.02 764.02,-657.46 795.73,-620 809.48,-603.76 829.46,-591.89 848.17,-583.55"/>
<polygon fill="black" stroke="black" points="849.41,-586.82 857.29,-579.74 846.71,-580.36 849.41,-586.82"/>
</g>
<!-- orc&#45;&gt;arrow&#45;cpp -->
<g id="edge27" class="edge">
<title>orc&#45;&gt;arrow&#45;cpp</title>
<path fill="none" stroke="black" d="M567.48,-705.3C512.68,-697.42 382.19,-677.94 273.73,-656 269.12,-655.07 264.35,-654.05 259.57,-652.99"/>
<polygon fill="black" stroke="black" points="260.46,-649.6 249.93,-650.79 258.9,-656.42 260.46,-649.6"/>
</g>
<!-- rocksdb&#45;&gt;aimrocks -->
<g id="edge28" class="edge">
<title>rocksdb&#45;&gt;aimrocks</title>
<path fill="none" stroke="black" d="M997.53,-622.33C979.6,-612.29 955.59,-598.84 935.72,-587.71"/>
<polygon fill="black" stroke="black" points="937.52,-584.71 927.08,-582.88 934.1,-590.82 937.52,-584.71"/>
</g>
<!-- folly&#45;&gt;arcticdb -->
<g id="edge29" class="edge">
<title>folly&#45;&gt;arcticdb</title>
<path fill="none" stroke="black" d="M1022.94,-558.98C1005.57,-555.64 983.46,-551.47 963.73,-548 870.23,-531.57 761.32,-514.23 696.04,-504.02"/>
<polygon fill="black" stroke="black" points="696.68,-500.58 686.26,-502.49 695.6,-507.49 696.68,-500.58"/>
</g>
<!-- hdf5&#45;external&#45;filter&#45;plugins -->
<g id="node31" class="node">
<title>hdf5&#45;external&#45;filter&#45;plugins</title>
<g id="a_node31"><a xlink:href="https://github.com/conda-forge/hdf5-external-filter-plugins-feedstock" xlink:title="hdf5 external filter plugins">
<ellipse fill="#35b779" stroke="black" cx="1242.96" cy="-710" rx="145.91" ry="18"/>
<text text-anchor="middle" x="1242.96" y="-705.33" font-family="Times,serif" font-size="14.00">hdf5 external filter plugins</text>
</a>
</g>
</g>
<!-- squashfs&#45;tools&#45;&gt;hdf5&#45;external&#45;filter&#45;plugins -->
<!-- lz4 -->
<g id="node29" class="node">
<title>lz4</title>
<g id="a_node29"><a xlink:href="https://github.com/conda-forge/lz4-feedstock" xlink:title="lz4">
<ellipse fill="#35b779" stroke="black" cx="1499.16" cy="-162" rx="27" ry="18"/>
<text text-anchor="middle" x="1499.16" y="-157.32" font-family="Times,serif" font-size="14.00">lz4</text>
</a>
</g>
</g>
<!-- vrs -->
<g id="node30" class="node">
<title>vrs</title>
<g id="a_node30"><a xlink:href="https://github.com/conda-forge/vrs-feedstock" xlink:title="vrs">
<ellipse fill="#fde725" stroke="black" cx="1499.16" cy="-90" rx="27.01" ry="18"/>
<text text-anchor="middle" x="1499.16" y="-85.33" font-family="Times,serif" font-size="14.00">vrs</text>
</a>
</g>
</g>
<!-- lz4&#45;&gt;vrs -->
<g id="edge31" class="edge">
<title>lz4&#45;&gt;vrs</title>
<path fill="none" stroke="black" d="M1499.16,-143.7C1499.16,-136.41 1499.16,-127.73 1499.16,-119.54"/>
<polygon fill="black" stroke="black" points="1502.66,-119.62 1499.16,-109.62 1495.66,-119.62 1502.66,-119.62"/>
</g>
<!-- subversion -->
<g id="node32" class="node">
<title>subversion</title>
<g id="a_node32"><a xlink:href="https://github.com/conda-forge/subversion-feedstock" xlink:title="subversion">
<ellipse fill="#35b779" stroke="black" cx="1242.96" cy="-638" rx="65.94" ry="18"/>
<text text-anchor="middle" x="1242.96" y="-633.33" font-family="Times,serif" font-size="14.00">subversion</text>
</a>
</g>
</g>
<!-- hdf5&#45;external&#45;filter&#45;plugins&#45;&gt;subversion -->
<!-- openconnect -->
<g id="node34" class="node">
<title>openconnect</title>
<g id="a_node34"><a xlink:href="https://github.com/conda-forge/openconnect-feedstock" xlink:title="openconnect">
<ellipse fill="#35b779" stroke="black" cx="1242.96" cy="-566" rx="74.36" ry="18"/>
<text text-anchor="middle" x="1242.96" y="-561.33" font-family="Times,serif" font-size="14.00">openconnect</text>
</a>
</g>
</g>
<!-- subversion&#45;&gt;openconnect -->
<!-- c&#45;blosc2 -->
<g id="node33" class="node">
<title>c&#45;blosc2</title>
<g id="a_node33"><a xlink:href="https://github.com/conda-forge/c-blosc2-feedstock" xlink:title="c blosc2">
<ellipse fill="#35b779" stroke="black" cx="925.73" cy="-710" rx="51.74" ry="18"/>
<text text-anchor="middle" x="925.73" y="-705.33" font-family="Times,serif" font-size="14.00">c blosc2</text>
</a>
</g>
</g>
<!-- c&#45;blosc2&#45;&gt;imagecodecs -->
<g id="edge34" class="edge">
<title>c&#45;blosc2&#45;&gt;imagecodecs</title>
<path fill="none" stroke="black" d="M914.59,-692.05C909.42,-684.18 903.14,-674.62 897.34,-665.79"/>
<polygon fill="black" stroke="black" points="900.33,-663.98 891.91,-657.54 894.48,-667.82 900.33,-663.98"/>
</g>
<!-- squashfuse -->
<g id="node35" class="node">
<title>squashfuse</title>
<g id="a_node35"><a xlink:href="https://github.com/conda-forge/squashfuse-feedstock" xlink:title="squashfuse">
<ellipse fill="#35b779" stroke="black" cx="1242.96" cy="-494" rx="67.52" ry="18"/>
<text text-anchor="middle" x="1242.96" y="-489.32" font-family="Times,serif" font-size="14.00">squashfuse</text>
</a>
</g>
</g>
<!-- openconnect&#45;&gt;squashfuse -->
<!-- tomviz -->
<g id="node36" class="node">
<title>tomviz</title>
<g id="a_node36"><a xlink:href="https://github.com/conda-forge/tomviz-feedstock" xlink:title="tomviz">
<ellipse fill="#35b779" stroke="black" cx="1242.96" cy="-422" rx="44.9" ry="18"/>
<text text-anchor="middle" x="1242.96" y="-417.32" font-family="Times,serif" font-size="14.00">tomviz</text>
</a>
</g>
</g>
<!-- squashfuse&#45;&gt;tomviz -->
<!-- systemd -->
<g id="node37" class="node">
<title>systemd</title>
<g id="a_node37"><a xlink:href="https://github.com/conda-forge/systemd-feedstock/pull/28" xlink:title="systemd ❎">
<ellipse fill="#31688e" stroke="black" cx="1242.96" cy="-350" rx="68.57" ry="18"/>
<text text-anchor="middle" x="1242.96" y="-345.32" font-family="Times,serif" font-size="14.00" fill="white">systemd ❎</text>
</a>
</g>
</g>
<!-- tomviz&#45;&gt;systemd -->
<!-- odc -->
<g id="node38" class="node">
<title>odc</title>
<g id="a_node38"><a xlink:href="https://github.com/conda-forge/odc-feedstock" xlink:title="odc">
<ellipse fill="#35b779" stroke="black" cx="1242.96" cy="-278" rx="28.59" ry="18"/>
<text text-anchor="middle" x="1242.96" y="-273.32" font-family="Times,serif" font-size="14.00">odc</text>
</a>
</g>
</g>
<!-- systemd&#45;&gt;odc -->
<!-- memray -->
<g id="node39" class="node">
<title>memray</title>
<g id="a_node39"><a xlink:href="https://github.com/conda-forge/memray-feedstock" xlink:title="memray">
<ellipse fill="#35b779" stroke="black" cx="544.53" cy="-234" rx="52.26" ry="18"/>
<text text-anchor="middle" x="544.53" y="-229.32" font-family="Times,serif" font-size="14.00">memray</text>
</a>
</g>
</g>
<!-- osmium&#45;tool -->
<g id="node40" class="node">
<title>osmium&#45;tool</title>
<g id="a_node40"><a xlink:href="https://github.com/conda-forge/osmium-tool-feedstock" xlink:title="osmium tool">
<ellipse fill="#35b779" stroke="black" cx="544.53" cy="-162" rx="72.78" ry="18"/>
<text text-anchor="middle" x="544.53" y="-157.32" font-family="Times,serif" font-size="14.00">osmium tool</text>
</a>
</g>
</g>
<!-- memray&#45;&gt;osmium&#45;tool -->
<!-- aestream -->
<g id="node41" class="node">
<title>aestream</title>
<g id="a_node41"><a xlink:href="https://github.com/conda-forge/aestream-feedstock" xlink:title="aestream">
<ellipse fill="#35b779" stroke="black" cx="544.53" cy="-90" rx="58.05" ry="18"/>
<text text-anchor="middle" x="544.53" y="-85.33" font-family="Times,serif" font-size="14.00">aestream</text>
</a>
</g>
</g>
<!-- osmium&#45;tool&#45;&gt;aestream -->
<!-- ugrep -->
<g id="node42" class="node">
<title>ugrep</title>
<g id="a_node42"><a xlink:href="https://github.com/conda-forge/ugrep-feedstock" xlink:title="ugrep">
<ellipse fill="#fde725" stroke="black" cx="544.53" cy="-18" rx="40.69" ry="18"/>
<text text-anchor="middle" x="544.53" y="-13.32" font-family="Times,serif" font-size="14.00">ugrep</text>
</a>
</g>
</g>
<!-- aestream&#45;&gt;ugrep -->
</g>
</svg>
