<?xml version="1.0" encoding="UTF-8" standalone="no"?>
<!DOCTYPE svg PUBLIC "-//W3C//DTD SVG 1.1//EN"
 "http://www.w3.org/Graphics/SVG/1.1/DTD/svg11.dtd">
<!-- Generated by graphviz version 12.0.0 (20240803.0821)
 -->
<!-- Pages: 1 -->
<svg width="1139pt" height="204pt"
 viewBox="0.00 0.00 1138.84 204.00" xmlns="http://www.w3.org/2000/svg" xmlns:xlink="http://www.w3.org/1999/xlink">
<g id="graph0" class="graph" transform="scale(1 1) rotate(0) translate(4 200)">
<polygon fill="white" stroke="none" points="-4,4 -4,-200 1134.84,-200 1134.84,4 -4,4"/>
<!-- numexpr -->
<g id="node1" class="node">
<title>numexpr</title>
<g id="a_node1"><a xlink:href="https://github.com/conda-forge/numexpr-feedstock" xlink:title="numexpr">
<ellipse fill="#fde725" stroke="black" cx="55.94" cy="-106" rx="55.94" ry="18"/>
<text text-anchor="middle" x="55.94" y="-101.33" font-family="Times,serif" font-size="14.00">numexpr</text>
</a>
</g>
</g>
<!-- blas -->
<g id="node2" class="node">
<title>blas</title>
<g id="a_node2"><a xlink:href="https://github.com/conda-forge/blas-feedstock/pull/123" xlink:title="blas ❎">
<ellipse fill="#31688e" stroke="black" cx="412.94" cy="-178" rx="47" ry="18"/>
<text text-anchor="middle" x="412.94" y="-173.32" font-family="Times,serif" font-size="14.00" fill="white">blas ❎</text>
</a>
</g>
</g>
<!-- blas&#45;&gt;numexpr -->
<g id="edge5" class="edge">
<title>blas&#45;&gt;numexpr</title>
<path fill="none" stroke="black" d="M370.18,-170.29C313.11,-161.09 208.98,-143.47 120.94,-124 116.89,-123.1 112.71,-122.13 108.51,-121.11"/>
<polygon fill="black" stroke="black" points="109.46,-117.74 98.91,-118.72 107.77,-124.53 109.46,-117.74"/>
</g>
<!-- dakota -->
<g id="node4" class="node">
<title>dakota</title>
<g id="a_node4"><a xlink:href="https://github.com/conda-forge/dakota-feedstock" xlink:title="dakota">
<ellipse fill="#fde725" stroke="black" cx="174.94" cy="-106" rx="44.89" ry="18"/>
<text text-anchor="middle" x="174.94" y="-101.33" font-family="Times,serif" font-size="14.00">dakota</text>
</a>
</g>
</g>
<!-- blas&#45;&gt;dakota -->
<g id="edge3" class="edge">
<title>blas&#45;&gt;dakota</title>
<path fill="none" stroke="black" d="M375.86,-166.61C338.64,-156.11 279.71,-139.3 228.94,-124 226.09,-123.14 223.15,-122.24 220.19,-121.33"/>
<polygon fill="black" stroke="black" points="221.51,-118.08 210.92,-118.46 219.43,-124.76 221.51,-118.08"/>
</g>
<!-- r&#45;dbarts -->
<g id="node7" class="node">
<title>r&#45;dbarts</title>
<g id="a_node7"><a xlink:href="https://github.com/conda-forge/r-dbarts-feedstock" xlink:title="r dbarts">
<ellipse fill="#fde725" stroke="black" cx="289.94" cy="-106" rx="51.73" ry="18"/>
<text text-anchor="middle" x="289.94" y="-101.33" font-family="Times,serif" font-size="14.00">r dbarts</text>
</a>
</g>
</g>
<!-- blas&#45;&gt;r&#45;dbarts -->
<g id="edge7" class="edge">
<title>blas&#45;&gt;r&#45;dbarts</title>
<path fill="none" stroke="black" d="M387.46,-162.5C369.72,-152.4 345.81,-138.8 326.11,-127.58"/>
<polygon fill="black" stroke="black" points="327.98,-124.62 317.56,-122.72 324.52,-130.71 327.98,-124.62"/>
</g>
<!-- daetools -->
<g id="node9" class="node">
<title>daetools</title>
<g id="a_node9"><a xlink:href="https://github.com/conda-forge/daetools-feedstock" xlink:title="daetools">
<ellipse fill="#fde725" stroke="black" cx="412.94" cy="-106" rx="53.31" ry="18"/>
<text text-anchor="middle" x="412.94" y="-101.33" font-family="Times,serif" font-size="14.00">daetools</text>
</a>
</g>
</g>
<!-- blas&#45;&gt;daetools -->
<g id="edge2" class="edge">
<title>blas&#45;&gt;daetools</title>
<path fill="none" stroke="black" d="M412.94,-159.7C412.94,-152.41 412.94,-143.73 412.94,-135.54"/>
<polygon fill="black" stroke="black" points="416.44,-135.62 412.94,-125.62 409.44,-135.62 416.44,-135.62"/>
</g>
<!-- psi4 -->
<g id="node10" class="node">
<title>psi4</title>
<g id="a_node10"><a xlink:href="https://github.com/conda-forge/psi4-feedstock" xlink:title="psi4">
<ellipse fill="#fde725" stroke="black" cx="516.94" cy="-106" rx="32.27" ry="18"/>
<text text-anchor="middle" x="516.94" y="-101.33" font-family="Times,serif" font-size="14.00">psi4</text>
</a>
</g>
</g>
<!-- blas&#45;&gt;psi4 -->
<g id="edge6" class="edge">
<title>blas&#45;&gt;psi4</title>
<path fill="none" stroke="black" d="M435.51,-161.81C450.79,-151.53 471.13,-137.84 487.66,-126.71"/>
<polygon fill="black" stroke="black" points="489.28,-129.84 495.63,-121.35 485.38,-124.03 489.28,-129.84"/>
</g>
<!-- aihwkit&#45;gpu -->
<g id="node11" class="node">
<title>aihwkit&#45;gpu</title>
<g id="a_node11"><a xlink:href="https://github.com/conda-forge/aihwkit-gpu-feedstock" xlink:title="aihwkit gpu">
<ellipse fill="#fde725" stroke="black" cx="636.94" cy="-106" rx="70.15" ry="18"/>
<text text-anchor="middle" x="636.94" y="-101.33" font-family="Times,serif" font-size="14.00">aihwkit gpu</text>
</a>
</g>
</g>
<!-- blas&#45;&gt;aihwkit&#45;gpu -->
<g id="edge1" class="edge">
<title>blas&#45;&gt;aihwkit&#45;gpu</title>
<path fill="none" stroke="black" d="M448.44,-165.91C484.56,-154.62 541.03,-136.97 582.75,-123.94"/>
<polygon fill="black" stroke="black" points="583.61,-127.33 592.11,-121.01 581.52,-120.65 583.61,-127.33"/>
</g>
<!-- libpdal -->
<g id="node14" class="node">
<title>libpdal</title>
<g id="a_node14"><a xlink:href="https://github.com/conda-forge/libpdal-feedstock" xlink:title="libpdal">
<ellipse fill="#fde725" stroke="black" cx="770.94" cy="-106" rx="45.42" ry="18"/>
<text text-anchor="middle" x="770.94" y="-101.33" font-family="Times,serif" font-size="14.00">libpdal</text>
</a>
</g>
</g>
<!-- blas&#45;&gt;libpdal -->
<g id="edge4" class="edge">
<title>blas&#45;&gt;libpdal</title>
<path fill="none" stroke="black" d="M456.95,-171.09C516.24,-162.72 624.83,-145.96 715.94,-124 719.24,-123.21 722.62,-122.32 726.02,-121.39"/>
<polygon fill="black" stroke="black" points="726.71,-124.84 735.35,-118.71 724.77,-118.11 726.71,-124.84"/>
</g>
<!-- lal -->
<g id="node3" class="node">
<title>lal</title>
<g id="a_node3"><a xlink:href="https://github.com/conda-forge/lal-feedstock/pull/101" xlink:title="lal ❎">
<ellipse fill="#31688e" stroke="black" cx="1069.64" cy="-62" rx="38.58" ry="18"/>
<text text-anchor="middle" x="1069.64" y="-57.33" font-family="Times,serif" font-size="14.00" fill="white">lal ❎</text>
</a>
</g>
</g>
<!-- sphinxdft -->
<g id="node5" class="node">
<title>sphinxdft</title>
<g id="a_node5"><a xlink:href="https://github.com/conda-forge/sphinxdft-feedstock" xlink:title="sphinxdft">
<ellipse fill="#35b779" stroke="black" cx="912.4" cy="-62" rx="58.57" ry="18"/>
<text text-anchor="middle" x="912.4" y="-57.33" font-family="Times,serif" font-size="14.00">sphinxdft</text>
</a>
</g>
</g>
<!-- basictools -->
<g id="node6" class="node">
<title>basictools</title>
<g id="a_node6"><a xlink:href="https://github.com/conda-forge/basictools-feedstock" xlink:title="basictools">
<ellipse fill="#35b779" stroke="black" cx="1069.64" cy="-142" rx="61.2" ry="18"/>
<text text-anchor="middle" x="1069.64" y="-137.32" font-family="Times,serif" font-size="14.00">basictools</text>
</a>
</g>
</g>
<!-- pydiso -->
<g id="node8" class="node">
<title>pydiso</title>
<g id="a_node8"><a xlink:href="https://github.com/conda-forge/pydiso-feedstock/pull/14" xlink:title="pydiso ❎">
<ellipse fill="#31688e" stroke="black" cx="408.18" cy="-62" rx="59.1" ry="18"/>
<text text-anchor="middle" x="408.18" y="-57.33" font-family="Times,serif" font-size="14.00" fill="white">pydiso ❎</text>
</a>
</g>
</g>
<!-- muscat&#45;split -->
<g id="node12" class="node">
<title>muscat&#45;split</title>
<g id="a_node12"><a xlink:href="https://github.com/conda-forge/muscat-split-feedstock/pull/16" xlink:title="muscat split ❎">
<ellipse fill="#31688e" stroke="black" cx="912.4" cy="-142" rx="88.04" ry="18"/>
<text text-anchor="middle" x="912.4" y="-137.32" font-family="Times,serif" font-size="14.00" fill="white">muscat split ❎</text>
</a>
</g>
</g>
<!-- pyfes -->
<g id="node13" class="node">
<title>pyfes</title>
<g id="a_node13"><a xlink:href="https://github.com/conda-forge/pyfes-feedstock" xlink:title="pyfes">
<ellipse fill="#35b779" stroke="black" cx="408.18" cy="-18" rx="38.06" ry="18"/>
<text text-anchor="middle" x="408.18" y="-13.32" font-family="Times,serif" font-size="14.00">pyfes</text>
</a>
</g>
</g>
</g>
</svg>
