<?xml version="1.0" encoding="UTF-8" standalone="no"?>
<!DOCTYPE svg PUBLIC "-//W3C//DTD SVG 1.1//EN"
 "http://www.w3.org/Graphics/SVG/1.1/DTD/svg11.dtd">
<!-- Generated by graphviz version 12.0.0 (20240803.0821)
 -->
<!-- Pages: 1 -->
<svg width="1108pt" height="204pt"
 viewBox="0.00 0.00 1108.33 204.00" xmlns="http://www.w3.org/2000/svg" xmlns:xlink="http://www.w3.org/1999/xlink">
<g id="graph0" class="graph" transform="scale(1 1) rotate(0) translate(4 200)">
<polygon fill="white" stroke="none" points="-4,4 -4,-200 1104.33,-200 1104.33,4 -4,4"/>
<!-- numexpr -->
<g id="node1" class="node">
<title>numexpr</title>
<g id="a_node1"><a xlink:href="https://github.com/conda-forge/numexpr-feedstock" xlink:title="numexpr">
<ellipse fill="#fde725" stroke="black" cx="55.94" cy="-106" rx="55.94" ry="18"/>
<text text-anchor="middle" x="55.94" y="-101.33" font-family="Times,serif" font-size="14.00">numexpr</text>
</a>
</g>
</g>
<!-- blas -->
<g id="node2" class="node">
<title>blas</title>
<g id="a_node2"><a xlink:href="https://github.com/conda-forge/blas-feedstock" xlink:title="blas">
<ellipse fill="#35b779" stroke="black" cx="412.94" cy="-178" rx="31.74" ry="18"/>
<text text-anchor="middle" x="412.94" y="-173.32" font-family="Times,serif" font-size="14.00">blas</text>
</a>
</g>
</g>
<!-- blas&#45;&gt;numexpr -->
<g id="edge5" class="edge">
<title>blas&#45;&gt;numexpr</title>
<path fill="none" stroke="black" d="M382.52,-172.26C329.27,-163.8 215.77,-144.97 120.94,-124 116.89,-123.1 112.71,-122.13 108.51,-121.11"/>
<polygon fill="black" stroke="black" points="109.46,-117.74 98.91,-118.72 107.77,-124.53 109.46,-117.74"/>
</g>
<!-- dakota -->
<g id="node4" class="node">
<title>dakota</title>
<g id="a_node4"><a xlink:href="https://github.com/conda-forge/dakota-feedstock" xlink:title="dakota">
<ellipse fill="#fde725" stroke="black" cx="174.94" cy="-106" rx="44.89" ry="18"/>
<text text-anchor="middle" x="174.94" y="-101.33" font-family="Times,serif" font-size="14.00">dakota</text>
</a>
</g>
</g>
<!-- blas&#45;&gt;dakota -->
<g id="edge3" class="edge">
<title>blas&#45;&gt;dakota</title>
<path fill="none" stroke="black" d="M384.82,-169.13C348.68,-158.97 284.01,-140.6 228.94,-124 226.09,-123.14 223.15,-122.24 220.19,-121.33"/>
<polygon fill="black" stroke="black" points="221.51,-118.08 210.92,-118.46 219.43,-124.76 221.51,-118.08"/>
</g>
<!-- r&#45;dbarts -->
<g id="node7" class="node">
<title>r&#45;dbarts</title>
<g id="a_node7"><a xlink:href="https://github.com/conda-forge/r-dbarts-feedstock" xlink:title="r dbarts">
<ellipse fill="#fde725" stroke="black" cx="289.94" cy="-106" rx="51.73" ry="18"/>
<text text-anchor="middle" x="289.94" y="-101.33" font-family="Times,serif" font-size="14.00">r dbarts</text>
</a>
</g>
</g>
<!-- blas&#45;&gt;r&#45;dbarts -->
<g id="edge7" class="edge">
<title>blas&#45;&gt;r&#45;dbarts</title>
<path fill="none" stroke="black" d="M390.95,-164.49C372.9,-154.21 346.97,-139.46 325.91,-127.47"/>
<polygon fill="black" stroke="black" points="327.75,-124.49 317.32,-122.58 324.28,-130.57 327.75,-124.49"/>
</g>
<!-- daetools -->
<g id="node9" class="node">
<title>daetools</title>
<g id="a_node9"><a xlink:href="https://github.com/conda-forge/daetools-feedstock" xlink:title="daetools">
<ellipse fill="#fde725" stroke="black" cx="412.94" cy="-106" rx="53.31" ry="18"/>
<text text-anchor="middle" x="412.94" y="-101.33" font-family="Times,serif" font-size="14.00">daetools</text>
</a>
</g>
</g>
<!-- blas&#45;&gt;daetools -->
<g id="edge2" class="edge">
<title>blas&#45;&gt;daetools</title>
<path fill="none" stroke="black" d="M412.94,-159.7C412.94,-152.41 412.94,-143.73 412.94,-135.54"/>
<polygon fill="black" stroke="black" points="416.44,-135.62 412.94,-125.62 409.44,-135.62 416.44,-135.62"/>
</g>
<!-- psi4 -->
<g id="node10" class="node">
<title>psi4</title>
<g id="a_node10"><a xlink:href="https://github.com/conda-forge/psi4-feedstock" xlink:title="psi4">
<ellipse fill="#fde725" stroke="black" cx="516.94" cy="-106" rx="32.27" ry="18"/>
<text text-anchor="middle" x="516.94" y="-101.33" font-family="Times,serif" font-size="14.00">psi4</text>
</a>
</g>
</g>
<!-- blas&#45;&gt;psi4 -->
<g id="edge6" class="edge">
<title>blas&#45;&gt;psi4</title>
<path fill="none" stroke="black" d="M432.5,-163.83C448.09,-153.34 470.16,-138.49 487.82,-126.6"/>
<polygon fill="black" stroke="black" points="489.52,-129.68 495.86,-121.19 485.61,-123.87 489.52,-129.68"/>
</g>
<!-- aihwkit&#45;gpu -->
<g id="node11" class="node">
<title>aihwkit&#45;gpu</title>
<g id="a_node11"><a xlink:href="https://github.com/conda-forge/aihwkit-gpu-feedstock" xlink:title="aihwkit gpu">
<ellipse fill="#fde725" stroke="black" cx="636.94" cy="-106" rx="70.15" ry="18"/>
<text text-anchor="middle" x="636.94" y="-101.33" font-family="Times,serif" font-size="14.00">aihwkit gpu</text>
</a>
</g>
</g>
<!-- blas&#45;&gt;aihwkit&#45;gpu -->
<g id="edge1" class="edge">
<title>blas&#45;&gt;aihwkit&#45;gpu</title>
<path fill="none" stroke="black" d="M440.41,-168.42C475.81,-157.35 538.15,-137.87 583.14,-123.81"/>
<polygon fill="black" stroke="black" points="583.94,-127.23 592.44,-120.91 581.85,-120.55 583.94,-127.23"/>
</g>
<!-- libpdal -->
<g id="node14" class="node">
<title>libpdal</title>
<g id="a_node14"><a xlink:href="https://github.com/conda-forge/libpdal-feedstock" xlink:title="libpdal">
<ellipse fill="#fde725" stroke="black" cx="770.94" cy="-106" rx="45.42" ry="18"/>
<text text-anchor="middle" x="770.94" y="-101.33" font-family="Times,serif" font-size="14.00">libpdal</text>
</a>
</g>
</g>
<!-- blas&#45;&gt;libpdal -->
<g id="edge4" class="edge">
<title>blas&#45;&gt;libpdal</title>
<path fill="none" stroke="black" d="M443.74,-172.93C498.8,-165.36 617.56,-147.71 715.94,-124 719.24,-123.21 722.62,-122.32 726.02,-121.39"/>
<polygon fill="black" stroke="black" points="726.71,-124.84 735.35,-118.71 724.77,-118.11 726.71,-124.84"/>
</g>
<!-- lal -->
<g id="node3" class="node">
<title>lal</title>
<g id="a_node3"><a xlink:href="https://github.com/conda-forge/lal-feedstock" xlink:title="lal">
<ellipse fill="#35b779" stroke="black" cx="408.18" cy="-18" rx="27" ry="18"/>
<text text-anchor="middle" x="408.18" y="-13.32" font-family="Times,serif" font-size="14.00">lal</text>
</a>
</g>
</g>
<!-- sphinxdft -->
<g id="node5" class="node">
<title>sphinxdft</title>
<g id="a_node5"><a xlink:href="https://github.com/conda-forge/sphinxdft-feedstock" xlink:title="sphinxdft">
<ellipse fill="#35b779" stroke="black" cx="408.18" cy="-62" rx="58.57" ry="18"/>
<text text-anchor="middle" x="408.18" y="-57.33" font-family="Times,serif" font-size="14.00">sphinxdft</text>
</a>
</g>
</g>
<!-- basictools -->
<g id="node6" class="node">
<title>basictools</title>
<g id="a_node6"><a xlink:href="https://github.com/conda-forge/basictools-feedstock" xlink:title="basictools">
<ellipse fill="#fde725" stroke="black" cx="1039.13" cy="-142" rx="61.2" ry="18"/>
<text text-anchor="middle" x="1039.13" y="-137.32" font-family="Times,serif" font-size="14.00">basictools</text>
</a>
</g>
</g>
<!-- pydiso -->
<g id="node8" class="node">
<title>pydiso</title>
<g id="a_node8"><a xlink:href="https://github.com/conda-forge/pydiso-feedstock" xlink:title="pydiso">
<ellipse fill="#35b779" stroke="black" cx="897.14" cy="-62" rx="43.84" ry="18"/>
<text text-anchor="middle" x="897.14" y="-57.33" font-family="Times,serif" font-size="14.00">pydiso</text>
</a>
</g>
</g>
<!-- muscat&#45;split -->
<g id="node12" class="node">
<title>muscat&#45;split</title>
<g id="a_node12"><a xlink:href="https://github.com/conda-forge/muscat-split-feedstock" xlink:title="muscat split">
<ellipse fill="#35b779" stroke="black" cx="897.14" cy="-142" rx="72.78" ry="18"/>
<text text-anchor="middle" x="897.14" y="-137.32" font-family="Times,serif" font-size="14.00">muscat split</text>
</a>
</g>
</g>
<!-- pyfes -->
<g id="node13" class="node">
<title>pyfes</title>
<g id="a_node13"><a xlink:href="https://github.com/conda-forge/pyfes-feedstock" xlink:title="pyfes">
<ellipse fill="#35b779" stroke="black" cx="1039.13" cy="-62" rx="38.06" ry="18"/>
<text text-anchor="middle" x="1039.13" y="-57.33" font-family="Times,serif" font-size="14.00">pyfes</text>
</a>
</g>
</g>
</g>
</svg>
