<?xml version="1.0" encoding="UTF-8" standalone="no"?>
<!DOCTYPE svg PUBLIC "-//W3C//DTD SVG 1.1//EN"
 "http://www.w3.org/Graphics/SVG/1.1/DTD/svg11.dtd">
<!-- Generated by graphviz version 12.0.0 (20240803.0821)
 -->
<!-- Pages: 1 -->
<svg width="1324pt" height="548pt"
 viewBox="0.00 0.00 1323.91 548.00" xmlns="http://www.w3.org/2000/svg" xmlns:xlink="http://www.w3.org/1999/xlink">
<g id="graph0" class="graph" transform="scale(1 1) rotate(0) translate(4 544)">
<polygon fill="white" stroke="none" points="-4,4 -4,-544 1319.91,-544 1319.91,4 -4,4"/>
<!-- mkl_random -->
<g id="node1" class="node">
<title>mkl_random</title>
<g id="a_node1"><a xlink:href="https://github.com/conda-forge/mkl_random-feedstock" xlink:title="mkl_random">
<ellipse fill="#fde725" stroke="black" cx="1169.48" cy="-270" rx="72.78" ry="18"/>
<text text-anchor="middle" x="1169.48" y="-265.32" font-family="Times,serif" font-size="14.00">mkl_random</text>
</a>
</g>
</g>
<!-- numexpr -->
<g id="node2" class="node">
<title>numexpr</title>
<g id="a_node2"><a xlink:href="https://github.com/conda-forge/numexpr-feedstock" xlink:title="numexpr">
<ellipse fill="#fde725" stroke="black" cx="55.94" cy="-378" rx="55.94" ry="18"/>
<text text-anchor="middle" x="55.94" y="-373.32" font-family="Times,serif" font-size="14.00">numexpr</text>
</a>
</g>
</g>
<!-- mkl_fft -->
<g id="node3" class="node">
<title>mkl_fft</title>
<g id="a_node3"><a xlink:href="https://github.com/conda-forge/mkl_fft-feedstock" xlink:title="mkl_fft">
<ellipse fill="#fde725" stroke="black" cx="1270.48" cy="-198" rx="45.42" ry="18"/>
<text text-anchor="middle" x="1270.48" y="-193.32" font-family="Times,serif" font-size="14.00">mkl_fft</text>
</a>
</g>
</g>
<!-- blas -->
<g id="node4" class="node">
<title>blas</title>
<g id="a_node4"><a xlink:href="https://github.com/conda-forge/blas-feedstock/pull/123" xlink:title="blas ❎">
<ellipse fill="#31688e" stroke="black" cx="427.94" cy="-450" rx="47" ry="18"/>
<text text-anchor="middle" x="427.94" y="-445.32" font-family="Times,serif" font-size="14.00" fill="white">blas ❎</text>
</a>
</g>
</g>
<!-- blas&#45;&gt;numexpr -->
<g id="edge1" class="edge">
<title>blas&#45;&gt;numexpr</title>
<path fill="none" stroke="black" d="M384.77,-442.32C326,-433.03 217.65,-415.16 125.94,-396 120.71,-394.91 115.27,-393.7 109.85,-392.46"/>
<polygon fill="black" stroke="black" points="110.8,-389.09 100.26,-390.21 109.2,-395.9 110.8,-389.09"/>
</g>
<!-- scs -->
<g id="node5" class="node">
<title>scs</title>
<g id="a_node5"><a xlink:href="https://github.com/conda-forge/scs-feedstock" xlink:title="scs">
<ellipse fill="#fde725" stroke="black" cx="130.94" cy="-306" rx="27.01" ry="18"/>
<text text-anchor="middle" x="130.94" y="-301.32" font-family="Times,serif" font-size="14.00">scs</text>
</a>
</g>
</g>
<!-- blas&#45;&gt;scs -->
<g id="edge2" class="edge">
<title>blas&#45;&gt;scs</title>
<path fill="none" stroke="black" d="M382.65,-444.54C318.12,-437.38 204.01,-421.49 171.94,-396 153.02,-380.96 142.47,-355.19 136.83,-335.24"/>
<polygon fill="black" stroke="black" points="140.28,-334.59 134.42,-325.76 133.49,-336.31 140.28,-334.59"/>
</g>
<!-- pytorch&#45;cpu -->
<g id="node6" class="node">
<title>pytorch&#45;cpu</title>
<g id="a_node6"><a xlink:href="https://github.com/conda-forge/pytorch-cpu-feedstock" xlink:title="pytorch cpu">
<ellipse fill="#fde725" stroke="black" cx="432.94" cy="-234" rx="70.68" ry="18"/>
<text text-anchor="middle" x="432.94" y="-229.32" font-family="Times,serif" font-size="14.00">pytorch cpu</text>
</a>
</g>
</g>
<!-- blas&#45;&gt;pytorch&#45;cpu -->
<g id="edge3" class="edge">
<title>blas&#45;&gt;pytorch&#45;cpu</title>
<path fill="none" stroke="black" d="M433.62,-432.04C436.77,-421.74 440.35,-408.27 441.94,-396 448.12,-348.4 445.98,-335.83 441.94,-288 441.27,-279.97 440.02,-271.33 438.67,-263.4"/>
<polygon fill="black" stroke="black" points="442.12,-262.79 436.87,-253.58 435.23,-264.05 442.12,-262.79"/>
</g>
<!-- dakota -->
<g id="node7" class="node">
<title>dakota</title>
<g id="a_node7"><a xlink:href="https://github.com/conda-forge/dakota-feedstock" xlink:title="dakota">
<ellipse fill="#fde725" stroke="black" cx="150.94" cy="-162" rx="44.9" ry="18"/>
<text text-anchor="middle" x="150.94" y="-157.32" font-family="Times,serif" font-size="14.00">dakota</text>
</a>
</g>
</g>
<!-- blas&#45;&gt;dakota -->
<g id="edge4" class="edge">
<title>blas&#45;&gt;dakota</title>
<path fill="none" stroke="black" d="M383.55,-443.64C327.14,-435.94 234.16,-419.98 209.94,-396 181.01,-367.34 161.9,-246.94 154.45,-191.35"/>
<polygon fill="black" stroke="black" points="157.96,-191.19 153.2,-181.73 151.02,-192.09 157.96,-191.19"/>
</g>
<!-- cp2k -->
<g id="node8" class="node">
<title>cp2k</title>
<g id="a_node8"><a xlink:href="https://github.com/conda-forge/cp2k-feedstock" xlink:title="cp2k">
<ellipse fill="#fde725" stroke="black" cx="223.94" cy="-90" rx="34.9" ry="18"/>
<text text-anchor="middle" x="223.94" y="-85.33" font-family="Times,serif" font-size="14.00">cp2k</text>
</a>
</g>
</g>
<!-- blas&#45;&gt;cp2k -->
<g id="edge5" class="edge">
<title>blas&#45;&gt;cp2k</title>
<path fill="none" stroke="black" d="M382.06,-445.8C344.04,-440.83 290.91,-428.16 256.94,-396 226.31,-366.99 223.94,-349.19 223.94,-307 223.94,-307 223.94,-307 223.94,-233 223.94,-193.74 223.94,-148.38 223.94,-119.69"/>
<polygon fill="black" stroke="black" points="227.44,-120 223.94,-110 220.44,-120 227.44,-120"/>
</g>
<!-- toast -->
<g id="node9" class="node">
<title>toast</title>
<g id="a_node9"><a xlink:href="https://github.com/conda-forge/toast-feedstock" xlink:title="toast">
<ellipse fill="#fde725" stroke="black" cx="325.94" cy="-378" rx="36.48" ry="18"/>
<text text-anchor="middle" x="325.94" y="-373.32" font-family="Times,serif" font-size="14.00">toast</text>
</a>
</g>
</g>
<!-- blas&#45;&gt;toast -->
<g id="edge6" class="edge">
<title>blas&#45;&gt;toast</title>
<path fill="none" stroke="black" d="M405.81,-433.81C391.26,-423.82 372.02,-410.62 356.07,-399.68"/>
<polygon fill="black" stroke="black" points="358.12,-396.83 347.89,-394.06 354.16,-402.61 358.12,-396.83"/>
</g>
<!-- r&#45;dbarts -->
<g id="node10" class="node">
<title>r&#45;dbarts</title>
<g id="a_node10"><a xlink:href="https://github.com/conda-forge/r-dbarts-feedstock" xlink:title="r dbarts">
<ellipse fill="#fde725" stroke="black" cx="347.94" cy="-306" rx="51.74" ry="18"/>
<text text-anchor="middle" x="347.94" y="-301.32" font-family="Times,serif" font-size="14.00">r dbarts</text>
</a>
</g>
</g>
<!-- blas&#45;&gt;r&#45;dbarts -->
<g id="edge7" class="edge">
<title>blas&#45;&gt;r&#45;dbarts</title>
<path fill="none" stroke="black" d="M418.45,-432.15C404.74,-407.81 379.25,-362.57 362.97,-333.67"/>
<polygon fill="black" stroke="black" points="366.12,-332.14 358.17,-325.14 360.02,-335.57 366.12,-332.14"/>
</g>
<!-- csr -->
<g id="node11" class="node">
<title>csr</title>
<g id="a_node11"><a xlink:href="https://github.com/conda-forge/csr-feedstock" xlink:title="csr">
<ellipse fill="#fde725" stroke="black" cx="316.94" cy="-234" rx="27" ry="18"/>
<text text-anchor="middle" x="316.94" y="-229.32" font-family="Times,serif" font-size="14.00">csr</text>
</a>
</g>
</g>
<!-- blas&#45;&gt;csr -->
<g id="edge8" class="edge">
<title>blas&#45;&gt;csr</title>
<path fill="none" stroke="black" d="M430.61,-431.81C434.54,-400.41 438.53,-332.88 408.94,-288 405.07,-282.12 372.99,-264.35 347.79,-250.99"/>
<polygon fill="black" stroke="black" points="349.68,-248.03 339.2,-246.47 346.42,-254.23 349.68,-248.03"/>
</g>
<!-- daetools -->
<g id="node12" class="node">
<title>daetools</title>
<g id="a_node12"><a xlink:href="https://github.com/conda-forge/daetools-feedstock" xlink:title="daetools">
<ellipse fill="#fde725" stroke="black" cx="531.94" cy="-162" rx="53.31" ry="18"/>
<text text-anchor="middle" x="531.94" y="-157.32" font-family="Times,serif" font-size="14.00">daetools</text>
</a>
</g>
</g>
<!-- blas&#45;&gt;daetools -->
<g id="edge9" class="edge">
<title>blas&#45;&gt;daetools</title>
<path fill="none" stroke="black" d="M437.92,-432.1C443.8,-421.84 451.19,-408.36 456.94,-396 485.93,-333.75 493.27,-317.79 512.94,-252 518.9,-232.08 523.76,-209.11 527.07,-191.5"/>
<polygon fill="black" stroke="black" points="530.49,-192.22 528.84,-181.76 523.61,-190.97 530.49,-192.22"/>
</g>
<!-- libtensorlight -->
<g id="node13" class="node">
<title>libtensorlight</title>
<g id="a_node13"><a xlink:href="https://github.com/conda-forge/libtensorlight-feedstock" xlink:title="libtensorlight">
<ellipse fill="#fde725" stroke="black" cx="623.94" cy="-90" rx="79.09" ry="18"/>
<text text-anchor="middle" x="623.94" y="-85.33" font-family="Times,serif" font-size="14.00">libtensorlight</text>
</a>
</g>
</g>
<!-- blas&#45;&gt;libtensorlight -->
<g id="edge10" class="edge">
<title>blas&#45;&gt;libtensorlight</title>
<path fill="none" stroke="black" d="M474.69,-447.68C514.94,-443.96 571.67,-432.07 604.94,-396 632.37,-366.27 623.94,-347.45 623.94,-307 623.94,-307 623.94,-307 623.94,-233 623.94,-193.74 623.94,-148.38 623.94,-119.69"/>
<polygon fill="black" stroke="black" points="627.44,-120 623.94,-110 620.44,-120 627.44,-120"/>
</g>
<!-- psi4 -->
<g id="node14" class="node">
<title>psi4</title>
<g id="a_node14"><a xlink:href="https://github.com/conda-forge/psi4-feedstock" xlink:title="psi4">
<ellipse fill="#fde725" stroke="black" cx="563.94" cy="-378" rx="32.27" ry="18"/>
<text text-anchor="middle" x="563.94" y="-373.32" font-family="Times,serif" font-size="14.00">psi4</text>
</a>
</g>
</g>
<!-- blas&#45;&gt;psi4 -->
<g id="edge11" class="edge">
<title>blas&#45;&gt;psi4</title>
<path fill="none" stroke="black" d="M455.14,-435C476.92,-423.79 507.56,-408.02 530.78,-396.07"/>
<polygon fill="black" stroke="black" points="532.23,-399.26 539.52,-391.57 529.03,-393.04 532.23,-399.26"/>
</g>
<!-- aihwkit&#45;gpu -->
<g id="node15" class="node">
<title>aihwkit&#45;gpu</title>
<g id="a_node15"><a xlink:href="https://github.com/conda-forge/aihwkit-gpu-feedstock" xlink:title="aihwkit gpu">
<ellipse fill="#fde725" stroke="black" cx="356.94" cy="-162" rx="70.15" ry="18"/>
<text text-anchor="middle" x="356.94" y="-157.32" font-family="Times,serif" font-size="14.00">aihwkit gpu</text>
</a>
</g>
</g>
<!-- blas&#45;&gt;aihwkit&#45;gpu -->
<g id="edge12" class="edge">
<title>blas&#45;&gt;aihwkit&#45;gpu</title>
<path fill="none" stroke="black" d="M381.75,-445.9C347.71,-440.92 303.56,-428.19 280.94,-396 234.96,-330.54 243.94,-286.93 280.94,-216 287.94,-202.59 300.05,-191.88 312.58,-183.7"/>
<polygon fill="black" stroke="black" points="314.1,-186.87 320.86,-178.71 310.49,-180.87 314.1,-186.87"/>
</g>
<!-- einsums -->
<g id="node16" class="node">
<title>einsums</title>
<g id="a_node16"><a xlink:href="https://github.com/conda-forge/einsums-feedstock" xlink:title="einsums">
<ellipse fill="#fde725" stroke="black" cx="704.94" cy="-306" rx="52.79" ry="18"/>
<text text-anchor="middle" x="704.94" y="-301.32" font-family="Times,serif" font-size="14.00">einsums</text>
</a>
</g>
</g>
<!-- blas&#45;&gt;einsums -->
<g id="edge13" class="edge">
<title>blas&#45;&gt;einsums</title>
<path fill="none" stroke="black" d="M474.1,-446.19C519.2,-441.51 588.14,-429.08 637.94,-396 661.27,-380.51 679.64,-354.08 691.2,-334.03"/>
<polygon fill="black" stroke="black" points="694.11,-336 695.88,-325.55 687.98,-332.61 694.11,-336"/>
</g>
<!-- llama.cpp -->
<g id="node17" class="node">
<title>llama.cpp</title>
<g id="a_node17"><a xlink:href="https://github.com/conda-forge/llama.cpp-feedstock" xlink:title="llama cpp">
<ellipse fill="#fde725" stroke="black" cx="785.94" cy="-234" rx="59.63" ry="18"/>
<text text-anchor="middle" x="785.94" y="-229.32" font-family="Times,serif" font-size="14.00">llama cpp</text>
</a>
</g>
</g>
<!-- blas&#45;&gt;llama.cpp -->
<g id="edge14" class="edge">
<title>blas&#45;&gt;llama.cpp</title>
<path fill="none" stroke="black" d="M473.24,-444.72C523.05,-438.74 604.55,-425.15 668.94,-396 718.18,-373.71 737.61,-369.39 766.94,-324 778.55,-306.04 783.2,-282.19 785,-263.7"/>
<polygon fill="black" stroke="black" points="788.47,-264.18 785.7,-253.95 781.49,-263.67 788.47,-264.18"/>
</g>
<!-- libpdal -->
<g id="node18" class="node">
<title>libpdal</title>
<g id="a_node18"><a xlink:href="https://github.com/conda-forge/libpdal-feedstock" xlink:title="libpdal">
<ellipse fill="#fde725" stroke="black" cx="873.94" cy="-162" rx="45.42" ry="18"/>
<text text-anchor="middle" x="873.94" y="-157.32" font-family="Times,serif" font-size="14.00">libpdal</text>
</a>
</g>
</g>
<!-- blas&#45;&gt;libpdal -->
<g id="edge15" class="edge">
<title>blas&#45;&gt;libpdal</title>
<path fill="none" stroke="black" d="M475.1,-448.78C534.53,-446.67 638.31,-436.78 715.94,-396 794.69,-354.63 813.88,-330.9 854.94,-252 864.71,-233.24 869.46,-209.75 871.77,-191.62"/>
<polygon fill="black" stroke="black" points="875.23,-192.14 872.82,-181.82 868.27,-191.39 875.23,-192.14"/>
</g>
<!-- pytorch&#45;cpu&#45;&gt;aihwkit&#45;gpu -->
<g id="edge16" class="edge">
<title>pytorch&#45;cpu&#45;&gt;aihwkit&#45;gpu</title>
<path fill="none" stroke="black" d="M414.93,-216.41C405.54,-207.76 393.86,-197 383.45,-187.42"/>
<polygon fill="black" stroke="black" points="385.93,-184.94 376.2,-180.74 381.19,-190.09 385.93,-184.94"/>
</g>
<!-- lal -->
<g id="node19" class="node">
<title>lal</title>
<g id="a_node19"><a xlink:href="https://github.com/conda-forge/lal-feedstock/pull/101" xlink:title="lal ❎">
<ellipse fill="#31688e" stroke="black" cx="1008.04" cy="-522" rx="38.58" ry="18"/>
<text text-anchor="middle" x="1008.04" y="-517.33" font-family="Times,serif" font-size="14.00" fill="white">lal ❎</text>
</a>
</g>
</g>
<!-- sphinxdft -->
<g id="node20" class="node">
<title>sphinxdft</title>
<g id="a_node20"><a xlink:href="https://github.com/conda-forge/sphinxdft-feedstock/pull/46" xlink:title="sphinxdft ❎">
<ellipse fill="#31688e" stroke="black" cx="1008.04" cy="-450" rx="73.83" ry="18"/>
<text text-anchor="middle" x="1008.04" y="-445.32" font-family="Times,serif" font-size="14.00" fill="white">sphinxdft ❎</text>
</a>
</g>
</g>
<!-- lal&#45;&gt;sphinxdft -->
<!-- pytide -->
<g id="node22" class="node">
<title>pytide</title>
<g id="a_node22"><a xlink:href="https://github.com/conda-forge/pytide-feedstock/pull/27" xlink:title="pytide ❎">
<ellipse fill="#31688e" stroke="black" cx="1008.04" cy="-378" rx="58.05" ry="18"/>
<text text-anchor="middle" x="1008.04" y="-373.32" font-family="Times,serif" font-size="14.00" fill="white">pytide ❎</text>
</a>
</g>
</g>
<!-- sphinxdft&#45;&gt;pytide -->
<!-- mkl&#45;service -->
<g id="node21" class="node">
<title>mkl&#45;service</title>
<g id="a_node21"><a xlink:href="https://github.com/conda-forge/mkl-service-feedstock/pull/36" xlink:title="mkl service ✓">
<ellipse fill="#31688e" stroke="black" cx="1219.48" cy="-342" rx="76.46" ry="18"/>
<text text-anchor="middle" x="1219.48" y="-337.32" font-family="Times,serif" font-size="14.00" fill="white">mkl service ✓</text>
</a>
</g>
</g>
<!-- mkl&#45;service&#45;&gt;mkl_random -->
<g id="edge18" class="edge">
<title>mkl&#45;service&#45;&gt;mkl_random</title>
<path fill="none" stroke="black" d="M1207.38,-324.05C1201.61,-315.97 1194.57,-306.12 1188.14,-297.11"/>
<polygon fill="black" stroke="black" points="1191.02,-295.12 1182.36,-289.02 1185.32,-299.19 1191.02,-295.12"/>
</g>
<!-- mkl&#45;service&#45;&gt;mkl_fft -->
<g id="edge19" class="edge">
<title>mkl&#45;service&#45;&gt;mkl_fft</title>
<path fill="none" stroke="black" d="M1231.69,-324.09C1238.42,-314.04 1246.42,-300.79 1251.48,-288 1259.18,-268.54 1264,-245.4 1266.86,-227.59"/>
<polygon fill="black" stroke="black" points="1270.32,-228.12 1268.31,-217.72 1263.39,-227.1 1270.32,-228.12"/>
</g>
<!-- basictools -->
<g id="node23" class="node">
<title>basictools</title>
<g id="a_node23"><a xlink:href="https://github.com/conda-forge/basictools-feedstock" xlink:title="basictools">
<ellipse fill="#000000" stroke="black" cx="1008.04" cy="-306" rx="61.2" ry="18"/>
<text text-anchor="middle" x="1008.04" y="-301.32" font-family="Times,serif" font-size="14.00" fill="white">basictools</text>
</a>
</g>
</g>
<!-- pytide&#45;&gt;basictools -->
<!-- pydiso -->
<g id="node24" class="node">
<title>pydiso</title>
<g id="a_node24"><a xlink:href="https://github.com/conda-forge/pydiso-feedstock/pull/14" xlink:title="pydiso ✓">
<ellipse fill="#31688e" stroke="black" cx="1008.04" cy="-234" rx="51.74" ry="18"/>
<text text-anchor="middle" x="1008.04" y="-229.32" font-family="Times,serif" font-size="14.00" fill="white">pydiso ✓</text>
</a>
</g>
</g>
<!-- basictools&#45;&gt;pydiso -->
<!-- visp -->
<g id="node25" class="node">
<title>visp</title>
<g id="a_node25"><a xlink:href="https://github.com/conda-forge/visp-feedstock/pull/21" xlink:title="visp ❎">
<ellipse fill="#31688e" stroke="black" cx="1008.04" cy="-162" rx="47" ry="18"/>
<text text-anchor="middle" x="1008.04" y="-157.32" font-family="Times,serif" font-size="14.00" fill="white">visp ❎</text>
</a>
</g>
</g>
<!-- pydiso&#45;&gt;visp -->
<!-- muscat&#45;split -->
<g id="node26" class="node">
<title>muscat&#45;split</title>
<g id="a_node26"><a xlink:href="https://github.com/conda-forge/muscat-split-feedstock/pull/16" xlink:title="muscat split ✓">
<ellipse fill="#31688e" stroke="black" cx="1008.04" cy="-90" rx="80.67" ry="18"/>
<text text-anchor="middle" x="1008.04" y="-85.33" font-family="Times,serif" font-size="14.00" fill="white">muscat split ✓</text>
</a>
</g>
</g>
<!-- visp&#45;&gt;muscat&#45;split -->
<!-- pyfes -->
<g id="node27" class="node">
<title>pyfes</title>
<g id="a_node27"><a xlink:href="https://github.com/conda-forge/pyfes-feedstock/pull/4" xlink:title="pyfes ✓">
<ellipse fill="#31688e" stroke="black" cx="1008.04" cy="-18" rx="45.95" ry="18"/>
<text text-anchor="middle" x="1008.04" y="-13.32" font-family="Times,serif" font-size="14.00" fill="white">pyfes ✓</text>
</a>
</g>
</g>
<!-- muscat&#45;split&#45;&gt;pyfes -->
</g>
</svg>
