<?xml version="1.0" encoding="UTF-8" standalone="no"?>
<!DOCTYPE svg PUBLIC "-//W3C//DTD SVG 1.1//EN"
 "http://www.w3.org/Graphics/SVG/1.1/DTD/svg11.dtd">
<!-- Generated by graphviz version 13.1.2 (20250809.0930)
 -->
<!-- Pages: 1 -->
<svg width="2347pt" height="1788pt"
 viewBox="0.00 0.00 2347.00 1788.00" xmlns="http://www.w3.org/2000/svg" xmlns:xlink="http://www.w3.org/1999/xlink">
<g id="graph0" class="graph" transform="scale(1 1) rotate(0) translate(4 1784)">
<polygon fill="white" stroke="none" points="-4,4 -4,-1784 2342.52,-1784 2342.52,4 -4,4"/>
<!-- arpack -->
<g id="node1" class="node">
<title>arpack</title>
<g id="a_node1"><a xlink:href="https://github.com/conda-forge/arpack-feedstock/pull/56" xlink:title="arpack ❎">
<ellipse fill="#31688e" stroke="black" cx="1710.68" cy="-1546" rx="60.15" ry="18"/>
<text xml:space="preserve" text-anchor="middle" x="1710.68" y="-1541.33" font-family="Times,serif" font-size="14.00" fill="white">arpack ❎</text>
</a>
</g>
</g>
<!-- ambertools -->
<g id="node2" class="node">
<title>ambertools</title>
<g id="a_node2"><a xlink:href="https://github.com/conda-forge/ambertools-feedstock" xlink:title="ambertools">
<ellipse fill="#fde725" stroke="black" cx="1806.68" cy="-1474" rx="67.52" ry="18"/>
<text xml:space="preserve" text-anchor="middle" x="1806.68" y="-1469.33" font-family="Times,serif" font-size="14.00">ambertools</text>
</a>
</g>
</g>
<!-- arpack&#45;&gt;ambertools -->
<g id="edge1" class="edge">
<title>arpack&#45;&gt;ambertools</title>
<path fill="none" stroke="black" d="M1732.46,-1529.12C1745.04,-1519.94 1761.1,-1508.23 1775.05,-1498.06"/>
<polygon fill="black" stroke="black" points="1777.07,-1500.92 1783.09,-1492.2 1772.95,-1495.26 1777.07,-1500.92"/>
</g>
<!-- dftbplus -->
<g id="node3" class="node">
<title>dftbplus</title>
<g id="a_node3"><a xlink:href="https://github.com/conda-forge/dftbplus-feedstock" xlink:title="dftbplus">
<ellipse fill="#fde725" stroke="black" cx="290.68" cy="-1474" rx="52.79" ry="18"/>
<text xml:space="preserve" text-anchor="middle" x="290.68" y="-1469.33" font-family="Times,serif" font-size="14.00">dftbplus</text>
</a>
</g>
</g>
<!-- arpack&#45;&gt;dftbplus -->
<g id="edge2" class="edge">
<title>arpack&#45;&gt;dftbplus</title>
<path fill="none" stroke="black" d="M1650.78,-1543.47C1405.16,-1537.08 481.87,-1511.96 352.68,-1492 348.39,-1491.34 343.98,-1490.49 339.58,-1489.52"/>
<polygon fill="black" stroke="black" points="340.76,-1486.2 330.22,-1487.26 339.12,-1493 340.76,-1486.2"/>
</g>
<!-- freefem -->
<g id="node4" class="node">
<title>freefem</title>
<g id="a_node4"><a xlink:href="https://github.com/conda-forge/freefem-feedstock" xlink:title="freefem">
<ellipse fill="#fde725" stroke="black" cx="1710.68" cy="-1402" rx="50.16" ry="18"/>
<text xml:space="preserve" text-anchor="middle" x="1710.68" y="-1397.33" font-family="Times,serif" font-size="14.00">freefem</text>
</a>
</g>
</g>
<!-- arpack&#45;&gt;freefem -->
<g id="edge3" class="edge">
<title>arpack&#45;&gt;freefem</title>
<path fill="none" stroke="black" d="M1710.68,-1527.59C1710.68,-1503.61 1710.68,-1460.14 1710.68,-1431.42"/>
<polygon fill="black" stroke="black" points="1714.18,-1431.62 1710.68,-1421.62 1707.18,-1431.62 1714.18,-1431.62"/>
</g>
<!-- fenics -->
<g id="node5" class="node">
<title>fenics</title>
<g id="a_node5"><a xlink:href="https://github.com/conda-forge/fenics-feedstock/pull/289" xlink:title="fenics ❎">
<ellipse fill="#31688e" stroke="black" cx="417.68" cy="-1474" rx="55.94" ry="18"/>
<text xml:space="preserve" text-anchor="middle" x="417.68" y="-1469.33" font-family="Times,serif" font-size="14.00" fill="white">fenics ❎</text>
</a>
</g>
</g>
<!-- mshr -->
<g id="node6" class="node">
<title>mshr</title>
<g id="a_node6"><a xlink:href="https://github.com/conda-forge/mshr-feedstock" xlink:title="mshr">
<ellipse fill="#fde725" stroke="black" cx="343.68" cy="-1402" rx="37" ry="18"/>
<text xml:space="preserve" text-anchor="middle" x="343.68" y="-1397.33" font-family="Times,serif" font-size="14.00">mshr</text>
</a>
</g>
</g>
<!-- fenics&#45;&gt;mshr -->
<g id="edge4" class="edge">
<title>fenics&#45;&gt;mshr</title>
<path fill="none" stroke="black" d="M400.51,-1456.76C390.88,-1447.65 378.69,-1436.13 368.08,-1426.09"/>
<polygon fill="black" stroke="black" points="370.75,-1423.8 361.08,-1419.47 365.94,-1428.88 370.75,-1423.8"/>
</g>
<!-- gyptis -->
<g id="node7" class="node">
<title>gyptis</title>
<g id="a_node7"><a xlink:href="https://github.com/conda-forge/gyptis-feedstock" xlink:title="gyptis">
<ellipse fill="#fde725" stroke="black" cx="440.68" cy="-1402" rx="42.26" ry="18"/>
<text xml:space="preserve" text-anchor="middle" x="440.68" y="-1397.33" font-family="Times,serif" font-size="14.00">gyptis</text>
</a>
</g>
</g>
<!-- fenics&#45;&gt;gyptis -->
<g id="edge5" class="edge">
<title>fenics&#45;&gt;gyptis</title>
<path fill="none" stroke="black" d="M423.36,-1455.7C425.81,-1448.24 428.74,-1439.32 431.49,-1430.97"/>
<polygon fill="black" stroke="black" points="434.79,-1432.14 434.58,-1421.54 428.14,-1429.95 434.79,-1432.14"/>
</g>
<!-- h5py -->
<g id="node8" class="node">
<title>h5py</title>
<g id="a_node8"><a xlink:href="https://github.com/conda-forge/h5py-feedstock/pull/167" xlink:title="h5py ✓">
<ellipse fill="#31688e" stroke="black" cx="1046.68" cy="-1474" rx="43.84" ry="18"/>
<text xml:space="preserve" text-anchor="middle" x="1046.68" y="-1469.33" font-family="Times,serif" font-size="14.00" fill="white">h5py ✓</text>
</a>
</g>
</g>
<!-- h5py&#45;&gt;gyptis -->
<g id="edge6" class="edge">
<title>h5py&#45;&gt;gyptis</title>
<path fill="none" stroke="black" d="M1004.27,-1468.75C969.46,-1465.28 918.88,-1460.26 874.68,-1456 704.49,-1439.59 658.97,-1455.26 491.68,-1420 488.7,-1419.37 485.65,-1418.63 482.6,-1417.81"/>
<polygon fill="black" stroke="black" points="483.68,-1414.48 473.1,-1415 481.7,-1421.19 483.68,-1414.48"/>
</g>
<!-- h5utils -->
<g id="node9" class="node">
<title>h5utils</title>
<g id="a_node9"><a xlink:href="https://github.com/conda-forge/h5utils-feedstock" xlink:title="h5utils">
<ellipse fill="#fde725" stroke="black" cx="1196.68" cy="-1402" rx="45.95" ry="18"/>
<text xml:space="preserve" text-anchor="middle" x="1196.68" y="-1397.33" font-family="Times,serif" font-size="14.00">h5utils</text>
</a>
</g>
</g>
<!-- h5py&#45;&gt;h5utils -->
<g id="edge7" class="edge">
<title>h5py&#45;&gt;h5utils</title>
<path fill="none" stroke="black" d="M1074.89,-1459.83C1098.24,-1448.94 1131.65,-1433.34 1157.58,-1421.25"/>
<polygon fill="black" stroke="black" points="1158.87,-1424.51 1166.45,-1417.11 1155.91,-1418.16 1158.87,-1424.51"/>
</g>
<!-- pymeep -->
<g id="node10" class="node">
<title>pymeep</title>
<g id="a_node10"><a xlink:href="https://github.com/conda-forge/pymeep-feedstock" xlink:title="pymeep">
<ellipse fill="#fde725" stroke="black" cx="747.68" cy="-1402" rx="50.68" ry="18"/>
<text xml:space="preserve" text-anchor="middle" x="747.68" y="-1397.33" font-family="Times,serif" font-size="14.00">pymeep</text>
</a>
</g>
</g>
<!-- h5py&#45;&gt;pymeep -->
<g id="edge8" class="edge">
<title>h5py&#45;&gt;pymeep</title>
<path fill="none" stroke="black" d="M1008.49,-1464.76C962.09,-1454.65 881.47,-1436.78 812.68,-1420 807.89,-1418.83 802.92,-1417.59 797.95,-1416.33"/>
<polygon fill="black" stroke="black" points="799.17,-1413.03 788.62,-1413.92 797.43,-1419.81 799.17,-1413.03"/>
</g>
<!-- lfpy -->
<g id="node11" class="node">
<title>lfpy</title>
<g id="a_node11"><a xlink:href="https://github.com/conda-forge/lfpy-feedstock" xlink:title="lfpy">
<ellipse fill="#fde725" stroke="black" cx="648.68" cy="-1402" rx="30.16" ry="18"/>
<text xml:space="preserve" text-anchor="middle" x="648.68" y="-1397.33" font-family="Times,serif" font-size="14.00">lfpy</text>
</a>
</g>
</g>
<!-- h5py&#45;&gt;lfpy -->
<g id="edge9" class="edge">
<title>h5py&#45;&gt;lfpy</title>
<path fill="none" stroke="black" d="M1004.67,-1468.21C923.21,-1458.7 746.58,-1436.86 687.68,-1420 685.82,-1419.47 683.94,-1418.87 682.05,-1418.22"/>
<polygon fill="black" stroke="black" points="683.4,-1414.99 672.81,-1414.65 680.88,-1421.52 683.4,-1414.99"/>
</g>
<!-- deepmd&#45;kit -->
<g id="node12" class="node">
<title>deepmd&#45;kit</title>
<g id="a_node12"><a xlink:href="https://github.com/conda-forge/deepmd-kit-feedstock" xlink:title="deepmd kit">
<ellipse fill="#fde725" stroke="black" cx="1442.68" cy="-1402" rx="67.52" ry="18"/>
<text xml:space="preserve" text-anchor="middle" x="1442.68" y="-1397.33" font-family="Times,serif" font-size="14.00">deepmd kit</text>
</a>
</g>
</g>
<!-- h5py&#45;&gt;deepmd&#45;kit -->
<g id="edge10" class="edge">
<title>h5py&#45;&gt;deepmd&#45;kit</title>
<path fill="none" stroke="black" d="M1086.91,-1466.7C1146.73,-1457.22 1262.6,-1438.44 1360.68,-1420 1366.99,-1418.81 1373.57,-1417.53 1380.13,-1416.22"/>
<polygon fill="black" stroke="black" points="1380.53,-1419.71 1389.63,-1414.29 1379.14,-1412.85 1380.53,-1419.71"/>
</g>
<!-- proteus -->
<g id="node13" class="node">
<title>proteus</title>
<g id="a_node13"><a xlink:href="https://github.com/conda-forge/proteus-feedstock" xlink:title="proteus">
<ellipse fill="#fde725" stroke="black" cx="550.68" cy="-1402" rx="49.63" ry="18"/>
<text xml:space="preserve" text-anchor="middle" x="550.68" y="-1397.33" font-family="Times,serif" font-size="14.00">proteus</text>
</a>
</g>
</g>
<!-- h5py&#45;&gt;proteus -->
<g id="edge11" class="edge">
<title>h5py&#45;&gt;proteus</title>
<path fill="none" stroke="black" d="M1004.2,-1468.72C909.73,-1459.07 684.66,-1435.25 609.68,-1420 605.9,-1419.23 602.02,-1418.34 598.14,-1417.38"/>
<polygon fill="black" stroke="black" points="599.3,-1414.07 588.74,-1414.91 597.52,-1420.84 599.3,-1414.07"/>
</g>
<!-- damask -->
<g id="node14" class="node">
<title>damask</title>
<g id="a_node14"><a xlink:href="https://github.com/conda-forge/damask-feedstock" xlink:title="damask">
<ellipse fill="#fde725" stroke="black" cx="1230.68" cy="-1330" rx="49.63" ry="18"/>
<text xml:space="preserve" text-anchor="middle" x="1230.68" y="-1325.33" font-family="Times,serif" font-size="14.00">damask</text>
</a>
</g>
</g>
<!-- h5py&#45;&gt;damask -->
<g id="edge12" class="edge">
<title>h5py&#45;&gt;damask</title>
<path fill="none" stroke="black" d="M1088.42,-1468.2C1142.4,-1461.04 1231.87,-1445.58 1251.68,-1420 1265.45,-1402.21 1257.53,-1376.83 1247.72,-1357.73"/>
<polygon fill="black" stroke="black" points="1250.87,-1356.19 1242.94,-1349.17 1244.76,-1359.6 1250.87,-1356.19"/>
</g>
<!-- cosmosis -->
<g id="node15" class="node">
<title>cosmosis</title>
<g id="a_node15"><a xlink:href="https://github.com/conda-forge/cosmosis-feedstock" xlink:title="cosmosis">
<ellipse fill="#fde725" stroke="black" cx="1262.68" cy="-1258" rx="56.47" ry="18"/>
<text xml:space="preserve" text-anchor="middle" x="1262.68" y="-1253.33" font-family="Times,serif" font-size="14.00">cosmosis</text>
</a>
</g>
</g>
<!-- h5py&#45;&gt;cosmosis -->
<g id="edge13" class="edge">
<title>h5py&#45;&gt;cosmosis</title>
<path fill="none" stroke="black" d="M1088.58,-1468.14C1145.77,-1460.68 1244.09,-1444.64 1269.68,-1420 1304.84,-1386.14 1301.07,-1359.47 1289.68,-1312 1287.53,-1303.06 1283.61,-1293.93 1279.42,-1285.83"/>
<polygon fill="black" stroke="black" points="1282.52,-1284.21 1274.6,-1277.18 1276.41,-1287.62 1282.52,-1284.21"/>
</g>
<!-- clawpack -->
<g id="node16" class="node">
<title>clawpack</title>
<g id="a_node16"><a xlink:href="https://github.com/conda-forge/clawpack-feedstock" xlink:title="clawpack">
<ellipse fill="#fde725" stroke="black" cx="1346.68" cy="-1186" rx="57" ry="18"/>
<text xml:space="preserve" text-anchor="middle" x="1346.68" y="-1181.33" font-family="Times,serif" font-size="14.00">clawpack</text>
</a>
</g>
</g>
<!-- h5py&#45;&gt;clawpack -->
<g id="edge14" class="edge">
<title>h5py&#45;&gt;clawpack</title>
<path fill="none" stroke="black" d="M1089.38,-1469.42C1152.68,-1463.24 1267.03,-1448.39 1295.68,-1420 1351.12,-1365.05 1352.56,-1264.67 1349.47,-1215.58"/>
<polygon fill="black" stroke="black" points="1352.97,-1215.47 1348.73,-1205.77 1345.99,-1216 1352.97,-1215.47"/>
</g>
<!-- veloxchem -->
<g id="node17" class="node">
<title>veloxchem</title>
<g id="a_node17"><a xlink:href="https://github.com/conda-forge/veloxchem-feedstock" xlink:title="veloxchem">
<ellipse fill="#fde725" stroke="black" cx="794.68" cy="-1114" rx="64.36" ry="18"/>
<text xml:space="preserve" text-anchor="middle" x="794.68" y="-1109.33" font-family="Times,serif" font-size="14.00">veloxchem</text>
</a>
</g>
</g>
<!-- h5py&#45;&gt;veloxchem -->
<g id="edge15" class="edge">
<title>h5py&#45;&gt;veloxchem</title>
<path fill="none" stroke="black" d="M1005.61,-1467.28C953.45,-1459.17 867.56,-1442.76 845.68,-1420 772.22,-1343.61 781.72,-1203.68 789.92,-1143.62"/>
<polygon fill="black" stroke="black" points="793.36,-1144.29 791.35,-1133.89 786.44,-1143.27 793.36,-1144.29"/>
</g>
<!-- paraprobe -->
<g id="node18" class="node">
<title>paraprobe</title>
<g id="a_node18"><a xlink:href="https://github.com/conda-forge/paraprobe-feedstock" xlink:title="paraprobe">
<ellipse fill="#fde725" stroke="black" cx="917.68" cy="-1402" rx="62.78" ry="18"/>
<text xml:space="preserve" text-anchor="middle" x="917.68" y="-1397.33" font-family="Times,serif" font-size="14.00">paraprobe</text>
</a>
</g>
</g>
<!-- h5py&#45;&gt;paraprobe -->
<g id="edge16" class="edge">
<title>h5py&#45;&gt;paraprobe</title>
<path fill="none" stroke="black" d="M1020.88,-1459C1002.3,-1448.92 976.93,-1435.15 955.99,-1423.79"/>
<polygon fill="black" stroke="black" points="957.9,-1420.85 947.45,-1419.15 954.57,-1427 957.9,-1420.85"/>
</g>
<!-- horovod -->
<g id="node19" class="node">
<title>horovod</title>
<g id="a_node19"><a xlink:href="https://github.com/conda-forge/horovod-feedstock" xlink:title="horovod">
<ellipse fill="#fde725" stroke="black" cx="966.68" cy="-1330" rx="51.74" ry="18"/>
<text xml:space="preserve" text-anchor="middle" x="966.68" y="-1325.33" font-family="Times,serif" font-size="14.00">horovod</text>
</a>
</g>
</g>
<!-- h5py&#45;&gt;horovod -->
<g id="edge17" class="edge">
<title>h5py&#45;&gt;horovod</title>
<path fill="none" stroke="black" d="M1037.18,-1456.15C1023.47,-1431.81 997.98,-1386.57 981.7,-1357.67"/>
<polygon fill="black" stroke="black" points="984.85,-1356.14 976.9,-1349.14 978.76,-1359.57 984.85,-1356.14"/>
</g>
<!-- fluidfft&#45;mpi_with_fftw -->
<g id="node20" class="node">
<title>fluidfft&#45;mpi_with_fftw</title>
<g id="a_node20"><a xlink:href="https://github.com/conda-forge/fluidfft-mpi_with_fftw-feedstock" xlink:title="fluidfft mpi_with_fftw">
<ellipse fill="#fde725" stroke="black" cx="939.68" cy="-1258" rx="117.5" ry="18"/>
<text xml:space="preserve" text-anchor="middle" x="939.68" y="-1253.33" font-family="Times,serif" font-size="14.00">fluidfft mpi_with_fftw</text>
</a>
</g>
</g>
<!-- h5py&#45;&gt;fluidfft&#45;mpi_with_fftw -->
<g id="edge18" class="edge">
<title>h5py&#45;&gt;fluidfft&#45;mpi_with_fftw</title>
<path fill="none" stroke="black" d="M1049.26,-1455.87C1053.05,-1424.56 1056.82,-1357.17 1027.68,-1312 1019.19,-1298.86 1006.19,-1288.5 992.77,-1280.56"/>
<polygon fill="black" stroke="black" points="994.75,-1277.66 984.3,-1275.93 991.39,-1283.8 994.75,-1277.66"/>
</g>
<!-- fluidfft&#45;fftwmpi -->
<g id="node21" class="node">
<title>fluidfft&#45;fftwmpi</title>
<g id="a_node21"><a xlink:href="https://github.com/conda-forge/fluidfft-fftwmpi-feedstock" xlink:title="fluidfft fftwmpi">
<ellipse fill="#fde725" stroke="black" cx="1008.68" cy="-1186" rx="85.93" ry="18"/>
<text xml:space="preserve" text-anchor="middle" x="1008.68" y="-1181.33" font-family="Times,serif" font-size="14.00">fluidfft fftwmpi</text>
</a>
</g>
</g>
<!-- h5py&#45;&gt;fluidfft&#45;fftwmpi -->
<g id="edge19" class="edge">
<title>h5py&#45;&gt;fluidfft&#45;fftwmpi</title>
<path fill="none" stroke="black" d="M1053.33,-1456.01C1067.81,-1416.28 1098.34,-1314.97 1065.68,-1240 1060.81,-1228.83 1052.3,-1218.95 1043.31,-1210.84"/>
<polygon fill="black" stroke="black" points="1045.74,-1208.31 1035.82,-1204.59 1041.26,-1213.69 1045.74,-1208.31"/>
</g>
<!-- bodo -->
<g id="node22" class="node">
<title>bodo</title>
<g id="a_node22"><a xlink:href="https://github.com/conda-forge/bodo-feedstock" xlink:title="bodo">
<ellipse fill="#fde725" stroke="black" cx="1122.68" cy="-1114" rx="35.42" ry="18"/>
<text xml:space="preserve" text-anchor="middle" x="1122.68" y="-1109.33" font-family="Times,serif" font-size="14.00">bodo</text>
</a>
</g>
</g>
<!-- h5py&#45;&gt;bodo -->
<g id="edge20" class="edge">
<title>h5py&#45;&gt;bodo</title>
<path fill="none" stroke="black" d="M1062.05,-1457.02C1084.26,-1432.19 1122.68,-1381.89 1122.68,-1331 1122.68,-1331 1122.68,-1331 1122.68,-1257 1122.68,-1217.74 1122.68,-1172.38 1122.68,-1143.69"/>
<polygon fill="black" stroke="black" points="1126.18,-1144 1122.68,-1134 1119.18,-1144 1126.18,-1144"/>
</g>
<!-- libadjoint -->
<g id="node23" class="node">
<title>libadjoint</title>
<g id="a_node23"><a xlink:href="https://github.com/conda-forge/libadjoint-feedstock/pull/47" xlink:title="libadjoint ❎">
<ellipse fill="#31688e" stroke="black" cx="936.68" cy="-998" rx="73.83" ry="18"/>
<text xml:space="preserve" text-anchor="middle" x="936.68" y="-993.33" font-family="Times,serif" font-size="14.00" fill="white">libadjoint ❎</text>
</a>
</g>
</g>
<!-- pytrilinos -->
<g id="node24" class="node">
<title>pytrilinos</title>
<g id="a_node24"><a xlink:href="https://github.com/conda-forge/pytrilinos-feedstock/pull/65" xlink:title="pytrilinos ❎">
<ellipse fill="#31688e" stroke="black" cx="936.68" cy="-926" rx="74.36" ry="18"/>
<text xml:space="preserve" text-anchor="middle" x="936.68" y="-921.33" font-family="Times,serif" font-size="14.00" fill="white">pytrilinos ❎</text>
</a>
</g>
</g>
<!-- libadjoint&#45;&gt;pytrilinos -->
<!-- vic -->
<g id="node25" class="node">
<title>vic</title>
<g id="a_node25"><a xlink:href="https://github.com/conda-forge/vic-feedstock/pull/27" xlink:title="vic ❎">
<ellipse fill="#31688e" stroke="black" cx="936.68" cy="-854" rx="40.69" ry="18"/>
<text xml:space="preserve" text-anchor="middle" x="936.68" y="-849.33" font-family="Times,serif" font-size="14.00" fill="white">vic ❎</text>
</a>
</g>
</g>
<!-- pytrilinos&#45;&gt;vic -->
<!-- numcosmo -->
<g id="node26" class="node">
<title>numcosmo</title>
<g id="a_node26"><a xlink:href="https://github.com/conda-forge/numcosmo-feedstock/pull/111" xlink:title="numcosmo ❎">
<ellipse fill="#31688e" stroke="black" cx="936.68" cy="-782" rx="80.14" ry="18"/>
<text xml:space="preserve" text-anchor="middle" x="936.68" y="-777.33" font-family="Times,serif" font-size="14.00" fill="white">numcosmo ❎</text>
</a>
</g>
</g>
<!-- vic&#45;&gt;numcosmo -->
<!-- trilinos -->
<g id="node27" class="node">
<title>trilinos</title>
<g id="a_node27"><a xlink:href="https://github.com/conda-forge/trilinos-feedstock/pull/68" xlink:title="trilinos ❎">
<ellipse fill="#31688e" stroke="black" cx="936.68" cy="-710" rx="62.26" ry="18"/>
<text xml:space="preserve" text-anchor="middle" x="936.68" y="-705.33" font-family="Times,serif" font-size="14.00" fill="white">trilinos ❎</text>
</a>
</g>
</g>
<!-- numcosmo&#45;&gt;trilinos -->
<!-- multinest -->
<g id="node29" class="node">
<title>multinest</title>
<g id="a_node29"><a xlink:href="https://github.com/conda-forge/multinest-feedstock/pull/17" xlink:title="multinest ✓">
<ellipse fill="#31688e" stroke="black" cx="936.68" cy="-638" rx="66.99" ry="18"/>
<text xml:space="preserve" text-anchor="middle" x="936.68" y="-633.33" font-family="Times,serif" font-size="14.00" fill="white">multinest ✓</text>
</a>
</g>
</g>
<!-- trilinos&#45;&gt;multinest -->
<!-- mpb -->
<g id="node28" class="node">
<title>mpb</title>
<g id="a_node28"><a xlink:href="https://github.com/conda-forge/mpb-feedstock/pull/52" xlink:title="mpb ❎">
<ellipse fill="#31688e" stroke="black" cx="816.68" cy="-1474" rx="48.58" ry="18"/>
<text xml:space="preserve" text-anchor="middle" x="816.68" y="-1469.33" font-family="Times,serif" font-size="14.00" fill="white">mpb ❎</text>
</a>
</g>
</g>
<!-- mpb&#45;&gt;pymeep -->
<g id="edge25" class="edge">
<title>mpb&#45;&gt;pymeep</title>
<path fill="none" stroke="black" d="M800.67,-1456.76C792.05,-1448.02 781.24,-1437.05 771.64,-1427.31"/>
<polygon fill="black" stroke="black" points="774.17,-1424.89 764.65,-1420.23 769.18,-1429.8 774.17,-1424.89"/>
</g>
<!-- adios -->
<g id="node30" class="node">
<title>adios</title>
<g id="a_node30"><a xlink:href="https://github.com/conda-forge/adios-feedstock/pull/40" xlink:title="adios ❎">
<ellipse fill="#31688e" stroke="black" cx="936.68" cy="-566" rx="52.79" ry="18"/>
<text xml:space="preserve" text-anchor="middle" x="936.68" y="-561.33" font-family="Times,serif" font-size="14.00" fill="white">adios ❎</text>
</a>
</g>
</g>
<!-- multinest&#45;&gt;adios -->
<!-- daetk -->
<g id="node33" class="node">
<title>daetk</title>
<g id="a_node33"><a xlink:href="https://github.com/conda-forge/daetk-feedstock/pull/22" xlink:title="daetk ❎">
<ellipse fill="#31688e" stroke="black" cx="936.68" cy="-494" rx="54.36" ry="18"/>
<text xml:space="preserve" text-anchor="middle" x="936.68" y="-489.32" font-family="Times,serif" font-size="14.00" fill="white">daetk ❎</text>
</a>
</g>
</g>
<!-- adios&#45;&gt;daetk -->
<!-- lammps -->
<g id="node31" class="node">
<title>lammps</title>
<g id="a_node31"><a xlink:href="https://github.com/conda-forge/lammps-feedstock" xlink:title="lammps">
<ellipse fill="#fde725" stroke="black" cx="1442.68" cy="-1474" rx="50.68" ry="18"/>
<text xml:space="preserve" text-anchor="middle" x="1442.68" y="-1469.33" font-family="Times,serif" font-size="14.00">lammps</text>
</a>
</g>
</g>
<!-- lammps&#45;&gt;deepmd&#45;kit -->
<g id="edge28" class="edge">
<title>lammps&#45;&gt;deepmd&#45;kit</title>
<path fill="none" stroke="black" d="M1442.68,-1455.7C1442.68,-1448.41 1442.68,-1439.73 1442.68,-1431.54"/>
<polygon fill="black" stroke="black" points="1446.18,-1431.62 1442.68,-1421.62 1439.18,-1431.62 1446.18,-1431.62"/>
</g>
<!-- parsplice -->
<g id="node32" class="node">
<title>parsplice</title>
<g id="a_node32"><a xlink:href="https://github.com/conda-forge/parsplice-feedstock" xlink:title="parsplice">
<ellipse fill="#fde725" stroke="black" cx="1585.68" cy="-1402" rx="57" ry="18"/>
<text xml:space="preserve" text-anchor="middle" x="1585.68" y="-1397.33" font-family="Times,serif" font-size="14.00">parsplice</text>
</a>
</g>
</g>
<!-- lammps&#45;&gt;parsplice -->
<g id="edge29" class="edge">
<title>lammps&#45;&gt;parsplice</title>
<path fill="none" stroke="black" d="M1471.61,-1458.83C1492.94,-1448.39 1522.21,-1434.07 1545.76,-1422.54"/>
<polygon fill="black" stroke="black" points="1546.99,-1425.83 1554.44,-1418.29 1543.92,-1419.54 1546.99,-1425.83"/>
</g>
<!-- conduit -->
<g id="node41" class="node">
<title>conduit</title>
<g id="a_node41"><a xlink:href="https://github.com/conda-forge/conduit-feedstock/pull/58" xlink:title="conduit ❎">
<ellipse fill="#31688e" stroke="black" cx="936.68" cy="-422" rx="63.84" ry="18"/>
<text xml:space="preserve" text-anchor="middle" x="936.68" y="-417.32" font-family="Times,serif" font-size="14.00" fill="white">conduit ❎</text>
</a>
</g>
</g>
<!-- daetk&#45;&gt;conduit -->
<!-- openpmd&#45;api -->
<g id="node34" class="node">
<title>openpmd&#45;api</title>
<g id="a_node34"><a xlink:href="https://github.com/conda-forge/openpmd-api-feedstock" xlink:title="openpmd api">
<ellipse fill="#fde725" stroke="black" cx="2190.68" cy="-638" rx="75.94" ry="18"/>
<text xml:space="preserve" text-anchor="middle" x="2190.68" y="-633.33" font-family="Times,serif" font-size="14.00">openpmd api</text>
</a>
</g>
</g>
<!-- neuron -->
<g id="node35" class="node">
<title>neuron</title>
<g id="a_node35"><a xlink:href="https://github.com/conda-forge/neuron-feedstock/pull/64" xlink:title="neuron ❎">
<ellipse fill="#31688e" stroke="black" cx="688.68" cy="-1474" rx="61.73" ry="18"/>
<text xml:space="preserve" text-anchor="middle" x="688.68" y="-1469.33" font-family="Times,serif" font-size="14.00" fill="white">neuron ❎</text>
</a>
</g>
</g>
<!-- neuron&#45;&gt;lfpy -->
<g id="edge31" class="edge">
<title>neuron&#45;&gt;lfpy</title>
<path fill="none" stroke="black" d="M678.99,-1456.05C674.41,-1448.03 668.82,-1438.26 663.7,-1429.3"/>
<polygon fill="black" stroke="black" points="666.74,-1427.57 658.74,-1420.62 660.67,-1431.04 666.74,-1427.57"/>
</g>
<!-- gpaw -->
<g id="node36" class="node">
<title>gpaw</title>
<g id="a_node36"><a xlink:href="https://github.com/conda-forge/gpaw-feedstock" xlink:title="gpaw">
<ellipse fill="#fde725" stroke="black" cx="87.68" cy="-1618" rx="38.06" ry="18"/>
<text xml:space="preserve" text-anchor="middle" x="87.68" y="-1613.33" font-family="Times,serif" font-size="14.00">gpaw</text>
</a>
</g>
</g>
<!-- plumed -->
<g id="node37" class="node">
<title>plumed</title>
<g id="a_node37"><a xlink:href="https://github.com/conda-forge/plumed-feedstock/pull/44" xlink:title="plumed ✓">
<ellipse fill="#31688e" stroke="black" cx="945.68" cy="-1546" rx="56.47" ry="18"/>
<text xml:space="preserve" text-anchor="middle" x="945.68" y="-1541.33" font-family="Times,serif" font-size="14.00" fill="white">plumed ✓</text>
</a>
</g>
</g>
<!-- plumed&#45;&gt;dftbplus -->
<g id="edge32" class="edge">
<title>plumed&#45;&gt;dftbplus</title>
<path fill="none" stroke="black" d="M889.64,-1543.32C783.89,-1539.42 547.98,-1527.21 352.68,-1492 348.59,-1491.26 344.38,-1490.38 340.18,-1489.41"/>
<polygon fill="black" stroke="black" points="341.14,-1486.05 330.6,-1487.05 339.47,-1492.84 341.14,-1486.05"/>
</g>
<!-- plumed&#45;&gt;lammps -->
<g id="edge33" class="edge">
<title>plumed&#45;&gt;lammps</title>
<path fill="none" stroke="black" d="M996.53,-1537.84C1089.7,-1524.72 1287.17,-1496.9 1385.11,-1483.11"/>
<polygon fill="black" stroke="black" points="1385.35,-1486.61 1394.77,-1481.75 1384.38,-1479.68 1385.35,-1486.61"/>
</g>
<!-- adios2 -->
<g id="node38" class="node">
<title>adios2</title>
<g id="a_node38"><a xlink:href="https://github.com/conda-forge/adios2-feedstock/pull/134" xlink:title="adios2 ✓">
<ellipse fill="#31688e" stroke="black" cx="2242.68" cy="-710" rx="51.74" ry="18"/>
<text xml:space="preserve" text-anchor="middle" x="2242.68" y="-705.33" font-family="Times,serif" font-size="14.00" fill="white">adios2 ✓</text>
</a>
</g>
</g>
<!-- adios2&#45;&gt;openpmd&#45;api -->
<g id="edge34" class="edge">
<title>adios2&#45;&gt;openpmd&#45;api</title>
<path fill="none" stroke="black" d="M2230.09,-692.05C2224.02,-683.89 2216.61,-673.91 2209.86,-664.82"/>
<polygon fill="black" stroke="black" points="2212.82,-662.94 2204.05,-657 2207.2,-667.12 2212.82,-662.94"/>
</g>
<!-- scifem -->
<g id="node39" class="node">
<title>scifem</title>
<g id="a_node39"><a xlink:href="https://github.com/conda-forge/scifem-feedstock" xlink:title="scifem">
<ellipse fill="#fde725" stroke="black" cx="2294.68" cy="-566" rx="43.84" ry="18"/>
<text xml:space="preserve" text-anchor="middle" x="2294.68" y="-561.33" font-family="Times,serif" font-size="14.00">scifem</text>
</a>
</g>
</g>
<!-- adios2&#45;&gt;scifem -->
<g id="edge35" class="edge">
<title>adios2&#45;&gt;scifem</title>
<path fill="none" stroke="black" d="M2255.28,-692.15C2262.23,-682.12 2270.48,-668.87 2275.68,-656 2283.51,-636.6 2288.32,-613.45 2291.14,-595.63"/>
<polygon fill="black" stroke="black" points="2294.6,-596.14 2292.57,-585.75 2287.68,-595.14 2294.6,-596.14"/>
</g>
<!-- scorec -->
<g id="node40" class="node">
<title>scorec</title>
<g id="a_node40"><a xlink:href="https://github.com/conda-forge/scorec-feedstock/pull/25" xlink:title="scorec ❎">
<ellipse fill="#31688e" stroke="black" cx="550.68" cy="-1474" rx="58.57" ry="18"/>
<text xml:space="preserve" text-anchor="middle" x="550.68" y="-1469.33" font-family="Times,serif" font-size="14.00" fill="white">scorec ❎</text>
</a>
</g>
</g>
<!-- scorec&#45;&gt;proteus -->
<g id="edge36" class="edge">
<title>scorec&#45;&gt;proteus</title>
<path fill="none" stroke="black" d="M550.68,-1455.7C550.68,-1448.41 550.68,-1439.73 550.68,-1431.54"/>
<polygon fill="black" stroke="black" points="554.18,-1431.62 550.68,-1421.62 547.18,-1431.62 554.18,-1431.62"/>
</g>
<!-- dagmc -->
<g id="node42" class="node">
<title>dagmc</title>
<g id="a_node42"><a xlink:href="https://github.com/conda-forge/dagmc-feedstock/pull/43" xlink:title="dagmc ❎">
<ellipse fill="#31688e" stroke="black" cx="936.68" cy="-350" rx="59.63" ry="18"/>
<text xml:space="preserve" text-anchor="middle" x="936.68" y="-345.32" font-family="Times,serif" font-size="14.00" fill="white">dagmc ❎</text>
</a>
</g>
</g>
<!-- conduit&#45;&gt;dagmc -->
<!-- triqs_tprf -->
<g id="node43" class="node">
<title>triqs_tprf</title>
<g id="a_node43"><a xlink:href="https://github.com/conda-forge/triqs_tprf-feedstock/pull/39" xlink:title="triqs_tprf ❎">
<ellipse fill="#31688e" stroke="black" cx="936.68" cy="-278" rx="73.83" ry="18"/>
<text xml:space="preserve" text-anchor="middle" x="936.68" y="-273.32" font-family="Times,serif" font-size="14.00" fill="white">triqs_tprf ❎</text>
</a>
</g>
</g>
<!-- dagmc&#45;&gt;triqs_tprf -->
<!-- triqs_cthyb -->
<g id="node44" class="node">
<title>triqs_cthyb</title>
<g id="a_node44"><a xlink:href="https://github.com/conda-forge/triqs_cthyb-feedstock/pull/54" xlink:title="triqs_cthyb ✓">
<ellipse fill="#31688e" stroke="black" cx="1994.68" cy="-1762" rx="75.41" ry="18"/>
<text xml:space="preserve" text-anchor="middle" x="1994.68" y="-1757.33" font-family="Times,serif" font-size="14.00" fill="white">triqs_cthyb ✓</text>
</a>
</g>
</g>
<!-- triqs_dft_tools -->
<g id="node45" class="node">
<title>triqs_dft_tools</title>
<g id="a_node45"><a xlink:href="https://github.com/conda-forge/triqs_dft_tools-feedstock/pull/41" xlink:title="triqs_dft_tools ❎">
<ellipse fill="#31688e" stroke="black" cx="1994.68" cy="-1690" rx="98.03" ry="18"/>
<text xml:space="preserve" text-anchor="middle" x="1994.68" y="-1685.33" font-family="Times,serif" font-size="14.00" fill="white">triqs_dft_tools ❎</text>
</a>
</g>
</g>
<!-- triqs_cthyb&#45;&gt;triqs_dft_tools -->
<!-- abinit -->
<g id="node46" class="node">
<title>abinit</title>
<g id="a_node46"><a xlink:href="https://github.com/conda-forge/abinit-feedstock/pull/78" xlink:title="abinit ❎">
<ellipse fill="#31688e" stroke="black" cx="1994.68" cy="-1618" rx="55.42" ry="18"/>
<text xml:space="preserve" text-anchor="middle" x="1994.68" y="-1613.33" font-family="Times,serif" font-size="14.00" fill="white">abinit ❎</text>
</a>
</g>
</g>
<!-- triqs_dft_tools&#45;&gt;abinit -->
<!-- taudem -->
<g id="node47" class="node">
<title>taudem</title>
<g id="a_node47"><a xlink:href="https://github.com/conda-forge/taudem-feedstock/pull/25" xlink:title="taudem ❎">
<ellipse fill="#31688e" stroke="black" cx="1994.68" cy="-1546" rx="64.36" ry="18"/>
<text xml:space="preserve" text-anchor="middle" x="1994.68" y="-1541.33" font-family="Times,serif" font-size="14.00" fill="white">taudem ❎</text>
</a>
</g>
</g>
<!-- abinit&#45;&gt;taudem -->
<!-- acctaudem -->
<g id="node51" class="node">
<title>acctaudem</title>
<g id="a_node51"><a xlink:href="https://github.com/conda-forge/acctaudem-feedstock/pull/19" xlink:title="acctaudem ❎">
<ellipse fill="#31688e" stroke="black" cx="1994.68" cy="-1474" rx="80.67" ry="18"/>
<text xml:space="preserve" text-anchor="middle" x="1994.68" y="-1469.33" font-family="Times,serif" font-size="14.00" fill="white">acctaudem ❎</text>
</a>
</g>
</g>
<!-- taudem&#45;&gt;acctaudem -->
<!-- libmbd -->
<g id="node48" class="node">
<title>libmbd</title>
<g id="a_node48"><a xlink:href="https://github.com/conda-forge/libmbd-feedstock" xlink:title="libmbd">
<ellipse fill="#fde725" stroke="black" cx="327.68" cy="-1546" rx="45.95" ry="18"/>
<text xml:space="preserve" text-anchor="middle" x="327.68" y="-1541.33" font-family="Times,serif" font-size="14.00">libmbd</text>
</a>
</g>
</g>
<!-- libmbd&#45;&gt;dftbplus -->
<g id="edge43" class="edge">
<title>libmbd&#45;&gt;dftbplus</title>
<path fill="none" stroke="black" d="M318.72,-1528.05C314.54,-1520.14 309.46,-1510.54 304.78,-1501.69"/>
<polygon fill="black" stroke="black" points="308.02,-1500.33 300.26,-1493.13 301.84,-1503.6 308.02,-1500.33"/>
</g>
<!-- mrcpp -->
<g id="node49" class="node">
<title>mrcpp</title>
<g id="a_node49"><a xlink:href="https://github.com/conda-forge/mrcpp-feedstock/pull/24" xlink:title="mrcpp ✓">
<ellipse fill="#31688e" stroke="black" cx="2226.68" cy="-162" rx="51.21" ry="18"/>
<text xml:space="preserve" text-anchor="middle" x="2226.68" y="-157.32" font-family="Times,serif" font-size="14.00" fill="white">mrcpp ✓</text>
</a>
</g>
</g>
<!-- mrchem -->
<g id="node50" class="node">
<title>mrchem</title>
<g id="a_node50"><a xlink:href="https://github.com/conda-forge/mrchem-feedstock" xlink:title="mrchem">
<ellipse fill="#fde725" stroke="black" cx="2226.68" cy="-90" rx="52.26" ry="18"/>
<text xml:space="preserve" text-anchor="middle" x="2226.68" y="-85.33" font-family="Times,serif" font-size="14.00">mrchem</text>
</a>
</g>
</g>
<!-- mrcpp&#45;&gt;mrchem -->
<g id="edge44" class="edge">
<title>mrcpp&#45;&gt;mrchem</title>
<path fill="none" stroke="black" d="M2226.68,-143.7C2226.68,-136.41 2226.68,-127.73 2226.68,-119.54"/>
<polygon fill="black" stroke="black" points="2230.18,-119.62 2226.68,-109.62 2223.18,-119.62 2230.18,-119.62"/>
</g>
<!-- fates&#45;emerald -->
<g id="node52" class="node">
<title>fates&#45;emerald</title>
<g id="a_node52"><a xlink:href="https://github.com/conda-forge/fates-emerald-feedstock/pull/25" xlink:title="fates emerald ✓">
<ellipse fill="#31688e" stroke="black" cx="1994.68" cy="-1402" rx="88.04" ry="18"/>
<text xml:space="preserve" text-anchor="middle" x="1994.68" y="-1397.33" font-family="Times,serif" font-size="14.00" fill="white">fates emerald ✓</text>
</a>
</g>
</g>
<!-- acctaudem&#45;&gt;fates&#45;emerald -->
<!-- genesis2 -->
<g id="node53" class="node">
<title>genesis2</title>
<g id="a_node53"><a xlink:href="https://github.com/conda-forge/genesis2-feedstock/pull/14" xlink:title="genesis2 ✓">
<ellipse fill="#31688e" stroke="black" cx="1994.68" cy="-1330" rx="63.31" ry="18"/>
<text xml:space="preserve" text-anchor="middle" x="1994.68" y="-1325.33" font-family="Times,serif" font-size="14.00" fill="white">genesis2 ✓</text>
</a>
</g>
</g>
<!-- fates&#45;emerald&#45;&gt;genesis2 -->
<!-- tempest&#45;extremes -->
<g id="node54" class="node">
<title>tempest&#45;extremes</title>
<g id="a_node54"><a xlink:href="https://github.com/conda-forge/tempest-extremes-feedstock/pull/19" xlink:title="tempest extremes ✓">
<ellipse fill="#31688e" stroke="black" cx="1994.68" cy="-1258" rx="110.13" ry="18"/>
<text xml:space="preserve" text-anchor="middle" x="1994.68" y="-1253.33" font-family="Times,serif" font-size="14.00" fill="white">tempest extremes ✓</text>
</a>
</g>
</g>
<!-- genesis2&#45;&gt;tempest&#45;extremes -->
<!-- impact&#45;t -->
<g id="node55" class="node">
<title>impact&#45;t</title>
<g id="a_node55"><a xlink:href="https://github.com/conda-forge/impact-t-feedstock/pull/31" xlink:title="impact t ✓">
<ellipse fill="#31688e" stroke="black" cx="1994.68" cy="-1186" rx="60.68" ry="18"/>
<text xml:space="preserve" text-anchor="middle" x="1994.68" y="-1181.33" font-family="Times,serif" font-size="14.00" fill="white">impact t ✓</text>
</a>
</g>
</g>
<!-- tempest&#45;extremes&#45;&gt;impact&#45;t -->
<!-- analisi -->
<g id="node56" class="node">
<title>analisi</title>
<g id="a_node56"><a xlink:href="https://github.com/conda-forge/analisi-feedstock/pull/39" xlink:title="analisi ❎">
<ellipse fill="#31688e" stroke="black" cx="1994.68" cy="-1114" rx="59.1" ry="18"/>
<text xml:space="preserve" text-anchor="middle" x="1994.68" y="-1109.33" font-family="Times,serif" font-size="14.00" fill="white">analisi ❎</text>
</a>
</g>
</g>
<!-- impact&#45;t&#45;&gt;analisi -->
<!-- mfem -->
<g id="node57" class="node">
<title>mfem</title>
<g id="a_node57"><a xlink:href="https://github.com/conda-forge/mfem-feedstock/pull/18" xlink:title="mfem ❎">
<ellipse fill="#31688e" stroke="black" cx="1994.68" cy="-1042" rx="54.89" ry="18"/>
<text xml:space="preserve" text-anchor="middle" x="1994.68" y="-1037.33" font-family="Times,serif" font-size="14.00" fill="white">mfem ❎</text>
</a>
</g>
</g>
<!-- analisi&#45;&gt;mfem -->
<!-- spfft -->
<g id="node58" class="node">
<title>spfft</title>
<g id="a_node58"><a xlink:href="https://github.com/conda-forge/spfft-feedstock/pull/10" xlink:title="spfft ❎">
<ellipse fill="#31688e" stroke="black" cx="2057.68" cy="-638" rx="49.1" ry="18"/>
<text xml:space="preserve" text-anchor="middle" x="2057.68" y="-633.33" font-family="Times,serif" font-size="14.00" fill="white">spfft ❎</text>
</a>
</g>
</g>
<!-- sirius -->
<g id="node59" class="node">
<title>sirius</title>
<g id="a_node59"><a xlink:href="https://github.com/conda-forge/sirius-feedstock" xlink:title="sirius">
<ellipse fill="#fde725" stroke="black" cx="2018.68" cy="-566" rx="39.11" ry="18"/>
<text xml:space="preserve" text-anchor="middle" x="2018.68" y="-561.33" font-family="Times,serif" font-size="14.00">sirius</text>
</a>
</g>
</g>
<!-- spfft&#45;&gt;sirius -->
<g id="edge52" class="edge">
<title>spfft&#45;&gt;sirius</title>
<path fill="none" stroke="black" d="M2048.23,-620.05C2043.83,-612.14 2038.48,-602.54 2033.54,-593.69"/>
<polygon fill="black" stroke="black" points="2036.69,-592.14 2028.77,-585.11 2030.58,-595.55 2036.69,-592.14"/>
</g>
<!-- impact&#45;z -->
<g id="node60" class="node">
<title>impact&#45;z</title>
<g id="a_node60"><a xlink:href="https://github.com/conda-forge/impact-z-feedstock/pull/23" xlink:title="impact z ✓">
<ellipse fill="#31688e" stroke="black" cx="2226.68" cy="-1762" rx="61.73" ry="18"/>
<text xml:space="preserve" text-anchor="middle" x="2226.68" y="-1757.33" font-family="Times,serif" font-size="14.00" fill="white">impact z ✓</text>
</a>
</g>
</g>
<!-- timemory -->
<g id="node61" class="node">
<title>timemory</title>
<g id="a_node61"><a xlink:href="https://github.com/conda-forge/timemory-feedstock/pull/25" xlink:title="timemory ❎">
<ellipse fill="#31688e" stroke="black" cx="2226.68" cy="-1690" rx="74.88" ry="18"/>
<text xml:space="preserve" text-anchor="middle" x="2226.68" y="-1685.33" font-family="Times,serif" font-size="14.00" fill="white">timemory ❎</text>
</a>
</g>
</g>
<!-- impact&#45;z&#45;&gt;timemory -->
<!-- precice -->
<g id="node62" class="node">
<title>precice</title>
<g id="a_node62"><a xlink:href="https://github.com/conda-forge/precice-feedstock/pull/55" xlink:title="precice ❎">
<ellipse fill="#31688e" stroke="black" cx="2226.68" cy="-1618" rx="62.78" ry="18"/>
<text xml:space="preserve" text-anchor="middle" x="2226.68" y="-1613.33" font-family="Times,serif" font-size="14.00" fill="white">precice ❎</text>
</a>
</g>
</g>
<!-- timemory&#45;&gt;precice -->
<!-- pexsi -->
<g id="node67" class="node">
<title>pexsi</title>
<g id="a_node67"><a xlink:href="https://github.com/conda-forge/pexsi-feedstock/pull/12" xlink:title="pexsi ❎">
<ellipse fill="#31688e" stroke="black" cx="2226.68" cy="-1546" rx="52.79" ry="18"/>
<text xml:space="preserve" text-anchor="middle" x="2226.68" y="-1541.33" font-family="Times,serif" font-size="14.00" fill="white">pexsi ❎</text>
</a>
</g>
</g>
<!-- precice&#45;&gt;pexsi -->
<!-- costa_variants -->
<g id="node63" class="node">
<title>costa_variants</title>
<g id="a_node63"><a xlink:href="https://github.com/conda-forge/costa_variants-feedstock/pull/9" xlink:title="costa_variants ❎">
<ellipse fill="#31688e" stroke="black" cx="1980.68" cy="-710" rx="98.56" ry="18"/>
<text xml:space="preserve" text-anchor="middle" x="1980.68" y="-705.33" font-family="Times,serif" font-size="14.00" fill="white">costa_variants ❎</text>
</a>
</g>
</g>
<!-- costa_variants&#45;&gt;sirius -->
<g id="edge55" class="edge">
<title>costa_variants&#45;&gt;sirius</title>
<path fill="none" stroke="black" d="M1983.65,-691.77C1986.92,-673.72 1992.67,-644.62 1999.68,-620 2002.04,-611.69 2005.04,-602.81 2007.94,-594.73"/>
<polygon fill="black" stroke="black" points="2011.2,-596.01 2011.4,-585.42 2004.64,-593.57 2011.2,-596.01"/>
</g>
<!-- elpa -->
<g id="node64" class="node">
<title>elpa</title>
<g id="a_node64"><a xlink:href="https://github.com/conda-forge/elpa-feedstock/pull/40" xlink:title="elpa ❎">
<ellipse fill="#31688e" stroke="black" cx="206.68" cy="-1690" rx="47.53" ry="18"/>
<text xml:space="preserve" text-anchor="middle" x="206.68" y="-1685.33" font-family="Times,serif" font-size="14.00" fill="white">elpa ❎</text>
</a>
</g>
</g>
<!-- elpa&#45;&gt;gpaw -->
<g id="edge56" class="edge">
<title>elpa&#45;&gt;gpaw</title>
<path fill="none" stroke="black" d="M181.73,-1674.33C164.05,-1663.93 140.15,-1649.86 120.86,-1638.52"/>
<polygon fill="black" stroke="black" points="122.67,-1635.52 112.28,-1633.47 119.12,-1641.56 122.67,-1635.52"/>
</g>
<!-- elsi -->
<g id="node65" class="node">
<title>elsi</title>
<g id="a_node65"><a xlink:href="https://github.com/conda-forge/elsi-feedstock" xlink:title="elsi">
<ellipse fill="#fde725" stroke="black" cx="290.68" cy="-1618" rx="28.59" ry="18"/>
<text xml:space="preserve" text-anchor="middle" x="290.68" y="-1613.33" font-family="Times,serif" font-size="14.00">elsi</text>
</a>
</g>
</g>
<!-- elpa&#45;&gt;elsi -->
<g id="edge57" class="edge">
<title>elpa&#45;&gt;elsi</title>
<path fill="none" stroke="black" d="M225.74,-1673.12C237.42,-1663.38 252.52,-1650.79 265.22,-1640.21"/>
<polygon fill="black" stroke="black" points="267.36,-1642.99 272.8,-1633.9 262.88,-1637.61 267.36,-1642.99"/>
</g>
<!-- abacus -->
<g id="node66" class="node">
<title>abacus</title>
<g id="a_node66"><a xlink:href="https://github.com/conda-forge/abacus-feedstock" xlink:title="abacus">
<ellipse fill="#fde725" stroke="black" cx="197.68" cy="-1618" rx="45.95" ry="18"/>
<text xml:space="preserve" text-anchor="middle" x="197.68" y="-1613.33" font-family="Times,serif" font-size="14.00">abacus</text>
</a>
</g>
</g>
<!-- elpa&#45;&gt;abacus -->
<g id="edge58" class="edge">
<title>elpa&#45;&gt;abacus</title>
<path fill="none" stroke="black" d="M204.45,-1671.7C203.5,-1664.32 202.37,-1655.52 201.31,-1647.25"/>
<polygon fill="black" stroke="black" points="204.81,-1647.08 200.07,-1637.61 197.87,-1647.97 204.81,-1647.08"/>
</g>
<!-- elsi&#45;&gt;dftbplus -->
<g id="edge59" class="edge">
<title>elsi&#45;&gt;dftbplus</title>
<path fill="none" stroke="black" d="M283.38,-1600.18C279.34,-1589.94 274.73,-1576.46 272.68,-1564 270.07,-1548.21 270.07,-1543.79 272.68,-1528 274.05,-1519.66 276.57,-1510.87 279.3,-1502.89"/>
<polygon fill="black" stroke="black" points="282.51,-1504.31 282.67,-1493.72 275.94,-1501.89 282.51,-1504.31"/>
</g>
<!-- elsi&#45;&gt;libmbd -->
<g id="edge60" class="edge">
<title>elsi&#45;&gt;libmbd</title>
<path fill="none" stroke="black" d="M299.44,-1600.41C303.62,-1592.51 308.72,-1582.85 313.44,-1573.94"/>
<polygon fill="black" stroke="black" points="316.43,-1575.77 318.01,-1565.29 310.24,-1572.5 316.43,-1575.77"/>
</g>
<!-- eigenexa -->
<g id="node68" class="node">
<title>eigenexa</title>
<g id="a_node68"><a xlink:href="https://github.com/conda-forge/eigenexa-feedstock/pull/4" xlink:title="eigenexa ❎">
<ellipse fill="#31688e" stroke="black" cx="2226.68" cy="-1474" rx="71.2" ry="18"/>
<text xml:space="preserve" text-anchor="middle" x="2226.68" y="-1469.33" font-family="Times,serif" font-size="14.00" fill="white">eigenexa ❎</text>
</a>
</g>
</g>
<!-- pexsi&#45;&gt;eigenexa -->
<!-- dolfinx_mpc -->
<g id="node69" class="node">
<title>dolfinx_mpc</title>
<g id="a_node69"><a xlink:href="https://github.com/conda-forge/dolfinx_mpc-feedstock/pull/43" xlink:title="dolfinx_mpc ❎">
<ellipse fill="#31688e" stroke="black" cx="2226.68" cy="-1402" rx="85.93" ry="18"/>
<text xml:space="preserve" text-anchor="middle" x="2226.68" y="-1397.33" font-family="Times,serif" font-size="14.00" fill="white">dolfinx_mpc ❎</text>
</a>
</g>
</g>
<!-- eigenexa&#45;&gt;dolfinx_mpc -->
<!-- genesis4 -->
<g id="node71" class="node">
<title>genesis4</title>
<g id="a_node71"><a xlink:href="https://github.com/conda-forge/genesis4-feedstock/pull/28" xlink:title="genesis4 ❎">
<ellipse fill="#31688e" stroke="black" cx="2226.68" cy="-1330" rx="70.68" ry="18"/>
<text xml:space="preserve" text-anchor="middle" x="2226.68" y="-1325.33" font-family="Times,serif" font-size="14.00" fill="white">genesis4 ❎</text>
</a>
</g>
</g>
<!-- dolfinx_mpc&#45;&gt;genesis4 -->
<!-- libvdwxc -->
<g id="node70" class="node">
<title>libvdwxc</title>
<g id="a_node70"><a xlink:href="https://github.com/conda-forge/libvdwxc-feedstock/pull/15" xlink:title="libvdwxc ❎">
<ellipse fill="#31688e" stroke="black" cx="70.68" cy="-1690" rx="70.68" ry="18"/>
<text xml:space="preserve" text-anchor="middle" x="70.68" y="-1685.33" font-family="Times,serif" font-size="14.00" fill="white">libvdwxc ❎</text>
</a>
</g>
</g>
<!-- libvdwxc&#45;&gt;gpaw -->
<g id="edge64" class="edge">
<title>libvdwxc&#45;&gt;gpaw</title>
<path fill="none" stroke="black" d="M74.88,-1671.7C76.67,-1664.32 78.8,-1655.52 80.81,-1647.25"/>
<polygon fill="black" stroke="black" points="84.21,-1648.12 83.16,-1637.58 77.4,-1646.47 84.21,-1648.12"/>
</g>
<!-- meamfit -->
<g id="node72" class="node">
<title>meamfit</title>
<g id="a_node72"><a xlink:href="https://github.com/conda-forge/meamfit-feedstock/pull/1" xlink:title="meamfit ❎">
<ellipse fill="#31688e" stroke="black" cx="2226.68" cy="-1258" rx="67.52" ry="18"/>
<text xml:space="preserve" text-anchor="middle" x="2226.68" y="-1253.33" font-family="Times,serif" font-size="14.00" fill="white">meamfit ❎</text>
</a>
</g>
</g>
<!-- genesis4&#45;&gt;meamfit -->
<!-- eatpy -->
<g id="node73" class="node">
<title>eatpy</title>
<g id="a_node73"><a xlink:href="https://github.com/conda-forge/eatpy-feedstock/pull/10" xlink:title="eatpy ❎">
<ellipse fill="#31688e" stroke="black" cx="2226.68" cy="-1186" rx="54.36" ry="18"/>
<text xml:space="preserve" text-anchor="middle" x="2226.68" y="-1181.33" font-family="Times,serif" font-size="14.00" fill="white">eatpy ❎</text>
</a>
</g>
</g>
<!-- meamfit&#45;&gt;eatpy -->
<!-- elegant -->
<g id="node74" class="node">
<title>elegant</title>
<g id="a_node74"><a xlink:href="https://github.com/conda-forge/elegant-feedstock/pull/27" xlink:title="elegant ❎">
<ellipse fill="#31688e" stroke="black" cx="2226.68" cy="-1114" rx="63.84" ry="18"/>
<text xml:space="preserve" text-anchor="middle" x="2226.68" y="-1109.33" font-family="Times,serif" font-size="14.00" fill="white">elegant ❎</text>
</a>
</g>
</g>
<!-- eatpy&#45;&gt;elegant -->
<!-- conquest -->
<g id="node75" class="node">
<title>conquest</title>
<g id="a_node75"><a xlink:href="https://github.com/conda-forge/conquest-feedstock/pull/7" xlink:title="conquest ❎">
<ellipse fill="#31688e" stroke="black" cx="2226.68" cy="-1042" rx="71.73" ry="18"/>
<text xml:space="preserve" text-anchor="middle" x="2226.68" y="-1037.33" font-family="Times,serif" font-size="14.00" fill="white">conquest ❎</text>
</a>
</g>
</g>
<!-- elegant&#45;&gt;conquest -->
<!-- heffte -->
<g id="node76" class="node">
<title>heffte</title>
<g id="a_node76"><a xlink:href="https://github.com/conda-forge/heffte-feedstock/pull/11" xlink:title="heffte ❎">
<ellipse fill="#31688e" stroke="black" cx="936.68" cy="-234" rx="55.42" ry="18"/>
<text xml:space="preserve" text-anchor="middle" x="936.68" y="-229.32" font-family="Times,serif" font-size="14.00" fill="white">heffte ❎</text>
</a>
</g>
</g>
<!-- openfoam -->
<g id="node77" class="node">
<title>openfoam</title>
<g id="a_node77"><a xlink:href="https://github.com/conda-forge/openfoam-feedstock/pull/6" xlink:title="openfoam ❎">
<ellipse fill="#31688e" stroke="black" cx="936.68" cy="-162" rx="75.41" ry="18"/>
<text xml:space="preserve" text-anchor="middle" x="936.68" y="-157.32" font-family="Times,serif" font-size="14.00" fill="white">openfoam ❎</text>
</a>
</g>
</g>
<!-- heffte&#45;&gt;openfoam -->
<!-- qpad -->
<g id="node78" class="node">
<title>qpad</title>
<g id="a_node78"><a xlink:href="https://github.com/conda-forge/qpad-feedstock/pull/5" xlink:title="qpad ❎">
<ellipse fill="#31688e" stroke="black" cx="936.68" cy="-90" rx="51.21" ry="18"/>
<text xml:space="preserve" text-anchor="middle" x="936.68" y="-85.33" font-family="Times,serif" font-size="14.00" fill="white">qpad ❎</text>
</a>
</g>
</g>
<!-- openfoam&#45;&gt;qpad -->
<!-- gauxc -->
<g id="node81" class="node">
<title>gauxc</title>
<g id="a_node81"><a xlink:href="https://github.com/conda-forge/gauxc-feedstock/pull/6" xlink:title="gauxc ❎">
<ellipse fill="#31688e" stroke="black" cx="936.68" cy="-18" rx="55.94" ry="18"/>
<text xml:space="preserve" text-anchor="middle" x="936.68" y="-13.32" font-family="Times,serif" font-size="14.00" fill="white">gauxc ❎</text>
</a>
</g>
</g>
<!-- qpad&#45;&gt;gauxc -->
<!-- stopt -->
<g id="node79" class="node">
<title>stopt</title>
<g id="a_node79"><a xlink:href="https://github.com/conda-forge/stopt-feedstock/pull/20" xlink:title="stopt ❎">
<ellipse fill="#31688e" stroke="black" cx="1994.68" cy="-162" rx="52.26" ry="18"/>
<text xml:space="preserve" text-anchor="middle" x="1994.68" y="-157.32" font-family="Times,serif" font-size="14.00" fill="white">stopt ❎</text>
</a>
</g>
</g>
<!-- smspp&#45;project -->
<g id="node80" class="node">
<title>smspp&#45;project</title>
<g id="a_node80"><a xlink:href="https://github.com/conda-forge/smspp-project-feedstock" xlink:title="smspp project">
<ellipse fill="#fde725" stroke="black" cx="1994.68" cy="-90" rx="82.25" ry="18"/>
<text xml:space="preserve" text-anchor="middle" x="1994.68" y="-85.33" font-family="Times,serif" font-size="14.00">smspp project</text>
</a>
</g>
</g>
<!-- stopt&#45;&gt;smspp&#45;project -->
<g id="edge72" class="edge">
<title>stopt&#45;&gt;smspp&#45;project</title>
<path fill="none" stroke="black" d="M1994.68,-143.7C1994.68,-136.41 1994.68,-127.73 1994.68,-119.54"/>
<polygon fill="black" stroke="black" points="1998.18,-119.62 1994.68,-109.62 1991.18,-119.62 1998.18,-119.62"/>
</g>
</g>
</svg>
