<?xml version="1.0" encoding="UTF-8" standalone="no"?>
<!DOCTYPE svg PUBLIC "-//W3C//DTD SVG 1.1//EN"
 "http://www.w3.org/Graphics/SVG/1.1/DTD/svg11.dtd">
<!-- Generated by graphviz version 13.1.2 (20250809.0930)
 -->
<!-- Pages: 1 -->
<svg width="2343pt" height="1716pt"
 viewBox="0.00 0.00 2343.00 1716.00" xmlns="http://www.w3.org/2000/svg" xmlns:xlink="http://www.w3.org/1999/xlink">
<g id="graph0" class="graph" transform="scale(1 1) rotate(0) translate(4 1712)">
<polygon fill="white" stroke="none" points="-4,4 -4,-1712 2338.78,-1712 2338.78,4 -4,4"/>
<!-- arpack -->
<g id="node1" class="node">
<title>arpack</title>
<g id="a_node1"><a xlink:href="https://github.com/conda-forge/arpack-feedstock/pull/56" xlink:title="arpack ❎">
<ellipse fill="#31688e" stroke="black" cx="1710.68" cy="-1474" rx="60.15" ry="18"/>
<text xml:space="preserve" text-anchor="middle" x="1710.68" y="-1469.33" font-family="Times,serif" font-size="14.00" fill="white">arpack ❎</text>
</a>
</g>
</g>
<!-- ambertools -->
<g id="node2" class="node">
<title>ambertools</title>
<g id="a_node2"><a xlink:href="https://github.com/conda-forge/ambertools-feedstock" xlink:title="ambertools">
<ellipse fill="#fde725" stroke="black" cx="1806.68" cy="-1402" rx="67.52" ry="18"/>
<text xml:space="preserve" text-anchor="middle" x="1806.68" y="-1397.33" font-family="Times,serif" font-size="14.00">ambertools</text>
</a>
</g>
</g>
<!-- arpack&#45;&gt;ambertools -->
<g id="edge1" class="edge">
<title>arpack&#45;&gt;ambertools</title>
<path fill="none" stroke="black" d="M1732.46,-1457.12C1745.04,-1447.94 1761.1,-1436.23 1775.05,-1426.06"/>
<polygon fill="black" stroke="black" points="1777.07,-1428.92 1783.09,-1420.2 1772.95,-1423.26 1777.07,-1428.92"/>
</g>
<!-- dftbplus -->
<g id="node3" class="node">
<title>dftbplus</title>
<g id="a_node3"><a xlink:href="https://github.com/conda-forge/dftbplus-feedstock" xlink:title="dftbplus">
<ellipse fill="#fde725" stroke="black" cx="290.68" cy="-1402" rx="52.79" ry="18"/>
<text xml:space="preserve" text-anchor="middle" x="290.68" y="-1397.33" font-family="Times,serif" font-size="14.00">dftbplus</text>
</a>
</g>
</g>
<!-- arpack&#45;&gt;dftbplus -->
<g id="edge2" class="edge">
<title>arpack&#45;&gt;dftbplus</title>
<path fill="none" stroke="black" d="M1650.78,-1471.47C1405.16,-1465.08 481.87,-1439.96 352.68,-1420 348.39,-1419.34 343.98,-1418.49 339.58,-1417.52"/>
<polygon fill="black" stroke="black" points="340.76,-1414.2 330.22,-1415.26 339.12,-1421 340.76,-1414.2"/>
</g>
<!-- freefem -->
<g id="node4" class="node">
<title>freefem</title>
<g id="a_node4"><a xlink:href="https://github.com/conda-forge/freefem-feedstock" xlink:title="freefem">
<ellipse fill="#fde725" stroke="black" cx="1710.68" cy="-1330" rx="50.16" ry="18"/>
<text xml:space="preserve" text-anchor="middle" x="1710.68" y="-1325.33" font-family="Times,serif" font-size="14.00">freefem</text>
</a>
</g>
</g>
<!-- arpack&#45;&gt;freefem -->
<g id="edge3" class="edge">
<title>arpack&#45;&gt;freefem</title>
<path fill="none" stroke="black" d="M1710.68,-1455.59C1710.68,-1431.61 1710.68,-1388.14 1710.68,-1359.42"/>
<polygon fill="black" stroke="black" points="1714.18,-1359.62 1710.68,-1349.62 1707.18,-1359.62 1714.18,-1359.62"/>
</g>
<!-- fenics -->
<g id="node5" class="node">
<title>fenics</title>
<g id="a_node5"><a xlink:href="https://github.com/conda-forge/fenics-feedstock/pull/289" xlink:title="fenics ❎">
<ellipse fill="#31688e" stroke="black" cx="417.68" cy="-1402" rx="55.94" ry="18"/>
<text xml:space="preserve" text-anchor="middle" x="417.68" y="-1397.33" font-family="Times,serif" font-size="14.00" fill="white">fenics ❎</text>
</a>
</g>
</g>
<!-- mshr -->
<g id="node6" class="node">
<title>mshr</title>
<g id="a_node6"><a xlink:href="https://github.com/conda-forge/mshr-feedstock" xlink:title="mshr">
<ellipse fill="#fde725" stroke="black" cx="343.68" cy="-1330" rx="37" ry="18"/>
<text xml:space="preserve" text-anchor="middle" x="343.68" y="-1325.33" font-family="Times,serif" font-size="14.00">mshr</text>
</a>
</g>
</g>
<!-- fenics&#45;&gt;mshr -->
<g id="edge4" class="edge">
<title>fenics&#45;&gt;mshr</title>
<path fill="none" stroke="black" d="M400.51,-1384.76C390.88,-1375.65 378.69,-1364.13 368.08,-1354.09"/>
<polygon fill="black" stroke="black" points="370.75,-1351.8 361.08,-1347.47 365.94,-1356.88 370.75,-1351.8"/>
</g>
<!-- gyptis -->
<g id="node7" class="node">
<title>gyptis</title>
<g id="a_node7"><a xlink:href="https://github.com/conda-forge/gyptis-feedstock" xlink:title="gyptis">
<ellipse fill="#fde725" stroke="black" cx="440.68" cy="-1330" rx="42.26" ry="18"/>
<text xml:space="preserve" text-anchor="middle" x="440.68" y="-1325.33" font-family="Times,serif" font-size="14.00">gyptis</text>
</a>
</g>
</g>
<!-- fenics&#45;&gt;gyptis -->
<g id="edge5" class="edge">
<title>fenics&#45;&gt;gyptis</title>
<path fill="none" stroke="black" d="M423.36,-1383.7C425.81,-1376.24 428.74,-1367.32 431.49,-1358.97"/>
<polygon fill="black" stroke="black" points="434.79,-1360.14 434.58,-1349.54 428.14,-1357.95 434.79,-1360.14"/>
</g>
<!-- h5py -->
<g id="node8" class="node">
<title>h5py</title>
<g id="a_node8"><a xlink:href="https://github.com/conda-forge/h5py-feedstock/pull/167" xlink:title="h5py ✓">
<ellipse fill="#31688e" stroke="black" cx="1046.68" cy="-1402" rx="43.84" ry="18"/>
<text xml:space="preserve" text-anchor="middle" x="1046.68" y="-1397.33" font-family="Times,serif" font-size="14.00" fill="white">h5py ✓</text>
</a>
</g>
</g>
<!-- h5py&#45;&gt;gyptis -->
<g id="edge6" class="edge">
<title>h5py&#45;&gt;gyptis</title>
<path fill="none" stroke="black" d="M1004.27,-1396.75C969.46,-1393.28 918.88,-1388.26 874.68,-1384 704.49,-1367.59 658.97,-1383.26 491.68,-1348 488.7,-1347.37 485.65,-1346.63 482.6,-1345.81"/>
<polygon fill="black" stroke="black" points="483.68,-1342.48 473.1,-1343 481.7,-1349.19 483.68,-1342.48"/>
</g>
<!-- h5utils -->
<g id="node9" class="node">
<title>h5utils</title>
<g id="a_node9"><a xlink:href="https://github.com/conda-forge/h5utils-feedstock" xlink:title="h5utils">
<ellipse fill="#fde725" stroke="black" cx="1196.68" cy="-1330" rx="45.95" ry="18"/>
<text xml:space="preserve" text-anchor="middle" x="1196.68" y="-1325.33" font-family="Times,serif" font-size="14.00">h5utils</text>
</a>
</g>
</g>
<!-- h5py&#45;&gt;h5utils -->
<g id="edge7" class="edge">
<title>h5py&#45;&gt;h5utils</title>
<path fill="none" stroke="black" d="M1074.89,-1387.83C1098.24,-1376.94 1131.65,-1361.34 1157.58,-1349.25"/>
<polygon fill="black" stroke="black" points="1158.87,-1352.51 1166.45,-1345.11 1155.91,-1346.16 1158.87,-1352.51"/>
</g>
<!-- pymeep -->
<g id="node10" class="node">
<title>pymeep</title>
<g id="a_node10"><a xlink:href="https://github.com/conda-forge/pymeep-feedstock" xlink:title="pymeep">
<ellipse fill="#fde725" stroke="black" cx="747.68" cy="-1330" rx="50.68" ry="18"/>
<text xml:space="preserve" text-anchor="middle" x="747.68" y="-1325.33" font-family="Times,serif" font-size="14.00">pymeep</text>
</a>
</g>
</g>
<!-- h5py&#45;&gt;pymeep -->
<g id="edge8" class="edge">
<title>h5py&#45;&gt;pymeep</title>
<path fill="none" stroke="black" d="M1008.49,-1392.76C962.09,-1382.65 881.47,-1364.78 812.68,-1348 807.89,-1346.83 802.92,-1345.59 797.95,-1344.33"/>
<polygon fill="black" stroke="black" points="799.17,-1341.03 788.62,-1341.92 797.43,-1347.81 799.17,-1341.03"/>
</g>
<!-- lfpy -->
<g id="node11" class="node">
<title>lfpy</title>
<g id="a_node11"><a xlink:href="https://github.com/conda-forge/lfpy-feedstock" xlink:title="lfpy">
<ellipse fill="#fde725" stroke="black" cx="648.68" cy="-1330" rx="30.16" ry="18"/>
<text xml:space="preserve" text-anchor="middle" x="648.68" y="-1325.33" font-family="Times,serif" font-size="14.00">lfpy</text>
</a>
</g>
</g>
<!-- h5py&#45;&gt;lfpy -->
<g id="edge9" class="edge">
<title>h5py&#45;&gt;lfpy</title>
<path fill="none" stroke="black" d="M1004.67,-1396.21C923.21,-1386.7 746.58,-1364.86 687.68,-1348 685.82,-1347.47 683.94,-1346.87 682.05,-1346.22"/>
<polygon fill="black" stroke="black" points="683.4,-1342.99 672.81,-1342.65 680.88,-1349.52 683.4,-1342.99"/>
</g>
<!-- deepmd&#45;kit -->
<g id="node12" class="node">
<title>deepmd&#45;kit</title>
<g id="a_node12"><a xlink:href="https://github.com/conda-forge/deepmd-kit-feedstock" xlink:title="deepmd kit">
<ellipse fill="#fde725" stroke="black" cx="1442.68" cy="-1330" rx="67.52" ry="18"/>
<text xml:space="preserve" text-anchor="middle" x="1442.68" y="-1325.33" font-family="Times,serif" font-size="14.00">deepmd kit</text>
</a>
</g>
</g>
<!-- h5py&#45;&gt;deepmd&#45;kit -->
<g id="edge10" class="edge">
<title>h5py&#45;&gt;deepmd&#45;kit</title>
<path fill="none" stroke="black" d="M1086.91,-1394.7C1146.73,-1385.22 1262.6,-1366.44 1360.68,-1348 1366.99,-1346.81 1373.57,-1345.53 1380.13,-1344.22"/>
<polygon fill="black" stroke="black" points="1380.53,-1347.71 1389.63,-1342.29 1379.14,-1340.85 1380.53,-1347.71"/>
</g>
<!-- proteus -->
<g id="node13" class="node">
<title>proteus</title>
<g id="a_node13"><a xlink:href="https://github.com/conda-forge/proteus-feedstock" xlink:title="proteus">
<ellipse fill="#fde725" stroke="black" cx="550.68" cy="-1330" rx="49.63" ry="18"/>
<text xml:space="preserve" text-anchor="middle" x="550.68" y="-1325.33" font-family="Times,serif" font-size="14.00">proteus</text>
</a>
</g>
</g>
<!-- h5py&#45;&gt;proteus -->
<g id="edge11" class="edge">
<title>h5py&#45;&gt;proteus</title>
<path fill="none" stroke="black" d="M1004.2,-1396.72C909.73,-1387.07 684.66,-1363.25 609.68,-1348 605.9,-1347.23 602.02,-1346.34 598.14,-1345.38"/>
<polygon fill="black" stroke="black" points="599.3,-1342.07 588.74,-1342.91 597.52,-1348.84 599.3,-1342.07"/>
</g>
<!-- damask -->
<g id="node14" class="node">
<title>damask</title>
<g id="a_node14"><a xlink:href="https://github.com/conda-forge/damask-feedstock" xlink:title="damask">
<ellipse fill="#fde725" stroke="black" cx="1230.68" cy="-1258" rx="49.63" ry="18"/>
<text xml:space="preserve" text-anchor="middle" x="1230.68" y="-1253.33" font-family="Times,serif" font-size="14.00">damask</text>
</a>
</g>
</g>
<!-- h5py&#45;&gt;damask -->
<g id="edge12" class="edge">
<title>h5py&#45;&gt;damask</title>
<path fill="none" stroke="black" d="M1088.42,-1396.2C1142.4,-1389.04 1231.87,-1373.58 1251.68,-1348 1265.45,-1330.21 1257.53,-1304.83 1247.72,-1285.73"/>
<polygon fill="black" stroke="black" points="1250.87,-1284.19 1242.94,-1277.17 1244.76,-1287.6 1250.87,-1284.19"/>
</g>
<!-- cosmosis -->
<g id="node15" class="node">
<title>cosmosis</title>
<g id="a_node15"><a xlink:href="https://github.com/conda-forge/cosmosis-feedstock" xlink:title="cosmosis">
<ellipse fill="#fde725" stroke="black" cx="1262.68" cy="-1186" rx="56.47" ry="18"/>
<text xml:space="preserve" text-anchor="middle" x="1262.68" y="-1181.33" font-family="Times,serif" font-size="14.00">cosmosis</text>
</a>
</g>
</g>
<!-- h5py&#45;&gt;cosmosis -->
<g id="edge13" class="edge">
<title>h5py&#45;&gt;cosmosis</title>
<path fill="none" stroke="black" d="M1088.58,-1396.14C1145.77,-1388.68 1244.09,-1372.64 1269.68,-1348 1304.84,-1314.14 1301.07,-1287.47 1289.68,-1240 1287.53,-1231.06 1283.61,-1221.93 1279.42,-1213.83"/>
<polygon fill="black" stroke="black" points="1282.52,-1212.21 1274.6,-1205.18 1276.41,-1215.62 1282.52,-1212.21"/>
</g>
<!-- clawpack -->
<g id="node16" class="node">
<title>clawpack</title>
<g id="a_node16"><a xlink:href="https://github.com/conda-forge/clawpack-feedstock" xlink:title="clawpack">
<ellipse fill="#fde725" stroke="black" cx="1346.68" cy="-1114" rx="57" ry="18"/>
<text xml:space="preserve" text-anchor="middle" x="1346.68" y="-1109.33" font-family="Times,serif" font-size="14.00">clawpack</text>
</a>
</g>
</g>
<!-- h5py&#45;&gt;clawpack -->
<g id="edge14" class="edge">
<title>h5py&#45;&gt;clawpack</title>
<path fill="none" stroke="black" d="M1089.38,-1397.42C1152.68,-1391.24 1267.03,-1376.39 1295.68,-1348 1351.12,-1293.05 1352.56,-1192.67 1349.47,-1143.58"/>
<polygon fill="black" stroke="black" points="1352.97,-1143.47 1348.73,-1133.77 1345.99,-1144 1352.97,-1143.47"/>
</g>
<!-- veloxchem -->
<g id="node17" class="node">
<title>veloxchem</title>
<g id="a_node17"><a xlink:href="https://github.com/conda-forge/veloxchem-feedstock" xlink:title="veloxchem">
<ellipse fill="#fde725" stroke="black" cx="794.68" cy="-1042" rx="64.36" ry="18"/>
<text xml:space="preserve" text-anchor="middle" x="794.68" y="-1037.33" font-family="Times,serif" font-size="14.00">veloxchem</text>
</a>
</g>
</g>
<!-- h5py&#45;&gt;veloxchem -->
<g id="edge15" class="edge">
<title>h5py&#45;&gt;veloxchem</title>
<path fill="none" stroke="black" d="M1005.61,-1395.28C953.45,-1387.17 867.56,-1370.76 845.68,-1348 772.22,-1271.61 781.72,-1131.68 789.92,-1071.62"/>
<polygon fill="black" stroke="black" points="793.36,-1072.29 791.35,-1061.89 786.44,-1071.27 793.36,-1072.29"/>
</g>
<!-- paraprobe -->
<g id="node18" class="node">
<title>paraprobe</title>
<g id="a_node18"><a xlink:href="https://github.com/conda-forge/paraprobe-feedstock" xlink:title="paraprobe">
<ellipse fill="#fde725" stroke="black" cx="917.68" cy="-1330" rx="62.78" ry="18"/>
<text xml:space="preserve" text-anchor="middle" x="917.68" y="-1325.33" font-family="Times,serif" font-size="14.00">paraprobe</text>
</a>
</g>
</g>
<!-- h5py&#45;&gt;paraprobe -->
<g id="edge16" class="edge">
<title>h5py&#45;&gt;paraprobe</title>
<path fill="none" stroke="black" d="M1020.88,-1387C1002.3,-1376.92 976.93,-1363.15 955.99,-1351.79"/>
<polygon fill="black" stroke="black" points="957.9,-1348.85 947.45,-1347.15 954.57,-1355 957.9,-1348.85"/>
</g>
<!-- horovod -->
<g id="node19" class="node">
<title>horovod</title>
<g id="a_node19"><a xlink:href="https://github.com/conda-forge/horovod-feedstock" xlink:title="horovod">
<ellipse fill="#fde725" stroke="black" cx="966.68" cy="-1258" rx="51.74" ry="18"/>
<text xml:space="preserve" text-anchor="middle" x="966.68" y="-1253.33" font-family="Times,serif" font-size="14.00">horovod</text>
</a>
</g>
</g>
<!-- h5py&#45;&gt;horovod -->
<g id="edge17" class="edge">
<title>h5py&#45;&gt;horovod</title>
<path fill="none" stroke="black" d="M1037.18,-1384.15C1023.47,-1359.81 997.98,-1314.57 981.7,-1285.67"/>
<polygon fill="black" stroke="black" points="984.85,-1284.14 976.9,-1277.14 978.76,-1287.57 984.85,-1284.14"/>
</g>
<!-- fluidfft&#45;mpi_with_fftw -->
<g id="node20" class="node">
<title>fluidfft&#45;mpi_with_fftw</title>
<g id="a_node20"><a xlink:href="https://github.com/conda-forge/fluidfft-mpi_with_fftw-feedstock" xlink:title="fluidfft mpi_with_fftw">
<ellipse fill="#fde725" stroke="black" cx="939.68" cy="-1186" rx="117.5" ry="18"/>
<text xml:space="preserve" text-anchor="middle" x="939.68" y="-1181.33" font-family="Times,serif" font-size="14.00">fluidfft mpi_with_fftw</text>
</a>
</g>
</g>
<!-- h5py&#45;&gt;fluidfft&#45;mpi_with_fftw -->
<g id="edge18" class="edge">
<title>h5py&#45;&gt;fluidfft&#45;mpi_with_fftw</title>
<path fill="none" stroke="black" d="M1049.26,-1383.87C1053.05,-1352.56 1056.82,-1285.17 1027.68,-1240 1019.19,-1226.86 1006.19,-1216.5 992.77,-1208.56"/>
<polygon fill="black" stroke="black" points="994.75,-1205.66 984.3,-1203.93 991.39,-1211.8 994.75,-1205.66"/>
</g>
<!-- fluidfft&#45;fftwmpi -->
<g id="node21" class="node">
<title>fluidfft&#45;fftwmpi</title>
<g id="a_node21"><a xlink:href="https://github.com/conda-forge/fluidfft-fftwmpi-feedstock" xlink:title="fluidfft fftwmpi">
<ellipse fill="#fde725" stroke="black" cx="1008.68" cy="-1114" rx="85.93" ry="18"/>
<text xml:space="preserve" text-anchor="middle" x="1008.68" y="-1109.33" font-family="Times,serif" font-size="14.00">fluidfft fftwmpi</text>
</a>
</g>
</g>
<!-- h5py&#45;&gt;fluidfft&#45;fftwmpi -->
<g id="edge19" class="edge">
<title>h5py&#45;&gt;fluidfft&#45;fftwmpi</title>
<path fill="none" stroke="black" d="M1053.33,-1384.01C1067.81,-1344.28 1098.34,-1242.97 1065.68,-1168 1060.81,-1156.83 1052.3,-1146.95 1043.31,-1138.84"/>
<polygon fill="black" stroke="black" points="1045.74,-1136.31 1035.82,-1132.59 1041.26,-1141.69 1045.74,-1136.31"/>
</g>
<!-- bodo -->
<g id="node22" class="node">
<title>bodo</title>
<g id="a_node22"><a xlink:href="https://github.com/conda-forge/bodo-feedstock" xlink:title="bodo">
<ellipse fill="#fde725" stroke="black" cx="1122.68" cy="-1042" rx="35.42" ry="18"/>
<text xml:space="preserve" text-anchor="middle" x="1122.68" y="-1037.33" font-family="Times,serif" font-size="14.00">bodo</text>
</a>
</g>
</g>
<!-- h5py&#45;&gt;bodo -->
<g id="edge20" class="edge">
<title>h5py&#45;&gt;bodo</title>
<path fill="none" stroke="black" d="M1062.05,-1385.02C1084.26,-1360.19 1122.68,-1309.89 1122.68,-1259 1122.68,-1259 1122.68,-1259 1122.68,-1185 1122.68,-1145.74 1122.68,-1100.38 1122.68,-1071.69"/>
<polygon fill="black" stroke="black" points="1126.18,-1072 1122.68,-1062 1119.18,-1072 1126.18,-1072"/>
</g>
<!-- libadjoint -->
<g id="node23" class="node">
<title>libadjoint</title>
<g id="a_node23"><a xlink:href="https://github.com/conda-forge/libadjoint-feedstock/pull/47" xlink:title="libadjoint ❎">
<ellipse fill="#31688e" stroke="black" cx="936.68" cy="-926" rx="73.83" ry="18"/>
<text xml:space="preserve" text-anchor="middle" x="936.68" y="-921.33" font-family="Times,serif" font-size="14.00" fill="white">libadjoint ❎</text>
</a>
</g>
</g>
<!-- pytrilinos -->
<g id="node24" class="node">
<title>pytrilinos</title>
<g id="a_node24"><a xlink:href="https://github.com/conda-forge/pytrilinos-feedstock/pull/65" xlink:title="pytrilinos ❎">
<ellipse fill="#31688e" stroke="black" cx="936.68" cy="-854" rx="74.36" ry="18"/>
<text xml:space="preserve" text-anchor="middle" x="936.68" y="-849.33" font-family="Times,serif" font-size="14.00" fill="white">pytrilinos ❎</text>
</a>
</g>
</g>
<!-- libadjoint&#45;&gt;pytrilinos -->
<!-- vic -->
<g id="node25" class="node">
<title>vic</title>
<g id="a_node25"><a xlink:href="https://github.com/conda-forge/vic-feedstock/pull/27" xlink:title="vic ❎">
<ellipse fill="#31688e" stroke="black" cx="936.68" cy="-782" rx="40.69" ry="18"/>
<text xml:space="preserve" text-anchor="middle" x="936.68" y="-777.33" font-family="Times,serif" font-size="14.00" fill="white">vic ❎</text>
</a>
</g>
</g>
<!-- pytrilinos&#45;&gt;vic -->
<!-- numcosmo -->
<g id="node26" class="node">
<title>numcosmo</title>
<g id="a_node26"><a xlink:href="https://github.com/conda-forge/numcosmo-feedstock/pull/111" xlink:title="numcosmo ❎">
<ellipse fill="#31688e" stroke="black" cx="936.68" cy="-710" rx="80.14" ry="18"/>
<text xml:space="preserve" text-anchor="middle" x="936.68" y="-705.33" font-family="Times,serif" font-size="14.00" fill="white">numcosmo ❎</text>
</a>
</g>
</g>
<!-- vic&#45;&gt;numcosmo -->
<!-- trilinos -->
<g id="node27" class="node">
<title>trilinos</title>
<g id="a_node27"><a xlink:href="https://github.com/conda-forge/trilinos-feedstock/pull/68" xlink:title="trilinos ❎">
<ellipse fill="#31688e" stroke="black" cx="936.68" cy="-638" rx="62.26" ry="18"/>
<text xml:space="preserve" text-anchor="middle" x="936.68" y="-633.33" font-family="Times,serif" font-size="14.00" fill="white">trilinos ❎</text>
</a>
</g>
</g>
<!-- numcosmo&#45;&gt;trilinos -->
<!-- multinest -->
<g id="node29" class="node">
<title>multinest</title>
<g id="a_node29"><a xlink:href="https://github.com/conda-forge/multinest-feedstock/pull/17" xlink:title="multinest ✓">
<ellipse fill="#31688e" stroke="black" cx="936.68" cy="-566" rx="66.99" ry="18"/>
<text xml:space="preserve" text-anchor="middle" x="936.68" y="-561.33" font-family="Times,serif" font-size="14.00" fill="white">multinest ✓</text>
</a>
</g>
</g>
<!-- trilinos&#45;&gt;multinest -->
<!-- mpb -->
<g id="node28" class="node">
<title>mpb</title>
<g id="a_node28"><a xlink:href="https://github.com/conda-forge/mpb-feedstock/pull/52" xlink:title="mpb ❎">
<ellipse fill="#31688e" stroke="black" cx="816.68" cy="-1402" rx="48.58" ry="18"/>
<text xml:space="preserve" text-anchor="middle" x="816.68" y="-1397.33" font-family="Times,serif" font-size="14.00" fill="white">mpb ❎</text>
</a>
</g>
</g>
<!-- mpb&#45;&gt;pymeep -->
<g id="edge25" class="edge">
<title>mpb&#45;&gt;pymeep</title>
<path fill="none" stroke="black" d="M800.67,-1384.76C792.05,-1376.02 781.24,-1365.05 771.64,-1355.31"/>
<polygon fill="black" stroke="black" points="774.17,-1352.89 764.65,-1348.23 769.18,-1357.8 774.17,-1352.89"/>
</g>
<!-- adios -->
<g id="node30" class="node">
<title>adios</title>
<g id="a_node30"><a xlink:href="https://github.com/conda-forge/adios-feedstock/pull/40" xlink:title="adios ❎">
<ellipse fill="#31688e" stroke="black" cx="936.68" cy="-494" rx="52.79" ry="18"/>
<text xml:space="preserve" text-anchor="middle" x="936.68" y="-489.32" font-family="Times,serif" font-size="14.00" fill="white">adios ❎</text>
</a>
</g>
</g>
<!-- multinest&#45;&gt;adios -->
<!-- daetk -->
<g id="node33" class="node">
<title>daetk</title>
<g id="a_node33"><a xlink:href="https://github.com/conda-forge/daetk-feedstock/pull/22" xlink:title="daetk ❎">
<ellipse fill="#31688e" stroke="black" cx="936.68" cy="-422" rx="54.36" ry="18"/>
<text xml:space="preserve" text-anchor="middle" x="936.68" y="-417.32" font-family="Times,serif" font-size="14.00" fill="white">daetk ❎</text>
</a>
</g>
</g>
<!-- adios&#45;&gt;daetk -->
<!-- lammps -->
<g id="node31" class="node">
<title>lammps</title>
<g id="a_node31"><a xlink:href="https://github.com/conda-forge/lammps-feedstock" xlink:title="lammps">
<ellipse fill="#fde725" stroke="black" cx="1442.68" cy="-1402" rx="50.68" ry="18"/>
<text xml:space="preserve" text-anchor="middle" x="1442.68" y="-1397.33" font-family="Times,serif" font-size="14.00">lammps</text>
</a>
</g>
</g>
<!-- lammps&#45;&gt;deepmd&#45;kit -->
<g id="edge28" class="edge">
<title>lammps&#45;&gt;deepmd&#45;kit</title>
<path fill="none" stroke="black" d="M1442.68,-1383.7C1442.68,-1376.41 1442.68,-1367.73 1442.68,-1359.54"/>
<polygon fill="black" stroke="black" points="1446.18,-1359.62 1442.68,-1349.62 1439.18,-1359.62 1446.18,-1359.62"/>
</g>
<!-- parsplice -->
<g id="node32" class="node">
<title>parsplice</title>
<g id="a_node32"><a xlink:href="https://github.com/conda-forge/parsplice-feedstock" xlink:title="parsplice">
<ellipse fill="#fde725" stroke="black" cx="1585.68" cy="-1330" rx="57" ry="18"/>
<text xml:space="preserve" text-anchor="middle" x="1585.68" y="-1325.33" font-family="Times,serif" font-size="14.00">parsplice</text>
</a>
</g>
</g>
<!-- lammps&#45;&gt;parsplice -->
<g id="edge29" class="edge">
<title>lammps&#45;&gt;parsplice</title>
<path fill="none" stroke="black" d="M1471.61,-1386.83C1492.94,-1376.39 1522.21,-1362.07 1545.76,-1350.54"/>
<polygon fill="black" stroke="black" points="1546.99,-1353.83 1554.44,-1346.29 1543.92,-1347.54 1546.99,-1353.83"/>
</g>
<!-- conduit -->
<g id="node41" class="node">
<title>conduit</title>
<g id="a_node41"><a xlink:href="https://github.com/conda-forge/conduit-feedstock/pull/58" xlink:title="conduit ❎">
<ellipse fill="#31688e" stroke="black" cx="936.68" cy="-350" rx="63.84" ry="18"/>
<text xml:space="preserve" text-anchor="middle" x="936.68" y="-345.32" font-family="Times,serif" font-size="14.00" fill="white">conduit ❎</text>
</a>
</g>
</g>
<!-- daetk&#45;&gt;conduit -->
<!-- openpmd&#45;api -->
<g id="node34" class="node">
<title>openpmd&#45;api</title>
<g id="a_node34"><a xlink:href="https://github.com/conda-forge/openpmd-api-feedstock" xlink:title="openpmd api">
<ellipse fill="#fde725" stroke="black" cx="900.68" cy="-90" rx="75.94" ry="18"/>
<text xml:space="preserve" text-anchor="middle" x="900.68" y="-85.33" font-family="Times,serif" font-size="14.00">openpmd api</text>
</a>
</g>
</g>
<!-- neuron -->
<g id="node35" class="node">
<title>neuron</title>
<g id="a_node35"><a xlink:href="https://github.com/conda-forge/neuron-feedstock/pull/64" xlink:title="neuron ❎">
<ellipse fill="#31688e" stroke="black" cx="688.68" cy="-1402" rx="61.73" ry="18"/>
<text xml:space="preserve" text-anchor="middle" x="688.68" y="-1397.33" font-family="Times,serif" font-size="14.00" fill="white">neuron ❎</text>
</a>
</g>
</g>
<!-- neuron&#45;&gt;lfpy -->
<g id="edge31" class="edge">
<title>neuron&#45;&gt;lfpy</title>
<path fill="none" stroke="black" d="M678.99,-1384.05C674.41,-1376.03 668.82,-1366.26 663.7,-1357.3"/>
<polygon fill="black" stroke="black" points="666.74,-1355.57 658.74,-1348.62 660.67,-1359.04 666.74,-1355.57"/>
</g>
<!-- gpaw -->
<g id="node36" class="node">
<title>gpaw</title>
<g id="a_node36"><a xlink:href="https://github.com/conda-forge/gpaw-feedstock" xlink:title="gpaw">
<ellipse fill="#fde725" stroke="black" cx="87.68" cy="-1546" rx="38.06" ry="18"/>
<text xml:space="preserve" text-anchor="middle" x="87.68" y="-1541.33" font-family="Times,serif" font-size="14.00">gpaw</text>
</a>
</g>
</g>
<!-- plumed -->
<g id="node37" class="node">
<title>plumed</title>
<g id="a_node37"><a xlink:href="https://github.com/conda-forge/plumed-feedstock/pull/44" xlink:title="plumed ✓">
<ellipse fill="#31688e" stroke="black" cx="945.68" cy="-1474" rx="56.47" ry="18"/>
<text xml:space="preserve" text-anchor="middle" x="945.68" y="-1469.33" font-family="Times,serif" font-size="14.00" fill="white">plumed ✓</text>
</a>
</g>
</g>
<!-- plumed&#45;&gt;dftbplus -->
<g id="edge32" class="edge">
<title>plumed&#45;&gt;dftbplus</title>
<path fill="none" stroke="black" d="M889.64,-1471.32C783.89,-1467.42 547.98,-1455.21 352.68,-1420 348.59,-1419.26 344.38,-1418.38 340.18,-1417.41"/>
<polygon fill="black" stroke="black" points="341.14,-1414.05 330.6,-1415.05 339.47,-1420.84 341.14,-1414.05"/>
</g>
<!-- plumed&#45;&gt;lammps -->
<g id="edge33" class="edge">
<title>plumed&#45;&gt;lammps</title>
<path fill="none" stroke="black" d="M996.53,-1465.84C1089.7,-1452.72 1287.17,-1424.9 1385.11,-1411.11"/>
<polygon fill="black" stroke="black" points="1385.35,-1414.61 1394.77,-1409.75 1384.38,-1407.68 1385.35,-1414.61"/>
</g>
<!-- adios2 -->
<g id="node38" class="node">
<title>adios2</title>
<g id="a_node38"><a xlink:href="https://github.com/conda-forge/adios2-feedstock/pull/134" xlink:title="adios2 ✓">
<ellipse fill="#31688e" stroke="black" cx="952.68" cy="-162" rx="51.74" ry="18"/>
<text xml:space="preserve" text-anchor="middle" x="952.68" y="-157.32" font-family="Times,serif" font-size="14.00" fill="white">adios2 ✓</text>
</a>
</g>
</g>
<!-- adios2&#45;&gt;openpmd&#45;api -->
<g id="edge34" class="edge">
<title>adios2&#45;&gt;openpmd&#45;api</title>
<path fill="none" stroke="black" d="M940.09,-144.05C934.02,-135.89 926.61,-125.91 919.86,-116.82"/>
<polygon fill="black" stroke="black" points="922.82,-114.94 914.05,-109 917.2,-119.12 922.82,-114.94"/>
</g>
<!-- scifem -->
<g id="node39" class="node">
<title>scifem</title>
<g id="a_node39"><a xlink:href="https://github.com/conda-forge/scifem-feedstock" xlink:title="scifem">
<ellipse fill="#fde725" stroke="black" cx="1004.68" cy="-18" rx="43.84" ry="18"/>
<text xml:space="preserve" text-anchor="middle" x="1004.68" y="-13.32" font-family="Times,serif" font-size="14.00">scifem</text>
</a>
</g>
</g>
<!-- adios2&#45;&gt;scifem -->
<g id="edge35" class="edge">
<title>adios2&#45;&gt;scifem</title>
<path fill="none" stroke="black" d="M965.28,-144.15C972.23,-134.12 980.48,-120.87 985.68,-108 993.51,-88.6 998.32,-65.45 1001.14,-47.63"/>
<polygon fill="black" stroke="black" points="1004.6,-48.14 1002.57,-37.75 997.68,-47.14 1004.6,-48.14"/>
</g>
<!-- scorec -->
<g id="node40" class="node">
<title>scorec</title>
<g id="a_node40"><a xlink:href="https://github.com/conda-forge/scorec-feedstock/pull/25" xlink:title="scorec ❎">
<ellipse fill="#31688e" stroke="black" cx="550.68" cy="-1402" rx="58.57" ry="18"/>
<text xml:space="preserve" text-anchor="middle" x="550.68" y="-1397.33" font-family="Times,serif" font-size="14.00" fill="white">scorec ❎</text>
</a>
</g>
</g>
<!-- scorec&#45;&gt;proteus -->
<g id="edge36" class="edge">
<title>scorec&#45;&gt;proteus</title>
<path fill="none" stroke="black" d="M550.68,-1383.7C550.68,-1376.41 550.68,-1367.73 550.68,-1359.54"/>
<polygon fill="black" stroke="black" points="554.18,-1359.62 550.68,-1349.62 547.18,-1359.62 554.18,-1359.62"/>
</g>
<!-- dagmc -->
<g id="node42" class="node">
<title>dagmc</title>
<g id="a_node42"><a xlink:href="https://github.com/conda-forge/dagmc-feedstock/pull/43" xlink:title="dagmc ❎">
<ellipse fill="#31688e" stroke="black" cx="936.68" cy="-278" rx="59.63" ry="18"/>
<text xml:space="preserve" text-anchor="middle" x="936.68" y="-273.32" font-family="Times,serif" font-size="14.00" fill="white">dagmc ❎</text>
</a>
</g>
</g>
<!-- conduit&#45;&gt;dagmc -->
<!-- triqs_tprf -->
<g id="node43" class="node">
<title>triqs_tprf</title>
<g id="a_node43"><a xlink:href="https://github.com/conda-forge/triqs_tprf-feedstock/pull/39" xlink:title="triqs_tprf ❎">
<ellipse fill="#31688e" stroke="black" cx="936.68" cy="-206" rx="73.83" ry="18"/>
<text xml:space="preserve" text-anchor="middle" x="936.68" y="-201.32" font-family="Times,serif" font-size="14.00" fill="white">triqs_tprf ❎</text>
</a>
</g>
</g>
<!-- dagmc&#45;&gt;triqs_tprf -->
<!-- triqs_cthyb -->
<g id="node44" class="node">
<title>triqs_cthyb</title>
<g id="a_node44"><a xlink:href="https://github.com/conda-forge/triqs_cthyb-feedstock/pull/54" xlink:title="triqs_cthyb ✓">
<ellipse fill="#31688e" stroke="black" cx="1991.68" cy="-1690" rx="75.41" ry="18"/>
<text xml:space="preserve" text-anchor="middle" x="1991.68" y="-1685.33" font-family="Times,serif" font-size="14.00" fill="white">triqs_cthyb ✓</text>
</a>
</g>
</g>
<!-- triqs_dft_tools -->
<g id="node45" class="node">
<title>triqs_dft_tools</title>
<g id="a_node45"><a xlink:href="https://github.com/conda-forge/triqs_dft_tools-feedstock/pull/41" xlink:title="triqs_dft_tools ❎">
<ellipse fill="#31688e" stroke="black" cx="1991.68" cy="-1618" rx="98.03" ry="18"/>
<text xml:space="preserve" text-anchor="middle" x="1991.68" y="-1613.33" font-family="Times,serif" font-size="14.00" fill="white">triqs_dft_tools ❎</text>
</a>
</g>
</g>
<!-- triqs_cthyb&#45;&gt;triqs_dft_tools -->
<!-- abinit -->
<g id="node46" class="node">
<title>abinit</title>
<g id="a_node46"><a xlink:href="https://github.com/conda-forge/abinit-feedstock/pull/78" xlink:title="abinit ❎">
<ellipse fill="#31688e" stroke="black" cx="1991.68" cy="-1546" rx="55.42" ry="18"/>
<text xml:space="preserve" text-anchor="middle" x="1991.68" y="-1541.33" font-family="Times,serif" font-size="14.00" fill="white">abinit ❎</text>
</a>
</g>
</g>
<!-- triqs_dft_tools&#45;&gt;abinit -->
<!-- taudem -->
<g id="node47" class="node">
<title>taudem</title>
<g id="a_node47"><a xlink:href="https://github.com/conda-forge/taudem-feedstock/pull/25" xlink:title="taudem ❎">
<ellipse fill="#31688e" stroke="black" cx="1991.68" cy="-1474" rx="64.36" ry="18"/>
<text xml:space="preserve" text-anchor="middle" x="1991.68" y="-1469.33" font-family="Times,serif" font-size="14.00" fill="white">taudem ❎</text>
</a>
</g>
</g>
<!-- abinit&#45;&gt;taudem -->
<!-- acctaudem -->
<g id="node49" class="node">
<title>acctaudem</title>
<g id="a_node49"><a xlink:href="https://github.com/conda-forge/acctaudem-feedstock/pull/19" xlink:title="acctaudem ❎">
<ellipse fill="#31688e" stroke="black" cx="1991.68" cy="-1402" rx="80.67" ry="18"/>
<text xml:space="preserve" text-anchor="middle" x="1991.68" y="-1397.33" font-family="Times,serif" font-size="14.00" fill="white">acctaudem ❎</text>
</a>
</g>
</g>
<!-- taudem&#45;&gt;acctaudem -->
<!-- libmbd -->
<g id="node48" class="node">
<title>libmbd</title>
<g id="a_node48"><a xlink:href="https://github.com/conda-forge/libmbd-feedstock" xlink:title="libmbd">
<ellipse fill="#fde725" stroke="black" cx="327.68" cy="-1474" rx="45.95" ry="18"/>
<text xml:space="preserve" text-anchor="middle" x="327.68" y="-1469.33" font-family="Times,serif" font-size="14.00">libmbd</text>
</a>
</g>
</g>
<!-- libmbd&#45;&gt;dftbplus -->
<g id="edge43" class="edge">
<title>libmbd&#45;&gt;dftbplus</title>
<path fill="none" stroke="black" d="M318.72,-1456.05C314.54,-1448.14 309.46,-1438.54 304.78,-1429.69"/>
<polygon fill="black" stroke="black" points="308.02,-1428.33 300.26,-1421.13 301.84,-1431.6 308.02,-1428.33"/>
</g>
<!-- fates&#45;emerald -->
<g id="node50" class="node">
<title>fates&#45;emerald</title>
<g id="a_node50"><a xlink:href="https://github.com/conda-forge/fates-emerald-feedstock/pull/25" xlink:title="fates emerald ✓">
<ellipse fill="#31688e" stroke="black" cx="1991.68" cy="-1330" rx="88.04" ry="18"/>
<text xml:space="preserve" text-anchor="middle" x="1991.68" y="-1325.33" font-family="Times,serif" font-size="14.00" fill="white">fates emerald ✓</text>
</a>
</g>
</g>
<!-- acctaudem&#45;&gt;fates&#45;emerald -->
<!-- genesis2 -->
<g id="node51" class="node">
<title>genesis2</title>
<g id="a_node51"><a xlink:href="https://github.com/conda-forge/genesis2-feedstock/pull/14" xlink:title="genesis2 ✓">
<ellipse fill="#31688e" stroke="black" cx="1991.68" cy="-1258" rx="63.31" ry="18"/>
<text xml:space="preserve" text-anchor="middle" x="1991.68" y="-1253.33" font-family="Times,serif" font-size="14.00" fill="white">genesis2 ✓</text>
</a>
</g>
</g>
<!-- fates&#45;emerald&#45;&gt;genesis2 -->
<!-- mrchem -->
<g id="node52" class="node">
<title>mrchem</title>
<g id="a_node52"><a xlink:href="https://github.com/conda-forge/mrchem-feedstock" xlink:title="mrchem">
<ellipse fill="#35b779" stroke="black" cx="1991.68" cy="-1186" rx="52.26" ry="18"/>
<text xml:space="preserve" text-anchor="middle" x="1991.68" y="-1181.33" font-family="Times,serif" font-size="14.00">mrchem</text>
</a>
</g>
</g>
<!-- genesis2&#45;&gt;mrchem -->
<!-- tempest&#45;extremes -->
<g id="node53" class="node">
<title>tempest&#45;extremes</title>
<g id="a_node53"><a xlink:href="https://github.com/conda-forge/tempest-extremes-feedstock/pull/19" xlink:title="tempest extremes ✓">
<ellipse fill="#31688e" stroke="black" cx="1991.68" cy="-1114" rx="110.13" ry="18"/>
<text xml:space="preserve" text-anchor="middle" x="1991.68" y="-1109.33" font-family="Times,serif" font-size="14.00" fill="white">tempest extremes ✓</text>
</a>
</g>
</g>
<!-- mrchem&#45;&gt;tempest&#45;extremes -->
<!-- impact&#45;t -->
<g id="node54" class="node">
<title>impact&#45;t</title>
<g id="a_node54"><a xlink:href="https://github.com/conda-forge/impact-t-feedstock/pull/31" xlink:title="impact t ✓">
<ellipse fill="#31688e" stroke="black" cx="1991.68" cy="-1042" rx="60.68" ry="18"/>
<text xml:space="preserve" text-anchor="middle" x="1991.68" y="-1037.33" font-family="Times,serif" font-size="14.00" fill="white">impact t ✓</text>
</a>
</g>
</g>
<!-- tempest&#45;extremes&#45;&gt;impact&#45;t -->
<!-- analisi -->
<g id="node55" class="node">
<title>analisi</title>
<g id="a_node55"><a xlink:href="https://github.com/conda-forge/analisi-feedstock/pull/39" xlink:title="analisi ❎">
<ellipse fill="#31688e" stroke="black" cx="1991.68" cy="-970" rx="59.1" ry="18"/>
<text xml:space="preserve" text-anchor="middle" x="1991.68" y="-965.33" font-family="Times,serif" font-size="14.00" fill="white">analisi ❎</text>
</a>
</g>
</g>
<!-- impact&#45;t&#45;&gt;analisi -->
<!-- spfft -->
<g id="node56" class="node">
<title>spfft</title>
<g id="a_node56"><a xlink:href="https://github.com/conda-forge/spfft-feedstock/pull/10" xlink:title="spfft ❎">
<ellipse fill="#31688e" stroke="black" cx="2285.68" cy="-566" rx="49.1" ry="18"/>
<text xml:space="preserve" text-anchor="middle" x="2285.68" y="-561.33" font-family="Times,serif" font-size="14.00" fill="white">spfft ❎</text>
</a>
</g>
</g>
<!-- sirius -->
<g id="node57" class="node">
<title>sirius</title>
<g id="a_node57"><a xlink:href="https://github.com/conda-forge/sirius-feedstock" xlink:title="sirius">
<ellipse fill="#fde725" stroke="black" cx="2246.68" cy="-494" rx="39.11" ry="18"/>
<text xml:space="preserve" text-anchor="middle" x="2246.68" y="-489.32" font-family="Times,serif" font-size="14.00">sirius</text>
</a>
</g>
</g>
<!-- spfft&#45;&gt;sirius -->
<g id="edge51" class="edge">
<title>spfft&#45;&gt;sirius</title>
<path fill="none" stroke="black" d="M2276.23,-548.05C2271.83,-540.14 2266.48,-530.54 2261.54,-521.69"/>
<polygon fill="black" stroke="black" points="2264.69,-520.14 2256.77,-513.11 2258.58,-523.55 2264.69,-520.14"/>
</g>
<!-- mfem -->
<g id="node58" class="node">
<title>mfem</title>
<g id="a_node58"><a xlink:href="https://github.com/conda-forge/mfem-feedstock/pull/18" xlink:title="mfem ❎">
<ellipse fill="#31688e" stroke="black" cx="2222.68" cy="-1690" rx="54.89" ry="18"/>
<text xml:space="preserve" text-anchor="middle" x="2222.68" y="-1685.33" font-family="Times,serif" font-size="14.00" fill="white">mfem ❎</text>
</a>
</g>
</g>
<!-- impact&#45;z -->
<g id="node59" class="node">
<title>impact&#45;z</title>
<g id="a_node59"><a xlink:href="https://github.com/conda-forge/impact-z-feedstock/pull/23" xlink:title="impact z ✓">
<ellipse fill="#31688e" stroke="black" cx="2222.68" cy="-1618" rx="61.73" ry="18"/>
<text xml:space="preserve" text-anchor="middle" x="2222.68" y="-1613.33" font-family="Times,serif" font-size="14.00" fill="white">impact z ✓</text>
</a>
</g>
</g>
<!-- mfem&#45;&gt;impact&#45;z -->
<!-- timemory -->
<g id="node60" class="node">
<title>timemory</title>
<g id="a_node60"><a xlink:href="https://github.com/conda-forge/timemory-feedstock/pull/25" xlink:title="timemory ❎">
<ellipse fill="#31688e" stroke="black" cx="2222.68" cy="-1546" rx="74.88" ry="18"/>
<text xml:space="preserve" text-anchor="middle" x="2222.68" y="-1541.33" font-family="Times,serif" font-size="14.00" fill="white">timemory ❎</text>
</a>
</g>
</g>
<!-- impact&#45;z&#45;&gt;timemory -->
<!-- precice -->
<g id="node61" class="node">
<title>precice</title>
<g id="a_node61"><a xlink:href="https://github.com/conda-forge/precice-feedstock/pull/55" xlink:title="precice ❎">
<ellipse fill="#31688e" stroke="black" cx="2222.68" cy="-1474" rx="62.78" ry="18"/>
<text xml:space="preserve" text-anchor="middle" x="2222.68" y="-1469.33" font-family="Times,serif" font-size="14.00" fill="white">precice ❎</text>
</a>
</g>
</g>
<!-- timemory&#45;&gt;precice -->
<!-- pexsi -->
<g id="node66" class="node">
<title>pexsi</title>
<g id="a_node66"><a xlink:href="https://github.com/conda-forge/pexsi-feedstock/pull/12" xlink:title="pexsi ❎">
<ellipse fill="#31688e" stroke="black" cx="2222.68" cy="-1402" rx="52.79" ry="18"/>
<text xml:space="preserve" text-anchor="middle" x="2222.68" y="-1397.33" font-family="Times,serif" font-size="14.00" fill="white">pexsi ❎</text>
</a>
</g>
</g>
<!-- precice&#45;&gt;pexsi -->
<!-- costa_variants -->
<g id="node62" class="node">
<title>costa_variants</title>
<g id="a_node62"><a xlink:href="https://github.com/conda-forge/costa_variants-feedstock/pull/9" xlink:title="costa_variants ❎">
<ellipse fill="#31688e" stroke="black" cx="2208.68" cy="-638" rx="98.56" ry="18"/>
<text xml:space="preserve" text-anchor="middle" x="2208.68" y="-633.33" font-family="Times,serif" font-size="14.00" fill="white">costa_variants ❎</text>
</a>
</g>
</g>
<!-- costa_variants&#45;&gt;sirius -->
<g id="edge55" class="edge">
<title>costa_variants&#45;&gt;sirius</title>
<path fill="none" stroke="black" d="M2211.65,-619.77C2214.92,-601.72 2220.67,-572.62 2227.68,-548 2230.04,-539.69 2233.04,-530.81 2235.94,-522.73"/>
<polygon fill="black" stroke="black" points="2239.2,-524.01 2239.4,-513.42 2232.64,-521.57 2239.2,-524.01"/>
</g>
<!-- elpa -->
<g id="node63" class="node">
<title>elpa</title>
<g id="a_node63"><a xlink:href="https://github.com/conda-forge/elpa-feedstock/pull/40" xlink:title="elpa ❎">
<ellipse fill="#31688e" stroke="black" cx="206.68" cy="-1618" rx="47.53" ry="18"/>
<text xml:space="preserve" text-anchor="middle" x="206.68" y="-1613.33" font-family="Times,serif" font-size="14.00" fill="white">elpa ❎</text>
</a>
</g>
</g>
<!-- elpa&#45;&gt;gpaw -->
<g id="edge56" class="edge">
<title>elpa&#45;&gt;gpaw</title>
<path fill="none" stroke="black" d="M181.73,-1602.33C164.05,-1591.93 140.15,-1577.86 120.86,-1566.52"/>
<polygon fill="black" stroke="black" points="122.67,-1563.52 112.28,-1561.47 119.12,-1569.56 122.67,-1563.52"/>
</g>
<!-- elsi -->
<g id="node64" class="node">
<title>elsi</title>
<g id="a_node64"><a xlink:href="https://github.com/conda-forge/elsi-feedstock" xlink:title="elsi">
<ellipse fill="#fde725" stroke="black" cx="290.68" cy="-1546" rx="28.59" ry="18"/>
<text xml:space="preserve" text-anchor="middle" x="290.68" y="-1541.33" font-family="Times,serif" font-size="14.00">elsi</text>
</a>
</g>
</g>
<!-- elpa&#45;&gt;elsi -->
<g id="edge57" class="edge">
<title>elpa&#45;&gt;elsi</title>
<path fill="none" stroke="black" d="M225.74,-1601.12C237.42,-1591.38 252.52,-1578.79 265.22,-1568.21"/>
<polygon fill="black" stroke="black" points="267.36,-1570.99 272.8,-1561.9 262.88,-1565.61 267.36,-1570.99"/>
</g>
<!-- abacus -->
<g id="node65" class="node">
<title>abacus</title>
<g id="a_node65"><a xlink:href="https://github.com/conda-forge/abacus-feedstock" xlink:title="abacus">
<ellipse fill="#fde725" stroke="black" cx="197.68" cy="-1546" rx="45.95" ry="18"/>
<text xml:space="preserve" text-anchor="middle" x="197.68" y="-1541.33" font-family="Times,serif" font-size="14.00">abacus</text>
</a>
</g>
</g>
<!-- elpa&#45;&gt;abacus -->
<g id="edge58" class="edge">
<title>elpa&#45;&gt;abacus</title>
<path fill="none" stroke="black" d="M204.45,-1599.7C203.5,-1592.32 202.37,-1583.52 201.31,-1575.25"/>
<polygon fill="black" stroke="black" points="204.81,-1575.08 200.07,-1565.61 197.87,-1575.97 204.81,-1575.08"/>
</g>
<!-- elsi&#45;&gt;dftbplus -->
<g id="edge59" class="edge">
<title>elsi&#45;&gt;dftbplus</title>
<path fill="none" stroke="black" d="M283.38,-1528.18C279.34,-1517.94 274.73,-1504.46 272.68,-1492 270.07,-1476.21 270.07,-1471.79 272.68,-1456 274.05,-1447.66 276.57,-1438.87 279.3,-1430.89"/>
<polygon fill="black" stroke="black" points="282.51,-1432.31 282.67,-1421.72 275.94,-1429.89 282.51,-1432.31"/>
</g>
<!-- elsi&#45;&gt;libmbd -->
<g id="edge60" class="edge">
<title>elsi&#45;&gt;libmbd</title>
<path fill="none" stroke="black" d="M299.44,-1528.41C303.62,-1520.51 308.72,-1510.85 313.44,-1501.94"/>
<polygon fill="black" stroke="black" points="316.43,-1503.77 318.01,-1493.29 310.24,-1500.5 316.43,-1503.77"/>
</g>
<!-- eigenexa -->
<g id="node67" class="node">
<title>eigenexa</title>
<g id="a_node67"><a xlink:href="https://github.com/conda-forge/eigenexa-feedstock/pull/4" xlink:title="eigenexa ❎">
<ellipse fill="#31688e" stroke="black" cx="2222.68" cy="-1330" rx="71.2" ry="18"/>
<text xml:space="preserve" text-anchor="middle" x="2222.68" y="-1325.33" font-family="Times,serif" font-size="14.00" fill="white">eigenexa ❎</text>
</a>
</g>
</g>
<!-- pexsi&#45;&gt;eigenexa -->
<!-- dolfinx_mpc -->
<g id="node68" class="node">
<title>dolfinx_mpc</title>
<g id="a_node68"><a xlink:href="https://github.com/conda-forge/dolfinx_mpc-feedstock/pull/43" xlink:title="dolfinx_mpc ❎">
<ellipse fill="#31688e" stroke="black" cx="2222.68" cy="-1258" rx="85.93" ry="18"/>
<text xml:space="preserve" text-anchor="middle" x="2222.68" y="-1253.33" font-family="Times,serif" font-size="14.00" fill="white">dolfinx_mpc ❎</text>
</a>
</g>
</g>
<!-- eigenexa&#45;&gt;dolfinx_mpc -->
<!-- genesis4 -->
<g id="node70" class="node">
<title>genesis4</title>
<g id="a_node70"><a xlink:href="https://github.com/conda-forge/genesis4-feedstock/pull/28" xlink:title="genesis4 ❎">
<ellipse fill="#31688e" stroke="black" cx="2222.68" cy="-1186" rx="70.68" ry="18"/>
<text xml:space="preserve" text-anchor="middle" x="2222.68" y="-1181.33" font-family="Times,serif" font-size="14.00" fill="white">genesis4 ❎</text>
</a>
</g>
</g>
<!-- dolfinx_mpc&#45;&gt;genesis4 -->
<!-- libvdwxc -->
<g id="node69" class="node">
<title>libvdwxc</title>
<g id="a_node69"><a xlink:href="https://github.com/conda-forge/libvdwxc-feedstock/pull/15" xlink:title="libvdwxc ❎">
<ellipse fill="#31688e" stroke="black" cx="70.68" cy="-1618" rx="70.68" ry="18"/>
<text xml:space="preserve" text-anchor="middle" x="70.68" y="-1613.33" font-family="Times,serif" font-size="14.00" fill="white">libvdwxc ❎</text>
</a>
</g>
</g>
<!-- libvdwxc&#45;&gt;gpaw -->
<g id="edge64" class="edge">
<title>libvdwxc&#45;&gt;gpaw</title>
<path fill="none" stroke="black" d="M74.88,-1599.7C76.67,-1592.32 78.8,-1583.52 80.81,-1575.25"/>
<polygon fill="black" stroke="black" points="84.21,-1576.12 83.16,-1565.58 77.4,-1574.47 84.21,-1576.12"/>
</g>
<!-- meamfit -->
<g id="node71" class="node">
<title>meamfit</title>
<g id="a_node71"><a xlink:href="https://github.com/conda-forge/meamfit-feedstock/pull/1" xlink:title="meamfit ❎">
<ellipse fill="#31688e" stroke="black" cx="2222.68" cy="-1114" rx="67.52" ry="18"/>
<text xml:space="preserve" text-anchor="middle" x="2222.68" y="-1109.33" font-family="Times,serif" font-size="14.00" fill="white">meamfit ❎</text>
</a>
</g>
</g>
<!-- genesis4&#45;&gt;meamfit -->
<!-- eatpy -->
<g id="node72" class="node">
<title>eatpy</title>
<g id="a_node72"><a xlink:href="https://github.com/conda-forge/eatpy-feedstock/pull/10" xlink:title="eatpy ❎">
<ellipse fill="#31688e" stroke="black" cx="2222.68" cy="-1042" rx="54.36" ry="18"/>
<text xml:space="preserve" text-anchor="middle" x="2222.68" y="-1037.33" font-family="Times,serif" font-size="14.00" fill="white">eatpy ❎</text>
</a>
</g>
</g>
<!-- meamfit&#45;&gt;eatpy -->
<!-- elegant -->
<g id="node73" class="node">
<title>elegant</title>
<g id="a_node73"><a xlink:href="https://github.com/conda-forge/elegant-feedstock/pull/27" xlink:title="elegant ❎">
<ellipse fill="#31688e" stroke="black" cx="2222.68" cy="-970" rx="63.84" ry="18"/>
<text xml:space="preserve" text-anchor="middle" x="2222.68" y="-965.33" font-family="Times,serif" font-size="14.00" fill="white">elegant ❎</text>
</a>
</g>
</g>
<!-- eatpy&#45;&gt;elegant -->
<!-- conquest -->
<g id="node74" class="node">
<title>conquest</title>
<g id="a_node74"><a xlink:href="https://github.com/conda-forge/conquest-feedstock/pull/7" xlink:title="conquest ❎">
<ellipse fill="#31688e" stroke="black" cx="1991.68" cy="-710" rx="71.73" ry="18"/>
<text xml:space="preserve" text-anchor="middle" x="1991.68" y="-705.33" font-family="Times,serif" font-size="14.00" fill="white">conquest ❎</text>
</a>
</g>
</g>
<!-- heffte -->
<g id="node75" class="node">
<title>heffte</title>
<g id="a_node75"><a xlink:href="https://github.com/conda-forge/heffte-feedstock/pull/11" xlink:title="heffte ❎">
<ellipse fill="#31688e" stroke="black" cx="1991.68" cy="-638" rx="55.42" ry="18"/>
<text xml:space="preserve" text-anchor="middle" x="1991.68" y="-633.33" font-family="Times,serif" font-size="14.00" fill="white">heffte ❎</text>
</a>
</g>
</g>
<!-- conquest&#45;&gt;heffte -->
<!-- openfoam -->
<g id="node76" class="node">
<title>openfoam</title>
<g id="a_node76"><a xlink:href="https://github.com/conda-forge/openfoam-feedstock/pull/6" xlink:title="openfoam ❎">
<ellipse fill="#31688e" stroke="black" cx="1991.68" cy="-566" rx="75.41" ry="18"/>
<text xml:space="preserve" text-anchor="middle" x="1991.68" y="-561.33" font-family="Times,serif" font-size="14.00" fill="white">openfoam ❎</text>
</a>
</g>
</g>
<!-- heffte&#45;&gt;openfoam -->
<!-- qpad -->
<g id="node77" class="node">
<title>qpad</title>
<g id="a_node77"><a xlink:href="https://github.com/conda-forge/qpad-feedstock/pull/5" xlink:title="qpad ❎">
<ellipse fill="#31688e" stroke="black" cx="1991.68" cy="-494" rx="51.21" ry="18"/>
<text xml:space="preserve" text-anchor="middle" x="1991.68" y="-489.32" font-family="Times,serif" font-size="14.00" fill="white">qpad ❎</text>
</a>
</g>
</g>
<!-- openfoam&#45;&gt;qpad -->
<!-- gauxc -->
<g id="node80" class="node">
<title>gauxc</title>
<g id="a_node80"><a xlink:href="https://github.com/conda-forge/gauxc-feedstock/pull/6" xlink:title="gauxc ❎">
<ellipse fill="#31688e" stroke="black" cx="1991.68" cy="-422" rx="55.94" ry="18"/>
<text xml:space="preserve" text-anchor="middle" x="1991.68" y="-417.32" font-family="Times,serif" font-size="14.00" fill="white">gauxc ❎</text>
</a>
</g>
</g>
<!-- qpad&#45;&gt;gauxc -->
<!-- stopt -->
<g id="node78" class="node">
<title>stopt</title>
<g id="a_node78"><a xlink:href="https://github.com/conda-forge/stopt-feedstock/pull/20" xlink:title="stopt ❎">
<ellipse fill="#31688e" stroke="black" cx="1991.68" cy="-126" rx="52.26" ry="18"/>
<text xml:space="preserve" text-anchor="middle" x="1991.68" y="-121.33" font-family="Times,serif" font-size="14.00" fill="white">stopt ❎</text>
</a>
</g>
</g>
<!-- smspp&#45;project -->
<g id="node79" class="node">
<title>smspp&#45;project</title>
<g id="a_node79"><a xlink:href="https://github.com/conda-forge/smspp-project-feedstock" xlink:title="smspp project">
<ellipse fill="#fde725" stroke="black" cx="1991.68" cy="-54" rx="82.25" ry="18"/>
<text xml:space="preserve" text-anchor="middle" x="1991.68" y="-49.33" font-family="Times,serif" font-size="14.00">smspp project</text>
</a>
</g>
</g>
<!-- stopt&#45;&gt;smspp&#45;project -->
<g id="edge72" class="edge">
<title>stopt&#45;&gt;smspp&#45;project</title>
<path fill="none" stroke="black" d="M1991.68,-107.7C1991.68,-100.41 1991.68,-91.73 1991.68,-83.54"/>
<polygon fill="black" stroke="black" points="1995.18,-83.62 1991.68,-73.62 1988.18,-83.62 1995.18,-83.62"/>
</g>
</g>
</svg>
