<?xml version="1.0" encoding="UTF-8" standalone="no"?>
<!DOCTYPE svg PUBLIC "-//W3C//DTD SVG 1.1//EN"
 "http://www.w3.org/Graphics/SVG/1.1/DTD/svg11.dtd">
<!-- Generated by graphviz version 12.0.0 (20240803.0821)
 -->
<!-- Pages: 1 -->
<svg width="1935pt" height="404pt"
 viewBox="0.00 0.00 1935.15 404.00" xmlns="http://www.w3.org/2000/svg" xmlns:xlink="http://www.w3.org/1999/xlink">
<g id="graph0" class="graph" transform="scale(1 1) rotate(0) translate(4 400)">
<polygon fill="white" stroke="none" points="-4,4 -4,-400 1931.15,-400 1931.15,4 -4,4"/>
<!-- arb -->
<g id="node1" class="node">
<title>arb</title>
<g id="a_node1"><a xlink:href="https://github.com/conda-forge/arb-feedstock/pull/36" xlink:title="arb ❎">
<ellipse fill="#31688e" stroke="black" cx="403" cy="-234" rx="43.32" ry="18"/>
<text text-anchor="middle" x="403" y="-229.32" font-family="Times,serif" font-size="14.00" fill="white">arb ❎</text>
</a>
</g>
</g>
<!-- mppp -->
<g id="node2" class="node">
<title>mppp</title>
<g id="a_node2"><a xlink:href="https://github.com/conda-forge/mppp-feedstock/pull/60" xlink:title="mppp ❎">
<ellipse fill="#31688e" stroke="black" cx="340" cy="-162" rx="54.89" ry="18"/>
<text text-anchor="middle" x="340" y="-157.32" font-family="Times,serif" font-size="14.00" fill="white">mppp ❎</text>
</a>
</g>
</g>
<!-- arb&#45;&gt;mppp -->
<g id="edge1" class="edge">
<title>arb&#45;&gt;mppp</title>
<path fill="none" stroke="black" d="M388.39,-216.76C380.71,-208.23 371.12,-197.58 362.52,-188.02"/>
<polygon fill="black" stroke="black" points="365.27,-185.85 355.98,-180.76 360.07,-190.53 365.27,-185.85"/>
</g>
<!-- heyoka.py -->
<g id="node3" class="node">
<title>heyoka.py</title>
<g id="a_node3"><a xlink:href="https://github.com/conda-forge/heyoka.py-feedstock" xlink:title="heyoka py">
<ellipse fill="#000000" stroke="black" cx="202" cy="-18" rx="61.73" ry="18"/>
<text text-anchor="middle" x="202" y="-13.32" font-family="Times,serif" font-size="14.00" fill="white">heyoka py</text>
</a>
</g>
</g>
<!-- mppp&#45;&gt;heyoka.py -->
<g id="edge2" class="edge">
<title>mppp&#45;&gt;heyoka.py</title>
<path fill="none" stroke="black" d="M322.43,-144.52C311.51,-134.18 297.28,-120.48 285,-108 264.12,-86.77 241.07,-61.94 224.57,-43.91"/>
<polygon fill="black" stroke="black" points="227.38,-41.8 218.06,-36.77 222.21,-46.52 227.38,-41.8"/>
</g>
<!-- heyoka -->
<g id="node4" class="node">
<title>heyoka</title>
<g id="a_node4"><a xlink:href="https://github.com/conda-forge/heyoka-feedstock" xlink:title="heyoka">
<ellipse fill="#ff8c00" stroke="black" cx="340" cy="-90" rx="46.47" ry="18"/>
<text text-anchor="middle" x="340" y="-85.33" font-family="Times,serif" font-size="14.00">heyoka</text>
</a>
</g>
</g>
<!-- mppp&#45;&gt;heyoka -->
<g id="edge3" class="edge">
<title>mppp&#45;&gt;heyoka</title>
<path fill="none" stroke="black" d="M340,-143.7C340,-136.41 340,-127.73 340,-119.54"/>
<polygon fill="black" stroke="black" points="343.5,-119.62 340,-109.62 336.5,-119.62 343.5,-119.62"/>
</g>
<!-- heyoka&#45;&gt;heyoka.py -->
<g id="edge36" class="edge">
<title>heyoka&#45;&gt;heyoka.py</title>
<path fill="none" stroke="black" d="M312.74,-75.17C292.44,-64.87 264.42,-50.66 241.64,-39.11"/>
<polygon fill="black" stroke="black" points="243.45,-36.1 232.95,-34.7 240.28,-42.34 243.45,-36.1"/>
</g>
<!-- gmpy2 -->
<g id="node5" class="node">
<title>gmpy2</title>
<g id="a_node5"><a xlink:href="https://github.com/conda-forge/gmpy2-feedstock/pull/41" xlink:title="gmpy2 ❎">
<ellipse fill="#31688e" stroke="black" cx="223" cy="-306" rx="60.68" ry="18"/>
<text text-anchor="middle" x="223" y="-301.32" font-family="Times,serif" font-size="14.00" fill="white">gmpy2 ❎</text>
</a>
</g>
</g>
<!-- gmpy2&#45;&gt;heyoka.py -->
<g id="edge5" class="edge">
<title>gmpy2&#45;&gt;heyoka.py</title>
<path fill="none" stroke="black" d="M169.55,-297.12C142.37,-290.11 111.64,-276.9 95,-252 47.95,-181.59 129.92,-87.16 175.13,-43.29"/>
<polygon fill="black" stroke="black" points="177.44,-45.92 182.27,-36.5 172.62,-40.85 177.44,-45.92"/>
</g>
<!-- python&#45;symengine -->
<g id="node6" class="node">
<title>python&#45;symengine</title>
<g id="a_node6"><a xlink:href="https://github.com/conda-forge/python-symengine-feedstock/pull/53" xlink:title="python symengine ❎">
<ellipse fill="#31688e" stroke="black" cx="223" cy="-234" rx="118.55" ry="18"/>
<text text-anchor="middle" x="223" y="-229.32" font-family="Times,serif" font-size="14.00" fill="white">python symengine ❎</text>
</a>
</g>
</g>
<!-- gmpy2&#45;&gt;python&#45;symengine -->
<g id="edge4" class="edge">
<title>gmpy2&#45;&gt;python&#45;symengine</title>
<path fill="none" stroke="black" d="M223,-287.7C223,-280.41 223,-271.73 223,-263.54"/>
<polygon fill="black" stroke="black" points="226.5,-263.62 223,-253.62 219.5,-263.62 226.5,-263.62"/>
</g>
<!-- igraph -->
<g id="node7" class="node">
<title>igraph</title>
<g id="a_node7"><a xlink:href="https://github.com/conda-forge/igraph-feedstock/pull/73" xlink:title="igraph ❎">
<ellipse fill="#31688e" stroke="black" cx="1045" cy="-306" rx="59.1" ry="18"/>
<text text-anchor="middle" x="1045" y="-301.32" font-family="Times,serif" font-size="14.00" fill="white">igraph ❎</text>
</a>
</g>
</g>
<!-- libflint -->
<g id="node8" class="node">
<title>libflint</title>
<g id="a_node8"><a xlink:href="https://github.com/conda-forge/libflint-feedstock/pull/33" xlink:title="libflint ❎">
<ellipse fill="#31688e" stroke="black" cx="586" cy="-306" rx="59.1" ry="18"/>
<text text-anchor="middle" x="586" y="-301.32" font-family="Times,serif" font-size="14.00" fill="white">libflint ❎</text>
</a>
</g>
</g>
<!-- libflint&#45;&gt;arb -->
<g id="edge6" class="edge">
<title>libflint&#45;&gt;arb</title>
<path fill="none" stroke="black" d="M550.28,-291.34C520.04,-279.77 476.66,-263.17 444.81,-250.99"/>
<polygon fill="black" stroke="black" points="446.06,-247.73 435.47,-247.42 443.56,-254.26 446.06,-247.73"/>
</g>
<!-- libflint&#45;&gt;mppp -->
<g id="edge7" class="edge">
<title>libflint&#45;&gt;mppp</title>
<path fill="none" stroke="black" d="M555.97,-290.25C537.18,-280.45 512.85,-266.72 493,-252 474.31,-238.14 474.26,-229.04 455,-216 433.82,-201.66 408.14,-189.41 386.42,-180.31"/>
<polygon fill="black" stroke="black" points="387.78,-177.08 377.2,-176.54 385.13,-183.56 387.78,-177.08"/>
</g>
<!-- libflint&#45;&gt;python&#45;symengine -->
<g id="edge8" class="edge">
<title>libflint&#45;&gt;python&#45;symengine</title>
<path fill="none" stroke="black" d="M537.04,-295.56C477.71,-284.12 376.82,-264.66 305.43,-250.9"/>
<polygon fill="black" stroke="black" points="306.2,-247.48 295.72,-249.02 304.88,-254.35 306.2,-247.48"/>
</g>
<!-- python&#45;flint -->
<g id="node9" class="node">
<title>python&#45;flint</title>
<g id="a_node9"><a xlink:href="https://github.com/conda-forge/python-flint-feedstock/pull/40" xlink:title="python flint ❎">
<ellipse fill="#31688e" stroke="black" cx="586" cy="-234" rx="84.35" ry="18"/>
<text text-anchor="middle" x="586" y="-229.32" font-family="Times,serif" font-size="14.00" fill="white">python flint ❎</text>
</a>
</g>
</g>
<!-- libflint&#45;&gt;python&#45;flint -->
<g id="edge9" class="edge">
<title>libflint&#45;&gt;python&#45;flint</title>
<path fill="none" stroke="black" d="M586,-287.7C586,-280.41 586,-271.73 586,-263.54"/>
<polygon fill="black" stroke="black" points="589.5,-263.62 586,-253.62 582.5,-263.62 589.5,-263.62"/>
</g>
<!-- normaliz -->
<g id="node10" class="node">
<title>normaliz</title>
<g id="a_node10"><a xlink:href="https://github.com/conda-forge/normaliz-feedstock/pull/55" xlink:title="normaliz ❎">
<ellipse fill="#31688e" stroke="black" cx="759" cy="-234" rx="70.15" ry="18"/>
<text text-anchor="middle" x="759" y="-229.32" font-family="Times,serif" font-size="14.00" fill="white">normaliz ❎</text>
</a>
</g>
</g>
<!-- libflint&#45;&gt;normaliz -->
<g id="edge10" class="edge">
<title>libflint&#45;&gt;normaliz</title>
<path fill="none" stroke="black" d="M620.59,-291C646.74,-280.42 682.92,-265.78 711.73,-254.13"/>
<polygon fill="black" stroke="black" points="713.02,-257.38 720.97,-250.39 710.39,-250.89 713.02,-257.38"/>
</g>
<!-- antic -->
<g id="node11" class="node">
<title>antic</title>
<g id="a_node11"><a xlink:href="https://github.com/conda-forge/antic-feedstock" xlink:title="antic">
<ellipse fill="#ff8c00" stroke="black" cx="883" cy="-234" rx="35.95" ry="18"/>
<text text-anchor="middle" x="883" y="-229.32" font-family="Times,serif" font-size="14.00">antic</text>
</a>
</g>
</g>
<!-- libflint&#45;&gt;antic -->
<g id="edge11" class="edge">
<title>libflint&#45;&gt;antic</title>
<path fill="none" stroke="black" d="M637.25,-296.61C688.57,-287.65 769.55,-272 838,-252 840.25,-251.34 842.56,-250.62 844.87,-249.86"/>
<polygon fill="black" stroke="black" points="845.91,-253.21 854.19,-246.61 843.6,-246.6 845.91,-253.21"/>
</g>
<!-- mpc -->
<g id="node12" class="node">
<title>mpc</title>
<g id="a_node12"><a xlink:href="https://github.com/conda-forge/mpc-feedstock/pull/27" xlink:title="mpc ❎">
<ellipse fill="#31688e" stroke="black" cx="1162" cy="-378" rx="47.53" ry="18"/>
<text text-anchor="middle" x="1162" y="-373.32" font-family="Times,serif" font-size="14.00" fill="white">mpc ❎</text>
</a>
</g>
</g>
<!-- mpc&#45;&gt;arb -->
<g id="edge12" class="edge">
<title>mpc&#45;&gt;arb</title>
<path fill="none" stroke="black" d="M1114.51,-376.57C984.78,-374.85 626.89,-366.28 518,-324 481.64,-309.88 447.28,-280.39 425.75,-259.22"/>
<polygon fill="black" stroke="black" points="428.48,-257 418.95,-252.36 423.51,-261.93 428.48,-257"/>
</g>
<!-- mpc&#45;&gt;mppp -->
<g id="edge13" class="edge">
<title>mpc&#45;&gt;mppp</title>
<path fill="none" stroke="black" d="M1114.14,-376.76C925.44,-375.53 239.1,-368.02 153,-324 104.49,-299.2 60.79,-258.4 95,-216 117.27,-188.4 210.47,-174.46 275.27,-167.98"/>
<polygon fill="black" stroke="black" points="275.49,-171.47 285.1,-167.03 274.82,-164.5 275.49,-171.47"/>
</g>
<!-- mpc&#45;&gt;heyoka.py -->
<g id="edge16" class="edge">
<title>mpc&#45;&gt;heyoka.py</title>
<path fill="none" stroke="black" d="M1114.16,-376.48C919.73,-374.1 194.55,-362.71 100,-324 44.94,-301.46 0,-294.5 0,-235 0,-235 0,-235 0,-161 0,-90.18 84.14,-51.62 143.81,-33.19"/>
<polygon fill="black" stroke="black" points="144.6,-36.6 153.19,-30.41 142.61,-29.89 144.6,-36.6"/>
</g>
<!-- mpc&#45;&gt;heyoka -->
<g id="edge30" class="edge">
<title>mpc&#45;&gt;heyoka</title>
<path fill="none" stroke="black" d="M1115.05,-374.38C1074.22,-369.8 1015.7,-357.4 977,-324 937.09,-289.56 969.08,-249.03 928,-216 845.79,-149.9 526.77,-110.25 396.2,-96.49"/>
<polygon fill="black" stroke="black" points="396.71,-93.03 386.41,-95.47 395.99,-99.99 396.71,-93.03"/>
</g>
<!-- mpc&#45;&gt;gmpy2 -->
<g id="edge14" class="edge">
<title>mpc&#45;&gt;gmpy2</title>
<path fill="none" stroke="black" d="M1114.85,-375.38C988.42,-370.74 631.41,-355.64 336,-324 319.73,-322.26 302.22,-319.87 285.95,-317.44"/>
<polygon fill="black" stroke="black" points="286.83,-314.04 276.41,-315.99 285.77,-320.96 286.83,-314.04"/>
</g>
<!-- mpc&#45;&gt;python&#45;symengine -->
<g id="edge15" class="edge">
<title>mpc&#45;&gt;python&#45;symengine</title>
<path fill="none" stroke="black" d="M1114.57,-375.22C977.55,-369.78 582.94,-352.06 457,-324 388.71,-308.78 313.79,-277.52 267.57,-256.4"/>
<polygon fill="black" stroke="black" points="269.23,-253.31 258.68,-252.3 266.3,-259.67 269.23,-253.31"/>
</g>
<!-- mpc&#45;&gt;igraph -->
<g id="edge17" class="edge">
<title>mpc&#45;&gt;igraph</title>
<path fill="none" stroke="black" d="M1137.47,-362.33C1121.08,-352.52 1099.23,-339.45 1080.89,-328.47"/>
<polygon fill="black" stroke="black" points="1082.8,-325.53 1072.42,-323.4 1079.2,-331.54 1082.8,-325.53"/>
</g>
<!-- mpc&#45;&gt;libflint -->
<g id="edge18" class="edge">
<title>mpc&#45;&gt;libflint</title>
<path fill="none" stroke="black" d="M1116.27,-372.79C1031.32,-364.78 843.48,-346.13 686,-324 673.32,-322.22 659.78,-320.08 646.89,-317.92"/>
<polygon fill="black" stroke="black" points="647.7,-314.51 637.25,-316.29 646.53,-321.41 647.7,-314.51"/>
</g>
<!-- mpc&#45;&gt;python&#45;flint -->
<g id="edge19" class="edge">
<title>mpc&#45;&gt;python&#45;flint</title>
<path fill="none" stroke="black" d="M1116.34,-372.41C1052.14,-365.35 931.85,-349.84 832,-324 761.08,-305.65 681.87,-275.09 632.97,-254.99"/>
<polygon fill="black" stroke="black" points="634.39,-251.79 623.81,-251.2 631.71,-258.26 634.39,-251.79"/>
</g>
<!-- mpc&#45;&gt;normaliz -->
<g id="edge20" class="edge">
<title>mpc&#45;&gt;normaliz</title>
<path fill="none" stroke="black" d="M1116.06,-372.8C1062.58,-366.77 972.36,-353.01 900,-324 858.66,-307.42 816.08,-278.63 788.68,-258.28"/>
<polygon fill="black" stroke="black" points="790.95,-255.61 780.86,-252.38 786.74,-261.2 790.95,-255.61"/>
</g>
<!-- mpc&#45;&gt;antic -->
<g id="edge21" class="edge">
<title>mpc&#45;&gt;antic</title>
<path fill="none" stroke="black" d="M1114.37,-376.89C1064.51,-374.47 986.23,-363.89 933,-324 912.75,-308.82 899.54,-282.89 891.81,-262.92"/>
<polygon fill="black" stroke="black" points="895.17,-261.92 888.49,-253.69 888.58,-264.28 895.17,-261.92"/>
</g>
<!-- python&#45;igraph -->
<g id="node13" class="node">
<title>python&#45;igraph</title>
<g id="a_node13"><a xlink:href="https://github.com/conda-forge/python-igraph-feedstock/pull/90" xlink:title="python igraph ✓">
<ellipse fill="#31688e" stroke="black" cx="1065" cy="-234" rx="89.61" ry="18"/>
<text text-anchor="middle" x="1065" y="-229.32" font-family="Times,serif" font-size="14.00" fill="white">python igraph ✓</text>
</a>
</g>
</g>
<!-- mpc&#45;&gt;python&#45;igraph -->
<g id="edge22" class="edge">
<title>mpc&#45;&gt;python&#45;igraph</title>
<path fill="none" stroke="black" d="M1154.07,-359.9C1145.18,-341.45 1129.8,-311.55 1113,-288 1106.15,-278.4 1097.78,-268.62 1089.95,-260.13"/>
<polygon fill="black" stroke="black" points="1092.53,-257.76 1083.12,-252.9 1087.44,-262.57 1092.53,-257.76"/>
</g>
<!-- gudhi -->
<g id="node14" class="node">
<title>gudhi</title>
<g id="a_node14"><a xlink:href="https://github.com/conda-forge/gudhi-feedstock/pull/62" xlink:title="gudhi ✓">
<ellipse fill="#31688e" stroke="black" cx="1145" cy="-162" rx="47.53" ry="18"/>
<text text-anchor="middle" x="1145" y="-157.32" font-family="Times,serif" font-size="14.00" fill="white">gudhi ✓</text>
</a>
</g>
</g>
<!-- mpc&#45;&gt;gudhi -->
<g id="edge23" class="edge">
<title>mpc&#45;&gt;gudhi</title>
<path fill="none" stroke="black" d="M1164.25,-359.92C1167.7,-330.33 1173,-267.78 1164,-216 1162.52,-207.49 1159.8,-198.54 1156.87,-190.47"/>
<polygon fill="black" stroke="black" points="1160.14,-189.23 1153.25,-181.19 1153.62,-191.78 1160.14,-189.23"/>
</g>
<!-- wildmeshing -->
<g id="node15" class="node">
<title>wildmeshing</title>
<g id="a_node15"><a xlink:href="https://github.com/conda-forge/wildmeshing-feedstock/pull/24" xlink:title="wildmeshing ❎">
<ellipse fill="#31688e" stroke="black" cx="1141" cy="-90" rx="90.14" ry="18"/>
<text text-anchor="middle" x="1141" y="-85.33" font-family="Times,serif" font-size="14.00" fill="white">wildmeshing ❎</text>
</a>
</g>
</g>
<!-- mpc&#45;&gt;wildmeshing -->
<g id="edge24" class="edge">
<title>mpc&#45;&gt;wildmeshing</title>
<path fill="none" stroke="black" d="M1171.33,-360.05C1191.82,-320.39 1236.31,-219.25 1202,-144 1196.74,-132.47 1187.6,-122.47 1177.97,-114.37"/>
<polygon fill="black" stroke="black" points="1180.32,-111.77 1170.28,-108.4 1176.03,-117.29 1180.32,-111.77"/>
</g>
<!-- ifcopenshell -->
<g id="node16" class="node">
<title>ifcopenshell</title>
<g id="a_node16"><a xlink:href="https://github.com/conda-forge/ifcopenshell-feedstock/pull/52" xlink:title="ifcopenshell ❎">
<ellipse fill="#31688e" stroke="black" cx="1259" cy="-18" rx="86.46" ry="18"/>
<text text-anchor="middle" x="1259" y="-13.32" font-family="Times,serif" font-size="14.00" fill="white">ifcopenshell ❎</text>
</a>
</g>
</g>
<!-- mpc&#45;&gt;ifcopenshell -->
<g id="edge25" class="edge">
<title>mpc&#45;&gt;ifcopenshell</title>
<path fill="none" stroke="black" d="M1179.6,-360.88C1189.3,-351.08 1200.8,-337.83 1208,-324 1256.15,-231.5 1260.59,-103.77 1259.93,-47.53"/>
<polygon fill="black" stroke="black" points="1263.44,-47.79 1259.75,-37.86 1256.44,-47.93 1263.44,-47.79"/>
</g>
<!-- gnuradio -->
<g id="node17" class="node">
<title>gnuradio</title>
<g id="a_node17"><a xlink:href="https://github.com/conda-forge/gnuradio-feedstock/pull/276" xlink:title="gnuradio ❎">
<ellipse fill="#31688e" stroke="black" cx="1357" cy="-306" rx="71.2" ry="18"/>
<text text-anchor="middle" x="1357" y="-301.32" font-family="Times,serif" font-size="14.00" fill="white">gnuradio ❎</text>
</a>
</g>
</g>
<!-- mpc&#45;&gt;gnuradio -->
<g id="edge26" class="edge">
<title>mpc&#45;&gt;gnuradio</title>
<path fill="none" stroke="black" d="M1195.52,-364.97C1226.11,-353.98 1271.75,-337.6 1306.71,-325.05"/>
<polygon fill="black" stroke="black" points="1307.54,-328.47 1315.77,-321.8 1305.17,-321.89 1307.54,-328.47"/>
</g>
<!-- scikit&#45;geometry -->
<g id="node18" class="node">
<title>scikit&#45;geometry</title>
<g id="a_node18"><a xlink:href="https://github.com/conda-forge/scikit-geometry-feedstock" xlink:title="scikit geometry">
<ellipse fill="#ff8c00" stroke="black" cx="1377" cy="-234" rx="89.09" ry="18"/>
<text text-anchor="middle" x="1377" y="-229.32" font-family="Times,serif" font-size="14.00">scikit geometry</text>
</a>
</g>
</g>
<!-- mpc&#45;&gt;scikit&#45;geometry -->
<g id="edge27" class="edge">
<title>mpc&#45;&gt;scikit&#45;geometry</title>
<path fill="none" stroke="black" d="M1209.13,-374.91C1279.97,-370.68 1408.64,-358.35 1437,-324 1454.21,-303.16 1432.66,-277.37 1410.75,-258.93"/>
<polygon fill="black" stroke="black" points="1412.96,-256.21 1402.96,-252.7 1408.59,-261.68 1412.96,-256.21"/>
</g>
<!-- pygalmesh -->
<g id="node19" class="node">
<title>pygalmesh</title>
<g id="a_node19"><a xlink:href="https://github.com/conda-forge/pygalmesh-feedstock/pull/34" xlink:title="pygalmesh ❎">
<ellipse fill="#31688e" stroke="black" cx="1423" cy="-162" rx="80.67" ry="18"/>
<text text-anchor="middle" x="1423" y="-157.32" font-family="Times,serif" font-size="14.00" fill="white">pygalmesh ❎</text>
</a>
</g>
</g>
<!-- mpc&#45;&gt;pygalmesh -->
<g id="edge28" class="edge">
<title>mpc&#45;&gt;pygalmesh</title>
<path fill="none" stroke="black" d="M1209.05,-374.37C1282.24,-369.34 1418.64,-355.86 1454,-324 1490.33,-291.27 1493.5,-261.27 1475,-216 1470.57,-205.17 1462.75,-195.36 1454.5,-187.2"/>
<polygon fill="black" stroke="black" points="1457.07,-184.81 1447.33,-180.65 1452.34,-189.98 1457.07,-184.81"/>
</g>
<!-- compas_cgal -->
<g id="node20" class="node">
<title>compas_cgal</title>
<g id="a_node20"><a xlink:href="https://github.com/conda-forge/compas_cgal-feedstock/pull/26" xlink:title="compas_cgal ❎">
<ellipse fill="#31688e" stroke="black" cx="1452" cy="-90" rx="89.61" ry="18"/>
<text text-anchor="middle" x="1452" y="-85.33" font-family="Times,serif" font-size="14.00" fill="white">compas_cgal ❎</text>
</a>
</g>
</g>
<!-- mpc&#45;&gt;compas_cgal -->
<g id="edge29" class="edge">
<title>mpc&#45;&gt;compas_cgal</title>
<path fill="none" stroke="black" d="M1209.46,-375.45C1288.61,-371.86 1442.69,-360.29 1481,-324 1539.99,-268.12 1546.7,-217.93 1513,-144 1507.74,-132.47 1498.6,-122.47 1488.97,-114.37"/>
<polygon fill="black" stroke="black" points="1491.32,-111.77 1481.28,-108.4 1487.03,-117.29 1491.32,-111.77"/>
</g>
<!-- imp -->
<g id="node21" class="node">
<title>imp</title>
<g id="a_node21"><a xlink:href="https://github.com/conda-forge/imp-feedstock" xlink:title="imp">
<ellipse fill="#35b779" stroke="black" cx="1570" cy="-18" rx="30.16" ry="18"/>
<text text-anchor="middle" x="1570" y="-13.32" font-family="Times,serif" font-size="14.00">imp</text>
</a>
</g>
</g>
<!-- mpc&#45;&gt;imp -->
<g id="edge31" class="edge">
<title>mpc&#45;&gt;imp</title>
<path fill="none" stroke="black" d="M1209.03,-374.48C1292.13,-369.28 1460.82,-355.14 1510,-324 1550.31,-298.48 1570,-282.7 1570,-235 1570,-235 1570,-235 1570,-161 1570,-121.74 1570,-76.38 1570,-47.69"/>
<polygon fill="black" stroke="black" points="1573.5,-48 1570,-38 1566.5,-48 1573.5,-48"/>
</g>
<!-- gmpxxll -->
<g id="node22" class="node">
<title>gmpxxll</title>
<g id="a_node22"><a xlink:href="https://github.com/conda-forge/gmpxxll-feedstock" xlink:title="gmpxxll">
<ellipse fill="#35b779" stroke="black" cx="1649" cy="-306" rx="51.21" ry="18"/>
<text text-anchor="middle" x="1649" y="-301.32" font-family="Times,serif" font-size="14.00">gmpxxll</text>
</a>
</g>
</g>
<!-- mpc&#45;&gt;gmpxxll -->
<g id="edge32" class="edge">
<title>mpc&#45;&gt;gmpxxll</title>
<path fill="none" stroke="black" d="M1208.21,-373.19C1286.17,-366.32 1448.6,-350.09 1584,-324 1588.9,-323.06 1593.98,-321.95 1599.04,-320.77"/>
<polygon fill="black" stroke="black" points="1599.65,-324.22 1608.54,-318.44 1597.99,-317.42 1599.65,-324.22"/>
</g>
<!-- spam -->
<g id="node23" class="node">
<title>spam</title>
<g id="a_node23"><a xlink:href="https://github.com/conda-forge/spam-feedstock" xlink:title="spam">
<ellipse fill="#35b779" stroke="black" cx="1714" cy="-234" rx="38.06" ry="18"/>
<text text-anchor="middle" x="1714" y="-229.32" font-family="Times,serif" font-size="14.00">spam</text>
</a>
</g>
</g>
<!-- mpc&#45;&gt;spam -->
<g id="edge33" class="edge">
<title>mpc&#45;&gt;spam</title>
<path fill="none" stroke="black" d="M1209.31,-375.87C1335.82,-372.38 1674.68,-359.74 1709,-324 1724.07,-308.3 1724.1,-283 1721.05,-263.38"/>
<polygon fill="black" stroke="black" points="1724.54,-262.96 1719.22,-253.8 1717.66,-264.28 1724.54,-262.96"/>
</g>
<!-- pycolmap -->
<g id="node24" class="node">
<title>pycolmap</title>
<g id="a_node24"><a xlink:href="https://github.com/conda-forge/pycolmap-feedstock" xlink:title="pycolmap">
<ellipse fill="#35b779" stroke="black" cx="1780" cy="-162" rx="59.1" ry="18"/>
<text text-anchor="middle" x="1780" y="-157.32" font-family="Times,serif" font-size="14.00">pycolmap</text>
</a>
</g>
</g>
<!-- mpc&#45;&gt;pycolmap -->
<g id="edge34" class="edge">
<title>mpc&#45;&gt;pycolmap</title>
<path fill="none" stroke="black" d="M1209.46,-375.29C1338.2,-370.27 1687.19,-354.03 1729,-324 1770.9,-293.9 1779.3,-229.12 1780.45,-191.55"/>
<polygon fill="black" stroke="black" points="1783.94,-191.95 1780.58,-181.9 1776.94,-191.85 1783.94,-191.95"/>
</g>
<!-- pygplates -->
<g id="node25" class="node">
<title>pygplates</title>
<g id="a_node25"><a xlink:href="https://github.com/conda-forge/pygplates-feedstock" xlink:title="pygplates">
<ellipse fill="#35b779" stroke="black" cx="1867" cy="-90" rx="60.15" ry="18"/>
<text text-anchor="middle" x="1867" y="-85.33" font-family="Times,serif" font-size="14.00">pygplates</text>
</a>
</g>
</g>
<!-- mpc&#45;&gt;pygplates -->
<g id="edge35" class="edge">
<title>mpc&#45;&gt;pygplates</title>
<path fill="none" stroke="black" d="M1209.17,-375.19C1341.68,-369.78 1710.64,-352.3 1757,-324 1829.99,-279.44 1855.31,-171.5 1863.45,-119.68"/>
<polygon fill="black" stroke="black" points="1866.91,-120.26 1864.88,-109.87 1859.98,-119.26 1866.91,-120.26"/>
</g>
</g>
</svg>
