<?xml version="1.0" encoding="UTF-8" standalone="no"?>
<!DOCTYPE svg PUBLIC "-//W3C//DTD SVG 1.1//EN"
 "http://www.w3.org/Graphics/SVG/1.1/DTD/svg11.dtd">
<!-- Generated by graphviz version 12.0.0 (20240803.0821)
 -->
<!-- Pages: 1 -->
<svg width="1618pt" height="404pt"
 viewBox="0.00 0.00 1617.70 404.00" xmlns="http://www.w3.org/2000/svg" xmlns:xlink="http://www.w3.org/1999/xlink">
<g id="graph0" class="graph" transform="scale(1 1) rotate(0) translate(4 400)">
<polygon fill="white" stroke="none" points="-4,4 -4,-400 1613.7,-400 1613.7,4 -4,4"/>
<!-- gmpy2 -->
<g id="node1" class="node">
<title>gmpy2</title>
<g id="a_node1"><a xlink:href="https://github.com/conda-forge/gmpy2-feedstock/pull/41" xlink:title="gmpy2 ❎">
<ellipse fill="#31688e" stroke="black" cx="143.55" cy="-306" rx="60.68" ry="18"/>
<text text-anchor="middle" x="143.55" y="-301.32" font-family="Times,serif" font-size="14.00" fill="white">gmpy2 ❎</text>
</a>
</g>
</g>
<!-- python&#45;symengine -->
<g id="node2" class="node">
<title>python&#45;symengine</title>
<g id="a_node2"><a xlink:href="https://github.com/conda-forge/python-symengine-feedstock/pull/53" xlink:title="python symengine ❎">
<ellipse fill="#31688e" stroke="black" cx="118.55" cy="-90" rx="118.55" ry="18"/>
<text text-anchor="middle" x="118.55" y="-85.33" font-family="Times,serif" font-size="14.00" fill="white">python symengine ❎</text>
</a>
</g>
</g>
<!-- gmpy2&#45;&gt;python&#45;symengine -->
<g id="edge1" class="edge">
<title>gmpy2&#45;&gt;python&#45;symengine</title>
<path fill="none" stroke="black" d="M141.55,-287.85C137.26,-251.14 127.16,-164.66 121.88,-119.53"/>
<polygon fill="black" stroke="black" points="125.38,-119.26 120.74,-109.74 118.42,-120.07 125.38,-119.26"/>
</g>
<!-- heyoka.py -->
<g id="node3" class="node">
<title>heyoka.py</title>
<g id="a_node3"><a xlink:href="https://github.com/conda-forge/heyoka.py-feedstock" xlink:title="heyoka py">
<ellipse fill="#ff8c00" stroke="black" cx="291.55" cy="-162" rx="61.73" ry="18"/>
<text text-anchor="middle" x="291.55" y="-157.32" font-family="Times,serif" font-size="14.00">heyoka py</text>
</a>
</g>
</g>
<!-- gmpy2&#45;&gt;heyoka.py -->
<g id="edge2" class="edge">
<title>gmpy2&#45;&gt;heyoka.py</title>
<path fill="none" stroke="black" d="M145.73,-287.53C149.03,-267.91 156.99,-236.18 175.55,-216 191.52,-198.64 214.28,-186.56 235.41,-178.36"/>
<polygon fill="black" stroke="black" points="236.32,-181.75 244.52,-175.04 233.93,-175.17 236.32,-181.75"/>
</g>
<!-- igraph -->
<g id="node4" class="node">
<title>igraph</title>
<g id="a_node4"><a xlink:href="https://github.com/conda-forge/igraph-feedstock/pull/73" xlink:title="igraph ❎">
<ellipse fill="#31688e" stroke="black" cx="319.55" cy="-306" rx="59.1" ry="18"/>
<text text-anchor="middle" x="319.55" y="-301.32" font-family="Times,serif" font-size="14.00" fill="white">igraph ❎</text>
</a>
</g>
</g>
<!-- mpc -->
<g id="node5" class="node">
<title>mpc</title>
<g id="a_node5"><a xlink:href="https://github.com/conda-forge/mpc-feedstock/pull/27" xlink:title="mpc ❎">
<ellipse fill="#31688e" stroke="black" cx="863.55" cy="-378" rx="47.53" ry="18"/>
<text text-anchor="middle" x="863.55" y="-373.32" font-family="Times,serif" font-size="14.00" fill="white">mpc ❎</text>
</a>
</g>
</g>
<!-- mpc&#45;&gt;gmpy2 -->
<g id="edge3" class="edge">
<title>mpc&#45;&gt;gmpy2</title>
<path fill="none" stroke="black" d="M816.35,-375.4C709.4,-371.28 440.66,-358.12 218.55,-324 212.53,-323.07 206.27,-321.94 200.06,-320.7"/>
<polygon fill="black" stroke="black" points="200.95,-317.31 190.45,-318.68 199.52,-324.16 200.95,-317.31"/>
</g>
<!-- mpc&#45;&gt;python&#45;symengine -->
<g id="edge4" class="edge">
<title>mpc&#45;&gt;python&#45;symengine</title>
<path fill="none" stroke="black" d="M815.71,-377.49C652.42,-378.67 124.28,-378.25 73.55,-324 20.07,-266.81 70.8,-166.12 100.49,-118.03"/>
<polygon fill="black" stroke="black" points="103.42,-119.94 105.82,-109.62 97.51,-116.19 103.42,-119.94"/>
</g>
<!-- mpc&#45;&gt;heyoka.py -->
<g id="edge5" class="edge">
<title>mpc&#45;&gt;heyoka.py</title>
<path fill="none" stroke="black" d="M817.47,-372.95C741.58,-365.67 594.17,-348.79 548.55,-324 529.48,-313.64 533.97,-299.49 515.55,-288 467.59,-258.07 441.95,-281.22 393.55,-252 374.45,-240.47 375.12,-230.95 358.55,-216 347.17,-205.73 334.06,-195.11 322.47,-186.1"/>
<polygon fill="black" stroke="black" points="324.82,-183.49 314.76,-180.18 320.56,-189.05 324.82,-183.49"/>
</g>
<!-- mpc&#45;&gt;igraph -->
<g id="edge6" class="edge">
<title>mpc&#45;&gt;igraph</title>
<path fill="none" stroke="black" d="M816.97,-373.9C731.4,-367.74 543.66,-352.07 387.55,-324 382.97,-323.18 378.24,-322.22 373.51,-321.19"/>
<polygon fill="black" stroke="black" points="374.53,-317.83 364.01,-319.01 372.97,-324.65 374.53,-317.83"/>
</g>
<!-- mppp -->
<g id="node6" class="node">
<title>mppp</title>
<g id="a_node6"><a xlink:href="https://github.com/conda-forge/mppp-feedstock/pull/60" xlink:title="mppp ❎">
<ellipse fill="#31688e" stroke="black" cx="451.55" cy="-306" rx="54.89" ry="18"/>
<text text-anchor="middle" x="451.55" y="-301.32" font-family="Times,serif" font-size="14.00" fill="white">mppp ❎</text>
</a>
</g>
</g>
<!-- mpc&#45;&gt;mppp -->
<g id="edge7" class="edge">
<title>mpc&#45;&gt;mppp</title>
<path fill="none" stroke="black" d="M818.93,-371.39C753.27,-362.83 626.9,-345.27 520.55,-324 515.31,-322.95 509.86,-321.77 504.43,-320.53"/>
<polygon fill="black" stroke="black" points="505.39,-317.16 494.85,-318.28 503.79,-323.98 505.39,-317.16"/>
</g>
<!-- python&#45;igraph -->
<g id="node7" class="node">
<title>python&#45;igraph</title>
<g id="a_node7"><a xlink:href="https://github.com/conda-forge/python-igraph-feedstock/pull/90" xlink:title="python igraph ✓">
<ellipse fill="#31688e" stroke="black" cx="492.55" cy="-234" rx="89.61" ry="18"/>
<text text-anchor="middle" x="492.55" y="-229.32" font-family="Times,serif" font-size="14.00" fill="white">python igraph ✓</text>
</a>
</g>
</g>
<!-- mpc&#45;&gt;python&#45;igraph -->
<g id="edge8" class="edge">
<title>mpc&#45;&gt;python&#45;igraph</title>
<path fill="none" stroke="black" d="M816.4,-374.84C761.2,-370.73 668.19,-358.77 596.55,-324 579.44,-315.69 543.04,-282.96 518.19,-259.6"/>
<polygon fill="black" stroke="black" points="520.69,-257.16 511.02,-252.83 515.88,-262.25 520.69,-257.16"/>
</g>
<!-- symengine -->
<g id="node8" class="node">
<title>symengine</title>
<g id="a_node8"><a xlink:href="https://github.com/conda-forge/symengine-feedstock" xlink:title="symengine">
<ellipse fill="#35b779" stroke="black" cx="518.55" cy="-162" rx="65.41" ry="18"/>
<text text-anchor="middle" x="518.55" y="-157.32" font-family="Times,serif" font-size="14.00">symengine</text>
</a>
</g>
</g>
<!-- mpc&#45;&gt;symengine -->
<g id="edge9" class="edge">
<title>mpc&#45;&gt;symengine</title>
<path fill="none" stroke="black" d="M818.92,-371.63C760.37,-363.77 661.87,-347.47 634.55,-324 595.36,-290.34 623.26,-256.79 591.55,-216 582.05,-203.78 569.01,-193.1 556.58,-184.59"/>
<polygon fill="black" stroke="black" points="558.81,-181.87 548.52,-179.34 554.99,-187.73 558.81,-181.87"/>
</g>
<!-- gudhi -->
<g id="node9" class="node">
<title>gudhi</title>
<g id="a_node9"><a xlink:href="https://github.com/conda-forge/gudhi-feedstock/pull/62" xlink:title="gudhi ✓">
<ellipse fill="#31688e" stroke="black" cx="616.55" cy="-90" rx="47.53" ry="18"/>
<text text-anchor="middle" x="616.55" y="-85.33" font-family="Times,serif" font-size="14.00" fill="white">gudhi ✓</text>
</a>
</g>
</g>
<!-- mpc&#45;&gt;gudhi -->
<g id="edge10" class="edge">
<title>mpc&#45;&gt;gudhi</title>
<path fill="none" stroke="black" d="M815.84,-377.35C771.21,-375 705.84,-364.2 667.55,-324 613.84,-267.61 611.52,-168.33 614.07,-119.61"/>
<polygon fill="black" stroke="black" points="617.55,-120.08 614.7,-109.87 610.56,-119.63 617.55,-120.08"/>
</g>
<!-- wildmeshing -->
<g id="node10" class="node">
<title>wildmeshing</title>
<g id="a_node10"><a xlink:href="https://github.com/conda-forge/wildmeshing-feedstock/pull/24" xlink:title="wildmeshing ❎">
<ellipse fill="#31688e" stroke="black" cx="692.55" cy="-18" rx="90.14" ry="18"/>
<text text-anchor="middle" x="692.55" y="-13.32" font-family="Times,serif" font-size="14.00" fill="white">wildmeshing ❎</text>
</a>
</g>
</g>
<!-- mpc&#45;&gt;wildmeshing -->
<g id="edge11" class="edge">
<title>mpc&#45;&gt;wildmeshing</title>
<path fill="none" stroke="black" d="M860.66,-359.76C856.41,-339.75 846.58,-307.07 825.55,-288 786.19,-252.31 744.68,-293.54 711.55,-252 664.08,-192.47 675.98,-95.06 685.73,-47.26"/>
<polygon fill="black" stroke="black" points="689.1,-48.23 687.8,-37.71 682.26,-46.74 689.1,-48.23"/>
</g>
<!-- normaliz -->
<g id="node11" class="node">
<title>normaliz</title>
<g id="a_node11"><a xlink:href="https://github.com/conda-forge/normaliz-feedstock/pull/55" xlink:title="normaliz ❎">
<ellipse fill="#31688e" stroke="black" cx="746.55" cy="-306" rx="70.15" ry="18"/>
<text text-anchor="middle" x="746.55" y="-301.32" font-family="Times,serif" font-size="14.00" fill="white">normaliz ❎</text>
</a>
</g>
</g>
<!-- mpc&#45;&gt;normaliz -->
<g id="edge12" class="edge">
<title>mpc&#45;&gt;normaliz</title>
<path fill="none" stroke="black" d="M839.02,-362.33C822.74,-352.58 801.08,-339.63 782.82,-328.7"/>
<polygon fill="black" stroke="black" points="784.76,-325.78 774.38,-323.65 781.17,-331.79 784.76,-325.78"/>
</g>
<!-- ifcopenshell -->
<g id="node12" class="node">
<title>ifcopenshell</title>
<g id="a_node12"><a xlink:href="https://github.com/conda-forge/ifcopenshell-feedstock/pull/52" xlink:title="ifcopenshell ❎">
<ellipse fill="#31688e" stroke="black" cx="806.55" cy="-234" rx="86.46" ry="18"/>
<text text-anchor="middle" x="806.55" y="-229.32" font-family="Times,serif" font-size="14.00" fill="white">ifcopenshell ❎</text>
</a>
</g>
</g>
<!-- mpc&#45;&gt;ifcopenshell -->
<g id="edge13" class="edge">
<title>mpc&#45;&gt;ifcopenshell</title>
<path fill="none" stroke="black" d="M866.05,-359.77C867.98,-341.21 868.81,-311.22 858.55,-288 853.82,-277.3 845.91,-267.53 837.67,-259.37"/>
<polygon fill="black" stroke="black" points="840.26,-256.99 830.54,-252.79 835.52,-262.14 840.26,-256.99"/>
</g>
<!-- gnuradio -->
<g id="node13" class="node">
<title>gnuradio</title>
<g id="a_node13"><a xlink:href="https://github.com/conda-forge/gnuradio-feedstock/pull/276" xlink:title="gnuradio ❎">
<ellipse fill="#31688e" stroke="black" cx="859.55" cy="-162" rx="71.2" ry="18"/>
<text text-anchor="middle" x="859.55" y="-157.32" font-family="Times,serif" font-size="14.00" fill="white">gnuradio ❎</text>
</a>
</g>
</g>
<!-- mpc&#45;&gt;gnuradio -->
<g id="edge14" class="edge">
<title>mpc&#45;&gt;gnuradio</title>
<path fill="none" stroke="black" d="M873.67,-360.22C890.18,-330.59 919.4,-267.26 901.55,-216 898.07,-206.01 891.84,-196.49 885.23,-188.34"/>
<polygon fill="black" stroke="black" points="887.94,-186.13 878.72,-180.91 882.67,-190.74 887.94,-186.13"/>
</g>
<!-- scikit&#45;geometry -->
<g id="node14" class="node">
<title>scikit&#45;geometry</title>
<g id="a_node14"><a xlink:href="https://github.com/conda-forge/scikit-geometry-feedstock/pull/18" xlink:title="scikit geometry ❎">
<ellipse fill="#31688e" stroke="black" cx="931.55" cy="-90" rx="104.35" ry="18"/>
<text text-anchor="middle" x="931.55" y="-85.33" font-family="Times,serif" font-size="14.00" fill="white">scikit geometry ❎</text>
</a>
</g>
</g>
<!-- mpc&#45;&gt;scikit&#45;geometry -->
<g id="edge15" class="edge">
<title>mpc&#45;&gt;scikit&#45;geometry</title>
<path fill="none" stroke="black" d="M881.79,-361.07C891.78,-351.34 903.53,-338.09 910.55,-324 946.68,-251.47 945.62,-224.8 939.55,-144 938.95,-135.99 937.84,-127.35 936.64,-119.43"/>
<polygon fill="black" stroke="black" points="940.11,-118.91 935.04,-109.61 933.2,-120.04 940.11,-118.91"/>
</g>
<!-- pygalmesh -->
<g id="node15" class="node">
<title>pygalmesh</title>
<g id="a_node15"><a xlink:href="https://github.com/conda-forge/pygalmesh-feedstock/pull/34" xlink:title="pygalmesh ❎">
<ellipse fill="#31688e" stroke="black" cx="1063.55" cy="-18" rx="80.67" ry="18"/>
<text text-anchor="middle" x="1063.55" y="-13.32" font-family="Times,serif" font-size="14.00" fill="white">pygalmesh ❎</text>
</a>
</g>
</g>
<!-- mpc&#45;&gt;pygalmesh -->
<g id="edge16" class="edge">
<title>mpc&#45;&gt;pygalmesh</title>
<path fill="none" stroke="black" d="M909.82,-373.23C971.2,-367.15 1074.51,-352.84 1097.55,-324 1117.95,-298.46 1090.26,-283.77 1082.55,-252 1065.05,-179.9 1062.86,-91.95 1063.03,-47.56"/>
<polygon fill="black" stroke="black" points="1066.53,-47.79 1063.12,-37.76 1059.53,-47.73 1066.53,-47.79"/>
</g>
<!-- antic -->
<g id="node16" class="node">
<title>antic</title>
<g id="a_node16"><a xlink:href="https://github.com/conda-forge/antic-feedstock/pull/13" xlink:title="antic ❎">
<ellipse fill="#31688e" stroke="black" cx="1037.55" cy="-306" rx="51.21" ry="18"/>
<text text-anchor="middle" x="1037.55" y="-301.32" font-family="Times,serif" font-size="14.00" fill="white">antic ❎</text>
</a>
</g>
</g>
<!-- mpc&#45;&gt;antic -->
<g id="edge17" class="edge">
<title>mpc&#45;&gt;antic</title>
<path fill="none" stroke="black" d="M895.06,-364.32C922.83,-353.15 963.55,-336.77 994.35,-324.38"/>
<polygon fill="black" stroke="black" points="995.42,-327.72 1003.39,-320.74 992.81,-321.23 995.42,-327.72"/>
</g>
<!-- compas_cgal -->
<g id="node17" class="node">
<title>compas_cgal</title>
<g id="a_node17"><a xlink:href="https://github.com/conda-forge/compas_cgal-feedstock/pull/26" xlink:title="compas_cgal ❎">
<ellipse fill="#31688e" stroke="black" cx="1181.55" cy="-234" rx="89.61" ry="18"/>
<text text-anchor="middle" x="1181.55" y="-229.32" font-family="Times,serif" font-size="14.00" fill="white">compas_cgal ❎</text>
</a>
</g>
</g>
<!-- mpc&#45;&gt;compas_cgal -->
<g id="edge18" class="edge">
<title>mpc&#45;&gt;compas_cgal</title>
<path fill="none" stroke="black" d="M909.38,-372.51C976.07,-365.21 1095.73,-349.03 1130.55,-324 1151.2,-309.16 1164.68,-283.19 1172.56,-263.12"/>
<polygon fill="black" stroke="black" points="1175.82,-264.42 1175.96,-253.82 1169.24,-262.02 1175.82,-264.42"/>
</g>
<!-- heyoka -->
<g id="node18" class="node">
<title>heyoka</title>
<g id="a_node18"><a xlink:href="https://github.com/conda-forge/heyoka-feedstock/pull/70" xlink:title="heyoka ❎">
<ellipse fill="#31688e" stroke="black" cx="246.55" cy="-234" rx="61.73" ry="18"/>
<text text-anchor="middle" x="246.55" y="-229.32" font-family="Times,serif" font-size="14.00" fill="white">heyoka ❎</text>
</a>
</g>
</g>
<!-- mpc&#45;&gt;heyoka -->
<g id="edge19" class="edge">
<title>mpc&#45;&gt;heyoka</title>
<path fill="none" stroke="black" d="M816.13,-376.39C679.23,-374.15 290.63,-364.28 251.55,-324 236.4,-308.38 236.38,-283.07 239.45,-263.42"/>
<polygon fill="black" stroke="black" points="242.84,-264.31 241.3,-253.83 235.97,-262.99 242.84,-264.31"/>
</g>
<!-- imp -->
<g id="node19" class="node">
<title>imp</title>
<g id="a_node19"><a xlink:href="https://github.com/conda-forge/imp-feedstock" xlink:title="imp">
<ellipse fill="#ff8c00" stroke="black" cx="1279.55" cy="-162" rx="30.16" ry="18"/>
<text text-anchor="middle" x="1279.55" y="-157.32" font-family="Times,serif" font-size="14.00">imp</text>
</a>
</g>
</g>
<!-- mpc&#45;&gt;imp -->
<g id="edge20" class="edge">
<title>mpc&#45;&gt;imp</title>
<path fill="none" stroke="black" d="M910.29,-373.83C969.81,-368.63 1075.05,-355.51 1159.55,-324 1218.18,-302.13 1249.62,-306.4 1280.55,-252 1290.95,-233.71 1290.01,-209.69 1286.84,-191.22"/>
<polygon fill="black" stroke="black" points="1290.28,-190.57 1284.84,-181.48 1283.42,-191.98 1290.28,-190.57"/>
</g>
<!-- gmpxxll -->
<g id="node20" class="node">
<title>gmpxxll</title>
<g id="a_node20"><a xlink:href="https://github.com/conda-forge/gmpxxll-feedstock/pull/1" xlink:title="gmpxxll ❎">
<ellipse fill="#31688e" stroke="black" cx="1281.55" cy="-90" rx="66.47" ry="18"/>
<text text-anchor="middle" x="1281.55" y="-85.33" font-family="Times,serif" font-size="14.00" fill="white">gmpxxll ❎</text>
</a>
</g>
</g>
<!-- mpc&#45;&gt;gmpxxll -->
<g id="edge21" class="edge">
<title>mpc&#45;&gt;gmpxxll</title>
<path fill="none" stroke="black" d="M909.85,-373.42C993.16,-366.43 1164.65,-349.41 1218.55,-324 1289.03,-290.78 1308.03,-257.2 1318.55,-180 1320.71,-164.15 1323.35,-159.26 1318.55,-144 1315.5,-134.31 1309.98,-124.84 1304.12,-116.65"/>
<polygon fill="black" stroke="black" points="1307.01,-114.67 1298.13,-108.88 1301.46,-118.94 1307.01,-114.67"/>
</g>
<!-- spam -->
<g id="node21" class="node">
<title>spam</title>
<g id="a_node21"><a xlink:href="https://github.com/conda-forge/spam-feedstock" xlink:title="spam">
<ellipse fill="#ff8c00" stroke="black" cx="1375.55" cy="-18" rx="38.06" ry="18"/>
<text text-anchor="middle" x="1375.55" y="-13.32" font-family="Times,serif" font-size="14.00">spam</text>
</a>
</g>
</g>
<!-- mpc&#45;&gt;spam -->
<g id="edge22" class="edge">
<title>mpc&#45;&gt;spam</title>
<path fill="none" stroke="black" d="M910,-373.8C1000.53,-367.07 1197.18,-349.91 1259.55,-324 1319.56,-299.07 1375.55,-299.98 1375.55,-235 1375.55,-235 1375.55,-235 1375.55,-161 1375.55,-121.74 1375.55,-76.38 1375.55,-47.69"/>
<polygon fill="black" stroke="black" points="1379.05,-48 1375.55,-38 1372.05,-48 1379.05,-48"/>
</g>
<!-- pycolmap -->
<g id="node22" class="node">
<title>pycolmap</title>
<g id="a_node22"><a xlink:href="https://github.com/conda-forge/pycolmap-feedstock" xlink:title="pycolmap">
<ellipse fill="#35b779" stroke="black" cx="1462.55" cy="-306" rx="59.1" ry="18"/>
<text text-anchor="middle" x="1462.55" y="-301.32" font-family="Times,serif" font-size="14.00">pycolmap</text>
</a>
</g>
</g>
<!-- mpc&#45;&gt;pycolmap -->
<g id="edge23" class="edge">
<title>mpc&#45;&gt;pycolmap</title>
<path fill="none" stroke="black" d="M910.26,-374.31C1002.4,-368.57 1213.9,-353.18 1389.55,-324 1395.26,-323.05 1401.19,-321.92 1407.09,-320.7"/>
<polygon fill="black" stroke="black" points="1407.83,-324.12 1416.86,-318.58 1406.35,-317.28 1407.83,-324.12"/>
</g>
<!-- pygplates -->
<g id="node23" class="node">
<title>pygplates</title>
<g id="a_node23"><a xlink:href="https://github.com/conda-forge/pygplates-feedstock" xlink:title="pygplates">
<ellipse fill="#35b779" stroke="black" cx="1549.55" cy="-234" rx="60.15" ry="18"/>
<text text-anchor="middle" x="1549.55" y="-229.32" font-family="Times,serif" font-size="14.00">pygplates</text>
</a>
</g>
</g>
<!-- mpc&#45;&gt;pygplates -->
<g id="edge24" class="edge">
<title>mpc&#45;&gt;pygplates</title>
<path fill="none" stroke="black" d="M911.27,-376.45C1056.21,-374.32 1484.21,-364.64 1530.55,-324 1547.35,-309.27 1551.39,-283.64 1551.64,-263.66"/>
<polygon fill="black" stroke="black" points="1555.14,-263.82 1551.43,-253.9 1548.14,-263.97 1555.14,-263.82"/>
</g>
<!-- mppp&#45;&gt;heyoka.py -->
<g id="edge25" class="edge">
<title>mppp&#45;&gt;heyoka.py</title>
<path fill="none" stroke="black" d="M420.54,-290.72C401.97,-281.29 378.57,-267.78 360.55,-252 339.73,-233.76 320.84,-208.48 308.11,-189.52"/>
<polygon fill="black" stroke="black" points="311.1,-187.71 302.7,-181.26 305.25,-191.54 311.1,-187.71"/>
</g>
<!-- mppp&#45;&gt;heyoka -->
<g id="edge26" class="edge">
<title>mppp&#45;&gt;heyoka</title>
<path fill="none" stroke="black" d="M414.43,-292.32C381.39,-281.04 332.79,-264.45 296.37,-252.01"/>
<polygon fill="black" stroke="black" points="297.52,-248.7 286.92,-248.79 295.26,-255.33 297.52,-248.7"/>
</g>
<!-- symengine&#45;&gt;python&#45;symengine -->
<g id="edge27" class="edge">
<title>symengine&#45;&gt;python&#45;symengine</title>
<path fill="none" stroke="black" d="M464.61,-151.56C398.01,-139.9 283.9,-119.94 205.02,-106.13"/>
<polygon fill="black" stroke="black" points="206.07,-102.76 195.62,-104.49 204.87,-109.66 206.07,-102.76"/>
</g>
<!-- heyoka&#45;&gt;heyoka.py -->
<g id="edge28" class="edge">
<title>heyoka&#45;&gt;heyoka.py</title>
<path fill="none" stroke="black" d="M257.44,-216.05C262.59,-208.06 268.84,-198.33 274.58,-189.4"/>
<polygon fill="black" stroke="black" points="277.48,-191.37 279.94,-181.06 271.59,-187.58 277.48,-191.37"/>
</g>
</g>
</svg>
