<?xml version="1.0" encoding="UTF-8" standalone="no"?>
<!DOCTYPE svg PUBLIC "-//W3C//DTD SVG 1.1//EN"
 "http://www.w3.org/Graphics/SVG/1.1/DTD/svg11.dtd">
<!-- Generated by graphviz version 12.0.0 (20240803.0821)
 -->
<!-- Pages: 1 -->
<svg width="1683pt" height="404pt"
 viewBox="0.00 0.00 1682.78 404.00" xmlns="http://www.w3.org/2000/svg" xmlns:xlink="http://www.w3.org/1999/xlink">
<g id="graph0" class="graph" transform="scale(1 1) rotate(0) translate(4 400)">
<polygon fill="white" stroke="none" points="-4,4 -4,-400 1678.78,-400 1678.78,4 -4,4"/>
<!-- arb -->
<g id="node1" class="node">
<title>arb</title>
<g id="a_node1"><a xlink:href="https://github.com/conda-forge/arb-feedstock/pull/36" xlink:title="arb ❎">
<ellipse fill="#31688e" stroke="black" cx="98.63" cy="-306" rx="43.32" ry="18"/>
<text text-anchor="middle" x="98.63" y="-301.32" font-family="Times,serif" font-size="14.00" fill="white">arb ❎</text>
</a>
</g>
</g>
<!-- mppp -->
<g id="node2" class="node">
<title>mppp</title>
<g id="a_node2"><a xlink:href="https://github.com/conda-forge/mppp-feedstock/pull/60" xlink:title="mppp ❎">
<ellipse fill="#31688e" stroke="black" cx="79.63" cy="-234" rx="54.89" ry="18"/>
<text text-anchor="middle" x="79.63" y="-229.32" font-family="Times,serif" font-size="14.00" fill="white">mppp ❎</text>
</a>
</g>
</g>
<!-- arb&#45;&gt;mppp -->
<g id="edge1" class="edge">
<title>arb&#45;&gt;mppp</title>
<path fill="none" stroke="black" d="M93.93,-287.7C91.91,-280.24 89.49,-271.32 87.22,-262.97"/>
<polygon fill="black" stroke="black" points="90.67,-262.3 84.67,-253.57 83.91,-264.13 90.67,-262.3"/>
</g>
<!-- heyoka.py -->
<g id="node3" class="node">
<title>heyoka.py</title>
<g id="a_node3"><a xlink:href="https://github.com/conda-forge/heyoka.py-feedstock" xlink:title="heyoka py">
<ellipse fill="#ff8c00" stroke="black" cx="72.63" cy="-90" rx="61.73" ry="18"/>
<text text-anchor="middle" x="72.63" y="-85.33" font-family="Times,serif" font-size="14.00">heyoka py</text>
</a>
</g>
</g>
<!-- mppp&#45;&gt;heyoka.py -->
<g id="edge2" class="edge">
<title>mppp&#45;&gt;heyoka.py</title>
<path fill="none" stroke="black" d="M65.99,-216.5C58.69,-206.59 50.44,-193.34 46.63,-180 42.23,-164.62 43.01,-159.59 46.63,-144 48.69,-135.11 52.46,-126 56.5,-117.89"/>
<polygon fill="black" stroke="black" points="59.5,-119.72 61.14,-109.25 53.33,-116.41 59.5,-119.72"/>
</g>
<!-- heyoka -->
<g id="node4" class="node">
<title>heyoka</title>
<g id="a_node4"><a xlink:href="https://github.com/conda-forge/heyoka-feedstock/pull/70" xlink:title="heyoka ❎">
<ellipse fill="#31688e" stroke="black" cx="117.63" cy="-162" rx="61.73" ry="18"/>
<text text-anchor="middle" x="117.63" y="-157.32" font-family="Times,serif" font-size="14.00" fill="white">heyoka ❎</text>
</a>
</g>
</g>
<!-- mppp&#45;&gt;heyoka -->
<g id="edge3" class="edge">
<title>mppp&#45;&gt;heyoka</title>
<path fill="none" stroke="black" d="M88.83,-216.05C93.01,-208.35 98.07,-199.03 102.77,-190.36"/>
<polygon fill="black" stroke="black" points="105.83,-192.06 107.53,-181.61 99.68,-188.72 105.83,-192.06"/>
</g>
<!-- heyoka&#45;&gt;heyoka.py -->
<g id="edge29" class="edge">
<title>heyoka&#45;&gt;heyoka.py</title>
<path fill="none" stroke="black" d="M106.74,-144.05C101.6,-136.06 95.34,-126.33 89.6,-117.4"/>
<polygon fill="black" stroke="black" points="92.59,-115.58 84.24,-109.06 86.7,-119.37 92.59,-115.58"/>
</g>
<!-- gmpy2 -->
<g id="node5" class="node">
<title>gmpy2</title>
<g id="a_node5"><a xlink:href="https://github.com/conda-forge/gmpy2-feedstock/pull/41" xlink:title="gmpy2 ❎">
<ellipse fill="#31688e" stroke="black" cx="354.63" cy="-306" rx="60.68" ry="18"/>
<text text-anchor="middle" x="354.63" y="-301.32" font-family="Times,serif" font-size="14.00" fill="white">gmpy2 ❎</text>
</a>
</g>
</g>
<!-- gmpy2&#45;&gt;heyoka.py -->
<g id="edge5" class="edge">
<title>gmpy2&#45;&gt;heyoka.py</title>
<path fill="none" stroke="black" d="M305.57,-294.99C279.05,-287.29 247.55,-274.09 226.63,-252 191.64,-215.06 222.95,-181.57 188.63,-144 172.72,-126.59 149.97,-114.49 128.83,-106.3"/>
<polygon fill="black" stroke="black" points="130.31,-103.11 119.71,-102.99 127.92,-109.69 130.31,-103.11"/>
</g>
<!-- python&#45;symengine -->
<g id="node6" class="node">
<title>python&#45;symengine</title>
<g id="a_node6"><a xlink:href="https://github.com/conda-forge/python-symengine-feedstock/pull/53" xlink:title="python symengine ❎">
<ellipse fill="#31688e" stroke="black" cx="354.63" cy="-234" rx="118.55" ry="18"/>
<text text-anchor="middle" x="354.63" y="-229.32" font-family="Times,serif" font-size="14.00" fill="white">python symengine ❎</text>
</a>
</g>
</g>
<!-- gmpy2&#45;&gt;python&#45;symengine -->
<g id="edge4" class="edge">
<title>gmpy2&#45;&gt;python&#45;symengine</title>
<path fill="none" stroke="black" d="M354.63,-287.7C354.63,-280.41 354.63,-271.73 354.63,-263.54"/>
<polygon fill="black" stroke="black" points="358.13,-263.62 354.63,-253.62 351.13,-263.62 358.13,-263.62"/>
</g>
<!-- igraph -->
<g id="node7" class="node">
<title>igraph</title>
<g id="a_node7"><a xlink:href="https://github.com/conda-forge/igraph-feedstock/pull/73" xlink:title="igraph ❎">
<ellipse fill="#31688e" stroke="black" cx="550.63" cy="-234" rx="59.1" ry="18"/>
<text text-anchor="middle" x="550.63" y="-229.32" font-family="Times,serif" font-size="14.00" fill="white">igraph ❎</text>
</a>
</g>
</g>
<!-- mpc -->
<g id="node8" class="node">
<title>mpc</title>
<g id="a_node8"><a xlink:href="https://github.com/conda-forge/mpc-feedstock/pull/27" xlink:title="mpc ❎">
<ellipse fill="#31688e" stroke="black" cx="949.63" cy="-378" rx="47.53" ry="18"/>
<text text-anchor="middle" x="949.63" y="-373.32" font-family="Times,serif" font-size="14.00" fill="white">mpc ❎</text>
</a>
</g>
</g>
<!-- mpc&#45;&gt;arb -->
<g id="edge6" class="edge">
<title>mpc&#45;&gt;arb</title>
<path fill="none" stroke="black" d="M901.75,-377.5C777.5,-378.01 435.04,-374.34 155.63,-324 151.29,-323.22 146.82,-322.23 142.38,-321.11"/>
<polygon fill="black" stroke="black" points="143.51,-317.8 132.94,-318.55 141.68,-324.55 143.51,-317.8"/>
</g>
<!-- mpc&#45;&gt;mppp -->
<g id="edge7" class="edge">
<title>mpc&#45;&gt;mppp</title>
<path fill="none" stroke="black" d="M901.91,-375.99C719.65,-371.92 76.21,-355.37 46.63,-324 30.11,-306.48 43.19,-279.98 57.47,-260.44"/>
<polygon fill="black" stroke="black" points="60.14,-262.72 63.52,-252.68 54.61,-258.41 60.14,-262.72"/>
</g>
<!-- mpc&#45;&gt;heyoka.py -->
<g id="edge10" class="edge">
<title>mpc&#45;&gt;heyoka.py</title>
<path fill="none" stroke="black" d="M901.81,-377.43C723.39,-378.58 103.32,-378.61 35.63,-324 -26.65,-273.75 5.59,-216.42 39.63,-144 43.83,-135.07 49.21,-125.8 54.4,-117.54"/>
<polygon fill="black" stroke="black" points="57.21,-119.64 59.73,-109.35 51.35,-115.83 57.21,-119.64"/>
</g>
<!-- mpc&#45;&gt;heyoka -->
<g id="edge23" class="edge">
<title>mpc&#45;&gt;heyoka</title>
<path fill="none" stroke="black" d="M901.84,-377.17C768.63,-377.01 395.66,-372.17 284.63,-324 217.99,-295.09 162.35,-226.99 135.29,-189.28"/>
<polygon fill="black" stroke="black" points="138.22,-187.35 129.6,-181.18 132.49,-191.38 138.22,-187.35"/>
</g>
<!-- mpc&#45;&gt;gmpy2 -->
<g id="edge8" class="edge">
<title>mpc&#45;&gt;gmpy2</title>
<path fill="none" stroke="black" d="M903.74,-372.67C817.56,-364.39 625.65,-345.23 464.63,-324 449.44,-322 433.12,-319.61 417.81,-317.26"/>
<polygon fill="black" stroke="black" points="418.79,-313.87 408.37,-315.79 417.72,-320.78 418.79,-313.87"/>
</g>
<!-- mpc&#45;&gt;python&#45;symengine -->
<g id="edge9" class="edge">
<title>mpc&#45;&gt;python&#45;symengine</title>
<path fill="none" stroke="black" d="M903.08,-373.85C832.25,-368.27 693.62,-354.26 579.63,-324 515.17,-306.89 444.12,-276.77 399.45,-256.36"/>
<polygon fill="black" stroke="black" points="401.15,-253.29 390.6,-252.28 398.22,-259.65 401.15,-253.29"/>
</g>
<!-- mpc&#45;&gt;igraph -->
<g id="edge11" class="edge">
<title>mpc&#45;&gt;igraph</title>
<path fill="none" stroke="black" d="M903.36,-373.51C825.08,-366.96 670.46,-350.97 623.63,-324 598.3,-309.41 578.08,-282.43 565.4,-261.99"/>
<polygon fill="black" stroke="black" points="568.52,-260.39 560.41,-253.58 562.51,-263.97 568.52,-260.39"/>
</g>
<!-- python&#45;igraph -->
<g id="node9" class="node">
<title>python&#45;igraph</title>
<g id="a_node9"><a xlink:href="https://github.com/conda-forge/python-igraph-feedstock/pull/90" xlink:title="python igraph ✓">
<ellipse fill="#31688e" stroke="black" cx="557.63" cy="-162" rx="89.61" ry="18"/>
<text text-anchor="middle" x="557.63" y="-157.32" font-family="Times,serif" font-size="14.00" fill="white">python igraph ✓</text>
</a>
</g>
</g>
<!-- mpc&#45;&gt;python&#45;igraph -->
<g id="edge12" class="edge">
<title>mpc&#45;&gt;python&#45;igraph</title>
<path fill="none" stroke="black" d="M902.98,-373.84C831.11,-368.1 697.84,-353.7 661.63,-324 621.68,-291.24 648.53,-258.13 618.63,-216 610.98,-205.23 600.71,-195.21 590.77,-186.84"/>
<polygon fill="black" stroke="black" points="593,-184.14 583.01,-180.61 588.61,-189.6 593,-184.14"/>
</g>
<!-- gudhi -->
<g id="node10" class="node">
<title>gudhi</title>
<g id="a_node10"><a xlink:href="https://github.com/conda-forge/gudhi-feedstock/pull/62" xlink:title="gudhi ✓">
<ellipse fill="#31688e" stroke="black" cx="637.63" cy="-90" rx="47.53" ry="18"/>
<text text-anchor="middle" x="637.63" y="-85.33" font-family="Times,serif" font-size="14.00" fill="white">gudhi ✓</text>
</a>
</g>
</g>
<!-- mpc&#45;&gt;gudhi -->
<g id="edge13" class="edge">
<title>mpc&#45;&gt;gudhi</title>
<path fill="none" stroke="black" d="M903.37,-373.05C839.27,-366.63 728.1,-351.76 699.63,-324 640.73,-266.59 680.1,-222.83 656.63,-144 654.17,-135.72 651.14,-126.84 648.23,-118.77"/>
<polygon fill="black" stroke="black" points="651.54,-117.62 644.8,-109.45 644.97,-120.04 651.54,-117.62"/>
</g>
<!-- python&#45;flint -->
<g id="node11" class="node">
<title>python&#45;flint</title>
<g id="a_node11"><a xlink:href="https://github.com/conda-forge/python-flint-feedstock/pull/40" xlink:title="python flint ❎">
<ellipse fill="#31688e" stroke="black" cx="713.63" cy="-18" rx="84.35" ry="18"/>
<text text-anchor="middle" x="713.63" y="-13.32" font-family="Times,serif" font-size="14.00" fill="white">python flint ❎</text>
</a>
</g>
</g>
<!-- mpc&#45;&gt;python&#45;flint -->
<g id="edge14" class="edge">
<title>mpc&#45;&gt;python&#45;flint</title>
<path fill="none" stroke="black" d="M904.82,-371.69C848.47,-364.08 756.2,-348.27 732.63,-324 704.45,-294.98 713.63,-275.45 713.63,-235 713.63,-235 713.63,-235 713.63,-161 713.63,-121.74 713.63,-76.38 713.63,-47.69"/>
<polygon fill="black" stroke="black" points="717.13,-48 713.63,-38 710.13,-48 717.13,-48"/>
</g>
<!-- wildmeshing -->
<g id="node12" class="node">
<title>wildmeshing</title>
<g id="a_node12"><a xlink:href="https://github.com/conda-forge/wildmeshing-feedstock/pull/24" xlink:title="wildmeshing ❎">
<ellipse fill="#31688e" stroke="black" cx="831.63" cy="-306" rx="90.14" ry="18"/>
<text text-anchor="middle" x="831.63" y="-301.32" font-family="Times,serif" font-size="14.00" fill="white">wildmeshing ❎</text>
</a>
</g>
</g>
<!-- mpc&#45;&gt;wildmeshing -->
<g id="edge15" class="edge">
<title>mpc&#45;&gt;wildmeshing</title>
<path fill="none" stroke="black" d="M924.89,-362.33C908.7,-352.72 887.23,-339.99 868.98,-329.16"/>
<polygon fill="black" stroke="black" points="870.91,-326.23 860.53,-324.14 867.34,-332.25 870.91,-326.23"/>
</g>
<!-- normaliz -->
<g id="node13" class="node">
<title>normaliz</title>
<g id="a_node13"><a xlink:href="https://github.com/conda-forge/normaliz-feedstock/pull/55" xlink:title="normaliz ❎">
<ellipse fill="#31688e" stroke="black" cx="889.63" cy="-234" rx="70.15" ry="18"/>
<text text-anchor="middle" x="889.63" y="-229.32" font-family="Times,serif" font-size="14.00" fill="white">normaliz ❎</text>
</a>
</g>
</g>
<!-- mpc&#45;&gt;normaliz -->
<g id="edge16" class="edge">
<title>mpc&#45;&gt;normaliz</title>
<path fill="none" stroke="black" d="M948.22,-359.55C946.21,-341.06 941.47,-311.36 930.63,-288 926.15,-278.34 919.63,-268.81 913.1,-260.55"/>
<polygon fill="black" stroke="black" points="915.9,-258.44 906.81,-253 910.52,-262.92 915.9,-258.44"/>
</g>
<!-- ifcopenshell -->
<g id="node14" class="node">
<title>ifcopenshell</title>
<g id="a_node14"><a xlink:href="https://github.com/conda-forge/ifcopenshell-feedstock/pull/52" xlink:title="ifcopenshell ❎">
<ellipse fill="#31688e" stroke="black" cx="911.63" cy="-162" rx="86.46" ry="18"/>
<text text-anchor="middle" x="911.63" y="-157.32" font-family="Times,serif" font-size="14.00" fill="white">ifcopenshell ❎</text>
</a>
</g>
</g>
<!-- mpc&#45;&gt;ifcopenshell -->
<g id="edge17" class="edge">
<title>mpc&#45;&gt;ifcopenshell</title>
<path fill="none" stroke="black" d="M957.03,-360.19C969.18,-329.96 989.99,-265.03 968.63,-216 963.76,-204.83 955.25,-194.95 946.27,-186.84"/>
<polygon fill="black" stroke="black" points="948.7,-184.31 938.77,-180.59 944.21,-189.69 948.7,-184.31"/>
</g>
<!-- gnuradio -->
<g id="node15" class="node">
<title>gnuradio</title>
<g id="a_node15"><a xlink:href="https://github.com/conda-forge/gnuradio-feedstock/pull/276" xlink:title="gnuradio ❎">
<ellipse fill="#31688e" stroke="black" cx="964.63" cy="-90" rx="71.2" ry="18"/>
<text text-anchor="middle" x="964.63" y="-85.33" font-family="Times,serif" font-size="14.00" fill="white">gnuradio ❎</text>
</a>
</g>
</g>
<!-- mpc&#45;&gt;gnuradio -->
<g id="edge18" class="edge">
<title>mpc&#45;&gt;gnuradio</title>
<path fill="none" stroke="black" d="M964.2,-360.53C972.14,-350.62 981.39,-337.37 986.63,-324 1010.22,-263.85 1002.17,-244.46 1006.63,-180 1007.73,-164.04 1011.89,-159.11 1006.63,-144 1003.15,-134.01 996.92,-124.49 990.3,-116.34"/>
<polygon fill="black" stroke="black" points="993.02,-114.13 983.79,-108.91 987.75,-118.74 993.02,-114.13"/>
</g>
<!-- scikit&#45;geometry -->
<g id="node16" class="node">
<title>scikit&#45;geometry</title>
<g id="a_node16"><a xlink:href="https://github.com/conda-forge/scikit-geometry-feedstock/pull/18" xlink:title="scikit geometry ❎">
<ellipse fill="#31688e" stroke="black" cx="1063.63" cy="-18" rx="104.35" ry="18"/>
<text text-anchor="middle" x="1063.63" y="-13.32" font-family="Times,serif" font-size="14.00" fill="white">scikit geometry ❎</text>
</a>
</g>
</g>
<!-- mpc&#45;&gt;scikit&#45;geometry -->
<g id="edge19" class="edge">
<title>mpc&#45;&gt;scikit&#45;geometry</title>
<path fill="none" stroke="black" d="M973.53,-362.12C1006.96,-339.25 1063.63,-292.06 1063.63,-235 1063.63,-235 1063.63,-235 1063.63,-161 1063.63,-121.74 1063.63,-76.38 1063.63,-47.69"/>
<polygon fill="black" stroke="black" points="1067.13,-48 1063.63,-38 1060.13,-48 1067.13,-48"/>
</g>
<!-- pygalmesh -->
<g id="node17" class="node">
<title>pygalmesh</title>
<g id="a_node17"><a xlink:href="https://github.com/conda-forge/pygalmesh-feedstock/pull/34" xlink:title="pygalmesh ❎">
<ellipse fill="#31688e" stroke="black" cx="1172.63" cy="-306" rx="80.67" ry="18"/>
<text text-anchor="middle" x="1172.63" y="-301.32" font-family="Times,serif" font-size="14.00" fill="white">pygalmesh ❎</text>
</a>
</g>
</g>
<!-- mpc&#45;&gt;pygalmesh -->
<g id="edge20" class="edge">
<title>mpc&#45;&gt;pygalmesh</title>
<path fill="none" stroke="black" d="M985.46,-365.75C1020.76,-354.67 1075.22,-337.58 1116.31,-324.68"/>
<polygon fill="black" stroke="black" points="1117.31,-328.03 1125.8,-321.7 1115.21,-321.35 1117.31,-328.03"/>
</g>
<!-- antic -->
<g id="node18" class="node">
<title>antic</title>
<g id="a_node18"><a xlink:href="https://github.com/conda-forge/antic-feedstock/pull/13" xlink:title="antic ❎">
<ellipse fill="#31688e" stroke="black" cx="1240.63" cy="-234" rx="51.21" ry="18"/>
<text text-anchor="middle" x="1240.63" y="-229.32" font-family="Times,serif" font-size="14.00" fill="white">antic ❎</text>
</a>
</g>
</g>
<!-- mpc&#45;&gt;antic -->
<g id="edge21" class="edge">
<title>mpc&#45;&gt;antic</title>
<path fill="none" stroke="black" d="M997.39,-376.13C1076.47,-373.58 1229.24,-363.52 1262.63,-324 1277.35,-306.58 1268.7,-280.79 1258.24,-261.45"/>
<polygon fill="black" stroke="black" points="1261.38,-259.89 1253.31,-253.04 1255.34,-263.43 1261.38,-259.89"/>
</g>
<!-- compas_cgal -->
<g id="node19" class="node">
<title>compas_cgal</title>
<g id="a_node19"><a xlink:href="https://github.com/conda-forge/compas_cgal-feedstock/pull/26" xlink:title="compas_cgal ❎">
<ellipse fill="#31688e" stroke="black" cx="1239.63" cy="-162" rx="89.61" ry="18"/>
<text text-anchor="middle" x="1239.63" y="-157.32" font-family="Times,serif" font-size="14.00" fill="white">compas_cgal ❎</text>
</a>
</g>
</g>
<!-- mpc&#45;&gt;compas_cgal -->
<g id="edge22" class="edge">
<title>mpc&#45;&gt;compas_cgal</title>
<path fill="none" stroke="black" d="M997.16,-375.47C1078.24,-371.88 1238.52,-360.29 1279.63,-324 1316.29,-291.64 1320.91,-260.49 1300.63,-216 1295.37,-204.47 1286.23,-194.47 1276.6,-186.37"/>
<polygon fill="black" stroke="black" points="1278.95,-183.77 1268.91,-180.4 1274.66,-189.29 1278.95,-183.77"/>
</g>
<!-- imp -->
<g id="node20" class="node">
<title>imp</title>
<g id="a_node20"><a xlink:href="https://github.com/conda-forge/imp-feedstock" xlink:title="imp">
<ellipse fill="#ff8c00" stroke="black" cx="1337.63" cy="-90" rx="30.16" ry="18"/>
<text text-anchor="middle" x="1337.63" y="-85.33" font-family="Times,serif" font-size="14.00">imp</text>
</a>
</g>
</g>
<!-- mpc&#45;&gt;imp -->
<g id="edge24" class="edge">
<title>mpc&#45;&gt;imp</title>
<path fill="none" stroke="black" d="M997.16,-376.4C1083.81,-374.31 1262.61,-364.99 1306.63,-324 1363.19,-271.33 1353.03,-169.07 1343.91,-119.42"/>
<polygon fill="black" stroke="black" points="1347.38,-118.89 1342.01,-109.75 1340.51,-120.24 1347.38,-118.89"/>
</g>
<!-- gmpxxll -->
<g id="node21" class="node">
<title>gmpxxll</title>
<g id="a_node21"><a xlink:href="https://github.com/conda-forge/gmpxxll-feedstock/pull/1" xlink:title="gmpxxll ❎">
<ellipse fill="#31688e" stroke="black" cx="1395.63" cy="-18" rx="66.47" ry="18"/>
<text text-anchor="middle" x="1395.63" y="-13.32" font-family="Times,serif" font-size="14.00" fill="white">gmpxxll ❎</text>
</a>
</g>
</g>
<!-- mpc&#45;&gt;gmpxxll -->
<g id="edge25" class="edge">
<title>mpc&#45;&gt;gmpxxll</title>
<path fill="none" stroke="black" d="M996.84,-375.16C1086.64,-370.92 1278.04,-358.06 1333.63,-324 1374.73,-298.81 1395.63,-283.21 1395.63,-235 1395.63,-235 1395.63,-235 1395.63,-161 1395.63,-121.74 1395.63,-76.38 1395.63,-47.69"/>
<polygon fill="black" stroke="black" points="1399.13,-48 1395.63,-38 1392.13,-48 1399.13,-48"/>
</g>
<!-- spam -->
<g id="node22" class="node">
<title>spam</title>
<g id="a_node22"><a xlink:href="https://github.com/conda-forge/spam-feedstock" xlink:title="spam">
<ellipse fill="#ff8c00" stroke="black" cx="1461.63" cy="-306" rx="38.06" ry="18"/>
<text text-anchor="middle" x="1461.63" y="-301.32" font-family="Times,serif" font-size="14.00">spam</text>
</a>
</g>
</g>
<!-- mpc&#45;&gt;spam -->
<g id="edge26" class="edge">
<title>mpc&#45;&gt;spam</title>
<path fill="none" stroke="black" d="M996.83,-374.7C1080.73,-369.92 1261.01,-356.51 1409.63,-324 1413.46,-323.16 1417.4,-322.15 1421.33,-321.05"/>
<polygon fill="black" stroke="black" points="1422.21,-324.44 1430.77,-318.19 1420.18,-317.74 1422.21,-324.44"/>
</g>
<!-- pycolmap -->
<g id="node23" class="node">
<title>pycolmap</title>
<g id="a_node23"><a xlink:href="https://github.com/conda-forge/pycolmap-feedstock" xlink:title="pycolmap">
<ellipse fill="#35b779" stroke="black" cx="1527.63" cy="-234" rx="59.1" ry="18"/>
<text text-anchor="middle" x="1527.63" y="-229.32" font-family="Times,serif" font-size="14.00">pycolmap</text>
</a>
</g>
</g>
<!-- mpc&#45;&gt;pycolmap -->
<g id="edge27" class="edge">
<title>mpc&#45;&gt;pycolmap</title>
<path fill="none" stroke="black" d="M997.22,-375.66C1125.41,-371.63 1470.77,-357.71 1508.63,-324 1525.32,-309.14 1529.37,-283.53 1529.65,-263.59"/>
<polygon fill="black" stroke="black" points="1533.15,-263.78 1529.46,-253.85 1526.15,-263.92 1533.15,-263.78"/>
</g>
<!-- pygplates -->
<g id="node24" class="node">
<title>pygplates</title>
<g id="a_node24"><a xlink:href="https://github.com/conda-forge/pygplates-feedstock" xlink:title="pygplates">
<ellipse fill="#35b779" stroke="black" cx="1614.63" cy="-162" rx="60.15" ry="18"/>
<text text-anchor="middle" x="1614.63" y="-157.32" font-family="Times,serif" font-size="14.00">pygplates</text>
</a>
</g>
</g>
<!-- mpc&#45;&gt;pygplates -->
<g id="edge28" class="edge">
<title>mpc&#45;&gt;pygplates</title>
<path fill="none" stroke="black" d="M997.33,-377.11C1119.11,-376.7 1438.45,-371.04 1531.63,-324 1569.85,-304.71 1576.3,-290.2 1595.63,-252 1605.18,-233.13 1609.94,-209.65 1612.3,-191.55"/>
<polygon fill="black" stroke="black" points="1615.77,-192.09 1613.4,-181.77 1608.81,-191.32 1615.77,-192.09"/>
</g>
</g>
</svg>
