<?xml version="1.0" encoding="UTF-8" standalone="no"?>
<!DOCTYPE svg PUBLIC "-//W3C//DTD SVG 1.1//EN"
 "http://www.w3.org/Graphics/SVG/1.1/DTD/svg11.dtd">
<!-- Generated by graphviz version 12.0.0 (20240803.0821)
 -->
<!-- Pages: 1 -->
<svg width="1680pt" height="404pt"
 viewBox="0.00 0.00 1679.88 404.00" xmlns="http://www.w3.org/2000/svg" xmlns:xlink="http://www.w3.org/1999/xlink">
<g id="graph0" class="graph" transform="scale(1 1) rotate(0) translate(4 400)">
<polygon fill="white" stroke="none" points="-4,4 -4,-400 1675.88,-400 1675.88,4 -4,4"/>
<!-- gmpy2 -->
<g id="node1" class="node">
<title>gmpy2</title>
<g id="a_node1"><a xlink:href="https://github.com/conda-forge/gmpy2-feedstock/pull/41" xlink:title="gmpy2 ❎">
<ellipse fill="#31688e" stroke="black" cx="473.73" cy="-306" rx="60.68" ry="18"/>
<text text-anchor="middle" x="473.73" y="-301.32" font-family="Times,serif" font-size="14.00" fill="white">gmpy2 ❎</text>
</a>
</g>
</g>
<!-- python&#45;symengine -->
<g id="node2" class="node">
<title>python&#45;symengine</title>
<g id="a_node2"><a xlink:href="https://github.com/conda-forge/python-symengine-feedstock/pull/53" xlink:title="python symengine ❎">
<ellipse fill="#31688e" stroke="black" cx="304.73" cy="-234" rx="118.55" ry="18"/>
<text text-anchor="middle" x="304.73" y="-229.32" font-family="Times,serif" font-size="14.00" fill="white">python symengine ❎</text>
</a>
</g>
</g>
<!-- gmpy2&#45;&gt;python&#45;symengine -->
<g id="edge1" class="edge">
<title>gmpy2&#45;&gt;python&#45;symengine</title>
<path fill="none" stroke="black" d="M439.53,-290.83C415.18,-280.75 382.06,-267.03 354.75,-255.72"/>
<polygon fill="black" stroke="black" points="356.19,-252.53 345.61,-251.93 353.51,-258.99 356.19,-252.53"/>
</g>
<!-- heyoka.py -->
<g id="node3" class="node">
<title>heyoka.py</title>
<g id="a_node3"><a xlink:href="https://github.com/conda-forge/heyoka.py-feedstock" xlink:title="heyoka py">
<ellipse fill="#ff8c00" stroke="black" cx="61.73" cy="-162" rx="61.73" ry="18"/>
<text text-anchor="middle" x="61.73" y="-157.32" font-family="Times,serif" font-size="14.00">heyoka py</text>
</a>
</g>
</g>
<!-- gmpy2&#45;&gt;heyoka.py -->
<g id="edge2" class="edge">
<title>gmpy2&#45;&gt;heyoka.py</title>
<path fill="none" stroke="black" d="M470.89,-287.83C466.51,-267.25 456.06,-233.38 432.73,-216 386.85,-181.8 228.84,-169.58 134.47,-165.27"/>
<polygon fill="black" stroke="black" points="134.66,-161.78 124.52,-164.84 134.36,-168.77 134.66,-161.78"/>
</g>
<!-- igraph -->
<g id="node4" class="node">
<title>igraph</title>
<g id="a_node4"><a xlink:href="https://github.com/conda-forge/igraph-feedstock/pull/73" xlink:title="igraph ❎">
<ellipse fill="#31688e" stroke="black" cx="297.73" cy="-306" rx="59.1" ry="18"/>
<text text-anchor="middle" x="297.73" y="-301.32" font-family="Times,serif" font-size="14.00" fill="white">igraph ❎</text>
</a>
</g>
</g>
<!-- mpc -->
<g id="node5" class="node">
<title>mpc</title>
<g id="a_node5"><a xlink:href="https://github.com/conda-forge/mpc-feedstock/pull/27" xlink:title="mpc ❎">
<ellipse fill="#31688e" stroke="black" cx="953.73" cy="-378" rx="47.53" ry="18"/>
<text text-anchor="middle" x="953.73" y="-373.32" font-family="Times,serif" font-size="14.00" fill="white">mpc ❎</text>
</a>
</g>
</g>
<!-- mpc&#45;&gt;gmpy2 -->
<g id="edge3" class="edge">
<title>mpc&#45;&gt;gmpy2</title>
<path fill="none" stroke="black" d="M908.51,-372.05C834.51,-363.72 683.04,-345.64 555.73,-324 548.22,-322.72 540.35,-321.26 532.58,-319.73"/>
<polygon fill="black" stroke="black" points="533.29,-316.31 522.8,-317.77 531.92,-323.17 533.29,-316.31"/>
</g>
<!-- mpc&#45;&gt;python&#45;symengine -->
<g id="edge4" class="edge">
<title>mpc&#45;&gt;python&#45;symengine</title>
<path fill="none" stroke="black" d="M906.32,-376.35C789.89,-374.15 492.89,-364.59 403.73,-324 382.56,-314.36 382.96,-303.63 365.73,-288 355.36,-278.59 343.81,-268.47 333.57,-259.61"/>
<polygon fill="black" stroke="black" points="335.99,-257.07 326.12,-253.2 331.42,-262.38 335.99,-257.07"/>
</g>
<!-- mpc&#45;&gt;heyoka.py -->
<g id="edge5" class="edge">
<title>mpc&#45;&gt;heyoka.py</title>
<path fill="none" stroke="black" d="M906.09,-375.82C723.33,-371.1 75.68,-352.42 42.73,-324 6.03,-292.35 14.1,-262.5 27.73,-216 30.49,-206.6 35.48,-197.29 40.8,-189.16"/>
<polygon fill="black" stroke="black" points="43.56,-191.32 46.46,-181.13 37.84,-187.29 43.56,-191.32"/>
</g>
<!-- mpc&#45;&gt;igraph -->
<g id="edge6" class="edge">
<title>mpc&#45;&gt;igraph</title>
<path fill="none" stroke="black" d="M906.6,-374.93C807.08,-370.06 568.4,-355.84 370.73,-324 365.02,-323.08 359.08,-321.97 353.18,-320.75"/>
<polygon fill="black" stroke="black" points="353.92,-317.33 343.41,-318.64 352.45,-324.18 353.92,-317.33"/>
</g>
<!-- mppp -->
<g id="node6" class="node">
<title>mppp</title>
<g id="a_node6"><a xlink:href="https://github.com/conda-forge/mppp-feedstock/pull/60" xlink:title="mppp ❎">
<ellipse fill="#31688e" stroke="black" cx="106.73" cy="-306" rx="54.89" ry="18"/>
<text text-anchor="middle" x="106.73" y="-301.32" font-family="Times,serif" font-size="14.00" fill="white">mppp ❎</text>
</a>
</g>
</g>
<!-- mpc&#45;&gt;mppp -->
<g id="edge7" class="edge">
<title>mpc&#45;&gt;mppp</title>
<path fill="none" stroke="black" d="M906.09,-376.23C784.78,-373.73 454.59,-363.52 182.73,-324 175.44,-322.94 167.82,-321.56 160.33,-320.05"/>
<polygon fill="black" stroke="black" points="161.12,-316.64 150.61,-317.99 159.66,-323.49 161.12,-316.64"/>
</g>
<!-- python&#45;igraph -->
<g id="node7" class="node">
<title>python&#45;igraph</title>
<g id="a_node7"><a xlink:href="https://github.com/conda-forge/python-igraph-feedstock/pull/90" xlink:title="python igraph ✓">
<ellipse fill="#31688e" stroke="black" cx="569.73" cy="-234" rx="89.61" ry="18"/>
<text text-anchor="middle" x="569.73" y="-229.32" font-family="Times,serif" font-size="14.00" fill="white">python igraph ✓</text>
</a>
</g>
</g>
<!-- mpc&#45;&gt;python&#45;igraph -->
<g id="edge8" class="edge">
<title>mpc&#45;&gt;python&#45;igraph</title>
<path fill="none" stroke="black" d="M906.34,-375.43C848.73,-371.89 749.78,-360.5 673.73,-324 641.67,-308.62 611.56,-280.81 592.07,-260.36"/>
<polygon fill="black" stroke="black" points="594.8,-258.15 585.43,-253.21 589.67,-262.92 594.8,-258.15"/>
</g>
<!-- gudhi -->
<g id="node8" class="node">
<title>gudhi</title>
<g id="a_node8"><a xlink:href="https://github.com/conda-forge/gudhi-feedstock/pull/62" xlink:title="gudhi ✓">
<ellipse fill="#31688e" stroke="black" cx="649.73" cy="-162" rx="47.53" ry="18"/>
<text text-anchor="middle" x="649.73" y="-157.32" font-family="Times,serif" font-size="14.00" fill="white">gudhi ✓</text>
</a>
</g>
</g>
<!-- mpc&#45;&gt;gudhi -->
<g id="edge9" class="edge">
<title>mpc&#45;&gt;gudhi</title>
<path fill="none" stroke="black" d="M908.37,-372.21C846.72,-364.86 740.81,-348.97 711.73,-324 706.43,-319.45 675.87,-235.86 659.72,-190.97"/>
<polygon fill="black" stroke="black" points="663.04,-189.86 656.37,-181.63 656.45,-192.23 663.04,-189.86"/>
</g>
<!-- wildmeshing -->
<g id="node9" class="node">
<title>wildmeshing</title>
<g id="a_node9"><a xlink:href="https://github.com/conda-forge/wildmeshing-feedstock/pull/24" xlink:title="wildmeshing ❎">
<ellipse fill="#31688e" stroke="black" cx="719.73" cy="-90" rx="90.14" ry="18"/>
<text text-anchor="middle" x="719.73" y="-85.33" font-family="Times,serif" font-size="14.00" fill="white">wildmeshing ❎</text>
</a>
</g>
</g>
<!-- mpc&#45;&gt;wildmeshing -->
<g id="edge10" class="edge">
<title>mpc&#45;&gt;wildmeshing</title>
<path fill="none" stroke="black" d="M908.76,-371.61C853.94,-364.06 765.95,-348.46 744.73,-324 718.83,-294.15 717.84,-175.38 718.87,-119.87"/>
<polygon fill="black" stroke="black" points="722.37,-120.02 719.1,-109.94 715.37,-119.86 722.37,-120.02"/>
</g>
<!-- normaliz -->
<g id="node10" class="node">
<title>normaliz</title>
<g id="a_node10"><a xlink:href="https://github.com/conda-forge/normaliz-feedstock/pull/55" xlink:title="normaliz ❎">
<ellipse fill="#31688e" stroke="black" cx="837.73" cy="-18" rx="70.15" ry="18"/>
<text text-anchor="middle" x="837.73" y="-13.32" font-family="Times,serif" font-size="14.00" fill="white">normaliz ❎</text>
</a>
</g>
</g>
<!-- mpc&#45;&gt;normaliz -->
<g id="edge11" class="edge">
<title>mpc&#45;&gt;normaliz</title>
<path fill="none" stroke="black" d="M954.41,-359.68C954.27,-340.2 951.21,-308.61 934.73,-288 910.89,-258.18 878.6,-283.3 856.73,-252 813.43,-190.03 823.08,-94.87 831.56,-47.64"/>
<polygon fill="black" stroke="black" points="834.97,-48.42 833.42,-37.93 828.1,-47.09 834.97,-48.42"/>
</g>
<!-- ifcopenshell -->
<g id="node11" class="node">
<title>ifcopenshell</title>
<g id="a_node11"><a xlink:href="https://github.com/conda-forge/ifcopenshell-feedstock/pull/52" xlink:title="ifcopenshell ❎">
<ellipse fill="#31688e" stroke="black" cx="839.73" cy="-306" rx="86.46" ry="18"/>
<text text-anchor="middle" x="839.73" y="-301.32" font-family="Times,serif" font-size="14.00" fill="white">ifcopenshell ❎</text>
</a>
</g>
</g>
<!-- mpc&#45;&gt;ifcopenshell -->
<g id="edge12" class="edge">
<title>mpc&#45;&gt;ifcopenshell</title>
<path fill="none" stroke="black" d="M929.55,-362.15C914,-352.61 893.51,-340.02 876.02,-329.28"/>
<polygon fill="black" stroke="black" points="878.31,-326.58 867.96,-324.33 874.65,-332.55 878.31,-326.58"/>
</g>
<!-- gnuradio -->
<g id="node12" class="node">
<title>gnuradio</title>
<g id="a_node12"><a xlink:href="https://github.com/conda-forge/gnuradio-feedstock/pull/276" xlink:title="gnuradio ❎">
<ellipse fill="#31688e" stroke="black" cx="936.73" cy="-234" rx="71.2" ry="18"/>
<text text-anchor="middle" x="936.73" y="-229.32" font-family="Times,serif" font-size="14.00" fill="white">gnuradio ❎</text>
</a>
</g>
</g>
<!-- mpc&#45;&gt;gnuradio -->
<g id="edge13" class="edge">
<title>mpc&#45;&gt;gnuradio</title>
<path fill="none" stroke="black" d="M960.69,-359.71C966.99,-341.6 974.36,-312.46 967.73,-288 965.26,-278.88 960.79,-269.73 955.99,-261.66"/>
<polygon fill="black" stroke="black" points="959.03,-259.91 950.69,-253.37 953.13,-263.68 959.03,-259.91"/>
</g>
<!-- scikit&#45;geometry -->
<g id="node13" class="node">
<title>scikit&#45;geometry</title>
<g id="a_node13"><a xlink:href="https://github.com/conda-forge/scikit-geometry-feedstock/pull/18" xlink:title="scikit geometry ❎">
<ellipse fill="#31688e" stroke="black" cx="969.73" cy="-162" rx="104.35" ry="18"/>
<text text-anchor="middle" x="969.73" y="-157.32" font-family="Times,serif" font-size="14.00" fill="white">scikit geometry ❎</text>
</a>
</g>
</g>
<!-- mpc&#45;&gt;scikit&#45;geometry -->
<g id="edge14" class="edge">
<title>mpc&#45;&gt;scikit&#45;geometry</title>
<path fill="none" stroke="black" d="M965.67,-360.25C981.25,-337.2 1007.61,-293.79 1016.73,-252 1020.14,-236.37 1022.41,-230.96 1016.73,-216 1012.82,-205.7 1005.89,-196.12 998.53,-188.01"/>
<polygon fill="black" stroke="black" points="1001.07,-185.6 991.57,-180.91 996.07,-190.5 1001.07,-185.6"/>
</g>
<!-- pygalmesh -->
<g id="node14" class="node">
<title>pygalmesh</title>
<g id="a_node14"><a xlink:href="https://github.com/conda-forge/pygalmesh-feedstock/pull/34" xlink:title="pygalmesh ❎">
<ellipse fill="#31688e" stroke="black" cx="1101.73" cy="-90" rx="80.67" ry="18"/>
<text text-anchor="middle" x="1101.73" y="-85.33" font-family="Times,serif" font-size="14.00" fill="white">pygalmesh ❎</text>
</a>
</g>
</g>
<!-- mpc&#45;&gt;pygalmesh -->
<g id="edge15" class="edge">
<title>mpc&#45;&gt;pygalmesh</title>
<path fill="none" stroke="black" d="M974.31,-361.42C986.29,-351.62 1001.08,-338.18 1011.73,-324 1054.59,-266.95 1059.32,-247.41 1082.73,-180 1089.55,-160.35 1094.38,-137.38 1097.46,-119.7"/>
<polygon fill="black" stroke="black" points="1100.91,-120.34 1099.08,-109.9 1094,-119.2 1100.91,-120.34"/>
</g>
<!-- antic -->
<g id="node15" class="node">
<title>antic</title>
<g id="a_node15"><a xlink:href="https://github.com/conda-forge/antic-feedstock/pull/13" xlink:title="antic ❎">
<ellipse fill="#31688e" stroke="black" cx="1283.73" cy="-18" rx="51.21" ry="18"/>
<text text-anchor="middle" x="1283.73" y="-13.32" font-family="Times,serif" font-size="14.00" fill="white">antic ❎</text>
</a>
</g>
</g>
<!-- mpc&#45;&gt;antic -->
<g id="edge16" class="edge">
<title>mpc&#45;&gt;antic</title>
<path fill="none" stroke="black" d="M1001.56,-376.63C1084.34,-374.86 1248.91,-366.02 1284.73,-324 1302.39,-303.29 1291.04,-119.11 1285.88,-47.4"/>
<polygon fill="black" stroke="black" points="1289.39,-47.36 1285.17,-37.64 1282.41,-47.87 1289.39,-47.36"/>
</g>
<!-- compas_cgal -->
<g id="node16" class="node">
<title>compas_cgal</title>
<g id="a_node16"><a xlink:href="https://github.com/conda-forge/compas_cgal-feedstock/pull/26" xlink:title="compas_cgal ❎">
<ellipse fill="#31688e" stroke="black" cx="1185.73" cy="-306" rx="89.61" ry="18"/>
<text text-anchor="middle" x="1185.73" y="-301.32" font-family="Times,serif" font-size="14.00" fill="white">compas_cgal ❎</text>
</a>
</g>
</g>
<!-- mpc&#45;&gt;compas_cgal -->
<g id="edge17" class="edge">
<title>mpc&#45;&gt;compas_cgal</title>
<path fill="none" stroke="black" d="M990.24,-365.99C1026.74,-354.97 1083.49,-337.85 1126.46,-324.88"/>
<polygon fill="black" stroke="black" points="1127.34,-328.27 1135.9,-322.04 1125.31,-321.57 1127.34,-328.27"/>
</g>
<!-- heyoka -->
<g id="node17" class="node">
<title>heyoka</title>
<g id="a_node17"><a xlink:href="https://github.com/conda-forge/heyoka-feedstock/pull/70" xlink:title="heyoka ❎">
<ellipse fill="#31688e" stroke="black" cx="106.73" cy="-234" rx="61.73" ry="18"/>
<text text-anchor="middle" x="106.73" y="-229.32" font-family="Times,serif" font-size="14.00" fill="white">heyoka ❎</text>
</a>
</g>
</g>
<!-- mpc&#45;&gt;heyoka -->
<g id="edge18" class="edge">
<title>mpc&#45;&gt;heyoka</title>
<path fill="none" stroke="black" d="M905.81,-376.88C765,-376.01 354.57,-369.53 229.73,-324 209.42,-316.59 164.64,-282.14 135.08,-258.34"/>
<polygon fill="black" stroke="black" points="137.59,-255.87 127.62,-252.29 133.19,-261.31 137.59,-255.87"/>
</g>
<!-- imp -->
<g id="node18" class="node">
<title>imp</title>
<g id="a_node18"><a xlink:href="https://github.com/conda-forge/imp-feedstock" xlink:title="imp">
<ellipse fill="#ff8c00" stroke="black" cx="1341.73" cy="-234" rx="30.16" ry="18"/>
<text text-anchor="middle" x="1341.73" y="-229.32" font-family="Times,serif" font-size="14.00">imp</text>
</a>
</g>
</g>
<!-- mpc&#45;&gt;imp -->
<g id="edge19" class="edge">
<title>mpc&#45;&gt;imp</title>
<path fill="none" stroke="black" d="M1001.32,-376.37C1089.11,-374.21 1271.76,-364.81 1317.73,-324 1334.58,-309.04 1340.15,-283.62 1341.76,-263.77"/>
<polygon fill="black" stroke="black" points="1345.26,-263.94 1342.24,-253.78 1338.26,-263.6 1345.26,-263.94"/>
</g>
<!-- gmpxxll -->
<g id="node19" class="node">
<title>gmpxxll</title>
<g id="a_node19"><a xlink:href="https://github.com/conda-forge/gmpxxll-feedstock/pull/1" xlink:title="gmpxxll ❎">
<ellipse fill="#31688e" stroke="black" cx="1377.73" cy="-162" rx="66.47" ry="18"/>
<text text-anchor="middle" x="1377.73" y="-157.32" font-family="Times,serif" font-size="14.00" fill="white">gmpxxll ❎</text>
</a>
</g>
</g>
<!-- mpc&#45;&gt;gmpxxll -->
<g id="edge20" class="edge">
<title>mpc&#45;&gt;gmpxxll</title>
<path fill="none" stroke="black" d="M1001.08,-375.79C1092.14,-372.64 1287.42,-361.56 1341.73,-324 1383.7,-294.97 1382.17,-267.01 1380.73,-216 1380.51,-208.05 1380.09,-199.43 1379.64,-191.5"/>
<polygon fill="black" stroke="black" points="1383.14,-191.45 1379.04,-181.69 1376.16,-191.88 1383.14,-191.45"/>
</g>
<!-- spam -->
<g id="node20" class="node">
<title>spam</title>
<g id="a_node20"><a xlink:href="https://github.com/conda-forge/spam-feedstock" xlink:title="spam">
<ellipse fill="#ff8c00" stroke="black" cx="1457.73" cy="-90" rx="38.06" ry="18"/>
<text text-anchor="middle" x="1457.73" y="-85.33" font-family="Times,serif" font-size="14.00">spam</text>
</a>
</g>
</g>
<!-- mpc&#45;&gt;spam -->
<g id="edge21" class="edge">
<title>mpc&#45;&gt;spam</title>
<path fill="none" stroke="black" d="M1001.31,-376.24C1097.74,-373.88 1312.1,-364.12 1371.73,-324 1432.65,-283.01 1432.14,-250.48 1452.73,-180 1458.44,-160.45 1459.6,-137.47 1459.38,-119.76"/>
<polygon fill="black" stroke="black" points="1462.89,-119.86 1459.09,-109.97 1455.89,-120.06 1462.89,-119.86"/>
</g>
<!-- pycolmap -->
<g id="node21" class="node">
<title>pycolmap</title>
<g id="a_node21"><a xlink:href="https://github.com/conda-forge/pycolmap-feedstock" xlink:title="pycolmap">
<ellipse fill="#35b779" stroke="black" cx="1523.73" cy="-18" rx="59.1" ry="18"/>
<text text-anchor="middle" x="1523.73" y="-13.32" font-family="Times,serif" font-size="14.00">pycolmap</text>
</a>
</g>
</g>
<!-- mpc&#45;&gt;pycolmap -->
<g id="edge22" class="edge">
<title>mpc&#45;&gt;pycolmap</title>
<path fill="none" stroke="black" d="M1000.88,-374.6C1101.28,-368.98 1332.95,-353.19 1405.73,-324 1466.7,-299.55 1523.73,-300.69 1523.73,-235 1523.73,-235 1523.73,-235 1523.73,-161 1523.73,-121.74 1523.73,-76.38 1523.73,-47.69"/>
<polygon fill="black" stroke="black" points="1527.23,-48 1523.73,-38 1520.23,-48 1527.23,-48"/>
</g>
<!-- pygplates -->
<g id="node22" class="node">
<title>pygplates</title>
<g id="a_node22"><a xlink:href="https://github.com/conda-forge/pygplates-feedstock" xlink:title="pygplates">
<ellipse fill="#35b779" stroke="black" cx="1611.73" cy="-306" rx="60.15" ry="18"/>
<text text-anchor="middle" x="1611.73" y="-301.32" font-family="Times,serif" font-size="14.00">pygplates</text>
</a>
</g>
</g>
<!-- mpc&#45;&gt;pygplates -->
<g id="edge23" class="edge">
<title>mpc&#45;&gt;pygplates</title>
<path fill="none" stroke="black" d="M1000.93,-374.89C1100.61,-369.95 1339.68,-355.59 1537.73,-324 1543.67,-323.05 1549.84,-321.9 1555.98,-320.65"/>
<polygon fill="black" stroke="black" points="1556.39,-324.14 1565.44,-318.63 1554.93,-317.3 1556.39,-324.14"/>
</g>
<!-- mppp&#45;&gt;heyoka.py -->
<g id="edge24" class="edge">
<title>mppp&#45;&gt;heyoka.py</title>
<path fill="none" stroke="black" d="M76.02,-290.64C60.93,-281.81 44.21,-268.91 35.73,-252 25.84,-232.27 34,-208.15 43.71,-190"/>
<polygon fill="black" stroke="black" points="46.72,-191.79 48.72,-181.39 40.67,-188.27 46.72,-191.79"/>
</g>
<!-- mppp&#45;&gt;heyoka -->
<g id="edge25" class="edge">
<title>mppp&#45;&gt;heyoka</title>
<path fill="none" stroke="black" d="M106.73,-287.7C106.73,-280.41 106.73,-271.73 106.73,-263.54"/>
<polygon fill="black" stroke="black" points="110.23,-263.62 106.73,-253.62 103.23,-263.62 110.23,-263.62"/>
</g>
<!-- heyoka&#45;&gt;heyoka.py -->
<g id="edge26" class="edge">
<title>heyoka&#45;&gt;heyoka.py</title>
<path fill="none" stroke="black" d="M95.84,-216.05C90.7,-208.06 84.44,-198.33 78.7,-189.4"/>
<polygon fill="black" stroke="black" points="81.69,-187.58 73.34,-181.06 75.81,-191.37 81.69,-187.58"/>
</g>
</g>
</svg>
