<?xml version="1.0" encoding="UTF-8" standalone="no"?>
<!DOCTYPE svg PUBLIC "-//W3C//DTD SVG 1.1//EN"
 "http://www.w3.org/Graphics/SVG/1.1/DTD/svg11.dtd">
<!-- Generated by graphviz version 12.2.1 (20250203.1708)
 -->
<!-- Pages: 1 -->
<svg width="372pt" height="116pt"
 viewBox="0.00 0.00 371.57 116.00" xmlns="http://www.w3.org/2000/svg" xmlns:xlink="http://www.w3.org/1999/xlink">
<g id="graph0" class="graph" transform="scale(1 1) rotate(0) translate(4 112)">
<polygon fill="white" stroke="none" points="-4,4 -4,-112 367.57,-112 367.57,4 -4,4"/>
<!-- gnutls -->
<g id="node1" class="node">
<title>gnutls</title>
<g id="a_node1"><a xlink:href="https://github.com/conda-forge/gnutls-feedstock/pull/52" xlink:title="gnutls ❎">
<ellipse fill="#31688e" stroke="black" cx="214.36" cy="-90" rx="58.05" ry="18"/>
<text text-anchor="middle" x="214.36" y="-85.33" font-family="Times,serif" font-size="14.00" fill="white">gnutls ❎</text>
</a>
</g>
</g>
<!-- lighttpd -->
<g id="node2" class="node">
<title>lighttpd</title>
<g id="a_node2"><a xlink:href="https://github.com/conda-forge/lighttpd-feedstock" xlink:title="lighttpd">
<ellipse fill="#fde725" stroke="black" cx="218.36" cy="-18" rx="51.21" ry="18"/>
<text text-anchor="middle" x="218.36" y="-13.32" font-family="Times,serif" font-size="14.00">lighttpd</text>
</a>
</g>
</g>
<!-- gnutls&#45;&gt;lighttpd -->
<g id="edge1" class="edge">
<title>gnutls&#45;&gt;lighttpd</title>
<path fill="none" stroke="black" d="M215.35,-71.7C215.76,-64.41 216.26,-55.73 216.73,-47.54"/>
<polygon fill="black" stroke="black" points="220.22,-47.8 217.29,-37.62 213.23,-47.4 220.22,-47.8"/>
</g>
<!-- openconnect -->
<g id="node3" class="node">
<title>openconnect</title>
<g id="a_node3"><a xlink:href="https://github.com/conda-forge/openconnect-feedstock" xlink:title="openconnect">
<ellipse fill="#fde725" stroke="black" cx="74.36" cy="-18" rx="74.36" ry="18"/>
<text text-anchor="middle" x="74.36" y="-13.32" font-family="Times,serif" font-size="14.00">openconnect</text>
</a>
</g>
</g>
<!-- gnutls&#45;&gt;openconnect -->
<g id="edge2" class="edge">
<title>gnutls&#45;&gt;openconnect</title>
<path fill="none" stroke="black" d="M184.67,-74.15C164.57,-64.11 137.75,-50.7 115.59,-39.62"/>
<polygon fill="black" stroke="black" points="117.32,-36.57 106.81,-35.23 114.19,-42.83 117.32,-36.57"/>
</g>
<!-- stoken -->
<g id="node4" class="node">
<title>stoken</title>
<g id="a_node4"><a xlink:href="https://github.com/conda-forge/stoken-feedstock/pull/15" xlink:title="stoken ❎">
<ellipse fill="#31688e" stroke="black" cx="74.36" cy="-90" rx="59.63" ry="18"/>
<text text-anchor="middle" x="74.36" y="-85.33" font-family="Times,serif" font-size="14.00" fill="white">stoken ❎</text>
</a>
</g>
</g>
<!-- stoken&#45;&gt;openconnect -->
<g id="edge3" class="edge">
<title>stoken&#45;&gt;openconnect</title>
<path fill="none" stroke="black" d="M74.36,-71.7C74.36,-64.41 74.36,-55.73 74.36,-47.54"/>
<polygon fill="black" stroke="black" points="77.86,-47.62 74.36,-37.62 70.86,-47.62 77.86,-47.62"/>
</g>
<!-- rdfind -->
<g id="node5" class="node">
<title>rdfind</title>
<g id="a_node5"><a xlink:href="https://github.com/conda-forge/rdfind-feedstock" xlink:title="rdfind">
<ellipse fill="#35b779" stroke="black" cx="322.36" cy="-54" rx="41.21" ry="18"/>
<text text-anchor="middle" x="322.36" y="-49.33" font-family="Times,serif" font-size="14.00">rdfind</text>
</a>
</g>
</g>
</g>
</svg>
