<?xml version="1.0" encoding="UTF-8" standalone="no"?>
<!DOCTYPE svg PUBLIC "-//W3C//DTD SVG 1.1//EN"
 "http://www.w3.org/Graphics/SVG/1.1/DTD/svg11.dtd">
<!-- Generated by graphviz version 13.1.2 (20250809.0930)
 -->
<!-- Pages: 1 -->
<svg width="562pt" height="116pt"
 viewBox="0.00 0.00 562.00 116.00" xmlns="http://www.w3.org/2000/svg" xmlns:xlink="http://www.w3.org/1999/xlink">
<g id="graph0" class="graph" transform="scale(1 1) rotate(0) translate(4 112)">
<polygon fill="white" stroke="none" points="-4,4 -4,-112 558.41,-112 558.41,4 -4,4"/>
<!-- eclib -->
<g id="node1" class="node">
<title>eclib</title>
<g id="a_node1"><a xlink:href="https://github.com/conda-forge/eclib-feedstock" xlink:title="eclib">
<ellipse fill="#35b779" stroke="black" cx="371.26" cy="-90" rx="34.9" ry="18"/>
<text xml:space="preserve" text-anchor="middle" x="371.26" y="-85.33" font-family="Times,serif" font-size="14.00">eclib</text>
</a>
</g>
</g>
<!-- sagelib -->
<g id="node4" class="node">
<title>sagelib</title>
<g id="a_node4"><a xlink:href="https://github.com/conda-forge/sagelib-feedstock" xlink:title="sagelib">
<ellipse fill="#fde725" stroke="black" cx="217.26" cy="-18" rx="47" ry="18"/>
<text xml:space="preserve" text-anchor="middle" x="217.26" y="-13.32" font-family="Times,serif" font-size="14.00">sagelib</text>
</a>
</g>
</g>
<!-- eclib&#45;&gt;sagelib -->
<g id="edge1" class="edge">
<title>eclib&#45;&gt;sagelib</title>
<path fill="none" stroke="black" d="M345.83,-77.44C321.67,-66.46 284.96,-49.77 256.94,-37.04"/>
<polygon fill="black" stroke="black" points="258.61,-33.95 248.05,-33 255.71,-40.32 258.61,-33.95"/>
</g>
<!-- giac -->
<g id="node2" class="node">
<title>giac</title>
<g id="a_node2"><a xlink:href="https://github.com/conda-forge/giac-feedstock/pull/35" xlink:title="giac ❎">
<ellipse fill="#31688e" stroke="black" cx="271.26" cy="-90" rx="47" ry="18"/>
<text xml:space="preserve" text-anchor="middle" x="271.26" y="-85.33" font-family="Times,serif" font-size="14.00" fill="white">giac ❎</text>
</a>
</g>
</g>
<!-- giac&#45;&gt;sagelib -->
<g id="edge2" class="edge">
<title>giac&#45;&gt;sagelib</title>
<path fill="none" stroke="black" d="M258.46,-72.41C252.01,-64.04 244.04,-53.71 236.83,-44.37"/>
<polygon fill="black" stroke="black" points="239.77,-42.45 230.89,-36.67 234.23,-46.72 239.77,-42.45"/>
</g>
<!-- linbox -->
<g id="node3" class="node">
<title>linbox</title>
<g id="a_node3"><a xlink:href="https://github.com/conda-forge/linbox-feedstock" xlink:title="linbox">
<ellipse fill="#35b779" stroke="black" cx="164.26" cy="-90" rx="41.74" ry="18"/>
<text xml:space="preserve" text-anchor="middle" x="164.26" y="-85.33" font-family="Times,serif" font-size="14.00">linbox</text>
</a>
</g>
</g>
<!-- linbox&#45;&gt;sagelib -->
<g id="edge3" class="edge">
<title>linbox&#45;&gt;sagelib</title>
<path fill="none" stroke="black" d="M176.82,-72.41C183.16,-64.04 190.98,-53.71 198.05,-44.37"/>
<polygon fill="black" stroke="black" points="200.63,-46.76 203.88,-36.68 195.05,-42.54 200.63,-46.76"/>
</g>
<!-- singular -->
<g id="node5" class="node">
<title>singular</title>
<g id="a_node5"><a xlink:href="https://github.com/conda-forge/singular-feedstock" xlink:title="singular">
<ellipse fill="#35b779" stroke="black" cx="52.26" cy="-90" rx="52.26" ry="18"/>
<text xml:space="preserve" text-anchor="middle" x="52.26" y="-85.33" font-family="Times,serif" font-size="14.00">singular</text>
</a>
</g>
</g>
<!-- singular&#45;&gt;sagelib -->
<g id="edge4" class="edge">
<title>singular&#45;&gt;sagelib</title>
<path fill="none" stroke="black" d="M84.07,-75.5C110.31,-64.37 147.72,-48.5 176.22,-36.41"/>
<polygon fill="black" stroke="black" points="177.43,-39.7 185.27,-32.57 174.69,-33.26 177.43,-39.7"/>
</g>
<!-- barvinok -->
<g id="node6" class="node">
<title>barvinok</title>
<g id="a_node6"><a xlink:href="https://github.com/conda-forge/barvinok-feedstock/pull/14" xlink:title="barvinok ❎">
<ellipse fill="#31688e" stroke="black" cx="484.26" cy="-54" rx="70.15" ry="18"/>
<text xml:space="preserve" text-anchor="middle" x="484.26" y="-49.33" font-family="Times,serif" font-size="14.00" fill="white">barvinok ❎</text>
</a>
</g>
</g>
</g>
</svg>
