<?xml version="1.0" encoding="UTF-8" standalone="no"?>
<!DOCTYPE svg PUBLIC "-//W3C//DTD SVG 1.1//EN"
 "http://www.w3.org/Graphics/SVG/1.1/DTD/svg11.dtd">
<!-- Generated by graphviz version 13.1.2 (20250809.0930)
 -->
<!-- Pages: 1 -->
<svg width="804pt" height="188pt"
 viewBox="0.00 0.00 804.00 188.00" xmlns="http://www.w3.org/2000/svg" xmlns:xlink="http://www.w3.org/1999/xlink">
<g id="graph0" class="graph" transform="scale(1 1) rotate(0) translate(4 184)">
<polygon fill="white" stroke="none" points="-4,4 -4,-184 800.05,-184 800.05,4 -4,4"/>
<!-- eclib -->
<g id="node1" class="node">
<title>eclib</title>
<g id="a_node1"><a xlink:href="https://github.com/conda-forge/eclib-feedstock" xlink:title="eclib">
<ellipse fill="#fde725" stroke="black" cx="34.9" cy="-90" rx="34.9" ry="18"/>
<text xml:space="preserve" text-anchor="middle" x="34.9" y="-85.33" font-family="Times,serif" font-size="14.00">eclib</text>
</a>
</g>
</g>
<!-- sagelib -->
<g id="node5" class="node">
<title>sagelib</title>
<g id="a_node5"><a xlink:href="https://github.com/conda-forge/sagelib-feedstock" xlink:title="sagelib">
<ellipse fill="#fde725" stroke="black" cx="199.9" cy="-18" rx="47" ry="18"/>
<text xml:space="preserve" text-anchor="middle" x="199.9" y="-13.32" font-family="Times,serif" font-size="14.00">sagelib</text>
</a>
</g>
</g>
<!-- eclib&#45;&gt;sagelib -->
<g id="edge1" class="edge">
<title>eclib&#45;&gt;sagelib</title>
<path fill="none" stroke="black" d="M61.41,-77.75C87.73,-66.59 128.45,-49.31 158.93,-36.38"/>
<polygon fill="black" stroke="black" points="160.01,-39.72 167.85,-32.6 157.28,-33.28 160.01,-39.72"/>
</g>
<!-- giac -->
<g id="node2" class="node">
<title>giac</title>
<g id="a_node2"><a xlink:href="https://github.com/conda-forge/giac-feedstock/pull/35" xlink:title="giac ❎">
<ellipse fill="#31688e" stroke="black" cx="396.9" cy="-90" rx="47" ry="18"/>
<text xml:space="preserve" text-anchor="middle" x="396.9" y="-85.33" font-family="Times,serif" font-size="14.00" fill="white">giac ❎</text>
</a>
</g>
</g>
<!-- giac&#45;&gt;sagelib -->
<g id="edge2" class="edge">
<title>giac&#45;&gt;sagelib</title>
<path fill="none" stroke="black" d="M363.48,-77.13C330.65,-65.46 280.36,-47.59 244.21,-34.75"/>
<polygon fill="black" stroke="black" points="245.5,-31.49 234.91,-31.44 243.16,-38.09 245.5,-31.49"/>
</g>
<!-- libflint -->
<g id="node3" class="node">
<title>libflint</title>
<g id="a_node3"><a xlink:href="https://github.com/conda-forge/libflint-feedstock/pull/47" xlink:title="libflint ❎">
<ellipse fill="#31688e" stroke="black" cx="164.9" cy="-162" rx="59.1" ry="18"/>
<text xml:space="preserve" text-anchor="middle" x="164.9" y="-157.32" font-family="Times,serif" font-size="14.00" fill="white">libflint ❎</text>
</a>
</g>
</g>
<!-- libflint&#45;&gt;eclib -->
<g id="edge3" class="edge">
<title>libflint&#45;&gt;eclib</title>
<path fill="none" stroke="black" d="M136.69,-145.81C116.54,-134.96 89.35,-120.32 68.15,-108.9"/>
<polygon fill="black" stroke="black" points="70.07,-105.96 59.61,-104.3 66.75,-112.13 70.07,-105.96"/>
</g>
<!-- linbox -->
<g id="node4" class="node">
<title>linbox</title>
<g id="a_node4"><a xlink:href="https://github.com/conda-forge/linbox-feedstock" xlink:title="linbox">
<ellipse fill="#fde725" stroke="black" cx="129.9" cy="-90" rx="41.74" ry="18"/>
<text xml:space="preserve" text-anchor="middle" x="129.9" y="-85.33" font-family="Times,serif" font-size="14.00">linbox</text>
</a>
</g>
</g>
<!-- libflint&#45;&gt;linbox -->
<g id="edge4" class="edge">
<title>libflint&#45;&gt;linbox</title>
<path fill="none" stroke="black" d="M156.25,-143.7C152.43,-136.07 147.86,-126.92 143.6,-118.4"/>
<polygon fill="black" stroke="black" points="146.73,-116.84 139.13,-109.46 140.47,-119.97 146.73,-116.84"/>
</g>
<!-- libflint&#45;&gt;sagelib -->
<g id="edge5" class="edge">
<title>libflint&#45;&gt;sagelib</title>
<path fill="none" stroke="black" d="M170.45,-143.92C173.71,-133.58 177.79,-120.1 180.9,-108 186.08,-87.86 190.96,-64.9 194.47,-47.35"/>
<polygon fill="black" stroke="black" points="197.88,-48.13 196.38,-37.65 191.01,-46.78 197.88,-48.13"/>
</g>
<!-- singular -->
<g id="node6" class="node">
<title>singular</title>
<g id="a_node6"><a xlink:href="https://github.com/conda-forge/singular-feedstock" xlink:title="singular">
<ellipse fill="#fde725" stroke="black" cx="279.9" cy="-90" rx="52.26" ry="18"/>
<text xml:space="preserve" text-anchor="middle" x="279.9" y="-85.33" font-family="Times,serif" font-size="14.00">singular</text>
</a>
</g>
</g>
<!-- libflint&#45;&gt;singular -->
<g id="edge6" class="edge">
<title>libflint&#45;&gt;singular</title>
<path fill="none" stroke="black" d="M190.42,-145.46C206.61,-135.61 227.76,-122.73 245.44,-111.98"/>
<polygon fill="black" stroke="black" points="246.83,-115.23 253.55,-107.04 243.19,-109.25 246.83,-115.23"/>
</g>
<!-- linbox&#45;&gt;sagelib -->
<g id="edge7" class="edge">
<title>linbox&#45;&gt;sagelib</title>
<path fill="none" stroke="black" d="M145.78,-73.12C154.61,-64.29 165.77,-53.13 175.66,-43.24"/>
<polygon fill="black" stroke="black" points="177.93,-45.92 182.52,-36.38 172.98,-40.97 177.93,-45.92"/>
</g>
<!-- singular&#45;&gt;sagelib -->
<g id="edge8" class="edge">
<title>singular&#45;&gt;sagelib</title>
<path fill="none" stroke="black" d="M261.34,-72.76C250.97,-63.69 237.87,-52.22 226.43,-42.21"/>
<polygon fill="black" stroke="black" points="229.05,-39.85 219.22,-35.9 224.44,-45.12 229.05,-39.85"/>
</g>
<!-- latte&#45;integrale -->
<g id="node7" class="node">
<title>latte&#45;integrale</title>
<g id="a_node7"><a xlink:href="https://github.com/conda-forge/latte-integrale-feedstock/pull/5" xlink:title="latte integrale ❎">
<ellipse fill="#31688e" stroke="black" cx="549.9" cy="-90" rx="98.03" ry="18"/>
<text xml:space="preserve" text-anchor="middle" x="549.9" y="-85.33" font-family="Times,serif" font-size="14.00" fill="white">latte integrale ❎</text>
</a>
</g>
</g>
<!-- barvinok -->
<g id="node8" class="node">
<title>barvinok</title>
<g id="a_node8"><a xlink:href="https://github.com/conda-forge/barvinok-feedstock/pull/14" xlink:title="barvinok ❎">
<ellipse fill="#31688e" stroke="black" cx="725.9" cy="-90" rx="70.15" ry="18"/>
<text xml:space="preserve" text-anchor="middle" x="725.9" y="-85.33" font-family="Times,serif" font-size="14.00" fill="white">barvinok ❎</text>
</a>
</g>
</g>
</g>
</svg>
