<?xml version="1.0" encoding="UTF-8" standalone="no"?>
<!DOCTYPE svg PUBLIC "-//W3C//DTD SVG 1.1//EN"
 "http://www.w3.org/Graphics/SVG/1.1/DTD/svg11.dtd">
<!-- Generated by graphviz version 13.1.2 (20250809.0930)
 -->
<!-- Pages: 1 -->
<svg width="388pt" height="116pt"
 viewBox="0.00 0.00 388.00 116.00" xmlns="http://www.w3.org/2000/svg" xmlns:xlink="http://www.w3.org/1999/xlink">
<g id="graph0" class="graph" transform="scale(1 1) rotate(0) translate(4 112)">
<polygon fill="white" stroke="none" points="-4,4 -4,-112 384.3,-112 384.3,4 -4,4"/>
<!-- giac -->
<g id="node1" class="node">
<title>giac</title>
<g id="a_node1"><a xlink:href="https://github.com/conda-forge/giac-feedstock/pull/35" xlink:title="giac ❎">
<ellipse fill="#31688e" stroke="black" cx="185.15" cy="-90" rx="47" ry="18"/>
<text xml:space="preserve" text-anchor="middle" x="185.15" y="-85.33" font-family="Times,serif" font-size="14.00" fill="white">giac ❎</text>
</a>
</g>
</g>
<!-- sagelib -->
<g id="node2" class="node">
<title>sagelib</title>
<g id="a_node2"><a xlink:href="https://github.com/conda-forge/sagelib-feedstock" xlink:title="sagelib">
<ellipse fill="#fde725" stroke="black" cx="122.15" cy="-18" rx="47" ry="18"/>
<text xml:space="preserve" text-anchor="middle" x="122.15" y="-13.32" font-family="Times,serif" font-size="14.00">sagelib</text>
</a>
</g>
</g>
<!-- giac&#45;&gt;sagelib -->
<g id="edge1" class="edge">
<title>giac&#45;&gt;sagelib</title>
<path fill="none" stroke="black" d="M170.54,-72.76C162.75,-64.11 153,-53.27 144.3,-43.6"/>
<polygon fill="black" stroke="black" points="146.99,-41.36 137.7,-36.27 141.79,-46.05 146.99,-41.36"/>
</g>
<!-- singular -->
<g id="node3" class="node">
<title>singular</title>
<g id="a_node3"><a xlink:href="https://github.com/conda-forge/singular-feedstock/pull/33" xlink:title="singular ✓">
<ellipse fill="#31688e" stroke="black" cx="60.15" cy="-90" rx="60.15" ry="18"/>
<text xml:space="preserve" text-anchor="middle" x="60.15" y="-85.33" font-family="Times,serif" font-size="14.00" fill="white">singular ✓</text>
</a>
</g>
</g>
<!-- singular&#45;&gt;sagelib -->
<g id="edge2" class="edge">
<title>singular&#45;&gt;sagelib</title>
<path fill="none" stroke="black" d="M74.85,-72.41C82.33,-63.95 91.6,-53.49 99.94,-44.08"/>
<polygon fill="black" stroke="black" points="102.55,-46.41 106.56,-36.6 97.31,-41.77 102.55,-46.41"/>
</g>
<!-- barvinok -->
<g id="node4" class="node">
<title>barvinok</title>
<g id="a_node4"><a xlink:href="https://github.com/conda-forge/barvinok-feedstock/pull/14" xlink:title="barvinok ❎">
<ellipse fill="#31688e" stroke="black" cx="310.15" cy="-54" rx="70.15" ry="18"/>
<text xml:space="preserve" text-anchor="middle" x="310.15" y="-49.33" font-family="Times,serif" font-size="14.00" fill="white">barvinok ❎</text>
</a>
</g>
</g>
</g>
</svg>
