<?xml version="1.0" encoding="UTF-8" standalone="no"?>
<!DOCTYPE svg PUBLIC "-//W3C//DTD SVG 1.1//EN"
 "http://www.w3.org/Graphics/SVG/1.1/DTD/svg11.dtd">
<!-- Generated by graphviz version 12.2.1 (20250203.1708)
 -->
<!-- Pages: 1 -->
<svg width="2804pt" height="448pt"
 viewBox="0.00 0.00 2804.38 448.00" xmlns="http://www.w3.org/2000/svg" xmlns:xlink="http://www.w3.org/1999/xlink">
<g id="graph0" class="graph" transform="scale(1 1) rotate(0) translate(4 444)">
<polygon fill="white" stroke="none" points="-4,4 -4,-444 2800.38,-444 2800.38,4 -4,4"/>
<!-- cudatoolkit -->
<g id="node1" class="node">
<title>cudatoolkit</title>
<g id="a_node1"><a xlink:href="https://github.com/conda-forge/cudatoolkit-feedstock/pull/108" xlink:title="cudatoolkit ❎">
<ellipse fill="#31688e" stroke="black" cx="1839.25" cy="-278" rx="82.25" ry="18"/>
<text text-anchor="middle" x="1839.25" y="-273.32" font-family="Times,serif" font-size="14.00" fill="white">cudatoolkit ❎</text>
</a>
</g>
</g>
<!-- cudatoolkit&#45;&gt;cudatoolkit -->
<g id="edge1" class="edge">
<title>cudatoolkit&#45;&gt;cudatoolkit</title>
<path fill="none" stroke="black" d="M1896.19,-291.39C1919.66,-292.27 1939.5,-287.81 1939.5,-278 1939.5,-269.84 1925.76,-265.38 1907.63,-264.62"/>
<polygon fill="black" stroke="black" points="1907.7,-261.12 1897.7,-264.61 1907.7,-268.12 1907.7,-261.12"/>
</g>
<!-- cudnn -->
<g id="node2" class="node">
<title>cudnn</title>
<g id="a_node2"><a xlink:href="https://github.com/conda-forge/cudnn-feedstock/pull/112" xlink:title="cudnn ✓">
<ellipse fill="#31688e" stroke="black" cx="1761.25" cy="-206" rx="49.63" ry="18"/>
<text text-anchor="middle" x="1761.25" y="-201.32" font-family="Times,serif" font-size="14.00" fill="white">cudnn ✓</text>
</a>
</g>
</g>
<!-- cudatoolkit&#45;&gt;cudnn -->
<g id="edge2" class="edge">
<title>cudatoolkit&#45;&gt;cudnn</title>
<path fill="none" stroke="black" d="M1820.37,-260.05C1810.48,-251.18 1798.21,-240.17 1787.42,-230.49"/>
<polygon fill="black" stroke="black" points="1790.06,-228.15 1780.28,-224.08 1785.39,-233.36 1790.06,-228.15"/>
</g>
<!-- cutensor -->
<g id="node3" class="node">
<title>cutensor</title>
<g id="a_node3"><a xlink:href="https://github.com/conda-forge/cutensor-feedstock/pull/69" xlink:title="cutensor ❎">
<ellipse fill="#31688e" stroke="black" cx="1740.25" cy="-134" rx="70.15" ry="18"/>
<text text-anchor="middle" x="1740.25" y="-129.32" font-family="Times,serif" font-size="14.00" fill="white">cutensor ❎</text>
</a>
</g>
</g>
<!-- cudatoolkit&#45;&gt;cutensor -->
<g id="edge3" class="edge">
<title>cudatoolkit&#45;&gt;cutensor</title>
<path fill="none" stroke="black" d="M1848.39,-259.86C1857.16,-240.83 1867.18,-209.91 1853.25,-188 1841.93,-170.18 1822.85,-158.24 1803.56,-150.3"/>
<polygon fill="black" stroke="black" points="1804.88,-147.06 1794.29,-146.81 1802.42,-153.61 1804.88,-147.06"/>
</g>
<!-- libcal -->
<g id="node4" class="node">
<title>libcal</title>
<g id="a_node4"><a xlink:href="https://github.com/conda-forge/libcal-feedstock/pull/8" xlink:title="libcal ❎">
<ellipse fill="#31688e" stroke="black" cx="1963.25" cy="-206" rx="53.31" ry="18"/>
<text text-anchor="middle" x="1963.25" y="-201.32" font-family="Times,serif" font-size="14.00" fill="white">libcal ❎</text>
</a>
</g>
</g>
<!-- cudatoolkit&#45;&gt;libcal -->
<g id="edge4" class="edge">
<title>cudatoolkit&#45;&gt;libcal</title>
<path fill="none" stroke="black" d="M1868.01,-260.76C1885.52,-250.88 1908.04,-238.17 1926.79,-227.58"/>
<polygon fill="black" stroke="black" points="1928.46,-230.66 1935.45,-222.7 1925.02,-224.56 1928.46,-230.66"/>
</g>
<!-- libcudss -->
<g id="node5" class="node">
<title>libcudss</title>
<g id="a_node5"><a xlink:href="https://github.com/conda-forge/libcudss-feedstock/pull/13" xlink:title="libcudss ✓">
<ellipse fill="#31688e" stroke="black" cx="1615.25" cy="-206" rx="60.15" ry="18"/>
<text text-anchor="middle" x="1615.25" y="-201.32" font-family="Times,serif" font-size="14.00" fill="white">libcudss ✓</text>
</a>
</g>
</g>
<!-- cudatoolkit&#45;&gt;libcudss -->
<g id="edge5" class="edge">
<title>cudatoolkit&#45;&gt;libcudss</title>
<path fill="none" stroke="black" d="M1793.38,-262.67C1756.57,-251.16 1704.91,-235.02 1666.69,-223.08"/>
<polygon fill="black" stroke="black" points="1667.83,-219.76 1657.24,-220.12 1665.74,-226.45 1667.83,-219.76"/>
</g>
<!-- libnvshmem -->
<g id="node6" class="node">
<title>libnvshmem</title>
<g id="a_node6"><a xlink:href="https://github.com/conda-forge/libnvshmem-feedstock/pull/3" xlink:title="libnvshmem ✓">
<ellipse fill="#31688e" stroke="black" cx="2132.25" cy="-206" rx="80.14" ry="18"/>
<text text-anchor="middle" x="2132.25" y="-201.32" font-family="Times,serif" font-size="14.00" fill="white">libnvshmem ✓</text>
</a>
</g>
</g>
<!-- cudatoolkit&#45;&gt;libnvshmem -->
<g id="edge6" class="edge">
<title>cudatoolkit&#45;&gt;libnvshmem</title>
<path fill="none" stroke="black" d="M1893.33,-264.08C1942.63,-252.3 2015.52,-234.89 2067.82,-222.39"/>
<polygon fill="black" stroke="black" points="2068.59,-225.81 2077.51,-220.08 2066.97,-219 2068.59,-225.81"/>
</g>
<!-- holoscan -->
<g id="node7" class="node">
<title>holoscan</title>
<g id="a_node7"><a xlink:href="https://github.com/conda-forge/holoscan-feedstock/pull/3" xlink:title="holoscan ✓">
<ellipse fill="#31688e" stroke="black" cx="1452.25" cy="-134" rx="62.78" ry="18"/>
<text text-anchor="middle" x="1452.25" y="-129.32" font-family="Times,serif" font-size="14.00" fill="white">holoscan ✓</text>
</a>
</g>
</g>
<!-- cudatoolkit&#45;&gt;holoscan -->
<g id="edge7" class="edge">
<title>cudatoolkit&#45;&gt;holoscan</title>
<path fill="none" stroke="black" d="M1840.9,-259.83C1841.81,-239.57 1839.87,-206.34 1820.25,-188 1798.94,-168.08 1624.21,-149.86 1523.37,-140.88"/>
<polygon fill="black" stroke="black" points="1523.83,-137.4 1513.56,-140.01 1523.22,-144.38 1523.83,-137.4"/>
</g>
<!-- cudnn&#45;&gt;holoscan -->
<g id="edge8" class="edge">
<title>cudnn&#45;&gt;holoscan</title>
<path fill="none" stroke="black" d="M1723.91,-193.8C1716.74,-191.78 1709.29,-189.76 1702.25,-188 1638.62,-172.11 1565.12,-156.9 1514.36,-146.88"/>
<polygon fill="black" stroke="black" points="1515.22,-143.48 1504.74,-144.99 1513.87,-150.35 1515.22,-143.48"/>
</g>
<!-- libcal&#45;&gt;libcal -->
<g id="edge9" class="edge">
<title>libcal&#45;&gt;libcal</title>
<path fill="none" stroke="black" d="M2000.67,-219.17C2018.68,-220.8 2034.56,-216.41 2034.56,-206 2034.56,-197.87 2024.87,-193.41 2012.04,-192.63"/>
<polygon fill="black" stroke="black" points="2012.12,-189.12 2002.19,-192.8 2012.25,-196.12 2012.12,-189.12"/>
</g>
<!-- cublasmp -->
<g id="node8" class="node">
<title>cublasmp</title>
<g id="a_node8"><a xlink:href="https://github.com/conda-forge/cublasmp-feedstock/pull/9" xlink:title="cublasmp ✓">
<ellipse fill="#31688e" stroke="black" cx="2142.25" cy="-62" rx="66.99" ry="18"/>
<text text-anchor="middle" x="2142.25" y="-57.33" font-family="Times,serif" font-size="14.00" fill="white">cublasmp ✓</text>
</a>
</g>
</g>
<!-- libcal&#45;&gt;cublasmp -->
<g id="edge10" class="edge">
<title>libcal&#45;&gt;cublasmp</title>
<path fill="none" stroke="black" d="M2004.69,-194.3C2030.61,-186.03 2063.47,-172.46 2087.25,-152 2106.68,-135.28 2121.4,-109.96 2130.7,-90.59"/>
<polygon fill="black" stroke="black" points="2133.82,-92.19 2134.79,-81.64 2127.45,-89.28 2133.82,-92.19"/>
</g>
<!-- libcublasmp -->
<g id="node9" class="node">
<title>libcublasmp</title>
<g id="a_node9"><a xlink:href="https://github.com/conda-forge/libcublasmp-feedstock/pull/11" xlink:title="libcublasmp ✓">
<ellipse fill="#31688e" stroke="black" cx="2214.25" cy="-134" rx="79.62" ry="18"/>
<text text-anchor="middle" x="2214.25" y="-129.32" font-family="Times,serif" font-size="14.00" fill="white">libcublasmp ✓</text>
</a>
</g>
</g>
<!-- libcal&#45;&gt;libcublasmp -->
<g id="edge11" class="edge">
<title>libcal&#45;&gt;libcublasmp</title>
<path fill="none" stroke="black" d="M2003.58,-193.75C2044.38,-182.38 2107.91,-164.66 2154.55,-151.65"/>
<polygon fill="black" stroke="black" points="2155.27,-155.08 2163.96,-149.03 2153.38,-148.34 2155.27,-155.08"/>
</g>
<!-- cusolvermp -->
<g id="node10" class="node">
<title>cusolvermp</title>
<g id="a_node10"><a xlink:href="https://github.com/conda-forge/cusolvermp-feedstock/pull/2" xlink:title="cusolvermp ✓">
<ellipse fill="#31688e" stroke="black" cx="1927.25" cy="-62" rx="76.99" ry="18"/>
<text text-anchor="middle" x="1927.25" y="-57.33" font-family="Times,serif" font-size="14.00" fill="white">cusolvermp ✓</text>
</a>
</g>
</g>
<!-- libcal&#45;&gt;cusolvermp -->
<g id="edge12" class="edge">
<title>libcal&#45;&gt;cusolvermp</title>
<path fill="none" stroke="black" d="M1920.1,-195.12C1897.18,-187.45 1870.99,-174.23 1857.25,-152 1848.84,-138.39 1850.13,-130.33 1857.25,-116 1863.46,-103.52 1874.15,-93.2 1885.34,-85.08"/>
<polygon fill="black" stroke="black" points="1887.14,-88.09 1893.52,-79.62 1883.26,-82.27 1887.14,-88.09"/>
</g>
<!-- libcusolvermp -->
<g id="node11" class="node">
<title>libcusolvermp</title>
<g id="a_node11"><a xlink:href="https://github.com/conda-forge/libcusolvermp-feedstock/pull/6" xlink:title="libcusolvermp ❎">
<ellipse fill="#31688e" stroke="black" cx="1963.25" cy="-134" rx="96.98" ry="18"/>
<text text-anchor="middle" x="1963.25" y="-129.32" font-family="Times,serif" font-size="14.00" fill="white">libcusolvermp ❎</text>
</a>
</g>
</g>
<!-- libcal&#45;&gt;libcusolvermp -->
<g id="edge13" class="edge">
<title>libcal&#45;&gt;libcusolvermp</title>
<path fill="none" stroke="black" d="M1963.25,-187.7C1963.25,-180.41 1963.25,-171.73 1963.25,-163.54"/>
<polygon fill="black" stroke="black" points="1966.75,-163.62 1963.25,-153.62 1959.75,-163.62 1966.75,-163.62"/>
</g>
<!-- libcudss&#45;&gt;libcudss -->
<g id="edge14" class="edge">
<title>libcudss&#45;&gt;libcudss</title>
<path fill="none" stroke="black" d="M1657.46,-219.26C1676.69,-220.62 1693.4,-216.2 1693.4,-206 1693.4,-197.88 1682.79,-193.42 1668.75,-192.63"/>
<polygon fill="black" stroke="black" points="1668.94,-189.13 1658.97,-192.72 1669.01,-196.13 1668.94,-189.13"/>
</g>
<!-- libcudss&#45;&gt;holoscan -->
<g id="edge15" class="edge">
<title>libcudss&#45;&gt;holoscan</title>
<path fill="none" stroke="black" d="M1581.87,-190.67C1557.21,-180.07 1523.38,-165.54 1496.46,-153.99"/>
<polygon fill="black" stroke="black" points="1498.11,-150.88 1487.54,-150.15 1495.34,-157.32 1498.11,-150.88"/>
</g>
<!-- libnvshmem&#45;&gt;libnvshmem -->
<g id="edge16" class="edge">
<title>libnvshmem&#45;&gt;libnvshmem</title>
<path fill="none" stroke="black" d="M2187.74,-219.38C2210.83,-220.3 2230.4,-215.84 2230.4,-206 2230.4,-197.85 2216.98,-193.39 2199.25,-192.62"/>
<polygon fill="black" stroke="black" points="2199.26,-189.12 2189.26,-192.62 2199.26,-196.12 2199.26,-189.12"/>
</g>
<!-- libnvshmem&#45;&gt;libcublasmp -->
<g id="edge17" class="edge">
<title>libnvshmem&#45;&gt;libcublasmp</title>
<path fill="none" stroke="black" d="M2151.69,-188.41C2161.92,-179.67 2174.67,-168.79 2185.99,-159.13"/>
<polygon fill="black" stroke="black" points="2188.19,-161.85 2193.52,-152.7 2183.65,-156.53 2188.19,-161.85"/>
</g>
<!-- holoscan&#45;&gt;holoscan -->
<g id="edge18" class="edge">
<title>holoscan&#45;&gt;holoscan</title>
<path fill="none" stroke="black" d="M1495.88,-147.26C1515.76,-148.62 1533.04,-144.2 1533.04,-134 1533.04,-125.8 1521.85,-121.33 1507.12,-120.61"/>
<polygon fill="black" stroke="black" points="1507.35,-117.1 1497.4,-120.72 1507.44,-124.1 1507.35,-117.1"/>
</g>
<!-- libcublasmp&#45;&gt;cublasmp -->
<g id="edge59" class="edge">
<title>libcublasmp&#45;&gt;cublasmp</title>
<path fill="none" stroke="black" d="M2196.82,-116.05C2188.07,-107.54 2177.29,-97.07 2167.64,-87.68"/>
<polygon fill="black" stroke="black" points="2170.22,-85.31 2160.61,-80.84 2165.34,-90.32 2170.22,-85.31"/>
</g>
<!-- libcublasmp&#45;&gt;libcublasmp -->
<g id="edge60" class="edge">
<title>libcublasmp&#45;&gt;libcublasmp</title>
<path fill="none" stroke="black" d="M2269.45,-147.38C2292.41,-148.3 2311.87,-143.84 2311.87,-134 2311.87,-125.85 2298.52,-121.39 2280.89,-120.62"/>
<polygon fill="black" stroke="black" points="2280.96,-117.12 2270.96,-120.62 2280.96,-124.12 2280.96,-117.12"/>
</g>
<!-- libcusolvermp&#45;&gt;cusolvermp -->
<g id="edge61" class="edge">
<title>libcusolvermp&#45;&gt;cusolvermp</title>
<path fill="none" stroke="black" d="M1954.35,-115.7C1950.39,-107.98 1945.62,-98.71 1941.2,-90.11"/>
<polygon fill="black" stroke="black" points="1944.43,-88.74 1936.74,-81.45 1938.2,-91.94 1944.43,-88.74"/>
</g>
<!-- libcusolvermp&#45;&gt;libcusolvermp -->
<g id="edge62" class="edge">
<title>libcusolvermp&#45;&gt;libcusolvermp</title>
<path fill="none" stroke="black" d="M2030,-147.43C2056.28,-148.11 2078.23,-143.63 2078.23,-134 2078.23,-125.8 2062.31,-121.33 2041.36,-120.61"/>
<polygon fill="black" stroke="black" points="2041.52,-117.11 2031.51,-120.57 2041.5,-124.11 2041.52,-117.11"/>
</g>
<!-- cusparselt -->
<g id="node12" class="node">
<title>cusparselt</title>
<g id="a_node12"><a xlink:href="https://github.com/conda-forge/cusparselt-feedstock/pull/63" xlink:title="cusparselt ✓">
<ellipse fill="#31688e" stroke="black" cx="723.25" cy="-206" rx="71.2" ry="18"/>
<text text-anchor="middle" x="723.25" y="-201.32" font-family="Times,serif" font-size="14.00" fill="white">cusparselt ✓</text>
</a>
</g>
</g>
<!-- cusparselt&#45;&gt;holoscan -->
<g id="edge19" class="edge">
<title>cusparselt&#45;&gt;holoscan</title>
<path fill="none" stroke="black" d="M779.09,-194.44C792.84,-192.08 807.55,-189.76 821.25,-188 1022.8,-162.1 1262.27,-145.97 1379.82,-139.01"/>
<polygon fill="black" stroke="black" points="1379.86,-142.51 1389.64,-138.43 1379.45,-135.52 1379.86,-142.51"/>
</g>
<!-- cusparselt&#45;&gt;cusparselt -->
<g id="edge20" class="edge">
<title>cusparselt&#45;&gt;cusparselt</title>
<path fill="none" stroke="black" d="M772.79,-219.34C794.16,-220.43 812.45,-215.98 812.45,-206 812.45,-197.81 800.14,-193.35 783.92,-192.61"/>
<polygon fill="black" stroke="black" points="784.28,-189.11 774.3,-192.65 784.32,-196.11 784.28,-189.11"/>
</g>
<!-- libcusparse -->
<g id="node13" class="node">
<title>libcusparse</title>
<g id="a_node13"><a xlink:href="https://github.com/conda-forge/libcusparse-feedstock/pull/22" xlink:title="libcusparse ❎">
<ellipse fill="#31688e" stroke="black" cx="612.25" cy="-278" rx="83.83" ry="18"/>
<text text-anchor="middle" x="612.25" y="-273.32" font-family="Times,serif" font-size="14.00" fill="white">libcusparse ❎</text>
</a>
</g>
</g>
<!-- libcusparse&#45;&gt;holoscan -->
<g id="edge21" class="edge">
<title>libcusparse&#45;&gt;holoscan</title>
<path fill="none" stroke="black" d="M612.87,-259.68C614.64,-238.96 620.99,-204.94 643.25,-188 700.88,-144.14 1188.76,-136.55 1377.82,-135.26"/>
<polygon fill="black" stroke="black" points="1377.8,-138.76 1387.78,-135.19 1377.76,-131.76 1377.8,-138.76"/>
</g>
<!-- libcusparse&#45;&gt;cusparselt -->
<g id="edge22" class="edge">
<title>libcusparse&#45;&gt;cusparselt</title>
<path fill="none" stroke="black" d="M638.28,-260.59C653.14,-251.22 671.96,-239.34 688.12,-229.16"/>
<polygon fill="black" stroke="black" points="689.9,-232.17 696.49,-223.88 686.17,-226.25 689.9,-232.17"/>
</g>
<!-- libcusparse&#45;&gt;libcusparse -->
<g id="edge23" class="edge">
<title>libcusparse&#45;&gt;libcusparse</title>
<path fill="none" stroke="black" d="M670.34,-291.4C694.07,-292.24 714.08,-287.77 714.08,-278 714.08,-269.83 700.09,-265.37 681.65,-264.61"/>
<polygon fill="black" stroke="black" points="681.86,-261.12 671.85,-264.6 681.85,-268.12 681.86,-261.12"/>
</g>
<!-- cuda&#45;libraries&#45;static -->
<g id="node14" class="node">
<title>cuda&#45;libraries&#45;static</title>
<g id="a_node14"><a xlink:href="https://github.com/conda-forge/cuda-libraries-static-feedstock/pull/21" xlink:title="cuda libraries static ✓">
<ellipse fill="#31688e" stroke="black" cx="949.25" cy="-206" rx="119.08" ry="18"/>
<text text-anchor="middle" x="949.25" y="-201.32" font-family="Times,serif" font-size="14.00" fill="white">cuda libraries static ✓</text>
</a>
</g>
</g>
<!-- libcusparse&#45;&gt;cuda&#45;libraries&#45;static -->
<g id="edge24" class="edge">
<title>libcusparse&#45;&gt;cuda&#45;libraries&#45;static</title>
<path fill="none" stroke="black" d="M670.95,-264.81C726.08,-253.36 808.97,-236.14 869.95,-223.47"/>
<polygon fill="black" stroke="black" points="870.51,-226.93 879.59,-221.47 869.09,-220.08 870.51,-226.93"/>
</g>
<!-- cuda&#45;libraries -->
<g id="node15" class="node">
<title>cuda&#45;libraries</title>
<g id="a_node15"><a xlink:href="https://github.com/conda-forge/cuda-libraries-feedstock/pull/20" xlink:title="cuda libraries ✓">
<ellipse fill="#31688e" stroke="black" cx="1174.25" cy="-206" rx="88.04" ry="18"/>
<text text-anchor="middle" x="1174.25" y="-201.32" font-family="Times,serif" font-size="14.00" fill="white">cuda libraries ✓</text>
</a>
</g>
</g>
<!-- libcusparse&#45;&gt;cuda&#45;libraries -->
<g id="edge25" class="edge">
<title>libcusparse&#45;&gt;cuda&#45;libraries</title>
<path fill="none" stroke="black" d="M677.62,-266.43C692.59,-264.16 708.46,-261.88 723.25,-260 880.13,-240.02 920.6,-245.66 1077.25,-224 1084.45,-223 1091.93,-221.87 1099.4,-220.67"/>
<polygon fill="black" stroke="black" points="1099.91,-224.14 1109.21,-219.06 1098.77,-217.23 1099.91,-224.14"/>
</g>
<!-- libcufile -->
<g id="node16" class="node">
<title>libcufile</title>
<g id="a_node16"><a xlink:href="https://github.com/conda-forge/libcufile-feedstock/pull/31" xlink:title="libcufile ❎">
<ellipse fill="#31688e" stroke="black" cx="1355.25" cy="-278" rx="65.94" ry="18"/>
<text text-anchor="middle" x="1355.25" y="-273.32" font-family="Times,serif" font-size="14.00" fill="white">libcufile ❎</text>
</a>
</g>
</g>
<!-- libcufile&#45;&gt;holoscan -->
<g id="edge26" class="edge">
<title>libcufile&#45;&gt;holoscan</title>
<path fill="none" stroke="black" d="M1388.22,-262.04C1404.17,-253.18 1422.2,-240.44 1433.25,-224 1445.26,-206.15 1449.87,-182.11 1451.55,-163.51"/>
<polygon fill="black" stroke="black" points="1455.04,-163.91 1452.19,-153.71 1448.05,-163.46 1455.04,-163.91"/>
</g>
<!-- libcufile&#45;&gt;cuda&#45;libraries&#45;static -->
<g id="edge27" class="edge">
<title>libcufile&#45;&gt;cuda&#45;libraries&#45;static</title>
<path fill="none" stroke="black" d="M1306.53,-265.48C1297.8,-263.55 1288.77,-261.65 1280.25,-260 1201.39,-244.76 1111.35,-230.55 1045.11,-220.69"/>
<polygon fill="black" stroke="black" points="1045.77,-217.25 1035.36,-219.24 1044.74,-224.17 1045.77,-217.25"/>
</g>
<!-- libcufile&#45;&gt;cuda&#45;libraries -->
<g id="edge28" class="edge">
<title>libcufile&#45;&gt;cuda&#45;libraries</title>
<path fill="none" stroke="black" d="M1318.19,-262.67C1291.2,-252.23 1254.33,-237.97 1224.67,-226.5"/>
<polygon fill="black" stroke="black" points="1226.09,-223.3 1215.51,-222.95 1223.57,-229.83 1226.09,-223.3"/>
</g>
<!-- libcufile&#45;&gt;libcufile -->
<g id="edge29" class="edge">
<title>libcufile&#45;&gt;libcufile</title>
<path fill="none" stroke="black" d="M1401.01,-291.29C1421.49,-292.55 1439.19,-288.12 1439.19,-278 1439.19,-269.77 1427.5,-265.31 1412.14,-264.6"/>
<polygon fill="black" stroke="black" points="1412.49,-261.1 1402.53,-264.7 1412.56,-268.1 1412.49,-261.1"/>
</g>
<!-- nvidia&#45;gds -->
<g id="node17" class="node">
<title>nvidia&#45;gds</title>
<g id="a_node17"><a xlink:href="https://github.com/conda-forge/nvidia-gds-feedstock/pull/20" xlink:title="nvidia gds ✓">
<ellipse fill="#31688e" stroke="black" cx="1353.25" cy="-206" rx="70.68" ry="18"/>
<text text-anchor="middle" x="1353.25" y="-201.32" font-family="Times,serif" font-size="14.00" fill="white">nvidia gds ✓</text>
</a>
</g>
</g>
<!-- libcufile&#45;&gt;nvidia&#45;gds -->
<g id="edge30" class="edge">
<title>libcufile&#45;&gt;nvidia&#45;gds</title>
<path fill="none" stroke="black" d="M1354.76,-259.7C1354.55,-252.41 1354.3,-243.73 1354.07,-235.54"/>
<polygon fill="black" stroke="black" points="1357.57,-235.51 1353.78,-225.62 1350.57,-235.71 1357.57,-235.51"/>
</g>
<!-- libnvjpeg -->
<g id="node18" class="node">
<title>libnvjpeg</title>
<g id="a_node18"><a xlink:href="https://github.com/conda-forge/libnvjpeg-feedstock/pull/19" xlink:title="libnvjpeg ✓">
<ellipse fill="#31688e" stroke="black" cx="797.25" cy="-278" rx="65.41" ry="18"/>
<text text-anchor="middle" x="797.25" y="-273.32" font-family="Times,serif" font-size="14.00" fill="white">libnvjpeg ✓</text>
</a>
</g>
</g>
<!-- libnvjpeg&#45;&gt;cuda&#45;libraries&#45;static -->
<g id="edge31" class="edge">
<title>libnvjpeg&#45;&gt;cuda&#45;libraries&#45;static</title>
<path fill="none" stroke="black" d="M829.86,-261.98C851.21,-252.15 879.44,-239.15 903.08,-228.26"/>
<polygon fill="black" stroke="black" points="904.25,-231.58 911.87,-224.22 901.32,-225.22 904.25,-231.58"/>
</g>
<!-- libnvjpeg&#45;&gt;cuda&#45;libraries -->
<g id="edge32" class="edge">
<title>libnvjpeg&#45;&gt;cuda&#45;libraries</title>
<path fill="none" stroke="black" d="M850.47,-267.12C915.53,-255.04 1026.03,-234.52 1099.58,-220.86"/>
<polygon fill="black" stroke="black" points="1099.92,-224.36 1109.12,-219.09 1098.65,-217.48 1099.92,-224.36"/>
</g>
<!-- libnvjpeg&#45;&gt;libnvjpeg -->
<g id="edge33" class="edge">
<title>libnvjpeg&#45;&gt;libnvjpeg</title>
<path fill="none" stroke="black" d="M842.73,-291.29C863.07,-292.55 880.67,-288.12 880.67,-278 880.67,-269.85 869.27,-265.39 854.22,-264.62"/>
<polygon fill="black" stroke="black" points="854.21,-261.12 844.24,-264.7 854.27,-268.12 854.21,-261.12"/>
</g>
<!-- cuda&#45;nvtx -->
<g id="node19" class="node">
<title>cuda&#45;nvtx</title>
<g id="a_node19"><a xlink:href="https://github.com/conda-forge/cuda-nvtx-feedstock/pull/29" xlink:title="cuda nvtx ❎">
<ellipse fill="#31688e" stroke="black" cx="465.25" cy="-206" rx="75.41" ry="18"/>
<text text-anchor="middle" x="465.25" y="-201.32" font-family="Times,serif" font-size="14.00" fill="white">cuda nvtx ❎</text>
</a>
</g>
</g>
<!-- cuda&#45;nvtx&#45;&gt;holoscan -->
<g id="edge34" class="edge">
<title>cuda&#45;nvtx&#45;&gt;holoscan</title>
<path fill="none" stroke="black" d="M524.54,-194.53C540.03,-192.08 556.73,-189.7 572.25,-188 869.94,-155.47 1226.61,-141.7 1378.23,-137.02"/>
<polygon fill="black" stroke="black" points="1378.26,-140.52 1388.15,-136.72 1378.04,-133.53 1378.26,-140.52"/>
</g>
<!-- cuda&#45;nvtx&#45;&gt;cuda&#45;nvtx -->
<g id="edge35" class="edge">
<title>cuda&#45;nvtx&#45;&gt;cuda&#45;nvtx</title>
<path fill="none" stroke="black" d="M517.6,-219.36C539.77,-220.37 558.66,-215.91 558.66,-206 558.66,-197.79 545.71,-193.32 528.66,-192.6"/>
<polygon fill="black" stroke="black" points="529.1,-189.1 519.11,-192.63 529.12,-196.1 529.1,-189.1"/>
</g>
<!-- cuda&#45;command&#45;line&#45;tools -->
<g id="node20" class="node">
<title>cuda&#45;command&#45;line&#45;tools</title>
<g id="a_node20"><a xlink:href="https://github.com/conda-forge/cuda-command-line-tools-feedstock/pull/23" xlink:title="cuda command line tools ✓">
<ellipse fill="#31688e" stroke="black" cx="229.25" cy="-134" rx="143.28" ry="18"/>
<text text-anchor="middle" x="229.25" y="-129.32" font-family="Times,serif" font-size="14.00" fill="white">cuda command line tools ✓</text>
</a>
</g>
</g>
<!-- cuda&#45;nvtx&#45;&gt;cuda&#45;command&#45;line&#45;tools -->
<g id="edge36" class="edge">
<title>cuda&#45;nvtx&#45;&gt;cuda&#45;command&#45;line&#45;tools</title>
<path fill="none" stroke="black" d="M419.19,-191.34C383.63,-180.79 333.98,-166.06 294.36,-154.31"/>
<polygon fill="black" stroke="black" points="295.51,-151 284.92,-151.51 293.51,-157.71 295.51,-151"/>
</g>
<!-- cuda&#45;nvml&#45;dev -->
<g id="node21" class="node">
<title>cuda&#45;nvml&#45;dev</title>
<g id="a_node21"><a xlink:href="https://github.com/conda-forge/cuda-nvml-dev-feedstock/pull/21" xlink:title="cuda nvml dev ✓">
<ellipse fill="#31688e" stroke="black" cx="1784.25" cy="-350" rx="91.72" ry="18"/>
<text text-anchor="middle" x="1784.25" y="-345.32" font-family="Times,serif" font-size="14.00" fill="white">cuda nvml dev ✓</text>
</a>
</g>
</g>
<!-- cuda&#45;nvml&#45;dev&#45;&gt;cudatoolkit -->
<g id="edge37" class="edge">
<title>cuda&#45;nvml&#45;dev&#45;&gt;cudatoolkit</title>
<path fill="none" stroke="black" d="M1797.57,-332.05C1803.98,-323.89 1811.82,-313.91 1818.96,-304.82"/>
<polygon fill="black" stroke="black" points="1821.7,-307 1825.13,-296.98 1816.2,-302.68 1821.7,-307"/>
</g>
<!-- cuda&#45;nvml&#45;dev&#45;&gt;libcal -->
<g id="edge38" class="edge">
<title>cuda&#45;nvml&#45;dev&#45;&gt;libcal</title>
<path fill="none" stroke="black" d="M1864.13,-340.86C1894.63,-333.71 1927.12,-320.45 1948.25,-296 1962.44,-279.58 1965.67,-254.89 1965.64,-235.67"/>
<polygon fill="black" stroke="black" points="1969.14,-235.65 1965.31,-225.77 1962.15,-235.88 1969.14,-235.65"/>
</g>
<!-- cuda&#45;nvml&#45;dev&#45;&gt;libcudss -->
<g id="edge39" class="edge">
<title>cuda&#45;nvml&#45;dev&#45;&gt;libcudss</title>
<path fill="none" stroke="black" d="M1771.65,-331.81C1757.09,-312.74 1731.74,-281.79 1705.25,-260 1690.06,-247.5 1671.58,-236.08 1655.33,-227.06"/>
<polygon fill="black" stroke="black" points="1657.34,-224.17 1646.88,-222.49 1654.01,-230.33 1657.34,-224.17"/>
</g>
<!-- cuda&#45;nvml&#45;dev&#45;&gt;libnvshmem -->
<g id="edge40" class="edge">
<title>cuda&#45;nvml&#45;dev&#45;&gt;libnvshmem</title>
<path fill="none" stroke="black" d="M1843.2,-335.81C1880.36,-326.62 1928.95,-312.98 1970.25,-296 2015.78,-277.29 2064.91,-249.04 2096.98,-229.41"/>
<polygon fill="black" stroke="black" points="2098.82,-232.39 2105.48,-224.16 2095.14,-226.44 2098.82,-232.39"/>
</g>
<!-- cuda&#45;nvml&#45;dev&#45;&gt;holoscan -->
<g id="edge41" class="edge">
<title>cuda&#45;nvml&#45;dev&#45;&gt;holoscan</title>
<path fill="none" stroke="black" d="M1756.41,-332.6C1740.73,-322.82 1721.16,-309.67 1705.25,-296 1688.79,-281.85 1690.72,-271.41 1672.25,-260 1622.71,-229.38 1596.85,-252.85 1546.25,-224 1517.47,-207.59 1490.67,-180.57 1473.1,-160.59"/>
<polygon fill="black" stroke="black" points="1475.87,-158.44 1466.7,-153.13 1470.55,-162.99 1475.87,-158.44"/>
</g>
<!-- cuda&#45;visual&#45;tools -->
<g id="node22" class="node">
<title>cuda&#45;visual&#45;tools</title>
<g id="a_node22"><a xlink:href="https://github.com/conda-forge/cuda-visual-tools-feedstock/pull/20" xlink:title="cuda visual tools ✓">
<ellipse fill="#31688e" stroke="black" cx="1560.25" cy="-278" rx="102.77" ry="18"/>
<text text-anchor="middle" x="1560.25" y="-273.32" font-family="Times,serif" font-size="14.00" fill="white">cuda visual tools ✓</text>
</a>
</g>
</g>
<!-- cuda&#45;nvml&#45;dev&#45;&gt;cuda&#45;visual&#45;tools -->
<g id="edge42" class="edge">
<title>cuda&#45;nvml&#45;dev&#45;&gt;cuda&#45;visual&#45;tools</title>
<path fill="none" stroke="black" d="M1736.75,-334.15C1702.5,-323.45 1656.05,-308.94 1619.4,-297.48"/>
<polygon fill="black" stroke="black" points="1620.88,-294.28 1610.29,-294.64 1618.79,-300.96 1620.88,-294.28"/>
</g>
<!-- cuda&#45;cupti -->
<g id="node23" class="node">
<title>cuda&#45;cupti</title>
<g id="a_node23"><a xlink:href="https://github.com/conda-forge/cuda-cupti-feedstock/pull/26" xlink:title="cuda cupti ❎">
<ellipse fill="#31688e" stroke="black" cx="286.25" cy="-278" rx="78.57" ry="18"/>
<text text-anchor="middle" x="286.25" y="-273.32" font-family="Times,serif" font-size="14.00" fill="white">cuda cupti ❎</text>
</a>
</g>
</g>
<!-- cuda&#45;cupti&#45;&gt;holoscan -->
<g id="edge43" class="edge">
<title>cuda&#45;cupti&#45;&gt;holoscan</title>
<path fill="none" stroke="black" d="M360.79,-272.03C419.01,-266.02 500.89,-252.84 567.25,-224 592.04,-213.23 590.85,-197.23 616.25,-188 755.1,-137.56 1200.1,-133.8 1377.86,-134.39"/>
<polygon fill="black" stroke="black" points="1377.65,-137.89 1387.67,-134.43 1377.68,-130.89 1377.65,-137.89"/>
</g>
<!-- cuda&#45;cupti&#45;&gt;cuda&#45;command&#45;line&#45;tools -->
<g id="edge44" class="edge">
<title>cuda&#45;cupti&#45;&gt;cuda&#45;command&#45;line&#45;tools</title>
<path fill="none" stroke="black" d="M240.56,-263.09C221.83,-254.89 202.06,-242.4 191.25,-224 179.44,-203.89 191.61,-179.42 205.23,-161.24"/>
<polygon fill="black" stroke="black" points="207.88,-163.52 211.41,-153.53 202.42,-159.14 207.88,-163.52"/>
</g>
<!-- cuda&#45;cupti&#45;&gt;cuda&#45;cupti -->
<g id="edge45" class="edge">
<title>cuda&#45;cupti&#45;&gt;cuda&#45;cupti</title>
<path fill="none" stroke="black" d="M340.36,-291.36C363.29,-292.37 382.82,-287.91 382.82,-278 382.82,-269.79 369.43,-265.32 351.8,-264.6"/>
<polygon fill="black" stroke="black" points="351.87,-261.1 341.88,-264.63 351.89,-268.1 351.87,-261.1"/>
</g>
<!-- cuda&#45;nvprof -->
<g id="node24" class="node">
<title>cuda&#45;nvprof</title>
<g id="a_node24"><a xlink:href="https://github.com/conda-forge/cuda-nvprof-feedstock/pull/20" xlink:title="cuda nvprof ❎">
<ellipse fill="#31688e" stroke="black" cx="286.25" cy="-206" rx="85.93" ry="18"/>
<text text-anchor="middle" x="286.25" y="-201.32" font-family="Times,serif" font-size="14.00" fill="white">cuda nvprof ❎</text>
</a>
</g>
</g>
<!-- cuda&#45;cupti&#45;&gt;cuda&#45;nvprof -->
<g id="edge46" class="edge">
<title>cuda&#45;cupti&#45;&gt;cuda&#45;nvprof</title>
<path fill="none" stroke="black" d="M286.25,-259.7C286.25,-252.41 286.25,-243.73 286.25,-235.54"/>
<polygon fill="black" stroke="black" points="289.75,-235.62 286.25,-225.62 282.75,-235.62 289.75,-235.62"/>
</g>
<!-- cuda&#45;nvprof&#45;&gt;cuda&#45;command&#45;line&#45;tools -->
<g id="edge47" class="edge">
<title>cuda&#45;nvprof&#45;&gt;cuda&#45;command&#45;line&#45;tools</title>
<path fill="none" stroke="black" d="M272.45,-188.05C265.83,-179.92 257.75,-170 250.38,-160.94"/>
<polygon fill="black" stroke="black" points="253.3,-158.99 244.28,-153.45 247.88,-163.41 253.3,-158.99"/>
</g>
<!-- cuda&#45;nsight -->
<g id="node25" class="node">
<title>cuda&#45;nsight</title>
<g id="a_node25"><a xlink:href="https://github.com/conda-forge/cuda-nsight-feedstock/pull/16" xlink:title="cuda nsight ❎">
<ellipse fill="#31688e" stroke="black" cx="1499.25" cy="-350" rx="84.88" ry="18"/>
<text text-anchor="middle" x="1499.25" y="-345.32" font-family="Times,serif" font-size="14.00" fill="white">cuda nsight ❎</text>
</a>
</g>
</g>
<!-- cuda&#45;nsight&#45;&gt;cuda&#45;visual&#45;tools -->
<g id="edge48" class="edge">
<title>cuda&#45;nsight&#45;&gt;cuda&#45;visual&#45;tools</title>
<path fill="none" stroke="black" d="M1514.02,-332.05C1521.11,-323.92 1529.75,-314 1537.65,-304.94"/>
<polygon fill="black" stroke="black" points="1540.27,-307.25 1544.2,-297.42 1535,-302.66 1540.27,-307.25"/>
</g>
<!-- cuda&#45;nvprune -->
<g id="node26" class="node">
<title>cuda&#45;nvprune</title>
<g id="a_node26"><a xlink:href="https://github.com/conda-forge/cuda-nvprune-feedstock/pull/17" xlink:title="cuda nvprune ✓">
<ellipse fill="#31688e" stroke="black" cx="2435.25" cy="-314" rx="87.51" ry="18"/>
<text text-anchor="middle" x="2435.25" y="-309.32" font-family="Times,serif" font-size="14.00" fill="white">cuda nvprune ✓</text>
</a>
</g>
</g>
<!-- cuda&#45;compiler -->
<g id="node27" class="node">
<title>cuda&#45;compiler</title>
<g id="a_node27"><a xlink:href="https://github.com/conda-forge/cuda-compiler-feedstock/pull/18" xlink:title="cuda compiler ✓">
<ellipse fill="#31688e" stroke="black" cx="2435.25" cy="-242" rx="89.61" ry="18"/>
<text text-anchor="middle" x="2435.25" y="-237.32" font-family="Times,serif" font-size="14.00" fill="white">cuda compiler ✓</text>
</a>
</g>
</g>
<!-- cuda&#45;nvprune&#45;&gt;cuda&#45;compiler -->
<g id="edge49" class="edge">
<title>cuda&#45;nvprune&#45;&gt;cuda&#45;compiler</title>
<path fill="none" stroke="black" d="M2435.25,-295.7C2435.25,-288.41 2435.25,-279.73 2435.25,-271.54"/>
<polygon fill="black" stroke="black" points="2438.75,-271.62 2435.25,-261.62 2431.75,-271.62 2438.75,-271.62"/>
</g>
<!-- cuda&#45;minimal&#45;build -->
<g id="node28" class="node">
<title>cuda&#45;minimal&#45;build</title>
<g id="a_node28"><a xlink:href="https://github.com/conda-forge/cuda-minimal-build-feedstock/pull/17" xlink:title="cuda minimal build ✓">
<ellipse fill="#31688e" stroke="black" cx="2435.25" cy="-170" rx="114.87" ry="18"/>
<text text-anchor="middle" x="2435.25" y="-165.32" font-family="Times,serif" font-size="14.00" fill="white">cuda minimal build ✓</text>
</a>
</g>
</g>
<!-- cuda&#45;compiler&#45;&gt;cuda&#45;minimal&#45;build -->
<g id="edge50" class="edge">
<title>cuda&#45;compiler&#45;&gt;cuda&#45;minimal&#45;build</title>
<path fill="none" stroke="black" d="M2435.25,-223.7C2435.25,-216.41 2435.25,-207.73 2435.25,-199.54"/>
<polygon fill="black" stroke="black" points="2438.75,-199.62 2435.25,-189.62 2431.75,-199.62 2438.75,-199.62"/>
</g>
<!-- cuda&#45;gdb -->
<g id="node29" class="node">
<title>cuda&#45;gdb</title>
<g id="a_node29"><a xlink:href="https://github.com/conda-forge/cuda-gdb-feedstock/pull/20" xlink:title="cuda gdb ❎">
<ellipse fill="#31688e" stroke="black" cx="72.25" cy="-206" rx="72.25" ry="18"/>
<text text-anchor="middle" x="72.25" y="-201.32" font-family="Times,serif" font-size="14.00" fill="white">cuda gdb ❎</text>
</a>
</g>
</g>
<!-- cuda&#45;gdb&#45;&gt;cuda&#45;command&#45;line&#45;tools -->
<g id="edge51" class="edge">
<title>cuda&#45;gdb&#45;&gt;cuda&#45;command&#45;line&#45;tools</title>
<path fill="none" stroke="black" d="M106.32,-189.81C128.24,-180.04 157.05,-167.19 181.27,-156.4"/>
<polygon fill="black" stroke="black" points="182.59,-159.64 190.3,-152.37 179.74,-153.24 182.59,-159.64"/>
</g>
<!-- cuda&#45;opencl -->
<g id="node30" class="node">
<title>cuda&#45;opencl</title>
<g id="a_node30"><a xlink:href="https://github.com/conda-forge/cuda-opencl-feedstock/pull/19" xlink:title="cuda opencl ✓">
<ellipse fill="#31688e" stroke="black" cx="1174.25" cy="-278" rx="78.57" ry="18"/>
<text text-anchor="middle" x="1174.25" y="-273.32" font-family="Times,serif" font-size="14.00" fill="white">cuda opencl ✓</text>
</a>
</g>
</g>
<!-- cuda&#45;opencl&#45;&gt;cuda&#45;libraries -->
<g id="edge52" class="edge">
<title>cuda&#45;opencl&#45;&gt;cuda&#45;libraries</title>
<path fill="none" stroke="black" d="M1174.25,-259.7C1174.25,-252.41 1174.25,-243.73 1174.25,-235.54"/>
<polygon fill="black" stroke="black" points="1177.75,-235.62 1174.25,-225.62 1170.75,-235.62 1177.75,-235.62"/>
</g>
<!-- cuda&#45;opencl&#45;&gt;cuda&#45;opencl -->
<g id="edge53" class="edge">
<title>cuda&#45;opencl&#45;&gt;cuda&#45;opencl</title>
<path fill="none" stroke="black" d="M1228.36,-291.36C1251.29,-292.37 1270.82,-287.91 1270.82,-278 1270.82,-269.79 1257.43,-265.32 1239.8,-264.6"/>
<polygon fill="black" stroke="black" points="1239.87,-261.1 1229.88,-264.63 1239.89,-268.1 1239.87,-261.1"/>
</g>
<!-- nvcomp -->
<g id="node31" class="node">
<title>nvcomp</title>
<g id="a_node31"><a xlink:href="https://github.com/conda-forge/nvcomp-feedstock/pull/19" xlink:title="nvcomp ❎">
<ellipse fill="#31688e" stroke="black" cx="2677.25" cy="-18" rx="65.41" ry="18"/>
<text text-anchor="middle" x="2677.25" y="-13.32" font-family="Times,serif" font-size="14.00" fill="white">nvcomp ❎</text>
</a>
</g>
</g>
<!-- cuda&#45;compat -->
<g id="node32" class="node">
<title>cuda&#45;compat</title>
<g id="a_node32"><a xlink:href="https://github.com/conda-forge/cuda-compat-feedstock/pull/18" xlink:title="cuda compat ❎">
<ellipse fill="#31688e" stroke="black" cx="1147.25" cy="-18" rx="90.14" ry="18"/>
<text text-anchor="middle" x="1147.25" y="-13.32" font-family="Times,serif" font-size="14.00" fill="white">cuda compat ❎</text>
</a>
</g>
</g>
<!-- cuda&#45;compat&#45;&gt;cuda&#45;compat -->
<g id="edge54" class="edge">
<title>cuda&#45;compat&#45;&gt;cuda&#45;compat</title>
<path fill="none" stroke="black" d="M1232.48,-24.22C1246.08,-23.31 1255.39,-21.23 1255.39,-18 1255.39,-15.78 1250.99,-14.1 1243.82,-12.98"/>
<polygon fill="black" stroke="black" points="1244.3,-9.51 1233.98,-11.94 1243.56,-16.47 1244.3,-9.51"/>
</g>
<!-- nsight&#45;compute -->
<g id="node33" class="node">
<title>nsight&#45;compute</title>
<g id="a_node33"><a xlink:href="https://github.com/conda-forge/nsight-compute-feedstock/pull/37" xlink:title="nsight compute ✓">
<ellipse fill="#31688e" stroke="black" cx="1612.25" cy="-422" rx="96.98" ry="18"/>
<text text-anchor="middle" x="1612.25" y="-417.32" font-family="Times,serif" font-size="14.00" fill="white">nsight compute ✓</text>
</a>
</g>
</g>
<!-- nsight&#45;compute&#45;&gt;cuda&#45;visual&#45;tools -->
<g id="edge55" class="edge">
<title>nsight&#45;compute&#45;&gt;cuda&#45;visual&#45;tools</title>
<path fill="none" stroke="black" d="M1610.37,-403.75C1607.96,-385.43 1602.89,-355.88 1593.25,-332 1589.66,-323.1 1584.6,-314.01 1579.52,-305.93"/>
<polygon fill="black" stroke="black" points="1582.45,-304.01 1574.02,-297.59 1576.6,-307.86 1582.45,-304.01"/>
</g>
<!-- libnvfatbin -->
<g id="node34" class="node">
<title>libnvfatbin</title>
<g id="a_node34"><a xlink:href="https://github.com/conda-forge/libnvfatbin-feedstock/pull/14" xlink:title="libnvfatbin ❎">
<ellipse fill="#31688e" stroke="black" cx="979.25" cy="-278" rx="80.67" ry="18"/>
<text text-anchor="middle" x="979.25" y="-273.32" font-family="Times,serif" font-size="14.00" fill="white">libnvfatbin ❎</text>
</a>
</g>
</g>
<!-- libnvfatbin&#45;&gt;cuda&#45;libraries&#45;static -->
<g id="edge56" class="edge">
<title>libnvfatbin&#45;&gt;cuda&#45;libraries&#45;static</title>
<path fill="none" stroke="black" d="M971.84,-259.7C968.6,-252.15 964.73,-243.12 961.12,-234.68"/>
<polygon fill="black" stroke="black" points="964.34,-233.31 957.18,-225.5 957.9,-236.07 964.34,-233.31"/>
</g>
<!-- libnvfatbin&#45;&gt;cuda&#45;libraries -->
<g id="edge57" class="edge">
<title>libnvfatbin&#45;&gt;cuda&#45;libraries</title>
<path fill="none" stroke="black" d="M1020.61,-262.15C1049.91,-251.64 1089.47,-237.43 1121.12,-226.07"/>
<polygon fill="black" stroke="black" points="1122.29,-229.37 1130.52,-222.7 1119.93,-222.78 1122.29,-229.37"/>
</g>
<!-- libnvfatbin&#45;&gt;libnvfatbin -->
<g id="edge58" class="edge">
<title>libnvfatbin&#45;&gt;libnvfatbin</title>
<path fill="none" stroke="black" d="M1035.04,-291.38C1058.25,-292.3 1077.92,-287.84 1077.92,-278 1077.92,-269.81 1064.3,-265.35 1046.36,-264.61"/>
<polygon fill="black" stroke="black" points="1046.55,-261.11 1036.56,-264.62 1046.56,-268.11 1046.55,-261.11"/>
</g>
<!-- libnvjpeg2k&#45;split -->
<g id="node35" class="node">
<title>libnvjpeg2k&#45;split</title>
<g id="a_node35"><a xlink:href="https://github.com/conda-forge/libnvjpeg2k-split-feedstock/pull/14" xlink:title="libnvjpeg2k split ❎">
<ellipse fill="#31688e" stroke="black" cx="2668.25" cy="-242" rx="110.13" ry="18"/>
<text text-anchor="middle" x="2668.25" y="-237.32" font-family="Times,serif" font-size="14.00" fill="white">libnvjpeg2k split ❎</text>
</a>
</g>
</g>
<!-- libnvjpeg2k&#45;split&#45;&gt;libnvjpeg2k&#45;split -->
<g id="edge63" class="edge">
<title>libnvjpeg2k&#45;split&#45;&gt;libnvjpeg2k&#45;split</title>
<path fill="none" stroke="black" d="M2772.82,-247.99C2786.97,-246.98 2796.38,-244.99 2796.38,-242 2796.38,-239.9 2791.73,-238.29 2784.05,-237.17"/>
<polygon fill="black" stroke="black" points="2784.63,-233.71 2774.33,-236.17 2783.92,-240.67 2784.63,-233.71"/>
</g>
<!-- libnvtiff -->
<g id="node36" class="node">
<title>libnvtiff</title>
<g id="a_node36"><a xlink:href="https://github.com/conda-forge/libnvtiff-feedstock/pull/3" xlink:title="libnvtiff ✓">
<ellipse fill="#31688e" stroke="black" cx="2426.25" cy="-18" rx="58.05" ry="18"/>
<text text-anchor="middle" x="2426.25" y="-13.32" font-family="Times,serif" font-size="14.00" fill="white">libnvtiff ✓</text>
</a>
</g>
</g>
<!-- libnvtiff&#45;&gt;libnvtiff -->
<g id="edge64" class="edge">
<title>libnvtiff&#45;&gt;libnvtiff</title>
<path fill="none" stroke="black" d="M2480.94,-24.59C2493.28,-23.99 2502.3,-21.8 2502.3,-18 2502.3,-15.51 2498.41,-13.71 2492.26,-12.59"/>
<polygon fill="black" stroke="black" points="2492.75,-9.13 2482.45,-11.57 2492.03,-16.09 2492.75,-9.13"/>
</g>
</g>
</svg>
