<?xml version="1.0" encoding="UTF-8" standalone="no"?>
<!DOCTYPE svg PUBLIC "-//W3C//DTD SVG 1.1//EN"
 "http://www.w3.org/Graphics/SVG/1.1/DTD/svg11.dtd">
<!-- Generated by graphviz version 12.2.1 (20250203.1708)
 -->
<!-- Pages: 1 -->
<svg width="3194pt" height="520pt"
 viewBox="0.00 0.00 3194.08 520.00" xmlns="http://www.w3.org/2000/svg" xmlns:xlink="http://www.w3.org/1999/xlink">
<g id="graph0" class="graph" transform="scale(1 1) rotate(0) translate(4 516)">
<polygon fill="white" stroke="none" points="-4,4 -4,-516 3190.08,-516 3190.08,4 -4,4"/>
<!-- cudatoolkit -->
<g id="node1" class="node">
<title>cudatoolkit</title>
<g id="a_node1"><a xlink:href="https://github.com/conda-forge/cudatoolkit-feedstock/pull/108" xlink:title="cudatoolkit ❎">
<ellipse fill="#31688e" stroke="black" cx="2053.94" cy="-350" rx="82.25" ry="18"/>
<text text-anchor="middle" x="2053.94" y="-345.32" font-family="Times,serif" font-size="14.00" fill="white">cudatoolkit ❎</text>
</a>
</g>
</g>
<!-- cudatoolkit&#45;&gt;cudatoolkit -->
<g id="edge1" class="edge">
<title>cudatoolkit&#45;&gt;cudatoolkit</title>
<path fill="none" stroke="black" d="M2110.87,-363.39C2134.34,-364.27 2154.18,-359.81 2154.18,-350 2154.18,-341.84 2140.45,-337.38 2122.31,-336.62"/>
<polygon fill="black" stroke="black" points="2122.39,-333.12 2112.38,-336.61 2122.38,-340.12 2122.39,-333.12"/>
</g>
<!-- cudnn -->
<g id="node2" class="node">
<title>cudnn</title>
<g id="a_node2"><a xlink:href="https://github.com/conda-forge/cudnn-feedstock/pull/112" xlink:title="cudnn ✓">
<ellipse fill="#31688e" stroke="black" cx="2029.94" cy="-134" rx="49.63" ry="18"/>
<text text-anchor="middle" x="2029.94" y="-129.32" font-family="Times,serif" font-size="14.00" fill="white">cudnn ✓</text>
</a>
</g>
</g>
<!-- cudatoolkit&#45;&gt;cudnn -->
<g id="edge2" class="edge">
<title>cudatoolkit&#45;&gt;cudnn</title>
<path fill="none" stroke="black" d="M2050.72,-331.83C2046.97,-313.57 2039.99,-284.07 2029.94,-260 2022.79,-242.91 2013.77,-241.88 2008.94,-224 2003.4,-203.54 2009.35,-180.21 2016.32,-162.57"/>
<polygon fill="black" stroke="black" points="2019.47,-164.1 2020.21,-153.53 2013.04,-161.33 2019.47,-164.1"/>
</g>
<!-- cutensor -->
<g id="node3" class="node">
<title>cutensor</title>
<g id="a_node3"><a xlink:href="https://github.com/conda-forge/cutensor-feedstock/pull/69" xlink:title="cutensor ❎">
<ellipse fill="#31688e" stroke="black" cx="2087.94" cy="-206" rx="70.15" ry="18"/>
<text text-anchor="middle" x="2087.94" y="-201.32" font-family="Times,serif" font-size="14.00" fill="white">cutensor ❎</text>
</a>
</g>
</g>
<!-- cudatoolkit&#45;&gt;cutensor -->
<g id="edge3" class="edge">
<title>cudatoolkit&#45;&gt;cutensor</title>
<path fill="none" stroke="black" d="M2058.64,-331.86C2061.43,-321.5 2065,-308.02 2067.94,-296 2072.85,-275.88 2077.97,-253.08 2081.79,-235.6"/>
<polygon fill="black" stroke="black" points="2085.19,-236.43 2083.9,-225.92 2078.35,-234.95 2085.19,-236.43"/>
</g>
<!-- libcal -->
<g id="node4" class="node">
<title>libcal</title>
<g id="a_node4"><a xlink:href="https://github.com/conda-forge/libcal-feedstock/pull/8" xlink:title="libcal ❎">
<ellipse fill="#31688e" stroke="black" cx="2272.94" cy="-278" rx="53.31" ry="18"/>
<text text-anchor="middle" x="2272.94" y="-273.32" font-family="Times,serif" font-size="14.00" fill="white">libcal ❎</text>
</a>
</g>
</g>
<!-- cudatoolkit&#45;&gt;libcal -->
<g id="edge4" class="edge">
<title>cudatoolkit&#45;&gt;libcal</title>
<path fill="none" stroke="black" d="M2099.05,-334.58C2135.63,-322.89 2187.08,-306.44 2224.52,-294.47"/>
<polygon fill="black" stroke="black" points="2225.27,-297.91 2233.73,-291.53 2223.14,-291.24 2225.27,-297.91"/>
</g>
<!-- libcudss -->
<g id="node5" class="node">
<title>libcudss</title>
<g id="a_node5"><a xlink:href="https://github.com/conda-forge/libcudss-feedstock/pull/13" xlink:title="libcudss ✓">
<ellipse fill="#31688e" stroke="black" cx="1909.94" cy="-278" rx="60.15" ry="18"/>
<text text-anchor="middle" x="1909.94" y="-273.32" font-family="Times,serif" font-size="14.00" fill="white">libcudss ✓</text>
</a>
</g>
</g>
<!-- cudatoolkit&#45;&gt;libcudss -->
<g id="edge5" class="edge">
<title>cudatoolkit&#45;&gt;libcudss</title>
<path fill="none" stroke="black" d="M2021.26,-333.12C2000.34,-322.95 1973.04,-309.67 1950.7,-298.82"/>
<polygon fill="black" stroke="black" points="1952.4,-295.75 1941.87,-294.53 1949.34,-302.05 1952.4,-295.75"/>
</g>
<!-- libnvshmem -->
<g id="node6" class="node">
<title>libnvshmem</title>
<g id="a_node6"><a xlink:href="https://github.com/conda-forge/libnvshmem-feedstock/pull/3" xlink:title="libnvshmem ✓">
<ellipse fill="#31688e" stroke="black" cx="2441.94" cy="-278" rx="80.14" ry="18"/>
<text text-anchor="middle" x="2441.94" y="-273.32" font-family="Times,serif" font-size="14.00" fill="white">libnvshmem ✓</text>
</a>
</g>
</g>
<!-- cudatoolkit&#45;&gt;libnvshmem -->
<g id="edge6" class="edge">
<title>cudatoolkit&#45;&gt;libnvshmem</title>
<path fill="none" stroke="black" d="M2116.98,-338.08C2177.52,-327.53 2271.53,-310.99 2352.94,-296 2358.93,-294.9 2365.15,-293.74 2371.39,-292.56"/>
<polygon fill="black" stroke="black" points="2371.93,-296.02 2381.11,-290.73 2370.63,-289.15 2371.93,-296.02"/>
</g>
<!-- holoscan -->
<g id="node7" class="node">
<title>holoscan</title>
<g id="a_node7"><a xlink:href="https://github.com/conda-forge/holoscan-feedstock/pull/3" xlink:title="holoscan ✓">
<ellipse fill="#31688e" stroke="black" cx="1890.94" cy="-62" rx="62.78" ry="18"/>
<text text-anchor="middle" x="1890.94" y="-57.33" font-family="Times,serif" font-size="14.00" fill="white">holoscan ✓</text>
</a>
</g>
</g>
<!-- cudatoolkit&#45;&gt;holoscan -->
<g id="edge7" class="edge">
<title>cudatoolkit&#45;&gt;holoscan</title>
<path fill="none" stroke="black" d="M2044.23,-331.97C2016.93,-284.08 1939.37,-147.98 1906.24,-89.85"/>
<polygon fill="black" stroke="black" points="1909.33,-88.21 1901.34,-81.26 1903.25,-91.68 1909.33,-88.21"/>
</g>
<!-- cudnn&#45;&gt;holoscan -->
<g id="edge8" class="edge">
<title>cudnn&#45;&gt;holoscan</title>
<path fill="none" stroke="black" d="M2001.81,-118.83C1981.44,-108.58 1953.63,-94.57 1930.96,-83.16"/>
<polygon fill="black" stroke="black" points="1932.8,-80.17 1922.3,-78.79 1929.66,-86.42 1932.8,-80.17"/>
</g>
<!-- libcal&#45;&gt;libcal -->
<g id="edge9" class="edge">
<title>libcal&#45;&gt;libcal</title>
<path fill="none" stroke="black" d="M2310.36,-291.17C2328.36,-292.8 2344.25,-288.41 2344.25,-278 2344.25,-269.87 2334.55,-265.41 2321.72,-264.63"/>
<polygon fill="black" stroke="black" points="2321.81,-261.12 2311.87,-264.8 2321.93,-268.12 2321.81,-261.12"/>
</g>
<!-- cublasmp -->
<g id="node8" class="node">
<title>cublasmp</title>
<g id="a_node8"><a xlink:href="https://github.com/conda-forge/cublasmp-feedstock/pull/9" xlink:title="cublasmp ✓">
<ellipse fill="#31688e" stroke="black" cx="2507.94" cy="-134" rx="66.99" ry="18"/>
<text text-anchor="middle" x="2507.94" y="-129.32" font-family="Times,serif" font-size="14.00" fill="white">cublasmp ✓</text>
</a>
</g>
</g>
<!-- libcal&#45;&gt;cublasmp -->
<g id="edge10" class="edge">
<title>libcal&#45;&gt;cublasmp</title>
<path fill="none" stroke="black" d="M2314.12,-266.27C2343.35,-257.54 2382.78,-243.48 2413.94,-224 2441.86,-206.54 2468.62,-179.9 2486.4,-160.32"/>
<polygon fill="black" stroke="black" points="2488.87,-162.8 2492.9,-153 2483.64,-158.15 2488.87,-162.8"/>
</g>
<!-- libcublasmp -->
<g id="node9" class="node">
<title>libcublasmp</title>
<g id="a_node9"><a xlink:href="https://github.com/conda-forge/libcublasmp-feedstock/pull/11" xlink:title="libcublasmp ✓">
<ellipse fill="#31688e" stroke="black" cx="2561.94" cy="-206" rx="79.62" ry="18"/>
<text text-anchor="middle" x="2561.94" y="-201.32" font-family="Times,serif" font-size="14.00" fill="white">libcublasmp ✓</text>
</a>
</g>
</g>
<!-- libcal&#45;&gt;libcublasmp -->
<g id="edge11" class="edge">
<title>libcal&#45;&gt;libcublasmp</title>
<path fill="none" stroke="black" d="M2315.27,-266.75C2363.3,-255.11 2442.18,-236.01 2497.79,-222.54"/>
<polygon fill="black" stroke="black" points="2498.56,-225.95 2507.46,-220.19 2496.92,-219.15 2498.56,-225.95"/>
</g>
<!-- cusolvermp -->
<g id="node10" class="node">
<title>cusolvermp</title>
<g id="a_node10"><a xlink:href="https://github.com/conda-forge/cusolvermp-feedstock/pull/2" xlink:title="cusolvermp ✓">
<ellipse fill="#31688e" stroke="black" cx="2308.94" cy="-134" rx="76.99" ry="18"/>
<text text-anchor="middle" x="2308.94" y="-129.32" font-family="Times,serif" font-size="14.00" fill="white">cusolvermp ✓</text>
</a>
</g>
</g>
<!-- libcal&#45;&gt;cusolvermp -->
<g id="edge12" class="edge">
<title>libcal&#45;&gt;cusolvermp</title>
<path fill="none" stroke="black" d="M2320.67,-269.74C2347.97,-262.87 2380.04,-249.6 2396.94,-224 2405.75,-210.65 2404.81,-201.93 2396.94,-188 2388.81,-173.62 2375.04,-162.71 2360.78,-154.63"/>
<polygon fill="black" stroke="black" points="2362.72,-151.7 2352.24,-150.19 2359.49,-157.91 2362.72,-151.7"/>
</g>
<!-- libcusolvermp -->
<g id="node11" class="node">
<title>libcusolvermp</title>
<g id="a_node11"><a xlink:href="https://github.com/conda-forge/libcusolvermp-feedstock/pull/6" xlink:title="libcusolvermp ❎">
<ellipse fill="#31688e" stroke="black" cx="2272.94" cy="-206" rx="96.98" ry="18"/>
<text text-anchor="middle" x="2272.94" y="-201.32" font-family="Times,serif" font-size="14.00" fill="white">libcusolvermp ❎</text>
</a>
</g>
</g>
<!-- libcal&#45;&gt;libcusolvermp -->
<g id="edge13" class="edge">
<title>libcal&#45;&gt;libcusolvermp</title>
<path fill="none" stroke="black" d="M2272.94,-259.7C2272.94,-252.41 2272.94,-243.73 2272.94,-235.54"/>
<polygon fill="black" stroke="black" points="2276.44,-235.62 2272.94,-225.62 2269.44,-235.62 2276.44,-235.62"/>
</g>
<!-- libcudss&#45;&gt;libcudss -->
<g id="edge14" class="edge">
<title>libcudss&#45;&gt;libcudss</title>
<path fill="none" stroke="black" d="M1952.14,-291.26C1971.37,-292.62 1988.09,-288.2 1988.09,-278 1988.09,-269.88 1977.47,-265.42 1963.43,-264.63"/>
<polygon fill="black" stroke="black" points="1963.62,-261.13 1953.66,-264.72 1963.69,-268.13 1963.62,-261.13"/>
</g>
<!-- libcudss&#45;&gt;holoscan -->
<g id="edge15" class="edge">
<title>libcudss&#45;&gt;holoscan</title>
<path fill="none" stroke="black" d="M1908.41,-259.85C1905.15,-223.14 1897.48,-136.66 1893.47,-91.53"/>
<polygon fill="black" stroke="black" points="1896.97,-91.39 1892.6,-81.74 1890,-92.01 1896.97,-91.39"/>
</g>
<!-- libnvshmem&#45;&gt;libnvshmem -->
<g id="edge16" class="edge">
<title>libnvshmem&#45;&gt;libnvshmem</title>
<path fill="none" stroke="black" d="M2497.43,-291.38C2520.51,-292.3 2540.08,-287.84 2540.08,-278 2540.08,-269.85 2526.66,-265.39 2508.94,-264.62"/>
<polygon fill="black" stroke="black" points="2508.94,-261.12 2498.94,-264.62 2508.94,-268.12 2508.94,-261.12"/>
</g>
<!-- libnvshmem&#45;&gt;libcublasmp -->
<g id="edge17" class="edge">
<title>libnvshmem&#45;&gt;libcublasmp</title>
<path fill="none" stroke="black" d="M2469.77,-260.76C2486.12,-251.22 2507.01,-239.04 2524.76,-228.68"/>
<polygon fill="black" stroke="black" points="2526.07,-231.97 2532.95,-223.91 2522.55,-225.93 2526.07,-231.97"/>
</g>
<!-- holoscan&#45;&gt;holoscan -->
<g id="edge18" class="edge">
<title>holoscan&#45;&gt;holoscan</title>
<path fill="none" stroke="black" d="M1934.57,-75.26C1954.44,-76.62 1971.72,-72.2 1971.72,-62 1971.72,-53.8 1960.53,-49.33 1945.8,-48.61"/>
<polygon fill="black" stroke="black" points="1946.04,-45.1 1936.08,-48.72 1946.12,-52.1 1946.04,-45.1"/>
</g>
<!-- libcublasmp&#45;&gt;cublasmp -->
<g id="edge73" class="edge">
<title>libcublasmp&#45;&gt;cublasmp</title>
<path fill="none" stroke="black" d="M2548.86,-188.05C2542.56,-179.89 2534.87,-169.91 2527.86,-160.82"/>
<polygon fill="black" stroke="black" points="2530.69,-158.77 2521.81,-152.99 2525.15,-163.04 2530.69,-158.77"/>
</g>
<!-- libcublasmp&#45;&gt;libcublasmp -->
<g id="edge74" class="edge">
<title>libcublasmp&#45;&gt;libcublasmp</title>
<path fill="none" stroke="black" d="M2617.13,-219.38C2640.09,-220.3 2659.55,-215.84 2659.55,-206 2659.55,-197.85 2646.21,-193.39 2628.58,-192.62"/>
<polygon fill="black" stroke="black" points="2628.64,-189.12 2618.64,-192.62 2628.64,-196.12 2628.64,-189.12"/>
</g>
<!-- libcusolvermp&#45;&gt;cusolvermp -->
<g id="edge75" class="edge">
<title>libcusolvermp&#45;&gt;cusolvermp</title>
<path fill="none" stroke="black" d="M2281.83,-187.7C2285.8,-179.98 2290.57,-170.71 2294.99,-162.11"/>
<polygon fill="black" stroke="black" points="2297.99,-163.94 2299.45,-153.45 2291.76,-160.74 2297.99,-163.94"/>
</g>
<!-- libcusolvermp&#45;&gt;libcusolvermp -->
<g id="edge76" class="edge">
<title>libcusolvermp&#45;&gt;libcusolvermp</title>
<path fill="none" stroke="black" d="M2339.68,-219.43C2365.96,-220.11 2387.92,-215.63 2387.92,-206 2387.92,-197.8 2372,-193.33 2351.04,-192.61"/>
<polygon fill="black" stroke="black" points="2351.2,-189.11 2341.19,-192.57 2351.18,-196.11 2351.2,-189.11"/>
</g>
<!-- cusparselt -->
<g id="node12" class="node">
<title>cusparselt</title>
<g id="a_node12"><a xlink:href="https://github.com/conda-forge/cusparselt-feedstock/pull/63" xlink:title="cusparselt ✓">
<ellipse fill="#31688e" stroke="black" cx="1754.94" cy="-134" rx="71.2" ry="18"/>
<text text-anchor="middle" x="1754.94" y="-129.32" font-family="Times,serif" font-size="14.00" fill="white">cusparselt ✓</text>
</a>
</g>
</g>
<!-- cusparselt&#45;&gt;holoscan -->
<g id="edge19" class="edge">
<title>cusparselt&#45;&gt;holoscan</title>
<path fill="none" stroke="black" d="M1785.46,-117.29C1804.89,-107.29 1830.25,-94.23 1851.24,-83.43"/>
<polygon fill="black" stroke="black" points="1852.81,-86.56 1860.1,-78.87 1849.61,-80.33 1852.81,-86.56"/>
</g>
<!-- cusparselt&#45;&gt;cusparselt -->
<g id="edge20" class="edge">
<title>cusparselt&#45;&gt;cusparselt</title>
<path fill="none" stroke="black" d="M1804.47,-147.34C1825.84,-148.43 1844.14,-143.98 1844.14,-134 1844.14,-125.81 1831.82,-121.35 1815.6,-120.61"/>
<polygon fill="black" stroke="black" points="1815.97,-117.11 1805.98,-120.65 1816,-124.11 1815.97,-117.11"/>
</g>
<!-- libcusparse -->
<g id="node13" class="node">
<title>libcusparse</title>
<g id="a_node13"><a xlink:href="https://github.com/conda-forge/libcusparse-feedstock/pull/22" xlink:title="libcusparse ❎">
<ellipse fill="#31688e" stroke="black" cx="1754.94" cy="-350" rx="83.83" ry="18"/>
<text text-anchor="middle" x="1754.94" y="-345.32" font-family="Times,serif" font-size="14.00" fill="white">libcusparse ❎</text>
</a>
</g>
</g>
<!-- libcusparse&#45;&gt;holoscan -->
<g id="edge21" class="edge">
<title>libcusparse&#45;&gt;holoscan</title>
<path fill="none" stroke="black" d="M1739.18,-331.96C1703.05,-290.8 1621.35,-184.32 1674.94,-116 1692.99,-92.98 1765.38,-78.64 1821.43,-70.77"/>
<polygon fill="black" stroke="black" points="1821.82,-74.25 1831.26,-69.44 1820.88,-67.31 1821.82,-74.25"/>
</g>
<!-- libcusparse&#45;&gt;cusparselt -->
<g id="edge22" class="edge">
<title>libcusparse&#45;&gt;cusparselt</title>
<path fill="none" stroke="black" d="M1754.94,-331.85C1754.94,-295.14 1754.94,-208.66 1754.94,-163.53"/>
<polygon fill="black" stroke="black" points="1758.44,-163.75 1754.94,-153.75 1751.44,-163.75 1758.44,-163.75"/>
</g>
<!-- libcusparse&#45;&gt;libcusparse -->
<g id="edge23" class="edge">
<title>libcusparse&#45;&gt;libcusparse</title>
<path fill="none" stroke="black" d="M1813.02,-363.4C1836.75,-364.24 1856.76,-359.77 1856.76,-350 1856.76,-341.83 1842.78,-337.37 1824.33,-336.61"/>
<polygon fill="black" stroke="black" points="1824.54,-333.12 1814.54,-336.6 1824.53,-340.12 1824.54,-333.12"/>
</g>
<!-- cuda&#45;libraries&#45;static -->
<g id="node14" class="node">
<title>cuda&#45;libraries&#45;static</title>
<g id="a_node14"><a xlink:href="https://github.com/conda-forge/cuda-libraries-static-feedstock/pull/21" xlink:title="cuda libraries static ✓">
<ellipse fill="#31688e" stroke="black" cx="1508.94" cy="-278" rx="119.08" ry="18"/>
<text text-anchor="middle" x="1508.94" y="-273.32" font-family="Times,serif" font-size="14.00" fill="white">cuda libraries static ✓</text>
</a>
</g>
</g>
<!-- libcusparse&#45;&gt;cuda&#45;libraries&#45;static -->
<g id="edge24" class="edge">
<title>libcusparse&#45;&gt;cuda&#45;libraries&#45;static</title>
<path fill="none" stroke="black" d="M1705.74,-335C1667.98,-324.26 1615.5,-309.32 1574.22,-297.58"/>
<polygon fill="black" stroke="black" points="1575.2,-294.22 1564.63,-294.85 1573.29,-300.95 1575.2,-294.22"/>
</g>
<!-- cuda&#45;libraries -->
<g id="node15" class="node">
<title>cuda&#45;libraries</title>
<g id="a_node15"><a xlink:href="https://github.com/conda-forge/cuda-libraries-feedstock/pull/20" xlink:title="cuda libraries ✓">
<ellipse fill="#31688e" stroke="black" cx="1283.94" cy="-278" rx="88.04" ry="18"/>
<text text-anchor="middle" x="1283.94" y="-273.32" font-family="Times,serif" font-size="14.00" fill="white">cuda libraries ✓</text>
</a>
</g>
</g>
<!-- libcusparse&#45;&gt;cuda&#45;libraries -->
<g id="edge25" class="edge">
<title>libcusparse&#45;&gt;cuda&#45;libraries</title>
<path fill="none" stroke="black" d="M1693.73,-337.33C1683.15,-335.45 1672.23,-333.6 1661.94,-332 1537.52,-312.67 1505.42,-314.87 1380.94,-296 1373.86,-294.93 1366.51,-293.75 1359.16,-292.54"/>
<polygon fill="black" stroke="black" points="1359.98,-289.12 1349.54,-290.92 1358.82,-296.03 1359.98,-289.12"/>
</g>
<!-- cuda&#45;toolkit -->
<g id="node16" class="node">
<title>cuda&#45;toolkit</title>
<g id="a_node16"><a xlink:href="https://github.com/conda-forge/cuda-toolkit-feedstock/pull/20" xlink:title="cuda toolkit ✓">
<ellipse fill="#31688e" stroke="black" cx="871.94" cy="-206" rx="78.04" ry="18"/>
<text text-anchor="middle" x="871.94" y="-201.32" font-family="Times,serif" font-size="14.00" fill="white">cuda toolkit ✓</text>
</a>
</g>
</g>
<!-- cuda&#45;libraries&#45;&gt;cuda&#45;toolkit -->
<g id="edge26" class="edge">
<title>cuda&#45;libraries&#45;&gt;cuda&#45;toolkit</title>
<path fill="none" stroke="black" d="M1215.04,-266.41C1149.18,-256.13 1047.14,-239.81 958.94,-224 952.97,-222.93 946.78,-221.79 940.58,-220.62"/>
<polygon fill="black" stroke="black" points="941.41,-217.22 930.94,-218.79 940.1,-224.09 941.41,-217.22"/>
</g>
<!-- cuda&#45;runtime -->
<g id="node17" class="node">
<title>cuda&#45;runtime</title>
<g id="a_node17"><a xlink:href="https://github.com/conda-forge/cuda-runtime-feedstock/pull/18" xlink:title="cuda runtime ✓">
<ellipse fill="#31688e" stroke="black" cx="1053.94" cy="-206" rx="85.93" ry="18"/>
<text text-anchor="middle" x="1053.94" y="-201.32" font-family="Times,serif" font-size="14.00" fill="white">cuda runtime ✓</text>
</a>
</g>
</g>
<!-- cuda&#45;libraries&#45;&gt;cuda&#45;runtime -->
<g id="edge27" class="edge">
<title>cuda&#45;libraries&#45;&gt;cuda&#45;runtime</title>
<path fill="none" stroke="black" d="M1236.28,-262.5C1200.08,-251.48 1150.13,-236.28 1111.66,-224.57"/>
<polygon fill="black" stroke="black" points="1113.17,-221.37 1102.58,-221.81 1111.13,-228.07 1113.17,-221.37"/>
</g>
<!-- cuda -->
<g id="node29" class="node">
<title>cuda</title>
<g id="a_node29"><a xlink:href="https://github.com/conda-forge/cuda-feedstock/pull/77" xlink:title="cuda ✓">
<ellipse fill="#31688e" stroke="black" cx="1053.94" cy="-134" rx="42.79" ry="18"/>
<text text-anchor="middle" x="1053.94" y="-129.32" font-family="Times,serif" font-size="14.00" fill="white">cuda ✓</text>
</a>
</g>
</g>
<!-- cuda&#45;toolkit&#45;&gt;cuda -->
<g id="edge54" class="edge">
<title>cuda&#45;toolkit&#45;&gt;cuda</title>
<path fill="none" stroke="black" d="M910.98,-189.98C940.84,-178.5 981.93,-162.7 1012.39,-150.98"/>
<polygon fill="black" stroke="black" points="1013.6,-154.26 1021.68,-147.41 1011.09,-147.73 1013.6,-154.26"/>
</g>
<!-- cuda&#45;runtime&#45;&gt;cuda -->
<g id="edge65" class="edge">
<title>cuda&#45;runtime&#45;&gt;cuda</title>
<path fill="none" stroke="black" d="M1053.94,-187.7C1053.94,-180.41 1053.94,-171.73 1053.94,-163.54"/>
<polygon fill="black" stroke="black" points="1057.44,-163.62 1053.94,-153.62 1050.44,-163.62 1057.44,-163.62"/>
</g>
<!-- libcufile -->
<g id="node18" class="node">
<title>libcufile</title>
<g id="a_node18"><a xlink:href="https://github.com/conda-forge/libcufile-feedstock/pull/31" xlink:title="libcufile ❎">
<ellipse fill="#31688e" stroke="black" cx="1011.94" cy="-350" rx="65.94" ry="18"/>
<text text-anchor="middle" x="1011.94" y="-345.32" font-family="Times,serif" font-size="14.00" fill="white">libcufile ❎</text>
</a>
</g>
</g>
<!-- libcufile&#45;&gt;holoscan -->
<g id="edge28" class="edge">
<title>libcufile&#45;&gt;holoscan</title>
<path fill="none" stroke="black" d="M1039.13,-333.31C1072.97,-314.23 1132.9,-281.86 1186.94,-260 1416.54,-167.1 1705.21,-101.35 1829.45,-75.35"/>
<polygon fill="black" stroke="black" points="1830.04,-78.8 1839.11,-73.34 1828.61,-71.95 1830.04,-78.8"/>
</g>
<!-- libcufile&#45;&gt;cuda&#45;libraries&#45;static -->
<g id="edge29" class="edge">
<title>libcufile&#45;&gt;cuda&#45;libraries&#45;static</title>
<path fill="none" stroke="black" d="M1064.48,-338.91C1077.67,-336.51 1091.8,-334.06 1104.94,-332 1227.15,-312.87 1258.29,-312.14 1380.94,-296 1390.54,-294.74 1400.56,-293.41 1410.56,-292.09"/>
<polygon fill="black" stroke="black" points="1410.88,-295.58 1420.34,-290.79 1409.97,-288.64 1410.88,-295.58"/>
</g>
<!-- libcufile&#45;&gt;cuda&#45;libraries -->
<g id="edge30" class="edge">
<title>libcufile&#45;&gt;cuda&#45;libraries</title>
<path fill="none" stroke="black" d="M1058.69,-336.97C1103.18,-325.52 1170.46,-308.2 1219.91,-295.48"/>
<polygon fill="black" stroke="black" points="1220.53,-298.93 1229.34,-293.05 1218.79,-292.15 1220.53,-298.93"/>
</g>
<!-- libcufile&#45;&gt;libcufile -->
<g id="edge31" class="edge">
<title>libcufile&#45;&gt;libcufile</title>
<path fill="none" stroke="black" d="M1057.7,-363.29C1078.17,-364.55 1095.87,-360.12 1095.87,-350 1095.87,-341.77 1084.19,-337.31 1068.82,-336.6"/>
<polygon fill="black" stroke="black" points="1069.17,-333.1 1059.21,-336.7 1069.24,-340.1 1069.17,-333.1"/>
</g>
<!-- nvidia&#45;gds -->
<g id="node19" class="node">
<title>nvidia&#45;gds</title>
<g id="a_node19"><a xlink:href="https://github.com/conda-forge/nvidia-gds-feedstock/pull/20" xlink:title="nvidia gds ✓">
<ellipse fill="#31688e" stroke="black" cx="1016.94" cy="-278" rx="70.68" ry="18"/>
<text text-anchor="middle" x="1016.94" y="-273.32" font-family="Times,serif" font-size="14.00" fill="white">nvidia gds ✓</text>
</a>
</g>
</g>
<!-- libcufile&#45;&gt;nvidia&#45;gds -->
<g id="edge32" class="edge">
<title>libcufile&#45;&gt;nvidia&#45;gds</title>
<path fill="none" stroke="black" d="M1013.17,-331.7C1013.69,-324.41 1014.31,-315.73 1014.9,-307.54"/>
<polygon fill="black" stroke="black" points="1018.38,-307.84 1015.61,-297.61 1011.4,-307.34 1018.38,-307.84"/>
</g>
<!-- cuda&#45;tools -->
<g id="node20" class="node">
<title>cuda&#45;tools</title>
<g id="a_node20"><a xlink:href="https://github.com/conda-forge/cuda-tools-feedstock/pull/21" xlink:title="cuda tools ✓">
<ellipse fill="#31688e" stroke="black" cx="782.94" cy="-278" rx="70.15" ry="18"/>
<text text-anchor="middle" x="782.94" y="-273.32" font-family="Times,serif" font-size="14.00" fill="white">cuda tools ✓</text>
</a>
</g>
</g>
<!-- libcufile&#45;&gt;cuda&#45;tools -->
<g id="edge33" class="edge">
<title>libcufile&#45;&gt;cuda&#45;tools</title>
<path fill="none" stroke="black" d="M969.13,-335.92C931.98,-324.56 877.97,-308.05 837.67,-295.73"/>
<polygon fill="black" stroke="black" points="838.73,-292.4 828.15,-292.82 836.69,-299.09 838.73,-292.4"/>
</g>
<!-- cuda&#45;tools&#45;&gt;cuda&#45;toolkit -->
<g id="edge34" class="edge">
<title>cuda&#45;tools&#45;&gt;cuda&#45;toolkit</title>
<path fill="none" stroke="black" d="M804.03,-260.41C815.36,-251.5 829.53,-240.36 841.98,-230.56"/>
<polygon fill="black" stroke="black" points="843.8,-233.58 849.5,-224.65 839.47,-228.08 843.8,-233.58"/>
</g>
<!-- libnvjpeg -->
<g id="node21" class="node">
<title>libnvjpeg</title>
<g id="a_node21"><a xlink:href="https://github.com/conda-forge/libnvjpeg-feedstock/pull/19" xlink:title="libnvjpeg ✓">
<ellipse fill="#31688e" stroke="black" cx="1569.94" cy="-350" rx="65.41" ry="18"/>
<text text-anchor="middle" x="1569.94" y="-345.32" font-family="Times,serif" font-size="14.00" fill="white">libnvjpeg ✓</text>
</a>
</g>
</g>
<!-- libnvjpeg&#45;&gt;cuda&#45;libraries&#45;static -->
<g id="edge35" class="edge">
<title>libnvjpeg&#45;&gt;cuda&#45;libraries&#45;static</title>
<path fill="none" stroke="black" d="M1555.17,-332.05C1548.08,-323.92 1539.43,-314 1531.54,-304.94"/>
<polygon fill="black" stroke="black" points="1534.19,-302.66 1524.98,-297.42 1528.91,-307.25 1534.19,-302.66"/>
</g>
<!-- libnvjpeg&#45;&gt;cuda&#45;libraries -->
<g id="edge36" class="edge">
<title>libnvjpeg&#45;&gt;cuda&#45;libraries</title>
<path fill="none" stroke="black" d="M1522.07,-337.28C1474.86,-325.73 1402.33,-307.98 1349.72,-295.1"/>
<polygon fill="black" stroke="black" points="1350.83,-291.77 1340.28,-292.79 1349.16,-298.57 1350.83,-291.77"/>
</g>
<!-- libnvjpeg&#45;&gt;libnvjpeg -->
<g id="edge37" class="edge">
<title>libnvjpeg&#45;&gt;libnvjpeg</title>
<path fill="none" stroke="black" d="M1615.41,-363.29C1635.75,-364.55 1653.35,-360.12 1653.35,-350 1653.35,-341.85 1641.96,-337.39 1626.9,-336.62"/>
<polygon fill="black" stroke="black" points="1626.89,-333.12 1616.92,-336.7 1626.95,-340.12 1626.89,-333.12"/>
</g>
<!-- cuda&#45;nvcc -->
<g id="node22" class="node">
<title>cuda&#45;nvcc</title>
<g id="a_node22"><a xlink:href="https://github.com/conda-forge/cuda-nvcc-feedstock/pull/63" xlink:title="cuda nvcc ❎">
<ellipse fill="#31688e" stroke="black" cx="75.94" cy="-350" rx="75.94" ry="18"/>
<text text-anchor="middle" x="75.94" y="-345.32" font-family="Times,serif" font-size="14.00" fill="white">cuda nvcc ❎</text>
</a>
</g>
</g>
<!-- cuda&#45;nvcc&#45;&gt;cuda&#45;nvcc -->
<g id="edge38" class="edge">
<title>cuda&#45;nvcc&#45;&gt;cuda&#45;nvcc</title>
<path fill="none" stroke="black" d="M128.57,-363.36C150.87,-364.37 169.87,-359.91 169.87,-350 169.87,-341.79 156.84,-337.32 139.7,-336.6"/>
<polygon fill="black" stroke="black" points="140.08,-333.1 130.09,-336.63 140.1,-340.1 140.08,-333.1"/>
</g>
<!-- cuda&#45;compiler -->
<g id="node23" class="node">
<title>cuda&#45;compiler</title>
<g id="a_node23"><a xlink:href="https://github.com/conda-forge/cuda-compiler-feedstock/pull/18" xlink:title="cuda compiler ✓">
<ellipse fill="#31688e" stroke="black" cx="274.94" cy="-278" rx="89.61" ry="18"/>
<text text-anchor="middle" x="274.94" y="-273.32" font-family="Times,serif" font-size="14.00" fill="white">cuda compiler ✓</text>
</a>
</g>
</g>
<!-- cuda&#45;nvcc&#45;&gt;cuda&#45;compiler -->
<g id="edge39" class="edge">
<title>cuda&#45;nvcc&#45;&gt;cuda&#45;compiler</title>
<path fill="none" stroke="black" d="M117.17,-334.5C147.24,-323.92 188.27,-309.48 220.95,-297.99"/>
<polygon fill="black" stroke="black" points="221.99,-301.33 230.26,-294.71 219.67,-294.73 221.99,-301.33"/>
</g>
<!-- cuda&#45;compiler&#45;&gt;cuda&#45;toolkit -->
<g id="edge40" class="edge">
<title>cuda&#45;compiler&#45;&gt;cuda&#45;toolkit</title>
<path fill="none" stroke="black" d="M350.85,-268.1C464.21,-254.81 676.75,-229.89 792.26,-216.34"/>
<polygon fill="black" stroke="black" points="792.44,-219.84 801.97,-215.2 791.63,-212.89 792.44,-219.84"/>
</g>
<!-- cuda&#45;minimal&#45;build -->
<g id="node24" class="node">
<title>cuda&#45;minimal&#45;build</title>
<g id="a_node24"><a xlink:href="https://github.com/conda-forge/cuda-minimal-build-feedstock/pull/17" xlink:title="cuda minimal build ✓">
<ellipse fill="#31688e" stroke="black" cx="274.94" cy="-206" rx="114.87" ry="18"/>
<text text-anchor="middle" x="274.94" y="-201.32" font-family="Times,serif" font-size="14.00" fill="white">cuda minimal build ✓</text>
</a>
</g>
</g>
<!-- cuda&#45;compiler&#45;&gt;cuda&#45;minimal&#45;build -->
<g id="edge41" class="edge">
<title>cuda&#45;compiler&#45;&gt;cuda&#45;minimal&#45;build</title>
<path fill="none" stroke="black" d="M274.94,-259.7C274.94,-252.41 274.94,-243.73 274.94,-235.54"/>
<polygon fill="black" stroke="black" points="278.44,-235.62 274.94,-225.62 271.44,-235.62 278.44,-235.62"/>
</g>
<!-- cuda&#45;nvtx -->
<g id="node25" class="node">
<title>cuda&#45;nvtx</title>
<g id="a_node25"><a xlink:href="https://github.com/conda-forge/cuda-nvtx-feedstock/pull/29" xlink:title="cuda nvtx ❎">
<ellipse fill="#31688e" stroke="black" cx="2358.94" cy="-422" rx="75.41" ry="18"/>
<text text-anchor="middle" x="2358.94" y="-417.32" font-family="Times,serif" font-size="14.00" fill="white">cuda nvtx ❎</text>
</a>
</g>
</g>
<!-- cuda&#45;nvtx&#45;&gt;holoscan -->
<g id="edge42" class="edge">
<title>cuda&#45;nvtx&#45;&gt;holoscan</title>
<path fill="none" stroke="black" d="M2434.41,-420.19C2531.55,-414.7 2687.94,-388.8 2687.94,-279 2687.94,-279 2687.94,-279 2687.94,-205 2687.94,-187.06 2733.86,-177.55 2583.94,-116 2473.61,-70.71 2120.46,-63.76 1965.27,-62.95"/>
<polygon fill="black" stroke="black" points="1965.53,-59.45 1955.51,-62.9 1965.5,-66.45 1965.53,-59.45"/>
</g>
<!-- cuda&#45;nvtx&#45;&gt;cuda&#45;nvtx -->
<g id="edge43" class="edge">
<title>cuda&#45;nvtx&#45;&gt;cuda&#45;nvtx</title>
<path fill="none" stroke="black" d="M2411.28,-435.36C2433.45,-436.37 2452.34,-431.91 2452.34,-422 2452.34,-413.79 2439.39,-409.32 2422.34,-408.6"/>
<polygon fill="black" stroke="black" points="2422.78,-405.1 2412.79,-408.63 2422.8,-412.1 2422.78,-405.1"/>
</g>
<!-- cuda&#45;command&#45;line&#45;tools -->
<g id="node26" class="node">
<title>cuda&#45;command&#45;line&#45;tools</title>
<g id="a_node26"><a xlink:href="https://github.com/conda-forge/cuda-command-line-tools-feedstock/pull/23" xlink:title="cuda command line tools ✓">
<ellipse fill="#31688e" stroke="black" cx="746.94" cy="-350" rx="143.28" ry="18"/>
<text text-anchor="middle" x="746.94" y="-345.32" font-family="Times,serif" font-size="14.00" fill="white">cuda command line tools ✓</text>
</a>
</g>
</g>
<!-- cuda&#45;nvtx&#45;&gt;cuda&#45;command&#45;line&#45;tools -->
<g id="edge44" class="edge">
<title>cuda&#45;nvtx&#45;&gt;cuda&#45;command&#45;line&#45;tools</title>
<path fill="none" stroke="black" d="M2286.09,-416.93C2218.24,-413.23 2114.26,-407.79 2023.94,-404 1540.98,-383.75 1419.41,-397.55 936.94,-368 914.74,-366.64 891.11,-364.82 868.33,-362.88"/>
<polygon fill="black" stroke="black" points="868.64,-359.4 858.38,-362.02 868.04,-366.37 868.64,-359.4"/>
</g>
<!-- cuda&#45;command&#45;line&#45;tools&#45;&gt;cuda&#45;tools -->
<g id="edge45" class="edge">
<title>cuda&#45;command&#45;line&#45;tools&#45;&gt;cuda&#45;tools</title>
<path fill="none" stroke="black" d="M755.83,-331.7C759.8,-323.98 764.57,-314.71 768.99,-306.11"/>
<polygon fill="black" stroke="black" points="771.99,-307.94 773.45,-297.45 765.76,-304.74 771.99,-307.94"/>
</g>
<!-- cuda&#45;nvml&#45;dev -->
<g id="node27" class="node">
<title>cuda&#45;nvml&#45;dev</title>
<g id="a_node27"><a xlink:href="https://github.com/conda-forge/cuda-nvml-dev-feedstock/pull/21" xlink:title="cuda nvml dev ✓">
<ellipse fill="#31688e" stroke="black" cx="1922.94" cy="-422" rx="91.72" ry="18"/>
<text text-anchor="middle" x="1922.94" y="-417.32" font-family="Times,serif" font-size="14.00" fill="white">cuda nvml dev ✓</text>
</a>
</g>
</g>
<!-- cuda&#45;nvml&#45;dev&#45;&gt;cudatoolkit -->
<g id="edge46" class="edge">
<title>cuda&#45;nvml&#45;dev&#45;&gt;cudatoolkit</title>
<path fill="none" stroke="black" d="M1953.65,-404.59C1971.6,-395 1994.46,-382.78 2013.82,-372.44"/>
<polygon fill="black" stroke="black" points="2015.36,-375.58 2022.53,-367.78 2012.06,-369.41 2015.36,-375.58"/>
</g>
<!-- cuda&#45;nvml&#45;dev&#45;&gt;libcal -->
<g id="edge47" class="edge">
<title>cuda&#45;nvml&#45;dev&#45;&gt;libcal</title>
<path fill="none" stroke="black" d="M2002.7,-412.78C2050.91,-405.56 2112.57,-392.25 2162.94,-368 2196.39,-351.89 2228.69,-323.77 2249.54,-303.44"/>
<polygon fill="black" stroke="black" points="2251.79,-306.14 2256.4,-296.61 2246.85,-301.18 2251.79,-306.14"/>
</g>
<!-- cuda&#45;nvml&#45;dev&#45;&gt;libcudss -->
<g id="edge48" class="edge">
<title>cuda&#45;nvml&#45;dev&#45;&gt;libcudss</title>
<path fill="none" stroke="black" d="M1921.34,-403.59C1919.15,-379.61 1915.17,-336.14 1912.54,-307.42"/>
<polygon fill="black" stroke="black" points="1916.04,-307.26 1911.64,-297.62 1909.07,-307.9 1916.04,-307.26"/>
</g>
<!-- cuda&#45;nvml&#45;dev&#45;&gt;libnvshmem -->
<g id="edge49" class="edge">
<title>cuda&#45;nvml&#45;dev&#45;&gt;libnvshmem</title>
<path fill="none" stroke="black" d="M1995.91,-410.75C2053.1,-401.88 2134.36,-387.42 2203.94,-368 2272.13,-348.97 2348.37,-318.82 2395.75,-298.97"/>
<polygon fill="black" stroke="black" points="2397.04,-302.23 2404.89,-295.12 2394.32,-295.78 2397.04,-302.23"/>
</g>
<!-- cuda&#45;nvml&#45;dev&#45;&gt;holoscan -->
<g id="edge50" class="edge">
<title>cuda&#45;nvml&#45;dev&#45;&gt;holoscan</title>
<path fill="none" stroke="black" d="M1912.2,-403.82C1900.88,-385.8 1882.43,-356.73 1865.94,-332 1855.12,-315.8 1846.76,-314.59 1840.94,-296 1828.96,-257.75 1863.76,-143.9 1881.39,-90.82"/>
<polygon fill="black" stroke="black" points="1884.62,-92.2 1884.48,-81.61 1877.98,-89.97 1884.62,-92.2"/>
</g>
<!-- cuda&#45;nvml&#45;dev&#45;&gt;cuda&#45;toolkit -->
<g id="edge52" class="edge">
<title>cuda&#45;nvml&#45;dev&#45;&gt;cuda&#45;toolkit</title>
<path fill="none" stroke="black" d="M1830.91,-421.6C1599.85,-422.35 1008.55,-419.17 936.94,-368 893.78,-337.17 879.24,-272.66 874.37,-235.33"/>
<polygon fill="black" stroke="black" points="877.89,-235.29 873.27,-225.75 870.93,-236.08 877.89,-235.29"/>
</g>
<!-- cuda&#45;visual&#45;tools -->
<g id="node28" class="node">
<title>cuda&#45;visual&#45;tools</title>
<g id="a_node28"><a xlink:href="https://github.com/conda-forge/cuda-visual-tools-feedstock/pull/20" xlink:title="cuda visual tools ✓">
<ellipse fill="#31688e" stroke="black" cx="482.94" cy="-350" rx="102.77" ry="18"/>
<text text-anchor="middle" x="482.94" y="-345.32" font-family="Times,serif" font-size="14.00" fill="white">cuda visual tools ✓</text>
</a>
</g>
</g>
<!-- cuda&#45;nvml&#45;dev&#45;&gt;cuda&#45;visual&#45;tools -->
<g id="edge51" class="edge">
<title>cuda&#45;nvml&#45;dev&#45;&gt;cuda&#45;visual&#45;tools</title>
<path fill="none" stroke="black" d="M1830.93,-420.83C1614.75,-419.67 1057.77,-412.22 594.94,-368 585.65,-367.11 575.96,-365.97 566.33,-364.7"/>
<polygon fill="black" stroke="black" points="566.97,-361.25 556.59,-363.36 566.02,-368.19 566.97,-361.25"/>
</g>
<!-- cuda&#45;visual&#45;tools&#45;&gt;cuda&#45;tools -->
<g id="edge53" class="edge">
<title>cuda&#45;visual&#45;tools&#45;&gt;cuda&#45;tools</title>
<path fill="none" stroke="black" d="M542.92,-335C594.7,-322.92 669.17,-305.54 721.39,-293.36"/>
<polygon fill="black" stroke="black" points="722.09,-296.79 731.04,-291.11 720.5,-289.97 722.09,-296.79"/>
</g>
<!-- cuda&#45;&gt;holoscan -->
<g id="edge66" class="edge">
<title>cuda&#45;&gt;holoscan</title>
<path fill="none" stroke="black" d="M1092.27,-125.59C1110.83,-122.23 1133.48,-118.47 1153.94,-116 1396.18,-86.77 1685.3,-71.72 1817.92,-65.91"/>
<polygon fill="black" stroke="black" points="1817.76,-69.42 1827.6,-65.49 1817.46,-62.43 1817.76,-69.42"/>
</g>
<!-- cuda&#45;cupti -->
<g id="node30" class="node">
<title>cuda&#45;cupti</title>
<g id="a_node30"><a xlink:href="https://github.com/conda-forge/cuda-cupti-feedstock/pull/26" xlink:title="cuda cupti ❎">
<ellipse fill="#31688e" stroke="black" cx="962.94" cy="-494" rx="78.57" ry="18"/>
<text text-anchor="middle" x="962.94" y="-489.32" font-family="Times,serif" font-size="14.00" fill="white">cuda cupti ❎</text>
</a>
</g>
</g>
<!-- cuda&#45;cupti&#45;&gt;holoscan -->
<g id="edge55" class="edge">
<title>cuda&#45;cupti&#45;&gt;holoscan</title>
<path fill="none" stroke="black" d="M1041.9,-493.2C1310.1,-493.42 2184.73,-490.17 2460.94,-440 2583.18,-417.79 2725.94,-475.24 2725.94,-351 2725.94,-351 2725.94,-351 2725.94,-205 2725.94,-148.43 2686.53,-139.21 2634.94,-116 2574.87,-88.98 2140.46,-71.44 1964.57,-65.37"/>
<polygon fill="black" stroke="black" points="1964.74,-61.87 1954.63,-65.03 1964.51,-68.87 1964.74,-61.87"/>
</g>
<!-- cuda&#45;cupti&#45;&gt;cuda&#45;command&#45;line&#45;tools -->
<g id="edge56" class="edge">
<title>cuda&#45;cupti&#45;&gt;cuda&#45;command&#45;line&#45;tools</title>
<path fill="none" stroke="black" d="M926.78,-477.81C905.25,-468.15 877.75,-454.71 854.94,-440 825.28,-420.88 794.51,-394.8 773.43,-375.82"/>
<polygon fill="black" stroke="black" points="775.89,-373.33 766.15,-369.18 771.18,-378.5 775.89,-373.33"/>
</g>
<!-- cuda&#45;cupti&#45;&gt;cuda&#45;cupti -->
<g id="edge57" class="edge">
<title>cuda&#45;cupti&#45;&gt;cuda&#45;cupti</title>
<path fill="none" stroke="black" d="M1017.05,-507.36C1039.97,-508.37 1059.5,-503.91 1059.5,-494 1059.5,-485.79 1046.11,-481.32 1028.49,-480.6"/>
<polygon fill="black" stroke="black" points="1028.55,-477.1 1018.56,-480.63 1028.57,-484.1 1028.55,-477.1"/>
</g>
<!-- cuda&#45;nvprof -->
<g id="node31" class="node">
<title>cuda&#45;nvprof</title>
<g id="a_node31"><a xlink:href="https://github.com/conda-forge/cuda-nvprof-feedstock/pull/20" xlink:title="cuda nvprof ❎">
<ellipse fill="#31688e" stroke="black" cx="949.94" cy="-422" rx="85.93" ry="18"/>
<text text-anchor="middle" x="949.94" y="-417.32" font-family="Times,serif" font-size="14.00" fill="white">cuda nvprof ❎</text>
</a>
</g>
</g>
<!-- cuda&#45;cupti&#45;&gt;cuda&#45;nvprof -->
<g id="edge58" class="edge">
<title>cuda&#45;cupti&#45;&gt;cuda&#45;nvprof</title>
<path fill="none" stroke="black" d="M959.72,-475.7C958.35,-468.32 956.72,-459.52 955.18,-451.25"/>
<polygon fill="black" stroke="black" points="958.66,-450.79 953.39,-441.59 951.77,-452.06 958.66,-450.79"/>
</g>
<!-- cuda&#45;nvprof&#45;&gt;cuda&#45;command&#45;line&#45;tools -->
<g id="edge59" class="edge">
<title>cuda&#45;nvprof&#45;&gt;cuda&#45;command&#45;line&#45;tools</title>
<path fill="none" stroke="black" d="M906.88,-406.15C877.29,-395.95 837.65,-382.28 805.23,-371.1"/>
<polygon fill="black" stroke="black" points="806.56,-367.86 795.97,-367.91 804.28,-374.48 806.56,-367.86"/>
</g>
<!-- cuda&#45;nsight -->
<g id="node32" class="node">
<title>cuda&#45;nsight</title>
<g id="a_node32"><a xlink:href="https://github.com/conda-forge/cuda-nsight-feedstock/pull/16" xlink:title="cuda nsight ❎">
<ellipse fill="#31688e" stroke="black" cx="482.94" cy="-422" rx="84.88" ry="18"/>
<text text-anchor="middle" x="482.94" y="-417.32" font-family="Times,serif" font-size="14.00" fill="white">cuda nsight ❎</text>
</a>
</g>
</g>
<!-- cuda&#45;nsight&#45;&gt;cuda&#45;visual&#45;tools -->
<g id="edge60" class="edge">
<title>cuda&#45;nsight&#45;&gt;cuda&#45;visual&#45;tools</title>
<path fill="none" stroke="black" d="M482.94,-403.7C482.94,-396.41 482.94,-387.73 482.94,-379.54"/>
<polygon fill="black" stroke="black" points="486.44,-379.62 482.94,-369.62 479.44,-379.62 486.44,-379.62"/>
</g>
<!-- cuda&#45;nvprune -->
<g id="node33" class="node">
<title>cuda&#45;nvprune</title>
<g id="a_node33"><a xlink:href="https://github.com/conda-forge/cuda-nvprune-feedstock/pull/17" xlink:title="cuda nvprune ✓">
<ellipse fill="#31688e" stroke="black" cx="274.94" cy="-350" rx="87.51" ry="18"/>
<text text-anchor="middle" x="274.94" y="-345.32" font-family="Times,serif" font-size="14.00" fill="white">cuda nvprune ✓</text>
</a>
</g>
</g>
<!-- cuda&#45;nvprune&#45;&gt;cuda&#45;compiler -->
<g id="edge61" class="edge">
<title>cuda&#45;nvprune&#45;&gt;cuda&#45;compiler</title>
<path fill="none" stroke="black" d="M274.94,-331.7C274.94,-324.41 274.94,-315.73 274.94,-307.54"/>
<polygon fill="black" stroke="black" points="278.44,-307.62 274.94,-297.62 271.44,-307.62 278.44,-307.62"/>
</g>
<!-- cuda&#45;gdb -->
<g id="node34" class="node">
<title>cuda&#45;gdb</title>
<g id="a_node34"><a xlink:href="https://github.com/conda-forge/cuda-gdb-feedstock/pull/20" xlink:title="cuda gdb ❎">
<ellipse fill="#31688e" stroke="black" cx="657.94" cy="-422" rx="72.25" ry="18"/>
<text text-anchor="middle" x="657.94" y="-417.32" font-family="Times,serif" font-size="14.00" fill="white">cuda gdb ❎</text>
</a>
</g>
</g>
<!-- cuda&#45;gdb&#45;&gt;cuda&#45;command&#45;line&#45;tools -->
<g id="edge62" class="edge">
<title>cuda&#45;gdb&#45;&gt;cuda&#45;command&#45;line&#45;tools</title>
<path fill="none" stroke="black" d="M679.03,-404.41C690.09,-395.71 703.84,-384.89 716.08,-375.27"/>
<polygon fill="black" stroke="black" points="718.18,-378.07 723.88,-369.14 713.85,-372.57 718.18,-378.07"/>
</g>
<!-- cuda&#45;opencl -->
<g id="node35" class="node">
<title>cuda&#45;opencl</title>
<g id="a_node35"><a xlink:href="https://github.com/conda-forge/cuda-opencl-feedstock/pull/19" xlink:title="cuda opencl ✓">
<ellipse fill="#31688e" stroke="black" cx="1192.94" cy="-350" rx="78.57" ry="18"/>
<text text-anchor="middle" x="1192.94" y="-345.32" font-family="Times,serif" font-size="14.00" fill="white">cuda opencl ✓</text>
</a>
</g>
</g>
<!-- cuda&#45;opencl&#45;&gt;cuda&#45;libraries -->
<g id="edge63" class="edge">
<title>cuda&#45;opencl&#45;&gt;cuda&#45;libraries</title>
<path fill="none" stroke="black" d="M1214.5,-332.41C1226.09,-323.5 1240.57,-312.36 1253.31,-302.56"/>
<polygon fill="black" stroke="black" points="1255.22,-305.51 1261.01,-296.64 1250.95,-299.96 1255.22,-305.51"/>
</g>
<!-- cuda&#45;opencl&#45;&gt;cuda&#45;opencl -->
<g id="edge64" class="edge">
<title>cuda&#45;opencl&#45;&gt;cuda&#45;opencl</title>
<path fill="none" stroke="black" d="M1247.05,-363.36C1269.97,-364.37 1289.5,-359.91 1289.5,-350 1289.5,-341.79 1276.11,-337.32 1258.49,-336.6"/>
<polygon fill="black" stroke="black" points="1258.55,-333.1 1248.56,-336.63 1258.57,-340.1 1258.55,-333.1"/>
</g>
<!-- nvcomp -->
<g id="node36" class="node">
<title>nvcomp</title>
<g id="a_node36"><a xlink:href="https://github.com/conda-forge/nvcomp-feedstock/pull/19" xlink:title="nvcomp ❎">
<ellipse fill="#31688e" stroke="black" cx="2860.94" cy="-18" rx="65.41" ry="18"/>
<text text-anchor="middle" x="2860.94" y="-13.32" font-family="Times,serif" font-size="14.00" fill="white">nvcomp ❎</text>
</a>
</g>
</g>
<!-- cuda&#45;compat -->
<g id="node37" class="node">
<title>cuda&#45;compat</title>
<g id="a_node37"><a xlink:href="https://github.com/conda-forge/cuda-compat-feedstock/pull/18" xlink:title="cuda compat ❎">
<ellipse fill="#31688e" stroke="black" cx="3077.94" cy="-278" rx="90.14" ry="18"/>
<text text-anchor="middle" x="3077.94" y="-273.32" font-family="Times,serif" font-size="14.00" fill="white">cuda compat ❎</text>
</a>
</g>
</g>
<!-- cuda&#45;compat&#45;&gt;cuda&#45;compat -->
<g id="edge67" class="edge">
<title>cuda&#45;compat&#45;&gt;cuda&#45;compat</title>
<path fill="none" stroke="black" d="M3163.16,-284.22C3176.76,-283.31 3186.08,-281.23 3186.08,-278 3186.08,-275.78 3181.67,-274.1 3174.5,-272.98"/>
<polygon fill="black" stroke="black" points="3174.98,-269.51 3164.67,-271.94 3174.25,-276.47 3174.98,-269.51"/>
</g>
<!-- cuda&#45;sanitizer&#45;api -->
<g id="node38" class="node">
<title>cuda&#45;sanitizer&#45;api</title>
<g id="a_node38"><a xlink:href="https://github.com/conda-forge/cuda-sanitizer-api-feedstock/pull/21" xlink:title="cuda sanitizer api ✓">
<ellipse fill="#31688e" stroke="black" cx="757.94" cy="-494" rx="108.03" ry="18"/>
<text text-anchor="middle" x="757.94" y="-489.32" font-family="Times,serif" font-size="14.00" fill="white">cuda sanitizer api ✓</text>
</a>
</g>
</g>
<!-- cuda&#45;sanitizer&#45;api&#45;&gt;cuda&#45;command&#45;line&#45;tools -->
<g id="edge68" class="edge">
<title>cuda&#45;sanitizer&#45;api&#45;&gt;cuda&#45;command&#45;line&#45;tools</title>
<path fill="none" stroke="black" d="M756.59,-475.59C754.73,-451.61 751.36,-408.14 749.14,-379.42"/>
<polygon fill="black" stroke="black" points="752.64,-379.32 748.38,-369.62 745.66,-379.86 752.64,-379.32"/>
</g>
<!-- nsight&#45;compute -->
<g id="node39" class="node">
<title>nsight&#45;compute</title>
<g id="a_node39"><a xlink:href="https://github.com/conda-forge/nsight-compute-feedstock/pull/37" xlink:title="nsight compute ✓">
<ellipse fill="#31688e" stroke="black" cx="369.94" cy="-494" rx="96.98" ry="18"/>
<text text-anchor="middle" x="369.94" y="-489.32" font-family="Times,serif" font-size="14.00" fill="white">nsight compute ✓</text>
</a>
</g>
</g>
<!-- nsight&#45;compute&#45;&gt;cuda&#45;visual&#45;tools -->
<g id="edge69" class="edge">
<title>nsight&#45;compute&#45;&gt;cuda&#45;visual&#45;tools</title>
<path fill="none" stroke="black" d="M369.57,-475.57C370.02,-456.28 373.4,-425.13 388.94,-404 398.94,-390.39 413.56,-379.79 428.31,-371.77"/>
<polygon fill="black" stroke="black" points="429.79,-374.94 437.13,-367.3 426.63,-368.7 429.79,-374.94"/>
</g>
<!-- libnvfatbin -->
<g id="node40" class="node">
<title>libnvfatbin</title>
<g id="a_node40"><a xlink:href="https://github.com/conda-forge/libnvfatbin-feedstock/pull/14" xlink:title="libnvfatbin ❎">
<ellipse fill="#31688e" stroke="black" cx="1387.94" cy="-350" rx="80.67" ry="18"/>
<text text-anchor="middle" x="1387.94" y="-345.32" font-family="Times,serif" font-size="14.00" fill="white">libnvfatbin ❎</text>
</a>
</g>
</g>
<!-- libnvfatbin&#45;&gt;cuda&#45;libraries&#45;static -->
<g id="edge70" class="edge">
<title>libnvfatbin&#45;&gt;cuda&#45;libraries&#45;static</title>
<path fill="none" stroke="black" d="M1416,-332.76C1431.99,-323.51 1452.27,-311.78 1469.81,-301.64"/>
<polygon fill="black" stroke="black" points="1471.55,-304.67 1478.45,-296.64 1468.04,-298.61 1471.55,-304.67"/>
</g>
<!-- libnvfatbin&#45;&gt;cuda&#45;libraries -->
<g id="edge71" class="edge">
<title>libnvfatbin&#45;&gt;cuda&#45;libraries</title>
<path fill="none" stroke="black" d="M1363.29,-332.41C1349.79,-323.32 1332.85,-311.92 1318.09,-301.99"/>
<polygon fill="black" stroke="black" points="1320.27,-299.24 1310.02,-296.56 1316.36,-305.05 1320.27,-299.24"/>
</g>
<!-- libnvfatbin&#45;&gt;libnvfatbin -->
<g id="edge72" class="edge">
<title>libnvfatbin&#45;&gt;libnvfatbin</title>
<path fill="none" stroke="black" d="M1443.72,-363.38C1466.93,-364.3 1486.61,-359.84 1486.61,-350 1486.61,-341.81 1472.99,-337.35 1455.04,-336.61"/>
<polygon fill="black" stroke="black" points="1455.23,-333.11 1445.24,-336.62 1455.24,-340.11 1455.23,-333.11"/>
</g>
<!-- libnvjpeg2k&#45;split -->
<g id="node41" class="node">
<title>libnvjpeg2k&#45;split</title>
<g id="a_node41"><a xlink:href="https://github.com/conda-forge/libnvjpeg2k-split-feedstock/pull/14" xlink:title="libnvjpeg2k split ❎">
<ellipse fill="#31688e" stroke="black" cx="2851.94" cy="-278" rx="110.13" ry="18"/>
<text text-anchor="middle" x="2851.94" y="-273.32" font-family="Times,serif" font-size="14.00" fill="white">libnvjpeg2k split ❎</text>
</a>
</g>
</g>
<!-- libnvjpeg2k&#45;split&#45;&gt;libnvjpeg2k&#45;split -->
<g id="edge77" class="edge">
<title>libnvjpeg2k&#45;split&#45;&gt;libnvjpeg2k&#45;split</title>
<path fill="none" stroke="black" d="M2956.51,-283.99C2970.65,-282.98 2980.07,-280.99 2980.07,-278 2980.07,-275.9 2975.41,-274.29 2967.73,-273.17"/>
<polygon fill="black" stroke="black" points="2968.32,-269.71 2958.01,-272.17 2967.6,-276.67 2968.32,-269.71"/>
</g>
<!-- libnvtiff -->
<g id="node42" class="node">
<title>libnvtiff</title>
<g id="a_node42"><a xlink:href="https://github.com/conda-forge/libnvtiff-feedstock/pull/3" xlink:title="libnvtiff ✓">
<ellipse fill="#31688e" stroke="black" cx="1357.94" cy="-18" rx="58.05" ry="18"/>
<text text-anchor="middle" x="1357.94" y="-13.32" font-family="Times,serif" font-size="14.00" fill="white">libnvtiff ✓</text>
</a>
</g>
</g>
<!-- libnvtiff&#45;&gt;libnvtiff -->
<g id="edge78" class="edge">
<title>libnvtiff&#45;&gt;libnvtiff</title>
<path fill="none" stroke="black" d="M1412.62,-24.59C1424.96,-23.99 1433.98,-21.8 1433.98,-18 1433.98,-15.51 1430.1,-13.71 1423.94,-12.59"/>
<polygon fill="black" stroke="black" points="1424.44,-9.13 1414.13,-11.57 1423.71,-16.09 1424.44,-9.13"/>
</g>
</g>
</svg>
