<?xml version="1.0" encoding="UTF-8" standalone="no"?>
<!DOCTYPE svg PUBLIC "-//W3C//DTD SVG 1.1//EN"
 "http://www.w3.org/Graphics/SVG/1.1/DTD/svg11.dtd">
<!-- Generated by graphviz version 12.2.1 (20250203.1708)
 -->
<!-- Pages: 1 -->
<svg width="2537pt" height="304pt"
 viewBox="0.00 0.00 2537.38 304.00" xmlns="http://www.w3.org/2000/svg" xmlns:xlink="http://www.w3.org/1999/xlink">
<g id="graph0" class="graph" transform="scale(1 1) rotate(0) translate(4 300)">
<polygon fill="white" stroke="none" points="-4,4 -4,-300 2533.38,-300 2533.38,4 -4,4"/>
<!-- cudatoolkit -->
<g id="node1" class="node">
<title>cudatoolkit</title>
<g id="a_node1"><a xlink:href="https://github.com/conda-forge/cudatoolkit-feedstock/pull/108" xlink:title="cudatoolkit ❎">
<ellipse fill="#31688e" stroke="black" cx="772.25" cy="-206" rx="82.25" ry="18"/>
<text text-anchor="middle" x="772.25" y="-201.32" font-family="Times,serif" font-size="14.00" fill="white">cudatoolkit ❎</text>
</a>
</g>
</g>
<!-- cudatoolkit&#45;&gt;cudatoolkit -->
<g id="edge1" class="edge">
<title>cudatoolkit&#45;&gt;cudatoolkit</title>
<path fill="none" stroke="black" d="M829.19,-219.39C852.66,-220.27 872.5,-215.81 872.5,-206 872.5,-197.84 858.76,-193.38 840.63,-192.62"/>
<polygon fill="black" stroke="black" points="840.7,-189.12 830.7,-192.61 840.7,-196.12 840.7,-189.12"/>
</g>
<!-- cudnn -->
<g id="node2" class="node">
<title>cudnn</title>
<g id="a_node2"><a xlink:href="https://github.com/conda-forge/cudnn-feedstock/pull/112" xlink:title="cudnn ✓">
<ellipse fill="#31688e" stroke="black" cx="778.25" cy="-134" rx="49.63" ry="18"/>
<text text-anchor="middle" x="778.25" y="-129.32" font-family="Times,serif" font-size="14.00" fill="white">cudnn ✓</text>
</a>
</g>
</g>
<!-- cudatoolkit&#45;&gt;cudnn -->
<g id="edge2" class="edge">
<title>cudatoolkit&#45;&gt;cudnn</title>
<path fill="none" stroke="black" d="M773.74,-187.7C774.36,-180.41 775.1,-171.73 775.81,-163.54"/>
<polygon fill="black" stroke="black" points="779.29,-163.87 776.66,-153.61 772.32,-163.28 779.29,-163.87"/>
</g>
<!-- cutensor -->
<g id="node3" class="node">
<title>cutensor</title>
<g id="a_node3"><a xlink:href="https://github.com/conda-forge/cutensor-feedstock/pull/69" xlink:title="cutensor ❎">
<ellipse fill="#31688e" stroke="black" cx="566.25" cy="-62" rx="70.15" ry="18"/>
<text text-anchor="middle" x="566.25" y="-57.33" font-family="Times,serif" font-size="14.00" fill="white">cutensor ❎</text>
</a>
</g>
</g>
<!-- cudatoolkit&#45;&gt;cutensor -->
<g id="edge3" class="edge">
<title>cudatoolkit&#45;&gt;cutensor</title>
<path fill="none" stroke="black" d="M748.22,-188.43C711.37,-163.03 640.83,-114.41 599.23,-85.73"/>
<polygon fill="black" stroke="black" points="601.28,-82.9 591.06,-80.1 597.31,-88.66 601.28,-82.9"/>
</g>
<!-- libcal -->
<g id="node4" class="node">
<title>libcal</title>
<g id="a_node4"><a xlink:href="https://github.com/conda-forge/libcal-feedstock/pull/8" xlink:title="libcal ❎">
<ellipse fill="#31688e" stroke="black" cx="899.25" cy="-134" rx="53.31" ry="18"/>
<text text-anchor="middle" x="899.25" y="-129.32" font-family="Times,serif" font-size="14.00" fill="white">libcal ❎</text>
</a>
</g>
</g>
<!-- cudatoolkit&#45;&gt;libcal -->
<g id="edge4" class="edge">
<title>cudatoolkit&#45;&gt;libcal</title>
<path fill="none" stroke="black" d="M801.71,-188.76C819.72,-178.84 842.92,-166.05 862.18,-155.43"/>
<polygon fill="black" stroke="black" points="863.73,-158.58 870.8,-150.68 860.35,-152.44 863.73,-158.58"/>
</g>
<!-- libnvshmem -->
<g id="node5" class="node">
<title>libnvshmem</title>
<g id="a_node5"><a xlink:href="https://github.com/conda-forge/libnvshmem-feedstock/pull/3" xlink:title="libnvshmem ✓">
<ellipse fill="#31688e" stroke="black" cx="1997.25" cy="-134" rx="80.14" ry="18"/>
<text text-anchor="middle" x="1997.25" y="-129.32" font-family="Times,serif" font-size="14.00" fill="white">libnvshmem ✓</text>
</a>
</g>
</g>
<!-- cudatoolkit&#45;&gt;libnvshmem -->
<g id="edge5" class="edge">
<title>cudatoolkit&#45;&gt;libnvshmem</title>
<path fill="none" stroke="black" d="M853.55,-202.71C1078.1,-196.15 1703.73,-176.18 1908.25,-152 1915.12,-151.19 1922.26,-150.15 1929.36,-149"/>
<polygon fill="black" stroke="black" points="1929.71,-152.49 1938.97,-147.35 1928.53,-145.59 1929.71,-152.49"/>
</g>
<!-- holoscan -->
<g id="node6" class="node">
<title>holoscan</title>
<g id="a_node6"><a xlink:href="https://github.com/conda-forge/holoscan-feedstock/pull/3" xlink:title="holoscan ✓">
<ellipse fill="#31688e" stroke="black" cx="717.25" cy="-62" rx="62.78" ry="18"/>
<text text-anchor="middle" x="717.25" y="-57.33" font-family="Times,serif" font-size="14.00" fill="white">holoscan ✓</text>
</a>
</g>
</g>
<!-- cudatoolkit&#45;&gt;holoscan -->
<g id="edge6" class="edge">
<title>cudatoolkit&#45;&gt;holoscan</title>
<path fill="none" stroke="black" d="M748.74,-188.41C737.62,-179.11 725.44,-166.48 719.25,-152 711.12,-132.97 710.95,-109.5 712.63,-91.44"/>
<polygon fill="black" stroke="black" points="716.09,-92.04 713.8,-81.69 709.14,-91.21 716.09,-92.04"/>
</g>
<!-- cudnn&#45;&gt;holoscan -->
<g id="edge7" class="edge">
<title>cudnn&#45;&gt;holoscan</title>
<path fill="none" stroke="black" d="M763.8,-116.41C756.53,-108.08 747.58,-97.8 739.46,-88.49"/>
<polygon fill="black" stroke="black" points="742.23,-86.34 733.02,-81.1 736.95,-90.94 742.23,-86.34"/>
</g>
<!-- libcal&#45;&gt;libcal -->
<g id="edge8" class="edge">
<title>libcal&#45;&gt;libcal</title>
<path fill="none" stroke="black" d="M936.67,-147.17C954.68,-148.8 970.56,-144.41 970.56,-134 970.56,-125.87 960.87,-121.41 948.04,-120.63"/>
<polygon fill="black" stroke="black" points="948.12,-117.12 938.19,-120.8 948.25,-124.12 948.12,-117.12"/>
</g>
<!-- cusolvermp -->
<g id="node7" class="node">
<title>cusolvermp</title>
<g id="a_node7"><a xlink:href="https://github.com/conda-forge/cusolvermp-feedstock/pull/2" xlink:title="cusolvermp ✓">
<ellipse fill="#31688e" stroke="black" cx="893.25" cy="-62" rx="76.99" ry="18"/>
<text text-anchor="middle" x="893.25" y="-57.33" font-family="Times,serif" font-size="14.00" fill="white">cusolvermp ✓</text>
</a>
</g>
</g>
<!-- libcal&#45;&gt;cusolvermp -->
<g id="edge9" class="edge">
<title>libcal&#45;&gt;cusolvermp</title>
<path fill="none" stroke="black" d="M897.77,-115.7C897.14,-108.41 896.4,-99.73 895.7,-91.54"/>
<polygon fill="black" stroke="black" points="899.19,-91.28 894.85,-81.61 892.21,-91.87 899.19,-91.28"/>
</g>
<!-- libnvshmem&#45;&gt;libnvshmem -->
<g id="edge10" class="edge">
<title>libnvshmem&#45;&gt;libnvshmem</title>
<path fill="none" stroke="black" d="M2052.74,-147.38C2075.83,-148.3 2095.4,-143.84 2095.4,-134 2095.4,-125.85 2081.98,-121.39 2064.25,-120.62"/>
<polygon fill="black" stroke="black" points="2064.26,-117.12 2054.26,-120.62 2064.26,-124.12 2064.26,-117.12"/>
</g>
<!-- libcufftmp -->
<g id="node8" class="node">
<title>libcufftmp</title>
<g id="a_node8"><a xlink:href="https://github.com/conda-forge/libcufftmp-feedstock/pull/1" xlink:title="libcufftmp ❎">
<ellipse fill="#31688e" stroke="black" cx="1997.25" cy="-62" rx="77.52" ry="18"/>
<text text-anchor="middle" x="1997.25" y="-57.33" font-family="Times,serif" font-size="14.00" fill="white">libcufftmp ❎</text>
</a>
</g>
</g>
<!-- libnvshmem&#45;&gt;libcufftmp -->
<g id="edge11" class="edge">
<title>libnvshmem&#45;&gt;libcufftmp</title>
<path fill="none" stroke="black" d="M1997.25,-115.7C1997.25,-108.41 1997.25,-99.73 1997.25,-91.54"/>
<polygon fill="black" stroke="black" points="2000.75,-91.62 1997.25,-81.62 1993.75,-91.62 2000.75,-91.62"/>
</g>
<!-- holoscan&#45;&gt;holoscan -->
<g id="edge12" class="edge">
<title>holoscan&#45;&gt;holoscan</title>
<path fill="none" stroke="black" d="M760.88,-75.26C780.76,-76.62 798.04,-72.2 798.04,-62 798.04,-53.8 786.85,-49.33 772.12,-48.61"/>
<polygon fill="black" stroke="black" points="772.35,-45.1 762.4,-48.72 772.44,-52.1 772.35,-45.1"/>
</g>
<!-- libcufftmp&#45;&gt;libcufftmp -->
<g id="edge48" class="edge">
<title>libcufftmp&#45;&gt;libcufftmp</title>
<path fill="none" stroke="black" d="M2050.78,-75.36C2073.45,-76.37 2092.77,-71.91 2092.77,-62 2092.77,-53.79 2079.52,-49.32 2062.09,-48.6"/>
<polygon fill="black" stroke="black" points="2062.28,-45.1 2052.29,-48.63 2062.3,-52.1 2062.28,-45.1"/>
</g>
<!-- libcusparse -->
<g id="node9" class="node">
<title>libcusparse</title>
<g id="a_node9"><a xlink:href="https://github.com/conda-forge/libcusparse-feedstock/pull/22" xlink:title="libcusparse ❎">
<ellipse fill="#31688e" stroke="black" cx="1240.25" cy="-134" rx="83.83" ry="18"/>
<text text-anchor="middle" x="1240.25" y="-129.32" font-family="Times,serif" font-size="14.00" fill="white">libcusparse ❎</text>
</a>
</g>
</g>
<!-- libcusparse&#45;&gt;holoscan -->
<g id="edge13" class="edge">
<title>libcusparse&#45;&gt;holoscan</title>
<path fill="none" stroke="black" d="M1179.83,-121.27C1169,-119.37 1157.81,-117.52 1147.25,-116 996.85,-94.32 957.59,-102.12 807.25,-80 797.87,-78.62 787.97,-76.96 778.31,-75.22"/>
<polygon fill="black" stroke="black" points="779.07,-71.81 768.6,-73.44 777.81,-78.69 779.07,-71.81"/>
</g>
<!-- libcusparse&#45;&gt;libcusparse -->
<g id="edge14" class="edge">
<title>libcusparse&#45;&gt;libcusparse</title>
<path fill="none" stroke="black" d="M1298.34,-147.4C1322.07,-148.24 1342.08,-143.77 1342.08,-134 1342.08,-125.83 1328.09,-121.37 1309.65,-120.61"/>
<polygon fill="black" stroke="black" points="1309.86,-117.12 1299.85,-120.6 1309.85,-124.12 1309.86,-117.12"/>
</g>
<!-- cuda&#45;libraries&#45;static -->
<g id="node10" class="node">
<title>cuda&#45;libraries&#45;static</title>
<g id="a_node10"><a xlink:href="https://github.com/conda-forge/cuda-libraries-static-feedstock/pull/21" xlink:title="cuda libraries static ✓">
<ellipse fill="#31688e" stroke="black" cx="1267.25" cy="-62" rx="119.08" ry="18"/>
<text text-anchor="middle" x="1267.25" y="-57.33" font-family="Times,serif" font-size="14.00" fill="white">cuda libraries static ✓</text>
</a>
</g>
</g>
<!-- libcusparse&#45;&gt;cuda&#45;libraries&#45;static -->
<g id="edge15" class="edge">
<title>libcusparse&#45;&gt;cuda&#45;libraries&#45;static</title>
<path fill="none" stroke="black" d="M1246.93,-115.7C1249.84,-108.15 1253.32,-99.12 1256.58,-90.68"/>
<polygon fill="black" stroke="black" points="1259.78,-92.11 1260.11,-81.52 1253.25,-89.59 1259.78,-92.11"/>
</g>
<!-- cuda&#45;libraries -->
<g id="node11" class="node">
<title>cuda&#45;libraries</title>
<g id="a_node11"><a xlink:href="https://github.com/conda-forge/cuda-libraries-feedstock/pull/20" xlink:title="cuda libraries ✓">
<ellipse fill="#31688e" stroke="black" cx="1492.25" cy="-62" rx="88.04" ry="18"/>
<text text-anchor="middle" x="1492.25" y="-57.33" font-family="Times,serif" font-size="14.00" fill="white">cuda libraries ✓</text>
</a>
</g>
</g>
<!-- libcusparse&#45;&gt;cuda&#45;libraries -->
<g id="edge16" class="edge">
<title>libcusparse&#45;&gt;cuda&#45;libraries</title>
<path fill="none" stroke="black" d="M1290.04,-119.17C1330.42,-107.95 1387.52,-92.09 1430.75,-80.08"/>
<polygon fill="black" stroke="black" points="1431.55,-83.49 1440.25,-77.45 1429.68,-76.75 1431.55,-83.49"/>
</g>
<!-- libcufile -->
<g id="node12" class="node">
<title>libcufile</title>
<g id="a_node12"><a xlink:href="https://github.com/conda-forge/libcufile-feedstock/pull/31" xlink:title="libcufile ❎">
<ellipse fill="#31688e" stroke="black" cx="1054.25" cy="-134" rx="65.94" ry="18"/>
<text text-anchor="middle" x="1054.25" y="-129.32" font-family="Times,serif" font-size="14.00" fill="white">libcufile ❎</text>
</a>
</g>
</g>
<!-- libcufile&#45;&gt;holoscan -->
<g id="edge17" class="edge">
<title>libcufile&#45;&gt;holoscan</title>
<path fill="none" stroke="black" d="M1005.07,-121.68C996.47,-119.75 987.61,-117.79 979.25,-116 910.98,-101.36 832.46,-85.62 779.32,-75.13"/>
<polygon fill="black" stroke="black" points="780.01,-71.7 769.53,-73.2 778.66,-78.57 780.01,-71.7"/>
</g>
<!-- libcufile&#45;&gt;cuda&#45;libraries&#45;static -->
<g id="edge18" class="edge">
<title>libcufile&#45;&gt;cuda&#45;libraries&#45;static</title>
<path fill="none" stroke="black" d="M1095.32,-119.5C1127.31,-108.99 1172.16,-94.25 1208.03,-82.46"/>
<polygon fill="black" stroke="black" points="1209.01,-85.83 1217.41,-79.38 1206.82,-79.18 1209.01,-85.83"/>
</g>
<!-- libcufile&#45;&gt;cuda&#45;libraries -->
<g id="edge19" class="edge">
<title>libcufile&#45;&gt;cuda&#45;libraries</title>
<path fill="none" stroke="black" d="M1107.31,-122.95C1120.35,-120.58 1134.29,-118.12 1147.25,-116 1257.16,-97.98 1285.28,-97.62 1395.25,-80 1402.12,-78.9 1409.26,-77.72 1416.4,-76.51"/>
<polygon fill="black" stroke="black" points="1416.84,-79.99 1426.11,-74.86 1415.66,-73.09 1416.84,-79.99"/>
</g>
<!-- libcufile&#45;&gt;libcufile -->
<g id="edge20" class="edge">
<title>libcufile&#45;&gt;libcufile</title>
<path fill="none" stroke="black" d="M1100.01,-147.29C1120.49,-148.55 1138.19,-144.12 1138.19,-134 1138.19,-125.77 1126.5,-121.31 1111.14,-120.6"/>
<polygon fill="black" stroke="black" points="1111.49,-117.1 1101.53,-120.7 1111.56,-124.1 1111.49,-117.1"/>
</g>
<!-- nvidia&#45;gds -->
<g id="node13" class="node">
<title>nvidia&#45;gds</title>
<g id="a_node13"><a xlink:href="https://github.com/conda-forge/nvidia-gds-feedstock/pull/20" xlink:title="nvidia gds ✓">
<ellipse fill="#31688e" stroke="black" cx="1059.25" cy="-62" rx="70.68" ry="18"/>
<text text-anchor="middle" x="1059.25" y="-57.33" font-family="Times,serif" font-size="14.00" fill="white">nvidia gds ✓</text>
</a>
</g>
</g>
<!-- libcufile&#45;&gt;nvidia&#45;gds -->
<g id="edge21" class="edge">
<title>libcufile&#45;&gt;nvidia&#45;gds</title>
<path fill="none" stroke="black" d="M1055.49,-115.7C1056.01,-108.41 1056.63,-99.73 1057.21,-91.54"/>
<polygon fill="black" stroke="black" points="1060.7,-91.84 1057.92,-81.61 1053.72,-91.34 1060.7,-91.84"/>
</g>
<!-- libnvjpeg -->
<g id="node14" class="node">
<title>libnvjpeg</title>
<g id="a_node14"><a xlink:href="https://github.com/conda-forge/libnvjpeg-feedstock/pull/19" xlink:title="libnvjpeg ✓">
<ellipse fill="#31688e" stroke="black" cx="1425.25" cy="-134" rx="65.41" ry="18"/>
<text text-anchor="middle" x="1425.25" y="-129.32" font-family="Times,serif" font-size="14.00" fill="white">libnvjpeg ✓</text>
</a>
</g>
</g>
<!-- libnvjpeg&#45;&gt;cuda&#45;libraries&#45;static -->
<g id="edge22" class="edge">
<title>libnvjpeg&#45;&gt;cuda&#45;libraries&#45;static</title>
<path fill="none" stroke="black" d="M1391.74,-118.15C1369.39,-108.25 1339.67,-95.08 1314.87,-84.1"/>
<polygon fill="black" stroke="black" points="1316.53,-81 1305.97,-80.15 1313.69,-87.4 1316.53,-81"/>
</g>
<!-- libnvjpeg&#45;&gt;cuda&#45;libraries -->
<g id="edge23" class="edge">
<title>libnvjpeg&#45;&gt;cuda&#45;libraries</title>
<path fill="none" stroke="black" d="M1441.13,-116.41C1449.19,-107.99 1459.15,-97.58 1468.13,-88.2"/>
<polygon fill="black" stroke="black" points="1470.59,-90.69 1474.98,-81.05 1465.53,-85.85 1470.59,-90.69"/>
</g>
<!-- libnvjpeg&#45;&gt;libnvjpeg -->
<g id="edge24" class="edge">
<title>libnvjpeg&#45;&gt;libnvjpeg</title>
<path fill="none" stroke="black" d="M1470.73,-147.29C1491.07,-148.55 1508.67,-144.12 1508.67,-134 1508.67,-125.85 1497.27,-121.39 1482.22,-120.62"/>
<polygon fill="black" stroke="black" points="1482.21,-117.12 1472.24,-120.7 1482.27,-124.12 1482.21,-117.12"/>
</g>
<!-- cuda&#45;nvtx -->
<g id="node15" class="node">
<title>cuda&#45;nvtx</title>
<g id="a_node15"><a xlink:href="https://github.com/conda-forge/cuda-nvtx-feedstock/pull/29" xlink:title="cuda nvtx ❎">
<ellipse fill="#31688e" stroke="black" cx="465.25" cy="-134" rx="75.41" ry="18"/>
<text text-anchor="middle" x="465.25" y="-129.32" font-family="Times,serif" font-size="14.00" fill="white">cuda nvtx ❎</text>
</a>
</g>
</g>
<!-- cuda&#45;nvtx&#45;&gt;holoscan -->
<g id="edge25" class="edge">
<title>cuda&#45;nvtx&#45;&gt;holoscan</title>
<path fill="none" stroke="black" d="M513.24,-119.67C555.77,-107.86 617.83,-90.62 662.32,-78.26"/>
<polygon fill="black" stroke="black" points="663.08,-81.68 671.78,-75.63 661.2,-74.94 663.08,-81.68"/>
</g>
<!-- cuda&#45;nvtx&#45;&gt;cuda&#45;nvtx -->
<g id="edge26" class="edge">
<title>cuda&#45;nvtx&#45;&gt;cuda&#45;nvtx</title>
<path fill="none" stroke="black" d="M517.6,-147.36C539.77,-148.37 558.66,-143.91 558.66,-134 558.66,-125.79 545.71,-121.32 528.66,-120.6"/>
<polygon fill="black" stroke="black" points="529.1,-117.1 519.11,-120.63 529.12,-124.1 529.1,-117.1"/>
</g>
<!-- cuda&#45;command&#45;line&#45;tools -->
<g id="node16" class="node">
<title>cuda&#45;command&#45;line&#45;tools</title>
<g id="a_node16"><a xlink:href="https://github.com/conda-forge/cuda-command-line-tools-feedstock/pull/23" xlink:title="cuda command line tools ✓">
<ellipse fill="#31688e" stroke="black" cx="229.25" cy="-62" rx="143.28" ry="18"/>
<text text-anchor="middle" x="229.25" y="-57.33" font-family="Times,serif" font-size="14.00" fill="white">cuda command line tools ✓</text>
</a>
</g>
</g>
<!-- cuda&#45;nvtx&#45;&gt;cuda&#45;command&#45;line&#45;tools -->
<g id="edge27" class="edge">
<title>cuda&#45;nvtx&#45;&gt;cuda&#45;command&#45;line&#45;tools</title>
<path fill="none" stroke="black" d="M419.19,-119.34C383.63,-108.79 333.98,-94.06 294.36,-82.31"/>
<polygon fill="black" stroke="black" points="295.51,-79 284.92,-79.51 293.51,-85.71 295.51,-79"/>
</g>
<!-- cuda&#45;nvml&#45;dev -->
<g id="node17" class="node">
<title>cuda&#45;nvml&#45;dev</title>
<g id="a_node17"><a xlink:href="https://github.com/conda-forge/cuda-nvml-dev-feedstock/pull/21" xlink:title="cuda nvml dev ✓">
<ellipse fill="#31688e" stroke="black" cx="772.25" cy="-278" rx="91.72" ry="18"/>
<text text-anchor="middle" x="772.25" y="-273.32" font-family="Times,serif" font-size="14.00" fill="white">cuda nvml dev ✓</text>
</a>
</g>
</g>
<!-- cuda&#45;nvml&#45;dev&#45;&gt;cudatoolkit -->
<g id="edge28" class="edge">
<title>cuda&#45;nvml&#45;dev&#45;&gt;cudatoolkit</title>
<path fill="none" stroke="black" d="M772.25,-259.7C772.25,-252.41 772.25,-243.73 772.25,-235.54"/>
<polygon fill="black" stroke="black" points="775.75,-235.62 772.25,-225.62 768.75,-235.62 775.75,-235.62"/>
</g>
<!-- cuda&#45;nvml&#45;dev&#45;&gt;libcal -->
<g id="edge29" class="edge">
<title>cuda&#45;nvml&#45;dev&#45;&gt;libcal</title>
<path fill="none" stroke="black" d="M824.35,-262.8C844.96,-254.66 867.08,-242.3 881.25,-224 894.47,-206.92 898.7,-182.64 899.77,-163.75"/>
<polygon fill="black" stroke="black" points="903.27,-163.85 900.04,-153.76 896.27,-163.66 903.27,-163.85"/>
</g>
<!-- cuda&#45;nvml&#45;dev&#45;&gt;libnvshmem -->
<g id="edge30" class="edge">
<title>cuda&#45;nvml&#45;dev&#45;&gt;libnvshmem</title>
<path fill="none" stroke="black" d="M855.57,-270.11C1043.8,-254.04 1516.08,-210.94 1908.25,-152 1914.73,-151.03 1921.46,-149.92 1928.18,-148.75"/>
<polygon fill="black" stroke="black" points="1928.72,-152.21 1937.95,-147 1927.49,-145.32 1928.72,-152.21"/>
</g>
<!-- cuda&#45;nvml&#45;dev&#45;&gt;holoscan -->
<g id="edge31" class="edge">
<title>cuda&#45;nvml&#45;dev&#45;&gt;holoscan</title>
<path fill="none" stroke="black" d="M727,-261.96C709.49,-253.67 691.27,-241.44 681.25,-224 656.67,-181.24 681.45,-123.17 700.3,-89.72"/>
<polygon fill="black" stroke="black" points="703.09,-91.88 705.13,-81.48 697.05,-88.34 703.09,-91.88"/>
</g>
<!-- cuda&#45;visual&#45;tools -->
<g id="node18" class="node">
<title>cuda&#45;visual&#45;tools</title>
<g id="a_node18"><a xlink:href="https://github.com/conda-forge/cuda-visual-tools-feedstock/pull/20" xlink:title="cuda visual tools ✓">
<ellipse fill="#31688e" stroke="black" cx="213.25" cy="-206" rx="102.77" ry="18"/>
<text text-anchor="middle" x="213.25" y="-201.32" font-family="Times,serif" font-size="14.00" fill="white">cuda visual tools ✓</text>
</a>
</g>
</g>
<!-- cuda&#45;nvml&#45;dev&#45;&gt;cuda&#45;visual&#45;tools -->
<g id="edge32" class="edge">
<title>cuda&#45;nvml&#45;dev&#45;&gt;cuda&#45;visual&#45;tools</title>
<path fill="none" stroke="black" d="M693.25,-268.48C603.66,-258.63 453.28,-241.51 324.25,-224 316.06,-222.89 307.53,-221.68 299.01,-220.43"/>
<polygon fill="black" stroke="black" points="299.74,-217 289.33,-219 298.71,-223.93 299.74,-217"/>
</g>
<!-- cuda&#45;cupti -->
<g id="node19" class="node">
<title>cuda&#45;cupti</title>
<g id="a_node19"><a xlink:href="https://github.com/conda-forge/cuda-cupti-feedstock/pull/26" xlink:title="cuda cupti ❎">
<ellipse fill="#31688e" stroke="black" cx="412.25" cy="-206" rx="78.57" ry="18"/>
<text text-anchor="middle" x="412.25" y="-201.32" font-family="Times,serif" font-size="14.00" fill="white">cuda cupti ❎</text>
</a>
</g>
</g>
<!-- cuda&#45;cupti&#45;&gt;holoscan -->
<g id="edge33" class="edge">
<title>cuda&#45;cupti&#45;&gt;holoscan</title>
<path fill="none" stroke="black" d="M460.39,-191.35C491.5,-181.85 532.52,-168.03 567.25,-152 609.24,-132.62 654.52,-104.68 684.22,-85.3"/>
<polygon fill="black" stroke="black" points="685.97,-88.33 692.4,-79.91 682.12,-82.49 685.97,-88.33"/>
</g>
<!-- cuda&#45;cupti&#45;&gt;cuda&#45;command&#45;line&#45;tools -->
<g id="edge34" class="edge">
<title>cuda&#45;cupti&#45;&gt;cuda&#45;command&#45;line&#45;tools</title>
<path fill="none" stroke="black" d="M355.38,-193.18C291.63,-179.67 196.43,-158.56 191.25,-152 176.41,-133.18 189.91,-107.7 204.77,-88.82"/>
<polygon fill="black" stroke="black" points="207.34,-91.21 211.09,-81.3 201.98,-86.71 207.34,-91.21"/>
</g>
<!-- cuda&#45;cupti&#45;&gt;cuda&#45;cupti -->
<g id="edge35" class="edge">
<title>cuda&#45;cupti&#45;&gt;cuda&#45;cupti</title>
<path fill="none" stroke="black" d="M466.36,-219.36C489.29,-220.37 508.82,-215.91 508.82,-206 508.82,-197.79 495.43,-193.32 477.8,-192.6"/>
<polygon fill="black" stroke="black" points="477.87,-189.1 467.88,-192.63 477.89,-196.1 477.87,-189.1"/>
</g>
<!-- cuda&#45;nvprof -->
<g id="node20" class="node">
<title>cuda&#45;nvprof</title>
<g id="a_node20"><a xlink:href="https://github.com/conda-forge/cuda-nvprof-feedstock/pull/20" xlink:title="cuda nvprof ❎">
<ellipse fill="#31688e" stroke="black" cx="286.25" cy="-134" rx="85.93" ry="18"/>
<text text-anchor="middle" x="286.25" y="-129.32" font-family="Times,serif" font-size="14.00" fill="white">cuda nvprof ❎</text>
</a>
</g>
</g>
<!-- cuda&#45;cupti&#45;&gt;cuda&#45;nvprof -->
<g id="edge36" class="edge">
<title>cuda&#45;cupti&#45;&gt;cuda&#45;nvprof</title>
<path fill="none" stroke="black" d="M383.35,-188.94C366.18,-179.4 344.18,-167.18 325.47,-156.79"/>
<polygon fill="black" stroke="black" points="327.23,-153.76 316.78,-151.96 323.83,-159.88 327.23,-153.76"/>
</g>
<!-- cuda&#45;nvprof&#45;&gt;cuda&#45;command&#45;line&#45;tools -->
<g id="edge37" class="edge">
<title>cuda&#45;nvprof&#45;&gt;cuda&#45;command&#45;line&#45;tools</title>
<path fill="none" stroke="black" d="M272.45,-116.05C265.83,-107.92 257.75,-98 250.38,-88.94"/>
<polygon fill="black" stroke="black" points="253.3,-86.99 244.28,-81.45 247.88,-91.41 253.3,-86.99"/>
</g>
<!-- cuda&#45;gdb -->
<g id="node21" class="node">
<title>cuda&#45;gdb</title>
<g id="a_node21"><a xlink:href="https://github.com/conda-forge/cuda-gdb-feedstock/pull/20" xlink:title="cuda gdb ❎">
<ellipse fill="#31688e" stroke="black" cx="72.25" cy="-134" rx="72.25" ry="18"/>
<text text-anchor="middle" x="72.25" y="-129.32" font-family="Times,serif" font-size="14.00" fill="white">cuda gdb ❎</text>
</a>
</g>
</g>
<!-- cuda&#45;gdb&#45;&gt;cuda&#45;command&#45;line&#45;tools -->
<g id="edge38" class="edge">
<title>cuda&#45;gdb&#45;&gt;cuda&#45;command&#45;line&#45;tools</title>
<path fill="none" stroke="black" d="M106.32,-117.81C128.24,-108.04 157.05,-95.19 181.27,-84.4"/>
<polygon fill="black" stroke="black" points="182.59,-87.64 190.3,-80.37 179.74,-81.24 182.59,-87.64"/>
</g>
<!-- cuda&#45;compiler -->
<g id="node22" class="node">
<title>cuda&#45;compiler</title>
<g id="a_node22"><a xlink:href="https://github.com/conda-forge/cuda-compiler-feedstock/pull/18" xlink:title="cuda compiler ✓">
<ellipse fill="#31688e" stroke="black" cx="2193.25" cy="-206" rx="89.61" ry="18"/>
<text text-anchor="middle" x="2193.25" y="-201.33" font-family="Times,serif" font-size="14.00" fill="white">cuda compiler ✓</text>
</a>
</g>
</g>
<!-- mathdx -->
<g id="node23" class="node">
<title>mathdx</title>
<g id="a_node23"><a xlink:href="https://github.com/conda-forge/mathdx-feedstock/pull/14" xlink:title="mathdx ❎">
<ellipse fill="#31688e" stroke="black" cx="2193.25" cy="-134" rx="64.36" ry="18"/>
<text text-anchor="middle" x="2193.25" y="-129.32" font-family="Times,serif" font-size="14.00" fill="white">mathdx ❎</text>
</a>
</g>
</g>
<!-- cuda&#45;compiler&#45;&gt;mathdx -->
<!-- cuda&#45;opencl -->
<g id="node24" class="node">
<title>cuda&#45;opencl</title>
<g id="a_node24"><a xlink:href="https://github.com/conda-forge/cuda-opencl-feedstock/pull/19" xlink:title="cuda opencl ✓">
<ellipse fill="#31688e" stroke="black" cx="1802.25" cy="-134" rx="78.57" ry="18"/>
<text text-anchor="middle" x="1802.25" y="-129.32" font-family="Times,serif" font-size="14.00" fill="white">cuda opencl ✓</text>
</a>
</g>
</g>
<!-- cuda&#45;opencl&#45;&gt;cuda&#45;libraries -->
<g id="edge40" class="edge">
<title>cuda&#45;opencl&#45;&gt;cuda&#45;libraries</title>
<path fill="none" stroke="black" d="M1747.54,-120.65C1695.48,-108.89 1616.96,-91.16 1560.76,-78.47"/>
<polygon fill="black" stroke="black" points="1561.83,-75.12 1551.3,-76.33 1560.29,-81.95 1561.83,-75.12"/>
</g>
<!-- cuda&#45;opencl&#45;&gt;cuda&#45;opencl -->
<g id="edge41" class="edge">
<title>cuda&#45;opencl&#45;&gt;cuda&#45;opencl</title>
<path fill="none" stroke="black" d="M1856.36,-147.36C1879.29,-148.37 1898.82,-143.91 1898.82,-134 1898.82,-125.79 1885.43,-121.32 1867.8,-120.6"/>
<polygon fill="black" stroke="black" points="1867.87,-117.1 1857.88,-120.63 1867.89,-124.1 1867.87,-117.1"/>
</g>
<!-- cuda&#45;compat -->
<g id="node25" class="node">
<title>cuda&#45;compat</title>
<g id="a_node25"><a xlink:href="https://github.com/conda-forge/cuda-compat-feedstock/pull/18" xlink:title="cuda compat ❎">
<ellipse fill="#31688e" stroke="black" cx="1039.25" cy="-18" rx="90.14" ry="18"/>
<text text-anchor="middle" x="1039.25" y="-13.32" font-family="Times,serif" font-size="14.00" fill="white">cuda compat ❎</text>
</a>
</g>
</g>
<!-- cuda&#45;compat&#45;&gt;cuda&#45;compat -->
<g id="edge42" class="edge">
<title>cuda&#45;compat&#45;&gt;cuda&#45;compat</title>
<path fill="none" stroke="black" d="M1124.48,-24.22C1138.08,-23.31 1147.39,-21.23 1147.39,-18 1147.39,-15.78 1142.99,-14.1 1135.82,-12.98"/>
<polygon fill="black" stroke="black" points="1136.3,-9.51 1125.98,-11.94 1135.56,-16.47 1136.3,-9.51"/>
</g>
<!-- nsight&#45;compute -->
<g id="node26" class="node">
<title>nsight&#45;compute</title>
<g id="a_node26"><a xlink:href="https://github.com/conda-forge/nsight-compute-feedstock/pull/37" xlink:title="nsight compute ✓">
<ellipse fill="#31688e" stroke="black" cx="213.25" cy="-278" rx="96.98" ry="18"/>
<text text-anchor="middle" x="213.25" y="-273.32" font-family="Times,serif" font-size="14.00" fill="white">nsight compute ✓</text>
</a>
</g>
</g>
<!-- nsight&#45;compute&#45;&gt;cuda&#45;visual&#45;tools -->
<g id="edge43" class="edge">
<title>nsight&#45;compute&#45;&gt;cuda&#45;visual&#45;tools</title>
<path fill="none" stroke="black" d="M213.25,-259.7C213.25,-252.41 213.25,-243.73 213.25,-235.54"/>
<polygon fill="black" stroke="black" points="216.75,-235.62 213.25,-225.62 209.75,-235.62 216.75,-235.62"/>
</g>
<!-- libnvfatbin -->
<g id="node27" class="node">
<title>libnvfatbin</title>
<g id="a_node27"><a xlink:href="https://github.com/conda-forge/libnvfatbin-feedstock/pull/14" xlink:title="libnvfatbin ❎">
<ellipse fill="#31688e" stroke="black" cx="1607.25" cy="-134" rx="80.67" ry="18"/>
<text text-anchor="middle" x="1607.25" y="-129.32" font-family="Times,serif" font-size="14.00" fill="white">libnvfatbin ❎</text>
</a>
</g>
</g>
<!-- libnvfatbin&#45;&gt;cuda&#45;libraries&#45;static -->
<g id="edge44" class="edge">
<title>libnvfatbin&#45;&gt;cuda&#45;libraries&#45;static</title>
<path fill="none" stroke="black" d="M1549.58,-121.13C1493.81,-109.64 1408.86,-92.16 1346.71,-79.36"/>
<polygon fill="black" stroke="black" points="1347.76,-76 1337.26,-77.41 1346.35,-82.86 1347.76,-76"/>
</g>
<!-- libnvfatbin&#45;&gt;cuda&#45;libraries -->
<g id="edge45" class="edge">
<title>libnvfatbin&#45;&gt;cuda&#45;libraries</title>
<path fill="none" stroke="black" d="M1580.29,-116.59C1564.97,-107.26 1545.58,-95.46 1528.9,-85.31"/>
<polygon fill="black" stroke="black" points="1531.1,-82.55 1520.74,-80.34 1527.46,-88.53 1531.1,-82.55"/>
</g>
<!-- libnvfatbin&#45;&gt;libnvfatbin -->
<g id="edge46" class="edge">
<title>libnvfatbin&#45;&gt;libnvfatbin</title>
<path fill="none" stroke="black" d="M1663.04,-147.38C1686.25,-148.3 1705.92,-143.84 1705.92,-134 1705.92,-125.81 1692.3,-121.35 1674.36,-120.61"/>
<polygon fill="black" stroke="black" points="1674.55,-117.11 1664.56,-120.62 1674.56,-124.11 1674.55,-117.11"/>
</g>
<!-- libnvjpeg2k&#45;split -->
<g id="node28" class="node">
<title>libnvjpeg2k&#45;split</title>
<g id="a_node28"><a xlink:href="https://github.com/conda-forge/libnvjpeg2k-split-feedstock/pull/14" xlink:title="libnvjpeg2k split ❎">
<ellipse fill="#31688e" stroke="black" cx="2401.25" cy="-170" rx="110.13" ry="18"/>
<text text-anchor="middle" x="2401.25" y="-165.32" font-family="Times,serif" font-size="14.00" fill="white">libnvjpeg2k split ❎</text>
</a>
</g>
</g>
<!-- libnvjpeg2k&#45;split&#45;&gt;libnvjpeg2k&#45;split -->
<g id="edge47" class="edge">
<title>libnvjpeg2k&#45;split&#45;&gt;libnvjpeg2k&#45;split</title>
<path fill="none" stroke="black" d="M2505.82,-175.99C2519.97,-174.98 2529.38,-172.99 2529.38,-170 2529.38,-167.9 2524.73,-166.29 2517.05,-165.17"/>
<polygon fill="black" stroke="black" points="2517.63,-161.71 2507.33,-164.17 2516.92,-168.67 2517.63,-161.71"/>
</g>
</g>
</svg>
