<?xml version="1.0" encoding="UTF-8" standalone="no"?>
<!DOCTYPE svg PUBLIC "-//W3C//DTD SVG 1.1//EN"
 "http://www.w3.org/Graphics/SVG/1.1/DTD/svg11.dtd">
<!-- Generated by graphviz version 12.2.1 (20250203.1708)
 -->
<!-- Pages: 1 -->
<svg width="1981pt" height="385pt"
 viewBox="0.00 0.00 1981.38 385.00" xmlns="http://www.w3.org/2000/svg" xmlns:xlink="http://www.w3.org/1999/xlink">
<g id="graph0" class="graph" transform="scale(1 1) rotate(0) translate(4 381)">
<polygon fill="white" stroke="none" points="-4,4 -4,-381 1977.38,-381 1977.38,4 -4,4"/>
<!-- cudnn -->
<g id="node1" class="node">
<title>cudnn</title>
<g id="a_node1"><a xlink:href="https://github.com/conda-forge/cudnn-feedstock/pull/112" xlink:title="cudnn ✓">
<ellipse fill="#31688e" stroke="black" cx="561.25" cy="-359" rx="49.63" ry="18"/>
<text text-anchor="middle" x="561.25" y="-354.32" font-family="Times,serif" font-size="14.00" fill="white">cudnn ✓</text>
</a>
</g>
</g>
<!-- holoscan -->
<g id="node2" class="node">
<title>holoscan</title>
<g id="a_node2"><a xlink:href="https://github.com/conda-forge/holoscan-feedstock/pull/3" xlink:title="holoscan ✓">
<ellipse fill="#31688e" stroke="black" cx="526.25" cy="-287" rx="62.78" ry="18"/>
<text text-anchor="middle" x="526.25" y="-282.32" font-family="Times,serif" font-size="14.00" fill="white">holoscan ✓</text>
</a>
</g>
</g>
<!-- cudnn&#45;&gt;holoscan -->
<g id="edge1" class="edge">
<title>cudnn&#45;&gt;holoscan</title>
<path fill="none" stroke="black" d="M552.78,-341.05C548.93,-333.35 544.27,-324.03 539.93,-315.36"/>
<polygon fill="black" stroke="black" points="543.17,-314.01 535.57,-306.63 536.91,-317.14 543.17,-314.01"/>
</g>
<!-- holoscan&#45;&gt;holoscan -->
<g id="edge2" class="edge">
<title>holoscan&#45;&gt;holoscan</title>
<path fill="none" stroke="black" d="M569.88,-300.26C589.76,-301.62 607.04,-297.2 607.04,-287 607.04,-278.8 595.85,-274.33 581.12,-273.61"/>
<polygon fill="black" stroke="black" points="581.35,-270.1 571.4,-273.72 581.44,-277.1 581.35,-270.1"/>
</g>
<!-- cutensor -->
<g id="node3" class="node">
<title>cutensor</title>
<g id="a_node3"><a xlink:href="https://github.com/conda-forge/cutensor-feedstock/pull/69" xlink:title="cutensor ❎">
<ellipse fill="#31688e" stroke="black" cx="1637.25" cy="-359" rx="70.15" ry="18"/>
<text text-anchor="middle" x="1637.25" y="-354.32" font-family="Times,serif" font-size="14.00" fill="white">cutensor ❎</text>
</a>
</g>
</g>
<!-- cuda&#45;compiler -->
<g id="node4" class="node">
<title>cuda&#45;compiler</title>
<g id="a_node4"><a xlink:href="https://github.com/conda-forge/cuda-compiler-feedstock/pull/18" xlink:title="cuda compiler ✓">
<ellipse fill="#31688e" stroke="black" cx="1637.25" cy="-287" rx="89.61" ry="18"/>
<text text-anchor="middle" x="1637.25" y="-282.32" font-family="Times,serif" font-size="14.00" fill="white">cuda compiler ✓</text>
</a>
</g>
</g>
<!-- cutensor&#45;&gt;cuda&#45;compiler -->
<!-- mathdx -->
<g id="node16" class="node">
<title>mathdx</title>
<g id="a_node16"><a xlink:href="https://github.com/conda-forge/mathdx-feedstock/pull/14" xlink:title="mathdx ❎">
<ellipse fill="#31688e" stroke="black" cx="1637.25" cy="-215" rx="64.36" ry="18"/>
<text text-anchor="middle" x="1637.25" y="-210.32" font-family="Times,serif" font-size="14.00" fill="white">mathdx ❎</text>
</a>
</g>
</g>
<!-- cuda&#45;compiler&#45;&gt;mathdx -->
<!-- libcusparse -->
<g id="node5" class="node">
<title>libcusparse</title>
<g id="a_node5"><a xlink:href="https://github.com/conda-forge/libcusparse-feedstock/pull/22" xlink:title="libcusparse ❎">
<ellipse fill="#31688e" stroke="black" cx="881.25" cy="-359" rx="83.83" ry="18"/>
<text text-anchor="middle" x="881.25" y="-354.32" font-family="Times,serif" font-size="14.00" fill="white">libcusparse ❎</text>
</a>
</g>
</g>
<!-- libcusparse&#45;&gt;holoscan -->
<g id="edge4" class="edge">
<title>libcusparse&#45;&gt;holoscan</title>
<path fill="none" stroke="black" d="M821.03,-346.13C756.14,-333.33 653.4,-313.07 587.95,-300.17"/>
<polygon fill="black" stroke="black" points="588.95,-296.8 578.46,-298.29 587.6,-303.66 588.95,-296.8"/>
</g>
<!-- libcusparse&#45;&gt;libcusparse -->
<g id="edge5" class="edge">
<title>libcusparse&#45;&gt;libcusparse</title>
<path fill="none" stroke="black" d="M939.34,-372.4C963.07,-373.24 983.08,-368.77 983.08,-359 983.08,-350.83 969.09,-346.37 950.65,-345.61"/>
<polygon fill="black" stroke="black" points="950.86,-342.12 940.85,-345.6 950.85,-349.12 950.86,-342.12"/>
</g>
<!-- cuda&#45;libraries&#45;static -->
<g id="node6" class="node">
<title>cuda&#45;libraries&#45;static</title>
<g id="a_node6"><a xlink:href="https://github.com/conda-forge/cuda-libraries-static-feedstock/pull/21" xlink:title="cuda libraries static ✓">
<ellipse fill="#31688e" stroke="black" cx="903.25" cy="-287" rx="119.08" ry="18"/>
<text text-anchor="middle" x="903.25" y="-282.32" font-family="Times,serif" font-size="14.00" fill="white">cuda libraries static ✓</text>
</a>
</g>
</g>
<!-- libcusparse&#45;&gt;cuda&#45;libraries&#45;static -->
<g id="edge6" class="edge">
<title>libcusparse&#45;&gt;cuda&#45;libraries&#45;static</title>
<path fill="none" stroke="black" d="M886.69,-340.7C889.04,-333.24 891.84,-324.32 894.46,-315.97"/>
<polygon fill="black" stroke="black" points="897.76,-317.14 897.42,-306.55 891.09,-315.04 897.76,-317.14"/>
</g>
<!-- cuda&#45;libraries -->
<g id="node7" class="node">
<title>cuda&#45;libraries</title>
<g id="a_node7"><a xlink:href="https://github.com/conda-forge/cuda-libraries-feedstock/pull/20" xlink:title="cuda libraries ✓">
<ellipse fill="#31688e" stroke="black" cx="1128.25" cy="-287" rx="88.04" ry="18"/>
<text text-anchor="middle" x="1128.25" y="-282.32" font-family="Times,serif" font-size="14.00" fill="white">cuda libraries ✓</text>
</a>
</g>
</g>
<!-- libcusparse&#45;&gt;cuda&#45;libraries -->
<g id="edge7" class="edge">
<title>libcusparse&#45;&gt;cuda&#45;libraries</title>
<path fill="none" stroke="black" d="M930.35,-344.09C969.74,-332.92 1025.23,-317.2 1067.43,-305.24"/>
<polygon fill="black" stroke="black" points="1068.28,-308.63 1076.95,-302.54 1066.37,-301.9 1068.28,-308.63"/>
</g>
<!-- libcufile -->
<g id="node8" class="node">
<title>libcufile</title>
<g id="a_node8"><a xlink:href="https://github.com/conda-forge/libcufile-feedstock/pull/31" xlink:title="libcufile ❎">
<ellipse fill="#31688e" stroke="black" cx="695.25" cy="-359" rx="65.94" ry="18"/>
<text text-anchor="middle" x="695.25" y="-354.32" font-family="Times,serif" font-size="14.00" fill="white">libcufile ❎</text>
</a>
</g>
</g>
<!-- libcufile&#45;&gt;holoscan -->
<g id="edge8" class="edge">
<title>libcufile&#45;&gt;holoscan</title>
<path fill="none" stroke="black" d="M660.24,-343.5C634.43,-332.81 599.12,-318.18 571.23,-306.63"/>
<polygon fill="black" stroke="black" points="572.91,-303.54 562.33,-302.94 570.23,-310.01 572.91,-303.54"/>
</g>
<!-- libcufile&#45;&gt;cuda&#45;libraries&#45;static -->
<g id="edge9" class="edge">
<title>libcufile&#45;&gt;cuda&#45;libraries&#45;static</title>
<path fill="none" stroke="black" d="M735.36,-344.5C766.6,-333.99 810.39,-319.25 845.42,-307.46"/>
<polygon fill="black" stroke="black" points="846.19,-310.9 854.55,-304.39 843.96,-304.26 846.19,-310.9"/>
</g>
<!-- libcufile&#45;&gt;cuda&#45;libraries -->
<g id="edge10" class="edge">
<title>libcufile&#45;&gt;cuda&#45;libraries</title>
<path fill="none" stroke="black" d="M748.31,-347.98C761.36,-345.61 775.3,-343.14 788.25,-341 895.97,-323.18 923.47,-322.43 1031.25,-305 1038.12,-303.89 1045.25,-302.7 1052.4,-301.49"/>
<polygon fill="black" stroke="black" points="1052.83,-304.97 1062.1,-299.83 1051.65,-298.07 1052.83,-304.97"/>
</g>
<!-- libcufile&#45;&gt;libcufile -->
<g id="edge11" class="edge">
<title>libcufile&#45;&gt;libcufile</title>
<path fill="none" stroke="black" d="M741.01,-372.29C761.49,-373.55 779.19,-369.12 779.19,-359 779.19,-350.77 767.5,-346.31 752.14,-345.6"/>
<polygon fill="black" stroke="black" points="752.49,-342.1 742.53,-345.7 752.56,-349.1 752.49,-342.1"/>
</g>
<!-- nvidia&#45;gds -->
<g id="node9" class="node">
<title>nvidia&#45;gds</title>
<g id="a_node9"><a xlink:href="https://github.com/conda-forge/nvidia-gds-feedstock/pull/20" xlink:title="nvidia gds ✓">
<ellipse fill="#31688e" stroke="black" cx="695.25" cy="-287" rx="70.68" ry="18"/>
<text text-anchor="middle" x="695.25" y="-282.32" font-family="Times,serif" font-size="14.00" fill="white">nvidia gds ✓</text>
</a>
</g>
</g>
<!-- libcufile&#45;&gt;nvidia&#45;gds -->
<g id="edge12" class="edge">
<title>libcufile&#45;&gt;nvidia&#45;gds</title>
<path fill="none" stroke="black" d="M695.25,-340.7C695.25,-333.41 695.25,-324.73 695.25,-316.54"/>
<polygon fill="black" stroke="black" points="698.75,-316.62 695.25,-306.62 691.75,-316.62 698.75,-316.62"/>
</g>
<!-- libnvjpeg -->
<g id="node10" class="node">
<title>libnvjpeg</title>
<g id="a_node10"><a xlink:href="https://github.com/conda-forge/libnvjpeg-feedstock/pull/19" xlink:title="libnvjpeg ✓">
<ellipse fill="#31688e" stroke="black" cx="1263.25" cy="-359" rx="65.41" ry="18"/>
<text text-anchor="middle" x="1263.25" y="-354.32" font-family="Times,serif" font-size="14.00" fill="white">libnvjpeg ✓</text>
</a>
</g>
</g>
<!-- libnvjpeg&#45;&gt;cuda&#45;libraries&#45;static -->
<g id="edge13" class="edge">
<title>libnvjpeg&#45;&gt;cuda&#45;libraries&#45;static</title>
<path fill="none" stroke="black" d="M1214.75,-346.55C1206.27,-344.63 1197.51,-342.71 1189.25,-341 1122.85,-327.23 1047.41,-313.32 990.69,-303.21"/>
<polygon fill="black" stroke="black" points="991.55,-299.81 981.09,-301.5 990.32,-306.7 991.55,-299.81"/>
</g>
<!-- libnvjpeg&#45;&gt;cuda&#45;libraries -->
<g id="edge14" class="edge">
<title>libnvjpeg&#45;&gt;cuda&#45;libraries</title>
<path fill="none" stroke="black" d="M1233.63,-342.64C1214.77,-332.86 1190.08,-320.06 1169.34,-309.31"/>
<polygon fill="black" stroke="black" points="1171.05,-306.25 1160.56,-304.75 1167.83,-312.46 1171.05,-306.25"/>
</g>
<!-- libnvjpeg&#45;&gt;libnvjpeg -->
<g id="edge15" class="edge">
<title>libnvjpeg&#45;&gt;libnvjpeg</title>
<path fill="none" stroke="black" d="M1308.73,-372.29C1329.07,-373.55 1346.67,-369.12 1346.67,-359 1346.67,-350.85 1335.27,-346.39 1320.22,-345.62"/>
<polygon fill="black" stroke="black" points="1320.21,-342.12 1310.24,-345.7 1320.27,-349.12 1320.21,-342.12"/>
</g>
<!-- cuda&#45;nvtx -->
<g id="node11" class="node">
<title>cuda&#45;nvtx</title>
<g id="a_node11"><a xlink:href="https://github.com/conda-forge/cuda-nvtx-feedstock/pull/29" xlink:title="cuda nvtx ❎">
<ellipse fill="#31688e" stroke="black" cx="400.25" cy="-359" rx="75.41" ry="18"/>
<text text-anchor="middle" x="400.25" y="-354.32" font-family="Times,serif" font-size="14.00" fill="white">cuda nvtx ❎</text>
</a>
</g>
</g>
<!-- cuda&#45;nvtx&#45;&gt;holoscan -->
<g id="edge16" class="edge">
<title>cuda&#45;nvtx&#45;&gt;holoscan</title>
<path fill="none" stroke="black" d="M429.16,-341.94C446.77,-332.16 469.47,-319.54 488.5,-308.98"/>
<polygon fill="black" stroke="black" points="489.98,-312.15 497.02,-304.24 486.58,-306.04 489.98,-312.15"/>
</g>
<!-- cuda&#45;nvtx&#45;&gt;cuda&#45;nvtx -->
<g id="edge17" class="edge">
<title>cuda&#45;nvtx&#45;&gt;cuda&#45;nvtx</title>
<path fill="none" stroke="black" d="M452.6,-372.36C474.77,-373.37 493.66,-368.91 493.66,-359 493.66,-350.79 480.71,-346.32 463.66,-345.6"/>
<polygon fill="black" stroke="black" points="464.1,-342.1 454.11,-345.63 464.12,-349.1 464.1,-342.1"/>
</g>
<!-- cuda&#45;command&#45;line&#45;tools -->
<g id="node12" class="node">
<title>cuda&#45;command&#45;line&#45;tools</title>
<g id="a_node12"><a xlink:href="https://github.com/conda-forge/cuda-command-line-tools-feedstock/pull/23" xlink:title="cuda command line tools ✓">
<ellipse fill="#31688e" stroke="black" cx="229.25" cy="-215" rx="143.28" ry="18"/>
<text text-anchor="middle" x="229.25" y="-210.32" font-family="Times,serif" font-size="14.00" fill="white">cuda command line tools ✓</text>
</a>
</g>
</g>
<!-- cuda&#45;nvtx&#45;&gt;cuda&#45;command&#45;line&#45;tools -->
<g id="edge18" class="edge">
<title>cuda&#45;nvtx&#45;&gt;cuda&#45;command&#45;line&#45;tools</title>
<path fill="none" stroke="black" d="M401.28,-340.74C401.51,-321.01 398.81,-288.91 381.25,-269 366.77,-252.58 346.92,-241.25 326.33,-233.42"/>
<polygon fill="black" stroke="black" points="327.55,-230.14 316.96,-230.14 325.24,-236.75 327.55,-230.14"/>
</g>
<!-- cuda&#45;cupti -->
<g id="node13" class="node">
<title>cuda&#45;cupti</title>
<g id="a_node13"><a xlink:href="https://github.com/conda-forge/cuda-cupti-feedstock/pull/26" xlink:title="cuda cupti ❎">
<ellipse fill="#31688e" stroke="black" cx="210.25" cy="-359" rx="78.57" ry="18"/>
<text text-anchor="middle" x="210.25" y="-354.32" font-family="Times,serif" font-size="14.00" fill="white">cuda cupti ❎</text>
</a>
</g>
</g>
<!-- cuda&#45;cupti&#45;&gt;holoscan -->
<g id="edge19" class="edge">
<title>cuda&#45;cupti&#45;&gt;holoscan</title>
<path fill="none" stroke="black" d="M265.3,-345.81C321.49,-333.36 408.47,-314.09 466.36,-301.27"/>
<polygon fill="black" stroke="black" points="467.05,-304.7 476.06,-299.12 465.54,-297.86 467.05,-304.7"/>
</g>
<!-- cuda&#45;cupti&#45;&gt;cuda&#45;command&#45;line&#45;tools -->
<g id="edge20" class="edge">
<title>cuda&#45;cupti&#45;&gt;cuda&#45;command&#45;line&#45;tools</title>
<path fill="none" stroke="black" d="M201.28,-340.67C193.11,-322.53 183.42,-293.37 191.25,-269 194.34,-259.39 199.88,-250.05 205.8,-241.96"/>
<polygon fill="black" stroke="black" points="208.41,-244.29 211.85,-234.27 202.92,-239.96 208.41,-244.29"/>
</g>
<!-- cuda&#45;cupti&#45;&gt;cuda&#45;cupti -->
<g id="edge21" class="edge">
<title>cuda&#45;cupti&#45;&gt;cuda&#45;cupti</title>
<path fill="none" stroke="black" d="M264.36,-372.36C287.29,-373.37 306.82,-368.91 306.82,-359 306.82,-350.79 293.43,-346.32 275.8,-345.6"/>
<polygon fill="black" stroke="black" points="275.87,-342.1 265.88,-345.63 275.89,-349.1 275.87,-342.1"/>
</g>
<!-- cuda&#45;nvprof -->
<g id="node14" class="node">
<title>cuda&#45;nvprof</title>
<g id="a_node14"><a xlink:href="https://github.com/conda-forge/cuda-nvprof-feedstock/pull/20" xlink:title="cuda nvprof ❎">
<ellipse fill="#31688e" stroke="black" cx="286.25" cy="-287" rx="85.93" ry="18"/>
<text text-anchor="middle" x="286.25" y="-282.32" font-family="Times,serif" font-size="14.00" fill="white">cuda nvprof ❎</text>
</a>
</g>
</g>
<!-- cuda&#45;cupti&#45;&gt;cuda&#45;nvprof -->
<g id="edge22" class="edge">
<title>cuda&#45;cupti&#45;&gt;cuda&#45;nvprof</title>
<path fill="none" stroke="black" d="M228.65,-341.05C237.92,-332.52 249.32,-322.01 259.54,-312.61"/>
<polygon fill="black" stroke="black" points="261.66,-315.41 266.65,-306.06 256.92,-310.26 261.66,-315.41"/>
</g>
<!-- cuda&#45;nvprof&#45;&gt;cuda&#45;command&#45;line&#45;tools -->
<g id="edge23" class="edge">
<title>cuda&#45;nvprof&#45;&gt;cuda&#45;command&#45;line&#45;tools</title>
<path fill="none" stroke="black" d="M272.45,-269.05C265.83,-260.92 257.75,-251 250.38,-241.94"/>
<polygon fill="black" stroke="black" points="253.3,-239.99 244.28,-234.45 247.88,-244.41 253.3,-239.99"/>
</g>
<!-- cuda&#45;gdb -->
<g id="node15" class="node">
<title>cuda&#45;gdb</title>
<g id="a_node15"><a xlink:href="https://github.com/conda-forge/cuda-gdb-feedstock/pull/20" xlink:title="cuda gdb ❎">
<ellipse fill="#31688e" stroke="black" cx="72.25" cy="-287" rx="72.25" ry="18"/>
<text text-anchor="middle" x="72.25" y="-282.32" font-family="Times,serif" font-size="14.00" fill="white">cuda gdb ❎</text>
</a>
</g>
</g>
<!-- cuda&#45;gdb&#45;&gt;cuda&#45;command&#45;line&#45;tools -->
<g id="edge24" class="edge">
<title>cuda&#45;gdb&#45;&gt;cuda&#45;command&#45;line&#45;tools</title>
<path fill="none" stroke="black" d="M106.32,-270.81C128.24,-261.04 157.05,-248.19 181.27,-237.4"/>
<polygon fill="black" stroke="black" points="182.59,-240.64 190.3,-233.37 179.74,-234.24 182.59,-240.64"/>
</g>
<!-- cuda&#45;opencl -->
<g id="node17" class="node">
<title>cuda&#45;opencl</title>
<g id="a_node17"><a xlink:href="https://github.com/conda-forge/cuda-opencl-feedstock/pull/19" xlink:title="cuda opencl ✓">
<ellipse fill="#31688e" stroke="black" cx="1443.25" cy="-359" rx="78.57" ry="18"/>
<text text-anchor="middle" x="1443.25" y="-354.32" font-family="Times,serif" font-size="14.00" fill="white">cuda opencl ✓</text>
</a>
</g>
</g>
<!-- cuda&#45;opencl&#45;&gt;cuda&#45;libraries -->
<g id="edge26" class="edge">
<title>cuda&#45;opencl&#45;&gt;cuda&#45;libraries</title>
<path fill="none" stroke="black" d="M1388.38,-345.81C1335.34,-334.02 1254.78,-316.12 1197.38,-303.36"/>
<polygon fill="black" stroke="black" points="1198.22,-299.96 1187.7,-301.21 1196.7,-306.8 1198.22,-299.96"/>
</g>
<!-- cuda&#45;opencl&#45;&gt;cuda&#45;opencl -->
<g id="edge27" class="edge">
<title>cuda&#45;opencl&#45;&gt;cuda&#45;opencl</title>
<path fill="none" stroke="black" d="M1497.36,-372.36C1520.29,-373.37 1539.82,-368.91 1539.82,-359 1539.82,-350.79 1526.43,-346.32 1508.8,-345.6"/>
<polygon fill="black" stroke="black" points="1508.87,-342.1 1498.88,-345.63 1508.89,-349.1 1508.87,-342.1"/>
</g>
<!-- cuda&#45;compat -->
<g id="node18" class="node">
<title>cuda&#45;compat</title>
<g id="a_node18"><a xlink:href="https://github.com/conda-forge/cuda-compat-feedstock/pull/18" xlink:title="cuda compat ❎">
<ellipse fill="#31688e" stroke="black" cx="761.25" cy="-18" rx="90.14" ry="18"/>
<text text-anchor="middle" x="761.25" y="-13.32" font-family="Times,serif" font-size="14.00" fill="white">cuda compat ❎</text>
</a>
</g>
</g>
<!-- cuda&#45;compat&#45;&gt;cuda&#45;compat -->
<g id="edge28" class="edge">
<title>cuda&#45;compat&#45;&gt;cuda&#45;compat</title>
<path fill="none" stroke="black" d="M846.48,-24.22C860.08,-23.31 869.39,-21.23 869.39,-18 869.39,-15.78 864.99,-14.1 857.82,-12.98"/>
<polygon fill="black" stroke="black" points="858.3,-9.51 847.98,-11.94 857.56,-16.47 858.3,-9.51"/>
</g>
<!-- nsight&#45;compute -->
<g id="node19" class="node">
<title>nsight&#45;compute</title>
<g id="a_node19"><a xlink:href="https://github.com/conda-forge/nsight-compute-feedstock/pull/37" xlink:title="nsight compute ✓">
<ellipse fill="#31688e" stroke="black" cx="1854.25" cy="-323" rx="96.98" ry="18"/>
<text text-anchor="middle" x="1854.25" y="-318.32" font-family="Times,serif" font-size="14.00" fill="white">nsight compute ✓</text>
</a>
</g>
</g>
<!-- cuda&#45;visual&#45;tools -->
<g id="node20" class="node">
<title>cuda&#45;visual&#45;tools</title>
<g id="a_node20"><a xlink:href="https://github.com/conda-forge/cuda-visual-tools-feedstock/pull/20" xlink:title="cuda visual tools ✓">
<ellipse fill="#31688e" stroke="black" cx="1854.25" cy="-251" rx="102.77" ry="18"/>
<text text-anchor="middle" x="1854.25" y="-246.32" font-family="Times,serif" font-size="14.00" fill="white">cuda visual tools ✓</text>
</a>
</g>
</g>
<!-- nsight&#45;compute&#45;&gt;cuda&#45;visual&#45;tools -->
<g id="edge29" class="edge">
<title>nsight&#45;compute&#45;&gt;cuda&#45;visual&#45;tools</title>
<path fill="none" stroke="black" d="M1854.25,-304.7C1854.25,-297.41 1854.25,-288.73 1854.25,-280.54"/>
<polygon fill="black" stroke="black" points="1857.75,-280.62 1854.25,-270.62 1850.75,-280.62 1857.75,-280.62"/>
</g>
<!-- libnvfatbin -->
<g id="node21" class="node">
<title>libnvfatbin</title>
<g id="a_node21"><a xlink:href="https://github.com/conda-forge/libnvfatbin-feedstock/pull/14" xlink:title="libnvfatbin ❎">
<ellipse fill="#31688e" stroke="black" cx="1081.25" cy="-359" rx="80.67" ry="18"/>
<text text-anchor="middle" x="1081.25" y="-354.32" font-family="Times,serif" font-size="14.00" fill="white">libnvfatbin ❎</text>
</a>
</g>
</g>
<!-- libnvfatbin&#45;&gt;cuda&#45;libraries&#45;static -->
<g id="edge30" class="edge">
<title>libnvfatbin&#45;&gt;cuda&#45;libraries&#45;static</title>
<path fill="none" stroke="black" d="M1042.63,-342.81C1016.97,-332.72 982.98,-319.35 954.99,-308.35"/>
<polygon fill="black" stroke="black" points="956.59,-305.21 946,-304.81 954.02,-311.73 956.59,-305.21"/>
</g>
<!-- libnvfatbin&#45;&gt;cuda&#45;libraries -->
<g id="edge31" class="edge">
<title>libnvfatbin&#45;&gt;cuda&#45;libraries</title>
<path fill="none" stroke="black" d="M1092.87,-340.7C1098.16,-332.81 1104.55,-323.3 1110.43,-314.55"/>
<polygon fill="black" stroke="black" points="1113.26,-316.61 1115.92,-306.36 1107.44,-312.71 1113.26,-316.61"/>
</g>
<!-- libnvfatbin&#45;&gt;libnvfatbin -->
<g id="edge32" class="edge">
<title>libnvfatbin&#45;&gt;libnvfatbin</title>
<path fill="none" stroke="black" d="M1137.04,-372.38C1160.25,-373.3 1179.92,-368.84 1179.92,-359 1179.92,-350.81 1166.3,-346.35 1148.36,-345.61"/>
<polygon fill="black" stroke="black" points="1148.55,-342.11 1138.56,-345.62 1148.56,-349.11 1148.55,-342.11"/>
</g>
<!-- libcal -->
<g id="node22" class="node">
<title>libcal</title>
<g id="a_node22"><a xlink:href="https://github.com/conda-forge/libcal-feedstock/pull/8" xlink:title="libcal ❎">
<ellipse fill="#31688e" stroke="black" cx="770.25" cy="-171" rx="53.31" ry="18"/>
<text text-anchor="middle" x="770.25" y="-166.32" font-family="Times,serif" font-size="14.00" fill="white">libcal ❎</text>
</a>
</g>
</g>
<!-- libcal&#45;&gt;libcal -->
<g id="edge33" class="edge">
<title>libcal&#45;&gt;libcal</title>
<path fill="none" stroke="black" d="M814.82,-181.22C829.68,-181.22 841.56,-177.81 841.56,-171 841.56,-166.05 835.29,-162.9 826.16,-161.55"/>
<polygon fill="black" stroke="black" points="826.55,-158.06 816.33,-160.88 826.07,-165.05 826.55,-158.06"/>
</g>
<!-- cusolvermp -->
<g id="node23" class="node">
<title>cusolvermp</title>
<g id="a_node23"><a xlink:href="https://github.com/conda-forge/cusolvermp-feedstock/pull/2" xlink:title="cusolvermp ✓">
<ellipse fill="#31688e" stroke="black" cx="770.25" cy="-62" rx="76.99" ry="18"/>
<text text-anchor="middle" x="770.25" y="-57.33" font-family="Times,serif" font-size="14.00" fill="white">cusolvermp ✓</text>
</a>
</g>
</g>
<!-- libcal&#45;&gt;cusolvermp -->
<g id="edge34" class="edge">
<title>libcal&#45;&gt;cusolvermp</title>
<path fill="none" stroke="black" d="M770.25,-152.81C770.25,-136.27 770.25,-110.98 770.25,-91.44"/>
<polygon fill="black" stroke="black" points="773.75,-91.66 770.25,-81.66 766.75,-91.66 773.75,-91.66"/>
</g>
<!-- libnvjpeg2k&#45;split -->
<g id="node24" class="node">
<title>libnvjpeg2k&#45;split</title>
<g id="a_node24"><a xlink:href="https://github.com/conda-forge/libnvjpeg2k-split-feedstock/pull/14" xlink:title="libnvjpeg2k split ❎">
<ellipse fill="#31688e" stroke="black" cx="1845.25" cy="-117" rx="110.13" ry="18"/>
<text text-anchor="middle" x="1845.25" y="-112.33" font-family="Times,serif" font-size="14.00" fill="white">libnvjpeg2k split ❎</text>
</a>
</g>
</g>
<!-- libnvjpeg2k&#45;split&#45;&gt;libnvjpeg2k&#45;split -->
<g id="edge35" class="edge">
<title>libnvjpeg2k&#45;split&#45;&gt;libnvjpeg2k&#45;split</title>
<path fill="none" stroke="black" d="M1949.82,-122.99C1963.97,-121.98 1973.38,-119.99 1973.38,-117 1973.38,-114.9 1968.73,-113.29 1961.05,-112.17"/>
<polygon fill="black" stroke="black" points="1961.63,-108.71 1951.33,-111.17 1960.92,-115.67 1961.63,-108.71"/>
</g>
<!-- libnvshmem -->
<g id="node25" class="node">
<title>libnvshmem</title>
<g id="a_node25"><a xlink:href="https://github.com/conda-forge/libnvshmem-feedstock/pull/3" xlink:title="libnvshmem ✓">
<ellipse fill="#31688e" stroke="black" cx="1628.25" cy="-153" rx="80.14" ry="18"/>
<text text-anchor="middle" x="1628.25" y="-148.32" font-family="Times,serif" font-size="14.00" fill="white">libnvshmem ✓</text>
</a>
</g>
</g>
<!-- libnvshmem&#45;&gt;libnvshmem -->
<g id="edge36" class="edge">
<title>libnvshmem&#45;&gt;libnvshmem</title>
<path fill="none" stroke="black" d="M1683.74,-166.38C1706.83,-167.3 1726.4,-162.84 1726.4,-153 1726.4,-144.85 1712.98,-140.39 1695.25,-139.62"/>
<polygon fill="black" stroke="black" points="1695.26,-136.12 1685.26,-139.62 1695.26,-143.12 1695.26,-136.12"/>
</g>
<!-- libcufftmp -->
<g id="node26" class="node">
<title>libcufftmp</title>
<g id="a_node26"><a xlink:href="https://github.com/conda-forge/libcufftmp-feedstock/pull/1" xlink:title="libcufftmp ✓">
<ellipse fill="#31688e" stroke="black" cx="1628.25" cy="-81" rx="70.15" ry="18"/>
<text text-anchor="middle" x="1628.25" y="-76.33" font-family="Times,serif" font-size="14.00" fill="white">libcufftmp ✓</text>
</a>
</g>
</g>
<!-- libnvshmem&#45;&gt;libcufftmp -->
<g id="edge37" class="edge">
<title>libnvshmem&#45;&gt;libcufftmp</title>
<path fill="none" stroke="black" d="M1628.25,-134.7C1628.25,-127.41 1628.25,-118.73 1628.25,-110.54"/>
<polygon fill="black" stroke="black" points="1631.75,-110.62 1628.25,-100.62 1624.75,-110.62 1631.75,-110.62"/>
</g>
<!-- libcufftmp&#45;&gt;libcufftmp -->
<g id="edge38" class="edge">
<title>libcufftmp&#45;&gt;libcufftmp</title>
<path fill="none" stroke="black" d="M1677.2,-94.34C1698.32,-95.43 1716.4,-90.98 1716.4,-81 1716.4,-72.89 1704.47,-68.43 1688.66,-67.63"/>
<polygon fill="black" stroke="black" points="1688.71,-64.13 1678.72,-67.66 1688.73,-71.13 1688.71,-64.13"/>
</g>
</g>
</svg>
