<?xml version="1.0" encoding="UTF-8" standalone="no"?>
<!DOCTYPE svg PUBLIC "-//W3C//DTD SVG 1.1//EN"
 "http://www.w3.org/Graphics/SVG/1.1/DTD/svg11.dtd">
<!-- Generated by graphviz version 12.2.1 (20250203.1708)
 -->
<!-- Pages: 1 -->
<svg width="2691pt" height="376pt"
 viewBox="0.00 0.00 2691.11 376.00" xmlns="http://www.w3.org/2000/svg" xmlns:xlink="http://www.w3.org/1999/xlink">
<g id="graph0" class="graph" transform="scale(1 1) rotate(0) translate(4 372)">
<polygon fill="white" stroke="none" points="-4,4 -4,-372 2687.11,-372 2687.11,4 -4,4"/>
<!-- cudatoolkit -->
<g id="node1" class="node">
<title>cudatoolkit</title>
<g id="a_node1"><a xlink:href="https://github.com/conda-forge/cudatoolkit-feedstock/pull/108" xlink:title="cudatoolkit ❎">
<ellipse fill="#31688e" stroke="black" cx="968.98" cy="-278" rx="82.25" ry="18"/>
<text text-anchor="middle" x="968.98" y="-273.32" font-family="Times,serif" font-size="14.00" fill="white">cudatoolkit ❎</text>
</a>
</g>
</g>
<!-- cudatoolkit&#45;&gt;cudatoolkit -->
<g id="edge1" class="edge">
<title>cudatoolkit&#45;&gt;cudatoolkit</title>
<path fill="none" stroke="black" d="M1025.91,-291.39C1049.38,-292.27 1069.23,-287.81 1069.23,-278 1069.23,-269.84 1055.49,-265.38 1037.36,-264.62"/>
<polygon fill="black" stroke="black" points="1037.43,-261.12 1027.43,-264.61 1037.43,-268.12 1037.43,-261.12"/>
</g>
<!-- cudnn -->
<g id="node2" class="node">
<title>cudnn</title>
<g id="a_node2"><a xlink:href="https://github.com/conda-forge/cudnn-feedstock/pull/112" xlink:title="cudnn ✓">
<ellipse fill="#31688e" stroke="black" cx="1046.98" cy="-206" rx="49.63" ry="18"/>
<text text-anchor="middle" x="1046.98" y="-201.32" font-family="Times,serif" font-size="14.00" fill="white">cudnn ✓</text>
</a>
</g>
</g>
<!-- cudatoolkit&#45;&gt;cudnn -->
<g id="edge2" class="edge">
<title>cudatoolkit&#45;&gt;cudnn</title>
<path fill="none" stroke="black" d="M987.86,-260.05C997.75,-251.18 1010.02,-240.17 1020.81,-230.49"/>
<polygon fill="black" stroke="black" points="1022.85,-233.36 1027.95,-224.08 1018.17,-228.15 1022.85,-233.36"/>
</g>
<!-- cutensor -->
<g id="node3" class="node">
<title>cutensor</title>
<g id="a_node3"><a xlink:href="https://github.com/conda-forge/cutensor-feedstock/pull/69" xlink:title="cutensor ❎">
<ellipse fill="#31688e" stroke="black" cx="706.98" cy="-134" rx="70.15" ry="18"/>
<text text-anchor="middle" x="706.98" y="-129.32" font-family="Times,serif" font-size="14.00" fill="white">cutensor ❎</text>
</a>
</g>
</g>
<!-- cudatoolkit&#45;&gt;cutensor -->
<g id="edge3" class="edge">
<title>cudatoolkit&#45;&gt;cutensor</title>
<path fill="none" stroke="black" d="M895.16,-269.68C832.61,-261.96 749.44,-247.56 725.98,-224 710.38,-208.33 706.16,-183.19 705.54,-163.62"/>
<polygon fill="black" stroke="black" points="709.04,-163.81 705.54,-153.81 702.04,-163.8 709.04,-163.81"/>
</g>
<!-- libcal -->
<g id="node4" class="node">
<title>libcal</title>
<g id="a_node4"><a xlink:href="https://github.com/conda-forge/libcal-feedstock/pull/8" xlink:title="libcal ❎">
<ellipse fill="#31688e" stroke="black" cx="217.98" cy="-206" rx="53.31" ry="18"/>
<text text-anchor="middle" x="217.98" y="-201.32" font-family="Times,serif" font-size="14.00" fill="white">libcal ❎</text>
</a>
</g>
</g>
<!-- cudatoolkit&#45;&gt;libcal -->
<g id="edge4" class="edge">
<title>cudatoolkit&#45;&gt;libcal</title>
<path fill="none" stroke="black" d="M890.87,-271.96C771.21,-263.91 535.4,-246.69 335.98,-224 316.65,-221.8 295.6,-218.92 276.7,-216.16"/>
<polygon fill="black" stroke="black" points="277.45,-212.74 267.05,-214.73 276.43,-219.66 277.45,-212.74"/>
</g>
<!-- libnvshmem -->
<g id="node5" class="node">
<title>libnvshmem</title>
<g id="a_node5"><a xlink:href="https://github.com/conda-forge/libnvshmem-feedstock/pull/3" xlink:title="libnvshmem ✓">
<ellipse fill="#31688e" stroke="black" cx="1194.98" cy="-206" rx="80.14" ry="18"/>
<text text-anchor="middle" x="1194.98" y="-201.32" font-family="Times,serif" font-size="14.00" fill="white">libnvshmem ✓</text>
</a>
</g>
</g>
<!-- cudatoolkit&#45;&gt;libnvshmem -->
<g id="edge5" class="edge">
<title>cudatoolkit&#45;&gt;libnvshmem</title>
<path fill="none" stroke="black" d="M1015.26,-262.67C1050.87,-251.63 1100.26,-236.34 1138.26,-224.57"/>
<polygon fill="black" stroke="black" points="1139.19,-227.95 1147.7,-221.64 1137.12,-221.26 1139.19,-227.95"/>
</g>
<!-- holoscan -->
<g id="node6" class="node">
<title>holoscan</title>
<g id="a_node6"><a xlink:href="https://github.com/conda-forge/holoscan-feedstock/pull/3" xlink:title="holoscan ✓">
<ellipse fill="#31688e" stroke="black" cx="1213.98" cy="-134" rx="62.78" ry="18"/>
<text text-anchor="middle" x="1213.98" y="-129.32" font-family="Times,serif" font-size="14.00" fill="white">holoscan ✓</text>
</a>
</g>
</g>
<!-- cudatoolkit&#45;&gt;holoscan -->
<g id="edge6" class="edge">
<title>cudatoolkit&#45;&gt;holoscan</title>
<path fill="none" stroke="black" d="M967.6,-259.76C967,-239.75 969.29,-207.07 987.98,-188 1009.67,-165.87 1086.82,-151.21 1145,-143.02"/>
<polygon fill="black" stroke="black" points="1145.42,-146.5 1154.86,-141.68 1144.48,-139.56 1145.42,-146.5"/>
</g>
<!-- cudnn&#45;&gt;holoscan -->
<g id="edge7" class="edge">
<title>cudnn&#45;&gt;holoscan</title>
<path fill="none" stroke="black" d="M1078.39,-191.83C1103.94,-181.12 1140.33,-165.87 1168.98,-153.86"/>
<polygon fill="black" stroke="black" points="1170.28,-157.11 1178.15,-150.02 1167.57,-150.66 1170.28,-157.11"/>
</g>
<!-- libcal&#45;&gt;libcal -->
<g id="edge8" class="edge">
<title>libcal&#45;&gt;libcal</title>
<path fill="none" stroke="black" d="M255.4,-219.17C273.4,-220.8 289.29,-216.41 289.29,-206 289.29,-197.87 279.59,-193.41 266.77,-192.63"/>
<polygon fill="black" stroke="black" points="266.85,-189.12 256.92,-192.8 266.98,-196.12 266.85,-189.12"/>
</g>
<!-- cusolvermp -->
<g id="node7" class="node">
<title>cusolvermp</title>
<g id="a_node7"><a xlink:href="https://github.com/conda-forge/cusolvermp-feedstock/pull/2" xlink:title="cusolvermp ✓">
<ellipse fill="#31688e" stroke="black" cx="167.98" cy="-62" rx="76.99" ry="18"/>
<text text-anchor="middle" x="167.98" y="-57.33" font-family="Times,serif" font-size="14.00" fill="white">cusolvermp ✓</text>
</a>
</g>
</g>
<!-- libcal&#45;&gt;cusolvermp -->
<g id="edge9" class="edge">
<title>libcal&#45;&gt;cusolvermp</title>
<path fill="none" stroke="black" d="M222.62,-187.85C226.72,-169.36 230.68,-139.42 220.98,-116 216.46,-105.09 208.49,-95.25 200.07,-87.1"/>
<polygon fill="black" stroke="black" points="202.54,-84.61 192.75,-80.55 197.87,-89.82 202.54,-84.61"/>
</g>
<!-- libcusolvermp -->
<g id="node8" class="node">
<title>libcusolvermp</title>
<g id="a_node8"><a xlink:href="https://github.com/conda-forge/libcusolvermp-feedstock/pull/6" xlink:title="libcusolvermp ❎">
<ellipse fill="#31688e" stroke="black" cx="96.98" cy="-134" rx="96.98" ry="18"/>
<text text-anchor="middle" x="96.98" y="-129.32" font-family="Times,serif" font-size="14.00" fill="white">libcusolvermp ❎</text>
</a>
</g>
</g>
<!-- libcal&#45;&gt;libcusolvermp -->
<g id="edge10" class="edge">
<title>libcal&#45;&gt;libcusolvermp</title>
<path fill="none" stroke="black" d="M192.02,-189.98C175.5,-180.42 153.81,-167.88 135.32,-157.18"/>
<polygon fill="black" stroke="black" points="137.15,-154.2 126.74,-152.22 133.65,-160.25 137.15,-154.2"/>
</g>
<!-- libnvshmem&#45;&gt;libnvshmem -->
<g id="edge11" class="edge">
<title>libnvshmem&#45;&gt;libnvshmem</title>
<path fill="none" stroke="black" d="M1250.47,-219.38C1273.56,-220.3 1293.12,-215.84 1293.12,-206 1293.12,-197.85 1279.7,-193.39 1261.98,-192.62"/>
<polygon fill="black" stroke="black" points="1261.99,-189.12 1251.99,-192.62 1261.99,-196.12 1261.99,-189.12"/>
</g>
<!-- holoscan&#45;&gt;holoscan -->
<g id="edge12" class="edge">
<title>holoscan&#45;&gt;holoscan</title>
<path fill="none" stroke="black" d="M1257.61,-147.26C1277.49,-148.62 1294.76,-144.2 1294.76,-134 1294.76,-125.8 1283.58,-121.33 1268.85,-120.61"/>
<polygon fill="black" stroke="black" points="1269.08,-117.1 1259.12,-120.72 1269.16,-124.1 1269.08,-117.1"/>
</g>
<!-- libcusolvermp&#45;&gt;cusolvermp -->
<g id="edge51" class="edge">
<title>libcusolvermp&#45;&gt;cusolvermp</title>
<path fill="none" stroke="black" d="M114.17,-116.05C122.8,-107.54 133.43,-97.07 142.95,-87.68"/>
<polygon fill="black" stroke="black" points="145.21,-90.36 149.87,-80.85 140.3,-85.38 145.21,-90.36"/>
</g>
<!-- libcusolvermp&#45;&gt;libcusolvermp -->
<g id="edge52" class="edge">
<title>libcusolvermp&#45;&gt;libcusolvermp</title>
<path fill="none" stroke="black" d="M163.72,-147.43C190.01,-148.11 211.96,-143.63 211.96,-134 211.96,-125.8 196.04,-121.33 175.08,-120.61"/>
<polygon fill="black" stroke="black" points="175.25,-117.11 165.24,-120.57 175.23,-124.11 175.25,-117.11"/>
</g>
<!-- cusparselt -->
<g id="node9" class="node">
<title>cusparselt</title>
<g id="a_node9"><a xlink:href="https://github.com/conda-forge/cusparselt-feedstock/pull/63" xlink:title="cusparselt ✓">
<ellipse fill="#31688e" stroke="black" cx="1381.98" cy="-206" rx="71.2" ry="18"/>
<text text-anchor="middle" x="1381.98" y="-201.32" font-family="Times,serif" font-size="14.00" fill="white">cusparselt ✓</text>
</a>
</g>
</g>
<!-- cusparselt&#45;&gt;holoscan -->
<g id="edge13" class="edge">
<title>cusparselt&#45;&gt;holoscan</title>
<path fill="none" stroke="black" d="M1346.35,-190.15C1320.93,-179.56 1286.54,-165.23 1259.18,-153.83"/>
<polygon fill="black" stroke="black" points="1260.67,-150.66 1250.09,-150.05 1257.98,-157.12 1260.67,-150.66"/>
</g>
<!-- cusparselt&#45;&gt;cusparselt -->
<g id="edge14" class="edge">
<title>cusparselt&#45;&gt;cusparselt</title>
<path fill="none" stroke="black" d="M1431.51,-219.34C1452.88,-220.43 1471.18,-215.98 1471.18,-206 1471.18,-197.81 1458.87,-193.35 1442.65,-192.61"/>
<polygon fill="black" stroke="black" points="1443.01,-189.11 1433.03,-192.65 1443.04,-196.11 1443.01,-189.11"/>
</g>
<!-- libcusparse -->
<g id="node10" class="node">
<title>libcusparse</title>
<g id="a_node10"><a xlink:href="https://github.com/conda-forge/libcusparse-feedstock/pull/22" xlink:title="libcusparse ❎">
<ellipse fill="#31688e" stroke="black" cx="1329.98" cy="-278" rx="83.83" ry="18"/>
<text text-anchor="middle" x="1329.98" y="-273.32" font-family="Times,serif" font-size="14.00" fill="white">libcusparse ❎</text>
</a>
</g>
</g>
<!-- libcusparse&#45;&gt;holoscan -->
<g id="edge15" class="edge">
<title>libcusparse&#45;&gt;holoscan</title>
<path fill="none" stroke="black" d="M1389.39,-264.9C1443.6,-251.18 1510.9,-225.69 1479.98,-188 1455.93,-158.69 1356.88,-145.28 1286.71,-139.37"/>
<polygon fill="black" stroke="black" points="1287.03,-135.88 1276.78,-138.57 1286.47,-142.86 1287.03,-135.88"/>
</g>
<!-- libcusparse&#45;&gt;cusparselt -->
<g id="edge16" class="edge">
<title>libcusparse&#45;&gt;cusparselt</title>
<path fill="none" stroke="black" d="M1342.57,-260.05C1348.64,-251.89 1356.05,-241.91 1362.8,-232.82"/>
<polygon fill="black" stroke="black" points="1365.45,-235.12 1368.61,-225 1359.83,-230.94 1365.45,-235.12"/>
</g>
<!-- libcusparse&#45;&gt;libcusparse -->
<g id="edge17" class="edge">
<title>libcusparse&#45;&gt;libcusparse</title>
<path fill="none" stroke="black" d="M1388.07,-291.4C1411.79,-292.24 1431.81,-287.77 1431.81,-278 1431.81,-269.83 1417.82,-265.37 1399.37,-264.61"/>
<polygon fill="black" stroke="black" points="1399.59,-261.12 1389.58,-264.6 1399.58,-268.12 1399.59,-261.12"/>
</g>
<!-- cuda&#45;libraries&#45;static -->
<g id="node11" class="node">
<title>cuda&#45;libraries&#45;static</title>
<g id="a_node11"><a xlink:href="https://github.com/conda-forge/cuda-libraries-static-feedstock/pull/21" xlink:title="cuda libraries static ✓">
<ellipse fill="#31688e" stroke="black" cx="1839.98" cy="-206" rx="119.08" ry="18"/>
<text text-anchor="middle" x="1839.98" y="-201.32" font-family="Times,serif" font-size="14.00" fill="white">cuda libraries static ✓</text>
</a>
</g>
</g>
<!-- libcusparse&#45;&gt;cuda&#45;libraries&#45;static -->
<g id="edge18" class="edge">
<title>libcusparse&#45;&gt;cuda&#45;libraries&#45;static</title>
<path fill="none" stroke="black" d="M1395.97,-266.56C1410.46,-264.34 1425.73,-262.04 1439.98,-260 1560.69,-242.69 1591.1,-240.03 1711.98,-224 1721.59,-222.73 1731.6,-221.4 1741.61,-220.07"/>
<polygon fill="black" stroke="black" points="1741.93,-223.56 1751.38,-218.77 1741.01,-216.62 1741.93,-223.56"/>
</g>
<!-- cuda&#45;libraries -->
<g id="node12" class="node">
<title>cuda&#45;libraries</title>
<g id="a_node12"><a xlink:href="https://github.com/conda-forge/cuda-libraries-feedstock/pull/20" xlink:title="cuda libraries ✓">
<ellipse fill="#31688e" stroke="black" cx="1614.98" cy="-206" rx="88.04" ry="18"/>
<text text-anchor="middle" x="1614.98" y="-201.32" font-family="Times,serif" font-size="14.00" fill="white">cuda libraries ✓</text>
</a>
</g>
</g>
<!-- libcusparse&#45;&gt;cuda&#45;libraries -->
<g id="edge19" class="edge">
<title>libcusparse&#45;&gt;cuda&#45;libraries</title>
<path fill="none" stroke="black" d="M1383.59,-263.83C1430.51,-252.31 1498.84,-235.53 1549.09,-223.18"/>
<polygon fill="black" stroke="black" points="1549.81,-226.61 1558.69,-220.83 1548.14,-219.81 1549.81,-226.61"/>
</g>
<!-- libcufile -->
<g id="node13" class="node">
<title>libcufile</title>
<g id="a_node13"><a xlink:href="https://github.com/conda-forge/libcufile-feedstock/pull/31" xlink:title="libcufile ❎">
<ellipse fill="#31688e" stroke="black" cx="2072.98" cy="-278" rx="65.94" ry="18"/>
<text text-anchor="middle" x="2072.98" y="-273.32" font-family="Times,serif" font-size="14.00" fill="white">libcufile ❎</text>
</a>
</g>
</g>
<!-- libcufile&#45;&gt;holoscan -->
<g id="edge20" class="edge">
<title>libcufile&#45;&gt;holoscan</title>
<path fill="none" stroke="black" d="M2051.16,-260.53C2037.87,-250.3 2020.67,-236.72 2005.98,-224 1988.4,-208.77 1989.28,-197.36 1967.98,-188 1906.78,-161.09 1465.27,-143.44 1287.67,-137.36"/>
<polygon fill="black" stroke="black" points="1287.99,-133.87 1277.88,-137.02 1287.75,-140.86 1287.99,-133.87"/>
</g>
<!-- libcufile&#45;&gt;cuda&#45;libraries&#45;static -->
<g id="edge21" class="edge">
<title>libcufile&#45;&gt;cuda&#45;libraries&#45;static</title>
<path fill="none" stroke="black" d="M2029.7,-264C1994.09,-253.3 1943.14,-237.99 1903,-225.93"/>
<polygon fill="black" stroke="black" points="1904.02,-222.59 1893.44,-223.06 1902.01,-229.29 1904.02,-222.59"/>
</g>
<!-- libcufile&#45;&gt;cuda&#45;libraries -->
<g id="edge22" class="edge">
<title>libcufile&#45;&gt;cuda&#45;libraries</title>
<path fill="none" stroke="black" d="M2024.71,-265.33C2015.85,-263.4 2006.66,-261.53 1997.98,-260 1871.8,-237.81 1838.67,-243.06 1711.98,-224 1704.91,-222.94 1697.56,-221.77 1690.2,-220.55"/>
<polygon fill="black" stroke="black" points="1691.02,-217.14 1680.58,-218.94 1689.86,-224.04 1691.02,-217.14"/>
</g>
<!-- libcufile&#45;&gt;libcufile -->
<g id="edge23" class="edge">
<title>libcufile&#45;&gt;libcufile</title>
<path fill="none" stroke="black" d="M2118.74,-291.29C2139.21,-292.55 2156.92,-288.12 2156.92,-278 2156.92,-269.77 2145.23,-265.31 2129.87,-264.6"/>
<polygon fill="black" stroke="black" points="2130.22,-261.1 2120.25,-264.7 2130.29,-268.1 2130.22,-261.1"/>
</g>
<!-- nvidia&#45;gds -->
<g id="node14" class="node">
<title>nvidia&#45;gds</title>
<g id="a_node14"><a xlink:href="https://github.com/conda-forge/nvidia-gds-feedstock/pull/20" xlink:title="nvidia gds ✓">
<ellipse fill="#31688e" stroke="black" cx="2085.98" cy="-206" rx="70.68" ry="18"/>
<text text-anchor="middle" x="2085.98" y="-201.32" font-family="Times,serif" font-size="14.00" fill="white">nvidia gds ✓</text>
</a>
</g>
</g>
<!-- libcufile&#45;&gt;nvidia&#45;gds -->
<g id="edge24" class="edge">
<title>libcufile&#45;&gt;nvidia&#45;gds</title>
<path fill="none" stroke="black" d="M2076.19,-259.7C2077.56,-252.32 2079.2,-243.52 2080.73,-235.25"/>
<polygon fill="black" stroke="black" points="2084.14,-236.06 2082.53,-225.59 2077.26,-234.79 2084.14,-236.06"/>
</g>
<!-- libnvjpeg -->
<g id="node15" class="node">
<title>libnvjpeg</title>
<g id="a_node15"><a xlink:href="https://github.com/conda-forge/libnvjpeg-feedstock/pull/19" xlink:title="libnvjpeg ✓">
<ellipse fill="#31688e" stroke="black" cx="1707.98" cy="-278" rx="65.41" ry="18"/>
<text text-anchor="middle" x="1707.98" y="-273.32" font-family="Times,serif" font-size="14.00" fill="white">libnvjpeg ✓</text>
</a>
</g>
</g>
<!-- libnvjpeg&#45;&gt;cuda&#45;libraries&#45;static -->
<g id="edge25" class="edge">
<title>libnvjpeg&#45;&gt;cuda&#45;libraries&#45;static</title>
<path fill="none" stroke="black" d="M1737.28,-261.46C1755.26,-251.93 1778.57,-239.57 1798.43,-229.03"/>
<polygon fill="black" stroke="black" points="1799.93,-232.2 1807.13,-224.42 1796.65,-226.02 1799.93,-232.2"/>
</g>
<!-- libnvjpeg&#45;&gt;cuda&#45;libraries -->
<g id="edge26" class="edge">
<title>libnvjpeg&#45;&gt;cuda&#45;libraries</title>
<path fill="none" stroke="black" d="M1686.41,-260.76C1674.58,-251.86 1659.69,-240.65 1646.57,-230.78"/>
<polygon fill="black" stroke="black" points="1648.71,-228.01 1638.61,-224.79 1644.5,-233.6 1648.71,-228.01"/>
</g>
<!-- libnvjpeg&#45;&gt;libnvjpeg -->
<g id="edge27" class="edge">
<title>libnvjpeg&#45;&gt;libnvjpeg</title>
<path fill="none" stroke="black" d="M1753.45,-291.29C1773.8,-292.55 1791.39,-288.12 1791.39,-278 1791.39,-269.85 1780,-265.39 1764.95,-264.62"/>
<polygon fill="black" stroke="black" points="1764.94,-261.12 1754.97,-264.7 1764.99,-268.12 1764.94,-261.12"/>
</g>
<!-- cuda&#45;nvtx -->
<g id="node16" class="node">
<title>cuda&#45;nvtx</title>
<g id="a_node16"><a xlink:href="https://github.com/conda-forge/cuda-nvtx-feedstock/pull/29" xlink:title="cuda nvtx ❎">
<ellipse fill="#31688e" stroke="black" cx="809.98" cy="-206" rx="75.41" ry="18"/>
<text text-anchor="middle" x="809.98" y="-201.32" font-family="Times,serif" font-size="14.00" fill="white">cuda nvtx ❎</text>
</a>
</g>
</g>
<!-- cuda&#45;nvtx&#45;&gt;holoscan -->
<g id="edge28" class="edge">
<title>cuda&#45;nvtx&#45;&gt;holoscan</title>
<path fill="none" stroke="black" d="M869.59,-194.67C944.7,-181.66 1073.23,-159.39 1150.23,-146.05"/>
<polygon fill="black" stroke="black" points="1150.46,-149.56 1159.72,-144.4 1149.27,-142.66 1150.46,-149.56"/>
</g>
<!-- cuda&#45;nvtx&#45;&gt;cuda&#45;nvtx -->
<g id="edge29" class="edge">
<title>cuda&#45;nvtx&#45;&gt;cuda&#45;nvtx</title>
<path fill="none" stroke="black" d="M862.32,-219.36C884.5,-220.37 903.39,-215.91 903.39,-206 903.39,-197.79 890.43,-193.32 873.39,-192.6"/>
<polygon fill="black" stroke="black" points="873.83,-189.1 863.84,-192.63 873.85,-196.1 873.83,-189.1"/>
</g>
<!-- cuda&#45;command&#45;line&#45;tools -->
<g id="node17" class="node">
<title>cuda&#45;command&#45;line&#45;tools</title>
<g id="a_node17"><a xlink:href="https://github.com/conda-forge/cuda-command-line-tools-feedstock/pull/23" xlink:title="cuda command line tools ✓">
<ellipse fill="#31688e" stroke="black" cx="453.98" cy="-134" rx="143.28" ry="18"/>
<text text-anchor="middle" x="453.98" y="-129.32" font-family="Times,serif" font-size="14.00" fill="white">cuda command line tools ✓</text>
</a>
</g>
</g>
<!-- cuda&#45;nvtx&#45;&gt;cuda&#45;command&#45;line&#45;tools -->
<g id="edge30" class="edge">
<title>cuda&#45;nvtx&#45;&gt;cuda&#45;command&#45;line&#45;tools</title>
<path fill="none" stroke="black" d="M753.18,-193.83C695.74,-182.54 606.25,-164.94 540.09,-151.93"/>
<polygon fill="black" stroke="black" points="540.83,-148.51 530.34,-150.01 539.48,-155.38 540.83,-148.51"/>
</g>
<!-- cuda&#45;nvml&#45;dev -->
<g id="node18" class="node">
<title>cuda&#45;nvml&#45;dev</title>
<g id="a_node18"><a xlink:href="https://github.com/conda-forge/cuda-nvml-dev-feedstock/pull/21" xlink:title="cuda nvml dev ✓">
<ellipse fill="#31688e" stroke="black" cx="968.98" cy="-350" rx="91.72" ry="18"/>
<text text-anchor="middle" x="968.98" y="-345.32" font-family="Times,serif" font-size="14.00" fill="white">cuda nvml dev ✓</text>
</a>
</g>
</g>
<!-- cuda&#45;nvml&#45;dev&#45;&gt;cudatoolkit -->
<g id="edge31" class="edge">
<title>cuda&#45;nvml&#45;dev&#45;&gt;cudatoolkit</title>
<path fill="none" stroke="black" d="M968.98,-331.7C968.98,-324.41 968.98,-315.73 968.98,-307.54"/>
<polygon fill="black" stroke="black" points="972.48,-307.62 968.98,-297.62 965.48,-307.62 972.48,-307.62"/>
</g>
<!-- cuda&#45;nvml&#45;dev&#45;&gt;libcal -->
<g id="edge32" class="edge">
<title>cuda&#45;nvml&#45;dev&#45;&gt;libcal</title>
<path fill="none" stroke="black" d="M880.09,-345.29C766.5,-339.41 577.02,-325.46 513.98,-296 492.9,-286.15 496.61,-270.75 475.98,-260 458.4,-250.83 346.18,-229.75 275.65,-217.12"/>
<polygon fill="black" stroke="black" points="276.66,-213.74 266.2,-215.43 275.43,-220.63 276.66,-213.74"/>
</g>
<!-- cuda&#45;nvml&#45;dev&#45;&gt;libnvshmem -->
<g id="edge33" class="edge">
<title>cuda&#45;nvml&#45;dev&#45;&gt;libnvshmem</title>
<path fill="none" stroke="black" d="M1006.27,-333.08C1027.79,-323.36 1055.04,-310.11 1077.98,-296 1110.03,-276.29 1143.97,-249.76 1166.99,-230.81"/>
<polygon fill="black" stroke="black" points="1168.93,-233.75 1174.39,-224.66 1164.46,-228.36 1168.93,-233.75"/>
</g>
<!-- cuda&#45;nvml&#45;dev&#45;&gt;holoscan -->
<g id="edge34" class="edge">
<title>cuda&#45;nvml&#45;dev&#45;&gt;holoscan</title>
<path fill="none" stroke="black" d="M1060.5,-348.36C1333.87,-346.01 2127.92,-335.78 2165.98,-296 2199.16,-261.32 2198.96,-222.87 2165.98,-188 2135.93,-156.23 1506.66,-140.79 1288.04,-136.38"/>
<polygon fill="black" stroke="black" points="1288.28,-132.88 1278.21,-136.18 1288.14,-139.88 1288.28,-132.88"/>
</g>
<!-- cuda&#45;visual&#45;tools -->
<g id="node19" class="node">
<title>cuda&#45;visual&#45;tools</title>
<g id="a_node19"><a xlink:href="https://github.com/conda-forge/cuda-visual-tools-feedstock/pull/20" xlink:title="cuda visual tools ✓">
<ellipse fill="#31688e" stroke="black" cx="363.98" cy="-278" rx="102.77" ry="18"/>
<text text-anchor="middle" x="363.98" y="-273.32" font-family="Times,serif" font-size="14.00" fill="white">cuda visual tools ✓</text>
</a>
</g>
</g>
<!-- cuda&#45;nvml&#45;dev&#45;&gt;cuda&#45;visual&#45;tools -->
<g id="edge35" class="edge">
<title>cuda&#45;nvml&#45;dev&#45;&gt;cuda&#45;visual&#45;tools</title>
<path fill="none" stroke="black" d="M888.14,-341.12C791.26,-331.47 624.07,-314.16 480.98,-296 471.36,-294.78 461.31,-293.43 451.32,-292.04"/>
<polygon fill="black" stroke="black" points="451.97,-288.6 441.58,-290.67 450.99,-295.53 451.97,-288.6"/>
</g>
<!-- cuda&#45;cupti -->
<g id="node20" class="node">
<title>cuda&#45;cupti</title>
<g id="a_node20"><a xlink:href="https://github.com/conda-forge/cuda-cupti-feedstock/pull/26" xlink:title="cuda cupti ❎">
<ellipse fill="#31688e" stroke="black" cx="601.98" cy="-278" rx="78.57" ry="18"/>
<text text-anchor="middle" x="601.98" y="-273.32" font-family="Times,serif" font-size="14.00" fill="white">cuda cupti ❎</text>
</a>
</g>
</g>
<!-- cuda&#45;cupti&#45;&gt;holoscan -->
<g id="edge36" class="edge">
<title>cuda&#45;cupti&#45;&gt;holoscan</title>
<path fill="none" stroke="black" d="M677.57,-272.73C741.8,-267.09 835.5,-254.06 911.98,-224 939.17,-213.31 940.02,-199.25 966.98,-188 1024.46,-164.01 1094.17,-150.32 1144.86,-142.9"/>
<polygon fill="black" stroke="black" points="1145.11,-146.39 1154.52,-141.53 1144.13,-139.46 1145.11,-146.39"/>
</g>
<!-- cuda&#45;cupti&#45;&gt;cuda&#45;command&#45;line&#45;tools -->
<g id="edge37" class="edge">
<title>cuda&#45;cupti&#45;&gt;cuda&#45;command&#45;line&#45;tools</title>
<path fill="none" stroke="black" d="M541.91,-266C464.47,-251.69 339.28,-228.02 335.98,-224 325.83,-211.63 327.29,-201.43 335.98,-188 345.49,-173.31 360.14,-162.65 375.93,-154.93"/>
<polygon fill="black" stroke="black" points="377.32,-158.14 385.04,-150.88 374.48,-151.74 377.32,-158.14"/>
</g>
<!-- cuda&#45;cupti&#45;&gt;cuda&#45;cupti -->
<g id="edge38" class="edge">
<title>cuda&#45;cupti&#45;&gt;cuda&#45;cupti</title>
<path fill="none" stroke="black" d="M656.09,-291.36C679.02,-292.37 698.55,-287.91 698.55,-278 698.55,-269.79 685.15,-265.32 667.53,-264.6"/>
<polygon fill="black" stroke="black" points="667.6,-261.1 657.61,-264.63 667.62,-268.1 667.6,-261.1"/>
</g>
<!-- cuda&#45;nvprof -->
<g id="node21" class="node">
<title>cuda&#45;nvprof</title>
<g id="a_node21"><a xlink:href="https://github.com/conda-forge/cuda-nvprof-feedstock/pull/20" xlink:title="cuda nvprof ❎">
<ellipse fill="#31688e" stroke="black" cx="430.98" cy="-206" rx="85.93" ry="18"/>
<text text-anchor="middle" x="430.98" y="-201.32" font-family="Times,serif" font-size="14.00" fill="white">cuda nvprof ❎</text>
</a>
</g>
</g>
<!-- cuda&#45;cupti&#45;&gt;cuda&#45;nvprof -->
<g id="edge39" class="edge">
<title>cuda&#45;cupti&#45;&gt;cuda&#45;nvprof</title>
<path fill="none" stroke="black" d="M564.88,-261.81C539.81,-251.55 506.48,-237.91 479.34,-226.8"/>
<polygon fill="black" stroke="black" points="480.88,-223.65 470.3,-223.1 478.23,-230.12 480.88,-223.65"/>
</g>
<!-- cuda&#45;nvprof&#45;&gt;cuda&#45;command&#45;line&#45;tools -->
<g id="edge40" class="edge">
<title>cuda&#45;nvprof&#45;&gt;cuda&#45;command&#45;line&#45;tools</title>
<path fill="none" stroke="black" d="M436.67,-187.7C439.12,-180.24 442.05,-171.32 444.79,-162.97"/>
<polygon fill="black" stroke="black" points="448.09,-164.14 447.89,-153.54 441.44,-161.95 448.09,-164.14"/>
</g>
<!-- cuda&#45;nvprune -->
<g id="node22" class="node">
<title>cuda&#45;nvprune</title>
<g id="a_node22"><a xlink:href="https://github.com/conda-forge/cuda-nvprune-feedstock/pull/17" xlink:title="cuda nvprune ✓">
<ellipse fill="#31688e" stroke="black" cx="2321.98" cy="-278" rx="87.51" ry="18"/>
<text text-anchor="middle" x="2321.98" y="-273.32" font-family="Times,serif" font-size="14.00" fill="white">cuda nvprune ✓</text>
</a>
</g>
</g>
<!-- cuda&#45;compiler -->
<g id="node23" class="node">
<title>cuda&#45;compiler</title>
<g id="a_node23"><a xlink:href="https://github.com/conda-forge/cuda-compiler-feedstock/pull/18" xlink:title="cuda compiler ✓">
<ellipse fill="#31688e" stroke="black" cx="2321.98" cy="-206" rx="89.61" ry="18"/>
<text text-anchor="middle" x="2321.98" y="-201.33" font-family="Times,serif" font-size="14.00" fill="white">cuda compiler ✓</text>
</a>
</g>
</g>
<!-- cuda&#45;nvprune&#45;&gt;cuda&#45;compiler -->
<g id="edge41" class="edge">
<title>cuda&#45;nvprune&#45;&gt;cuda&#45;compiler</title>
<path fill="none" stroke="black" d="M2321.98,-259.7C2321.98,-252.41 2321.98,-243.73 2321.98,-235.54"/>
<polygon fill="black" stroke="black" points="2325.48,-235.62 2321.98,-225.62 2318.48,-235.62 2325.48,-235.62"/>
</g>
<!-- cuda&#45;minimal&#45;build -->
<g id="node24" class="node">
<title>cuda&#45;minimal&#45;build</title>
<g id="a_node24"><a xlink:href="https://github.com/conda-forge/cuda-minimal-build-feedstock/pull/17" xlink:title="cuda minimal build ✓">
<ellipse fill="#31688e" stroke="black" cx="2321.98" cy="-134" rx="114.87" ry="18"/>
<text text-anchor="middle" x="2321.98" y="-129.32" font-family="Times,serif" font-size="14.00" fill="white">cuda minimal build ✓</text>
</a>
</g>
</g>
<!-- cuda&#45;compiler&#45;&gt;cuda&#45;minimal&#45;build -->
<g id="edge42" class="edge">
<title>cuda&#45;compiler&#45;&gt;cuda&#45;minimal&#45;build</title>
<path fill="none" stroke="black" d="M2321.98,-187.7C2321.98,-180.41 2321.98,-171.73 2321.98,-163.54"/>
<polygon fill="black" stroke="black" points="2325.48,-163.62 2321.98,-153.62 2318.48,-163.62 2325.48,-163.62"/>
</g>
<!-- cuda&#45;gdb -->
<g id="node25" class="node">
<title>cuda&#45;gdb</title>
<g id="a_node25"><a xlink:href="https://github.com/conda-forge/cuda-gdb-feedstock/pull/20" xlink:title="cuda gdb ❎">
<ellipse fill="#31688e" stroke="black" cx="606.98" cy="-206" rx="72.25" ry="18"/>
<text text-anchor="middle" x="606.98" y="-201.32" font-family="Times,serif" font-size="14.00" fill="white">cuda gdb ❎</text>
</a>
</g>
</g>
<!-- cuda&#45;gdb&#45;&gt;cuda&#45;command&#45;line&#45;tools -->
<g id="edge43" class="edge">
<title>cuda&#45;gdb&#45;&gt;cuda&#45;command&#45;line&#45;tools</title>
<path fill="none" stroke="black" d="M573.4,-189.64C552.2,-179.94 524.48,-167.26 501.09,-156.56"/>
<polygon fill="black" stroke="black" points="502.62,-153.4 492.07,-152.42 499.7,-159.77 502.62,-153.4"/>
</g>
<!-- cuda&#45;opencl -->
<g id="node26" class="node">
<title>cuda&#45;opencl</title>
<g id="a_node26"><a xlink:href="https://github.com/conda-forge/cuda-opencl-feedstock/pull/19" xlink:title="cuda opencl ✓">
<ellipse fill="#31688e" stroke="black" cx="1527.98" cy="-278" rx="78.57" ry="18"/>
<text text-anchor="middle" x="1527.98" y="-273.32" font-family="Times,serif" font-size="14.00" fill="white">cuda opencl ✓</text>
</a>
</g>
</g>
<!-- cuda&#45;opencl&#45;&gt;cuda&#45;libraries -->
<g id="edge44" class="edge">
<title>cuda&#45;opencl&#45;&gt;cuda&#45;libraries</title>
<path fill="none" stroke="black" d="M1548.6,-260.41C1559.49,-251.65 1573.06,-240.73 1585.08,-231.06"/>
<polygon fill="black" stroke="black" points="1587.13,-233.9 1592.73,-224.91 1582.74,-228.45 1587.13,-233.9"/>
</g>
<!-- cuda&#45;opencl&#45;&gt;cuda&#45;opencl -->
<g id="edge45" class="edge">
<title>cuda&#45;opencl&#45;&gt;cuda&#45;opencl</title>
<path fill="none" stroke="black" d="M1582.09,-291.36C1605.02,-292.37 1624.55,-287.91 1624.55,-278 1624.55,-269.79 1611.15,-265.32 1593.53,-264.6"/>
<polygon fill="black" stroke="black" points="1593.6,-261.1 1583.61,-264.63 1593.62,-268.1 1593.6,-261.1"/>
</g>
<!-- nvcomp -->
<g id="node27" class="node">
<title>nvcomp</title>
<g id="a_node27"><a xlink:href="https://github.com/conda-forge/nvcomp-feedstock/pull/19" xlink:title="nvcomp ❎">
<ellipse fill="#31688e" stroke="black" cx="2563.98" cy="-18" rx="65.41" ry="18"/>
<text text-anchor="middle" x="2563.98" y="-13.32" font-family="Times,serif" font-size="14.00" fill="white">nvcomp ❎</text>
</a>
</g>
</g>
<!-- cuda&#45;compat -->
<g id="node28" class="node">
<title>cuda&#45;compat</title>
<g id="a_node28"><a xlink:href="https://github.com/conda-forge/cuda-compat-feedstock/pull/18" xlink:title="cuda compat ❎">
<ellipse fill="#31688e" stroke="black" cx="1090.98" cy="-18" rx="90.14" ry="18"/>
<text text-anchor="middle" x="1090.98" y="-13.32" font-family="Times,serif" font-size="14.00" fill="white">cuda compat ❎</text>
</a>
</g>
</g>
<!-- cuda&#45;compat&#45;&gt;cuda&#45;compat -->
<g id="edge46" class="edge">
<title>cuda&#45;compat&#45;&gt;cuda&#45;compat</title>
<path fill="none" stroke="black" d="M1176.21,-24.22C1189.81,-23.31 1199.12,-21.23 1199.12,-18 1199.12,-15.78 1194.72,-14.1 1187.55,-12.98"/>
<polygon fill="black" stroke="black" points="1188.02,-9.51 1177.71,-11.94 1187.29,-16.47 1188.02,-9.51"/>
</g>
<!-- nsight&#45;compute -->
<g id="node29" class="node">
<title>nsight&#45;compute</title>
<g id="a_node29"><a xlink:href="https://github.com/conda-forge/nsight-compute-feedstock/pull/37" xlink:title="nsight compute ✓">
<ellipse fill="#31688e" stroke="black" cx="363.98" cy="-350" rx="96.98" ry="18"/>
<text text-anchor="middle" x="363.98" y="-345.32" font-family="Times,serif" font-size="14.00" fill="white">nsight compute ✓</text>
</a>
</g>
</g>
<!-- nsight&#45;compute&#45;&gt;cuda&#45;visual&#45;tools -->
<g id="edge47" class="edge">
<title>nsight&#45;compute&#45;&gt;cuda&#45;visual&#45;tools</title>
<path fill="none" stroke="black" d="M363.98,-331.7C363.98,-324.41 363.98,-315.73 363.98,-307.54"/>
<polygon fill="black" stroke="black" points="367.48,-307.62 363.98,-297.62 360.48,-307.62 367.48,-307.62"/>
</g>
<!-- libnvfatbin -->
<g id="node30" class="node">
<title>libnvfatbin</title>
<g id="a_node30"><a xlink:href="https://github.com/conda-forge/libnvfatbin-feedstock/pull/14" xlink:title="libnvfatbin ❎">
<ellipse fill="#31688e" stroke="black" cx="1889.98" cy="-278" rx="80.67" ry="18"/>
<text text-anchor="middle" x="1889.98" y="-273.32" font-family="Times,serif" font-size="14.00" fill="white">libnvfatbin ❎</text>
</a>
</g>
</g>
<!-- libnvfatbin&#45;&gt;cuda&#45;libraries&#45;static -->
<g id="edge48" class="edge">
<title>libnvfatbin&#45;&gt;cuda&#45;libraries&#45;static</title>
<path fill="none" stroke="black" d="M1877.88,-260.05C1872.19,-252.09 1865.27,-242.41 1858.92,-233.51"/>
<polygon fill="black" stroke="black" points="1861.86,-231.61 1853.2,-225.51 1856.16,-235.68 1861.86,-231.61"/>
</g>
<!-- libnvfatbin&#45;&gt;cuda&#45;libraries -->
<g id="edge49" class="edge">
<title>libnvfatbin&#45;&gt;cuda&#45;libraries</title>
<path fill="none" stroke="black" d="M1838.26,-263.83C1793.22,-252.37 1727.74,-235.7 1679.33,-223.38"/>
<polygon fill="black" stroke="black" points="1680.37,-220.03 1669.82,-220.96 1678.64,-226.82 1680.37,-220.03"/>
</g>
<!-- libnvfatbin&#45;&gt;libnvfatbin -->
<g id="edge50" class="edge">
<title>libnvfatbin&#45;&gt;libnvfatbin</title>
<path fill="none" stroke="black" d="M1945.77,-291.38C1968.98,-292.3 1988.65,-287.84 1988.65,-278 1988.65,-269.81 1975.03,-265.35 1957.09,-264.61"/>
<polygon fill="black" stroke="black" points="1957.28,-261.11 1947.28,-264.62 1957.29,-268.11 1957.28,-261.11"/>
</g>
<!-- libnvjpeg2k&#45;split -->
<g id="node31" class="node">
<title>libnvjpeg2k&#45;split</title>
<g id="a_node31"><a xlink:href="https://github.com/conda-forge/libnvjpeg2k-split-feedstock/pull/14" xlink:title="libnvjpeg2k split ❎">
<ellipse fill="#31688e" stroke="black" cx="2554.98" cy="-206" rx="110.13" ry="18"/>
<text text-anchor="middle" x="2554.98" y="-201.32" font-family="Times,serif" font-size="14.00" fill="white">libnvjpeg2k split ❎</text>
</a>
</g>
</g>
<!-- libnvjpeg2k&#45;split&#45;&gt;libnvjpeg2k&#45;split -->
<g id="edge53" class="edge">
<title>libnvjpeg2k&#45;split&#45;&gt;libnvjpeg2k&#45;split</title>
<path fill="none" stroke="black" d="M2659.55,-211.99C2673.7,-210.98 2683.11,-208.99 2683.11,-206 2683.11,-203.9 2678.46,-202.29 2670.78,-201.17"/>
<polygon fill="black" stroke="black" points="2671.36,-197.71 2661.06,-200.17 2670.65,-204.67 2671.36,-197.71"/>
</g>
<!-- libnvtiff -->
<g id="node32" class="node">
<title>libnvtiff</title>
<g id="a_node32"><a xlink:href="https://github.com/conda-forge/libnvtiff-feedstock/pull/3" xlink:title="libnvtiff ❎">
<ellipse fill="#31688e" stroke="black" cx="2312.98" cy="-18" rx="65.41" ry="18"/>
<text text-anchor="middle" x="2312.98" y="-13.32" font-family="Times,serif" font-size="14.00" fill="white">libnvtiff ❎</text>
</a>
</g>
</g>
<!-- libnvtiff&#45;&gt;libnvtiff -->
<g id="edge54" class="edge">
<title>libnvtiff&#45;&gt;libnvtiff</title>
<path fill="none" stroke="black" d="M2374.45,-24.51C2387.22,-23.83 2396.39,-21.66 2396.39,-18 2396.39,-15.54 2392.25,-13.76 2385.66,-12.64"/>
<polygon fill="black" stroke="black" points="2386.26,-9.19 2375.96,-11.64 2385.55,-16.15 2386.26,-9.19"/>
</g>
</g>
</svg>
