<?xml version="1.0" encoding="UTF-8" standalone="no"?>
<!DOCTYPE svg PUBLIC "-//W3C//DTD SVG 1.1//EN"
 "http://www.w3.org/Graphics/SVG/1.1/DTD/svg11.dtd">
<!-- Generated by graphviz version 13.1.2 (20250809.0930)
 -->
<!-- Pages: 1 -->
<svg width="552pt" height="116pt"
 viewBox="0.00 0.00 552.00 116.00" xmlns="http://www.w3.org/2000/svg" xmlns:xlink="http://www.w3.org/1999/xlink">
<g id="graph0" class="graph" transform="scale(1 1) rotate(0) translate(4 112)">
<polygon fill="white" stroke="none" points="-4,4 -4,-112 548.08,-112 548.08,4 -4,4"/>
<!-- netgen -->
<g id="node1" class="node">
<title>netgen</title>
<g id="a_node1"><a xlink:href="https://github.com/conda-forge/netgen-feedstock/pull/55" xlink:title="netgen ❎">
<ellipse fill="#31688e" stroke="black" cx="387.24" cy="-54" rx="61.2" ry="18"/>
<text xml:space="preserve" text-anchor="middle" x="387.24" y="-49.33" font-family="Times,serif" font-size="14.00" fill="white">netgen ❎</text>
</a>
</g>
</g>
<!-- freecad -->
<g id="node2" class="node">
<title>freecad</title>
<g id="a_node2"><a xlink:href="https://github.com/conda-forge/freecad-feedstock" xlink:title="freecad">
<ellipse fill="#fde725" stroke="black" cx="269.24" cy="-18" rx="48.58" ry="18"/>
<text xml:space="preserve" text-anchor="middle" x="269.24" y="-13.32" font-family="Times,serif" font-size="14.00">freecad</text>
</a>
</g>
</g>
<!-- gmsh -->
<g id="node3" class="node">
<title>gmsh</title>
<g id="a_node3"><a xlink:href="https://github.com/conda-forge/gmsh-feedstock/pull/106" xlink:title="gmsh ✓">
<ellipse fill="#31688e" stroke="black" cx="269.24" cy="-90" rx="46.47" ry="18"/>
<text xml:space="preserve" text-anchor="middle" x="269.24" y="-85.33" font-family="Times,serif" font-size="14.00" fill="white">gmsh ✓</text>
</a>
</g>
</g>
<!-- gmsh&#45;&gt;freecad -->
<g id="edge2" class="edge">
<title>gmsh&#45;&gt;freecad</title>
<path fill="none" stroke="black" d="M269.24,-71.7C269.24,-64.41 269.24,-55.73 269.24,-47.54"/>
<polygon fill="black" stroke="black" points="272.74,-47.62 269.24,-37.62 265.74,-47.62 272.74,-47.62"/>
</g>
<!-- ada&#45;cpp -->
<g id="node6" class="node">
<title>ada&#45;cpp</title>
<g id="a_node6"><a xlink:href="https://github.com/conda-forge/ada-cpp-feedstock" xlink:title="ada cpp">
<ellipse fill="#fde725" stroke="black" cx="127.24" cy="-18" rx="50.16" ry="18"/>
<text xml:space="preserve" text-anchor="middle" x="127.24" y="-13.32" font-family="Times,serif" font-size="14.00">ada cpp</text>
</a>
</g>
</g>
<!-- gmsh&#45;&gt;ada&#45;cpp -->
<g id="edge1" class="edge">
<title>gmsh&#45;&gt;ada&#45;cpp</title>
<path fill="none" stroke="black" d="M241.19,-75.17C219.64,-64.55 189.65,-49.76 165.84,-38.03"/>
<polygon fill="black" stroke="black" points="167.6,-34.99 157.08,-33.71 164.5,-41.27 167.6,-34.99"/>
</g>
<!-- pythonocc&#45;core -->
<g id="node4" class="node">
<title>pythonocc&#45;core</title>
<g id="a_node4"><a xlink:href="https://github.com/conda-forge/pythonocc-core-feedstock/pull/42" xlink:title="pythonocc core ❎">
<ellipse fill="#31688e" stroke="black" cx="102.24" cy="-90" rx="102.24" ry="18"/>
<text xml:space="preserve" text-anchor="middle" x="102.24" y="-85.33" font-family="Times,serif" font-size="14.00" fill="white">pythonocc core ❎</text>
</a>
</g>
</g>
<!-- pythonocc&#45;core&#45;&gt;ada&#45;cpp -->
<g id="edge3" class="edge">
<title>pythonocc&#45;core&#45;&gt;ada&#45;cpp</title>
<path fill="none" stroke="black" d="M108.42,-71.7C111.11,-64.15 114.34,-55.12 117.35,-46.68"/>
<polygon fill="black" stroke="black" points="120.56,-48.12 120.62,-37.53 113.96,-45.77 120.56,-48.12"/>
</g>
<!-- ocp -->
<g id="node5" class="node">
<title>ocp</title>
<g id="a_node5"><a xlink:href="https://github.com/conda-forge/ocp-feedstock/pull/68" xlink:title="ocp ❎">
<ellipse fill="#31688e" stroke="black" cx="500.24" cy="-54" rx="43.84" ry="18"/>
<text xml:space="preserve" text-anchor="middle" x="500.24" y="-49.33" font-family="Times,serif" font-size="14.00" fill="white">ocp ❎</text>
</a>
</g>
</g>
</g>
</svg>
