<?xml version="1.0" encoding="UTF-8" standalone="no"?>
<!DOCTYPE svg PUBLIC "-//W3C//DTD SVG 1.1//EN"
 "http://www.w3.org/Graphics/SVG/1.1/DTD/svg11.dtd">
<!-- Generated by graphviz version 12.0.0 (20240803.0821)
 -->
<!-- Pages: 1 -->
<svg width="435pt" height="116pt"
 viewBox="0.00 0.00 435.10 116.00" xmlns="http://www.w3.org/2000/svg" xmlns:xlink="http://www.w3.org/1999/xlink">
<g id="graph0" class="graph" transform="scale(1 1) rotate(0) translate(4 112)">
<polygon fill="white" stroke="none" points="-4,4 -4,-112 431.1,-112 431.1,4 -4,4"/>
<!-- netgen -->
<g id="node1" class="node">
<title>netgen</title>
<g id="a_node1"><a xlink:href="https://github.com/conda-forge/netgen-feedstock/pull/48" xlink:title="netgen ❎">
<ellipse fill="#31688e" stroke="black" cx="284.94" cy="-54" rx="61.2" ry="18"/>
<text text-anchor="middle" x="284.94" y="-49.33" font-family="Times,serif" font-size="14.00" fill="white">netgen ❎</text>
</a>
</g>
</g>
<!-- freecad -->
<g id="node2" class="node">
<title>freecad</title>
<g id="a_node2"><a xlink:href="https://github.com/conda-forge/freecad-feedstock" xlink:title="freecad">
<ellipse fill="#fde725" stroke="black" cx="48.58" cy="-18" rx="48.58" ry="18"/>
<text text-anchor="middle" x="48.58" y="-13.32" font-family="Times,serif" font-size="14.00">freecad</text>
</a>
</g>
</g>
<!-- gmsh -->
<g id="node3" class="node">
<title>gmsh</title>
<g id="a_node3"><a xlink:href="https://github.com/conda-forge/gmsh-feedstock/pull/93" xlink:title="gmsh ❎">
<ellipse fill="#31688e" stroke="black" cx="106.58" cy="-90" rx="53.84" ry="18"/>
<text text-anchor="middle" x="106.58" y="-85.33" font-family="Times,serif" font-size="14.00" fill="white">gmsh ❎</text>
</a>
</g>
</g>
<!-- gmsh&#45;&gt;freecad -->
<g id="edge2" class="edge">
<title>gmsh&#45;&gt;freecad</title>
<path fill="none" stroke="black" d="M92.83,-72.41C85.83,-63.95 77.16,-53.49 69.36,-44.08"/>
<polygon fill="black" stroke="black" points="72.26,-42.1 63.19,-36.64 66.87,-46.57 72.26,-42.1"/>
</g>
<!-- ada&#45;cpp -->
<g id="node5" class="node">
<title>ada&#45;cpp</title>
<g id="a_node5"><a xlink:href="https://github.com/conda-forge/ada-cpp-feedstock" xlink:title="ada cpp">
<ellipse fill="#fde725" stroke="black" cx="165.58" cy="-18" rx="50.16" ry="18"/>
<text text-anchor="middle" x="165.58" y="-13.32" font-family="Times,serif" font-size="14.00">ada cpp</text>
</a>
</g>
</g>
<!-- gmsh&#45;&gt;ada&#45;cpp -->
<g id="edge1" class="edge">
<title>gmsh&#45;&gt;ada&#45;cpp</title>
<path fill="none" stroke="black" d="M120.56,-72.41C127.69,-63.95 136.5,-53.49 144.44,-44.08"/>
<polygon fill="black" stroke="black" points="146.95,-46.53 150.72,-36.63 141.6,-42.02 146.95,-46.53"/>
</g>
<!-- ocp -->
<g id="node4" class="node">
<title>ocp</title>
<g id="a_node4"><a xlink:href="https://github.com/conda-forge/ocp-feedstock/pull/47" xlink:title="ocp ✓">
<ellipse fill="#31688e" stroke="black" cx="390.62" cy="-54" rx="36.48" ry="18"/>
<text text-anchor="middle" x="390.62" y="-49.33" font-family="Times,serif" font-size="14.00" fill="white">ocp ✓</text>
</a>
</g>
</g>
</g>
</svg>
