<?xml version="1.0" encoding="UTF-8" standalone="no"?>
<!DOCTYPE svg PUBLIC "-//W3C//DTD SVG 1.1//EN"
 "http://www.w3.org/Graphics/SVG/1.1/DTD/svg11.dtd">
<!-- Generated by graphviz version 12.2.1 (20250203.1708)
 -->
<!-- Pages: 1 -->
<svg width="814pt" height="160pt"
 viewBox="0.00 0.00 813.93 160.00" xmlns="http://www.w3.org/2000/svg" xmlns:xlink="http://www.w3.org/1999/xlink">
<g id="graph0" class="graph" transform="scale(1 1) rotate(0) translate(4 156)">
<polygon fill="white" stroke="none" points="-4,4 -4,-156 809.93,-156 809.93,4 -4,4"/>
<!-- netgen -->
<g id="node1" class="node">
<title>netgen</title>
<g id="a_node1"><a xlink:href="https://github.com/conda-forge/netgen-feedstock" xlink:title="netgen">
<ellipse fill="#35b779" stroke="black" cx="759.98" cy="-98" rx="45.95" ry="18"/>
<text text-anchor="middle" x="759.98" y="-93.33" font-family="Times,serif" font-size="14.00">netgen</text>
</a>
</g>
</g>
<!-- smesh -->
<g id="node2" class="node">
<title>smesh</title>
<g id="a_node2"><a xlink:href="https://github.com/conda-forge/smesh-feedstock" xlink:title="smesh">
<ellipse fill="#35b779" stroke="black" cx="490.98" cy="-134" rx="43.32" ry="18"/>
<text text-anchor="middle" x="490.98" y="-129.32" font-family="Times,serif" font-size="14.00">smesh</text>
</a>
</g>
</g>
<!-- freecad -->
<g id="node3" class="node">
<title>freecad</title>
<g id="a_node3"><a xlink:href="https://github.com/conda-forge/freecad-feedstock" xlink:title="freecad">
<ellipse fill="#fde725" stroke="black" cx="440.98" cy="-62" rx="48.58" ry="18"/>
<text text-anchor="middle" x="440.98" y="-57.33" font-family="Times,serif" font-size="14.00">freecad</text>
</a>
</g>
</g>
<!-- smesh&#45;&gt;freecad -->
<g id="edge1" class="edge">
<title>smesh&#45;&gt;freecad</title>
<path fill="none" stroke="black" d="M479.13,-116.41C473.22,-108.13 465.93,-97.92 459.31,-88.66"/>
<polygon fill="black" stroke="black" points="462.29,-86.8 453.63,-80.7 456.59,-90.87 462.29,-86.8"/>
</g>
<!-- gmsh -->
<g id="node4" class="node">
<title>gmsh</title>
<g id="a_node4"><a xlink:href="https://github.com/conda-forge/gmsh-feedstock" xlink:title="gmsh">
<ellipse fill="#35b779" stroke="black" cx="390.98" cy="-134" rx="38.58" ry="18"/>
<text text-anchor="middle" x="390.98" y="-129.32" font-family="Times,serif" font-size="14.00">gmsh</text>
</a>
</g>
</g>
<!-- gmsh&#45;&gt;freecad -->
<g id="edge3" class="edge">
<title>gmsh&#45;&gt;freecad</title>
<path fill="none" stroke="black" d="M402.83,-116.41C408.75,-108.13 416.04,-97.92 422.65,-88.66"/>
<polygon fill="black" stroke="black" points="425.38,-90.87 428.34,-80.7 419.68,-86.8 425.38,-90.87"/>
</g>
<!-- ada&#45;cpp -->
<g id="node8" class="node">
<title>ada&#45;cpp</title>
<g id="a_node8"><a xlink:href="https://github.com/conda-forge/ada-cpp-feedstock" xlink:title="ada cpp">
<ellipse fill="#fde725" stroke="black" cx="262.98" cy="-62" rx="50.16" ry="18"/>
<text text-anchor="middle" x="262.98" y="-57.33" font-family="Times,serif" font-size="14.00">ada cpp</text>
</a>
</g>
</g>
<!-- gmsh&#45;&gt;ada&#45;cpp -->
<g id="edge2" class="edge">
<title>gmsh&#45;&gt;ada&#45;cpp</title>
<path fill="none" stroke="black" d="M366.61,-119.67C347.66,-109.31 321.07,-94.76 299.57,-83.01"/>
<polygon fill="black" stroke="black" points="301.26,-79.94 290.8,-78.21 297.9,-86.08 301.26,-79.94"/>
</g>
<!-- ifcopenshell -->
<g id="node5" class="node">
<title>ifcopenshell</title>
<g id="a_node5"><a xlink:href="https://github.com/conda-forge/ifcopenshell-feedstock" xlink:title="ifcopenshell">
<ellipse fill="#35b779" stroke="black" cx="262.98" cy="-134" rx="71.2" ry="18"/>
<text text-anchor="middle" x="262.98" y="-129.32" font-family="Times,serif" font-size="14.00">ifcopenshell</text>
</a>
</g>
</g>
<!-- ifcopenshell&#45;&gt;ada&#45;cpp -->
<g id="edge4" class="edge">
<title>ifcopenshell&#45;&gt;ada&#45;cpp</title>
<path fill="none" stroke="black" d="M262.98,-115.7C262.98,-108.41 262.98,-99.73 262.98,-91.54"/>
<polygon fill="black" stroke="black" points="266.48,-91.62 262.98,-81.62 259.48,-91.62 266.48,-91.62"/>
</g>
<!-- pythonocc&#45;core -->
<g id="node6" class="node">
<title>pythonocc&#45;core</title>
<g id="a_node6"><a xlink:href="https://github.com/conda-forge/pythonocc-core-feedstock" xlink:title="pythonocc core">
<ellipse fill="#35b779" stroke="black" cx="86.98" cy="-134" rx="86.98" ry="18"/>
<text text-anchor="middle" x="86.98" y="-129.32" font-family="Times,serif" font-size="14.00">pythonocc core</text>
</a>
</g>
</g>
<!-- pythonocc&#45;core&#45;&gt;ada&#45;cpp -->
<g id="edge5" class="edge">
<title>pythonocc&#45;core&#45;&gt;ada&#45;cpp</title>
<path fill="none" stroke="black" d="M126.04,-117.46C153.79,-106.43 191.06,-91.61 219.71,-80.21"/>
<polygon fill="black" stroke="black" points="220.83,-83.53 228.82,-76.59 218.24,-77.03 220.83,-83.53"/>
</g>
<!-- ocp -->
<g id="node7" class="node">
<title>ocp</title>
<g id="a_node7"><a xlink:href="https://github.com/conda-forge/ocp-feedstock" xlink:title="ocp">
<ellipse fill="#35b779" stroke="black" cx="266.98" cy="-18" rx="28.59" ry="18"/>
<text text-anchor="middle" x="266.98" y="-13.32" font-family="Times,serif" font-size="14.00">ocp</text>
</a>
</g>
</g>
<!-- topologic&#45;core -->
<g id="node9" class="node">
<title>topologic&#45;core</title>
<g id="a_node9"><a xlink:href="https://github.com/conda-forge/topologic-core-feedstock" xlink:title="topologic core">
<ellipse fill="#35b779" stroke="black" cx="623.98" cy="-98" rx="81.72" ry="18"/>
<text text-anchor="middle" x="623.98" y="-93.33" font-family="Times,serif" font-size="14.00">topologic core</text>
</a>
</g>
</g>
</g>
</svg>
