<?xml version="1.0" encoding="UTF-8" standalone="no"?>
<!DOCTYPE svg PUBLIC "-//W3C//DTD SVG 1.1//EN"
 "http://www.w3.org/Graphics/SVG/1.1/DTD/svg11.dtd">
<!-- Generated by graphviz version 12.2.1 (20250203.1708)
 -->
<!-- Pages: 1 -->
<svg width="966pt" height="160pt"
 viewBox="0.00 0.00 966.19 160.00" xmlns="http://www.w3.org/2000/svg" xmlns:xlink="http://www.w3.org/1999/xlink">
<g id="graph0" class="graph" transform="scale(1 1) rotate(0) translate(4 156)">
<polygon fill="white" stroke="none" points="-4,4 -4,-156 962.19,-156 962.19,4 -4,4"/>
<!-- netgen -->
<g id="node1" class="node">
<title>netgen</title>
<g id="a_node1"><a xlink:href="https://github.com/conda-forge/netgen-feedstock" xlink:title="netgen">
<ellipse fill="#35b779" stroke="black" cx="912.24" cy="-98" rx="45.95" ry="18"/>
<text text-anchor="middle" x="912.24" y="-93.33" font-family="Times,serif" font-size="14.00">netgen</text>
</a>
</g>
</g>
<!-- smesh -->
<g id="node2" class="node">
<title>smesh</title>
<g id="a_node2"><a xlink:href="https://github.com/conda-forge/smesh-feedstock/pull/98" xlink:title="smesh ❎">
<ellipse fill="#31688e" stroke="black" cx="597.24" cy="-134" rx="58.57" ry="18"/>
<text text-anchor="middle" x="597.24" y="-129.32" font-family="Times,serif" font-size="14.00" fill="white">smesh ❎</text>
</a>
</g>
</g>
<!-- freecad -->
<g id="node3" class="node">
<title>freecad</title>
<g id="a_node3"><a xlink:href="https://github.com/conda-forge/freecad-feedstock" xlink:title="freecad">
<ellipse fill="#fde725" stroke="black" cx="532.24" cy="-62" rx="48.58" ry="18"/>
<text text-anchor="middle" x="532.24" y="-57.33" font-family="Times,serif" font-size="14.00">freecad</text>
</a>
</g>
</g>
<!-- smesh&#45;&gt;freecad -->
<g id="edge1" class="edge">
<title>smesh&#45;&gt;freecad</title>
<path fill="none" stroke="black" d="M581.84,-116.41C573.9,-107.87 564.07,-97.28 555.26,-87.79"/>
<polygon fill="black" stroke="black" points="557.93,-85.53 548.56,-80.58 552.8,-90.29 557.93,-85.53"/>
</g>
<!-- gmsh -->
<g id="node4" class="node">
<title>gmsh</title>
<g id="a_node4"><a xlink:href="https://github.com/conda-forge/gmsh-feedstock/pull/99" xlink:title="gmsh ❎">
<ellipse fill="#31688e" stroke="black" cx="467.24" cy="-134" rx="53.84" ry="18"/>
<text text-anchor="middle" x="467.24" y="-129.32" font-family="Times,serif" font-size="14.00" fill="white">gmsh ❎</text>
</a>
</g>
</g>
<!-- gmsh&#45;&gt;freecad -->
<g id="edge3" class="edge">
<title>gmsh&#45;&gt;freecad</title>
<path fill="none" stroke="black" d="M482.64,-116.41C490.58,-107.87 500.41,-97.28 509.22,-87.79"/>
<polygon fill="black" stroke="black" points="511.68,-90.29 515.92,-80.58 506.55,-85.53 511.68,-90.29"/>
</g>
<!-- ada&#45;cpp -->
<g id="node8" class="node">
<title>ada&#45;cpp</title>
<g id="a_node8"><a xlink:href="https://github.com/conda-forge/ada-cpp-feedstock" xlink:title="ada cpp">
<ellipse fill="#fde725" stroke="black" cx="309.24" cy="-62" rx="50.16" ry="18"/>
<text text-anchor="middle" x="309.24" y="-57.33" font-family="Times,serif" font-size="14.00">ada cpp</text>
</a>
</g>
</g>
<!-- gmsh&#45;&gt;ada&#45;cpp -->
<g id="edge2" class="edge">
<title>gmsh&#45;&gt;ada&#45;cpp</title>
<path fill="none" stroke="black" d="M435.65,-119C411.08,-108.12 376.81,-92.94 350.15,-81.12"/>
<polygon fill="black" stroke="black" points="351.92,-78.08 341.36,-77.23 349.08,-84.48 351.92,-78.08"/>
</g>
<!-- ifcopenshell -->
<g id="node5" class="node">
<title>ifcopenshell</title>
<g id="a_node5"><a xlink:href="https://github.com/conda-forge/ifcopenshell-feedstock/pull/70" xlink:title="ifcopenshell ❎">
<ellipse fill="#31688e" stroke="black" cx="309.24" cy="-134" rx="86.46" ry="18"/>
<text text-anchor="middle" x="309.24" y="-129.32" font-family="Times,serif" font-size="14.00" fill="white">ifcopenshell ❎</text>
</a>
</g>
</g>
<!-- ifcopenshell&#45;&gt;ada&#45;cpp -->
<g id="edge4" class="edge">
<title>ifcopenshell&#45;&gt;ada&#45;cpp</title>
<path fill="none" stroke="black" d="M309.24,-115.7C309.24,-108.41 309.24,-99.73 309.24,-91.54"/>
<polygon fill="black" stroke="black" points="312.74,-91.62 309.24,-81.62 305.74,-91.62 312.74,-91.62"/>
</g>
<!-- pythonocc&#45;core -->
<g id="node6" class="node">
<title>pythonocc&#45;core</title>
<g id="a_node6"><a xlink:href="https://github.com/conda-forge/pythonocc-core-feedstock/pull/40" xlink:title="pythonocc core ❎">
<ellipse fill="#31688e" stroke="black" cx="102.24" cy="-134" rx="102.24" ry="18"/>
<text text-anchor="middle" x="102.24" y="-129.32" font-family="Times,serif" font-size="14.00" fill="white">pythonocc core ❎</text>
</a>
</g>
</g>
<!-- pythonocc&#45;core&#45;&gt;ada&#45;cpp -->
<g id="edge5" class="edge">
<title>pythonocc&#45;core&#45;&gt;ada&#45;cpp</title>
<path fill="none" stroke="black" d="M148.18,-117.46C182.36,-105.91 228.81,-90.2 263.05,-78.62"/>
<polygon fill="black" stroke="black" points="263.92,-82.02 272.27,-75.5 261.68,-75.39 263.92,-82.02"/>
</g>
<!-- ocp -->
<g id="node7" class="node">
<title>ocp</title>
<g id="a_node7"><a xlink:href="https://github.com/conda-forge/ocp-feedstock/pull/63" xlink:title="ocp ❎">
<ellipse fill="#31688e" stroke="black" cx="328.24" cy="-18" rx="43.84" ry="18"/>
<text text-anchor="middle" x="328.24" y="-13.32" font-family="Times,serif" font-size="14.00" fill="white">ocp ❎</text>
</a>
</g>
</g>
<!-- topologic&#45;core -->
<g id="node9" class="node">
<title>topologic&#45;core</title>
<g id="a_node9"><a xlink:href="https://github.com/conda-forge/topologic-core-feedstock/pull/6" xlink:title="topologic core ❎">
<ellipse fill="#31688e" stroke="black" cx="761.24" cy="-98" rx="96.98" ry="18"/>
<text text-anchor="middle" x="761.24" y="-93.33" font-family="Times,serif" font-size="14.00" fill="white">topologic core ❎</text>
</a>
</g>
</g>
</g>
</svg>
