<?xml version="1.0" encoding="UTF-8" standalone="no"?>
<!DOCTYPE svg PUBLIC "-//W3C//DTD SVG 1.1//EN"
 "http://www.w3.org/Graphics/SVG/1.1/DTD/svg11.dtd">
<!-- Generated by graphviz version 12.2.1 (20250203.1708)
 -->
<!-- Pages: 1 -->
<svg width="966pt" height="160pt"
 viewBox="0.00 0.00 966.08 160.00" xmlns="http://www.w3.org/2000/svg" xmlns:xlink="http://www.w3.org/1999/xlink">
<g id="graph0" class="graph" transform="scale(1 1) rotate(0) translate(4 156)">
<polygon fill="white" stroke="none" points="-4,4 -4,-156 962.08,-156 962.08,4 -4,4"/>
<!-- netgen -->
<g id="node1" class="node">
<title>netgen</title>
<g id="a_node1"><a xlink:href="https://github.com/conda-forge/netgen-feedstock/pull/53" xlink:title="netgen ❎">
<ellipse fill="#31688e" stroke="black" cx="896.88" cy="-98" rx="61.2" ry="18"/>
<text text-anchor="middle" x="896.88" y="-93.33" font-family="Times,serif" font-size="14.00" fill="white">netgen ❎</text>
</a>
</g>
</g>
<!-- smesh -->
<g id="node2" class="node">
<title>smesh</title>
<g id="a_node2"><a xlink:href="https://github.com/conda-forge/smesh-feedstock/pull/98" xlink:title="smesh ❎">
<ellipse fill="#31688e" stroke="black" cx="581.88" cy="-134" rx="58.57" ry="18"/>
<text text-anchor="middle" x="581.88" y="-129.32" font-family="Times,serif" font-size="14.00" fill="white">smesh ❎</text>
</a>
</g>
</g>
<!-- freecad -->
<g id="node3" class="node">
<title>freecad</title>
<g id="a_node3"><a xlink:href="https://github.com/conda-forge/freecad-feedstock" xlink:title="freecad">
<ellipse fill="#fde725" stroke="black" cx="516.88" cy="-62" rx="48.58" ry="18"/>
<text text-anchor="middle" x="516.88" y="-57.33" font-family="Times,serif" font-size="14.00">freecad</text>
</a>
</g>
</g>
<!-- smesh&#45;&gt;freecad -->
<g id="edge1" class="edge">
<title>smesh&#45;&gt;freecad</title>
<path fill="none" stroke="black" d="M566.47,-116.41C558.54,-107.87 548.71,-97.28 539.89,-87.79"/>
<polygon fill="black" stroke="black" points="542.57,-85.53 533.2,-80.58 537.44,-90.29 542.57,-85.53"/>
</g>
<!-- gmsh -->
<g id="node4" class="node">
<title>gmsh</title>
<g id="a_node4"><a xlink:href="https://github.com/conda-forge/gmsh-feedstock/pull/99" xlink:title="gmsh ❎">
<ellipse fill="#31688e" stroke="black" cx="451.88" cy="-134" rx="53.84" ry="18"/>
<text text-anchor="middle" x="451.88" y="-129.32" font-family="Times,serif" font-size="14.00" fill="white">gmsh ❎</text>
</a>
</g>
</g>
<!-- gmsh&#45;&gt;freecad -->
<g id="edge3" class="edge">
<title>gmsh&#45;&gt;freecad</title>
<path fill="none" stroke="black" d="M467.28,-116.41C475.21,-107.87 485.05,-97.28 493.86,-87.79"/>
<polygon fill="black" stroke="black" points="496.31,-90.29 500.55,-80.58 491.18,-85.53 496.31,-90.29"/>
</g>
<!-- ada&#45;cpp -->
<g id="node8" class="node">
<title>ada&#45;cpp</title>
<g id="a_node8"><a xlink:href="https://github.com/conda-forge/ada-cpp-feedstock" xlink:title="ada cpp">
<ellipse fill="#fde725" stroke="black" cx="293.88" cy="-62" rx="50.16" ry="18"/>
<text text-anchor="middle" x="293.88" y="-57.33" font-family="Times,serif" font-size="14.00">ada cpp</text>
</a>
</g>
</g>
<!-- gmsh&#45;&gt;ada&#45;cpp -->
<g id="edge2" class="edge">
<title>gmsh&#45;&gt;ada&#45;cpp</title>
<path fill="none" stroke="black" d="M420.28,-119C395.72,-108.12 361.44,-92.94 334.78,-81.12"/>
<polygon fill="black" stroke="black" points="336.55,-78.08 325.99,-77.23 333.72,-84.48 336.55,-78.08"/>
</g>
<!-- ifcopenshell -->
<g id="node5" class="node">
<title>ifcopenshell</title>
<g id="a_node5"><a xlink:href="https://github.com/conda-forge/ifcopenshell-feedstock/pull/70" xlink:title="ifcopenshell ❎">
<ellipse fill="#31688e" stroke="black" cx="293.88" cy="-134" rx="86.46" ry="18"/>
<text text-anchor="middle" x="293.88" y="-129.32" font-family="Times,serif" font-size="14.00" fill="white">ifcopenshell ❎</text>
</a>
</g>
</g>
<!-- ifcopenshell&#45;&gt;ada&#45;cpp -->
<g id="edge4" class="edge">
<title>ifcopenshell&#45;&gt;ada&#45;cpp</title>
<path fill="none" stroke="black" d="M293.88,-115.7C293.88,-108.41 293.88,-99.73 293.88,-91.54"/>
<polygon fill="black" stroke="black" points="297.38,-91.62 293.88,-81.62 290.38,-91.62 297.38,-91.62"/>
</g>
<!-- pythonocc&#45;core -->
<g id="node6" class="node">
<title>pythonocc&#45;core</title>
<g id="a_node6"><a xlink:href="https://github.com/conda-forge/pythonocc-core-feedstock/pull/40" xlink:title="pythonocc core ✓">
<ellipse fill="#31688e" stroke="black" cx="94.88" cy="-134" rx="94.88" ry="18"/>
<text text-anchor="middle" x="94.88" y="-129.32" font-family="Times,serif" font-size="14.00" fill="white">pythonocc core ✓</text>
</a>
</g>
</g>
<!-- pythonocc&#45;core&#45;&gt;ada&#45;cpp -->
<g id="edge5" class="edge">
<title>pythonocc&#45;core&#45;&gt;ada&#45;cpp</title>
<path fill="none" stroke="black" d="M138.55,-117.64C171.03,-106.21 215.25,-90.66 248.2,-79.07"/>
<polygon fill="black" stroke="black" points="249.21,-82.42 257.48,-75.8 246.89,-75.82 249.21,-82.42"/>
</g>
<!-- ocp -->
<g id="node7" class="node">
<title>ocp</title>
<g id="a_node7"><a xlink:href="https://github.com/conda-forge/ocp-feedstock/pull/63" xlink:title="ocp ❎">
<ellipse fill="#31688e" stroke="black" cx="319.88" cy="-18" rx="43.84" ry="18"/>
<text text-anchor="middle" x="319.88" y="-13.32" font-family="Times,serif" font-size="14.00" fill="white">ocp ❎</text>
</a>
</g>
</g>
<!-- topologic&#45;core -->
<g id="node9" class="node">
<title>topologic&#45;core</title>
<g id="a_node9"><a xlink:href="https://github.com/conda-forge/topologic-core-feedstock/pull/6" xlink:title="topologic core ✓">
<ellipse fill="#31688e" stroke="black" cx="737.88" cy="-98" rx="89.61" ry="18"/>
<text text-anchor="middle" x="737.88" y="-93.33" font-family="Times,serif" font-size="14.00" fill="white">topologic core ✓</text>
</a>
</g>
</g>
</g>
</svg>
