<?xml version="1.0" encoding="UTF-8" standalone="no"?>
<!DOCTYPE svg PUBLIC "-//W3C//DTD SVG 1.1//EN"
 "http://www.w3.org/Graphics/SVG/1.1/DTD/svg11.dtd">
<!-- Generated by graphviz version 12.0.0 (20240803.0821)
 -->
<!-- Pages: 1 -->
<svg width="492pt" height="276pt"
 viewBox="0.00 0.00 492.24 276.00" xmlns="http://www.w3.org/2000/svg" xmlns:xlink="http://www.w3.org/1999/xlink">
<g id="graph0" class="graph" transform="scale(1 1) rotate(0) translate(4 272)">
<polygon fill="white" stroke="none" points="-4,4 -4,-272 488.24,-272 488.24,4 -4,4"/>
<!-- freeimage -->
<g id="node1" class="node">
<title>freeimage</title>
<g id="a_node1"><a xlink:href="https://github.com/conda-forge/freeimage-feedstock/pull/52" xlink:title="freeimage ✓">
<ellipse fill="#31688e" stroke="black" cx="227.39" cy="-214" rx="69.62" ry="18"/>
<text text-anchor="middle" x="227.39" y="-209.32" font-family="Times,serif" font-size="14.00" fill="white">freeimage ✓</text>
</a>
</g>
</g>
<!-- ogre -->
<g id="node5" class="node">
<title>ogre</title>
<g id="a_node5"><a xlink:href="https://github.com/conda-forge/ogre-feedstock" xlink:title="ogre">
<ellipse fill="#fde725" stroke="black" cx="227.39" cy="-142" rx="33.85" ry="18"/>
<text text-anchor="middle" x="227.39" y="-137.32" font-family="Times,serif" font-size="14.00">ogre</text>
</a>
</g>
</g>
<!-- freeimage&#45;&gt;ogre -->
<g id="edge1" class="edge">
<title>freeimage&#45;&gt;ogre</title>
<path fill="none" stroke="black" d="M227.39,-195.7C227.39,-188.41 227.39,-179.73 227.39,-171.54"/>
<polygon fill="black" stroke="black" points="230.89,-171.62 227.39,-161.62 223.89,-171.62 230.89,-171.62"/>
</g>
<!-- opencv -->
<g id="node2" class="node">
<title>opencv</title>
<g id="a_node2"><a xlink:href="https://github.com/conda-forge/opencv-feedstock" xlink:title="opencv">
<ellipse fill="#35b779" stroke="black" cx="74.88" cy="-18" rx="46.47" ry="18"/>
<text text-anchor="middle" x="74.88" y="-13.32" font-family="Times,serif" font-size="14.00">opencv</text>
</a>
</g>
</g>
<!-- vigra -->
<g id="node3" class="node">
<title>vigra</title>
<g id="a_node3"><a xlink:href="https://github.com/conda-forge/vigra-feedstock" xlink:title="vigra">
<ellipse fill="#35b779" stroke="black" cx="100.17" cy="-250" rx="37" ry="18"/>
<text text-anchor="middle" x="100.17" y="-245.32" font-family="Times,serif" font-size="14.00">vigra</text>
</a>
</g>
</g>
<!-- enblend -->
<g id="node6" class="node">
<title>enblend</title>
<g id="a_node6"><a xlink:href="https://github.com/conda-forge/enblend-feedstock" xlink:title="enblend">
<ellipse fill="#fde725" stroke="black" cx="61.17" cy="-178" rx="51.21" ry="18"/>
<text text-anchor="middle" x="61.17" y="-173.32" font-family="Times,serif" font-size="14.00">enblend</text>
</a>
</g>
</g>
<!-- vigra&#45;&gt;enblend -->
<g id="edge2" class="edge">
<title>vigra&#45;&gt;enblend</title>
<path fill="none" stroke="black" d="M90.93,-232.41C86.52,-224.51 81.14,-214.85 76.18,-205.94"/>
<polygon fill="black" stroke="black" points="79.28,-204.31 71.35,-197.28 73.16,-207.72 79.28,-204.31"/>
</g>
<!-- hugin -->
<g id="node7" class="node">
<title>hugin</title>
<g id="a_node7"><a xlink:href="https://github.com/conda-forge/hugin-feedstock" xlink:title="hugin">
<ellipse fill="#fde725" stroke="black" cx="100.17" cy="-106" rx="39.63" ry="18"/>
<text text-anchor="middle" x="100.17" y="-101.33" font-family="Times,serif" font-size="14.00">hugin</text>
</a>
</g>
</g>
<!-- vigra&#45;&gt;hugin -->
<g id="edge3" class="edge">
<title>vigra&#45;&gt;hugin</title>
<path fill="none" stroke="black" d="M108.67,-232.31C113.38,-222.11 118.76,-208.64 121.17,-196 124.17,-180.28 124.17,-175.72 121.17,-160 119.51,-151.31 116.45,-142.23 113.17,-134.09"/>
<polygon fill="black" stroke="black" points="116.46,-132.87 109.27,-125.08 110.03,-135.65 116.46,-132.87"/>
</g>
<!-- openimageio -->
<g id="node4" class="node">
<title>openimageio</title>
<g id="a_node4"><a xlink:href="https://github.com/conda-forge/openimageio-feedstock" xlink:title="openimageio">
<ellipse fill="#35b779" stroke="black" cx="74.88" cy="-62" rx="74.88" ry="18"/>
<text text-anchor="middle" x="74.88" y="-57.33" font-family="Times,serif" font-size="14.00">openimageio</text>
</a>
</g>
</g>
<!-- enblend&#45;&gt;hugin -->
<g id="edge4" class="edge">
<title>enblend&#45;&gt;hugin</title>
<path fill="none" stroke="black" d="M70.61,-160.05C75.02,-152.14 80.37,-142.54 85.3,-133.69"/>
<polygon fill="black" stroke="black" points="88.27,-135.55 90.08,-125.11 82.16,-132.14 88.27,-135.55"/>
</g>
<!-- openexr&#45;python -->
<g id="node8" class="node">
<title>openexr&#45;python</title>
<g id="a_node8"><a xlink:href="https://github.com/conda-forge/openexr-python-feedstock" xlink:title="openexr python">
<ellipse fill="#35b779" stroke="black" cx="394.62" cy="-178" rx="89.61" ry="18"/>
<text text-anchor="middle" x="394.62" y="-173.32" font-family="Times,serif" font-size="14.00">openexr python</text>
</a>
</g>
</g>
<!-- panda3d -->
<g id="node9" class="node">
<title>panda3d</title>
<g id="a_node9"><a xlink:href="https://github.com/conda-forge/panda3d-feedstock" xlink:title="panda3d">
<ellipse fill="#35b779" stroke="black" cx="394.62" cy="-62" rx="54.36" ry="18"/>
<text text-anchor="middle" x="394.62" y="-57.33" font-family="Times,serif" font-size="14.00">panda3d</text>
</a>
</g>
</g>
<!-- libjxl&#45;split -->
<g id="node10" class="node">
<title>libjxl&#45;split</title>
<g id="a_node10"><a xlink:href="https://github.com/conda-forge/libjxl-split-feedstock/pull/32" xlink:title="libjxl split ✓">
<ellipse fill="#31688e" stroke="black" cx="227.39" cy="-62" rx="69.1" ry="18"/>
<text text-anchor="middle" x="227.39" y="-57.33" font-family="Times,serif" font-size="14.00" fill="white">libjxl split ✓</text>
</a>
</g>
</g>
</g>
</svg>
