<?xml version="1.0" encoding="UTF-8" standalone="no"?>
<!DOCTYPE svg PUBLIC "-//W3C//DTD SVG 1.1//EN"
 "http://www.w3.org/Graphics/SVG/1.1/DTD/svg11.dtd">
<!-- Generated by graphviz version 13.1.2 (20250809.0930)
 -->
<!-- Pages: 1 -->
<svg width="540pt" height="232pt"
 viewBox="0.00 0.00 540.00 232.00" xmlns="http://www.w3.org/2000/svg" xmlns:xlink="http://www.w3.org/1999/xlink">
<g id="graph0" class="graph" transform="scale(1 1) rotate(0) translate(4 228)">
<polygon fill="white" stroke="none" points="-4,4 -4,-228 536.33,-228 536.33,4 -4,4"/>
<!-- freeimage -->
<g id="node1" class="node">
<title>freeimage</title>
<g id="a_node1"><a xlink:href="https://github.com/conda-forge/freeimage-feedstock/pull/54" xlink:title="freeimage ❎">
<ellipse fill="#31688e" stroke="black" cx="294.87" cy="-170" rx="76.99" ry="18"/>
<text xml:space="preserve" text-anchor="middle" x="294.87" y="-165.33" font-family="Times,serif" font-size="14.00" fill="white">freeimage ❎</text>
</a>
</g>
</g>
<!-- ogre -->
<g id="node5" class="node">
<title>ogre</title>
<g id="a_node5"><a xlink:href="https://github.com/conda-forge/ogre-feedstock" xlink:title="ogre">
<ellipse fill="#fde725" stroke="black" cx="294.87" cy="-98" rx="33.85" ry="18"/>
<text xml:space="preserve" text-anchor="middle" x="294.87" y="-93.33" font-family="Times,serif" font-size="14.00">ogre</text>
</a>
</g>
</g>
<!-- freeimage&#45;&gt;ogre -->
<g id="edge1" class="edge">
<title>freeimage&#45;&gt;ogre</title>
<path fill="none" stroke="black" d="M294.87,-151.7C294.87,-144.41 294.87,-135.73 294.87,-127.54"/>
<polygon fill="black" stroke="black" points="298.37,-127.62 294.87,-117.62 291.37,-127.62 298.37,-127.62"/>
</g>
<!-- opencv -->
<g id="node2" class="node">
<title>opencv</title>
<g id="a_node2"><a xlink:href="https://github.com/conda-forge/opencv-feedstock" xlink:title="opencv">
<ellipse fill="#fde725" stroke="black" cx="455.87" cy="-98" rx="46.47" ry="18"/>
<text xml:space="preserve" text-anchor="middle" x="455.87" y="-93.33" font-family="Times,serif" font-size="14.00">opencv</text>
</a>
</g>
</g>
<!-- vigra -->
<g id="node3" class="node">
<title>vigra</title>
<g id="a_node3"><a xlink:href="https://github.com/conda-forge/vigra-feedstock/pull/153" xlink:title="vigra ❎">
<ellipse fill="#31688e" stroke="black" cx="123.87" cy="-206" rx="52.26" ry="18"/>
<text xml:space="preserve" text-anchor="middle" x="123.87" y="-201.32" font-family="Times,serif" font-size="14.00" fill="white">vigra ❎</text>
</a>
</g>
</g>
<!-- enblend -->
<g id="node6" class="node">
<title>enblend</title>
<g id="a_node6"><a xlink:href="https://github.com/conda-forge/enblend-feedstock" xlink:title="enblend">
<ellipse fill="#fde725" stroke="black" cx="84.87" cy="-134" rx="51.21" ry="18"/>
<text xml:space="preserve" text-anchor="middle" x="84.87" y="-129.32" font-family="Times,serif" font-size="14.00">enblend</text>
</a>
</g>
</g>
<!-- vigra&#45;&gt;enblend -->
<g id="edge2" class="edge">
<title>vigra&#45;&gt;enblend</title>
<path fill="none" stroke="black" d="M114.43,-188.05C110.02,-180.14 104.67,-170.54 99.74,-161.69"/>
<polygon fill="black" stroke="black" points="102.89,-160.14 94.96,-153.11 96.77,-163.55 102.89,-160.14"/>
</g>
<!-- hugin -->
<g id="node7" class="node">
<title>hugin</title>
<g id="a_node7"><a xlink:href="https://github.com/conda-forge/hugin-feedstock" xlink:title="hugin">
<ellipse fill="#fde725" stroke="black" cx="123.87" cy="-62" rx="39.63" ry="18"/>
<text xml:space="preserve" text-anchor="middle" x="123.87" y="-57.33" font-family="Times,serif" font-size="14.00">hugin</text>
</a>
</g>
</g>
<!-- vigra&#45;&gt;hugin -->
<g id="edge3" class="edge">
<title>vigra&#45;&gt;hugin</title>
<path fill="none" stroke="black" d="M132.59,-187.83C137.25,-177.69 142.5,-164.44 144.87,-152 147.87,-136.28 147.87,-131.72 144.87,-116 143.21,-107.31 140.15,-98.23 136.87,-90.09"/>
<polygon fill="black" stroke="black" points="140.16,-88.87 132.97,-81.08 133.73,-91.65 140.16,-88.87"/>
</g>
<!-- openimageio -->
<g id="node4" class="node">
<title>openimageio</title>
<g id="a_node4"><a xlink:href="https://github.com/conda-forge/openimageio-feedstock" xlink:title="openimageio">
<ellipse fill="#35b779" stroke="black" cx="294.87" cy="-18" rx="74.88" ry="18"/>
<text xml:space="preserve" text-anchor="middle" x="294.87" y="-13.32" font-family="Times,serif" font-size="14.00">openimageio</text>
</a>
</g>
</g>
<!-- enblend&#45;&gt;hugin -->
<g id="edge4" class="edge">
<title>enblend&#45;&gt;hugin</title>
<path fill="none" stroke="black" d="M94.31,-116.05C98.72,-108.14 104.07,-98.54 109,-89.69"/>
<polygon fill="black" stroke="black" points="111.97,-91.55 113.78,-81.11 105.86,-88.14 111.97,-91.55"/>
</g>
<!-- openexr&#45;python -->
<g id="node8" class="node">
<title>openexr&#45;python</title>
<g id="a_node8"><a xlink:href="https://github.com/conda-forge/openexr-python-feedstock/pull/23" xlink:title="openexr python ❎">
<ellipse fill="#31688e" stroke="black" cx="104.87" cy="-18" rx="104.87" ry="18"/>
<text xml:space="preserve" text-anchor="middle" x="104.87" y="-13.32" font-family="Times,serif" font-size="14.00" fill="white">openexr python ❎</text>
</a>
</g>
</g>
<!-- libjxl&#45;split -->
<g id="node9" class="node">
<title>libjxl&#45;split</title>
<g id="a_node9"><a xlink:href="https://github.com/conda-forge/libjxl-split-feedstock/pull/38" xlink:title="libjxl split ❎">
<ellipse fill="#31688e" stroke="black" cx="455.87" cy="-170" rx="76.46" ry="18"/>
<text xml:space="preserve" text-anchor="middle" x="455.87" y="-165.33" font-family="Times,serif" font-size="14.00" fill="white">libjxl split ❎</text>
</a>
</g>
</g>
<!-- libjxl&#45;split&#45;&gt;opencv -->
<g id="edge5" class="edge">
<title>libjxl&#45;split&#45;&gt;opencv</title>
<path fill="none" stroke="black" d="M455.87,-151.7C455.87,-144.41 455.87,-135.73 455.87,-127.54"/>
<polygon fill="black" stroke="black" points="459.37,-127.62 455.87,-117.62 452.37,-127.62 459.37,-127.62"/>
</g>
<!-- vsgxchange -->
<g id="node10" class="node">
<title>vsgxchange</title>
<g id="a_node10"><a xlink:href="https://github.com/conda-forge/vsgxchange-feedstock" xlink:title="vsgxchange">
<ellipse fill="#35b779" stroke="black" cx="455.87" cy="-18" rx="70.15" ry="18"/>
<text xml:space="preserve" text-anchor="middle" x="455.87" y="-13.32" font-family="Times,serif" font-size="14.00">vsgxchange</text>
</a>
</g>
</g>
</g>
</svg>
