<?xml version="1.0" encoding="UTF-8" standalone="no"?>
<!DOCTYPE svg PUBLIC "-//W3C//DTD SVG 1.1//EN"
 "http://www.w3.org/Graphics/SVG/1.1/DTD/svg11.dtd">
<!-- Generated by graphviz version 13.1.2 (20250809.0930)
 -->
<!-- Pages: 1 -->
<svg width="510pt" height="232pt"
 viewBox="0.00 0.00 510.00 232.00" xmlns="http://www.w3.org/2000/svg" xmlns:xlink="http://www.w3.org/1999/xlink">
<g id="graph0" class="graph" transform="scale(1 1) rotate(0) translate(4 228)">
<polygon fill="white" stroke="none" points="-4,4 -4,-228 506.08,-228 506.08,4 -4,4"/>
<!-- freeimage -->
<g id="node1" class="node">
<title>freeimage</title>
<g id="a_node1"><a xlink:href="https://github.com/conda-forge/freeimage-feedstock/pull/54" xlink:title="freeimage ❎">
<ellipse fill="#31688e" stroke="black" cx="263.61" cy="-170" rx="76.99" ry="18"/>
<text xml:space="preserve" text-anchor="middle" x="263.61" y="-165.33" font-family="Times,serif" font-size="14.00" fill="white">freeimage ❎</text>
</a>
</g>
</g>
<!-- ogre -->
<g id="node5" class="node">
<title>ogre</title>
<g id="a_node5"><a xlink:href="https://github.com/conda-forge/ogre-feedstock" xlink:title="ogre">
<ellipse fill="#fde725" stroke="black" cx="263.61" cy="-98" rx="33.85" ry="18"/>
<text xml:space="preserve" text-anchor="middle" x="263.61" y="-93.33" font-family="Times,serif" font-size="14.00">ogre</text>
</a>
</g>
</g>
<!-- freeimage&#45;&gt;ogre -->
<g id="edge1" class="edge">
<title>freeimage&#45;&gt;ogre</title>
<path fill="none" stroke="black" d="M263.61,-151.7C263.61,-144.41 263.61,-135.73 263.61,-127.54"/>
<polygon fill="black" stroke="black" points="267.11,-127.62 263.61,-117.62 260.11,-127.62 267.11,-127.62"/>
</g>
<!-- opencv -->
<g id="node2" class="node">
<title>opencv</title>
<g id="a_node2"><a xlink:href="https://github.com/conda-forge/opencv-feedstock" xlink:title="opencv">
<ellipse fill="#fde725" stroke="black" cx="425.61" cy="-98" rx="46.47" ry="18"/>
<text xml:space="preserve" text-anchor="middle" x="425.61" y="-93.33" font-family="Times,serif" font-size="14.00">opencv</text>
</a>
</g>
</g>
<!-- vigra -->
<g id="node3" class="node">
<title>vigra</title>
<g id="a_node3"><a xlink:href="https://github.com/conda-forge/vigra-feedstock" xlink:title="vigra">
<ellipse fill="#35b779" stroke="black" cx="114.61" cy="-206" rx="37" ry="18"/>
<text xml:space="preserve" text-anchor="middle" x="114.61" y="-201.32" font-family="Times,serif" font-size="14.00">vigra</text>
</a>
</g>
</g>
<!-- enblend -->
<g id="node6" class="node">
<title>enblend</title>
<g id="a_node6"><a xlink:href="https://github.com/conda-forge/enblend-feedstock" xlink:title="enblend">
<ellipse fill="#fde725" stroke="black" cx="75.61" cy="-134" rx="51.21" ry="18"/>
<text xml:space="preserve" text-anchor="middle" x="75.61" y="-129.32" font-family="Times,serif" font-size="14.00">enblend</text>
</a>
</g>
</g>
<!-- vigra&#45;&gt;enblend -->
<g id="edge2" class="edge">
<title>vigra&#45;&gt;enblend</title>
<path fill="none" stroke="black" d="M105.37,-188.41C100.97,-180.51 95.59,-170.85 90.62,-161.94"/>
<polygon fill="black" stroke="black" points="93.72,-160.31 85.8,-153.28 87.61,-163.72 93.72,-160.31"/>
</g>
<!-- hugin -->
<g id="node7" class="node">
<title>hugin</title>
<g id="a_node7"><a xlink:href="https://github.com/conda-forge/hugin-feedstock" xlink:title="hugin">
<ellipse fill="#fde725" stroke="black" cx="114.61" cy="-62" rx="39.63" ry="18"/>
<text xml:space="preserve" text-anchor="middle" x="114.61" y="-57.33" font-family="Times,serif" font-size="14.00">hugin</text>
</a>
</g>
</g>
<!-- vigra&#45;&gt;hugin -->
<g id="edge3" class="edge">
<title>vigra&#45;&gt;hugin</title>
<path fill="none" stroke="black" d="M123.11,-188.31C127.82,-178.11 133.2,-164.64 135.61,-152 138.61,-136.28 138.61,-131.72 135.61,-116 133.96,-107.31 130.9,-98.23 127.61,-90.09"/>
<polygon fill="black" stroke="black" points="130.9,-88.87 123.72,-81.08 124.48,-91.65 130.9,-88.87"/>
</g>
<!-- openimageio -->
<g id="node4" class="node">
<title>openimageio</title>
<g id="a_node4"><a xlink:href="https://github.com/conda-forge/openimageio-feedstock" xlink:title="openimageio">
<ellipse fill="#35b779" stroke="black" cx="263.61" cy="-18" rx="74.88" ry="18"/>
<text xml:space="preserve" text-anchor="middle" x="263.61" y="-13.32" font-family="Times,serif" font-size="14.00">openimageio</text>
</a>
</g>
</g>
<!-- enblend&#45;&gt;hugin -->
<g id="edge4" class="edge">
<title>enblend&#45;&gt;hugin</title>
<path fill="none" stroke="black" d="M85.05,-116.05C89.46,-108.14 94.81,-98.54 99.75,-89.69"/>
<polygon fill="black" stroke="black" points="102.71,-91.55 104.52,-81.11 96.6,-88.14 102.71,-91.55"/>
</g>
<!-- openexr&#45;python -->
<g id="node8" class="node">
<title>openexr&#45;python</title>
<g id="a_node8"><a xlink:href="https://github.com/conda-forge/openexr-python-feedstock" xlink:title="openexr python">
<ellipse fill="#35b779" stroke="black" cx="89.61" cy="-18" rx="89.61" ry="18"/>
<text xml:space="preserve" text-anchor="middle" x="89.61" y="-13.32" font-family="Times,serif" font-size="14.00">openexr python</text>
</a>
</g>
</g>
<!-- libjxl&#45;split -->
<g id="node9" class="node">
<title>libjxl&#45;split</title>
<g id="a_node9"><a xlink:href="https://github.com/conda-forge/libjxl-split-feedstock/pull/38" xlink:title="libjxl split ❎">
<ellipse fill="#31688e" stroke="black" cx="425.61" cy="-170" rx="76.46" ry="18"/>
<text xml:space="preserve" text-anchor="middle" x="425.61" y="-165.33" font-family="Times,serif" font-size="14.00" fill="white">libjxl split ❎</text>
</a>
</g>
</g>
<!-- libjxl&#45;split&#45;&gt;opencv -->
<g id="edge5" class="edge">
<title>libjxl&#45;split&#45;&gt;opencv</title>
<path fill="none" stroke="black" d="M425.61,-151.7C425.61,-144.41 425.61,-135.73 425.61,-127.54"/>
<polygon fill="black" stroke="black" points="429.11,-127.62 425.61,-117.62 422.11,-127.62 429.11,-127.62"/>
</g>
<!-- vsgxchange -->
<g id="node10" class="node">
<title>vsgxchange</title>
<g id="a_node10"><a xlink:href="https://github.com/conda-forge/vsgxchange-feedstock" xlink:title="vsgxchange">
<ellipse fill="#35b779" stroke="black" cx="425.61" cy="-18" rx="70.15" ry="18"/>
<text xml:space="preserve" text-anchor="middle" x="425.61" y="-13.32" font-family="Times,serif" font-size="14.00">vsgxchange</text>
</a>
</g>
</g>
</g>
</svg>
