<?xml version="1.0" encoding="UTF-8" standalone="no"?>
<!DOCTYPE svg PUBLIC "-//W3C//DTD SVG 1.1//EN"
 "http://www.w3.org/Graphics/SVG/1.1/DTD/svg11.dtd">
<!-- Generated by graphviz version 12.0.0 (20240803.0821)
 -->
<!-- Pages: 1 -->
<svg width="509pt" height="188pt"
 viewBox="0.00 0.00 508.76 188.00" xmlns="http://www.w3.org/2000/svg" xmlns:xlink="http://www.w3.org/1999/xlink">
<g id="graph0" class="graph" transform="scale(1 1) rotate(0) translate(4 184)">
<polygon fill="white" stroke="none" points="-4,4 -4,-184 504.76,-184 504.76,4 -4,4"/>
<!-- cypari2 -->
<g id="node1" class="node">
<title>cypari2</title>
<g id="a_node1"><a xlink:href="https://github.com/conda-forge/cypari2-feedstock/pull/55" xlink:title="cypari2 ✓">
<ellipse fill="#31688e" stroke="black" cx="276" cy="-162" rx="56.47" ry="18"/>
<text text-anchor="middle" x="276" y="-157.32" font-family="Times,serif" font-size="14.00" fill="white">cypari2 ✓</text>
</a>
</g>
</g>
<!-- sagelib -->
<g id="node4" class="node">
<title>sagelib</title>
<g id="a_node4"><a xlink:href="https://github.com/conda-forge/sagelib-feedstock" xlink:title="sagelib">
<ellipse fill="#fde725" stroke="black" cx="157" cy="-90" rx="47" ry="18"/>
<text text-anchor="middle" x="157" y="-85.33" font-family="Times,serif" font-size="14.00">sagelib</text>
</a>
</g>
</g>
<!-- cypari2&#45;&gt;sagelib -->
<g id="edge1" class="edge">
<title>cypari2&#45;&gt;sagelib</title>
<path fill="none" stroke="black" d="M249.88,-145.64C232.8,-135.59 210.28,-122.34 191.69,-111.41"/>
<polygon fill="black" stroke="black" points="193.53,-108.43 183.14,-106.38 189.98,-114.46 193.53,-108.43"/>
</g>
<!-- gap -->
<g id="node2" class="node">
<title>gap</title>
<g id="a_node2"><a xlink:href="https://github.com/conda-forge/gap-feedstock/pull/90" xlink:title="gap ❎">
<ellipse fill="#31688e" stroke="black" cx="157" cy="-162" rx="44.89" ry="18"/>
<text text-anchor="middle" x="157" y="-157.32" font-family="Times,serif" font-size="14.00" fill="white">gap ❎</text>
</a>
</g>
</g>
<!-- gap&#45;&gt;sagelib -->
<g id="edge2" class="edge">
<title>gap&#45;&gt;sagelib</title>
<path fill="none" stroke="black" d="M157,-143.7C157,-136.41 157,-127.73 157,-119.54"/>
<polygon fill="black" stroke="black" points="160.5,-119.62 157,-109.62 153.5,-119.62 160.5,-119.62"/>
</g>
<!-- giac -->
<g id="node3" class="node">
<title>giac</title>
<g id="a_node3"><a xlink:href="https://github.com/conda-forge/giac-feedstock/pull/33" xlink:title="giac ❎">
<ellipse fill="#31688e" stroke="black" cx="47" cy="-162" rx="47" ry="18"/>
<text text-anchor="middle" x="47" y="-157.32" font-family="Times,serif" font-size="14.00" fill="white">giac ❎</text>
</a>
</g>
</g>
<!-- giac&#45;&gt;sagelib -->
<g id="edge3" class="edge">
<title>giac&#45;&gt;sagelib</title>
<path fill="none" stroke="black" d="M70.6,-145.98C86.11,-136.11 106.64,-123.05 123.79,-112.13"/>
<polygon fill="black" stroke="black" points="125.61,-115.13 132.16,-106.8 121.85,-109.22 125.61,-115.13"/>
</g>
<!-- surface&#45;dynamics -->
<g id="node5" class="node">
<title>surface&#45;dynamics</title>
<g id="a_node5"><a xlink:href="https://github.com/conda-forge/surface-dynamics-feedstock" xlink:title="surface dynamics">
<ellipse fill="#fde725" stroke="black" cx="157" cy="-18" rx="98.56" ry="18"/>
<text text-anchor="middle" x="157" y="-13.32" font-family="Times,serif" font-size="14.00">surface dynamics</text>
</a>
</g>
</g>
<!-- sagelib&#45;&gt;surface&#45;dynamics -->
<g id="edge4" class="edge">
<title>sagelib&#45;&gt;surface&#45;dynamics</title>
<path fill="none" stroke="black" d="M157,-71.7C157,-64.41 157,-55.73 157,-47.54"/>
<polygon fill="black" stroke="black" points="160.5,-47.62 157,-37.62 153.5,-47.62 160.5,-47.62"/>
</g>
<!-- pari_jupyter -->
<g id="node6" class="node">
<title>pari_jupyter</title>
<g id="a_node6"><a xlink:href="https://github.com/conda-forge/pari_jupyter-feedstock/pull/22" xlink:title="pari_jupyter ✓">
<ellipse fill="#31688e" stroke="black" cx="420.61" cy="-90" rx="80.14" ry="18"/>
<text text-anchor="middle" x="420.61" y="-85.33" font-family="Times,serif" font-size="14.00" fill="white">pari_jupyter ✓</text>
</a>
</g>
</g>
</g>
</svg>
