<?xml version="1.0" encoding="UTF-8" standalone="no"?>
<!DOCTYPE svg PUBLIC "-//W3C//DTD SVG 1.1//EN"
 "http://www.w3.org/Graphics/SVG/1.1/DTD/svg11.dtd">
<!-- Generated by graphviz version 12.0.0 (20240803.0821)
 -->
<!-- Pages: 1 -->
<svg width="741pt" height="188pt"
 viewBox="0.00 0.00 741.06 188.00" xmlns="http://www.w3.org/2000/svg" xmlns:xlink="http://www.w3.org/1999/xlink">
<g id="graph0" class="graph" transform="scale(1 1) rotate(0) translate(4 184)">
<polygon fill="white" stroke="none" points="-4,4 -4,-184 737.06,-184 737.06,4 -4,4"/>
<!-- cypari2 -->
<g id="node1" class="node">
<title>cypari2</title>
<g id="a_node1"><a xlink:href="https://github.com/conda-forge/cypari2-feedstock/pull/55" xlink:title="cypari2 ✓">
<ellipse fill="#31688e" stroke="black" cx="380" cy="-162" rx="56.47" ry="18"/>
<text text-anchor="middle" x="380" y="-157.32" font-family="Times,serif" font-size="14.00" fill="white">cypari2 ✓</text>
</a>
</g>
</g>
<!-- sagelib -->
<g id="node5" class="node">
<title>sagelib</title>
<g id="a_node5"><a xlink:href="https://github.com/conda-forge/sagelib-feedstock" xlink:title="sagelib">
<ellipse fill="#fde725" stroke="black" cx="210" cy="-90" rx="47" ry="18"/>
<text text-anchor="middle" x="210" y="-85.33" font-family="Times,serif" font-size="14.00">sagelib</text>
</a>
</g>
</g>
<!-- cypari2&#45;&gt;sagelib -->
<g id="edge1" class="edge">
<title>cypari2&#45;&gt;sagelib</title>
<path fill="none" stroke="black" d="M346.41,-147.17C319.18,-135.96 280.67,-120.1 251.51,-108.09"/>
<polygon fill="black" stroke="black" points="253.2,-105 242.62,-104.43 250.54,-111.48 253.2,-105"/>
</g>
<!-- eclib -->
<g id="node2" class="node">
<title>eclib</title>
<g id="a_node2"><a xlink:href="https://github.com/conda-forge/eclib-feedstock/pull/49" xlink:title="eclib ✓">
<ellipse fill="#31688e" stroke="black" cx="263" cy="-162" rx="42.79" ry="18"/>
<text text-anchor="middle" x="263" y="-157.32" font-family="Times,serif" font-size="14.00" fill="white">eclib ✓</text>
</a>
</g>
</g>
<!-- eclib&#45;&gt;sagelib -->
<g id="edge2" class="edge">
<title>eclib&#45;&gt;sagelib</title>
<path fill="none" stroke="black" d="M250.44,-144.41C244.1,-136.04 236.28,-125.71 229.21,-116.37"/>
<polygon fill="black" stroke="black" points="232.21,-114.54 223.38,-108.68 226.63,-118.76 232.21,-114.54"/>
</g>
<!-- gap -->
<g id="node3" class="node">
<title>gap</title>
<g id="a_node3"><a xlink:href="https://github.com/conda-forge/gap-feedstock/pull/90" xlink:title="gap ❎">
<ellipse fill="#31688e" stroke="black" cx="157" cy="-162" rx="44.89" ry="18"/>
<text text-anchor="middle" x="157" y="-157.32" font-family="Times,serif" font-size="14.00" fill="white">gap ❎</text>
</a>
</g>
</g>
<!-- gap&#45;&gt;sagelib -->
<g id="edge3" class="edge">
<title>gap&#45;&gt;sagelib</title>
<path fill="none" stroke="black" d="M169.56,-144.41C175.9,-136.04 183.72,-125.71 190.79,-116.37"/>
<polygon fill="black" stroke="black" points="193.37,-118.76 196.62,-108.68 187.79,-114.54 193.37,-118.76"/>
</g>
<!-- giac -->
<g id="node4" class="node">
<title>giac</title>
<g id="a_node4"><a xlink:href="https://github.com/conda-forge/giac-feedstock/pull/33" xlink:title="giac ❎">
<ellipse fill="#31688e" stroke="black" cx="47" cy="-162" rx="47" ry="18"/>
<text text-anchor="middle" x="47" y="-157.32" font-family="Times,serif" font-size="14.00" fill="white">giac ❎</text>
</a>
</g>
</g>
<!-- giac&#45;&gt;sagelib -->
<g id="edge4" class="edge">
<title>giac&#45;&gt;sagelib</title>
<path fill="none" stroke="black" d="M77.28,-148C103.16,-136.88 140.62,-120.79 169.15,-108.54"/>
<polygon fill="black" stroke="black" points="170.41,-111.81 178.22,-104.65 167.65,-105.38 170.41,-111.81"/>
</g>
<!-- surface&#45;dynamics -->
<g id="node7" class="node">
<title>surface&#45;dynamics</title>
<g id="a_node7"><a xlink:href="https://github.com/conda-forge/surface-dynamics-feedstock" xlink:title="surface dynamics">
<ellipse fill="#fde725" stroke="black" cx="210" cy="-18" rx="98.56" ry="18"/>
<text text-anchor="middle" x="210" y="-13.32" font-family="Times,serif" font-size="14.00">surface dynamics</text>
</a>
</g>
</g>
<!-- sagelib&#45;&gt;surface&#45;dynamics -->
<g id="edge5" class="edge">
<title>sagelib&#45;&gt;surface&#45;dynamics</title>
<path fill="none" stroke="black" d="M210,-71.7C210,-64.41 210,-55.73 210,-47.54"/>
<polygon fill="black" stroke="black" points="213.5,-47.62 210,-37.62 206.5,-47.62 213.5,-47.62"/>
</g>
<!-- sympow -->
<g id="node6" class="node">
<title>sympow</title>
<g id="a_node6"><a xlink:href="https://github.com/conda-forge/sympow-feedstock/pull/31" xlink:title="sympow ✓">
<ellipse fill="#31688e" stroke="black" cx="672.91" cy="-90" rx="60.15" ry="18"/>
<text text-anchor="middle" x="672.91" y="-85.33" font-family="Times,serif" font-size="14.00" fill="white">sympow ✓</text>
</a>
</g>
</g>
<!-- pari_jupyter -->
<g id="node8" class="node">
<title>pari_jupyter</title>
<g id="a_node8"><a xlink:href="https://github.com/conda-forge/pari_jupyter-feedstock/pull/22" xlink:title="pari_jupyter ✓">
<ellipse fill="#31688e" stroke="black" cx="524.61" cy="-90" rx="80.14" ry="18"/>
<text text-anchor="middle" x="524.61" y="-85.33" font-family="Times,serif" font-size="14.00" fill="white">pari_jupyter ✓</text>
</a>
</g>
</g>
</g>
</svg>
