<?xml version="1.0" encoding="UTF-8" standalone="no"?>
<!DOCTYPE svg PUBLIC "-//W3C//DTD SVG 1.1//EN"
 "http://www.w3.org/Graphics/SVG/1.1/DTD/svg11.dtd">
<!-- Generated by graphviz version 12.0.0 (20240803.0821)
 -->
<!-- Pages: 1 -->
<svg width="205pt" height="188pt"
 viewBox="0.00 0.00 205.12 188.00" xmlns="http://www.w3.org/2000/svg" xmlns:xlink="http://www.w3.org/1999/xlink">
<g id="graph0" class="graph" transform="scale(1 1) rotate(0) translate(4 184)">
<polygon fill="white" stroke="none" points="-4,4 -4,-184 201.12,-184 201.12,4 -4,4"/>
<!-- giac -->
<g id="node1" class="node">
<title>giac</title>
<g id="a_node1"><a xlink:href="https://github.com/conda-forge/giac-feedstock/pull/33" xlink:title="giac ❎">
<ellipse fill="#31688e" stroke="black" cx="98.56" cy="-162" rx="47" ry="18"/>
<text text-anchor="middle" x="98.56" y="-157.32" font-family="Times,serif" font-size="14.00" fill="white">giac ❎</text>
</a>
</g>
</g>
<!-- sagelib -->
<g id="node2" class="node">
<title>sagelib</title>
<g id="a_node2"><a xlink:href="https://github.com/conda-forge/sagelib-feedstock" xlink:title="sagelib">
<ellipse fill="#fde725" stroke="black" cx="98.56" cy="-90" rx="47" ry="18"/>
<text text-anchor="middle" x="98.56" y="-85.33" font-family="Times,serif" font-size="14.00">sagelib</text>
</a>
</g>
</g>
<!-- giac&#45;&gt;sagelib -->
<g id="edge1" class="edge">
<title>giac&#45;&gt;sagelib</title>
<path fill="none" stroke="black" d="M98.56,-143.7C98.56,-136.41 98.56,-127.73 98.56,-119.54"/>
<polygon fill="black" stroke="black" points="102.06,-119.62 98.56,-109.62 95.06,-119.62 102.06,-119.62"/>
</g>
<!-- surface&#45;dynamics -->
<g id="node3" class="node">
<title>surface&#45;dynamics</title>
<g id="a_node3"><a xlink:href="https://github.com/conda-forge/surface-dynamics-feedstock" xlink:title="surface dynamics">
<ellipse fill="#fde725" stroke="black" cx="98.56" cy="-18" rx="98.56" ry="18"/>
<text text-anchor="middle" x="98.56" y="-13.32" font-family="Times,serif" font-size="14.00">surface dynamics</text>
</a>
</g>
</g>
<!-- sagelib&#45;&gt;surface&#45;dynamics -->
<g id="edge2" class="edge">
<title>sagelib&#45;&gt;surface&#45;dynamics</title>
<path fill="none" stroke="black" d="M98.56,-71.7C98.56,-64.41 98.56,-55.73 98.56,-47.54"/>
<polygon fill="black" stroke="black" points="102.06,-47.62 98.56,-37.62 95.06,-47.62 102.06,-47.62"/>
</g>
</g>
</svg>
