<?xml version="1.0" encoding="UTF-8" standalone="no"?>
<!DOCTYPE svg PUBLIC "-//W3C//DTD SVG 1.1//EN"
 "http://www.w3.org/Graphics/SVG/1.1/DTD/svg11.dtd">
<!-- Generated by graphviz version 12.0.0 (20240803.0821)
 -->
<!-- Pages: 1 -->
<svg width="1211pt" height="592pt"
 viewBox="0.00 0.00 1211.12 592.00" xmlns="http://www.w3.org/2000/svg" xmlns:xlink="http://www.w3.org/1999/xlink">
<g id="graph0" class="graph" transform="scale(1 1) rotate(0) translate(4 588)">
<polygon fill="white" stroke="none" points="-4,4 -4,-588 1207.12,-588 1207.12,4 -4,4"/>
<!-- cdo -->
<g id="node1" class="node">
<title>cdo</title>
<g id="a_node1"><a xlink:href="https://github.com/conda-forge/cdo-feedstock" xlink:title="cdo">
<ellipse fill="#fde725" stroke="black" cx="337.28" cy="-18" rx="28.59" ry="18"/>
<text text-anchor="middle" x="337.28" y="-13.32" font-family="Times,serif" font-size="14.00">cdo</text>
</a>
</g>
</g>
<!-- gdal -->
<g id="node2" class="node">
<title>gdal</title>
<g id="a_node2"><a xlink:href="https://github.com/conda-forge/gdal-feedstock" xlink:title="gdal">
<ellipse fill="#fde725" stroke="black" cx="310.94" cy="-494" rx="32.79" ry="18"/>
<text text-anchor="middle" x="310.94" y="-489.32" font-family="Times,serif" font-size="14.00">gdal</text>
</a>
</g>
</g>
<!-- ncl -->
<g id="node3" class="node">
<title>ncl</title>
<g id="a_node3"><a xlink:href="https://github.com/conda-forge/ncl-feedstock" xlink:title="ncl">
<ellipse fill="#fde725" stroke="black" cx="517.94" cy="-422" rx="27" ry="18"/>
<text text-anchor="middle" x="517.94" y="-417.32" font-family="Times,serif" font-size="14.00">ncl</text>
</a>
</g>
</g>
<!-- gdal&#45;&gt;ncl -->
<g id="edge1" class="edge">
<title>gdal&#45;&gt;ncl</title>
<path fill="none" stroke="black" d="M339.38,-484.71C372.63,-474.84 429.21,-457.48 476.94,-440 479.59,-439.03 482.34,-437.98 485.08,-436.91"/>
<polygon fill="black" stroke="black" points="486.15,-440.25 494.11,-433.26 483.53,-433.76 486.15,-440.25"/>
</g>
<!-- postgis -->
<g id="node4" class="node">
<title>postgis</title>
<g id="a_node4"><a xlink:href="https://github.com/conda-forge/postgis-feedstock" xlink:title="postgis">
<ellipse fill="#fde725" stroke="black" cx="77.94" cy="-350" rx="47.53" ry="18"/>
<text text-anchor="middle" x="77.94" y="-345.32" font-family="Times,serif" font-size="14.00">postgis</text>
</a>
</g>
</g>
<!-- gdal&#45;&gt;postgis -->
<g id="edge2" class="edge">
<title>gdal&#45;&gt;postgis</title>
<path fill="none" stroke="black" d="M278.82,-489.4C242.2,-483.94 181.96,-470.73 139.94,-440 118.13,-424.06 101.3,-398.04 90.71,-378.24"/>
<polygon fill="black" stroke="black" points="93.83,-376.65 86.16,-369.33 87.59,-379.83 93.83,-376.65"/>
</g>
<!-- qgis -->
<g id="node5" class="node">
<title>qgis</title>
<g id="a_node5"><a xlink:href="https://github.com/conda-forge/qgis-feedstock" xlink:title="qgis">
<ellipse fill="#fde725" stroke="black" cx="280.94" cy="-134" rx="32.27" ry="18"/>
<text text-anchor="middle" x="280.94" y="-129.32" font-family="Times,serif" font-size="14.00">qgis</text>
</a>
</g>
</g>
<!-- gdal&#45;&gt;qgis -->
<g id="edge3" class="edge">
<title>gdal&#45;&gt;qgis</title>
<path fill="none" stroke="black" d="M337.07,-482.79C380.52,-463.89 462.94,-419.07 462.94,-351 462.94,-351 462.94,-351 462.94,-277 462.94,-205.16 373.71,-164.31 320.2,-146.27"/>
<polygon fill="black" stroke="black" points="321.41,-142.98 310.81,-143.23 319.25,-149.64 321.41,-142.98"/>
</g>
<!-- r&#45;sf -->
<g id="node6" class="node">
<title>r&#45;sf</title>
<g id="a_node6"><a xlink:href="https://github.com/conda-forge/r-sf-feedstock" xlink:title="r sf">
<ellipse fill="#fde725" stroke="black" cx="205.94" cy="-278" rx="28.06" ry="18"/>
<text text-anchor="middle" x="205.94" y="-273.32" font-family="Times,serif" font-size="14.00">r sf</text>
</a>
</g>
</g>
<!-- gdal&#45;&gt;r&#45;sf -->
<g id="edge4" class="edge">
<title>gdal&#45;&gt;r&#45;sf</title>
<path fill="none" stroke="black" d="M283.76,-483.67C264.03,-475.4 238.52,-461.29 224.94,-440 199.07,-399.46 199.27,-341.32 202.26,-307.13"/>
<polygon fill="black" stroke="black" points="205.7,-307.91 203.24,-297.61 198.73,-307.2 205.7,-307.91"/>
</g>
<!-- rasterio -->
<g id="node7" class="node">
<title>rasterio</title>
<g id="a_node7"><a xlink:href="https://github.com/conda-forge/rasterio-feedstock" xlink:title="rasterio">
<ellipse fill="#fde725" stroke="black" cx="332.94" cy="-206" rx="50.68" ry="18"/>
<text text-anchor="middle" x="332.94" y="-201.33" font-family="Times,serif" font-size="14.00">rasterio</text>
</a>
</g>
</g>
<!-- gdal&#45;&gt;rasterio -->
<g id="edge5" class="edge">
<title>gdal&#45;&gt;rasterio</title>
<path fill="none" stroke="black" d="M290.84,-479.34C278.82,-469.88 264.61,-456.11 257.94,-440 239.57,-395.65 245.12,-378.26 257.94,-332 268.43,-294.1 293.81,-256.16 312.15,-232.19"/>
<polygon fill="black" stroke="black" points="314.68,-234.64 318.09,-224.61 309.17,-230.32 314.68,-234.64"/>
</g>
<!-- r&#45;gdalcubes -->
<g id="node8" class="node">
<title>r&#45;gdalcubes</title>
<g id="a_node8"><a xlink:href="https://github.com/conda-forge/r-gdalcubes-feedstock" xlink:title="r gdalcubes">
<ellipse fill="#fde725" stroke="black" cx="604.94" cy="-134" rx="69.62" ry="18"/>
<text text-anchor="middle" x="604.94" y="-129.32" font-family="Times,serif" font-size="14.00">r gdalcubes</text>
</a>
</g>
</g>
<!-- gdal&#45;&gt;r&#45;gdalcubes -->
<g id="edge6" class="edge">
<title>gdal&#45;&gt;r&#45;gdalcubes</title>
<path fill="none" stroke="black" d="M344.22,-493.92C394.47,-493.65 490.56,-486.46 553.94,-440 590.7,-413.05 604.94,-396.59 604.94,-351 604.94,-351 604.94,-351 604.94,-277 604.94,-237.74 604.94,-192.38 604.94,-163.69"/>
<polygon fill="black" stroke="black" points="608.44,-164 604.94,-154 601.44,-164 608.44,-164"/>
</g>
<!-- r&#45;terra -->
<g id="node9" class="node">
<title>r&#45;terra</title>
<g id="a_node9"><a xlink:href="https://github.com/conda-forge/r-terra-feedstock" xlink:title="r terra">
<ellipse fill="#fde725" stroke="black" cx="310.94" cy="-422" rx="44.37" ry="18"/>
<text text-anchor="middle" x="310.94" y="-417.32" font-family="Times,serif" font-size="14.00">r terra</text>
</a>
</g>
</g>
<!-- gdal&#45;&gt;r&#45;terra -->
<g id="edge7" class="edge">
<title>gdal&#45;&gt;r&#45;terra</title>
<path fill="none" stroke="black" d="M310.94,-475.7C310.94,-468.41 310.94,-459.73 310.94,-451.54"/>
<polygon fill="black" stroke="black" points="314.44,-451.62 310.94,-441.62 307.44,-451.62 314.44,-451.62"/>
</g>
<!-- mapserver -->
<g id="node10" class="node">
<title>mapserver</title>
<g id="a_node10"><a xlink:href="https://github.com/conda-forge/mapserver-feedstock" xlink:title="mapserver">
<ellipse fill="#fde725" stroke="black" cx="331.94" cy="-350" rx="64.89" ry="18"/>
<text text-anchor="middle" x="331.94" y="-345.32" font-family="Times,serif" font-size="14.00">mapserver</text>
</a>
</g>
</g>
<!-- gdal&#45;&gt;mapserver -->
<g id="edge8" class="edge">
<title>gdal&#45;&gt;mapserver</title>
<path fill="none" stroke="black" d="M331.03,-479.34C343.05,-469.88 357.26,-456.11 363.94,-440 372.54,-419.23 362.79,-395.23 351.86,-377.38"/>
<polygon fill="black" stroke="black" points="354.86,-375.58 346.43,-369.18 349.03,-379.45 354.86,-375.58"/>
</g>
<!-- pygplates -->
<g id="node11" class="node">
<title>pygplates</title>
<g id="a_node11"><a xlink:href="https://github.com/conda-forge/pygplates-feedstock" xlink:title="pygplates">
<ellipse fill="#fde725" stroke="black" cx="374.94" cy="-278" rx="60.15" ry="18"/>
<text text-anchor="middle" x="374.94" y="-273.32" font-family="Times,serif" font-size="14.00">pygplates</text>
</a>
</g>
</g>
<!-- gdal&#45;&gt;pygplates -->
<g id="edge9" class="edge">
<title>gdal&#45;&gt;pygplates</title>
<path fill="none" stroke="black" d="M332.84,-480.41C347.63,-470.95 366.62,-456.77 378.94,-440 399.17,-412.46 399.84,-401.63 405.94,-368 408.79,-352.26 410.12,-347.44 405.94,-332 403.43,-322.74 398.85,-313.44 393.97,-305.27"/>
<polygon fill="black" stroke="black" points="396.93,-303.41 388.58,-296.9 391.05,-307.2 396.93,-303.41"/>
</g>
<!-- libpdal -->
<g id="node12" class="node">
<title>libpdal</title>
<g id="a_node12"><a xlink:href="https://github.com/conda-forge/libpdal-feedstock" xlink:title="libpdal">
<ellipse fill="#fde725" stroke="black" cx="84.94" cy="-206" rx="45.42" ry="18"/>
<text text-anchor="middle" x="84.94" y="-201.33" font-family="Times,serif" font-size="14.00">libpdal</text>
</a>
</g>
</g>
<!-- gdal&#45;&gt;libpdal -->
<g id="edge10" class="edge">
<title>gdal&#45;&gt;libpdal</title>
<path fill="none" stroke="black" d="M282.43,-484.74C258.98,-476.67 226.26,-462.31 204.94,-440 144.45,-376.71 169.37,-335.43 124.94,-260 119.41,-250.62 112.52,-240.94 106.02,-232.47"/>
<polygon fill="black" stroke="black" points="108.82,-230.37 99.88,-224.68 103.32,-234.7 108.82,-230.37"/>
</g>
<!-- meos -->
<g id="node13" class="node">
<title>meos</title>
<g id="a_node13"><a xlink:href="https://github.com/conda-forge/meos-feedstock" xlink:title="meos">
<ellipse fill="#fde725" stroke="black" cx="77.94" cy="-278" rx="37.53" ry="18"/>
<text text-anchor="middle" x="77.94" y="-273.32" font-family="Times,serif" font-size="14.00">meos</text>
</a>
</g>
</g>
<!-- postgis&#45;&gt;meos -->
<g id="edge11" class="edge">
<title>postgis&#45;&gt;meos</title>
<path fill="none" stroke="black" d="M77.94,-331.7C77.94,-324.41 77.94,-315.73 77.94,-307.54"/>
<polygon fill="black" stroke="black" points="81.44,-307.62 77.94,-297.62 74.44,-307.62 81.44,-307.62"/>
</g>
<!-- r&#45;lwgeom -->
<g id="node14" class="node">
<title>r&#45;lwgeom</title>
<g id="a_node14"><a xlink:href="https://github.com/conda-forge/r-lwgeom-feedstock" xlink:title="r lwgeom">
<ellipse fill="#fde725" stroke="black" cx="205.94" cy="-206" rx="58.05" ry="18"/>
<text text-anchor="middle" x="205.94" y="-201.33" font-family="Times,serif" font-size="14.00">r lwgeom</text>
</a>
</g>
</g>
<!-- r&#45;sf&#45;&gt;r&#45;lwgeom -->
<g id="edge12" class="edge">
<title>r&#45;sf&#45;&gt;r&#45;lwgeom</title>
<path fill="none" stroke="black" d="M205.94,-259.7C205.94,-252.41 205.94,-243.73 205.94,-235.54"/>
<polygon fill="black" stroke="black" points="209.44,-235.62 205.94,-225.62 202.44,-235.62 209.44,-235.62"/>
</g>
<!-- libpdal&#45;&gt;qgis -->
<g id="edge13" class="edge">
<title>libpdal&#45;&gt;qgis</title>
<path fill="none" stroke="black" d="M117.74,-193.28C152.51,-180.87 207.3,-161.3 243.67,-148.31"/>
<polygon fill="black" stroke="black" points="244.66,-151.67 252.9,-145.01 242.3,-145.08 244.66,-151.67"/>
</g>
<!-- libspatialite -->
<g id="node15" class="node">
<title>libspatialite</title>
<g id="a_node15"><a xlink:href="https://github.com/conda-forge/libspatialite-feedstock/pull/112" xlink:title="libspatialite ❎">
<ellipse fill="#31688e" stroke="black" cx="151.94" cy="-566" rx="85.93" ry="18"/>
<text text-anchor="middle" x="151.94" y="-561.33" font-family="Times,serif" font-size="14.00" fill="white">libspatialite ❎</text>
</a>
</g>
</g>
<!-- libspatialite&#45;&gt;gdal -->
<g id="edge14" class="edge">
<title>libspatialite&#45;&gt;gdal</title>
<path fill="none" stroke="black" d="M187.62,-549.29C213.85,-537.74 249.34,-522.12 275.52,-510.59"/>
<polygon fill="black" stroke="black" points="276.63,-513.93 284.37,-506.7 273.81,-507.52 276.63,-513.93"/>
</g>
<!-- libspatialite&#45;&gt;qgis -->
<g id="edge15" class="edge">
<title>libspatialite&#45;&gt;qgis</title>
<path fill="none" stroke="black" d="M114.86,-549.46C70.44,-528.08 1.94,-485.04 1.94,-423 1.94,-423 1.94,-423 1.94,-277 1.94,-235.4 0,-215.82 30.94,-188 60.98,-160.98 174.85,-145.58 238.04,-138.94"/>
<polygon fill="black" stroke="black" points="238.12,-142.45 247.71,-137.96 237.41,-135.49 238.12,-142.45"/>
</g>
<!-- magics -->
<g id="node16" class="node">
<title>magics</title>
<g id="a_node16"><a xlink:href="https://github.com/conda-forge/magics-feedstock" xlink:title="magics">
<ellipse fill="#35b779" stroke="black" cx="337.28" cy="-90" rx="46.47" ry="18"/>
<text text-anchor="middle" x="337.28" y="-85.33" font-family="Times,serif" font-size="14.00">magics</text>
</a>
</g>
</g>
<!-- magics&#45;&gt;cdo -->
<g id="edge16" class="edge">
<title>magics&#45;&gt;cdo</title>
<path fill="none" stroke="black" d="M337.28,-71.7C337.28,-64.41 337.28,-55.73 337.28,-47.54"/>
<polygon fill="black" stroke="black" points="340.78,-47.62 337.28,-37.62 333.78,-47.62 340.78,-47.62"/>
</g>
<!-- paraview -->
<g id="node17" class="node">
<title>paraview</title>
<g id="a_node17"><a xlink:href="https://github.com/conda-forge/paraview-feedstock" xlink:title="paraview">
<ellipse fill="#35b779" stroke="black" cx="1023.59" cy="-386" rx="57" ry="18"/>
<text text-anchor="middle" x="1023.59" y="-381.32" font-family="Times,serif" font-size="14.00">paraview</text>
</a>
</g>
</g>
<!-- topologytoolkit -->
<g id="node18" class="node">
<title>topologytoolkit</title>
<g id="a_node18"><a xlink:href="https://github.com/conda-forge/topologytoolkit-feedstock" xlink:title="topologytoolkit">
<ellipse fill="#fde725" stroke="black" cx="1023.59" cy="-314" rx="86.46" ry="18"/>
<text text-anchor="middle" x="1023.59" y="-309.32" font-family="Times,serif" font-size="14.00">topologytoolkit</text>
</a>
</g>
</g>
<!-- paraview&#45;&gt;topologytoolkit -->
<g id="edge17" class="edge">
<title>paraview&#45;&gt;topologytoolkit</title>
<path fill="none" stroke="black" d="M1023.59,-367.7C1023.59,-360.41 1023.59,-351.73 1023.59,-343.54"/>
<polygon fill="black" stroke="black" points="1027.09,-343.62 1023.59,-333.62 1020.09,-343.62 1027.09,-343.62"/>
</g>
<!-- pyproj -->
<g id="node19" class="node">
<title>pyproj</title>
<g id="a_node19"><a xlink:href="https://github.com/conda-forge/pyproj-feedstock" xlink:title="pyproj">
<ellipse fill="#35b779" stroke="black" cx="533.94" cy="-206" rx="43.32" ry="18"/>
<text text-anchor="middle" x="533.94" y="-201.33" font-family="Times,serif" font-size="14.00">pyproj</text>
</a>
</g>
</g>
<!-- pyproj&#45;&gt;qgis -->
<g id="edge18" class="edge">
<title>pyproj&#45;&gt;qgis</title>
<path fill="none" stroke="black" d="M499.62,-194.61C492.15,-192.39 484.29,-190.09 476.94,-188 423.08,-172.69 360.61,-155.98 320.94,-145.5"/>
<polygon fill="black" stroke="black" points="321.92,-142.13 311.36,-142.97 320.13,-148.9 321.92,-142.13"/>
</g>
<!-- r&#45;proj4 -->
<g id="node20" class="node">
<title>r&#45;proj4</title>
<g id="a_node20"><a xlink:href="https://github.com/conda-forge/r-proj4-feedstock" xlink:title="r proj4">
<ellipse fill="#35b779" stroke="black" cx="805.84" cy="-494" rx="45.42" ry="18"/>
<text text-anchor="middle" x="805.84" y="-489.32" font-family="Times,serif" font-size="14.00">r proj4</text>
</a>
</g>
</g>
<!-- magics&#45;metview -->
<g id="node21" class="node">
<title>magics&#45;metview</title>
<g id="a_node21"><a xlink:href="https://github.com/conda-forge/magics-metview-feedstock" xlink:title="magics metview">
<ellipse fill="#35b779" stroke="black" cx="805.84" cy="-422" rx="92.25" ry="18"/>
<text text-anchor="middle" x="805.84" y="-417.32" font-family="Times,serif" font-size="14.00">magics metview</text>
</a>
</g>
</g>
<!-- r&#45;proj4&#45;&gt;magics&#45;metview -->
<!-- magics&#45;metview&#45;batch -->
<g id="node24" class="node">
<title>magics&#45;metview&#45;batch</title>
<g id="a_node24"><a xlink:href="https://github.com/conda-forge/magics-metview-batch-feedstock" xlink:title="magics metview batch">
<ellipse fill="#35b779" stroke="black" cx="805.84" cy="-350" rx="123.29" ry="18"/>
<text text-anchor="middle" x="805.84" y="-345.32" font-family="Times,serif" font-size="14.00">magics metview batch</text>
</a>
</g>
</g>
<!-- magics&#45;metview&#45;&gt;magics&#45;metview&#45;batch -->
<!-- vtk -->
<g id="node22" class="node">
<title>vtk</title>
<g id="a_node22"><a xlink:href="https://github.com/conda-forge/vtk-feedstock" xlink:title="vtk">
<ellipse fill="#35b779" stroke="black" cx="1145.59" cy="-386" rx="27.01" ry="18"/>
<text text-anchor="middle" x="1145.59" y="-381.32" font-family="Times,serif" font-size="14.00">vtk</text>
</a>
</g>
</g>
<!-- vtk&#45;&gt;topologytoolkit -->
<g id="edge20" class="edge">
<title>vtk&#45;&gt;topologytoolkit</title>
<path fill="none" stroke="black" d="M1125.44,-373.44C1108.22,-363.56 1082.97,-349.08 1061.92,-337"/>
<polygon fill="black" stroke="black" points="1063.71,-333.98 1053.29,-332.04 1060.22,-340.06 1063.71,-333.98"/>
</g>
<!-- visan -->
<g id="node23" class="node">
<title>visan</title>
<g id="a_node23"><a xlink:href="https://github.com/conda-forge/visan-feedstock" xlink:title="visan">
<ellipse fill="#fde725" stroke="black" cx="1165.59" cy="-314" rx="37.53" ry="18"/>
<text text-anchor="middle" x="1165.59" y="-309.32" font-family="Times,serif" font-size="14.00">visan</text>
</a>
</g>
</g>
<!-- vtk&#45;&gt;visan -->
<g id="edge21" class="edge">
<title>vtk&#45;&gt;visan</title>
<path fill="none" stroke="black" d="M1150.43,-368.05C1152.56,-360.6 1155.12,-351.64 1157.52,-343.22"/>
<polygon fill="black" stroke="black" points="1160.85,-344.31 1160.23,-333.73 1154.12,-342.38 1160.85,-344.31"/>
</g>
<!-- fimex -->
<g id="node25" class="node">
<title>fimex</title>
<g id="a_node25"><a xlink:href="https://github.com/conda-forge/fimex-feedstock" xlink:title="fimex">
<ellipse fill="#35b779" stroke="black" cx="805.84" cy="-278" rx="38.58" ry="18"/>
<text text-anchor="middle" x="805.84" y="-273.32" font-family="Times,serif" font-size="14.00">fimex</text>
</a>
</g>
</g>
<!-- magics&#45;metview&#45;batch&#45;&gt;fimex -->
<!-- r&#45;proj -->
<g id="node26" class="node">
<title>r&#45;proj</title>
<g id="a_node26"><a xlink:href="https://github.com/conda-forge/r-proj-feedstock" xlink:title="r proj">
<ellipse fill="#35b779" stroke="black" cx="805.84" cy="-206" rx="39.11" ry="18"/>
<text text-anchor="middle" x="805.84" y="-201.32" font-family="Times,serif" font-size="14.00">r proj</text>
</a>
</g>
</g>
<!-- fimex&#45;&gt;r&#45;proj -->
</g>
</svg>
