<?xml version="1.0" encoding="UTF-8" standalone="no"?>
<!DOCTYPE svg PUBLIC "-//W3C//DTD SVG 1.1//EN"
 "http://www.w3.org/Graphics/SVG/1.1/DTD/svg11.dtd">
<!-- Generated by graphviz version 13.1.2 (20250809.0930)
 -->
<!-- Pages: 1 -->
<svg width="1189pt" height="520pt"
 viewBox="0.00 0.00 1189.00 520.00" xmlns="http://www.w3.org/2000/svg" xmlns:xlink="http://www.w3.org/1999/xlink">
<g id="graph0" class="graph" transform="scale(1 1) rotate(0) translate(4 516)">
<polygon fill="white" stroke="none" points="-4,4 -4,-516 1185.1,-516 1185.1,4 -4,4"/>
<!-- cdo -->
<g id="node1" class="node">
<title>cdo</title>
<g id="a_node1"><a xlink:href="https://github.com/conda-forge/cdo-feedstock" xlink:title="cdo">
<ellipse fill="#fde725" stroke="black" cx="325.57" cy="-18" rx="28.59" ry="18"/>
<text xml:space="preserve" text-anchor="middle" x="325.57" y="-13.32" font-family="Times,serif" font-size="14.00">cdo</text>
</a>
</g>
</g>
<!-- gdal -->
<g id="node2" class="node">
<title>gdal</title>
<g id="a_node2"><a xlink:href="https://github.com/conda-forge/gdal-feedstock" xlink:title="gdal">
<ellipse fill="#000000" stroke="black" cx="298.57" cy="-494" rx="32.79" ry="18"/>
<text xml:space="preserve" text-anchor="middle" x="298.57" y="-489.32" font-family="Times,serif" font-size="14.00" fill="white">gdal</text>
</a>
</g>
</g>
<!-- ncl -->
<g id="node3" class="node">
<title>ncl</title>
<g id="a_node3"><a xlink:href="https://github.com/conda-forge/ncl-feedstock" xlink:title="ncl">
<ellipse fill="#fde725" stroke="black" cx="148.57" cy="-422" rx="27" ry="18"/>
<text xml:space="preserve" text-anchor="middle" x="148.57" y="-417.32" font-family="Times,serif" font-size="14.00">ncl</text>
</a>
</g>
</g>
<!-- gdal&#45;&gt;ncl -->
<g id="edge1" class="edge">
<title>gdal&#45;&gt;ncl</title>
<path fill="none" stroke="black" d="M274.14,-481.6C248.52,-469.64 208.17,-450.81 180.16,-437.74"/>
<polygon fill="black" stroke="black" points="181.99,-434.73 171.45,-433.68 179.03,-441.08 181.99,-434.73"/>
</g>
<!-- postgis -->
<g id="node4" class="node">
<title>postgis</title>
<g id="a_node4"><a xlink:href="https://github.com/conda-forge/postgis-feedstock" xlink:title="postgis">
<ellipse fill="#fde725" stroke="black" cx="191.57" cy="-350" rx="47.53" ry="18"/>
<text xml:space="preserve" text-anchor="middle" x="191.57" y="-345.32" font-family="Times,serif" font-size="14.00">postgis</text>
</a>
</g>
</g>
<!-- gdal&#45;&gt;postgis -->
<g id="edge2" class="edge">
<title>gdal&#45;&gt;postgis</title>
<path fill="none" stroke="black" d="M286.51,-476.99C268.14,-452.61 232.99,-405.97 211,-376.78"/>
<polygon fill="black" stroke="black" points="213.82,-374.7 205,-368.82 208.22,-378.91 213.82,-374.7"/>
</g>
<!-- qgis -->
<g id="node5" class="node">
<title>qgis</title>
<g id="a_node5"><a xlink:href="https://github.com/conda-forge/qgis-feedstock" xlink:title="qgis">
<ellipse fill="#fde725" stroke="black" cx="70.57" cy="-350" rx="32.27" ry="18"/>
<text xml:space="preserve" text-anchor="middle" x="70.57" y="-345.32" font-family="Times,serif" font-size="14.00">qgis</text>
</a>
</g>
</g>
<!-- gdal&#45;&gt;qgis -->
<g id="edge3" class="edge">
<title>gdal&#45;&gt;qgis</title>
<path fill="none" stroke="black" d="M279.71,-479.02C265.54,-468.44 245.7,-453.48 228.57,-440 208.72,-424.37 205.97,-417.43 184.57,-404 159.84,-388.48 129.81,-374.7 106.79,-365.09"/>
<polygon fill="black" stroke="black" points="108.41,-361.97 97.83,-361.42 105.75,-368.44 108.41,-361.97"/>
</g>
<!-- r&#45;sf -->
<g id="node6" class="node">
<title>r&#45;sf</title>
<g id="a_node6"><a xlink:href="https://github.com/conda-forge/r-sf-feedstock" xlink:title="r sf">
<ellipse fill="#fde725" stroke="black" cx="261.57" cy="-278" rx="28.06" ry="18"/>
<text xml:space="preserve" text-anchor="middle" x="261.57" y="-273.32" font-family="Times,serif" font-size="14.00">r sf</text>
</a>
</g>
</g>
<!-- gdal&#45;&gt;r&#45;sf -->
<g id="edge4" class="edge">
<title>gdal&#45;&gt;r&#45;sf</title>
<path fill="none" stroke="black" d="M295.61,-475.85C289.26,-439.14 274.31,-352.66 266.51,-307.53"/>
<polygon fill="black" stroke="black" points="269.96,-306.98 264.81,-297.72 263.07,-308.17 269.96,-306.98"/>
</g>
<!-- rasterio -->
<g id="node7" class="node">
<title>rasterio</title>
<g id="a_node7"><a xlink:href="https://github.com/conda-forge/rasterio-feedstock" xlink:title="rasterio">
<ellipse fill="#fde725" stroke="black" cx="276.57" cy="-206" rx="50.68" ry="18"/>
<text xml:space="preserve" text-anchor="middle" x="276.57" y="-201.33" font-family="Times,serif" font-size="14.00">rasterio</text>
</a>
</g>
</g>
<!-- gdal&#45;&gt;rasterio -->
<g id="edge5" class="edge">
<title>gdal&#45;&gt;rasterio</title>
<path fill="none" stroke="black" d="M300.92,-475.8C305.73,-436.88 314.94,-339.23 298.57,-260 296.8,-251.41 293.65,-242.47 290.27,-234.42"/>
<polygon fill="black" stroke="black" points="293.56,-233.2 286.26,-225.51 287.17,-236.07 293.56,-233.2"/>
</g>
<!-- r&#45;gdalcubes -->
<g id="node8" class="node">
<title>r&#45;gdalcubes</title>
<g id="a_node8"><a xlink:href="https://github.com/conda-forge/r-gdalcubes-feedstock" xlink:title="r gdalcubes">
<ellipse fill="#fde725" stroke="black" cx="355.57" cy="-134" rx="69.62" ry="18"/>
<text xml:space="preserve" text-anchor="middle" x="355.57" y="-129.32" font-family="Times,serif" font-size="14.00">r gdalcubes</text>
</a>
</g>
</g>
<!-- gdal&#45;&gt;r&#45;gdalcubes -->
<g id="edge6" class="edge">
<title>gdal&#45;&gt;r&#45;gdalcubes</title>
<path fill="none" stroke="black" d="M309.83,-476.8C326.45,-451.29 355.57,-399.61 355.57,-351 355.57,-351 355.57,-351 355.57,-277 355.57,-237.74 355.57,-192.38 355.57,-163.69"/>
<polygon fill="black" stroke="black" points="359.07,-164 355.57,-154 352.07,-164 359.07,-164"/>
</g>
<!-- r&#45;terra -->
<g id="node9" class="node">
<title>r&#45;terra</title>
<g id="a_node9"><a xlink:href="https://github.com/conda-forge/r-terra-feedstock" xlink:title="r terra">
<ellipse fill="#fde725" stroke="black" cx="427.57" cy="-422" rx="44.37" ry="18"/>
<text xml:space="preserve" text-anchor="middle" x="427.57" y="-417.32" font-family="Times,serif" font-size="14.00">r terra</text>
</a>
</g>
</g>
<!-- gdal&#45;&gt;r&#45;terra -->
<g id="edge7" class="edge">
<title>gdal&#45;&gt;r&#45;terra</title>
<path fill="none" stroke="black" d="M321.34,-480.65C340.91,-470.03 369.46,-454.53 392.04,-442.28"/>
<polygon fill="black" stroke="black" points="393.49,-445.48 400.61,-437.63 390.15,-439.33 393.49,-445.48"/>
</g>
<!-- mapserver -->
<g id="node10" class="node">
<title>mapserver</title>
<g id="a_node10"><a xlink:href="https://github.com/conda-forge/mapserver-feedstock" xlink:title="mapserver">
<ellipse fill="#fde725" stroke="black" cx="499.57" cy="-350" rx="64.89" ry="18"/>
<text xml:space="preserve" text-anchor="middle" x="499.57" y="-345.32" font-family="Times,serif" font-size="14.00">mapserver</text>
</a>
</g>
</g>
<!-- gdal&#45;&gt;mapserver -->
<g id="edge8" class="edge">
<title>gdal&#45;&gt;mapserver</title>
<path fill="none" stroke="black" d="M331.69,-493.03C372.72,-491.19 441.92,-481.58 480.57,-440 495.47,-423.98 499.81,-399.25 500.65,-379.92"/>
<polygon fill="black" stroke="black" points="504.15,-379.98 500.77,-369.94 497.15,-379.9 504.15,-379.98"/>
</g>
<!-- pygplates -->
<g id="node11" class="node">
<title>pygplates</title>
<g id="a_node11"><a xlink:href="https://github.com/conda-forge/pygplates-feedstock" xlink:title="pygplates">
<ellipse fill="#fde725" stroke="black" cx="592.57" cy="-278" rx="60.15" ry="18"/>
<text xml:space="preserve" text-anchor="middle" x="592.57" y="-273.32" font-family="Times,serif" font-size="14.00">pygplates</text>
</a>
</g>
</g>
<!-- gdal&#45;&gt;pygplates -->
<g id="edge9" class="edge">
<title>gdal&#45;&gt;pygplates</title>
<path fill="none" stroke="black" d="M330.98,-489.96C373,-484.87 447.42,-471.82 502.57,-440 541.5,-417.54 552.25,-407.56 573.57,-368 583.61,-349.38 588.35,-325.89 590.58,-307.72"/>
<polygon fill="black" stroke="black" points="594.05,-308.19 591.59,-297.89 587.09,-307.48 594.05,-308.19"/>
</g>
<!-- libpdal -->
<g id="node12" class="node">
<title>libpdal</title>
<g id="a_node12"><a xlink:href="https://github.com/conda-forge/libpdal-feedstock" xlink:title="libpdal">
<ellipse fill="#fde725" stroke="black" cx="58.57" cy="-422" rx="45.42" ry="18"/>
<text xml:space="preserve" text-anchor="middle" x="58.57" y="-417.32" font-family="Times,serif" font-size="14.00">libpdal</text>
</a>
</g>
</g>
<!-- gdal&#45;&gt;libpdal -->
<g id="edge10" class="edge">
<title>gdal&#45;&gt;libpdal</title>
<path fill="none" stroke="black" d="M269.51,-484.98C232.84,-474.81 167.89,-456.59 112.57,-440 109.72,-439.14 106.78,-438.25 103.81,-437.34"/>
<polygon fill="black" stroke="black" points="105.13,-434.09 94.54,-434.47 103.06,-440.77 105.13,-434.09"/>
</g>
<!-- meos -->
<g id="node13" class="node">
<title>meos</title>
<g id="a_node13"><a xlink:href="https://github.com/conda-forge/meos-feedstock" xlink:title="meos">
<ellipse fill="#fde725" stroke="black" cx="177.57" cy="-278" rx="37.53" ry="18"/>
<text xml:space="preserve" text-anchor="middle" x="177.57" y="-273.32" font-family="Times,serif" font-size="14.00">meos</text>
</a>
</g>
</g>
<!-- postgis&#45;&gt;meos -->
<g id="edge11" class="edge">
<title>postgis&#45;&gt;meos</title>
<path fill="none" stroke="black" d="M188.11,-331.7C186.64,-324.32 184.88,-315.52 183.22,-307.25"/>
<polygon fill="black" stroke="black" points="186.68,-306.71 181.29,-297.59 179.82,-308.08 186.68,-306.71"/>
</g>
<!-- r&#45;lwgeom -->
<g id="node14" class="node">
<title>r&#45;lwgeom</title>
<g id="a_node14"><a xlink:href="https://github.com/conda-forge/r-lwgeom-feedstock" xlink:title="r lwgeom">
<ellipse fill="#fde725" stroke="black" cx="149.57" cy="-206" rx="58.05" ry="18"/>
<text xml:space="preserve" text-anchor="middle" x="149.57" y="-201.33" font-family="Times,serif" font-size="14.00">r lwgeom</text>
</a>
</g>
</g>
<!-- r&#45;sf&#45;&gt;r&#45;lwgeom -->
<g id="edge12" class="edge">
<title>r&#45;sf&#45;&gt;r&#45;lwgeom</title>
<path fill="none" stroke="black" d="M241.81,-264.65C225.94,-254.73 203.28,-240.57 184.39,-228.76"/>
<polygon fill="black" stroke="black" points="186.25,-225.8 175.92,-223.47 182.54,-231.73 186.25,-225.8"/>
</g>
<!-- libpdal&#45;&gt;qgis -->
<g id="edge13" class="edge">
<title>libpdal&#45;&gt;qgis</title>
<path fill="none" stroke="black" d="M61.54,-403.7C62.8,-396.32 64.31,-387.52 65.73,-379.25"/>
<polygon fill="black" stroke="black" points="69.15,-380.04 67.39,-369.6 62.25,-378.86 69.15,-380.04"/>
</g>
<!-- geotiff -->
<g id="node15" class="node">
<title>geotiff</title>
<g id="a_node15"><a xlink:href="https://github.com/conda-forge/geotiff-feedstock/pull/79" xlink:title="geotiff ❎">
<ellipse fill="#31688e" stroke="black" cx="58.57" cy="-494" rx="58.57" ry="18"/>
<text xml:space="preserve" text-anchor="middle" x="58.57" y="-489.32" font-family="Times,serif" font-size="14.00" fill="white">geotiff ❎</text>
</a>
</g>
</g>
<!-- geotiff&#45;&gt;libpdal -->
<g id="edge14" class="edge">
<title>geotiff&#45;&gt;libpdal</title>
<path fill="none" stroke="black" d="M58.57,-475.7C58.57,-468.41 58.57,-459.73 58.57,-451.54"/>
<polygon fill="black" stroke="black" points="62.07,-451.62 58.57,-441.62 55.07,-451.62 62.07,-451.62"/>
</g>
<!-- magics -->
<g id="node16" class="node">
<title>magics</title>
<g id="a_node16"><a xlink:href="https://github.com/conda-forge/magics-feedstock/pull/145" xlink:title="magics ❎">
<ellipse fill="#31688e" stroke="black" cx="325.57" cy="-90" rx="61.73" ry="18"/>
<text xml:space="preserve" text-anchor="middle" x="325.57" y="-85.33" font-family="Times,serif" font-size="14.00" fill="white">magics ❎</text>
</a>
</g>
</g>
<!-- magics&#45;&gt;cdo -->
<g id="edge15" class="edge">
<title>magics&#45;&gt;cdo</title>
<path fill="none" stroke="black" d="M325.57,-71.7C325.57,-64.41 325.57,-55.73 325.57,-47.54"/>
<polygon fill="black" stroke="black" points="329.07,-47.62 325.57,-37.62 322.07,-47.62 329.07,-47.62"/>
</g>
<!-- paraview -->
<g id="node17" class="node">
<title>paraview</title>
<g id="a_node17"><a xlink:href="https://github.com/conda-forge/paraview-feedstock/pull/292" xlink:title="paraview ❎">
<ellipse fill="#31688e" stroke="black" cx="1001.57" cy="-350" rx="72.25" ry="18"/>
<text xml:space="preserve" text-anchor="middle" x="1001.57" y="-345.32" font-family="Times,serif" font-size="14.00" fill="white">paraview ❎</text>
</a>
</g>
</g>
<!-- topologytoolkit -->
<g id="node18" class="node">
<title>topologytoolkit</title>
<g id="a_node18"><a xlink:href="https://github.com/conda-forge/topologytoolkit-feedstock" xlink:title="topologytoolkit">
<ellipse fill="#fde725" stroke="black" cx="1001.57" cy="-278" rx="86.46" ry="18"/>
<text xml:space="preserve" text-anchor="middle" x="1001.57" y="-273.32" font-family="Times,serif" font-size="14.00">topologytoolkit</text>
</a>
</g>
</g>
<!-- paraview&#45;&gt;topologytoolkit -->
<g id="edge16" class="edge">
<title>paraview&#45;&gt;topologytoolkit</title>
<path fill="none" stroke="black" d="M1001.57,-331.7C1001.57,-324.41 1001.57,-315.73 1001.57,-307.54"/>
<polygon fill="black" stroke="black" points="1005.07,-307.62 1001.57,-297.62 998.07,-307.62 1005.07,-307.62"/>
</g>
<!-- r&#45;proj4 -->
<g id="node19" class="node">
<title>r&#45;proj4</title>
<g id="a_node19"><a xlink:href="https://github.com/conda-forge/r-proj4-feedstock/pull/55" xlink:title="r proj4 ❎">
<ellipse fill="#31688e" stroke="black" cx="783.57" cy="-458" rx="60.68" ry="18"/>
<text xml:space="preserve" text-anchor="middle" x="783.57" y="-453.32" font-family="Times,serif" font-size="14.00" fill="white">r proj4 ❎</text>
</a>
</g>
</g>
<!-- magics&#45;metview -->
<g id="node20" class="node">
<title>magics&#45;metview</title>
<g id="a_node20"><a xlink:href="https://github.com/conda-forge/magics-metview-feedstock" xlink:title="magics metview">
<ellipse fill="#35b779" stroke="black" cx="783.57" cy="-386" rx="92.25" ry="18"/>
<text xml:space="preserve" text-anchor="middle" x="783.57" y="-381.32" font-family="Times,serif" font-size="14.00">magics metview</text>
</a>
</g>
</g>
<!-- r&#45;proj4&#45;&gt;magics&#45;metview -->
<!-- magics&#45;metview&#45;batch -->
<g id="node23" class="node">
<title>magics&#45;metview&#45;batch</title>
<g id="a_node23"><a xlink:href="https://github.com/conda-forge/magics-metview-batch-feedstock" xlink:title="magics metview batch">
<ellipse fill="#35b779" stroke="black" cx="783.57" cy="-314" rx="123.29" ry="18"/>
<text xml:space="preserve" text-anchor="middle" x="783.57" y="-309.32" font-family="Times,serif" font-size="14.00">magics metview batch</text>
</a>
</g>
</g>
<!-- magics&#45;metview&#45;&gt;magics&#45;metview&#45;batch -->
<!-- vtk -->
<g id="node21" class="node">
<title>vtk</title>
<g id="a_node21"><a xlink:href="https://github.com/conda-forge/vtk-feedstock/pull/402" xlink:title="vtk ❎">
<ellipse fill="#31688e" stroke="black" cx="1138.57" cy="-350" rx="42.26" ry="18"/>
<text xml:space="preserve" text-anchor="middle" x="1138.57" y="-345.32" font-family="Times,serif" font-size="14.00" fill="white">vtk ❎</text>
</a>
</g>
</g>
<!-- vtk&#45;&gt;topologytoolkit -->
<g id="edge18" class="edge">
<title>vtk&#45;&gt;topologytoolkit</title>
<path fill="none" stroke="black" d="M1112.16,-335.5C1092.69,-325.56 1065.82,-311.83 1043.44,-300.39"/>
<polygon fill="black" stroke="black" points="1045.04,-297.28 1034.55,-295.85 1041.86,-303.51 1045.04,-297.28"/>
</g>
<!-- visan -->
<g id="node22" class="node">
<title>visan</title>
<g id="a_node22"><a xlink:href="https://github.com/conda-forge/visan-feedstock" xlink:title="visan">
<ellipse fill="#fde725" stroke="black" cx="1143.57" cy="-278" rx="37.53" ry="18"/>
<text xml:space="preserve" text-anchor="middle" x="1143.57" y="-273.32" font-family="Times,serif" font-size="14.00">visan</text>
</a>
</g>
</g>
<!-- vtk&#45;&gt;visan -->
<g id="edge19" class="edge">
<title>vtk&#45;&gt;visan</title>
<path fill="none" stroke="black" d="M1139.81,-331.7C1140.33,-324.41 1140.95,-315.73 1141.54,-307.54"/>
<polygon fill="black" stroke="black" points="1145.02,-307.84 1142.24,-297.61 1138.04,-307.34 1145.02,-307.84"/>
</g>
<!-- fimex -->
<g id="node24" class="node">
<title>fimex</title>
<g id="a_node24"><a xlink:href="https://github.com/conda-forge/fimex-feedstock" xlink:title="fimex">
<ellipse fill="#35b779" stroke="black" cx="783.57" cy="-242" rx="38.58" ry="18"/>
<text xml:space="preserve" text-anchor="middle" x="783.57" y="-237.32" font-family="Times,serif" font-size="14.00">fimex</text>
</a>
</g>
</g>
<!-- magics&#45;metview&#45;batch&#45;&gt;fimex -->
<!-- r&#45;proj -->
<g id="node25" class="node">
<title>r&#45;proj</title>
<g id="a_node25"><a xlink:href="https://github.com/conda-forge/r-proj-feedstock" xlink:title="r proj">
<ellipse fill="#35b779" stroke="black" cx="783.57" cy="-170" rx="39.11" ry="18"/>
<text xml:space="preserve" text-anchor="middle" x="783.57" y="-165.32" font-family="Times,serif" font-size="14.00">r proj</text>
</a>
</g>
</g>
<!-- fimex&#45;&gt;r&#45;proj -->
</g>
</svg>
