<?xml version="1.0" encoding="UTF-8" standalone="no"?>
<!DOCTYPE svg PUBLIC "-//W3C//DTD SVG 1.1//EN"
 "http://www.w3.org/Graphics/SVG/1.1/DTD/svg11.dtd">
<!-- Generated by graphviz version 12.2.1 (20250203.1708)
 -->
<!-- Pages: 1 -->
<svg width="1478pt" height="592pt"
 viewBox="0.00 0.00 1477.58 592.00" xmlns="http://www.w3.org/2000/svg" xmlns:xlink="http://www.w3.org/1999/xlink">
<g id="graph0" class="graph" transform="scale(1 1) rotate(0) translate(4 588)">
<polygon fill="white" stroke="none" points="-4,4 -4,-588 1473.58,-588 1473.58,4 -4,4"/>
<!-- cdo -->
<g id="node1" class="node">
<title>cdo</title>
<g id="a_node1"><a xlink:href="https://github.com/conda-forge/cdo-feedstock" xlink:title="cdo">
<ellipse fill="#fde725" stroke="black" cx="470.05" cy="-18" rx="28.59" ry="18"/>
<text text-anchor="middle" x="470.05" y="-13.32" font-family="Times,serif" font-size="14.00">cdo</text>
</a>
</g>
</g>
<!-- gdal -->
<g id="node2" class="node">
<title>gdal</title>
<g id="a_node2"><a xlink:href="https://github.com/conda-forge/gdal-feedstock" xlink:title="gdal">
<ellipse fill="#fde725" stroke="black" cx="455.05" cy="-494" rx="32.79" ry="18"/>
<text text-anchor="middle" x="455.05" y="-489.32" font-family="Times,serif" font-size="14.00">gdal</text>
</a>
</g>
</g>
<!-- ncl -->
<g id="node3" class="node">
<title>ncl</title>
<g id="a_node3"><a xlink:href="https://github.com/conda-forge/ncl-feedstock" xlink:title="ncl">
<ellipse fill="#fde725" stroke="black" cx="546.05" cy="-422" rx="27" ry="18"/>
<text text-anchor="middle" x="546.05" y="-417.32" font-family="Times,serif" font-size="14.00">ncl</text>
</a>
</g>
</g>
<!-- gdal&#45;&gt;ncl -->
<g id="edge1" class="edge">
<title>gdal&#45;&gt;ncl</title>
<path fill="none" stroke="black" d="M473.46,-478.83C486.88,-468.51 505.24,-454.39 520.14,-442.93"/>
<polygon fill="black" stroke="black" points="521.9,-445.99 527.69,-437.12 517.63,-440.44 521.9,-445.99"/>
</g>
<!-- postgis -->
<g id="node4" class="node">
<title>postgis</title>
<g id="a_node4"><a xlink:href="https://github.com/conda-forge/postgis-feedstock" xlink:title="postgis">
<ellipse fill="#fde725" stroke="black" cx="884.05" cy="-350" rx="47.53" ry="18"/>
<text text-anchor="middle" x="884.05" y="-345.32" font-family="Times,serif" font-size="14.00">postgis</text>
</a>
</g>
</g>
<!-- gdal&#45;&gt;postgis -->
<g id="edge2" class="edge">
<title>gdal&#45;&gt;postgis</title>
<path fill="none" stroke="black" d="M487.77,-490.73C563.18,-485.06 746.85,-468.64 801.05,-440 828.78,-425.34 852.27,-397.75 867.1,-377.15"/>
<polygon fill="black" stroke="black" points="869.78,-379.43 872.62,-369.22 864.04,-375.43 869.78,-379.43"/>
</g>
<!-- qgis -->
<g id="node5" class="node">
<title>qgis</title>
<g id="a_node5"><a xlink:href="https://github.com/conda-forge/qgis-feedstock" xlink:title="qgis">
<ellipse fill="#fde725" stroke="black" cx="220.05" cy="-350" rx="32.27" ry="18"/>
<text text-anchor="middle" x="220.05" y="-345.32" font-family="Times,serif" font-size="14.00">qgis</text>
</a>
</g>
</g>
<!-- gdal&#45;&gt;qgis -->
<g id="edge3" class="edge">
<title>gdal&#45;&gt;qgis</title>
<path fill="none" stroke="black" d="M431.85,-481.03C413.35,-471.06 387.13,-455.95 366.05,-440 347.5,-425.96 347.15,-417.28 328.05,-404 305.75,-388.5 278.24,-375.07 256.56,-365.61"/>
<polygon fill="black" stroke="black" points="258.09,-362.46 247.52,-361.76 255.35,-368.9 258.09,-362.46"/>
</g>
<!-- r&#45;sf -->
<g id="node6" class="node">
<title>r&#45;sf</title>
<g id="a_node6"><a xlink:href="https://github.com/conda-forge/r-sf-feedstock" xlink:title="r sf">
<ellipse fill="#fde725" stroke="black" cx="58.05" cy="-278" rx="28.06" ry="18"/>
<text text-anchor="middle" x="58.05" y="-273.32" font-family="Times,serif" font-size="14.00">r sf</text>
</a>
</g>
</g>
<!-- gdal&#45;&gt;r&#45;sf -->
<g id="edge4" class="edge">
<title>gdal&#45;&gt;r&#45;sf</title>
<path fill="none" stroke="black" d="M421.96,-492.05C345.87,-489.23 161.43,-478.48 115.05,-440 75.27,-407 63.24,-344.3 59.61,-307.65"/>
<polygon fill="black" stroke="black" points="63.1,-307.48 58.79,-297.8 56.13,-308.06 63.1,-307.48"/>
</g>
<!-- rasterio -->
<g id="node7" class="node">
<title>rasterio</title>
<g id="a_node7"><a xlink:href="https://github.com/conda-forge/rasterio-feedstock" xlink:title="rasterio">
<ellipse fill="#fde725" stroke="black" cx="491.05" cy="-206" rx="50.68" ry="18"/>
<text text-anchor="middle" x="491.05" y="-201.33" font-family="Times,serif" font-size="14.00">rasterio</text>
</a>
</g>
</g>
<!-- gdal&#45;&gt;rasterio -->
<g id="edge5" class="edge">
<title>gdal&#45;&gt;rasterio</title>
<path fill="none" stroke="black" d="M461.57,-476.08C465.26,-465.8 469.6,-452.32 472.05,-440 486.45,-367.41 489.98,-280.01 490.81,-235.73"/>
<polygon fill="black" stroke="black" points="494.31,-236 490.96,-225.95 487.31,-235.89 494.31,-236"/>
</g>
<!-- r&#45;gdalcubes -->
<g id="node8" class="node">
<title>r&#45;gdalcubes</title>
<g id="a_node8"><a xlink:href="https://github.com/conda-forge/r-gdalcubes-feedstock" xlink:title="r gdalcubes">
<ellipse fill="#fde725" stroke="black" cx="601.05" cy="-134" rx="69.62" ry="18"/>
<text text-anchor="middle" x="601.05" y="-129.32" font-family="Times,serif" font-size="14.00">r gdalcubes</text>
</a>
</g>
</g>
<!-- gdal&#45;&gt;r&#45;gdalcubes -->
<g id="edge6" class="edge">
<title>gdal&#45;&gt;r&#45;gdalcubes</title>
<path fill="none" stroke="black" d="M486.59,-488.3C515.75,-482.26 558.09,-468.86 582.05,-440 607.88,-408.88 601.05,-391.45 601.05,-351 601.05,-351 601.05,-351 601.05,-277 601.05,-237.74 601.05,-192.38 601.05,-163.69"/>
<polygon fill="black" stroke="black" points="604.55,-164 601.05,-154 597.55,-164 604.55,-164"/>
</g>
<!-- r&#45;terra -->
<g id="node9" class="node">
<title>r&#45;terra</title>
<g id="a_node9"><a xlink:href="https://github.com/conda-forge/r-terra-feedstock" xlink:title="r terra">
<ellipse fill="#fde725" stroke="black" cx="419.05" cy="-422" rx="44.37" ry="18"/>
<text text-anchor="middle" x="419.05" y="-417.32" font-family="Times,serif" font-size="14.00">r terra</text>
</a>
</g>
</g>
<!-- gdal&#45;&gt;r&#45;terra -->
<g id="edge7" class="edge">
<title>gdal&#45;&gt;r&#45;terra</title>
<path fill="none" stroke="black" d="M446.52,-476.41C442.45,-468.51 437.49,-458.85 432.9,-449.94"/>
<polygon fill="black" stroke="black" points="436.15,-448.59 428.46,-441.3 429.92,-451.8 436.15,-448.59"/>
</g>
<!-- mapserver -->
<g id="node10" class="node">
<title>mapserver</title>
<g id="a_node10"><a xlink:href="https://github.com/conda-forge/mapserver-feedstock" xlink:title="mapserver">
<ellipse fill="#fde725" stroke="black" cx="694.05" cy="-350" rx="64.89" ry="18"/>
<text text-anchor="middle" x="694.05" y="-345.32" font-family="Times,serif" font-size="14.00">mapserver</text>
</a>
</g>
</g>
<!-- gdal&#45;&gt;mapserver -->
<g id="edge8" class="edge">
<title>gdal&#45;&gt;mapserver</title>
<path fill="none" stroke="black" d="M486.04,-487.74C519.91,-480.9 574.72,-466.56 615.05,-440 639.99,-423.57 661.96,-397.31 676.35,-377.57"/>
<polygon fill="black" stroke="black" points="679.19,-379.62 682.11,-369.43 673.48,-375.58 679.19,-379.62"/>
</g>
<!-- pygplates -->
<g id="node11" class="node">
<title>pygplates</title>
<g id="a_node11"><a xlink:href="https://github.com/conda-forge/pygplates-feedstock" xlink:title="pygplates">
<ellipse fill="#fde725" stroke="black" cx="787.05" cy="-278" rx="60.15" ry="18"/>
<text text-anchor="middle" x="787.05" y="-273.32" font-family="Times,serif" font-size="14.00">pygplates</text>
</a>
</g>
</g>
<!-- gdal&#45;&gt;pygplates -->
<g id="edge9" class="edge">
<title>gdal&#45;&gt;pygplates</title>
<path fill="none" stroke="black" d="M487.83,-490.97C553.7,-484.95 701.46,-461.2 768.05,-368 780.55,-350.49 785.13,-326.43 786.68,-307.74"/>
<polygon fill="black" stroke="black" points="790.17,-308.04 787.22,-297.86 783.18,-307.66 790.17,-308.04"/>
</g>
<!-- libpdal -->
<g id="node12" class="node">
<title>libpdal</title>
<g id="a_node12"><a xlink:href="https://github.com/conda-forge/libpdal-feedstock" xlink:title="libpdal">
<ellipse fill="#fde725" stroke="black" cx="274.05" cy="-422" rx="45.42" ry="18"/>
<text text-anchor="middle" x="274.05" y="-417.32" font-family="Times,serif" font-size="14.00">libpdal</text>
</a>
</g>
</g>
<!-- gdal&#45;&gt;libpdal -->
<g id="edge10" class="edge">
<title>gdal&#45;&gt;libpdal</title>
<path fill="none" stroke="black" d="M428.73,-482.82C399.23,-471.41 350.98,-452.75 316.21,-439.31"/>
<polygon fill="black" stroke="black" points="317.89,-436.2 307.3,-435.86 315.37,-442.73 317.89,-436.2"/>
</g>
<!-- meos -->
<g id="node13" class="node">
<title>meos</title>
<g id="a_node13"><a xlink:href="https://github.com/conda-forge/meos-feedstock" xlink:title="meos">
<ellipse fill="#fde725" stroke="black" cx="903.05" cy="-278" rx="37.53" ry="18"/>
<text text-anchor="middle" x="903.05" y="-273.32" font-family="Times,serif" font-size="14.00">meos</text>
</a>
</g>
</g>
<!-- postgis&#45;&gt;meos -->
<g id="edge11" class="edge">
<title>postgis&#45;&gt;meos</title>
<path fill="none" stroke="black" d="M888.74,-331.7C890.77,-324.24 893.19,-315.32 895.46,-306.97"/>
<polygon fill="black" stroke="black" points="898.77,-308.13 898.01,-297.57 892.01,-306.3 898.77,-308.13"/>
</g>
<!-- r&#45;lwgeom -->
<g id="node14" class="node">
<title>r&#45;lwgeom</title>
<g id="a_node14"><a xlink:href="https://github.com/conda-forge/r-lwgeom-feedstock" xlink:title="r lwgeom">
<ellipse fill="#fde725" stroke="black" cx="58.05" cy="-206" rx="58.05" ry="18"/>
<text text-anchor="middle" x="58.05" y="-201.33" font-family="Times,serif" font-size="14.00">r lwgeom</text>
</a>
</g>
</g>
<!-- r&#45;sf&#45;&gt;r&#45;lwgeom -->
<g id="edge12" class="edge">
<title>r&#45;sf&#45;&gt;r&#45;lwgeom</title>
<path fill="none" stroke="black" d="M58.05,-259.7C58.05,-252.41 58.05,-243.73 58.05,-235.54"/>
<polygon fill="black" stroke="black" points="61.55,-235.62 58.05,-225.62 54.55,-235.62 61.55,-235.62"/>
</g>
<!-- libpdal&#45;&gt;qgis -->
<g id="edge13" class="edge">
<title>libpdal&#45;&gt;qgis</title>
<path fill="none" stroke="black" d="M261.25,-404.41C254.7,-395.92 246.59,-385.41 239.31,-375.96"/>
<polygon fill="black" stroke="black" points="242.18,-373.97 233.31,-368.19 236.64,-378.24 242.18,-373.97"/>
</g>
<!-- geotiff -->
<g id="node15" class="node">
<title>geotiff</title>
<g id="a_node15"><a xlink:href="https://github.com/conda-forge/geotiff-feedstock" xlink:title="geotiff">
<ellipse fill="#35b779" stroke="black" cx="389.05" cy="-566" rx="43.32" ry="18"/>
<text text-anchor="middle" x="389.05" y="-561.33" font-family="Times,serif" font-size="14.00">geotiff</text>
</a>
</g>
</g>
<!-- geotiff&#45;&gt;gdal -->
<g id="edge14" class="edge">
<title>geotiff&#45;&gt;gdal</title>
<path fill="none" stroke="black" d="M404.36,-548.76C412.84,-539.77 423.53,-528.42 432.91,-518.48"/>
<polygon fill="black" stroke="black" points="435.37,-520.97 439.69,-511.29 430.28,-516.17 435.37,-520.97"/>
</g>
<!-- geotiff&#45;&gt;libpdal -->
<g id="edge15" class="edge">
<title>geotiff&#45;&gt;libpdal</title>
<path fill="none" stroke="black" d="M375.63,-548.43C355.64,-523.74 317.87,-477.11 294.44,-448.18"/>
<polygon fill="black" stroke="black" points="297.35,-446.21 288.33,-440.64 291.91,-450.61 297.35,-446.21"/>
</g>
<!-- libspatialite -->
<g id="node16" class="node">
<title>libspatialite</title>
<g id="a_node16"><a xlink:href="https://github.com/conda-forge/libspatialite-feedstock" xlink:title="libspatialite">
<ellipse fill="#35b779" stroke="black" cx="162.05" cy="-566" rx="70.68" ry="18"/>
<text text-anchor="middle" x="162.05" y="-561.33" font-family="Times,serif" font-size="14.00">libspatialite</text>
</a>
</g>
</g>
<!-- libspatialite&#45;&gt;gdal -->
<g id="edge16" class="edge">
<title>libspatialite&#45;&gt;gdal</title>
<path fill="none" stroke="black" d="M212.42,-552.97C269.58,-539.31 361.7,-517.3 414.46,-504.7"/>
<polygon fill="black" stroke="black" points="415.02,-508.16 423.94,-502.43 413.4,-501.35 415.02,-508.16"/>
</g>
<!-- libspatialite&#45;&gt;qgis -->
<g id="edge17" class="edge">
<title>libspatialite&#45;&gt;qgis</title>
<path fill="none" stroke="black" d="M148.86,-548.29C126.41,-517.67 85.9,-451.36 115.05,-404 129.03,-381.28 156.08,-367.95 179.22,-360.34"/>
<polygon fill="black" stroke="black" points="180.17,-363.71 188.74,-357.48 178.16,-357 180.17,-363.71"/>
</g>
<!-- magics -->
<g id="node17" class="node">
<title>magics</title>
<g id="a_node17"><a xlink:href="https://github.com/conda-forge/magics-feedstock" xlink:title="magics">
<ellipse fill="#35b779" stroke="black" cx="470.05" cy="-90" rx="46.47" ry="18"/>
<text text-anchor="middle" x="470.05" y="-85.33" font-family="Times,serif" font-size="14.00">magics</text>
</a>
</g>
</g>
<!-- magics&#45;&gt;cdo -->
<g id="edge18" class="edge">
<title>magics&#45;&gt;cdo</title>
<path fill="none" stroke="black" d="M470.05,-71.7C470.05,-64.41 470.05,-55.73 470.05,-47.54"/>
<polygon fill="black" stroke="black" points="473.55,-47.62 470.05,-37.62 466.55,-47.62 473.55,-47.62"/>
</g>
<!-- paraview -->
<g id="node18" class="node">
<title>paraview</title>
<g id="a_node18"><a xlink:href="https://github.com/conda-forge/paraview-feedstock" xlink:title="paraview">
<ellipse fill="#35b779" stroke="black" cx="1290.05" cy="-386" rx="57" ry="18"/>
<text text-anchor="middle" x="1290.05" y="-381.32" font-family="Times,serif" font-size="14.00">paraview</text>
</a>
</g>
</g>
<!-- topologytoolkit -->
<g id="node19" class="node">
<title>topologytoolkit</title>
<g id="a_node19"><a xlink:href="https://github.com/conda-forge/topologytoolkit-feedstock" xlink:title="topologytoolkit">
<ellipse fill="#fde725" stroke="black" cx="1290.05" cy="-314" rx="86.46" ry="18"/>
<text text-anchor="middle" x="1290.05" y="-309.32" font-family="Times,serif" font-size="14.00">topologytoolkit</text>
</a>
</g>
</g>
<!-- paraview&#45;&gt;topologytoolkit -->
<g id="edge19" class="edge">
<title>paraview&#45;&gt;topologytoolkit</title>
<path fill="none" stroke="black" d="M1290.05,-367.7C1290.05,-360.41 1290.05,-351.73 1290.05,-343.54"/>
<polygon fill="black" stroke="black" points="1293.55,-343.62 1290.05,-333.62 1286.55,-343.62 1293.55,-343.62"/>
</g>
<!-- pyproj -->
<g id="node20" class="node">
<title>pyproj</title>
<g id="a_node20"><a xlink:href="https://github.com/conda-forge/pyproj-feedstock" xlink:title="pyproj">
<ellipse fill="#35b779" stroke="black" cx="167.05" cy="-422" rx="43.32" ry="18"/>
<text text-anchor="middle" x="167.05" y="-417.32" font-family="Times,serif" font-size="14.00">pyproj</text>
</a>
</g>
</g>
<!-- pyproj&#45;&gt;qgis -->
<g id="edge20" class="edge">
<title>pyproj&#45;&gt;qgis</title>
<path fill="none" stroke="black" d="M179.61,-404.41C186.04,-395.92 193.99,-385.41 201.15,-375.96"/>
<polygon fill="black" stroke="black" points="203.78,-378.28 207.03,-368.19 198.2,-374.05 203.78,-378.28"/>
</g>
<!-- r&#45;proj4 -->
<g id="node21" class="node">
<title>r&#45;proj4</title>
<g id="a_node21"><a xlink:href="https://github.com/conda-forge/r-proj4-feedstock" xlink:title="r proj4">
<ellipse fill="#35b779" stroke="black" cx="1072.05" cy="-494" rx="45.42" ry="18"/>
<text text-anchor="middle" x="1072.05" y="-489.32" font-family="Times,serif" font-size="14.00">r proj4</text>
</a>
</g>
</g>
<!-- magics&#45;metview -->
<g id="node22" class="node">
<title>magics&#45;metview</title>
<g id="a_node22"><a xlink:href="https://github.com/conda-forge/magics-metview-feedstock" xlink:title="magics metview">
<ellipse fill="#35b779" stroke="black" cx="1072.05" cy="-422" rx="92.25" ry="18"/>
<text text-anchor="middle" x="1072.05" y="-417.32" font-family="Times,serif" font-size="14.00">magics metview</text>
</a>
</g>
</g>
<!-- r&#45;proj4&#45;&gt;magics&#45;metview -->
<!-- magics&#45;metview&#45;batch -->
<g id="node25" class="node">
<title>magics&#45;metview&#45;batch</title>
<g id="a_node25"><a xlink:href="https://github.com/conda-forge/magics-metview-batch-feedstock" xlink:title="magics metview batch">
<ellipse fill="#35b779" stroke="black" cx="1072.05" cy="-350" rx="123.29" ry="18"/>
<text text-anchor="middle" x="1072.05" y="-345.32" font-family="Times,serif" font-size="14.00">magics metview batch</text>
</a>
</g>
</g>
<!-- magics&#45;metview&#45;&gt;magics&#45;metview&#45;batch -->
<!-- vtk -->
<g id="node23" class="node">
<title>vtk</title>
<g id="a_node23"><a xlink:href="https://github.com/conda-forge/vtk-feedstock" xlink:title="vtk">
<ellipse fill="#35b779" stroke="black" cx="1412.05" cy="-386" rx="27.01" ry="18"/>
<text text-anchor="middle" x="1412.05" y="-381.32" font-family="Times,serif" font-size="14.00">vtk</text>
</a>
</g>
</g>
<!-- vtk&#45;&gt;topologytoolkit -->
<g id="edge22" class="edge">
<title>vtk&#45;&gt;topologytoolkit</title>
<path fill="none" stroke="black" d="M1391.9,-373.44C1374.69,-363.56 1349.44,-349.08 1328.38,-337"/>
<polygon fill="black" stroke="black" points="1330.17,-333.98 1319.75,-332.04 1326.68,-340.06 1330.17,-333.98"/>
</g>
<!-- visan -->
<g id="node24" class="node">
<title>visan</title>
<g id="a_node24"><a xlink:href="https://github.com/conda-forge/visan-feedstock" xlink:title="visan">
<ellipse fill="#fde725" stroke="black" cx="1432.05" cy="-314" rx="37.53" ry="18"/>
<text text-anchor="middle" x="1432.05" y="-309.32" font-family="Times,serif" font-size="14.00">visan</text>
</a>
</g>
</g>
<!-- vtk&#45;&gt;visan -->
<g id="edge23" class="edge">
<title>vtk&#45;&gt;visan</title>
<path fill="none" stroke="black" d="M1416.89,-368.05C1419.02,-360.6 1421.58,-351.64 1423.98,-343.22"/>
<polygon fill="black" stroke="black" points="1427.31,-344.31 1426.7,-333.73 1420.58,-342.38 1427.31,-344.31"/>
</g>
<!-- fimex -->
<g id="node26" class="node">
<title>fimex</title>
<g id="a_node26"><a xlink:href="https://github.com/conda-forge/fimex-feedstock" xlink:title="fimex">
<ellipse fill="#35b779" stroke="black" cx="1072.05" cy="-278" rx="38.58" ry="18"/>
<text text-anchor="middle" x="1072.05" y="-273.32" font-family="Times,serif" font-size="14.00">fimex</text>
</a>
</g>
</g>
<!-- magics&#45;metview&#45;batch&#45;&gt;fimex -->
<!-- r&#45;proj -->
<g id="node27" class="node">
<title>r&#45;proj</title>
<g id="a_node27"><a xlink:href="https://github.com/conda-forge/r-proj-feedstock" xlink:title="r proj">
<ellipse fill="#35b779" stroke="black" cx="1072.05" cy="-206" rx="39.11" ry="18"/>
<text text-anchor="middle" x="1072.05" y="-201.32" font-family="Times,serif" font-size="14.00">r proj</text>
</a>
</g>
</g>
<!-- fimex&#45;&gt;r&#45;proj -->
</g>
</svg>
