<?xml version="1.0" encoding="UTF-8" standalone="no"?>
<!DOCTYPE svg PUBLIC "-//W3C//DTD SVG 1.1//EN"
 "http://www.w3.org/Graphics/SVG/1.1/DTD/svg11.dtd">
<!-- Generated by graphviz version 12.0.0 (20240803.0821)
 -->
<!-- Pages: 1 -->
<svg width="1175pt" height="520pt"
 viewBox="0.00 0.00 1174.71 520.00" xmlns="http://www.w3.org/2000/svg" xmlns:xlink="http://www.w3.org/1999/xlink">
<g id="graph0" class="graph" transform="scale(1 1) rotate(0) translate(4 516)">
<polygon fill="white" stroke="none" points="-4,4 -4,-516 1170.71,-516 1170.71,4 -4,4"/>
<!-- cdo -->
<g id="node1" class="node">
<title>cdo</title>
<g id="a_node1"><a xlink:href="https://github.com/conda-forge/cdo-feedstock" xlink:title="cdo">
<ellipse fill="#fde725" stroke="black" cx="319.07" cy="-18" rx="28.59" ry="18"/>
<text text-anchor="middle" x="319.07" y="-13.32" font-family="Times,serif" font-size="14.00">cdo</text>
</a>
</g>
</g>
<!-- gdal -->
<g id="node2" class="node">
<title>gdal</title>
<g id="a_node2"><a xlink:href="https://github.com/conda-forge/gdal-feedstock" xlink:title="gdal">
<ellipse fill="#35b779" stroke="black" cx="236.53" cy="-494" rx="32.79" ry="18"/>
<text text-anchor="middle" x="236.53" y="-489.32" font-family="Times,serif" font-size="14.00">gdal</text>
</a>
</g>
</g>
<!-- ncl -->
<g id="node3" class="node">
<title>ncl</title>
<g id="a_node3"><a xlink:href="https://github.com/conda-forge/ncl-feedstock" xlink:title="ncl">
<ellipse fill="#fde725" stroke="black" cx="30.53" cy="-422" rx="27" ry="18"/>
<text text-anchor="middle" x="30.53" y="-417.32" font-family="Times,serif" font-size="14.00">ncl</text>
</a>
</g>
</g>
<!-- gdal&#45;&gt;ncl -->
<g id="edge1" class="edge">
<title>gdal&#45;&gt;ncl</title>
<path fill="none" stroke="black" d="M207.96,-484.61C174.87,-474.7 118.83,-457.37 71.53,-440 68.87,-439.02 66.13,-437.98 63.38,-436.9"/>
<polygon fill="black" stroke="black" points="64.94,-433.75 54.35,-433.26 62.32,-440.25 64.94,-433.75"/>
</g>
<!-- postgis -->
<g id="node4" class="node">
<title>postgis</title>
<g id="a_node4"><a xlink:href="https://github.com/conda-forge/postgis-feedstock" xlink:title="postgis">
<ellipse fill="#fde725" stroke="black" cx="47.53" cy="-350" rx="47.53" ry="18"/>
<text text-anchor="middle" x="47.53" y="-345.32" font-family="Times,serif" font-size="14.00">postgis</text>
</a>
</g>
</g>
<!-- gdal&#45;&gt;postgis -->
<g id="edge2" class="edge">
<title>gdal&#45;&gt;postgis</title>
<path fill="none" stroke="black" d="M206.81,-485.77C179.35,-477.96 138.53,-463.4 109.53,-440 88.63,-423.14 71.77,-397.45 60.94,-378"/>
<polygon fill="black" stroke="black" points="64.07,-376.43 56.27,-369.26 57.9,-379.73 64.07,-376.43"/>
</g>
<!-- qgis -->
<g id="node5" class="node">
<title>qgis</title>
<g id="a_node5"><a xlink:href="https://github.com/conda-forge/qgis-feedstock" xlink:title="qgis">
<ellipse fill="#fde725" stroke="black" cx="161.53" cy="-134" rx="32.27" ry="18"/>
<text text-anchor="middle" x="161.53" y="-129.32" font-family="Times,serif" font-size="14.00">qgis</text>
</a>
</g>
</g>
<!-- gdal&#45;&gt;qgis -->
<g id="edge3" class="edge">
<title>gdal&#45;&gt;qgis</title>
<path fill="none" stroke="black" d="M222.06,-477.79C200.27,-453.21 161.53,-402.3 161.53,-351 161.53,-351 161.53,-351 161.53,-277 161.53,-237.74 161.53,-192.38 161.53,-163.69"/>
<polygon fill="black" stroke="black" points="165.03,-164 161.53,-154 158.03,-164 165.03,-164"/>
</g>
<!-- r&#45;sf -->
<g id="node6" class="node">
<title>r&#45;sf</title>
<g id="a_node6"><a xlink:href="https://github.com/conda-forge/r-sf-feedstock" xlink:title="r sf">
<ellipse fill="#fde725" stroke="black" cx="217.53" cy="-278" rx="28.06" ry="18"/>
<text text-anchor="middle" x="217.53" y="-273.32" font-family="Times,serif" font-size="14.00">r sf</text>
</a>
</g>
</g>
<!-- gdal&#45;&gt;r&#45;sf -->
<g id="edge4" class="edge">
<title>gdal&#45;&gt;r&#45;sf</title>
<path fill="none" stroke="black" d="M235,-475.85C231.74,-439.14 224.07,-352.66 220.06,-307.53"/>
<polygon fill="black" stroke="black" points="223.56,-307.39 219.19,-297.74 216.59,-308.01 223.56,-307.39"/>
</g>
<!-- rasterio -->
<g id="node7" class="node">
<title>rasterio</title>
<g id="a_node7"><a xlink:href="https://github.com/conda-forge/rasterio-feedstock" xlink:title="rasterio">
<ellipse fill="#fde725" stroke="black" cx="374.53" cy="-206" rx="50.68" ry="18"/>
<text text-anchor="middle" x="374.53" y="-201.33" font-family="Times,serif" font-size="14.00">rasterio</text>
</a>
</g>
</g>
<!-- gdal&#45;&gt;rasterio -->
<g id="edge5" class="edge">
<title>gdal&#45;&gt;rasterio</title>
<path fill="none" stroke="black" d="M243.34,-476.12C250.71,-458.11 262.94,-428.82 274.53,-404 303.36,-342.21 340.38,-271.23 360.3,-233.63"/>
<polygon fill="black" stroke="black" points="363.14,-235.75 364.74,-225.28 356.95,-232.47 363.14,-235.75"/>
</g>
<!-- r&#45;gdalcubes -->
<g id="node8" class="node">
<title>r&#45;gdalcubes</title>
<g id="a_node8"><a xlink:href="https://github.com/conda-forge/r-gdalcubes-feedstock" xlink:title="r gdalcubes">
<ellipse fill="#fde725" stroke="black" cx="568.53" cy="-134" rx="69.62" ry="18"/>
<text text-anchor="middle" x="568.53" y="-129.32" font-family="Times,serif" font-size="14.00">r gdalcubes</text>
</a>
</g>
</g>
<!-- gdal&#45;&gt;r&#45;gdalcubes -->
<g id="edge6" class="edge">
<title>gdal&#45;&gt;r&#45;gdalcubes</title>
<path fill="none" stroke="black" d="M269.57,-493.64C353.55,-493.39 568.53,-480.14 568.53,-351 568.53,-351 568.53,-351 568.53,-277 568.53,-237.74 568.53,-192.38 568.53,-163.69"/>
<polygon fill="black" stroke="black" points="572.03,-164 568.53,-154 565.03,-164 572.03,-164"/>
</g>
<!-- r&#45;terra -->
<g id="node9" class="node">
<title>r&#45;terra</title>
<g id="a_node9"><a xlink:href="https://github.com/conda-forge/r-terra-feedstock" xlink:title="r terra">
<ellipse fill="#fde725" stroke="black" cx="327.53" cy="-422" rx="44.37" ry="18"/>
<text text-anchor="middle" x="327.53" y="-417.32" font-family="Times,serif" font-size="14.00">r terra</text>
</a>
</g>
</g>
<!-- gdal&#45;&gt;r&#45;terra -->
<g id="edge7" class="edge">
<title>gdal&#45;&gt;r&#45;terra</title>
<path fill="none" stroke="black" d="M254.94,-478.83C267.47,-469.2 284.3,-456.25 298.6,-445.25"/>
<polygon fill="black" stroke="black" points="300.57,-448.15 306.36,-439.28 296.3,-442.6 300.57,-448.15"/>
</g>
<!-- mapserver -->
<g id="node10" class="node">
<title>mapserver</title>
<g id="a_node10"><a xlink:href="https://github.com/conda-forge/mapserver-feedstock" xlink:title="mapserver">
<ellipse fill="#fde725" stroke="black" cx="387.53" cy="-350" rx="64.89" ry="18"/>
<text text-anchor="middle" x="387.53" y="-345.32" font-family="Times,serif" font-size="14.00">mapserver</text>
</a>
</g>
</g>
<!-- gdal&#45;&gt;mapserver -->
<g id="edge8" class="edge">
<title>gdal&#45;&gt;mapserver</title>
<path fill="none" stroke="black" d="M269.04,-490.84C302.78,-486.71 354.22,-474.72 380.53,-440 393.41,-422.99 394.46,-398.55 392.68,-379.58"/>
<polygon fill="black" stroke="black" points="396.17,-379.29 391.43,-369.81 389.23,-380.17 396.17,-379.29"/>
</g>
<!-- pygplates -->
<g id="node11" class="node">
<title>pygplates</title>
<g id="a_node11"><a xlink:href="https://github.com/conda-forge/pygplates-feedstock" xlink:title="pygplates">
<ellipse fill="#fde725" stroke="black" cx="480.53" cy="-278" rx="60.15" ry="18"/>
<text text-anchor="middle" x="480.53" y="-273.32" font-family="Times,serif" font-size="14.00">pygplates</text>
</a>
</g>
</g>
<!-- gdal&#45;&gt;pygplates -->
<g id="edge9" class="edge">
<title>gdal&#45;&gt;pygplates</title>
<path fill="none" stroke="black" d="M268.1,-488.15C302.89,-481.64 359.38,-467.56 400.53,-440 435.37,-416.66 443.03,-405.64 461.53,-368 470.85,-349.01 475.62,-325.54 478.05,-307.47"/>
<polygon fill="black" stroke="black" points="481.5,-308.05 479.18,-297.71 474.55,-307.24 481.5,-308.05"/>
</g>
<!-- libpdal -->
<g id="node12" class="node">
<title>libpdal</title>
<g id="a_node12"><a xlink:href="https://github.com/conda-forge/libpdal-feedstock" xlink:title="libpdal">
<ellipse fill="#fde725" stroke="black" cx="88.53" cy="-206" rx="45.42" ry="18"/>
<text text-anchor="middle" x="88.53" y="-201.33" font-family="Times,serif" font-size="14.00">libpdal</text>
</a>
</g>
</g>
<!-- gdal&#45;&gt;libpdal -->
<g id="edge10" class="edge">
<title>gdal&#45;&gt;libpdal</title>
<path fill="none" stroke="black" d="M209.63,-483.54C189.6,-475.13 163.12,-460.9 147.53,-440 123.29,-407.5 101.85,-290.11 92.93,-235.41"/>
<polygon fill="black" stroke="black" points="96.4,-234.96 91.36,-225.64 89.49,-236.06 96.4,-234.96"/>
</g>
<!-- meos -->
<g id="node13" class="node">
<title>meos</title>
<g id="a_node13"><a xlink:href="https://github.com/conda-forge/meos-feedstock" xlink:title="meos">
<ellipse fill="#fde725" stroke="black" cx="47.53" cy="-278" rx="37.53" ry="18"/>
<text text-anchor="middle" x="47.53" y="-273.32" font-family="Times,serif" font-size="14.00">meos</text>
</a>
</g>
</g>
<!-- postgis&#45;&gt;meos -->
<g id="edge11" class="edge">
<title>postgis&#45;&gt;meos</title>
<path fill="none" stroke="black" d="M47.53,-331.7C47.53,-324.41 47.53,-315.73 47.53,-307.54"/>
<polygon fill="black" stroke="black" points="51.03,-307.62 47.53,-297.62 44.03,-307.62 51.03,-307.62"/>
</g>
<!-- r&#45;lwgeom -->
<g id="node14" class="node">
<title>r&#45;lwgeom</title>
<g id="a_node14"><a xlink:href="https://github.com/conda-forge/r-lwgeom-feedstock" xlink:title="r lwgeom">
<ellipse fill="#fde725" stroke="black" cx="247.53" cy="-206" rx="58.05" ry="18"/>
<text text-anchor="middle" x="247.53" y="-201.33" font-family="Times,serif" font-size="14.00">r lwgeom</text>
</a>
</g>
</g>
<!-- r&#45;sf&#45;&gt;r&#45;lwgeom -->
<g id="edge12" class="edge">
<title>r&#45;sf&#45;&gt;r&#45;lwgeom</title>
<path fill="none" stroke="black" d="M224.63,-260.41C227.95,-252.68 231.98,-243.27 235.73,-234.52"/>
<polygon fill="black" stroke="black" points="238.94,-235.92 239.66,-225.35 232.51,-233.16 238.94,-235.92"/>
</g>
<!-- libpdal&#45;&gt;qgis -->
<g id="edge13" class="edge">
<title>libpdal&#45;&gt;qgis</title>
<path fill="none" stroke="black" d="M105.09,-189.12C114.78,-179.82 127.18,-167.93 137.89,-157.67"/>
<polygon fill="black" stroke="black" points="140.14,-160.36 144.93,-150.91 135.29,-155.31 140.14,-160.36"/>
</g>
<!-- magics -->
<g id="node15" class="node">
<title>magics</title>
<g id="a_node15"><a xlink:href="https://github.com/conda-forge/magics-feedstock" xlink:title="magics">
<ellipse fill="#35b779" stroke="black" cx="319.07" cy="-90" rx="46.47" ry="18"/>
<text text-anchor="middle" x="319.07" y="-85.33" font-family="Times,serif" font-size="14.00">magics</text>
</a>
</g>
</g>
<!-- magics&#45;&gt;cdo -->
<g id="edge14" class="edge">
<title>magics&#45;&gt;cdo</title>
<path fill="none" stroke="black" d="M319.07,-71.7C319.07,-64.41 319.07,-55.73 319.07,-47.54"/>
<polygon fill="black" stroke="black" points="322.57,-47.62 319.07,-37.62 315.57,-47.62 322.57,-47.62"/>
</g>
<!-- paraview -->
<g id="node16" class="node">
<title>paraview</title>
<g id="a_node16"><a xlink:href="https://github.com/conda-forge/paraview-feedstock" xlink:title="paraview">
<ellipse fill="#35b779" stroke="black" cx="987.18" cy="-350" rx="57" ry="18"/>
<text text-anchor="middle" x="987.18" y="-345.32" font-family="Times,serif" font-size="14.00">paraview</text>
</a>
</g>
</g>
<!-- topologytoolkit -->
<g id="node17" class="node">
<title>topologytoolkit</title>
<g id="a_node17"><a xlink:href="https://github.com/conda-forge/topologytoolkit-feedstock" xlink:title="topologytoolkit">
<ellipse fill="#fde725" stroke="black" cx="987.18" cy="-278" rx="86.46" ry="18"/>
<text text-anchor="middle" x="987.18" y="-273.32" font-family="Times,serif" font-size="14.00">topologytoolkit</text>
</a>
</g>
</g>
<!-- paraview&#45;&gt;topologytoolkit -->
<g id="edge15" class="edge">
<title>paraview&#45;&gt;topologytoolkit</title>
<path fill="none" stroke="black" d="M987.18,-331.7C987.18,-324.41 987.18,-315.73 987.18,-307.54"/>
<polygon fill="black" stroke="black" points="990.68,-307.62 987.18,-297.62 983.68,-307.62 990.68,-307.62"/>
</g>
<!-- pyproj -->
<g id="node18" class="node">
<title>pyproj</title>
<g id="a_node18"><a xlink:href="https://github.com/conda-forge/pyproj-feedstock" xlink:title="pyproj">
<ellipse fill="#35b779" stroke="black" cx="486.53" cy="-206" rx="43.32" ry="18"/>
<text text-anchor="middle" x="486.53" y="-201.33" font-family="Times,serif" font-size="14.00">pyproj</text>
</a>
</g>
</g>
<!-- pyproj&#45;&gt;qgis -->
<g id="edge16" class="edge">
<title>pyproj&#45;&gt;qgis</title>
<path fill="none" stroke="black" d="M453.98,-193.67C447.57,-191.64 440.87,-189.65 434.53,-188 353.76,-167.04 257.63,-150.23 203.68,-141.51"/>
<polygon fill="black" stroke="black" points="204.43,-138.09 194.01,-139.97 203.33,-145 204.43,-138.09"/>
</g>
<!-- r&#45;proj4 -->
<g id="node19" class="node">
<title>r&#45;proj4</title>
<g id="a_node19"><a xlink:href="https://github.com/conda-forge/r-proj4-feedstock" xlink:title="r proj4">
<ellipse fill="#35b779" stroke="black" cx="769.43" cy="-458" rx="45.42" ry="18"/>
<text text-anchor="middle" x="769.43" y="-453.32" font-family="Times,serif" font-size="14.00">r proj4</text>
</a>
</g>
</g>
<!-- magics&#45;metview -->
<g id="node20" class="node">
<title>magics&#45;metview</title>
<g id="a_node20"><a xlink:href="https://github.com/conda-forge/magics-metview-feedstock" xlink:title="magics metview">
<ellipse fill="#35b779" stroke="black" cx="769.43" cy="-386" rx="92.25" ry="18"/>
<text text-anchor="middle" x="769.43" y="-381.32" font-family="Times,serif" font-size="14.00">magics metview</text>
</a>
</g>
</g>
<!-- r&#45;proj4&#45;&gt;magics&#45;metview -->
<!-- magics&#45;metview&#45;batch -->
<g id="node23" class="node">
<title>magics&#45;metview&#45;batch</title>
<g id="a_node23"><a xlink:href="https://github.com/conda-forge/magics-metview-batch-feedstock" xlink:title="magics metview batch">
<ellipse fill="#35b779" stroke="black" cx="769.43" cy="-314" rx="123.29" ry="18"/>
<text text-anchor="middle" x="769.43" y="-309.32" font-family="Times,serif" font-size="14.00">magics metview batch</text>
</a>
</g>
</g>
<!-- magics&#45;metview&#45;&gt;magics&#45;metview&#45;batch -->
<!-- vtk -->
<g id="node21" class="node">
<title>vtk</title>
<g id="a_node21"><a xlink:href="https://github.com/conda-forge/vtk-feedstock" xlink:title="vtk">
<ellipse fill="#35b779" stroke="black" cx="1109.18" cy="-350" rx="27.01" ry="18"/>
<text text-anchor="middle" x="1109.18" y="-345.32" font-family="Times,serif" font-size="14.00">vtk</text>
</a>
</g>
</g>
<!-- vtk&#45;&gt;topologytoolkit -->
<g id="edge18" class="edge">
<title>vtk&#45;&gt;topologytoolkit</title>
<path fill="none" stroke="black" d="M1089.03,-337.44C1071.81,-327.56 1046.56,-313.08 1025.51,-301"/>
<polygon fill="black" stroke="black" points="1027.3,-297.98 1016.88,-296.04 1023.81,-304.06 1027.3,-297.98"/>
</g>
<!-- visan -->
<g id="node22" class="node">
<title>visan</title>
<g id="a_node22"><a xlink:href="https://github.com/conda-forge/visan-feedstock" xlink:title="visan">
<ellipse fill="#fde725" stroke="black" cx="1129.18" cy="-278" rx="37.53" ry="18"/>
<text text-anchor="middle" x="1129.18" y="-273.32" font-family="Times,serif" font-size="14.00">visan</text>
</a>
</g>
</g>
<!-- vtk&#45;&gt;visan -->
<g id="edge19" class="edge">
<title>vtk&#45;&gt;visan</title>
<path fill="none" stroke="black" d="M1114.02,-332.05C1116.15,-324.6 1118.71,-315.64 1121.11,-307.22"/>
<polygon fill="black" stroke="black" points="1124.44,-308.31 1123.82,-297.73 1117.71,-306.38 1124.44,-308.31"/>
</g>
<!-- fimex -->
<g id="node24" class="node">
<title>fimex</title>
<g id="a_node24"><a xlink:href="https://github.com/conda-forge/fimex-feedstock" xlink:title="fimex">
<ellipse fill="#35b779" stroke="black" cx="769.43" cy="-242" rx="38.58" ry="18"/>
<text text-anchor="middle" x="769.43" y="-237.32" font-family="Times,serif" font-size="14.00">fimex</text>
</a>
</g>
</g>
<!-- magics&#45;metview&#45;batch&#45;&gt;fimex -->
<!-- r&#45;proj -->
<g id="node25" class="node">
<title>r&#45;proj</title>
<g id="a_node25"><a xlink:href="https://github.com/conda-forge/r-proj-feedstock" xlink:title="r proj">
<ellipse fill="#35b779" stroke="black" cx="769.43" cy="-170" rx="39.11" ry="18"/>
<text text-anchor="middle" x="769.43" y="-165.32" font-family="Times,serif" font-size="14.00">r proj</text>
</a>
</g>
</g>
<!-- fimex&#45;&gt;r&#45;proj -->
</g>
</svg>
