<?xml version="1.0" encoding="UTF-8" standalone="no"?>
<!DOCTYPE svg PUBLIC "-//W3C//DTD SVG 1.1//EN"
 "http://www.w3.org/Graphics/SVG/1.1/DTD/svg11.dtd">
<!-- Generated by graphviz version 13.1.2 (20250809.0930)
 -->
<!-- Pages: 1 -->
<svg width="1177pt" height="520pt"
 viewBox="0.00 0.00 1177.00 520.00" xmlns="http://www.w3.org/2000/svg" xmlns:xlink="http://www.w3.org/1999/xlink">
<g id="graph0" class="graph" transform="scale(1 1) rotate(0) translate(4 516)">
<polygon fill="white" stroke="none" points="-4,4 -4,-516 1172.95,-516 1172.95,4 -4,4"/>
<!-- cdo -->
<g id="node1" class="node">
<title>cdo</title>
<g id="a_node1"><a xlink:href="https://github.com/conda-forge/cdo-feedstock" xlink:title="cdo">
<ellipse fill="#fde725" stroke="black" cx="320.42" cy="-18" rx="28.59" ry="18"/>
<text xml:space="preserve" text-anchor="middle" x="320.42" y="-13.32" font-family="Times,serif" font-size="14.00">cdo</text>
</a>
</g>
</g>
<!-- gdal -->
<g id="node2" class="node">
<title>gdal</title>
<g id="a_node2"><a xlink:href="https://github.com/conda-forge/gdal-feedstock" xlink:title="gdal">
<ellipse fill="#35b779" stroke="black" cx="285.42" cy="-494" rx="32.79" ry="18"/>
<text xml:space="preserve" text-anchor="middle" x="285.42" y="-489.32" font-family="Times,serif" font-size="14.00">gdal</text>
</a>
</g>
</g>
<!-- ncl -->
<g id="node3" class="node">
<title>ncl</title>
<g id="a_node3"><a xlink:href="https://github.com/conda-forge/ncl-feedstock" xlink:title="ncl">
<ellipse fill="#fde725" stroke="black" cx="135.42" cy="-422" rx="27" ry="18"/>
<text xml:space="preserve" text-anchor="middle" x="135.42" y="-417.32" font-family="Times,serif" font-size="14.00">ncl</text>
</a>
</g>
</g>
<!-- gdal&#45;&gt;ncl -->
<g id="edge1" class="edge">
<title>gdal&#45;&gt;ncl</title>
<path fill="none" stroke="black" d="M260.99,-481.6C235.37,-469.64 195.02,-450.81 167,-437.74"/>
<polygon fill="black" stroke="black" points="168.84,-434.73 158.3,-433.68 165.88,-441.08 168.84,-434.73"/>
</g>
<!-- postgis -->
<g id="node4" class="node">
<title>postgis</title>
<g id="a_node4"><a xlink:href="https://github.com/conda-forge/postgis-feedstock" xlink:title="postgis">
<ellipse fill="#fde725" stroke="black" cx="178.42" cy="-350" rx="47.53" ry="18"/>
<text xml:space="preserve" text-anchor="middle" x="178.42" y="-345.32" font-family="Times,serif" font-size="14.00">postgis</text>
</a>
</g>
</g>
<!-- gdal&#45;&gt;postgis -->
<g id="edge2" class="edge">
<title>gdal&#45;&gt;postgis</title>
<path fill="none" stroke="black" d="M273.35,-476.99C254.99,-452.61 219.84,-405.97 197.85,-376.78"/>
<polygon fill="black" stroke="black" points="200.66,-374.7 191.85,-368.82 195.07,-378.91 200.66,-374.7"/>
</g>
<!-- qgis -->
<g id="node5" class="node">
<title>qgis</title>
<g id="a_node5"><a xlink:href="https://github.com/conda-forge/qgis-feedstock" xlink:title="qgis">
<ellipse fill="#fde725" stroke="black" cx="57.42" cy="-350" rx="32.27" ry="18"/>
<text xml:space="preserve" text-anchor="middle" x="57.42" y="-345.32" font-family="Times,serif" font-size="14.00">qgis</text>
</a>
</g>
</g>
<!-- gdal&#45;&gt;qgis -->
<g id="edge3" class="edge">
<title>gdal&#45;&gt;qgis</title>
<path fill="none" stroke="black" d="M266.56,-479.02C252.38,-468.44 232.55,-453.48 215.42,-440 195.57,-424.37 192.82,-417.43 171.42,-404 146.68,-388.48 116.66,-374.7 93.64,-365.09"/>
<polygon fill="black" stroke="black" points="95.25,-361.97 84.67,-361.42 92.6,-368.44 95.25,-361.97"/>
</g>
<!-- r&#45;sf -->
<g id="node6" class="node">
<title>r&#45;sf</title>
<g id="a_node6"><a xlink:href="https://github.com/conda-forge/r-sf-feedstock" xlink:title="r sf">
<ellipse fill="#fde725" stroke="black" cx="248.42" cy="-278" rx="28.06" ry="18"/>
<text xml:space="preserve" text-anchor="middle" x="248.42" y="-273.32" font-family="Times,serif" font-size="14.00">r sf</text>
</a>
</g>
</g>
<!-- gdal&#45;&gt;r&#45;sf -->
<g id="edge4" class="edge">
<title>gdal&#45;&gt;r&#45;sf</title>
<path fill="none" stroke="black" d="M282.46,-475.85C276.11,-439.14 261.16,-352.66 253.35,-307.53"/>
<polygon fill="black" stroke="black" points="256.81,-306.98 251.66,-297.72 249.91,-308.17 256.81,-306.98"/>
</g>
<!-- rasterio -->
<g id="node7" class="node">
<title>rasterio</title>
<g id="a_node7"><a xlink:href="https://github.com/conda-forge/rasterio-feedstock" xlink:title="rasterio">
<ellipse fill="#fde725" stroke="black" cx="263.42" cy="-206" rx="50.68" ry="18"/>
<text xml:space="preserve" text-anchor="middle" x="263.42" y="-201.33" font-family="Times,serif" font-size="14.00">rasterio</text>
</a>
</g>
</g>
<!-- gdal&#45;&gt;rasterio -->
<g id="edge5" class="edge">
<title>gdal&#45;&gt;rasterio</title>
<path fill="none" stroke="black" d="M287.77,-475.8C292.58,-436.88 301.78,-339.23 285.42,-260 283.65,-251.41 280.49,-242.47 277.12,-234.42"/>
<polygon fill="black" stroke="black" points="280.4,-233.2 273.11,-225.51 274.02,-236.07 280.4,-233.2"/>
</g>
<!-- r&#45;gdalcubes -->
<g id="node8" class="node">
<title>r&#45;gdalcubes</title>
<g id="a_node8"><a xlink:href="https://github.com/conda-forge/r-gdalcubes-feedstock" xlink:title="r gdalcubes">
<ellipse fill="#fde725" stroke="black" cx="342.42" cy="-134" rx="69.62" ry="18"/>
<text xml:space="preserve" text-anchor="middle" x="342.42" y="-129.32" font-family="Times,serif" font-size="14.00">r gdalcubes</text>
</a>
</g>
</g>
<!-- gdal&#45;&gt;r&#45;gdalcubes -->
<g id="edge6" class="edge">
<title>gdal&#45;&gt;r&#45;gdalcubes</title>
<path fill="none" stroke="black" d="M296.68,-476.8C313.29,-451.29 342.42,-399.61 342.42,-351 342.42,-351 342.42,-351 342.42,-277 342.42,-237.74 342.42,-192.38 342.42,-163.69"/>
<polygon fill="black" stroke="black" points="345.92,-164 342.42,-154 338.92,-164 345.92,-164"/>
</g>
<!-- r&#45;terra -->
<g id="node9" class="node">
<title>r&#45;terra</title>
<g id="a_node9"><a xlink:href="https://github.com/conda-forge/r-terra-feedstock" xlink:title="r terra">
<ellipse fill="#fde725" stroke="black" cx="414.42" cy="-422" rx="44.37" ry="18"/>
<text xml:space="preserve" text-anchor="middle" x="414.42" y="-417.32" font-family="Times,serif" font-size="14.00">r terra</text>
</a>
</g>
</g>
<!-- gdal&#45;&gt;r&#45;terra -->
<g id="edge7" class="edge">
<title>gdal&#45;&gt;r&#45;terra</title>
<path fill="none" stroke="black" d="M308.19,-480.65C327.76,-470.03 356.31,-454.53 378.89,-442.28"/>
<polygon fill="black" stroke="black" points="380.34,-445.48 387.46,-437.63 377,-439.33 380.34,-445.48"/>
</g>
<!-- mapserver -->
<g id="node10" class="node">
<title>mapserver</title>
<g id="a_node10"><a xlink:href="https://github.com/conda-forge/mapserver-feedstock" xlink:title="mapserver">
<ellipse fill="#fde725" stroke="black" cx="486.42" cy="-350" rx="64.89" ry="18"/>
<text xml:space="preserve" text-anchor="middle" x="486.42" y="-345.32" font-family="Times,serif" font-size="14.00">mapserver</text>
</a>
</g>
</g>
<!-- gdal&#45;&gt;mapserver -->
<g id="edge8" class="edge">
<title>gdal&#45;&gt;mapserver</title>
<path fill="none" stroke="black" d="M318.54,-493.03C359.57,-491.19 428.77,-481.58 467.42,-440 482.32,-423.98 486.66,-399.25 487.5,-379.92"/>
<polygon fill="black" stroke="black" points="491,-379.98 487.62,-369.94 484,-379.9 491,-379.98"/>
</g>
<!-- pygplates -->
<g id="node11" class="node">
<title>pygplates</title>
<g id="a_node11"><a xlink:href="https://github.com/conda-forge/pygplates-feedstock" xlink:title="pygplates">
<ellipse fill="#fde725" stroke="black" cx="579.42" cy="-278" rx="60.15" ry="18"/>
<text xml:space="preserve" text-anchor="middle" x="579.42" y="-273.32" font-family="Times,serif" font-size="14.00">pygplates</text>
</a>
</g>
</g>
<!-- gdal&#45;&gt;pygplates -->
<g id="edge9" class="edge">
<title>gdal&#45;&gt;pygplates</title>
<path fill="none" stroke="black" d="M317.83,-489.96C359.85,-484.87 434.27,-471.82 489.42,-440 528.35,-417.54 539.1,-407.56 560.42,-368 570.46,-349.38 575.19,-325.89 577.43,-307.72"/>
<polygon fill="black" stroke="black" points="580.9,-308.19 578.43,-297.89 573.93,-307.48 580.9,-308.19"/>
</g>
<!-- libpdal -->
<g id="node12" class="node">
<title>libpdal</title>
<g id="a_node12"><a xlink:href="https://github.com/conda-forge/libpdal-feedstock" xlink:title="libpdal">
<ellipse fill="#fde725" stroke="black" cx="45.42" cy="-422" rx="45.42" ry="18"/>
<text xml:space="preserve" text-anchor="middle" x="45.42" y="-417.32" font-family="Times,serif" font-size="14.00">libpdal</text>
</a>
</g>
</g>
<!-- gdal&#45;&gt;libpdal -->
<g id="edge10" class="edge">
<title>gdal&#45;&gt;libpdal</title>
<path fill="none" stroke="black" d="M256.35,-484.98C219.69,-474.81 154.74,-456.59 99.42,-440 96.56,-439.14 93.62,-438.25 90.66,-437.34"/>
<polygon fill="black" stroke="black" points="91.98,-434.09 81.39,-434.47 89.91,-440.77 91.98,-434.09"/>
</g>
<!-- meos -->
<g id="node13" class="node">
<title>meos</title>
<g id="a_node13"><a xlink:href="https://github.com/conda-forge/meos-feedstock" xlink:title="meos">
<ellipse fill="#fde725" stroke="black" cx="164.42" cy="-278" rx="37.53" ry="18"/>
<text xml:space="preserve" text-anchor="middle" x="164.42" y="-273.32" font-family="Times,serif" font-size="14.00">meos</text>
</a>
</g>
</g>
<!-- postgis&#45;&gt;meos -->
<g id="edge11" class="edge">
<title>postgis&#45;&gt;meos</title>
<path fill="none" stroke="black" d="M174.96,-331.7C173.49,-324.32 171.73,-315.52 170.07,-307.25"/>
<polygon fill="black" stroke="black" points="173.53,-306.71 168.14,-297.59 166.67,-308.08 173.53,-306.71"/>
</g>
<!-- r&#45;lwgeom -->
<g id="node14" class="node">
<title>r&#45;lwgeom</title>
<g id="a_node14"><a xlink:href="https://github.com/conda-forge/r-lwgeom-feedstock" xlink:title="r lwgeom">
<ellipse fill="#fde725" stroke="black" cx="136.42" cy="-206" rx="58.05" ry="18"/>
<text xml:space="preserve" text-anchor="middle" x="136.42" y="-201.33" font-family="Times,serif" font-size="14.00">r lwgeom</text>
</a>
</g>
</g>
<!-- r&#45;sf&#45;&gt;r&#45;lwgeom -->
<g id="edge12" class="edge">
<title>r&#45;sf&#45;&gt;r&#45;lwgeom</title>
<path fill="none" stroke="black" d="M228.66,-264.65C212.79,-254.73 190.13,-240.57 171.24,-228.76"/>
<polygon fill="black" stroke="black" points="173.1,-225.8 162.77,-223.47 169.39,-231.73 173.1,-225.8"/>
</g>
<!-- libpdal&#45;&gt;qgis -->
<g id="edge13" class="edge">
<title>libpdal&#45;&gt;qgis</title>
<path fill="none" stroke="black" d="M48.39,-403.7C49.65,-396.32 51.16,-387.52 52.58,-379.25"/>
<polygon fill="black" stroke="black" points="55.99,-380.04 54.23,-369.6 49.09,-378.86 55.99,-380.04"/>
</g>
<!-- geotiff -->
<g id="node15" class="node">
<title>geotiff</title>
<g id="a_node15"><a xlink:href="https://github.com/conda-forge/geotiff-feedstock" xlink:title="geotiff">
<ellipse fill="#35b779" stroke="black" cx="45.42" cy="-494" rx="43.32" ry="18"/>
<text xml:space="preserve" text-anchor="middle" x="45.42" y="-489.32" font-family="Times,serif" font-size="14.00">geotiff</text>
</a>
</g>
</g>
<!-- geotiff&#45;&gt;libpdal -->
<g id="edge14" class="edge">
<title>geotiff&#45;&gt;libpdal</title>
<path fill="none" stroke="black" d="M45.42,-475.7C45.42,-468.41 45.42,-459.73 45.42,-451.54"/>
<polygon fill="black" stroke="black" points="48.92,-451.62 45.42,-441.62 41.92,-451.62 48.92,-451.62"/>
</g>
<!-- magics -->
<g id="node16" class="node">
<title>magics</title>
<g id="a_node16"><a xlink:href="https://github.com/conda-forge/magics-feedstock" xlink:title="magics">
<ellipse fill="#35b779" stroke="black" cx="320.42" cy="-90" rx="46.47" ry="18"/>
<text xml:space="preserve" text-anchor="middle" x="320.42" y="-85.33" font-family="Times,serif" font-size="14.00">magics</text>
</a>
</g>
</g>
<!-- magics&#45;&gt;cdo -->
<g id="edge15" class="edge">
<title>magics&#45;&gt;cdo</title>
<path fill="none" stroke="black" d="M320.42,-71.7C320.42,-64.41 320.42,-55.73 320.42,-47.54"/>
<polygon fill="black" stroke="black" points="323.92,-47.62 320.42,-37.62 316.92,-47.62 323.92,-47.62"/>
</g>
<!-- paraview -->
<g id="node17" class="node">
<title>paraview</title>
<g id="a_node17"><a xlink:href="https://github.com/conda-forge/paraview-feedstock" xlink:title="paraview">
<ellipse fill="#35b779" stroke="black" cx="989.42" cy="-350" rx="57" ry="18"/>
<text xml:space="preserve" text-anchor="middle" x="989.42" y="-345.32" font-family="Times,serif" font-size="14.00">paraview</text>
</a>
</g>
</g>
<!-- topologytoolkit -->
<g id="node18" class="node">
<title>topologytoolkit</title>
<g id="a_node18"><a xlink:href="https://github.com/conda-forge/topologytoolkit-feedstock" xlink:title="topologytoolkit">
<ellipse fill="#fde725" stroke="black" cx="989.42" cy="-278" rx="86.46" ry="18"/>
<text xml:space="preserve" text-anchor="middle" x="989.42" y="-273.32" font-family="Times,serif" font-size="14.00">topologytoolkit</text>
</a>
</g>
</g>
<!-- paraview&#45;&gt;topologytoolkit -->
<g id="edge16" class="edge">
<title>paraview&#45;&gt;topologytoolkit</title>
<path fill="none" stroke="black" d="M989.42,-331.7C989.42,-324.41 989.42,-315.73 989.42,-307.54"/>
<polygon fill="black" stroke="black" points="992.92,-307.62 989.42,-297.62 985.92,-307.62 992.92,-307.62"/>
</g>
<!-- r&#45;proj4 -->
<g id="node19" class="node">
<title>r&#45;proj4</title>
<g id="a_node19"><a xlink:href="https://github.com/conda-forge/r-proj4-feedstock" xlink:title="r proj4">
<ellipse fill="#35b779" stroke="black" cx="771.42" cy="-458" rx="45.42" ry="18"/>
<text xml:space="preserve" text-anchor="middle" x="771.42" y="-453.32" font-family="Times,serif" font-size="14.00">r proj4</text>
</a>
</g>
</g>
<!-- magics&#45;metview -->
<g id="node20" class="node">
<title>magics&#45;metview</title>
<g id="a_node20"><a xlink:href="https://github.com/conda-forge/magics-metview-feedstock" xlink:title="magics metview">
<ellipse fill="#35b779" stroke="black" cx="771.42" cy="-386" rx="92.25" ry="18"/>
<text xml:space="preserve" text-anchor="middle" x="771.42" y="-381.32" font-family="Times,serif" font-size="14.00">magics metview</text>
</a>
</g>
</g>
<!-- r&#45;proj4&#45;&gt;magics&#45;metview -->
<!-- magics&#45;metview&#45;batch -->
<g id="node23" class="node">
<title>magics&#45;metview&#45;batch</title>
<g id="a_node23"><a xlink:href="https://github.com/conda-forge/magics-metview-batch-feedstock" xlink:title="magics metview batch">
<ellipse fill="#35b779" stroke="black" cx="771.42" cy="-314" rx="123.29" ry="18"/>
<text xml:space="preserve" text-anchor="middle" x="771.42" y="-309.32" font-family="Times,serif" font-size="14.00">magics metview batch</text>
</a>
</g>
</g>
<!-- magics&#45;metview&#45;&gt;magics&#45;metview&#45;batch -->
<!-- vtk -->
<g id="node21" class="node">
<title>vtk</title>
<g id="a_node21"><a xlink:href="https://github.com/conda-forge/vtk-feedstock" xlink:title="vtk">
<ellipse fill="#35b779" stroke="black" cx="1111.42" cy="-350" rx="27.01" ry="18"/>
<text xml:space="preserve" text-anchor="middle" x="1111.42" y="-345.32" font-family="Times,serif" font-size="14.00">vtk</text>
</a>
</g>
</g>
<!-- vtk&#45;&gt;topologytoolkit -->
<g id="edge18" class="edge">
<title>vtk&#45;&gt;topologytoolkit</title>
<path fill="none" stroke="black" d="M1091.28,-337.44C1074.06,-327.56 1048.81,-313.08 1027.76,-301"/>
<polygon fill="black" stroke="black" points="1029.54,-297.98 1019.13,-296.04 1026.06,-304.06 1029.54,-297.98"/>
</g>
<!-- visan -->
<g id="node22" class="node">
<title>visan</title>
<g id="a_node22"><a xlink:href="https://github.com/conda-forge/visan-feedstock" xlink:title="visan">
<ellipse fill="#fde725" stroke="black" cx="1131.42" cy="-278" rx="37.53" ry="18"/>
<text xml:space="preserve" text-anchor="middle" x="1131.42" y="-273.32" font-family="Times,serif" font-size="14.00">visan</text>
</a>
</g>
</g>
<!-- vtk&#45;&gt;visan -->
<g id="edge19" class="edge">
<title>vtk&#45;&gt;visan</title>
<path fill="none" stroke="black" d="M1116.26,-332.05C1118.39,-324.6 1120.95,-315.64 1123.36,-307.22"/>
<polygon fill="black" stroke="black" points="1126.69,-308.31 1126.07,-297.73 1119.96,-306.38 1126.69,-308.31"/>
</g>
<!-- fimex -->
<g id="node24" class="node">
<title>fimex</title>
<g id="a_node24"><a xlink:href="https://github.com/conda-forge/fimex-feedstock" xlink:title="fimex">
<ellipse fill="#35b779" stroke="black" cx="771.42" cy="-242" rx="38.58" ry="18"/>
<text xml:space="preserve" text-anchor="middle" x="771.42" y="-237.32" font-family="Times,serif" font-size="14.00">fimex</text>
</a>
</g>
</g>
<!-- magics&#45;metview&#45;batch&#45;&gt;fimex -->
<!-- r&#45;proj -->
<g id="node25" class="node">
<title>r&#45;proj</title>
<g id="a_node25"><a xlink:href="https://github.com/conda-forge/r-proj-feedstock" xlink:title="r proj">
<ellipse fill="#35b779" stroke="black" cx="771.42" cy="-170" rx="39.11" ry="18"/>
<text xml:space="preserve" text-anchor="middle" x="771.42" y="-165.32" font-family="Times,serif" font-size="14.00">r proj</text>
</a>
</g>
</g>
<!-- fimex&#45;&gt;r&#45;proj -->
</g>
</svg>
