<?xml version="1.0" encoding="UTF-8" standalone="no"?>
<!DOCTYPE svg PUBLIC "-//W3C//DTD SVG 1.1//EN"
 "http://www.w3.org/Graphics/SVG/1.1/DTD/svg11.dtd">
<!-- Generated by graphviz version 12.2.1 (20250203.1708)
 -->
<!-- Pages: 1 -->
<svg width="1239pt" height="520pt"
 viewBox="0.00 0.00 1239.06 520.00" xmlns="http://www.w3.org/2000/svg" xmlns:xlink="http://www.w3.org/1999/xlink">
<g id="graph0" class="graph" transform="scale(1 1) rotate(0) translate(4 516)">
<polygon fill="white" stroke="none" points="-4,4 -4,-516 1235.06,-516 1235.06,4 -4,4"/>
<!-- cdo -->
<g id="node1" class="node">
<title>cdo</title>
<g id="a_node1"><a xlink:href="https://github.com/conda-forge/cdo-feedstock" xlink:title="cdo">
<ellipse fill="#fde725" stroke="black" cx="335.53" cy="-18" rx="28.59" ry="18"/>
<text text-anchor="middle" x="335.53" y="-13.32" font-family="Times,serif" font-size="14.00">cdo</text>
</a>
</g>
</g>
<!-- gdal -->
<g id="node2" class="node">
<title>gdal</title>
<g id="a_node2"><a xlink:href="https://github.com/conda-forge/gdal-feedstock" xlink:title="gdal">
<ellipse fill="#000000" stroke="black" cx="284.53" cy="-494" rx="32.79" ry="18"/>
<text text-anchor="middle" x="284.53" y="-489.32" font-family="Times,serif" font-size="14.00" fill="white">gdal</text>
</a>
</g>
</g>
<!-- ncl -->
<g id="node3" class="node">
<title>ncl</title>
<g id="a_node3"><a xlink:href="https://github.com/conda-forge/ncl-feedstock" xlink:title="ncl">
<ellipse fill="#fde725" stroke="black" cx="30.53" cy="-422" rx="27" ry="18"/>
<text text-anchor="middle" x="30.53" y="-417.32" font-family="Times,serif" font-size="14.00">ncl</text>
</a>
</g>
</g>
<!-- gdal&#45;&gt;ncl -->
<g id="edge1" class="edge">
<title>gdal&#45;&gt;ncl</title>
<path fill="none" stroke="black" d="M254.14,-486.93C212.45,-478.27 135.4,-461.06 71.53,-440 68.77,-439.09 65.94,-438.08 63.12,-437.02"/>
<polygon fill="black" stroke="black" points="64.42,-433.78 53.83,-433.35 61.84,-440.28 64.42,-433.78"/>
</g>
<!-- postgis -->
<g id="node4" class="node">
<title>postgis</title>
<g id="a_node4"><a xlink:href="https://github.com/conda-forge/postgis-feedstock" xlink:title="postgis">
<ellipse fill="#fde725" stroke="black" cx="47.53" cy="-350" rx="47.53" ry="18"/>
<text text-anchor="middle" x="47.53" y="-345.32" font-family="Times,serif" font-size="14.00">postgis</text>
</a>
</g>
</g>
<!-- gdal&#45;&gt;postgis -->
<g id="edge2" class="edge">
<title>gdal&#45;&gt;postgis</title>
<path fill="none" stroke="black" d="M252.34,-489.67C214.93,-484.45 152.8,-471.44 109.53,-440 87.57,-424.05 70.69,-397.86 60.12,-378.01"/>
<polygon fill="black" stroke="black" points="63.38,-376.69 55.73,-369.36 57.14,-379.86 63.38,-376.69"/>
</g>
<!-- qgis -->
<g id="node5" class="node">
<title>qgis</title>
<g id="a_node5"><a xlink:href="https://github.com/conda-forge/qgis-feedstock" xlink:title="qgis">
<ellipse fill="#fde725" stroke="black" cx="287.53" cy="-134" rx="32.27" ry="18"/>
<text text-anchor="middle" x="287.53" y="-129.32" font-family="Times,serif" font-size="14.00">qgis</text>
</a>
</g>
</g>
<!-- gdal&#45;&gt;qgis -->
<g id="edge3" class="edge">
<title>gdal&#45;&gt;qgis</title>
<path fill="none" stroke="black" d="M257.58,-483.53C211.74,-465.5 123.53,-421.63 123.53,-351 123.53,-351 123.53,-351 123.53,-277 123.53,-236.55 116,-218.53 142.53,-188 168.24,-158.41 211.9,-145.33 244.61,-139.56"/>
<polygon fill="black" stroke="black" points="244.85,-143.06 254.18,-138.04 243.75,-136.15 244.85,-143.06"/>
</g>
<!-- r&#45;sf -->
<g id="node6" class="node">
<title>r&#45;sf</title>
<g id="a_node6"><a xlink:href="https://github.com/conda-forge/r-sf-feedstock" xlink:title="r sf">
<ellipse fill="#fde725" stroke="black" cx="209.53" cy="-278" rx="28.06" ry="18"/>
<text text-anchor="middle" x="209.53" y="-273.32" font-family="Times,serif" font-size="14.00">r sf</text>
</a>
</g>
</g>
<!-- gdal&#45;&gt;r&#45;sf -->
<g id="edge4" class="edge">
<title>gdal&#45;&gt;r&#45;sf</title>
<path fill="none" stroke="black" d="M272.78,-476.99C265.77,-466.82 257.18,-453.14 251.53,-440 232.32,-395.33 220.21,-339.8 214.17,-307"/>
<polygon fill="black" stroke="black" points="217.68,-306.73 212.48,-297.49 210.79,-307.95 217.68,-306.73"/>
</g>
<!-- rasterio -->
<g id="node7" class="node">
<title>rasterio</title>
<g id="a_node7"><a xlink:href="https://github.com/conda-forge/rasterio-feedstock" xlink:title="rasterio">
<ellipse fill="#fde725" stroke="black" cx="336.53" cy="-206" rx="50.68" ry="18"/>
<text text-anchor="middle" x="336.53" y="-201.33" font-family="Times,serif" font-size="14.00">rasterio</text>
</a>
</g>
</g>
<!-- gdal&#45;&gt;rasterio -->
<g id="edge5" class="edge">
<title>gdal&#45;&gt;rasterio</title>
<path fill="none" stroke="black" d="M281.01,-475.84C273.69,-436.17 259.85,-335.72 289.53,-260 293.72,-249.29 301.12,-239.33 308.83,-231.01"/>
<polygon fill="black" stroke="black" points="311.2,-233.59 315.78,-224.03 306.24,-228.65 311.2,-233.59"/>
</g>
<!-- r&#45;gdalcubes -->
<g id="node8" class="node">
<title>r&#45;gdalcubes</title>
<g id="a_node8"><a xlink:href="https://github.com/conda-forge/r-gdalcubes-feedstock" xlink:title="r gdalcubes">
<ellipse fill="#fde725" stroke="black" cx="602.53" cy="-134" rx="69.62" ry="18"/>
<text text-anchor="middle" x="602.53" y="-129.32" font-family="Times,serif" font-size="14.00">r gdalcubes</text>
</a>
</g>
</g>
<!-- gdal&#45;&gt;r&#45;gdalcubes -->
<g id="edge6" class="edge">
<title>gdal&#45;&gt;r&#45;gdalcubes</title>
<path fill="none" stroke="black" d="M317.66,-493.09C399.1,-491.4 602.53,-474.8 602.53,-351 602.53,-351 602.53,-351 602.53,-277 602.53,-237.74 602.53,-192.38 602.53,-163.69"/>
<polygon fill="black" stroke="black" points="606.03,-164 602.53,-154 599.03,-164 606.03,-164"/>
</g>
<!-- r&#45;terra -->
<g id="node9" class="node">
<title>r&#45;terra</title>
<g id="a_node9"><a xlink:href="https://github.com/conda-forge/r-terra-feedstock" xlink:title="r terra">
<ellipse fill="#fde725" stroke="black" cx="375.53" cy="-422" rx="44.37" ry="18"/>
<text text-anchor="middle" x="375.53" y="-417.32" font-family="Times,serif" font-size="14.00">r terra</text>
</a>
</g>
</g>
<!-- gdal&#45;&gt;r&#45;terra -->
<g id="edge7" class="edge">
<title>gdal&#45;&gt;r&#45;terra</title>
<path fill="none" stroke="black" d="M302.94,-478.83C315.47,-469.2 332.3,-456.25 346.6,-445.25"/>
<polygon fill="black" stroke="black" points="348.57,-448.15 354.36,-439.28 344.3,-442.6 348.57,-448.15"/>
</g>
<!-- mapserver -->
<g id="node10" class="node">
<title>mapserver</title>
<g id="a_node10"><a xlink:href="https://github.com/conda-forge/mapserver-feedstock" xlink:title="mapserver">
<ellipse fill="#fde725" stroke="black" cx="421.53" cy="-350" rx="64.89" ry="18"/>
<text text-anchor="middle" x="421.53" y="-345.32" font-family="Times,serif" font-size="14.00">mapserver</text>
</a>
</g>
</g>
<!-- gdal&#45;&gt;mapserver -->
<g id="edge8" class="edge">
<title>gdal&#45;&gt;mapserver</title>
<path fill="none" stroke="black" d="M317.27,-491.27C351.46,-487.51 403.53,-475.83 428.53,-440 440.79,-422.42 437.76,-397.86 432.38,-378.99"/>
<polygon fill="black" stroke="black" points="435.73,-377.97 429.31,-369.53 429.07,-380.13 435.73,-377.97"/>
</g>
<!-- pygplates -->
<g id="node11" class="node">
<title>pygplates</title>
<g id="a_node11"><a xlink:href="https://github.com/conda-forge/pygplates-feedstock" xlink:title="pygplates">
<ellipse fill="#fde725" stroke="black" cx="514.53" cy="-278" rx="60.15" ry="18"/>
<text text-anchor="middle" x="514.53" y="-273.32" font-family="Times,serif" font-size="14.00">pygplates</text>
</a>
</g>
</g>
<!-- gdal&#45;&gt;pygplates -->
<g id="edge9" class="edge">
<title>gdal&#45;&gt;pygplates</title>
<path fill="none" stroke="black" d="M316.27,-488.85C351.14,-482.96 407.38,-469.43 446.53,-440 489.09,-408 505.25,-344.2 511.21,-307.25"/>
<polygon fill="black" stroke="black" points="514.61,-308.17 512.59,-297.77 507.68,-307.16 514.61,-308.17"/>
</g>
<!-- libpdal -->
<g id="node12" class="node">
<title>libpdal</title>
<g id="a_node12"><a xlink:href="https://github.com/conda-forge/libpdal-feedstock" xlink:title="libpdal">
<ellipse fill="#fde725" stroke="black" cx="450.53" cy="-206" rx="45.42" ry="18"/>
<text text-anchor="middle" x="450.53" y="-201.33" font-family="Times,serif" font-size="14.00">libpdal</text>
</a>
</g>
</g>
<!-- gdal&#45;&gt;libpdal -->
<g id="edge10" class="edge">
<title>gdal&#45;&gt;libpdal</title>
<path fill="none" stroke="black" d="M289.31,-475.74C298.15,-445.36 318.79,-380.91 347.53,-332 369.98,-293.78 403.83,-255.23 426.54,-231.25"/>
<polygon fill="black" stroke="black" points="428.91,-233.83 433.31,-224.2 423.86,-228.99 428.91,-233.83"/>
</g>
<!-- meos -->
<g id="node13" class="node">
<title>meos</title>
<g id="a_node13"><a xlink:href="https://github.com/conda-forge/meos-feedstock" xlink:title="meos">
<ellipse fill="#fde725" stroke="black" cx="47.53" cy="-278" rx="37.53" ry="18"/>
<text text-anchor="middle" x="47.53" y="-273.32" font-family="Times,serif" font-size="14.00">meos</text>
</a>
</g>
</g>
<!-- postgis&#45;&gt;meos -->
<g id="edge11" class="edge">
<title>postgis&#45;&gt;meos</title>
<path fill="none" stroke="black" d="M47.53,-331.7C47.53,-324.41 47.53,-315.73 47.53,-307.54"/>
<polygon fill="black" stroke="black" points="51.03,-307.62 47.53,-297.62 44.03,-307.62 51.03,-307.62"/>
</g>
<!-- r&#45;lwgeom -->
<g id="node14" class="node">
<title>r&#45;lwgeom</title>
<g id="a_node14"><a xlink:href="https://github.com/conda-forge/r-lwgeom-feedstock" xlink:title="r lwgeom">
<ellipse fill="#fde725" stroke="black" cx="209.53" cy="-206" rx="58.05" ry="18"/>
<text text-anchor="middle" x="209.53" y="-201.33" font-family="Times,serif" font-size="14.00">r lwgeom</text>
</a>
</g>
</g>
<!-- r&#45;sf&#45;&gt;r&#45;lwgeom -->
<g id="edge12" class="edge">
<title>r&#45;sf&#45;&gt;r&#45;lwgeom</title>
<path fill="none" stroke="black" d="M209.53,-259.7C209.53,-252.41 209.53,-243.73 209.53,-235.54"/>
<polygon fill="black" stroke="black" points="213.03,-235.62 209.53,-225.62 206.03,-235.62 213.03,-235.62"/>
</g>
<!-- libpdal&#45;&gt;qgis -->
<g id="edge13" class="edge">
<title>libpdal&#45;&gt;qgis</title>
<path fill="none" stroke="black" d="M420.63,-192.16C393.16,-180.37 352.42,-162.87 323.25,-150.34"/>
<polygon fill="black" stroke="black" points="324.65,-147.13 314.08,-146.4 321.89,-153.57 324.65,-147.13"/>
</g>
<!-- magics -->
<g id="node15" class="node">
<title>magics</title>
<g id="a_node15"><a xlink:href="https://github.com/conda-forge/magics-feedstock/pull/141" xlink:title="magics ❎">
<ellipse fill="#31688e" stroke="black" cx="335.53" cy="-90" rx="61.73" ry="18"/>
<text text-anchor="middle" x="335.53" y="-85.33" font-family="Times,serif" font-size="14.00" fill="white">magics ❎</text>
</a>
</g>
</g>
<!-- magics&#45;&gt;cdo -->
<g id="edge14" class="edge">
<title>magics&#45;&gt;cdo</title>
<path fill="none" stroke="black" d="M335.53,-71.7C335.53,-64.41 335.53,-55.73 335.53,-47.54"/>
<polygon fill="black" stroke="black" points="339.03,-47.62 335.53,-37.62 332.03,-47.62 339.03,-47.62"/>
</g>
<!-- paraview -->
<g id="node16" class="node">
<title>paraview</title>
<g id="a_node16"><a xlink:href="https://github.com/conda-forge/paraview-feedstock/pull/278" xlink:title="paraview ❎">
<ellipse fill="#31688e" stroke="black" cx="1051.53" cy="-350" rx="72.25" ry="18"/>
<text text-anchor="middle" x="1051.53" y="-345.32" font-family="Times,serif" font-size="14.00" fill="white">paraview ❎</text>
</a>
</g>
</g>
<!-- topologytoolkit -->
<g id="node17" class="node">
<title>topologytoolkit</title>
<g id="a_node17"><a xlink:href="https://github.com/conda-forge/topologytoolkit-feedstock" xlink:title="topologytoolkit">
<ellipse fill="#fde725" stroke="black" cx="1051.53" cy="-278" rx="86.46" ry="18"/>
<text text-anchor="middle" x="1051.53" y="-273.32" font-family="Times,serif" font-size="14.00">topologytoolkit</text>
</a>
</g>
</g>
<!-- paraview&#45;&gt;topologytoolkit -->
<g id="edge15" class="edge">
<title>paraview&#45;&gt;topologytoolkit</title>
<path fill="none" stroke="black" d="M1051.53,-331.7C1051.53,-324.41 1051.53,-315.73 1051.53,-307.54"/>
<polygon fill="black" stroke="black" points="1055.03,-307.62 1051.53,-297.62 1048.03,-307.62 1055.03,-307.62"/>
</g>
<!-- vtk -->
<g id="node18" class="node">
<title>vtk</title>
<g id="a_node18"><a xlink:href="https://github.com/conda-forge/vtk-feedstock/pull/371" xlink:title="vtk ❎">
<ellipse fill="#31688e" stroke="black" cx="1188.53" cy="-350" rx="42.26" ry="18"/>
<text text-anchor="middle" x="1188.53" y="-345.32" font-family="Times,serif" font-size="14.00" fill="white">vtk ❎</text>
</a>
</g>
</g>
<!-- vtk&#45;&gt;topologytoolkit -->
<g id="edge16" class="edge">
<title>vtk&#45;&gt;topologytoolkit</title>
<path fill="none" stroke="black" d="M1162.11,-335.5C1142.64,-325.56 1115.77,-311.83 1093.4,-300.39"/>
<polygon fill="black" stroke="black" points="1094.99,-297.28 1084.5,-295.85 1091.81,-303.51 1094.99,-297.28"/>
</g>
<!-- visan -->
<g id="node19" class="node">
<title>visan</title>
<g id="a_node19"><a xlink:href="https://github.com/conda-forge/visan-feedstock" xlink:title="visan">
<ellipse fill="#fde725" stroke="black" cx="1193.53" cy="-278" rx="37.53" ry="18"/>
<text text-anchor="middle" x="1193.53" y="-273.32" font-family="Times,serif" font-size="14.00">visan</text>
</a>
</g>
</g>
<!-- vtk&#45;&gt;visan -->
<g id="edge17" class="edge">
<title>vtk&#45;&gt;visan</title>
<path fill="none" stroke="black" d="M1189.76,-331.7C1190.28,-324.41 1190.9,-315.73 1191.49,-307.54"/>
<polygon fill="black" stroke="black" points="1194.97,-307.84 1192.2,-297.61 1187.99,-307.34 1194.97,-307.84"/>
</g>
<!-- magics&#45;metview -->
<g id="node20" class="node">
<title>magics&#45;metview</title>
<g id="a_node20"><a xlink:href="https://github.com/conda-forge/magics-metview-feedstock/pull/81" xlink:title="magics metview ❎">
<ellipse fill="#31688e" stroke="black" cx="818.53" cy="-386" rx="107.5" ry="18"/>
<text text-anchor="middle" x="818.53" y="-381.32" font-family="Times,serif" font-size="14.00" fill="white">magics metview ❎</text>
</a>
</g>
</g>
<!-- magics&#45;metview&#45;batch -->
<g id="node21" class="node">
<title>magics&#45;metview&#45;batch</title>
<g id="a_node21"><a xlink:href="https://github.com/conda-forge/magics-metview-batch-feedstock/pull/72" xlink:title="magics metview batch ❎">
<ellipse fill="#31688e" stroke="black" cx="818.53" cy="-314" rx="138.54" ry="18"/>
<text text-anchor="middle" x="818.53" y="-309.32" font-family="Times,serif" font-size="14.00" fill="white">magics metview batch ❎</text>
</a>
</g>
</g>
<!-- magics&#45;metview&#45;&gt;magics&#45;metview&#45;batch -->
<!-- r&#45;proj -->
<g id="node22" class="node">
<title>r&#45;proj</title>
<g id="a_node22"><a xlink:href="https://github.com/conda-forge/r-proj-feedstock/pull/11" xlink:title="r proj ✓">
<ellipse fill="#31688e" stroke="black" cx="818.53" cy="-242" rx="47" ry="18"/>
<text text-anchor="middle" x="818.53" y="-237.32" font-family="Times,serif" font-size="14.00" fill="white">r proj ✓</text>
</a>
</g>
</g>
<!-- magics&#45;metview&#45;batch&#45;&gt;r&#45;proj -->
</g>
</svg>
