<?xml version="1.0" encoding="UTF-8" standalone="no"?>
<!DOCTYPE svg PUBLIC "-//W3C//DTD SVG 1.1//EN"
 "http://www.w3.org/Graphics/SVG/1.1/DTD/svg11.dtd">
<!-- Generated by graphviz version 13.1.2 (20250809.0930)
 -->
<!-- Pages: 1 -->
<svg width="1069pt" height="404pt"
 viewBox="0.00 0.00 1069.00 404.00" xmlns="http://www.w3.org/2000/svg" xmlns:xlink="http://www.w3.org/1999/xlink">
<g id="graph0" class="graph" transform="scale(1 1) rotate(0) translate(4 400)">
<polygon fill="white" stroke="none" points="-4,4 -4,-400 1065.36,-400 1065.36,4 -4,4"/>
<!-- cdo -->
<g id="node1" class="node">
<title>cdo</title>
<g id="a_node1"><a xlink:href="https://github.com/conda-forge/cdo-feedstock/pull/169" xlink:title="cdo ❎">
<ellipse fill="#31688e" stroke="black" cx="1007.53" cy="-270" rx="43.84" ry="18"/>
<text xml:space="preserve" text-anchor="middle" x="1007.53" y="-265.32" font-family="Times,serif" font-size="14.00" fill="white">cdo ❎</text>
</a>
</g>
</g>
<!-- fimex -->
<g id="node2" class="node">
<title>fimex</title>
<g id="a_node2"><a xlink:href="https://github.com/conda-forge/fimex-feedstock/pull/93" xlink:title="fimex ❎">
<ellipse fill="#31688e" stroke="black" cx="1007.53" cy="-198" rx="53.84" ry="18"/>
<text xml:space="preserve" text-anchor="middle" x="1007.53" y="-193.32" font-family="Times,serif" font-size="14.00" fill="white">fimex ❎</text>
</a>
</g>
</g>
<!-- cdo&#45;&gt;fimex -->
<!-- r&#45;proj -->
<g id="node20" class="node">
<title>r&#45;proj</title>
<g id="a_node20"><a xlink:href="https://github.com/conda-forge/r-proj-feedstock/pull/14" xlink:title="r proj ✓">
<ellipse fill="#31688e" stroke="black" cx="1007.53" cy="-126" rx="47" ry="18"/>
<text xml:space="preserve" text-anchor="middle" x="1007.53" y="-121.33" font-family="Times,serif" font-size="14.00" fill="white">r proj ✓</text>
</a>
</g>
</g>
<!-- fimex&#45;&gt;r&#45;proj -->
<!-- gdal -->
<g id="node3" class="node">
<title>gdal</title>
<g id="a_node3"><a xlink:href="https://github.com/conda-forge/gdal-feedstock" xlink:title="gdal">
<ellipse fill="#000000" stroke="black" cx="284.53" cy="-378" rx="32.79" ry="18"/>
<text xml:space="preserve" text-anchor="middle" x="284.53" y="-373.32" font-family="Times,serif" font-size="14.00" fill="white">gdal</text>
</a>
</g>
</g>
<!-- ncl -->
<g id="node4" class="node">
<title>ncl</title>
<g id="a_node4"><a xlink:href="https://github.com/conda-forge/ncl-feedstock" xlink:title="ncl">
<ellipse fill="#fde725" stroke="black" cx="30.53" cy="-306" rx="27" ry="18"/>
<text xml:space="preserve" text-anchor="middle" x="30.53" y="-301.32" font-family="Times,serif" font-size="14.00">ncl</text>
</a>
</g>
</g>
<!-- gdal&#45;&gt;ncl -->
<g id="edge2" class="edge">
<title>gdal&#45;&gt;ncl</title>
<path fill="none" stroke="black" d="M254.14,-370.93C212.45,-362.27 135.4,-345.06 71.53,-324 68.77,-323.09 65.94,-322.08 63.12,-321.02"/>
<polygon fill="black" stroke="black" points="64.42,-317.78 53.83,-317.35 61.84,-324.28 64.42,-317.78"/>
</g>
<!-- postgis -->
<g id="node5" class="node">
<title>postgis</title>
<g id="a_node5"><a xlink:href="https://github.com/conda-forge/postgis-feedstock" xlink:title="postgis">
<ellipse fill="#fde725" stroke="black" cx="47.53" cy="-234" rx="47.53" ry="18"/>
<text xml:space="preserve" text-anchor="middle" x="47.53" y="-229.32" font-family="Times,serif" font-size="14.00">postgis</text>
</a>
</g>
</g>
<!-- gdal&#45;&gt;postgis -->
<g id="edge3" class="edge">
<title>gdal&#45;&gt;postgis</title>
<path fill="none" stroke="black" d="M252.34,-373.67C214.93,-368.45 152.8,-355.44 109.53,-324 87.57,-308.05 70.69,-281.86 60.12,-262.01"/>
<polygon fill="black" stroke="black" points="63.38,-260.69 55.73,-253.36 57.14,-263.86 63.38,-260.69"/>
</g>
<!-- qgis -->
<g id="node6" class="node">
<title>qgis</title>
<g id="a_node6"><a xlink:href="https://github.com/conda-forge/qgis-feedstock" xlink:title="qgis">
<ellipse fill="#fde725" stroke="black" cx="287.53" cy="-18" rx="32.27" ry="18"/>
<text xml:space="preserve" text-anchor="middle" x="287.53" y="-13.32" font-family="Times,serif" font-size="14.00">qgis</text>
</a>
</g>
</g>
<!-- gdal&#45;&gt;qgis -->
<g id="edge4" class="edge">
<title>gdal&#45;&gt;qgis</title>
<path fill="none" stroke="black" d="M257.58,-367.53C211.74,-349.5 123.53,-305.63 123.53,-235 123.53,-235 123.53,-235 123.53,-161 123.53,-120.55 116,-102.53 142.53,-72 168.24,-42.41 211.9,-29.33 244.61,-23.56"/>
<polygon fill="black" stroke="black" points="244.85,-27.06 254.18,-22.04 243.75,-20.15 244.85,-27.06"/>
</g>
<!-- r&#45;sf -->
<g id="node7" class="node">
<title>r&#45;sf</title>
<g id="a_node7"><a xlink:href="https://github.com/conda-forge/r-sf-feedstock" xlink:title="r sf">
<ellipse fill="#fde725" stroke="black" cx="209.53" cy="-162" rx="28.06" ry="18"/>
<text xml:space="preserve" text-anchor="middle" x="209.53" y="-157.32" font-family="Times,serif" font-size="14.00">r sf</text>
</a>
</g>
</g>
<!-- gdal&#45;&gt;r&#45;sf -->
<g id="edge5" class="edge">
<title>gdal&#45;&gt;r&#45;sf</title>
<path fill="none" stroke="black" d="M272.78,-360.99C265.77,-350.82 257.18,-337.14 251.53,-324 232.32,-279.33 220.21,-223.8 214.17,-191"/>
<polygon fill="black" stroke="black" points="217.68,-190.73 212.48,-181.49 210.79,-191.95 217.68,-190.73"/>
</g>
<!-- rasterio -->
<g id="node8" class="node">
<title>rasterio</title>
<g id="a_node8"><a xlink:href="https://github.com/conda-forge/rasterio-feedstock" xlink:title="rasterio">
<ellipse fill="#fde725" stroke="black" cx="336.53" cy="-90" rx="50.68" ry="18"/>
<text xml:space="preserve" text-anchor="middle" x="336.53" y="-85.33" font-family="Times,serif" font-size="14.00">rasterio</text>
</a>
</g>
</g>
<!-- gdal&#45;&gt;rasterio -->
<g id="edge6" class="edge">
<title>gdal&#45;&gt;rasterio</title>
<path fill="none" stroke="black" d="M281.01,-359.84C273.69,-320.17 259.85,-219.72 289.53,-144 293.72,-133.29 301.12,-123.33 308.83,-115.01"/>
<polygon fill="black" stroke="black" points="311.2,-117.59 315.78,-108.03 306.24,-112.65 311.2,-117.59"/>
</g>
<!-- r&#45;gdalcubes -->
<g id="node9" class="node">
<title>r&#45;gdalcubes</title>
<g id="a_node9"><a xlink:href="https://github.com/conda-forge/r-gdalcubes-feedstock" xlink:title="r gdalcubes">
<ellipse fill="#fde725" stroke="black" cx="602.53" cy="-18" rx="69.62" ry="18"/>
<text xml:space="preserve" text-anchor="middle" x="602.53" y="-13.32" font-family="Times,serif" font-size="14.00">r gdalcubes</text>
</a>
</g>
</g>
<!-- gdal&#45;&gt;r&#45;gdalcubes -->
<g id="edge7" class="edge">
<title>gdal&#45;&gt;r&#45;gdalcubes</title>
<path fill="none" stroke="black" d="M317.66,-377.09C399.1,-375.4 602.53,-358.8 602.53,-235 602.53,-235 602.53,-235 602.53,-161 602.53,-121.74 602.53,-76.38 602.53,-47.69"/>
<polygon fill="black" stroke="black" points="606.03,-48 602.53,-38 599.03,-48 606.03,-48"/>
</g>
<!-- r&#45;terra -->
<g id="node10" class="node">
<title>r&#45;terra</title>
<g id="a_node10"><a xlink:href="https://github.com/conda-forge/r-terra-feedstock" xlink:title="r terra">
<ellipse fill="#fde725" stroke="black" cx="375.53" cy="-306" rx="44.37" ry="18"/>
<text xml:space="preserve" text-anchor="middle" x="375.53" y="-301.32" font-family="Times,serif" font-size="14.00">r terra</text>
</a>
</g>
</g>
<!-- gdal&#45;&gt;r&#45;terra -->
<g id="edge8" class="edge">
<title>gdal&#45;&gt;r&#45;terra</title>
<path fill="none" stroke="black" d="M302.94,-362.83C315.47,-353.2 332.3,-340.25 346.6,-329.25"/>
<polygon fill="black" stroke="black" points="348.57,-332.15 354.36,-323.28 344.3,-326.6 348.57,-332.15"/>
</g>
<!-- mapserver -->
<g id="node11" class="node">
<title>mapserver</title>
<g id="a_node11"><a xlink:href="https://github.com/conda-forge/mapserver-feedstock" xlink:title="mapserver">
<ellipse fill="#fde725" stroke="black" cx="421.53" cy="-234" rx="64.89" ry="18"/>
<text xml:space="preserve" text-anchor="middle" x="421.53" y="-229.32" font-family="Times,serif" font-size="14.00">mapserver</text>
</a>
</g>
</g>
<!-- gdal&#45;&gt;mapserver -->
<g id="edge9" class="edge">
<title>gdal&#45;&gt;mapserver</title>
<path fill="none" stroke="black" d="M317.27,-375.27C351.46,-371.51 403.53,-359.83 428.53,-324 440.79,-306.42 437.76,-281.86 432.38,-262.99"/>
<polygon fill="black" stroke="black" points="435.73,-261.97 429.31,-253.53 429.07,-264.13 435.73,-261.97"/>
</g>
<!-- pygplates -->
<g id="node12" class="node">
<title>pygplates</title>
<g id="a_node12"><a xlink:href="https://github.com/conda-forge/pygplates-feedstock" xlink:title="pygplates">
<ellipse fill="#fde725" stroke="black" cx="514.53" cy="-162" rx="60.15" ry="18"/>
<text xml:space="preserve" text-anchor="middle" x="514.53" y="-157.32" font-family="Times,serif" font-size="14.00">pygplates</text>
</a>
</g>
</g>
<!-- gdal&#45;&gt;pygplates -->
<g id="edge10" class="edge">
<title>gdal&#45;&gt;pygplates</title>
<path fill="none" stroke="black" d="M316.27,-372.85C351.14,-366.96 407.38,-353.43 446.53,-324 489.09,-292 505.25,-228.2 511.21,-191.25"/>
<polygon fill="black" stroke="black" points="514.61,-192.17 512.59,-181.77 507.68,-191.16 514.61,-192.17"/>
</g>
<!-- libpdal -->
<g id="node13" class="node">
<title>libpdal</title>
<g id="a_node13"><a xlink:href="https://github.com/conda-forge/libpdal-feedstock" xlink:title="libpdal">
<ellipse fill="#fde725" stroke="black" cx="450.53" cy="-90" rx="45.42" ry="18"/>
<text xml:space="preserve" text-anchor="middle" x="450.53" y="-85.33" font-family="Times,serif" font-size="14.00">libpdal</text>
</a>
</g>
</g>
<!-- gdal&#45;&gt;libpdal -->
<g id="edge11" class="edge">
<title>gdal&#45;&gt;libpdal</title>
<path fill="none" stroke="black" d="M289.31,-359.74C298.15,-329.36 318.79,-264.91 347.53,-216 369.98,-177.78 403.83,-139.23 426.54,-115.25"/>
<polygon fill="black" stroke="black" points="428.91,-117.83 433.31,-108.2 423.86,-112.99 428.91,-117.83"/>
</g>
<!-- meos -->
<g id="node14" class="node">
<title>meos</title>
<g id="a_node14"><a xlink:href="https://github.com/conda-forge/meos-feedstock" xlink:title="meos">
<ellipse fill="#fde725" stroke="black" cx="47.53" cy="-162" rx="37.53" ry="18"/>
<text xml:space="preserve" text-anchor="middle" x="47.53" y="-157.32" font-family="Times,serif" font-size="14.00">meos</text>
</a>
</g>
</g>
<!-- postgis&#45;&gt;meos -->
<g id="edge12" class="edge">
<title>postgis&#45;&gt;meos</title>
<path fill="none" stroke="black" d="M47.53,-215.7C47.53,-208.41 47.53,-199.73 47.53,-191.54"/>
<polygon fill="black" stroke="black" points="51.03,-191.62 47.53,-181.62 44.03,-191.62 51.03,-191.62"/>
</g>
<!-- r&#45;lwgeom -->
<g id="node15" class="node">
<title>r&#45;lwgeom</title>
<g id="a_node15"><a xlink:href="https://github.com/conda-forge/r-lwgeom-feedstock" xlink:title="r lwgeom">
<ellipse fill="#fde725" stroke="black" cx="209.53" cy="-90" rx="58.05" ry="18"/>
<text xml:space="preserve" text-anchor="middle" x="209.53" y="-85.33" font-family="Times,serif" font-size="14.00">r lwgeom</text>
</a>
</g>
</g>
<!-- r&#45;sf&#45;&gt;r&#45;lwgeom -->
<g id="edge13" class="edge">
<title>r&#45;sf&#45;&gt;r&#45;lwgeom</title>
<path fill="none" stroke="black" d="M209.53,-143.7C209.53,-136.41 209.53,-127.73 209.53,-119.54"/>
<polygon fill="black" stroke="black" points="213.03,-119.62 209.53,-109.62 206.03,-119.62 213.03,-119.62"/>
</g>
<!-- libpdal&#45;&gt;qgis -->
<g id="edge14" class="edge">
<title>libpdal&#45;&gt;qgis</title>
<path fill="none" stroke="black" d="M420.63,-76.16C393.16,-64.37 352.42,-46.87 323.25,-34.34"/>
<polygon fill="black" stroke="black" points="324.65,-31.13 314.08,-30.4 321.89,-37.57 324.65,-31.13"/>
</g>
<!-- paraview -->
<g id="node16" class="node">
<title>paraview</title>
<g id="a_node16"><a xlink:href="https://github.com/conda-forge/paraview-feedstock/pull/292" xlink:title="paraview ❎">
<ellipse fill="#31688e" stroke="black" cx="766.53" cy="-234" rx="72.25" ry="18"/>
<text xml:space="preserve" text-anchor="middle" x="766.53" y="-229.32" font-family="Times,serif" font-size="14.00" fill="white">paraview ❎</text>
</a>
</g>
</g>
<!-- topologytoolkit -->
<g id="node17" class="node">
<title>topologytoolkit</title>
<g id="a_node17"><a xlink:href="https://github.com/conda-forge/topologytoolkit-feedstock" xlink:title="topologytoolkit">
<ellipse fill="#fde725" stroke="black" cx="766.53" cy="-162" rx="86.46" ry="18"/>
<text xml:space="preserve" text-anchor="middle" x="766.53" y="-157.32" font-family="Times,serif" font-size="14.00">topologytoolkit</text>
</a>
</g>
</g>
<!-- paraview&#45;&gt;topologytoolkit -->
<g id="edge15" class="edge">
<title>paraview&#45;&gt;topologytoolkit</title>
<path fill="none" stroke="black" d="M766.53,-215.7C766.53,-208.41 766.53,-199.73 766.53,-191.54"/>
<polygon fill="black" stroke="black" points="770.03,-191.62 766.53,-181.62 763.03,-191.62 770.03,-191.62"/>
</g>
<!-- vtk -->
<g id="node18" class="node">
<title>vtk</title>
<g id="a_node18"><a xlink:href="https://github.com/conda-forge/vtk-feedstock/pull/402" xlink:title="vtk ❎">
<ellipse fill="#31688e" stroke="black" cx="903.53" cy="-234" rx="42.26" ry="18"/>
<text xml:space="preserve" text-anchor="middle" x="903.53" y="-229.32" font-family="Times,serif" font-size="14.00" fill="white">vtk ❎</text>
</a>
</g>
</g>
<!-- vtk&#45;&gt;topologytoolkit -->
<g id="edge16" class="edge">
<title>vtk&#45;&gt;topologytoolkit</title>
<path fill="none" stroke="black" d="M877.11,-219.5C857.64,-209.56 830.77,-195.83 808.4,-184.39"/>
<polygon fill="black" stroke="black" points="809.99,-181.28 799.5,-179.85 806.81,-187.51 809.99,-181.28"/>
</g>
<!-- visan -->
<g id="node19" class="node">
<title>visan</title>
<g id="a_node19"><a xlink:href="https://github.com/conda-forge/visan-feedstock" xlink:title="visan">
<ellipse fill="#fde725" stroke="black" cx="908.53" cy="-162" rx="37.53" ry="18"/>
<text xml:space="preserve" text-anchor="middle" x="908.53" y="-157.32" font-family="Times,serif" font-size="14.00">visan</text>
</a>
</g>
</g>
<!-- vtk&#45;&gt;visan -->
<g id="edge17" class="edge">
<title>vtk&#45;&gt;visan</title>
<path fill="none" stroke="black" d="M904.76,-215.7C905.28,-208.41 905.9,-199.73 906.49,-191.54"/>
<polygon fill="black" stroke="black" points="909.97,-191.84 907.2,-181.61 902.99,-191.34 909.97,-191.84"/>
</g>
</g>
</svg>
