<?xml version="1.0" encoding="UTF-8" standalone="no"?>
<!DOCTYPE svg PUBLIC "-//W3C//DTD SVG 1.1//EN"
 "http://www.w3.org/Graphics/SVG/1.1/DTD/svg11.dtd">
<!-- Generated by graphviz version 13.1.1 (20250720.1534)
 -->
<!-- Pages: 1 -->
<svg width="1890pt" height="1212pt"
 viewBox="0.00 0.00 1890.00 1212.00" xmlns="http://www.w3.org/2000/svg" xmlns:xlink="http://www.w3.org/1999/xlink">
<g id="graph0" class="graph" transform="scale(1 1) rotate(0) translate(4 1208)">
<polygon fill="white" stroke="none" points="-4,4 -4,-1208 1885.65,-1208 1885.65,4 -4,4"/>
<!-- pyaudi -->
<g id="node1" class="node">
<title>pyaudi</title>
<g id="a_node1"><a xlink:href="https://github.com/conda-forge/pyaudi-feedstock/pull/49" xlink:title="pyaudi ✓">
<ellipse fill="#31688e" stroke="black" cx="1330.76" cy="-90" rx="52.79" ry="18"/>
<text xml:space="preserve" text-anchor="middle" x="1330.76" y="-85.33" font-family="Times,serif" font-size="14.00" fill="white">pyaudi ✓</text>
</a>
</g>
</g>
<!-- dcgp&#45;python -->
<g id="node2" class="node">
<title>dcgp&#45;python</title>
<g id="a_node2"><a xlink:href="https://github.com/conda-forge/dcgp-python-feedstock" xlink:title="dcgp python">
<ellipse fill="#fde725" stroke="black" cx="1330.76" cy="-18" rx="73.3" ry="18"/>
<text xml:space="preserve" text-anchor="middle" x="1330.76" y="-13.32" font-family="Times,serif" font-size="14.00">dcgp python</text>
</a>
</g>
</g>
<!-- pyaudi&#45;&gt;dcgp&#45;python -->
<g id="edge1" class="edge">
<title>pyaudi&#45;&gt;dcgp&#45;python</title>
<path fill="none" stroke="black" d="M1330.76,-71.7C1330.76,-64.41 1330.76,-55.73 1330.76,-47.54"/>
<polygon fill="black" stroke="black" points="1334.26,-47.62 1330.76,-37.62 1327.26,-47.62 1334.26,-47.62"/>
</g>
<!-- fastscapelib -->
<g id="node3" class="node">
<title>fastscapelib</title>
<g id="a_node3"><a xlink:href="https://github.com/conda-forge/fastscapelib-feedstock/pull/22" xlink:title="fastscapelib ❎">
<ellipse fill="#31688e" stroke="black" cx="1330.76" cy="-1186" rx="86.46" ry="18"/>
<text xml:space="preserve" text-anchor="middle" x="1330.76" y="-1181.33" font-family="Times,serif" font-size="14.00" fill="white">fastscapelib ❎</text>
</a>
</g>
</g>
<!-- mamba -->
<g id="node4" class="node">
<title>mamba</title>
<g id="a_node4"><a xlink:href="https://github.com/conda-forge/mamba-feedstock/pull/337" xlink:title="mamba ❎">
<ellipse fill="#31688e" stroke="black" cx="1330.76" cy="-1114" rx="63.31" ry="18"/>
<text xml:space="preserve" text-anchor="middle" x="1330.76" y="-1109.33" font-family="Times,serif" font-size="14.00" fill="white">mamba ❎</text>
</a>
</g>
</g>
<!-- fastscapelib&#45;&gt;mamba -->
<!-- cppcolormap -->
<g id="node7" class="node">
<title>cppcolormap</title>
<g id="a_node7"><a xlink:href="https://github.com/conda-forge/cppcolormap-feedstock/pull/35" xlink:title="cppcolormap ❎">
<ellipse fill="#31688e" stroke="black" cx="1330.76" cy="-1042" rx="90.67" ry="18"/>
<text xml:space="preserve" text-anchor="middle" x="1330.76" y="-1037.33" font-family="Times,serif" font-size="14.00" fill="white">cppcolormap ❎</text>
</a>
</g>
</g>
<!-- mamba&#45;&gt;cppcolormap -->
<!-- reaktoro -->
<g id="node5" class="node">
<title>reaktoro</title>
<g id="a_node5"><a xlink:href="https://github.com/conda-forge/reaktoro-feedstock" xlink:title="reaktoro">
<ellipse fill="#fde725" stroke="black" cx="1673.76" cy="-682" rx="53.84" ry="18"/>
<text xml:space="preserve" text-anchor="middle" x="1673.76" y="-677.33" font-family="Times,serif" font-size="14.00">reaktoro</text>
</a>
</g>
</g>
<!-- autodiff -->
<g id="node6" class="node">
<title>autodiff</title>
<g id="a_node6"><a xlink:href="https://github.com/conda-forge/autodiff-feedstock/pull/65" xlink:title="autodiff ❎">
<ellipse fill="#31688e" stroke="black" cx="1816.76" cy="-754" rx="64.89" ry="18"/>
<text xml:space="preserve" text-anchor="middle" x="1816.76" y="-749.33" font-family="Times,serif" font-size="14.00" fill="white">autodiff ❎</text>
</a>
</g>
</g>
<!-- autodiff&#45;&gt;reaktoro -->
<g id="edge3" class="edge">
<title>autodiff&#45;&gt;reaktoro</title>
<path fill="none" stroke="black" d="M1785.73,-737.81C1764.5,-727.42 1736.18,-713.55 1713.33,-702.37"/>
<polygon fill="black" stroke="black" points="1715.14,-699.36 1704.62,-698.11 1712.06,-705.65 1715.14,-699.36"/>
</g>
<!-- gnuradio -->
<g id="node9" class="node">
<title>gnuradio</title>
<g id="a_node9"><a xlink:href="https://github.com/conda-forge/gnuradio-feedstock/pull/301" xlink:title="gnuradio ❎">
<ellipse fill="#31688e" stroke="black" cx="1330.76" cy="-970" rx="71.2" ry="18"/>
<text xml:space="preserve" text-anchor="middle" x="1330.76" y="-965.33" font-family="Times,serif" font-size="14.00" fill="white">gnuradio ❎</text>
</a>
</g>
</g>
<!-- cppcolormap&#45;&gt;gnuradio -->
<!-- thermofun -->
<g id="node8" class="node">
<title>thermofun</title>
<g id="a_node8"><a xlink:href="https://github.com/conda-forge/thermofun-feedstock/pull/62" xlink:title="thermofun ✓">
<ellipse fill="#31688e" stroke="black" cx="1754.76" cy="-826" rx="71.73" ry="18"/>
<text xml:space="preserve" text-anchor="middle" x="1754.76" y="-821.33" font-family="Times,serif" font-size="14.00" fill="white">thermofun ✓</text>
</a>
</g>
</g>
<!-- thermofun&#45;&gt;reaktoro -->
<g id="edge5" class="edge">
<title>thermofun&#45;&gt;reaktoro</title>
<path fill="none" stroke="black" d="M1744.99,-807.87C1731.12,-783.56 1705.6,-738.82 1689.17,-710.01"/>
<polygon fill="black" stroke="black" points="1692.31,-708.46 1684.32,-701.5 1686.23,-711.92 1692.31,-708.46"/>
</g>
<!-- xcfun -->
<g id="node11" class="node">
<title>xcfun</title>
<g id="a_node11"><a xlink:href="https://github.com/conda-forge/xcfun-feedstock/pull/20" xlink:title="xcfun ❎">
<ellipse fill="#31688e" stroke="black" cx="1330.76" cy="-898" rx="53.84" ry="18"/>
<text xml:space="preserve" text-anchor="middle" x="1330.76" y="-893.33" font-family="Times,serif" font-size="14.00" fill="white">xcfun ❎</text>
</a>
</g>
</g>
<!-- gnuradio&#45;&gt;xcfun -->
<!-- gooseeye -->
<g id="node10" class="node">
<title>gooseeye</title>
<g id="a_node10"><a xlink:href="https://github.com/conda-forge/gooseeye-feedstock" xlink:title="gooseeye">
<ellipse fill="#fde725" stroke="black" cx="994.76" cy="-754" rx="57.52" ry="18"/>
<text xml:space="preserve" text-anchor="middle" x="994.76" y="-749.33" font-family="Times,serif" font-size="14.00">gooseeye</text>
</a>
</g>
</g>
<!-- fimex -->
<g id="node20" class="node">
<title>fimex</title>
<g id="a_node20"><a xlink:href="https://github.com/conda-forge/fimex-feedstock/pull/90" xlink:title="fimex ❎">
<ellipse fill="#31688e" stroke="black" cx="1330.76" cy="-826" rx="53.84" ry="18"/>
<text xml:space="preserve" text-anchor="middle" x="1330.76" y="-821.33" font-family="Times,serif" font-size="14.00" fill="white">fimex ❎</text>
</a>
</g>
</g>
<!-- xcfun&#45;&gt;fimex -->
<!-- gmatelastoplastic -->
<g id="node12" class="node">
<title>gmatelastoplastic</title>
<g id="a_node12"><a xlink:href="https://github.com/conda-forge/gmatelastoplastic-feedstock" xlink:title="gmatelastoplastic">
<ellipse fill="#fde725" stroke="black" cx="363.76" cy="-826" rx="100.14" ry="18"/>
<text xml:space="preserve" text-anchor="middle" x="363.76" y="-821.33" font-family="Times,serif" font-size="14.00">gmatelastoplastic</text>
</a>
</g>
</g>
<!-- gmatelastoplasticqpot -->
<g id="node13" class="node">
<title>gmatelastoplasticqpot</title>
<g id="a_node13"><a xlink:href="https://github.com/conda-forge/gmatelastoplasticqpot-feedstock" xlink:title="gmatelastoplasticqpot">
<ellipse fill="#fde725" stroke="black" cx="122.76" cy="-826" rx="122.76" ry="18"/>
<text xml:space="preserve" text-anchor="middle" x="122.76" y="-821.33" font-family="Times,serif" font-size="14.00">gmatelastoplasticqpot</text>
</a>
</g>
</g>
<!-- frictionqpotfem -->
<g id="node14" class="node">
<title>frictionqpotfem</title>
<g id="a_node14"><a xlink:href="https://github.com/conda-forge/frictionqpotfem-feedstock" xlink:title="frictionqpotfem">
<ellipse fill="#fde725" stroke="black" cx="554.76" cy="-754" rx="89.09" ry="18"/>
<text xml:space="preserve" text-anchor="middle" x="554.76" y="-749.33" font-family="Times,serif" font-size="14.00">frictionqpotfem</text>
</a>
</g>
</g>
<!-- gmatelastoplasticqpot&#45;&gt;frictionqpotfem -->
<g id="edge8" class="edge">
<title>gmatelastoplasticqpot&#45;&gt;frictionqpotfem</title>
<path fill="none" stroke="black" d="M203,-812C280.91,-799.37 398.45,-780.33 475.89,-767.78"/>
<polygon fill="black" stroke="black" points="476.21,-771.27 485.52,-766.22 475.09,-764.36 476.21,-771.27"/>
</g>
<!-- gmatelastoplasticfinitestrainsimo -->
<g id="node15" class="node">
<title>gmatelastoplasticfinitestrainsimo</title>
<g id="a_node15"><a xlink:href="https://github.com/conda-forge/gmatelastoplasticfinitestrainsimo-feedstock" xlink:title="gmatelastoplasticfinitestrainsimo">
<ellipse fill="#fde725" stroke="black" cx="399.76" cy="-898" rx="179.05" ry="18"/>
<text xml:space="preserve" text-anchor="middle" x="399.76" y="-893.33" font-family="Times,serif" font-size="14.00">gmatelastoplasticfinitestrainsimo</text>
</a>
</g>
</g>
<!-- gmatnonlinearelastic -->
<g id="node16" class="node">
<title>gmatnonlinearelastic</title>
<g id="a_node16"><a xlink:href="https://github.com/conda-forge/gmatnonlinearelastic-feedstock" xlink:title="gmatnonlinearelastic">
<ellipse fill="#fde725" stroke="black" cx="764.76" cy="-826" rx="116.97" ry="18"/>
<text xml:space="preserve" text-anchor="middle" x="764.76" y="-821.33" font-family="Times,serif" font-size="14.00">gmatnonlinearelastic</text>
</a>
</g>
</g>
<!-- gmatelastic -->
<g id="node17" class="node">
<title>gmatelastic</title>
<g id="a_node17"><a xlink:href="https://github.com/conda-forge/gmatelastic-feedstock" xlink:title="gmatelastic">
<ellipse fill="#fde725" stroke="black" cx="666.76" cy="-898" rx="69.62" ry="18"/>
<text xml:space="preserve" text-anchor="middle" x="666.76" y="-893.33" font-family="Times,serif" font-size="14.00">gmatelastic</text>
</a>
</g>
</g>
<!-- gmatelastic&#45;&gt;gmatelastoplastic -->
<g id="edge9" class="edge">
<title>gmatelastic&#45;&gt;gmatelastoplastic</title>
<path fill="none" stroke="black" d="M616.04,-885.28C566.4,-873.81 490.32,-856.24 434.69,-843.39"/>
<polygon fill="black" stroke="black" points="435.5,-839.98 424.97,-841.14 433.93,-846.8 435.5,-839.98"/>
</g>
<!-- gmatelastic&#45;&gt;gmatelastoplasticqpot -->
<g id="edge10" class="edge">
<title>gmatelastic&#45;&gt;gmatelastoplasticqpot</title>
<path fill="none" stroke="black" d="M616.34,-885.33C606.87,-883.37 597.04,-881.5 587.76,-880 440.79,-856.31 402.59,-861.51 254.76,-844 244.46,-842.78 233.71,-841.46 222.98,-840.13"/>
<polygon fill="black" stroke="black" points="223.7,-836.69 213.34,-838.91 222.83,-843.63 223.7,-836.69"/>
</g>
<!-- gmatelastic&#45;&gt;gmatnonlinearelastic -->
<g id="edge11" class="edge">
<title>gmatelastic&#45;&gt;gmatnonlinearelastic</title>
<path fill="none" stroke="black" d="M689.49,-880.76C702.08,-871.77 717.95,-860.44 731.87,-850.49"/>
<polygon fill="black" stroke="black" points="733.8,-853.42 739.9,-844.76 729.73,-847.72 733.8,-853.42"/>
</g>
<!-- goosefem -->
<g id="node18" class="node">
<title>goosefem</title>
<g id="a_node18"><a xlink:href="https://github.com/conda-forge/goosefem-feedstock/pull/66" xlink:title="goosefem ❎">
<ellipse fill="#31688e" stroke="black" cx="555.76" cy="-826" rx="74.36" ry="18"/>
<text xml:space="preserve" text-anchor="middle" x="555.76" y="-821.33" font-family="Times,serif" font-size="14.00" fill="white">goosefem ❎</text>
</a>
</g>
</g>
<!-- goosefem&#45;&gt;frictionqpotfem -->
<g id="edge12" class="edge">
<title>goosefem&#45;&gt;frictionqpotfem</title>
<path fill="none" stroke="black" d="M555.51,-807.7C555.41,-800.41 555.28,-791.73 555.17,-783.54"/>
<polygon fill="black" stroke="black" points="558.67,-783.57 555.03,-773.62 551.67,-783.67 558.67,-783.57"/>
</g>
<!-- frictionqpotspringblock -->
<g id="node19" class="node">
<title>frictionqpotspringblock</title>
<g id="a_node19"><a xlink:href="https://github.com/conda-forge/frictionqpotspringblock-feedstock" xlink:title="frictionqpotspringblock">
<ellipse fill="#fde725" stroke="black" cx="790.76" cy="-754" rx="128.55" ry="18"/>
<text xml:space="preserve" text-anchor="middle" x="790.76" y="-749.33" font-family="Times,serif" font-size="14.00">frictionqpotspringblock</text>
</a>
</g>
</g>
<!-- goosefem&#45;&gt;frictionqpotspringblock -->
<g id="edge13" class="edge">
<title>goosefem&#45;&gt;frictionqpotspringblock</title>
<path fill="none" stroke="black" d="M601.35,-811.42C637.1,-800.77 687.27,-785.83 727,-773.99"/>
<polygon fill="black" stroke="black" points="727.87,-777.38 736.46,-771.18 725.88,-770.68 727.87,-777.38"/>
</g>
<!-- mi&#45;fieldcalc -->
<g id="node28" class="node">
<title>mi&#45;fieldcalc</title>
<g id="a_node28"><a xlink:href="https://github.com/conda-forge/mi-fieldcalc-feedstock/pull/13" xlink:title="mi fieldcalc ❎">
<ellipse fill="#31688e" stroke="black" cx="1330.76" cy="-754" rx="83.3" ry="18"/>
<text xml:space="preserve" text-anchor="middle" x="1330.76" y="-749.33" font-family="Times,serif" font-size="14.00" fill="white">mi fieldcalc ❎</text>
</a>
</g>
</g>
<!-- fimex&#45;&gt;mi&#45;fieldcalc -->
<!-- gmattensor -->
<g id="node21" class="node">
<title>gmattensor</title>
<g id="a_node21"><a xlink:href="https://github.com/conda-forge/gmattensor-feedstock/pull/42" xlink:title="gmattensor ❎">
<ellipse fill="#31688e" stroke="black" cx="532.76" cy="-970" rx="84.35" ry="18"/>
<text xml:space="preserve" text-anchor="middle" x="532.76" y="-965.33" font-family="Times,serif" font-size="14.00" fill="white">gmattensor ❎</text>
</a>
</g>
</g>
<!-- gmattensor&#45;&gt;gmatelastoplastic -->
<g id="edge15" class="edge">
<title>gmattensor&#45;&gt;gmatelastoplastic</title>
<path fill="none" stroke="black" d="M449.02,-967.03C364.28,-963.06 241.63,-951.21 211.76,-916 182.72,-881.77 236.97,-857.53 288.54,-843.08"/>
<polygon fill="black" stroke="black" points="289.26,-846.51 298.01,-840.54 287.44,-839.75 289.26,-846.51"/>
</g>
<!-- gmattensor&#45;&gt;gmatelastoplasticqpot -->
<g id="edge16" class="edge">
<title>gmattensor&#45;&gt;gmatelastoplasticqpot</title>
<path fill="none" stroke="black" d="M454.73,-962.78C370.4,-954.99 242.35,-939.69 199.76,-916 173.52,-901.4 152.03,-874.24 138.49,-853.74"/>
<polygon fill="black" stroke="black" points="141.62,-852.14 133.3,-845.58 135.71,-855.9 141.62,-852.14"/>
</g>
<!-- gmattensor&#45;&gt;gmatelastoplasticfinitestrainsimo -->
<g id="edge17" class="edge">
<title>gmattensor&#45;&gt;gmatelastoplasticfinitestrainsimo</title>
<path fill="none" stroke="black" d="M502.25,-952.94C484.43,-943.57 461.69,-931.6 442.16,-921.32"/>
<polygon fill="black" stroke="black" points="443.8,-918.23 433.33,-916.67 440.54,-924.42 443.8,-918.23"/>
</g>
<!-- gmattensor&#45;&gt;gmatnonlinearelastic -->
<g id="edge18" class="edge">
<title>gmattensor&#45;&gt;gmatnonlinearelastic</title>
<path fill="none" stroke="black" d="M602.94,-959.66C657.11,-951.01 726.03,-936.41 745.76,-916 761.13,-900.1 765.37,-874.99 766.06,-855.49"/>
<polygon fill="black" stroke="black" points="769.56,-855.72 766.09,-845.71 762.56,-855.7 769.56,-855.72"/>
</g>
<!-- gmattensor&#45;&gt;gmatelastic -->
<g id="edge19" class="edge">
<title>gmattensor&#45;&gt;gmatelastic</title>
<path fill="none" stroke="black" d="M563.5,-952.94C582.32,-943.11 606.6,-930.43 626.89,-919.83"/>
<polygon fill="black" stroke="black" points="628.5,-922.94 635.74,-915.2 625.26,-916.73 628.5,-922.94"/>
</g>
<!-- gmattensor&#45;&gt;frictionqpotspringblock -->
<g id="edge20" class="edge">
<title>gmattensor&#45;&gt;frictionqpotspringblock</title>
<path fill="none" stroke="black" d="M601.84,-959.33C649.81,-951.22 714.59,-937.45 768.76,-916 827.3,-892.82 859.54,-898.68 890.76,-844 898.69,-830.11 899.01,-821.71 890.76,-808 882.32,-793.98 868.79,-783.47 854.37,-775.68"/>
<polygon fill="black" stroke="black" points="856.18,-772.66 845.66,-771.37 853.08,-778.94 856.18,-772.66"/>
</g>
<!-- cppe -->
<g id="node22" class="node">
<title>cppe</title>
<g id="a_node22"><a xlink:href="https://github.com/conda-forge/cppe-feedstock/pull/27" xlink:title="cppe ✓">
<ellipse fill="#31688e" stroke="black" cx="1421.76" cy="-314" rx="42.79" ry="18"/>
<text xml:space="preserve" text-anchor="middle" x="1421.76" y="-309.32" font-family="Times,serif" font-size="14.00" fill="white">cppe ✓</text>
</a>
</g>
</g>
<!-- veloxchem -->
<g id="node23" class="node">
<title>veloxchem</title>
<g id="a_node23"><a xlink:href="https://github.com/conda-forge/veloxchem-feedstock" xlink:title="veloxchem">
<ellipse fill="#fde725" stroke="black" cx="1421.76" cy="-242" rx="64.36" ry="18"/>
<text xml:space="preserve" text-anchor="middle" x="1421.76" y="-237.32" font-family="Times,serif" font-size="14.00">veloxchem</text>
</a>
</g>
</g>
<!-- cppe&#45;&gt;veloxchem -->
<g id="edge21" class="edge">
<title>cppe&#45;&gt;veloxchem</title>
<path fill="none" stroke="black" d="M1421.76,-295.7C1421.76,-288.41 1421.76,-279.73 1421.76,-271.54"/>
<polygon fill="black" stroke="black" points="1425.26,-271.62 1421.76,-261.62 1418.26,-271.62 1425.26,-271.62"/>
</g>
<!-- psi4 -->
<g id="node24" class="node">
<title>psi4</title>
<g id="a_node24"><a xlink:href="https://github.com/conda-forge/psi4-feedstock" xlink:title="psi4">
<ellipse fill="#fde725" stroke="black" cx="1305.76" cy="-242" rx="32.27" ry="18"/>
<text xml:space="preserve" text-anchor="middle" x="1305.76" y="-237.32" font-family="Times,serif" font-size="14.00">psi4</text>
</a>
</g>
</g>
<!-- cppe&#45;&gt;psi4 -->
<g id="edge22" class="edge">
<title>cppe&#45;&gt;psi4</title>
<path fill="none" stroke="black" d="M1398.01,-298.67C1380.36,-288.02 1356.13,-273.4 1336.94,-261.81"/>
<polygon fill="black" stroke="black" points="1338.8,-258.85 1328.43,-256.68 1335.19,-264.85 1338.8,-258.85"/>
</g>
<!-- forte -->
<g id="node25" class="node">
<title>forte</title>
<g id="a_node25"><a xlink:href="https://github.com/conda-forge/forte-feedstock" xlink:title="forte">
<ellipse fill="#fde725" stroke="black" cx="1305.76" cy="-170" rx="35.42" ry="18"/>
<text xml:space="preserve" text-anchor="middle" x="1305.76" y="-165.32" font-family="Times,serif" font-size="14.00">forte</text>
</a>
</g>
</g>
<!-- psi4&#45;&gt;forte -->
<g id="edge23" class="edge">
<title>psi4&#45;&gt;forte</title>
<path fill="none" stroke="black" d="M1305.76,-223.7C1305.76,-216.41 1305.76,-207.73 1305.76,-199.54"/>
<polygon fill="black" stroke="black" points="1309.26,-199.62 1305.76,-189.62 1302.26,-199.62 1309.26,-199.62"/>
</g>
<!-- heyoka.py -->
<g id="node26" class="node">
<title>heyoka.py</title>
<g id="a_node26"><a xlink:href="https://github.com/conda-forge/heyoka.py-feedstock/pull/108" xlink:title="heyoka py ❎">
<ellipse fill="#31688e" stroke="black" cx="583.76" cy="-90" rx="76.99" ry="18"/>
<text xml:space="preserve" text-anchor="middle" x="583.76" y="-85.33" font-family="Times,serif" font-size="14.00" fill="white">heyoka py ❎</text>
</a>
</g>
</g>
<!-- cascade -->
<g id="node27" class="node">
<title>cascade</title>
<g id="a_node27"><a xlink:href="https://github.com/conda-forge/cascade-feedstock" xlink:title="cascade">
<ellipse fill="#fde725" stroke="black" cx="583.76" cy="-18" rx="50.68" ry="18"/>
<text xml:space="preserve" text-anchor="middle" x="583.76" y="-13.32" font-family="Times,serif" font-size="14.00">cascade</text>
</a>
</g>
</g>
<!-- heyoka.py&#45;&gt;cascade -->
<g id="edge24" class="edge">
<title>heyoka.py&#45;&gt;cascade</title>
<path fill="none" stroke="black" d="M583.76,-71.7C583.76,-64.41 583.76,-55.73 583.76,-47.54"/>
<polygon fill="black" stroke="black" points="587.26,-47.62 583.76,-37.62 580.26,-47.62 587.26,-47.62"/>
</g>
<!-- timemory -->
<g id="node31" class="node">
<title>timemory</title>
<g id="a_node31"><a xlink:href="https://github.com/conda-forge/timemory-feedstock/pull/22" xlink:title="timemory ❎">
<ellipse fill="#31688e" stroke="black" cx="1330.76" cy="-682" rx="74.88" ry="18"/>
<text xml:space="preserve" text-anchor="middle" x="1330.76" y="-677.33" font-family="Times,serif" font-size="14.00" fill="white">timemory ❎</text>
</a>
</g>
</g>
<!-- mi&#45;fieldcalc&#45;&gt;timemory -->
<!-- prrng -->
<g id="node29" class="node">
<title>prrng</title>
<g id="a_node29"><a xlink:href="https://github.com/conda-forge/prrng-feedstock/pull/67" xlink:title="prrng ❎">
<ellipse fill="#31688e" stroke="black" cx="993.76" cy="-826" rx="54.89" ry="18"/>
<text xml:space="preserve" text-anchor="middle" x="993.76" y="-821.33" font-family="Times,serif" font-size="14.00" fill="white">prrng ❎</text>
</a>
</g>
</g>
<!-- prrng&#45;&gt;gooseeye -->
<g id="edge26" class="edge">
<title>prrng&#45;&gt;gooseeye</title>
<path fill="none" stroke="black" d="M994.01,-807.7C994.11,-800.41 994.24,-791.73 994.35,-783.54"/>
<polygon fill="black" stroke="black" points="997.85,-783.67 994.49,-773.62 990.85,-783.57 997.85,-783.67"/>
</g>
<!-- prrng&#45;&gt;frictionqpotfem -->
<g id="edge27" class="edge">
<title>prrng&#45;&gt;frictionqpotfem</title>
<path fill="none" stroke="black" d="M945.57,-816.91C928.29,-814.04 908.66,-810.83 890.76,-808 785.09,-791.29 758.36,-789.14 652.76,-772 645.88,-770.88 638.73,-769.7 631.58,-768.49"/>
<polygon fill="black" stroke="black" points="632.29,-765.06 621.85,-766.83 631.12,-771.96 632.29,-765.06"/>
</g>
<!-- prrng&#45;&gt;frictionqpotspringblock -->
<g id="edge28" class="edge">
<title>prrng&#45;&gt;frictionqpotspringblock</title>
<path fill="none" stroke="black" d="M957,-812.32C926.66,-801.86 883.08,-786.83 848.15,-774.79"/>
<polygon fill="black" stroke="black" points="849.64,-771.6 839.04,-771.65 847.35,-778.22 849.64,-771.6"/>
</g>
<!-- gooseepm&#45;split -->
<g id="node30" class="node">
<title>gooseepm&#45;split</title>
<g id="a_node30"><a xlink:href="https://github.com/conda-forge/gooseepm-split-feedstock" xlink:title="gooseepm split">
<ellipse fill="#fde725" stroke="black" cx="1080.76" cy="-682" rx="86.98" ry="18"/>
<text xml:space="preserve" text-anchor="middle" x="1080.76" y="-677.33" font-family="Times,serif" font-size="14.00">gooseepm split</text>
</a>
</g>
</g>
<!-- prrng&#45;&gt;gooseepm&#45;split -->
<g id="edge29" class="edge">
<title>prrng&#45;&gt;gooseepm&#45;split</title>
<path fill="none" stroke="black" d="M1021.15,-810.03C1035.38,-800.86 1051.83,-787.86 1061.76,-772 1073.11,-753.88 1077.77,-730.04 1079.64,-711.59"/>
<polygon fill="black" stroke="black" points="1083.11,-712.12 1080.39,-701.88 1076.13,-711.58 1083.11,-712.12"/>
</g>
<!-- fretraj -->
<g id="node33" class="node">
<title>fretraj</title>
<g id="a_node33"><a xlink:href="https://github.com/conda-forge/fretraj-feedstock/pull/12" xlink:title="fretraj ✓">
<ellipse fill="#31688e" stroke="black" cx="1330.76" cy="-610" rx="51.21" ry="18"/>
<text xml:space="preserve" text-anchor="middle" x="1330.76" y="-605.33" font-family="Times,serif" font-size="14.00" fill="white">fretraj ✓</text>
</a>
</g>
</g>
<!-- timemory&#45;&gt;fretraj -->
<!-- optima -->
<g id="node32" class="node">
<title>optima</title>
<g id="a_node32"><a xlink:href="https://github.com/conda-forge/optima-feedstock/pull/44" xlink:title="optima ❎">
<ellipse fill="#31688e" stroke="black" cx="1654.76" cy="-898" rx="61.2" ry="18"/>
<text xml:space="preserve" text-anchor="middle" x="1654.76" y="-893.33" font-family="Times,serif" font-size="14.00" fill="white">optima ❎</text>
</a>
</g>
</g>
<!-- optima&#45;&gt;reaktoro -->
<g id="edge31" class="edge">
<title>optima&#45;&gt;reaktoro</title>
<path fill="none" stroke="black" d="M1656.28,-879.85C1659.54,-843.14 1667.22,-756.66 1671.23,-711.53"/>
<polygon fill="black" stroke="black" points="1674.7,-712.01 1672.1,-701.74 1667.73,-711.39 1674.7,-712.01"/>
</g>
<!-- copc&#45;lib -->
<g id="node34" class="node">
<title>copc&#45;lib</title>
<g id="a_node34"><a xlink:href="https://github.com/conda-forge/copc-lib-feedstock/pull/35" xlink:title="copc lib ✓">
<ellipse fill="#31688e" stroke="black" cx="1330.76" cy="-538" rx="57.52" ry="18"/>
<text xml:space="preserve" text-anchor="middle" x="1330.76" y="-533.33" font-family="Times,serif" font-size="14.00" fill="white">copc lib ✓</text>
</a>
</g>
</g>
<!-- fretraj&#45;&gt;copc&#45;lib -->
<!-- ocp -->
<g id="node35" class="node">
<title>ocp</title>
<g id="a_node35"><a xlink:href="https://github.com/conda-forge/ocp-feedstock/pull/66" xlink:title="ocp ❎">
<ellipse fill="#31688e" stroke="black" cx="1330.76" cy="-466" rx="43.84" ry="18"/>
<text xml:space="preserve" text-anchor="middle" x="1330.76" y="-461.32" font-family="Times,serif" font-size="14.00" fill="white">ocp ❎</text>
</a>
</g>
</g>
<!-- copc&#45;lib&#45;&gt;ocp -->
<!-- scine&#45;utilities&#45;python -->
<g id="node36" class="node">
<title>scine&#45;utilities&#45;python</title>
<g id="a_node36"><a xlink:href="https://github.com/conda-forge/scine-utilities-python-feedstock/pull/21" xlink:title="scine utilities python ❎">
<ellipse fill="#31688e" stroke="black" cx="545.76" cy="-386" rx="131.7" ry="18"/>
<text xml:space="preserve" text-anchor="middle" x="545.76" y="-381.32" font-family="Times,serif" font-size="14.00" fill="white">scine utilities python ❎</text>
</a>
</g>
</g>
<!-- scine&#45;readuct -->
<g id="node37" class="node">
<title>scine&#45;readuct</title>
<g id="a_node37"><a xlink:href="https://github.com/conda-forge/scine-readuct-feedstock" xlink:title="scine readuct">
<ellipse fill="#fde725" stroke="black" cx="438.76" cy="-314" rx="78.57" ry="18"/>
<text xml:space="preserve" text-anchor="middle" x="438.76" y="-309.32" font-family="Times,serif" font-size="14.00">scine readuct</text>
</a>
</g>
</g>
<!-- scine&#45;utilities&#45;python&#45;&gt;scine&#45;readuct -->
<g id="edge35" class="edge">
<title>scine&#45;utilities&#45;python&#45;&gt;scine&#45;readuct</title>
<path fill="none" stroke="black" d="M519.58,-367.88C505.68,-358.78 488.41,-347.48 473.4,-337.66"/>
<polygon fill="black" stroke="black" points="475.48,-334.84 465.19,-332.29 471.65,-340.7 475.48,-334.84"/>
</g>
<!-- scine&#45;database&#45;python -->
<g id="node38" class="node">
<title>scine&#45;database&#45;python</title>
<g id="a_node38"><a xlink:href="https://github.com/conda-forge/scine-database-python-feedstock" xlink:title="scine database python">
<ellipse fill="#fde725" stroke="black" cx="545.76" cy="-242" rx="123.29" ry="18"/>
<text xml:space="preserve" text-anchor="middle" x="545.76" y="-237.32" font-family="Times,serif" font-size="14.00">scine database python</text>
</a>
</g>
</g>
<!-- scine&#45;utilities&#45;python&#45;&gt;scine&#45;database&#45;python -->
<g id="edge36" class="edge">
<title>scine&#45;utilities&#45;python&#45;&gt;scine&#45;database&#45;python</title>
<path fill="none" stroke="black" d="M545.76,-367.59C545.76,-343.61 545.76,-300.14 545.76,-271.42"/>
<polygon fill="black" stroke="black" points="549.26,-271.62 545.76,-261.62 542.26,-271.62 549.26,-271.62"/>
</g>
<!-- scine&#45;molassembler -->
<g id="node39" class="node">
<title>scine&#45;molassembler</title>
<g id="a_node39"><a xlink:href="https://github.com/conda-forge/scine-molassembler-feedstock" xlink:title="scine molassembler">
<ellipse fill="#fde725" stroke="black" cx="696.76" cy="-170" rx="110.13" ry="18"/>
<text xml:space="preserve" text-anchor="middle" x="696.76" y="-165.32" font-family="Times,serif" font-size="14.00">scine molassembler</text>
</a>
</g>
</g>
<!-- scine&#45;utilities&#45;python&#45;&gt;scine&#45;molassembler -->
<g id="edge37" class="edge">
<title>scine&#45;utilities&#45;python&#45;&gt;scine&#45;molassembler</title>
<path fill="none" stroke="black" d="M571.55,-368C601.91,-346.56 651.5,-306.79 677.76,-260 688.11,-241.55 692.83,-218.06 694.98,-199.84"/>
<polygon fill="black" stroke="black" points="698.46,-200.26 695.93,-189.97 691.49,-199.59 698.46,-200.26"/>
</g>
<!-- diplib -->
<g id="node40" class="node">
<title>diplib</title>
<g id="a_node40"><a xlink:href="https://github.com/conda-forge/diplib-feedstock/pull/19" xlink:title="diplib ✓">
<ellipse fill="#31688e" stroke="black" cx="1687.76" cy="-422" rx="47.53" ry="18"/>
<text xml:space="preserve" text-anchor="middle" x="1687.76" y="-417.32" font-family="Times,serif" font-size="14.00" fill="white">diplib ✓</text>
</a>
</g>
</g>
<!-- hoomd&#45;dlext -->
<g id="node41" class="node">
<title>hoomd&#45;dlext</title>
<g id="a_node41"><a xlink:href="https://github.com/conda-forge/hoomd-dlext-feedstock/pull/17" xlink:title="hoomd dlext ❎">
<ellipse fill="#31688e" stroke="black" cx="1687.76" cy="-350" rx="88.56" ry="18"/>
<text xml:space="preserve" text-anchor="middle" x="1687.76" y="-345.32" font-family="Times,serif" font-size="14.00" fill="white">hoomd dlext ❎</text>
</a>
</g>
</g>
<!-- diplib&#45;&gt;hoomd&#45;dlext -->
<!-- libthermo -->
<g id="node43" class="node">
<title>libthermo</title>
<g id="a_node43"><a xlink:href="https://github.com/conda-forge/libthermo-feedstock/pull/20" xlink:title="libthermo ❎">
<ellipse fill="#31688e" stroke="black" cx="1687.76" cy="-278" rx="75.41" ry="18"/>
<text xml:space="preserve" text-anchor="middle" x="1687.76" y="-273.32" font-family="Times,serif" font-size="14.00" fill="white">libthermo ❎</text>
</a>
</g>
</g>
<!-- hoomd&#45;dlext&#45;&gt;libthermo -->
<!-- reaktplot -->
<g id="node42" class="node">
<title>reaktplot</title>
<g id="a_node42"><a xlink:href="https://github.com/conda-forge/reaktplot-feedstock/pull/13" xlink:title="reaktplot ❎">
<ellipse fill="#31688e" stroke="black" cx="1565.76" cy="-970" rx="72.25" ry="18"/>
<text xml:space="preserve" text-anchor="middle" x="1565.76" y="-965.33" font-family="Times,serif" font-size="14.00" fill="white">reaktplot ❎</text>
</a>
</g>
</g>
<!-- reaktplot&#45;&gt;reaktoro -->
<g id="edge39" class="edge">
<title>reaktplot&#45;&gt;reaktoro</title>
<path fill="none" stroke="black" d="M1568.33,-951.65C1571.29,-933.5 1576.77,-904.32 1584.76,-880 1605.38,-817.2 1639.75,-747.57 1659.19,-710.23"/>
<polygon fill="black" stroke="black" points="1662.23,-711.98 1663.78,-701.5 1656.03,-708.72 1662.23,-711.98"/>
</g>
<!-- tensorstore -->
<g id="node44" class="node">
<title>tensorstore</title>
<g id="a_node44"><a xlink:href="https://github.com/conda-forge/tensorstore-feedstock/pull/57" xlink:title="tensorstore ❎">
<ellipse fill="#31688e" stroke="black" cx="1687.76" cy="-206" rx="84.35" ry="18"/>
<text xml:space="preserve" text-anchor="middle" x="1687.76" y="-201.33" font-family="Times,serif" font-size="14.00" fill="white">tensorstore ❎</text>
</a>
</g>
</g>
<!-- libthermo&#45;&gt;tensorstore -->
<!-- qsimcirq -->
<g id="node47" class="node">
<title>qsimcirq</title>
<g id="a_node47"><a xlink:href="https://github.com/conda-forge/qsimcirq-feedstock/pull/30" xlink:title="qsimcirq ❎">
<ellipse fill="#31688e" stroke="black" cx="1687.76" cy="-134" rx="70.15" ry="18"/>
<text xml:space="preserve" text-anchor="middle" x="1687.76" y="-129.32" font-family="Times,serif" font-size="14.00" fill="white">qsimcirq ❎</text>
</a>
</g>
</g>
<!-- tensorstore&#45;&gt;qsimcirq -->
<!-- libefp -->
<g id="node45" class="node">
<title>libefp</title>
<g id="a_node45"><a xlink:href="https://github.com/conda-forge/libefp-feedstock/pull/11" xlink:title="libefp ❎">
<ellipse fill="#31688e" stroke="black" cx="1305.76" cy="-314" rx="54.89" ry="18"/>
<text xml:space="preserve" text-anchor="middle" x="1305.76" y="-309.32" font-family="Times,serif" font-size="14.00" fill="white">libefp ❎</text>
</a>
</g>
</g>
<!-- libefp&#45;&gt;psi4 -->
<g id="edge42" class="edge">
<title>libefp&#45;&gt;psi4</title>
<path fill="none" stroke="black" d="M1305.76,-295.7C1305.76,-288.41 1305.76,-279.73 1305.76,-271.54"/>
<polygon fill="black" stroke="black" points="1309.26,-271.62 1305.76,-261.62 1302.26,-271.62 1309.26,-271.62"/>
</g>
<!-- gdma -->
<g id="node46" class="node">
<title>gdma</title>
<g id="a_node46"><a xlink:href="https://github.com/conda-forge/gdma-feedstock/pull/13" xlink:title="gdma ✓">
<ellipse fill="#31688e" stroke="black" cx="1222.76" cy="-386" rx="47" ry="18"/>
<text xml:space="preserve" text-anchor="middle" x="1222.76" y="-381.32" font-family="Times,serif" font-size="14.00" fill="white">gdma ✓</text>
</a>
</g>
</g>
<!-- gdma&#45;&gt;psi4 -->
<g id="edge43" class="edge">
<title>gdma&#45;&gt;psi4</title>
<path fill="none" stroke="black" d="M1223.13,-367.71C1224.26,-348.82 1228.25,-318.3 1241.76,-296 1249.9,-282.56 1262.69,-270.97 1274.71,-262.08"/>
<polygon fill="black" stroke="black" points="1276.64,-265.01 1282.84,-256.41 1272.63,-259.26 1276.64,-265.01"/>
</g>
</g>
</svg>
