<?xml version="1.0" encoding="UTF-8" standalone="no"?>
<!DOCTYPE svg PUBLIC "-//W3C//DTD SVG 1.1//EN"
 "http://www.w3.org/Graphics/SVG/1.1/DTD/svg11.dtd">
<!-- Generated by graphviz version 13.1.2 (20250809.0930)
 -->
<!-- Pages: 1 -->
<svg width="1731pt" height="1140pt"
 viewBox="0.00 0.00 1731.00 1140.00" xmlns="http://www.w3.org/2000/svg" xmlns:xlink="http://www.w3.org/1999/xlink">
<g id="graph0" class="graph" transform="scale(1 1) rotate(0) translate(4 1136)">
<polygon fill="white" stroke="none" points="-4,4 -4,-1136 1726.99,-1136 1726.99,4 -4,4"/>
<!-- pyaudi -->
<g id="node1" class="node">
<title>pyaudi</title>
<g id="a_node1"><a xlink:href="https://github.com/conda-forge/pyaudi-feedstock/pull/49" xlink:title="pyaudi ✓">
<ellipse fill="#31688e" stroke="black" cx="504.1" cy="-90" rx="52.79" ry="18"/>
<text xml:space="preserve" text-anchor="middle" x="504.1" y="-85.33" font-family="Times,serif" font-size="14.00" fill="white">pyaudi ✓</text>
</a>
</g>
</g>
<!-- dcgp&#45;python -->
<g id="node2" class="node">
<title>dcgp&#45;python</title>
<g id="a_node2"><a xlink:href="https://github.com/conda-forge/dcgp-python-feedstock" xlink:title="dcgp python">
<ellipse fill="#fde725" stroke="black" cx="504.1" cy="-18" rx="73.3" ry="18"/>
<text xml:space="preserve" text-anchor="middle" x="504.1" y="-13.32" font-family="Times,serif" font-size="14.00">dcgp python</text>
</a>
</g>
</g>
<!-- pyaudi&#45;&gt;dcgp&#45;python -->
<g id="edge1" class="edge">
<title>pyaudi&#45;&gt;dcgp&#45;python</title>
<path fill="none" stroke="black" d="M504.1,-71.7C504.1,-64.41 504.1,-55.73 504.1,-47.54"/>
<polygon fill="black" stroke="black" points="507.6,-47.62 504.1,-37.62 500.6,-47.62 507.6,-47.62"/>
</g>
<!-- fastscapelib -->
<g id="node3" class="node">
<title>fastscapelib</title>
<g id="a_node3"><a xlink:href="https://github.com/conda-forge/fastscapelib-feedstock/pull/22" xlink:title="fastscapelib ❎">
<ellipse fill="#31688e" stroke="black" cx="1171.1" cy="-1114" rx="86.46" ry="18"/>
<text xml:space="preserve" text-anchor="middle" x="1171.1" y="-1109.33" font-family="Times,serif" font-size="14.00" fill="white">fastscapelib ❎</text>
</a>
</g>
</g>
<!-- cppcolormap -->
<g id="node4" class="node">
<title>cppcolormap</title>
<g id="a_node4"><a xlink:href="https://github.com/conda-forge/cppcolormap-feedstock/pull/35" xlink:title="cppcolormap ❎">
<ellipse fill="#31688e" stroke="black" cx="1171.1" cy="-1042" rx="90.67" ry="18"/>
<text xml:space="preserve" text-anchor="middle" x="1171.1" y="-1037.33" font-family="Times,serif" font-size="14.00" fill="white">cppcolormap ❎</text>
</a>
</g>
</g>
<!-- fastscapelib&#45;&gt;cppcolormap -->
<!-- gnuradio -->
<g id="node8" class="node">
<title>gnuradio</title>
<g id="a_node8"><a xlink:href="https://github.com/conda-forge/gnuradio-feedstock/pull/301" xlink:title="gnuradio ❎">
<ellipse fill="#31688e" stroke="black" cx="1171.1" cy="-970" rx="71.2" ry="18"/>
<text xml:space="preserve" text-anchor="middle" x="1171.1" y="-965.33" font-family="Times,serif" font-size="14.00" fill="white">gnuradio ❎</text>
</a>
</g>
</g>
<!-- cppcolormap&#45;&gt;gnuradio -->
<!-- reaktoro -->
<g id="node5" class="node">
<title>reaktoro</title>
<g id="a_node5"><a xlink:href="https://github.com/conda-forge/reaktoro-feedstock" xlink:title="reaktoro">
<ellipse fill="#fde725" stroke="black" cx="1515.1" cy="-610" rx="53.84" ry="18"/>
<text xml:space="preserve" text-anchor="middle" x="1515.1" y="-605.33" font-family="Times,serif" font-size="14.00">reaktoro</text>
</a>
</g>
</g>
<!-- autodiff -->
<g id="node6" class="node">
<title>autodiff</title>
<g id="a_node6"><a xlink:href="https://github.com/conda-forge/autodiff-feedstock/pull/65" xlink:title="autodiff ❎">
<ellipse fill="#31688e" stroke="black" cx="1658.1" cy="-682" rx="64.89" ry="18"/>
<text xml:space="preserve" text-anchor="middle" x="1658.1" y="-677.33" font-family="Times,serif" font-size="14.00" fill="white">autodiff ❎</text>
</a>
</g>
</g>
<!-- autodiff&#45;&gt;reaktoro -->
<g id="edge3" class="edge">
<title>autodiff&#45;&gt;reaktoro</title>
<path fill="none" stroke="black" d="M1627.08,-665.81C1605.85,-655.42 1577.52,-641.55 1554.67,-630.37"/>
<polygon fill="black" stroke="black" points="1556.49,-627.36 1545.97,-626.11 1553.41,-633.65 1556.49,-627.36"/>
</g>
<!-- thermofun -->
<g id="node7" class="node">
<title>thermofun</title>
<g id="a_node7"><a xlink:href="https://github.com/conda-forge/thermofun-feedstock/pull/62" xlink:title="thermofun ✓">
<ellipse fill="#31688e" stroke="black" cx="1596.1" cy="-754" rx="71.73" ry="18"/>
<text xml:space="preserve" text-anchor="middle" x="1596.1" y="-749.33" font-family="Times,serif" font-size="14.00" fill="white">thermofun ✓</text>
</a>
</g>
</g>
<!-- thermofun&#45;&gt;reaktoro -->
<g id="edge4" class="edge">
<title>thermofun&#45;&gt;reaktoro</title>
<path fill="none" stroke="black" d="M1586.33,-735.87C1572.47,-711.56 1546.94,-666.82 1530.51,-638.01"/>
<polygon fill="black" stroke="black" points="1533.65,-636.46 1525.66,-629.5 1527.57,-639.92 1533.65,-636.46"/>
</g>
<!-- xcfun -->
<g id="node10" class="node">
<title>xcfun</title>
<g id="a_node10"><a xlink:href="https://github.com/conda-forge/xcfun-feedstock/pull/20" xlink:title="xcfun ❎">
<ellipse fill="#31688e" stroke="black" cx="1171.1" cy="-898" rx="53.84" ry="18"/>
<text xml:space="preserve" text-anchor="middle" x="1171.1" y="-893.33" font-family="Times,serif" font-size="14.00" fill="white">xcfun ❎</text>
</a>
</g>
</g>
<!-- gnuradio&#45;&gt;xcfun -->
<!-- gooseeye -->
<g id="node9" class="node">
<title>gooseeye</title>
<g id="a_node9"><a xlink:href="https://github.com/conda-forge/gooseeye-feedstock" xlink:title="gooseeye">
<ellipse fill="#fde725" stroke="black" cx="835.1" cy="-682" rx="57.52" ry="18"/>
<text xml:space="preserve" text-anchor="middle" x="835.1" y="-677.33" font-family="Times,serif" font-size="14.00">gooseeye</text>
</a>
</g>
</g>
<!-- timemory -->
<g id="node19" class="node">
<title>timemory</title>
<g id="a_node19"><a xlink:href="https://github.com/conda-forge/timemory-feedstock/pull/22" xlink:title="timemory ❎">
<ellipse fill="#31688e" stroke="black" cx="1171.1" cy="-826" rx="74.88" ry="18"/>
<text xml:space="preserve" text-anchor="middle" x="1171.1" y="-821.33" font-family="Times,serif" font-size="14.00" fill="white">timemory ❎</text>
</a>
</g>
</g>
<!-- xcfun&#45;&gt;timemory -->
<!-- gmatelastoplasticqpot -->
<g id="node11" class="node">
<title>gmatelastoplasticqpot</title>
<g id="a_node11"><a xlink:href="https://github.com/conda-forge/gmatelastoplasticqpot-feedstock" xlink:title="gmatelastoplasticqpot">
<ellipse fill="#fde725" stroke="black" cx="182.1" cy="-754" rx="122.76" ry="18"/>
<text xml:space="preserve" text-anchor="middle" x="182.1" y="-749.33" font-family="Times,serif" font-size="14.00">gmatelastoplasticqpot</text>
</a>
</g>
</g>
<!-- frictionqpotfem -->
<g id="node12" class="node">
<title>frictionqpotfem</title>
<g id="a_node12"><a xlink:href="https://github.com/conda-forge/frictionqpotfem-feedstock" xlink:title="frictionqpotfem">
<ellipse fill="#fde725" stroke="black" cx="289.1" cy="-682" rx="89.09" ry="18"/>
<text xml:space="preserve" text-anchor="middle" x="289.1" y="-677.33" font-family="Times,serif" font-size="14.00">frictionqpotfem</text>
</a>
</g>
</g>
<!-- gmatelastoplasticqpot&#45;&gt;frictionqpotfem -->
<g id="edge7" class="edge">
<title>gmatelastoplasticqpot&#45;&gt;frictionqpotfem</title>
<path fill="none" stroke="black" d="M208.01,-736.05C221.91,-726.96 239.23,-715.63 254.3,-705.77"/>
<polygon fill="black" stroke="black" points="256.09,-708.78 262.54,-700.38 252.26,-702.92 256.09,-708.78"/>
</g>
<!-- gmatelastoplasticfinitestrainsimo -->
<g id="node13" class="node">
<title>gmatelastoplasticfinitestrainsimo</title>
<g id="a_node13"><a xlink:href="https://github.com/conda-forge/gmatelastoplasticfinitestrainsimo-feedstock" xlink:title="gmatelastoplasticfinitestrainsimo">
<ellipse fill="#fde725" stroke="black" cx="545.1" cy="-826" rx="179.05" ry="18"/>
<text xml:space="preserve" text-anchor="middle" x="545.1" y="-821.33" font-family="Times,serif" font-size="14.00">gmatelastoplasticfinitestrainsimo</text>
</a>
</g>
</g>
<!-- gmatnonlinearelastic -->
<g id="node14" class="node">
<title>gmatnonlinearelastic</title>
<g id="a_node14"><a xlink:href="https://github.com/conda-forge/gmatnonlinearelastic-feedstock" xlink:title="gmatnonlinearelastic">
<ellipse fill="#fde725" stroke="black" cx="606.1" cy="-754" rx="116.97" ry="18"/>
<text xml:space="preserve" text-anchor="middle" x="606.1" y="-749.33" font-family="Times,serif" font-size="14.00">gmatnonlinearelastic</text>
</a>
</g>
</g>
<!-- gmatelastic -->
<g id="node15" class="node">
<title>gmatelastic</title>
<g id="a_node15"><a xlink:href="https://github.com/conda-forge/gmatelastic-feedstock" xlink:title="gmatelastic">
<ellipse fill="#fde725" stroke="black" cx="240.1" cy="-826" rx="69.62" ry="18"/>
<text xml:space="preserve" text-anchor="middle" x="240.1" y="-821.33" font-family="Times,serif" font-size="14.00">gmatelastic</text>
</a>
</g>
</g>
<!-- gmatelastic&#45;&gt;gmatelastoplasticqpot -->
<g id="edge8" class="edge">
<title>gmatelastic&#45;&gt;gmatelastoplasticqpot</title>
<path fill="none" stroke="black" d="M226.06,-808.05C219.33,-799.92 211.1,-790 203.6,-780.94"/>
<polygon fill="black" stroke="black" points="206.46,-778.91 197.38,-773.44 201.07,-783.37 206.46,-778.91"/>
</g>
<!-- gmatelastic&#45;&gt;gmatnonlinearelastic -->
<g id="edge9" class="edge">
<title>gmatelastic&#45;&gt;gmatnonlinearelastic</title>
<path fill="none" stroke="black" d="M293.41,-814.1C303.59,-812.05 314.17,-809.94 324.1,-808 390.43,-795.06 465.65,-780.95 521.71,-770.54"/>
<polygon fill="black" stroke="black" points="522.33,-773.99 531.53,-768.72 521.06,-767.11 522.33,-773.99"/>
</g>
<!-- goosefem -->
<g id="node16" class="node">
<title>goosefem</title>
<g id="a_node16"><a xlink:href="https://github.com/conda-forge/goosefem-feedstock/pull/66" xlink:title="goosefem ❎">
<ellipse fill="#31688e" stroke="black" cx="397.1" cy="-754" rx="74.36" ry="18"/>
<text xml:space="preserve" text-anchor="middle" x="397.1" y="-749.33" font-family="Times,serif" font-size="14.00" fill="white">goosefem ❎</text>
</a>
</g>
</g>
<!-- goosefem&#45;&gt;frictionqpotfem -->
<g id="edge10" class="edge">
<title>goosefem&#45;&gt;frictionqpotfem</title>
<path fill="none" stroke="black" d="M372.06,-736.76C357.81,-727.53 339.76,-715.83 324.13,-705.7"/>
<polygon fill="black" stroke="black" points="326.33,-702.96 316.04,-700.46 322.52,-708.83 326.33,-702.96"/>
</g>
<!-- frictionqpotspringblock -->
<g id="node17" class="node">
<title>frictionqpotspringblock</title>
<g id="a_node17"><a xlink:href="https://github.com/conda-forge/frictionqpotspringblock-feedstock" xlink:title="frictionqpotspringblock">
<ellipse fill="#fde725" stroke="black" cx="631.1" cy="-682" rx="128.55" ry="18"/>
<text xml:space="preserve" text-anchor="middle" x="631.1" y="-677.33" font-family="Times,serif" font-size="14.00">frictionqpotspringblock</text>
</a>
</g>
</g>
<!-- goosefem&#45;&gt;frictionqpotspringblock -->
<g id="edge11" class="edge">
<title>goosefem&#45;&gt;frictionqpotspringblock</title>
<path fill="none" stroke="black" d="M442.5,-739.42C478.09,-728.77 528.06,-713.83 567.62,-701.99"/>
<polygon fill="black" stroke="black" points="568.45,-705.4 577.03,-699.18 566.44,-698.69 568.45,-705.4"/>
</g>
<!-- qpot -->
<g id="node18" class="node">
<title>qpot</title>
<g id="a_node18"><a xlink:href="https://github.com/conda-forge/qpot-feedstock/pull/58" xlink:title="qpot ❎">
<ellipse fill="#31688e" stroke="black" cx="49.1" cy="-826" rx="49.1" ry="18"/>
<text xml:space="preserve" text-anchor="middle" x="49.1" y="-821.33" font-family="Times,serif" font-size="14.00" fill="white">qpot ❎</text>
</a>
</g>
</g>
<!-- qpot&#45;&gt;gmatelastoplasticqpot -->
<g id="edge12" class="edge">
<title>qpot&#45;&gt;gmatelastoplasticqpot</title>
<path fill="none" stroke="black" d="M76.34,-810.67C94.76,-800.97 119.43,-787.98 140.32,-776.99"/>
<polygon fill="black" stroke="black" points="141.67,-780.24 148.89,-772.48 138.41,-774.04 141.67,-780.24"/>
</g>
<!-- qpot&#45;&gt;frictionqpotfem -->
<g id="edge13" class="edge">
<title>qpot&#45;&gt;frictionqpotfem</title>
<path fill="none" stroke="black" d="M43.58,-807.83C38.42,-788.19 33.74,-756.15 50.1,-736 68.82,-712.94 138.32,-699.27 197.58,-691.6"/>
<polygon fill="black" stroke="black" points="197.9,-695.09 207.4,-690.38 197.04,-688.14 197.9,-695.09"/>
</g>
<!-- fretraj -->
<g id="node30" class="node">
<title>fretraj</title>
<g id="a_node30"><a xlink:href="https://github.com/conda-forge/fretraj-feedstock/pull/12" xlink:title="fretraj ✓">
<ellipse fill="#31688e" stroke="black" cx="1171.1" cy="-754" rx="51.21" ry="18"/>
<text xml:space="preserve" text-anchor="middle" x="1171.1" y="-749.33" font-family="Times,serif" font-size="14.00" fill="white">fretraj ✓</text>
</a>
</g>
</g>
<!-- timemory&#45;&gt;fretraj -->
<!-- gmattensor -->
<g id="node20" class="node">
<title>gmattensor</title>
<g id="a_node20"><a xlink:href="https://github.com/conda-forge/gmattensor-feedstock/pull/42" xlink:title="gmattensor ❎">
<ellipse fill="#31688e" stroke="black" cx="338.1" cy="-898" rx="84.35" ry="18"/>
<text xml:space="preserve" text-anchor="middle" x="338.1" y="-893.33" font-family="Times,serif" font-size="14.00" fill="white">gmattensor ❎</text>
</a>
</g>
</g>
<!-- gmattensor&#45;&gt;gmatelastoplasticqpot -->
<g id="edge15" class="edge">
<title>gmattensor&#45;&gt;gmatelastoplasticqpot</title>
<path fill="none" stroke="black" d="M274.03,-886.08C229.18,-876.98 174.9,-862.53 161.1,-844 147.75,-826.06 155.46,-800.9 165.09,-781.91"/>
<polygon fill="black" stroke="black" points="168.01,-783.85 169.78,-773.41 161.89,-780.47 168.01,-783.85"/>
</g>
<!-- gmattensor&#45;&gt;gmatelastoplasticfinitestrainsimo -->
<g id="edge16" class="edge">
<title>gmattensor&#45;&gt;gmatelastoplasticfinitestrainsimo</title>
<path fill="none" stroke="black" d="M381.75,-882.24C411.7,-872.11 451.83,-858.54 484.82,-847.39"/>
<polygon fill="black" stroke="black" points="485.92,-850.71 494.27,-844.19 483.68,-844.08 485.92,-850.71"/>
</g>
<!-- gmattensor&#45;&gt;gmatnonlinearelastic -->
<g id="edge17" class="edge">
<title>gmattensor&#45;&gt;gmatnonlinearelastic</title>
<path fill="none" stroke="black" d="M336.65,-879.69C335.99,-859.62 338.22,-826.87 357.1,-808 368.6,-796.51 449.06,-780.73 515.45,-769.38"/>
<polygon fill="black" stroke="black" points="515.63,-772.9 524.91,-767.78 514.46,-766 515.63,-772.9"/>
</g>
<!-- gmattensor&#45;&gt;gmatelastic -->
<g id="edge18" class="edge">
<title>gmattensor&#45;&gt;gmatelastic</title>
<path fill="none" stroke="black" d="M314.88,-880.41C302.19,-871.34 286.27,-859.97 272.38,-850.06"/>
<polygon fill="black" stroke="black" points="274.57,-847.31 264.39,-844.35 270.5,-853.01 274.57,-847.31"/>
</g>
<!-- gmattensor&#45;&gt;frictionqpotspringblock -->
<g id="edge19" class="edge">
<title>gmattensor&#45;&gt;frictionqpotspringblock</title>
<path fill="none" stroke="black" d="M417.82,-891.86C527.21,-883.98 712.69,-867.34 733.1,-844 742.22,-833.57 748.79,-763.17 732.1,-736 723.52,-722.02 709.9,-711.53 695.42,-703.75"/>
<polygon fill="black" stroke="black" points="697.18,-700.71 686.66,-699.44 694.1,-706.99 697.18,-700.71"/>
</g>
<!-- cppe -->
<g id="node21" class="node">
<title>cppe</title>
<g id="a_node21"><a xlink:href="https://github.com/conda-forge/cppe-feedstock/pull/27" xlink:title="cppe ✓">
<ellipse fill="#31688e" stroke="black" cx="1262.1" cy="-278" rx="42.79" ry="18"/>
<text xml:space="preserve" text-anchor="middle" x="1262.1" y="-273.32" font-family="Times,serif" font-size="14.00" fill="white">cppe ✓</text>
</a>
</g>
</g>
<!-- veloxchem -->
<g id="node22" class="node">
<title>veloxchem</title>
<g id="a_node22"><a xlink:href="https://github.com/conda-forge/veloxchem-feedstock" xlink:title="veloxchem">
<ellipse fill="#fde725" stroke="black" cx="1262.1" cy="-206" rx="64.36" ry="18"/>
<text xml:space="preserve" text-anchor="middle" x="1262.1" y="-201.33" font-family="Times,serif" font-size="14.00">veloxchem</text>
</a>
</g>
</g>
<!-- cppe&#45;&gt;veloxchem -->
<g id="edge20" class="edge">
<title>cppe&#45;&gt;veloxchem</title>
<path fill="none" stroke="black" d="M1262.1,-259.7C1262.1,-252.41 1262.1,-243.73 1262.1,-235.54"/>
<polygon fill="black" stroke="black" points="1265.6,-235.62 1262.1,-225.62 1258.6,-235.62 1265.6,-235.62"/>
</g>
<!-- psi4 -->
<g id="node23" class="node">
<title>psi4</title>
<g id="a_node23"><a xlink:href="https://github.com/conda-forge/psi4-feedstock" xlink:title="psi4">
<ellipse fill="#fde725" stroke="black" cx="1146.1" cy="-206" rx="32.27" ry="18"/>
<text xml:space="preserve" text-anchor="middle" x="1146.1" y="-201.33" font-family="Times,serif" font-size="14.00">psi4</text>
</a>
</g>
</g>
<!-- cppe&#45;&gt;psi4 -->
<g id="edge21" class="edge">
<title>cppe&#45;&gt;psi4</title>
<path fill="none" stroke="black" d="M1238.35,-262.67C1220.71,-252.02 1196.48,-237.4 1177.28,-225.81"/>
<polygon fill="black" stroke="black" points="1179.15,-222.85 1168.78,-220.68 1175.53,-228.85 1179.15,-222.85"/>
</g>
<!-- forte -->
<g id="node24" class="node">
<title>forte</title>
<g id="a_node24"><a xlink:href="https://github.com/conda-forge/forte-feedstock" xlink:title="forte">
<ellipse fill="#fde725" stroke="black" cx="1146.1" cy="-134" rx="35.42" ry="18"/>
<text xml:space="preserve" text-anchor="middle" x="1146.1" y="-129.32" font-family="Times,serif" font-size="14.00">forte</text>
</a>
</g>
</g>
<!-- psi4&#45;&gt;forte -->
<g id="edge22" class="edge">
<title>psi4&#45;&gt;forte</title>
<path fill="none" stroke="black" d="M1146.1,-187.7C1146.1,-180.41 1146.1,-171.73 1146.1,-163.54"/>
<polygon fill="black" stroke="black" points="1149.6,-163.62 1146.1,-153.62 1142.6,-163.62 1149.6,-163.62"/>
</g>
<!-- heyoka.py -->
<g id="node25" class="node">
<title>heyoka.py</title>
<g id="a_node25"><a xlink:href="https://github.com/conda-forge/heyoka.py-feedstock/pull/108" xlink:title="heyoka py ❎">
<ellipse fill="#31688e" stroke="black" cx="1529.1" cy="-278" rx="76.99" ry="18"/>
<text xml:space="preserve" text-anchor="middle" x="1529.1" y="-273.32" font-family="Times,serif" font-size="14.00" fill="white">heyoka py ❎</text>
</a>
</g>
</g>
<!-- cascade -->
<g id="node26" class="node">
<title>cascade</title>
<g id="a_node26"><a xlink:href="https://github.com/conda-forge/cascade-feedstock" xlink:title="cascade">
<ellipse fill="#fde725" stroke="black" cx="1529.1" cy="-206" rx="50.68" ry="18"/>
<text xml:space="preserve" text-anchor="middle" x="1529.1" y="-201.32" font-family="Times,serif" font-size="14.00">cascade</text>
</a>
</g>
</g>
<!-- heyoka.py&#45;&gt;cascade -->
<g id="edge23" class="edge">
<title>heyoka.py&#45;&gt;cascade</title>
<path fill="none" stroke="black" d="M1529.1,-259.7C1529.1,-252.41 1529.1,-243.73 1529.1,-235.54"/>
<polygon fill="black" stroke="black" points="1532.6,-235.62 1529.1,-225.62 1525.6,-235.62 1532.6,-235.62"/>
</g>
<!-- prrng -->
<g id="node27" class="node">
<title>prrng</title>
<g id="a_node27"><a xlink:href="https://github.com/conda-forge/prrng-feedstock/pull/67" xlink:title="prrng ❎">
<ellipse fill="#31688e" stroke="black" cx="835.1" cy="-754" rx="54.89" ry="18"/>
<text xml:space="preserve" text-anchor="middle" x="835.1" y="-749.33" font-family="Times,serif" font-size="14.00" fill="white">prrng ❎</text>
</a>
</g>
</g>
<!-- prrng&#45;&gt;gooseeye -->
<g id="edge24" class="edge">
<title>prrng&#45;&gt;gooseeye</title>
<path fill="none" stroke="black" d="M835.1,-735.7C835.1,-728.41 835.1,-719.73 835.1,-711.54"/>
<polygon fill="black" stroke="black" points="838.6,-711.62 835.1,-701.62 831.6,-711.62 838.6,-711.62"/>
</g>
<!-- prrng&#45;&gt;frictionqpotfem -->
<g id="edge25" class="edge">
<title>prrng&#45;&gt;frictionqpotfem</title>
<path fill="none" stroke="black" d="M787.48,-744.69C770.08,-741.77 750.23,-738.58 732.1,-736 609.47,-718.55 467.19,-702.22 377.66,-692.42"/>
<polygon fill="black" stroke="black" points="378.29,-688.97 367.97,-691.36 377.53,-695.93 378.29,-688.97"/>
</g>
<!-- prrng&#45;&gt;frictionqpotspringblock -->
<g id="edge26" class="edge">
<title>prrng&#45;&gt;frictionqpotspringblock</title>
<path fill="none" stroke="black" d="M798.16,-740.32C767.67,-729.86 723.88,-714.83 688.77,-702.79"/>
<polygon fill="black" stroke="black" points="690.21,-699.58 679.62,-699.65 687.94,-706.2 690.21,-699.58"/>
</g>
<!-- gooseepm&#45;split -->
<g id="node28" class="node">
<title>gooseepm&#45;split</title>
<g id="a_node28"><a xlink:href="https://github.com/conda-forge/gooseepm-split-feedstock" xlink:title="gooseepm split">
<ellipse fill="#fde725" stroke="black" cx="921.1" cy="-610" rx="86.98" ry="18"/>
<text xml:space="preserve" text-anchor="middle" x="921.1" y="-605.33" font-family="Times,serif" font-size="14.00">gooseepm split</text>
</a>
</g>
</g>
<!-- prrng&#45;&gt;gooseepm&#45;split -->
<g id="edge27" class="edge">
<title>prrng&#45;&gt;gooseepm&#45;split</title>
<path fill="none" stroke="black" d="M862.1,-737.94C876.12,-728.75 892.32,-715.75 902.1,-700 913.39,-681.84 918.05,-658 919.94,-639.57"/>
<polygon fill="black" stroke="black" points="923.41,-640.1 920.7,-629.86 916.43,-639.55 923.41,-640.1"/>
</g>
<!-- optima -->
<g id="node29" class="node">
<title>optima</title>
<g id="a_node29"><a xlink:href="https://github.com/conda-forge/optima-feedstock/pull/44" xlink:title="optima ❎">
<ellipse fill="#31688e" stroke="black" cx="1496.1" cy="-826" rx="61.2" ry="18"/>
<text xml:space="preserve" text-anchor="middle" x="1496.1" y="-821.33" font-family="Times,serif" font-size="14.00" fill="white">optima ❎</text>
</a>
</g>
</g>
<!-- optima&#45;&gt;reaktoro -->
<g id="edge28" class="edge">
<title>optima&#45;&gt;reaktoro</title>
<path fill="none" stroke="black" d="M1497.63,-807.85C1500.89,-771.14 1508.56,-684.66 1512.57,-639.53"/>
<polygon fill="black" stroke="black" points="1516.04,-640.01 1513.44,-629.74 1509.07,-639.39 1516.04,-640.01"/>
</g>
<!-- copc&#45;lib -->
<g id="node31" class="node">
<title>copc&#45;lib</title>
<g id="a_node31"><a xlink:href="https://github.com/conda-forge/copc-lib-feedstock/pull/35" xlink:title="copc lib ✓">
<ellipse fill="#31688e" stroke="black" cx="1171.1" cy="-682" rx="57.52" ry="18"/>
<text xml:space="preserve" text-anchor="middle" x="1171.1" y="-677.33" font-family="Times,serif" font-size="14.00" fill="white">copc lib ✓</text>
</a>
</g>
</g>
<!-- fretraj&#45;&gt;copc&#45;lib -->
<!-- ocp -->
<g id="node32" class="node">
<title>ocp</title>
<g id="a_node32"><a xlink:href="https://github.com/conda-forge/ocp-feedstock/pull/66" xlink:title="ocp ❎">
<ellipse fill="#31688e" stroke="black" cx="1171.1" cy="-610" rx="43.84" ry="18"/>
<text xml:space="preserve" text-anchor="middle" x="1171.1" y="-605.33" font-family="Times,serif" font-size="14.00" fill="white">ocp ❎</text>
</a>
</g>
</g>
<!-- copc&#45;lib&#45;&gt;ocp -->
<!-- hoomd&#45;dlext -->
<g id="node33" class="node">
<title>hoomd&#45;dlext</title>
<g id="a_node33"><a xlink:href="https://github.com/conda-forge/hoomd-dlext-feedstock/pull/17" xlink:title="hoomd dlext ❎">
<ellipse fill="#31688e" stroke="black" cx="1171.1" cy="-538" rx="88.56" ry="18"/>
<text xml:space="preserve" text-anchor="middle" x="1171.1" y="-533.33" font-family="Times,serif" font-size="14.00" fill="white">hoomd dlext ❎</text>
</a>
</g>
</g>
<!-- ocp&#45;&gt;hoomd&#45;dlext -->
<!-- libthermo -->
<g id="node39" class="node">
<title>libthermo</title>
<g id="a_node39"><a xlink:href="https://github.com/conda-forge/libthermo-feedstock/pull/20" xlink:title="libthermo ❎">
<ellipse fill="#31688e" stroke="black" cx="1171.1" cy="-466" rx="75.41" ry="18"/>
<text xml:space="preserve" text-anchor="middle" x="1171.1" y="-461.32" font-family="Times,serif" font-size="14.00" fill="white">libthermo ❎</text>
</a>
</g>
</g>
<!-- hoomd&#45;dlext&#45;&gt;libthermo -->
<!-- scine&#45;utilities&#45;python -->
<g id="node34" class="node">
<title>scine&#45;utilities&#45;python</title>
<g id="a_node34"><a xlink:href="https://github.com/conda-forge/scine-utilities-python-feedstock/pull/21" xlink:title="scine utilities python ❎">
<ellipse fill="#31688e" stroke="black" cx="466.1" cy="-350" rx="131.7" ry="18"/>
<text xml:space="preserve" text-anchor="middle" x="466.1" y="-345.32" font-family="Times,serif" font-size="14.00" fill="white">scine utilities python ❎</text>
</a>
</g>
</g>
<!-- scine&#45;readuct -->
<g id="node35" class="node">
<title>scine&#45;readuct</title>
<g id="a_node35"><a xlink:href="https://github.com/conda-forge/scine-readuct-feedstock" xlink:title="scine readuct">
<ellipse fill="#fde725" stroke="black" cx="359.1" cy="-278" rx="78.57" ry="18"/>
<text xml:space="preserve" text-anchor="middle" x="359.1" y="-273.32" font-family="Times,serif" font-size="14.00">scine readuct</text>
</a>
</g>
</g>
<!-- scine&#45;utilities&#45;python&#45;&gt;scine&#45;readuct -->
<g id="edge33" class="edge">
<title>scine&#45;utilities&#45;python&#45;&gt;scine&#45;readuct</title>
<path fill="none" stroke="black" d="M439.93,-331.88C426.02,-322.78 408.75,-311.48 393.75,-301.66"/>
<polygon fill="black" stroke="black" points="395.82,-298.84 385.54,-296.29 391.99,-304.7 395.82,-298.84"/>
</g>
<!-- scine&#45;database&#45;python -->
<g id="node36" class="node">
<title>scine&#45;database&#45;python</title>
<g id="a_node36"><a xlink:href="https://github.com/conda-forge/scine-database-python-feedstock" xlink:title="scine database python">
<ellipse fill="#fde725" stroke="black" cx="466.1" cy="-206" rx="123.29" ry="18"/>
<text xml:space="preserve" text-anchor="middle" x="466.1" y="-201.33" font-family="Times,serif" font-size="14.00">scine database python</text>
</a>
</g>
</g>
<!-- scine&#45;utilities&#45;python&#45;&gt;scine&#45;database&#45;python -->
<g id="edge34" class="edge">
<title>scine&#45;utilities&#45;python&#45;&gt;scine&#45;database&#45;python</title>
<path fill="none" stroke="black" d="M466.1,-331.59C466.1,-307.61 466.1,-264.14 466.1,-235.42"/>
<polygon fill="black" stroke="black" points="469.6,-235.62 466.1,-225.62 462.6,-235.62 469.6,-235.62"/>
</g>
<!-- scine&#45;molassembler -->
<g id="node37" class="node">
<title>scine&#45;molassembler</title>
<g id="a_node37"><a xlink:href="https://github.com/conda-forge/scine-molassembler-feedstock" xlink:title="scine molassembler">
<ellipse fill="#fde725" stroke="black" cx="617.1" cy="-134" rx="110.13" ry="18"/>
<text xml:space="preserve" text-anchor="middle" x="617.1" y="-129.32" font-family="Times,serif" font-size="14.00">scine molassembler</text>
</a>
</g>
</g>
<!-- scine&#45;utilities&#45;python&#45;&gt;scine&#45;molassembler -->
<g id="edge35" class="edge">
<title>scine&#45;utilities&#45;python&#45;&gt;scine&#45;molassembler</title>
<path fill="none" stroke="black" d="M491.89,-332C522.25,-310.56 571.84,-270.79 598.1,-224 608.46,-205.55 613.18,-182.06 615.33,-163.84"/>
<polygon fill="black" stroke="black" points="618.8,-164.26 616.28,-153.97 611.83,-163.59 618.8,-164.26"/>
</g>
<!-- reaktplot -->
<g id="node38" class="node">
<title>reaktplot</title>
<g id="a_node38"><a xlink:href="https://github.com/conda-forge/reaktplot-feedstock/pull/13" xlink:title="reaktplot ❎">
<ellipse fill="#31688e" stroke="black" cx="1407.1" cy="-898" rx="72.25" ry="18"/>
<text xml:space="preserve" text-anchor="middle" x="1407.1" y="-893.33" font-family="Times,serif" font-size="14.00" fill="white">reaktplot ❎</text>
</a>
</g>
</g>
<!-- reaktplot&#45;&gt;reaktoro -->
<g id="edge36" class="edge">
<title>reaktplot&#45;&gt;reaktoro</title>
<path fill="none" stroke="black" d="M1409.68,-879.65C1412.63,-861.5 1418.12,-832.32 1426.1,-808 1446.73,-745.2 1481.1,-675.57 1500.54,-638.23"/>
<polygon fill="black" stroke="black" points="1503.58,-639.98 1505.13,-629.5 1497.38,-636.72 1503.58,-639.98"/>
</g>
<!-- tensorstore -->
<g id="node40" class="node">
<title>tensorstore</title>
<g id="a_node40"><a xlink:href="https://github.com/conda-forge/tensorstore-feedstock/pull/57" xlink:title="tensorstore ❎">
<ellipse fill="#31688e" stroke="black" cx="1171.1" cy="-394" rx="84.35" ry="18"/>
<text xml:space="preserve" text-anchor="middle" x="1171.1" y="-389.32" font-family="Times,serif" font-size="14.00" fill="white">tensorstore ❎</text>
</a>
</g>
</g>
<!-- libthermo&#45;&gt;tensorstore -->
<!-- libefp -->
<g id="node41" class="node">
<title>libefp</title>
<g id="a_node41"><a xlink:href="https://github.com/conda-forge/libefp-feedstock/pull/11" xlink:title="libefp ❎">
<ellipse fill="#31688e" stroke="black" cx="1146.1" cy="-278" rx="54.89" ry="18"/>
<text xml:space="preserve" text-anchor="middle" x="1146.1" y="-273.32" font-family="Times,serif" font-size="14.00" fill="white">libefp ❎</text>
</a>
</g>
</g>
<!-- libefp&#45;&gt;psi4 -->
<g id="edge39" class="edge">
<title>libefp&#45;&gt;psi4</title>
<path fill="none" stroke="black" d="M1146.1,-259.7C1146.1,-252.41 1146.1,-243.73 1146.1,-235.54"/>
<polygon fill="black" stroke="black" points="1149.6,-235.62 1146.1,-225.62 1142.6,-235.62 1149.6,-235.62"/>
</g>
<!-- gdma -->
<g id="node42" class="node">
<title>gdma</title>
<g id="a_node42"><a xlink:href="https://github.com/conda-forge/gdma-feedstock/pull/13" xlink:title="gdma ✓">
<ellipse fill="#31688e" stroke="black" cx="1063.1" cy="-350" rx="47" ry="18"/>
<text xml:space="preserve" text-anchor="middle" x="1063.1" y="-345.32" font-family="Times,serif" font-size="14.00" fill="white">gdma ✓</text>
</a>
</g>
</g>
<!-- gdma&#45;&gt;psi4 -->
<g id="edge40" class="edge">
<title>gdma&#45;&gt;psi4</title>
<path fill="none" stroke="black" d="M1063.48,-331.71C1064.61,-312.82 1068.6,-282.3 1082.1,-260 1090.24,-246.56 1103.04,-234.97 1115.06,-226.08"/>
<polygon fill="black" stroke="black" points="1116.98,-229.01 1123.18,-220.41 1112.98,-223.26 1116.98,-229.01"/>
</g>
<!-- qsimcirq -->
<g id="node43" class="node">
<title>qsimcirq</title>
<g id="a_node43"><a xlink:href="https://github.com/conda-forge/qsimcirq-feedstock/pull/30" xlink:title="qsimcirq ❎">
<ellipse fill="#31688e" stroke="black" cx="1171.1" cy="-54" rx="70.15" ry="18"/>
<text xml:space="preserve" text-anchor="middle" x="1171.1" y="-49.33" font-family="Times,serif" font-size="14.00" fill="white">qsimcirq ❎</text>
</a>
</g>
</g>
</g>
</svg>
