<?xml version="1.0" encoding="UTF-8" standalone="no"?>
<!DOCTYPE svg PUBLIC "-//W3C//DTD SVG 1.1//EN"
 "http://www.w3.org/Graphics/SVG/1.1/DTD/svg11.dtd">
<!-- Generated by graphviz version 13.1.2 (20250809.0930)
 -->
<!-- Pages: 1 -->
<svg width="1812pt" height="1024pt"
 viewBox="0.00 0.00 1812.00 1024.00" xmlns="http://www.w3.org/2000/svg" xmlns:xlink="http://www.w3.org/1999/xlink">
<g id="graph0" class="graph" transform="scale(1 1) rotate(0) translate(4 1020)">
<polygon fill="white" stroke="none" points="-4,4 -4,-1020 1807.65,-1020 1807.65,4 -4,4"/>
<!-- fastscapelib -->
<g id="node1" class="node">
<title>fastscapelib</title>
<g id="a_node1"><a xlink:href="https://github.com/conda-forge/fastscapelib-feedstock/pull/22" xlink:title="fastscapelib ❎">
<ellipse fill="#31688e" stroke="black" cx="1255.52" cy="-998" rx="86.46" ry="18"/>
<text xml:space="preserve" text-anchor="middle" x="1255.52" y="-993.33" font-family="Times,serif" font-size="14.00" fill="white">fastscapelib ❎</text>
</a>
</g>
</g>
<!-- dcgp&#45;python -->
<g id="node2" class="node">
<title>dcgp&#45;python</title>
<g id="a_node2"><a xlink:href="https://github.com/conda-forge/dcgp-python-feedstock/pull/29" xlink:title="dcgp python ❎">
<ellipse fill="#31688e" stroke="black" cx="1255.52" cy="-926" rx="88.56" ry="18"/>
<text xml:space="preserve" text-anchor="middle" x="1255.52" y="-921.33" font-family="Times,serif" font-size="14.00" fill="white">dcgp python ❎</text>
</a>
</g>
</g>
<!-- fastscapelib&#45;&gt;dcgp&#45;python -->
<!-- cppcolormap -->
<g id="node5" class="node">
<title>cppcolormap</title>
<g id="a_node5"><a xlink:href="https://github.com/conda-forge/cppcolormap-feedstock/pull/35" xlink:title="cppcolormap ❎">
<ellipse fill="#31688e" stroke="black" cx="1255.52" cy="-854" rx="90.67" ry="18"/>
<text xml:space="preserve" text-anchor="middle" x="1255.52" y="-849.33" font-family="Times,serif" font-size="14.00" fill="white">cppcolormap ❎</text>
</a>
</g>
</g>
<!-- dcgp&#45;python&#45;&gt;cppcolormap -->
<!-- reaktoro -->
<g id="node3" class="node">
<title>reaktoro</title>
<g id="a_node3"><a xlink:href="https://github.com/conda-forge/reaktoro-feedstock" xlink:title="reaktoro">
<ellipse fill="#fde725" stroke="black" cx="578.52" cy="-18" rx="53.84" ry="18"/>
<text xml:space="preserve" text-anchor="middle" x="578.52" y="-13.32" font-family="Times,serif" font-size="14.00">reaktoro</text>
</a>
</g>
</g>
<!-- autodiff -->
<g id="node4" class="node">
<title>autodiff</title>
<g id="a_node4"><a xlink:href="https://github.com/conda-forge/autodiff-feedstock/pull/65" xlink:title="autodiff ❎">
<ellipse fill="#31688e" stroke="black" cx="671.52" cy="-90" rx="64.89" ry="18"/>
<text xml:space="preserve" text-anchor="middle" x="671.52" y="-85.33" font-family="Times,serif" font-size="14.00" fill="white">autodiff ❎</text>
</a>
</g>
</g>
<!-- autodiff&#45;&gt;reaktoro -->
<g id="edge2" class="edge">
<title>autodiff&#45;&gt;reaktoro</title>
<path fill="none" stroke="black" d="M649.95,-72.76C637.66,-63.51 622.06,-51.77 608.58,-41.63"/>
<polygon fill="black" stroke="black" points="610.96,-39.03 600.86,-35.82 606.75,-44.63 610.96,-39.03"/>
</g>
<!-- xcfun -->
<g id="node6" class="node">
<title>xcfun</title>
<g id="a_node6"><a xlink:href="https://github.com/conda-forge/xcfun-feedstock/pull/20" xlink:title="xcfun ❎">
<ellipse fill="#31688e" stroke="black" cx="1255.52" cy="-782" rx="53.84" ry="18"/>
<text xml:space="preserve" text-anchor="middle" x="1255.52" y="-777.33" font-family="Times,serif" font-size="14.00" fill="white">xcfun ❎</text>
</a>
</g>
</g>
<!-- cppcolormap&#45;&gt;xcfun -->
<!-- timemory -->
<g id="node17" class="node">
<title>timemory</title>
<g id="a_node17"><a xlink:href="https://github.com/conda-forge/timemory-feedstock/pull/22" xlink:title="timemory ❎">
<ellipse fill="#31688e" stroke="black" cx="1255.52" cy="-710" rx="74.88" ry="18"/>
<text xml:space="preserve" text-anchor="middle" x="1255.52" y="-705.33" font-family="Times,serif" font-size="14.00" fill="white">timemory ❎</text>
</a>
</g>
</g>
<!-- xcfun&#45;&gt;timemory -->
<!-- gooseeye -->
<g id="node7" class="node">
<title>gooseeye</title>
<g id="a_node7"><a xlink:href="https://github.com/conda-forge/gooseeye-feedstock" xlink:title="gooseeye">
<ellipse fill="#fde725" stroke="black" cx="57.52" cy="-566" rx="57.52" ry="18"/>
<text xml:space="preserve" text-anchor="middle" x="57.52" y="-561.33" font-family="Times,serif" font-size="14.00">gooseeye</text>
</a>
</g>
</g>
<!-- gmatelastoplastic -->
<g id="node8" class="node">
<title>gmatelastoplastic</title>
<g id="a_node8"><a xlink:href="https://github.com/conda-forge/gmatelastoplastic-feedstock" xlink:title="gmatelastoplastic">
<ellipse fill="#fde725" stroke="black" cx="606.52" cy="-638" rx="100.14" ry="18"/>
<text xml:space="preserve" text-anchor="middle" x="606.52" y="-633.33" font-family="Times,serif" font-size="14.00">gmatelastoplastic</text>
</a>
</g>
</g>
<!-- gmatelastoplasticqpot -->
<g id="node9" class="node">
<title>gmatelastoplasticqpot</title>
<g id="a_node9"><a xlink:href="https://github.com/conda-forge/gmatelastoplasticqpot-feedstock" xlink:title="gmatelastoplasticqpot">
<ellipse fill="#fde725" stroke="black" cx="1013.52" cy="-638" rx="122.76" ry="18"/>
<text xml:space="preserve" text-anchor="middle" x="1013.52" y="-633.33" font-family="Times,serif" font-size="14.00">gmatelastoplasticqpot</text>
</a>
</g>
</g>
<!-- frictionqpotfem -->
<g id="node10" class="node">
<title>frictionqpotfem</title>
<g id="a_node10"><a xlink:href="https://github.com/conda-forge/frictionqpotfem-feedstock" xlink:title="frictionqpotfem">
<ellipse fill="#fde725" stroke="black" cx="905.52" cy="-566" rx="89.09" ry="18"/>
<text xml:space="preserve" text-anchor="middle" x="905.52" y="-561.33" font-family="Times,serif" font-size="14.00">frictionqpotfem</text>
</a>
</g>
</g>
<!-- gmatelastoplasticqpot&#45;&gt;frictionqpotfem -->
<g id="edge5" class="edge">
<title>gmatelastoplasticqpot&#45;&gt;frictionqpotfem</title>
<path fill="none" stroke="black" d="M987.38,-620.05C973.35,-610.96 955.86,-599.63 940.65,-589.77"/>
<polygon fill="black" stroke="black" points="942.62,-586.87 932.32,-584.37 938.81,-592.75 942.62,-586.87"/>
</g>
<!-- gmatelastoplasticfinitestrainsimo -->
<g id="node11" class="node">
<title>gmatelastoplasticfinitestrainsimo</title>
<g id="a_node11"><a xlink:href="https://github.com/conda-forge/gmatelastoplasticfinitestrainsimo-feedstock/pull/20" xlink:title="gmatelastoplasticfinitestrainsimo ❎">
<ellipse fill="#31688e" stroke="black" cx="486.52" cy="-710" rx="194.31" ry="18"/>
<text xml:space="preserve" text-anchor="middle" x="486.52" y="-705.33" font-family="Times,serif" font-size="14.00" fill="white">gmatelastoplasticfinitestrainsimo ❎</text>
</a>
</g>
</g>
<!-- gmatnonlinearelastic -->
<g id="node12" class="node">
<title>gmatnonlinearelastic</title>
<g id="a_node12"><a xlink:href="https://github.com/conda-forge/gmatnonlinearelastic-feedstock" xlink:title="gmatnonlinearelastic">
<ellipse fill="#fde725" stroke="black" cx="371.52" cy="-638" rx="116.97" ry="18"/>
<text xml:space="preserve" text-anchor="middle" x="371.52" y="-633.33" font-family="Times,serif" font-size="14.00">gmatnonlinearelastic</text>
</a>
</g>
</g>
<!-- gmatelastic -->
<g id="node13" class="node">
<title>gmatelastic</title>
<g id="a_node13"><a xlink:href="https://github.com/conda-forge/gmatelastic-feedstock/pull/28" xlink:title="gmatelastic ❎">
<ellipse fill="#31688e" stroke="black" cx="821.52" cy="-710" rx="84.88" ry="18"/>
<text xml:space="preserve" text-anchor="middle" x="821.52" y="-705.33" font-family="Times,serif" font-size="14.00" fill="white">gmatelastic ❎</text>
</a>
</g>
</g>
<!-- gmatelastic&#45;&gt;gmatelastoplastic -->
<g id="edge6" class="edge">
<title>gmatelastic&#45;&gt;gmatelastoplastic</title>
<path fill="none" stroke="black" d="M776.45,-694.33C743.75,-683.68 699.27,-669.2 664.01,-657.72"/>
<polygon fill="black" stroke="black" points="665.42,-654.5 654.83,-654.73 663.26,-661.15 665.42,-654.5"/>
</g>
<!-- gmatelastic&#45;&gt;gmatelastoplasticqpot -->
<g id="edge7" class="edge">
<title>gmatelastic&#45;&gt;gmatelastoplasticqpot</title>
<path fill="none" stroke="black" d="M862.71,-693.98C890.7,-683.78 928.05,-670.16 958.57,-659.03"/>
<polygon fill="black" stroke="black" points="959.44,-662.44 967.63,-655.73 957.04,-655.87 959.44,-662.44"/>
</g>
<!-- gmatelastic&#45;&gt;gmatnonlinearelastic -->
<g id="edge8" class="edge">
<title>gmatelastic&#45;&gt;gmatnonlinearelastic</title>
<path fill="none" stroke="black" d="M754.64,-698.6C677.23,-686.56 549.35,-666.66 462.84,-653.2"/>
<polygon fill="black" stroke="black" points="463.62,-649.78 453.2,-651.71 462.55,-656.7 463.62,-649.78"/>
</g>
<!-- goosefem -->
<g id="node14" class="node">
<title>goosefem</title>
<g id="a_node14"><a xlink:href="https://github.com/conda-forge/goosefem-feedstock/pull/66" xlink:title="goosefem ❎">
<ellipse fill="#31688e" stroke="black" cx="798.52" cy="-638" rx="74.36" ry="18"/>
<text xml:space="preserve" text-anchor="middle" x="798.52" y="-633.33" font-family="Times,serif" font-size="14.00" fill="white">goosefem ❎</text>
</a>
</g>
</g>
<!-- goosefem&#45;&gt;frictionqpotfem -->
<g id="edge9" class="edge">
<title>goosefem&#45;&gt;frictionqpotfem</title>
<path fill="none" stroke="black" d="M823.61,-620.59C837.73,-611.35 855.56,-599.68 870.99,-589.59"/>
<polygon fill="black" stroke="black" points="872.5,-592.78 878.95,-584.38 868.67,-586.93 872.5,-592.78"/>
</g>
<!-- frictionqpotspringblock -->
<g id="node15" class="node">
<title>frictionqpotspringblock</title>
<g id="a_node15"><a xlink:href="https://github.com/conda-forge/frictionqpotspringblock-feedstock" xlink:title="frictionqpotspringblock">
<ellipse fill="#fde725" stroke="black" cx="300.52" cy="-566" rx="128.55" ry="18"/>
<text xml:space="preserve" text-anchor="middle" x="300.52" y="-561.33" font-family="Times,serif" font-size="14.00">frictionqpotspringblock</text>
</a>
</g>
</g>
<!-- goosefem&#45;&gt;frictionqpotspringblock -->
<g id="edge10" class="edge">
<title>goosefem&#45;&gt;frictionqpotspringblock</title>
<path fill="none" stroke="black" d="M744.61,-625.35C734.95,-623.43 724.95,-621.57 715.52,-620 613.11,-603 495.69,-588.46 411.94,-578.93"/>
<polygon fill="black" stroke="black" points="412.45,-575.47 402.12,-577.82 411.66,-582.42 412.45,-575.47"/>
</g>
<!-- qpot -->
<g id="node16" class="node">
<title>qpot</title>
<g id="a_node16"><a xlink:href="https://github.com/conda-forge/qpot-feedstock/pull/58" xlink:title="qpot ❎">
<ellipse fill="#31688e" stroke="black" cx="1052.52" cy="-710" rx="49.1" ry="18"/>
<text xml:space="preserve" text-anchor="middle" x="1052.52" y="-705.33" font-family="Times,serif" font-size="14.00" fill="white">qpot ❎</text>
</a>
</g>
</g>
<!-- qpot&#45;&gt;gmatelastoplasticqpot -->
<g id="edge11" class="edge">
<title>qpot&#45;&gt;gmatelastoplasticqpot</title>
<path fill="none" stroke="black" d="M1043.08,-692.05C1038.74,-684.26 1033.48,-674.82 1028.61,-666.08"/>
<polygon fill="black" stroke="black" points="1031.81,-664.63 1023.88,-657.6 1025.69,-668.04 1031.81,-664.63"/>
</g>
<!-- qpot&#45;&gt;frictionqpotfem -->
<g id="edge12" class="edge">
<title>qpot&#45;&gt;frictionqpotfem</title>
<path fill="none" stroke="black" d="M1090.06,-697.93C1110.32,-689.82 1133.57,-676.57 1145.52,-656 1153.56,-642.17 1155.54,-632.47 1145.52,-620 1126.82,-596.72 1056.81,-583.05 997.2,-575.44"/>
<polygon fill="black" stroke="black" points="997.68,-571.98 987.32,-574.23 996.82,-578.92 997.68,-571.98"/>
</g>
<!-- fretraj -->
<g id="node22" class="node">
<title>fretraj</title>
<g id="a_node22"><a xlink:href="https://github.com/conda-forge/fretraj-feedstock/pull/12" xlink:title="fretraj ✓">
<ellipse fill="#31688e" stroke="black" cx="1255.52" cy="-638" rx="51.21" ry="18"/>
<text xml:space="preserve" text-anchor="middle" x="1255.52" y="-633.33" font-family="Times,serif" font-size="14.00" fill="white">fretraj ✓</text>
</a>
</g>
</g>
<!-- timemory&#45;&gt;fretraj -->
<!-- gmattensor -->
<g id="node18" class="node">
<title>gmattensor</title>
<g id="a_node18"><a xlink:href="https://github.com/conda-forge/gmattensor-feedstock/pull/42" xlink:title="gmattensor ❎">
<ellipse fill="#31688e" stroke="black" cx="597.52" cy="-782" rx="84.35" ry="18"/>
<text xml:space="preserve" text-anchor="middle" x="597.52" y="-777.33" font-family="Times,serif" font-size="14.00" fill="white">gmattensor ❎</text>
</a>
</g>
</g>
<!-- gmattensor&#45;&gt;gmatelastoplastic -->
<g id="edge14" class="edge">
<title>gmattensor&#45;&gt;gmatelastoplastic</title>
<path fill="none" stroke="black" d="M642.3,-766.52C660.29,-758.25 679.19,-745.87 689.52,-728 697.53,-714.15 697.21,-706.03 689.52,-692 682.25,-678.74 670.1,-668.31 657.3,-660.35"/>
<polygon fill="black" stroke="black" points="659.2,-657.4 648.78,-655.48 655.73,-663.48 659.2,-657.4"/>
</g>
<!-- gmattensor&#45;&gt;gmatelastoplasticqpot -->
<g id="edge15" class="edge">
<title>gmattensor&#45;&gt;gmatelastoplasticqpot</title>
<path fill="none" stroke="black" d="M681.45,-779.85C747.94,-775.99 841.61,-763.82 915.52,-728 946.33,-713.07 974.46,-685.38 992.61,-664.84"/>
<polygon fill="black" stroke="black" points="995.14,-667.27 999,-657.4 989.82,-662.71 995.14,-667.27"/>
</g>
<!-- gmattensor&#45;&gt;gmatelastoplasticfinitestrainsimo -->
<g id="edge16" class="edge">
<title>gmattensor&#45;&gt;gmatelastoplasticfinitestrainsimo</title>
<path fill="none" stroke="black" d="M571.5,-764.59C557.17,-755.55 539.15,-744.19 523.4,-734.25"/>
<polygon fill="black" stroke="black" points="525.54,-731.47 515.21,-729.09 521.8,-737.39 525.54,-731.47"/>
</g>
<!-- gmattensor&#45;&gt;gmatnonlinearelastic -->
<g id="edge17" class="edge">
<title>gmattensor&#45;&gt;gmatnonlinearelastic</title>
<path fill="none" stroke="black" d="M514.06,-778.68C431.22,-774.41 312.52,-762.3 283.52,-728 273.19,-715.78 275.65,-705.93 283.52,-692 291.15,-678.51 303.74,-668.07 317.04,-660.16"/>
<polygon fill="black" stroke="black" points="318.36,-663.43 325.47,-655.57 315.01,-657.28 318.36,-663.43"/>
</g>
<!-- gmattensor&#45;&gt;gmatelastic -->
<g id="edge18" class="edge">
<title>gmattensor&#45;&gt;gmatelastic</title>
<path fill="none" stroke="black" d="M643.66,-766.58C678.75,-755.62 727.21,-740.47 764.69,-728.76"/>
<polygon fill="black" stroke="black" points="765.49,-732.18 774,-725.85 763.41,-725.49 765.49,-732.18"/>
</g>
<!-- gmattensor&#45;&gt;frictionqpotspringblock -->
<g id="edge19" class="edge">
<title>gmattensor&#45;&gt;frictionqpotspringblock</title>
<path fill="none" stroke="black" d="M516.2,-776.93C432.33,-771.16 308.83,-757.77 272.52,-728 234.26,-696.63 226.16,-665.53 245.52,-620 250.11,-609.2 258.1,-599.53 266.59,-591.51"/>
<polygon fill="black" stroke="black" points="268.77,-594.25 274,-585.04 264.17,-588.98 268.77,-594.25"/>
</g>
<!-- prrng -->
<g id="node19" class="node">
<title>prrng</title>
<g id="a_node19"><a xlink:href="https://github.com/conda-forge/prrng-feedstock/pull/67" xlink:title="prrng ❎">
<ellipse fill="#31688e" stroke="black" cx="143.52" cy="-638" rx="54.89" ry="18"/>
<text xml:space="preserve" text-anchor="middle" x="143.52" y="-633.33" font-family="Times,serif" font-size="14.00" fill="white">prrng ❎</text>
</a>
</g>
</g>
<!-- prrng&#45;&gt;gooseeye -->
<g id="edge20" class="edge">
<title>prrng&#45;&gt;gooseeye</title>
<path fill="none" stroke="black" d="M123.58,-620.76C112.4,-611.66 98.26,-600.16 85.94,-590.13"/>
<polygon fill="black" stroke="black" points="88.5,-587.7 78.53,-584.1 84.08,-593.13 88.5,-587.7"/>
</g>
<!-- prrng&#45;&gt;frictionqpotfem -->
<g id="edge21" class="edge">
<title>prrng&#45;&gt;frictionqpotfem</title>
<path fill="none" stroke="black" d="M190.63,-628.29C207.85,-625.33 227.53,-622.22 245.52,-620 445,-595.41 679.88,-579.69 808.74,-572.19"/>
<polygon fill="black" stroke="black" points="808.82,-575.69 818.6,-571.62 808.42,-568.7 808.82,-575.69"/>
</g>
<!-- prrng&#45;&gt;frictionqpotspringblock -->
<g id="edge22" class="edge">
<title>prrng&#45;&gt;frictionqpotspringblock</title>
<path fill="none" stroke="black" d="M174.92,-623C197.15,-613.09 227.39,-599.61 252.63,-588.35"/>
<polygon fill="black" stroke="black" points="254.01,-591.57 261.72,-584.3 251.16,-585.18 254.01,-591.57"/>
</g>
<!-- gooseepm&#45;split -->
<g id="node20" class="node">
<title>gooseepm&#45;split</title>
<g id="a_node20"><a xlink:href="https://github.com/conda-forge/gooseepm-split-feedstock" xlink:title="gooseepm split">
<ellipse fill="#fde725" stroke="black" cx="143.52" cy="-494" rx="86.98" ry="18"/>
<text xml:space="preserve" text-anchor="middle" x="143.52" y="-489.32" font-family="Times,serif" font-size="14.00">gooseepm split</text>
</a>
</g>
</g>
<!-- prrng&#45;&gt;gooseepm&#45;split -->
<g id="edge23" class="edge">
<title>prrng&#45;&gt;gooseepm&#45;split</title>
<path fill="none" stroke="black" d="M143.52,-619.59C143.52,-595.61 143.52,-552.14 143.52,-523.42"/>
<polygon fill="black" stroke="black" points="147.02,-523.62 143.52,-513.62 140.02,-523.62 147.02,-523.62"/>
</g>
<!-- optima -->
<g id="node21" class="node">
<title>optima</title>
<g id="a_node21"><a xlink:href="https://github.com/conda-forge/optima-feedstock/pull/44" xlink:title="optima ❎">
<ellipse fill="#31688e" stroke="black" cx="578.52" cy="-162" rx="61.2" ry="18"/>
<text xml:space="preserve" text-anchor="middle" x="578.52" y="-157.32" font-family="Times,serif" font-size="14.00" fill="white">optima ❎</text>
</a>
</g>
</g>
<!-- optima&#45;&gt;reaktoro -->
<g id="edge24" class="edge">
<title>optima&#45;&gt;reaktoro</title>
<path fill="none" stroke="black" d="M578.52,-143.59C578.52,-119.61 578.52,-76.14 578.52,-47.42"/>
<polygon fill="black" stroke="black" points="582.02,-47.62 578.52,-37.62 575.02,-47.62 582.02,-47.62"/>
</g>
<!-- copc&#45;lib -->
<g id="node23" class="node">
<title>copc&#45;lib</title>
<g id="a_node23"><a xlink:href="https://github.com/conda-forge/copc-lib-feedstock/pull/35" xlink:title="copc lib ❎">
<ellipse fill="#31688e" stroke="black" cx="1255.52" cy="-566" rx="64.89" ry="18"/>
<text xml:space="preserve" text-anchor="middle" x="1255.52" y="-561.33" font-family="Times,serif" font-size="14.00" fill="white">copc lib ❎</text>
</a>
</g>
</g>
<!-- fretraj&#45;&gt;copc&#45;lib -->
<!-- diplib -->
<g id="node24" class="node">
<title>diplib</title>
<g id="a_node24"><a xlink:href="https://github.com/conda-forge/diplib-feedstock/pull/19" xlink:title="diplib ❎">
<ellipse fill="#31688e" stroke="black" cx="1255.52" cy="-494" rx="54.89" ry="18"/>
<text xml:space="preserve" text-anchor="middle" x="1255.52" y="-489.32" font-family="Times,serif" font-size="14.00" fill="white">diplib ❎</text>
</a>
</g>
</g>
<!-- copc&#45;lib&#45;&gt;diplib -->
<!-- hoomd&#45;dlext -->
<g id="node29" class="node">
<title>hoomd&#45;dlext</title>
<g id="a_node29"><a xlink:href="https://github.com/conda-forge/hoomd-dlext-feedstock/pull/17" xlink:title="hoomd dlext ❎">
<ellipse fill="#31688e" stroke="black" cx="1255.52" cy="-422" rx="88.56" ry="18"/>
<text xml:space="preserve" text-anchor="middle" x="1255.52" y="-417.32" font-family="Times,serif" font-size="14.00" fill="white">hoomd dlext ❎</text>
</a>
</g>
</g>
<!-- diplib&#45;&gt;hoomd&#45;dlext -->
<!-- scine&#45;utilities&#45;python -->
<g id="node25" class="node">
<title>scine&#45;utilities&#45;python</title>
<g id="a_node25"><a xlink:href="https://github.com/conda-forge/scine-utilities-python-feedstock/pull/21" xlink:title="scine utilities python ❎">
<ellipse fill="#31688e" stroke="black" cx="1542.52" cy="-746" rx="131.7" ry="18"/>
<text xml:space="preserve" text-anchor="middle" x="1542.52" y="-741.33" font-family="Times,serif" font-size="14.00" fill="white">scine utilities python ❎</text>
</a>
</g>
</g>
<!-- scine&#45;readuct -->
<g id="node26" class="node">
<title>scine&#45;readuct</title>
<g id="a_node26"><a xlink:href="https://github.com/conda-forge/scine-readuct-feedstock" xlink:title="scine readuct">
<ellipse fill="#fde725" stroke="black" cx="1435.52" cy="-674" rx="78.57" ry="18"/>
<text xml:space="preserve" text-anchor="middle" x="1435.52" y="-669.33" font-family="Times,serif" font-size="14.00">scine readuct</text>
</a>
</g>
</g>
<!-- scine&#45;utilities&#45;python&#45;&gt;scine&#45;readuct -->
<g id="edge28" class="edge">
<title>scine&#45;utilities&#45;python&#45;&gt;scine&#45;readuct</title>
<path fill="none" stroke="black" d="M1516.35,-727.88C1502.44,-718.78 1485.17,-707.48 1470.16,-697.66"/>
<polygon fill="black" stroke="black" points="1472.24,-694.84 1461.96,-692.29 1468.41,-700.7 1472.24,-694.84"/>
</g>
<!-- scine&#45;database&#45;python -->
<g id="node27" class="node">
<title>scine&#45;database&#45;python</title>
<g id="a_node27"><a xlink:href="https://github.com/conda-forge/scine-database-python-feedstock" xlink:title="scine database python">
<ellipse fill="#fde725" stroke="black" cx="1542.52" cy="-602" rx="123.29" ry="18"/>
<text xml:space="preserve" text-anchor="middle" x="1542.52" y="-597.33" font-family="Times,serif" font-size="14.00">scine database python</text>
</a>
</g>
</g>
<!-- scine&#45;utilities&#45;python&#45;&gt;scine&#45;database&#45;python -->
<g id="edge29" class="edge">
<title>scine&#45;utilities&#45;python&#45;&gt;scine&#45;database&#45;python</title>
<path fill="none" stroke="black" d="M1542.52,-727.59C1542.52,-703.61 1542.52,-660.14 1542.52,-631.42"/>
<polygon fill="black" stroke="black" points="1546.02,-631.62 1542.52,-621.62 1539.02,-631.62 1546.02,-631.62"/>
</g>
<!-- scine&#45;molassembler -->
<g id="node28" class="node">
<title>scine&#45;molassembler</title>
<g id="a_node28"><a xlink:href="https://github.com/conda-forge/scine-molassembler-feedstock" xlink:title="scine molassembler">
<ellipse fill="#fde725" stroke="black" cx="1693.52" cy="-530" rx="110.13" ry="18"/>
<text xml:space="preserve" text-anchor="middle" x="1693.52" y="-525.33" font-family="Times,serif" font-size="14.00">scine molassembler</text>
</a>
</g>
</g>
<!-- scine&#45;utilities&#45;python&#45;&gt;scine&#45;molassembler -->
<g id="edge30" class="edge">
<title>scine&#45;utilities&#45;python&#45;&gt;scine&#45;molassembler</title>
<path fill="none" stroke="black" d="M1568.31,-728C1598.67,-706.56 1648.26,-666.79 1674.52,-620 1684.88,-601.55 1689.6,-578.06 1691.74,-559.84"/>
<polygon fill="black" stroke="black" points="1695.22,-560.26 1692.69,-549.97 1688.25,-559.59 1695.22,-560.26"/>
</g>
<!-- libthermo -->
<g id="node31" class="node">
<title>libthermo</title>
<g id="a_node31"><a xlink:href="https://github.com/conda-forge/libthermo-feedstock/pull/20" xlink:title="libthermo ❎">
<ellipse fill="#31688e" stroke="black" cx="1255.52" cy="-350" rx="75.41" ry="18"/>
<text xml:space="preserve" text-anchor="middle" x="1255.52" y="-345.32" font-family="Times,serif" font-size="14.00" fill="white">libthermo ❎</text>
</a>
</g>
</g>
<!-- hoomd&#45;dlext&#45;&gt;libthermo -->
<!-- reaktplot -->
<g id="node30" class="node">
<title>reaktplot</title>
<g id="a_node30"><a xlink:href="https://github.com/conda-forge/reaktplot-feedstock/pull/13" xlink:title="reaktplot ❎">
<ellipse fill="#31688e" stroke="black" cx="489.52" cy="-234" rx="72.25" ry="18"/>
<text xml:space="preserve" text-anchor="middle" x="489.52" y="-229.32" font-family="Times,serif" font-size="14.00" fill="white">reaktplot ❎</text>
</a>
</g>
</g>
<!-- reaktplot&#45;&gt;reaktoro -->
<g id="edge32" class="edge">
<title>reaktplot&#45;&gt;reaktoro</title>
<path fill="none" stroke="black" d="M491.63,-215.84C494.22,-197.59 499.44,-168.1 508.52,-144 522.09,-108 544.82,-69.86 560.68,-45.32"/>
<polygon fill="black" stroke="black" points="563.42,-47.54 565.98,-37.26 557.56,-43.69 563.42,-47.54"/>
</g>
<!-- veloxchem -->
<g id="node32" class="node">
<title>veloxchem</title>
<g id="a_node32"><a xlink:href="https://github.com/conda-forge/veloxchem-feedstock/pull/22" xlink:title="veloxchem ❎">
<ellipse fill="#31688e" stroke="black" cx="1255.52" cy="-278" rx="79.62" ry="18"/>
<text xml:space="preserve" text-anchor="middle" x="1255.52" y="-273.32" font-family="Times,serif" font-size="14.00" fill="white">veloxchem ❎</text>
</a>
</g>
</g>
<!-- libthermo&#45;&gt;veloxchem -->
<!-- psi4 -->
<g id="node33" class="node">
<title>psi4</title>
<g id="a_node33"><a xlink:href="https://github.com/conda-forge/psi4-feedstock" xlink:title="psi4">
<ellipse fill="#fde725" stroke="black" cx="1579.52" cy="-126" rx="32.27" ry="18"/>
<text xml:space="preserve" text-anchor="middle" x="1579.52" y="-121.33" font-family="Times,serif" font-size="14.00">psi4</text>
</a>
</g>
</g>
<!-- forte -->
<g id="node34" class="node">
<title>forte</title>
<g id="a_node34"><a xlink:href="https://github.com/conda-forge/forte-feedstock" xlink:title="forte">
<ellipse fill="#fde725" stroke="black" cx="1579.52" cy="-54" rx="35.42" ry="18"/>
<text xml:space="preserve" text-anchor="middle" x="1579.52" y="-49.33" font-family="Times,serif" font-size="14.00">forte</text>
</a>
</g>
</g>
<!-- psi4&#45;&gt;forte -->
<g id="edge35" class="edge">
<title>psi4&#45;&gt;forte</title>
<path fill="none" stroke="black" d="M1579.52,-107.7C1579.52,-100.41 1579.52,-91.73 1579.52,-83.54"/>
<polygon fill="black" stroke="black" points="1583.02,-83.62 1579.52,-73.62 1576.02,-83.62 1583.02,-83.62"/>
</g>
<!-- gdma -->
<g id="node35" class="node">
<title>gdma</title>
<g id="a_node35"><a xlink:href="https://github.com/conda-forge/gdma-feedstock/pull/15" xlink:title="gdma ✓">
<ellipse fill="#31688e" stroke="black" cx="1579.52" cy="-198" rx="47" ry="18"/>
<text xml:space="preserve" text-anchor="middle" x="1579.52" y="-193.32" font-family="Times,serif" font-size="14.00" fill="white">gdma ✓</text>
</a>
</g>
</g>
<!-- gdma&#45;&gt;psi4 -->
<g id="edge36" class="edge">
<title>gdma&#45;&gt;psi4</title>
<path fill="none" stroke="black" d="M1579.52,-179.7C1579.52,-172.41 1579.52,-163.73 1579.52,-155.54"/>
<polygon fill="black" stroke="black" points="1583.02,-155.62 1579.52,-145.62 1576.02,-155.62 1583.02,-155.62"/>
</g>
<!-- qsimcirq -->
<g id="node36" class="node">
<title>qsimcirq</title>
<g id="a_node36"><a xlink:href="https://github.com/conda-forge/qsimcirq-feedstock/pull/30" xlink:title="qsimcirq ❎">
<ellipse fill="#31688e" stroke="black" cx="1255.52" cy="-198" rx="70.15" ry="18"/>
<text xml:space="preserve" text-anchor="middle" x="1255.52" y="-193.32" font-family="Times,serif" font-size="14.00" fill="white">qsimcirq ❎</text>
</a>
</g>
</g>
<!-- open3d -->
<g id="node37" class="node">
<title>open3d</title>
<g id="a_node37"><a xlink:href="https://github.com/conda-forge/open3d-feedstock/pull/46" xlink:title="open3d ✓">
<ellipse fill="#31688e" stroke="black" cx="1255.52" cy="-126" rx="55.94" ry="18"/>
<text xml:space="preserve" text-anchor="middle" x="1255.52" y="-121.33" font-family="Times,serif" font-size="14.00" fill="white">open3d ✓</text>
</a>
</g>
</g>
<!-- qsimcirq&#45;&gt;open3d -->
<!-- cuik&#45;molmaker -->
<g id="node38" class="node">
<title>cuik&#45;molmaker</title>
<g id="a_node38"><a xlink:href="https://github.com/conda-forge/cuik-molmaker-feedstock/pull/3" xlink:title="cuik molmaker ✓">
<ellipse fill="#31688e" stroke="black" cx="1255.52" cy="-54" rx="92.77" ry="18"/>
<text xml:space="preserve" text-anchor="middle" x="1255.52" y="-49.33" font-family="Times,serif" font-size="14.00" fill="white">cuik molmaker ✓</text>
</a>
</g>
</g>
<!-- open3d&#45;&gt;cuik&#45;molmaker -->
</g>
</svg>
