<?xml version="1.0" encoding="UTF-8" standalone="no"?>
<!DOCTYPE svg PUBLIC "-//W3C//DTD SVG 1.1//EN"
 "http://www.w3.org/Graphics/SVG/1.1/DTD/svg11.dtd">
<!-- Generated by graphviz version 13.1.1 (20250720.1534)
 -->
<!-- Pages: 1 -->
<svg width="1877pt" height="1212pt"
 viewBox="0.00 0.00 1877.00 1212.00" xmlns="http://www.w3.org/2000/svg" xmlns:xlink="http://www.w3.org/1999/xlink">
<g id="graph0" class="graph" transform="scale(1 1) rotate(0) translate(4 1208)">
<polygon fill="white" stroke="none" points="-4,4 -4,-1208 1873.41,-1208 1873.41,4 -4,4"/>
<!-- pyaudi -->
<g id="node1" class="node">
<title>pyaudi</title>
<g id="a_node1"><a xlink:href="https://github.com/conda-forge/pyaudi-feedstock/pull/49" xlink:title="pyaudi ✓">
<ellipse fill="#31688e" stroke="black" cx="1318.52" cy="-90" rx="52.79" ry="18"/>
<text xml:space="preserve" text-anchor="middle" x="1318.52" y="-85.33" font-family="Times,serif" font-size="14.00" fill="white">pyaudi ✓</text>
</a>
</g>
</g>
<!-- dcgp&#45;python -->
<g id="node2" class="node">
<title>dcgp&#45;python</title>
<g id="a_node2"><a xlink:href="https://github.com/conda-forge/dcgp-python-feedstock" xlink:title="dcgp python">
<ellipse fill="#fde725" stroke="black" cx="1318.52" cy="-18" rx="73.3" ry="18"/>
<text xml:space="preserve" text-anchor="middle" x="1318.52" y="-13.32" font-family="Times,serif" font-size="14.00">dcgp python</text>
</a>
</g>
</g>
<!-- pyaudi&#45;&gt;dcgp&#45;python -->
<g id="edge1" class="edge">
<title>pyaudi&#45;&gt;dcgp&#45;python</title>
<path fill="none" stroke="black" d="M1318.52,-71.7C1318.52,-64.41 1318.52,-55.73 1318.52,-47.54"/>
<polygon fill="black" stroke="black" points="1322.02,-47.62 1318.52,-37.62 1315.02,-47.62 1322.02,-47.62"/>
</g>
<!-- fastscapelib -->
<g id="node3" class="node">
<title>fastscapelib</title>
<g id="a_node3"><a xlink:href="https://github.com/conda-forge/fastscapelib-feedstock/pull/22" xlink:title="fastscapelib ❎">
<ellipse fill="#31688e" stroke="black" cx="1318.52" cy="-1186" rx="86.46" ry="18"/>
<text xml:space="preserve" text-anchor="middle" x="1318.52" y="-1181.33" font-family="Times,serif" font-size="14.00" fill="white">fastscapelib ❎</text>
</a>
</g>
</g>
<!-- mamba -->
<g id="node4" class="node">
<title>mamba</title>
<g id="a_node4"><a xlink:href="https://github.com/conda-forge/mamba-feedstock/pull/337" xlink:title="mamba ❎">
<ellipse fill="#31688e" stroke="black" cx="1318.52" cy="-1114" rx="63.31" ry="18"/>
<text xml:space="preserve" text-anchor="middle" x="1318.52" y="-1109.33" font-family="Times,serif" font-size="14.00" fill="white">mamba ❎</text>
</a>
</g>
</g>
<!-- fastscapelib&#45;&gt;mamba -->
<!-- cppcolormap -->
<g id="node7" class="node">
<title>cppcolormap</title>
<g id="a_node7"><a xlink:href="https://github.com/conda-forge/cppcolormap-feedstock/pull/35" xlink:title="cppcolormap ❎">
<ellipse fill="#31688e" stroke="black" cx="1318.52" cy="-1042" rx="90.67" ry="18"/>
<text xml:space="preserve" text-anchor="middle" x="1318.52" y="-1037.33" font-family="Times,serif" font-size="14.00" fill="white">cppcolormap ❎</text>
</a>
</g>
</g>
<!-- mamba&#45;&gt;cppcolormap -->
<!-- reaktoro -->
<g id="node5" class="node">
<title>reaktoro</title>
<g id="a_node5"><a xlink:href="https://github.com/conda-forge/reaktoro-feedstock" xlink:title="reaktoro">
<ellipse fill="#fde725" stroke="black" cx="1661.52" cy="-682" rx="53.84" ry="18"/>
<text xml:space="preserve" text-anchor="middle" x="1661.52" y="-677.33" font-family="Times,serif" font-size="14.00">reaktoro</text>
</a>
</g>
</g>
<!-- autodiff -->
<g id="node6" class="node">
<title>autodiff</title>
<g id="a_node6"><a xlink:href="https://github.com/conda-forge/autodiff-feedstock/pull/65" xlink:title="autodiff ❎">
<ellipse fill="#31688e" stroke="black" cx="1804.52" cy="-754" rx="64.89" ry="18"/>
<text xml:space="preserve" text-anchor="middle" x="1804.52" y="-749.33" font-family="Times,serif" font-size="14.00" fill="white">autodiff ❎</text>
</a>
</g>
</g>
<!-- autodiff&#45;&gt;reaktoro -->
<g id="edge3" class="edge">
<title>autodiff&#45;&gt;reaktoro</title>
<path fill="none" stroke="black" d="M1773.49,-737.81C1752.26,-727.42 1723.94,-713.55 1701.09,-702.37"/>
<polygon fill="black" stroke="black" points="1702.9,-699.36 1692.38,-698.11 1699.83,-705.65 1702.9,-699.36"/>
</g>
<!-- gnuradio -->
<g id="node9" class="node">
<title>gnuradio</title>
<g id="a_node9"><a xlink:href="https://github.com/conda-forge/gnuradio-feedstock/pull/301" xlink:title="gnuradio ❎">
<ellipse fill="#31688e" stroke="black" cx="1318.52" cy="-970" rx="71.2" ry="18"/>
<text xml:space="preserve" text-anchor="middle" x="1318.52" y="-965.33" font-family="Times,serif" font-size="14.00" fill="white">gnuradio ❎</text>
</a>
</g>
</g>
<!-- cppcolormap&#45;&gt;gnuradio -->
<!-- thermofun -->
<g id="node8" class="node">
<title>thermofun</title>
<g id="a_node8"><a xlink:href="https://github.com/conda-forge/thermofun-feedstock/pull/62" xlink:title="thermofun ✓">
<ellipse fill="#31688e" stroke="black" cx="1742.52" cy="-826" rx="71.73" ry="18"/>
<text xml:space="preserve" text-anchor="middle" x="1742.52" y="-821.33" font-family="Times,serif" font-size="14.00" fill="white">thermofun ✓</text>
</a>
</g>
</g>
<!-- thermofun&#45;&gt;reaktoro -->
<g id="edge5" class="edge">
<title>thermofun&#45;&gt;reaktoro</title>
<path fill="none" stroke="black" d="M1732.75,-807.87C1718.89,-783.56 1693.36,-738.82 1676.93,-710.01"/>
<polygon fill="black" stroke="black" points="1680.07,-708.46 1672.08,-701.5 1673.99,-711.92 1680.07,-708.46"/>
</g>
<!-- xcfun -->
<g id="node11" class="node">
<title>xcfun</title>
<g id="a_node11"><a xlink:href="https://github.com/conda-forge/xcfun-feedstock/pull/20" xlink:title="xcfun ❎">
<ellipse fill="#31688e" stroke="black" cx="1318.52" cy="-898" rx="53.84" ry="18"/>
<text xml:space="preserve" text-anchor="middle" x="1318.52" y="-893.33" font-family="Times,serif" font-size="14.00" fill="white">xcfun ❎</text>
</a>
</g>
</g>
<!-- gnuradio&#45;&gt;xcfun -->
<!-- gooseeye -->
<g id="node10" class="node">
<title>gooseeye</title>
<g id="a_node10"><a xlink:href="https://github.com/conda-forge/gooseeye-feedstock" xlink:title="gooseeye">
<ellipse fill="#fde725" stroke="black" cx="57.52" cy="-754" rx="57.52" ry="18"/>
<text xml:space="preserve" text-anchor="middle" x="57.52" y="-749.33" font-family="Times,serif" font-size="14.00">gooseeye</text>
</a>
</g>
</g>
<!-- fimex -->
<g id="node21" class="node">
<title>fimex</title>
<g id="a_node21"><a xlink:href="https://github.com/conda-forge/fimex-feedstock/pull/90" xlink:title="fimex ❎">
<ellipse fill="#31688e" stroke="black" cx="1318.52" cy="-826" rx="53.84" ry="18"/>
<text xml:space="preserve" text-anchor="middle" x="1318.52" y="-821.33" font-family="Times,serif" font-size="14.00" fill="white">fimex ❎</text>
</a>
</g>
</g>
<!-- xcfun&#45;&gt;fimex -->
<!-- gmatelastoplastic -->
<g id="node12" class="node">
<title>gmatelastoplastic</title>
<g id="a_node12"><a xlink:href="https://github.com/conda-forge/gmatelastoplastic-feedstock" xlink:title="gmatelastoplastic">
<ellipse fill="#fde725" stroke="black" cx="606.52" cy="-826" rx="100.14" ry="18"/>
<text xml:space="preserve" text-anchor="middle" x="606.52" y="-821.33" font-family="Times,serif" font-size="14.00">gmatelastoplastic</text>
</a>
</g>
</g>
<!-- gmatelastoplasticqpot -->
<g id="node13" class="node">
<title>gmatelastoplasticqpot</title>
<g id="a_node13"><a xlink:href="https://github.com/conda-forge/gmatelastoplasticqpot-feedstock" xlink:title="gmatelastoplasticqpot">
<ellipse fill="#fde725" stroke="black" cx="1013.52" cy="-826" rx="122.76" ry="18"/>
<text xml:space="preserve" text-anchor="middle" x="1013.52" y="-821.33" font-family="Times,serif" font-size="14.00">gmatelastoplasticqpot</text>
</a>
</g>
</g>
<!-- frictionqpotfem -->
<g id="node14" class="node">
<title>frictionqpotfem</title>
<g id="a_node14"><a xlink:href="https://github.com/conda-forge/frictionqpotfem-feedstock" xlink:title="frictionqpotfem">
<ellipse fill="#fde725" stroke="black" cx="905.52" cy="-754" rx="89.09" ry="18"/>
<text xml:space="preserve" text-anchor="middle" x="905.52" y="-749.33" font-family="Times,serif" font-size="14.00">frictionqpotfem</text>
</a>
</g>
</g>
<!-- gmatelastoplasticqpot&#45;&gt;frictionqpotfem -->
<g id="edge8" class="edge">
<title>gmatelastoplasticqpot&#45;&gt;frictionqpotfem</title>
<path fill="none" stroke="black" d="M987.38,-808.05C973.35,-798.96 955.86,-787.63 940.65,-777.77"/>
<polygon fill="black" stroke="black" points="942.62,-774.87 932.32,-772.37 938.81,-780.75 942.62,-774.87"/>
</g>
<!-- gmatelastoplasticfinitestrainsimo -->
<g id="node15" class="node">
<title>gmatelastoplasticfinitestrainsimo</title>
<g id="a_node15"><a xlink:href="https://github.com/conda-forge/gmatelastoplasticfinitestrainsimo-feedstock" xlink:title="gmatelastoplasticfinitestrainsimo">
<ellipse fill="#fde725" stroke="black" cx="471.52" cy="-898" rx="179.05" ry="18"/>
<text xml:space="preserve" text-anchor="middle" x="471.52" y="-893.33" font-family="Times,serif" font-size="14.00">gmatelastoplasticfinitestrainsimo</text>
</a>
</g>
</g>
<!-- gmatnonlinearelastic -->
<g id="node16" class="node">
<title>gmatnonlinearelastic</title>
<g id="a_node16"><a xlink:href="https://github.com/conda-forge/gmatnonlinearelastic-feedstock" xlink:title="gmatnonlinearelastic">
<ellipse fill="#fde725" stroke="black" cx="371.52" cy="-826" rx="116.97" ry="18"/>
<text xml:space="preserve" text-anchor="middle" x="371.52" y="-821.33" font-family="Times,serif" font-size="14.00">gmatnonlinearelastic</text>
</a>
</g>
</g>
<!-- gmatelastic -->
<g id="node17" class="node">
<title>gmatelastic</title>
<g id="a_node17"><a xlink:href="https://github.com/conda-forge/gmatelastic-feedstock" xlink:title="gmatelastic">
<ellipse fill="#fde725" stroke="black" cx="776.52" cy="-898" rx="69.62" ry="18"/>
<text xml:space="preserve" text-anchor="middle" x="776.52" y="-893.33" font-family="Times,serif" font-size="14.00">gmatelastic</text>
</a>
</g>
</g>
<!-- gmatelastic&#45;&gt;gmatelastoplastic -->
<g id="edge9" class="edge">
<title>gmatelastic&#45;&gt;gmatelastoplastic</title>
<path fill="none" stroke="black" d="M740.47,-882.15C715.86,-872.02 682.95,-858.47 655.91,-847.34"/>
<polygon fill="black" stroke="black" points="657.46,-844.19 646.88,-843.62 654.8,-850.66 657.46,-844.19"/>
</g>
<!-- gmatelastic&#45;&gt;gmatelastoplasticqpot -->
<g id="edge10" class="edge">
<title>gmatelastic&#45;&gt;gmatelastoplasticqpot</title>
<path fill="none" stroke="black" d="M821.1,-883.83C857.33,-873.13 908.92,-857.89 949.56,-845.89"/>
<polygon fill="black" stroke="black" points="950.39,-849.3 958.99,-843.11 948.41,-842.58 950.39,-849.3"/>
</g>
<!-- gmatelastic&#45;&gt;gmatnonlinearelastic -->
<g id="edge11" class="edge">
<title>gmatelastic&#45;&gt;gmatnonlinearelastic</title>
<path fill="none" stroke="black" d="M719.78,-887.19C651.79,-875.44 537.17,-855.63 458.1,-841.96"/>
<polygon fill="black" stroke="black" points="459.13,-838.59 448.68,-840.34 457.93,-845.49 459.13,-838.59"/>
</g>
<!-- goosefem -->
<g id="node18" class="node">
<title>goosefem</title>
<g id="a_node18"><a xlink:href="https://github.com/conda-forge/goosefem-feedstock/pull/66" xlink:title="goosefem ❎">
<ellipse fill="#31688e" stroke="black" cx="798.52" cy="-826" rx="74.36" ry="18"/>
<text xml:space="preserve" text-anchor="middle" x="798.52" y="-821.33" font-family="Times,serif" font-size="14.00" fill="white">goosefem ❎</text>
</a>
</g>
</g>
<!-- goosefem&#45;&gt;frictionqpotfem -->
<g id="edge12" class="edge">
<title>goosefem&#45;&gt;frictionqpotfem</title>
<path fill="none" stroke="black" d="M823.61,-808.59C837.73,-799.35 855.56,-787.68 870.99,-777.59"/>
<polygon fill="black" stroke="black" points="872.5,-780.78 878.95,-772.38 868.67,-774.93 872.5,-780.78"/>
</g>
<!-- frictionqpotspringblock -->
<g id="node19" class="node">
<title>frictionqpotspringblock</title>
<g id="a_node19"><a xlink:href="https://github.com/conda-forge/frictionqpotspringblock-feedstock" xlink:title="frictionqpotspringblock">
<ellipse fill="#fde725" stroke="black" cx="300.52" cy="-754" rx="128.55" ry="18"/>
<text xml:space="preserve" text-anchor="middle" x="300.52" y="-749.33" font-family="Times,serif" font-size="14.00">frictionqpotspringblock</text>
</a>
</g>
</g>
<!-- goosefem&#45;&gt;frictionqpotspringblock -->
<g id="edge13" class="edge">
<title>goosefem&#45;&gt;frictionqpotspringblock</title>
<path fill="none" stroke="black" d="M744.61,-813.35C734.95,-811.43 724.95,-809.57 715.52,-808 613.11,-791 495.69,-776.46 411.94,-766.93"/>
<polygon fill="black" stroke="black" points="412.45,-763.47 402.12,-765.82 411.66,-770.42 412.45,-763.47"/>
</g>
<!-- qpot -->
<g id="node20" class="node">
<title>qpot</title>
<g id="a_node20"><a xlink:href="https://github.com/conda-forge/qpot-feedstock/pull/58" xlink:title="qpot ❎">
<ellipse fill="#31688e" stroke="black" cx="1067.52" cy="-898" rx="49.1" ry="18"/>
<text xml:space="preserve" text-anchor="middle" x="1067.52" y="-893.33" font-family="Times,serif" font-size="14.00" fill="white">qpot ❎</text>
</a>
</g>
</g>
<!-- qpot&#45;&gt;gmatelastoplasticqpot -->
<g id="edge14" class="edge">
<title>qpot&#45;&gt;gmatelastoplasticqpot</title>
<path fill="none" stroke="black" d="M1054.72,-880.41C1048.43,-872.25 1040.69,-862.22 1033.63,-853.07"/>
<polygon fill="black" stroke="black" points="1036.41,-850.93 1027.53,-845.15 1030.86,-855.21 1036.41,-850.93"/>
</g>
<!-- qpot&#45;&gt;frictionqpotfem -->
<g id="edge15" class="edge">
<title>qpot&#45;&gt;frictionqpotfem</title>
<path fill="none" stroke="black" d="M1099.57,-884.19C1116.52,-875.56 1135.79,-862.38 1145.52,-844 1153.01,-829.86 1155.54,-820.47 1145.52,-808 1126.82,-784.72 1056.81,-771.05 997.2,-763.44"/>
<polygon fill="black" stroke="black" points="997.68,-759.98 987.32,-762.23 996.82,-766.92 997.68,-759.98"/>
</g>
<!-- mi&#45;fieldcalc -->
<g id="node29" class="node">
<title>mi&#45;fieldcalc</title>
<g id="a_node29"><a xlink:href="https://github.com/conda-forge/mi-fieldcalc-feedstock/pull/13" xlink:title="mi fieldcalc ❎">
<ellipse fill="#31688e" stroke="black" cx="1318.52" cy="-754" rx="83.3" ry="18"/>
<text xml:space="preserve" text-anchor="middle" x="1318.52" y="-749.33" font-family="Times,serif" font-size="14.00" fill="white">mi fieldcalc ❎</text>
</a>
</g>
</g>
<!-- fimex&#45;&gt;mi&#45;fieldcalc -->
<!-- gmattensor -->
<g id="node22" class="node">
<title>gmattensor</title>
<g id="a_node22"><a xlink:href="https://github.com/conda-forge/gmattensor-feedstock/pull/42" xlink:title="gmattensor ❎">
<ellipse fill="#31688e" stroke="black" cx="574.52" cy="-970" rx="84.35" ry="18"/>
<text xml:space="preserve" text-anchor="middle" x="574.52" y="-965.33" font-family="Times,serif" font-size="14.00" fill="white">gmattensor ❎</text>
</a>
</g>
</g>
<!-- gmattensor&#45;&gt;gmatelastoplastic -->
<g id="edge17" class="edge">
<title>gmattensor&#45;&gt;gmatelastoplastic</title>
<path fill="none" stroke="black" d="M615.53,-953.95C632.31,-945.52 649.99,-933.18 659.52,-916 667.29,-902.01 665.64,-894.78 659.52,-880 655.04,-869.18 647.16,-859.42 638.82,-851.31"/>
<polygon fill="black" stroke="black" points="641.34,-848.87 631.57,-844.78 636.66,-854.07 641.34,-848.87"/>
</g>
<!-- gmattensor&#45;&gt;gmatelastoplasticqpot -->
<g id="edge18" class="edge">
<title>gmattensor&#45;&gt;gmatelastoplasticqpot</title>
<path fill="none" stroke="black" d="M649.95,-961.55C707.57,-954.25 788.24,-940.54 855.52,-916 901.03,-899.4 948.9,-870.61 979.86,-850.28"/>
<polygon fill="black" stroke="black" points="981.65,-853.29 988.04,-844.84 977.77,-847.46 981.65,-853.29"/>
</g>
<!-- gmattensor&#45;&gt;gmatelastoplasticfinitestrainsimo -->
<g id="edge19" class="edge">
<title>gmattensor&#45;&gt;gmatelastoplasticfinitestrainsimo</title>
<path fill="none" stroke="black" d="M550.11,-952.41C536.94,-943.46 520.45,-932.25 505.99,-922.42"/>
<polygon fill="black" stroke="black" points="508.32,-919.78 498.08,-917.05 504.39,-925.57 508.32,-919.78"/>
</g>
<!-- gmattensor&#45;&gt;gmatnonlinearelastic -->
<g id="edge20" class="edge">
<title>gmattensor&#45;&gt;gmatnonlinearelastic</title>
<path fill="none" stroke="black" d="M492.47,-965.46C415.93,-960.24 309.72,-947.4 283.52,-916 273.27,-903.71 275.65,-893.93 283.52,-880 291.15,-866.51 303.74,-856.07 317.04,-848.16"/>
<polygon fill="black" stroke="black" points="318.36,-851.43 325.47,-843.57 315.01,-845.28 318.36,-851.43"/>
</g>
<!-- gmattensor&#45;&gt;gmatelastic -->
<g id="edge21" class="edge">
<title>gmattensor&#45;&gt;gmatelastic</title>
<path fill="none" stroke="black" d="M617.36,-954.15C649.02,-943.18 692.26,-928.2 725.67,-916.62"/>
<polygon fill="black" stroke="black" points="726.42,-920.07 734.72,-913.49 724.13,-913.45 726.42,-920.07"/>
</g>
<!-- gmattensor&#45;&gt;frictionqpotspringblock -->
<g id="edge22" class="edge">
<title>gmattensor&#45;&gt;frictionqpotspringblock</title>
<path fill="none" stroke="black" d="M494.61,-963.86C416.78,-957.32 305.54,-943.41 272.52,-916 234.45,-884.4 226.16,-853.53 245.52,-808 250.11,-797.2 258.1,-787.53 266.59,-779.51"/>
<polygon fill="black" stroke="black" points="268.77,-782.25 274,-773.04 264.17,-776.98 268.77,-782.25"/>
</g>
<!-- cppe -->
<g id="node23" class="node">
<title>cppe</title>
<g id="a_node23"><a xlink:href="https://github.com/conda-forge/cppe-feedstock/pull/27" xlink:title="cppe ✓">
<ellipse fill="#31688e" stroke="black" cx="1409.52" cy="-314" rx="42.79" ry="18"/>
<text xml:space="preserve" text-anchor="middle" x="1409.52" y="-309.32" font-family="Times,serif" font-size="14.00" fill="white">cppe ✓</text>
</a>
</g>
</g>
<!-- veloxchem -->
<g id="node24" class="node">
<title>veloxchem</title>
<g id="a_node24"><a xlink:href="https://github.com/conda-forge/veloxchem-feedstock" xlink:title="veloxchem">
<ellipse fill="#fde725" stroke="black" cx="1409.52" cy="-242" rx="64.36" ry="18"/>
<text xml:space="preserve" text-anchor="middle" x="1409.52" y="-237.32" font-family="Times,serif" font-size="14.00">veloxchem</text>
</a>
</g>
</g>
<!-- cppe&#45;&gt;veloxchem -->
<g id="edge23" class="edge">
<title>cppe&#45;&gt;veloxchem</title>
<path fill="none" stroke="black" d="M1409.52,-295.7C1409.52,-288.41 1409.52,-279.73 1409.52,-271.54"/>
<polygon fill="black" stroke="black" points="1413.02,-271.62 1409.52,-261.62 1406.02,-271.62 1413.02,-271.62"/>
</g>
<!-- psi4 -->
<g id="node25" class="node">
<title>psi4</title>
<g id="a_node25"><a xlink:href="https://github.com/conda-forge/psi4-feedstock" xlink:title="psi4">
<ellipse fill="#fde725" stroke="black" cx="1293.52" cy="-242" rx="32.27" ry="18"/>
<text xml:space="preserve" text-anchor="middle" x="1293.52" y="-237.32" font-family="Times,serif" font-size="14.00">psi4</text>
</a>
</g>
</g>
<!-- cppe&#45;&gt;psi4 -->
<g id="edge24" class="edge">
<title>cppe&#45;&gt;psi4</title>
<path fill="none" stroke="black" d="M1385.77,-298.67C1368.12,-288.02 1343.9,-273.4 1324.7,-261.81"/>
<polygon fill="black" stroke="black" points="1326.57,-258.85 1316.2,-256.68 1322.95,-264.85 1326.57,-258.85"/>
</g>
<!-- forte -->
<g id="node26" class="node">
<title>forte</title>
<g id="a_node26"><a xlink:href="https://github.com/conda-forge/forte-feedstock" xlink:title="forte">
<ellipse fill="#fde725" stroke="black" cx="1293.52" cy="-170" rx="35.42" ry="18"/>
<text xml:space="preserve" text-anchor="middle" x="1293.52" y="-165.32" font-family="Times,serif" font-size="14.00">forte</text>
</a>
</g>
</g>
<!-- psi4&#45;&gt;forte -->
<g id="edge25" class="edge">
<title>psi4&#45;&gt;forte</title>
<path fill="none" stroke="black" d="M1293.52,-223.7C1293.52,-216.41 1293.52,-207.73 1293.52,-199.54"/>
<polygon fill="black" stroke="black" points="1297.02,-199.62 1293.52,-189.62 1290.02,-199.62 1297.02,-199.62"/>
</g>
<!-- heyoka.py -->
<g id="node27" class="node">
<title>heyoka.py</title>
<g id="a_node27"><a xlink:href="https://github.com/conda-forge/heyoka.py-feedstock/pull/108" xlink:title="heyoka py ❎">
<ellipse fill="#31688e" stroke="black" cx="577.52" cy="-90" rx="76.99" ry="18"/>
<text xml:space="preserve" text-anchor="middle" x="577.52" y="-85.33" font-family="Times,serif" font-size="14.00" fill="white">heyoka py ❎</text>
</a>
</g>
</g>
<!-- cascade -->
<g id="node28" class="node">
<title>cascade</title>
<g id="a_node28"><a xlink:href="https://github.com/conda-forge/cascade-feedstock" xlink:title="cascade">
<ellipse fill="#fde725" stroke="black" cx="577.52" cy="-18" rx="50.68" ry="18"/>
<text xml:space="preserve" text-anchor="middle" x="577.52" y="-13.32" font-family="Times,serif" font-size="14.00">cascade</text>
</a>
</g>
</g>
<!-- heyoka.py&#45;&gt;cascade -->
<g id="edge26" class="edge">
<title>heyoka.py&#45;&gt;cascade</title>
<path fill="none" stroke="black" d="M577.52,-71.7C577.52,-64.41 577.52,-55.73 577.52,-47.54"/>
<polygon fill="black" stroke="black" points="581.02,-47.62 577.52,-37.62 574.02,-47.62 581.02,-47.62"/>
</g>
<!-- timemory -->
<g id="node32" class="node">
<title>timemory</title>
<g id="a_node32"><a xlink:href="https://github.com/conda-forge/timemory-feedstock/pull/22" xlink:title="timemory ❎">
<ellipse fill="#31688e" stroke="black" cx="1318.52" cy="-682" rx="74.88" ry="18"/>
<text xml:space="preserve" text-anchor="middle" x="1318.52" y="-677.33" font-family="Times,serif" font-size="14.00" fill="white">timemory ❎</text>
</a>
</g>
</g>
<!-- mi&#45;fieldcalc&#45;&gt;timemory -->
<!-- prrng -->
<g id="node30" class="node">
<title>prrng</title>
<g id="a_node30"><a xlink:href="https://github.com/conda-forge/prrng-feedstock/pull/67" xlink:title="prrng ❎">
<ellipse fill="#31688e" stroke="black" cx="143.52" cy="-826" rx="54.89" ry="18"/>
<text xml:space="preserve" text-anchor="middle" x="143.52" y="-821.33" font-family="Times,serif" font-size="14.00" fill="white">prrng ❎</text>
</a>
</g>
</g>
<!-- prrng&#45;&gt;gooseeye -->
<g id="edge28" class="edge">
<title>prrng&#45;&gt;gooseeye</title>
<path fill="none" stroke="black" d="M123.58,-808.76C112.4,-799.66 98.26,-788.16 85.94,-778.13"/>
<polygon fill="black" stroke="black" points="88.5,-775.7 78.53,-772.1 84.08,-781.13 88.5,-775.7"/>
</g>
<!-- prrng&#45;&gt;frictionqpotfem -->
<g id="edge29" class="edge">
<title>prrng&#45;&gt;frictionqpotfem</title>
<path fill="none" stroke="black" d="M190.63,-816.29C207.85,-813.33 227.53,-810.22 245.52,-808 445,-783.41 679.88,-767.69 808.74,-760.19"/>
<polygon fill="black" stroke="black" points="808.82,-763.69 818.6,-759.62 808.42,-756.7 808.82,-763.69"/>
</g>
<!-- prrng&#45;&gt;frictionqpotspringblock -->
<g id="edge30" class="edge">
<title>prrng&#45;&gt;frictionqpotspringblock</title>
<path fill="none" stroke="black" d="M174.92,-811C197.15,-801.09 227.39,-787.61 252.63,-776.35"/>
<polygon fill="black" stroke="black" points="254.01,-779.57 261.72,-772.3 251.16,-773.18 254.01,-779.57"/>
</g>
<!-- gooseepm&#45;split -->
<g id="node31" class="node">
<title>gooseepm&#45;split</title>
<g id="a_node31"><a xlink:href="https://github.com/conda-forge/gooseepm-split-feedstock" xlink:title="gooseepm split">
<ellipse fill="#fde725" stroke="black" cx="143.52" cy="-682" rx="86.98" ry="18"/>
<text xml:space="preserve" text-anchor="middle" x="143.52" y="-677.33" font-family="Times,serif" font-size="14.00">gooseepm split</text>
</a>
</g>
</g>
<!-- prrng&#45;&gt;gooseepm&#45;split -->
<g id="edge31" class="edge">
<title>prrng&#45;&gt;gooseepm&#45;split</title>
<path fill="none" stroke="black" d="M143.52,-807.59C143.52,-783.61 143.52,-740.14 143.52,-711.42"/>
<polygon fill="black" stroke="black" points="147.02,-711.62 143.52,-701.62 140.02,-711.62 147.02,-711.62"/>
</g>
<!-- fretraj -->
<g id="node34" class="node">
<title>fretraj</title>
<g id="a_node34"><a xlink:href="https://github.com/conda-forge/fretraj-feedstock/pull/12" xlink:title="fretraj ✓">
<ellipse fill="#31688e" stroke="black" cx="1318.52" cy="-610" rx="51.21" ry="18"/>
<text xml:space="preserve" text-anchor="middle" x="1318.52" y="-605.33" font-family="Times,serif" font-size="14.00" fill="white">fretraj ✓</text>
</a>
</g>
</g>
<!-- timemory&#45;&gt;fretraj -->
<!-- optima -->
<g id="node33" class="node">
<title>optima</title>
<g id="a_node33"><a xlink:href="https://github.com/conda-forge/optima-feedstock/pull/44" xlink:title="optima ❎">
<ellipse fill="#31688e" stroke="black" cx="1642.52" cy="-898" rx="61.2" ry="18"/>
<text xml:space="preserve" text-anchor="middle" x="1642.52" y="-893.33" font-family="Times,serif" font-size="14.00" fill="white">optima ❎</text>
</a>
</g>
</g>
<!-- optima&#45;&gt;reaktoro -->
<g id="edge33" class="edge">
<title>optima&#45;&gt;reaktoro</title>
<path fill="none" stroke="black" d="M1644.04,-879.85C1647.3,-843.14 1654.98,-756.66 1658.99,-711.53"/>
<polygon fill="black" stroke="black" points="1662.46,-712.01 1659.86,-701.74 1655.49,-711.39 1662.46,-712.01"/>
</g>
<!-- copc&#45;lib -->
<g id="node35" class="node">
<title>copc&#45;lib</title>
<g id="a_node35"><a xlink:href="https://github.com/conda-forge/copc-lib-feedstock/pull/35" xlink:title="copc lib ✓">
<ellipse fill="#31688e" stroke="black" cx="1318.52" cy="-538" rx="57.52" ry="18"/>
<text xml:space="preserve" text-anchor="middle" x="1318.52" y="-533.33" font-family="Times,serif" font-size="14.00" fill="white">copc lib ✓</text>
</a>
</g>
</g>
<!-- fretraj&#45;&gt;copc&#45;lib -->
<!-- ocp -->
<g id="node36" class="node">
<title>ocp</title>
<g id="a_node36"><a xlink:href="https://github.com/conda-forge/ocp-feedstock/pull/66" xlink:title="ocp ❎">
<ellipse fill="#31688e" stroke="black" cx="1318.52" cy="-466" rx="43.84" ry="18"/>
<text xml:space="preserve" text-anchor="middle" x="1318.52" y="-461.32" font-family="Times,serif" font-size="14.00" fill="white">ocp ❎</text>
</a>
</g>
</g>
<!-- copc&#45;lib&#45;&gt;ocp -->
<!-- scine&#45;utilities&#45;python -->
<g id="node37" class="node">
<title>scine&#45;utilities&#45;python</title>
<g id="a_node37"><a xlink:href="https://github.com/conda-forge/scine-utilities-python-feedstock/pull/21" xlink:title="scine utilities python ❎">
<ellipse fill="#31688e" stroke="black" cx="539.52" cy="-386" rx="131.7" ry="18"/>
<text xml:space="preserve" text-anchor="middle" x="539.52" y="-381.32" font-family="Times,serif" font-size="14.00" fill="white">scine utilities python ❎</text>
</a>
</g>
</g>
<!-- scine&#45;readuct -->
<g id="node38" class="node">
<title>scine&#45;readuct</title>
<g id="a_node38"><a xlink:href="https://github.com/conda-forge/scine-readuct-feedstock" xlink:title="scine readuct">
<ellipse fill="#fde725" stroke="black" cx="432.52" cy="-314" rx="78.57" ry="18"/>
<text xml:space="preserve" text-anchor="middle" x="432.52" y="-309.32" font-family="Times,serif" font-size="14.00">scine readuct</text>
</a>
</g>
</g>
<!-- scine&#45;utilities&#45;python&#45;&gt;scine&#45;readuct -->
<g id="edge37" class="edge">
<title>scine&#45;utilities&#45;python&#45;&gt;scine&#45;readuct</title>
<path fill="none" stroke="black" d="M513.35,-367.88C499.44,-358.78 482.17,-347.48 467.16,-337.66"/>
<polygon fill="black" stroke="black" points="469.24,-334.84 458.96,-332.29 465.41,-340.7 469.24,-334.84"/>
</g>
<!-- scine&#45;database&#45;python -->
<g id="node39" class="node">
<title>scine&#45;database&#45;python</title>
<g id="a_node39"><a xlink:href="https://github.com/conda-forge/scine-database-python-feedstock" xlink:title="scine database python">
<ellipse fill="#fde725" stroke="black" cx="539.52" cy="-242" rx="123.29" ry="18"/>
<text xml:space="preserve" text-anchor="middle" x="539.52" y="-237.32" font-family="Times,serif" font-size="14.00">scine database python</text>
</a>
</g>
</g>
<!-- scine&#45;utilities&#45;python&#45;&gt;scine&#45;database&#45;python -->
<g id="edge38" class="edge">
<title>scine&#45;utilities&#45;python&#45;&gt;scine&#45;database&#45;python</title>
<path fill="none" stroke="black" d="M539.52,-367.59C539.52,-343.61 539.52,-300.14 539.52,-271.42"/>
<polygon fill="black" stroke="black" points="543.02,-271.62 539.52,-261.62 536.02,-271.62 543.02,-271.62"/>
</g>
<!-- scine&#45;molassembler -->
<g id="node40" class="node">
<title>scine&#45;molassembler</title>
<g id="a_node40"><a xlink:href="https://github.com/conda-forge/scine-molassembler-feedstock" xlink:title="scine molassembler">
<ellipse fill="#fde725" stroke="black" cx="690.52" cy="-170" rx="110.13" ry="18"/>
<text xml:space="preserve" text-anchor="middle" x="690.52" y="-165.32" font-family="Times,serif" font-size="14.00">scine molassembler</text>
</a>
</g>
</g>
<!-- scine&#45;utilities&#45;python&#45;&gt;scine&#45;molassembler -->
<g id="edge39" class="edge">
<title>scine&#45;utilities&#45;python&#45;&gt;scine&#45;molassembler</title>
<path fill="none" stroke="black" d="M565.31,-368C595.67,-346.56 645.26,-306.79 671.52,-260 681.88,-241.55 686.6,-218.06 688.74,-199.84"/>
<polygon fill="black" stroke="black" points="692.22,-200.26 689.69,-189.97 685.25,-199.59 692.22,-200.26"/>
</g>
<!-- diplib -->
<g id="node41" class="node">
<title>diplib</title>
<g id="a_node41"><a xlink:href="https://github.com/conda-forge/diplib-feedstock/pull/19" xlink:title="diplib ✓">
<ellipse fill="#31688e" stroke="black" cx="1675.52" cy="-422" rx="47.53" ry="18"/>
<text xml:space="preserve" text-anchor="middle" x="1675.52" y="-417.32" font-family="Times,serif" font-size="14.00" fill="white">diplib ✓</text>
</a>
</g>
</g>
<!-- hoomd&#45;dlext -->
<g id="node42" class="node">
<title>hoomd&#45;dlext</title>
<g id="a_node42"><a xlink:href="https://github.com/conda-forge/hoomd-dlext-feedstock/pull/17" xlink:title="hoomd dlext ❎">
<ellipse fill="#31688e" stroke="black" cx="1675.52" cy="-350" rx="88.56" ry="18"/>
<text xml:space="preserve" text-anchor="middle" x="1675.52" y="-345.32" font-family="Times,serif" font-size="14.00" fill="white">hoomd dlext ❎</text>
</a>
</g>
</g>
<!-- diplib&#45;&gt;hoomd&#45;dlext -->
<!-- libthermo -->
<g id="node44" class="node">
<title>libthermo</title>
<g id="a_node44"><a xlink:href="https://github.com/conda-forge/libthermo-feedstock/pull/20" xlink:title="libthermo ❎">
<ellipse fill="#31688e" stroke="black" cx="1675.52" cy="-278" rx="75.41" ry="18"/>
<text xml:space="preserve" text-anchor="middle" x="1675.52" y="-273.32" font-family="Times,serif" font-size="14.00" fill="white">libthermo ❎</text>
</a>
</g>
</g>
<!-- hoomd&#45;dlext&#45;&gt;libthermo -->
<!-- reaktplot -->
<g id="node43" class="node">
<title>reaktplot</title>
<g id="a_node43"><a xlink:href="https://github.com/conda-forge/reaktplot-feedstock/pull/13" xlink:title="reaktplot ❎">
<ellipse fill="#31688e" stroke="black" cx="1553.52" cy="-970" rx="72.25" ry="18"/>
<text xml:space="preserve" text-anchor="middle" x="1553.52" y="-965.33" font-family="Times,serif" font-size="14.00" fill="white">reaktplot ❎</text>
</a>
</g>
</g>
<!-- reaktplot&#45;&gt;reaktoro -->
<g id="edge41" class="edge">
<title>reaktplot&#45;&gt;reaktoro</title>
<path fill="none" stroke="black" d="M1556.09,-951.65C1559.05,-933.5 1564.53,-904.32 1572.52,-880 1593.15,-817.2 1627.51,-747.57 1646.96,-710.23"/>
<polygon fill="black" stroke="black" points="1649.99,-711.98 1651.55,-701.5 1643.8,-708.72 1649.99,-711.98"/>
</g>
<!-- tensorstore -->
<g id="node45" class="node">
<title>tensorstore</title>
<g id="a_node45"><a xlink:href="https://github.com/conda-forge/tensorstore-feedstock/pull/57" xlink:title="tensorstore ❎">
<ellipse fill="#31688e" stroke="black" cx="1675.52" cy="-206" rx="84.35" ry="18"/>
<text xml:space="preserve" text-anchor="middle" x="1675.52" y="-201.33" font-family="Times,serif" font-size="14.00" fill="white">tensorstore ❎</text>
</a>
</g>
</g>
<!-- libthermo&#45;&gt;tensorstore -->
<!-- qsimcirq -->
<g id="node48" class="node">
<title>qsimcirq</title>
<g id="a_node48"><a xlink:href="https://github.com/conda-forge/qsimcirq-feedstock/pull/30" xlink:title="qsimcirq ❎">
<ellipse fill="#31688e" stroke="black" cx="1675.52" cy="-134" rx="70.15" ry="18"/>
<text xml:space="preserve" text-anchor="middle" x="1675.52" y="-129.32" font-family="Times,serif" font-size="14.00" fill="white">qsimcirq ❎</text>
</a>
</g>
</g>
<!-- tensorstore&#45;&gt;qsimcirq -->
<!-- libefp -->
<g id="node46" class="node">
<title>libefp</title>
<g id="a_node46"><a xlink:href="https://github.com/conda-forge/libefp-feedstock/pull/11" xlink:title="libefp ❎">
<ellipse fill="#31688e" stroke="black" cx="1293.52" cy="-314" rx="54.89" ry="18"/>
<text xml:space="preserve" text-anchor="middle" x="1293.52" y="-309.32" font-family="Times,serif" font-size="14.00" fill="white">libefp ❎</text>
</a>
</g>
</g>
<!-- libefp&#45;&gt;psi4 -->
<g id="edge44" class="edge">
<title>libefp&#45;&gt;psi4</title>
<path fill="none" stroke="black" d="M1293.52,-295.7C1293.52,-288.41 1293.52,-279.73 1293.52,-271.54"/>
<polygon fill="black" stroke="black" points="1297.02,-271.62 1293.52,-261.62 1290.02,-271.62 1297.02,-271.62"/>
</g>
<!-- gdma -->
<g id="node47" class="node">
<title>gdma</title>
<g id="a_node47"><a xlink:href="https://github.com/conda-forge/gdma-feedstock/pull/13" xlink:title="gdma ✓">
<ellipse fill="#31688e" stroke="black" cx="1210.52" cy="-386" rx="47" ry="18"/>
<text xml:space="preserve" text-anchor="middle" x="1210.52" y="-381.32" font-family="Times,serif" font-size="14.00" fill="white">gdma ✓</text>
</a>
</g>
</g>
<!-- gdma&#45;&gt;psi4 -->
<g id="edge45" class="edge">
<title>gdma&#45;&gt;psi4</title>
<path fill="none" stroke="black" d="M1210.9,-367.71C1212.02,-348.82 1216.01,-318.3 1229.52,-296 1237.66,-282.56 1250.46,-270.97 1262.47,-262.08"/>
<polygon fill="black" stroke="black" points="1264.4,-265.01 1270.6,-256.41 1260.39,-259.26 1264.4,-265.01"/>
</g>
</g>
</svg>
