<?xml version="1.0" encoding="UTF-8" standalone="no"?>
<!DOCTYPE svg PUBLIC "-//W3C//DTD SVG 1.1//EN"
 "http://www.w3.org/Graphics/SVG/1.1/DTD/svg11.dtd">
<!-- Generated by graphviz version 13.1.2 (20250809.0930)
 -->
<!-- Pages: 1 -->
<svg width="1226pt" height="880pt"
 viewBox="0.00 0.00 1226.00 880.00" xmlns="http://www.w3.org/2000/svg" xmlns:xlink="http://www.w3.org/1999/xlink">
<g id="graph0" class="graph" transform="scale(1 1) rotate(0) translate(4 876)">
<polygon fill="white" stroke="none" points="-4,4 -4,-876 1222.42,-876 1222.42,4 -4,4"/>
<!-- opencv -->
<g id="node1" class="node">
<title>opencv</title>
<g id="a_node1"><a xlink:href="https://github.com/conda-forge/opencv-feedstock/pull/514" xlink:title="opencv ❎">
<ellipse fill="#31688e" stroke="black" cx="896.81" cy="-854" rx="61.73" ry="18"/>
<text xml:space="preserve" text-anchor="middle" x="896.81" y="-849.33" font-family="Times,serif" font-size="14.00" fill="white">opencv ❎</text>
</a>
</g>
</g>
<!-- qtkeychain -->
<g id="node2" class="node">
<title>qtkeychain</title>
<g id="a_node2"><a xlink:href="https://github.com/conda-forge/qtkeychain-feedstock/pull/29" xlink:title="qtkeychain ❎">
<ellipse fill="#31688e" stroke="black" cx="896.81" cy="-782" rx="81.2" ry="18"/>
<text xml:space="preserve" text-anchor="middle" x="896.81" y="-777.33" font-family="Times,serif" font-size="14.00" fill="white">qtkeychain ❎</text>
</a>
</g>
</g>
<!-- opencv&#45;&gt;qtkeychain -->
<!-- simage -->
<g id="node4" class="node">
<title>simage</title>
<g id="a_node4"><a xlink:href="https://github.com/conda-forge/simage-feedstock/pull/19" xlink:title="simage ❎">
<ellipse fill="#31688e" stroke="black" cx="896.81" cy="-710" rx="62.26" ry="18"/>
<text xml:space="preserve" text-anchor="middle" x="896.81" y="-705.33" font-family="Times,serif" font-size="14.00" fill="white">simage ❎</text>
</a>
</g>
</g>
<!-- qtkeychain&#45;&gt;simage -->
<!-- paraview -->
<g id="node3" class="node">
<title>paraview</title>
<g id="a_node3"><a xlink:href="https://github.com/conda-forge/paraview-feedstock" xlink:title="paraview">
<ellipse fill="#fde725" stroke="black" cx="464.81" cy="-422" rx="57" ry="18"/>
<text xml:space="preserve" text-anchor="middle" x="464.81" y="-417.32" font-family="Times,serif" font-size="14.00">paraview</text>
</a>
</g>
</g>
<!-- ovito -->
<g id="node10" class="node">
<title>ovito</title>
<g id="a_node10"><a xlink:href="https://github.com/conda-forge/ovito-feedstock/pull/133" xlink:title="ovito ❎">
<ellipse fill="#31688e" stroke="black" cx="896.81" cy="-638" rx="51.21" ry="18"/>
<text xml:space="preserve" text-anchor="middle" x="896.81" y="-633.33" font-family="Times,serif" font-size="14.00" fill="white">ovito ❎</text>
</a>
</g>
</g>
<!-- simage&#45;&gt;ovito -->
<!-- vtk -->
<g id="node5" class="node">
<title>vtk</title>
<g id="a_node5"><a xlink:href="https://github.com/conda-forge/vtk-feedstock" xlink:title="vtk">
<ellipse fill="#fde725" stroke="black" cx="215.81" cy="-494" rx="27.01" ry="18"/>
<text xml:space="preserve" text-anchor="middle" x="215.81" y="-489.32" font-family="Times,serif" font-size="14.00">vtk</text>
</a>
</g>
</g>
<!-- vtk&#45;&gt;paraview -->
<g id="edge3" class="edge">
<title>vtk&#45;&gt;paraview</title>
<path fill="none" stroke="black" d="M236.84,-482.22C241.68,-479.98 246.87,-477.76 251.81,-476 302.72,-457.85 362.6,-443.54 405.88,-434.39"/>
<polygon fill="black" stroke="black" points="406.51,-437.84 415.59,-432.37 405.08,-430.98 406.51,-437.84"/>
</g>
<!-- pcl -->
<g id="node6" class="node">
<title>pcl</title>
<g id="a_node6"><a xlink:href="https://github.com/conda-forge/pcl-feedstock" xlink:title="pcl">
<ellipse fill="#fde725" stroke="black" cx="275.81" cy="-422" rx="27" ry="18"/>
<text xml:space="preserve" text-anchor="middle" x="275.81" y="-417.32" font-family="Times,serif" font-size="14.00">pcl</text>
</a>
</g>
</g>
<!-- vtk&#45;&gt;pcl -->
<g id="edge4" class="edge">
<title>vtk&#45;&gt;pcl</title>
<path fill="none" stroke="black" d="M228.83,-477.81C236.62,-468.73 246.68,-457 255.49,-446.72"/>
<polygon fill="black" stroke="black" points="257.99,-449.18 261.84,-439.31 252.67,-444.62 257.99,-449.18"/>
</g>
<!-- freecad -->
<g id="node7" class="node">
<title>freecad</title>
<g id="a_node7"><a xlink:href="https://github.com/conda-forge/freecad-feedstock" xlink:title="freecad">
<ellipse fill="#fde725" stroke="black" cx="132.81" cy="-350" rx="48.58" ry="18"/>
<text xml:space="preserve" text-anchor="middle" x="132.81" y="-345.32" font-family="Times,serif" font-size="14.00">freecad</text>
</a>
</g>
</g>
<!-- vtk&#45;&gt;freecad -->
<g id="edge5" class="edge">
<title>vtk&#45;&gt;freecad</title>
<path fill="none" stroke="black" d="M216.76,-475.67C217,-456.75 214.99,-426.19 201.81,-404 194.08,-390.99 181.83,-380.04 169.79,-371.53"/>
<polygon fill="black" stroke="black" points="171.79,-368.67 161.52,-366.08 167.94,-374.51 171.79,-368.67"/>
</g>
<!-- pycgns -->
<g id="node8" class="node">
<title>pycgns</title>
<g id="a_node8"><a xlink:href="https://github.com/conda-forge/pycgns-feedstock" xlink:title="pycgns">
<ellipse fill="#fde725" stroke="black" cx="146.81" cy="-422" rx="46.47" ry="18"/>
<text xml:space="preserve" text-anchor="middle" x="146.81" y="-417.32" font-family="Times,serif" font-size="14.00">pycgns</text>
</a>
</g>
</g>
<!-- vtk&#45;&gt;pycgns -->
<g id="edge6" class="edge">
<title>vtk&#45;&gt;pycgns</title>
<path fill="none" stroke="black" d="M201.52,-478.5C192.61,-469.46 180.93,-457.61 170.65,-447.18"/>
<polygon fill="black" stroke="black" points="173.36,-444.94 163.84,-440.28 168.37,-449.85 173.36,-444.94"/>
</g>
<!-- open3d -->
<g id="node9" class="node">
<title>open3d</title>
<g id="a_node9"><a xlink:href="https://github.com/conda-forge/open3d-feedstock" xlink:title="open3d">
<ellipse fill="#fde725" stroke="black" cx="330.81" cy="-350" rx="48.05" ry="18"/>
<text xml:space="preserve" text-anchor="middle" x="330.81" y="-345.32" font-family="Times,serif" font-size="14.00">open3d</text>
</a>
</g>
</g>
<!-- vtk&#45;&gt;open3d -->
<g id="edge7" class="edge">
<title>vtk&#45;&gt;open3d</title>
<path fill="none" stroke="black" d="M237.07,-482.45C263.81,-469 306.85,-446.69 311.81,-440 324.63,-422.72 329.19,-398.64 330.65,-379.89"/>
<polygon fill="black" stroke="black" points="334.14,-380.13 331.14,-369.97 327.15,-379.78 334.14,-380.13"/>
</g>
<!-- pcl&#45;&gt;freecad -->
<g id="edge8" class="edge">
<title>pcl&#45;&gt;freecad</title>
<path fill="none" stroke="black" d="M254.41,-410.52C232.53,-399.81 198.09,-382.95 171.44,-369.91"/>
<polygon fill="black" stroke="black" points="173.16,-366.85 162.64,-365.6 170.09,-373.14 173.16,-366.85"/>
</g>
<!-- veusz -->
<g id="node15" class="node">
<title>veusz</title>
<g id="a_node15"><a xlink:href="https://github.com/conda-forge/veusz-feedstock" xlink:title="veusz">
<ellipse fill="#35b779" stroke="black" cx="896.81" cy="-566" rx="39.63" ry="18"/>
<text xml:space="preserve" text-anchor="middle" x="896.81" y="-561.33" font-family="Times,serif" font-size="14.00">veusz</text>
</a>
</g>
</g>
<!-- ovito&#45;&gt;veusz -->
<!-- pivy -->
<g id="node11" class="node">
<title>pivy</title>
<g id="a_node11"><a xlink:href="https://github.com/conda-forge/pivy-feedstock" xlink:title="pivy">
<ellipse fill="#35b779" stroke="black" cx="49.81" cy="-422" rx="32.27" ry="18"/>
<text xml:space="preserve" text-anchor="middle" x="49.81" y="-417.32" font-family="Times,serif" font-size="14.00">pivy</text>
</a>
</g>
</g>
<!-- pivy&#45;&gt;freecad -->
<g id="edge10" class="edge">
<title>pivy&#45;&gt;freecad</title>
<path fill="none" stroke="black" d="M67.01,-406.5C78.02,-397.22 92.54,-384.97 105.14,-374.34"/>
<polygon fill="black" stroke="black" points="107.36,-377.05 112.75,-367.93 102.84,-371.7 107.36,-377.05"/>
</g>
<!-- pyside2 -->
<g id="node12" class="node">
<title>pyside2</title>
<g id="a_node12"><a xlink:href="https://github.com/conda-forge/pyside2-feedstock" xlink:title="pyside2">
<ellipse fill="#fde725" stroke="black" cx="294.81" cy="-566" rx="50.16" ry="18"/>
<text xml:space="preserve" text-anchor="middle" x="294.81" y="-561.33" font-family="Times,serif" font-size="14.00">pyside2</text>
</a>
</g>
</g>
<!-- pyside2&#45;&gt;paraview -->
<g id="edge11" class="edge">
<title>pyside2&#45;&gt;paraview</title>
<path fill="none" stroke="black" d="M341.76,-559.1C394.58,-551.38 475.4,-535.95 493.81,-512 507.98,-493.57 497.26,-467.94 485.04,-448.92"/>
<polygon fill="black" stroke="black" points="488.06,-447.13 479.5,-440.89 482.3,-451.11 488.06,-447.13"/>
</g>
<!-- pyside2&#45;&gt;vtk -->
<g id="edge12" class="edge">
<title>pyside2&#45;&gt;vtk</title>
<path fill="none" stroke="black" d="M276.49,-548.76C265.67,-539.17 251.83,-526.91 240.11,-516.52"/>
<polygon fill="black" stroke="black" points="242.57,-514.03 232.77,-510.02 237.93,-519.27 242.57,-514.03"/>
</g>
<!-- pyside2&#45;&gt;freecad -->
<g id="edge13" class="edge">
<title>pyside2&#45;&gt;freecad</title>
<path fill="none" stroke="black" d="M246.94,-560.27C179.79,-550.74 60.11,-522.48 8.81,-440 0.37,-426.41 0,-417.35 8.81,-404 24.09,-380.85 51.79,-367.78 77.13,-360.41"/>
<polygon fill="black" stroke="black" points="77.94,-363.82 86.72,-357.89 76.16,-357.05 77.94,-363.82"/>
</g>
<!-- pyside2&#45;&gt;pycgns -->
<g id="edge14" class="edge">
<title>pyside2&#45;&gt;pycgns</title>
<path fill="none" stroke="black" d="M254.44,-554.91C229.94,-546.92 199.68,-533.45 179.81,-512 164.33,-495.28 155.94,-470.65 151.51,-451.54"/>
<polygon fill="black" stroke="black" points="154.98,-451.04 149.53,-441.95 148.12,-452.45 154.98,-451.04"/>
</g>
<!-- qtmolecularnetwork -->
<g id="node13" class="node">
<title>qtmolecularnetwork</title>
<g id="a_node13"><a xlink:href="https://github.com/conda-forge/qtmolecularnetwork-feedstock" xlink:title="qtmolecularnetwork">
<ellipse fill="#fde725" stroke="black" cx="372.81" cy="-494" rx="112.24" ry="18"/>
<text xml:space="preserve" text-anchor="middle" x="372.81" y="-489.32" font-family="Times,serif" font-size="14.00">qtmolecularnetwork</text>
</a>
</g>
</g>
<!-- pyside2&#45;&gt;qtmolecularnetwork -->
<g id="edge15" class="edge">
<title>pyside2&#45;&gt;qtmolecularnetwork</title>
<path fill="none" stroke="black" d="M312.91,-548.76C322.56,-540.1 334.65,-529.25 345.44,-519.57"/>
<polygon fill="black" stroke="black" points="347.5,-522.42 352.61,-513.13 342.83,-517.21 347.5,-522.42"/>
</g>
<!-- pyside6qtads -->
<g id="node14" class="node">
<title>pyside6qtads</title>
<g id="a_node14"><a xlink:href="https://github.com/conda-forge/pyside6qtads-feedstock" xlink:title="pyside6qtads">
<ellipse fill="#fde725" stroke="black" cx="618.81" cy="-494" rx="78.04" ry="18"/>
<text xml:space="preserve" text-anchor="middle" x="618.81" y="-489.32" font-family="Times,serif" font-size="14.00">pyside6qtads</text>
</a>
</g>
</g>
<!-- pyside2&#45;&gt;pyside6qtads -->
<g id="edge16" class="edge">
<title>pyside2&#45;&gt;pyside6qtads</title>
<path fill="none" stroke="black" d="M336.84,-555.92C391.55,-544.1 487.79,-523.31 552.42,-509.35"/>
<polygon fill="black" stroke="black" points="552.79,-512.85 561.82,-507.31 551.31,-506 552.79,-512.85"/>
</g>
<!-- codes&#45;ui -->
<g id="node16" class="node">
<title>codes&#45;ui</title>
<g id="a_node16"><a xlink:href="https://github.com/conda-forge/codes-ui-feedstock/pull/23" xlink:title="codes ui ❎">
<ellipse fill="#31688e" stroke="black" cx="896.81" cy="-494" rx="67.52" ry="18"/>
<text xml:space="preserve" text-anchor="middle" x="896.81" y="-489.32" font-family="Times,serif" font-size="14.00" fill="white">codes ui ❎</text>
</a>
</g>
</g>
<!-- veusz&#45;&gt;codes&#45;ui -->
<!-- nionui&#45;tool -->
<g id="node17" class="node">
<title>nionui&#45;tool</title>
<g id="a_node17"><a xlink:href="https://github.com/conda-forge/nionui-tool-feedstock/pull/63" xlink:title="nionui tool ❎">
<ellipse fill="#31688e" stroke="black" cx="896.81" cy="-422" rx="79.62" ry="18"/>
<text xml:space="preserve" text-anchor="middle" x="896.81" y="-417.32" font-family="Times,serif" font-size="14.00" fill="white">nionui tool ❎</text>
</a>
</g>
</g>
<!-- codes&#45;ui&#45;&gt;nionui&#45;tool -->
<!-- nionswift&#45;tool -->
<g id="node18" class="node">
<title>nionswift&#45;tool</title>
<g id="a_node18"><a xlink:href="https://github.com/conda-forge/nionswift-tool-feedstock/pull/38" xlink:title="nionswift tool ❎">
<ellipse fill="#31688e" stroke="black" cx="896.81" cy="-350" rx="94.88" ry="18"/>
<text xml:space="preserve" text-anchor="middle" x="896.81" y="-345.32" font-family="Times,serif" font-size="14.00" fill="white">nionswift tool ❎</text>
</a>
</g>
</g>
<!-- nionui&#45;tool&#45;&gt;nionswift&#45;tool -->
<!-- qdoas -->
<g id="node19" class="node">
<title>qdoas</title>
<g id="a_node19"><a xlink:href="https://github.com/conda-forge/qdoas-feedstock" xlink:title="qdoas">
<ellipse fill="#35b779" stroke="black" cx="896.81" cy="-278" rx="40.69" ry="18"/>
<text xml:space="preserve" text-anchor="middle" x="896.81" y="-273.32" font-family="Times,serif" font-size="14.00">qdoas</text>
</a>
</g>
</g>
<!-- nionswift&#45;tool&#45;&gt;qdoas -->
<!-- qcachegrind -->
<g id="node28" class="node">
<title>qcachegrind</title>
<g id="a_node28"><a xlink:href="https://github.com/conda-forge/qcachegrind-feedstock/pull/9" xlink:title="qcachegrind ❎">
<ellipse fill="#31688e" stroke="black" cx="896.81" cy="-206" rx="88.04" ry="18"/>
<text xml:space="preserve" text-anchor="middle" x="896.81" y="-201.33" font-family="Times,serif" font-size="14.00" fill="white">qcachegrind ❎</text>
</a>
</g>
</g>
<!-- qdoas&#45;&gt;qcachegrind -->
<!-- quazip -->
<g id="node20" class="node">
<title>quazip</title>
<g id="a_node20"><a xlink:href="https://github.com/conda-forge/quazip-feedstock/pull/10" xlink:title="quazip ❎">
<ellipse fill="#31688e" stroke="black" cx="396.81" cy="-90" rx="59.63" ry="18"/>
<text xml:space="preserve" text-anchor="middle" x="396.81" y="-85.33" font-family="Times,serif" font-size="14.00" fill="white">quazip ❎</text>
</a>
</g>
</g>
<!-- connectome&#45;workbench&#45;split -->
<g id="node21" class="node">
<title>connectome&#45;workbench&#45;split</title>
<g id="a_node21"><a xlink:href="https://github.com/conda-forge/connectome-workbench-split-feedstock" xlink:title="connectome workbench split">
<ellipse fill="#fde725" stroke="black" cx="396.81" cy="-18" rx="154.33" ry="18"/>
<text xml:space="preserve" text-anchor="middle" x="396.81" y="-13.32" font-family="Times,serif" font-size="14.00">connectome workbench split</text>
</a>
</g>
</g>
<!-- quazip&#45;&gt;connectome&#45;workbench&#45;split -->
<g id="edge22" class="edge">
<title>quazip&#45;&gt;connectome&#45;workbench&#45;split</title>
<path fill="none" stroke="black" d="M396.81,-71.7C396.81,-64.41 396.81,-55.73 396.81,-47.54"/>
<polygon fill="black" stroke="black" points="400.31,-47.62 396.81,-37.62 393.31,-47.62 400.31,-47.62"/>
</g>
<!-- gz&#45;gui -->
<g id="node22" class="node">
<title>gz&#45;gui</title>
<g id="a_node22"><a xlink:href="https://github.com/conda-forge/gz-gui-feedstock/pull/79" xlink:title="gz gui ❎">
<ellipse fill="#31688e" stroke="black" cx="1101.81" cy="-602" rx="57" ry="18"/>
<text xml:space="preserve" text-anchor="middle" x="1101.81" y="-597.33" font-family="Times,serif" font-size="14.00" fill="white">gz gui ❎</text>
</a>
</g>
</g>
<!-- gz&#45;sim -->
<g id="node23" class="node">
<title>gz&#45;sim</title>
<g id="a_node23"><a xlink:href="https://github.com/conda-forge/gz-sim-feedstock" xlink:title="gz sim">
<ellipse fill="#fde725" stroke="black" cx="1137.81" cy="-530" rx="43.84" ry="18"/>
<text xml:space="preserve" text-anchor="middle" x="1137.81" y="-525.33" font-family="Times,serif" font-size="14.00">gz sim</text>
</a>
</g>
</g>
<!-- gz&#45;gui&#45;&gt;gz&#45;sim -->
<g id="edge23" class="edge">
<title>gz&#45;gui&#45;&gt;gz&#45;sim</title>
<path fill="none" stroke="black" d="M1110.53,-584.05C1114.55,-576.23 1119.43,-566.75 1123.94,-557.98"/>
<polygon fill="black" stroke="black" points="1127.03,-559.63 1128.49,-549.13 1120.8,-556.43 1127.03,-559.63"/>
</g>
<!-- gz&#45;launch -->
<g id="node24" class="node">
<title>gz&#45;launch</title>
<g id="a_node24"><a xlink:href="https://github.com/conda-forge/gz-launch-feedstock" xlink:title="gz launch">
<ellipse fill="#fde725" stroke="black" cx="1065.81" cy="-458" rx="59.1" ry="18"/>
<text xml:space="preserve" text-anchor="middle" x="1065.81" y="-453.32" font-family="Times,serif" font-size="14.00">gz launch</text>
</a>
</g>
</g>
<!-- gz&#45;gui&#45;&gt;gz&#45;launch -->
<g id="edge24" class="edge">
<title>gz&#45;gui&#45;&gt;gz&#45;launch</title>
<path fill="none" stroke="black" d="M1095.86,-583.94C1092.38,-573.62 1088.05,-560.14 1084.81,-548 1079.46,-527.9 1074.59,-504.95 1071.12,-487.38"/>
<polygon fill="black" stroke="black" points="1074.58,-486.82 1069.24,-477.67 1067.7,-488.15 1074.58,-486.82"/>
</g>
<!-- gz&#45;sim&#45;&gt;gz&#45;launch -->
<g id="edge25" class="edge">
<title>gz&#45;sim&#45;&gt;gz&#45;launch</title>
<path fill="none" stroke="black" d="M1121.48,-513.12C1112.47,-504.36 1101.08,-493.29 1090.96,-483.45"/>
<polygon fill="black" stroke="black" points="1093.53,-481.07 1083.92,-476.61 1088.65,-486.09 1093.53,-481.07"/>
</g>
<!-- gz&#45;sim&#45;yarp&#45;plugins -->
<g id="node25" class="node">
<title>gz&#45;sim&#45;yarp&#45;plugins</title>
<g id="a_node25"><a xlink:href="https://github.com/conda-forge/gz-sim-yarp-plugins-feedstock" xlink:title="gz sim yarp plugins">
<ellipse fill="#fde725" stroke="black" cx="1108.81" cy="-386" rx="109.61" ry="18"/>
<text xml:space="preserve" text-anchor="middle" x="1108.81" y="-381.32" font-family="Times,serif" font-size="14.00">gz sim yarp plugins</text>
</a>
</g>
</g>
<!-- gz&#45;sim&#45;&gt;gz&#45;sim&#45;yarp&#45;plugins -->
<g id="edge26" class="edge">
<title>gz&#45;sim&#45;&gt;gz&#45;sim&#45;yarp&#45;plugins</title>
<path fill="none" stroke="black" d="M1139.03,-511.65C1139.84,-493.5 1139.84,-464.32 1133.81,-440 1131.64,-431.21 1127.95,-422.13 1124.07,-414.02"/>
<polygon fill="black" stroke="black" points="1127.32,-412.68 1119.65,-405.37 1121.09,-415.87 1127.32,-412.68"/>
</g>
<!-- gz&#45;launch&#45;&gt;gz&#45;sim&#45;yarp&#45;plugins -->
<g id="edge27" class="edge">
<title>gz&#45;launch&#45;&gt;gz&#45;sim&#45;yarp&#45;plugins</title>
<path fill="none" stroke="black" d="M1076.22,-440.05C1081.01,-432.26 1086.81,-422.82 1092.18,-414.08"/>
<polygon fill="black" stroke="black" points="1095.16,-415.92 1097.41,-405.56 1089.19,-412.25 1095.16,-415.92"/>
</g>
<!-- qt6&#45;advanced&#45;docking&#45;system -->
<g id="node26" class="node">
<title>qt6&#45;advanced&#45;docking&#45;system</title>
<g id="a_node26"><a xlink:href="https://github.com/conda-forge/qt6-advanced-docking-system-feedstock/pull/27" xlink:title="qt6 advanced docking system ❎">
<ellipse fill="#31688e" stroke="black" cx="618.81" cy="-566" rx="174.84" ry="18"/>
<text xml:space="preserve" text-anchor="middle" x="618.81" y="-561.33" font-family="Times,serif" font-size="14.00" fill="white">qt6 advanced docking system ❎</text>
</a>
</g>
</g>
<!-- qt6&#45;advanced&#45;docking&#45;system&#45;&gt;pyside6qtads -->
<g id="edge28" class="edge">
<title>qt6&#45;advanced&#45;docking&#45;system&#45;&gt;pyside6qtads</title>
<path fill="none" stroke="black" d="M618.81,-547.7C618.81,-540.41 618.81,-531.73 618.81,-523.54"/>
<polygon fill="black" stroke="black" points="622.31,-523.62 618.81,-513.62 615.31,-523.62 622.31,-523.62"/>
</g>
<!-- qt&#45;wayland -->
<g id="node27" class="node">
<title>qt&#45;wayland</title>
<g id="a_node27"><a xlink:href="https://github.com/conda-forge/qt-wayland-feedstock" xlink:title="qt wayland">
<ellipse fill="#35b779" stroke="black" cx="294.81" cy="-638" rx="66.47" ry="18"/>
<text xml:space="preserve" text-anchor="middle" x="294.81" y="-633.33" font-family="Times,serif" font-size="14.00">qt wayland</text>
</a>
</g>
</g>
<!-- qt&#45;wayland&#45;&gt;pyside2 -->
<g id="edge29" class="edge">
<title>qt&#45;wayland&#45;&gt;pyside2</title>
<path fill="none" stroke="black" d="M294.81,-619.7C294.81,-612.41 294.81,-603.73 294.81,-595.54"/>
<polygon fill="black" stroke="black" points="298.31,-595.62 294.81,-585.62 291.31,-595.62 298.31,-595.62"/>
</g>
<!-- libcamera -->
<g id="node29" class="node">
<title>libcamera</title>
<g id="a_node29"><a xlink:href="https://github.com/conda-forge/libcamera-feedstock/pull/22" xlink:title="libcamera ❎">
<ellipse fill="#31688e" stroke="black" cx="896.81" cy="-134" rx="75.94" ry="18"/>
<text xml:space="preserve" text-anchor="middle" x="896.81" y="-129.32" font-family="Times,serif" font-size="14.00" fill="white">libcamera ❎</text>
</a>
</g>
</g>
<!-- qcachegrind&#45;&gt;libcamera -->
</g>
</svg>
