<?xml version="1.0" encoding="UTF-8" standalone="no"?>
<!DOCTYPE svg PUBLIC "-//W3C//DTD SVG 1.1//EN"
 "http://www.w3.org/Graphics/SVG/1.1/DTD/svg11.dtd">
<!-- Generated by graphviz version 13.1.2 (20250809.0930)
 -->
<!-- Pages: 1 -->
<svg width="1199pt" height="808pt"
 viewBox="0.00 0.00 1199.00 808.00" xmlns="http://www.w3.org/2000/svg" xmlns:xlink="http://www.w3.org/1999/xlink">
<g id="graph0" class="graph" transform="scale(1 1) rotate(0) translate(4 804)">
<polygon fill="white" stroke="none" points="-4,4 -4,-804 1195.42,-804 1195.42,4 -4,4"/>
<!-- opencv -->
<g id="node1" class="node">
<title>opencv</title>
<g id="a_node1"><a xlink:href="https://github.com/conda-forge/opencv-feedstock/pull/514" xlink:title="opencv ❎">
<ellipse fill="#31688e" stroke="black" cx="882.81" cy="-782" rx="61.73" ry="18"/>
<text xml:space="preserve" text-anchor="middle" x="882.81" y="-777.33" font-family="Times,serif" font-size="14.00" fill="white">opencv ❎</text>
</a>
</g>
</g>
<!-- qtkeychain -->
<g id="node2" class="node">
<title>qtkeychain</title>
<g id="a_node2"><a xlink:href="https://github.com/conda-forge/qtkeychain-feedstock/pull/29" xlink:title="qtkeychain ❎">
<ellipse fill="#31688e" stroke="black" cx="882.81" cy="-710" rx="81.2" ry="18"/>
<text xml:space="preserve" text-anchor="middle" x="882.81" y="-705.33" font-family="Times,serif" font-size="14.00" fill="white">qtkeychain ❎</text>
</a>
</g>
</g>
<!-- opencv&#45;&gt;qtkeychain -->
<!-- simage -->
<g id="node6" class="node">
<title>simage</title>
<g id="a_node6"><a xlink:href="https://github.com/conda-forge/simage-feedstock" xlink:title="simage">
<ellipse fill="#35b779" stroke="black" cx="882.81" cy="-638" rx="47" ry="18"/>
<text xml:space="preserve" text-anchor="middle" x="882.81" y="-633.33" font-family="Times,serif" font-size="14.00">simage</text>
</a>
</g>
</g>
<!-- qtkeychain&#45;&gt;simage -->
<!-- paraview -->
<g id="node3" class="node">
<title>paraview</title>
<g id="a_node3"><a xlink:href="https://github.com/conda-forge/paraview-feedstock" xlink:title="paraview">
<ellipse fill="#fde725" stroke="black" cx="464.81" cy="-350" rx="57" ry="18"/>
<text xml:space="preserve" text-anchor="middle" x="464.81" y="-345.32" font-family="Times,serif" font-size="14.00">paraview</text>
</a>
</g>
</g>
<!-- pyqt -->
<g id="node4" class="node">
<title>pyqt</title>
<g id="a_node4"><a xlink:href="https://github.com/conda-forge/pyqt-feedstock" xlink:title="pyqt">
<ellipse fill="#35b779" stroke="black" cx="882.81" cy="-90" rx="33.85" ry="18"/>
<text xml:space="preserve" text-anchor="middle" x="882.81" y="-85.33" font-family="Times,serif" font-size="14.00">pyqt</text>
</a>
</g>
</g>
<!-- veusz -->
<g id="node5" class="node">
<title>veusz</title>
<g id="a_node5"><a xlink:href="https://github.com/conda-forge/veusz-feedstock" xlink:title="veusz">
<ellipse fill="#fde725" stroke="black" cx="882.81" cy="-18" rx="39.63" ry="18"/>
<text xml:space="preserve" text-anchor="middle" x="882.81" y="-13.32" font-family="Times,serif" font-size="14.00">veusz</text>
</a>
</g>
</g>
<!-- pyqt&#45;&gt;veusz -->
<g id="edge2" class="edge">
<title>pyqt&#45;&gt;veusz</title>
<path fill="none" stroke="black" d="M882.81,-71.7C882.81,-64.41 882.81,-55.73 882.81,-47.54"/>
<polygon fill="black" stroke="black" points="886.31,-47.62 882.81,-37.62 879.31,-47.62 886.31,-47.62"/>
</g>
<!-- ovito -->
<g id="node12" class="node">
<title>ovito</title>
<g id="a_node12"><a xlink:href="https://github.com/conda-forge/ovito-feedstock" xlink:title="ovito">
<ellipse fill="#35b779" stroke="black" cx="882.81" cy="-566" rx="35.95" ry="18"/>
<text xml:space="preserve" text-anchor="middle" x="882.81" y="-561.33" font-family="Times,serif" font-size="14.00">ovito</text>
</a>
</g>
</g>
<!-- simage&#45;&gt;ovito -->
<!-- vtk -->
<g id="node7" class="node">
<title>vtk</title>
<g id="a_node7"><a xlink:href="https://github.com/conda-forge/vtk-feedstock" xlink:title="vtk">
<ellipse fill="#fde725" stroke="black" cx="215.81" cy="-422" rx="27.01" ry="18"/>
<text xml:space="preserve" text-anchor="middle" x="215.81" y="-417.32" font-family="Times,serif" font-size="14.00">vtk</text>
</a>
</g>
</g>
<!-- vtk&#45;&gt;paraview -->
<g id="edge4" class="edge">
<title>vtk&#45;&gt;paraview</title>
<path fill="none" stroke="black" d="M236.84,-410.22C241.68,-407.98 246.87,-405.76 251.81,-404 302.72,-385.85 362.6,-371.54 405.88,-362.39"/>
<polygon fill="black" stroke="black" points="406.51,-365.84 415.59,-360.37 405.08,-358.98 406.51,-365.84"/>
</g>
<!-- pcl -->
<g id="node8" class="node">
<title>pcl</title>
<g id="a_node8"><a xlink:href="https://github.com/conda-forge/pcl-feedstock" xlink:title="pcl">
<ellipse fill="#fde725" stroke="black" cx="275.81" cy="-350" rx="27" ry="18"/>
<text xml:space="preserve" text-anchor="middle" x="275.81" y="-345.32" font-family="Times,serif" font-size="14.00">pcl</text>
</a>
</g>
</g>
<!-- vtk&#45;&gt;pcl -->
<g id="edge5" class="edge">
<title>vtk&#45;&gt;pcl</title>
<path fill="none" stroke="black" d="M228.83,-405.81C236.62,-396.73 246.68,-385 255.49,-374.72"/>
<polygon fill="black" stroke="black" points="257.99,-377.18 261.84,-367.31 252.67,-372.62 257.99,-377.18"/>
</g>
<!-- freecad -->
<g id="node9" class="node">
<title>freecad</title>
<g id="a_node9"><a xlink:href="https://github.com/conda-forge/freecad-feedstock" xlink:title="freecad">
<ellipse fill="#fde725" stroke="black" cx="132.81" cy="-278" rx="48.58" ry="18"/>
<text xml:space="preserve" text-anchor="middle" x="132.81" y="-273.32" font-family="Times,serif" font-size="14.00">freecad</text>
</a>
</g>
</g>
<!-- vtk&#45;&gt;freecad -->
<g id="edge6" class="edge">
<title>vtk&#45;&gt;freecad</title>
<path fill="none" stroke="black" d="M216.76,-403.67C217,-384.75 214.99,-354.19 201.81,-332 194.08,-318.99 181.83,-308.04 169.79,-299.53"/>
<polygon fill="black" stroke="black" points="171.79,-296.67 161.52,-294.08 167.94,-302.51 171.79,-296.67"/>
</g>
<!-- pycgns -->
<g id="node10" class="node">
<title>pycgns</title>
<g id="a_node10"><a xlink:href="https://github.com/conda-forge/pycgns-feedstock" xlink:title="pycgns">
<ellipse fill="#fde725" stroke="black" cx="146.81" cy="-350" rx="46.47" ry="18"/>
<text xml:space="preserve" text-anchor="middle" x="146.81" y="-345.32" font-family="Times,serif" font-size="14.00">pycgns</text>
</a>
</g>
</g>
<!-- vtk&#45;&gt;pycgns -->
<g id="edge7" class="edge">
<title>vtk&#45;&gt;pycgns</title>
<path fill="none" stroke="black" d="M201.52,-406.5C192.61,-397.46 180.93,-385.61 170.65,-375.18"/>
<polygon fill="black" stroke="black" points="173.36,-372.94 163.84,-368.28 168.37,-377.85 173.36,-372.94"/>
</g>
<!-- open3d -->
<g id="node11" class="node">
<title>open3d</title>
<g id="a_node11"><a xlink:href="https://github.com/conda-forge/open3d-feedstock" xlink:title="open3d">
<ellipse fill="#fde725" stroke="black" cx="330.81" cy="-278" rx="48.05" ry="18"/>
<text xml:space="preserve" text-anchor="middle" x="330.81" y="-273.32" font-family="Times,serif" font-size="14.00">open3d</text>
</a>
</g>
</g>
<!-- vtk&#45;&gt;open3d -->
<g id="edge8" class="edge">
<title>vtk&#45;&gt;open3d</title>
<path fill="none" stroke="black" d="M237.07,-410.45C263.81,-397 306.85,-374.69 311.81,-368 324.63,-350.72 329.19,-326.64 330.65,-307.89"/>
<polygon fill="black" stroke="black" points="334.14,-308.13 331.14,-297.97 327.15,-307.78 334.14,-308.13"/>
</g>
<!-- pcl&#45;&gt;freecad -->
<g id="edge9" class="edge">
<title>pcl&#45;&gt;freecad</title>
<path fill="none" stroke="black" d="M254.41,-338.52C232.53,-327.81 198.09,-310.95 171.44,-297.91"/>
<polygon fill="black" stroke="black" points="173.16,-294.85 162.64,-293.6 170.09,-301.14 173.16,-294.85"/>
</g>
<!-- codes&#45;ui -->
<g id="node17" class="node">
<title>codes&#45;ui</title>
<g id="a_node17"><a xlink:href="https://github.com/conda-forge/codes-ui-feedstock" xlink:title="codes ui">
<ellipse fill="#35b779" stroke="black" cx="882.81" cy="-494" rx="52.26" ry="18"/>
<text xml:space="preserve" text-anchor="middle" x="882.81" y="-489.32" font-family="Times,serif" font-size="14.00">codes ui</text>
</a>
</g>
</g>
<!-- ovito&#45;&gt;codes&#45;ui -->
<!-- pivy -->
<g id="node13" class="node">
<title>pivy</title>
<g id="a_node13"><a xlink:href="https://github.com/conda-forge/pivy-feedstock" xlink:title="pivy">
<ellipse fill="#35b779" stroke="black" cx="49.81" cy="-350" rx="32.27" ry="18"/>
<text xml:space="preserve" text-anchor="middle" x="49.81" y="-345.32" font-family="Times,serif" font-size="14.00">pivy</text>
</a>
</g>
</g>
<!-- pivy&#45;&gt;freecad -->
<g id="edge11" class="edge">
<title>pivy&#45;&gt;freecad</title>
<path fill="none" stroke="black" d="M67.01,-334.5C78.02,-325.22 92.54,-312.97 105.14,-302.34"/>
<polygon fill="black" stroke="black" points="107.36,-305.05 112.75,-295.93 102.84,-299.7 107.36,-305.05"/>
</g>
<!-- pyside2 -->
<g id="node14" class="node">
<title>pyside2</title>
<g id="a_node14"><a xlink:href="https://github.com/conda-forge/pyside2-feedstock" xlink:title="pyside2">
<ellipse fill="#fde725" stroke="black" cx="294.81" cy="-494" rx="50.16" ry="18"/>
<text xml:space="preserve" text-anchor="middle" x="294.81" y="-489.32" font-family="Times,serif" font-size="14.00">pyside2</text>
</a>
</g>
</g>
<!-- pyside2&#45;&gt;paraview -->
<g id="edge12" class="edge">
<title>pyside2&#45;&gt;paraview</title>
<path fill="none" stroke="black" d="M341.76,-487.1C394.58,-479.38 475.4,-463.95 493.81,-440 507.98,-421.57 497.26,-395.94 485.04,-376.92"/>
<polygon fill="black" stroke="black" points="488.06,-375.13 479.5,-368.89 482.3,-379.11 488.06,-375.13"/>
</g>
<!-- pyside2&#45;&gt;vtk -->
<g id="edge13" class="edge">
<title>pyside2&#45;&gt;vtk</title>
<path fill="none" stroke="black" d="M276.49,-476.76C265.67,-467.17 251.83,-454.91 240.11,-444.52"/>
<polygon fill="black" stroke="black" points="242.57,-442.03 232.77,-438.02 237.93,-447.27 242.57,-442.03"/>
</g>
<!-- pyside2&#45;&gt;freecad -->
<g id="edge14" class="edge">
<title>pyside2&#45;&gt;freecad</title>
<path fill="none" stroke="black" d="M246.94,-488.27C179.79,-478.74 60.11,-450.48 8.81,-368 0.37,-354.41 0,-345.35 8.81,-332 24.09,-308.85 51.79,-295.78 77.13,-288.41"/>
<polygon fill="black" stroke="black" points="77.94,-291.82 86.72,-285.89 76.16,-285.05 77.94,-291.82"/>
</g>
<!-- pyside2&#45;&gt;pycgns -->
<g id="edge15" class="edge">
<title>pyside2&#45;&gt;pycgns</title>
<path fill="none" stroke="black" d="M254.44,-482.91C229.94,-474.92 199.68,-461.45 179.81,-440 164.33,-423.28 155.94,-398.65 151.51,-379.54"/>
<polygon fill="black" stroke="black" points="154.98,-379.04 149.53,-369.95 148.12,-380.45 154.98,-379.04"/>
</g>
<!-- qtmolecularnetwork -->
<g id="node15" class="node">
<title>qtmolecularnetwork</title>
<g id="a_node15"><a xlink:href="https://github.com/conda-forge/qtmolecularnetwork-feedstock" xlink:title="qtmolecularnetwork">
<ellipse fill="#fde725" stroke="black" cx="372.81" cy="-422" rx="112.24" ry="18"/>
<text xml:space="preserve" text-anchor="middle" x="372.81" y="-417.32" font-family="Times,serif" font-size="14.00">qtmolecularnetwork</text>
</a>
</g>
</g>
<!-- pyside2&#45;&gt;qtmolecularnetwork -->
<g id="edge16" class="edge">
<title>pyside2&#45;&gt;qtmolecularnetwork</title>
<path fill="none" stroke="black" d="M312.91,-476.76C322.56,-468.1 334.65,-457.25 345.44,-447.57"/>
<polygon fill="black" stroke="black" points="347.5,-450.42 352.61,-441.13 342.83,-445.21 347.5,-450.42"/>
</g>
<!-- pyside6qtads -->
<g id="node16" class="node">
<title>pyside6qtads</title>
<g id="a_node16"><a xlink:href="https://github.com/conda-forge/pyside6qtads-feedstock" xlink:title="pyside6qtads">
<ellipse fill="#fde725" stroke="black" cx="618.81" cy="-422" rx="78.04" ry="18"/>
<text xml:space="preserve" text-anchor="middle" x="618.81" y="-417.32" font-family="Times,serif" font-size="14.00">pyside6qtads</text>
</a>
</g>
</g>
<!-- pyside2&#45;&gt;pyside6qtads -->
<g id="edge17" class="edge">
<title>pyside2&#45;&gt;pyside6qtads</title>
<path fill="none" stroke="black" d="M336.84,-483.92C391.55,-472.1 487.79,-451.31 552.42,-437.35"/>
<polygon fill="black" stroke="black" points="552.79,-440.85 561.82,-435.31 551.31,-434 552.79,-440.85"/>
</g>
<!-- nionui&#45;tool -->
<g id="node18" class="node">
<title>nionui&#45;tool</title>
<g id="a_node18"><a xlink:href="https://github.com/conda-forge/nionui-tool-feedstock" xlink:title="nionui tool">
<ellipse fill="#35b779" stroke="black" cx="882.81" cy="-422" rx="64.36" ry="18"/>
<text xml:space="preserve" text-anchor="middle" x="882.81" y="-417.32" font-family="Times,serif" font-size="14.00">nionui tool</text>
</a>
</g>
</g>
<!-- codes&#45;ui&#45;&gt;nionui&#45;tool -->
<!-- nionswift&#45;tool -->
<g id="node19" class="node">
<title>nionswift&#45;tool</title>
<g id="a_node19"><a xlink:href="https://github.com/conda-forge/nionswift-tool-feedstock" xlink:title="nionswift tool">
<ellipse fill="#35b779" stroke="black" cx="882.81" cy="-350" rx="79.62" ry="18"/>
<text xml:space="preserve" text-anchor="middle" x="882.81" y="-345.32" font-family="Times,serif" font-size="14.00">nionswift tool</text>
</a>
</g>
</g>
<!-- nionui&#45;tool&#45;&gt;nionswift&#45;tool -->
<!-- qdoas -->
<g id="node20" class="node">
<title>qdoas</title>
<g id="a_node20"><a xlink:href="https://github.com/conda-forge/qdoas-feedstock" xlink:title="qdoas">
<ellipse fill="#35b779" stroke="black" cx="882.81" cy="-278" rx="40.69" ry="18"/>
<text xml:space="preserve" text-anchor="middle" x="882.81" y="-273.32" font-family="Times,serif" font-size="14.00">qdoas</text>
</a>
</g>
</g>
<!-- nionswift&#45;tool&#45;&gt;qdoas -->
<!-- qcachegrind -->
<g id="node29" class="node">
<title>qcachegrind</title>
<g id="a_node29"><a xlink:href="https://github.com/conda-forge/qcachegrind-feedstock" xlink:title="qcachegrind">
<ellipse fill="#35b779" stroke="black" cx="882.81" cy="-206" rx="72.78" ry="18"/>
<text xml:space="preserve" text-anchor="middle" x="882.81" y="-201.33" font-family="Times,serif" font-size="14.00">qcachegrind</text>
</a>
</g>
</g>
<!-- qdoas&#45;&gt;qcachegrind -->
<!-- quazip -->
<g id="node21" class="node">
<title>quazip</title>
<g id="a_node21"><a xlink:href="https://github.com/conda-forge/quazip-feedstock/pull/10" xlink:title="quazip ❎">
<ellipse fill="#31688e" stroke="black" cx="396.81" cy="-90" rx="59.63" ry="18"/>
<text xml:space="preserve" text-anchor="middle" x="396.81" y="-85.33" font-family="Times,serif" font-size="14.00" fill="white">quazip ❎</text>
</a>
</g>
</g>
<!-- connectome&#45;workbench&#45;split -->
<g id="node22" class="node">
<title>connectome&#45;workbench&#45;split</title>
<g id="a_node22"><a xlink:href="https://github.com/conda-forge/connectome-workbench-split-feedstock" xlink:title="connectome workbench split">
<ellipse fill="#fde725" stroke="black" cx="396.81" cy="-18" rx="154.33" ry="18"/>
<text xml:space="preserve" text-anchor="middle" x="396.81" y="-13.32" font-family="Times,serif" font-size="14.00">connectome workbench split</text>
</a>
</g>
</g>
<!-- quazip&#45;&gt;connectome&#45;workbench&#45;split -->
<g id="edge22" class="edge">
<title>quazip&#45;&gt;connectome&#45;workbench&#45;split</title>
<path fill="none" stroke="black" d="M396.81,-71.7C396.81,-64.41 396.81,-55.73 396.81,-47.54"/>
<polygon fill="black" stroke="black" points="400.31,-47.62 396.81,-37.62 393.31,-47.62 400.31,-47.62"/>
</g>
<!-- gz&#45;gui -->
<g id="node23" class="node">
<title>gz&#45;gui</title>
<g id="a_node23"><a xlink:href="https://github.com/conda-forge/gz-gui-feedstock/pull/79" xlink:title="gz gui ❎">
<ellipse fill="#31688e" stroke="black" cx="1074.81" cy="-566" rx="57" ry="18"/>
<text xml:space="preserve" text-anchor="middle" x="1074.81" y="-561.33" font-family="Times,serif" font-size="14.00" fill="white">gz gui ❎</text>
</a>
</g>
</g>
<!-- gz&#45;sim -->
<g id="node24" class="node">
<title>gz&#45;sim</title>
<g id="a_node24"><a xlink:href="https://github.com/conda-forge/gz-sim-feedstock" xlink:title="gz sim">
<ellipse fill="#fde725" stroke="black" cx="1110.81" cy="-494" rx="43.84" ry="18"/>
<text xml:space="preserve" text-anchor="middle" x="1110.81" y="-489.32" font-family="Times,serif" font-size="14.00">gz sim</text>
</a>
</g>
</g>
<!-- gz&#45;gui&#45;&gt;gz&#45;sim -->
<g id="edge23" class="edge">
<title>gz&#45;gui&#45;&gt;gz&#45;sim</title>
<path fill="none" stroke="black" d="M1083.53,-548.05C1087.55,-540.23 1092.43,-530.75 1096.94,-521.98"/>
<polygon fill="black" stroke="black" points="1100.03,-523.63 1101.49,-513.13 1093.8,-520.43 1100.03,-523.63"/>
</g>
<!-- gz&#45;launch -->
<g id="node25" class="node">
<title>gz&#45;launch</title>
<g id="a_node25"><a xlink:href="https://github.com/conda-forge/gz-launch-feedstock" xlink:title="gz launch">
<ellipse fill="#fde725" stroke="black" cx="1038.81" cy="-422" rx="59.1" ry="18"/>
<text xml:space="preserve" text-anchor="middle" x="1038.81" y="-417.32" font-family="Times,serif" font-size="14.00">gz launch</text>
</a>
</g>
</g>
<!-- gz&#45;gui&#45;&gt;gz&#45;launch -->
<g id="edge24" class="edge">
<title>gz&#45;gui&#45;&gt;gz&#45;launch</title>
<path fill="none" stroke="black" d="M1068.86,-547.94C1065.38,-537.62 1061.05,-524.14 1057.81,-512 1052.46,-491.9 1047.59,-468.95 1044.12,-451.38"/>
<polygon fill="black" stroke="black" points="1047.58,-450.82 1042.24,-441.67 1040.7,-452.15 1047.58,-450.82"/>
</g>
<!-- gz&#45;sim&#45;&gt;gz&#45;launch -->
<g id="edge25" class="edge">
<title>gz&#45;sim&#45;&gt;gz&#45;launch</title>
<path fill="none" stroke="black" d="M1094.48,-477.12C1085.47,-468.36 1074.08,-457.29 1063.96,-447.45"/>
<polygon fill="black" stroke="black" points="1066.53,-445.07 1056.92,-440.61 1061.65,-450.09 1066.53,-445.07"/>
</g>
<!-- gz&#45;sim&#45;yarp&#45;plugins -->
<g id="node26" class="node">
<title>gz&#45;sim&#45;yarp&#45;plugins</title>
<g id="a_node26"><a xlink:href="https://github.com/conda-forge/gz-sim-yarp-plugins-feedstock" xlink:title="gz sim yarp plugins">
<ellipse fill="#fde725" stroke="black" cx="1081.81" cy="-350" rx="109.61" ry="18"/>
<text xml:space="preserve" text-anchor="middle" x="1081.81" y="-345.32" font-family="Times,serif" font-size="14.00">gz sim yarp plugins</text>
</a>
</g>
</g>
<!-- gz&#45;sim&#45;&gt;gz&#45;sim&#45;yarp&#45;plugins -->
<g id="edge26" class="edge">
<title>gz&#45;sim&#45;&gt;gz&#45;sim&#45;yarp&#45;plugins</title>
<path fill="none" stroke="black" d="M1112.03,-475.65C1112.84,-457.5 1112.84,-428.32 1106.81,-404 1104.64,-395.21 1100.95,-386.13 1097.07,-378.02"/>
<polygon fill="black" stroke="black" points="1100.32,-376.68 1092.65,-369.37 1094.09,-379.87 1100.32,-376.68"/>
</g>
<!-- gz&#45;launch&#45;&gt;gz&#45;sim&#45;yarp&#45;plugins -->
<g id="edge27" class="edge">
<title>gz&#45;launch&#45;&gt;gz&#45;sim&#45;yarp&#45;plugins</title>
<path fill="none" stroke="black" d="M1049.22,-404.05C1054.01,-396.26 1059.81,-386.82 1065.18,-378.08"/>
<polygon fill="black" stroke="black" points="1068.16,-379.92 1070.41,-369.56 1062.19,-376.25 1068.16,-379.92"/>
</g>
<!-- qt6&#45;advanced&#45;docking&#45;system -->
<g id="node27" class="node">
<title>qt6&#45;advanced&#45;docking&#45;system</title>
<g id="a_node27"><a xlink:href="https://github.com/conda-forge/qt6-advanced-docking-system-feedstock/pull/27" xlink:title="qt6 advanced docking system ❎">
<ellipse fill="#31688e" stroke="black" cx="618.81" cy="-494" rx="174.84" ry="18"/>
<text xml:space="preserve" text-anchor="middle" x="618.81" y="-489.32" font-family="Times,serif" font-size="14.00" fill="white">qt6 advanced docking system ❎</text>
</a>
</g>
</g>
<!-- qt6&#45;advanced&#45;docking&#45;system&#45;&gt;pyside6qtads -->
<g id="edge28" class="edge">
<title>qt6&#45;advanced&#45;docking&#45;system&#45;&gt;pyside6qtads</title>
<path fill="none" stroke="black" d="M618.81,-475.7C618.81,-468.41 618.81,-459.73 618.81,-451.54"/>
<polygon fill="black" stroke="black" points="622.31,-451.62 618.81,-441.62 615.31,-451.62 622.31,-451.62"/>
</g>
<!-- qt&#45;wayland -->
<g id="node28" class="node">
<title>qt&#45;wayland</title>
<g id="a_node28"><a xlink:href="https://github.com/conda-forge/qt-wayland-feedstock" xlink:title="qt wayland">
<ellipse fill="#35b779" stroke="black" cx="341.81" cy="-566" rx="66.47" ry="18"/>
<text xml:space="preserve" text-anchor="middle" x="341.81" y="-561.33" font-family="Times,serif" font-size="14.00">qt wayland</text>
</a>
</g>
</g>
<!-- qt&#45;wayland&#45;&gt;pyside2 -->
<g id="edge29" class="edge">
<title>qt&#45;wayland&#45;&gt;pyside2</title>
<path fill="none" stroke="black" d="M330.44,-548.05C325.01,-539.97 318.4,-530.12 312.35,-521.11"/>
<polygon fill="black" stroke="black" points="315.41,-519.4 306.93,-513.05 309.6,-523.3 315.41,-519.4"/>
</g>
<!-- libcamera -->
<g id="node31" class="node">
<title>libcamera</title>
<g id="a_node31"><a xlink:href="https://github.com/conda-forge/libcamera-feedstock/pull/22" xlink:title="libcamera ❎">
<ellipse fill="#31688e" stroke="black" cx="882.81" cy="-134" rx="75.94" ry="18"/>
<text xml:space="preserve" text-anchor="middle" x="882.81" y="-129.32" font-family="Times,serif" font-size="14.00" fill="white">libcamera ❎</text>
</a>
</g>
</g>
<!-- qcachegrind&#45;&gt;libcamera -->
<!-- qt&#45;graphs -->
<g id="node30" class="node">
<title>qt&#45;graphs</title>
<g id="a_node30"><a xlink:href="https://github.com/conda-forge/qt-graphs-feedstock" xlink:title="qt graphs">
<ellipse fill="#35b779" stroke="black" cx="247.81" cy="-638" rx="59.63" ry="18"/>
<text xml:space="preserve" text-anchor="middle" x="247.81" y="-633.33" font-family="Times,serif" font-size="14.00">qt graphs</text>
</a>
</g>
</g>
<!-- qt&#45;graphs&#45;&gt;pyside2 -->
<g id="edge31" class="edge">
<title>qt&#45;graphs&#45;&gt;pyside2</title>
<path fill="none" stroke="black" d="M250.09,-619.55C252.79,-601.31 258.08,-572.06 266.81,-548 270.06,-539.06 274.56,-529.75 279,-521.47"/>
<polygon fill="black" stroke="black" points="281.93,-523.39 283.76,-512.96 275.82,-519.98 281.93,-523.39"/>
</g>
</g>
</svg>
