<?xml version="1.0" encoding="UTF-8" standalone="no"?>
<!DOCTYPE svg PUBLIC "-//W3C//DTD SVG 1.1//EN"
 "http://www.w3.org/Graphics/SVG/1.1/DTD/svg11.dtd">
<!-- Generated by graphviz version 13.1.2 (20250809.0930)
 -->
<!-- Pages: 1 -->
<svg width="1214pt" height="880pt"
 viewBox="0.00 0.00 1214.00 880.00" xmlns="http://www.w3.org/2000/svg" xmlns:xlink="http://www.w3.org/1999/xlink">
<g id="graph0" class="graph" transform="scale(1 1) rotate(0) translate(4 876)">
<polygon fill="white" stroke="none" points="-4,4 -4,-876 1210.45,-876 1210.45,4 -4,4"/>
<!-- opencv -->
<g id="node1" class="node">
<title>opencv</title>
<g id="a_node1"><a xlink:href="https://github.com/conda-forge/opencv-feedstock/pull/514" xlink:title="opencv ❎">
<ellipse fill="#31688e" stroke="black" cx="884.84" cy="-854" rx="61.73" ry="18"/>
<text xml:space="preserve" text-anchor="middle" x="884.84" y="-849.33" font-family="Times,serif" font-size="14.00" fill="white">opencv ❎</text>
</a>
</g>
</g>
<!-- qtkeychain -->
<g id="node2" class="node">
<title>qtkeychain</title>
<g id="a_node2"><a xlink:href="https://github.com/conda-forge/qtkeychain-feedstock/pull/29" xlink:title="qtkeychain ❎">
<ellipse fill="#31688e" stroke="black" cx="884.84" cy="-782" rx="81.2" ry="18"/>
<text xml:space="preserve" text-anchor="middle" x="884.84" y="-777.33" font-family="Times,serif" font-size="14.00" fill="white">qtkeychain ❎</text>
</a>
</g>
</g>
<!-- opencv&#45;&gt;qtkeychain -->
<!-- simage -->
<g id="node4" class="node">
<title>simage</title>
<g id="a_node4"><a xlink:href="https://github.com/conda-forge/simage-feedstock/pull/19" xlink:title="simage ❎">
<ellipse fill="#31688e" stroke="black" cx="884.84" cy="-710" rx="62.26" ry="18"/>
<text xml:space="preserve" text-anchor="middle" x="884.84" y="-705.33" font-family="Times,serif" font-size="14.00" fill="white">simage ❎</text>
</a>
</g>
</g>
<!-- qtkeychain&#45;&gt;simage -->
<!-- paraview -->
<g id="node3" class="node">
<title>paraview</title>
<g id="a_node3"><a xlink:href="https://github.com/conda-forge/paraview-feedstock" xlink:title="paraview">
<ellipse fill="#fde725" stroke="black" cx="706.84" cy="-422" rx="57" ry="18"/>
<text xml:space="preserve" text-anchor="middle" x="706.84" y="-417.32" font-family="Times,serif" font-size="14.00">paraview</text>
</a>
</g>
</g>
<!-- ovito -->
<g id="node10" class="node">
<title>ovito</title>
<g id="a_node10"><a xlink:href="https://github.com/conda-forge/ovito-feedstock/pull/133" xlink:title="ovito ❎">
<ellipse fill="#31688e" stroke="black" cx="884.84" cy="-638" rx="51.21" ry="18"/>
<text xml:space="preserve" text-anchor="middle" x="884.84" y="-633.33" font-family="Times,serif" font-size="14.00" fill="white">ovito ❎</text>
</a>
</g>
</g>
<!-- simage&#45;&gt;ovito -->
<!-- vtk -->
<g id="node5" class="node">
<title>vtk</title>
<g id="a_node5"><a xlink:href="https://github.com/conda-forge/vtk-feedstock" xlink:title="vtk">
<ellipse fill="#fde725" stroke="black" cx="577.84" cy="-494" rx="27.01" ry="18"/>
<text xml:space="preserve" text-anchor="middle" x="577.84" y="-489.32" font-family="Times,serif" font-size="14.00">vtk</text>
</a>
</g>
</g>
<!-- vtk&#45;&gt;paraview -->
<g id="edge3" class="edge">
<title>vtk&#45;&gt;paraview</title>
<path fill="none" stroke="black" d="M598.29,-481.91C617.35,-471.57 646.24,-455.89 669.43,-443.3"/>
<polygon fill="black" stroke="black" points="670.85,-446.52 677.97,-438.67 667.51,-440.36 670.85,-446.52"/>
</g>
<!-- pcl -->
<g id="node6" class="node">
<title>pcl</title>
<g id="a_node6"><a xlink:href="https://github.com/conda-forge/pcl-feedstock" xlink:title="pcl">
<ellipse fill="#fde725" stroke="black" cx="604.84" cy="-422" rx="27" ry="18"/>
<text xml:space="preserve" text-anchor="middle" x="604.84" y="-417.32" font-family="Times,serif" font-size="14.00">pcl</text>
</a>
</g>
</g>
<!-- vtk&#45;&gt;pcl -->
<g id="edge4" class="edge">
<title>vtk&#45;&gt;pcl</title>
<path fill="none" stroke="black" d="M584.38,-476.05C587.37,-468.32 590.98,-458.96 594.33,-450.27"/>
<polygon fill="black" stroke="black" points="597.49,-451.79 597.82,-441.2 590.96,-449.27 597.49,-451.79"/>
</g>
<!-- freecad -->
<g id="node7" class="node">
<title>freecad</title>
<g id="a_node7"><a xlink:href="https://github.com/conda-forge/freecad-feedstock" xlink:title="freecad">
<ellipse fill="#fde725" stroke="black" cx="626.84" cy="-350" rx="48.58" ry="18"/>
<text xml:space="preserve" text-anchor="middle" x="626.84" y="-345.32" font-family="Times,serif" font-size="14.00">freecad</text>
</a>
</g>
</g>
<!-- vtk&#45;&gt;freecad -->
<g id="edge5" class="edge">
<title>vtk&#45;&gt;freecad</title>
<path fill="none" stroke="black" d="M571.32,-476.15C565.23,-457.64 558.51,-427.45 568.84,-404 574.15,-391.96 583.7,-381.47 593.53,-373.07"/>
<polygon fill="black" stroke="black" points="595.67,-375.84 601.34,-366.89 591.33,-370.35 595.67,-375.84"/>
</g>
<!-- pycgns -->
<g id="node8" class="node">
<title>pycgns</title>
<g id="a_node8"><a xlink:href="https://github.com/conda-forge/pycgns-feedstock" xlink:title="pycgns">
<ellipse fill="#fde725" stroke="black" cx="437.84" cy="-422" rx="46.47" ry="18"/>
<text xml:space="preserve" text-anchor="middle" x="437.84" y="-417.32" font-family="Times,serif" font-size="14.00">pycgns</text>
</a>
</g>
</g>
<!-- vtk&#45;&gt;pycgns -->
<g id="edge6" class="edge">
<title>vtk&#45;&gt;pycgns</title>
<path fill="none" stroke="black" d="M556.58,-482.37C535.2,-471.68 501.78,-454.97 475.84,-442"/>
<polygon fill="black" stroke="black" points="477.45,-438.89 466.94,-437.55 474.32,-445.15 477.45,-438.89"/>
</g>
<!-- open3d -->
<g id="node9" class="node">
<title>open3d</title>
<g id="a_node9"><a xlink:href="https://github.com/conda-forge/open3d-feedstock" xlink:title="open3d">
<ellipse fill="#fde725" stroke="black" cx="511.84" cy="-350" rx="48.05" ry="18"/>
<text xml:space="preserve" text-anchor="middle" x="511.84" y="-345.32" font-family="Times,serif" font-size="14.00">open3d</text>
</a>
</g>
</g>
<!-- vtk&#45;&gt;open3d -->
<g id="edge7" class="edge">
<title>vtk&#45;&gt;open3d</title>
<path fill="none" stroke="black" d="M570.14,-476.43C558.93,-452.3 537.97,-407.2 524.47,-378.17"/>
<polygon fill="black" stroke="black" points="527.73,-376.87 520.34,-369.27 521.38,-379.82 527.73,-376.87"/>
</g>
<!-- pcl&#45;&gt;freecad -->
<g id="edge8" class="edge">
<title>pcl&#45;&gt;freecad</title>
<path fill="none" stroke="black" d="M610.17,-404.05C612.51,-396.6 615.33,-387.64 617.97,-379.22"/>
<polygon fill="black" stroke="black" points="621.3,-380.31 620.96,-369.72 614.62,-378.21 621.3,-380.31"/>
</g>
<!-- veusz -->
<g id="node14" class="node">
<title>veusz</title>
<g id="a_node14"><a xlink:href="https://github.com/conda-forge/veusz-feedstock" xlink:title="veusz">
<ellipse fill="#35b779" stroke="black" cx="884.84" cy="-566" rx="39.63" ry="18"/>
<text xml:space="preserve" text-anchor="middle" x="884.84" y="-561.33" font-family="Times,serif" font-size="14.00">veusz</text>
</a>
</g>
</g>
<!-- ovito&#45;&gt;veusz -->
<!-- pyside2 -->
<g id="node11" class="node">
<title>pyside2</title>
<g id="a_node11"><a xlink:href="https://github.com/conda-forge/pyside2-feedstock" xlink:title="pyside2">
<ellipse fill="#fde725" stroke="black" cx="549.84" cy="-566" rx="50.16" ry="18"/>
<text xml:space="preserve" text-anchor="middle" x="549.84" y="-561.33" font-family="Times,serif" font-size="14.00">pyside2</text>
</a>
</g>
</g>
<!-- pyside2&#45;&gt;paraview -->
<g id="edge10" class="edge">
<title>pyside2&#45;&gt;paraview</title>
<path fill="none" stroke="black" d="M569.76,-549.12C582.55,-538.77 599.41,-524.86 613.84,-512 637.62,-490.83 663.73,-465.66 682.21,-447.5"/>
<polygon fill="black" stroke="black" points="684.64,-450.02 689.31,-440.51 679.73,-445.04 684.64,-450.02"/>
</g>
<!-- pyside2&#45;&gt;vtk -->
<g id="edge11" class="edge">
<title>pyside2&#45;&gt;vtk</title>
<path fill="none" stroke="black" d="M556.77,-547.7C559.83,-540.04 563.51,-530.85 566.92,-522.3"/>
<polygon fill="black" stroke="black" points="570.17,-523.61 570.63,-513.03 563.67,-521.01 570.17,-523.61"/>
</g>
<!-- pyside2&#45;&gt;freecad -->
<g id="edge12" class="edge">
<title>pyside2&#45;&gt;freecad</title>
<path fill="none" stroke="black" d="M590.95,-555.53C643.89,-540.88 733.75,-507.11 772.84,-440 780.9,-426.18 782.03,-417.1 772.84,-404 753.13,-375.88 716.9,-362.62 685.46,-356.39"/>
<polygon fill="black" stroke="black" points="686.08,-352.95 675.63,-354.67 684.87,-359.84 686.08,-352.95"/>
</g>
<!-- pyside2&#45;&gt;pycgns -->
<g id="edge13" class="edge">
<title>pyside2&#45;&gt;pycgns</title>
<path fill="none" stroke="black" d="M543.43,-547.68C535.87,-528.76 522.02,-498.21 503.84,-476 494.23,-464.24 481.62,-453.34 470,-444.52"/>
<polygon fill="black" stroke="black" points="472.33,-441.88 462.19,-438.8 468.19,-447.53 472.33,-441.88"/>
</g>
<!-- qtmolecularnetwork -->
<g id="node12" class="node">
<title>qtmolecularnetwork</title>
<g id="a_node12"><a xlink:href="https://github.com/conda-forge/qtmolecularnetwork-feedstock" xlink:title="qtmolecularnetwork">
<ellipse fill="#fde725" stroke="black" cx="382.84" cy="-494" rx="112.24" ry="18"/>
<text xml:space="preserve" text-anchor="middle" x="382.84" y="-489.32" font-family="Times,serif" font-size="14.00">qtmolecularnetwork</text>
</a>
</g>
</g>
<!-- pyside2&#45;&gt;qtmolecularnetwork -->
<g id="edge14" class="edge">
<title>pyside2&#45;&gt;qtmolecularnetwork</title>
<path fill="none" stroke="black" d="M518.04,-551.67C493.7,-541.47 459.71,-527.22 431.9,-515.56"/>
<polygon fill="black" stroke="black" points="433.55,-512.46 422.97,-511.82 430.84,-518.91 433.55,-512.46"/>
</g>
<!-- pyside6qtads -->
<g id="node13" class="node">
<title>pyside6qtads</title>
<g id="a_node13"><a xlink:href="https://github.com/conda-forge/pyside6qtads-feedstock" xlink:title="pyside6qtads">
<ellipse fill="#fde725" stroke="black" cx="174.84" cy="-494" rx="78.04" ry="18"/>
<text xml:space="preserve" text-anchor="middle" x="174.84" y="-489.32" font-family="Times,serif" font-size="14.00">pyside6qtads</text>
</a>
</g>
</g>
<!-- pyside2&#45;&gt;pyside6qtads -->
<g id="edge15" class="edge">
<title>pyside2&#45;&gt;pyside6qtads</title>
<path fill="none" stroke="black" d="M505.9,-557.07C449.4,-546.83 348.26,-528.39 261.84,-512 255.99,-510.89 249.91,-509.72 243.81,-508.55"/>
<polygon fill="black" stroke="black" points="244.83,-505.18 234.34,-506.72 243.5,-512.05 244.83,-505.18"/>
</g>
<!-- codes&#45;ui -->
<g id="node15" class="node">
<title>codes&#45;ui</title>
<g id="a_node15"><a xlink:href="https://github.com/conda-forge/codes-ui-feedstock/pull/23" xlink:title="codes ui ❎">
<ellipse fill="#31688e" stroke="black" cx="884.84" cy="-494" rx="67.52" ry="18"/>
<text xml:space="preserve" text-anchor="middle" x="884.84" y="-489.32" font-family="Times,serif" font-size="14.00" fill="white">codes ui ❎</text>
</a>
</g>
</g>
<!-- veusz&#45;&gt;codes&#45;ui -->
<!-- nionui&#45;tool -->
<g id="node16" class="node">
<title>nionui&#45;tool</title>
<g id="a_node16"><a xlink:href="https://github.com/conda-forge/nionui-tool-feedstock/pull/63" xlink:title="nionui tool ❎">
<ellipse fill="#31688e" stroke="black" cx="884.84" cy="-422" rx="79.62" ry="18"/>
<text xml:space="preserve" text-anchor="middle" x="884.84" y="-417.32" font-family="Times,serif" font-size="14.00" fill="white">nionui tool ❎</text>
</a>
</g>
</g>
<!-- codes&#45;ui&#45;&gt;nionui&#45;tool -->
<!-- nionswift&#45;tool -->
<g id="node17" class="node">
<title>nionswift&#45;tool</title>
<g id="a_node17"><a xlink:href="https://github.com/conda-forge/nionswift-tool-feedstock/pull/38" xlink:title="nionswift tool ❎">
<ellipse fill="#31688e" stroke="black" cx="884.84" cy="-350" rx="94.88" ry="18"/>
<text xml:space="preserve" text-anchor="middle" x="884.84" y="-345.32" font-family="Times,serif" font-size="14.00" fill="white">nionswift tool ❎</text>
</a>
</g>
</g>
<!-- nionui&#45;tool&#45;&gt;nionswift&#45;tool -->
<!-- qdoas -->
<g id="node18" class="node">
<title>qdoas</title>
<g id="a_node18"><a xlink:href="https://github.com/conda-forge/qdoas-feedstock/pull/42" xlink:title="qdoas ❎">
<ellipse fill="#31688e" stroke="black" cx="884.84" cy="-278" rx="55.94" ry="18"/>
<text xml:space="preserve" text-anchor="middle" x="884.84" y="-273.32" font-family="Times,serif" font-size="14.00" fill="white">qdoas ❎</text>
</a>
</g>
</g>
<!-- nionswift&#45;tool&#45;&gt;qdoas -->
<!-- qcachegrind -->
<g id="node27" class="node">
<title>qcachegrind</title>
<g id="a_node27"><a xlink:href="https://github.com/conda-forge/qcachegrind-feedstock/pull/9" xlink:title="qcachegrind ❎">
<ellipse fill="#31688e" stroke="black" cx="884.84" cy="-206" rx="88.04" ry="18"/>
<text xml:space="preserve" text-anchor="middle" x="884.84" y="-201.33" font-family="Times,serif" font-size="14.00" fill="white">qcachegrind ❎</text>
</a>
</g>
</g>
<!-- qdoas&#45;&gt;qcachegrind -->
<!-- quazip -->
<g id="node19" class="node">
<title>quazip</title>
<g id="a_node19"><a xlink:href="https://github.com/conda-forge/quazip-feedstock/pull/10" xlink:title="quazip ❎">
<ellipse fill="#31688e" stroke="black" cx="390.84" cy="-90" rx="59.63" ry="18"/>
<text xml:space="preserve" text-anchor="middle" x="390.84" y="-85.33" font-family="Times,serif" font-size="14.00" fill="white">quazip ❎</text>
</a>
</g>
</g>
<!-- connectome&#45;workbench&#45;split -->
<g id="node20" class="node">
<title>connectome&#45;workbench&#45;split</title>
<g id="a_node20"><a xlink:href="https://github.com/conda-forge/connectome-workbench-split-feedstock" xlink:title="connectome workbench split">
<ellipse fill="#fde725" stroke="black" cx="390.84" cy="-18" rx="154.33" ry="18"/>
<text xml:space="preserve" text-anchor="middle" x="390.84" y="-13.32" font-family="Times,serif" font-size="14.00">connectome workbench split</text>
</a>
</g>
</g>
<!-- quazip&#45;&gt;connectome&#45;workbench&#45;split -->
<g id="edge21" class="edge">
<title>quazip&#45;&gt;connectome&#45;workbench&#45;split</title>
<path fill="none" stroke="black" d="M390.84,-71.7C390.84,-64.41 390.84,-55.73 390.84,-47.54"/>
<polygon fill="black" stroke="black" points="394.34,-47.62 390.84,-37.62 387.34,-47.62 394.34,-47.62"/>
</g>
<!-- gz&#45;gui -->
<g id="node21" class="node">
<title>gz&#45;gui</title>
<g id="a_node21"><a xlink:href="https://github.com/conda-forge/gz-gui-feedstock/pull/79" xlink:title="gz gui ❎">
<ellipse fill="#31688e" stroke="black" cx="1089.84" cy="-602" rx="57" ry="18"/>
<text xml:space="preserve" text-anchor="middle" x="1089.84" y="-597.33" font-family="Times,serif" font-size="14.00" fill="white">gz gui ❎</text>
</a>
</g>
</g>
<!-- gz&#45;sim -->
<g id="node22" class="node">
<title>gz&#45;sim</title>
<g id="a_node22"><a xlink:href="https://github.com/conda-forge/gz-sim-feedstock" xlink:title="gz sim">
<ellipse fill="#fde725" stroke="black" cx="1125.84" cy="-530" rx="43.84" ry="18"/>
<text xml:space="preserve" text-anchor="middle" x="1125.84" y="-525.33" font-family="Times,serif" font-size="14.00">gz sim</text>
</a>
</g>
</g>
<!-- gz&#45;gui&#45;&gt;gz&#45;sim -->
<g id="edge22" class="edge">
<title>gz&#45;gui&#45;&gt;gz&#45;sim</title>
<path fill="none" stroke="black" d="M1098.56,-584.05C1102.58,-576.23 1107.46,-566.75 1111.97,-557.98"/>
<polygon fill="black" stroke="black" points="1115.06,-559.63 1116.52,-549.13 1108.83,-556.43 1115.06,-559.63"/>
</g>
<!-- gz&#45;launch -->
<g id="node23" class="node">
<title>gz&#45;launch</title>
<g id="a_node23"><a xlink:href="https://github.com/conda-forge/gz-launch-feedstock" xlink:title="gz launch">
<ellipse fill="#fde725" stroke="black" cx="1053.84" cy="-458" rx="59.1" ry="18"/>
<text xml:space="preserve" text-anchor="middle" x="1053.84" y="-453.32" font-family="Times,serif" font-size="14.00">gz launch</text>
</a>
</g>
</g>
<!-- gz&#45;gui&#45;&gt;gz&#45;launch -->
<g id="edge23" class="edge">
<title>gz&#45;gui&#45;&gt;gz&#45;launch</title>
<path fill="none" stroke="black" d="M1083.89,-583.94C1080.41,-573.62 1076.08,-560.14 1072.84,-548 1067.49,-527.9 1062.62,-504.95 1059.15,-487.38"/>
<polygon fill="black" stroke="black" points="1062.61,-486.82 1057.27,-477.67 1055.73,-488.15 1062.61,-486.82"/>
</g>
<!-- gz&#45;sim&#45;&gt;gz&#45;launch -->
<g id="edge24" class="edge">
<title>gz&#45;sim&#45;&gt;gz&#45;launch</title>
<path fill="none" stroke="black" d="M1109.51,-513.12C1100.5,-504.36 1089.11,-493.29 1078.99,-483.45"/>
<polygon fill="black" stroke="black" points="1081.56,-481.07 1071.95,-476.61 1076.68,-486.09 1081.56,-481.07"/>
</g>
<!-- gz&#45;sim&#45;yarp&#45;plugins -->
<g id="node24" class="node">
<title>gz&#45;sim&#45;yarp&#45;plugins</title>
<g id="a_node24"><a xlink:href="https://github.com/conda-forge/gz-sim-yarp-plugins-feedstock" xlink:title="gz sim yarp plugins">
<ellipse fill="#fde725" stroke="black" cx="1096.84" cy="-386" rx="109.61" ry="18"/>
<text xml:space="preserve" text-anchor="middle" x="1096.84" y="-381.32" font-family="Times,serif" font-size="14.00">gz sim yarp plugins</text>
</a>
</g>
</g>
<!-- gz&#45;sim&#45;&gt;gz&#45;sim&#45;yarp&#45;plugins -->
<g id="edge25" class="edge">
<title>gz&#45;sim&#45;&gt;gz&#45;sim&#45;yarp&#45;plugins</title>
<path fill="none" stroke="black" d="M1127.06,-511.65C1127.87,-493.5 1127.87,-464.32 1121.84,-440 1119.67,-431.21 1115.98,-422.13 1112.1,-414.02"/>
<polygon fill="black" stroke="black" points="1115.35,-412.68 1107.68,-405.37 1109.12,-415.87 1115.35,-412.68"/>
</g>
<!-- gz&#45;launch&#45;&gt;gz&#45;sim&#45;yarp&#45;plugins -->
<g id="edge26" class="edge">
<title>gz&#45;launch&#45;&gt;gz&#45;sim&#45;yarp&#45;plugins</title>
<path fill="none" stroke="black" d="M1064.25,-440.05C1069.04,-432.26 1074.84,-422.82 1080.21,-414.08"/>
<polygon fill="black" stroke="black" points="1083.19,-415.92 1085.44,-405.56 1077.22,-412.25 1083.19,-415.92"/>
</g>
<!-- qt6&#45;advanced&#45;docking&#45;system -->
<g id="node25" class="node">
<title>qt6&#45;advanced&#45;docking&#45;system</title>
<g id="a_node25"><a xlink:href="https://github.com/conda-forge/qt6-advanced-docking-system-feedstock/pull/27" xlink:title="qt6 advanced docking system ❎">
<ellipse fill="#31688e" stroke="black" cx="174.84" cy="-566" rx="174.84" ry="18"/>
<text xml:space="preserve" text-anchor="middle" x="174.84" y="-561.33" font-family="Times,serif" font-size="14.00" fill="white">qt6 advanced docking system ❎</text>
</a>
</g>
</g>
<!-- qt6&#45;advanced&#45;docking&#45;system&#45;&gt;pyside6qtads -->
<g id="edge27" class="edge">
<title>qt6&#45;advanced&#45;docking&#45;system&#45;&gt;pyside6qtads</title>
<path fill="none" stroke="black" d="M174.84,-547.7C174.84,-540.41 174.84,-531.73 174.84,-523.54"/>
<polygon fill="black" stroke="black" points="178.34,-523.62 174.84,-513.62 171.34,-523.62 178.34,-523.62"/>
</g>
<!-- qt&#45;wayland -->
<g id="node26" class="node">
<title>qt&#45;wayland</title>
<g id="a_node26"><a xlink:href="https://github.com/conda-forge/qt-wayland-feedstock" xlink:title="qt wayland">
<ellipse fill="#fde725" stroke="black" cx="549.84" cy="-638" rx="66.47" ry="18"/>
<text xml:space="preserve" text-anchor="middle" x="549.84" y="-633.33" font-family="Times,serif" font-size="14.00">qt wayland</text>
</a>
</g>
</g>
<!-- qt&#45;wayland&#45;&gt;pyside2 -->
<g id="edge28" class="edge">
<title>qt&#45;wayland&#45;&gt;pyside2</title>
<path fill="none" stroke="black" d="M549.84,-619.7C549.84,-612.41 549.84,-603.73 549.84,-595.54"/>
<polygon fill="black" stroke="black" points="553.34,-595.62 549.84,-585.62 546.34,-595.62 553.34,-595.62"/>
</g>
<!-- libcamera -->
<g id="node28" class="node">
<title>libcamera</title>
<g id="a_node28"><a xlink:href="https://github.com/conda-forge/libcamera-feedstock/pull/22" xlink:title="libcamera ❎">
<ellipse fill="#31688e" stroke="black" cx="884.84" cy="-134" rx="75.94" ry="18"/>
<text xml:space="preserve" text-anchor="middle" x="884.84" y="-129.32" font-family="Times,serif" font-size="14.00" fill="white">libcamera ❎</text>
</a>
</g>
</g>
<!-- qcachegrind&#45;&gt;libcamera -->
</g>
</svg>
