<?xml version="1.0" encoding="UTF-8" standalone="no"?>
<!DOCTYPE svg PUBLIC "-//W3C//DTD SVG 1.1//EN"
 "http://www.w3.org/Graphics/SVG/1.1/DTD/svg11.dtd">
<!-- Generated by graphviz version 13.1.2 (20250809.0930)
 -->
<!-- Pages: 1 -->
<svg width="1199pt" height="880pt"
 viewBox="0.00 0.00 1199.00 880.00" xmlns="http://www.w3.org/2000/svg" xmlns:xlink="http://www.w3.org/1999/xlink">
<g id="graph0" class="graph" transform="scale(1 1) rotate(0) translate(4 876)">
<polygon fill="white" stroke="none" points="-4,4 -4,-876 1195.42,-876 1195.42,4 -4,4"/>
<!-- opencv -->
<g id="node1" class="node">
<title>opencv</title>
<g id="a_node1"><a xlink:href="https://github.com/conda-forge/opencv-feedstock/pull/514" xlink:title="opencv ❎">
<ellipse fill="#31688e" stroke="black" cx="882.81" cy="-854" rx="61.73" ry="18"/>
<text xml:space="preserve" text-anchor="middle" x="882.81" y="-849.33" font-family="Times,serif" font-size="14.00" fill="white">opencv ❎</text>
</a>
</g>
</g>
<!-- qtkeychain -->
<g id="node2" class="node">
<title>qtkeychain</title>
<g id="a_node2"><a xlink:href="https://github.com/conda-forge/qtkeychain-feedstock/pull/29" xlink:title="qtkeychain ❎">
<ellipse fill="#31688e" stroke="black" cx="882.81" cy="-782" rx="81.2" ry="18"/>
<text xml:space="preserve" text-anchor="middle" x="882.81" y="-777.33" font-family="Times,serif" font-size="14.00" fill="white">qtkeychain ❎</text>
</a>
</g>
</g>
<!-- opencv&#45;&gt;qtkeychain -->
<!-- simage -->
<g id="node4" class="node">
<title>simage</title>
<g id="a_node4"><a xlink:href="https://github.com/conda-forge/simage-feedstock" xlink:title="simage">
<ellipse fill="#35b779" stroke="black" cx="882.81" cy="-710" rx="47" ry="18"/>
<text xml:space="preserve" text-anchor="middle" x="882.81" y="-705.33" font-family="Times,serif" font-size="14.00">simage</text>
</a>
</g>
</g>
<!-- qtkeychain&#45;&gt;simage -->
<!-- paraview -->
<g id="node3" class="node">
<title>paraview</title>
<g id="a_node3"><a xlink:href="https://github.com/conda-forge/paraview-feedstock" xlink:title="paraview">
<ellipse fill="#fde725" stroke="black" cx="464.81" cy="-386" rx="57" ry="18"/>
<text xml:space="preserve" text-anchor="middle" x="464.81" y="-381.32" font-family="Times,serif" font-size="14.00">paraview</text>
</a>
</g>
</g>
<!-- ovito -->
<g id="node10" class="node">
<title>ovito</title>
<g id="a_node10"><a xlink:href="https://github.com/conda-forge/ovito-feedstock/pull/133" xlink:title="ovito ❎">
<ellipse fill="#31688e" stroke="black" cx="882.81" cy="-638" rx="51.21" ry="18"/>
<text xml:space="preserve" text-anchor="middle" x="882.81" y="-633.33" font-family="Times,serif" font-size="14.00" fill="white">ovito ❎</text>
</a>
</g>
</g>
<!-- simage&#45;&gt;ovito -->
<!-- vtk -->
<g id="node5" class="node">
<title>vtk</title>
<g id="a_node5"><a xlink:href="https://github.com/conda-forge/vtk-feedstock" xlink:title="vtk">
<ellipse fill="#fde725" stroke="black" cx="215.81" cy="-458" rx="27.01" ry="18"/>
<text xml:space="preserve" text-anchor="middle" x="215.81" y="-453.32" font-family="Times,serif" font-size="14.00">vtk</text>
</a>
</g>
</g>
<!-- vtk&#45;&gt;paraview -->
<g id="edge3" class="edge">
<title>vtk&#45;&gt;paraview</title>
<path fill="none" stroke="black" d="M236.84,-446.22C241.68,-443.98 246.87,-441.76 251.81,-440 302.72,-421.85 362.6,-407.54 405.88,-398.39"/>
<polygon fill="black" stroke="black" points="406.51,-401.84 415.59,-396.37 405.08,-394.98 406.51,-401.84"/>
</g>
<!-- pcl -->
<g id="node6" class="node">
<title>pcl</title>
<g id="a_node6"><a xlink:href="https://github.com/conda-forge/pcl-feedstock" xlink:title="pcl">
<ellipse fill="#fde725" stroke="black" cx="275.81" cy="-386" rx="27" ry="18"/>
<text xml:space="preserve" text-anchor="middle" x="275.81" y="-381.32" font-family="Times,serif" font-size="14.00">pcl</text>
</a>
</g>
</g>
<!-- vtk&#45;&gt;pcl -->
<g id="edge4" class="edge">
<title>vtk&#45;&gt;pcl</title>
<path fill="none" stroke="black" d="M228.83,-441.81C236.62,-432.73 246.68,-421 255.49,-410.72"/>
<polygon fill="black" stroke="black" points="257.99,-413.18 261.84,-403.31 252.67,-408.62 257.99,-413.18"/>
</g>
<!-- freecad -->
<g id="node7" class="node">
<title>freecad</title>
<g id="a_node7"><a xlink:href="https://github.com/conda-forge/freecad-feedstock" xlink:title="freecad">
<ellipse fill="#fde725" stroke="black" cx="132.81" cy="-314" rx="48.58" ry="18"/>
<text xml:space="preserve" text-anchor="middle" x="132.81" y="-309.32" font-family="Times,serif" font-size="14.00">freecad</text>
</a>
</g>
</g>
<!-- vtk&#45;&gt;freecad -->
<g id="edge5" class="edge">
<title>vtk&#45;&gt;freecad</title>
<path fill="none" stroke="black" d="M216.76,-439.67C217,-420.75 214.99,-390.19 201.81,-368 194.08,-354.99 181.83,-344.04 169.79,-335.53"/>
<polygon fill="black" stroke="black" points="171.79,-332.67 161.52,-330.08 167.94,-338.51 171.79,-332.67"/>
</g>
<!-- pycgns -->
<g id="node8" class="node">
<title>pycgns</title>
<g id="a_node8"><a xlink:href="https://github.com/conda-forge/pycgns-feedstock" xlink:title="pycgns">
<ellipse fill="#fde725" stroke="black" cx="146.81" cy="-386" rx="46.47" ry="18"/>
<text xml:space="preserve" text-anchor="middle" x="146.81" y="-381.32" font-family="Times,serif" font-size="14.00">pycgns</text>
</a>
</g>
</g>
<!-- vtk&#45;&gt;pycgns -->
<g id="edge6" class="edge">
<title>vtk&#45;&gt;pycgns</title>
<path fill="none" stroke="black" d="M201.52,-442.5C192.61,-433.46 180.93,-421.61 170.65,-411.18"/>
<polygon fill="black" stroke="black" points="173.36,-408.94 163.84,-404.28 168.37,-413.85 173.36,-408.94"/>
</g>
<!-- open3d -->
<g id="node9" class="node">
<title>open3d</title>
<g id="a_node9"><a xlink:href="https://github.com/conda-forge/open3d-feedstock" xlink:title="open3d">
<ellipse fill="#fde725" stroke="black" cx="330.81" cy="-314" rx="48.05" ry="18"/>
<text xml:space="preserve" text-anchor="middle" x="330.81" y="-309.32" font-family="Times,serif" font-size="14.00">open3d</text>
</a>
</g>
</g>
<!-- vtk&#45;&gt;open3d -->
<g id="edge7" class="edge">
<title>vtk&#45;&gt;open3d</title>
<path fill="none" stroke="black" d="M237.07,-446.45C263.81,-433 306.85,-410.69 311.81,-404 324.63,-386.72 329.19,-362.64 330.65,-343.89"/>
<polygon fill="black" stroke="black" points="334.14,-344.13 331.14,-333.97 327.15,-343.78 334.14,-344.13"/>
</g>
<!-- pcl&#45;&gt;freecad -->
<g id="edge8" class="edge">
<title>pcl&#45;&gt;freecad</title>
<path fill="none" stroke="black" d="M254.41,-374.52C232.53,-363.81 198.09,-346.95 171.44,-333.91"/>
<polygon fill="black" stroke="black" points="173.16,-330.85 162.64,-329.6 170.09,-337.14 173.16,-330.85"/>
</g>
<!-- veusz -->
<g id="node15" class="node">
<title>veusz</title>
<g id="a_node15"><a xlink:href="https://github.com/conda-forge/veusz-feedstock" xlink:title="veusz">
<ellipse fill="#35b779" stroke="black" cx="882.81" cy="-566" rx="39.63" ry="18"/>
<text xml:space="preserve" text-anchor="middle" x="882.81" y="-561.33" font-family="Times,serif" font-size="14.00">veusz</text>
</a>
</g>
</g>
<!-- ovito&#45;&gt;veusz -->
<!-- pivy -->
<g id="node11" class="node">
<title>pivy</title>
<g id="a_node11"><a xlink:href="https://github.com/conda-forge/pivy-feedstock" xlink:title="pivy">
<ellipse fill="#35b779" stroke="black" cx="49.81" cy="-386" rx="32.27" ry="18"/>
<text xml:space="preserve" text-anchor="middle" x="49.81" y="-381.32" font-family="Times,serif" font-size="14.00">pivy</text>
</a>
</g>
</g>
<!-- pivy&#45;&gt;freecad -->
<g id="edge10" class="edge">
<title>pivy&#45;&gt;freecad</title>
<path fill="none" stroke="black" d="M67.01,-370.5C78.02,-361.22 92.54,-348.97 105.14,-338.34"/>
<polygon fill="black" stroke="black" points="107.36,-341.05 112.75,-331.93 102.84,-335.7 107.36,-341.05"/>
</g>
<!-- pyside2 -->
<g id="node12" class="node">
<title>pyside2</title>
<g id="a_node12"><a xlink:href="https://github.com/conda-forge/pyside2-feedstock" xlink:title="pyside2">
<ellipse fill="#fde725" stroke="black" cx="294.81" cy="-530" rx="50.16" ry="18"/>
<text xml:space="preserve" text-anchor="middle" x="294.81" y="-525.33" font-family="Times,serif" font-size="14.00">pyside2</text>
</a>
</g>
</g>
<!-- pyside2&#45;&gt;paraview -->
<g id="edge11" class="edge">
<title>pyside2&#45;&gt;paraview</title>
<path fill="none" stroke="black" d="M341.76,-523.1C394.58,-515.38 475.4,-499.95 493.81,-476 507.98,-457.57 497.26,-431.94 485.04,-412.92"/>
<polygon fill="black" stroke="black" points="488.06,-411.13 479.5,-404.89 482.3,-415.11 488.06,-411.13"/>
</g>
<!-- pyside2&#45;&gt;vtk -->
<g id="edge12" class="edge">
<title>pyside2&#45;&gt;vtk</title>
<path fill="none" stroke="black" d="M276.49,-512.76C265.67,-503.17 251.83,-490.91 240.11,-480.52"/>
<polygon fill="black" stroke="black" points="242.57,-478.03 232.77,-474.02 237.93,-483.27 242.57,-478.03"/>
</g>
<!-- pyside2&#45;&gt;freecad -->
<g id="edge13" class="edge">
<title>pyside2&#45;&gt;freecad</title>
<path fill="none" stroke="black" d="M246.94,-524.27C179.79,-514.74 60.11,-486.48 8.81,-404 0.37,-390.41 0,-381.35 8.81,-368 24.09,-344.85 51.79,-331.78 77.13,-324.41"/>
<polygon fill="black" stroke="black" points="77.94,-327.82 86.72,-321.89 76.16,-321.05 77.94,-327.82"/>
</g>
<!-- pyside2&#45;&gt;pycgns -->
<g id="edge14" class="edge">
<title>pyside2&#45;&gt;pycgns</title>
<path fill="none" stroke="black" d="M254.44,-518.91C229.94,-510.92 199.68,-497.45 179.81,-476 164.33,-459.28 155.94,-434.65 151.51,-415.54"/>
<polygon fill="black" stroke="black" points="154.98,-415.04 149.53,-405.95 148.12,-416.45 154.98,-415.04"/>
</g>
<!-- qtmolecularnetwork -->
<g id="node13" class="node">
<title>qtmolecularnetwork</title>
<g id="a_node13"><a xlink:href="https://github.com/conda-forge/qtmolecularnetwork-feedstock" xlink:title="qtmolecularnetwork">
<ellipse fill="#fde725" stroke="black" cx="372.81" cy="-458" rx="112.24" ry="18"/>
<text xml:space="preserve" text-anchor="middle" x="372.81" y="-453.32" font-family="Times,serif" font-size="14.00">qtmolecularnetwork</text>
</a>
</g>
</g>
<!-- pyside2&#45;&gt;qtmolecularnetwork -->
<g id="edge15" class="edge">
<title>pyside2&#45;&gt;qtmolecularnetwork</title>
<path fill="none" stroke="black" d="M312.91,-512.76C322.56,-504.1 334.65,-493.25 345.44,-483.57"/>
<polygon fill="black" stroke="black" points="347.5,-486.42 352.61,-477.13 342.83,-481.21 347.5,-486.42"/>
</g>
<!-- pyside6qtads -->
<g id="node14" class="node">
<title>pyside6qtads</title>
<g id="a_node14"><a xlink:href="https://github.com/conda-forge/pyside6qtads-feedstock" xlink:title="pyside6qtads">
<ellipse fill="#fde725" stroke="black" cx="618.81" cy="-458" rx="78.04" ry="18"/>
<text xml:space="preserve" text-anchor="middle" x="618.81" y="-453.32" font-family="Times,serif" font-size="14.00">pyside6qtads</text>
</a>
</g>
</g>
<!-- pyside2&#45;&gt;pyside6qtads -->
<g id="edge16" class="edge">
<title>pyside2&#45;&gt;pyside6qtads</title>
<path fill="none" stroke="black" d="M336.84,-519.92C391.55,-508.1 487.79,-487.31 552.42,-473.35"/>
<polygon fill="black" stroke="black" points="552.79,-476.85 561.82,-471.31 551.31,-470 552.79,-476.85"/>
</g>
<!-- codes&#45;ui -->
<g id="node16" class="node">
<title>codes&#45;ui</title>
<g id="a_node16"><a xlink:href="https://github.com/conda-forge/codes-ui-feedstock" xlink:title="codes ui">
<ellipse fill="#35b779" stroke="black" cx="882.81" cy="-494" rx="52.26" ry="18"/>
<text xml:space="preserve" text-anchor="middle" x="882.81" y="-489.32" font-family="Times,serif" font-size="14.00">codes ui</text>
</a>
</g>
</g>
<!-- veusz&#45;&gt;codes&#45;ui -->
<!-- nionui&#45;tool -->
<g id="node17" class="node">
<title>nionui&#45;tool</title>
<g id="a_node17"><a xlink:href="https://github.com/conda-forge/nionui-tool-feedstock" xlink:title="nionui tool">
<ellipse fill="#35b779" stroke="black" cx="882.81" cy="-422" rx="64.36" ry="18"/>
<text xml:space="preserve" text-anchor="middle" x="882.81" y="-417.32" font-family="Times,serif" font-size="14.00">nionui tool</text>
</a>
</g>
</g>
<!-- codes&#45;ui&#45;&gt;nionui&#45;tool -->
<!-- nionswift&#45;tool -->
<g id="node18" class="node">
<title>nionswift&#45;tool</title>
<g id="a_node18"><a xlink:href="https://github.com/conda-forge/nionswift-tool-feedstock" xlink:title="nionswift tool">
<ellipse fill="#35b779" stroke="black" cx="882.81" cy="-350" rx="79.62" ry="18"/>
<text xml:space="preserve" text-anchor="middle" x="882.81" y="-345.32" font-family="Times,serif" font-size="14.00">nionswift tool</text>
</a>
</g>
</g>
<!-- nionui&#45;tool&#45;&gt;nionswift&#45;tool -->
<!-- qdoas -->
<g id="node19" class="node">
<title>qdoas</title>
<g id="a_node19"><a xlink:href="https://github.com/conda-forge/qdoas-feedstock" xlink:title="qdoas">
<ellipse fill="#35b779" stroke="black" cx="882.81" cy="-278" rx="40.69" ry="18"/>
<text xml:space="preserve" text-anchor="middle" x="882.81" y="-273.32" font-family="Times,serif" font-size="14.00">qdoas</text>
</a>
</g>
</g>
<!-- nionswift&#45;tool&#45;&gt;qdoas -->
<!-- qcachegrind -->
<g id="node28" class="node">
<title>qcachegrind</title>
<g id="a_node28"><a xlink:href="https://github.com/conda-forge/qcachegrind-feedstock" xlink:title="qcachegrind">
<ellipse fill="#35b779" stroke="black" cx="882.81" cy="-206" rx="72.78" ry="18"/>
<text xml:space="preserve" text-anchor="middle" x="882.81" y="-201.33" font-family="Times,serif" font-size="14.00">qcachegrind</text>
</a>
</g>
</g>
<!-- qdoas&#45;&gt;qcachegrind -->
<!-- quazip -->
<g id="node20" class="node">
<title>quazip</title>
<g id="a_node20"><a xlink:href="https://github.com/conda-forge/quazip-feedstock/pull/10" xlink:title="quazip ❎">
<ellipse fill="#31688e" stroke="black" cx="396.81" cy="-90" rx="59.63" ry="18"/>
<text xml:space="preserve" text-anchor="middle" x="396.81" y="-85.33" font-family="Times,serif" font-size="14.00" fill="white">quazip ❎</text>
</a>
</g>
</g>
<!-- connectome&#45;workbench&#45;split -->
<g id="node21" class="node">
<title>connectome&#45;workbench&#45;split</title>
<g id="a_node21"><a xlink:href="https://github.com/conda-forge/connectome-workbench-split-feedstock" xlink:title="connectome workbench split">
<ellipse fill="#fde725" stroke="black" cx="396.81" cy="-18" rx="154.33" ry="18"/>
<text xml:space="preserve" text-anchor="middle" x="396.81" y="-13.32" font-family="Times,serif" font-size="14.00">connectome workbench split</text>
</a>
</g>
</g>
<!-- quazip&#45;&gt;connectome&#45;workbench&#45;split -->
<g id="edge22" class="edge">
<title>quazip&#45;&gt;connectome&#45;workbench&#45;split</title>
<path fill="none" stroke="black" d="M396.81,-71.7C396.81,-64.41 396.81,-55.73 396.81,-47.54"/>
<polygon fill="black" stroke="black" points="400.31,-47.62 396.81,-37.62 393.31,-47.62 400.31,-47.62"/>
</g>
<!-- gz&#45;gui -->
<g id="node22" class="node">
<title>gz&#45;gui</title>
<g id="a_node22"><a xlink:href="https://github.com/conda-forge/gz-gui-feedstock/pull/79" xlink:title="gz gui ❎">
<ellipse fill="#31688e" stroke="black" cx="1074.81" cy="-602" rx="57" ry="18"/>
<text xml:space="preserve" text-anchor="middle" x="1074.81" y="-597.33" font-family="Times,serif" font-size="14.00" fill="white">gz gui ❎</text>
</a>
</g>
</g>
<!-- gz&#45;sim -->
<g id="node23" class="node">
<title>gz&#45;sim</title>
<g id="a_node23"><a xlink:href="https://github.com/conda-forge/gz-sim-feedstock" xlink:title="gz sim">
<ellipse fill="#fde725" stroke="black" cx="1110.81" cy="-530" rx="43.84" ry="18"/>
<text xml:space="preserve" text-anchor="middle" x="1110.81" y="-525.33" font-family="Times,serif" font-size="14.00">gz sim</text>
</a>
</g>
</g>
<!-- gz&#45;gui&#45;&gt;gz&#45;sim -->
<g id="edge23" class="edge">
<title>gz&#45;gui&#45;&gt;gz&#45;sim</title>
<path fill="none" stroke="black" d="M1083.53,-584.05C1087.55,-576.23 1092.43,-566.75 1096.94,-557.98"/>
<polygon fill="black" stroke="black" points="1100.03,-559.63 1101.49,-549.13 1093.8,-556.43 1100.03,-559.63"/>
</g>
<!-- gz&#45;launch -->
<g id="node24" class="node">
<title>gz&#45;launch</title>
<g id="a_node24"><a xlink:href="https://github.com/conda-forge/gz-launch-feedstock" xlink:title="gz launch">
<ellipse fill="#fde725" stroke="black" cx="1038.81" cy="-458" rx="59.1" ry="18"/>
<text xml:space="preserve" text-anchor="middle" x="1038.81" y="-453.32" font-family="Times,serif" font-size="14.00">gz launch</text>
</a>
</g>
</g>
<!-- gz&#45;gui&#45;&gt;gz&#45;launch -->
<g id="edge24" class="edge">
<title>gz&#45;gui&#45;&gt;gz&#45;launch</title>
<path fill="none" stroke="black" d="M1068.86,-583.94C1065.38,-573.62 1061.05,-560.14 1057.81,-548 1052.46,-527.9 1047.59,-504.95 1044.12,-487.38"/>
<polygon fill="black" stroke="black" points="1047.58,-486.82 1042.24,-477.67 1040.7,-488.15 1047.58,-486.82"/>
</g>
<!-- gz&#45;sim&#45;&gt;gz&#45;launch -->
<g id="edge25" class="edge">
<title>gz&#45;sim&#45;&gt;gz&#45;launch</title>
<path fill="none" stroke="black" d="M1094.48,-513.12C1085.47,-504.36 1074.08,-493.29 1063.96,-483.45"/>
<polygon fill="black" stroke="black" points="1066.53,-481.07 1056.92,-476.61 1061.65,-486.09 1066.53,-481.07"/>
</g>
<!-- gz&#45;sim&#45;yarp&#45;plugins -->
<g id="node25" class="node">
<title>gz&#45;sim&#45;yarp&#45;plugins</title>
<g id="a_node25"><a xlink:href="https://github.com/conda-forge/gz-sim-yarp-plugins-feedstock" xlink:title="gz sim yarp plugins">
<ellipse fill="#fde725" stroke="black" cx="1081.81" cy="-386" rx="109.61" ry="18"/>
<text xml:space="preserve" text-anchor="middle" x="1081.81" y="-381.32" font-family="Times,serif" font-size="14.00">gz sim yarp plugins</text>
</a>
</g>
</g>
<!-- gz&#45;sim&#45;&gt;gz&#45;sim&#45;yarp&#45;plugins -->
<g id="edge26" class="edge">
<title>gz&#45;sim&#45;&gt;gz&#45;sim&#45;yarp&#45;plugins</title>
<path fill="none" stroke="black" d="M1112.03,-511.65C1112.84,-493.5 1112.84,-464.32 1106.81,-440 1104.64,-431.21 1100.95,-422.13 1097.07,-414.02"/>
<polygon fill="black" stroke="black" points="1100.32,-412.68 1092.65,-405.37 1094.09,-415.87 1100.32,-412.68"/>
</g>
<!-- gz&#45;launch&#45;&gt;gz&#45;sim&#45;yarp&#45;plugins -->
<g id="edge27" class="edge">
<title>gz&#45;launch&#45;&gt;gz&#45;sim&#45;yarp&#45;plugins</title>
<path fill="none" stroke="black" d="M1049.22,-440.05C1054.01,-432.26 1059.81,-422.82 1065.18,-414.08"/>
<polygon fill="black" stroke="black" points="1068.16,-415.92 1070.41,-405.56 1062.19,-412.25 1068.16,-415.92"/>
</g>
<!-- qt6&#45;advanced&#45;docking&#45;system -->
<g id="node26" class="node">
<title>qt6&#45;advanced&#45;docking&#45;system</title>
<g id="a_node26"><a xlink:href="https://github.com/conda-forge/qt6-advanced-docking-system-feedstock/pull/27" xlink:title="qt6 advanced docking system ❎">
<ellipse fill="#31688e" stroke="black" cx="618.81" cy="-530" rx="174.84" ry="18"/>
<text xml:space="preserve" text-anchor="middle" x="618.81" y="-525.33" font-family="Times,serif" font-size="14.00" fill="white">qt6 advanced docking system ❎</text>
</a>
</g>
</g>
<!-- qt6&#45;advanced&#45;docking&#45;system&#45;&gt;pyside6qtads -->
<g id="edge28" class="edge">
<title>qt6&#45;advanced&#45;docking&#45;system&#45;&gt;pyside6qtads</title>
<path fill="none" stroke="black" d="M618.81,-511.7C618.81,-504.41 618.81,-495.73 618.81,-487.54"/>
<polygon fill="black" stroke="black" points="622.31,-487.62 618.81,-477.62 615.31,-487.62 622.31,-487.62"/>
</g>
<!-- qt&#45;wayland -->
<g id="node27" class="node">
<title>qt&#45;wayland</title>
<g id="a_node27"><a xlink:href="https://github.com/conda-forge/qt-wayland-feedstock" xlink:title="qt wayland">
<ellipse fill="#35b779" stroke="black" cx="341.81" cy="-602" rx="66.47" ry="18"/>
<text xml:space="preserve" text-anchor="middle" x="341.81" y="-597.33" font-family="Times,serif" font-size="14.00">qt wayland</text>
</a>
</g>
</g>
<!-- qt&#45;wayland&#45;&gt;pyside2 -->
<g id="edge29" class="edge">
<title>qt&#45;wayland&#45;&gt;pyside2</title>
<path fill="none" stroke="black" d="M330.44,-584.05C325.01,-575.97 318.4,-566.12 312.35,-557.11"/>
<polygon fill="black" stroke="black" points="315.41,-555.4 306.93,-549.05 309.6,-559.3 315.41,-555.4"/>
</g>
<!-- libcamera -->
<g id="node30" class="node">
<title>libcamera</title>
<g id="a_node30"><a xlink:href="https://github.com/conda-forge/libcamera-feedstock/pull/22" xlink:title="libcamera ❎">
<ellipse fill="#31688e" stroke="black" cx="882.81" cy="-134" rx="75.94" ry="18"/>
<text xml:space="preserve" text-anchor="middle" x="882.81" y="-129.32" font-family="Times,serif" font-size="14.00" fill="white">libcamera ❎</text>
</a>
</g>
</g>
<!-- qcachegrind&#45;&gt;libcamera -->
<!-- qt&#45;graphs -->
<g id="node29" class="node">
<title>qt&#45;graphs</title>
<g id="a_node29"><a xlink:href="https://github.com/conda-forge/qt-graphs-feedstock/pull/46" xlink:title="qt graphs ❎">
<ellipse fill="#31688e" stroke="black" cx="247.81" cy="-674" rx="74.88" ry="18"/>
<text xml:space="preserve" text-anchor="middle" x="247.81" y="-669.33" font-family="Times,serif" font-size="14.00" fill="white">qt graphs ❎</text>
</a>
</g>
</g>
<!-- qt&#45;graphs&#45;&gt;pyside2 -->
<g id="edge31" class="edge">
<title>qt&#45;graphs&#45;&gt;pyside2</title>
<path fill="none" stroke="black" d="M250.09,-655.55C252.79,-637.31 258.08,-608.06 266.81,-584 270.06,-575.06 274.56,-565.75 279,-557.47"/>
<polygon fill="black" stroke="black" points="281.93,-559.39 283.76,-548.96 275.82,-555.98 281.93,-559.39"/>
</g>
</g>
</svg>
