<?xml version="1.0" encoding="UTF-8" standalone="no"?>
<!DOCTYPE svg PUBLIC "-//W3C//DTD SVG 1.1//EN"
 "http://www.w3.org/Graphics/SVG/1.1/DTD/svg11.dtd">
<!-- Generated by graphviz version 13.1.2 (20250809.0930)
 -->
<!-- Pages: 1 -->
<svg width="1278pt" height="736pt"
 viewBox="0.00 0.00 1278.00 736.00" xmlns="http://www.w3.org/2000/svg" xmlns:xlink="http://www.w3.org/1999/xlink">
<g id="graph0" class="graph" transform="scale(1 1) rotate(0) translate(4 732)">
<polygon fill="white" stroke="none" points="-4,4 -4,-732 1274.19,-732 1274.19,4 -4,4"/>
<!-- opencv -->
<g id="node1" class="node">
<title>opencv</title>
<g id="a_node1"><a xlink:href="https://github.com/conda-forge/opencv-feedstock/pull/501" xlink:title="opencv ❎">
<ellipse fill="#31688e" stroke="black" cx="923.59" cy="-710" rx="61.73" ry="18"/>
<text xml:space="preserve" text-anchor="middle" x="923.59" y="-705.33" font-family="Times,serif" font-size="14.00" fill="white">opencv ❎</text>
</a>
</g>
</g>
<!-- simage -->
<g id="node2" class="node">
<title>simage</title>
<g id="a_node2"><a xlink:href="https://github.com/conda-forge/simage-feedstock" xlink:title="simage">
<ellipse fill="#35b779" stroke="black" cx="923.59" cy="-638" rx="47" ry="18"/>
<text xml:space="preserve" text-anchor="middle" x="923.59" y="-633.33" font-family="Times,serif" font-size="14.00">simage</text>
</a>
</g>
</g>
<!-- opencv&#45;&gt;simage -->
<!-- ovito -->
<g id="node8" class="node">
<title>ovito</title>
<g id="a_node8"><a xlink:href="https://github.com/conda-forge/ovito-feedstock" xlink:title="ovito">
<ellipse fill="#35b779" stroke="black" cx="923.59" cy="-566" rx="35.95" ry="18"/>
<text xml:space="preserve" text-anchor="middle" x="923.59" y="-561.33" font-family="Times,serif" font-size="14.00">ovito</text>
</a>
</g>
</g>
<!-- simage&#45;&gt;ovito -->
<!-- vtk -->
<g id="node3" class="node">
<title>vtk</title>
<g id="a_node3"><a xlink:href="https://github.com/conda-forge/vtk-feedstock" xlink:title="vtk">
<ellipse fill="#fde725" stroke="black" cx="676.59" cy="-458" rx="27.01" ry="18"/>
<text xml:space="preserve" text-anchor="middle" x="676.59" y="-453.32" font-family="Times,serif" font-size="14.00">vtk</text>
</a>
</g>
</g>
<!-- pcl -->
<g id="node4" class="node">
<title>pcl</title>
<g id="a_node4"><a xlink:href="https://github.com/conda-forge/pcl-feedstock" xlink:title="pcl">
<ellipse fill="#fde725" stroke="black" cx="621.59" cy="-386" rx="27" ry="18"/>
<text xml:space="preserve" text-anchor="middle" x="621.59" y="-381.32" font-family="Times,serif" font-size="14.00">pcl</text>
</a>
</g>
</g>
<!-- vtk&#45;&gt;pcl -->
<g id="edge2" class="edge">
<title>vtk&#45;&gt;pcl</title>
<path fill="none" stroke="black" d="M664.38,-441.46C657.47,-432.67 648.68,-421.48 640.86,-411.53"/>
<polygon fill="black" stroke="black" points="643.63,-409.38 634.7,-403.68 638.12,-413.71 643.63,-409.38"/>
</g>
<!-- freecad -->
<g id="node5" class="node">
<title>freecad</title>
<g id="a_node5"><a xlink:href="https://github.com/conda-forge/freecad-feedstock" xlink:title="freecad">
<ellipse fill="#fde725" stroke="black" cx="534.59" cy="-314" rx="48.58" ry="18"/>
<text xml:space="preserve" text-anchor="middle" x="534.59" y="-309.32" font-family="Times,serif" font-size="14.00">freecad</text>
</a>
</g>
</g>
<!-- vtk&#45;&gt;freecad -->
<g id="edge3" class="edge">
<title>vtk&#45;&gt;freecad</title>
<path fill="none" stroke="black" d="M655.56,-446.38C632.22,-434.32 596.41,-414.9 585.59,-404 568.07,-386.36 554.49,-361.49 545.77,-342.53"/>
<polygon fill="black" stroke="black" points="549.04,-341.27 541.81,-333.52 542.63,-344.09 549.04,-341.27"/>
</g>
<!-- pycgns -->
<g id="node6" class="node">
<title>pycgns</title>
<g id="a_node6"><a xlink:href="https://github.com/conda-forge/pycgns-feedstock" xlink:title="pycgns">
<ellipse fill="#fde725" stroke="black" cx="750.59" cy="-386" rx="46.47" ry="18"/>
<text xml:space="preserve" text-anchor="middle" x="750.59" y="-381.32" font-family="Times,serif" font-size="14.00">pycgns</text>
</a>
</g>
</g>
<!-- vtk&#45;&gt;pycgns -->
<g id="edge4" class="edge">
<title>vtk&#45;&gt;pycgns</title>
<path fill="none" stroke="black" d="M691.56,-442.83C701.26,-433.67 714.12,-421.5 725.36,-410.86"/>
<polygon fill="black" stroke="black" points="727.61,-413.56 732.46,-404.14 722.8,-408.47 727.61,-413.56"/>
</g>
<!-- open3d -->
<g id="node7" class="node">
<title>open3d</title>
<g id="a_node7"><a xlink:href="https://github.com/conda-forge/open3d-feedstock" xlink:title="open3d">
<ellipse fill="#fde725" stroke="black" cx="676.59" cy="-314" rx="48.05" ry="18"/>
<text xml:space="preserve" text-anchor="middle" x="676.59" y="-309.32" font-family="Times,serif" font-size="14.00">open3d</text>
</a>
</g>
</g>
<!-- vtk&#45;&gt;open3d -->
<g id="edge5" class="edge">
<title>vtk&#45;&gt;open3d</title>
<path fill="none" stroke="black" d="M676.59,-439.59C676.59,-415.61 676.59,-372.14 676.59,-343.42"/>
<polygon fill="black" stroke="black" points="680.09,-343.62 676.59,-333.62 673.09,-343.62 680.09,-343.62"/>
</g>
<!-- pcl&#45;&gt;freecad -->
<g id="edge6" class="edge">
<title>pcl&#45;&gt;freecad</title>
<path fill="none" stroke="black" d="M604.81,-371.5C592.99,-361.99 576.86,-349.01 563.04,-337.89"/>
<polygon fill="black" stroke="black" points="565.52,-335.4 555.54,-331.85 561.13,-340.85 565.52,-335.4"/>
</g>
<!-- nionui&#45;tool -->
<g id="node13" class="node">
<title>nionui&#45;tool</title>
<g id="a_node13"><a xlink:href="https://github.com/conda-forge/nionui-tool-feedstock" xlink:title="nionui tool">
<ellipse fill="#35b779" stroke="black" cx="923.59" cy="-494" rx="64.36" ry="18"/>
<text xml:space="preserve" text-anchor="middle" x="923.59" y="-489.32" font-family="Times,serif" font-size="14.00">nionui tool</text>
</a>
</g>
</g>
<!-- ovito&#45;&gt;nionui&#45;tool -->
<!-- pivy -->
<g id="node9" class="node">
<title>pivy</title>
<g id="a_node9"><a xlink:href="https://github.com/conda-forge/pivy-feedstock" xlink:title="pivy">
<ellipse fill="#fde725" stroke="black" cx="506.59" cy="-386" rx="32.27" ry="18"/>
<text xml:space="preserve" text-anchor="middle" x="506.59" y="-381.32" font-family="Times,serif" font-size="14.00">pivy</text>
</a>
</g>
</g>
<!-- pivy&#45;&gt;freecad -->
<g id="edge8" class="edge">
<title>pivy&#45;&gt;freecad</title>
<path fill="none" stroke="black" d="M513.37,-368.05C516.38,-360.52 520.01,-351.44 523.41,-342.94"/>
<polygon fill="black" stroke="black" points="526.65,-344.27 527.12,-333.68 520.15,-341.67 526.65,-344.27"/>
</g>
<!-- pyside2 -->
<g id="node10" class="node">
<title>pyside2</title>
<g id="a_node10"><a xlink:href="https://github.com/conda-forge/pyside2-feedstock" xlink:title="pyside2">
<ellipse fill="#35b779" stroke="black" cx="405.59" cy="-530" rx="50.16" ry="18"/>
<text xml:space="preserve" text-anchor="middle" x="405.59" y="-525.33" font-family="Times,serif" font-size="14.00">pyside2</text>
</a>
</g>
</g>
<!-- pyside2&#45;&gt;vtk -->
<g id="edge9" class="edge">
<title>pyside2&#45;&gt;vtk</title>
<path fill="none" stroke="black" d="M450.57,-521.88C498.48,-513.61 576.13,-498.19 640.59,-476 642.14,-475.47 643.71,-474.88 645.29,-474.27"/>
<polygon fill="black" stroke="black" points="646.38,-477.61 654.2,-470.45 643.63,-471.17 646.38,-477.61"/>
</g>
<!-- pyside2&#45;&gt;freecad -->
<g id="edge10" class="edge">
<title>pyside2&#45;&gt;freecad</title>
<path fill="none" stroke="black" d="M360.49,-521.81C333.53,-514.94 301.34,-501.63 284.59,-476 275.83,-462.61 276.18,-453.61 284.59,-440 327.13,-371.17 420.32,-338.97 480.13,-324.89"/>
<polygon fill="black" stroke="black" points="480.79,-328.33 489.78,-322.72 479.26,-321.5 480.79,-328.33"/>
</g>
<!-- pyside2&#45;&gt;pycgns -->
<g id="edge11" class="edge">
<title>pyside2&#45;&gt;pycgns</title>
<path fill="none" stroke="black" d="M454.9,-526.15C531.27,-520.82 673.45,-506.95 712.59,-476 731.32,-461.19 740.96,-435.4 745.84,-415.38"/>
<polygon fill="black" stroke="black" points="749.2,-416.38 747.87,-405.87 742.36,-414.91 749.2,-416.38"/>
</g>
<!-- qtmolecularnetwork -->
<g id="node11" class="node">
<title>qtmolecularnetwork</title>
<g id="a_node11"><a xlink:href="https://github.com/conda-forge/qtmolecularnetwork-feedstock" xlink:title="qtmolecularnetwork">
<ellipse fill="#fde725" stroke="black" cx="405.59" cy="-458" rx="112.24" ry="18"/>
<text xml:space="preserve" text-anchor="middle" x="405.59" y="-453.32" font-family="Times,serif" font-size="14.00">qtmolecularnetwork</text>
</a>
</g>
</g>
<!-- pyside2&#45;&gt;qtmolecularnetwork -->
<g id="edge12" class="edge">
<title>pyside2&#45;&gt;qtmolecularnetwork</title>
<path fill="none" stroke="black" d="M405.59,-511.7C405.59,-504.41 405.59,-495.73 405.59,-487.54"/>
<polygon fill="black" stroke="black" points="409.09,-487.62 405.59,-477.62 402.09,-487.62 409.09,-487.62"/>
</g>
<!-- pyside6qtads -->
<g id="node12" class="node">
<title>pyside6qtads</title>
<g id="a_node12"><a xlink:href="https://github.com/conda-forge/pyside6qtads-feedstock" xlink:title="pyside6qtads">
<ellipse fill="#fde725" stroke="black" cx="159.59" cy="-458" rx="78.04" ry="18"/>
<text xml:space="preserve" text-anchor="middle" x="159.59" y="-453.32" font-family="Times,serif" font-size="14.00">pyside6qtads</text>
</a>
</g>
</g>
<!-- pyside2&#45;&gt;pyside6qtads -->
<g id="edge13" class="edge">
<title>pyside2&#45;&gt;pyside6qtads</title>
<path fill="none" stroke="black" d="M367.15,-518.06C327.33,-506.73 264.58,-488.88 218.49,-475.76"/>
<polygon fill="black" stroke="black" points="219.49,-472.41 208.91,-473.04 217.57,-479.14 219.49,-472.41"/>
</g>
<!-- nionswift&#45;tool -->
<g id="node15" class="node">
<title>nionswift&#45;tool</title>
<g id="a_node15"><a xlink:href="https://github.com/conda-forge/nionswift-tool-feedstock" xlink:title="nionswift tool">
<ellipse fill="#35b779" stroke="black" cx="923.59" cy="-422" rx="79.62" ry="18"/>
<text xml:space="preserve" text-anchor="middle" x="923.59" y="-417.32" font-family="Times,serif" font-size="14.00">nionswift tool</text>
</a>
</g>
</g>
<!-- nionui&#45;tool&#45;&gt;nionswift&#45;tool -->
<!-- soqt -->
<g id="node14" class="node">
<title>soqt</title>
<g id="a_node14"><a xlink:href="https://github.com/conda-forge/soqt-feedstock/pull/28" xlink:title="soqt ❎">
<ellipse fill="#31688e" stroke="black" cx="583.59" cy="-458" rx="48.05" ry="18"/>
<text xml:space="preserve" text-anchor="middle" x="583.59" y="-453.32" font-family="Times,serif" font-size="14.00" fill="white">soqt ❎</text>
</a>
</g>
</g>
<!-- soqt&#45;&gt;pivy -->
<g id="edge15" class="edge">
<title>soqt&#45;&gt;pivy</title>
<path fill="none" stroke="black" d="M566.12,-441.12C555.79,-431.73 542.56,-419.7 531.19,-409.36"/>
<polygon fill="black" stroke="black" points="533.81,-407.02 524.06,-402.88 529.1,-412.2 533.81,-407.02"/>
</g>
<!-- qt&#45;gtk&#45;platformtheme -->
<g id="node16" class="node">
<title>qt&#45;gtk&#45;platformtheme</title>
<g id="a_node16"><a xlink:href="https://github.com/conda-forge/qt-gtk-platformtheme-feedstock" xlink:title="qt gtk platformtheme">
<ellipse fill="#35b779" stroke="black" cx="923.59" cy="-350" rx="119.08" ry="18"/>
<text xml:space="preserve" text-anchor="middle" x="923.59" y="-345.32" font-family="Times,serif" font-size="14.00">qt gtk platformtheme</text>
</a>
</g>
</g>
<!-- nionswift&#45;tool&#45;&gt;qt&#45;gtk&#45;platformtheme -->
<!-- qcachegrind -->
<g id="node24" class="node">
<title>qcachegrind</title>
<g id="a_node24"><a xlink:href="https://github.com/conda-forge/qcachegrind-feedstock" xlink:title="qcachegrind">
<ellipse fill="#35b779" stroke="black" cx="923.59" cy="-278" rx="72.78" ry="18"/>
<text xml:space="preserve" text-anchor="middle" x="923.59" y="-273.32" font-family="Times,serif" font-size="14.00">qcachegrind</text>
</a>
</g>
</g>
<!-- qt&#45;gtk&#45;platformtheme&#45;&gt;qcachegrind -->
<!-- quazip -->
<g id="node17" class="node">
<title>quazip</title>
<g id="a_node17"><a xlink:href="https://github.com/conda-forge/quazip-feedstock" xlink:title="quazip">
<ellipse fill="#35b779" stroke="black" cx="398.59" cy="-90" rx="44.37" ry="18"/>
<text xml:space="preserve" text-anchor="middle" x="398.59" y="-85.33" font-family="Times,serif" font-size="14.00">quazip</text>
</a>
</g>
</g>
<!-- connectome&#45;workbench&#45;split -->
<g id="node18" class="node">
<title>connectome&#45;workbench&#45;split</title>
<g id="a_node18"><a xlink:href="https://github.com/conda-forge/connectome-workbench-split-feedstock" xlink:title="connectome workbench split">
<ellipse fill="#fde725" stroke="black" cx="398.59" cy="-18" rx="154.33" ry="18"/>
<text xml:space="preserve" text-anchor="middle" x="398.59" y="-13.32" font-family="Times,serif" font-size="14.00">connectome workbench split</text>
</a>
</g>
</g>
<!-- quazip&#45;&gt;connectome&#45;workbench&#45;split -->
<g id="edge18" class="edge">
<title>quazip&#45;&gt;connectome&#45;workbench&#45;split</title>
<path fill="none" stroke="black" d="M398.59,-71.7C398.59,-64.41 398.59,-55.73 398.59,-47.54"/>
<polygon fill="black" stroke="black" points="402.09,-47.62 398.59,-37.62 395.09,-47.62 402.09,-47.62"/>
</g>
<!-- gz&#45;gui -->
<g id="node19" class="node">
<title>gz&#45;gui</title>
<g id="a_node19"><a xlink:href="https://github.com/conda-forge/gz-gui-feedstock" xlink:title="gz gui">
<ellipse fill="#35b779" stroke="black" cx="1153.59" cy="-530" rx="41.74" ry="18"/>
<text xml:space="preserve" text-anchor="middle" x="1153.59" y="-525.33" font-family="Times,serif" font-size="14.00">gz gui</text>
</a>
</g>
</g>
<!-- gz&#45;sim -->
<g id="node20" class="node">
<title>gz&#45;sim</title>
<g id="a_node20"><a xlink:href="https://github.com/conda-forge/gz-sim-feedstock" xlink:title="gz sim">
<ellipse fill="#fde725" stroke="black" cx="1189.59" cy="-458" rx="43.84" ry="18"/>
<text xml:space="preserve" text-anchor="middle" x="1189.59" y="-453.32" font-family="Times,serif" font-size="14.00">gz sim</text>
</a>
</g>
</g>
<!-- gz&#45;gui&#45;&gt;gz&#45;sim -->
<g id="edge19" class="edge">
<title>gz&#45;gui&#45;&gt;gz&#45;sim</title>
<path fill="none" stroke="black" d="M1162.3,-512.05C1166.33,-504.23 1171.2,-494.75 1175.71,-485.98"/>
<polygon fill="black" stroke="black" points="1178.8,-487.63 1180.26,-477.13 1172.58,-484.43 1178.8,-487.63"/>
</g>
<!-- gz&#45;launch -->
<g id="node21" class="node">
<title>gz&#45;launch</title>
<g id="a_node21"><a xlink:href="https://github.com/conda-forge/gz-launch-feedstock" xlink:title="gz launch">
<ellipse fill="#fde725" stroke="black" cx="1117.59" cy="-386" rx="59.1" ry="18"/>
<text xml:space="preserve" text-anchor="middle" x="1117.59" y="-381.32" font-family="Times,serif" font-size="14.00">gz launch</text>
</a>
</g>
</g>
<!-- gz&#45;gui&#45;&gt;gz&#45;launch -->
<g id="edge20" class="edge">
<title>gz&#45;gui&#45;&gt;gz&#45;launch</title>
<path fill="none" stroke="black" d="M1147.64,-511.94C1144.16,-501.62 1139.82,-488.14 1136.59,-476 1131.23,-455.9 1126.36,-432.95 1122.89,-415.38"/>
<polygon fill="black" stroke="black" points="1126.35,-414.82 1121.01,-405.67 1119.48,-416.15 1126.35,-414.82"/>
</g>
<!-- gz&#45;sim&#45;&gt;gz&#45;launch -->
<g id="edge21" class="edge">
<title>gz&#45;sim&#45;&gt;gz&#45;launch</title>
<path fill="none" stroke="black" d="M1173.25,-441.12C1164.24,-432.36 1152.86,-421.29 1142.74,-411.45"/>
<polygon fill="black" stroke="black" points="1145.31,-409.07 1135.7,-404.61 1140.43,-414.09 1145.31,-409.07"/>
</g>
<!-- gz&#45;sim&#45;yarp&#45;plugins -->
<g id="node22" class="node">
<title>gz&#45;sim&#45;yarp&#45;plugins</title>
<g id="a_node22"><a xlink:href="https://github.com/conda-forge/gz-sim-yarp-plugins-feedstock" xlink:title="gz sim yarp plugins">
<ellipse fill="#fde725" stroke="black" cx="1160.59" cy="-314" rx="109.61" ry="18"/>
<text xml:space="preserve" text-anchor="middle" x="1160.59" y="-309.32" font-family="Times,serif" font-size="14.00">gz sim yarp plugins</text>
</a>
</g>
</g>
<!-- gz&#45;sim&#45;&gt;gz&#45;sim&#45;yarp&#45;plugins -->
<g id="edge22" class="edge">
<title>gz&#45;sim&#45;&gt;gz&#45;sim&#45;yarp&#45;plugins</title>
<path fill="none" stroke="black" d="M1190.8,-439.65C1191.61,-421.5 1191.61,-392.32 1185.59,-368 1183.41,-359.21 1179.73,-350.13 1175.84,-342.02"/>
<polygon fill="black" stroke="black" points="1179.09,-340.68 1171.43,-333.37 1172.86,-343.87 1179.09,-340.68"/>
</g>
<!-- gz&#45;launch&#45;&gt;gz&#45;sim&#45;yarp&#45;plugins -->
<g id="edge23" class="edge">
<title>gz&#45;launch&#45;&gt;gz&#45;sim&#45;yarp&#45;plugins</title>
<path fill="none" stroke="black" d="M1128,-368.05C1132.78,-360.26 1138.58,-350.82 1143.95,-342.08"/>
<polygon fill="black" stroke="black" points="1146.93,-343.92 1149.18,-333.56 1140.97,-340.25 1146.93,-343.92"/>
</g>
<!-- qt6&#45;advanced&#45;docking&#45;system -->
<g id="node23" class="node">
<title>qt6&#45;advanced&#45;docking&#45;system</title>
<g id="a_node23"><a xlink:href="https://github.com/conda-forge/qt6-advanced-docking-system-feedstock" xlink:title="qt6 advanced docking system">
<ellipse fill="#35b779" stroke="black" cx="159.59" cy="-530" rx="159.59" ry="18"/>
<text xml:space="preserve" text-anchor="middle" x="159.59" y="-525.33" font-family="Times,serif" font-size="14.00">qt6 advanced docking system</text>
</a>
</g>
</g>
<!-- qt6&#45;advanced&#45;docking&#45;system&#45;&gt;pyside6qtads -->
<g id="edge24" class="edge">
<title>qt6&#45;advanced&#45;docking&#45;system&#45;&gt;pyside6qtads</title>
<path fill="none" stroke="black" d="M159.59,-511.7C159.59,-504.41 159.59,-495.73 159.59,-487.54"/>
<polygon fill="black" stroke="black" points="163.09,-487.62 159.59,-477.62 156.09,-487.62 163.09,-487.62"/>
</g>
<!-- qt&#45;networkauth -->
<g id="node25" class="node">
<title>qt&#45;networkauth</title>
<g id="a_node25"><a xlink:href="https://github.com/conda-forge/qt-networkauth-feedstock" xlink:title="qt networkauth">
<ellipse fill="#35b779" stroke="black" cx="923.59" cy="-206" rx="88.56" ry="18"/>
<text xml:space="preserve" text-anchor="middle" x="923.59" y="-201.33" font-family="Times,serif" font-size="14.00">qt networkauth</text>
</a>
</g>
</g>
<!-- qcachegrind&#45;&gt;qt&#45;networkauth -->
<!-- libcamera -->
<g id="node26" class="node">
<title>libcamera</title>
<g id="a_node26"><a xlink:href="https://github.com/conda-forge/libcamera-feedstock" xlink:title="libcamera">
<ellipse fill="#35b779" stroke="black" cx="923.59" cy="-134" rx="60.68" ry="18"/>
<text xml:space="preserve" text-anchor="middle" x="923.59" y="-129.32" font-family="Times,serif" font-size="14.00">libcamera</text>
</a>
</g>
</g>
<!-- qt&#45;networkauth&#45;&gt;libcamera -->
</g>
</svg>
