<?xml version="1.0" encoding="UTF-8" standalone="no"?>
<!DOCTYPE svg PUBLIC "-//W3C//DTD SVG 1.1//EN"
 "http://www.w3.org/Graphics/SVG/1.1/DTD/svg11.dtd">
<!-- Generated by graphviz version 13.1.2 (20250809.0930)
 -->
<!-- Pages: 1 -->
<svg width="1368pt" height="808pt"
 viewBox="0.00 0.00 1368.00 808.00" xmlns="http://www.w3.org/2000/svg" xmlns:xlink="http://www.w3.org/1999/xlink">
<g id="graph0" class="graph" transform="scale(1 1) rotate(0) translate(4 804)">
<polygon fill="white" stroke="none" points="-4,4 -4,-804 1364.22,-804 1364.22,4 -4,4"/>
<!-- opencv -->
<g id="node1" class="node">
<title>opencv</title>
<g id="a_node1"><a xlink:href="https://github.com/conda-forge/opencv-feedstock" xlink:title="opencv">
<ellipse fill="#35b779" stroke="black" cx="1013.61" cy="-782" rx="46.47" ry="18"/>
<text xml:space="preserve" text-anchor="middle" x="1013.61" y="-777.33" font-family="Times,serif" font-size="14.00">opencv</text>
</a>
</g>
</g>
<!-- qtkeychain -->
<g id="node2" class="node">
<title>qtkeychain</title>
<g id="a_node2"><a xlink:href="https://github.com/conda-forge/qtkeychain-feedstock" xlink:title="qtkeychain">
<ellipse fill="#35b779" stroke="black" cx="1013.61" cy="-710" rx="65.94" ry="18"/>
<text xml:space="preserve" text-anchor="middle" x="1013.61" y="-705.33" font-family="Times,serif" font-size="14.00">qtkeychain</text>
</a>
</g>
</g>
<!-- opencv&#45;&gt;qtkeychain -->
<!-- simage -->
<g id="node6" class="node">
<title>simage</title>
<g id="a_node6"><a xlink:href="https://github.com/conda-forge/simage-feedstock" xlink:title="simage">
<ellipse fill="#35b779" stroke="black" cx="1013.61" cy="-638" rx="47" ry="18"/>
<text xml:space="preserve" text-anchor="middle" x="1013.61" y="-633.33" font-family="Times,serif" font-size="14.00">simage</text>
</a>
</g>
</g>
<!-- qtkeychain&#45;&gt;simage -->
<!-- paraview -->
<g id="node3" class="node">
<title>paraview</title>
<g id="a_node3"><a xlink:href="https://github.com/conda-forge/paraview-feedstock" xlink:title="paraview">
<ellipse fill="#fde725" stroke="black" cx="323.61" cy="-278" rx="57" ry="18"/>
<text xml:space="preserve" text-anchor="middle" x="323.61" y="-273.32" font-family="Times,serif" font-size="14.00">paraview</text>
</a>
</g>
</g>
<!-- pyqt -->
<g id="node4" class="node">
<title>pyqt</title>
<g id="a_node4"><a xlink:href="https://github.com/conda-forge/pyqt-feedstock" xlink:title="pyqt">
<ellipse fill="#fde725" stroke="black" cx="847.61" cy="-422" rx="33.85" ry="18"/>
<text xml:space="preserve" text-anchor="middle" x="847.61" y="-417.32" font-family="Times,serif" font-size="14.00">pyqt</text>
</a>
</g>
</g>
<!-- veusz -->
<g id="node5" class="node">
<title>veusz</title>
<g id="a_node5"><a xlink:href="https://github.com/conda-forge/veusz-feedstock" xlink:title="veusz">
<ellipse fill="#fde725" stroke="black" cx="847.61" cy="-350" rx="39.63" ry="18"/>
<text xml:space="preserve" text-anchor="middle" x="847.61" y="-345.32" font-family="Times,serif" font-size="14.00">veusz</text>
</a>
</g>
</g>
<!-- pyqt&#45;&gt;veusz -->
<g id="edge2" class="edge">
<title>pyqt&#45;&gt;veusz</title>
<path fill="none" stroke="black" d="M847.61,-403.7C847.61,-396.41 847.61,-387.73 847.61,-379.54"/>
<polygon fill="black" stroke="black" points="851.11,-379.62 847.61,-369.62 844.11,-379.62 851.11,-379.62"/>
</g>
<!-- ovito -->
<g id="node14" class="node">
<title>ovito</title>
<g id="a_node14"><a xlink:href="https://github.com/conda-forge/ovito-feedstock" xlink:title="ovito">
<ellipse fill="#35b779" stroke="black" cx="1013.61" cy="-566" rx="35.95" ry="18"/>
<text xml:space="preserve" text-anchor="middle" x="1013.61" y="-561.33" font-family="Times,serif" font-size="14.00">ovito</text>
</a>
</g>
</g>
<!-- simage&#45;&gt;ovito -->
<!-- vtk -->
<g id="node7" class="node">
<title>vtk</title>
<g id="a_node7"><a xlink:href="https://github.com/conda-forge/vtk-feedstock" xlink:title="vtk">
<ellipse fill="#fde725" stroke="black" cx="463.61" cy="-350" rx="27.01" ry="18"/>
<text xml:space="preserve" text-anchor="middle" x="463.61" y="-345.32" font-family="Times,serif" font-size="14.00">vtk</text>
</a>
</g>
</g>
<!-- vtk&#45;&gt;paraview -->
<g id="edge4" class="edge">
<title>vtk&#45;&gt;paraview</title>
<path fill="none" stroke="black" d="M442.35,-338.37C421.44,-327.91 389.02,-311.7 363.33,-298.86"/>
<polygon fill="black" stroke="black" points="365.01,-295.78 354.5,-294.44 361.88,-302.05 365.01,-295.78"/>
</g>
<!-- pcl -->
<g id="node8" class="node">
<title>pcl</title>
<g id="a_node8"><a xlink:href="https://github.com/conda-forge/pcl-feedstock" xlink:title="pcl">
<ellipse fill="#fde725" stroke="black" cx="463.61" cy="-278" rx="27" ry="18"/>
<text xml:space="preserve" text-anchor="middle" x="463.61" y="-273.32" font-family="Times,serif" font-size="14.00">pcl</text>
</a>
</g>
</g>
<!-- vtk&#45;&gt;pcl -->
<g id="edge5" class="edge">
<title>vtk&#45;&gt;pcl</title>
<path fill="none" stroke="black" d="M463.61,-331.7C463.61,-324.41 463.61,-315.73 463.61,-307.54"/>
<polygon fill="black" stroke="black" points="467.11,-307.62 463.61,-297.62 460.11,-307.62 467.11,-307.62"/>
</g>
<!-- freecad -->
<g id="node9" class="node">
<title>freecad</title>
<g id="a_node9"><a xlink:href="https://github.com/conda-forge/freecad-feedstock" xlink:title="freecad">
<ellipse fill="#fde725" stroke="black" cx="310.61" cy="-206" rx="48.58" ry="18"/>
<text xml:space="preserve" text-anchor="middle" x="310.61" y="-201.32" font-family="Times,serif" font-size="14.00">freecad</text>
</a>
</g>
</g>
<!-- vtk&#45;&gt;freecad -->
<g id="edge6" class="edge">
<title>vtk&#45;&gt;freecad</title>
<path fill="none" stroke="black" d="M452.76,-333.36C439.29,-314.62 414.98,-282.88 389.61,-260 376.26,-247.95 359.98,-236.57 345.67,-227.46"/>
<polygon fill="black" stroke="black" points="347.77,-224.64 337.43,-222.34 344.07,-230.59 347.77,-224.64"/>
</g>
<!-- pycgns -->
<g id="node10" class="node">
<title>pycgns</title>
<g id="a_node10"><a xlink:href="https://github.com/conda-forge/pycgns-feedstock" xlink:title="pycgns">
<ellipse fill="#fde725" stroke="black" cx="592.61" cy="-278" rx="46.47" ry="18"/>
<text xml:space="preserve" text-anchor="middle" x="592.61" y="-273.32" font-family="Times,serif" font-size="14.00">pycgns</text>
</a>
</g>
</g>
<!-- vtk&#45;&gt;pycgns -->
<g id="edge7" class="edge">
<title>vtk&#45;&gt;pycgns</title>
<path fill="none" stroke="black" d="M484.05,-337.91C503.49,-327.36 533.14,-311.27 556.55,-298.57"/>
<polygon fill="black" stroke="black" points="558.02,-301.75 565.14,-293.91 554.68,-295.6 558.02,-301.75"/>
</g>
<!-- open3d -->
<g id="node11" class="node">
<title>open3d</title>
<g id="a_node11"><a xlink:href="https://github.com/conda-forge/open3d-feedstock" xlink:title="open3d">
<ellipse fill="#fde725" stroke="black" cx="518.61" cy="-206" rx="48.05" ry="18"/>
<text xml:space="preserve" text-anchor="middle" x="518.61" y="-201.32" font-family="Times,serif" font-size="14.00">open3d</text>
</a>
</g>
</g>
<!-- vtk&#45;&gt;open3d -->
<g id="edge8" class="edge">
<title>vtk&#45;&gt;open3d</title>
<path fill="none" stroke="black" d="M476.36,-333.7C484.17,-323.59 493.76,-309.71 499.61,-296 507.87,-276.66 512.68,-253.38 515.39,-235.48"/>
<polygon fill="black" stroke="black" points="518.82,-236.21 516.71,-225.83 511.89,-235.26 518.82,-236.21"/>
</g>
<!-- pcl&#45;&gt;freecad -->
<g id="edge9" class="edge">
<title>pcl&#45;&gt;freecad</title>
<path fill="none" stroke="black" d="M441.69,-266.97C418,-256.13 379.72,-238.62 350.63,-225.31"/>
<polygon fill="black" stroke="black" points="352.3,-222.22 341.75,-221.25 349.39,-228.59 352.3,-222.22"/>
</g>
<!-- qwt -->
<g id="node12" class="node">
<title>qwt</title>
<g id="a_node12"><a xlink:href="https://github.com/conda-forge/qwt-feedstock" xlink:title="qwt">
<ellipse fill="#35b779" stroke="black" cx="1013.61" cy="-90" rx="30.16" ry="18"/>
<text xml:space="preserve" text-anchor="middle" x="1013.61" y="-85.33" font-family="Times,serif" font-size="14.00">qwt</text>
</a>
</g>
</g>
<!-- qdoas -->
<g id="node13" class="node">
<title>qdoas</title>
<g id="a_node13"><a xlink:href="https://github.com/conda-forge/qdoas-feedstock" xlink:title="qdoas">
<ellipse fill="#fde725" stroke="black" cx="1013.61" cy="-18" rx="40.69" ry="18"/>
<text xml:space="preserve" text-anchor="middle" x="1013.61" y="-13.32" font-family="Times,serif" font-size="14.00">qdoas</text>
</a>
</g>
</g>
<!-- qwt&#45;&gt;qdoas -->
<g id="edge10" class="edge">
<title>qwt&#45;&gt;qdoas</title>
<path fill="none" stroke="black" d="M1013.61,-71.7C1013.61,-64.41 1013.61,-55.73 1013.61,-47.54"/>
<polygon fill="black" stroke="black" points="1017.11,-47.62 1013.61,-37.62 1010.11,-47.62 1017.11,-47.62"/>
</g>
<!-- codes&#45;ui -->
<g id="node19" class="node">
<title>codes&#45;ui</title>
<g id="a_node19"><a xlink:href="https://github.com/conda-forge/codes-ui-feedstock" xlink:title="codes ui">
<ellipse fill="#35b779" stroke="black" cx="1013.61" cy="-494" rx="52.26" ry="18"/>
<text xml:space="preserve" text-anchor="middle" x="1013.61" y="-489.32" font-family="Times,serif" font-size="14.00">codes ui</text>
</a>
</g>
</g>
<!-- ovito&#45;&gt;codes&#45;ui -->
<!-- pivy -->
<g id="node15" class="node">
<title>pivy</title>
<g id="a_node15"><a xlink:href="https://github.com/conda-forge/pivy-feedstock" xlink:title="pivy">
<ellipse fill="#fde725" stroke="black" cx="216.61" cy="-278" rx="32.27" ry="18"/>
<text xml:space="preserve" text-anchor="middle" x="216.61" y="-273.32" font-family="Times,serif" font-size="14.00">pivy</text>
</a>
</g>
</g>
<!-- pivy&#45;&gt;freecad -->
<g id="edge12" class="edge">
<title>pivy&#45;&gt;freecad</title>
<path fill="none" stroke="black" d="M235.19,-263.17C248.21,-253.47 265.91,-240.29 280.88,-229.14"/>
<polygon fill="black" stroke="black" points="282.65,-232.19 288.58,-223.41 278.47,-226.58 282.65,-232.19"/>
</g>
<!-- pyside2 -->
<g id="node16" class="node">
<title>pyside2</title>
<g id="a_node16"><a xlink:href="https://github.com/conda-forge/pyside2-feedstock" xlink:title="pyside2">
<ellipse fill="#fde725" stroke="black" cx="408.61" cy="-422" rx="50.16" ry="18"/>
<text xml:space="preserve" text-anchor="middle" x="408.61" y="-417.32" font-family="Times,serif" font-size="14.00">pyside2</text>
</a>
</g>
</g>
<!-- pyside2&#45;&gt;paraview -->
<g id="edge13" class="edge">
<title>pyside2&#45;&gt;paraview</title>
<path fill="none" stroke="black" d="M408.3,-403.67C407.23,-384.75 403.29,-354.19 389.61,-332 382.08,-319.78 370.7,-309.17 359.49,-300.72"/>
<polygon fill="black" stroke="black" points="361.62,-297.95 351.44,-295.02 357.57,-303.66 361.62,-297.95"/>
</g>
<!-- pyside2&#45;&gt;vtk -->
<g id="edge14" class="edge">
<title>pyside2&#45;&gt;vtk</title>
<path fill="none" stroke="black" d="M421.65,-404.41C428.41,-395.8 436.81,-385.11 444.32,-375.56"/>
<polygon fill="black" stroke="black" points="447.07,-377.73 450.49,-367.7 441.56,-373.4 447.07,-377.73"/>
</g>
<!-- pyside2&#45;&gt;freecad -->
<g id="edge15" class="edge">
<title>pyside2&#45;&gt;freecad</title>
<path fill="none" stroke="black" d="M358.1,-420.94C271.63,-419.66 100.96,-411.52 63.61,-368 0,-293.87 168.49,-240.79 258.39,-218.57"/>
<polygon fill="black" stroke="black" points="259.1,-222 267.99,-216.25 257.45,-215.2 259.1,-222"/>
</g>
<!-- pyside2&#45;&gt;pycgns -->
<g id="edge16" class="edge">
<title>pyside2&#45;&gt;pycgns</title>
<path fill="none" stroke="black" d="M436.76,-406.84C455.31,-396.98 479.75,-382.96 499.61,-368 525.51,-348.5 551.91,-322.53 569.93,-303.68"/>
<polygon fill="black" stroke="black" points="572.47,-306.09 576.79,-296.41 567.38,-301.28 572.47,-306.09"/>
</g>
<!-- qtmolecularnetwork -->
<g id="node17" class="node">
<title>qtmolecularnetwork</title>
<g id="a_node17"><a xlink:href="https://github.com/conda-forge/qtmolecularnetwork-feedstock" xlink:title="qtmolecularnetwork">
<ellipse fill="#fde725" stroke="black" cx="184.61" cy="-350" rx="112.24" ry="18"/>
<text xml:space="preserve" text-anchor="middle" x="184.61" y="-345.32" font-family="Times,serif" font-size="14.00">qtmolecularnetwork</text>
</a>
</g>
</g>
<!-- pyside2&#45;&gt;qtmolecularnetwork -->
<g id="edge17" class="edge">
<title>pyside2&#45;&gt;qtmolecularnetwork</title>
<path fill="none" stroke="black" d="M371.62,-409.44C337.25,-398.7 285.43,-382.5 245.04,-369.88"/>
<polygon fill="black" stroke="black" points="246.28,-366.6 235.69,-366.96 244.19,-373.29 246.28,-366.6"/>
</g>
<!-- pyside6qtads -->
<g id="node18" class="node">
<title>pyside6qtads</title>
<g id="a_node18"><a xlink:href="https://github.com/conda-forge/pyside6qtads-feedstock" xlink:title="pyside6qtads">
<ellipse fill="#fde725" stroke="black" cx="633.61" cy="-350" rx="78.04" ry="18"/>
<text xml:space="preserve" text-anchor="middle" x="633.61" y="-345.32" font-family="Times,serif" font-size="14.00">pyside6qtads</text>
</a>
</g>
</g>
<!-- pyside2&#45;&gt;pyside6qtads -->
<g id="edge18" class="edge">
<title>pyside2&#45;&gt;pyside6qtads</title>
<path fill="none" stroke="black" d="M445.77,-409.44C481.67,-398.27 536.52,-381.21 577.69,-368.4"/>
<polygon fill="black" stroke="black" points="578.69,-371.75 587.2,-365.44 576.61,-365.07 578.69,-371.75"/>
</g>
<!-- nionui&#45;tool -->
<g id="node21" class="node">
<title>nionui&#45;tool</title>
<g id="a_node21"><a xlink:href="https://github.com/conda-forge/nionui-tool-feedstock" xlink:title="nionui tool">
<ellipse fill="#35b779" stroke="black" cx="1013.61" cy="-422" rx="64.36" ry="18"/>
<text xml:space="preserve" text-anchor="middle" x="1013.61" y="-417.32" font-family="Times,serif" font-size="14.00">nionui tool</text>
</a>
</g>
</g>
<!-- codes&#45;ui&#45;&gt;nionui&#45;tool -->
<!-- soqt -->
<g id="node20" class="node">
<title>soqt</title>
<g id="a_node20"><a xlink:href="https://github.com/conda-forge/soqt-feedstock" xlink:title="soqt">
<ellipse fill="#35b779" stroke="black" cx="347.61" cy="-350" rx="32.79" ry="18"/>
<text xml:space="preserve" text-anchor="middle" x="347.61" y="-345.32" font-family="Times,serif" font-size="14.00">soqt</text>
</a>
</g>
</g>
<!-- soqt&#45;&gt;pivy -->
<g id="edge20" class="edge">
<title>soqt&#45;&gt;pivy</title>
<path fill="none" stroke="black" d="M324.8,-336.81C303.85,-325.62 272.59,-308.91 249.05,-296.33"/>
<polygon fill="black" stroke="black" points="250.97,-293.39 240.51,-291.77 247.68,-299.57 250.97,-293.39"/>
</g>
<!-- nionswift&#45;tool -->
<g id="node22" class="node">
<title>nionswift&#45;tool</title>
<g id="a_node22"><a xlink:href="https://github.com/conda-forge/nionswift-tool-feedstock" xlink:title="nionswift tool">
<ellipse fill="#35b779" stroke="black" cx="1013.61" cy="-350" rx="79.62" ry="18"/>
<text xml:space="preserve" text-anchor="middle" x="1013.61" y="-345.32" font-family="Times,serif" font-size="14.00">nionswift tool</text>
</a>
</g>
</g>
<!-- nionui&#45;tool&#45;&gt;nionswift&#45;tool -->
<!-- qt&#45;gtk&#45;platformtheme -->
<g id="node23" class="node">
<title>qt&#45;gtk&#45;platformtheme</title>
<g id="a_node23"><a xlink:href="https://github.com/conda-forge/qt-gtk-platformtheme-feedstock" xlink:title="qt gtk platformtheme">
<ellipse fill="#35b779" stroke="black" cx="1013.61" cy="-278" rx="119.08" ry="18"/>
<text xml:space="preserve" text-anchor="middle" x="1013.61" y="-273.32" font-family="Times,serif" font-size="14.00">qt gtk platformtheme</text>
</a>
</g>
</g>
<!-- nionswift&#45;tool&#45;&gt;qt&#45;gtk&#45;platformtheme -->
<!-- qcachegrind -->
<g id="node33" class="node">
<title>qcachegrind</title>
<g id="a_node33"><a xlink:href="https://github.com/conda-forge/qcachegrind-feedstock" xlink:title="qcachegrind">
<ellipse fill="#35b779" stroke="black" cx="1013.61" cy="-206" rx="72.78" ry="18"/>
<text xml:space="preserve" text-anchor="middle" x="1013.61" y="-201.33" font-family="Times,serif" font-size="14.00">qcachegrind</text>
</a>
</g>
</g>
<!-- qt&#45;gtk&#45;platformtheme&#45;&gt;qcachegrind -->
<!-- quazip -->
<g id="node24" class="node">
<title>quazip</title>
<g id="a_node24"><a xlink:href="https://github.com/conda-forge/quazip-feedstock" xlink:title="quazip">
<ellipse fill="#35b779" stroke="black" cx="443.61" cy="-90" rx="44.37" ry="18"/>
<text xml:space="preserve" text-anchor="middle" x="443.61" y="-85.33" font-family="Times,serif" font-size="14.00">quazip</text>
</a>
</g>
</g>
<!-- connectome&#45;workbench&#45;split -->
<g id="node25" class="node">
<title>connectome&#45;workbench&#45;split</title>
<g id="a_node25"><a xlink:href="https://github.com/conda-forge/connectome-workbench-split-feedstock" xlink:title="connectome workbench split">
<ellipse fill="#fde725" stroke="black" cx="443.61" cy="-18" rx="154.33" ry="18"/>
<text xml:space="preserve" text-anchor="middle" x="443.61" y="-13.32" font-family="Times,serif" font-size="14.00">connectome workbench split</text>
</a>
</g>
</g>
<!-- quazip&#45;&gt;connectome&#45;workbench&#45;split -->
<g id="edge24" class="edge">
<title>quazip&#45;&gt;connectome&#45;workbench&#45;split</title>
<path fill="none" stroke="black" d="M443.61,-71.7C443.61,-64.41 443.61,-55.73 443.61,-47.54"/>
<polygon fill="black" stroke="black" points="447.11,-47.62 443.61,-37.62 440.11,-47.62 447.11,-47.62"/>
</g>
<!-- gz&#45;gui -->
<g id="node26" class="node">
<title>gz&#45;gui</title>
<g id="a_node26"><a xlink:href="https://github.com/conda-forge/gz-gui-feedstock" xlink:title="gz gui">
<ellipse fill="#35b779" stroke="black" cx="1243.61" cy="-566" rx="41.74" ry="18"/>
<text xml:space="preserve" text-anchor="middle" x="1243.61" y="-561.33" font-family="Times,serif" font-size="14.00">gz gui</text>
</a>
</g>
</g>
<!-- gz&#45;sim -->
<g id="node27" class="node">
<title>gz&#45;sim</title>
<g id="a_node27"><a xlink:href="https://github.com/conda-forge/gz-sim-feedstock" xlink:title="gz sim">
<ellipse fill="#fde725" stroke="black" cx="1279.61" cy="-494" rx="43.84" ry="18"/>
<text xml:space="preserve" text-anchor="middle" x="1279.61" y="-489.32" font-family="Times,serif" font-size="14.00">gz sim</text>
</a>
</g>
</g>
<!-- gz&#45;gui&#45;&gt;gz&#45;sim -->
<g id="edge25" class="edge">
<title>gz&#45;gui&#45;&gt;gz&#45;sim</title>
<path fill="none" stroke="black" d="M1252.33,-548.05C1256.35,-540.23 1261.23,-530.75 1265.74,-521.98"/>
<polygon fill="black" stroke="black" points="1268.83,-523.63 1270.29,-513.13 1262.6,-520.43 1268.83,-523.63"/>
</g>
<!-- gz&#45;launch -->
<g id="node28" class="node">
<title>gz&#45;launch</title>
<g id="a_node28"><a xlink:href="https://github.com/conda-forge/gz-launch-feedstock" xlink:title="gz launch">
<ellipse fill="#fde725" stroke="black" cx="1207.61" cy="-422" rx="59.1" ry="18"/>
<text xml:space="preserve" text-anchor="middle" x="1207.61" y="-417.32" font-family="Times,serif" font-size="14.00">gz launch</text>
</a>
</g>
</g>
<!-- gz&#45;gui&#45;&gt;gz&#45;launch -->
<g id="edge26" class="edge">
<title>gz&#45;gui&#45;&gt;gz&#45;launch</title>
<path fill="none" stroke="black" d="M1237.66,-547.94C1234.18,-537.62 1229.85,-524.14 1226.61,-512 1221.26,-491.9 1216.39,-468.95 1212.92,-451.38"/>
<polygon fill="black" stroke="black" points="1216.38,-450.82 1211.04,-441.67 1209.5,-452.15 1216.38,-450.82"/>
</g>
<!-- gz&#45;sim&#45;&gt;gz&#45;launch -->
<g id="edge27" class="edge">
<title>gz&#45;sim&#45;&gt;gz&#45;launch</title>
<path fill="none" stroke="black" d="M1263.28,-477.12C1254.26,-468.36 1242.88,-457.29 1232.76,-447.45"/>
<polygon fill="black" stroke="black" points="1235.33,-445.07 1225.72,-440.61 1230.45,-450.09 1235.33,-445.07"/>
</g>
<!-- gz&#45;sim&#45;yarp&#45;plugins -->
<g id="node29" class="node">
<title>gz&#45;sim&#45;yarp&#45;plugins</title>
<g id="a_node29"><a xlink:href="https://github.com/conda-forge/gz-sim-yarp-plugins-feedstock" xlink:title="gz sim yarp plugins">
<ellipse fill="#fde725" stroke="black" cx="1250.61" cy="-350" rx="109.61" ry="18"/>
<text xml:space="preserve" text-anchor="middle" x="1250.61" y="-345.32" font-family="Times,serif" font-size="14.00">gz sim yarp plugins</text>
</a>
</g>
</g>
<!-- gz&#45;sim&#45;&gt;gz&#45;sim&#45;yarp&#45;plugins -->
<g id="edge28" class="edge">
<title>gz&#45;sim&#45;&gt;gz&#45;sim&#45;yarp&#45;plugins</title>
<path fill="none" stroke="black" d="M1280.83,-475.65C1281.64,-457.5 1281.64,-428.32 1275.61,-404 1273.44,-395.21 1269.75,-386.13 1265.87,-378.02"/>
<polygon fill="black" stroke="black" points="1269.12,-376.68 1261.45,-369.37 1262.88,-379.87 1269.12,-376.68"/>
</g>
<!-- gz&#45;launch&#45;&gt;gz&#45;sim&#45;yarp&#45;plugins -->
<g id="edge29" class="edge">
<title>gz&#45;launch&#45;&gt;gz&#45;sim&#45;yarp&#45;plugins</title>
<path fill="none" stroke="black" d="M1218.02,-404.05C1222.81,-396.26 1228.61,-386.82 1233.98,-378.08"/>
<polygon fill="black" stroke="black" points="1236.96,-379.92 1239.21,-369.56 1230.99,-376.25 1236.96,-379.92"/>
</g>
<!-- qt&#45;3d -->
<g id="node30" class="node">
<title>qt&#45;3d</title>
<g id="a_node30"><a xlink:href="https://github.com/conda-forge/qt-3d-feedstock/pull/76" xlink:title="qt 3d ❎">
<ellipse fill="#31688e" stroke="black" cx="449.61" cy="-494" rx="52.79" ry="18"/>
<text xml:space="preserve" text-anchor="middle" x="449.61" y="-489.32" font-family="Times,serif" font-size="14.00" fill="white">qt 3d ❎</text>
</a>
</g>
</g>
<!-- qt&#45;3d&#45;&gt;pyside2 -->
<g id="edge30" class="edge">
<title>qt&#45;3d&#45;&gt;pyside2</title>
<path fill="none" stroke="black" d="M439.69,-476.05C435.06,-468.14 429.43,-458.54 424.25,-449.69"/>
<polygon fill="black" stroke="black" points="427.29,-447.95 419.21,-441.1 421.25,-451.49 427.29,-447.95"/>
</g>
<!-- qt&#45;charts -->
<g id="node31" class="node">
<title>qt&#45;charts</title>
<g id="a_node31"><a xlink:href="https://github.com/conda-forge/qt-charts-feedstock/pull/68" xlink:title="qt charts ❎">
<ellipse fill="#31688e" stroke="black" cx="738.61" cy="-494" rx="71.73" ry="18"/>
<text xml:space="preserve" text-anchor="middle" x="738.61" y="-489.32" font-family="Times,serif" font-size="14.00" fill="white">qt charts ❎</text>
</a>
</g>
</g>
<!-- qt&#45;charts&#45;&gt;pyqt -->
<g id="edge31" class="edge">
<title>qt&#45;charts&#45;&gt;pyqt</title>
<path fill="none" stroke="black" d="M763.89,-476.76C779.77,-466.57 800.35,-453.36 817.12,-442.58"/>
<polygon fill="black" stroke="black" points="818.7,-445.73 825.23,-437.38 814.92,-439.84 818.7,-445.73"/>
</g>
<!-- qt&#45;charts&#45;&gt;pyside2 -->
<g id="edge32" class="edge">
<title>qt&#45;charts&#45;&gt;pyside2</title>
<path fill="none" stroke="black" d="M680.41,-483.14C625.31,-473.44 540.43,-457.58 467.61,-440 464.25,-439.19 460.79,-438.31 457.32,-437.39"/>
<polygon fill="black" stroke="black" points="458.28,-434.03 447.71,-434.77 456.44,-440.78 458.28,-434.03"/>
</g>
<!-- qt6&#45;advanced&#45;docking&#45;system -->
<g id="node32" class="node">
<title>qt6&#45;advanced&#45;docking&#45;system</title>
<g id="a_node32"><a xlink:href="https://github.com/conda-forge/qt6-advanced-docking-system-feedstock" xlink:title="qt6 advanced docking system">
<ellipse fill="#35b779" stroke="black" cx="636.61" cy="-422" rx="159.59" ry="18"/>
<text xml:space="preserve" text-anchor="middle" x="636.61" y="-417.32" font-family="Times,serif" font-size="14.00">qt6 advanced docking system</text>
</a>
</g>
</g>
<!-- qt6&#45;advanced&#45;docking&#45;system&#45;&gt;pyside6qtads -->
<g id="edge33" class="edge">
<title>qt6&#45;advanced&#45;docking&#45;system&#45;&gt;pyside6qtads</title>
<path fill="none" stroke="black" d="M635.87,-403.7C635.56,-396.41 635.19,-387.73 634.84,-379.54"/>
<polygon fill="black" stroke="black" points="638.34,-379.46 634.41,-369.62 631.34,-379.76 638.34,-379.46"/>
</g>
<!-- libcamera -->
<g id="node36" class="node">
<title>libcamera</title>
<g id="a_node36"><a xlink:href="https://github.com/conda-forge/libcamera-feedstock" xlink:title="libcamera">
<ellipse fill="#35b779" stroke="black" cx="1013.61" cy="-134" rx="60.68" ry="18"/>
<text xml:space="preserve" text-anchor="middle" x="1013.61" y="-129.32" font-family="Times,serif" font-size="14.00">libcamera</text>
</a>
</g>
</g>
<!-- qcachegrind&#45;&gt;libcamera -->
<!-- qt&#45;wayland -->
<g id="node34" class="node">
<title>qt&#45;wayland</title>
<g id="a_node34"><a xlink:href="https://github.com/conda-forge/qt-wayland-feedstock" xlink:title="qt wayland">
<ellipse fill="#35b779" stroke="black" cx="368.61" cy="-566" rx="66.47" ry="18"/>
<text xml:space="preserve" text-anchor="middle" x="368.61" y="-561.33" font-family="Times,serif" font-size="14.00">qt wayland</text>
</a>
</g>
</g>
<!-- qt&#45;wayland&#45;&gt;pyside2 -->
<g id="edge35" class="edge">
<title>qt&#45;wayland&#45;&gt;pyside2</title>
<path fill="none" stroke="black" d="M371.42,-547.72C374.56,-529.63 380.2,-500.5 387.61,-476 390.18,-467.53 393.51,-458.52 396.76,-450.37"/>
<polygon fill="black" stroke="black" points="399.91,-451.91 400.49,-441.33 393.44,-449.24 399.91,-451.91"/>
</g>
<!-- qt&#45;graphs -->
<g id="node35" class="node">
<title>qt&#45;graphs</title>
<g id="a_node35"><a xlink:href="https://github.com/conda-forge/qt-graphs-feedstock" xlink:title="qt graphs">
<ellipse fill="#35b779" stroke="black" cx="274.61" cy="-638" rx="59.63" ry="18"/>
<text xml:space="preserve" text-anchor="middle" x="274.61" y="-633.33" font-family="Times,serif" font-size="14.00">qt graphs</text>
</a>
</g>
</g>
<!-- qt&#45;graphs&#45;&gt;pyside2 -->
<g id="edge36" class="edge">
<title>qt&#45;graphs&#45;&gt;pyside2</title>
<path fill="none" stroke="black" d="M275.6,-619.7C277.26,-601.07 281.72,-571.02 293.61,-548 314.9,-506.81 353.42,-469.07 379.97,-446.07"/>
<polygon fill="black" stroke="black" points="381.96,-448.97 387.32,-439.83 377.43,-443.64 381.96,-448.97"/>
</g>
<!-- qt&#45;multimedia -->
<g id="node37" class="node">
<title>qt&#45;multimedia</title>
<g id="a_node37"><a xlink:href="https://github.com/conda-forge/qt-multimedia-feedstock/pull/44" xlink:title="qt multimedia ❎">
<ellipse fill="#31688e" stroke="black" cx="530.61" cy="-710" rx="96.98" ry="18"/>
<text xml:space="preserve" text-anchor="middle" x="530.61" y="-705.33" font-family="Times,serif" font-size="14.00" fill="white">qt multimedia ❎</text>
</a>
</g>
</g>
<!-- qt&#45;multimedia&#45;&gt;pyside2 -->
<g id="edge38" class="edge">
<title>qt&#45;multimedia&#45;&gt;pyside2</title>
<path fill="none" stroke="black" d="M534.45,-691.68C542.57,-650.36 557.23,-544.36 511.61,-476 499.42,-457.72 478.87,-445.39 459.32,-437.26"/>
<polygon fill="black" stroke="black" points="460.62,-434.01 450.03,-433.71 458.12,-440.55 460.62,-434.01"/>
</g>
</g>
</svg>
