<?xml version="1.0" encoding="UTF-8" standalone="no"?>
<!DOCTYPE svg PUBLIC "-//W3C//DTD SVG 1.1//EN"
 "http://www.w3.org/Graphics/SVG/1.1/DTD/svg11.dtd">
<!-- Generated by graphviz version 13.1.2 (20250809.0930)
 -->
<!-- Pages: 1 -->
<svg width="1308pt" height="736pt"
 viewBox="0.00 0.00 1308.00 736.00" xmlns="http://www.w3.org/2000/svg" xmlns:xlink="http://www.w3.org/1999/xlink">
<g id="graph0" class="graph" transform="scale(1 1) rotate(0) translate(4 732)">
<polygon fill="white" stroke="none" points="-4,4 -4,-732 1304.36,-732 1304.36,4 -4,4"/>
<!-- opencv -->
<g id="node1" class="node">
<title>opencv</title>
<g id="a_node1"><a xlink:href="https://github.com/conda-forge/opencv-feedstock/pull/501" xlink:title="opencv ❎">
<ellipse fill="#31688e" stroke="black" cx="953.75" cy="-710" rx="61.73" ry="18"/>
<text xml:space="preserve" text-anchor="middle" x="953.75" y="-705.33" font-family="Times,serif" font-size="14.00" fill="white">opencv ❎</text>
</a>
</g>
</g>
<!-- simage -->
<g id="node2" class="node">
<title>simage</title>
<g id="a_node2"><a xlink:href="https://github.com/conda-forge/simage-feedstock" xlink:title="simage">
<ellipse fill="#35b779" stroke="black" cx="953.75" cy="-638" rx="47" ry="18"/>
<text xml:space="preserve" text-anchor="middle" x="953.75" y="-633.33" font-family="Times,serif" font-size="14.00">simage</text>
</a>
</g>
</g>
<!-- opencv&#45;&gt;simage -->
<!-- ovito -->
<g id="node8" class="node">
<title>ovito</title>
<g id="a_node8"><a xlink:href="https://github.com/conda-forge/ovito-feedstock" xlink:title="ovito">
<ellipse fill="#35b779" stroke="black" cx="953.75" cy="-566" rx="35.95" ry="18"/>
<text xml:space="preserve" text-anchor="middle" x="953.75" y="-561.33" font-family="Times,serif" font-size="14.00">ovito</text>
</a>
</g>
</g>
<!-- simage&#45;&gt;ovito -->
<!-- vtk -->
<g id="node3" class="node">
<title>vtk</title>
<g id="a_node3"><a xlink:href="https://github.com/conda-forge/vtk-feedstock" xlink:title="vtk">
<ellipse fill="#fde725" stroke="black" cx="456.75" cy="-422" rx="27.01" ry="18"/>
<text xml:space="preserve" text-anchor="middle" x="456.75" y="-417.32" font-family="Times,serif" font-size="14.00">vtk</text>
</a>
</g>
</g>
<!-- pcl -->
<g id="node4" class="node">
<title>pcl</title>
<g id="a_node4"><a xlink:href="https://github.com/conda-forge/pcl-feedstock" xlink:title="pcl">
<ellipse fill="#fde725" stroke="black" cx="401.75" cy="-350" rx="27" ry="18"/>
<text xml:space="preserve" text-anchor="middle" x="401.75" y="-345.32" font-family="Times,serif" font-size="14.00">pcl</text>
</a>
</g>
</g>
<!-- vtk&#45;&gt;pcl -->
<g id="edge2" class="edge">
<title>vtk&#45;&gt;pcl</title>
<path fill="none" stroke="black" d="M444.55,-405.46C437.64,-396.67 428.84,-385.48 421.03,-375.53"/>
<polygon fill="black" stroke="black" points="423.79,-373.38 414.86,-367.68 418.29,-377.71 423.79,-373.38"/>
</g>
<!-- freecad -->
<g id="node5" class="node">
<title>freecad</title>
<g id="a_node5"><a xlink:href="https://github.com/conda-forge/freecad-feedstock" xlink:title="freecad">
<ellipse fill="#fde725" stroke="black" cx="314.75" cy="-278" rx="48.58" ry="18"/>
<text xml:space="preserve" text-anchor="middle" x="314.75" y="-273.32" font-family="Times,serif" font-size="14.00">freecad</text>
</a>
</g>
</g>
<!-- vtk&#45;&gt;freecad -->
<g id="edge3" class="edge">
<title>vtk&#45;&gt;freecad</title>
<path fill="none" stroke="black" d="M435.72,-410.38C412.38,-398.32 376.57,-378.9 365.75,-368 348.24,-350.36 334.66,-325.49 325.93,-306.53"/>
<polygon fill="black" stroke="black" points="329.2,-305.27 321.97,-297.52 322.79,-308.09 329.2,-305.27"/>
</g>
<!-- pycgns -->
<g id="node6" class="node">
<title>pycgns</title>
<g id="a_node6"><a xlink:href="https://github.com/conda-forge/pycgns-feedstock" xlink:title="pycgns">
<ellipse fill="#fde725" stroke="black" cx="530.75" cy="-350" rx="46.47" ry="18"/>
<text xml:space="preserve" text-anchor="middle" x="530.75" y="-345.32" font-family="Times,serif" font-size="14.00">pycgns</text>
</a>
</g>
</g>
<!-- vtk&#45;&gt;pycgns -->
<g id="edge4" class="edge">
<title>vtk&#45;&gt;pycgns</title>
<path fill="none" stroke="black" d="M471.73,-406.83C481.42,-397.67 494.28,-385.5 505.53,-374.86"/>
<polygon fill="black" stroke="black" points="507.77,-377.56 512.63,-368.14 502.96,-372.47 507.77,-377.56"/>
</g>
<!-- open3d -->
<g id="node7" class="node">
<title>open3d</title>
<g id="a_node7"><a xlink:href="https://github.com/conda-forge/open3d-feedstock" xlink:title="open3d">
<ellipse fill="#fde725" stroke="black" cx="456.75" cy="-278" rx="48.05" ry="18"/>
<text xml:space="preserve" text-anchor="middle" x="456.75" y="-273.32" font-family="Times,serif" font-size="14.00">open3d</text>
</a>
</g>
</g>
<!-- vtk&#45;&gt;open3d -->
<g id="edge5" class="edge">
<title>vtk&#45;&gt;open3d</title>
<path fill="none" stroke="black" d="M456.75,-403.59C456.75,-379.61 456.75,-336.14 456.75,-307.42"/>
<polygon fill="black" stroke="black" points="460.25,-307.62 456.75,-297.62 453.25,-307.62 460.25,-307.62"/>
</g>
<!-- pcl&#45;&gt;freecad -->
<g id="edge6" class="edge">
<title>pcl&#45;&gt;freecad</title>
<path fill="none" stroke="black" d="M384.98,-335.5C373.15,-325.99 357.02,-313.01 343.2,-301.89"/>
<polygon fill="black" stroke="black" points="345.69,-299.4 335.7,-295.85 341.3,-304.85 345.69,-299.4"/>
</g>
<!-- nionui&#45;tool -->
<g id="node13" class="node">
<title>nionui&#45;tool</title>
<g id="a_node13"><a xlink:href="https://github.com/conda-forge/nionui-tool-feedstock" xlink:title="nionui tool">
<ellipse fill="#35b779" stroke="black" cx="953.75" cy="-494" rx="64.36" ry="18"/>
<text xml:space="preserve" text-anchor="middle" x="953.75" y="-489.32" font-family="Times,serif" font-size="14.00">nionui tool</text>
</a>
</g>
</g>
<!-- ovito&#45;&gt;nionui&#45;tool -->
<!-- pivy -->
<g id="node9" class="node">
<title>pivy</title>
<g id="a_node9"><a xlink:href="https://github.com/conda-forge/pivy-feedstock" xlink:title="pivy">
<ellipse fill="#fde725" stroke="black" cx="286.75" cy="-350" rx="32.27" ry="18"/>
<text xml:space="preserve" text-anchor="middle" x="286.75" y="-345.32" font-family="Times,serif" font-size="14.00">pivy</text>
</a>
</g>
</g>
<!-- pivy&#45;&gt;freecad -->
<g id="edge8" class="edge">
<title>pivy&#45;&gt;freecad</title>
<path fill="none" stroke="black" d="M293.53,-332.05C296.55,-324.52 300.18,-315.44 303.58,-306.94"/>
<polygon fill="black" stroke="black" points="306.82,-308.27 307.28,-297.68 300.32,-305.67 306.82,-308.27"/>
</g>
<!-- pyside2 -->
<g id="node10" class="node">
<title>pyside2</title>
<g id="a_node10"><a xlink:href="https://github.com/conda-forge/pyside2-feedstock" xlink:title="pyside2">
<ellipse fill="#fde725" stroke="black" cx="439.75" cy="-494" rx="50.16" ry="18"/>
<text xml:space="preserve" text-anchor="middle" x="439.75" y="-489.32" font-family="Times,serif" font-size="14.00">pyside2</text>
</a>
</g>
</g>
<!-- pyside2&#45;&gt;vtk -->
<g id="edge9" class="edge">
<title>pyside2&#45;&gt;vtk</title>
<path fill="none" stroke="black" d="M443.95,-475.7C445.75,-468.32 447.88,-459.52 449.89,-451.25"/>
<polygon fill="black" stroke="black" points="453.28,-452.12 452.24,-441.58 446.48,-450.47 453.28,-452.12"/>
</g>
<!-- pyside2&#45;&gt;freecad -->
<g id="edge10" class="edge">
<title>pyside2&#45;&gt;freecad</title>
<path fill="none" stroke="black" d="M389.28,-493.65C296.88,-493.66 106.2,-487.72 64.75,-440 0,-365.45 171.57,-312.43 262.47,-290.38"/>
<polygon fill="black" stroke="black" points="263.01,-293.85 271.93,-288.13 261.39,-287.04 263.01,-293.85"/>
</g>
<!-- pyside2&#45;&gt;pycgns -->
<g id="edge11" class="edge">
<title>pyside2&#45;&gt;pycgns</title>
<path fill="none" stroke="black" d="M459,-477.08C469.97,-467.26 483.35,-453.91 492.75,-440 505.47,-421.19 515.35,-397.43 521.85,-379.19"/>
<polygon fill="black" stroke="black" points="525.13,-380.4 525.05,-369.81 518.51,-378.14 525.13,-380.4"/>
</g>
<!-- qtmolecularnetwork -->
<g id="node11" class="node">
<title>qtmolecularnetwork</title>
<g id="a_node11"><a xlink:href="https://github.com/conda-forge/qtmolecularnetwork-feedstock" xlink:title="qtmolecularnetwork">
<ellipse fill="#fde725" stroke="black" cx="185.75" cy="-422" rx="112.24" ry="18"/>
<text xml:space="preserve" text-anchor="middle" x="185.75" y="-417.32" font-family="Times,serif" font-size="14.00">qtmolecularnetwork</text>
</a>
</g>
</g>
<!-- pyside2&#45;&gt;qtmolecularnetwork -->
<g id="edge12" class="edge">
<title>pyside2&#45;&gt;qtmolecularnetwork</title>
<path fill="none" stroke="black" d="M400.9,-482.29C361.27,-471.37 299.05,-454.23 251.7,-441.17"/>
<polygon fill="black" stroke="black" points="252.64,-437.8 242.07,-438.52 250.78,-444.55 252.64,-437.8"/>
</g>
<!-- pyside6qtads -->
<g id="node12" class="node">
<title>pyside6qtads</title>
<g id="a_node12"><a xlink:href="https://github.com/conda-forge/pyside6qtads-feedstock" xlink:title="pyside6qtads">
<ellipse fill="#fde725" stroke="black" cx="651.75" cy="-422" rx="78.04" ry="18"/>
<text xml:space="preserve" text-anchor="middle" x="651.75" y="-417.32" font-family="Times,serif" font-size="14.00">pyside6qtads</text>
</a>
</g>
</g>
<!-- pyside2&#45;&gt;pyside6qtads -->
<g id="edge13" class="edge">
<title>pyside2&#45;&gt;pyside6qtads</title>
<path fill="none" stroke="black" d="M475.72,-481.13C509.19,-470.07 559.53,-453.45 597.82,-440.81"/>
<polygon fill="black" stroke="black" points="598.44,-444.29 606.83,-437.83 596.24,-437.64 598.44,-444.29"/>
</g>
<!-- nionswift&#45;tool -->
<g id="node15" class="node">
<title>nionswift&#45;tool</title>
<g id="a_node15"><a xlink:href="https://github.com/conda-forge/nionswift-tool-feedstock" xlink:title="nionswift tool">
<ellipse fill="#35b779" stroke="black" cx="953.75" cy="-422" rx="79.62" ry="18"/>
<text xml:space="preserve" text-anchor="middle" x="953.75" y="-417.32" font-family="Times,serif" font-size="14.00">nionswift tool</text>
</a>
</g>
</g>
<!-- nionui&#45;tool&#45;&gt;nionswift&#45;tool -->
<!-- soqt -->
<g id="node14" class="node">
<title>soqt</title>
<g id="a_node14"><a xlink:href="https://github.com/conda-forge/soqt-feedstock/pull/28" xlink:title="soqt ❎">
<ellipse fill="#31688e" stroke="black" cx="363.75" cy="-422" rx="48.05" ry="18"/>
<text xml:space="preserve" text-anchor="middle" x="363.75" y="-417.32" font-family="Times,serif" font-size="14.00" fill="white">soqt ❎</text>
</a>
</g>
</g>
<!-- soqt&#45;&gt;pivy -->
<g id="edge15" class="edge">
<title>soqt&#45;&gt;pivy</title>
<path fill="none" stroke="black" d="M346.28,-405.12C335.96,-395.73 322.72,-383.7 311.35,-373.36"/>
<polygon fill="black" stroke="black" points="313.98,-371.02 304.22,-366.88 309.27,-376.2 313.98,-371.02"/>
</g>
<!-- qt&#45;gtk&#45;platformtheme -->
<g id="node16" class="node">
<title>qt&#45;gtk&#45;platformtheme</title>
<g id="a_node16"><a xlink:href="https://github.com/conda-forge/qt-gtk-platformtheme-feedstock" xlink:title="qt gtk platformtheme">
<ellipse fill="#35b779" stroke="black" cx="953.75" cy="-350" rx="119.08" ry="18"/>
<text xml:space="preserve" text-anchor="middle" x="953.75" y="-345.32" font-family="Times,serif" font-size="14.00">qt gtk platformtheme</text>
</a>
</g>
</g>
<!-- nionswift&#45;tool&#45;&gt;qt&#45;gtk&#45;platformtheme -->
<!-- qcachegrind -->
<g id="node24" class="node">
<title>qcachegrind</title>
<g id="a_node24"><a xlink:href="https://github.com/conda-forge/qcachegrind-feedstock" xlink:title="qcachegrind">
<ellipse fill="#35b779" stroke="black" cx="953.75" cy="-278" rx="72.78" ry="18"/>
<text xml:space="preserve" text-anchor="middle" x="953.75" y="-273.32" font-family="Times,serif" font-size="14.00">qcachegrind</text>
</a>
</g>
</g>
<!-- qt&#45;gtk&#45;platformtheme&#45;&gt;qcachegrind -->
<!-- quazip -->
<g id="node17" class="node">
<title>quazip</title>
<g id="a_node17"><a xlink:href="https://github.com/conda-forge/quazip-feedstock/pull/9" xlink:title="quazip ❎">
<ellipse fill="#31688e" stroke="black" cx="413.75" cy="-90" rx="59.63" ry="18"/>
<text xml:space="preserve" text-anchor="middle" x="413.75" y="-85.33" font-family="Times,serif" font-size="14.00" fill="white">quazip ❎</text>
</a>
</g>
</g>
<!-- connectome&#45;workbench&#45;split -->
<g id="node18" class="node">
<title>connectome&#45;workbench&#45;split</title>
<g id="a_node18"><a xlink:href="https://github.com/conda-forge/connectome-workbench-split-feedstock" xlink:title="connectome workbench split">
<ellipse fill="#fde725" stroke="black" cx="413.75" cy="-18" rx="154.33" ry="18"/>
<text xml:space="preserve" text-anchor="middle" x="413.75" y="-13.32" font-family="Times,serif" font-size="14.00">connectome workbench split</text>
</a>
</g>
</g>
<!-- quazip&#45;&gt;connectome&#45;workbench&#45;split -->
<g id="edge18" class="edge">
<title>quazip&#45;&gt;connectome&#45;workbench&#45;split</title>
<path fill="none" stroke="black" d="M413.75,-71.7C413.75,-64.41 413.75,-55.73 413.75,-47.54"/>
<polygon fill="black" stroke="black" points="417.25,-47.62 413.75,-37.62 410.25,-47.62 417.25,-47.62"/>
</g>
<!-- gz&#45;gui -->
<g id="node19" class="node">
<title>gz&#45;gui</title>
<g id="a_node19"><a xlink:href="https://github.com/conda-forge/gz-gui-feedstock" xlink:title="gz gui">
<ellipse fill="#35b779" stroke="black" cx="1183.75" cy="-530" rx="41.74" ry="18"/>
<text xml:space="preserve" text-anchor="middle" x="1183.75" y="-525.33" font-family="Times,serif" font-size="14.00">gz gui</text>
</a>
</g>
</g>
<!-- gz&#45;sim -->
<g id="node20" class="node">
<title>gz&#45;sim</title>
<g id="a_node20"><a xlink:href="https://github.com/conda-forge/gz-sim-feedstock" xlink:title="gz sim">
<ellipse fill="#fde725" stroke="black" cx="1219.75" cy="-458" rx="43.84" ry="18"/>
<text xml:space="preserve" text-anchor="middle" x="1219.75" y="-453.32" font-family="Times,serif" font-size="14.00">gz sim</text>
</a>
</g>
</g>
<!-- gz&#45;gui&#45;&gt;gz&#45;sim -->
<g id="edge19" class="edge">
<title>gz&#45;gui&#45;&gt;gz&#45;sim</title>
<path fill="none" stroke="black" d="M1192.47,-512.05C1196.49,-504.23 1201.37,-494.75 1205.88,-485.98"/>
<polygon fill="black" stroke="black" points="1208.96,-487.63 1210.43,-477.13 1202.74,-484.43 1208.96,-487.63"/>
</g>
<!-- gz&#45;launch -->
<g id="node21" class="node">
<title>gz&#45;launch</title>
<g id="a_node21"><a xlink:href="https://github.com/conda-forge/gz-launch-feedstock" xlink:title="gz launch">
<ellipse fill="#fde725" stroke="black" cx="1147.75" cy="-386" rx="59.1" ry="18"/>
<text xml:space="preserve" text-anchor="middle" x="1147.75" y="-381.32" font-family="Times,serif" font-size="14.00">gz launch</text>
</a>
</g>
</g>
<!-- gz&#45;gui&#45;&gt;gz&#45;launch -->
<g id="edge20" class="edge">
<title>gz&#45;gui&#45;&gt;gz&#45;launch</title>
<path fill="none" stroke="black" d="M1177.8,-511.94C1174.32,-501.62 1169.99,-488.14 1166.75,-476 1161.4,-455.9 1156.53,-432.95 1153.06,-415.38"/>
<polygon fill="black" stroke="black" points="1156.51,-414.82 1151.18,-405.67 1149.64,-416.15 1156.51,-414.82"/>
</g>
<!-- gz&#45;sim&#45;&gt;gz&#45;launch -->
<g id="edge21" class="edge">
<title>gz&#45;sim&#45;&gt;gz&#45;launch</title>
<path fill="none" stroke="black" d="M1203.41,-441.12C1194.4,-432.36 1183.02,-421.29 1172.9,-411.45"/>
<polygon fill="black" stroke="black" points="1175.47,-409.07 1165.86,-404.61 1170.59,-414.09 1175.47,-409.07"/>
</g>
<!-- gz&#45;sim&#45;yarp&#45;plugins -->
<g id="node22" class="node">
<title>gz&#45;sim&#45;yarp&#45;plugins</title>
<g id="a_node22"><a xlink:href="https://github.com/conda-forge/gz-sim-yarp-plugins-feedstock" xlink:title="gz sim yarp plugins">
<ellipse fill="#fde725" stroke="black" cx="1190.75" cy="-314" rx="109.61" ry="18"/>
<text xml:space="preserve" text-anchor="middle" x="1190.75" y="-309.32" font-family="Times,serif" font-size="14.00">gz sim yarp plugins</text>
</a>
</g>
</g>
<!-- gz&#45;sim&#45;&gt;gz&#45;sim&#45;yarp&#45;plugins -->
<g id="edge22" class="edge">
<title>gz&#45;sim&#45;&gt;gz&#45;sim&#45;yarp&#45;plugins</title>
<path fill="none" stroke="black" d="M1220.97,-439.65C1221.78,-421.5 1221.78,-392.32 1215.75,-368 1213.58,-359.21 1209.89,-350.13 1206.01,-342.02"/>
<polygon fill="black" stroke="black" points="1209.26,-340.68 1201.59,-333.37 1203.02,-343.87 1209.26,-340.68"/>
</g>
<!-- gz&#45;launch&#45;&gt;gz&#45;sim&#45;yarp&#45;plugins -->
<g id="edge23" class="edge">
<title>gz&#45;launch&#45;&gt;gz&#45;sim&#45;yarp&#45;plugins</title>
<path fill="none" stroke="black" d="M1158.16,-368.05C1162.95,-360.26 1168.75,-350.82 1174.12,-342.08"/>
<polygon fill="black" stroke="black" points="1177.1,-343.92 1179.35,-333.56 1171.13,-340.25 1177.1,-343.92"/>
</g>
<!-- qt6&#45;advanced&#45;docking&#45;system -->
<g id="node23" class="node">
<title>qt6&#45;advanced&#45;docking&#45;system</title>
<g id="a_node23"><a xlink:href="https://github.com/conda-forge/qt6-advanced-docking-system-feedstock" xlink:title="qt6 advanced docking system">
<ellipse fill="#35b779" stroke="black" cx="667.75" cy="-494" rx="159.59" ry="18"/>
<text xml:space="preserve" text-anchor="middle" x="667.75" y="-489.32" font-family="Times,serif" font-size="14.00">qt6 advanced docking system</text>
</a>
</g>
</g>
<!-- qt6&#45;advanced&#45;docking&#45;system&#45;&gt;pyside6qtads -->
<g id="edge24" class="edge">
<title>qt6&#45;advanced&#45;docking&#45;system&#45;&gt;pyside6qtads</title>
<path fill="none" stroke="black" d="M663.8,-475.7C662.11,-468.32 660.1,-459.52 658.21,-451.25"/>
<polygon fill="black" stroke="black" points="661.64,-450.55 656,-441.58 654.82,-452.11 661.64,-450.55"/>
</g>
<!-- qt&#45;networkauth -->
<g id="node26" class="node">
<title>qt&#45;networkauth</title>
<g id="a_node26"><a xlink:href="https://github.com/conda-forge/qt-networkauth-feedstock" xlink:title="qt networkauth">
<ellipse fill="#35b779" stroke="black" cx="953.75" cy="-206" rx="88.56" ry="18"/>
<text xml:space="preserve" text-anchor="middle" x="953.75" y="-201.33" font-family="Times,serif" font-size="14.00">qt networkauth</text>
</a>
</g>
</g>
<!-- qcachegrind&#45;&gt;qt&#45;networkauth -->
<!-- qt&#45;wayland -->
<g id="node25" class="node">
<title>qt&#45;wayland</title>
<g id="a_node25"><a xlink:href="https://github.com/conda-forge/qt-wayland-feedstock" xlink:title="qt wayland">
<ellipse fill="#35b779" stroke="black" cx="439.75" cy="-566" rx="66.47" ry="18"/>
<text xml:space="preserve" text-anchor="middle" x="439.75" y="-561.33" font-family="Times,serif" font-size="14.00">qt wayland</text>
</a>
</g>
</g>
<!-- qt&#45;wayland&#45;&gt;pyside2 -->
<g id="edge26" class="edge">
<title>qt&#45;wayland&#45;&gt;pyside2</title>
<path fill="none" stroke="black" d="M439.75,-547.7C439.75,-540.41 439.75,-531.73 439.75,-523.54"/>
<polygon fill="black" stroke="black" points="443.25,-523.62 439.75,-513.62 436.25,-523.62 443.25,-523.62"/>
</g>
<!-- libcamera -->
<g id="node27" class="node">
<title>libcamera</title>
<g id="a_node27"><a xlink:href="https://github.com/conda-forge/libcamera-feedstock" xlink:title="libcamera">
<ellipse fill="#35b779" stroke="black" cx="953.75" cy="-134" rx="60.68" ry="18"/>
<text xml:space="preserve" text-anchor="middle" x="953.75" y="-129.32" font-family="Times,serif" font-size="14.00">libcamera</text>
</a>
</g>
</g>
<!-- qt&#45;networkauth&#45;&gt;libcamera -->
</g>
</svg>
