<?xml version="1.0" encoding="UTF-8" standalone="no"?>
<!DOCTYPE svg PUBLIC "-//W3C//DTD SVG 1.1//EN"
 "http://www.w3.org/Graphics/SVG/1.1/DTD/svg11.dtd">
<!-- Generated by graphviz version 12.0.0 (20240803.0821)
 -->
<!-- Pages: 1 -->
<svg width="2332pt" height="1788pt"
 viewBox="0.00 0.00 2332.11 1788.00" xmlns="http://www.w3.org/2000/svg" xmlns:xlink="http://www.w3.org/1999/xlink">
<g id="graph0" class="graph" transform="scale(1 1) rotate(0) translate(4 1784)">
<polygon fill="white" stroke="none" points="-4,4 -4,-1784 2328.11,-1784 2328.11,4 -4,4"/>
<!-- iverilog -->
<g id="node1" class="node">
<title>iverilog</title>
<g id="a_node1"><a xlink:href="https://github.com/conda-forge/iverilog-feedstock/pull/25" xlink:title="iverilog ❎">
<ellipse fill="#31688e" stroke="black" cx="2209.24" cy="-1762" rx="64.36" ry="18"/>
<text text-anchor="middle" x="2209.24" y="-1757.33" font-family="Times,serif" font-size="14.00" fill="white">iverilog ❎</text>
</a>
</g>
</g>
<!-- libidn11 -->
<g id="node2" class="node">
<title>libidn11</title>
<g id="a_node2"><a xlink:href="https://github.com/conda-forge/libidn11-feedstock/pull/13" xlink:title="libidn11 ❎">
<ellipse fill="#31688e" stroke="black" cx="2209.24" cy="-1690" rx="67.52" ry="18"/>
<text text-anchor="middle" x="2209.24" y="-1685.33" font-family="Times,serif" font-size="14.00" fill="white">libidn11 ❎</text>
</a>
</g>
</g>
<!-- iverilog&#45;&gt;libidn11 -->
<!-- m2w64&#45;muparser -->
<g id="node3" class="node">
<title>m2w64&#45;muparser</title>
<g id="a_node3"><a xlink:href="https://github.com/conda-forge/m2w64-muparser-feedstock/pull/13" xlink:title="m2w64 muparser ❎">
<ellipse fill="#31688e" stroke="black" cx="2209.24" cy="-1618" rx="114.87" ry="18"/>
<text text-anchor="middle" x="2209.24" y="-1613.33" font-family="Times,serif" font-size="14.00" fill="white">m2w64 muparser ❎</text>
</a>
</g>
</g>
<!-- libidn11&#45;&gt;m2w64&#45;muparser -->
<!-- pigz -->
<g id="node4" class="node">
<title>pigz</title>
<g id="a_node4"><a xlink:href="https://github.com/conda-forge/pigz-feedstock/pull/23" xlink:title="pigz ❎">
<ellipse fill="#31688e" stroke="black" cx="2209.24" cy="-1546" rx="47.53" ry="18"/>
<text text-anchor="middle" x="2209.24" y="-1541.33" font-family="Times,serif" font-size="14.00" fill="white">pigz ❎</text>
</a>
</g>
</g>
<!-- m2w64&#45;muparser&#45;&gt;pigz -->
<!-- rpy2 -->
<g id="node5" class="node">
<title>rpy2</title>
<g id="a_node5"><a xlink:href="https://github.com/conda-forge/rpy2-feedstock/pull/126" xlink:title="rpy2 ❎">
<ellipse fill="#31688e" stroke="black" cx="2209.24" cy="-1474" rx="49.63" ry="18"/>
<text text-anchor="middle" x="2209.24" y="-1469.33" font-family="Times,serif" font-size="14.00" fill="white">rpy2 ❎</text>
</a>
</g>
</g>
<!-- pigz&#45;&gt;rpy2 -->
<!-- sixs -->
<g id="node6" class="node">
<title>sixs</title>
<g id="a_node6"><a xlink:href="https://github.com/conda-forge/sixs-feedstock/pull/17" xlink:title="sixs ❎">
<ellipse fill="#31688e" stroke="black" cx="2209.24" cy="-1402" rx="45.95" ry="18"/>
<text text-anchor="middle" x="2209.24" y="-1397.33" font-family="Times,serif" font-size="14.00" fill="white">sixs ❎</text>
</a>
</g>
</g>
<!-- rpy2&#45;&gt;sixs -->
<!-- perl&#45;sys&#45;cpu -->
<g id="node7" class="node">
<title>perl&#45;sys&#45;cpu</title>
<g id="a_node7"><a xlink:href="https://github.com/conda-forge/perl-sys-cpu-feedstock/pull/5" xlink:title="perl sys cpu ❎">
<ellipse fill="#31688e" stroke="black" cx="2209.24" cy="-1330" rx="86.98" ry="18"/>
<text text-anchor="middle" x="2209.24" y="-1325.33" font-family="Times,serif" font-size="14.00" fill="white">perl sys cpu ❎</text>
</a>
</g>
</g>
<!-- sixs&#45;&gt;perl&#45;sys&#45;cpu -->
<!-- mongo&#45;tools -->
<g id="node25" class="node">
<title>mongo&#45;tools</title>
<g id="a_node25"><a xlink:href="https://github.com/conda-forge/mongo-tools-feedstock/pull/51" xlink:title="mongo tools ❎">
<ellipse fill="#31688e" stroke="black" cx="2209.24" cy="-1258" rx="87.51" ry="18"/>
<text text-anchor="middle" x="2209.24" y="-1253.33" font-family="Times,serif" font-size="14.00" fill="white">mongo tools ❎</text>
</a>
</g>
</g>
<!-- perl&#45;sys&#45;cpu&#45;&gt;mongo&#45;tools -->
<!-- wrf&#45;python -->
<g id="node8" class="node">
<title>wrf&#45;python</title>
<g id="a_node8"><a xlink:href="https://github.com/conda-forge/wrf-python-feedstock" xlink:title="wrf python">
<ellipse fill="#fde725" stroke="black" cx="1066.65" cy="-1510" rx="65.94" ry="18"/>
<text text-anchor="middle" x="1066.65" y="-1505.33" font-family="Times,serif" font-size="14.00">wrf python</text>
</a>
</g>
</g>
<!-- xgboost -->
<g id="node9" class="node">
<title>xgboost</title>
<g id="a_node9"><a xlink:href="https://github.com/conda-forge/xgboost-feedstock/pull/177" xlink:title="xgboost ❎">
<ellipse fill="#31688e" stroke="black" cx="1733.85" cy="-1582" rx="65.94" ry="18"/>
<text text-anchor="middle" x="1733.85" y="-1577.33" font-family="Times,serif" font-size="14.00" fill="white">xgboost ❎</text>
</a>
</g>
</g>
<!-- r&#45;mikropml -->
<g id="node10" class="node">
<title>r&#45;mikropml</title>
<g id="a_node10"><a xlink:href="https://github.com/conda-forge/r-mikropml-feedstock" xlink:title="r mikropml">
<ellipse fill="#fde725" stroke="black" cx="1344.85" cy="-1510" rx="66.99" ry="18"/>
<text text-anchor="middle" x="1344.85" y="-1505.33" font-family="Times,serif" font-size="14.00">r mikropml</text>
</a>
</g>
</g>
<!-- xgboost&#45;&gt;r&#45;mikropml -->
<g id="edge7" class="edge">
<title>xgboost&#45;&gt;r&#45;mikropml</title>
<path fill="none" stroke="black" d="M1678.1,-1572.03C1616.32,-1561.95 1513.79,-1544.79 1425.85,-1528 1419.61,-1526.81 1413.11,-1525.52 1406.63,-1524.21"/>
<polygon fill="black" stroke="black" points="1407.76,-1520.87 1397.26,-1522.29 1406.36,-1527.73 1407.76,-1520.87"/>
</g>
<!-- r&#45;biomod2 -->
<g id="node11" class="node">
<title>r&#45;biomod2</title>
<g id="a_node11"><a xlink:href="https://github.com/conda-forge/r-biomod2-feedstock" xlink:title="r biomod2">
<ellipse fill="#fde725" stroke="black" cx="1202.85" cy="-1438" rx="62.26" ry="18"/>
<text text-anchor="middle" x="1202.85" y="-1433.33" font-family="Times,serif" font-size="14.00">r biomod2</text>
</a>
</g>
</g>
<!-- xgboost&#45;&gt;r&#45;biomod2 -->
<g id="edge8" class="edge">
<title>xgboost&#45;&gt;r&#45;biomod2</title>
<path fill="none" stroke="black" d="M1668.54,-1578.69C1610.61,-1574.32 1525.13,-1562.04 1458.85,-1528 1438.15,-1517.37 1441.28,-1503.12 1420.85,-1492 1419.04,-1491.02 1324.77,-1468.27 1260.8,-1452.9"/>
<polygon fill="black" stroke="black" points="1261.65,-1449.5 1251.11,-1450.57 1260.01,-1456.31 1261.65,-1449.5"/>
</g>
<!-- r&#45;modeltime -->
<g id="node12" class="node">
<title>r&#45;modeltime</title>
<g id="a_node12"><a xlink:href="https://github.com/conda-forge/r-modeltime-feedstock" xlink:title="r modeltime">
<ellipse fill="#fde725" stroke="black" cx="1539.85" cy="-1510" rx="72.25" ry="18"/>
<text text-anchor="middle" x="1539.85" y="-1505.33" font-family="Times,serif" font-size="14.00">r modeltime</text>
</a>
</g>
</g>
<!-- xgboost&#45;&gt;r&#45;modeltime -->
<g id="edge9" class="edge">
<title>xgboost&#45;&gt;r&#45;modeltime</title>
<path fill="none" stroke="black" d="M1695.06,-1567C1664.96,-1556.14 1622.99,-1541 1590.28,-1529.2"/>
<polygon fill="black" stroke="black" points="1591.59,-1525.95 1581,-1525.85 1589.22,-1532.53 1591.59,-1525.95"/>
</g>
<!-- r&#45;tidybins -->
<g id="node13" class="node">
<title>r&#45;tidybins</title>
<g id="a_node13"><a xlink:href="https://github.com/conda-forge/r-tidybins-feedstock" xlink:title="r tidybins">
<ellipse fill="#fde725" stroke="black" cx="1642.85" cy="-1438" rx="59.63" ry="18"/>
<text text-anchor="middle" x="1642.85" y="-1433.33" font-family="Times,serif" font-size="14.00">r tidybins</text>
</a>
</g>
</g>
<!-- xgboost&#45;&gt;r&#45;tidybins -->
<g id="edge10" class="edge">
<title>xgboost&#45;&gt;r&#45;tidybins</title>
<path fill="none" stroke="black" d="M1701.92,-1565.91C1686.53,-1557.01 1669.21,-1544.28 1658.85,-1528 1647.44,-1510.07 1643.62,-1486.22 1642.56,-1467.73"/>
<polygon fill="black" stroke="black" points="1646.07,-1467.86 1642.25,-1457.97 1639.07,-1468.08 1646.07,-1467.86"/>
</g>
<!-- r&#45;autostats -->
<g id="node14" class="node">
<title>r&#45;autostats</title>
<g id="a_node14"><a xlink:href="https://github.com/conda-forge/r-autostats-feedstock" xlink:title="r autostats">
<ellipse fill="#fde725" stroke="black" cx="1733.85" cy="-1510" rx="65.94" ry="18"/>
<text text-anchor="middle" x="1733.85" y="-1505.33" font-family="Times,serif" font-size="14.00">r autostats</text>
</a>
</g>
</g>
<!-- xgboost&#45;&gt;r&#45;autostats -->
<g id="edge11" class="edge">
<title>xgboost&#45;&gt;r&#45;autostats</title>
<path fill="none" stroke="black" d="M1733.85,-1563.7C1733.85,-1556.41 1733.85,-1547.73 1733.85,-1539.54"/>
<polygon fill="black" stroke="black" points="1737.35,-1539.62 1733.85,-1529.62 1730.35,-1539.62 1737.35,-1539.62"/>
</g>
<!-- r&#45;bundle -->
<g id="node15" class="node">
<title>r&#45;bundle</title>
<g id="a_node15"><a xlink:href="https://github.com/conda-forge/r-bundle-feedstock" xlink:title="r bundle">
<ellipse fill="#fde725" stroke="black" cx="1803.85" cy="-1366" rx="53.31" ry="18"/>
<text text-anchor="middle" x="1803.85" y="-1361.33" font-family="Times,serif" font-size="14.00">r bundle</text>
</a>
</g>
</g>
<!-- xgboost&#45;&gt;r&#45;bundle -->
<g id="edge12" class="edge">
<title>xgboost&#45;&gt;r&#45;bundle</title>
<path fill="none" stroke="black" d="M1767.8,-1566.19C1783.31,-1557.49 1800.13,-1544.85 1808.85,-1528 1830.71,-1485.79 1821.34,-1428.66 1812.57,-1395.03"/>
<polygon fill="black" stroke="black" points="1816.01,-1394.33 1809.95,-1385.64 1809.27,-1396.21 1816.01,-1394.33"/>
</g>
<!-- r&#45;twang -->
<g id="node16" class="node">
<title>r&#45;twang</title>
<g id="a_node16"><a xlink:href="https://github.com/conda-forge/r-twang-feedstock" xlink:title="r twang">
<ellipse fill="#fde725" stroke="black" cx="1864.85" cy="-1294" rx="50.16" ry="18"/>
<text text-anchor="middle" x="1864.85" y="-1289.33" font-family="Times,serif" font-size="14.00">r twang</text>
</a>
</g>
</g>
<!-- xgboost&#45;&gt;r&#45;twang -->
<g id="edge13" class="edge">
<title>xgboost&#45;&gt;r&#45;twang</title>
<path fill="none" stroke="black" d="M1773.14,-1567.3C1792.23,-1558.76 1813.99,-1545.94 1827.85,-1528 1874.61,-1467.47 1872.84,-1371.26 1868.46,-1323.64"/>
<polygon fill="black" stroke="black" points="1871.96,-1323.45 1867.44,-1313.87 1864.99,-1324.18 1871.96,-1323.45"/>
</g>
<!-- r&#45;shapviz -->
<g id="node17" class="node">
<title>r&#45;shapviz</title>
<g id="a_node17"><a xlink:href="https://github.com/conda-forge/r-shapviz-feedstock" xlink:title="r shapviz">
<ellipse fill="#fde725" stroke="black" cx="1942.85" cy="-1222" rx="57" ry="18"/>
<text text-anchor="middle" x="1942.85" y="-1217.33" font-family="Times,serif" font-size="14.00">r shapviz</text>
</a>
</g>
</g>
<!-- xgboost&#45;&gt;r&#45;shapviz -->
<g id="edge14" class="edge">
<title>xgboost&#45;&gt;r&#45;shapviz</title>
<path fill="none" stroke="black" d="M1784.44,-1570.12C1846.3,-1553.5 1942.85,-1515.33 1942.85,-1439 1942.85,-1439 1942.85,-1439 1942.85,-1365 1942.85,-1325.74 1942.85,-1280.38 1942.85,-1251.69"/>
<polygon fill="black" stroke="black" points="1946.35,-1252 1942.85,-1242 1939.35,-1252 1946.35,-1252"/>
</g>
<!-- r&#45;bigsnpr -->
<g id="node18" class="node">
<title>r&#45;bigsnpr</title>
<g id="a_node18"><a xlink:href="https://github.com/conda-forge/r-bigsnpr-feedstock" xlink:title="r bigsnpr">
<ellipse fill="#fde725" stroke="black" cx="2028.85" cy="-1510" rx="57.52" ry="18"/>
<text text-anchor="middle" x="2028.85" y="-1505.33" font-family="Times,serif" font-size="14.00">r bigsnpr</text>
</a>
</g>
</g>
<!-- xgboost&#45;&gt;r&#45;bigsnpr -->
<g id="edge15" class="edge">
<title>xgboost&#45;&gt;r&#45;bigsnpr</title>
<path fill="none" stroke="black" d="M1782.56,-1569.44C1834.92,-1557.02 1918.02,-1537.3 1972.99,-1524.25"/>
<polygon fill="black" stroke="black" points="1973.54,-1527.72 1982.46,-1522.01 1971.92,-1520.91 1973.54,-1527.72"/>
</g>
<!-- r&#45;ecospat -->
<g id="node19" class="node">
<title>r&#45;ecospat</title>
<g id="a_node19"><a xlink:href="https://github.com/conda-forge/r-ecospat-feedstock" xlink:title="r ecospat">
<ellipse fill="#fde725" stroke="black" cx="1202.85" cy="-1366" rx="57.52" ry="18"/>
<text text-anchor="middle" x="1202.85" y="-1361.33" font-family="Times,serif" font-size="14.00">r ecospat</text>
</a>
</g>
</g>
<!-- r&#45;biomod2&#45;&gt;r&#45;ecospat -->
<g id="edge16" class="edge">
<title>r&#45;biomod2&#45;&gt;r&#45;ecospat</title>
<path fill="none" stroke="black" d="M1202.85,-1419.7C1202.85,-1412.41 1202.85,-1403.73 1202.85,-1395.54"/>
<polygon fill="black" stroke="black" points="1206.35,-1395.62 1202.85,-1385.62 1199.35,-1395.62 1206.35,-1395.62"/>
</g>
<!-- r&#45;modeltime.resample -->
<g id="node20" class="node">
<title>r&#45;modeltime.resample</title>
<g id="a_node20"><a xlink:href="https://github.com/conda-forge/r-modeltime.resample-feedstock" xlink:title="r modeltime resample">
<ellipse fill="#fde725" stroke="black" cx="1404.85" cy="-1438" rx="121.71" ry="18"/>
<text text-anchor="middle" x="1404.85" y="-1433.33" font-family="Times,serif" font-size="14.00">r modeltime resample</text>
</a>
</g>
</g>
<!-- r&#45;modeltime&#45;&gt;r&#45;modeltime.resample -->
<g id="edge17" class="edge">
<title>r&#45;modeltime&#45;&gt;r&#45;modeltime.resample</title>
<path fill="none" stroke="black" d="M1509.55,-1493.29C1491.15,-1483.75 1467.38,-1471.42 1447.14,-1460.93"/>
<polygon fill="black" stroke="black" points="1448.76,-1457.83 1438.27,-1456.33 1445.54,-1464.04 1448.76,-1457.83"/>
</g>
<!-- r&#45;modeltime.ensemble -->
<g id="node21" class="node">
<title>r&#45;modeltime.ensemble</title>
<g id="a_node21"><a xlink:href="https://github.com/conda-forge/r-modeltime.ensemble-feedstock" xlink:title="r modeltime ensemble">
<ellipse fill="#fde725" stroke="black" cx="1405.85" cy="-1366" rx="123.29" ry="18"/>
<text text-anchor="middle" x="1405.85" y="-1361.33" font-family="Times,serif" font-size="14.00">r modeltime ensemble</text>
</a>
</g>
</g>
<!-- r&#45;modeltime&#45;&gt;r&#45;modeltime.ensemble -->
<g id="edge18" class="edge">
<title>r&#45;modeltime&#45;&gt;r&#45;modeltime.ensemble</title>
<path fill="none" stroke="black" d="M1544.13,-1491.86C1547.9,-1472.55 1550.74,-1441.11 1535.85,-1420 1524.58,-1404.02 1507.6,-1392.85 1489.59,-1385.04"/>
<polygon fill="black" stroke="black" points="1490.91,-1381.8 1480.32,-1381.38 1488.34,-1388.31 1490.91,-1381.8"/>
</g>
<!-- r&#45;tidyconsultant -->
<g id="node22" class="node">
<title>r&#45;tidyconsultant</title>
<g id="a_node22"><a xlink:href="https://github.com/conda-forge/r-tidyconsultant-feedstock" xlink:title="r tidyconsultant">
<ellipse fill="#fde725" stroke="black" cx="1640.85" cy="-1366" rx="91.19" ry="18"/>
<text text-anchor="middle" x="1640.85" y="-1361.33" font-family="Times,serif" font-size="14.00">r tidyconsultant</text>
</a>
</g>
</g>
<!-- r&#45;tidybins&#45;&gt;r&#45;tidyconsultant -->
<g id="edge19" class="edge">
<title>r&#45;tidybins&#45;&gt;r&#45;tidyconsultant</title>
<path fill="none" stroke="black" d="M1642.36,-1419.7C1642.15,-1412.41 1641.9,-1403.73 1641.67,-1395.54"/>
<polygon fill="black" stroke="black" points="1645.17,-1395.51 1641.38,-1385.62 1638.17,-1395.71 1645.17,-1395.51"/>
</g>
<!-- r&#45;autostats&#45;&gt;r&#45;tidybins -->
<g id="edge20" class="edge">
<title>r&#45;autostats&#45;&gt;r&#45;tidybins</title>
<path fill="none" stroke="black" d="M1712.74,-1492.76C1700.91,-1483.66 1685.96,-1472.16 1672.92,-1462.13"/>
<polygon fill="black" stroke="black" points="1675.1,-1459.39 1665.04,-1456.07 1670.83,-1464.94 1675.1,-1459.39"/>
</g>
<!-- r&#45;autostats&#45;&gt;r&#45;tidyconsultant -->
<g id="edge21" class="edge">
<title>r&#45;autostats&#45;&gt;r&#45;tidyconsultant</title>
<path fill="none" stroke="black" d="M1732.99,-1491.55C1731.31,-1472.53 1726.37,-1441.88 1711.85,-1420 1704.01,-1408.19 1692.61,-1398.01 1681.23,-1389.82"/>
<polygon fill="black" stroke="black" points="1683.25,-1386.96 1673.01,-1384.26 1679.33,-1392.76 1683.25,-1386.96"/>
</g>
<!-- r&#45;vetiver -->
<g id="node23" class="node">
<title>r&#45;vetiver</title>
<g id="a_node23"><a xlink:href="https://github.com/conda-forge/r-vetiver-feedstock" xlink:title="r vetiver">
<ellipse fill="#fde725" stroke="black" cx="1741.85" cy="-1294" rx="54.36" ry="18"/>
<text text-anchor="middle" x="1741.85" y="-1289.33" font-family="Times,serif" font-size="14.00">r vetiver</text>
</a>
</g>
</g>
<!-- r&#45;bundle&#45;&gt;r&#45;vetiver -->
<g id="edge22" class="edge">
<title>r&#45;bundle&#45;&gt;r&#45;vetiver</title>
<path fill="none" stroke="black" d="M1789.16,-1348.41C1781.67,-1339.95 1772.4,-1329.49 1764.06,-1320.08"/>
<polygon fill="black" stroke="black" points="1766.69,-1317.77 1757.44,-1312.6 1761.45,-1322.41 1766.69,-1317.77"/>
</g>
<!-- r&#45;cmprskcoxmsm -->
<g id="node24" class="node">
<title>r&#45;cmprskcoxmsm</title>
<g id="a_node24"><a xlink:href="https://github.com/conda-forge/r-cmprskcoxmsm-feedstock" xlink:title="r cmprskcoxmsm">
<ellipse fill="#fde725" stroke="black" cx="1770.85" cy="-1222" rx="96.98" ry="18"/>
<text text-anchor="middle" x="1770.85" y="-1217.33" font-family="Times,serif" font-size="14.00">r cmprskcoxmsm</text>
</a>
</g>
</g>
<!-- r&#45;twang&#45;&gt;r&#45;cmprskcoxmsm -->
<g id="edge23" class="edge">
<title>r&#45;twang&#45;&gt;r&#45;cmprskcoxmsm</title>
<path fill="none" stroke="black" d="M1843.99,-1277.46C1831.86,-1268.43 1816.32,-1256.86 1802.69,-1246.71"/>
<polygon fill="black" stroke="black" points="1804.95,-1244.03 1794.84,-1240.87 1800.77,-1249.65 1804.95,-1244.03"/>
</g>
<!-- r&#45;modeltime.resample&#45;&gt;r&#45;modeltime.ensemble -->
<g id="edge49" class="edge">
<title>r&#45;modeltime.resample&#45;&gt;r&#45;modeltime.ensemble</title>
<path fill="none" stroke="black" d="M1405.1,-1419.7C1405.2,-1412.41 1405.33,-1403.73 1405.44,-1395.54"/>
<polygon fill="black" stroke="black" points="1408.94,-1395.67 1405.58,-1385.62 1401.94,-1395.57 1408.94,-1395.67"/>
</g>
<!-- go1.4&#45;bootstrap -->
<g id="node26" class="node">
<title>go1.4&#45;bootstrap</title>
<g id="a_node26"><a xlink:href="https://github.com/conda-forge/go1.4-bootstrap-feedstock" xlink:title="go1 4 bootstrap">
<ellipse fill="#000000" stroke="black" cx="2209.24" cy="-1186" rx="90.67" ry="18"/>
<text text-anchor="middle" x="2209.24" y="-1181.33" font-family="Times,serif" font-size="14.00" fill="white">go1 4 bootstrap</text>
</a>
</g>
</g>
<!-- mongo&#45;tools&#45;&gt;go1.4&#45;bootstrap -->
<!-- pyreadr -->
<g id="node27" class="node">
<title>pyreadr</title>
<g id="a_node27"><a xlink:href="https://github.com/conda-forge/pyreadr-feedstock/pull/53" xlink:title="pyreadr ❎">
<ellipse fill="#31688e" stroke="black" cx="2209.24" cy="-1114" rx="65.94" ry="18"/>
<text text-anchor="middle" x="2209.24" y="-1109.33" font-family="Times,serif" font-size="14.00" fill="white">pyreadr ❎</text>
</a>
</g>
</g>
<!-- go1.4&#45;bootstrap&#45;&gt;pyreadr -->
<!-- fossil -->
<g id="node28" class="node">
<title>fossil</title>
<g id="a_node28"><a xlink:href="https://github.com/conda-forge/fossil-feedstock/pull/23" xlink:title="fossil ❎">
<ellipse fill="#31688e" stroke="black" cx="2209.24" cy="-1042" rx="52.79" ry="18"/>
<text text-anchor="middle" x="2209.24" y="-1037.33" font-family="Times,serif" font-size="14.00" fill="white">fossil ❎</text>
</a>
</g>
</g>
<!-- pyreadr&#45;&gt;fossil -->
<!-- yggdrasil -->
<g id="node29" class="node">
<title>yggdrasil</title>
<g id="a_node29"><a xlink:href="https://github.com/conda-forge/yggdrasil-feedstock/pull/47" xlink:title="yggdrasil ❎">
<ellipse fill="#31688e" stroke="black" cx="600.65" cy="-1438" rx="73.3" ry="18"/>
<text text-anchor="middle" x="600.65" y="-1433.33" font-family="Times,serif" font-size="14.00" fill="white">yggdrasil ❎</text>
</a>
</g>
</g>
<!-- libredwg -->
<g id="node30" class="node">
<title>libredwg</title>
<g id="a_node30"><a xlink:href="https://github.com/conda-forge/libredwg-feedstock/pull/91" xlink:title="libredwg ❎">
<ellipse fill="#31688e" stroke="black" cx="1613.48" cy="-998" rx="70.68" ry="18"/>
<text text-anchor="middle" x="1613.48" y="-993.33" font-family="Times,serif" font-size="14.00" fill="white">libredwg ❎</text>
</a>
</g>
</g>
<!-- libxfoil -->
<g id="node31" class="node">
<title>libxfoil</title>
<g id="a_node31"><a xlink:href="https://github.com/conda-forge/libxfoil-feedstock/pull/14" xlink:title="libxfoil ❎">
<ellipse fill="#31688e" stroke="black" cx="1613.48" cy="-926" rx="60.68" ry="18"/>
<text text-anchor="middle" x="1613.48" y="-921.33" font-family="Times,serif" font-size="14.00" fill="white">libxfoil ❎</text>
</a>
</g>
</g>
<!-- libredwg&#45;&gt;libxfoil -->
<!-- pycrlibm -->
<g id="node32" class="node">
<title>pycrlibm</title>
<g id="a_node32"><a xlink:href="https://github.com/conda-forge/pycrlibm-feedstock/pull/11" xlink:title="pycrlibm ❎">
<ellipse fill="#31688e" stroke="black" cx="1613.48" cy="-854" rx="70.68" ry="18"/>
<text text-anchor="middle" x="1613.48" y="-849.33" font-family="Times,serif" font-size="14.00" fill="white">pycrlibm ❎</text>
</a>
</g>
</g>
<!-- libxfoil&#45;&gt;pycrlibm -->
<!-- libbezier -->
<g id="node33" class="node">
<title>libbezier</title>
<g id="a_node33"><a xlink:href="https://github.com/conda-forge/libbezier-feedstock/pull/10" xlink:title="libbezier ❎">
<ellipse fill="#31688e" stroke="black" cx="1613.48" cy="-782" rx="70.15" ry="18"/>
<text text-anchor="middle" x="1613.48" y="-777.33" font-family="Times,serif" font-size="14.00" fill="white">libbezier ❎</text>
</a>
</g>
</g>
<!-- pycrlibm&#45;&gt;libbezier -->
<!-- r&#45;destinie -->
<g id="node34" class="node">
<title>r&#45;destinie</title>
<g id="a_node34"><a xlink:href="https://github.com/conda-forge/r-destinie-feedstock/pull/8" xlink:title="r destinie ❎">
<ellipse fill="#31688e" stroke="black" cx="1613.48" cy="-710" rx="74.36" ry="18"/>
<text text-anchor="middle" x="1613.48" y="-705.33" font-family="Times,serif" font-size="14.00" fill="white">r destinie ❎</text>
</a>
</g>
</g>
<!-- libbezier&#45;&gt;r&#45;destinie -->
<!-- leparagliding -->
<g id="node35" class="node">
<title>leparagliding</title>
<g id="a_node35"><a xlink:href="https://github.com/conda-forge/leparagliding-feedstock/pull/11" xlink:title="leparagliding ❎">
<ellipse fill="#31688e" stroke="black" cx="1613.48" cy="-638" rx="92.77" ry="18"/>
<text text-anchor="middle" x="1613.48" y="-633.33" font-family="Times,serif" font-size="14.00" fill="white">leparagliding ❎</text>
</a>
</g>
</g>
<!-- r&#45;destinie&#45;&gt;leparagliding -->
<!-- ndd -->
<g id="node40" class="node">
<title>ndd</title>
<g id="a_node40"><a xlink:href="https://github.com/conda-forge/ndd-feedstock/pull/13" xlink:title="ndd ❎">
<ellipse fill="#31688e" stroke="black" cx="1613.48" cy="-566" rx="45.42" ry="18"/>
<text text-anchor="middle" x="1613.48" y="-561.33" font-family="Times,serif" font-size="14.00" fill="white">ndd ❎</text>
</a>
</g>
</g>
<!-- leparagliding&#45;&gt;ndd -->
<!-- framel -->
<g id="node36" class="node">
<title>framel</title>
<g id="a_node36"><a xlink:href="https://github.com/conda-forge/framel-feedstock/pull/41" xlink:title="framel ❎">
<ellipse fill="#31688e" stroke="black" cx="2209.24" cy="-162" rx="59.1" ry="18"/>
<text text-anchor="middle" x="2209.24" y="-157.32" font-family="Times,serif" font-size="14.00" fill="white">framel ❎</text>
</a>
</g>
</g>
<!-- frv -->
<g id="node37" class="node">
<title>frv</title>
<g id="a_node37"><a xlink:href="https://github.com/conda-forge/frv-feedstock" xlink:title="frv">
<ellipse fill="#fde725" stroke="black" cx="2209.24" cy="-90" rx="27" ry="18"/>
<text text-anchor="middle" x="2209.24" y="-85.33" font-family="Times,serif" font-size="14.00">frv</text>
</a>
</g>
</g>
<!-- framel&#45;&gt;frv -->
<g id="edge33" class="edge">
<title>framel&#45;&gt;frv</title>
<path fill="none" stroke="black" d="M2209.24,-143.7C2209.24,-136.41 2209.24,-127.73 2209.24,-119.54"/>
<polygon fill="black" stroke="black" points="2212.74,-119.62 2209.24,-109.62 2205.74,-119.62 2212.74,-119.62"/>
</g>
<!-- m2w64&#45;jq -->
<g id="node38" class="node">
<title>m2w64&#45;jq</title>
<g id="a_node38"><a xlink:href="https://github.com/conda-forge/m2w64-jq-feedstock" xlink:title="m2w64 jq">
<ellipse fill="#fde725" stroke="black" cx="1613.48" cy="-90" rx="60.68" ry="18"/>
<text text-anchor="middle" x="1613.48" y="-85.33" font-family="Times,serif" font-size="14.00">m2w64 jq</text>
</a>
</g>
</g>
<!-- m2w64&#45;oniguruma -->
<g id="node39" class="node">
<title>m2w64&#45;oniguruma</title>
<g id="a_node39"><a xlink:href="https://github.com/conda-forge/m2w64-oniguruma-feedstock/pull/1" xlink:title="m2w64 oniguruma ❎">
<ellipse fill="#31688e" stroke="black" cx="1613.48" cy="-162" rx="120.65" ry="18"/>
<text text-anchor="middle" x="1613.48" y="-157.32" font-family="Times,serif" font-size="14.00" fill="white">m2w64 oniguruma ❎</text>
</a>
</g>
</g>
<!-- m2w64&#45;oniguruma&#45;&gt;m2w64&#45;jq -->
<g id="edge34" class="edge">
<title>m2w64&#45;oniguruma&#45;&gt;m2w64&#45;jq</title>
<path fill="none" stroke="black" d="M1613.48,-143.7C1613.48,-136.41 1613.48,-127.73 1613.48,-119.54"/>
<polygon fill="black" stroke="black" points="1616.98,-119.62 1613.48,-109.62 1609.98,-119.62 1616.98,-119.62"/>
</g>
<!-- zoxide -->
<g id="node49" class="node">
<title>zoxide</title>
<g id="a_node49"><a xlink:href="https://github.com/conda-forge/zoxide-feedstock/pull/26" xlink:title="zoxide ❎">
<ellipse fill="#31688e" stroke="black" cx="1613.48" cy="-494" rx="58.57" ry="18"/>
<text text-anchor="middle" x="1613.48" y="-489.32" font-family="Times,serif" font-size="14.00" fill="white">zoxide ❎</text>
</a>
</g>
</g>
<!-- ndd&#45;&gt;zoxide -->
<!-- msmpi -->
<g id="node41" class="node">
<title>msmpi</title>
<g id="a_node41"><a xlink:href="https://github.com/conda-forge/msmpi-feedstock/pull/21" xlink:title="msmpi ❎">
<ellipse fill="#31688e" stroke="black" cx="896.65" cy="-1582" rx="60.15" ry="18"/>
<text text-anchor="middle" x="896.65" y="-1577.33" font-family="Times,serif" font-size="14.00" fill="white">msmpi ❎</text>
</a>
</g>
</g>
<!-- msmpi&#45;&gt;wrf&#45;python -->
<g id="edge36" class="edge">
<title>msmpi&#45;&gt;wrf&#45;python</title>
<path fill="none" stroke="black" d="M931.06,-1566.83C956.87,-1556.21 992.46,-1541.55 1020.7,-1529.92"/>
<polygon fill="black" stroke="black" points="1021.82,-1533.25 1029.73,-1526.2 1019.15,-1526.77 1021.82,-1533.25"/>
</g>
<!-- msmpi&#45;&gt;yggdrasil -->
<g id="edge37" class="edge">
<title>msmpi&#45;&gt;yggdrasil</title>
<path fill="none" stroke="black" d="M838.04,-1577.27C766.11,-1571.46 649.96,-1557.67 619.65,-1528 603.85,-1512.53 599.65,-1487.38 599.09,-1467.75"/>
<polygon fill="black" stroke="black" points="602.59,-1467.91 599.13,-1457.89 595.59,-1467.88 602.59,-1467.91"/>
</g>
<!-- r&#45;downscaler -->
<g id="node42" class="node">
<title>r&#45;downscaler</title>
<g id="a_node42"><a xlink:href="https://github.com/conda-forge/r-downscaler-feedstock" xlink:title="r downscaler">
<ellipse fill="#fde725" stroke="black" cx="496.65" cy="-1510" rx="75.94" ry="18"/>
<text text-anchor="middle" x="496.65" y="-1505.33" font-family="Times,serif" font-size="14.00">r downscaler</text>
</a>
</g>
</g>
<!-- msmpi&#45;&gt;r&#45;downscaler -->
<g id="edge38" class="edge">
<title>msmpi&#45;&gt;r&#45;downscaler</title>
<path fill="none" stroke="black" d="M845.05,-1572.46C783.48,-1562.2 677.47,-1544.34 586.65,-1528 579.77,-1526.76 572.6,-1525.45 565.44,-1524.12"/>
<polygon fill="black" stroke="black" points="566.2,-1520.7 555.73,-1522.31 564.92,-1527.58 566.2,-1520.7"/>
</g>
<!-- climlab&#45;cam3&#45;radiation -->
<g id="node43" class="node">
<title>climlab&#45;cam3&#45;radiation</title>
<g id="a_node43"><a xlink:href="https://github.com/conda-forge/climlab-cam3-radiation-feedstock" xlink:title="climlab cam3 radiation">
<ellipse fill="#fde725" stroke="black" cx="742.65" cy="-1366" rx="125.92" ry="18"/>
<text text-anchor="middle" x="742.65" y="-1361.33" font-family="Times,serif" font-size="14.00">climlab cam3 radiation</text>
</a>
</g>
</g>
<!-- msmpi&#45;&gt;climlab&#45;cam3&#45;radiation -->
<g id="edge39" class="edge">
<title>msmpi&#45;&gt;climlab&#45;cam3&#45;radiation</title>
<path fill="none" stroke="black" d="M886.38,-1563.97C875.3,-1545.83 856.91,-1516.43 839.65,-1492 814.79,-1456.78 783.95,-1417.76 763.81,-1392.84"/>
<polygon fill="black" stroke="black" points="766.63,-1390.75 757.61,-1385.19 761.19,-1395.16 766.63,-1390.75"/>
</g>
<!-- pyfabm -->
<g id="node44" class="node">
<title>pyfabm</title>
<g id="a_node44"><a xlink:href="https://github.com/conda-forge/pyfabm-feedstock" xlink:title="pyfabm">
<ellipse fill="#fde725" stroke="black" cx="857.65" cy="-1294" rx="48.58" ry="18"/>
<text text-anchor="middle" x="857.65" y="-1289.33" font-family="Times,serif" font-size="14.00">pyfabm</text>
</a>
</g>
</g>
<!-- msmpi&#45;&gt;pyfabm -->
<g id="edge40" class="edge">
<title>msmpi&#45;&gt;pyfabm</title>
<path fill="none" stroke="black" d="M896.88,-1563.51C897.03,-1524.37 895.41,-1427 877.65,-1348 875.73,-1339.42 872.71,-1330.38 869.59,-1322.23"/>
<polygon fill="black" stroke="black" points="872.94,-1321.18 865.95,-1313.22 866.45,-1323.8 872.94,-1321.18"/>
</g>
<!-- eatpy -->
<g id="node45" class="node">
<title>eatpy</title>
<g id="a_node45"><a xlink:href="https://github.com/conda-forge/eatpy-feedstock" xlink:title="eatpy">
<ellipse fill="#fde725" stroke="black" cx="972.65" cy="-1222" rx="39.11" ry="18"/>
<text text-anchor="middle" x="972.65" y="-1217.33" font-family="Times,serif" font-size="14.00">eatpy</text>
</a>
</g>
</g>
<!-- msmpi&#45;&gt;eatpy -->
<g id="edge41" class="edge">
<title>msmpi&#45;&gt;eatpy</title>
<path fill="none" stroke="black" d="M912.77,-1564.19C935.08,-1539.09 972.65,-1489.33 972.65,-1439 972.65,-1439 972.65,-1439 972.65,-1365 972.65,-1325.74 972.65,-1280.38 972.65,-1251.69"/>
<polygon fill="black" stroke="black" points="976.15,-1252 972.65,-1242 969.15,-1252 976.15,-1252"/>
</g>
<!-- pygetm -->
<g id="node46" class="node">
<title>pygetm</title>
<g id="a_node46"><a xlink:href="https://github.com/conda-forge/pygetm-feedstock" xlink:title="pygetm">
<ellipse fill="#fde725" stroke="black" cx="862.65" cy="-1222" rx="49.1" ry="18"/>
<text text-anchor="middle" x="862.65" y="-1217.33" font-family="Times,serif" font-size="14.00">pygetm</text>
</a>
</g>
</g>
<!-- msmpi&#45;&gt;pygetm -->
<g id="edge42" class="edge">
<title>msmpi&#45;&gt;pygetm</title>
<path fill="none" stroke="black" d="M904.34,-1563.91C915.45,-1537.62 934.65,-1485.45 934.65,-1439 934.65,-1439 934.65,-1439 934.65,-1365 934.65,-1324.55 934.97,-1311.54 915.65,-1276 909.67,-1265 900.7,-1254.78 891.83,-1246.3"/>
<polygon fill="black" stroke="black" points="894.35,-1243.86 884.58,-1239.76 889.66,-1249.06 894.35,-1243.86"/>
</g>
<!-- r&#45;climate4r -->
<g id="node47" class="node">
<title>r&#45;climate4r</title>
<g id="a_node47"><a xlink:href="https://github.com/conda-forge/r-climate4r-feedstock" xlink:title="r climate4r">
<ellipse fill="#fde725" stroke="black" cx="432.65" cy="-1366" rx="66.99" ry="18"/>
<text text-anchor="middle" x="432.65" y="-1361.33" font-family="Times,serif" font-size="14.00">r climate4r</text>
</a>
</g>
</g>
<!-- r&#45;downscaler&#45;&gt;r&#45;climate4r -->
<g id="edge43" class="edge">
<title>r&#45;downscaler&#45;&gt;r&#45;climate4r</title>
<path fill="none" stroke="black" d="M496.34,-1491.73C495.38,-1473.13 492.01,-1443.11 480.65,-1420 475.53,-1409.58 467.75,-1399.7 459.93,-1391.36"/>
<polygon fill="black" stroke="black" points="462.48,-1388.96 452.95,-1384.33 457.51,-1393.89 462.48,-1388.96"/>
</g>
<!-- r&#45;downscaler.keras -->
<g id="node48" class="node">
<title>r&#45;downscaler.keras</title>
<g id="a_node48"><a xlink:href="https://github.com/conda-forge/r-downscaler.keras-feedstock" xlink:title="r downscaler keras">
<ellipse fill="#fde725" stroke="black" cx="365.65" cy="-1438" rx="106.45" ry="18"/>
<text text-anchor="middle" x="365.65" y="-1433.33" font-family="Times,serif" font-size="14.00">r downscaler keras</text>
</a>
</g>
</g>
<!-- r&#45;downscaler&#45;&gt;r&#45;downscaler.keras -->
<g id="edge44" class="edge">
<title>r&#45;downscaler&#45;&gt;r&#45;downscaler.keras</title>
<path fill="none" stroke="black" d="M466.93,-1493.12C449.14,-1483.61 426.27,-1471.39 406.77,-1460.97"/>
<polygon fill="black" stroke="black" points="408.43,-1457.89 397.96,-1456.26 405.13,-1464.06 408.43,-1457.89"/>
</g>
<!-- pyfabm&#45;&gt;pygetm -->
<g id="edge45" class="edge">
<title>pyfabm&#45;&gt;pygetm</title>
<path fill="none" stroke="black" d="M858.89,-1275.7C859.41,-1268.41 860.03,-1259.73 860.62,-1251.54"/>
<polygon fill="black" stroke="black" points="864.1,-1251.84 861.32,-1241.61 857.12,-1251.34 864.1,-1251.84"/>
</g>
<!-- r&#45;downscaler.keras&#45;&gt;r&#45;climate4r -->
<g id="edge55" class="edge">
<title>r&#45;downscaler.keras&#45;&gt;r&#45;climate4r</title>
<path fill="none" stroke="black" d="M381.87,-1420.05C389.94,-1411.63 399.84,-1401.28 408.76,-1391.97"/>
<polygon fill="black" stroke="black" points="411.15,-1394.53 415.54,-1384.88 406.1,-1389.69 411.15,-1394.53"/>
</g>
<!-- flash -->
<g id="node50" class="node">
<title>flash</title>
<g id="a_node50"><a xlink:href="https://github.com/conda-forge/flash-feedstock/pull/3" xlink:title="flash ❎">
<ellipse fill="#31688e" stroke="black" cx="1613.48" cy="-422" rx="50.16" ry="18"/>
<text text-anchor="middle" x="1613.48" y="-417.32" font-family="Times,serif" font-size="14.00" fill="white">flash ❎</text>
</a>
</g>
</g>
<!-- zoxide&#45;&gt;flash -->
<!-- jasp -->
<g id="node51" class="node">
<title>jasp</title>
<g id="a_node51"><a xlink:href="https://github.com/conda-forge/jasp-feedstock/pull/29" xlink:title="jasp ❎">
<ellipse fill="#31688e" stroke="black" cx="1613.48" cy="-350" rx="47" ry="18"/>
<text text-anchor="middle" x="1613.48" y="-345.32" font-family="Times,serif" font-size="14.00" fill="white">jasp ❎</text>
</a>
</g>
</g>
<!-- flash&#45;&gt;jasp -->
<!-- crabz -->
<g id="node52" class="node">
<title>crabz</title>
<g id="a_node52"><a xlink:href="https://github.com/conda-forge/crabz-feedstock/pull/13" xlink:title="crabz ❎">
<ellipse fill="#31688e" stroke="black" cx="1613.48" cy="-278" rx="53.84" ry="18"/>
<text text-anchor="middle" x="1613.48" y="-273.32" font-family="Times,serif" font-size="14.00" fill="white">crabz ❎</text>
</a>
</g>
</g>
<!-- jasp&#45;&gt;crabz -->
<!-- hck -->
<g id="node53" class="node">
<title>hck</title>
<g id="a_node53"><a xlink:href="https://github.com/conda-forge/hck-feedstock/pull/16" xlink:title="hck ❎">
<ellipse fill="#31688e" stroke="black" cx="566.3" cy="-998" rx="43.84" ry="18"/>
<text text-anchor="middle" x="566.3" y="-993.33" font-family="Times,serif" font-size="14.00" fill="white">hck ❎</text>
</a>
</g>
</g>
<!-- reasonable -->
<g id="node54" class="node">
<title>reasonable</title>
<g id="a_node54"><a xlink:href="https://github.com/conda-forge/reasonable-feedstock/pull/20" xlink:title="reasonable ❎">
<ellipse fill="#31688e" stroke="black" cx="566.3" cy="-926" rx="81.2" ry="18"/>
<text text-anchor="middle" x="566.3" y="-921.33" font-family="Times,serif" font-size="14.00" fill="white">reasonable ❎</text>
</a>
</g>
</g>
<!-- hck&#45;&gt;reasonable -->
<!-- climlab&#45;rrtmg -->
<g id="node55" class="node">
<title>climlab&#45;rrtmg</title>
<g id="a_node55"><a xlink:href="https://github.com/conda-forge/climlab-rrtmg-feedstock/pull/8" xlink:title="climlab rrtmg ❎">
<ellipse fill="#31688e" stroke="black" cx="566.3" cy="-854" rx="95.4" ry="18"/>
<text text-anchor="middle" x="566.3" y="-849.33" font-family="Times,serif" font-size="14.00" fill="white">climlab rrtmg ❎</text>
</a>
</g>
</g>
<!-- reasonable&#45;&gt;climlab&#45;rrtmg -->
<!-- libdlfind -->
<g id="node56" class="node">
<title>libdlfind</title>
<g id="a_node56"><a xlink:href="https://github.com/conda-forge/libdlfind-feedstock/pull/7" xlink:title="libdlfind ✓">
<ellipse fill="#31688e" stroke="black" cx="566.3" cy="-782" rx="60.15" ry="18"/>
<text text-anchor="middle" x="566.3" y="-777.33" font-family="Times,serif" font-size="14.00" fill="white">libdlfind ✓</text>
</a>
</g>
</g>
<!-- climlab&#45;rrtmg&#45;&gt;libdlfind -->
<!-- r&#45;metamix -->
<g id="node59" class="node">
<title>r&#45;metamix</title>
<g id="a_node59"><a xlink:href="https://github.com/conda-forge/r-metamix-feedstock/pull/3" xlink:title="r metamix ❎">
<ellipse fill="#31688e" stroke="black" cx="566.3" cy="-710" rx="78.04" ry="18"/>
<text text-anchor="middle" x="566.3" y="-705.33" font-family="Times,serif" font-size="14.00" fill="white">r metamix ❎</text>
</a>
</g>
</g>
<!-- libdlfind&#45;&gt;r&#45;metamix -->
<!-- r&#45;climate4r.indices -->
<g id="node57" class="node">
<title>r&#45;climate4r.indices</title>
<g id="a_node57"><a xlink:href="https://github.com/conda-forge/r-climate4r.indices-feedstock/pull/8" xlink:title="r climate4r indices ❎">
<ellipse fill="#31688e" stroke="black" cx="120.65" cy="-1438" rx="120.65" ry="18"/>
<text text-anchor="middle" x="120.65" y="-1433.33" font-family="Times,serif" font-size="14.00" fill="white">r climate4r indices ❎</text>
</a>
</g>
</g>
<!-- r&#45;climate4r.indices&#45;&gt;r&#45;climate4r -->
<g id="edge54" class="edge">
<title>r&#45;climate4r.indices&#45;&gt;r&#45;climate4r</title>
<path fill="none" stroke="black" d="M185.68,-1422.41C240.37,-1410.14 317.98,-1392.73 371.54,-1380.71"/>
<polygon fill="black" stroke="black" points="372.12,-1384.17 381.11,-1378.56 370.59,-1377.34 372.12,-1384.17"/>
</g>
<!-- r&#45;geoprocessor -->
<g id="node58" class="node">
<title>r&#45;geoprocessor</title>
<g id="a_node58"><a xlink:href="https://github.com/conda-forge/r-geoprocessor-feedstock/pull/7" xlink:title="r geoprocessor ❎">
<ellipse fill="#31688e" stroke="black" cx="729.65" cy="-1510" rx="101.19" ry="18"/>
<text text-anchor="middle" x="729.65" y="-1505.33" font-family="Times,serif" font-size="14.00" fill="white">r geoprocessor ❎</text>
</a>
</g>
</g>
<!-- r&#45;geoprocessor&#45;&gt;r&#45;climate4r -->
<g id="edge56" class="edge">
<title>r&#45;geoprocessor&#45;&gt;r&#45;climate4r</title>
<path fill="none" stroke="black" d="M725.33,-1491.68C719.31,-1471.28 706.36,-1437.9 682.65,-1420 655.06,-1399.16 568.37,-1384.04 504.79,-1375.41"/>
<polygon fill="black" stroke="black" points="505.48,-1371.97 495.1,-1374.13 504.55,-1378.91 505.48,-1371.97"/>
</g>
<!-- wdmtoolbox -->
<g id="node60" class="node">
<title>wdmtoolbox</title>
<g id="a_node60"><a xlink:href="https://github.com/conda-forge/wdmtoolbox-feedstock/pull/22" xlink:title="wdmtoolbox ❎">
<ellipse fill="#31688e" stroke="black" cx="566.3" cy="-638" rx="87.51" ry="18"/>
<text text-anchor="middle" x="566.3" y="-633.33" font-family="Times,serif" font-size="14.00" fill="white">wdmtoolbox ❎</text>
</a>
</g>
</g>
<!-- r&#45;metamix&#45;&gt;wdmtoolbox -->
<!-- gilknocker -->
<g id="node61" class="node">
<title>gilknocker</title>
<g id="a_node61"><a xlink:href="https://github.com/conda-forge/gilknocker-feedstock/pull/10" xlink:title="gilknocker ❎">
<ellipse fill="#31688e" stroke="black" cx="566.3" cy="-566" rx="78.57" ry="18"/>
<text text-anchor="middle" x="566.3" y="-561.33" font-family="Times,serif" font-size="14.00" fill="white">gilknocker ❎</text>
</a>
</g>
</g>
<!-- wdmtoolbox&#45;&gt;gilknocker -->
<!-- pcmsolver&#45;split -->
<g id="node62" class="node">
<title>pcmsolver&#45;split</title>
<g id="a_node62"><a xlink:href="https://github.com/conda-forge/pcmsolver-split-feedstock/pull/26" xlink:title="pcmsolver split ❎">
<ellipse fill="#31688e" stroke="black" cx="566.3" cy="-494" rx="103.29" ry="18"/>
<text text-anchor="middle" x="566.3" y="-489.32" font-family="Times,serif" font-size="14.00" fill="white">pcmsolver split ❎</text>
</a>
</g>
</g>
<!-- gilknocker&#45;&gt;pcmsolver&#45;split -->
<!-- gdma -->
<g id="node63" class="node">
<title>gdma</title>
<g id="a_node63"><a xlink:href="https://github.com/conda-forge/gdma-feedstock/pull/9" xlink:title="gdma ❎">
<ellipse fill="#31688e" stroke="black" cx="566.3" cy="-422" rx="54.36" ry="18"/>
<text text-anchor="middle" x="566.3" y="-417.32" font-family="Times,serif" font-size="14.00" fill="white">gdma ❎</text>
</a>
</g>
</g>
<!-- pcmsolver&#45;split&#45;&gt;gdma -->
<!-- prima -->
<g id="node64" class="node">
<title>prima</title>
<g id="a_node64"><a xlink:href="https://github.com/conda-forge/prima-feedstock/pull/6" xlink:title="prima ❎">
<ellipse fill="#31688e" stroke="black" cx="566.3" cy="-350" rx="55.94" ry="18"/>
<text text-anchor="middle" x="566.3" y="-345.32" font-family="Times,serif" font-size="14.00" fill="white">prima ❎</text>
</a>
</g>
</g>
<!-- gdma&#45;&gt;prima -->
<!-- b3sum -->
<g id="node65" class="node">
<title>b3sum</title>
<g id="a_node65"><a xlink:href="https://github.com/conda-forge/b3sum-feedstock/pull/7" xlink:title="b3sum ❎">
<ellipse fill="#31688e" stroke="black" cx="566.3" cy="-278" rx="60.15" ry="18"/>
<text text-anchor="middle" x="566.3" y="-273.32" font-family="Times,serif" font-size="14.00" fill="white">b3sum ❎</text>
</a>
</g>
</g>
<!-- prima&#45;&gt;b3sum -->
<!-- xeus&#45;r -->
<g id="node66" class="node">
<title>xeus&#45;r</title>
<g id="a_node66"><a xlink:href="https://github.com/conda-forge/xeus-r-feedstock/pull/9" xlink:title="xeus r ❎">
<ellipse fill="#31688e" stroke="black" cx="2209.24" cy="-854" rx="57.52" ry="18"/>
<text text-anchor="middle" x="2209.24" y="-849.33" font-family="Times,serif" font-size="14.00" fill="white">xeus r ❎</text>
</a>
</g>
</g>
<!-- libcramjam -->
<g id="node67" class="node">
<title>libcramjam</title>
<g id="a_node67"><a xlink:href="https://github.com/conda-forge/libcramjam-feedstock/pull/11" xlink:title="libcramjam ✓">
<ellipse fill="#31688e" stroke="black" cx="2209.24" cy="-782" rx="75.41" ry="18"/>
<text text-anchor="middle" x="2209.24" y="-777.33" font-family="Times,serif" font-size="14.00" fill="white">libcramjam ✓</text>
</a>
</g>
</g>
<!-- xeus&#45;r&#45;&gt;libcramjam -->
<!-- sqlx&#45;cli -->
<g id="node68" class="node">
<title>sqlx&#45;cli</title>
<g id="a_node68"><a xlink:href="https://github.com/conda-forge/sqlx-cli-feedstock/pull/7" xlink:title="sqlx cli ❎">
<ellipse fill="#31688e" stroke="black" cx="2209.24" cy="-710" rx="61.73" ry="18"/>
<text text-anchor="middle" x="2209.24" y="-705.33" font-family="Times,serif" font-size="14.00" fill="white">sqlx cli ❎</text>
</a>
</g>
</g>
<!-- libcramjam&#45;&gt;sqlx&#45;cli -->
<!-- dimad -->
<g id="node73" class="node">
<title>dimad</title>
<g id="a_node73"><a xlink:href="https://github.com/conda-forge/dimad-feedstock/pull/4" xlink:title="dimad ❎">
<ellipse fill="#31688e" stroke="black" cx="2209.24" cy="-638" rx="57.52" ry="18"/>
<text text-anchor="middle" x="2209.24" y="-633.33" font-family="Times,serif" font-size="14.00" fill="white">dimad ❎</text>
</a>
</g>
</g>
<!-- sqlx&#45;cli&#45;&gt;dimad -->
<!-- r&#45;nanonext -->
<g id="node69" class="node">
<title>r&#45;nanonext</title>
<g id="a_node69"><a xlink:href="https://github.com/conda-forge/r-nanonext-feedstock/pull/16" xlink:title="r nanonext ❎">
<ellipse fill="#31688e" stroke="black" cx="565.69" cy="-234" rx="80.67" ry="18"/>
<text text-anchor="middle" x="565.69" y="-229.32" font-family="Times,serif" font-size="14.00" fill="white">r nanonext ❎</text>
</a>
</g>
</g>
<!-- r&#45;crew -->
<g id="node70" class="node">
<title>r&#45;crew</title>
<g id="a_node70"><a xlink:href="https://github.com/conda-forge/r-crew-feedstock" xlink:title="r crew">
<ellipse fill="#fde725" stroke="black" cx="565.69" cy="-90" rx="43.32" ry="18"/>
<text text-anchor="middle" x="565.69" y="-85.33" font-family="Times,serif" font-size="14.00">r crew</text>
</a>
</g>
</g>
<!-- r&#45;nanonext&#45;&gt;r&#45;crew -->
<g id="edge66" class="edge">
<title>r&#45;nanonext&#45;&gt;r&#45;crew</title>
<path fill="none" stroke="black" d="M558.62,-215.67C554.85,-205.47 550.6,-192.22 548.69,-180 546.21,-164.19 546.21,-159.81 548.69,-144 550.01,-135.56 552.44,-126.64 555.06,-118.56"/>
<polygon fill="black" stroke="black" points="558.31,-119.88 558.3,-109.29 551.7,-117.58 558.31,-119.88"/>
</g>
<!-- r&#45;mirai -->
<g id="node71" class="node">
<title>r&#45;mirai</title>
<g id="a_node71"><a xlink:href="https://github.com/conda-forge/r-mirai-feedstock" xlink:title="r mirai">
<ellipse fill="#fde725" stroke="black" cx="602.69" cy="-162" rx="45.42" ry="18"/>
<text text-anchor="middle" x="602.69" y="-157.32" font-family="Times,serif" font-size="14.00">r mirai</text>
</a>
</g>
</g>
<!-- r&#45;nanonext&#45;&gt;r&#45;mirai -->
<g id="edge67" class="edge">
<title>r&#45;nanonext&#45;&gt;r&#45;mirai</title>
<path fill="none" stroke="black" d="M574.83,-215.7C578.91,-207.98 583.81,-198.71 588.35,-190.11"/>
<polygon fill="black" stroke="black" points="591.36,-191.92 592.94,-181.44 585.17,-188.65 591.36,-191.92"/>
</g>
<!-- r&#45;crew.cluster -->
<g id="node72" class="node">
<title>r&#45;crew.cluster</title>
<g id="a_node72"><a xlink:href="https://github.com/conda-forge/r-crew.cluster-feedstock" xlink:title="r crew cluster">
<ellipse fill="#fde725" stroke="black" cx="565.69" cy="-18" rx="81.2" ry="18"/>
<text text-anchor="middle" x="565.69" y="-13.32" font-family="Times,serif" font-size="14.00">r crew cluster</text>
</a>
</g>
</g>
<!-- r&#45;crew&#45;&gt;r&#45;crew.cluster -->
<g id="edge68" class="edge">
<title>r&#45;crew&#45;&gt;r&#45;crew.cluster</title>
<path fill="none" stroke="black" d="M565.69,-71.7C565.69,-64.41 565.69,-55.73 565.69,-47.54"/>
<polygon fill="black" stroke="black" points="569.19,-47.62 565.69,-37.62 562.19,-47.62 569.19,-47.62"/>
</g>
<!-- r&#45;mirai&#45;&gt;r&#45;crew -->
<g id="edge69" class="edge">
<title>r&#45;mirai&#45;&gt;r&#45;crew</title>
<path fill="none" stroke="black" d="M593.73,-144.05C589.55,-136.14 584.47,-126.54 579.79,-117.69"/>
<polygon fill="black" stroke="black" points="583.03,-116.33 575.27,-109.13 576.85,-119.6 583.03,-116.33"/>
</g>
<!-- r&#45;volumodel -->
<g id="node74" class="node">
<title>r&#45;volumodel</title>
<g id="a_node74"><a xlink:href="https://github.com/conda-forge/r-volumodel-feedstock/pull/2" xlink:title="r volumodel ❎">
<ellipse fill="#31688e" stroke="black" cx="2209.24" cy="-566" rx="85.93" ry="18"/>
<text text-anchor="middle" x="2209.24" y="-561.33" font-family="Times,serif" font-size="14.00" fill="white">r volumodel ❎</text>
</a>
</g>
</g>
<!-- dimad&#45;&gt;r&#45;volumodel -->
<!-- mystran -->
<g id="node75" class="node">
<title>mystran</title>
<g id="a_node75"><a xlink:href="https://github.com/conda-forge/mystran-feedstock/pull/3" xlink:title="mystran ❎">
<ellipse fill="#31688e" stroke="black" cx="2209.24" cy="-494" rx="68.04" ry="18"/>
<text text-anchor="middle" x="2209.24" y="-489.32" font-family="Times,serif" font-size="14.00" fill="white">mystran ❎</text>
</a>
</g>
</g>
<!-- r&#45;volumodel&#45;&gt;mystran -->
<!-- sixs_json -->
<g id="node76" class="node">
<title>sixs_json</title>
<g id="a_node76"><a xlink:href="https://github.com/conda-forge/sixs_json-feedstock/pull/3" xlink:title="sixs_json ❎">
<ellipse fill="#31688e" stroke="black" cx="2209.24" cy="-422" rx="71.2" ry="18"/>
<text text-anchor="middle" x="2209.24" y="-417.32" font-family="Times,serif" font-size="14.00" fill="white">sixs_json ❎</text>
</a>
</g>
</g>
<!-- mystran&#45;&gt;sixs_json -->
</g>
</svg>
