<?xml version="1.0" encoding="UTF-8" standalone="no"?>
<!DOCTYPE svg PUBLIC "-//W3C//DTD SVG 1.1//EN"
 "http://www.w3.org/Graphics/SVG/1.1/DTD/svg11.dtd">
<!-- Generated by graphviz version 12.0.0 (20240803.0821)
 -->
<!-- Pages: 1 -->
<svg width="2302pt" height="1788pt"
 viewBox="0.00 0.00 2301.85 1788.00" xmlns="http://www.w3.org/2000/svg" xmlns:xlink="http://www.w3.org/1999/xlink">
<g id="graph0" class="graph" transform="scale(1 1) rotate(0) translate(4 1784)">
<polygon fill="white" stroke="none" points="-4,4 -4,-1784 2297.85,-1784 2297.85,4 -4,4"/>
<!-- iverilog -->
<g id="node1" class="node">
<title>iverilog</title>
<g id="a_node1"><a xlink:href="https://github.com/conda-forge/iverilog-feedstock/pull/25" xlink:title="iverilog ❎">
<ellipse fill="#31688e" stroke="black" cx="2178.98" cy="-1762" rx="64.36" ry="18"/>
<text text-anchor="middle" x="2178.98" y="-1757.33" font-family="Times,serif" font-size="14.00" fill="white">iverilog ❎</text>
</a>
</g>
</g>
<!-- libidn11 -->
<g id="node2" class="node">
<title>libidn11</title>
<g id="a_node2"><a xlink:href="https://github.com/conda-forge/libidn11-feedstock/pull/13" xlink:title="libidn11 ❎">
<ellipse fill="#31688e" stroke="black" cx="2178.98" cy="-1690" rx="67.52" ry="18"/>
<text text-anchor="middle" x="2178.98" y="-1685.33" font-family="Times,serif" font-size="14.00" fill="white">libidn11 ❎</text>
</a>
</g>
</g>
<!-- iverilog&#45;&gt;libidn11 -->
<!-- m2w64&#45;muparser -->
<g id="node3" class="node">
<title>m2w64&#45;muparser</title>
<g id="a_node3"><a xlink:href="https://github.com/conda-forge/m2w64-muparser-feedstock/pull/13" xlink:title="m2w64 muparser ❎">
<ellipse fill="#31688e" stroke="black" cx="2178.98" cy="-1618" rx="114.87" ry="18"/>
<text text-anchor="middle" x="2178.98" y="-1613.33" font-family="Times,serif" font-size="14.00" fill="white">m2w64 muparser ❎</text>
</a>
</g>
</g>
<!-- libidn11&#45;&gt;m2w64&#45;muparser -->
<!-- pigz -->
<g id="node4" class="node">
<title>pigz</title>
<g id="a_node4"><a xlink:href="https://github.com/conda-forge/pigz-feedstock/pull/23" xlink:title="pigz ❎">
<ellipse fill="#31688e" stroke="black" cx="2178.98" cy="-1546" rx="47.53" ry="18"/>
<text text-anchor="middle" x="2178.98" y="-1541.33" font-family="Times,serif" font-size="14.00" fill="white">pigz ❎</text>
</a>
</g>
</g>
<!-- m2w64&#45;muparser&#45;&gt;pigz -->
<!-- rpy2 -->
<g id="node5" class="node">
<title>rpy2</title>
<g id="a_node5"><a xlink:href="https://github.com/conda-forge/rpy2-feedstock/pull/126" xlink:title="rpy2 ❎">
<ellipse fill="#31688e" stroke="black" cx="2178.98" cy="-1474" rx="49.63" ry="18"/>
<text text-anchor="middle" x="2178.98" y="-1469.33" font-family="Times,serif" font-size="14.00" fill="white">rpy2 ❎</text>
</a>
</g>
</g>
<!-- pigz&#45;&gt;rpy2 -->
<!-- sixs -->
<g id="node6" class="node">
<title>sixs</title>
<g id="a_node6"><a xlink:href="https://github.com/conda-forge/sixs-feedstock/pull/17" xlink:title="sixs ❎">
<ellipse fill="#31688e" stroke="black" cx="2178.98" cy="-1402" rx="45.95" ry="18"/>
<text text-anchor="middle" x="2178.98" y="-1397.33" font-family="Times,serif" font-size="14.00" fill="white">sixs ❎</text>
</a>
</g>
</g>
<!-- rpy2&#45;&gt;sixs -->
<!-- perl&#45;sys&#45;cpu -->
<g id="node7" class="node">
<title>perl&#45;sys&#45;cpu</title>
<g id="a_node7"><a xlink:href="https://github.com/conda-forge/perl-sys-cpu-feedstock/pull/5" xlink:title="perl sys cpu ❎">
<ellipse fill="#31688e" stroke="black" cx="2178.98" cy="-1330" rx="86.98" ry="18"/>
<text text-anchor="middle" x="2178.98" y="-1325.33" font-family="Times,serif" font-size="14.00" fill="white">perl sys cpu ❎</text>
</a>
</g>
</g>
<!-- sixs&#45;&gt;perl&#45;sys&#45;cpu -->
<!-- mongo&#45;tools -->
<g id="node25" class="node">
<title>mongo&#45;tools</title>
<g id="a_node25"><a xlink:href="https://github.com/conda-forge/mongo-tools-feedstock/pull/51" xlink:title="mongo tools ❎">
<ellipse fill="#31688e" stroke="black" cx="2178.98" cy="-1258" rx="87.51" ry="18"/>
<text text-anchor="middle" x="2178.98" y="-1253.33" font-family="Times,serif" font-size="14.00" fill="white">mongo tools ❎</text>
</a>
</g>
</g>
<!-- perl&#45;sys&#45;cpu&#45;&gt;mongo&#45;tools -->
<!-- wrf&#45;python -->
<g id="node8" class="node">
<title>wrf&#45;python</title>
<g id="a_node8"><a xlink:href="https://github.com/conda-forge/wrf-python-feedstock" xlink:title="wrf python">
<ellipse fill="#fde725" stroke="black" cx="1036.4" cy="-1510" rx="65.94" ry="18"/>
<text text-anchor="middle" x="1036.4" y="-1505.33" font-family="Times,serif" font-size="14.00">wrf python</text>
</a>
</g>
</g>
<!-- xgboost -->
<g id="node9" class="node">
<title>xgboost</title>
<g id="a_node9"><a xlink:href="https://github.com/conda-forge/xgboost-feedstock/pull/177" xlink:title="xgboost ❎">
<ellipse fill="#31688e" stroke="black" cx="1703.59" cy="-1582" rx="65.94" ry="18"/>
<text text-anchor="middle" x="1703.59" y="-1577.33" font-family="Times,serif" font-size="14.00" fill="white">xgboost ❎</text>
</a>
</g>
</g>
<!-- r&#45;mikropml -->
<g id="node10" class="node">
<title>r&#45;mikropml</title>
<g id="a_node10"><a xlink:href="https://github.com/conda-forge/r-mikropml-feedstock" xlink:title="r mikropml">
<ellipse fill="#fde725" stroke="black" cx="1314.59" cy="-1510" rx="66.99" ry="18"/>
<text text-anchor="middle" x="1314.59" y="-1505.33" font-family="Times,serif" font-size="14.00">r mikropml</text>
</a>
</g>
</g>
<!-- xgboost&#45;&gt;r&#45;mikropml -->
<g id="edge7" class="edge">
<title>xgboost&#45;&gt;r&#45;mikropml</title>
<path fill="none" stroke="black" d="M1647.84,-1572.03C1586.06,-1561.95 1483.53,-1544.79 1395.59,-1528 1389.35,-1526.81 1382.85,-1525.52 1376.37,-1524.21"/>
<polygon fill="black" stroke="black" points="1377.5,-1520.87 1367.01,-1522.29 1376.1,-1527.73 1377.5,-1520.87"/>
</g>
<!-- r&#45;biomod2 -->
<g id="node11" class="node">
<title>r&#45;biomod2</title>
<g id="a_node11"><a xlink:href="https://github.com/conda-forge/r-biomod2-feedstock" xlink:title="r biomod2">
<ellipse fill="#fde725" stroke="black" cx="1172.59" cy="-1438" rx="62.26" ry="18"/>
<text text-anchor="middle" x="1172.59" y="-1433.33" font-family="Times,serif" font-size="14.00">r biomod2</text>
</a>
</g>
</g>
<!-- xgboost&#45;&gt;r&#45;biomod2 -->
<g id="edge8" class="edge">
<title>xgboost&#45;&gt;r&#45;biomod2</title>
<path fill="none" stroke="black" d="M1638.29,-1578.69C1580.35,-1574.32 1494.88,-1562.04 1428.59,-1528 1407.9,-1517.37 1411.03,-1503.12 1390.59,-1492 1388.79,-1491.02 1294.51,-1468.27 1230.54,-1452.9"/>
<polygon fill="black" stroke="black" points="1231.39,-1449.5 1220.85,-1450.57 1229.75,-1456.31 1231.39,-1449.5"/>
</g>
<!-- r&#45;modeltime -->
<g id="node12" class="node">
<title>r&#45;modeltime</title>
<g id="a_node12"><a xlink:href="https://github.com/conda-forge/r-modeltime-feedstock" xlink:title="r modeltime">
<ellipse fill="#fde725" stroke="black" cx="1509.59" cy="-1510" rx="72.25" ry="18"/>
<text text-anchor="middle" x="1509.59" y="-1505.33" font-family="Times,serif" font-size="14.00">r modeltime</text>
</a>
</g>
</g>
<!-- xgboost&#45;&gt;r&#45;modeltime -->
<g id="edge9" class="edge">
<title>xgboost&#45;&gt;r&#45;modeltime</title>
<path fill="none" stroke="black" d="M1664.8,-1567C1634.7,-1556.14 1592.73,-1541 1560.02,-1529.2"/>
<polygon fill="black" stroke="black" points="1561.34,-1525.95 1550.74,-1525.85 1558.96,-1532.53 1561.34,-1525.95"/>
</g>
<!-- r&#45;tidybins -->
<g id="node13" class="node">
<title>r&#45;tidybins</title>
<g id="a_node13"><a xlink:href="https://github.com/conda-forge/r-tidybins-feedstock" xlink:title="r tidybins">
<ellipse fill="#fde725" stroke="black" cx="1612.59" cy="-1438" rx="59.63" ry="18"/>
<text text-anchor="middle" x="1612.59" y="-1433.33" font-family="Times,serif" font-size="14.00">r tidybins</text>
</a>
</g>
</g>
<!-- xgboost&#45;&gt;r&#45;tidybins -->
<g id="edge10" class="edge">
<title>xgboost&#45;&gt;r&#45;tidybins</title>
<path fill="none" stroke="black" d="M1671.66,-1565.91C1656.27,-1557.01 1638.95,-1544.28 1628.59,-1528 1617.18,-1510.07 1613.37,-1486.22 1612.3,-1467.73"/>
<polygon fill="black" stroke="black" points="1615.81,-1467.86 1612,-1457.97 1608.81,-1468.08 1615.81,-1467.86"/>
</g>
<!-- r&#45;autostats -->
<g id="node14" class="node">
<title>r&#45;autostats</title>
<g id="a_node14"><a xlink:href="https://github.com/conda-forge/r-autostats-feedstock" xlink:title="r autostats">
<ellipse fill="#fde725" stroke="black" cx="1703.59" cy="-1510" rx="65.94" ry="18"/>
<text text-anchor="middle" x="1703.59" y="-1505.33" font-family="Times,serif" font-size="14.00">r autostats</text>
</a>
</g>
</g>
<!-- xgboost&#45;&gt;r&#45;autostats -->
<g id="edge11" class="edge">
<title>xgboost&#45;&gt;r&#45;autostats</title>
<path fill="none" stroke="black" d="M1703.59,-1563.7C1703.59,-1556.41 1703.59,-1547.73 1703.59,-1539.54"/>
<polygon fill="black" stroke="black" points="1707.09,-1539.62 1703.59,-1529.62 1700.09,-1539.62 1707.09,-1539.62"/>
</g>
<!-- r&#45;bundle -->
<g id="node15" class="node">
<title>r&#45;bundle</title>
<g id="a_node15"><a xlink:href="https://github.com/conda-forge/r-bundle-feedstock" xlink:title="r bundle">
<ellipse fill="#fde725" stroke="black" cx="1773.59" cy="-1366" rx="53.31" ry="18"/>
<text text-anchor="middle" x="1773.59" y="-1361.33" font-family="Times,serif" font-size="14.00">r bundle</text>
</a>
</g>
</g>
<!-- xgboost&#45;&gt;r&#45;bundle -->
<g id="edge12" class="edge">
<title>xgboost&#45;&gt;r&#45;bundle</title>
<path fill="none" stroke="black" d="M1737.55,-1566.19C1753.05,-1557.49 1769.87,-1544.85 1778.59,-1528 1800.45,-1485.79 1791.08,-1428.66 1782.31,-1395.03"/>
<polygon fill="black" stroke="black" points="1785.75,-1394.33 1779.7,-1385.64 1779.01,-1396.21 1785.75,-1394.33"/>
</g>
<!-- r&#45;twang -->
<g id="node16" class="node">
<title>r&#45;twang</title>
<g id="a_node16"><a xlink:href="https://github.com/conda-forge/r-twang-feedstock" xlink:title="r twang">
<ellipse fill="#fde725" stroke="black" cx="1834.59" cy="-1294" rx="50.16" ry="18"/>
<text text-anchor="middle" x="1834.59" y="-1289.33" font-family="Times,serif" font-size="14.00">r twang</text>
</a>
</g>
</g>
<!-- xgboost&#45;&gt;r&#45;twang -->
<g id="edge13" class="edge">
<title>xgboost&#45;&gt;r&#45;twang</title>
<path fill="none" stroke="black" d="M1742.88,-1567.3C1761.98,-1558.76 1783.74,-1545.94 1797.59,-1528 1844.35,-1467.47 1842.58,-1371.26 1838.2,-1323.64"/>
<polygon fill="black" stroke="black" points="1841.7,-1323.45 1837.18,-1313.87 1834.74,-1324.18 1841.7,-1323.45"/>
</g>
<!-- r&#45;shapviz -->
<g id="node17" class="node">
<title>r&#45;shapviz</title>
<g id="a_node17"><a xlink:href="https://github.com/conda-forge/r-shapviz-feedstock" xlink:title="r shapviz">
<ellipse fill="#fde725" stroke="black" cx="1912.59" cy="-1222" rx="57" ry="18"/>
<text text-anchor="middle" x="1912.59" y="-1217.33" font-family="Times,serif" font-size="14.00">r shapviz</text>
</a>
</g>
</g>
<!-- xgboost&#45;&gt;r&#45;shapviz -->
<g id="edge14" class="edge">
<title>xgboost&#45;&gt;r&#45;shapviz</title>
<path fill="none" stroke="black" d="M1754.19,-1570.12C1816.04,-1553.5 1912.59,-1515.33 1912.59,-1439 1912.59,-1439 1912.59,-1439 1912.59,-1365 1912.59,-1325.74 1912.59,-1280.38 1912.59,-1251.69"/>
<polygon fill="black" stroke="black" points="1916.09,-1252 1912.59,-1242 1909.09,-1252 1916.09,-1252"/>
</g>
<!-- r&#45;bigsnpr -->
<g id="node18" class="node">
<title>r&#45;bigsnpr</title>
<g id="a_node18"><a xlink:href="https://github.com/conda-forge/r-bigsnpr-feedstock" xlink:title="r bigsnpr">
<ellipse fill="#fde725" stroke="black" cx="1998.59" cy="-1510" rx="57.52" ry="18"/>
<text text-anchor="middle" x="1998.59" y="-1505.33" font-family="Times,serif" font-size="14.00">r bigsnpr</text>
</a>
</g>
</g>
<!-- xgboost&#45;&gt;r&#45;bigsnpr -->
<g id="edge15" class="edge">
<title>xgboost&#45;&gt;r&#45;bigsnpr</title>
<path fill="none" stroke="black" d="M1752.31,-1569.44C1804.67,-1557.02 1887.77,-1537.3 1942.74,-1524.25"/>
<polygon fill="black" stroke="black" points="1943.28,-1527.72 1952.21,-1522.01 1941.67,-1520.91 1943.28,-1527.72"/>
</g>
<!-- r&#45;ecospat -->
<g id="node19" class="node">
<title>r&#45;ecospat</title>
<g id="a_node19"><a xlink:href="https://github.com/conda-forge/r-ecospat-feedstock" xlink:title="r ecospat">
<ellipse fill="#fde725" stroke="black" cx="1172.59" cy="-1366" rx="57.52" ry="18"/>
<text text-anchor="middle" x="1172.59" y="-1361.33" font-family="Times,serif" font-size="14.00">r ecospat</text>
</a>
</g>
</g>
<!-- r&#45;biomod2&#45;&gt;r&#45;ecospat -->
<g id="edge16" class="edge">
<title>r&#45;biomod2&#45;&gt;r&#45;ecospat</title>
<path fill="none" stroke="black" d="M1172.59,-1419.7C1172.59,-1412.41 1172.59,-1403.73 1172.59,-1395.54"/>
<polygon fill="black" stroke="black" points="1176.09,-1395.62 1172.59,-1385.62 1169.09,-1395.62 1176.09,-1395.62"/>
</g>
<!-- r&#45;modeltime.resample -->
<g id="node20" class="node">
<title>r&#45;modeltime.resample</title>
<g id="a_node20"><a xlink:href="https://github.com/conda-forge/r-modeltime.resample-feedstock" xlink:title="r modeltime resample">
<ellipse fill="#fde725" stroke="black" cx="1374.59" cy="-1438" rx="121.71" ry="18"/>
<text text-anchor="middle" x="1374.59" y="-1433.33" font-family="Times,serif" font-size="14.00">r modeltime resample</text>
</a>
</g>
</g>
<!-- r&#45;modeltime&#45;&gt;r&#45;modeltime.resample -->
<g id="edge17" class="edge">
<title>r&#45;modeltime&#45;&gt;r&#45;modeltime.resample</title>
<path fill="none" stroke="black" d="M1479.3,-1493.29C1460.89,-1483.75 1437.12,-1471.42 1416.88,-1460.93"/>
<polygon fill="black" stroke="black" points="1418.5,-1457.83 1408.01,-1456.33 1415.28,-1464.04 1418.5,-1457.83"/>
</g>
<!-- r&#45;modeltime.ensemble -->
<g id="node21" class="node">
<title>r&#45;modeltime.ensemble</title>
<g id="a_node21"><a xlink:href="https://github.com/conda-forge/r-modeltime.ensemble-feedstock" xlink:title="r modeltime ensemble">
<ellipse fill="#fde725" stroke="black" cx="1375.59" cy="-1366" rx="123.29" ry="18"/>
<text text-anchor="middle" x="1375.59" y="-1361.33" font-family="Times,serif" font-size="14.00">r modeltime ensemble</text>
</a>
</g>
</g>
<!-- r&#45;modeltime&#45;&gt;r&#45;modeltime.ensemble -->
<g id="edge18" class="edge">
<title>r&#45;modeltime&#45;&gt;r&#45;modeltime.ensemble</title>
<path fill="none" stroke="black" d="M1513.88,-1491.86C1517.65,-1472.55 1520.48,-1441.11 1505.59,-1420 1494.32,-1404.02 1477.34,-1392.85 1459.34,-1385.04"/>
<polygon fill="black" stroke="black" points="1460.65,-1381.8 1450.06,-1381.38 1458.08,-1388.31 1460.65,-1381.8"/>
</g>
<!-- r&#45;tidyconsultant -->
<g id="node22" class="node">
<title>r&#45;tidyconsultant</title>
<g id="a_node22"><a xlink:href="https://github.com/conda-forge/r-tidyconsultant-feedstock" xlink:title="r tidyconsultant">
<ellipse fill="#fde725" stroke="black" cx="1610.59" cy="-1366" rx="91.19" ry="18"/>
<text text-anchor="middle" x="1610.59" y="-1361.33" font-family="Times,serif" font-size="14.00">r tidyconsultant</text>
</a>
</g>
</g>
<!-- r&#45;tidybins&#45;&gt;r&#45;tidyconsultant -->
<g id="edge19" class="edge">
<title>r&#45;tidybins&#45;&gt;r&#45;tidyconsultant</title>
<path fill="none" stroke="black" d="M1612.1,-1419.7C1611.89,-1412.41 1611.64,-1403.73 1611.41,-1395.54"/>
<polygon fill="black" stroke="black" points="1614.91,-1395.51 1611.12,-1385.62 1607.91,-1395.71 1614.91,-1395.51"/>
</g>
<!-- r&#45;autostats&#45;&gt;r&#45;tidybins -->
<g id="edge20" class="edge">
<title>r&#45;autostats&#45;&gt;r&#45;tidybins</title>
<path fill="none" stroke="black" d="M1682.49,-1492.76C1670.66,-1483.66 1655.7,-1472.16 1642.67,-1462.13"/>
<polygon fill="black" stroke="black" points="1644.84,-1459.39 1634.78,-1456.07 1640.58,-1464.94 1644.84,-1459.39"/>
</g>
<!-- r&#45;autostats&#45;&gt;r&#45;tidyconsultant -->
<g id="edge21" class="edge">
<title>r&#45;autostats&#45;&gt;r&#45;tidyconsultant</title>
<path fill="none" stroke="black" d="M1702.73,-1491.55C1701.06,-1472.53 1696.12,-1441.88 1681.59,-1420 1673.75,-1408.19 1662.35,-1398.01 1650.97,-1389.82"/>
<polygon fill="black" stroke="black" points="1652.99,-1386.96 1642.75,-1384.26 1649.07,-1392.76 1652.99,-1386.96"/>
</g>
<!-- r&#45;vetiver -->
<g id="node23" class="node">
<title>r&#45;vetiver</title>
<g id="a_node23"><a xlink:href="https://github.com/conda-forge/r-vetiver-feedstock" xlink:title="r vetiver">
<ellipse fill="#fde725" stroke="black" cx="1711.59" cy="-1294" rx="54.36" ry="18"/>
<text text-anchor="middle" x="1711.59" y="-1289.33" font-family="Times,serif" font-size="14.00">r vetiver</text>
</a>
</g>
</g>
<!-- r&#45;bundle&#45;&gt;r&#45;vetiver -->
<g id="edge22" class="edge">
<title>r&#45;bundle&#45;&gt;r&#45;vetiver</title>
<path fill="none" stroke="black" d="M1758.9,-1348.41C1751.41,-1339.95 1742.14,-1329.49 1733.8,-1320.08"/>
<polygon fill="black" stroke="black" points="1736.43,-1317.77 1727.18,-1312.6 1731.19,-1322.41 1736.43,-1317.77"/>
</g>
<!-- r&#45;cmprskcoxmsm -->
<g id="node24" class="node">
<title>r&#45;cmprskcoxmsm</title>
<g id="a_node24"><a xlink:href="https://github.com/conda-forge/r-cmprskcoxmsm-feedstock" xlink:title="r cmprskcoxmsm">
<ellipse fill="#fde725" stroke="black" cx="1740.59" cy="-1222" rx="96.98" ry="18"/>
<text text-anchor="middle" x="1740.59" y="-1217.33" font-family="Times,serif" font-size="14.00">r cmprskcoxmsm</text>
</a>
</g>
</g>
<!-- r&#45;twang&#45;&gt;r&#45;cmprskcoxmsm -->
<g id="edge23" class="edge">
<title>r&#45;twang&#45;&gt;r&#45;cmprskcoxmsm</title>
<path fill="none" stroke="black" d="M1813.73,-1277.46C1801.6,-1268.43 1786.07,-1256.86 1772.44,-1246.71"/>
<polygon fill="black" stroke="black" points="1774.69,-1244.03 1764.58,-1240.87 1770.51,-1249.65 1774.69,-1244.03"/>
</g>
<!-- r&#45;modeltime.resample&#45;&gt;r&#45;modeltime.ensemble -->
<g id="edge49" class="edge">
<title>r&#45;modeltime.resample&#45;&gt;r&#45;modeltime.ensemble</title>
<path fill="none" stroke="black" d="M1374.84,-1419.7C1374.94,-1412.41 1375.07,-1403.73 1375.19,-1395.54"/>
<polygon fill="black" stroke="black" points="1378.68,-1395.67 1375.33,-1385.62 1371.68,-1395.57 1378.68,-1395.67"/>
</g>
<!-- go1.4&#45;bootstrap -->
<g id="node26" class="node">
<title>go1.4&#45;bootstrap</title>
<g id="a_node26"><a xlink:href="https://github.com/conda-forge/go1.4-bootstrap-feedstock" xlink:title="go1 4 bootstrap">
<ellipse fill="#000000" stroke="black" cx="2178.98" cy="-1186" rx="90.67" ry="18"/>
<text text-anchor="middle" x="2178.98" y="-1181.33" font-family="Times,serif" font-size="14.00" fill="white">go1 4 bootstrap</text>
</a>
</g>
</g>
<!-- mongo&#45;tools&#45;&gt;go1.4&#45;bootstrap -->
<!-- pyreadr -->
<g id="node27" class="node">
<title>pyreadr</title>
<g id="a_node27"><a xlink:href="https://github.com/conda-forge/pyreadr-feedstock/pull/53" xlink:title="pyreadr ❎">
<ellipse fill="#31688e" stroke="black" cx="2178.98" cy="-1114" rx="65.94" ry="18"/>
<text text-anchor="middle" x="2178.98" y="-1109.33" font-family="Times,serif" font-size="14.00" fill="white">pyreadr ❎</text>
</a>
</g>
</g>
<!-- go1.4&#45;bootstrap&#45;&gt;pyreadr -->
<!-- fossil -->
<g id="node28" class="node">
<title>fossil</title>
<g id="a_node28"><a xlink:href="https://github.com/conda-forge/fossil-feedstock/pull/23" xlink:title="fossil ❎">
<ellipse fill="#31688e" stroke="black" cx="2178.98" cy="-1042" rx="52.79" ry="18"/>
<text text-anchor="middle" x="2178.98" y="-1037.33" font-family="Times,serif" font-size="14.00" fill="white">fossil ❎</text>
</a>
</g>
</g>
<!-- pyreadr&#45;&gt;fossil -->
<!-- yggdrasil -->
<g id="node29" class="node">
<title>yggdrasil</title>
<g id="a_node29"><a xlink:href="https://github.com/conda-forge/yggdrasil-feedstock/pull/47" xlink:title="yggdrasil ❎">
<ellipse fill="#31688e" stroke="black" cx="570.4" cy="-1438" rx="73.3" ry="18"/>
<text text-anchor="middle" x="570.4" y="-1433.33" font-family="Times,serif" font-size="14.00" fill="white">yggdrasil ❎</text>
</a>
</g>
</g>
<!-- libredwg -->
<g id="node30" class="node">
<title>libredwg</title>
<g id="a_node30"><a xlink:href="https://github.com/conda-forge/libredwg-feedstock/pull/91" xlink:title="libredwg ❎">
<ellipse fill="#31688e" stroke="black" cx="1583.23" cy="-998" rx="70.68" ry="18"/>
<text text-anchor="middle" x="1583.23" y="-993.33" font-family="Times,serif" font-size="14.00" fill="white">libredwg ❎</text>
</a>
</g>
</g>
<!-- libxfoil -->
<g id="node31" class="node">
<title>libxfoil</title>
<g id="a_node31"><a xlink:href="https://github.com/conda-forge/libxfoil-feedstock/pull/14" xlink:title="libxfoil ❎">
<ellipse fill="#31688e" stroke="black" cx="1583.23" cy="-926" rx="60.68" ry="18"/>
<text text-anchor="middle" x="1583.23" y="-921.33" font-family="Times,serif" font-size="14.00" fill="white">libxfoil ❎</text>
</a>
</g>
</g>
<!-- libredwg&#45;&gt;libxfoil -->
<!-- pycrlibm -->
<g id="node32" class="node">
<title>pycrlibm</title>
<g id="a_node32"><a xlink:href="https://github.com/conda-forge/pycrlibm-feedstock/pull/11" xlink:title="pycrlibm ❎">
<ellipse fill="#31688e" stroke="black" cx="1583.23" cy="-854" rx="70.68" ry="18"/>
<text text-anchor="middle" x="1583.23" y="-849.33" font-family="Times,serif" font-size="14.00" fill="white">pycrlibm ❎</text>
</a>
</g>
</g>
<!-- libxfoil&#45;&gt;pycrlibm -->
<!-- libbezier -->
<g id="node33" class="node">
<title>libbezier</title>
<g id="a_node33"><a xlink:href="https://github.com/conda-forge/libbezier-feedstock/pull/10" xlink:title="libbezier ❎">
<ellipse fill="#31688e" stroke="black" cx="1583.23" cy="-782" rx="70.15" ry="18"/>
<text text-anchor="middle" x="1583.23" y="-777.33" font-family="Times,serif" font-size="14.00" fill="white">libbezier ❎</text>
</a>
</g>
</g>
<!-- pycrlibm&#45;&gt;libbezier -->
<!-- r&#45;destinie -->
<g id="node34" class="node">
<title>r&#45;destinie</title>
<g id="a_node34"><a xlink:href="https://github.com/conda-forge/r-destinie-feedstock/pull/8" xlink:title="r destinie ❎">
<ellipse fill="#31688e" stroke="black" cx="1583.23" cy="-710" rx="74.36" ry="18"/>
<text text-anchor="middle" x="1583.23" y="-705.33" font-family="Times,serif" font-size="14.00" fill="white">r destinie ❎</text>
</a>
</g>
</g>
<!-- libbezier&#45;&gt;r&#45;destinie -->
<!-- leparagliding -->
<g id="node35" class="node">
<title>leparagliding</title>
<g id="a_node35"><a xlink:href="https://github.com/conda-forge/leparagliding-feedstock/pull/11" xlink:title="leparagliding ❎">
<ellipse fill="#31688e" stroke="black" cx="1583.23" cy="-638" rx="92.77" ry="18"/>
<text text-anchor="middle" x="1583.23" y="-633.33" font-family="Times,serif" font-size="14.00" fill="white">leparagliding ❎</text>
</a>
</g>
</g>
<!-- r&#45;destinie&#45;&gt;leparagliding -->
<!-- ndd -->
<g id="node40" class="node">
<title>ndd</title>
<g id="a_node40"><a xlink:href="https://github.com/conda-forge/ndd-feedstock/pull/13" xlink:title="ndd ❎">
<ellipse fill="#31688e" stroke="black" cx="1583.23" cy="-566" rx="45.42" ry="18"/>
<text text-anchor="middle" x="1583.23" y="-561.33" font-family="Times,serif" font-size="14.00" fill="white">ndd ❎</text>
</a>
</g>
</g>
<!-- leparagliding&#45;&gt;ndd -->
<!-- framel -->
<g id="node36" class="node">
<title>framel</title>
<g id="a_node36"><a xlink:href="https://github.com/conda-forge/framel-feedstock/pull/41" xlink:title="framel ❎">
<ellipse fill="#31688e" stroke="black" cx="2178.98" cy="-162" rx="59.1" ry="18"/>
<text text-anchor="middle" x="2178.98" y="-157.32" font-family="Times,serif" font-size="14.00" fill="white">framel ❎</text>
</a>
</g>
</g>
<!-- frv -->
<g id="node37" class="node">
<title>frv</title>
<g id="a_node37"><a xlink:href="https://github.com/conda-forge/frv-feedstock" xlink:title="frv">
<ellipse fill="#fde725" stroke="black" cx="2178.98" cy="-90" rx="27" ry="18"/>
<text text-anchor="middle" x="2178.98" y="-85.33" font-family="Times,serif" font-size="14.00">frv</text>
</a>
</g>
</g>
<!-- framel&#45;&gt;frv -->
<g id="edge33" class="edge">
<title>framel&#45;&gt;frv</title>
<path fill="none" stroke="black" d="M2178.98,-143.7C2178.98,-136.41 2178.98,-127.73 2178.98,-119.54"/>
<polygon fill="black" stroke="black" points="2182.48,-119.62 2178.98,-109.62 2175.48,-119.62 2182.48,-119.62"/>
</g>
<!-- m2w64&#45;jq -->
<g id="node38" class="node">
<title>m2w64&#45;jq</title>
<g id="a_node38"><a xlink:href="https://github.com/conda-forge/m2w64-jq-feedstock" xlink:title="m2w64 jq">
<ellipse fill="#fde725" stroke="black" cx="1583.23" cy="-90" rx="60.68" ry="18"/>
<text text-anchor="middle" x="1583.23" y="-85.33" font-family="Times,serif" font-size="14.00">m2w64 jq</text>
</a>
</g>
</g>
<!-- m2w64&#45;oniguruma -->
<g id="node39" class="node">
<title>m2w64&#45;oniguruma</title>
<g id="a_node39"><a xlink:href="https://github.com/conda-forge/m2w64-oniguruma-feedstock/pull/1" xlink:title="m2w64 oniguruma ❎">
<ellipse fill="#31688e" stroke="black" cx="1583.23" cy="-162" rx="120.65" ry="18"/>
<text text-anchor="middle" x="1583.23" y="-157.32" font-family="Times,serif" font-size="14.00" fill="white">m2w64 oniguruma ❎</text>
</a>
</g>
</g>
<!-- m2w64&#45;oniguruma&#45;&gt;m2w64&#45;jq -->
<g id="edge34" class="edge">
<title>m2w64&#45;oniguruma&#45;&gt;m2w64&#45;jq</title>
<path fill="none" stroke="black" d="M1583.23,-143.7C1583.23,-136.41 1583.23,-127.73 1583.23,-119.54"/>
<polygon fill="black" stroke="black" points="1586.73,-119.62 1583.23,-109.62 1579.73,-119.62 1586.73,-119.62"/>
</g>
<!-- zoxide -->
<g id="node49" class="node">
<title>zoxide</title>
<g id="a_node49"><a xlink:href="https://github.com/conda-forge/zoxide-feedstock/pull/26" xlink:title="zoxide ❎">
<ellipse fill="#31688e" stroke="black" cx="1583.23" cy="-494" rx="58.57" ry="18"/>
<text text-anchor="middle" x="1583.23" y="-489.32" font-family="Times,serif" font-size="14.00" fill="white">zoxide ❎</text>
</a>
</g>
</g>
<!-- ndd&#45;&gt;zoxide -->
<!-- msmpi -->
<g id="node41" class="node">
<title>msmpi</title>
<g id="a_node41"><a xlink:href="https://github.com/conda-forge/msmpi-feedstock/pull/21" xlink:title="msmpi ❎">
<ellipse fill="#31688e" stroke="black" cx="866.4" cy="-1582" rx="60.15" ry="18"/>
<text text-anchor="middle" x="866.4" y="-1577.33" font-family="Times,serif" font-size="14.00" fill="white">msmpi ❎</text>
</a>
</g>
</g>
<!-- msmpi&#45;&gt;wrf&#45;python -->
<g id="edge36" class="edge">
<title>msmpi&#45;&gt;wrf&#45;python</title>
<path fill="none" stroke="black" d="M900.8,-1566.83C926.61,-1556.21 962.2,-1541.55 990.45,-1529.92"/>
<polygon fill="black" stroke="black" points="991.56,-1533.25 999.48,-1526.2 988.9,-1526.77 991.56,-1533.25"/>
</g>
<!-- msmpi&#45;&gt;yggdrasil -->
<g id="edge37" class="edge">
<title>msmpi&#45;&gt;yggdrasil</title>
<path fill="none" stroke="black" d="M807.78,-1577.27C735.86,-1571.46 619.71,-1557.67 589.4,-1528 573.6,-1512.53 569.39,-1487.38 568.83,-1467.75"/>
<polygon fill="black" stroke="black" points="572.33,-1467.91 568.87,-1457.89 565.33,-1467.88 572.33,-1467.91"/>
</g>
<!-- r&#45;downscaler -->
<g id="node42" class="node">
<title>r&#45;downscaler</title>
<g id="a_node42"><a xlink:href="https://github.com/conda-forge/r-downscaler-feedstock" xlink:title="r downscaler">
<ellipse fill="#fde725" stroke="black" cx="466.4" cy="-1510" rx="75.94" ry="18"/>
<text text-anchor="middle" x="466.4" y="-1505.33" font-family="Times,serif" font-size="14.00">r downscaler</text>
</a>
</g>
</g>
<!-- msmpi&#45;&gt;r&#45;downscaler -->
<g id="edge38" class="edge">
<title>msmpi&#45;&gt;r&#45;downscaler</title>
<path fill="none" stroke="black" d="M814.79,-1572.46C753.22,-1562.2 647.21,-1544.34 556.4,-1528 549.52,-1526.76 542.34,-1525.45 535.18,-1524.12"/>
<polygon fill="black" stroke="black" points="535.94,-1520.7 525.47,-1522.31 534.66,-1527.58 535.94,-1520.7"/>
</g>
<!-- climlab&#45;cam3&#45;radiation -->
<g id="node43" class="node">
<title>climlab&#45;cam3&#45;radiation</title>
<g id="a_node43"><a xlink:href="https://github.com/conda-forge/climlab-cam3-radiation-feedstock" xlink:title="climlab cam3 radiation">
<ellipse fill="#fde725" stroke="black" cx="712.4" cy="-1366" rx="125.92" ry="18"/>
<text text-anchor="middle" x="712.4" y="-1361.33" font-family="Times,serif" font-size="14.00">climlab cam3 radiation</text>
</a>
</g>
</g>
<!-- msmpi&#45;&gt;climlab&#45;cam3&#45;radiation -->
<g id="edge39" class="edge">
<title>msmpi&#45;&gt;climlab&#45;cam3&#45;radiation</title>
<path fill="none" stroke="black" d="M856.13,-1563.97C845.04,-1545.83 826.65,-1516.43 809.4,-1492 784.53,-1456.78 753.7,-1417.76 733.56,-1392.84"/>
<polygon fill="black" stroke="black" points="736.37,-1390.75 727.35,-1385.19 730.93,-1395.16 736.37,-1390.75"/>
</g>
<!-- pyfabm -->
<g id="node44" class="node">
<title>pyfabm</title>
<g id="a_node44"><a xlink:href="https://github.com/conda-forge/pyfabm-feedstock" xlink:title="pyfabm">
<ellipse fill="#fde725" stroke="black" cx="827.4" cy="-1294" rx="48.58" ry="18"/>
<text text-anchor="middle" x="827.4" y="-1289.33" font-family="Times,serif" font-size="14.00">pyfabm</text>
</a>
</g>
</g>
<!-- msmpi&#45;&gt;pyfabm -->
<g id="edge40" class="edge">
<title>msmpi&#45;&gt;pyfabm</title>
<path fill="none" stroke="black" d="M866.62,-1563.51C866.77,-1524.37 865.15,-1427 847.4,-1348 845.47,-1339.42 842.45,-1330.38 839.34,-1322.23"/>
<polygon fill="black" stroke="black" points="842.69,-1321.18 835.69,-1313.22 836.2,-1323.8 842.69,-1321.18"/>
</g>
<!-- eatpy -->
<g id="node45" class="node">
<title>eatpy</title>
<g id="a_node45"><a xlink:href="https://github.com/conda-forge/eatpy-feedstock" xlink:title="eatpy">
<ellipse fill="#fde725" stroke="black" cx="942.4" cy="-1222" rx="39.11" ry="18"/>
<text text-anchor="middle" x="942.4" y="-1217.33" font-family="Times,serif" font-size="14.00">eatpy</text>
</a>
</g>
</g>
<!-- msmpi&#45;&gt;eatpy -->
<g id="edge41" class="edge">
<title>msmpi&#45;&gt;eatpy</title>
<path fill="none" stroke="black" d="M882.51,-1564.19C904.82,-1539.09 942.4,-1489.33 942.4,-1439 942.4,-1439 942.4,-1439 942.4,-1365 942.4,-1325.74 942.4,-1280.38 942.4,-1251.69"/>
<polygon fill="black" stroke="black" points="945.9,-1252 942.4,-1242 938.9,-1252 945.9,-1252"/>
</g>
<!-- pygetm -->
<g id="node46" class="node">
<title>pygetm</title>
<g id="a_node46"><a xlink:href="https://github.com/conda-forge/pygetm-feedstock" xlink:title="pygetm">
<ellipse fill="#fde725" stroke="black" cx="832.4" cy="-1222" rx="49.1" ry="18"/>
<text text-anchor="middle" x="832.4" y="-1217.33" font-family="Times,serif" font-size="14.00">pygetm</text>
</a>
</g>
</g>
<!-- msmpi&#45;&gt;pygetm -->
<g id="edge42" class="edge">
<title>msmpi&#45;&gt;pygetm</title>
<path fill="none" stroke="black" d="M874.09,-1563.91C885.19,-1537.62 904.4,-1485.45 904.4,-1439 904.4,-1439 904.4,-1439 904.4,-1365 904.4,-1324.55 904.71,-1311.54 885.4,-1276 879.42,-1265 870.44,-1254.78 861.57,-1246.3"/>
<polygon fill="black" stroke="black" points="864.09,-1243.86 854.32,-1239.76 859.4,-1249.06 864.09,-1243.86"/>
</g>
<!-- r&#45;climate4r -->
<g id="node47" class="node">
<title>r&#45;climate4r</title>
<g id="a_node47"><a xlink:href="https://github.com/conda-forge/r-climate4r-feedstock" xlink:title="r climate4r">
<ellipse fill="#fde725" stroke="black" cx="402.4" cy="-1366" rx="66.99" ry="18"/>
<text text-anchor="middle" x="402.4" y="-1361.33" font-family="Times,serif" font-size="14.00">r climate4r</text>
</a>
</g>
</g>
<!-- r&#45;downscaler&#45;&gt;r&#45;climate4r -->
<g id="edge43" class="edge">
<title>r&#45;downscaler&#45;&gt;r&#45;climate4r</title>
<path fill="none" stroke="black" d="M466.08,-1491.73C465.13,-1473.13 461.76,-1443.11 450.4,-1420 445.28,-1409.58 437.49,-1399.7 429.67,-1391.36"/>
<polygon fill="black" stroke="black" points="432.22,-1388.96 422.69,-1384.33 427.26,-1393.89 432.22,-1388.96"/>
</g>
<!-- r&#45;downscaler.keras -->
<g id="node48" class="node">
<title>r&#45;downscaler.keras</title>
<g id="a_node48"><a xlink:href="https://github.com/conda-forge/r-downscaler.keras-feedstock" xlink:title="r downscaler keras">
<ellipse fill="#fde725" stroke="black" cx="335.4" cy="-1438" rx="106.45" ry="18"/>
<text text-anchor="middle" x="335.4" y="-1433.33" font-family="Times,serif" font-size="14.00">r downscaler keras</text>
</a>
</g>
</g>
<!-- r&#45;downscaler&#45;&gt;r&#45;downscaler.keras -->
<g id="edge44" class="edge">
<title>r&#45;downscaler&#45;&gt;r&#45;downscaler.keras</title>
<path fill="none" stroke="black" d="M436.67,-1493.12C418.88,-1483.61 396.02,-1471.39 376.51,-1460.97"/>
<polygon fill="black" stroke="black" points="378.18,-1457.89 367.71,-1456.26 374.88,-1464.06 378.18,-1457.89"/>
</g>
<!-- pyfabm&#45;&gt;pygetm -->
<g id="edge45" class="edge">
<title>pyfabm&#45;&gt;pygetm</title>
<path fill="none" stroke="black" d="M828.63,-1275.7C829.15,-1268.41 829.77,-1259.73 830.36,-1251.54"/>
<polygon fill="black" stroke="black" points="833.85,-1251.84 831.07,-1241.61 826.86,-1251.34 833.85,-1251.84"/>
</g>
<!-- r&#45;downscaler.keras&#45;&gt;r&#45;climate4r -->
<g id="edge55" class="edge">
<title>r&#45;downscaler.keras&#45;&gt;r&#45;climate4r</title>
<path fill="none" stroke="black" d="M351.62,-1420.05C359.68,-1411.63 369.59,-1401.28 378.5,-1391.97"/>
<polygon fill="black" stroke="black" points="380.9,-1394.53 385.28,-1384.88 375.84,-1389.69 380.9,-1394.53"/>
</g>
<!-- flash -->
<g id="node50" class="node">
<title>flash</title>
<g id="a_node50"><a xlink:href="https://github.com/conda-forge/flash-feedstock/pull/3" xlink:title="flash ❎">
<ellipse fill="#31688e" stroke="black" cx="1583.23" cy="-422" rx="50.16" ry="18"/>
<text text-anchor="middle" x="1583.23" y="-417.32" font-family="Times,serif" font-size="14.00" fill="white">flash ❎</text>
</a>
</g>
</g>
<!-- zoxide&#45;&gt;flash -->
<!-- jasp -->
<g id="node51" class="node">
<title>jasp</title>
<g id="a_node51"><a xlink:href="https://github.com/conda-forge/jasp-feedstock/pull/29" xlink:title="jasp ❎">
<ellipse fill="#31688e" stroke="black" cx="1583.23" cy="-350" rx="47" ry="18"/>
<text text-anchor="middle" x="1583.23" y="-345.32" font-family="Times,serif" font-size="14.00" fill="white">jasp ❎</text>
</a>
</g>
</g>
<!-- flash&#45;&gt;jasp -->
<!-- crabz -->
<g id="node52" class="node">
<title>crabz</title>
<g id="a_node52"><a xlink:href="https://github.com/conda-forge/crabz-feedstock/pull/13" xlink:title="crabz ❎">
<ellipse fill="#31688e" stroke="black" cx="1583.23" cy="-278" rx="53.84" ry="18"/>
<text text-anchor="middle" x="1583.23" y="-273.32" font-family="Times,serif" font-size="14.00" fill="white">crabz ❎</text>
</a>
</g>
</g>
<!-- jasp&#45;&gt;crabz -->
<!-- hck -->
<g id="node53" class="node">
<title>hck</title>
<g id="a_node53"><a xlink:href="https://github.com/conda-forge/hck-feedstock/pull/16" xlink:title="hck ❎">
<ellipse fill="#31688e" stroke="black" cx="551.17" cy="-998" rx="43.84" ry="18"/>
<text text-anchor="middle" x="551.17" y="-993.33" font-family="Times,serif" font-size="14.00" fill="white">hck ❎</text>
</a>
</g>
</g>
<!-- reasonable -->
<g id="node54" class="node">
<title>reasonable</title>
<g id="a_node54"><a xlink:href="https://github.com/conda-forge/reasonable-feedstock/pull/20" xlink:title="reasonable ❎">
<ellipse fill="#31688e" stroke="black" cx="551.17" cy="-926" rx="81.2" ry="18"/>
<text text-anchor="middle" x="551.17" y="-921.33" font-family="Times,serif" font-size="14.00" fill="white">reasonable ❎</text>
</a>
</g>
</g>
<!-- hck&#45;&gt;reasonable -->
<!-- climlab&#45;rrtmg -->
<g id="node55" class="node">
<title>climlab&#45;rrtmg</title>
<g id="a_node55"><a xlink:href="https://github.com/conda-forge/climlab-rrtmg-feedstock/pull/8" xlink:title="climlab rrtmg ❎">
<ellipse fill="#31688e" stroke="black" cx="551.17" cy="-854" rx="95.4" ry="18"/>
<text text-anchor="middle" x="551.17" y="-849.33" font-family="Times,serif" font-size="14.00" fill="white">climlab rrtmg ❎</text>
</a>
</g>
</g>
<!-- reasonable&#45;&gt;climlab&#45;rrtmg -->
<!-- libdlfind -->
<g id="node56" class="node">
<title>libdlfind</title>
<g id="a_node56"><a xlink:href="https://github.com/conda-forge/libdlfind-feedstock/pull/7" xlink:title="libdlfind ✓">
<ellipse fill="#31688e" stroke="black" cx="551.17" cy="-782" rx="60.15" ry="18"/>
<text text-anchor="middle" x="551.17" y="-777.33" font-family="Times,serif" font-size="14.00" fill="white">libdlfind ✓</text>
</a>
</g>
</g>
<!-- climlab&#45;rrtmg&#45;&gt;libdlfind -->
<!-- r&#45;metamix -->
<g id="node59" class="node">
<title>r&#45;metamix</title>
<g id="a_node59"><a xlink:href="https://github.com/conda-forge/r-metamix-feedstock/pull/3" xlink:title="r metamix ❎">
<ellipse fill="#31688e" stroke="black" cx="551.17" cy="-710" rx="78.04" ry="18"/>
<text text-anchor="middle" x="551.17" y="-705.33" font-family="Times,serif" font-size="14.00" fill="white">r metamix ❎</text>
</a>
</g>
</g>
<!-- libdlfind&#45;&gt;r&#45;metamix -->
<!-- r&#45;climate4r.indices -->
<g id="node57" class="node">
<title>r&#45;climate4r.indices</title>
<g id="a_node57"><a xlink:href="https://github.com/conda-forge/r-climate4r.indices-feedstock" xlink:title="r climate4r indices">
<ellipse fill="#35b779" stroke="black" cx="105.4" cy="-1438" rx="105.4" ry="18"/>
<text text-anchor="middle" x="105.4" y="-1433.33" font-family="Times,serif" font-size="14.00">r climate4r indices</text>
</a>
</g>
</g>
<!-- r&#45;climate4r.indices&#45;&gt;r&#45;climate4r -->
<g id="edge54" class="edge">
<title>r&#45;climate4r.indices&#45;&gt;r&#45;climate4r</title>
<path fill="none" stroke="black" d="M165.5,-1422.83C216.98,-1410.7 290.74,-1393.32 342.24,-1381.18"/>
<polygon fill="black" stroke="black" points="342.79,-1384.64 351.72,-1378.94 341.19,-1377.83 342.79,-1384.64"/>
</g>
<!-- r&#45;geoprocessor -->
<g id="node58" class="node">
<title>r&#45;geoprocessor</title>
<g id="a_node58"><a xlink:href="https://github.com/conda-forge/r-geoprocessor-feedstock/pull/7" xlink:title="r geoprocessor ❎">
<ellipse fill="#31688e" stroke="black" cx="699.4" cy="-1510" rx="101.19" ry="18"/>
<text text-anchor="middle" x="699.4" y="-1505.33" font-family="Times,serif" font-size="14.00" fill="white">r geoprocessor ❎</text>
</a>
</g>
</g>
<!-- r&#45;geoprocessor&#45;&gt;r&#45;climate4r -->
<g id="edge56" class="edge">
<title>r&#45;geoprocessor&#45;&gt;r&#45;climate4r</title>
<path fill="none" stroke="black" d="M695.07,-1491.68C689.05,-1471.28 676.1,-1437.9 652.4,-1420 624.8,-1399.16 538.11,-1384.04 474.53,-1375.41"/>
<polygon fill="black" stroke="black" points="475.22,-1371.97 464.85,-1374.13 474.3,-1378.91 475.22,-1371.97"/>
</g>
<!-- wdmtoolbox -->
<g id="node60" class="node">
<title>wdmtoolbox</title>
<g id="a_node60"><a xlink:href="https://github.com/conda-forge/wdmtoolbox-feedstock/pull/22" xlink:title="wdmtoolbox ❎">
<ellipse fill="#31688e" stroke="black" cx="551.17" cy="-638" rx="87.51" ry="18"/>
<text text-anchor="middle" x="551.17" y="-633.33" font-family="Times,serif" font-size="14.00" fill="white">wdmtoolbox ❎</text>
</a>
</g>
</g>
<!-- r&#45;metamix&#45;&gt;wdmtoolbox -->
<!-- gilknocker -->
<g id="node61" class="node">
<title>gilknocker</title>
<g id="a_node61"><a xlink:href="https://github.com/conda-forge/gilknocker-feedstock/pull/10" xlink:title="gilknocker ❎">
<ellipse fill="#31688e" stroke="black" cx="551.17" cy="-566" rx="78.57" ry="18"/>
<text text-anchor="middle" x="551.17" y="-561.33" font-family="Times,serif" font-size="14.00" fill="white">gilknocker ❎</text>
</a>
</g>
</g>
<!-- wdmtoolbox&#45;&gt;gilknocker -->
<!-- pcmsolver&#45;split -->
<g id="node62" class="node">
<title>pcmsolver&#45;split</title>
<g id="a_node62"><a xlink:href="https://github.com/conda-forge/pcmsolver-split-feedstock/pull/26" xlink:title="pcmsolver split ❎">
<ellipse fill="#31688e" stroke="black" cx="551.17" cy="-494" rx="103.29" ry="18"/>
<text text-anchor="middle" x="551.17" y="-489.32" font-family="Times,serif" font-size="14.00" fill="white">pcmsolver split ❎</text>
</a>
</g>
</g>
<!-- gilknocker&#45;&gt;pcmsolver&#45;split -->
<!-- gdma -->
<g id="node63" class="node">
<title>gdma</title>
<g id="a_node63"><a xlink:href="https://github.com/conda-forge/gdma-feedstock/pull/9" xlink:title="gdma ❎">
<ellipse fill="#31688e" stroke="black" cx="551.17" cy="-422" rx="54.36" ry="18"/>
<text text-anchor="middle" x="551.17" y="-417.32" font-family="Times,serif" font-size="14.00" fill="white">gdma ❎</text>
</a>
</g>
</g>
<!-- pcmsolver&#45;split&#45;&gt;gdma -->
<!-- prima -->
<g id="node64" class="node">
<title>prima</title>
<g id="a_node64"><a xlink:href="https://github.com/conda-forge/prima-feedstock/pull/6" xlink:title="prima ❎">
<ellipse fill="#31688e" stroke="black" cx="551.17" cy="-350" rx="55.94" ry="18"/>
<text text-anchor="middle" x="551.17" y="-345.32" font-family="Times,serif" font-size="14.00" fill="white">prima ❎</text>
</a>
</g>
</g>
<!-- gdma&#45;&gt;prima -->
<!-- b3sum -->
<g id="node65" class="node">
<title>b3sum</title>
<g id="a_node65"><a xlink:href="https://github.com/conda-forge/b3sum-feedstock/pull/7" xlink:title="b3sum ❎">
<ellipse fill="#31688e" stroke="black" cx="551.17" cy="-278" rx="60.15" ry="18"/>
<text text-anchor="middle" x="551.17" y="-273.32" font-family="Times,serif" font-size="14.00" fill="white">b3sum ❎</text>
</a>
</g>
</g>
<!-- prima&#45;&gt;b3sum -->
<!-- xeus&#45;r -->
<g id="node66" class="node">
<title>xeus&#45;r</title>
<g id="a_node66"><a xlink:href="https://github.com/conda-forge/xeus-r-feedstock/pull/9" xlink:title="xeus r ❎">
<ellipse fill="#31688e" stroke="black" cx="2178.98" cy="-854" rx="57.52" ry="18"/>
<text text-anchor="middle" x="2178.98" y="-849.33" font-family="Times,serif" font-size="14.00" fill="white">xeus r ❎</text>
</a>
</g>
</g>
<!-- libcramjam -->
<g id="node67" class="node">
<title>libcramjam</title>
<g id="a_node67"><a xlink:href="https://github.com/conda-forge/libcramjam-feedstock/pull/11" xlink:title="libcramjam ✓">
<ellipse fill="#31688e" stroke="black" cx="2178.98" cy="-782" rx="75.41" ry="18"/>
<text text-anchor="middle" x="2178.98" y="-777.33" font-family="Times,serif" font-size="14.00" fill="white">libcramjam ✓</text>
</a>
</g>
</g>
<!-- xeus&#45;r&#45;&gt;libcramjam -->
<!-- sqlx&#45;cli -->
<g id="node68" class="node">
<title>sqlx&#45;cli</title>
<g id="a_node68"><a xlink:href="https://github.com/conda-forge/sqlx-cli-feedstock/pull/7" xlink:title="sqlx cli ❎">
<ellipse fill="#31688e" stroke="black" cx="2178.98" cy="-710" rx="61.73" ry="18"/>
<text text-anchor="middle" x="2178.98" y="-705.33" font-family="Times,serif" font-size="14.00" fill="white">sqlx cli ❎</text>
</a>
</g>
</g>
<!-- libcramjam&#45;&gt;sqlx&#45;cli -->
<!-- dimad -->
<g id="node73" class="node">
<title>dimad</title>
<g id="a_node73"><a xlink:href="https://github.com/conda-forge/dimad-feedstock/pull/4" xlink:title="dimad ❎">
<ellipse fill="#31688e" stroke="black" cx="2178.98" cy="-638" rx="57.52" ry="18"/>
<text text-anchor="middle" x="2178.98" y="-633.33" font-family="Times,serif" font-size="14.00" fill="white">dimad ❎</text>
</a>
</g>
</g>
<!-- sqlx&#45;cli&#45;&gt;dimad -->
<!-- r&#45;nanonext -->
<g id="node69" class="node">
<title>r&#45;nanonext</title>
<g id="a_node69"><a xlink:href="https://github.com/conda-forge/r-nanonext-feedstock/pull/16" xlink:title="r nanonext ❎">
<ellipse fill="#31688e" stroke="black" cx="550.56" cy="-234" rx="80.67" ry="18"/>
<text text-anchor="middle" x="550.56" y="-229.32" font-family="Times,serif" font-size="14.00" fill="white">r nanonext ❎</text>
</a>
</g>
</g>
<!-- r&#45;crew -->
<g id="node70" class="node">
<title>r&#45;crew</title>
<g id="a_node70"><a xlink:href="https://github.com/conda-forge/r-crew-feedstock" xlink:title="r crew">
<ellipse fill="#fde725" stroke="black" cx="550.56" cy="-90" rx="43.32" ry="18"/>
<text text-anchor="middle" x="550.56" y="-85.33" font-family="Times,serif" font-size="14.00">r crew</text>
</a>
</g>
</g>
<!-- r&#45;nanonext&#45;&gt;r&#45;crew -->
<g id="edge66" class="edge">
<title>r&#45;nanonext&#45;&gt;r&#45;crew</title>
<path fill="none" stroke="black" d="M543.49,-215.67C539.72,-205.47 535.47,-192.22 533.56,-180 531.08,-164.19 531.08,-159.81 533.56,-144 534.88,-135.56 537.31,-126.64 539.93,-118.56"/>
<polygon fill="black" stroke="black" points="543.18,-119.88 543.17,-109.29 536.57,-117.58 543.18,-119.88"/>
</g>
<!-- r&#45;mirai -->
<g id="node71" class="node">
<title>r&#45;mirai</title>
<g id="a_node71"><a xlink:href="https://github.com/conda-forge/r-mirai-feedstock" xlink:title="r mirai">
<ellipse fill="#fde725" stroke="black" cx="587.56" cy="-162" rx="45.42" ry="18"/>
<text text-anchor="middle" x="587.56" y="-157.32" font-family="Times,serif" font-size="14.00">r mirai</text>
</a>
</g>
</g>
<!-- r&#45;nanonext&#45;&gt;r&#45;mirai -->
<g id="edge67" class="edge">
<title>r&#45;nanonext&#45;&gt;r&#45;mirai</title>
<path fill="none" stroke="black" d="M559.7,-215.7C563.78,-207.98 568.68,-198.71 573.23,-190.11"/>
<polygon fill="black" stroke="black" points="576.23,-191.92 577.81,-181.44 570.04,-188.65 576.23,-191.92"/>
</g>
<!-- r&#45;crew.cluster -->
<g id="node72" class="node">
<title>r&#45;crew.cluster</title>
<g id="a_node72"><a xlink:href="https://github.com/conda-forge/r-crew.cluster-feedstock" xlink:title="r crew cluster">
<ellipse fill="#fde725" stroke="black" cx="550.56" cy="-18" rx="81.2" ry="18"/>
<text text-anchor="middle" x="550.56" y="-13.32" font-family="Times,serif" font-size="14.00">r crew cluster</text>
</a>
</g>
</g>
<!-- r&#45;crew&#45;&gt;r&#45;crew.cluster -->
<g id="edge68" class="edge">
<title>r&#45;crew&#45;&gt;r&#45;crew.cluster</title>
<path fill="none" stroke="black" d="M550.56,-71.7C550.56,-64.41 550.56,-55.73 550.56,-47.54"/>
<polygon fill="black" stroke="black" points="554.06,-47.62 550.56,-37.62 547.06,-47.62 554.06,-47.62"/>
</g>
<!-- r&#45;mirai&#45;&gt;r&#45;crew -->
<g id="edge69" class="edge">
<title>r&#45;mirai&#45;&gt;r&#45;crew</title>
<path fill="none" stroke="black" d="M578.6,-144.05C574.42,-136.14 569.34,-126.54 564.66,-117.69"/>
<polygon fill="black" stroke="black" points="567.91,-116.33 560.14,-109.13 561.72,-119.6 567.91,-116.33"/>
</g>
<!-- r&#45;volumodel -->
<g id="node74" class="node">
<title>r&#45;volumodel</title>
<g id="a_node74"><a xlink:href="https://github.com/conda-forge/r-volumodel-feedstock/pull/2" xlink:title="r volumodel ❎">
<ellipse fill="#31688e" stroke="black" cx="2178.98" cy="-566" rx="85.93" ry="18"/>
<text text-anchor="middle" x="2178.98" y="-561.33" font-family="Times,serif" font-size="14.00" fill="white">r volumodel ❎</text>
</a>
</g>
</g>
<!-- dimad&#45;&gt;r&#45;volumodel -->
<!-- mystran -->
<g id="node75" class="node">
<title>mystran</title>
<g id="a_node75"><a xlink:href="https://github.com/conda-forge/mystran-feedstock/pull/3" xlink:title="mystran ❎">
<ellipse fill="#31688e" stroke="black" cx="2178.98" cy="-494" rx="68.04" ry="18"/>
<text text-anchor="middle" x="2178.98" y="-489.32" font-family="Times,serif" font-size="14.00" fill="white">mystran ❎</text>
</a>
</g>
</g>
<!-- r&#45;volumodel&#45;&gt;mystran -->
<!-- sixs_json -->
<g id="node76" class="node">
<title>sixs_json</title>
<g id="a_node76"><a xlink:href="https://github.com/conda-forge/sixs_json-feedstock/pull/3" xlink:title="sixs_json ❎">
<ellipse fill="#31688e" stroke="black" cx="2178.98" cy="-422" rx="71.2" ry="18"/>
<text text-anchor="middle" x="2178.98" y="-417.32" font-family="Times,serif" font-size="14.00" fill="white">sixs_json ❎</text>
</a>
</g>
</g>
<!-- mystran&#45;&gt;sixs_json -->
</g>
</svg>
