<?xml version="1.0" encoding="UTF-8" standalone="no"?>
<!DOCTYPE svg PUBLIC "-//W3C//DTD SVG 1.1//EN"
 "http://www.w3.org/Graphics/SVG/1.1/DTD/svg11.dtd">
<!-- Generated by graphviz version 12.0.0 (20240803.0821)
 -->
<!-- Pages: 1 -->
<svg width="2403pt" height="1788pt"
 viewBox="0.00 0.00 2402.64 1788.00" xmlns="http://www.w3.org/2000/svg" xmlns:xlink="http://www.w3.org/1999/xlink">
<g id="graph0" class="graph" transform="scale(1 1) rotate(0) translate(4 1784)">
<polygon fill="white" stroke="none" points="-4,4 -4,-1784 2398.64,-1784 2398.64,4 -4,4"/>
<!-- iverilog -->
<g id="node1" class="node">
<title>iverilog</title>
<g id="a_node1"><a xlink:href="https://github.com/conda-forge/iverilog-feedstock/pull/25" xlink:title="iverilog ❎">
<ellipse fill="#31688e" stroke="black" cx="2279.77" cy="-1762" rx="64.36" ry="18"/>
<text text-anchor="middle" x="2279.77" y="-1757.33" font-family="Times,serif" font-size="14.00" fill="white">iverilog ❎</text>
</a>
</g>
</g>
<!-- libidn11 -->
<g id="node2" class="node">
<title>libidn11</title>
<g id="a_node2"><a xlink:href="https://github.com/conda-forge/libidn11-feedstock/pull/13" xlink:title="libidn11 ❎">
<ellipse fill="#31688e" stroke="black" cx="2279.77" cy="-1690" rx="67.52" ry="18"/>
<text text-anchor="middle" x="2279.77" y="-1685.33" font-family="Times,serif" font-size="14.00" fill="white">libidn11 ❎</text>
</a>
</g>
</g>
<!-- iverilog&#45;&gt;libidn11 -->
<!-- m2w64&#45;muparser -->
<g id="node3" class="node">
<title>m2w64&#45;muparser</title>
<g id="a_node3"><a xlink:href="https://github.com/conda-forge/m2w64-muparser-feedstock/pull/13" xlink:title="m2w64 muparser ❎">
<ellipse fill="#31688e" stroke="black" cx="2279.77" cy="-1618" rx="114.87" ry="18"/>
<text text-anchor="middle" x="2279.77" y="-1613.33" font-family="Times,serif" font-size="14.00" fill="white">m2w64 muparser ❎</text>
</a>
</g>
</g>
<!-- libidn11&#45;&gt;m2w64&#45;muparser -->
<!-- pigz -->
<g id="node4" class="node">
<title>pigz</title>
<g id="a_node4"><a xlink:href="https://github.com/conda-forge/pigz-feedstock/pull/23" xlink:title="pigz ❎">
<ellipse fill="#31688e" stroke="black" cx="2279.77" cy="-1546" rx="47.53" ry="18"/>
<text text-anchor="middle" x="2279.77" y="-1541.33" font-family="Times,serif" font-size="14.00" fill="white">pigz ❎</text>
</a>
</g>
</g>
<!-- m2w64&#45;muparser&#45;&gt;pigz -->
<!-- rpy2 -->
<g id="node5" class="node">
<title>rpy2</title>
<g id="a_node5"><a xlink:href="https://github.com/conda-forge/rpy2-feedstock/pull/126" xlink:title="rpy2 ❎">
<ellipse fill="#31688e" stroke="black" cx="2279.77" cy="-1474" rx="49.63" ry="18"/>
<text text-anchor="middle" x="2279.77" y="-1469.33" font-family="Times,serif" font-size="14.00" fill="white">rpy2 ❎</text>
</a>
</g>
</g>
<!-- pigz&#45;&gt;rpy2 -->
<!-- sixs -->
<g id="node6" class="node">
<title>sixs</title>
<g id="a_node6"><a xlink:href="https://github.com/conda-forge/sixs-feedstock/pull/17" xlink:title="sixs ❎">
<ellipse fill="#31688e" stroke="black" cx="2279.77" cy="-1402" rx="45.95" ry="18"/>
<text text-anchor="middle" x="2279.77" y="-1397.33" font-family="Times,serif" font-size="14.00" fill="white">sixs ❎</text>
</a>
</g>
</g>
<!-- rpy2&#45;&gt;sixs -->
<!-- perl&#45;sys&#45;cpu -->
<g id="node7" class="node">
<title>perl&#45;sys&#45;cpu</title>
<g id="a_node7"><a xlink:href="https://github.com/conda-forge/perl-sys-cpu-feedstock/pull/5" xlink:title="perl sys cpu ❎">
<ellipse fill="#31688e" stroke="black" cx="2279.77" cy="-1330" rx="86.98" ry="18"/>
<text text-anchor="middle" x="2279.77" y="-1325.33" font-family="Times,serif" font-size="14.00" fill="white">perl sys cpu ❎</text>
</a>
</g>
</g>
<!-- sixs&#45;&gt;perl&#45;sys&#45;cpu -->
<!-- mongo&#45;tools -->
<g id="node25" class="node">
<title>mongo&#45;tools</title>
<g id="a_node25"><a xlink:href="https://github.com/conda-forge/mongo-tools-feedstock/pull/51" xlink:title="mongo tools ❎">
<ellipse fill="#31688e" stroke="black" cx="2279.77" cy="-1258" rx="87.51" ry="18"/>
<text text-anchor="middle" x="2279.77" y="-1253.33" font-family="Times,serif" font-size="14.00" fill="white">mongo tools ❎</text>
</a>
</g>
</g>
<!-- perl&#45;sys&#45;cpu&#45;&gt;mongo&#45;tools -->
<!-- wrf&#45;python -->
<g id="node8" class="node">
<title>wrf&#45;python</title>
<g id="a_node8"><a xlink:href="https://github.com/conda-forge/wrf-python-feedstock" xlink:title="wrf python">
<ellipse fill="#fde725" stroke="black" cx="1137.19" cy="-1510" rx="65.94" ry="18"/>
<text text-anchor="middle" x="1137.19" y="-1505.33" font-family="Times,serif" font-size="14.00">wrf python</text>
</a>
</g>
</g>
<!-- xgboost -->
<g id="node9" class="node">
<title>xgboost</title>
<g id="a_node9"><a xlink:href="https://github.com/conda-forge/xgboost-feedstock/pull/177" xlink:title="xgboost ❎">
<ellipse fill="#31688e" stroke="black" cx="1804.38" cy="-1582" rx="65.94" ry="18"/>
<text text-anchor="middle" x="1804.38" y="-1577.33" font-family="Times,serif" font-size="14.00" fill="white">xgboost ❎</text>
</a>
</g>
</g>
<!-- r&#45;mikropml -->
<g id="node10" class="node">
<title>r&#45;mikropml</title>
<g id="a_node10"><a xlink:href="https://github.com/conda-forge/r-mikropml-feedstock" xlink:title="r mikropml">
<ellipse fill="#fde725" stroke="black" cx="1415.38" cy="-1510" rx="66.99" ry="18"/>
<text text-anchor="middle" x="1415.38" y="-1505.33" font-family="Times,serif" font-size="14.00">r mikropml</text>
</a>
</g>
</g>
<!-- xgboost&#45;&gt;r&#45;mikropml -->
<g id="edge7" class="edge">
<title>xgboost&#45;&gt;r&#45;mikropml</title>
<path fill="none" stroke="black" d="M1748.63,-1572.03C1686.85,-1561.95 1584.32,-1544.79 1496.38,-1528 1490.15,-1526.81 1483.65,-1525.52 1477.16,-1524.21"/>
<polygon fill="black" stroke="black" points="1478.3,-1520.87 1467.8,-1522.29 1476.89,-1527.73 1478.3,-1520.87"/>
</g>
<!-- r&#45;biomod2 -->
<g id="node11" class="node">
<title>r&#45;biomod2</title>
<g id="a_node11"><a xlink:href="https://github.com/conda-forge/r-biomod2-feedstock" xlink:title="r biomod2">
<ellipse fill="#fde725" stroke="black" cx="1273.38" cy="-1438" rx="62.26" ry="18"/>
<text text-anchor="middle" x="1273.38" y="-1433.33" font-family="Times,serif" font-size="14.00">r biomod2</text>
</a>
</g>
</g>
<!-- xgboost&#45;&gt;r&#45;biomod2 -->
<g id="edge8" class="edge">
<title>xgboost&#45;&gt;r&#45;biomod2</title>
<path fill="none" stroke="black" d="M1739.08,-1578.69C1681.14,-1574.32 1595.67,-1562.04 1529.38,-1528 1508.69,-1517.37 1511.82,-1503.12 1491.38,-1492 1489.58,-1491.02 1395.31,-1468.27 1331.34,-1452.9"/>
<polygon fill="black" stroke="black" points="1332.18,-1449.5 1321.64,-1450.57 1330.55,-1456.31 1332.18,-1449.5"/>
</g>
<!-- r&#45;modeltime -->
<g id="node12" class="node">
<title>r&#45;modeltime</title>
<g id="a_node12"><a xlink:href="https://github.com/conda-forge/r-modeltime-feedstock" xlink:title="r modeltime">
<ellipse fill="#fde725" stroke="black" cx="1610.38" cy="-1510" rx="72.25" ry="18"/>
<text text-anchor="middle" x="1610.38" y="-1505.33" font-family="Times,serif" font-size="14.00">r modeltime</text>
</a>
</g>
</g>
<!-- xgboost&#45;&gt;r&#45;modeltime -->
<g id="edge9" class="edge">
<title>xgboost&#45;&gt;r&#45;modeltime</title>
<path fill="none" stroke="black" d="M1765.59,-1567C1735.49,-1556.14 1693.52,-1541 1660.81,-1529.2"/>
<polygon fill="black" stroke="black" points="1662.13,-1525.95 1651.53,-1525.85 1659.75,-1532.53 1662.13,-1525.95"/>
</g>
<!-- r&#45;tidybins -->
<g id="node13" class="node">
<title>r&#45;tidybins</title>
<g id="a_node13"><a xlink:href="https://github.com/conda-forge/r-tidybins-feedstock" xlink:title="r tidybins">
<ellipse fill="#fde725" stroke="black" cx="1713.38" cy="-1438" rx="59.63" ry="18"/>
<text text-anchor="middle" x="1713.38" y="-1433.33" font-family="Times,serif" font-size="14.00">r tidybins</text>
</a>
</g>
</g>
<!-- xgboost&#45;&gt;r&#45;tidybins -->
<g id="edge10" class="edge">
<title>xgboost&#45;&gt;r&#45;tidybins</title>
<path fill="none" stroke="black" d="M1772.45,-1565.91C1757.06,-1557.01 1739.74,-1544.28 1729.38,-1528 1717.98,-1510.07 1714.16,-1486.22 1713.09,-1467.73"/>
<polygon fill="black" stroke="black" points="1716.6,-1467.86 1712.79,-1457.97 1709.6,-1468.08 1716.6,-1467.86"/>
</g>
<!-- r&#45;autostats -->
<g id="node14" class="node">
<title>r&#45;autostats</title>
<g id="a_node14"><a xlink:href="https://github.com/conda-forge/r-autostats-feedstock" xlink:title="r autostats">
<ellipse fill="#fde725" stroke="black" cx="1804.38" cy="-1510" rx="65.94" ry="18"/>
<text text-anchor="middle" x="1804.38" y="-1505.33" font-family="Times,serif" font-size="14.00">r autostats</text>
</a>
</g>
</g>
<!-- xgboost&#45;&gt;r&#45;autostats -->
<g id="edge11" class="edge">
<title>xgboost&#45;&gt;r&#45;autostats</title>
<path fill="none" stroke="black" d="M1804.38,-1563.7C1804.38,-1556.41 1804.38,-1547.73 1804.38,-1539.54"/>
<polygon fill="black" stroke="black" points="1807.88,-1539.62 1804.38,-1529.62 1800.88,-1539.62 1807.88,-1539.62"/>
</g>
<!-- r&#45;bundle -->
<g id="node15" class="node">
<title>r&#45;bundle</title>
<g id="a_node15"><a xlink:href="https://github.com/conda-forge/r-bundle-feedstock" xlink:title="r bundle">
<ellipse fill="#fde725" stroke="black" cx="1874.38" cy="-1366" rx="53.31" ry="18"/>
<text text-anchor="middle" x="1874.38" y="-1361.33" font-family="Times,serif" font-size="14.00">r bundle</text>
</a>
</g>
</g>
<!-- xgboost&#45;&gt;r&#45;bundle -->
<g id="edge12" class="edge">
<title>xgboost&#45;&gt;r&#45;bundle</title>
<path fill="none" stroke="black" d="M1838.34,-1566.19C1853.84,-1557.49 1870.66,-1544.85 1879.38,-1528 1901.24,-1485.79 1891.87,-1428.66 1883.11,-1395.03"/>
<polygon fill="black" stroke="black" points="1886.54,-1394.33 1880.49,-1385.64 1879.8,-1396.21 1886.54,-1394.33"/>
</g>
<!-- r&#45;twang -->
<g id="node16" class="node">
<title>r&#45;twang</title>
<g id="a_node16"><a xlink:href="https://github.com/conda-forge/r-twang-feedstock" xlink:title="r twang">
<ellipse fill="#fde725" stroke="black" cx="1935.38" cy="-1294" rx="50.16" ry="18"/>
<text text-anchor="middle" x="1935.38" y="-1289.33" font-family="Times,serif" font-size="14.00">r twang</text>
</a>
</g>
</g>
<!-- xgboost&#45;&gt;r&#45;twang -->
<g id="edge13" class="edge">
<title>xgboost&#45;&gt;r&#45;twang</title>
<path fill="none" stroke="black" d="M1843.67,-1567.3C1862.77,-1558.76 1884.53,-1545.94 1898.38,-1528 1945.14,-1467.47 1943.37,-1371.26 1938.99,-1323.64"/>
<polygon fill="black" stroke="black" points="1942.49,-1323.45 1937.98,-1313.87 1935.53,-1324.18 1942.49,-1323.45"/>
</g>
<!-- r&#45;shapviz -->
<g id="node17" class="node">
<title>r&#45;shapviz</title>
<g id="a_node17"><a xlink:href="https://github.com/conda-forge/r-shapviz-feedstock" xlink:title="r shapviz">
<ellipse fill="#fde725" stroke="black" cx="2013.38" cy="-1222" rx="57" ry="18"/>
<text text-anchor="middle" x="2013.38" y="-1217.33" font-family="Times,serif" font-size="14.00">r shapviz</text>
</a>
</g>
</g>
<!-- xgboost&#45;&gt;r&#45;shapviz -->
<g id="edge14" class="edge">
<title>xgboost&#45;&gt;r&#45;shapviz</title>
<path fill="none" stroke="black" d="M1854.98,-1570.12C1916.83,-1553.5 2013.38,-1515.33 2013.38,-1439 2013.38,-1439 2013.38,-1439 2013.38,-1365 2013.38,-1325.74 2013.38,-1280.38 2013.38,-1251.69"/>
<polygon fill="black" stroke="black" points="2016.88,-1252 2013.38,-1242 2009.88,-1252 2016.88,-1252"/>
</g>
<!-- r&#45;bigsnpr -->
<g id="node18" class="node">
<title>r&#45;bigsnpr</title>
<g id="a_node18"><a xlink:href="https://github.com/conda-forge/r-bigsnpr-feedstock" xlink:title="r bigsnpr">
<ellipse fill="#fde725" stroke="black" cx="2099.38" cy="-1510" rx="57.52" ry="18"/>
<text text-anchor="middle" x="2099.38" y="-1505.33" font-family="Times,serif" font-size="14.00">r bigsnpr</text>
</a>
</g>
</g>
<!-- xgboost&#45;&gt;r&#45;bigsnpr -->
<g id="edge15" class="edge">
<title>xgboost&#45;&gt;r&#45;bigsnpr</title>
<path fill="none" stroke="black" d="M1853.1,-1569.44C1905.46,-1557.02 1988.56,-1537.3 2043.53,-1524.25"/>
<polygon fill="black" stroke="black" points="2044.08,-1527.72 2053,-1522.01 2042.46,-1520.91 2044.08,-1527.72"/>
</g>
<!-- r&#45;ecospat -->
<g id="node19" class="node">
<title>r&#45;ecospat</title>
<g id="a_node19"><a xlink:href="https://github.com/conda-forge/r-ecospat-feedstock" xlink:title="r ecospat">
<ellipse fill="#fde725" stroke="black" cx="1273.38" cy="-1366" rx="57.52" ry="18"/>
<text text-anchor="middle" x="1273.38" y="-1361.33" font-family="Times,serif" font-size="14.00">r ecospat</text>
</a>
</g>
</g>
<!-- r&#45;biomod2&#45;&gt;r&#45;ecospat -->
<g id="edge16" class="edge">
<title>r&#45;biomod2&#45;&gt;r&#45;ecospat</title>
<path fill="none" stroke="black" d="M1273.38,-1419.7C1273.38,-1412.41 1273.38,-1403.73 1273.38,-1395.54"/>
<polygon fill="black" stroke="black" points="1276.88,-1395.62 1273.38,-1385.62 1269.88,-1395.62 1276.88,-1395.62"/>
</g>
<!-- r&#45;modeltime.resample -->
<g id="node20" class="node">
<title>r&#45;modeltime.resample</title>
<g id="a_node20"><a xlink:href="https://github.com/conda-forge/r-modeltime.resample-feedstock" xlink:title="r modeltime resample">
<ellipse fill="#fde725" stroke="black" cx="1475.38" cy="-1438" rx="121.71" ry="18"/>
<text text-anchor="middle" x="1475.38" y="-1433.33" font-family="Times,serif" font-size="14.00">r modeltime resample</text>
</a>
</g>
</g>
<!-- r&#45;modeltime&#45;&gt;r&#45;modeltime.resample -->
<g id="edge17" class="edge">
<title>r&#45;modeltime&#45;&gt;r&#45;modeltime.resample</title>
<path fill="none" stroke="black" d="M1580.09,-1493.29C1561.68,-1483.75 1537.91,-1471.42 1517.68,-1460.93"/>
<polygon fill="black" stroke="black" points="1519.29,-1457.83 1508.81,-1456.33 1516.07,-1464.04 1519.29,-1457.83"/>
</g>
<!-- r&#45;modeltime.ensemble -->
<g id="node21" class="node">
<title>r&#45;modeltime.ensemble</title>
<g id="a_node21"><a xlink:href="https://github.com/conda-forge/r-modeltime.ensemble-feedstock" xlink:title="r modeltime ensemble">
<ellipse fill="#fde725" stroke="black" cx="1476.38" cy="-1366" rx="123.29" ry="18"/>
<text text-anchor="middle" x="1476.38" y="-1361.33" font-family="Times,serif" font-size="14.00">r modeltime ensemble</text>
</a>
</g>
</g>
<!-- r&#45;modeltime&#45;&gt;r&#45;modeltime.ensemble -->
<g id="edge18" class="edge">
<title>r&#45;modeltime&#45;&gt;r&#45;modeltime.ensemble</title>
<path fill="none" stroke="black" d="M1614.67,-1491.86C1618.44,-1472.55 1621.27,-1441.11 1606.38,-1420 1595.11,-1404.02 1578.13,-1392.85 1560.13,-1385.04"/>
<polygon fill="black" stroke="black" points="1561.44,-1381.8 1550.86,-1381.38 1558.87,-1388.31 1561.44,-1381.8"/>
</g>
<!-- r&#45;tidyconsultant -->
<g id="node22" class="node">
<title>r&#45;tidyconsultant</title>
<g id="a_node22"><a xlink:href="https://github.com/conda-forge/r-tidyconsultant-feedstock" xlink:title="r tidyconsultant">
<ellipse fill="#fde725" stroke="black" cx="1711.38" cy="-1366" rx="91.19" ry="18"/>
<text text-anchor="middle" x="1711.38" y="-1361.33" font-family="Times,serif" font-size="14.00">r tidyconsultant</text>
</a>
</g>
</g>
<!-- r&#45;tidybins&#45;&gt;r&#45;tidyconsultant -->
<g id="edge19" class="edge">
<title>r&#45;tidybins&#45;&gt;r&#45;tidyconsultant</title>
<path fill="none" stroke="black" d="M1712.89,-1419.7C1712.68,-1412.41 1712.43,-1403.73 1712.2,-1395.54"/>
<polygon fill="black" stroke="black" points="1715.7,-1395.51 1711.92,-1385.62 1708.7,-1395.71 1715.7,-1395.51"/>
</g>
<!-- r&#45;autostats&#45;&gt;r&#45;tidybins -->
<g id="edge20" class="edge">
<title>r&#45;autostats&#45;&gt;r&#45;tidybins</title>
<path fill="none" stroke="black" d="M1783.28,-1492.76C1771.45,-1483.66 1756.49,-1472.16 1743.46,-1462.13"/>
<polygon fill="black" stroke="black" points="1745.64,-1459.39 1735.58,-1456.07 1741.37,-1464.94 1745.64,-1459.39"/>
</g>
<!-- r&#45;autostats&#45;&gt;r&#45;tidyconsultant -->
<g id="edge21" class="edge">
<title>r&#45;autostats&#45;&gt;r&#45;tidyconsultant</title>
<path fill="none" stroke="black" d="M1803.53,-1491.55C1801.85,-1472.53 1796.91,-1441.88 1782.38,-1420 1774.54,-1408.19 1763.14,-1398.01 1751.76,-1389.82"/>
<polygon fill="black" stroke="black" points="1753.79,-1386.96 1743.54,-1384.26 1749.87,-1392.76 1753.79,-1386.96"/>
</g>
<!-- r&#45;vetiver -->
<g id="node23" class="node">
<title>r&#45;vetiver</title>
<g id="a_node23"><a xlink:href="https://github.com/conda-forge/r-vetiver-feedstock" xlink:title="r vetiver">
<ellipse fill="#fde725" stroke="black" cx="1812.38" cy="-1294" rx="54.36" ry="18"/>
<text text-anchor="middle" x="1812.38" y="-1289.33" font-family="Times,serif" font-size="14.00">r vetiver</text>
</a>
</g>
</g>
<!-- r&#45;bundle&#45;&gt;r&#45;vetiver -->
<g id="edge22" class="edge">
<title>r&#45;bundle&#45;&gt;r&#45;vetiver</title>
<path fill="none" stroke="black" d="M1859.69,-1348.41C1852.2,-1339.95 1842.94,-1329.49 1834.6,-1320.08"/>
<polygon fill="black" stroke="black" points="1837.23,-1317.77 1827.98,-1312.6 1831.99,-1322.41 1837.23,-1317.77"/>
</g>
<!-- r&#45;cmprskcoxmsm -->
<g id="node24" class="node">
<title>r&#45;cmprskcoxmsm</title>
<g id="a_node24"><a xlink:href="https://github.com/conda-forge/r-cmprskcoxmsm-feedstock" xlink:title="r cmprskcoxmsm">
<ellipse fill="#fde725" stroke="black" cx="1841.38" cy="-1222" rx="96.98" ry="18"/>
<text text-anchor="middle" x="1841.38" y="-1217.33" font-family="Times,serif" font-size="14.00">r cmprskcoxmsm</text>
</a>
</g>
</g>
<!-- r&#45;twang&#45;&gt;r&#45;cmprskcoxmsm -->
<g id="edge23" class="edge">
<title>r&#45;twang&#45;&gt;r&#45;cmprskcoxmsm</title>
<path fill="none" stroke="black" d="M1914.52,-1277.46C1902.39,-1268.43 1886.86,-1256.86 1873.23,-1246.71"/>
<polygon fill="black" stroke="black" points="1875.49,-1244.03 1865.38,-1240.87 1871.31,-1249.65 1875.49,-1244.03"/>
</g>
<!-- r&#45;modeltime.resample&#45;&gt;r&#45;modeltime.ensemble -->
<g id="edge49" class="edge">
<title>r&#45;modeltime.resample&#45;&gt;r&#45;modeltime.ensemble</title>
<path fill="none" stroke="black" d="M1475.63,-1419.7C1475.74,-1412.41 1475.86,-1403.73 1475.98,-1395.54"/>
<polygon fill="black" stroke="black" points="1479.47,-1395.67 1476.12,-1385.62 1472.48,-1395.57 1479.47,-1395.67"/>
</g>
<!-- go1.4&#45;bootstrap -->
<g id="node26" class="node">
<title>go1.4&#45;bootstrap</title>
<g id="a_node26"><a xlink:href="https://github.com/conda-forge/go1.4-bootstrap-feedstock" xlink:title="go1 4 bootstrap">
<ellipse fill="#000000" stroke="black" cx="2279.77" cy="-1186" rx="90.67" ry="18"/>
<text text-anchor="middle" x="2279.77" y="-1181.33" font-family="Times,serif" font-size="14.00" fill="white">go1 4 bootstrap</text>
</a>
</g>
</g>
<!-- mongo&#45;tools&#45;&gt;go1.4&#45;bootstrap -->
<!-- pyreadr -->
<g id="node27" class="node">
<title>pyreadr</title>
<g id="a_node27"><a xlink:href="https://github.com/conda-forge/pyreadr-feedstock/pull/53" xlink:title="pyreadr ❎">
<ellipse fill="#31688e" stroke="black" cx="2279.77" cy="-1114" rx="65.94" ry="18"/>
<text text-anchor="middle" x="2279.77" y="-1109.33" font-family="Times,serif" font-size="14.00" fill="white">pyreadr ❎</text>
</a>
</g>
</g>
<!-- go1.4&#45;bootstrap&#45;&gt;pyreadr -->
<!-- fossil -->
<g id="node28" class="node">
<title>fossil</title>
<g id="a_node28"><a xlink:href="https://github.com/conda-forge/fossil-feedstock/pull/23" xlink:title="fossil ❎">
<ellipse fill="#31688e" stroke="black" cx="2279.77" cy="-1042" rx="52.79" ry="18"/>
<text text-anchor="middle" x="2279.77" y="-1037.33" font-family="Times,serif" font-size="14.00" fill="white">fossil ❎</text>
</a>
</g>
</g>
<!-- pyreadr&#45;&gt;fossil -->
<!-- yggdrasil -->
<g id="node29" class="node">
<title>yggdrasil</title>
<g id="a_node29"><a xlink:href="https://github.com/conda-forge/yggdrasil-feedstock/pull/47" xlink:title="yggdrasil ❎">
<ellipse fill="#31688e" stroke="black" cx="560.19" cy="-1438" rx="73.3" ry="18"/>
<text text-anchor="middle" x="560.19" y="-1433.33" font-family="Times,serif" font-size="14.00" fill="white">yggdrasil ❎</text>
</a>
</g>
</g>
<!-- libredwg -->
<g id="node30" class="node">
<title>libredwg</title>
<g id="a_node30"><a xlink:href="https://github.com/conda-forge/libredwg-feedstock/pull/91" xlink:title="libredwg ❎">
<ellipse fill="#31688e" stroke="black" cx="1684.02" cy="-998" rx="70.68" ry="18"/>
<text text-anchor="middle" x="1684.02" y="-993.33" font-family="Times,serif" font-size="14.00" fill="white">libredwg ❎</text>
</a>
</g>
</g>
<!-- libxfoil -->
<g id="node31" class="node">
<title>libxfoil</title>
<g id="a_node31"><a xlink:href="https://github.com/conda-forge/libxfoil-feedstock/pull/14" xlink:title="libxfoil ❎">
<ellipse fill="#31688e" stroke="black" cx="1684.02" cy="-926" rx="60.68" ry="18"/>
<text text-anchor="middle" x="1684.02" y="-921.33" font-family="Times,serif" font-size="14.00" fill="white">libxfoil ❎</text>
</a>
</g>
</g>
<!-- libredwg&#45;&gt;libxfoil -->
<!-- pycrlibm -->
<g id="node32" class="node">
<title>pycrlibm</title>
<g id="a_node32"><a xlink:href="https://github.com/conda-forge/pycrlibm-feedstock/pull/11" xlink:title="pycrlibm ❎">
<ellipse fill="#31688e" stroke="black" cx="1684.02" cy="-854" rx="70.68" ry="18"/>
<text text-anchor="middle" x="1684.02" y="-849.33" font-family="Times,serif" font-size="14.00" fill="white">pycrlibm ❎</text>
</a>
</g>
</g>
<!-- libxfoil&#45;&gt;pycrlibm -->
<!-- libbezier -->
<g id="node33" class="node">
<title>libbezier</title>
<g id="a_node33"><a xlink:href="https://github.com/conda-forge/libbezier-feedstock/pull/10" xlink:title="libbezier ❎">
<ellipse fill="#31688e" stroke="black" cx="1684.02" cy="-782" rx="70.15" ry="18"/>
<text text-anchor="middle" x="1684.02" y="-777.33" font-family="Times,serif" font-size="14.00" fill="white">libbezier ❎</text>
</a>
</g>
</g>
<!-- pycrlibm&#45;&gt;libbezier -->
<!-- r&#45;destinie -->
<g id="node34" class="node">
<title>r&#45;destinie</title>
<g id="a_node34"><a xlink:href="https://github.com/conda-forge/r-destinie-feedstock/pull/8" xlink:title="r destinie ❎">
<ellipse fill="#31688e" stroke="black" cx="1684.02" cy="-710" rx="74.36" ry="18"/>
<text text-anchor="middle" x="1684.02" y="-705.33" font-family="Times,serif" font-size="14.00" fill="white">r destinie ❎</text>
</a>
</g>
</g>
<!-- libbezier&#45;&gt;r&#45;destinie -->
<!-- leparagliding -->
<g id="node35" class="node">
<title>leparagliding</title>
<g id="a_node35"><a xlink:href="https://github.com/conda-forge/leparagliding-feedstock/pull/11" xlink:title="leparagliding ❎">
<ellipse fill="#31688e" stroke="black" cx="1684.02" cy="-638" rx="92.77" ry="18"/>
<text text-anchor="middle" x="1684.02" y="-633.33" font-family="Times,serif" font-size="14.00" fill="white">leparagliding ❎</text>
</a>
</g>
</g>
<!-- r&#45;destinie&#45;&gt;leparagliding -->
<!-- ndd -->
<g id="node40" class="node">
<title>ndd</title>
<g id="a_node40"><a xlink:href="https://github.com/conda-forge/ndd-feedstock/pull/13" xlink:title="ndd ❎">
<ellipse fill="#31688e" stroke="black" cx="1684.02" cy="-566" rx="45.42" ry="18"/>
<text text-anchor="middle" x="1684.02" y="-561.33" font-family="Times,serif" font-size="14.00" fill="white">ndd ❎</text>
</a>
</g>
</g>
<!-- leparagliding&#45;&gt;ndd -->
<!-- framel -->
<g id="node36" class="node">
<title>framel</title>
<g id="a_node36"><a xlink:href="https://github.com/conda-forge/framel-feedstock/pull/41" xlink:title="framel ❎">
<ellipse fill="#31688e" stroke="black" cx="2279.77" cy="-162" rx="59.1" ry="18"/>
<text text-anchor="middle" x="2279.77" y="-157.32" font-family="Times,serif" font-size="14.00" fill="white">framel ❎</text>
</a>
</g>
</g>
<!-- frv -->
<g id="node37" class="node">
<title>frv</title>
<g id="a_node37"><a xlink:href="https://github.com/conda-forge/frv-feedstock" xlink:title="frv">
<ellipse fill="#fde725" stroke="black" cx="2279.77" cy="-90" rx="27" ry="18"/>
<text text-anchor="middle" x="2279.77" y="-85.33" font-family="Times,serif" font-size="14.00">frv</text>
</a>
</g>
</g>
<!-- framel&#45;&gt;frv -->
<g id="edge33" class="edge">
<title>framel&#45;&gt;frv</title>
<path fill="none" stroke="black" d="M2279.77,-143.7C2279.77,-136.41 2279.77,-127.73 2279.77,-119.54"/>
<polygon fill="black" stroke="black" points="2283.27,-119.62 2279.77,-109.62 2276.27,-119.62 2283.27,-119.62"/>
</g>
<!-- m2w64&#45;jq -->
<g id="node38" class="node">
<title>m2w64&#45;jq</title>
<g id="a_node38"><a xlink:href="https://github.com/conda-forge/m2w64-jq-feedstock" xlink:title="m2w64 jq">
<ellipse fill="#fde725" stroke="black" cx="1684.02" cy="-90" rx="60.68" ry="18"/>
<text text-anchor="middle" x="1684.02" y="-85.33" font-family="Times,serif" font-size="14.00">m2w64 jq</text>
</a>
</g>
</g>
<!-- m2w64&#45;oniguruma -->
<g id="node39" class="node">
<title>m2w64&#45;oniguruma</title>
<g id="a_node39"><a xlink:href="https://github.com/conda-forge/m2w64-oniguruma-feedstock/pull/1" xlink:title="m2w64 oniguruma ❎">
<ellipse fill="#31688e" stroke="black" cx="1684.02" cy="-162" rx="120.65" ry="18"/>
<text text-anchor="middle" x="1684.02" y="-157.32" font-family="Times,serif" font-size="14.00" fill="white">m2w64 oniguruma ❎</text>
</a>
</g>
</g>
<!-- m2w64&#45;oniguruma&#45;&gt;m2w64&#45;jq -->
<g id="edge34" class="edge">
<title>m2w64&#45;oniguruma&#45;&gt;m2w64&#45;jq</title>
<path fill="none" stroke="black" d="M1684.02,-143.7C1684.02,-136.41 1684.02,-127.73 1684.02,-119.54"/>
<polygon fill="black" stroke="black" points="1687.52,-119.62 1684.02,-109.62 1680.52,-119.62 1687.52,-119.62"/>
</g>
<!-- zoxide -->
<g id="node49" class="node">
<title>zoxide</title>
<g id="a_node49"><a xlink:href="https://github.com/conda-forge/zoxide-feedstock/pull/26" xlink:title="zoxide ❎">
<ellipse fill="#31688e" stroke="black" cx="1684.02" cy="-494" rx="58.57" ry="18"/>
<text text-anchor="middle" x="1684.02" y="-489.32" font-family="Times,serif" font-size="14.00" fill="white">zoxide ❎</text>
</a>
</g>
</g>
<!-- ndd&#45;&gt;zoxide -->
<!-- msmpi -->
<g id="node41" class="node">
<title>msmpi</title>
<g id="a_node41"><a xlink:href="https://github.com/conda-forge/msmpi-feedstock/pull/21" xlink:title="msmpi ❎">
<ellipse fill="#31688e" stroke="black" cx="967.19" cy="-1582" rx="60.15" ry="18"/>
<text text-anchor="middle" x="967.19" y="-1577.33" font-family="Times,serif" font-size="14.00" fill="white">msmpi ❎</text>
</a>
</g>
</g>
<!-- msmpi&#45;&gt;wrf&#45;python -->
<g id="edge36" class="edge">
<title>msmpi&#45;&gt;wrf&#45;python</title>
<path fill="none" stroke="black" d="M1001.59,-1566.83C1027.4,-1556.21 1062.99,-1541.55 1091.24,-1529.92"/>
<polygon fill="black" stroke="black" points="1092.35,-1533.25 1100.27,-1526.2 1089.69,-1526.77 1092.35,-1533.25"/>
</g>
<!-- msmpi&#45;&gt;yggdrasil -->
<g id="edge37" class="edge">
<title>msmpi&#45;&gt;yggdrasil</title>
<path fill="none" stroke="black" d="M911.28,-1574.91C858.18,-1567.86 776.78,-1553.79 710.19,-1528 666.55,-1511.1 620.94,-1482.18 591.64,-1461.9"/>
<polygon fill="black" stroke="black" points="593.79,-1459.13 583.59,-1456.25 589.77,-1464.86 593.79,-1459.13"/>
</g>
<!-- r&#45;downscaler -->
<g id="node42" class="node">
<title>r&#45;downscaler</title>
<g id="a_node42"><a xlink:href="https://github.com/conda-forge/r-downscaler-feedstock" xlink:title="r downscaler">
<ellipse fill="#fde725" stroke="black" cx="795.19" cy="-1510" rx="75.94" ry="18"/>
<text text-anchor="middle" x="795.19" y="-1505.33" font-family="Times,serif" font-size="14.00">r downscaler</text>
</a>
</g>
</g>
<!-- msmpi&#45;&gt;r&#45;downscaler -->
<g id="edge38" class="edge">
<title>msmpi&#45;&gt;r&#45;downscaler</title>
<path fill="none" stroke="black" d="M932.8,-1567C906.98,-1556.5 871.31,-1541.98 842.76,-1530.36"/>
<polygon fill="black" stroke="black" points="844.19,-1527.16 833.6,-1526.63 841.55,-1533.65 844.19,-1527.16"/>
</g>
<!-- climlab&#45;cam3&#45;radiation -->
<g id="node43" class="node">
<title>climlab&#45;cam3&#45;radiation</title>
<g id="a_node43"><a xlink:href="https://github.com/conda-forge/climlab-cam3-radiation-feedstock" xlink:title="climlab cam3 radiation">
<ellipse fill="#fde725" stroke="black" cx="813.19" cy="-1366" rx="125.92" ry="18"/>
<text text-anchor="middle" x="813.19" y="-1361.33" font-family="Times,serif" font-size="14.00">climlab cam3 radiation</text>
</a>
</g>
</g>
<!-- msmpi&#45;&gt;climlab&#45;cam3&#45;radiation -->
<g id="edge39" class="edge">
<title>msmpi&#45;&gt;climlab&#45;cam3&#45;radiation</title>
<path fill="none" stroke="black" d="M962.74,-1563.67C953.03,-1526.86 929.27,-1442.4 910.19,-1420 898.86,-1406.7 883.32,-1396.15 867.99,-1388.09"/>
<polygon fill="black" stroke="black" points="869.87,-1385.11 859.36,-1383.81 866.77,-1391.39 869.87,-1385.11"/>
</g>
<!-- pyfabm -->
<g id="node44" class="node">
<title>pyfabm</title>
<g id="a_node44"><a xlink:href="https://github.com/conda-forge/pyfabm-feedstock" xlink:title="pyfabm">
<ellipse fill="#fde725" stroke="black" cx="928.19" cy="-1294" rx="48.58" ry="18"/>
<text text-anchor="middle" x="928.19" y="-1289.33" font-family="Times,serif" font-size="14.00">pyfabm</text>
</a>
</g>
</g>
<!-- msmpi&#45;&gt;pyfabm -->
<g id="edge40" class="edge">
<title>msmpi&#45;&gt;pyfabm</title>
<path fill="none" stroke="black" d="M967.42,-1563.51C967.57,-1524.37 965.95,-1427 948.19,-1348 946.26,-1339.42 943.24,-1330.38 940.13,-1322.23"/>
<polygon fill="black" stroke="black" points="943.48,-1321.18 936.48,-1313.22 936.99,-1323.8 943.48,-1321.18"/>
</g>
<!-- eatpy -->
<g id="node45" class="node">
<title>eatpy</title>
<g id="a_node45"><a xlink:href="https://github.com/conda-forge/eatpy-feedstock" xlink:title="eatpy">
<ellipse fill="#fde725" stroke="black" cx="1043.19" cy="-1222" rx="39.11" ry="18"/>
<text text-anchor="middle" x="1043.19" y="-1217.33" font-family="Times,serif" font-size="14.00">eatpy</text>
</a>
</g>
</g>
<!-- msmpi&#45;&gt;eatpy -->
<g id="edge41" class="edge">
<title>msmpi&#45;&gt;eatpy</title>
<path fill="none" stroke="black" d="M983.31,-1564.19C1005.62,-1539.09 1043.19,-1489.33 1043.19,-1439 1043.19,-1439 1043.19,-1439 1043.19,-1365 1043.19,-1325.74 1043.19,-1280.38 1043.19,-1251.69"/>
<polygon fill="black" stroke="black" points="1046.69,-1252 1043.19,-1242 1039.69,-1252 1046.69,-1252"/>
</g>
<!-- pygetm -->
<g id="node46" class="node">
<title>pygetm</title>
<g id="a_node46"><a xlink:href="https://github.com/conda-forge/pygetm-feedstock" xlink:title="pygetm">
<ellipse fill="#fde725" stroke="black" cx="933.19" cy="-1222" rx="49.1" ry="18"/>
<text text-anchor="middle" x="933.19" y="-1217.33" font-family="Times,serif" font-size="14.00">pygetm</text>
</a>
</g>
</g>
<!-- msmpi&#45;&gt;pygetm -->
<g id="edge42" class="edge">
<title>msmpi&#45;&gt;pygetm</title>
<path fill="none" stroke="black" d="M974.88,-1563.91C985.98,-1537.62 1005.19,-1485.45 1005.19,-1439 1005.19,-1439 1005.19,-1439 1005.19,-1365 1005.19,-1324.55 1005.5,-1311.54 986.19,-1276 980.21,-1265 971.23,-1254.78 962.36,-1246.3"/>
<polygon fill="black" stroke="black" points="964.88,-1243.86 955.11,-1239.76 960.19,-1249.06 964.88,-1243.86"/>
</g>
<!-- r&#45;climate4r -->
<g id="node47" class="node">
<title>r&#45;climate4r</title>
<g id="a_node47"><a xlink:href="https://github.com/conda-forge/r-climate4r-feedstock" xlink:title="r climate4r">
<ellipse fill="#fde725" stroke="black" cx="363.19" cy="-1366" rx="66.99" ry="18"/>
<text text-anchor="middle" x="363.19" y="-1361.33" font-family="Times,serif" font-size="14.00">r climate4r</text>
</a>
</g>
</g>
<!-- r&#45;downscaler&#45;&gt;r&#45;climate4r -->
<g id="edge43" class="edge">
<title>r&#45;downscaler&#45;&gt;r&#45;climate4r</title>
<path fill="none" stroke="black" d="M755.16,-1494.33C732.24,-1485.02 703.49,-1471.77 680.19,-1456 660.92,-1442.96 662.9,-1430.6 642.19,-1420 579.13,-1387.73 498.98,-1374.99 440.78,-1370.02"/>
<polygon fill="black" stroke="black" points="441.19,-1366.54 430.95,-1369.24 440.64,-1373.52 441.19,-1366.54"/>
</g>
<!-- r&#45;downscaler.keras -->
<g id="node48" class="node">
<title>r&#45;downscaler.keras</title>
<g id="a_node48"><a xlink:href="https://github.com/conda-forge/r-downscaler.keras-feedstock" xlink:title="r downscaler keras">
<ellipse fill="#fde725" stroke="black" cx="795.19" cy="-1438" rx="106.45" ry="18"/>
<text text-anchor="middle" x="795.19" y="-1433.33" font-family="Times,serif" font-size="14.00">r downscaler keras</text>
</a>
</g>
</g>
<!-- r&#45;downscaler&#45;&gt;r&#45;downscaler.keras -->
<g id="edge44" class="edge">
<title>r&#45;downscaler&#45;&gt;r&#45;downscaler.keras</title>
<path fill="none" stroke="black" d="M795.19,-1491.7C795.19,-1484.41 795.19,-1475.73 795.19,-1467.54"/>
<polygon fill="black" stroke="black" points="798.69,-1467.62 795.19,-1457.62 791.69,-1467.62 798.69,-1467.62"/>
</g>
<!-- pyfabm&#45;&gt;pygetm -->
<g id="edge45" class="edge">
<title>pyfabm&#45;&gt;pygetm</title>
<path fill="none" stroke="black" d="M929.42,-1275.7C929.95,-1268.41 930.57,-1259.73 931.15,-1251.54"/>
<polygon fill="black" stroke="black" points="934.64,-1251.84 931.86,-1241.61 927.66,-1251.34 934.64,-1251.84"/>
</g>
<!-- r&#45;downscaler.keras&#45;&gt;r&#45;climate4r -->
<g id="edge57" class="edge">
<title>r&#45;downscaler.keras&#45;&gt;r&#45;climate4r</title>
<path fill="none" stroke="black" d="M720.43,-1424.89C638.84,-1411.67 509.35,-1390.68 430.72,-1377.94"/>
<polygon fill="black" stroke="black" points="431.43,-1374.51 421,-1376.37 430.31,-1381.42 431.43,-1374.51"/>
</g>
<!-- flash -->
<g id="node50" class="node">
<title>flash</title>
<g id="a_node50"><a xlink:href="https://github.com/conda-forge/flash-feedstock/pull/3" xlink:title="flash ❎">
<ellipse fill="#31688e" stroke="black" cx="1684.02" cy="-422" rx="50.16" ry="18"/>
<text text-anchor="middle" x="1684.02" y="-417.32" font-family="Times,serif" font-size="14.00" fill="white">flash ❎</text>
</a>
</g>
</g>
<!-- zoxide&#45;&gt;flash -->
<!-- jasp -->
<g id="node51" class="node">
<title>jasp</title>
<g id="a_node51"><a xlink:href="https://github.com/conda-forge/jasp-feedstock/pull/29" xlink:title="jasp ❎">
<ellipse fill="#31688e" stroke="black" cx="1684.02" cy="-350" rx="47" ry="18"/>
<text text-anchor="middle" x="1684.02" y="-345.32" font-family="Times,serif" font-size="14.00" fill="white">jasp ❎</text>
</a>
</g>
</g>
<!-- flash&#45;&gt;jasp -->
<!-- crabz -->
<g id="node52" class="node">
<title>crabz</title>
<g id="a_node52"><a xlink:href="https://github.com/conda-forge/crabz-feedstock/pull/13" xlink:title="crabz ❎">
<ellipse fill="#31688e" stroke="black" cx="1684.02" cy="-278" rx="53.84" ry="18"/>
<text text-anchor="middle" x="1684.02" y="-273.32" font-family="Times,serif" font-size="14.00" fill="white">crabz ❎</text>
</a>
</g>
</g>
<!-- jasp&#45;&gt;crabz -->
<!-- hck -->
<g id="node53" class="node">
<title>hck</title>
<g id="a_node53"><a xlink:href="https://github.com/conda-forge/hck-feedstock/pull/16" xlink:title="hck ❎">
<ellipse fill="#31688e" stroke="black" cx="601.56" cy="-998" rx="43.84" ry="18"/>
<text text-anchor="middle" x="601.56" y="-993.33" font-family="Times,serif" font-size="14.00" fill="white">hck ❎</text>
</a>
</g>
</g>
<!-- reasonable -->
<g id="node54" class="node">
<title>reasonable</title>
<g id="a_node54"><a xlink:href="https://github.com/conda-forge/reasonable-feedstock/pull/20" xlink:title="reasonable ❎">
<ellipse fill="#31688e" stroke="black" cx="601.56" cy="-926" rx="81.2" ry="18"/>
<text text-anchor="middle" x="601.56" y="-921.33" font-family="Times,serif" font-size="14.00" fill="white">reasonable ❎</text>
</a>
</g>
</g>
<!-- hck&#45;&gt;reasonable -->
<!-- climlab&#45;rrtmg -->
<g id="node55" class="node">
<title>climlab&#45;rrtmg</title>
<g id="a_node55"><a xlink:href="https://github.com/conda-forge/climlab-rrtmg-feedstock/pull/8" xlink:title="climlab rrtmg ❎">
<ellipse fill="#31688e" stroke="black" cx="601.56" cy="-854" rx="95.4" ry="18"/>
<text text-anchor="middle" x="601.56" y="-849.33" font-family="Times,serif" font-size="14.00" fill="white">climlab rrtmg ❎</text>
</a>
</g>
</g>
<!-- reasonable&#45;&gt;climlab&#45;rrtmg -->
<!-- libdlfind -->
<g id="node56" class="node">
<title>libdlfind</title>
<g id="a_node56"><a xlink:href="https://github.com/conda-forge/libdlfind-feedstock/pull/7" xlink:title="libdlfind ✓">
<ellipse fill="#31688e" stroke="black" cx="601.56" cy="-782" rx="60.15" ry="18"/>
<text text-anchor="middle" x="601.56" y="-777.33" font-family="Times,serif" font-size="14.00" fill="white">libdlfind ✓</text>
</a>
</g>
</g>
<!-- climlab&#45;rrtmg&#45;&gt;libdlfind -->
<!-- r&#45;metamix -->
<g id="node60" class="node">
<title>r&#45;metamix</title>
<g id="a_node60"><a xlink:href="https://github.com/conda-forge/r-metamix-feedstock/pull/3" xlink:title="r metamix ❎">
<ellipse fill="#31688e" stroke="black" cx="601.56" cy="-710" rx="78.04" ry="18"/>
<text text-anchor="middle" x="601.56" y="-705.33" font-family="Times,serif" font-size="14.00" fill="white">r metamix ❎</text>
</a>
</g>
</g>
<!-- libdlfind&#45;&gt;r&#45;metamix -->
<!-- r&#45;convertr -->
<g id="node57" class="node">
<title>r&#45;convertr</title>
<g id="a_node57"><a xlink:href="https://github.com/conda-forge/r-convertr-feedstock/pull/6" xlink:title="r convertr ✓">
<ellipse fill="#31688e" stroke="black" cx="297.19" cy="-1510" rx="69.62" ry="18"/>
<text text-anchor="middle" x="297.19" y="-1505.33" font-family="Times,serif" font-size="14.00" fill="white">r convertr ✓</text>
</a>
</g>
</g>
<!-- r&#45;convertr&#45;&gt;r&#45;climate4r -->
<g id="edge55" class="edge">
<title>r&#45;convertr&#45;&gt;r&#45;climate4r</title>
<path fill="none" stroke="black" d="M277.4,-1492.51C258.05,-1474.33 233.61,-1444.42 249.19,-1420 260.88,-1401.67 280.73,-1389.58 300.62,-1381.65"/>
<polygon fill="black" stroke="black" points="301.68,-1384.99 309.88,-1378.29 299.28,-1378.41 301.68,-1384.99"/>
</g>
<!-- r&#45;climate4r.indices -->
<g id="node58" class="node">
<title>r&#45;climate4r.indices</title>
<g id="a_node58"><a xlink:href="https://github.com/conda-forge/r-climate4r.indices-feedstock" xlink:title="r climate4r indices">
<ellipse fill="#fde725" stroke="black" cx="363.19" cy="-1438" rx="105.4" ry="18"/>
<text text-anchor="middle" x="363.19" y="-1433.33" font-family="Times,serif" font-size="14.00">r climate4r indices</text>
</a>
</g>
</g>
<!-- r&#45;convertr&#45;&gt;r&#45;climate4r.indices -->
<g id="edge54" class="edge">
<title>r&#45;convertr&#45;&gt;r&#45;climate4r.indices</title>
<path fill="none" stroke="black" d="M313.17,-1492.05C320.99,-1483.75 330.58,-1473.58 339.26,-1464.38"/>
<polygon fill="black" stroke="black" points="341.55,-1467.05 345.86,-1457.38 336.46,-1462.25 341.55,-1467.05"/>
</g>
<!-- r&#45;climate4r.indices&#45;&gt;r&#45;climate4r -->
<g id="edge56" class="edge">
<title>r&#45;climate4r.indices&#45;&gt;r&#45;climate4r</title>
<path fill="none" stroke="black" d="M363.19,-1419.7C363.19,-1412.41 363.19,-1403.73 363.19,-1395.54"/>
<polygon fill="black" stroke="black" points="366.69,-1395.62 363.19,-1385.62 359.69,-1395.62 366.69,-1395.62"/>
</g>
<!-- r&#45;geoprocessor -->
<g id="node59" class="node">
<title>r&#45;geoprocessor</title>
<g id="a_node59"><a xlink:href="https://github.com/conda-forge/r-geoprocessor-feedstock/pull/7" xlink:title="r geoprocessor ❎">
<ellipse fill="#31688e" stroke="black" cx="101.19" cy="-1438" rx="101.19" ry="18"/>
<text text-anchor="middle" x="101.19" y="-1433.33" font-family="Times,serif" font-size="14.00" fill="white">r geoprocessor ❎</text>
</a>
</g>
</g>
<!-- r&#45;geoprocessor&#45;&gt;r&#45;climate4r -->
<g id="edge58" class="edge">
<title>r&#45;geoprocessor&#45;&gt;r&#45;climate4r</title>
<path fill="none" stroke="black" d="M155.79,-1422.41C199.76,-1410.66 261.37,-1394.2 306.01,-1382.28"/>
<polygon fill="black" stroke="black" points="306.75,-1385.7 315.5,-1379.74 304.94,-1378.94 306.75,-1385.7"/>
</g>
<!-- wdmtoolbox -->
<g id="node61" class="node">
<title>wdmtoolbox</title>
<g id="a_node61"><a xlink:href="https://github.com/conda-forge/wdmtoolbox-feedstock/pull/22" xlink:title="wdmtoolbox ❎">
<ellipse fill="#31688e" stroke="black" cx="601.56" cy="-638" rx="87.51" ry="18"/>
<text text-anchor="middle" x="601.56" y="-633.33" font-family="Times,serif" font-size="14.00" fill="white">wdmtoolbox ❎</text>
</a>
</g>
</g>
<!-- r&#45;metamix&#45;&gt;wdmtoolbox -->
<!-- gilknocker -->
<g id="node62" class="node">
<title>gilknocker</title>
<g id="a_node62"><a xlink:href="https://github.com/conda-forge/gilknocker-feedstock/pull/10" xlink:title="gilknocker ❎">
<ellipse fill="#31688e" stroke="black" cx="601.56" cy="-566" rx="78.57" ry="18"/>
<text text-anchor="middle" x="601.56" y="-561.33" font-family="Times,serif" font-size="14.00" fill="white">gilknocker ❎</text>
</a>
</g>
</g>
<!-- wdmtoolbox&#45;&gt;gilknocker -->
<!-- pcmsolver&#45;split -->
<g id="node63" class="node">
<title>pcmsolver&#45;split</title>
<g id="a_node63"><a xlink:href="https://github.com/conda-forge/pcmsolver-split-feedstock/pull/26" xlink:title="pcmsolver split ❎">
<ellipse fill="#31688e" stroke="black" cx="601.56" cy="-494" rx="103.29" ry="18"/>
<text text-anchor="middle" x="601.56" y="-489.32" font-family="Times,serif" font-size="14.00" fill="white">pcmsolver split ❎</text>
</a>
</g>
</g>
<!-- gilknocker&#45;&gt;pcmsolver&#45;split -->
<!-- gdma -->
<g id="node64" class="node">
<title>gdma</title>
<g id="a_node64"><a xlink:href="https://github.com/conda-forge/gdma-feedstock/pull/9" xlink:title="gdma ❎">
<ellipse fill="#31688e" stroke="black" cx="601.56" cy="-422" rx="54.36" ry="18"/>
<text text-anchor="middle" x="601.56" y="-417.32" font-family="Times,serif" font-size="14.00" fill="white">gdma ❎</text>
</a>
</g>
</g>
<!-- pcmsolver&#45;split&#45;&gt;gdma -->
<!-- prima -->
<g id="node65" class="node">
<title>prima</title>
<g id="a_node65"><a xlink:href="https://github.com/conda-forge/prima-feedstock/pull/6" xlink:title="prima ❎">
<ellipse fill="#31688e" stroke="black" cx="601.56" cy="-350" rx="55.94" ry="18"/>
<text text-anchor="middle" x="601.56" y="-345.32" font-family="Times,serif" font-size="14.00" fill="white">prima ❎</text>
</a>
</g>
</g>
<!-- gdma&#45;&gt;prima -->
<!-- b3sum -->
<g id="node66" class="node">
<title>b3sum</title>
<g id="a_node66"><a xlink:href="https://github.com/conda-forge/b3sum-feedstock/pull/7" xlink:title="b3sum ❎">
<ellipse fill="#31688e" stroke="black" cx="601.56" cy="-278" rx="60.15" ry="18"/>
<text text-anchor="middle" x="601.56" y="-273.32" font-family="Times,serif" font-size="14.00" fill="white">b3sum ❎</text>
</a>
</g>
</g>
<!-- prima&#45;&gt;b3sum -->
<!-- xeus&#45;r -->
<g id="node67" class="node">
<title>xeus&#45;r</title>
<g id="a_node67"><a xlink:href="https://github.com/conda-forge/xeus-r-feedstock/pull/9" xlink:title="xeus r ❎">
<ellipse fill="#31688e" stroke="black" cx="2279.77" cy="-854" rx="57.52" ry="18"/>
<text text-anchor="middle" x="2279.77" y="-849.33" font-family="Times,serif" font-size="14.00" fill="white">xeus r ❎</text>
</a>
</g>
</g>
<!-- libcramjam -->
<g id="node68" class="node">
<title>libcramjam</title>
<g id="a_node68"><a xlink:href="https://github.com/conda-forge/libcramjam-feedstock/pull/11" xlink:title="libcramjam ✓">
<ellipse fill="#31688e" stroke="black" cx="2279.77" cy="-782" rx="75.41" ry="18"/>
<text text-anchor="middle" x="2279.77" y="-777.33" font-family="Times,serif" font-size="14.00" fill="white">libcramjam ✓</text>
</a>
</g>
</g>
<!-- xeus&#45;r&#45;&gt;libcramjam -->
<!-- sqlx&#45;cli -->
<g id="node69" class="node">
<title>sqlx&#45;cli</title>
<g id="a_node69"><a xlink:href="https://github.com/conda-forge/sqlx-cli-feedstock/pull/7" xlink:title="sqlx cli ❎">
<ellipse fill="#31688e" stroke="black" cx="2279.77" cy="-710" rx="61.73" ry="18"/>
<text text-anchor="middle" x="2279.77" y="-705.33" font-family="Times,serif" font-size="14.00" fill="white">sqlx cli ❎</text>
</a>
</g>
</g>
<!-- libcramjam&#45;&gt;sqlx&#45;cli -->
<!-- dimad -->
<g id="node74" class="node">
<title>dimad</title>
<g id="a_node74"><a xlink:href="https://github.com/conda-forge/dimad-feedstock/pull/4" xlink:title="dimad ❎">
<ellipse fill="#31688e" stroke="black" cx="2279.77" cy="-638" rx="57.52" ry="18"/>
<text text-anchor="middle" x="2279.77" y="-633.33" font-family="Times,serif" font-size="14.00" fill="white">dimad ❎</text>
</a>
</g>
</g>
<!-- sqlx&#45;cli&#45;&gt;dimad -->
<!-- r&#45;nanonext -->
<g id="node70" class="node">
<title>r&#45;nanonext</title>
<g id="a_node70"><a xlink:href="https://github.com/conda-forge/r-nanonext-feedstock/pull/16" xlink:title="r nanonext ❎">
<ellipse fill="#31688e" stroke="black" cx="600.95" cy="-234" rx="80.67" ry="18"/>
<text text-anchor="middle" x="600.95" y="-229.32" font-family="Times,serif" font-size="14.00" fill="white">r nanonext ❎</text>
</a>
</g>
</g>
<!-- r&#45;crew -->
<g id="node71" class="node">
<title>r&#45;crew</title>
<g id="a_node71"><a xlink:href="https://github.com/conda-forge/r-crew-feedstock" xlink:title="r crew">
<ellipse fill="#fde725" stroke="black" cx="600.95" cy="-90" rx="43.32" ry="18"/>
<text text-anchor="middle" x="600.95" y="-85.33" font-family="Times,serif" font-size="14.00">r crew</text>
</a>
</g>
</g>
<!-- r&#45;nanonext&#45;&gt;r&#45;crew -->
<g id="edge68" class="edge">
<title>r&#45;nanonext&#45;&gt;r&#45;crew</title>
<path fill="none" stroke="black" d="M593.89,-215.67C590.11,-205.47 585.86,-192.22 583.95,-180 581.48,-164.19 581.48,-159.81 583.95,-144 585.27,-135.56 587.71,-126.64 590.33,-118.56"/>
<polygon fill="black" stroke="black" points="593.57,-119.88 593.56,-109.29 586.97,-117.58 593.57,-119.88"/>
</g>
<!-- r&#45;mirai -->
<g id="node72" class="node">
<title>r&#45;mirai</title>
<g id="a_node72"><a xlink:href="https://github.com/conda-forge/r-mirai-feedstock" xlink:title="r mirai">
<ellipse fill="#fde725" stroke="black" cx="637.95" cy="-162" rx="45.42" ry="18"/>
<text text-anchor="middle" x="637.95" y="-157.32" font-family="Times,serif" font-size="14.00">r mirai</text>
</a>
</g>
</g>
<!-- r&#45;nanonext&#45;&gt;r&#45;mirai -->
<g id="edge69" class="edge">
<title>r&#45;nanonext&#45;&gt;r&#45;mirai</title>
<path fill="none" stroke="black" d="M610.1,-215.7C614.18,-207.98 619.08,-198.71 623.62,-190.11"/>
<polygon fill="black" stroke="black" points="626.63,-191.92 628.2,-181.44 620.44,-188.65 626.63,-191.92"/>
</g>
<!-- r&#45;crew.cluster -->
<g id="node73" class="node">
<title>r&#45;crew.cluster</title>
<g id="a_node73"><a xlink:href="https://github.com/conda-forge/r-crew.cluster-feedstock" xlink:title="r crew cluster">
<ellipse fill="#fde725" stroke="black" cx="600.95" cy="-18" rx="81.2" ry="18"/>
<text text-anchor="middle" x="600.95" y="-13.32" font-family="Times,serif" font-size="14.00">r crew cluster</text>
</a>
</g>
</g>
<!-- r&#45;crew&#45;&gt;r&#45;crew.cluster -->
<g id="edge70" class="edge">
<title>r&#45;crew&#45;&gt;r&#45;crew.cluster</title>
<path fill="none" stroke="black" d="M600.95,-71.7C600.95,-64.41 600.95,-55.73 600.95,-47.54"/>
<polygon fill="black" stroke="black" points="604.45,-47.62 600.95,-37.62 597.45,-47.62 604.45,-47.62"/>
</g>
<!-- r&#45;mirai&#45;&gt;r&#45;crew -->
<g id="edge71" class="edge">
<title>r&#45;mirai&#45;&gt;r&#45;crew</title>
<path fill="none" stroke="black" d="M629,-144.05C624.81,-136.14 619.74,-126.54 615.06,-117.69"/>
<polygon fill="black" stroke="black" points="618.3,-116.33 610.53,-109.13 612.11,-119.6 618.3,-116.33"/>
</g>
<!-- r&#45;volumodel -->
<g id="node75" class="node">
<title>r&#45;volumodel</title>
<g id="a_node75"><a xlink:href="https://github.com/conda-forge/r-volumodel-feedstock/pull/2" xlink:title="r volumodel ❎">
<ellipse fill="#31688e" stroke="black" cx="2279.77" cy="-566" rx="85.93" ry="18"/>
<text text-anchor="middle" x="2279.77" y="-561.33" font-family="Times,serif" font-size="14.00" fill="white">r volumodel ❎</text>
</a>
</g>
</g>
<!-- dimad&#45;&gt;r&#45;volumodel -->
<!-- mystran -->
<g id="node76" class="node">
<title>mystran</title>
<g id="a_node76"><a xlink:href="https://github.com/conda-forge/mystran-feedstock/pull/3" xlink:title="mystran ❎">
<ellipse fill="#31688e" stroke="black" cx="2279.77" cy="-494" rx="68.04" ry="18"/>
<text text-anchor="middle" x="2279.77" y="-489.32" font-family="Times,serif" font-size="14.00" fill="white">mystran ❎</text>
</a>
</g>
</g>
<!-- r&#45;volumodel&#45;&gt;mystran -->
<!-- sixs_json -->
<g id="node77" class="node">
<title>sixs_json</title>
<g id="a_node77"><a xlink:href="https://github.com/conda-forge/sixs_json-feedstock/pull/3" xlink:title="sixs_json ❎">
<ellipse fill="#31688e" stroke="black" cx="2279.77" cy="-422" rx="71.2" ry="18"/>
<text text-anchor="middle" x="2279.77" y="-417.32" font-family="Times,serif" font-size="14.00" fill="white">sixs_json ❎</text>
</a>
</g>
</g>
<!-- mystran&#45;&gt;sixs_json -->
</g>
</svg>
