<?xml version="1.0" encoding="UTF-8" standalone="no"?>
<!DOCTYPE svg PUBLIC "-//W3C//DTD SVG 1.1//EN"
 "http://www.w3.org/Graphics/SVG/1.1/DTD/svg11.dtd">
<!-- Generated by graphviz version 12.0.0 (20240803.0821)
 -->
<!-- Pages: 1 -->
<svg width="2016pt" height="1644pt"
 viewBox="0.00 0.00 2015.93 1644.00" xmlns="http://www.w3.org/2000/svg" xmlns:xlink="http://www.w3.org/1999/xlink">
<g id="graph0" class="graph" transform="scale(1 1) rotate(0) translate(4 1640)">
<polygon fill="white" stroke="none" points="-4,4 -4,-1640 2011.93,-1640 2011.93,4 -4,4"/>
<!-- iverilog -->
<g id="node1" class="node">
<title>iverilog</title>
<g id="a_node1"><a xlink:href="https://github.com/conda-forge/iverilog-feedstock/pull/25" xlink:title="iverilog ❎">
<ellipse fill="#31688e" stroke="black" cx="1893.06" cy="-1618" rx="64.36" ry="18"/>
<text text-anchor="middle" x="1893.06" y="-1613.33" font-family="Times,serif" font-size="14.00" fill="white">iverilog ❎</text>
</a>
</g>
</g>
<!-- libidn11 -->
<g id="node2" class="node">
<title>libidn11</title>
<g id="a_node2"><a xlink:href="https://github.com/conda-forge/libidn11-feedstock/pull/13" xlink:title="libidn11 ❎">
<ellipse fill="#31688e" stroke="black" cx="1893.06" cy="-1546" rx="67.52" ry="18"/>
<text text-anchor="middle" x="1893.06" y="-1541.33" font-family="Times,serif" font-size="14.00" fill="white">libidn11 ❎</text>
</a>
</g>
</g>
<!-- iverilog&#45;&gt;libidn11 -->
<!-- m2w64&#45;muparser -->
<g id="node3" class="node">
<title>m2w64&#45;muparser</title>
<g id="a_node3"><a xlink:href="https://github.com/conda-forge/m2w64-muparser-feedstock/pull/13" xlink:title="m2w64 muparser ❎">
<ellipse fill="#31688e" stroke="black" cx="1893.06" cy="-1474" rx="114.87" ry="18"/>
<text text-anchor="middle" x="1893.06" y="-1469.33" font-family="Times,serif" font-size="14.00" fill="white">m2w64 muparser ❎</text>
</a>
</g>
</g>
<!-- libidn11&#45;&gt;m2w64&#45;muparser -->
<!-- pigz -->
<g id="node4" class="node">
<title>pigz</title>
<g id="a_node4"><a xlink:href="https://github.com/conda-forge/pigz-feedstock/pull/23" xlink:title="pigz ❎">
<ellipse fill="#31688e" stroke="black" cx="1893.06" cy="-1402" rx="47.53" ry="18"/>
<text text-anchor="middle" x="1893.06" y="-1397.33" font-family="Times,serif" font-size="14.00" fill="white">pigz ❎</text>
</a>
</g>
</g>
<!-- m2w64&#45;muparser&#45;&gt;pigz -->
<!-- rpy2 -->
<g id="node5" class="node">
<title>rpy2</title>
<g id="a_node5"><a xlink:href="https://github.com/conda-forge/rpy2-feedstock/pull/126" xlink:title="rpy2 ❎">
<ellipse fill="#31688e" stroke="black" cx="1893.06" cy="-1330" rx="49.63" ry="18"/>
<text text-anchor="middle" x="1893.06" y="-1325.33" font-family="Times,serif" font-size="14.00" fill="white">rpy2 ❎</text>
</a>
</g>
</g>
<!-- pigz&#45;&gt;rpy2 -->
<!-- sixs -->
<g id="node6" class="node">
<title>sixs</title>
<g id="a_node6"><a xlink:href="https://github.com/conda-forge/sixs-feedstock/pull/17" xlink:title="sixs ❎">
<ellipse fill="#31688e" stroke="black" cx="1893.06" cy="-1258" rx="45.95" ry="18"/>
<text text-anchor="middle" x="1893.06" y="-1253.33" font-family="Times,serif" font-size="14.00" fill="white">sixs ❎</text>
</a>
</g>
</g>
<!-- rpy2&#45;&gt;sixs -->
<!-- perl&#45;sys&#45;cpu -->
<g id="node7" class="node">
<title>perl&#45;sys&#45;cpu</title>
<g id="a_node7"><a xlink:href="https://github.com/conda-forge/perl-sys-cpu-feedstock/pull/5" xlink:title="perl sys cpu ❎">
<ellipse fill="#31688e" stroke="black" cx="1893.06" cy="-1186" rx="86.98" ry="18"/>
<text text-anchor="middle" x="1893.06" y="-1181.33" font-family="Times,serif" font-size="14.00" fill="white">perl sys cpu ❎</text>
</a>
</g>
</g>
<!-- sixs&#45;&gt;perl&#45;sys&#45;cpu -->
<!-- mongo&#45;tools -->
<g id="node25" class="node">
<title>mongo&#45;tools</title>
<g id="a_node25"><a xlink:href="https://github.com/conda-forge/mongo-tools-feedstock/pull/51" xlink:title="mongo tools ❎">
<ellipse fill="#31688e" stroke="black" cx="1893.06" cy="-1114" rx="87.51" ry="18"/>
<text text-anchor="middle" x="1893.06" y="-1109.33" font-family="Times,serif" font-size="14.00" fill="white">mongo tools ❎</text>
</a>
</g>
</g>
<!-- perl&#45;sys&#45;cpu&#45;&gt;mongo&#45;tools -->
<!-- wrf&#45;python -->
<g id="node8" class="node">
<title>wrf&#45;python</title>
<g id="a_node8"><a xlink:href="https://github.com/conda-forge/wrf-python-feedstock" xlink:title="wrf python">
<ellipse fill="#fde725" stroke="black" cx="1109.08" cy="-1366" rx="65.94" ry="18"/>
<text text-anchor="middle" x="1109.08" y="-1361.33" font-family="Times,serif" font-size="14.00">wrf python</text>
</a>
</g>
</g>
<!-- xgboost -->
<g id="node9" class="node">
<title>xgboost</title>
<g id="a_node9"><a xlink:href="https://github.com/conda-forge/xgboost-feedstock/pull/177" xlink:title="xgboost ❎">
<ellipse fill="#31688e" stroke="black" cx="593.26" cy="-1438" rx="65.94" ry="18"/>
<text text-anchor="middle" x="593.26" y="-1433.33" font-family="Times,serif" font-size="14.00" fill="white">xgboost ❎</text>
</a>
</g>
</g>
<!-- r&#45;mikropml -->
<g id="node10" class="node">
<title>r&#45;mikropml</title>
<g id="a_node10"><a xlink:href="https://github.com/conda-forge/r-mikropml-feedstock" xlink:title="r mikropml">
<ellipse fill="#fde725" stroke="black" cx="204.26" cy="-1366" rx="66.99" ry="18"/>
<text text-anchor="middle" x="204.26" y="-1361.33" font-family="Times,serif" font-size="14.00">r mikropml</text>
</a>
</g>
</g>
<!-- xgboost&#45;&gt;r&#45;mikropml -->
<g id="edge7" class="edge">
<title>xgboost&#45;&gt;r&#45;mikropml</title>
<path fill="none" stroke="black" d="M537.5,-1428.03C475.72,-1417.95 373.19,-1400.79 285.26,-1384 279.02,-1382.81 272.52,-1381.52 266.03,-1380.21"/>
<polygon fill="black" stroke="black" points="267.17,-1376.87 256.67,-1378.29 265.76,-1383.73 267.17,-1376.87"/>
</g>
<!-- r&#45;biomod2 -->
<g id="node11" class="node">
<title>r&#45;biomod2</title>
<g id="a_node11"><a xlink:href="https://github.com/conda-forge/r-biomod2-feedstock" xlink:title="r biomod2">
<ellipse fill="#fde725" stroke="black" cx="62.26" cy="-1294" rx="62.26" ry="18"/>
<text text-anchor="middle" x="62.26" y="-1289.33" font-family="Times,serif" font-size="14.00">r biomod2</text>
</a>
</g>
</g>
<!-- xgboost&#45;&gt;r&#45;biomod2 -->
<g id="edge8" class="edge">
<title>xgboost&#45;&gt;r&#45;biomod2</title>
<path fill="none" stroke="black" d="M527.95,-1434.69C470.01,-1430.32 384.54,-1418.04 318.26,-1384 297.56,-1373.37 300.69,-1359.12 280.26,-1348 278.45,-1347.02 184.18,-1324.27 120.21,-1308.9"/>
<polygon fill="black" stroke="black" points="121.05,-1305.5 110.51,-1306.57 119.42,-1312.31 121.05,-1305.5"/>
</g>
<!-- r&#45;modeltime -->
<g id="node12" class="node">
<title>r&#45;modeltime</title>
<g id="a_node12"><a xlink:href="https://github.com/conda-forge/r-modeltime-feedstock" xlink:title="r modeltime">
<ellipse fill="#fde725" stroke="black" cx="399.26" cy="-1366" rx="72.25" ry="18"/>
<text text-anchor="middle" x="399.26" y="-1361.33" font-family="Times,serif" font-size="14.00">r modeltime</text>
</a>
</g>
</g>
<!-- xgboost&#45;&gt;r&#45;modeltime -->
<g id="edge9" class="edge">
<title>xgboost&#45;&gt;r&#45;modeltime</title>
<path fill="none" stroke="black" d="M554.46,-1423C524.36,-1412.14 482.39,-1397 449.69,-1385.2"/>
<polygon fill="black" stroke="black" points="451,-1381.95 440.4,-1381.85 448.62,-1388.53 451,-1381.95"/>
</g>
<!-- r&#45;tidybins -->
<g id="node13" class="node">
<title>r&#45;tidybins</title>
<g id="a_node13"><a xlink:href="https://github.com/conda-forge/r-tidybins-feedstock" xlink:title="r tidybins">
<ellipse fill="#fde725" stroke="black" cx="502.26" cy="-1294" rx="59.63" ry="18"/>
<text text-anchor="middle" x="502.26" y="-1289.33" font-family="Times,serif" font-size="14.00">r tidybins</text>
</a>
</g>
</g>
<!-- xgboost&#45;&gt;r&#45;tidybins -->
<g id="edge10" class="edge">
<title>xgboost&#45;&gt;r&#45;tidybins</title>
<path fill="none" stroke="black" d="M561.32,-1421.91C545.94,-1413.01 528.61,-1400.28 518.26,-1384 506.85,-1366.07 503.03,-1342.22 501.97,-1323.73"/>
<polygon fill="black" stroke="black" points="505.47,-1323.86 501.66,-1313.97 498.48,-1324.08 505.47,-1323.86"/>
</g>
<!-- r&#45;autostats -->
<g id="node14" class="node">
<title>r&#45;autostats</title>
<g id="a_node14"><a xlink:href="https://github.com/conda-forge/r-autostats-feedstock" xlink:title="r autostats">
<ellipse fill="#fde725" stroke="black" cx="593.26" cy="-1366" rx="65.94" ry="18"/>
<text text-anchor="middle" x="593.26" y="-1361.33" font-family="Times,serif" font-size="14.00">r autostats</text>
</a>
</g>
</g>
<!-- xgboost&#45;&gt;r&#45;autostats -->
<g id="edge11" class="edge">
<title>xgboost&#45;&gt;r&#45;autostats</title>
<path fill="none" stroke="black" d="M593.26,-1419.7C593.26,-1412.41 593.26,-1403.73 593.26,-1395.54"/>
<polygon fill="black" stroke="black" points="596.76,-1395.62 593.26,-1385.62 589.76,-1395.62 596.76,-1395.62"/>
</g>
<!-- r&#45;bundle -->
<g id="node15" class="node">
<title>r&#45;bundle</title>
<g id="a_node15"><a xlink:href="https://github.com/conda-forge/r-bundle-feedstock" xlink:title="r bundle">
<ellipse fill="#fde725" stroke="black" cx="663.26" cy="-1222" rx="53.31" ry="18"/>
<text text-anchor="middle" x="663.26" y="-1217.33" font-family="Times,serif" font-size="14.00">r bundle</text>
</a>
</g>
</g>
<!-- xgboost&#45;&gt;r&#45;bundle -->
<g id="edge12" class="edge">
<title>xgboost&#45;&gt;r&#45;bundle</title>
<path fill="none" stroke="black" d="M627.21,-1422.19C642.71,-1413.49 659.53,-1400.85 668.26,-1384 690.11,-1341.79 680.74,-1284.66 671.98,-1251.03"/>
<polygon fill="black" stroke="black" points="675.42,-1250.33 669.36,-1241.64 668.67,-1252.21 675.42,-1250.33"/>
</g>
<!-- r&#45;twang -->
<g id="node16" class="node">
<title>r&#45;twang</title>
<g id="a_node16"><a xlink:href="https://github.com/conda-forge/r-twang-feedstock" xlink:title="r twang">
<ellipse fill="#fde725" stroke="black" cx="724.26" cy="-1150" rx="50.16" ry="18"/>
<text text-anchor="middle" x="724.26" y="-1145.33" font-family="Times,serif" font-size="14.00">r twang</text>
</a>
</g>
</g>
<!-- xgboost&#45;&gt;r&#45;twang -->
<g id="edge13" class="edge">
<title>xgboost&#45;&gt;r&#45;twang</title>
<path fill="none" stroke="black" d="M632.55,-1423.3C651.64,-1414.76 673.4,-1401.94 687.26,-1384 734.01,-1323.47 732.24,-1227.26 727.86,-1179.64"/>
<polygon fill="black" stroke="black" points="731.36,-1179.45 726.85,-1169.87 724.4,-1180.18 731.36,-1179.45"/>
</g>
<!-- r&#45;shapviz -->
<g id="node17" class="node">
<title>r&#45;shapviz</title>
<g id="a_node17"><a xlink:href="https://github.com/conda-forge/r-shapviz-feedstock" xlink:title="r shapviz">
<ellipse fill="#fde725" stroke="black" cx="802.26" cy="-1078" rx="57" ry="18"/>
<text text-anchor="middle" x="802.26" y="-1073.33" font-family="Times,serif" font-size="14.00">r shapviz</text>
</a>
</g>
</g>
<!-- xgboost&#45;&gt;r&#45;shapviz -->
<g id="edge14" class="edge">
<title>xgboost&#45;&gt;r&#45;shapviz</title>
<path fill="none" stroke="black" d="M643.85,-1426.12C705.7,-1409.5 802.26,-1371.33 802.26,-1295 802.26,-1295 802.26,-1295 802.26,-1221 802.26,-1181.74 802.26,-1136.38 802.26,-1107.69"/>
<polygon fill="black" stroke="black" points="805.76,-1108 802.26,-1098 798.76,-1108 805.76,-1108"/>
</g>
<!-- r&#45;bigsnpr -->
<g id="node18" class="node">
<title>r&#45;bigsnpr</title>
<g id="a_node18"><a xlink:href="https://github.com/conda-forge/r-bigsnpr-feedstock" xlink:title="r bigsnpr">
<ellipse fill="#fde725" stroke="black" cx="888.26" cy="-1366" rx="57.52" ry="18"/>
<text text-anchor="middle" x="888.26" y="-1361.33" font-family="Times,serif" font-size="14.00">r bigsnpr</text>
</a>
</g>
</g>
<!-- xgboost&#45;&gt;r&#45;bigsnpr -->
<g id="edge15" class="edge">
<title>xgboost&#45;&gt;r&#45;bigsnpr</title>
<path fill="none" stroke="black" d="M641.97,-1425.44C694.33,-1413.02 777.43,-1393.3 832.4,-1380.25"/>
<polygon fill="black" stroke="black" points="832.95,-1383.72 841.87,-1378.01 831.33,-1376.91 832.95,-1383.72"/>
</g>
<!-- r&#45;ecospat -->
<g id="node19" class="node">
<title>r&#45;ecospat</title>
<g id="a_node19"><a xlink:href="https://github.com/conda-forge/r-ecospat-feedstock" xlink:title="r ecospat">
<ellipse fill="#fde725" stroke="black" cx="62.26" cy="-1222" rx="57.52" ry="18"/>
<text text-anchor="middle" x="62.26" y="-1217.33" font-family="Times,serif" font-size="14.00">r ecospat</text>
</a>
</g>
</g>
<!-- r&#45;biomod2&#45;&gt;r&#45;ecospat -->
<g id="edge16" class="edge">
<title>r&#45;biomod2&#45;&gt;r&#45;ecospat</title>
<path fill="none" stroke="black" d="M62.26,-1275.7C62.26,-1268.41 62.26,-1259.73 62.26,-1251.54"/>
<polygon fill="black" stroke="black" points="65.76,-1251.62 62.26,-1241.62 58.76,-1251.62 65.76,-1251.62"/>
</g>
<!-- r&#45;modeltime.resample -->
<g id="node20" class="node">
<title>r&#45;modeltime.resample</title>
<g id="a_node20"><a xlink:href="https://github.com/conda-forge/r-modeltime.resample-feedstock" xlink:title="r modeltime resample">
<ellipse fill="#fde725" stroke="black" cx="264.26" cy="-1294" rx="121.71" ry="18"/>
<text text-anchor="middle" x="264.26" y="-1289.33" font-family="Times,serif" font-size="14.00">r modeltime resample</text>
</a>
</g>
</g>
<!-- r&#45;modeltime&#45;&gt;r&#45;modeltime.resample -->
<g id="edge17" class="edge">
<title>r&#45;modeltime&#45;&gt;r&#45;modeltime.resample</title>
<path fill="none" stroke="black" d="M368.96,-1349.29C350.56,-1339.75 326.79,-1327.42 306.55,-1316.93"/>
<polygon fill="black" stroke="black" points="308.17,-1313.83 297.68,-1312.33 304.94,-1320.04 308.17,-1313.83"/>
</g>
<!-- r&#45;modeltime.ensemble -->
<g id="node21" class="node">
<title>r&#45;modeltime.ensemble</title>
<g id="a_node21"><a xlink:href="https://github.com/conda-forge/r-modeltime.ensemble-feedstock" xlink:title="r modeltime ensemble">
<ellipse fill="#fde725" stroke="black" cx="265.26" cy="-1222" rx="123.29" ry="18"/>
<text text-anchor="middle" x="265.26" y="-1217.33" font-family="Times,serif" font-size="14.00">r modeltime ensemble</text>
</a>
</g>
</g>
<!-- r&#45;modeltime&#45;&gt;r&#45;modeltime.ensemble -->
<g id="edge18" class="edge">
<title>r&#45;modeltime&#45;&gt;r&#45;modeltime.ensemble</title>
<path fill="none" stroke="black" d="M403.54,-1347.86C407.31,-1328.55 410.14,-1297.11 395.26,-1276 383.98,-1260.02 367,-1248.85 349,-1241.04"/>
<polygon fill="black" stroke="black" points="350.31,-1237.8 339.73,-1237.38 347.74,-1244.31 350.31,-1237.8"/>
</g>
<!-- r&#45;tidyconsultant -->
<g id="node22" class="node">
<title>r&#45;tidyconsultant</title>
<g id="a_node22"><a xlink:href="https://github.com/conda-forge/r-tidyconsultant-feedstock" xlink:title="r tidyconsultant">
<ellipse fill="#fde725" stroke="black" cx="500.26" cy="-1222" rx="91.19" ry="18"/>
<text text-anchor="middle" x="500.26" y="-1217.33" font-family="Times,serif" font-size="14.00">r tidyconsultant</text>
</a>
</g>
</g>
<!-- r&#45;tidybins&#45;&gt;r&#45;tidyconsultant -->
<g id="edge19" class="edge">
<title>r&#45;tidybins&#45;&gt;r&#45;tidyconsultant</title>
<path fill="none" stroke="black" d="M501.76,-1275.7C501.55,-1268.41 501.31,-1259.73 501.07,-1251.54"/>
<polygon fill="black" stroke="black" points="504.57,-1251.51 500.79,-1241.62 497.58,-1251.71 504.57,-1251.51"/>
</g>
<!-- r&#45;autostats&#45;&gt;r&#45;tidybins -->
<g id="edge20" class="edge">
<title>r&#45;autostats&#45;&gt;r&#45;tidybins</title>
<path fill="none" stroke="black" d="M572.15,-1348.76C560.32,-1339.66 545.37,-1328.16 532.33,-1318.13"/>
<polygon fill="black" stroke="black" points="534.51,-1315.39 524.45,-1312.07 530.24,-1320.94 534.51,-1315.39"/>
</g>
<!-- r&#45;autostats&#45;&gt;r&#45;tidyconsultant -->
<g id="edge21" class="edge">
<title>r&#45;autostats&#45;&gt;r&#45;tidyconsultant</title>
<path fill="none" stroke="black" d="M592.4,-1347.55C590.72,-1328.53 585.78,-1297.88 571.26,-1276 563.41,-1264.19 552.01,-1254.01 540.63,-1245.82"/>
<polygon fill="black" stroke="black" points="542.66,-1242.96 532.41,-1240.26 538.74,-1248.76 542.66,-1242.96"/>
</g>
<!-- r&#45;vetiver -->
<g id="node23" class="node">
<title>r&#45;vetiver</title>
<g id="a_node23"><a xlink:href="https://github.com/conda-forge/r-vetiver-feedstock" xlink:title="r vetiver">
<ellipse fill="#fde725" stroke="black" cx="601.26" cy="-1150" rx="54.36" ry="18"/>
<text text-anchor="middle" x="601.26" y="-1145.33" font-family="Times,serif" font-size="14.00">r vetiver</text>
</a>
</g>
</g>
<!-- r&#45;bundle&#45;&gt;r&#45;vetiver -->
<g id="edge22" class="edge">
<title>r&#45;bundle&#45;&gt;r&#45;vetiver</title>
<path fill="none" stroke="black" d="M648.56,-1204.41C641.07,-1195.95 631.81,-1185.49 623.47,-1176.08"/>
<polygon fill="black" stroke="black" points="626.1,-1173.77 616.85,-1168.6 620.86,-1178.41 626.1,-1173.77"/>
</g>
<!-- r&#45;cmprskcoxmsm -->
<g id="node24" class="node">
<title>r&#45;cmprskcoxmsm</title>
<g id="a_node24"><a xlink:href="https://github.com/conda-forge/r-cmprskcoxmsm-feedstock" xlink:title="r cmprskcoxmsm">
<ellipse fill="#fde725" stroke="black" cx="630.26" cy="-1078" rx="96.98" ry="18"/>
<text text-anchor="middle" x="630.26" y="-1073.33" font-family="Times,serif" font-size="14.00">r cmprskcoxmsm</text>
</a>
</g>
</g>
<!-- r&#45;twang&#45;&gt;r&#45;cmprskcoxmsm -->
<g id="edge23" class="edge">
<title>r&#45;twang&#45;&gt;r&#45;cmprskcoxmsm</title>
<path fill="none" stroke="black" d="M703.39,-1133.46C691.27,-1124.43 675.73,-1112.86 662.1,-1102.71"/>
<polygon fill="black" stroke="black" points="664.36,-1100.03 654.25,-1096.87 660.18,-1105.65 664.36,-1100.03"/>
</g>
<!-- r&#45;modeltime.resample&#45;&gt;r&#45;modeltime.ensemble -->
<g id="edge49" class="edge">
<title>r&#45;modeltime.resample&#45;&gt;r&#45;modeltime.ensemble</title>
<path fill="none" stroke="black" d="M264.5,-1275.7C264.61,-1268.41 264.73,-1259.73 264.85,-1251.54"/>
<polygon fill="black" stroke="black" points="268.35,-1251.67 264.99,-1241.62 261.35,-1251.57 268.35,-1251.67"/>
</g>
<!-- go1.4&#45;bootstrap -->
<g id="node26" class="node">
<title>go1.4&#45;bootstrap</title>
<g id="a_node26"><a xlink:href="https://github.com/conda-forge/go1.4-bootstrap-feedstock" xlink:title="go1 4 bootstrap">
<ellipse fill="#000000" stroke="black" cx="1893.06" cy="-1042" rx="90.67" ry="18"/>
<text text-anchor="middle" x="1893.06" y="-1037.33" font-family="Times,serif" font-size="14.00" fill="white">go1 4 bootstrap</text>
</a>
</g>
</g>
<!-- mongo&#45;tools&#45;&gt;go1.4&#45;bootstrap -->
<!-- pyreadr -->
<g id="node27" class="node">
<title>pyreadr</title>
<g id="a_node27"><a xlink:href="https://github.com/conda-forge/pyreadr-feedstock/pull/53" xlink:title="pyreadr ❎">
<ellipse fill="#31688e" stroke="black" cx="1893.06" cy="-970" rx="65.94" ry="18"/>
<text text-anchor="middle" x="1893.06" y="-965.33" font-family="Times,serif" font-size="14.00" fill="white">pyreadr ❎</text>
</a>
</g>
</g>
<!-- go1.4&#45;bootstrap&#45;&gt;pyreadr -->
<!-- fossil -->
<g id="node28" class="node">
<title>fossil</title>
<g id="a_node28"><a xlink:href="https://github.com/conda-forge/fossil-feedstock/pull/23" xlink:title="fossil ❎">
<ellipse fill="#31688e" stroke="black" cx="1893.06" cy="-898" rx="52.79" ry="18"/>
<text text-anchor="middle" x="1893.06" y="-893.33" font-family="Times,serif" font-size="14.00" fill="white">fossil ❎</text>
</a>
</g>
</g>
<!-- pyreadr&#45;&gt;fossil -->
<!-- yggdrasil -->
<g id="node29" class="node">
<title>yggdrasil</title>
<g id="a_node29"><a xlink:href="https://github.com/conda-forge/yggdrasil-feedstock/pull/47" xlink:title="yggdrasil ❎">
<ellipse fill="#31688e" stroke="black" cx="1027.08" cy="-1294" rx="73.3" ry="18"/>
<text text-anchor="middle" x="1027.08" y="-1289.33" font-family="Times,serif" font-size="14.00" fill="white">yggdrasil ❎</text>
</a>
</g>
</g>
<!-- libredwg -->
<g id="node30" class="node">
<title>libredwg</title>
<g id="a_node30"><a xlink:href="https://github.com/conda-forge/libredwg-feedstock/pull/91" xlink:title="libredwg ❎">
<ellipse fill="#31688e" stroke="black" cx="1361.98" cy="-854" rx="70.68" ry="18"/>
<text text-anchor="middle" x="1361.98" y="-849.33" font-family="Times,serif" font-size="14.00" fill="white">libredwg ❎</text>
</a>
</g>
</g>
<!-- libxfoil -->
<g id="node31" class="node">
<title>libxfoil</title>
<g id="a_node31"><a xlink:href="https://github.com/conda-forge/libxfoil-feedstock/pull/14" xlink:title="libxfoil ❎">
<ellipse fill="#31688e" stroke="black" cx="1361.98" cy="-782" rx="60.68" ry="18"/>
<text text-anchor="middle" x="1361.98" y="-777.33" font-family="Times,serif" font-size="14.00" fill="white">libxfoil ❎</text>
</a>
</g>
</g>
<!-- libredwg&#45;&gt;libxfoil -->
<!-- pycrlibm -->
<g id="node32" class="node">
<title>pycrlibm</title>
<g id="a_node32"><a xlink:href="https://github.com/conda-forge/pycrlibm-feedstock/pull/11" xlink:title="pycrlibm ❎">
<ellipse fill="#31688e" stroke="black" cx="1361.98" cy="-710" rx="70.68" ry="18"/>
<text text-anchor="middle" x="1361.98" y="-705.33" font-family="Times,serif" font-size="14.00" fill="white">pycrlibm ❎</text>
</a>
</g>
</g>
<!-- libxfoil&#45;&gt;pycrlibm -->
<!-- libbezier -->
<g id="node33" class="node">
<title>libbezier</title>
<g id="a_node33"><a xlink:href="https://github.com/conda-forge/libbezier-feedstock/pull/10" xlink:title="libbezier ❎">
<ellipse fill="#31688e" stroke="black" cx="1361.98" cy="-638" rx="70.15" ry="18"/>
<text text-anchor="middle" x="1361.98" y="-633.33" font-family="Times,serif" font-size="14.00" fill="white">libbezier ❎</text>
</a>
</g>
</g>
<!-- pycrlibm&#45;&gt;libbezier -->
<!-- r&#45;destinie -->
<g id="node34" class="node">
<title>r&#45;destinie</title>
<g id="a_node34"><a xlink:href="https://github.com/conda-forge/r-destinie-feedstock/pull/8" xlink:title="r destinie ❎">
<ellipse fill="#31688e" stroke="black" cx="1361.98" cy="-566" rx="74.36" ry="18"/>
<text text-anchor="middle" x="1361.98" y="-561.33" font-family="Times,serif" font-size="14.00" fill="white">r destinie ❎</text>
</a>
</g>
</g>
<!-- libbezier&#45;&gt;r&#45;destinie -->
<!-- leparagliding -->
<g id="node35" class="node">
<title>leparagliding</title>
<g id="a_node35"><a xlink:href="https://github.com/conda-forge/leparagliding-feedstock/pull/11" xlink:title="leparagliding ❎">
<ellipse fill="#31688e" stroke="black" cx="1361.98" cy="-494" rx="92.77" ry="18"/>
<text text-anchor="middle" x="1361.98" y="-489.32" font-family="Times,serif" font-size="14.00" fill="white">leparagliding ❎</text>
</a>
</g>
</g>
<!-- r&#45;destinie&#45;&gt;leparagliding -->
<!-- ndd -->
<g id="node40" class="node">
<title>ndd</title>
<g id="a_node40"><a xlink:href="https://github.com/conda-forge/ndd-feedstock/pull/13" xlink:title="ndd ❎">
<ellipse fill="#31688e" stroke="black" cx="1361.98" cy="-422" rx="45.42" ry="18"/>
<text text-anchor="middle" x="1361.98" y="-417.32" font-family="Times,serif" font-size="14.00" fill="white">ndd ❎</text>
</a>
</g>
</g>
<!-- leparagliding&#45;&gt;ndd -->
<!-- framel -->
<g id="node36" class="node">
<title>framel</title>
<g id="a_node36"><a xlink:href="https://github.com/conda-forge/framel-feedstock/pull/41" xlink:title="framel ❎">
<ellipse fill="#31688e" stroke="black" cx="1361.98" cy="-90" rx="59.1" ry="18"/>
<text text-anchor="middle" x="1361.98" y="-85.33" font-family="Times,serif" font-size="14.00" fill="white">framel ❎</text>
</a>
</g>
</g>
<!-- frv -->
<g id="node37" class="node">
<title>frv</title>
<g id="a_node37"><a xlink:href="https://github.com/conda-forge/frv-feedstock" xlink:title="frv">
<ellipse fill="#fde725" stroke="black" cx="1361.98" cy="-18" rx="27" ry="18"/>
<text text-anchor="middle" x="1361.98" y="-13.32" font-family="Times,serif" font-size="14.00">frv</text>
</a>
</g>
</g>
<!-- framel&#45;&gt;frv -->
<g id="edge33" class="edge">
<title>framel&#45;&gt;frv</title>
<path fill="none" stroke="black" d="M1361.98,-71.7C1361.98,-64.41 1361.98,-55.73 1361.98,-47.54"/>
<polygon fill="black" stroke="black" points="1365.48,-47.62 1361.98,-37.62 1358.48,-47.62 1365.48,-47.62"/>
</g>
<!-- m2w64&#45;jq -->
<g id="node38" class="node">
<title>m2w64&#45;jq</title>
<g id="a_node38"><a xlink:href="https://github.com/conda-forge/m2w64-jq-feedstock" xlink:title="m2w64 jq">
<ellipse fill="#fde725" stroke="black" cx="472.89" cy="-18" rx="60.68" ry="18"/>
<text text-anchor="middle" x="472.89" y="-13.32" font-family="Times,serif" font-size="14.00">m2w64 jq</text>
</a>
</g>
</g>
<!-- m2w64&#45;oniguruma -->
<g id="node39" class="node">
<title>m2w64&#45;oniguruma</title>
<g id="a_node39"><a xlink:href="https://github.com/conda-forge/m2w64-oniguruma-feedstock/pull/1" xlink:title="m2w64 oniguruma ❎">
<ellipse fill="#31688e" stroke="black" cx="472.89" cy="-90" rx="120.65" ry="18"/>
<text text-anchor="middle" x="472.89" y="-85.33" font-family="Times,serif" font-size="14.00" fill="white">m2w64 oniguruma ❎</text>
</a>
</g>
</g>
<!-- m2w64&#45;oniguruma&#45;&gt;m2w64&#45;jq -->
<g id="edge34" class="edge">
<title>m2w64&#45;oniguruma&#45;&gt;m2w64&#45;jq</title>
<path fill="none" stroke="black" d="M472.89,-71.7C472.89,-64.41 472.89,-55.73 472.89,-47.54"/>
<polygon fill="black" stroke="black" points="476.39,-47.62 472.89,-37.62 469.39,-47.62 476.39,-47.62"/>
</g>
<!-- zoxide -->
<g id="node49" class="node">
<title>zoxide</title>
<g id="a_node49"><a xlink:href="https://github.com/conda-forge/zoxide-feedstock/pull/26" xlink:title="zoxide ❎">
<ellipse fill="#31688e" stroke="black" cx="1361.98" cy="-350" rx="58.57" ry="18"/>
<text text-anchor="middle" x="1361.98" y="-345.32" font-family="Times,serif" font-size="14.00" fill="white">zoxide ❎</text>
</a>
</g>
</g>
<!-- ndd&#45;&gt;zoxide -->
<!-- msmpi -->
<g id="node41" class="node">
<title>msmpi</title>
<g id="a_node41"><a xlink:href="https://github.com/conda-forge/msmpi-feedstock/pull/21" xlink:title="msmpi ❎">
<ellipse fill="#31688e" stroke="black" cx="1617.08" cy="-1438" rx="60.15" ry="18"/>
<text text-anchor="middle" x="1617.08" y="-1433.33" font-family="Times,serif" font-size="14.00" fill="white">msmpi ❎</text>
</a>
</g>
</g>
<!-- msmpi&#45;&gt;wrf&#45;python -->
<g id="edge36" class="edge">
<title>msmpi&#45;&gt;wrf&#45;python</title>
<path fill="none" stroke="black" d="M1560.43,-1431.56C1478.28,-1423.31 1321.44,-1406.22 1189.08,-1384 1182.71,-1382.93 1176.08,-1381.71 1169.48,-1380.41"/>
<polygon fill="black" stroke="black" points="1170.44,-1377.03 1159.94,-1378.49 1169.05,-1383.9 1170.44,-1377.03"/>
</g>
<!-- msmpi&#45;&gt;yggdrasil -->
<g id="edge37" class="edge">
<title>msmpi&#45;&gt;yggdrasil</title>
<path fill="none" stroke="black" d="M1571.28,-1425.98C1466.36,-1400.72 1208.54,-1338.67 1089.36,-1309.99"/>
<polygon fill="black" stroke="black" points="1090.28,-1306.61 1079.74,-1307.67 1088.64,-1313.42 1090.28,-1306.61"/>
</g>
<!-- r&#45;downscaler -->
<g id="node42" class="node">
<title>r&#45;downscaler</title>
<g id="a_node42"><a xlink:href="https://github.com/conda-forge/r-downscaler-feedstock" xlink:title="r downscaler">
<ellipse fill="#fde725" stroke="black" cx="1483.08" cy="-1366" rx="75.94" ry="18"/>
<text text-anchor="middle" x="1483.08" y="-1361.33" font-family="Times,serif" font-size="14.00">r downscaler</text>
</a>
</g>
</g>
<!-- msmpi&#45;&gt;r&#45;downscaler -->
<g id="edge38" class="edge">
<title>msmpi&#45;&gt;r&#45;downscaler</title>
<path fill="none" stroke="black" d="M1588.01,-1421.81C1569.17,-1411.97 1544.38,-1399.02 1523.62,-1388.18"/>
<polygon fill="black" stroke="black" points="1525.32,-1385.12 1514.84,-1383.59 1522.08,-1391.32 1525.32,-1385.12"/>
</g>
<!-- climlab&#45;cam3&#45;radiation -->
<g id="node43" class="node">
<title>climlab&#45;cam3&#45;radiation</title>
<g id="a_node43"><a xlink:href="https://github.com/conda-forge/climlab-cam3-radiation-feedstock" xlink:title="climlab cam3 radiation">
<ellipse fill="#fde725" stroke="black" cx="1501.08" cy="-1222" rx="125.92" ry="18"/>
<text text-anchor="middle" x="1501.08" y="-1217.33" font-family="Times,serif" font-size="14.00">climlab cam3 radiation</text>
</a>
</g>
</g>
<!-- msmpi&#45;&gt;climlab&#45;cam3&#45;radiation -->
<g id="edge39" class="edge">
<title>msmpi&#45;&gt;climlab&#45;cam3&#45;radiation</title>
<path fill="none" stroke="black" d="M1619.85,-1419.75C1623.94,-1388.24 1628.17,-1320.55 1598.08,-1276 1588.87,-1262.37 1574.96,-1251.92 1560.52,-1244.06"/>
<polygon fill="black" stroke="black" points="1562.35,-1241.06 1551.84,-1239.7 1559.2,-1247.32 1562.35,-1241.06"/>
</g>
<!-- pyfabm -->
<g id="node44" class="node">
<title>pyfabm</title>
<g id="a_node44"><a xlink:href="https://github.com/conda-forge/pyfabm-feedstock" xlink:title="pyfabm">
<ellipse fill="#fde725" stroke="black" cx="1616.08" cy="-1150" rx="48.58" ry="18"/>
<text text-anchor="middle" x="1616.08" y="-1145.33" font-family="Times,serif" font-size="14.00">pyfabm</text>
</a>
</g>
</g>
<!-- msmpi&#45;&gt;pyfabm -->
<g id="edge40" class="edge">
<title>msmpi&#45;&gt;pyfabm</title>
<path fill="none" stroke="black" d="M1624.98,-1419.75C1629.19,-1409.58 1633.94,-1396.33 1636.08,-1384 1649.78,-1305.18 1650.44,-1282.7 1636.08,-1204 1634.55,-1195.58 1631.75,-1186.77 1628.72,-1178.79"/>
<polygon fill="black" stroke="black" points="1631.99,-1177.54 1624.96,-1169.61 1625.51,-1180.19 1631.99,-1177.54"/>
</g>
<!-- eatpy -->
<g id="node45" class="node">
<title>eatpy</title>
<g id="a_node45"><a xlink:href="https://github.com/conda-forge/eatpy-feedstock" xlink:title="eatpy">
<ellipse fill="#fde725" stroke="black" cx="1731.08" cy="-1078" rx="39.11" ry="18"/>
<text text-anchor="middle" x="1731.08" y="-1073.33" font-family="Times,serif" font-size="14.00">eatpy</text>
</a>
</g>
</g>
<!-- msmpi&#45;&gt;eatpy -->
<g id="edge41" class="edge">
<title>msmpi&#45;&gt;eatpy</title>
<path fill="none" stroke="black" d="M1642.1,-1421.35C1675.66,-1398.21 1731.08,-1351.43 1731.08,-1295 1731.08,-1295 1731.08,-1295 1731.08,-1221 1731.08,-1181.74 1731.08,-1136.38 1731.08,-1107.69"/>
<polygon fill="black" stroke="black" points="1734.58,-1108 1731.08,-1098 1727.58,-1108 1734.58,-1108"/>
</g>
<!-- pygetm -->
<g id="node46" class="node">
<title>pygetm</title>
<g id="a_node46"><a xlink:href="https://github.com/conda-forge/pygetm-feedstock" xlink:title="pygetm">
<ellipse fill="#fde725" stroke="black" cx="1621.08" cy="-1078" rx="49.1" ry="18"/>
<text text-anchor="middle" x="1621.08" y="-1073.33" font-family="Times,serif" font-size="14.00">pygetm</text>
</a>
</g>
</g>
<!-- msmpi&#45;&gt;pygetm -->
<g id="edge42" class="edge">
<title>msmpi&#45;&gt;pygetm</title>
<path fill="none" stroke="black" d="M1633.2,-1420.19C1655.51,-1395.09 1693.08,-1345.33 1693.08,-1295 1693.08,-1295 1693.08,-1295 1693.08,-1221 1693.08,-1180.55 1693.4,-1167.54 1674.08,-1132 1668.1,-1121 1659.13,-1110.78 1650.25,-1102.3"/>
<polygon fill="black" stroke="black" points="1652.77,-1099.86 1643,-1095.76 1648.09,-1105.06 1652.77,-1099.86"/>
</g>
<!-- r&#45;downscaler.keras -->
<g id="node47" class="node">
<title>r&#45;downscaler.keras</title>
<g id="a_node47"><a xlink:href="https://github.com/conda-forge/r-downscaler.keras-feedstock" xlink:title="r downscaler keras">
<ellipse fill="#fde725" stroke="black" cx="1483.08" cy="-1294" rx="106.45" ry="18"/>
<text text-anchor="middle" x="1483.08" y="-1289.33" font-family="Times,serif" font-size="14.00">r downscaler keras</text>
</a>
</g>
</g>
<!-- r&#45;downscaler&#45;&gt;r&#45;downscaler.keras -->
<g id="edge43" class="edge">
<title>r&#45;downscaler&#45;&gt;r&#45;downscaler.keras</title>
<path fill="none" stroke="black" d="M1483.08,-1347.7C1483.08,-1340.41 1483.08,-1331.73 1483.08,-1323.54"/>
<polygon fill="black" stroke="black" points="1486.58,-1323.62 1483.08,-1313.62 1479.58,-1323.62 1486.58,-1323.62"/>
</g>
<!-- r&#45;climate4r -->
<g id="node48" class="node">
<title>r&#45;climate4r</title>
<g id="a_node48"><a xlink:href="https://github.com/conda-forge/r-climate4r-feedstock" xlink:title="r climate4r">
<ellipse fill="#fde725" stroke="black" cx="1257.08" cy="-1222" rx="66.99" ry="18"/>
<text text-anchor="middle" x="1257.08" y="-1217.33" font-family="Times,serif" font-size="14.00">r climate4r</text>
</a>
</g>
</g>
<!-- r&#45;downscaler&#45;&gt;r&#45;climate4r -->
<g id="edge44" class="edge">
<title>r&#45;downscaler&#45;&gt;r&#45;climate4r</title>
<path fill="none" stroke="black" d="M1407.4,-1364.05C1318.78,-1361.14 1179.89,-1350.38 1147.08,-1312 1136.69,-1299.84 1138.57,-1289.55 1147.08,-1276 1158.26,-1258.2 1177.28,-1246.24 1196.39,-1238.27"/>
<polygon fill="black" stroke="black" points="1197.45,-1241.61 1205.55,-1234.77 1194.96,-1235.07 1197.45,-1241.61"/>
</g>
<!-- pyfabm&#45;&gt;pygetm -->
<g id="edge45" class="edge">
<title>pyfabm&#45;&gt;pygetm</title>
<path fill="none" stroke="black" d="M1617.32,-1131.7C1617.84,-1124.41 1618.46,-1115.73 1619.04,-1107.54"/>
<polygon fill="black" stroke="black" points="1622.53,-1107.84 1619.75,-1097.61 1615.55,-1107.34 1622.53,-1107.84"/>
</g>
<!-- r&#45;downscaler.keras&#45;&gt;r&#45;climate4r -->
<g id="edge53" class="edge">
<title>r&#45;downscaler.keras&#45;&gt;r&#45;climate4r</title>
<path fill="none" stroke="black" d="M1433.49,-1277.64C1397.06,-1266.36 1347.64,-1251.05 1310.38,-1239.51"/>
<polygon fill="black" stroke="black" points="1311.75,-1236.27 1301.17,-1236.65 1309.68,-1242.96 1311.75,-1236.27"/>
</g>
<!-- flash -->
<g id="node50" class="node">
<title>flash</title>
<g id="a_node50"><a xlink:href="https://github.com/conda-forge/flash-feedstock/pull/3" xlink:title="flash ❎">
<ellipse fill="#31688e" stroke="black" cx="1361.98" cy="-278" rx="50.16" ry="18"/>
<text text-anchor="middle" x="1361.98" y="-273.32" font-family="Times,serif" font-size="14.00" fill="white">flash ❎</text>
</a>
</g>
</g>
<!-- zoxide&#45;&gt;flash -->
<!-- jasp -->
<g id="node51" class="node">
<title>jasp</title>
<g id="a_node51"><a xlink:href="https://github.com/conda-forge/jasp-feedstock/pull/29" xlink:title="jasp ❎">
<ellipse fill="#31688e" stroke="black" cx="1361.98" cy="-206" rx="47" ry="18"/>
<text text-anchor="middle" x="1361.98" y="-201.33" font-family="Times,serif" font-size="14.00" fill="white">jasp ❎</text>
</a>
</g>
</g>
<!-- flash&#45;&gt;jasp -->
<!-- crabz -->
<g id="node52" class="node">
<title>crabz</title>
<g id="a_node52"><a xlink:href="https://github.com/conda-forge/crabz-feedstock/pull/13" xlink:title="crabz ❎">
<ellipse fill="#31688e" stroke="black" cx="1361.98" cy="-134" rx="53.84" ry="18"/>
<text text-anchor="middle" x="1361.98" y="-129.32" font-family="Times,serif" font-size="14.00" fill="white">crabz ❎</text>
</a>
</g>
</g>
<!-- jasp&#45;&gt;crabz -->
<!-- hck -->
<g id="node53" class="node">
<title>hck</title>
<g id="a_node53"><a xlink:href="https://github.com/conda-forge/hck-feedstock/pull/16" xlink:title="hck ❎">
<ellipse fill="#31688e" stroke="black" cx="472.89" cy="-854" rx="43.84" ry="18"/>
<text text-anchor="middle" x="472.89" y="-849.33" font-family="Times,serif" font-size="14.00" fill="white">hck ❎</text>
</a>
</g>
</g>
<!-- reasonable -->
<g id="node54" class="node">
<title>reasonable</title>
<g id="a_node54"><a xlink:href="https://github.com/conda-forge/reasonable-feedstock/pull/20" xlink:title="reasonable ❎">
<ellipse fill="#31688e" stroke="black" cx="472.89" cy="-782" rx="81.2" ry="18"/>
<text text-anchor="middle" x="472.89" y="-777.33" font-family="Times,serif" font-size="14.00" fill="white">reasonable ❎</text>
</a>
</g>
</g>
<!-- hck&#45;&gt;reasonable -->
<!-- libdlfind -->
<g id="node55" class="node">
<title>libdlfind</title>
<g id="a_node55"><a xlink:href="https://github.com/conda-forge/libdlfind-feedstock/pull/7" xlink:title="libdlfind ✓">
<ellipse fill="#31688e" stroke="black" cx="472.89" cy="-710" rx="60.15" ry="18"/>
<text text-anchor="middle" x="472.89" y="-705.33" font-family="Times,serif" font-size="14.00" fill="white">libdlfind ✓</text>
</a>
</g>
</g>
<!-- reasonable&#45;&gt;libdlfind -->
<!-- wdmtoolbox -->
<g id="node57" class="node">
<title>wdmtoolbox</title>
<g id="a_node57"><a xlink:href="https://github.com/conda-forge/wdmtoolbox-feedstock/pull/22" xlink:title="wdmtoolbox ❎">
<ellipse fill="#31688e" stroke="black" cx="472.89" cy="-638" rx="87.51" ry="18"/>
<text text-anchor="middle" x="472.89" y="-633.33" font-family="Times,serif" font-size="14.00" fill="white">wdmtoolbox ❎</text>
</a>
</g>
</g>
<!-- libdlfind&#45;&gt;wdmtoolbox -->
<!-- r&#45;geoprocessor -->
<g id="node56" class="node">
<title>r&#45;geoprocessor</title>
<g id="a_node56"><a xlink:href="https://github.com/conda-forge/r-geoprocessor-feedstock/pull/7" xlink:title="r geoprocessor ❎">
<ellipse fill="#31688e" stroke="black" cx="1257.08" cy="-1294" rx="101.19" ry="18"/>
<text text-anchor="middle" x="1257.08" y="-1289.33" font-family="Times,serif" font-size="14.00" fill="white">r geoprocessor ❎</text>
</a>
</g>
</g>
<!-- r&#45;geoprocessor&#45;&gt;r&#45;climate4r -->
<g id="edge54" class="edge">
<title>r&#45;geoprocessor&#45;&gt;r&#45;climate4r</title>
<path fill="none" stroke="black" d="M1257.08,-1275.7C1257.08,-1268.41 1257.08,-1259.73 1257.08,-1251.54"/>
<polygon fill="black" stroke="black" points="1260.58,-1251.62 1257.08,-1241.62 1253.58,-1251.62 1260.58,-1251.62"/>
</g>
<!-- gilknocker -->
<g id="node58" class="node">
<title>gilknocker</title>
<g id="a_node58"><a xlink:href="https://github.com/conda-forge/gilknocker-feedstock/pull/10" xlink:title="gilknocker ❎">
<ellipse fill="#31688e" stroke="black" cx="472.89" cy="-566" rx="78.57" ry="18"/>
<text text-anchor="middle" x="472.89" y="-561.33" font-family="Times,serif" font-size="14.00" fill="white">gilknocker ❎</text>
</a>
</g>
</g>
<!-- wdmtoolbox&#45;&gt;gilknocker -->
<!-- pcmsolver&#45;split -->
<g id="node59" class="node">
<title>pcmsolver&#45;split</title>
<g id="a_node59"><a xlink:href="https://github.com/conda-forge/pcmsolver-split-feedstock/pull/26" xlink:title="pcmsolver split ❎">
<ellipse fill="#31688e" stroke="black" cx="472.89" cy="-494" rx="103.29" ry="18"/>
<text text-anchor="middle" x="472.89" y="-489.32" font-family="Times,serif" font-size="14.00" fill="white">pcmsolver split ❎</text>
</a>
</g>
</g>
<!-- gilknocker&#45;&gt;pcmsolver&#45;split -->
<!-- gdma -->
<g id="node60" class="node">
<title>gdma</title>
<g id="a_node60"><a xlink:href="https://github.com/conda-forge/gdma-feedstock/pull/9" xlink:title="gdma ❎">
<ellipse fill="#31688e" stroke="black" cx="472.89" cy="-422" rx="54.36" ry="18"/>
<text text-anchor="middle" x="472.89" y="-417.32" font-family="Times,serif" font-size="14.00" fill="white">gdma ❎</text>
</a>
</g>
</g>
<!-- pcmsolver&#45;split&#45;&gt;gdma -->
<!-- prima -->
<g id="node61" class="node">
<title>prima</title>
<g id="a_node61"><a xlink:href="https://github.com/conda-forge/prima-feedstock/pull/6" xlink:title="prima ❎">
<ellipse fill="#31688e" stroke="black" cx="472.89" cy="-350" rx="55.94" ry="18"/>
<text text-anchor="middle" x="472.89" y="-345.32" font-family="Times,serif" font-size="14.00" fill="white">prima ❎</text>
</a>
</g>
</g>
<!-- gdma&#45;&gt;prima -->
<!-- b3sum -->
<g id="node62" class="node">
<title>b3sum</title>
<g id="a_node62"><a xlink:href="https://github.com/conda-forge/b3sum-feedstock/pull/7" xlink:title="b3sum ❎">
<ellipse fill="#31688e" stroke="black" cx="472.89" cy="-278" rx="60.15" ry="18"/>
<text text-anchor="middle" x="472.89" y="-273.32" font-family="Times,serif" font-size="14.00" fill="white">b3sum ❎</text>
</a>
</g>
</g>
<!-- prima&#45;&gt;b3sum -->
<!-- xeus&#45;r -->
<g id="node63" class="node">
<title>xeus&#45;r</title>
<g id="a_node63"><a xlink:href="https://github.com/conda-forge/xeus-r-feedstock/pull/9" xlink:title="xeus r ❎">
<ellipse fill="#31688e" stroke="black" cx="472.89" cy="-206" rx="57.52" ry="18"/>
<text text-anchor="middle" x="472.89" y="-201.33" font-family="Times,serif" font-size="14.00" fill="white">xeus r ❎</text>
</a>
</g>
</g>
<!-- b3sum&#45;&gt;xeus&#45;r -->
<!-- libcramjam -->
<g id="node64" class="node">
<title>libcramjam</title>
<g id="a_node64"><a xlink:href="https://github.com/conda-forge/libcramjam-feedstock/pull/11" xlink:title="libcramjam ✓">
<ellipse fill="#31688e" stroke="black" cx="472.89" cy="-134" rx="75.41" ry="18"/>
<text text-anchor="middle" x="472.89" y="-129.32" font-family="Times,serif" font-size="14.00" fill="white">libcramjam ✓</text>
</a>
</g>
</g>
<!-- xeus&#45;r&#45;&gt;libcramjam -->
<!-- sqlx&#45;cli -->
<g id="node65" class="node">
<title>sqlx&#45;cli</title>
<g id="a_node65"><a xlink:href="https://github.com/conda-forge/sqlx-cli-feedstock/pull/7" xlink:title="sqlx cli ❎">
<ellipse fill="#31688e" stroke="black" cx="1893.06" cy="-674" rx="61.73" ry="18"/>
<text text-anchor="middle" x="1893.06" y="-669.33" font-family="Times,serif" font-size="14.00" fill="white">sqlx cli ❎</text>
</a>
</g>
</g>
<!-- dimad -->
<g id="node66" class="node">
<title>dimad</title>
<g id="a_node66"><a xlink:href="https://github.com/conda-forge/dimad-feedstock/pull/4" xlink:title="dimad ❎">
<ellipse fill="#31688e" stroke="black" cx="1893.06" cy="-602" rx="57.52" ry="18"/>
<text text-anchor="middle" x="1893.06" y="-597.33" font-family="Times,serif" font-size="14.00" fill="white">dimad ❎</text>
</a>
</g>
</g>
<!-- sqlx&#45;cli&#45;&gt;dimad -->
<!-- r&#45;volumodel -->
<g id="node67" class="node">
<title>r&#45;volumodel</title>
<g id="a_node67"><a xlink:href="https://github.com/conda-forge/r-volumodel-feedstock/pull/2" xlink:title="r volumodel ❎">
<ellipse fill="#31688e" stroke="black" cx="1893.06" cy="-530" rx="85.93" ry="18"/>
<text text-anchor="middle" x="1893.06" y="-525.33" font-family="Times,serif" font-size="14.00" fill="white">r volumodel ❎</text>
</a>
</g>
</g>
<!-- dimad&#45;&gt;r&#45;volumodel -->
<!-- mystran -->
<g id="node68" class="node">
<title>mystran</title>
<g id="a_node68"><a xlink:href="https://github.com/conda-forge/mystran-feedstock/pull/3" xlink:title="mystran ❎">
<ellipse fill="#31688e" stroke="black" cx="1893.06" cy="-458" rx="68.04" ry="18"/>
<text text-anchor="middle" x="1893.06" y="-453.32" font-family="Times,serif" font-size="14.00" fill="white">mystran ❎</text>
</a>
</g>
</g>
<!-- r&#45;volumodel&#45;&gt;mystran -->
<!-- sixs_json -->
<g id="node69" class="node">
<title>sixs_json</title>
<g id="a_node69"><a xlink:href="https://github.com/conda-forge/sixs_json-feedstock/pull/3" xlink:title="sixs_json ❎">
<ellipse fill="#31688e" stroke="black" cx="1893.06" cy="-386" rx="71.2" ry="18"/>
<text text-anchor="middle" x="1893.06" y="-381.32" font-family="Times,serif" font-size="14.00" fill="white">sixs_json ❎</text>
</a>
</g>
</g>
<!-- mystran&#45;&gt;sixs_json -->
<!-- r&#45;sparklyr.nested -->
<g id="node70" class="node">
<title>r&#45;sparklyr.nested</title>
<g id="a_node70"><a xlink:href="https://github.com/conda-forge/r-sparklyr.nested-feedstock/pull/1" xlink:title="r sparklyr nested ✓">
<ellipse fill="#31688e" stroke="black" cx="1893.06" cy="-314" rx="105.4" ry="18"/>
<text text-anchor="middle" x="1893.06" y="-309.32" font-family="Times,serif" font-size="14.00" fill="white">r sparklyr nested ✓</text>
</a>
</g>
</g>
<!-- sixs_json&#45;&gt;r&#45;sparklyr.nested -->
</g>
</svg>
