<?xml version="1.0" encoding="UTF-8" standalone="no"?>
<!DOCTYPE svg PUBLIC "-//W3C//DTD SVG 1.1//EN"
 "http://www.w3.org/Graphics/SVG/1.1/DTD/svg11.dtd">
<!-- Generated by graphviz version 13.1.2 (20250809.0930)
 -->
<!-- Pages: 1 -->
<svg width="1730pt" height="1472pt"
 viewBox="0.00 0.00 1730.00 1472.00" xmlns="http://www.w3.org/2000/svg" xmlns:xlink="http://www.w3.org/1999/xlink">
<g id="graph0" class="graph" transform="scale(1 1) rotate(0) translate(4 1468)">
<polygon fill="white" stroke="none" points="-4,4 -4,-1468 1726.18,-1468 1726.18,4 -4,4"/>
<!-- r&#45;rstan -->
<g id="node1" class="node">
<title>r&#45;rstan</title>
<g id="a_node1"><a xlink:href="https://github.com/conda-forge/r-rstan-feedstock/pull/40" xlink:title="r rstan ❎">
<ellipse fill="#31688e" stroke="black" cx="624.35" cy="-1266" rx="60.68" ry="18"/>
<text xml:space="preserve" text-anchor="middle" x="624.35" y="-1261.33" font-family="Times,serif" font-size="14.00" fill="white">r rstan ❎</text>
</a>
</g>
</g>
<!-- r&#45;shinystan -->
<g id="node2" class="node">
<title>r&#45;shinystan</title>
<g id="a_node2"><a xlink:href="https://github.com/conda-forge/r-shinystan-feedstock" xlink:title="r shinystan">
<ellipse fill="#fde725" stroke="black" cx="84.35" cy="-1194" rx="67.52" ry="18"/>
<text xml:space="preserve" text-anchor="middle" x="84.35" y="-1189.33" font-family="Times,serif" font-size="14.00">r shinystan</text>
</a>
</g>
</g>
<!-- r&#45;rstan&#45;&gt;r&#45;shinystan -->
<g id="edge1" class="edge">
<title>r&#45;rstan&#45;&gt;r&#45;shinystan</title>
<path fill="none" stroke="black" d="M566.65,-1259.99C479.58,-1252.05 309.58,-1235.09 166.35,-1212 159.67,-1210.92 152.7,-1209.67 145.77,-1208.35"/>
<polygon fill="black" stroke="black" points="146.94,-1205.01 136.45,-1206.52 145.59,-1211.88 146.94,-1205.01"/>
</g>
<!-- r&#45;rstanarm -->
<g id="node3" class="node">
<title>r&#45;rstanarm</title>
<g id="a_node3"><a xlink:href="https://github.com/conda-forge/r-rstanarm-feedstock" xlink:title="r rstanarm">
<ellipse fill="#fde725" stroke="black" cx="84.35" cy="-1122" rx="65.41" ry="18"/>
<text xml:space="preserve" text-anchor="middle" x="84.35" y="-1117.33" font-family="Times,serif" font-size="14.00">r rstanarm</text>
</a>
</g>
</g>
<!-- r&#45;rstan&#45;&gt;r&#45;rstanarm -->
<g id="edge2" class="edge">
<title>r&#45;rstan&#45;&gt;r&#45;rstanarm</title>
<path fill="none" stroke="black" d="M571.02,-1257.03C514.88,-1248.12 424.17,-1232.24 347.35,-1212 270.76,-1191.82 184.14,-1160.88 131.92,-1141.3"/>
<polygon fill="black" stroke="black" points="133.33,-1138.09 122.73,-1137.84 130.86,-1144.64 133.33,-1138.09"/>
</g>
<!-- r&#45;brms -->
<g id="node4" class="node">
<title>r&#45;brms</title>
<g id="a_node4"><a xlink:href="https://github.com/conda-forge/r-brms-feedstock" xlink:title="r brms">
<ellipse fill="#fde725" stroke="black" cx="212.35" cy="-1122" rx="44.9" ry="18"/>
<text xml:space="preserve" text-anchor="middle" x="212.35" y="-1117.33" font-family="Times,serif" font-size="14.00">r brms</text>
</a>
</g>
</g>
<!-- r&#45;rstan&#45;&gt;r&#45;brms -->
<g id="edge3" class="edge">
<title>r&#45;rstan&#45;&gt;r&#45;brms</title>
<path fill="none" stroke="black" d="M581.93,-1252.88C546.55,-1242.58 494.92,-1227.1 450.35,-1212 380.78,-1188.42 301.01,-1157.86 253.75,-1139.37"/>
<polygon fill="black" stroke="black" points="255.32,-1136.23 244.73,-1135.84 252.76,-1142.75 255.32,-1136.23"/>
</g>
<!-- r&#45;prophet -->
<g id="node5" class="node">
<title>r&#45;prophet</title>
<g id="a_node5"><a xlink:href="https://github.com/conda-forge/r-prophet-feedstock" xlink:title="r prophet">
<ellipse fill="#fde725" stroke="black" cx="518.35" cy="-1194" rx="58.57" ry="18"/>
<text xml:space="preserve" text-anchor="middle" x="518.35" y="-1189.33" font-family="Times,serif" font-size="14.00">r prophet</text>
</a>
</g>
</g>
<!-- r&#45;rstan&#45;&gt;r&#45;prophet -->
<g id="edge4" class="edge">
<title>r&#45;rstan&#45;&gt;r&#45;prophet</title>
<path fill="none" stroke="black" d="M600.3,-1249.12C585.93,-1239.63 567.47,-1227.44 551.71,-1217.03"/>
<polygon fill="black" stroke="black" points="553.85,-1214.25 543.57,-1211.66 549.99,-1220.09 553.85,-1214.25"/>
</g>
<!-- r&#45;metabma -->
<g id="node6" class="node">
<title>r&#45;metabma</title>
<g id="a_node6"><a xlink:href="https://github.com/conda-forge/r-metabma-feedstock" xlink:title="r metabma">
<ellipse fill="#fde725" stroke="black" cx="582.35" cy="-1050" rx="65.94" ry="18"/>
<text xml:space="preserve" text-anchor="middle" x="582.35" y="-1045.33" font-family="Times,serif" font-size="14.00">r metabma</text>
</a>
</g>
</g>
<!-- r&#45;rstan&#45;&gt;r&#45;metabma -->
<g id="edge5" class="edge">
<title>r&#45;rstan&#45;&gt;r&#45;metabma</title>
<path fill="none" stroke="black" d="M627.92,-1247.94C633.45,-1217.87 641.72,-1153.89 624.35,-1104 620.87,-1094.01 614.64,-1084.49 608.03,-1076.34"/>
<polygon fill="black" stroke="black" points="610.74,-1074.13 601.52,-1068.91 605.48,-1078.74 610.74,-1074.13"/>
</g>
<!-- r&#45;rlgt -->
<g id="node7" class="node">
<title>r&#45;rlgt</title>
<g id="a_node7"><a xlink:href="https://github.com/conda-forge/r-rlgt-feedstock" xlink:title="r rlgt">
<ellipse fill="#fde725" stroke="black" cx="667.35" cy="-978" rx="37.53" ry="18"/>
<text xml:space="preserve" text-anchor="middle" x="667.35" y="-973.33" font-family="Times,serif" font-size="14.00">r rlgt</text>
</a>
</g>
</g>
<!-- r&#45;rstan&#45;&gt;r&#45;rlgt -->
<g id="edge6" class="edge">
<title>r&#45;rstan&#45;&gt;r&#45;rlgt</title>
<path fill="none" stroke="black" d="M633.92,-1247.89C639.11,-1237.77 645.11,-1224.52 648.35,-1212 666.95,-1140.17 668.67,-1052.11 668.14,-1007.63"/>
<polygon fill="black" stroke="black" points="671.64,-1007.74 667.97,-997.8 664.64,-1007.86 671.64,-1007.74"/>
</g>
<!-- r&#45;bayesforecast -->
<g id="node8" class="node">
<title>r&#45;bayesforecast</title>
<g id="a_node8"><a xlink:href="https://github.com/conda-forge/r-bayesforecast-feedstock" xlink:title="r bayesforecast">
<ellipse fill="#fde725" stroke="black" cx="526.35" cy="-1122" rx="88.56" ry="18"/>
<text xml:space="preserve" text-anchor="middle" x="526.35" y="-1117.33" font-family="Times,serif" font-size="14.00">r bayesforecast</text>
</a>
</g>
</g>
<!-- r&#45;rstan&#45;&gt;r&#45;bayesforecast -->
<g id="edge7" class="edge">
<title>r&#45;rstan&#45;&gt;r&#45;bayesforecast</title>
<path fill="none" stroke="black" d="M619.51,-1247.78C613.68,-1228.95 602.58,-1198.47 586.35,-1176 578.69,-1165.39 568.55,-1155.41 558.78,-1147.04"/>
<polygon fill="black" stroke="black" points="561.12,-1144.43 551.18,-1140.79 556.68,-1149.84 561.12,-1144.43"/>
</g>
<!-- r&#45;jfa -->
<g id="node9" class="node">
<title>r&#45;jfa</title>
<g id="a_node9"><a xlink:href="https://github.com/conda-forge/r-jfa-feedstock" xlink:title="r jfa">
<ellipse fill="#fde725" stroke="black" cx="733.35" cy="-906" rx="31.74" ry="18"/>
<text xml:space="preserve" text-anchor="middle" x="733.35" y="-901.33" font-family="Times,serif" font-size="14.00">r jfa</text>
</a>
</g>
</g>
<!-- r&#45;rstan&#45;&gt;r&#45;jfa -->
<g id="edge8" class="edge">
<title>r&#45;rstan&#45;&gt;r&#45;jfa</title>
<path fill="none" stroke="black" d="M648.27,-1249.09C680.36,-1225.63 733.35,-1178.47 733.35,-1123 733.35,-1123 733.35,-1123 733.35,-1049 733.35,-1009.74 733.35,-964.38 733.35,-935.69"/>
<polygon fill="black" stroke="black" points="736.85,-936 733.35,-926 729.85,-936 736.85,-936"/>
</g>
<!-- r&#45;stanova -->
<g id="node10" class="node">
<title>r&#45;stanova</title>
<g id="a_node10"><a xlink:href="https://github.com/conda-forge/r-stanova-feedstock" xlink:title="r stanova">
<ellipse fill="#fde725" stroke="black" cx="819.35" cy="-1194" rx="58.05" ry="18"/>
<text xml:space="preserve" text-anchor="middle" x="819.35" y="-1189.33" font-family="Times,serif" font-size="14.00">r stanova</text>
</a>
</g>
</g>
<!-- r&#45;rstan&#45;&gt;r&#45;stanova -->
<g id="edge9" class="edge">
<title>r&#45;rstan&#45;&gt;r&#45;stanova</title>
<path fill="none" stroke="black" d="M661.95,-1251.5C693.31,-1240.25 738.16,-1224.15 771.97,-1212.01"/>
<polygon fill="black" stroke="black" points="772.88,-1215.4 781.11,-1208.73 770.51,-1208.81 772.88,-1215.4"/>
</g>
<!-- r&#45;densestbayes -->
<g id="node11" class="node">
<title>r&#45;densestbayes</title>
<g id="a_node11"><a xlink:href="https://github.com/conda-forge/r-densestbayes-feedstock" xlink:title="r densestbayes">
<ellipse fill="#fde725" stroke="black" cx="905.35" cy="-1122" rx="86.98" ry="18"/>
<text xml:space="preserve" text-anchor="middle" x="905.35" y="-1117.33" font-family="Times,serif" font-size="14.00">r densestbayes</text>
</a>
</g>
</g>
<!-- r&#45;rstan&#45;&gt;r&#45;densestbayes -->
<g id="edge10" class="edge">
<title>r&#45;rstan&#45;&gt;r&#45;densestbayes</title>
<path fill="none" stroke="black" d="M682.79,-1260.55C751.04,-1254.14 858.19,-1239.87 886.35,-1212 902.07,-1196.45 906.28,-1171.3 906.87,-1151.7"/>
<polygon fill="black" stroke="black" points="910.37,-1151.85 906.84,-1141.86 903.37,-1151.87 910.37,-1151.85"/>
</g>
<!-- r&#45;shinystan&#45;&gt;r&#45;rstanarm -->
<g id="edge11" class="edge">
<title>r&#45;shinystan&#45;&gt;r&#45;rstanarm</title>
<path fill="none" stroke="black" d="M84.35,-1175.7C84.35,-1168.41 84.35,-1159.73 84.35,-1151.54"/>
<polygon fill="black" stroke="black" points="87.85,-1151.62 84.35,-1141.62 80.85,-1151.62 87.85,-1151.62"/>
</g>
<!-- r&#45;tidyposterior -->
<g id="node12" class="node">
<title>r&#45;tidyposterior</title>
<g id="a_node12"><a xlink:href="https://github.com/conda-forge/r-tidyposterior-feedstock" xlink:title="r tidyposterior">
<ellipse fill="#fde725" stroke="black" cx="84.35" cy="-1050" rx="84.35" ry="18"/>
<text xml:space="preserve" text-anchor="middle" x="84.35" y="-1045.33" font-family="Times,serif" font-size="14.00">r tidyposterior</text>
</a>
</g>
</g>
<!-- r&#45;rstanarm&#45;&gt;r&#45;tidyposterior -->
<g id="edge12" class="edge">
<title>r&#45;rstanarm&#45;&gt;r&#45;tidyposterior</title>
<path fill="none" stroke="black" d="M84.35,-1103.7C84.35,-1096.41 84.35,-1087.73 84.35,-1079.54"/>
<polygon fill="black" stroke="black" points="87.85,-1079.62 84.35,-1069.62 80.85,-1079.62 87.85,-1079.62"/>
</g>
<!-- r&#45;prophet&#45;&gt;r&#45;bayesforecast -->
<g id="edge13" class="edge">
<title>r&#45;prophet&#45;&gt;r&#45;bayesforecast</title>
<path fill="none" stroke="black" d="M520.33,-1175.7C521.16,-1168.41 522.16,-1159.73 523.09,-1151.54"/>
<polygon fill="black" stroke="black" points="526.57,-1151.94 524.23,-1141.61 519.61,-1151.15 526.57,-1151.94"/>
</g>
<!-- r&#45;modeltime -->
<g id="node13" class="node">
<title>r&#45;modeltime</title>
<g id="a_node13"><a xlink:href="https://github.com/conda-forge/r-modeltime-feedstock" xlink:title="r modeltime">
<ellipse fill="#fde725" stroke="black" cx="347.35" cy="-1122" rx="72.25" ry="18"/>
<text xml:space="preserve" text-anchor="middle" x="347.35" y="-1117.33" font-family="Times,serif" font-size="14.00">r modeltime</text>
</a>
</g>
</g>
<!-- r&#45;prophet&#45;&gt;r&#45;modeltime -->
<g id="edge14" class="edge">
<title>r&#45;prophet&#45;&gt;r&#45;modeltime</title>
<path fill="none" stroke="black" d="M484.16,-1179C458.41,-1168.46 422.79,-1153.88 394.36,-1142.24"/>
<polygon fill="black" stroke="black" points="395.83,-1139.06 385.25,-1138.51 393.18,-1145.54 395.83,-1139.06"/>
</g>
<!-- r&#45;tidybf -->
<g id="node14" class="node">
<title>r&#45;tidybf</title>
<g id="a_node14"><a xlink:href="https://github.com/conda-forge/r-tidybf-feedstock" xlink:title="r tidybf">
<ellipse fill="#fde725" stroke="black" cx="563.35" cy="-978" rx="48.58" ry="18"/>
<text xml:space="preserve" text-anchor="middle" x="563.35" y="-973.33" font-family="Times,serif" font-size="14.00">r tidybf</text>
</a>
</g>
</g>
<!-- r&#45;metabma&#45;&gt;r&#45;tidybf -->
<g id="edge15" class="edge">
<title>r&#45;metabma&#45;&gt;r&#45;tidybf</title>
<path fill="none" stroke="black" d="M577.66,-1031.7C575.63,-1024.24 573.21,-1015.32 570.94,-1006.97"/>
<polygon fill="black" stroke="black" points="574.39,-1006.3 568.39,-997.57 567.63,-1008.13 574.39,-1006.3"/>
</g>
<!-- r&#45;reldist -->
<g id="node15" class="node">
<title>r&#45;reldist</title>
<g id="a_node15"><a xlink:href="https://github.com/conda-forge/r-reldist-feedstock" xlink:title="r reldist">
<ellipse fill="#fde725" stroke="black" cx="905.35" cy="-1050" rx="51.74" ry="18"/>
<text xml:space="preserve" text-anchor="middle" x="905.35" y="-1045.33" font-family="Times,serif" font-size="14.00">r reldist</text>
</a>
</g>
</g>
<!-- r&#45;densestbayes&#45;&gt;r&#45;reldist -->
<g id="edge16" class="edge">
<title>r&#45;densestbayes&#45;&gt;r&#45;reldist</title>
<path fill="none" stroke="black" d="M905.35,-1103.7C905.35,-1096.41 905.35,-1087.73 905.35,-1079.54"/>
<polygon fill="black" stroke="black" points="908.85,-1079.62 905.35,-1069.62 901.85,-1079.62 908.85,-1079.62"/>
</g>
<!-- r&#45;modeltime.resample -->
<g id="node31" class="node">
<title>r&#45;modeltime.resample</title>
<g id="a_node31"><a xlink:href="https://github.com/conda-forge/r-modeltime.resample-feedstock" xlink:title="r modeltime resample">
<ellipse fill="#fde725" stroke="black" cx="321.35" cy="-1050" rx="121.71" ry="18"/>
<text xml:space="preserve" text-anchor="middle" x="321.35" y="-1045.33" font-family="Times,serif" font-size="14.00">r modeltime resample</text>
</a>
</g>
</g>
<!-- r&#45;modeltime&#45;&gt;r&#45;modeltime.resample -->
<g id="edge27" class="edge">
<title>r&#45;modeltime&#45;&gt;r&#45;modeltime.resample</title>
<path fill="none" stroke="black" d="M340.93,-1103.7C338.12,-1096.15 334.77,-1087.12 331.63,-1078.68"/>
<polygon fill="black" stroke="black" points="335,-1077.68 328.23,-1069.52 328.43,-1080.12 335,-1077.68"/>
</g>
<!-- r&#45;modeltime.ensemble -->
<g id="node32" class="node">
<title>r&#45;modeltime.ensemble</title>
<g id="a_node32"><a xlink:href="https://github.com/conda-forge/r-modeltime.ensemble-feedstock" xlink:title="r modeltime ensemble">
<ellipse fill="#fde725" stroke="black" cx="351.35" cy="-978" rx="123.29" ry="18"/>
<text xml:space="preserve" text-anchor="middle" x="351.35" y="-973.33" font-family="Times,serif" font-size="14.00">r modeltime ensemble</text>
</a>
</g>
</g>
<!-- r&#45;modeltime&#45;&gt;r&#45;modeltime.ensemble -->
<g id="edge28" class="edge">
<title>r&#45;modeltime&#45;&gt;r&#45;modeltime.ensemble</title>
<path fill="none" stroke="black" d="M396.9,-1108.57C417.8,-1100.61 440.1,-1087.91 452.35,-1068 460.74,-1054.37 460.63,-1045.69 452.35,-1032 443.82,-1017.89 430.15,-1007.35 415.59,-999.55"/>
<polygon fill="black" stroke="black" points="417.3,-996.49 406.78,-995.24 414.23,-1002.78 417.3,-996.49"/>
</g>
<!-- r&#45;svd -->
<g id="node16" class="node">
<title>r&#45;svd</title>
<g id="a_node16"><a xlink:href="https://github.com/conda-forge/r-svd-feedstock/pull/24" xlink:title="r svd ❎">
<ellipse fill="#31688e" stroke="black" cx="1263.35" cy="-90" rx="51.74" ry="18"/>
<text xml:space="preserve" text-anchor="middle" x="1263.35" y="-85.33" font-family="Times,serif" font-size="14.00" fill="white">r svd ❎</text>
</a>
</g>
</g>
<!-- r&#45;esabcv -->
<g id="node17" class="node">
<title>r&#45;esabcv</title>
<g id="a_node17"><a xlink:href="https://github.com/conda-forge/r-esabcv-feedstock" xlink:title="r esabcv">
<ellipse fill="#fde725" stroke="black" cx="1263.35" cy="-18" rx="53.31" ry="18"/>
<text xml:space="preserve" text-anchor="middle" x="1263.35" y="-13.32" font-family="Times,serif" font-size="14.00">r esabcv</text>
</a>
</g>
</g>
<!-- r&#45;svd&#45;&gt;r&#45;esabcv -->
<g id="edge17" class="edge">
<title>r&#45;svd&#45;&gt;r&#45;esabcv</title>
<path fill="none" stroke="black" d="M1263.35,-71.7C1263.35,-64.41 1263.35,-55.73 1263.35,-47.54"/>
<polygon fill="black" stroke="black" points="1266.85,-47.62 1263.35,-37.62 1259.85,-47.62 1266.85,-47.62"/>
</g>
<!-- rpy2 -->
<g id="node18" class="node">
<title>rpy2</title>
<g id="a_node18"><a xlink:href="https://github.com/conda-forge/rpy2-feedstock/pull/140" xlink:title="rpy2 ❎">
<ellipse fill="#31688e" stroke="black" cx="1628.35" cy="-1446" rx="49.63" ry="18"/>
<text xml:space="preserve" text-anchor="middle" x="1628.35" y="-1441.33" font-family="Times,serif" font-size="14.00" fill="white">rpy2 ❎</text>
</a>
</g>
</g>
<!-- r&#45;xtensor -->
<g id="node19" class="node">
<title>r&#45;xtensor</title>
<g id="a_node19"><a xlink:href="https://github.com/conda-forge/r-xtensor-feedstock/pull/26" xlink:title="r xtensor ❎">
<ellipse fill="#31688e" stroke="black" cx="1628.35" cy="-1374" rx="72.25" ry="18"/>
<text xml:space="preserve" text-anchor="middle" x="1628.35" y="-1369.33" font-family="Times,serif" font-size="14.00" fill="white">r xtensor ❎</text>
</a>
</g>
</g>
<!-- rpy2&#45;&gt;r&#45;xtensor -->
<!-- r&#45;rinside -->
<g id="node29" class="node">
<title>r&#45;rinside</title>
<g id="a_node29"><a xlink:href="https://github.com/conda-forge/r-rinside-feedstock/pull/14" xlink:title="r rinside ❎">
<ellipse fill="#31688e" stroke="black" cx="1628.35" cy="-1302" rx="69.1" ry="18"/>
<text xml:space="preserve" text-anchor="middle" x="1628.35" y="-1297.33" font-family="Times,serif" font-size="14.00" fill="white">r rinside ❎</text>
</a>
</g>
</g>
<!-- r&#45;xtensor&#45;&gt;r&#45;rinside -->
<!-- r&#45;geigen -->
<g id="node20" class="node">
<title>r&#45;geigen</title>
<g id="a_node20"><a xlink:href="https://github.com/conda-forge/r-geigen-feedstock/pull/14" xlink:title="r geigen ❎">
<ellipse fill="#31688e" stroke="black" cx="1628.35" cy="-206" rx="68.04" ry="18"/>
<text xml:space="preserve" text-anchor="middle" x="1628.35" y="-201.33" font-family="Times,serif" font-size="14.00" fill="white">r geigen ❎</text>
</a>
</g>
</g>
<!-- r&#45;conicfit -->
<g id="node21" class="node">
<title>r&#45;conicfit</title>
<g id="a_node21"><a xlink:href="https://github.com/conda-forge/r-conicfit-feedstock" xlink:title="r conicfit">
<ellipse fill="#fde725" stroke="black" cx="1628.35" cy="-134" rx="55.42" ry="18"/>
<text xml:space="preserve" text-anchor="middle" x="1628.35" y="-129.32" font-family="Times,serif" font-size="14.00">r conicfit</text>
</a>
</g>
</g>
<!-- r&#45;geigen&#45;&gt;r&#45;conicfit -->
<g id="edge19" class="edge">
<title>r&#45;geigen&#45;&gt;r&#45;conicfit</title>
<path fill="none" stroke="black" d="M1628.35,-187.7C1628.35,-180.41 1628.35,-171.73 1628.35,-163.54"/>
<polygon fill="black" stroke="black" points="1631.85,-163.62 1628.35,-153.62 1624.85,-163.62 1631.85,-163.62"/>
</g>
<!-- r&#45;quanteda -->
<g id="node22" class="node">
<title>r&#45;quanteda</title>
<g id="a_node22"><a xlink:href="https://github.com/conda-forge/r-quanteda-feedstock/pull/44" xlink:title="r quanteda ❎">
<ellipse fill="#31688e" stroke="black" cx="1169.35" cy="-1266" rx="81.2" ry="18"/>
<text xml:space="preserve" text-anchor="middle" x="1169.35" y="-1261.33" font-family="Times,serif" font-size="14.00" fill="white">r quanteda ❎</text>
</a>
</g>
</g>
<!-- r&#45;stm -->
<g id="node23" class="node">
<title>r&#45;stm</title>
<g id="a_node23"><a xlink:href="https://github.com/conda-forge/r-stm-feedstock" xlink:title="r stm">
<ellipse fill="#fde725" stroke="black" cx="1038.35" cy="-1194" rx="38.06" ry="18"/>
<text xml:space="preserve" text-anchor="middle" x="1038.35" y="-1189.33" font-family="Times,serif" font-size="14.00">r stm</text>
</a>
</g>
</g>
<!-- r&#45;quanteda&#45;&gt;r&#45;stm -->
<g id="edge20" class="edge">
<title>r&#45;quanteda&#45;&gt;r&#45;stm</title>
<path fill="none" stroke="black" d="M1139.3,-1248.94C1119.52,-1238.37 1093.58,-1224.51 1072.95,-1213.49"/>
<polygon fill="black" stroke="black" points="1074.81,-1210.51 1064.34,-1208.88 1071.51,-1216.68 1074.81,-1210.51"/>
</g>
<!-- r&#45;textstem -->
<g id="node24" class="node">
<title>r&#45;textstem</title>
<g id="a_node24"><a xlink:href="https://github.com/conda-forge/r-textstem-feedstock" xlink:title="r textstem">
<ellipse fill="#fde725" stroke="black" cx="1077.35" cy="-1122" rx="63.84" ry="18"/>
<text xml:space="preserve" text-anchor="middle" x="1077.35" y="-1117.33" font-family="Times,serif" font-size="14.00">r textstem</text>
</a>
</g>
</g>
<!-- r&#45;quanteda&#45;&gt;r&#45;textstem -->
<g id="edge21" class="edge">
<title>r&#45;quanteda&#45;&gt;r&#45;textstem</title>
<path fill="none" stroke="black" d="M1158.26,-1247.87C1142.44,-1223.46 1113.26,-1178.43 1094.61,-1149.64"/>
<polygon fill="black" stroke="black" points="1097.69,-1147.95 1089.31,-1141.46 1091.81,-1151.76 1097.69,-1147.95"/>
</g>
<!-- r&#45;quanteda.textplots -->
<g id="node25" class="node">
<title>r&#45;quanteda.textplots</title>
<g id="a_node25"><a xlink:href="https://github.com/conda-forge/r-quanteda.textplots-feedstock" xlink:title="r quanteda textplots">
<ellipse fill="#fde725" stroke="black" cx="1117.35" cy="-1050" rx="113.82" ry="18"/>
<text xml:space="preserve" text-anchor="middle" x="1117.35" y="-1045.33" font-family="Times,serif" font-size="14.00">r quanteda textplots</text>
</a>
</g>
</g>
<!-- r&#45;quanteda&#45;&gt;r&#45;quanteda.textplots -->
<g id="edge22" class="edge">
<title>r&#45;quanteda&#45;&gt;r&#45;quanteda.textplots</title>
<path fill="none" stroke="black" d="M1169.75,-1247.53C1169.9,-1217.36 1167.86,-1153.93 1150.35,-1104 1147.14,-1094.84 1142.14,-1085.6 1136.99,-1077.46"/>
<polygon fill="black" stroke="black" points="1140.06,-1075.76 1131.59,-1069.41 1134.25,-1079.66 1140.06,-1075.76"/>
</g>
<!-- r&#45;quanteda.textstats -->
<g id="node26" class="node">
<title>r&#45;quanteda.textstats</title>
<g id="a_node26"><a xlink:href="https://github.com/conda-forge/r-quanteda.textstats-feedstock" xlink:title="r quanteda textstats">
<ellipse fill="#fde725" stroke="black" cx="1259.35" cy="-978" rx="113.82" ry="18"/>
<text xml:space="preserve" text-anchor="middle" x="1259.35" y="-973.33" font-family="Times,serif" font-size="14.00">r quanteda textstats</text>
</a>
</g>
</g>
<!-- r&#45;quanteda&#45;&gt;r&#45;quanteda.textstats -->
<g id="edge23" class="edge">
<title>r&#45;quanteda&#45;&gt;r&#45;quanteda.textstats</title>
<path fill="none" stroke="black" d="M1176.53,-1247.6C1190.36,-1213.58 1221.04,-1135.64 1240.35,-1068 1246.06,-1048 1250.92,-1025.04 1254.3,-1007.45"/>
<polygon fill="black" stroke="black" points="1257.72,-1008.19 1256.11,-997.72 1250.84,-1006.91 1257.72,-1008.19"/>
</g>
<!-- r&#45;quanteda.textmodels -->
<g id="node27" class="node">
<title>r&#45;quanteda.textmodels</title>
<g id="a_node27"><a xlink:href="https://github.com/conda-forge/r-quanteda.textmodels-feedstock" xlink:title="r quanteda textmodels">
<ellipse fill="#fde725" stroke="black" cx="1401.35" cy="-906" rx="124.86" ry="18"/>
<text xml:space="preserve" text-anchor="middle" x="1401.35" y="-901.33" font-family="Times,serif" font-size="14.00">r quanteda textmodels</text>
</a>
</g>
</g>
<!-- r&#45;quanteda&#45;&gt;r&#45;quanteda.textmodels -->
<g id="edge24" class="edge">
<title>r&#45;quanteda&#45;&gt;r&#45;quanteda.textmodels</title>
<path fill="none" stroke="black" d="M1232.44,-1254.39C1301.14,-1238.81 1401.35,-1202.45 1401.35,-1123 1401.35,-1123 1401.35,-1123 1401.35,-1049 1401.35,-1009.74 1401.35,-964.38 1401.35,-935.69"/>
<polygon fill="black" stroke="black" points="1404.85,-936 1401.35,-926 1397.85,-936 1404.85,-936"/>
</g>
<!-- r&#45;smoothwin -->
<g id="node28" class="node">
<title>r&#45;smoothwin</title>
<g id="a_node28"><a xlink:href="https://github.com/conda-forge/r-smoothwin-feedstock" xlink:title="r smoothwin">
<ellipse fill="#fde725" stroke="black" cx="343.35" cy="-574" rx="73.83" ry="18"/>
<text xml:space="preserve" text-anchor="middle" x="343.35" y="-569.33" font-family="Times,serif" font-size="14.00">r smoothwin</text>
</a>
</g>
</g>
<!-- yggdrasil -->
<g id="node30" class="node">
<title>yggdrasil</title>
<g id="a_node30"><a xlink:href="https://github.com/conda-forge/yggdrasil-feedstock/pull/50" xlink:title="yggdrasil ❎">
<ellipse fill="#31688e" stroke="black" cx="1628.35" cy="-1230" rx="73.3" ry="18"/>
<text xml:space="preserve" text-anchor="middle" x="1628.35" y="-1225.33" font-family="Times,serif" font-size="14.00" fill="white">yggdrasil ❎</text>
</a>
</g>
</g>
<!-- r&#45;rinside&#45;&gt;yggdrasil -->
<!-- r&#45;vsurf -->
<g id="node33" class="node">
<title>r&#45;vsurf</title>
<g id="a_node33"><a xlink:href="https://github.com/conda-forge/r-vsurf-feedstock/pull/7" xlink:title="r vsurf ✓">
<ellipse fill="#31688e" stroke="black" cx="1628.35" cy="-1158" rx="52.79" ry="18"/>
<text xml:space="preserve" text-anchor="middle" x="1628.35" y="-1153.33" font-family="Times,serif" font-size="14.00" fill="white">r vsurf ✓</text>
</a>
</g>
</g>
<!-- yggdrasil&#45;&gt;r&#45;vsurf -->
<!-- r&#45;modeltime.resample&#45;&gt;r&#45;modeltime.ensemble -->
<g id="edge40" class="edge">
<title>r&#45;modeltime.resample&#45;&gt;r&#45;modeltime.ensemble</title>
<path fill="none" stroke="black" d="M328.77,-1031.7C332,-1024.15 335.87,-1015.12 339.49,-1006.68"/>
<polygon fill="black" stroke="black" points="342.7,-1008.07 343.43,-997.5 336.27,-1005.31 342.7,-1008.07"/>
</g>
<!-- r&#45;destinie -->
<g id="node41" class="node">
<title>r&#45;destinie</title>
<g id="a_node41"><a xlink:href="https://github.com/conda-forge/r-destinie-feedstock/pull/9" xlink:title="r destinie ❎">
<ellipse fill="#31688e" stroke="black" cx="1628.35" cy="-1086" rx="74.36" ry="18"/>
<text xml:space="preserve" text-anchor="middle" x="1628.35" y="-1081.33" font-family="Times,serif" font-size="14.00" fill="white">r destinie ❎</text>
</a>
</g>
</g>
<!-- r&#45;vsurf&#45;&gt;r&#45;destinie -->
<!-- r&#45;rfast -->
<g id="node34" class="node">
<title>r&#45;rfast</title>
<g id="a_node34"><a xlink:href="https://github.com/conda-forge/r-rfast-feedstock/pull/31" xlink:title="r rfast ❎">
<ellipse fill="#31688e" stroke="black" cx="510.35" cy="-646" rx="58.05" ry="18"/>
<text xml:space="preserve" text-anchor="middle" x="510.35" y="-641.33" font-family="Times,serif" font-size="14.00" fill="white">r rfast ❎</text>
</a>
</g>
</g>
<!-- r&#45;rfast&#45;&gt;r&#45;smoothwin -->
<g id="edge30" class="edge">
<title>r&#45;rfast&#45;&gt;r&#45;smoothwin</title>
<path fill="none" stroke="black" d="M476.96,-631C451.89,-620.5 417.26,-605.98 389.54,-594.36"/>
<polygon fill="black" stroke="black" points="391.26,-591.29 380.69,-590.65 388.56,-597.74 391.26,-591.29"/>
</g>
<!-- r&#45;metaplus -->
<g id="node35" class="node">
<title>r&#45;metaplus</title>
<g id="a_node35"><a xlink:href="https://github.com/conda-forge/r-metaplus-feedstock" xlink:title="r metaplus">
<ellipse fill="#fde725" stroke="black" cx="417.35" cy="-502" rx="65.41" ry="18"/>
<text xml:space="preserve" text-anchor="middle" x="417.35" y="-497.32" font-family="Times,serif" font-size="14.00">r metaplus</text>
</a>
</g>
</g>
<!-- r&#45;rfast&#45;&gt;r&#45;metaplus -->
<g id="edge31" class="edge">
<title>r&#45;rfast&#45;&gt;r&#45;metaplus</title>
<path fill="none" stroke="black" d="M499.13,-627.87C483.15,-603.46 453.65,-558.43 434.8,-529.64"/>
<polygon fill="black" stroke="black" points="437.85,-527.9 429.44,-521.46 431.99,-531.74 437.85,-527.9"/>
</g>
<!-- r&#45;wto -->
<g id="node36" class="node">
<title>r&#45;wto</title>
<g id="a_node36"><a xlink:href="https://github.com/conda-forge/r-wto-feedstock" xlink:title="r wto">
<ellipse fill="#fde725" stroke="black" cx="496.35" cy="-430" rx="37.53" ry="18"/>
<text xml:space="preserve" text-anchor="middle" x="496.35" y="-425.32" font-family="Times,serif" font-size="14.00">r wto</text>
</a>
</g>
</g>
<!-- r&#45;rfast&#45;&gt;r&#45;wto -->
<g id="edge32" class="edge">
<title>r&#45;rfast&#45;&gt;r&#45;wto</title>
<path fill="none" stroke="black" d="M509.23,-627.85C506.83,-591.14 501.17,-504.66 498.22,-459.53"/>
<polygon fill="black" stroke="black" points="501.72,-459.49 497.58,-449.74 494.74,-459.95 501.72,-459.49"/>
</g>
<!-- r&#45;smartsnp -->
<g id="node37" class="node">
<title>r&#45;smartsnp</title>
<g id="a_node37"><a xlink:href="https://github.com/conda-forge/r-smartsnp-feedstock" xlink:title="r smartsnp">
<ellipse fill="#fde725" stroke="black" cx="562.35" cy="-358" rx="66.47" ry="18"/>
<text xml:space="preserve" text-anchor="middle" x="562.35" y="-353.32" font-family="Times,serif" font-size="14.00">r smartsnp</text>
</a>
</g>
</g>
<!-- r&#45;rfast&#45;&gt;r&#45;smartsnp -->
<g id="edge33" class="edge">
<title>r&#45;rfast&#45;&gt;r&#45;smartsnp</title>
<path fill="none" stroke="black" d="M513.53,-627.54C522.23,-579.66 546.54,-445.95 557.22,-387.24"/>
<polygon fill="black" stroke="black" points="560.6,-388.19 558.95,-377.72 553.72,-386.93 560.6,-388.19"/>
</g>
<!-- r&#45;spectrum -->
<g id="node38" class="node">
<title>r&#45;spectrum</title>
<g id="a_node38"><a xlink:href="https://github.com/conda-forge/r-spectrum-feedstock" xlink:title="r spectrum">
<ellipse fill="#fde725" stroke="black" cx="656.35" cy="-286" rx="66.47" ry="18"/>
<text xml:space="preserve" text-anchor="middle" x="656.35" y="-281.32" font-family="Times,serif" font-size="14.00">r spectrum</text>
</a>
</g>
</g>
<!-- r&#45;rfast&#45;&gt;r&#45;spectrum -->
<g id="edge34" class="edge">
<title>r&#45;rfast&#45;&gt;r&#45;spectrum</title>
<path fill="none" stroke="black" d="M543.12,-630.84C586.16,-609.76 656.35,-565.76 656.35,-503 656.35,-503 656.35,-503 656.35,-429 656.35,-389.74 656.35,-344.38 656.35,-315.69"/>
<polygon fill="black" stroke="black" points="659.85,-316 656.35,-306 652.85,-316 659.85,-316"/>
</g>
<!-- r&#45;mmod -->
<g id="node39" class="node">
<title>r&#45;mmod</title>
<g id="a_node39"><a xlink:href="https://github.com/conda-forge/r-mmod-feedstock" xlink:title="r mmod">
<ellipse fill="#35b779" stroke="black" cx="1263.35" cy="-206" rx="50.16" ry="18"/>
<text xml:space="preserve" text-anchor="middle" x="1263.35" y="-201.33" font-family="Times,serif" font-size="14.00">r mmod</text>
</a>
</g>
</g>
<!-- r&#45;popgenreport -->
<g id="node40" class="node">
<title>r&#45;popgenreport</title>
<g id="a_node40"><a xlink:href="https://github.com/conda-forge/r-popgenreport-feedstock" xlink:title="r popgenreport">
<ellipse fill="#fde725" stroke="black" cx="1263.35" cy="-134" rx="87.51" ry="18"/>
<text xml:space="preserve" text-anchor="middle" x="1263.35" y="-129.32" font-family="Times,serif" font-size="14.00">r popgenreport</text>
</a>
</g>
</g>
<!-- r&#45;mmod&#45;&gt;r&#45;popgenreport -->
<g id="edge35" class="edge">
<title>r&#45;mmod&#45;&gt;r&#45;popgenreport</title>
<path fill="none" stroke="black" d="M1263.35,-187.7C1263.35,-180.41 1263.35,-171.73 1263.35,-163.54"/>
<polygon fill="black" stroke="black" points="1266.85,-163.62 1263.35,-153.62 1259.85,-163.62 1266.85,-163.62"/>
</g>
<!-- r&#45;stampp -->
<g id="node42" class="node">
<title>r&#45;stampp</title>
<g id="a_node42"><a xlink:href="https://github.com/conda-forge/r-stampp-feedstock" xlink:title="r stampp">
<ellipse fill="#35b779" stroke="black" cx="1628.35" cy="-1014" rx="56.47" ry="18"/>
<text xml:space="preserve" text-anchor="middle" x="1628.35" y="-1009.33" font-family="Times,serif" font-size="14.00">r stampp</text>
</a>
</g>
</g>
<!-- r&#45;destinie&#45;&gt;r&#45;stampp -->
<!-- r&#45;poppr -->
<g id="node43" class="node">
<title>r&#45;poppr</title>
<g id="a_node43"><a xlink:href="https://github.com/conda-forge/r-poppr-feedstock" xlink:title="r poppr">
<ellipse fill="#35b779" stroke="black" cx="1628.35" cy="-942" rx="48.58" ry="18"/>
<text xml:space="preserve" text-anchor="middle" x="1628.35" y="-937.33" font-family="Times,serif" font-size="14.00">r poppr</text>
</a>
</g>
</g>
<!-- r&#45;stampp&#45;&gt;r&#45;poppr -->
<!-- harp -->
<g id="node44" class="node">
<title>harp</title>
<g id="a_node44"><a xlink:href="https://github.com/conda-forge/harp-feedstock/pull/51" xlink:title="harp ❎">
<ellipse fill="#31688e" stroke="black" cx="1628.35" cy="-870" rx="49.63" ry="18"/>
<text xml:space="preserve" text-anchor="middle" x="1628.35" y="-865.33" font-family="Times,serif" font-size="14.00" fill="white">harp ❎</text>
</a>
</g>
</g>
<!-- r&#45;poppr&#45;&gt;harp -->
<!-- r&#45;juliacall -->
<g id="node45" class="node">
<title>r&#45;juliacall</title>
<g id="a_node45"><a xlink:href="https://github.com/conda-forge/r-juliacall-feedstock/pull/7" xlink:title="r juliacall ❎">
<ellipse fill="#31688e" stroke="black" cx="1628.35" cy="-798" rx="73.3" ry="18"/>
<text xml:space="preserve" text-anchor="middle" x="1628.35" y="-793.33" font-family="Times,serif" font-size="14.00" fill="white">r juliacall ❎</text>
</a>
</g>
</g>
<!-- harp&#45;&gt;r&#45;juliacall -->
<!-- rstudio -->
<g id="node46" class="node">
<title>rstudio</title>
<g id="a_node46"><a xlink:href="https://github.com/conda-forge/rstudio-feedstock/pull/45" xlink:title="rstudio ❎">
<ellipse fill="#31688e" stroke="black" cx="1628.35" cy="-726" rx="62.26" ry="18"/>
<text xml:space="preserve" text-anchor="middle" x="1628.35" y="-721.33" font-family="Times,serif" font-size="14.00" fill="white">rstudio ❎</text>
</a>
</g>
</g>
<!-- r&#45;juliacall&#45;&gt;rstudio -->
<!-- r&#45;geoprocessor -->
<g id="node47" class="node">
<title>r&#45;geoprocessor</title>
<g id="a_node47"><a xlink:href="https://github.com/conda-forge/r-geoprocessor-feedstock/pull/9" xlink:title="r geoprocessor ❎">
<ellipse fill="#31688e" stroke="black" cx="496.35" cy="-206" rx="101.19" ry="18"/>
<text xml:space="preserve" text-anchor="middle" x="496.35" y="-201.33" font-family="Times,serif" font-size="14.00" fill="white">r geoprocessor ❎</text>
</a>
</g>
</g>
<!-- r&#45;climate4r -->
<g id="node48" class="node">
<title>r&#45;climate4r</title>
<g id="a_node48"><a xlink:href="https://github.com/conda-forge/r-climate4r-feedstock" xlink:title="r climate4r">
<ellipse fill="#fde725" stroke="black" cx="496.35" cy="-134" rx="66.99" ry="18"/>
<text xml:space="preserve" text-anchor="middle" x="496.35" y="-129.32" font-family="Times,serif" font-size="14.00">r climate4r</text>
</a>
</g>
</g>
<!-- r&#45;geoprocessor&#45;&gt;r&#45;climate4r -->
<g id="edge43" class="edge">
<title>r&#45;geoprocessor&#45;&gt;r&#45;climate4r</title>
<path fill="none" stroke="black" d="M496.35,-187.7C496.35,-180.41 496.35,-171.73 496.35,-163.54"/>
<polygon fill="black" stroke="black" points="499.85,-163.62 496.35,-153.62 492.85,-163.62 499.85,-163.62"/>
</g>
<!-- r&#45;fcps -->
<g id="node49" class="node">
<title>r&#45;fcps</title>
<g id="a_node49"><a xlink:href="https://github.com/conda-forge/r-fcps-feedstock/pull/5" xlink:title="r fcps ❎">
<ellipse fill="#31688e" stroke="black" cx="1628.35" cy="-682" rx="54.89" ry="18"/>
<text xml:space="preserve" text-anchor="middle" x="1628.35" y="-677.33" font-family="Times,serif" font-size="14.00" fill="white">r fcps ❎</text>
</a>
</g>
</g>
<!-- r&#45;evalhyd -->
<g id="node50" class="node">
<title>r&#45;evalhyd</title>
<g id="a_node50"><a xlink:href="https://github.com/conda-forge/r-evalhyd-feedstock/pull/7" xlink:title="r evalhyd ❎">
<ellipse fill="#31688e" stroke="black" cx="1628.35" cy="-610" rx="73.3" ry="18"/>
<text xml:space="preserve" text-anchor="middle" x="1628.35" y="-605.33" font-family="Times,serif" font-size="14.00" fill="white">r evalhyd ❎</text>
</a>
</g>
</g>
<!-- r&#45;fcps&#45;&gt;r&#45;evalhyd -->
<!-- r&#45;qgisprocess -->
<g id="node51" class="node">
<title>r&#45;qgisprocess</title>
<g id="a_node51"><a xlink:href="https://github.com/conda-forge/r-qgisprocess-feedstock/pull/7" xlink:title="r qgisprocess ❎">
<ellipse fill="#31688e" stroke="black" cx="1628.35" cy="-538" rx="93.82" ry="18"/>
<text xml:space="preserve" text-anchor="middle" x="1628.35" y="-533.33" font-family="Times,serif" font-size="14.00" fill="white">r qgisprocess ❎</text>
</a>
</g>
</g>
<!-- r&#45;evalhyd&#45;&gt;r&#45;qgisprocess -->
<!-- r&#45;spam64 -->
<g id="node54" class="node">
<title>r&#45;spam64</title>
<g id="a_node54"><a xlink:href="https://github.com/conda-forge/r-spam64-feedstock/pull/2" xlink:title="r spam64 ❎">
<ellipse fill="#31688e" stroke="black" cx="1628.35" cy="-466" rx="73.83" ry="18"/>
<text xml:space="preserve" text-anchor="middle" x="1628.35" y="-461.32" font-family="Times,serif" font-size="14.00" fill="white">r spam64 ❎</text>
</a>
</g>
</g>
<!-- r&#45;qgisprocess&#45;&gt;r&#45;spam64 -->
<!-- r&#45;greta -->
<g id="node52" class="node">
<title>r&#45;greta</title>
<g id="a_node52"><a xlink:href="https://github.com/conda-forge/r-greta-feedstock/pull/6" xlink:title="r greta ❎">
<ellipse fill="#31688e" stroke="black" cx="496.35" cy="-90" rx="61.2" ry="18"/>
<text xml:space="preserve" text-anchor="middle" x="496.35" y="-85.33" font-family="Times,serif" font-size="14.00" fill="white">r greta ❎</text>
</a>
</g>
</g>
<!-- r&#45;causact -->
<g id="node53" class="node">
<title>r&#45;causact</title>
<g id="a_node53"><a xlink:href="https://github.com/conda-forge/r-causact-feedstock" xlink:title="r causact">
<ellipse fill="#fde725" stroke="black" cx="496.35" cy="-18" rx="57" ry="18"/>
<text xml:space="preserve" text-anchor="middle" x="496.35" y="-13.32" font-family="Times,serif" font-size="14.00">r causact</text>
</a>
</g>
</g>
<!-- r&#45;greta&#45;&gt;r&#45;causact -->
<g id="edge46" class="edge">
<title>r&#45;greta&#45;&gt;r&#45;causact</title>
<path fill="none" stroke="black" d="M496.35,-71.7C496.35,-64.41 496.35,-55.73 496.35,-47.54"/>
<polygon fill="black" stroke="black" points="499.85,-47.62 496.35,-37.62 492.85,-47.62 499.85,-47.62"/>
</g>
<!-- r&#45;bigsnpr -->
<g id="node60" class="node">
<title>r&#45;bigsnpr</title>
<g id="a_node60"><a xlink:href="https://github.com/conda-forge/r-bigsnpr-feedstock/pull/6" xlink:title="r bigsnpr ❎">
<ellipse fill="#31688e" stroke="black" cx="1628.35" cy="-394" rx="72.78" ry="18"/>
<text xml:space="preserve" text-anchor="middle" x="1628.35" y="-389.32" font-family="Times,serif" font-size="14.00" fill="white">r bigsnpr ❎</text>
</a>
</g>
</g>
<!-- r&#45;spam64&#45;&gt;r&#45;bigsnpr -->
<!-- r&#45;rxode2 -->
<g id="node55" class="node">
<title>r&#45;rxode2</title>
<g id="a_node55"><a xlink:href="https://github.com/conda-forge/r-rxode2-feedstock/pull/19" xlink:title="r rxode2 ❎">
<ellipse fill="#31688e" stroke="black" cx="1230.35" cy="-610" rx="69.1" ry="18"/>
<text xml:space="preserve" text-anchor="middle" x="1230.35" y="-605.33" font-family="Times,serif" font-size="14.00" fill="white">r rxode2 ❎</text>
</a>
</g>
</g>
<!-- r&#45;nlmixr2plot -->
<g id="node56" class="node">
<title>r&#45;nlmixr2plot</title>
<g id="a_node56"><a xlink:href="https://github.com/conda-forge/r-nlmixr2plot-feedstock" xlink:title="r nlmixr2plot">
<ellipse fill="#fde725" stroke="black" cx="1283.35" cy="-394" rx="77.52" ry="18"/>
<text xml:space="preserve" text-anchor="middle" x="1283.35" y="-389.32" font-family="Times,serif" font-size="14.00">r nlmixr2plot</text>
</a>
</g>
</g>
<!-- r&#45;rxode2&#45;&gt;r&#45;nlmixr2plot -->
<g id="edge48" class="edge">
<title>r&#45;rxode2&#45;&gt;r&#45;nlmixr2plot</title>
<path fill="none" stroke="black" d="M1242.95,-592.24C1249.81,-582.24 1257.81,-568.99 1262.35,-556 1277.87,-511.64 1282.08,-456.79 1283.13,-423.91"/>
<polygon fill="black" stroke="black" points="1286.63,-424.05 1283.36,-413.97 1279.63,-423.89 1286.63,-424.05"/>
</g>
<!-- r&#45;nlmixr2 -->
<g id="node57" class="node">
<title>r&#45;nlmixr2</title>
<g id="a_node57"><a xlink:href="https://github.com/conda-forge/r-nlmixr2-feedstock" xlink:title="r nlmixr2">
<ellipse fill="#fde725" stroke="black" cx="1230.35" cy="-322" rx="58.05" ry="18"/>
<text xml:space="preserve" text-anchor="middle" x="1230.35" y="-317.32" font-family="Times,serif" font-size="14.00">r nlmixr2</text>
</a>
</g>
</g>
<!-- r&#45;rxode2&#45;&gt;r&#45;nlmixr2 -->
<g id="edge49" class="edge">
<title>r&#45;rxode2&#45;&gt;r&#45;nlmixr2</title>
<path fill="none" stroke="black" d="M1170.86,-600.45C1143.99,-593.29 1114.67,-580.14 1098.35,-556 1048.61,-482.42 1146.61,-388.91 1199.55,-346.19"/>
<polygon fill="black" stroke="black" points="1201.7,-348.95 1207.37,-340 1197.36,-343.46 1201.7,-348.95"/>
</g>
<!-- r&#45;nlmixr2extra -->
<g id="node58" class="node">
<title>r&#45;nlmixr2extra</title>
<g id="a_node58"><a xlink:href="https://github.com/conda-forge/r-nlmixr2extra-feedstock" xlink:title="r nlmixr2extra">
<ellipse fill="#fde725" stroke="black" cx="1393.35" cy="-466" rx="84.35" ry="18"/>
<text xml:space="preserve" text-anchor="middle" x="1393.35" y="-461.32" font-family="Times,serif" font-size="14.00">r nlmixr2extra</text>
</a>
</g>
</g>
<!-- r&#45;rxode2&#45;&gt;r&#45;nlmixr2extra -->
<g id="edge50" class="edge">
<title>r&#45;rxode2&#45;&gt;r&#45;nlmixr2extra</title>
<path fill="none" stroke="black" d="M1251.08,-592.57C1263.96,-582.24 1280.79,-568.54 1295.35,-556 1319.98,-534.81 1347.28,-509.88 1366.81,-491.81"/>
<polygon fill="black" stroke="black" points="1369.13,-494.43 1374.08,-485.06 1364.37,-489.3 1369.13,-494.43"/>
</g>
<!-- r&#45;nlmixr2est -->
<g id="node59" class="node">
<title>r&#45;nlmixr2est</title>
<g id="a_node59"><a xlink:href="https://github.com/conda-forge/r-nlmixr2est-feedstock" xlink:title="r nlmixr2est">
<ellipse fill="#fde725" stroke="black" cx="1180.35" cy="-538" rx="73.3" ry="18"/>
<text xml:space="preserve" text-anchor="middle" x="1180.35" y="-533.33" font-family="Times,serif" font-size="14.00">r nlmixr2est</text>
</a>
</g>
</g>
<!-- r&#45;rxode2&#45;&gt;r&#45;nlmixr2est -->
<g id="edge51" class="edge">
<title>r&#45;rxode2&#45;&gt;r&#45;nlmixr2est</title>
<path fill="none" stroke="black" d="M1218.25,-592.05C1212.48,-583.97 1205.44,-574.12 1199,-565.11"/>
<polygon fill="black" stroke="black" points="1201.89,-563.12 1193.22,-557.02 1196.19,-567.19 1201.89,-563.12"/>
</g>
<!-- r&#45;nlmixr2plot&#45;&gt;r&#45;nlmixr2 -->
<g id="edge52" class="edge">
<title>r&#45;nlmixr2plot&#45;&gt;r&#45;nlmixr2</title>
<path fill="none" stroke="black" d="M1270.52,-376.05C1264.34,-367.89 1256.79,-357.91 1249.91,-348.82"/>
<polygon fill="black" stroke="black" points="1252.81,-346.86 1243.98,-341 1247.22,-351.08 1252.81,-346.86"/>
</g>
<!-- r&#45;nlmixr2extra&#45;&gt;r&#45;nlmixr2plot -->
<g id="edge53" class="edge">
<title>r&#45;nlmixr2extra&#45;&gt;r&#45;nlmixr2plot</title>
<path fill="none" stroke="black" d="M1367.28,-448.41C1352.66,-439.1 1334.22,-427.37 1318.35,-417.27"/>
<polygon fill="black" stroke="black" points="1320.45,-414.46 1310.13,-412.04 1316.69,-420.36 1320.45,-414.46"/>
</g>
<!-- r&#45;nlmixr2extra&#45;&gt;r&#45;nlmixr2 -->
<g id="edge54" class="edge">
<title>r&#45;nlmixr2extra&#45;&gt;r&#45;nlmixr2</title>
<path fill="none" stroke="black" d="M1393.41,-447.76C1392.56,-428.05 1388.25,-395.96 1370.35,-376 1350.45,-353.81 1320.28,-340.86 1293.04,-333.33"/>
<polygon fill="black" stroke="black" points="1294,-329.96 1283.45,-330.89 1292.27,-336.75 1294,-329.96"/>
</g>
<!-- r&#45;nlmixr2est&#45;&gt;r&#45;nlmixr2plot -->
<g id="edge55" class="edge">
<title>r&#45;nlmixr2est&#45;&gt;r&#45;nlmixr2plot</title>
<path fill="none" stroke="black" d="M1192.78,-519.87C1210.56,-495.35 1243.44,-450.03 1264.31,-421.26"/>
<polygon fill="black" stroke="black" points="1266.96,-423.56 1270,-413.41 1261.29,-419.45 1266.96,-423.56"/>
</g>
<!-- r&#45;nlmixr2est&#45;&gt;r&#45;nlmixr2 -->
<g id="edge56" class="edge">
<title>r&#45;nlmixr2est&#45;&gt;r&#45;nlmixr2</title>
<path fill="none" stroke="black" d="M1179.47,-519.51C1178.51,-489.33 1179.01,-425.88 1196.35,-376 1199.62,-366.6 1204.86,-357.19 1210.26,-348.96"/>
<polygon fill="black" stroke="black" points="1213.08,-351.03 1215.93,-340.83 1207.34,-347.03 1213.08,-351.03"/>
</g>
<!-- r&#45;nlmixr2est&#45;&gt;r&#45;nlmixr2extra -->
<g id="edge57" class="edge">
<title>r&#45;nlmixr2est&#45;&gt;r&#45;nlmixr2extra</title>
<path fill="none" stroke="black" d="M1222.94,-523C1255.95,-512.16 1301.95,-497.04 1337.84,-485.24"/>
<polygon fill="black" stroke="black" points="1338.79,-488.62 1347.19,-482.17 1336.6,-481.97 1338.79,-488.62"/>
</g>
<!-- r&#45;volumodel -->
<g id="node61" class="node">
<title>r&#45;volumodel</title>
<g id="a_node61"><a xlink:href="https://github.com/conda-forge/r-volumodel-feedstock/pull/4" xlink:title="r volumodel ❎">
<ellipse fill="#31688e" stroke="black" cx="1628.35" cy="-322" rx="85.93" ry="18"/>
<text xml:space="preserve" text-anchor="middle" x="1628.35" y="-317.32" font-family="Times,serif" font-size="14.00" fill="white">r volumodel ❎</text>
</a>
</g>
</g>
<!-- r&#45;bigsnpr&#45;&gt;r&#45;volumodel -->
<!-- r&#45;dmfiller -->
<g id="node62" class="node">
<title>r&#45;dmfiller</title>
<g id="a_node62"><a xlink:href="https://github.com/conda-forge/r-dmfiller-feedstock/pull/2" xlink:title="r dmfiller ❎">
<ellipse fill="#31688e" stroke="black" cx="1628.35" cy="-250" rx="73.3" ry="18"/>
<text xml:space="preserve" text-anchor="middle" x="1628.35" y="-245.32" font-family="Times,serif" font-size="14.00" fill="white">r dmfiller ❎</text>
</a>
</g>
</g>
<!-- r&#45;volumodel&#45;&gt;r&#45;dmfiller -->
</g>
</svg>
