<?xml version="1.0" encoding="UTF-8" standalone="no"?>
<!DOCTYPE svg PUBLIC "-//W3C//DTD SVG 1.1//EN"
 "http://www.w3.org/Graphics/SVG/1.1/DTD/svg11.dtd">
<!-- Generated by graphviz version 13.1.2 (20250809.0930)
 -->
<!-- Pages: 1 -->
<svg width="1730pt" height="1688pt"
 viewBox="0.00 0.00 1730.00 1688.00" xmlns="http://www.w3.org/2000/svg" xmlns:xlink="http://www.w3.org/1999/xlink">
<g id="graph0" class="graph" transform="scale(1 1) rotate(0) translate(4 1684)">
<polygon fill="white" stroke="none" points="-4,4 -4,-1684 1726.18,-1684 1726.18,4 -4,4"/>
<!-- r&#45;rstan -->
<g id="node1" class="node">
<title>r&#45;rstan</title>
<g id="a_node1"><a xlink:href="https://github.com/conda-forge/r-rstan-feedstock/pull/40" xlink:title="r rstan ❎">
<ellipse fill="#31688e" stroke="black" cx="624.35" cy="-1482" rx="60.68" ry="18"/>
<text xml:space="preserve" text-anchor="middle" x="624.35" y="-1477.33" font-family="Times,serif" font-size="14.00" fill="white">r rstan ❎</text>
</a>
</g>
</g>
<!-- r&#45;shinystan -->
<g id="node2" class="node">
<title>r&#45;shinystan</title>
<g id="a_node2"><a xlink:href="https://github.com/conda-forge/r-shinystan-feedstock" xlink:title="r shinystan">
<ellipse fill="#fde725" stroke="black" cx="84.35" cy="-1410" rx="67.52" ry="18"/>
<text xml:space="preserve" text-anchor="middle" x="84.35" y="-1405.33" font-family="Times,serif" font-size="14.00">r shinystan</text>
</a>
</g>
</g>
<!-- r&#45;rstan&#45;&gt;r&#45;shinystan -->
<g id="edge1" class="edge">
<title>r&#45;rstan&#45;&gt;r&#45;shinystan</title>
<path fill="none" stroke="black" d="M566.65,-1475.99C479.58,-1468.05 309.58,-1451.09 166.35,-1428 159.67,-1426.92 152.7,-1425.67 145.77,-1424.35"/>
<polygon fill="black" stroke="black" points="146.94,-1421.01 136.45,-1422.52 145.59,-1427.88 146.94,-1421.01"/>
</g>
<!-- r&#45;rstanarm -->
<g id="node3" class="node">
<title>r&#45;rstanarm</title>
<g id="a_node3"><a xlink:href="https://github.com/conda-forge/r-rstanarm-feedstock" xlink:title="r rstanarm">
<ellipse fill="#fde725" stroke="black" cx="84.35" cy="-1338" rx="65.41" ry="18"/>
<text xml:space="preserve" text-anchor="middle" x="84.35" y="-1333.33" font-family="Times,serif" font-size="14.00">r rstanarm</text>
</a>
</g>
</g>
<!-- r&#45;rstan&#45;&gt;r&#45;rstanarm -->
<g id="edge2" class="edge">
<title>r&#45;rstan&#45;&gt;r&#45;rstanarm</title>
<path fill="none" stroke="black" d="M571.02,-1473.03C514.88,-1464.12 424.17,-1448.24 347.35,-1428 270.76,-1407.82 184.14,-1376.88 131.92,-1357.3"/>
<polygon fill="black" stroke="black" points="133.33,-1354.09 122.73,-1353.84 130.86,-1360.64 133.33,-1354.09"/>
</g>
<!-- r&#45;brms -->
<g id="node4" class="node">
<title>r&#45;brms</title>
<g id="a_node4"><a xlink:href="https://github.com/conda-forge/r-brms-feedstock" xlink:title="r brms">
<ellipse fill="#fde725" stroke="black" cx="212.35" cy="-1338" rx="44.9" ry="18"/>
<text xml:space="preserve" text-anchor="middle" x="212.35" y="-1333.33" font-family="Times,serif" font-size="14.00">r brms</text>
</a>
</g>
</g>
<!-- r&#45;rstan&#45;&gt;r&#45;brms -->
<g id="edge3" class="edge">
<title>r&#45;rstan&#45;&gt;r&#45;brms</title>
<path fill="none" stroke="black" d="M581.93,-1468.88C546.55,-1458.58 494.92,-1443.1 450.35,-1428 380.78,-1404.42 301.01,-1373.86 253.75,-1355.37"/>
<polygon fill="black" stroke="black" points="255.32,-1352.23 244.73,-1351.84 252.76,-1358.75 255.32,-1352.23"/>
</g>
<!-- r&#45;prophet -->
<g id="node5" class="node">
<title>r&#45;prophet</title>
<g id="a_node5"><a xlink:href="https://github.com/conda-forge/r-prophet-feedstock" xlink:title="r prophet">
<ellipse fill="#fde725" stroke="black" cx="518.35" cy="-1410" rx="58.57" ry="18"/>
<text xml:space="preserve" text-anchor="middle" x="518.35" y="-1405.33" font-family="Times,serif" font-size="14.00">r prophet</text>
</a>
</g>
</g>
<!-- r&#45;rstan&#45;&gt;r&#45;prophet -->
<g id="edge4" class="edge">
<title>r&#45;rstan&#45;&gt;r&#45;prophet</title>
<path fill="none" stroke="black" d="M600.3,-1465.12C585.93,-1455.63 567.47,-1443.44 551.71,-1433.03"/>
<polygon fill="black" stroke="black" points="553.85,-1430.25 543.57,-1427.66 549.99,-1436.09 553.85,-1430.25"/>
</g>
<!-- r&#45;metabma -->
<g id="node6" class="node">
<title>r&#45;metabma</title>
<g id="a_node6"><a xlink:href="https://github.com/conda-forge/r-metabma-feedstock" xlink:title="r metabma">
<ellipse fill="#fde725" stroke="black" cx="582.35" cy="-1266" rx="65.94" ry="18"/>
<text xml:space="preserve" text-anchor="middle" x="582.35" y="-1261.33" font-family="Times,serif" font-size="14.00">r metabma</text>
</a>
</g>
</g>
<!-- r&#45;rstan&#45;&gt;r&#45;metabma -->
<g id="edge5" class="edge">
<title>r&#45;rstan&#45;&gt;r&#45;metabma</title>
<path fill="none" stroke="black" d="M627.92,-1463.94C633.45,-1433.87 641.72,-1369.89 624.35,-1320 620.87,-1310.01 614.64,-1300.49 608.03,-1292.34"/>
<polygon fill="black" stroke="black" points="610.74,-1290.13 601.52,-1284.91 605.48,-1294.74 610.74,-1290.13"/>
</g>
<!-- r&#45;rlgt -->
<g id="node7" class="node">
<title>r&#45;rlgt</title>
<g id="a_node7"><a xlink:href="https://github.com/conda-forge/r-rlgt-feedstock" xlink:title="r rlgt">
<ellipse fill="#fde725" stroke="black" cx="667.35" cy="-1194" rx="37.53" ry="18"/>
<text xml:space="preserve" text-anchor="middle" x="667.35" y="-1189.33" font-family="Times,serif" font-size="14.00">r rlgt</text>
</a>
</g>
</g>
<!-- r&#45;rstan&#45;&gt;r&#45;rlgt -->
<g id="edge6" class="edge">
<title>r&#45;rstan&#45;&gt;r&#45;rlgt</title>
<path fill="none" stroke="black" d="M633.92,-1463.89C639.11,-1453.77 645.11,-1440.52 648.35,-1428 666.95,-1356.17 668.67,-1268.11 668.14,-1223.63"/>
<polygon fill="black" stroke="black" points="671.64,-1223.74 667.97,-1213.8 664.64,-1223.86 671.64,-1223.74"/>
</g>
<!-- r&#45;bayesforecast -->
<g id="node8" class="node">
<title>r&#45;bayesforecast</title>
<g id="a_node8"><a xlink:href="https://github.com/conda-forge/r-bayesforecast-feedstock" xlink:title="r bayesforecast">
<ellipse fill="#fde725" stroke="black" cx="526.35" cy="-1338" rx="88.56" ry="18"/>
<text xml:space="preserve" text-anchor="middle" x="526.35" y="-1333.33" font-family="Times,serif" font-size="14.00">r bayesforecast</text>
</a>
</g>
</g>
<!-- r&#45;rstan&#45;&gt;r&#45;bayesforecast -->
<g id="edge7" class="edge">
<title>r&#45;rstan&#45;&gt;r&#45;bayesforecast</title>
<path fill="none" stroke="black" d="M619.51,-1463.78C613.68,-1444.95 602.58,-1414.47 586.35,-1392 578.69,-1381.39 568.55,-1371.41 558.78,-1363.04"/>
<polygon fill="black" stroke="black" points="561.12,-1360.43 551.18,-1356.79 556.68,-1365.84 561.12,-1360.43"/>
</g>
<!-- r&#45;jfa -->
<g id="node9" class="node">
<title>r&#45;jfa</title>
<g id="a_node9"><a xlink:href="https://github.com/conda-forge/r-jfa-feedstock" xlink:title="r jfa">
<ellipse fill="#fde725" stroke="black" cx="733.35" cy="-1122" rx="31.74" ry="18"/>
<text xml:space="preserve" text-anchor="middle" x="733.35" y="-1117.33" font-family="Times,serif" font-size="14.00">r jfa</text>
</a>
</g>
</g>
<!-- r&#45;rstan&#45;&gt;r&#45;jfa -->
<g id="edge8" class="edge">
<title>r&#45;rstan&#45;&gt;r&#45;jfa</title>
<path fill="none" stroke="black" d="M648.27,-1465.09C680.36,-1441.63 733.35,-1394.47 733.35,-1339 733.35,-1339 733.35,-1339 733.35,-1265 733.35,-1225.74 733.35,-1180.38 733.35,-1151.69"/>
<polygon fill="black" stroke="black" points="736.85,-1152 733.35,-1142 729.85,-1152 736.85,-1152"/>
</g>
<!-- r&#45;stanova -->
<g id="node10" class="node">
<title>r&#45;stanova</title>
<g id="a_node10"><a xlink:href="https://github.com/conda-forge/r-stanova-feedstock" xlink:title="r stanova">
<ellipse fill="#fde725" stroke="black" cx="819.35" cy="-1410" rx="58.05" ry="18"/>
<text xml:space="preserve" text-anchor="middle" x="819.35" y="-1405.33" font-family="Times,serif" font-size="14.00">r stanova</text>
</a>
</g>
</g>
<!-- r&#45;rstan&#45;&gt;r&#45;stanova -->
<g id="edge9" class="edge">
<title>r&#45;rstan&#45;&gt;r&#45;stanova</title>
<path fill="none" stroke="black" d="M661.95,-1467.5C693.31,-1456.25 738.16,-1440.15 771.97,-1428.01"/>
<polygon fill="black" stroke="black" points="772.88,-1431.4 781.11,-1424.73 770.51,-1424.81 772.88,-1431.4"/>
</g>
<!-- r&#45;densestbayes -->
<g id="node11" class="node">
<title>r&#45;densestbayes</title>
<g id="a_node11"><a xlink:href="https://github.com/conda-forge/r-densestbayes-feedstock" xlink:title="r densestbayes">
<ellipse fill="#fde725" stroke="black" cx="905.35" cy="-1338" rx="86.98" ry="18"/>
<text xml:space="preserve" text-anchor="middle" x="905.35" y="-1333.33" font-family="Times,serif" font-size="14.00">r densestbayes</text>
</a>
</g>
</g>
<!-- r&#45;rstan&#45;&gt;r&#45;densestbayes -->
<g id="edge10" class="edge">
<title>r&#45;rstan&#45;&gt;r&#45;densestbayes</title>
<path fill="none" stroke="black" d="M682.79,-1476.55C751.04,-1470.14 858.19,-1455.87 886.35,-1428 902.07,-1412.45 906.28,-1387.3 906.87,-1367.7"/>
<polygon fill="black" stroke="black" points="910.37,-1367.85 906.84,-1357.86 903.37,-1367.87 910.37,-1367.85"/>
</g>
<!-- r&#45;shinystan&#45;&gt;r&#45;rstanarm -->
<g id="edge11" class="edge">
<title>r&#45;shinystan&#45;&gt;r&#45;rstanarm</title>
<path fill="none" stroke="black" d="M84.35,-1391.7C84.35,-1384.41 84.35,-1375.73 84.35,-1367.54"/>
<polygon fill="black" stroke="black" points="87.85,-1367.62 84.35,-1357.62 80.85,-1367.62 87.85,-1367.62"/>
</g>
<!-- r&#45;tidyposterior -->
<g id="node12" class="node">
<title>r&#45;tidyposterior</title>
<g id="a_node12"><a xlink:href="https://github.com/conda-forge/r-tidyposterior-feedstock" xlink:title="r tidyposterior">
<ellipse fill="#fde725" stroke="black" cx="84.35" cy="-1266" rx="84.35" ry="18"/>
<text xml:space="preserve" text-anchor="middle" x="84.35" y="-1261.33" font-family="Times,serif" font-size="14.00">r tidyposterior</text>
</a>
</g>
</g>
<!-- r&#45;rstanarm&#45;&gt;r&#45;tidyposterior -->
<g id="edge12" class="edge">
<title>r&#45;rstanarm&#45;&gt;r&#45;tidyposterior</title>
<path fill="none" stroke="black" d="M84.35,-1319.7C84.35,-1312.41 84.35,-1303.73 84.35,-1295.54"/>
<polygon fill="black" stroke="black" points="87.85,-1295.62 84.35,-1285.62 80.85,-1295.62 87.85,-1295.62"/>
</g>
<!-- r&#45;prophet&#45;&gt;r&#45;bayesforecast -->
<g id="edge13" class="edge">
<title>r&#45;prophet&#45;&gt;r&#45;bayesforecast</title>
<path fill="none" stroke="black" d="M520.33,-1391.7C521.16,-1384.41 522.16,-1375.73 523.09,-1367.54"/>
<polygon fill="black" stroke="black" points="526.57,-1367.94 524.23,-1357.61 519.61,-1367.15 526.57,-1367.94"/>
</g>
<!-- r&#45;modeltime -->
<g id="node13" class="node">
<title>r&#45;modeltime</title>
<g id="a_node13"><a xlink:href="https://github.com/conda-forge/r-modeltime-feedstock" xlink:title="r modeltime">
<ellipse fill="#fde725" stroke="black" cx="347.35" cy="-1338" rx="72.25" ry="18"/>
<text xml:space="preserve" text-anchor="middle" x="347.35" y="-1333.33" font-family="Times,serif" font-size="14.00">r modeltime</text>
</a>
</g>
</g>
<!-- r&#45;prophet&#45;&gt;r&#45;modeltime -->
<g id="edge14" class="edge">
<title>r&#45;prophet&#45;&gt;r&#45;modeltime</title>
<path fill="none" stroke="black" d="M484.16,-1395C458.41,-1384.46 422.79,-1369.88 394.36,-1358.24"/>
<polygon fill="black" stroke="black" points="395.83,-1355.06 385.25,-1354.51 393.18,-1361.54 395.83,-1355.06"/>
</g>
<!-- r&#45;tidybf -->
<g id="node14" class="node">
<title>r&#45;tidybf</title>
<g id="a_node14"><a xlink:href="https://github.com/conda-forge/r-tidybf-feedstock" xlink:title="r tidybf">
<ellipse fill="#fde725" stroke="black" cx="563.35" cy="-1194" rx="48.58" ry="18"/>
<text xml:space="preserve" text-anchor="middle" x="563.35" y="-1189.33" font-family="Times,serif" font-size="14.00">r tidybf</text>
</a>
</g>
</g>
<!-- r&#45;metabma&#45;&gt;r&#45;tidybf -->
<g id="edge15" class="edge">
<title>r&#45;metabma&#45;&gt;r&#45;tidybf</title>
<path fill="none" stroke="black" d="M577.66,-1247.7C575.63,-1240.24 573.21,-1231.32 570.94,-1222.97"/>
<polygon fill="black" stroke="black" points="574.39,-1222.3 568.39,-1213.57 567.63,-1224.13 574.39,-1222.3"/>
</g>
<!-- r&#45;reldist -->
<g id="node15" class="node">
<title>r&#45;reldist</title>
<g id="a_node15"><a xlink:href="https://github.com/conda-forge/r-reldist-feedstock" xlink:title="r reldist">
<ellipse fill="#fde725" stroke="black" cx="905.35" cy="-1266" rx="51.74" ry="18"/>
<text xml:space="preserve" text-anchor="middle" x="905.35" y="-1261.33" font-family="Times,serif" font-size="14.00">r reldist</text>
</a>
</g>
</g>
<!-- r&#45;densestbayes&#45;&gt;r&#45;reldist -->
<g id="edge16" class="edge">
<title>r&#45;densestbayes&#45;&gt;r&#45;reldist</title>
<path fill="none" stroke="black" d="M905.35,-1319.7C905.35,-1312.41 905.35,-1303.73 905.35,-1295.54"/>
<polygon fill="black" stroke="black" points="908.85,-1295.62 905.35,-1285.62 901.85,-1295.62 908.85,-1295.62"/>
</g>
<!-- r&#45;modeltime.resample -->
<g id="node31" class="node">
<title>r&#45;modeltime.resample</title>
<g id="a_node31"><a xlink:href="https://github.com/conda-forge/r-modeltime.resample-feedstock" xlink:title="r modeltime resample">
<ellipse fill="#fde725" stroke="black" cx="321.35" cy="-1266" rx="121.71" ry="18"/>
<text xml:space="preserve" text-anchor="middle" x="321.35" y="-1261.33" font-family="Times,serif" font-size="14.00">r modeltime resample</text>
</a>
</g>
</g>
<!-- r&#45;modeltime&#45;&gt;r&#45;modeltime.resample -->
<g id="edge27" class="edge">
<title>r&#45;modeltime&#45;&gt;r&#45;modeltime.resample</title>
<path fill="none" stroke="black" d="M340.93,-1319.7C338.12,-1312.15 334.77,-1303.12 331.63,-1294.68"/>
<polygon fill="black" stroke="black" points="335,-1293.68 328.23,-1285.52 328.43,-1296.12 335,-1293.68"/>
</g>
<!-- r&#45;modeltime.ensemble -->
<g id="node32" class="node">
<title>r&#45;modeltime.ensemble</title>
<g id="a_node32"><a xlink:href="https://github.com/conda-forge/r-modeltime.ensemble-feedstock" xlink:title="r modeltime ensemble">
<ellipse fill="#fde725" stroke="black" cx="351.35" cy="-1194" rx="123.29" ry="18"/>
<text xml:space="preserve" text-anchor="middle" x="351.35" y="-1189.33" font-family="Times,serif" font-size="14.00">r modeltime ensemble</text>
</a>
</g>
</g>
<!-- r&#45;modeltime&#45;&gt;r&#45;modeltime.ensemble -->
<g id="edge28" class="edge">
<title>r&#45;modeltime&#45;&gt;r&#45;modeltime.ensemble</title>
<path fill="none" stroke="black" d="M396.9,-1324.57C417.8,-1316.61 440.1,-1303.91 452.35,-1284 460.74,-1270.37 460.63,-1261.69 452.35,-1248 443.82,-1233.89 430.15,-1223.35 415.59,-1215.55"/>
<polygon fill="black" stroke="black" points="417.3,-1212.49 406.78,-1211.24 414.23,-1218.78 417.3,-1212.49"/>
</g>
<!-- r&#45;svd -->
<g id="node16" class="node">
<title>r&#45;svd</title>
<g id="a_node16"><a xlink:href="https://github.com/conda-forge/r-svd-feedstock/pull/24" xlink:title="r svd ❎">
<ellipse fill="#31688e" stroke="black" cx="1263.35" cy="-90" rx="51.74" ry="18"/>
<text xml:space="preserve" text-anchor="middle" x="1263.35" y="-85.33" font-family="Times,serif" font-size="14.00" fill="white">r svd ❎</text>
</a>
</g>
</g>
<!-- r&#45;esabcv -->
<g id="node17" class="node">
<title>r&#45;esabcv</title>
<g id="a_node17"><a xlink:href="https://github.com/conda-forge/r-esabcv-feedstock" xlink:title="r esabcv">
<ellipse fill="#fde725" stroke="black" cx="1263.35" cy="-18" rx="53.31" ry="18"/>
<text xml:space="preserve" text-anchor="middle" x="1263.35" y="-13.32" font-family="Times,serif" font-size="14.00">r esabcv</text>
</a>
</g>
</g>
<!-- r&#45;svd&#45;&gt;r&#45;esabcv -->
<g id="edge17" class="edge">
<title>r&#45;svd&#45;&gt;r&#45;esabcv</title>
<path fill="none" stroke="black" d="M1263.35,-71.7C1263.35,-64.41 1263.35,-55.73 1263.35,-47.54"/>
<polygon fill="black" stroke="black" points="1266.85,-47.62 1263.35,-37.62 1259.85,-47.62 1266.85,-47.62"/>
</g>
<!-- rpy2 -->
<g id="node18" class="node">
<title>rpy2</title>
<g id="a_node18"><a xlink:href="https://github.com/conda-forge/rpy2-feedstock/pull/140" xlink:title="rpy2 ❎">
<ellipse fill="#31688e" stroke="black" cx="1628.35" cy="-1662" rx="49.63" ry="18"/>
<text xml:space="preserve" text-anchor="middle" x="1628.35" y="-1657.33" font-family="Times,serif" font-size="14.00" fill="white">rpy2 ❎</text>
</a>
</g>
</g>
<!-- r&#45;xtensor -->
<g id="node19" class="node">
<title>r&#45;xtensor</title>
<g id="a_node19"><a xlink:href="https://github.com/conda-forge/r-xtensor-feedstock/pull/26" xlink:title="r xtensor ❎">
<ellipse fill="#31688e" stroke="black" cx="1628.35" cy="-1590" rx="72.25" ry="18"/>
<text xml:space="preserve" text-anchor="middle" x="1628.35" y="-1585.33" font-family="Times,serif" font-size="14.00" fill="white">r xtensor ❎</text>
</a>
</g>
</g>
<!-- rpy2&#45;&gt;r&#45;xtensor -->
<!-- r&#45;rinside -->
<g id="node29" class="node">
<title>r&#45;rinside</title>
<g id="a_node29"><a xlink:href="https://github.com/conda-forge/r-rinside-feedstock/pull/14" xlink:title="r rinside ❎">
<ellipse fill="#31688e" stroke="black" cx="1628.35" cy="-1518" rx="69.1" ry="18"/>
<text xml:space="preserve" text-anchor="middle" x="1628.35" y="-1513.33" font-family="Times,serif" font-size="14.00" fill="white">r rinside ❎</text>
</a>
</g>
</g>
<!-- r&#45;xtensor&#45;&gt;r&#45;rinside -->
<!-- r&#45;geigen -->
<g id="node20" class="node">
<title>r&#45;geigen</title>
<g id="a_node20"><a xlink:href="https://github.com/conda-forge/r-geigen-feedstock/pull/14" xlink:title="r geigen ❎">
<ellipse fill="#31688e" stroke="black" cx="1628.35" cy="-278" rx="68.04" ry="18"/>
<text xml:space="preserve" text-anchor="middle" x="1628.35" y="-273.32" font-family="Times,serif" font-size="14.00" fill="white">r geigen ❎</text>
</a>
</g>
</g>
<!-- r&#45;conicfit -->
<g id="node21" class="node">
<title>r&#45;conicfit</title>
<g id="a_node21"><a xlink:href="https://github.com/conda-forge/r-conicfit-feedstock" xlink:title="r conicfit">
<ellipse fill="#fde725" stroke="black" cx="1628.35" cy="-206" rx="55.42" ry="18"/>
<text xml:space="preserve" text-anchor="middle" x="1628.35" y="-201.32" font-family="Times,serif" font-size="14.00">r conicfit</text>
</a>
</g>
</g>
<!-- r&#45;geigen&#45;&gt;r&#45;conicfit -->
<g id="edge19" class="edge">
<title>r&#45;geigen&#45;&gt;r&#45;conicfit</title>
<path fill="none" stroke="black" d="M1628.35,-259.7C1628.35,-252.41 1628.35,-243.73 1628.35,-235.54"/>
<polygon fill="black" stroke="black" points="1631.85,-235.62 1628.35,-225.62 1624.85,-235.62 1631.85,-235.62"/>
</g>
<!-- r&#45;quanteda -->
<g id="node22" class="node">
<title>r&#45;quanteda</title>
<g id="a_node22"><a xlink:href="https://github.com/conda-forge/r-quanteda-feedstock/pull/44" xlink:title="r quanteda ❎">
<ellipse fill="#31688e" stroke="black" cx="1169.35" cy="-1482" rx="81.2" ry="18"/>
<text xml:space="preserve" text-anchor="middle" x="1169.35" y="-1477.33" font-family="Times,serif" font-size="14.00" fill="white">r quanteda ❎</text>
</a>
</g>
</g>
<!-- r&#45;stm -->
<g id="node23" class="node">
<title>r&#45;stm</title>
<g id="a_node23"><a xlink:href="https://github.com/conda-forge/r-stm-feedstock" xlink:title="r stm">
<ellipse fill="#fde725" stroke="black" cx="1038.35" cy="-1410" rx="38.06" ry="18"/>
<text xml:space="preserve" text-anchor="middle" x="1038.35" y="-1405.33" font-family="Times,serif" font-size="14.00">r stm</text>
</a>
</g>
</g>
<!-- r&#45;quanteda&#45;&gt;r&#45;stm -->
<g id="edge20" class="edge">
<title>r&#45;quanteda&#45;&gt;r&#45;stm</title>
<path fill="none" stroke="black" d="M1139.3,-1464.94C1119.52,-1454.37 1093.58,-1440.51 1072.95,-1429.49"/>
<polygon fill="black" stroke="black" points="1074.81,-1426.51 1064.34,-1424.88 1071.51,-1432.68 1074.81,-1426.51"/>
</g>
<!-- r&#45;textstem -->
<g id="node24" class="node">
<title>r&#45;textstem</title>
<g id="a_node24"><a xlink:href="https://github.com/conda-forge/r-textstem-feedstock" xlink:title="r textstem">
<ellipse fill="#fde725" stroke="black" cx="1077.35" cy="-1338" rx="63.84" ry="18"/>
<text xml:space="preserve" text-anchor="middle" x="1077.35" y="-1333.33" font-family="Times,serif" font-size="14.00">r textstem</text>
</a>
</g>
</g>
<!-- r&#45;quanteda&#45;&gt;r&#45;textstem -->
<g id="edge21" class="edge">
<title>r&#45;quanteda&#45;&gt;r&#45;textstem</title>
<path fill="none" stroke="black" d="M1158.26,-1463.87C1142.44,-1439.46 1113.26,-1394.43 1094.61,-1365.64"/>
<polygon fill="black" stroke="black" points="1097.69,-1363.95 1089.31,-1357.46 1091.81,-1367.76 1097.69,-1363.95"/>
</g>
<!-- r&#45;quanteda.textplots -->
<g id="node25" class="node">
<title>r&#45;quanteda.textplots</title>
<g id="a_node25"><a xlink:href="https://github.com/conda-forge/r-quanteda.textplots-feedstock" xlink:title="r quanteda textplots">
<ellipse fill="#fde725" stroke="black" cx="1117.35" cy="-1266" rx="113.82" ry="18"/>
<text xml:space="preserve" text-anchor="middle" x="1117.35" y="-1261.33" font-family="Times,serif" font-size="14.00">r quanteda textplots</text>
</a>
</g>
</g>
<!-- r&#45;quanteda&#45;&gt;r&#45;quanteda.textplots -->
<g id="edge22" class="edge">
<title>r&#45;quanteda&#45;&gt;r&#45;quanteda.textplots</title>
<path fill="none" stroke="black" d="M1169.75,-1463.53C1169.9,-1433.36 1167.86,-1369.93 1150.35,-1320 1147.14,-1310.84 1142.14,-1301.6 1136.99,-1293.46"/>
<polygon fill="black" stroke="black" points="1140.06,-1291.76 1131.59,-1285.41 1134.25,-1295.66 1140.06,-1291.76"/>
</g>
<!-- r&#45;quanteda.textstats -->
<g id="node26" class="node">
<title>r&#45;quanteda.textstats</title>
<g id="a_node26"><a xlink:href="https://github.com/conda-forge/r-quanteda.textstats-feedstock" xlink:title="r quanteda textstats">
<ellipse fill="#fde725" stroke="black" cx="1259.35" cy="-1194" rx="113.82" ry="18"/>
<text xml:space="preserve" text-anchor="middle" x="1259.35" y="-1189.33" font-family="Times,serif" font-size="14.00">r quanteda textstats</text>
</a>
</g>
</g>
<!-- r&#45;quanteda&#45;&gt;r&#45;quanteda.textstats -->
<g id="edge23" class="edge">
<title>r&#45;quanteda&#45;&gt;r&#45;quanteda.textstats</title>
<path fill="none" stroke="black" d="M1176.53,-1463.6C1190.36,-1429.58 1221.04,-1351.64 1240.35,-1284 1246.06,-1264 1250.92,-1241.04 1254.3,-1223.45"/>
<polygon fill="black" stroke="black" points="1257.72,-1224.19 1256.11,-1213.72 1250.84,-1222.91 1257.72,-1224.19"/>
</g>
<!-- r&#45;quanteda.textmodels -->
<g id="node27" class="node">
<title>r&#45;quanteda.textmodels</title>
<g id="a_node27"><a xlink:href="https://github.com/conda-forge/r-quanteda.textmodels-feedstock" xlink:title="r quanteda textmodels">
<ellipse fill="#fde725" stroke="black" cx="1401.35" cy="-1122" rx="124.86" ry="18"/>
<text xml:space="preserve" text-anchor="middle" x="1401.35" y="-1117.33" font-family="Times,serif" font-size="14.00">r quanteda textmodels</text>
</a>
</g>
</g>
<!-- r&#45;quanteda&#45;&gt;r&#45;quanteda.textmodels -->
<g id="edge24" class="edge">
<title>r&#45;quanteda&#45;&gt;r&#45;quanteda.textmodels</title>
<path fill="none" stroke="black" d="M1232.44,-1470.39C1301.14,-1454.81 1401.35,-1418.45 1401.35,-1339 1401.35,-1339 1401.35,-1339 1401.35,-1265 1401.35,-1225.74 1401.35,-1180.38 1401.35,-1151.69"/>
<polygon fill="black" stroke="black" points="1404.85,-1152 1401.35,-1142 1397.85,-1152 1404.85,-1152"/>
</g>
<!-- r&#45;smoothwin -->
<g id="node28" class="node">
<title>r&#45;smoothwin</title>
<g id="a_node28"><a xlink:href="https://github.com/conda-forge/r-smoothwin-feedstock" xlink:title="r smoothwin">
<ellipse fill="#fde725" stroke="black" cx="1110.35" cy="-754" rx="73.83" ry="18"/>
<text xml:space="preserve" text-anchor="middle" x="1110.35" y="-749.33" font-family="Times,serif" font-size="14.00">r smoothwin</text>
</a>
</g>
</g>
<!-- yggdrasil -->
<g id="node30" class="node">
<title>yggdrasil</title>
<g id="a_node30"><a xlink:href="https://github.com/conda-forge/yggdrasil-feedstock/pull/50" xlink:title="yggdrasil ❎">
<ellipse fill="#31688e" stroke="black" cx="1628.35" cy="-1446" rx="73.3" ry="18"/>
<text xml:space="preserve" text-anchor="middle" x="1628.35" y="-1441.33" font-family="Times,serif" font-size="14.00" fill="white">yggdrasil ❎</text>
</a>
</g>
</g>
<!-- r&#45;rinside&#45;&gt;yggdrasil -->
<!-- r&#45;vsurf -->
<g id="node33" class="node">
<title>r&#45;vsurf</title>
<g id="a_node33"><a xlink:href="https://github.com/conda-forge/r-vsurf-feedstock/pull/7" xlink:title="r vsurf ✓">
<ellipse fill="#31688e" stroke="black" cx="1628.35" cy="-1374" rx="52.79" ry="18"/>
<text xml:space="preserve" text-anchor="middle" x="1628.35" y="-1369.33" font-family="Times,serif" font-size="14.00" fill="white">r vsurf ✓</text>
</a>
</g>
</g>
<!-- yggdrasil&#45;&gt;r&#45;vsurf -->
<!-- r&#45;modeltime.resample&#45;&gt;r&#45;modeltime.ensemble -->
<g id="edge50" class="edge">
<title>r&#45;modeltime.resample&#45;&gt;r&#45;modeltime.ensemble</title>
<path fill="none" stroke="black" d="M328.77,-1247.7C332,-1240.15 335.87,-1231.12 339.49,-1222.68"/>
<polygon fill="black" stroke="black" points="342.7,-1224.07 343.43,-1213.5 336.27,-1221.31 342.7,-1224.07"/>
</g>
<!-- r&#45;phylosignal -->
<g id="node44" class="node">
<title>r&#45;phylosignal</title>
<g id="a_node44"><a xlink:href="https://github.com/conda-forge/r-phylosignal-feedstock" xlink:title="r phylosignal">
<ellipse fill="#35b779" stroke="black" cx="1628.35" cy="-1302" rx="76.46" ry="18"/>
<text xml:space="preserve" text-anchor="middle" x="1628.35" y="-1297.33" font-family="Times,serif" font-size="14.00">r phylosignal</text>
</a>
</g>
</g>
<!-- r&#45;vsurf&#45;&gt;r&#45;phylosignal -->
<!-- r&#45;rfast -->
<g id="node34" class="node">
<title>r&#45;rfast</title>
<g id="a_node34"><a xlink:href="https://github.com/conda-forge/r-rfast-feedstock/pull/31" xlink:title="r rfast ❎">
<ellipse fill="#31688e" stroke="black" cx="1277.35" cy="-826" rx="58.05" ry="18"/>
<text xml:space="preserve" text-anchor="middle" x="1277.35" y="-821.33" font-family="Times,serif" font-size="14.00" fill="white">r rfast ❎</text>
</a>
</g>
</g>
<!-- r&#45;rfast&#45;&gt;r&#45;smoothwin -->
<g id="edge30" class="edge">
<title>r&#45;rfast&#45;&gt;r&#45;smoothwin</title>
<path fill="none" stroke="black" d="M1243.96,-811C1218.89,-800.5 1184.26,-785.98 1156.54,-774.36"/>
<polygon fill="black" stroke="black" points="1158.26,-771.29 1147.69,-770.65 1155.56,-777.74 1158.26,-771.29"/>
</g>
<!-- r&#45;metaplus -->
<g id="node35" class="node">
<title>r&#45;metaplus</title>
<g id="a_node35"><a xlink:href="https://github.com/conda-forge/r-metaplus-feedstock" xlink:title="r metaplus">
<ellipse fill="#fde725" stroke="black" cx="1184.35" cy="-682" rx="65.41" ry="18"/>
<text xml:space="preserve" text-anchor="middle" x="1184.35" y="-677.33" font-family="Times,serif" font-size="14.00">r metaplus</text>
</a>
</g>
</g>
<!-- r&#45;rfast&#45;&gt;r&#45;metaplus -->
<g id="edge31" class="edge">
<title>r&#45;rfast&#45;&gt;r&#45;metaplus</title>
<path fill="none" stroke="black" d="M1266.13,-807.87C1250.15,-783.46 1220.65,-738.43 1201.8,-709.64"/>
<polygon fill="black" stroke="black" points="1204.85,-707.9 1196.44,-701.46 1198.99,-711.74 1204.85,-707.9"/>
</g>
<!-- r&#45;wto -->
<g id="node36" class="node">
<title>r&#45;wto</title>
<g id="a_node36"><a xlink:href="https://github.com/conda-forge/r-wto-feedstock" xlink:title="r wto">
<ellipse fill="#fde725" stroke="black" cx="1263.35" cy="-610" rx="37.53" ry="18"/>
<text xml:space="preserve" text-anchor="middle" x="1263.35" y="-605.33" font-family="Times,serif" font-size="14.00">r wto</text>
</a>
</g>
</g>
<!-- r&#45;rfast&#45;&gt;r&#45;wto -->
<g id="edge32" class="edge">
<title>r&#45;rfast&#45;&gt;r&#45;wto</title>
<path fill="none" stroke="black" d="M1276.23,-807.85C1273.83,-771.14 1268.17,-684.66 1265.22,-639.53"/>
<polygon fill="black" stroke="black" points="1268.72,-639.49 1264.58,-629.74 1261.74,-639.95 1268.72,-639.49"/>
</g>
<!-- r&#45;smartsnp -->
<g id="node37" class="node">
<title>r&#45;smartsnp</title>
<g id="a_node37"><a xlink:href="https://github.com/conda-forge/r-smartsnp-feedstock" xlink:title="r smartsnp">
<ellipse fill="#fde725" stroke="black" cx="1329.35" cy="-538" rx="66.47" ry="18"/>
<text xml:space="preserve" text-anchor="middle" x="1329.35" y="-533.33" font-family="Times,serif" font-size="14.00">r smartsnp</text>
</a>
</g>
</g>
<!-- r&#45;rfast&#45;&gt;r&#45;smartsnp -->
<g id="edge33" class="edge">
<title>r&#45;rfast&#45;&gt;r&#45;smartsnp</title>
<path fill="none" stroke="black" d="M1280.53,-807.54C1289.23,-759.66 1313.54,-625.95 1324.22,-567.24"/>
<polygon fill="black" stroke="black" points="1327.6,-568.19 1325.95,-557.72 1320.72,-566.93 1327.6,-568.19"/>
</g>
<!-- r&#45;spectrum -->
<g id="node38" class="node">
<title>r&#45;spectrum</title>
<g id="a_node38"><a xlink:href="https://github.com/conda-forge/r-spectrum-feedstock" xlink:title="r spectrum">
<ellipse fill="#fde725" stroke="black" cx="1423.35" cy="-466" rx="66.47" ry="18"/>
<text xml:space="preserve" text-anchor="middle" x="1423.35" y="-461.32" font-family="Times,serif" font-size="14.00">r spectrum</text>
</a>
</g>
</g>
<!-- r&#45;rfast&#45;&gt;r&#45;spectrum -->
<g id="edge34" class="edge">
<title>r&#45;rfast&#45;&gt;r&#45;spectrum</title>
<path fill="none" stroke="black" d="M1310.12,-810.84C1353.16,-789.76 1423.35,-745.76 1423.35,-683 1423.35,-683 1423.35,-683 1423.35,-609 1423.35,-569.74 1423.35,-524.38 1423.35,-495.69"/>
<polygon fill="black" stroke="black" points="1426.85,-496 1423.35,-486 1419.85,-496 1426.85,-496"/>
</g>
<!-- r&#45;pegas -->
<g id="node39" class="node">
<title>r&#45;pegas</title>
<g id="a_node39"><a xlink:href="https://github.com/conda-forge/r-pegas-feedstock" xlink:title="r pegas">
<ellipse fill="#ff8c00" stroke="black" cx="525.35" cy="-350" rx="48.58" ry="18"/>
<text xml:space="preserve" text-anchor="middle" x="525.35" y="-345.32" font-family="Times,serif" font-size="14.00">r pegas</text>
</a>
</g>
</g>
<!-- r&#45;mmod -->
<g id="node40" class="node">
<title>r&#45;mmod</title>
<g id="a_node40"><a xlink:href="https://github.com/conda-forge/r-mmod-feedstock" xlink:title="r mmod">
<ellipse fill="#fde725" stroke="black" cx="405.35" cy="-278" rx="50.16" ry="18"/>
<text xml:space="preserve" text-anchor="middle" x="405.35" y="-273.32" font-family="Times,serif" font-size="14.00">r mmod</text>
</a>
</g>
</g>
<!-- r&#45;pegas&#45;&gt;r&#45;mmod -->
<g id="edge35" class="edge">
<title>r&#45;pegas&#45;&gt;r&#45;mmod</title>
<path fill="none" stroke="black" d="M500.2,-334.33C482.95,-324.27 459.83,-310.78 440.74,-299.64"/>
<polygon fill="black" stroke="black" points="442.6,-296.67 432.2,-294.66 439.07,-302.72 442.6,-296.67"/>
</g>
<!-- r&#45;stampp -->
<g id="node41" class="node">
<title>r&#45;stampp</title>
<g id="a_node41"><a xlink:href="https://github.com/conda-forge/r-stampp-feedstock" xlink:title="r stampp">
<ellipse fill="#fde725" stroke="black" cx="555.35" cy="-206" rx="56.47" ry="18"/>
<text xml:space="preserve" text-anchor="middle" x="555.35" y="-201.33" font-family="Times,serif" font-size="14.00">r stampp</text>
</a>
</g>
</g>
<!-- r&#45;pegas&#45;&gt;r&#45;stampp -->
<g id="edge36" class="edge">
<title>r&#45;pegas&#45;&gt;r&#45;stampp</title>
<path fill="none" stroke="black" d="M529.03,-331.59C534.12,-307.5 543.36,-263.75 549.43,-235.03"/>
<polygon fill="black" stroke="black" points="552.78,-236.1 551.43,-225.59 545.93,-234.65 552.78,-236.1"/>
</g>
<!-- r&#45;poppr -->
<g id="node42" class="node">
<title>r&#45;poppr</title>
<g id="a_node42"><a xlink:href="https://github.com/conda-forge/r-poppr-feedstock" xlink:title="r poppr">
<ellipse fill="#fde725" stroke="black" cx="639.35" cy="-134" rx="48.58" ry="18"/>
<text xml:space="preserve" text-anchor="middle" x="639.35" y="-129.32" font-family="Times,serif" font-size="14.00">r poppr</text>
</a>
</g>
</g>
<!-- r&#45;pegas&#45;&gt;r&#45;poppr -->
<g id="edge37" class="edge">
<title>r&#45;pegas&#45;&gt;r&#45;poppr</title>
<path fill="none" stroke="black" d="M541.53,-332.78C562.95,-310.33 600.35,-267.6 620.35,-224 629.12,-204.89 633.91,-181.6 636.48,-163.64"/>
<polygon fill="black" stroke="black" points="639.93,-164.3 637.71,-153.94 632.98,-163.42 639.93,-164.3"/>
</g>
<!-- r&#45;popgenreport -->
<g id="node43" class="node">
<title>r&#45;popgenreport</title>
<g id="a_node43"><a xlink:href="https://github.com/conda-forge/r-popgenreport-feedstock" xlink:title="r popgenreport">
<ellipse fill="#fde725" stroke="black" cx="393.35" cy="-206" rx="87.51" ry="18"/>
<text xml:space="preserve" text-anchor="middle" x="393.35" y="-201.33" font-family="Times,serif" font-size="14.00">r popgenreport</text>
</a>
</g>
</g>
<!-- r&#45;pegas&#45;&gt;r&#45;popgenreport -->
<g id="edge38" class="edge">
<title>r&#45;pegas&#45;&gt;r&#45;popgenreport</title>
<path fill="none" stroke="black" d="M516.02,-332.05C505.15,-313.19 485.89,-282.43 464.35,-260 453.84,-249.06 440.89,-238.68 428.94,-230.06"/>
<polygon fill="black" stroke="black" points="431.08,-227.28 420.88,-224.41 427.06,-233.01 431.08,-227.28"/>
</g>
<!-- r&#45;mmod&#45;&gt;r&#45;popgenreport -->
<g id="edge39" class="edge">
<title>r&#45;mmod&#45;&gt;r&#45;popgenreport</title>
<path fill="none" stroke="black" d="M402.39,-259.7C401.12,-252.32 399.61,-243.52 398.2,-235.25"/>
<polygon fill="black" stroke="black" points="401.68,-234.86 396.54,-225.6 394.78,-236.04 401.68,-234.86"/>
</g>
<!-- r&#45;destinie -->
<g id="node45" class="node">
<title>r&#45;destinie</title>
<g id="a_node45"><a xlink:href="https://github.com/conda-forge/r-destinie-feedstock/pull/9" xlink:title="r destinie ❎">
<ellipse fill="#31688e" stroke="black" cx="1628.35" cy="-1230" rx="74.36" ry="18"/>
<text xml:space="preserve" text-anchor="middle" x="1628.35" y="-1225.33" font-family="Times,serif" font-size="14.00" fill="white">r destinie ❎</text>
</a>
</g>
</g>
<!-- r&#45;phylosignal&#45;&gt;r&#45;destinie -->
<!-- r&#45;adespatial -->
<g id="node54" class="node">
<title>r&#45;adespatial</title>
<g id="a_node54"><a xlink:href="https://github.com/conda-forge/r-adespatial-feedstock" xlink:title="r adespatial">
<ellipse fill="#35b779" stroke="black" cx="1628.35" cy="-1158" rx="70.68" ry="18"/>
<text xml:space="preserve" text-anchor="middle" x="1628.35" y="-1153.33" font-family="Times,serif" font-size="14.00">r adespatial</text>
</a>
</g>
</g>
<!-- r&#45;destinie&#45;&gt;r&#45;adespatial -->
<!-- r&#45;qs -->
<g id="node46" class="node">
<title>r&#45;qs</title>
<g id="a_node46"><a xlink:href="https://github.com/conda-forge/r-qs-feedstock/pull/33" xlink:title="r qs ❎">
<ellipse fill="#31688e" stroke="black" cx="514.35" cy="-826" rx="45.95" ry="18"/>
<text xml:space="preserve" text-anchor="middle" x="514.35" y="-821.33" font-family="Times,serif" font-size="14.00" fill="white">r qs ❎</text>
</a>
</g>
</g>
<!-- r&#45;multidplyr -->
<g id="node47" class="node">
<title>r&#45;multidplyr</title>
<g id="a_node47"><a xlink:href="https://github.com/conda-forge/r-multidplyr-feedstock" xlink:title="r multidplyr">
<ellipse fill="#fde725" stroke="black" cx="658.35" cy="-754" rx="71.73" ry="18"/>
<text xml:space="preserve" text-anchor="middle" x="658.35" y="-749.33" font-family="Times,serif" font-size="14.00">r multidplyr</text>
</a>
</g>
</g>
<!-- r&#45;qs&#45;&gt;r&#45;multidplyr -->
<g id="edge42" class="edge">
<title>r&#45;qs&#45;&gt;r&#45;multidplyr</title>
<path fill="none" stroke="black" d="M542.46,-811.34C563.49,-801.11 592.61,-786.96 616.39,-775.4"/>
<polygon fill="black" stroke="black" points="617.73,-778.64 625.2,-771.12 614.67,-772.34 617.73,-778.64"/>
</g>
<!-- r&#45;rxode2 -->
<g id="node48" class="node">
<title>r&#45;rxode2</title>
<g id="a_node48"><a xlink:href="https://github.com/conda-forge/r-rxode2-feedstock" xlink:title="r rxode2">
<ellipse fill="#fde725" stroke="black" cx="514.35" cy="-754" rx="53.84" ry="18"/>
<text xml:space="preserve" text-anchor="middle" x="514.35" y="-749.33" font-family="Times,serif" font-size="14.00">r rxode2</text>
</a>
</g>
</g>
<!-- r&#45;qs&#45;&gt;r&#45;rxode2 -->
<g id="edge43" class="edge">
<title>r&#45;qs&#45;&gt;r&#45;rxode2</title>
<path fill="none" stroke="black" d="M514.35,-807.7C514.35,-800.41 514.35,-791.73 514.35,-783.54"/>
<polygon fill="black" stroke="black" points="517.85,-783.62 514.35,-773.62 510.85,-783.62 517.85,-783.62"/>
</g>
<!-- r&#45;statcanr -->
<g id="node49" class="node">
<title>r&#45;statcanr</title>
<g id="a_node49"><a xlink:href="https://github.com/conda-forge/r-statcanr-feedstock" xlink:title="r statcanr">
<ellipse fill="#fde725" stroke="black" cx="324.35" cy="-682" rx="60.68" ry="18"/>
<text xml:space="preserve" text-anchor="middle" x="324.35" y="-677.33" font-family="Times,serif" font-size="14.00">r statcanr</text>
</a>
</g>
</g>
<!-- r&#45;qs&#45;&gt;r&#45;statcanr -->
<g id="edge44" class="edge">
<title>r&#45;qs&#45;&gt;r&#45;statcanr</title>
<path fill="none" stroke="black" d="M493.66,-809.53C460.09,-784.45 393.61,-734.76 354.69,-705.68"/>
<polygon fill="black" stroke="black" points="357.21,-703.19 347.11,-700.01 353.02,-708.8 357.21,-703.19"/>
</g>
<!-- r&#45;nlmixr2plot -->
<g id="node50" class="node">
<title>r&#45;nlmixr2plot</title>
<g id="a_node50"><a xlink:href="https://github.com/conda-forge/r-nlmixr2plot-feedstock" xlink:title="r nlmixr2plot">
<ellipse fill="#fde725" stroke="black" cx="564.35" cy="-538" rx="77.52" ry="18"/>
<text xml:space="preserve" text-anchor="middle" x="564.35" y="-533.33" font-family="Times,serif" font-size="14.00">r nlmixr2plot</text>
</a>
</g>
</g>
<!-- r&#45;rxode2&#45;&gt;r&#45;nlmixr2plot -->
<g id="edge45" class="edge">
<title>r&#45;rxode2&#45;&gt;r&#45;nlmixr2plot</title>
<path fill="none" stroke="black" d="M479.45,-739.98C461.96,-731.47 442.4,-718.46 432.35,-700 424.7,-685.95 426.08,-678.72 432.35,-664 451.42,-619.27 495.34,-583.11 527.3,-561.4"/>
<polygon fill="black" stroke="black" points="529.11,-564.4 535.53,-555.97 525.26,-558.55 529.11,-564.4"/>
</g>
<!-- r&#45;nlmixr2 -->
<g id="node51" class="node">
<title>r&#45;nlmixr2</title>
<g id="a_node51"><a xlink:href="https://github.com/conda-forge/r-nlmixr2-feedstock" xlink:title="r nlmixr2">
<ellipse fill="#fde725" stroke="black" cx="617.35" cy="-466" rx="58.05" ry="18"/>
<text xml:space="preserve" text-anchor="middle" x="617.35" y="-461.32" font-family="Times,serif" font-size="14.00">r nlmixr2</text>
</a>
</g>
</g>
<!-- r&#45;rxode2&#45;&gt;r&#45;nlmixr2 -->
<g id="edge46" class="edge">
<title>r&#45;rxode2&#45;&gt;r&#45;nlmixr2</title>
<path fill="none" stroke="black" d="M553.31,-741.14C599.94,-724.5 675.35,-689.19 704.35,-628 728.06,-577.98 679.2,-521.47 645.56,-490.47"/>
<polygon fill="black" stroke="black" points="648.31,-488.23 638.52,-484.17 643.64,-493.45 648.31,-488.23"/>
</g>
<!-- r&#45;nlmixr2extra -->
<g id="node52" class="node">
<title>r&#45;nlmixr2extra</title>
<g id="a_node52"><a xlink:href="https://github.com/conda-forge/r-nlmixr2extra-feedstock" xlink:title="r nlmixr2extra">
<ellipse fill="#fde725" stroke="black" cx="611.35" cy="-610" rx="84.35" ry="18"/>
<text xml:space="preserve" text-anchor="middle" x="611.35" y="-605.33" font-family="Times,serif" font-size="14.00">r nlmixr2extra</text>
</a>
</g>
</g>
<!-- r&#45;rxode2&#45;&gt;r&#45;nlmixr2extra -->
<g id="edge47" class="edge">
<title>r&#45;rxode2&#45;&gt;r&#45;nlmixr2extra</title>
<path fill="none" stroke="black" d="M547.64,-739.47C564.88,-730.75 584.71,-717.7 596.35,-700 608.08,-682.18 611.58,-658.13 612.28,-639.53"/>
<polygon fill="black" stroke="black" points="615.78,-639.76 612.38,-629.72 608.78,-639.69 615.78,-639.76"/>
</g>
<!-- r&#45;nlmixr2est -->
<g id="node53" class="node">
<title>r&#45;nlmixr2est</title>
<g id="a_node53"><a xlink:href="https://github.com/conda-forge/r-nlmixr2est-feedstock" xlink:title="r nlmixr2est">
<ellipse fill="#fde725" stroke="black" cx="514.35" cy="-682" rx="73.3" ry="18"/>
<text xml:space="preserve" text-anchor="middle" x="514.35" y="-677.33" font-family="Times,serif" font-size="14.00">r nlmixr2est</text>
</a>
</g>
</g>
<!-- r&#45;rxode2&#45;&gt;r&#45;nlmixr2est -->
<g id="edge48" class="edge">
<title>r&#45;rxode2&#45;&gt;r&#45;nlmixr2est</title>
<path fill="none" stroke="black" d="M514.35,-735.7C514.35,-728.41 514.35,-719.73 514.35,-711.54"/>
<polygon fill="black" stroke="black" points="517.85,-711.62 514.35,-701.62 510.85,-711.62 517.85,-711.62"/>
</g>
<!-- r&#45;nlmixr2plot&#45;&gt;r&#45;nlmixr2 -->
<g id="edge59" class="edge">
<title>r&#45;nlmixr2plot&#45;&gt;r&#45;nlmixr2</title>
<path fill="none" stroke="black" d="M577.18,-520.05C583.37,-511.89 590.92,-501.91 597.8,-492.82"/>
<polygon fill="black" stroke="black" points="600.48,-495.08 603.73,-485 594.9,-490.86 600.48,-495.08"/>
</g>
<!-- r&#45;nlmixr2extra&#45;&gt;r&#45;nlmixr2plot -->
<g id="edge60" class="edge">
<title>r&#45;nlmixr2extra&#45;&gt;r&#45;nlmixr2plot</title>
<path fill="none" stroke="black" d="M599.73,-591.7C594.44,-583.81 588.06,-574.3 582.18,-565.55"/>
<polygon fill="black" stroke="black" points="585.16,-563.71 576.68,-557.36 579.35,-567.61 585.16,-563.71"/>
</g>
<!-- r&#45;nlmixr2extra&#45;&gt;r&#45;nlmixr2 -->
<g id="edge61" class="edge">
<title>r&#45;nlmixr2extra&#45;&gt;r&#45;nlmixr2</title>
<path fill="none" stroke="black" d="M628.67,-592.07C637.29,-582.41 646.81,-569.55 651.35,-556 656.44,-540.83 655.85,-535.35 651.35,-520 648.6,-510.6 643.61,-501.29 638.28,-493.16"/>
<polygon fill="black" stroke="black" points="641.25,-491.29 632.63,-485.13 635.53,-495.32 641.25,-491.29"/>
</g>
<!-- r&#45;nlmixr2est&#45;&gt;r&#45;nlmixr2plot -->
<g id="edge62" class="edge">
<title>r&#45;nlmixr2est&#45;&gt;r&#45;nlmixr2plot</title>
<path fill="none" stroke="black" d="M511.85,-663.57C509.94,-645.09 509,-615.41 518.35,-592 522.47,-581.7 529.47,-572.02 536.8,-563.82"/>
<polygon fill="black" stroke="black" points="539.29,-566.28 543.69,-556.64 534.24,-561.43 539.29,-566.28"/>
</g>
<!-- r&#45;nlmixr2est&#45;&gt;r&#45;nlmixr2 -->
<g id="edge63" class="edge">
<title>r&#45;nlmixr2est&#45;&gt;r&#45;nlmixr2</title>
<path fill="none" stroke="black" d="M502.39,-663.85C482.14,-632.51 446.22,-565.07 477.35,-520 494.3,-495.46 524.19,-482.27 552.01,-475.19"/>
<polygon fill="black" stroke="black" points="552.51,-478.66 561.47,-473.01 550.94,-471.84 552.51,-478.66"/>
</g>
<!-- r&#45;nlmixr2est&#45;&gt;r&#45;nlmixr2extra -->
<g id="edge64" class="edge">
<title>r&#45;nlmixr2est&#45;&gt;r&#45;nlmixr2extra</title>
<path fill="none" stroke="black" d="M536.85,-664.76C549.4,-655.71 565.25,-644.27 579.1,-634.28"/>
<polygon fill="black" stroke="black" points="581.02,-637.21 587.08,-628.52 576.92,-631.53 581.02,-637.21"/>
</g>
<!-- harp -->
<g id="node55" class="node">
<title>harp</title>
<g id="a_node55"><a xlink:href="https://github.com/conda-forge/harp-feedstock/pull/51" xlink:title="harp ❎">
<ellipse fill="#31688e" stroke="black" cx="1628.35" cy="-1086" rx="49.63" ry="18"/>
<text xml:space="preserve" text-anchor="middle" x="1628.35" y="-1081.33" font-family="Times,serif" font-size="14.00" fill="white">harp ❎</text>
</a>
</g>
</g>
<!-- r&#45;adespatial&#45;&gt;harp -->
<!-- r&#45;juliacall -->
<g id="node56" class="node">
<title>r&#45;juliacall</title>
<g id="a_node56"><a xlink:href="https://github.com/conda-forge/r-juliacall-feedstock/pull/7" xlink:title="r juliacall ❎">
<ellipse fill="#31688e" stroke="black" cx="1628.35" cy="-1014" rx="73.3" ry="18"/>
<text xml:space="preserve" text-anchor="middle" x="1628.35" y="-1009.33" font-family="Times,serif" font-size="14.00" fill="white">r juliacall ❎</text>
</a>
</g>
</g>
<!-- harp&#45;&gt;r&#45;juliacall -->
<!-- rstudio -->
<g id="node57" class="node">
<title>rstudio</title>
<g id="a_node57"><a xlink:href="https://github.com/conda-forge/rstudio-feedstock/pull/45" xlink:title="rstudio ❎">
<ellipse fill="#31688e" stroke="black" cx="1628.35" cy="-942" rx="62.26" ry="18"/>
<text xml:space="preserve" text-anchor="middle" x="1628.35" y="-937.33" font-family="Times,serif" font-size="14.00" fill="white">rstudio ❎</text>
</a>
</g>
</g>
<!-- r&#45;juliacall&#45;&gt;rstudio -->
<!-- r&#45;geoprocessor -->
<g id="node58" class="node">
<title>r&#45;geoprocessor</title>
<g id="a_node58"><a xlink:href="https://github.com/conda-forge/r-geoprocessor-feedstock/pull/9" xlink:title="r geoprocessor ❎">
<ellipse fill="#31688e" stroke="black" cx="1263.35" cy="-278" rx="101.19" ry="18"/>
<text xml:space="preserve" text-anchor="middle" x="1263.35" y="-273.32" font-family="Times,serif" font-size="14.00" fill="white">r geoprocessor ❎</text>
</a>
</g>
</g>
<!-- r&#45;climate4r -->
<g id="node59" class="node">
<title>r&#45;climate4r</title>
<g id="a_node59"><a xlink:href="https://github.com/conda-forge/r-climate4r-feedstock" xlink:title="r climate4r">
<ellipse fill="#fde725" stroke="black" cx="1263.35" cy="-206" rx="66.99" ry="18"/>
<text xml:space="preserve" text-anchor="middle" x="1263.35" y="-201.32" font-family="Times,serif" font-size="14.00">r climate4r</text>
</a>
</g>
</g>
<!-- r&#45;geoprocessor&#45;&gt;r&#45;climate4r -->
<g id="edge54" class="edge">
<title>r&#45;geoprocessor&#45;&gt;r&#45;climate4r</title>
<path fill="none" stroke="black" d="M1263.35,-259.7C1263.35,-252.41 1263.35,-243.73 1263.35,-235.54"/>
<polygon fill="black" stroke="black" points="1266.85,-235.62 1263.35,-225.62 1259.85,-235.62 1266.85,-235.62"/>
</g>
<!-- r&#45;fcps -->
<g id="node60" class="node">
<title>r&#45;fcps</title>
<g id="a_node60"><a xlink:href="https://github.com/conda-forge/r-fcps-feedstock/pull/5" xlink:title="r fcps ❎">
<ellipse fill="#31688e" stroke="black" cx="1628.35" cy="-898" rx="54.89" ry="18"/>
<text xml:space="preserve" text-anchor="middle" x="1628.35" y="-893.33" font-family="Times,serif" font-size="14.00" fill="white">r fcps ❎</text>
</a>
</g>
</g>
<!-- r&#45;evalhyd -->
<g id="node61" class="node">
<title>r&#45;evalhyd</title>
<g id="a_node61"><a xlink:href="https://github.com/conda-forge/r-evalhyd-feedstock/pull/7" xlink:title="r evalhyd ❎">
<ellipse fill="#31688e" stroke="black" cx="1628.35" cy="-826" rx="73.3" ry="18"/>
<text xml:space="preserve" text-anchor="middle" x="1628.35" y="-821.33" font-family="Times,serif" font-size="14.00" fill="white">r evalhyd ❎</text>
</a>
</g>
</g>
<!-- r&#45;fcps&#45;&gt;r&#45;evalhyd -->
<!-- r&#45;qgisprocess -->
<g id="node62" class="node">
<title>r&#45;qgisprocess</title>
<g id="a_node62"><a xlink:href="https://github.com/conda-forge/r-qgisprocess-feedstock/pull/7" xlink:title="r qgisprocess ❎">
<ellipse fill="#31688e" stroke="black" cx="1628.35" cy="-754" rx="93.82" ry="18"/>
<text xml:space="preserve" text-anchor="middle" x="1628.35" y="-749.33" font-family="Times,serif" font-size="14.00" fill="white">r qgisprocess ❎</text>
</a>
</g>
</g>
<!-- r&#45;evalhyd&#45;&gt;r&#45;qgisprocess -->
<!-- r&#45;spam64 -->
<g id="node65" class="node">
<title>r&#45;spam64</title>
<g id="a_node65"><a xlink:href="https://github.com/conda-forge/r-spam64-feedstock/pull/2" xlink:title="r spam64 ❎">
<ellipse fill="#31688e" stroke="black" cx="1628.35" cy="-682" rx="73.83" ry="18"/>
<text xml:space="preserve" text-anchor="middle" x="1628.35" y="-677.33" font-family="Times,serif" font-size="14.00" fill="white">r spam64 ❎</text>
</a>
</g>
</g>
<!-- r&#45;qgisprocess&#45;&gt;r&#45;spam64 -->
<!-- r&#45;greta -->
<g id="node63" class="node">
<title>r&#45;greta</title>
<g id="a_node63"><a xlink:href="https://github.com/conda-forge/r-greta-feedstock/pull/6" xlink:title="r greta ❎">
<ellipse fill="#31688e" stroke="black" cx="496.35" cy="-90" rx="61.2" ry="18"/>
<text xml:space="preserve" text-anchor="middle" x="496.35" y="-85.33" font-family="Times,serif" font-size="14.00" fill="white">r greta ❎</text>
</a>
</g>
</g>
<!-- r&#45;causact -->
<g id="node64" class="node">
<title>r&#45;causact</title>
<g id="a_node64"><a xlink:href="https://github.com/conda-forge/r-causact-feedstock" xlink:title="r causact">
<ellipse fill="#fde725" stroke="black" cx="496.35" cy="-18" rx="57" ry="18"/>
<text xml:space="preserve" text-anchor="middle" x="496.35" y="-13.32" font-family="Times,serif" font-size="14.00">r causact</text>
</a>
</g>
</g>
<!-- r&#45;greta&#45;&gt;r&#45;causact -->
<g id="edge57" class="edge">
<title>r&#45;greta&#45;&gt;r&#45;causact</title>
<path fill="none" stroke="black" d="M496.35,-71.7C496.35,-64.41 496.35,-55.73 496.35,-47.54"/>
<polygon fill="black" stroke="black" points="499.85,-47.62 496.35,-37.62 492.85,-47.62 499.85,-47.62"/>
</g>
<!-- r&#45;bigsnpr -->
<g id="node66" class="node">
<title>r&#45;bigsnpr</title>
<g id="a_node66"><a xlink:href="https://github.com/conda-forge/r-bigsnpr-feedstock/pull/6" xlink:title="r bigsnpr ❎">
<ellipse fill="#31688e" stroke="black" cx="1628.35" cy="-610" rx="72.78" ry="18"/>
<text xml:space="preserve" text-anchor="middle" x="1628.35" y="-605.33" font-family="Times,serif" font-size="14.00" fill="white">r bigsnpr ❎</text>
</a>
</g>
</g>
<!-- r&#45;spam64&#45;&gt;r&#45;bigsnpr -->
<!-- r&#45;volumodel -->
<g id="node67" class="node">
<title>r&#45;volumodel</title>
<g id="a_node67"><a xlink:href="https://github.com/conda-forge/r-volumodel-feedstock/pull/4" xlink:title="r volumodel ❎">
<ellipse fill="#31688e" stroke="black" cx="1628.35" cy="-538" rx="85.93" ry="18"/>
<text xml:space="preserve" text-anchor="middle" x="1628.35" y="-533.33" font-family="Times,serif" font-size="14.00" fill="white">r volumodel ❎</text>
</a>
</g>
</g>
<!-- r&#45;bigsnpr&#45;&gt;r&#45;volumodel -->
<!-- r&#45;qs2 -->
<g id="node68" class="node">
<title>r&#45;qs2</title>
<g id="a_node68"><a xlink:href="https://github.com/conda-forge/r-qs2-feedstock/pull/3" xlink:title="r qs2 ❎">
<ellipse fill="#31688e" stroke="black" cx="1628.35" cy="-466" rx="52.26" ry="18"/>
<text xml:space="preserve" text-anchor="middle" x="1628.35" y="-461.32" font-family="Times,serif" font-size="14.00" fill="white">r qs2 ❎</text>
</a>
</g>
</g>
<!-- r&#45;volumodel&#45;&gt;r&#45;qs2 -->
<!-- r&#45;dmfiller -->
<g id="node69" class="node">
<title>r&#45;dmfiller</title>
<g id="a_node69"><a xlink:href="https://github.com/conda-forge/r-dmfiller-feedstock/pull/2" xlink:title="r dmfiller ❎">
<ellipse fill="#31688e" stroke="black" cx="1628.35" cy="-394" rx="73.3" ry="18"/>
<text xml:space="preserve" text-anchor="middle" x="1628.35" y="-389.32" font-family="Times,serif" font-size="14.00" fill="white">r dmfiller ❎</text>
</a>
</g>
</g>
<!-- r&#45;qs2&#45;&gt;r&#45;dmfiller -->
</g>
</svg>
