<?xml version="1.0" encoding="UTF-8" standalone="no"?>
<!DOCTYPE svg PUBLIC "-//W3C//DTD SVG 1.1//EN"
 "http://www.w3.org/Graphics/SVG/1.1/DTD/svg11.dtd">
<!-- Generated by graphviz version 13.1.2 (20250809.0930)
 -->
<!-- Pages: 1 -->
<svg width="1820pt" height="1572pt"
 viewBox="0.00 0.00 1820.00 1572.00" xmlns="http://www.w3.org/2000/svg" xmlns:xlink="http://www.w3.org/1999/xlink">
<g id="graph0" class="graph" transform="scale(1 1) rotate(0) translate(4 1568)">
<polygon fill="white" stroke="none" points="-4,4 -4,-1568 1816.22,-1568 1816.22,4 -4,4"/>
<!-- r&#45;rstan -->
<g id="node1" class="node">
<title>r&#45;rstan</title>
<g id="a_node1"><a xlink:href="https://github.com/conda-forge/r-rstan-feedstock/pull/40" xlink:title="r rstan ❎">
<ellipse fill="#31688e" stroke="black" cx="624.35" cy="-1366" rx="60.68" ry="18"/>
<text xml:space="preserve" text-anchor="middle" x="624.35" y="-1361.33" font-family="Times,serif" font-size="14.00" fill="white">r rstan ❎</text>
</a>
</g>
</g>
<!-- r&#45;shinystan -->
<g id="node2" class="node">
<title>r&#45;shinystan</title>
<g id="a_node2"><a xlink:href="https://github.com/conda-forge/r-shinystan-feedstock" xlink:title="r shinystan">
<ellipse fill="#fde725" stroke="black" cx="84.35" cy="-1294" rx="67.52" ry="18"/>
<text xml:space="preserve" text-anchor="middle" x="84.35" y="-1289.33" font-family="Times,serif" font-size="14.00">r shinystan</text>
</a>
</g>
</g>
<!-- r&#45;rstan&#45;&gt;r&#45;shinystan -->
<g id="edge1" class="edge">
<title>r&#45;rstan&#45;&gt;r&#45;shinystan</title>
<path fill="none" stroke="black" d="M566.65,-1359.99C479.58,-1352.05 309.58,-1335.09 166.35,-1312 159.67,-1310.92 152.7,-1309.67 145.77,-1308.35"/>
<polygon fill="black" stroke="black" points="146.94,-1305.01 136.45,-1306.52 145.59,-1311.88 146.94,-1305.01"/>
</g>
<!-- r&#45;rstanarm -->
<g id="node3" class="node">
<title>r&#45;rstanarm</title>
<g id="a_node3"><a xlink:href="https://github.com/conda-forge/r-rstanarm-feedstock" xlink:title="r rstanarm">
<ellipse fill="#fde725" stroke="black" cx="84.35" cy="-1222" rx="65.41" ry="18"/>
<text xml:space="preserve" text-anchor="middle" x="84.35" y="-1217.33" font-family="Times,serif" font-size="14.00">r rstanarm</text>
</a>
</g>
</g>
<!-- r&#45;rstan&#45;&gt;r&#45;rstanarm -->
<g id="edge2" class="edge">
<title>r&#45;rstan&#45;&gt;r&#45;rstanarm</title>
<path fill="none" stroke="black" d="M571.02,-1357.03C514.88,-1348.12 424.17,-1332.24 347.35,-1312 270.76,-1291.82 184.14,-1260.88 131.92,-1241.3"/>
<polygon fill="black" stroke="black" points="133.33,-1238.09 122.73,-1237.84 130.86,-1244.64 133.33,-1238.09"/>
</g>
<!-- r&#45;brms -->
<g id="node4" class="node">
<title>r&#45;brms</title>
<g id="a_node4"><a xlink:href="https://github.com/conda-forge/r-brms-feedstock" xlink:title="r brms">
<ellipse fill="#fde725" stroke="black" cx="212.35" cy="-1222" rx="44.9" ry="18"/>
<text xml:space="preserve" text-anchor="middle" x="212.35" y="-1217.33" font-family="Times,serif" font-size="14.00">r brms</text>
</a>
</g>
</g>
<!-- r&#45;rstan&#45;&gt;r&#45;brms -->
<g id="edge3" class="edge">
<title>r&#45;rstan&#45;&gt;r&#45;brms</title>
<path fill="none" stroke="black" d="M581.93,-1352.88C546.55,-1342.58 494.92,-1327.1 450.35,-1312 380.78,-1288.42 301.01,-1257.86 253.75,-1239.37"/>
<polygon fill="black" stroke="black" points="255.32,-1236.23 244.73,-1235.84 252.76,-1242.75 255.32,-1236.23"/>
</g>
<!-- r&#45;prophet -->
<g id="node5" class="node">
<title>r&#45;prophet</title>
<g id="a_node5"><a xlink:href="https://github.com/conda-forge/r-prophet-feedstock" xlink:title="r prophet">
<ellipse fill="#fde725" stroke="black" cx="518.35" cy="-1294" rx="58.57" ry="18"/>
<text xml:space="preserve" text-anchor="middle" x="518.35" y="-1289.33" font-family="Times,serif" font-size="14.00">r prophet</text>
</a>
</g>
</g>
<!-- r&#45;rstan&#45;&gt;r&#45;prophet -->
<g id="edge4" class="edge">
<title>r&#45;rstan&#45;&gt;r&#45;prophet</title>
<path fill="none" stroke="black" d="M600.3,-1349.12C585.93,-1339.63 567.47,-1327.44 551.71,-1317.03"/>
<polygon fill="black" stroke="black" points="553.85,-1314.25 543.57,-1311.66 549.99,-1320.09 553.85,-1314.25"/>
</g>
<!-- r&#45;metabma -->
<g id="node6" class="node">
<title>r&#45;metabma</title>
<g id="a_node6"><a xlink:href="https://github.com/conda-forge/r-metabma-feedstock" xlink:title="r metabma">
<ellipse fill="#fde725" stroke="black" cx="582.35" cy="-1150" rx="65.94" ry="18"/>
<text xml:space="preserve" text-anchor="middle" x="582.35" y="-1145.33" font-family="Times,serif" font-size="14.00">r metabma</text>
</a>
</g>
</g>
<!-- r&#45;rstan&#45;&gt;r&#45;metabma -->
<g id="edge5" class="edge">
<title>r&#45;rstan&#45;&gt;r&#45;metabma</title>
<path fill="none" stroke="black" d="M627.92,-1347.94C633.45,-1317.87 641.72,-1253.89 624.35,-1204 620.87,-1194.01 614.64,-1184.49 608.03,-1176.34"/>
<polygon fill="black" stroke="black" points="610.74,-1174.13 601.52,-1168.91 605.48,-1178.74 610.74,-1174.13"/>
</g>
<!-- r&#45;rlgt -->
<g id="node7" class="node">
<title>r&#45;rlgt</title>
<g id="a_node7"><a xlink:href="https://github.com/conda-forge/r-rlgt-feedstock" xlink:title="r rlgt">
<ellipse fill="#fde725" stroke="black" cx="667.35" cy="-1078" rx="37.53" ry="18"/>
<text xml:space="preserve" text-anchor="middle" x="667.35" y="-1073.33" font-family="Times,serif" font-size="14.00">r rlgt</text>
</a>
</g>
</g>
<!-- r&#45;rstan&#45;&gt;r&#45;rlgt -->
<g id="edge6" class="edge">
<title>r&#45;rstan&#45;&gt;r&#45;rlgt</title>
<path fill="none" stroke="black" d="M633.92,-1347.89C639.11,-1337.77 645.11,-1324.52 648.35,-1312 666.95,-1240.17 668.67,-1152.11 668.14,-1107.63"/>
<polygon fill="black" stroke="black" points="671.64,-1107.74 667.97,-1097.8 664.64,-1107.86 671.64,-1107.74"/>
</g>
<!-- r&#45;bayesforecast -->
<g id="node8" class="node">
<title>r&#45;bayesforecast</title>
<g id="a_node8"><a xlink:href="https://github.com/conda-forge/r-bayesforecast-feedstock" xlink:title="r bayesforecast">
<ellipse fill="#fde725" stroke="black" cx="526.35" cy="-1222" rx="88.56" ry="18"/>
<text xml:space="preserve" text-anchor="middle" x="526.35" y="-1217.33" font-family="Times,serif" font-size="14.00">r bayesforecast</text>
</a>
</g>
</g>
<!-- r&#45;rstan&#45;&gt;r&#45;bayesforecast -->
<g id="edge7" class="edge">
<title>r&#45;rstan&#45;&gt;r&#45;bayesforecast</title>
<path fill="none" stroke="black" d="M619.51,-1347.78C613.68,-1328.95 602.58,-1298.47 586.35,-1276 578.69,-1265.39 568.55,-1255.41 558.78,-1247.04"/>
<polygon fill="black" stroke="black" points="561.12,-1244.43 551.18,-1240.79 556.68,-1249.84 561.12,-1244.43"/>
</g>
<!-- r&#45;jfa -->
<g id="node9" class="node">
<title>r&#45;jfa</title>
<g id="a_node9"><a xlink:href="https://github.com/conda-forge/r-jfa-feedstock" xlink:title="r jfa">
<ellipse fill="#fde725" stroke="black" cx="733.35" cy="-1006" rx="31.74" ry="18"/>
<text xml:space="preserve" text-anchor="middle" x="733.35" y="-1001.33" font-family="Times,serif" font-size="14.00">r jfa</text>
</a>
</g>
</g>
<!-- r&#45;rstan&#45;&gt;r&#45;jfa -->
<g id="edge8" class="edge">
<title>r&#45;rstan&#45;&gt;r&#45;jfa</title>
<path fill="none" stroke="black" d="M648.27,-1349.09C680.36,-1325.63 733.35,-1278.47 733.35,-1223 733.35,-1223 733.35,-1223 733.35,-1149 733.35,-1109.74 733.35,-1064.38 733.35,-1035.69"/>
<polygon fill="black" stroke="black" points="736.85,-1036 733.35,-1026 729.85,-1036 736.85,-1036"/>
</g>
<!-- r&#45;stanova -->
<g id="node10" class="node">
<title>r&#45;stanova</title>
<g id="a_node10"><a xlink:href="https://github.com/conda-forge/r-stanova-feedstock" xlink:title="r stanova">
<ellipse fill="#fde725" stroke="black" cx="819.35" cy="-1294" rx="58.05" ry="18"/>
<text xml:space="preserve" text-anchor="middle" x="819.35" y="-1289.33" font-family="Times,serif" font-size="14.00">r stanova</text>
</a>
</g>
</g>
<!-- r&#45;rstan&#45;&gt;r&#45;stanova -->
<g id="edge9" class="edge">
<title>r&#45;rstan&#45;&gt;r&#45;stanova</title>
<path fill="none" stroke="black" d="M661.95,-1351.5C693.31,-1340.25 738.16,-1324.15 771.97,-1312.01"/>
<polygon fill="black" stroke="black" points="772.88,-1315.4 781.11,-1308.73 770.51,-1308.81 772.88,-1315.4"/>
</g>
<!-- r&#45;densestbayes -->
<g id="node11" class="node">
<title>r&#45;densestbayes</title>
<g id="a_node11"><a xlink:href="https://github.com/conda-forge/r-densestbayes-feedstock" xlink:title="r densestbayes">
<ellipse fill="#fde725" stroke="black" cx="905.35" cy="-1222" rx="86.98" ry="18"/>
<text xml:space="preserve" text-anchor="middle" x="905.35" y="-1217.33" font-family="Times,serif" font-size="14.00">r densestbayes</text>
</a>
</g>
</g>
<!-- r&#45;rstan&#45;&gt;r&#45;densestbayes -->
<g id="edge10" class="edge">
<title>r&#45;rstan&#45;&gt;r&#45;densestbayes</title>
<path fill="none" stroke="black" d="M682.79,-1360.55C751.04,-1354.14 858.19,-1339.87 886.35,-1312 902.07,-1296.45 906.28,-1271.3 906.87,-1251.7"/>
<polygon fill="black" stroke="black" points="910.37,-1251.85 906.84,-1241.86 903.37,-1251.87 910.37,-1251.85"/>
</g>
<!-- r&#45;shinystan&#45;&gt;r&#45;rstanarm -->
<g id="edge11" class="edge">
<title>r&#45;shinystan&#45;&gt;r&#45;rstanarm</title>
<path fill="none" stroke="black" d="M84.35,-1275.7C84.35,-1268.41 84.35,-1259.73 84.35,-1251.54"/>
<polygon fill="black" stroke="black" points="87.85,-1251.62 84.35,-1241.62 80.85,-1251.62 87.85,-1251.62"/>
</g>
<!-- r&#45;tidyposterior -->
<g id="node12" class="node">
<title>r&#45;tidyposterior</title>
<g id="a_node12"><a xlink:href="https://github.com/conda-forge/r-tidyposterior-feedstock" xlink:title="r tidyposterior">
<ellipse fill="#fde725" stroke="black" cx="84.35" cy="-1150" rx="84.35" ry="18"/>
<text xml:space="preserve" text-anchor="middle" x="84.35" y="-1145.33" font-family="Times,serif" font-size="14.00">r tidyposterior</text>
</a>
</g>
</g>
<!-- r&#45;rstanarm&#45;&gt;r&#45;tidyposterior -->
<g id="edge12" class="edge">
<title>r&#45;rstanarm&#45;&gt;r&#45;tidyposterior</title>
<path fill="none" stroke="black" d="M84.35,-1203.7C84.35,-1196.41 84.35,-1187.73 84.35,-1179.54"/>
<polygon fill="black" stroke="black" points="87.85,-1179.62 84.35,-1169.62 80.85,-1179.62 87.85,-1179.62"/>
</g>
<!-- r&#45;prophet&#45;&gt;r&#45;bayesforecast -->
<g id="edge13" class="edge">
<title>r&#45;prophet&#45;&gt;r&#45;bayesforecast</title>
<path fill="none" stroke="black" d="M520.33,-1275.7C521.16,-1268.41 522.16,-1259.73 523.09,-1251.54"/>
<polygon fill="black" stroke="black" points="526.57,-1251.94 524.23,-1241.61 519.61,-1251.15 526.57,-1251.94"/>
</g>
<!-- r&#45;modeltime -->
<g id="node13" class="node">
<title>r&#45;modeltime</title>
<g id="a_node13"><a xlink:href="https://github.com/conda-forge/r-modeltime-feedstock" xlink:title="r modeltime">
<ellipse fill="#fde725" stroke="black" cx="347.35" cy="-1222" rx="72.25" ry="18"/>
<text xml:space="preserve" text-anchor="middle" x="347.35" y="-1217.33" font-family="Times,serif" font-size="14.00">r modeltime</text>
</a>
</g>
</g>
<!-- r&#45;prophet&#45;&gt;r&#45;modeltime -->
<g id="edge14" class="edge">
<title>r&#45;prophet&#45;&gt;r&#45;modeltime</title>
<path fill="none" stroke="black" d="M484.16,-1279C458.41,-1268.46 422.79,-1253.88 394.36,-1242.24"/>
<polygon fill="black" stroke="black" points="395.83,-1239.06 385.25,-1238.51 393.18,-1245.54 395.83,-1239.06"/>
</g>
<!-- r&#45;tidybf -->
<g id="node14" class="node">
<title>r&#45;tidybf</title>
<g id="a_node14"><a xlink:href="https://github.com/conda-forge/r-tidybf-feedstock" xlink:title="r tidybf">
<ellipse fill="#fde725" stroke="black" cx="563.35" cy="-1078" rx="48.58" ry="18"/>
<text xml:space="preserve" text-anchor="middle" x="563.35" y="-1073.33" font-family="Times,serif" font-size="14.00">r tidybf</text>
</a>
</g>
</g>
<!-- r&#45;metabma&#45;&gt;r&#45;tidybf -->
<g id="edge15" class="edge">
<title>r&#45;metabma&#45;&gt;r&#45;tidybf</title>
<path fill="none" stroke="black" d="M577.66,-1131.7C575.63,-1124.24 573.21,-1115.32 570.94,-1106.97"/>
<polygon fill="black" stroke="black" points="574.39,-1106.3 568.39,-1097.57 567.63,-1108.13 574.39,-1106.3"/>
</g>
<!-- r&#45;reldist -->
<g id="node15" class="node">
<title>r&#45;reldist</title>
<g id="a_node15"><a xlink:href="https://github.com/conda-forge/r-reldist-feedstock" xlink:title="r reldist">
<ellipse fill="#fde725" stroke="black" cx="905.35" cy="-1150" rx="51.74" ry="18"/>
<text xml:space="preserve" text-anchor="middle" x="905.35" y="-1145.33" font-family="Times,serif" font-size="14.00">r reldist</text>
</a>
</g>
</g>
<!-- r&#45;densestbayes&#45;&gt;r&#45;reldist -->
<g id="edge16" class="edge">
<title>r&#45;densestbayes&#45;&gt;r&#45;reldist</title>
<path fill="none" stroke="black" d="M905.35,-1203.7C905.35,-1196.41 905.35,-1187.73 905.35,-1179.54"/>
<polygon fill="black" stroke="black" points="908.85,-1179.62 905.35,-1169.62 901.85,-1179.62 908.85,-1179.62"/>
</g>
<!-- r&#45;modeltime.resample -->
<g id="node31" class="node">
<title>r&#45;modeltime.resample</title>
<g id="a_node31"><a xlink:href="https://github.com/conda-forge/r-modeltime.resample-feedstock" xlink:title="r modeltime resample">
<ellipse fill="#fde725" stroke="black" cx="321.35" cy="-1150" rx="121.71" ry="18"/>
<text xml:space="preserve" text-anchor="middle" x="321.35" y="-1145.33" font-family="Times,serif" font-size="14.00">r modeltime resample</text>
</a>
</g>
</g>
<!-- r&#45;modeltime&#45;&gt;r&#45;modeltime.resample -->
<g id="edge28" class="edge">
<title>r&#45;modeltime&#45;&gt;r&#45;modeltime.resample</title>
<path fill="none" stroke="black" d="M340.93,-1203.7C338.12,-1196.15 334.77,-1187.12 331.63,-1178.68"/>
<polygon fill="black" stroke="black" points="335,-1177.68 328.23,-1169.52 328.43,-1180.12 335,-1177.68"/>
</g>
<!-- r&#45;modeltime.ensemble -->
<g id="node32" class="node">
<title>r&#45;modeltime.ensemble</title>
<g id="a_node32"><a xlink:href="https://github.com/conda-forge/r-modeltime.ensemble-feedstock" xlink:title="r modeltime ensemble">
<ellipse fill="#fde725" stroke="black" cx="351.35" cy="-1078" rx="123.29" ry="18"/>
<text xml:space="preserve" text-anchor="middle" x="351.35" y="-1073.33" font-family="Times,serif" font-size="14.00">r modeltime ensemble</text>
</a>
</g>
</g>
<!-- r&#45;modeltime&#45;&gt;r&#45;modeltime.ensemble -->
<g id="edge29" class="edge">
<title>r&#45;modeltime&#45;&gt;r&#45;modeltime.ensemble</title>
<path fill="none" stroke="black" d="M396.9,-1208.57C417.8,-1200.61 440.1,-1187.91 452.35,-1168 460.74,-1154.37 460.63,-1145.69 452.35,-1132 443.82,-1117.89 430.15,-1107.35 415.59,-1099.55"/>
<polygon fill="black" stroke="black" points="417.3,-1096.49 406.78,-1095.24 414.23,-1102.78 417.3,-1096.49"/>
</g>
<!-- r&#45;svd -->
<g id="node16" class="node">
<title>r&#45;svd</title>
<g id="a_node16"><a xlink:href="https://github.com/conda-forge/r-svd-feedstock/pull/24" xlink:title="r svd ❎">
<ellipse fill="#31688e" stroke="black" cx="1549.35" cy="-90" rx="51.74" ry="18"/>
<text xml:space="preserve" text-anchor="middle" x="1549.35" y="-85.33" font-family="Times,serif" font-size="14.00" fill="white">r svd ❎</text>
</a>
</g>
</g>
<!-- r&#45;esabcv -->
<g id="node17" class="node">
<title>r&#45;esabcv</title>
<g id="a_node17"><a xlink:href="https://github.com/conda-forge/r-esabcv-feedstock" xlink:title="r esabcv">
<ellipse fill="#fde725" stroke="black" cx="1549.35" cy="-18" rx="53.31" ry="18"/>
<text xml:space="preserve" text-anchor="middle" x="1549.35" y="-13.32" font-family="Times,serif" font-size="14.00">r esabcv</text>
</a>
</g>
</g>
<!-- r&#45;svd&#45;&gt;r&#45;esabcv -->
<g id="edge17" class="edge">
<title>r&#45;svd&#45;&gt;r&#45;esabcv</title>
<path fill="none" stroke="black" d="M1549.35,-71.7C1549.35,-64.41 1549.35,-55.73 1549.35,-47.54"/>
<polygon fill="black" stroke="black" points="1552.85,-47.62 1549.35,-37.62 1545.85,-47.62 1552.85,-47.62"/>
</g>
<!-- rpy2 -->
<g id="node18" class="node">
<title>rpy2</title>
<g id="a_node18"><a xlink:href="https://github.com/conda-forge/rpy2-feedstock/pull/140" xlink:title="rpy2 ❎">
<ellipse fill="#31688e" stroke="black" cx="1139.35" cy="-1546" rx="49.63" ry="18"/>
<text xml:space="preserve" text-anchor="middle" x="1139.35" y="-1541.33" font-family="Times,serif" font-size="14.00" fill="white">rpy2 ❎</text>
</a>
</g>
</g>
<!-- r&#45;smoothwin -->
<g id="node19" class="node">
<title>r&#45;smoothwin</title>
<g id="a_node19"><a xlink:href="https://github.com/conda-forge/r-smoothwin-feedstock/pull/9" xlink:title="r smoothwin ❎">
<ellipse fill="#31688e" stroke="black" cx="1139.35" cy="-1474" rx="89.09" ry="18"/>
<text xml:space="preserve" text-anchor="middle" x="1139.35" y="-1469.33" font-family="Times,serif" font-size="14.00" fill="white">r smoothwin ❎</text>
</a>
</g>
</g>
<!-- rpy2&#45;&gt;r&#45;smoothwin -->
<!-- r&#45;xtensor -->
<g id="node28" class="node">
<title>r&#45;xtensor</title>
<g id="a_node28"><a xlink:href="https://github.com/conda-forge/r-xtensor-feedstock/pull/26" xlink:title="r xtensor ❎">
<ellipse fill="#31688e" stroke="black" cx="1139.35" cy="-1402" rx="72.25" ry="18"/>
<text xml:space="preserve" text-anchor="middle" x="1139.35" y="-1397.33" font-family="Times,serif" font-size="14.00" fill="white">r xtensor ❎</text>
</a>
</g>
</g>
<!-- r&#45;smoothwin&#45;&gt;r&#45;xtensor -->
<!-- r&#45;geigen -->
<g id="node20" class="node">
<title>r&#45;geigen</title>
<g id="a_node20"><a xlink:href="https://github.com/conda-forge/r-geigen-feedstock/pull/14" xlink:title="r geigen ❎">
<ellipse fill="#31688e" stroke="black" cx="496.35" cy="-90" rx="68.04" ry="18"/>
<text xml:space="preserve" text-anchor="middle" x="496.35" y="-85.33" font-family="Times,serif" font-size="14.00" fill="white">r geigen ❎</text>
</a>
</g>
</g>
<!-- r&#45;conicfit -->
<g id="node21" class="node">
<title>r&#45;conicfit</title>
<g id="a_node21"><a xlink:href="https://github.com/conda-forge/r-conicfit-feedstock" xlink:title="r conicfit">
<ellipse fill="#fde725" stroke="black" cx="496.35" cy="-18" rx="55.42" ry="18"/>
<text xml:space="preserve" text-anchor="middle" x="496.35" y="-13.32" font-family="Times,serif" font-size="14.00">r conicfit</text>
</a>
</g>
</g>
<!-- r&#45;geigen&#45;&gt;r&#45;conicfit -->
<g id="edge19" class="edge">
<title>r&#45;geigen&#45;&gt;r&#45;conicfit</title>
<path fill="none" stroke="black" d="M496.35,-71.7C496.35,-64.41 496.35,-55.73 496.35,-47.54"/>
<polygon fill="black" stroke="black" points="499.85,-47.62 496.35,-37.62 492.85,-47.62 499.85,-47.62"/>
</g>
<!-- r&#45;quanteda -->
<g id="node22" class="node">
<title>r&#45;quanteda</title>
<g id="a_node22"><a xlink:href="https://github.com/conda-forge/r-quanteda-feedstock/pull/44" xlink:title="r quanteda ❎">
<ellipse fill="#31688e" stroke="black" cx="1455.35" cy="-1366" rx="81.2" ry="18"/>
<text xml:space="preserve" text-anchor="middle" x="1455.35" y="-1361.33" font-family="Times,serif" font-size="14.00" fill="white">r quanteda ❎</text>
</a>
</g>
</g>
<!-- r&#45;stm -->
<g id="node23" class="node">
<title>r&#45;stm</title>
<g id="a_node23"><a xlink:href="https://github.com/conda-forge/r-stm-feedstock" xlink:title="r stm">
<ellipse fill="#fde725" stroke="black" cx="1324.35" cy="-1294" rx="38.06" ry="18"/>
<text xml:space="preserve" text-anchor="middle" x="1324.35" y="-1289.33" font-family="Times,serif" font-size="14.00">r stm</text>
</a>
</g>
</g>
<!-- r&#45;quanteda&#45;&gt;r&#45;stm -->
<g id="edge20" class="edge">
<title>r&#45;quanteda&#45;&gt;r&#45;stm</title>
<path fill="none" stroke="black" d="M1425.3,-1348.94C1405.52,-1338.37 1379.58,-1324.51 1358.95,-1313.49"/>
<polygon fill="black" stroke="black" points="1360.81,-1310.51 1350.34,-1308.88 1357.51,-1316.68 1360.81,-1310.51"/>
</g>
<!-- r&#45;textstem -->
<g id="node24" class="node">
<title>r&#45;textstem</title>
<g id="a_node24"><a xlink:href="https://github.com/conda-forge/r-textstem-feedstock" xlink:title="r textstem">
<ellipse fill="#fde725" stroke="black" cx="1363.35" cy="-1222" rx="63.84" ry="18"/>
<text xml:space="preserve" text-anchor="middle" x="1363.35" y="-1217.33" font-family="Times,serif" font-size="14.00">r textstem</text>
</a>
</g>
</g>
<!-- r&#45;quanteda&#45;&gt;r&#45;textstem -->
<g id="edge21" class="edge">
<title>r&#45;quanteda&#45;&gt;r&#45;textstem</title>
<path fill="none" stroke="black" d="M1444.26,-1347.87C1428.44,-1323.46 1399.26,-1278.43 1380.61,-1249.64"/>
<polygon fill="black" stroke="black" points="1383.69,-1247.95 1375.31,-1241.46 1377.81,-1251.76 1383.69,-1247.95"/>
</g>
<!-- r&#45;quanteda.textplots -->
<g id="node25" class="node">
<title>r&#45;quanteda.textplots</title>
<g id="a_node25"><a xlink:href="https://github.com/conda-forge/r-quanteda.textplots-feedstock" xlink:title="r quanteda textplots">
<ellipse fill="#fde725" stroke="black" cx="1403.35" cy="-1150" rx="113.82" ry="18"/>
<text xml:space="preserve" text-anchor="middle" x="1403.35" y="-1145.33" font-family="Times,serif" font-size="14.00">r quanteda textplots</text>
</a>
</g>
</g>
<!-- r&#45;quanteda&#45;&gt;r&#45;quanteda.textplots -->
<g id="edge22" class="edge">
<title>r&#45;quanteda&#45;&gt;r&#45;quanteda.textplots</title>
<path fill="none" stroke="black" d="M1455.75,-1347.53C1455.9,-1317.36 1453.86,-1253.93 1436.35,-1204 1433.14,-1194.84 1428.14,-1185.6 1422.99,-1177.46"/>
<polygon fill="black" stroke="black" points="1426.06,-1175.76 1417.59,-1169.41 1420.25,-1179.66 1426.06,-1175.76"/>
</g>
<!-- r&#45;quanteda.textstats -->
<g id="node26" class="node">
<title>r&#45;quanteda.textstats</title>
<g id="a_node26"><a xlink:href="https://github.com/conda-forge/r-quanteda.textstats-feedstock" xlink:title="r quanteda textstats">
<ellipse fill="#fde725" stroke="black" cx="1545.35" cy="-1078" rx="113.82" ry="18"/>
<text xml:space="preserve" text-anchor="middle" x="1545.35" y="-1073.33" font-family="Times,serif" font-size="14.00">r quanteda textstats</text>
</a>
</g>
</g>
<!-- r&#45;quanteda&#45;&gt;r&#45;quanteda.textstats -->
<g id="edge23" class="edge">
<title>r&#45;quanteda&#45;&gt;r&#45;quanteda.textstats</title>
<path fill="none" stroke="black" d="M1462.53,-1347.6C1476.36,-1313.58 1507.04,-1235.64 1526.35,-1168 1532.06,-1148 1536.92,-1125.04 1540.3,-1107.45"/>
<polygon fill="black" stroke="black" points="1543.72,-1108.19 1542.11,-1097.72 1536.84,-1106.91 1543.72,-1108.19"/>
</g>
<!-- r&#45;quanteda.textmodels -->
<g id="node27" class="node">
<title>r&#45;quanteda.textmodels</title>
<g id="a_node27"><a xlink:href="https://github.com/conda-forge/r-quanteda.textmodels-feedstock" xlink:title="r quanteda textmodels">
<ellipse fill="#fde725" stroke="black" cx="1687.35" cy="-1006" rx="124.86" ry="18"/>
<text xml:space="preserve" text-anchor="middle" x="1687.35" y="-1001.33" font-family="Times,serif" font-size="14.00">r quanteda textmodels</text>
</a>
</g>
</g>
<!-- r&#45;quanteda&#45;&gt;r&#45;quanteda.textmodels -->
<g id="edge24" class="edge">
<title>r&#45;quanteda&#45;&gt;r&#45;quanteda.textmodels</title>
<path fill="none" stroke="black" d="M1518.44,-1354.39C1587.14,-1338.81 1687.35,-1302.45 1687.35,-1223 1687.35,-1223 1687.35,-1223 1687.35,-1149 1687.35,-1109.74 1687.35,-1064.38 1687.35,-1035.69"/>
<polygon fill="black" stroke="black" points="1690.85,-1036 1687.35,-1026 1683.85,-1036 1690.85,-1036"/>
</g>
<!-- r&#45;rinside -->
<g id="node29" class="node">
<title>r&#45;rinside</title>
<g id="a_node29"><a xlink:href="https://github.com/conda-forge/r-rinside-feedstock/pull/14" xlink:title="r rinside ❎">
<ellipse fill="#31688e" stroke="black" cx="1139.35" cy="-1330" rx="69.1" ry="18"/>
<text xml:space="preserve" text-anchor="middle" x="1139.35" y="-1325.33" font-family="Times,serif" font-size="14.00" fill="white">r rinside ❎</text>
</a>
</g>
</g>
<!-- r&#45;xtensor&#45;&gt;r&#45;rinside -->
<!-- yggdrasil -->
<g id="node30" class="node">
<title>yggdrasil</title>
<g id="a_node30"><a xlink:href="https://github.com/conda-forge/yggdrasil-feedstock/pull/50" xlink:title="yggdrasil ❎">
<ellipse fill="#31688e" stroke="black" cx="1139.35" cy="-1258" rx="73.3" ry="18"/>
<text xml:space="preserve" text-anchor="middle" x="1139.35" y="-1253.33" font-family="Times,serif" font-size="14.00" fill="white">yggdrasil ❎</text>
</a>
</g>
</g>
<!-- r&#45;rinside&#45;&gt;yggdrasil -->
<!-- r&#45;vsurf -->
<g id="node33" class="node">
<title>r&#45;vsurf</title>
<g id="a_node33"><a xlink:href="https://github.com/conda-forge/r-vsurf-feedstock/pull/7" xlink:title="r vsurf ✓">
<ellipse fill="#31688e" stroke="black" cx="1139.35" cy="-1186" rx="52.79" ry="18"/>
<text xml:space="preserve" text-anchor="middle" x="1139.35" y="-1181.33" font-family="Times,serif" font-size="14.00" fill="white">r vsurf ✓</text>
</a>
</g>
</g>
<!-- yggdrasil&#45;&gt;r&#45;vsurf -->
<!-- r&#45;modeltime.resample&#45;&gt;r&#45;modeltime.ensemble -->
<g id="edge34" class="edge">
<title>r&#45;modeltime.resample&#45;&gt;r&#45;modeltime.ensemble</title>
<path fill="none" stroke="black" d="M328.77,-1131.7C332,-1124.15 335.87,-1115.12 339.49,-1106.68"/>
<polygon fill="black" stroke="black" points="342.7,-1108.07 343.43,-1097.5 336.27,-1105.31 342.7,-1108.07"/>
</g>
<!-- r&#45;metaplus -->
<g id="node34" class="node">
<title>r&#45;metaplus</title>
<g id="a_node34"><a xlink:href="https://github.com/conda-forge/r-metaplus-feedstock/pull/11" xlink:title="r metaplus ❎">
<ellipse fill="#31688e" stroke="black" cx="1139.35" cy="-1114" rx="80.67" ry="18"/>
<text xml:space="preserve" text-anchor="middle" x="1139.35" y="-1109.33" font-family="Times,serif" font-size="14.00" fill="white">r metaplus ❎</text>
</a>
</g>
</g>
<!-- r&#45;vsurf&#45;&gt;r&#45;metaplus -->
<!-- r&#45;destinie -->
<g id="node35" class="node">
<title>r&#45;destinie</title>
<g id="a_node35"><a xlink:href="https://github.com/conda-forge/r-destinie-feedstock/pull/9" xlink:title="r destinie ❎">
<ellipse fill="#31688e" stroke="black" cx="1139.35" cy="-1042" rx="74.36" ry="18"/>
<text xml:space="preserve" text-anchor="middle" x="1139.35" y="-1037.33" font-family="Times,serif" font-size="14.00" fill="white">r destinie ❎</text>
</a>
</g>
</g>
<!-- r&#45;metaplus&#45;&gt;r&#45;destinie -->
<!-- r&#45;wto -->
<g id="node36" class="node">
<title>r&#45;wto</title>
<g id="a_node36"><a xlink:href="https://github.com/conda-forge/r-wto-feedstock/pull/8" xlink:title="r wto ❎">
<ellipse fill="#31688e" stroke="black" cx="1139.35" cy="-970" rx="52.79" ry="18"/>
<text xml:space="preserve" text-anchor="middle" x="1139.35" y="-965.33" font-family="Times,serif" font-size="14.00" fill="white">r wto ❎</text>
</a>
</g>
</g>
<!-- r&#45;destinie&#45;&gt;r&#45;wto -->
<!-- harp -->
<g id="node37" class="node">
<title>harp</title>
<g id="a_node37"><a xlink:href="https://github.com/conda-forge/harp-feedstock/pull/51" xlink:title="harp ❎">
<ellipse fill="#31688e" stroke="black" cx="1139.35" cy="-898" rx="49.63" ry="18"/>
<text xml:space="preserve" text-anchor="middle" x="1139.35" y="-893.33" font-family="Times,serif" font-size="14.00" fill="white">harp ❎</text>
</a>
</g>
</g>
<!-- r&#45;wto&#45;&gt;harp -->
<!-- r&#45;juliacall -->
<g id="node38" class="node">
<title>r&#45;juliacall</title>
<g id="a_node38"><a xlink:href="https://github.com/conda-forge/r-juliacall-feedstock/pull/7" xlink:title="r juliacall ❎">
<ellipse fill="#31688e" stroke="black" cx="1139.35" cy="-826" rx="73.3" ry="18"/>
<text xml:space="preserve" text-anchor="middle" x="1139.35" y="-821.33" font-family="Times,serif" font-size="14.00" fill="white">r juliacall ❎</text>
</a>
</g>
</g>
<!-- harp&#45;&gt;r&#45;juliacall -->
<!-- rstudio -->
<g id="node39" class="node">
<title>rstudio</title>
<g id="a_node39"><a xlink:href="https://github.com/conda-forge/rstudio-feedstock/pull/45" xlink:title="rstudio ❎">
<ellipse fill="#31688e" stroke="black" cx="496.35" cy="-782" rx="62.26" ry="18"/>
<text xml:space="preserve" text-anchor="middle" x="496.35" y="-777.33" font-family="Times,serif" font-size="14.00" fill="white">rstudio ❎</text>
</a>
</g>
</g>
<!-- r&#45;fcps -->
<g id="node40" class="node">
<title>r&#45;fcps</title>
<g id="a_node40"><a xlink:href="https://github.com/conda-forge/r-fcps-feedstock/pull/5" xlink:title="r fcps ❎">
<ellipse fill="#31688e" stroke="black" cx="496.35" cy="-710" rx="54.89" ry="18"/>
<text xml:space="preserve" text-anchor="middle" x="496.35" y="-705.33" font-family="Times,serif" font-size="14.00" fill="white">r fcps ❎</text>
</a>
</g>
</g>
<!-- rstudio&#45;&gt;r&#45;fcps -->
<!-- r&#45;evalhyd -->
<g id="node43" class="node">
<title>r&#45;evalhyd</title>
<g id="a_node43"><a xlink:href="https://github.com/conda-forge/r-evalhyd-feedstock/pull/7" xlink:title="r evalhyd ❎">
<ellipse fill="#31688e" stroke="black" cx="496.35" cy="-638" rx="73.3" ry="18"/>
<text xml:space="preserve" text-anchor="middle" x="496.35" y="-633.33" font-family="Times,serif" font-size="14.00" fill="white">r evalhyd ❎</text>
</a>
</g>
</g>
<!-- r&#45;fcps&#45;&gt;r&#45;evalhyd -->
<!-- r&#45;geoprocessor -->
<g id="node41" class="node">
<title>r&#45;geoprocessor</title>
<g id="a_node41"><a xlink:href="https://github.com/conda-forge/r-geoprocessor-feedstock/pull/9" xlink:title="r geoprocessor ❎">
<ellipse fill="#31688e" stroke="black" cx="1549.35" cy="-494" rx="101.19" ry="18"/>
<text xml:space="preserve" text-anchor="middle" x="1549.35" y="-489.32" font-family="Times,serif" font-size="14.00" fill="white">r geoprocessor ❎</text>
</a>
</g>
</g>
<!-- r&#45;climate4r -->
<g id="node42" class="node">
<title>r&#45;climate4r</title>
<g id="a_node42"><a xlink:href="https://github.com/conda-forge/r-climate4r-feedstock" xlink:title="r climate4r">
<ellipse fill="#fde725" stroke="black" cx="1549.35" cy="-422" rx="66.99" ry="18"/>
<text xml:space="preserve" text-anchor="middle" x="1549.35" y="-417.32" font-family="Times,serif" font-size="14.00">r climate4r</text>
</a>
</g>
</g>
<!-- r&#45;geoprocessor&#45;&gt;r&#45;climate4r -->
<g id="edge38" class="edge">
<title>r&#45;geoprocessor&#45;&gt;r&#45;climate4r</title>
<path fill="none" stroke="black" d="M1549.35,-475.7C1549.35,-468.41 1549.35,-459.73 1549.35,-451.54"/>
<polygon fill="black" stroke="black" points="1552.85,-451.62 1549.35,-441.62 1545.85,-451.62 1552.85,-451.62"/>
</g>
<!-- r&#45;qgisprocess -->
<g id="node44" class="node">
<title>r&#45;qgisprocess</title>
<g id="a_node44"><a xlink:href="https://github.com/conda-forge/r-qgisprocess-feedstock/pull/7" xlink:title="r qgisprocess ❎">
<ellipse fill="#31688e" stroke="black" cx="496.35" cy="-566" rx="93.82" ry="18"/>
<text xml:space="preserve" text-anchor="middle" x="496.35" y="-561.33" font-family="Times,serif" font-size="14.00" fill="white">r qgisprocess ❎</text>
</a>
</g>
</g>
<!-- r&#45;evalhyd&#45;&gt;r&#45;qgisprocess -->
<!-- r&#45;spam64 -->
<g id="node47" class="node">
<title>r&#45;spam64</title>
<g id="a_node47"><a xlink:href="https://github.com/conda-forge/r-spam64-feedstock/pull/2" xlink:title="r spam64 ❎">
<ellipse fill="#31688e" stroke="black" cx="496.35" cy="-494" rx="73.83" ry="18"/>
<text xml:space="preserve" text-anchor="middle" x="496.35" y="-489.32" font-family="Times,serif" font-size="14.00" fill="white">r spam64 ❎</text>
</a>
</g>
</g>
<!-- r&#45;qgisprocess&#45;&gt;r&#45;spam64 -->
<!-- r&#45;greta -->
<g id="node45" class="node">
<title>r&#45;greta</title>
<g id="a_node45"><a xlink:href="https://github.com/conda-forge/r-greta-feedstock/pull/6" xlink:title="r greta ❎">
<ellipse fill="#31688e" stroke="black" cx="1139.35" cy="-90" rx="61.2" ry="18"/>
<text xml:space="preserve" text-anchor="middle" x="1139.35" y="-85.33" font-family="Times,serif" font-size="14.00" fill="white">r greta ❎</text>
</a>
</g>
</g>
<!-- r&#45;causact -->
<g id="node46" class="node">
<title>r&#45;causact</title>
<g id="a_node46"><a xlink:href="https://github.com/conda-forge/r-causact-feedstock" xlink:title="r causact">
<ellipse fill="#fde725" stroke="black" cx="1139.35" cy="-18" rx="57" ry="18"/>
<text xml:space="preserve" text-anchor="middle" x="1139.35" y="-13.32" font-family="Times,serif" font-size="14.00">r causact</text>
</a>
</g>
</g>
<!-- r&#45;greta&#45;&gt;r&#45;causact -->
<g id="edge41" class="edge">
<title>r&#45;greta&#45;&gt;r&#45;causact</title>
<path fill="none" stroke="black" d="M1139.35,-71.7C1139.35,-64.41 1139.35,-55.73 1139.35,-47.54"/>
<polygon fill="black" stroke="black" points="1142.85,-47.62 1139.35,-37.62 1135.85,-47.62 1142.85,-47.62"/>
</g>
<!-- r&#45;bigsnpr -->
<g id="node48" class="node">
<title>r&#45;bigsnpr</title>
<g id="a_node48"><a xlink:href="https://github.com/conda-forge/r-bigsnpr-feedstock/pull/6" xlink:title="r bigsnpr ❎">
<ellipse fill="#31688e" stroke="black" cx="496.35" cy="-422" rx="72.78" ry="18"/>
<text xml:space="preserve" text-anchor="middle" x="496.35" y="-417.32" font-family="Times,serif" font-size="14.00" fill="white">r bigsnpr ❎</text>
</a>
</g>
</g>
<!-- r&#45;spam64&#45;&gt;r&#45;bigsnpr -->
<!-- r&#45;volumodel -->
<g id="node49" class="node">
<title>r&#45;volumodel</title>
<g id="a_node49"><a xlink:href="https://github.com/conda-forge/r-volumodel-feedstock/pull/4" xlink:title="r volumodel ❎">
<ellipse fill="#31688e" stroke="black" cx="496.35" cy="-350" rx="85.93" ry="18"/>
<text xml:space="preserve" text-anchor="middle" x="496.35" y="-345.32" font-family="Times,serif" font-size="14.00" fill="white">r volumodel ❎</text>
</a>
</g>
</g>
<!-- r&#45;bigsnpr&#45;&gt;r&#45;volumodel -->
<!-- r&#45;smartsnp -->
<g id="node54" class="node">
<title>r&#45;smartsnp</title>
<g id="a_node54"><a xlink:href="https://github.com/conda-forge/r-smartsnp-feedstock/pull/3" xlink:title="r smartsnp ❎">
<ellipse fill="#31688e" stroke="black" cx="496.35" cy="-278" rx="81.72" ry="18"/>
<text xml:space="preserve" text-anchor="middle" x="496.35" y="-273.32" font-family="Times,serif" font-size="14.00" fill="white">r smartsnp ❎</text>
</a>
</g>
</g>
<!-- r&#45;volumodel&#45;&gt;r&#45;smartsnp -->
<!-- r&#45;nlmixr2plot -->
<g id="node50" class="node">
<title>r&#45;nlmixr2plot</title>
<g id="a_node50"><a xlink:href="https://github.com/conda-forge/r-nlmixr2plot-feedstock" xlink:title="r nlmixr2plot">
<ellipse fill="#fde725" stroke="black" cx="1119.35" cy="-422" rx="77.52" ry="18"/>
<text xml:space="preserve" text-anchor="middle" x="1119.35" y="-417.32" font-family="Times,serif" font-size="14.00">r nlmixr2plot</text>
</a>
</g>
</g>
<!-- r&#45;nlmixr2 -->
<g id="node51" class="node">
<title>r&#45;nlmixr2</title>
<g id="a_node51"><a xlink:href="https://github.com/conda-forge/r-nlmixr2-feedstock" xlink:title="r nlmixr2">
<ellipse fill="#fde725" stroke="black" cx="1119.35" cy="-350" rx="58.05" ry="18"/>
<text xml:space="preserve" text-anchor="middle" x="1119.35" y="-345.32" font-family="Times,serif" font-size="14.00">r nlmixr2</text>
</a>
</g>
</g>
<!-- r&#45;nlmixr2plot&#45;&gt;r&#45;nlmixr2 -->
<g id="edge45" class="edge">
<title>r&#45;nlmixr2plot&#45;&gt;r&#45;nlmixr2</title>
<path fill="none" stroke="black" d="M1119.35,-403.7C1119.35,-396.41 1119.35,-387.73 1119.35,-379.54"/>
<polygon fill="black" stroke="black" points="1122.85,-379.62 1119.35,-369.62 1115.85,-379.62 1122.85,-379.62"/>
</g>
<!-- r&#45;nlmixr2extra -->
<g id="node52" class="node">
<title>r&#45;nlmixr2extra</title>
<g id="a_node52"><a xlink:href="https://github.com/conda-forge/r-nlmixr2extra-feedstock" xlink:title="r nlmixr2extra">
<ellipse fill="#fde725" stroke="black" cx="1194.35" cy="-494" rx="84.35" ry="18"/>
<text xml:space="preserve" text-anchor="middle" x="1194.35" y="-489.32" font-family="Times,serif" font-size="14.00">r nlmixr2extra</text>
</a>
</g>
</g>
<!-- r&#45;nlmixr2extra&#45;&gt;r&#45;nlmixr2plot -->
<g id="edge46" class="edge">
<title>r&#45;nlmixr2extra&#45;&gt;r&#45;nlmixr2plot</title>
<path fill="none" stroke="black" d="M1176.2,-476.05C1166.99,-467.46 1155.63,-456.86 1145.49,-447.4"/>
<polygon fill="black" stroke="black" points="1148.15,-445.09 1138.45,-440.82 1143.37,-450.2 1148.15,-445.09"/>
</g>
<!-- r&#45;nlmixr2extra&#45;&gt;r&#45;nlmixr2 -->
<g id="edge47" class="edge">
<title>r&#45;nlmixr2extra&#45;&gt;r&#45;nlmixr2</title>
<path fill="none" stroke="black" d="M1202.6,-475.76C1210.33,-456.92 1218.95,-426.43 1206.35,-404 1197.68,-388.57 1182.5,-377.1 1167.21,-368.86"/>
<polygon fill="black" stroke="black" points="1169.09,-365.88 1158.58,-364.57 1165.98,-372.15 1169.09,-365.88"/>
</g>
<!-- r&#45;nlmixr2est -->
<g id="node53" class="node">
<title>r&#45;nlmixr2est</title>
<g id="a_node53"><a xlink:href="https://github.com/conda-forge/r-nlmixr2est-feedstock/pull/16" xlink:title="r nlmixr2est ✓">
<ellipse fill="#31688e" stroke="black" cx="1082.35" cy="-566" rx="81.2" ry="18"/>
<text xml:space="preserve" text-anchor="middle" x="1082.35" y="-561.33" font-family="Times,serif" font-size="14.00" fill="white">r nlmixr2est ✓</text>
</a>
</g>
</g>
<!-- r&#45;nlmixr2est&#45;&gt;r&#45;nlmixr2plot -->
<g id="edge48" class="edge">
<title>r&#45;nlmixr2est&#45;&gt;r&#45;nlmixr2plot</title>
<path fill="none" stroke="black" d="M1085.41,-547.79C1088.75,-529.76 1094.55,-500.68 1101.35,-476 1103.63,-467.72 1106.48,-458.84 1109.24,-450.77"/>
<polygon fill="black" stroke="black" points="1112.5,-452.05 1112.5,-441.46 1105.89,-449.74 1112.5,-452.05"/>
</g>
<!-- r&#45;nlmixr2est&#45;&gt;r&#45;nlmixr2 -->
<g id="edge49" class="edge">
<title>r&#45;nlmixr2est&#45;&gt;r&#45;nlmixr2</title>
<path fill="none" stroke="black" d="M1068.67,-548.08C1045.85,-517.68 1005.12,-452.48 1032.35,-404 1041.02,-388.57 1056.21,-377.1 1071.49,-368.86"/>
<polygon fill="black" stroke="black" points="1072.73,-372.15 1080.13,-364.57 1069.61,-365.88 1072.73,-372.15"/>
</g>
<!-- r&#45;nlmixr2est&#45;&gt;r&#45;nlmixr2extra -->
<g id="edge50" class="edge">
<title>r&#45;nlmixr2est&#45;&gt;r&#45;nlmixr2extra</title>
<path fill="none" stroke="black" d="M1108.61,-548.59C1123.39,-539.35 1142.06,-527.68 1158.2,-517.59"/>
<polygon fill="black" stroke="black" points="1159.96,-520.62 1166.59,-512.35 1156.25,-514.69 1159.96,-520.62"/>
</g>
<!-- r&#45;spectrum -->
<g id="node55" class="node">
<title>r&#45;spectrum</title>
<g id="a_node55"><a xlink:href="https://github.com/conda-forge/r-spectrum-feedstock/pull/2" xlink:title="r spectrum ❎">
<ellipse fill="#31688e" stroke="black" cx="496.35" cy="-206" rx="81.72" ry="18"/>
<text xml:space="preserve" text-anchor="middle" x="496.35" y="-201.33" font-family="Times,serif" font-size="14.00" fill="white">r spectrum ❎</text>
</a>
</g>
</g>
<!-- r&#45;smartsnp&#45;&gt;r&#45;spectrum -->
<!-- r&#45;dmfiller -->
<g id="node56" class="node">
<title>r&#45;dmfiller</title>
<g id="a_node56"><a xlink:href="https://github.com/conda-forge/r-dmfiller-feedstock/pull/2" xlink:title="r dmfiller ❎">
<ellipse fill="#31688e" stroke="black" cx="496.35" cy="-134" rx="73.3" ry="18"/>
<text xml:space="preserve" text-anchor="middle" x="496.35" y="-129.32" font-family="Times,serif" font-size="14.00" fill="white">r dmfiller ❎</text>
</a>
</g>
</g>
<!-- r&#45;spectrum&#45;&gt;r&#45;dmfiller -->
</g>
</svg>
