<?xml version="1.0" encoding="UTF-8" standalone="no"?>
<!DOCTYPE svg PUBLIC "-//W3C//DTD SVG 1.1//EN"
 "http://www.w3.org/Graphics/SVG/1.1/DTD/svg11.dtd">
<!-- Generated by graphviz version 13.1.2 (20250809.0930)
 -->
<!-- Pages: 1 -->
<svg width="1692pt" height="1212pt"
 viewBox="0.00 0.00 1692.00 1212.00" xmlns="http://www.w3.org/2000/svg" xmlns:xlink="http://www.w3.org/1999/xlink">
<g id="graph0" class="graph" transform="scale(1 1) rotate(0) translate(4 1208)">
<polygon fill="white" stroke="none" points="-4,4 -4,-1208 1687.71,-1208 1687.71,4 -4,4"/>
<!-- r&#45;rstan -->
<g id="node1" class="node">
<title>r&#45;rstan</title>
<g id="a_node1"><a xlink:href="https://github.com/conda-forge/r-rstan-feedstock/pull/40" xlink:title="r rstan ❎">
<ellipse fill="#31688e" stroke="black" cx="624.35" cy="-1006" rx="60.68" ry="18"/>
<text xml:space="preserve" text-anchor="middle" x="624.35" y="-1001.33" font-family="Times,serif" font-size="14.00" fill="white">r rstan ❎</text>
</a>
</g>
</g>
<!-- r&#45;shinystan -->
<g id="node2" class="node">
<title>r&#45;shinystan</title>
<g id="a_node2"><a xlink:href="https://github.com/conda-forge/r-shinystan-feedstock" xlink:title="r shinystan">
<ellipse fill="#fde725" stroke="black" cx="84.35" cy="-934" rx="67.52" ry="18"/>
<text xml:space="preserve" text-anchor="middle" x="84.35" y="-929.33" font-family="Times,serif" font-size="14.00">r shinystan</text>
</a>
</g>
</g>
<!-- r&#45;rstan&#45;&gt;r&#45;shinystan -->
<g id="edge1" class="edge">
<title>r&#45;rstan&#45;&gt;r&#45;shinystan</title>
<path fill="none" stroke="black" d="M566.65,-999.99C479.58,-992.05 309.58,-975.09 166.35,-952 159.67,-950.92 152.7,-949.67 145.77,-948.35"/>
<polygon fill="black" stroke="black" points="146.94,-945.01 136.45,-946.52 145.59,-951.88 146.94,-945.01"/>
</g>
<!-- r&#45;rstanarm -->
<g id="node3" class="node">
<title>r&#45;rstanarm</title>
<g id="a_node3"><a xlink:href="https://github.com/conda-forge/r-rstanarm-feedstock" xlink:title="r rstanarm">
<ellipse fill="#fde725" stroke="black" cx="84.35" cy="-862" rx="65.41" ry="18"/>
<text xml:space="preserve" text-anchor="middle" x="84.35" y="-857.33" font-family="Times,serif" font-size="14.00">r rstanarm</text>
</a>
</g>
</g>
<!-- r&#45;rstan&#45;&gt;r&#45;rstanarm -->
<g id="edge2" class="edge">
<title>r&#45;rstan&#45;&gt;r&#45;rstanarm</title>
<path fill="none" stroke="black" d="M571.02,-997.03C514.88,-988.12 424.17,-972.24 347.35,-952 270.76,-931.82 184.14,-900.88 131.92,-881.3"/>
<polygon fill="black" stroke="black" points="133.33,-878.09 122.73,-877.84 130.86,-884.64 133.33,-878.09"/>
</g>
<!-- r&#45;brms -->
<g id="node4" class="node">
<title>r&#45;brms</title>
<g id="a_node4"><a xlink:href="https://github.com/conda-forge/r-brms-feedstock" xlink:title="r brms">
<ellipse fill="#fde725" stroke="black" cx="212.35" cy="-862" rx="44.9" ry="18"/>
<text xml:space="preserve" text-anchor="middle" x="212.35" y="-857.33" font-family="Times,serif" font-size="14.00">r brms</text>
</a>
</g>
</g>
<!-- r&#45;rstan&#45;&gt;r&#45;brms -->
<g id="edge3" class="edge">
<title>r&#45;rstan&#45;&gt;r&#45;brms</title>
<path fill="none" stroke="black" d="M581.93,-992.88C546.55,-982.58 494.92,-967.1 450.35,-952 380.78,-928.42 301.01,-897.86 253.75,-879.37"/>
<polygon fill="black" stroke="black" points="255.32,-876.23 244.73,-875.84 252.76,-882.75 255.32,-876.23"/>
</g>
<!-- r&#45;prophet -->
<g id="node5" class="node">
<title>r&#45;prophet</title>
<g id="a_node5"><a xlink:href="https://github.com/conda-forge/r-prophet-feedstock" xlink:title="r prophet">
<ellipse fill="#fde725" stroke="black" cx="518.35" cy="-934" rx="58.57" ry="18"/>
<text xml:space="preserve" text-anchor="middle" x="518.35" y="-929.33" font-family="Times,serif" font-size="14.00">r prophet</text>
</a>
</g>
</g>
<!-- r&#45;rstan&#45;&gt;r&#45;prophet -->
<g id="edge4" class="edge">
<title>r&#45;rstan&#45;&gt;r&#45;prophet</title>
<path fill="none" stroke="black" d="M600.3,-989.12C585.93,-979.63 567.47,-967.44 551.71,-957.03"/>
<polygon fill="black" stroke="black" points="553.85,-954.25 543.57,-951.66 549.99,-960.09 553.85,-954.25"/>
</g>
<!-- r&#45;metabma -->
<g id="node6" class="node">
<title>r&#45;metabma</title>
<g id="a_node6"><a xlink:href="https://github.com/conda-forge/r-metabma-feedstock" xlink:title="r metabma">
<ellipse fill="#fde725" stroke="black" cx="582.35" cy="-790" rx="65.94" ry="18"/>
<text xml:space="preserve" text-anchor="middle" x="582.35" y="-785.33" font-family="Times,serif" font-size="14.00">r metabma</text>
</a>
</g>
</g>
<!-- r&#45;rstan&#45;&gt;r&#45;metabma -->
<g id="edge5" class="edge">
<title>r&#45;rstan&#45;&gt;r&#45;metabma</title>
<path fill="none" stroke="black" d="M627.92,-987.94C633.45,-957.87 641.72,-893.89 624.35,-844 620.87,-834.01 614.64,-824.49 608.03,-816.34"/>
<polygon fill="black" stroke="black" points="610.74,-814.13 601.52,-808.91 605.48,-818.74 610.74,-814.13"/>
</g>
<!-- r&#45;rlgt -->
<g id="node7" class="node">
<title>r&#45;rlgt</title>
<g id="a_node7"><a xlink:href="https://github.com/conda-forge/r-rlgt-feedstock" xlink:title="r rlgt">
<ellipse fill="#fde725" stroke="black" cx="667.35" cy="-718" rx="37.53" ry="18"/>
<text xml:space="preserve" text-anchor="middle" x="667.35" y="-713.33" font-family="Times,serif" font-size="14.00">r rlgt</text>
</a>
</g>
</g>
<!-- r&#45;rstan&#45;&gt;r&#45;rlgt -->
<g id="edge6" class="edge">
<title>r&#45;rstan&#45;&gt;r&#45;rlgt</title>
<path fill="none" stroke="black" d="M633.92,-987.89C639.11,-977.77 645.11,-964.52 648.35,-952 666.95,-880.17 668.67,-792.11 668.14,-747.63"/>
<polygon fill="black" stroke="black" points="671.64,-747.74 667.97,-737.8 664.64,-747.86 671.64,-747.74"/>
</g>
<!-- r&#45;bayesforecast -->
<g id="node8" class="node">
<title>r&#45;bayesforecast</title>
<g id="a_node8"><a xlink:href="https://github.com/conda-forge/r-bayesforecast-feedstock" xlink:title="r bayesforecast">
<ellipse fill="#fde725" stroke="black" cx="526.35" cy="-862" rx="88.56" ry="18"/>
<text xml:space="preserve" text-anchor="middle" x="526.35" y="-857.33" font-family="Times,serif" font-size="14.00">r bayesforecast</text>
</a>
</g>
</g>
<!-- r&#45;rstan&#45;&gt;r&#45;bayesforecast -->
<g id="edge7" class="edge">
<title>r&#45;rstan&#45;&gt;r&#45;bayesforecast</title>
<path fill="none" stroke="black" d="M619.51,-987.78C613.68,-968.95 602.58,-938.47 586.35,-916 578.69,-905.39 568.55,-895.41 558.78,-887.04"/>
<polygon fill="black" stroke="black" points="561.12,-884.43 551.18,-880.79 556.68,-889.84 561.12,-884.43"/>
</g>
<!-- r&#45;jfa -->
<g id="node9" class="node">
<title>r&#45;jfa</title>
<g id="a_node9"><a xlink:href="https://github.com/conda-forge/r-jfa-feedstock" xlink:title="r jfa">
<ellipse fill="#fde725" stroke="black" cx="733.35" cy="-646" rx="31.74" ry="18"/>
<text xml:space="preserve" text-anchor="middle" x="733.35" y="-641.33" font-family="Times,serif" font-size="14.00">r jfa</text>
</a>
</g>
</g>
<!-- r&#45;rstan&#45;&gt;r&#45;jfa -->
<g id="edge8" class="edge">
<title>r&#45;rstan&#45;&gt;r&#45;jfa</title>
<path fill="none" stroke="black" d="M648.27,-989.09C680.36,-965.63 733.35,-918.47 733.35,-863 733.35,-863 733.35,-863 733.35,-789 733.35,-749.74 733.35,-704.38 733.35,-675.69"/>
<polygon fill="black" stroke="black" points="736.85,-676 733.35,-666 729.85,-676 736.85,-676"/>
</g>
<!-- r&#45;stanova -->
<g id="node10" class="node">
<title>r&#45;stanova</title>
<g id="a_node10"><a xlink:href="https://github.com/conda-forge/r-stanova-feedstock" xlink:title="r stanova">
<ellipse fill="#fde725" stroke="black" cx="819.35" cy="-934" rx="58.05" ry="18"/>
<text xml:space="preserve" text-anchor="middle" x="819.35" y="-929.33" font-family="Times,serif" font-size="14.00">r stanova</text>
</a>
</g>
</g>
<!-- r&#45;rstan&#45;&gt;r&#45;stanova -->
<g id="edge9" class="edge">
<title>r&#45;rstan&#45;&gt;r&#45;stanova</title>
<path fill="none" stroke="black" d="M661.95,-991.5C693.31,-980.25 738.16,-964.15 771.97,-952.01"/>
<polygon fill="black" stroke="black" points="772.88,-955.4 781.11,-948.73 770.51,-948.81 772.88,-955.4"/>
</g>
<!-- r&#45;densestbayes -->
<g id="node11" class="node">
<title>r&#45;densestbayes</title>
<g id="a_node11"><a xlink:href="https://github.com/conda-forge/r-densestbayes-feedstock" xlink:title="r densestbayes">
<ellipse fill="#fde725" stroke="black" cx="905.35" cy="-862" rx="86.98" ry="18"/>
<text xml:space="preserve" text-anchor="middle" x="905.35" y="-857.33" font-family="Times,serif" font-size="14.00">r densestbayes</text>
</a>
</g>
</g>
<!-- r&#45;rstan&#45;&gt;r&#45;densestbayes -->
<g id="edge10" class="edge">
<title>r&#45;rstan&#45;&gt;r&#45;densestbayes</title>
<path fill="none" stroke="black" d="M682.79,-1000.55C751.04,-994.14 858.19,-979.87 886.35,-952 902.07,-936.45 906.28,-911.3 906.87,-891.7"/>
<polygon fill="black" stroke="black" points="910.37,-891.85 906.84,-881.86 903.37,-891.87 910.37,-891.85"/>
</g>
<!-- r&#45;shinystan&#45;&gt;r&#45;rstanarm -->
<g id="edge11" class="edge">
<title>r&#45;shinystan&#45;&gt;r&#45;rstanarm</title>
<path fill="none" stroke="black" d="M84.35,-915.7C84.35,-908.41 84.35,-899.73 84.35,-891.54"/>
<polygon fill="black" stroke="black" points="87.85,-891.62 84.35,-881.62 80.85,-891.62 87.85,-891.62"/>
</g>
<!-- r&#45;tidyposterior -->
<g id="node12" class="node">
<title>r&#45;tidyposterior</title>
<g id="a_node12"><a xlink:href="https://github.com/conda-forge/r-tidyposterior-feedstock" xlink:title="r tidyposterior">
<ellipse fill="#fde725" stroke="black" cx="84.35" cy="-790" rx="84.35" ry="18"/>
<text xml:space="preserve" text-anchor="middle" x="84.35" y="-785.33" font-family="Times,serif" font-size="14.00">r tidyposterior</text>
</a>
</g>
</g>
<!-- r&#45;rstanarm&#45;&gt;r&#45;tidyposterior -->
<g id="edge12" class="edge">
<title>r&#45;rstanarm&#45;&gt;r&#45;tidyposterior</title>
<path fill="none" stroke="black" d="M84.35,-843.7C84.35,-836.41 84.35,-827.73 84.35,-819.54"/>
<polygon fill="black" stroke="black" points="87.85,-819.62 84.35,-809.62 80.85,-819.62 87.85,-819.62"/>
</g>
<!-- r&#45;prophet&#45;&gt;r&#45;bayesforecast -->
<g id="edge13" class="edge">
<title>r&#45;prophet&#45;&gt;r&#45;bayesforecast</title>
<path fill="none" stroke="black" d="M520.33,-915.7C521.16,-908.41 522.16,-899.73 523.09,-891.54"/>
<polygon fill="black" stroke="black" points="526.57,-891.94 524.23,-881.61 519.61,-891.15 526.57,-891.94"/>
</g>
<!-- r&#45;modeltime -->
<g id="node13" class="node">
<title>r&#45;modeltime</title>
<g id="a_node13"><a xlink:href="https://github.com/conda-forge/r-modeltime-feedstock" xlink:title="r modeltime">
<ellipse fill="#fde725" stroke="black" cx="347.35" cy="-862" rx="72.25" ry="18"/>
<text xml:space="preserve" text-anchor="middle" x="347.35" y="-857.33" font-family="Times,serif" font-size="14.00">r modeltime</text>
</a>
</g>
</g>
<!-- r&#45;prophet&#45;&gt;r&#45;modeltime -->
<g id="edge14" class="edge">
<title>r&#45;prophet&#45;&gt;r&#45;modeltime</title>
<path fill="none" stroke="black" d="M484.16,-919C458.41,-908.46 422.79,-893.88 394.36,-882.24"/>
<polygon fill="black" stroke="black" points="395.83,-879.06 385.25,-878.51 393.18,-885.54 395.83,-879.06"/>
</g>
<!-- r&#45;tidybf -->
<g id="node14" class="node">
<title>r&#45;tidybf</title>
<g id="a_node14"><a xlink:href="https://github.com/conda-forge/r-tidybf-feedstock" xlink:title="r tidybf">
<ellipse fill="#fde725" stroke="black" cx="563.35" cy="-718" rx="48.58" ry="18"/>
<text xml:space="preserve" text-anchor="middle" x="563.35" y="-713.33" font-family="Times,serif" font-size="14.00">r tidybf</text>
</a>
</g>
</g>
<!-- r&#45;metabma&#45;&gt;r&#45;tidybf -->
<g id="edge15" class="edge">
<title>r&#45;metabma&#45;&gt;r&#45;tidybf</title>
<path fill="none" stroke="black" d="M577.66,-771.7C575.63,-764.24 573.21,-755.32 570.94,-746.97"/>
<polygon fill="black" stroke="black" points="574.39,-746.3 568.39,-737.57 567.63,-748.13 574.39,-746.3"/>
</g>
<!-- r&#45;reldist -->
<g id="node15" class="node">
<title>r&#45;reldist</title>
<g id="a_node15"><a xlink:href="https://github.com/conda-forge/r-reldist-feedstock" xlink:title="r reldist">
<ellipse fill="#fde725" stroke="black" cx="905.35" cy="-790" rx="51.74" ry="18"/>
<text xml:space="preserve" text-anchor="middle" x="905.35" y="-785.33" font-family="Times,serif" font-size="14.00">r reldist</text>
</a>
</g>
</g>
<!-- r&#45;densestbayes&#45;&gt;r&#45;reldist -->
<g id="edge16" class="edge">
<title>r&#45;densestbayes&#45;&gt;r&#45;reldist</title>
<path fill="none" stroke="black" d="M905.35,-843.7C905.35,-836.41 905.35,-827.73 905.35,-819.54"/>
<polygon fill="black" stroke="black" points="908.85,-819.62 905.35,-809.62 901.85,-819.62 908.85,-819.62"/>
</g>
<!-- r&#45;modeltime.resample -->
<g id="node30" class="node">
<title>r&#45;modeltime.resample</title>
<g id="a_node30"><a xlink:href="https://github.com/conda-forge/r-modeltime.resample-feedstock" xlink:title="r modeltime resample">
<ellipse fill="#fde725" stroke="black" cx="321.35" cy="-790" rx="121.71" ry="18"/>
<text xml:space="preserve" text-anchor="middle" x="321.35" y="-785.33" font-family="Times,serif" font-size="14.00">r modeltime resample</text>
</a>
</g>
</g>
<!-- r&#45;modeltime&#45;&gt;r&#45;modeltime.resample -->
<g id="edge27" class="edge">
<title>r&#45;modeltime&#45;&gt;r&#45;modeltime.resample</title>
<path fill="none" stroke="black" d="M340.93,-843.7C338.12,-836.15 334.77,-827.12 331.63,-818.68"/>
<polygon fill="black" stroke="black" points="335,-817.68 328.23,-809.52 328.43,-820.12 335,-817.68"/>
</g>
<!-- r&#45;modeltime.ensemble -->
<g id="node31" class="node">
<title>r&#45;modeltime.ensemble</title>
<g id="a_node31"><a xlink:href="https://github.com/conda-forge/r-modeltime.ensemble-feedstock" xlink:title="r modeltime ensemble">
<ellipse fill="#fde725" stroke="black" cx="351.35" cy="-718" rx="123.29" ry="18"/>
<text xml:space="preserve" text-anchor="middle" x="351.35" y="-713.33" font-family="Times,serif" font-size="14.00">r modeltime ensemble</text>
</a>
</g>
</g>
<!-- r&#45;modeltime&#45;&gt;r&#45;modeltime.ensemble -->
<g id="edge28" class="edge">
<title>r&#45;modeltime&#45;&gt;r&#45;modeltime.ensemble</title>
<path fill="none" stroke="black" d="M396.9,-848.57C417.8,-840.61 440.1,-827.91 452.35,-808 460.74,-794.37 460.63,-785.69 452.35,-772 443.82,-757.89 430.15,-747.35 415.59,-739.55"/>
<polygon fill="black" stroke="black" points="417.3,-736.49 406.78,-735.24 414.23,-742.78 417.3,-736.49"/>
</g>
<!-- r&#45;svd -->
<g id="node16" class="node">
<title>r&#45;svd</title>
<g id="a_node16"><a xlink:href="https://github.com/conda-forge/r-svd-feedstock/pull/24" xlink:title="r svd ❎">
<ellipse fill="#31688e" stroke="black" cx="1263.35" cy="-90" rx="51.74" ry="18"/>
<text xml:space="preserve" text-anchor="middle" x="1263.35" y="-85.33" font-family="Times,serif" font-size="14.00" fill="white">r svd ❎</text>
</a>
</g>
</g>
<!-- r&#45;esabcv -->
<g id="node17" class="node">
<title>r&#45;esabcv</title>
<g id="a_node17"><a xlink:href="https://github.com/conda-forge/r-esabcv-feedstock" xlink:title="r esabcv">
<ellipse fill="#fde725" stroke="black" cx="1263.35" cy="-18" rx="53.31" ry="18"/>
<text xml:space="preserve" text-anchor="middle" x="1263.35" y="-13.32" font-family="Times,serif" font-size="14.00">r esabcv</text>
</a>
</g>
</g>
<!-- r&#45;svd&#45;&gt;r&#45;esabcv -->
<g id="edge17" class="edge">
<title>r&#45;svd&#45;&gt;r&#45;esabcv</title>
<path fill="none" stroke="black" d="M1263.35,-71.7C1263.35,-64.41 1263.35,-55.73 1263.35,-47.54"/>
<polygon fill="black" stroke="black" points="1266.85,-47.62 1263.35,-37.62 1259.85,-47.62 1266.85,-47.62"/>
</g>
<!-- rpy2 -->
<g id="node18" class="node">
<title>rpy2</title>
<g id="a_node18"><a xlink:href="https://github.com/conda-forge/rpy2-feedstock/pull/140" xlink:title="rpy2 ❎">
<ellipse fill="#31688e" stroke="black" cx="1609.35" cy="-1186" rx="49.63" ry="18"/>
<text xml:space="preserve" text-anchor="middle" x="1609.35" y="-1181.33" font-family="Times,serif" font-size="14.00" fill="white">rpy2 ❎</text>
</a>
</g>
</g>
<!-- r&#45;xtensor -->
<g id="node19" class="node">
<title>r&#45;xtensor</title>
<g id="a_node19"><a xlink:href="https://github.com/conda-forge/r-xtensor-feedstock/pull/26" xlink:title="r xtensor ❎">
<ellipse fill="#31688e" stroke="black" cx="1609.35" cy="-1114" rx="72.25" ry="18"/>
<text xml:space="preserve" text-anchor="middle" x="1609.35" y="-1109.33" font-family="Times,serif" font-size="14.00" fill="white">r xtensor ❎</text>
</a>
</g>
</g>
<!-- rpy2&#45;&gt;r&#45;xtensor -->
<!-- r&#45;rinside -->
<g id="node28" class="node">
<title>r&#45;rinside</title>
<g id="a_node28"><a xlink:href="https://github.com/conda-forge/r-rinside-feedstock/pull/14" xlink:title="r rinside ❎">
<ellipse fill="#31688e" stroke="black" cx="1609.35" cy="-1042" rx="69.1" ry="18"/>
<text xml:space="preserve" text-anchor="middle" x="1609.35" y="-1037.33" font-family="Times,serif" font-size="14.00" fill="white">r rinside ❎</text>
</a>
</g>
</g>
<!-- r&#45;xtensor&#45;&gt;r&#45;rinside -->
<!-- r&#45;geigen -->
<g id="node20" class="node">
<title>r&#45;geigen</title>
<g id="a_node20"><a xlink:href="https://github.com/conda-forge/r-geigen-feedstock/pull/14" xlink:title="r geigen ❎">
<ellipse fill="#31688e" stroke="black" cx="1609.35" cy="-314" rx="68.04" ry="18"/>
<text xml:space="preserve" text-anchor="middle" x="1609.35" y="-309.32" font-family="Times,serif" font-size="14.00" fill="white">r geigen ❎</text>
</a>
</g>
</g>
<!-- r&#45;conicfit -->
<g id="node21" class="node">
<title>r&#45;conicfit</title>
<g id="a_node21"><a xlink:href="https://github.com/conda-forge/r-conicfit-feedstock" xlink:title="r conicfit">
<ellipse fill="#fde725" stroke="black" cx="1609.35" cy="-242" rx="55.42" ry="18"/>
<text xml:space="preserve" text-anchor="middle" x="1609.35" y="-237.32" font-family="Times,serif" font-size="14.00">r conicfit</text>
</a>
</g>
</g>
<!-- r&#45;geigen&#45;&gt;r&#45;conicfit -->
<g id="edge19" class="edge">
<title>r&#45;geigen&#45;&gt;r&#45;conicfit</title>
<path fill="none" stroke="black" d="M1609.35,-295.7C1609.35,-288.41 1609.35,-279.73 1609.35,-271.54"/>
<polygon fill="black" stroke="black" points="1612.85,-271.62 1609.35,-261.62 1605.85,-271.62 1612.85,-271.62"/>
</g>
<!-- r&#45;quanteda -->
<g id="node22" class="node">
<title>r&#45;quanteda</title>
<g id="a_node22"><a xlink:href="https://github.com/conda-forge/r-quanteda-feedstock/pull/44" xlink:title="r quanteda ❎">
<ellipse fill="#31688e" stroke="black" cx="1169.35" cy="-1006" rx="81.2" ry="18"/>
<text xml:space="preserve" text-anchor="middle" x="1169.35" y="-1001.33" font-family="Times,serif" font-size="14.00" fill="white">r quanteda ❎</text>
</a>
</g>
</g>
<!-- r&#45;stm -->
<g id="node23" class="node">
<title>r&#45;stm</title>
<g id="a_node23"><a xlink:href="https://github.com/conda-forge/r-stm-feedstock" xlink:title="r stm">
<ellipse fill="#fde725" stroke="black" cx="1038.35" cy="-934" rx="38.06" ry="18"/>
<text xml:space="preserve" text-anchor="middle" x="1038.35" y="-929.33" font-family="Times,serif" font-size="14.00">r stm</text>
</a>
</g>
</g>
<!-- r&#45;quanteda&#45;&gt;r&#45;stm -->
<g id="edge20" class="edge">
<title>r&#45;quanteda&#45;&gt;r&#45;stm</title>
<path fill="none" stroke="black" d="M1139.3,-988.94C1119.52,-978.37 1093.58,-964.51 1072.95,-953.49"/>
<polygon fill="black" stroke="black" points="1074.81,-950.51 1064.34,-948.88 1071.51,-956.68 1074.81,-950.51"/>
</g>
<!-- r&#45;textstem -->
<g id="node24" class="node">
<title>r&#45;textstem</title>
<g id="a_node24"><a xlink:href="https://github.com/conda-forge/r-textstem-feedstock" xlink:title="r textstem">
<ellipse fill="#fde725" stroke="black" cx="1077.35" cy="-862" rx="63.84" ry="18"/>
<text xml:space="preserve" text-anchor="middle" x="1077.35" y="-857.33" font-family="Times,serif" font-size="14.00">r textstem</text>
</a>
</g>
</g>
<!-- r&#45;quanteda&#45;&gt;r&#45;textstem -->
<g id="edge21" class="edge">
<title>r&#45;quanteda&#45;&gt;r&#45;textstem</title>
<path fill="none" stroke="black" d="M1158.26,-987.87C1142.44,-963.46 1113.26,-918.43 1094.61,-889.64"/>
<polygon fill="black" stroke="black" points="1097.69,-887.95 1089.31,-881.46 1091.81,-891.76 1097.69,-887.95"/>
</g>
<!-- r&#45;quanteda.textplots -->
<g id="node25" class="node">
<title>r&#45;quanteda.textplots</title>
<g id="a_node25"><a xlink:href="https://github.com/conda-forge/r-quanteda.textplots-feedstock" xlink:title="r quanteda textplots">
<ellipse fill="#fde725" stroke="black" cx="1117.35" cy="-790" rx="113.82" ry="18"/>
<text xml:space="preserve" text-anchor="middle" x="1117.35" y="-785.33" font-family="Times,serif" font-size="14.00">r quanteda textplots</text>
</a>
</g>
</g>
<!-- r&#45;quanteda&#45;&gt;r&#45;quanteda.textplots -->
<g id="edge22" class="edge">
<title>r&#45;quanteda&#45;&gt;r&#45;quanteda.textplots</title>
<path fill="none" stroke="black" d="M1169.75,-987.53C1169.9,-957.36 1167.86,-893.93 1150.35,-844 1147.14,-834.84 1142.14,-825.6 1136.99,-817.46"/>
<polygon fill="black" stroke="black" points="1140.06,-815.76 1131.59,-809.41 1134.25,-819.66 1140.06,-815.76"/>
</g>
<!-- r&#45;quanteda.textstats -->
<g id="node26" class="node">
<title>r&#45;quanteda.textstats</title>
<g id="a_node26"><a xlink:href="https://github.com/conda-forge/r-quanteda.textstats-feedstock" xlink:title="r quanteda textstats">
<ellipse fill="#fde725" stroke="black" cx="1259.35" cy="-718" rx="113.82" ry="18"/>
<text xml:space="preserve" text-anchor="middle" x="1259.35" y="-713.33" font-family="Times,serif" font-size="14.00">r quanteda textstats</text>
</a>
</g>
</g>
<!-- r&#45;quanteda&#45;&gt;r&#45;quanteda.textstats -->
<g id="edge23" class="edge">
<title>r&#45;quanteda&#45;&gt;r&#45;quanteda.textstats</title>
<path fill="none" stroke="black" d="M1176.53,-987.6C1190.36,-953.58 1221.04,-875.64 1240.35,-808 1246.06,-788 1250.92,-765.04 1254.3,-747.45"/>
<polygon fill="black" stroke="black" points="1257.72,-748.19 1256.11,-737.72 1250.84,-746.91 1257.72,-748.19"/>
</g>
<!-- r&#45;quanteda.textmodels -->
<g id="node27" class="node">
<title>r&#45;quanteda.textmodels</title>
<g id="a_node27"><a xlink:href="https://github.com/conda-forge/r-quanteda.textmodels-feedstock" xlink:title="r quanteda textmodels">
<ellipse fill="#fde725" stroke="black" cx="1401.35" cy="-646" rx="124.86" ry="18"/>
<text xml:space="preserve" text-anchor="middle" x="1401.35" y="-641.33" font-family="Times,serif" font-size="14.00">r quanteda textmodels</text>
</a>
</g>
</g>
<!-- r&#45;quanteda&#45;&gt;r&#45;quanteda.textmodels -->
<g id="edge24" class="edge">
<title>r&#45;quanteda&#45;&gt;r&#45;quanteda.textmodels</title>
<path fill="none" stroke="black" d="M1232.44,-994.39C1301.14,-978.81 1401.35,-942.45 1401.35,-863 1401.35,-863 1401.35,-863 1401.35,-789 1401.35,-749.74 1401.35,-704.38 1401.35,-675.69"/>
<polygon fill="black" stroke="black" points="1404.85,-676 1401.35,-666 1397.85,-676 1404.85,-676"/>
</g>
<!-- yggdrasil -->
<g id="node29" class="node">
<title>yggdrasil</title>
<g id="a_node29"><a xlink:href="https://github.com/conda-forge/yggdrasil-feedstock/pull/50" xlink:title="yggdrasil ❎">
<ellipse fill="#31688e" stroke="black" cx="1609.35" cy="-970" rx="73.3" ry="18"/>
<text xml:space="preserve" text-anchor="middle" x="1609.35" y="-965.33" font-family="Times,serif" font-size="14.00" fill="white">yggdrasil ❎</text>
</a>
</g>
</g>
<!-- r&#45;rinside&#45;&gt;yggdrasil -->
<!-- r&#45;vsurf -->
<g id="node32" class="node">
<title>r&#45;vsurf</title>
<g id="a_node32"><a xlink:href="https://github.com/conda-forge/r-vsurf-feedstock/pull/7" xlink:title="r vsurf ✓">
<ellipse fill="#31688e" stroke="black" cx="1609.35" cy="-898" rx="52.79" ry="18"/>
<text xml:space="preserve" text-anchor="middle" x="1609.35" y="-893.33" font-family="Times,serif" font-size="14.00" fill="white">r vsurf ✓</text>
</a>
</g>
</g>
<!-- yggdrasil&#45;&gt;r&#45;vsurf -->
<!-- r&#45;modeltime.resample&#45;&gt;r&#45;modeltime.ensemble -->
<g id="edge32" class="edge">
<title>r&#45;modeltime.resample&#45;&gt;r&#45;modeltime.ensemble</title>
<path fill="none" stroke="black" d="M328.77,-771.7C332,-764.15 335.87,-755.12 339.49,-746.68"/>
<polygon fill="black" stroke="black" points="342.7,-748.07 343.43,-737.5 336.27,-745.31 342.7,-748.07"/>
</g>
<!-- r&#45;destinie -->
<g id="node33" class="node">
<title>r&#45;destinie</title>
<g id="a_node33"><a xlink:href="https://github.com/conda-forge/r-destinie-feedstock/pull/9" xlink:title="r destinie ❎">
<ellipse fill="#31688e" stroke="black" cx="1609.35" cy="-826" rx="74.36" ry="18"/>
<text xml:space="preserve" text-anchor="middle" x="1609.35" y="-821.33" font-family="Times,serif" font-size="14.00" fill="white">r destinie ❎</text>
</a>
</g>
</g>
<!-- r&#45;vsurf&#45;&gt;r&#45;destinie -->
<!-- harp -->
<g id="node34" class="node">
<title>harp</title>
<g id="a_node34"><a xlink:href="https://github.com/conda-forge/harp-feedstock/pull/51" xlink:title="harp ❎">
<ellipse fill="#31688e" stroke="black" cx="1609.35" cy="-754" rx="49.63" ry="18"/>
<text xml:space="preserve" text-anchor="middle" x="1609.35" y="-749.33" font-family="Times,serif" font-size="14.00" fill="white">harp ❎</text>
</a>
</g>
</g>
<!-- r&#45;destinie&#45;&gt;harp -->
<!-- r&#45;juliacall -->
<g id="node35" class="node">
<title>r&#45;juliacall</title>
<g id="a_node35"><a xlink:href="https://github.com/conda-forge/r-juliacall-feedstock/pull/7" xlink:title="r juliacall ❎">
<ellipse fill="#31688e" stroke="black" cx="1609.35" cy="-682" rx="73.3" ry="18"/>
<text xml:space="preserve" text-anchor="middle" x="1609.35" y="-677.33" font-family="Times,serif" font-size="14.00" fill="white">r juliacall ❎</text>
</a>
</g>
</g>
<!-- harp&#45;&gt;r&#45;juliacall -->
<!-- rstudio -->
<g id="node36" class="node">
<title>rstudio</title>
<g id="a_node36"><a xlink:href="https://github.com/conda-forge/rstudio-feedstock/pull/45" xlink:title="rstudio ❎">
<ellipse fill="#31688e" stroke="black" cx="1609.35" cy="-610" rx="62.26" ry="18"/>
<text xml:space="preserve" text-anchor="middle" x="1609.35" y="-605.33" font-family="Times,serif" font-size="14.00" fill="white">rstudio ❎</text>
</a>
</g>
</g>
<!-- r&#45;juliacall&#45;&gt;rstudio -->
<!-- r&#45;fcps -->
<g id="node37" class="node">
<title>r&#45;fcps</title>
<g id="a_node37"><a xlink:href="https://github.com/conda-forge/r-fcps-feedstock/pull/5" xlink:title="r fcps ❎">
<ellipse fill="#31688e" stroke="black" cx="1609.35" cy="-538" rx="54.89" ry="18"/>
<text xml:space="preserve" text-anchor="middle" x="1609.35" y="-533.33" font-family="Times,serif" font-size="14.00" fill="white">r fcps ❎</text>
</a>
</g>
</g>
<!-- rstudio&#45;&gt;r&#45;fcps -->
<!-- r&#45;evalhyd -->
<g id="node40" class="node">
<title>r&#45;evalhyd</title>
<g id="a_node40"><a xlink:href="https://github.com/conda-forge/r-evalhyd-feedstock/pull/7" xlink:title="r evalhyd ❎">
<ellipse fill="#31688e" stroke="black" cx="1609.35" cy="-466" rx="73.3" ry="18"/>
<text xml:space="preserve" text-anchor="middle" x="1609.35" y="-461.32" font-family="Times,serif" font-size="14.00" fill="white">r evalhyd ❎</text>
</a>
</g>
</g>
<!-- r&#45;fcps&#45;&gt;r&#45;evalhyd -->
<!-- r&#45;geoprocessor -->
<g id="node38" class="node">
<title>r&#45;geoprocessor</title>
<g id="a_node38"><a xlink:href="https://github.com/conda-forge/r-geoprocessor-feedstock/pull/9" xlink:title="r geoprocessor ❎">
<ellipse fill="#31688e" stroke="black" cx="1263.35" cy="-314" rx="101.19" ry="18"/>
<text xml:space="preserve" text-anchor="middle" x="1263.35" y="-309.32" font-family="Times,serif" font-size="14.00" fill="white">r geoprocessor ❎</text>
</a>
</g>
</g>
<!-- r&#45;climate4r -->
<g id="node39" class="node">
<title>r&#45;climate4r</title>
<g id="a_node39"><a xlink:href="https://github.com/conda-forge/r-climate4r-feedstock" xlink:title="r climate4r">
<ellipse fill="#fde725" stroke="black" cx="1263.35" cy="-242" rx="66.99" ry="18"/>
<text xml:space="preserve" text-anchor="middle" x="1263.35" y="-237.32" font-family="Times,serif" font-size="14.00">r climate4r</text>
</a>
</g>
</g>
<!-- r&#45;geoprocessor&#45;&gt;r&#45;climate4r -->
<g id="edge36" class="edge">
<title>r&#45;geoprocessor&#45;&gt;r&#45;climate4r</title>
<path fill="none" stroke="black" d="M1263.35,-295.7C1263.35,-288.41 1263.35,-279.73 1263.35,-271.54"/>
<polygon fill="black" stroke="black" points="1266.85,-271.62 1263.35,-261.62 1259.85,-271.62 1266.85,-271.62"/>
</g>
<!-- r&#45;greta -->
<g id="node41" class="node">
<title>r&#45;greta</title>
<g id="a_node41"><a xlink:href="https://github.com/conda-forge/r-greta-feedstock/pull/6" xlink:title="r greta ❎">
<ellipse fill="#31688e" stroke="black" cx="496.35" cy="-90" rx="61.2" ry="18"/>
<text xml:space="preserve" text-anchor="middle" x="496.35" y="-85.33" font-family="Times,serif" font-size="14.00" fill="white">r greta ❎</text>
</a>
</g>
</g>
<!-- r&#45;causact -->
<g id="node42" class="node">
<title>r&#45;causact</title>
<g id="a_node42"><a xlink:href="https://github.com/conda-forge/r-causact-feedstock" xlink:title="r causact">
<ellipse fill="#fde725" stroke="black" cx="496.35" cy="-18" rx="57" ry="18"/>
<text xml:space="preserve" text-anchor="middle" x="496.35" y="-13.32" font-family="Times,serif" font-size="14.00">r causact</text>
</a>
</g>
</g>
<!-- r&#45;greta&#45;&gt;r&#45;causact -->
<g id="edge38" class="edge">
<title>r&#45;greta&#45;&gt;r&#45;causact</title>
<path fill="none" stroke="black" d="M496.35,-71.7C496.35,-64.41 496.35,-55.73 496.35,-47.54"/>
<polygon fill="black" stroke="black" points="499.85,-47.62 496.35,-37.62 492.85,-47.62 499.85,-47.62"/>
</g>
<!-- r&#45;qgisprocess -->
<g id="node43" class="node">
<title>r&#45;qgisprocess</title>
<g id="a_node43"><a xlink:href="https://github.com/conda-forge/r-qgisprocess-feedstock/pull/7" xlink:title="r qgisprocess ❎">
<ellipse fill="#31688e" stroke="black" cx="496.35" cy="-422" rx="93.82" ry="18"/>
<text xml:space="preserve" text-anchor="middle" x="496.35" y="-417.32" font-family="Times,serif" font-size="14.00" fill="white">r qgisprocess ❎</text>
</a>
</g>
</g>
<!-- r&#45;spam64 -->
<g id="node44" class="node">
<title>r&#45;spam64</title>
<g id="a_node44"><a xlink:href="https://github.com/conda-forge/r-spam64-feedstock/pull/2" xlink:title="r spam64 ❎">
<ellipse fill="#31688e" stroke="black" cx="496.35" cy="-350" rx="73.83" ry="18"/>
<text xml:space="preserve" text-anchor="middle" x="496.35" y="-345.32" font-family="Times,serif" font-size="14.00" fill="white">r spam64 ❎</text>
</a>
</g>
</g>
<!-- r&#45;qgisprocess&#45;&gt;r&#45;spam64 -->
<!-- r&#45;bigsnpr -->
<g id="node45" class="node">
<title>r&#45;bigsnpr</title>
<g id="a_node45"><a xlink:href="https://github.com/conda-forge/r-bigsnpr-feedstock/pull/6" xlink:title="r bigsnpr ❎">
<ellipse fill="#31688e" stroke="black" cx="496.35" cy="-278" rx="72.78" ry="18"/>
<text xml:space="preserve" text-anchor="middle" x="496.35" y="-273.32" font-family="Times,serif" font-size="14.00" fill="white">r bigsnpr ❎</text>
</a>
</g>
</g>
<!-- r&#45;spam64&#45;&gt;r&#45;bigsnpr -->
<!-- r&#45;volumodel -->
<g id="node46" class="node">
<title>r&#45;volumodel</title>
<g id="a_node46"><a xlink:href="https://github.com/conda-forge/r-volumodel-feedstock/pull/4" xlink:title="r volumodel ❎">
<ellipse fill="#31688e" stroke="black" cx="496.35" cy="-206" rx="85.93" ry="18"/>
<text xml:space="preserve" text-anchor="middle" x="496.35" y="-201.33" font-family="Times,serif" font-size="14.00" fill="white">r volumodel ❎</text>
</a>
</g>
</g>
<!-- r&#45;bigsnpr&#45;&gt;r&#45;volumodel -->
<!-- r&#45;dmfiller -->
<g id="node47" class="node">
<title>r&#45;dmfiller</title>
<g id="a_node47"><a xlink:href="https://github.com/conda-forge/r-dmfiller-feedstock/pull/2" xlink:title="r dmfiller ❎">
<ellipse fill="#31688e" stroke="black" cx="496.35" cy="-134" rx="73.3" ry="18"/>
<text xml:space="preserve" text-anchor="middle" x="496.35" y="-129.32" font-family="Times,serif" font-size="14.00" fill="white">r dmfiller ❎</text>
</a>
</g>
</g>
<!-- r&#45;volumodel&#45;&gt;r&#45;dmfiller -->
</g>
</svg>
