<?xml version="1.0" encoding="UTF-8" standalone="no"?>
<!DOCTYPE svg PUBLIC "-//W3C//DTD SVG 1.1//EN"
 "http://www.w3.org/Graphics/SVG/1.1/DTD/svg11.dtd">
<!-- Generated by graphviz version 13.1.2 (20250809.0930)
 -->
<!-- Pages: 1 -->
<svg width="1745pt" height="1428pt"
 viewBox="0.00 0.00 1745.00 1428.00" xmlns="http://www.w3.org/2000/svg" xmlns:xlink="http://www.w3.org/1999/xlink">
<g id="graph0" class="graph" transform="scale(1 1) rotate(0) translate(4 1424)">
<polygon fill="white" stroke="none" points="-4,4 -4,-1424 1740.54,-1424 1740.54,4 -4,4"/>
<!-- r&#45;rstan -->
<g id="node1" class="node">
<title>r&#45;rstan</title>
<g id="a_node1"><a xlink:href="https://github.com/conda-forge/r-rstan-feedstock/pull/40" xlink:title="r rstan ❎">
<ellipse fill="#31688e" stroke="black" cx="624.35" cy="-1222" rx="60.68" ry="18"/>
<text xml:space="preserve" text-anchor="middle" x="624.35" y="-1217.33" font-family="Times,serif" font-size="14.00" fill="white">r rstan ❎</text>
</a>
</g>
</g>
<!-- r&#45;shinystan -->
<g id="node2" class="node">
<title>r&#45;shinystan</title>
<g id="a_node2"><a xlink:href="https://github.com/conda-forge/r-shinystan-feedstock" xlink:title="r shinystan">
<ellipse fill="#fde725" stroke="black" cx="84.35" cy="-1150" rx="67.52" ry="18"/>
<text xml:space="preserve" text-anchor="middle" x="84.35" y="-1145.33" font-family="Times,serif" font-size="14.00">r shinystan</text>
</a>
</g>
</g>
<!-- r&#45;rstan&#45;&gt;r&#45;shinystan -->
<g id="edge1" class="edge">
<title>r&#45;rstan&#45;&gt;r&#45;shinystan</title>
<path fill="none" stroke="black" d="M566.65,-1215.99C479.58,-1208.05 309.58,-1191.09 166.35,-1168 159.67,-1166.92 152.7,-1165.67 145.77,-1164.35"/>
<polygon fill="black" stroke="black" points="146.94,-1161.01 136.45,-1162.52 145.59,-1167.88 146.94,-1161.01"/>
</g>
<!-- r&#45;rstanarm -->
<g id="node3" class="node">
<title>r&#45;rstanarm</title>
<g id="a_node3"><a xlink:href="https://github.com/conda-forge/r-rstanarm-feedstock" xlink:title="r rstanarm">
<ellipse fill="#fde725" stroke="black" cx="84.35" cy="-1078" rx="65.41" ry="18"/>
<text xml:space="preserve" text-anchor="middle" x="84.35" y="-1073.33" font-family="Times,serif" font-size="14.00">r rstanarm</text>
</a>
</g>
</g>
<!-- r&#45;rstan&#45;&gt;r&#45;rstanarm -->
<g id="edge2" class="edge">
<title>r&#45;rstan&#45;&gt;r&#45;rstanarm</title>
<path fill="none" stroke="black" d="M571.02,-1213.03C514.88,-1204.12 424.17,-1188.24 347.35,-1168 270.76,-1147.82 184.14,-1116.88 131.92,-1097.3"/>
<polygon fill="black" stroke="black" points="133.33,-1094.09 122.73,-1093.84 130.86,-1100.64 133.33,-1094.09"/>
</g>
<!-- r&#45;brms -->
<g id="node4" class="node">
<title>r&#45;brms</title>
<g id="a_node4"><a xlink:href="https://github.com/conda-forge/r-brms-feedstock" xlink:title="r brms">
<ellipse fill="#fde725" stroke="black" cx="212.35" cy="-1078" rx="44.9" ry="18"/>
<text xml:space="preserve" text-anchor="middle" x="212.35" y="-1073.33" font-family="Times,serif" font-size="14.00">r brms</text>
</a>
</g>
</g>
<!-- r&#45;rstan&#45;&gt;r&#45;brms -->
<g id="edge3" class="edge">
<title>r&#45;rstan&#45;&gt;r&#45;brms</title>
<path fill="none" stroke="black" d="M581.93,-1208.88C546.55,-1198.58 494.92,-1183.1 450.35,-1168 380.78,-1144.42 301.01,-1113.86 253.75,-1095.37"/>
<polygon fill="black" stroke="black" points="255.32,-1092.23 244.73,-1091.84 252.76,-1098.75 255.32,-1092.23"/>
</g>
<!-- r&#45;prophet -->
<g id="node5" class="node">
<title>r&#45;prophet</title>
<g id="a_node5"><a xlink:href="https://github.com/conda-forge/r-prophet-feedstock" xlink:title="r prophet">
<ellipse fill="#fde725" stroke="black" cx="518.35" cy="-1150" rx="58.57" ry="18"/>
<text xml:space="preserve" text-anchor="middle" x="518.35" y="-1145.33" font-family="Times,serif" font-size="14.00">r prophet</text>
</a>
</g>
</g>
<!-- r&#45;rstan&#45;&gt;r&#45;prophet -->
<g id="edge4" class="edge">
<title>r&#45;rstan&#45;&gt;r&#45;prophet</title>
<path fill="none" stroke="black" d="M600.3,-1205.12C585.93,-1195.63 567.47,-1183.44 551.71,-1173.03"/>
<polygon fill="black" stroke="black" points="553.85,-1170.25 543.57,-1167.66 549.99,-1176.09 553.85,-1170.25"/>
</g>
<!-- r&#45;metabma -->
<g id="node6" class="node">
<title>r&#45;metabma</title>
<g id="a_node6"><a xlink:href="https://github.com/conda-forge/r-metabma-feedstock" xlink:title="r metabma">
<ellipse fill="#fde725" stroke="black" cx="582.35" cy="-1006" rx="65.94" ry="18"/>
<text xml:space="preserve" text-anchor="middle" x="582.35" y="-1001.33" font-family="Times,serif" font-size="14.00">r metabma</text>
</a>
</g>
</g>
<!-- r&#45;rstan&#45;&gt;r&#45;metabma -->
<g id="edge5" class="edge">
<title>r&#45;rstan&#45;&gt;r&#45;metabma</title>
<path fill="none" stroke="black" d="M627.92,-1203.94C633.45,-1173.87 641.72,-1109.89 624.35,-1060 620.87,-1050.01 614.64,-1040.49 608.03,-1032.34"/>
<polygon fill="black" stroke="black" points="610.74,-1030.13 601.52,-1024.91 605.48,-1034.74 610.74,-1030.13"/>
</g>
<!-- r&#45;rlgt -->
<g id="node7" class="node">
<title>r&#45;rlgt</title>
<g id="a_node7"><a xlink:href="https://github.com/conda-forge/r-rlgt-feedstock" xlink:title="r rlgt">
<ellipse fill="#fde725" stroke="black" cx="667.35" cy="-934" rx="37.53" ry="18"/>
<text xml:space="preserve" text-anchor="middle" x="667.35" y="-929.33" font-family="Times,serif" font-size="14.00">r rlgt</text>
</a>
</g>
</g>
<!-- r&#45;rstan&#45;&gt;r&#45;rlgt -->
<g id="edge6" class="edge">
<title>r&#45;rstan&#45;&gt;r&#45;rlgt</title>
<path fill="none" stroke="black" d="M633.92,-1203.89C639.11,-1193.77 645.11,-1180.52 648.35,-1168 666.95,-1096.17 668.67,-1008.11 668.14,-963.63"/>
<polygon fill="black" stroke="black" points="671.64,-963.74 667.97,-953.8 664.64,-963.86 671.64,-963.74"/>
</g>
<!-- r&#45;bayesforecast -->
<g id="node8" class="node">
<title>r&#45;bayesforecast</title>
<g id="a_node8"><a xlink:href="https://github.com/conda-forge/r-bayesforecast-feedstock" xlink:title="r bayesforecast">
<ellipse fill="#fde725" stroke="black" cx="526.35" cy="-1078" rx="88.56" ry="18"/>
<text xml:space="preserve" text-anchor="middle" x="526.35" y="-1073.33" font-family="Times,serif" font-size="14.00">r bayesforecast</text>
</a>
</g>
</g>
<!-- r&#45;rstan&#45;&gt;r&#45;bayesforecast -->
<g id="edge7" class="edge">
<title>r&#45;rstan&#45;&gt;r&#45;bayesforecast</title>
<path fill="none" stroke="black" d="M619.51,-1203.78C613.68,-1184.95 602.58,-1154.47 586.35,-1132 578.69,-1121.39 568.55,-1111.41 558.78,-1103.04"/>
<polygon fill="black" stroke="black" points="561.12,-1100.43 551.18,-1096.79 556.68,-1105.84 561.12,-1100.43"/>
</g>
<!-- r&#45;jfa -->
<g id="node9" class="node">
<title>r&#45;jfa</title>
<g id="a_node9"><a xlink:href="https://github.com/conda-forge/r-jfa-feedstock" xlink:title="r jfa">
<ellipse fill="#fde725" stroke="black" cx="733.35" cy="-862" rx="31.74" ry="18"/>
<text xml:space="preserve" text-anchor="middle" x="733.35" y="-857.33" font-family="Times,serif" font-size="14.00">r jfa</text>
</a>
</g>
</g>
<!-- r&#45;rstan&#45;&gt;r&#45;jfa -->
<g id="edge8" class="edge">
<title>r&#45;rstan&#45;&gt;r&#45;jfa</title>
<path fill="none" stroke="black" d="M648.27,-1205.09C680.36,-1181.63 733.35,-1134.47 733.35,-1079 733.35,-1079 733.35,-1079 733.35,-1005 733.35,-965.74 733.35,-920.38 733.35,-891.69"/>
<polygon fill="black" stroke="black" points="736.85,-892 733.35,-882 729.85,-892 736.85,-892"/>
</g>
<!-- r&#45;stanova -->
<g id="node10" class="node">
<title>r&#45;stanova</title>
<g id="a_node10"><a xlink:href="https://github.com/conda-forge/r-stanova-feedstock" xlink:title="r stanova">
<ellipse fill="#fde725" stroke="black" cx="819.35" cy="-1150" rx="58.05" ry="18"/>
<text xml:space="preserve" text-anchor="middle" x="819.35" y="-1145.33" font-family="Times,serif" font-size="14.00">r stanova</text>
</a>
</g>
</g>
<!-- r&#45;rstan&#45;&gt;r&#45;stanova -->
<g id="edge9" class="edge">
<title>r&#45;rstan&#45;&gt;r&#45;stanova</title>
<path fill="none" stroke="black" d="M661.95,-1207.5C693.31,-1196.25 738.16,-1180.15 771.97,-1168.01"/>
<polygon fill="black" stroke="black" points="772.88,-1171.4 781.11,-1164.73 770.51,-1164.81 772.88,-1171.4"/>
</g>
<!-- r&#45;densestbayes -->
<g id="node11" class="node">
<title>r&#45;densestbayes</title>
<g id="a_node11"><a xlink:href="https://github.com/conda-forge/r-densestbayes-feedstock" xlink:title="r densestbayes">
<ellipse fill="#fde725" stroke="black" cx="905.35" cy="-1078" rx="86.98" ry="18"/>
<text xml:space="preserve" text-anchor="middle" x="905.35" y="-1073.33" font-family="Times,serif" font-size="14.00">r densestbayes</text>
</a>
</g>
</g>
<!-- r&#45;rstan&#45;&gt;r&#45;densestbayes -->
<g id="edge10" class="edge">
<title>r&#45;rstan&#45;&gt;r&#45;densestbayes</title>
<path fill="none" stroke="black" d="M682.79,-1216.55C751.04,-1210.14 858.19,-1195.87 886.35,-1168 902.07,-1152.45 906.28,-1127.3 906.87,-1107.7"/>
<polygon fill="black" stroke="black" points="910.37,-1107.85 906.84,-1097.86 903.37,-1107.87 910.37,-1107.85"/>
</g>
<!-- r&#45;shinystan&#45;&gt;r&#45;rstanarm -->
<g id="edge11" class="edge">
<title>r&#45;shinystan&#45;&gt;r&#45;rstanarm</title>
<path fill="none" stroke="black" d="M84.35,-1131.7C84.35,-1124.41 84.35,-1115.73 84.35,-1107.54"/>
<polygon fill="black" stroke="black" points="87.85,-1107.62 84.35,-1097.62 80.85,-1107.62 87.85,-1107.62"/>
</g>
<!-- r&#45;tidyposterior -->
<g id="node12" class="node">
<title>r&#45;tidyposterior</title>
<g id="a_node12"><a xlink:href="https://github.com/conda-forge/r-tidyposterior-feedstock" xlink:title="r tidyposterior">
<ellipse fill="#fde725" stroke="black" cx="84.35" cy="-1006" rx="84.35" ry="18"/>
<text xml:space="preserve" text-anchor="middle" x="84.35" y="-1001.33" font-family="Times,serif" font-size="14.00">r tidyposterior</text>
</a>
</g>
</g>
<!-- r&#45;rstanarm&#45;&gt;r&#45;tidyposterior -->
<g id="edge12" class="edge">
<title>r&#45;rstanarm&#45;&gt;r&#45;tidyposterior</title>
<path fill="none" stroke="black" d="M84.35,-1059.7C84.35,-1052.41 84.35,-1043.73 84.35,-1035.54"/>
<polygon fill="black" stroke="black" points="87.85,-1035.62 84.35,-1025.62 80.85,-1035.62 87.85,-1035.62"/>
</g>
<!-- r&#45;prophet&#45;&gt;r&#45;bayesforecast -->
<g id="edge13" class="edge">
<title>r&#45;prophet&#45;&gt;r&#45;bayesforecast</title>
<path fill="none" stroke="black" d="M520.33,-1131.7C521.16,-1124.41 522.16,-1115.73 523.09,-1107.54"/>
<polygon fill="black" stroke="black" points="526.57,-1107.94 524.23,-1097.61 519.61,-1107.15 526.57,-1107.94"/>
</g>
<!-- r&#45;modeltime -->
<g id="node13" class="node">
<title>r&#45;modeltime</title>
<g id="a_node13"><a xlink:href="https://github.com/conda-forge/r-modeltime-feedstock" xlink:title="r modeltime">
<ellipse fill="#fde725" stroke="black" cx="347.35" cy="-1078" rx="72.25" ry="18"/>
<text xml:space="preserve" text-anchor="middle" x="347.35" y="-1073.33" font-family="Times,serif" font-size="14.00">r modeltime</text>
</a>
</g>
</g>
<!-- r&#45;prophet&#45;&gt;r&#45;modeltime -->
<g id="edge14" class="edge">
<title>r&#45;prophet&#45;&gt;r&#45;modeltime</title>
<path fill="none" stroke="black" d="M484.16,-1135C458.41,-1124.46 422.79,-1109.88 394.36,-1098.24"/>
<polygon fill="black" stroke="black" points="395.83,-1095.06 385.25,-1094.51 393.18,-1101.54 395.83,-1095.06"/>
</g>
<!-- r&#45;tidybf -->
<g id="node14" class="node">
<title>r&#45;tidybf</title>
<g id="a_node14"><a xlink:href="https://github.com/conda-forge/r-tidybf-feedstock" xlink:title="r tidybf">
<ellipse fill="#fde725" stroke="black" cx="563.35" cy="-934" rx="48.58" ry="18"/>
<text xml:space="preserve" text-anchor="middle" x="563.35" y="-929.33" font-family="Times,serif" font-size="14.00">r tidybf</text>
</a>
</g>
</g>
<!-- r&#45;metabma&#45;&gt;r&#45;tidybf -->
<g id="edge15" class="edge">
<title>r&#45;metabma&#45;&gt;r&#45;tidybf</title>
<path fill="none" stroke="black" d="M577.66,-987.7C575.63,-980.24 573.21,-971.32 570.94,-962.97"/>
<polygon fill="black" stroke="black" points="574.39,-962.3 568.39,-953.57 567.63,-964.13 574.39,-962.3"/>
</g>
<!-- r&#45;reldist -->
<g id="node15" class="node">
<title>r&#45;reldist</title>
<g id="a_node15"><a xlink:href="https://github.com/conda-forge/r-reldist-feedstock" xlink:title="r reldist">
<ellipse fill="#fde725" stroke="black" cx="905.35" cy="-1006" rx="51.74" ry="18"/>
<text xml:space="preserve" text-anchor="middle" x="905.35" y="-1001.33" font-family="Times,serif" font-size="14.00">r reldist</text>
</a>
</g>
</g>
<!-- r&#45;densestbayes&#45;&gt;r&#45;reldist -->
<g id="edge16" class="edge">
<title>r&#45;densestbayes&#45;&gt;r&#45;reldist</title>
<path fill="none" stroke="black" d="M905.35,-1059.7C905.35,-1052.41 905.35,-1043.73 905.35,-1035.54"/>
<polygon fill="black" stroke="black" points="908.85,-1035.62 905.35,-1025.62 901.85,-1035.62 908.85,-1035.62"/>
</g>
<!-- r&#45;modeltime.resample -->
<g id="node30" class="node">
<title>r&#45;modeltime.resample</title>
<g id="a_node30"><a xlink:href="https://github.com/conda-forge/r-modeltime.resample-feedstock" xlink:title="r modeltime resample">
<ellipse fill="#fde725" stroke="black" cx="321.35" cy="-1006" rx="121.71" ry="18"/>
<text xml:space="preserve" text-anchor="middle" x="321.35" y="-1001.33" font-family="Times,serif" font-size="14.00">r modeltime resample</text>
</a>
</g>
</g>
<!-- r&#45;modeltime&#45;&gt;r&#45;modeltime.resample -->
<g id="edge27" class="edge">
<title>r&#45;modeltime&#45;&gt;r&#45;modeltime.resample</title>
<path fill="none" stroke="black" d="M340.93,-1059.7C338.12,-1052.15 334.77,-1043.12 331.63,-1034.68"/>
<polygon fill="black" stroke="black" points="335,-1033.68 328.23,-1025.52 328.43,-1036.12 335,-1033.68"/>
</g>
<!-- r&#45;modeltime.ensemble -->
<g id="node31" class="node">
<title>r&#45;modeltime.ensemble</title>
<g id="a_node31"><a xlink:href="https://github.com/conda-forge/r-modeltime.ensemble-feedstock" xlink:title="r modeltime ensemble">
<ellipse fill="#fde725" stroke="black" cx="351.35" cy="-934" rx="123.29" ry="18"/>
<text xml:space="preserve" text-anchor="middle" x="351.35" y="-929.33" font-family="Times,serif" font-size="14.00">r modeltime ensemble</text>
</a>
</g>
</g>
<!-- r&#45;modeltime&#45;&gt;r&#45;modeltime.ensemble -->
<g id="edge28" class="edge">
<title>r&#45;modeltime&#45;&gt;r&#45;modeltime.ensemble</title>
<path fill="none" stroke="black" d="M396.9,-1064.57C417.8,-1056.61 440.1,-1043.91 452.35,-1024 460.74,-1010.37 460.63,-1001.69 452.35,-988 443.82,-973.89 430.15,-963.35 415.59,-955.55"/>
<polygon fill="black" stroke="black" points="417.3,-952.49 406.78,-951.24 414.23,-958.78 417.3,-952.49"/>
</g>
<!-- r&#45;svd -->
<g id="node16" class="node">
<title>r&#45;svd</title>
<g id="a_node16"><a xlink:href="https://github.com/conda-forge/r-svd-feedstock/pull/24" xlink:title="r svd ❎">
<ellipse fill="#31688e" stroke="black" cx="1635.35" cy="-90" rx="51.74" ry="18"/>
<text xml:space="preserve" text-anchor="middle" x="1635.35" y="-85.33" font-family="Times,serif" font-size="14.00" fill="white">r svd ❎</text>
</a>
</g>
</g>
<!-- r&#45;esabcv -->
<g id="node17" class="node">
<title>r&#45;esabcv</title>
<g id="a_node17"><a xlink:href="https://github.com/conda-forge/r-esabcv-feedstock" xlink:title="r esabcv">
<ellipse fill="#fde725" stroke="black" cx="1635.35" cy="-18" rx="53.31" ry="18"/>
<text xml:space="preserve" text-anchor="middle" x="1635.35" y="-13.32" font-family="Times,serif" font-size="14.00">r esabcv</text>
</a>
</g>
</g>
<!-- r&#45;svd&#45;&gt;r&#45;esabcv -->
<g id="edge17" class="edge">
<title>r&#45;svd&#45;&gt;r&#45;esabcv</title>
<path fill="none" stroke="black" d="M1635.35,-71.7C1635.35,-64.41 1635.35,-55.73 1635.35,-47.54"/>
<polygon fill="black" stroke="black" points="1638.85,-47.62 1635.35,-37.62 1631.85,-47.62 1638.85,-47.62"/>
</g>
<!-- rpy2 -->
<g id="node18" class="node">
<title>rpy2</title>
<g id="a_node18"><a xlink:href="https://github.com/conda-forge/rpy2-feedstock/pull/140" xlink:title="rpy2 ❎">
<ellipse fill="#31688e" stroke="black" cx="1635.35" cy="-1402" rx="49.63" ry="18"/>
<text xml:space="preserve" text-anchor="middle" x="1635.35" y="-1397.33" font-family="Times,serif" font-size="14.00" fill="white">rpy2 ❎</text>
</a>
</g>
</g>
<!-- r&#45;xtensor -->
<g id="node19" class="node">
<title>r&#45;xtensor</title>
<g id="a_node19"><a xlink:href="https://github.com/conda-forge/r-xtensor-feedstock/pull/26" xlink:title="r xtensor ❎">
<ellipse fill="#31688e" stroke="black" cx="1635.35" cy="-1330" rx="72.25" ry="18"/>
<text xml:space="preserve" text-anchor="middle" x="1635.35" y="-1325.33" font-family="Times,serif" font-size="14.00" fill="white">r xtensor ❎</text>
</a>
</g>
</g>
<!-- rpy2&#45;&gt;r&#45;xtensor -->
<!-- r&#45;rinside -->
<g id="node28" class="node">
<title>r&#45;rinside</title>
<g id="a_node28"><a xlink:href="https://github.com/conda-forge/r-rinside-feedstock/pull/14" xlink:title="r rinside ❎">
<ellipse fill="#31688e" stroke="black" cx="1635.35" cy="-1258" rx="69.1" ry="18"/>
<text xml:space="preserve" text-anchor="middle" x="1635.35" y="-1253.33" font-family="Times,serif" font-size="14.00" fill="white">r rinside ❎</text>
</a>
</g>
</g>
<!-- r&#45;xtensor&#45;&gt;r&#45;rinside -->
<!-- r&#45;geigen -->
<g id="node20" class="node">
<title>r&#45;geigen</title>
<g id="a_node20"><a xlink:href="https://github.com/conda-forge/r-geigen-feedstock/pull/14" xlink:title="r geigen ❎">
<ellipse fill="#31688e" stroke="black" cx="496.35" cy="-90" rx="68.04" ry="18"/>
<text xml:space="preserve" text-anchor="middle" x="496.35" y="-85.33" font-family="Times,serif" font-size="14.00" fill="white">r geigen ❎</text>
</a>
</g>
</g>
<!-- r&#45;conicfit -->
<g id="node21" class="node">
<title>r&#45;conicfit</title>
<g id="a_node21"><a xlink:href="https://github.com/conda-forge/r-conicfit-feedstock" xlink:title="r conicfit">
<ellipse fill="#fde725" stroke="black" cx="496.35" cy="-18" rx="55.42" ry="18"/>
<text xml:space="preserve" text-anchor="middle" x="496.35" y="-13.32" font-family="Times,serif" font-size="14.00">r conicfit</text>
</a>
</g>
</g>
<!-- r&#45;geigen&#45;&gt;r&#45;conicfit -->
<g id="edge19" class="edge">
<title>r&#45;geigen&#45;&gt;r&#45;conicfit</title>
<path fill="none" stroke="black" d="M496.35,-71.7C496.35,-64.41 496.35,-55.73 496.35,-47.54"/>
<polygon fill="black" stroke="black" points="499.85,-47.62 496.35,-37.62 492.85,-47.62 499.85,-47.62"/>
</g>
<!-- r&#45;quanteda -->
<g id="node22" class="node">
<title>r&#45;quanteda</title>
<g id="a_node22"><a xlink:href="https://github.com/conda-forge/r-quanteda-feedstock/pull/44" xlink:title="r quanteda ❎">
<ellipse fill="#31688e" stroke="black" cx="1169.35" cy="-1222" rx="81.2" ry="18"/>
<text xml:space="preserve" text-anchor="middle" x="1169.35" y="-1217.33" font-family="Times,serif" font-size="14.00" fill="white">r quanteda ❎</text>
</a>
</g>
</g>
<!-- r&#45;stm -->
<g id="node23" class="node">
<title>r&#45;stm</title>
<g id="a_node23"><a xlink:href="https://github.com/conda-forge/r-stm-feedstock" xlink:title="r stm">
<ellipse fill="#fde725" stroke="black" cx="1038.35" cy="-1150" rx="38.06" ry="18"/>
<text xml:space="preserve" text-anchor="middle" x="1038.35" y="-1145.33" font-family="Times,serif" font-size="14.00">r stm</text>
</a>
</g>
</g>
<!-- r&#45;quanteda&#45;&gt;r&#45;stm -->
<g id="edge20" class="edge">
<title>r&#45;quanteda&#45;&gt;r&#45;stm</title>
<path fill="none" stroke="black" d="M1139.3,-1204.94C1119.52,-1194.37 1093.58,-1180.51 1072.95,-1169.49"/>
<polygon fill="black" stroke="black" points="1074.81,-1166.51 1064.34,-1164.88 1071.51,-1172.68 1074.81,-1166.51"/>
</g>
<!-- r&#45;textstem -->
<g id="node24" class="node">
<title>r&#45;textstem</title>
<g id="a_node24"><a xlink:href="https://github.com/conda-forge/r-textstem-feedstock" xlink:title="r textstem">
<ellipse fill="#fde725" stroke="black" cx="1077.35" cy="-1078" rx="63.84" ry="18"/>
<text xml:space="preserve" text-anchor="middle" x="1077.35" y="-1073.33" font-family="Times,serif" font-size="14.00">r textstem</text>
</a>
</g>
</g>
<!-- r&#45;quanteda&#45;&gt;r&#45;textstem -->
<g id="edge21" class="edge">
<title>r&#45;quanteda&#45;&gt;r&#45;textstem</title>
<path fill="none" stroke="black" d="M1158.26,-1203.87C1142.44,-1179.46 1113.26,-1134.43 1094.61,-1105.64"/>
<polygon fill="black" stroke="black" points="1097.69,-1103.95 1089.31,-1097.46 1091.81,-1107.76 1097.69,-1103.95"/>
</g>
<!-- r&#45;quanteda.textplots -->
<g id="node25" class="node">
<title>r&#45;quanteda.textplots</title>
<g id="a_node25"><a xlink:href="https://github.com/conda-forge/r-quanteda.textplots-feedstock" xlink:title="r quanteda textplots">
<ellipse fill="#fde725" stroke="black" cx="1117.35" cy="-1006" rx="113.82" ry="18"/>
<text xml:space="preserve" text-anchor="middle" x="1117.35" y="-1001.33" font-family="Times,serif" font-size="14.00">r quanteda textplots</text>
</a>
</g>
</g>
<!-- r&#45;quanteda&#45;&gt;r&#45;quanteda.textplots -->
<g id="edge22" class="edge">
<title>r&#45;quanteda&#45;&gt;r&#45;quanteda.textplots</title>
<path fill="none" stroke="black" d="M1169.75,-1203.53C1169.9,-1173.36 1167.86,-1109.93 1150.35,-1060 1147.14,-1050.84 1142.14,-1041.6 1136.99,-1033.46"/>
<polygon fill="black" stroke="black" points="1140.06,-1031.76 1131.59,-1025.41 1134.25,-1035.66 1140.06,-1031.76"/>
</g>
<!-- r&#45;quanteda.textstats -->
<g id="node26" class="node">
<title>r&#45;quanteda.textstats</title>
<g id="a_node26"><a xlink:href="https://github.com/conda-forge/r-quanteda.textstats-feedstock" xlink:title="r quanteda textstats">
<ellipse fill="#fde725" stroke="black" cx="1259.35" cy="-934" rx="113.82" ry="18"/>
<text xml:space="preserve" text-anchor="middle" x="1259.35" y="-929.33" font-family="Times,serif" font-size="14.00">r quanteda textstats</text>
</a>
</g>
</g>
<!-- r&#45;quanteda&#45;&gt;r&#45;quanteda.textstats -->
<g id="edge23" class="edge">
<title>r&#45;quanteda&#45;&gt;r&#45;quanteda.textstats</title>
<path fill="none" stroke="black" d="M1176.53,-1203.6C1190.36,-1169.58 1221.04,-1091.64 1240.35,-1024 1246.06,-1004 1250.92,-981.04 1254.3,-963.45"/>
<polygon fill="black" stroke="black" points="1257.72,-964.19 1256.11,-953.72 1250.84,-962.91 1257.72,-964.19"/>
</g>
<!-- r&#45;quanteda.textmodels -->
<g id="node27" class="node">
<title>r&#45;quanteda.textmodels</title>
<g id="a_node27"><a xlink:href="https://github.com/conda-forge/r-quanteda.textmodels-feedstock" xlink:title="r quanteda textmodels">
<ellipse fill="#fde725" stroke="black" cx="1401.35" cy="-862" rx="124.86" ry="18"/>
<text xml:space="preserve" text-anchor="middle" x="1401.35" y="-857.33" font-family="Times,serif" font-size="14.00">r quanteda textmodels</text>
</a>
</g>
</g>
<!-- r&#45;quanteda&#45;&gt;r&#45;quanteda.textmodels -->
<g id="edge24" class="edge">
<title>r&#45;quanteda&#45;&gt;r&#45;quanteda.textmodels</title>
<path fill="none" stroke="black" d="M1232.44,-1210.39C1301.14,-1194.81 1401.35,-1158.45 1401.35,-1079 1401.35,-1079 1401.35,-1079 1401.35,-1005 1401.35,-965.74 1401.35,-920.38 1401.35,-891.69"/>
<polygon fill="black" stroke="black" points="1404.85,-892 1401.35,-882 1397.85,-892 1404.85,-892"/>
</g>
<!-- yggdrasil -->
<g id="node29" class="node">
<title>yggdrasil</title>
<g id="a_node29"><a xlink:href="https://github.com/conda-forge/yggdrasil-feedstock/pull/50" xlink:title="yggdrasil ❎">
<ellipse fill="#31688e" stroke="black" cx="1635.35" cy="-1186" rx="73.3" ry="18"/>
<text xml:space="preserve" text-anchor="middle" x="1635.35" y="-1181.33" font-family="Times,serif" font-size="14.00" fill="white">yggdrasil ❎</text>
</a>
</g>
</g>
<!-- r&#45;rinside&#45;&gt;yggdrasil -->
<!-- r&#45;vsurf -->
<g id="node32" class="node">
<title>r&#45;vsurf</title>
<g id="a_node32"><a xlink:href="https://github.com/conda-forge/r-vsurf-feedstock/pull/7" xlink:title="r vsurf ✓">
<ellipse fill="#31688e" stroke="black" cx="1635.35" cy="-1114" rx="52.79" ry="18"/>
<text xml:space="preserve" text-anchor="middle" x="1635.35" y="-1109.33" font-family="Times,serif" font-size="14.00" fill="white">r vsurf ✓</text>
</a>
</g>
</g>
<!-- yggdrasil&#45;&gt;r&#45;vsurf -->
<!-- r&#45;modeltime.resample&#45;&gt;r&#45;modeltime.ensemble -->
<g id="edge33" class="edge">
<title>r&#45;modeltime.resample&#45;&gt;r&#45;modeltime.ensemble</title>
<path fill="none" stroke="black" d="M328.77,-987.7C332,-980.15 335.87,-971.12 339.49,-962.68"/>
<polygon fill="black" stroke="black" points="342.7,-964.07 343.43,-953.5 336.27,-961.31 342.7,-964.07"/>
</g>
<!-- r&#45;metaplus -->
<g id="node33" class="node">
<title>r&#45;metaplus</title>
<g id="a_node33"><a xlink:href="https://github.com/conda-forge/r-metaplus-feedstock/pull/11" xlink:title="r metaplus ❎">
<ellipse fill="#31688e" stroke="black" cx="1635.35" cy="-1042" rx="80.67" ry="18"/>
<text xml:space="preserve" text-anchor="middle" x="1635.35" y="-1037.33" font-family="Times,serif" font-size="14.00" fill="white">r metaplus ❎</text>
</a>
</g>
</g>
<!-- r&#45;vsurf&#45;&gt;r&#45;metaplus -->
<!-- r&#45;destinie -->
<g id="node34" class="node">
<title>r&#45;destinie</title>
<g id="a_node34"><a xlink:href="https://github.com/conda-forge/r-destinie-feedstock/pull/9" xlink:title="r destinie ❎">
<ellipse fill="#31688e" stroke="black" cx="1635.35" cy="-970" rx="74.36" ry="18"/>
<text xml:space="preserve" text-anchor="middle" x="1635.35" y="-965.33" font-family="Times,serif" font-size="14.00" fill="white">r destinie ❎</text>
</a>
</g>
</g>
<!-- r&#45;metaplus&#45;&gt;r&#45;destinie -->
<!-- r&#45;wto -->
<g id="node35" class="node">
<title>r&#45;wto</title>
<g id="a_node35"><a xlink:href="https://github.com/conda-forge/r-wto-feedstock/pull/8" xlink:title="r wto ❎">
<ellipse fill="#31688e" stroke="black" cx="1635.35" cy="-898" rx="52.79" ry="18"/>
<text xml:space="preserve" text-anchor="middle" x="1635.35" y="-893.33" font-family="Times,serif" font-size="14.00" fill="white">r wto ❎</text>
</a>
</g>
</g>
<!-- r&#45;destinie&#45;&gt;r&#45;wto -->
<!-- harp -->
<g id="node36" class="node">
<title>harp</title>
<g id="a_node36"><a xlink:href="https://github.com/conda-forge/harp-feedstock/pull/51" xlink:title="harp ❎">
<ellipse fill="#31688e" stroke="black" cx="1635.35" cy="-826" rx="49.63" ry="18"/>
<text xml:space="preserve" text-anchor="middle" x="1635.35" y="-821.33" font-family="Times,serif" font-size="14.00" fill="white">harp ❎</text>
</a>
</g>
</g>
<!-- r&#45;wto&#45;&gt;harp -->
<!-- r&#45;juliacall -->
<g id="node37" class="node">
<title>r&#45;juliacall</title>
<g id="a_node37"><a xlink:href="https://github.com/conda-forge/r-juliacall-feedstock/pull/7" xlink:title="r juliacall ❎">
<ellipse fill="#31688e" stroke="black" cx="1635.35" cy="-754" rx="73.3" ry="18"/>
<text xml:space="preserve" text-anchor="middle" x="1635.35" y="-749.33" font-family="Times,serif" font-size="14.00" fill="white">r juliacall ❎</text>
</a>
</g>
</g>
<!-- harp&#45;&gt;r&#45;juliacall -->
<!-- rstudio -->
<g id="node38" class="node">
<title>rstudio</title>
<g id="a_node38"><a xlink:href="https://github.com/conda-forge/rstudio-feedstock/pull/45" xlink:title="rstudio ❎">
<ellipse fill="#31688e" stroke="black" cx="1635.35" cy="-682" rx="62.26" ry="18"/>
<text xml:space="preserve" text-anchor="middle" x="1635.35" y="-677.33" font-family="Times,serif" font-size="14.00" fill="white">rstudio ❎</text>
</a>
</g>
</g>
<!-- r&#45;juliacall&#45;&gt;rstudio -->
<!-- r&#45;geoprocessor -->
<g id="node39" class="node">
<title>r&#45;geoprocessor</title>
<g id="a_node39"><a xlink:href="https://github.com/conda-forge/r-geoprocessor-feedstock/pull/9" xlink:title="r geoprocessor ❎">
<ellipse fill="#31688e" stroke="black" cx="1635.35" cy="-422" rx="101.19" ry="18"/>
<text xml:space="preserve" text-anchor="middle" x="1635.35" y="-417.32" font-family="Times,serif" font-size="14.00" fill="white">r geoprocessor ❎</text>
</a>
</g>
</g>
<!-- r&#45;climate4r -->
<g id="node40" class="node">
<title>r&#45;climate4r</title>
<g id="a_node40"><a xlink:href="https://github.com/conda-forge/r-climate4r-feedstock" xlink:title="r climate4r">
<ellipse fill="#fde725" stroke="black" cx="1635.35" cy="-350" rx="66.99" ry="18"/>
<text xml:space="preserve" text-anchor="middle" x="1635.35" y="-345.32" font-family="Times,serif" font-size="14.00">r climate4r</text>
</a>
</g>
</g>
<!-- r&#45;geoprocessor&#45;&gt;r&#45;climate4r -->
<g id="edge37" class="edge">
<title>r&#45;geoprocessor&#45;&gt;r&#45;climate4r</title>
<path fill="none" stroke="black" d="M1635.35,-403.7C1635.35,-396.41 1635.35,-387.73 1635.35,-379.54"/>
<polygon fill="black" stroke="black" points="1638.85,-379.62 1635.35,-369.62 1631.85,-379.62 1638.85,-379.62"/>
</g>
<!-- r&#45;fcps -->
<g id="node41" class="node">
<title>r&#45;fcps</title>
<g id="a_node41"><a xlink:href="https://github.com/conda-forge/r-fcps-feedstock/pull/5" xlink:title="r fcps ❎">
<ellipse fill="#31688e" stroke="black" cx="496.35" cy="-638" rx="54.89" ry="18"/>
<text xml:space="preserve" text-anchor="middle" x="496.35" y="-633.33" font-family="Times,serif" font-size="14.00" fill="white">r fcps ❎</text>
</a>
</g>
</g>
<!-- r&#45;evalhyd -->
<g id="node42" class="node">
<title>r&#45;evalhyd</title>
<g id="a_node42"><a xlink:href="https://github.com/conda-forge/r-evalhyd-feedstock/pull/7" xlink:title="r evalhyd ❎">
<ellipse fill="#31688e" stroke="black" cx="496.35" cy="-566" rx="73.3" ry="18"/>
<text xml:space="preserve" text-anchor="middle" x="496.35" y="-561.33" font-family="Times,serif" font-size="14.00" fill="white">r evalhyd ❎</text>
</a>
</g>
</g>
<!-- r&#45;fcps&#45;&gt;r&#45;evalhyd -->
<!-- r&#45;qgisprocess -->
<g id="node43" class="node">
<title>r&#45;qgisprocess</title>
<g id="a_node43"><a xlink:href="https://github.com/conda-forge/r-qgisprocess-feedstock/pull/7" xlink:title="r qgisprocess ❎">
<ellipse fill="#31688e" stroke="black" cx="496.35" cy="-494" rx="93.82" ry="18"/>
<text xml:space="preserve" text-anchor="middle" x="496.35" y="-489.32" font-family="Times,serif" font-size="14.00" fill="white">r qgisprocess ❎</text>
</a>
</g>
</g>
<!-- r&#45;evalhyd&#45;&gt;r&#45;qgisprocess -->
<!-- r&#45;spam64 -->
<g id="node46" class="node">
<title>r&#45;spam64</title>
<g id="a_node46"><a xlink:href="https://github.com/conda-forge/r-spam64-feedstock/pull/2" xlink:title="r spam64 ❎">
<ellipse fill="#31688e" stroke="black" cx="496.35" cy="-422" rx="73.83" ry="18"/>
<text xml:space="preserve" text-anchor="middle" x="496.35" y="-417.32" font-family="Times,serif" font-size="14.00" fill="white">r spam64 ❎</text>
</a>
</g>
</g>
<!-- r&#45;qgisprocess&#45;&gt;r&#45;spam64 -->
<!-- r&#45;greta -->
<g id="node44" class="node">
<title>r&#45;greta</title>
<g id="a_node44"><a xlink:href="https://github.com/conda-forge/r-greta-feedstock/pull/6" xlink:title="r greta ❎">
<ellipse fill="#31688e" stroke="black" cx="1263.35" cy="-90" rx="61.2" ry="18"/>
<text xml:space="preserve" text-anchor="middle" x="1263.35" y="-85.33" font-family="Times,serif" font-size="14.00" fill="white">r greta ❎</text>
</a>
</g>
</g>
<!-- r&#45;causact -->
<g id="node45" class="node">
<title>r&#45;causact</title>
<g id="a_node45"><a xlink:href="https://github.com/conda-forge/r-causact-feedstock" xlink:title="r causact">
<ellipse fill="#fde725" stroke="black" cx="1263.35" cy="-18" rx="57" ry="18"/>
<text xml:space="preserve" text-anchor="middle" x="1263.35" y="-13.32" font-family="Times,serif" font-size="14.00">r causact</text>
</a>
</g>
</g>
<!-- r&#45;greta&#45;&gt;r&#45;causact -->
<g id="edge40" class="edge">
<title>r&#45;greta&#45;&gt;r&#45;causact</title>
<path fill="none" stroke="black" d="M1263.35,-71.7C1263.35,-64.41 1263.35,-55.73 1263.35,-47.54"/>
<polygon fill="black" stroke="black" points="1266.85,-47.62 1263.35,-37.62 1259.85,-47.62 1266.85,-47.62"/>
</g>
<!-- r&#45;bigsnpr -->
<g id="node47" class="node">
<title>r&#45;bigsnpr</title>
<g id="a_node47"><a xlink:href="https://github.com/conda-forge/r-bigsnpr-feedstock/pull/6" xlink:title="r bigsnpr ❎">
<ellipse fill="#31688e" stroke="black" cx="496.35" cy="-350" rx="72.78" ry="18"/>
<text xml:space="preserve" text-anchor="middle" x="496.35" y="-345.32" font-family="Times,serif" font-size="14.00" fill="white">r bigsnpr ❎</text>
</a>
</g>
</g>
<!-- r&#45;spam64&#45;&gt;r&#45;bigsnpr -->
<!-- r&#45;volumodel -->
<g id="node48" class="node">
<title>r&#45;volumodel</title>
<g id="a_node48"><a xlink:href="https://github.com/conda-forge/r-volumodel-feedstock/pull/4" xlink:title="r volumodel ❎">
<ellipse fill="#31688e" stroke="black" cx="496.35" cy="-278" rx="85.93" ry="18"/>
<text xml:space="preserve" text-anchor="middle" x="496.35" y="-273.32" font-family="Times,serif" font-size="14.00" fill="white">r volumodel ❎</text>
</a>
</g>
</g>
<!-- r&#45;bigsnpr&#45;&gt;r&#45;volumodel -->
<!-- r&#45;smartsnp -->
<g id="node53" class="node">
<title>r&#45;smartsnp</title>
<g id="a_node53"><a xlink:href="https://github.com/conda-forge/r-smartsnp-feedstock/pull/3" xlink:title="r smartsnp ❎">
<ellipse fill="#31688e" stroke="black" cx="496.35" cy="-206" rx="81.72" ry="18"/>
<text xml:space="preserve" text-anchor="middle" x="496.35" y="-201.33" font-family="Times,serif" font-size="14.00" fill="white">r smartsnp ❎</text>
</a>
</g>
</g>
<!-- r&#45;volumodel&#45;&gt;r&#45;smartsnp -->
<!-- r&#45;nlmixr2plot -->
<g id="node49" class="node">
<title>r&#45;nlmixr2plot</title>
<g id="a_node49"><a xlink:href="https://github.com/conda-forge/r-nlmixr2plot-feedstock" xlink:title="r nlmixr2plot">
<ellipse fill="#fde725" stroke="black" cx="1243.35" cy="-350" rx="77.52" ry="18"/>
<text xml:space="preserve" text-anchor="middle" x="1243.35" y="-345.32" font-family="Times,serif" font-size="14.00">r nlmixr2plot</text>
</a>
</g>
</g>
<!-- r&#45;nlmixr2 -->
<g id="node50" class="node">
<title>r&#45;nlmixr2</title>
<g id="a_node50"><a xlink:href="https://github.com/conda-forge/r-nlmixr2-feedstock" xlink:title="r nlmixr2">
<ellipse fill="#fde725" stroke="black" cx="1243.35" cy="-278" rx="58.05" ry="18"/>
<text xml:space="preserve" text-anchor="middle" x="1243.35" y="-273.32" font-family="Times,serif" font-size="14.00">r nlmixr2</text>
</a>
</g>
</g>
<!-- r&#45;nlmixr2plot&#45;&gt;r&#45;nlmixr2 -->
<g id="edge44" class="edge">
<title>r&#45;nlmixr2plot&#45;&gt;r&#45;nlmixr2</title>
<path fill="none" stroke="black" d="M1243.35,-331.7C1243.35,-324.41 1243.35,-315.73 1243.35,-307.54"/>
<polygon fill="black" stroke="black" points="1246.85,-307.62 1243.35,-297.62 1239.85,-307.62 1246.85,-307.62"/>
</g>
<!-- r&#45;nlmixr2extra -->
<g id="node51" class="node">
<title>r&#45;nlmixr2extra</title>
<g id="a_node51"><a xlink:href="https://github.com/conda-forge/r-nlmixr2extra-feedstock" xlink:title="r nlmixr2extra">
<ellipse fill="#fde725" stroke="black" cx="1318.35" cy="-422" rx="84.35" ry="18"/>
<text xml:space="preserve" text-anchor="middle" x="1318.35" y="-417.32" font-family="Times,serif" font-size="14.00">r nlmixr2extra</text>
</a>
</g>
</g>
<!-- r&#45;nlmixr2extra&#45;&gt;r&#45;nlmixr2plot -->
<g id="edge45" class="edge">
<title>r&#45;nlmixr2extra&#45;&gt;r&#45;nlmixr2plot</title>
<path fill="none" stroke="black" d="M1300.2,-404.05C1290.99,-395.46 1279.63,-384.86 1269.49,-375.4"/>
<polygon fill="black" stroke="black" points="1272.15,-373.09 1262.45,-368.82 1267.37,-378.2 1272.15,-373.09"/>
</g>
<!-- r&#45;nlmixr2extra&#45;&gt;r&#45;nlmixr2 -->
<g id="edge46" class="edge">
<title>r&#45;nlmixr2extra&#45;&gt;r&#45;nlmixr2</title>
<path fill="none" stroke="black" d="M1326.6,-403.76C1334.33,-384.92 1342.95,-354.43 1330.35,-332 1321.68,-316.57 1306.5,-305.1 1291.21,-296.86"/>
<polygon fill="black" stroke="black" points="1293.09,-293.88 1282.58,-292.57 1289.98,-300.15 1293.09,-293.88"/>
</g>
<!-- r&#45;nlmixr2est -->
<g id="node52" class="node">
<title>r&#45;nlmixr2est</title>
<g id="a_node52"><a xlink:href="https://github.com/conda-forge/r-nlmixr2est-feedstock/pull/16" xlink:title="r nlmixr2est ✓">
<ellipse fill="#31688e" stroke="black" cx="1206.35" cy="-494" rx="81.2" ry="18"/>
<text xml:space="preserve" text-anchor="middle" x="1206.35" y="-489.32" font-family="Times,serif" font-size="14.00" fill="white">r nlmixr2est ✓</text>
</a>
</g>
</g>
<!-- r&#45;nlmixr2est&#45;&gt;r&#45;nlmixr2plot -->
<g id="edge47" class="edge">
<title>r&#45;nlmixr2est&#45;&gt;r&#45;nlmixr2plot</title>
<path fill="none" stroke="black" d="M1209.41,-475.79C1212.75,-457.76 1218.55,-428.68 1225.35,-404 1227.63,-395.72 1230.48,-386.84 1233.24,-378.77"/>
<polygon fill="black" stroke="black" points="1236.5,-380.05 1236.5,-369.46 1229.89,-377.74 1236.5,-380.05"/>
</g>
<!-- r&#45;nlmixr2est&#45;&gt;r&#45;nlmixr2 -->
<g id="edge48" class="edge">
<title>r&#45;nlmixr2est&#45;&gt;r&#45;nlmixr2</title>
<path fill="none" stroke="black" d="M1192.67,-476.08C1169.85,-445.68 1129.12,-380.48 1156.35,-332 1165.02,-316.57 1180.21,-305.1 1195.49,-296.86"/>
<polygon fill="black" stroke="black" points="1196.73,-300.15 1204.13,-292.57 1193.61,-293.88 1196.73,-300.15"/>
</g>
<!-- r&#45;nlmixr2est&#45;&gt;r&#45;nlmixr2extra -->
<g id="edge49" class="edge">
<title>r&#45;nlmixr2est&#45;&gt;r&#45;nlmixr2extra</title>
<path fill="none" stroke="black" d="M1232.61,-476.59C1247.39,-467.35 1266.06,-455.68 1282.2,-445.59"/>
<polygon fill="black" stroke="black" points="1283.96,-448.62 1290.59,-440.35 1280.25,-442.69 1283.96,-448.62"/>
</g>
<!-- r&#45;dmfiller -->
<g id="node54" class="node">
<title>r&#45;dmfiller</title>
<g id="a_node54"><a xlink:href="https://github.com/conda-forge/r-dmfiller-feedstock/pull/2" xlink:title="r dmfiller ❎">
<ellipse fill="#31688e" stroke="black" cx="496.35" cy="-134" rx="73.3" ry="18"/>
<text xml:space="preserve" text-anchor="middle" x="496.35" y="-129.32" font-family="Times,serif" font-size="14.00" fill="white">r dmfiller ❎</text>
</a>
</g>
</g>
<!-- r&#45;smartsnp&#45;&gt;r&#45;dmfiller -->
</g>
</svg>
