<?xml version="1.0" encoding="UTF-8" standalone="no"?>
<!DOCTYPE svg PUBLIC "-//W3C//DTD SVG 1.1//EN"
 "http://www.w3.org/Graphics/SVG/1.1/DTD/svg11.dtd">
<!-- Generated by graphviz version 12.2.1 (20250203.1708)
 -->
<!-- Pages: 1 -->
<svg width="266pt" height="116pt"
 viewBox="0.00 0.00 266.30 116.00" xmlns="http://www.w3.org/2000/svg" xmlns:xlink="http://www.w3.org/1999/xlink">
<g id="graph0" class="graph" transform="scale(1 1) rotate(0) translate(4 112)">
<polygon fill="white" stroke="none" points="-4,4 -4,-112 262.3,-112 262.3,4 -4,4"/>
<!-- ucx&#45;split -->
<g id="node1" class="node">
<title>ucx&#45;split</title>
<g id="a_node1"><a xlink:href="https://github.com/conda-forge/ucx-split-feedstock/pull/210" xlink:title="ucx split ✓">
<ellipse fill="#31688e" stroke="black" cx="61.73" cy="-90" rx="61.73" ry="18"/>
<text text-anchor="middle" x="61.73" y="-85.33" font-family="Times,serif" font-size="14.00" fill="white">ucx split ✓</text>
</a>
</g>
</g>
<!-- holoscan -->
<g id="node3" class="node">
<title>holoscan</title>
<g id="a_node3"><a xlink:href="https://github.com/conda-forge/holoscan-feedstock" xlink:title="holoscan">
<ellipse fill="#fde725" stroke="black" cx="130.73" cy="-18" rx="54.89" ry="18"/>
<text text-anchor="middle" x="130.73" y="-13.32" font-family="Times,serif" font-size="14.00">holoscan</text>
</a>
</g>
</g>
<!-- ucx&#45;split&#45;&gt;holoscan -->
<g id="edge1" class="edge">
<title>ucx&#45;split&#45;&gt;holoscan</title>
<path fill="none" stroke="black" d="M78.08,-72.41C86.59,-63.78 97.15,-53.06 106.58,-43.5"/>
<polygon fill="black" stroke="black" points="108.91,-46.13 113.43,-36.55 103.92,-41.21 108.91,-46.13"/>
</g>
<!-- libcufile -->
<g id="node2" class="node">
<title>libcufile</title>
<g id="a_node2"><a xlink:href="https://github.com/conda-forge/libcufile-feedstock/pull/32" xlink:title="libcufile ✓">
<ellipse fill="#31688e" stroke="black" cx="199.73" cy="-90" rx="58.57" ry="18"/>
<text text-anchor="middle" x="199.73" y="-85.33" font-family="Times,serif" font-size="14.00" fill="white">libcufile ✓</text>
</a>
</g>
</g>
<!-- libcufile&#45;&gt;holoscan -->
<g id="edge2" class="edge">
<title>libcufile&#45;&gt;holoscan</title>
<path fill="none" stroke="black" d="M183.38,-72.41C174.87,-63.78 164.31,-53.06 154.88,-43.5"/>
<polygon fill="black" stroke="black" points="157.54,-41.21 148.03,-36.55 152.55,-46.13 157.54,-41.21"/>
</g>
</g>
</svg>
