<?xml version="1.0" encoding="UTF-8" standalone="no"?>
<!DOCTYPE svg PUBLIC "-//W3C//DTD SVG 1.1//EN"
 "http://www.w3.org/Graphics/SVG/1.1/DTD/svg11.dtd">
<!-- Generated by graphviz version 12.2.1 (20250203.1708)
 -->
<!-- Pages: 1 -->
<svg width="348pt" height="116pt"
 viewBox="0.00 0.00 348.47 116.00" xmlns="http://www.w3.org/2000/svg" xmlns:xlink="http://www.w3.org/1999/xlink">
<g id="graph0" class="graph" transform="scale(1 1) rotate(0) translate(4 112)">
<polygon fill="white" stroke="none" points="-4,4 -4,-112 344.47,-112 344.47,4 -4,4"/>
<!-- ucx&#45;split -->
<g id="node1" class="node">
<title>ucx&#45;split</title>
<g id="a_node1"><a xlink:href="https://github.com/conda-forge/ucx-split-feedstock" xlink:title="ucx split">
<ellipse fill="#35b779" stroke="black" cx="173.68" cy="-90" rx="53.84" ry="18"/>
<text text-anchor="middle" x="173.68" y="-85.33" font-family="Times,serif" font-size="14.00">ucx split</text>
</a>
</g>
</g>
<!-- holoscan -->
<g id="node4" class="node">
<title>holoscan</title>
<g id="a_node4"><a xlink:href="https://github.com/conda-forge/holoscan-feedstock" xlink:title="holoscan">
<ellipse fill="#fde725" stroke="black" cx="111.68" cy="-18" rx="54.89" ry="18"/>
<text text-anchor="middle" x="111.68" y="-13.32" font-family="Times,serif" font-size="14.00">holoscan</text>
</a>
</g>
</g>
<!-- ucx&#45;split&#45;&gt;holoscan -->
<g id="edge1" class="edge">
<title>ucx&#45;split&#45;&gt;holoscan</title>
<path fill="none" stroke="black" d="M158.99,-72.41C151.5,-63.95 142.23,-53.49 133.89,-44.08"/>
<polygon fill="black" stroke="black" points="136.52,-41.77 127.27,-36.6 131.28,-46.41 136.52,-41.77"/>
</g>
<!-- libcufile -->
<g id="node2" class="node">
<title>libcufile</title>
<g id="a_node2"><a xlink:href="https://github.com/conda-forge/libcufile-feedstock" xlink:title="libcufile">
<ellipse fill="#35b779" stroke="black" cx="50.68" cy="-90" rx="50.68" ry="18"/>
<text text-anchor="middle" x="50.68" y="-85.33" font-family="Times,serif" font-size="14.00">libcufile</text>
</a>
</g>
</g>
<!-- libcufile&#45;&gt;holoscan -->
<g id="edge2" class="edge">
<title>libcufile&#45;&gt;holoscan</title>
<path fill="none" stroke="black" d="M65.14,-72.41C72.51,-63.95 81.62,-53.49 89.83,-44.08"/>
<polygon fill="black" stroke="black" points="92.4,-46.45 96.34,-36.61 87.13,-41.85 92.4,-46.45"/>
</g>
<!-- libfabric -->
<g id="node3" class="node">
<title>libfabric</title>
<g id="a_node3"><a xlink:href="https://github.com/conda-forge/libfabric-feedstock" xlink:title="libfabric">
<ellipse fill="#35b779" stroke="black" cx="287.68" cy="-54" rx="52.79" ry="18"/>
<text text-anchor="middle" x="287.68" y="-49.33" font-family="Times,serif" font-size="14.00">libfabric</text>
</a>
</g>
</g>
</g>
</svg>
