<?xml version="1.0" encoding="UTF-8" standalone="no"?>
<!DOCTYPE svg PUBLIC "-//W3C//DTD SVG 1.1//EN"
 "http://www.w3.org/Graphics/SVG/1.1/DTD/svg11.dtd">
<!-- Generated by graphviz version 12.2.1 (20250203.1708)
 -->
<!-- Pages: 1 -->
<svg width="607pt" height="304pt"
 viewBox="0.00 0.00 606.98 304.00" xmlns="http://www.w3.org/2000/svg" xmlns:xlink="http://www.w3.org/1999/xlink">
<g id="graph0" class="graph" transform="scale(1 1) rotate(0) translate(4 300)">
<polygon fill="white" stroke="none" points="-4,4 -4,-300 602.98,-300 602.98,4 -4,4"/>
<!-- gwollum -->
<g id="node1" class="node">
<title>gwollum</title>
<g id="a_node1"><a xlink:href="https://github.com/conda-forge/gwollum-feedstock" xlink:title="gwollum">
<ellipse fill="#35b779" stroke="black" cx="112.31" cy="-278" rx="53.84" ry="18"/>
<text text-anchor="middle" x="112.31" y="-273.32" font-family="Times,serif" font-size="14.00">gwollum</text>
</a>
</g>
</g>
<!-- omicron -->
<g id="node2" class="node">
<title>omicron</title>
<g id="a_node2"><a xlink:href="https://github.com/conda-forge/omicron-feedstock" xlink:title="omicron">
<ellipse fill="#fde725" stroke="black" cx="112.31" cy="-206" rx="51.73" ry="18"/>
<text text-anchor="middle" x="112.31" y="-201.32" font-family="Times,serif" font-size="14.00">omicron</text>
</a>
</g>
</g>
<!-- gwollum&#45;&gt;omicron -->
<g id="edge1" class="edge">
<title>gwollum&#45;&gt;omicron</title>
<path fill="none" stroke="black" d="M112.31,-259.7C112.31,-252.41 112.31,-243.73 112.31,-235.54"/>
<polygon fill="black" stroke="black" points="115.81,-235.62 112.31,-225.62 108.81,-235.62 115.81,-235.62"/>
</g>
<!-- vetoperf -->
<g id="node4" class="node">
<title>vetoperf</title>
<g id="a_node4"><a xlink:href="https://github.com/conda-forge/vetoperf-feedstock" xlink:title="vetoperf">
<ellipse fill="#fde725" stroke="black" cx="53.31" cy="-134" rx="53.31" ry="18"/>
<text text-anchor="middle" x="53.31" y="-129.32" font-family="Times,serif" font-size="14.00">vetoperf</text>
</a>
</g>
</g>
<!-- gwollum&#45;&gt;vetoperf -->
<g id="edge3" class="edge">
<title>gwollum&#45;&gt;vetoperf</title>
<path fill="none" stroke="black" d="M86.14,-261.88C73.07,-252.76 58.53,-239.83 51.31,-224 42.73,-205.17 43.67,-181.69 46.52,-163.58"/>
<polygon fill="black" stroke="black" points="49.96,-164.25 48.37,-153.77 43.08,-162.95 49.96,-164.25"/>
</g>
<!-- upv -->
<g id="node5" class="node">
<title>upv</title>
<g id="a_node5"><a xlink:href="https://github.com/conda-forge/upv-feedstock" xlink:title="upv">
<ellipse fill="#fde725" stroke="black" cx="134.31" cy="-62" rx="29.64" ry="18"/>
<text text-anchor="middle" x="134.31" y="-57.33" font-family="Times,serif" font-size="14.00">upv</text>
</a>
</g>
</g>
<!-- gwollum&#45;&gt;upv -->
<g id="edge2" class="edge">
<title>gwollum&#45;&gt;upv</title>
<path fill="none" stroke="black" d="M138.49,-261.88C151.56,-252.76 166.1,-239.83 173.31,-224 193.87,-178.9 169.07,-121.55 150.67,-88.89"/>
<polygon fill="black" stroke="black" points="153.83,-87.36 145.75,-80.51 147.79,-90.9 153.83,-87.36"/>
</g>
<!-- omicron&#45;&gt;vetoperf -->
<g id="edge5" class="edge">
<title>omicron&#45;&gt;vetoperf</title>
<path fill="none" stroke="black" d="M98.33,-188.41C91.2,-179.95 82.39,-169.49 74.45,-160.08"/>
<polygon fill="black" stroke="black" points="77.29,-158.02 68.17,-152.63 71.94,-162.53 77.29,-158.02"/>
</g>
<!-- omicron&#45;&gt;upv -->
<g id="edge4" class="edge">
<title>omicron&#45;&gt;upv</title>
<path fill="none" stroke="black" d="M115.01,-187.59C118.72,-163.61 125.46,-120.14 129.91,-91.42"/>
<polygon fill="black" stroke="black" points="133.36,-92.02 131.43,-81.61 126.44,-90.95 133.36,-92.02"/>
</g>
<!-- cds&#45;crtools -->
<g id="node3" class="node">
<title>cds&#45;crtools</title>
<g id="a_node3"><a xlink:href="https://github.com/conda-forge/cds-crtools-feedstock/pull/90" xlink:title="cds crtools ❎">
<ellipse fill="#31688e" stroke="black" cx="518.31" cy="-170" rx="80.67" ry="18"/>
<text text-anchor="middle" x="518.31" y="-165.32" font-family="Times,serif" font-size="14.00" fill="white">cds crtools ❎</text>
</a>
</g>
</g>
<!-- vetoperf&#45;&gt;upv -->
<g id="edge6" class="edge">
<title>vetoperf&#45;&gt;upv</title>
<path fill="none" stroke="black" d="M72.1,-116.76C83.12,-107.24 97.19,-95.08 109.16,-84.73"/>
<polygon fill="black" stroke="black" points="111.4,-87.43 116.68,-78.24 106.82,-82.13 111.4,-87.43"/>
</g>
<!-- cwb -->
<g id="node6" class="node">
<title>cwb</title>
<g id="a_node6"><a xlink:href="https://github.com/conda-forge/cwb-feedstock/pull/32" xlink:title="cwb ❎">
<ellipse fill="#31688e" stroke="black" cx="97.31" cy="-18" rx="46.47" ry="18"/>
<text text-anchor="middle" x="97.31" y="-13.32" font-family="Times,serif" font-size="14.00" fill="white">cwb ❎</text>
</a>
</g>
</g>
<!-- gds&#45;monitor&#45;apps -->
<g id="node7" class="node">
<title>gds&#45;monitor&#45;apps</title>
<g id="a_node7"><a xlink:href="https://github.com/conda-forge/gds-monitor-apps-feedstock/pull/9" xlink:title="gds monitor apps ❎">
<ellipse fill="#31688e" stroke="black" cx="316.31" cy="-170" rx="113.82" ry="18"/>
<text text-anchor="middle" x="316.31" y="-165.32" font-family="Times,serif" font-size="14.00" fill="white">gds monitor apps ❎</text>
</a>
</g>
</g>
</g>
</svg>
