<?xml version="1.0" encoding="UTF-8" standalone="no"?>
<!DOCTYPE svg PUBLIC "-//W3C//DTD SVG 1.1//EN"
 "http://www.w3.org/Graphics/SVG/1.1/DTD/svg11.dtd">
<!-- Generated by graphviz version 12.0.0 (20240803.0821)
 -->
<!-- Pages: 1 -->
<svg width="634pt" height="592pt"
 viewBox="0.00 0.00 634.20 592.00" xmlns="http://www.w3.org/2000/svg" xmlns:xlink="http://www.w3.org/1999/xlink">
<g id="graph0" class="graph" transform="scale(1 1) rotate(0) translate(4 588)">
<polygon fill="white" stroke="none" points="-4,4 -4,-588 630.2,-588 630.2,4 -4,4"/>
<!-- stir -->
<g id="node1" class="node">
<title>stir</title>
<g id="a_node1"><a xlink:href="https://github.com/conda-forge/stir-feedstock" xlink:title="stir">
<ellipse fill="#35b779" stroke="black" cx="109.61" cy="-566" rx="28.59" ry="18"/>
<text text-anchor="middle" x="109.61" y="-561.33" font-family="Times,serif" font-size="14.00">stir</text>
</a>
</g>
</g>
<!-- rapidsim -->
<g id="node2" class="node">
<title>rapidsim</title>
<g id="a_node2"><a xlink:href="https://github.com/conda-forge/rapidsim-feedstock" xlink:title="rapidsim">
<ellipse fill="#35b779" stroke="black" cx="109.61" cy="-494" rx="55.42" ry="18"/>
<text text-anchor="middle" x="109.61" y="-489.32" font-family="Times,serif" font-size="14.00">rapidsim</text>
</a>
</g>
</g>
<!-- stir&#45;&gt;rapidsim -->
<!-- ostaphep -->
<g id="node3" class="node">
<title>ostaphep</title>
<g id="a_node3"><a xlink:href="https://github.com/conda-forge/ostaphep-feedstock" xlink:title="ostaphep">
<ellipse fill="#35b779" stroke="black" cx="109.61" cy="-422" rx="57" ry="18"/>
<text text-anchor="middle" x="109.61" y="-417.32" font-family="Times,serif" font-size="14.00">ostaphep</text>
</a>
</g>
</g>
<!-- rapidsim&#45;&gt;ostaphep -->
<!-- lhcb&#45;simpletools -->
<g id="node4" class="node">
<title>lhcb&#45;simpletools</title>
<g id="a_node4"><a xlink:href="https://github.com/conda-forge/lhcb-simpletools-feedstock" xlink:title="lhcb simpletools">
<ellipse fill="#35b779" stroke="black" cx="109.61" cy="-350" rx="92.77" ry="18"/>
<text text-anchor="middle" x="109.61" y="-345.32" font-family="Times,serif" font-size="14.00">lhcb simpletools</text>
</a>
</g>
</g>
<!-- ostaphep&#45;&gt;lhcb&#45;simpletools -->
<!-- hammer -->
<g id="node5" class="node">
<title>hammer</title>
<g id="a_node5"><a xlink:href="https://github.com/conda-forge/hammer-feedstock" xlink:title="hammer">
<ellipse fill="#35b779" stroke="black" cx="109.61" cy="-278" rx="52.79" ry="18"/>
<text text-anchor="middle" x="109.61" y="-273.32" font-family="Times,serif" font-size="14.00">hammer</text>
</a>
</g>
</g>
<!-- lhcb&#45;simpletools&#45;&gt;hammer -->
<!-- yoda -->
<g id="node10" class="node">
<title>yoda</title>
<g id="a_node10"><a xlink:href="https://github.com/conda-forge/yoda-feedstock" xlink:title="yoda">
<ellipse fill="#35b779" stroke="black" cx="109.61" cy="-206" rx="34.9" ry="18"/>
<text text-anchor="middle" x="109.61" y="-201.33" font-family="Times,serif" font-size="14.00">yoda</text>
</a>
</g>
</g>
<!-- hammer&#45;&gt;yoda -->
<!-- gwollum -->
<g id="node6" class="node">
<title>gwollum</title>
<g id="a_node6"><a xlink:href="https://github.com/conda-forge/gwollum-feedstock" xlink:title="gwollum">
<ellipse fill="#35b779" stroke="black" cx="339.52" cy="-458" rx="53.84" ry="18"/>
<text text-anchor="middle" x="339.52" y="-453.32" font-family="Times,serif" font-size="14.00">gwollum</text>
</a>
</g>
</g>
<!-- omicron -->
<g id="node7" class="node">
<title>omicron</title>
<g id="a_node7"><a xlink:href="https://github.com/conda-forge/omicron-feedstock" xlink:title="omicron">
<ellipse fill="#fde725" stroke="black" cx="339.52" cy="-386" rx="51.74" ry="18"/>
<text text-anchor="middle" x="339.52" y="-381.32" font-family="Times,serif" font-size="14.00">omicron</text>
</a>
</g>
</g>
<!-- gwollum&#45;&gt;omicron -->
<g id="edge5" class="edge">
<title>gwollum&#45;&gt;omicron</title>
<path fill="none" stroke="black" d="M339.52,-439.7C339.52,-432.41 339.52,-423.73 339.52,-415.54"/>
<polygon fill="black" stroke="black" points="343.03,-415.62 339.52,-405.62 336.03,-415.62 343.03,-415.62"/>
</g>
<!-- vetoperf -->
<g id="node8" class="node">
<title>vetoperf</title>
<g id="a_node8"><a xlink:href="https://github.com/conda-forge/vetoperf-feedstock" xlink:title="vetoperf">
<ellipse fill="#fde725" stroke="black" cx="280.52" cy="-314" rx="53.31" ry="18"/>
<text text-anchor="middle" x="280.52" y="-309.32" font-family="Times,serif" font-size="14.00">vetoperf</text>
</a>
</g>
</g>
<!-- gwollum&#45;&gt;vetoperf -->
<g id="edge6" class="edge">
<title>gwollum&#45;&gt;vetoperf</title>
<path fill="none" stroke="black" d="M313.35,-441.88C300.28,-432.76 285.74,-419.83 278.52,-404 269.94,-385.17 270.88,-361.69 273.74,-343.58"/>
<polygon fill="black" stroke="black" points="277.17,-344.25 275.58,-333.77 270.29,-342.95 277.17,-344.25"/>
</g>
<!-- upv -->
<g id="node9" class="node">
<title>upv</title>
<g id="a_node9"><a xlink:href="https://github.com/conda-forge/upv-feedstock" xlink:title="upv">
<ellipse fill="#fde725" stroke="black" cx="361.52" cy="-242" rx="29.64" ry="18"/>
<text text-anchor="middle" x="361.52" y="-237.32" font-family="Times,serif" font-size="14.00">upv</text>
</a>
</g>
</g>
<!-- gwollum&#45;&gt;upv -->
<g id="edge7" class="edge">
<title>gwollum&#45;&gt;upv</title>
<path fill="none" stroke="black" d="M365.7,-441.88C378.77,-432.76 393.31,-419.83 400.52,-404 421.09,-358.9 396.29,-301.55 377.88,-268.89"/>
<polygon fill="black" stroke="black" points="381.04,-267.36 372.96,-260.51 375,-270.9 381.04,-267.36"/>
</g>
<!-- omicron&#45;&gt;vetoperf -->
<g id="edge8" class="edge">
<title>omicron&#45;&gt;vetoperf</title>
<path fill="none" stroke="black" d="M325.54,-368.41C318.42,-359.95 309.6,-349.49 301.66,-340.08"/>
<polygon fill="black" stroke="black" points="304.5,-338.02 295.38,-332.63 299.15,-342.53 304.5,-338.02"/>
</g>
<!-- omicron&#45;&gt;upv -->
<g id="edge9" class="edge">
<title>omicron&#45;&gt;upv</title>
<path fill="none" stroke="black" d="M342.22,-367.59C345.94,-343.61 352.67,-300.14 357.12,-271.42"/>
<polygon fill="black" stroke="black" points="360.57,-272.02 358.64,-261.61 353.65,-270.95 360.57,-272.02"/>
</g>
<!-- vetoperf&#45;&gt;upv -->
<g id="edge10" class="edge">
<title>vetoperf&#45;&gt;upv</title>
<path fill="none" stroke="black" d="M299.31,-296.76C310.34,-287.24 324.41,-275.08 336.38,-264.73"/>
<polygon fill="black" stroke="black" points="338.61,-267.43 343.89,-258.24 334.04,-262.13 338.61,-267.43"/>
</g>
<!-- cwb -->
<g id="node11" class="node">
<title>cwb</title>
<g id="a_node11"><a xlink:href="https://github.com/conda-forge/cwb-feedstock" xlink:title="cwb">
<ellipse fill="#35b779" stroke="black" cx="109.61" cy="-134" rx="31.22" ry="18"/>
<text text-anchor="middle" x="109.61" y="-129.32" font-family="Times,serif" font-size="14.00">cwb</text>
</a>
</g>
</g>
<!-- yoda&#45;&gt;cwb -->
<!-- gds&#45;root&#45;extensions -->
<g id="node12" class="node">
<title>gds&#45;root&#45;extensions</title>
<g id="a_node12"><a xlink:href="https://github.com/conda-forge/gds-root-extensions-feedstock" xlink:title="gds root extensions">
<ellipse fill="#35b779" stroke="black" cx="109.61" cy="-90" rx="109.61" ry="18"/>
<text text-anchor="middle" x="109.61" y="-85.33" font-family="Times,serif" font-size="14.00">gds root extensions</text>
</a>
</g>
</g>
<!-- cds&#45;crtools -->
<g id="node13" class="node">
<title>cds&#45;crtools</title>
<g id="a_node13"><a xlink:href="https://github.com/conda-forge/cds-crtools-feedstock" xlink:title="cds crtools">
<ellipse fill="#fde725" stroke="black" cx="109.61" cy="-18" rx="65.41" ry="18"/>
<text text-anchor="middle" x="109.61" y="-13.32" font-family="Times,serif" font-size="14.00">cds crtools</text>
</a>
</g>
</g>
<!-- gds&#45;root&#45;extensions&#45;&gt;cds&#45;crtools -->
<g id="edge13" class="edge">
<title>gds&#45;root&#45;extensions&#45;&gt;cds&#45;crtools</title>
<path fill="none" stroke="black" d="M109.61,-71.7C109.61,-64.41 109.61,-55.73 109.61,-47.54"/>
<polygon fill="black" stroke="black" points="113.11,-47.62 109.61,-37.62 106.11,-47.62 113.11,-47.62"/>
</g>
<!-- gds&#45;gui -->
<g id="node14" class="node">
<title>gds&#45;gui</title>
<g id="a_node14"><a xlink:href="https://github.com/conda-forge/gds-gui-feedstock" xlink:title="gds gui">
<ellipse fill="#35b779" stroke="black" cx="565.64" cy="-350" rx="48.05" ry="18"/>
<text text-anchor="middle" x="565.64" y="-345.32" font-family="Times,serif" font-size="14.00">gds gui</text>
</a>
</g>
</g>
<!-- gds&#45;monitor&#45;apps -->
<g id="node15" class="node">
<title>gds&#45;monitor&#45;apps</title>
<g id="a_node15"><a xlink:href="https://github.com/conda-forge/gds-monitor-apps-feedstock" xlink:title="gds monitor apps">
<ellipse fill="#fde725" stroke="black" cx="527.64" cy="-278" rx="98.56" ry="18"/>
<text text-anchor="middle" x="527.64" y="-273.32" font-family="Times,serif" font-size="14.00">gds monitor apps</text>
</a>
</g>
</g>
<!-- gds&#45;gui&#45;&gt;gds&#45;monitor&#45;apps -->
<g id="edge14" class="edge">
<title>gds&#45;gui&#45;&gt;gds&#45;monitor&#45;apps</title>
<path fill="none" stroke="black" d="M556.44,-332.05C552.26,-324.35 547.2,-315.03 542.5,-306.36"/>
<polygon fill="black" stroke="black" points="545.59,-304.72 537.74,-297.61 539.44,-308.06 545.59,-304.72"/>
</g>
<!-- gds&#45;dmt -->
<g id="node16" class="node">
<title>gds&#45;dmt</title>
<g id="a_node16"><a xlink:href="https://github.com/conda-forge/gds-dmt-feedstock" xlink:title="gds dmt">
<ellipse fill="#35b779" stroke="black" cx="489.64" cy="-422" rx="52.26" ry="18"/>
<text text-anchor="middle" x="489.64" y="-417.32" font-family="Times,serif" font-size="14.00">gds dmt</text>
</a>
</g>
</g>
<!-- gds&#45;dmt&#45;&gt;gds&#45;monitor&#45;apps -->
<g id="edge15" class="edge">
<title>gds&#45;dmt&#45;&gt;gds&#45;monitor&#45;apps</title>
<path fill="none" stroke="black" d="M492.61,-403.77C495.89,-385.72 501.64,-356.62 508.64,-332 511.01,-323.69 514,-314.81 516.91,-306.73"/>
<polygon fill="black" stroke="black" points="520.17,-308.01 520.37,-297.42 513.61,-305.57 520.17,-308.01"/>
</g>
</g>
</svg>
