<?xml version="1.0" encoding="UTF-8" standalone="no"?>
<!DOCTYPE svg PUBLIC "-//W3C//DTD SVG 1.1//EN"
 "http://www.w3.org/Graphics/SVG/1.1/DTD/svg11.dtd">
<!-- Generated by graphviz version 12.0.0 (20240803.0821)
 -->
<!-- Pages: 1 -->
<svg width="650pt" height="392pt"
 viewBox="0.00 0.00 649.98 392.00" xmlns="http://www.w3.org/2000/svg" xmlns:xlink="http://www.w3.org/1999/xlink">
<g id="graph0" class="graph" transform="scale(1 1) rotate(0) translate(4 388)">
<polygon fill="white" stroke="none" points="-4,4 -4,-388 645.98,-388 645.98,4 -4,4"/>
<!-- stir -->
<g id="node1" class="node">
<title>stir</title>
<g id="a_node1"><a xlink:href="https://github.com/conda-forge/stir-feedstock" xlink:title="stir">
<ellipse fill="#35b779" stroke="black" cx="96.94" cy="-18" rx="28.59" ry="18"/>
<text text-anchor="middle" x="96.94" y="-13.32" font-family="Times,serif" font-size="14.00">stir</text>
</a>
</g>
</g>
<!-- rapidsim -->
<g id="node2" class="node">
<title>rapidsim</title>
<g id="a_node2"><a xlink:href="https://github.com/conda-forge/rapidsim-feedstock" xlink:title="rapidsim">
<ellipse fill="#35b779" stroke="black" cx="543.43" cy="-106" rx="55.42" ry="18"/>
<text text-anchor="middle" x="543.43" y="-101.33" font-family="Times,serif" font-size="14.00">rapidsim</text>
</a>
</g>
</g>
<!-- ostaphep -->
<g id="node3" class="node">
<title>ostaphep</title>
<g id="a_node3"><a xlink:href="https://github.com/conda-forge/ostaphep-feedstock" xlink:title="ostaphep">
<ellipse fill="#35b779" stroke="black" cx="319.37" cy="-106" rx="57" ry="18"/>
<text text-anchor="middle" x="319.37" y="-101.33" font-family="Times,serif" font-size="14.00">ostaphep</text>
</a>
</g>
</g>
<!-- lhcb&#45;simpletools -->
<g id="node4" class="node">
<title>lhcb&#45;simpletools</title>
<g id="a_node4"><a xlink:href="https://github.com/conda-forge/lhcb-simpletools-feedstock" xlink:title="lhcb simpletools">
<ellipse fill="#35b779" stroke="black" cx="96.94" cy="-106" rx="92.77" ry="18"/>
<text text-anchor="middle" x="96.94" y="-101.33" font-family="Times,serif" font-size="14.00">lhcb simpletools</text>
</a>
</g>
</g>
<!-- gwollum -->
<g id="node5" class="node">
<title>gwollum</title>
<g id="a_node5"><a xlink:href="https://github.com/conda-forge/gwollum-feedstock/pull/60" xlink:title="gwollum ❎">
<ellipse fill="#31688e" stroke="black" cx="112.31" cy="-366" rx="69.1" ry="18"/>
<text text-anchor="middle" x="112.31" y="-361.32" font-family="Times,serif" font-size="14.00" fill="white">gwollum ❎</text>
</a>
</g>
</g>
<!-- omicron -->
<g id="node6" class="node">
<title>omicron</title>
<g id="a_node6"><a xlink:href="https://github.com/conda-forge/omicron-feedstock" xlink:title="omicron">
<ellipse fill="#fde725" stroke="black" cx="112.31" cy="-294" rx="51.73" ry="18"/>
<text text-anchor="middle" x="112.31" y="-289.32" font-family="Times,serif" font-size="14.00">omicron</text>
</a>
</g>
</g>
<!-- gwollum&#45;&gt;omicron -->
<g id="edge1" class="edge">
<title>gwollum&#45;&gt;omicron</title>
<path fill="none" stroke="black" d="M112.31,-347.7C112.31,-340.41 112.31,-331.73 112.31,-323.54"/>
<polygon fill="black" stroke="black" points="115.81,-323.62 112.31,-313.62 108.81,-323.62 115.81,-323.62"/>
</g>
<!-- vetoperf -->
<g id="node11" class="node">
<title>vetoperf</title>
<g id="a_node11"><a xlink:href="https://github.com/conda-forge/vetoperf-feedstock" xlink:title="vetoperf">
<ellipse fill="#fde725" stroke="black" cx="53.31" cy="-222" rx="53.31" ry="18"/>
<text text-anchor="middle" x="53.31" y="-217.32" font-family="Times,serif" font-size="14.00">vetoperf</text>
</a>
</g>
</g>
<!-- gwollum&#45;&gt;vetoperf -->
<g id="edge3" class="edge">
<title>gwollum&#45;&gt;vetoperf</title>
<path fill="none" stroke="black" d="M85.19,-349.21C72.37,-340.13 58.35,-327.45 51.31,-312 42.73,-293.17 43.67,-269.69 46.52,-251.58"/>
<polygon fill="black" stroke="black" points="49.96,-252.25 48.37,-241.77 43.08,-250.95 49.96,-252.25"/>
</g>
<!-- upv -->
<g id="node12" class="node">
<title>upv</title>
<g id="a_node12"><a xlink:href="https://github.com/conda-forge/upv-feedstock" xlink:title="upv">
<ellipse fill="#fde725" stroke="black" cx="134.31" cy="-150" rx="29.64" ry="18"/>
<text text-anchor="middle" x="134.31" y="-145.32" font-family="Times,serif" font-size="14.00">upv</text>
</a>
</g>
</g>
<!-- gwollum&#45;&gt;upv -->
<g id="edge2" class="edge">
<title>gwollum&#45;&gt;upv</title>
<path fill="none" stroke="black" d="M139.44,-349.21C152.26,-340.13 166.27,-327.45 173.31,-312 193.87,-266.9 169.07,-209.55 150.67,-176.89"/>
<polygon fill="black" stroke="black" points="153.83,-175.36 145.75,-168.51 147.79,-178.9 153.83,-175.36"/>
</g>
<!-- omicron&#45;&gt;vetoperf -->
<g id="edge5" class="edge">
<title>omicron&#45;&gt;vetoperf</title>
<path fill="none" stroke="black" d="M98.33,-276.41C91.2,-267.95 82.39,-257.49 74.45,-248.08"/>
<polygon fill="black" stroke="black" points="77.29,-246.02 68.17,-240.63 71.94,-250.53 77.29,-246.02"/>
</g>
<!-- omicron&#45;&gt;upv -->
<g id="edge4" class="edge">
<title>omicron&#45;&gt;upv</title>
<path fill="none" stroke="black" d="M115.01,-275.59C118.72,-251.61 125.46,-208.14 129.91,-179.42"/>
<polygon fill="black" stroke="black" points="133.36,-180.02 131.43,-169.61 126.44,-178.95 133.36,-180.02"/>
</g>
<!-- hammer -->
<g id="node7" class="node">
<title>hammer</title>
<g id="a_node7"><a xlink:href="https://github.com/conda-forge/hammer-feedstock" xlink:title="hammer">
<ellipse fill="#35b779" stroke="black" cx="96.94" cy="-62" rx="52.79" ry="18"/>
<text text-anchor="middle" x="96.94" y="-57.33" font-family="Times,serif" font-size="14.00">hammer</text>
</a>
</g>
</g>
<!-- yoda -->
<g id="node8" class="node">
<title>yoda</title>
<g id="a_node8"><a xlink:href="https://github.com/conda-forge/yoda-feedstock/pull/43" xlink:title="yoda ❎">
<ellipse fill="#31688e" stroke="black" cx="319.37" cy="-62" rx="50.16" ry="18"/>
<text text-anchor="middle" x="319.37" y="-57.33" font-family="Times,serif" font-size="14.00" fill="white">yoda ❎</text>
</a>
</g>
</g>
<!-- gds&#45;root&#45;extensions -->
<g id="node9" class="node">
<title>gds&#45;root&#45;extensions</title>
<g id="a_node9"><a xlink:href="https://github.com/conda-forge/gds-root-extensions-feedstock/pull/34" xlink:title="gds root extensions ✓">
<ellipse fill="#31688e" stroke="black" cx="319.37" cy="-294" rx="117.5" ry="18"/>
<text text-anchor="middle" x="319.37" y="-289.32" font-family="Times,serif" font-size="14.00" fill="white">gds root extensions ✓</text>
</a>
</g>
</g>
<!-- cds&#45;crtools -->
<g id="node10" class="node">
<title>cds&#45;crtools</title>
<g id="a_node10"><a xlink:href="https://github.com/conda-forge/cds-crtools-feedstock" xlink:title="cds crtools">
<ellipse fill="#fde725" stroke="black" cx="319.37" cy="-222" rx="65.41" ry="18"/>
<text text-anchor="middle" x="319.37" y="-217.32" font-family="Times,serif" font-size="14.00">cds crtools</text>
</a>
</g>
</g>
<!-- gds&#45;root&#45;extensions&#45;&gt;cds&#45;crtools -->
<g id="edge6" class="edge">
<title>gds&#45;root&#45;extensions&#45;&gt;cds&#45;crtools</title>
<path fill="none" stroke="black" d="M319.37,-275.7C319.37,-268.41 319.37,-259.73 319.37,-251.54"/>
<polygon fill="black" stroke="black" points="322.87,-251.62 319.37,-241.62 315.87,-251.62 322.87,-251.62"/>
</g>
<!-- vetoperf&#45;&gt;upv -->
<g id="edge7" class="edge">
<title>vetoperf&#45;&gt;upv</title>
<path fill="none" stroke="black" d="M72.1,-204.76C83.12,-195.24 97.19,-183.08 109.16,-172.73"/>
<polygon fill="black" stroke="black" points="111.4,-175.43 116.68,-166.24 106.82,-170.13 111.4,-175.43"/>
</g>
<!-- cwb -->
<g id="node13" class="node">
<title>cwb</title>
<g id="a_node13"><a xlink:href="https://github.com/conda-forge/cwb-feedstock" xlink:title="cwb">
<ellipse fill="#35b779" stroke="black" cx="543.43" cy="-62" rx="31.22" ry="18"/>
<text text-anchor="middle" x="543.43" y="-57.33" font-family="Times,serif" font-size="14.00">cwb</text>
</a>
</g>
</g>
<!-- gds&#45;monitor&#45;apps -->
<g id="node14" class="node">
<title>gds&#45;monitor&#45;apps</title>
<g id="a_node14"><a xlink:href="https://github.com/conda-forge/gds-monitor-apps-feedstock" xlink:title="gds monitor apps">
<ellipse fill="#fde725" stroke="black" cx="543.43" cy="-222" rx="98.56" ry="18"/>
<text text-anchor="middle" x="543.43" y="-217.32" font-family="Times,serif" font-size="14.00">gds monitor apps</text>
</a>
</g>
</g>
<!-- gds&#45;dmt -->
<g id="node15" class="node">
<title>gds&#45;dmt</title>
<g id="a_node15"><a xlink:href="https://github.com/conda-forge/gds-dmt-feedstock" xlink:title="gds dmt">
<ellipse fill="#35b779" stroke="black" cx="543.43" cy="-294" rx="52.26" ry="18"/>
<text text-anchor="middle" x="543.43" y="-289.32" font-family="Times,serif" font-size="14.00">gds dmt</text>
</a>
</g>
</g>
<!-- gds&#45;dmt&#45;&gt;gds&#45;monitor&#45;apps -->
<g id="edge8" class="edge">
<title>gds&#45;dmt&#45;&gt;gds&#45;monitor&#45;apps</title>
<path fill="none" stroke="black" d="M543.43,-275.7C543.43,-268.41 543.43,-259.73 543.43,-251.54"/>
<polygon fill="black" stroke="black" points="546.93,-251.62 543.43,-241.62 539.93,-251.62 546.93,-251.62"/>
</g>
</g>
</svg>
