<?xml version="1.0" encoding="UTF-8" standalone="no"?>
<!DOCTYPE svg PUBLIC "-//W3C//DTD SVG 1.1//EN"
 "http://www.w3.org/Graphics/SVG/1.1/DTD/svg11.dtd">
<!-- Generated by graphviz version 13.1.2 (20250809.0930)
 -->
<!-- Pages: 1 -->
<svg width="675pt" height="592pt"
 viewBox="0.00 0.00 675.00 592.00" xmlns="http://www.w3.org/2000/svg" xmlns:xlink="http://www.w3.org/1999/xlink">
<g id="graph0" class="graph" transform="scale(1 1) rotate(0) translate(4 588)">
<polygon fill="white" stroke="none" points="-4,4 -4,-588 671.42,-588 671.42,4 -4,4"/>
<!-- rapidsim -->
<g id="node1" class="node">
<title>rapidsim</title>
<g id="a_node1"><a xlink:href="https://github.com/conda-forge/rapidsim-feedstock/pull/32" xlink:title="rapidsim ❎">
<ellipse fill="#31688e" stroke="black" cx="124.86" cy="-566" rx="70.68" ry="18"/>
<text xml:space="preserve" text-anchor="middle" x="124.86" y="-561.33" font-family="Times,serif" font-size="14.00" fill="white">rapidsim ❎</text>
</a>
</g>
</g>
<!-- lhcb&#45;simpletools -->
<g id="node2" class="node">
<title>lhcb&#45;simpletools</title>
<g id="a_node2"><a xlink:href="https://github.com/conda-forge/lhcb-simpletools-feedstock/pull/40" xlink:title="lhcb simpletools ❎">
<ellipse fill="#31688e" stroke="black" cx="124.86" cy="-494" rx="108.03" ry="18"/>
<text xml:space="preserve" text-anchor="middle" x="124.86" y="-489.32" font-family="Times,serif" font-size="14.00" fill="white">lhcb simpletools ❎</text>
</a>
</g>
</g>
<!-- rapidsim&#45;&gt;lhcb&#45;simpletools -->
<!-- hammer -->
<g id="node3" class="node">
<title>hammer</title>
<g id="a_node3"><a xlink:href="https://github.com/conda-forge/hammer-feedstock/pull/57" xlink:title="hammer ❎">
<ellipse fill="#31688e" stroke="black" cx="124.86" cy="-422" rx="68.04" ry="18"/>
<text xml:space="preserve" text-anchor="middle" x="124.86" y="-417.32" font-family="Times,serif" font-size="14.00" fill="white">hammer ❎</text>
</a>
</g>
</g>
<!-- lhcb&#45;simpletools&#45;&gt;hammer -->
<!-- cwb -->
<g id="node8" class="node">
<title>cwb</title>
<g id="a_node8"><a xlink:href="https://github.com/conda-forge/cwb-feedstock/pull/33" xlink:title="cwb ❎">
<ellipse fill="#31688e" stroke="black" cx="124.86" cy="-350" rx="46.47" ry="18"/>
<text xml:space="preserve" text-anchor="middle" x="124.86" y="-345.32" font-family="Times,serif" font-size="14.00" fill="white">cwb ❎</text>
</a>
</g>
</g>
<!-- hammer&#45;&gt;cwb -->
<!-- gwollum -->
<g id="node4" class="node">
<title>gwollum</title>
<g id="a_node4"><a xlink:href="https://github.com/conda-forge/gwollum-feedstock/pull/70" xlink:title="gwollum ❎">
<ellipse fill="#31688e" stroke="black" cx="369.86" cy="-458" rx="69.1" ry="18"/>
<text xml:space="preserve" text-anchor="middle" x="369.86" y="-453.32" font-family="Times,serif" font-size="14.00" fill="white">gwollum ❎</text>
</a>
</g>
</g>
<!-- omicron -->
<g id="node5" class="node">
<title>omicron</title>
<g id="a_node5"><a xlink:href="https://github.com/conda-forge/omicron-feedstock" xlink:title="omicron">
<ellipse fill="#fde725" stroke="black" cx="369.86" cy="-386" rx="51.74" ry="18"/>
<text xml:space="preserve" text-anchor="middle" x="369.86" y="-381.32" font-family="Times,serif" font-size="14.00">omicron</text>
</a>
</g>
</g>
<!-- gwollum&#45;&gt;omicron -->
<g id="edge3" class="edge">
<title>gwollum&#45;&gt;omicron</title>
<path fill="none" stroke="black" d="M369.86,-439.7C369.86,-432.41 369.86,-423.73 369.86,-415.54"/>
<polygon fill="black" stroke="black" points="373.36,-415.62 369.86,-405.62 366.36,-415.62 373.36,-415.62"/>
</g>
<!-- vetoperf -->
<g id="node6" class="node">
<title>vetoperf</title>
<g id="a_node6"><a xlink:href="https://github.com/conda-forge/vetoperf-feedstock" xlink:title="vetoperf">
<ellipse fill="#fde725" stroke="black" cx="310.86" cy="-314" rx="53.31" ry="18"/>
<text xml:space="preserve" text-anchor="middle" x="310.86" y="-309.32" font-family="Times,serif" font-size="14.00">vetoperf</text>
</a>
</g>
</g>
<!-- gwollum&#45;&gt;vetoperf -->
<g id="edge4" class="edge">
<title>gwollum&#45;&gt;vetoperf</title>
<path fill="none" stroke="black" d="M342.74,-441.21C329.92,-432.13 315.9,-419.45 308.86,-404 300.28,-385.17 301.22,-361.69 304.07,-343.58"/>
<polygon fill="black" stroke="black" points="307.51,-344.25 305.92,-333.77 300.63,-342.95 307.51,-344.25"/>
</g>
<!-- upv -->
<g id="node7" class="node">
<title>upv</title>
<g id="a_node7"><a xlink:href="https://github.com/conda-forge/upv-feedstock" xlink:title="upv">
<ellipse fill="#fde725" stroke="black" cx="391.86" cy="-242" rx="29.64" ry="18"/>
<text xml:space="preserve" text-anchor="middle" x="391.86" y="-237.32" font-family="Times,serif" font-size="14.00">upv</text>
</a>
</g>
</g>
<!-- gwollum&#45;&gt;upv -->
<g id="edge5" class="edge">
<title>gwollum&#45;&gt;upv</title>
<path fill="none" stroke="black" d="M396.99,-441.21C409.81,-432.13 423.82,-419.45 430.86,-404 451.42,-358.9 426.62,-301.55 408.22,-268.89"/>
<polygon fill="black" stroke="black" points="411.38,-267.36 403.3,-260.51 405.34,-270.9 411.38,-267.36"/>
</g>
<!-- omicron&#45;&gt;vetoperf -->
<g id="edge6" class="edge">
<title>omicron&#45;&gt;vetoperf</title>
<path fill="none" stroke="black" d="M355.88,-368.41C348.75,-359.95 339.94,-349.49 332,-340.08"/>
<polygon fill="black" stroke="black" points="334.84,-338.02 325.72,-332.63 329.49,-342.53 334.84,-338.02"/>
</g>
<!-- omicron&#45;&gt;upv -->
<g id="edge7" class="edge">
<title>omicron&#45;&gt;upv</title>
<path fill="none" stroke="black" d="M372.56,-367.59C376.28,-343.61 383.01,-300.14 387.46,-271.42"/>
<polygon fill="black" stroke="black" points="390.91,-272.02 388.98,-261.61 383.99,-270.95 390.91,-272.02"/>
</g>
<!-- vetoperf&#45;&gt;upv -->
<g id="edge8" class="edge">
<title>vetoperf&#45;&gt;upv</title>
<path fill="none" stroke="black" d="M329.65,-296.76C340.67,-287.24 354.74,-275.08 366.71,-264.73"/>
<polygon fill="black" stroke="black" points="368.95,-267.43 374.23,-258.24 364.37,-262.13 368.95,-267.43"/>
</g>
<!-- delphes -->
<g id="node13" class="node">
<title>delphes</title>
<g id="a_node13"><a xlink:href="https://github.com/conda-forge/delphes-feedstock/pull/12" xlink:title="delphes ❎">
<ellipse fill="#31688e" stroke="black" cx="124.86" cy="-278" rx="65.41" ry="18"/>
<text xml:space="preserve" text-anchor="middle" x="124.86" y="-273.32" font-family="Times,serif" font-size="14.00" fill="white">delphes ❎</text>
</a>
</g>
</g>
<!-- cwb&#45;&gt;delphes -->
<!-- gds&#45;root&#45;extensions -->
<g id="node9" class="node">
<title>gds&#45;root&#45;extensions</title>
<g id="a_node9"><a xlink:href="https://github.com/conda-forge/gds-root-extensions-feedstock/pull/38" xlink:title="gds root extensions ❎">
<ellipse fill="#31688e" stroke="black" cx="124.86" cy="-90" rx="124.86" ry="18"/>
<text xml:space="preserve" text-anchor="middle" x="124.86" y="-85.33" font-family="Times,serif" font-size="14.00" fill="white">gds root extensions ❎</text>
</a>
</g>
</g>
<!-- cds&#45;crtools -->
<g id="node10" class="node">
<title>cds&#45;crtools</title>
<g id="a_node10"><a xlink:href="https://github.com/conda-forge/cds-crtools-feedstock" xlink:title="cds crtools">
<ellipse fill="#fde725" stroke="black" cx="124.86" cy="-18" rx="65.41" ry="18"/>
<text xml:space="preserve" text-anchor="middle" x="124.86" y="-13.32" font-family="Times,serif" font-size="14.00">cds crtools</text>
</a>
</g>
</g>
<!-- gds&#45;root&#45;extensions&#45;&gt;cds&#45;crtools -->
<g id="edge10" class="edge">
<title>gds&#45;root&#45;extensions&#45;&gt;cds&#45;crtools</title>
<path fill="none" stroke="black" d="M124.86,-71.7C124.86,-64.41 124.86,-55.73 124.86,-47.54"/>
<polygon fill="black" stroke="black" points="128.36,-47.62 124.86,-37.62 121.36,-47.62 128.36,-47.62"/>
</g>
<!-- gds&#45;gui -->
<g id="node11" class="node">
<title>gds&#45;gui</title>
<g id="a_node11"><a xlink:href="https://github.com/conda-forge/gds-gui-feedstock/pull/30" xlink:title="gds gui ✓">
<ellipse fill="#31688e" stroke="black" cx="610.86" cy="-350" rx="55.94" ry="18"/>
<text xml:space="preserve" text-anchor="middle" x="610.86" y="-345.32" font-family="Times,serif" font-size="14.00" fill="white">gds gui ✓</text>
</a>
</g>
</g>
<!-- gds&#45;monitor&#45;apps -->
<g id="node12" class="node">
<title>gds&#45;monitor&#45;apps</title>
<g id="a_node12"><a xlink:href="https://github.com/conda-forge/gds-monitor-apps-feedstock" xlink:title="gds monitor apps">
<ellipse fill="#fde725" stroke="black" cx="568.86" cy="-278" rx="98.56" ry="18"/>
<text xml:space="preserve" text-anchor="middle" x="568.86" y="-273.32" font-family="Times,serif" font-size="14.00">gds monitor apps</text>
</a>
</g>
</g>
<!-- gds&#45;gui&#45;&gt;gds&#45;monitor&#45;apps -->
<g id="edge11" class="edge">
<title>gds&#45;gui&#45;&gt;gds&#45;monitor&#45;apps</title>
<path fill="none" stroke="black" d="M600.7,-332.05C596.02,-324.26 590.36,-314.82 585.11,-306.08"/>
<polygon fill="black" stroke="black" points="588.15,-304.35 580.01,-297.57 582.15,-307.95 588.15,-304.35"/>
</g>
<!-- cms&#45;combine -->
<g id="node15" class="node">
<title>cms&#45;combine</title>
<g id="a_node15"><a xlink:href="https://github.com/conda-forge/cms-combine-feedstock/pull/22" xlink:title="cms combine ❎">
<ellipse fill="#31688e" stroke="black" cx="124.86" cy="-206" rx="91.72" ry="18"/>
<text xml:space="preserve" text-anchor="middle" x="124.86" y="-201.33" font-family="Times,serif" font-size="14.00" fill="white">cms combine ❎</text>
</a>
</g>
</g>
<!-- delphes&#45;&gt;cms&#45;combine -->
<!-- gds&#45;dmt -->
<g id="node14" class="node">
<title>gds&#45;dmt</title>
<g id="a_node14"><a xlink:href="https://github.com/conda-forge/gds-dmt-feedstock/pull/12" xlink:title="gds dmt ❎">
<ellipse fill="#31688e" stroke="black" cx="526.86" cy="-422" rx="67.52" ry="18"/>
<text xml:space="preserve" text-anchor="middle" x="526.86" y="-417.32" font-family="Times,serif" font-size="14.00" fill="white">gds dmt ❎</text>
</a>
</g>
</g>
<!-- gds&#45;dmt&#45;&gt;gds&#45;monitor&#45;apps -->
<g id="edge13" class="edge">
<title>gds&#45;dmt&#45;&gt;gds&#45;monitor&#45;apps</title>
<path fill="none" stroke="black" d="M529.51,-403.67C532.52,-385.54 538.06,-356.38 545.86,-332 548.56,-323.59 552.11,-314.7 555.63,-306.66"/>
<polygon fill="black" stroke="black" points="558.74,-308.26 559.68,-297.71 552.36,-305.38 558.74,-308.26"/>
</g>
<!-- bdsim&#45;g4 -->
<g id="node16" class="node">
<title>bdsim&#45;g4</title>
<g id="a_node16"><a xlink:href="https://github.com/conda-forge/bdsim-g4-feedstock/pull/9" xlink:title="bdsim g4 ❎">
<ellipse fill="#31688e" stroke="black" cx="124.86" cy="-134" rx="72.78" ry="18"/>
<text xml:space="preserve" text-anchor="middle" x="124.86" y="-129.32" font-family="Times,serif" font-size="14.00" fill="white">bdsim g4 ❎</text>
</a>
</g>
</g>
<!-- cms&#45;combine&#45;&gt;bdsim&#45;g4 -->
</g>
</svg>
