<?xml version="1.0" encoding="UTF-8" standalone="no"?>
<!DOCTYPE svg PUBLIC "-//W3C//DTD SVG 1.1//EN"
 "http://www.w3.org/Graphics/SVG/1.1/DTD/svg11.dtd">
<!-- Generated by graphviz version 12.0.0 (20240803.0821)
 -->
<!-- Pages: 1 -->
<svg width="612pt" height="348pt"
 viewBox="0.00 0.00 611.73 348.00" xmlns="http://www.w3.org/2000/svg" xmlns:xlink="http://www.w3.org/1999/xlink">
<g id="graph0" class="graph" transform="scale(1 1) rotate(0) translate(4 344)">
<polygon fill="white" stroke="none" points="-4,4 -4,-344 607.73,-344 607.73,4 -4,4"/>
<!-- reaktoro -->
<g id="node1" class="node">
<title>reaktoro</title>
<g id="a_node1"><a xlink:href="https://github.com/conda-forge/reaktoro-feedstock" xlink:title="reaktoro">
<ellipse fill="#fde725" stroke="black" cx="53.84" cy="-178" rx="53.84" ry="18"/>
<text text-anchor="middle" x="53.84" y="-173.32" font-family="Times,serif" font-size="14.00">reaktoro</text>
</a>
</g>
</g>
<!-- thermofun -->
<g id="node2" class="node">
<title>thermofun</title>
<g id="a_node2"><a xlink:href="https://github.com/conda-forge/thermofun-feedstock" xlink:title="thermofun">
<ellipse fill="#fde725" stroke="black" cx="128.84" cy="-250" rx="63.83" ry="18"/>
<text text-anchor="middle" x="128.84" y="-245.32" font-family="Times,serif" font-size="14.00">thermofun</text>
</a>
</g>
</g>
<!-- thermofun&#45;&gt;reaktoro -->
<g id="edge2" class="edge">
<title>thermofun&#45;&gt;reaktoro</title>
<path fill="none" stroke="black" d="M111.06,-232.41C101.72,-223.69 90.1,-212.85 79.78,-203.21"/>
<polygon fill="black" stroke="black" points="82.29,-200.77 72.59,-196.5 77.51,-205.88 82.29,-200.77"/>
</g>
<!-- gems3k -->
<g id="node3" class="node">
<title>gems3k</title>
<g id="a_node3"><a xlink:href="https://github.com/conda-forge/gems3k-feedstock" xlink:title="gems3k">
<ellipse fill="#fde725" stroke="black" cx="213.84" cy="-178" rx="50.16" ry="18"/>
<text text-anchor="middle" x="213.84" y="-173.32" font-family="Times,serif" font-size="14.00">gems3k</text>
</a>
</g>
</g>
<!-- thermofun&#45;&gt;gems3k -->
<g id="edge1" class="edge">
<title>thermofun&#45;&gt;gems3k</title>
<path fill="none" stroke="black" d="M148.55,-232.76C159.57,-223.69 173.5,-212.22 185.65,-202.21"/>
<polygon fill="black" stroke="black" points="187.86,-204.93 193.36,-195.87 183.41,-199.52 187.86,-204.93"/>
</g>
<!-- xgems -->
<g id="node5" class="node">
<title>xgems</title>
<g id="a_node5"><a xlink:href="https://github.com/conda-forge/xgems-feedstock" xlink:title="xgems">
<ellipse fill="#fde725" stroke="black" cx="174.84" cy="-106" rx="43.84" ry="18"/>
<text text-anchor="middle" x="174.84" y="-101.33" font-family="Times,serif" font-size="14.00">xgems</text>
</a>
</g>
</g>
<!-- thermofun&#45;&gt;xgems -->
<g id="edge3" class="edge">
<title>thermofun&#45;&gt;xgems</title>
<path fill="none" stroke="black" d="M133.44,-231.82C138.36,-213.8 146.57,-184.73 154.84,-160 157.62,-151.66 160.9,-142.69 163.99,-134.54"/>
<polygon fill="black" stroke="black" points="167.15,-136.07 167.47,-125.48 160.62,-133.56 167.15,-136.07"/>
</g>
<!-- gems3k&#45;&gt;xgems -->
<g id="edge4" class="edge">
<title>gems3k&#45;&gt;xgems</title>
<path fill="none" stroke="black" d="M204.4,-160.05C199.99,-152.14 194.64,-142.54 189.71,-133.69"/>
<polygon fill="black" stroke="black" points="192.85,-132.14 184.93,-125.11 186.74,-135.55 192.85,-132.14"/>
</g>
<!-- librmm -->
<g id="node4" class="node">
<title>librmm</title>
<g id="a_node4"><a xlink:href="https://github.com/conda-forge/librmm-feedstock/pull/67" xlink:title="librmm ❎">
<ellipse fill="#31688e" stroke="black" cx="338.46" cy="-250" rx="62.78" ry="18"/>
<text text-anchor="middle" x="338.46" y="-245.32" font-family="Times,serif" font-size="14.00" fill="white">librmm ❎</text>
</a>
</g>
</g>
<!-- rmm -->
<g id="node8" class="node">
<title>rmm</title>
<g id="a_node8"><a xlink:href="https://github.com/conda-forge/rmm-feedstock" xlink:title="rmm">
<ellipse fill="#fde725" stroke="black" cx="338.46" cy="-178" rx="34.9" ry="18"/>
<text text-anchor="middle" x="338.46" y="-173.32" font-family="Times,serif" font-size="14.00">rmm</text>
</a>
</g>
</g>
<!-- librmm&#45;&gt;rmm -->
<g id="edge5" class="edge">
<title>librmm&#45;&gt;rmm</title>
<path fill="none" stroke="black" d="M338.46,-231.7C338.46,-224.41 338.46,-215.73 338.46,-207.54"/>
<polygon fill="black" stroke="black" points="341.96,-207.62 338.46,-197.62 334.96,-207.62 341.96,-207.62"/>
</g>
<!-- bear -->
<g id="node6" class="node">
<title>bear</title>
<g id="a_node6"><a xlink:href="https://github.com/conda-forge/bear-feedstock/pull/49" xlink:title="bear ❎">
<ellipse fill="#31688e" stroke="black" cx="132" cy="-18" rx="49.1" ry="18"/>
<text text-anchor="middle" x="132" y="-13.32" font-family="Times,serif" font-size="14.00" fill="white">bear ❎</text>
</a>
</g>
</g>
<!-- chemicalfun -->
<g id="node7" class="node">
<title>chemicalfun</title>
<g id="a_node7"><a xlink:href="https://github.com/conda-forge/chemicalfun-feedstock/pull/18" xlink:title="chemicalfun ❎">
<ellipse fill="#31688e" stroke="black" cx="174.84" cy="-322" rx="86.98" ry="18"/>
<text text-anchor="middle" x="174.84" y="-317.32" font-family="Times,serif" font-size="14.00" fill="white">chemicalfun ❎</text>
</a>
</g>
</g>
<!-- chemicalfun&#45;&gt;thermofun -->
<g id="edge7" class="edge">
<title>chemicalfun&#45;&gt;thermofun</title>
<path fill="none" stroke="black" d="M163.47,-303.7C158.29,-295.81 152.04,-286.3 146.28,-277.55"/>
<polygon fill="black" stroke="black" points="149.33,-275.8 140.91,-269.37 143.48,-279.65 149.33,-275.8"/>
</g>
<!-- chemicalfun&#45;&gt;gems3k -->
<g id="edge6" class="edge">
<title>chemicalfun&#45;&gt;gems3k</title>
<path fill="none" stroke="black" d="M185.38,-303.96C191.15,-293.87 197.9,-280.62 201.84,-268 207.95,-248.41 210.95,-225.44 212.42,-207.74"/>
<polygon fill="black" stroke="black" points="215.9,-208.16 213.11,-197.94 208.92,-207.67 215.9,-208.16"/>
</g>
<!-- powerloader -->
<g id="node9" class="node">
<title>powerloader</title>
<g id="a_node9"><a xlink:href="https://github.com/conda-forge/powerloader-feedstock/pull/29" xlink:title="powerloader ❎">
<ellipse fill="#31688e" stroke="black" cx="132" cy="-62" rx="89.09" ry="18"/>
<text text-anchor="middle" x="132" y="-57.33" font-family="Times,serif" font-size="14.00" fill="white">powerloader ❎</text>
</a>
</g>
</g>
<!-- river&#45;ingester -->
<g id="node10" class="node">
<title>river&#45;ingester</title>
<g id="a_node10"><a xlink:href="https://github.com/conda-forge/river-ingester-feedstock/pull/31" xlink:title="river ingester ❎">
<ellipse fill="#31688e" stroke="black" cx="508.33" cy="-214" rx="95.4" ry="18"/>
<text text-anchor="middle" x="508.33" y="-209.32" font-family="Times,serif" font-size="14.00" fill="white">river ingester ❎</text>
</a>
</g>
</g>
<!-- spiceql -->
<g id="node11" class="node">
<title>spiceql</title>
<g id="a_node11"><a xlink:href="https://github.com/conda-forge/spiceql-feedstock/pull/13" xlink:title="spiceql ❎">
<ellipse fill="#31688e" stroke="black" cx="508.33" cy="-62" rx="61.73" ry="18"/>
<text text-anchor="middle" x="508.33" y="-57.33" font-family="Times,serif" font-size="14.00" fill="white">spiceql ❎</text>
</a>
</g>
</g>
<!-- tiledbsoma -->
<g id="node12" class="node">
<title>tiledbsoma</title>
<g id="a_node12"><a xlink:href="https://github.com/conda-forge/tiledbsoma-feedstock" xlink:title="tiledbsoma">
<ellipse fill="#fde725" stroke="black" cx="338.46" cy="-62" rx="66.47" ry="18"/>
<text text-anchor="middle" x="338.46" y="-57.33" font-family="Times,serif" font-size="14.00">tiledbsoma</text>
</a>
</g>
</g>
</g>
</svg>
