<?xml version="1.0" encoding="UTF-8" standalone="no"?>
<!DOCTYPE svg PUBLIC "-//W3C//DTD SVG 1.1//EN"
 "http://www.w3.org/Graphics/SVG/1.1/DTD/svg11.dtd">
<!-- Generated by graphviz version 12.0.0 (20240803.0821)
 -->
<!-- Pages: 1 -->
<svg width="692pt" height="664pt"
 viewBox="0.00 0.00 691.70 664.00" xmlns="http://www.w3.org/2000/svg" xmlns:xlink="http://www.w3.org/1999/xlink">
<g id="graph0" class="graph" transform="scale(1 1) rotate(0) translate(4 660)">
<polygon fill="white" stroke="none" points="-4,4 -4,-660 687.7,-660 687.7,4 -4,4"/>
<!-- reaktoro -->
<g id="node1" class="node">
<title>reaktoro</title>
<g id="a_node1"><a xlink:href="https://github.com/conda-forge/reaktoro-feedstock" xlink:title="reaktoro">
<ellipse fill="#fde725" stroke="black" cx="305.25" cy="-350" rx="53.84" ry="18"/>
<text text-anchor="middle" x="305.25" y="-345.32" font-family="Times,serif" font-size="14.00">reaktoro</text>
</a>
</g>
</g>
<!-- thermofun -->
<g id="node2" class="node">
<title>thermofun</title>
<g id="a_node2"><a xlink:href="https://github.com/conda-forge/thermofun-feedstock" xlink:title="thermofun">
<ellipse fill="#fde725" stroke="black" cx="380.25" cy="-422" rx="63.84" ry="18"/>
<text text-anchor="middle" x="380.25" y="-417.32" font-family="Times,serif" font-size="14.00">thermofun</text>
</a>
</g>
</g>
<!-- thermofun&#45;&gt;reaktoro -->
<g id="edge1" class="edge">
<title>thermofun&#45;&gt;reaktoro</title>
<path fill="none" stroke="black" d="M362.48,-404.41C353.14,-395.69 341.52,-384.85 331.19,-375.21"/>
<polygon fill="black" stroke="black" points="333.7,-372.77 324,-368.5 328.93,-377.88 333.7,-372.77"/>
</g>
<!-- gems3k -->
<g id="node3" class="node">
<title>gems3k</title>
<g id="a_node3"><a xlink:href="https://github.com/conda-forge/gems3k-feedstock" xlink:title="gems3k">
<ellipse fill="#fde725" stroke="black" cx="465.25" cy="-350" rx="50.16" ry="18"/>
<text text-anchor="middle" x="465.25" y="-345.32" font-family="Times,serif" font-size="14.00">gems3k</text>
</a>
</g>
</g>
<!-- thermofun&#45;&gt;gems3k -->
<g id="edge2" class="edge">
<title>thermofun&#45;&gt;gems3k</title>
<path fill="none" stroke="black" d="M399.97,-404.76C410.99,-395.69 424.91,-384.22 437.07,-374.21"/>
<polygon fill="black" stroke="black" points="439.28,-376.93 444.77,-367.87 434.83,-371.52 439.28,-376.93"/>
</g>
<!-- xgems -->
<g id="node4" class="node">
<title>xgems</title>
<g id="a_node4"><a xlink:href="https://github.com/conda-forge/xgems-feedstock" xlink:title="xgems">
<ellipse fill="#fde725" stroke="black" cx="426.25" cy="-278" rx="43.84" ry="18"/>
<text text-anchor="middle" x="426.25" y="-273.32" font-family="Times,serif" font-size="14.00">xgems</text>
</a>
</g>
</g>
<!-- thermofun&#45;&gt;xgems -->
<g id="edge3" class="edge">
<title>thermofun&#45;&gt;xgems</title>
<path fill="none" stroke="black" d="M384.85,-403.82C389.77,-385.8 397.99,-356.73 406.25,-332 409.04,-323.66 412.32,-314.69 415.4,-306.54"/>
<polygon fill="black" stroke="black" points="418.56,-308.07 418.89,-297.48 412.03,-305.56 418.56,-308.07"/>
</g>
<!-- gems3k&#45;&gt;xgems -->
<g id="edge4" class="edge">
<title>gems3k&#45;&gt;xgems</title>
<path fill="none" stroke="black" d="M455.81,-332.05C451.4,-324.14 446.05,-314.54 441.12,-305.69"/>
<polygon fill="black" stroke="black" points="444.27,-304.14 436.34,-297.11 438.15,-307.55 444.27,-304.14"/>
</g>
<!-- vowpalwabbit -->
<g id="node5" class="node">
<title>vowpalwabbit</title>
<g id="a_node5"><a xlink:href="https://github.com/conda-forge/vowpalwabbit-feedstock/pull/82" xlink:title="vowpalwabbit ❎">
<ellipse fill="#31688e" stroke="black" cx="121.71" cy="-638" rx="95.93" ry="18"/>
<text text-anchor="middle" x="121.71" y="-633.33" font-family="Times,serif" font-size="14.00" fill="white">vowpalwabbit ❎</text>
</a>
</g>
</g>
<!-- prmon -->
<g id="node6" class="node">
<title>prmon</title>
<g id="a_node6"><a xlink:href="https://github.com/conda-forge/prmon-feedstock/pull/20" xlink:title="prmon ✓">
<ellipse fill="#31688e" stroke="black" cx="121.71" cy="-566" rx="51.74" ry="18"/>
<text text-anchor="middle" x="121.71" y="-561.33" font-family="Times,serif" font-size="14.00" fill="white">prmon ✓</text>
</a>
</g>
</g>
<!-- vowpalwabbit&#45;&gt;prmon -->
<!-- bear -->
<g id="node7" class="node">
<title>bear</title>
<g id="a_node7"><a xlink:href="https://github.com/conda-forge/bear-feedstock/pull/49" xlink:title="bear ❎">
<ellipse fill="#31688e" stroke="black" cx="121.71" cy="-494" rx="49.1" ry="18"/>
<text text-anchor="middle" x="121.71" y="-489.32" font-family="Times,serif" font-size="14.00" fill="white">bear ❎</text>
</a>
</g>
</g>
<!-- prmon&#45;&gt;bear -->
<!-- powerloader -->
<g id="node10" class="node">
<title>powerloader</title>
<g id="a_node10"><a xlink:href="https://github.com/conda-forge/powerloader-feedstock/pull/29" xlink:title="powerloader ❎">
<ellipse fill="#31688e" stroke="black" cx="121.71" cy="-422" rx="89.09" ry="18"/>
<text text-anchor="middle" x="121.71" y="-417.32" font-family="Times,serif" font-size="14.00" fill="white">powerloader ❎</text>
</a>
</g>
</g>
<!-- bear&#45;&gt;powerloader -->
<!-- librmm -->
<g id="node8" class="node">
<title>librmm</title>
<g id="a_node8"><a xlink:href="https://github.com/conda-forge/librmm-feedstock/pull/67" xlink:title="librmm ❎">
<ellipse fill="#31688e" stroke="black" cx="121.71" cy="-90" rx="62.78" ry="18"/>
<text text-anchor="middle" x="121.71" y="-85.33" font-family="Times,serif" font-size="14.00" fill="white">librmm ❎</text>
</a>
</g>
</g>
<!-- rmm -->
<g id="node9" class="node">
<title>rmm</title>
<g id="a_node9"><a xlink:href="https://github.com/conda-forge/rmm-feedstock" xlink:title="rmm">
<ellipse fill="#fde725" stroke="black" cx="121.71" cy="-18" rx="34.9" ry="18"/>
<text text-anchor="middle" x="121.71" y="-13.32" font-family="Times,serif" font-size="14.00">rmm</text>
</a>
</g>
</g>
<!-- librmm&#45;&gt;rmm -->
<g id="edge7" class="edge">
<title>librmm&#45;&gt;rmm</title>
<path fill="none" stroke="black" d="M121.71,-71.7C121.71,-64.41 121.71,-55.73 121.71,-47.54"/>
<polygon fill="black" stroke="black" points="125.21,-47.62 121.71,-37.62 118.21,-47.62 125.21,-47.62"/>
</g>
<!-- libhdbpp&#45;timescale -->
<g id="node14" class="node">
<title>libhdbpp&#45;timescale</title>
<g id="a_node14"><a xlink:href="https://github.com/conda-forge/libhdbpp-timescale-feedstock/pull/14" xlink:title="libhdbpp timescale ❎">
<ellipse fill="#31688e" stroke="black" cx="121.71" cy="-350" rx="121.71" ry="18"/>
<text text-anchor="middle" x="121.71" y="-345.32" font-family="Times,serif" font-size="14.00" fill="white">libhdbpp timescale ❎</text>
</a>
</g>
</g>
<!-- powerloader&#45;&gt;libhdbpp&#45;timescale -->
<!-- chemicalfun -->
<g id="node11" class="node">
<title>chemicalfun</title>
<g id="a_node11"><a xlink:href="https://github.com/conda-forge/chemicalfun-feedstock/pull/18" xlink:title="chemicalfun ❎">
<ellipse fill="#31688e" stroke="black" cx="426.25" cy="-494" rx="86.98" ry="18"/>
<text text-anchor="middle" x="426.25" y="-489.32" font-family="Times,serif" font-size="14.00" fill="white">chemicalfun ❎</text>
</a>
</g>
</g>
<!-- chemicalfun&#45;&gt;thermofun -->
<g id="edge9" class="edge">
<title>chemicalfun&#45;&gt;thermofun</title>
<path fill="none" stroke="black" d="M414.88,-475.7C409.7,-467.81 403.45,-458.3 397.7,-449.55"/>
<polygon fill="black" stroke="black" points="400.74,-447.8 392.32,-441.37 394.89,-451.65 400.74,-447.8"/>
</g>
<!-- chemicalfun&#45;&gt;gems3k -->
<g id="edge10" class="edge">
<title>chemicalfun&#45;&gt;gems3k</title>
<path fill="none" stroke="black" d="M436.8,-475.96C442.56,-465.87 449.31,-452.62 453.25,-440 459.37,-420.41 462.37,-397.44 463.84,-379.74"/>
<polygon fill="black" stroke="black" points="467.32,-380.16 464.52,-369.94 460.33,-379.67 467.32,-380.16"/>
</g>
<!-- river&#45;cpp -->
<g id="node12" class="node">
<title>river&#45;cpp</title>
<g id="a_node12"><a xlink:href="https://github.com/conda-forge/river-cpp-feedstock/pull/26" xlink:title="river cpp ✓">
<ellipse fill="#31688e" stroke="black" cx="603.55" cy="-422" rx="64.36" ry="18"/>
<text text-anchor="middle" x="603.55" y="-417.32" font-family="Times,serif" font-size="14.00" fill="white">river cpp ✓</text>
</a>
</g>
</g>
<!-- river&#45;ingester -->
<g id="node13" class="node">
<title>river&#45;ingester</title>
<g id="a_node13"><a xlink:href="https://github.com/conda-forge/river-ingester-feedstock" xlink:title="river ingester">
<ellipse fill="#fde725" stroke="black" cx="603.55" cy="-350" rx="80.14" ry="18"/>
<text text-anchor="middle" x="603.55" y="-345.32" font-family="Times,serif" font-size="14.00">river ingester</text>
</a>
</g>
</g>
<!-- river&#45;cpp&#45;&gt;river&#45;ingester -->
<g id="edge11" class="edge">
<title>river&#45;cpp&#45;&gt;river&#45;ingester</title>
<path fill="none" stroke="black" d="M603.55,-403.7C603.55,-396.41 603.55,-387.73 603.55,-379.54"/>
<polygon fill="black" stroke="black" points="607.05,-379.62 603.55,-369.62 600.05,-379.62 607.05,-379.62"/>
</g>
<!-- tip -->
<g id="node15" class="node">
<title>tip</title>
<g id="a_node15"><a xlink:href="https://github.com/conda-forge/tip-feedstock/pull/31" xlink:title="tip ✓">
<ellipse fill="#31688e" stroke="black" cx="121.71" cy="-278" rx="32.79" ry="18"/>
<text text-anchor="middle" x="121.71" y="-273.32" font-family="Times,serif" font-size="14.00" fill="white">tip ✓</text>
</a>
</g>
</g>
<!-- libhdbpp&#45;timescale&#45;&gt;tip -->
<!-- cascade -->
<g id="node16" class="node">
<title>cascade</title>
<g id="a_node16"><a xlink:href="https://github.com/conda-forge/cascade-feedstock/pull/22" xlink:title="cascade ❎">
<ellipse fill="#31688e" stroke="black" cx="121.71" cy="-206" rx="65.94" ry="18"/>
<text text-anchor="middle" x="121.71" y="-201.33" font-family="Times,serif" font-size="14.00" fill="white">cascade ❎</text>
</a>
</g>
</g>
<!-- tip&#45;&gt;cascade -->
<!-- bmf -->
<g id="node17" class="node">
<title>bmf</title>
<g id="a_node17"><a xlink:href="https://github.com/conda-forge/bmf-feedstock/pull/28" xlink:title="bmf ❎">
<ellipse fill="#31688e" stroke="black" cx="121.71" cy="-134" rx="45.95" ry="18"/>
<text text-anchor="middle" x="121.71" y="-129.32" font-family="Times,serif" font-size="14.00" fill="white">bmf ❎</text>
</a>
</g>
</g>
<!-- cascade&#45;&gt;bmf -->
</g>
</svg>
