<?xml version="1.0" encoding="UTF-8" standalone="no"?>
<!DOCTYPE svg PUBLIC "-//W3C//DTD SVG 1.1//EN"
 "http://www.w3.org/Graphics/SVG/1.1/DTD/svg11.dtd">
<!-- Generated by graphviz version 12.2.1 (20250203.1708)
 -->
<!-- Pages: 1 -->
<svg width="739pt" height="116pt"
 viewBox="0.00 0.00 738.65 116.00" xmlns="http://www.w3.org/2000/svg" xmlns:xlink="http://www.w3.org/1999/xlink">
<g id="graph0" class="graph" transform="scale(1 1) rotate(0) translate(4 112)">
<polygon fill="white" stroke="none" points="-4,4 -4,-112 734.65,-112 734.65,4 -4,4"/>
<!-- llvm&#45;spirv -->
<g id="node1" class="node">
<title>llvm&#45;spirv</title>
<g id="a_node1"><a xlink:href="https://github.com/conda-forge/llvm-spirv-feedstock/pull/46" xlink:title="llvm spirv ❎">
<ellipse fill="#31688e" stroke="black" cx="308.97" cy="-90" rx="76.46" ry="18"/>
<text text-anchor="middle" x="308.97" y="-85.33" font-family="Times,serif" font-size="14.00" fill="white">llvm spirv ❎</text>
</a>
</g>
</g>
<!-- intel&#45;graphics&#45;compiler -->
<g id="node2" class="node">
<title>intel&#45;graphics&#45;compiler</title>
<g id="a_node2"><a xlink:href="https://github.com/conda-forge/intel-graphics-compiler-feedstock" xlink:title="intel graphics compiler">
<ellipse fill="#fde725" stroke="black" cx="126.97" cy="-18" rx="126.97" ry="18"/>
<text text-anchor="middle" x="126.97" y="-13.32" font-family="Times,serif" font-size="14.00">intel graphics compiler</text>
</a>
</g>
</g>
<!-- llvm&#45;spirv&#45;&gt;intel&#45;graphics&#45;compiler -->
<g id="edge2" class="edge">
<title>llvm&#45;spirv&#45;&gt;intel&#45;graphics&#45;compiler</title>
<path fill="none" stroke="black" d="M270.37,-74.15C244.19,-64.08 209.22,-50.64 180.37,-39.54"/>
<polygon fill="black" stroke="black" points="181.65,-36.28 171.06,-35.96 179.14,-42.81 181.65,-36.28"/>
</g>
<!-- libclc -->
<g id="node3" class="node">
<title>libclc</title>
<g id="a_node3"><a xlink:href="https://github.com/conda-forge/libclc-feedstock" xlink:title="libclc">
<ellipse fill="#fde725" stroke="black" cx="308.97" cy="-18" rx="37.53" ry="18"/>
<text text-anchor="middle" x="308.97" y="-13.32" font-family="Times,serif" font-size="14.00">libclc</text>
</a>
</g>
</g>
<!-- llvm&#45;spirv&#45;&gt;libclc -->
<g id="edge3" class="edge">
<title>llvm&#45;spirv&#45;&gt;libclc</title>
<path fill="none" stroke="black" d="M308.97,-71.7C308.97,-64.41 308.97,-55.73 308.97,-47.54"/>
<polygon fill="black" stroke="black" points="312.47,-47.62 308.97,-37.62 305.47,-47.62 312.47,-47.62"/>
</g>
<!-- adaptivecpp -->
<g id="node6" class="node">
<title>adaptivecpp</title>
<g id="a_node6"><a xlink:href="https://github.com/conda-forge/adaptivecpp-feedstock" xlink:title="adaptivecpp">
<ellipse fill="#fde725" stroke="black" cx="436.97" cy="-18" rx="72.25" ry="18"/>
<text text-anchor="middle" x="436.97" y="-13.32" font-family="Times,serif" font-size="14.00">adaptivecpp</text>
</a>
</g>
</g>
<!-- llvm&#45;spirv&#45;&gt;adaptivecpp -->
<g id="edge1" class="edge">
<title>llvm&#45;spirv&#45;&gt;adaptivecpp</title>
<path fill="none" stroke="black" d="M338.33,-72.94C356.1,-63.22 378.97,-50.72 398.21,-40.2"/>
<polygon fill="black" stroke="black" points="399.76,-43.34 406.85,-35.47 396.4,-37.2 399.76,-43.34"/>
</g>
<!-- clspv -->
<g id="node4" class="node">
<title>clspv</title>
<g id="a_node4"><a xlink:href="https://github.com/conda-forge/clspv-feedstock/pull/1" xlink:title="clspv ❎">
<ellipse fill="#31688e" stroke="black" cx="568.97" cy="-54" rx="52.26" ry="18"/>
<text text-anchor="middle" x="568.97" y="-49.33" font-family="Times,serif" font-size="14.00" fill="white">clspv ❎</text>
</a>
</g>
</g>
<!-- shaderc -->
<g id="node5" class="node">
<title>shaderc</title>
<g id="a_node5"><a xlink:href="https://github.com/conda-forge/shaderc-feedstock" xlink:title="shaderc">
<ellipse fill="#35b779" stroke="black" cx="679.97" cy="-54" rx="50.68" ry="18"/>
<text text-anchor="middle" x="679.97" y="-49.33" font-family="Times,serif" font-size="14.00">shaderc</text>
</a>
</g>
</g>
</g>
</svg>
