<?xml version="1.0" encoding="UTF-8" standalone="no"?>
<!DOCTYPE svg PUBLIC "-//W3C//DTD SVG 1.1//EN"
 "http://www.w3.org/Graphics/SVG/1.1/DTD/svg11.dtd">
<!-- Generated by graphviz version 13.1.2 (20250809.0930)
 -->
<!-- Pages: 1 -->
<svg width="1458pt" height="1428pt"
 viewBox="0.00 0.00 1458.00 1428.00" xmlns="http://www.w3.org/2000/svg" xmlns:xlink="http://www.w3.org/1999/xlink">
<g id="graph0" class="graph" transform="scale(1 1) rotate(0) translate(4 1424)">
<polygon fill="white" stroke="none" points="-4,4 -4,-1424 1453.85,-1424 1453.85,4 -4,4"/>
<!-- embree -->
<g id="node1" class="node">
<title>embree</title>
<g id="a_node1"><a xlink:href="https://github.com/conda-forge/embree-feedstock/pull/51" xlink:title="embree ✓">
<ellipse fill="#31688e" stroke="black" cx="727.26" cy="-1150" rx="57" ry="18"/>
<text xml:space="preserve" text-anchor="middle" x="727.26" y="-1145.33" font-family="Times,serif" font-size="14.00" fill="white">embree ✓</text>
</a>
</g>
</g>
<!-- fresnel -->
<g id="node2" class="node">
<title>fresnel</title>
<g id="a_node2"><a xlink:href="https://github.com/conda-forge/fresnel-feedstock" xlink:title="fresnel">
<ellipse fill="#fde725" stroke="black" cx="801.26" cy="-1078" rx="45.95" ry="18"/>
<text xml:space="preserve" text-anchor="middle" x="801.26" y="-1073.33" font-family="Times,serif" font-size="14.00">fresnel</text>
</a>
</g>
</g>
<!-- embree&#45;&gt;fresnel -->
<g id="edge1" class="edge">
<title>embree&#45;&gt;fresnel</title>
<path fill="none" stroke="black" d="M744.8,-1132.41C754.15,-1123.57 765.81,-1112.53 776.11,-1102.79"/>
<polygon fill="black" stroke="black" points="778.4,-1105.44 783.26,-1096.03 773.59,-1100.36 778.4,-1105.44"/>
</g>
<!-- open3d -->
<g id="node3" class="node">
<title>open3d</title>
<g id="a_node3"><a xlink:href="https://github.com/conda-forge/open3d-feedstock" xlink:title="open3d">
<ellipse fill="#fde725" stroke="black" cx="651.26" cy="-1078" rx="48.05" ry="18"/>
<text xml:space="preserve" text-anchor="middle" x="651.26" y="-1073.33" font-family="Times,serif" font-size="14.00">open3d</text>
</a>
</g>
</g>
<!-- embree&#45;&gt;open3d -->
<g id="edge2" class="edge">
<title>embree&#45;&gt;open3d</title>
<path fill="none" stroke="black" d="M709.63,-1132.76C699.95,-1123.84 687.75,-1112.61 677.01,-1102.72"/>
<polygon fill="black" stroke="black" points="679.63,-1100.37 669.91,-1096.17 674.89,-1105.52 679.63,-1100.37"/>
</g>
<!-- pymeshlab -->
<g id="node4" class="node">
<title>pymeshlab</title>
<g id="a_node4"><a xlink:href="https://github.com/conda-forge/pymeshlab-feedstock" xlink:title="pymeshlab">
<ellipse fill="#fde725" stroke="black" cx="727.26" cy="-1006" rx="65.41" ry="18"/>
<text xml:space="preserve" text-anchor="middle" x="727.26" y="-1001.33" font-family="Times,serif" font-size="14.00">pymeshlab</text>
</a>
</g>
</g>
<!-- embree&#45;&gt;pymeshlab -->
<g id="edge3" class="edge">
<title>embree&#45;&gt;pymeshlab</title>
<path fill="none" stroke="black" d="M727.26,-1131.59C727.26,-1107.61 727.26,-1064.14 727.26,-1035.42"/>
<polygon fill="black" stroke="black" points="730.76,-1035.62 727.26,-1025.62 723.76,-1035.62 730.76,-1035.62"/>
</g>
<!-- libitk -->
<g id="node5" class="node">
<title>libitk</title>
<g id="a_node5"><a xlink:href="https://github.com/conda-forge/libitk-feedstock/pull/109" xlink:title="libitk ❎">
<ellipse fill="#31688e" stroke="black" cx="52.26" cy="-1150" rx="52.26" ry="18"/>
<text xml:space="preserve" text-anchor="middle" x="52.26" y="-1145.33" font-family="Times,serif" font-size="14.00" fill="white">libitk ❎</text>
</a>
</g>
</g>
<!-- vmtk -->
<g id="node6" class="node">
<title>vmtk</title>
<g id="a_node6"><a xlink:href="https://github.com/conda-forge/vmtk-feedstock" xlink:title="vmtk">
<ellipse fill="#fde725" stroke="black" cx="52.26" cy="-1078" rx="36.48" ry="18"/>
<text xml:space="preserve" text-anchor="middle" x="52.26" y="-1073.33" font-family="Times,serif" font-size="14.00">vmtk</text>
</a>
</g>
</g>
<!-- libitk&#45;&gt;vmtk -->
<g id="edge4" class="edge">
<title>libitk&#45;&gt;vmtk</title>
<path fill="none" stroke="black" d="M52.26,-1131.7C52.26,-1124.41 52.26,-1115.73 52.26,-1107.54"/>
<polygon fill="black" stroke="black" points="55.76,-1107.62 52.26,-1097.62 48.76,-1107.62 55.76,-1107.62"/>
</g>
<!-- openturns -->
<g id="node7" class="node">
<title>openturns</title>
<g id="a_node7"><a xlink:href="https://github.com/conda-forge/openturns-feedstock" xlink:title="openturns">
<ellipse fill="#35b779" stroke="black" cx="967.26" cy="-1402" rx="62.26" ry="18"/>
<text xml:space="preserve" text-anchor="middle" x="967.26" y="-1397.33" font-family="Times,serif" font-size="14.00">openturns</text>
</a>
</g>
</g>
<!-- embree3 -->
<g id="node8" class="node">
<title>embree3</title>
<g id="a_node8"><a xlink:href="https://github.com/conda-forge/embree3-feedstock/pull/43" xlink:title="embree3 ❎">
<ellipse fill="#31688e" stroke="black" cx="967.26" cy="-1330" rx="70.68" ry="18"/>
<text xml:space="preserve" text-anchor="middle" x="967.26" y="-1325.33" font-family="Times,serif" font-size="14.00" fill="white">embree3 ❎</text>
</a>
</g>
</g>
<!-- openturns&#45;&gt;embree3 -->
<!-- openimageio -->
<g id="node26" class="node">
<title>openimageio</title>
<g id="a_node26"><a xlink:href="https://github.com/conda-forge/openimageio-feedstock/pull/128" xlink:title="openimageio ❎">
<ellipse fill="#31688e" stroke="black" cx="967.26" cy="-1258" rx="90.14" ry="18"/>
<text xml:space="preserve" text-anchor="middle" x="967.26" y="-1253.33" font-family="Times,serif" font-size="14.00" fill="white">openimageio ❎</text>
</a>
</g>
</g>
<!-- embree3&#45;&gt;openimageio -->
<!-- r&#45;rcppparallel -->
<g id="node9" class="node">
<title>r&#45;rcppparallel</title>
<g id="a_node9"><a xlink:href="https://github.com/conda-forge/r-rcppparallel-feedstock/pull/43" xlink:title="r rcppparallel ✓">
<ellipse fill="#31688e" stroke="black" cx="1271.26" cy="-1222" rx="87.51" ry="18"/>
<text xml:space="preserve" text-anchor="middle" x="1271.26" y="-1217.33" font-family="Times,serif" font-size="14.00" fill="white">r rcppparallel ✓</text>
</a>
</g>
</g>
<!-- r&#45;rfast -->
<g id="node10" class="node">
<title>r&#45;rfast</title>
<g id="a_node10"><a xlink:href="https://github.com/conda-forge/r-rfast-feedstock" xlink:title="r rfast">
<ellipse fill="#fde725" stroke="black" cx="1162.26" cy="-1150" rx="42.79" ry="18"/>
<text xml:space="preserve" text-anchor="middle" x="1162.26" y="-1145.33" font-family="Times,serif" font-size="14.00">r rfast</text>
</a>
</g>
</g>
<!-- r&#45;rcppparallel&#45;&gt;r&#45;rfast -->
<g id="edge6" class="edge">
<title>r&#45;rcppparallel&#45;&gt;r&#45;rfast</title>
<path fill="none" stroke="black" d="M1245.43,-1204.41C1230.21,-1194.63 1210.81,-1182.18 1194.58,-1171.76"/>
<polygon fill="black" stroke="black" points="1196.53,-1168.85 1186.22,-1166.39 1192.75,-1174.74 1196.53,-1168.85"/>
</g>
<!-- r&#45;stringfish -->
<g id="node11" class="node">
<title>r&#45;stringfish</title>
<g id="a_node11"><a xlink:href="https://github.com/conda-forge/r-stringfish-feedstock" xlink:title="r stringfish">
<ellipse fill="#fde725" stroke="black" cx="1155.26" cy="-1078" rx="66.99" ry="18"/>
<text xml:space="preserve" text-anchor="middle" x="1155.26" y="-1073.33" font-family="Times,serif" font-size="14.00">r stringfish</text>
</a>
</g>
</g>
<!-- r&#45;rcppparallel&#45;&gt;r&#45;stringfish -->
<g id="edge7" class="edge">
<title>r&#45;rcppparallel&#45;&gt;r&#45;stringfish</title>
<path fill="none" stroke="black" d="M1262.02,-1203.66C1251.66,-1185.01 1233.75,-1154.93 1214.26,-1132 1205.52,-1121.72 1194.83,-1111.54 1184.96,-1102.89"/>
<polygon fill="black" stroke="black" points="1187.23,-1100.24 1177.35,-1096.41 1182.69,-1105.56 1187.23,-1100.24"/>
</g>
<!-- r&#45;datavisualizations -->
<g id="node12" class="node">
<title>r&#45;datavisualizations</title>
<g id="a_node12"><a xlink:href="https://github.com/conda-forge/r-datavisualizations-feedstock" xlink:title="r datavisualizations">
<ellipse fill="#fde725" stroke="black" cx="1271.26" cy="-1006" rx="109.61" ry="18"/>
<text xml:space="preserve" text-anchor="middle" x="1271.26" y="-1001.33" font-family="Times,serif" font-size="14.00">r datavisualizations</text>
</a>
</g>
</g>
<!-- r&#45;rcppparallel&#45;&gt;r&#45;datavisualizations -->
<g id="edge8" class="edge">
<title>r&#45;rcppparallel&#45;&gt;r&#45;datavisualizations</title>
<path fill="none" stroke="black" d="M1271.26,-1203.85C1271.26,-1167.14 1271.26,-1080.66 1271.26,-1035.53"/>
<polygon fill="black" stroke="black" points="1274.76,-1035.75 1271.26,-1025.75 1267.76,-1035.75 1274.76,-1035.75"/>
</g>
<!-- r&#45;rxode2ll -->
<g id="node13" class="node">
<title>r&#45;rxode2ll</title>
<g id="a_node13"><a xlink:href="https://github.com/conda-forge/r-rxode2ll-feedstock" xlink:title="r rxode2ll">
<ellipse fill="#fde725" stroke="black" cx="1359.26" cy="-934" rx="60.15" ry="18"/>
<text xml:space="preserve" text-anchor="middle" x="1359.26" y="-929.33" font-family="Times,serif" font-size="14.00">r rxode2ll</text>
</a>
</g>
</g>
<!-- r&#45;rcppparallel&#45;&gt;r&#45;rxode2ll -->
<g id="edge9" class="edge">
<title>r&#45;rcppparallel&#45;&gt;r&#45;rxode2ll</title>
<path fill="none" stroke="black" d="M1286.21,-1203.82C1313.32,-1171.38 1369.73,-1097.71 1390.26,-1024 1394.56,-1008.59 1394.45,-1003.44 1390.26,-988 1387.75,-978.74 1383.18,-969.44 1378.3,-961.27"/>
<polygon fill="black" stroke="black" points="1381.26,-959.41 1372.9,-952.9 1375.37,-963.2 1381.26,-959.41"/>
</g>
<!-- r&#45;rxode2 -->
<g id="node14" class="node">
<title>r&#45;rxode2</title>
<g id="a_node14"><a xlink:href="https://github.com/conda-forge/r-rxode2-feedstock" xlink:title="r rxode2">
<ellipse fill="#fde725" stroke="black" cx="1359.26" cy="-862" rx="53.84" ry="18"/>
<text xml:space="preserve" text-anchor="middle" x="1359.26" y="-857.33" font-family="Times,serif" font-size="14.00">r rxode2</text>
</a>
</g>
</g>
<!-- r&#45;rcppparallel&#45;&gt;r&#45;rxode2 -->
<g id="edge10" class="edge">
<title>r&#45;rcppparallel&#45;&gt;r&#45;rxode2</title>
<path fill="none" stroke="black" d="M1317.5,-1206.29C1369.65,-1186.46 1447.26,-1145.74 1447.26,-1079 1447.26,-1079 1447.26,-1079 1447.26,-1005 1447.26,-964.55 1449.85,-950.2 1428.26,-916 1420.31,-903.4 1408.24,-892.64 1396.41,-884.18"/>
<polygon fill="black" stroke="black" points="1398.56,-881.41 1388.31,-878.73 1394.66,-887.22 1398.56,-881.41"/>
</g>
<!-- r&#45;stringfish&#45;&gt;r&#45;rxode2 -->
<g id="edge11" class="edge">
<title>r&#45;stringfish&#45;&gt;r&#45;rxode2</title>
<path fill="none" stroke="black" d="M1149.64,-1059.68C1144.59,-1040.77 1139.72,-1010.22 1152.26,-988 1185.35,-929.37 1258.22,-895.14 1308.04,-877.75"/>
<polygon fill="black" stroke="black" points="1309.12,-881.08 1317.49,-874.57 1306.89,-874.44 1309.12,-881.08"/>
</g>
<!-- r&#45;rxode2ll&#45;&gt;r&#45;rxode2 -->
<g id="edge12" class="edge">
<title>r&#45;rxode2ll&#45;&gt;r&#45;rxode2</title>
<path fill="none" stroke="black" d="M1359.26,-915.7C1359.26,-908.41 1359.26,-899.73 1359.26,-891.54"/>
<polygon fill="black" stroke="black" points="1362.76,-891.62 1359.26,-881.62 1355.76,-891.62 1362.76,-891.62"/>
</g>
<!-- vtk -->
<g id="node15" class="node">
<title>vtk</title>
<g id="a_node15"><a xlink:href="https://github.com/conda-forge/vtk-feedstock/pull/416" xlink:title="vtk ❎">
<ellipse fill="#31688e" stroke="black" cx="415.26" cy="-1150" rx="42.26" ry="18"/>
<text xml:space="preserve" text-anchor="middle" x="415.26" y="-1145.33" font-family="Times,serif" font-size="14.00" fill="white">vtk ❎</text>
</a>
</g>
</g>
<!-- vtk&#45;&gt;open3d -->
<g id="edge13" class="edge">
<title>vtk&#45;&gt;open3d</title>
<path fill="none" stroke="black" d="M449.33,-1138.9C489.89,-1126.86 557.9,-1106.69 603.65,-1093.12"/>
<polygon fill="black" stroke="black" points="604.44,-1096.54 613.04,-1090.34 602.45,-1089.83 604.44,-1096.54"/>
</g>
<!-- vtk&#45;&gt;vmtk -->
<g id="edge14" class="edge">
<title>vtk&#45;&gt;vmtk</title>
<path fill="none" stroke="black" d="M374.81,-1144.25C314.75,-1136.74 198.7,-1120.39 102.26,-1096 98.75,-1095.11 95.13,-1094.09 91.52,-1093.01"/>
<polygon fill="black" stroke="black" points="92.88,-1089.76 82.29,-1090.06 90.75,-1096.43 92.88,-1089.76"/>
</g>
<!-- occt -->
<g id="node16" class="node">
<title>occt</title>
<g id="a_node16"><a xlink:href="https://github.com/conda-forge/occt-feedstock" xlink:title="occt">
<ellipse fill="#fde725" stroke="black" cx="476.26" cy="-1078" rx="31.74" ry="18"/>
<text xml:space="preserve" text-anchor="middle" x="476.26" y="-1073.33" font-family="Times,serif" font-size="14.00">occt</text>
</a>
</g>
</g>
<!-- vtk&#45;&gt;occt -->
<g id="edge15" class="edge">
<title>vtk&#45;&gt;occt</title>
<path fill="none" stroke="black" d="M429.41,-1132.76C437.06,-1123.98 446.66,-1112.96 455.18,-1103.19"/>
<polygon fill="black" stroke="black" points="457.68,-1105.65 461.62,-1095.81 452.41,-1101.05 457.68,-1105.65"/>
</g>
<!-- smesh -->
<g id="node17" class="node">
<title>smesh</title>
<g id="a_node17"><a xlink:href="https://github.com/conda-forge/smesh-feedstock" xlink:title="smesh">
<ellipse fill="#fde725" stroke="black" cx="415.26" cy="-1006" rx="43.32" ry="18"/>
<text xml:space="preserve" text-anchor="middle" x="415.26" y="-1001.33" font-family="Times,serif" font-size="14.00">smesh</text>
</a>
</g>
</g>
<!-- vtk&#45;&gt;smesh -->
<g id="edge16" class="edge">
<title>vtk&#45;&gt;smesh</title>
<path fill="none" stroke="black" d="M415.26,-1131.59C415.26,-1107.61 415.26,-1064.14 415.26,-1035.42"/>
<polygon fill="black" stroke="black" points="418.76,-1035.62 415.26,-1025.62 411.76,-1035.62 418.76,-1035.62"/>
</g>
<!-- pcl -->
<g id="node18" class="node">
<title>pcl</title>
<g id="a_node18"><a xlink:href="https://github.com/conda-forge/pcl-feedstock" xlink:title="pcl">
<ellipse fill="#fde725" stroke="black" cx="617.26" cy="-1006" rx="27" ry="18"/>
<text xml:space="preserve" text-anchor="middle" x="617.26" y="-1001.33" font-family="Times,serif" font-size="14.00">pcl</text>
</a>
</g>
</g>
<!-- vtk&#45;&gt;pcl -->
<g id="edge17" class="edge">
<title>vtk&#45;&gt;pcl</title>
<path fill="none" stroke="black" d="M449.8,-1139.09C476.2,-1130.45 512.63,-1116.12 540.26,-1096 564.57,-1078.31 586.37,-1051.55 600.52,-1031.99"/>
<polygon fill="black" stroke="black" points="603.24,-1034.21 606.14,-1024.02 597.52,-1030.18 603.24,-1034.21"/>
</g>
<!-- freecad -->
<g id="node19" class="node">
<title>freecad</title>
<g id="a_node19"><a xlink:href="https://github.com/conda-forge/freecad-feedstock" xlink:title="freecad">
<ellipse fill="#fde725" stroke="black" cx="450.26" cy="-934" rx="48.58" ry="18"/>
<text xml:space="preserve" text-anchor="middle" x="450.26" y="-929.33" font-family="Times,serif" font-size="14.00">freecad</text>
</a>
</g>
</g>
<!-- vtk&#45;&gt;freecad -->
<g id="edge18" class="edge">
<title>vtk&#45;&gt;freecad</title>
<path fill="none" stroke="black" d="M401.59,-1132.59C378.25,-1102.46 335.78,-1036.91 363.26,-988 372.44,-971.66 388.94,-959.76 405.11,-951.43"/>
<polygon fill="black" stroke="black" points="406.18,-954.8 413.71,-947.35 403.18,-948.48 406.18,-954.8"/>
</g>
<!-- topologytoolkit -->
<g id="node20" class="node">
<title>topologytoolkit</title>
<g id="a_node20"><a xlink:href="https://github.com/conda-forge/topologytoolkit-feedstock" xlink:title="topologytoolkit">
<ellipse fill="#fde725" stroke="black" cx="230.26" cy="-1006" rx="86.46" ry="18"/>
<text xml:space="preserve" text-anchor="middle" x="230.26" y="-1001.33" font-family="Times,serif" font-size="14.00">topologytoolkit</text>
</a>
</g>
</g>
<!-- vtk&#45;&gt;topologytoolkit -->
<g id="edge19" class="edge">
<title>vtk&#45;&gt;topologytoolkit</title>
<path fill="none" stroke="black" d="M390.35,-1134.98C373.01,-1124.86 349.62,-1110.48 330.26,-1096 303.52,-1075.99 275.28,-1050.39 255.66,-1031.79"/>
<polygon fill="black" stroke="black" points="258.29,-1029.46 248.64,-1025.08 253.45,-1034.52 258.29,-1029.46"/>
</g>
<!-- python&#45;mint -->
<g id="node21" class="node">
<title>python&#45;mint</title>
<g id="a_node21"><a xlink:href="https://github.com/conda-forge/python-mint-feedstock" xlink:title="python mint">
<ellipse fill="#fde725" stroke="black" cx="116.26" cy="-934" rx="72.25" ry="18"/>
<text xml:space="preserve" text-anchor="middle" x="116.26" y="-929.33" font-family="Times,serif" font-size="14.00">python mint</text>
</a>
</g>
</g>
<!-- vtk&#45;&gt;python&#45;mint -->
<g id="edge20" class="edge">
<title>vtk&#45;&gt;python&#45;mint</title>
<path fill="none" stroke="black" d="M375.6,-1143.2C313.87,-1131.96 195.64,-1101.13 135.26,-1024 121.86,-1006.88 117.37,-982.44 116.09,-963.5"/>
<polygon fill="black" stroke="black" points="119.6,-963.63 115.72,-953.77 112.61,-963.9 119.6,-963.63"/>
</g>
<!-- ocp -->
<g id="node22" class="node">
<title>ocp</title>
<g id="a_node22"><a xlink:href="https://github.com/conda-forge/ocp-feedstock" xlink:title="ocp">
<ellipse fill="#fde725" stroke="black" cx="543.26" cy="-1006" rx="28.59" ry="18"/>
<text xml:space="preserve" text-anchor="middle" x="543.26" y="-1001.33" font-family="Times,serif" font-size="14.00">ocp</text>
</a>
</g>
</g>
<!-- vtk&#45;&gt;ocp -->
<g id="edge21" class="edge">
<title>vtk&#45;&gt;ocp</title>
<path fill="none" stroke="black" d="M449.15,-1139.16C471.5,-1131.02 499.78,-1117.28 517.26,-1096 531.33,-1078.88 537.79,-1054.44 540.75,-1035.5"/>
<polygon fill="black" stroke="black" points="544.2,-1036.13 542.01,-1025.76 537.25,-1035.23 544.2,-1036.13"/>
</g>
<!-- occt&#45;&gt;smesh -->
<g id="edge22" class="edge">
<title>occt&#45;&gt;smesh</title>
<path fill="none" stroke="black" d="M462.72,-1061.46C455.2,-1052.83 445.65,-1041.88 437.1,-1032.06"/>
<polygon fill="black" stroke="black" points="439.81,-1029.85 430.61,-1024.61 434.54,-1034.45 439.81,-1029.85"/>
</g>
<!-- occt&#45;&gt;freecad -->
<g id="edge23" class="edge">
<title>occt&#45;&gt;freecad</title>
<path fill="none" stroke="black" d="M475.59,-1059.78C474.64,-1041.73 472.4,-1012.63 467.26,-988 465.52,-979.64 462.95,-970.74 460.34,-962.66"/>
<polygon fill="black" stroke="black" points="463.72,-961.72 457.19,-953.37 457.09,-963.97 463.72,-961.72"/>
</g>
<!-- occt&#45;&gt;ocp -->
<g id="edge24" class="edge">
<title>occt&#45;&gt;ocp</title>
<path fill="none" stroke="black" d="M490.8,-1061.81C499.7,-1052.51 511.26,-1040.43 521.27,-1029.98"/>
<polygon fill="black" stroke="black" points="523.78,-1032.42 528.16,-1022.77 518.72,-1027.58 523.78,-1032.42"/>
</g>
<!-- smesh&#45;&gt;freecad -->
<g id="edge25" class="edge">
<title>smesh&#45;&gt;freecad</title>
<path fill="none" stroke="black" d="M423.73,-988.05C427.65,-980.23 432.39,-970.75 436.77,-961.98"/>
<polygon fill="black" stroke="black" points="439.85,-963.65 441.19,-953.14 433.59,-960.52 439.85,-963.65"/>
</g>
<!-- pcl&#45;&gt;freecad -->
<g id="edge26" class="edge">
<title>pcl&#45;&gt;freecad</title>
<path fill="none" stroke="black" d="M596.03,-994.73C591.2,-992.46 586.07,-990.11 581.26,-988 552.26,-975.3 519.2,-961.93 493.55,-951.8"/>
<polygon fill="black" stroke="black" points="495.04,-948.63 484.45,-948.22 492.48,-955.14 495.04,-948.63"/>
</g>
<!-- numba -->
<g id="node23" class="node">
<title>numba</title>
<g id="a_node23"><a xlink:href="https://github.com/conda-forge/numba-feedstock/pull/172" xlink:title="numba ✓">
<ellipse fill="#31688e" stroke="black" cx="421.26" cy="-162" rx="53.31" ry="18"/>
<text xml:space="preserve" text-anchor="middle" x="421.26" y="-157.32" font-family="Times,serif" font-size="14.00" fill="white">numba ✓</text>
</a>
</g>
</g>
<!-- root -->
<g id="node24" class="node">
<title>root</title>
<g id="a_node24"><a xlink:href="https://github.com/conda-forge/root-feedstock" xlink:title="root">
<ellipse fill="#fde725" stroke="black" cx="391.26" cy="-90" rx="31.74" ry="18"/>
<text xml:space="preserve" text-anchor="middle" x="391.26" y="-85.33" font-family="Times,serif" font-size="14.00">root</text>
</a>
</g>
</g>
<!-- numba&#45;&gt;root -->
<g id="edge27" class="edge">
<title>numba&#45;&gt;root</title>
<path fill="none" stroke="black" d="M413.85,-143.7C410.53,-135.95 406.54,-126.64 402.84,-118.02"/>
<polygon fill="black" stroke="black" points="406.14,-116.83 398.98,-109.01 399.7,-119.58 406.14,-116.83"/>
</g>
<!-- scipp -->
<g id="node25" class="node">
<title>scipp</title>
<g id="a_node25"><a xlink:href="https://github.com/conda-forge/scipp-feedstock" xlink:title="scipp">
<ellipse fill="#fde725" stroke="black" cx="451.26" cy="-18" rx="37.53" ry="18"/>
<text xml:space="preserve" text-anchor="middle" x="451.26" y="-13.32" font-family="Times,serif" font-size="14.00">scipp</text>
</a>
</g>
</g>
<!-- numba&#45;&gt;scipp -->
<g id="edge28" class="edge">
<title>numba&#45;&gt;scipp</title>
<path fill="none" stroke="black" d="M424.94,-143.59C430.03,-119.5 439.27,-75.75 445.34,-47.03"/>
<polygon fill="black" stroke="black" points="448.69,-48.1 447.33,-37.59 441.84,-46.65 448.69,-48.1"/>
</g>
<!-- dealii -->
<g id="node27" class="node">
<title>dealii</title>
<g id="a_node27"><a xlink:href="https://github.com/conda-forge/dealii-feedstock/pull/36" xlink:title="dealii ❎">
<ellipse fill="#31688e" stroke="black" cx="967.26" cy="-1186" rx="53.84" ry="18"/>
<text xml:space="preserve" text-anchor="middle" x="967.26" y="-1181.33" font-family="Times,serif" font-size="14.00" fill="white">dealii ❎</text>
</a>
</g>
</g>
<!-- openimageio&#45;&gt;dealii -->
<!-- r&#45;proxyc -->
<g id="node28" class="node">
<title>r&#45;proxyc</title>
<g id="a_node28"><a xlink:href="https://github.com/conda-forge/r-proxyc-feedstock/pull/26" xlink:title="r proxyc ✓">
<ellipse fill="#31688e" stroke="black" cx="967.26" cy="-1114" rx="60.68" ry="18"/>
<text xml:space="preserve" text-anchor="middle" x="967.26" y="-1109.33" font-family="Times,serif" font-size="14.00" fill="white">r proxyc ✓</text>
</a>
</g>
</g>
<!-- dealii&#45;&gt;r&#45;proxyc -->
<!-- dcgp&#45;python -->
<g id="node29" class="node">
<title>dcgp&#45;python</title>
<g id="a_node29"><a xlink:href="https://github.com/conda-forge/dcgp-python-feedstock" xlink:title="dcgp python">
<ellipse fill="#35b779" stroke="black" cx="967.26" cy="-1042" rx="73.3" ry="18"/>
<text xml:space="preserve" text-anchor="middle" x="967.26" y="-1037.33" font-family="Times,serif" font-size="14.00">dcgp python</text>
</a>
</g>
</g>
<!-- r&#45;proxyc&#45;&gt;dcgp&#45;python -->
<!-- foamalgo -->
<g id="node32" class="node">
<title>foamalgo</title>
<g id="a_node32"><a xlink:href="https://github.com/conda-forge/foamalgo-feedstock/pull/19" xlink:title="foamalgo ❎">
<ellipse fill="#31688e" stroke="black" cx="967.26" cy="-970" rx="72.25" ry="18"/>
<text xml:space="preserve" text-anchor="middle" x="967.26" y="-965.33" font-family="Times,serif" font-size="14.00" fill="white">foamalgo ❎</text>
</a>
</g>
</g>
<!-- dcgp&#45;python&#45;&gt;foamalgo -->
<!-- gazebo -->
<g id="node30" class="node">
<title>gazebo</title>
<g id="a_node30"><a xlink:href="https://github.com/conda-forge/gazebo-feedstock/pull/248" xlink:title="gazebo ❎">
<ellipse fill="#31688e" stroke="black" cx="967.26" cy="-458" rx="61.73" ry="18"/>
<text xml:space="preserve" text-anchor="middle" x="967.26" y="-453.32" font-family="Times,serif" font-size="14.00" fill="white">gazebo ❎</text>
</a>
</g>
</g>
<!-- gazebo&#45;yarp&#45;plugins -->
<g id="node31" class="node">
<title>gazebo&#45;yarp&#45;plugins</title>
<g id="a_node31"><a xlink:href="https://github.com/conda-forge/gazebo-yarp-plugins-feedstock" xlink:title="gazebo yarp plugins">
<ellipse fill="#fde725" stroke="black" cx="967.26" cy="-386" rx="112.24" ry="18"/>
<text xml:space="preserve" text-anchor="middle" x="967.26" y="-381.32" font-family="Times,serif" font-size="14.00">gazebo yarp plugins</text>
</a>
</g>
</g>
<!-- gazebo&#45;&gt;gazebo&#45;yarp&#45;plugins -->
<g id="edge33" class="edge">
<title>gazebo&#45;&gt;gazebo&#45;yarp&#45;plugins</title>
<path fill="none" stroke="black" d="M967.26,-439.7C967.26,-432.41 967.26,-423.73 967.26,-415.54"/>
<polygon fill="black" stroke="black" points="970.76,-415.62 967.26,-405.62 963.76,-415.62 970.76,-415.62"/>
</g>
<!-- scipoptsuite -->
<g id="node33" class="node">
<title>scipoptsuite</title>
<g id="a_node33"><a xlink:href="https://github.com/conda-forge/scipoptsuite-feedstock/pull/95" xlink:title="scipoptsuite ❎">
<ellipse fill="#31688e" stroke="black" cx="967.26" cy="-898" rx="87.51" ry="18"/>
<text xml:space="preserve" text-anchor="middle" x="967.26" y="-893.33" font-family="Times,serif" font-size="14.00" fill="white">scipoptsuite ❎</text>
</a>
</g>
</g>
<!-- foamalgo&#45;&gt;scipoptsuite -->
<!-- onednn -->
<g id="node34" class="node">
<title>onednn</title>
<g id="a_node34"><a xlink:href="https://github.com/conda-forge/onednn-feedstock/pull/96" xlink:title="onednn ❎">
<ellipse fill="#31688e" stroke="black" cx="967.26" cy="-826" rx="63.31" ry="18"/>
<text xml:space="preserve" text-anchor="middle" x="967.26" y="-821.33" font-family="Times,serif" font-size="14.00" fill="white">onednn ❎</text>
</a>
</g>
</g>
<!-- scipoptsuite&#45;&gt;onednn -->
<!-- cadet -->
<g id="node37" class="node">
<title>cadet</title>
<g id="a_node37"><a xlink:href="https://github.com/conda-forge/cadet-feedstock/pull/32" xlink:title="cadet ✓">
<ellipse fill="#31688e" stroke="black" cx="967.26" cy="-754" rx="46.47" ry="18"/>
<text xml:space="preserve" text-anchor="middle" x="967.26" y="-749.33" font-family="Times,serif" font-size="14.00" fill="white">cadet ✓</text>
</a>
</g>
</g>
<!-- onednn&#45;&gt;cadet -->
<!-- heyoka.py -->
<g id="node35" class="node">
<title>heyoka.py</title>
<g id="a_node35"><a xlink:href="https://github.com/conda-forge/heyoka.py-feedstock" xlink:title="heyoka py">
<ellipse fill="#35b779" stroke="black" cx="1268.26" cy="-126" rx="61.73" ry="18"/>
<text xml:space="preserve" text-anchor="middle" x="1268.26" y="-121.33" font-family="Times,serif" font-size="14.00">heyoka py</text>
</a>
</g>
</g>
<!-- cascade -->
<g id="node36" class="node">
<title>cascade</title>
<g id="a_node36"><a xlink:href="https://github.com/conda-forge/cascade-feedstock" xlink:title="cascade">
<ellipse fill="#fde725" stroke="black" cx="1268.26" cy="-54" rx="50.68" ry="18"/>
<text xml:space="preserve" text-anchor="middle" x="1268.26" y="-49.33" font-family="Times,serif" font-size="14.00">cascade</text>
</a>
</g>
</g>
<!-- heyoka.py&#45;&gt;cascade -->
<g id="edge37" class="edge">
<title>heyoka.py&#45;&gt;cascade</title>
<path fill="none" stroke="black" d="M1268.26,-107.7C1268.26,-100.41 1268.26,-91.73 1268.26,-83.54"/>
<polygon fill="black" stroke="black" points="1271.76,-83.62 1268.26,-73.62 1264.76,-83.62 1271.76,-83.62"/>
</g>
<!-- gtsam -->
<g id="node38" class="node">
<title>gtsam</title>
<g id="a_node38"><a xlink:href="https://github.com/conda-forge/gtsam-feedstock/pull/36" xlink:title="gtsam ❎">
<ellipse fill="#31688e" stroke="black" cx="967.26" cy="-682" rx="57.52" ry="18"/>
<text xml:space="preserve" text-anchor="middle" x="967.26" y="-677.33" font-family="Times,serif" font-size="14.00" fill="white">gtsam ❎</text>
</a>
</g>
</g>
<!-- cadet&#45;&gt;gtsam -->
<!-- heavydb&#45;ext -->
<g id="node39" class="node">
<title>heavydb&#45;ext</title>
<g id="a_node39"><a xlink:href="https://github.com/conda-forge/heavydb-ext-feedstock/pull/99" xlink:title="heavydb ext ❎">
<ellipse fill="#31688e" stroke="black" cx="424.26" cy="-638" rx="87.51" ry="18"/>
<text xml:space="preserve" text-anchor="middle" x="424.26" y="-633.33" font-family="Times,serif" font-size="14.00" fill="white">heavydb ext ❎</text>
</a>
</g>
</g>
<!-- hoomd&#45;dlext -->
<g id="node40" class="node">
<title>hoomd&#45;dlext</title>
<g id="a_node40"><a xlink:href="https://github.com/conda-forge/hoomd-dlext-feedstock/pull/20" xlink:title="hoomd dlext ❎">
<ellipse fill="#31688e" stroke="black" cx="424.26" cy="-566" rx="88.56" ry="18"/>
<text xml:space="preserve" text-anchor="middle" x="424.26" y="-561.33" font-family="Times,serif" font-size="14.00" fill="white">hoomd dlext ❎</text>
</a>
</g>
</g>
<!-- heavydb&#45;ext&#45;&gt;hoomd&#45;dlext -->
<!-- libthermo -->
<g id="node41" class="node">
<title>libthermo</title>
<g id="a_node41"><a xlink:href="https://github.com/conda-forge/libthermo-feedstock/pull/23" xlink:title="libthermo ❎">
<ellipse fill="#31688e" stroke="black" cx="424.26" cy="-494" rx="75.41" ry="18"/>
<text xml:space="preserve" text-anchor="middle" x="424.26" y="-489.32" font-family="Times,serif" font-size="14.00" fill="white">libthermo ❎</text>
</a>
</g>
</g>
<!-- hoomd&#45;dlext&#45;&gt;libthermo -->
<!-- mold -->
<g id="node42" class="node">
<title>mold</title>
<g id="a_node42"><a xlink:href="https://github.com/conda-forge/mold-feedstock/pull/40" xlink:title="mold ✓">
<ellipse fill="#31688e" stroke="black" cx="424.26" cy="-422" rx="43.84" ry="18"/>
<text xml:space="preserve" text-anchor="middle" x="424.26" y="-417.32" font-family="Times,serif" font-size="14.00" fill="white">mold ✓</text>
</a>
</g>
</g>
<!-- libthermo&#45;&gt;mold -->
<!-- openvdb -->
<g id="node45" class="node">
<title>openvdb</title>
<g id="a_node45"><a xlink:href="https://github.com/conda-forge/openvdb-feedstock/pull/33" xlink:title="openvdb ❎">
<ellipse fill="#31688e" stroke="black" cx="424.26" cy="-350" rx="69.1" ry="18"/>
<text xml:space="preserve" text-anchor="middle" x="424.26" y="-345.32" font-family="Times,serif" font-size="14.00" fill="white">openvdb ❎</text>
</a>
</g>
</g>
<!-- mold&#45;&gt;openvdb -->
<!-- openvino -->
<g id="node43" class="node">
<title>openvino</title>
<g id="a_node43"><a xlink:href="https://github.com/conda-forge/openvino-feedstock/pull/137" xlink:title="openvino ❎">
<ellipse fill="#31688e" stroke="black" cx="1268.26" cy="-458" rx="71.73" ry="18"/>
<text xml:space="preserve" text-anchor="middle" x="1268.26" y="-453.32" font-family="Times,serif" font-size="14.00" fill="white">openvino ❎</text>
</a>
</g>
</g>
<!-- openvino&#45;tokenizers -->
<g id="node44" class="node">
<title>openvino&#45;tokenizers</title>
<g id="a_node44"><a xlink:href="https://github.com/conda-forge/openvino-tokenizers-feedstock" xlink:title="openvino tokenizers">
<ellipse fill="#fde725" stroke="black" cx="1268.26" cy="-386" rx="111.71" ry="18"/>
<text xml:space="preserve" text-anchor="middle" x="1268.26" y="-381.32" font-family="Times,serif" font-size="14.00">openvino tokenizers</text>
</a>
</g>
</g>
<!-- openvino&#45;&gt;openvino&#45;tokenizers -->
<g id="edge43" class="edge">
<title>openvino&#45;&gt;openvino&#45;tokenizers</title>
<path fill="none" stroke="black" d="M1268.26,-439.7C1268.26,-432.41 1268.26,-423.73 1268.26,-415.54"/>
<polygon fill="black" stroke="black" points="1271.76,-415.62 1268.26,-405.62 1264.76,-415.62 1271.76,-415.62"/>
</g>
<!-- kegalign -->
<g id="node46" class="node">
<title>kegalign</title>
<g id="a_node46"><a xlink:href="https://github.com/conda-forge/kegalign-feedstock/pull/9" xlink:title="kegalign ✓">
<ellipse fill="#31688e" stroke="black" cx="424.26" cy="-278" rx="61.73" ry="18"/>
<text xml:space="preserve" text-anchor="middle" x="424.26" y="-273.32" font-family="Times,serif" font-size="14.00" fill="white">kegalign ✓</text>
</a>
</g>
</g>
<!-- openvdb&#45;&gt;kegalign -->
<!-- tracy -->
<g id="node47" class="node">
<title>tracy</title>
<g id="a_node47"><a xlink:href="https://github.com/conda-forge/tracy-feedstock/pull/17" xlink:title="tracy ✓">
<ellipse fill="#31688e" stroke="black" cx="424.26" cy="-206" rx="44.9" ry="18"/>
<text xml:space="preserve" text-anchor="middle" x="424.26" y="-201.32" font-family="Times,serif" font-size="14.00" fill="white">tracy ✓</text>
</a>
</g>
</g>
<!-- kegalign&#45;&gt;tracy -->
<!-- opensubdiv -->
<g id="node48" class="node">
<title>opensubdiv</title>
<g id="a_node48"><a xlink:href="https://github.com/conda-forge/opensubdiv-feedstock/pull/9" xlink:title="opensubdiv ✓">
<ellipse fill="#31688e" stroke="black" cx="967.26" cy="-126" rx="76.46" ry="18"/>
<text xml:space="preserve" text-anchor="middle" x="967.26" y="-121.33" font-family="Times,serif" font-size="14.00" fill="white">opensubdiv ✓</text>
</a>
</g>
</g>
<!-- openusd -->
<g id="node49" class="node">
<title>openusd</title>
<g id="a_node49"><a xlink:href="https://github.com/conda-forge/openusd-feedstock" xlink:title="openusd">
<ellipse fill="#fde725" stroke="black" cx="967.26" cy="-54" rx="53.31" ry="18"/>
<text xml:space="preserve" text-anchor="middle" x="967.26" y="-49.33" font-family="Times,serif" font-size="14.00">openusd</text>
</a>
</g>
</g>
<!-- opensubdiv&#45;&gt;openusd -->
<g id="edge47" class="edge">
<title>opensubdiv&#45;&gt;openusd</title>
<path fill="none" stroke="black" d="M967.26,-107.7C967.26,-100.41 967.26,-91.73 967.26,-83.54"/>
<polygon fill="black" stroke="black" points="970.76,-83.62 967.26,-73.62 963.76,-83.62 970.76,-83.62"/>
</g>
</g>
</svg>
