<?xml version="1.0" encoding="UTF-8" standalone="no"?>
<!DOCTYPE svg PUBLIC "-//W3C//DTD SVG 1.1//EN"
 "http://www.w3.org/Graphics/SVG/1.1/DTD/svg11.dtd">
<!-- Generated by graphviz version 13.1.2 (20250809.0930)
 -->
<!-- Pages: 1 -->
<svg width="1142pt" height="952pt"
 viewBox="0.00 0.00 1142.00 952.00" xmlns="http://www.w3.org/2000/svg" xmlns:xlink="http://www.w3.org/1999/xlink">
<g id="graph0" class="graph" transform="scale(1 1) rotate(0) translate(4 948)">
<polygon fill="white" stroke="none" points="-4,4 -4,-948 1137.97,-948 1137.97,4 -4,4"/>
<!-- libitk -->
<g id="node1" class="node">
<title>libitk</title>
<g id="a_node1"><a xlink:href="https://github.com/conda-forge/libitk-feedstock/pull/111" xlink:title="libitk ❎">
<ellipse fill="#31688e" stroke="black" cx="52.26" cy="-710" rx="52.26" ry="18"/>
<text xml:space="preserve" text-anchor="middle" x="52.26" y="-705.33" font-family="Times,serif" font-size="14.00" fill="white">libitk ❎</text>
</a>
</g>
</g>
<!-- vmtk -->
<g id="node2" class="node">
<title>vmtk</title>
<g id="a_node2"><a xlink:href="https://github.com/conda-forge/vmtk-feedstock" xlink:title="vmtk">
<ellipse fill="#fde725" stroke="black" cx="52.26" cy="-638" rx="36.48" ry="18"/>
<text xml:space="preserve" text-anchor="middle" x="52.26" y="-633.33" font-family="Times,serif" font-size="14.00">vmtk</text>
</a>
</g>
</g>
<!-- libitk&#45;&gt;vmtk -->
<g id="edge1" class="edge">
<title>libitk&#45;&gt;vmtk</title>
<path fill="none" stroke="black" d="M52.26,-691.7C52.26,-684.41 52.26,-675.73 52.26,-667.54"/>
<polygon fill="black" stroke="black" points="55.76,-667.62 52.26,-657.62 48.76,-667.62 55.76,-667.62"/>
</g>
<!-- vtk -->
<g id="node3" class="node">
<title>vtk</title>
<g id="a_node3"><a xlink:href="https://github.com/conda-forge/vtk-feedstock/pull/420" xlink:title="vtk ❎">
<ellipse fill="#31688e" stroke="black" cx="291.26" cy="-710" rx="42.26" ry="18"/>
<text xml:space="preserve" text-anchor="middle" x="291.26" y="-705.33" font-family="Times,serif" font-size="14.00" fill="white">vtk ❎</text>
</a>
</g>
</g>
<!-- vtk&#45;&gt;vmtk -->
<g id="edge2" class="edge">
<title>vtk&#45;&gt;vmtk</title>
<path fill="none" stroke="black" d="M255.91,-699.7C217.81,-689.54 155.48,-672.5 102.26,-656 98.99,-654.99 95.62,-653.91 92.23,-652.81"/>
<polygon fill="black" stroke="black" points="93.55,-649.56 82.96,-649.72 91.34,-656.2 93.55,-649.56"/>
</g>
<!-- occt -->
<g id="node4" class="node">
<title>occt</title>
<g id="a_node4"><a xlink:href="https://github.com/conda-forge/occt-feedstock" xlink:title="occt">
<ellipse fill="#35b779" stroke="black" cx="176.26" cy="-638" rx="31.74" ry="18"/>
<text xml:space="preserve" text-anchor="middle" x="176.26" y="-633.33" font-family="Times,serif" font-size="14.00">occt</text>
</a>
</g>
</g>
<!-- vtk&#45;&gt;occt -->
<g id="edge3" class="edge">
<title>vtk&#45;&gt;occt</title>
<path fill="none" stroke="black" d="M267.71,-694.67C250.22,-684.02 226.2,-669.4 207.17,-657.81"/>
<polygon fill="black" stroke="black" points="209.11,-654.9 198.75,-652.69 205.47,-660.88 209.11,-654.9"/>
</g>
<!-- smesh -->
<g id="node5" class="node">
<title>smesh</title>
<g id="a_node5"><a xlink:href="https://github.com/conda-forge/smesh-feedstock" xlink:title="smesh">
<ellipse fill="#fde725" stroke="black" cx="108.26" cy="-566" rx="43.32" ry="18"/>
<text xml:space="preserve" text-anchor="middle" x="108.26" y="-561.33" font-family="Times,serif" font-size="14.00">smesh</text>
</a>
</g>
</g>
<!-- vtk&#45;&gt;smesh -->
<g id="edge4" class="edge">
<title>vtk&#45;&gt;smesh</title>
<path fill="none" stroke="black" d="M249.91,-705.34C214.82,-700.07 165.49,-687.25 135.26,-656 119.64,-639.86 113.02,-614.97 110.24,-595.62"/>
<polygon fill="black" stroke="black" points="113.74,-595.45 109.12,-585.91 106.79,-596.25 113.74,-595.45"/>
</g>
<!-- pcl -->
<g id="node6" class="node">
<title>pcl</title>
<g id="a_node6"><a xlink:href="https://github.com/conda-forge/pcl-feedstock" xlink:title="pcl">
<ellipse fill="#35b779" stroke="black" cx="291.26" cy="-638" rx="27" ry="18"/>
<text xml:space="preserve" text-anchor="middle" x="291.26" y="-633.33" font-family="Times,serif" font-size="14.00">pcl</text>
</a>
</g>
</g>
<!-- vtk&#45;&gt;pcl -->
<g id="edge5" class="edge">
<title>vtk&#45;&gt;pcl</title>
<path fill="none" stroke="black" d="M291.26,-691.7C291.26,-684.41 291.26,-675.73 291.26,-667.54"/>
<polygon fill="black" stroke="black" points="294.76,-667.62 291.26,-657.62 287.76,-667.62 294.76,-667.62"/>
</g>
<!-- freecad -->
<g id="node7" class="node">
<title>freecad</title>
<g id="a_node7"><a xlink:href="https://github.com/conda-forge/freecad-feedstock" xlink:title="freecad">
<ellipse fill="#fde725" stroke="black" cx="236.26" cy="-494" rx="48.58" ry="18"/>
<text xml:space="preserve" text-anchor="middle" x="236.26" y="-489.32" font-family="Times,serif" font-size="14.00">freecad</text>
</a>
</g>
</g>
<!-- vtk&#45;&gt;freecad -->
<g id="edge6" class="edge">
<title>vtk&#45;&gt;freecad</title>
<path fill="none" stroke="black" d="M306.12,-692.71C314.08,-682.86 323.08,-669.61 327.26,-656 331.96,-640.71 330.76,-635.61 327.26,-620 319.52,-585.47 314.15,-576.56 293.26,-548 285.32,-537.14 274.94,-526.72 265.21,-518.03"/>
<polygon fill="black" stroke="black" points="267.57,-515.43 257.7,-511.56 263,-520.74 267.57,-515.43"/>
</g>
<!-- topologytoolkit -->
<g id="node8" class="node">
<title>topologytoolkit</title>
<g id="a_node8"><a xlink:href="https://github.com/conda-forge/topologytoolkit-feedstock" xlink:title="topologytoolkit">
<ellipse fill="#35b779" stroke="black" cx="452.26" cy="-566" rx="86.46" ry="18"/>
<text xml:space="preserve" text-anchor="middle" x="452.26" y="-561.33" font-family="Times,serif" font-size="14.00">topologytoolkit</text>
</a>
</g>
</g>
<!-- vtk&#45;&gt;topologytoolkit -->
<g id="edge7" class="edge">
<title>vtk&#45;&gt;topologytoolkit</title>
<path fill="none" stroke="black" d="M311.97,-694.05C325.93,-683.75 344.59,-669.52 360.26,-656 384.19,-635.35 409.93,-610.18 428.08,-591.88"/>
<polygon fill="black" stroke="black" points="430.26,-594.65 434.78,-585.07 425.27,-589.74 430.26,-594.65"/>
</g>
<!-- python&#45;mint -->
<g id="node9" class="node">
<title>python&#45;mint</title>
<g id="a_node9"><a xlink:href="https://github.com/conda-forge/python-mint-feedstock" xlink:title="python mint">
<ellipse fill="#35b779" stroke="black" cx="566.26" cy="-494" rx="72.25" ry="18"/>
<text xml:space="preserve" text-anchor="middle" x="566.26" y="-489.32" font-family="Times,serif" font-size="14.00">python mint</text>
</a>
</g>
</g>
<!-- vtk&#45;&gt;python&#45;mint -->
<g id="edge8" class="edge">
<title>vtk&#45;&gt;python&#45;mint</title>
<path fill="none" stroke="black" d="M329.17,-701.48C385.82,-688.18 491.83,-654.92 547.26,-584 560.65,-566.87 565.14,-542.43 566.42,-523.49"/>
<polygon fill="black" stroke="black" points="569.91,-523.9 566.8,-513.77 562.91,-523.62 569.91,-523.9"/>
</g>
<!-- ocp -->
<g id="node10" class="node">
<title>ocp</title>
<g id="a_node10"><a xlink:href="https://github.com/conda-forge/ocp-feedstock" xlink:title="ocp">
<ellipse fill="#fde725" stroke="black" cx="236.26" cy="-566" rx="28.59" ry="18"/>
<text xml:space="preserve" text-anchor="middle" x="236.26" y="-561.33" font-family="Times,serif" font-size="14.00">ocp</text>
</a>
</g>
</g>
<!-- vtk&#45;&gt;ocp -->
<g id="edge9" class="edge">
<title>vtk&#45;&gt;ocp</title>
<path fill="none" stroke="black" d="M277.81,-692.79C270.13,-682.76 260.94,-669.3 255.26,-656 247.01,-636.66 242.2,-613.38 239.49,-595.48"/>
<polygon fill="black" stroke="black" points="242.99,-595.26 238.16,-585.83 236.05,-596.21 242.99,-595.26"/>
</g>
<!-- open3d -->
<g id="node11" class="node">
<title>open3d</title>
<g id="a_node11"><a xlink:href="https://github.com/conda-forge/open3d-feedstock" xlink:title="open3d">
<ellipse fill="#35b779" stroke="black" cx="666.26" cy="-422" rx="48.05" ry="18"/>
<text xml:space="preserve" text-anchor="middle" x="666.26" y="-417.32" font-family="Times,serif" font-size="14.00">open3d</text>
</a>
</g>
</g>
<!-- vtk&#45;&gt;open3d -->
<g id="edge10" class="edge">
<title>vtk&#45;&gt;open3d</title>
<path fill="none" stroke="black" d="M331.85,-704.75C375.12,-698.86 444.52,-685.39 497.26,-656 577.99,-611.01 602.3,-592.74 647.26,-512 657.55,-493.52 662.28,-470.02 664.44,-451.82"/>
<polygon fill="black" stroke="black" points="667.92,-452.25 665.4,-441.96 660.95,-451.57 667.92,-452.25"/>
</g>
<!-- occt&#45;&gt;smesh -->
<g id="edge11" class="edge">
<title>occt&#45;&gt;smesh</title>
<path fill="none" stroke="black" d="M161.51,-621.81C152.84,-612.89 141.69,-601.41 131.83,-591.26"/>
<polygon fill="black" stroke="black" points="134.47,-588.95 124.99,-584.22 129.45,-593.83 134.47,-588.95"/>
</g>
<!-- occt&#45;&gt;freecad -->
<g id="edge12" class="edge">
<title>occt&#45;&gt;freecad</title>
<path fill="none" stroke="black" d="M178.56,-619.62C181.45,-601.2 187.39,-571.56 198.26,-548 202.62,-538.54 208.76,-529.04 214.83,-520.74"/>
<polygon fill="black" stroke="black" points="217.59,-522.9 220.89,-512.83 212.03,-518.64 217.59,-522.9"/>
</g>
<!-- occt&#45;&gt;ocp -->
<g id="edge13" class="edge">
<title>occt&#45;&gt;ocp</title>
<path fill="none" stroke="black" d="M189.58,-621.46C197.37,-612.37 207.38,-600.7 216.12,-590.5"/>
<polygon fill="black" stroke="black" points="218.56,-593.03 222.41,-583.16 213.24,-588.48 218.56,-593.03"/>
</g>
<!-- smesh&#45;&gt;freecad -->
<g id="edge14" class="edge">
<title>smesh&#45;&gt;freecad</title>
<path fill="none" stroke="black" d="M133.86,-551C152.79,-540.65 178.84,-526.4 199.93,-514.87"/>
<polygon fill="black" stroke="black" points="201.41,-518.05 208.5,-510.18 198.05,-511.91 201.41,-518.05"/>
</g>
<!-- pcl&#45;&gt;freecad -->
<g id="edge15" class="edge">
<title>pcl&#45;&gt;freecad</title>
<path fill="none" stroke="black" d="M290.16,-619.63C288.5,-601.2 284.37,-571.56 274.26,-548 270.15,-538.43 264.09,-528.89 258.01,-520.6"/>
<polygon fill="black" stroke="black" points="260.79,-518.48 251.9,-512.71 255.25,-522.76 260.79,-518.48"/>
</g>
<!-- numba -->
<g id="node12" class="node">
<title>numba</title>
<g id="a_node12"><a xlink:href="https://github.com/conda-forge/numba-feedstock/pull/172" xlink:title="numba ✓">
<ellipse fill="#31688e" stroke="black" cx="354.26" cy="-162" rx="53.31" ry="18"/>
<text xml:space="preserve" text-anchor="middle" x="354.26" y="-157.32" font-family="Times,serif" font-size="14.00" fill="white">numba ✓</text>
</a>
</g>
</g>
<!-- root -->
<g id="node13" class="node">
<title>root</title>
<g id="a_node13"><a xlink:href="https://github.com/conda-forge/root-feedstock" xlink:title="root">
<ellipse fill="#fde725" stroke="black" cx="324.26" cy="-90" rx="31.74" ry="18"/>
<text xml:space="preserve" text-anchor="middle" x="324.26" y="-85.33" font-family="Times,serif" font-size="14.00">root</text>
</a>
</g>
</g>
<!-- numba&#45;&gt;root -->
<g id="edge16" class="edge">
<title>numba&#45;&gt;root</title>
<path fill="none" stroke="black" d="M346.85,-143.7C343.53,-135.95 339.54,-126.64 335.84,-118.02"/>
<polygon fill="black" stroke="black" points="339.14,-116.83 331.98,-109.01 332.7,-119.58 339.14,-116.83"/>
</g>
<!-- scipp -->
<g id="node14" class="node">
<title>scipp</title>
<g id="a_node14"><a xlink:href="https://github.com/conda-forge/scipp-feedstock" xlink:title="scipp">
<ellipse fill="#fde725" stroke="black" cx="384.26" cy="-18" rx="37.53" ry="18"/>
<text xml:space="preserve" text-anchor="middle" x="384.26" y="-13.32" font-family="Times,serif" font-size="14.00">scipp</text>
</a>
</g>
</g>
<!-- numba&#45;&gt;scipp -->
<g id="edge17" class="edge">
<title>numba&#45;&gt;scipp</title>
<path fill="none" stroke="black" d="M357.94,-143.59C363.03,-119.5 372.27,-75.75 378.34,-47.03"/>
<polygon fill="black" stroke="black" points="381.69,-48.1 380.33,-37.59 374.84,-46.65 381.69,-48.1"/>
</g>
<!-- embree3 -->
<g id="node15" class="node">
<title>embree3</title>
<g id="a_node15"><a xlink:href="https://github.com/conda-forge/embree3-feedstock/pull/43" xlink:title="embree3 ❎">
<ellipse fill="#31688e" stroke="black" cx="812.26" cy="-926" rx="70.68" ry="18"/>
<text xml:space="preserve" text-anchor="middle" x="812.26" y="-921.33" font-family="Times,serif" font-size="14.00" fill="white">embree3 ❎</text>
</a>
</g>
</g>
<!-- openimageio -->
<g id="node16" class="node">
<title>openimageio</title>
<g id="a_node16"><a xlink:href="https://github.com/conda-forge/openimageio-feedstock/pull/128" xlink:title="openimageio ❎">
<ellipse fill="#31688e" stroke="black" cx="812.26" cy="-854" rx="90.14" ry="18"/>
<text xml:space="preserve" text-anchor="middle" x="812.26" y="-849.33" font-family="Times,serif" font-size="14.00" fill="white">openimageio ❎</text>
</a>
</g>
</g>
<!-- embree3&#45;&gt;openimageio -->
<!-- dealii -->
<g id="node17" class="node">
<title>dealii</title>
<g id="a_node17"><a xlink:href="https://github.com/conda-forge/dealii-feedstock/pull/36" xlink:title="dealii ❎">
<ellipse fill="#31688e" stroke="black" cx="812.26" cy="-782" rx="53.84" ry="18"/>
<text xml:space="preserve" text-anchor="middle" x="812.26" y="-777.33" font-family="Times,serif" font-size="14.00" fill="white">dealii ❎</text>
</a>
</g>
</g>
<!-- openimageio&#45;&gt;dealii -->
<!-- dcgp&#45;python -->
<g id="node18" class="node">
<title>dcgp&#45;python</title>
<g id="a_node18"><a xlink:href="https://github.com/conda-forge/dcgp-python-feedstock/pull/32" xlink:title="dcgp python ❎">
<ellipse fill="#31688e" stroke="black" cx="812.26" cy="-710" rx="88.56" ry="18"/>
<text xml:space="preserve" text-anchor="middle" x="812.26" y="-705.33" font-family="Times,serif" font-size="14.00" fill="white">dcgp python ❎</text>
</a>
</g>
</g>
<!-- dealii&#45;&gt;dcgp&#45;python -->
<!-- foamalgo -->
<g id="node19" class="node">
<title>foamalgo</title>
<g id="a_node19"><a xlink:href="https://github.com/conda-forge/foamalgo-feedstock/pull/19" xlink:title="foamalgo ❎">
<ellipse fill="#31688e" stroke="black" cx="812.26" cy="-638" rx="72.25" ry="18"/>
<text xml:space="preserve" text-anchor="middle" x="812.26" y="-633.33" font-family="Times,serif" font-size="14.00" fill="white">foamalgo ❎</text>
</a>
</g>
</g>
<!-- dcgp&#45;python&#45;&gt;foamalgo -->
<!-- cadet -->
<g id="node20" class="node">
<title>cadet</title>
<g id="a_node20"><a xlink:href="https://github.com/conda-forge/cadet-feedstock/pull/32" xlink:title="cadet ✓">
<ellipse fill="#31688e" stroke="black" cx="812.26" cy="-566" rx="46.47" ry="18"/>
<text xml:space="preserve" text-anchor="middle" x="812.26" y="-561.33" font-family="Times,serif" font-size="14.00" fill="white">cadet ✓</text>
</a>
</g>
</g>
<!-- foamalgo&#45;&gt;cadet -->
<!-- gtsam -->
<g id="node21" class="node">
<title>gtsam</title>
<g id="a_node21"><a xlink:href="https://github.com/conda-forge/gtsam-feedstock/pull/36" xlink:title="gtsam ❎">
<ellipse fill="#31688e" stroke="black" cx="812.26" cy="-494" rx="57.52" ry="18"/>
<text xml:space="preserve" text-anchor="middle" x="812.26" y="-489.32" font-family="Times,serif" font-size="14.00" fill="white">gtsam ❎</text>
</a>
</g>
</g>
<!-- cadet&#45;&gt;gtsam -->
<!-- heavydb&#45;ext -->
<g id="node22" class="node">
<title>heavydb&#45;ext</title>
<g id="a_node22"><a xlink:href="https://github.com/conda-forge/heavydb-ext-feedstock/pull/99" xlink:title="heavydb ext ❎">
<ellipse fill="#31688e" stroke="black" cx="812.26" cy="-422" rx="87.51" ry="18"/>
<text xml:space="preserve" text-anchor="middle" x="812.26" y="-417.32" font-family="Times,serif" font-size="14.00" fill="white">heavydb ext ❎</text>
</a>
</g>
</g>
<!-- gtsam&#45;&gt;heavydb&#45;ext -->
<!-- hoomd&#45;dlext -->
<g id="node23" class="node">
<title>hoomd&#45;dlext</title>
<g id="a_node23"><a xlink:href="https://github.com/conda-forge/hoomd-dlext-feedstock/pull/20" xlink:title="hoomd dlext ❎">
<ellipse fill="#31688e" stroke="black" cx="812.26" cy="-350" rx="88.56" ry="18"/>
<text xml:space="preserve" text-anchor="middle" x="812.26" y="-345.32" font-family="Times,serif" font-size="14.00" fill="white">hoomd dlext ❎</text>
</a>
</g>
</g>
<!-- heavydb&#45;ext&#45;&gt;hoomd&#45;dlext -->
<!-- libthermo -->
<g id="node24" class="node">
<title>libthermo</title>
<g id="a_node24"><a xlink:href="https://github.com/conda-forge/libthermo-feedstock/pull/23" xlink:title="libthermo ❎">
<ellipse fill="#31688e" stroke="black" cx="812.26" cy="-278" rx="75.41" ry="18"/>
<text xml:space="preserve" text-anchor="middle" x="812.26" y="-273.32" font-family="Times,serif" font-size="14.00" fill="white">libthermo ❎</text>
</a>
</g>
</g>
<!-- hoomd&#45;dlext&#45;&gt;libthermo -->
<!-- mold -->
<g id="node25" class="node">
<title>mold</title>
<g id="a_node25"><a xlink:href="https://github.com/conda-forge/mold-feedstock/pull/40" xlink:title="mold ✓">
<ellipse fill="#31688e" stroke="black" cx="812.26" cy="-206" rx="43.84" ry="18"/>
<text xml:space="preserve" text-anchor="middle" x="812.26" y="-201.32" font-family="Times,serif" font-size="14.00" fill="white">mold ✓</text>
</a>
</g>
</g>
<!-- libthermo&#45;&gt;mold -->
<!-- openvino -->
<g id="node26" class="node">
<title>openvino</title>
<g id="a_node26"><a xlink:href="https://github.com/conda-forge/openvino-feedstock/pull/137" xlink:title="openvino ❎">
<ellipse fill="#31688e" stroke="black" cx="1022.26" cy="-602" rx="71.73" ry="18"/>
<text xml:space="preserve" text-anchor="middle" x="1022.26" y="-597.33" font-family="Times,serif" font-size="14.00" fill="white">openvino ❎</text>
</a>
</g>
</g>
<!-- openvino&#45;tokenizers -->
<g id="node27" class="node">
<title>openvino&#45;tokenizers</title>
<g id="a_node27"><a xlink:href="https://github.com/conda-forge/openvino-tokenizers-feedstock" xlink:title="openvino tokenizers">
<ellipse fill="#fde725" stroke="black" cx="1022.26" cy="-530" rx="111.71" ry="18"/>
<text xml:space="preserve" text-anchor="middle" x="1022.26" y="-525.33" font-family="Times,serif" font-size="14.00">openvino tokenizers</text>
</a>
</g>
</g>
<!-- openvino&#45;&gt;openvino&#45;tokenizers -->
<g id="edge28" class="edge">
<title>openvino&#45;&gt;openvino&#45;tokenizers</title>
<path fill="none" stroke="black" d="M1022.26,-583.7C1022.26,-576.41 1022.26,-567.73 1022.26,-559.54"/>
<polygon fill="black" stroke="black" points="1025.76,-559.62 1022.26,-549.62 1018.76,-559.62 1025.76,-559.62"/>
</g>
<!-- kegalign -->
<g id="node28" class="node">
<title>kegalign</title>
<g id="a_node28"><a xlink:href="https://github.com/conda-forge/kegalign-feedstock/pull/9" xlink:title="kegalign ✓">
<ellipse fill="#31688e" stroke="black" cx="812.26" cy="-90" rx="61.73" ry="18"/>
<text xml:space="preserve" text-anchor="middle" x="812.26" y="-85.33" font-family="Times,serif" font-size="14.00" fill="white">kegalign ✓</text>
</a>
</g>
</g>
</g>
</svg>
