<?xml version="1.0" encoding="UTF-8" standalone="no"?>
<!DOCTYPE svg PUBLIC "-//W3C//DTD SVG 1.1//EN"
 "http://www.w3.org/Graphics/SVG/1.1/DTD/svg11.dtd">
<!-- Generated by graphviz version 13.1.2 (20250809.0930)
 -->
<!-- Pages: 1 -->
<svg width="1458pt" height="1500pt"
 viewBox="0.00 0.00 1458.00 1500.00" xmlns="http://www.w3.org/2000/svg" xmlns:xlink="http://www.w3.org/1999/xlink">
<g id="graph0" class="graph" transform="scale(1 1) rotate(0) translate(4 1496)">
<polygon fill="white" stroke="none" points="-4,4 -4,-1496 1453.85,-1496 1453.85,4 -4,4"/>
<!-- embree -->
<g id="node1" class="node">
<title>embree</title>
<g id="a_node1"><a xlink:href="https://github.com/conda-forge/embree-feedstock/pull/51" xlink:title="embree ✓">
<ellipse fill="#31688e" stroke="black" cx="727.26" cy="-1222" rx="57" ry="18"/>
<text xml:space="preserve" text-anchor="middle" x="727.26" y="-1217.33" font-family="Times,serif" font-size="14.00" fill="white">embree ✓</text>
</a>
</g>
</g>
<!-- fresnel -->
<g id="node2" class="node">
<title>fresnel</title>
<g id="a_node2"><a xlink:href="https://github.com/conda-forge/fresnel-feedstock" xlink:title="fresnel">
<ellipse fill="#fde725" stroke="black" cx="801.26" cy="-1150" rx="45.95" ry="18"/>
<text xml:space="preserve" text-anchor="middle" x="801.26" y="-1145.33" font-family="Times,serif" font-size="14.00">fresnel</text>
</a>
</g>
</g>
<!-- embree&#45;&gt;fresnel -->
<g id="edge1" class="edge">
<title>embree&#45;&gt;fresnel</title>
<path fill="none" stroke="black" d="M744.8,-1204.41C754.15,-1195.57 765.81,-1184.53 776.11,-1174.79"/>
<polygon fill="black" stroke="black" points="778.4,-1177.44 783.26,-1168.03 773.59,-1172.36 778.4,-1177.44"/>
</g>
<!-- open3d -->
<g id="node3" class="node">
<title>open3d</title>
<g id="a_node3"><a xlink:href="https://github.com/conda-forge/open3d-feedstock" xlink:title="open3d">
<ellipse fill="#fde725" stroke="black" cx="651.26" cy="-1150" rx="48.05" ry="18"/>
<text xml:space="preserve" text-anchor="middle" x="651.26" y="-1145.33" font-family="Times,serif" font-size="14.00">open3d</text>
</a>
</g>
</g>
<!-- embree&#45;&gt;open3d -->
<g id="edge2" class="edge">
<title>embree&#45;&gt;open3d</title>
<path fill="none" stroke="black" d="M709.63,-1204.76C699.95,-1195.84 687.75,-1184.61 677.01,-1174.72"/>
<polygon fill="black" stroke="black" points="679.63,-1172.37 669.91,-1168.17 674.89,-1177.52 679.63,-1172.37"/>
</g>
<!-- pymeshlab -->
<g id="node4" class="node">
<title>pymeshlab</title>
<g id="a_node4"><a xlink:href="https://github.com/conda-forge/pymeshlab-feedstock" xlink:title="pymeshlab">
<ellipse fill="#fde725" stroke="black" cx="727.26" cy="-1078" rx="65.41" ry="18"/>
<text xml:space="preserve" text-anchor="middle" x="727.26" y="-1073.33" font-family="Times,serif" font-size="14.00">pymeshlab</text>
</a>
</g>
</g>
<!-- embree&#45;&gt;pymeshlab -->
<g id="edge3" class="edge">
<title>embree&#45;&gt;pymeshlab</title>
<path fill="none" stroke="black" d="M727.26,-1203.59C727.26,-1179.61 727.26,-1136.14 727.26,-1107.42"/>
<polygon fill="black" stroke="black" points="730.76,-1107.62 727.26,-1097.62 723.76,-1107.62 730.76,-1107.62"/>
</g>
<!-- libitk -->
<g id="node5" class="node">
<title>libitk</title>
<g id="a_node5"><a xlink:href="https://github.com/conda-forge/libitk-feedstock/pull/109" xlink:title="libitk ❎">
<ellipse fill="#31688e" stroke="black" cx="52.26" cy="-1222" rx="52.26" ry="18"/>
<text xml:space="preserve" text-anchor="middle" x="52.26" y="-1217.33" font-family="Times,serif" font-size="14.00" fill="white">libitk ❎</text>
</a>
</g>
</g>
<!-- vmtk -->
<g id="node6" class="node">
<title>vmtk</title>
<g id="a_node6"><a xlink:href="https://github.com/conda-forge/vmtk-feedstock" xlink:title="vmtk">
<ellipse fill="#fde725" stroke="black" cx="52.26" cy="-1150" rx="36.48" ry="18"/>
<text xml:space="preserve" text-anchor="middle" x="52.26" y="-1145.33" font-family="Times,serif" font-size="14.00">vmtk</text>
</a>
</g>
</g>
<!-- libitk&#45;&gt;vmtk -->
<g id="edge4" class="edge">
<title>libitk&#45;&gt;vmtk</title>
<path fill="none" stroke="black" d="M52.26,-1203.7C52.26,-1196.41 52.26,-1187.73 52.26,-1179.54"/>
<polygon fill="black" stroke="black" points="55.76,-1179.62 52.26,-1169.62 48.76,-1179.62 55.76,-1179.62"/>
</g>
<!-- openturns -->
<g id="node7" class="node">
<title>openturns</title>
<g id="a_node7"><a xlink:href="https://github.com/conda-forge/openturns-feedstock/pull/249" xlink:title="openturns ❎">
<ellipse fill="#31688e" stroke="black" cx="967.26" cy="-1474" rx="77.52" ry="18"/>
<text xml:space="preserve" text-anchor="middle" x="967.26" y="-1469.33" font-family="Times,serif" font-size="14.00" fill="white">openturns ❎</text>
</a>
</g>
</g>
<!-- embree3 -->
<g id="node8" class="node">
<title>embree3</title>
<g id="a_node8"><a xlink:href="https://github.com/conda-forge/embree3-feedstock/pull/43" xlink:title="embree3 ❎">
<ellipse fill="#31688e" stroke="black" cx="967.26" cy="-1402" rx="70.68" ry="18"/>
<text xml:space="preserve" text-anchor="middle" x="967.26" y="-1397.33" font-family="Times,serif" font-size="14.00" fill="white">embree3 ❎</text>
</a>
</g>
</g>
<!-- openturns&#45;&gt;embree3 -->
<!-- openimageio -->
<g id="node26" class="node">
<title>openimageio</title>
<g id="a_node26"><a xlink:href="https://github.com/conda-forge/openimageio-feedstock/pull/128" xlink:title="openimageio ❎">
<ellipse fill="#31688e" stroke="black" cx="967.26" cy="-1330" rx="90.14" ry="18"/>
<text xml:space="preserve" text-anchor="middle" x="967.26" y="-1325.33" font-family="Times,serif" font-size="14.00" fill="white">openimageio ❎</text>
</a>
</g>
</g>
<!-- embree3&#45;&gt;openimageio -->
<!-- r&#45;rcppparallel -->
<g id="node9" class="node">
<title>r&#45;rcppparallel</title>
<g id="a_node9"><a xlink:href="https://github.com/conda-forge/r-rcppparallel-feedstock/pull/43" xlink:title="r rcppparallel ✓">
<ellipse fill="#31688e" stroke="black" cx="1271.26" cy="-1294" rx="87.51" ry="18"/>
<text xml:space="preserve" text-anchor="middle" x="1271.26" y="-1289.33" font-family="Times,serif" font-size="14.00" fill="white">r rcppparallel ✓</text>
</a>
</g>
</g>
<!-- r&#45;rfast -->
<g id="node10" class="node">
<title>r&#45;rfast</title>
<g id="a_node10"><a xlink:href="https://github.com/conda-forge/r-rfast-feedstock" xlink:title="r rfast">
<ellipse fill="#fde725" stroke="black" cx="1162.26" cy="-1222" rx="42.79" ry="18"/>
<text xml:space="preserve" text-anchor="middle" x="1162.26" y="-1217.33" font-family="Times,serif" font-size="14.00">r rfast</text>
</a>
</g>
</g>
<!-- r&#45;rcppparallel&#45;&gt;r&#45;rfast -->
<g id="edge6" class="edge">
<title>r&#45;rcppparallel&#45;&gt;r&#45;rfast</title>
<path fill="none" stroke="black" d="M1245.43,-1276.41C1230.21,-1266.63 1210.81,-1254.18 1194.58,-1243.76"/>
<polygon fill="black" stroke="black" points="1196.53,-1240.85 1186.22,-1238.39 1192.75,-1246.74 1196.53,-1240.85"/>
</g>
<!-- r&#45;stringfish -->
<g id="node11" class="node">
<title>r&#45;stringfish</title>
<g id="a_node11"><a xlink:href="https://github.com/conda-forge/r-stringfish-feedstock" xlink:title="r stringfish">
<ellipse fill="#fde725" stroke="black" cx="1155.26" cy="-1150" rx="66.99" ry="18"/>
<text xml:space="preserve" text-anchor="middle" x="1155.26" y="-1145.33" font-family="Times,serif" font-size="14.00">r stringfish</text>
</a>
</g>
</g>
<!-- r&#45;rcppparallel&#45;&gt;r&#45;stringfish -->
<g id="edge7" class="edge">
<title>r&#45;rcppparallel&#45;&gt;r&#45;stringfish</title>
<path fill="none" stroke="black" d="M1262.02,-1275.66C1251.66,-1257.01 1233.75,-1226.93 1214.26,-1204 1205.52,-1193.72 1194.83,-1183.54 1184.96,-1174.89"/>
<polygon fill="black" stroke="black" points="1187.23,-1172.24 1177.35,-1168.41 1182.69,-1177.56 1187.23,-1172.24"/>
</g>
<!-- r&#45;datavisualizations -->
<g id="node12" class="node">
<title>r&#45;datavisualizations</title>
<g id="a_node12"><a xlink:href="https://github.com/conda-forge/r-datavisualizations-feedstock" xlink:title="r datavisualizations">
<ellipse fill="#fde725" stroke="black" cx="1271.26" cy="-1078" rx="109.61" ry="18"/>
<text xml:space="preserve" text-anchor="middle" x="1271.26" y="-1073.33" font-family="Times,serif" font-size="14.00">r datavisualizations</text>
</a>
</g>
</g>
<!-- r&#45;rcppparallel&#45;&gt;r&#45;datavisualizations -->
<g id="edge8" class="edge">
<title>r&#45;rcppparallel&#45;&gt;r&#45;datavisualizations</title>
<path fill="none" stroke="black" d="M1271.26,-1275.85C1271.26,-1239.14 1271.26,-1152.66 1271.26,-1107.53"/>
<polygon fill="black" stroke="black" points="1274.76,-1107.75 1271.26,-1097.75 1267.76,-1107.75 1274.76,-1107.75"/>
</g>
<!-- r&#45;rxode2ll -->
<g id="node13" class="node">
<title>r&#45;rxode2ll</title>
<g id="a_node13"><a xlink:href="https://github.com/conda-forge/r-rxode2ll-feedstock" xlink:title="r rxode2ll">
<ellipse fill="#fde725" stroke="black" cx="1359.26" cy="-1006" rx="60.15" ry="18"/>
<text xml:space="preserve" text-anchor="middle" x="1359.26" y="-1001.33" font-family="Times,serif" font-size="14.00">r rxode2ll</text>
</a>
</g>
</g>
<!-- r&#45;rcppparallel&#45;&gt;r&#45;rxode2ll -->
<g id="edge9" class="edge">
<title>r&#45;rcppparallel&#45;&gt;r&#45;rxode2ll</title>
<path fill="none" stroke="black" d="M1286.21,-1275.82C1313.32,-1243.38 1369.73,-1169.71 1390.26,-1096 1394.56,-1080.59 1394.45,-1075.44 1390.26,-1060 1387.75,-1050.74 1383.18,-1041.44 1378.3,-1033.27"/>
<polygon fill="black" stroke="black" points="1381.26,-1031.41 1372.9,-1024.9 1375.37,-1035.2 1381.26,-1031.41"/>
</g>
<!-- r&#45;rxode2 -->
<g id="node14" class="node">
<title>r&#45;rxode2</title>
<g id="a_node14"><a xlink:href="https://github.com/conda-forge/r-rxode2-feedstock" xlink:title="r rxode2">
<ellipse fill="#fde725" stroke="black" cx="1359.26" cy="-934" rx="53.84" ry="18"/>
<text xml:space="preserve" text-anchor="middle" x="1359.26" y="-929.33" font-family="Times,serif" font-size="14.00">r rxode2</text>
</a>
</g>
</g>
<!-- r&#45;rcppparallel&#45;&gt;r&#45;rxode2 -->
<g id="edge10" class="edge">
<title>r&#45;rcppparallel&#45;&gt;r&#45;rxode2</title>
<path fill="none" stroke="black" d="M1317.5,-1278.29C1369.65,-1258.46 1447.26,-1217.74 1447.26,-1151 1447.26,-1151 1447.26,-1151 1447.26,-1077 1447.26,-1036.55 1449.85,-1022.2 1428.26,-988 1420.31,-975.4 1408.24,-964.64 1396.41,-956.18"/>
<polygon fill="black" stroke="black" points="1398.56,-953.41 1388.31,-950.73 1394.66,-959.22 1398.56,-953.41"/>
</g>
<!-- r&#45;stringfish&#45;&gt;r&#45;rxode2 -->
<g id="edge11" class="edge">
<title>r&#45;stringfish&#45;&gt;r&#45;rxode2</title>
<path fill="none" stroke="black" d="M1149.64,-1131.68C1144.59,-1112.77 1139.72,-1082.22 1152.26,-1060 1185.35,-1001.37 1258.22,-967.14 1308.04,-949.75"/>
<polygon fill="black" stroke="black" points="1309.12,-953.08 1317.49,-946.57 1306.89,-946.44 1309.12,-953.08"/>
</g>
<!-- r&#45;rxode2ll&#45;&gt;r&#45;rxode2 -->
<g id="edge12" class="edge">
<title>r&#45;rxode2ll&#45;&gt;r&#45;rxode2</title>
<path fill="none" stroke="black" d="M1359.26,-987.7C1359.26,-980.41 1359.26,-971.73 1359.26,-963.54"/>
<polygon fill="black" stroke="black" points="1362.76,-963.62 1359.26,-953.62 1355.76,-963.62 1362.76,-963.62"/>
</g>
<!-- vtk -->
<g id="node15" class="node">
<title>vtk</title>
<g id="a_node15"><a xlink:href="https://github.com/conda-forge/vtk-feedstock/pull/416" xlink:title="vtk ❎">
<ellipse fill="#31688e" stroke="black" cx="415.26" cy="-1222" rx="42.26" ry="18"/>
<text xml:space="preserve" text-anchor="middle" x="415.26" y="-1217.33" font-family="Times,serif" font-size="14.00" fill="white">vtk ❎</text>
</a>
</g>
</g>
<!-- vtk&#45;&gt;open3d -->
<g id="edge13" class="edge">
<title>vtk&#45;&gt;open3d</title>
<path fill="none" stroke="black" d="M449.33,-1210.9C489.89,-1198.86 557.9,-1178.69 603.65,-1165.12"/>
<polygon fill="black" stroke="black" points="604.44,-1168.54 613.04,-1162.34 602.45,-1161.83 604.44,-1168.54"/>
</g>
<!-- vtk&#45;&gt;vmtk -->
<g id="edge14" class="edge">
<title>vtk&#45;&gt;vmtk</title>
<path fill="none" stroke="black" d="M374.81,-1216.25C314.75,-1208.74 198.7,-1192.39 102.26,-1168 98.75,-1167.11 95.13,-1166.09 91.52,-1165.01"/>
<polygon fill="black" stroke="black" points="92.88,-1161.76 82.29,-1162.06 90.75,-1168.43 92.88,-1161.76"/>
</g>
<!-- occt -->
<g id="node16" class="node">
<title>occt</title>
<g id="a_node16"><a xlink:href="https://github.com/conda-forge/occt-feedstock" xlink:title="occt">
<ellipse fill="#fde725" stroke="black" cx="476.26" cy="-1150" rx="31.74" ry="18"/>
<text xml:space="preserve" text-anchor="middle" x="476.26" y="-1145.33" font-family="Times,serif" font-size="14.00">occt</text>
</a>
</g>
</g>
<!-- vtk&#45;&gt;occt -->
<g id="edge15" class="edge">
<title>vtk&#45;&gt;occt</title>
<path fill="none" stroke="black" d="M429.41,-1204.76C437.06,-1195.98 446.66,-1184.96 455.18,-1175.19"/>
<polygon fill="black" stroke="black" points="457.68,-1177.65 461.62,-1167.81 452.41,-1173.05 457.68,-1177.65"/>
</g>
<!-- smesh -->
<g id="node17" class="node">
<title>smesh</title>
<g id="a_node17"><a xlink:href="https://github.com/conda-forge/smesh-feedstock" xlink:title="smesh">
<ellipse fill="#fde725" stroke="black" cx="415.26" cy="-1078" rx="43.32" ry="18"/>
<text xml:space="preserve" text-anchor="middle" x="415.26" y="-1073.33" font-family="Times,serif" font-size="14.00">smesh</text>
</a>
</g>
</g>
<!-- vtk&#45;&gt;smesh -->
<g id="edge16" class="edge">
<title>vtk&#45;&gt;smesh</title>
<path fill="none" stroke="black" d="M415.26,-1203.59C415.26,-1179.61 415.26,-1136.14 415.26,-1107.42"/>
<polygon fill="black" stroke="black" points="418.76,-1107.62 415.26,-1097.62 411.76,-1107.62 418.76,-1107.62"/>
</g>
<!-- pcl -->
<g id="node18" class="node">
<title>pcl</title>
<g id="a_node18"><a xlink:href="https://github.com/conda-forge/pcl-feedstock" xlink:title="pcl">
<ellipse fill="#fde725" stroke="black" cx="617.26" cy="-1078" rx="27" ry="18"/>
<text xml:space="preserve" text-anchor="middle" x="617.26" y="-1073.33" font-family="Times,serif" font-size="14.00">pcl</text>
</a>
</g>
</g>
<!-- vtk&#45;&gt;pcl -->
<g id="edge17" class="edge">
<title>vtk&#45;&gt;pcl</title>
<path fill="none" stroke="black" d="M449.8,-1211.09C476.2,-1202.45 512.63,-1188.12 540.26,-1168 564.57,-1150.31 586.37,-1123.55 600.52,-1103.99"/>
<polygon fill="black" stroke="black" points="603.24,-1106.21 606.14,-1096.02 597.52,-1102.18 603.24,-1106.21"/>
</g>
<!-- freecad -->
<g id="node19" class="node">
<title>freecad</title>
<g id="a_node19"><a xlink:href="https://github.com/conda-forge/freecad-feedstock" xlink:title="freecad">
<ellipse fill="#fde725" stroke="black" cx="450.26" cy="-1006" rx="48.58" ry="18"/>
<text xml:space="preserve" text-anchor="middle" x="450.26" y="-1001.33" font-family="Times,serif" font-size="14.00">freecad</text>
</a>
</g>
</g>
<!-- vtk&#45;&gt;freecad -->
<g id="edge18" class="edge">
<title>vtk&#45;&gt;freecad</title>
<path fill="none" stroke="black" d="M401.59,-1204.59C378.25,-1174.46 335.78,-1108.91 363.26,-1060 372.44,-1043.66 388.94,-1031.76 405.11,-1023.43"/>
<polygon fill="black" stroke="black" points="406.18,-1026.8 413.71,-1019.35 403.18,-1020.48 406.18,-1026.8"/>
</g>
<!-- topologytoolkit -->
<g id="node20" class="node">
<title>topologytoolkit</title>
<g id="a_node20"><a xlink:href="https://github.com/conda-forge/topologytoolkit-feedstock" xlink:title="topologytoolkit">
<ellipse fill="#fde725" stroke="black" cx="230.26" cy="-1078" rx="86.46" ry="18"/>
<text xml:space="preserve" text-anchor="middle" x="230.26" y="-1073.33" font-family="Times,serif" font-size="14.00">topologytoolkit</text>
</a>
</g>
</g>
<!-- vtk&#45;&gt;topologytoolkit -->
<g id="edge19" class="edge">
<title>vtk&#45;&gt;topologytoolkit</title>
<path fill="none" stroke="black" d="M390.35,-1206.98C373.01,-1196.86 349.62,-1182.48 330.26,-1168 303.52,-1147.99 275.28,-1122.39 255.66,-1103.79"/>
<polygon fill="black" stroke="black" points="258.29,-1101.46 248.64,-1097.08 253.45,-1106.52 258.29,-1101.46"/>
</g>
<!-- python&#45;mint -->
<g id="node21" class="node">
<title>python&#45;mint</title>
<g id="a_node21"><a xlink:href="https://github.com/conda-forge/python-mint-feedstock" xlink:title="python mint">
<ellipse fill="#fde725" stroke="black" cx="116.26" cy="-1006" rx="72.25" ry="18"/>
<text xml:space="preserve" text-anchor="middle" x="116.26" y="-1001.33" font-family="Times,serif" font-size="14.00">python mint</text>
</a>
</g>
</g>
<!-- vtk&#45;&gt;python&#45;mint -->
<g id="edge20" class="edge">
<title>vtk&#45;&gt;python&#45;mint</title>
<path fill="none" stroke="black" d="M375.6,-1215.2C313.87,-1203.96 195.64,-1173.13 135.26,-1096 121.86,-1078.88 117.37,-1054.44 116.09,-1035.5"/>
<polygon fill="black" stroke="black" points="119.6,-1035.63 115.72,-1025.77 112.61,-1035.9 119.6,-1035.63"/>
</g>
<!-- ocp -->
<g id="node22" class="node">
<title>ocp</title>
<g id="a_node22"><a xlink:href="https://github.com/conda-forge/ocp-feedstock" xlink:title="ocp">
<ellipse fill="#fde725" stroke="black" cx="543.26" cy="-1078" rx="28.59" ry="18"/>
<text xml:space="preserve" text-anchor="middle" x="543.26" y="-1073.33" font-family="Times,serif" font-size="14.00">ocp</text>
</a>
</g>
</g>
<!-- vtk&#45;&gt;ocp -->
<g id="edge21" class="edge">
<title>vtk&#45;&gt;ocp</title>
<path fill="none" stroke="black" d="M449.15,-1211.16C471.5,-1203.02 499.78,-1189.28 517.26,-1168 531.33,-1150.88 537.79,-1126.44 540.75,-1107.5"/>
<polygon fill="black" stroke="black" points="544.2,-1108.13 542.01,-1097.76 537.25,-1107.23 544.2,-1108.13"/>
</g>
<!-- occt&#45;&gt;smesh -->
<g id="edge22" class="edge">
<title>occt&#45;&gt;smesh</title>
<path fill="none" stroke="black" d="M462.72,-1133.46C455.2,-1124.83 445.65,-1113.88 437.1,-1104.06"/>
<polygon fill="black" stroke="black" points="439.81,-1101.85 430.61,-1096.61 434.54,-1106.45 439.81,-1101.85"/>
</g>
<!-- occt&#45;&gt;freecad -->
<g id="edge23" class="edge">
<title>occt&#45;&gt;freecad</title>
<path fill="none" stroke="black" d="M475.59,-1131.78C474.64,-1113.73 472.4,-1084.63 467.26,-1060 465.52,-1051.64 462.95,-1042.74 460.34,-1034.66"/>
<polygon fill="black" stroke="black" points="463.72,-1033.72 457.19,-1025.37 457.09,-1035.97 463.72,-1033.72"/>
</g>
<!-- occt&#45;&gt;ocp -->
<g id="edge24" class="edge">
<title>occt&#45;&gt;ocp</title>
<path fill="none" stroke="black" d="M490.8,-1133.81C499.7,-1124.51 511.26,-1112.43 521.27,-1101.98"/>
<polygon fill="black" stroke="black" points="523.78,-1104.42 528.16,-1094.77 518.72,-1099.58 523.78,-1104.42"/>
</g>
<!-- smesh&#45;&gt;freecad -->
<g id="edge25" class="edge">
<title>smesh&#45;&gt;freecad</title>
<path fill="none" stroke="black" d="M423.73,-1060.05C427.65,-1052.23 432.39,-1042.75 436.77,-1033.98"/>
<polygon fill="black" stroke="black" points="439.85,-1035.65 441.19,-1025.14 433.59,-1032.52 439.85,-1035.65"/>
</g>
<!-- pcl&#45;&gt;freecad -->
<g id="edge26" class="edge">
<title>pcl&#45;&gt;freecad</title>
<path fill="none" stroke="black" d="M596.03,-1066.73C591.2,-1064.46 586.07,-1062.11 581.26,-1060 552.26,-1047.3 519.2,-1033.93 493.55,-1023.8"/>
<polygon fill="black" stroke="black" points="495.04,-1020.63 484.45,-1020.22 492.48,-1027.14 495.04,-1020.63"/>
</g>
<!-- numba -->
<g id="node23" class="node">
<title>numba</title>
<g id="a_node23"><a xlink:href="https://github.com/conda-forge/numba-feedstock/pull/172" xlink:title="numba ✓">
<ellipse fill="#31688e" stroke="black" cx="421.26" cy="-162" rx="53.31" ry="18"/>
<text xml:space="preserve" text-anchor="middle" x="421.26" y="-157.32" font-family="Times,serif" font-size="14.00" fill="white">numba ✓</text>
</a>
</g>
</g>
<!-- root -->
<g id="node24" class="node">
<title>root</title>
<g id="a_node24"><a xlink:href="https://github.com/conda-forge/root-feedstock" xlink:title="root">
<ellipse fill="#fde725" stroke="black" cx="391.26" cy="-90" rx="31.74" ry="18"/>
<text xml:space="preserve" text-anchor="middle" x="391.26" y="-85.33" font-family="Times,serif" font-size="14.00">root</text>
</a>
</g>
</g>
<!-- numba&#45;&gt;root -->
<g id="edge27" class="edge">
<title>numba&#45;&gt;root</title>
<path fill="none" stroke="black" d="M413.85,-143.7C410.53,-135.95 406.54,-126.64 402.84,-118.02"/>
<polygon fill="black" stroke="black" points="406.14,-116.83 398.98,-109.01 399.7,-119.58 406.14,-116.83"/>
</g>
<!-- scipp -->
<g id="node25" class="node">
<title>scipp</title>
<g id="a_node25"><a xlink:href="https://github.com/conda-forge/scipp-feedstock" xlink:title="scipp">
<ellipse fill="#fde725" stroke="black" cx="451.26" cy="-18" rx="37.53" ry="18"/>
<text xml:space="preserve" text-anchor="middle" x="451.26" y="-13.32" font-family="Times,serif" font-size="14.00">scipp</text>
</a>
</g>
</g>
<!-- numba&#45;&gt;scipp -->
<g id="edge28" class="edge">
<title>numba&#45;&gt;scipp</title>
<path fill="none" stroke="black" d="M424.94,-143.59C430.03,-119.5 439.27,-75.75 445.34,-47.03"/>
<polygon fill="black" stroke="black" points="448.69,-48.1 447.33,-37.59 441.84,-46.65 448.69,-48.1"/>
</g>
<!-- dealii -->
<g id="node27" class="node">
<title>dealii</title>
<g id="a_node27"><a xlink:href="https://github.com/conda-forge/dealii-feedstock/pull/36" xlink:title="dealii ❎">
<ellipse fill="#31688e" stroke="black" cx="967.26" cy="-1258" rx="53.84" ry="18"/>
<text xml:space="preserve" text-anchor="middle" x="967.26" y="-1253.33" font-family="Times,serif" font-size="14.00" fill="white">dealii ❎</text>
</a>
</g>
</g>
<!-- openimageio&#45;&gt;dealii -->
<!-- r&#45;proxyc -->
<g id="node28" class="node">
<title>r&#45;proxyc</title>
<g id="a_node28"><a xlink:href="https://github.com/conda-forge/r-proxyc-feedstock/pull/26" xlink:title="r proxyc ✓">
<ellipse fill="#31688e" stroke="black" cx="967.26" cy="-1186" rx="60.68" ry="18"/>
<text xml:space="preserve" text-anchor="middle" x="967.26" y="-1181.33" font-family="Times,serif" font-size="14.00" fill="white">r proxyc ✓</text>
</a>
</g>
</g>
<!-- dealii&#45;&gt;r&#45;proxyc -->
<!-- dcgp&#45;python -->
<g id="node29" class="node">
<title>dcgp&#45;python</title>
<g id="a_node29"><a xlink:href="https://github.com/conda-forge/dcgp-python-feedstock/pull/32" xlink:title="dcgp python ❎">
<ellipse fill="#31688e" stroke="black" cx="967.26" cy="-1114" rx="88.56" ry="18"/>
<text xml:space="preserve" text-anchor="middle" x="967.26" y="-1109.33" font-family="Times,serif" font-size="14.00" fill="white">dcgp python ❎</text>
</a>
</g>
</g>
<!-- r&#45;proxyc&#45;&gt;dcgp&#45;python -->
<!-- foamalgo -->
<g id="node32" class="node">
<title>foamalgo</title>
<g id="a_node32"><a xlink:href="https://github.com/conda-forge/foamalgo-feedstock/pull/19" xlink:title="foamalgo ❎">
<ellipse fill="#31688e" stroke="black" cx="967.26" cy="-1042" rx="72.25" ry="18"/>
<text xml:space="preserve" text-anchor="middle" x="967.26" y="-1037.33" font-family="Times,serif" font-size="14.00" fill="white">foamalgo ❎</text>
</a>
</g>
</g>
<!-- dcgp&#45;python&#45;&gt;foamalgo -->
<!-- gazebo -->
<g id="node30" class="node">
<title>gazebo</title>
<g id="a_node30"><a xlink:href="https://github.com/conda-forge/gazebo-feedstock/pull/248" xlink:title="gazebo ❎">
<ellipse fill="#31688e" stroke="black" cx="967.26" cy="-494" rx="61.73" ry="18"/>
<text xml:space="preserve" text-anchor="middle" x="967.26" y="-489.32" font-family="Times,serif" font-size="14.00" fill="white">gazebo ❎</text>
</a>
</g>
</g>
<!-- gazebo&#45;yarp&#45;plugins -->
<g id="node31" class="node">
<title>gazebo&#45;yarp&#45;plugins</title>
<g id="a_node31"><a xlink:href="https://github.com/conda-forge/gazebo-yarp-plugins-feedstock" xlink:title="gazebo yarp plugins">
<ellipse fill="#fde725" stroke="black" cx="967.26" cy="-422" rx="112.24" ry="18"/>
<text xml:space="preserve" text-anchor="middle" x="967.26" y="-417.32" font-family="Times,serif" font-size="14.00">gazebo yarp plugins</text>
</a>
</g>
</g>
<!-- gazebo&#45;&gt;gazebo&#45;yarp&#45;plugins -->
<g id="edge33" class="edge">
<title>gazebo&#45;&gt;gazebo&#45;yarp&#45;plugins</title>
<path fill="none" stroke="black" d="M967.26,-475.7C967.26,-468.41 967.26,-459.73 967.26,-451.54"/>
<polygon fill="black" stroke="black" points="970.76,-451.62 967.26,-441.62 963.76,-451.62 970.76,-451.62"/>
</g>
<!-- scipoptsuite -->
<g id="node33" class="node">
<title>scipoptsuite</title>
<g id="a_node33"><a xlink:href="https://github.com/conda-forge/scipoptsuite-feedstock/pull/95" xlink:title="scipoptsuite ❎">
<ellipse fill="#31688e" stroke="black" cx="967.26" cy="-970" rx="87.51" ry="18"/>
<text xml:space="preserve" text-anchor="middle" x="967.26" y="-965.33" font-family="Times,serif" font-size="14.00" fill="white">scipoptsuite ❎</text>
</a>
</g>
</g>
<!-- foamalgo&#45;&gt;scipoptsuite -->
<!-- onednn -->
<g id="node34" class="node">
<title>onednn</title>
<g id="a_node34"><a xlink:href="https://github.com/conda-forge/onednn-feedstock/pull/96" xlink:title="onednn ❎">
<ellipse fill="#31688e" stroke="black" cx="967.26" cy="-898" rx="63.31" ry="18"/>
<text xml:space="preserve" text-anchor="middle" x="967.26" y="-893.33" font-family="Times,serif" font-size="14.00" fill="white">onednn ❎</text>
</a>
</g>
</g>
<!-- scipoptsuite&#45;&gt;onednn -->
<!-- cadet -->
<g id="node35" class="node">
<title>cadet</title>
<g id="a_node35"><a xlink:href="https://github.com/conda-forge/cadet-feedstock/pull/32" xlink:title="cadet ✓">
<ellipse fill="#31688e" stroke="black" cx="967.26" cy="-826" rx="46.47" ry="18"/>
<text xml:space="preserve" text-anchor="middle" x="967.26" y="-821.33" font-family="Times,serif" font-size="14.00" fill="white">cadet ✓</text>
</a>
</g>
</g>
<!-- onednn&#45;&gt;cadet -->
<!-- gtsam -->
<g id="node36" class="node">
<title>gtsam</title>
<g id="a_node36"><a xlink:href="https://github.com/conda-forge/gtsam-feedstock/pull/36" xlink:title="gtsam ❎">
<ellipse fill="#31688e" stroke="black" cx="967.26" cy="-754" rx="57.52" ry="18"/>
<text xml:space="preserve" text-anchor="middle" x="967.26" y="-749.33" font-family="Times,serif" font-size="14.00" fill="white">gtsam ❎</text>
</a>
</g>
</g>
<!-- cadet&#45;&gt;gtsam -->
<!-- heavydb&#45;ext -->
<g id="node37" class="node">
<title>heavydb&#45;ext</title>
<g id="a_node37"><a xlink:href="https://github.com/conda-forge/heavydb-ext-feedstock/pull/99" xlink:title="heavydb ext ❎">
<ellipse fill="#31688e" stroke="black" cx="424.26" cy="-710" rx="87.51" ry="18"/>
<text xml:space="preserve" text-anchor="middle" x="424.26" y="-705.33" font-family="Times,serif" font-size="14.00" fill="white">heavydb ext ❎</text>
</a>
</g>
</g>
<!-- hoomd&#45;dlext -->
<g id="node38" class="node">
<title>hoomd&#45;dlext</title>
<g id="a_node38"><a xlink:href="https://github.com/conda-forge/hoomd-dlext-feedstock/pull/20" xlink:title="hoomd dlext ❎">
<ellipse fill="#31688e" stroke="black" cx="424.26" cy="-638" rx="88.56" ry="18"/>
<text xml:space="preserve" text-anchor="middle" x="424.26" y="-633.33" font-family="Times,serif" font-size="14.00" fill="white">hoomd dlext ❎</text>
</a>
</g>
</g>
<!-- heavydb&#45;ext&#45;&gt;hoomd&#45;dlext -->
<!-- libthermo -->
<g id="node39" class="node">
<title>libthermo</title>
<g id="a_node39"><a xlink:href="https://github.com/conda-forge/libthermo-feedstock/pull/23" xlink:title="libthermo ❎">
<ellipse fill="#31688e" stroke="black" cx="424.26" cy="-566" rx="75.41" ry="18"/>
<text xml:space="preserve" text-anchor="middle" x="424.26" y="-561.33" font-family="Times,serif" font-size="14.00" fill="white">libthermo ❎</text>
</a>
</g>
</g>
<!-- hoomd&#45;dlext&#45;&gt;libthermo -->
<!-- cascade -->
<g id="node40" class="node">
<title>cascade</title>
<g id="a_node40"><a xlink:href="https://github.com/conda-forge/cascade-feedstock" xlink:title="cascade">
<ellipse fill="#35b779" stroke="black" cx="424.26" cy="-494" rx="50.68" ry="18"/>
<text xml:space="preserve" text-anchor="middle" x="424.26" y="-489.32" font-family="Times,serif" font-size="14.00">cascade</text>
</a>
</g>
</g>
<!-- libthermo&#45;&gt;cascade -->
<!-- mold -->
<g id="node41" class="node">
<title>mold</title>
<g id="a_node41"><a xlink:href="https://github.com/conda-forge/mold-feedstock/pull/40" xlink:title="mold ✓">
<ellipse fill="#31688e" stroke="black" cx="424.26" cy="-422" rx="43.84" ry="18"/>
<text xml:space="preserve" text-anchor="middle" x="424.26" y="-417.32" font-family="Times,serif" font-size="14.00" fill="white">mold ✓</text>
</a>
</g>
</g>
<!-- cascade&#45;&gt;mold -->
<!-- openvdb -->
<g id="node44" class="node">
<title>openvdb</title>
<g id="a_node44"><a xlink:href="https://github.com/conda-forge/openvdb-feedstock/pull/33" xlink:title="openvdb ❎">
<ellipse fill="#31688e" stroke="black" cx="424.26" cy="-350" rx="69.1" ry="18"/>
<text xml:space="preserve" text-anchor="middle" x="424.26" y="-345.32" font-family="Times,serif" font-size="14.00" fill="white">openvdb ❎</text>
</a>
</g>
</g>
<!-- mold&#45;&gt;openvdb -->
<!-- openvino -->
<g id="node42" class="node">
<title>openvino</title>
<g id="a_node42"><a xlink:href="https://github.com/conda-forge/openvino-feedstock/pull/137" xlink:title="openvino ❎">
<ellipse fill="#31688e" stroke="black" cx="1268.26" cy="-494" rx="71.73" ry="18"/>
<text xml:space="preserve" text-anchor="middle" x="1268.26" y="-489.32" font-family="Times,serif" font-size="14.00" fill="white">openvino ❎</text>
</a>
</g>
</g>
<!-- openvino&#45;tokenizers -->
<g id="node43" class="node">
<title>openvino&#45;tokenizers</title>
<g id="a_node43"><a xlink:href="https://github.com/conda-forge/openvino-tokenizers-feedstock" xlink:title="openvino tokenizers">
<ellipse fill="#fde725" stroke="black" cx="1268.26" cy="-422" rx="111.71" ry="18"/>
<text xml:space="preserve" text-anchor="middle" x="1268.26" y="-417.32" font-family="Times,serif" font-size="14.00">openvino tokenizers</text>
</a>
</g>
</g>
<!-- openvino&#45;&gt;openvino&#45;tokenizers -->
<g id="edge43" class="edge">
<title>openvino&#45;&gt;openvino&#45;tokenizers</title>
<path fill="none" stroke="black" d="M1268.26,-475.7C1268.26,-468.41 1268.26,-459.73 1268.26,-451.54"/>
<polygon fill="black" stroke="black" points="1271.76,-451.62 1268.26,-441.62 1264.76,-451.62 1271.76,-451.62"/>
</g>
<!-- kegalign -->
<g id="node45" class="node">
<title>kegalign</title>
<g id="a_node45"><a xlink:href="https://github.com/conda-forge/kegalign-feedstock/pull/9" xlink:title="kegalign ✓">
<ellipse fill="#31688e" stroke="black" cx="424.26" cy="-278" rx="61.73" ry="18"/>
<text xml:space="preserve" text-anchor="middle" x="424.26" y="-273.32" font-family="Times,serif" font-size="14.00" fill="white">kegalign ✓</text>
</a>
</g>
</g>
<!-- openvdb&#45;&gt;kegalign -->
<!-- openusd -->
<g id="node46" class="node">
<title>openusd</title>
<g id="a_node46"><a xlink:href="https://github.com/conda-forge/openusd-feedstock" xlink:title="openusd">
<ellipse fill="#35b779" stroke="black" cx="424.26" cy="-206" rx="53.31" ry="18"/>
<text xml:space="preserve" text-anchor="middle" x="424.26" y="-201.32" font-family="Times,serif" font-size="14.00">openusd</text>
</a>
</g>
</g>
<!-- kegalign&#45;&gt;openusd -->
</g>
</svg>
