<?xml version="1.0" encoding="UTF-8" standalone="no"?>
<!DOCTYPE svg PUBLIC "-//W3C//DTD SVG 1.1//EN"
 "http://www.w3.org/Graphics/SVG/1.1/DTD/svg11.dtd">
<!-- Generated by graphviz version 13.1.2 (20250809.0930)
 -->
<!-- Pages: 1 -->
<svg width="1523pt" height="1472pt"
 viewBox="0.00 0.00 1523.00 1472.00" xmlns="http://www.w3.org/2000/svg" xmlns:xlink="http://www.w3.org/1999/xlink">
<g id="graph0" class="graph" transform="scale(1 1) rotate(0) translate(4 1468)">
<polygon fill="white" stroke="none" points="-4,4 -4,-1468 1518.85,-1468 1518.85,4 -4,4"/>
<!-- embree -->
<g id="node1" class="node">
<title>embree</title>
<g id="a_node1"><a xlink:href="https://github.com/conda-forge/embree-feedstock/pull/51" xlink:title="embree ❎">
<ellipse fill="#31688e" stroke="black" cx="727.26" cy="-1194" rx="64.36" ry="18"/>
<text xml:space="preserve" text-anchor="middle" x="727.26" y="-1189.33" font-family="Times,serif" font-size="14.00" fill="white">embree ❎</text>
</a>
</g>
</g>
<!-- fresnel -->
<g id="node2" class="node">
<title>fresnel</title>
<g id="a_node2"><a xlink:href="https://github.com/conda-forge/fresnel-feedstock" xlink:title="fresnel">
<ellipse fill="#fde725" stroke="black" cx="801.26" cy="-1122" rx="45.95" ry="18"/>
<text xml:space="preserve" text-anchor="middle" x="801.26" y="-1117.33" font-family="Times,serif" font-size="14.00">fresnel</text>
</a>
</g>
</g>
<!-- embree&#45;&gt;fresnel -->
<g id="edge1" class="edge">
<title>embree&#45;&gt;fresnel</title>
<path fill="none" stroke="black" d="M744.8,-1176.41C754.15,-1167.57 765.81,-1156.53 776.11,-1146.79"/>
<polygon fill="black" stroke="black" points="778.4,-1149.44 783.26,-1140.03 773.59,-1144.36 778.4,-1149.44"/>
</g>
<!-- open3d -->
<g id="node3" class="node">
<title>open3d</title>
<g id="a_node3"><a xlink:href="https://github.com/conda-forge/open3d-feedstock" xlink:title="open3d">
<ellipse fill="#fde725" stroke="black" cx="651.26" cy="-1122" rx="48.05" ry="18"/>
<text xml:space="preserve" text-anchor="middle" x="651.26" y="-1117.33" font-family="Times,serif" font-size="14.00">open3d</text>
</a>
</g>
</g>
<!-- embree&#45;&gt;open3d -->
<g id="edge2" class="edge">
<title>embree&#45;&gt;open3d</title>
<path fill="none" stroke="black" d="M709.25,-1176.41C699.72,-1167.63 687.84,-1156.69 677.32,-1147"/>
<polygon fill="black" stroke="black" points="679.72,-1144.45 669.99,-1140.25 674.98,-1149.6 679.72,-1144.45"/>
</g>
<!-- pymeshlab -->
<g id="node4" class="node">
<title>pymeshlab</title>
<g id="a_node4"><a xlink:href="https://github.com/conda-forge/pymeshlab-feedstock" xlink:title="pymeshlab">
<ellipse fill="#fde725" stroke="black" cx="727.26" cy="-1050" rx="65.41" ry="18"/>
<text xml:space="preserve" text-anchor="middle" x="727.26" y="-1045.33" font-family="Times,serif" font-size="14.00">pymeshlab</text>
</a>
</g>
</g>
<!-- embree&#45;&gt;pymeshlab -->
<g id="edge3" class="edge">
<title>embree&#45;&gt;pymeshlab</title>
<path fill="none" stroke="black" d="M727.26,-1175.59C727.26,-1151.61 727.26,-1108.14 727.26,-1079.42"/>
<polygon fill="black" stroke="black" points="730.76,-1079.62 727.26,-1069.62 723.76,-1079.62 730.76,-1079.62"/>
</g>
<!-- libitk -->
<g id="node5" class="node">
<title>libitk</title>
<g id="a_node5"><a xlink:href="https://github.com/conda-forge/libitk-feedstock/pull/109" xlink:title="libitk ❎">
<ellipse fill="#31688e" stroke="black" cx="52.26" cy="-1194" rx="52.26" ry="18"/>
<text xml:space="preserve" text-anchor="middle" x="52.26" y="-1189.33" font-family="Times,serif" font-size="14.00" fill="white">libitk ❎</text>
</a>
</g>
</g>
<!-- vmtk -->
<g id="node6" class="node">
<title>vmtk</title>
<g id="a_node6"><a xlink:href="https://github.com/conda-forge/vmtk-feedstock" xlink:title="vmtk">
<ellipse fill="#fde725" stroke="black" cx="52.26" cy="-1122" rx="36.48" ry="18"/>
<text xml:space="preserve" text-anchor="middle" x="52.26" y="-1117.33" font-family="Times,serif" font-size="14.00">vmtk</text>
</a>
</g>
</g>
<!-- libitk&#45;&gt;vmtk -->
<g id="edge4" class="edge">
<title>libitk&#45;&gt;vmtk</title>
<path fill="none" stroke="black" d="M52.26,-1175.7C52.26,-1168.41 52.26,-1159.73 52.26,-1151.54"/>
<polygon fill="black" stroke="black" points="55.76,-1151.62 52.26,-1141.62 48.76,-1151.62 55.76,-1151.62"/>
</g>
<!-- openturns -->
<g id="node7" class="node">
<title>openturns</title>
<g id="a_node7"><a xlink:href="https://github.com/conda-forge/openturns-feedstock" xlink:title="openturns">
<ellipse fill="#fde725" stroke="black" cx="1083.26" cy="-466" rx="62.26" ry="18"/>
<text xml:space="preserve" text-anchor="middle" x="1083.26" y="-461.32" font-family="Times,serif" font-size="14.00">openturns</text>
</a>
</g>
</g>
<!-- pagmo -->
<g id="node8" class="node">
<title>pagmo</title>
<g id="a_node8"><a xlink:href="https://github.com/conda-forge/pagmo-feedstock/pull/91" xlink:title="pagmo ✓">
<ellipse fill="#31688e" stroke="black" cx="1069.26" cy="-538" rx="52.79" ry="18"/>
<text xml:space="preserve" text-anchor="middle" x="1069.26" y="-533.33" font-family="Times,serif" font-size="14.00" fill="white">pagmo ✓</text>
</a>
</g>
</g>
<!-- pagmo&#45;&gt;openturns -->
<g id="edge5" class="edge">
<title>pagmo&#45;&gt;openturns</title>
<path fill="none" stroke="black" d="M1072.72,-519.7C1074.2,-512.32 1075.96,-503.52 1077.61,-495.25"/>
<polygon fill="black" stroke="black" points="1081.01,-496.08 1079.54,-485.59 1074.15,-494.71 1081.01,-496.08"/>
</g>
<!-- dcgp&#45;python -->
<g id="node9" class="node">
<title>dcgp&#45;python</title>
<g id="a_node9"><a xlink:href="https://github.com/conda-forge/dcgp-python-feedstock" xlink:title="dcgp python">
<ellipse fill="#fde725" stroke="black" cx="929.26" cy="-466" rx="73.3" ry="18"/>
<text xml:space="preserve" text-anchor="middle" x="929.26" y="-461.32" font-family="Times,serif" font-size="14.00">dcgp python</text>
</a>
</g>
</g>
<!-- pagmo&#45;&gt;dcgp&#45;python -->
<g id="edge6" class="edge">
<title>pagmo&#45;&gt;dcgp&#45;python</title>
<path fill="none" stroke="black" d="M1040.25,-522.5C1020.2,-512.47 993.22,-498.98 970.88,-487.81"/>
<polygon fill="black" stroke="black" points="972.53,-484.72 962.02,-483.38 969.4,-490.98 972.53,-484.72"/>
</g>
<!-- r&#45;rcppparallel -->
<g id="node10" class="node">
<title>r&#45;rcppparallel</title>
<g id="a_node10"><a xlink:href="https://github.com/conda-forge/r-rcppparallel-feedstock/pull/43" xlink:title="r rcppparallel ✓">
<ellipse fill="#31688e" stroke="black" cx="1336.26" cy="-1266" rx="87.51" ry="18"/>
<text xml:space="preserve" text-anchor="middle" x="1336.26" y="-1261.33" font-family="Times,serif" font-size="14.00" fill="white">r rcppparallel ✓</text>
</a>
</g>
</g>
<!-- r&#45;rfast -->
<g id="node11" class="node">
<title>r&#45;rfast</title>
<g id="a_node11"><a xlink:href="https://github.com/conda-forge/r-rfast-feedstock" xlink:title="r rfast">
<ellipse fill="#fde725" stroke="black" cx="1227.26" cy="-1194" rx="42.79" ry="18"/>
<text xml:space="preserve" text-anchor="middle" x="1227.26" y="-1189.33" font-family="Times,serif" font-size="14.00">r rfast</text>
</a>
</g>
</g>
<!-- r&#45;rcppparallel&#45;&gt;r&#45;rfast -->
<g id="edge7" class="edge">
<title>r&#45;rcppparallel&#45;&gt;r&#45;rfast</title>
<path fill="none" stroke="black" d="M1310.43,-1248.41C1295.21,-1238.63 1275.81,-1226.18 1259.58,-1215.76"/>
<polygon fill="black" stroke="black" points="1261.53,-1212.85 1251.22,-1210.39 1257.75,-1218.74 1261.53,-1212.85"/>
</g>
<!-- r&#45;stringfish -->
<g id="node12" class="node">
<title>r&#45;stringfish</title>
<g id="a_node12"><a xlink:href="https://github.com/conda-forge/r-stringfish-feedstock" xlink:title="r stringfish">
<ellipse fill="#fde725" stroke="black" cx="1220.26" cy="-1122" rx="66.99" ry="18"/>
<text xml:space="preserve" text-anchor="middle" x="1220.26" y="-1117.33" font-family="Times,serif" font-size="14.00">r stringfish</text>
</a>
</g>
</g>
<!-- r&#45;rcppparallel&#45;&gt;r&#45;stringfish -->
<g id="edge8" class="edge">
<title>r&#45;rcppparallel&#45;&gt;r&#45;stringfish</title>
<path fill="none" stroke="black" d="M1327.02,-1247.66C1316.66,-1229.01 1298.75,-1198.93 1279.26,-1176 1270.52,-1165.72 1259.83,-1155.54 1249.96,-1146.89"/>
<polygon fill="black" stroke="black" points="1252.23,-1144.24 1242.35,-1140.41 1247.69,-1149.56 1252.23,-1144.24"/>
</g>
<!-- r&#45;datavisualizations -->
<g id="node13" class="node">
<title>r&#45;datavisualizations</title>
<g id="a_node13"><a xlink:href="https://github.com/conda-forge/r-datavisualizations-feedstock" xlink:title="r datavisualizations">
<ellipse fill="#fde725" stroke="black" cx="1336.26" cy="-1050" rx="109.61" ry="18"/>
<text xml:space="preserve" text-anchor="middle" x="1336.26" y="-1045.33" font-family="Times,serif" font-size="14.00">r datavisualizations</text>
</a>
</g>
</g>
<!-- r&#45;rcppparallel&#45;&gt;r&#45;datavisualizations -->
<g id="edge9" class="edge">
<title>r&#45;rcppparallel&#45;&gt;r&#45;datavisualizations</title>
<path fill="none" stroke="black" d="M1336.26,-1247.85C1336.26,-1211.14 1336.26,-1124.66 1336.26,-1079.53"/>
<polygon fill="black" stroke="black" points="1339.76,-1079.75 1336.26,-1069.75 1332.76,-1079.75 1339.76,-1079.75"/>
</g>
<!-- r&#45;rxode2ll -->
<g id="node14" class="node">
<title>r&#45;rxode2ll</title>
<g id="a_node14"><a xlink:href="https://github.com/conda-forge/r-rxode2ll-feedstock" xlink:title="r rxode2ll">
<ellipse fill="#fde725" stroke="black" cx="1424.26" cy="-978" rx="60.15" ry="18"/>
<text xml:space="preserve" text-anchor="middle" x="1424.26" y="-973.33" font-family="Times,serif" font-size="14.00">r rxode2ll</text>
</a>
</g>
</g>
<!-- r&#45;rcppparallel&#45;&gt;r&#45;rxode2ll -->
<g id="edge10" class="edge">
<title>r&#45;rcppparallel&#45;&gt;r&#45;rxode2ll</title>
<path fill="none" stroke="black" d="M1351.21,-1247.82C1378.32,-1215.38 1434.73,-1141.71 1455.26,-1068 1459.56,-1052.59 1459.45,-1047.44 1455.26,-1032 1452.75,-1022.74 1448.18,-1013.44 1443.3,-1005.27"/>
<polygon fill="black" stroke="black" points="1446.26,-1003.41 1437.9,-996.9 1440.37,-1007.2 1446.26,-1003.41"/>
</g>
<!-- r&#45;rxode2 -->
<g id="node15" class="node">
<title>r&#45;rxode2</title>
<g id="a_node15"><a xlink:href="https://github.com/conda-forge/r-rxode2-feedstock" xlink:title="r rxode2">
<ellipse fill="#fde725" stroke="black" cx="1424.26" cy="-906" rx="53.84" ry="18"/>
<text xml:space="preserve" text-anchor="middle" x="1424.26" y="-901.33" font-family="Times,serif" font-size="14.00">r rxode2</text>
</a>
</g>
</g>
<!-- r&#45;rcppparallel&#45;&gt;r&#45;rxode2 -->
<g id="edge11" class="edge">
<title>r&#45;rcppparallel&#45;&gt;r&#45;rxode2</title>
<path fill="none" stroke="black" d="M1382.5,-1250.29C1434.65,-1230.46 1512.26,-1189.74 1512.26,-1123 1512.26,-1123 1512.26,-1123 1512.26,-1049 1512.26,-1008.55 1514.85,-994.2 1493.26,-960 1485.31,-947.4 1473.24,-936.64 1461.41,-928.18"/>
<polygon fill="black" stroke="black" points="1463.56,-925.41 1453.31,-922.73 1459.66,-931.22 1463.56,-925.41"/>
</g>
<!-- r&#45;stringfish&#45;&gt;r&#45;rxode2 -->
<g id="edge12" class="edge">
<title>r&#45;stringfish&#45;&gt;r&#45;rxode2</title>
<path fill="none" stroke="black" d="M1214.64,-1103.68C1209.59,-1084.77 1204.72,-1054.22 1217.26,-1032 1250.35,-973.37 1323.22,-939.14 1373.04,-921.75"/>
<polygon fill="black" stroke="black" points="1374.12,-925.08 1382.49,-918.57 1371.89,-918.44 1374.12,-925.08"/>
</g>
<!-- r&#45;rxode2ll&#45;&gt;r&#45;rxode2 -->
<g id="edge13" class="edge">
<title>r&#45;rxode2ll&#45;&gt;r&#45;rxode2</title>
<path fill="none" stroke="black" d="M1424.26,-959.7C1424.26,-952.41 1424.26,-943.73 1424.26,-935.54"/>
<polygon fill="black" stroke="black" points="1427.76,-935.62 1424.26,-925.62 1420.76,-935.62 1427.76,-935.62"/>
</g>
<!-- vtk -->
<g id="node16" class="node">
<title>vtk</title>
<g id="a_node16"><a xlink:href="https://github.com/conda-forge/vtk-feedstock/pull/416" xlink:title="vtk ❎">
<ellipse fill="#31688e" stroke="black" cx="415.26" cy="-1194" rx="42.26" ry="18"/>
<text xml:space="preserve" text-anchor="middle" x="415.26" y="-1189.33" font-family="Times,serif" font-size="14.00" fill="white">vtk ❎</text>
</a>
</g>
</g>
<!-- vtk&#45;&gt;open3d -->
<g id="edge14" class="edge">
<title>vtk&#45;&gt;open3d</title>
<path fill="none" stroke="black" d="M449.33,-1182.9C489.89,-1170.86 557.9,-1150.69 603.65,-1137.12"/>
<polygon fill="black" stroke="black" points="604.44,-1140.54 613.04,-1134.34 602.45,-1133.83 604.44,-1140.54"/>
</g>
<!-- vtk&#45;&gt;vmtk -->
<g id="edge15" class="edge">
<title>vtk&#45;&gt;vmtk</title>
<path fill="none" stroke="black" d="M374.81,-1188.25C314.75,-1180.74 198.7,-1164.39 102.26,-1140 98.75,-1139.11 95.13,-1138.09 91.52,-1137.01"/>
<polygon fill="black" stroke="black" points="92.88,-1133.76 82.29,-1134.06 90.75,-1140.43 92.88,-1133.76"/>
</g>
<!-- occt -->
<g id="node17" class="node">
<title>occt</title>
<g id="a_node17"><a xlink:href="https://github.com/conda-forge/occt-feedstock" xlink:title="occt">
<ellipse fill="#fde725" stroke="black" cx="476.26" cy="-1122" rx="31.74" ry="18"/>
<text xml:space="preserve" text-anchor="middle" x="476.26" y="-1117.33" font-family="Times,serif" font-size="14.00">occt</text>
</a>
</g>
</g>
<!-- vtk&#45;&gt;occt -->
<g id="edge16" class="edge">
<title>vtk&#45;&gt;occt</title>
<path fill="none" stroke="black" d="M429.41,-1176.76C437.06,-1167.98 446.66,-1156.96 455.18,-1147.19"/>
<polygon fill="black" stroke="black" points="457.68,-1149.65 461.62,-1139.81 452.41,-1145.05 457.68,-1149.65"/>
</g>
<!-- smesh -->
<g id="node18" class="node">
<title>smesh</title>
<g id="a_node18"><a xlink:href="https://github.com/conda-forge/smesh-feedstock" xlink:title="smesh">
<ellipse fill="#fde725" stroke="black" cx="415.26" cy="-1050" rx="43.32" ry="18"/>
<text xml:space="preserve" text-anchor="middle" x="415.26" y="-1045.33" font-family="Times,serif" font-size="14.00">smesh</text>
</a>
</g>
</g>
<!-- vtk&#45;&gt;smesh -->
<g id="edge17" class="edge">
<title>vtk&#45;&gt;smesh</title>
<path fill="none" stroke="black" d="M415.26,-1175.59C415.26,-1151.61 415.26,-1108.14 415.26,-1079.42"/>
<polygon fill="black" stroke="black" points="418.76,-1079.62 415.26,-1069.62 411.76,-1079.62 418.76,-1079.62"/>
</g>
<!-- pcl -->
<g id="node19" class="node">
<title>pcl</title>
<g id="a_node19"><a xlink:href="https://github.com/conda-forge/pcl-feedstock" xlink:title="pcl">
<ellipse fill="#fde725" stroke="black" cx="617.26" cy="-1050" rx="27" ry="18"/>
<text xml:space="preserve" text-anchor="middle" x="617.26" y="-1045.33" font-family="Times,serif" font-size="14.00">pcl</text>
</a>
</g>
</g>
<!-- vtk&#45;&gt;pcl -->
<g id="edge18" class="edge">
<title>vtk&#45;&gt;pcl</title>
<path fill="none" stroke="black" d="M449.8,-1183.09C476.2,-1174.45 512.63,-1160.12 540.26,-1140 564.57,-1122.31 586.37,-1095.55 600.52,-1075.99"/>
<polygon fill="black" stroke="black" points="603.24,-1078.21 606.14,-1068.02 597.52,-1074.18 603.24,-1078.21"/>
</g>
<!-- freecad -->
<g id="node20" class="node">
<title>freecad</title>
<g id="a_node20"><a xlink:href="https://github.com/conda-forge/freecad-feedstock" xlink:title="freecad">
<ellipse fill="#fde725" stroke="black" cx="450.26" cy="-978" rx="48.58" ry="18"/>
<text xml:space="preserve" text-anchor="middle" x="450.26" y="-973.33" font-family="Times,serif" font-size="14.00">freecad</text>
</a>
</g>
</g>
<!-- vtk&#45;&gt;freecad -->
<g id="edge19" class="edge">
<title>vtk&#45;&gt;freecad</title>
<path fill="none" stroke="black" d="M401.59,-1176.59C378.25,-1146.46 335.78,-1080.91 363.26,-1032 372.44,-1015.66 388.94,-1003.76 405.11,-995.43"/>
<polygon fill="black" stroke="black" points="406.18,-998.8 413.71,-991.35 403.18,-992.48 406.18,-998.8"/>
</g>
<!-- topologytoolkit -->
<g id="node21" class="node">
<title>topologytoolkit</title>
<g id="a_node21"><a xlink:href="https://github.com/conda-forge/topologytoolkit-feedstock" xlink:title="topologytoolkit">
<ellipse fill="#fde725" stroke="black" cx="230.26" cy="-1050" rx="86.46" ry="18"/>
<text xml:space="preserve" text-anchor="middle" x="230.26" y="-1045.33" font-family="Times,serif" font-size="14.00">topologytoolkit</text>
</a>
</g>
</g>
<!-- vtk&#45;&gt;topologytoolkit -->
<g id="edge20" class="edge">
<title>vtk&#45;&gt;topologytoolkit</title>
<path fill="none" stroke="black" d="M390.35,-1178.98C373.01,-1168.86 349.62,-1154.48 330.26,-1140 303.52,-1119.99 275.28,-1094.39 255.66,-1075.79"/>
<polygon fill="black" stroke="black" points="258.29,-1073.46 248.64,-1069.08 253.45,-1078.52 258.29,-1073.46"/>
</g>
<!-- python&#45;mint -->
<g id="node22" class="node">
<title>python&#45;mint</title>
<g id="a_node22"><a xlink:href="https://github.com/conda-forge/python-mint-feedstock" xlink:title="python mint">
<ellipse fill="#fde725" stroke="black" cx="116.26" cy="-978" rx="72.25" ry="18"/>
<text xml:space="preserve" text-anchor="middle" x="116.26" y="-973.33" font-family="Times,serif" font-size="14.00">python mint</text>
</a>
</g>
</g>
<!-- vtk&#45;&gt;python&#45;mint -->
<g id="edge21" class="edge">
<title>vtk&#45;&gt;python&#45;mint</title>
<path fill="none" stroke="black" d="M375.6,-1187.2C313.87,-1175.96 195.64,-1145.13 135.26,-1068 121.86,-1050.88 117.37,-1026.44 116.09,-1007.5"/>
<polygon fill="black" stroke="black" points="119.6,-1007.63 115.72,-997.77 112.61,-1007.9 119.6,-1007.63"/>
</g>
<!-- ocp -->
<g id="node23" class="node">
<title>ocp</title>
<g id="a_node23"><a xlink:href="https://github.com/conda-forge/ocp-feedstock" xlink:title="ocp">
<ellipse fill="#fde725" stroke="black" cx="543.26" cy="-1050" rx="28.59" ry="18"/>
<text xml:space="preserve" text-anchor="middle" x="543.26" y="-1045.33" font-family="Times,serif" font-size="14.00">ocp</text>
</a>
</g>
</g>
<!-- vtk&#45;&gt;ocp -->
<g id="edge22" class="edge">
<title>vtk&#45;&gt;ocp</title>
<path fill="none" stroke="black" d="M449.15,-1183.16C471.5,-1175.02 499.78,-1161.28 517.26,-1140 531.33,-1122.88 537.79,-1098.44 540.75,-1079.5"/>
<polygon fill="black" stroke="black" points="544.2,-1080.13 542.01,-1069.76 537.25,-1079.23 544.2,-1080.13"/>
</g>
<!-- occt&#45;&gt;smesh -->
<g id="edge23" class="edge">
<title>occt&#45;&gt;smesh</title>
<path fill="none" stroke="black" d="M462.72,-1105.46C455.2,-1096.83 445.65,-1085.88 437.1,-1076.06"/>
<polygon fill="black" stroke="black" points="439.81,-1073.85 430.61,-1068.61 434.54,-1078.45 439.81,-1073.85"/>
</g>
<!-- occt&#45;&gt;freecad -->
<g id="edge24" class="edge">
<title>occt&#45;&gt;freecad</title>
<path fill="none" stroke="black" d="M475.59,-1103.78C474.64,-1085.73 472.4,-1056.63 467.26,-1032 465.52,-1023.64 462.95,-1014.74 460.34,-1006.66"/>
<polygon fill="black" stroke="black" points="463.72,-1005.72 457.19,-997.37 457.09,-1007.97 463.72,-1005.72"/>
</g>
<!-- occt&#45;&gt;ocp -->
<g id="edge25" class="edge">
<title>occt&#45;&gt;ocp</title>
<path fill="none" stroke="black" d="M490.8,-1105.81C499.7,-1096.51 511.26,-1084.43 521.27,-1073.98"/>
<polygon fill="black" stroke="black" points="523.78,-1076.42 528.16,-1066.77 518.72,-1071.58 523.78,-1076.42"/>
</g>
<!-- smesh&#45;&gt;freecad -->
<g id="edge26" class="edge">
<title>smesh&#45;&gt;freecad</title>
<path fill="none" stroke="black" d="M423.73,-1032.05C427.65,-1024.23 432.39,-1014.75 436.77,-1005.98"/>
<polygon fill="black" stroke="black" points="439.85,-1007.65 441.19,-997.14 433.59,-1004.52 439.85,-1007.65"/>
</g>
<!-- pcl&#45;&gt;freecad -->
<g id="edge27" class="edge">
<title>pcl&#45;&gt;freecad</title>
<path fill="none" stroke="black" d="M596.03,-1038.73C591.2,-1036.46 586.07,-1034.11 581.26,-1032 552.26,-1019.3 519.2,-1005.93 493.55,-995.8"/>
<polygon fill="black" stroke="black" points="495.04,-992.63 484.45,-992.22 492.48,-999.14 495.04,-992.63"/>
</g>
<!-- numba -->
<g id="node24" class="node">
<title>numba</title>
<g id="a_node24"><a xlink:href="https://github.com/conda-forge/numba-feedstock/pull/172" xlink:title="numba ✓">
<ellipse fill="#31688e" stroke="black" cx="1331.26" cy="-278" rx="53.31" ry="18"/>
<text xml:space="preserve" text-anchor="middle" x="1331.26" y="-273.32" font-family="Times,serif" font-size="14.00" fill="white">numba ✓</text>
</a>
</g>
</g>
<!-- root -->
<g id="node25" class="node">
<title>root</title>
<g id="a_node25"><a xlink:href="https://github.com/conda-forge/root-feedstock" xlink:title="root">
<ellipse fill="#fde725" stroke="black" cx="1301.26" cy="-206" rx="31.74" ry="18"/>
<text xml:space="preserve" text-anchor="middle" x="1301.26" y="-201.33" font-family="Times,serif" font-size="14.00">root</text>
</a>
</g>
</g>
<!-- numba&#45;&gt;root -->
<g id="edge28" class="edge">
<title>numba&#45;&gt;root</title>
<path fill="none" stroke="black" d="M1323.85,-259.7C1320.53,-251.95 1316.54,-242.64 1312.84,-234.02"/>
<polygon fill="black" stroke="black" points="1316.14,-232.83 1308.98,-225.01 1309.7,-235.58 1316.14,-232.83"/>
</g>
<!-- scipp -->
<g id="node26" class="node">
<title>scipp</title>
<g id="a_node26"><a xlink:href="https://github.com/conda-forge/scipp-feedstock" xlink:title="scipp">
<ellipse fill="#fde725" stroke="black" cx="1361.26" cy="-134" rx="37.53" ry="18"/>
<text xml:space="preserve" text-anchor="middle" x="1361.26" y="-129.32" font-family="Times,serif" font-size="14.00">scipp</text>
</a>
</g>
</g>
<!-- numba&#45;&gt;scipp -->
<g id="edge29" class="edge">
<title>numba&#45;&gt;scipp</title>
<path fill="none" stroke="black" d="M1334.94,-259.59C1340.03,-235.5 1349.27,-191.75 1355.34,-163.03"/>
<polygon fill="black" stroke="black" points="1358.69,-164.1 1357.33,-153.59 1351.84,-162.65 1358.69,-164.1"/>
</g>
<!-- embree3 -->
<g id="node27" class="node">
<title>embree3</title>
<g id="a_node27"><a xlink:href="https://github.com/conda-forge/embree3-feedstock/pull/43" xlink:title="embree3 ❎">
<ellipse fill="#31688e" stroke="black" cx="1000.26" cy="-1446" rx="70.68" ry="18"/>
<text xml:space="preserve" text-anchor="middle" x="1000.26" y="-1441.33" font-family="Times,serif" font-size="14.00" fill="white">embree3 ❎</text>
</a>
</g>
</g>
<!-- openimageio -->
<g id="node28" class="node">
<title>openimageio</title>
<g id="a_node28"><a xlink:href="https://github.com/conda-forge/openimageio-feedstock/pull/128" xlink:title="openimageio ❎">
<ellipse fill="#31688e" stroke="black" cx="1000.26" cy="-1374" rx="90.14" ry="18"/>
<text xml:space="preserve" text-anchor="middle" x="1000.26" y="-1369.33" font-family="Times,serif" font-size="14.00" fill="white">openimageio ❎</text>
</a>
</g>
</g>
<!-- embree3&#45;&gt;openimageio -->
<!-- dealii -->
<g id="node29" class="node">
<title>dealii</title>
<g id="a_node29"><a xlink:href="https://github.com/conda-forge/dealii-feedstock/pull/36" xlink:title="dealii ❎">
<ellipse fill="#31688e" stroke="black" cx="1000.26" cy="-1302" rx="53.84" ry="18"/>
<text xml:space="preserve" text-anchor="middle" x="1000.26" y="-1297.33" font-family="Times,serif" font-size="14.00" fill="white">dealii ❎</text>
</a>
</g>
</g>
<!-- openimageio&#45;&gt;dealii -->
<!-- r&#45;proxyc -->
<g id="node30" class="node">
<title>r&#45;proxyc</title>
<g id="a_node30"><a xlink:href="https://github.com/conda-forge/r-proxyc-feedstock/pull/26" xlink:title="r proxyc ✓">
<ellipse fill="#31688e" stroke="black" cx="1000.26" cy="-1230" rx="60.68" ry="18"/>
<text xml:space="preserve" text-anchor="middle" x="1000.26" y="-1225.33" font-family="Times,serif" font-size="14.00" fill="white">r proxyc ✓</text>
</a>
</g>
</g>
<!-- dealii&#45;&gt;r&#45;proxyc -->
<!-- foamalgo -->
<g id="node31" class="node">
<title>foamalgo</title>
<g id="a_node31"><a xlink:href="https://github.com/conda-forge/foamalgo-feedstock/pull/19" xlink:title="foamalgo ❎">
<ellipse fill="#31688e" stroke="black" cx="1000.26" cy="-1158" rx="72.25" ry="18"/>
<text xml:space="preserve" text-anchor="middle" x="1000.26" y="-1153.33" font-family="Times,serif" font-size="14.00" fill="white">foamalgo ❎</text>
</a>
</g>
</g>
<!-- r&#45;proxyc&#45;&gt;foamalgo -->
<!-- scipoptsuite -->
<g id="node35" class="node">
<title>scipoptsuite</title>
<g id="a_node35"><a xlink:href="https://github.com/conda-forge/scipoptsuite-feedstock/pull/95" xlink:title="scipoptsuite ❎">
<ellipse fill="#31688e" stroke="black" cx="1000.26" cy="-1086" rx="87.51" ry="18"/>
<text xml:space="preserve" text-anchor="middle" x="1000.26" y="-1081.33" font-family="Times,serif" font-size="14.00" fill="white">scipoptsuite ❎</text>
</a>
</g>
</g>
<!-- foamalgo&#45;&gt;scipoptsuite -->
<!-- obake -->
<g id="node32" class="node">
<title>obake</title>
<g id="a_node32"><a xlink:href="https://github.com/conda-forge/obake-feedstock/pull/59" xlink:title="obake ❎">
<ellipse fill="#31688e" stroke="black" cx="929.26" cy="-538" rx="55.94" ry="18"/>
<text xml:space="preserve" text-anchor="middle" x="929.26" y="-533.33" font-family="Times,serif" font-size="14.00" fill="white">obake ❎</text>
</a>
</g>
</g>
<!-- obake&#45;&gt;dcgp&#45;python -->
<g id="edge34" class="edge">
<title>obake&#45;&gt;dcgp&#45;python</title>
<path fill="none" stroke="black" d="M929.26,-519.7C929.26,-512.41 929.26,-503.73 929.26,-495.54"/>
<polygon fill="black" stroke="black" points="932.76,-495.62 929.26,-485.62 925.76,-495.62 932.76,-495.62"/>
</g>
<!-- gazebo -->
<g id="node33" class="node">
<title>gazebo</title>
<g id="a_node33"><a xlink:href="https://github.com/conda-forge/gazebo-feedstock/pull/248" xlink:title="gazebo ❎">
<ellipse fill="#31688e" stroke="black" cx="424.26" cy="-242" rx="61.73" ry="18"/>
<text xml:space="preserve" text-anchor="middle" x="424.26" y="-237.32" font-family="Times,serif" font-size="14.00" fill="white">gazebo ❎</text>
</a>
</g>
</g>
<!-- gazebo&#45;yarp&#45;plugins -->
<g id="node34" class="node">
<title>gazebo&#45;yarp&#45;plugins</title>
<g id="a_node34"><a xlink:href="https://github.com/conda-forge/gazebo-yarp-plugins-feedstock" xlink:title="gazebo yarp plugins">
<ellipse fill="#fde725" stroke="black" cx="424.26" cy="-170" rx="112.24" ry="18"/>
<text xml:space="preserve" text-anchor="middle" x="424.26" y="-165.32" font-family="Times,serif" font-size="14.00">gazebo yarp plugins</text>
</a>
</g>
</g>
<!-- gazebo&#45;&gt;gazebo&#45;yarp&#45;plugins -->
<g id="edge35" class="edge">
<title>gazebo&#45;&gt;gazebo&#45;yarp&#45;plugins</title>
<path fill="none" stroke="black" d="M424.26,-223.7C424.26,-216.41 424.26,-207.73 424.26,-199.54"/>
<polygon fill="black" stroke="black" points="427.76,-199.62 424.26,-189.62 420.76,-199.62 427.76,-199.62"/>
</g>
<!-- onednn -->
<g id="node39" class="node">
<title>onednn</title>
<g id="a_node39"><a xlink:href="https://github.com/conda-forge/onednn-feedstock/pull/96" xlink:title="onednn ❎">
<ellipse fill="#31688e" stroke="black" cx="1000.26" cy="-1014" rx="63.31" ry="18"/>
<text xml:space="preserve" text-anchor="middle" x="1000.26" y="-1009.33" font-family="Times,serif" font-size="14.00" fill="white">onednn ❎</text>
</a>
</g>
</g>
<!-- scipoptsuite&#45;&gt;onednn -->
<!-- heyoka -->
<g id="node36" class="node">
<title>heyoka</title>
<g id="a_node36"><a xlink:href="https://github.com/conda-forge/heyoka-feedstock/pull/101" xlink:title="heyoka ❎">
<ellipse fill="#31688e" stroke="black" cx="1356.26" cy="-574" rx="61.73" ry="18"/>
<text xml:space="preserve" text-anchor="middle" x="1356.26" y="-569.33" font-family="Times,serif" font-size="14.00" fill="white">heyoka ❎</text>
</a>
</g>
</g>
<!-- heyoka.py -->
<g id="node37" class="node">
<title>heyoka.py</title>
<g id="a_node37"><a xlink:href="https://github.com/conda-forge/heyoka.py-feedstock" xlink:title="heyoka py">
<ellipse fill="#fde725" stroke="black" cx="1311.26" cy="-502" rx="61.73" ry="18"/>
<text xml:space="preserve" text-anchor="middle" x="1311.26" y="-497.32" font-family="Times,serif" font-size="14.00">heyoka py</text>
</a>
</g>
</g>
<!-- heyoka&#45;&gt;heyoka.py -->
<g id="edge37" class="edge">
<title>heyoka&#45;&gt;heyoka.py</title>
<path fill="none" stroke="black" d="M1345.37,-556.05C1340.23,-548.06 1333.97,-538.33 1328.23,-529.4"/>
<polygon fill="black" stroke="black" points="1331.22,-527.58 1322.87,-521.06 1325.34,-531.37 1331.22,-527.58"/>
</g>
<!-- cascade -->
<g id="node38" class="node">
<title>cascade</title>
<g id="a_node38"><a xlink:href="https://github.com/conda-forge/cascade-feedstock" xlink:title="cascade">
<ellipse fill="#fde725" stroke="black" cx="1356.26" cy="-430" rx="50.68" ry="18"/>
<text xml:space="preserve" text-anchor="middle" x="1356.26" y="-425.32" font-family="Times,serif" font-size="14.00">cascade</text>
</a>
</g>
</g>
<!-- heyoka&#45;&gt;cascade -->
<g id="edge38" class="edge">
<title>heyoka&#45;&gt;cascade</title>
<path fill="none" stroke="black" d="M1367.04,-556.08C1372.8,-546.03 1379.3,-532.78 1382.26,-520 1385.88,-504.41 1385.88,-499.59 1382.26,-484 1380.2,-475.11 1376.43,-466 1372.39,-457.89"/>
<polygon fill="black" stroke="black" points="1375.56,-456.41 1367.75,-449.25 1369.39,-459.72 1375.56,-456.41"/>
</g>
<!-- heyoka.py&#45;&gt;cascade -->
<g id="edge39" class="edge">
<title>heyoka.py&#45;&gt;cascade</title>
<path fill="none" stroke="black" d="M1322.15,-484.05C1327.29,-476.06 1333.55,-466.33 1339.29,-457.4"/>
<polygon fill="black" stroke="black" points="1342.19,-459.37 1344.65,-449.06 1336.3,-455.58 1342.19,-459.37"/>
</g>
<!-- prophet -->
<g id="node40" class="node">
<title>prophet</title>
<g id="a_node40"><a xlink:href="https://github.com/conda-forge/prophet-feedstock/pull/64" xlink:title="prophet ❎">
<ellipse fill="#31688e" stroke="black" cx="1000.26" cy="-942" rx="65.94" ry="18"/>
<text xml:space="preserve" text-anchor="middle" x="1000.26" y="-937.33" font-family="Times,serif" font-size="14.00" fill="white">prophet ❎</text>
</a>
</g>
</g>
<!-- onednn&#45;&gt;prophet -->
<!-- cadet -->
<g id="node41" class="node">
<title>cadet</title>
<g id="a_node41"><a xlink:href="https://github.com/conda-forge/cadet-feedstock/pull/32" xlink:title="cadet ✓">
<ellipse fill="#31688e" stroke="black" cx="1000.26" cy="-870" rx="46.47" ry="18"/>
<text xml:space="preserve" text-anchor="middle" x="1000.26" y="-865.33" font-family="Times,serif" font-size="14.00" fill="white">cadet ✓</text>
</a>
</g>
</g>
<!-- prophet&#45;&gt;cadet -->
<!-- gtsam -->
<g id="node42" class="node">
<title>gtsam</title>
<g id="a_node42"><a xlink:href="https://github.com/conda-forge/gtsam-feedstock/pull/36" xlink:title="gtsam ❎">
<ellipse fill="#31688e" stroke="black" cx="1000.26" cy="-798" rx="57.52" ry="18"/>
<text xml:space="preserve" text-anchor="middle" x="1000.26" y="-793.33" font-family="Times,serif" font-size="14.00" fill="white">gtsam ❎</text>
</a>
</g>
</g>
<!-- cadet&#45;&gt;gtsam -->
<!-- heavydb&#45;ext -->
<g id="node43" class="node">
<title>heavydb&#45;ext</title>
<g id="a_node43"><a xlink:href="https://github.com/conda-forge/heavydb-ext-feedstock/pull/99" xlink:title="heavydb ext ❎">
<ellipse fill="#31688e" stroke="black" cx="1000.26" cy="-726" rx="87.51" ry="18"/>
<text xml:space="preserve" text-anchor="middle" x="1000.26" y="-721.33" font-family="Times,serif" font-size="14.00" fill="white">heavydb ext ❎</text>
</a>
</g>
</g>
<!-- gtsam&#45;&gt;heavydb&#45;ext -->
<!-- hoomd&#45;dlext -->
<g id="node44" class="node">
<title>hoomd&#45;dlext</title>
<g id="a_node44"><a xlink:href="https://github.com/conda-forge/hoomd-dlext-feedstock/pull/20" xlink:title="hoomd dlext ❎">
<ellipse fill="#31688e" stroke="black" cx="424.26" cy="-682" rx="88.56" ry="18"/>
<text xml:space="preserve" text-anchor="middle" x="424.26" y="-677.33" font-family="Times,serif" font-size="14.00" fill="white">hoomd dlext ❎</text>
</a>
</g>
</g>
<!-- libthermo -->
<g id="node45" class="node">
<title>libthermo</title>
<g id="a_node45"><a xlink:href="https://github.com/conda-forge/libthermo-feedstock/pull/23" xlink:title="libthermo ❎">
<ellipse fill="#31688e" stroke="black" cx="424.26" cy="-610" rx="75.41" ry="18"/>
<text xml:space="preserve" text-anchor="middle" x="424.26" y="-605.33" font-family="Times,serif" font-size="14.00" fill="white">libthermo ❎</text>
</a>
</g>
</g>
<!-- hoomd&#45;dlext&#45;&gt;libthermo -->
<!-- mold -->
<g id="node46" class="node">
<title>mold</title>
<g id="a_node46"><a xlink:href="https://github.com/conda-forge/mold-feedstock/pull/40" xlink:title="mold ✓">
<ellipse fill="#31688e" stroke="black" cx="424.26" cy="-538" rx="43.84" ry="18"/>
<text xml:space="preserve" text-anchor="middle" x="424.26" y="-533.33" font-family="Times,serif" font-size="14.00" fill="white">mold ✓</text>
</a>
</g>
</g>
<!-- libthermo&#45;&gt;mold -->
<!-- openvdb -->
<g id="node49" class="node">
<title>openvdb</title>
<g id="a_node49"><a xlink:href="https://github.com/conda-forge/openvdb-feedstock/pull/33" xlink:title="openvdb ❎">
<ellipse fill="#31688e" stroke="black" cx="424.26" cy="-466" rx="69.1" ry="18"/>
<text xml:space="preserve" text-anchor="middle" x="424.26" y="-461.32" font-family="Times,serif" font-size="14.00" fill="white">openvdb ❎</text>
</a>
</g>
</g>
<!-- mold&#45;&gt;openvdb -->
<!-- openvino -->
<g id="node47" class="node">
<title>openvino</title>
<g id="a_node47"><a xlink:href="https://github.com/conda-forge/openvino-feedstock/pull/137" xlink:title="openvino ❎">
<ellipse fill="#31688e" stroke="black" cx="1000.26" cy="-242" rx="71.73" ry="18"/>
<text xml:space="preserve" text-anchor="middle" x="1000.26" y="-237.32" font-family="Times,serif" font-size="14.00" fill="white">openvino ❎</text>
</a>
</g>
</g>
<!-- openvino&#45;tokenizers -->
<g id="node48" class="node">
<title>openvino&#45;tokenizers</title>
<g id="a_node48"><a xlink:href="https://github.com/conda-forge/openvino-tokenizers-feedstock" xlink:title="openvino tokenizers">
<ellipse fill="#fde725" stroke="black" cx="1000.26" cy="-170" rx="111.71" ry="18"/>
<text xml:space="preserve" text-anchor="middle" x="1000.26" y="-165.32" font-family="Times,serif" font-size="14.00">openvino tokenizers</text>
</a>
</g>
</g>
<!-- openvino&#45;&gt;openvino&#45;tokenizers -->
<g id="edge47" class="edge">
<title>openvino&#45;&gt;openvino&#45;tokenizers</title>
<path fill="none" stroke="black" d="M1000.26,-223.7C1000.26,-216.41 1000.26,-207.73 1000.26,-199.54"/>
<polygon fill="black" stroke="black" points="1003.76,-199.62 1000.26,-189.62 996.76,-199.62 1003.76,-199.62"/>
</g>
<!-- kegalign -->
<g id="node50" class="node">
<title>kegalign</title>
<g id="a_node50"><a xlink:href="https://github.com/conda-forge/kegalign-feedstock/pull/9" xlink:title="kegalign ❎">
<ellipse fill="#31688e" stroke="black" cx="424.26" cy="-394" rx="69.1" ry="18"/>
<text xml:space="preserve" text-anchor="middle" x="424.26" y="-389.32" font-family="Times,serif" font-size="14.00" fill="white">kegalign ❎</text>
</a>
</g>
</g>
<!-- openvdb&#45;&gt;kegalign -->
<!-- tracy -->
<g id="node51" class="node">
<title>tracy</title>
<g id="a_node51"><a xlink:href="https://github.com/conda-forge/tracy-feedstock/pull/17" xlink:title="tracy ❎">
<ellipse fill="#31688e" stroke="black" cx="424.26" cy="-322" rx="52.26" ry="18"/>
<text xml:space="preserve" text-anchor="middle" x="424.26" y="-317.32" font-family="Times,serif" font-size="14.00" fill="white">tracy ❎</text>
</a>
</g>
</g>
<!-- kegalign&#45;&gt;tracy -->
<!-- opensubdiv -->
<g id="node52" class="node">
<title>opensubdiv</title>
<g id="a_node52"><a xlink:href="https://github.com/conda-forge/opensubdiv-feedstock/pull/9" xlink:title="opensubdiv ✓">
<ellipse fill="#31688e" stroke="black" cx="424.26" cy="-90" rx="76.46" ry="18"/>
<text xml:space="preserve" text-anchor="middle" x="424.26" y="-85.33" font-family="Times,serif" font-size="14.00" fill="white">opensubdiv ✓</text>
</a>
</g>
</g>
<!-- openusd -->
<g id="node53" class="node">
<title>openusd</title>
<g id="a_node53"><a xlink:href="https://github.com/conda-forge/openusd-feedstock" xlink:title="openusd">
<ellipse fill="#fde725" stroke="black" cx="424.26" cy="-18" rx="53.31" ry="18"/>
<text xml:space="preserve" text-anchor="middle" x="424.26" y="-13.32" font-family="Times,serif" font-size="14.00">openusd</text>
</a>
</g>
</g>
<!-- opensubdiv&#45;&gt;openusd -->
<g id="edge51" class="edge">
<title>opensubdiv&#45;&gt;openusd</title>
<path fill="none" stroke="black" d="M424.26,-71.7C424.26,-64.41 424.26,-55.73 424.26,-47.54"/>
<polygon fill="black" stroke="black" points="427.76,-47.62 424.26,-37.62 420.76,-47.62 427.76,-47.62"/>
</g>
</g>
</svg>
