<?xml version="1.0" encoding="UTF-8" standalone="no"?>
<!DOCTYPE svg PUBLIC "-//W3C//DTD SVG 1.1//EN"
 "http://www.w3.org/Graphics/SVG/1.1/DTD/svg11.dtd">
<!-- Generated by graphviz version 13.1.2 (20250809.0930)
 -->
<!-- Pages: 1 -->
<svg width="1212pt" height="1140pt"
 viewBox="0.00 0.00 1212.00 1140.00" xmlns="http://www.w3.org/2000/svg" xmlns:xlink="http://www.w3.org/1999/xlink">
<g id="graph0" class="graph" transform="scale(1 1) rotate(0) translate(4 1136)">
<polygon fill="white" stroke="none" points="-4,4 -4,-1136 1207.97,-1136 1207.97,4 -4,4"/>
<!-- libitk -->
<g id="node1" class="node">
<title>libitk</title>
<g id="a_node1"><a xlink:href="https://github.com/conda-forge/libitk-feedstock/pull/109" xlink:title="libitk ❎">
<ellipse fill="#31688e" stroke="black" cx="52.26" cy="-898" rx="52.26" ry="18"/>
<text xml:space="preserve" text-anchor="middle" x="52.26" y="-893.33" font-family="Times,serif" font-size="14.00" fill="white">libitk ❎</text>
</a>
</g>
</g>
<!-- vmtk -->
<g id="node2" class="node">
<title>vmtk</title>
<g id="a_node2"><a xlink:href="https://github.com/conda-forge/vmtk-feedstock" xlink:title="vmtk">
<ellipse fill="#fde725" stroke="black" cx="52.26" cy="-826" rx="36.48" ry="18"/>
<text xml:space="preserve" text-anchor="middle" x="52.26" y="-821.33" font-family="Times,serif" font-size="14.00">vmtk</text>
</a>
</g>
</g>
<!-- libitk&#45;&gt;vmtk -->
<g id="edge1" class="edge">
<title>libitk&#45;&gt;vmtk</title>
<path fill="none" stroke="black" d="M52.26,-879.7C52.26,-872.41 52.26,-863.73 52.26,-855.54"/>
<polygon fill="black" stroke="black" points="55.76,-855.62 52.26,-845.62 48.76,-855.62 55.76,-855.62"/>
</g>
<!-- vtk -->
<g id="node3" class="node">
<title>vtk</title>
<g id="a_node3"><a xlink:href="https://github.com/conda-forge/vtk-feedstock/pull/416" xlink:title="vtk ❎">
<ellipse fill="#31688e" stroke="black" cx="291.26" cy="-898" rx="42.26" ry="18"/>
<text xml:space="preserve" text-anchor="middle" x="291.26" y="-893.33" font-family="Times,serif" font-size="14.00" fill="white">vtk ❎</text>
</a>
</g>
</g>
<!-- vtk&#45;&gt;vmtk -->
<g id="edge2" class="edge">
<title>vtk&#45;&gt;vmtk</title>
<path fill="none" stroke="black" d="M255.91,-887.7C217.81,-877.54 155.48,-860.5 102.26,-844 98.99,-842.99 95.62,-841.91 92.23,-840.81"/>
<polygon fill="black" stroke="black" points="93.55,-837.56 82.96,-837.72 91.34,-844.2 93.55,-837.56"/>
</g>
<!-- occt -->
<g id="node4" class="node">
<title>occt</title>
<g id="a_node4"><a xlink:href="https://github.com/conda-forge/occt-feedstock" xlink:title="occt">
<ellipse fill="#fde725" stroke="black" cx="176.26" cy="-826" rx="31.74" ry="18"/>
<text xml:space="preserve" text-anchor="middle" x="176.26" y="-821.33" font-family="Times,serif" font-size="14.00">occt</text>
</a>
</g>
</g>
<!-- vtk&#45;&gt;occt -->
<g id="edge3" class="edge">
<title>vtk&#45;&gt;occt</title>
<path fill="none" stroke="black" d="M267.71,-882.67C250.22,-872.02 226.2,-857.4 207.17,-845.81"/>
<polygon fill="black" stroke="black" points="209.11,-842.9 198.75,-840.69 205.47,-848.88 209.11,-842.9"/>
</g>
<!-- smesh -->
<g id="node5" class="node">
<title>smesh</title>
<g id="a_node5"><a xlink:href="https://github.com/conda-forge/smesh-feedstock" xlink:title="smesh">
<ellipse fill="#fde725" stroke="black" cx="108.26" cy="-754" rx="43.32" ry="18"/>
<text xml:space="preserve" text-anchor="middle" x="108.26" y="-749.33" font-family="Times,serif" font-size="14.00">smesh</text>
</a>
</g>
</g>
<!-- vtk&#45;&gt;smesh -->
<g id="edge4" class="edge">
<title>vtk&#45;&gt;smesh</title>
<path fill="none" stroke="black" d="M249.91,-893.34C214.82,-888.07 165.49,-875.25 135.26,-844 119.64,-827.86 113.02,-802.97 110.24,-783.62"/>
<polygon fill="black" stroke="black" points="113.74,-783.45 109.12,-773.91 106.79,-784.25 113.74,-783.45"/>
</g>
<!-- pcl -->
<g id="node6" class="node">
<title>pcl</title>
<g id="a_node6"><a xlink:href="https://github.com/conda-forge/pcl-feedstock" xlink:title="pcl">
<ellipse fill="#fde725" stroke="black" cx="291.26" cy="-826" rx="27" ry="18"/>
<text xml:space="preserve" text-anchor="middle" x="291.26" y="-821.33" font-family="Times,serif" font-size="14.00">pcl</text>
</a>
</g>
</g>
<!-- vtk&#45;&gt;pcl -->
<g id="edge5" class="edge">
<title>vtk&#45;&gt;pcl</title>
<path fill="none" stroke="black" d="M291.26,-879.7C291.26,-872.41 291.26,-863.73 291.26,-855.54"/>
<polygon fill="black" stroke="black" points="294.76,-855.62 291.26,-845.62 287.76,-855.62 294.76,-855.62"/>
</g>
<!-- freecad -->
<g id="node7" class="node">
<title>freecad</title>
<g id="a_node7"><a xlink:href="https://github.com/conda-forge/freecad-feedstock" xlink:title="freecad">
<ellipse fill="#fde725" stroke="black" cx="236.26" cy="-682" rx="48.58" ry="18"/>
<text xml:space="preserve" text-anchor="middle" x="236.26" y="-677.33" font-family="Times,serif" font-size="14.00">freecad</text>
</a>
</g>
</g>
<!-- vtk&#45;&gt;freecad -->
<g id="edge6" class="edge">
<title>vtk&#45;&gt;freecad</title>
<path fill="none" stroke="black" d="M306.12,-880.71C314.08,-870.86 323.08,-857.61 327.26,-844 331.96,-828.71 330.76,-823.61 327.26,-808 319.52,-773.47 314.15,-764.56 293.26,-736 285.32,-725.14 274.94,-714.72 265.21,-706.03"/>
<polygon fill="black" stroke="black" points="267.57,-703.43 257.7,-699.56 263,-708.74 267.57,-703.43"/>
</g>
<!-- topologytoolkit -->
<g id="node8" class="node">
<title>topologytoolkit</title>
<g id="a_node8"><a xlink:href="https://github.com/conda-forge/topologytoolkit-feedstock" xlink:title="topologytoolkit">
<ellipse fill="#fde725" stroke="black" cx="452.26" cy="-754" rx="86.46" ry="18"/>
<text xml:space="preserve" text-anchor="middle" x="452.26" y="-749.33" font-family="Times,serif" font-size="14.00">topologytoolkit</text>
</a>
</g>
</g>
<!-- vtk&#45;&gt;topologytoolkit -->
<g id="edge7" class="edge">
<title>vtk&#45;&gt;topologytoolkit</title>
<path fill="none" stroke="black" d="M311.97,-882.05C325.93,-871.75 344.59,-857.52 360.26,-844 384.19,-823.35 409.93,-798.18 428.08,-779.88"/>
<polygon fill="black" stroke="black" points="430.26,-782.65 434.78,-773.07 425.27,-777.74 430.26,-782.65"/>
</g>
<!-- python&#45;mint -->
<g id="node9" class="node">
<title>python&#45;mint</title>
<g id="a_node9"><a xlink:href="https://github.com/conda-forge/python-mint-feedstock" xlink:title="python mint">
<ellipse fill="#fde725" stroke="black" cx="566.26" cy="-682" rx="72.25" ry="18"/>
<text xml:space="preserve" text-anchor="middle" x="566.26" y="-677.33" font-family="Times,serif" font-size="14.00">python mint</text>
</a>
</g>
</g>
<!-- vtk&#45;&gt;python&#45;mint -->
<g id="edge8" class="edge">
<title>vtk&#45;&gt;python&#45;mint</title>
<path fill="none" stroke="black" d="M329.17,-889.48C385.82,-876.18 491.83,-842.92 547.26,-772 560.65,-754.87 565.14,-730.43 566.42,-711.49"/>
<polygon fill="black" stroke="black" points="569.91,-711.9 566.8,-701.77 562.91,-711.62 569.91,-711.9"/>
</g>
<!-- ocp -->
<g id="node10" class="node">
<title>ocp</title>
<g id="a_node10"><a xlink:href="https://github.com/conda-forge/ocp-feedstock" xlink:title="ocp">
<ellipse fill="#fde725" stroke="black" cx="236.26" cy="-754" rx="28.59" ry="18"/>
<text xml:space="preserve" text-anchor="middle" x="236.26" y="-749.33" font-family="Times,serif" font-size="14.00">ocp</text>
</a>
</g>
</g>
<!-- vtk&#45;&gt;ocp -->
<g id="edge9" class="edge">
<title>vtk&#45;&gt;ocp</title>
<path fill="none" stroke="black" d="M277.81,-880.79C270.13,-870.76 260.94,-857.3 255.26,-844 247.01,-824.66 242.2,-801.38 239.49,-783.48"/>
<polygon fill="black" stroke="black" points="242.99,-783.26 238.16,-773.83 236.05,-784.21 242.99,-783.26"/>
</g>
<!-- open3d -->
<g id="node11" class="node">
<title>open3d</title>
<g id="a_node11"><a xlink:href="https://github.com/conda-forge/open3d-feedstock" xlink:title="open3d">
<ellipse fill="#fde725" stroke="black" cx="666.26" cy="-610" rx="48.05" ry="18"/>
<text xml:space="preserve" text-anchor="middle" x="666.26" y="-605.33" font-family="Times,serif" font-size="14.00">open3d</text>
</a>
</g>
</g>
<!-- vtk&#45;&gt;open3d -->
<g id="edge10" class="edge">
<title>vtk&#45;&gt;open3d</title>
<path fill="none" stroke="black" d="M331.85,-892.75C375.12,-886.86 444.52,-873.39 497.26,-844 577.99,-799.01 602.3,-780.74 647.26,-700 657.55,-681.52 662.28,-658.02 664.44,-639.82"/>
<polygon fill="black" stroke="black" points="667.92,-640.25 665.4,-629.96 660.95,-639.57 667.92,-640.25"/>
</g>
<!-- occt&#45;&gt;smesh -->
<g id="edge11" class="edge">
<title>occt&#45;&gt;smesh</title>
<path fill="none" stroke="black" d="M161.51,-809.81C152.84,-800.89 141.69,-789.41 131.83,-779.26"/>
<polygon fill="black" stroke="black" points="134.47,-776.95 124.99,-772.22 129.45,-781.83 134.47,-776.95"/>
</g>
<!-- occt&#45;&gt;freecad -->
<g id="edge12" class="edge">
<title>occt&#45;&gt;freecad</title>
<path fill="none" stroke="black" d="M178.56,-807.62C181.45,-789.2 187.39,-759.56 198.26,-736 202.62,-726.54 208.76,-717.04 214.83,-708.74"/>
<polygon fill="black" stroke="black" points="217.59,-710.9 220.89,-700.83 212.03,-706.64 217.59,-710.9"/>
</g>
<!-- occt&#45;&gt;ocp -->
<g id="edge13" class="edge">
<title>occt&#45;&gt;ocp</title>
<path fill="none" stroke="black" d="M189.58,-809.46C197.37,-800.37 207.38,-788.7 216.12,-778.5"/>
<polygon fill="black" stroke="black" points="218.56,-781.03 222.41,-771.16 213.24,-776.48 218.56,-781.03"/>
</g>
<!-- smesh&#45;&gt;freecad -->
<g id="edge14" class="edge">
<title>smesh&#45;&gt;freecad</title>
<path fill="none" stroke="black" d="M133.86,-739C152.79,-728.65 178.84,-714.4 199.93,-702.87"/>
<polygon fill="black" stroke="black" points="201.41,-706.05 208.5,-698.18 198.05,-699.91 201.41,-706.05"/>
</g>
<!-- pcl&#45;&gt;freecad -->
<g id="edge15" class="edge">
<title>pcl&#45;&gt;freecad</title>
<path fill="none" stroke="black" d="M290.16,-807.63C288.5,-789.2 284.37,-759.56 274.26,-736 270.15,-726.43 264.09,-716.89 258.01,-708.6"/>
<polygon fill="black" stroke="black" points="260.79,-706.48 251.9,-700.71 255.25,-710.76 260.79,-706.48"/>
</g>
<!-- numba -->
<g id="node12" class="node">
<title>numba</title>
<g id="a_node12"><a xlink:href="https://github.com/conda-forge/numba-feedstock/pull/172" xlink:title="numba ✓">
<ellipse fill="#31688e" stroke="black" cx="354.26" cy="-162" rx="53.31" ry="18"/>
<text xml:space="preserve" text-anchor="middle" x="354.26" y="-157.32" font-family="Times,serif" font-size="14.00" fill="white">numba ✓</text>
</a>
</g>
</g>
<!-- root -->
<g id="node13" class="node">
<title>root</title>
<g id="a_node13"><a xlink:href="https://github.com/conda-forge/root-feedstock" xlink:title="root">
<ellipse fill="#fde725" stroke="black" cx="324.26" cy="-90" rx="31.74" ry="18"/>
<text xml:space="preserve" text-anchor="middle" x="324.26" y="-85.33" font-family="Times,serif" font-size="14.00">root</text>
</a>
</g>
</g>
<!-- numba&#45;&gt;root -->
<g id="edge16" class="edge">
<title>numba&#45;&gt;root</title>
<path fill="none" stroke="black" d="M346.85,-143.7C343.53,-135.95 339.54,-126.64 335.84,-118.02"/>
<polygon fill="black" stroke="black" points="339.14,-116.83 331.98,-109.01 332.7,-119.58 339.14,-116.83"/>
</g>
<!-- scipp -->
<g id="node14" class="node">
<title>scipp</title>
<g id="a_node14"><a xlink:href="https://github.com/conda-forge/scipp-feedstock" xlink:title="scipp">
<ellipse fill="#fde725" stroke="black" cx="384.26" cy="-18" rx="37.53" ry="18"/>
<text xml:space="preserve" text-anchor="middle" x="384.26" y="-13.32" font-family="Times,serif" font-size="14.00">scipp</text>
</a>
</g>
</g>
<!-- numba&#45;&gt;scipp -->
<g id="edge17" class="edge">
<title>numba&#45;&gt;scipp</title>
<path fill="none" stroke="black" d="M357.94,-143.59C363.03,-119.5 372.27,-75.75 378.34,-47.03"/>
<polygon fill="black" stroke="black" points="381.69,-48.1 380.33,-37.59 374.84,-46.65 381.69,-48.1"/>
</g>
<!-- embree3 -->
<g id="node15" class="node">
<title>embree3</title>
<g id="a_node15"><a xlink:href="https://github.com/conda-forge/embree3-feedstock/pull/43" xlink:title="embree3 ❎">
<ellipse fill="#31688e" stroke="black" cx="847.26" cy="-1114" rx="70.68" ry="18"/>
<text xml:space="preserve" text-anchor="middle" x="847.26" y="-1109.33" font-family="Times,serif" font-size="14.00" fill="white">embree3 ❎</text>
</a>
</g>
</g>
<!-- openimageio -->
<g id="node16" class="node">
<title>openimageio</title>
<g id="a_node16"><a xlink:href="https://github.com/conda-forge/openimageio-feedstock/pull/128" xlink:title="openimageio ❎">
<ellipse fill="#31688e" stroke="black" cx="847.26" cy="-1042" rx="90.14" ry="18"/>
<text xml:space="preserve" text-anchor="middle" x="847.26" y="-1037.33" font-family="Times,serif" font-size="14.00" fill="white">openimageio ❎</text>
</a>
</g>
</g>
<!-- embree3&#45;&gt;openimageio -->
<!-- dealii -->
<g id="node17" class="node">
<title>dealii</title>
<g id="a_node17"><a xlink:href="https://github.com/conda-forge/dealii-feedstock/pull/36" xlink:title="dealii ❎">
<ellipse fill="#31688e" stroke="black" cx="847.26" cy="-970" rx="53.84" ry="18"/>
<text xml:space="preserve" text-anchor="middle" x="847.26" y="-965.33" font-family="Times,serif" font-size="14.00" fill="white">dealii ❎</text>
</a>
</g>
</g>
<!-- openimageio&#45;&gt;dealii -->
<!-- r&#45;rfast -->
<g id="node18" class="node">
<title>r&#45;rfast</title>
<g id="a_node18"><a xlink:href="https://github.com/conda-forge/r-rfast-feedstock/pull/33" xlink:title="r rfast ❎">
<ellipse fill="#31688e" stroke="black" cx="847.26" cy="-898" rx="58.05" ry="18"/>
<text xml:space="preserve" text-anchor="middle" x="847.26" y="-893.33" font-family="Times,serif" font-size="14.00" fill="white">r rfast ❎</text>
</a>
</g>
</g>
<!-- dealii&#45;&gt;r&#45;rfast -->
<!-- dcgp&#45;python -->
<g id="node19" class="node">
<title>dcgp&#45;python</title>
<g id="a_node19"><a xlink:href="https://github.com/conda-forge/dcgp-python-feedstock/pull/32" xlink:title="dcgp python ❎">
<ellipse fill="#31688e" stroke="black" cx="847.26" cy="-826" rx="88.56" ry="18"/>
<text xml:space="preserve" text-anchor="middle" x="847.26" y="-821.33" font-family="Times,serif" font-size="14.00" fill="white">dcgp python ❎</text>
</a>
</g>
</g>
<!-- r&#45;rfast&#45;&gt;dcgp&#45;python -->
<!-- foamalgo -->
<g id="node22" class="node">
<title>foamalgo</title>
<g id="a_node22"><a xlink:href="https://github.com/conda-forge/foamalgo-feedstock/pull/19" xlink:title="foamalgo ❎">
<ellipse fill="#31688e" stroke="black" cx="847.26" cy="-754" rx="72.25" ry="18"/>
<text xml:space="preserve" text-anchor="middle" x="847.26" y="-749.33" font-family="Times,serif" font-size="14.00" fill="white">foamalgo ❎</text>
</a>
</g>
</g>
<!-- dcgp&#45;python&#45;&gt;foamalgo -->
<!-- gazebo -->
<g id="node20" class="node">
<title>gazebo</title>
<g id="a_node20"><a xlink:href="https://github.com/conda-forge/gazebo-feedstock/pull/248" xlink:title="gazebo ❎">
<ellipse fill="#31688e" stroke="black" cx="847.26" cy="-314" rx="61.73" ry="18"/>
<text xml:space="preserve" text-anchor="middle" x="847.26" y="-309.32" font-family="Times,serif" font-size="14.00" fill="white">gazebo ❎</text>
</a>
</g>
</g>
<!-- gazebo&#45;yarp&#45;plugins -->
<g id="node21" class="node">
<title>gazebo&#45;yarp&#45;plugins</title>
<g id="a_node21"><a xlink:href="https://github.com/conda-forge/gazebo-yarp-plugins-feedstock" xlink:title="gazebo yarp plugins">
<ellipse fill="#fde725" stroke="black" cx="847.26" cy="-242" rx="112.24" ry="18"/>
<text xml:space="preserve" text-anchor="middle" x="847.26" y="-237.32" font-family="Times,serif" font-size="14.00">gazebo yarp plugins</text>
</a>
</g>
</g>
<!-- gazebo&#45;&gt;gazebo&#45;yarp&#45;plugins -->
<g id="edge22" class="edge">
<title>gazebo&#45;&gt;gazebo&#45;yarp&#45;plugins</title>
<path fill="none" stroke="black" d="M847.26,-295.7C847.26,-288.41 847.26,-279.73 847.26,-271.54"/>
<polygon fill="black" stroke="black" points="850.76,-271.62 847.26,-261.62 843.76,-271.62 850.76,-271.62"/>
</g>
<!-- r&#45;datavisualizations -->
<g id="node25" class="node">
<title>r&#45;datavisualizations</title>
<g id="a_node25"><a xlink:href="https://github.com/conda-forge/r-datavisualizations-feedstock/pull/14" xlink:title="r datavisualizations ❎">
<ellipse fill="#31688e" stroke="black" cx="847.26" cy="-682" rx="124.86" ry="18"/>
<text xml:space="preserve" text-anchor="middle" x="847.26" y="-677.33" font-family="Times,serif" font-size="14.00" fill="white">r datavisualizations ❎</text>
</a>
</g>
</g>
<!-- foamalgo&#45;&gt;r&#45;datavisualizations -->
<!-- r&#45;stringfish -->
<g id="node23" class="node">
<title>r&#45;stringfish</title>
<g id="a_node23"><a xlink:href="https://github.com/conda-forge/r-stringfish-feedstock/pull/25" xlink:title="r stringfish ❎">
<ellipse fill="#31688e" stroke="black" cx="409.26" cy="-278" rx="82.25" ry="18"/>
<text xml:space="preserve" text-anchor="middle" x="409.26" y="-273.32" font-family="Times,serif" font-size="14.00" fill="white">r stringfish ❎</text>
</a>
</g>
</g>
<!-- r&#45;rxode2 -->
<g id="node24" class="node">
<title>r&#45;rxode2</title>
<g id="a_node24"><a xlink:href="https://github.com/conda-forge/r-rxode2-feedstock" xlink:title="r rxode2">
<ellipse fill="#fde725" stroke="black" cx="354.26" cy="-206" rx="53.84" ry="18"/>
<text xml:space="preserve" text-anchor="middle" x="354.26" y="-201.32" font-family="Times,serif" font-size="14.00">r rxode2</text>
</a>
</g>
</g>
<!-- r&#45;stringfish&#45;&gt;r&#45;rxode2 -->
<g id="edge24" class="edge">
<title>r&#45;stringfish&#45;&gt;r&#45;rxode2</title>
<path fill="none" stroke="black" d="M395.95,-260.05C389.53,-251.89 381.69,-241.91 374.55,-232.82"/>
<polygon fill="black" stroke="black" points="377.32,-230.68 368.39,-224.98 371.81,-235 377.32,-230.68"/>
</g>
<!-- cadet -->
<g id="node26" class="node">
<title>cadet</title>
<g id="a_node26"><a xlink:href="https://github.com/conda-forge/cadet-feedstock/pull/32" xlink:title="cadet ✓">
<ellipse fill="#31688e" stroke="black" cx="847.26" cy="-610" rx="46.47" ry="18"/>
<text xml:space="preserve" text-anchor="middle" x="847.26" y="-605.33" font-family="Times,serif" font-size="14.00" fill="white">cadet ✓</text>
</a>
</g>
</g>
<!-- r&#45;datavisualizations&#45;&gt;cadet -->
<!-- gtsam -->
<g id="node27" class="node">
<title>gtsam</title>
<g id="a_node27"><a xlink:href="https://github.com/conda-forge/gtsam-feedstock/pull/36" xlink:title="gtsam ❎">
<ellipse fill="#31688e" stroke="black" cx="847.26" cy="-538" rx="57.52" ry="18"/>
<text xml:space="preserve" text-anchor="middle" x="847.26" y="-533.33" font-family="Times,serif" font-size="14.00" fill="white">gtsam ❎</text>
</a>
</g>
</g>
<!-- cadet&#45;&gt;gtsam -->
<!-- heavydb&#45;ext -->
<g id="node28" class="node">
<title>heavydb&#45;ext</title>
<g id="a_node28"><a xlink:href="https://github.com/conda-forge/heavydb-ext-feedstock/pull/99" xlink:title="heavydb ext ❎">
<ellipse fill="#31688e" stroke="black" cx="847.26" cy="-466" rx="87.51" ry="18"/>
<text xml:space="preserve" text-anchor="middle" x="847.26" y="-461.32" font-family="Times,serif" font-size="14.00" fill="white">heavydb ext ❎</text>
</a>
</g>
</g>
<!-- gtsam&#45;&gt;heavydb&#45;ext -->
<!-- hoomd&#45;dlext -->
<g id="node29" class="node">
<title>hoomd&#45;dlext</title>
<g id="a_node29"><a xlink:href="https://github.com/conda-forge/hoomd-dlext-feedstock/pull/20" xlink:title="hoomd dlext ❎">
<ellipse fill="#31688e" stroke="black" cx="847.26" cy="-394" rx="88.56" ry="18"/>
<text xml:space="preserve" text-anchor="middle" x="847.26" y="-389.32" font-family="Times,serif" font-size="14.00" fill="white">hoomd dlext ❎</text>
</a>
</g>
</g>
<!-- heavydb&#45;ext&#45;&gt;hoomd&#45;dlext -->
<!-- libthermo -->
<g id="node30" class="node">
<title>libthermo</title>
<g id="a_node30"><a xlink:href="https://github.com/conda-forge/libthermo-feedstock/pull/23" xlink:title="libthermo ❎">
<ellipse fill="#31688e" stroke="black" cx="1092.26" cy="-934" rx="75.41" ry="18"/>
<text xml:space="preserve" text-anchor="middle" x="1092.26" y="-929.33" font-family="Times,serif" font-size="14.00" fill="white">libthermo ❎</text>
</a>
</g>
</g>
<!-- cascade -->
<g id="node31" class="node">
<title>cascade</title>
<g id="a_node31"><a xlink:href="https://github.com/conda-forge/cascade-feedstock/pull/40" xlink:title="cascade ✓">
<ellipse fill="#31688e" stroke="black" cx="1092.26" cy="-862" rx="58.57" ry="18"/>
<text xml:space="preserve" text-anchor="middle" x="1092.26" y="-857.33" font-family="Times,serif" font-size="14.00" fill="white">cascade ✓</text>
</a>
</g>
</g>
<!-- libthermo&#45;&gt;cascade -->
<!-- mold -->
<g id="node32" class="node">
<title>mold</title>
<g id="a_node32"><a xlink:href="https://github.com/conda-forge/mold-feedstock/pull/40" xlink:title="mold ✓">
<ellipse fill="#31688e" stroke="black" cx="1092.26" cy="-790" rx="43.84" ry="18"/>
<text xml:space="preserve" text-anchor="middle" x="1092.26" y="-785.33" font-family="Times,serif" font-size="14.00" fill="white">mold ✓</text>
</a>
</g>
</g>
<!-- cascade&#45;&gt;mold -->
<!-- openvdb -->
<g id="node35" class="node">
<title>openvdb</title>
<g id="a_node35"><a xlink:href="https://github.com/conda-forge/openvdb-feedstock/pull/33" xlink:title="openvdb ❎">
<ellipse fill="#31688e" stroke="black" cx="1092.26" cy="-718" rx="69.1" ry="18"/>
<text xml:space="preserve" text-anchor="middle" x="1092.26" y="-713.33" font-family="Times,serif" font-size="14.00" fill="white">openvdb ❎</text>
</a>
</g>
</g>
<!-- mold&#45;&gt;openvdb -->
<!-- openvino -->
<g id="node33" class="node">
<title>openvino</title>
<g id="a_node33"><a xlink:href="https://github.com/conda-forge/openvino-feedstock/pull/137" xlink:title="openvino ❎">
<ellipse fill="#31688e" stroke="black" cx="1092.26" cy="-314" rx="71.73" ry="18"/>
<text xml:space="preserve" text-anchor="middle" x="1092.26" y="-309.32" font-family="Times,serif" font-size="14.00" fill="white">openvino ❎</text>
</a>
</g>
</g>
<!-- openvino&#45;tokenizers -->
<g id="node34" class="node">
<title>openvino&#45;tokenizers</title>
<g id="a_node34"><a xlink:href="https://github.com/conda-forge/openvino-tokenizers-feedstock" xlink:title="openvino tokenizers">
<ellipse fill="#fde725" stroke="black" cx="1092.26" cy="-242" rx="111.71" ry="18"/>
<text xml:space="preserve" text-anchor="middle" x="1092.26" y="-237.32" font-family="Times,serif" font-size="14.00">openvino tokenizers</text>
</a>
</g>
</g>
<!-- openvino&#45;&gt;openvino&#45;tokenizers -->
<g id="edge32" class="edge">
<title>openvino&#45;&gt;openvino&#45;tokenizers</title>
<path fill="none" stroke="black" d="M1092.26,-295.7C1092.26,-288.41 1092.26,-279.73 1092.26,-271.54"/>
<polygon fill="black" stroke="black" points="1095.76,-271.62 1092.26,-261.62 1088.76,-271.62 1095.76,-271.62"/>
</g>
<!-- kegalign -->
<g id="node36" class="node">
<title>kegalign</title>
<g id="a_node36"><a xlink:href="https://github.com/conda-forge/kegalign-feedstock/pull/9" xlink:title="kegalign ✓">
<ellipse fill="#31688e" stroke="black" cx="1092.26" cy="-646" rx="61.73" ry="18"/>
<text xml:space="preserve" text-anchor="middle" x="1092.26" y="-641.33" font-family="Times,serif" font-size="14.00" fill="white">kegalign ✓</text>
</a>
</g>
</g>
<!-- openvdb&#45;&gt;kegalign -->
<!-- openusd -->
<g id="node38" class="node">
<title>openusd</title>
<g id="a_node38"><a xlink:href="https://github.com/conda-forge/openusd-feedstock/pull/18" xlink:title="openusd ❎">
<ellipse fill="#31688e" stroke="black" cx="1092.26" cy="-574" rx="68.57" ry="18"/>
<text xml:space="preserve" text-anchor="middle" x="1092.26" y="-569.33" font-family="Times,serif" font-size="14.00" fill="white">openusd ❎</text>
</a>
</g>
</g>
<!-- kegalign&#45;&gt;openusd -->
<!-- r&#45;rxode2ll -->
<g id="node37" class="node">
<title>r&#45;rxode2ll</title>
<g id="a_node37"><a xlink:href="https://github.com/conda-forge/r-rxode2ll-feedstock/pull/7" xlink:title="r rxode2ll ❎">
<ellipse fill="#31688e" stroke="black" cx="299.26" cy="-350" rx="75.41" ry="18"/>
<text xml:space="preserve" text-anchor="middle" x="299.26" y="-345.32" font-family="Times,serif" font-size="14.00" fill="white">r rxode2ll ❎</text>
</a>
</g>
</g>
<!-- r&#45;rxode2ll&#45;&gt;r&#45;rxode2 -->
<g id="edge35" class="edge">
<title>r&#45;rxode2ll&#45;&gt;r&#45;rxode2</title>
<path fill="none" stroke="black" d="M300.96,-331.67C303.21,-313.29 308.15,-283.69 318.26,-260 322.28,-250.59 328.06,-241.1 333.81,-232.8"/>
<polygon fill="black" stroke="black" points="336.51,-235.05 339.56,-224.9 330.85,-230.93 336.51,-235.05"/>
</g>
</g>
</svg>
