<?xml version="1.0" encoding="UTF-8" standalone="no"?>
<!DOCTYPE svg PUBLIC "-//W3C//DTD SVG 1.1//EN"
 "http://www.w3.org/Graphics/SVG/1.1/DTD/svg11.dtd">
<!-- Generated by graphviz version 13.1.2 (20250809.0930)
 -->
<!-- Pages: 1 -->
<svg width="1523pt" height="1616pt"
 viewBox="0.00 0.00 1523.00 1616.00" xmlns="http://www.w3.org/2000/svg" xmlns:xlink="http://www.w3.org/1999/xlink">
<g id="graph0" class="graph" transform="scale(1 1) rotate(0) translate(4 1612)">
<polygon fill="white" stroke="none" points="-4,4 -4,-1612 1518.85,-1612 1518.85,4 -4,4"/>
<!-- embree -->
<g id="node1" class="node">
<title>embree</title>
<g id="a_node1"><a xlink:href="https://github.com/conda-forge/embree-feedstock/pull/51" xlink:title="embree ❎">
<ellipse fill="#31688e" stroke="black" cx="727.26" cy="-1338" rx="64.36" ry="18"/>
<text xml:space="preserve" text-anchor="middle" x="727.26" y="-1333.33" font-family="Times,serif" font-size="14.00" fill="white">embree ❎</text>
</a>
</g>
</g>
<!-- fresnel -->
<g id="node2" class="node">
<title>fresnel</title>
<g id="a_node2"><a xlink:href="https://github.com/conda-forge/fresnel-feedstock" xlink:title="fresnel">
<ellipse fill="#fde725" stroke="black" cx="801.26" cy="-1266" rx="45.95" ry="18"/>
<text xml:space="preserve" text-anchor="middle" x="801.26" y="-1261.33" font-family="Times,serif" font-size="14.00">fresnel</text>
</a>
</g>
</g>
<!-- embree&#45;&gt;fresnel -->
<g id="edge1" class="edge">
<title>embree&#45;&gt;fresnel</title>
<path fill="none" stroke="black" d="M744.8,-1320.41C754.15,-1311.57 765.81,-1300.53 776.11,-1290.79"/>
<polygon fill="black" stroke="black" points="778.4,-1293.44 783.26,-1284.03 773.59,-1288.36 778.4,-1293.44"/>
</g>
<!-- open3d -->
<g id="node3" class="node">
<title>open3d</title>
<g id="a_node3"><a xlink:href="https://github.com/conda-forge/open3d-feedstock" xlink:title="open3d">
<ellipse fill="#fde725" stroke="black" cx="651.26" cy="-1266" rx="48.05" ry="18"/>
<text xml:space="preserve" text-anchor="middle" x="651.26" y="-1261.33" font-family="Times,serif" font-size="14.00">open3d</text>
</a>
</g>
</g>
<!-- embree&#45;&gt;open3d -->
<g id="edge2" class="edge">
<title>embree&#45;&gt;open3d</title>
<path fill="none" stroke="black" d="M709.25,-1320.41C699.72,-1311.63 687.84,-1300.69 677.32,-1291"/>
<polygon fill="black" stroke="black" points="679.72,-1288.45 669.99,-1284.25 674.98,-1293.6 679.72,-1288.45"/>
</g>
<!-- pymeshlab -->
<g id="node4" class="node">
<title>pymeshlab</title>
<g id="a_node4"><a xlink:href="https://github.com/conda-forge/pymeshlab-feedstock" xlink:title="pymeshlab">
<ellipse fill="#fde725" stroke="black" cx="727.26" cy="-1194" rx="65.41" ry="18"/>
<text xml:space="preserve" text-anchor="middle" x="727.26" y="-1189.33" font-family="Times,serif" font-size="14.00">pymeshlab</text>
</a>
</g>
</g>
<!-- embree&#45;&gt;pymeshlab -->
<g id="edge3" class="edge">
<title>embree&#45;&gt;pymeshlab</title>
<path fill="none" stroke="black" d="M727.26,-1319.59C727.26,-1295.61 727.26,-1252.14 727.26,-1223.42"/>
<polygon fill="black" stroke="black" points="730.76,-1223.62 727.26,-1213.62 723.76,-1223.62 730.76,-1223.62"/>
</g>
<!-- libitk -->
<g id="node5" class="node">
<title>libitk</title>
<g id="a_node5"><a xlink:href="https://github.com/conda-forge/libitk-feedstock/pull/109" xlink:title="libitk ❎">
<ellipse fill="#31688e" stroke="black" cx="52.26" cy="-1338" rx="52.26" ry="18"/>
<text xml:space="preserve" text-anchor="middle" x="52.26" y="-1333.33" font-family="Times,serif" font-size="14.00" fill="white">libitk ❎</text>
</a>
</g>
</g>
<!-- vmtk -->
<g id="node6" class="node">
<title>vmtk</title>
<g id="a_node6"><a xlink:href="https://github.com/conda-forge/vmtk-feedstock" xlink:title="vmtk">
<ellipse fill="#fde725" stroke="black" cx="52.26" cy="-1266" rx="36.48" ry="18"/>
<text xml:space="preserve" text-anchor="middle" x="52.26" y="-1261.33" font-family="Times,serif" font-size="14.00">vmtk</text>
</a>
</g>
</g>
<!-- libitk&#45;&gt;vmtk -->
<g id="edge4" class="edge">
<title>libitk&#45;&gt;vmtk</title>
<path fill="none" stroke="black" d="M52.26,-1319.7C52.26,-1312.41 52.26,-1303.73 52.26,-1295.54"/>
<polygon fill="black" stroke="black" points="55.76,-1295.62 52.26,-1285.62 48.76,-1295.62 55.76,-1295.62"/>
</g>
<!-- openturns -->
<g id="node7" class="node">
<title>openturns</title>
<g id="a_node7"><a xlink:href="https://github.com/conda-forge/openturns-feedstock" xlink:title="openturns">
<ellipse fill="#fde725" stroke="black" cx="1083.26" cy="-538" rx="62.26" ry="18"/>
<text xml:space="preserve" text-anchor="middle" x="1083.26" y="-533.33" font-family="Times,serif" font-size="14.00">openturns</text>
</a>
</g>
</g>
<!-- pagmo -->
<g id="node8" class="node">
<title>pagmo</title>
<g id="a_node8"><a xlink:href="https://github.com/conda-forge/pagmo-feedstock/pull/91" xlink:title="pagmo ✓">
<ellipse fill="#31688e" stroke="black" cx="1069.26" cy="-610" rx="52.79" ry="18"/>
<text xml:space="preserve" text-anchor="middle" x="1069.26" y="-605.33" font-family="Times,serif" font-size="14.00" fill="white">pagmo ✓</text>
</a>
</g>
</g>
<!-- pagmo&#45;&gt;openturns -->
<g id="edge5" class="edge">
<title>pagmo&#45;&gt;openturns</title>
<path fill="none" stroke="black" d="M1072.72,-591.7C1074.2,-584.32 1075.96,-575.52 1077.61,-567.25"/>
<polygon fill="black" stroke="black" points="1081.01,-568.08 1079.54,-557.59 1074.15,-566.71 1081.01,-568.08"/>
</g>
<!-- dcgp&#45;python -->
<g id="node9" class="node">
<title>dcgp&#45;python</title>
<g id="a_node9"><a xlink:href="https://github.com/conda-forge/dcgp-python-feedstock" xlink:title="dcgp python">
<ellipse fill="#fde725" stroke="black" cx="929.26" cy="-538" rx="73.3" ry="18"/>
<text xml:space="preserve" text-anchor="middle" x="929.26" y="-533.33" font-family="Times,serif" font-size="14.00">dcgp python</text>
</a>
</g>
</g>
<!-- pagmo&#45;&gt;dcgp&#45;python -->
<g id="edge6" class="edge">
<title>pagmo&#45;&gt;dcgp&#45;python</title>
<path fill="none" stroke="black" d="M1040.25,-594.5C1020.2,-584.47 993.22,-570.98 970.88,-559.81"/>
<polygon fill="black" stroke="black" points="972.53,-556.72 962.02,-555.38 969.4,-562.98 972.53,-556.72"/>
</g>
<!-- r&#45;rcppparallel -->
<g id="node10" class="node">
<title>r&#45;rcppparallel</title>
<g id="a_node10"><a xlink:href="https://github.com/conda-forge/r-rcppparallel-feedstock/pull/43" xlink:title="r rcppparallel ❎">
<ellipse fill="#31688e" stroke="black" cx="1336.26" cy="-1410" rx="94.88" ry="18"/>
<text xml:space="preserve" text-anchor="middle" x="1336.26" y="-1405.33" font-family="Times,serif" font-size="14.00" fill="white">r rcppparallel ❎</text>
</a>
</g>
</g>
<!-- r&#45;rfast -->
<g id="node11" class="node">
<title>r&#45;rfast</title>
<g id="a_node11"><a xlink:href="https://github.com/conda-forge/r-rfast-feedstock" xlink:title="r rfast">
<ellipse fill="#fde725" stroke="black" cx="1227.26" cy="-1338" rx="42.79" ry="18"/>
<text xml:space="preserve" text-anchor="middle" x="1227.26" y="-1333.33" font-family="Times,serif" font-size="14.00">r rfast</text>
</a>
</g>
</g>
<!-- r&#45;rcppparallel&#45;&gt;r&#45;rfast -->
<g id="edge7" class="edge">
<title>r&#45;rcppparallel&#45;&gt;r&#45;rfast</title>
<path fill="none" stroke="black" d="M1310.15,-1392.23C1294.92,-1382.45 1275.59,-1370.04 1259.43,-1359.66"/>
<polygon fill="black" stroke="black" points="1261.41,-1356.77 1251.11,-1354.32 1257.63,-1362.66 1261.41,-1356.77"/>
</g>
<!-- r&#45;stringfish -->
<g id="node12" class="node">
<title>r&#45;stringfish</title>
<g id="a_node12"><a xlink:href="https://github.com/conda-forge/r-stringfish-feedstock" xlink:title="r stringfish">
<ellipse fill="#fde725" stroke="black" cx="1220.26" cy="-1266" rx="66.99" ry="18"/>
<text xml:space="preserve" text-anchor="middle" x="1220.26" y="-1261.33" font-family="Times,serif" font-size="14.00">r stringfish</text>
</a>
</g>
</g>
<!-- r&#45;rcppparallel&#45;&gt;r&#45;stringfish -->
<g id="edge8" class="edge">
<title>r&#45;rcppparallel&#45;&gt;r&#45;stringfish</title>
<path fill="none" stroke="black" d="M1327.02,-1391.66C1316.66,-1373.01 1298.75,-1342.93 1279.26,-1320 1270.52,-1309.72 1259.83,-1299.54 1249.96,-1290.89"/>
<polygon fill="black" stroke="black" points="1252.23,-1288.24 1242.35,-1284.41 1247.69,-1293.56 1252.23,-1288.24"/>
</g>
<!-- r&#45;datavisualizations -->
<g id="node13" class="node">
<title>r&#45;datavisualizations</title>
<g id="a_node13"><a xlink:href="https://github.com/conda-forge/r-datavisualizations-feedstock" xlink:title="r datavisualizations">
<ellipse fill="#fde725" stroke="black" cx="1336.26" cy="-1194" rx="109.61" ry="18"/>
<text xml:space="preserve" text-anchor="middle" x="1336.26" y="-1189.33" font-family="Times,serif" font-size="14.00">r datavisualizations</text>
</a>
</g>
</g>
<!-- r&#45;rcppparallel&#45;&gt;r&#45;datavisualizations -->
<g id="edge9" class="edge">
<title>r&#45;rcppparallel&#45;&gt;r&#45;datavisualizations</title>
<path fill="none" stroke="black" d="M1336.26,-1391.85C1336.26,-1355.14 1336.26,-1268.66 1336.26,-1223.53"/>
<polygon fill="black" stroke="black" points="1339.76,-1223.75 1336.26,-1213.75 1332.76,-1223.75 1339.76,-1223.75"/>
</g>
<!-- r&#45;rxode2ll -->
<g id="node14" class="node">
<title>r&#45;rxode2ll</title>
<g id="a_node14"><a xlink:href="https://github.com/conda-forge/r-rxode2ll-feedstock" xlink:title="r rxode2ll">
<ellipse fill="#fde725" stroke="black" cx="1424.26" cy="-1122" rx="60.15" ry="18"/>
<text xml:space="preserve" text-anchor="middle" x="1424.26" y="-1117.33" font-family="Times,serif" font-size="14.00">r rxode2ll</text>
</a>
</g>
</g>
<!-- r&#45;rcppparallel&#45;&gt;r&#45;rxode2ll -->
<g id="edge10" class="edge">
<title>r&#45;rcppparallel&#45;&gt;r&#45;rxode2ll</title>
<path fill="none" stroke="black" d="M1351.21,-1391.82C1378.32,-1359.38 1434.73,-1285.71 1455.26,-1212 1459.56,-1196.59 1459.45,-1191.44 1455.26,-1176 1452.75,-1166.74 1448.18,-1157.44 1443.3,-1149.27"/>
<polygon fill="black" stroke="black" points="1446.26,-1147.41 1437.9,-1140.9 1440.37,-1151.2 1446.26,-1147.41"/>
</g>
<!-- r&#45;rxode2 -->
<g id="node15" class="node">
<title>r&#45;rxode2</title>
<g id="a_node15"><a xlink:href="https://github.com/conda-forge/r-rxode2-feedstock" xlink:title="r rxode2">
<ellipse fill="#fde725" stroke="black" cx="1424.26" cy="-1050" rx="53.84" ry="18"/>
<text xml:space="preserve" text-anchor="middle" x="1424.26" y="-1045.33" font-family="Times,serif" font-size="14.00">r rxode2</text>
</a>
</g>
</g>
<!-- r&#45;rcppparallel&#45;&gt;r&#45;rxode2 -->
<g id="edge11" class="edge">
<title>r&#45;rcppparallel&#45;&gt;r&#45;rxode2</title>
<path fill="none" stroke="black" d="M1383.43,-1393.94C1435.56,-1373.98 1512.26,-1333.35 1512.26,-1267 1512.26,-1267 1512.26,-1267 1512.26,-1193 1512.26,-1152.55 1514.85,-1138.2 1493.26,-1104 1485.31,-1091.4 1473.24,-1080.64 1461.41,-1072.18"/>
<polygon fill="black" stroke="black" points="1463.56,-1069.41 1453.31,-1066.73 1459.66,-1075.22 1463.56,-1069.41"/>
</g>
<!-- r&#45;stringfish&#45;&gt;r&#45;rxode2 -->
<g id="edge12" class="edge">
<title>r&#45;stringfish&#45;&gt;r&#45;rxode2</title>
<path fill="none" stroke="black" d="M1214.64,-1247.68C1209.59,-1228.77 1204.72,-1198.22 1217.26,-1176 1250.35,-1117.37 1323.22,-1083.14 1373.04,-1065.75"/>
<polygon fill="black" stroke="black" points="1374.12,-1069.08 1382.49,-1062.57 1371.89,-1062.44 1374.12,-1069.08"/>
</g>
<!-- r&#45;rxode2ll&#45;&gt;r&#45;rxode2 -->
<g id="edge13" class="edge">
<title>r&#45;rxode2ll&#45;&gt;r&#45;rxode2</title>
<path fill="none" stroke="black" d="M1424.26,-1103.7C1424.26,-1096.41 1424.26,-1087.73 1424.26,-1079.54"/>
<polygon fill="black" stroke="black" points="1427.76,-1079.62 1424.26,-1069.62 1420.76,-1079.62 1427.76,-1079.62"/>
</g>
<!-- vtk -->
<g id="node16" class="node">
<title>vtk</title>
<g id="a_node16"><a xlink:href="https://github.com/conda-forge/vtk-feedstock/pull/416" xlink:title="vtk ❎">
<ellipse fill="#31688e" stroke="black" cx="415.26" cy="-1338" rx="42.26" ry="18"/>
<text xml:space="preserve" text-anchor="middle" x="415.26" y="-1333.33" font-family="Times,serif" font-size="14.00" fill="white">vtk ❎</text>
</a>
</g>
</g>
<!-- vtk&#45;&gt;open3d -->
<g id="edge14" class="edge">
<title>vtk&#45;&gt;open3d</title>
<path fill="none" stroke="black" d="M449.33,-1326.9C489.89,-1314.86 557.9,-1294.69 603.65,-1281.12"/>
<polygon fill="black" stroke="black" points="604.44,-1284.54 613.04,-1278.34 602.45,-1277.83 604.44,-1284.54"/>
</g>
<!-- vtk&#45;&gt;vmtk -->
<g id="edge15" class="edge">
<title>vtk&#45;&gt;vmtk</title>
<path fill="none" stroke="black" d="M374.81,-1332.25C314.75,-1324.74 198.7,-1308.39 102.26,-1284 98.75,-1283.11 95.13,-1282.09 91.52,-1281.01"/>
<polygon fill="black" stroke="black" points="92.88,-1277.76 82.29,-1278.06 90.75,-1284.43 92.88,-1277.76"/>
</g>
<!-- occt -->
<g id="node17" class="node">
<title>occt</title>
<g id="a_node17"><a xlink:href="https://github.com/conda-forge/occt-feedstock" xlink:title="occt">
<ellipse fill="#fde725" stroke="black" cx="476.26" cy="-1266" rx="31.74" ry="18"/>
<text xml:space="preserve" text-anchor="middle" x="476.26" y="-1261.33" font-family="Times,serif" font-size="14.00">occt</text>
</a>
</g>
</g>
<!-- vtk&#45;&gt;occt -->
<g id="edge16" class="edge">
<title>vtk&#45;&gt;occt</title>
<path fill="none" stroke="black" d="M429.41,-1320.76C437.06,-1311.98 446.66,-1300.96 455.18,-1291.19"/>
<polygon fill="black" stroke="black" points="457.68,-1293.65 461.62,-1283.81 452.41,-1289.05 457.68,-1293.65"/>
</g>
<!-- smesh -->
<g id="node18" class="node">
<title>smesh</title>
<g id="a_node18"><a xlink:href="https://github.com/conda-forge/smesh-feedstock" xlink:title="smesh">
<ellipse fill="#fde725" stroke="black" cx="415.26" cy="-1194" rx="43.32" ry="18"/>
<text xml:space="preserve" text-anchor="middle" x="415.26" y="-1189.33" font-family="Times,serif" font-size="14.00">smesh</text>
</a>
</g>
</g>
<!-- vtk&#45;&gt;smesh -->
<g id="edge17" class="edge">
<title>vtk&#45;&gt;smesh</title>
<path fill="none" stroke="black" d="M415.26,-1319.59C415.26,-1295.61 415.26,-1252.14 415.26,-1223.42"/>
<polygon fill="black" stroke="black" points="418.76,-1223.62 415.26,-1213.62 411.76,-1223.62 418.76,-1223.62"/>
</g>
<!-- pcl -->
<g id="node19" class="node">
<title>pcl</title>
<g id="a_node19"><a xlink:href="https://github.com/conda-forge/pcl-feedstock" xlink:title="pcl">
<ellipse fill="#fde725" stroke="black" cx="617.26" cy="-1194" rx="27" ry="18"/>
<text xml:space="preserve" text-anchor="middle" x="617.26" y="-1189.33" font-family="Times,serif" font-size="14.00">pcl</text>
</a>
</g>
</g>
<!-- vtk&#45;&gt;pcl -->
<g id="edge18" class="edge">
<title>vtk&#45;&gt;pcl</title>
<path fill="none" stroke="black" d="M449.8,-1327.09C476.2,-1318.45 512.63,-1304.12 540.26,-1284 564.57,-1266.31 586.37,-1239.55 600.52,-1219.99"/>
<polygon fill="black" stroke="black" points="603.24,-1222.21 606.14,-1212.02 597.52,-1218.18 603.24,-1222.21"/>
</g>
<!-- freecad -->
<g id="node20" class="node">
<title>freecad</title>
<g id="a_node20"><a xlink:href="https://github.com/conda-forge/freecad-feedstock" xlink:title="freecad">
<ellipse fill="#fde725" stroke="black" cx="450.26" cy="-1122" rx="48.58" ry="18"/>
<text xml:space="preserve" text-anchor="middle" x="450.26" y="-1117.33" font-family="Times,serif" font-size="14.00">freecad</text>
</a>
</g>
</g>
<!-- vtk&#45;&gt;freecad -->
<g id="edge19" class="edge">
<title>vtk&#45;&gt;freecad</title>
<path fill="none" stroke="black" d="M401.59,-1320.59C378.25,-1290.46 335.78,-1224.91 363.26,-1176 372.44,-1159.66 388.94,-1147.76 405.11,-1139.43"/>
<polygon fill="black" stroke="black" points="406.18,-1142.8 413.71,-1135.35 403.18,-1136.48 406.18,-1142.8"/>
</g>
<!-- topologytoolkit -->
<g id="node21" class="node">
<title>topologytoolkit</title>
<g id="a_node21"><a xlink:href="https://github.com/conda-forge/topologytoolkit-feedstock" xlink:title="topologytoolkit">
<ellipse fill="#fde725" stroke="black" cx="230.26" cy="-1194" rx="86.46" ry="18"/>
<text xml:space="preserve" text-anchor="middle" x="230.26" y="-1189.33" font-family="Times,serif" font-size="14.00">topologytoolkit</text>
</a>
</g>
</g>
<!-- vtk&#45;&gt;topologytoolkit -->
<g id="edge20" class="edge">
<title>vtk&#45;&gt;topologytoolkit</title>
<path fill="none" stroke="black" d="M390.35,-1322.98C373.01,-1312.86 349.62,-1298.48 330.26,-1284 303.52,-1263.99 275.28,-1238.39 255.66,-1219.79"/>
<polygon fill="black" stroke="black" points="258.29,-1217.46 248.64,-1213.08 253.45,-1222.52 258.29,-1217.46"/>
</g>
<!-- python&#45;mint -->
<g id="node22" class="node">
<title>python&#45;mint</title>
<g id="a_node22"><a xlink:href="https://github.com/conda-forge/python-mint-feedstock" xlink:title="python mint">
<ellipse fill="#fde725" stroke="black" cx="116.26" cy="-1122" rx="72.25" ry="18"/>
<text xml:space="preserve" text-anchor="middle" x="116.26" y="-1117.33" font-family="Times,serif" font-size="14.00">python mint</text>
</a>
</g>
</g>
<!-- vtk&#45;&gt;python&#45;mint -->
<g id="edge21" class="edge">
<title>vtk&#45;&gt;python&#45;mint</title>
<path fill="none" stroke="black" d="M375.6,-1331.2C313.87,-1319.96 195.64,-1289.13 135.26,-1212 121.86,-1194.88 117.37,-1170.44 116.09,-1151.5"/>
<polygon fill="black" stroke="black" points="119.6,-1151.63 115.72,-1141.77 112.61,-1151.9 119.6,-1151.63"/>
</g>
<!-- ocp -->
<g id="node23" class="node">
<title>ocp</title>
<g id="a_node23"><a xlink:href="https://github.com/conda-forge/ocp-feedstock" xlink:title="ocp">
<ellipse fill="#fde725" stroke="black" cx="543.26" cy="-1194" rx="28.59" ry="18"/>
<text xml:space="preserve" text-anchor="middle" x="543.26" y="-1189.33" font-family="Times,serif" font-size="14.00">ocp</text>
</a>
</g>
</g>
<!-- vtk&#45;&gt;ocp -->
<g id="edge22" class="edge">
<title>vtk&#45;&gt;ocp</title>
<path fill="none" stroke="black" d="M449.15,-1327.16C471.5,-1319.02 499.78,-1305.28 517.26,-1284 531.33,-1266.88 537.79,-1242.44 540.75,-1223.5"/>
<polygon fill="black" stroke="black" points="544.2,-1224.13 542.01,-1213.76 537.25,-1223.23 544.2,-1224.13"/>
</g>
<!-- occt&#45;&gt;smesh -->
<g id="edge23" class="edge">
<title>occt&#45;&gt;smesh</title>
<path fill="none" stroke="black" d="M462.72,-1249.46C455.2,-1240.83 445.65,-1229.88 437.1,-1220.06"/>
<polygon fill="black" stroke="black" points="439.81,-1217.85 430.61,-1212.61 434.54,-1222.45 439.81,-1217.85"/>
</g>
<!-- occt&#45;&gt;freecad -->
<g id="edge24" class="edge">
<title>occt&#45;&gt;freecad</title>
<path fill="none" stroke="black" d="M475.59,-1247.78C474.64,-1229.73 472.4,-1200.63 467.26,-1176 465.52,-1167.64 462.95,-1158.74 460.34,-1150.66"/>
<polygon fill="black" stroke="black" points="463.72,-1149.72 457.19,-1141.37 457.09,-1151.97 463.72,-1149.72"/>
</g>
<!-- occt&#45;&gt;ocp -->
<g id="edge25" class="edge">
<title>occt&#45;&gt;ocp</title>
<path fill="none" stroke="black" d="M490.8,-1249.81C499.7,-1240.51 511.26,-1228.43 521.27,-1217.98"/>
<polygon fill="black" stroke="black" points="523.78,-1220.42 528.16,-1210.77 518.72,-1215.58 523.78,-1220.42"/>
</g>
<!-- smesh&#45;&gt;freecad -->
<g id="edge26" class="edge">
<title>smesh&#45;&gt;freecad</title>
<path fill="none" stroke="black" d="M423.73,-1176.05C427.65,-1168.23 432.39,-1158.75 436.77,-1149.98"/>
<polygon fill="black" stroke="black" points="439.85,-1151.65 441.19,-1141.14 433.59,-1148.52 439.85,-1151.65"/>
</g>
<!-- pcl&#45;&gt;freecad -->
<g id="edge27" class="edge">
<title>pcl&#45;&gt;freecad</title>
<path fill="none" stroke="black" d="M596.03,-1182.73C591.2,-1180.46 586.07,-1178.11 581.26,-1176 552.26,-1163.3 519.2,-1149.93 493.55,-1139.8"/>
<polygon fill="black" stroke="black" points="495.04,-1136.63 484.45,-1136.22 492.48,-1143.14 495.04,-1136.63"/>
</g>
<!-- numba -->
<g id="node24" class="node">
<title>numba</title>
<g id="a_node24"><a xlink:href="https://github.com/conda-forge/numba-feedstock/pull/172" xlink:title="numba ✓">
<ellipse fill="#31688e" stroke="black" cx="1331.26" cy="-278" rx="53.31" ry="18"/>
<text xml:space="preserve" text-anchor="middle" x="1331.26" y="-273.32" font-family="Times,serif" font-size="14.00" fill="white">numba ✓</text>
</a>
</g>
</g>
<!-- root -->
<g id="node25" class="node">
<title>root</title>
<g id="a_node25"><a xlink:href="https://github.com/conda-forge/root-feedstock" xlink:title="root">
<ellipse fill="#fde725" stroke="black" cx="1301.26" cy="-206" rx="31.74" ry="18"/>
<text xml:space="preserve" text-anchor="middle" x="1301.26" y="-201.33" font-family="Times,serif" font-size="14.00">root</text>
</a>
</g>
</g>
<!-- numba&#45;&gt;root -->
<g id="edge28" class="edge">
<title>numba&#45;&gt;root</title>
<path fill="none" stroke="black" d="M1323.85,-259.7C1320.53,-251.95 1316.54,-242.64 1312.84,-234.02"/>
<polygon fill="black" stroke="black" points="1316.14,-232.83 1308.98,-225.01 1309.7,-235.58 1316.14,-232.83"/>
</g>
<!-- scipp -->
<g id="node26" class="node">
<title>scipp</title>
<g id="a_node26"><a xlink:href="https://github.com/conda-forge/scipp-feedstock" xlink:title="scipp">
<ellipse fill="#fde725" stroke="black" cx="1361.26" cy="-134" rx="37.53" ry="18"/>
<text xml:space="preserve" text-anchor="middle" x="1361.26" y="-129.32" font-family="Times,serif" font-size="14.00">scipp</text>
</a>
</g>
</g>
<!-- numba&#45;&gt;scipp -->
<g id="edge29" class="edge">
<title>numba&#45;&gt;scipp</title>
<path fill="none" stroke="black" d="M1334.94,-259.59C1340.03,-235.5 1349.27,-191.75 1355.34,-163.03"/>
<polygon fill="black" stroke="black" points="1358.69,-164.1 1357.33,-153.59 1351.84,-162.65 1358.69,-164.1"/>
</g>
<!-- embree3 -->
<g id="node27" class="node">
<title>embree3</title>
<g id="a_node27"><a xlink:href="https://github.com/conda-forge/embree3-feedstock/pull/43" xlink:title="embree3 ❎">
<ellipse fill="#31688e" stroke="black" cx="1000.26" cy="-1590" rx="70.68" ry="18"/>
<text xml:space="preserve" text-anchor="middle" x="1000.26" y="-1585.33" font-family="Times,serif" font-size="14.00" fill="white">embree3 ❎</text>
</a>
</g>
</g>
<!-- freud -->
<g id="node28" class="node">
<title>freud</title>
<g id="a_node28"><a xlink:href="https://github.com/conda-forge/freud-feedstock/pull/74" xlink:title="freud ❎">
<ellipse fill="#31688e" stroke="black" cx="1000.26" cy="-1518" rx="53.31" ry="18"/>
<text xml:space="preserve" text-anchor="middle" x="1000.26" y="-1513.33" font-family="Times,serif" font-size="14.00" fill="white">freud ❎</text>
</a>
</g>
</g>
<!-- embree3&#45;&gt;freud -->
<!-- openimageio -->
<g id="node29" class="node">
<title>openimageio</title>
<g id="a_node29"><a xlink:href="https://github.com/conda-forge/openimageio-feedstock/pull/128" xlink:title="openimageio ❎">
<ellipse fill="#31688e" stroke="black" cx="1000.26" cy="-1446" rx="90.14" ry="18"/>
<text xml:space="preserve" text-anchor="middle" x="1000.26" y="-1441.33" font-family="Times,serif" font-size="14.00" fill="white">openimageio ❎</text>
</a>
</g>
</g>
<!-- freud&#45;&gt;openimageio -->
<!-- dealii -->
<g id="node30" class="node">
<title>dealii</title>
<g id="a_node30"><a xlink:href="https://github.com/conda-forge/dealii-feedstock" xlink:title="dealii">
<ellipse fill="#35b779" stroke="black" cx="1000.26" cy="-1374" rx="38.58" ry="18"/>
<text xml:space="preserve" text-anchor="middle" x="1000.26" y="-1369.33" font-family="Times,serif" font-size="14.00">dealii</text>
</a>
</g>
</g>
<!-- openimageio&#45;&gt;dealii -->
<!-- r&#45;proxyc -->
<g id="node31" class="node">
<title>r&#45;proxyc</title>
<g id="a_node31"><a xlink:href="https://github.com/conda-forge/r-proxyc-feedstock/pull/26" xlink:title="r proxyc ✓">
<ellipse fill="#31688e" stroke="black" cx="1000.26" cy="-1302" rx="60.68" ry="18"/>
<text xml:space="preserve" text-anchor="middle" x="1000.26" y="-1297.33" font-family="Times,serif" font-size="14.00" fill="white">r proxyc ✓</text>
</a>
</g>
</g>
<!-- dealii&#45;&gt;r&#45;proxyc -->
<!-- foamalgo -->
<g id="node32" class="node">
<title>foamalgo</title>
<g id="a_node32"><a xlink:href="https://github.com/conda-forge/foamalgo-feedstock/pull/19" xlink:title="foamalgo ❎">
<ellipse fill="#31688e" stroke="black" cx="1000.26" cy="-1230" rx="72.25" ry="18"/>
<text xml:space="preserve" text-anchor="middle" x="1000.26" y="-1225.33" font-family="Times,serif" font-size="14.00" fill="white">foamalgo ❎</text>
</a>
</g>
</g>
<!-- r&#45;proxyc&#45;&gt;foamalgo -->
<!-- scipoptsuite -->
<g id="node36" class="node">
<title>scipoptsuite</title>
<g id="a_node36"><a xlink:href="https://github.com/conda-forge/scipoptsuite-feedstock/pull/95" xlink:title="scipoptsuite ❎">
<ellipse fill="#31688e" stroke="black" cx="1000.26" cy="-1158" rx="87.51" ry="18"/>
<text xml:space="preserve" text-anchor="middle" x="1000.26" y="-1153.33" font-family="Times,serif" font-size="14.00" fill="white">scipoptsuite ❎</text>
</a>
</g>
</g>
<!-- foamalgo&#45;&gt;scipoptsuite -->
<!-- obake -->
<g id="node33" class="node">
<title>obake</title>
<g id="a_node33"><a xlink:href="https://github.com/conda-forge/obake-feedstock/pull/59" xlink:title="obake ❎">
<ellipse fill="#31688e" stroke="black" cx="929.26" cy="-610" rx="55.94" ry="18"/>
<text xml:space="preserve" text-anchor="middle" x="929.26" y="-605.33" font-family="Times,serif" font-size="14.00" fill="white">obake ❎</text>
</a>
</g>
</g>
<!-- obake&#45;&gt;dcgp&#45;python -->
<g id="edge35" class="edge">
<title>obake&#45;&gt;dcgp&#45;python</title>
<path fill="none" stroke="black" d="M929.26,-591.7C929.26,-584.41 929.26,-575.73 929.26,-567.54"/>
<polygon fill="black" stroke="black" points="932.76,-567.62 929.26,-557.62 925.76,-567.62 932.76,-567.62"/>
</g>
<!-- gazebo -->
<g id="node34" class="node">
<title>gazebo</title>
<g id="a_node34"><a xlink:href="https://github.com/conda-forge/gazebo-feedstock/pull/248" xlink:title="gazebo ❎">
<ellipse fill="#31688e" stroke="black" cx="424.26" cy="-242" rx="61.73" ry="18"/>
<text xml:space="preserve" text-anchor="middle" x="424.26" y="-237.32" font-family="Times,serif" font-size="14.00" fill="white">gazebo ❎</text>
</a>
</g>
</g>
<!-- gazebo&#45;yarp&#45;plugins -->
<g id="node35" class="node">
<title>gazebo&#45;yarp&#45;plugins</title>
<g id="a_node35"><a xlink:href="https://github.com/conda-forge/gazebo-yarp-plugins-feedstock" xlink:title="gazebo yarp plugins">
<ellipse fill="#fde725" stroke="black" cx="424.26" cy="-170" rx="112.24" ry="18"/>
<text xml:space="preserve" text-anchor="middle" x="424.26" y="-165.32" font-family="Times,serif" font-size="14.00">gazebo yarp plugins</text>
</a>
</g>
</g>
<!-- gazebo&#45;&gt;gazebo&#45;yarp&#45;plugins -->
<g id="edge36" class="edge">
<title>gazebo&#45;&gt;gazebo&#45;yarp&#45;plugins</title>
<path fill="none" stroke="black" d="M424.26,-223.7C424.26,-216.41 424.26,-207.73 424.26,-199.54"/>
<polygon fill="black" stroke="black" points="427.76,-199.62 424.26,-189.62 420.76,-199.62 427.76,-199.62"/>
</g>
<!-- onednn -->
<g id="node40" class="node">
<title>onednn</title>
<g id="a_node40"><a xlink:href="https://github.com/conda-forge/onednn-feedstock" xlink:title="onednn">
<ellipse fill="#35b779" stroke="black" cx="1000.26" cy="-1086" rx="48.05" ry="18"/>
<text xml:space="preserve" text-anchor="middle" x="1000.26" y="-1081.33" font-family="Times,serif" font-size="14.00">onednn</text>
</a>
</g>
</g>
<!-- scipoptsuite&#45;&gt;onednn -->
<!-- heyoka -->
<g id="node37" class="node">
<title>heyoka</title>
<g id="a_node37"><a xlink:href="https://github.com/conda-forge/heyoka-feedstock/pull/101" xlink:title="heyoka ❎">
<ellipse fill="#31688e" stroke="black" cx="1356.26" cy="-646" rx="61.73" ry="18"/>
<text xml:space="preserve" text-anchor="middle" x="1356.26" y="-641.33" font-family="Times,serif" font-size="14.00" fill="white">heyoka ❎</text>
</a>
</g>
</g>
<!-- heyoka.py -->
<g id="node38" class="node">
<title>heyoka.py</title>
<g id="a_node38"><a xlink:href="https://github.com/conda-forge/heyoka.py-feedstock" xlink:title="heyoka py">
<ellipse fill="#fde725" stroke="black" cx="1311.26" cy="-574" rx="61.73" ry="18"/>
<text xml:space="preserve" text-anchor="middle" x="1311.26" y="-569.33" font-family="Times,serif" font-size="14.00">heyoka py</text>
</a>
</g>
</g>
<!-- heyoka&#45;&gt;heyoka.py -->
<g id="edge38" class="edge">
<title>heyoka&#45;&gt;heyoka.py</title>
<path fill="none" stroke="black" d="M1345.37,-628.05C1340.23,-620.06 1333.97,-610.33 1328.23,-601.4"/>
<polygon fill="black" stroke="black" points="1331.22,-599.58 1322.87,-593.06 1325.34,-603.37 1331.22,-599.58"/>
</g>
<!-- cascade -->
<g id="node39" class="node">
<title>cascade</title>
<g id="a_node39"><a xlink:href="https://github.com/conda-forge/cascade-feedstock" xlink:title="cascade">
<ellipse fill="#fde725" stroke="black" cx="1356.26" cy="-502" rx="50.68" ry="18"/>
<text xml:space="preserve" text-anchor="middle" x="1356.26" y="-497.32" font-family="Times,serif" font-size="14.00">cascade</text>
</a>
</g>
</g>
<!-- heyoka&#45;&gt;cascade -->
<g id="edge39" class="edge">
<title>heyoka&#45;&gt;cascade</title>
<path fill="none" stroke="black" d="M1367.04,-628.08C1372.8,-618.03 1379.3,-604.78 1382.26,-592 1385.88,-576.41 1385.88,-571.59 1382.26,-556 1380.2,-547.11 1376.43,-538 1372.39,-529.89"/>
<polygon fill="black" stroke="black" points="1375.56,-528.41 1367.75,-521.25 1369.39,-531.72 1375.56,-528.41"/>
</g>
<!-- heyoka.py&#45;&gt;cascade -->
<g id="edge40" class="edge">
<title>heyoka.py&#45;&gt;cascade</title>
<path fill="none" stroke="black" d="M1322.15,-556.05C1327.29,-548.06 1333.55,-538.33 1339.29,-529.4"/>
<polygon fill="black" stroke="black" points="1342.19,-531.37 1344.65,-521.06 1336.3,-527.58 1342.19,-531.37"/>
</g>
<!-- prophet -->
<g id="node41" class="node">
<title>prophet</title>
<g id="a_node41"><a xlink:href="https://github.com/conda-forge/prophet-feedstock/pull/64" xlink:title="prophet ❎">
<ellipse fill="#31688e" stroke="black" cx="1000.26" cy="-1014" rx="65.94" ry="18"/>
<text xml:space="preserve" text-anchor="middle" x="1000.26" y="-1009.33" font-family="Times,serif" font-size="14.00" fill="white">prophet ❎</text>
</a>
</g>
</g>
<!-- onednn&#45;&gt;prophet -->
<!-- cadet -->
<g id="node42" class="node">
<title>cadet</title>
<g id="a_node42"><a xlink:href="https://github.com/conda-forge/cadet-feedstock/pull/32" xlink:title="cadet ❎">
<ellipse fill="#31688e" stroke="black" cx="1000.26" cy="-942" rx="53.84" ry="18"/>
<text xml:space="preserve" text-anchor="middle" x="1000.26" y="-937.33" font-family="Times,serif" font-size="14.00" fill="white">cadet ❎</text>
</a>
</g>
</g>
<!-- prophet&#45;&gt;cadet -->
<!-- gtsam -->
<g id="node43" class="node">
<title>gtsam</title>
<g id="a_node43"><a xlink:href="https://github.com/conda-forge/gtsam-feedstock" xlink:title="gtsam">
<ellipse fill="#35b779" stroke="black" cx="1000.26" cy="-870" rx="42.26" ry="18"/>
<text xml:space="preserve" text-anchor="middle" x="1000.26" y="-865.33" font-family="Times,serif" font-size="14.00">gtsam</text>
</a>
</g>
</g>
<!-- cadet&#45;&gt;gtsam -->
<!-- heavydb&#45;ext -->
<g id="node44" class="node">
<title>heavydb&#45;ext</title>
<g id="a_node44"><a xlink:href="https://github.com/conda-forge/heavydb-ext-feedstock/pull/99" xlink:title="heavydb ext ❎">
<ellipse fill="#31688e" stroke="black" cx="424.26" cy="-826" rx="87.51" ry="18"/>
<text xml:space="preserve" text-anchor="middle" x="424.26" y="-821.33" font-family="Times,serif" font-size="14.00" fill="white">heavydb ext ❎</text>
</a>
</g>
</g>
<!-- hoomd&#45;dlext -->
<g id="node45" class="node">
<title>hoomd&#45;dlext</title>
<g id="a_node45"><a xlink:href="https://github.com/conda-forge/hoomd-dlext-feedstock" xlink:title="hoomd dlext">
<ellipse fill="#35b779" stroke="black" cx="424.26" cy="-754" rx="73.3" ry="18"/>
<text xml:space="preserve" text-anchor="middle" x="424.26" y="-749.33" font-family="Times,serif" font-size="14.00">hoomd dlext</text>
</a>
</g>
</g>
<!-- heavydb&#45;ext&#45;&gt;hoomd&#45;dlext -->
<!-- libthermo -->
<g id="node46" class="node">
<title>libthermo</title>
<g id="a_node46"><a xlink:href="https://github.com/conda-forge/libthermo-feedstock/pull/23" xlink:title="libthermo ❎">
<ellipse fill="#31688e" stroke="black" cx="424.26" cy="-682" rx="75.41" ry="18"/>
<text xml:space="preserve" text-anchor="middle" x="424.26" y="-677.33" font-family="Times,serif" font-size="14.00" fill="white">libthermo ❎</text>
</a>
</g>
</g>
<!-- hoomd&#45;dlext&#45;&gt;libthermo -->
<!-- mold -->
<g id="node47" class="node">
<title>mold</title>
<g id="a_node47"><a xlink:href="https://github.com/conda-forge/mold-feedstock/pull/40" xlink:title="mold ❎">
<ellipse fill="#31688e" stroke="black" cx="424.26" cy="-610" rx="51.21" ry="18"/>
<text xml:space="preserve" text-anchor="middle" x="424.26" y="-605.33" font-family="Times,serif" font-size="14.00" fill="white">mold ❎</text>
</a>
</g>
</g>
<!-- libthermo&#45;&gt;mold -->
<!-- openvdb -->
<g id="node50" class="node">
<title>openvdb</title>
<g id="a_node50"><a xlink:href="https://github.com/conda-forge/openvdb-feedstock" xlink:title="openvdb">
<ellipse fill="#35b779" stroke="black" cx="424.26" cy="-538" rx="53.84" ry="18"/>
<text xml:space="preserve" text-anchor="middle" x="424.26" y="-533.33" font-family="Times,serif" font-size="14.00">openvdb</text>
</a>
</g>
</g>
<!-- mold&#45;&gt;openvdb -->
<!-- openvino -->
<g id="node48" class="node">
<title>openvino</title>
<g id="a_node48"><a xlink:href="https://github.com/conda-forge/openvino-feedstock/pull/137" xlink:title="openvino ❎">
<ellipse fill="#31688e" stroke="black" cx="1000.26" cy="-242" rx="71.73" ry="18"/>
<text xml:space="preserve" text-anchor="middle" x="1000.26" y="-237.32" font-family="Times,serif" font-size="14.00" fill="white">openvino ❎</text>
</a>
</g>
</g>
<!-- openvino&#45;tokenizers -->
<g id="node49" class="node">
<title>openvino&#45;tokenizers</title>
<g id="a_node49"><a xlink:href="https://github.com/conda-forge/openvino-tokenizers-feedstock" xlink:title="openvino tokenizers">
<ellipse fill="#fde725" stroke="black" cx="1000.26" cy="-170" rx="111.71" ry="18"/>
<text xml:space="preserve" text-anchor="middle" x="1000.26" y="-165.32" font-family="Times,serif" font-size="14.00">openvino tokenizers</text>
</a>
</g>
</g>
<!-- openvino&#45;&gt;openvino&#45;tokenizers -->
<g id="edge48" class="edge">
<title>openvino&#45;&gt;openvino&#45;tokenizers</title>
<path fill="none" stroke="black" d="M1000.26,-223.7C1000.26,-216.41 1000.26,-207.73 1000.26,-199.54"/>
<polygon fill="black" stroke="black" points="1003.76,-199.62 1000.26,-189.62 996.76,-199.62 1003.76,-199.62"/>
</g>
<!-- kegalign -->
<g id="node51" class="node">
<title>kegalign</title>
<g id="a_node51"><a xlink:href="https://github.com/conda-forge/kegalign-feedstock" xlink:title="kegalign">
<ellipse fill="#35b779" stroke="black" cx="424.26" cy="-466" rx="53.84" ry="18"/>
<text xml:space="preserve" text-anchor="middle" x="424.26" y="-461.32" font-family="Times,serif" font-size="14.00">kegalign</text>
</a>
</g>
</g>
<!-- openvdb&#45;&gt;kegalign -->
<!-- tracy -->
<g id="node52" class="node">
<title>tracy</title>
<g id="a_node52"><a xlink:href="https://github.com/conda-forge/tracy-feedstock" xlink:title="tracy">
<ellipse fill="#35b779" stroke="black" cx="424.26" cy="-394" rx="37" ry="18"/>
<text xml:space="preserve" text-anchor="middle" x="424.26" y="-389.32" font-family="Times,serif" font-size="14.00">tracy</text>
</a>
</g>
</g>
<!-- kegalign&#45;&gt;tracy -->
<!-- multipers -->
<g id="node53" class="node">
<title>multipers</title>
<g id="a_node53"><a xlink:href="https://github.com/conda-forge/multipers-feedstock" xlink:title="multipers">
<ellipse fill="#35b779" stroke="black" cx="424.26" cy="-322" rx="59.63" ry="18"/>
<text xml:space="preserve" text-anchor="middle" x="424.26" y="-317.32" font-family="Times,serif" font-size="14.00">multipers</text>
</a>
</g>
</g>
<!-- tracy&#45;&gt;multipers -->
<!-- opensubdiv -->
<g id="node54" class="node">
<title>opensubdiv</title>
<g id="a_node54"><a xlink:href="https://github.com/conda-forge/opensubdiv-feedstock/pull/9" xlink:title="opensubdiv ❎">
<ellipse fill="#31688e" stroke="black" cx="424.26" cy="-90" rx="83.83" ry="18"/>
<text xml:space="preserve" text-anchor="middle" x="424.26" y="-85.33" font-family="Times,serif" font-size="14.00" fill="white">opensubdiv ❎</text>
</a>
</g>
</g>
<!-- openusd -->
<g id="node55" class="node">
<title>openusd</title>
<g id="a_node55"><a xlink:href="https://github.com/conda-forge/openusd-feedstock" xlink:title="openusd">
<ellipse fill="#fde725" stroke="black" cx="424.26" cy="-18" rx="53.31" ry="18"/>
<text xml:space="preserve" text-anchor="middle" x="424.26" y="-13.32" font-family="Times,serif" font-size="14.00">openusd</text>
</a>
</g>
</g>
<!-- opensubdiv&#45;&gt;openusd -->
<g id="edge53" class="edge">
<title>opensubdiv&#45;&gt;openusd</title>
<path fill="none" stroke="black" d="M424.26,-71.7C424.26,-64.41 424.26,-55.73 424.26,-47.54"/>
<polygon fill="black" stroke="black" points="427.76,-47.62 424.26,-37.62 420.76,-47.62 427.76,-47.62"/>
</g>
</g>
</svg>
