<?xml version="1.0" encoding="UTF-8" standalone="no"?>
<!DOCTYPE svg PUBLIC "-//W3C//DTD SVG 1.1//EN"
 "http://www.w3.org/Graphics/SVG/1.1/DTD/svg11.dtd">
<!-- Generated by graphviz version 12.2.1 (20250203.1708)
 -->
<!-- Pages: 1 -->
<svg width="1025pt" height="448pt"
 viewBox="0.00 0.00 1024.70 448.00" xmlns="http://www.w3.org/2000/svg" xmlns:xlink="http://www.w3.org/1999/xlink">
<g id="graph0" class="graph" transform="scale(1 1) rotate(0) translate(4 444)">
<polygon fill="white" stroke="none" points="-4,4 -4,-444 1020.7,-444 1020.7,4 -4,4"/>
<!-- cppcheck -->
<g id="node1" class="node">
<title>cppcheck</title>
<g id="a_node1"><a xlink:href="https://github.com/conda-forge/cppcheck-feedstock/pull/100" xlink:title="cppcheck ❎">
<ellipse fill="#31688e" stroke="black" cx="943.92" cy="-422" rx="72.78" ry="18"/>
<text text-anchor="middle" x="943.92" y="-417.32" font-family="Times,serif" font-size="14.00" fill="white">cppcheck ❎</text>
</a>
</g>
</g>
<!-- hpp&#45;util -->
<g id="node2" class="node">
<title>hpp&#45;util</title>
<g id="a_node2"><a xlink:href="https://github.com/conda-forge/hpp-util-feedstock/pull/21" xlink:title="hpp util ✓">
<ellipse fill="#31688e" stroke="black" cx="943.92" cy="-350" rx="58.05" ry="18"/>
<text text-anchor="middle" x="943.92" y="-345.32" font-family="Times,serif" font-size="14.00" fill="white">hpp util ✓</text>
</a>
</g>
</g>
<!-- cppcheck&#45;&gt;hpp&#45;util -->
<!-- fast&#45;dds -->
<g id="node11" class="node">
<title>fast&#45;dds</title>
<g id="a_node11"><a xlink:href="https://github.com/conda-forge/fast-dds-feedstock/pull/17" xlink:title="fast dds ❎">
<ellipse fill="#31688e" stroke="black" cx="943.92" cy="-278" rx="66.47" ry="18"/>
<text text-anchor="middle" x="943.92" y="-273.32" font-family="Times,serif" font-size="14.00" fill="white">fast dds ❎</text>
</a>
</g>
</g>
<!-- hpp&#45;util&#45;&gt;fast&#45;dds -->
<!-- libignition&#45;msgs1 -->
<g id="node3" class="node">
<title>libignition&#45;msgs1</title>
<g id="a_node3"><a xlink:href="https://github.com/conda-forge/libignition-msgs1-feedstock/pull/116" xlink:title="libignition msgs1 ✓">
<ellipse fill="#31688e" stroke="black" cx="105.92" cy="-386" rx="105.92" ry="18"/>
<text text-anchor="middle" x="105.92" y="-381.32" font-family="Times,serif" font-size="14.00" fill="white">libignition msgs1 ✓</text>
</a>
</g>
</g>
<!-- libignition&#45;fuel&#45;tools -->
<g id="node4" class="node">
<title>libignition&#45;fuel&#45;tools</title>
<g id="a_node4"><a xlink:href="https://github.com/conda-forge/libignition-fuel-tools-feedstock" xlink:title="libignition fuel tools">
<ellipse fill="#fde725" stroke="black" cx="352.92" cy="-314" rx="111.71" ry="18"/>
<text text-anchor="middle" x="352.92" y="-309.32" font-family="Times,serif" font-size="14.00">libignition fuel tools</text>
</a>
</g>
</g>
<!-- libignition&#45;msgs1&#45;&gt;libignition&#45;fuel&#45;tools -->
<g id="edge2" class="edge">
<title>libignition&#45;msgs1&#45;&gt;libignition&#45;fuel&#45;tools</title>
<path fill="none" stroke="black" d="M158.91,-369.98C196.75,-359.26 247.86,-344.78 288.12,-333.36"/>
<polygon fill="black" stroke="black" points="289.05,-336.74 297.71,-330.65 287.14,-330.01 289.05,-336.74"/>
</g>
<!-- libignition&#45;gui -->
<g id="node5" class="node">
<title>libignition&#45;gui</title>
<g id="a_node5"><a xlink:href="https://github.com/conda-forge/libignition-gui-feedstock" xlink:title="libignition gui">
<ellipse fill="#fde725" stroke="black" cx="141.92" cy="-314" rx="81.2" ry="18"/>
<text text-anchor="middle" x="141.92" y="-309.32" font-family="Times,serif" font-size="14.00">libignition gui</text>
</a>
</g>
</g>
<!-- libignition&#45;msgs1&#45;&gt;libignition&#45;gui -->
<g id="edge3" class="edge">
<title>libignition&#45;msgs1&#45;&gt;libignition&#45;gui</title>
<path fill="none" stroke="black" d="M114.82,-367.7C118.79,-359.98 123.56,-350.71 127.98,-342.11"/>
<polygon fill="black" stroke="black" points="130.97,-343.94 132.43,-333.45 124.75,-340.74 130.97,-343.94"/>
</g>
<!-- libignition&#45;gazebo -->
<g id="node6" class="node">
<title>libignition&#45;gazebo</title>
<g id="a_node6"><a xlink:href="https://github.com/conda-forge/libignition-gazebo-feedstock" xlink:title="libignition gazebo">
<ellipse fill="#fde725" stroke="black" cx="270.92" cy="-242" rx="100.66" ry="18"/>
<text text-anchor="middle" x="270.92" y="-237.32" font-family="Times,serif" font-size="14.00">libignition gazebo</text>
</a>
</g>
</g>
<!-- libignition&#45;msgs1&#45;&gt;libignition&#45;gazebo -->
<g id="edge4" class="edge">
<title>libignition&#45;msgs1&#45;&gt;libignition&#45;gazebo</title>
<path fill="none" stroke="black" d="M83.31,-368.14C61.25,-349.63 33.48,-319.44 51.92,-296 67.76,-275.88 124.65,-262.48 176.48,-254.19"/>
<polygon fill="black" stroke="black" points="176.94,-257.66 186.29,-252.67 175.88,-250.74 176.94,-257.66"/>
</g>
<!-- libignition&#45;launch -->
<g id="node7" class="node">
<title>libignition&#45;launch</title>
<g id="a_node7"><a xlink:href="https://github.com/conda-forge/libignition-launch-feedstock" xlink:title="libignition launch">
<ellipse fill="#fde725" stroke="black" cx="205.92" cy="-170" rx="98.56" ry="18"/>
<text text-anchor="middle" x="205.92" y="-165.32" font-family="Times,serif" font-size="14.00">libignition launch</text>
</a>
</g>
</g>
<!-- libignition&#45;msgs1&#45;&gt;libignition&#45;launch -->
<g id="edge5" class="edge">
<title>libignition&#45;msgs1&#45;&gt;libignition&#45;launch</title>
<path fill="none" stroke="black" d="M75.83,-368.37C62.85,-359.45 49.04,-347.14 41.92,-332 35.11,-317.52 34.82,-310.34 41.92,-296 65.98,-247.41 118.98,-212.56 158.26,-192.2"/>
<polygon fill="black" stroke="black" points="159.71,-195.39 167.07,-187.77 156.56,-189.13 159.71,-195.39"/>
</g>
<!-- libignition&#45;fuel&#45;tools&#45;&gt;libignition&#45;gazebo -->
<g id="edge6" class="edge">
<title>libignition&#45;fuel&#45;tools&#45;&gt;libignition&#45;gazebo</title>
<path fill="none" stroke="black" d="M333.07,-296.05C322.98,-287.43 310.52,-276.8 299.42,-267.32"/>
<polygon fill="black" stroke="black" points="301.9,-264.84 292.03,-261.01 297.36,-270.17 301.9,-264.84"/>
</g>
<!-- libignition&#45;gui&#45;&gt;libignition&#45;gazebo -->
<g id="edge7" class="edge">
<title>libignition&#45;gui&#45;&gt;libignition&#45;gazebo</title>
<path fill="none" stroke="black" d="M171.52,-296.94C189.05,-287.43 211.5,-275.25 230.63,-264.87"/>
<polygon fill="black" stroke="black" points="232.12,-268.04 239.24,-260.19 228.78,-261.89 232.12,-268.04"/>
</g>
<!-- libignition&#45;gui&#45;&gt;libignition&#45;launch -->
<g id="edge8" class="edge">
<title>libignition&#45;gui&#45;&gt;libignition&#45;launch</title>
<path fill="none" stroke="black" d="M143.09,-295.79C144.91,-277.24 149.49,-247.25 160.92,-224 165.78,-214.14 172.87,-204.58 180,-196.37"/>
<polygon fill="black" stroke="black" points="182.44,-198.88 186.62,-189.15 177.28,-194.15 182.44,-198.88"/>
</g>
<!-- libignition&#45;gazebo&#45;&gt;libignition&#45;launch -->
<g id="edge9" class="edge">
<title>libignition&#45;gazebo&#45;&gt;libignition&#45;launch</title>
<path fill="none" stroke="black" d="M255.19,-224.05C247.36,-215.63 237.75,-205.28 229.11,-195.97"/>
<polygon fill="black" stroke="black" points="231.91,-193.84 222.54,-188.9 226.78,-198.61 231.91,-193.84"/>
</g>
<!-- gazebo -->
<g id="node8" class="node">
<title>gazebo</title>
<g id="a_node8"><a xlink:href="https://github.com/conda-forge/gazebo-feedstock" xlink:title="gazebo">
<ellipse fill="#fde725" stroke="black" cx="255.92" cy="-18" rx="46.47" ry="18"/>
<text text-anchor="middle" x="255.92" y="-13.32" font-family="Times,serif" font-size="14.00">gazebo</text>
</a>
</g>
</g>
<!-- libignition&#45;common -->
<g id="node9" class="node">
<title>libignition&#45;common</title>
<g id="a_node9"><a xlink:href="https://github.com/conda-forge/libignition-common-feedstock/pull/69" xlink:title="libignition common ❎">
<ellipse fill="#31688e" stroke="black" cx="388.92" cy="-386" rx="122.76" ry="18"/>
<text text-anchor="middle" x="388.92" y="-381.32" font-family="Times,serif" font-size="14.00" fill="white">libignition common ❎</text>
</a>
</g>
</g>
<!-- libignition&#45;common&#45;&gt;libignition&#45;fuel&#45;tools -->
<g id="edge10" class="edge">
<title>libignition&#45;common&#45;&gt;libignition&#45;fuel&#45;tools</title>
<path fill="none" stroke="black" d="M380.02,-367.7C376.06,-359.98 371.29,-350.71 366.87,-342.11"/>
<polygon fill="black" stroke="black" points="370.1,-340.74 362.41,-333.45 363.87,-343.94 370.1,-340.74"/>
</g>
<!-- libignition&#45;common&#45;&gt;libignition&#45;gui -->
<g id="edge11" class="edge">
<title>libignition&#45;common&#45;&gt;libignition&#45;gui</title>
<path fill="none" stroke="black" d="M334.11,-369.46C294.87,-358.35 242.08,-343.38 201.75,-331.96"/>
<polygon fill="black" stroke="black" points="202.76,-328.6 192.19,-329.25 200.85,-335.34 202.76,-328.6"/>
</g>
<!-- libignition&#45;common&#45;&gt;libignition&#45;gazebo -->
<g id="edge12" class="edge">
<title>libignition&#45;common&#45;&gt;libignition&#45;gazebo</title>
<path fill="none" stroke="black" d="M432.17,-368.81C448.26,-360.42 464.81,-348.42 473.92,-332 481.69,-318.01 483.7,-308.66 473.92,-296 459.6,-277.45 408.38,-264.16 360.98,-255.53"/>
<polygon fill="black" stroke="black" points="361.62,-252.08 351.17,-253.8 360.41,-258.98 361.62,-252.08"/>
</g>
<!-- libignition&#45;common&#45;&gt;libignition&#45;launch -->
<g id="edge13" class="edge">
<title>libignition&#45;common&#45;&gt;libignition&#45;launch</title>
<path fill="none" stroke="black" d="M443.51,-369.54C461.84,-361.46 480.31,-349.48 490.92,-332 499.23,-318.32 498.53,-310.07 490.92,-296 453.74,-227.23 367.55,-196.27 299.62,-182.34"/>
<polygon fill="black" stroke="black" points="300.42,-178.93 289.94,-180.46 299.09,-185.8 300.42,-178.93"/>
</g>
<!-- dartsim -->
<g id="node10" class="node">
<title>dartsim</title>
<g id="a_node10"><a xlink:href="https://github.com/conda-forge/dartsim-feedstock/pull/125" xlink:title="dartsim ❎">
<ellipse fill="#31688e" stroke="black" cx="255.92" cy="-90" rx="65.41" ry="18"/>
<text text-anchor="middle" x="255.92" y="-85.33" font-family="Times,serif" font-size="14.00" fill="white">dartsim ❎</text>
</a>
</g>
</g>
<!-- dartsim&#45;&gt;gazebo -->
<g id="edge14" class="edge">
<title>dartsim&#45;&gt;gazebo</title>
<path fill="none" stroke="black" d="M255.92,-71.7C255.92,-64.41 255.92,-55.73 255.92,-47.54"/>
<polygon fill="black" stroke="black" points="259.42,-47.62 255.92,-37.62 252.42,-47.62 259.42,-47.62"/>
</g>
<!-- mujoco -->
<g id="node12" class="node">
<title>mujoco</title>
<g id="a_node12"><a xlink:href="https://github.com/conda-forge/mujoco-feedstock/pull/75" xlink:title="mujoco ❎">
<ellipse fill="#31688e" stroke="black" cx="943.92" cy="-206" rx="62.26" ry="18"/>
<text text-anchor="middle" x="943.92" y="-201.33" font-family="Times,serif" font-size="14.00" fill="white">mujoco ❎</text>
</a>
</g>
</g>
<!-- fast&#45;dds&#45;&gt;mujoco -->
<!-- helios -->
<g id="node13" class="node">
<title>helios</title>
<g id="a_node13"><a xlink:href="https://github.com/conda-forge/helios-feedstock/pull/18" xlink:title="helios ❎">
<ellipse fill="#31688e" stroke="black" cx="943.92" cy="-134" rx="55.94" ry="18"/>
<text text-anchor="middle" x="943.92" y="-129.32" font-family="Times,serif" font-size="14.00" fill="white">helios ❎</text>
</a>
</g>
</g>
<!-- mujoco&#45;&gt;helios -->
<!-- gz&#45;common -->
<g id="node14" class="node">
<title>gz&#45;common</title>
<g id="a_node14"><a xlink:href="https://github.com/conda-forge/gz-common-feedstock/pull/58" xlink:title="gz common ❎">
<ellipse fill="#31688e" stroke="black" cx="602.92" cy="-386" rx="83.3" ry="18"/>
<text text-anchor="middle" x="602.92" y="-381.32" font-family="Times,serif" font-size="14.00" fill="white">gz common ❎</text>
</a>
</g>
</g>
<!-- gz&#45;fuel&#45;tools -->
<g id="node15" class="node">
<title>gz&#45;fuel&#45;tools</title>
<g id="a_node15"><a xlink:href="https://github.com/conda-forge/gz-fuel-tools-feedstock" xlink:title="gz fuel tools">
<ellipse fill="#fde725" stroke="black" cx="757.92" cy="-314" rx="72.25" ry="18"/>
<text text-anchor="middle" x="757.92" y="-309.32" font-family="Times,serif" font-size="14.00">gz fuel tools</text>
</a>
</g>
</g>
<!-- gz&#45;common&#45;&gt;gz&#45;fuel&#45;tools -->
<g id="edge18" class="edge">
<title>gz&#45;common&#45;&gt;gz&#45;fuel&#45;tools</title>
<path fill="none" stroke="black" d="M637.71,-369.29C660.18,-359.14 689.62,-345.85 713.74,-334.96"/>
<polygon fill="black" stroke="black" points="715,-338.22 722.67,-330.92 712.12,-331.84 715,-338.22"/>
</g>
<!-- gz&#45;gui -->
<g id="node16" class="node">
<title>gz&#45;gui</title>
<g id="a_node16"><a xlink:href="https://github.com/conda-forge/gz-gui-feedstock" xlink:title="gz gui">
<ellipse fill="#fde725" stroke="black" cx="625.92" cy="-314" rx="41.74" ry="18"/>
<text text-anchor="middle" x="625.92" y="-309.32" font-family="Times,serif" font-size="14.00">gz gui</text>
</a>
</g>
</g>
<!-- gz&#45;common&#45;&gt;gz&#45;gui -->
<g id="edge19" class="edge">
<title>gz&#45;common&#45;&gt;gz&#45;gui</title>
<path fill="none" stroke="black" d="M608.61,-367.7C611.06,-360.24 613.99,-351.32 616.73,-342.97"/>
<polygon fill="black" stroke="black" points="620.03,-344.14 619.83,-333.54 613.38,-341.95 620.03,-344.14"/>
</g>
<!-- gz&#45;sim -->
<g id="node17" class="node">
<title>gz&#45;sim</title>
<g id="a_node17"><a xlink:href="https://github.com/conda-forge/gz-sim-feedstock" xlink:title="gz sim">
<ellipse fill="#fde725" stroke="black" cx="697.92" cy="-242" rx="43.84" ry="18"/>
<text text-anchor="middle" x="697.92" y="-237.32" font-family="Times,serif" font-size="14.00">gz sim</text>
</a>
</g>
</g>
<!-- gz&#45;common&#45;&gt;gz&#45;sim -->
<g id="edge20" class="edge">
<title>gz&#45;common&#45;&gt;gz&#45;sim</title>
<path fill="none" stroke="black" d="M589.49,-368.06C576.3,-349.22 560.14,-318.46 574.92,-296 590.75,-271.95 620.04,-258.77 646.06,-251.56"/>
<polygon fill="black" stroke="black" points="646.65,-255.02 655.5,-249.2 644.95,-248.23 646.65,-255.02"/>
</g>
<!-- gz&#45;launch -->
<g id="node18" class="node">
<title>gz&#45;launch</title>
<g id="a_node18"><a xlink:href="https://github.com/conda-forge/gz-launch-feedstock" xlink:title="gz launch">
<ellipse fill="#fde725" stroke="black" cx="661.92" cy="-170" rx="59.1" ry="18"/>
<text text-anchor="middle" x="661.92" y="-165.32" font-family="Times,serif" font-size="14.00">gz launch</text>
</a>
</g>
</g>
<!-- gz&#45;common&#45;&gt;gz&#45;launch -->
<g id="edge21" class="edge">
<title>gz&#45;common&#45;&gt;gz&#45;launch</title>
<path fill="none" stroke="black" d="M586.46,-367.92C578.27,-358.22 569.22,-345.37 564.92,-332 560.03,-316.77 559.74,-311.14 564.92,-296 578.72,-255.73 611.36,-218.41 634.97,-195.22"/>
<polygon fill="black" stroke="black" points="637.31,-197.83 642.12,-188.39 632.47,-192.77 637.31,-197.83"/>
</g>
<!-- gz&#45;fuel&#45;tools&#45;&gt;gz&#45;sim -->
<g id="edge22" class="edge">
<title>gz&#45;fuel&#45;tools&#45;&gt;gz&#45;sim</title>
<path fill="none" stroke="black" d="M743.4,-296.05C736.15,-287.59 727.23,-277.19 719.22,-267.84"/>
<polygon fill="black" stroke="black" points="722.05,-265.77 712.89,-260.46 716.74,-270.33 722.05,-265.77"/>
</g>
<!-- gz&#45;gui&#45;&gt;gz&#45;sim -->
<g id="edge23" class="edge">
<title>gz&#45;gui&#45;&gt;gz&#45;sim</title>
<path fill="none" stroke="black" d="M642.26,-297.12C651.47,-288.17 663.15,-276.81 673.43,-266.81"/>
<polygon fill="black" stroke="black" points="675.83,-269.36 680.57,-259.88 670.96,-264.34 675.83,-269.36"/>
</g>
<!-- gz&#45;gui&#45;&gt;gz&#45;launch -->
<g id="edge24" class="edge">
<title>gz&#45;gui&#45;&gt;gz&#45;launch</title>
<path fill="none" stroke="black" d="M629.06,-295.82C632.48,-277.8 638.33,-248.73 644.92,-224 647.12,-215.75 649.83,-206.88 652.43,-198.8"/>
<polygon fill="black" stroke="black" points="655.69,-200.09 655.5,-189.49 649.04,-197.9 655.69,-200.09"/>
</g>
<!-- gz&#45;sim&#45;&gt;gz&#45;launch -->
<g id="edge25" class="edge">
<title>gz&#45;sim&#45;&gt;gz&#45;launch</title>
<path fill="none" stroke="black" d="M689.21,-224.05C685.24,-216.35 680.45,-207.03 676,-198.36"/>
<polygon fill="black" stroke="black" points="679.19,-196.91 671.5,-189.62 672.96,-200.11 679.19,-196.91"/>
</g>
<!-- gz&#45;msgs -->
<g id="node19" class="node">
<title>gz&#45;msgs</title>
<g id="a_node19"><a xlink:href="https://github.com/conda-forge/gz-msgs-feedstock" xlink:title="gz msgs">
<ellipse fill="#35b779" stroke="black" cx="780.92" cy="-386" rx="52.26" ry="18"/>
<text text-anchor="middle" x="780.92" y="-381.32" font-family="Times,serif" font-size="14.00">gz msgs</text>
</a>
</g>
</g>
<!-- gz&#45;msgs&#45;&gt;gz&#45;fuel&#45;tools -->
<g id="edge26" class="edge">
<title>gz&#45;msgs&#45;&gt;gz&#45;fuel&#45;tools</title>
<path fill="none" stroke="black" d="M775.24,-367.7C772.79,-360.24 769.86,-351.32 767.11,-342.97"/>
<polygon fill="black" stroke="black" points="770.46,-341.95 764.02,-333.54 763.81,-344.14 770.46,-341.95"/>
</g>
<!-- gz&#45;msgs&#45;&gt;gz&#45;gui -->
<g id="edge27" class="edge">
<title>gz&#45;msgs&#45;&gt;gz&#45;gui</title>
<path fill="none" stroke="black" d="M750.3,-371.17C725.72,-360.07 691.06,-344.42 664.57,-332.45"/>
<polygon fill="black" stroke="black" points="666.07,-329.29 655.51,-328.36 663.19,-335.67 666.07,-329.29"/>
</g>
<!-- gz&#45;msgs&#45;&gt;gz&#45;sim -->
<g id="edge28" class="edge">
<title>gz&#45;msgs&#45;&gt;gz&#45;sim</title>
<path fill="none" stroke="black" d="M805.54,-369.82C818.06,-360.6 832.05,-347.6 838.92,-332 845.38,-317.36 848.03,-309.15 838.92,-296 819.43,-267.85 783,-254.63 752.05,-248.43"/>
<polygon fill="black" stroke="black" points="752.89,-245.03 742.43,-246.72 751.66,-251.92 752.89,-245.03"/>
</g>
<!-- gz&#45;msgs&#45;&gt;gz&#45;launch -->
<g id="edge29" class="edge">
<title>gz&#45;msgs&#45;&gt;gz&#45;launch</title>
<path fill="none" stroke="black" d="M812.54,-371.47C828.66,-362.75 846.76,-349.7 855.92,-332 863.28,-317.79 863.38,-310.16 855.92,-296 826.47,-240.09 759.68,-205.63 712.73,-187.4"/>
<polygon fill="black" stroke="black" points="714.16,-184.2 703.56,-183.97 711.7,-190.76 714.16,-184.2"/>
</g>
</g>
</svg>
