<?xml version="1.0" encoding="UTF-8" standalone="no"?>
<!DOCTYPE svg PUBLIC "-//W3C//DTD SVG 1.1//EN"
 "http://www.w3.org/Graphics/SVG/1.1/DTD/svg11.dtd">
<!-- Generated by graphviz version 12.2.1 (20250203.1708)
 -->
<!-- Pages: 1 -->
<svg width="850pt" height="276pt"
 viewBox="0.00 0.00 849.75 276.00" xmlns="http://www.w3.org/2000/svg" xmlns:xlink="http://www.w3.org/1999/xlink">
<g id="graph0" class="graph" transform="scale(1 1) rotate(0) translate(4 272)">
<polygon fill="white" stroke="none" points="-4,4 -4,-272 845.75,-272 845.75,4 -4,4"/>
<!-- cppcheck -->
<g id="node1" class="node">
<title>cppcheck</title>
<g id="a_node1"><a xlink:href="https://github.com/conda-forge/cppcheck-feedstock/pull/100" xlink:title="cppcheck ❎">
<ellipse fill="#31688e" stroke="black" cx="768.97" cy="-178" rx="72.78" ry="18"/>
<text text-anchor="middle" x="768.97" y="-173.32" font-family="Times,serif" font-size="14.00" fill="white">cppcheck ❎</text>
</a>
</g>
</g>
<!-- gazebo -->
<g id="node2" class="node">
<title>gazebo</title>
<g id="a_node2"><a xlink:href="https://github.com/conda-forge/gazebo-feedstock/pull/238" xlink:title="gazebo ❎">
<ellipse fill="#31688e" stroke="black" cx="768.97" cy="-62" rx="61.73" ry="18"/>
<text text-anchor="middle" x="768.97" y="-57.33" font-family="Times,serif" font-size="14.00" fill="white">gazebo ❎</text>
</a>
</g>
</g>
<!-- libignition&#45;fuel&#45;tools -->
<g id="node3" class="node">
<title>libignition&#45;fuel&#45;tools</title>
<g id="a_node3"><a xlink:href="https://github.com/conda-forge/libignition-fuel-tools-feedstock/pull/104" xlink:title="libignition fuel tools ❎">
<ellipse fill="#31688e" stroke="black" cx="126.97" cy="-250" rx="126.97" ry="18"/>
<text text-anchor="middle" x="126.97" y="-245.32" font-family="Times,serif" font-size="14.00" fill="white">libignition fuel tools ❎</text>
</a>
</g>
</g>
<!-- libignition&#45;gazebo -->
<g id="node6" class="node">
<title>libignition&#45;gazebo</title>
<g id="a_node6"><a xlink:href="https://github.com/conda-forge/libignition-gazebo-feedstock" xlink:title="libignition gazebo">
<ellipse fill="#fde725" stroke="black" cx="223.97" cy="-178" rx="100.66" ry="18"/>
<text text-anchor="middle" x="223.97" y="-173.32" font-family="Times,serif" font-size="14.00">libignition gazebo</text>
</a>
</g>
</g>
<!-- libignition&#45;fuel&#45;tools&#45;&gt;libignition&#45;gazebo -->
<g id="edge1" class="edge">
<title>libignition&#45;fuel&#45;tools&#45;&gt;libignition&#45;gazebo</title>
<path fill="none" stroke="black" d="M150.45,-232.05C162.84,-223.11 178.23,-212.01 191.73,-202.27"/>
<polygon fill="black" stroke="black" points="193.41,-205.36 199.48,-196.67 189.32,-199.69 193.41,-205.36"/>
</g>
<!-- fast&#45;dds -->
<g id="node4" class="node">
<title>fast&#45;dds</title>
<g id="a_node4"><a xlink:href="https://github.com/conda-forge/fast-dds-feedstock/pull/17" xlink:title="fast dds ❎">
<ellipse fill="#31688e" stroke="black" cx="216.97" cy="-62" rx="66.47" ry="18"/>
<text text-anchor="middle" x="216.97" y="-57.33" font-family="Times,serif" font-size="14.00" fill="white">fast dds ❎</text>
</a>
</g>
</g>
<!-- libignition&#45;gui -->
<g id="node5" class="node">
<title>libignition&#45;gui</title>
<g id="a_node5"><a xlink:href="https://github.com/conda-forge/libignition-gui-feedstock" xlink:title="libignition gui">
<ellipse fill="#ff8c00" stroke="black" cx="352.97" cy="-250" rx="81.2" ry="18"/>
<text text-anchor="middle" x="352.97" y="-245.32" font-family="Times,serif" font-size="14.00">libignition gui</text>
</a>
</g>
</g>
<!-- libignition&#45;gui&#45;&gt;libignition&#45;gazebo -->
<g id="edge2" class="edge">
<title>libignition&#45;gui&#45;&gt;libignition&#45;gazebo</title>
<path fill="none" stroke="black" d="M323.37,-232.94C305.84,-223.43 283.39,-211.25 264.26,-200.87"/>
<polygon fill="black" stroke="black" points="266.11,-197.89 255.65,-196.19 262.77,-204.04 266.11,-197.89"/>
</g>
<!-- libignition&#45;launch -->
<g id="node7" class="node">
<title>libignition&#45;launch</title>
<g id="a_node7"><a xlink:href="https://github.com/conda-forge/libignition-launch-feedstock" xlink:title="libignition launch">
<ellipse fill="#fde725" stroke="black" cx="287.97" cy="-106" rx="98.56" ry="18"/>
<text text-anchor="middle" x="287.97" y="-101.33" font-family="Times,serif" font-size="14.00">libignition launch</text>
</a>
</g>
</g>
<!-- libignition&#45;gui&#45;&gt;libignition&#45;launch -->
<g id="edge3" class="edge">
<title>libignition&#45;gui&#45;&gt;libignition&#45;launch</title>
<path fill="none" stroke="black" d="M351.85,-231.76C350.08,-213.19 345.53,-183.19 333.97,-160 329.02,-150.07 321.77,-140.5 314.48,-132.29"/>
<polygon fill="black" stroke="black" points="317.1,-129.96 307.7,-125.06 311.99,-134.75 317.1,-129.96"/>
</g>
<!-- libignition&#45;gazebo&#45;&gt;libignition&#45;launch -->
<g id="edge4" class="edge">
<title>libignition&#45;gazebo&#45;&gt;libignition&#45;launch</title>
<path fill="none" stroke="black" d="M239.46,-160.05C247.09,-151.71 256.43,-141.49 264.88,-132.25"/>
<polygon fill="black" stroke="black" points="267.43,-134.65 271.6,-124.91 262.27,-129.92 267.43,-134.65"/>
</g>
<!-- mujoco -->
<g id="node8" class="node">
<title>mujoco</title>
<g id="a_node8"><a xlink:href="https://github.com/conda-forge/mujoco-feedstock/pull/75" xlink:title="mujoco ❎">
<ellipse fill="#31688e" stroke="black" cx="564.97" cy="-62" rx="62.26" ry="18"/>
<text text-anchor="middle" x="564.97" y="-57.33" font-family="Times,serif" font-size="14.00" fill="white">mujoco ❎</text>
</a>
</g>
</g>
<!-- gz&#45;fuel&#45;tools -->
<g id="node9" class="node">
<title>gz&#45;fuel&#45;tools</title>
<g id="a_node9"><a xlink:href="https://github.com/conda-forge/gz-fuel-tools-feedstock" xlink:title="gz fuel tools">
<ellipse fill="#ff8c00" stroke="black" cx="513.97" cy="-250" rx="72.25" ry="18"/>
<text text-anchor="middle" x="513.97" y="-245.32" font-family="Times,serif" font-size="14.00">gz fuel tools</text>
</a>
</g>
</g>
<!-- gz&#45;sim -->
<g id="node11" class="node">
<title>gz&#45;sim</title>
<g id="a_node11"><a xlink:href="https://github.com/conda-forge/gz-sim-feedstock" xlink:title="gz sim">
<ellipse fill="#fde725" stroke="black" cx="573.97" cy="-178" rx="43.84" ry="18"/>
<text text-anchor="middle" x="573.97" y="-173.32" font-family="Times,serif" font-size="14.00">gz sim</text>
</a>
</g>
</g>
<!-- gz&#45;fuel&#45;tools&#45;&gt;gz&#45;sim -->
<g id="edge5" class="edge">
<title>gz&#45;fuel&#45;tools&#45;&gt;gz&#45;sim</title>
<path fill="none" stroke="black" d="M528.49,-232.05C535.75,-223.59 544.66,-213.19 552.67,-203.84"/>
<polygon fill="black" stroke="black" points="555.15,-206.33 559.01,-196.46 549.84,-201.77 555.15,-206.33"/>
</g>
<!-- gz&#45;gui -->
<g id="node10" class="node">
<title>gz&#45;gui</title>
<g id="a_node10"><a xlink:href="https://github.com/conda-forge/gz-gui-feedstock" xlink:title="gz gui">
<ellipse fill="#ff8c00" stroke="black" cx="645.97" cy="-250" rx="41.74" ry="18"/>
<text text-anchor="middle" x="645.97" y="-245.32" font-family="Times,serif" font-size="14.00">gz gui</text>
</a>
</g>
</g>
<!-- gz&#45;gui&#45;&gt;gz&#45;sim -->
<g id="edge7" class="edge">
<title>gz&#45;gui&#45;&gt;gz&#45;sim</title>
<path fill="none" stroke="black" d="M629.63,-233.12C620.42,-224.17 608.74,-212.81 598.46,-202.81"/>
<polygon fill="black" stroke="black" points="600.94,-200.34 591.33,-195.88 596.06,-205.36 600.94,-200.34"/>
</g>
<!-- gz&#45;launch -->
<g id="node12" class="node">
<title>gz&#45;launch</title>
<g id="a_node12"><a xlink:href="https://github.com/conda-forge/gz-launch-feedstock" xlink:title="gz launch">
<ellipse fill="#fde725" stroke="black" cx="609.97" cy="-106" rx="59.1" ry="18"/>
<text text-anchor="middle" x="609.97" y="-101.33" font-family="Times,serif" font-size="14.00">gz launch</text>
</a>
</g>
</g>
<!-- gz&#45;gui&#45;&gt;gz&#45;launch -->
<g id="edge6" class="edge">
<title>gz&#45;gui&#45;&gt;gz&#45;launch</title>
<path fill="none" stroke="black" d="M642.83,-231.82C639.42,-213.8 633.56,-184.73 626.97,-160 624.77,-151.75 622.06,-142.88 619.46,-134.8"/>
<polygon fill="black" stroke="black" points="622.85,-133.9 616.39,-125.49 616.2,-136.09 622.85,-133.9"/>
</g>
<!-- gz&#45;sim&#45;&gt;gz&#45;launch -->
<g id="edge8" class="edge">
<title>gz&#45;sim&#45;&gt;gz&#45;launch</title>
<path fill="none" stroke="black" d="M582.68,-160.05C586.65,-152.35 591.44,-143.03 595.89,-134.36"/>
<polygon fill="black" stroke="black" points="598.93,-136.11 600.39,-125.62 592.71,-132.91 598.93,-136.11"/>
</g>
<!-- helios -->
<g id="node13" class="node">
<title>helios</title>
<g id="a_node13"><a xlink:href="https://github.com/conda-forge/helios-feedstock/pull/18" xlink:title="helios ❎">
<ellipse fill="#31688e" stroke="black" cx="216.97" cy="-18" rx="55.94" ry="18"/>
<text text-anchor="middle" x="216.97" y="-13.32" font-family="Times,serif" font-size="14.00" fill="white">helios ❎</text>
</a>
</g>
</g>
</g>
</svg>
