<?xml version="1.0" encoding="UTF-8" standalone="no"?>
<!DOCTYPE svg PUBLIC "-//W3C//DTD SVG 1.1//EN"
 "http://www.w3.org/Graphics/SVG/1.1/DTD/svg11.dtd">
<!-- Generated by graphviz version 12.2.1 (20250203.1708)
 -->
<!-- Pages: 1 -->
<svg width="1388pt" height="476pt"
 viewBox="0.00 0.00 1388.08 476.00" xmlns="http://www.w3.org/2000/svg" xmlns:xlink="http://www.w3.org/1999/xlink">
<g id="graph0" class="graph" transform="scale(1 1) rotate(0) translate(4 472)">
<polygon fill="white" stroke="none" points="-4,4 -4,-472 1384.08,-472 1384.08,4 -4,4"/>
<!-- casadi -->
<g id="node1" class="node">
<title>casadi</title>
<g id="a_node1"><a xlink:href="https://github.com/conda-forge/casadi-feedstock/pull/135" xlink:title="casadi ✓">
<ellipse fill="#31688e" stroke="black" cx="1291.52" cy="-450" rx="50.68" ry="18"/>
<text text-anchor="middle" x="1291.52" y="-445.32" font-family="Times,serif" font-size="14.00" fill="white">casadi ✓</text>
</a>
</g>
</g>
<!-- cppcheck -->
<g id="node2" class="node">
<title>cppcheck</title>
<g id="a_node2"><a xlink:href="https://github.com/conda-forge/cppcheck-feedstock/pull/100" xlink:title="cppcheck ❎">
<ellipse fill="#31688e" stroke="black" cx="1291.52" cy="-378" rx="72.78" ry="18"/>
<text text-anchor="middle" x="1291.52" y="-373.32" font-family="Times,serif" font-size="14.00" fill="white">cppcheck ❎</text>
</a>
</g>
</g>
<!-- casadi&#45;&gt;cppcheck -->
<!-- libmediainfo -->
<g id="node3" class="node">
<title>libmediainfo</title>
<g id="a_node3"><a xlink:href="https://github.com/conda-forge/libmediainfo-feedstock/pull/37" xlink:title="libmediainfo ❎">
<ellipse fill="#31688e" stroke="black" cx="1291.52" cy="-306" rx="88.56" ry="18"/>
<text text-anchor="middle" x="1291.52" y="-301.32" font-family="Times,serif" font-size="14.00" fill="white">libmediainfo ❎</text>
</a>
</g>
</g>
<!-- cppcheck&#45;&gt;libmediainfo -->
<!-- hpp&#45;util -->
<g id="node16" class="node">
<title>hpp&#45;util</title>
<g id="a_node16"><a xlink:href="https://github.com/conda-forge/hpp-util-feedstock/pull/21" xlink:title="hpp util ✓">
<ellipse fill="#31688e" stroke="black" cx="1291.52" cy="-234" rx="58.05" ry="18"/>
<text text-anchor="middle" x="1291.52" y="-229.32" font-family="Times,serif" font-size="14.00" fill="white">hpp util ✓</text>
</a>
</g>
</g>
<!-- libmediainfo&#45;&gt;hpp&#45;util -->
<!-- urdfdom -->
<g id="node4" class="node">
<title>urdfdom</title>
<g id="a_node4"><a xlink:href="https://github.com/conda-forge/urdfdom-feedstock/pull/37" xlink:title="urdfdom ✓">
<ellipse fill="#31688e" stroke="black" cx="598.52" cy="-342" rx="61.73" ry="18"/>
<text text-anchor="middle" x="598.52" y="-337.32" font-family="Times,serif" font-size="14.00" fill="white">urdfdom ✓</text>
</a>
</g>
</g>
<!-- libsdformat -->
<g id="node5" class="node">
<title>libsdformat</title>
<g id="a_node5"><a xlink:href="https://github.com/conda-forge/libsdformat-feedstock" xlink:title="libsdformat">
<ellipse fill="#fde725" stroke="black" cx="461.52" cy="-270" rx="69.1" ry="18"/>
<text text-anchor="middle" x="461.52" y="-265.32" font-family="Times,serif" font-size="14.00">libsdformat</text>
</a>
</g>
</g>
<!-- urdfdom&#45;&gt;libsdformat -->
<g id="edge3" class="edge">
<title>urdfdom&#45;&gt;libsdformat</title>
<path fill="none" stroke="black" d="M568.79,-325.81C549.18,-315.79 523.24,-302.54 501.79,-291.57"/>
<polygon fill="black" stroke="black" points="503.51,-288.52 493.01,-287.09 500.32,-294.76 503.51,-288.52"/>
</g>
<!-- gazebo -->
<g id="node6" class="node">
<title>gazebo</title>
<g id="a_node6"><a xlink:href="https://github.com/conda-forge/gazebo-feedstock" xlink:title="gazebo">
<ellipse fill="#fde725" stroke="black" cx="598.52" cy="-198" rx="46.47" ry="18"/>
<text text-anchor="middle" x="598.52" y="-193.32" font-family="Times,serif" font-size="14.00">gazebo</text>
</a>
</g>
</g>
<!-- urdfdom&#45;&gt;gazebo -->
<g id="edge4" class="edge">
<title>urdfdom&#45;&gt;gazebo</title>
<path fill="none" stroke="black" d="M624.47,-325.25C636.96,-316.1 650.68,-303.34 657.52,-288 664.03,-273.39 664.03,-266.61 657.52,-252 652.01,-239.65 642.04,-228.97 631.85,-220.5"/>
<polygon fill="black" stroke="black" points="634.2,-217.89 624.14,-214.57 629.93,-223.44 634.2,-217.89"/>
</g>
<!-- dartsim -->
<g id="node7" class="node">
<title>dartsim</title>
<g id="a_node7"><a xlink:href="https://github.com/conda-forge/dartsim-feedstock" xlink:title="dartsim">
<ellipse fill="#fde725" stroke="black" cx="598.52" cy="-270" rx="50.16" ry="18"/>
<text text-anchor="middle" x="598.52" y="-265.32" font-family="Times,serif" font-size="14.00">dartsim</text>
</a>
</g>
</g>
<!-- urdfdom&#45;&gt;dartsim -->
<g id="edge5" class="edge">
<title>urdfdom&#45;&gt;dartsim</title>
<path fill="none" stroke="black" d="M598.52,-323.7C598.52,-316.41 598.52,-307.73 598.52,-299.54"/>
<polygon fill="black" stroke="black" points="602.02,-299.62 598.52,-289.62 595.02,-299.62 602.02,-299.62"/>
</g>
<!-- libsdformat&#45;&gt;gazebo -->
<g id="edge6" class="edge">
<title>libsdformat&#45;&gt;gazebo</title>
<path fill="none" stroke="black" d="M491.92,-253.46C512.38,-243.01 539.49,-229.16 561.25,-218.04"/>
<polygon fill="black" stroke="black" points="562.79,-221.19 570.1,-213.52 559.6,-214.95 562.79,-221.19"/>
</g>
<!-- gz&#45;sim -->
<g id="node8" class="node">
<title>gz&#45;sim</title>
<g id="a_node8"><a xlink:href="https://github.com/conda-forge/gz-sim-feedstock" xlink:title="gz sim">
<ellipse fill="#fde725" stroke="black" cx="226.52" cy="-198" rx="43.84" ry="18"/>
<text text-anchor="middle" x="226.52" y="-193.32" font-family="Times,serif" font-size="14.00">gz sim</text>
</a>
</g>
</g>
<!-- libsdformat&#45;&gt;gz&#45;sim -->
<g id="edge7" class="edge">
<title>libsdformat&#45;&gt;gz&#45;sim</title>
<path fill="none" stroke="black" d="M417.32,-255.83C375.91,-243.5 314.28,-225.14 272.35,-212.65"/>
<polygon fill="black" stroke="black" points="273.38,-209.31 262.79,-209.81 271.38,-216.01 273.38,-209.31"/>
</g>
<!-- gz&#45;launch -->
<g id="node9" class="node">
<title>gz&#45;launch</title>
<g id="a_node9"><a xlink:href="https://github.com/conda-forge/gz-launch-feedstock" xlink:title="gz launch">
<ellipse fill="#fde725" stroke="black" cx="226.52" cy="-126" rx="59.1" ry="18"/>
<text text-anchor="middle" x="226.52" y="-121.33" font-family="Times,serif" font-size="14.00">gz launch</text>
</a>
</g>
</g>
<!-- libsdformat&#45;&gt;gz&#45;launch -->
<g id="edge8" class="edge">
<title>libsdformat&#45;&gt;gz&#45;launch</title>
<path fill="none" stroke="black" d="M449.64,-251.91C435.02,-232.04 408.43,-199.5 378.52,-180 350.08,-161.45 314.4,-148.58 284.76,-140.16"/>
<polygon fill="black" stroke="black" points="285.76,-136.8 275.19,-137.55 283.91,-143.56 285.76,-136.8"/>
</g>
<!-- dartsim&#45;&gt;gazebo -->
<g id="edge9" class="edge">
<title>dartsim&#45;&gt;gazebo</title>
<path fill="none" stroke="black" d="M598.52,-251.7C598.52,-244.41 598.52,-235.73 598.52,-227.54"/>
<polygon fill="black" stroke="black" points="602.02,-227.62 598.52,-217.62 595.02,-227.62 602.02,-227.62"/>
</g>
<!-- gz&#45;sim&#45;&gt;gz&#45;launch -->
<g id="edge18" class="edge">
<title>gz&#45;sim&#45;&gt;gz&#45;launch</title>
<path fill="none" stroke="black" d="M226.52,-179.7C226.52,-172.41 226.52,-163.73 226.52,-155.54"/>
<polygon fill="black" stroke="black" points="230.02,-155.62 226.52,-145.62 223.02,-155.62 230.02,-155.62"/>
</g>
<!-- libignition&#45;msgs1 -->
<g id="node10" class="node">
<title>libignition&#45;msgs1</title>
<g id="a_node10"><a xlink:href="https://github.com/conda-forge/libignition-msgs1-feedstock/pull/116" xlink:title="libignition msgs1 ❎">
<ellipse fill="#31688e" stroke="black" cx="784.52" cy="-342" rx="113.29" ry="18"/>
<text text-anchor="middle" x="784.52" y="-337.32" font-family="Times,serif" font-size="14.00" fill="white">libignition msgs1 ❎</text>
</a>
</g>
</g>
<!-- libignition&#45;fuel&#45;tools -->
<g id="node11" class="node">
<title>libignition&#45;fuel&#45;tools</title>
<g id="a_node11"><a xlink:href="https://github.com/conda-forge/libignition-fuel-tools-feedstock" xlink:title="libignition fuel tools">
<ellipse fill="#fde725" stroke="black" cx="1033.52" cy="-270" rx="111.71" ry="18"/>
<text text-anchor="middle" x="1033.52" y="-265.32" font-family="Times,serif" font-size="14.00">libignition fuel tools</text>
</a>
</g>
</g>
<!-- libignition&#45;msgs1&#45;&gt;libignition&#45;fuel&#45;tools -->
<g id="edge10" class="edge">
<title>libignition&#45;msgs1&#45;&gt;libignition&#45;fuel&#45;tools</title>
<path fill="none" stroke="black" d="M838.55,-325.81C876.81,-315.06 928.3,-300.58 968.76,-289.2"/>
<polygon fill="black" stroke="black" points="969.46,-292.64 978.14,-286.57 967.56,-285.91 969.46,-292.64"/>
</g>
<!-- libignition&#45;gui -->
<g id="node12" class="node">
<title>libignition&#45;gui</title>
<g id="a_node12"><a xlink:href="https://github.com/conda-forge/libignition-gui-feedstock" xlink:title="libignition gui">
<ellipse fill="#fde725" stroke="black" cx="822.52" cy="-270" rx="81.2" ry="18"/>
<text text-anchor="middle" x="822.52" y="-265.32" font-family="Times,serif" font-size="14.00">libignition gui</text>
</a>
</g>
</g>
<!-- libignition&#45;msgs1&#45;&gt;libignition&#45;gui -->
<g id="edge11" class="edge">
<title>libignition&#45;msgs1&#45;&gt;libignition&#45;gui</title>
<path fill="none" stroke="black" d="M793.91,-323.7C798.1,-315.98 803.13,-306.71 807.8,-298.11"/>
<polygon fill="black" stroke="black" points="810.82,-299.89 812.51,-289.43 804.66,-296.55 810.82,-299.89"/>
</g>
<!-- libignition&#45;gazebo -->
<g id="node13" class="node">
<title>libignition&#45;gazebo</title>
<g id="a_node13"><a xlink:href="https://github.com/conda-forge/libignition-gazebo-feedstock" xlink:title="libignition gazebo">
<ellipse fill="#fde725" stroke="black" cx="951.52" cy="-198" rx="100.66" ry="18"/>
<text text-anchor="middle" x="951.52" y="-193.32" font-family="Times,serif" font-size="14.00">libignition gazebo</text>
</a>
</g>
</g>
<!-- libignition&#45;msgs1&#45;&gt;libignition&#45;gazebo -->
<g id="edge12" class="edge">
<title>libignition&#45;msgs1&#45;&gt;libignition&#45;gazebo</title>
<path fill="none" stroke="black" d="M762.56,-324.05C741.14,-305.47 714.26,-275.21 732.52,-252 748.35,-231.88 805.25,-218.48 857.08,-210.19"/>
<polygon fill="black" stroke="black" points="857.54,-213.66 866.89,-208.67 856.47,-206.74 857.54,-213.66"/>
</g>
<!-- libignition&#45;launch -->
<g id="node14" class="node">
<title>libignition&#45;launch</title>
<g id="a_node14"><a xlink:href="https://github.com/conda-forge/libignition-launch-feedstock" xlink:title="libignition launch">
<ellipse fill="#fde725" stroke="black" cx="886.52" cy="-126" rx="98.56" ry="18"/>
<text text-anchor="middle" x="886.52" y="-121.33" font-family="Times,serif" font-size="14.00">libignition launch</text>
</a>
</g>
</g>
<!-- libignition&#45;msgs1&#45;&gt;libignition&#45;launch -->
<g id="edge13" class="edge">
<title>libignition&#45;msgs1&#45;&gt;libignition&#45;launch</title>
<path fill="none" stroke="black" d="M755.34,-324.17C742.77,-315.2 729.39,-302.92 722.52,-288 715.82,-273.47 715.42,-266.34 722.52,-252 746.58,-203.41 799.58,-168.56 838.85,-148.2"/>
<polygon fill="black" stroke="black" points="840.3,-151.39 847.67,-143.77 837.16,-145.13 840.3,-151.39"/>
</g>
<!-- libignition&#45;fuel&#45;tools&#45;&gt;libignition&#45;gazebo -->
<g id="edge14" class="edge">
<title>libignition&#45;fuel&#45;tools&#45;&gt;libignition&#45;gazebo</title>
<path fill="none" stroke="black" d="M1013.67,-252.05C1003.57,-243.43 991.11,-232.8 980.01,-223.32"/>
<polygon fill="black" stroke="black" points="982.5,-220.84 972.62,-217.01 977.95,-226.17 982.5,-220.84"/>
</g>
<!-- libignition&#45;gui&#45;&gt;libignition&#45;gazebo -->
<g id="edge15" class="edge">
<title>libignition&#45;gui&#45;&gt;libignition&#45;gazebo</title>
<path fill="none" stroke="black" d="M852.11,-252.94C869.64,-243.43 892.09,-231.25 911.22,-220.87"/>
<polygon fill="black" stroke="black" points="912.71,-224.04 919.83,-216.19 909.38,-217.89 912.71,-224.04"/>
</g>
<!-- libignition&#45;gui&#45;&gt;libignition&#45;launch -->
<g id="edge16" class="edge">
<title>libignition&#45;gui&#45;&gt;libignition&#45;launch</title>
<path fill="none" stroke="black" d="M823.68,-251.79C825.5,-233.24 830.08,-203.25 841.52,-180 846.37,-170.14 853.46,-160.58 860.59,-152.37"/>
<polygon fill="black" stroke="black" points="863.04,-154.88 867.21,-145.15 857.87,-150.15 863.04,-154.88"/>
</g>
<!-- libignition&#45;gazebo&#45;&gt;libignition&#45;launch -->
<g id="edge17" class="edge">
<title>libignition&#45;gazebo&#45;&gt;libignition&#45;launch</title>
<path fill="none" stroke="black" d="M935.78,-180.05C927.96,-171.63 918.35,-161.28 909.7,-151.97"/>
<polygon fill="black" stroke="black" points="912.51,-149.84 903.14,-144.9 907.38,-154.61 912.51,-149.84"/>
</g>
<!-- libignition&#45;common -->
<g id="node15" class="node">
<title>libignition&#45;common</title>
<g id="a_node15"><a xlink:href="https://github.com/conda-forge/libignition-common-feedstock/pull/69" xlink:title="libignition common ❎">
<ellipse fill="#31688e" stroke="black" cx="1071.52" cy="-342" rx="122.76" ry="18"/>
<text text-anchor="middle" x="1071.52" y="-337.32" font-family="Times,serif" font-size="14.00" fill="white">libignition common ❎</text>
</a>
</g>
</g>
<!-- libignition&#45;common&#45;&gt;libignition&#45;fuel&#45;tools -->
<g id="edge19" class="edge">
<title>libignition&#45;common&#45;&gt;libignition&#45;fuel&#45;tools</title>
<path fill="none" stroke="black" d="M1062.12,-323.7C1057.94,-315.98 1052.9,-306.71 1048.24,-298.11"/>
<polygon fill="black" stroke="black" points="1051.37,-296.55 1043.53,-289.43 1045.22,-299.89 1051.37,-296.55"/>
</g>
<!-- libignition&#45;common&#45;&gt;libignition&#45;gui -->
<g id="edge20" class="edge">
<title>libignition&#45;common&#45;&gt;libignition&#45;gui</title>
<path fill="none" stroke="black" d="M1016.26,-325.46C976.49,-314.29 922.9,-299.22 882.17,-287.77"/>
<polygon fill="black" stroke="black" points="883.34,-284.46 872.77,-285.13 881.45,-291.2 883.34,-284.46"/>
</g>
<!-- libignition&#45;common&#45;&gt;libignition&#45;gazebo -->
<g id="edge21" class="edge">
<title>libignition&#45;common&#45;&gt;libignition&#45;gazebo</title>
<path fill="none" stroke="black" d="M1113.33,-324.81C1129.19,-316.38 1145.56,-304.34 1154.52,-288 1162.21,-273.97 1164.3,-264.66 1154.52,-252 1140.19,-233.45 1088.97,-220.16 1041.57,-211.53"/>
<polygon fill="black" stroke="black" points="1042.21,-208.08 1031.76,-209.8 1041,-214.98 1042.21,-208.08"/>
</g>
<!-- libignition&#45;common&#45;&gt;libignition&#45;launch -->
<g id="edge22" class="edge">
<title>libignition&#45;common&#45;&gt;libignition&#45;launch</title>
<path fill="none" stroke="black" d="M1124.8,-325.42C1142.86,-317.31 1161.08,-305.34 1171.52,-288 1179.77,-274.29 1179.13,-266.07 1171.52,-252 1134.34,-183.23 1048.14,-152.27 980.21,-138.34"/>
<polygon fill="black" stroke="black" points="981.02,-134.93 970.53,-136.46 979.68,-141.8 981.02,-134.93"/>
</g>
<!-- fast&#45;dds -->
<g id="node17" class="node">
<title>fast&#45;dds</title>
<g id="a_node17"><a xlink:href="https://github.com/conda-forge/fast-dds-feedstock/pull/17" xlink:title="fast dds ❎">
<ellipse fill="#31688e" stroke="black" cx="1291.52" cy="-162" rx="66.47" ry="18"/>
<text text-anchor="middle" x="1291.52" y="-157.32" font-family="Times,serif" font-size="14.00" fill="white">fast dds ❎</text>
</a>
</g>
</g>
<!-- hpp&#45;util&#45;&gt;fast&#45;dds -->
<!-- mujoco -->
<g id="node18" class="node">
<title>mujoco</title>
<g id="a_node18"><a xlink:href="https://github.com/conda-forge/mujoco-feedstock/pull/75" xlink:title="mujoco ❎">
<ellipse fill="#31688e" stroke="black" cx="1291.52" cy="-90" rx="62.26" ry="18"/>
<text text-anchor="middle" x="1291.52" y="-85.33" font-family="Times,serif" font-size="14.00" fill="white">mujoco ❎</text>
</a>
</g>
</g>
<!-- fast&#45;dds&#45;&gt;mujoco -->
<!-- helios -->
<g id="node19" class="node">
<title>helios</title>
<g id="a_node19"><a xlink:href="https://github.com/conda-forge/helios-feedstock/pull/18" xlink:title="helios ❎">
<ellipse fill="#31688e" stroke="black" cx="1291.52" cy="-18" rx="55.94" ry="18"/>
<text text-anchor="middle" x="1291.52" y="-13.32" font-family="Times,serif" font-size="14.00" fill="white">helios ❎</text>
</a>
</g>
</g>
<!-- mujoco&#45;&gt;helios -->
<!-- gz&#45;common -->
<g id="node20" class="node">
<title>gz&#45;common</title>
<g id="a_node20"><a xlink:href="https://github.com/conda-forge/gz-common-feedstock/pull/58" xlink:title="gz common ❎">
<ellipse fill="#31688e" stroke="black" cx="252.52" cy="-342" rx="83.3" ry="18"/>
<text text-anchor="middle" x="252.52" y="-337.32" font-family="Times,serif" font-size="14.00" fill="white">gz common ❎</text>
</a>
</g>
</g>
<!-- gz&#45;common&#45;&gt;gz&#45;sim -->
<g id="edge27" class="edge">
<title>gz&#45;common&#45;&gt;gz&#45;sim</title>
<path fill="none" stroke="black" d="M277.32,-324.42C288.82,-315.21 301.29,-302.64 307.52,-288 313.78,-273.28 315.13,-266.07 307.52,-252 298.93,-236.11 283.28,-224.23 268.01,-215.78"/>
<polygon fill="black" stroke="black" points="269.95,-212.84 259.45,-211.41 266.76,-219.07 269.95,-212.84"/>
</g>
<!-- gz&#45;common&#45;&gt;gz&#45;launch -->
<g id="edge28" class="edge">
<title>gz&#45;common&#45;&gt;gz&#45;launch</title>
<path fill="none" stroke="black" d="M286.28,-325.2C300.85,-316.46 316.39,-304.07 324.52,-288 331.74,-273.72 328.93,-267.38 324.52,-252 312.69,-210.74 279.01,-173.45 254.43,-150.55"/>
<polygon fill="black" stroke="black" points="257.05,-148.2 247.29,-144.08 252.36,-153.38 257.05,-148.2"/>
</g>
<!-- gz&#45;fuel&#45;tools -->
<g id="node21" class="node">
<title>gz&#45;fuel&#45;tools</title>
<g id="a_node21"><a xlink:href="https://github.com/conda-forge/gz-fuel-tools-feedstock" xlink:title="gz fuel tools">
<ellipse fill="#fde725" stroke="black" cx="226.52" cy="-270" rx="72.25" ry="18"/>
<text text-anchor="middle" x="226.52" y="-265.32" font-family="Times,serif" font-size="14.00">gz fuel tools</text>
</a>
</g>
</g>
<!-- gz&#45;common&#45;&gt;gz&#45;fuel&#45;tools -->
<g id="edge29" class="edge">
<title>gz&#45;common&#45;&gt;gz&#45;fuel&#45;tools</title>
<path fill="none" stroke="black" d="M246.09,-323.7C243.29,-316.15 239.93,-307.12 236.8,-298.68"/>
<polygon fill="black" stroke="black" points="240.16,-297.68 233.4,-289.52 233.6,-300.12 240.16,-297.68"/>
</g>
<!-- gz&#45;gui -->
<g id="node22" class="node">
<title>gz&#45;gui</title>
<g id="a_node22"><a xlink:href="https://github.com/conda-forge/gz-gui-feedstock" xlink:title="gz gui">
<ellipse fill="#fde725" stroke="black" cx="94.52" cy="-270" rx="41.74" ry="18"/>
<text text-anchor="middle" x="94.52" y="-265.32" font-family="Times,serif" font-size="14.00">gz gui</text>
</a>
</g>
</g>
<!-- gz&#45;common&#45;&gt;gz&#45;gui -->
<g id="edge30" class="edge">
<title>gz&#45;common&#45;&gt;gz&#45;gui</title>
<path fill="none" stroke="black" d="M217.06,-325.29C192.22,-314.29 159.03,-299.58 133.46,-288.25"/>
<polygon fill="black" stroke="black" points="134.95,-285.09 124.39,-284.24 132.12,-291.49 134.95,-285.09"/>
</g>
<!-- gz&#45;fuel&#45;tools&#45;&gt;gz&#45;sim -->
<g id="edge31" class="edge">
<title>gz&#45;fuel&#45;tools&#45;&gt;gz&#45;sim</title>
<path fill="none" stroke="black" d="M226.52,-251.7C226.52,-244.41 226.52,-235.73 226.52,-227.54"/>
<polygon fill="black" stroke="black" points="230.02,-227.62 226.52,-217.62 223.02,-227.62 230.02,-227.62"/>
</g>
<!-- gz&#45;gui&#45;&gt;gz&#45;sim -->
<g id="edge32" class="edge">
<title>gz&#45;gui&#45;&gt;gz&#45;sim</title>
<path fill="none" stroke="black" d="M119.97,-255.5C140.02,-244.87 168.22,-229.92 190.57,-218.06"/>
<polygon fill="black" stroke="black" points="192.16,-221.18 199.36,-213.4 188.88,-215 192.16,-221.18"/>
</g>
<!-- gz&#45;gui&#45;&gt;gz&#45;launch -->
<g id="edge33" class="edge">
<title>gz&#45;gui&#45;&gt;gz&#45;launch</title>
<path fill="none" stroke="black" d="M108.51,-252.66C124.08,-234.61 150.14,-204.81 173.52,-180 182.44,-170.53 192.49,-160.36 201.41,-151.5"/>
<polygon fill="black" stroke="black" points="203.82,-154.04 208.47,-144.52 198.9,-149.06 203.82,-154.04"/>
</g>
<!-- gz&#45;msgs -->
<g id="node23" class="node">
<title>gz&#45;msgs</title>
<g id="a_node23"><a xlink:href="https://github.com/conda-forge/gz-msgs-feedstock/pull/63" xlink:title="gz msgs ❎">
<ellipse fill="#31688e" stroke="black" cx="67.52" cy="-342" rx="67.52" ry="18"/>
<text text-anchor="middle" x="67.52" y="-337.32" font-family="Times,serif" font-size="14.00" fill="white">gz msgs ❎</text>
</a>
</g>
</g>
<!-- gz&#45;msgs&#45;&gt;gz&#45;sim -->
<g id="edge34" class="edge">
<title>gz&#45;msgs&#45;&gt;gz&#45;sim</title>
<path fill="none" stroke="black" d="M55.01,-323.96C42.57,-304.73 27.46,-273.37 43.52,-252 59.34,-230.95 126.28,-215.58 174.63,-206.97"/>
<polygon fill="black" stroke="black" points="175.11,-210.44 184.37,-205.29 173.92,-203.54 175.11,-210.44"/>
</g>
<!-- gz&#45;msgs&#45;&gt;gz&#45;launch -->
<g id="edge35" class="edge">
<title>gz&#45;msgs&#45;&gt;gz&#45;launch</title>
<path fill="none" stroke="black" d="M52.27,-324.1C37.72,-305.82 19.77,-276.06 32.52,-252 62.09,-196.16 128.86,-161.68 175.77,-143.43"/>
<polygon fill="black" stroke="black" points="176.79,-146.79 184.92,-140 174.33,-140.23 176.79,-146.79"/>
</g>
<!-- gz&#45;msgs&#45;&gt;gz&#45;fuel&#45;tools -->
<g id="edge36" class="edge">
<title>gz&#45;msgs&#45;&gt;gz&#45;fuel&#45;tools</title>
<path fill="none" stroke="black" d="M101.24,-326.15C124.61,-315.87 155.99,-302.05 181.49,-290.82"/>
<polygon fill="black" stroke="black" points="182.9,-294.03 190.64,-286.8 180.08,-287.62 182.9,-294.03"/>
</g>
<!-- gz&#45;msgs&#45;&gt;gz&#45;gui -->
<g id="edge37" class="edge">
<title>gz&#45;msgs&#45;&gt;gz&#45;gui</title>
<path fill="none" stroke="black" d="M74.19,-323.7C77.1,-316.15 80.59,-307.12 83.84,-298.68"/>
<polygon fill="black" stroke="black" points="87.04,-300.11 87.38,-289.52 80.51,-297.59 87.04,-300.11"/>
</g>
</g>
</svg>
