<?xml version="1.0" encoding="UTF-8" standalone="no"?>
<!DOCTYPE svg PUBLIC "-//W3C//DTD SVG 1.1//EN"
 "http://www.w3.org/Graphics/SVG/1.1/DTD/svg11.dtd">
<!-- Generated by graphviz version 12.2.1 (20250203.1708)
 -->
<!-- Pages: 1 -->
<svg width="998pt" height="448pt"
 viewBox="0.00 0.00 998.49 448.00" xmlns="http://www.w3.org/2000/svg" xmlns:xlink="http://www.w3.org/1999/xlink">
<g id="graph0" class="graph" transform="scale(1 1) rotate(0) translate(4 444)">
<polygon fill="white" stroke="none" points="-4,4 -4,-444 994.49,-444 994.49,4 -4,4"/>
<!-- cppcheck -->
<g id="node1" class="node">
<title>cppcheck</title>
<g id="a_node1"><a xlink:href="https://github.com/conda-forge/cppcheck-feedstock/pull/100" xlink:title="cppcheck ❎">
<ellipse fill="#31688e" stroke="black" cx="917.71" cy="-422" rx="72.78" ry="18"/>
<text text-anchor="middle" x="917.71" y="-417.32" font-family="Times,serif" font-size="14.00" fill="white">cppcheck ❎</text>
</a>
</g>
</g>
<!-- hpp&#45;util -->
<g id="node2" class="node">
<title>hpp&#45;util</title>
<g id="a_node2"><a xlink:href="https://github.com/conda-forge/hpp-util-feedstock/pull/21" xlink:title="hpp util ✓">
<ellipse fill="#31688e" stroke="black" cx="917.71" cy="-350" rx="58.05" ry="18"/>
<text text-anchor="middle" x="917.71" y="-345.32" font-family="Times,serif" font-size="14.00" fill="white">hpp util ✓</text>
</a>
</g>
</g>
<!-- cppcheck&#45;&gt;hpp&#45;util -->
<!-- fast&#45;dds -->
<g id="node10" class="node">
<title>fast&#45;dds</title>
<g id="a_node10"><a xlink:href="https://github.com/conda-forge/fast-dds-feedstock/pull/17" xlink:title="fast dds ❎">
<ellipse fill="#31688e" stroke="black" cx="917.71" cy="-278" rx="66.47" ry="18"/>
<text text-anchor="middle" x="917.71" y="-273.32" font-family="Times,serif" font-size="14.00" fill="white">fast dds ❎</text>
</a>
</g>
</g>
<!-- hpp&#45;util&#45;&gt;fast&#45;dds -->
<!-- gazebo -->
<g id="node3" class="node">
<title>gazebo</title>
<g id="a_node3"><a xlink:href="https://github.com/conda-forge/gazebo-feedstock" xlink:title="gazebo">
<ellipse fill="#fde725" stroke="black" cx="240.71" cy="-18" rx="46.47" ry="18"/>
<text text-anchor="middle" x="240.71" y="-13.32" font-family="Times,serif" font-size="14.00">gazebo</text>
</a>
</g>
</g>
<!-- libignition&#45;common -->
<g id="node4" class="node">
<title>libignition&#45;common</title>
<g id="a_node4"><a xlink:href="https://github.com/conda-forge/libignition-common-feedstock/pull/69" xlink:title="libignition common ❎">
<ellipse fill="#31688e" stroke="black" cx="305.71" cy="-386" rx="122.76" ry="18"/>
<text text-anchor="middle" x="305.71" y="-381.32" font-family="Times,serif" font-size="14.00" fill="white">libignition common ❎</text>
</a>
</g>
</g>
<!-- libignition&#45;fuel&#45;tools -->
<g id="node5" class="node">
<title>libignition&#45;fuel&#45;tools</title>
<g id="a_node5"><a xlink:href="https://github.com/conda-forge/libignition-fuel-tools-feedstock" xlink:title="libignition fuel tools">
<ellipse fill="#fde725" stroke="black" cx="111.71" cy="-314" rx="111.71" ry="18"/>
<text text-anchor="middle" x="111.71" y="-309.32" font-family="Times,serif" font-size="14.00">libignition fuel tools</text>
</a>
</g>
</g>
<!-- libignition&#45;common&#45;&gt;libignition&#45;fuel&#45;tools -->
<g id="edge2" class="edge">
<title>libignition&#45;common&#45;&gt;libignition&#45;fuel&#45;tools</title>
<path fill="none" stroke="black" d="M261.2,-368.94C233.11,-358.8 196.6,-345.63 166.7,-334.84"/>
<polygon fill="black" stroke="black" points="168.03,-331.6 157.44,-331.5 165.65,-338.18 168.03,-331.6"/>
</g>
<!-- libignition&#45;gui -->
<g id="node6" class="node">
<title>libignition&#45;gui</title>
<g id="a_node6"><a xlink:href="https://github.com/conda-forge/libignition-gui-feedstock" xlink:title="libignition gui">
<ellipse fill="#fde725" stroke="black" cx="360.71" cy="-314" rx="81.2" ry="18"/>
<text text-anchor="middle" x="360.71" y="-309.32" font-family="Times,serif" font-size="14.00">libignition gui</text>
</a>
</g>
</g>
<!-- libignition&#45;common&#45;&gt;libignition&#45;gui -->
<g id="edge3" class="edge">
<title>libignition&#45;common&#45;&gt;libignition&#45;gui</title>
<path fill="none" stroke="black" d="M319.31,-367.7C325.63,-359.64 333.29,-349.89 340.3,-340.98"/>
<polygon fill="black" stroke="black" points="342.91,-343.32 346.34,-333.29 337.41,-339 342.91,-343.32"/>
</g>
<!-- libignition&#45;gazebo -->
<g id="node7" class="node">
<title>libignition&#45;gazebo</title>
<g id="a_node7"><a xlink:href="https://github.com/conda-forge/libignition-gazebo-feedstock" xlink:title="libignition gazebo">
<ellipse fill="#fde725" stroke="black" cx="251.71" cy="-242" rx="100.66" ry="18"/>
<text text-anchor="middle" x="251.71" y="-237.32" font-family="Times,serif" font-size="14.00">libignition gazebo</text>
</a>
</g>
</g>
<!-- libignition&#45;common&#45;&gt;libignition&#45;gazebo -->
<g id="edge4" class="edge">
<title>libignition&#45;common&#45;&gt;libignition&#45;gazebo</title>
<path fill="none" stroke="black" d="M291.96,-367.79C284.65,-357.85 276.08,-344.81 270.71,-332 262.62,-312.7 257.82,-289.55 255.06,-271.7"/>
<polygon fill="black" stroke="black" points="258.53,-271.22 253.68,-261.8 251.6,-272.19 258.53,-271.22"/>
</g>
<!-- libignition&#45;launch -->
<g id="node8" class="node">
<title>libignition&#45;launch</title>
<g id="a_node8"><a xlink:href="https://github.com/conda-forge/libignition-launch-feedstock" xlink:title="libignition launch">
<ellipse fill="#fde725" stroke="black" cx="380.71" cy="-170" rx="98.56" ry="18"/>
<text text-anchor="middle" x="380.71" y="-165.32" font-family="Times,serif" font-size="14.00">libignition launch</text>
</a>
</g>
</g>
<!-- libignition&#45;common&#45;&gt;libignition&#45;launch -->
<g id="edge5" class="edge">
<title>libignition&#45;common&#45;&gt;libignition&#45;launch</title>
<path fill="none" stroke="black" d="M390.21,-372.62C413.63,-364.87 436.51,-352.32 450.71,-332 481.17,-288.43 437.64,-229.5 406.79,-196.36"/>
<polygon fill="black" stroke="black" points="409.38,-194.01 399.94,-189.21 404.33,-198.85 409.38,-194.01"/>
</g>
<!-- libignition&#45;fuel&#45;tools&#45;&gt;libignition&#45;gazebo -->
<g id="edge6" class="edge">
<title>libignition&#45;fuel&#45;tools&#45;&gt;libignition&#45;gazebo</title>
<path fill="none" stroke="black" d="M144.89,-296.41C163.98,-286.87 188.18,-274.77 208.72,-264.5"/>
<polygon fill="black" stroke="black" points="210.04,-267.75 217.42,-260.15 206.91,-261.49 210.04,-267.75"/>
</g>
<!-- libignition&#45;gui&#45;&gt;libignition&#45;gazebo -->
<g id="edge7" class="edge">
<title>libignition&#45;gui&#45;&gt;libignition&#45;gazebo</title>
<path fill="none" stroke="black" d="M335.16,-296.59C320.88,-287.42 302.87,-275.85 287.23,-265.81"/>
<polygon fill="black" stroke="black" points="289.44,-263.07 279.14,-260.61 285.66,-268.96 289.44,-263.07"/>
</g>
<!-- libignition&#45;gui&#45;&gt;libignition&#45;launch -->
<g id="edge8" class="edge">
<title>libignition&#45;gui&#45;&gt;libignition&#45;launch</title>
<path fill="none" stroke="black" d="M363.16,-295.59C366.54,-271.61 372.66,-228.14 376.71,-199.42"/>
<polygon fill="black" stroke="black" points="380.16,-200 378.09,-189.61 373.23,-199.02 380.16,-200"/>
</g>
<!-- libignition&#45;gazebo&#45;&gt;libignition&#45;launch -->
<g id="edge9" class="edge">
<title>libignition&#45;gazebo&#45;&gt;libignition&#45;launch</title>
<path fill="none" stroke="black" d="M282.28,-224.41C299.63,-215 321.56,-203.1 340.32,-192.92"/>
<polygon fill="black" stroke="black" points="341.91,-196.04 349.03,-188.19 338.57,-189.89 341.91,-196.04"/>
</g>
<!-- dartsim -->
<g id="node9" class="node">
<title>dartsim</title>
<g id="a_node9"><a xlink:href="https://github.com/conda-forge/dartsim-feedstock/pull/125" xlink:title="dartsim ❎">
<ellipse fill="#31688e" stroke="black" cx="240.71" cy="-90" rx="65.41" ry="18"/>
<text text-anchor="middle" x="240.71" y="-85.33" font-family="Times,serif" font-size="14.00" fill="white">dartsim ❎</text>
</a>
</g>
</g>
<!-- dartsim&#45;&gt;gazebo -->
<g id="edge10" class="edge">
<title>dartsim&#45;&gt;gazebo</title>
<path fill="none" stroke="black" d="M240.71,-71.7C240.71,-64.41 240.71,-55.73 240.71,-47.54"/>
<polygon fill="black" stroke="black" points="244.21,-47.62 240.71,-37.62 237.21,-47.62 244.21,-47.62"/>
</g>
<!-- mujoco -->
<g id="node11" class="node">
<title>mujoco</title>
<g id="a_node11"><a xlink:href="https://github.com/conda-forge/mujoco-feedstock/pull/75" xlink:title="mujoco ❎">
<ellipse fill="#31688e" stroke="black" cx="917.71" cy="-206" rx="62.26" ry="18"/>
<text text-anchor="middle" x="917.71" y="-201.33" font-family="Times,serif" font-size="14.00" fill="white">mujoco ❎</text>
</a>
</g>
</g>
<!-- fast&#45;dds&#45;&gt;mujoco -->
<!-- helios -->
<g id="node12" class="node">
<title>helios</title>
<g id="a_node12"><a xlink:href="https://github.com/conda-forge/helios-feedstock/pull/18" xlink:title="helios ❎">
<ellipse fill="#31688e" stroke="black" cx="917.71" cy="-134" rx="55.94" ry="18"/>
<text text-anchor="middle" x="917.71" y="-129.32" font-family="Times,serif" font-size="14.00" fill="white">helios ❎</text>
</a>
</g>
</g>
<!-- mujoco&#45;&gt;helios -->
<!-- gz&#45;common -->
<g id="node13" class="node">
<title>gz&#45;common</title>
<g id="a_node13"><a xlink:href="https://github.com/conda-forge/gz-common-feedstock/pull/58" xlink:title="gz common ❎">
<ellipse fill="#31688e" stroke="black" cx="571.71" cy="-386" rx="83.3" ry="18"/>
<text text-anchor="middle" x="571.71" y="-381.32" font-family="Times,serif" font-size="14.00" fill="white">gz common ❎</text>
</a>
</g>
</g>
<!-- gz&#45;fuel&#45;tools -->
<g id="node14" class="node">
<title>gz&#45;fuel&#45;tools</title>
<g id="a_node14"><a xlink:href="https://github.com/conda-forge/gz-fuel-tools-feedstock" xlink:title="gz fuel tools">
<ellipse fill="#fde725" stroke="black" cx="730.71" cy="-314" rx="72.25" ry="18"/>
<text text-anchor="middle" x="730.71" y="-309.32" font-family="Times,serif" font-size="14.00">gz fuel tools</text>
</a>
</g>
</g>
<!-- gz&#45;common&#45;&gt;gz&#45;fuel&#45;tools -->
<g id="edge14" class="edge">
<title>gz&#45;common&#45;&gt;gz&#45;fuel&#45;tools</title>
<path fill="none" stroke="black" d="M607.39,-369.29C630.63,-359.06 661.12,-345.64 685.97,-334.7"/>
<polygon fill="black" stroke="black" points="687.11,-338.02 694.85,-330.79 684.29,-331.61 687.11,-338.02"/>
</g>
<!-- gz&#45;gui -->
<g id="node15" class="node">
<title>gz&#45;gui</title>
<g id="a_node15"><a xlink:href="https://github.com/conda-forge/gz-gui-feedstock" xlink:title="gz gui">
<ellipse fill="#fde725" stroke="black" cx="598.71" cy="-314" rx="41.74" ry="18"/>
<text text-anchor="middle" x="598.71" y="-309.32" font-family="Times,serif" font-size="14.00">gz gui</text>
</a>
</g>
</g>
<!-- gz&#45;common&#45;&gt;gz&#45;gui -->
<g id="edge15" class="edge">
<title>gz&#45;common&#45;&gt;gz&#45;gui</title>
<path fill="none" stroke="black" d="M578.39,-367.7C581.3,-360.15 584.78,-351.12 588.03,-342.68"/>
<polygon fill="black" stroke="black" points="591.24,-344.11 591.57,-333.52 584.71,-341.59 591.24,-344.11"/>
</g>
<!-- gz&#45;sim -->
<g id="node16" class="node">
<title>gz&#45;sim</title>
<g id="a_node16"><a xlink:href="https://github.com/conda-forge/gz-sim-feedstock" xlink:title="gz sim">
<ellipse fill="#fde725" stroke="black" cx="670.71" cy="-242" rx="43.84" ry="18"/>
<text text-anchor="middle" x="670.71" y="-237.32" font-family="Times,serif" font-size="14.00">gz sim</text>
</a>
</g>
</g>
<!-- gz&#45;common&#45;&gt;gz&#45;sim -->
<g id="edge16" class="edge">
<title>gz&#45;common&#45;&gt;gz&#45;sim</title>
<path fill="none" stroke="black" d="M559.48,-367.96C547.54,-349.03 533.11,-318.19 547.71,-296 563.54,-271.95 592.82,-258.77 618.85,-251.56"/>
<polygon fill="black" stroke="black" points="619.44,-255.02 628.29,-249.2 617.74,-248.23 619.44,-255.02"/>
</g>
<!-- gz&#45;launch -->
<g id="node17" class="node">
<title>gz&#45;launch</title>
<g id="a_node17"><a xlink:href="https://github.com/conda-forge/gz-launch-feedstock" xlink:title="gz launch">
<ellipse fill="#fde725" stroke="black" cx="634.71" cy="-170" rx="59.1" ry="18"/>
<text text-anchor="middle" x="634.71" y="-165.32" font-family="Times,serif" font-size="14.00">gz launch</text>
</a>
</g>
</g>
<!-- gz&#45;common&#45;&gt;gz&#45;launch -->
<g id="edge17" class="edge">
<title>gz&#45;common&#45;&gt;gz&#45;launch</title>
<path fill="none" stroke="black" d="M557.31,-368.1C549.88,-358.26 541.59,-345.22 537.71,-332 533.21,-316.65 532.53,-311.14 537.71,-296 551.5,-255.73 584.14,-218.41 607.76,-195.22"/>
<polygon fill="black" stroke="black" points="610.1,-197.83 614.9,-188.39 605.26,-192.77 610.1,-197.83"/>
</g>
<!-- gz&#45;fuel&#45;tools&#45;&gt;gz&#45;sim -->
<g id="edge18" class="edge">
<title>gz&#45;fuel&#45;tools&#45;&gt;gz&#45;sim</title>
<path fill="none" stroke="black" d="M716.19,-296.05C708.93,-287.59 700.02,-277.19 692.01,-267.84"/>
<polygon fill="black" stroke="black" points="694.84,-265.77 685.67,-260.46 689.52,-270.33 694.84,-265.77"/>
</g>
<!-- gz&#45;gui&#45;&gt;gz&#45;sim -->
<g id="edge19" class="edge">
<title>gz&#45;gui&#45;&gt;gz&#45;sim</title>
<path fill="none" stroke="black" d="M615.05,-297.12C624.26,-288.17 635.94,-276.81 646.22,-266.81"/>
<polygon fill="black" stroke="black" points="648.62,-269.36 653.35,-259.88 643.74,-264.34 648.62,-269.36"/>
</g>
<!-- gz&#45;gui&#45;&gt;gz&#45;launch -->
<g id="edge20" class="edge">
<title>gz&#45;gui&#45;&gt;gz&#45;launch</title>
<path fill="none" stroke="black" d="M601.85,-295.82C605.26,-277.8 611.12,-248.73 617.71,-224 619.91,-215.75 622.62,-206.88 625.22,-198.8"/>
<polygon fill="black" stroke="black" points="628.48,-200.09 628.29,-189.49 621.83,-197.9 628.48,-200.09"/>
</g>
<!-- gz&#45;sim&#45;&gt;gz&#45;launch -->
<g id="edge21" class="edge">
<title>gz&#45;sim&#45;&gt;gz&#45;launch</title>
<path fill="none" stroke="black" d="M662,-224.05C658.03,-216.35 653.24,-207.03 648.78,-198.36"/>
<polygon fill="black" stroke="black" points="651.97,-196.91 644.29,-189.62 645.75,-200.11 651.97,-196.91"/>
</g>
<!-- gz&#45;msgs -->
<g id="node18" class="node">
<title>gz&#45;msgs</title>
<g id="a_node18"><a xlink:href="https://github.com/conda-forge/gz-msgs-feedstock/pull/65" xlink:title="gz msgs ❎">
<ellipse fill="#31688e" stroke="black" cx="756.71" cy="-386" rx="67.52" ry="18"/>
<text text-anchor="middle" x="756.71" y="-381.32" font-family="Times,serif" font-size="14.00" fill="white">gz msgs ❎</text>
</a>
</g>
</g>
<!-- gz&#45;msgs&#45;&gt;gz&#45;fuel&#45;tools -->
<g id="edge22" class="edge">
<title>gz&#45;msgs&#45;&gt;gz&#45;fuel&#45;tools</title>
<path fill="none" stroke="black" d="M750.28,-367.7C747.48,-360.15 744.13,-351.12 740.99,-342.68"/>
<polygon fill="black" stroke="black" points="744.35,-341.68 737.59,-333.52 737.79,-344.12 744.35,-341.68"/>
</g>
<!-- gz&#45;msgs&#45;&gt;gz&#45;gui -->
<g id="edge23" class="edge">
<title>gz&#45;msgs&#45;&gt;gz&#45;gui</title>
<path fill="none" stroke="black" d="M722.82,-369.98C697.71,-358.86 663.47,-343.69 637.31,-332.1"/>
<polygon fill="black" stroke="black" points="638.95,-329 628.39,-328.15 636.12,-335.4 638.95,-329"/>
</g>
<!-- gz&#45;msgs&#45;&gt;gz&#45;sim -->
<g id="edge24" class="edge">
<title>gz&#45;msgs&#45;&gt;gz&#45;sim</title>
<path fill="none" stroke="black" d="M780.94,-368.88C792.59,-359.62 805.38,-346.89 811.71,-332 817.97,-317.28 820.82,-309.15 811.71,-296 792.22,-267.85 755.79,-254.63 724.84,-248.43"/>
<polygon fill="black" stroke="black" points="725.68,-245.03 715.22,-246.72 724.45,-251.92 725.68,-245.03"/>
</g>
<!-- gz&#45;msgs&#45;&gt;gz&#45;launch -->
<g id="edge25" class="edge">
<title>gz&#45;msgs&#45;&gt;gz&#45;launch</title>
<path fill="none" stroke="black" d="M789.34,-369.87C804.23,-361.09 820.38,-348.48 828.71,-332 835.93,-317.72 836.17,-310.16 828.71,-296 799.26,-240.09 732.46,-205.63 685.52,-187.4"/>
<polygon fill="black" stroke="black" points="686.94,-184.2 676.35,-183.97 684.49,-190.76 686.94,-184.2"/>
</g>
</g>
</svg>
