<?xml version="1.0" encoding="UTF-8" standalone="no"?>
<!DOCTYPE svg PUBLIC "-//W3C//DTD SVG 1.1//EN"
 "http://www.w3.org/Graphics/SVG/1.1/DTD/svg11.dtd">
<!-- Generated by graphviz version 12.2.1 (20250203.1708)
 -->
<!-- Pages: 1 -->
<svg width="740pt" height="276pt"
 viewBox="0.00 0.00 740.29 276.00" xmlns="http://www.w3.org/2000/svg" xmlns:xlink="http://www.w3.org/1999/xlink">
<g id="graph0" class="graph" transform="scale(1 1) rotate(0) translate(4 272)">
<polygon fill="white" stroke="none" points="-4,4 -4,-272 736.29,-272 736.29,4 -4,4"/>
<!-- cppcheck -->
<g id="node1" class="node">
<title>cppcheck</title>
<g id="a_node1"><a xlink:href="https://github.com/conda-forge/cppcheck-feedstock/pull/100" xlink:title="cppcheck ❎">
<ellipse fill="#31688e" stroke="black" cx="659.51" cy="-178" rx="72.78" ry="18"/>
<text text-anchor="middle" x="659.51" y="-173.32" font-family="Times,serif" font-size="14.00" fill="white">cppcheck ❎</text>
</a>
</g>
</g>
<!-- gazebo -->
<g id="node2" class="node">
<title>gazebo</title>
<g id="a_node2"><a xlink:href="https://github.com/conda-forge/gazebo-feedstock/pull/238" xlink:title="gazebo ❎">
<ellipse fill="#31688e" stroke="black" cx="659.51" cy="-62" rx="61.73" ry="18"/>
<text text-anchor="middle" x="659.51" y="-57.33" font-family="Times,serif" font-size="14.00" fill="white">gazebo ❎</text>
</a>
</g>
</g>
<!-- fast&#45;dds -->
<g id="node3" class="node">
<title>fast&#45;dds</title>
<g id="a_node3"><a xlink:href="https://github.com/conda-forge/fast-dds-feedstock/pull/17" xlink:title="fast dds ❎">
<ellipse fill="#31688e" stroke="black" cx="153.51" cy="-62" rx="66.47" ry="18"/>
<text text-anchor="middle" x="153.51" y="-57.33" font-family="Times,serif" font-size="14.00" fill="white">fast dds ❎</text>
</a>
</g>
</g>
<!-- libignition&#45;gui -->
<g id="node4" class="node">
<title>libignition&#45;gui</title>
<g id="a_node4"><a xlink:href="https://github.com/conda-forge/libignition-gui-feedstock/pull/56" xlink:title="libignition gui ❎">
<ellipse fill="#31688e" stroke="black" cx="479.51" cy="-250" rx="96.45" ry="18"/>
<text text-anchor="middle" x="479.51" y="-245.32" font-family="Times,serif" font-size="14.00" fill="white">libignition gui ❎</text>
</a>
</g>
</g>
<!-- libignition&#45;gazebo -->
<g id="node5" class="node">
<title>libignition&#45;gazebo</title>
<g id="a_node5"><a xlink:href="https://github.com/conda-forge/libignition-gazebo-feedstock" xlink:title="libignition gazebo">
<ellipse fill="#fde725" stroke="black" cx="415.51" cy="-178" rx="100.66" ry="18"/>
<text text-anchor="middle" x="415.51" y="-173.32" font-family="Times,serif" font-size="14.00">libignition gazebo</text>
</a>
</g>
</g>
<!-- libignition&#45;gui&#45;&gt;libignition&#45;gazebo -->
<g id="edge1" class="edge">
<title>libignition&#45;gui&#45;&gt;libignition&#45;gazebo</title>
<path fill="none" stroke="black" d="M464.02,-232.05C456.39,-223.71 447.04,-213.49 438.6,-204.25"/>
<polygon fill="black" stroke="black" points="441.21,-201.92 431.88,-196.91 436.05,-206.65 441.21,-201.92"/>
</g>
<!-- libignition&#45;launch -->
<g id="node6" class="node">
<title>libignition&#45;launch</title>
<g id="a_node6"><a xlink:href="https://github.com/conda-forge/libignition-launch-feedstock" xlink:title="libignition launch">
<ellipse fill="#fde725" stroke="black" cx="479.51" cy="-106" rx="98.56" ry="18"/>
<text text-anchor="middle" x="479.51" y="-101.33" font-family="Times,serif" font-size="14.00">libignition launch</text>
</a>
</g>
</g>
<!-- libignition&#45;gui&#45;&gt;libignition&#45;launch -->
<g id="edge2" class="edge">
<title>libignition&#45;gui&#45;&gt;libignition&#45;launch</title>
<path fill="none" stroke="black" d="M499.85,-232.08C509.62,-222.61 520.31,-209.92 525.51,-196 531.11,-181.01 531.11,-174.99 525.51,-160 521.69,-149.77 514.91,-140.21 507.71,-132.11"/>
<polygon fill="black" stroke="black" points="510.35,-129.8 500.9,-125.01 505.3,-134.65 510.35,-129.8"/>
</g>
<!-- libignition&#45;gazebo&#45;&gt;libignition&#45;launch -->
<g id="edge3" class="edge">
<title>libignition&#45;gazebo&#45;&gt;libignition&#45;launch</title>
<path fill="none" stroke="black" d="M431,-160.05C438.63,-151.71 447.98,-141.49 456.42,-132.25"/>
<polygon fill="black" stroke="black" points="458.97,-134.65 463.14,-124.91 453.81,-129.92 458.97,-134.65"/>
</g>
<!-- mujoco -->
<g id="node7" class="node">
<title>mujoco</title>
<g id="a_node7"><a xlink:href="https://github.com/conda-forge/mujoco-feedstock/pull/75" xlink:title="mujoco ❎">
<ellipse fill="#31688e" stroke="black" cx="446.51" cy="-62" rx="62.26" ry="18"/>
<text text-anchor="middle" x="446.51" y="-57.33" font-family="Times,serif" font-size="14.00" fill="white">mujoco ❎</text>
</a>
</g>
</g>
<!-- gz&#45;fuel&#45;tools -->
<g id="node8" class="node">
<title>gz&#45;fuel&#45;tools</title>
<g id="a_node8"><a xlink:href="https://github.com/conda-forge/gz-fuel-tools-feedstock/pull/54" xlink:title="gz fuel tools ❎">
<ellipse fill="#31688e" stroke="black" cx="87.51" cy="-250" rx="87.51" ry="18"/>
<text text-anchor="middle" x="87.51" y="-245.32" font-family="Times,serif" font-size="14.00" fill="white">gz fuel tools ❎</text>
</a>
</g>
</g>
<!-- gz&#45;sim -->
<g id="node10" class="node">
<title>gz&#45;sim</title>
<g id="a_node10"><a xlink:href="https://github.com/conda-forge/gz-sim-feedstock" xlink:title="gz sim">
<ellipse fill="#fde725" stroke="black" cx="178.51" cy="-178" rx="43.84" ry="18"/>
<text text-anchor="middle" x="178.51" y="-173.32" font-family="Times,serif" font-size="14.00">gz sim</text>
</a>
</g>
</g>
<!-- gz&#45;fuel&#45;tools&#45;&gt;gz&#45;sim -->
<g id="edge4" class="edge">
<title>gz&#45;fuel&#45;tools&#45;&gt;gz&#45;sim</title>
<path fill="none" stroke="black" d="M109.08,-232.41C121.17,-223.11 136.42,-211.38 149.55,-201.28"/>
<polygon fill="black" stroke="black" points="151.66,-204.07 157.45,-195.2 147.39,-198.52 151.66,-204.07"/>
</g>
<!-- gz&#45;gui -->
<g id="node9" class="node">
<title>gz&#45;gui</title>
<g id="a_node9"><a xlink:href="https://github.com/conda-forge/gz-gui-feedstock/pull/60" xlink:title="gz gui ❎">
<ellipse fill="#31688e" stroke="black" cx="250.51" cy="-250" rx="57" ry="18"/>
<text text-anchor="middle" x="250.51" y="-245.32" font-family="Times,serif" font-size="14.00" fill="white">gz gui ❎</text>
</a>
</g>
</g>
<!-- gz&#45;gui&#45;&gt;gz&#45;sim -->
<g id="edge6" class="edge">
<title>gz&#45;gui&#45;&gt;gz&#45;sim</title>
<path fill="none" stroke="black" d="M233.45,-232.41C224.35,-223.57 213,-212.53 202.98,-202.79"/>
<polygon fill="black" stroke="black" points="205.65,-200.5 196.04,-196.04 200.77,-205.52 205.65,-200.5"/>
</g>
<!-- gz&#45;launch -->
<g id="node11" class="node">
<title>gz&#45;launch</title>
<g id="a_node11"><a xlink:href="https://github.com/conda-forge/gz-launch-feedstock" xlink:title="gz launch">
<ellipse fill="#fde725" stroke="black" cx="214.51" cy="-106" rx="59.1" ry="18"/>
<text text-anchor="middle" x="214.51" y="-101.33" font-family="Times,serif" font-size="14.00">gz launch</text>
</a>
</g>
</g>
<!-- gz&#45;gui&#45;&gt;gz&#45;launch -->
<g id="edge5" class="edge">
<title>gz&#45;gui&#45;&gt;gz&#45;launch</title>
<path fill="none" stroke="black" d="M247.37,-231.82C243.96,-213.8 238.1,-184.73 231.51,-160 229.31,-151.75 226.61,-142.88 224,-134.8"/>
<polygon fill="black" stroke="black" points="227.39,-133.9 220.93,-125.49 220.74,-136.09 227.39,-133.9"/>
</g>
<!-- gz&#45;sim&#45;&gt;gz&#45;launch -->
<g id="edge7" class="edge">
<title>gz&#45;sim&#45;&gt;gz&#45;launch</title>
<path fill="none" stroke="black" d="M187.22,-160.05C191.19,-152.35 195.98,-143.03 200.44,-134.36"/>
<polygon fill="black" stroke="black" points="203.47,-136.11 204.93,-125.62 197.25,-132.91 203.47,-136.11"/>
</g>
<!-- helios -->
<g id="node12" class="node">
<title>helios</title>
<g id="a_node12"><a xlink:href="https://github.com/conda-forge/helios-feedstock/pull/18" xlink:title="helios ❎">
<ellipse fill="#31688e" stroke="black" cx="153.51" cy="-18" rx="55.94" ry="18"/>
<text text-anchor="middle" x="153.51" y="-13.32" font-family="Times,serif" font-size="14.00" fill="white">helios ❎</text>
</a>
</g>
</g>
</g>
</svg>
