<?xml version="1.0" encoding="UTF-8" standalone="no"?>
<!DOCTYPE svg PUBLIC "-//W3C//DTD SVG 1.1//EN"
 "http://www.w3.org/Graphics/SVG/1.1/DTD/svg11.dtd">
<!-- Generated by graphviz version 13.1.1 (20250720.1534)
 -->
<!-- Pages: 1 -->
<svg width="563pt" height="188pt"
 viewBox="0.00 0.00 563.00 188.00" xmlns="http://www.w3.org/2000/svg" xmlns:xlink="http://www.w3.org/1999/xlink">
<g id="graph0" class="graph" transform="scale(1 1) rotate(0) translate(4 184)">
<polygon fill="white" stroke="none" points="-4,4 -4,-184 558.57,-184 558.57,4 -4,4"/>
<!-- mpich -->
<g id="node1" class="node">
<title>mpich</title>
<g id="a_node1"><a xlink:href="https://github.com/conda-forge/mpich-feedstock/pull/118" xlink:title="mpich ❎">
<ellipse fill="#31688e" stroke="black" cx="183.36" cy="-90" rx="57" ry="18"/>
<text xml:space="preserve" text-anchor="middle" x="183.36" y="-85.33" font-family="Times,serif" font-size="14.00" fill="white">mpich ❎</text>
</a>
</g>
</g>
<!-- adios2 -->
<g id="node3" class="node">
<title>adios2</title>
<g id="a_node3"><a xlink:href="https://github.com/conda-forge/adios2-feedstock" xlink:title="adios2">
<ellipse fill="#fde725" stroke="black" cx="118.36" cy="-18" rx="43.84" ry="18"/>
<text xml:space="preserve" text-anchor="middle" x="118.36" y="-13.32" font-family="Times,serif" font-size="14.00">adios2</text>
</a>
</g>
</g>
<!-- mpich&#45;&gt;adios2 -->
<g id="edge1" class="edge">
<title>mpich&#45;&gt;adios2</title>
<path fill="none" stroke="black" d="M167.96,-72.41C159.91,-63.74 149.91,-52.97 141,-43.38"/>
<polygon fill="black" stroke="black" points="143.61,-41.04 134.24,-36.1 138.48,-45.81 143.61,-41.04"/>
</g>
<!-- openmpi -->
<g id="node2" class="node">
<title>openmpi</title>
<g id="a_node2"><a xlink:href="https://github.com/conda-forge/openmpi-feedstock" xlink:title="openmpi">
<ellipse fill="#fde725" stroke="black" cx="54.36" cy="-90" rx="54.36" ry="18"/>
<text xml:space="preserve" text-anchor="middle" x="54.36" y="-85.33" font-family="Times,serif" font-size="14.00">openmpi</text>
</a>
</g>
</g>
<!-- openmpi&#45;&gt;adios2 -->
<g id="edge2" class="edge">
<title>openmpi&#45;&gt;adios2</title>
<path fill="none" stroke="black" d="M69.53,-72.41C77.46,-63.74 87.31,-52.97 96.08,-43.38"/>
<polygon fill="black" stroke="black" points="98.56,-45.85 102.73,-36.11 93.39,-41.12 98.56,-45.85"/>
</g>
<!-- ucc -->
<g id="node4" class="node">
<title>ucc</title>
<g id="a_node4"><a xlink:href="https://github.com/conda-forge/ucc-feedstock/pull/29" xlink:title="ucc ❎">
<ellipse fill="#31688e" stroke="black" cx="54.36" cy="-162" rx="43.32" ry="18"/>
<text xml:space="preserve" text-anchor="middle" x="54.36" y="-157.32" font-family="Times,serif" font-size="14.00" fill="white">ucc ❎</text>
</a>
</g>
</g>
<!-- ucc&#45;&gt;openmpi -->
<g id="edge3" class="edge">
<title>ucc&#45;&gt;openmpi</title>
<path fill="none" stroke="black" d="M54.36,-143.7C54.36,-136.41 54.36,-127.73 54.36,-119.54"/>
<polygon fill="black" stroke="black" points="57.86,-119.62 54.36,-109.62 50.86,-119.62 57.86,-119.62"/>
</g>
<!-- mvapich -->
<g id="node5" class="node">
<title>mvapich</title>
<g id="a_node5"><a xlink:href="https://github.com/conda-forge/mvapich-feedstock/pull/22" xlink:title="mvapich ✓">
<ellipse fill="#31688e" stroke="black" cx="493.36" cy="-90" rx="61.2" ry="18"/>
<text xml:space="preserve" text-anchor="middle" x="493.36" y="-85.33" font-family="Times,serif" font-size="14.00" fill="white">mvapich ✓</text>
</a>
</g>
</g>
<!-- libnvshmem -->
<g id="node6" class="node">
<title>libnvshmem</title>
<g id="a_node6"><a xlink:href="https://github.com/conda-forge/libnvshmem-feedstock/pull/10" xlink:title="libnvshmem ❎">
<ellipse fill="#31688e" stroke="black" cx="336.36" cy="-90" rx="87.51" ry="18"/>
<text xml:space="preserve" text-anchor="middle" x="336.36" y="-85.33" font-family="Times,serif" font-size="14.00" fill="white">libnvshmem ❎</text>
</a>
</g>
</g>
</g>
</svg>
