<?xml version="1.0" encoding="UTF-8" standalone="no"?>
<!DOCTYPE svg PUBLIC "-//W3C//DTD SVG 1.1//EN"
 "http://www.w3.org/Graphics/SVG/1.1/DTD/svg11.dtd">
<!-- Generated by graphviz version 13.1.2 (20250809.0930)
 -->
<!-- Pages: 1 -->
<svg width="246pt" height="188pt"
 viewBox="0.00 0.00 246.00 188.00" xmlns="http://www.w3.org/2000/svg" xmlns:xlink="http://www.w3.org/1999/xlink">
<g id="graph0" class="graph" transform="scale(1 1) rotate(0) translate(4 184)">
<polygon fill="white" stroke="none" points="-4,4 -4,-184 241.91,-184 241.91,4 -4,4"/>
<!-- gnuradio -->
<g id="node1" class="node">
<title>gnuradio</title>
<g id="a_node1"><a xlink:href="https://github.com/conda-forge/gnuradio-feedstock/pull/302" xlink:title="gnuradio ❎">
<ellipse fill="#31688e" stroke="black" cx="166.71" cy="-162" rx="71.2" ry="18"/>
<text xml:space="preserve" text-anchor="middle" x="166.71" y="-157.32" font-family="Times,serif" font-size="14.00" fill="white">gnuradio ❎</text>
</a>
</g>
</g>
<!-- gnuradio&#45;osmosdr -->
<g id="node2" class="node">
<title>gnuradio&#45;osmosdr</title>
<g id="a_node2"><a xlink:href="https://github.com/conda-forge/gnuradio-osmosdr-feedstock" xlink:title="gnuradio osmosdr">
<ellipse fill="#fde725" stroke="black" cx="101.71" cy="-90" rx="101.71" ry="18"/>
<text xml:space="preserve" text-anchor="middle" x="101.71" y="-85.33" font-family="Times,serif" font-size="14.00">gnuradio osmosdr</text>
</a>
</g>
</g>
<!-- gnuradio&#45;&gt;gnuradio&#45;osmosdr -->
<g id="edge2" class="edge">
<title>gnuradio&#45;&gt;gnuradio&#45;osmosdr</title>
<path fill="none" stroke="black" d="M150.98,-144.05C143.16,-135.63 133.55,-125.28 124.9,-115.97"/>
<polygon fill="black" stroke="black" points="127.7,-113.84 118.33,-108.9 122.57,-118.61 127.7,-113.84"/>
</g>
<!-- gnss&#45;sdr -->
<g id="node3" class="node">
<title>gnss&#45;sdr</title>
<g id="a_node3"><a xlink:href="https://github.com/conda-forge/gnss-sdr-feedstock" xlink:title="gnss sdr">
<ellipse fill="#fde725" stroke="black" cx="166.71" cy="-18" rx="53.84" ry="18"/>
<text xml:space="preserve" text-anchor="middle" x="166.71" y="-13.32" font-family="Times,serif" font-size="14.00">gnss sdr</text>
</a>
</g>
</g>
<!-- gnuradio&#45;&gt;gnss&#45;sdr -->
<g id="edge1" class="edge">
<title>gnuradio&#45;&gt;gnss&#45;sdr</title>
<path fill="none" stroke="black" d="M186.58,-144.55C196.47,-135.03 207.43,-122.15 212.71,-108 218.31,-93.01 218.31,-86.99 212.71,-72 208.73,-61.33 201.52,-51.38 193.97,-43.05"/>
<polygon fill="black" stroke="black" points="196.65,-40.79 187.16,-36.08 191.64,-45.68 196.65,-40.79"/>
</g>
<!-- gnuradio&#45;osmosdr&#45;&gt;gnss&#45;sdr -->
<g id="edge3" class="edge">
<title>gnuradio&#45;osmosdr&#45;&gt;gnss&#45;sdr</title>
<path fill="none" stroke="black" d="M117.45,-72.05C125.39,-63.5 135.17,-52.97 143.91,-43.56"/>
<polygon fill="black" stroke="black" points="146.3,-46.13 150.54,-36.42 141.17,-41.36 146.3,-46.13"/>
</g>
</g>
</svg>
