<?xml version="1.0" encoding="UTF-8" standalone="no"?>
<!DOCTYPE svg PUBLIC "-//W3C//DTD SVG 1.1//EN"
 "http://www.w3.org/Graphics/SVG/1.1/DTD/svg11.dtd">
<!-- Generated by graphviz version 13.1.2 (20250809.0930)
 -->
<!-- Pages: 1 -->
<svg width="392pt" height="332pt"
 viewBox="0.00 0.00 392.00 332.00" xmlns="http://www.w3.org/2000/svg" xmlns:xlink="http://www.w3.org/1999/xlink">
<g id="graph0" class="graph" transform="scale(1 1) rotate(0) translate(4 328)">
<polygon fill="white" stroke="none" points="-4,4 -4,-328 387.56,-328 387.56,4 -4,4"/>
<!-- hpp&#45;core -->
<g id="node1" class="node">
<title>hpp&#45;core</title>
<g id="a_node1"><a xlink:href="https://github.com/conda-forge/hpp-core-feedstock/pull/28" xlink:title="hpp core ❎">
<ellipse fill="#31688e" stroke="black" cx="200.31" cy="-306" rx="70.15" ry="18"/>
<text xml:space="preserve" text-anchor="middle" x="200.31" y="-301.32" font-family="Times,serif" font-size="14.00" fill="white">hpp core ❎</text>
</a>
</g>
</g>
<!-- hpp&#45;manipulation&#45;urdf -->
<g id="node2" class="node">
<title>hpp&#45;manipulation&#45;urdf</title>
<g id="a_node2"><a xlink:href="https://github.com/conda-forge/hpp-manipulation-urdf-feedstock" xlink:title="hpp manipulation urdf">
<ellipse fill="#fde725" stroke="black" cx="141.31" cy="-162" rx="123.29" ry="18"/>
<text xml:space="preserve" text-anchor="middle" x="141.31" y="-157.32" font-family="Times,serif" font-size="14.00">hpp manipulation urdf</text>
</a>
</g>
</g>
<!-- hpp&#45;core&#45;&gt;hpp&#45;manipulation&#45;urdf -->
<g id="edge4" class="edge">
<title>hpp&#45;core&#45;&gt;hpp&#45;manipulation&#45;urdf</title>
<path fill="none" stroke="black" d="M182.65,-288.48C173.34,-278.75 162.59,-265.7 156.31,-252 147.56,-232.93 143.86,-209.46 142.32,-191.41"/>
<polygon fill="black" stroke="black" points="145.83,-191.43 141.68,-181.68 138.85,-191.89 145.83,-191.43"/>
</g>
<!-- hpp&#45;manipulation -->
<g id="node3" class="node">
<title>hpp&#45;manipulation</title>
<g id="a_node3"><a xlink:href="https://github.com/conda-forge/hpp-manipulation-feedstock" xlink:title="hpp manipulation">
<ellipse fill="#fde725" stroke="black" cx="264.31" cy="-234" rx="99.08" ry="18"/>
<text xml:space="preserve" text-anchor="middle" x="264.31" y="-229.32" font-family="Times,serif" font-size="14.00">hpp manipulation</text>
</a>
</g>
</g>
<!-- hpp&#45;core&#45;&gt;hpp&#45;manipulation -->
<g id="edge2" class="edge">
<title>hpp&#45;core&#45;&gt;hpp&#45;manipulation</title>
<path fill="none" stroke="black" d="M215.8,-288.05C223.43,-279.71 232.77,-269.49 241.22,-260.25"/>
<polygon fill="black" stroke="black" points="243.77,-262.65 247.94,-252.91 238.61,-257.92 243.77,-262.65"/>
</g>
<!-- hpp&#45;manipulation&#45;corba -->
<g id="node4" class="node">
<title>hpp&#45;manipulation&#45;corba</title>
<g id="a_node4"><a xlink:href="https://github.com/conda-forge/hpp-manipulation-corba-feedstock" xlink:title="hpp manipulation corba">
<ellipse fill="#fde725" stroke="black" cx="192.31" cy="-90" rx="130.12" ry="18"/>
<text xml:space="preserve" text-anchor="middle" x="192.31" y="-85.33" font-family="Times,serif" font-size="14.00">hpp manipulation corba</text>
</a>
</g>
</g>
<!-- hpp&#45;core&#45;&gt;hpp&#45;manipulation&#45;corba -->
<g id="edge3" class="edge">
<title>hpp&#45;core&#45;&gt;hpp&#45;manipulation&#45;corba</title>
<path fill="none" stroke="black" d="M269.36,-302.51C306.22,-297.22 348.74,-283.93 372.31,-252 415.8,-193.09 316.16,-139.62 248.45,-111.59"/>
<polygon fill="black" stroke="black" points="249.87,-108.39 239.29,-107.88 247.25,-114.88 249.87,-108.39"/>
</g>
<!-- hpp&#45;gepetto&#45;viewer -->
<g id="node5" class="node">
<title>hpp&#45;gepetto&#45;viewer</title>
<g id="a_node5"><a xlink:href="https://github.com/conda-forge/hpp-gepetto-viewer-feedstock" xlink:title="hpp gepetto viewer">
<ellipse fill="#fde725" stroke="black" cx="113.31" cy="-18" rx="108.55" ry="18"/>
<text xml:space="preserve" text-anchor="middle" x="113.31" y="-13.32" font-family="Times,serif" font-size="14.00">hpp gepetto viewer</text>
</a>
</g>
</g>
<!-- hpp&#45;core&#45;&gt;hpp&#45;gepetto&#45;viewer -->
<g id="edge1" class="edge">
<title>hpp&#45;core&#45;&gt;hpp&#45;gepetto&#45;viewer</title>
<path fill="none" stroke="black" d="M158.52,-291.29C112.47,-273.67 40.78,-238.22 9.31,-180 -14.69,-135.61 12.42,-111.1 44.31,-72 53.33,-60.93 65.1,-50.81 76.35,-42.45"/>
<polygon fill="black" stroke="black" points="78.27,-45.38 84.38,-36.73 74.21,-39.68 78.27,-45.38"/>
</g>
<!-- hpp&#45;manipulation&#45;urdf&#45;&gt;hpp&#45;manipulation&#45;corba -->
<g id="edge6" class="edge">
<title>hpp&#45;manipulation&#45;urdf&#45;&gt;hpp&#45;manipulation&#45;corba</title>
<path fill="none" stroke="black" d="M153.91,-143.7C159.72,-135.73 166.73,-126.1 173.17,-117.26"/>
<polygon fill="black" stroke="black" points="175.89,-119.47 178.95,-109.33 170.24,-115.35 175.89,-119.47"/>
</g>
<!-- hpp&#45;manipulation&#45;urdf&#45;&gt;hpp&#45;gepetto&#45;viewer -->
<g id="edge5" class="edge">
<title>hpp&#45;manipulation&#45;urdf&#45;&gt;hpp&#45;gepetto&#45;viewer</title>
<path fill="none" stroke="black" d="M96.12,-144.92C79.61,-136.6 62.7,-124.61 53.31,-108 45.44,-94.07 46.73,-86.59 53.31,-72 58.37,-60.77 67.13,-50.96 76.41,-42.93"/>
<polygon fill="black" stroke="black" points="78.54,-45.71 84.18,-36.74 74.18,-40.23 78.54,-45.71"/>
</g>
<!-- hpp&#45;manipulation&#45;&gt;hpp&#45;manipulation&#45;urdf -->
<g id="edge9" class="edge">
<title>hpp&#45;manipulation&#45;&gt;hpp&#45;manipulation&#45;urdf</title>
<path fill="none" stroke="black" d="M235.16,-216.41C218.73,-207.06 198.01,-195.27 180.21,-185.14"/>
<polygon fill="black" stroke="black" points="182.41,-182.37 171.99,-180.46 178.95,-188.45 182.41,-182.37"/>
</g>
<!-- hpp&#45;manipulation&#45;&gt;hpp&#45;manipulation&#45;corba -->
<g id="edge8" class="edge">
<title>hpp&#45;manipulation&#45;&gt;hpp&#45;manipulation&#45;corba</title>
<path fill="none" stroke="black" d="M271.53,-215.8C278.23,-197 285.5,-166.54 273.31,-144 266.43,-131.29 255.03,-121.13 242.93,-113.25"/>
<polygon fill="black" stroke="black" points="244.82,-110.31 234.44,-108.19 241.24,-116.32 244.82,-110.31"/>
</g>
<!-- hpp&#45;manipulation&#45;&gt;hpp&#45;gepetto&#45;viewer -->
<g id="edge7" class="edge">
<title>hpp&#45;manipulation&#45;&gt;hpp&#45;gepetto&#45;viewer</title>
<path fill="none" stroke="black" d="M281.98,-215.93C312.16,-184.71 367.04,-117.46 331.31,-72 315.98,-52.5 261.94,-39.28 211.51,-30.93"/>
<polygon fill="black" stroke="black" points="212.06,-27.47 201.64,-29.35 210.96,-34.38 212.06,-27.47"/>
</g>
<!-- hpp&#45;manipulation&#45;corba&#45;&gt;hpp&#45;gepetto&#45;viewer -->
<g id="edge10" class="edge">
<title>hpp&#45;manipulation&#45;corba&#45;&gt;hpp&#45;gepetto&#45;viewer</title>
<path fill="none" stroke="black" d="M173.18,-72.05C163.55,-63.52 151.69,-53.01 141.08,-43.61"/>
<polygon fill="black" stroke="black" points="143.47,-41.05 133.66,-37.04 138.82,-46.29 143.47,-41.05"/>
</g>
</g>
</svg>
