<?xml version="1.0" encoding="UTF-8" standalone="no"?>
<!DOCTYPE svg PUBLIC "-//W3C//DTD SVG 1.1//EN"
 "http://www.w3.org/Graphics/SVG/1.1/DTD/svg11.dtd">
<!-- Generated by graphviz version 13.1.2 (20250809.0930)
 -->
<!-- Pages: 1 -->
<svg width="968pt" height="736pt"
 viewBox="0.00 0.00 968.00 736.00" xmlns="http://www.w3.org/2000/svg" xmlns:xlink="http://www.w3.org/1999/xlink">
<g id="graph0" class="graph" transform="scale(1 1) rotate(0) translate(4 732)">
<polygon fill="white" stroke="none" points="-4,4 -4,-732 964.47,-732 964.47,4 -4,4"/>
<!-- mayavi -->
<g id="node1" class="node">
<title>mayavi</title>
<g id="a_node1"><a xlink:href="https://github.com/conda-forge/mayavi-feedstock/pull/102" xlink:title="mayavi ❎">
<ellipse fill="#31688e" stroke="black" cx="634.58" cy="-710" rx="62.26" ry="18"/>
<text xml:space="preserve" text-anchor="middle" x="634.58" y="-705.33" font-family="Times,serif" font-size="14.00" fill="white">mayavi ❎</text>
</a>
</g>
</g>
<!-- bonsu -->
<g id="node2" class="node">
<title>bonsu</title>
<g id="a_node2"><a xlink:href="https://github.com/conda-forge/bonsu-feedstock" xlink:title="bonsu">
<ellipse fill="#35b779" stroke="black" cx="634.58" cy="-638" rx="41.21" ry="18"/>
<text xml:space="preserve" text-anchor="middle" x="634.58" y="-633.33" font-family="Times,serif" font-size="14.00">bonsu</text>
</a>
</g>
</g>
<!-- mayavi&#45;&gt;bonsu -->
<!-- python&#45;mint -->
<g id="node13" class="node">
<title>python&#45;mint</title>
<g id="a_node13"><a xlink:href="https://github.com/conda-forge/python-mint-feedstock" xlink:title="python mint">
<ellipse fill="#35b779" stroke="black" cx="634.58" cy="-566" rx="72.25" ry="18"/>
<text xml:space="preserve" text-anchor="middle" x="634.58" y="-561.33" font-family="Times,serif" font-size="14.00">python mint</text>
</a>
</g>
</g>
<!-- bonsu&#45;&gt;python&#45;mint -->
<!-- paraview -->
<g id="node3" class="node">
<title>paraview</title>
<g id="a_node3"><a xlink:href="https://github.com/conda-forge/paraview-feedstock/pull/321" xlink:title="paraview ❎">
<ellipse fill="#31688e" stroke="black" cx="858.58" cy="-494" rx="72.25" ry="18"/>
<text xml:space="preserve" text-anchor="middle" x="858.58" y="-489.32" font-family="Times,serif" font-size="14.00" fill="white">paraview ❎</text>
</a>
</g>
</g>
<!-- topologytoolkit -->
<g id="node4" class="node">
<title>topologytoolkit</title>
<g id="a_node4"><a xlink:href="https://github.com/conda-forge/topologytoolkit-feedstock" xlink:title="topologytoolkit">
<ellipse fill="#fde725" stroke="black" cx="801.58" cy="-422" rx="86.46" ry="18"/>
<text xml:space="preserve" text-anchor="middle" x="801.58" y="-417.32" font-family="Times,serif" font-size="14.00">topologytoolkit</text>
</a>
</g>
</g>
<!-- paraview&#45;&gt;topologytoolkit -->
<g id="edge2" class="edge">
<title>paraview&#45;&gt;topologytoolkit</title>
<path fill="none" stroke="black" d="M844.78,-476.05C838.06,-467.8 829.84,-457.7 822.37,-448.54"/>
<polygon fill="black" stroke="black" points="825.23,-446.51 816.21,-440.96 819.81,-450.93 825.23,-446.51"/>
</g>
<!-- tomviz -->
<g id="node5" class="node">
<title>tomviz</title>
<g id="a_node5"><a xlink:href="https://github.com/conda-forge/tomviz-feedstock" xlink:title="tomviz">
<ellipse fill="#fde725" stroke="black" cx="915.58" cy="-350" rx="44.9" ry="18"/>
<text xml:space="preserve" text-anchor="middle" x="915.58" y="-345.32" font-family="Times,serif" font-size="14.00">tomviz</text>
</a>
</g>
</g>
<!-- paraview&#45;&gt;tomviz -->
<g id="edge3" class="edge">
<title>paraview&#45;&gt;tomviz</title>
<path fill="none" stroke="black" d="M873.56,-475.97C881.52,-466.09 890.81,-453.05 896.58,-440 905.08,-420.77 909.88,-397.48 912.52,-379.55"/>
<polygon fill="black" stroke="black" points="915.96,-380.25 913.8,-369.88 909.02,-379.33 915.96,-380.25"/>
</g>
<!-- occt -->
<g id="node6" class="node">
<title>occt</title>
<g id="a_node6"><a xlink:href="https://github.com/conda-forge/occt-feedstock/pull/138" xlink:title="occt ❎">
<ellipse fill="#31688e" stroke="black" cx="119.58" cy="-530" rx="47" ry="18"/>
<text xml:space="preserve" text-anchor="middle" x="119.58" y="-525.33" font-family="Times,serif" font-size="14.00" fill="white">occt ❎</text>
</a>
</g>
</g>
<!-- smesh -->
<g id="node7" class="node">
<title>smesh</title>
<g id="a_node7"><a xlink:href="https://github.com/conda-forge/smesh-feedstock" xlink:title="smesh">
<ellipse fill="#fde725" stroke="black" cx="48.58" cy="-458" rx="43.32" ry="18"/>
<text xml:space="preserve" text-anchor="middle" x="48.58" y="-453.32" font-family="Times,serif" font-size="14.00">smesh</text>
</a>
</g>
</g>
<!-- occt&#45;&gt;smesh -->
<g id="edge4" class="edge">
<title>occt&#45;&gt;smesh</title>
<path fill="none" stroke="black" d="M103.11,-512.76C94.15,-503.93 82.89,-492.83 72.93,-483.01"/>
<polygon fill="black" stroke="black" points="75.61,-480.74 66.03,-476.21 70.7,-485.72 75.61,-480.74"/>
</g>
<!-- freecad -->
<g id="node8" class="node">
<title>freecad</title>
<g id="a_node8"><a xlink:href="https://github.com/conda-forge/freecad-feedstock" xlink:title="freecad">
<ellipse fill="#fde725" stroke="black" cx="48.58" cy="-386" rx="48.58" ry="18"/>
<text xml:space="preserve" text-anchor="middle" x="48.58" y="-381.32" font-family="Times,serif" font-size="14.00">freecad</text>
</a>
</g>
</g>
<!-- occt&#45;&gt;freecad -->
<g id="edge5" class="edge">
<title>occt&#45;&gt;freecad</title>
<path fill="none" stroke="black" d="M118.73,-511.62C117.19,-492.93 112.84,-462.82 100.58,-440 94.71,-429.07 85.9,-418.87 77.19,-410.39"/>
<polygon fill="black" stroke="black" points="79.82,-408.05 70.09,-403.85 75.08,-413.2 79.82,-408.05"/>
</g>
<!-- ocp -->
<g id="node9" class="node">
<title>ocp</title>
<g id="a_node9"><a xlink:href="https://github.com/conda-forge/ocp-feedstock" xlink:title="ocp">
<ellipse fill="#fde725" stroke="black" cx="526.58" cy="-386" rx="28.59" ry="18"/>
<text xml:space="preserve" text-anchor="middle" x="526.58" y="-381.32" font-family="Times,serif" font-size="14.00">ocp</text>
</a>
</g>
</g>
<!-- occt&#45;&gt;ocp -->
<g id="edge6" class="edge">
<title>occt&#45;&gt;ocp</title>
<path fill="none" stroke="black" d="M160.65,-520.8C203.25,-511.78 271.49,-495.9 328.58,-476 389.08,-454.91 456.55,-422.58 495.05,-403.24"/>
<polygon fill="black" stroke="black" points="496.42,-406.47 503.76,-398.83 493.26,-400.22 496.42,-406.47"/>
</g>
<!-- smesh&#45;&gt;freecad -->
<g id="edge7" class="edge">
<title>smesh&#45;&gt;freecad</title>
<path fill="none" stroke="black" d="M48.58,-439.7C48.58,-432.41 48.58,-423.73 48.58,-415.54"/>
<polygon fill="black" stroke="black" points="52.08,-415.62 48.58,-405.62 45.08,-415.62 52.08,-415.62"/>
</g>
<!-- pcl -->
<g id="node10" class="node">
<title>pcl</title>
<g id="a_node10"><a xlink:href="https://github.com/conda-forge/pcl-feedstock/pull/93" xlink:title="pcl ❎">
<ellipse fill="#31688e" stroke="black" cx="278.58" cy="-458" rx="41.21" ry="18"/>
<text xml:space="preserve" text-anchor="middle" x="278.58" y="-453.32" font-family="Times,serif" font-size="14.00" fill="white">pcl ❎</text>
</a>
</g>
</g>
<!-- pcl&#45;&gt;freecad -->
<g id="edge8" class="edge">
<title>pcl&#45;&gt;freecad</title>
<path fill="none" stroke="black" d="M245.63,-446.97C206.46,-435.05 140.81,-415.07 96.15,-401.48"/>
<polygon fill="black" stroke="black" points="97.31,-398.17 86.72,-398.61 95.27,-404.87 97.31,-398.17"/>
</g>
<!-- bipedal&#45;locomotion&#45;framework -->
<g id="node11" class="node">
<title>bipedal&#45;locomotion&#45;framework</title>
<g id="a_node11"><a xlink:href="https://github.com/conda-forge/bipedal-locomotion-framework-feedstock" xlink:title="bipedal locomotion framework">
<ellipse fill="#fde725" stroke="black" cx="278.58" cy="-386" rx="163.27" ry="18"/>
<text xml:space="preserve" text-anchor="middle" x="278.58" y="-381.32" font-family="Times,serif" font-size="14.00">bipedal locomotion framework</text>
</a>
</g>
</g>
<!-- pcl&#45;&gt;bipedal&#45;locomotion&#45;framework -->
<g id="edge9" class="edge">
<title>pcl&#45;&gt;bipedal&#45;locomotion&#45;framework</title>
<path fill="none" stroke="black" d="M278.58,-439.7C278.58,-432.41 278.58,-423.73 278.58,-415.54"/>
<polygon fill="black" stroke="black" points="282.08,-415.62 278.58,-405.62 275.08,-415.62 282.08,-415.62"/>
</g>
<!-- python&#45;pcl -->
<g id="node12" class="node">
<title>python&#45;pcl</title>
<g id="a_node12"><a xlink:href="https://github.com/conda-forge/python-pcl-feedstock" xlink:title="python pcl">
<ellipse fill="#fde725" stroke="black" cx="469.58" cy="-314" rx="63.84" ry="18"/>
<text xml:space="preserve" text-anchor="middle" x="469.58" y="-309.32" font-family="Times,serif" font-size="14.00">python pcl</text>
</a>
</g>
</g>
<!-- pcl&#45;&gt;python&#45;pcl -->
<g id="edge10" class="edge">
<title>pcl&#45;&gt;python&#45;pcl</title>
<path fill="none" stroke="black" d="M319.87,-455.69C359.18,-452.15 417.14,-440.54 450.58,-404 465.35,-387.86 469.7,-363.14 470.58,-343.85"/>
<polygon fill="black" stroke="black" points="474.08,-343.94 470.72,-333.89 467.08,-343.84 474.08,-343.94"/>
</g>
<!-- visan -->
<g id="node14" class="node">
<title>visan</title>
<g id="a_node14"><a xlink:href="https://github.com/conda-forge/visan-feedstock" xlink:title="visan">
<ellipse fill="#35b779" stroke="black" cx="634.58" cy="-494" rx="37.53" ry="18"/>
<text xml:space="preserve" text-anchor="middle" x="634.58" y="-489.32" font-family="Times,serif" font-size="14.00">visan</text>
</a>
</g>
</g>
<!-- python&#45;mint&#45;&gt;visan -->
<!-- vmtk -->
<g id="node17" class="node">
<title>vmtk</title>
<g id="a_node17"><a xlink:href="https://github.com/conda-forge/vmtk-feedstock" xlink:title="vmtk">
<ellipse fill="#ff8c00" stroke="black" cx="634.58" cy="-422" rx="36.48" ry="18"/>
<text xml:space="preserve" text-anchor="middle" x="634.58" y="-417.32" font-family="Times,serif" font-size="14.00">vmtk</text>
</a>
</g>
</g>
<!-- visan&#45;&gt;vmtk -->
<!-- pycgns -->
<g id="node15" class="node">
<title>pycgns</title>
<g id="a_node15"><a xlink:href="https://github.com/conda-forge/pycgns-feedstock/pull/53" xlink:title="pycgns ❎">
<ellipse fill="#31688e" stroke="black" cx="277.58" cy="-90" rx="61.73" ry="18"/>
<text xml:space="preserve" text-anchor="middle" x="277.58" y="-85.33" font-family="Times,serif" font-size="14.00" fill="white">pycgns ❎</text>
</a>
</g>
</g>
<!-- muscat&#45;split -->
<g id="node16" class="node">
<title>muscat&#45;split</title>
<g id="a_node16"><a xlink:href="https://github.com/conda-forge/muscat-split-feedstock" xlink:title="muscat split">
<ellipse fill="#fde725" stroke="black" cx="277.58" cy="-18" rx="72.78" ry="18"/>
<text xml:space="preserve" text-anchor="middle" x="277.58" y="-13.32" font-family="Times,serif" font-size="14.00">muscat split</text>
</a>
</g>
</g>
<!-- pycgns&#45;&gt;muscat&#45;split -->
<g id="edge13" class="edge">
<title>pycgns&#45;&gt;muscat&#45;split</title>
<path fill="none" stroke="black" d="M277.58,-71.7C277.58,-64.41 277.58,-55.73 277.58,-47.54"/>
<polygon fill="black" stroke="black" points="281.08,-47.62 277.58,-37.62 274.08,-47.62 281.08,-47.62"/>
</g>
<!-- vtkbool -->
<g id="node18" class="node">
<title>vtkbool</title>
<g id="a_node18"><a xlink:href="https://github.com/conda-forge/vtkbool-feedstock" xlink:title="vtkbool">
<ellipse fill="#35b779" stroke="black" cx="634.58" cy="-350" rx="48.05" ry="18"/>
<text xml:space="preserve" text-anchor="middle" x="634.58" y="-345.32" font-family="Times,serif" font-size="14.00">vtkbool</text>
</a>
</g>
</g>
<!-- vmtk&#45;&gt;vtkbool -->
<!-- open3d -->
<g id="node19" class="node">
<title>open3d</title>
<g id="a_node19"><a xlink:href="https://github.com/conda-forge/open3d-feedstock/pull/48" xlink:title="open3d ❎">
<ellipse fill="#31688e" stroke="black" cx="634.58" cy="-278" rx="63.31" ry="18"/>
<text xml:space="preserve" text-anchor="middle" x="634.58" y="-273.32" font-family="Times,serif" font-size="14.00" fill="white">open3d ❎</text>
</a>
</g>
</g>
<!-- vtkbool&#45;&gt;open3d -->
<!-- ogs -->
<g id="node20" class="node">
<title>ogs</title>
<g id="a_node20"><a xlink:href="https://github.com/conda-forge/ogs-feedstock" xlink:title="ogs">
<ellipse fill="#35b779" stroke="black" cx="634.58" cy="-206" rx="28.59" ry="18"/>
<text xml:space="preserve" text-anchor="middle" x="634.58" y="-201.33" font-family="Times,serif" font-size="14.00">ogs</text>
</a>
</g>
</g>
<!-- open3d&#45;&gt;ogs -->
<!-- greedyreg -->
<g id="node21" class="node">
<title>greedyreg</title>
<g id="a_node21"><a xlink:href="https://github.com/conda-forge/greedyreg-feedstock" xlink:title="greedyreg">
<ellipse fill="#35b779" stroke="black" cx="634.58" cy="-134" rx="62.78" ry="18"/>
<text xml:space="preserve" text-anchor="middle" x="634.58" y="-129.32" font-family="Times,serif" font-size="14.00">greedyreg</text>
</a>
</g>
</g>
<!-- ogs&#45;&gt;greedyreg -->
</g>
</svg>
