<?xml version="1.0" encoding="UTF-8" standalone="no"?>
<!DOCTYPE svg PUBLIC "-//W3C//DTD SVG 1.1//EN"
 "http://www.w3.org/Graphics/SVG/1.1/DTD/svg11.dtd">
<!-- Generated by graphviz version 12.0.0 (20240803.0821)
 -->
<!-- Pages: 1 -->
<svg width="814pt" height="320pt"
 viewBox="0.00 0.00 814.06 320.00" xmlns="http://www.w3.org/2000/svg" xmlns:xlink="http://www.w3.org/1999/xlink">
<g id="graph0" class="graph" transform="scale(1 1) rotate(0) translate(4 316)">
<polygon fill="white" stroke="none" points="-4,4 -4,-316 810.06,-316 810.06,4 -4,4"/>
<!-- occt -->
<g id="node1" class="node">
<title>occt</title>
<g id="a_node1"><a xlink:href="https://github.com/conda-forge/occt-feedstock/pull/115" xlink:title="occt ✓">
<ellipse fill="#31688e" stroke="black" cx="114.32" cy="-294" rx="39.63" ry="18"/>
<text text-anchor="middle" x="114.32" y="-289.32" font-family="Times,serif" font-size="14.00" fill="white">occt ✓</text>
</a>
</g>
</g>
<!-- smesh -->
<g id="node2" class="node">
<title>smesh</title>
<g id="a_node2"><a xlink:href="https://github.com/conda-forge/smesh-feedstock" xlink:title="smesh">
<ellipse fill="#fde725" stroke="black" cx="43.32" cy="-222" rx="43.32" ry="18"/>
<text text-anchor="middle" x="43.32" y="-217.32" font-family="Times,serif" font-size="14.00">smesh</text>
</a>
</g>
</g>
<!-- occt&#45;&gt;smesh -->
<g id="edge3" class="edge">
<title>occt&#45;&gt;smesh</title>
<path fill="none" stroke="black" d="M98.21,-277.12C89.13,-268.17 77.61,-256.81 67.47,-246.81"/>
<polygon fill="black" stroke="black" points="70.02,-244.41 60.44,-239.88 65.11,-249.4 70.02,-244.41"/>
</g>
<!-- freecad -->
<g id="node4" class="node">
<title>freecad</title>
<g id="a_node4"><a xlink:href="https://github.com/conda-forge/freecad-feedstock" xlink:title="freecad">
<ellipse fill="#fde725" stroke="black" cx="78.32" cy="-150" rx="48.58" ry="18"/>
<text text-anchor="middle" x="78.32" y="-145.32" font-family="Times,serif" font-size="14.00">freecad</text>
</a>
</g>
</g>
<!-- occt&#45;&gt;freecad -->
<g id="edge1" class="edge">
<title>occt&#45;&gt;freecad</title>
<path fill="none" stroke="black" d="M111.18,-275.82C107.76,-257.8 101.91,-228.73 95.32,-204 93.12,-195.75 90.41,-186.88 87.81,-178.8"/>
<polygon fill="black" stroke="black" points="91.2,-177.9 84.74,-169.49 84.55,-180.09 91.2,-177.9"/>
</g>
<!-- ocp -->
<g id="node11" class="node">
<title>ocp</title>
<g id="a_node11"><a xlink:href="https://github.com/conda-forge/ocp-feedstock" xlink:title="ocp">
<ellipse fill="#fde725" stroke="black" cx="271.32" cy="-222" rx="28.59" ry="18"/>
<text text-anchor="middle" x="271.32" y="-217.32" font-family="Times,serif" font-size="14.00">ocp</text>
</a>
</g>
</g>
<!-- occt&#45;&gt;ocp -->
<g id="edge2" class="edge">
<title>occt&#45;&gt;ocp</title>
<path fill="none" stroke="black" d="M141.74,-280.8C165.86,-270.07 201.93,-254.01 233.32,-240 234.84,-239.32 236.4,-238.62 237.98,-237.92"/>
<polygon fill="black" stroke="black" points="239.33,-241.15 247.03,-233.87 236.47,-234.76 239.33,-241.15"/>
</g>
<!-- smesh&#45;&gt;freecad -->
<g id="edge4" class="edge">
<title>smesh&#45;&gt;freecad</title>
<path fill="none" stroke="black" d="M51.79,-204.05C55.7,-196.23 60.44,-186.75 64.83,-177.98"/>
<polygon fill="black" stroke="black" points="67.9,-179.65 69.25,-169.14 61.64,-176.52 67.9,-179.65"/>
</g>
<!-- pcl -->
<g id="node3" class="node">
<title>pcl</title>
<g id="a_node3"><a xlink:href="https://github.com/conda-forge/pcl-feedstock/pull/75" xlink:title="pcl ❎">
<ellipse fill="#31688e" stroke="black" cx="183.32" cy="-222" rx="41.21" ry="18"/>
<text text-anchor="middle" x="183.32" y="-217.32" font-family="Times,serif" font-size="14.00" fill="white">pcl ❎</text>
</a>
</g>
</g>
<!-- pcl&#45;&gt;freecad -->
<g id="edge6" class="edge">
<title>pcl&#45;&gt;freecad</title>
<path fill="none" stroke="black" d="M161.3,-206.33C146.53,-196.47 126.81,-183.33 110.31,-172.33"/>
<polygon fill="black" stroke="black" points="112.55,-169.61 102.28,-166.98 108.66,-175.44 112.55,-169.61"/>
</g>
<!-- bipedal&#45;locomotion&#45;framework -->
<g id="node13" class="node">
<title>bipedal&#45;locomotion&#45;framework</title>
<g id="a_node13"><a xlink:href="https://github.com/conda-forge/bipedal-locomotion-framework-feedstock" xlink:title="bipedal locomotion framework">
<ellipse fill="#fde725" stroke="black" cx="308.32" cy="-150" rx="163.27" ry="18"/>
<text text-anchor="middle" x="308.32" y="-145.32" font-family="Times,serif" font-size="14.00">bipedal locomotion framework</text>
</a>
</g>
</g>
<!-- pcl&#45;&gt;bipedal&#45;locomotion&#45;framework -->
<g id="edge5" class="edge">
<title>pcl&#45;&gt;bipedal&#45;locomotion&#45;framework</title>
<path fill="none" stroke="black" d="M208.01,-207.17C225.1,-197.6 248.22,-184.65 267.96,-173.6"/>
<polygon fill="black" stroke="black" points="269.59,-176.7 276.6,-168.76 266.17,-170.59 269.59,-176.7"/>
</g>
<!-- bonsu -->
<g id="node5" class="node">
<title>bonsu</title>
<g id="a_node5"><a xlink:href="https://github.com/conda-forge/bonsu-feedstock" xlink:title="bonsu">
<ellipse fill="#35b779" stroke="black" cx="733.28" cy="-62" rx="41.21" ry="18"/>
<text text-anchor="middle" x="733.28" y="-57.33" font-family="Times,serif" font-size="14.00">bonsu</text>
</a>
</g>
</g>
<!-- topologytoolkit -->
<g id="node6" class="node">
<title>topologytoolkit</title>
<g id="a_node6"><a xlink:href="https://github.com/conda-forge/topologytoolkit-feedstock" xlink:title="topologytoolkit">
<ellipse fill="#35b779" stroke="black" cx="566.04" cy="-222" rx="86.46" ry="18"/>
<text text-anchor="middle" x="566.04" y="-217.32" font-family="Times,serif" font-size="14.00">topologytoolkit</text>
</a>
</g>
</g>
<!-- basictools -->
<g id="node7" class="node">
<title>basictools</title>
<g id="a_node7"><a xlink:href="https://github.com/conda-forge/basictools-feedstock" xlink:title="basictools">
<ellipse fill="#35b779" stroke="black" cx="733.28" cy="-106" rx="61.2" ry="18"/>
<text text-anchor="middle" x="733.28" y="-101.33" font-family="Times,serif" font-size="14.00">basictools</text>
</a>
</g>
</g>
<!-- python&#45;mint -->
<g id="node8" class="node">
<title>python&#45;mint</title>
<g id="a_node8"><a xlink:href="https://github.com/conda-forge/python-mint-feedstock" xlink:title="python mint">
<ellipse fill="#35b779" stroke="black" cx="235.79" cy="-106" rx="72.25" ry="18"/>
<text text-anchor="middle" x="235.79" y="-101.33" font-family="Times,serif" font-size="14.00">python mint</text>
</a>
</g>
</g>
<!-- visan -->
<g id="node9" class="node">
<title>visan</title>
<g id="a_node9"><a xlink:href="https://github.com/conda-forge/visan-feedstock" xlink:title="visan">
<ellipse fill="#35b779" stroke="black" cx="235.79" cy="-18" rx="37.53" ry="18"/>
<text text-anchor="middle" x="235.79" y="-13.32" font-family="Times,serif" font-size="14.00">visan</text>
</a>
</g>
</g>
<!-- vmtk -->
<g id="node10" class="node">
<title>vmtk</title>
<g id="a_node10"><a xlink:href="https://github.com/conda-forge/vmtk-feedstock" xlink:title="vmtk">
<ellipse fill="#35b779" stroke="black" cx="566.04" cy="-18" rx="36.48" ry="18"/>
<text text-anchor="middle" x="566.04" y="-13.32" font-family="Times,serif" font-size="14.00">vmtk</text>
</a>
</g>
</g>
<!-- pyg4ometry -->
<g id="node12" class="node">
<title>pyg4ometry</title>
<g id="a_node12"><a xlink:href="https://github.com/conda-forge/pyg4ometry-feedstock" xlink:title="pyg4ometry">
<ellipse fill="#35b779" stroke="black" cx="566.04" cy="-106" rx="71.73" ry="18"/>
<text text-anchor="middle" x="566.04" y="-101.33" font-family="Times,serif" font-size="14.00">pyg4ometry</text>
</a>
</g>
</g>
<!-- vtkbool -->
<g id="node14" class="node">
<title>vtkbool</title>
<g id="a_node14"><a xlink:href="https://github.com/conda-forge/vtkbool-feedstock" xlink:title="vtkbool">
<ellipse fill="#35b779" stroke="black" cx="235.79" cy="-62" rx="48.05" ry="18"/>
<text text-anchor="middle" x="235.79" y="-57.33" font-family="Times,serif" font-size="14.00">vtkbool</text>
</a>
</g>
</g>
<!-- muscat&#45;split -->
<g id="node15" class="node">
<title>muscat&#45;split</title>
<g id="a_node15"><a xlink:href="https://github.com/conda-forge/muscat-split-feedstock" xlink:title="muscat split">
<ellipse fill="#35b779" stroke="black" cx="733.28" cy="-222" rx="72.78" ry="18"/>
<text text-anchor="middle" x="733.28" y="-217.32" font-family="Times,serif" font-size="14.00">muscat split</text>
</a>
</g>
</g>
<!-- open3d -->
<g id="node16" class="node">
<title>open3d</title>
<g id="a_node16"><a xlink:href="https://github.com/conda-forge/open3d-feedstock" xlink:title="open3d">
<ellipse fill="#35b779" stroke="black" cx="566.04" cy="-62" rx="48.05" ry="18"/>
<text text-anchor="middle" x="566.04" y="-57.33" font-family="Times,serif" font-size="14.00">open3d</text>
</a>
</g>
</g>
</g>
</svg>
