<?xml version="1.0" encoding="UTF-8" standalone="no"?>
<!DOCTYPE svg PUBLIC "-//W3C//DTD SVG 1.1//EN"
 "http://www.w3.org/Graphics/SVG/1.1/DTD/svg11.dtd">
<!-- Generated by graphviz version 12.2.1 (20250203.1708)
 -->
<!-- Pages: 1 -->
<svg width="897pt" height="620pt"
 viewBox="0.00 0.00 897.36 620.00" xmlns="http://www.w3.org/2000/svg" xmlns:xlink="http://www.w3.org/1999/xlink">
<g id="graph0" class="graph" transform="scale(1 1) rotate(0) translate(4 616)">
<polygon fill="white" stroke="none" points="-4,4 -4,-616 893.36,-616 893.36,4 -4,4"/>
<!-- occt -->
<g id="node1" class="node">
<title>occt</title>
<g id="a_node1"><a xlink:href="https://github.com/conda-forge/occt-feedstock/pull/125" xlink:title="occt ❎">
<ellipse fill="#31688e" stroke="black" cx="119.58" cy="-414" rx="47" ry="18"/>
<text text-anchor="middle" x="119.58" y="-409.32" font-family="Times,serif" font-size="14.00" fill="white">occt ❎</text>
</a>
</g>
</g>
<!-- smesh -->
<g id="node2" class="node">
<title>smesh</title>
<g id="a_node2"><a xlink:href="https://github.com/conda-forge/smesh-feedstock" xlink:title="smesh">
<ellipse fill="#fde725" stroke="black" cx="48.58" cy="-342" rx="43.32" ry="18"/>
<text text-anchor="middle" x="48.58" y="-337.32" font-family="Times,serif" font-size="14.00">smesh</text>
</a>
</g>
</g>
<!-- occt&#45;&gt;smesh -->
<g id="edge1" class="edge">
<title>occt&#45;&gt;smesh</title>
<path fill="none" stroke="black" d="M103.11,-396.76C94.15,-387.93 82.89,-376.83 72.93,-367.01"/>
<polygon fill="black" stroke="black" points="75.61,-364.74 66.03,-360.21 70.7,-369.72 75.61,-364.74"/>
</g>
<!-- freecad -->
<g id="node3" class="node">
<title>freecad</title>
<g id="a_node3"><a xlink:href="https://github.com/conda-forge/freecad-feedstock" xlink:title="freecad">
<ellipse fill="#fde725" stroke="black" cx="48.58" cy="-270" rx="48.58" ry="18"/>
<text text-anchor="middle" x="48.58" y="-265.32" font-family="Times,serif" font-size="14.00">freecad</text>
</a>
</g>
</g>
<!-- occt&#45;&gt;freecad -->
<g id="edge2" class="edge">
<title>occt&#45;&gt;freecad</title>
<path fill="none" stroke="black" d="M118.73,-395.62C117.19,-376.93 112.84,-346.82 100.58,-324 94.71,-313.07 85.9,-302.87 77.19,-294.39"/>
<polygon fill="black" stroke="black" points="79.82,-292.05 70.09,-287.85 75.08,-297.2 79.82,-292.05"/>
</g>
<!-- ocp -->
<g id="node4" class="node">
<title>ocp</title>
<g id="a_node4"><a xlink:href="https://github.com/conda-forge/ocp-feedstock" xlink:title="ocp">
<ellipse fill="#fde725" stroke="black" cx="526.58" cy="-270" rx="28.59" ry="18"/>
<text text-anchor="middle" x="526.58" y="-265.32" font-family="Times,serif" font-size="14.00">ocp</text>
</a>
</g>
</g>
<!-- occt&#45;&gt;ocp -->
<g id="edge3" class="edge">
<title>occt&#45;&gt;ocp</title>
<path fill="none" stroke="black" d="M159.26,-403.85C198.99,-394.3 261.67,-378.21 314.58,-360 379.37,-337.7 452.59,-305.29 493.81,-286.35"/>
<polygon fill="black" stroke="black" points="495.08,-289.62 502.69,-282.25 492.14,-283.27 495.08,-289.62"/>
</g>
<!-- smesh&#45;&gt;freecad -->
<g id="edge4" class="edge">
<title>smesh&#45;&gt;freecad</title>
<path fill="none" stroke="black" d="M48.58,-323.7C48.58,-316.41 48.58,-307.73 48.58,-299.54"/>
<polygon fill="black" stroke="black" points="52.08,-299.62 48.58,-289.62 45.08,-299.62 52.08,-299.62"/>
</g>
<!-- pcl -->
<g id="node5" class="node">
<title>pcl</title>
<g id="a_node5"><a xlink:href="https://github.com/conda-forge/pcl-feedstock" xlink:title="pcl">
<ellipse fill="#35b779" stroke="black" cx="278.58" cy="-342" rx="27" ry="18"/>
<text text-anchor="middle" x="278.58" y="-337.32" font-family="Times,serif" font-size="14.00">pcl</text>
</a>
</g>
</g>
<!-- pcl&#45;&gt;freecad -->
<g id="edge5" class="edge">
<title>pcl&#45;&gt;freecad</title>
<path fill="none" stroke="black" d="M254.4,-333.64C216.95,-322.24 144.22,-300.11 96.02,-285.44"/>
<polygon fill="black" stroke="black" points="97.26,-282.16 86.68,-282.6 95.23,-288.86 97.26,-282.16"/>
</g>
<!-- bipedal&#45;locomotion&#45;framework -->
<g id="node6" class="node">
<title>bipedal&#45;locomotion&#45;framework</title>
<g id="a_node6"><a xlink:href="https://github.com/conda-forge/bipedal-locomotion-framework-feedstock" xlink:title="bipedal locomotion framework">
<ellipse fill="#fde725" stroke="black" cx="278.58" cy="-270" rx="163.27" ry="18"/>
<text text-anchor="middle" x="278.58" y="-265.32" font-family="Times,serif" font-size="14.00">bipedal locomotion framework</text>
</a>
</g>
</g>
<!-- pcl&#45;&gt;bipedal&#45;locomotion&#45;framework -->
<g id="edge6" class="edge">
<title>pcl&#45;&gt;bipedal&#45;locomotion&#45;framework</title>
<path fill="none" stroke="black" d="M278.58,-323.7C278.58,-316.41 278.58,-307.73 278.58,-299.54"/>
<polygon fill="black" stroke="black" points="282.08,-299.62 278.58,-289.62 275.08,-299.62 282.08,-299.62"/>
</g>
<!-- python&#45;pcl -->
<g id="node7" class="node">
<title>python&#45;pcl</title>
<g id="a_node7"><a xlink:href="https://github.com/conda-forge/python-pcl-feedstock" xlink:title="python pcl">
<ellipse fill="#fde725" stroke="black" cx="469.58" cy="-198" rx="63.84" ry="18"/>
<text text-anchor="middle" x="469.58" y="-193.32" font-family="Times,serif" font-size="14.00">python pcl</text>
</a>
</g>
</g>
<!-- pcl&#45;&gt;python&#45;pcl -->
<g id="edge7" class="edge">
<title>pcl&#45;&gt;python&#45;pcl</title>
<path fill="none" stroke="black" d="M305.97,-340.68C344.16,-338.68 412.92,-329.15 450.58,-288 465.35,-271.86 469.7,-247.14 470.58,-227.85"/>
<polygon fill="black" stroke="black" points="474.08,-227.94 470.72,-217.89 467.08,-227.84 474.08,-227.94"/>
</g>
<!-- bonsu -->
<g id="node8" class="node">
<title>bonsu</title>
<g id="a_node8"><a xlink:href="https://github.com/conda-forge/bonsu-feedstock" xlink:title="bonsu">
<ellipse fill="#35b779" stroke="black" cx="649.58" cy="-594" rx="41.21" ry="18"/>
<text text-anchor="middle" x="649.58" y="-589.33" font-family="Times,serif" font-size="14.00">bonsu</text>
</a>
</g>
</g>
<!-- topologytoolkit -->
<g id="node9" class="node">
<title>topologytoolkit</title>
<g id="a_node9"><a xlink:href="https://github.com/conda-forge/topologytoolkit-feedstock" xlink:title="topologytoolkit">
<ellipse fill="#35b779" stroke="black" cx="649.58" cy="-522" rx="86.46" ry="18"/>
<text text-anchor="middle" x="649.58" y="-517.33" font-family="Times,serif" font-size="14.00">topologytoolkit</text>
</a>
</g>
</g>
<!-- bonsu&#45;&gt;topologytoolkit -->
<!-- python&#45;mint -->
<g id="node10" class="node">
<title>python&#45;mint</title>
<g id="a_node10"><a xlink:href="https://github.com/conda-forge/python-mint-feedstock" xlink:title="python mint">
<ellipse fill="#35b779" stroke="black" cx="649.58" cy="-450" rx="72.25" ry="18"/>
<text text-anchor="middle" x="649.58" y="-445.32" font-family="Times,serif" font-size="14.00">python mint</text>
</a>
</g>
</g>
<!-- topologytoolkit&#45;&gt;python&#45;mint -->
<!-- visan -->
<g id="node11" class="node">
<title>visan</title>
<g id="a_node11"><a xlink:href="https://github.com/conda-forge/visan-feedstock" xlink:title="visan">
<ellipse fill="#35b779" stroke="black" cx="649.58" cy="-378" rx="37.53" ry="18"/>
<text text-anchor="middle" x="649.58" y="-373.32" font-family="Times,serif" font-size="14.00">visan</text>
</a>
</g>
</g>
<!-- python&#45;mint&#45;&gt;visan -->
<!-- vmtk -->
<g id="node14" class="node">
<title>vmtk</title>
<g id="a_node14"><a xlink:href="https://github.com/conda-forge/vmtk-feedstock" xlink:title="vmtk">
<ellipse fill="#35b779" stroke="black" cx="649.58" cy="-306" rx="36.48" ry="18"/>
<text text-anchor="middle" x="649.58" y="-301.32" font-family="Times,serif" font-size="14.00">vmtk</text>
</a>
</g>
</g>
<!-- visan&#45;&gt;vmtk -->
<!-- pycgns -->
<g id="node12" class="node">
<title>pycgns</title>
<g id="a_node12"><a xlink:href="https://github.com/conda-forge/pycgns-feedstock" xlink:title="pycgns">
<ellipse fill="#35b779" stroke="black" cx="816.58" cy="-342" rx="46.47" ry="18"/>
<text text-anchor="middle" x="816.58" y="-337.32" font-family="Times,serif" font-size="14.00">pycgns</text>
</a>
</g>
</g>
<!-- muscat&#45;split -->
<g id="node13" class="node">
<title>muscat&#45;split</title>
<g id="a_node13"><a xlink:href="https://github.com/conda-forge/muscat-split-feedstock" xlink:title="muscat split">
<ellipse fill="#fde725" stroke="black" cx="816.58" cy="-270" rx="72.78" ry="18"/>
<text text-anchor="middle" x="816.58" y="-265.32" font-family="Times,serif" font-size="14.00">muscat split</text>
</a>
</g>
</g>
<!-- pycgns&#45;&gt;muscat&#45;split -->
<g id="edge11" class="edge">
<title>pycgns&#45;&gt;muscat&#45;split</title>
<path fill="none" stroke="black" d="M816.58,-323.7C816.58,-316.41 816.58,-307.73 816.58,-299.54"/>
<polygon fill="black" stroke="black" points="820.08,-299.62 816.58,-289.62 813.08,-299.62 820.08,-299.62"/>
</g>
<!-- pyg4ometry -->
<g id="node15" class="node">
<title>pyg4ometry</title>
<g id="a_node15"><a xlink:href="https://github.com/conda-forge/pyg4ometry-feedstock" xlink:title="pyg4ometry">
<ellipse fill="#35b779" stroke="black" cx="649.58" cy="-234" rx="71.73" ry="18"/>
<text text-anchor="middle" x="649.58" y="-229.32" font-family="Times,serif" font-size="14.00">pyg4ometry</text>
</a>
</g>
</g>
<!-- vmtk&#45;&gt;pyg4ometry -->
<!-- vtkbool -->
<g id="node16" class="node">
<title>vtkbool</title>
<g id="a_node16"><a xlink:href="https://github.com/conda-forge/vtkbool-feedstock" xlink:title="vtkbool">
<ellipse fill="#35b779" stroke="black" cx="649.58" cy="-162" rx="48.05" ry="18"/>
<text text-anchor="middle" x="649.58" y="-157.32" font-family="Times,serif" font-size="14.00">vtkbool</text>
</a>
</g>
</g>
<!-- pyg4ometry&#45;&gt;vtkbool -->
<!-- open3d -->
<g id="node17" class="node">
<title>open3d</title>
<g id="a_node17"><a xlink:href="https://github.com/conda-forge/open3d-feedstock" xlink:title="open3d">
<ellipse fill="#35b779" stroke="black" cx="649.58" cy="-90" rx="48.05" ry="18"/>
<text text-anchor="middle" x="649.58" y="-85.33" font-family="Times,serif" font-size="14.00">open3d</text>
</a>
</g>
</g>
<!-- vtkbool&#45;&gt;open3d -->
<!-- ogs -->
<g id="node18" class="node">
<title>ogs</title>
<g id="a_node18"><a xlink:href="https://github.com/conda-forge/ogs-feedstock" xlink:title="ogs">
<ellipse fill="#35b779" stroke="black" cx="649.58" cy="-18" rx="28.59" ry="18"/>
<text text-anchor="middle" x="649.58" y="-13.32" font-family="Times,serif" font-size="14.00">ogs</text>
</a>
</g>
</g>
<!-- open3d&#45;&gt;ogs -->
</g>
</svg>
