<?xml version="1.0" encoding="UTF-8" standalone="no"?>
<!DOCTYPE svg PUBLIC "-//W3C//DTD SVG 1.1//EN"
 "http://www.w3.org/Graphics/SVG/1.1/DTD/svg11.dtd">
<!-- Generated by graphviz version 12.0.0 (20240803.0821)
 -->
<!-- Pages: 1 -->
<svg width="937pt" height="548pt"
 viewBox="0.00 0.00 937.06 548.00" xmlns="http://www.w3.org/2000/svg" xmlns:xlink="http://www.w3.org/1999/xlink">
<g id="graph0" class="graph" transform="scale(1 1) rotate(0) translate(4 544)">
<polygon fill="white" stroke="none" points="-4,4 -4,-544 933.06,-544 933.06,4 -4,4"/>
<!-- occt -->
<g id="node1" class="node">
<title>occt</title>
<g id="a_node1"><a xlink:href="https://github.com/conda-forge/occt-feedstock/pull/115" xlink:title="occt ✓">
<ellipse fill="#31688e" stroke="black" cx="300.49" cy="-342" rx="39.63" ry="18"/>
<text text-anchor="middle" x="300.49" y="-337.32" font-family="Times,serif" font-size="14.00" fill="white">occt ✓</text>
</a>
</g>
</g>
<!-- smesh -->
<g id="node2" class="node">
<title>smesh</title>
<g id="a_node2"><a xlink:href="https://github.com/conda-forge/smesh-feedstock" xlink:title="smesh">
<ellipse fill="#fde725" stroke="black" cx="229.49" cy="-270" rx="43.32" ry="18"/>
<text text-anchor="middle" x="229.49" y="-265.32" font-family="Times,serif" font-size="14.00">smesh</text>
</a>
</g>
</g>
<!-- occt&#45;&gt;smesh -->
<g id="edge1" class="edge">
<title>occt&#45;&gt;smesh</title>
<path fill="none" stroke="black" d="M284.38,-325.12C275.3,-316.17 263.79,-304.81 253.65,-294.81"/>
<polygon fill="black" stroke="black" points="256.2,-292.41 246.62,-287.88 251.28,-297.4 256.2,-292.41"/>
</g>
<!-- freecad -->
<g id="node3" class="node">
<title>freecad</title>
<g id="a_node3"><a xlink:href="https://github.com/conda-forge/freecad-feedstock" xlink:title="freecad">
<ellipse fill="#fde725" stroke="black" cx="229.49" cy="-198" rx="48.58" ry="18"/>
<text text-anchor="middle" x="229.49" y="-193.32" font-family="Times,serif" font-size="14.00">freecad</text>
</a>
</g>
</g>
<!-- occt&#45;&gt;freecad -->
<g id="edge2" class="edge">
<title>occt&#45;&gt;freecad</title>
<path fill="none" stroke="black" d="M299.65,-323.62C298.11,-304.93 293.76,-274.82 281.49,-252 275.62,-241.07 266.81,-230.87 258.11,-222.39"/>
<polygon fill="black" stroke="black" points="260.73,-220.05 251.01,-215.85 255.99,-225.2 260.73,-220.05"/>
</g>
<!-- ocp -->
<g id="node4" class="node">
<title>ocp</title>
<g id="a_node4"><a xlink:href="https://github.com/conda-forge/ocp-feedstock" xlink:title="ocp">
<ellipse fill="#fde725" stroke="black" cx="669.49" cy="-198" rx="28.59" ry="18"/>
<text text-anchor="middle" x="669.49" y="-193.32" font-family="Times,serif" font-size="14.00">ocp</text>
</a>
</g>
</g>
<!-- occt&#45;&gt;ocp -->
<g id="edge3" class="edge">
<title>occt&#45;&gt;ocp</title>
<path fill="none" stroke="black" d="M333.17,-331.44C366.49,-321.45 419.54,-304.91 464.49,-288 540.14,-259.54 557.49,-248.5 631.49,-216 633.02,-215.33 634.59,-214.64 636.17,-213.94"/>
<polygon fill="black" stroke="black" points="637.51,-217.17 645.23,-209.91 634.67,-210.78 637.51,-217.17"/>
</g>
<!-- smesh&#45;&gt;freecad -->
<g id="edge4" class="edge">
<title>smesh&#45;&gt;freecad</title>
<path fill="none" stroke="black" d="M229.49,-251.7C229.49,-244.41 229.49,-235.73 229.49,-227.54"/>
<polygon fill="black" stroke="black" points="232.99,-227.62 229.49,-217.62 225.99,-227.62 232.99,-227.62"/>
</g>
<!-- pcl -->
<g id="node5" class="node">
<title>pcl</title>
<g id="a_node5"><a xlink:href="https://github.com/conda-forge/pcl-feedstock/pull/75" xlink:title="pcl ❎">
<ellipse fill="#31688e" stroke="black" cx="414.49" cy="-270" rx="41.21" ry="18"/>
<text text-anchor="middle" x="414.49" y="-265.32" font-family="Times,serif" font-size="14.00" fill="white">pcl ❎</text>
</a>
</g>
</g>
<!-- pcl&#45;&gt;freecad -->
<g id="edge5" class="edge">
<title>pcl&#45;&gt;freecad</title>
<path fill="none" stroke="black" d="M383.94,-257.44C353.76,-246.02 307.27,-228.43 273.18,-215.53"/>
<polygon fill="black" stroke="black" points="274.6,-212.32 264,-212.06 272.12,-218.87 274.6,-212.32"/>
</g>
<!-- bipedal&#45;locomotion&#45;framework -->
<g id="node6" class="node">
<title>bipedal&#45;locomotion&#45;framework</title>
<g id="a_node6"><a xlink:href="https://github.com/conda-forge/bipedal-locomotion-framework-feedstock" xlink:title="bipedal locomotion framework">
<ellipse fill="#fde725" stroke="black" cx="459.49" cy="-198" rx="163.27" ry="18"/>
<text text-anchor="middle" x="459.49" y="-193.32" font-family="Times,serif" font-size="14.00">bipedal locomotion framework</text>
</a>
</g>
</g>
<!-- pcl&#45;&gt;bipedal&#45;locomotion&#45;framework -->
<g id="edge6" class="edge">
<title>pcl&#45;&gt;bipedal&#45;locomotion&#45;framework</title>
<path fill="none" stroke="black" d="M425.16,-252.41C430.22,-244.54 436.4,-234.93 442.11,-226.04"/>
<polygon fill="black" stroke="black" points="445,-228.02 447.46,-217.72 439.11,-224.24 445,-228.02"/>
</g>
<!-- bonsu -->
<g id="node7" class="node">
<title>bonsu</title>
<g id="a_node7"><a xlink:href="https://github.com/conda-forge/bonsu-feedstock" xlink:title="bonsu">
<ellipse fill="#35b779" stroke="black" cx="86.46" cy="-522" rx="41.21" ry="18"/>
<text text-anchor="middle" x="86.46" y="-517.33" font-family="Times,serif" font-size="14.00">bonsu</text>
</a>
</g>
</g>
<!-- topologytoolkit -->
<g id="node8" class="node">
<title>topologytoolkit</title>
<g id="a_node8"><a xlink:href="https://github.com/conda-forge/topologytoolkit-feedstock" xlink:title="topologytoolkit">
<ellipse fill="#35b779" stroke="black" cx="86.46" cy="-450" rx="86.46" ry="18"/>
<text text-anchor="middle" x="86.46" y="-445.32" font-family="Times,serif" font-size="14.00">topologytoolkit</text>
</a>
</g>
</g>
<!-- bonsu&#45;&gt;topologytoolkit -->
<!-- python&#45;mint -->
<g id="node9" class="node">
<title>python&#45;mint</title>
<g id="a_node9"><a xlink:href="https://github.com/conda-forge/python-mint-feedstock" xlink:title="python mint">
<ellipse fill="#35b779" stroke="black" cx="86.46" cy="-378" rx="72.25" ry="18"/>
<text text-anchor="middle" x="86.46" y="-373.32" font-family="Times,serif" font-size="14.00">python mint</text>
</a>
</g>
</g>
<!-- topologytoolkit&#45;&gt;python&#45;mint -->
<!-- visan -->
<g id="node11" class="node">
<title>visan</title>
<g id="a_node11"><a xlink:href="https://github.com/conda-forge/visan-feedstock" xlink:title="visan">
<ellipse fill="#35b779" stroke="black" cx="86.46" cy="-306" rx="37.53" ry="18"/>
<text text-anchor="middle" x="86.46" y="-301.32" font-family="Times,serif" font-size="14.00">visan</text>
</a>
</g>
</g>
<!-- python&#45;mint&#45;&gt;visan -->
<!-- basictools -->
<g id="node10" class="node">
<title>basictools</title>
<g id="a_node10"><a xlink:href="https://github.com/conda-forge/basictools-feedstock" xlink:title="basictools">
<ellipse fill="#fde725" stroke="black" cx="767.28" cy="-270" rx="61.2" ry="18"/>
<text text-anchor="middle" x="767.28" y="-265.32" font-family="Times,serif" font-size="14.00">basictools</text>
</a>
</g>
</g>
<!-- vmtk -->
<g id="node14" class="node">
<title>vmtk</title>
<g id="a_node14"><a xlink:href="https://github.com/conda-forge/vmtk-feedstock" xlink:title="vmtk">
<ellipse fill="#35b779" stroke="black" cx="86.46" cy="-234" rx="36.48" ry="18"/>
<text text-anchor="middle" x="86.46" y="-229.32" font-family="Times,serif" font-size="14.00">vmtk</text>
</a>
</g>
</g>
<!-- visan&#45;&gt;vmtk -->
<!-- pycgns -->
<g id="node12" class="node">
<title>pycgns</title>
<g id="a_node12"><a xlink:href="https://github.com/conda-forge/pycgns-feedstock/pull/30" xlink:title="pycgns ❎">
<ellipse fill="#31688e" stroke="black" cx="811.28" cy="-342" rx="61.73" ry="18"/>
<text text-anchor="middle" x="811.28" y="-337.32" font-family="Times,serif" font-size="14.00" fill="white">pycgns ❎</text>
</a>
</g>
</g>
<!-- pycgns&#45;&gt;basictools -->
<g id="edge10" class="edge">
<title>pycgns&#45;&gt;basictools</title>
<path fill="none" stroke="black" d="M800.63,-324.05C795.61,-316.06 789.49,-306.33 783.88,-297.4"/>
<polygon fill="black" stroke="black" points="786.93,-295.67 778.64,-289.07 781,-299.4 786.93,-295.67"/>
</g>
<!-- muscat&#45;split -->
<g id="node13" class="node">
<title>muscat&#45;split</title>
<g id="a_node13"><a xlink:href="https://github.com/conda-forge/muscat-split-feedstock" xlink:title="muscat split">
<ellipse fill="#fde725" stroke="black" cx="856.28" cy="-198" rx="72.78" ry="18"/>
<text text-anchor="middle" x="856.28" y="-193.32" font-family="Times,serif" font-size="14.00">muscat split</text>
</a>
</g>
</g>
<!-- pycgns&#45;&gt;muscat&#45;split -->
<g id="edge11" class="edge">
<title>pycgns&#45;&gt;muscat&#45;split</title>
<path fill="none" stroke="black" d="M821.07,-323.8C826.49,-313.65 832.99,-300.4 837.28,-288 844.08,-268.35 848.92,-245.38 852,-227.69"/>
<polygon fill="black" stroke="black" points="855.44,-228.33 853.62,-217.9 848.54,-227.19 855.44,-228.33"/>
</g>
<!-- pyg4ometry -->
<g id="node15" class="node">
<title>pyg4ometry</title>
<g id="a_node15"><a xlink:href="https://github.com/conda-forge/pyg4ometry-feedstock" xlink:title="pyg4ometry">
<ellipse fill="#35b779" stroke="black" cx="86.46" cy="-162" rx="71.73" ry="18"/>
<text text-anchor="middle" x="86.46" y="-157.32" font-family="Times,serif" font-size="14.00">pyg4ometry</text>
</a>
</g>
</g>
<!-- vmtk&#45;&gt;pyg4ometry -->
<!-- vtkbool -->
<g id="node16" class="node">
<title>vtkbool</title>
<g id="a_node16"><a xlink:href="https://github.com/conda-forge/vtkbool-feedstock" xlink:title="vtkbool">
<ellipse fill="#35b779" stroke="black" cx="86.46" cy="-90" rx="48.05" ry="18"/>
<text text-anchor="middle" x="86.46" y="-85.33" font-family="Times,serif" font-size="14.00">vtkbool</text>
</a>
</g>
</g>
<!-- pyg4ometry&#45;&gt;vtkbool -->
<!-- open3d -->
<g id="node17" class="node">
<title>open3d</title>
<g id="a_node17"><a xlink:href="https://github.com/conda-forge/open3d-feedstock" xlink:title="open3d">
<ellipse fill="#35b779" stroke="black" cx="86.46" cy="-18" rx="48.05" ry="18"/>
<text text-anchor="middle" x="86.46" y="-13.32" font-family="Times,serif" font-size="14.00">open3d</text>
</a>
</g>
</g>
<!-- vtkbool&#45;&gt;open3d -->
</g>
</svg>
