<?xml version="1.0" encoding="UTF-8" standalone="no"?>
<!DOCTYPE svg PUBLIC "-//W3C//DTD SVG 1.1//EN"
 "http://www.w3.org/Graphics/SVG/1.1/DTD/svg11.dtd">
<!-- Generated by graphviz version 12.0.0 (20240803.0821)
 -->
<!-- Pages: 1 -->
<svg width="3100pt" height="764pt"
 viewBox="0.00 0.00 3099.99 764.00" xmlns="http://www.w3.org/2000/svg" xmlns:xlink="http://www.w3.org/1999/xlink">
<g id="graph0" class="graph" transform="scale(1 1) rotate(0) translate(4 760)">
<polygon fill="white" stroke="none" points="-4,4 -4,-760 3095.99,-760 3095.99,4 -4,4"/>
<!-- avrocpp -->
<g id="node1" class="node">
<title>avrocpp</title>
<g id="a_node1"><a xlink:href="https://github.com/conda-forge/avrocpp-feedstock" xlink:title="avrocpp">
<ellipse fill="#fde725" stroke="black" cx="799.74" cy="-414" rx="51.21" ry="18"/>
<text text-anchor="middle" x="799.74" y="-409.32" font-family="Times,serif" font-size="14.00">avrocpp</text>
</a>
</g>
</g>
<!-- boost -->
<g id="node2" class="node">
<title>boost</title>
<g id="a_node2"><a xlink:href="https://github.com/conda-forge/boost-feedstock" xlink:title="boost">
<ellipse fill="#fde725" stroke="black" cx="894.74" cy="-486" rx="38.58" ry="18"/>
<text text-anchor="middle" x="894.74" y="-481.32" font-family="Times,serif" font-size="14.00">boost</text>
</a>
</g>
</g>
<!-- boost&#45;&gt;avrocpp -->
<g id="edge1" class="edge">
<title>boost&#45;&gt;avrocpp</title>
<path fill="none" stroke="black" d="M874.59,-470.15C861.72,-460.67 844.79,-448.2 830.29,-437.51"/>
<polygon fill="black" stroke="black" points="832.52,-434.81 822.4,-431.69 828.37,-440.44 832.52,-434.81"/>
</g>
<!-- gdal -->
<g id="node3" class="node">
<title>gdal</title>
<g id="a_node3"><a xlink:href="https://github.com/conda-forge/gdal-feedstock" xlink:title="gdal">
<ellipse fill="#fde725" stroke="black" cx="1071.74" cy="-414" rx="32.79" ry="18"/>
<text text-anchor="middle" x="1071.74" y="-409.32" font-family="Times,serif" font-size="14.00">gdal</text>
</a>
</g>
</g>
<!-- boost&#45;&gt;gdal -->
<g id="edge2" class="edge">
<title>boost&#45;&gt;gdal</title>
<path fill="none" stroke="black" d="M923.74,-473.72C951.1,-463.04 993.25,-446.55 1029.74,-432 1031.63,-431.25 1033.57,-430.47 1035.52,-429.69"/>
<polygon fill="black" stroke="black" points="1036.62,-433.02 1044.59,-426.04 1034,-426.53 1036.62,-433.02"/>
</g>
<!-- paraview -->
<g id="node4" class="node">
<title>paraview</title>
<g id="a_node4"><a xlink:href="https://github.com/conda-forge/paraview-feedstock" xlink:title="paraview">
<ellipse fill="#fde725" stroke="black" cx="963.74" cy="-414" rx="57" ry="18"/>
<text text-anchor="middle" x="963.74" y="-409.32" font-family="Times,serif" font-size="14.00">paraview</text>
</a>
</g>
</g>
<!-- boost&#45;&gt;paraview -->
<g id="edge3" class="edge">
<title>boost&#45;&gt;paraview</title>
<path fill="none" stroke="black" d="M910.4,-469.12C919.09,-460.29 930.1,-449.13 939.85,-439.24"/>
<polygon fill="black" stroke="black" points="942.07,-441.96 946.6,-432.38 937.09,-437.05 942.07,-441.96"/>
</g>
<!-- nix -->
<g id="node5" class="node">
<title>nix</title>
<g id="a_node5"><a xlink:href="https://github.com/conda-forge/nix-feedstock" xlink:title="nix">
<ellipse fill="#fde725" stroke="black" cx="703.74" cy="-414" rx="27" ry="18"/>
<text text-anchor="middle" x="703.74" y="-409.32" font-family="Times,serif" font-size="14.00">nix</text>
</a>
</g>
</g>
<!-- boost&#45;&gt;nix -->
<g id="edge4" class="edge">
<title>boost&#45;&gt;nix</title>
<path fill="none" stroke="black" d="M863.19,-475.35C831.6,-465.43 781.77,-449.05 739.74,-432 738.22,-431.38 736.67,-430.73 735.11,-430.06"/>
<polygon fill="black" stroke="black" points="736.82,-427 726.26,-426.09 733.95,-433.38 736.82,-427"/>
</g>
<!-- folly -->
<g id="node6" class="node">
<title>folly</title>
<g id="a_node6"><a xlink:href="https://github.com/conda-forge/folly-feedstock" xlink:title="folly">
<ellipse fill="#fde725" stroke="black" cx="878.74" cy="-342" rx="32.79" ry="18"/>
<text text-anchor="middle" x="878.74" y="-337.32" font-family="Times,serif" font-size="14.00">folly</text>
</a>
</g>
</g>
<!-- boost&#45;&gt;folly -->
<g id="edge5" class="edge">
<title>boost&#45;&gt;folly</title>
<path fill="none" stroke="black" d="M892.78,-467.59C890.07,-443.61 885.18,-400.14 881.94,-371.42"/>
<polygon fill="black" stroke="black" points="885.43,-371.16 880.84,-361.61 878.48,-371.94 885.43,-371.16"/>
</g>
<!-- chemfiles&#45;lib -->
<g id="node7" class="node">
<title>chemfiles&#45;lib</title>
<g id="a_node7"><a xlink:href="https://github.com/conda-forge/chemfiles-lib-feedstock" xlink:title="chemfiles lib">
<ellipse fill="#35b779" stroke="black" cx="2860.39" cy="-738" rx="74.36" ry="18"/>
<text text-anchor="middle" x="2860.39" y="-733.33" font-family="Times,serif" font-size="14.00">chemfiles lib</text>
</a>
</g>
</g>
<!-- giza -->
<g id="node8" class="node">
<title>giza</title>
<g id="a_node8"><a xlink:href="https://github.com/conda-forge/giza-feedstock" xlink:title="giza">
<ellipse fill="#35b779" stroke="black" cx="2860.39" cy="-666" rx="31.74" ry="18"/>
<text text-anchor="middle" x="2860.39" y="-661.33" font-family="Times,serif" font-size="14.00">giza</text>
</a>
</g>
</g>
<!-- chemfiles&#45;lib&#45;&gt;giza -->
<!-- sox -->
<g id="node19" class="node">
<title>sox</title>
<g id="a_node19"><a xlink:href="https://github.com/conda-forge/sox-feedstock" xlink:title="sox">
<ellipse fill="#35b779" stroke="black" cx="2860.39" cy="-594" rx="28.06" ry="18"/>
<text text-anchor="middle" x="2860.39" y="-589.33" font-family="Times,serif" font-size="14.00">sox</text>
</a>
</g>
</g>
<!-- giza&#45;&gt;sox -->
<!-- elfutils -->
<g id="node9" class="node">
<title>elfutils</title>
<g id="a_node9"><a xlink:href="https://github.com/conda-forge/elfutils-feedstock" xlink:title="elfutils">
<ellipse fill="#35b779" stroke="black" cx="2554.74" cy="-558" rx="45.95" ry="18"/>
<text text-anchor="middle" x="2554.74" y="-553.33" font-family="Times,serif" font-size="14.00">elfutils</text>
</a>
</g>
</g>
<!-- rpm&#45;tools -->
<g id="node10" class="node">
<title>rpm&#45;tools</title>
<g id="a_node10"><a xlink:href="https://github.com/conda-forge/rpm-tools-feedstock" xlink:title="rpm tools">
<ellipse fill="#fde725" stroke="black" cx="2684.74" cy="-486" rx="59.1" ry="18"/>
<text text-anchor="middle" x="2684.74" y="-481.32" font-family="Times,serif" font-size="14.00">rpm tools</text>
</a>
</g>
</g>
<!-- elfutils&#45;&gt;rpm&#45;tools -->
<g id="edge7" class="edge">
<title>elfutils&#45;&gt;rpm&#45;tools</title>
<path fill="none" stroke="black" d="M2581.05,-542.83C2599.92,-532.67 2625.63,-518.83 2646.73,-507.46"/>
<polygon fill="black" stroke="black" points="2648.19,-510.65 2655.34,-502.83 2644.87,-504.49 2648.19,-510.65"/>
</g>
<!-- systemd -->
<g id="node11" class="node">
<title>systemd</title>
<g id="a_node11"><a xlink:href="https://github.com/conda-forge/systemd-feedstock" xlink:title="systemd">
<ellipse fill="#fde725" stroke="black" cx="2554.74" cy="-486" rx="53.31" ry="18"/>
<text text-anchor="middle" x="2554.74" y="-481.32" font-family="Times,serif" font-size="14.00">systemd</text>
</a>
</g>
</g>
<!-- elfutils&#45;&gt;systemd -->
<g id="edge8" class="edge">
<title>elfutils&#45;&gt;systemd</title>
<path fill="none" stroke="black" d="M2554.74,-539.7C2554.74,-532.41 2554.74,-523.73 2554.74,-515.54"/>
<polygon fill="black" stroke="black" points="2558.24,-515.62 2554.74,-505.62 2551.24,-515.62 2558.24,-515.62"/>
</g>
<!-- linux&#45;perf -->
<g id="node12" class="node">
<title>linux&#45;perf</title>
<g id="a_node12"><a xlink:href="https://github.com/conda-forge/linux-perf-feedstock" xlink:title="linux perf">
<ellipse fill="#fde725" stroke="black" cx="2423.74" cy="-486" rx="59.63" ry="18"/>
<text text-anchor="middle" x="2423.74" y="-481.32" font-family="Times,serif" font-size="14.00">linux perf</text>
</a>
</g>
</g>
<!-- elfutils&#45;&gt;linux&#45;perf -->
<g id="edge9" class="edge">
<title>elfutils&#45;&gt;linux&#45;perf</title>
<path fill="none" stroke="black" d="M2528.23,-542.83C2509.21,-532.67 2483.3,-518.83 2462.04,-507.46"/>
<polygon fill="black" stroke="black" points="2463.83,-504.45 2453.36,-502.83 2460.53,-510.63 2463.83,-504.45"/>
</g>
<!-- createrepo_c -->
<g id="node13" class="node">
<title>createrepo_c</title>
<g id="a_node13"><a xlink:href="https://github.com/conda-forge/createrepo_c-feedstock" xlink:title="createrepo_c">
<ellipse fill="#fde725" stroke="black" cx="2618.74" cy="-342" rx="75.41" ry="18"/>
<text text-anchor="middle" x="2618.74" y="-337.32" font-family="Times,serif" font-size="14.00">createrepo_c</text>
</a>
</g>
</g>
<!-- rpm&#45;tools&#45;&gt;createrepo_c -->
<g id="edge10" class="edge">
<title>rpm&#45;tools&#45;&gt;createrepo_c</title>
<path fill="none" stroke="black" d="M2683.67,-467.74C2681.94,-449.15 2677.42,-419.13 2665.74,-396 2660.63,-385.9 2653.13,-376.21 2645.6,-367.94"/>
<polygon fill="black" stroke="black" points="2648.36,-365.76 2638.9,-360.98 2643.31,-370.61 2648.36,-365.76"/>
</g>
<!-- drpm -->
<g id="node14" class="node">
<title>drpm</title>
<g id="a_node14"><a xlink:href="https://github.com/conda-forge/drpm-feedstock" xlink:title="drpm">
<ellipse fill="#fde725" stroke="black" cx="2618.74" cy="-414" rx="38.06" ry="18"/>
<text text-anchor="middle" x="2618.74" y="-409.32" font-family="Times,serif" font-size="14.00">drpm</text>
</a>
</g>
</g>
<!-- rpm&#45;tools&#45;&gt;drpm -->
<g id="edge11" class="edge">
<title>rpm&#45;tools&#45;&gt;drpm</title>
<path fill="none" stroke="black" d="M2669.1,-468.41C2660.84,-459.66 2650.56,-448.75 2641.44,-439.08"/>
<polygon fill="black" stroke="black" points="2644.26,-436.96 2634.85,-432.09 2639.16,-441.77 2644.26,-436.96"/>
</g>
<!-- drpm&#45;&gt;createrepo_c -->
<g id="edge66" class="edge">
<title>drpm&#45;&gt;createrepo_c</title>
<path fill="none" stroke="black" d="M2618.74,-395.7C2618.74,-388.41 2618.74,-379.73 2618.74,-371.54"/>
<polygon fill="black" stroke="black" points="2622.24,-371.62 2618.74,-361.62 2615.24,-371.62 2622.24,-371.62"/>
</g>
<!-- ffmpeg -->
<g id="node15" class="node">
<title>ffmpeg</title>
<g id="a_node15"><a xlink:href="https://github.com/conda-forge/ffmpeg-feedstock" xlink:title="ffmpeg">
<ellipse fill="#fde725" stroke="black" cx="1675.74" cy="-486" rx="45.95" ry="18"/>
<text text-anchor="middle" x="1675.74" y="-481.32" font-family="Times,serif" font-size="14.00">ffmpeg</text>
</a>
</g>
</g>
<!-- mpv -->
<g id="node16" class="node">
<title>mpv</title>
<g id="a_node16"><a xlink:href="https://github.com/conda-forge/mpv-feedstock" xlink:title="mpv">
<ellipse fill="#fde725" stroke="black" cx="1789.74" cy="-414" rx="32.79" ry="18"/>
<text text-anchor="middle" x="1789.74" y="-409.32" font-family="Times,serif" font-size="14.00">mpv</text>
</a>
</g>
</g>
<!-- ffmpeg&#45;&gt;mpv -->
<g id="edge12" class="edge">
<title>ffmpeg&#45;&gt;mpv</title>
<path fill="none" stroke="black" d="M1699.64,-470.33C1716.82,-459.77 1740.16,-445.44 1758.77,-434.01"/>
<polygon fill="black" stroke="black" points="1760.58,-437.01 1767.27,-428.8 1756.92,-431.05 1760.58,-437.01"/>
</g>
<!-- torchaudio -->
<g id="node17" class="node">
<title>torchaudio</title>
<g id="a_node17"><a xlink:href="https://github.com/conda-forge/torchaudio-feedstock" xlink:title="torchaudio">
<ellipse fill="#fde725" stroke="black" cx="1673.74" cy="-414" rx="64.89" ry="18"/>
<text text-anchor="middle" x="1673.74" y="-409.32" font-family="Times,serif" font-size="14.00">torchaudio</text>
</a>
</g>
</g>
<!-- ffmpeg&#45;&gt;torchaudio -->
<g id="edge13" class="edge">
<title>ffmpeg&#45;&gt;torchaudio</title>
<path fill="none" stroke="black" d="M1675.24,-467.7C1675.04,-460.41 1674.79,-451.73 1674.55,-443.54"/>
<polygon fill="black" stroke="black" points="1678.05,-443.51 1674.27,-433.62 1671.06,-443.71 1678.05,-443.51"/>
</g>
<!-- gdb -->
<g id="node18" class="node">
<title>gdb</title>
<g id="a_node18"><a xlink:href="https://github.com/conda-forge/gdb-feedstock" xlink:title="gdb">
<ellipse fill="#fde725" stroke="black" cx="1429.74" cy="-486" rx="30.16" ry="18"/>
<text text-anchor="middle" x="1429.74" y="-481.32" font-family="Times,serif" font-size="14.00">gdb</text>
</a>
</g>
</g>
<!-- the_silver_searcher -->
<g id="node50" class="node">
<title>the_silver_searcher</title>
<g id="a_node50"><a xlink:href="https://github.com/conda-forge/the_silver_searcher-feedstock" xlink:title="the_silver_searcher">
<ellipse fill="#35b779" stroke="black" cx="2860.39" cy="-522" rx="108.55" ry="18"/>
<text text-anchor="middle" x="2860.39" y="-517.33" font-family="Times,serif" font-size="14.00">the_silver_searcher</text>
</a>
</g>
</g>
<!-- sox&#45;&gt;the_silver_searcher -->
<!-- glibmm -->
<g id="node20" class="node">
<title>glibmm</title>
<g id="a_node20"><a xlink:href="https://github.com/conda-forge/glibmm-feedstock" xlink:title="glibmm">
<ellipse fill="#fde725" stroke="black" cx="1541.74" cy="-414" rx="49.1" ry="18"/>
<text text-anchor="middle" x="1541.74" y="-409.32" font-family="Times,serif" font-size="14.00">glibmm</text>
</a>
</g>
</g>
<!-- imagemagick -->
<g id="node21" class="node">
<title>imagemagick</title>
<g id="a_node21"><a xlink:href="https://github.com/conda-forge/imagemagick-feedstock" xlink:title="imagemagick">
<ellipse fill="#fde725" stroke="black" cx="1532.74" cy="-342" rx="77.52" ry="18"/>
<text text-anchor="middle" x="1532.74" y="-337.32" font-family="Times,serif" font-size="14.00">imagemagick</text>
</a>
</g>
</g>
<!-- octave -->
<g id="node22" class="node">
<title>octave</title>
<g id="a_node22"><a xlink:href="https://github.com/conda-forge/octave-feedstock" xlink:title="octave">
<ellipse fill="#fde725" stroke="black" cx="1367.74" cy="-270" rx="43.84" ry="18"/>
<text text-anchor="middle" x="1367.74" y="-265.32" font-family="Times,serif" font-size="14.00">octave</text>
</a>
</g>
</g>
<!-- python -->
<g id="node23" class="node">
<title>python</title>
<g id="a_node23"><a xlink:href="https://github.com/conda-forge/python-feedstock" xlink:title="python">
<ellipse fill="#35b779" stroke="black" cx="1400.74" cy="-558" rx="45.95" ry="18"/>
<text text-anchor="middle" x="1400.74" y="-553.33" font-family="Times,serif" font-size="14.00">python</text>
</a>
</g>
</g>
<!-- python&#45;&gt;boost -->
<g id="edge15" class="edge">
<title>python&#45;&gt;boost</title>
<path fill="none" stroke="black" d="M1356.38,-552.91C1278.3,-545.41 1111.34,-527.98 971.74,-504 961.24,-502.2 950,-499.92 939.45,-497.62"/>
<polygon fill="black" stroke="black" points="940.34,-494.23 929.81,-495.47 938.81,-501.06 940.34,-494.23"/>
</g>
<!-- python&#45;&gt;gdal -->
<g id="edge16" class="edge">
<title>python&#45;&gt;gdal</title>
<path fill="none" stroke="black" d="M1354.76,-555.94C1275.55,-553.09 1118.35,-542.59 1081.74,-504 1066.76,-488.21 1065.17,-463.09 1066.81,-443.55"/>
<polygon fill="black" stroke="black" points="1070.27,-444.09 1067.97,-433.75 1063.32,-443.26 1070.27,-444.09"/>
</g>
<!-- python&#45;&gt;paraview -->
<g id="edge17" class="edge">
<title>python&#45;&gt;paraview</title>
<path fill="none" stroke="black" d="M1354.31,-557.9C1286.81,-557.44 1159.16,-549.85 1062.74,-504 1031.47,-489.13 1002.89,-461.18 984.56,-440.55"/>
<polygon fill="black" stroke="black" points="987.3,-438.37 978.11,-433.09 982,-442.94 987.3,-438.37"/>
</g>
<!-- python&#45;&gt;nix -->
<g id="edge18" class="edge">
<title>python&#45;&gt;nix</title>
<path fill="none" stroke="black" d="M1355.13,-555.32C1240.1,-550.66 940.67,-535.76 846.74,-504 801.64,-488.75 756.07,-456.9 728.86,-435.73"/>
<polygon fill="black" stroke="black" points="731.23,-433.15 721.22,-429.68 726.89,-438.63 731.23,-433.15"/>
</g>
<!-- python&#45;&gt;rpm&#45;tools -->
<g id="edge19" class="edge">
<title>python&#45;&gt;rpm&#45;tools</title>
<path fill="none" stroke="black" d="M1446.78,-556.23C1639.79,-552.83 2384.49,-537.74 2616.74,-504 2621.61,-503.29 2626.64,-502.38 2631.66,-501.35"/>
<polygon fill="black" stroke="black" points="2632.08,-504.85 2641.08,-499.27 2630.56,-498.01 2632.08,-504.85"/>
</g>
<!-- python&#45;&gt;systemd -->
<g id="edge20" class="edge">
<title>python&#45;&gt;systemd</title>
<path fill="none" stroke="black" d="M1446.91,-556.11C1627.53,-552.4 2286.44,-536.88 2492.74,-504 2496.84,-503.35 2501.05,-502.52 2505.27,-501.6"/>
<polygon fill="black" stroke="black" points="2505.95,-505.03 2514.86,-499.29 2504.32,-498.23 2505.95,-505.03"/>
</g>
<!-- python&#45;&gt;linux&#45;perf -->
<g id="edge21" class="edge">
<title>python&#45;&gt;linux&#45;perf</title>
<path fill="none" stroke="black" d="M1446.93,-557.19C1584.85,-557.17 2005.41,-552.8 2349.74,-504 2355.86,-503.13 2362.21,-502.01 2368.52,-500.76"/>
<polygon fill="black" stroke="black" points="2369.21,-504.2 2378.27,-498.71 2367.76,-497.35 2369.21,-504.2"/>
</g>
<!-- python&#45;&gt;createrepo_c -->
<g id="edge41" class="edge">
<title>python&#45;&gt;createrepo_c</title>
<path fill="none" stroke="black" d="M1447.07,-556.77C1605.63,-555.61 2125.54,-548.4 2285.74,-504 2319.07,-494.76 2323.77,-483.4 2354.74,-468 2431.62,-429.76 2522.3,-387.42 2574.89,-363.13"/>
<polygon fill="black" stroke="black" points="2576.21,-366.38 2583.82,-359.01 2573.28,-360.02 2576.21,-366.38"/>
</g>
<!-- python&#45;&gt;ffmpeg -->
<g id="edge22" class="edge">
<title>python&#45;&gt;ffmpeg</title>
<path fill="none" stroke="black" d="M1439.29,-547.92C1482.4,-537.67 1554.23,-520.29 1615.74,-504 1619.97,-502.88 1624.37,-501.69 1628.77,-500.47"/>
<polygon fill="black" stroke="black" points="1629.47,-503.91 1638.17,-497.86 1627.59,-497.17 1629.47,-503.91"/>
</g>
<!-- python&#45;&gt;mpv -->
<g id="edge23" class="edge">
<title>python&#45;&gt;mpv</title>
<path fill="none" stroke="black" d="M1445.99,-554.2C1525.07,-548.59 1684.4,-533.85 1730.74,-504 1753.46,-489.36 1769.44,-462.53 1778.98,-442.14"/>
<polygon fill="black" stroke="black" points="1782.06,-443.83 1782.9,-433.27 1775.66,-441 1782.06,-443.83"/>
</g>
<!-- python&#45;&gt;torchaudio -->
<g id="edge24" class="edge">
<title>python&#45;&gt;torchaudio</title>
<path fill="none" stroke="black" d="M1439.56,-547.88C1472.48,-539.24 1520.34,-524.54 1558.74,-504 1592,-486.21 1625.61,-458.87 1647.83,-439.19"/>
<polygon fill="black" stroke="black" points="1650.12,-441.83 1655.21,-432.54 1645.44,-436.63 1650.12,-441.83"/>
</g>
<!-- python&#45;&gt;gdb -->
<g id="edge25" class="edge">
<title>python&#45;&gt;gdb</title>
<path fill="none" stroke="black" d="M1407.76,-540.05C1410.96,-532.32 1414.84,-522.96 1418.44,-514.27"/>
<polygon fill="black" stroke="black" points="1421.61,-515.77 1422.2,-505.19 1415.14,-513.09 1421.61,-515.77"/>
</g>
<!-- python&#45;&gt;glibmm -->
<g id="edge26" class="edge">
<title>python&#45;&gt;glibmm</title>
<path fill="none" stroke="black" d="M1445.3,-552.83C1477.28,-547.27 1518.37,-534.28 1539.74,-504 1552,-486.62 1551.66,-462.2 1548.72,-443.33"/>
<polygon fill="black" stroke="black" points="1552.18,-442.8 1546.86,-433.63 1545.3,-444.11 1552.18,-442.8"/>
</g>
<!-- python&#45;&gt;imagemagick -->
<g id="edge27" class="edge">
<title>python&#45;&gt;imagemagick</title>
<path fill="none" stroke="black" d="M1439.1,-547.57C1461.58,-539.86 1488.16,-526.45 1501.74,-504 1510.02,-490.31 1505.41,-483.57 1501.74,-468 1497.63,-450.59 1487.85,-449.41 1483.74,-432 1480.06,-416.43 1477.91,-410.9 1483.74,-396 1487.87,-385.43 1495.21,-375.71 1502.97,-367.56"/>
<polygon fill="black" stroke="black" points="1505.28,-370.2 1510.01,-360.72 1500.4,-365.18 1505.28,-370.2"/>
</g>
<!-- python&#45;&gt;octave -->
<g id="edge28" class="edge">
<title>python&#45;&gt;octave</title>
<path fill="none" stroke="black" d="M1428.43,-543.41C1443.33,-534.46 1460.33,-521.21 1468.74,-504 1475.76,-489.62 1471.92,-483.68 1468.74,-468 1454.91,-399.88 1442.49,-384.19 1407.74,-324 1402.29,-314.57 1395.42,-304.88 1388.92,-296.41"/>
<polygon fill="black" stroke="black" points="1391.71,-294.31 1382.76,-288.63 1386.22,-298.65 1391.71,-294.31"/>
</g>
<!-- r&#45;base -->
<g id="node24" class="node">
<title>r&#45;base</title>
<g id="a_node24"><a xlink:href="https://github.com/conda-forge/r-base-feedstock" xlink:title="r base">
<ellipse fill="#fde725" stroke="black" cx="1301.74" cy="-486" rx="42.26" ry="18"/>
<text text-anchor="middle" x="1301.74" y="-481.32" font-family="Times,serif" font-size="14.00">r base</text>
</a>
</g>
</g>
<!-- python&#45;&gt;r&#45;base -->
<g id="edge29" class="edge">
<title>python&#45;&gt;r&#45;base</title>
<path fill="none" stroke="black" d="M1379.26,-541.81C1365.41,-532.02 1347.2,-519.15 1331.92,-508.34"/>
<polygon fill="black" stroke="black" points="1334.26,-505.71 1324.07,-502.79 1330.22,-511.42 1334.26,-505.71"/>
</g>
<!-- scotch -->
<g id="node25" class="node">
<title>scotch</title>
<g id="a_node25"><a xlink:href="https://github.com/conda-forge/scotch-feedstock" xlink:title="scotch">
<ellipse fill="#fde725" stroke="black" cx="681.74" cy="-270" rx="43.32" ry="18"/>
<text text-anchor="middle" x="681.74" y="-265.32" font-family="Times,serif" font-size="14.00">scotch</text>
</a>
</g>
</g>
<!-- python&#45;&gt;scotch -->
<g id="edge30" class="edge">
<title>python&#45;&gt;scotch</title>
<path fill="none" stroke="black" d="M1354.54,-556.15C1228.34,-553.35 880.04,-542.28 772.74,-504 759.41,-499.25 674.33,-444.52 667.74,-432 645.42,-389.63 659.09,-332.18 670.68,-298.6"/>
<polygon fill="black" stroke="black" points="673.82,-300.2 673.95,-289.6 667.24,-297.8 673.82,-300.2"/>
</g>
<!-- squash -->
<g id="node26" class="node">
<title>squash</title>
<g id="a_node26"><a xlink:href="https://github.com/conda-forge/squash-feedstock" xlink:title="squash">
<ellipse fill="#fde725" stroke="black" cx="610.74" cy="-198" rx="46.47" ry="18"/>
<text text-anchor="middle" x="610.74" y="-193.32" font-family="Times,serif" font-size="14.00">squash</text>
</a>
</g>
</g>
<!-- python&#45;&gt;squash -->
<g id="edge31" class="edge">
<title>python&#45;&gt;squash</title>
<path fill="none" stroke="black" d="M1354.43,-557C1196.32,-556.57 684.5,-551.5 629.74,-504 599.19,-477.5 610.74,-455.45 610.74,-415 610.74,-415 610.74,-415 610.74,-341 610.74,-301.74 610.74,-256.38 610.74,-227.69"/>
<polygon fill="black" stroke="black" points="614.24,-228 610.74,-218 607.24,-228 614.24,-228"/>
</g>
<!-- lldb -->
<g id="node27" class="node">
<title>lldb</title>
<g id="a_node27"><a xlink:href="https://github.com/conda-forge/lldb-feedstock" xlink:title="lldb">
<ellipse fill="#fde725" stroke="black" cx="668.74" cy="-486" rx="30.16" ry="18"/>
<text text-anchor="middle" x="668.74" y="-481.32" font-family="Times,serif" font-size="14.00">lldb</text>
</a>
</g>
</g>
<!-- python&#45;&gt;lldb -->
<g id="edge32" class="edge">
<title>python&#45;&gt;lldb</title>
<path fill="none" stroke="black" d="M1354.92,-555.21C1221.62,-549.74 835.71,-531.86 712.74,-504 709.59,-503.29 706.38,-502.39 703.18,-501.39"/>
<polygon fill="black" stroke="black" points="704.57,-498.17 693.98,-498.15 702.25,-504.77 704.57,-498.17"/>
</g>
<!-- z5py -->
<g id="node28" class="node">
<title>z5py</title>
<g id="a_node28"><a xlink:href="https://github.com/conda-forge/z5py-feedstock" xlink:title="z5py">
<ellipse fill="#fde725" stroke="black" cx="547.74" cy="-414" rx="34.9" ry="18"/>
<text text-anchor="middle" x="547.74" y="-409.32" font-family="Times,serif" font-size="14.00">z5py</text>
</a>
</g>
</g>
<!-- python&#45;&gt;z5py -->
<g id="edge33" class="edge">
<title>python&#45;&gt;z5py</title>
<path fill="none" stroke="black" d="M1354.62,-556.52C1193.32,-554.48 660.73,-544.72 596.74,-504 575.24,-490.32 562.4,-463.74 555.3,-443.18"/>
<polygon fill="black" stroke="black" points="558.64,-442.13 552.29,-433.64 551.96,-444.23 558.64,-442.13"/>
</g>
<!-- graphicsmagick -->
<g id="node29" class="node">
<title>graphicsmagick</title>
<g id="a_node29"><a xlink:href="https://github.com/conda-forge/graphicsmagick-feedstock" xlink:title="graphicsmagick">
<ellipse fill="#fde725" stroke="black" cx="1308.74" cy="-342" rx="90.14" ry="18"/>
<text text-anchor="middle" x="1308.74" y="-337.32" font-family="Times,serif" font-size="14.00">graphicsmagick</text>
</a>
</g>
</g>
<!-- python&#45;&gt;graphicsmagick -->
<g id="edge34" class="edge">
<title>python&#45;&gt;graphicsmagick</title>
<path fill="none" stroke="black" d="M1397.48,-539.66C1389.7,-498.38 1370.64,-397.57 1369.74,-396 1363.3,-384.83 1353.63,-374.85 1343.87,-366.65"/>
<polygon fill="black" stroke="black" points="1346.18,-364.02 1336.16,-360.57 1341.85,-369.51 1346.18,-364.02"/>
</g>
<!-- ghc -->
<g id="node30" class="node">
<title>ghc</title>
<g id="a_node30"><a xlink:href="https://github.com/conda-forge/ghc-feedstock" xlink:title="ghc">
<ellipse fill="#fde725" stroke="black" cx="484.74" cy="-270" rx="29.11" ry="18"/>
<text text-anchor="middle" x="484.74" y="-265.32" font-family="Times,serif" font-size="14.00">ghc</text>
</a>
</g>
</g>
<!-- python&#45;&gt;ghc -->
<g id="edge35" class="edge">
<title>python&#45;&gt;ghc</title>
<path fill="none" stroke="black" d="M1354.59,-556.25C1189.19,-553.25 632.25,-540.52 561.74,-504 488.74,-466.19 482.04,-352.99 483.17,-299.54"/>
<polygon fill="black" stroke="black" points="486.66,-299.83 483.49,-289.72 479.66,-299.59 486.66,-299.83"/>
</g>
<!-- root -->
<g id="node31" class="node">
<title>root</title>
<g id="a_node31"><a xlink:href="https://github.com/conda-forge/root-feedstock" xlink:title="root">
<ellipse fill="#fde725" stroke="black" cx="1235.74" cy="-414" rx="31.74" ry="18"/>
<text text-anchor="middle" x="1235.74" y="-409.32" font-family="Times,serif" font-size="14.00">root</text>
</a>
</g>
</g>
<!-- python&#45;&gt;root -->
<g id="edge36" class="edge">
<title>python&#45;&gt;root</title>
<path fill="none" stroke="black" d="M1356.18,-553.2C1322.14,-547.85 1276.78,-534.97 1250.74,-504 1236.78,-487.39 1233.53,-462.71 1233.49,-443.55"/>
<polygon fill="black" stroke="black" points="1236.99,-443.79 1233.79,-433.69 1229.99,-443.58 1236.99,-443.79"/>
</g>
<!-- scilab -->
<g id="node32" class="node">
<title>scilab</title>
<g id="a_node32"><a xlink:href="https://github.com/conda-forge/scilab-feedstock" xlink:title="scilab">
<ellipse fill="#fde725" stroke="black" cx="356.74" cy="-198" rx="40.16" ry="18"/>
<text text-anchor="middle" x="356.74" y="-193.32" font-family="Times,serif" font-size="14.00">scilab</text>
</a>
</g>
</g>
<!-- python&#45;&gt;scilab -->
<g id="edge37" class="edge">
<title>python&#45;&gt;scilab</title>
<path fill="none" stroke="black" d="M1354.51,-556.43C1155.82,-553.75 382.9,-540.97 347.74,-504 328.97,-484.27 346.16,-299.49 353.65,-227.51"/>
<polygon fill="black" stroke="black" points="357.11,-228.02 354.68,-217.71 350.15,-227.29 357.11,-228.02"/>
</g>
<!-- pypy3.6 -->
<g id="node33" class="node">
<title>pypy3.6</title>
<g id="a_node33"><a xlink:href="https://github.com/conda-forge/pypy3.6-feedstock" xlink:title="pypy3 6">
<ellipse fill="#fde725" stroke="black" cx="1152.74" cy="-486" rx="51.21" ry="18"/>
<text text-anchor="middle" x="1152.74" y="-481.32" font-family="Times,serif" font-size="14.00">pypy3 6</text>
</a>
</g>
</g>
<!-- python&#45;&gt;pypy3.6 -->
<g id="edge38" class="edge">
<title>python&#45;&gt;pypy3.6</title>
<path fill="none" stroke="black" d="M1364.15,-546.67C1321.36,-534.59 1250.33,-514.55 1202.54,-501.06"/>
<polygon fill="black" stroke="black" points="1203.56,-497.71 1192.98,-498.36 1201.66,-504.44 1203.56,-497.71"/>
</g>
<!-- imagecodecs -->
<g id="node34" class="node">
<title>imagecodecs</title>
<g id="a_node34"><a xlink:href="https://github.com/conda-forge/imagecodecs-feedstock" xlink:title="imagecodecs">
<ellipse fill="#fde725" stroke="black" cx="431.74" cy="-486" rx="75.41" ry="18"/>
<text text-anchor="middle" x="431.74" y="-481.32" font-family="Times,serif" font-size="14.00">imagecodecs</text>
</a>
</g>
</g>
<!-- python&#45;&gt;imagecodecs -->
<g id="edge39" class="edge">
<title>python&#45;&gt;imagecodecs</title>
<path fill="none" stroke="black" d="M1354.74,-556.31C1223.82,-553.9 838.15,-543.71 520.74,-504 513.29,-503.07 505.53,-501.89 497.83,-500.6"/>
<polygon fill="black" stroke="black" points="498.58,-497.18 488.13,-498.89 497.37,-504.07 498.58,-497.18"/>
</g>
<!-- wxwidgets -->
<g id="node35" class="node">
<title>wxwidgets</title>
<g id="a_node35"><a xlink:href="https://github.com/conda-forge/wxwidgets-feedstock" xlink:title="wxwidgets">
<ellipse fill="#fde725" stroke="black" cx="263.74" cy="-414" rx="64.89" ry="18"/>
<text text-anchor="middle" x="263.74" y="-409.32" font-family="Times,serif" font-size="14.00">wxwidgets</text>
</a>
</g>
</g>
<!-- python&#45;&gt;wxwidgets -->
<g id="edge40" class="edge">
<title>python&#45;&gt;wxwidgets</title>
<path fill="none" stroke="black" d="M1354.41,-557.33C1158.54,-558.39 404.28,-558.85 314.74,-504 292.7,-490.5 279.26,-463.7 271.75,-443.03"/>
<polygon fill="black" stroke="black" points="275.13,-442.11 268.65,-433.73 268.49,-444.32 275.13,-442.11"/>
</g>
<!-- dask&#45;sql -->
<g id="node36" class="node">
<title>dask&#45;sql</title>
<g id="a_node36"><a xlink:href="https://github.com/conda-forge/dask-sql-feedstock" xlink:title="dask sql">
<ellipse fill="#fde725" stroke="black" cx="191.74" cy="-342" rx="52.26" ry="18"/>
<text text-anchor="middle" x="191.74" y="-337.32" font-family="Times,serif" font-size="14.00">dask sql</text>
</a>
</g>
</g>
<!-- python&#45;&gt;dask&#45;sql -->
<g id="edge42" class="edge">
<title>python&#45;&gt;dask&#45;sql</title>
<path fill="none" stroke="black" d="M1354.77,-556.48C1156.8,-554.03 382.37,-542.06 280.74,-504 232.44,-485.91 212.2,-478.42 189.74,-432 180.68,-413.28 181.7,-389.66 184.7,-371.46"/>
<polygon fill="black" stroke="black" points="188.09,-372.35 186.58,-361.87 181.22,-371.01 188.09,-372.35"/>
</g>
<!-- gtkwave -->
<g id="node37" class="node">
<title>gtkwave</title>
<g id="a_node37"><a xlink:href="https://github.com/conda-forge/gtkwave-feedstock" xlink:title="gtkwave">
<ellipse fill="#fde725" stroke="black" cx="111.74" cy="-270" rx="53.31" ry="18"/>
<text text-anchor="middle" x="111.74" y="-265.32" font-family="Times,serif" font-size="14.00">gtkwave</text>
</a>
</g>
</g>
<!-- python&#45;&gt;gtkwave -->
<g id="edge43" class="edge">
<title>python&#45;&gt;gtkwave</title>
<path fill="none" stroke="black" d="M1354.75,-556.21C1141.73,-552.39 259.16,-534.76 209.74,-504 138.51,-459.67 119.01,-351.61 113.71,-299.73"/>
<polygon fill="black" stroke="black" points="117.2,-299.55 112.82,-289.9 110.23,-300.18 117.2,-299.55"/>
</g>
<!-- tomviz -->
<g id="node38" class="node">
<title>tomviz</title>
<g id="a_node38"><a xlink:href="https://github.com/conda-forge/tomviz-feedstock" xlink:title="tomviz">
<ellipse fill="#fde725" stroke="black" cx="2250.74" cy="-198" rx="44.9" ry="18"/>
<text text-anchor="middle" x="2250.74" y="-193.32" font-family="Times,serif" font-size="14.00">tomviz</text>
</a>
</g>
</g>
<!-- python&#45;&gt;tomviz -->
<g id="edge44" class="edge">
<title>python&#45;&gt;tomviz</title>
<path fill="none" stroke="black" d="M1446.87,-557.21C1609.44,-557.51 2149.03,-554.64 2205.74,-504 2246.41,-467.68 2250.85,-295.94 2250.96,-227.38"/>
<polygon fill="black" stroke="black" points="2254.46,-227.7 2250.95,-217.71 2247.46,-227.71 2254.46,-227.7"/>
</g>
<!-- clad -->
<g id="node39" class="node">
<title>clad</title>
<g id="a_node39"><a xlink:href="https://github.com/conda-forge/clad-feedstock" xlink:title="clad">
<ellipse fill="#fde725" stroke="black" cx="1154.74" cy="-414" rx="31.74" ry="18"/>
<text text-anchor="middle" x="1154.74" y="-409.32" font-family="Times,serif" font-size="14.00">clad</text>
</a>
</g>
</g>
<!-- python&#45;&gt;clad -->
<g id="edge45" class="edge">
<title>python&#45;&gt;clad</title>
<path fill="none" stroke="black" d="M1354.66,-556.05C1277.11,-553.36 1125.69,-543.11 1092.74,-504 1073.69,-481.4 1101.31,-453.06 1125.52,-434.51"/>
<polygon fill="black" stroke="black" points="1127.31,-437.54 1133.31,-428.81 1123.18,-431.89 1127.31,-437.54"/>
</g>
<!-- kenlm -->
<g id="node40" class="node">
<title>kenlm</title>
<g id="a_node40"><a xlink:href="https://github.com/conda-forge/kenlm-feedstock" xlink:title="kenlm">
<ellipse fill="#fde725" stroke="black" cx="41.74" cy="-486" rx="41.74" ry="18"/>
<text text-anchor="middle" x="41.74" y="-481.32" font-family="Times,serif" font-size="14.00">kenlm</text>
</a>
</g>
</g>
<!-- python&#45;&gt;kenlm -->
<g id="edge46" class="edge">
<title>python&#45;&gt;kenlm</title>
<path fill="none" stroke="black" d="M1354.45,-556.69C1152.43,-555.1 346.92,-546.18 97.74,-504 93.36,-503.26 88.84,-502.27 84.35,-501.15"/>
<polygon fill="black" stroke="black" points="85.42,-497.81 74.85,-498.53 83.56,-504.56 85.42,-497.81"/>
</g>
<!-- biobear -->
<g id="node41" class="node">
<title>biobear</title>
<g id="a_node41"><a xlink:href="https://github.com/conda-forge/biobear-feedstock" xlink:title="biobear">
<ellipse fill="#fde725" stroke="black" cx="2317.74" cy="-414" rx="49.1" ry="18"/>
<text text-anchor="middle" x="2317.74" y="-409.32" font-family="Times,serif" font-size="14.00">biobear</text>
</a>
</g>
</g>
<!-- python&#45;&gt;biobear -->
<g id="edge47" class="edge">
<title>python&#45;&gt;biobear</title>
<path fill="none" stroke="black" d="M1446.93,-556.45C1614.46,-554.13 2184.02,-543.41 2254.74,-504 2279.1,-490.42 2296.29,-463 2306.49,-442.16"/>
<polygon fill="black" stroke="black" points="2309.54,-443.89 2310.55,-433.35 2303.19,-440.96 2309.54,-443.89"/>
</g>
<!-- deltalake -->
<g id="node42" class="node">
<title>deltalake</title>
<g id="a_node42"><a xlink:href="https://github.com/conda-forge/deltalake-feedstock" xlink:title="deltalake">
<ellipse fill="#fde725" stroke="black" cx="2165.74" cy="-342" rx="57" ry="18"/>
<text text-anchor="middle" x="2165.74" y="-337.32" font-family="Times,serif" font-size="14.00">deltalake</text>
</a>
</g>
</g>
<!-- python&#45;&gt;deltalake -->
<g id="edge48" class="edge">
<title>python&#45;&gt;deltalake</title>
<path fill="none" stroke="black" d="M1447.04,-557.45C1607.58,-558.53 2133.36,-557.91 2183.74,-504 2217.33,-468.06 2196.62,-406.08 2180.12,-370.41"/>
<polygon fill="black" stroke="black" points="2183.37,-369.09 2175.87,-361.61 2177.07,-372.14 2183.37,-369.09"/>
</g>
<!-- tensorstore -->
<g id="node43" class="node">
<title>tensorstore</title>
<g id="a_node43"><a xlink:href="https://github.com/conda-forge/tensorstore-feedstock" xlink:title="tensorstore">
<ellipse fill="#fde725" stroke="black" cx="2139.74" cy="-270" rx="69.1" ry="18"/>
<text text-anchor="middle" x="2139.74" y="-265.32" font-family="Times,serif" font-size="14.00">tensorstore</text>
</a>
</g>
</g>
<!-- python&#45;&gt;tensorstore -->
<g id="edge49" class="edge">
<title>python&#45;&gt;tensorstore</title>
<path fill="none" stroke="black" d="M1446.68,-555.83C1583.26,-551.99 1980.15,-537.99 2026.74,-504 2096.48,-453.12 2057.39,-399.23 2099.74,-324 2105,-314.66 2111.71,-305.11 2118.14,-296.74"/>
<polygon fill="black" stroke="black" points="2120.76,-299.06 2124.23,-289.04 2115.28,-294.71 2120.76,-299.06"/>
</g>
<!-- cpprate -->
<g id="node44" class="node">
<title>cpprate</title>
<g id="a_node44"><a xlink:href="https://github.com/conda-forge/cpprate-feedstock" xlink:title="cpprate">
<ellipse fill="#fde725" stroke="black" cx="2042.74" cy="-198" rx="49.63" ry="18"/>
<text text-anchor="middle" x="2042.74" y="-193.32" font-family="Times,serif" font-size="14.00">cpprate</text>
</a>
</g>
</g>
<!-- python&#45;&gt;cpprate -->
<g id="edge50" class="edge">
<title>python&#45;&gt;cpprate</title>
<path fill="none" stroke="black" d="M1446.49,-555.77C1558.89,-552.23 1845.79,-539.84 1933.74,-504 1981.18,-484.67 1999.69,-477.23 2023.74,-432 2058.98,-365.72 2053.22,-273.58 2047.3,-227.55"/>
<polygon fill="black" stroke="black" points="2050.8,-227.29 2045.95,-217.87 2043.87,-228.25 2050.8,-227.29"/>
</g>
<!-- getdaft -->
<g id="node45" class="node">
<title>getdaft</title>
<g id="a_node45"><a xlink:href="https://github.com/conda-forge/getdaft-feedstock" xlink:title="getdaft">
<ellipse fill="#fde725" stroke="black" cx="2126.74" cy="-486" rx="47.53" ry="18"/>
<text text-anchor="middle" x="2126.74" y="-481.32" font-family="Times,serif" font-size="14.00">getdaft</text>
</a>
</g>
</g>
<!-- python&#45;&gt;getdaft -->
<g id="edge51" class="edge">
<title>python&#45;&gt;getdaft</title>
<path fill="none" stroke="black" d="M1446.6,-556.3C1554.94,-554 1834.93,-544.31 2064.74,-504 2069.63,-503.14 2074.7,-502.07 2079.73,-500.88"/>
<polygon fill="black" stroke="black" points="2080.3,-504.35 2089.14,-498.5 2078.59,-497.56 2080.3,-504.35"/>
</g>
<!-- elegant -->
<g id="node46" class="node">
<title>elegant</title>
<g id="a_node46"><a xlink:href="https://github.com/conda-forge/elegant-feedstock" xlink:title="elegant">
<ellipse fill="#fde725" stroke="black" cx="1965.74" cy="-414" rx="48.58" ry="18"/>
<text text-anchor="middle" x="1965.74" y="-409.32" font-family="Times,serif" font-size="14.00">elegant</text>
</a>
</g>
</g>
<!-- python&#45;&gt;elegant -->
<g id="edge52" class="edge">
<title>python&#45;&gt;elegant</title>
<path fill="none" stroke="black" d="M1446.91,-556.9C1555.97,-555.93 1826.08,-548.91 1902.74,-504 1926.55,-490.05 1943.68,-463.12 1954,-442.52"/>
<polygon fill="black" stroke="black" points="1957.16,-444.05 1958.27,-433.51 1950.83,-441.05 1957.16,-444.05"/>
</g>
<!-- bfiocpp -->
<g id="node47" class="node">
<title>bfiocpp</title>
<g id="a_node47"><a xlink:href="https://github.com/conda-forge/bfiocpp-feedstock" xlink:title="bfiocpp">
<ellipse fill="#fde725" stroke="black" cx="1926.74" cy="-342" rx="47.53" ry="18"/>
<text text-anchor="middle" x="1926.74" y="-337.32" font-family="Times,serif" font-size="14.00">bfiocpp</text>
</a>
</g>
</g>
<!-- python&#45;&gt;bfiocpp -->
<g id="edge53" class="edge">
<title>python&#45;&gt;bfiocpp</title>
<path fill="none" stroke="black" d="M1446.86,-557.62C1551,-558.1 1800.29,-553.86 1864.74,-504 1867.52,-501.85 1899.52,-416.39 1916.42,-370.88"/>
<polygon fill="black" stroke="black" points="1919.64,-372.25 1919.84,-361.66 1913.08,-369.82 1919.64,-372.25"/>
</g>
<!-- ugrep -->
<g id="node48" class="node">
<title>ugrep</title>
<g id="a_node48"><a xlink:href="https://github.com/conda-forge/ugrep-feedstock" xlink:title="ugrep">
<ellipse fill="#fde725" stroke="black" cx="1850.74" cy="-270" rx="40.69" ry="18"/>
<text text-anchor="middle" x="1850.74" y="-265.32" font-family="Times,serif" font-size="14.00">ugrep</text>
</a>
</g>
</g>
<!-- python&#45;&gt;ugrep -->
<g id="edge54" class="edge">
<title>python&#45;&gt;ugrep</title>
<path fill="none" stroke="black" d="M1445.86,-553.94C1529.82,-547.65 1706.44,-531.53 1760.74,-504 1800.82,-483.68 1812.27,-472.51 1831.74,-432 1852.26,-389.3 1854.01,-333.14 1852.8,-299.69"/>
<polygon fill="black" stroke="black" points="1856.31,-299.79 1852.32,-289.97 1849.32,-300.13 1856.31,-299.79"/>
</g>
<!-- r&#45;base&#45;&gt;root -->
<g id="edge55" class="edge">
<title>r&#45;base&#45;&gt;root</title>
<path fill="none" stroke="black" d="M1286.43,-468.76C1277.95,-459.77 1267.25,-448.42 1257.87,-438.48"/>
<polygon fill="black" stroke="black" points="1260.5,-436.17 1251.1,-431.29 1255.41,-440.97 1260.5,-436.17"/>
</g>
<!-- r&#45;xslt -->
<g id="node49" class="node">
<title>r&#45;xslt</title>
<g id="a_node49"><a xlink:href="https://github.com/conda-forge/r-xslt-feedstock" xlink:title="r xslt">
<ellipse fill="#fde725" stroke="black" cx="1322.74" cy="-414" rx="37.53" ry="18"/>
<text text-anchor="middle" x="1322.74" y="-409.32" font-family="Times,serif" font-size="14.00">r xslt</text>
</a>
</g>
</g>
<!-- r&#45;base&#45;&gt;r&#45;xslt -->
<g id="edge56" class="edge">
<title>r&#45;base&#45;&gt;r&#45;xslt</title>
<path fill="none" stroke="black" d="M1306.93,-467.7C1309.17,-460.24 1311.84,-451.32 1314.35,-442.97"/>
<polygon fill="black" stroke="black" points="1317.65,-444.14 1317.17,-433.55 1310.95,-442.13 1317.65,-444.14"/>
</g>
<!-- graphicsmagick&#45;&gt;octave -->
<g id="edge57" class="edge">
<title>graphicsmagick&#45;&gt;octave</title>
<path fill="none" stroke="black" d="M1323.02,-324.05C1330.15,-315.59 1338.92,-305.19 1346.8,-295.84"/>
<polygon fill="black" stroke="black" points="1349.25,-298.37 1353.02,-288.46 1343.9,-293.85 1349.25,-298.37"/>
</g>
<!-- pypy3.6&#45;&gt;root -->
<g id="edge58" class="edge">
<title>pypy3.6&#45;&gt;root</title>
<path fill="none" stroke="black" d="M1171.57,-469.12C1182.96,-459.51 1197.64,-447.13 1210.09,-436.63"/>
<polygon fill="black" stroke="black" points="1212.13,-439.49 1217.52,-430.37 1207.61,-434.14 1212.13,-439.49"/>
</g>
<!-- pypy3.6&#45;&gt;clad -->
<g id="edge59" class="edge">
<title>pypy3.6&#45;&gt;clad</title>
<path fill="none" stroke="black" d="M1153.23,-467.7C1153.44,-460.41 1153.69,-451.73 1153.92,-443.54"/>
<polygon fill="black" stroke="black" points="1157.42,-443.71 1154.21,-433.62 1150.42,-443.51 1157.42,-443.71"/>
</g>
<!-- squashfs&#45;tools -->
<g id="node51" class="node">
<title>squashfs&#45;tools</title>
<g id="a_node51"><a xlink:href="https://github.com/conda-forge/squashfs-tools-feedstock" xlink:title="squashfs tools">
<ellipse fill="#35b779" stroke="black" cx="2860.39" cy="-450" rx="82.77" ry="18"/>
<text text-anchor="middle" x="2860.39" y="-445.32" font-family="Times,serif" font-size="14.00">squashfs tools</text>
</a>
</g>
</g>
<!-- the_silver_searcher&#45;&gt;squashfs&#45;tools -->
<!-- libtiledb&#45;sql -->
<g id="node54" class="node">
<title>libtiledb&#45;sql</title>
<g id="a_node54"><a xlink:href="https://github.com/conda-forge/libtiledb-sql-feedstock" xlink:title="libtiledb sql">
<ellipse fill="#35b779" stroke="black" cx="2860.39" cy="-378" rx="70.68" ry="18"/>
<text text-anchor="middle" x="2860.39" y="-373.32" font-family="Times,serif" font-size="14.00">libtiledb sql</text>
</a>
</g>
</g>
<!-- squashfs&#45;tools&#45;&gt;libtiledb&#45;sql -->
<!-- leptonica -->
<g id="node52" class="node">
<title>leptonica</title>
<g id="a_node52"><a xlink:href="https://github.com/conda-forge/leptonica-feedstock" xlink:title="leptonica">
<ellipse fill="#35b779" stroke="black" cx="3034.47" cy="-414" rx="57" ry="18"/>
<text text-anchor="middle" x="3034.47" y="-409.32" font-family="Times,serif" font-size="14.00">leptonica</text>
</a>
</g>
</g>
<!-- tesseract -->
<g id="node53" class="node">
<title>tesseract</title>
<g id="a_node53"><a xlink:href="https://github.com/conda-forge/tesseract-feedstock" xlink:title="tesseract">
<ellipse fill="#fde725" stroke="black" cx="3034.47" cy="-342" rx="57.52" ry="18"/>
<text text-anchor="middle" x="3034.47" y="-337.32" font-family="Times,serif" font-size="14.00">tesseract</text>
</a>
</g>
</g>
<!-- leptonica&#45;&gt;tesseract -->
<g id="edge62" class="edge">
<title>leptonica&#45;&gt;tesseract</title>
<path fill="none" stroke="black" d="M3034.47,-395.7C3034.47,-388.41 3034.47,-379.73 3034.47,-371.54"/>
<polygon fill="black" stroke="black" points="3037.97,-371.62 3034.47,-361.62 3030.97,-371.62 3037.97,-371.62"/>
</g>
<!-- karchive -->
<g id="node55" class="node">
<title>karchive</title>
<g id="a_node55"><a xlink:href="https://github.com/conda-forge/karchive-feedstock" xlink:title="karchive">
<ellipse fill="#35b779" stroke="black" cx="2860.39" cy="-306" rx="53.84" ry="18"/>
<text text-anchor="middle" x="2860.39" y="-301.32" font-family="Times,serif" font-size="14.00">karchive</text>
</a>
</g>
</g>
<!-- libtiledb&#45;sql&#45;&gt;karchive -->
<!-- shrinkwrap -->
<g id="node56" class="node">
<title>shrinkwrap</title>
<g id="a_node56"><a xlink:href="https://github.com/conda-forge/shrinkwrap-feedstock" xlink:title="shrinkwrap">
<ellipse fill="#35b779" stroke="black" cx="2860.39" cy="-234" rx="68.04" ry="18"/>
<text text-anchor="middle" x="2860.39" y="-229.32" font-family="Times,serif" font-size="14.00">shrinkwrap</text>
</a>
</g>
</g>
<!-- karchive&#45;&gt;shrinkwrap -->
<!-- squashfuse -->
<g id="node57" class="node">
<title>squashfuse</title>
<g id="a_node57"><a xlink:href="https://github.com/conda-forge/squashfuse-feedstock" xlink:title="squashfuse">
<ellipse fill="#35b779" stroke="black" cx="2860.39" cy="-162" rx="67.52" ry="18"/>
<text text-anchor="middle" x="2860.39" y="-157.32" font-family="Times,serif" font-size="14.00">squashfuse</text>
</a>
</g>
</g>
<!-- shrinkwrap&#45;&gt;squashfuse -->
<!-- libxmlsec1 -->
<g id="node58" class="node">
<title>libxmlsec1</title>
<g id="a_node58"><a xlink:href="https://github.com/conda-forge/libxmlsec1-feedstock/pull/38" xlink:title="libxmlsec1 ❎">
<ellipse fill="#31688e" stroke="black" cx="2860.39" cy="-90" rx="80.14" ry="18"/>
<text text-anchor="middle" x="2860.39" y="-85.33" font-family="Times,serif" font-size="14.00" fill="white">libxmlsec1 ❎</text>
</a>
</g>
</g>
<!-- squashfuse&#45;&gt;libxmlsec1 -->
<!-- libzio -->
<g id="node59" class="node">
<title>libzio</title>
<g id="a_node59"><a xlink:href="https://github.com/conda-forge/libzio-feedstock" xlink:title="libzio">
<ellipse fill="#35b779" stroke="black" cx="2860.39" cy="-18" rx="38.06" ry="18"/>
<text text-anchor="middle" x="2860.39" y="-13.32" font-family="Times,serif" font-size="14.00">libzio</text>
</a>
</g>
</g>
<!-- libxmlsec1&#45;&gt;libzio -->
</g>
</svg>
