<?xml version="1.0" encoding="UTF-8" standalone="no"?>
<!DOCTYPE svg PUBLIC "-//W3C//DTD SVG 1.1//EN"
 "http://www.w3.org/Graphics/SVG/1.1/DTD/svg11.dtd">
<!-- Generated by graphviz version 12.0.0 (20240803.0821)
 -->
<!-- Pages: 1 -->
<svg width="3057pt" height="808pt"
 viewBox="0.00 0.00 3056.99 808.00" xmlns="http://www.w3.org/2000/svg" xmlns:xlink="http://www.w3.org/1999/xlink">
<g id="graph0" class="graph" transform="scale(1 1) rotate(0) translate(4 804)">
<polygon fill="white" stroke="none" points="-4,4 -4,-804 3052.99,-804 3052.99,4 -4,4"/>
<!-- avrocpp -->
<g id="node1" class="node">
<title>avrocpp</title>
<g id="a_node1"><a xlink:href="https://github.com/conda-forge/avrocpp-feedstock" xlink:title="avrocpp">
<ellipse fill="#fde725" stroke="black" cx="799.74" cy="-422" rx="51.21" ry="18"/>
<text text-anchor="middle" x="799.74" y="-417.32" font-family="Times,serif" font-size="14.00">avrocpp</text>
</a>
</g>
</g>
<!-- boost -->
<g id="node2" class="node">
<title>boost</title>
<g id="a_node2"><a xlink:href="https://github.com/conda-forge/boost-feedstock" xlink:title="boost">
<ellipse fill="#fde725" stroke="black" cx="892.74" cy="-494" rx="38.58" ry="18"/>
<text text-anchor="middle" x="892.74" y="-489.32" font-family="Times,serif" font-size="14.00">boost</text>
</a>
</g>
</g>
<!-- boost&#45;&gt;avrocpp -->
<g id="edge1" class="edge">
<title>boost&#45;&gt;avrocpp</title>
<path fill="none" stroke="black" d="M873.02,-478.15C860.42,-468.67 843.85,-456.2 829.65,-445.51"/>
<polygon fill="black" stroke="black" points="832.03,-442.92 821.93,-439.71 827.82,-448.52 832.03,-442.92"/>
</g>
<!-- gdal -->
<g id="node3" class="node">
<title>gdal</title>
<g id="a_node3"><a xlink:href="https://github.com/conda-forge/gdal-feedstock" xlink:title="gdal">
<ellipse fill="#fde725" stroke="black" cx="1071.74" cy="-422" rx="32.79" ry="18"/>
<text text-anchor="middle" x="1071.74" y="-417.32" font-family="Times,serif" font-size="14.00">gdal</text>
</a>
</g>
</g>
<!-- boost&#45;&gt;gdal -->
<g id="edge2" class="edge">
<title>boost&#45;&gt;gdal</title>
<path fill="none" stroke="black" d="M921.92,-481.86C949.69,-471.22 992.63,-454.69 1029.74,-440 1031.63,-439.25 1033.57,-438.48 1035.53,-437.7"/>
<polygon fill="black" stroke="black" points="1036.62,-441.03 1044.59,-434.06 1034.01,-434.54 1036.62,-441.03"/>
</g>
<!-- paraview -->
<g id="node4" class="node">
<title>paraview</title>
<g id="a_node4"><a xlink:href="https://github.com/conda-forge/paraview-feedstock" xlink:title="paraview">
<ellipse fill="#fde725" stroke="black" cx="963.74" cy="-422" rx="57" ry="18"/>
<text text-anchor="middle" x="963.74" y="-417.32" font-family="Times,serif" font-size="14.00">paraview</text>
</a>
</g>
</g>
<!-- boost&#45;&gt;paraview -->
<g id="edge3" class="edge">
<title>boost&#45;&gt;paraview</title>
<path fill="none" stroke="black" d="M908.5,-477.46C917.43,-468.65 928.82,-457.43 938.93,-447.46"/>
<polygon fill="black" stroke="black" points="941.29,-450.04 945.96,-440.53 936.38,-445.06 941.29,-450.04"/>
</g>
<!-- nix -->
<g id="node5" class="node">
<title>nix</title>
<g id="a_node5"><a xlink:href="https://github.com/conda-forge/nix-feedstock" xlink:title="nix">
<ellipse fill="#fde725" stroke="black" cx="703.74" cy="-422" rx="27" ry="18"/>
<text text-anchor="middle" x="703.74" y="-417.32" font-family="Times,serif" font-size="14.00">nix</text>
</a>
</g>
</g>
<!-- boost&#45;&gt;nix -->
<g id="edge4" class="edge">
<title>boost&#45;&gt;nix</title>
<path fill="none" stroke="black" d="M861.31,-483.21C830.12,-473.24 781.12,-456.88 739.74,-440 738.22,-439.38 736.67,-438.73 735.11,-438.06"/>
<polygon fill="black" stroke="black" points="736.83,-434.99 726.27,-434.07 733.95,-441.37 736.83,-434.99"/>
</g>
<!-- folly -->
<g id="node6" class="node">
<title>folly</title>
<g id="a_node6"><a xlink:href="https://github.com/conda-forge/folly-feedstock" xlink:title="folly">
<ellipse fill="#fde725" stroke="black" cx="878.74" cy="-350" rx="32.79" ry="18"/>
<text text-anchor="middle" x="878.74" y="-345.32" font-family="Times,serif" font-size="14.00">folly</text>
</a>
</g>
</g>
<!-- boost&#45;&gt;folly -->
<g id="edge5" class="edge">
<title>boost&#45;&gt;folly</title>
<path fill="none" stroke="black" d="M891.02,-475.59C888.66,-451.61 884.37,-408.14 881.54,-379.42"/>
<polygon fill="black" stroke="black" points="885.04,-379.23 880.57,-369.62 878.07,-379.91 885.04,-379.23"/>
</g>
<!-- chemfiles&#45;lib -->
<g id="node7" class="node">
<title>chemfiles&#45;lib</title>
<g id="a_node7"><a xlink:href="https://github.com/conda-forge/chemfiles-lib-feedstock" xlink:title="chemfiles lib">
<ellipse fill="#35b779" stroke="black" cx="2817.39" cy="-782" rx="74.36" ry="18"/>
<text text-anchor="middle" x="2817.39" y="-777.33" font-family="Times,serif" font-size="14.00">chemfiles lib</text>
</a>
</g>
</g>
<!-- giza -->
<g id="node8" class="node">
<title>giza</title>
<g id="a_node8"><a xlink:href="https://github.com/conda-forge/giza-feedstock" xlink:title="giza">
<ellipse fill="#35b779" stroke="black" cx="2817.39" cy="-710" rx="31.74" ry="18"/>
<text text-anchor="middle" x="2817.39" y="-705.33" font-family="Times,serif" font-size="14.00">giza</text>
</a>
</g>
</g>
<!-- chemfiles&#45;lib&#45;&gt;giza -->
<!-- sox -->
<g id="node49" class="node">
<title>sox</title>
<g id="a_node49"><a xlink:href="https://github.com/conda-forge/sox-feedstock" xlink:title="sox">
<ellipse fill="#35b779" stroke="black" cx="2817.39" cy="-638" rx="28.06" ry="18"/>
<text text-anchor="middle" x="2817.39" y="-633.33" font-family="Times,serif" font-size="14.00">sox</text>
</a>
</g>
</g>
<!-- giza&#45;&gt;sox -->
<!-- cmake -->
<g id="node9" class="node">
<title>cmake</title>
<g id="a_node9"><a xlink:href="https://github.com/conda-forge/cmake-feedstock/pull/229" xlink:title="cmake ❎">
<ellipse fill="#31688e" stroke="black" cx="1400.74" cy="-638" rx="58.57" ry="18"/>
<text text-anchor="middle" x="1400.74" y="-633.33" font-family="Times,serif" font-size="14.00" fill="white">cmake ❎</text>
</a>
</g>
</g>
<!-- python -->
<g id="node10" class="node">
<title>python</title>
<g id="a_node10"><a xlink:href="https://github.com/conda-forge/python-feedstock" xlink:title="python">
<ellipse fill="#fde725" stroke="black" cx="1400.74" cy="-566" rx="45.95" ry="18"/>
<text text-anchor="middle" x="1400.74" y="-561.33" font-family="Times,serif" font-size="14.00">python</text>
</a>
</g>
</g>
<!-- cmake&#45;&gt;python -->
<g id="edge7" class="edge">
<title>cmake&#45;&gt;python</title>
<path fill="none" stroke="black" d="M1400.74,-619.7C1400.74,-612.41 1400.74,-603.73 1400.74,-595.54"/>
<polygon fill="black" stroke="black" points="1404.24,-595.62 1400.74,-585.62 1397.24,-595.62 1404.24,-595.62"/>
</g>
<!-- python&#45;&gt;boost -->
<g id="edge8" class="edge">
<title>python&#45;&gt;boost</title>
<path fill="none" stroke="black" d="M1356.28,-560.88C1278.03,-553.33 1110.7,-535.83 970.74,-512 959.89,-510.15 948.26,-507.82 937.39,-505.47"/>
<polygon fill="black" stroke="black" points="938.39,-502.11 927.87,-503.37 936.88,-508.94 938.39,-502.11"/>
</g>
<!-- python&#45;&gt;gdal -->
<g id="edge9" class="edge">
<title>python&#45;&gt;gdal</title>
<path fill="none" stroke="black" d="M1354.76,-563.94C1275.55,-561.09 1118.35,-550.59 1081.74,-512 1066.76,-496.21 1065.17,-471.09 1066.81,-451.55"/>
<polygon fill="black" stroke="black" points="1070.27,-452.09 1067.97,-441.75 1063.32,-451.26 1070.27,-452.09"/>
</g>
<!-- python&#45;&gt;paraview -->
<g id="edge10" class="edge">
<title>python&#45;&gt;paraview</title>
<path fill="none" stroke="black" d="M1354.31,-565.9C1286.81,-565.44 1159.16,-557.85 1062.74,-512 1031.47,-497.13 1002.89,-469.18 984.56,-448.55"/>
<polygon fill="black" stroke="black" points="987.3,-446.37 978.11,-441.09 982,-450.94 987.3,-446.37"/>
</g>
<!-- python&#45;&gt;nix -->
<g id="edge11" class="edge">
<title>python&#45;&gt;nix</title>
<path fill="none" stroke="black" d="M1354.95,-563.37C1239.48,-558.82 938.91,-544.16 844.74,-512 800.14,-496.77 755.24,-464.92 728.46,-443.74"/>
<polygon fill="black" stroke="black" points="730.93,-441.24 720.95,-437.69 726.54,-446.69 730.93,-441.24"/>
</g>
<!-- rpm&#45;tools -->
<g id="node11" class="node">
<title>rpm&#45;tools</title>
<g id="a_node11"><a xlink:href="https://github.com/conda-forge/rpm-tools-feedstock" xlink:title="rpm tools">
<ellipse fill="#fde725" stroke="black" cx="2641.74" cy="-494" rx="59.1" ry="18"/>
<text text-anchor="middle" x="2641.74" y="-489.32" font-family="Times,serif" font-size="14.00">rpm tools</text>
</a>
</g>
</g>
<!-- python&#45;&gt;rpm&#45;tools -->
<g id="edge12" class="edge">
<title>python&#45;&gt;rpm&#45;tools</title>
<path fill="none" stroke="black" d="M1446.74,-564.15C1635.38,-560.47 2350.34,-544.64 2573.74,-512 2578.61,-511.29 2583.64,-510.38 2588.66,-509.35"/>
<polygon fill="black" stroke="black" points="2589.08,-512.84 2598.08,-507.26 2587.56,-506 2589.08,-512.84"/>
</g>
<!-- systemd -->
<g id="node12" class="node">
<title>systemd</title>
<g id="a_node12"><a xlink:href="https://github.com/conda-forge/systemd-feedstock" xlink:title="systemd">
<ellipse fill="#fde725" stroke="black" cx="2511.74" cy="-494" rx="53.31" ry="18"/>
<text text-anchor="middle" x="2511.74" y="-489.32" font-family="Times,serif" font-size="14.00">systemd</text>
</a>
</g>
</g>
<!-- python&#45;&gt;systemd -->
<g id="edge13" class="edge">
<title>python&#45;&gt;systemd</title>
<path fill="none" stroke="black" d="M1446.88,-564C1622.91,-559.98 2252.25,-543.68 2449.74,-512 2453.84,-511.34 2458.05,-510.52 2462.27,-509.59"/>
<polygon fill="black" stroke="black" points="2462.95,-513.02 2471.86,-507.28 2461.31,-506.22 2462.95,-513.02"/>
</g>
<!-- linux&#45;perf -->
<g id="node13" class="node">
<title>linux&#45;perf</title>
<g id="a_node13"><a xlink:href="https://github.com/conda-forge/linux-perf-feedstock" xlink:title="linux perf">
<ellipse fill="#fde725" stroke="black" cx="2380.74" cy="-494" rx="59.63" ry="18"/>
<text text-anchor="middle" x="2380.74" y="-489.32" font-family="Times,serif" font-size="14.00">linux perf</text>
</a>
</g>
</g>
<!-- python&#45;&gt;linux&#45;perf -->
<g id="edge14" class="edge">
<title>python&#45;&gt;linux&#45;perf</title>
<path fill="none" stroke="black" d="M1446.73,-565.02C1580.32,-564.49 1979.59,-558.81 2306.74,-512 2312.77,-511.14 2319.04,-510.03 2325.27,-508.8"/>
<polygon fill="black" stroke="black" points="2325.81,-512.26 2334.87,-506.78 2324.37,-505.41 2325.81,-512.26"/>
</g>
<!-- ffmpeg -->
<g id="node14" class="node">
<title>ffmpeg</title>
<g id="a_node14"><a xlink:href="https://github.com/conda-forge/ffmpeg-feedstock" xlink:title="ffmpeg">
<ellipse fill="#fde725" stroke="black" cx="1675.74" cy="-494" rx="45.95" ry="18"/>
<text text-anchor="middle" x="1675.74" y="-489.32" font-family="Times,serif" font-size="14.00">ffmpeg</text>
</a>
</g>
</g>
<!-- python&#45;&gt;ffmpeg -->
<g id="edge15" class="edge">
<title>python&#45;&gt;ffmpeg</title>
<path fill="none" stroke="black" d="M1439.29,-555.92C1482.4,-545.67 1554.23,-528.29 1615.74,-512 1619.97,-510.88 1624.37,-509.69 1628.77,-508.47"/>
<polygon fill="black" stroke="black" points="1629.47,-511.91 1638.17,-505.86 1627.59,-505.17 1629.47,-511.91"/>
</g>
<!-- mpv -->
<g id="node15" class="node">
<title>mpv</title>
<g id="a_node15"><a xlink:href="https://github.com/conda-forge/mpv-feedstock" xlink:title="mpv">
<ellipse fill="#fde725" stroke="black" cx="1789.74" cy="-422" rx="32.79" ry="18"/>
<text text-anchor="middle" x="1789.74" y="-417.32" font-family="Times,serif" font-size="14.00">mpv</text>
</a>
</g>
</g>
<!-- python&#45;&gt;mpv -->
<g id="edge16" class="edge">
<title>python&#45;&gt;mpv</title>
<path fill="none" stroke="black" d="M1445.99,-562.2C1525.07,-556.59 1684.4,-541.85 1730.74,-512 1753.46,-497.36 1769.44,-470.53 1778.98,-450.14"/>
<polygon fill="black" stroke="black" points="1782.06,-451.83 1782.9,-441.27 1775.66,-449 1782.06,-451.83"/>
</g>
<!-- torchaudio -->
<g id="node16" class="node">
<title>torchaudio</title>
<g id="a_node16"><a xlink:href="https://github.com/conda-forge/torchaudio-feedstock" xlink:title="torchaudio">
<ellipse fill="#fde725" stroke="black" cx="1673.74" cy="-422" rx="64.89" ry="18"/>
<text text-anchor="middle" x="1673.74" y="-417.32" font-family="Times,serif" font-size="14.00">torchaudio</text>
</a>
</g>
</g>
<!-- python&#45;&gt;torchaudio -->
<g id="edge17" class="edge">
<title>python&#45;&gt;torchaudio</title>
<path fill="none" stroke="black" d="M1439.56,-555.88C1472.48,-547.24 1520.34,-532.54 1558.74,-512 1592,-494.21 1625.61,-466.87 1647.83,-447.19"/>
<polygon fill="black" stroke="black" points="1650.12,-449.83 1655.21,-440.54 1645.44,-444.63 1650.12,-449.83"/>
</g>
<!-- gdb -->
<g id="node17" class="node">
<title>gdb</title>
<g id="a_node17"><a xlink:href="https://github.com/conda-forge/gdb-feedstock" xlink:title="gdb">
<ellipse fill="#fde725" stroke="black" cx="1429.74" cy="-494" rx="30.16" ry="18"/>
<text text-anchor="middle" x="1429.74" y="-489.32" font-family="Times,serif" font-size="14.00">gdb</text>
</a>
</g>
</g>
<!-- python&#45;&gt;gdb -->
<g id="edge18" class="edge">
<title>python&#45;&gt;gdb</title>
<path fill="none" stroke="black" d="M1407.76,-548.05C1410.96,-540.32 1414.84,-530.96 1418.44,-522.27"/>
<polygon fill="black" stroke="black" points="1421.61,-523.77 1422.2,-513.19 1415.14,-521.09 1421.61,-523.77"/>
</g>
<!-- glibmm -->
<g id="node18" class="node">
<title>glibmm</title>
<g id="a_node18"><a xlink:href="https://github.com/conda-forge/glibmm-feedstock" xlink:title="glibmm">
<ellipse fill="#fde725" stroke="black" cx="1541.74" cy="-422" rx="49.1" ry="18"/>
<text text-anchor="middle" x="1541.74" y="-417.32" font-family="Times,serif" font-size="14.00">glibmm</text>
</a>
</g>
</g>
<!-- python&#45;&gt;glibmm -->
<g id="edge19" class="edge">
<title>python&#45;&gt;glibmm</title>
<path fill="none" stroke="black" d="M1445.3,-560.83C1477.28,-555.27 1518.37,-542.28 1539.74,-512 1552,-494.62 1551.66,-470.2 1548.72,-451.33"/>
<polygon fill="black" stroke="black" points="1552.18,-450.8 1546.86,-441.63 1545.3,-452.11 1552.18,-450.8"/>
</g>
<!-- imagemagick -->
<g id="node19" class="node">
<title>imagemagick</title>
<g id="a_node19"><a xlink:href="https://github.com/conda-forge/imagemagick-feedstock" xlink:title="imagemagick">
<ellipse fill="#fde725" stroke="black" cx="1532.74" cy="-350" rx="77.52" ry="18"/>
<text text-anchor="middle" x="1532.74" y="-345.32" font-family="Times,serif" font-size="14.00">imagemagick</text>
</a>
</g>
</g>
<!-- python&#45;&gt;imagemagick -->
<g id="edge20" class="edge">
<title>python&#45;&gt;imagemagick</title>
<path fill="none" stroke="black" d="M1439.1,-555.57C1461.58,-547.86 1488.16,-534.45 1501.74,-512 1510.02,-498.31 1505.41,-491.57 1501.74,-476 1497.63,-458.59 1487.85,-457.41 1483.74,-440 1480.06,-424.43 1477.91,-418.9 1483.74,-404 1487.87,-393.43 1495.21,-383.71 1502.97,-375.56"/>
<polygon fill="black" stroke="black" points="1505.28,-378.2 1510.01,-368.72 1500.4,-373.18 1505.28,-378.2"/>
</g>
<!-- octave -->
<g id="node20" class="node">
<title>octave</title>
<g id="a_node20"><a xlink:href="https://github.com/conda-forge/octave-feedstock" xlink:title="octave">
<ellipse fill="#fde725" stroke="black" cx="1367.74" cy="-278" rx="43.84" ry="18"/>
<text text-anchor="middle" x="1367.74" y="-273.32" font-family="Times,serif" font-size="14.00">octave</text>
</a>
</g>
</g>
<!-- python&#45;&gt;octave -->
<g id="edge21" class="edge">
<title>python&#45;&gt;octave</title>
<path fill="none" stroke="black" d="M1428.43,-551.41C1443.33,-542.46 1460.33,-529.21 1468.74,-512 1475.76,-497.62 1471.92,-491.68 1468.74,-476 1454.91,-407.88 1442.49,-392.19 1407.74,-332 1402.29,-322.57 1395.42,-312.88 1388.92,-304.41"/>
<polygon fill="black" stroke="black" points="1391.71,-302.31 1382.76,-296.63 1386.22,-306.65 1391.71,-302.31"/>
</g>
<!-- r&#45;base -->
<g id="node21" class="node">
<title>r&#45;base</title>
<g id="a_node21"><a xlink:href="https://github.com/conda-forge/r-base-feedstock" xlink:title="r base">
<ellipse fill="#fde725" stroke="black" cx="1301.74" cy="-494" rx="42.26" ry="18"/>
<text text-anchor="middle" x="1301.74" y="-489.32" font-family="Times,serif" font-size="14.00">r base</text>
</a>
</g>
</g>
<!-- python&#45;&gt;r&#45;base -->
<g id="edge22" class="edge">
<title>python&#45;&gt;r&#45;base</title>
<path fill="none" stroke="black" d="M1379.26,-549.81C1365.41,-540.02 1347.2,-527.15 1331.92,-516.34"/>
<polygon fill="black" stroke="black" points="1334.26,-513.71 1324.07,-510.79 1330.22,-519.42 1334.26,-513.71"/>
</g>
<!-- scotch -->
<g id="node22" class="node">
<title>scotch</title>
<g id="a_node22"><a xlink:href="https://github.com/conda-forge/scotch-feedstock" xlink:title="scotch">
<ellipse fill="#fde725" stroke="black" cx="681.74" cy="-278" rx="43.32" ry="18"/>
<text text-anchor="middle" x="681.74" y="-273.32" font-family="Times,serif" font-size="14.00">scotch</text>
</a>
</g>
</g>
<!-- python&#45;&gt;scotch -->
<g id="edge23" class="edge">
<title>python&#45;&gt;scotch</title>
<path fill="none" stroke="black" d="M1354.91,-564.19C1228.88,-561.49 879.26,-550.62 771.74,-512 758.51,-507.25 674.26,-452.45 667.74,-440 645.51,-397.58 659.15,-340.14 670.71,-306.58"/>
<polygon fill="black" stroke="black" points="673.85,-308.19 673.98,-297.59 667.27,-305.8 673.85,-308.19"/>
</g>
<!-- squash -->
<g id="node23" class="node">
<title>squash</title>
<g id="a_node23"><a xlink:href="https://github.com/conda-forge/squash-feedstock" xlink:title="squash">
<ellipse fill="#fde725" stroke="black" cx="610.74" cy="-206" rx="46.47" ry="18"/>
<text text-anchor="middle" x="610.74" y="-201.32" font-family="Times,serif" font-size="14.00">squash</text>
</a>
</g>
</g>
<!-- python&#45;&gt;squash -->
<g id="edge24" class="edge">
<title>python&#45;&gt;squash</title>
<path fill="none" stroke="black" d="M1354.43,-565C1196.32,-564.57 684.5,-559.5 629.74,-512 599.19,-485.5 610.74,-463.45 610.74,-423 610.74,-423 610.74,-423 610.74,-349 610.74,-309.74 610.74,-264.38 610.74,-235.69"/>
<polygon fill="black" stroke="black" points="614.24,-236 610.74,-226 607.24,-236 614.24,-236"/>
</g>
<!-- lldb -->
<g id="node24" class="node">
<title>lldb</title>
<g id="a_node24"><a xlink:href="https://github.com/conda-forge/lldb-feedstock" xlink:title="lldb">
<ellipse fill="#fde725" stroke="black" cx="668.74" cy="-494" rx="30.16" ry="18"/>
<text text-anchor="middle" x="668.74" y="-489.32" font-family="Times,serif" font-size="14.00">lldb</text>
</a>
</g>
</g>
<!-- python&#45;&gt;lldb -->
<g id="edge25" class="edge">
<title>python&#45;&gt;lldb</title>
<path fill="none" stroke="black" d="M1354.92,-563.21C1221.62,-557.74 835.71,-539.86 712.74,-512 709.59,-511.29 706.38,-510.39 703.18,-509.39"/>
<polygon fill="black" stroke="black" points="704.57,-506.17 693.98,-506.15 702.25,-512.77 704.57,-506.17"/>
</g>
<!-- z5py -->
<g id="node25" class="node">
<title>z5py</title>
<g id="a_node25"><a xlink:href="https://github.com/conda-forge/z5py-feedstock" xlink:title="z5py">
<ellipse fill="#fde725" stroke="black" cx="547.74" cy="-422" rx="34.9" ry="18"/>
<text text-anchor="middle" x="547.74" y="-417.32" font-family="Times,serif" font-size="14.00">z5py</text>
</a>
</g>
</g>
<!-- python&#45;&gt;z5py -->
<g id="edge26" class="edge">
<title>python&#45;&gt;z5py</title>
<path fill="none" stroke="black" d="M1354.62,-564.52C1193.32,-562.48 660.73,-552.72 596.74,-512 575.24,-498.32 562.4,-471.74 555.3,-451.18"/>
<polygon fill="black" stroke="black" points="558.64,-450.13 552.29,-441.64 551.96,-452.23 558.64,-450.13"/>
</g>
<!-- graphicsmagick -->
<g id="node26" class="node">
<title>graphicsmagick</title>
<g id="a_node26"><a xlink:href="https://github.com/conda-forge/graphicsmagick-feedstock" xlink:title="graphicsmagick">
<ellipse fill="#fde725" stroke="black" cx="1308.74" cy="-350" rx="90.14" ry="18"/>
<text text-anchor="middle" x="1308.74" y="-345.32" font-family="Times,serif" font-size="14.00">graphicsmagick</text>
</a>
</g>
</g>
<!-- python&#45;&gt;graphicsmagick -->
<g id="edge27" class="edge">
<title>python&#45;&gt;graphicsmagick</title>
<path fill="none" stroke="black" d="M1397.48,-547.66C1389.7,-506.38 1370.64,-405.57 1369.74,-404 1363.3,-392.83 1353.63,-382.85 1343.87,-374.65"/>
<polygon fill="black" stroke="black" points="1346.18,-372.02 1336.16,-368.57 1341.85,-377.51 1346.18,-372.02"/>
</g>
<!-- ghc -->
<g id="node27" class="node">
<title>ghc</title>
<g id="a_node27"><a xlink:href="https://github.com/conda-forge/ghc-feedstock" xlink:title="ghc">
<ellipse fill="#fde725" stroke="black" cx="484.74" cy="-278" rx="29.11" ry="18"/>
<text text-anchor="middle" x="484.74" y="-273.32" font-family="Times,serif" font-size="14.00">ghc</text>
</a>
</g>
</g>
<!-- python&#45;&gt;ghc -->
<g id="edge28" class="edge">
<title>python&#45;&gt;ghc</title>
<path fill="none" stroke="black" d="M1354.59,-564.25C1189.19,-561.25 632.25,-548.52 561.74,-512 488.74,-474.19 482.04,-360.99 483.17,-307.54"/>
<polygon fill="black" stroke="black" points="486.66,-307.83 483.49,-297.72 479.66,-307.59 486.66,-307.83"/>
</g>
<!-- root -->
<g id="node28" class="node">
<title>root</title>
<g id="a_node28"><a xlink:href="https://github.com/conda-forge/root-feedstock" xlink:title="root">
<ellipse fill="#fde725" stroke="black" cx="1235.74" cy="-422" rx="31.74" ry="18"/>
<text text-anchor="middle" x="1235.74" y="-417.32" font-family="Times,serif" font-size="14.00">root</text>
</a>
</g>
</g>
<!-- python&#45;&gt;root -->
<g id="edge29" class="edge">
<title>python&#45;&gt;root</title>
<path fill="none" stroke="black" d="M1356.18,-561.2C1322.14,-555.85 1276.78,-542.97 1250.74,-512 1236.78,-495.39 1233.53,-470.71 1233.49,-451.55"/>
<polygon fill="black" stroke="black" points="1236.99,-451.79 1233.79,-441.69 1229.99,-451.58 1236.99,-451.79"/>
</g>
<!-- scilab -->
<g id="node29" class="node">
<title>scilab</title>
<g id="a_node29"><a xlink:href="https://github.com/conda-forge/scilab-feedstock" xlink:title="scilab">
<ellipse fill="#fde725" stroke="black" cx="356.74" cy="-206" rx="40.16" ry="18"/>
<text text-anchor="middle" x="356.74" y="-201.32" font-family="Times,serif" font-size="14.00">scilab</text>
</a>
</g>
</g>
<!-- python&#45;&gt;scilab -->
<g id="edge30" class="edge">
<title>python&#45;&gt;scilab</title>
<path fill="none" stroke="black" d="M1354.51,-564.43C1155.82,-561.75 382.9,-548.97 347.74,-512 328.97,-492.27 346.16,-307.49 353.65,-235.51"/>
<polygon fill="black" stroke="black" points="357.11,-236.02 354.68,-225.71 350.15,-235.29 357.11,-236.02"/>
</g>
<!-- pypy3.6 -->
<g id="node30" class="node">
<title>pypy3.6</title>
<g id="a_node30"><a xlink:href="https://github.com/conda-forge/pypy3.6-feedstock" xlink:title="pypy3 6">
<ellipse fill="#fde725" stroke="black" cx="1152.74" cy="-494" rx="51.21" ry="18"/>
<text text-anchor="middle" x="1152.74" y="-489.32" font-family="Times,serif" font-size="14.00">pypy3 6</text>
</a>
</g>
</g>
<!-- python&#45;&gt;pypy3.6 -->
<g id="edge31" class="edge">
<title>python&#45;&gt;pypy3.6</title>
<path fill="none" stroke="black" d="M1364.15,-554.67C1321.36,-542.59 1250.33,-522.55 1202.54,-509.06"/>
<polygon fill="black" stroke="black" points="1203.56,-505.71 1192.98,-506.36 1201.66,-512.44 1203.56,-505.71"/>
</g>
<!-- imagecodecs -->
<g id="node31" class="node">
<title>imagecodecs</title>
<g id="a_node31"><a xlink:href="https://github.com/conda-forge/imagecodecs-feedstock" xlink:title="imagecodecs">
<ellipse fill="#fde725" stroke="black" cx="431.74" cy="-494" rx="75.41" ry="18"/>
<text text-anchor="middle" x="431.74" y="-489.32" font-family="Times,serif" font-size="14.00">imagecodecs</text>
</a>
</g>
</g>
<!-- python&#45;&gt;imagecodecs -->
<g id="edge32" class="edge">
<title>python&#45;&gt;imagecodecs</title>
<path fill="none" stroke="black" d="M1354.74,-564.31C1223.82,-561.9 838.15,-551.71 520.74,-512 513.29,-511.07 505.53,-509.89 497.83,-508.6"/>
<polygon fill="black" stroke="black" points="498.58,-505.18 488.13,-506.89 497.37,-512.07 498.58,-505.18"/>
</g>
<!-- wxwidgets -->
<g id="node32" class="node">
<title>wxwidgets</title>
<g id="a_node32"><a xlink:href="https://github.com/conda-forge/wxwidgets-feedstock" xlink:title="wxwidgets">
<ellipse fill="#fde725" stroke="black" cx="263.74" cy="-422" rx="64.89" ry="18"/>
<text text-anchor="middle" x="263.74" y="-417.32" font-family="Times,serif" font-size="14.00">wxwidgets</text>
</a>
</g>
</g>
<!-- python&#45;&gt;wxwidgets -->
<g id="edge33" class="edge">
<title>python&#45;&gt;wxwidgets</title>
<path fill="none" stroke="black" d="M1354.41,-565.33C1158.54,-566.39 404.28,-566.85 314.74,-512 292.7,-498.5 279.26,-471.7 271.75,-451.03"/>
<polygon fill="black" stroke="black" points="275.13,-450.11 268.65,-441.73 268.49,-452.32 275.13,-450.11"/>
</g>
<!-- createrepo_c -->
<g id="node33" class="node">
<title>createrepo_c</title>
<g id="a_node33"><a xlink:href="https://github.com/conda-forge/createrepo_c-feedstock" xlink:title="createrepo_c">
<ellipse fill="#fde725" stroke="black" cx="2575.74" cy="-350" rx="75.41" ry="18"/>
<text text-anchor="middle" x="2575.74" y="-345.32" font-family="Times,serif" font-size="14.00">createrepo_c</text>
</a>
</g>
</g>
<!-- python&#45;&gt;createrepo_c -->
<g id="edge34" class="edge">
<title>python&#45;&gt;createrepo_c</title>
<path fill="none" stroke="black" d="M1446.94,-564.61C1600.26,-562.93 2091.07,-554.28 2242.74,-512 2276.06,-502.71 2280.77,-491.4 2311.74,-476 2388.62,-437.76 2479.3,-395.42 2531.89,-371.13"/>
<polygon fill="black" stroke="black" points="2533.21,-374.38 2540.82,-367.01 2530.28,-368.02 2533.21,-374.38"/>
</g>
<!-- dask&#45;sql -->
<g id="node34" class="node">
<title>dask&#45;sql</title>
<g id="a_node34"><a xlink:href="https://github.com/conda-forge/dask-sql-feedstock" xlink:title="dask sql">
<ellipse fill="#fde725" stroke="black" cx="191.74" cy="-350" rx="52.26" ry="18"/>
<text text-anchor="middle" x="191.74" y="-345.32" font-family="Times,serif" font-size="14.00">dask sql</text>
</a>
</g>
</g>
<!-- python&#45;&gt;dask&#45;sql -->
<g id="edge35" class="edge">
<title>python&#45;&gt;dask&#45;sql</title>
<path fill="none" stroke="black" d="M1354.77,-564.48C1156.8,-562.03 382.37,-550.06 280.74,-512 232.44,-493.91 212.2,-486.42 189.74,-440 180.68,-421.28 181.7,-397.66 184.7,-379.46"/>
<polygon fill="black" stroke="black" points="188.09,-380.35 186.58,-369.87 181.22,-379.01 188.09,-380.35"/>
</g>
<!-- gtkwave -->
<g id="node35" class="node">
<title>gtkwave</title>
<g id="a_node35"><a xlink:href="https://github.com/conda-forge/gtkwave-feedstock" xlink:title="gtkwave">
<ellipse fill="#fde725" stroke="black" cx="111.74" cy="-278" rx="53.31" ry="18"/>
<text text-anchor="middle" x="111.74" y="-273.32" font-family="Times,serif" font-size="14.00">gtkwave</text>
</a>
</g>
</g>
<!-- python&#45;&gt;gtkwave -->
<g id="edge36" class="edge">
<title>python&#45;&gt;gtkwave</title>
<path fill="none" stroke="black" d="M1354.75,-564.21C1141.73,-560.39 259.16,-542.76 209.74,-512 138.51,-467.67 119.01,-359.61 113.71,-307.73"/>
<polygon fill="black" stroke="black" points="117.2,-307.55 112.82,-297.9 110.23,-308.18 117.2,-307.55"/>
</g>
<!-- tomviz -->
<g id="node36" class="node">
<title>tomviz</title>
<g id="a_node36"><a xlink:href="https://github.com/conda-forge/tomviz-feedstock" xlink:title="tomviz">
<ellipse fill="#fde725" stroke="black" cx="2244.74" cy="-206" rx="44.9" ry="18"/>
<text text-anchor="middle" x="2244.74" y="-201.32" font-family="Times,serif" font-size="14.00">tomviz</text>
</a>
</g>
</g>
<!-- python&#45;&gt;tomviz -->
<g id="edge37" class="edge">
<title>python&#45;&gt;tomviz</title>
<path fill="none" stroke="black" d="M1446.86,-564.57C1603.15,-562.75 2106.32,-553.67 2164.74,-512 2193.03,-491.82 2216.84,-401.59 2225.74,-368 2237.76,-322.65 2242.18,-268.09 2243.8,-235.55"/>
<polygon fill="black" stroke="black" points="2247.29,-235.87 2244.23,-225.73 2240.3,-235.57 2247.29,-235.87"/>
</g>
<!-- clad -->
<g id="node37" class="node">
<title>clad</title>
<g id="a_node37"><a xlink:href="https://github.com/conda-forge/clad-feedstock" xlink:title="clad">
<ellipse fill="#fde725" stroke="black" cx="1154.74" cy="-422" rx="31.74" ry="18"/>
<text text-anchor="middle" x="1154.74" y="-417.32" font-family="Times,serif" font-size="14.00">clad</text>
</a>
</g>
</g>
<!-- python&#45;&gt;clad -->
<g id="edge38" class="edge">
<title>python&#45;&gt;clad</title>
<path fill="none" stroke="black" d="M1354.66,-564.05C1277.11,-561.36 1125.69,-551.11 1092.74,-512 1073.69,-489.4 1101.31,-461.06 1125.52,-442.51"/>
<polygon fill="black" stroke="black" points="1127.31,-445.54 1133.31,-436.81 1123.18,-439.89 1127.31,-445.54"/>
</g>
<!-- kenlm -->
<g id="node38" class="node">
<title>kenlm</title>
<g id="a_node38"><a xlink:href="https://github.com/conda-forge/kenlm-feedstock" xlink:title="kenlm">
<ellipse fill="#fde725" stroke="black" cx="41.74" cy="-494" rx="41.74" ry="18"/>
<text text-anchor="middle" x="41.74" y="-489.32" font-family="Times,serif" font-size="14.00">kenlm</text>
</a>
</g>
</g>
<!-- python&#45;&gt;kenlm -->
<g id="edge39" class="edge">
<title>python&#45;&gt;kenlm</title>
<path fill="none" stroke="black" d="M1354.45,-564.69C1152.43,-563.1 346.92,-554.18 97.74,-512 93.36,-511.26 88.84,-510.27 84.35,-509.15"/>
<polygon fill="black" stroke="black" points="85.42,-505.81 74.85,-506.53 83.56,-512.56 85.42,-505.81"/>
</g>
<!-- biobear -->
<g id="node39" class="node">
<title>biobear</title>
<g id="a_node39"><a xlink:href="https://github.com/conda-forge/biobear-feedstock" xlink:title="biobear">
<ellipse fill="#fde725" stroke="black" cx="2274.74" cy="-422" rx="49.1" ry="18"/>
<text text-anchor="middle" x="2274.74" y="-417.32" font-family="Times,serif" font-size="14.00">biobear</text>
</a>
</g>
</g>
<!-- python&#45;&gt;biobear -->
<g id="edge40" class="edge">
<title>python&#45;&gt;biobear</title>
<path fill="none" stroke="black" d="M1446.82,-564.29C1608.66,-561.47 2144.93,-549.37 2211.74,-512 2235.94,-498.46 2253.07,-471.28 2263.3,-450.5"/>
<polygon fill="black" stroke="black" points="2266.35,-452.24 2267.38,-441.7 2260,-449.3 2266.35,-452.24"/>
</g>
<!-- deltalake -->
<g id="node40" class="node">
<title>deltalake</title>
<g id="a_node40"><a xlink:href="https://github.com/conda-forge/deltalake-feedstock" xlink:title="deltalake">
<ellipse fill="#fde725" stroke="black" cx="2159.74" cy="-350" rx="57" ry="18"/>
<text text-anchor="middle" x="2159.74" y="-345.32" font-family="Times,serif" font-size="14.00">deltalake</text>
</a>
</g>
</g>
<!-- python&#45;&gt;deltalake -->
<g id="edge41" class="edge">
<title>python&#45;&gt;deltalake</title>
<path fill="none" stroke="black" d="M1446.94,-565.04C1601.05,-564.72 2090.59,-559.9 2140.74,-512 2176.12,-478.21 2172.21,-416.06 2166.06,-379.66"/>
<polygon fill="black" stroke="black" points="2169.5,-379.05 2164.22,-369.86 2162.62,-380.34 2169.5,-379.05"/>
</g>
<!-- tensorstore -->
<g id="node41" class="node">
<title>tensorstore</title>
<g id="a_node41"><a xlink:href="https://github.com/conda-forge/tensorstore-feedstock" xlink:title="tensorstore">
<ellipse fill="#fde725" stroke="black" cx="2074.74" cy="-278" rx="69.1" ry="18"/>
<text text-anchor="middle" x="2074.74" y="-273.32" font-family="Times,serif" font-size="14.00">tensorstore</text>
</a>
</g>
</g>
<!-- python&#45;&gt;tensorstore -->
<g id="edge42" class="edge">
<title>python&#45;&gt;tensorstore</title>
<path fill="none" stroke="black" d="M1446.69,-564.12C1564.86,-561.31 1876.65,-550.38 1971.74,-512 1983.61,-507.21 2055.73,-451.31 2061.74,-440 2084,-398.09 2082.51,-341.24 2078.94,-307.51"/>
<polygon fill="black" stroke="black" points="2082.43,-307.21 2077.76,-297.71 2075.48,-308.05 2082.43,-307.21"/>
</g>
<!-- cpprate -->
<g id="node42" class="node">
<title>cpprate</title>
<g id="a_node42"><a xlink:href="https://github.com/conda-forge/cpprate-feedstock" xlink:title="cpprate">
<ellipse fill="#fde725" stroke="black" cx="1964.74" cy="-206" rx="49.63" ry="18"/>
<text text-anchor="middle" x="1964.74" y="-201.32" font-family="Times,serif" font-size="14.00">cpprate</text>
</a>
</g>
</g>
<!-- python&#45;&gt;cpprate -->
<g id="edge43" class="edge">
<title>python&#45;&gt;cpprate</title>
<path fill="none" stroke="black" d="M1446.15,-562.72C1560.54,-556.62 1853.91,-538.53 1888.74,-512 1943.49,-470.29 1928.9,-434.74 1945.74,-368 1957.22,-322.51 1961.8,-267.99 1963.61,-235.5"/>
<polygon fill="black" stroke="black" points="1967.09,-235.86 1964.09,-225.7 1960.1,-235.51 1967.09,-235.86"/>
</g>
<!-- getdaft -->
<g id="node43" class="node">
<title>getdaft</title>
<g id="a_node43"><a xlink:href="https://github.com/conda-forge/getdaft-feedstock" xlink:title="getdaft">
<ellipse fill="#fde725" stroke="black" cx="2083.74" cy="-494" rx="47.53" ry="18"/>
<text text-anchor="middle" x="2083.74" y="-489.32" font-family="Times,serif" font-size="14.00">getdaft</text>
</a>
</g>
</g>
<!-- python&#45;&gt;getdaft -->
<g id="edge44" class="edge">
<title>python&#45;&gt;getdaft</title>
<path fill="none" stroke="black" d="M1446.69,-563.94C1550.15,-560.93 1808.95,-549.92 2021.74,-512 2026.63,-511.13 2031.69,-510.05 2036.73,-508.85"/>
<polygon fill="black" stroke="black" points="2037.3,-512.32 2046.13,-506.47 2035.58,-505.53 2037.3,-512.32"/>
</g>
<!-- elegant -->
<g id="node44" class="node">
<title>elegant</title>
<g id="a_node44"><a xlink:href="https://github.com/conda-forge/elegant-feedstock" xlink:title="elegant">
<ellipse fill="#fde725" stroke="black" cx="2003.74" cy="-422" rx="48.58" ry="18"/>
<text text-anchor="middle" x="2003.74" y="-417.32" font-family="Times,serif" font-size="14.00">elegant</text>
</a>
</g>
</g>
<!-- python&#45;&gt;elegant -->
<g id="edge45" class="edge">
<title>python&#45;&gt;elegant</title>
<path fill="none" stroke="black" d="M1446.97,-565.3C1561.92,-565.3 1857.35,-560.45 1940.74,-512 1964.6,-498.13 1981.72,-471.2 1992.03,-450.57"/>
<polygon fill="black" stroke="black" points="1995.19,-452.08 1996.29,-441.54 1988.86,-449.1 1995.19,-452.08"/>
</g>
<!-- bfiocpp -->
<g id="node45" class="node">
<title>bfiocpp</title>
<g id="a_node45"><a xlink:href="https://github.com/conda-forge/bfiocpp-feedstock" xlink:title="bfiocpp">
<ellipse fill="#fde725" stroke="black" cx="1888.74" cy="-350" rx="47.53" ry="18"/>
<text text-anchor="middle" x="1888.74" y="-345.32" font-family="Times,serif" font-size="14.00">bfiocpp</text>
</a>
</g>
</g>
<!-- python&#45;&gt;bfiocpp -->
<g id="edge46" class="edge">
<title>python&#45;&gt;bfiocpp</title>
<path fill="none" stroke="black" d="M1446.31,-562.91C1557.33,-557.37 1834.97,-540.77 1864.74,-512 1900.07,-477.86 1898.48,-415.84 1893.82,-379.55"/>
<polygon fill="black" stroke="black" points="1897.31,-379.19 1892.4,-369.81 1890.38,-380.21 1897.31,-379.19"/>
</g>
<!-- ugrep -->
<g id="node46" class="node">
<title>ugrep</title>
<g id="a_node46"><a xlink:href="https://github.com/conda-forge/ugrep-feedstock" xlink:title="ugrep">
<ellipse fill="#fde725" stroke="black" cx="1812.74" cy="-278" rx="40.69" ry="18"/>
<text text-anchor="middle" x="1812.74" y="-273.32" font-family="Times,serif" font-size="14.00">ugrep</text>
</a>
</g>
</g>
<!-- python&#45;&gt;ugrep -->
<g id="edge47" class="edge">
<title>python&#45;&gt;ugrep</title>
<path fill="none" stroke="black" d="M1445.86,-561.94C1529.82,-555.65 1706.44,-539.53 1760.74,-512 1800.82,-491.68 1814.69,-481.58 1831.74,-440 1841.32,-416.65 1828.14,-346.98 1819.4,-307.36"/>
<polygon fill="black" stroke="black" points="1822.86,-306.81 1817.25,-297.83 1816.04,-308.35 1822.86,-306.81"/>
</g>
<!-- rpm&#45;tools&#45;&gt;createrepo_c -->
<g id="edge51" class="edge">
<title>rpm&#45;tools&#45;&gt;createrepo_c</title>
<path fill="none" stroke="black" d="M2640.67,-475.74C2638.94,-457.15 2634.42,-427.13 2622.74,-404 2617.63,-393.9 2610.13,-384.21 2602.6,-375.94"/>
<polygon fill="black" stroke="black" points="2605.36,-373.76 2595.9,-368.98 2600.31,-378.61 2605.36,-373.76"/>
</g>
<!-- drpm -->
<g id="node48" class="node">
<title>drpm</title>
<g id="a_node48"><a xlink:href="https://github.com/conda-forge/drpm-feedstock" xlink:title="drpm">
<ellipse fill="#fde725" stroke="black" cx="2575.74" cy="-422" rx="38.06" ry="18"/>
<text text-anchor="middle" x="2575.74" y="-417.32" font-family="Times,serif" font-size="14.00">drpm</text>
</a>
</g>
</g>
<!-- rpm&#45;tools&#45;&gt;drpm -->
<g id="edge52" class="edge">
<title>rpm&#45;tools&#45;&gt;drpm</title>
<path fill="none" stroke="black" d="M2626.1,-476.41C2617.84,-467.66 2607.56,-456.75 2598.44,-447.08"/>
<polygon fill="black" stroke="black" points="2601.26,-444.96 2591.85,-440.09 2596.16,-449.77 2601.26,-444.96"/>
</g>
<!-- ffmpeg&#45;&gt;mpv -->
<g id="edge53" class="edge">
<title>ffmpeg&#45;&gt;mpv</title>
<path fill="none" stroke="black" d="M1699.64,-478.33C1716.82,-467.77 1740.16,-453.44 1758.77,-442.01"/>
<polygon fill="black" stroke="black" points="1760.58,-445.01 1767.27,-436.8 1756.92,-439.05 1760.58,-445.01"/>
</g>
<!-- ffmpeg&#45;&gt;torchaudio -->
<g id="edge54" class="edge">
<title>ffmpeg&#45;&gt;torchaudio</title>
<path fill="none" stroke="black" d="M1675.24,-475.7C1675.04,-468.41 1674.79,-459.73 1674.55,-451.54"/>
<polygon fill="black" stroke="black" points="1678.05,-451.51 1674.27,-441.62 1671.06,-451.71 1678.05,-451.51"/>
</g>
<!-- r&#45;base&#45;&gt;root -->
<g id="edge56" class="edge">
<title>r&#45;base&#45;&gt;root</title>
<path fill="none" stroke="black" d="M1286.43,-476.76C1277.95,-467.77 1267.25,-456.42 1257.87,-446.48"/>
<polygon fill="black" stroke="black" points="1260.5,-444.17 1251.1,-439.29 1255.41,-448.97 1260.5,-444.17"/>
</g>
<!-- r&#45;xslt -->
<g id="node50" class="node">
<title>r&#45;xslt</title>
<g id="a_node50"><a xlink:href="https://github.com/conda-forge/r-xslt-feedstock" xlink:title="r xslt">
<ellipse fill="#fde725" stroke="black" cx="1322.74" cy="-422" rx="37.53" ry="18"/>
<text text-anchor="middle" x="1322.74" y="-417.32" font-family="Times,serif" font-size="14.00">r xslt</text>
</a>
</g>
</g>
<!-- r&#45;base&#45;&gt;r&#45;xslt -->
<g id="edge57" class="edge">
<title>r&#45;base&#45;&gt;r&#45;xslt</title>
<path fill="none" stroke="black" d="M1306.93,-475.7C1309.17,-468.24 1311.84,-459.32 1314.35,-450.97"/>
<polygon fill="black" stroke="black" points="1317.65,-452.14 1317.17,-441.55 1310.95,-450.13 1317.65,-452.14"/>
</g>
<!-- graphicsmagick&#45;&gt;octave -->
<g id="edge58" class="edge">
<title>graphicsmagick&#45;&gt;octave</title>
<path fill="none" stroke="black" d="M1323.02,-332.05C1330.15,-323.59 1338.92,-313.19 1346.8,-303.84"/>
<polygon fill="black" stroke="black" points="1349.25,-306.37 1353.02,-296.46 1343.9,-301.85 1349.25,-306.37"/>
</g>
<!-- pypy3.6&#45;&gt;root -->
<g id="edge59" class="edge">
<title>pypy3.6&#45;&gt;root</title>
<path fill="none" stroke="black" d="M1171.57,-477.12C1182.96,-467.51 1197.64,-455.13 1210.09,-444.63"/>
<polygon fill="black" stroke="black" points="1212.13,-447.49 1217.52,-438.37 1207.61,-442.14 1212.13,-447.49"/>
</g>
<!-- pypy3.6&#45;&gt;clad -->
<g id="edge60" class="edge">
<title>pypy3.6&#45;&gt;clad</title>
<path fill="none" stroke="black" d="M1153.23,-475.7C1153.44,-468.41 1153.69,-459.73 1153.92,-451.54"/>
<polygon fill="black" stroke="black" points="1157.42,-451.71 1154.21,-441.62 1150.42,-451.51 1157.42,-451.71"/>
</g>
<!-- elfutils -->
<g id="node47" class="node">
<title>elfutils</title>
<g id="a_node47"><a xlink:href="https://github.com/conda-forge/elfutils-feedstock" xlink:title="elfutils">
<ellipse fill="#35b779" stroke="black" cx="2511.74" cy="-566" rx="45.95" ry="18"/>
<text text-anchor="middle" x="2511.74" y="-561.33" font-family="Times,serif" font-size="14.00">elfutils</text>
</a>
</g>
</g>
<!-- elfutils&#45;&gt;rpm&#45;tools -->
<g id="edge48" class="edge">
<title>elfutils&#45;&gt;rpm&#45;tools</title>
<path fill="none" stroke="black" d="M2538.05,-550.83C2556.92,-540.67 2582.63,-526.83 2603.73,-515.46"/>
<polygon fill="black" stroke="black" points="2605.19,-518.65 2612.34,-510.83 2601.87,-512.49 2605.19,-518.65"/>
</g>
<!-- elfutils&#45;&gt;systemd -->
<g id="edge49" class="edge">
<title>elfutils&#45;&gt;systemd</title>
<path fill="none" stroke="black" d="M2511.74,-547.7C2511.74,-540.41 2511.74,-531.73 2511.74,-523.54"/>
<polygon fill="black" stroke="black" points="2515.24,-523.62 2511.74,-513.62 2508.24,-523.62 2515.24,-523.62"/>
</g>
<!-- elfutils&#45;&gt;linux&#45;perf -->
<g id="edge50" class="edge">
<title>elfutils&#45;&gt;linux&#45;perf</title>
<path fill="none" stroke="black" d="M2485.23,-550.83C2466.21,-540.67 2440.3,-526.83 2419.04,-515.46"/>
<polygon fill="black" stroke="black" points="2420.83,-512.45 2410.36,-510.83 2417.53,-518.63 2420.83,-512.45"/>
</g>
<!-- drpm&#45;&gt;createrepo_c -->
<g id="edge67" class="edge">
<title>drpm&#45;&gt;createrepo_c</title>
<path fill="none" stroke="black" d="M2575.74,-403.7C2575.74,-396.41 2575.74,-387.73 2575.74,-379.54"/>
<polygon fill="black" stroke="black" points="2579.24,-379.62 2575.74,-369.62 2572.24,-379.62 2579.24,-379.62"/>
</g>
<!-- the_silver_searcher -->
<g id="node51" class="node">
<title>the_silver_searcher</title>
<g id="a_node51"><a xlink:href="https://github.com/conda-forge/the_silver_searcher-feedstock" xlink:title="the_silver_searcher">
<ellipse fill="#35b779" stroke="black" cx="2817.39" cy="-566" rx="108.55" ry="18"/>
<text text-anchor="middle" x="2817.39" y="-561.33" font-family="Times,serif" font-size="14.00">the_silver_searcher</text>
</a>
</g>
</g>
<!-- sox&#45;&gt;the_silver_searcher -->
<!-- squashfs&#45;tools -->
<g id="node52" class="node">
<title>squashfs&#45;tools</title>
<g id="a_node52"><a xlink:href="https://github.com/conda-forge/squashfs-tools-feedstock" xlink:title="squashfs tools">
<ellipse fill="#35b779" stroke="black" cx="2817.39" cy="-494" rx="82.77" ry="18"/>
<text text-anchor="middle" x="2817.39" y="-489.32" font-family="Times,serif" font-size="14.00">squashfs tools</text>
</a>
</g>
</g>
<!-- the_silver_searcher&#45;&gt;squashfs&#45;tools -->
<!-- libtiledb&#45;sql -->
<g id="node55" class="node">
<title>libtiledb&#45;sql</title>
<g id="a_node55"><a xlink:href="https://github.com/conda-forge/libtiledb-sql-feedstock" xlink:title="libtiledb sql">
<ellipse fill="#35b779" stroke="black" cx="2817.39" cy="-422" rx="70.68" ry="18"/>
<text text-anchor="middle" x="2817.39" y="-417.32" font-family="Times,serif" font-size="14.00">libtiledb sql</text>
</a>
</g>
</g>
<!-- squashfs&#45;tools&#45;&gt;libtiledb&#45;sql -->
<!-- leptonica -->
<g id="node53" class="node">
<title>leptonica</title>
<g id="a_node53"><a xlink:href="https://github.com/conda-forge/leptonica-feedstock" xlink:title="leptonica">
<ellipse fill="#35b779" stroke="black" cx="2991.47" cy="-458" rx="57" ry="18"/>
<text text-anchor="middle" x="2991.47" y="-453.32" font-family="Times,serif" font-size="14.00">leptonica</text>
</a>
</g>
</g>
<!-- tesseract -->
<g id="node54" class="node">
<title>tesseract</title>
<g id="a_node54"><a xlink:href="https://github.com/conda-forge/tesseract-feedstock" xlink:title="tesseract">
<ellipse fill="#fde725" stroke="black" cx="2991.47" cy="-386" rx="57.52" ry="18"/>
<text text-anchor="middle" x="2991.47" y="-381.32" font-family="Times,serif" font-size="14.00">tesseract</text>
</a>
</g>
</g>
<!-- leptonica&#45;&gt;tesseract -->
<g id="edge63" class="edge">
<title>leptonica&#45;&gt;tesseract</title>
<path fill="none" stroke="black" d="M2991.47,-439.7C2991.47,-432.41 2991.47,-423.73 2991.47,-415.54"/>
<polygon fill="black" stroke="black" points="2994.97,-415.62 2991.47,-405.62 2987.97,-415.62 2994.97,-415.62"/>
</g>
<!-- karchive -->
<g id="node56" class="node">
<title>karchive</title>
<g id="a_node56"><a xlink:href="https://github.com/conda-forge/karchive-feedstock" xlink:title="karchive">
<ellipse fill="#35b779" stroke="black" cx="2817.39" cy="-350" rx="53.84" ry="18"/>
<text text-anchor="middle" x="2817.39" y="-345.32" font-family="Times,serif" font-size="14.00">karchive</text>
</a>
</g>
</g>
<!-- libtiledb&#45;sql&#45;&gt;karchive -->
<!-- shrinkwrap -->
<g id="node57" class="node">
<title>shrinkwrap</title>
<g id="a_node57"><a xlink:href="https://github.com/conda-forge/shrinkwrap-feedstock" xlink:title="shrinkwrap">
<ellipse fill="#35b779" stroke="black" cx="2817.39" cy="-278" rx="68.04" ry="18"/>
<text text-anchor="middle" x="2817.39" y="-273.32" font-family="Times,serif" font-size="14.00">shrinkwrap</text>
</a>
</g>
</g>
<!-- karchive&#45;&gt;shrinkwrap -->
<!-- squashfuse -->
<g id="node58" class="node">
<title>squashfuse</title>
<g id="a_node58"><a xlink:href="https://github.com/conda-forge/squashfuse-feedstock" xlink:title="squashfuse">
<ellipse fill="#35b779" stroke="black" cx="2817.39" cy="-206" rx="67.52" ry="18"/>
<text text-anchor="middle" x="2817.39" y="-201.32" font-family="Times,serif" font-size="14.00">squashfuse</text>
</a>
</g>
</g>
<!-- shrinkwrap&#45;&gt;squashfuse -->
<!-- libxmlsec1 -->
<g id="node59" class="node">
<title>libxmlsec1</title>
<g id="a_node59"><a xlink:href="https://github.com/conda-forge/libxmlsec1-feedstock/pull/38" xlink:title="libxmlsec1 ❎">
<ellipse fill="#31688e" stroke="black" cx="2817.39" cy="-134" rx="80.14" ry="18"/>
<text text-anchor="middle" x="2817.39" y="-129.32" font-family="Times,serif" font-size="14.00" fill="white">libxmlsec1 ❎</text>
</a>
</g>
</g>
<!-- squashfuse&#45;&gt;libxmlsec1 -->
<!-- minizip -->
<g id="node60" class="node">
<title>minizip</title>
<g id="a_node60"><a xlink:href="https://github.com/conda-forge/minizip-feedstock/pull/18" xlink:title="minizip ❎">
<ellipse fill="#31688e" stroke="black" cx="2817.39" cy="-62" rx="63.31" ry="18"/>
<text text-anchor="middle" x="2817.39" y="-57.33" font-family="Times,serif" font-size="14.00" fill="white">minizip ❎</text>
</a>
</g>
</g>
<!-- libxmlsec1&#45;&gt;minizip -->
<!-- libzio -->
<g id="node61" class="node">
<title>libzio</title>
<g id="a_node61"><a xlink:href="https://github.com/conda-forge/libzio-feedstock" xlink:title="libzio">
<ellipse fill="#35b779" stroke="black" cx="1350.42" cy="-18" rx="38.06" ry="18"/>
<text text-anchor="middle" x="1350.42" y="-13.32" font-family="Times,serif" font-size="14.00">libzio</text>
</a>
</g>
</g>
</g>
</svg>
